<?xml version="1.0" encoding="UTF-8" standalone="no"?>
<svg xmlns:xlink="http://www.w3.org/1999/xlink" height="171.55px" width="34.0px" xmlns="http://www.w3.org/2000/svg">
  <g transform="matrix(1.0, 0.0, 0.0, 1.0, 17.0, 87.95)">
    <path d="M6.1 -82.15 Q7.0 -81.3 7.0 -80.05 L7.0 45.5 9.75 45.95 12.0 44.95 Q12.35 44.9 14.65 47.1 17.0 49.35 17.0 49.95 17.0 50.55 14.65 52.75 12.4 54.95 12.0 54.95 L10.7 54.45 9.75 53.95 6.6 54.55 5.75 55.15 Q6.0 57.65 5.8 61.4 L5.0 72.2 4.65 76.1 4.95 78.35 Q4.9 80.85 3.2 82.35 1.75 83.65 0.0 83.6 -1.75 83.65 -3.2 82.35 -4.9 80.85 -4.95 78.35 L-4.65 76.1 -5.0 72.2 -5.8 61.4 Q-6.0 57.65 -5.75 55.15 L-6.6 54.55 -9.75 53.95 -10.7 54.45 -12.0 54.95 Q-12.4 54.95 -14.65 52.75 -17.0 50.55 -17.0 49.95 -17.0 49.35 -14.65 47.1 -12.35 44.9 -12.0 44.95 L-9.75 45.95 -7.0 45.5 -7.0 -80.05 Q-7.0 -81.3 -6.1 -82.15 -0.85 -87.95 0.0 -87.95 0.85 -87.95 6.1 -82.15" fill="#000000" fill-rule="evenodd" stroke="none"/>
    <path d="M0.0 -76.0 L4.0 -80.0 4.0 -76.0 4.0 49.0 0.0 49.0 0.0 -76.0" fill="url(#gradient0)" fill-rule="evenodd" stroke="none"/>
    <path d="M4.0 -80.0 L0.0 -76.0 -4.0 -80.0 0.0 -84.0 4.0 -80.0" fill="#e8e8f2" fill-rule="evenodd" stroke="none"/>
    <path d="M0.0 -76.0 L0.0 49.0 -4.0 49.0 -4.0 -76.0 -4.0 -80.0 0.0 -76.0" fill="url(#gradient1)" fill-rule="evenodd" stroke="none"/>
    <path d="M2.0 72.0 L0.0 72.0 -2.0 72.0 -2.8 61.3 Q-3.05 56.5 -2.6 54.0 L0.0 54.0 2.6 54.0 Q3.05 56.5 2.8 61.3 L2.0 72.0" fill="url(#gradient2)" fill-rule="evenodd" stroke="none"/>
    <path d="M2.8 55.0 L-2.75 55.0 -3.0 54.0 3.0 54.0 2.8 55.0 M2.0 72.0 L-2.0 72.0 -2.0 71.0 2.0 71.0 2.0 72.0" fill="#330033" fill-rule="evenodd" stroke="none"/>
    <path d="M-14.0 50.0 L-12.0 48.0 -11.0 49.0 Q-7.7 49.1 -5.0 48.0 L5.0 48.0 Q7.7 49.1 11.0 49.0 L12.0 48.0 14.0 50.0 -14.0 50.0" fill="url(#gradient3)" fill-rule="evenodd" stroke="none"/>
    <path d="M-14.0 50.0 L14.0 50.0 12.0 52.0 11.0 51.0 Q7.7 50.9 5.0 52.0 L4.0 52.0 -4.0 52.0 -5.0 52.0 -5.35 51.85 -5.65 51.75 Q-8.1 50.9 -11.0 51.0 L-12.0 52.0 -14.0 50.0" fill="#7b7766" fill-rule="evenodd" stroke="none"/>
    <path d="M4.0 52.0 L3.0 54.0 -3.0 54.0 -4.0 52.0 4.0 52.0" fill="url(#gradient4)" fill-rule="evenodd" stroke="none"/>
    <path d="M2.0 80.0 L2.0 79.0 1.8 79.0 -2.0 79.0 -2.0 79.2 -2.0 80.0 -3.0 80.0 -3.0 78.0 Q-3.0 76.8 -1.95 75.95 L-2.0 75.95 -2.0 72.0 2.0 72.0 2.0 75.95 1.95 75.95 Q3.0 76.8 3.0 78.0 L3.0 80.0 2.0 80.0" fill="url(#gradient5)" fill-rule="evenodd" stroke="none"/>
    <path d="M4.0 48.0 L-4.0 48.0 -4.0 45.0 4.0 45.0 4.0 48.0" fill="url(#gradient6)" fill-rule="evenodd" stroke="none"/>
    <path d="M0.0 61.75 L0.35 61.9 0.5 62.25 0.5 68.8 0.35 69.15 0.0 69.3 -0.35 69.15 -0.5 68.8 -0.5 62.25 -0.35 61.9 0.0 61.75" fill="url(#gradient7)" fill-rule="evenodd" stroke="none"/>
    <path d="M-2.0 74.0 L-2.0 73.0 2.0 73.0 2.0 74.0 -2.0 74.0" fill="#504e3d" fill-opacity="0.5019608" fill-rule="evenodd" stroke="none"/>
    <path d="M2.0 74.0 L2.0 75.0 -2.0 75.0 -2.0 74.0 2.0 74.0" fill="#eae8e1" fill-opacity="0.5019608" fill-rule="evenodd" stroke="none"/>
    <path d="M0.0 80.95 Q-0.8 80.95 -1.4 80.4 L-1.8 79.85 -1.95 79.0 Q-1.95 78.2 -1.4 77.6 -0.8 77.05 0.0 77.05 0.8 77.05 1.35 77.6 L1.8 78.3 1.95 79.0 1.8 79.75 1.8 79.85 1.35 80.4 Q0.8 80.95 0.0 80.95" fill="url(#gradient8)" fill-rule="evenodd" stroke="none"/>
  </g>
  <defs>
    <linearGradient gradientTransform="matrix(0.0, 0.0775, -0.0787, 0.0, 2.0, -15.5)" gradientUnits="userSpaceOnUse" id="gradient0" spreadMethod="pad" x1="-819.2" x2="819.2">
      <stop offset="0.011764705882352941" stop-color="#caccd0"/>
      <stop offset="0.37254901960784315" stop-color="#ffffff"/>
      <stop offset="1.0" stop-color="#bbbdc4"/>
    </linearGradient>
    <linearGradient gradientTransform="matrix(9.0E-4, 0.0726, -0.0787, 0.001, -2.0, -15.5)" gradientUnits="userSpaceOnUse" id="gradient1" spreadMethod="pad" x1="-819.2" x2="819.2">
      <stop offset="0.011764705882352941" stop-color="#bfc1c6"/>
      <stop offset="0.37254901960784315" stop-color="#cacaca"/>
      <stop offset="1.0" stop-color="#a0a4ab"/>
    </linearGradient>
    <linearGradient gradientTransform="matrix(0.0035, 0.0, 0.0, 0.011, 0.0, 63.0)" gradientUnits="userSpaceOnUse" id="gradient2" spreadMethod="pad" x1="-819.2" x2="819.2">
      <stop offset="0.0" stop-color="#512879"/>
      <stop offset="0.4392156862745098" stop-color="#693d98"/>
      <stop offset="0.6627450980392157" stop-color="#693d98"/>
      <stop offset="1.0" stop-color="#512879"/>
    </linearGradient>
    <linearGradient gradientTransform="matrix(0.017, 0.0, 0.0, 0.0049, 0.0, 76.0)" gradientUnits="userSpaceOnUse" id="gradient3" spreadMethod="pad" x1="-819.2" x2="819.2">
      <stop offset="0.0" stop-color="#9c9985"/>
      <stop offset="0.07058823529411765" stop-color="#cfcdc5"/>
      <stop offset="0.30980392156862746" stop-color="#a19e8c"/>
      <stop offset="0.5176470588235295" stop-color="#cfcdc5"/>
      <stop offset="0.7176470588235294" stop-color="#a4a18f"/>
      <stop offset="0.9098039215686274" stop-color="#cfcdc5"/>
      <stop offset="1.0" stop-color="#9c9985"/>
    </linearGradient>
    <linearGradient gradientTransform="matrix(0.0049, 0.0, 0.0, 0.0012, 0.0, 53.0)" gradientUnits="userSpaceOnUse" id="gradient4" spreadMethod="pad" x1="-819.2" x2="819.2">
      <stop offset="0.0" stop-color="#9c9985"/>
      <stop offset="0.5176470588235295" stop-color="#cfcdc5"/>
      <stop offset="1.0" stop-color="#9c9985"/>
    </linearGradient>
    <linearGradient gradientTransform="matrix(0.0037, 0.0, 0.0, 0.0049, 0.0, 76.0)" gradientUnits="userSpaceOnUse" id="gradient5" spreadMethod="pad" x1="-819.2" x2="819.2">
      <stop offset="0.0" stop-color="#9c9985"/>
      <stop offset="0.5176470588235295" stop-color="#cfcdc5"/>
      <stop offset="1.0" stop-color="#9c9985"/>
    </linearGradient>
    <linearGradient gradientTransform="matrix(0.0, 0.0018, -0.0018, 0.0, 0.0, 46.5)" gradientUnits="userSpaceOnUse" id="gradient6" spreadMethod="pad" x1="-819.2" x2="819.2">
      <stop offset="0.0784313725490196" stop-color="#e1e0dd"/>
      <stop offset="0.1568627450980392" stop-color="#bcb9ad"/>
      <stop offset="1.0" stop-color="#a4978c"/>
    </linearGradient>
    <linearGradient gradientTransform="matrix(0.0, 0.0048, -0.0046, 0.0, 0.0, 65.5)" gradientUnits="userSpaceOnUse" id="gradient7" spreadMethod="pad" x1="-819.2" x2="819.2">
      <stop offset="0.0" stop-color="#a09a8f"/>
      <stop offset="0.5254901960784314" stop-color="#cac8bf"/>
      <stop offset="1.0" stop-color="#978f84"/>
    </linearGradient>
    <radialGradient cx="0" cy="0" gradientTransform="matrix(0.0031, 0.0, 0.0, 0.0031, 0.0, 79.0)" gradientUnits="userSpaceOnUse" id="gradient8" r="819.2" spreadMethod="pad">
      <stop offset="0.3176470588235294" stop-color="#f12929"/>
      <stop offset="0.5058823529411764" stop-color="#d71313"/>
      <stop offset="0.6862745098039216" stop-color="#bc5050"/>
      <stop offset="0.7490196078431373" stop-color="#ff8686"/>
    </radialGradient>
  </defs>
</svg>
