<?xml version="1.0" encoding="UTF-8" standalone="no"?>
<svg xmlns:xlink="http://www.w3.org/1999/xlink" height="111.0px" width="61.0px" xmlns="http://www.w3.org/2000/svg">
  <g transform="matrix(1.0, 0.0, 0.0, 1.0, 30.5, 55.5)">
    <path d="M12.75 -50.8 L13.35 -49.9 15.35 -44.9 15.5 -43.65 15.0 -42.5 9.5 -35.15 9.5 -35.0 9.3 -34.0 10.35 -32.5 11.0 -32.5 Q12.8 -32.55 14.2 -31.15 15.55 -29.8 15.5 -28.0 15.55 -26.2 14.2 -24.8 13.35 -24.0 12.35 -23.65 11.8 -22.7 11.6 -20.85 L16.7 -19.4 17.75 -18.8 18.4 -17.8 19.0 -15.9 28.85 -12.35 Q29.65 -12.05 30.15 -11.3 30.6 -10.55 30.5 -9.65 L22.5 53.35 Q22.35 54.25 21.65 54.9 20.95 55.5 20.0 55.5 L-20.0 55.5 Q-20.95 55.5 -21.65 54.9 -22.35 54.25 -22.45 53.35 L-30.45 -9.65 Q-30.6 -10.55 -30.1 -11.3 -29.65 -12.05 -28.85 -12.35 L-19.0 -15.9 -18.35 -17.8 -17.7 -18.8 Q-17.25 -19.25 -16.65 -19.4 L-11.6 -20.85 Q-11.8 -22.7 -12.3 -23.65 L-14.15 -24.8 Q-15.55 -26.2 -15.5 -28.0 -15.55 -29.8 -14.15 -31.15 -12.8 -32.55 -11.0 -32.5 L-10.3 -32.5 -9.3 -34.0 -9.5 -35.0 -9.5 -35.15 -15.0 -42.5 -15.45 -43.65 -15.3 -44.9 -13.3 -49.9 -12.75 -50.8 -11.85 -51.35 -0.85 -55.35 Q0.0 -55.65 0.85 -55.35 L11.85 -51.35 12.75 -50.8" fill="#000000" fill-rule="evenodd" stroke="none"/>
    <path d="M17.0 -14.0 L28.0 -10.0 20.0 53.0 -20.0 53.0 -28.0 -10.0 -17.0 -14.0 17.0 -14.0" fill="url(#gradient0)" fill-rule="evenodd" stroke="none"/>
    <path d="M26.9 -9.3 L19.1 52.0 -19.1 52.0 -26.9 -9.3 -14.0 -14.0 14.0 -14.0 26.9 -9.3" fill="url(#gradient1)" fill-rule="evenodd" stroke="none"/>
    <path d="M26.9 -9.3 L19.1 52.0 -19.1 52.0 -26.9 -9.3 -14.0 -14.0 14.0 -14.0 26.9 -9.3 Z" fill="none" stroke="url(#gradient2)" stroke-linecap="round" stroke-linejoin="round" stroke-width="0.5"/>
    <path d="M15.55 -2.75 Q18.75 -1.1 20.25 2.45 21.85 6.2 21.05 11.0 19.7 19.2 14.0 25.55 9.1 30.9 0.0 36.0 -9.1 30.9 -13.95 25.55 -19.65 19.2 -21.0 11.0 -21.8 6.2 -20.2 2.45 -18.7 -1.1 -15.5 -2.75 -11.4 -4.85 -7.0 -3.4 L-7.0 -26.0 7.0 -26.0 7.0 -3.4 Q11.4 -4.85 15.55 -2.75" fill="url(#gradient3)" fill-rule="evenodd" stroke="none"/>
    <path d="M6.0 -1.9 Q10.7 -4.0 15.1 -1.85 18.0 -0.35 19.35 2.85 20.8 6.35 20.1 10.85 18.75 18.75 13.25 24.9 L13.3 24.9 Q8.6 29.95 0.0 34.85 -8.55 29.95 -13.2 24.9 -18.7 18.75 -20.0 10.85 -20.75 6.35 -19.25 2.85 -17.95 -0.35 -15.05 -1.85 -10.7 -4.0 -6.0 -1.9 L-6.0 -26.0 6.0 -26.0 6.0 -1.9" fill="url(#gradient4)" fill-rule="evenodd" stroke="none"/>
    <path d="M6.0 -1.9 Q10.7 -4.0 15.1 -1.85 18.0 -0.35 19.35 2.85 20.8 6.35 20.1 10.85 18.75 18.75 13.25 24.9 L13.3 24.9 Q8.6 29.95 0.0 34.85 -8.55 29.95 -13.2 24.9 -18.7 18.75 -20.0 10.85 -20.75 6.35 -19.25 2.85 -17.95 -0.35 -15.05 -1.85 -10.7 -4.0 -6.0 -1.9 L-6.0 -26.0 6.0 -26.0 6.0 -1.9" fill="url(#gradient5)" fill-rule="evenodd" stroke="none"/>
    <path d="M6.0 -1.9 Q10.7 -4.0 15.1 -1.85 18.0 -0.35 19.35 2.85 20.8 6.35 20.1 10.85 18.75 18.75 13.25 24.9 L13.3 24.9 Q8.6 29.95 0.0 34.85 -8.55 29.95 -13.2 24.9 -18.7 18.75 -20.0 10.85 -20.75 6.35 -19.25 2.85 -17.95 -0.35 -15.05 -1.85 -10.7 -4.0 -6.0 -1.9 L-6.0 -26.0 6.0 -26.0 6.0 -1.9" fill="url(#gradient6)" fill-rule="evenodd" stroke="none"/>
    <path d="M15.65 -14.85 L14.7 -16.85 16.0 -17.0 17.0 -14.0 Q-0.1 -12.3 -17.0 -14.0 L-16.0 -17.0 -14.2 -16.85 -15.0 -16.9 -15.65 -14.85 Q-0.1 -13.45 15.65 -14.85" fill="url(#gradient7)" fill-rule="evenodd" stroke="none"/>
    <path d="M15.65 -14.85 Q-0.1 -13.45 -15.65 -14.85 L-15.0 -16.9 Q-0.2 -15.6 14.7 -16.9 L15.65 -14.85" fill="url(#gradient8)" fill-rule="evenodd" stroke="none"/>
    <path d="M-8.0 -19.0 L-14.95 -16.9 -16.0 -17.0 -9.0 -19.0 -8.0 -19.0" fill="url(#gradient9)" fill-rule="evenodd" stroke="none"/>
    <path d="M14.0 -16.8 L14.7 -16.9 8.0 -19.0 9.0 -19.0 16.0 -17.0 14.0 -16.8" fill="url(#gradient10)" fill-rule="evenodd" stroke="none"/>
    <path d="M14.7 -16.9 L-0.2 -16.25 -15.0 -16.9 -8.0 -19.0 8.0 -19.0 14.7 -16.9" fill="url(#gradient11)" fill-rule="evenodd" stroke="none"/>
    <path d="M-8.4 -22.75 Q-7.9 -20.55 -8.0 -19.0 L-9.0 -19.0 Q-9.1 -24.4 -11.0 -26.0 L-9.5 -26.0 Q-8.85 -25.0 -8.4 -22.75" fill="url(#gradient12)" fill-rule="evenodd" stroke="none"/>
    <path d="M9.55 -26.0 L11.0 -26.0 Q9.1 -24.4 9.0 -19.0 L8.0 -19.0 Q7.95 -20.6 8.4 -22.85 8.9 -25.1 9.55 -26.0" fill="url(#gradient13)" fill-rule="evenodd" stroke="none"/>
    <path d="M8.4 -22.85 Q7.95 -20.6 8.0 -19.0 L-8.0 -19.0 Q-7.9 -20.55 -8.4 -22.75 -8.85 -25.0 -9.5 -26.0 L9.55 -26.0 Q8.9 -25.1 8.4 -22.85" fill="url(#gradient14)" fill-rule="evenodd" stroke="none"/>
    <path d="M12.4 -26.6 Q11.8 -26.0 11.0 -26.0 L-11.0 -26.0 Q-11.8 -26.0 -12.4 -26.6 -13.0 -27.2 -13.0 -28.0 -13.0 -28.8 -12.4 -29.4 -11.8 -30.0 -11.0 -30.0 L11.0 -30.0 Q11.8 -30.0 12.4 -29.4 13.0 -28.8 13.0 -28.0 13.0 -27.2 12.4 -26.6" fill="url(#gradient15)" fill-rule="evenodd" stroke="none"/>
    <path d="M11.0 -27.0 L-11.0 -27.0 Q-11.4 -27.0 -11.7 -27.3 L-12.0 -28.0 -11.7 -28.7 -11.0 -29.0 11.0 -29.0 11.7 -28.7 12.0 -28.0 11.7 -27.3 Q11.4 -27.0 11.0 -27.0" fill="url(#gradient16)" fill-rule="evenodd" stroke="none"/>
    <path d="M9.0 -30.0 L0.0 -30.0 -9.0 -30.0 -7.0 -33.0 0.0 -33.0 7.0 -33.0 9.0 -30.0" fill="url(#gradient17)" fill-rule="evenodd" stroke="none"/>
    <path d="M7.7 -30.0 L-7.75 -30.0 -5.75 -33.0 5.8 -33.0 7.7 -30.0" fill="url(#gradient18)" fill-rule="evenodd" stroke="none"/>
    <path d="M7.0 -35.0 Q6.05 -34.3 6.0 -33.0 L-6.0 -33.0 Q-6.05 -34.3 -7.0 -35.0 L-7.0 -36.0 7.0 -36.0 7.0 -35.0" fill="url(#gradient19)" fill-rule="evenodd" stroke="none"/>
    <path d="M5.05 -33.0 L-5.1 -33.0 -5.3 -34.0 -5.6 -35.0 5.6 -35.0 5.05 -33.0" fill="url(#gradient20)" fill-rule="evenodd" stroke="none"/>
    <path d="M-4.0 -36.0 L-7.0 -36.0 -10.0 -44.0 -4.0 -36.0" fill="#515151" fill-rule="evenodd" stroke="none"/>
    <path d="M0.0 -36.0 L4.0 -44.0 4.0 -36.0 10.0 -44.0 7.0 -36.0 4.0 -36.0 0.0 -36.0" fill="#959595" fill-rule="evenodd" stroke="none"/>
    <path d="M0.0 -36.0 L-4.0 -36.0 -4.0 -44.0 0.0 -36.0" fill="#bfbfbf" fill-rule="evenodd" stroke="none"/>
    <path d="M10.0 -44.0 L13.0 -44.0 7.0 -36.0 10.0 -44.0 M4.0 -44.0 L0.0 -36.0 -4.0 -44.0 4.0 -44.0" fill="#ffffff" fill-rule="evenodd" stroke="none"/>
    <path d="M4.0 -44.0 L10.0 -44.0 4.0 -36.0 4.0 -44.0" fill="#c6c6c6" fill-rule="evenodd" stroke="none"/>
    <path d="M-10.0 -44.0 L-7.0 -36.0 -13.0 -44.0 -10.0 -44.0" fill="#b0b0b0" fill-rule="evenodd" stroke="none"/>
    <path d="M-4.0 -44.0 L-4.0 -36.0 -10.0 -44.0 -4.0 -44.0" fill="#868686" fill-rule="evenodd" stroke="none"/>
    <path d="M0.0 -53.0 L11.0 -49.0 6.0 -49.0 0.0 -53.0" fill="#e6e6e6" fill-rule="evenodd" stroke="none"/>
    <path d="M0.0 -53.0 L0.0 -49.0 -6.0 -49.0 0.0 -53.0" fill="#8a8a8a" fill-rule="evenodd" stroke="none"/>
    <path d="M0.0 -53.0 L-6.0 -49.0 -11.0 -49.0 0.0 -53.0" fill="#d5d5d5" fill-rule="evenodd" stroke="none"/>
    <path d="M0.0 -53.0 L6.0 -49.0 0.0 -49.0 0.0 -53.0" fill="#ffffff" fill-rule="evenodd" stroke="none"/>
    <path d="M6.0 -49.0 L11.0 -49.0 10.0 -44.0 6.0 -49.0" fill="#f0f0f0" fill-rule="evenodd" stroke="none"/>
    <path d="M-6.0 -49.0 L-10.0 -44.0 -11.0 -49.0 -6.0 -49.0" fill="#959595" fill-rule="evenodd" stroke="none"/>
    <path d="M0.0 -49.0 L-4.0 -44.0 -6.0 -49.0 0.0 -49.0" fill="#bfbfbf" fill-rule="evenodd" stroke="none"/>
    <path d="M0.0 -49.0 L6.0 -49.0 4.0 -44.0 0.0 -49.0" fill="#868686" fill-rule="evenodd" stroke="none"/>
    <path d="M10.0 -44.0 L4.0 -44.0 6.0 -49.0 10.0 -44.0" fill="#ffffff" fill-rule="evenodd" stroke="none"/>
    <path d="M4.0 -44.0 L-4.0 -44.0 -10.0 -44.0 -6.0 -49.0 -4.0 -44.0 0.0 -49.0 4.0 -44.0" fill="#f0f0f0" fill-rule="evenodd" stroke="none"/>
    <path d="M-10.0 -44.0 L-13.0 -44.0 -11.0 -49.0 -10.0 -44.0" fill="#636363" fill-rule="evenodd" stroke="none"/>
    <path d="M10.0 -44.0 L11.0 -49.0 13.0 -44.0 10.0 -44.0" fill="#bfbfbf" fill-rule="evenodd" stroke="none"/>
    <path d="M7.0 -36.0 L4.0 -36.0 0.0 -36.0 -4.0 -36.0 -7.0 -36.0 -13.0 -44.0 -11.0 -49.0 0.0 -53.0 11.0 -49.0 13.0 -44.0 7.0 -36.0" fill="url(#gradient21)" fill-rule="evenodd" stroke="none"/>
    <path d="M12.05 -5.7 L2.95 -5.0 -2.9 -5.0 -12.05 -5.7 -19.85 -7.0 Q-25.1 -8.2 -28.0 -10.0 L-17.0 -14.0 Q-0.1 -12.3 17.0 -14.0 L28.0 -10.0 Q25.1 -8.2 19.9 -7.0 16.45 -6.2 12.05 -5.7" fill="url(#gradient22)" fill-rule="evenodd" stroke="none"/>
    <path d="M12.05 -5.7 Q16.45 -6.2 19.9 -7.0 L12.6 53.0 -12.6 53.0 -19.85 -7.0 -12.05 -5.7 0.0 -5.0 12.05 -5.7" fill="url(#gradient23)" fill-rule="evenodd" stroke="none"/>
    <path d="M-19.85 -7.0 L-12.6 53.0 -20.0 53.0 -28.0 -10.0 Q-25.1 -8.2 -19.85 -7.0" fill="url(#gradient24)" fill-rule="evenodd" stroke="none"/>
    <path d="M19.9 -7.0 Q25.1 -8.2 28.0 -10.0 L20.0 53.0 12.6 53.0 19.9 -7.0" fill="url(#gradient25)" fill-rule="evenodd" stroke="none"/>
    <path d="M10.0 9.0 Q10.0 13.15 7.05 16.05 4.15 19.0 0.0 19.0 -4.15 19.0 -7.1 16.05 -10.0 13.15 -10.0 9.0 -10.0 4.85 -7.1 1.9 -4.15 -1.0 0.0 -1.0 4.15 -1.0 7.05 1.9 10.0 4.85 10.0 9.0" fill="#443226" fill-opacity="0.2509804" fill-rule="evenodd" stroke="none"/>
    <path d="M10.0 8.0 Q10.0 12.15 7.05 15.05 4.15 18.0 0.0 18.0 -4.15 18.0 -7.1 15.05 -10.0 12.15 -10.0 8.0 -10.0 3.85 -7.1 0.9 -4.15 -2.0 0.0 -2.0 4.15 -2.0 7.05 0.9 10.0 3.85 10.0 8.0" fill="url(#gradient26)" fill-rule="evenodd" stroke="none"/>
    <path d="M8.6 8.0 Q8.6 11.6 6.05 14.05 3.55 16.6 0.0 16.6 -3.55 16.6 -6.1 14.05 -8.6 11.6 -8.6 8.0 -8.6 4.45 -6.1 1.9 -3.55 -0.6 0.0 -0.6 3.55 -0.6 6.05 1.9 8.6 4.45 8.6 8.0 Z" fill="none" stroke="url(#gradient27)" stroke-linecap="round" stroke-linejoin="round" stroke-width="0.5"/>
    <path d="M5.05 6.45 L4.05 8.6 2.55 9.45 Q3.8 10.55 3.55 11.0 L3.1 11.35 Q2.6 11.55 2.6 11.75 2.65 12.3 3.4 12.45 4.15 12.55 4.2 12.9 4.25 13.35 3.8 13.35 3.5 13.35 1.45 11.35 0.8 10.65 0.75 9.9 L-0.15 9.3 -0.15 9.35 -1.05 9.95 Q-1.1 10.7 -1.75 11.4 L-4.05 13.4 Q-4.5 13.4 -4.45 12.95 -4.4 12.6 -3.65 12.5 -2.95 12.35 -2.9 11.8 -2.9 11.6 -3.35 11.4 L-3.8 11.05 Q-4.05 10.6 -2.85 9.5 L-4.3 8.65 -5.3 6.5 Q-6.2 4.3 -5.55 3.5 -3.15 3.8 -1.8 5.75 -0.45 7.6 -0.15 7.6 L-0.15 7.55 1.5 5.7 Q2.9 3.8 5.3 3.5 5.95 4.3 5.05 6.45" fill="url(#gradient28)" fill-rule="evenodd" stroke="none"/>
    <path d="M8.0 -35.0 L-8.0 -35.0 -8.0 -36.0 8.0 -36.0 8.0 -35.0 M12.0 -25.0 L-12.0 -25.0 -12.0 -26.0 12.0 -26.0 12.0 -25.0" fill="#000000" fill-opacity="0.2" fill-rule="evenodd" stroke="none"/>
    <path d="M7.0 -36.0 L-7.0 -36.0 -7.0 -40.0 7.0 -40.0 7.0 -36.0" fill="#000000" fill-opacity="0.15294118" fill-rule="evenodd" stroke="none"/>
  </g>
  <defs>
    <linearGradient gradientTransform="matrix(2.0E-4, -0.0458, 0.0409, 2.0E-4, 0.0, 19.5)" gradientUnits="userSpaceOnUse" id="gradient0" spreadMethod="pad" x1="-819.2" x2="819.2">
      <stop offset="0.0" stop-color="#251e12"/>
      <stop offset="0.2784313725490196" stop-color="#f5f4f3"/>
      <stop offset="0.8235294117647058" stop-color="#270a05"/>
    </linearGradient>
    <linearGradient gradientTransform="matrix(0.0, -0.043, 0.04, 0.0, 0.0, 19.25)" gradientUnits="userSpaceOnUse" id="gradient1" spreadMethod="pad" x1="-819.2" x2="819.2">
      <stop offset="0.0" stop-color="#b7ae88"/>
      <stop offset="0.8392156862745098" stop-color="#dcc88d"/>
      <stop offset="1.0" stop-color="#56381b"/>
    </linearGradient>
    <linearGradient gradientTransform="matrix(0.0, -0.0403, 0.0406, 0.0, 0.0, 18.95)" gradientUnits="userSpaceOnUse" id="gradient2" spreadMethod="pad" x1="-819.2" x2="819.2">
      <stop offset="0.0" stop-color="#29261d"/>
      <stop offset="0.20784313725490197" stop-color="#ebdfbe"/>
      <stop offset="1.0" stop-color="#dfaf57"/>
    </linearGradient>
    <radialGradient cx="0" cy="0" gradientTransform="matrix(0.0415, 0.0, 0.0, 0.0755, 0.0, -26.0)" gradientUnits="userSpaceOnUse" id="gradient3" r="819.2" spreadMethod="pad">
      <stop offset="0.0" stop-color="#5e3922"/>
      <stop offset="0.15294117647058825" stop-color="#553c2b"/>
      <stop offset="0.32941176470588235" stop-color="#c5ab83"/>
      <stop offset="0.4235294117647059" stop-color="#a86a17"/>
      <stop offset="0.5843137254901961" stop-color="#c8b595"/>
      <stop offset="0.7333333333333333" stop-color="#f3eae0"/>
      <stop offset="0.8470588235294118" stop-color="#e7d5c3"/>
      <stop offset="0.9215686274509803" stop-color="#cab475"/>
      <stop offset="1.0" stop-color="#c19c59"/>
    </radialGradient>
    <radialGradient cx="0" cy="0" gradientTransform="matrix(0.0336, 0.0, 0.0, 0.0515, 0.0, -9.0)" gradientUnits="userSpaceOnUse" id="gradient4" r="819.2" spreadMethod="pad">
      <stop offset="0.0" stop-color="#ddcfa8"/>
      <stop offset="0.27058823529411763" stop-color="#ce8c13"/>
      <stop offset="0.8745098039215686" stop-color="#c29a52"/>
      <stop offset="0.9450980392156862" stop-color="#f2dfa8"/>
    </radialGradient>
    <radialGradient cx="0" cy="0" fx="-988.8000000000001" fy="0" gradientTransform="matrix(3.0E-4, -0.0342, 0.0249, 2.0E-4, 0.0, 13.0)" gradientUnits="userSpaceOnUse" id="gradient5" r="819.2" spreadMethod="pad">
      <stop offset="0.0784313725490196" stop-color="#ffffff" stop-opacity="0.8"/>
      <stop offset="0.5882352941176471" stop-color="#aba99a" stop-opacity="0.0"/>
      <stop offset="0.788235294117647" stop-color="#a8a59d" stop-opacity="0.0"/>
      <stop offset="0.9725490196078431" stop-color="#ababa0" stop-opacity="0.0"/>
    </radialGradient>
    <radialGradient cx="0" cy="0" fx="-1555.2" fy="0" gradientTransform="matrix(0.0192, -0.016, 0.0062, 0.0075, 7.35, 26.15)" gradientUnits="userSpaceOnUse" id="gradient6" r="819.2" spreadMethod="pad">
      <stop offset="0.19607843137254902" stop-color="#ffffff"/>
      <stop offset="0.30196078431372547" stop-color="#ffffff" stop-opacity="0.0"/>
    </radialGradient>
    <linearGradient gradientTransform="matrix(0.0208, 0.0, 0.0, 0.0023, 0.0, -15.1)" gradientUnits="userSpaceOnUse" id="gradient7" spreadMethod="pad" x1="-819.2" x2="819.2">
      <stop offset="0.0" stop-color="#270a05"/>
      <stop offset="0.21176470588235294" stop-color="#a27735"/>
      <stop offset="0.2980392156862745" stop-color="#dabf8f"/>
      <stop offset="0.43529411764705883" stop-color="#f9f8f0"/>
      <stop offset="0.5647058823529412" stop-color="#f9f8f0"/>
      <stop offset="0.6823529411764706" stop-color="#dabf8f"/>
      <stop offset="0.8117647058823529" stop-color="#a27735"/>
      <stop offset="1.0" stop-color="#270a05"/>
    </linearGradient>
    <radialGradient cx="0" cy="0" gradientTransform="matrix(0.022, 0.0, 0.0, 0.0129, 0.0, -14.0)" gradientUnits="userSpaceOnUse" id="gradient8" r="819.2" spreadMethod="pad">
      <stop offset="0.011764705882352941" stop-color="#ffffff"/>
      <stop offset="0.3058823529411765" stop-color="#e6cf6c" stop-opacity="0.6"/>
      <stop offset="0.6" stop-color="#2e1108"/>
      <stop offset="0.8117647058823529" stop-color="#280b05"/>
      <stop offset="0.9529411764705882" stop-color="#e2a047"/>
    </radialGradient>
    <linearGradient gradientTransform="matrix(0.0195, 0.0, 0.0, 0.0013, 0.0, -18.3)" gradientUnits="userSpaceOnUse" id="gradient9" spreadMethod="pad" x1="-819.2" x2="819.2">
      <stop offset="0.0" stop-color="#9b856e"/>
      <stop offset="0.21176470588235294" stop-color="#a27735"/>
      <stop offset="0.2980392156862745" stop-color="#dabf8f"/>
      <stop offset="0.43529411764705883" stop-color="#f9f8f0"/>
      <stop offset="0.5647058823529412" stop-color="#f9f8f0"/>
      <stop offset="0.6823529411764706" stop-color="#dabf8f"/>
      <stop offset="0.8117647058823529" stop-color="#a27735"/>
      <stop offset="1.0" stop-color="#9b856e"/>
    </linearGradient>
    <linearGradient gradientTransform="matrix(0.0195, 0.0, 0.0, 0.0013, 0.0, -18.0)" gradientUnits="userSpaceOnUse" id="gradient10" spreadMethod="pad" x1="-819.2" x2="819.2">
      <stop offset="0.0" stop-color="#9b856e"/>
      <stop offset="0.21176470588235294" stop-color="#a27735"/>
      <stop offset="0.2980392156862745" stop-color="#dabf8f"/>
      <stop offset="0.43529411764705883" stop-color="#f9f8f0"/>
      <stop offset="0.5647058823529412" stop-color="#f9f8f0"/>
      <stop offset="0.6823529411764706" stop-color="#dabf8f"/>
      <stop offset="0.8117647058823529" stop-color="#a27735"/>
      <stop offset="1.0" stop-color="#9b856e"/>
    </linearGradient>
    <radialGradient cx="0" cy="0" gradientTransform="matrix(0.0213, 0.0, 0.0, 0.0112, -0.15, -16.25)" gradientUnits="userSpaceOnUse" id="gradient11" r="819.2" spreadMethod="pad">
      <stop offset="0.13725490196078433" stop-color="#faf1cb" stop-opacity="0.6627451"/>
      <stop offset="0.4588235294117647" stop-color="#79430d"/>
      <stop offset="0.6392156862745098" stop-color="#290c06"/>
      <stop offset="0.9882352941176471" stop-color="#eed2c1"/>
    </radialGradient>
    <linearGradient gradientTransform="matrix(0.0135, 0.0, 0.0, 0.0043, 0.0, -22.0)" gradientUnits="userSpaceOnUse" id="gradient12" spreadMethod="pad" x1="-819.2" x2="819.2">
      <stop offset="0.0" stop-color="#140003"/>
      <stop offset="0.21176470588235294" stop-color="#a27735"/>
      <stop offset="0.2980392156862745" stop-color="#dabf8f"/>
      <stop offset="0.43529411764705883" stop-color="#f9f8f0"/>
      <stop offset="0.5647058823529412" stop-color="#f9f8f0"/>
      <stop offset="0.6823529411764706" stop-color="#dabf8f"/>
      <stop offset="0.8117647058823529" stop-color="#a27735"/>
      <stop offset="1.0" stop-color="#140003"/>
    </linearGradient>
    <linearGradient gradientTransform="matrix(0.0122, 0.0, 0.0, 0.0043, 0.0, -22.0)" gradientUnits="userSpaceOnUse" id="gradient13" spreadMethod="pad" x1="-819.2" x2="819.2">
      <stop offset="0.0" stop-color="#240606"/>
      <stop offset="0.21176470588235294" stop-color="#a27735"/>
      <stop offset="0.2980392156862745" stop-color="#dabf8f"/>
      <stop offset="0.43529411764705883" stop-color="#f9f8f0"/>
      <stop offset="0.5647058823529412" stop-color="#f9f8f0"/>
      <stop offset="0.6823529411764706" stop-color="#dabf8f"/>
      <stop offset="0.8117647058823529" stop-color="#a27735"/>
      <stop offset="1.0" stop-color="#240606"/>
    </linearGradient>
    <radialGradient cx="0" cy="0" gradientTransform="matrix(0.0134, 0.0, 0.0, 0.0174, 0.05, -19.2)" gradientUnits="userSpaceOnUse" id="gradient14" r="819.2" spreadMethod="pad">
      <stop offset="0.17254901960784313" stop-color="#dcbd85" stop-opacity="0.3529412"/>
      <stop offset="0.7333333333333333" stop-color="#2b0f07"/>
      <stop offset="1.0" stop-color="#911a1a"/>
    </radialGradient>
    <radialGradient cx="0" cy="0" gradientTransform="matrix(0.0244, 0.0, 0.0, 0.0057, 0.0, -28.0)" gradientUnits="userSpaceOnUse" id="gradient15" r="819.2" spreadMethod="pad">
      <stop offset="0.14901960784313725" stop-color="#ffffff"/>
      <stop offset="0.20392156862745098" stop-color="#d7bd68"/>
      <stop offset="0.2980392156862745" stop-color="#9f7b45"/>
      <stop offset="0.49411764705882355" stop-color="#420e0b"/>
      <stop offset="0.7254901960784313" stop-color="#250804"/>
      <stop offset="1.0" stop-color="#624724"/>
    </radialGradient>
    <radialGradient cx="0" cy="0" gradientTransform="matrix(0.0171, 0.0, 0.0, 0.0038, 0.0, -28.0)" gradientUnits="userSpaceOnUse" id="gradient16" r="819.2" spreadMethod="pad">
      <stop offset="0.16470588235294117" stop-color="#ffffff"/>
      <stop offset="0.2196078431372549" stop-color="#d7bd68"/>
      <stop offset="0.3254901960784314" stop-color="#9f7b45"/>
      <stop offset="0.5725490196078431" stop-color="#420e0b"/>
      <stop offset="0.7333333333333333" stop-color="#250804"/>
      <stop offset="0.8549019607843137" stop-color="#611111"/>
    </radialGradient>
    <linearGradient gradientTransform="matrix(0.0122, 0.0, 0.0, 0.0018, 0.0, -31.5)" gradientUnits="userSpaceOnUse" id="gradient17" spreadMethod="pad" x1="-819.2" x2="819.2">
      <stop offset="0.2823529411764706" stop-color="#420e0b"/>
      <stop offset="0.7372549019607844" stop-color="#420e0b"/>
    </linearGradient>
    <linearGradient gradientTransform="matrix(0.011, 0.0, 0.0, 0.0018, 0.0, -31.5)" gradientUnits="userSpaceOnUse" id="gradient18" spreadMethod="pad" x1="-819.2" x2="819.2">
      <stop offset="0.0" stop-color="#a21e1e"/>
      <stop offset="0.1843137254901961" stop-color="#290707"/>
      <stop offset="0.4235294117647059" stop-color="#9c6f1b"/>
      <stop offset="0.4549019607843137" stop-color="#ffffff"/>
      <stop offset="0.5568627450980392" stop-color="#ffffff"/>
      <stop offset="0.5882352941176471" stop-color="#9c6f1b"/>
      <stop offset="0.8235294117647058" stop-color="#290707"/>
      <stop offset="1.0" stop-color="#a21e1e"/>
    </linearGradient>
    <linearGradient gradientTransform="matrix(0.0085, 0.0, 0.0, 0.0018, 0.0, -34.5)" gradientUnits="userSpaceOnUse" id="gradient19" spreadMethod="pad" x1="-819.2" x2="819.2">
      <stop offset="0.0" stop-color="#c4723a"/>
      <stop offset="0.058823529411764705" stop-color="#420e0b"/>
      <stop offset="0.2823529411764706" stop-color="#420e0b"/>
      <stop offset="0.403921568627451" stop-color="#420e0b"/>
      <stop offset="0.4196078431372549" stop-color="#ffffff"/>
      <stop offset="0.5843137254901961" stop-color="#ffffff"/>
      <stop offset="0.6078431372549019" stop-color="#420e0b"/>
      <stop offset="0.7372549019607844" stop-color="#420e0b"/>
      <stop offset="0.9372549019607843" stop-color="#420e0b"/>
      <stop offset="1.0" stop-color="#c4723a"/>
    </linearGradient>
    <linearGradient gradientTransform="matrix(0.0068, 0.0, 0.0, 0.0012, 0.0, -34.0)" gradientUnits="userSpaceOnUse" id="gradient20" spreadMethod="pad" x1="-819.2" x2="819.2">
      <stop offset="0.0" stop-color="#a21e1e"/>
      <stop offset="0.1843137254901961" stop-color="#290707"/>
      <stop offset="0.4235294117647059" stop-color="#9c6f1b"/>
      <stop offset="0.4470588235294118" stop-color="#ffffff"/>
      <stop offset="0.5607843137254902" stop-color="#ffffff"/>
      <stop offset="0.5882352941176471" stop-color="#9c6f1b"/>
      <stop offset="0.8235294117647058" stop-color="#290707"/>
      <stop offset="1.0" stop-color="#a21e1e"/>
    </linearGradient>
    <radialGradient cx="0" cy="0" gradientTransform="matrix(0.0171, 0.0, 0.0, 0.0129, 0.0, -36.0)" gradientUnits="userSpaceOnUse" id="gradient21" r="819.2" spreadMethod="pad">
      <stop offset="0.0" stop-color="#ffffff"/>
      <stop offset="0.6039215686274509" stop-color="#ffffff" stop-opacity="0.0"/>
      <stop offset="1.0" stop-color="#f1ede2" stop-opacity="0.3137255"/>
    </radialGradient>
    <linearGradient gradientTransform="matrix(0.0, -0.0079, 0.0055, 0.0, 0.0, -9.5)" gradientUnits="userSpaceOnUse" id="gradient22" spreadMethod="pad" x1="-819.2" x2="819.2">
      <stop offset="0.01568627450980392" stop-color="#ffffff" stop-opacity="0.62352943"/>
      <stop offset="0.8588235294117647" stop-color="#92775f" stop-opacity="0.5019608"/>
    </linearGradient>
    <linearGradient gradientTransform="matrix(0.0, -0.0361, 0.0366, 0.0, 0.0, 23.0)" gradientUnits="userSpaceOnUse" id="gradient23" spreadMethod="pad" x1="-819.2" x2="819.2">
      <stop offset="0.0" stop-color="#ffffff" stop-opacity="0.6431373"/>
      <stop offset="0.4549019607843137" stop-color="#919191" stop-opacity="0.0"/>
    </linearGradient>
    <linearGradient gradientTransform="matrix(0.0, 0.0392, -0.0385, 0.0, -20.3, 21.5)" gradientUnits="userSpaceOnUse" id="gradient24" spreadMethod="pad" x1="-819.2" x2="819.2">
      <stop offset="0.4745098039215686" stop-color="#404040" stop-opacity="0.4509804"/>
      <stop offset="0.984313725490196" stop-color="#c6c6c6" stop-opacity="0.3529412"/>
    </linearGradient>
    <linearGradient gradientTransform="matrix(0.0062, -0.039, 0.0379, 0.006, 20.3, 21.5)" gradientUnits="userSpaceOnUse" id="gradient25" spreadMethod="pad" x1="-819.2" x2="819.2">
      <stop offset="0.0" stop-color="#ffffff" stop-opacity="0.44313726"/>
      <stop offset="0.4470588235294118" stop-color="#ffffff" stop-opacity="0.2509804"/>
      <stop offset="1.0" stop-color="#ffffff"/>
    </linearGradient>
    <linearGradient gradientTransform="matrix(0.0078, 0.0093, -0.0093, 0.0078, 0.0, 8.0)" gradientUnits="userSpaceOnUse" id="gradient26" spreadMethod="pad" x1="-819.2" x2="819.2">
      <stop offset="0.0" stop-color="#322e23"/>
      <stop offset="0.34901960784313724" stop-color="#b3984d"/>
      <stop offset="0.6039215686274509" stop-color="#ffffff"/>
      <stop offset="0.7254901960784313" stop-color="#f6f2e4"/>
      <stop offset="0.8470588235294118" stop-color="#c6a955"/>
      <stop offset="1.0" stop-color="#736422"/>
    </linearGradient>
    <linearGradient gradientTransform="matrix(0.0, 0.0108, -0.0108, 0.0, 0.0, 8.0)" gradientUnits="userSpaceOnUse" id="gradient27" spreadMethod="pad" x1="-819.2" x2="819.2">
      <stop offset="0.0" stop-color="#211e16"/>
      <stop offset="0.3568627450980392" stop-color="#867239"/>
      <stop offset="0.8509803921568627" stop-color="#e8e0c1"/>
    </linearGradient>
    <linearGradient gradientTransform="matrix(-1.0E-4, 0.0125, -0.0061, 0.0, -0.15, 8.4)" gradientUnits="userSpaceOnUse" id="gradient28" spreadMethod="pad" x1="-819.2" x2="819.2">
      <stop offset="0.0" stop-color="#1e1a13"/>
      <stop offset="0.5647058823529412" stop-color="#65572d"/>
      <stop offset="1.0" stop-color="#d9ca9d"/>
    </linearGradient>
  </defs>
</svg>
