<?xml version="1.0" encoding="UTF-8" standalone="no"?>
<svg xmlns:xlink="http://www.w3.org/1999/xlink" height="96.95px" width="96.65px" xmlns="http://www.w3.org/2000/svg">
  <g transform="matrix(1.0, 0.0, 0.0, 1.0, 48.4, 66.0)">
    <path d="M45.9 -32.0 Q47.25 -27.55 47.75 -22.75 M38.85 -45.85 Q42.15 -41.4 44.3 -36.45 M13.55 28.7 Q8.5 30.1 3.05 30.45 M38.2 11.7 L33.95 16.45 Q28.8 21.6 22.95 24.85 M-34.4 -50.95 L-33.95 -51.45 Q-30.55 -54.85 -26.8 -57.4 M-42.8 -39.5 Q-41.2 -42.65 -39.0 -45.55 M-20.8 25.95 Q-27.9 22.5 -33.95 16.45 L-39.0 10.6 M-43.0 4.15 Q-47.35 -4.4 -47.9 -14.45 M-16.0 -62.9 Q-8.55 -65.5 0.0 -65.5" fill="none" stroke="#0d51ce" stroke-linecap="round" stroke-linejoin="round" stroke-opacity="0.3019608" stroke-width="1.0"/>
  </g>
</svg>
