<?xml version="1.0" encoding="UTF-8" standalone="no"?>
<svg xmlns:xlink="http://www.w3.org/1999/xlink" height="111.85px" width="119.1px" xmlns="http://www.w3.org/2000/svg">
  <g transform="matrix(1.0, 0.0, 0.0, 1.0, 59.55, 55.9)">
    <path d="M10.8 -54.85 L59.1 12.35 59.55 13.5 59.55 13.55 59.35 14.8 58.05 17.85 57.5 18.7 57.45 18.7 56.6 19.2 56.65 19.2 53.85 20.2 52.35 23.85 53.75 25.6 Q54.5 26.0 54.8 26.85 55.1 27.7 54.8 28.55 L54.85 28.35 54.8 28.65 54.75 28.7 54.7 28.9 54.6 29.05 53.6 31.7 53.05 32.6 53.0 32.6 52.1 33.15 -11.15 55.8 -12.8 55.85 -12.85 55.8 Q-13.65 55.5 -14.1 54.75 L-58.8 -19.05 -59.15 -19.8 -59.15 -19.85 Q-59.9 -23.4 -59.15 -28.65 L-59.15 -28.7 Q-58.25 -34.8 -55.65 -37.65 L-55.6 -37.7 Q-55.15 -38.25 -54.4 -38.45 L8.1 -55.8 9.6 -55.75 10.8 -54.85" fill="#000000" fill-rule="evenodd" stroke="none"/>
    <path d="M52.4 27.9 L-12.75 52.15 Q-38.05 8.75 -1.7 -39.25 L52.4 27.9" fill="#690135" fill-rule="evenodd" stroke="none"/>
    <path d="M-51.95 -23.0 L-51.15 -28.2 7.95 -44.35 52.55 16.85 48.15 27.35 -10.25 48.0 -51.95 -23.0" fill="#cccccc" fill-rule="evenodd" stroke="none"/>
    <path d="M57.05 13.8 L55.75 16.85 -6.7 39.45 Q-7.75 40.3 -8.6 44.45 -9.3 47.65 -9.4 50.0 L52.45 27.7 51.25 30.8 -12.0 53.45 Q-12.5 49.8 -11.3 44.1 -10.6 40.9 -9.75 39.0 L-9.05 37.7 57.05 13.8" fill="#400020" fill-rule="evenodd" stroke="none"/>
    <path d="M-53.75 -36.05 L8.75 -53.4 57.05 13.8 -9.05 37.7 -53.75 -36.05" fill="#700138" fill-rule="evenodd" stroke="none"/>
    <path d="M-12.0 53.45 L-56.7 -20.35 Q-57.35 -23.55 -56.7 -28.35 -55.9 -33.55 -53.75 -36.05 L-9.05 37.7 -9.75 39.0 Q-10.6 40.9 -11.3 44.1 -12.5 49.8 -12.0 53.45" fill="url(#gradient0)" fill-rule="evenodd" stroke="none"/>
    <path d="M-46.75 -37.95 L8.75 -53.4 57.05 13.8 -2.05 35.2 -46.75 -37.95" fill="url(#gradient1)" fill-rule="evenodd" stroke="none"/>
    <path d="M-2.05 35.2 L-9.05 37.7 -53.75 -36.05 -46.75 -37.95 -2.05 35.2" fill="url(#gradient2)" fill-rule="evenodd" stroke="none"/>
    <path d="M11.35 -49.8 Q11.9 -49.0 11.7 -48.95 L-43.2 -32.85 -43.95 -33.7 Q-44.5 -34.55 -44.3 -34.6 L10.65 -50.55 11.35 -49.8 M18.35 -17.95 L5.05 -26.4 -9.75 -21.85 -9.95 -8.8 3.5 0.25 18.65 -4.7 18.35 -17.95 32.0 -9.0 18.65 -4.7 18.9 10.6 3.5 0.25 -10.3 4.8 -9.95 -8.8 -23.25 -17.8 -9.75 -21.85 -9.45 -35.85 5.05 -26.4 18.2 -30.5 18.35 -17.95 M53.45 9.15 L-5.2 29.45 -5.9 28.65 Q-6.45 27.8 -6.25 27.7 L52.3 7.5 53.05 8.25 Q53.65 9.1 53.45 9.15" fill="#ccccff" fill-rule="evenodd" stroke="none"/>
  </g>
  <defs>
    <linearGradient gradientTransform="matrix(0.0136, -0.0257, 0.0482, 0.0255, -33.1, 8.65)" gradientUnits="userSpaceOnUse" id="gradient0" spreadMethod="pad" x1="-819.2" x2="819.2">
      <stop offset="0.0" stop-color="#54012b"/>
      <stop offset="1.0" stop-color="#99024e"/>
    </linearGradient>
    <linearGradient gradientTransform="matrix(-0.0467, -0.0495, 0.0393, -0.037, 5.4, -8.65)" gradientUnits="userSpaceOnUse" id="gradient1" spreadMethod="pad" x1="-819.2" x2="819.2">
      <stop offset="0.0" stop-color="#aa3150"/>
      <stop offset="1.0" stop-color="#eb5495"/>
    </linearGradient>
    <linearGradient gradientTransform="matrix(0.0316, 0.0, 0.0, 0.0462, -27.9, -0.15)" gradientUnits="userSpaceOnUse" id="gradient2" spreadMethod="pad" x1="-819.2" x2="819.2">
      <stop offset="0.0" stop-color="#bc0360"/>
      <stop offset="1.0" stop-color="#700138"/>
    </linearGradient>
  </defs>
</svg>
