<?xml version="1.0" encoding="UTF-8" standalone="no"?>
<svg xmlns:xlink="http://www.w3.org/1999/xlink" height="54.1px" width="48.8px" xmlns="http://www.w3.org/2000/svg">
  <g transform="matrix(1.0, 0.0, 0.0, 1.0, 22.7, 50.2)">
    <path d="M-10.7 -7.75 Q-11.35 -8.25 -12.0 -8.9 -13.0 -10.45 -12.3 -12.6 L-8.7 -11.8 -9.0 -10.1 Q-9.2 -8.15 -8.5 -6.8 -9.5 -6.85 -10.7 -7.75 M17.1 -10.5 L16.95 -10.05 Q16.05 -9.9 13.9 -8.95 L11.75 -7.9 Q12.15 -9.1 11.95 -11.05 L11.35 -14.1 Q12.7 -12.7 17.0 -10.65 L17.1 -10.5 M20.75 -42.55 Q23.9 -40.5 25.25 -36.7 27.0 -31.85 25.1 -23.3 23.05 -14.2 18.75 -11.35 L19.25 -13.8 Q19.25 -19.15 14.1 -19.4 12.2 -19.5 10.55 -18.8 L10.0 -18.5 Q8.95 -20.35 6.35 -21.55 3.95 -22.65 1.2 -22.8 -1.15 -19.9 0.0 -16.6 1.05 -13.55 4.05 -12.55 3.8 -10.8 5.15 -8.6 6.55 -6.4 8.5 -5.5 8.45 -1.2 6.05 1.4 3.7 3.9 0.1 3.9 -3.7 3.9 -6.0 0.9 -8.25 -2.05 -7.8 -6.1 -7.4 -5.8 -6.8 -5.8 -4.25 -5.8 -3.15 -9.8 -3.15 -12.75 -4.55 -13.4 -4.6 -16.4 -5.0 -17.3 -5.8 -19.05 -8.4 -18.9 -11.05 -18.75 -12.3 -17.15 -13.55 -15.55 -12.75 -13.45 -18.1 -17.05 -21.05 -23.35 -24.15 -29.85 -21.35 -32.7 -22.55 -39.35 -17.3 -43.85 -13.3 -47.25 -8.7 -47.75 L-4.85 -47.55 -4.75 -47.45 Q-0.5 -51.05 7.05 -49.9 14.9 -48.7 16.8 -44.3 L20.75 -42.55" fill="url(#gradient0)" fill-rule="evenodd" stroke="none"/>
  </g>
  <defs>
    <radialGradient cx="0" cy="0" gradientTransform="matrix(0.0453, 0.0, 0.0, 0.0744, -0.15, 0.25)" gradientUnits="userSpaceOnUse" id="gradient0" r="819.2" spreadMethod="pad">
      <stop offset="0.043137254901960784" stop-color="#fffdf7"/>
      <stop offset="0.17254901960784313" stop-color="#fff177"/>
      <stop offset="0.44313725490196076" stop-color="#fbd526"/>
      <stop offset="0.5254901960784314" stop-color="#fbd226"/>
      <stop offset="0.7803921568627451" stop-color="#fa9a1b"/>
      <stop offset="1.0" stop-color="#cd1d1d"/>
    </radialGradient>
  </defs>
</svg>
