<?xml version="1.0" encoding="UTF-8" standalone="no"?>
<svg xmlns:xlink="http://www.w3.org/1999/xlink" height="60.2px" width="61.7px" xmlns="http://www.w3.org/2000/svg">
  <g transform="matrix(1.0, 0.0, 0.0, 1.0, 28.5, 58.25)">
    <path d="M6.8 -52.5 Q6.85 -53.3 4.85 -54.65 2.3 -56.35 -1.0 -56.1 -4.6 -55.6 -6.0 -53.35 -6.9 -52.0 -6.9 -50.2 L-7.1 -50.25 -12.25 -50.05 Q-19.75 -48.25 -19.75 -41.1 L-19.75 -41.05 -21.45 -41.15 Q-26.05 -40.85 -26.05 -36.15 L-25.7 -34.2 -25.1 -33.0 -25.1 -32.7 Q-26.95 -33.2 -27.9 -35.8 -28.4 -37.15 -28.5 -38.5 -28.5 -42.2 -25.7 -46.3 -23.15 -49.95 -19.5 -52.4 -15.85 -54.85 -13.3 -54.5 -12.35 -54.4 -11.7 -53.85 L-8.85 -55.85 Q-6.0 -57.35 -1.5 -57.9 4.05 -58.6 9.1 -57.8 14.45 -56.9 15.8 -54.85 18.35 -54.6 19.85 -52.1 20.95 -50.2 20.9 -48.6 19.4 -49.6 17.6 -50.2 14.15 -51.3 12.05 -49.55 10.5 -51.9 6.8 -52.5 M33.2 -38.35 Q33.25 -35.75 32.3 -32.3 31.4 -29.15 30.75 -28.85 31.4 -33.85 31.0 -36.3 30.45 -39.65 28.05 -40.3 28.35 -42.6 27.25 -44.55 26.0 -46.7 23.45 -47.5 L24.7 -48.0 Q26.5 -48.55 28.0 -48.0 31.35 -46.8 32.55 -43.25 33.1 -41.5 33.2 -38.35 M-8.15 -47.05 Q-10.25 -42.9 -10.1 -40.3 -11.25 -40.95 -12.6 -41.0 L-15.9 -40.7 Q-13.65 -42.95 -13.75 -46.35 L-10.7 -46.15 -8.15 -47.05" fill="url(#gradient0)" fill-rule="evenodd" stroke="none"/>
    <path d="M5.1 -36.05 L5.25 -35.2 5.4 -34.55 4.85 -34.45 2.05 -33.55 1.85 -34.3 1.8 -35.4 2.0 -37.15 3.05 -36.7 5.1 -36.05 M-11.85 -25.6 Q-11.95 -26.55 -12.3 -27.3 -10.85 -26.75 -7.95 -26.75 L-8.0 -25.75 Q-8.05 -24.6 -7.65 -24.0 L-10.3 -24.45 -11.95 -24.1 -12.0 -24.1 Q-11.7 -24.5 -11.85 -25.6" fill="#fca249" fill-rule="evenodd" stroke="none"/>
    <path d="M0.1 -2.55 Q2.15 -1.75 3.65 -2.05 2.9 -0.55 4.15 0.8 3.4 1.7 1.7 1.9 0.05 2.05 -0.4 1.35 -1.75 1.2 -2.6 0.25 -3.3 -0.65 -3.35 -1.75 -1.65 -1.75 0.1 -2.55 M2.35 -6.65 L1.65 -8.4 -0.3 -10.15 -0.1 -11.0 2.0 -10.45 Q1.85 -8.95 2.7 -7.6 3.05 -7.05 4.5 -6.6 L5.9 -6.3 5.8 -5.3 5.4 -4.95 4.45 -4.2 3.7 -5.65 Q3.0 -6.65 2.35 -6.65" fill="#fde98e" fill-rule="evenodd" stroke="none"/>
  </g>
  <defs>
    <radialGradient cx="0" cy="0" gradientTransform="matrix(0.0453, 0.0, 0.0, 0.0744, -0.15, 0.25)" gradientUnits="userSpaceOnUse" id="gradient0" r="819.2" spreadMethod="pad">
      <stop offset="0.043137254901960784" stop-color="#fffdf7"/>
      <stop offset="0.17254901960784313" stop-color="#fff177"/>
      <stop offset="0.44313725490196076" stop-color="#fbd526"/>
      <stop offset="0.5254901960784314" stop-color="#fbd226"/>
      <stop offset="0.7803921568627451" stop-color="#fa9a1b"/>
      <stop offset="1.0" stop-color="#cd1d1d"/>
    </radialGradient>
  </defs>
</svg>
