<?xml version="1.0" encoding="UTF-8" standalone="no"?>
<svg xmlns:xlink="http://www.w3.org/1999/xlink" height="54.0px" width="361.0px" xmlns="http://www.w3.org/2000/svg">
  <g transform="matrix(1.0, 0.0, 0.0, 1.0, 2.0, 3.0)">
    <path d="M355.0 34.0 L355.0 2.0 Q355.0 1.0 354.0 1.0 L3.0 1.0 Q2.0 1.0 2.0 2.0 L2.0 34.0 Q2.0 35.0 3.0 35.0 L354.0 35.0 Q355.0 35.0 355.0 34.0 M1.0 -3.0 L356.0 -3.0 Q359.0 -3.0 359.0 0.0 L359.0 36.0 Q359.0 39.0 356.0 39.0 L50.0 39.0 50.0 48.0 Q50.0 51.0 47.0 51.0 L1.0 51.0 Q-2.0 51.0 -2.0 48.0 L-2.0 0.0 Q-2.0 -3.0 1.0 -3.0" fill="#000000" fill-rule="evenodd" stroke="none"/>
    <path d="M356.0 -2.0 Q358.0 -2.0 358.0 0.0 L358.0 10.0 358.0 15.5 358.0 27.5 358.0 29.0 358.0 36.0 Q358.0 38.0 356.0 38.0 L49.0 38.0 49.0 48.0 Q49.0 50.0 47.0 50.0 L1.0 50.0 Q-1.0 50.0 -1.0 48.0 L-1.0 29.0 -1.0 27.5 -1.0 15.5 -1.0 10.0 -1.0 0.0 Q-1.0 -2.0 1.0 -2.0 L356.0 -2.0 M356.0 2.0 Q356.0 0.0 354.0 0.0 L3.0 0.0 Q1.0 0.0 1.0 2.0 L1.0 10.0 1.0 15.5 1.0 27.5 1.0 29.0 1.0 34.0 Q1.0 36.0 3.0 36.0 L354.0 36.0 Q356.0 36.0 356.0 34.0 L356.0 29.0 356.0 27.5 356.0 15.5 356.0 10.0 356.0 2.0" fill="#00ff00" fill-rule="evenodd" stroke="none"/>
  </g>
</svg>
