<?xml version="1.0" encoding="UTF-8" standalone="no"?>
<svg xmlns:xlink="http://www.w3.org/1999/xlink" height="74.5px" width="52.0px" xmlns="http://www.w3.org/2000/svg">
  <g transform="matrix(1.0, 0.0, 0.0, 1.0, 26.0, 37.5)">
    <path d="M14.5 -2.5 L14.5 -13.0 14.5 -2.5 M4.5 -6.5 L4.5 -15.0 4.5 -6.5 M24.5 -6.5 L24.5 15.5 Q24.15 22.95 20.5 28.5 L20.5 35.5 -10.5 35.5 -10.5 28.5 Q-14.4 25.3 -18.5 20.4 -24.05 13.85 -24.5 10.0 L-24.5 -8.0 Q-24.4 -9.6 -23.8 -10.3 -23.1 -11.0 -21.5 -11.0 -19.7 -11.0 -17.85 -9.45 -16.25 -8.05 -15.55 -6.3 L-15.5 -32.0 Q-15.3 -36.0 -10.5 -36.0 -5.6 -36.0 -5.5 -32.0 L-5.55 -16.25 Q-5.35 -17.0 -3.65 -17.55 L-0.5 -18.0 Q3.7 -17.85 4.5 -15.0 5.7 -16.15 9.5 -16.0 13.5 -15.85 14.5 -13.0 18.7 -13.75 21.45 -12.2 24.5 -10.5 24.5 -6.5 M-15.5 9.0 L-15.55 -6.3 -15.5 9.0 M-5.5 -7.0 L-5.55 -16.25 -5.5 -7.0 M-10.5 28.5 L20.5 28.5 -10.5 28.5" fill="#ffffff" fill-rule="evenodd" stroke="none"/>
    <path d="M4.5 -15.0 L4.5 -6.5 M14.5 -13.0 L14.5 -2.5 M24.5 -6.5 L24.5 15.5 Q24.15 22.95 20.5 28.5 L20.5 35.5 -10.5 35.5 -10.5 28.5 Q-14.4 25.3 -18.5 20.4 -24.05 13.85 -24.5 10.0 L-24.5 -8.0 Q-24.4 -9.6 -23.8 -10.3 -23.1 -11.0 -21.5 -11.0 -19.7 -11.0 -17.85 -9.45 -16.25 -8.05 -15.55 -6.3 L-15.5 -32.0 Q-15.3 -36.0 -10.5 -36.0 -5.6 -36.0 -5.5 -32.0 L-5.55 -16.25 Q-5.35 -17.0 -3.65 -17.55 L-0.5 -18.0 Q3.7 -17.85 4.5 -15.0 5.7 -16.15 9.5 -16.0 13.5 -15.85 14.5 -13.0 18.7 -13.75 21.45 -12.2 24.5 -10.5 24.5 -6.5 M-5.55 -16.25 L-5.5 -7.0 M-15.55 -6.3 L-15.5 9.0" fill="none" stroke="#000000" stroke-linecap="round" stroke-linejoin="round" stroke-width="3.0"/>
    <path d="M20.5 28.5 L-10.5 28.5" fill="none" stroke="url(#gradient0)" stroke-linecap="round" stroke-linejoin="round" stroke-width="3.0"/>
  </g>
  <defs>
    <linearGradient gradientTransform="matrix(0.0195, 0.0, 0.0, 0.0458, 5.15, 1.1)" gradientUnits="userSpaceOnUse" id="gradient0" spreadMethod="pad" x1="-819.2" x2="819.2">
      <stop offset="0.0" stop-color="#000000"/>
      <stop offset="0.34509803921568627" stop-color="#919191"/>
      <stop offset="0.7098039215686275" stop-color="#919191"/>
      <stop offset="1.0" stop-color="#000000"/>
    </linearGradient>
  </defs>
</svg>
