<?xml version="1.0" encoding="UTF-8" standalone="no"?>
<svg xmlns:xlink="http://www.w3.org/1999/xlink" height="2977.55px" width="35.0px" xmlns="http://www.w3.org/2000/svg">
  <g transform="matrix(1.0, 0.0, 0.0, 1.0, 17.5, 1488.8)">
    <path d="M11.15 -1275.5 L11.3 -1267.05 Q16.0 -1048.45 16.0 -736.5 L16.0 735.25 16.0 736.7 Q16.0 1047.25 11.3 1267.0 L11.15 1275.45 9.45 1343.6 Q5.35 1487.25 0.0 1487.25 -5.35 1487.25 -9.45 1343.6 L-11.15 1275.45 -11.35 1267.0 Q-16.0 1047.25 -16.0 736.7 L-16.0 735.25 -16.0 -736.45 Q-16.0 -1047.3 -11.35 -1267.05 L-11.15 -1275.5 -9.45 -1343.65 Q-5.35 -1487.3 0.0 -1487.3 5.35 -1487.3 9.45 -1343.65 L11.15 -1275.5" fill="#ffffff" fill-rule="evenodd" stroke="none"/>
    <path d="M11.15 -1275.5 L9.45 -1343.65 Q5.35 -1487.3 0.0 -1487.3 -5.35 -1487.3 -9.45 -1343.65 L-11.15 -1275.5 -11.35 -1267.05 Q-16.0 -1047.3 -16.0 -736.45 L-16.0 735.25 -16.0 736.7 Q-16.0 1047.25 -11.35 1267.0 L-11.15 1275.45 -9.45 1343.6 Q-5.35 1487.25 0.0 1487.25 5.35 1487.25 9.45 1343.6 L11.15 1275.45 11.3 1267.0 Q16.0 1047.25 16.0 736.7 L16.0 735.25 16.0 -736.5 Q16.0 -1048.45 11.3 -1267.05 L11.15 -1275.5 Z" fill="none" stroke="#ffec40" stroke-linecap="round" stroke-linejoin="round" stroke-width="3.0"/>
  </g>
</svg>
