<?xml version="1.0" encoding="UTF-8" standalone="no"?>
<svg xmlns:xlink="http://www.w3.org/1999/xlink" height="131.0px" width="89.0px" xmlns="http://www.w3.org/2000/svg">
  <g transform="matrix(1.0, 0.0, 0.0, 1.0, 60.0, 59.0)">
    <path d="M6.15 -58.1 Q7.0 -57.25 7.0 -56.0 L7.0 -54.0 6.85 -53.0 9.4 -53.0 10.5 -54.65 11.6 -55.65 13.0 -56.0 26.0 -56.0 Q27.25 -56.0 28.15 -55.1 29.0 -54.25 29.0 -53.0 L29.0 -29.0 Q29.0 -19.2 24.05 -12.4 18.65 -4.9 11.0 -5.0 9.75 -5.0 8.9 -5.85 8.0 -6.75 8.0 -8.0 L8.0 -10.95 7.7 -9.65 6.7 -7.65 6.0 -6.75 6.0 38.75 6.15 38.9 Q7.0 39.75 7.0 41.0 7.0 42.2 6.15 43.15 L6.0 43.25 6.0 44.95 6.0 66.3 6.7 67.65 Q7.15 68.65 6.95 69.65 6.7 70.7 5.9 71.35 5.1 72.0 4.0 72.0 L-4.0 72.0 Q-5.05 72.0 -5.85 71.35 -6.65 70.7 -6.9 69.65 -7.15 68.55 -6.65 67.65 L-6.0 66.3 -6.0 44.95 -6.0 43.25 -6.1 43.15 Q-7.0 42.25 -7.0 41.0 -7.0 39.75 -6.1 38.9 L-6.0 38.75 -6.0 -6.75 -6.65 -7.65 -7.65 -9.65 Q-8.0 -10.3 -8.0 -11.0 L-8.0 -12.0 Q-8.0 -13.25 -7.1 -14.1 L-7.0 -14.25 -7.0 -26.65 -7.75 -26.15 -8.05 -25.9 -8.0 -25.95 Q-9.7 -24.6 -11.0 -22.85 L-11.0 13.0 Q-11.0 13.85 -11.4 14.55 -11.85 15.25 -12.6 15.65 L-14.15 16.0 Q-21.3 15.65 -34.25 8.75 -49.85 0.5 -53.75 -8.8 -56.55 -15.1 -58.55 -34.65 -59.55 -44.2 -60.0 -52.85 L-59.65 -54.4 -58.5 -55.55 -57.0 -56.0 -28.0 -56.0 -26.6 -55.65 -25.5 -54.65 -24.35 -53.0 -6.85 -53.0 -7.0 -54.0 -7.0 -56.0 Q-7.0 -57.25 -6.1 -58.1 -5.25 -59.0 -4.0 -59.0 L4.0 -59.0 Q5.25 -59.0 6.15 -58.1 M7.0 -28.0 L7.0 -14.25 7.15 -14.1 Q7.95 -13.25 8.0 -12.05 L8.0 -28.0 7.0 -28.0" fill="#000000" fill-rule="evenodd" stroke="none"/>
    <path d="M-3.0 38.3 L-3.0 -53.0 3.0 -53.0 3.0 38.3 3.0 42.0 -3.0 42.0 -3.0 38.3" fill="url(#gradient0)" fill-rule="evenodd" stroke="none"/>
    <path d="M-3.0 67.0 L-3.0 48.3 -3.0 38.0 3.0 38.0 3.0 48.3 3.0 67.0 -3.0 67.0" fill="url(#gradient1)" fill-rule="evenodd" stroke="none"/>
    <path d="M3.0 67.0 L4.0 69.0 -4.0 69.0 -3.0 67.0 3.0 67.0" fill="url(#gradient2)" fill-rule="evenodd" stroke="none"/>
    <path d="M-4.0 41.0 L-3.0 40.0 3.0 40.0 4.0 41.0 -4.0 41.0" fill="url(#gradient3)" fill-rule="evenodd" stroke="none"/>
    <path d="M4.0 41.0 L3.0 42.0 -3.0 42.0 -4.0 41.0 4.0 41.0" fill="url(#gradient4)" fill-rule="evenodd" stroke="none"/>
    <path d="M5.0 -11.0 L4.0 -9.0 -4.0 -9.0 -5.0 -11.0 5.0 -11.0" fill="url(#gradient5)" fill-rule="evenodd" stroke="none"/>
    <path d="M-4.0 -12.0 L-4.0 -52.0 4.0 -52.0 4.0 -12.0 -4.0 -12.0" fill="url(#gradient6)" fill-rule="evenodd" stroke="none"/>
    <path d="M-5.0 -11.0 L-5.0 -12.0 -4.0 -12.0 4.0 -12.0 5.0 -12.0 5.0 -11.0 -5.0 -11.0" fill="url(#gradient7)" fill-rule="evenodd" stroke="none"/>
    <path d="M-28.0 -53.0 L-26.0 -50.0 -14.0 -50.0 -3.0 -50.0 -3.0 -31.0 Q-6.45 -31.0 -9.9 -28.3 -12.3 -26.35 -14.0 -23.8 L-14.0 13.0 Q-20.65 12.6 -32.85 6.1 -47.3 -1.55 -51.0 -10.0 -53.65 -16.1 -55.6 -34.95 -56.55 -44.4 -57.0 -53.0 L-28.0 -53.0" fill="url(#gradient8)" fill-rule="evenodd" stroke="none"/>
    <path d="M11.0 -50.0 L13.0 -53.0 26.0 -53.0 26.0 -29.0 Q26.0 -20.25 21.6 -14.15 17.2 -8.0 11.0 -8.0 L11.0 -29.0 11.0 -31.0 3.0 -31.0 3.0 -50.0 11.0 -50.0" fill="url(#gradient9)" fill-rule="evenodd" stroke="none"/>
    <path d="M-14.0 -50.0 L-3.0 -50.0 -3.0 -31.0 Q-6.45 -31.0 -9.9 -28.3 -12.3 -26.35 -14.0 -23.8 L-14.0 -12.0 Q-18.6 -13.3 -22.2 -18.85 -25.9 -24.55 -26.0 -31.0 L-26.05 -31.0 -26.0 -50.0 -14.0 -50.0" fill="url(#gradient10)" fill-rule="evenodd" stroke="none"/>
    <path d="M20.0 -53.0 L20.05 -30.0 20.0 -30.0 Q19.9 -23.8 16.2 -19.35 13.95 -16.7 11.0 -15.15 L11.0 -29.0 11.0 -31.0 3.0 -31.0 3.0 -50.0 11.0 -50.0 13.0 -53.0 20.0 -53.0" fill="url(#gradient11)" fill-rule="evenodd" stroke="none"/>
    <path d="M4.0 -54.0 L3.0 -53.0 -3.0 -53.0 -4.0 -54.0 4.0 -54.0" fill="url(#gradient12)" fill-rule="evenodd" stroke="none"/>
    <path d="M-4.0 -54.0 L-4.0 -56.0 4.0 -56.0 4.0 -54.0 -4.0 -54.0" fill="url(#gradient13)" fill-rule="evenodd" stroke="none"/>
    <path d="M18.0 -50.0 L18.0 -49.0 15.0 -49.0 15.0 -50.0 18.0 -50.0 M18.0 -31.0 L15.0 -31.0 15.0 -32.0 18.0 -32.0 18.0 -31.0 M-20.6 -27.0 L-20.1 -26.1 -22.7 -24.6 -23.2 -25.5 -20.6 -27.0 M-24.0 -47.5 L-21.0 -47.5 -21.0 -46.5 -24.0 -46.5 -24.0 -47.5" fill="#383838" fill-rule="evenodd" stroke="none"/>
    <path d="M3.0 -51.0 L4.0 -51.0 4.0 -50.0 3.0 -50.0 3.0 -31.0 4.0 -31.0 4.0 -30.0 2.0 -30.0 2.0 -51.0 3.0 -51.0 M3.0 -8.0 L-3.0 -8.0 -3.0 -9.0 3.0 -9.0 3.0 -8.0 M4.0 -12.0 L-4.0 -12.0 -4.0 -13.0 4.0 -13.0 4.0 -12.0 M4.0 -16.0 L-4.0 -16.0 -4.0 -17.0 4.0 -17.0 4.0 -16.0 M3.0 40.0 L-3.0 40.0 -3.0 39.0 3.0 39.0 3.0 40.0 M3.0 43.0 L-3.0 43.0 -3.0 42.0 3.0 42.0 3.0 43.0 M3.0 38.0 L-3.0 38.0 -3.0 37.0 3.0 37.0 3.0 38.0 M3.0 67.0 L-3.0 67.0 -3.0 66.0 3.0 66.0 3.0 67.0 M-4.0 -50.0 L-4.0 -51.0 -3.0 -51.0 -2.0 -51.0 -2.0 -30.0 -4.0 -30.0 -4.0 -31.0 -3.0 -31.0 -3.0 -34.0 -6.0 -34.0 -6.0 -47.0 -5.0 -47.0 -3.0 -47.0 -3.0 -50.0 -4.0 -50.0 M-3.0 -46.0 L-5.0 -46.0 -5.0 -35.0 -3.0 -35.0 -3.0 -46.0 M-7.0 -47.0 L-7.0 -46.0 -9.0 -46.0 -9.0 -47.0 -7.0 -47.0 M-9.0 -34.0 L-9.0 -35.0 -7.0 -35.0 -7.0 -34.0 -9.0 -34.0" fill="#000000" fill-opacity="0.15294118" fill-rule="evenodd" stroke="none"/>
  </g>
  <defs>
    <linearGradient gradientTransform="matrix(0.0037, 0.0, 0.0, 0.058, 0.0, -5.5)" gradientUnits="userSpaceOnUse" id="gradient0" spreadMethod="pad" x1="-819.2" x2="819.2">
      <stop offset="0.0" stop-color="#5b2424"/>
      <stop offset="0.39215686274509803" stop-color="#9b4040"/>
      <stop offset="0.6274509803921569" stop-color="#9b4040"/>
      <stop offset="1.0" stop-color="#5b2424"/>
    </linearGradient>
    <linearGradient gradientTransform="matrix(0.0037, 0.0, 0.0, 0.025, 0.0, 62.5)" gradientUnits="userSpaceOnUse" id="gradient1" spreadMethod="pad" x1="-819.2" x2="819.2">
      <stop offset="0.0" stop-color="#6d6d6d"/>
      <stop offset="0.39215686274509803" stop-color="#a3a3a3"/>
      <stop offset="0.6078431372549019" stop-color="#a3a3a3"/>
      <stop offset="1.0" stop-color="#6d6d6d"/>
    </linearGradient>
    <linearGradient gradientTransform="matrix(0.0037, 0.0, 0.0, 0.025, 0.0, 61.5)" gradientUnits="userSpaceOnUse" id="gradient2" spreadMethod="pad" x1="-819.2" x2="819.2">
      <stop offset="0.0" stop-color="#7b7b7b"/>
      <stop offset="0.39215686274509803" stop-color="#a3a3a3"/>
      <stop offset="0.6078431372549019" stop-color="#a3a3a3"/>
      <stop offset="1.0" stop-color="#808080"/>
    </linearGradient>
    <linearGradient gradientTransform="matrix(0.0049, 0.0, 0.0, 0.025, 0.0, 69.15)" gradientUnits="userSpaceOnUse" id="gradient3" spreadMethod="pad" x1="-819.2" x2="819.2">
      <stop offset="0.0" stop-color="#6a6a6a"/>
      <stop offset="0.37254901960784315" stop-color="#b0b0b0"/>
      <stop offset="0.6274509803921569" stop-color="#b0b0b0"/>
      <stop offset="1.0" stop-color="#757575"/>
    </linearGradient>
    <linearGradient gradientTransform="matrix(0.0049, 0.0, 0.0, 0.025, 0.0, 68.15)" gradientUnits="userSpaceOnUse" id="gradient4" spreadMethod="pad" x1="-819.2" x2="819.2">
      <stop offset="0.0" stop-color="#585858"/>
      <stop offset="0.39215686274509803" stop-color="#8d8d8d"/>
      <stop offset="0.6078431372549019" stop-color="#8d8d8d"/>
      <stop offset="1.0" stop-color="#585858"/>
    </linearGradient>
    <linearGradient gradientTransform="matrix(0.0061, 0.0, 0.0, 0.0012, 0.0, -10.0)" gradientUnits="userSpaceOnUse" id="gradient5" spreadMethod="pad" x1="-819.2" x2="819.2">
      <stop offset="0.0" stop-color="#434343"/>
      <stop offset="0.39215686274509803" stop-color="#5b5b5b"/>
      <stop offset="0.6274509803921569" stop-color="#5b5b5b"/>
      <stop offset="1.0" stop-color="#434343"/>
    </linearGradient>
    <linearGradient gradientTransform="matrix(0.0049, 0.0, 0.0, 0.0244, 0.0, -32.0)" gradientUnits="userSpaceOnUse" id="gradient6" spreadMethod="pad" x1="-819.2" x2="819.2">
      <stop offset="0.0" stop-color="#434343"/>
      <stop offset="0.39215686274509803" stop-color="#5b5b5b"/>
      <stop offset="0.6274509803921569" stop-color="#5b5b5b"/>
      <stop offset="1.0" stop-color="#434343"/>
    </linearGradient>
    <linearGradient gradientTransform="matrix(0.0049, 0.0, 0.0, 0.0244, 0.0, -38.0)" gradientUnits="userSpaceOnUse" id="gradient7" spreadMethod="pad" x1="-819.2" x2="819.2">
      <stop offset="0.0" stop-color="#585858"/>
      <stop offset="0.39215686274509803" stop-color="#6d6d6d"/>
      <stop offset="0.6274509803921569" stop-color="#6d6d6d"/>
      <stop offset="1.0" stop-color="#585858"/>
    </linearGradient>
    <radialGradient cx="0" cy="0" fx="-1628.8000000000002" fy="0" gradientTransform="matrix(0.0446, -0.0192, 0.023, 0.0535, -50.4, -12.6)" gradientUnits="userSpaceOnUse" id="gradient8" r="819.2" spreadMethod="pad">
      <stop offset="0.19607843137254902" stop-color="#f0f0f0"/>
      <stop offset="0.403921568627451" stop-color="#dcdcdc"/>
      <stop offset="1.0" stop-color="#b8b8b8"/>
    </radialGradient>
    <radialGradient cx="0" cy="0" gradientTransform="matrix(0.0247, 0.0066, -0.0084, 0.0313, 26.0, -26.8)" gradientUnits="userSpaceOnUse" id="gradient9" r="819.2" spreadMethod="pad">
      <stop offset="0.0" stop-color="#ededed"/>
      <stop offset="0.3058823529411765" stop-color="#dcdcdc"/>
      <stop offset="1.0" stop-color="#b8b8b8"/>
    </radialGradient>
    <radialGradient cx="0" cy="0" gradientTransform="matrix(0.0344, 0.0, 0.0, 0.048, -3.0, -50.0)" gradientUnits="userSpaceOnUse" id="gradient10" r="819.2" spreadMethod="pad">
      <stop offset="0.24313725490196078" stop-color="#8d8d8d"/>
      <stop offset="1.0" stop-color="#717171"/>
    </radialGradient>
    <radialGradient cx="0" cy="0" gradientTransform="matrix(0.021, 0.0, 0.0, 0.0399, 4.0, -50.0)" gradientUnits="userSpaceOnUse" id="gradient11" r="819.2" spreadMethod="pad">
      <stop offset="0.24313725490196078" stop-color="#8d8d8d"/>
      <stop offset="1.0" stop-color="#717171"/>
    </radialGradient>
    <radialGradient cx="0" cy="0" gradientTransform="matrix(0.0049, 0.0, 0.0, 0.0049, 0.0, -53.5)" gradientUnits="userSpaceOnUse" id="gradient12" r="819.2" spreadMethod="pad">
      <stop offset="0.24313725490196078" stop-color="#757575"/>
      <stop offset="1.0" stop-color="#383838"/>
    </radialGradient>
    <linearGradient gradientTransform="matrix(0.0049, 0.0, 0.0, 0.0012, 0.0, -55.0)" gradientUnits="userSpaceOnUse" id="gradient13" spreadMethod="pad" x1="-819.2" x2="819.2">
      <stop offset="0.0" stop-color="#7b7b7b"/>
      <stop offset="0.44313725490196076" stop-color="#b0b0b0"/>
      <stop offset="0.6196078431372549" stop-color="#b0b0b0"/>
      <stop offset="1.0" stop-color="#7b7b7b"/>
    </linearGradient>
  </defs>
</svg>
