<?xml version="1.0" encoding="UTF-8" standalone="no"?>
<svg xmlns:xlink="http://www.w3.org/1999/xlink" height="37.0px" width="227.0px" xmlns="http://www.w3.org/2000/svg">
  <g transform="matrix(1.0, 0.0, 0.0, 1.0, 3.0, 15.0)">
    <path d="M56.0 -12.0 L56.0 -3.0 221.0 -3.0 Q224.0 -3.0 224.0 0.0 L224.0 19.0 Q224.0 22.0 221.0 22.0 L0.0 22.0 Q-3.0 22.0 -3.0 19.0 L-3.0 -12.0 Q-3.0 -15.0 0.0 -15.0 L53.0 -15.0 Q56.0 -15.0 56.0 -12.0 M220.0 2.0 Q220.0 1.0 219.0 1.0 L2.0 1.0 Q1.0 1.0 1.0 2.0 L1.0 17.0 Q1.0 18.0 2.0 18.0 L219.0 18.0 Q220.0 18.0 220.0 17.0 L220.0 2.0" fill="#000000" fill-rule="evenodd" stroke="none"/>
    <path d="M55.0 -12.0 L55.0 -2.0 221.0 -2.0 Q223.0 -2.0 223.0 0.0 L223.0 19.0 Q223.0 21.0 221.0 21.0 L0.0 21.0 Q-2.0 21.0 -2.0 19.0 L-2.0 -12.0 Q-2.0 -14.0 0.0 -14.0 L53.0 -14.0 Q55.0 -14.0 55.0 -12.0 M221.0 17.0 L221.0 2.0 Q221.0 0.0 219.0 0.0 L2.0 0.0 Q0.0 0.0 0.0 2.0 L0.0 17.0 Q0.0 19.0 2.0 19.0 L219.0 19.0 Q221.0 19.0 221.0 17.0" fill="#00ff00" fill-rule="evenodd" stroke="none"/>
  </g>
</svg>
