<?xml version="1.0" encoding="UTF-8" standalone="no"?>
<svg xmlns:xlink="http://www.w3.org/1999/xlink" height="496.0px" width="176.0px" xmlns="http://www.w3.org/2000/svg">
  <g transform="matrix(1.0, 0.0, 0.0, 1.0, 3.0, 15.0)">
    <path d="M56.0 -12.0 L56.0 -3.0 170.0 -3.0 Q173.0 -3.0 173.0 0.0 L173.0 478.0 Q173.0 481.0 170.0 481.0 L0.0 481.0 Q-3.0 481.0 -3.0 478.0 L-3.0 -12.0 Q-3.0 -15.0 0.0 -15.0 L53.0 -15.0 Q56.0 -15.0 56.0 -12.0 M168.0 1.0 L2.0 1.0 Q1.0 1.0 1.0 2.0 L1.0 476.0 Q1.0 477.0 2.0 477.0 L168.0 477.0 Q169.0 477.0 169.0 476.0 L169.0 2.0 Q169.0 1.0 168.0 1.0" fill="#000000" fill-rule="evenodd" stroke="none"/>
    <path d="M170.0 2.0 Q170.0 0.0 168.0 0.0 L2.0 0.0 Q0.0 0.0 0.0 2.0 L0.0 476.0 Q0.0 478.0 2.0 478.0 L168.0 478.0 Q170.0 478.0 170.0 476.0 L170.0 2.0 M55.0 -12.0 L55.0 -2.0 170.0 -2.0 Q172.0 -2.0 172.0 0.0 L172.0 478.0 Q172.0 480.0 170.0 480.0 L0.0 480.0 Q-2.0 480.0 -2.0 478.0 L-2.0 -12.0 Q-2.0 -14.0 0.0 -14.0 L53.0 -14.0 Q55.0 -14.0 55.0 -12.0" fill="#00ff00" fill-rule="evenodd" stroke="none"/>
  </g>
</svg>
