<?xml version="1.0" encoding="UTF-8" standalone="no"?>
<svg xmlns:xlink="http://www.w3.org/1999/xlink" height="384.0px" width="532.0px" xmlns="http://www.w3.org/2000/svg">
  <g transform="matrix(1.0, 0.0, 0.0, 1.0, 3.0, 15.0)">
    <path d="M56.25 -12.0 L56.25 -3.0 526.0 -3.0 Q529.0 -3.0 529.0 0.0 L529.0 366.0 Q529.0 369.0 526.0 369.0 L0.0 369.0 Q-3.0 369.0 -3.0 366.0 L-3.0 -12.0 Q-3.0 -15.0 0.0 -15.0 L53.25 -15.0 Q56.25 -15.0 56.25 -12.0 M524.0 1.0 L2.0 1.0 Q1.0 1.0 1.0 2.0 L1.0 364.0 Q1.0 365.0 2.0 365.0 L524.0 365.0 Q525.0 365.0 525.0 364.0 L525.0 2.0 Q525.0 1.0 524.0 1.0" fill="#000000" fill-rule="evenodd" stroke="none"/>
    <path d="M55.25 -12.0 L55.25 -2.0 65.0 -2.0 526.0 -2.0 Q528.0 -2.0 528.0 0.0 L528.0 366.0 Q528.0 368.0 526.0 368.0 L0.0 368.0 Q-2.0 368.0 -2.0 366.0 L-2.0 -12.0 Q-2.0 -14.0 0.0 -14.0 L53.25 -14.0 Q55.25 -14.0 55.25 -12.0 M524.0 0.0 L65.0 0.0 2.0 0.0 Q0.0 0.0 0.0 2.0 L0.0 364.0 Q0.0 366.0 2.0 366.0 L524.0 366.0 Q526.0 366.0 526.0 364.0 L526.0 2.0 Q526.0 0.0 524.0 0.0" fill="#00ff00" fill-rule="evenodd" stroke="none"/>
  </g>
</svg>
