<?xml version="1.0" encoding="UTF-8" standalone="no"?>
<svg xmlns:xlink="http://www.w3.org/1999/xlink" height="20.5px" width="21.1px" xmlns="http://www.w3.org/2000/svg">
  <g transform="matrix(1.0, 0.0, 0.0, 1.0, 10.85, 10.25)">
    <path d="M7.25 -7.25 Q10.25 -4.3 10.25 0.0 10.25 4.3 7.25 7.25 4.3 10.25 0.0 10.25 -4.3 10.25 -7.25 7.25 -10.25 4.3 -10.25 0.0 -10.25 -4.3 -7.25 -7.25 -4.3 -10.25 0.0 -10.25 4.3 -10.25 7.25 -7.25" fill="url(#gradient0)" fill-rule="evenodd" stroke="none"/>
    <path d="M9.6 -3.8 L9.8 -3.0 Q5.15 -4.15 0.0 -4.15 -5.1 -4.15 -9.85 -3.0 L-9.5 -3.85 Q0.0 -6.15 9.6 -3.8 M-9.85 3.05 Q-5.1 4.2 0.0 4.2 5.15 4.2 9.8 3.05 L9.6 3.85 Q0.0 6.2 -9.5 3.9 L-9.85 3.05" fill="#ffffff" fill-rule="evenodd" stroke="none"/>
    <path d="M-3.65 -6.15 Q-0.75 -6.15 1.35 -4.1 3.55 -1.9 3.55 1.05 3.55 4.05 1.5 6.1 -0.65 8.3 -3.65 8.25 -6.65 8.25 -8.8 6.1 -10.85 3.95 -10.85 1.05 -10.85 -1.9 -8.8 -4.1 -6.65 -6.15 -3.65 -6.15" fill="url(#gradient1)" fill-rule="evenodd" stroke="none"/>
    <path d="M7.25 -7.25 Q10.25 -4.3 10.25 0.0 10.25 4.3 7.25 7.25 4.3 10.25 0.0 10.25 -4.3 10.25 -7.25 7.25 -10.25 4.3 -10.25 0.0 -10.25 -4.3 -7.25 -7.25 -4.3 -10.25 0.0 -10.25 4.3 -10.25 7.25 -7.25" fill="url(#gradient2)" fill-rule="evenodd" stroke="none"/>
  </g>
  <defs>
    <radialGradient cx="0" cy="0" gradientTransform="matrix(0.0126, 0.0, 0.0, 0.0126, 0.0, 0.0)" gradientUnits="userSpaceOnUse" id="gradient0" r="819.2" spreadMethod="pad">
      <stop offset="0.0" stop-color="#7cf399"/>
      <stop offset="0.8" stop-color="#52ed78"/>
      <stop offset="0.8235294117647058" stop-color="#8ff5a9"/>
    </radialGradient>
    <radialGradient cx="0" cy="0" gradientTransform="matrix(0.0099, 0.0, 0.0, 0.0099, -3.15, 2.9)" gradientUnits="userSpaceOnUse" id="gradient1" r="819.2" spreadMethod="pad">
      <stop offset="0.1568627450980392" stop-color="#11a635" stop-opacity="0.3019608"/>
      <stop offset="1.0" stop-color="#68f28a" stop-opacity="0.0"/>
    </radialGradient>
    <radialGradient cx="0" cy="0" gradientTransform="matrix(0.0125, 0.0, 0.0, 0.0125, 3.65, -2.75)" gradientUnits="userSpaceOnUse" id="gradient2" r="819.2" spreadMethod="pad">
      <stop offset="0.1411764705882353" stop-color="#ffffff" stop-opacity="0.8235294"/>
      <stop offset="0.47843137254901963" stop-color="#68f28a" stop-opacity="0.0"/>
    </radialGradient>
  </defs>
</svg>
