<?xml version="1.0" encoding="UTF-8" standalone="no"?>
<svg xmlns:xlink="http://www.w3.org/1999/xlink" height="84.0px" width="79.4px" xmlns="http://www.w3.org/2000/svg">
  <g transform="matrix(1.0, 0.0, 0.0, 1.0, 39.7, 38.0)">
    <path d="M0.0 14.0 L15.25 14.85 Q26.75 16.0 32.0 18.0 L18.0 46.0 -18.0 46.0 -32.0 18.0 Q-26.75 16.0 -15.25 14.85 L0.0 14.0" fill="url(#gradient0)" fill-rule="evenodd" stroke="none"/>
    <path d="M18.0 38.0 L18.0 46.0 -18.0 46.0 -18.0 38.0 18.0 38.0" fill="url(#gradient1)" fill-rule="evenodd" stroke="none"/>
    <path d="M26.0 -13.0 L31.0 -13.0 Q44.45 -1.3 37.1 16.8 34.4 23.45 28.4 32.05 L18.0 46.0 18.0 38.0 Q33.1 21.05 35.35 9.35 37.75 -3.25 26.0 -13.0" fill="url(#gradient2)" fill-rule="evenodd" stroke="none"/>
    <path d="M-26.0 -13.0 Q-37.75 -3.25 -35.35 9.35 -33.1 21.05 -18.0 38.0 L-18.0 46.0 -28.4 32.05 Q-34.4 23.45 -37.1 16.8 -44.45 -1.3 -31.0 -13.0 L-26.0 -13.0" fill="url(#gradient3)" fill-rule="evenodd" stroke="none"/>
    <path d="M23.0 -24.0 L28.0 -24.0 27.0 -22.0 22.0 -22.0 23.0 -24.0 M-23.0 -24.0 L-22.0 -22.0 -27.0 -22.0 -28.0 -24.0 -23.0 -24.0" fill="#677498" fill-rule="evenodd" stroke="none"/>
    <path d="M18.0 38.0 L-18.0 38.0" fill="none" stroke="url(#gradient4)" stroke-linecap="round" stroke-linejoin="round" stroke-width="1.0"/>
    <path d="M23.0 -24.0 L22.0 -22.0 M-23.0 -24.0 L-22.0 -22.0" fill="none" stroke="#505261" stroke-linecap="round" stroke-linejoin="round" stroke-width="1.0"/>
    <path d="M26.0 -13.0 Q37.75 -3.25 35.35 9.35 33.1 21.05 18.0 38.0" fill="none" stroke="url(#gradient5)" stroke-linecap="round" stroke-linejoin="round" stroke-width="1.0"/>
    <path d="M-18.0 38.0 Q-33.1 21.05 -35.35 9.35 -37.75 -3.25 -26.0 -13.0" fill="none" stroke="url(#gradient6)" stroke-linecap="round" stroke-linejoin="round" stroke-width="1.0"/>
    <path d="M31.0 -13.0 L-31.0 -13.0 Q-27.95 -17.5 -27.0 -22.0 L27.0 -22.0 Q27.95 -17.6 31.0 -13.0" fill="url(#gradient7)" fill-rule="evenodd" stroke="none"/>
    <path d="M5.0 -10.0 L16.0 -1.0 Q19.8 6.45 25.0 13.0 L16.0 9.0 Q14.2 15.75 14.0 21.0 7.1 4.75 5.0 -10.0 M-5.0 -10.0 Q-7.1 4.75 -14.0 21.0 -14.2 15.75 -16.0 9.0 L-25.0 13.0 Q-19.8 6.45 -16.0 -1.0 L-5.0 -10.0" fill="#000000" fill-opacity="0.15294118" fill-rule="evenodd" stroke="none"/>
    <path d="M32.5 -12.4 Q35.4 -11.55 34.8 -3.05 34.15 5.4 30.4 16.75 26.75 27.9 22.2 35.25 17.65 42.7 14.85 41.75 11.9 41.0 12.5 32.45 13.3 23.9 16.9 12.65 20.7 1.5 25.15 -5.9 29.75 -13.25 32.5 -12.4" fill="url(#gradient8)" fill-rule="evenodd" stroke="none"/>
    <path d="M-3.95 -14.05 Q-6.05 0.7 -12.95 16.95 -13.15 11.7 -14.95 4.95 L-23.95 8.95 Q-18.85 2.5 -14.95 -5.05 L-3.95 -14.05" fill="url(#gradient9)" fill-rule="evenodd" stroke="none"/>
    <path d="M4.0 -14.0 L15.0 -5.0 Q18.8 2.45 24.0 9.0 L15.0 5.0 Q13.2 11.75 13.0 17.0 6.1 0.75 4.0 -14.0" fill="url(#gradient10)" fill-rule="evenodd" stroke="none"/>
    <path d="M21.1 -9.95 Q18.3 -1.9 16.0 -2.0 14.55 -2.0 8.65 -7.5 L3.0 -13.0 5.0 -20.0 Q9.6 -21.5 15.2 -21.9 21.1 -22.35 22.0 -21.0 23.9 -18.15 21.1 -9.95 M-16.0 -2.0 Q-18.3 -1.9 -21.1 -9.95 -23.9 -18.15 -22.0 -21.0 -21.1 -22.35 -15.2 -21.9 -9.6 -21.5 -5.0 -20.0 L-3.0 -13.0 -8.65 -7.5 Q-14.55 -2.0 -16.0 -2.0" fill="#000000" fill-opacity="0.101960786" fill-rule="evenodd" stroke="none"/>
    <path d="M6.0 -21.05 Q6.55 -15.9 4.0 -12.0 0.05 -11.0 -3.9 -12.0 -6.45 -15.9 -5.9 -21.05 0.25 -22.55 6.0 -21.05" fill="#592626" fill-opacity="0.2" fill-rule="evenodd" stroke="none"/>
    <path d="M-23.0 -22.0 Q-22.1 -23.35 -16.2 -22.9 -10.6 -22.5 -6.0 -21.0 L-4.0 -14.0 -9.65 -8.5 Q-15.55 -3.0 -17.0 -3.0 -19.3 -2.9 -22.1 -10.95 -24.9 -19.15 -23.0 -22.0" fill="url(#gradient11)" fill-rule="evenodd" stroke="none"/>
    <path d="M9.65 -8.5 L4.0 -14.0 6.0 -21.0 Q10.6 -22.5 16.2 -22.9 22.1 -23.35 23.0 -22.0 24.9 -19.15 22.1 -10.95 19.3 -2.9 17.0 -3.0 15.55 -3.0 9.65 -8.5" fill="url(#gradient12)" fill-rule="evenodd" stroke="none"/>
    <path d="M6.0 -22.05 Q6.55 -16.9 4.0 -13.0 0.05 -12.0 -3.9 -13.0 -6.45 -16.9 -5.9 -22.05 0.25 -23.55 6.0 -22.05" fill="url(#gradient13)" fill-rule="evenodd" stroke="none"/>
    <path d="M32.0 -32.0 Q31.2 -29.4 31.0 -27.0 L0.0 -27.0 -31.0 -27.0 Q-31.2 -29.4 -32.0 -32.0 -32.95 -34.8 -33.0 -38.0 L0.0 -38.0 33.0 -38.0 Q32.95 -34.8 32.0 -32.0" fill="url(#gradient14)" fill-rule="evenodd" stroke="none"/>
    <path d="M31.0 -24.0 L-31.0 -24.0 -31.0 -27.0 31.0 -27.0 31.0 -24.0" fill="url(#gradient15)" fill-rule="evenodd" stroke="none"/>
    <path d="M33.0 -37.0 L-33.0 -37.0 -33.0 -38.0 33.0 -38.0 33.0 -37.0" fill="#ffffff" fill-opacity="0.2" fill-rule="evenodd" stroke="none"/>
  </g>
  <defs>
    <linearGradient gradientTransform="matrix(0.0, 0.0204, -0.0195, 0.0, 0.0, 30.0)" gradientUnits="userSpaceOnUse" id="gradient0" spreadMethod="pad" x1="-819.2" x2="819.2">
      <stop offset="0.00784313725490196" stop-color="#ffffff" stop-opacity="0.2901961"/>
      <stop offset="1.0" stop-color="#ffffff" stop-opacity="0.0"/>
    </linearGradient>
    <linearGradient gradientTransform="matrix(0.0226, 0.0, 0.0, 0.0049, 0.0, 42.0)" gradientUnits="userSpaceOnUse" id="gradient1" spreadMethod="pad" x1="-819.2" x2="819.2">
      <stop offset="0.00784313725490196" stop-color="#7d8197"/>
      <stop offset="0.15294117647058825" stop-color="#97a5bd"/>
      <stop offset="0.47058823529411764" stop-color="#dbdbe3"/>
      <stop offset="0.5411764705882353" stop-color="#dbdbe3"/>
      <stop offset="0.8588235294117647" stop-color="#97a5bd"/>
      <stop offset="1.0" stop-color="#7d8197"/>
    </linearGradient>
    <linearGradient gradientTransform="matrix(0.0238, -0.0352, -0.0298, -0.0201, 28.85, 16.5)" gradientUnits="userSpaceOnUse" id="gradient2" spreadMethod="pad" x1="-819.2" x2="819.2">
      <stop offset="0.09019607843137255" stop-color="#73788c"/>
      <stop offset="0.3607843137254902" stop-color="#939bc1"/>
      <stop offset="0.6274509803921569" stop-color="#eceaf0"/>
      <stop offset="0.7568627450980392" stop-color="#f3f3f5"/>
      <stop offset="0.9137254901960784" stop-color="#3e496c"/>
      <stop offset="1.0" stop-color="#574284"/>
    </linearGradient>
    <linearGradient gradientTransform="matrix(-0.0238, -0.0352, 0.0298, -0.0201, -28.85, 16.5)" gradientUnits="userSpaceOnUse" id="gradient3" spreadMethod="pad" x1="-819.2" x2="819.2">
      <stop offset="0.09019607843137255" stop-color="#74798d"/>
      <stop offset="0.3607843137254902" stop-color="#9dabc4"/>
      <stop offset="0.6392156862745098" stop-color="#eceaf0"/>
      <stop offset="0.7450980392156863" stop-color="#f3f3f5"/>
      <stop offset="0.8941176470588236" stop-color="#45536b"/>
      <stop offset="1.0" stop-color="#574284"/>
    </linearGradient>
    <linearGradient gradientTransform="matrix(-2.0E-4, -0.0385, 0.0385, -2.0E-4, -6.15, 7.35)" gradientUnits="userSpaceOnUse" id="gradient4" spreadMethod="pad" x1="-819.2" x2="819.2">
      <stop offset="0.0" stop-color="#edebef"/>
      <stop offset="0.17647058823529413" stop-color="#655a6b"/>
      <stop offset="0.7529411764705882" stop-color="#928fb6"/>
      <stop offset="1.0" stop-color="#564a60"/>
    </linearGradient>
    <linearGradient gradientTransform="matrix(-2.0E-4, -0.0385, 0.0385, -2.0E-4, -6.15, 7.35)" gradientUnits="userSpaceOnUse" id="gradient5" spreadMethod="pad" x1="-819.2" x2="819.2">
      <stop offset="0.0" stop-color="#e6e8ee"/>
      <stop offset="0.17647058823529413" stop-color="#4e4f72"/>
      <stop offset="0.7529411764705882" stop-color="#65667c"/>
      <stop offset="1.0" stop-color="#564a60"/>
    </linearGradient>
    <linearGradient gradientTransform="matrix(-2.0E-4, -0.0385, 0.0385, -2.0E-4, -6.15, 7.35)" gradientUnits="userSpaceOnUse" id="gradient6" spreadMethod="pad" x1="-819.2" x2="819.2">
      <stop offset="0.0" stop-color="#e6e8ee"/>
      <stop offset="0.17647058823529413" stop-color="#455c7a"/>
      <stop offset="0.7529411764705882" stop-color="#6d6f89"/>
      <stop offset="1.0" stop-color="#564a60"/>
    </linearGradient>
    <linearGradient gradientTransform="matrix(0.0378, 0.0, 0.0, 0.0055, 0.0, -17.5)" gradientUnits="userSpaceOnUse" id="gradient7" spreadMethod="pad" x1="-819.2" x2="819.2">
      <stop offset="0.0" stop-color="#851d1d"/>
      <stop offset="0.25882352941176473" stop-color="#8b1f1f"/>
      <stop offset="0.49019607843137253" stop-color="#c62b2b"/>
      <stop offset="0.6078431372549019" stop-color="#c62b2b"/>
      <stop offset="0.792156862745098" stop-color="#8b1f1f"/>
      <stop offset="1.0" stop-color="#851d1d"/>
    </linearGradient>
    <radialGradient cx="0" cy="0" gradientTransform="matrix(0.0087, 0.0039, -0.0122, 0.025, 24.6, 12.9)" gradientUnits="userSpaceOnUse" id="gradient8" r="819.2" spreadMethod="pad">
      <stop offset="0.39215686274509803" stop-color="#ffffff"/>
      <stop offset="0.8784313725490196" stop-color="#ffffff" stop-opacity="0.0"/>
    </radialGradient>
    <linearGradient gradientTransform="matrix(-0.007, 0.0192, -0.0178, -0.0065, -10.75, -0.9)" gradientUnits="userSpaceOnUse" id="gradient9" spreadMethod="pad" x1="-819.2" x2="819.2">
      <stop offset="0.00784313725490196" stop-color="#470e0e"/>
      <stop offset="0.3411764705882353" stop-color="#c10404"/>
      <stop offset="1.0" stop-color="#980303"/>
    </linearGradient>
    <linearGradient gradientTransform="matrix(0.0098, 0.017, -0.0164, 0.0095, 13.05, -3.15)" gradientUnits="userSpaceOnUse" id="gradient10" spreadMethod="pad" x1="-819.2" x2="819.2">
      <stop offset="0.00784313725490196" stop-color="#470e0e"/>
      <stop offset="0.3411764705882353" stop-color="#c10404"/>
      <stop offset="1.0" stop-color="#d63030"/>
    </linearGradient>
    <radialGradient cx="0" cy="0" fx="816.0" fy="0" gradientTransform="matrix(0.0239, -0.0082, 0.0049, 0.0143, -24.0, -11.25)" gradientUnits="userSpaceOnUse" id="gradient11" r="819.2" spreadMethod="pad">
      <stop offset="0.050980392156862744" stop-color="#af1010"/>
      <stop offset="0.23529411764705882" stop-color="#e24747"/>
      <stop offset="0.6666666666666666" stop-color="#9a1616"/>
      <stop offset="1.0" stop-color="#aa0000"/>
    </radialGradient>
    <radialGradient cx="0" cy="0" fx="-838.4000000000001" fy="0" gradientTransform="matrix(0.0228, 0.0074, -0.0048, 0.0147, 22.55, -11.9)" gradientUnits="userSpaceOnUse" id="gradient12" r="819.2" spreadMethod="pad">
      <stop offset="0.050980392156862744" stop-color="#af1010"/>
      <stop offset="0.23529411764705882" stop-color="#e24747"/>
      <stop offset="0.6666666666666666" stop-color="#9a1616"/>
      <stop offset="1.0" stop-color="#aa0000"/>
    </radialGradient>
    <radialGradient cx="0" cy="0" gradientTransform="matrix(0.0087, 0.0, 0.0, 0.0087, 0.05, -18.65)" gradientUnits="userSpaceOnUse" id="gradient13" r="819.2" spreadMethod="pad">
      <stop offset="0.20784313725490197" stop-color="#ea5555"/>
      <stop offset="0.5254901960784314" stop-color="#d94141"/>
      <stop offset="0.7686274509803922" stop-color="#c33232"/>
      <stop offset="0.9254901960784314" stop-color="#882828"/>
    </radialGradient>
    <radialGradient cx="0" cy="0" gradientTransform="matrix(0.0408, 0.0, 0.0, 0.0408, -0.25, -36.5)" gradientUnits="userSpaceOnUse" id="gradient14" r="819.2" spreadMethod="pad">
      <stop offset="0.0" stop-color="#e8ccb3"/>
      <stop offset="0.2627450980392157" stop-color="#d3a972"/>
      <stop offset="0.5607843137254902" stop-color="#b58351"/>
      <stop offset="0.8392156862745098" stop-color="#805831"/>
      <stop offset="1.0" stop-color="#92663a"/>
    </radialGradient>
    <linearGradient gradientTransform="matrix(0.0378, 0.0, 0.0, 0.0018, 0.0, -25.5)" gradientUnits="userSpaceOnUse" id="gradient15" spreadMethod="pad" x1="-819.2" x2="819.2">
      <stop offset="0.0" stop-color="#41291b"/>
      <stop offset="0.09803921568627451" stop-color="#614325"/>
      <stop offset="0.38823529411764707" stop-color="#b58c66"/>
      <stop offset="0.5176470588235295" stop-color="#c4a588"/>
      <stop offset="0.6274509803921569" stop-color="#b58c66"/>
      <stop offset="0.8941176470588236" stop-color="#614325"/>
      <stop offset="1.0" stop-color="#41291b"/>
    </linearGradient>
  </defs>
</svg>
