<?xml version="1.0" encoding="UTF-8" standalone="no"?>
<svg xmlns:xlink="http://www.w3.org/1999/xlink" height="116.2px" width="75.0px" xmlns="http://www.w3.org/2000/svg">
  <g transform="matrix(1.0, 0.0, 0.0, 1.0, 59.7, 57.95)">
    <path d="M-36.4 -54.55 Q-34.45 -52.75 -34.1 -48.85 L-33.95 -39.55 Q-33.9 -37.8 -31.8 -33.95 L-29.7 -30.5 -32.2 -31.55 -34.2 -35.05 Q-35.35 -37.5 -35.5 -40.05 L-35.65 -47.85 Q-35.95 -52.2 -37.75 -53.75 -41.95 -57.4 -48.65 -56.15 -54.4 -55.1 -56.25 -52.5 -58.8 -48.85 -58.0 -43.75 -57.15 -38.5 -50.35 -35.1 -44.85 -32.35 -33.65 -30.05 L-33.3 -28.5 Q-45.1 -30.9 -50.95 -33.75 L-50.95 -33.8 Q-58.6 -37.6 -59.45 -43.55 -60.4 -49.4 -57.5 -53.25 -54.7 -56.95 -48.05 -57.8 -40.8 -58.65 -36.4 -54.55" fill="url(#gradient0)" fill-rule="evenodd" stroke="none"/>
    <path d="M12.1 40.05 Q14.25 47.35 15.0 52.5 15.7 57.5 14.75 58.2 14.1 58.65 10.15 52.75 6.5 47.25 4.05 42.6 L-1.9 32.25 Q-7.15 22.85 -7.4 19.8 -7.65 16.2 -4.05 14.4 -0.35 12.55 2.5 15.65 3.95 17.3 6.65 24.15 9.25 30.6 11.7 38.65 L12.1 40.05" fill="url(#gradient1)" fill-rule="evenodd" stroke="none"/>
  </g>
  <defs>
    <linearGradient gradientTransform="matrix(0.0126, 0.0169, -0.0144, 0.0107, -36.2, -48.25)" gradientUnits="userSpaceOnUse" id="gradient0" spreadMethod="pad" x1="-819.2" x2="819.2">
      <stop offset="0.0" stop-color="#cccccc"/>
      <stop offset="1.0" stop-color="#a6a6a6"/>
    </linearGradient>
    <radialGradient cx="0" cy="0" fx="-1456.0" fy="0" gradientTransform="matrix(0.006, -0.0024, 0.0091, 0.0224, 2.65, 28.1)" gradientUnits="userSpaceOnUse" id="gradient1" r="819.2" spreadMethod="pad">
      <stop offset="0.0" stop-color="#52403a"/>
      <stop offset="1.0" stop-color="#333333"/>
    </radialGradient>
  </defs>
</svg>
