<?xml version="1.0" encoding="UTF-8" standalone="no"?>
<svg xmlns:xlink="http://www.w3.org/1999/xlink" height="125.0px" width="112.15px" xmlns="http://www.w3.org/2000/svg">
  <g transform="matrix(1.0, 0.0, 0.0, 1.0, 56.1, 62.0)">
    <path d="M36.4 -56.3 Q40.5 -52.25 41.55 -50.6 42.2 -49.55 41.95 -48.4 L41.35 -45.35 54.0 -40.8 Q54.9 -40.5 55.45 -39.75 56.0 -38.95 56.0 -38.0 L56.0 -6.85 56.0 58.0 Q56.0 63.0 51.0 63.0 L-51.0 63.0 Q-56.0 63.0 -56.0 58.0 L-56.0 -6.85 -56.0 -38.0 Q-56.0 -39.0 -55.45 -39.75 -54.9 -40.5 -54.0 -40.8 L-41.3 -45.3 -41.95 -48.4 Q-42.2 -49.55 -41.5 -50.6 -40.5 -52.25 -36.4 -56.3 L-30.8 -61.4 -30.75 -61.4 Q-29.95 -62.0 -29.0 -62.0 L29.0 -62.0 30.0 -61.8 30.8 -61.4 36.4 -56.3" fill="#000000" fill-rule="evenodd" stroke="none"/>
    <path d="M0.0 -16.0 L-23.0 -48.0 23.0 -48.0 0.0 -16.0" fill="#1d1d38" fill-rule="evenodd" stroke="none"/>
    <path d="M23.0 -48.0 L-23.0 -48.0 -29.0 -59.0 29.0 -59.0 23.0 -48.0" fill="url(#gradient0)" fill-rule="evenodd" stroke="none"/>
    <path d="M4.0 -44.0 L-4.0 -44.0 -4.0 -48.0 4.0 -48.0 4.0 -44.0" fill="#868686" fill-rule="evenodd" stroke="none"/>
    <path d="M-53.0 -6.85 L-53.0 -38.0 -30.25 -46.1 22.0 8.0 22.0 60.0 -51.0 60.0 Q-53.0 60.0 -53.0 58.0 L-53.0 -6.85" fill="url(#gradient1)" fill-rule="evenodd" stroke="none"/>
    <path d="M-52.95 -6.0 L-53.0 -6.0 -53.0 -7.3 -40.15 -24.45 -53.0 -37.3 -53.0 -38.0 -52.5 -38.2 -39.3 -25.0 -33.1 -25.0 -33.1 -24.0 -39.25 -24.0 -52.6 -6.2 -52.95 -6.0" fill="url(#gradient2)" fill-rule="evenodd" stroke="none"/>
    <path d="M-34.5 -53.55 L-29.4 -58.0 Q-8.6 -26.9 21.85 8.3 L-30.4 -10.0 -17.95 -24.4 Q-21.15 -22.95 -27.15 -20.6 L-33.4 -18.0 -39.0 -48.75 Q-38.1 -50.2 -34.5 -53.55" fill="#1d1d38" fill-rule="evenodd" stroke="none"/>
    <path d="M-34.3 -54.2 Q-30.85 -57.6 -29.0 -59.0 -12.55 -34.45 5.65 -11.65 L-4.5 -1.5 -30.0 -11.0 -17.55 -25.4 Q-20.75 -23.95 -26.75 -21.6 L-33.0 -19.0 -39.0 -49.0 Q-38.05 -50.5 -34.3 -54.2" fill="url(#gradient3)" fill-rule="evenodd" stroke="none"/>
    <path d="M29.0 -59.0 Q30.85 -57.6 34.3 -54.2 38.05 -50.5 39.0 -49.0 L37.9 -43.4 53.0 -38.0 53.0 -6.85 53.0 58.0 Q53.0 60.0 51.0 60.0 L-22.0 60.0 -22.0 8.0 Q5.3 -23.55 29.0 -59.0" fill="url(#gradient4)" fill-rule="evenodd" stroke="none"/>
    <path d="M-22.0 60.0 L-22.0 8.0 Q5.3 -23.55 29.0 -59.0" fill="none" stroke="#1d1d38" stroke-linecap="round" stroke-linejoin="round" stroke-width="1.0"/>
    <path d="M33.1 -25.0 L39.3 -25.0 52.5 -38.2 53.0 -38.0 53.0 -37.3 40.15 -24.45 53.0 -7.3 53.0 -6.0 52.95 -6.0 52.6 -6.2 39.25 -24.0 33.1 -24.0 33.1 -25.0" fill="url(#gradient5)" fill-rule="evenodd" stroke="none"/>
    <path d="M34.5 -53.4 Q37.95 -49.9 38.9 -48.4 L33.5 -18.0 27.25 -20.6 Q21.25 -22.95 18.05 -24.4 L30.5 -10.0 -21.75 8.3 Q8.7 -26.9 29.5 -58.0 L34.5 -53.4" fill="#1d1d38" fill-rule="evenodd" stroke="none"/>
    <path d="M34.3 -54.2 Q38.05 -50.5 39.0 -49.0 L33.0 -19.0 26.75 -21.6 Q20.75 -23.95 17.55 -25.4 L30.0 -11.0 -22.0 8.0 Q5.3 -23.55 29.0 -59.0 30.85 -57.6 34.3 -54.2" fill="url(#gradient6)" fill-rule="evenodd" stroke="none"/>
    <path d="M17.0 12.0 Q17.0 14.05 15.5 15.5 14.05 17.0 12.0 17.0 9.95 17.0 8.45 15.5 7.0 14.05 7.0 12.0 7.0 9.95 8.45 8.45 9.95 7.0 12.0 7.0 14.05 7.0 15.5 8.45 17.0 9.95 17.0 12.0 M12.0 45.0 Q14.05 45.0 15.5 46.45 17.0 47.95 17.0 50.0 17.0 52.05 15.5 53.5 14.05 55.0 12.0 55.0 9.95 55.0 8.45 53.5 7.0 52.05 7.0 50.0 7.0 47.95 8.45 46.45 9.95 45.0 12.0 45.0 M-9.5 15.5 Q-10.95 17.0 -13.0 17.0 -15.05 17.0 -16.55 15.5 -18.0 14.05 -18.0 12.0 -18.0 9.95 -16.55 8.45 -15.05 7.0 -13.0 7.0 -10.95 7.0 -9.5 8.45 -8.0 9.95 -8.0 12.0 -8.0 14.05 -9.5 15.5 M-9.5 46.45 Q-8.0 47.95 -8.0 50.0 -8.0 52.05 -9.5 53.5 -10.95 55.0 -13.0 55.0 -15.05 55.0 -16.55 53.5 -18.0 52.05 -18.0 50.0 -18.0 47.95 -16.55 46.45 -15.05 45.0 -13.0 45.0 -10.95 45.0 -9.5 46.45" fill="#000000" fill-opacity="0.2" fill-rule="evenodd" stroke="none"/>
  </g>
  <defs>
    <linearGradient gradientTransform="matrix(0.0354, 0.0, 0.0, 0.0067, 0.0, -53.5)" gradientUnits="userSpaceOnUse" id="gradient0" spreadMethod="pad" x1="-819.2" x2="819.2">
      <stop offset="0.0" stop-color="#20213c"/>
      <stop offset="0.5098039215686274" stop-color="#353960"/>
      <stop offset="1.0" stop-color="#20213c"/>
    </linearGradient>
    <linearGradient gradientTransform="matrix(0.0, 0.0692, -0.0661, 0.0, 0.0, 6.15)" gradientUnits="userSpaceOnUse" id="gradient1" spreadMethod="pad" x1="-819.2" x2="819.2">
      <stop offset="0.023529411764705882" stop-color="#3b4a77"/>
      <stop offset="0.8745098039215686" stop-color="#2f3259"/>
      <stop offset="1.0" stop-color="#3f406f"/>
    </linearGradient>
    <linearGradient gradientTransform="matrix(-0.0121, 0.0, 0.0, 0.0197, -43.05, -22.15)" gradientUnits="userSpaceOnUse" id="gradient2" spreadMethod="pad" x1="-819.2" x2="819.2">
      <stop offset="0.0" stop-color="#353d67"/>
      <stop offset="1.0" stop-color="#2d2e55"/>
    </linearGradient>
    <linearGradient gradientTransform="matrix(0.0311, -0.0536, 0.02, 0.0116, 20.4, -12.65)" gradientUnits="userSpaceOnUse" id="gradient3" spreadMethod="pad" x1="-819.2" x2="819.2">
      <stop offset="0.0" stop-color="#3a467c"/>
      <stop offset="1.0" stop-color="#3a4772"/>
    </linearGradient>
    <linearGradient gradientTransform="matrix(0.0, 0.0692, -0.0661, 0.0, 0.0, 6.15)" gradientUnits="userSpaceOnUse" id="gradient4" spreadMethod="pad" x1="-819.2" x2="819.2">
      <stop offset="0.023529411764705882" stop-color="#3d4d7a"/>
      <stop offset="0.8745098039215686" stop-color="#2d2d53"/>
      <stop offset="1.0" stop-color="#464779"/>
    </linearGradient>
    <linearGradient gradientTransform="matrix(0.0121, 0.0, 0.0, 0.0197, 43.05, -22.15)" gradientUnits="userSpaceOnUse" id="gradient5" spreadMethod="pad" x1="-819.2" x2="819.2">
      <stop offset="0.0" stop-color="#353e69"/>
      <stop offset="1.0" stop-color="#2d2d53"/>
    </linearGradient>
    <linearGradient gradientTransform="matrix(0.0311, -0.0536, 0.02, 0.0116, 20.4, -12.65)" gradientUnits="userSpaceOnUse" id="gradient6" spreadMethod="pad" x1="-819.2" x2="819.2">
      <stop offset="0.0" stop-color="#3a467c"/>
      <stop offset="1.0" stop-color="#3b4975"/>
    </linearGradient>
  </defs>
</svg>
