<?xml version="1.0" encoding="UTF-8" standalone="no"?>
<svg xmlns:xlink="http://www.w3.org/1999/xlink" height="10.0px" width="10.0px" xmlns="http://www.w3.org/2000/svg">
  <g transform="matrix(1.0, 0.0, 0.0, 1.0, 5.0, 5.0)">
    <path d="M1.85 -0.35 L2.0 0.0 1.85 0.35 1.5 0.5 1.15 0.35 1.0 0.0 1.15 -0.35 1.5 -0.5 1.85 -0.35 M-1.15 -0.35 L-1.0 0.0 -1.15 0.35 -1.5 0.5 -1.85 0.35 -2.0 0.0 -1.85 -0.35 -1.5 -0.5 -1.15 -0.35" fill="#2b2b2b" fill-rule="evenodd" stroke="none"/>
    <path d="M2.8 -2.85 Q4.0 -1.65 4.0 0.0 4.0 1.65 2.8 2.8 1.65 4.0 0.0 4.0 -1.65 4.0 -2.85 2.8 -4.0 1.65 -4.0 0.0 -4.0 -1.65 -2.85 -2.85 -1.65 -4.0 0.0 -4.0 1.65 -4.0 2.8 -2.85 M-1.15 -0.35 L-1.5 -0.5 -1.85 -0.35 -2.0 0.0 -1.85 0.35 -1.5 0.5 -1.15 0.35 -1.0 0.0 -1.15 -0.35 M1.85 -0.35 L1.5 -0.5 1.15 -0.35 1.0 0.0 1.15 0.35 1.5 0.5 1.85 0.35 2.0 0.0 1.85 -0.35" fill="url(#gradient0)" fill-rule="evenodd" stroke="none"/>
    <path d="M2.8 -2.85 Q1.65 -4.0 0.0 -4.0 -1.65 -4.0 -2.85 -2.85 -4.0 -1.65 -4.0 0.0 -4.0 1.65 -2.85 2.8 -1.65 4.0 0.0 4.0 1.65 4.0 2.8 2.8 4.0 1.65 4.0 0.0 4.0 -1.65 2.8 -2.85 M3.5 -3.55 Q5.0 -2.05 5.0 0.0 5.0 2.05 3.5 3.5 2.05 5.0 0.0 5.0 -2.05 5.0 -3.55 3.5 -5.0 2.05 -5.0 0.0 -5.0 -2.05 -3.55 -3.55 -2.05 -5.0 0.0 -5.0 2.05 -5.0 3.5 -3.55" fill="url(#gradient1)" fill-rule="evenodd" stroke="none"/>
  </g>
  <defs>
    <radialGradient cx="0" cy="0" gradientTransform="matrix(0.007, 0.0, 0.0, 0.0072, 0.0, 3.0)" gradientUnits="userSpaceOnUse" id="gradient0" r="819.2" spreadMethod="pad">
      <stop offset="0.20784313725490197" stop-color="#5b5b5b"/>
      <stop offset="0.4549019607843137" stop-color="#434343"/>
      <stop offset="1.0" stop-color="#404040"/>
    </radialGradient>
    <radialGradient cx="0" cy="0" gradientTransform="matrix(0.0121, 0.0, 0.0, 0.0121, 0.0, -4.85)" gradientUnits="userSpaceOnUse" id="gradient1" r="819.2" spreadMethod="pad">
      <stop offset="0.07450980392156863" stop-color="#717171"/>
      <stop offset="0.20784313725490197" stop-color="#5b5b5b"/>
      <stop offset="0.4549019607843137" stop-color="#434343"/>
      <stop offset="0.8431372549019608" stop-color="#232323"/>
      <stop offset="1.0" stop-color="#5b5b5b"/>
    </radialGradient>
  </defs>
</svg>
