<?xml version="1.0" encoding="UTF-8" standalone="no"?>
<svg xmlns:xlink="http://www.w3.org/1999/xlink" height="95.1px" width="118.0px" xmlns="http://www.w3.org/2000/svg">
  <g transform="matrix(1.0, 0.0, 0.0, 1.0, 60.5, 41.6)">
    <path d="M26.0 -35.5 Q28.15 -38.4 31.55 -39.8 34.6 -41.15 39.7 -41.5 L43.55 -41.3 Q45.5 -40.95 47.0 -40.3 L47.75 -39.8 Q54.7 -33.15 52.5 -28.0 L55.5 -27.45 Q56.15 -27.35 56.65 -26.85 L57.4 -25.7 Q57.6 -25.05 57.45 -24.4 L45.6 23.9 45.15 24.85 44.35 25.5 44.2 25.6 42.25 33.3 Q41.95 34.3 41.05 34.85 L9.25 53.2 8.2 53.5 7.1 53.35 -41.75 34.75 -42.65 34.15 -43.2 33.2 -43.25 33.05 -43.3 32.95 -45.15 26.4 -46.0 25.8 -46.6 24.75 -60.4 -24.3 Q-60.6 -25.0 -60.4 -25.65 -60.25 -26.3 -59.75 -26.75 -59.25 -27.25 -58.6 -27.4 L-9.6 -39.4 -8.55 -39.45 24.85 -33.15 Q25.2 -34.5 26.0 -35.5 M40.0 -32.3 L36.55 -32.2 35.95 -31.1 39.85 -30.35 41.2 -31.85 41.35 -32.0 40.05 -32.3 40.0 -32.3" fill="#000000" fill-rule="evenodd" stroke="none"/>
    <path d="M8.25 42.05 L8.0 51.0 -40.85 32.4 -40.9 32.25 -43.1 24.3 8.25 42.05" fill="url(#gradient0)" fill-rule="evenodd" stroke="none"/>
    <path d="M39.8 32.7 L8.0 51.0 8.25 42.05 42.1 23.4 39.8 32.7" fill="url(#gradient1)" fill-rule="evenodd" stroke="none"/>
    <path d="M55.0 -24.0 L43.15 24.3 8.25 43.05 -44.2 25.05 -58.0 -24.0 10.0 -7.0 55.0 -24.0" fill="#000000" fill-opacity="0.3019608" fill-rule="evenodd" stroke="none"/>
    <path d="M8.25 42.05 L-58.0 -25.0 10.0 -8.0 8.25 42.05" fill="url(#gradient2)" fill-rule="evenodd" stroke="none"/>
    <path d="M-44.2 24.05 L-58.0 -25.0 8.25 42.05 -44.2 24.05" fill="url(#gradient3)" fill-rule="evenodd" stroke="none"/>
    <path d="M-53.35 -23.8 L8.4 38.65 8.25 42.05 2.9 40.2 -56.6 -20.05 -58.0 -25.0 -53.35 -23.8" fill="url(#gradient4)" fill-rule="evenodd" stroke="none"/>
    <path d="M55.0 -25.0 L43.15 23.3 8.25 42.05 10.0 -8.0 55.0 -25.0" fill="url(#gradient5)" fill-rule="evenodd" stroke="none"/>
    <path d="M10.0 -8.0 L-58.0 -25.0 -9.0 -37.0 55.0 -25.0 10.0 -8.0" fill="url(#gradient6)" fill-rule="evenodd" stroke="none"/>
    <path d="M-35.85 -29.3 L-37.9 -29.9 -32.2 -31.3 -30.1 -30.2 -29.45 -29.8 -23.1 -30.0 -25.7 -27.5 -24.8 -26.9 -23.1 -25.55 -16.7 -25.6 -20.15 -22.55 -19.45 -21.7 -17.95 -19.7 -10.4 -18.8 -15.8 -15.7 -15.3 -14.3 -20.65 -15.65 -20.7 -15.65 -20.75 -15.7 -21.95 -18.1 -29.45 -19.7 -24.45 -21.6 -26.8 -23.95 -33.8 -24.0 -29.95 -26.35 -32.35 -27.8 -39.15 -27.5 -35.85 -29.3" fill="url(#gradient7)" fill-rule="evenodd" stroke="none"/>
    <path d="M26.0 -25.0 Q25.15 -26.45 24.95 -28.9 24.8 -30.6 25.0 -32.0 L29.15 -32.05 29.15 -26.0 26.0 -25.0 M40.0 -29.0 L45.0 -28.0 36.85 -22.95 34.9 -24.7 40.0 -29.0" fill="#000000" fill-opacity="0.2509804" fill-rule="evenodd" stroke="none"/>
    <path d="M26.0 -20.0 L30.0 -20.0 25.65 -5.25 18.5 -6.75 26.0 -20.0" fill="url(#gradient8)" fill-rule="evenodd" stroke="none"/>
    <path d="M8.75 -17.75 L26.0 -23.0 26.0 -21.0 14.5 -15.4 Q11.65 -16.55 8.75 -17.75" fill="url(#gradient9)" fill-rule="evenodd" stroke="none"/>
    <path d="M40.0 -39.0 L43.1 -38.85 46.0 -38.0 46.0 -32.0 Q43.65 -34.3 40.4 -34.8 37.2 -35.35 34.0 -34.0 36.0 -36.95 40.0 -39.0" fill="url(#gradient10)" fill-rule="evenodd" stroke="none"/>
    <path d="M46.0 -38.0 Q52.7 -31.6 48.9 -27.2 45.25 -23.05 36.0 -24.0 40.75 -27.35 43.15 -30.3 46.2 -34.1 46.0 -38.0" fill="url(#gradient11)" fill-rule="evenodd" stroke="none"/>
    <path d="M28.0 -34.0 Q29.75 -36.35 32.5 -37.5 35.3 -38.7 40.0 -39.0 33.0 -34.9 32.0 -26.0 L28.0 -26.0 Q26.15 -31.55 28.0 -34.0" fill="url(#gradient12)" fill-rule="evenodd" stroke="none"/>
    <path d="M40.0 -23.0 Q40.0 -21.35 37.05 -20.2 34.15 -19.0 30.0 -19.0 25.85 -19.0 22.9 -20.2 20.0 -21.35 20.0 -23.0 20.0 -24.65 22.9 -25.85 25.85 -27.0 30.0 -27.0 34.15 -27.0 37.05 -25.85 40.0 -24.65 40.0 -23.0" fill="url(#gradient13)" fill-rule="evenodd" stroke="none"/>
  </g>
  <defs>
    <linearGradient gradientTransform="matrix(-0.0198, 0.0282, -0.0133, -0.0094, -38.75, -0.25)" gradientUnits="userSpaceOnUse" id="gradient0" spreadMethod="pad" x1="-819.2" x2="819.2">
      <stop offset="0.0" stop-color="#37383e"/>
      <stop offset="1.0" stop-color="#42454a"/>
    </linearGradient>
    <linearGradient gradientTransform="matrix(0.0217, 0.0163, -0.0101, 0.0134, 51.95, -18.9)" gradientUnits="userSpaceOnUse" id="gradient1" spreadMethod="pad" x1="-819.2" x2="819.2">
      <stop offset="0.0" stop-color="#17181a"/>
      <stop offset="1.0" stop-color="#2f3133"/>
    </linearGradient>
    <linearGradient gradientTransform="matrix(-0.0193, 0.0291, -0.034, -0.0226, -23.8, 9.25)" gradientUnits="userSpaceOnUse" id="gradient2" spreadMethod="pad" x1="-819.2" x2="819.2">
      <stop offset="0.00784313725490196" stop-color="#d8d8d8"/>
      <stop offset="1.0" stop-color="#ebe9e9"/>
    </linearGradient>
    <linearGradient gradientTransform="matrix(-0.0189, 0.0295, -0.0344, -0.022, -24.9, 8.45)" gradientUnits="userSpaceOnUse" id="gradient3" spreadMethod="pad" x1="-819.2" x2="819.2">
      <stop offset="0.0" stop-color="#2b2c31"/>
      <stop offset="1.0" stop-color="#494b52"/>
    </linearGradient>
    <linearGradient gradientTransform="matrix(-0.0197, 0.0302, -0.0342, -0.0223, -24.8, 8.5)" gradientUnits="userSpaceOnUse" id="gradient4" spreadMethod="pad" x1="-819.2" x2="819.2">
      <stop offset="0.25882352941176473" stop-color="#0388b4"/>
      <stop offset="1.0" stop-color="#24c7fd"/>
    </linearGradient>
    <linearGradient gradientTransform="matrix(0.0221, 0.0179, -0.0257, 0.0317, 31.6, 8.5)" gradientUnits="userSpaceOnUse" id="gradient5" spreadMethod="pad" x1="-819.2" x2="819.2">
      <stop offset="0.0" stop-color="#254192"/>
      <stop offset="1.0" stop-color="#1f5c98"/>
    </linearGradient>
    <linearGradient gradientTransform="matrix(0.0, 0.0186, -0.0177, 0.0, -1.5, -22.5)" gradientUnits="userSpaceOnUse" id="gradient6" spreadMethod="pad" x1="-819.2" x2="819.2">
      <stop offset="0.12156862745098039" stop-color="#2c2d30"/>
      <stop offset="0.6392156862745098" stop-color="#474f54"/>
      <stop offset="1.0" stop-color="#75808a"/>
    </linearGradient>
    <linearGradient gradientTransform="matrix(0.0, 0.0184, -0.0104, 0.0, -2.4, -22.8)" gradientUnits="userSpaceOnUse" id="gradient7" spreadMethod="pad" x1="-819.2" x2="819.2">
      <stop offset="0.11372549019607843" stop-color="#a98fbc"/>
      <stop offset="1.0" stop-color="#bdb0c6"/>
    </linearGradient>
    <linearGradient gradientTransform="matrix(3.0E-4, -0.0085, 0.0085, 3.0E-4, 24.0, -13.0)" gradientUnits="userSpaceOnUse" id="gradient8" spreadMethod="pad" x1="-819.2" x2="819.2">
      <stop offset="0.0" stop-color="#03befc"/>
      <stop offset="0.34901960784313724" stop-color="#23beff"/>
      <stop offset="0.6470588235294118" stop-color="#02aee8"/>
      <stop offset="1.0" stop-color="#0189b6"/>
    </linearGradient>
    <linearGradient gradientTransform="matrix(0.0041, -0.0055, 0.0039, 0.0029, 17.1, -19.1)" gradientUnits="userSpaceOnUse" id="gradient9" spreadMethod="pad" x1="-819.2" x2="819.2">
      <stop offset="0.0" stop-color="#03befc"/>
      <stop offset="0.34901960784313724" stop-color="#23beff"/>
      <stop offset="0.6470588235294118" stop-color="#02aee8"/>
      <stop offset="1.0" stop-color="#0189b6"/>
    </linearGradient>
    <linearGradient gradientTransform="matrix(0.0073, 0.0, 0.0, 0.0043, 40.0, -35.55)" gradientUnits="userSpaceOnUse" id="gradient10" spreadMethod="pad" x1="-819.2" x2="819.2">
      <stop offset="0.0" stop-color="#2d45b5"/>
      <stop offset="0.34901960784313724" stop-color="#2e50b4"/>
      <stop offset="0.7372549019607844" stop-color="#1d3270"/>
      <stop offset="1.0" stop-color="#1c306a"/>
    </linearGradient>
    <linearGradient gradientTransform="matrix(-0.005, 0.0072, -0.0071, -0.0049, 43.15, -30.9)" gradientUnits="userSpaceOnUse" id="gradient11" spreadMethod="pad" x1="-819.2" x2="819.2">
      <stop offset="0.0" stop-color="#036f92"/>
      <stop offset="0.1450980392156863" stop-color="#039ed1"/>
      <stop offset="0.2784313725490196" stop-color="#39ccfd"/>
      <stop offset="0.36470588235294116" stop-color="#39ccfd"/>
      <stop offset="0.7137254901960784" stop-color="#0398c9"/>
    </linearGradient>
    <linearGradient gradientTransform="matrix(-2.0E-4, 0.0079, -0.0079, -2.0E-4, 32.9, -32.55)" gradientUnits="userSpaceOnUse" id="gradient12" spreadMethod="pad" x1="-819.2" x2="819.2">
      <stop offset="0.0" stop-color="#036f92"/>
      <stop offset="0.1450980392156863" stop-color="#039ed1"/>
      <stop offset="0.2784313725490196" stop-color="#39ccfd"/>
      <stop offset="0.36470588235294116" stop-color="#39ccfd"/>
      <stop offset="0.6588235294117647" stop-color="#0398c9"/>
    </linearGradient>
    <linearGradient gradientTransform="matrix(0.0016, 0.006, -0.0047, 0.0013, 30.0, -23.0)" gradientUnits="userSpaceOnUse" id="gradient13" spreadMethod="pad" x1="-819.2" x2="819.2">
      <stop offset="0.0196078431372549" stop-color="#989898"/>
      <stop offset="0.16470588235294117" stop-color="#757575"/>
      <stop offset="0.8235294117647058" stop-color="#9f9f9f"/>
      <stop offset="0.9176470588235294" stop-color="#c9cacb"/>
    </linearGradient>
  </defs>
</svg>
