<?xml version="1.0" encoding="UTF-8" standalone="no"?>
<svg xmlns:xlink="http://www.w3.org/1999/xlink" height="144.7px" width="148.85px" xmlns="http://www.w3.org/2000/svg">
  <g transform="matrix(1.0, 0.0, 0.0, 1.0, 72.75, 72.3)">
    <path d="M45.1 -53.1 Q47.9 -51.4 51.0 -50.75 51.55 -46.6 53.8 -42.95 55.3 -40.55 57.15 -38.9 58.1 -38.05 58.55 -33.15 60.5 -31.85 61.9 -31.45 L65.5 -31.35 Q67.95 -26.2 67.4 -22.85 67.05 -20.95 64.6 -17.15 69.5 -12.45 70.05 -11.0 70.35 -10.2 70.2 -7.9 69.95 -4.9 70.25 -2.35 L73.85 -2.45 Q74.7 -1.9 75.25 -0.25 75.9 1.55 75.4 4.6 L74.65 8.0 71.9 10.25 Q69.7 11.95 70.85 14.85 71.1 15.55 69.35 15.55 L64.6 14.85 Q66.45 16.9 66.2 20.05 65.9 22.75 64.6 24.0 66.25 25.2 64.6 30.85 L59.55 36.85 56.1 40.85 Q55.1 42.7 55.4 44.0 L55.9 47.25 Q55.65 47.8 53.4 47.85 50.75 47.9 48.6 46.85 50.35 52.65 48.6 56.3 46.85 56.9 46.35 57.75 L45.35 61.25 Q44.75 60.0 41.75 60.75 38.8 61.45 38.35 62.75 37.75 60.65 35.85 59.9 L31.5 59.75 Q28.7 60.95 27.8 61.75 26.5 62.85 25.65 65.4 22.95 64.25 21.05 64.8 L17.5 65.75 Q18.7 67.3 17.75 69.05 L16.6 70.5 9.6 69.3 Q5.85 69.0 2.25 70.25 3.45 68.45 2.8 66.25 2.25 64.4 0.6 62.85 -4.45 67.4 -6.8 62.85 L-7.15 67.15 Q-7.3 69.05 -7.5 69.15 -10.2 67.75 -10.65 67.6 L-14.75 67.4 Q-15.15 69.0 -15.0 71.9 -16.9 72.05 -20.0 70.25 L-23.35 68.0 Q-24.55 66.95 -24.9 62.85 -26.5 64.05 -28.05 63.85 L-31.4 62.85 Q-35.1 61.3 -35.7 61.25 -36.85 61.15 -38.8 62.85 -38.7 59.3 -41.85 55.95 -44.9 52.75 -47.4 53.15 L-46.35 50.3 Q-46.3 49.55 -47.4 46.85 -49.6 46.2 -50.6 45.65 -51.35 45.2 -52.4 45.0 -55.15 44.45 -59.15 46.5 L-58.45 43.15 Q-58.2 41.6 -58.4 41.0 -59.7 37.4 -63.4 30.85 -62.8 27.9 -63.0 24.0 -63.1 22.3 -64.55 21.0 -65.75 19.9 -66.9 19.75 L-64.1 17.7 Q-62.55 16.5 -63.4 14.85 -62.25 7.65 -63.4 4.0 L-65.25 3.75 Q-66.2 3.4 -65.5 1.5 -66.9 2.15 -68.4 3.05 -69.6 3.75 -69.8 3.95 L-69.8 -1.15 -72.0 -2.2 -72.2 -6.55 Q-72.4 -7.9 -72.0 -8.65 -71.2 -11.3 -69.8 -11.5 -68.15 -11.75 -63.4 -17.15 -61.85 -23.8 -63.4 -25.05 -66.35 -26.7 -63.4 -33.15 L-57.15 -38.4 Q-56.0 -39.35 -55.45 -40.15 L-54.25 -42.0 Q-53.0 -43.9 -47.4 -49.15 -46.7 -53.2 -44.65 -55.6 -42.8 -57.75 -39.1 -59.35 -37.5 -56.35 -31.4 -56.25 L-25.75 -58.0 -22.85 -58.8 Q-21.45 -59.1 -21.55 -65.15 L-17.65 -64.0 Q-16.8 -63.95 -15.4 -65.15 -13.9 -67.95 -10.9 -69.2 -7.65 -70.5 -6.75 -71.8 -4.85 -70.25 -2.7 -69.7 L1.65 -69.25 Q2.1 -69.25 3.45 -70.1 4.8 -70.95 6.2 -70.85 6.9 -68.1 7.9 -67.05 L10.35 -65.15 Q13.65 -67.0 17.25 -66.05 20.5 -65.25 22.9 -62.5 L26.95 -64.75 Q29.85 -65.95 32.6 -65.15 34.55 -60.75 39.2 -58.05 L40.8 -57.25 41.9 -56.15 Q42.3 -54.8 45.1 -53.1" fill="url(#gradient0)" fill-rule="evenodd" stroke="none"/>
    <path d="M45.1 -53.1 Q47.9 -51.4 51.0 -50.75 51.55 -46.6 53.8 -42.95 55.3 -40.55 57.15 -38.9 58.1 -38.05 58.55 -33.15 60.5 -31.85 61.9 -31.45 L65.5 -31.35 Q67.95 -26.2 67.4 -22.85 67.05 -20.95 64.6 -17.15 69.5 -12.45 70.05 -11.0 70.35 -10.2 70.2 -7.9 69.95 -4.9 70.25 -2.35 L73.85 -2.45 Q74.7 -1.9 75.25 -0.25 75.9 1.55 75.4 4.6 L74.65 8.0 71.9 10.25 Q69.7 11.95 70.85 14.85 71.1 15.55 69.35 15.55 L64.6 14.85 Q66.45 16.9 66.2 20.05 65.9 22.75 64.6 24.0 66.25 25.2 64.6 30.85 L59.55 36.85 56.1 40.85 Q55.1 42.7 55.4 44.0 L55.9 47.25 Q55.65 47.8 53.4 47.85 50.75 47.9 48.6 46.85 50.35 52.65 48.6 56.3 46.85 56.9 46.35 57.75 L45.35 61.25 Q44.75 60.0 41.75 60.75 38.8 61.45 38.35 62.75 37.75 60.65 35.85 59.9 L31.5 59.75 Q28.7 60.95 27.8 61.75 26.5 62.85 25.65 65.4 22.95 64.25 21.05 64.8 L17.5 65.75 Q18.7 67.3 17.75 69.05 L16.6 70.5 9.6 69.3 Q5.85 69.0 2.25 70.25 3.45 68.45 2.8 66.25 2.25 64.4 0.6 62.85 -4.45 67.4 -6.8 62.85 L-7.15 67.15 Q-7.3 69.05 -7.5 69.15 -10.2 67.75 -10.65 67.6 L-14.75 67.4 Q-15.15 69.0 -15.0 71.9 -16.9 72.05 -20.0 70.25 L-23.35 68.0 Q-24.55 66.95 -24.9 62.85 -26.5 64.05 -28.05 63.85 L-31.4 62.85 Q-35.1 61.3 -35.7 61.25 -36.85 61.15 -38.8 62.85 -38.7 59.3 -41.85 55.95 -44.9 52.75 -47.4 53.15 L-46.35 50.3 Q-46.3 49.55 -47.4 46.85 -49.6 46.2 -50.6 45.65 -51.35 45.2 -52.4 45.0 -55.15 44.45 -59.15 46.5 L-58.45 43.15 Q-58.2 41.6 -58.4 41.0 -59.7 37.4 -63.4 30.85 -62.8 27.9 -63.0 24.0 -63.1 22.3 -64.55 21.0 -65.75 19.9 -66.9 19.75 L-64.1 17.7 Q-62.55 16.5 -63.4 14.85 -62.25 7.65 -63.4 4.0 L-65.25 3.75 Q-66.2 3.4 -65.5 1.5 -66.9 2.15 -68.4 3.05 -69.6 3.75 -69.8 3.95 L-69.8 -1.15 -72.0 -2.2 -72.2 -6.55 Q-72.4 -7.9 -72.0 -8.65 -71.2 -11.3 -69.8 -11.5 -68.15 -11.75 -63.4 -17.15 -61.85 -23.8 -63.4 -25.05 -66.35 -26.7 -63.4 -33.15 L-57.15 -38.4 Q-56.0 -39.35 -55.45 -40.15 L-54.25 -42.0 Q-53.0 -43.9 -47.4 -49.15 -46.7 -53.2 -44.65 -55.6 -42.8 -57.75 -39.1 -59.35 -37.5 -56.35 -31.4 -56.25 L-25.75 -58.0 -22.85 -58.8 Q-21.45 -59.1 -21.55 -65.15 L-17.65 -64.0 Q-16.8 -63.95 -15.4 -65.15 -13.9 -67.95 -10.9 -69.2 -7.65 -70.5 -6.75 -71.8 -4.85 -70.25 -2.7 -69.7 L1.65 -69.25 Q2.1 -69.25 3.45 -70.1 4.8 -70.95 6.2 -70.85 6.9 -68.1 7.9 -67.05 L10.35 -65.15 Q13.65 -67.0 17.25 -66.05 20.5 -65.25 22.9 -62.5 L26.95 -64.75 Q29.85 -65.95 32.6 -65.15 34.55 -60.75 39.2 -58.05 L40.8 -57.25 41.9 -56.15 Q42.3 -54.8 45.1 -53.1 Z" fill="none" stroke="#ffcc00" stroke-linecap="round" stroke-linejoin="round" stroke-width="1.0"/>
  </g>
  <defs>
    <radialGradient cx="0" cy="0" gradientTransform="matrix(0.0934, 0.0, 0.0, 0.0934, 1.7, 0.05)" gradientUnits="userSpaceOnUse" id="gradient0" r="819.2" spreadMethod="pad">
      <stop offset="0.6941176470588235" stop-color="#ffffff"/>
      <stop offset="0.8941176470588236" stop-color="#fff8d5"/>
    </radialGradient>
  </defs>
</svg>
