<?xml version="1.0" encoding="UTF-8" standalone="no"?>
<svg xmlns:xlink="http://www.w3.org/1999/xlink" height="126.15px" width="95.75px" xmlns="http://www.w3.org/2000/svg">
  <g transform="matrix(1.0, 0.0, 0.0, 1.0, 52.75, 67.0)">
    <path d="M34.0 -67.0 Q35.65 -67.05 36.8 -66.15 37.9 -65.25 38.85 -63.15 L38.9 -63.05 Q39.45 -61.7 39.8 -59.65 L39.8 -59.55 39.85 -56.25 Q43.0 -54.7 43.0 -50.0 L43.0 -34.0 Q43.0 -28.7 39.0 -27.4 L39.0 34.0 39.0 34.15 Q38.85 38.85 36.1 43.15 L36.05 43.2 Q33.05 47.6 27.75 48.7 L27.7 48.7 -27.45 58.95 -27.7 59.0 Q-34.8 59.6 -39.8 57.35 -46.15 54.55 -49.7 47.35 L-49.65 47.35 Q-52.4 41.9 -52.7 35.5 -53.15 26.9 -48.45 20.3 -45.1 15.4 -36.75 11.65 L-36.55 11.55 -29.75 9.05 -29.35 8.95 -28.5 8.5 -28.45 8.45 -27.85 8.15 Q-27.05 7.3 -27.0 6.15 L-27.0 -27.4 Q-31.0 -28.7 -31.0 -34.0 L-31.0 -50.0 Q-31.0 -57.0 -24.0 -57.0 L28.15 -57.0 Q28.05 -58.15 28.25 -59.55 28.5 -61.65 29.1 -63.05 L29.1 -63.15 Q30.0 -65.25 31.2 -66.1 32.3 -66.95 34.0 -67.0" fill="#000000" fill-rule="evenodd" stroke="none"/>
    <path d="M34.0 -64.0 Q35.2 -64.0 36.1 -61.95 36.55 -60.85 36.8 -59.2 37.0 -57.45 36.8 -56.25 L36.1 -53.75 35.2 -52.0 34.35 -52.0 34.3 -52.15 34.3 -52.5 34.95 -54.05 Q35.4 -55.45 35.4 -56.85 35.4 -58.65 34.9 -60.3 L34.5 -61.35 34.0 -61.75 Q33.65 -61.75 33.5 -61.35 L33.1 -60.3 Q32.6 -58.95 32.6 -56.85 32.6 -55.45 33.05 -54.05 L33.65 -52.5 33.65 -52.15 33.6 -52.0 32.75 -52.0 31.85 -53.75 Q31.45 -54.8 31.2 -56.25 31.0 -57.45 31.2 -59.2 31.4 -60.85 31.85 -61.95 32.75 -64.0 34.0 -64.0" fill="#b70f0f" fill-rule="evenodd" stroke="none"/>
    <path d="M-24.0 -28.0 L-24.0 -46.0 36.0 -46.0 36.0 -28.0 -24.0 -28.0" fill="#760a0a" fill-rule="evenodd" stroke="none"/>
    <path d="M36.0 -28.0 L36.0 18.25 36.0 22.45 36.0 34.0 Q35.85 37.95 33.55 41.5 31.25 44.9 27.15 45.75 L-28.0 56.0 Q-34.2 56.55 -38.6 54.6 -43.95 52.2 -47.0 46.0 -49.45 41.1 -49.7 35.35 -50.1 27.8 -46.0 22.0 -42.95 17.7 -35.55 14.35 L-28.75 11.9 Q-28.15 11.75 -26.95 11.05 L-25.75 10.25 Q-24.05 8.55 -24.0 6.15 L-24.0 -28.0 36.0 -28.0" fill="url(#gradient0)" fill-rule="evenodd" stroke="none"/>
    <path d="M-37.15 15.05 Q-36.05 15.7 -34.9 16.6 -26.8 22.8 -23.25 34.0 -19.8 45.3 -23.05 55.0 L-24.2 55.25 -24.0 54.7 Q-20.9 45.3 -24.2 34.3 -27.6 23.4 -35.5 17.4 L-38.2 15.55 -37.15 15.05" fill="url(#gradient1)" fill-rule="evenodd" stroke="none"/>
    <path d="M36.0 -54.0 Q40.0 -54.0 40.0 -50.0 L40.0 -34.0 Q40.0 -30.0 36.0 -30.0 L-24.0 -30.0 Q-28.0 -30.0 -28.0 -34.0 L-28.0 -50.0 Q-28.0 -54.0 -24.0 -54.0 L36.0 -54.0" fill="url(#gradient2)" fill-rule="evenodd" stroke="none"/>
    <path d="M5.95 -27.15 L6.45 -26.65 Q6.9 -28.0 8.05 -29.15 10.1 -31.2 13.0 -31.2 15.9 -31.2 17.95 -29.15 20.0 -27.1 20.0 -24.2 L19.7 -22.0 23.1 -22.4 Q22.4 -20.0 25.2 -18.4 26.25 -17.8 27.65 -17.4 L29.45 -16.95 Q28.7 -16.6 28.5 -15.75 28.15 -14.55 28.8 -12.5 30.0 -9.1 31.55 -8.6 28.85 -7.35 30.25 -4.15 L32.5 -0.55 Q30.5 -0.75 29.3 2.8 28.4 5.4 28.5 6.85 27.4 5.9 24.8 5.0 21.3 3.85 20.2 5.65 L18.7 1.65 Q16.95 -1.35 14.35 0.0 14.9 -1.5 12.9 -4.5 10.8 -7.6 8.95 -6.75 10.05 -9.05 10.3 -11.0 10.7 -14.1 8.4 -15.0 9.55 -16.0 10.75 -17.55 9.25 -18.05 8.05 -19.25 L7.6 -19.75 Q7.1 -18.4 5.95 -17.25 4.7 -16.0 3.1 -15.5 L5.05 -13.4 Q2.75 -12.5 3.15 -9.4 3.4 -7.45 4.5 -5.15 2.65 -6.0 0.55 -2.9 -1.45 0.1 -0.9 1.6 -3.5 0.25 -5.25 3.25 L-6.75 7.25 Q-7.85 5.45 -11.35 6.6 -13.95 7.5 -15.05 8.45 -14.95 7.0 -15.85 4.4 -17.05 0.85 -19.05 1.05 -17.05 -1.95 -16.8 -2.55 -15.4 -5.75 -18.1 -7.0 -16.55 -7.5 -15.35 -10.9 -14.7 -12.95 -15.05 -14.15 -15.25 -15.0 -16.0 -15.35 L-14.2 -15.8 Q-12.8 -16.2 -11.75 -16.8 -8.95 -18.4 -9.65 -20.8 L-5.8 -20.4 -6.0 -22.2 Q-6.0 -25.1 -3.95 -27.15 -1.9 -29.2 1.0 -29.2 3.9 -29.2 5.95 -27.15" fill="#7b0b0b" fill-rule="evenodd" stroke="none"/>
  </g>
  <defs>
    <linearGradient gradientTransform="matrix(0.0, 0.0523, -0.0513, 0.0, -6.9, 14.05)" gradientUnits="userSpaceOnUse" id="gradient0" spreadMethod="pad" x1="-819.2" x2="819.2">
      <stop offset="0.3176470588235294" stop-color="#b70f0f"/>
      <stop offset="1.0" stop-color="#820b0b"/>
    </linearGradient>
    <linearGradient gradientTransform="matrix(0.0023, 0.0293, -0.0512, 0.004, -4.8, 34.0)" gradientUnits="userSpaceOnUse" id="gradient1" spreadMethod="pad" x1="-819.2" x2="819.2">
      <stop offset="0.3176470588235294" stop-color="#880d0d"/>
      <stop offset="1.0" stop-color="#670a0a"/>
    </linearGradient>
    <linearGradient gradientTransform="matrix(0.0415, 0.0, 0.0, 0.0146, 6.0, -42.0)" gradientUnits="userSpaceOnUse" id="gradient2" spreadMethod="pad" x1="-819.2" x2="819.2">
      <stop offset="0.0" stop-color="#dfd9d0"/>
      <stop offset="0.5019607843137255" stop-color="#eae6e1"/>
      <stop offset="1.0" stop-color="#dfd9d0"/>
    </linearGradient>
  </defs>
</svg>
