<?xml version="1.0" encoding="UTF-8" standalone="no"?>
<svg xmlns:xlink="http://www.w3.org/1999/xlink" height="44.85px" width="30.6px" xmlns="http://www.w3.org/2000/svg">
  <g transform="matrix(1.0, 0.0, 0.0, 1.0, 15.3, 0.0)">
    <path d="M0.0 4.0 L0.0 10.0 -8.0 16.0 0.0 10.0 0.0 4.0 M5.55 4.5 Q8.55 6.1 11.0 6.7 8.75 9.15 11.1 12.7 12.55 14.85 15.3 16.95 12.55 17.0 11.9 21.95 11.3 26.7 12.85 28.2 8.9 28.1 8.65 32.8 L9.2 38.4 Q6.85 36.95 3.35 40.45 0.75 43.05 0.0 44.85 -0.75 43.05 -3.35 40.45 -6.85 36.95 -9.2 38.4 -8.55 33.6 -8.6 32.8 -8.9 28.1 -12.85 28.2 -11.3 26.7 -11.9 21.95 -12.3 19.05 -13.4 17.85 -14.15 16.95 -15.3 16.95 L-13.4 15.35 Q-12.0 14.05 -11.1 12.7 -8.75 9.15 -11.0 6.7 -8.55 6.1 -5.55 4.5 -1.8 2.4 0.0 0.0 1.8 2.4 5.55 4.5 M-7.0 26.0 L0.0 20.0 0.0 30.0 -6.0 36.0 0.0 30.0 0.0 20.0 -7.0 26.0 M0.0 40.0 L0.0 30.0 6.0 36.0 0.0 30.0 0.0 40.0 M7.0 26.0 L0.0 20.0 0.0 10.0 8.0 16.0 0.0 10.0 0.0 20.0 7.0 26.0" fill="url(#gradient0)" fill-rule="evenodd" stroke="none"/>
    <path d="M-8.0 16.0 L0.0 10.0 0.0 4.0 M8.0 16.0 L0.0 10.0 0.0 20.0 7.0 26.0 M6.0 36.0 L0.0 30.0 0.0 40.0 M-6.0 36.0 L0.0 30.0 0.0 20.0 -7.0 26.0" fill="none" stroke="url(#gradient1)" stroke-linecap="round" stroke-linejoin="round" stroke-width="1.0"/>
  </g>
  <defs>
    <radialGradient cx="0" cy="0" gradientTransform="matrix(0.022, 0.0, 0.0, 0.0374, 0.0, 12.0)" gradientUnits="userSpaceOnUse" id="gradient0" r="819.2" spreadMethod="pad">
      <stop offset="0.0" stop-color="#238d3d"/>
      <stop offset="0.44313725490196076" stop-color="#238a3c"/>
      <stop offset="1.0" stop-color="#185f29"/>
    </radialGradient>
    <radialGradient cx="0" cy="0" gradientTransform="matrix(0.0195, 0.0, 0.0, 0.037, 0.0, 12.0)" gradientUnits="userSpaceOnUse" id="gradient1" r="819.2" spreadMethod="pad">
      <stop offset="0.0" stop-color="#1d7031"/>
      <stop offset="0.44313725490196076" stop-color="#1f7634"/>
      <stop offset="1.0" stop-color="#12431e"/>
    </radialGradient>
  </defs>
</svg>
