<?xml version="1.0" encoding="UTF-8" standalone="no"?>
<svg xmlns:xlink="http://www.w3.org/1999/xlink" height="16.0px" width="26.0px" xmlns="http://www.w3.org/2000/svg">
  <g transform="matrix(1.0, 0.0, 0.0, 1.0, 7.0, 33.0)">
    <path d="M19.0 -26.0 Q19.0 -23.1 16.95 -21.05 14.9 -19.0 12.0 -19.0 9.1 -19.0 7.05 -21.05 5.0 -23.1 5.0 -26.0 5.0 -28.9 7.05 -30.95 9.1 -33.0 12.0 -33.0 14.9 -33.0 16.95 -30.95 19.0 -28.9 19.0 -26.0" fill="url(#gradient0)" fill-rule="evenodd" stroke="none"/>
    <path d="M7.0 -24.0 Q7.0 -21.1 4.95 -19.05 2.9 -17.0 0.0 -17.0 -2.9 -17.0 -4.95 -19.05 -7.0 -21.1 -7.0 -24.0 -7.0 -26.9 -4.95 -28.95 -2.9 -31.0 0.0 -31.0 2.9 -31.0 4.95 -28.95 7.0 -26.9 7.0 -24.0" fill="url(#gradient1)" fill-rule="evenodd" stroke="none"/>
  </g>
  <defs>
    <radialGradient cx="0" cy="0" gradientTransform="matrix(0.0092, 0.0, 0.0, 0.0092, 12.0, -28.0)" gradientUnits="userSpaceOnUse" id="gradient0" r="819.2" spreadMethod="pad">
      <stop offset="0.0" stop-color="#feebeb"/>
      <stop offset="0.20392156862745098" stop-color="#f24444"/>
      <stop offset="0.7607843137254902" stop-color="#931717"/>
      <stop offset="1.0" stop-color="#871414"/>
    </radialGradient>
    <radialGradient cx="0" cy="0" gradientTransform="matrix(0.0092, 0.0, 0.0, 0.0092, 0.0, -26.0)" gradientUnits="userSpaceOnUse" id="gradient1" r="819.2" spreadMethod="pad">
      <stop offset="0.0" stop-color="#feebeb"/>
      <stop offset="0.20392156862745098" stop-color="#f24444"/>
      <stop offset="0.7607843137254902" stop-color="#931717"/>
      <stop offset="1.0" stop-color="#871414"/>
    </radialGradient>
  </defs>
</svg>
