<?xml version="1.0" encoding="UTF-8" standalone="no"?>
<svg xmlns:xlink="http://www.w3.org/1999/xlink" height="116.0px" width="116.0px" xmlns="http://www.w3.org/2000/svg">
  <g transform="matrix(1.0, 0.0, 0.0, 1.0, 58.0, 58.0)">
    <path d="M58.0 -56.0 L58.0 56.0 Q58.0 56.85 57.45 57.45 56.85 58.0 56.0 58.0 L-56.0 58.0 Q-56.85 58.0 -57.4 57.45 -58.0 56.85 -58.0 56.0 L-58.0 -56.0 Q-58.0 -56.85 -57.4 -57.4 -56.85 -58.0 -56.0 -58.0 L56.0 -58.0 Q56.85 -58.0 57.45 -57.4 58.0 -56.85 58.0 -56.0" fill="#000000" fill-rule="evenodd" stroke="none"/>
    <path d="M56.0 -56.0 L56.0 56.0 -56.0 56.0 -56.0 -56.0 56.0 -56.0" fill="url(#gradient0)" fill-rule="evenodd" stroke="none"/>
    <path d="M-45.65 42.85 L-45.35 43.8 Q-40.5 51.8 -30.1 48.8 -38.85 48.35 -45.65 42.85 M-44.35 49.35 L-46.3 47.4 Q-48.6 45.95 -48.0 49.3 L-44.35 49.35 M-46.45 30.4 L-48.2 27.9 -49.5 35.1 Q-50.4 41.5 -46.6 42.4 -49.3 38.85 -47.65 35.5 L-46.1 39.15 -46.45 30.4 M-23.75 49.05 L-25.1 48.85 -26.45 49.25 -25.0 49.6 Q-23.85 49.55 -23.75 49.05 M-23.8 47.65 Q-23.5 47.55 -23.55 47.2 L-24.05 47.1 -24.3 47.6 -23.8 47.65 M-27.85 45.95 L-27.55 47.5 -25.4 46.65 -23.55 44.05 -22.1 46.6 -17.25 45.25 -20.45 48.05 -15.6 49.05 -7.7 46.3 -6.7 44.05 -5.1 46.1 Q-11.45 50.1 -19.05 50.0 L-16.25 51.25 -51.6 51.2 -51.0 13.55 -49.65 17.8 Q-46.05 26.1 -44.85 34.85 -44.45 38.15 -45.2 41.1 -38.9 47.7 -29.7 47.75 L-27.85 45.95 M-23.6 -47.9 L-24.1 -47.85 Q-24.2 -47.55 -23.9 -47.4 -23.6 -47.3 -23.4 -47.5 -23.35 -47.8 -23.6 -47.9 M-49.3 -23.6 L-49.9 -20.4 -48.9 -21.8 -49.3 -23.6 M-48.1 -48.95 L-47.1 -46.75 -44.15 -49.6 -48.1 -48.95 M-45.4 -45.0 L-46.15 -44.25 -29.8 -48.95 Q-38.7 -50.8 -45.4 -45.0 M-41.2 -50.05 L-41.5 -49.85 Q-39.5 -49.5 -41.2 -50.05 M-24.65 -49.85 L-26.3 -49.7 -26.3 -49.45 -24.9 -49.15 -23.55 -49.25 Q-23.6 -49.85 -24.65 -49.85 M-16.3 -51.1 L-18.75 -50.6 -4.75 -46.2 -6.7 -44.35 -7.65 -46.65 -15.3 -49.35 -20.25 -48.4 -17.05 -45.5 -22.3 -46.75 -22.35 -45.35 -23.8 -44.3 -25.55 -47.2 -27.3 -47.85 -27.65 -46.2 -29.8 -47.95 Q-33.55 -47.7 -36.9 -46.45 -40.3 -45.25 -43.3 -43.0 L-44.75 -41.9 -45.45 -37.8 -45.8 -39.15 -47.55 -35.8 -47.0 -43.5 Q-52.45 -35.8 -47.6 -28.35 L-45.75 -36.15 -49.55 -14.9 -51.5 -13.7 -51.4 -51.35 -16.3 -51.1 M45.15 42.85 Q38.55 48.15 29.6 48.7 32.9 50.25 36.65 49.95 44.65 48.7 45.15 42.85 M23.4 47.65 L24.0 47.6 23.75 47.1 23.2 47.2 Q23.15 47.55 23.4 47.65 M1.4 47.6 Q2.3 48.75 3.5 48.9 7.8 49.45 10.2 51.3 L-10.2 50.8 Q-4.45 50.75 -2.05 47.1 L-3.7 45.45 -0.9 41.25 Q2.7 42.05 3.0 45.9 L1.4 47.6 M48.15 45.45 Q50.9 44.6 48.2 45.2 L48.15 45.45 M47.8 49.1 L46.9 46.5 44.0 49.35 47.8 49.1 M49.25 15.15 L51.15 13.4 51.3 51.1 15.85 50.95 18.65 50.4 Q14.95 50.35 11.55 49.2 7.85 48.05 4.55 45.95 L6.6 44.15 7.85 46.8 15.1 49.05 20.05 48.15 16.9 45.25 22.5 46.55 22.25 45.05 23.65 44.1 25.45 47.0 27.25 47.3 27.35 46.85 27.55 46.45 27.85 46.2 29.35 47.05 35.6 46.5 Q41.0 45.15 44.85 41.2 L45.25 36.15 45.9 39.15 47.35 35.5 46.6 43.0 Q49.35 39.85 49.6 35.7 49.9 31.45 47.65 27.9 L45.9 31.25 49.25 15.15 M44.15 -49.45 L47.15 -46.75 47.45 -49.7 44.15 -49.45 M38.95 -48.55 L30.15 -49.2 46.05 -43.65 Q44.0 -48.05 38.95 -48.55 M23.4 -47.5 Q23.6 -47.3 23.9 -47.4 24.2 -47.55 24.15 -47.85 L23.6 -47.9 Q23.35 -47.8 23.4 -47.5 M23.55 -49.25 L24.95 -49.15 26.3 -49.5 Q25.95 -49.9 24.75 -49.85 23.55 -49.85 23.55 -49.25 M18.85 -50.55 L15.85 -51.35 51.5 -51.35 51.5 -13.7 49.5 -15.25 45.75 -32.45 47.9 -28.15 Q49.5 -31.7 49.85 -35.3 50.4 -41.0 46.55 -42.3 L47.65 -40.5 Q48.4 -38.95 48.0 -37.35 L47.45 -35.8 45.85 -39.0 45.35 -35.55 45.0 -41.35 Q37.7 -49.1 27.45 -46.55 L26.65 -47.7 24.9 -45.1 23.1 -44.35 21.75 -47.0 17.05 -45.5 20.0 -48.55 15.0 -49.3 7.5 -46.55 6.8 -44.35 4.9 -45.35 6.2 -47.45 18.85 -50.55 M10.35 -51.1 L8.95 -50.85 Q4.1 -51.4 1.95 -47.3 L3.55 -45.7 -0.1 -41.35 -3.35 -45.85 -2.1 -48.6 -10.5 -51.5 10.35 -51.1" fill="url(#gradient1)" fill-rule="evenodd" stroke="none"/>
    <path d="M15.85 -11.95 L18.95 -3.05 28.4 -2.8 20.9 2.95 23.6 11.95 15.85 6.6 8.05 11.95 10.75 2.95 3.25 -2.8 12.7 -3.05 15.85 -11.95 M-15.95 -11.95 L-12.85 -3.05 -3.4 -2.8 -10.9 2.95 -8.2 11.95 -15.95 6.6 -23.75 11.95 -21.05 2.95 -28.55 -2.8 -19.1 -3.05 -15.95 -11.95" fill="url(#gradient2)" fill-rule="evenodd" stroke="none"/>
    <path d="M-19.85 25.95 L-18.4 24.9 -18.8 31.0 -20.65 30.4 -19.85 25.95 M-15.55 27.55 L-16.75 28.95 -15.65 29.9 Q-16.1 30.4 -16.65 30.55 -17.05 30.75 -17.3 30.25 L-16.5 25.85 -15.55 27.55 M-14.05 26.6 L-14.05 30.8 -15.2 30.8 -15.25 27.15 Q-15.35 25.3 -14.05 26.6 M-13.6 25.3 L-12.1 25.3 -12.1 30.8 -13.6 30.8 -13.6 25.3 M-6.2 29.5 L-5.75 26.25 -4.75 28.35 -5.15 31.1 Q-5.65 28.9 -6.6 31.05 L-7.65 26.4 -6.5 26.05 -6.2 29.5 M-3.15 30.05 Q-3.9 25.85 -1.9 26.8 -0.15 25.4 -0.35 28.8 L-3.0 31.8 Q-3.0 30.9 -3.15 30.05 M-27.05 27.9 L-27.1 27.95 Q-27.4 31.1 -27.05 27.9 M-28.5 29.35 L-27.8 27.1 -27.0 25.9 -25.9 26.65 -25.65 30.2 Q-27.65 31.5 -28.5 29.35 M-25.3 27.6 L-24.0 25.95 Q-23.55 26.45 -23.45 27.0 -23.4 27.3 -23.65 27.7 L-23.95 29.45 -25.3 27.6 M-22.5 30.8 L-22.25 25.2 -21.35 30.8 -22.5 30.8 M-21.1 21.4 L-21.9 16.5 -19.85 18.2 -21.1 21.4 M-27.5 21.1 L-28.7 21.1 -27.45 16.85 -26.4 20.7 -27.35 17.55 -27.5 21.1 M-24.25 15.75 L-23.0 15.2 -23.4 21.3 -25.25 20.7 -24.25 15.75 M-9.3 16.05 L-9.05 21.1 -10.2 21.1 -9.3 16.05 M-7.5 15.25 Q-7.25 15.25 -7.05 15.4 -6.9 15.5 -6.9 15.7 L-7.05 16.05 -7.5 16.15 -7.9 16.05 -8.1 15.7 -7.9 15.4 -7.5 15.25 M-2.75 16.7 L-1.6 16.35 -1.3 19.8 -0.85 16.55 0.1 18.6 -0.25 21.4 Q-0.85 19.25 -1.7 21.35 L-2.75 16.7 M-18.25 17.0 L-18.0 17.65 -18.15 21.1 -19.35 21.1 -18.25 17.0 M-14.85 18.2 L-14.9 18.25 Q-15.2 21.4 -14.85 18.2 M-14.8 16.2 L-13.7 16.95 -14.25 20.75 -16.3 19.65 -14.8 16.2 M-11.8 16.25 L-10.9 17.25 -11.65 19.95 -12.9 17.4 -11.8 16.25 M-10.85 -15.7 Q-10.95 -16.65 -9.4 -16.65 L-9.4 -10.8 -10.55 -10.8 Q-10.55 -13.3 -10.85 -15.7 M-5.5 -10.5 L-5.95 -11.25 Q-7.65 -16.05 -5.4 -15.15 -3.1 -14.05 -5.5 -10.5 M-19.55 -14.0 Q-18.2 -16.95 -17.85 -14.7 L-17.2 -12.3 -18.5 -10.7 -18.05 -11.9 -19.55 -14.0 M-15.3 -15.15 L-16.05 -13.2 Q-14.15 -10.7 -16.25 -11.15 L-16.6 -11.8 Q-17.5 -15.3 -15.3 -15.15 M-16.75 -20.4 L-16.3 -21.6 Q-18.9 -23.6 -16.75 -25.3 L-15.45 -22.0 -16.75 -20.4 M-11.3 -20.3 L-13.15 -20.9 -12.05 -25.35 Q-11.1 -23.05 -11.3 -20.3 M-13.85 -20.5 L-15.0 -20.5 -14.75 -26.15 -13.85 -20.5 M-2.7 -15.95 L-2.4 -15.25 -2.4 -10.45 -2.65 -14.25 -3.8 -10.8 -2.7 -15.95 M-8.95 -16.3 L-7.45 -16.3 -7.45 -10.8 -8.95 -10.8 -8.95 -16.3 M-3.25 -20.5 L-4.4 -20.5 -4.65 -23.75 -4.65 -20.5 -5.85 -20.5 -5.95 -24.05 -6.1 -20.5 -7.25 -20.5 Q-8.35 -25.45 -6.15 -24.6 L-4.05 -25.3 -3.25 -24.4 -3.25 -20.5 M-1.1 -24.4 L-0.5 -22.0 -1.8 -20.4 -1.35 -21.6 -2.85 -23.7 Q-1.75 -26.4 -1.1 -24.4 M-20.8 -10.7 Q-21.3 -13.45 -22.2 -10.85 L-22.7 -16.15 -19.95 -14.8 -20.8 -10.7 M-24.15 -15.65 L-24.0 -14.2 -23.1 -12.3 -24.4 -10.7 -23.95 -11.9 -25.45 -14.0 -24.15 -15.65 M-25.75 -20.5 L-26.9 -20.5 -26.65 -26.1 -25.75 -20.5 M-28.65 -20.4 L-28.2 -21.6 -29.7 -23.7 -28.4 -25.35 -28.25 -23.9 -27.35 -22.0 -28.65 -20.4 M-23.2 -24.55 Q-22.85 -23.8 -22.85 -22.75 -22.85 -21.7 -23.2 -20.95 -23.6 -20.2 -24.15 -20.2 -24.7 -20.2 -25.05 -20.95 -25.45 -21.7 -25.45 -22.75 -25.45 -23.8 -25.05 -24.55 -24.7 -25.3 -24.15 -25.3 -23.6 -25.3 -23.2 -24.55 M-31.75 -25.35 L-30.3 -26.4 -30.7 -20.3 -32.55 -20.9 -31.75 -25.35 M-35.5 -25.05 L-33.65 -24.9 -34.45 -20.2 -35.5 -25.05 M-23.05 -38.2 Q-24.25 -40.1 -21.4 -39.65 L-21.0 -31.65 -22.05 -30.5 -23.05 -31.7 -24.35 -30.9 -24.6 -31.45 -25.0 -33.65 Q-25.35 -37.2 -23.05 -38.2 M-18.2 -39.6 L-18.2 -30.8 -20.4 -30.8 -20.4 -39.6 -18.2 -39.6 M-9.8 -25.15 L-8.2 -25.15 -9.0 -20.2 -9.8 -25.15 M-12.0 -30.9 Q-12.8 -32.3 -12.95 -33.65 -13.15 -35.7 -11.75 -37.6 L-9.05 -39.65 -8.65 -31.65 -9.7 -30.5 -10.7 -31.7 -12.0 -30.9 M-19.9 -25.15 L-18.55 -24.9 -19.35 -20.2 -19.9 -25.15 M-16.85 -37.3 L-13.9 -37.3 -13.9 -30.9 -16.85 -30.9 -16.85 -37.3 M-8.0 -38.65 L-6.25 -39.65 -6.25 -37.05 -5.2 -37.8 Q-3.65 -36.0 -4.05 -33.75 -4.35 -31.8 -6.0 -30.55 L-8.0 -31.65 -8.0 -38.65 M28.95 40.2 L28.95 34.7 30.45 34.7 30.45 40.2 28.95 40.2 M27.3 35.45 L28.6 36.95 28.35 39.25 27.3 35.45 M22.9 35.3 Q23.4 35.3 23.8 36.05 24.15 36.8 24.15 37.85 24.15 38.9 23.8 39.65 23.4 40.4 22.9 40.4 22.4 40.4 22.05 39.65 21.65 38.9 21.65 37.85 21.65 36.8 22.05 36.05 22.4 35.3 22.9 35.3 M20.5 30.8 L20.3 26.6 21.65 30.8 20.5 30.8 M23.4 30.8 L22.2 30.8 23.55 27.3 23.4 30.8 M27.85 28.55 Q27.85 29.6 27.5 30.35 27.1 31.1 26.55 31.1 26.0 31.1 25.65 30.35 25.25 29.6 25.25 28.55 25.25 27.5 25.65 26.75 26.0 26.0 26.55 26.0 27.1 26.0 27.5 26.75 27.85 27.5 27.85 28.55 M11.3 40.2 L9.55 40.2 9.55 35.85 11.3 35.85 11.3 40.2 M5.35 37.35 L5.3 37.55 Q5.3 40.4 5.35 37.35 M8.6 40.2 L7.45 40.2 7.45 35.7 8.6 40.2 M5.5 35.3 L6.6 36.05 6.85 39.6 5.85 40.0 Q4.6 40.3 4.0 38.75 L4.7 36.5 5.5 35.3 M0.35 30.4 L1.45 25.65 Q0.75 24.35 2.6 24.9 L2.2 31.0 0.35 30.4 M8.35 26.6 L9.9 28.8 7.25 31.8 7.1 30.05 Q6.3 26.05 8.35 26.6 M18.75 34.95 L19.9 34.3 21.45 38.25 20.3 40.25 18.75 39.65 18.75 34.95 M16.15 35.35 L17.8 35.8 18.25 38.2 15.6 41.2 16.15 35.35 M12.2 34.95 L14.0 35.5 13.65 40.55 13.4 36.75 12.25 40.2 12.2 34.95 M10.35 25.3 L11.85 25.3 11.85 30.8 10.35 30.8 10.35 25.3 M13.7 25.9 Q14.2 25.9 14.6 26.65 14.95 27.4 14.95 28.45 14.95 29.5 14.6 30.25 14.2 31.0 13.7 31.0 13.2 31.0 12.85 30.25 12.45 29.5 12.45 28.45 12.45 27.4 12.85 26.65 13.2 25.9 13.7 25.9 M19.6 26.45 L19.6 30.8 17.85 30.8 17.85 26.45 19.6 26.45 M16.35 30.5 L15.75 26.55 Q17.3 25.3 17.0 27.5 L16.3 28.95 Q18.25 29.95 16.35 30.5 M11.3 16.7 L12.45 16.35 12.75 19.8 13.2 16.55 14.5 19.35 14.5 19.05 Q13.75 15.15 15.3 17.9 L13.8 21.4 Q13.25 19.25 12.35 21.35 L11.3 16.7 M17.0 16.15 L17.95 17.85 16.75 19.25 Q18.7 20.25 16.85 20.9 L16.75 20.95 16.65 18.15 17.0 16.15 M18.3 15.6 L19.8 15.6 19.8 21.1 18.3 21.1 18.3 15.6 M1.75 15.6 L3.25 15.6 3.25 21.1 1.75 21.1 1.75 15.6 M6.35 18.15 L6.75 18.5 7.05 18.9 6.35 19.7 6.0 19.35 5.65 19.0 6.35 18.15 M29.25 21.1 L29.25 15.6 30.75 15.6 30.75 21.1 29.25 21.1 M20.6 15.4 L21.6 15.4 21.6 16.1 20.6 16.1 20.6 15.4 M20.45 17.0 L20.75 16.5 Q23.9 19.6 21.0 22.15 L20.45 17.0 M26.2 15.4 L27.7 17.55 Q29.85 16.85 28.3 21.0 L28.15 21.05 27.8 21.0 26.2 15.4 M0.55 -26.25 L1.1 -20.5 -0.05 -20.5 0.55 -26.25 M21.5 -16.45 L22.9 -16.7 22.5 -10.6 20.65 -11.2 21.5 -16.45 M23.0 -24.55 Q23.35 -23.8 23.35 -22.75 23.35 -21.7 23.0 -20.95 22.6 -20.2 22.05 -20.2 21.5 -20.2 21.15 -20.95 20.75 -21.7 20.75 -22.75 20.75 -23.8 21.15 -24.55 21.5 -25.3 22.05 -25.3 22.6 -25.3 23.0 -24.55 M29.3 -20.4 L29.75 -21.6 28.25 -23.7 29.55 -25.35 29.7 -23.9 30.6 -22.0 29.3 -20.4 M32.2 -20.5 L31.05 -20.5 31.3 -26.15 32.2 -20.5 M12.5 -10.6 L10.65 -11.2 12.9 -16.7 12.5 -10.6 M5.7 -15.65 L5.85 -14.2 6.75 -12.3 5.45 -10.7 5.9 -11.9 4.4 -14.0 5.7 -15.65 M8.6 -15.0 Q10.15 -16.15 9.75 -14.35 L9.9 -11.55 Q9.3 -9.9 8.7 -11.4 8.6 -13.9 7.25 -10.8 L8.0 -16.6 8.6 -15.0 M2.55 -16.15 L3.8 -16.7 3.4 -10.6 1.55 -11.2 2.55 -16.15 M9.5 -22.0 L8.2 -20.4 8.65 -21.6 7.15 -23.7 8.8 -24.5 9.5 -22.0 M17.35 -16.55 L19.9 -14.85 20.25 -12.1 19.05 -10.8 Q18.7 -13.0 17.55 -11.4 L17.35 -16.55 M13.7 -20.4 L14.15 -21.6 Q11.7 -23.4 13.85 -25.3 L15.0 -22.0 13.7 -20.4 M12.0 -24.55 Q12.35 -23.8 12.35 -22.75 12.35 -21.7 12.0 -20.95 11.6 -20.2 11.05 -20.2 10.5 -20.2 10.15 -20.95 9.75 -21.7 9.75 -22.75 9.75 -23.8 10.15 -24.55 10.5 -25.3 11.05 -25.3 11.6 -25.3 12.0 -24.55 M19.2 -20.4 L19.65 -21.6 18.15 -23.7 Q19.7 -26.3 19.85 -24.4 L20.5 -22.0 19.2 -20.4 M15.25 -22.75 Q15.25 -23.8 15.65 -24.55 16.0 -25.3 16.55 -25.3 17.1 -25.3 17.5 -24.55 17.85 -23.8 17.85 -22.75 17.85 -21.7 17.5 -20.95 17.1 -20.2 16.55 -20.2 16.0 -20.2 15.65 -20.95 15.25 -21.7 15.25 -22.75 M7.9 -36.55 L6.85 -35.45 6.0 -36.25 8.1 -33.05 6.1 -30.6 4.5 -32.35 5.55 -33.4 6.75 -32.3 4.65 -36.0 6.55 -38.1 7.9 -36.55 M0.65 -37.3 L3.6 -37.3 3.6 -30.9 0.65 -30.9 0.65 -37.3 M10.3 -38.1 L12.45 -39.65 12.85 -31.65 11.8 -30.5 10.8 -31.7 9.5 -30.9 9.2 -31.45 Q7.35 -35.25 10.3 -38.1 M15.95 -37.25 L16.95 -37.6 17.55 -31.95 16.3 -30.65 15.3 -33.5 15.2 -30.8 13.55 -30.8 14.25 -39.4 Q15.0 -37.6 15.95 -37.25 M32.8 -25.05 L34.65 -24.9 33.85 -20.2 32.8 -25.05 M24.1 -25.3 L27.05 -25.3 27.85 -24.4 27.85 -20.5 26.7 -20.5 26.65 -23.95 26.45 -20.5 25.25 -20.5 25.15 -24.05 25.0 -20.5 23.85 -20.5 24.1 -25.3" fill="#bebab8" fill-rule="evenodd" stroke="none"/>
    <path d="M40.75 34.7 Q40.0 35.2 40.0 35.4 L40.1 36.1 40.3 36.85 40.85 37.25 Q41.25 37.45 41.25 37.8 L40.8 38.55 39.85 38.8 Q39.9 39.4 39.2 39.8 L38.95 39.9 39.05 40.0 39.15 40.7 Q39.15 41.15 38.8 41.4 L38.6 41.55 38.2 41.5 38.15 41.5 37.4 41.05 37.2 40.65 36.0 40.8 Q35.45 40.8 35.05 40.25 L34.55 39.55 33.15 38.8 Q32.75 38.5 32.75 38.0 L32.95 37.55 33.15 37.15 32.9 35.45 Q32.9 34.45 33.75 33.3 34.65 32.05 35.55 32.05 L37.15 32.2 37.85 32.8 38.35 33.35 39.2 33.0 40.35 32.6 Q40.95 32.6 41.5 33.85 L40.75 34.7 M37.2 40.65 L38.1 40.4 38.5 40.15 38.95 39.9 38.2 39.75 Q37.15 39.75 37.15 40.4 L37.2 40.65" fill="url(#gradient3)" fill-rule="evenodd" stroke="none"/>
  </g>
  <defs>
    <linearGradient gradientTransform="matrix(0.0, -0.0684, 0.0684, 0.0, 0.0, 0.0)" gradientUnits="userSpaceOnUse" id="gradient0" spreadMethod="pad" x1="-819.2" x2="819.2">
      <stop offset="0.0" stop-color="#554040"/>
      <stop offset="0.13725490196078433" stop-color="#3f3c32"/>
      <stop offset="0.29411764705882354" stop-color="#403c31"/>
      <stop offset="1.0" stop-color="#757166"/>
    </linearGradient>
    <linearGradient gradientTransform="matrix(0.0, -0.0683, 0.023, 0.0, -39.1, 0.0)" gradientUnits="userSpaceOnUse" id="gradient1" spreadMethod="pad" x1="-819.2" x2="819.2">
      <stop offset="0.0" stop-color="#736978"/>
      <stop offset="0.24705882352941178" stop-color="#625a4f"/>
      <stop offset="0.7803921568627451" stop-color="#a49b8c"/>
    </linearGradient>
    <linearGradient gradientTransform="matrix(1.0E-4, -0.0154, 0.0146, 1.0E-4, -16.0, 0.0)" gradientUnits="userSpaceOnUse" id="gradient2" spreadMethod="pad" x1="-819.2" x2="819.2">
      <stop offset="0.0" stop-color="#a4811c"/>
      <stop offset="1.0" stop-color="#f3cf27"/>
    </linearGradient>
    <linearGradient gradientTransform="matrix(0.0, -0.007, 0.0053, 0.0, 37.15, 36.75)" gradientUnits="userSpaceOnUse" id="gradient3" spreadMethod="pad" x1="-819.2" x2="819.2">
      <stop offset="0.0" stop-color="#8d1414"/>
      <stop offset="1.0" stop-color="#db4041"/>
    </linearGradient>
  </defs>
</svg>
