<?xml version="1.0" encoding="UTF-8" standalone="no"?>
<svg xmlns:xlink="http://www.w3.org/1999/xlink" height="114.4px" width="74.9px" xmlns="http://www.w3.org/2000/svg">
  <g transform="matrix(1.0, 0.0, 0.0, 1.0, 37.45, 57.9)">
    <path d="M13.55 -57.85 Q15.4 -58.15 16.9 -56.65 25.55 -46.75 28.15 -29.65 29.3 -22.3 29.2 -14.3 32.75 -15.7 35.1 -13.25 37.25 -11.05 37.45 -6.75 37.6 -2.05 36.35 1.8 35.45 4.7 32.5 8.5 30.75 10.8 30.45 12.3 L30.4 12.6 30.35 16.9 Q30.15 26.65 23.95 26.9 L21.3 26.85 18.0 34.45 Q10.8 49.35 1.45 56.05 0.8 56.5 0.0 56.5 -0.8 56.5 -1.45 56.05 -10.8 49.35 -18.0 34.45 L-21.3 26.85 -23.95 26.9 Q-30.15 26.65 -30.35 16.9 L-30.4 12.6 -30.45 12.3 Q-30.75 10.8 -32.5 8.5 -35.45 4.7 -36.35 1.8 -37.6 -2.05 -37.45 -6.75 -37.25 -11.05 -35.1 -13.25 -32.75 -15.7 -29.2 -14.3 -29.3 -22.3 -28.15 -29.65 -25.55 -46.75 -16.9 -56.65 -15.4 -58.15 -13.55 -57.85 -11.8 -57.6 -11.0 -55.75 -10.2 -53.85 -10.5 -51.75 -13.2 -21.7 0.0 -12.0 13.2 -21.7 10.5 -51.75 10.2 -53.85 11.0 -55.75 11.8 -57.6 13.55 -57.85" fill="#000000" fill-rule="evenodd" stroke="none"/>
    <path d="M-32.0 -12.0 Q-29.55 -12.75 -26.0 -8.0 L-20.0 23.0 Q-21.15 24.75 -23.65 24.4 -26.2 24.1 -27.0 22.0 -27.75 20.05 -27.85 16.85 L-28.0 12.0 Q-28.25 9.95 -30.55 6.95 -33.15 3.6 -34.0 1.0 -35.25 -2.85 -34.95 -6.6 -34.65 -11.2 -32.0 -12.0" fill="url(#gradient0)" fill-rule="evenodd" stroke="none"/>
    <path d="M32.0 -12.0 Q34.65 -11.2 34.95 -6.6 35.25 -2.85 34.0 1.0 33.15 3.6 30.55 6.95 28.25 9.95 28.0 12.0 L27.85 16.85 Q27.75 20.05 27.0 22.0 26.2 24.1 23.65 24.4 21.15 24.75 20.0 23.0 L26.0 -8.0 Q29.55 -12.75 32.0 -12.0" fill="url(#gradient1)" fill-rule="evenodd" stroke="none"/>
    <path d="M13.25 -54.7 Q13.85 -55.9 15.05 -55.0 23.25 -45.55 25.75 -29.3 28.05 -14.45 25.2 2.85 22.45 19.6 15.8 33.35 8.85 47.6 0.0 54.0 -8.85 47.6 -15.75 33.35 -22.4 19.6 -25.15 2.85 -28.0 -14.45 -25.7 -29.3 -23.2 -45.55 -15.0 -55.0 -13.8 -55.9 -13.25 -54.7 -12.75 -53.65 -13.0 -52.0 -15.95 -18.55 0.0 -9.0 16.0 -18.55 13.0 -52.0 12.75 -53.65 13.25 -54.7" fill="url(#gradient2)" fill-rule="evenodd" stroke="none"/>
    <path d="M13.0 -52.0 Q12.75 -53.65 13.25 -54.7 13.85 -55.9 15.05 -55.0 20.6 -48.6 23.55 -39.15 20.75 -25.55 8.8 -18.45 14.95 -30.1 13.0 -52.0" fill="url(#gradient3)" fill-rule="evenodd" stroke="none"/>
    <path d="M-13.25 -54.7 Q-12.75 -53.65 -13.0 -52.0 -14.95 -30.1 -8.75 -18.45 -20.7 -25.5 -23.5 -39.05 -20.55 -48.6 -15.0 -55.0 -13.8 -55.9 -13.25 -54.7" fill="url(#gradient4)" fill-rule="evenodd" stroke="none"/>
    <path d="M3.4 51.2 L0.0 54.0 -3.35 51.2 -5.0 39.0 5.0 39.0 3.4 51.2" fill="url(#gradient5)" fill-rule="evenodd" stroke="none"/>
    <path d="M0.0 -9.0 Q-6.3 -9.45 -13.7 -13.45 -19.95 -16.85 -26.45 -22.5 L-25.7 -29.3 Q-24.9 -34.5 -23.5 -39.05 -20.7 -25.5 -8.75 -18.45 -5.5 -12.3 0.0 -9.0" fill="url(#gradient6)" fill-rule="evenodd" stroke="none"/>
    <path d="M0.0 -9.0 Q5.55 -12.3 8.8 -18.45 20.75 -25.55 23.55 -39.15 24.95 -34.6 25.75 -29.3 L26.55 -22.55 Q19.95 -16.85 13.7 -13.45 6.3 -9.45 0.0 -9.0" fill="url(#gradient7)" fill-rule="evenodd" stroke="none"/>
    <path d="M7.35 38.4 Q2.8 41.0 0.0 41.0 -2.8 41.0 -7.35 38.4 -12.4 35.45 -16.95 30.7 -9.0 33.75 0.0 34.0 8.95 33.75 16.9 30.7 12.35 35.45 7.35 38.4" fill="url(#gradient8)" fill-rule="evenodd" stroke="none"/>
    <path d="M11.0 32.05 L17.2 30.25 17.0 30.6 Q13.15 32.85 8.05 34.05 3.9 35.0 0.0 35.0 L-0.05 35.0 Q-3.9 35.0 -8.1 34.0 -13.15 32.85 -17.0 30.6 L-17.2 30.25 -11.0 32.0 -5.45 31.5 0.0 31.0 5.45 31.5 11.0 32.05" fill="url(#gradient9)" fill-rule="evenodd" stroke="none"/>
    <path d="M-20.05 12.3 Q-20.55 12.8 -21.25 12.8 -21.95 12.8 -22.45 12.3 -22.95 11.8 -22.95 11.1 -22.95 10.4 -22.45 9.9 -21.95 9.4 -21.25 9.4 -20.55 9.4 -20.05 9.9 -19.55 10.4 -19.55 11.1 -19.55 11.8 -20.05 12.3" fill="url(#gradient10)" fill-rule="evenodd" stroke="none"/>
    <path d="M-6.0 15.05 Q-6.5 15.55 -7.2 15.55 -7.9 15.55 -8.4 15.05 -8.9 14.55 -8.9 13.85 -8.9 13.15 -8.4 12.65 -7.9 12.15 -7.2 12.15 -6.5 12.15 -6.0 12.65 -5.5 13.15 -5.5 13.85 -5.5 14.55 -6.0 15.05" fill="url(#gradient11)" fill-rule="evenodd" stroke="none"/>
    <path d="M-11.05 13.4 Q-10.55 13.9 -10.55 14.6 -10.55 15.3 -11.05 15.8 -11.55 16.3 -12.25 16.3 -12.95 16.3 -13.45 15.8 -13.95 15.3 -13.95 14.6 -13.95 13.9 -13.45 13.4 -12.95 12.9 -12.25 12.9 -11.55 12.9 -11.05 13.4" fill="url(#gradient12)" fill-rule="evenodd" stroke="none"/>
    <path d="M-16.05 14.85 Q-16.55 15.35 -17.25 15.35 -17.95 15.35 -18.45 14.85 -18.95 14.35 -18.95 13.65 -18.95 12.95 -18.45 12.45 -17.95 11.95 -17.25 11.95 -16.55 11.95 -16.05 12.45 -15.55 12.95 -15.55 13.65 -15.55 14.35 -16.05 14.85" fill="url(#gradient13)" fill-rule="evenodd" stroke="none"/>
    <path d="M22.4 12.3 Q21.9 12.8 21.2 12.8 20.5 12.8 20.0 12.3 19.5 11.8 19.5 11.1 19.5 10.4 20.0 9.9 20.5 9.4 21.2 9.4 21.9 9.4 22.4 9.9 22.9 10.4 22.9 11.1 22.9 11.8 22.4 12.3" fill="url(#gradient14)" fill-rule="evenodd" stroke="none"/>
    <path d="M7.2 15.55 Q6.5 15.55 6.0 15.05 5.5 14.55 5.5 13.85 5.5 13.15 6.0 12.65 6.5 12.15 7.2 12.15 7.9 12.15 8.4 12.65 8.9 13.15 8.9 13.85 8.9 14.55 8.4 15.05 7.9 15.55 7.2 15.55" fill="url(#gradient15)" fill-rule="evenodd" stroke="none"/>
    <path d="M18.9 13.65 Q18.9 14.35 18.4 14.85 17.9 15.35 17.2 15.35 16.5 15.35 16.0 14.85 15.5 14.35 15.5 13.65 15.5 12.95 16.0 12.45 16.5 11.95 17.2 11.95 17.9 11.95 18.4 12.45 18.9 12.95 18.9 13.65" fill="url(#gradient16)" fill-rule="evenodd" stroke="none"/>
    <path d="M11.05 15.8 Q10.55 15.3 10.55 14.6 10.55 13.9 11.05 13.4 11.5 12.9 12.2 12.9 12.9 12.9 13.4 13.4 13.9 13.9 13.9 14.6 13.9 15.3 13.4 15.8 12.9 16.3 12.2 16.3 11.5 16.3 11.05 15.8" fill="url(#gradient17)" fill-rule="evenodd" stroke="none"/>
    <path d="M15.3 10.65 Q9.55 11.75 3.0 10.0 10.25 2.1 25.0 2.0 23.25 9.05 15.3 10.65" fill="url(#gradient18)" fill-rule="evenodd" stroke="none"/>
    <path d="M-15.3 10.65 Q-23.25 9.05 -25.0 2.0 -10.25 2.1 -3.0 10.0 -9.55 11.75 -15.3 10.65" fill="url(#gradient19)" fill-rule="evenodd" stroke="none"/>
    <path d="M5.0 26.0 Q4.45 27.55 2.8 28.8 1.2 30.0 0.0 30.0 -1.2 30.0 -2.8 28.8 -4.45 27.55 -5.0 26.0 -4.35 18.9 -2.0 9.0 L0.0 7.0 2.0 9.0 Q4.35 18.9 5.0 26.0" fill="url(#gradient20)" fill-rule="evenodd" stroke="none"/>
    <path d="M25.0 2.0 Q11.5 4.6 3.0 10.0 6.5 3.75 13.2 1.55 19.5 -0.5 25.0 2.0" fill="url(#gradient21)" fill-rule="evenodd" stroke="none"/>
    <path d="M-3.0 10.0 Q-11.5 4.6 -25.0 2.0 -19.5 -0.5 -13.2 1.55 -6.5 3.75 -3.0 10.0" fill="url(#gradient22)" fill-rule="evenodd" stroke="none"/>
    <path d="M0.0 -9.0 Q6.3 -9.45 13.7 -13.45 19.95 -16.85 26.55 -22.55 27.4 -10.95 25.35 2.05 L24.95 2.05 25.0 2.0 Q22.05 0.65 18.7 0.8 8.05 1.1 3.0 10.0 1.35 11.0 0.0 11.0 L0.0 -9.0" fill="url(#gradient23)" fill-rule="evenodd" stroke="none"/>
    <path d="M0.0 -9.0 L0.0 11.0 Q-1.35 11.0 -3.0 10.0 -8.05 1.1 -18.7 0.8 -22.05 0.65 -25.0 2.0 L-24.95 2.05 -25.35 2.05 Q-27.4 -10.95 -26.55 -22.55 -19.95 -16.85 -13.7 -13.45 -6.3 -9.45 0.0 -9.0" fill="url(#gradient24)" fill-rule="evenodd" stroke="none"/>
    <path d="M1.4 -2.15 Q2.0 -1.25 2.0 0.0 2.0 1.25 1.4 2.1 0.85 3.0 0.0 3.0 -0.85 3.0 -1.45 2.1 -2.0 1.25 -2.0 0.0 -2.0 -1.25 -1.45 -2.15 -0.85 -3.0 0.0 -3.0 0.85 -3.0 1.4 -2.15" fill="url(#gradient25)" fill-rule="evenodd" stroke="none"/>
  </g>
  <defs>
    <radialGradient cx="0" cy="0" fx="-1075.2" fy="0" gradientTransform="matrix(0.01, 0.0254, -0.01, 0.0039, -26.0, 8.0)" gradientUnits="userSpaceOnUse" id="gradient0" r="819.2" spreadMethod="pad">
      <stop offset="0.23529411764705882" stop-color="#433427"/>
      <stop offset="0.6666666666666666" stop-color="#6b5845"/>
      <stop offset="0.7764705882352941" stop-color="#63513f"/>
      <stop offset="0.9803921568627451" stop-color="#40332b"/>
    </radialGradient>
    <radialGradient cx="0" cy="0" fx="-1075.2" fy="0" gradientTransform="matrix(-0.01, 0.0254, 0.01, 0.0039, 26.0, 8.0)" gradientUnits="userSpaceOnUse" id="gradient1" r="819.2" spreadMethod="pad">
      <stop offset="0.23529411764705882" stop-color="#433427"/>
      <stop offset="0.6666666666666666" stop-color="#6b5845"/>
      <stop offset="0.7764705882352941" stop-color="#63513f"/>
      <stop offset="0.9803921568627451" stop-color="#40332b"/>
    </radialGradient>
    <radialGradient cx="0" cy="0" gradientTransform="matrix(0.0317, 0.0, 0.0, 0.0874, 0.05, -0.7)" gradientUnits="userSpaceOnUse" id="gradient2" r="819.2" spreadMethod="pad">
      <stop offset="0.0" stop-color="#b49683"/>
      <stop offset="0.34901960784313724" stop-color="#af987a"/>
      <stop offset="0.6627450980392157" stop-color="#6f5b42"/>
      <stop offset="0.788235294117647" stop-color="#554331"/>
      <stop offset="0.8274509803921568" stop-color="#584534"/>
      <stop offset="0.9725490196078431" stop-color="#795f46"/>
    </radialGradient>
    <radialGradient cx="0" cy="0" gradientTransform="matrix(0.0463, 0.0, 0.0, 0.0874, 0.05, -0.7)" gradientUnits="userSpaceOnUse" id="gradient3" r="819.2" spreadMethod="pad">
      <stop offset="0.0" stop-color="#b49683"/>
      <stop offset="0.34901960784313724" stop-color="#af987a"/>
      <stop offset="0.6627450980392157" stop-color="#6f5b42"/>
      <stop offset="0.788235294117647" stop-color="#554331"/>
      <stop offset="0.9725490196078431" stop-color="#584534"/>
      <stop offset="1.0" stop-color="#5f4d36"/>
    </radialGradient>
    <radialGradient cx="0" cy="0" gradientTransform="matrix(0.0464, 0.0, 0.0, 0.0896, 0.0, 0.0)" gradientUnits="userSpaceOnUse" id="gradient4" r="819.2" spreadMethod="pad">
      <stop offset="0.0" stop-color="#b49683"/>
      <stop offset="0.34901960784313724" stop-color="#af987a"/>
      <stop offset="0.6627450980392157" stop-color="#6f5b42"/>
      <stop offset="0.788235294117647" stop-color="#554331"/>
      <stop offset="0.9725490196078431" stop-color="#584534"/>
      <stop offset="1.0" stop-color="#5f4d36"/>
    </radialGradient>
    <radialGradient cx="0" cy="0" gradientTransform="matrix(0.0464, 0.0, 0.0, 0.0739, 0.0, 0.0)" gradientUnits="userSpaceOnUse" id="gradient5" r="819.2" spreadMethod="pad">
      <stop offset="0.0" stop-color="#8aa3a6"/>
      <stop offset="0.39215686274509803" stop-color="#000000"/>
      <stop offset="0.7176470588235294" stop-color="#334044"/>
      <stop offset="1.0" stop-color="#4a5b60"/>
    </radialGradient>
    <radialGradient cx="0" cy="0" gradientTransform="matrix(0.0415, 0.0, 0.0, 0.0734, 0.0, 0.0)" gradientUnits="userSpaceOnUse" id="gradient6" r="819.2" spreadMethod="pad">
      <stop offset="0.15294117647058825" stop-color="#232f32"/>
      <stop offset="0.403921568627451" stop-color="#36464c"/>
      <stop offset="0.6941176470588235" stop-color="#141c1d"/>
      <stop offset="0.7686274509803922" stop-color="#121818"/>
      <stop offset="0.9137254901960784" stop-color="#232f32"/>
      <stop offset="1.0" stop-color="#475c63"/>
    </radialGradient>
    <radialGradient cx="0" cy="0" gradientTransform="matrix(0.0391, 0.0, 0.0, 0.0736, 0.0, 0.0)" gradientUnits="userSpaceOnUse" id="gradient7" r="819.2" spreadMethod="pad">
      <stop offset="0.3607843137254902" stop-color="#2d3d3e"/>
      <stop offset="0.47058823529411764" stop-color="#2d3a3e"/>
      <stop offset="0.7450980392156863" stop-color="#121718"/>
      <stop offset="0.8117647058823529" stop-color="#141d1d"/>
      <stop offset="0.9137254901960784" stop-color="#232f32"/>
      <stop offset="1.0" stop-color="#475c63"/>
    </radialGradient>
    <radialGradient cx="0" cy="0" gradientTransform="matrix(0.0293, 0.0, 0.0, 0.0119, 0.0, 34.9)" gradientUnits="userSpaceOnUse" id="gradient8" r="819.2" spreadMethod="pad">
      <stop offset="0.047058823529411764" stop-color="#b5a28a"/>
      <stop offset="0.29411764705882354" stop-color="#8d7454"/>
      <stop offset="0.6588235294117647" stop-color="#463424"/>
    </radialGradient>
    <radialGradient cx="0" cy="0" gradientTransform="matrix(0.0, -0.0123, 0.0239, 0.0, 0.0, 34.9)" gradientUnits="userSpaceOnUse" id="gradient9" r="819.2" spreadMethod="pad">
      <stop offset="0.050980392156862744" stop-color="#86694f"/>
      <stop offset="0.6549019607843137" stop-color="#36271f"/>
      <stop offset="1.0" stop-color="#1b1410"/>
    </radialGradient>
    <radialGradient cx="0" cy="0" gradientTransform="matrix(0.0439, 0.0, 0.0, 0.0712, 0.0, 0.0)" gradientUnits="userSpaceOnUse" id="gradient10" r="819.2" spreadMethod="pad">
      <stop offset="0.0" stop-color="#e6f1e2"/>
      <stop offset="0.43137254901960786" stop-color="#9ea49b"/>
      <stop offset="0.788235294117647" stop-color="#3c3e39"/>
      <stop offset="0.8901960784313725" stop-color="#494e47"/>
      <stop offset="1.0" stop-color="#848b81"/>
    </radialGradient>
    <radialGradient cx="0" cy="0" gradientTransform="matrix(0.0439, 0.0, 0.0, 0.072, 0.0, 0.0)" gradientUnits="userSpaceOnUse" id="gradient11" r="819.2" spreadMethod="pad">
      <stop offset="0.1803921568627451" stop-color="#e6f1e2"/>
      <stop offset="0.7019607843137254" stop-color="#9ea49b"/>
      <stop offset="0.788235294117647" stop-color="#3c3e39"/>
      <stop offset="0.8901960784313725" stop-color="#494e47"/>
      <stop offset="1.0" stop-color="#848b81"/>
    </radialGradient>
    <radialGradient cx="0" cy="0" gradientTransform="matrix(0.0439, 0.0, 0.0, 0.071, 0.0, 0.0)" gradientUnits="userSpaceOnUse" id="gradient12" r="819.2" spreadMethod="pad">
      <stop offset="0.1843137254901961" stop-color="#e6f1e2"/>
      <stop offset="0.5098039215686274" stop-color="#9ea49b"/>
      <stop offset="0.788235294117647" stop-color="#3c3e39"/>
      <stop offset="0.8901960784313725" stop-color="#494e47"/>
      <stop offset="1.0" stop-color="#848b81"/>
    </radialGradient>
    <radialGradient cx="0" cy="0" gradientTransform="matrix(0.0439, 0.0, 0.0, 0.0711, 0.0, 0.0)" gradientUnits="userSpaceOnUse" id="gradient13" r="819.2" spreadMethod="pad">
      <stop offset="0.23137254901960785" stop-color="#e6f1e2"/>
      <stop offset="0.47843137254901963" stop-color="#9ea49b"/>
      <stop offset="0.788235294117647" stop-color="#3c3e39"/>
      <stop offset="0.8901960784313725" stop-color="#494e47"/>
      <stop offset="1.0" stop-color="#848b81"/>
    </radialGradient>
    <radialGradient cx="0" cy="0" gradientTransform="matrix(-0.0439, 0.0, 0.0, 0.0712, 0.0, 0.0)" gradientUnits="userSpaceOnUse" id="gradient14" r="819.2" spreadMethod="pad">
      <stop offset="0.0" stop-color="#e6f1e2"/>
      <stop offset="0.43137254901960786" stop-color="#9ea49b"/>
      <stop offset="0.788235294117647" stop-color="#3c3e39"/>
      <stop offset="0.8901960784313725" stop-color="#494e47"/>
      <stop offset="1.0" stop-color="#848b81"/>
    </radialGradient>
    <radialGradient cx="0" cy="0" gradientTransform="matrix(-0.0439, 0.0, 0.0, 0.072, 0.0, 0.0)" gradientUnits="userSpaceOnUse" id="gradient15" r="819.2" spreadMethod="pad">
      <stop offset="0.1803921568627451" stop-color="#e6f1e2"/>
      <stop offset="0.7019607843137254" stop-color="#9ea49b"/>
      <stop offset="0.788235294117647" stop-color="#3c3e39"/>
      <stop offset="0.8901960784313725" stop-color="#494e47"/>
      <stop offset="1.0" stop-color="#848b81"/>
    </radialGradient>
    <radialGradient cx="0" cy="0" gradientTransform="matrix(-0.0439, 0.0, 0.0, 0.0711, 0.0, 0.0)" gradientUnits="userSpaceOnUse" id="gradient16" r="819.2" spreadMethod="pad">
      <stop offset="0.23137254901960785" stop-color="#e6f1e2"/>
      <stop offset="0.47843137254901963" stop-color="#9ea49b"/>
      <stop offset="0.788235294117647" stop-color="#3c3e39"/>
      <stop offset="0.8901960784313725" stop-color="#494e47"/>
      <stop offset="1.0" stop-color="#848b81"/>
    </radialGradient>
    <radialGradient cx="0" cy="0" gradientTransform="matrix(-0.0439, 0.0, 0.0, 0.071, 0.0, 0.0)" gradientUnits="userSpaceOnUse" id="gradient17" r="819.2" spreadMethod="pad">
      <stop offset="0.1843137254901961" stop-color="#e6f1e2"/>
      <stop offset="0.5098039215686274" stop-color="#9ea49b"/>
      <stop offset="0.788235294117647" stop-color="#3c3e39"/>
      <stop offset="0.8901960784313725" stop-color="#494e47"/>
      <stop offset="1.0" stop-color="#848b81"/>
    </radialGradient>
    <radialGradient cx="0" cy="0" fx="-1587.2" fy="0" gradientTransform="matrix(-0.0033, -0.008, 0.0148, -0.0061, 14.0, 4.0)" gradientUnits="userSpaceOnUse" id="gradient18" r="819.2" spreadMethod="pad">
      <stop offset="0.0" stop-color="#c6bca4"/>
      <stop offset="0.2823529411764706" stop-color="#b09879"/>
      <stop offset="0.6862745098039216" stop-color="#786047"/>
      <stop offset="0.8431372549019608" stop-color="#674f43"/>
      <stop offset="1.0" stop-color="#7a6345"/>
    </radialGradient>
    <radialGradient cx="0" cy="0" fx="-1587.2" fy="0" gradientTransform="matrix(0.0033, -0.008, -0.0148, -0.0061, -14.0, 4.0)" gradientUnits="userSpaceOnUse" id="gradient19" r="819.2" spreadMethod="pad">
      <stop offset="0.0" stop-color="#c6bca4"/>
      <stop offset="0.2823529411764706" stop-color="#b09879"/>
      <stop offset="0.6862745098039216" stop-color="#786047"/>
      <stop offset="0.8431372549019608" stop-color="#674f43"/>
      <stop offset="1.0" stop-color="#7a6345"/>
    </radialGradient>
    <radialGradient cx="0" cy="0" fx="-1193.6000000000001" fy="0" gradientTransform="matrix(0.0, 0.0269, -0.0084, 0.0, 0.0, 24.0)" gradientUnits="userSpaceOnUse" id="gradient20" r="819.2" spreadMethod="pad">
      <stop offset="0.050980392156862744" stop-color="#cdc0b1"/>
      <stop offset="0.18823529411764706" stop-color="#c2b092"/>
      <stop offset="0.36470588235294116" stop-color="#ad957c"/>
      <stop offset="0.5725490196078431" stop-color="#795f46"/>
      <stop offset="0.8745098039215686" stop-color="#836c58"/>
    </radialGradient>
    <radialGradient cx="0" cy="0" gradientTransform="matrix(0.0148, 0.0, 0.0, 0.0148, 13.0, 5.9)" gradientUnits="userSpaceOnUse" id="gradient21" r="819.2" spreadMethod="pad">
      <stop offset="0.0" stop-color="#8aa3a6"/>
      <stop offset="0.396078431372549" stop-color="#576f79"/>
      <stop offset="0.7019607843137254" stop-color="#334044"/>
    </radialGradient>
    <radialGradient cx="0" cy="0" gradientTransform="matrix(-0.0148, 0.0, 0.0, 0.0148, -13.0, 5.9)" gradientUnits="userSpaceOnUse" id="gradient22" r="819.2" spreadMethod="pad">
      <stop offset="0.0" stop-color="#8aa3a6"/>
      <stop offset="0.396078431372549" stop-color="#576f79"/>
      <stop offset="0.7019607843137254" stop-color="#334044"/>
    </radialGradient>
    <radialGradient cx="0" cy="0" gradientTransform="matrix(0.0391, 0.0, 0.0, 0.0734, 0.0, 0.0)" gradientUnits="userSpaceOnUse" id="gradient23" r="819.2" spreadMethod="pad">
      <stop offset="0.0" stop-color="#f0fbed"/>
      <stop offset="0.43137254901960786" stop-color="#9ea49b"/>
      <stop offset="0.788235294117647" stop-color="#3c3e39"/>
      <stop offset="0.8901960784313725" stop-color="#494e47"/>
      <stop offset="1.0" stop-color="#848b81"/>
    </radialGradient>
    <radialGradient cx="0" cy="0" gradientTransform="matrix(-0.0391, 0.0, 0.0, 0.0734, 0.0, 0.0)" gradientUnits="userSpaceOnUse" id="gradient24" r="819.2" spreadMethod="pad">
      <stop offset="0.0" stop-color="#f0fbed"/>
      <stop offset="0.43137254901960786" stop-color="#9ea49b"/>
      <stop offset="0.788235294117647" stop-color="#3c3e39"/>
      <stop offset="0.8901960784313725" stop-color="#494e47"/>
      <stop offset="1.0" stop-color="#848b81"/>
    </radialGradient>
    <radialGradient cx="0" cy="0" gradientTransform="matrix(0.0024, 0.0, 0.0, 0.0036, 0.0, -0.8)" gradientUnits="userSpaceOnUse" id="gradient25" r="819.2" spreadMethod="pad">
      <stop offset="0.2196078431372549" stop-color="#d13a3a"/>
      <stop offset="1.0" stop-color="#732222"/>
    </radialGradient>
  </defs>
</svg>
