<?xml version="1.0" encoding="UTF-8" standalone="no"?>
<svg xmlns:xlink="http://www.w3.org/1999/xlink" height="69.5px" width="760.5px" xmlns="http://www.w3.org/2000/svg">
  <g transform="matrix(1.0, 0.0, 0.0, 1.0, 0.5, 0.0)">
    <path d="M433.0 0.0 L760.0 0.0 760.0 58.0 433.0 58.0 405.0 30.0 404.0 29.0 405.0 28.0 433.0 0.0 M426.55 58.0 L397.7 58.0 368.7 29.0 397.7 0.0 426.55 0.0 397.5 29.0 426.55 58.0" fill="#000000" fill-rule="evenodd" stroke="none"/>
    <path d="M433.0 58.0 L426.55 58.0 397.5 29.0 426.55 0.0 429.0 0.0 433.0 0.0 405.0 28.0 404.0 29.0 405.0 30.0 433.0 58.0 M397.7 58.0 L0.0 58.0 0.0 0.0 397.7 0.0 368.7 29.0 397.7 58.0" fill="#004dfb" fill-rule="evenodd" stroke="none"/>
    <path d="M0.0 61.0 L0.0 69.0" fill="none" stroke="#336666" stroke-linecap="round" stroke-linejoin="round" stroke-width="1.0"/>
  </g>
</svg>
