<?xml version="1.0" encoding="UTF-8" standalone="no"?>
<svg xmlns:xlink="http://www.w3.org/1999/xlink" height="58.0px" width="760.0px" xmlns="http://www.w3.org/2000/svg">
  <g transform="matrix(1.0, 0.0, 0.0, 1.0, 0.0, 0.0)">
    <path d="M388.4 0.0 L760.0 0.0 760.0 58.0 388.4 58.0 417.4 29.0 388.4 0.0 M382.0 58.0 L327.0 58.0 355.0 30.0 356.0 29.0 355.0 28.0 327.0 0.0 382.0 0.0 410.9 29.05 382.0 58.0" fill="#000000" fill-rule="evenodd" stroke="none"/>
    <path d="M388.4 58.0 L382.0 58.0 410.9 29.05 382.0 0.0 388.4 0.0 417.4 29.0 388.4 58.0 M327.0 58.0 L0.0 58.0 0.0 43.0 0.0 15.0 0.0 0.0 327.0 0.0 355.0 28.0 356.0 29.0 355.0 30.0 327.0 58.0 M98.0 29.0 L84.0 43.0 70.0 29.0 84.0 15.0 98.0 29.0 112.0 15.0 126.0 29.0 112.0 43.0 98.0 29.0 M154.0 29.0 L140.0 43.0 126.0 29.0 140.0 15.0 154.0 29.0 168.0 15.0 182.0 29.0 196.0 15.0 210.0 29.0 196.0 43.0 182.0 29.0 168.0 43.0 154.0 29.0 M238.0 29.0 L224.0 43.0 210.0 29.0 224.0 15.0 238.0 29.0 252.0 15.0 266.0 29.0 252.0 43.0 238.0 29.0 M0.0 15.0 L14.0 29.0 0.0 43.0 14.0 57.0 28.0 43.0 42.0 57.0 56.0 43.0 70.0 57.0 84.0 43.0 98.0 57.0 112.0 43.0 126.0 57.0 140.0 43.0 154.0 57.0 168.0 43.0 182.0 57.0 196.0 43.0 210.0 57.0 224.0 43.0 238.0 57.0 252.0 43.0 266.0 57.0 280.0 43.0 266.0 29.0 280.0 15.0 266.0 1.0 252.0 15.0 238.0 1.0 224.0 15.0 210.0 1.0 196.0 15.0 182.0 1.0 168.0 15.0 154.0 1.0 140.0 15.0 126.0 1.0 112.0 15.0 98.0 1.0 84.0 15.0 70.0 1.0 56.0 15.0 42.0 1.0 28.0 15.0 14.0 1.0 0.0 15.0 M14.0 29.0 L28.0 15.0 42.0 29.0 28.0 43.0 14.0 29.0 M70.0 29.0 L56.0 43.0 42.0 29.0 56.0 15.0 70.0 29.0" fill="#f20006" fill-rule="evenodd" stroke="none"/>
    <path d="M0.0 15.0 L14.0 1.0 28.0 15.0 42.0 1.0 56.0 15.0 70.0 1.0 84.0 15.0 98.0 1.0 112.0 15.0 126.0 1.0 140.0 15.0 154.0 1.0 168.0 15.0 182.0 1.0 196.0 15.0 210.0 1.0 224.0 15.0 238.0 1.0 252.0 15.0 266.0 1.0 280.0 15.0 266.0 29.0 280.0 43.0 266.0 57.0 252.0 43.0 238.0 57.0 224.0 43.0 210.0 57.0 196.0 43.0 182.0 57.0 168.0 43.0 154.0 57.0 140.0 43.0 126.0 57.0 112.0 43.0 98.0 57.0 84.0 43.0 70.0 57.0 56.0 43.0 42.0 57.0 28.0 43.0 14.0 57.0 0.0 43.0 14.0 29.0 0.0 15.0 M266.0 29.0 L252.0 15.0 238.0 29.0 252.0 43.0 266.0 29.0 M238.0 29.0 L224.0 15.0 210.0 29.0 224.0 43.0 238.0 29.0 M182.0 29.0 L196.0 43.0 210.0 29.0 196.0 15.0 182.0 29.0 168.0 15.0 154.0 29.0 168.0 43.0 182.0 29.0 M154.0 29.0 L140.0 15.0 126.0 29.0 140.0 43.0 154.0 29.0 M98.0 29.0 L84.0 15.0 70.0 29.0 84.0 43.0 98.0 29.0 112.0 43.0 126.0 29.0 112.0 15.0 98.0 29.0 M70.0 29.0 L56.0 15.0 42.0 29.0 56.0 43.0 70.0 29.0 M14.0 29.0 L28.0 43.0 42.0 29.0 28.0 15.0 14.0 29.0" fill="#21fd09" fill-rule="evenodd" stroke="none"/>
  </g>
</svg>
