<?xml version="1.0" encoding="UTF-8" standalone="no"?>
<svg xmlns:xlink="http://www.w3.org/1999/xlink" height="85.0px" width="370.45px" xmlns="http://www.w3.org/2000/svg">
  <g transform="matrix(1.0, 0.0, 0.0, 1.0, 367.45, 0.0)">
    <path d="M3.0 28.0 L-144.0 28.0 -145.0 29.0 -145.0 77.0 -142.0 77.0 -141.65 77.35 -149.0 85.0 -156.45 77.35 -156.0 77.0 -153.0 77.0 -153.0 29.0 -154.0 28.0 -352.0 28.0 -353.0 29.0 -353.0 77.0 -350.0 77.0 -349.65 77.35 -357.0 85.0 -364.45 77.35 -364.0 77.0 -361.0 77.0 -361.05 31.0 -361.0 31.0 -361.0 4.0 3.0 4.0 3.0 28.0" fill="#232323" fill-rule="evenodd" stroke="none"/>
    <path d="M0.0 24.0 L-147.0 24.0 -148.0 25.0 -148.0 73.0 -145.0 73.0 -144.65 73.35 -152.0 81.0 -159.45 73.35 -159.0 73.0 -156.0 73.0 -156.0 25.0 -157.0 24.0 -355.0 24.0 -356.0 25.0 -356.0 73.0 -353.0 73.0 -352.65 73.35 -360.0 81.0 -367.45 73.35 -367.0 73.0 -364.0 73.0 -364.0 24.0 -364.0 2.0 Q-364.0 0.0 -362.0 0.0 L0.0 0.0 0.0 24.0" fill="url(#gradient0)" fill-rule="evenodd" stroke="none"/>
  </g>
  <defs>
    <linearGradient gradientTransform="matrix(0.0, 0.069, -0.069, 0.0, -311.75, 56.5)" gradientUnits="userSpaceOnUse" id="gradient0" spreadMethod="pad" x1="-819.2" x2="819.2">
      <stop offset="0.0" stop-color="#f70f0f"/>
      <stop offset="1.0" stop-color="#8f0505"/>
    </linearGradient>
  </defs>
</svg>
