<?xml version="1.0" encoding="UTF-8" standalone="no"?>
<svg xmlns:xlink="http://www.w3.org/1999/xlink" height="280.0px" width="352.0px" xmlns="http://www.w3.org/2000/svg">
  <g transform="matrix(1.0, 0.0, 0.0, 1.0, -384.0, -32.0)">
    <path d="M736.0 32.0 L736.0 310.0 Q736.0 312.0 734.0 312.0 L386.0 312.0 Q384.0 312.0 384.0 310.0 L384.0 32.0 385.5 32.0 385.5 282.5 734.45 282.5 734.45 32.0 736.0 32.0" fill="#000000" fill-rule="evenodd" stroke="none"/>
    <path d="M731.0 35.0 L557.0 35.0 Q555.0 35.0 555.0 37.0 L555.0 153.0 Q555.0 155.0 557.0 155.0 L731.0 155.0 Q733.0 155.0 733.0 153.0 L733.0 37.0 Q733.0 35.0 731.0 35.0 M731.0 157.0 L570.0 157.0 Q568.0 157.0 568.0 159.0 L568.0 275.0 Q568.0 277.0 570.0 277.0 L731.0 277.0 Q733.0 277.0 733.0 275.0 L733.0 159.0 Q733.0 157.0 731.0 157.0 M735.0 309.0 Q735.0 311.0 733.0 311.0 L387.0 311.0 Q385.0 311.0 385.0 309.0 L385.0 32.0 735.0 32.0 735.0 309.0 M550.0 35.0 L389.0 35.0 Q387.0 35.0 387.0 37.0 L387.0 153.0 Q387.0 155.0 389.0 155.0 L550.0 155.0 Q552.0 155.0 552.0 153.0 L552.0 37.0 Q552.0 35.0 550.0 35.0 M563.0 157.0 L389.0 157.0 Q387.0 157.0 387.0 159.0 L387.0 275.0 Q387.0 277.0 389.0 277.0 L563.0 277.0 Q565.0 277.0 565.0 275.0 L565.0 159.0 Q565.0 157.0 563.0 157.0" fill="#7a7a7a" fill-rule="evenodd" stroke="none"/>
    <path d="M731.0 279.0 Q733.0 279.0 733.0 281.0 L733.0 307.0 Q733.0 309.0 731.0 309.0 L389.0 309.0 Q387.0 309.0 387.0 307.0 L387.0 281.0 Q387.0 279.0 389.0 279.0 L731.0 279.0" fill="#3a3236" fill-rule="evenodd" stroke="none"/>
    <path d="M732.0 282.0 L732.0 306.0 388.0 306.0 388.0 282.0 732.0 282.0" fill="#594e53" fill-rule="evenodd" stroke="none"/>
    <path d="M388.0 282.0 L388.0 281.0 Q388.0 280.0 389.0 280.0 L731.0 280.0 Q732.0 280.0 732.0 281.0 L732.0 282.0 388.0 282.0 M732.0 306.0 L732.0 307.0 Q732.0 308.0 731.0 308.0 L389.0 308.0 Q388.0 308.0 388.0 307.0 L388.0 306.0 732.0 306.0" fill="#8c8487" fill-rule="evenodd" stroke="none"/>
  </g>
</svg>
