<?xml version="1.0" encoding="UTF-8" standalone="no"?>
<svg xmlns:xlink="http://www.w3.org/1999/xlink" height="206.0px" width="168.0px" xmlns="http://www.w3.org/2000/svg">
  <g transform="matrix(1.0, 0.0, 0.0, 1.0, -476.0, -67.0)">
    <path d="M548.0 79.0 L476.0 79.0 476.0 67.0 548.0 67.0 548.0 79.0 M548.0 127.0 L476.0 127.0 476.0 115.0 548.0 115.0 548.0 127.0 M548.0 151.0 L476.0 151.0 476.0 139.0 548.0 139.0 548.0 151.0 M644.0 189.0 L644.0 201.0 572.0 201.0 572.0 189.0 644.0 189.0 M548.0 103.0 L476.0 103.0 476.0 91.0 548.0 91.0 548.0 103.0 M644.0 225.0 L572.0 225.0 572.0 213.0 644.0 213.0 644.0 225.0 M572.0 261.0 L644.0 261.0 644.0 273.0 572.0 273.0 572.0 261.0 M572.0 249.0 L572.0 237.0 644.0 237.0 644.0 249.0 572.0 249.0" fill="#ffffff" fill-opacity="0.4" fill-rule="evenodd" stroke="none"/>
  </g>
</svg>
