<?xml version="1.0" encoding="UTF-8" standalone="no"?>
<svg xmlns:xlink="http://www.w3.org/1999/xlink" height="359.9px" width="183.05px" xmlns="http://www.w3.org/2000/svg">
  <g transform="matrix(1.0, 0.0, 0.0, 1.0, -104.95, -313.05)">
    <path d="M210.25 394.0 Q208.7 388.35 207.0 388.0 207.3 389.85 207.2 392.7 L207.0 397.0 Q209.4 398.55 209.75 400.15 210.1 401.5 209.0 404.0 L211.9 404.1 Q211.5 398.7 210.25 394.0 M135.65 318.1 Q146.75 312.95 159.3 313.05 172.4 313.15 185.0 319.0 L189.0 335.0 Q201.7 340.9 208.5 349.9 215.7 359.35 217.0 373.0 218.7 386.0 217.55 395.15 216.75 401.75 214.6 404.35 219.2 404.95 222.85 406.55 228.95 409.2 233.0 415.0 235.45 413.6 237.4 414.65 239.0 415.55 239.0 417.0 242.95 416.1 244.0 420.0 249.65 419.25 248.0 426.0 254.55 425.8 251.0 432.0 L259.0 440.0 Q260.0 450.8 251.35 460.3 243.0 469.45 234.0 469.0 233.95 474.35 229.95 475.15 226.0 475.95 221.0 472.0 221.8 477.0 220.0 481.0 223.05 483.75 223.35 488.0 223.6 492.25 221.0 497.0 225.5 500.15 226.0 505.0 235.5 505.45 241.0 512.0 243.95 508.95 250.0 508.0 258.65 507.15 260.0 512.0 265.4 513.2 271.4 521.0 276.5 527.65 280.0 536.0 L283.0 538.0 282.0 539.0 282.0 545.0 Q284.9 545.5 287.0 548.0 L285.0 550.0 285.0 555.0 Q287.35 556.45 288.0 559.0 286.5 561.4 284.0 562.0 L284.0 567.0 Q284.85 569.2 285.0 572.0 283.0 572.6 281.0 572.0 L279.0 576.0 280.0 582.0 275.0 582.0 273.0 585.0 274.0 593.0 267.0 593.0 265.0 595.0 264.0 601.0 Q260.45 601.5 258.0 599.0 L256.0 599.0 Q256.9 602.35 257.15 605.0 257.4 607.8 257.0 611.0 253.1 611.65 250.0 610.0 L244.0 614.0 Q245.0 618.6 243.0 623.0 238.25 622.4 235.0 619.0 L226.0 619.0 Q226.4 621.4 225.9 623.8 225.35 626.35 224.0 628.0 219.4 627.3 216.0 624.0 L214.0 624.0 214.0 644.0 Q217.15 648.9 214.95 652.7 212.55 656.85 205.0 656.0 201.0 655.6 201.6 648.2 201.85 644.65 205.0 630.0 L203.0 630.0 Q199.7 627.95 198.0 624.0 L192.0 624.0 Q189.7 627.8 186.0 629.0 182.75 626.9 181.0 623.0 L174.0 623.0 173.0 624.0 173.0 653.0 177.95 656.6 Q181.0 658.8 182.5 660.4 186.9 664.95 184.0 670.0 181.15 673.05 178.1 672.95 174.8 672.8 170.0 669.0 L169.0 666.0 164.0 662.0 Q162.75 659.15 163.0 656.45 163.3 653.7 165.0 652.0 156.4 634.5 156.0 620.0 153.2 620.9 152.0 620.0 150.6 616.8 151.0 613.0 L148.0 610.0 Q146.35 610.8 144.0 610.7 142.05 610.6 141.0 610.0 139.9 607.25 142.0 602.0 L140.0 598.0 Q136.5 599.4 133.0 598.0 132.4 596.05 132.6 594.5 132.8 592.9 134.0 591.0 L132.0 587.0 129.0 586.55 Q127.4 586.0 127.0 585.0 127.15 582.15 129.0 579.0 L129.0 575.0 Q126.8 574.6 125.0 572.0 126.9 568.4 130.0 567.0 L130.0 563.0 Q127.9 563.0 127.0 560.0 128.0 557.3 131.0 554.0 129.9 549.95 133.0 547.65 139.45 542.85 141.0 541.0 141.05 533.1 147.05 526.7 152.85 520.45 161.0 519.0 163.75 513.35 166.0 509.65 169.0 504.7 173.0 500.0 L171.0 485.0 Q164.55 478.1 161.15 469.05 157.7 460.0 157.0 448.0 157.15 443.75 159.1 439.6 L160.2 437.55 160.25 437.45 Q156.3 434.5 153.35 432.85 149.5 430.7 146.0 430.0 146.45 433.0 145.7 435.35 145.0 437.55 143.0 440.0 141.9 434.9 139.0 430.05 135.7 424.6 131.0 421.0 120.3 413.25 116.0 401.2 111.7 389.25 114.0 374.0 L105.0 371.0 Q104.4 352.7 113.05 338.4 121.3 324.8 135.65 318.1" fill="#ffffff" fill-rule="evenodd" stroke="none"/>
  </g>
</svg>
