<?xml version="1.0" encoding="UTF-8" standalone="no"?>
<svg xmlns:xlink="http://www.w3.org/1999/xlink" height="379.35px" width="183.8px" xmlns="http://www.w3.org/2000/svg">
  <g transform="matrix(1.0, 0.0, 0.0, 1.0, -104.85, -291.8)">
    <path d="M156.6 291.85 L162.9 291.9 Q171.05 292.45 178.85 295.15 L179.05 295.25 179.25 295.3 179.3 295.35 179.4 295.35 Q183.9 296.95 188.3 299.45 L189.45 302.1 192.75 310.3 194.8 316.0 197.15 317.55 Q201.1 320.35 204.2 323.6 209.4 328.8 212.6 334.85 214.6 338.45 215.9 342.4 216.75 343.45 217.25 344.85 219.55 348.1 221.5 352.1 L222.1 353.35 221.55 356.9 221.3 358.2 221.2 359.35 221.45 360.35 Q221.75 361.45 222.35 362.35 222.75 364.0 223.45 365.4 L224.05 367.75 224.3 370.15 224.55 371.15 225.0 375.05 225.15 376.0 225.2 376.05 Q225.55 378.5 225.35 380.6 L225.35 382.1 224.65 385.3 225.5 385.55 Q228.0 386.35 229.85 387.6 L232.8 388.85 Q235.8 390.5 237.75 393.35 L240.4 397.6 241.35 399.35 Q243.55 398.75 245.3 400.25 246.75 401.4 246.8 403.0 L248.4 403.35 Q250.6 404.1 251.45 407.2 256.6 407.7 255.45 414.6 257.9 415.0 258.9 416.35 260.75 417.6 259.6 420.7 L262.4 422.7 267.35 429.55 Q267.8 434.65 266.65 439.55 L263.3 444.05 Q261.85 447.6 259.55 451.15 L258.9 452.1 255.25 456.75 Q253.85 458.45 251.85 459.45 L250.15 460.8 Q247.85 461.8 245.25 462.1 L242.55 462.15 242.25 463.05 Q241.65 464.8 239.8 465.85 238.65 466.5 237.25 466.6 L235.0 466.35 Q231.15 466.1 227.65 462.6 L227.65 463.1 Q227.3 466.0 226.05 467.6 L225.4 470.05 Q227.95 473.4 228.2 478.05 L228.1 480.4 Q227.8 483.9 226.0 488.1 L226.1 488.25 Q229.5 491.7 230.15 496.35 L230.4 497.35 231.2 497.6 236.15 498.25 238.05 499.4 Q239.25 500.05 240.25 501.2 L243.1 504.25 244.45 506.45 244.6 506.4 Q247.05 505.15 250.75 504.75 L254.0 504.75 Q259.7 505.1 262.4 507.8 263.65 508.95 264.15 510.7 266.75 511.95 269.25 514.8 271.65 517.8 273.9 522.05 L274.9 524.05 Q277.0 528.7 278.2 533.8 L279.15 538.6 280.55 540.3 281.3 540.85 280.7 541.9 281.45 547.4 281.6 548.25 Q284.55 549.45 286.55 552.15 L286.3 552.55 285.75 553.5 285.35 554.45 285.75 556.5 286.25 559.55 286.45 559.65 Q287.95 560.95 288.45 562.65 L288.65 564.2 288.35 564.65 Q287.65 566.5 286.15 567.45 L285.8 572.3 Q286.3 574.45 286.15 577.05 L285.25 577.3 282.15 577.2 280.5 579.6 280.1 580.85 280.65 583.1 280.8 586.7 275.95 587.1 273.75 589.85 273.8 590.45 273.65 595.9 273.65 596.7 267.3 595.8 265.45 597.1 265.25 598.15 264.1 601.55 Q260.8 601.65 258.45 599.1 L256.6 598.85 257.05 601.05 257.4 604.0 Q257.6 606.8 257.25 609.95 L251.15 610.1 245.85 614.55 Q246.3 617.35 245.75 620.15 L244.9 623.5 Q240.85 623.65 238.1 621.35 L231.45 622.45 230.25 622.45 230.15 624.05 229.95 626.95 Q229.5 629.45 228.3 631.2 225.65 631.25 223.4 630.25 L221.15 628.95 219.3 629.2 219.0 632.15 219.0 635.2 218.85 637.95 218.05 646.4 218.25 646.85 Q220.25 651.05 218.85 654.5 L218.5 655.1 Q216.25 659.4 209.55 659.4 208.3 659.4 207.55 658.75 205.7 657.2 205.6 653.05 204.8 650.5 205.85 640.95 L206.05 637.35 204.5 637.3 204.1 637.3 Q200.75 635.7 198.8 632.6 L198.7 632.45 192.7 632.45 192.15 633.05 Q189.85 635.55 186.55 636.3 183.1 634.5 180.95 631.15 L173.75 631.15 172.65 632.0 169.15 649.3 167.7 656.65 167.6 657.15 Q167.65 657.55 170.85 660.25 L172.6 662.05 174.0 663.05 Q176.0 664.9 175.85 666.8 175.8 668.15 174.65 669.6 172.05 671.65 169.25 671.0 L168.9 670.95 Q165.95 669.9 161.85 666.15 L160.85 663.05 156.25 658.55 Q155.25 656.2 155.1 654.0 L155.0 653.3 155.0 653.05 Q155.15 651.95 155.65 651.15 155.95 650.5 156.5 650.0 154.05 646.95 151.9 643.55 149.65 638.4 148.4 633.2 L148.05 631.55 147.15 629.15 146.9 628.05 145.35 622.55 141.25 622.8 140.55 621.7 Q139.6 619.05 139.7 616.0 L137.1 612.8 137.0 612.7 135.75 612.9 133.4 612.85 132.85 612.85 131.15 612.85 130.45 612.65 Q128.95 610.85 130.2 606.5 L128.7 604.45 127.9 602.85 Q124.75 603.5 121.8 601.65 L121.65 600.55 121.6 598.65 121.55 598.05 121.65 596.55 122.35 595.6 122.4 595.45 120.1 592.55 117.1 592.4 Q115.5 592.0 114.95 591.2 L114.85 589.55 114.95 588.8 Q115.3 587.5 116.05 586.1 L116.35 585.4 116.6 582.65 116.7 581.35 115.6 580.7 Q114.2 580.2 112.9 578.85 114.0 576.05 116.15 575.15 L116.3 573.75 116.55 572.25 117.1 570.55 116.8 570.4 Q115.6 569.55 115.65 566.75 L115.85 566.5 Q117.1 564.5 119.35 562.4 L121.1 559.95 121.15 559.7 Q121.2 554.5 124.15 552.15 L124.15 552.1 129.2 547.35 133.4 542.95 Q133.6 541.9 133.95 540.95 134.9 537.2 137.05 533.65 139.2 530.1 142.25 526.95 L142.75 526.4 144.45 524.5 Q146.15 522.75 148.0 521.3 L148.9 520.15 149.7 519.15 Q152.0 517.0 154.55 515.45 L154.55 515.35 159.55 503.9 159.75 503.45 162.95 498.15 166.75 492.9 168.35 491.7 169.3 488.9 170.65 485.05 169.95 480.5 169.5 477.15 Q167.6 474.5 166.05 471.65 164.0 468.8 162.4 465.35 L161.4 463.05 160.55 460.9 159.6 458.75 157.25 453.05 155.95 450.65 Q154.9 448.3 154.1 445.4 L154.1 445.05 154.0 444.05 153.55 442.5 152.85 440.7 152.85 440.25 153.15 436.85 153.2 434.4 153.55 431.3 153.9 429.85 154.4 429.45 154.45 429.35 152.65 428.5 Q151.0 427.6 149.6 426.7 L147.75 425.5 145.85 424.15 140.7 421.15 Q140.9 422.7 140.55 423.75 L140.35 424.35 Q139.75 425.5 138.2 426.9 L137.55 422.95 Q136.4 419.15 134.6 415.75 L134.15 414.9 Q131.35 409.65 127.95 405.65 L127.3 404.95 Q123.55 400.6 120.8 396.35 118.0 391.0 116.45 385.75 L116.05 383.65 115.45 381.65 115.05 379.65 Q113.1 370.75 113.5 360.7 113.65 356.15 114.4 351.6 L114.4 351.25 104.85 347.0 Q105.5 328.55 114.9 314.8 122.95 303.05 135.75 296.95 137.25 296.2 138.8 295.6 147.25 292.2 156.6 291.85 M144.5 407.75 Q146.25 406.65 146.25 405.5 146.25 403.9 144.5 403.4 142.75 402.85 142.75 404.4 142.75 405.2 143.3 406.35 143.9 407.55 144.5 407.75 M246.25 514.25 Q247.9 514.25 248.25 511.75 244.65 510.05 243.9 509.85 242.25 509.5 242.25 511.25 L243.05 512.75 Q244.3 514.25 246.25 514.25 M215.15 383.6 L213.35 381.4 212.85 381.1 211.65 379.65 211.6 379.65 211.05 379.15 Q211.1 378.7 211.45 378.4 L211.8 378.15 211.2 377.35 210.75 376.2 210.35 376.95 208.9 378.25 Q210.0 378.35 211.05 379.15 L211.0 379.45 211.2 379.85 211.45 380.25 212.85 381.1 214.85 384.6 215.4 386.05 215.9 387.5 217.45 390.6 218.3 391.45 218.35 391.5 218.75 392.45 218.35 394.6 220.45 396.35 220.8 396.65 220.85 396.65 220.65 396.45 220.45 396.35 220.3 396.05 218.75 392.45 218.85 391.65 Q218.95 390.05 218.6 388.7 218.35 387.45 217.65 386.25 L216.7 384.6 215.15 383.6 M208.5 368.5 L206.95 368.35 Q206.25 368.55 206.25 369.35 206.25 370.15 206.6 370.45 L207.5 370.75 Q208.0 370.55 208.55 370.3 L208.75 369.35 208.65 368.55 208.5 368.5" fill="#ffffff" fill-rule="evenodd" stroke="none"/>
  </g>
</svg>
