<?xml version="1.0" encoding="UTF-8" standalone="no"?>
<svg xmlns:xlink="http://www.w3.org/1999/xlink" height="494.65px" width="261.75px" xmlns="http://www.w3.org/2000/svg">
  <g transform="matrix(1.0, 0.0, 0.0, 1.0, -47.0, -183.65)">
    <path d="M171.05 184.9 L171.25 184.95 Q183.25 187.45 192.7 193.6 L192.8 193.55 192.9 193.55 192.95 193.65 192.95 193.75 Q196.15 195.8 198.9 198.4 L200.85 200.35 204.75 202.9 Q210.55 206.0 215.55 210.85 L216.15 211.4 216.35 211.6 216.55 211.75 216.65 211.85 216.75 211.95 Q221.0 216.1 224.65 221.55 L224.95 222.25 226.25 225.8 Q227.85 230.6 228.7 235.7 L229.05 237.45 230.15 245.6 230.7 249.5 Q231.5 255.4 231.6 261.3 L231.45 269.75 Q233.95 270.35 234.25 272.7 L239.55 273.2 240.1 273.3 Q239.95 272.65 240.55 272.3 L241.15 272.15 241.9 272.0 244.9 271.05 245.95 270.7 247.35 270.25 248.85 269.7 250.15 269.25 250.25 269.3 Q251.6 269.55 252.7 270.25 L253.75 271.15 Q254.85 272.15 255.3 273.4 L255.6 274.4 257.35 274.65 259.75 276.35 260.65 277.3 261.65 278.75 263.3 279.85 264.35 280.5 265.4 281.25 265.5 281.35 Q267.5 282.95 268.4 284.95 L269.4 285.45 270.9 286.15 271.2 286.35 Q272.85 287.6 274.3 289.3 L275.15 290.1 276.1 291.0 Q277.5 293.0 278.15 295.25 278.6 296.6 278.7 298.1 L279.75 298.45 Q284.2 300.15 285.05 305.2 285.5 307.8 285.0 311.2 L284.95 311.95 284.5 314.45 Q284.15 316.7 283.35 318.35 L283.45 318.8 284.3 323.1 284.9 325.3 286.3 332.1 287.45 336.45 Q288.55 340.2 289.3 344.35 L291.0 348.9 Q292.0 351.8 292.5 355.05 L294.05 359.45 295.8 365.2 301.2 365.75 308.7 366.8 308.75 371.95 308.45 379.2 308.1 389.8 308.0 391.0 307.85 394.95 304.2 395.3 298.65 395.75 298.65 395.85 298.5 398.9 298.1 405.1 297.9 408.45 297.9 408.75 297.8 409.7 297.3 414.25 297.05 417.75 Q297.0 419.15 296.4 420.25 295.6 421.7 293.65 422.6 L293.25 425.7 Q292.0 426.45 290.4 426.85 L289.8 427.15 286.5 428.4 283.95 429.0 Q282.05 429.2 281.1 428.6 L280.95 428.4 Q279.25 426.2 275.7 426.3 L272.65 426.0 Q271.45 425.65 270.45 425.0 L269.65 424.35 Q264.45 424.95 261.75 422.35 L261.7 422.3 Q260.85 421.05 260.5 419.25 257.4 420.3 254.5 417.5 L253.85 416.85 253.5 416.25 253.55 416.6 254.1 422.4 254.25 425.5 254.45 429.45 254.75 434.7 254.75 435.85 254.8 438.45 254.8 438.7 255.2 445.8 255.2 446.65 255.65 449.9 Q256.45 454.55 256.9 459.5 257.7 459.9 257.85 460.7 L257.9 461.35 258.0 462.25 261.35 462.6 265.3 462.9 Q266.25 463.95 266.55 466.35 L266.65 467.55 266.8 471.15 Q267.05 476.85 267.25 477.45 L267.25 478.7 266.85 481.7 266.7 482.45 274.65 489.5 276.2 491.25 Q278.3 493.7 280.2 496.5 L282.15 499.1 282.85 500.0 283.45 501.25 286.05 506.0 286.85 507.85 287.3 509.0 Q289.25 512.75 290.05 517.25 L290.1 518.05 290.1 519.4 290.05 520.65 290.05 520.8 290.1 523.05 289.85 526.95 289.9 527.25 289.5 532.05 289.1 534.05 288.85 534.8 287.8 537.8 287.35 538.9 285.05 545.05 282.55 550.5 281.8 551.45 280.65 552.9 279.15 554.45 276.25 557.6 275.0 558.75 272.85 560.75 271.8 561.55 274.15 564.05 276.9 568.55 277.7 570.2 278.65 572.25 279.05 573.0 Q280.95 576.65 281.85 579.65 L282.15 580.7 282.2 581.1 282.75 582.75 Q284.75 583.55 286.3 585.05 L288.05 587.3 288.85 588.4 289.15 588.95 Q289.7 590.85 289.45 592.75 L288.8 594.4 286.75 596.8 289.4 597.65 290.8 598.8 292.0 600.0 291.4 601.45 Q290.55 603.4 289.35 604.9 288.0 606.65 286.25 607.9 L283.2 608.85 280.95 609.25 282.2 611.75 280.5 613.45 Q277.2 616.95 272.8 618.25 L272.65 618.3 267.65 619.85 267.0 618.95 Q266.05 617.5 265.3 615.85 264.1 613.35 263.4 610.45 261.85 609.3 260.5 607.85 257.55 605.15 255.2 601.4 L254.4 600.1 254.2 599.65 254.2 601.3 254.05 605.2 253.45 611.1 251.95 616.9 251.0 620.1 250.3 622.25 249.85 624.35 249.9 625.8 250.1 629.85 250.2 633.4 250.5 643.4 249.35 643.55 248.95 643.65 248.1 643.75 Q248.75 648.85 247.9 653.2 L247.65 654.15 247.1 656.05 Q245.3 661.6 242.95 661.5 L242.45 658.15 242.4 657.8 Q242.0 656.2 241.4 655.1 L241.25 654.8 Q239.65 658.0 236.7 659.2 L235.9 659.55 234.2 665.25 232.7 670.05 231.85 672.95 231.4 672.9 229.4 672.9 228.85 672.9 219.65 672.1 219.35 672.05 212.25 672.05 211.3 672.05 210.2 672.15 207.6 672.4 201.6 672.7 200.1 672.6 193.65 672.1 191.55 671.85 188.05 671.85 181.85 671.85 180.45 672.0 159.1 674.9 150.3 676.1 149.6 676.2 145.0 676.7 142.1 677.0 141.85 677.0 140.1 677.15 135.4 677.8 131.8 678.25 131.6 678.3 128.45 672.5 128.25 672.05 128.1 671.8 124.15 661.8 123.6 659.95 122.9 657.75 120.05 649.95 118.25 643.75 118.0 642.9 117.9 642.5 117.35 640.05 117.0 638.15 115.85 634.7 114.95 634.6 114.65 637.5 113.2 638.95 Q109.5 642.2 104.85 642.7 103.8 641.1 102.95 639.3 L102.05 637.2 100.95 634.1 100.55 632.65 100.25 631.15 100.2 629.25 Q99.35 627.65 97.6 628.85 L97.55 629.25 97.4 630.45 94.35 633.3 93.2 633.9 Q90.5 635.35 87.1 635.7 L85.7 635.9 Q84.35 634.1 83.45 632.15 L83.35 632.05 82.65 630.9 81.6 627.95 81.45 627.3 81.2 626.3 81.45 625.45 81.75 624.6 Q80.75 622.75 79.1 623.35 L78.3 624.75 76.8 625.85 Q75.35 626.75 73.9 627.3 L72.1 627.9 Q69.7 628.85 67.35 628.8 66.6 627.4 66.1 625.8 L65.85 624.4 65.75 621.7 65.75 620.9 65.95 618.75 66.2 617.65 66.4 617.2 66.5 617.05 66.95 615.75 Q66.05 614.6 64.2 615.45 L64.2 615.6 64.0 617.1 62.2 618.6 Q60.9 619.55 59.6 620.15 L58.0 620.8 57.15 621.05 54.2 621.6 53.3 621.65 52.75 621.7 52.5 620.85 Q52.35 619.95 52.55 618.65 L52.8 617.85 53.05 616.95 53.55 615.55 54.15 614.05 55.05 612.1 55.5 611.4 Q53.35 612.3 51.35 613.45 L50.05 613.95 48.5 614.55 47.0 615.1 47.1 614.55 Q47.25 613.65 47.75 612.4 48.4 610.95 49.3 609.65 L50.8 608.45 51.4 608.1 53.6 606.7 Q54.8 603.75 58.25 600.85 L60.2 599.25 Q61.55 598.25 63.05 597.3 L63.65 596.9 Q66.3 595.05 69.45 593.5 L72.2 588.0 73.35 585.95 Q77.4 578.85 79.6 575.45 L80.85 573.6 86.25 566.05 88.4 562.65 89.05 561.7 Q92.15 555.9 96.25 550.8 L98.85 547.8 Q102.3 543.4 106.7 538.75 L107.7 537.65 109.4 535.9 111.4 533.95 Q114.7 530.75 118.0 527.95 L119.9 526.25 121.35 525.0 121.65 524.85 125.45 519.45 128.6 516.0 128.7 515.9 131.75 512.2 126.15 511.65 122.15 509.6 122.85 502.4 122.95 501.35 123.6 495.1 124.9 489.95 127.95 477.9 129.0 474.3 129.85 470.8 130.65 469.05 133.7 462.2 135.05 458.85 137.4 454.85 140.4 449.6 141.5 447.7 149.85 446.9 152.15 446.95 161.55 448.0 162.85 448.25 162.15 445.1 161.3 440.7 160.45 436.25 158.7 424.7 158.6 424.55 Q157.25 422.55 156.1 420.0 155.05 417.55 154.15 414.65 L153.3 410.75 153.1 410.05 152.95 409.35 152.35 407.35 150.95 404.7 149.1 401.85 148.75 401.25 145.5 397.1 144.6 396.8 141.35 395.8 140.7 395.45 Q138.6 394.15 136.75 391.7 L135.65 390.05 135.85 390.5 136.05 390.9 136.3 391.6 136.35 391.75 136.45 393.15 135.95 395.0 134.85 396.85 Q133.55 398.7 132.2 399.25 L131.55 399.45 Q131.95 397.65 131.55 395.65 L131.2 394.2 Q130.5 392.35 129.0 391.7 L128.45 391.5 Q125.65 391.55 122.85 386.15 L123.55 388.3 125.1 392.25 124.55 392.15 123.15 391.8 Q121.75 391.4 120.6 390.8 L118.45 389.3 Q117.25 387.75 116.3 385.8 115.5 384.4 114.85 382.55 113.15 377.5 112.5 369.45 L112.5 367.9 112.55 366.25 Q112.75 359.15 114.25 353.15 L112.35 346.05 111.95 344.75 110.85 340.8 Q108.7 332.55 107.7 325.0 L107.6 324.35 Q106.9 313.05 106.95 306.15 L107.25 303.7 107.8 299.7 108.5 296.05 Q108.9 294.1 109.45 292.45 L110.75 288.75 Q111.1 286.75 112.4 285.95 112.35 281.0 113.15 279.55 L114.35 257.95 114.8 251.2 Q115.05 245.75 115.9 241.0 L116.0 240.4 116.3 237.6 104.15 227.0 Q113.1 203.2 131.4 192.1 139.4 187.25 149.05 184.85 157.2 182.85 166.75 184.2 L171.05 184.9 M260.4 491.75 L253.85 485.5 253.9 505.25 Q259.8 522.45 259.8 542.1 L263.05 545.35 Q263.15 540.4 265.05 535.6 267.2 534.35 269.15 533.75 270.65 533.25 271.95 533.1 275.45 529.25 275.7 524.55 L275.5 520.5 274.6 516.15 Q271.55 508.1 267.45 500.95 L263.75 495.75 260.4 491.75 M232.95 304.25 L235.0 304.25 Q233.0 303.15 231.25 301.2 229.9 299.65 228.7 297.15 L228.25 300.15 227.65 303.75 227.1 306.5 225.9 310.6 223.85 316.9 222.5 320.5 Q220.6 325.35 218.3 329.65 L219.75 331.7 225.0 332.05 225.6 332.15 228.15 332.75 230.95 334.6 Q235.9 338.45 239.8 344.05 L239.9 344.3 243.3 350.8 250.15 357.65 251.85 357.7 252.9 357.65 253.45 357.65 254.3 357.65 255.2 358.6 263.15 367.05 263.05 360.45 Q263.1 359.75 263.55 359.3 L264.0 358.9 Q264.75 358.4 265.55 358.55 L265.45 356.25 264.7 339.0 264.5 338.4 261.2 324.45 261.1 324.0 260.3 319.3 254.8 316.15 245.5 311.0 245.0 310.75 233.1 310.4 231.5 309.3 Q230.8 308.65 230.5 307.75 L230.45 307.4 Q230.55 305.45 232.7 304.35 L232.95 304.25 M216.3 290.35 L216.1 285.9 214.5 289.95 214.55 297.1 214.7 303.65 214.9 312.75 215.6 307.75 216.2 301.05 216.3 290.35 M118.9 305.45 Q118.7 309.15 118.9 312.6 L119.4 318.1 Q120.0 322.0 121.0 323.65 121.1 318.65 120.6 313.05 L119.65 308.3 118.9 305.45" fill="#ffffff" fill-rule="evenodd" stroke="none"/>
  </g>
</svg>
