<?xml version="1.0" encoding="UTF-8" standalone="no"?>
<svg xmlns:xlink="http://www.w3.org/1999/xlink" height="18.0px" width="203.0px" xmlns="http://www.w3.org/2000/svg">
  <g transform="matrix(1.0, 0.0, 0.0, 1.0, 4.5, 9.0)">
    <path d="M7.0 -8.5 Q85.9 -8.5 141.75 -6.0 198.0 -3.5 198.0 0.0 198.0 3.5 141.75 6.0 85.9 8.5 7.0 8.5 L6.95 8.5 Q2.4 8.5 -0.8 6.0 -4.0 3.5 -4.0 0.0 -4.0 -3.5 -0.8 -6.0 2.4 -8.5 6.95 -8.5 L7.0 -8.5" fill="#000000" fill-rule="evenodd" stroke="none"/>
    <path d="M7.0 -8.5 Q85.9 -8.5 141.75 -6.0 198.0 -3.5 198.0 0.0 198.0 3.5 141.75 6.0 85.9 8.5 7.0 8.5 L6.95 8.5 Q2.4 8.5 -0.8 6.0 -4.0 3.5 -4.0 0.0 -4.0 -3.5 -0.8 -6.0 2.4 -8.5 6.95 -8.5 L7.0 -8.5 Z" fill="none" stroke="#c923dc" stroke-linecap="round" stroke-linejoin="round" stroke-width="1.0"/>
  </g>
</svg>
