<?xml version="1.0" encoding="UTF-8" standalone="no"?>
<svg xmlns:xlink="http://www.w3.org/1999/xlink" height="240.0px" width="168.0px" xmlns="http://www.w3.org/2000/svg">
  <g transform="matrix(1.0, 0.0, 0.0, 1.0, 0.0, 0.0)">
    <path d="M167.5 19.0 L167.5 237.5 Q167.5 239.5 165.5 239.5 L2.5 239.5 Q0.5 239.5 0.5 237.5 L0.5 2.5 Q0.5 0.5 2.5 0.5 L84.0 0.5 84.0 19.0 167.5 19.0" fill="#383b3f" fill-rule="evenodd" stroke="none"/>
    <path d="M167.5 18.0 L168.0 18.0 168.0 19.0 167.5 19.0 84.0 19.0 84.0 0.5 84.0 0.0 85.0 0.0 85.0 0.5 85.0 18.0 167.5 18.0" fill="#000000" fill-rule="evenodd" stroke="none"/>
    <path d="M85.0 0.5 L165.5 0.5 Q167.5 0.5 167.5 2.5 L167.5 18.0 85.0 18.0 85.0 0.5" fill="#232528" fill-rule="evenodd" stroke="none"/>
    <path d="M85.0 0.5 L165.5 0.5 Q167.5 0.5 167.5 2.5 L167.5 18.0 M167.5 19.0 L167.5 237.5 Q167.5 239.5 165.5 239.5 L2.5 239.5 Q0.5 239.5 0.5 237.5 L0.5 2.5 Q0.5 0.5 2.5 0.5 L84.0 0.5" fill="none" stroke="#000000" stroke-linecap="round" stroke-linejoin="round" stroke-width="1.0"/>
    <path d="M163.0 147.0 L163.0 148.0 5.0 148.0 5.0 147.0 163.0 147.0" fill="#45474a" fill-rule="evenodd" stroke="none"/>
    <path d="M5.0 147.0 L5.0 146.0 163.0 146.0 163.0 147.0 5.0 147.0" fill="#232528" fill-rule="evenodd" stroke="none"/>
  </g>
</svg>
