<?xml version="1.0" encoding="UTF-8" standalone="no"?>
<svg xmlns:xlink="http://www.w3.org/1999/xlink" height="11.0px" width="9.0px" xmlns="http://www.w3.org/2000/svg">
  <g transform="matrix(1.0, 0.0, 0.0, 1.0, -10.0, 1.0)">
    <path d="M14.0 -1.0 L14.0 0.0 15.0 0.0 15.0 1.0 16.0 1.0 16.0 2.0 17.0 2.0 17.0 3.0 18.0 3.0 18.0 4.0 19.0 4.0 19.0 5.0 18.0 5.0 18.0 6.0 17.0 6.0 17.0 7.0 16.0 7.0 16.0 8.0 15.0 8.0 15.0 9.0 14.0 9.0 14.0 10.0 12.0 10.0 12.0 6.0 11.0 6.0 11.0 5.0 10.0 5.0 10.0 4.0 11.0 4.0 11.0 3.0 12.0 3.0 12.0 -1.0 14.0 -1.0" fill="#000000" fill-opacity="0.12156863" fill-rule="evenodd" stroke="none"/>
  </g>
</svg>
