<?xml version="1.0" encoding="UTF-8" standalone="no"?>
<svg xmlns:xlink="http://www.w3.org/1999/xlink" height="9.0px" width="7.0px" xmlns="http://www.w3.org/2000/svg">
  <g transform="matrix(1.0, 0.0, 0.0, 1.0, 2.0, 0.0)">
    <path d="M4.0 3.0 L4.0 4.0 5.0 4.0 5.0 5.0 4.0 5.0 4.0 6.0 3.0 6.0 3.0 7.0 2.0 7.0 2.0 8.0 1.0 8.0 1.0 9.0 0.0 9.0 0.0 7.0 1.0 7.0 1.0 6.0 -1.0 6.0 -1.0 5.0 -2.0 5.0 -2.0 4.0 -1.0 4.0 -1.0 3.0 1.0 3.0 1.0 2.0 0.0 2.0 0.0 0.0 1.0 0.0 1.0 1.0 2.0 1.0 2.0 2.0 3.0 2.0 3.0 3.0 4.0 3.0 M1.0 3.0 L1.0 4.0 2.0 4.0 2.0 5.0 1.0 5.0 1.0 6.0 2.0 6.0 2.0 5.0 3.0 5.0 3.0 4.0 2.0 4.0 2.0 3.0 1.0 3.0" fill="#e1294e" fill-rule="evenodd" stroke="none"/>
  </g>
</svg>
