<?xml version="1.0" encoding="UTF-8" standalone="no"?>
<svg xmlns:xlink="http://www.w3.org/1999/xlink" height="161.0px" width="28.7px" xmlns="http://www.w3.org/2000/svg">
  <g transform="matrix(1.0, 0.0, 0.0, 1.0, 14.35, 77.0)">
    <path d="M0.0 43.0 L-4.0 45.0 Q-4.1 43.5 -4.8 41.9 -5.5 40.25 -7.0 40.0 L-4.5 33.5 Q-1.65 27.0 0.0 27.0 1.65 27.0 4.5 33.5 L7.0 40.0 Q5.1 40.65 4.65 42.15 4.2 43.6 4.0 45.0 L0.0 43.0" fill="url(#gradient0)" fill-rule="evenodd" stroke="none"/>
    <path d="M2.9 66.35 Q3.1 72.05 3.7 76.0 L-3.7 76.0 Q-3.1 72.05 -2.9 66.35 -2.65 60.6 -3.0 57.0 L-0.05 57.0 3.0 57.0 Q2.65 60.6 2.9 66.35" fill="url(#gradient1)" fill-rule="evenodd" stroke="none"/>
    <path d="M2.85 59.0 L2.85 60.0 -2.8 60.0 -2.85 59.0 2.85 59.0" fill="url(#gradient2)" fill-rule="evenodd" stroke="none"/>
    <path d="M3.35 73.0 L3.45 74.0 -3.4 74.0 -3.3 73.0 3.35 73.0" fill="url(#gradient3)" fill-rule="evenodd" stroke="none"/>
    <path d="M5.0 52.0 Q3.55 53.9 3.0 57.0 L-3.0 57.0 Q-3.55 53.9 -5.0 52.0 L0.0 52.0 5.0 52.0" fill="url(#gradient4)" fill-rule="evenodd" stroke="none"/>
    <path d="M5.0 52.0 L-5.0 52.0 -4.0 50.0 4.0 50.0 5.0 52.0" fill="url(#gradient5)" fill-rule="evenodd" stroke="none"/>
    <path d="M2.0 79.0 L0.0 79.0 -2.0 79.0 -2.0 78.0 0.0 78.0 2.0 78.0 2.0 79.0" fill="#838383" fill-rule="evenodd" stroke="none"/>
    <path d="M-2.0 79.0 L0.0 79.0 2.0 79.0 Q2.0 79.9 4.0 81.0 3.75 82.25 2.3 83.2 1.0 84.0 0.0 84.0 -1.0 84.0 -2.3 83.2 -3.75 82.25 -4.0 81.0 -2.0 79.9 -2.0 79.0" fill="url(#gradient6)" fill-rule="evenodd" stroke="none"/>
    <path d="M2.0 78.0 L0.0 78.0 -2.0 78.0 -3.0 78.0 -4.0 78.0 -3.7 76.0 3.7 76.0 4.0 78.0 3.0 78.0 2.0 78.0" fill="url(#gradient7)" fill-rule="evenodd" stroke="none"/>
    <path d="M0.0 42.0 L4.0 45.0 Q3.3 47.05 4.0 50.0 L0.0 50.0 0.0 42.0" fill="url(#gradient8)" fill-rule="evenodd" stroke="none"/>
    <path d="M0.0 42.0 L0.0 50.0 -4.0 50.0 Q-3.3 47.05 -4.0 45.0 L0.0 42.0" fill="url(#gradient9)" fill-rule="evenodd" stroke="none"/>
    <path d="M4.0 47.0 L0.0 44.65 -4.0 47.0 -5.0 45.0 0.0 43.0 5.0 45.0 4.0 47.0" fill="#000000" fill-opacity="0.2509804" fill-rule="evenodd" stroke="none"/>
    <path d="M10.2 47.3 Q12.95 48.85 14.0 48.35 14.7 50.05 13.9 51.3 13.05 52.5 11.2 52.4 11.45 49.75 2.1 44.65 L1.7 45.85 Q1.0 48.35 1.7 50.0 L0.0 50.0 -1.7 50.0 Q-1.0 48.35 -1.7 45.85 L-2.1 44.65 Q-11.45 49.75 -11.2 52.4 -13.05 52.5 -13.9 51.3 -14.7 50.05 -14.0 48.35 -12.95 48.85 -10.2 47.3 -7.25 45.55 -2.95 41.65 L-1.45 40.25 -0.7 34.75 Q-0.4 33.0 0.0 33.0 0.4 33.0 0.7 34.75 L1.45 40.25 2.95 41.65 Q7.25 45.55 10.2 47.3" fill="url(#gradient10)" fill-rule="evenodd" stroke="none"/>
    <path d="M1.0 43.0 L0.7 44.4 Q0.4 45.0 0.0 45.0 -0.4 45.0 -0.7 44.4 L-1.0 43.0 -0.7 41.55 Q-0.4 41.0 0.0 41.0 0.4 41.0 0.7 41.55 L1.0 43.0" fill="url(#gradient11)" fill-rule="evenodd" stroke="none"/>
    <path d="M0.35 42.3 L0.5 43.0 0.35 43.7 0.0 44.0 -0.35 43.7 -0.5 43.0 -0.35 42.3 Q-0.2 42.0 0.0 42.0 0.2 42.0 0.35 42.3" fill="url(#gradient12)" fill-rule="evenodd" stroke="none"/>
    <path d="M4.0 50.0 L-4.0 50.0 -4.0 49.0 4.0 49.0 4.0 50.0" fill="#000000" fill-opacity="0.15294118" fill-rule="evenodd" stroke="none"/>
    <path d="M4.0 56.0 L-4.0 56.0 -4.0 55.0 4.0 55.0 4.0 56.0" fill="#000000" fill-opacity="0.2" fill-rule="evenodd" stroke="none"/>
    <path d="M0.5 26.15 Q0.8 26.25 3.9 33.15 L7.0 40.0 Q6.35 40.25 5.85 40.55 L2.4 37.8 2.05 37.2 Q0.8 30.75 0.0 28.75 -0.8 30.75 -2.0 37.2 L-2.35 37.8 -5.8 40.55 Q-6.3 40.1 -7.0 40.0 L-3.9 33.15 Q-0.75 26.25 -0.45 26.15 L0.0 26.0 0.5 26.15" fill="#000000" fill-opacity="0.3019608" fill-rule="evenodd" stroke="none"/>
    <path d="M0.0 -61.0 L-4.0 -66.0 0.0 -77.0 4.0 -66.0 0.0 -61.0" fill="#ffffff" fill-rule="evenodd" stroke="none"/>
    <path d="M0.0 -61.0 L4.0 -66.0 Q4.0 -27.0 4.6 -6.2 5.4 21.25 7.55 37.7 L8.0 41.0 3.0 37.0 Q1.2 27.65 0.0 27.0 L0.0 -61.0" fill="url(#gradient13)" fill-rule="evenodd" stroke="none"/>
    <path d="M0.0 -61.0 L0.0 27.0 Q-1.2 27.65 -3.0 37.0 L-8.0 41.0 -7.55 37.7 Q-5.35 21.25 -4.6 -6.2 -4.0 -27.0 -4.0 -66.0 L0.0 -61.0" fill="url(#gradient14)" fill-rule="evenodd" stroke="none"/>
  </g>
  <defs>
    <linearGradient gradientTransform="matrix(-0.0081, 0.0, 0.0, 0.0122, 0.0, 37.0)" gradientUnits="userSpaceOnUse" id="gradient0" spreadMethod="pad" x1="-819.2" x2="819.2">
      <stop offset="0.12156862745098039" stop-color="#617181"/>
      <stop offset="0.22745098039215686" stop-color="#45505c"/>
      <stop offset="0.8156862745098039" stop-color="#45505c"/>
      <stop offset="0.9058823529411765" stop-color="#617181"/>
    </linearGradient>
    <linearGradient gradientTransform="matrix(0.0046, 0.0, 0.0, 0.0098, 0.0, 66.0)" gradientUnits="userSpaceOnUse" id="gradient1" spreadMethod="pad" x1="-819.2" x2="819.2">
      <stop offset="0.07450980392156863" stop-color="#2f423e"/>
      <stop offset="0.4627450980392157" stop-color="#6c9f96"/>
      <stop offset="0.5372549019607843" stop-color="#6c9f96"/>
      <stop offset="0.9254901960784314" stop-color="#2f423e"/>
    </linearGradient>
    <linearGradient gradientTransform="matrix(0.0049, 0.0, 0.0, 6.0E-4, 0.0, 59.5)" gradientUnits="userSpaceOnUse" id="gradient2" spreadMethod="pad" x1="-819.2" x2="819.2">
      <stop offset="0.050980392156862744" stop-color="#585858"/>
      <stop offset="0.4235294117647059" stop-color="#bbbbbb"/>
      <stop offset="0.5686274509803921" stop-color="#b8b8b8"/>
      <stop offset="0.9450980392156862" stop-color="#464646"/>
    </linearGradient>
    <linearGradient gradientTransform="matrix(0.0049, 0.0, 0.0, 6.0E-4, 0.0, 73.5)" gradientUnits="userSpaceOnUse" id="gradient3" spreadMethod="pad" x1="-819.2" x2="819.2">
      <stop offset="0.050980392156862744" stop-color="#585858"/>
      <stop offset="0.4235294117647059" stop-color="#bbbbbb"/>
      <stop offset="0.5686274509803921" stop-color="#b8b8b8"/>
      <stop offset="0.9450980392156862" stop-color="#464646"/>
    </linearGradient>
    <linearGradient gradientTransform="matrix(0.0073, 0.0, 0.0, 0.0012, 0.0, 56.0)" gradientUnits="userSpaceOnUse" id="gradient4" spreadMethod="pad" x1="-819.2" x2="819.2">
      <stop offset="0.00392156862745098" stop-color="#313131"/>
      <stop offset="0.00784313725490196" stop-color="#313131"/>
      <stop offset="0.44313725490196076" stop-color="#cdcdcd"/>
      <stop offset="0.5647058823529412" stop-color="#cdcdcd"/>
      <stop offset="1.0" stop-color="#313131"/>
    </linearGradient>
    <linearGradient gradientTransform="matrix(0.0073, 0.0, 0.0, 0.0012, 0.0, 56.0)" gradientUnits="userSpaceOnUse" id="gradient5" spreadMethod="pad" x1="-819.2" x2="819.2">
      <stop offset="0.00784313725490196" stop-color="#8a8a8a"/>
      <stop offset="0.3607843137254902" stop-color="#dfdfdf"/>
      <stop offset="0.615686274509804" stop-color="#e2e2e2"/>
      <stop offset="1.0" stop-color="#7b7b7b"/>
    </linearGradient>
    <linearGradient gradientTransform="matrix(0.0024, -0.0034, 0.001, 7.0E-4, -0.9, 80.25)" gradientUnits="userSpaceOnUse" id="gradient6" spreadMethod="pad" x1="-819.2" x2="819.2">
      <stop offset="0.06666666666666667" stop-color="#868686"/>
      <stop offset="0.5058823529411764" stop-color="#bbbbbb"/>
      <stop offset="0.7803921568627451" stop-color="#dfdfdf"/>
    </linearGradient>
    <linearGradient gradientTransform="matrix(0.0048, 0.0, 0.0, 0.0098, 0.0, 66.0)" gradientUnits="userSpaceOnUse" id="gradient7" spreadMethod="pad" x1="-819.2" x2="819.2">
      <stop offset="0.050980392156862744" stop-color="#717171"/>
      <stop offset="0.4235294117647059" stop-color="#dfdfdf"/>
      <stop offset="0.5686274509803921" stop-color="#e2e2e2"/>
      <stop offset="0.9450980392156862" stop-color="#717171"/>
    </linearGradient>
    <radialGradient cx="0" cy="0" gradientTransform="matrix(-0.0035, 0.0, 0.0, 0.0064, 3.95, 47.8)" gradientUnits="userSpaceOnUse" id="gradient8" r="819.2" spreadMethod="pad">
      <stop offset="0.2627450980392157" stop-color="#d0d0d0"/>
      <stop offset="0.6470588235294118" stop-color="#b8b8b8"/>
      <stop offset="0.7607843137254902" stop-color="#8a8a8a"/>
    </radialGradient>
    <radialGradient cx="0" cy="0" gradientTransform="matrix(0.0035, 0.0, 0.0, 0.0064, -3.95, 47.8)" gradientUnits="userSpaceOnUse" id="gradient9" r="819.2" spreadMethod="pad">
      <stop offset="0.2627450980392157" stop-color="#d0d0d0"/>
      <stop offset="0.6470588235294118" stop-color="#b8b8b8"/>
      <stop offset="0.7607843137254902" stop-color="#8a8a8a"/>
    </radialGradient>
    <radialGradient cx="0" cy="0" gradientTransform="matrix(0.021, 0.0, 0.0, 0.0302, 0.0, 36.0)" gradientUnits="userSpaceOnUse" id="gradient10" r="819.2" spreadMethod="pad">
      <stop offset="0.25098039215686274" stop-color="#e2e2e2"/>
      <stop offset="0.6274509803921569" stop-color="#b5b5b5"/>
      <stop offset="0.8392156862745098" stop-color="#cdcdcd"/>
      <stop offset="0.9607843137254902" stop-color="#ededed"/>
    </radialGradient>
    <linearGradient gradientTransform="matrix(0.0, -0.0026, 0.0024, 0.0, 0.0, 43.0)" gradientUnits="userSpaceOnUse" id="gradient11" spreadMethod="pad" x1="-819.2" x2="819.2">
      <stop offset="0.054901960784313725" stop-color="#ffffff"/>
      <stop offset="0.38823529411764707" stop-color="#dfdfdf"/>
      <stop offset="0.8784313725490196" stop-color="#777978"/>
    </linearGradient>
    <radialGradient cx="0" cy="0" gradientTransform="matrix(0.001, 0.0, 0.0, 0.0016, 0.05, 42.55)" gradientUnits="userSpaceOnUse" id="gradient12" r="819.2" spreadMethod="pad">
      <stop offset="0.050980392156862744" stop-color="#e2e2e2"/>
      <stop offset="0.6823529411764706" stop-color="#9f9f9f"/>
    </radialGradient>
    <linearGradient gradientTransform="matrix(0.0312, -0.0439, 0.0537, 0.0381, 3.9, -11.9)" gradientUnits="userSpaceOnUse" id="gradient13" spreadMethod="pad" x1="-819.2" x2="819.2">
      <stop offset="0.0" stop-color="#dfdfdf"/>
      <stop offset="0.20392156862745098" stop-color="#fbfbfb"/>
      <stop offset="0.43529411764705883" stop-color="#ffffff"/>
      <stop offset="1.0" stop-color="#e2e2e2"/>
    </linearGradient>
    <linearGradient gradientTransform="matrix(-0.0312, -0.0439, -0.0537, 0.0381, -3.9, -11.9)" gradientUnits="userSpaceOnUse" id="gradient14" spreadMethod="pad" x1="-819.2" x2="819.2">
      <stop offset="0.0" stop-color="#a6a6a6"/>
      <stop offset="0.43529411764705883" stop-color="#d0d0d0"/>
      <stop offset="1.0" stop-color="#b5b5b5"/>
    </linearGradient>
  </defs>
</svg>
