<?xml version="1.0" encoding="UTF-8" standalone="no"?>
<svg xmlns:xlink="http://www.w3.org/1999/xlink" height="127.0px" width="45.0px" xmlns="http://www.w3.org/2000/svg">
  <g transform="matrix(1.0, 0.0, 0.0, 1.0, 22.5, 64.5)">
    <path d="M3.5 -62.0 L3.5 -61.2 Q7.85 -60.5 11.4 -57.85 L12.05 -57.95 Q13.1 -57.95 13.85 -57.2 L15.25 -55.8 Q15.95 -55.1 15.95 -54.05 L15.9 -53.4 Q18.5 -49.85 19.25 -45.5 L20.0 -45.5 Q21.05 -45.5 21.8 -44.75 22.5 -44.05 22.5 -43.0 L22.5 -41.0 Q22.5 -39.95 21.8 -39.2 21.05 -38.5 20.0 -38.5 L19.25 -38.5 Q19.05 -37.65 18.4 -37.1 17.7 -36.5 16.8 -36.5 L14.75 -36.5 Q13.95 -36.5 13.35 -36.9 L12.75 -37.45 Q11.75 -34.7 9.55 -32.5 L9.5 -32.45 Q8.2 -31.15 6.7 -30.25 L6.65 -29.9 7.1 -29.35 9.1 -26.35 Q9.55 -25.7 9.5 -24.85 9.45 -24.0 8.9 -23.35 7.75 -22.05 7.35 -20.2 6.8 -17.7 7.4 -15.75 7.7 -14.8 7.25 -13.85 L6.05 -11.45 6.25 -11.1 13.85 -10.5 13.95 -10.5 Q15.55 -10.4 16.25 -9.6 16.9 -8.9 16.9 -7.5 16.9 -4.5 13.8 -4.5 L13.5 -4.5 Q15.15 -4.4 15.8 -3.65 16.45 -2.95 16.45 -1.5 16.45 1.5 13.35 1.5 L12.9 1.5 Q14.5 1.65 15.15 2.35 15.75 3.05 15.75 4.5 15.75 7.5 12.65 7.5 14.15 7.65 14.8 8.35 15.45 9.0 15.45 10.5 15.45 13.5 12.35 13.5 13.7 13.7 14.3 14.45 14.85 15.1 14.85 16.45 14.85 19.45 11.75 19.45 L10.85 19.5 11.5 19.5 Q13.15 19.6 13.8 20.35 14.45 21.05 14.45 22.5 14.45 25.5 11.35 25.5 L6.5 26.0 6.4 26.75 6.0 28.15 8.95 29.7 Q9.6 29.95 10.0 30.5 10.45 31.05 10.5 31.8 L10.25 33.1 Q8.35 37.0 7.8 42.15 7.35 45.85 7.5 52.95 L7.05 54.45 2.05 61.45 0.8 62.4 0.0 62.5 -0.8 62.4 -2.05 61.45 -7.05 54.45 -7.5 52.95 Q-7.35 45.85 -7.8 42.15 -8.35 37.0 -10.25 33.1 L-10.5 31.8 Q-10.45 31.05 -10.0 30.5 -9.6 29.95 -8.95 29.7 L-6.0 28.15 -6.4 26.75 -6.5 26.0 -11.35 25.5 Q-14.45 25.5 -14.45 22.5 -14.45 21.05 -13.8 20.35 -13.15 19.6 -11.5 19.5 L-10.85 19.5 -11.75 19.45 Q-14.85 19.45 -14.85 16.45 -14.85 15.1 -14.3 14.45 -13.7 13.7 -12.35 13.5 -15.45 13.5 -15.45 10.5 -15.45 9.0 -14.8 8.35 -14.15 7.65 -12.65 7.5 -15.75 7.5 -15.75 4.5 -15.75 3.05 -15.15 2.35 -14.5 1.65 -12.9 1.5 L-13.35 1.5 Q-16.45 1.5 -16.45 -1.5 -16.45 -2.95 -15.8 -3.65 -15.15 -4.4 -13.5 -4.5 L-13.8 -4.5 Q-16.9 -4.5 -16.9 -7.5 -16.9 -8.9 -16.25 -9.6 -15.55 -10.4 -13.95 -10.5 L-13.85 -10.5 -6.25 -11.1 -6.05 -11.45 -7.25 -13.85 Q-7.7 -14.8 -7.4 -15.75 -6.8 -17.7 -7.35 -20.2 -7.75 -22.05 -8.9 -23.35 -9.45 -24.0 -9.5 -24.85 -9.55 -25.7 -9.1 -26.35 L-7.1 -29.35 -6.65 -29.9 -6.7 -30.25 Q-8.2 -31.15 -9.5 -32.45 L-9.55 -32.5 Q-11.75 -34.7 -12.75 -37.45 L-13.35 -36.9 Q-13.95 -36.5 -14.75 -36.5 L-16.8 -36.5 Q-17.7 -36.5 -18.4 -37.1 -19.05 -37.65 -19.25 -38.5 L-20.0 -38.5 Q-21.05 -38.5 -21.8 -39.2 -22.5 -39.95 -22.5 -41.0 L-22.5 -43.0 Q-22.5 -44.05 -21.8 -44.75 -21.05 -45.5 -20.0 -45.5 L-19.25 -45.5 Q-18.5 -49.85 -15.9 -53.4 L-15.95 -54.05 Q-15.95 -55.1 -15.25 -55.8 L-13.85 -57.2 Q-13.1 -57.95 -12.05 -57.95 L-11.4 -57.85 Q-7.85 -60.5 -3.5 -61.2 L-3.5 -62.0 Q-3.5 -63.05 -2.8 -63.75 -2.05 -64.5 -1.0 -64.5 L1.0 -64.5 Q2.05 -64.5 2.8 -63.75 3.5 -63.05 3.5 -62.0" fill="#000000" fill-rule="evenodd" stroke="none"/>
    <path d="M0.0 -25.0 L4.7 -25.0 Q3.35 -23.2 2.85 -20.75 2.25 -17.5 2.9 -15.0 L0.0 -15.0 0.0 -25.0" fill="url(#gradient0)" fill-rule="evenodd" stroke="none"/>
    <path d="M-4.0 -20.0 Q-4.55 -23.1 -6.0 -25.0 L-4.7 -25.0 Q-3.4 -23.2 -2.9 -20.75 -2.25 -17.5 -3.0 -15.0 L-4.0 -15.0 Q-3.5 -17.4 -4.0 -20.0" fill="url(#gradient1)" fill-rule="evenodd" stroke="none"/>
    <path d="M0.0 -15.0 L-3.0 -15.0 Q-2.25 -17.5 -2.9 -20.75 -3.4 -23.2 -4.7 -25.0 L0.0 -25.0 0.0 -15.0" fill="url(#gradient2)" fill-rule="evenodd" stroke="none"/>
    <path d="M4.0 -20.0 Q3.5 -17.4 4.0 -15.0 L2.9 -15.0 Q2.25 -17.5 2.85 -20.75 3.35 -23.2 4.7 -25.0 L6.0 -25.0 Q4.55 -23.1 4.0 -20.0" fill="url(#gradient3)" fill-rule="evenodd" stroke="none"/>
    <path d="M1.0 -54.0 L2.0 -54.0 2.0 -52.0 -2.0 -52.0 -2.0 -54.0 -1.0 -54.0 1.0 -54.0" fill="url(#gradient4)" fill-rule="evenodd" stroke="none"/>
    <path d="M12.0 -41.0 L12.0 -40.0 10.0 -40.0 10.0 -44.0 12.0 -44.0 12.0 -43.0 12.0 -41.0" fill="url(#gradient5)" fill-rule="evenodd" stroke="none"/>
    <path d="M-12.0 -43.0 L-12.0 -44.0 -10.0 -44.0 -10.0 -40.0 -12.0 -40.0 -12.0 -41.0 -12.0 -43.0" fill="url(#gradient6)" fill-rule="evenodd" stroke="none"/>
    <path d="M2.5 26.0 L-2.5 26.0 -2.5 -12.0 2.5 -12.0 2.5 26.0" fill="url(#gradient7)" fill-rule="evenodd" stroke="none"/>
    <path d="M-1.0 -54.0 L-1.0 -62.0 1.0 -62.0 1.0 -54.0 -1.0 -54.0" fill="url(#gradient8)" fill-rule="evenodd" stroke="none"/>
    <path d="M12.0 -43.0 L20.0 -43.0 20.0 -41.0 12.0 -41.0 12.0 -43.0" fill="url(#gradient9)" fill-rule="evenodd" stroke="none"/>
    <path d="M13.45 -54.05 L7.75 -48.35 6.35 -49.75 12.05 -55.45 13.45 -54.05" fill="url(#gradient10)" fill-rule="evenodd" stroke="none"/>
    <path d="M-12.05 -55.45 L-6.35 -49.75 -7.75 -48.35 -13.45 -54.05 -12.05 -55.45" fill="url(#gradient11)" fill-rule="evenodd" stroke="none"/>
    <path d="M-12.0 -41.0 L-20.0 -41.0 -20.0 -43.0 -12.0 -43.0 -12.0 -41.0" fill="url(#gradient12)" fill-rule="evenodd" stroke="none"/>
    <path d="M4.0 -33.0 Q3.5 -32.15 3.2 -30.6 2.95 -29.2 3.0 -28.0 L-3.0 -28.0 Q-2.95 -29.2 -3.2 -30.6 -3.5 -32.15 -4.0 -33.0 L4.0 -33.0" fill="url(#gradient13)" fill-rule="evenodd" stroke="none"/>
    <path d="M3.95 36.4 Q4.5 35.85 4.5 35.0 4.5 34.15 3.95 33.55 3.4 33.05 2.7 33.0 L-2.65 33.0 -2.65 33.1 -2.65 33.0 Q-3.4 33.05 -3.95 33.55 -4.5 34.15 -4.5 35.0 -4.5 35.85 -3.95 36.4 -3.35 37.0 -2.5 37.0 L2.5 37.0 Q3.35 37.0 3.95 36.4 M2.9 41.15 Q3.35 40.75 3.35 40.05 3.35 39.35 2.9 38.9 L2.35 38.55 -2.35 38.55 -2.9 38.9 Q-3.35 39.35 -3.35 40.05 -3.35 40.75 -2.9 41.15 L-2.2 41.6 2.25 41.6 2.9 41.15 M3.55 29.5 Q5.75 31.1 8.0 32.0 5.9 36.25 5.3 41.85 4.85 45.65 5.0 53.0 L0.0 60.0 -5.0 53.0 Q-4.85 45.65 -5.3 41.85 -5.9 36.25 -8.0 32.0 -5.75 31.1 -3.55 29.5 L-3.2 29.25 0.0 29.05 3.25 29.25 3.55 29.5 M2.85 44.5 L2.55 43.8 1.9 43.5 -2.0 43.5 Q-2.3 43.5 -2.6 43.8 L-2.9 44.5 -2.6 45.2 -1.9 45.5 1.85 45.5 2.55 45.2 2.85 44.5" fill="url(#gradient14)" fill-rule="evenodd" stroke="none"/>
    <path d="M8.0 -42.0 Q8.0 -38.7 5.65 -36.35 3.3 -34.0 0.0 -34.0 -3.3 -34.0 -5.65 -36.35 -8.0 -38.7 -8.0 -42.0 -8.0 -45.3 -5.65 -47.65 -3.3 -50.0 0.0 -50.0 3.3 -50.0 5.65 -47.65 8.0 -45.3 8.0 -42.0" fill="url(#gradient15)" fill-rule="evenodd" stroke="none"/>
    <path d="M7.75 -49.8 Q11.0 -46.55 11.0 -42.0 11.0 -37.45 7.75 -34.25 4.55 -31.0 0.0 -31.0 -4.55 -31.0 -7.8 -34.25 -11.0 -37.45 -11.0 -42.0 -11.0 -46.55 -7.8 -49.8 -4.55 -53.0 0.0 -53.0 4.55 -53.0 7.75 -49.8 M9.0 -42.0 Q9.0 -45.75 6.35 -48.4 3.75 -51.0 0.0 -51.0 -3.75 -51.0 -6.4 -48.4 -9.0 -45.75 -9.0 -42.0 -9.0 -38.25 -6.4 -35.65 -3.75 -33.0 0.0 -33.0 3.75 -33.0 6.35 -35.65 9.0 -38.25 9.0 -42.0" fill="url(#gradient16)" fill-rule="evenodd" stroke="none"/>
    <path d="M12.0 -54.05 Q16.65 -49.4 17.0 -43.0 L17.0 -39.0 15.0 -39.0 15.0 -43.0 Q14.65 -48.55 10.6 -52.6 6.2 -57.0 0.0 -57.0 -6.2 -57.0 -10.6 -52.6 -14.65 -48.55 -14.95 -43.0 L-15.0 -39.0 -17.0 -39.0 -16.95 -43.0 Q-16.65 -49.4 -12.05 -54.05 -7.4 -58.65 -1.0 -58.95 L0.0 -59.0 1.0 -58.95 Q7.4 -58.65 12.0 -54.05" fill="url(#gradient17)" fill-rule="evenodd" stroke="none"/>
    <path d="M8.0 -42.0 Q8.0 -45.3 5.65 -47.65 3.3 -50.0 0.0 -50.0 -3.3 -50.0 -5.65 -47.65 -8.0 -45.3 -8.0 -42.0 -8.0 -38.7 -5.65 -36.35 -3.3 -34.0 0.0 -34.0 3.3 -34.0 5.65 -36.35 8.0 -38.7 8.0 -42.0 M9.0 -42.0 Q9.0 -38.25 6.35 -35.65 3.75 -33.0 0.0 -33.0 -3.75 -33.0 -6.4 -35.65 -9.0 -38.25 -9.0 -42.0 -9.0 -45.75 -6.4 -48.4 -3.75 -51.0 0.0 -51.0 3.75 -51.0 6.35 -48.4 9.0 -45.75 9.0 -42.0" fill="url(#gradient18)" fill-rule="evenodd" stroke="none"/>
    <path d="M6.0 -25.0 L-6.0 -25.0 -4.0 -28.0 4.0 -28.0 6.0 -25.0" fill="url(#gradient19)" fill-rule="evenodd" stroke="none"/>
    <path d="M3.0 -12.0 L-3.0 -12.0 -4.0 -15.0 4.0 -15.0 3.0 -12.0" fill="url(#gradient20)" fill-rule="evenodd" stroke="none"/>
    <path d="M4.0 -5.0 L-4.0 -5.0 -4.0 -10.0 4.0 -10.0 4.0 -5.0 M4.0 25.0 L-4.0 25.0 -4.0 20.0 4.0 20.0 4.0 25.0 M4.0 19.0 L-4.0 19.0 -4.0 14.0 4.0 14.0 4.0 19.0 M4.0 13.0 L-4.0 13.0 -4.0 8.0 4.0 8.0 4.0 13.0 M4.0 7.0 L-4.0 7.0 -4.0 2.0 4.0 2.0 4.0 7.0 M4.0 1.0 L-4.0 1.0 -4.0 -4.0 4.0 -4.0 4.0 1.0" fill="url(#gradient21)" fill-rule="evenodd" stroke="none"/>
    <path d="M0.0 26.0 L4.0 26.0 Q2.95 30.1 2.2 38.3 1.5 45.8 1.4 52.55 1.35 54.7 0.7 55.55 0.35 56.0 0.0 56.0 -0.35 56.0 -0.7 55.55 -1.35 54.7 -1.4 52.55 -1.5 45.8 -2.2 38.3 -2.95 30.1 -4.0 26.0 L0.0 26.0" fill="url(#gradient22)" fill-rule="evenodd" stroke="none"/>
    <path d="M-5.0 53.0 L0.0 60.0" fill="none" stroke="#555555" stroke-linecap="round" stroke-linejoin="bevel" stroke-width="0.5"/>
    <path d="M-5.0 53.0 Q-4.85 45.45 -5.25 41.9 -5.8 36.3 -7.9 32.1" fill="none" stroke="url(#gradient23)" stroke-linecap="round" stroke-linejoin="bevel" stroke-width="0.5"/>
    <path d="M5.0 53.0 Q4.85 45.65 5.3 41.9 5.9 36.35 8.0 32.1" fill="none" stroke="url(#gradient24)" stroke-linecap="round" stroke-linejoin="bevel" stroke-width="0.5"/>
    <path d="M0.0 60.0 L5.0 53.0" fill="none" stroke="url(#gradient25)" stroke-linecap="round" stroke-linejoin="bevel" stroke-width="0.5"/>
    <path d="M4.0 -6.0 L4.0 -9.0 14.45 -8.0 Q15.1 -7.95 15.1 -7.5 15.1 -7.0 14.45 -7.0 L4.0 -6.0" fill="url(#gradient26)" fill-rule="evenodd" stroke="none"/>
    <path d="M14.65 -1.5 Q14.65 -1.0 14.0 -1.0 7.15 -0.9 4.0 0.0 L4.0 -3.0 14.0 -2.0 Q14.65 -1.95 14.65 -1.5" fill="url(#gradient27)" fill-rule="evenodd" stroke="none"/>
    <path d="M13.95 4.5 Q13.95 5.0 13.3 5.0 7.2 5.1 4.0 6.0 L4.0 3.0 Q6.85 3.75 13.3 4.0 13.95 4.05 13.95 4.5" fill="url(#gradient28)" fill-rule="evenodd" stroke="none"/>
    <path d="M13.65 10.5 Q13.65 11.0 13.0 11.0 7.2 11.1 4.0 12.0 L4.0 9.0 13.0 10.0 Q13.65 10.05 13.65 10.5" fill="url(#gradient29)" fill-rule="evenodd" stroke="none"/>
    <path d="M4.0 18.0 L4.0 15.0 12.4 15.95 Q13.05 16.0 13.05 16.45 13.05 16.95 12.4 16.95 7.45 17.05 4.0 18.0" fill="url(#gradient30)" fill-rule="evenodd" stroke="none"/>
    <path d="M4.0 24.0 L4.0 21.0 Q7.05 21.8 12.0 22.0 12.65 22.05 12.65 22.5 12.65 23.0 12.0 23.0 7.25 23.1 4.0 24.0" fill="url(#gradient31)" fill-rule="evenodd" stroke="none"/>
    <path d="M-14.65 -1.5 Q-14.65 -1.95 -14.0 -2.0 L-4.0 -3.0 -4.0 0.0 Q-7.15 -0.9 -14.0 -1.0 -14.65 -1.0 -14.65 -1.5" fill="url(#gradient32)" fill-rule="evenodd" stroke="none"/>
    <path d="M-15.1 -7.5 Q-15.1 -7.95 -14.45 -8.0 L-4.0 -9.0 -4.0 -6.0 -14.45 -7.0 Q-15.1 -7.0 -15.1 -7.5" fill="url(#gradient33)" fill-rule="evenodd" stroke="none"/>
    <path d="M-4.0 6.0 Q-7.2 5.1 -13.3 5.0 -13.95 5.0 -13.95 4.5 -13.95 4.05 -13.3 4.0 -6.85 3.75 -4.0 3.0 L-4.0 6.0" fill="url(#gradient34)" fill-rule="evenodd" stroke="none"/>
    <path d="M-4.0 12.0 Q-7.2 11.1 -13.0 11.0 -13.65 11.0 -13.65 10.5 -13.65 10.05 -13.0 10.0 L-4.0 9.0 -4.0 12.0" fill="url(#gradient35)" fill-rule="evenodd" stroke="none"/>
    <path d="M-13.05 16.45 Q-13.05 16.0 -12.4 15.95 L-4.0 15.0 -4.0 18.0 Q-7.45 17.05 -12.4 16.95 -13.05 16.95 -13.05 16.45" fill="url(#gradient36)" fill-rule="evenodd" stroke="none"/>
    <path d="M-12.65 22.5 Q-12.65 22.05 -12.0 22.0 -7.05 21.8 -4.0 21.0 L-4.0 24.0 Q-7.25 23.1 -12.0 23.0 -12.65 23.0 -12.65 22.5" fill="url(#gradient37)" fill-rule="evenodd" stroke="none"/>
    <path d="M7.0 -8.5 L7.0 -6.5 6.7 -5.8 Q6.4 -5.5 6.0 -5.5 5.6 -5.5 5.3 -5.8 5.0 -6.1 5.0 -6.5 L5.0 -8.5 5.3 -9.2 6.0 -9.5 Q6.4 -9.5 6.7 -9.2 L7.0 -8.5" fill="url(#gradient38)" fill-rule="evenodd" stroke="none"/>
    <path d="M5.0 -0.5 L5.0 -2.5 5.3 -3.2 6.0 -3.5 Q6.4 -3.5 6.7 -3.2 L7.0 -2.5 7.0 -0.5 6.7 0.2 Q6.4 0.5 6.0 0.5 L5.3 0.2 Q5.0 -0.1 5.0 -0.5" fill="url(#gradient39)" fill-rule="evenodd" stroke="none"/>
    <path d="M6.0 2.5 Q6.4 2.5 6.7 2.8 L7.0 3.5 7.0 5.5 6.7 6.2 Q6.4 6.5 6.0 6.5 L5.3 6.2 5.0 5.5 5.0 3.5 Q5.0 3.1 5.3 2.8 5.6 2.5 6.0 2.5" fill="url(#gradient40)" fill-rule="evenodd" stroke="none"/>
    <path d="M5.0 11.5 L5.0 9.5 Q5.0 9.1 5.3 8.8 5.6 8.5 6.0 8.5 6.4 8.5 6.7 8.8 L7.0 9.5 7.0 11.5 6.7 12.2 Q6.4 12.5 6.0 12.5 L5.3 12.2 5.0 11.5" fill="url(#gradient41)" fill-rule="evenodd" stroke="none"/>
    <path d="M7.0 17.5 L6.7 18.2 Q6.4 18.5 6.0 18.5 L5.3 18.2 5.0 17.5 5.0 15.5 Q5.0 15.1 5.3 14.8 5.6 14.5 6.0 14.5 6.4 14.5 6.7 14.8 L7.0 15.5 7.0 17.5" fill="url(#gradient42)" fill-rule="evenodd" stroke="none"/>
    <path d="M5.0 23.5 L5.0 21.5 Q5.0 21.1 5.3 20.8 5.6 20.5 6.0 20.5 6.4 20.5 6.7 20.8 L7.0 21.5 7.0 23.5 6.7 24.2 Q6.4 24.5 6.0 24.5 L5.3 24.2 5.0 23.5" fill="url(#gradient43)" fill-rule="evenodd" stroke="none"/>
    <path d="M-5.0 -6.5 Q-5.0 -6.1 -5.3 -5.8 -5.6 -5.5 -6.0 -5.5 -6.4 -5.5 -6.7 -5.8 L-7.0 -6.5 -7.0 -8.5 -6.7 -9.2 Q-6.4 -9.5 -6.0 -9.5 L-5.3 -9.2 -5.0 -8.5 -5.0 -6.5" fill="url(#gradient44)" fill-rule="evenodd" stroke="none"/>
    <path d="M-6.0 -3.5 L-5.3 -3.2 -5.0 -2.5 -5.0 -0.5 Q-5.0 -0.1 -5.3 0.2 L-6.0 0.5 Q-6.4 0.5 -6.7 0.2 L-7.0 -0.5 -7.0 -2.5 -6.7 -3.2 Q-6.4 -3.5 -6.0 -3.5" fill="url(#gradient45)" fill-rule="evenodd" stroke="none"/>
    <path d="M-5.0 5.5 L-5.3 6.2 -6.0 6.5 Q-6.4 6.5 -6.7 6.2 L-7.0 5.5 -7.0 3.5 -6.7 2.8 Q-6.4 2.5 -6.0 2.5 -5.6 2.5 -5.3 2.8 -5.0 3.1 -5.0 3.5 L-5.0 5.5" fill="url(#gradient46)" fill-rule="evenodd" stroke="none"/>
    <path d="M-7.0 9.5 L-6.7 8.8 Q-6.4 8.5 -6.0 8.5 -5.6 8.5 -5.3 8.8 -5.0 9.1 -5.0 9.5 L-5.0 11.5 -5.3 12.2 -6.0 12.5 Q-6.4 12.5 -6.7 12.2 L-7.0 11.5 -7.0 9.5" fill="url(#gradient47)" fill-rule="evenodd" stroke="none"/>
    <path d="M-5.0 17.5 L-5.3 18.2 -6.0 18.5 Q-6.4 18.5 -6.7 18.2 L-7.0 17.5 -7.0 15.5 -6.7 14.8 Q-6.4 14.5 -6.0 14.5 -5.6 14.5 -5.3 14.8 -5.0 15.1 -5.0 15.5 L-5.0 17.5" fill="url(#gradient48)" fill-rule="evenodd" stroke="none"/>
    <path d="M-6.7 20.8 Q-6.4 20.5 -6.0 20.5 -5.6 20.5 -5.3 20.8 -5.0 21.1 -5.0 21.5 L-5.0 23.5 -5.3 24.2 -6.0 24.5 Q-6.4 24.5 -6.7 24.2 L-7.0 23.5 -7.0 21.5 -6.7 20.8" fill="url(#gradient49)" fill-rule="evenodd" stroke="none"/>
    <path d="M3.0 -11.0 L-3.0 -11.0 -3.0 -12.0 3.0 -12.0 3.0 -11.0 M6.0 -24.0 L-6.0 -24.0 -6.0 -25.0 6.0 -25.0 6.0 -24.0 M3.0 -28.0 L-3.0 -28.0 -3.0 -29.0 3.0 -29.0 3.0 -28.0" fill="#000000" fill-opacity="0.14117648" fill-rule="evenodd" stroke="none"/>
    <path d="M0.25 -39.65 Q1.45 -39.0 2.75 -39.05 L3.6 -39.15 Q3.7 -38.15 3.0 -37.45 2.5 -36.95 1.65 -37.0 0.85 -37.05 0.25 -37.45 L0.25 -39.65 M0.25 -46.65 Q0.65 -47.7 2.4 -47.25 4.05 -46.8 4.85 -45.7 6.1 -44.1 6.05 -42.5 6.0 -41.0 4.85 -40.2 3.95 -39.55 2.75 -39.5 1.45 -39.45 0.25 -40.2 L0.25 -46.65" fill="url(#gradient50)" fill-rule="evenodd" stroke="none"/>
    <path d="M-0.25 -46.65 L-0.25 -40.2 Q-1.45 -39.45 -2.75 -39.5 -3.95 -39.55 -4.85 -40.2 -6.0 -41.0 -6.05 -42.5 -6.1 -44.1 -4.85 -45.7 -4.05 -46.8 -2.4 -47.25 -0.65 -47.7 -0.25 -46.65 M-0.25 -39.65 L-0.25 -37.45 Q-0.85 -37.05 -1.65 -37.0 -2.5 -36.95 -3.0 -37.45 -3.7 -38.15 -3.6 -39.15 L-2.75 -39.05 Q-1.45 -39.0 -0.25 -39.65" fill="url(#gradient51)" fill-rule="evenodd" stroke="none"/>
  </g>
  <defs>
    <linearGradient gradientTransform="matrix(0.0048, -2.0E-4, 2.0E-4, 0.0061, 2.75, -20.25)" gradientUnits="userSpaceOnUse" id="gradient0" spreadMethod="pad" x1="-819.2" x2="819.2">
      <stop offset="0.13725490196078433" stop-color="#e9c14e"/>
      <stop offset="0.8549019607843137" stop-color="#ab7d29"/>
    </linearGradient>
    <linearGradient gradientTransform="matrix(0.0027, 0.0, 0.0, 0.0061, -4.45, -20.0)" gradientUnits="userSpaceOnUse" id="gradient1" spreadMethod="pad" x1="-819.2" x2="819.2">
      <stop offset="0.10980392156862745" stop-color="#79611c"/>
      <stop offset="0.8941176470588236" stop-color="#97632f"/>
    </linearGradient>
    <linearGradient gradientTransform="matrix(0.0045, 0.0, 0.0, 0.0061, -3.45, -18.5)" gradientUnits="userSpaceOnUse" id="gradient2" spreadMethod="pad" x1="-819.2" x2="819.2">
      <stop offset="0.027450980392156862" stop-color="#d2b52d"/>
      <stop offset="1.0" stop-color="#b38737"/>
    </linearGradient>
    <linearGradient gradientTransform="matrix(0.0026, 0.0, 0.0, 0.0061, 4.1, -19.7)" gradientUnits="userSpaceOnUse" id="gradient3" spreadMethod="pad" x1="-819.2" x2="819.2">
      <stop offset="0.0392156862745098" stop-color="#e4c15a"/>
      <stop offset="1.0" stop-color="#c9a22e"/>
    </linearGradient>
    <linearGradient gradientTransform="matrix(0.0024, 0.0, 0.0, 0.0012, 0.0, -53.0)" gradientUnits="userSpaceOnUse" id="gradient4" spreadMethod="pad" x1="-819.2" x2="819.2">
      <stop offset="0.12941176470588237" stop-color="#a1a1a1"/>
      <stop offset="0.39215686274509803" stop-color="#c6c6c6"/>
      <stop offset="0.596078431372549" stop-color="#c6c6c6"/>
      <stop offset="0.8549019607843137" stop-color="#a9a9a9"/>
    </linearGradient>
    <linearGradient gradientTransform="matrix(0.0, -0.0025, 0.0024, 0.0, 11.0, -42.0)" gradientUnits="userSpaceOnUse" id="gradient5" spreadMethod="pad" x1="-819.2" x2="819.2">
      <stop offset="0.12941176470588237" stop-color="#a1a1a1"/>
      <stop offset="0.39215686274509803" stop-color="#c6c6c6"/>
      <stop offset="0.596078431372549" stop-color="#c6c6c6"/>
      <stop offset="0.8549019607843137" stop-color="#a9a9a9"/>
    </linearGradient>
    <linearGradient gradientTransform="matrix(0.0, -0.0024, 0.0024, 0.0, -11.0, -42.0)" gradientUnits="userSpaceOnUse" id="gradient6" spreadMethod="pad" x1="-819.2" x2="819.2">
      <stop offset="0.12941176470588237" stop-color="#7f7f7f"/>
      <stop offset="0.39215686274509803" stop-color="#a3a3a3"/>
      <stop offset="0.596078431372549" stop-color="#a3a3a3"/>
      <stop offset="0.8549019607843137" stop-color="#7b7b7b"/>
    </linearGradient>
    <linearGradient gradientTransform="matrix(0.0031, 0.0, 0.0, 0.0226, 0.0, 7.5)" gradientUnits="userSpaceOnUse" id="gradient7" spreadMethod="pad" x1="-819.2" x2="819.2">
      <stop offset="0.1450980392156863" stop-color="#8d711d"/>
      <stop offset="0.5019607843137255" stop-color="#b99528"/>
      <stop offset="0.8901960784313725" stop-color="#8d711d"/>
    </linearGradient>
    <linearGradient gradientTransform="matrix(1.0E-4, -0.005, 0.0049, 1.0E-4, 0.0, -58.0)" gradientUnits="userSpaceOnUse" id="gradient8" spreadMethod="pad" x1="-819.2" x2="819.2">
      <stop offset="0.11764705882352941" stop-color="#765325"/>
      <stop offset="0.14901960784313725" stop-color="#b18d23"/>
      <stop offset="0.25882352941176473" stop-color="#b18d23"/>
      <stop offset="0.2784313725490196" stop-color="#765325"/>
      <stop offset="0.6549019607843137" stop-color="#765325"/>
      <stop offset="0.6705882352941176" stop-color="#b18d23"/>
      <stop offset="1.0" stop-color="#b18d23"/>
    </linearGradient>
    <linearGradient gradientTransform="matrix(0.0049, 0.0, 0.0, 0.0012, 16.0, -42.0)" gradientUnits="userSpaceOnUse" id="gradient9" spreadMethod="pad" x1="-819.2" x2="819.2">
      <stop offset="0.11764705882352941" stop-color="#765325"/>
      <stop offset="0.14901960784313725" stop-color="#b18d23"/>
      <stop offset="0.25882352941176473" stop-color="#b18d23"/>
      <stop offset="0.2784313725490196" stop-color="#765325"/>
      <stop offset="0.6549019607843137" stop-color="#765325"/>
      <stop offset="0.6705882352941176" stop-color="#b18d23"/>
      <stop offset="1.0" stop-color="#b18d23"/>
    </linearGradient>
    <linearGradient gradientTransform="matrix(0.0034, -0.0033, 0.003, 0.0031, 10.0, -52.5)" gradientUnits="userSpaceOnUse" id="gradient10" spreadMethod="pad" x1="-819.2" x2="819.2">
      <stop offset="0.11764705882352941" stop-color="#765325"/>
      <stop offset="0.14901960784313725" stop-color="#b18d23"/>
      <stop offset="0.43529411764705883" stop-color="#b18d23"/>
      <stop offset="0.4627450980392157" stop-color="#765325"/>
      <stop offset="0.8588235294117647" stop-color="#765325"/>
      <stop offset="0.8745098039215686" stop-color="#b18d23"/>
      <stop offset="1.0" stop-color="#b18d23"/>
    </linearGradient>
    <linearGradient gradientTransform="matrix(-0.0034, -0.0033, -0.003, 0.0031, -10.0, -52.5)" gradientUnits="userSpaceOnUse" id="gradient11" spreadMethod="pad" x1="-819.2" x2="819.2">
      <stop offset="0.11764705882352941" stop-color="#765325"/>
      <stop offset="0.14901960784313725" stop-color="#b18d23"/>
      <stop offset="0.43529411764705883" stop-color="#b18d23"/>
      <stop offset="0.4627450980392157" stop-color="#765325"/>
      <stop offset="0.8588235294117647" stop-color="#765325"/>
      <stop offset="0.8745098039215686" stop-color="#b18d23"/>
      <stop offset="1.0" stop-color="#b18d23"/>
    </linearGradient>
    <linearGradient gradientTransform="matrix(-0.0049, 0.0, 0.0, 0.0012, -16.0, -42.0)" gradientUnits="userSpaceOnUse" id="gradient12" spreadMethod="pad" x1="-819.2" x2="819.2">
      <stop offset="0.11764705882352941" stop-color="#765325"/>
      <stop offset="0.14901960784313725" stop-color="#b18d23"/>
      <stop offset="0.25882352941176473" stop-color="#b18d23"/>
      <stop offset="0.2784313725490196" stop-color="#765325"/>
      <stop offset="0.6549019607843137" stop-color="#765325"/>
      <stop offset="0.6705882352941176" stop-color="#b18d23"/>
      <stop offset="1.0" stop-color="#b18d23"/>
    </linearGradient>
    <linearGradient gradientTransform="matrix(0.0031, 0.0, 0.0, 0.0226, 0.0, 7.5)" gradientUnits="userSpaceOnUse" id="gradient13" spreadMethod="pad" x1="-819.2" x2="819.2">
      <stop offset="0.10196078431372549" stop-color="#8d711d"/>
      <stop offset="0.396078431372549" stop-color="#caa32d"/>
      <stop offset="0.5843137254901961" stop-color="#caa32d"/>
      <stop offset="0.8980392156862745" stop-color="#8d711d"/>
    </linearGradient>
    <linearGradient gradientTransform="matrix(0.0098, 0.0, 0.0, 0.0208, 0.0, 43.0)" gradientUnits="userSpaceOnUse" id="gradient14" spreadMethod="pad" x1="-819.2" x2="819.2">
      <stop offset="0.11764705882352941" stop-color="#d8d8d8"/>
      <stop offset="0.2823529411764706" stop-color="#b5b5b5"/>
      <stop offset="0.4980392156862745" stop-color="#989898"/>
      <stop offset="0.592156862745098" stop-color="#959595"/>
      <stop offset="0.9411764705882353" stop-color="#717171"/>
    </linearGradient>
    <linearGradient gradientTransform="matrix(0.0086, -0.0068, 0.0068, 0.0086, 0.0, -42.0)" gradientUnits="userSpaceOnUse" id="gradient15" spreadMethod="pad" x1="-819.2" x2="819.2">
      <stop offset="0.027450980392156862" stop-color="#3d3434"/>
      <stop offset="0.9921568627450981" stop-color="#292323"/>
    </linearGradient>
    <linearGradient gradientTransform="matrix(0.0111, -0.0075, 0.0075, 0.0111, 0.0, -42.0)" gradientUnits="userSpaceOnUse" id="gradient16" spreadMethod="pad" x1="-819.2" x2="819.2">
      <stop offset="0.027450980392156862" stop-color="#504545"/>
      <stop offset="0.9921568627450981" stop-color="#6b6161"/>
    </linearGradient>
    <linearGradient gradientTransform="matrix(0.0184, -0.0095, 0.0056, 0.0108, -2.35, -47.2)" gradientUnits="userSpaceOnUse" id="gradient17" spreadMethod="pad" x1="-819.2" x2="819.2">
      <stop offset="0.027450980392156862" stop-color="#9e9292"/>
      <stop offset="0.9921568627450981" stop-color="#b4adad"/>
    </linearGradient>
    <linearGradient gradientTransform="matrix(-0.0078, 0.0077, -0.0077, -0.0078, 0.0, -42.0)" gradientUnits="userSpaceOnUse" id="gradient18" spreadMethod="pad" x1="-819.2" x2="819.2">
      <stop offset="0.03529411764705882" stop-color="#a28224"/>
      <stop offset="0.36470588235294116" stop-color="#80661c"/>
      <stop offset="0.8588235294117647" stop-color="#debb52"/>
      <stop offset="0.9529411764705882" stop-color="#f3dd76"/>
    </linearGradient>
    <radialGradient cx="0" cy="0" gradientTransform="matrix(0.0, -0.009, 0.0075, 0.0, 0.0, -25.0)" gradientUnits="userSpaceOnUse" id="gradient19" r="819.2" spreadMethod="pad">
      <stop offset="0.047058823529411764" stop-color="#e6e6e6"/>
      <stop offset="0.3058823529411765" stop-color="#b5b5b5"/>
      <stop offset="0.6470588235294118" stop-color="#919191"/>
      <stop offset="0.788235294117647" stop-color="#838383"/>
      <stop offset="1.0" stop-color="#c2c2c2"/>
    </radialGradient>
    <radialGradient cx="0" cy="0" gradientTransform="matrix(0.0054, 0.0, 0.0, 0.0061, 0.0, -15.0)" gradientUnits="userSpaceOnUse" id="gradient20" r="819.2" spreadMethod="pad">
      <stop offset="0.047058823529411764" stop-color="#e6e6e6"/>
      <stop offset="0.2784313725490196" stop-color="#b5b5b5"/>
      <stop offset="0.6470588235294118" stop-color="#919191"/>
      <stop offset="0.788235294117647" stop-color="#838383"/>
      <stop offset="1.0" stop-color="#c2c2c2"/>
    </radialGradient>
    <linearGradient gradientTransform="matrix(0.0049, 0.0, 0.0, 0.0031, 0.0, -7.5)" gradientUnits="userSpaceOnUse" id="gradient21" spreadMethod="pad" x1="-819.2" x2="819.2">
      <stop offset="0.0784313725490196" stop-color="#6a6a6a"/>
      <stop offset="0.22745098039215686" stop-color="#919191"/>
      <stop offset="0.4745098039215686" stop-color="#c6c6c6"/>
      <stop offset="0.5490196078431373" stop-color="#c6c6c6"/>
      <stop offset="0.788235294117647" stop-color="#919191"/>
      <stop offset="0.9176470588235294" stop-color="#6d6d6d"/>
    </linearGradient>
    <radialGradient cx="0" cy="0" gradientTransform="matrix(0.0051, 0.0, 0.0, 0.0939, 0.0, 26.0)" gradientUnits="userSpaceOnUse" id="gradient22" r="819.2" spreadMethod="pad">
      <stop offset="0.047058823529411764" stop-color="#cdcdcd"/>
      <stop offset="0.4588235294117647" stop-color="#919191"/>
      <stop offset="0.9098039215686274" stop-color="#8a8a8a"/>
    </radialGradient>
    <linearGradient gradientTransform="matrix(0.0096, -0.0024, 0.0042, 0.0167, 0.85, 45.9)" gradientUnits="userSpaceOnUse" id="gradient23" spreadMethod="pad" x1="-819.2" x2="819.2">
      <stop offset="0.09803921568627451" stop-color="#3c3c3c"/>
      <stop offset="0.4117647058823529" stop-color="#8a8a8a"/>
      <stop offset="0.9294117647058824" stop-color="#868686"/>
    </linearGradient>
    <linearGradient gradientTransform="matrix(0.0099, -0.0061, 0.0091, 0.0146, 5.45, 42.65)" gradientUnits="userSpaceOnUse" id="gradient24" spreadMethod="pad" x1="-819.2" x2="819.2">
      <stop offset="0.10588235294117647" stop-color="#adadad"/>
      <stop offset="0.5215686274509804" stop-color="#999999"/>
      <stop offset="0.8745098039215686" stop-color="#adadad"/>
    </linearGradient>
    <linearGradient gradientTransform="matrix(0.0099, 0.0, 0.0, 0.0172, 0.0, 46.0)" gradientUnits="userSpaceOnUse" id="gradient25" spreadMethod="pad" x1="-819.2" x2="819.2">
      <stop offset="0.26666666666666666" stop-color="#6a6a6a"/>
      <stop offset="0.4470588235294118" stop-color="#cdcdcd"/>
      <stop offset="0.9294117647058824" stop-color="#868686"/>
    </linearGradient>
    <radialGradient cx="0" cy="0" gradientTransform="matrix(0.0, -8.0E-4, 0.0131, 0.0, 7.0, -7.5)" gradientUnits="userSpaceOnUse" id="gradient26" r="819.2" spreadMethod="pad">
      <stop offset="0.1803921568627451" stop-color="#d5d5d5"/>
      <stop offset="0.5686274509803921" stop-color="#a6a6a6"/>
      <stop offset="0.8274509803921568" stop-color="#868686"/>
    </radialGradient>
    <radialGradient cx="0" cy="0" gradientTransform="matrix(0.0, -9.0E-4, 0.0125, 0.0, 7.0, -1.5)" gradientUnits="userSpaceOnUse" id="gradient27" r="819.2" spreadMethod="pad">
      <stop offset="0.16862745098039217" stop-color="#d5d5d5"/>
      <stop offset="0.5686274509803921" stop-color="#a6a6a6"/>
      <stop offset="0.8274509803921568" stop-color="#868686"/>
    </radialGradient>
    <radialGradient cx="0" cy="0" gradientTransform="matrix(0.0, -9.0E-4, 0.0125, 0.0, 7.0, 4.5)" gradientUnits="userSpaceOnUse" id="gradient28" r="819.2" spreadMethod="pad">
      <stop offset="0.16862745098039217" stop-color="#d5d5d5"/>
      <stop offset="0.5686274509803921" stop-color="#a6a6a6"/>
      <stop offset="0.8313725490196079" stop-color="#868686"/>
    </radialGradient>
    <radialGradient cx="0" cy="0" gradientTransform="matrix(0.0, -8.0E-4, 0.0121, 0.0, 6.95, 10.5)" gradientUnits="userSpaceOnUse" id="gradient29" r="819.2" spreadMethod="pad">
      <stop offset="0.16862745098039217" stop-color="#d5d5d5"/>
      <stop offset="0.5686274509803921" stop-color="#a6a6a6"/>
      <stop offset="0.8274509803921568" stop-color="#868686"/>
    </radialGradient>
    <radialGradient cx="0" cy="0" gradientTransform="matrix(0.0, -8.0E-4, 0.0112, 0.0, 6.95, 16.4)" gradientUnits="userSpaceOnUse" id="gradient30" r="819.2" spreadMethod="pad">
      <stop offset="0.16862745098039217" stop-color="#d5d5d5"/>
      <stop offset="0.5686274509803921" stop-color="#a6a6a6"/>
      <stop offset="0.8313725490196079" stop-color="#868686"/>
    </radialGradient>
    <radialGradient cx="0" cy="0" gradientTransform="matrix(0.0, -7.0E-4, 0.0104, 0.0, 7.0, 22.5)" gradientUnits="userSpaceOnUse" id="gradient31" r="819.2" spreadMethod="pad">
      <stop offset="0.16862745098039217" stop-color="#d5d5d5"/>
      <stop offset="0.5686274509803921" stop-color="#a6a6a6"/>
      <stop offset="0.8392156862745098" stop-color="#868686"/>
    </radialGradient>
    <radialGradient cx="0" cy="0" gradientTransform="matrix(0.0, -9.0E-4, -0.0125, 0.0, -7.0, -1.5)" gradientUnits="userSpaceOnUse" id="gradient32" r="819.2" spreadMethod="pad">
      <stop offset="0.16862745098039217" stop-color="#d5d5d5"/>
      <stop offset="0.5686274509803921" stop-color="#a6a6a6"/>
      <stop offset="0.8274509803921568" stop-color="#868686"/>
    </radialGradient>
    <radialGradient cx="0" cy="0" gradientTransform="matrix(0.0, -8.0E-4, -0.0131, 0.0, -7.0, -7.5)" gradientUnits="userSpaceOnUse" id="gradient33" r="819.2" spreadMethod="pad">
      <stop offset="0.1803921568627451" stop-color="#d5d5d5"/>
      <stop offset="0.5686274509803921" stop-color="#a6a6a6"/>
      <stop offset="0.8274509803921568" stop-color="#868686"/>
    </radialGradient>
    <radialGradient cx="0" cy="0" gradientTransform="matrix(0.0, -9.0E-4, -0.0125, 0.0, -7.0, 4.5)" gradientUnits="userSpaceOnUse" id="gradient34" r="819.2" spreadMethod="pad">
      <stop offset="0.16862745098039217" stop-color="#d5d5d5"/>
      <stop offset="0.5686274509803921" stop-color="#a6a6a6"/>
      <stop offset="0.8313725490196079" stop-color="#868686"/>
    </radialGradient>
    <radialGradient cx="0" cy="0" gradientTransform="matrix(0.0, -8.0E-4, -0.0121, 0.0, -6.95, 10.5)" gradientUnits="userSpaceOnUse" id="gradient35" r="819.2" spreadMethod="pad">
      <stop offset="0.16862745098039217" stop-color="#d5d5d5"/>
      <stop offset="0.5686274509803921" stop-color="#a6a6a6"/>
      <stop offset="0.8274509803921568" stop-color="#868686"/>
    </radialGradient>
    <radialGradient cx="0" cy="0" gradientTransform="matrix(0.0, -8.0E-4, -0.0112, 0.0, -6.95, 16.4)" gradientUnits="userSpaceOnUse" id="gradient36" r="819.2" spreadMethod="pad">
      <stop offset="0.16862745098039217" stop-color="#d5d5d5"/>
      <stop offset="0.5686274509803921" stop-color="#a6a6a6"/>
      <stop offset="0.8313725490196079" stop-color="#868686"/>
    </radialGradient>
    <radialGradient cx="0" cy="0" gradientTransform="matrix(0.0, -7.0E-4, -0.0104, 0.0, -7.0, 22.5)" gradientUnits="userSpaceOnUse" id="gradient37" r="819.2" spreadMethod="pad">
      <stop offset="0.16862745098039217" stop-color="#d5d5d5"/>
      <stop offset="0.5686274509803921" stop-color="#a6a6a6"/>
      <stop offset="0.8392156862745098" stop-color="#868686"/>
    </radialGradient>
    <radialGradient cx="0" cy="0" gradientTransform="matrix(0.0013, 0.0, 0.0, 0.0032, 6.0, -7.5)" gradientUnits="userSpaceOnUse" id="gradient38" r="819.2" spreadMethod="pad">
      <stop offset="0.11372549019607843" stop-color="#ededed"/>
      <stop offset="0.6627450980392157" stop-color="#9f9f9f"/>
      <stop offset="0.9137254901960784" stop-color="#717171"/>
    </radialGradient>
    <radialGradient cx="0" cy="0" gradientTransform="matrix(0.0015, 0.0, 0.0, 0.0028, 6.0, -1.5)" gradientUnits="userSpaceOnUse" id="gradient39" r="819.2" spreadMethod="pad">
      <stop offset="0.11372549019607843" stop-color="#ededed"/>
      <stop offset="0.6627450980392157" stop-color="#9f9f9f"/>
      <stop offset="0.9137254901960784" stop-color="#717171"/>
    </radialGradient>
    <radialGradient cx="0" cy="0" gradientTransform="matrix(0.0014, 0.0, 0.0, 0.0028, 6.0, 4.5)" gradientUnits="userSpaceOnUse" id="gradient40" r="819.2" spreadMethod="pad">
      <stop offset="0.11372549019607843" stop-color="#ededed"/>
      <stop offset="0.6627450980392157" stop-color="#9f9f9f"/>
      <stop offset="0.9137254901960784" stop-color="#717171"/>
    </radialGradient>
    <radialGradient cx="0" cy="0" gradientTransform="matrix(0.0014, 0.0, 0.0, 0.0028, 6.0, 10.5)" gradientUnits="userSpaceOnUse" id="gradient41" r="819.2" spreadMethod="pad">
      <stop offset="0.11372549019607843" stop-color="#ededed"/>
      <stop offset="0.6627450980392157" stop-color="#9f9f9f"/>
      <stop offset="0.9137254901960784" stop-color="#717171"/>
    </radialGradient>
    <radialGradient cx="0" cy="0" gradientTransform="matrix(0.0013, 0.0, 0.0, 0.0028, 6.0, 16.5)" gradientUnits="userSpaceOnUse" id="gradient42" r="819.2" spreadMethod="pad">
      <stop offset="0.11372549019607843" stop-color="#ededed"/>
      <stop offset="0.6627450980392157" stop-color="#9f9f9f"/>
      <stop offset="0.9137254901960784" stop-color="#717171"/>
    </radialGradient>
    <radialGradient cx="0" cy="0" gradientTransform="matrix(0.0014, 0.0, 0.0, 0.0028, 6.0, 22.5)" gradientUnits="userSpaceOnUse" id="gradient43" r="819.2" spreadMethod="pad">
      <stop offset="0.11372549019607843" stop-color="#ededed"/>
      <stop offset="0.6627450980392157" stop-color="#9f9f9f"/>
      <stop offset="0.9137254901960784" stop-color="#717171"/>
    </radialGradient>
    <radialGradient cx="0" cy="0" gradientTransform="matrix(-0.0013, 0.0, 0.0, 0.0032, -6.0, -7.5)" gradientUnits="userSpaceOnUse" id="gradient44" r="819.2" spreadMethod="pad">
      <stop offset="0.11372549019607843" stop-color="#ededed"/>
      <stop offset="0.6627450980392157" stop-color="#9f9f9f"/>
      <stop offset="0.9137254901960784" stop-color="#717171"/>
    </radialGradient>
    <radialGradient cx="0" cy="0" gradientTransform="matrix(-0.0015, 0.0, 0.0, 0.0028, -6.0, -1.5)" gradientUnits="userSpaceOnUse" id="gradient45" r="819.2" spreadMethod="pad">
      <stop offset="0.11372549019607843" stop-color="#ededed"/>
      <stop offset="0.6627450980392157" stop-color="#9f9f9f"/>
      <stop offset="0.9137254901960784" stop-color="#717171"/>
    </radialGradient>
    <radialGradient cx="0" cy="0" gradientTransform="matrix(-0.0014, 0.0, 0.0, 0.0028, -6.0, 4.5)" gradientUnits="userSpaceOnUse" id="gradient46" r="819.2" spreadMethod="pad">
      <stop offset="0.11372549019607843" stop-color="#ededed"/>
      <stop offset="0.6627450980392157" stop-color="#9f9f9f"/>
      <stop offset="0.9137254901960784" stop-color="#717171"/>
    </radialGradient>
    <radialGradient cx="0" cy="0" gradientTransform="matrix(-0.0014, 0.0, 0.0, 0.0028, -6.0, 10.5)" gradientUnits="userSpaceOnUse" id="gradient47" r="819.2" spreadMethod="pad">
      <stop offset="0.11372549019607843" stop-color="#ededed"/>
      <stop offset="0.6627450980392157" stop-color="#9f9f9f"/>
      <stop offset="0.9137254901960784" stop-color="#717171"/>
    </radialGradient>
    <radialGradient cx="0" cy="0" gradientTransform="matrix(-0.0013, 0.0, 0.0, 0.0028, -6.0, 16.5)" gradientUnits="userSpaceOnUse" id="gradient48" r="819.2" spreadMethod="pad">
      <stop offset="0.11372549019607843" stop-color="#ededed"/>
      <stop offset="0.6627450980392157" stop-color="#9f9f9f"/>
      <stop offset="0.9137254901960784" stop-color="#717171"/>
    </radialGradient>
    <radialGradient cx="0" cy="0" gradientTransform="matrix(-0.0014, 0.0, 0.0, 0.0028, -6.0, 22.5)" gradientUnits="userSpaceOnUse" id="gradient49" r="819.2" spreadMethod="pad">
      <stop offset="0.11372549019607843" stop-color="#ededed"/>
      <stop offset="0.6627450980392157" stop-color="#9f9f9f"/>
      <stop offset="0.9137254901960784" stop-color="#717171"/>
    </radialGradient>
    <linearGradient gradientTransform="matrix(-0.006, 0.0043, 0.0028, 0.0039, 0.35, -41.8)" gradientUnits="userSpaceOnUse" id="gradient50" spreadMethod="pad" x1="-819.2" x2="819.2">
      <stop offset="0.0" stop-color="#9e7c18"/>
      <stop offset="1.0" stop-color="#dab750"/>
    </linearGradient>
    <linearGradient gradientTransform="matrix(-0.006, 0.0043, 0.0028, 0.0039, 0.75, -41.8)" gradientUnits="userSpaceOnUse" id="gradient51" spreadMethod="pad" x1="-819.2" x2="819.2">
      <stop offset="0.0" stop-color="#9e7c18"/>
      <stop offset="1.0" stop-color="#dab750"/>
    </linearGradient>
  </defs>
</svg>
