<?xml version="1.0" encoding="UTF-8" standalone="no"?>
<svg xmlns:xlink="http://www.w3.org/1999/xlink" height="24.0px" width="243.0px" xmlns="http://www.w3.org/2000/svg">
  <g transform="matrix(1.0, 0.0, 0.0, 1.0, 3.0, 12.0)">
    <path d="M2.1 -2.15 Q3.0 -1.25 3.0 0.0 3.0 1.25 2.1 2.1 1.25 3.0 0.0 3.0 -1.25 3.0 -2.15 2.1 -3.0 1.25 -3.0 0.0 -3.0 -1.25 -2.15 -2.15 -1.25 -3.0 0.0 -3.0 1.25 -3.0 2.1 -2.15" fill="#a5a5a5" fill-rule="evenodd" stroke="none"/>
    <path d="M8.1 -1.0 L14.0 -3.0 14.0 -10.0 Q14.0 -12.0 16.0 -12.0 L238.0 -12.0 Q240.0 -12.0 240.0 -10.0 L240.0 10.0 Q240.0 12.0 238.0 12.0 L16.0 12.0 Q14.0 12.0 14.0 10.0 L14.0 3.0 8.1 1.0 7.5 0.0 8.1 -1.0" fill="#c6c6c6" fill-rule="evenodd" stroke="none"/>
  </g>
</svg>
