<?xml version="1.0" encoding="UTF-8" standalone="no"?>
<svg xmlns:xlink="http://www.w3.org/1999/xlink" height="77.05px" width="186.0px" xmlns="http://www.w3.org/2000/svg">
  <g transform="matrix(1.0, 0.0, 0.0, 1.0, 0.0, 8.05)">
    <path d="M49.45 -7.05 L54.0 -0.05 182.0 0.0 Q186.0 0.0 186.0 4.0 L186.0 65.0 Q186.0 69.0 182.0 69.0 L72.5 69.0 4.0 69.0 Q0.0 69.0 0.0 65.0 L0.0 4.0 Q0.0 0.0 4.0 0.0 L43.0 -0.05 47.45 -7.05 48.45 -8.05 49.45 -7.05" fill="#000000" fill-rule="evenodd" stroke="none"/>
    <path d="M182.0 2.0 Q184.0 2.0 184.0 4.0 L184.0 65.0 Q184.0 67.0 182.0 67.0 L4.0 67.0 Q2.0 67.0 2.0 65.0 L2.0 4.0 Q2.0 2.0 4.0 2.0 L43.1 1.95 44.05 1.7 44.8 1.05 48.55 -4.85 52.3 1.05 53.05 1.7 54.0 1.95 182.0 2.0" fill="#bababa" fill-rule="evenodd" stroke="none"/>
  </g>
</svg>
