<?xml version="1.0" encoding="UTF-8" standalone="no"?>
<svg xmlns:xlink="http://www.w3.org/1999/xlink" height="49.0px" width="20.0px" xmlns="http://www.w3.org/2000/svg">
  <g transform="matrix(1.0, 0.0, 0.0, 1.0, 10.0, 21.5)">
    <path d="M10.0 -11.5 L10.0 18.5 9.7 19.85 9.6 20.0 Q10.0 20.65 10.0 21.5 L10.0 24.5 Q10.0 25.75 9.15 26.65 8.25 27.5 7.0 27.5 L-7.0 27.5 Q-8.25 27.5 -9.1 26.65 -10.0 25.75 -10.0 24.5 L-10.0 21.5 Q-10.0 20.65 -9.6 20.0 L-9.65 19.85 -10.0 18.5 -10.0 -11.5 Q-10.0 -15.65 -7.05 -18.55 -4.15 -21.5 0.0 -21.5 4.15 -21.5 7.1 -18.55 10.0 -15.65 10.0 -11.5" fill="#000000" fill-rule="evenodd" stroke="none"/>
    <path d="M6.0 22.5 L-6.0 22.5 -6.0 19.5 6.0 19.5 6.0 22.5" fill="#434343" fill-rule="evenodd" stroke="none"/>
    <path d="M-7.0 -8.5 L-7.0 -11.5 Q-7.0 -14.4 -4.95 -16.45 -2.9 -18.5 0.0 -18.5 2.9 -18.5 4.95 -16.45 7.0 -14.4 7.0 -11.5 L7.0 -8.5 -7.0 -8.5" fill="url(#gradient0)" fill-rule="evenodd" stroke="none"/>
    <path d="M7.0 -8.5 L7.0 18.5 -7.0 18.5 -7.0 -8.5 7.0 -8.5" fill="url(#gradient1)" fill-rule="evenodd" stroke="none"/>
    <path d="M-7.0 21.5 L7.0 21.5 7.0 24.5 -7.0 24.5 -7.0 21.5" fill="url(#gradient2)" fill-rule="evenodd" stroke="none"/>
    <path d="M7.0 18.5 L6.0 20.5 -6.0 20.5 -7.0 18.5 7.0 18.5" fill="url(#gradient3)" fill-rule="evenodd" stroke="none"/>
    <path d="M4.55 -8.5 L2.25 -8.5 2.25 -9.1 Q2.3 -10.75 2.6 -12.0 2.9 -13.5 3.4 -13.5 3.85 -13.5 4.2 -12.0 L4.55 -9.1 4.55 -8.5" fill="url(#gradient4)" fill-rule="evenodd" stroke="none"/>
    <path d="M2.25 -8.5 L4.55 -8.5 Q4.55 2.4 4.2 10.6 3.85 18.5 3.4 18.5 2.9 18.5 2.6 10.6 2.25 3.0 2.25 -8.5" fill="url(#gradient5)" fill-rule="evenodd" stroke="none"/>
  </g>
  <defs>
    <linearGradient gradientTransform="matrix(0.0085, 0.0, 0.0, 0.0061, 0.0, -13.5)" gradientUnits="userSpaceOnUse" id="gradient0" spreadMethod="pad" x1="-819.2" x2="819.2">
      <stop offset="0.0" stop-color="#404040"/>
      <stop offset="0.19607843137254902" stop-color="#202020"/>
      <stop offset="0.7372549019607844" stop-color="#606060"/>
      <stop offset="1.0" stop-color="#383838"/>
    </linearGradient>
    <linearGradient gradientTransform="matrix(0.0085, 0.0, 0.0, 0.0165, 0.0, 5.0)" gradientUnits="userSpaceOnUse" id="gradient1" spreadMethod="pad" x1="-819.2" x2="819.2">
      <stop offset="0.0" stop-color="#606060"/>
      <stop offset="0.19607843137254902" stop-color="#404040"/>
      <stop offset="0.34901960784313724" stop-color="#3c3c3c"/>
      <stop offset="0.5372549019607843" stop-color="#5b5b5b"/>
      <stop offset="0.7607843137254902" stop-color="#6d6d6d"/>
      <stop offset="1.0" stop-color="#404040"/>
    </linearGradient>
    <linearGradient gradientTransform="matrix(0.0085, 0.0, 0.0, 0.0018, 0.0, 23.0)" gradientUnits="userSpaceOnUse" id="gradient2" spreadMethod="pad" x1="-819.2" x2="819.2">
      <stop offset="0.0" stop-color="#606060"/>
      <stop offset="0.19607843137254902" stop-color="#404040"/>
      <stop offset="0.34901960784313724" stop-color="#3c3c3c"/>
      <stop offset="0.5372549019607843" stop-color="#5b5b5b"/>
      <stop offset="0.7607843137254902" stop-color="#6d6d6d"/>
      <stop offset="1.0" stop-color="#404040"/>
    </linearGradient>
    <linearGradient gradientTransform="matrix(0.0073, 0.0, 0.0, 0.5, 0.0, 1.5)" gradientUnits="userSpaceOnUse" id="gradient3" spreadMethod="pad" x1="-819.2" x2="819.2">
      <stop offset="0.0" stop-color="#606060"/>
      <stop offset="0.19607843137254902" stop-color="#404040"/>
      <stop offset="0.34901960784313724" stop-color="#3c3c3c"/>
      <stop offset="0.5372549019607843" stop-color="#5b5b5b"/>
      <stop offset="0.7607843137254902" stop-color="#6d6d6d"/>
      <stop offset="1.0" stop-color="#404040"/>
    </linearGradient>
    <radialGradient cx="0" cy="0" gradientTransform="matrix(0.007, 0.0, 0.0, 0.0061, 3.4, -8.45)" gradientUnits="userSpaceOnUse" id="gradient4" r="819.2" spreadMethod="pad">
      <stop offset="0.0" stop-color="#7b7b7b"/>
      <stop offset="1.0" stop-color="#7b7b7b" stop-opacity="0.0"/>
    </radialGradient>
    <radialGradient cx="0" cy="0" gradientTransform="matrix(0.007, 0.0, 0.0, 0.0331, 3.4, -8.6)" gradientUnits="userSpaceOnUse" id="gradient5" r="819.2" spreadMethod="pad">
      <stop offset="0.0" stop-color="#808080"/>
      <stop offset="1.0" stop-color="#717171" stop-opacity="0.0"/>
    </radialGradient>
  </defs>
</svg>
