<?xml version="1.0" encoding="UTF-8" standalone="no"?>
<svg xmlns:xlink="http://www.w3.org/1999/xlink" height="42.2px" width="78.85px" xmlns="http://www.w3.org/2000/svg">
  <g transform="matrix(1.0, 0.0, 0.0, 1.0, 39.4, 21.1)">
    <path d="M-8.25 -18.55 Q-5.95 -19.25 -4.0 -17.6 L-3.95 -17.55 -3.95 -17.6 0.0 -17.3 1.3 -17.95 4.1 -18.05 4.15 -18.0 Q4.8 -17.6 5.65 -17.45 6.55 -17.7 7.35 -17.15 L7.55 -16.9 Q7.95 -15.65 6.85 -14.9 L6.65 -14.8 6.25 -14.7 5.25 -13.55 5.2 -13.55 Q4.3 -12.65 4.8 -11.45 5.1 -10.75 5.65 -10.35 L5.7 -10.3 Q6.15 -9.95 6.8 -9.75 L6.85 -9.75 8.8 -9.15 12.25 -8.85 12.8 -9.05 13.25 -9.5 13.55 -9.65 18.6 -10.05 Q20.0 -10.2 20.95 -9.4 L21.0 -9.35 21.45 -8.75 21.5 -8.45 21.2 -7.8 20.6 -7.15 20.3 -6.85 Q20.15 -6.7 20.0 -6.7 L16.7 -6.85 Q13.45 -7.5 11.1 -5.8 11.05 -5.25 11.3 -4.75 L11.3 -4.8 11.85 -3.6 12.0 -2.9 11.9 -2.55 Q11.35 -1.75 11.15 -0.65 L11.2 -0.65 Q11.9 -0.1 12.85 0.25 13.35 0.2 13.85 0.65 L14.5 1.4 20.1 1.75 20.35 1.85 20.55 2.1 Q21.0 3.3 20.45 4.35 L20.2 4.55 Q19.65 4.8 19.25 5.2 L19.15 5.4 19.25 5.8 Q19.65 6.15 20.2 6.15 21.0 6.15 21.5 6.9 L21.55 6.9 22.2 7.65 Q23.2 7.9 24.0 8.5 24.4 8.8 25.05 8.9 27.15 8.95 29.05 9.95 L29.0 9.95 30.65 10.1 30.7 10.1 Q32.65 10.0 34.6 10.65 L34.7 10.7 35.35 10.9 Q36.9 11.0 38.2 11.7 L38.25 11.75 Q39.2 12.15 39.45 13.3 L39.45 13.5 39.35 13.7 Q38.7 14.65 37.45 14.45 35.85 14.45 34.6 13.5 33.9 12.95 33.0 12.7 L32.95 12.7 31.7 12.35 28.05 11.55 25.15 11.15 22.05 10.9 22.0 10.85 19.85 10.25 Q18.3 10.0 17.05 10.9 L17.1 10.9 Q16.15 11.65 15.05 11.75 L14.9 11.75 14.75 11.75 14.1 12.35 12.35 15.7 Q12.75 16.75 14.3 16.75 L14.6 16.85 Q15.7 17.6 16.35 18.8 L16.4 19.15 16.2 20.1 16.0 20.4 Q13.95 21.85 12.15 19.95 11.15 18.8 10.65 17.65 8.05 18.5 5.55 18.35 L5.35 18.3 4.7 18.15 4.6 18.7 4.6 20.05 4.4 20.35 3.9 20.75 3.85 20.8 Q2.6 21.45 1.3 20.6 L-0.65 18.95 Q-1.65 17.85 -1.05 16.55 L-0.65 15.55 -2.3 14.15 Q-3.75 13.05 -3.3 11.5 L-4.5 9.8 Q-7.25 9.55 -8.7 12.0 L-8.15 12.6 -6.85 13.4 -6.7 13.6 Q-5.85 15.15 -6.7 17.0 L-6.7 17.05 Q-7.05 17.7 -7.55 17.9 L-7.5 17.9 Q-9.75 18.95 -11.5 17.35 L-11.45 17.35 -12.5 16.15 -12.75 15.6 -12.75 15.35 -12.4 13.85 Q-13.05 13.95 -13.65 14.5 L-13.65 14.55 Q-14.4 15.2 -15.3 15.3 L-15.35 15.3 Q-16.6 15.45 -17.85 14.8 L-19.0 14.95 -20.15 16.05 -20.15 16.1 -21.1 16.75 -21.35 16.8 -22.9 16.55 -22.95 16.5 -23.95 15.55 -23.95 15.6 -24.65 14.3 -24.75 14.15 Q-26.4 13.45 -28.25 13.4 -27.75 14.15 -27.6 15.0 L-27.6 14.95 -27.55 15.45 -27.7 15.8 Q-29.5 17.6 -31.5 16.1 L-31.65 15.9 Q-32.1 14.65 -31.35 13.55 -31.15 13.2 -31.25 12.85 L-32.4 11.35 -32.45 11.3 -32.8 10.8 -34.4 7.8 -34.75 7.0 Q-35.05 5.35 -36.65 5.45 L-36.75 5.45 -37.35 5.35 -37.55 5.3 Q-39.0 4.4 -39.35 2.95 L-39.35 2.6 -38.6 0.4 Q-38.4 -0.45 -38.5 -1.3 L-38.9 -2.7 -38.95 -2.75 Q-39.25 -3.35 -39.0 -4.0 L-38.45 -4.95 -38.25 -5.7 Q-38.1 -7.15 -37.35 -8.3 L-37.95 -9.5 -38.4 -10.0 -38.45 -10.2 Q-38.55 -12.2 -36.7 -13.05 L-36.4 -13.1 -35.1 -12.85 -33.85 -13.75 -33.85 -13.8 -32.55 -14.5 -32.5 -14.55 Q-31.9 -14.65 -31.6 -15.15 L-31.65 -15.2 -31.65 -15.25 -31.9 -15.55 -32.25 -15.9 -32.4 -16.15 -32.5 -16.65 -32.4 -17.0 -32.15 -17.45 -31.95 -17.65 -31.45 -17.9 -31.15 -17.95 Q-29.45 -17.75 -28.35 -16.4 L-28.35 -16.35 Q-26.7 -16.3 -25.15 -16.9 L-25.1 -16.9 -23.6 -17.4 -23.55 -17.45 Q-23.1 -17.55 -22.75 -17.8 L-22.7 -17.8 -21.05 -18.6 -21.0 -18.6 Q-20.3 -18.95 -19.85 -19.6 L-19.85 -19.65 Q-19.0 -20.75 -17.7 -21.0 L-17.75 -20.95 Q-16.3 -21.4 -15.15 -20.4 L-15.0 -20.1 -14.95 -19.55 -15.0 -19.3 Q-15.85 -17.4 -17.95 -17.1 L-18.1 -17.1 -19.5 -17.3 -20.75 -16.2 -20.35 -15.7 -15.25 -16.55 -15.25 -16.6 -10.05 -17.35 -10.1 -17.3 Q-9.15 -17.55 -8.5 -18.4 L-8.25 -18.55 M-3.3 -18.25 L-3.35 -18.55 Q-3.35 -19.45 -2.0 -19.6 L-2.05 -19.55 Q-0.8 -19.9 -0.4 -19.1 L-0.35 -18.9 Q-0.25 -18.35 -0.7 -18.0 -1.0 -17.75 -1.65 -17.65 L-1.7 -17.65 -2.45 -17.7 -2.5 -17.7 Q-3.15 -17.9 -3.3 -18.25 M23.25 -10.7 L23.2 -10.7 Q22.5 -10.3 21.7 -10.7 L21.45 -10.95 21.45 -11.0 21.4 -11.05 21.3 -11.4 Q21.35 -12.25 22.35 -12.6 L22.4 -12.6 23.9 -12.4 24.05 -12.1 Q24.15 -11.1 23.25 -10.7 M12.4 -17.7 Q12.45 -18.45 13.2 -18.95 L13.15 -18.95 Q13.65 -19.35 14.55 -19.55 L16.2 -19.55 17.5 -19.05 17.7 -18.8 17.7 -18.5 Q17.4 -17.25 15.6 -17.05 L15.55 -17.05 12.85 -17.15 12.5 -17.35 12.4 -17.7 M13.75 -12.85 Q14.45 -13.15 15.2 -12.85 L16.45 -12.1 Q16.95 -11.45 16.7 -10.55 L16.45 -10.25 15.1 -10.0 13.75 -10.0 13.5 -10.05 13.3 -10.3 13.0 -10.85 Q12.6 -11.5 12.7 -11.9 L12.75 -11.95 Q12.95 -12.65 13.8 -12.85 L13.75 -12.85 M24.7 0.6 Q25.25 -0.1 26.05 -0.15 26.9 -0.25 27.65 0.5 L28.2 1.45 28.15 2.75 28.0 2.95 Q27.6 3.35 26.85 3.45 L25.55 3.45 25.3 3.4 Q24.4 2.85 24.25 2.05 24.1 1.3 24.65 0.6 L24.7 0.6 M21.75 16.8 Q23.15 17.45 23.6 18.75 L23.55 19.1 23.35 19.35 Q22.0 20.05 19.5 18.8 L18.5 18.1 Q18.0 17.45 18.4 16.7 L18.55 16.5 18.8 16.4 Q20.35 16.2 21.75 16.8" fill="#251f1c" fill-rule="evenodd" stroke="none"/>
  </g>
</svg>
