<?xml version="1.0" encoding="UTF-8" standalone="no"?>
<svg xmlns:xlink="http://www.w3.org/1999/xlink" height="117.0px" width="102.0px" xmlns="http://www.w3.org/2000/svg">
  <g transform="matrix(1.0, 0.0, 0.0, 1.0, 49.5, 57.5)">
    <path d="M44.9 -40.65 Q45.45 -40.05 45.5 -39.2 L52.5 38.8 Q52.6 39.7 52.05 40.5 51.45 41.25 50.55 41.45 L-31.45 59.45 -33.1 59.25 -45.1 53.25 -46.1 52.35 -46.5 51.1 -49.5 -39.9 Q-49.55 -40.8 -49.0 -41.45 L-38.0 -56.45 Q-37.6 -57.05 -36.9 -57.3 L-35.5 -57.45 43.5 -41.45 Q44.3 -41.3 44.9 -40.65" fill="#000000" fill-rule="evenodd" stroke="none"/>
    <path d="M-36.0 -55.0 L43.0 -39.0 46.8 3.2 50.0 39.0 -32.0 57.0 -34.65 -17.65 -36.0 -55.0" fill="url(#gradient0)" fill-rule="evenodd" stroke="none"/>
    <path d="M42.9 27.55 L42.5 28.5 Q41.95 29.2 40.8 28.75 39.95 28.35 39.75 27.1 39.55 25.9 40.15 25.35 40.55 24.9 41.45 24.8 42.45 24.65 43.05 25.1 44.05 25.85 43.85 27.45 44.25 27.7 44.4 28.3 44.55 28.85 44.3 29.45 43.55 30.95 41.75 31.65 L37.5 32.8 Q35.95 33.15 35.15 32.2 34.35 31.35 35.05 30.55 36.3 29.05 40.4 28.85 L42.4 28.95 Q43.05 28.4 42.9 27.55 M43.55 31.0 L44.9 29.25 Q45.2 28.55 46.1 29.8 46.95 31.0 45.9 32.25 45.3 33.0 42.75 34.45 40.85 35.5 40.1 38.0 39.3 36.1 39.65 34.45 40.05 32.6 41.75 32.1 L43.55 31.0" fill="url(#gradient1)" fill-rule="evenodd" stroke="none"/>
    <path d="M-36.0 -55.0 L-32.0 57.0 -44.0 51.0 -47.0 -40.0 -36.0 -55.0" fill="url(#gradient2)" fill-rule="evenodd" stroke="none"/>
    <path d="M-3.35 -20.95 L-23.8 -22.9 -25.25 -52.8 -5.1 -48.75 -3.35 -20.95" fill="url(#gradient3)" fill-rule="evenodd" stroke="none"/>
    <path d="M-2.9 -13.9 L-23.4 -14.85 -23.45 -15.65 -23.8 -22.9 -3.35 -20.95 -2.9 -13.9" fill="url(#gradient4)" fill-rule="evenodd" stroke="none"/>
    <path d="M-23.5 -17.0 L-3.0 -15.5 1.15 49.7 -11.65 52.55 -19.95 54.35 -23.5 -17.0" fill="url(#gradient5)" fill-rule="evenodd" stroke="none"/>
  </g>
  <defs>
    <linearGradient gradientTransform="matrix(0.0368, -0.0696, 0.0604, 0.0319, 75.2, 44.8)" gradientUnits="userSpaceOnUse" id="gradient0" spreadMethod="pad" x1="-819.2" x2="819.2">
      <stop offset="0.0" stop-color="#714f5b"/>
      <stop offset="0.7254901960784313" stop-color="#433338"/>
      <stop offset="1.0" stop-color="#403136"/>
    </linearGradient>
    <linearGradient gradientTransform="matrix(0.0251, -0.068, 0.0589, 0.0218, 29.75, -0.55)" gradientUnits="userSpaceOnUse" id="gradient1" spreadMethod="pad" x1="-819.2" x2="819.2">
      <stop offset="0.0" stop-color="#9d916f"/>
      <stop offset="0.6392156862745098" stop-color="#796b53"/>
      <stop offset="1.0" stop-color="#8f865f"/>
    </linearGradient>
    <linearGradient gradientTransform="matrix(0.0368, -0.0696, 0.0604, 0.0319, 75.2, 44.8)" gradientUnits="userSpaceOnUse" id="gradient2" spreadMethod="pad" x1="-819.2" x2="819.2">
      <stop offset="0.0" stop-color="#ebe9e9"/>
      <stop offset="1.0" stop-color="#8f8885"/>
    </linearGradient>
    <linearGradient gradientTransform="matrix(0.0368, -0.0696, 0.0604, 0.0319, 75.2, 44.8)" gradientUnits="userSpaceOnUse" id="gradient3" spreadMethod="pad" x1="-819.2" x2="819.2">
      <stop offset="0.7137254901960784" stop-color="#324870"/>
      <stop offset="0.9254901960784314" stop-color="#213649"/>
    </linearGradient>
    <linearGradient gradientTransform="matrix(0.0368, -0.0696, 0.0604, 0.0319, 75.2, 44.8)" gradientUnits="userSpaceOnUse" id="gradient4" spreadMethod="pad" x1="-819.2" x2="819.2">
      <stop offset="0.0" stop-color="#aca284"/>
      <stop offset="1.0" stop-color="#8f865f"/>
    </linearGradient>
    <linearGradient gradientTransform="matrix(0.0368, -0.0696, 0.0604, 0.0319, 75.2, 44.8)" gradientUnits="userSpaceOnUse" id="gradient5" spreadMethod="pad" x1="-819.2" x2="819.2">
      <stop offset="0.0" stop-color="#9fa6ac"/>
      <stop offset="0.7686274509803922" stop-color="#6d737c"/>
    </linearGradient>
  </defs>
</svg>
