<?xml version="1.0" encoding="UTF-8" standalone="no"?>
<svg xmlns:xlink="http://www.w3.org/1999/xlink" height="148.9px" width="46.15px" xmlns="http://www.w3.org/2000/svg">
  <g transform="matrix(1.0, 0.0, 0.0, 1.0, 23.05, 74.4)">
    <path d="M10.55 -66.1 Q7.65 -66.05 6.35 -64.15 L6.3 -64.1 Q5.75 -63.2 5.75 -62.25 6.85 -62.4 7.9 -61.55 L7.9 -61.5 Q10.3 -59.65 9.85 -56.4 L9.85 -56.35 9.5 -55.0 9.9 -53.75 Q13.85 -57.3 14.45 -60.25 14.8 -63.05 13.6 -64.75 12.5 -66.15 10.55 -66.1 M2.35 -71.6 L2.3 -71.6 Q5.75 -74.35 10.6 -74.4 16.85 -74.45 20.35 -70.0 L20.4 -69.95 Q23.75 -65.7 22.95 -59.25 22.45 -55.15 18.65 -50.95 L18.7 -50.95 17.2 -49.25 18.3 -49.05 Q19.25 -48.6 19.45 -47.25 20.65 -44.15 17.85 -41.1 L17.8 -41.05 16.4 -39.85 Q16.35 -37.7 14.4 -36.1 L14.3 -36.05 13.8 -35.65 Q13.5 -33.85 11.4 -32.6 10.2 -31.85 8.85 -31.7 9.35 -31.2 9.5 -30.45 10.25 -30.35 10.85 -29.7 11.55 -28.95 11.5 -27.9 L11.3 -25.6 12.05 -25.25 13.15 -24.3 13.5 -22.8 Q13.45 -22.05 12.95 -21.45 L10.9 -18.85 11.25 -18.6 Q13.85 -17.35 13.35 -13.6 L13.25 -13.25 Q12.55 -10.95 10.7 -10.5 L8.65 -10.35 8.5 -9.8 8.5 -9.75 Q7.4 -7.55 7.5 -5.1 7.55 -4.45 7.2 -3.8 L6.5 -3.0 6.5 40.5 Q7.0 41.15 7.0 42.0 L7.0 44.15 7.2 44.4 Q8.15 45.6 8.15 47.05 8.15 48.15 7.65 49.05 8.5 50.1 8.5 51.5 8.55 53.1 7.35 54.35 L7.0 54.65 7.0 56.0 6.7 57.25 Q7.3 60.85 9.55 63.0 L9.8 63.25 Q10.3 63.75 10.45 64.4 L10.5 64.7 10.5 65.0 10.5 68.0 Q10.5 69.05 9.8 69.8 L8.9 70.35 8.65 70.6 7.65 71.35 Q6.7 72.55 4.9 73.4 L4.95 73.4 Q2.7 74.5 0.0 74.5 -2.7 74.5 -4.9 73.4 -6.7 72.55 -7.6 71.35 -8.3 71.1 -8.6 70.6 L-8.85 70.35 -9.75 69.8 Q-10.5 69.05 -10.5 68.0 L-10.5 65.0 -10.45 64.7 -10.4 64.4 Q-10.3 63.8 -9.85 63.35 L-9.75 63.25 -9.65 63.15 Q-7.35 60.95 -6.65 57.25 L-7.0 56.0 -7.0 54.65 -7.3 54.35 Q-8.55 53.1 -8.5 51.5 -8.5 50.1 -7.65 49.05 -8.15 48.15 -8.15 47.05 -8.15 45.6 -7.2 44.4 L-7.0 44.15 -7.0 42.0 Q-7.0 41.15 -6.5 40.5 L-6.5 -3.0 -7.2 -3.8 Q-7.55 -4.45 -7.5 -5.1 -7.4 -7.55 -8.45 -9.75 L-8.5 -9.8 -8.65 -10.35 -10.65 -10.5 Q-12.55 -10.95 -13.25 -13.25 L-13.3 -13.6 Q-13.85 -17.35 -11.25 -18.6 L-10.85 -18.85 -12.95 -21.45 Q-13.45 -22.05 -13.5 -22.8 L-13.15 -24.3 Q-12.75 -24.95 -12.0 -25.25 L-11.25 -25.6 -11.5 -27.9 Q-11.55 -28.95 -10.8 -29.7 L-9.45 -30.45 -8.8 -31.7 Q-10.2 -31.85 -11.35 -32.6 -13.5 -33.85 -13.75 -35.65 L-14.3 -36.05 -14.35 -36.1 Q-16.35 -37.7 -16.4 -39.85 L-17.75 -41.05 -17.8 -41.05 -17.85 -41.1 Q-20.65 -44.15 -19.45 -47.25 -19.25 -48.6 -18.25 -49.05 L-17.15 -49.25 -18.65 -50.95 Q-22.45 -55.15 -22.9 -59.25 -23.75 -65.7 -20.35 -69.95 L-20.35 -70.0 Q-16.85 -74.45 -10.55 -74.4 -5.75 -74.35 -2.3 -71.6 -0.95 -70.65 0.0 -69.3 0.95 -70.65 2.35 -71.6 M0.6 -43.75 L0.0 -44.0 -0.6 -43.75 0.0 -42.7 0.6 -43.75 M-6.3 -64.1 L-6.3 -64.15 Q-7.65 -66.05 -10.5 -66.1 L-10.55 -66.1 Q-12.5 -66.15 -13.55 -64.75 -14.8 -63.05 -14.4 -60.25 -13.85 -57.3 -9.9 -53.75 -9.85 -54.45 -9.45 -55.0 L-9.8 -56.35 -9.8 -56.4 Q-10.3 -59.65 -7.9 -61.5 L-7.85 -61.55 Q-6.85 -62.4 -5.7 -62.25 -5.75 -63.2 -6.3 -64.1" fill="#000000" fill-rule="evenodd" stroke="none"/>
    <path d="M6.85 68.8 L5.9 69.0 0.0 69.0 -5.9 69.0 -6.85 68.8 -7.0 68.3 -7.0 68.0 7.0 68.0 7.0 68.3 6.85 68.8" fill="url(#gradient0)" fill-rule="evenodd" stroke="none"/>
    <path d="M6.0 69.0 Q5.55 70.3 3.8 71.15 2.1 72.0 0.0 72.0 -2.1 72.0 -3.8 71.15 -5.55 70.3 -6.0 69.0 L0.0 69.0 6.0 69.0" fill="url(#gradient1)" fill-rule="evenodd" stroke="none"/>
    <path d="M8.0 68.0 L-8.0 68.0 -8.0 65.0 8.0 65.0 8.0 68.0" fill="url(#gradient2)" fill-rule="evenodd" stroke="none"/>
    <path d="M0.0 56.0 L4.0 56.0 Q4.5 61.85 8.0 65.0 L-8.0 65.0 Q-4.5 61.85 -4.0 56.0 L0.0 56.0" fill="url(#gradient3)" fill-rule="evenodd" stroke="none"/>
    <path d="M4.0 -8.0 L4.0 42.0 -4.0 42.0 -4.0 -8.0 -3.0 -8.0 0.0 -8.0 3.0 -8.0 4.0 -8.0" fill="url(#gradient4)" fill-rule="evenodd" stroke="none"/>
    <path d="M4.5 56.0 L-4.5 56.0 -4.5 42.0 4.5 42.0 4.5 56.0" fill="url(#gradient5)" fill-rule="evenodd" stroke="none"/>
    <path d="M6.0 51.5 L5.55 52.55 4.5 53.0 -4.5 53.0 -5.55 52.55 -6.0 51.5 Q-6.0 50.9 -5.55 50.45 -5.1 50.0 -4.5 50.0 L4.5 50.0 Q5.1 50.0 5.55 50.45 6.0 50.9 6.0 51.5" fill="url(#gradient6)" fill-rule="evenodd" stroke="none"/>
    <path d="M4.0 -8.0 L-4.0 -8.0 Q-5.25 -12.8 -7.0 -14.0 L7.0 -14.0 4.0 -8.0" fill="url(#gradient7)" fill-rule="evenodd" stroke="none"/>
    <path d="M0.0 48.6 Q-0.65 48.6 -1.15 48.1 -1.6 47.65 -1.6 47.0 -1.6 46.35 -1.15 45.85 -0.65 45.4 0.0 45.4 0.65 45.4 1.1 45.85 1.6 46.35 1.6 47.0 1.6 47.65 1.1 48.1 0.65 48.6 0.0 48.6" fill="url(#gradient8)" fill-rule="evenodd" stroke="none"/>
    <path d="M4.5 45.4 L5.25 45.95 Q5.65 46.45 5.65 47.05 5.65 47.65 5.25 48.1 L4.5 48.6 4.5 45.4" fill="url(#gradient9)" fill-rule="evenodd" stroke="none"/>
    <path d="M-5.25 48.1 Q-5.65 47.65 -5.65 47.05 -5.65 46.45 -5.25 45.95 L-4.5 45.4 -4.5 48.6 -5.25 48.1" fill="url(#gradient10)" fill-rule="evenodd" stroke="none"/>
    <path d="M7.55 -16.15 Q8.8 -17.2 9.95 -16.5 11.1 -15.8 10.85 -13.95 10.6 -13.1 9.95 -12.9 9.3 -12.65 8.8 -13.3 7.55 -13.6 6.25 -10.9 4.85 -8.1 5.0 -5.0 L4.0 -5.0 4.0 -8.0 Q4.0 -9.65 5.2 -12.25 6.25 -14.6 7.55 -16.15" fill="url(#gradient11)" fill-rule="evenodd" stroke="none"/>
    <path d="M-7.55 -16.15 Q-6.25 -14.6 -5.2 -12.25 -4.0 -9.65 -4.0 -8.0 L-4.0 -5.0 -5.0 -5.0 Q-4.85 -8.1 -6.25 -10.9 -7.55 -13.6 -8.8 -13.3 -9.3 -12.65 -9.95 -12.9 -10.6 -13.1 -10.85 -13.95 -11.1 -15.8 -9.95 -16.5 -8.8 -17.2 -7.55 -16.15" fill="url(#gradient12)" fill-rule="evenodd" stroke="none"/>
    <path d="M-8.25 -17.1 L-7.8 -17.1 -7.8 -11.8 Q-9.6 -11.9 -11.0 -12.6 -12.5 -13.35 -12.5 -14.5 -12.5 -15.25 -11.75 -15.9 L-11.0 -16.4 -10.6 -16.55 -8.4 -17.1 -8.25 -17.1" fill="url(#gradient13)" fill-rule="evenodd" stroke="none"/>
    <path d="M11.75 -15.9 Q12.5 -15.25 12.5 -14.5 12.5 -13.35 11.0 -12.6 9.6 -11.9 7.8 -11.8 L7.8 -17.1 8.25 -17.1 8.4 -17.1 10.6 -16.55 11.0 -16.4 11.75 -15.9" fill="url(#gradient14)" fill-rule="evenodd" stroke="none"/>
    <path d="M7.0 -14.0 L-7.0 -14.0 -8.5 -17.0 8.5 -17.0 7.0 -14.0" fill="url(#gradient15)" fill-rule="evenodd" stroke="none"/>
    <path d="M0.0 -21.0 L5.0 -21.0 Q5.6 -19.65 8.5 -17.0 L0.0 -17.0 -8.5 -17.0 Q-5.6 -19.65 -5.0 -21.0 L0.0 -21.0" fill="url(#gradient16)" fill-rule="evenodd" stroke="none"/>
    <path d="M1.45 -16.25 L1.75 -15.05 Q1.75 -14.2 1.4 -13.6 1.0 -13.0 1.0 -12.05 L1.0 -5.0 -1.0 -5.0 -1.0 -12.05 Q-1.0 -13.0 -1.4 -13.6 -1.75 -14.2 -1.75 -15.05 L-1.45 -16.25 Q-1.0 -17.0 0.0 -17.0 1.0 -17.0 1.45 -16.25" fill="url(#gradient17)" fill-rule="evenodd" stroke="none"/>
    <path d="M5.5 -26.2 Q4.0 -24.3 4.0 -21.0 L0.0 -21.0 -4.0 -21.0 Q-4.0 -24.3 -5.5 -26.2 -7.0 -28.1 -7.0 -30.0 L0.0 -30.0 7.0 -30.0 Q7.0 -28.1 5.5 -26.2" fill="url(#gradient18)" fill-rule="evenodd" stroke="none"/>
    <path d="M2.0 -23.0 L2.0 -27.0 11.0 -23.0 7.0 -18.0 2.0 -23.0" fill="url(#gradient19)" fill-rule="evenodd" stroke="none"/>
    <path d="M-2.0 -23.0 L-7.0 -18.0 -11.0 -23.0 -2.0 -27.0 -2.0 -23.0" fill="url(#gradient20)" fill-rule="evenodd" stroke="none"/>
    <path d="M2.0 -23.0 L-2.0 -23.0 -2.0 -27.0 2.0 -27.0 2.0 -23.0" fill="url(#gradient21)" fill-rule="evenodd" stroke="none"/>
    <path d="M9.0 -28.0 Q8.9 -24.3 7.0 -21.0 L2.0 -23.0 2.0 -27.0 Q5.4 -28.1 9.0 -28.0" fill="url(#gradient22)" fill-rule="evenodd" stroke="none"/>
    <path d="M-9.0 -28.0 Q-5.4 -28.1 -2.0 -27.0 L-2.0 -23.0 -7.0 -21.0 Q-8.9 -24.3 -9.0 -28.0" fill="url(#gradient23)" fill-rule="evenodd" stroke="none"/>
    <path d="M4.0 -30.0 L-4.0 -30.0 -4.0 -34.0 4.0 -34.0 4.0 -30.0" fill="url(#gradient24)" fill-rule="evenodd" stroke="none"/>
    <path d="M-15.55 -66.3 Q-17.45 -63.85 -16.9 -59.9 -16.35 -55.9 -10.85 -51.3 -4.3 -45.8 -1.9 -40.9 2.45 -32.05 -3.35 -30.0 L-4.0 -30.0 Q-4.45 -29.95 -5.05 -30.9 -5.7 -31.9 -5.65 -32.85 -5.6 -34.1 -5.0 -34.75 L-2.9 -34.9 Q-3.0 -37.25 -8.4 -39.6 -13.3 -41.8 -12.25 -45.05 -12.0 -45.8 -12.5 -47.25 -13.0 -48.4 -16.8 -52.65 -20.0 -56.15 -20.45 -59.6 -21.15 -64.9 -18.4 -68.45 -15.6 -71.95 -10.6 -71.9 -6.65 -71.85 -3.85 -69.65 0.0 -66.7 -0.05 -60.6 -0.05 -58.25 -1.6 -56.35 -3.2 -54.45 -5.1 -54.65 -7.05 -54.9 -7.35 -56.75 -7.6 -58.55 -6.3 -59.6 -5.7 -60.1 -4.95 -59.0 -4.35 -58.15 -3.75 -59.6 -2.45 -62.7 -4.2 -65.45 -6.1 -68.55 -10.5 -68.6 -13.75 -68.65 -15.55 -66.3" fill="url(#gradient25)" fill-rule="evenodd" stroke="none"/>
    <path d="M15.55 -66.3 Q13.75 -68.65 10.5 -68.6 6.1 -68.55 4.2 -65.45 2.45 -62.7 3.75 -59.6 4.35 -58.15 4.95 -59.0 5.7 -60.1 6.3 -59.6 7.6 -58.55 7.35 -56.75 7.05 -54.9 5.1 -54.65 3.2 -54.45 1.6 -56.35 0.05 -58.25 0.05 -60.6 0.0 -66.7 3.85 -69.65 6.65 -71.85 10.6 -71.9 15.6 -71.95 18.4 -68.45 21.15 -64.9 20.45 -59.6 20.0 -56.15 16.8 -52.65 13.0 -48.4 12.5 -47.25 12.0 -45.8 12.25 -45.05 13.3 -41.8 8.4 -39.6 3.0 -37.25 2.9 -34.9 L5.0 -34.75 Q5.6 -34.1 5.65 -32.85 5.7 -31.9 5.05 -30.9 4.45 -29.95 4.0 -30.0 L3.35 -30.0 Q-2.45 -32.05 1.9 -40.9 4.3 -45.8 10.85 -51.3 16.35 -55.9 16.9 -59.9 17.45 -63.85 15.55 -66.3" fill="url(#gradient26)" fill-rule="evenodd" stroke="none"/>
    <path d="M10.65 -70.9 Q15.1 -70.95 17.6 -67.85 L17.65 -67.8 Q20.1 -64.55 19.45 -59.7 19.0 -56.55 16.05 -53.3 12.05 -48.9 11.6 -47.65 L11.55 -47.55 Q11.1 -46.6 11.2 -45.8 L11.25 -45.15 10.3 -45.65 Q9.45 -46.15 8.35 -45.65 5.6 -44.5 3.55 -40.35 1.8 -36.9 1.85 -34.95 L2.05 -34.3 2.65 -33.9 3.3 -34.0 4.25 -34.05 Q4.6 -33.6 4.6 -32.8 4.6 -31.85 4.05 -31.3 L3.5 -31.0 Q1.35 -31.8 1.05 -33.85 0.75 -36.35 2.75 -40.45 5.1 -45.2 11.5 -50.5 17.35 -55.45 17.9 -59.75 18.5 -64.2 16.35 -66.9 14.25 -69.65 10.5 -69.6 5.45 -69.55 3.3 -65.95 1.45 -63.05 2.6 -59.25 2.9 -58.25 3.85 -57.8 4.95 -57.25 5.75 -58.4 L5.85 -58.6 Q6.45 -57.9 6.3 -56.85 L6.35 -56.9 Q6.1 -55.8 4.95 -55.65 3.35 -55.55 2.35 -57.0 1.4 -58.35 1.15 -60.6 0.9 -63.1 1.8 -65.3 2.65 -67.5 4.4 -68.85 L4.45 -68.85 Q6.95 -70.85 10.6 -70.9 L10.65 -70.9" fill="url(#gradient27)" fill-rule="evenodd" stroke="none"/>
    <path d="M-4.4 -68.85 Q-2.65 -67.5 -1.8 -65.3 -0.9 -63.1 -1.15 -60.6 -1.4 -58.35 -2.35 -57.0 -3.35 -55.55 -4.95 -55.65 -6.1 -55.8 -6.35 -56.9 L-6.3 -56.85 Q-6.45 -57.9 -5.85 -58.6 L-5.75 -58.4 Q-4.95 -57.25 -3.85 -57.8 -2.9 -58.25 -2.6 -59.25 -1.45 -63.05 -3.3 -65.95 -5.45 -69.55 -10.5 -69.6 -14.25 -69.65 -16.35 -66.9 -18.5 -64.2 -17.9 -59.75 -17.35 -55.45 -11.5 -50.5 -5.1 -45.2 -2.75 -40.45 -0.75 -36.35 -1.05 -33.85 -1.35 -31.8 -3.5 -31.0 L-4.05 -31.3 Q-4.6 -31.85 -4.6 -32.8 -4.6 -33.6 -4.25 -34.05 L-3.3 -34.0 -2.65 -33.9 -2.05 -34.3 -1.85 -34.95 Q-1.8 -36.9 -3.55 -40.35 -5.6 -44.5 -8.35 -45.65 -9.45 -46.15 -10.3 -45.65 L-11.25 -45.15 -11.2 -45.8 Q-11.1 -46.6 -11.55 -47.55 L-11.6 -47.65 Q-12.05 -48.9 -16.05 -53.3 -19.0 -56.55 -19.45 -59.7 -20.1 -64.55 -17.65 -67.8 L-17.6 -67.85 Q-15.1 -70.95 -10.65 -70.9 L-10.6 -70.9 Q-6.95 -70.85 -4.45 -68.85 L-4.4 -68.85" fill="url(#gradient28)" fill-rule="evenodd" stroke="none"/>
    <path d="M0.0 -35.6 L0.0 -30.75 -1.95 -30.55 Q-4.05 -30.55 -5.55 -31.35 -7.05 -32.1 -7.05 -33.2 -7.05 -33.95 -6.3 -34.6 L-5.55 -35.1 Q-4.05 -35.85 -1.95 -35.85 L-1.85 -35.85 -1.75 -35.85 -0.95 -35.8 -0.25 -35.7 0.0 -35.6" fill="url(#gradient29)" fill-rule="evenodd" stroke="none"/>
    <path d="M7.9 -58.2 Q8.65 -57.6 8.65 -56.85 8.65 -55.75 7.15 -55.0 5.65 -54.2 3.55 -54.2 L1.6 -54.4 1.6 -59.2 1.85 -59.3 2.55 -59.4 3.35 -59.45 3.45 -59.45 3.55 -59.45 Q5.65 -59.45 7.15 -58.7 L7.9 -58.2" fill="url(#gradient30)" fill-rule="evenodd" stroke="none"/>
    <path d="M14.6 -66.0 Q12.65 -67.1 11.65 -68.55 10.6 -70.0 11.15 -71.0 11.7 -72.0 13.5 -71.85 15.3 -71.75 17.25 -70.65 19.2 -69.55 20.2 -68.1 21.2 -66.65 20.65 -65.65 20.1 -64.65 18.35 -64.8 16.55 -64.9 14.6 -66.0" fill="url(#gradient31)" fill-rule="evenodd" stroke="none"/>
    <path d="M-6.4 -66.0 Q-8.35 -67.1 -9.35 -68.55 -10.4 -70.0 -9.85 -71.0 -9.3 -72.0 -7.5 -71.85 -5.7 -71.75 -3.75 -70.65 -1.8 -69.55 -0.8 -68.1 0.2 -66.65 -0.35 -65.65 -0.9 -64.65 -2.65 -64.8 -4.45 -64.9 -6.4 -66.0" fill="url(#gradient32)" fill-rule="evenodd" stroke="none"/>
    <path d="M-3.55 -59.45 L-3.45 -59.45 -2.65 -59.4 -1.95 -59.3 -1.7 -59.2 -1.7 -54.4 -3.65 -54.2 Q-5.75 -54.2 -7.25 -55.0 -8.75 -55.75 -8.75 -56.85 -8.75 -57.6 -8.0 -58.2 L-7.25 -58.7 Q-5.75 -59.45 -3.65 -59.45 L-3.55 -59.45" fill="url(#gradient33)" fill-rule="evenodd" stroke="none"/>
    <path d="M6.3 -34.6 Q7.05 -34.0 7.05 -33.25 7.05 -32.15 5.55 -31.4 4.05 -30.6 1.95 -30.6 L0.0 -30.8 0.0 -35.6 0.25 -35.7 0.95 -35.8 1.75 -35.85 1.85 -35.85 1.95 -35.85 Q4.05 -35.85 5.55 -35.1 L6.3 -34.6" fill="url(#gradient34)" fill-rule="evenodd" stroke="none"/>
    <path d="M16.0 -42.8 Q14.3 -41.05 11.8 -40.75 L12.75 -40.6 Q13.9 -40.6 13.9 -40.1 13.9 -38.9 12.8 -38.05 11.75 -37.25 10.45 -37.15 L10.8 -36.9 Q11.35 -36.75 11.3 -36.35 11.2 -35.4 10.1 -34.75 8.85 -34.0 7.25 -34.3 L5.1 -35.05 Q3.85 -35.45 2.75 -34.8 2.95 -37.9 5.05 -41.25 7.1 -44.5 8.8 -44.8 11.8 -44.25 14.7 -45.9 16.85 -47.1 17.05 -46.5 17.7 -44.65 16.0 -42.8" fill="url(#gradient35)" fill-rule="evenodd" stroke="none"/>
    <path d="M-5.05 -41.25 Q-2.95 -37.9 -2.75 -34.8 -3.85 -35.45 -5.1 -35.05 L-7.25 -34.3 Q-8.85 -34.0 -10.1 -34.75 -11.2 -35.4 -11.3 -36.35 -11.35 -36.75 -10.8 -36.9 L-10.45 -37.15 Q-11.75 -37.25 -12.8 -38.05 -13.9 -38.9 -13.9 -40.1 -13.9 -40.6 -12.75 -40.6 L-11.8 -40.75 Q-14.3 -41.05 -16.0 -42.8 -17.7 -44.65 -17.05 -46.5 -16.85 -47.1 -14.7 -45.9 -11.8 -44.25 -8.8 -44.8 -7.1 -44.5 -5.05 -41.25" fill="url(#gradient36)" fill-rule="evenodd" stroke="none"/>
    <path d="M-6.85 -43.85 Q-6.85 -42.75 -8.35 -42.0 L-12.65 -41.2 Q-14.35 -41.35 -15.6 -42.0 -17.1 -42.75 -17.1 -43.85 -17.1 -44.95 -15.6 -45.75 -14.1 -46.5 -12.0 -46.5 -9.9 -46.5 -8.35 -45.75 -6.85 -44.95 -6.85 -43.85" fill="url(#gradient37)" fill-rule="evenodd" stroke="none"/>
    <path d="M-10.75 -37.1 L-11.45 -36.65 -12.55 -37.1 Q-14.05 -37.85 -14.05 -38.95 -14.05 -40.05 -12.55 -40.85 L-12.15 -41.0 Q-10.9 -41.55 -9.25 -41.6 L-8.8 -41.55 -8.7 -41.6 -8.3 -41.55 Q-6.6 -41.5 -5.3 -40.85 -3.8 -40.05 -3.8 -38.95 -3.8 -38.35 -4.2 -37.9 L-4.5 -37.95 -4.55 -37.9 -4.8 -37.95 -5.4 -38.0 -6.2 -38.05 -7.25 -38.1 -7.4 -38.1 -7.55 -38.1 -7.7 -38.1 -9.9 -37.55 -9.95 -37.5 -10.0 -37.5 -10.15 -37.45 -10.3 -37.4 -10.7 -37.15 -10.75 -37.1" fill="url(#gradient38)" fill-rule="evenodd" stroke="none"/>
    <path d="M-10.75 -37.1 L-10.7 -37.15 -10.3 -37.4 -10.15 -37.45 -10.0 -37.5 -9.95 -37.5 -9.9 -37.55 -7.7 -38.1 -7.55 -38.1 -7.4 -38.1 -7.25 -38.1 -6.5 -38.05 -5.7 -38.0 -4.9 -37.9 -4.8 -37.95 -4.55 -37.9 -4.5 -37.9 -4.15 -37.8 -3.05 -37.4 Q-1.55 -36.6 -1.55 -35.5 -1.55 -34.35 -3.05 -33.6 -4.55 -32.8 -6.65 -32.8 -8.75 -32.8 -10.3 -33.6 -11.8 -34.35 -11.8 -35.5 -11.8 -36.25 -11.05 -36.9 L-10.75 -37.1" fill="url(#gradient39)" fill-rule="evenodd" stroke="none"/>
    <path d="M4.55 -37.9 L4.8 -37.95 4.9 -37.9 5.7 -38.0 6.5 -38.05 7.05 -38.1 7.25 -38.1 7.4 -38.1 7.55 -38.1 7.7 -38.1 9.9 -37.55 9.95 -37.5 10.0 -37.5 10.15 -37.45 10.3 -37.4 10.7 -37.15 10.75 -37.1 11.05 -36.9 Q11.8 -36.25 11.8 -35.5 11.8 -34.35 10.3 -33.6 8.75 -32.8 6.65 -32.8 4.55 -32.8 3.05 -33.6 1.55 -34.35 1.55 -35.5 1.55 -36.6 3.05 -37.4 L4.15 -37.8 4.5 -37.9 4.55 -37.9" fill="url(#gradient40)" fill-rule="evenodd" stroke="none"/>
    <path d="M4.55 -37.9 L4.5 -37.95 4.2 -37.9 Q3.8 -38.35 3.8 -38.95 3.8 -40.05 5.3 -40.85 6.6 -41.5 8.3 -41.55 L8.7 -41.6 8.8 -41.55 9.25 -41.6 Q10.9 -41.55 12.15 -41.0 L12.55 -40.85 Q14.05 -40.05 14.05 -38.95 14.05 -37.85 12.55 -37.1 L11.45 -36.65 10.75 -37.1 10.7 -37.15 10.3 -37.4 10.15 -37.45 10.0 -37.5 9.95 -37.5 9.9 -37.55 7.7 -38.1 7.55 -38.1 7.4 -38.1 7.25 -38.1 7.05 -38.1 6.2 -38.05 5.4 -38.0 4.8 -37.95 4.55 -37.9" fill="url(#gradient41)" fill-rule="evenodd" stroke="none"/>
    <path d="M15.6 -45.75 Q17.1 -44.95 17.1 -43.85 17.1 -42.75 15.6 -42.0 14.35 -41.35 12.65 -41.2 L8.35 -42.0 Q6.85 -42.75 6.85 -43.85 6.85 -44.95 8.35 -45.75 9.9 -46.5 12.0 -46.5 14.1 -46.5 15.6 -45.75" fill="url(#gradient42)" fill-rule="evenodd" stroke="none"/>
    <path d="M10.4 -37.15 L8.35 -37.3 6.1 -37.35 M12.0 -40.75 Q9.2 -41.3 7.05 -40.0 M-12.0 -40.75 Q-9.2 -41.3 -7.05 -40.0 M-10.4 -37.15 L-8.35 -37.3 -6.1 -37.35" fill="none" stroke="#b8b8b8" stroke-linecap="round" stroke-linejoin="round" stroke-width="0.25"/>
    <path d="M0.0 -51.15 L0.0 -59.0 2.55 -54.75 0.0 -51.15" fill="#f0e9d5" fill-rule="evenodd" stroke="none"/>
    <path d="M4.2 -49.8 L0.0 -51.15 7.4 -53.6 4.2 -49.8 M0.0 -51.15 L-7.4 -53.6 -2.55 -54.75 0.0 -59.0 0.0 -51.15" fill="#d1a318" fill-rule="evenodd" stroke="none"/>
    <path d="M0.0 -51.15 L4.55 -44.8 0.0 -46.7 -4.55 -44.8 0.0 -51.15" fill="#b18a14" fill-rule="evenodd" stroke="none"/>
    <path d="M-7.4 -53.6 L0.0 -51.15 -4.55 -44.8 -4.2 -49.8 -7.4 -53.6" fill="#8b6c10" fill-rule="evenodd" stroke="none"/>
    <path d="M0.0 -51.15 L4.2 -49.8 4.55 -44.8 0.0 -51.15" fill="#e4b11b" fill-rule="evenodd" stroke="none"/>
    <path d="M7.4 -53.6 L0.0 -51.15 2.55 -54.75 7.4 -53.6" fill="#f9d737" fill-rule="evenodd" stroke="none"/>
    <path d="M8.95 -27.0 L9.0 -27.0 8.65 -24.05 8.4 -24.15 8.95 -27.0 M0.05 -34.0 Q0.15 -32.85 0.7 -32.0 L-0.6 -32.0 Q-0.1 -32.85 0.0 -34.0 L0.05 -34.0 M11.0 -22.0 L7.0 -17.0 3.0 -21.0 -3.0 -21.0 -7.0 -17.0 -11.0 -22.0 -10.4 -22.25 -7.0 -18.0 -4.0 -21.0 -3.0 -22.0 -2.0 -23.0 2.0 -23.0 3.0 -22.0 4.0 -21.0 7.0 -18.0 10.4 -22.25 11.0 -22.0 M1.15 -13.0 L1.4 -13.6 1.6 -14.0 6.1 -14.0 5.6 -13.0 1.5 -13.0 1.15 -13.0 M-1.5 -13.0 L-5.55 -13.0 -6.05 -14.0 -1.6 -14.0 -1.45 -13.7 -1.4 -13.65 -1.4 -13.6 -1.1 -13.0 -1.5 -13.0 M-8.95 -27.0 L-8.35 -24.15 -8.6 -24.05 -9.0 -27.0 -8.95 -27.0" fill="#000000" fill-opacity="0.2509804" fill-rule="evenodd" stroke="none"/>
    <path d="M3.35 -30.0 L-3.3 -30.0 Q-2.2 -30.4 -1.5 -31.0 L1.55 -31.0 3.35 -30.0 M5.0 54.0 L-5.0 54.0 -5.0 53.0 5.0 53.0 5.0 54.0" fill="#000000" fill-opacity="0.15294118" fill-rule="evenodd" stroke="none"/>
    <path d="M6.0 -30.0 L4.85 -30.0 5.45 -31.0 6.0 -31.0 6.0 -30.0 M1.15 -13.0 L1.5 -13.0 1.5 -4.5 -1.5 -4.5 -1.5 -13.0 -1.1 -13.0 -1.0 -12.05 -1.0 -5.5 -1.0 -5.0 1.0 -5.0 1.0 -5.5 1.0 -12.05 Q1.0 -12.6 1.15 -13.0 M5.0 57.0 L-5.0 57.0 -5.0 56.0 5.0 56.0 5.0 57.0 M-5.45 -31.0 L-4.8 -30.0 -6.0 -30.0 -6.0 -31.0 -5.45 -31.0" fill="#000000" fill-opacity="0.2" fill-rule="evenodd" stroke="none"/>
  </g>
  <defs>
    <radialGradient cx="0" cy="0" gradientTransform="matrix(0.0, -0.0035, 0.0093, 0.0, 0.0, 67.9)" gradientUnits="userSpaceOnUse" id="gradient0" r="819.2" spreadMethod="pad">
      <stop offset="0.07058823529411765" stop-color="#ffffff"/>
      <stop offset="0.17254901960784313" stop-color="#fa9a9a"/>
      <stop offset="0.4117647058823529" stop-color="#e62626"/>
      <stop offset="0.8274509803921568" stop-color="#940e0e"/>
      <stop offset="1.0" stop-color="#e96363"/>
    </radialGradient>
    <radialGradient cx="0" cy="0" gradientTransform="matrix(0.0073, 0.0, 0.0, 0.0038, 0.0, 68.9)" gradientUnits="userSpaceOnUse" id="gradient1" r="819.2" spreadMethod="pad">
      <stop offset="0.2" stop-color="#ffffff"/>
      <stop offset="0.24705882352941178" stop-color="#fa9a9a"/>
      <stop offset="0.4117647058823529" stop-color="#e62626"/>
      <stop offset="0.8274509803921568" stop-color="#940e0e"/>
      <stop offset="1.0" stop-color="#e96363"/>
    </radialGradient>
    <linearGradient gradientTransform="matrix(0.0107, 0.0, 0.0, 0.0018, 0.0, 66.5)" gradientUnits="userSpaceOnUse" id="gradient2" spreadMethod="pad" x1="-819.2" x2="819.2">
      <stop offset="0.0" stop-color="#dd93a6"/>
      <stop offset="0.11764705882352941" stop-color="#ce627d"/>
      <stop offset="0.27058823529411763" stop-color="#e09eaf"/>
      <stop offset="0.4588235294117647" stop-color="#f8e9ef"/>
      <stop offset="0.5568627450980392" stop-color="#f8e9ef"/>
      <stop offset="0.7176470588235294" stop-color="#e09eaf"/>
      <stop offset="0.8784313725490196" stop-color="#ce627d"/>
      <stop offset="1.0" stop-color="#dd93a6"/>
    </linearGradient>
    <radialGradient cx="0" cy="0" gradientTransform="matrix(0.0094, 0.0, 0.0, 0.036, 0.0, 64.95)" gradientUnits="userSpaceOnUse" id="gradient3" r="819.2" spreadMethod="pad">
      <stop offset="0.058823529411764705" stop-color="#edc9d2"/>
      <stop offset="0.4196078431372549" stop-color="#dc8da2"/>
      <stop offset="0.7843137254901961" stop-color="#cb5674"/>
      <stop offset="1.0" stop-color="#cf7088"/>
    </radialGradient>
    <linearGradient gradientTransform="matrix(0.0059, 0.0, 0.0, 0.0305, 0.0, 17.0)" gradientUnits="userSpaceOnUse" id="gradient4" spreadMethod="pad" x1="-819.2" x2="819.2">
      <stop offset="0.0" stop-color="#dd93a6"/>
      <stop offset="0.11764705882352941" stop-color="#ce627d"/>
      <stop offset="0.27058823529411763" stop-color="#e09eaf"/>
      <stop offset="0.4588235294117647" stop-color="#efcfdf"/>
      <stop offset="0.5568627450980392" stop-color="#efcfdf"/>
      <stop offset="0.7176470588235294" stop-color="#e09eaf"/>
      <stop offset="0.8784313725490196" stop-color="#ce627d"/>
      <stop offset="1.0" stop-color="#dd93a6"/>
    </linearGradient>
    <linearGradient gradientTransform="matrix(0.0055, 0.0, 0.0, 0.0085, 0.0, 49.0)" gradientUnits="userSpaceOnUse" id="gradient5" spreadMethod="pad" x1="-819.2" x2="819.2">
      <stop offset="0.0" stop-color="#988d5f"/>
      <stop offset="0.06666666666666667" stop-color="#7b694a"/>
      <stop offset="0.1450980392156863" stop-color="#6c613e"/>
      <stop offset="0.30196078431372547" stop-color="#a79b65"/>
      <stop offset="0.403921568627451" stop-color="#c9c193"/>
      <stop offset="0.4392156862745098" stop-color="#ebe7d3"/>
      <stop offset="0.5607843137254902" stop-color="#f1eee2"/>
      <stop offset="0.596078431372549" stop-color="#cdc696"/>
      <stop offset="0.7176470588235294" stop-color="#a79b65"/>
      <stop offset="0.8588235294117647" stop-color="#6c613e"/>
      <stop offset="0.9372549019607843" stop-color="#7b694a"/>
      <stop offset="1.0" stop-color="#988d5f"/>
    </linearGradient>
    <radialGradient cx="0" cy="0" fx="112.0" fy="0" gradientTransform="matrix(0.0, 0.0026, -0.0082, 0.0, 0.0, 51.1)" gradientUnits="userSpaceOnUse" id="gradient6" r="819.2" spreadMethod="pad">
      <stop offset="0.06666666666666667" stop-color="#ede4bc"/>
      <stop offset="0.4549019607843137" stop-color="#b7ad63"/>
      <stop offset="0.9372549019607843" stop-color="#70633a"/>
    </radialGradient>
    <radialGradient cx="0" cy="0" gradientTransform="matrix(0.0079, 0.0, 0.0, 0.019, 0.0, -14.0)" gradientUnits="userSpaceOnUse" id="gradient7" r="819.2" spreadMethod="pad">
      <stop offset="0.27450980392156865" stop-color="#c9ba76"/>
      <stop offset="0.4627450980392157" stop-color="#9d9159"/>
      <stop offset="0.7176470588235294" stop-color="#625739"/>
      <stop offset="0.9921568627450981" stop-color="#746743"/>
    </radialGradient>
    <radialGradient cx="0" cy="0" gradientTransform="matrix(0.0025, 0.0, 0.0, 0.0029, 0.0, 46.2)" gradientUnits="userSpaceOnUse" id="gradient8" r="819.2" spreadMethod="pad">
      <stop offset="0.1803921568627451" stop-color="#f4edd0"/>
      <stop offset="0.27450980392156865" stop-color="#e4d8a0"/>
      <stop offset="0.8156862745098039" stop-color="#968a5a"/>
      <stop offset="0.9686274509803922" stop-color="#a49468"/>
    </radialGradient>
    <radialGradient cx="0" cy="0" gradientTransform="matrix(0.0016, 0.0, 0.0, 0.0024, 4.8, 46.45)" gradientUnits="userSpaceOnUse" id="gradient9" r="819.2" spreadMethod="pad">
      <stop offset="0.18823529411764706" stop-color="#e4d8a0"/>
      <stop offset="0.8156862745098039" stop-color="#968a5a"/>
      <stop offset="0.9686274509803922" stop-color="#a49468"/>
    </radialGradient>
    <radialGradient cx="0" cy="0" gradientTransform="matrix(-0.0016, 0.0, 0.0, 0.0024, -4.9, 46.4)" gradientUnits="userSpaceOnUse" id="gradient10" r="819.2" spreadMethod="pad">
      <stop offset="0.18823529411764706" stop-color="#e4d8a0"/>
      <stop offset="0.8156862745098039" stop-color="#968a5a"/>
      <stop offset="0.9686274509803922" stop-color="#a49468"/>
    </radialGradient>
    <radialGradient cx="0" cy="0" gradientTransform="matrix(0.0108, 0.0, 0.0, 0.0169, 10.0, -16.0)" gradientUnits="userSpaceOnUse" id="gradient11" r="819.2" spreadMethod="pad">
      <stop offset="0.00392156862745098" stop-color="#d3cb81"/>
      <stop offset="0.21176470588235294" stop-color="#736244"/>
      <stop offset="0.4666666666666667" stop-color="#897d4b"/>
      <stop offset="0.6313725490196078" stop-color="#877b4a"/>
      <stop offset="1.0" stop-color="#6c613e"/>
    </radialGradient>
    <radialGradient cx="0" cy="0" gradientTransform="matrix(-0.0108, 0.0, 0.0, 0.0169, -10.0, -16.0)" gradientUnits="userSpaceOnUse" id="gradient12" r="819.2" spreadMethod="pad">
      <stop offset="0.00392156862745098" stop-color="#d3cb81"/>
      <stop offset="0.20392156862745098" stop-color="#736244"/>
      <stop offset="0.4666666666666667" stop-color="#897d4b"/>
      <stop offset="0.6313725490196078" stop-color="#877b4a"/>
      <stop offset="1.0" stop-color="#6c613e"/>
    </radialGradient>
    <radialGradient cx="0" cy="0" fx="-1622.4" fy="0" gradientTransform="matrix(0.0015, -0.0018, 0.0017, 0.0014, -9.85, -15.35)" gradientUnits="userSpaceOnUse" id="gradient13" r="819.2" spreadMethod="pad">
      <stop offset="0.13725490196078433" stop-color="#ffffff" stop-opacity="0.5019608"/>
      <stop offset="0.9058823529411765" stop-color="#887f59" stop-opacity="0.0"/>
    </radialGradient>
    <radialGradient cx="0" cy="0" fx="-1622.4" fy="0" gradientTransform="matrix(-0.0015, -0.0018, -0.0017, 0.0014, 9.85, -15.35)" gradientUnits="userSpaceOnUse" id="gradient14" r="819.2" spreadMethod="pad">
      <stop offset="0.13725490196078433" stop-color="#ffffff" stop-opacity="0.5019608"/>
      <stop offset="0.9058823529411765" stop-color="#887f59" stop-opacity="0.0"/>
    </radialGradient>
    <linearGradient gradientTransform="matrix(0.0104, 0.0, 0.0, 0.0018, 0.0, -15.5)" gradientUnits="userSpaceOnUse" id="gradient15" spreadMethod="pad" x1="-819.2" x2="819.2">
      <stop offset="0.0" stop-color="#988d5f"/>
      <stop offset="0.06666666666666667" stop-color="#7b694a"/>
      <stop offset="0.1450980392156863" stop-color="#6c613e"/>
      <stop offset="0.25882352941176473" stop-color="#a79b65"/>
      <stop offset="0.37254901960784315" stop-color="#c9c193"/>
      <stop offset="0.4" stop-color="#ebe7d3"/>
      <stop offset="0.592156862745098" stop-color="#f1eee2"/>
      <stop offset="0.6235294117647059" stop-color="#cdc696"/>
      <stop offset="0.7450980392156863" stop-color="#a79b65"/>
      <stop offset="0.8588235294117647" stop-color="#6c613e"/>
      <stop offset="0.9372549019607843" stop-color="#7b694a"/>
      <stop offset="1.0" stop-color="#988d5f"/>
    </linearGradient>
    <radialGradient cx="0" cy="0" gradientTransform="matrix(0.0114, 0.0, 0.0, 0.0137, 0.0, -20.85)" gradientUnits="userSpaceOnUse" id="gradient16" r="819.2" spreadMethod="pad">
      <stop offset="0.0" stop-color="#dcd6c5"/>
      <stop offset="0.28627450980392155" stop-color="#afa472"/>
      <stop offset="0.6392156862745098" stop-color="#706441"/>
      <stop offset="1.0" stop-color="#584f34"/>
    </radialGradient>
    <radialGradient cx="0" cy="0" gradientTransform="matrix(0.0081, 0.0, 0.0, 0.0137, 0.0, -15.9)" gradientUnits="userSpaceOnUse" id="gradient17" r="819.2" spreadMethod="pad">
      <stop offset="0.0392156862745098" stop-color="#e7e1c9"/>
      <stop offset="0.09803921568627451" stop-color="#c6be9b"/>
      <stop offset="0.2" stop-color="#7c6f49"/>
      <stop offset="0.3176470588235294" stop-color="#95895e"/>
      <stop offset="0.3803921568627451" stop-color="#c6ba86"/>
      <stop offset="0.807843137254902" stop-color="#98895f"/>
      <stop offset="1.0" stop-color="#c6ba86"/>
    </radialGradient>
    <radialGradient cx="0" cy="0" gradientTransform="matrix(0.0087, 0.0, 0.0, 0.0171, 0.0, -30.0)" gradientUnits="userSpaceOnUse" id="gradient18" r="819.2" spreadMethod="pad">
      <stop offset="0.00392156862745098" stop-color="#f8e9ef"/>
      <stop offset="0.4117647058823529" stop-color="#da879c"/>
      <stop offset="0.7803921568627451" stop-color="#cd637e"/>
      <stop offset="1.0" stop-color="#db95a7"/>
    </radialGradient>
    <radialGradient cx="0" cy="0" gradientTransform="matrix(-0.0076, -0.0053, -0.0053, 0.0076, 4.6, -23.45)" gradientUnits="userSpaceOnUse" id="gradient19" r="819.2" spreadMethod="pad">
      <stop offset="0.3411764705882353" stop-color="#8b1010"/>
      <stop offset="0.6274509803921569" stop-color="#c82222"/>
    </radialGradient>
    <radialGradient cx="0" cy="0" gradientTransform="matrix(0.0076, -0.0053, 0.0053, 0.0076, -4.6, -23.45)" gradientUnits="userSpaceOnUse" id="gradient20" r="819.2" spreadMethod="pad">
      <stop offset="0.3411764705882353" stop-color="#8b1010"/>
      <stop offset="0.6274509803921569" stop-color="#c82222"/>
    </radialGradient>
    <radialGradient cx="0" cy="0" gradientTransform="matrix(0.0049, 0.0, 0.0, 0.0038, 0.0, -25.8)" gradientUnits="userSpaceOnUse" id="gradient21" r="819.2" spreadMethod="pad">
      <stop offset="0.23529411764705882" stop-color="#e62020"/>
      <stop offset="0.9529411764705882" stop-color="#781414"/>
    </radialGradient>
    <radialGradient cx="0" cy="0" fx="28.8" fy="0" gradientTransform="matrix(0.001, -0.0077, -0.0054, -6.0E-4, 7.0, -26.0)" gradientUnits="userSpaceOnUse" id="gradient22" r="819.2" spreadMethod="pad">
      <stop offset="0.17647058823529413" stop-color="#e62020"/>
      <stop offset="0.9529411764705882" stop-color="#9c1b1b"/>
    </radialGradient>
    <radialGradient cx="0" cy="0" fx="28.8" fy="0" gradientTransform="matrix(-0.001, -0.0077, 0.0054, -6.0E-4, -7.0, -26.0)" gradientUnits="userSpaceOnUse" id="gradient23" r="819.2" spreadMethod="pad">
      <stop offset="0.17647058823529413" stop-color="#e62020"/>
      <stop offset="0.9529411764705882" stop-color="#9c1b1b"/>
    </radialGradient>
    <radialGradient cx="0" cy="0" gradientTransform="matrix(0.0049, 0.0, 0.0, 0.0066, 0.0, -30.0)" gradientUnits="userSpaceOnUse" id="gradient24" r="819.2" spreadMethod="pad">
      <stop offset="0.0" stop-color="#df9faf"/>
      <stop offset="0.14901960784313725" stop-color="#d9889d"/>
      <stop offset="0.5882352941176471" stop-color="#cb5674"/>
      <stop offset="1.0" stop-color="#a53653"/>
    </radialGradient>
    <linearGradient gradientTransform="matrix(0.0112, 0.0281, 0.0237, -0.0095, -10.3, -50.95)" gradientUnits="userSpaceOnUse" id="gradient25" spreadMethod="pad" x1="-819.2" x2="819.2">
      <stop offset="0.1568627450980392" stop-color="#be1616"/>
      <stop offset="0.7294117647058823" stop-color="#b11c1c"/>
      <stop offset="0.8784313725490196" stop-color="#971a1a"/>
      <stop offset="0.9215686274509803" stop-color="#c02121"/>
    </linearGradient>
    <linearGradient gradientTransform="matrix(-0.0112, 0.0281, -0.0237, -0.0095, 10.3, -50.95)" gradientUnits="userSpaceOnUse" id="gradient26" spreadMethod="pad" x1="-819.2" x2="819.2">
      <stop offset="0.1568627450980392" stop-color="#be1616"/>
      <stop offset="0.7294117647058823" stop-color="#b11c1c"/>
      <stop offset="0.8784313725490196" stop-color="#971a1a"/>
      <stop offset="0.9215686274509803" stop-color="#c02121"/>
    </linearGradient>
    <linearGradient gradientTransform="matrix(-0.0113, 0.0281, -0.0238, -0.0095, 10.3, -50.95)" gradientUnits="userSpaceOnUse" id="gradient27" spreadMethod="pad" x1="-819.2" x2="819.2">
      <stop offset="0.0" stop-color="#e72e2e"/>
      <stop offset="1.0" stop-color="#cd2323"/>
    </linearGradient>
    <linearGradient gradientTransform="matrix(0.0113, 0.0281, 0.0238, -0.0095, -10.3, -50.95)" gradientUnits="userSpaceOnUse" id="gradient28" spreadMethod="pad" x1="-819.2" x2="819.2">
      <stop offset="0.0" stop-color="#e72e2e"/>
      <stop offset="1.0" stop-color="#cd2323"/>
    </linearGradient>
    <radialGradient cx="0" cy="0" fx="-1427.2" fy="0" gradientTransform="matrix(0.0042, -1.0E-4, 1.0E-4, 0.0042, -3.1, -33.0)" gradientUnits="userSpaceOnUse" id="gradient29" r="819.2" spreadMethod="pad">
      <stop offset="0.07450980392156863" stop-color="#fd8282" stop-opacity="0.6"/>
      <stop offset="0.8431372549019608" stop-color="#ba1e1e" stop-opacity="0.0"/>
    </radialGradient>
    <radialGradient cx="0" cy="0" fx="-1427.2" fy="0" gradientTransform="matrix(-0.0042, -1.0E-4, -1.0E-4, 0.0042, 4.7, -56.65)" gradientUnits="userSpaceOnUse" id="gradient30" r="819.2" spreadMethod="pad">
      <stop offset="0.07450980392156863" stop-color="#fe5c5c" stop-opacity="0.6"/>
      <stop offset="0.8431372549019608" stop-color="#ba1e1e" stop-opacity="0.0"/>
    </radialGradient>
    <radialGradient cx="0" cy="0" gradientTransform="matrix(0.0062, 0.0035, -0.0016, 0.0028, 15.9, -68.3)" gradientUnits="userSpaceOnUse" id="gradient31" r="819.2" spreadMethod="pad">
      <stop offset="0.1568627450980392" stop-color="#fe5c5c" stop-opacity="0.72156864"/>
      <stop offset="0.7607843137254902" stop-color="#ba1e1e" stop-opacity="0.0"/>
    </radialGradient>
    <radialGradient cx="0" cy="0" gradientTransform="matrix(0.0062, 0.0035, -0.0016, 0.0028, -5.1, -68.3)" gradientUnits="userSpaceOnUse" id="gradient32" r="819.2" spreadMethod="pad">
      <stop offset="0.1568627450980392" stop-color="#fe5c5c" stop-opacity="0.72156864"/>
      <stop offset="0.7607843137254902" stop-color="#ba1e1e" stop-opacity="0.0"/>
    </radialGradient>
    <radialGradient cx="0" cy="0" fx="-1427.2" fy="0" gradientTransform="matrix(0.0042, -1.0E-4, 1.0E-4, 0.0042, -4.8, -56.65)" gradientUnits="userSpaceOnUse" id="gradient33" r="819.2" spreadMethod="pad">
      <stop offset="0.07450980392156863" stop-color="#fe5c5c" stop-opacity="0.6"/>
      <stop offset="0.8431372549019608" stop-color="#ba1e1e" stop-opacity="0.0"/>
    </radialGradient>
    <radialGradient cx="0" cy="0" fx="-1427.2" fy="0" gradientTransform="matrix(-0.0042, -1.0E-4, -1.0E-4, 0.0042, 3.1, -33.05)" gradientUnits="userSpaceOnUse" id="gradient34" r="819.2" spreadMethod="pad">
      <stop offset="0.07450980392156863" stop-color="#fd8282" stop-opacity="0.6"/>
      <stop offset="0.8431372549019608" stop-color="#ba1e1e" stop-opacity="0.0"/>
    </radialGradient>
    <radialGradient cx="0" cy="0" gradientTransform="matrix(-0.0061, -0.0055, -0.0106, 0.0118, 9.5, -41.0)" gradientUnits="userSpaceOnUse" id="gradient35" r="819.2" spreadMethod="pad">
      <stop offset="0.0392156862745098" stop-color="#fbfbfb"/>
      <stop offset="0.5529411764705883" stop-color="#c0c0be"/>
      <stop offset="0.6823529411764706" stop-color="#a4a38c"/>
      <stop offset="0.7607843137254902" stop-color="#989898"/>
    </radialGradient>
    <radialGradient cx="0" cy="0" gradientTransform="matrix(0.0061, -0.0055, 0.0106, 0.0118, -9.5, -41.0)" gradientUnits="userSpaceOnUse" id="gradient36" r="819.2" spreadMethod="pad">
      <stop offset="0.0392156862745098" stop-color="#fbfbfb"/>
      <stop offset="0.5529411764705883" stop-color="#c0c0be"/>
      <stop offset="0.6823529411764706" stop-color="#a4a38c"/>
      <stop offset="0.7607843137254902" stop-color="#989898"/>
    </radialGradient>
    <radialGradient cx="0" cy="0" fx="-1296.0" fy="0" gradientTransform="matrix(0.0055, 0.0011, -6.0E-4, 0.0029, -12.15, -43.6)" gradientUnits="userSpaceOnUse" id="gradient37" r="819.2" spreadMethod="pad">
      <stop offset="0.13333333333333333" stop-color="#ffffff" stop-opacity="0.6"/>
      <stop offset="0.7803921568627451" stop-color="#666666" stop-opacity="0.0"/>
    </radialGradient>
    <radialGradient cx="0" cy="0" fx="-1622.4" fy="0" gradientTransform="matrix(0.0062, 0.0012, -6.0E-4, 0.0032, -10.7, -39.35)" gradientUnits="userSpaceOnUse" id="gradient38" r="819.2" spreadMethod="pad">
      <stop offset="0.1843137254901961" stop-color="#ffffff" stop-opacity="0.6"/>
      <stop offset="0.7803921568627451" stop-color="#808080" stop-opacity="0.0"/>
    </radialGradient>
    <radialGradient cx="0" cy="0" fx="-1622.4" fy="0" gradientTransform="matrix(0.0063, -1.0E-4, 1.0E-4, 0.0033, -8.4, -35.9)" gradientUnits="userSpaceOnUse" id="gradient39" r="819.2" spreadMethod="pad">
      <stop offset="0.1843137254901961" stop-color="#ffffff" stop-opacity="0.6"/>
      <stop offset="0.8666666666666667" stop-color="#787878" stop-opacity="0.0"/>
    </radialGradient>
    <radialGradient cx="0" cy="0" fx="-1622.4" fy="0" gradientTransform="matrix(-0.0063, -1.0E-4, -1.0E-4, 0.0033, 8.4, -35.9)" gradientUnits="userSpaceOnUse" id="gradient40" r="819.2" spreadMethod="pad">
      <stop offset="0.1843137254901961" stop-color="#ffffff" stop-opacity="0.6"/>
      <stop offset="0.8666666666666667" stop-color="#787878" stop-opacity="0.0"/>
    </radialGradient>
    <radialGradient cx="0" cy="0" fx="-1622.4" fy="0" gradientTransform="matrix(-0.0062, 0.0012, 6.0E-4, 0.0032, 10.7, -39.35)" gradientUnits="userSpaceOnUse" id="gradient41" r="819.2" spreadMethod="pad">
      <stop offset="0.1843137254901961" stop-color="#ffffff" stop-opacity="0.6"/>
      <stop offset="0.7803921568627451" stop-color="#808080" stop-opacity="0.0"/>
    </radialGradient>
    <radialGradient cx="0" cy="0" fx="-1296.0" fy="0" gradientTransform="matrix(-0.0055, 0.0011, 6.0E-4, 0.0029, 12.15, -43.6)" gradientUnits="userSpaceOnUse" id="gradient42" r="819.2" spreadMethod="pad">
      <stop offset="0.13333333333333333" stop-color="#ffffff" stop-opacity="0.6"/>
      <stop offset="0.7803921568627451" stop-color="#666666" stop-opacity="0.0"/>
    </radialGradient>
  </defs>
</svg>
