<?xml version="1.0" encoding="UTF-8" standalone="no"?>
<svg xmlns:xlink="http://www.w3.org/1999/xlink" height="112.0px" width="112.0px" xmlns="http://www.w3.org/2000/svg">
  <g transform="matrix(1.0, 0.0, 0.0, 1.0, 48.0, 64.0)">
    <path d="M56.0 -15.0 Q56.0 -34.9 41.95 -48.95 27.9 -63.0 8.0 -63.0 -11.9 -63.0 -25.95 -48.95 -40.0 -34.9 -40.0 -15.0 -40.0 4.9 -25.95 18.95 -11.9 33.0 8.0 33.0 27.9 33.0 41.95 18.95 56.0 4.9 56.0 -15.0 M64.0 -8.0 Q64.0 15.2 47.6 31.6 31.2 48.0 8.0 48.0 -15.2 48.0 -31.6 31.6 -48.0 15.2 -48.0 -8.0 -48.0 -31.2 -31.6 -47.6 -15.2 -64.0 8.0 -64.0 31.2 -64.0 47.6 -47.6 64.0 -31.2 64.0 -8.0" fill="url(#gradient0)" fill-rule="evenodd" stroke="none"/>
  </g>
  <defs>
    <radialGradient cx="0" cy="0" fx="-1411.2" fy="0" gradientTransform="matrix(0.0, 0.07, -0.0713, 0.0, 8.0, -8.0)" gradientUnits="userSpaceOnUse" id="gradient0" r="819.2" spreadMethod="pad">
      <stop offset="0.8784313725490196" stop-color="#d0fbfb" stop-opacity="0.0"/>
      <stop offset="1.0" stop-color="#ffffff"/>
    </radialGradient>
  </defs>
</svg>
