<?xml version="1.0" encoding="UTF-8" standalone="no"?>
<svg xmlns:xlink="http://www.w3.org/1999/xlink" height="96.0px" width="760.0px" xmlns="http://www.w3.org/2000/svg">
  <g transform="matrix(1.0, 0.0, 0.0, 1.0, 0.0, -32.0)">
    <path d="M760.0 128.0 L0.0 128.0 0.0 32.0 760.0 32.0 760.0 128.0" fill="#e0e0e0" fill-opacity="0.5019608" fill-rule="evenodd" stroke="none"/>
    <path d="M311.0 118.0 Q311.0 120.0 309.0 120.0 L251.0 120.0 Q249.0 120.0 249.0 118.0 L249.0 106.0 Q249.0 104.0 251.0 104.0 L309.0 104.0 Q311.0 104.0 311.0 106.0 L311.0 118.0 M183.0 118.0 Q183.0 120.0 181.0 120.0 L10.0 120.0 Q8.0 120.0 8.0 118.0 L8.0 106.0 Q8.0 104.0 10.0 104.0 L181.0 104.0 Q183.0 104.0 183.0 106.0 L183.0 118.0 M185.0 106.0 Q185.0 104.0 187.0 104.0 L245.0 104.0 Q247.0 104.0 247.0 106.0 L247.0 118.0 Q247.0 120.0 245.0 120.0 L187.0 120.0 Q185.0 120.0 185.0 118.0 L185.0 106.0 M183.0 86.0 Q183.0 88.0 181.0 88.0 L10.0 88.0 Q8.0 88.0 8.0 86.0 L8.0 74.0 Q8.0 72.0 10.0 72.0 L181.0 72.0 Q183.0 72.0 183.0 74.0 L183.0 86.0 M181.0 40.0 Q183.0 40.0 183.0 42.0 L183.0 54.0 Q183.0 56.0 181.0 56.0 L10.0 56.0 Q8.0 56.0 8.0 54.0 L8.0 42.0 Q8.0 40.0 10.0 40.0 L181.0 40.0 M245.0 72.0 Q247.0 72.0 247.0 74.0 L247.0 86.0 Q247.0 88.0 245.0 88.0 L187.0 88.0 Q185.0 88.0 185.0 86.0 L185.0 74.0 Q185.0 72.0 187.0 72.0 L245.0 72.0 M249.0 74.0 Q249.0 72.0 251.0 72.0 L309.0 72.0 Q311.0 72.0 311.0 74.0 L311.0 86.0 Q311.0 88.0 309.0 88.0 L251.0 88.0 Q249.0 88.0 249.0 86.0 L249.0 74.0 M245.0 40.0 Q247.0 40.0 247.0 42.0 L247.0 54.0 Q247.0 56.0 245.0 56.0 L187.0 56.0 Q185.0 56.0 185.0 54.0 L185.0 42.0 Q185.0 40.0 187.0 40.0 L245.0 40.0 M309.0 40.0 Q311.0 40.0 311.0 42.0 L311.0 54.0 Q311.0 56.0 309.0 56.0 L251.0 56.0 Q249.0 56.0 249.0 54.0 L249.0 42.0 Q249.0 40.0 251.0 40.0 L309.0 40.0 M463.0 118.0 Q463.0 120.0 461.0 120.0 L315.0 120.0 Q313.0 120.0 313.0 118.0 L313.0 106.0 Q313.0 104.0 315.0 104.0 L461.0 104.0 Q463.0 104.0 463.0 106.0 L463.0 118.0 M463.0 86.0 Q463.0 88.0 461.0 88.0 L315.0 88.0 Q313.0 88.0 313.0 86.0 L313.0 74.0 Q313.0 72.0 315.0 72.0 L461.0 72.0 Q463.0 72.0 463.0 74.0 L463.0 86.0 M461.0 40.0 Q463.0 40.0 463.0 42.0 L463.0 54.0 Q463.0 56.0 461.0 56.0 L315.0 56.0 Q313.0 56.0 313.0 54.0 L313.0 42.0 Q313.0 40.0 315.0 40.0 L461.0 40.0 M527.0 106.0 L527.0 118.0 Q527.0 120.0 525.0 120.0 L467.0 120.0 Q465.0 120.0 465.0 118.0 L465.0 106.0 Q465.0 104.0 467.0 104.0 L525.0 104.0 Q527.0 104.0 527.0 106.0 M527.0 42.0 L527.0 54.0 Q527.0 56.0 525.0 56.0 L467.0 56.0 Q465.0 56.0 465.0 54.0 L465.0 42.0 Q465.0 40.0 467.0 40.0 L525.0 40.0 Q527.0 40.0 527.0 42.0 M527.0 74.0 L527.0 86.0 Q527.0 88.0 525.0 88.0 L467.0 88.0 Q465.0 88.0 465.0 86.0 L465.0 74.0 Q465.0 72.0 467.0 72.0 L525.0 72.0 Q527.0 72.0 527.0 74.0 M655.0 118.0 Q655.0 120.0 653.0 120.0 L531.0 120.0 Q529.0 120.0 529.0 118.0 L529.0 106.0 Q529.0 104.0 531.0 104.0 L653.0 104.0 Q655.0 104.0 655.0 106.0 L655.0 118.0 M655.0 86.0 Q655.0 88.0 653.0 88.0 L531.0 88.0 Q529.0 88.0 529.0 86.0 L529.0 74.0 Q529.0 72.0 531.0 72.0 L653.0 72.0 Q655.0 72.0 655.0 74.0 L655.0 86.0 M653.0 40.0 Q655.0 40.0 655.0 42.0 L655.0 54.0 Q655.0 56.0 653.0 56.0 L531.0 56.0 Q529.0 56.0 529.0 54.0 L529.0 42.0 Q529.0 40.0 531.0 40.0 L653.0 40.0" fill="#d2d6d7" fill-opacity="0.2" fill-rule="evenodd" stroke="none"/>
  </g>
</svg>
