<?xml version="1.0" encoding="UTF-8" standalone="no"?>
<svg xmlns:xlink="http://www.w3.org/1999/xlink" height="172.3px" width="116.8px" xmlns="http://www.w3.org/2000/svg">
  <g transform="matrix(1.0, 0.0, 0.0, 1.0, 58.4, 69.6)">
    <path d="M0.0 -13.9 Q4.8 -13.9 8.2 -10.1 11.6 -6.3 11.6 -0.9 11.6 4.45 8.2 8.3 4.8 12.1 0.0 12.1 -4.8 12.1 -8.2 8.3 -11.6 4.45 -11.6 -0.9 -11.6 -6.3 -8.2 -10.1 -4.8 -13.9 0.0 -13.9 M21.45 -32.3 L21.7 -30.45 27.75 -19.75 54.15 -27.4 Q64.7 -30.3 49.15 -20.0 41.35 -14.85 31.45 -9.1 33.15 -1.3 30.8 7.75 26.1 25.9 5.75 32.3 L4.05 63.75 Q2.1 96.25 0.9 101.55 L0.3 102.5 0.0 102.7 -0.3 102.5 -0.9 101.55 Q-2.1 96.25 -4.05 63.75 L-5.75 32.3 Q-26.1 25.9 -30.8 7.75 -33.15 -1.3 -31.45 -9.1 -41.35 -14.85 -49.15 -20.0 -64.7 -30.3 -54.15 -27.4 L-27.75 -19.75 -21.7 -30.45 -21.45 -32.3 Q-20.8 -33.8 -18.75 -32.0 L-12.3 -25.5 -11.25 -24.2 Q-10.9 -23.5 -11.55 -23.05 -15.15 -20.75 -18.05 -15.85 -23.85 -6.05 -20.35 7.05 L-19.6 8.95 Q-18.6 11.25 -16.95 13.35 -11.75 20.15 -2.7 22.45 L-1.25 22.7 0.0 22.8 1.25 22.7 2.7 22.45 Q11.75 20.15 16.95 13.35 18.6 11.25 19.6 8.95 L20.35 7.05 Q23.85 -6.05 18.05 -15.85 15.15 -20.75 11.55 -23.05 10.9 -23.5 11.25 -24.2 L12.3 -25.5 18.75 -32.0 Q20.8 -33.8 21.45 -32.3 M0.0 -69.6 L0.25 -69.35 Q1.6 -65.95 4.1 -50.45 L6.3 -35.65 Q6.8 -33.4 3.65 -30.5 0.95 -28.0 0.0 -28.0 -0.95 -28.0 -3.65 -30.5 -6.8 -33.4 -6.3 -35.65 L-4.1 -50.45 Q-1.6 -65.95 -0.25 -69.35 L0.0 -69.6" fill="#ffcc33" fill-rule="evenodd" stroke="none"/>
  </g>
</svg>
