<?xml version="1.0" encoding="UTF-8" standalone="no"?>
<svg xmlns:xlink="http://www.w3.org/1999/xlink" height="64.0px" width="16.0px" xmlns="http://www.w3.org/2000/svg">
  <g transform="matrix(1.0, 0.0, 0.0, 1.0, -376.0, -72.0)">
    <path d="M378.0 127.5 Q378.0 124.5 381.0 124.5 L387.0 124.5 Q390.0 124.5 390.0 127.5 L390.0 133.0 Q390.0 136.0 387.0 136.0 L381.0 136.0 Q378.0 136.0 378.0 133.0 L378.0 127.5 M376.0 75.0 Q376.0 72.0 379.0 72.0 L389.0 72.0 Q392.0 72.0 392.0 75.0 L390.0 117.0 Q390.0 120.0 387.0 120.0 L381.0 120.0 Q378.0 120.0 378.0 117.0 L376.0 75.0" fill="#000000" fill-rule="evenodd" stroke="none"/>
  </g>
</svg>
