<?xml version="1.0" encoding="UTF-8" standalone="no"?>
<svg xmlns:xlink="http://www.w3.org/1999/xlink" height="305.5px" width="23.1px" xmlns="http://www.w3.org/2000/svg">
  <g transform="matrix(1.0, 0.0, 0.0, 1.0, 12.35, 152.5)">
    <path d="M3.2 -107.4 Q4.5 -62.8 4.5 0.25 4.5 63.3 3.2 107.9 1.85 152.5 0.0 152.5 -1.85 152.5 -3.2 107.9 -4.5 63.3 -4.5 0.25 -4.5 -62.8 -3.2 -107.4 -1.85 -152.0 0.0 -152.0 1.85 -152.0 3.2 -107.4" fill="#ffffff" fill-rule="evenodd" stroke="none"/>
    <path d="M3.2 -107.4 Q4.5 -62.8 4.5 0.25 4.5 63.3 3.2 107.9 1.85 152.5 0.0 152.5 -1.85 152.5 -3.2 107.9 -4.5 63.3 -4.5 0.25 -4.5 -62.8 -3.2 -107.4 -1.85 -152.0 0.0 -152.0 1.85 -152.0 3.2 -107.4 Z" fill="none" stroke="#febfa3" stroke-linecap="round" stroke-linejoin="round" stroke-width="1.0"/>
    <path d="M7.45 -25.6 L8.0 -23.0 Q5.95 -22.35 3.8 -22.35 L4.05 -24.25 4.5 -25.65 7.45 -25.6 M5.3 7.95 Q6.55 6.65 9.45 4.55 L10.65 9.55 10.75 9.75 6.75 11.5 6.05 10.05 5.3 7.95 M-11.75 -4.4 L-11.85 -4.75 Q-12.3 -6.6 -12.35 -9.1 L-8.1 -11.0 -7.65 -10.45 -6.2 -8.6 -6.5 -6.9 -6.95 -4.25 -9.3 -4.25 -11.75 -4.4 M-4.95 -18.85 L-7.55 -18.25 -8.9 -19.85 -9.95 -21.15 -8.0 -21.9 -5.2 -22.75 -3.7 -21.85 Q-1.95 -20.7 -1.45 -19.65 L-4.95 -18.85 M-7.8 18.0 Q-7.1 18.7 -6.35 20.05 L-4.5 22.7 -9.5 22.9 -11.0 18.35 -7.8 18.0" fill="#ffffff" fill-rule="evenodd" stroke="none"/>
  </g>
</svg>
