<?xml version="1.0" encoding="UTF-8" standalone="no"?>
<svg xmlns:xlink="http://www.w3.org/1999/xlink" height="85.05px" width="115.0px" xmlns="http://www.w3.org/2000/svg">
  <g transform="matrix(1.0, 0.0, 0.0, 1.0, 57.5, 42.55)">
    <path d="M20.7 -33.35 L20.75 -33.35 Q21.9 -34.5 23.55 -34.5 L23.6 -34.5 Q28.0 -34.45 33.75 -36.8 37.8 -38.55 41.3 -40.85 L41.3 -40.8 Q44.85 -43.2 49.1 -42.35 L49.5 -42.3 Q55.8 -41.15 56.0 -34.1 L56.0 -34.05 56.0 -8.95 55.95 -8.4 55.9 -8.0 57.0 -6.5 Q57.5 -5.85 57.5 -5.0 L57.5 1.0 Q57.5 2.05 56.8 2.8 56.05 3.5 55.0 3.5 L46.0 3.5 Q44.95 3.5 44.25 2.8 43.5 2.05 43.5 1.0 L43.5 -3.5 31.5 -3.5 31.5 -3.0 Q31.5 -2.05 30.9 -1.35 30.25 -0.65 29.35 -0.5 21.6 0.6 22.7 9.15 23.0 11.65 24.8 18.85 L25.4 21.4 Q26.5 26.25 26.5 28.95 L26.5 30.0 Q26.5 31.05 25.8 31.8 25.05 32.5 24.0 32.5 L18.5 32.5 18.5 36.0 18.8 36.25 Q19.5 36.95 19.5 38.0 L19.5 40.0 Q19.5 41.05 18.8 41.8 18.05 42.5 17.0 42.5 L3.0 42.5 Q1.95 42.5 1.25 41.8 0.5 41.05 0.5 40.0 L0.5 38.0 Q0.5 36.95 1.25 36.25 L1.5 36.0 1.5 32.05 1.25 31.8 Q0.5 31.05 0.5 30.0 L0.5 11.5 -12.0 11.5 -12.15 11.5 Q-13.65 11.55 -15.35 9.95 -17.0 8.35 -17.05 7.05 L-17.05 6.95 Q-17.25 5.85 -16.65 4.75 L-16.65 4.65 -16.2 3.9 -16.25 3.9 Q-15.05 1.55 -15.15 -0.2 L-15.2 -0.25 Q-15.35 -1.4 -16.15 -2.5 L-39.0 -2.5 Q-40.05 -2.5 -40.75 -3.2 -41.5 -3.95 -41.5 -5.0 L-41.5 -12.5 -44.0 -12.5 Q-45.05 -12.5 -45.75 -13.2 L-46.05 -13.5 -55.0 -13.5 Q-56.05 -13.5 -56.75 -14.2 -57.5 -14.95 -57.5 -16.0 L-57.5 -23.0 Q-57.5 -24.05 -56.75 -24.75 -56.05 -25.5 -55.0 -25.5 L-46.05 -25.5 -45.75 -25.75 Q-45.05 -26.5 -44.0 -26.5 L-41.5 -26.5 -41.5 -33.0 Q-41.5 -34.05 -40.75 -34.75 -40.05 -35.5 -39.0 -35.5 L-36.0 -35.5 Q-35.15 -35.5 -34.45 -34.95 L-30.1 -31.5 -25.45 -31.5 Q-25.3 -32.2 -24.75 -32.75 L-23.95 -33.3 -24.2 -33.85 Q-24.65 -34.65 -24.45 -35.5 -24.25 -36.4 -23.55 -36.95 -22.9 -37.5 -22.0 -37.5 L-16.0 -37.5 Q-15.1 -37.5 -14.4 -36.95 -13.75 -36.4 -13.55 -35.5 -13.35 -34.65 -13.75 -33.85 L-14.05 -33.3 -13.2 -32.75 Q-12.7 -32.2 -12.55 -31.5 L19.65 -31.5 Q19.85 -32.55 20.7 -33.35 M-4.3 -2.5 L-7.75 -2.5 Q-8.1 2.25 -5.6 4.3 L-5.35 3.15 Q-4.35 0.35 -4.3 -1.75 L-4.3 -2.5" fill="#000000" fill-rule="evenodd" stroke="none"/>
    <path d="M30.0 -8.0 Q30.0 -8.4 30.3 -8.7 L31.05 -9.0 43.95 -9.0 44.7 -8.7 45.0 -7.95 45.0 -7.05 44.7 -6.3 Q44.4 -6.0 43.95 -6.0 L31.0 -6.0 Q29.0 -6.0 29.0 -4.0 L29.0 -3.0 Q18.8 -1.65 20.2 9.5 20.55 12.05 22.35 19.45 23.95 25.8 24.0 29.0 L24.0 30.0 17.0 30.0 17.0 -8.0 30.0 -8.0" fill="url(#gradient0)" fill-rule="evenodd" stroke="none"/>
    <path d="M22.35 19.45 L22.95 21.95 Q20.5 19.95 18.8 15.95 17.05 11.7 17.15 7.65 17.55 -2.85 29.0 -3.0 18.8 -1.65 20.2 9.5 20.55 12.05 22.35 19.45" fill="url(#gradient1)" fill-rule="evenodd" stroke="none"/>
    <path d="M16.0 38.0 L4.0 38.0 4.0 30.0 16.0 30.0 16.0 38.0" fill="url(#gradient2)" fill-rule="evenodd" stroke="none"/>
    <path d="M8.0 30.0 L12.0 30.0 12.0 31.0 8.0 31.0 8.0 30.0" fill="url(#gradient3)" fill-rule="evenodd" stroke="none"/>
    <path d="M17.0 30.0 L17.0 31.0 3.0 31.0 3.0 30.0 17.0 30.0" fill="#000000" fill-opacity="0.2" fill-rule="evenodd" stroke="none"/>
    <path d="M17.0 38.0 L17.0 40.0 3.0 40.0 3.0 38.0 17.0 38.0" fill="url(#gradient4)" fill-rule="evenodd" stroke="none"/>
    <path d="M17.0 -8.0 L17.0 30.0 3.0 30.0 3.0 -8.0 17.0 -8.0" fill="url(#gradient5)" fill-rule="evenodd" stroke="none"/>
    <path d="M-15.0 -5.0 L-10.0 -5.0 Q-11.6 4.25 -6.0 7.0 L3.0 7.0 3.0 9.0 -12.0 9.0 Q-12.75 8.95 -13.65 8.1 -14.5 7.3 -14.6 6.65 L-14.45 5.85 -14.0 5.0 Q-12.45 1.85 -12.7 -0.5 -12.9 -2.8 -15.0 -5.0" fill="url(#gradient6)" fill-rule="evenodd" stroke="none"/>
    <path d="M0.2 -6.0 Q0.9 -5.95 1.4 -5.45 2.0 -4.85 2.0 -4.0 2.0 -3.15 1.4 -2.6 L0.75 -2.1 Q0.25 2.2 -1.1 3.7 -1.9 4.55 -2.55 4.6 -3.2 4.6 -3.0 4.0 -1.8 0.7 -1.8 -1.75 L-2.0 -5.0 0.25 -5.0 0.2 -6.0" fill="url(#gradient7)" fill-rule="evenodd" stroke="none"/>
    <path d="M3.0 -7.0 L3.0 -4.0 -16.0 -4.0 -16.0 -7.0 -9.0 -7.0 -9.0 -6.0 2.0 -6.0 2.0 -9.0 3.0 -9.0 3.0 -10.0 46.0 -10.0 46.0 -7.0 3.0 -7.0" fill="#000000" fill-opacity="0.2" fill-rule="evenodd" stroke="none"/>
    <path d="M3.0 -5.0 L-39.0 -5.0 -39.0 -27.0 46.0 -27.0 46.0 -13.0 46.0 -8.0 5.0 -8.0 3.0 -5.0" fill="url(#gradient8)" fill-rule="evenodd" stroke="none"/>
    <path d="M-39.0 -13.0 L46.0 -13.0" fill="none" stroke="#2b2b2b" stroke-linecap="round" stroke-linejoin="round" stroke-width="0.5"/>
    <path d="M5.75 -9.0 L46.0 -9.0 46.0 -8.0 5.0 -8.0 5.75 -9.0" fill="#1c1c1c" fill-opacity="0.4" fill-rule="evenodd" stroke="none"/>
    <path d="M-39.0 -11.0 L-39.0 -13.0 -11.0 -13.0 Q-10.6 -13.0 -10.3 -12.7 -10.0 -12.4 -10.0 -12.0 -10.0 -11.6 -10.3 -11.3 -10.6 -11.0 -11.0 -11.0 L-39.0 -11.0" fill="url(#gradient9)" fill-rule="evenodd" stroke="none"/>
    <path d="M31.0 -18.0 L34.0 -18.0 34.0 -15.0 31.0 -15.0 31.0 -18.0" fill="url(#gradient10)" fill-rule="evenodd" stroke="none"/>
    <path d="M36.0 -18.0 L39.0 -18.0 39.0 -15.0 36.0 -15.0 36.0 -18.0" fill="url(#gradient11)" fill-rule="evenodd" stroke="none"/>
    <path d="M44.0 -18.0 L44.0 -15.0 41.0 -15.0 41.0 -18.0 44.0 -18.0" fill="url(#gradient12)" fill-rule="evenodd" stroke="none"/>
    <path d="M34.0 -25.0 L34.0 -22.0 31.0 -22.0 31.0 -25.0 34.0 -25.0" fill="url(#gradient13)" fill-rule="evenodd" stroke="none"/>
    <path d="M39.0 -25.0 L39.0 -22.0 36.0 -22.0 36.0 -25.0 39.0 -25.0" fill="url(#gradient14)" fill-rule="evenodd" stroke="none"/>
    <path d="M44.0 -25.0 L44.0 -22.0 41.0 -22.0 41.0 -25.0 44.0 -25.0" fill="url(#gradient15)" fill-rule="evenodd" stroke="none"/>
    <path d="M1.7 -20.7 L2.0 -20.0 1.7 -19.3 Q1.4 -19.0 1.0 -19.0 L-33.0 -19.0 Q-33.4 -19.0 -33.7 -19.3 L-34.0 -20.0 -33.7 -20.7 -33.0 -21.0 1.0 -21.0 1.7 -20.7" fill="url(#gradient16)" fill-rule="evenodd" stroke="none"/>
    <path d="M46.0 -27.0 L-39.0 -27.0 -39.0 -29.0 5.0 -29.0 46.0 -29.0 46.0 -27.0" fill="url(#gradient17)" fill-rule="evenodd" stroke="none"/>
    <path d="M22.45 -29.45 Q22.0 -29.9 22.0 -30.5 22.0 -31.15 22.45 -31.55 22.9 -32.0 23.55 -32.0 28.4 -31.9 34.7 -34.5 39.0 -36.3 42.7 -38.75 45.55 -40.65 49.0 -39.85 53.35 -39.0 53.5 -34.05 L53.5 -6.0 Q53.5 -5.4 53.05 -4.95 52.6 -4.5 52.0 -4.5 51.4 -4.5 50.95 -4.95 50.5 -5.4 50.5 -6.0 L50.5 -33.95 Q50.45 -36.4 48.35 -36.9 L48.3 -36.95 Q46.15 -37.45 44.35 -36.25 40.4 -33.7 35.85 -31.75 28.9 -28.9 23.5 -29.0 22.85 -29.0 22.45 -29.45" fill="url(#gradient18)" fill-rule="evenodd" stroke="none"/>
    <path d="M23.5 -29.0 Q22.85 -29.0 22.45 -29.45 22.0 -29.9 22.0 -30.5 22.0 -31.15 22.45 -31.55 22.9 -32.0 23.55 -32.0 28.4 -31.9 34.7 -34.5 39.0 -36.3 42.7 -38.75 45.55 -40.65 49.0 -39.85 50.8 -39.45 51.85 -38.35 L52.3 -37.3 Q52.3 -36.7 51.85 -36.25 51.4 -35.8 50.8 -35.8 50.2 -35.8 49.75 -36.25 49.2 -36.75 48.35 -36.9 L48.3 -36.95 Q46.15 -37.45 44.35 -36.25 40.4 -33.7 35.85 -31.75 28.9 -28.9 23.5 -29.0" fill="url(#gradient19)" fill-rule="evenodd" stroke="none"/>
    <path d="M48.45 -37.55 Q48.25 -38.15 48.55 -38.65 48.8 -39.25 49.4 -39.4 L50.55 -39.3 Q53.35 -38.0 53.5 -34.05 L53.5 -6.0 Q53.5 -5.4 53.05 -4.95 52.6 -4.5 52.0 -4.5 51.4 -4.5 50.95 -4.95 50.5 -5.4 50.5 -6.0 L50.5 -33.95 Q50.45 -35.9 49.2 -36.65 48.6 -36.95 48.45 -37.55" fill="url(#gradient20)" fill-rule="evenodd" stroke="none"/>
    <path d="M55.0 -5.0 L55.0 1.0 50.0 1.0 46.0 1.0 46.0 -13.0 49.0 -13.0 55.0 -5.0" fill="url(#gradient21)" fill-rule="evenodd" stroke="none"/>
    <path d="M50.55 -4.45 Q51.15 -5.0 52.0 -5.0 52.85 -5.0 53.4 -4.45 54.0 -3.85 54.0 -3.0 54.0 -2.15 53.4 -1.6 52.85 -1.0 52.0 -1.0 51.15 -1.0 50.55 -1.6 50.0 -2.15 50.0 -3.0 50.0 -3.85 50.55 -4.45" fill="url(#gradient22)" fill-rule="evenodd" stroke="none"/>
    <path d="M-41.0 -25.0 L-39.0 -26.0 -39.0 -13.0 -41.0 -14.0 -41.0 -25.0" fill="url(#gradient23)" fill-rule="evenodd" stroke="none"/>
    <path d="M-41.0 -24.0 L-41.0 -15.0 -44.0 -15.0 -44.0 -24.0 -41.0 -24.0" fill="url(#gradient24)" fill-rule="evenodd" stroke="none"/>
    <path d="M-45.0 -16.0 L-55.0 -16.0 -55.0 -23.0 -45.0 -23.0 -44.0 -24.0 -44.0 -15.0 -45.0 -16.0" fill="url(#gradient25)" fill-rule="evenodd" stroke="none"/>
    <path d="M-39.0 -29.0 L-39.0 -33.0 -36.0 -33.0 -31.0 -29.0 -39.0 -29.0" fill="url(#gradient26)" fill-rule="evenodd" stroke="none"/>
    <path d="M-23.0 -31.0 L-15.0 -31.0 -15.0 -29.0 -23.0 -29.0 -23.0 -31.0" fill="url(#gradient27)" fill-rule="evenodd" stroke="none"/>
    <path d="M-16.0 -31.0 L-19.0 -31.0 -22.0 -31.0 Q-20.45 -31.15 -21.0 -33.0 L-19.0 -33.0 -17.0 -33.0 Q-17.55 -31.15 -16.0 -31.0" fill="url(#gradient28)" fill-rule="evenodd" stroke="none"/>
    <path d="M-22.0 -35.0 L-16.0 -35.0 -17.0 -33.0 -21.0 -33.0 -22.0 -35.0" fill="url(#gradient29)" fill-rule="evenodd" stroke="none"/>
    <path d="M46.0 -35.0 L46.0 -29.0 41.0 -29.0 41.0 -30.0 44.0 -31.0 44.0 -35.0 46.0 -35.0" fill="url(#gradient30)" fill-rule="evenodd" stroke="none"/>
  </g>
  <defs>
    <linearGradient gradientTransform="matrix(0.0183, 0.0, 0.0, 0.0238, 31.0, 10.5)" gradientUnits="userSpaceOnUse" id="gradient0" spreadMethod="pad" x1="-819.2" x2="819.2">
      <stop offset="0.03529411764705882" stop-color="#151515"/>
      <stop offset="0.047058823529411764" stop-color="#464646"/>
      <stop offset="0.27450980392156865" stop-color="#2b2b2b"/>
      <stop offset="0.4627450980392157" stop-color="#232323"/>
      <stop offset="0.9882352941176471" stop-color="#232323"/>
    </linearGradient>
    <linearGradient gradientTransform="matrix(0.0, -0.0165, 0.0152, 0.0, 23.0, 9.5)" gradientUnits="userSpaceOnUse" id="gradient1" spreadMethod="pad" x1="-819.2" x2="819.2">
      <stop offset="0.0" stop-color="#262626"/>
      <stop offset="0.30980392156862746" stop-color="#383838"/>
      <stop offset="0.5607843137254902" stop-color="#353535"/>
      <stop offset="0.7803921568627451" stop-color="#313131"/>
      <stop offset="1.0" stop-color="#262626"/>
    </linearGradient>
    <linearGradient gradientTransform="matrix(0.0073, 0.0, 0.0, 0.0049, 10.0, 34.0)" gradientUnits="userSpaceOnUse" id="gradient2" spreadMethod="pad" x1="-819.2" x2="819.2">
      <stop offset="0.0392156862745098" stop-color="#383838"/>
      <stop offset="0.11372549019607843" stop-color="#6a6a6a"/>
      <stop offset="0.13725490196078433" stop-color="#636363"/>
      <stop offset="0.8823529411764706" stop-color="#6a6a6a"/>
      <stop offset="0.9686274509803922" stop-color="#383838"/>
    </linearGradient>
    <linearGradient gradientTransform="matrix(0.0024, 0.0, 0.0, 6.0E-4, 10.0, 30.5)" gradientUnits="userSpaceOnUse" id="gradient3" spreadMethod="pad" x1="-819.2" x2="819.2">
      <stop offset="0.0" stop-color="#4a4a4a"/>
      <stop offset="1.0" stop-color="#313131"/>
    </linearGradient>
    <linearGradient gradientTransform="matrix(0.0085, 0.0, 0.0, 0.0012, 10.0, 39.0)" gradientUnits="userSpaceOnUse" id="gradient4" spreadMethod="pad" x1="-819.2" x2="819.2">
      <stop offset="0.0392156862745098" stop-color="#232323"/>
      <stop offset="0.11372549019607843" stop-color="#636363"/>
      <stop offset="0.13333333333333333" stop-color="#555555"/>
      <stop offset="0.8745098039215686" stop-color="#4a4a4a"/>
      <stop offset="0.8941176470588236" stop-color="#515151"/>
      <stop offset="0.9686274509803922" stop-color="#202020"/>
    </linearGradient>
    <linearGradient gradientTransform="matrix(0.0085, 0.0, 0.0, 0.0232, 10.0, 11.0)" gradientUnits="userSpaceOnUse" id="gradient5" spreadMethod="pad" x1="-819.2" x2="819.2">
      <stop offset="0.0392156862745098" stop-color="#262626"/>
      <stop offset="0.11372549019607843" stop-color="#4a4a4a"/>
      <stop offset="0.13725490196078433" stop-color="#4a4a4a"/>
      <stop offset="0.8823529411764706" stop-color="#404040"/>
      <stop offset="0.9098039215686274" stop-color="#404040"/>
      <stop offset="0.9686274509803922" stop-color="#2e2e2e"/>
    </linearGradient>
    <linearGradient gradientTransform="matrix(0.0, -0.0087, 0.0085, 0.0, -6.0, 2.0)" gradientUnits="userSpaceOnUse" id="gradient6" spreadMethod="pad" x1="-819.2" x2="819.2">
      <stop offset="0.03529411764705882" stop-color="#c2c2c2"/>
      <stop offset="0.043137254901960784" stop-color="#adadad"/>
      <stop offset="0.9803921568627451" stop-color="#636363"/>
    </linearGradient>
    <linearGradient gradientTransform="matrix(0.0031, 0.0, 0.0, 0.0067, -0.5, -0.5)" gradientUnits="userSpaceOnUse" id="gradient7" spreadMethod="pad" x1="-819.2" x2="819.2">
      <stop offset="0.01568627450980392" stop-color="#8d8d8d"/>
      <stop offset="0.44313725490196076" stop-color="#808080"/>
      <stop offset="0.9803921568627451" stop-color="#585858"/>
    </linearGradient>
    <linearGradient gradientTransform="matrix(0.0, -0.0134, 0.0134, 0.0, 3.5, -16.0)" gradientUnits="userSpaceOnUse" id="gradient8" spreadMethod="pad" x1="-819.2" x2="819.2">
      <stop offset="0.0196078431372549" stop-color="#2e2e2e"/>
      <stop offset="0.043137254901960784" stop-color="#3c3c3c"/>
      <stop offset="0.06666666666666667" stop-color="#4e4e4e"/>
      <stop offset="1.0" stop-color="#383838"/>
    </linearGradient>
    <linearGradient gradientTransform="matrix(0.0, -0.0013, 0.0012, 0.0, -24.5, -12.0)" gradientUnits="userSpaceOnUse" id="gradient9" spreadMethod="pad" x1="-819.2" x2="819.2">
      <stop offset="0.07058823529411765" stop-color="#993dde"/>
      <stop offset="0.7647058823529411" stop-color="#7524a2"/>
      <stop offset="0.7843137254901961" stop-color="#330d31"/>
    </linearGradient>
    <linearGradient gradientTransform="matrix(0.0, 0.0018, -0.0018, 0.0, 32.5, -16.5)" gradientUnits="userSpaceOnUse" id="gradient10" spreadMethod="pad" x1="-819.2" x2="819.2">
      <stop offset="0.20784313725490197" stop-color="#1c1c1c"/>
      <stop offset="0.23529411764705882" stop-color="#262626"/>
      <stop offset="0.8745098039215686" stop-color="#383838"/>
      <stop offset="0.8941176470588236" stop-color="#717171"/>
    </linearGradient>
    <linearGradient gradientTransform="matrix(0.0, 0.0018, -0.0018, 0.0, 37.5, -16.5)" gradientUnits="userSpaceOnUse" id="gradient11" spreadMethod="pad" x1="-819.2" x2="819.2">
      <stop offset="0.20784313725490197" stop-color="#1c1c1c"/>
      <stop offset="0.23529411764705882" stop-color="#262626"/>
      <stop offset="0.8745098039215686" stop-color="#383838"/>
      <stop offset="0.8941176470588236" stop-color="#717171"/>
    </linearGradient>
    <linearGradient gradientTransform="matrix(0.0, 0.0018, -0.0018, 0.0, 42.5, -16.5)" gradientUnits="userSpaceOnUse" id="gradient12" spreadMethod="pad" x1="-819.2" x2="819.2">
      <stop offset="0.20784313725490197" stop-color="#1c1c1c"/>
      <stop offset="0.23529411764705882" stop-color="#262626"/>
      <stop offset="0.8745098039215686" stop-color="#383838"/>
      <stop offset="0.8941176470588236" stop-color="#717171"/>
    </linearGradient>
    <linearGradient gradientTransform="matrix(0.0, 0.0018, -0.0018, 0.0, 32.5, -23.5)" gradientUnits="userSpaceOnUse" id="gradient13" spreadMethod="pad" x1="-819.2" x2="819.2">
      <stop offset="0.20784313725490197" stop-color="#1c1c1c"/>
      <stop offset="0.23529411764705882" stop-color="#262626"/>
      <stop offset="0.8745098039215686" stop-color="#383838"/>
      <stop offset="0.8941176470588236" stop-color="#717171"/>
    </linearGradient>
    <linearGradient gradientTransform="matrix(0.0, 0.0018, -0.0018, 0.0, 37.5, -23.5)" gradientUnits="userSpaceOnUse" id="gradient14" spreadMethod="pad" x1="-819.2" x2="819.2">
      <stop offset="0.20784313725490197" stop-color="#1c1c1c"/>
      <stop offset="0.23529411764705882" stop-color="#262626"/>
      <stop offset="0.8745098039215686" stop-color="#383838"/>
      <stop offset="0.8941176470588236" stop-color="#717171"/>
    </linearGradient>
    <linearGradient gradientTransform="matrix(0.0, 0.0018, -0.0018, 0.0, 42.5, -23.5)" gradientUnits="userSpaceOnUse" id="gradient15" spreadMethod="pad" x1="-819.2" x2="819.2">
      <stop offset="0.20784313725490197" stop-color="#1c1c1c"/>
      <stop offset="0.23529411764705882" stop-color="#262626"/>
      <stop offset="0.8745098039215686" stop-color="#383838"/>
      <stop offset="0.8941176470588236" stop-color="#717171"/>
    </linearGradient>
    <linearGradient gradientTransform="matrix(0.0, -0.0014, 0.0012, 0.0, -16.0, -20.0)" gradientUnits="userSpaceOnUse" id="gradient16" spreadMethod="pad" x1="-819.2" x2="819.2">
      <stop offset="0.09019607843137255" stop-color="#181818"/>
      <stop offset="0.2980392156862745" stop-color="#838383"/>
      <stop offset="0.5019607843137255" stop-color="#666666"/>
      <stop offset="1.0" stop-color="#ffffff"/>
    </linearGradient>
    <linearGradient gradientTransform="matrix(0.0, -0.0012, 0.0012, 0.0, 4.0, -28.0)" gradientUnits="userSpaceOnUse" id="gradient17" spreadMethod="pad" x1="-819.2" x2="819.2">
      <stop offset="0.17647058823529413" stop-color="#4a4a4a"/>
      <stop offset="0.19607843137254902" stop-color="#393939"/>
      <stop offset="0.8" stop-color="#393939"/>
      <stop offset="0.8196078431372549" stop-color="#757575"/>
    </linearGradient>
    <linearGradient gradientTransform="matrix(0.0166, -0.0195, 0.0165, 0.0141, 48.8, -23.0)" gradientUnits="userSpaceOnUse" id="gradient18" spreadMethod="pad" x1="-819.2" x2="819.2">
      <stop offset="0.34509803921568627" stop-color="#2e2e2e"/>
      <stop offset="1.0" stop-color="#2e2e2e"/>
    </linearGradient>
    <radialGradient cx="0" cy="0" fx="32.0" fy="0" gradientTransform="matrix(-0.0048, -0.0148, 0.0667, -0.0223, 32.5, -35.2)" gradientUnits="userSpaceOnUse" id="gradient19" r="819.2" spreadMethod="pad">
      <stop offset="0.0392156862745098" stop-color="#ffffff" stop-opacity="0.7529412"/>
      <stop offset="0.24705882352941178" stop-color="#ffffff" stop-opacity="0.0"/>
    </radialGradient>
    <radialGradient cx="0" cy="0" gradientTransform="matrix(0.0, -0.0659, 0.002, 0.0, 52.0, -10.0)" gradientUnits="userSpaceOnUse" id="gradient20" r="819.2" spreadMethod="pad">
      <stop offset="0.1803921568627451" stop-color="#6d6d6d" stop-opacity="0.5803922"/>
      <stop offset="0.6352941176470588" stop-color="#464646" stop-opacity="0.0"/>
    </radialGradient>
    <linearGradient gradientTransform="matrix(0.0, 0.0098, -0.0085, 0.0, 50.5, -6.0)" gradientUnits="userSpaceOnUse" id="gradient21" spreadMethod="pad" x1="-819.2" x2="819.2">
      <stop offset="0.0" stop-color="#666666"/>
      <stop offset="0.9058823529411765" stop-color="#868686"/>
      <stop offset="0.984313725490196" stop-color="#d0d0d0"/>
    </linearGradient>
    <radialGradient cx="0" cy="0" gradientTransform="matrix(0.003, 0.0, 0.0, 0.003, 52.0, -3.05)" gradientUnits="userSpaceOnUse" id="gradient22" r="819.2" spreadMethod="pad">
      <stop offset="0.0" stop-color="#606060"/>
      <stop offset="0.6274509803921569" stop-color="#383838"/>
      <stop offset="0.7098039215686275" stop-color="#515151"/>
      <stop offset="0.7803921568627451" stop-color="#000000"/>
    </radialGradient>
    <linearGradient gradientTransform="matrix(0.0, -0.0079, 0.0079, 0.0, -40.0, -19.5)" gradientUnits="userSpaceOnUse" id="gradient23" spreadMethod="pad" x1="-819.2" x2="819.2">
      <stop offset="0.0" stop-color="#2e2e2e"/>
      <stop offset="0.19607843137254902" stop-color="#4a4a4a"/>
      <stop offset="0.4235294117647059" stop-color="#404040"/>
      <stop offset="0.6352941176470588" stop-color="#ececec"/>
      <stop offset="0.7176470588235294" stop-color="#f0f0f0"/>
      <stop offset="1.0" stop-color="#989898"/>
    </linearGradient>
    <linearGradient gradientTransform="matrix(0.0, -0.0056, 0.0055, 0.0, -42.5, -19.5)" gradientUnits="userSpaceOnUse" id="gradient24" spreadMethod="pad" x1="-819.2" x2="819.2">
      <stop offset="0.0" stop-color="#464646"/>
      <stop offset="0.15294117647058825" stop-color="#2e2e2e"/>
      <stop offset="0.3607843137254902" stop-color="#4a4a4a"/>
      <stop offset="0.5098039215686274" stop-color="#6a6a6a"/>
      <stop offset="0.6196078431372549" stop-color="#808080"/>
      <stop offset="0.7294117647058823" stop-color="#797979"/>
      <stop offset="0.9176470588235294" stop-color="#353535"/>
      <stop offset="1.0" stop-color="#404040"/>
    </linearGradient>
    <linearGradient gradientTransform="matrix(0.0, -0.0046, 0.0055, 0.0, -49.5, -19.5)" gradientUnits="userSpaceOnUse" id="gradient25" spreadMethod="pad" x1="-819.2" x2="819.2">
      <stop offset="0.0" stop-color="#464646"/>
      <stop offset="0.19607843137254902" stop-color="#2e2e2e"/>
      <stop offset="0.38823529411764707" stop-color="#464646"/>
      <stop offset="0.5607843137254902" stop-color="#666666"/>
      <stop offset="0.7019607843137254" stop-color="#838383"/>
      <stop offset="1.0" stop-color="#353535"/>
    </linearGradient>
    <linearGradient gradientTransform="matrix(0.0, -0.0023, 0.0024, 0.0, -35.0, -31.0)" gradientUnits="userSpaceOnUse" id="gradient26" spreadMethod="pad" x1="-819.2" x2="819.2">
      <stop offset="0.00784313725490196" stop-color="#464646"/>
      <stop offset="1.0" stop-color="#464646"/>
    </linearGradient>
    <linearGradient gradientTransform="matrix(0.0049, 0.0, 0.0, 0.0012, -19.0, -30.0)" gradientUnits="userSpaceOnUse" id="gradient27" spreadMethod="pad" x1="-819.2" x2="819.2">
      <stop offset="0.0" stop-color="#515151"/>
      <stop offset="0.13725490196078433" stop-color="#4e4e4e"/>
      <stop offset="0.33725490196078434" stop-color="#7b7b7b"/>
      <stop offset="0.48627450980392156" stop-color="#dbdbdb"/>
      <stop offset="0.5333333333333333" stop-color="#dbdbdb"/>
      <stop offset="0.6862745098039216" stop-color="#7b7b7b"/>
      <stop offset="0.8745098039215686" stop-color="#4e4e4e"/>
      <stop offset="1.0" stop-color="#515151"/>
    </linearGradient>
    <radialGradient cx="0" cy="0" gradientTransform="matrix(0.004, 0.0, 0.0, 0.0076, -19.1, -31.05)" gradientUnits="userSpaceOnUse" id="gradient28" r="819.2" spreadMethod="pad">
      <stop offset="0.00392156862745098" stop-color="#a6a6a6"/>
      <stop offset="0.24705882352941178" stop-color="#757575"/>
      <stop offset="0.5058823529411764" stop-color="#434343"/>
      <stop offset="0.7568627450980392" stop-color="#404040"/>
    </radialGradient>
    <radialGradient cx="0" cy="0" gradientTransform="matrix(0.0034, 0.0, 0.0, 0.004, -19.0, -35.0)" gradientUnits="userSpaceOnUse" id="gradient29" r="819.2" spreadMethod="pad">
      <stop offset="0.24705882352941178" stop-color="#eaeaea"/>
      <stop offset="0.38823529411764707" stop-color="#c2c2c2"/>
      <stop offset="0.796078431372549" stop-color="#515151"/>
      <stop offset="0.9137254901960784" stop-color="#4a4a4a"/>
    </radialGradient>
    <linearGradient gradientTransform="matrix(0.0, -0.0037, 0.0037, 0.0, 43.5, -32.0)" gradientUnits="userSpaceOnUse" id="gradient30" spreadMethod="pad" x1="-819.2" x2="819.2">
      <stop offset="0.00784313725490196" stop-color="#404040"/>
      <stop offset="1.0" stop-color="#3c3c3c"/>
    </linearGradient>
  </defs>
</svg>
