<?xml version="1.0" encoding="UTF-8" standalone="no"?>
<svg xmlns:xlink="http://www.w3.org/1999/xlink" height="158.65px" width="46.7px" xmlns="http://www.w3.org/2000/svg">
  <g transform="matrix(1.0, 0.0, 0.0, 1.0, 31.0, 78.15)">
    <path d="M-27.45 -58.55 Q-33.95 -73.65 -28.5 -77.0 -25.65 -79.75 -18.6 -76.0 -13.0 -73.0 -6.9 -66.65 8.25 -50.95 12.45 -30.5 17.45 -6.15 14.75 6.8 14.1 10.1 13.0 12.7 L13.55 13.05 Q14.25 13.55 14.45 14.45 14.65 15.35 14.2 16.2 12.7 19.05 10.45 20.5 L10.5 21.05 Q10.5 21.95 9.85 22.7 9.2 23.4 8.3 23.5 L4.9 23.7 Q4.6 24.3 4.6 24.6 L4.5 26.0 4.5 26.95 Q4.55 28.3 4.9 29.0 4.9 29.3 5.9 30.4 6.4 31.0 6.5 31.8 L6.15 33.25 Q5.05 35.35 4.75 41.25 4.6 44.3 4.8 53.95 L5.25 60.85 5.8 61.25 Q6.5 61.95 6.5 63.0 L6.5 64.0 Q6.5 65.05 5.8 65.8 L5.5 66.05 Q5.5 67.05 4.8 67.8 L5.5 72.65 5.35 73.9 4.65 74.9 Q3.6 75.9 2.3 79.0 1.9 79.9 0.95 80.3 0.0 80.7 -0.95 80.3 -1.9 79.9 -2.3 79.0 -3.6 75.9 -4.6 74.9 L-5.35 73.9 -5.45 72.65 -4.75 67.8 Q-5.5 67.05 -5.5 66.05 L-5.75 65.8 Q-6.5 65.05 -6.5 64.0 L-6.5 63.0 Q-6.5 61.95 -5.75 61.25 L-5.25 60.85 -4.8 53.9 Q-4.5 45.85 -4.75 41.25 -5.05 35.35 -6.15 33.25 L-6.5 31.8 Q-6.4 31.0 -5.9 30.4 L-4.85 29.0 Q-4.55 28.35 -4.5 27.0 L-4.5 26.0 -4.55 24.6 -5.2 22.95 Q-10.25 21.2 -13.0 17.5 -13.55 16.8 -13.5 15.9 -13.45 14.95 -12.85 14.3 L-12.4 13.95 Q-15.85 7.65 -16.1 -6.1 L-16.35 -21.35 Q-16.75 -29.65 -18.4 -36.4 -19.5 -40.65 -22.4 -47.25 L-27.4 -58.5 -27.45 -58.55" fill="#000000" fill-rule="evenodd" stroke="none"/>
    <path d="M-11.0 16.0 Q-7.0 18.5 -3.0 19.0 L-3.0 21.0 Q-8.3 19.6 -11.0 16.0" fill="url(#gradient0)" fill-rule="evenodd" stroke="none"/>
    <path d="M8.3 18.85 Q6.15 19.85 3.0 20.0 L3.0 19.0 7.3 18.05 Q9.75 17.1 12.0 15.0 10.55 17.75 8.3 18.85" fill="url(#gradient1)" fill-rule="evenodd" stroke="none"/>
    <path d="M2.0 21.0 L3.0 19.0 Q5.05 20.6 8.0 21.0 4.8 21.35 2.0 21.0" fill="url(#gradient2)" fill-rule="evenodd" stroke="none"/>
    <path d="M-8.7 -64.95 Q5.95 -49.75 10.0 -30.0 14.85 -6.3 12.3 6.3 9.75 18.85 0.0 20.0 -4.15 20.15 -8.7 14.95 -13.3 9.7 -13.6 -6.15 L-13.85 -21.5 Q-14.25 -30.05 -16.0 -37.0 -17.1 -41.4 -20.1 -48.25 L-25.15 -59.55 Q-30.65 -72.25 -27.0 -75.0 -24.95 -76.55 -19.8 -73.8 -14.5 -70.95 -8.7 -64.95" fill="url(#gradient3)" fill-rule="evenodd" stroke="none"/>
    <path d="M-27.0 -75.0 Q1.65 -51.55 1.0 7.0 L-1.0 7.0 Q1.2 -47.85 -27.0 -75.0" fill="url(#gradient4)" fill-rule="evenodd" stroke="none"/>
    <path d="M7.8 17.8 Q4.6 21.0 0.0 21.0 -4.6 21.0 -7.75 17.8 -11.0 14.6 -11.0 10.0 -11.0 5.4 -7.75 2.25 -4.6 -1.0 0.0 -1.0 4.6 -1.0 7.8 2.25 11.0 5.4 11.0 10.0 11.0 14.6 7.8 17.8" fill="url(#gradient5)" fill-rule="evenodd" stroke="none"/>
    <path d="M3.0 73.0 Q1.6 74.2 0.0 78.0 -1.6 74.2 -3.0 73.0 L-2.0 66.0 0.0 66.0 2.0 66.0 3.0 73.0" fill="url(#gradient6)" fill-rule="evenodd" stroke="none"/>
    <path d="M0.5 74.0 L-0.5 74.0 -0.5 72.0 0.5 72.0 0.5 74.0" fill="#000000" fill-rule="evenodd" stroke="none"/>
    <path d="M3.0 63.0 L4.0 63.0 4.0 64.0 3.0 64.0 -3.0 64.0 -4.0 64.0 -4.0 63.0 -3.0 63.0 3.0 63.0" fill="url(#gradient7)" fill-rule="evenodd" stroke="none"/>
    <path d="M-3.0 63.0 Q-2.5 59.75 -2.3 54.0 L2.3 54.0 Q2.5 59.75 3.0 63.0 L-3.0 63.0 M3.0 64.0 L3.0 66.0 -3.0 66.0 -3.0 64.0 3.0 64.0" fill="url(#gradient8)" fill-rule="evenodd" stroke="none"/>
    <path d="M4.0 17.0 Q2.75 16.75 1.95 16.05 L2.8 16.2 Q4.1 16.2 4.2 14.6 2.95 14.95 2.4 14.15 L1.9 13.0 2.5 13.0 2.85 12.85 3.0 12.5 2.85 12.15 2.5 12.0 1.8 12.0 Q1.85 10.85 2.85 9.45 L3.15 10.0 Q3.55 10.45 4.15 10.5 5.1 10.55 5.55 9.9 5.9 9.4 5.85 8.7 5.8 8.05 5.25 7.55 4.6 6.95 3.65 7.0 2.7 7.0 1.95 7.9 L0.0 5.0 -1.9 7.9 Q-2.7 7.0 -3.65 7.0 -4.6 6.95 -5.25 7.55 -5.8 8.05 -5.85 8.7 -5.9 9.4 -5.55 9.9 -5.1 10.55 -4.15 10.5 -3.55 10.45 -3.15 10.0 L-2.85 9.45 Q-1.85 10.85 -1.8 12.0 L-2.5 12.0 -2.85 12.15 -3.0 12.5 -2.85 12.85 -2.5 13.0 -1.85 13.0 -2.4 14.15 Q-2.95 14.95 -4.2 14.6 -4.1 16.2 -2.8 16.2 L-1.95 16.05 Q-2.75 16.75 -4.0 17.0" fill="none" stroke="#378d07" stroke-linecap="round" stroke-linejoin="round" stroke-opacity="0.4" stroke-width="1.5"/>
    <path d="M5.55 9.9 Q5.1 10.55 4.15 10.5 3.55 10.45 3.15 10.0 L2.85 9.45 Q1.85 10.9 1.8 12.05 1.75 13.2 2.4 14.15 2.95 14.95 4.2 14.6 4.1 16.2 2.8 16.2 0.6 16.2 0.55 12.85 0.55 10.5 0.85 9.85 1.95 7.0 3.65 7.0 4.6 6.95 5.25 7.55 5.8 8.05 5.85 8.7 5.9 9.4 5.55 9.9" fill="url(#gradient9)" fill-rule="evenodd" stroke="none"/>
    <path d="M-3.65 7.0 Q-1.95 7.0 -0.85 9.85 -0.55 10.5 -0.55 12.85 -0.6 16.2 -2.8 16.2 -4.1 16.2 -4.2 14.6 -2.95 14.95 -2.4 14.15 -1.75 13.2 -1.8 12.05 -1.85 10.9 -2.85 9.45 L-3.15 10.0 Q-3.55 10.45 -4.15 10.5 -5.1 10.55 -5.55 9.9 -5.9 9.4 -5.85 8.7 -5.8 8.05 -5.25 7.55 -4.6 6.95 -3.65 7.0" fill="url(#gradient10)" fill-rule="evenodd" stroke="none"/>
    <path d="M4.0 17.0 L4.0 20.0 -4.0 20.0 -4.0 17.0 4.0 17.0" fill="url(#gradient11)" fill-rule="evenodd" stroke="none"/>
    <path d="M4.0 20.0 Q2.5 22.4 2.15 24.0 2.0 24.6 2.0 26.0 L2.0 27.0 2.05 28.0 -2.05 28.0 -2.0 27.0 -2.0 26.0 Q-2.0 24.6 -2.15 24.0 -2.5 22.4 -4.0 20.0 L4.0 20.0" fill="url(#gradient12)" fill-rule="evenodd" stroke="none"/>
    <path d="M-4.0 17.0 Q-1.1 16.45 -0.65 13.3 -0.3 10.45 -2.0 8.0 L0.0 5.0 2.0 8.0 Q0.3 10.45 0.65 13.3 1.1 16.45 4.0 17.0 L-4.0 17.0" fill="url(#gradient13)" fill-rule="evenodd" stroke="none"/>
    <path d="M2.05 28.0 Q2.2 29.4 2.8 30.35 L3.7 31.3 Q4.1 31.7 4.0 32.0 L-4.0 32.0 Q-4.1 31.7 -3.7 31.3 L-2.8 30.35 Q-2.2 29.4 -2.05 28.0 L2.05 28.0" fill="url(#gradient14)" fill-rule="evenodd" stroke="none"/>
    <path d="M2.6 36.0 Q2.35 37.95 2.25 41.65 2.1 47.3 2.3 54.0 L0.0 54.0 -2.3 54.0 Q-2.1 47.3 -2.25 41.65 L-2.55 36.0 2.6 36.0" fill="url(#gradient15)" fill-rule="evenodd" stroke="none"/>
    <path d="M4.0 32.0 L3.0 34.0 Q2.75 34.5 2.6 36.0 L-2.55 36.0 Q-2.75 34.5 -3.0 34.0 L-4.0 32.0 4.0 32.0" fill="url(#gradient16)" fill-rule="evenodd" stroke="none"/>
    <path d="M2.75 9.45 Q3.0 8.6 3.75 8.6 L4.2 8.75 4.5 9.2 M-2.75 9.45 Q-3.0 8.6 -3.75 8.6 L-4.2 8.75 -4.5 9.2" fill="none" stroke="#b6a401" stroke-linecap="round" stroke-linejoin="round" stroke-width="0.25"/>
    <path d="M2.85 12.85 L2.5 13.0 -2.5 13.0 -2.85 12.85 -3.0 12.5 -2.85 12.15 -2.5 12.0 2.5 12.0 2.85 12.15 3.0 12.5 2.85 12.85" fill="url(#gradient17)" fill-rule="evenodd" stroke="none"/>
    <path d="M2.0 28.0 L-2.0 28.0 -2.0 27.0 2.0 27.0 2.0 28.0 M2.0 26.0 L-2.0 26.0 -2.0 25.0 2.0 25.0 2.0 26.0 M2.0 67.0 L-2.0 67.0 -2.0 66.0 2.0 66.0 2.0 67.0 M3.0 65.0 L-3.0 65.0 -3.0 64.0 3.0 64.0 3.0 65.0 M3.0 63.0 L-3.0 63.0 -3.0 62.0 3.0 62.0 3.0 63.0 M3.0 54.0 L-3.0 54.0 -3.0 53.0 3.0 53.0 3.0 54.0" fill="#000000" fill-opacity="0.2" fill-rule="evenodd" stroke="none"/>
  </g>
  <defs>
    <linearGradient gradientTransform="matrix(0.0049, 0.0, 0.0, 0.0031, -7.0, 18.5)" gradientUnits="userSpaceOnUse" id="gradient0" spreadMethod="pad" x1="-819.2" x2="819.2">
      <stop offset="0.08235294117647059" stop-color="#d2e98d"/>
      <stop offset="1.0" stop-color="#b7e05f"/>
    </linearGradient>
    <linearGradient gradientTransform="matrix(0.0055, 0.0, 0.0, 0.0031, 7.5, 17.5)" gradientUnits="userSpaceOnUse" id="gradient1" spreadMethod="pad" x1="-819.2" x2="819.2">
      <stop offset="0.34509803921568627" stop-color="#b7e05f"/>
      <stop offset="1.0" stop-color="#cee783"/>
    </linearGradient>
    <linearGradient gradientTransform="matrix(0.0037, 0.0, 0.0, 0.0013, 5.0, 20.05)" gradientUnits="userSpaceOnUse" id="gradient2" spreadMethod="pad" x1="-819.2" x2="819.2">
      <stop offset="0.34509803921568627" stop-color="#b7e05f"/>
      <stop offset="0.9686274509803922" stop-color="#b7e05f"/>
    </linearGradient>
    <radialGradient cx="0" cy="0" gradientTransform="matrix(0.0538, -0.009, 0.0149, 0.0889, 0.0, 0.0)" gradientUnits="userSpaceOnUse" id="gradient3" r="819.2" spreadMethod="pad">
      <stop offset="0.14901960784313725" stop-color="#b7e05f"/>
      <stop offset="0.788235294117647" stop-color="#ecf8a3"/>
    </radialGradient>
    <linearGradient gradientTransform="matrix(0.0, -0.0511, 0.05, 0.0, -13.0, -34.0)" gradientUnits="userSpaceOnUse" id="gradient4" spreadMethod="pad" x1="-819.2" x2="819.2">
      <stop offset="0.43137254901960786" stop-color="#dbf194"/>
      <stop offset="0.8117647058823529" stop-color="#f8fcde"/>
    </linearGradient>
    <radialGradient cx="0" cy="0" gradientTransform="matrix(0.0195, 0.0, 0.0, 0.015, 0.0, 10.0)" gradientUnits="userSpaceOnUse" id="gradient5" r="819.2" spreadMethod="pad">
      <stop offset="0.36470588235294116" stop-color="#458912" stop-opacity="0.2"/>
      <stop offset="0.792156862745098" stop-color="#afe214" stop-opacity="0.0"/>
    </radialGradient>
    <linearGradient gradientTransform="matrix(0.0037, 0.0, 0.0, 0.0073, 0.0, 72.0)" gradientUnits="userSpaceOnUse" id="gradient6" spreadMethod="pad" x1="-819.2" x2="819.2">
      <stop offset="0.00392156862745098" stop-color="#636363"/>
      <stop offset="0.10588235294117647" stop-color="#717171"/>
      <stop offset="0.23137254901960785" stop-color="#8d8d8d"/>
      <stop offset="0.4588235294117647" stop-color="#dbdbdb"/>
      <stop offset="0.6588235294117647" stop-color="#dbdbdb"/>
      <stop offset="0.8862745098039215" stop-color="#9f9f9f"/>
      <stop offset="1.0" stop-color="#757575"/>
    </linearGradient>
    <linearGradient gradientTransform="matrix(0.0049, 0.0, 0.0, 0.0055, 0.0, 58.0)" gradientUnits="userSpaceOnUse" id="gradient7" spreadMethod="pad" x1="-819.2" x2="819.2">
      <stop offset="0.023529411764705882" stop-color="#655a5a"/>
      <stop offset="0.40784313725490196" stop-color="#c2c2c2"/>
      <stop offset="0.5254901960784314" stop-color="#d0d0d0"/>
      <stop offset="0.6235294117647059" stop-color="#c0bebe"/>
      <stop offset="0.9764705882352941" stop-color="#534848"/>
    </linearGradient>
    <linearGradient gradientTransform="matrix(0.0037, 0.0, 0.0, 0.0055, 0.0, 58.5)" gradientUnits="userSpaceOnUse" id="gradient8" spreadMethod="pad" x1="-819.2" x2="819.2">
      <stop offset="0.050980392156862744" stop-color="#655a5a"/>
      <stop offset="0.47058823529411764" stop-color="#c2c2c2"/>
      <stop offset="0.5568627450980392" stop-color="#c0bebe"/>
      <stop offset="0.9725490196078431" stop-color="#534848"/>
    </linearGradient>
    <linearGradient gradientTransform="matrix(0.0035, -4.0E-4, 7.0E-4, 0.0056, 3.2, 12.05)" gradientUnits="userSpaceOnUse" id="gradient9" spreadMethod="pad" x1="-819.2" x2="819.2">
      <stop offset="0.058823529411764705" stop-color="#c7ab30"/>
      <stop offset="0.3607843137254902" stop-color="#f1de85"/>
      <stop offset="1.0" stop-color="#ccb033"/>
    </linearGradient>
    <linearGradient gradientTransform="matrix(-0.0035, -4.0E-4, -7.0E-4, 0.0056, -3.2, 12.05)" gradientUnits="userSpaceOnUse" id="gradient10" spreadMethod="pad" x1="-819.2" x2="819.2">
      <stop offset="0.058823529411764705" stop-color="#c7ab30"/>
      <stop offset="0.3607843137254902" stop-color="#f1de85"/>
      <stop offset="1.0" stop-color="#ccb033"/>
    </linearGradient>
    <linearGradient gradientTransform="matrix(0.0049, 0.0, 0.0, 0.0055, 0.0, 21.5)" gradientUnits="userSpaceOnUse" id="gradient11" spreadMethod="pad" x1="-819.2" x2="819.2">
      <stop offset="0.06666666666666667" stop-color="#ac9420"/>
      <stop offset="0.3568627450980392" stop-color="#e3cd68"/>
      <stop offset="0.5254901960784314" stop-color="#efdf96"/>
      <stop offset="0.6941176470588235" stop-color="#e3cd68"/>
      <stop offset="0.9411764705882353" stop-color="#ac9420"/>
    </linearGradient>
    <linearGradient gradientTransform="matrix(0.0049, 0.0, 0.0, 0.0055, 0.0, 21.5)" gradientUnits="userSpaceOnUse" id="gradient12" spreadMethod="pad" x1="-819.2" x2="819.2">
      <stop offset="0.1411764705882353" stop-color="#98821f"/>
      <stop offset="0.44313725490196076" stop-color="#e3cd68"/>
      <stop offset="0.5686274509803921" stop-color="#e3cd68"/>
      <stop offset="0.8509803921568627" stop-color="#98821f"/>
    </linearGradient>
    <linearGradient gradientTransform="matrix(0.0049, 0.0, 0.0, 0.0055, 0.0, 21.5)" gradientUnits="userSpaceOnUse" id="gradient13" spreadMethod="pad" x1="-819.2" x2="819.2">
      <stop offset="0.1411764705882353" stop-color="#98821f"/>
      <stop offset="0.4117647058823529" stop-color="#e3cd68"/>
      <stop offset="0.5176470588235295" stop-color="#edd874"/>
      <stop offset="0.596078431372549" stop-color="#e3cd68"/>
      <stop offset="0.8509803921568627" stop-color="#98821f"/>
    </linearGradient>
    <radialGradient cx="0" cy="0" gradientTransform="matrix(0.0059, 0.0, 0.0, 0.0192, 0.0, 32.0)" gradientUnits="userSpaceOnUse" id="gradient14" r="819.2" spreadMethod="pad">
      <stop offset="0.08627450980392157" stop-color="#f9e89b"/>
      <stop offset="0.24705882352941178" stop-color="#e1cf80"/>
      <stop offset="0.5098039215686274" stop-color="#c6b840"/>
      <stop offset="0.8509803921568627" stop-color="#9f9326"/>
    </radialGradient>
    <linearGradient gradientTransform="matrix(0.004, 0.0, 0.0, 0.0055, 0.0, 21.5)" gradientUnits="userSpaceOnUse" id="gradient15" spreadMethod="pad" x1="-819.2" x2="819.2">
      <stop offset="0.1411764705882353" stop-color="#917d26"/>
      <stop offset="0.44313725490196076" stop-color="#dac872"/>
      <stop offset="0.5568627450980392" stop-color="#dac872"/>
      <stop offset="0.8627450980392157" stop-color="#917d26"/>
    </linearGradient>
    <linearGradient gradientTransform="matrix(0.0049, 0.0, 0.0, 0.0055, 0.0, 21.5)" gradientUnits="userSpaceOnUse" id="gradient16" spreadMethod="pad" x1="-819.2" x2="819.2">
      <stop offset="0.1450980392156863" stop-color="#857425"/>
      <stop offset="0.44313725490196076" stop-color="#c5af50"/>
      <stop offset="0.5607843137254902" stop-color="#c5af50"/>
      <stop offset="0.8627450980392157" stop-color="#857425"/>
    </linearGradient>
    <linearGradient gradientTransform="matrix(0.0037, 0.0, 0.0, 6.0E-4, 0.0, 12.5)" gradientUnits="userSpaceOnUse" id="gradient17" spreadMethod="pad" x1="-819.2" x2="819.2">
      <stop offset="0.07450980392156863" stop-color="#d7ba35"/>
      <stop offset="0.4392156862745098" stop-color="#f1e67e"/>
      <stop offset="0.5725490196078431" stop-color="#f1e67e"/>
      <stop offset="0.9411764705882353" stop-color="#d7ba35"/>
    </linearGradient>
  </defs>
</svg>
