<?xml version="1.0" encoding="UTF-8" standalone="no"?>
<svg xmlns:xlink="http://www.w3.org/1999/xlink" height="129.0px" width="34.7px" xmlns="http://www.w3.org/2000/svg">
  <g transform="matrix(1.0, 0.0, 0.0, 1.0, 17.2, 64.5)">
    <path d="M0.8 -47.75 L0.9 -47.6 2.15 -45.8 Q8.55 -36.4 11.95 -27.95 13.85 -23.15 15.15 -17.75 L16.15 -13.0 Q18.55 0.85 16.7 18.2 L16.9 18.35 17.1 18.65 17.5 19.85 17.5 20.2 17.5 25.0 Q17.5 26.05 16.8 26.8 L16.1 27.3 16.0 27.85 16.0 28.0 Q15.5 31.25 15.15 37.05 L15.05 39.15 15.5 39.55 Q16.55 40.6 16.5 42.0 16.55 43.4 15.5 44.5 L14.9 44.95 Q14.9 49.75 15.45 53.3 L16.25 54.9 Q16.55 55.55 16.5 56.35 L16.3 57.0 16.35 57.1 16.5 58.3 16.45 58.6 15.9 59.65 15.7 59.85 15.6 59.9 15.55 59.95 12.8 62.35 12.75 62.35 Q10.95 63.6 8.85 64.35 8.0 64.65 7.15 64.35 5.05 63.6 3.3 62.35 L3.15 62.3 0.5 60.0 0.35 59.9 0.1 59.65 -0.4 58.6 Q-0.6 57.85 -0.35 57.15 L-0.3 57.0 -0.45 56.35 Q-0.55 55.6 -0.2 54.9 L0.65 53.15 Q1.85 49.2 2.6 44.55 L2.55 44.5 Q1.45 43.4 1.5 42.0 1.45 40.6 2.55 39.55 2.9 39.15 3.3 38.95 L3.4 37.5 Q3.9 31.1 3.15 28.15 L3.1 28.1 2.9 27.5 Q1.9 27.45 1.25 26.8 0.5 26.05 0.5 25.0 L0.5 20.0 Q0.5 19.6 0.65 19.25 L1.15 18.35 1.55 18.0 1.65 17.9 1.9 14.3 1.9 14.15 2.25 8.15 Q2.4 1.95 1.7 0.0 -0.1 -4.15 -4.8 -11.45 -10.1 -19.7 -12.2 -24.0 -20.2 -40.7 -15.45 -62.45 L-15.45 -62.5 -15.35 -62.85 Q-15.05 -63.75 -14.2 -64.15 L-13.15 -64.5 -12.5 -64.45 -11.65 -64.1 -11.55 -64.05 -11.0 -63.5 -10.9 -63.35 Q-3.0 -53.1 0.8 -47.75" fill="#000000" fill-rule="evenodd" stroke="none"/>
    <path d="M13.55 27.6 Q13.0 30.9 12.65 36.9 L12.4 43.0 5.35 43.0 5.9 37.7 Q6.45 30.75 5.55 27.5 7.1 26.4 9.4 26.4 11.8 26.4 13.55 27.6" fill="url(#gradient0)" fill-rule="evenodd" stroke="none"/>
    <path d="M12.4 44.0 Q12.35 49.85 13.0 54.0 L3.0 54.0 Q4.4 49.45 5.2 44.0 L12.4 44.0" fill="url(#gradient1)" fill-rule="evenodd" stroke="none"/>
    <path d="M12.4 43.0 L12.4 44.0 5.2 44.0 5.35 43.0 12.4 43.0" fill="url(#gradient2)" fill-rule="evenodd" stroke="none"/>
    <path d="M14.0 25.0 L13.55 27.6 Q11.8 26.4 9.4 26.4 7.1 26.4 5.55 27.5 5.0 25.65 4.0 25.0 L14.0 25.0" fill="url(#gradient3)" fill-rule="evenodd" stroke="none"/>
    <path d="M5.0 43.0 Q4.6 43.0 4.3 42.7 4.0 42.4 4.0 42.0 4.0 41.6 4.3 41.3 4.6 41.0 5.0 41.0 L13.0 41.0 Q13.4 41.0 13.7 41.3 L14.0 42.0 13.7 42.7 Q13.4 43.0 13.0 43.0 L5.0 43.0" fill="url(#gradient4)" fill-rule="evenodd" stroke="none"/>
    <path d="M14.0 58.0 L11.3 60.3 Q9.8 61.35 8.0 62.0 6.2 61.35 4.7 60.3 L2.0 58.0 8.0 58.0 14.0 58.0" fill="url(#gradient5)" fill-rule="evenodd" stroke="none"/>
    <path d="M12.0 54.0 L14.0 58.0 Q7.95 59.75 2.0 58.0 L4.0 54.0 8.0 54.0 12.0 54.0" fill="url(#gradient6)" fill-rule="evenodd" stroke="none"/>
    <path d="M14.0 54.0 L14.0 57.0 Q8.3 55.15 2.0 57.0 L2.0 54.0 14.0 54.0" fill="#000000" fill-opacity="0.2" fill-rule="evenodd" stroke="none"/>
    <path d="M8.5 51.3 L13.0 54.0 14.0 56.0 Q7.8 53.8 2.0 56.0 L3.0 54.0 7.5 51.3 7.5 50.8 8.5 50.8 8.5 51.3" fill="url(#gradient7)" fill-rule="evenodd" stroke="none"/>
    <path d="M15.0 25.0 L3.0 25.0 3.0 20.0 Q8.8 24.3 15.0 20.0 L15.0 25.0" fill="url(#gradient8)" fill-rule="evenodd" stroke="none"/>
    <path d="M15.0 20.0 Q8.8 24.3 3.0 20.0 L15.0 20.0" fill="url(#gradient9)" fill-rule="evenodd" stroke="none"/>
    <path d="M9.6 -27.05 Q11.5 -22.4 12.75 -17.15 L13.65 -12.6 Q16.15 1.8 14.0 20.0 L12.0 20.0 4.0 20.0 4.4 14.4 8.0 12.0 Q9.75 2.75 6.75 -5.25 5.05 -9.6 -0.85 -18.6 -6.5 -27.2 -8.5 -33.15 -11.65 -42.55 -10.0 -54.0 -6.8 -52.1 -3.55 -48.75 L-1.15 -46.15 0.05 -44.4 Q6.3 -35.25 9.6 -27.05" fill="url(#gradient10)" fill-rule="evenodd" stroke="none"/>
    <path d="M-13.0 -62.0 Q-4.95 -51.55 -1.15 -46.15 L-3.55 -48.75 Q-6.8 -52.1 -10.0 -54.0 L-13.0 -62.0" fill="#606060" fill-rule="evenodd" stroke="none"/>
    <path d="M4.4 14.4 L4.75 8.2 Q4.95 1.2 4.0 -1.0 2.15 -5.3 -2.7 -12.8 -7.9 -20.85 -9.95 -25.1 -17.55 -41.1 -13.0 -62.0 L-10.0 -54.0 Q-11.65 -42.55 -8.5 -33.15 -6.5 -27.2 -0.85 -18.6 5.05 -9.6 6.75 -5.25 9.75 2.75 8.0 12.0 L4.4 14.4" fill="url(#gradient11)" fill-rule="evenodd" stroke="none"/>
    <path d="M6.85 -25.9 L8.75 -21.5 Q9.45 -19.85 9.95 -17.3 8.6 -15.7 8.65 -13.4 L8.65 -13.35 Q8.65 -12.55 9.35 -8.95 L8.85 -8.45 6.7 -12.5 1.65 -20.25 Q-3.75 -28.45 -5.65 -34.1 -7.85 -40.7 -7.5 -48.3 L-5.95 -46.8 Q-3.6 -44.35 -2.4 -42.7 3.7 -33.7 6.85 -25.9" fill="url(#gradient12)" fill-rule="evenodd" stroke="none"/>
    <path d="M6.85 -25.9 L7.5 -24.35 Q7.25 -23.05 4.3 -23.75 1.25 -24.5 -0.7 -26.85 -2.3 -28.85 -3.45 -31.5 -5.1 -35.2 -4.6 -37.9 -3.35 -37.55 -3.15 -36.75 L-4.05 -36.7 Q-4.2 -36.35 -3.75 -35.25 -3.55 -34.8 -2.75 -34.5 L-1.6 -34.4 Q-1.3 -34.5 -1.3 -35.45 -1.3 -36.4 -1.65 -37.15 -2.25 -38.35 -3.75 -39.0 L-5.35 -39.25 -5.85 -38.1 -5.9 -36.65 Q-5.5 -33.6 -3.2 -29.2 -1.6 -26.2 -0.2 -24.65 -0.2 -24.45 -0.35 -24.25 -0.55 -23.95 -0.8 -24.15 -4.2 -29.85 -5.65 -34.1 -7.85 -40.7 -7.5 -48.3 L-5.95 -46.8 Q-3.6 -44.35 -2.4 -42.7 3.7 -33.7 6.85 -25.9 M6.15 -21.85 Q3.6 -22.2 1.65 -23.2 0.95 -23.25 0.95 -22.35 0.95 -21.6 1.35 -20.7 L1.65 -20.25 4.75 -15.55 Q5.9 -14.85 7.0 -14.8 8.25 -14.7 8.95 -15.6 L8.95 -15.55 Q9.25 -16.5 9.95 -17.3 9.45 -19.85 8.75 -21.5 L8.65 -21.7 6.15 -21.85 M7.75 -13.55 Q7.05 -12.55 7.35 -11.45 L8.85 -8.45 9.35 -8.95 8.65 -13.25 7.75 -13.55 M6.45 -12.9 L6.6 -13.25 6.75 -13.85 5.75 -14.05 6.45 -12.9" fill="none" stroke="#000000" stroke-linecap="round" stroke-linejoin="round" stroke-opacity="0.3019608" stroke-width="1.0"/>
    <path d="M7.5 -24.35 L6.85 -25.9 Q3.7 -33.7 -2.4 -42.7 -3.6 -44.35 -5.95 -46.8 L-7.5 -48.3 Q-7.85 -40.7 -5.65 -34.1 -4.2 -29.85 -0.8 -24.15 -0.55 -23.95 -0.35 -24.25 -0.2 -24.45 -0.2 -24.65 0.5 -23.9 1.15 -23.5 L1.65 -23.2 Q0.95 -23.25 0.95 -22.35 0.95 -21.6 1.35 -20.7 L1.65 -20.25 4.75 -15.55 5.7 -14.05 5.75 -14.05 6.45 -12.9 6.4 -12.85 7.4 -11.2 7.35 -11.45 8.85 -8.45 9.35 -8.95 8.65 -13.25 8.9 -14.45 8.95 -15.55 Q9.25 -16.5 9.95 -17.3 9.45 -19.85 8.75 -21.5 L8.65 -21.7 7.5 -24.35 M5.85 -12.0 L0.85 -19.7 Q-4.65 -28.0 -6.6 -33.75 -9.15 -41.4 -8.4 -50.45 -7.25 -49.55 -5.25 -47.5 L-1.6 -43.25 Q4.6 -34.15 7.75 -26.3 L9.65 -21.9 Q10.45 -20.0 11.0 -17.0 9.6 -15.55 9.65 -13.4 9.65 -12.6 10.4 -8.65 L8.4 -6.65 Q7.9 -8.6 5.85 -12.0" fill="url(#gradient13)" fill-rule="evenodd" stroke="none"/>
    <path d="M8.95 -15.55 L8.9 -14.45 8.65 -13.25 7.75 -13.55 Q7.05 -12.55 7.35 -11.45 L7.4 -11.2 6.4 -12.85 6.45 -12.9 6.6 -13.25 6.75 -13.85 5.75 -14.05 5.7 -14.05 4.75 -15.55 Q5.9 -14.85 7.0 -14.8 8.25 -14.7 8.95 -15.6 L8.95 -15.55" fill="url(#gradient14)" fill-rule="evenodd" stroke="none"/>
    <path d="M7.5 -24.35 L8.65 -21.7 6.15 -21.85 Q3.6 -22.2 1.65 -23.2 L1.15 -23.5 Q0.5 -23.9 -0.2 -24.65 -1.6 -26.2 -3.2 -29.2 -5.5 -33.6 -5.9 -36.65 L-5.85 -38.1 -5.35 -39.25 -3.75 -39.0 Q-2.25 -38.35 -1.65 -37.15 -1.3 -36.4 -1.3 -35.45 -1.3 -34.5 -1.6 -34.4 L-2.75 -34.5 Q-3.55 -34.8 -3.75 -35.25 -4.2 -36.35 -4.05 -36.7 L-3.15 -36.75 Q-3.35 -37.55 -4.6 -37.9 -5.1 -35.2 -3.45 -31.5 -2.3 -28.85 -0.7 -26.85 1.25 -24.5 4.3 -23.75 7.25 -23.05 7.5 -24.35" fill="url(#gradient15)" fill-rule="evenodd" stroke="none"/>
    <path d="M10.4 -8.65 L8.4 -6.65 Q7.9 -8.6 5.85 -12.0 L0.85 -19.7 Q-4.65 -28.0 -6.6 -33.75 -9.15 -41.4 -8.4 -50.45" fill="none" stroke="url(#gradient16)" stroke-linecap="round" stroke-linejoin="round" stroke-width="0.25"/>
    <path d="M-8.4 -50.45 Q-7.25 -49.55 -5.25 -47.5 L-1.6 -43.25 Q4.6 -34.15 7.75 -26.3 L9.65 -21.9 Q10.45 -20.0 11.0 -17.0 9.6 -15.55 9.65 -13.4 9.65 -12.6 10.4 -8.65" fill="none" stroke="url(#gradient17)" stroke-linecap="round" stroke-linejoin="round" stroke-width="0.25"/>
    <path d="M11.95 19.85 Q13.0 13.3 13.0 3.9 12.95 -3.75 12.4 -8.5 L11.7 -12.85 Q11.4 -15.95 12.9 -16.0" fill="none" stroke="url(#gradient18)" stroke-linecap="round" stroke-linejoin="round" stroke-width="0.25"/>
    <path d="M14.0 43.0 L14.0 44.0 4.0 44.0 4.0 43.0 14.0 43.0 M14.0 25.0 L14.0 26.0 4.0 26.0 4.0 25.0 14.0 25.0" fill="#000000" fill-opacity="0.2" fill-rule="evenodd" stroke="none"/>
  </g>
  <defs>
    <radialGradient cx="0" cy="0" gradientTransform="matrix(0.0074, 3.0E-4, -0.0021, 0.0601, 9.65, 26.4)" gradientUnits="userSpaceOnUse" id="gradient0" r="819.2" spreadMethod="pad">
      <stop offset="0.07450980392156863" stop-color="#86b0b0"/>
      <stop offset="0.2823529411764706" stop-color="#4b6774"/>
      <stop offset="0.4392156862745098" stop-color="#2c3245"/>
      <stop offset="0.7254901960784313" stop-color="#2d3e53"/>
    </radialGradient>
    <radialGradient cx="0" cy="0" gradientTransform="matrix(0.0079, 7.0E-4, -0.0025, 0.031, 8.8, 43.75)" gradientUnits="userSpaceOnUse" id="gradient1" r="819.2" spreadMethod="pad">
      <stop offset="0.07450980392156863" stop-color="#86b0b0"/>
      <stop offset="0.28627450980392155" stop-color="#41667e"/>
      <stop offset="0.4627450980392157" stop-color="#2c3245"/>
      <stop offset="0.7254901960784313" stop-color="#2d3e53"/>
    </radialGradient>
    <linearGradient gradientTransform="matrix(0.0059, 0.0, 0.0, 6.0E-4, 8.8, 43.5)" gradientUnits="userSpaceOnUse" id="gradient2" spreadMethod="pad" x1="-819.2" x2="819.2">
      <stop offset="0.0" stop-color="#94792c"/>
      <stop offset="0.2" stop-color="#7d692d"/>
      <stop offset="0.3058823529411765" stop-color="#b5a24a"/>
      <stop offset="0.43137254901960786" stop-color="#ede4bc"/>
      <stop offset="0.5019607843137255" stop-color="#f3e9b6"/>
      <stop offset="0.5686274509803921" stop-color="#ede4bc"/>
      <stop offset="0.7372549019607844" stop-color="#b5a24a"/>
      <stop offset="0.8117647058823529" stop-color="#7d692d"/>
      <stop offset="1.0" stop-color="#94792c"/>
    </linearGradient>
    <linearGradient gradientTransform="matrix(0.0073, 0.0, 0.0, 0.0016, 9.4, 26.3)" gradientUnits="userSpaceOnUse" id="gradient3" spreadMethod="pad" x1="-819.2" x2="819.2">
      <stop offset="0.0" stop-color="#94792c"/>
      <stop offset="0.2" stop-color="#7d692d"/>
      <stop offset="0.3058823529411765" stop-color="#b5a24a"/>
      <stop offset="0.43137254901960786" stop-color="#ede4bc"/>
      <stop offset="0.5019607843137255" stop-color="#f3e9b6"/>
      <stop offset="0.5686274509803921" stop-color="#ede4bc"/>
      <stop offset="0.7372549019607844" stop-color="#b5a24a"/>
      <stop offset="0.8117647058823529" stop-color="#7d692d"/>
      <stop offset="1.0" stop-color="#94792c"/>
    </linearGradient>
    <radialGradient cx="0" cy="0" gradientTransform="matrix(0.0071, 0.0, 0.0, 0.0039, 9.0, 42.0)" gradientUnits="userSpaceOnUse" id="gradient4" r="819.2" spreadMethod="pad">
      <stop offset="0.050980392156862744" stop-color="#f3e9b6"/>
      <stop offset="0.12941176470588237" stop-color="#e8e3c1"/>
      <stop offset="0.4" stop-color="#ad9d52"/>
      <stop offset="0.7372549019607844" stop-color="#574820"/>
      <stop offset="0.9725490196078431" stop-color="#735f22"/>
    </radialGradient>
    <linearGradient gradientTransform="matrix(0.0077, 0.0, 0.0, 0.0024, 8.0, 60.0)" gradientUnits="userSpaceOnUse" id="gradient5" spreadMethod="pad" x1="-819.2" x2="819.2">
      <stop offset="0.050980392156862744" stop-color="#675625"/>
      <stop offset="0.23137254901960785" stop-color="#4f421c"/>
      <stop offset="0.5333333333333333" stop-color="#65571b"/>
      <stop offset="0.7686274509803922" stop-color="#554515"/>
      <stop offset="0.9411764705882353" stop-color="#675625"/>
    </linearGradient>
    <radialGradient cx="0" cy="0" gradientTransform="matrix(0.0085, 0.0, 0.0, 0.0092, 8.05, 58.9)" gradientUnits="userSpaceOnUse" id="gradient6" r="819.2" spreadMethod="pad">
      <stop offset="0.0" stop-color="#f0eab9"/>
      <stop offset="0.07058823529411765" stop-color="#f3edb6"/>
      <stop offset="0.3137254901960784" stop-color="#c2aa3d"/>
      <stop offset="0.7176470588235294" stop-color="#77671e"/>
      <stop offset="1.0" stop-color="#7a7230"/>
    </radialGradient>
    <radialGradient cx="0" cy="0" gradientTransform="matrix(0.0073, 0.0, 0.0, 0.0088, 8.0, 54.85)" gradientUnits="userSpaceOnUse" id="gradient7" r="819.2" spreadMethod="pad">
      <stop offset="0.023529411764705882" stop-color="#f0eab9"/>
      <stop offset="0.12941176470588237" stop-color="#ece3bd"/>
      <stop offset="0.43529411764705883" stop-color="#b1984e"/>
      <stop offset="0.7176470588235294" stop-color="#77671e"/>
      <stop offset="1.0" stop-color="#7a7230"/>
    </radialGradient>
    <linearGradient gradientTransform="matrix(0.0096, 0.0, 0.0, 0.0031, 9.0, 22.5)" gradientUnits="userSpaceOnUse" id="gradient8" spreadMethod="pad" x1="-819.2" x2="819.2">
      <stop offset="0.0" stop-color="#94792c"/>
      <stop offset="0.2" stop-color="#7d692d"/>
      <stop offset="0.3058823529411765" stop-color="#b5a24a"/>
      <stop offset="0.43137254901960786" stop-color="#ede4bc"/>
      <stop offset="0.5019607843137255" stop-color="#f3e9b6"/>
      <stop offset="0.5686274509803921" stop-color="#ede4bc"/>
      <stop offset="0.7372549019607844" stop-color="#b5a24a"/>
      <stop offset="0.8117647058823529" stop-color="#7d692d"/>
      <stop offset="1.0" stop-color="#94792c"/>
    </linearGradient>
    <radialGradient cx="0" cy="0" gradientTransform="matrix(0.0091, 0.0, 0.0, 0.0091, 9.0, 23.95)" gradientUnits="userSpaceOnUse" id="gradient9" r="819.2" spreadMethod="pad">
      <stop offset="0.0" stop-color="#f2ebd9"/>
      <stop offset="1.0" stop-color="#ebddc5"/>
    </radialGradient>
    <linearGradient gradientTransform="matrix(0.0033, -0.0502, 0.0451, 0.003, 2.2, -17.0)" gradientUnits="userSpaceOnUse" id="gradient10" spreadMethod="pad" x1="-819.2" x2="819.2">
      <stop offset="0.0" stop-color="#c1ac6f"/>
      <stop offset="0.1568627450980392" stop-color="#675625"/>
      <stop offset="0.2980392156862745" stop-color="#625224"/>
      <stop offset="0.43137254901960786" stop-color="#826c2f"/>
      <stop offset="0.6666666666666666" stop-color="#efe4ba"/>
      <stop offset="0.7450980392156863" stop-color="#f4ecd7"/>
      <stop offset="0.8235294117647058" stop-color="#aa9146"/>
      <stop offset="0.9411764705882353" stop-color="#665626"/>
    </linearGradient>
    <linearGradient gradientTransform="matrix(-0.0125, -0.0464, 0.045, -0.0121, -5.2, -23.0)" gradientUnits="userSpaceOnUse" id="gradient11" spreadMethod="pad" x1="-819.2" x2="819.2">
      <stop offset="0.047058823529411764" stop-color="#e6e6e6"/>
      <stop offset="0.12156862745098039" stop-color="#a3a3a3"/>
      <stop offset="0.20392156862745098" stop-color="#808080"/>
      <stop offset="0.30196078431372547" stop-color="#7b7b7b"/>
      <stop offset="0.4745098039215686" stop-color="#8d8d8d"/>
      <stop offset="0.5607843137254902" stop-color="#c6b9b9"/>
      <stop offset="0.6627450980392157" stop-color="#ffffff"/>
      <stop offset="0.7137254901960784" stop-color="#ffffff"/>
      <stop offset="0.788235294117647" stop-color="#e6dad9"/>
      <stop offset="0.9254901960784314" stop-color="#959595"/>
    </linearGradient>
    <linearGradient gradientTransform="matrix(0.0, -0.0247, 0.0243, 0.0, -0.35, -32.0)" gradientUnits="userSpaceOnUse" id="gradient12" spreadMethod="pad" x1="-819.2" x2="819.2">
      <stop offset="0.0" stop-color="#510b0b"/>
      <stop offset="0.5019607843137255" stop-color="#8c2c24"/>
      <stop offset="0.6941176470588235" stop-color="#832720"/>
      <stop offset="1.0" stop-color="#63130e"/>
    </linearGradient>
    <linearGradient gradientTransform="matrix(0.0, -0.0482, 0.0267, 0.0, 2.0, -17.15)" gradientUnits="userSpaceOnUse" id="gradient13" spreadMethod="pad" x1="-819.2" x2="819.2">
      <stop offset="0.0" stop-color="#c1ac6f"/>
      <stop offset="0.1568627450980392" stop-color="#675625"/>
      <stop offset="0.2980392156862745" stop-color="#625224"/>
      <stop offset="0.43137254901960786" stop-color="#826c2f"/>
      <stop offset="0.6666666666666666" stop-color="#efe4ba"/>
      <stop offset="0.7450980392156863" stop-color="#f4ecd7"/>
      <stop offset="0.8235294117647058" stop-color="#aa9146"/>
      <stop offset="0.9411764705882353" stop-color="#665626"/>
    </linearGradient>
    <linearGradient gradientTransform="matrix(0.0, -0.0453, 0.0027, 0.0, 2.15, -17.6)" gradientUnits="userSpaceOnUse" id="gradient14" spreadMethod="pad" x1="-819.2" x2="819.2">
      <stop offset="0.0" stop-color="#c1ac6f"/>
      <stop offset="0.1568627450980392" stop-color="#675625"/>
      <stop offset="0.2980392156862745" stop-color="#625224"/>
      <stop offset="0.43137254901960786" stop-color="#826c2f"/>
      <stop offset="0.6666666666666666" stop-color="#efe4ba"/>
      <stop offset="0.7450980392156863" stop-color="#f4ecd7"/>
      <stop offset="0.8235294117647058" stop-color="#aa9146"/>
      <stop offset="0.9411764705882353" stop-color="#665626"/>
    </linearGradient>
    <linearGradient gradientTransform="matrix(0.0, -0.0405, 0.0107, 0.0, -0.15, -17.8)" gradientUnits="userSpaceOnUse" id="gradient15" spreadMethod="pad" x1="-819.2" x2="819.2">
      <stop offset="0.0" stop-color="#c1ac6f"/>
      <stop offset="0.1568627450980392" stop-color="#675625"/>
      <stop offset="0.2980392156862745" stop-color="#625224"/>
      <stop offset="0.43137254901960786" stop-color="#826c2f"/>
      <stop offset="0.6666666666666666" stop-color="#efe4ba"/>
      <stop offset="0.7450980392156863" stop-color="#f4ecd7"/>
      <stop offset="0.8235294117647058" stop-color="#aa9146"/>
      <stop offset="0.9411764705882353" stop-color="#665626"/>
    </linearGradient>
    <linearGradient gradientTransform="matrix(0.008, -0.0038, 0.0114, 0.0242, 0.5, -27.5)" gradientUnits="userSpaceOnUse" id="gradient16" spreadMethod="pad" x1="-819.2" x2="819.2">
      <stop offset="0.0" stop-color="#574820"/>
      <stop offset="1.0" stop-color="#786532"/>
    </linearGradient>
    <linearGradient gradientTransform="matrix(0.0129, 0.0259, -0.024, 0.012, 0.3, -29.15)" gradientUnits="userSpaceOnUse" id="gradient17" spreadMethod="pad" x1="-819.2" x2="819.2">
      <stop offset="0.0" stop-color="#a89124"/>
      <stop offset="0.3254901960784314" stop-color="#f3e9cb"/>
      <stop offset="0.49019607843137253" stop-color="#ffffff"/>
      <stop offset="0.6392156862745098" stop-color="#ede0bc"/>
      <stop offset="1.0" stop-color="#98791f"/>
    </linearGradient>
    <linearGradient gradientTransform="matrix(0.0, -0.0224, 0.022, 0.0, 12.35, 1.95)" gradientUnits="userSpaceOnUse" id="gradient18" spreadMethod="pad" x1="-819.2" x2="819.2">
      <stop offset="0.0" stop-color="#b79d55"/>
      <stop offset="0.1568627450980392" stop-color="#b69841"/>
      <stop offset="0.43137254901960786" stop-color="#957d37"/>
      <stop offset="0.9411764705882353" stop-color="#d1bf89"/>
    </linearGradient>
  </defs>
</svg>
