<?xml version="1.0" encoding="UTF-8" standalone="no"?>
<svg xmlns:xlink="http://www.w3.org/1999/xlink" height="80.85px" width="80.85px" xmlns="http://www.w3.org/2000/svg">
  <g transform="matrix(1.0, 0.0, 0.0, 1.0, 38.4, 38.4)">
    <path d="M-38.4 -21.4 Q-38.4 -28.45 -33.4 -33.4 -28.45 -38.4 -21.4 -38.4 -14.35 -38.4 -9.35 -33.4 L33.1 9.05 33.8 10.2 34.55 12.5 35.2 12.4 Q36.45 12.4 37.35 13.3 L41.6 17.55 Q42.45 18.4 42.45 19.65 42.45 20.9 41.6 21.8 L21.8 41.6 Q20.9 42.45 19.65 42.45 18.4 42.45 17.55 41.6 L13.3 37.35 Q12.4 36.45 12.4 35.2 L12.5 34.55 10.2 33.8 9.05 33.1 -33.4 -9.35 Q-38.4 -14.35 -38.4 -21.4" fill="#000000" fill-rule="evenodd" stroke="none"/>
  </g>
</svg>
