<?xml version="1.0" encoding="UTF-8" standalone="no"?>
<svg xmlns:xlink="http://www.w3.org/1999/xlink" height="96.3px" width="98.3px" xmlns="http://www.w3.org/2000/svg">
  <g transform="matrix(1.0, 0.0, 0.0, 1.0, 49.15, 47.5)">
    <path d="M29.4 -29.8 Q17.25 -41.95 0.0 -41.95 -17.25 -41.95 -29.45 -29.8 -41.6 -17.6 -41.6 -0.35 -41.6 16.9 -29.45 29.05 -17.25 41.25 0.0 41.25 17.25 41.25 29.4 29.05 41.6 16.9 41.6 -0.35 41.6 -17.6 29.4 -29.8 M14.4 -47.5 Q25.75 -44.1 34.75 -35.15 49.15 -20.7 49.15 -0.35 49.15 20.0 34.75 34.4 20.35 48.8 0.0 48.8 -20.35 48.8 -34.8 34.4 -49.15 20.0 -49.15 -0.35 -49.15 -20.7 -34.8 -35.15 -25.75 -44.1 -14.4 -47.5 L-12.05 -46.85 Q-7.05 -45.75 0.0 -45.75 7.05 -45.75 12.0 -46.85 L14.4 -47.5" fill="#25afae" fill-rule="evenodd" stroke="none"/>
  </g>
</svg>
