<?xml version="1.0" encoding="UTF-8" standalone="no"?>
<svg xmlns:xlink="http://www.w3.org/1999/xlink" height="88.0px" width="30.0px" xmlns="http://www.w3.org/2000/svg">
  <g transform="matrix(1.0, 0.0, 0.0, 1.0, 15.0, 41.0)">
    <path d="M15.0 -26.0 L15.0 34.0 14.9 34.45 13.0 38.25 13.0 39.0 14.0 39.0 Q14.4 39.0 14.7 39.3 L15.0 40.0 15.0 46.0 14.7 46.7 14.0 47.0 -14.0 47.0 -14.7 46.7 -15.0 46.0 -15.0 40.0 -14.7 39.3 Q-14.4 39.0 -14.0 39.0 L-13.0 39.0 -13.0 38.25 -14.9 34.45 -15.0 34.0 -15.0 -26.0 Q-15.0 -32.2 -10.6 -36.6 -6.2 -41.0 0.0 -41.0 6.2 -41.0 10.6 -36.6 15.0 -32.2 15.0 -26.0" fill="#000000" fill-rule="evenodd" stroke="none"/>
    <path d="M12.0 42.0 L-12.0 42.0 -12.0 36.0 12.0 36.0 12.0 42.0" fill="#7b6d44" fill-rule="evenodd" stroke="none"/>
    <path d="M14.0 -20.0 L14.0 34.0 -14.0 34.0 -14.0 -20.0 14.0 -20.0" fill="url(#gradient0)" fill-rule="evenodd" stroke="none"/>
    <path d="M-14.0 40.0 L14.0 40.0 14.0 46.0 -14.0 46.0 -14.0 40.0" fill="url(#gradient1)" fill-rule="evenodd" stroke="none"/>
    <path d="M-14.0 -20.0 L-14.0 -26.0 Q-14.0 -31.8 -9.9 -35.9 -5.8 -40.0 0.0 -40.0 5.8 -40.0 9.9 -35.9 14.0 -31.8 14.0 -26.0 L14.0 -20.0 -14.0 -20.0" fill="url(#gradient2)" fill-rule="evenodd" stroke="none"/>
    <path d="M14.0 34.0 L12.0 38.0 -12.0 38.0 -14.0 34.0 14.0 34.0" fill="url(#gradient3)" fill-rule="evenodd" stroke="none"/>
    <path d="M-14.0 -20.0 L14.0 -20.0" fill="none" stroke="#5f4821" stroke-linecap="round" stroke-linejoin="round" stroke-width="1.0"/>
    <path d="M4.5 -20.05 L9.1 -20.05 Q9.1 1.8 8.4 18.15 7.7 34.0 6.8 34.0 5.8 34.0 5.15 18.15 4.5 3.0 4.5 -20.05" fill="url(#gradient4)" fill-rule="evenodd" stroke="none"/>
    <path d="M4.5 -20.05 L4.5 -21.2 Q4.6 -24.55 5.15 -27.05 5.8 -30.0 6.8 -30.0 7.7 -30.0 8.4 -27.05 9.0 -24.55 9.1 -21.2 L9.1 -20.05 4.5 -20.05" fill="url(#gradient5)" fill-rule="evenodd" stroke="none"/>
  </g>
  <defs>
    <linearGradient gradientTransform="matrix(0.0171, 0.0, 0.0, 0.033, 0.0, 7.0)" gradientUnits="userSpaceOnUse" id="gradient0" spreadMethod="pad" x1="-819.2" x2="819.2">
      <stop offset="0.0" stop-color="#9f8d57"/>
      <stop offset="0.17647058823529413" stop-color="#8d7d4c"/>
      <stop offset="0.3058823529411765" stop-color="#8d7c4e"/>
      <stop offset="0.5372549019607843" stop-color="#b8a363"/>
      <stop offset="0.7607843137254902" stop-color="#d8d29f"/>
      <stop offset="1.0" stop-color="#93814f"/>
    </linearGradient>
    <linearGradient gradientTransform="matrix(0.0171, 0.0, 0.0, 0.0037, 0.0, 43.0)" gradientUnits="userSpaceOnUse" id="gradient1" spreadMethod="pad" x1="-819.2" x2="819.2">
      <stop offset="0.0" stop-color="#9f8d57"/>
      <stop offset="0.17647058823529413" stop-color="#8d7d4c"/>
      <stop offset="0.3058823529411765" stop-color="#8d7c4e"/>
      <stop offset="0.5372549019607843" stop-color="#b8a363"/>
      <stop offset="0.7607843137254902" stop-color="#d8d29f"/>
      <stop offset="1.0" stop-color="#93814f"/>
    </linearGradient>
    <linearGradient gradientTransform="matrix(0.0171, 0.0, 0.0, 0.0122, 0.0, -30.0)" gradientUnits="userSpaceOnUse" id="gradient2" spreadMethod="pad" x1="-819.2" x2="819.2">
      <stop offset="0.00784313725490196" stop-color="#636363"/>
      <stop offset="0.2196078431372549" stop-color="#464646"/>
      <stop offset="0.7372549019607844" stop-color="#d0d0d0"/>
      <stop offset="1.0" stop-color="#8d8d8d"/>
    </linearGradient>
    <linearGradient gradientTransform="matrix(0.0146, 0.0, 0.0, 0.0024, 0.0, 36.0)" gradientUnits="userSpaceOnUse" id="gradient3" spreadMethod="pad" x1="-819.2" x2="819.2">
      <stop offset="0.0" stop-color="#978553"/>
      <stop offset="0.17647058823529413" stop-color="#7b6a3c"/>
      <stop offset="0.3137254901960784" stop-color="#76632c"/>
      <stop offset="0.5372549019607843" stop-color="#a08a49"/>
      <stop offset="0.7607843137254902" stop-color="#d3c896"/>
      <stop offset="1.0" stop-color="#8c7940"/>
    </linearGradient>
    <radialGradient cx="0" cy="0" gradientTransform="matrix(0.014, 0.0, 0.0, 0.0662, 6.8, -20.25)" gradientUnits="userSpaceOnUse" id="gradient4" r="819.2" spreadMethod="pad">
      <stop offset="0.0" stop-color="#d5ca96"/>
      <stop offset="1.0" stop-color="#cbbf86" stop-opacity="0.0"/>
    </radialGradient>
    <radialGradient cx="0" cy="0" gradientTransform="matrix(0.014, 0.0, 0.0, 0.0123, 6.8, -19.9)" gradientUnits="userSpaceOnUse" id="gradient5" r="819.2" spreadMethod="pad">
      <stop offset="0.0" stop-color="#d2d2d2"/>
      <stop offset="1.0" stop-color="#c9c9c9" stop-opacity="0.0"/>
    </radialGradient>
  </defs>
</svg>
