<?xml version="1.0" encoding="UTF-8" standalone="no"?>
<svg xmlns:xlink="http://www.w3.org/1999/xlink" height="161.0px" width="31.0px" xmlns="http://www.w3.org/2000/svg">
  <g transform="matrix(1.0, 0.0, 0.0, 1.0, 15.5, 78.5)">
    <path d="M2.3 -75.8 L3.4 -76.4 3.5 -76.45 12.5 -78.45 12.6 -78.45 14.0 -78.3 14.15 -78.2 15.2 -77.2 15.15 -77.3 15.5 -75.75 Q15.4 -74.95 14.9 -74.35 L14.85 -74.25 Q13.5 -72.8 12.65 -69.5 L12.7 -69.55 11.95 -65.75 12.3 -65.25 12.25 -65.3 Q12.7 -64.6 12.65 -63.75 L11.9 -55.55 12.05 -55.25 12.0 -55.3 Q12.45 -54.6 12.4 -53.75 L11.65 -45.55 11.8 -45.35 11.85 -45.25 Q12.25 -44.6 12.2 -43.75 L11.4 -35.55 11.6 -35.25 11.55 -35.35 Q12.0 -34.6 11.95 -33.75 L11.2 -25.5 11.35 -25.25 11.3 -25.35 Q11.8 -24.65 11.7 -23.75 L10.95 -15.5 11.1 -15.35 11.1 -15.3 Q11.5 -14.6 11.45 -13.75 L10.75 -5.45 10.85 -5.35 10.85 -5.3 Q11.25 -4.6 11.2 -3.75 L10.55 4.5 10.65 4.65 10.65 4.7 Q11.05 5.4 11.0 6.25 L10.3 14.55 10.4 14.7 Q10.8 15.4 10.75 16.25 L10.1 24.6 10.15 24.7 Q10.55 25.4 10.5 26.2 L10.25 29.65 11.15 29.85 11.2 29.9 Q11.95 30.2 12.35 30.95 12.8 31.75 12.65 32.6 L12.65 32.55 11.5 39.4 11.45 39.5 11.05 40.5 11.0 40.5 10.15 41.25 9.4 41.65 9.5 43.0 9.5 43.1 9.45 43.55 10.25 45.0 10.25 45.05 Q10.65 45.9 10.4 46.9 L10.45 46.75 Q10.2 47.65 9.45 48.2 L9.4 48.25 Q8.55 48.8 7.6 48.65 L7.65 48.65 6.5 48.45 6.5 65.5 Q7.0 66.15 7.0 67.0 L7.0 67.5 7.45 68.5 7.5 68.55 7.7 69.7 Q8.65 70.7 8.65 72.0 L8.65 72.05 8.45 73.35 8.45 73.5 Q8.6 74.25 8.35 74.95 L8.3 75.05 Q8.0 75.7 7.35 76.15 L7.35 76.1 7.1 76.25 7.35 77.45 7.4 77.5 7.15 79.1 7.15 79.05 6.0 80.2 6.05 80.2 4.45 80.45 4.4 80.4 2.95 80.1 2.1 81.4 2.05 81.45 0.85 82.35 0.8 82.4 Q0.0 82.65 -0.75 82.4 L-0.85 82.35 -2.05 81.45 -2.1 81.4 -2.95 80.05 -4.45 80.35 -4.5 80.4 -6.05 80.15 -7.2 79.0 -7.15 79.05 Q-7.55 78.25 -7.4 77.45 L-7.4 77.4 -7.15 76.25 -7.35 76.1 -7.3 76.15 -8.3 75.05 -8.35 74.95 Q-8.6 74.25 -8.45 73.5 L-8.4 73.35 -8.65 72.05 -8.65 72.0 Q-8.65 70.7 -7.7 69.7 L-7.45 68.55 -7.45 68.5 -7.0 67.5 -7.0 67.0 Q-7.0 66.15 -6.5 65.5 L-6.5 48.55 -7.6 48.7 -7.55 48.7 Q-8.5 48.85 -9.3 48.3 L-9.35 48.25 Q-10.15 47.7 -10.35 46.8 L-10.3 46.95 Q-10.6 45.95 -10.2 45.1 L-9.4 43.65 -9.5 43.1 -9.5 43.0 -9.35 41.6 -10.0 41.25 -10.05 41.25 -10.9 40.5 -11.35 39.5 -11.35 39.4 -12.5 32.55 -12.5 32.6 Q-12.7 31.75 -12.25 30.95 L-12.2 30.95 Q-11.85 30.2 -11.05 29.9 L-11.0 29.85 -10.2 29.65 -10.5 26.25 -10.5 26.2 Q-10.55 25.4 -10.1 24.7 L-10.05 24.6 -10.75 16.25 Q-10.8 15.4 -10.35 14.7 L-10.3 14.55 -11.0 6.25 Q-11.05 5.4 -10.6 4.7 L-10.6 4.65 -10.5 4.5 -11.2 -3.75 Q-11.25 -4.6 -10.8 -5.3 L-10.8 -5.35 -10.75 -5.45 -11.45 -13.75 Q-11.5 -14.6 -11.05 -15.3 L-11.05 -15.35 -10.95 -15.5 -11.7 -23.75 Q-11.8 -24.6 -11.3 -25.35 L-11.35 -25.25 -11.15 -25.5 -11.95 -33.75 Q-12.0 -34.6 -11.55 -35.35 L-11.6 -35.25 -11.4 -35.55 -12.2 -43.75 Q-12.3 -44.55 -11.85 -45.25 L-11.8 -45.35 -11.65 -45.55 -12.4 -53.75 Q-12.45 -54.6 -12.05 -55.25 L-12.0 -55.35 -11.85 -55.55 -12.65 -63.75 Q-12.7 -64.6 -12.25 -65.3 L-12.3 -65.25 -11.9 -65.75 -12.65 -69.55 -12.65 -69.5 Q-13.5 -72.8 -14.8 -74.25 L-14.9 -74.35 Q-15.4 -74.95 -15.5 -75.75 -15.55 -76.6 -15.1 -77.3 L-15.15 -77.2 -14.1 -78.2 -13.95 -78.3 -12.55 -78.45 -12.45 -78.45 -3.45 -76.45 -3.4 -76.4 -2.25 -75.8 -2.15 -75.7 Q-1.7 -75.25 -1.55 -74.6 L-1.5 -74.45 -1.0 -71.6 0.0 -70.7 1.0 -71.6 1.55 -74.45 1.55 -74.6 Q1.7 -75.25 2.2 -75.7 L2.3 -75.8 M8.3 45.15 L8.35 45.1 8.25 45.15 8.3 45.15" fill="#000000" fill-rule="evenodd" stroke="none"/>
    <path d="M1.4 77.25 L4.2 74.45 4.9 77.95 1.4 77.25" fill="url(#gradient0)" fill-rule="evenodd" stroke="none"/>
    <path d="M-4.25 74.4 L-1.45 77.2 -4.95 77.9 -4.25 74.4" fill="url(#gradient1)" fill-rule="evenodd" stroke="none"/>
    <path d="M2.0 77.0 L0.0 80.0 -2.0 77.0 2.0 77.0" fill="url(#gradient2)" fill-rule="evenodd" stroke="none"/>
    <path d="M3.0 73.0 Q3.0 71.75 2.1 70.85 1.25 70.0 0.0 70.0 -1.25 70.0 -2.15 70.85 -3.0 71.75 -3.0 73.0 -3.0 74.25 -2.15 75.1 -1.25 76.0 0.0 76.0 1.25 76.0 2.1 75.1 3.0 74.25 3.0 73.0 M3.5 69.45 Q5.0 70.95 5.0 73.0 5.0 75.05 3.5 76.5 2.05 78.0 0.0 78.0 -2.05 78.0 -3.55 76.5 -5.0 75.05 -5.0 73.0 -5.0 70.95 -3.55 69.45 -2.05 68.0 0.0 68.0 2.05 68.0 3.5 69.45" fill="url(#gradient3)" fill-rule="evenodd" stroke="none"/>
    <path d="M5.75 72.95 L5.4 71.05 5.85 71.35 6.15 72.05 5.75 72.95" fill="url(#gradient4)" fill-rule="evenodd" stroke="none"/>
    <path d="M-5.4 71.05 L-5.75 72.95 -6.15 72.05 -5.85 71.35 -5.4 71.05" fill="url(#gradient5)" fill-rule="evenodd" stroke="none"/>
    <path d="M6.0 74.0 L-6.0 74.0 -5.0 69.0 5.0 69.0 6.0 74.0" fill="url(#gradient6)" fill-rule="evenodd" stroke="none"/>
    <path d="M2.3 72.7 Q2.0 72.4 2.0 72.0 2.0 71.6 2.3 71.3 2.6 71.0 3.0 71.0 3.4 71.0 3.7 71.3 L4.0 72.0 3.7 72.7 3.0 73.0 Q2.6 73.0 2.3 72.7" fill="url(#gradient7)" fill-rule="evenodd" stroke="none"/>
    <path d="M-3.0 73.0 L-3.7 72.7 -4.0 72.0 -3.7 71.3 Q-3.4 71.0 -3.0 71.0 -2.6 71.0 -2.3 71.3 -2.0 71.6 -2.0 72.0 -2.0 72.4 -2.3 72.7 -2.6 73.0 -3.0 73.0" fill="url(#gradient8)" fill-rule="evenodd" stroke="none"/>
    <path d="M4.5 69.0 L-4.5 69.0 -4.5 67.0 4.5 67.0 4.5 69.0" fill="url(#gradient9)" fill-rule="evenodd" stroke="none"/>
    <path d="M4.0 64.0 L-4.0 64.0 -4.0 43.0 4.0 43.0 4.0 64.0" fill="url(#gradient10)" fill-rule="evenodd" stroke="none"/>
    <path d="M4.0 67.0 L-4.0 67.0 -4.0 64.0 4.0 64.0 4.0 67.0" fill="url(#gradient11)" fill-rule="evenodd" stroke="none"/>
    <path d="M2.9 40.65 L0.0 40.65 -2.9 40.65 -3.0 40.0 0.0 40.0 3.0 40.0 2.9 40.65" fill="url(#gradient12)" fill-rule="evenodd" stroke="none"/>
    <path d="M2.9 40.65 L3.35 40.65 3.45 40.65 2.3 47.65 1.25 47.65 1.1 51.35 Q1.1 52.2 0.0 52.35 -1.1 52.2 -1.1 51.35 L-1.25 47.65 -2.3 47.65 -3.45 40.65 -3.35 40.65 -2.9 40.65 0.0 40.65 2.9 40.65" fill="#000000" fill-opacity="0.21176471" fill-rule="evenodd" stroke="none"/>
    <path d="M0.0 40.0 L2.85 40.0 1.85 47.0 0.95 47.0 0.75 50.75 Q0.75 51.55 0.0 51.75 -0.75 51.55 -0.75 50.75 L-0.95 47.0 -1.85 47.0 -2.85 40.0 0.0 40.0" fill="url(#gradient13)" fill-rule="evenodd" stroke="none"/>
    <path d="M8.0 46.15 L4.55 45.65 6.3 43.0 8.0 46.15" fill="url(#gradient14)" fill-rule="evenodd" stroke="none"/>
    <path d="M-6.25 43.05 L-4.5 45.7 -7.95 46.2 -6.25 43.05" fill="url(#gradient15)" fill-rule="evenodd" stroke="none"/>
    <path d="M0.0 -68.0 L1.15 -68.5 Q2.65 -69.4 4.0 -71.5 L4.0 -65.5 0.0 -64.5 -4.0 -65.5 -4.0 -71.5 Q-2.65 -69.4 -1.15 -68.5 L0.0 -68.0" fill="url(#gradient16)" fill-rule="evenodd" stroke="none"/>
    <path d="M0.0 -59.0 L-9.0 -63.0 Q-9.65 -67.75 -10.25 -70.15 -11.3 -74.2 -13.0 -76.0 L-4.0 -74.0 -3.0 -68.7 Q-2.7 -66.9 -2.25 -66.45 -2.1 -66.25 0.0 -65.0 L0.0 -59.0" fill="url(#gradient17)" fill-rule="evenodd" stroke="none"/>
    <path d="M0.0 -65.0 Q2.1 -66.25 2.25 -66.45 2.7 -66.9 3.0 -68.7 L4.0 -74.0 13.0 -76.0 Q11.3 -74.2 10.25 -70.15 9.65 -67.75 9.0 -63.0 L0.0 -59.0 0.0 -65.0" fill="url(#gradient18)" fill-rule="evenodd" stroke="none"/>
    <path d="M11.25 -73.15 L10.65 -71.55 9.05 -71.05 Q8.45 -70.65 7.6 -62.35 L7.3 -59.55 5.9 -59.05 6.15 -61.7 Q7.1 -71.4 7.85 -72.0 8.5 -72.5 11.25 -73.15" fill="url(#gradient19)" fill-rule="evenodd" stroke="none"/>
    <path d="M-9.05 -71.05 L-10.65 -71.55 -11.25 -73.15 Q-8.5 -72.5 -7.85 -72.0 -7.1 -71.4 -6.15 -61.7 L-5.9 -59.05 -7.3 -59.55 -7.6 -62.35 Q-8.45 -70.65 -9.05 -71.05" fill="url(#gradient20)" fill-rule="evenodd" stroke="none"/>
  </g>
  <defs>
    <radialGradient cx="0" cy="0" gradientTransform="matrix(0.0028, 0.0027, -0.0013, 0.0013, 3.3, 76.45)" gradientUnits="userSpaceOnUse" id="gradient0" r="819.2" spreadMethod="pad">
      <stop offset="0.11372549019607843" stop-color="#d7b5bb"/>
      <stop offset="0.30980392156862746" stop-color="#a4717a"/>
      <stop offset="0.4196078431372549" stop-color="#7a4c51"/>
      <stop offset="0.6235294117647059" stop-color="#482124"/>
      <stop offset="0.8941176470588236" stop-color="#482124"/>
      <stop offset="1.0" stop-color="#7a4c51"/>
    </radialGradient>
    <radialGradient cx="0" cy="0" gradientTransform="matrix(0.0026, -0.0024, 0.0012, 0.0013, -3.5, 76.45)" gradientUnits="userSpaceOnUse" id="gradient1" r="819.2" spreadMethod="pad">
      <stop offset="0.11372549019607843" stop-color="#d7b5bb"/>
      <stop offset="0.30980392156862746" stop-color="#a4717a"/>
      <stop offset="0.4196078431372549" stop-color="#7a4c51"/>
      <stop offset="0.6235294117647059" stop-color="#482124"/>
      <stop offset="0.8941176470588236" stop-color="#482124"/>
      <stop offset="1.0" stop-color="#7a4c51"/>
    </radialGradient>
    <radialGradient cx="0" cy="0" gradientTransform="matrix(0.0017, 0.0, 0.0, 0.0038, 0.0, 78.0)" gradientUnits="userSpaceOnUse" id="gradient2" r="819.2" spreadMethod="pad">
      <stop offset="0.11372549019607843" stop-color="#d7b5bb"/>
      <stop offset="0.30980392156862746" stop-color="#a4717a"/>
      <stop offset="0.4196078431372549" stop-color="#7a4c51"/>
      <stop offset="0.6235294117647059" stop-color="#482124"/>
      <stop offset="0.8941176470588236" stop-color="#482124"/>
      <stop offset="1.0" stop-color="#7a4c51"/>
    </radialGradient>
    <linearGradient gradientTransform="matrix(0.0, 0.0024, -0.0061, 0.0, 0.0, 76.0)" gradientUnits="userSpaceOnUse" id="gradient3" spreadMethod="pad" x1="-819.2" x2="819.2">
      <stop offset="0.054901960784313725" stop-color="#15090a"/>
      <stop offset="0.27450980392156865" stop-color="#3d1b1d"/>
      <stop offset="0.38823529411764707" stop-color="#522527"/>
      <stop offset="0.8862745098039215" stop-color="#a87985"/>
      <stop offset="0.9490196078431372" stop-color="#a5858d"/>
    </linearGradient>
    <radialGradient cx="0" cy="0" fx="230.4" fy="0" gradientTransform="matrix(0.0024, 1.0E-4, 1.0E-4, -0.0023, 5.1, 71.6)" gradientUnits="userSpaceOnUse" id="gradient4" r="819.2" spreadMethod="pad">
      <stop offset="0.11764705882352941" stop-color="#be8d9a"/>
      <stop offset="0.5686274509803921" stop-color="#563037"/>
      <stop offset="0.7607843137254902" stop-color="#3f1d23"/>
      <stop offset="0.7764705882352941" stop-color="#482023"/>
    </radialGradient>
    <radialGradient cx="0" cy="0" fx="230.4" fy="0" gradientTransform="matrix(-0.0024, 1.0E-4, -1.0E-4, -0.0023, -5.1, 71.6)" gradientUnits="userSpaceOnUse" id="gradient5" r="819.2" spreadMethod="pad">
      <stop offset="0.11764705882352941" stop-color="#be8d9a"/>
      <stop offset="0.5686274509803921" stop-color="#563037"/>
      <stop offset="0.7607843137254902" stop-color="#3f1d23"/>
      <stop offset="0.7764705882352941" stop-color="#482023"/>
    </radialGradient>
    <radialGradient cx="0" cy="0" gradientTransform="matrix(0.0073, 0.0, 0.0, 0.0298, 0.0, 74.0)" gradientUnits="userSpaceOnUse" id="gradient6" r="819.2" spreadMethod="pad">
      <stop offset="0.1450980392156863" stop-color="#d7b5bb"/>
      <stop offset="0.2980392156862745" stop-color="#ba8d93"/>
      <stop offset="0.6549019607843137" stop-color="#66383c"/>
      <stop offset="0.8156862745098039" stop-color="#472023"/>
      <stop offset="1.0" stop-color="#401c22"/>
    </radialGradient>
    <radialGradient cx="0" cy="0" fx="230.4" fy="0" gradientTransform="matrix(0.0024, 1.0E-4, 1.0E-4, -0.0023, 2.35, 71.6)" gradientUnits="userSpaceOnUse" id="gradient7" r="819.2" spreadMethod="pad">
      <stop offset="0.11764705882352941" stop-color="#d3b1b8"/>
      <stop offset="0.24313725490196078" stop-color="#a5767b"/>
      <stop offset="0.6941176470588235" stop-color="#5e3e41"/>
      <stop offset="0.8588235294117647" stop-color="#482f32"/>
    </radialGradient>
    <radialGradient cx="0" cy="0" fx="230.4" fy="0" gradientTransform="matrix(0.0024, 1.0E-4, 1.0E-4, -0.0023, -3.65, 71.6)" gradientUnits="userSpaceOnUse" id="gradient8" r="819.2" spreadMethod="pad">
      <stop offset="0.11764705882352941" stop-color="#d3b1b8"/>
      <stop offset="0.24313725490196078" stop-color="#a5767b"/>
      <stop offset="0.6941176470588235" stop-color="#5e3e41"/>
      <stop offset="0.8588235294117647" stop-color="#482f32"/>
    </radialGradient>
    <linearGradient gradientTransform="matrix(0.0055, 0.0, 0.0, 0.0012, 0.0, 68.0)" gradientUnits="userSpaceOnUse" id="gradient9" spreadMethod="pad" x1="-819.2" x2="819.2">
      <stop offset="0.0" stop-color="#5e282f"/>
      <stop offset="0.11372549019607843" stop-color="#472023"/>
      <stop offset="0.23529411764705882" stop-color="#824e52"/>
      <stop offset="0.3568627450980392" stop-color="#b4868c"/>
      <stop offset="0.40784313725490196" stop-color="#cca1a7"/>
      <stop offset="0.592156862745098" stop-color="#cca1a7"/>
      <stop offset="0.6549019607843137" stop-color="#b4868c"/>
      <stop offset="0.7647058823529411" stop-color="#824e52"/>
      <stop offset="0.8823529411764706" stop-color="#472023"/>
      <stop offset="1.0" stop-color="#5e282f"/>
    </linearGradient>
    <linearGradient gradientTransform="matrix(0.006, 0.0, 0.0, 0.0128, 0.0, 53.5)" gradientUnits="userSpaceOnUse" id="gradient10" spreadMethod="pad" x1="-819.2" x2="819.2">
      <stop offset="0.0" stop-color="#72263d"/>
      <stop offset="0.11372549019607843" stop-color="#36121d"/>
      <stop offset="0.26666666666666666" stop-color="#72263d"/>
      <stop offset="0.4470588235294118" stop-color="#b83e61"/>
      <stop offset="0.5019607843137255" stop-color="#b83e61"/>
      <stop offset="0.5568627450980392" stop-color="#b83e61"/>
      <stop offset="0.7450980392156863" stop-color="#72263d"/>
      <stop offset="0.8745098039215686" stop-color="#36121d"/>
      <stop offset="1.0" stop-color="#72263d"/>
    </linearGradient>
    <linearGradient gradientTransform="matrix(0.0049, 0.0, 0.0, 0.0018, 0.0, 65.5)" gradientUnits="userSpaceOnUse" id="gradient11" spreadMethod="pad" x1="-819.2" x2="819.2">
      <stop offset="0.0" stop-color="#5e282f"/>
      <stop offset="0.11372549019607843" stop-color="#472023"/>
      <stop offset="0.23529411764705882" stop-color="#824e52"/>
      <stop offset="0.37254901960784315" stop-color="#b4868c"/>
      <stop offset="0.43529411764705883" stop-color="#cca1a7"/>
      <stop offset="0.5725490196078431" stop-color="#cca1a7"/>
      <stop offset="0.6313725490196078" stop-color="#b4868c"/>
      <stop offset="0.7647058823529411" stop-color="#824e52"/>
      <stop offset="0.8823529411764706" stop-color="#472023"/>
      <stop offset="1.0" stop-color="#5e282f"/>
    </linearGradient>
    <radialGradient cx="0" cy="0" gradientTransform="matrix(0.0103, 0.0, 0.0, 0.0127, -0.05, 54.2)" gradientUnits="userSpaceOnUse" id="gradient12" r="819.2" spreadMethod="pad">
      <stop offset="0.0" stop-color="#84706c"/>
      <stop offset="0.8941176470588236" stop-color="#c6c6c6"/>
      <stop offset="0.9411764705882353" stop-color="#887d7d"/>
    </radialGradient>
    <radialGradient cx="0" cy="0" gradientTransform="matrix(0.0103, 0.0, 0.0, 0.0127, -0.05, 54.2)" gradientUnits="userSpaceOnUse" id="gradient13" r="819.2" spreadMethod="pad">
      <stop offset="0.07058823529411765" stop-color="#536b6c"/>
      <stop offset="0.8941176470588236" stop-color="#adbbbc"/>
      <stop offset="0.9411764705882353" stop-color="#465b5e"/>
    </radialGradient>
    <radialGradient cx="0" cy="0" gradientTransform="matrix(0.0041, 0.0025, -0.001, 0.0017, 5.4, 44.5)" gradientUnits="userSpaceOnUse" id="gradient14" r="819.2" spreadMethod="pad">
      <stop offset="0.11372549019607843" stop-color="#d7b5bb"/>
      <stop offset="0.30980392156862746" stop-color="#a4717a"/>
      <stop offset="0.4196078431372549" stop-color="#7a4c51"/>
      <stop offset="0.6235294117647059" stop-color="#482124"/>
      <stop offset="0.8941176470588236" stop-color="#482124"/>
      <stop offset="1.0" stop-color="#7a4c51"/>
    </radialGradient>
    <radialGradient cx="0" cy="0" gradientTransform="matrix(0.0039, -0.0025, 0.0011, 0.0017, -5.5, 44.5)" gradientUnits="userSpaceOnUse" id="gradient15" r="819.2" spreadMethod="pad">
      <stop offset="0.11372549019607843" stop-color="#d7b5bb"/>
      <stop offset="0.30980392156862746" stop-color="#a4717a"/>
      <stop offset="0.4196078431372549" stop-color="#7a4c51"/>
      <stop offset="0.6235294117647059" stop-color="#482124"/>
      <stop offset="0.8941176470588236" stop-color="#482124"/>
      <stop offset="1.0" stop-color="#7a4c51"/>
    </radialGradient>
    <linearGradient gradientTransform="matrix(0.0043, 0.0, 0.0, 0.0043, 0.0, -68.05)" gradientUnits="userSpaceOnUse" id="gradient16" spreadMethod="pad" x1="-819.2" x2="819.2">
      <stop offset="0.00784313725490196" stop-color="#a4878d"/>
      <stop offset="0.4745098039215686" stop-color="#a08187"/>
      <stop offset="0.5372549019607843" stop-color="#73454e"/>
      <stop offset="1.0" stop-color="#562b34"/>
    </linearGradient>
    <linearGradient gradientTransform="matrix(0.0089, -0.0083, 0.0062, 0.0067, -11.85, -70.15)" gradientUnits="userSpaceOnUse" id="gradient17" spreadMethod="pad" x1="-819.2" x2="819.2">
      <stop offset="0.050980392156862744" stop-color="#221115"/>
      <stop offset="0.3137254901960784" stop-color="#241216"/>
      <stop offset="0.7529411764705882" stop-color="#402027"/>
    </linearGradient>
    <linearGradient gradientTransform="matrix(0.0085, 0.0043, -0.0041, 0.0082, 6.5, -68.5)" gradientUnits="userSpaceOnUse" id="gradient18" spreadMethod="pad" x1="-819.2" x2="819.2">
      <stop offset="0.11372549019607843" stop-color="#c7b8bb"/>
      <stop offset="0.37254901960784315" stop-color="#8b6b74"/>
      <stop offset="0.5725490196078431" stop-color="#6f414a"/>
      <stop offset="0.7568627450980392" stop-color="#3e1f25"/>
    </linearGradient>
    <linearGradient gradientTransform="matrix(-1.0E-4, 0.0095, -0.0099, -2.0E-4, 7.0, -66.05)" gradientUnits="userSpaceOnUse" id="gradient19" spreadMethod="pad" x1="-819.2" x2="819.2">
      <stop offset="0.0" stop-color="#14e0c8"/>
      <stop offset="0.984313725490196" stop-color="#12c6a9"/>
    </linearGradient>
    <linearGradient gradientTransform="matrix(1.0E-4, 0.0095, 0.0099, -2.0E-4, -7.0, -66.05)" gradientUnits="userSpaceOnUse" id="gradient20" spreadMethod="pad" x1="-819.2" x2="819.2">
      <stop offset="0.0" stop-color="#0d9284"/>
      <stop offset="0.984313725490196" stop-color="#096e63"/>
    </linearGradient>
  </defs>
</svg>
