<?xml version="1.0" encoding="UTF-8" standalone="no"?>
<svg xmlns:xlink="http://www.w3.org/1999/xlink" height="507.0px" width="469.1px" xmlns="http://www.w3.org/2000/svg">
  <g transform="matrix(1.0, 0.0, 0.0, 1.0, 4.0, 1.0)">
    <path d="M-2.0 3.0 L-1.9 3.45 Q-1.5 3.15 -1.0 3.0 L-0.75 3.7 Q-0.3 2.35 1.0 2.0 L6.6 13.1 7.0 13.0 Q11.5 20.35 18.3 33.0 L30.0 54.75 Q36.6 66.65 49.2 82.45 L53.25 87.55 67.9 101.75 Q70.1 102.4 73.8 104.8 L74.95 105.55 Q79.05 105.45 85.25 107.0 L85.65 107.25 85.9 107.75 Q91.75 103.0 96.0 103.0 102.6 103.0 117.0 112.2 130.65 120.9 137.0 128.25 L147.5 140.05 Q150.8 143.75 151.4 145.15 151.95 146.35 151.6 149.0 151.0 153.4 151.0 157.25 151.0 163.7 156.0 171.3 163.3 182.5 177.0 182.5 179.4 182.5 182.65 179.75 185.85 177.0 188.0 177.0 195.05 177.0 209.2 187.05 222.1 196.15 226.95 204.05 L227.0 204.0 227.3 204.7 228.0 206.0 227.7 206.65 228.0 211.1 Q228.0 214.2 234.6 217.25 243.3 221.25 246.0 224.0 L245.6 225.3 Q245.1 226.0 243.5 226.0 236.6 226.0 229.75 219.5 224.0 214.0 224.0 211.5 224.0 209.0 224.45 207.45 L224.7 206.85 Q217.6 200.75 206.2 192.3 191.3 181.25 188.5 181.25 186.9 181.25 183.15 184.15 179.45 187.0 177.0 187.0 157.25 187.0 149.55 166.8 147.25 160.7 146.05 152.65 L145.0 145.75 142.65 142.75 141.55 143.3 Q139.85 144.0 138.5 144.0 135.65 144.0 132.4 142.45 L123.95 138.6 Q123.05 139.25 122.5 139.75 120.0 142.05 120.0 147.0 119.75 147.0 119.2 147.4 L118.0 148.0 Q118.0 149.8 116.0 150.75 113.35 152.0 107.0 152.0 L98.3 151.35 96.25 149.0 96.0 149.0 Q90.45 149.0 85.3 142.0 81.2 136.4 80.5 132.25 80.25 130.65 80.45 127.75 L80.5 123.25 Q80.4 122.15 77.15 119.25 75.0 117.35 74.35 116.25 65.15 111.35 48.35 93.15 40.45 84.55 32.55 74.85 25.95 66.75 24.25 64.0 12.35 44.8 8.35 37.65 -4.0 15.45 -4.0 7.0 -4.0 3.8 -2.0 3.0 M436.15 10.0 L441.2 6.4 Q447.85 2.1 454.1 -1.0 455.65 -0.4 456.1 1.0 454.35 4.05 446.05 9.3 440.25 12.7 437.4 14.5 L432.85 24.65 Q427.45 36.0 427.0 40.5 426.15 47.75 422.5 51.75 420.0 54.5 415.05 56.5 409.3 58.8 408.1 59.7 405.0 62.0 405.0 66.5 405.0 69.6 406.4 76.3 408.35 75.45 411.8 77.15 415.25 78.8 420.5 82.75 426.4 86.05 428.2 89.7 429.1 91.6 429.1 95.5 429.1 105.6 426.15 112.7 420.95 125.1 408.0 124.0 L400.75 124.0 Q400.35 123.3 400.6 121.95 L401.0 119.0 400.95 117.5 400.75 116.75 400.55 116.4 Q400.45 116.0 399.0 116.0 386.0 116.0 382.25 132.5 381.0 138.05 381.0 151.6 381.0 152.85 380.0 156.7 379.0 160.5 379.0 161.75 379.0 163.0 380.0 162.9 L380.1 162.9 Q383.7 161.0 385.5 161.0 388.75 161.0 389.65 162.5 389.95 163.0 390.25 165.75 390.75 170.5 399.5 170.5 408.95 170.5 415.3 163.0 420.0 157.45 420.0 154.0 420.0 152.75 417.0 150.75 414.0 148.75 414.0 147.5 L414.05 146.05 414.25 145.5 Q417.95 146.0 420.85 148.35 424.0 150.9 424.0 154.1 424.0 161.45 419.0 167.25 412.35 175.0 399.5 175.0 385.95 175.0 385.2 171.55 385.0 170.75 385.65 168.35 386.2 166.3 385.5 165.25 380.85 167.6 376.8 170.25 L370.0 175.0 369.4 174.9 366.7 177.15 Q350.25 190.8 339.0 194.75 327.75 198.7 318.55 198.75 L304.9 197.3 Q297.6 196.35 291.65 198.05 283.5 200.4 272.25 208.5 267.3 212.05 262.65 216.85 L256.0 224.0 253.75 224.0 253.4 223.75 Q253.0 223.5 253.0 222.0 253.0 217.95 260.9 211.1 267.65 205.3 275.5 201.0 284.65 196.0 294.0 194.95 298.25 194.5 309.85 194.95 319.55 195.35 326.1 193.8 335.65 191.5 345.75 184.25 L365.15 169.95 Q371.7 164.85 373.9 161.7 375.95 158.75 376.15 154.65 L376.0 144.1 Q376.0 135.65 381.0 125.0 383.1 120.5 385.65 117.45 384.55 116.85 384.2 116.0 384.0 115.55 384.0 113.75 L384.05 112.9 Q382.8 110.9 381.65 107.4 380.0 102.35 380.0 100.25 380.0 97.85 381.55 92.8 382.35 90.1 383.0 88.65 L383.0 88.6 Q383.0 85.5 387.0 79.85 390.9 74.4 393.0 74.0 L393.9 74.3 394.9 73.5 399.05 70.55 399.0 67.85 Q399.0 61.45 401.65 58.55 403.3 56.75 408.0 55.05 413.2 53.2 415.7 51.15 420.05 47.7 422.5 40.75 L427.7 24.65 Q430.2 17.8 433.1 13.6 433.15 12.45 435.95 10.15 L436.15 10.0 M391.45 82.25 Q387.45 87.25 386.5 90.25 L386.0 90.65 386.0 90.85 Q386.0 92.1 385.0 95.55 384.0 99.0 384.0 100.25 L386.0 106.8 388.0 113.0 387.8 113.5 388.0 113.8 388.45 114.6 Q392.75 111.0 398.0 111.0 400.8 111.0 403.1 114.65 405.0 117.65 405.0 119.5 417.0 121.9 422.05 110.75 425.0 104.25 425.0 95.85 425.0 92.2 424.4 90.65 423.7 88.9 421.65 87.6 414.45 84.6 406.25 80.8 L404.5 81.0 Q400.6 81.0 399.45 75.9 L398.55 76.45 393.55 79.45 391.45 82.25 M364.0 356.35 L363.75 357.3 363.7 357.65 363.5 357.85 362.4 359.2 Q360.75 360.95 360.75 361.5 360.75 364.75 364.0 368.25 367.85 372.5 373.5 372.5 376.9 372.5 377.5 370.75 377.75 370.0 378.2 369.6 378.6 365.85 380.1 364.25 L380.0 362.1 Q380.0 359.9 380.3 359.0 380.7 357.75 382.0 357.0 384.3 358.1 384.85 360.95 L385.3 363.5 Q388.6 364.6 393.6 368.6 L395.5 369.6 401.0 372.7 Q402.65 373.3 404.65 374.9 L405.55 375.65 407.55 377.3 Q417.75 384.2 425.45 396.8 431.05 405.95 434.55 416.8 437.1 424.85 437.1 427.85 L437.15 435.45 Q437.05 441.9 436.1 445.5 434.3 452.35 429.25 454.0 426.95 454.75 426.25 455.55 425.0 456.9 425.0 460.35 425.0 461.4 430.55 471.15 L437.85 484.0 Q440.65 489.15 448.05 494.3 455.5 499.5 464.35 502.5 L465.1 504.0 464.45 505.3 Q463.75 506.0 462.1 506.0 448.55 506.0 433.15 483.5 L431.45 480.95 Q425.1 480.05 420.55 469.65 419.0 466.0 417.85 461.75 L417.0 458.0 Q417.0 454.5 417.35 453.6 418.25 451.2 422.0 450.0 L424.65 450.0 Q425.75 449.05 427.1 448.7 L427.2 448.7 432.1 443.75 Q432.1 440.8 432.6 435.0 L433.1 428.35 Q433.1 425.35 430.85 417.95 427.8 407.9 422.75 399.5 417.05 389.95 409.75 384.0 L409.0 384.0 401.4 378.6 Q397.8 376.8 393.9 375.75 L392.75 375.45 Q387.4 374.1 381.55 374.0 L380.0 376.0 379.65 375.55 Q379.05 377.0 373.5 377.0 365.2 377.0 359.8 369.5 358.05 367.05 356.85 364.2 356.0 362.1 356.0 361.6 356.0 359.75 357.75 357.5 358.85 356.05 360.25 355.35 356.4 349.9 350.45 344.5 335.6 331.0 318.0 331.0 315.95 331.0 314.05 334.5 312.15 338.0 310.0 338.0 294.7 338.0 283.3 325.0 279.0 320.1 276.35 314.5 274.0 309.55 274.0 306.6 274.0 303.5 277.25 298.2 L280.5 292.75 Q280.5 289.85 273.4 276.2 L265.75 262.0 Q261.8 254.55 253.35 242.6 L252.1 240.8 Q250.15 240.25 249.0 238.1 248.05 236.3 248.0 235.0 L246.0 232.0 Q246.0 230.45 247.0 230.15 L248.0 230.0 Q249.25 231.15 251.65 234.45 L253.25 235.45 Q255.15 236.9 256.0 238.75 L255.6 240.15 255.6 240.2 268.05 259.95 Q285.0 287.7 285.0 293.1 285.0 293.65 281.5 299.05 278.0 304.45 278.0 306.25 278.0 309.1 279.95 313.3 282.15 318.0 285.8 322.0 295.25 332.5 308.5 332.5 309.45 332.5 312.5 329.25 315.55 326.0 317.0 326.0 335.6 326.0 351.0 337.95 356.85 342.55 360.6 347.6 364.0 352.3 364.0 355.0 L364.0 355.85 364.0 356.35 M383.4 368.9 L383.35 369.15 384.5 369.2 384.1 369.0 384.0 369.0 383.4 368.9 M116.45 145.1 Q116.0 143.75 116.0 142.6 116.0 138.0 116.55 137.45 117.4 136.65 124.25 135.5 L124.65 135.3 124.85 135.55 Q129.45 134.2 134.3 136.8 137.4 138.45 138.2 138.7 L139.8 138.85 139.45 138.4 Q133.8 130.7 128.9 125.4 112.35 107.5 96.5 107.5 92.2 107.5 86.45 112.75 L82.65 116.15 82.6 116.3 81.8 116.85 81.25 117.3 Q84.95 120.65 85.2 122.3 85.3 123.05 84.7 124.9 84.0 127.0 84.0 128.85 84.0 133.25 87.0 138.0 91.05 144.35 98.25 145.5 L98.7 146.35 99.6 146.25 107.0 146.0 115.4 146.25 116.5 145.15 116.45 145.1" fill="url(#gradient0)" fill-rule="evenodd" stroke="none"/>
    <path d="M435.95 10.15 L436.1 10.0 436.15 10.0 435.95 10.15 M365.0 343.25 Q365.0 341.75 366.45 339.9 368.0 337.85 370.3 336.95 376.45 334.45 382.5 342.0 L385.6 347.95 Q387.75 352.15 388.0 354.35 L387.75 356.25 387.45 356.65 385.5 357.0 383.0 356.5 Q383.0 353.25 380.7 348.65 377.65 342.5 373.0 342.5 369.65 342.5 369.05 343.95 368.35 345.7 367.0 346.0 L365.55 345.4 Q365.0 344.9 365.0 343.25 M397.0 451.85 Q397.0 450.1 397.55 449.2 398.0 448.4 399.0 448.0 400.5 449.4 401.8 453.55 403.75 457.3 409.25 458.5 L410.0 460.0 409.35 461.3 Q408.65 462.0 407.0 462.0 400.3 462.0 398.0 457.1 397.25 455.5 397.05 453.6 L397.0 451.85" fill="#9cfefd" fill-rule="evenodd" stroke="none"/>
  </g>
  <defs>
    <radialGradient cx="0" cy="0" gradientTransform="matrix(0.4361, 0.0, 0.0, 0.4361, 246.0, 226.0)" gradientUnits="userSpaceOnUse" id="gradient0" r="819.2" spreadMethod="pad">
      <stop offset="0.0" stop-color="#ffffff"/>
      <stop offset="1.0" stop-color="#2de6f4"/>
    </radialGradient>
  </defs>
</svg>
