<?xml version="1.0" encoding="UTF-8" standalone="no"?>
<svg xmlns:xlink="http://www.w3.org/1999/xlink" height="558.85px" width="564.65px" xmlns="http://www.w3.org/2000/svg">
  <g transform="matrix(1.0, 0.0, 0.0, 1.0, 9.55, -19.25)">
    <path d="M510.55 533.1 Q508.0 535.75 508.0 537.0 508.0 539.4 514.25 546.45 520.8 553.85 521.1 554.85 L520.7 556.25 Q520.2 557.1 518.6 557.1 513.9 557.1 508.5 547.35 L504.0 537.6 Q504.0 535.3 506.5 532.35 509.0 529.45 509.0 527.85 509.0 525.65 506.55 521.6 503.85 517.05 499.85 513.5 488.95 503.8 477.0 508.1 L475.55 507.7 Q475.0 507.35 475.0 505.75 475.0 501.65 480.95 502.0 486.5 502.35 494.05 506.2 501.95 510.25 507.15 515.7 513.1 521.95 513.1 527.85 513.1 530.4 510.55 533.1 M554.95 577.1 L554.6 577.35 554.8 577.75 Q554.65 578.1 553.1 578.1 542.25 571.0 539.1 566.35 540.45 562.2 547.85 567.65 550.65 569.7 552.9 572.15 555.1 574.55 555.1 575.5 L554.95 577.1" fill="url(#gradient0)" fill-rule="evenodd" stroke="none"/>
    <path d="M419.55 58.25 Q420.55 71.4 420.55 74.35 L420.75 77.1 Q420.85 79.25 420.55 80.75 419.5 85.25 413.95 85.25 409.75 85.25 405.8 82.0 401.85 78.75 400.45 78.75 398.1 78.75 395.9 84.7 393.5 91.25 391.45 92.25 L390.0 91.8 Q389.45 91.45 389.45 89.85 389.45 85.7 392.45 80.5 396.05 74.25 400.95 74.25 404.6 74.25 408.2 78.5 411.3 82.15 415.55 80.75 416.2 79.25 416.45 77.45 L416.55 74.0 Q416.55 63.05 411.0 53.9 L407.2 47.9 Q405.45 44.9 405.45 42.6 405.45 39.1 408.25 30.15 411.25 20.45 413.45 19.25 L415.0 19.5 Q415.55 19.7 415.55 21.25 L412.5 31.3 Q409.45 41.4 409.45 42.25 409.45 44.25 414.45 50.5 419.5 56.7 419.55 58.25 M377.9 90.7 Q378.45 91.0 378.45 92.6 378.45 93.25 376.25 97.85 374.55 101.35 376.45 103.5 375.45 105.0 374.45 105.25 372.65 103.45 372.0 102.2 371.45 101.05 371.45 99.5 371.45 96.65 373.0 94.15 374.05 92.5 376.45 90.25 L377.9 90.7 M366.45 138.25 Q366.45 138.9 364.95 142.0 363.45 145.05 363.45 145.75 363.45 147.0 364.45 150.8 365.45 154.6 365.45 155.85 365.45 162.05 358.15 168.25 355.1 170.85 343.45 178.25 L341.45 177.0 Q342.2 176.0 352.0 168.0 361.45 159.6 361.45 155.85 361.45 154.6 360.45 151.2 359.45 147.75 359.45 146.5 359.45 142.1 359.75 141.3 360.5 139.1 364.45 136.25 L365.9 136.5 Q366.45 136.7 366.45 138.25 M350.45 349.5 Q366.7 349.1 374.25 358.9 379.45 365.65 379.45 374.6 379.45 379.4 375.7 384.65 L371.95 389.85 Q371.95 392.75 375.95 397.8 381.6 404.95 382.45 406.5 L382.2 407.65 Q382.0 408.25 380.45 408.25 374.65 408.25 370.5 399.0 369.15 396.1 368.2 392.6 367.45 390.05 367.45 389.6 367.45 387.4 371.45 383.75 375.45 380.1 375.45 375.35 375.45 367.1 371.85 362.95 366.9 357.15 351.2 351.75 350.45 351.0 350.45 349.5 M139.45 170.25 Q135.6 170.25 130.75 167.65 127.15 165.7 125.45 164.0 L125.45 161.75 Q127.7 161.6 132.9 163.85 L141.45 168.0 141.3 169.4 Q141.0 170.25 139.45 170.25 M71.9 96.2 Q72.2 99.5 73.7 100.75 75.85 102.7 82.5 103.9 88.45 104.95 90.45 108.0 L90.3 109.4 Q90.0 110.25 88.45 110.25 75.65 110.25 70.7 105.5 67.7 102.55 66.35 95.0 65.0 87.3 62.3 84.5 57.7 79.75 45.45 79.75 44.05 79.75 41.1 83.5 38.1 87.25 34.95 87.25 24.4 87.25 8.45 60.05 L5.95 55.7 Q2.65 53.3 -3.05 41.5 -9.55 28.1 -9.55 26.5 L-9.5 24.65 -9.3 23.75 Q-5.45 23.7 -1.4 28.7 L-0.8 28.75 -0.55 29.75 Q1.5 32.6 3.65 36.75 9.45 48.1 9.45 53.75 L9.45 54.3 13.6 61.5 Q26.3 82.5 34.95 82.5 36.15 82.5 39.1 78.9 42.1 75.25 45.45 75.25 53.85 75.25 62.7 82.3 69.1 87.4 70.95 91.0 71.5 92.15 71.9 96.2 M120.45 145.25 Q116.5 137.45 111.45 129.75 115.8 128.6 119.45 134.15 122.75 139.2 122.45 144.25 L121.65 144.65 120.45 145.25 M425.55 420.25 Q425.2 420.25 418.2 416.7 411.05 413.05 409.2 412.75 408.45 412.0 408.45 410.5 414.1 408.7 420.05 412.0 423.15 413.75 427.55 418.0 L427.4 419.4 Q427.1 420.25 425.55 420.25 M405.45 432.6 Q405.45 431.05 406.45 430.6 L407.45 430.25 Q423.25 437.05 431.3 447.55 438.55 457.05 438.55 468.25 438.55 472.15 438.15 473.15 436.75 476.7 431.55 474.75 433.5 481.85 436.65 486.1 441.5 492.6 450.8 495.75 L451.55 497.25 450.9 498.55 Q450.2 499.25 448.55 499.25 440.2 499.25 433.1 487.75 430.75 483.95 428.95 479.55 427.55 476.1 427.55 475.35 427.55 472.75 427.8 470.75 L429.5 470.5 434.55 470.25 434.55 465.5 Q434.05 464.5 432.15 456.35 430.7 450.15 427.3 446.75 423.1 442.55 412.95 439.35 409.05 438.1 407.6 437.0 405.45 435.4 405.45 432.6" fill="url(#gradient1)" fill-rule="evenodd" stroke="none"/>
  </g>
  <defs>
    <radialGradient cx="0" cy="0" gradientTransform="matrix(0.4361, 0.0, 0.0, 0.4361, 264.0, 216.0)" gradientUnits="userSpaceOnUse" id="gradient0" r="819.2" spreadMethod="pad">
      <stop offset="0.0" stop-color="#ffffff"/>
      <stop offset="1.0" stop-color="#2de6f4"/>
    </radialGradient>
    <radialGradient cx="0" cy="0" gradientTransform="matrix(0.4361, 0.0, 0.0, 0.4361, 232.45, 225.25)" gradientUnits="userSpaceOnUse" id="gradient1" r="819.2" spreadMethod="pad">
      <stop offset="0.0" stop-color="#ffffff"/>
      <stop offset="1.0" stop-color="#2de6f4"/>
    </radialGradient>
  </defs>
</svg>
