<?xml version="1.0" encoding="UTF-8" standalone="no"?>
<svg xmlns:xlink="http://www.w3.org/1999/xlink" height="364.3px" width="501.8px" xmlns="http://www.w3.org/2000/svg">
  <g transform="matrix(1.0, 0.0, 0.0, 1.0, 0.0, 0.0)">
    <path d="M152.85 262.1 Q156.8 264.1 161.7 268.25 L169.85 275.1 Q164.15 277.05 159.55 271.6 155.1 264.55 152.85 262.1" fill="#ffffff" fill-rule="evenodd" stroke="none"/>
    <path d="M161.4 231.8 Q157.0 225.15 154.85 220.1 157.3 216.3 158.4 209.15 L159.85 196.1 Q168.95 199.35 177.85 204.1 176.45 205.9 175.5 214.75 174.7 222.1 170.85 223.1 169.55 221.05 169.05 215.9 168.5 209.9 167.85 208.1 160.5 221.3 169.7 238.4 171.05 240.95 178.1 252.1 183.2 260.15 184.85 265.1 180.05 262.05 175.7 255.05 L168.85 243.1 161.4 231.8 M147.85 183.1 L143.35 192.1 Q140.6 197.55 139.85 202.1 135.1 200.65 134.75 192.2 135.25 181.75 134.85 177.1 138.9 177.2 142.35 179.15 L147.85 183.1 M84.85 180.1 Q90.05 180.2 92.75 178.5 95.8 176.55 95.85 172.1 101.7 172.0 102.6 178.4 103.35 184.4 99.85 188.1 93.8 190.65 89.5 188.8 84.7 186.75 84.85 180.1 M113.85 163.1 Q117.35 162.55 119.85 164.1 L123.85 167.1 Q123.25 168.2 122.8 174.55 122.4 179.4 119.85 180.1 116.0 179.3 115.15 173.3 114.8 166.0 113.85 163.1 M102.85 153.1 L101.3 156.05 Q100.5 157.9 100.85 160.1 96.15 159.5 93.7 155.75 91.8 152.85 90.85 147.1 94.9 146.65 97.85 149.1 L102.85 153.1 M42.85 112.1 Q36.7 113.5 33.05 106.6 29.75 97.65 27.85 94.1 34.2 95.45 37.95 100.5 41.1 104.7 42.85 112.1 M54.25 127.2 Q51.6 117.55 49.85 113.1 64.05 117.1 62.85 137.1 57.2 135.05 54.25 127.2 M186.85 200.1 Q188.75 207.9 191.4 229.55 193.8 248.8 196.85 258.1 187.8 251.2 185.1 234.3 183.35 223.35 183.85 200.1 L186.85 200.1 M213.5 236.9 Q217.45 239.6 219.85 240.1 221.8 240.25 223.35 238.1 224.85 235.95 226.85 236.1 232.75 237.9 236.6 241.75 240.25 245.4 240.45 249.3 240.7 253.45 236.8 256.05 232.4 258.95 223.85 259.1 222.2 257.65 221.9 252.55 221.55 246.65 220.85 245.1 217.75 247.4 215.5 248.25 212.1 249.55 207.85 249.1 202.6 253.15 205.95 259.5 209.3 265.8 215.85 265.1 216.75 270.1 215.75 275.0 214.7 280.15 211.85 283.1 206.3 281.75 200.3 261.75 194.35 242.05 196.85 235.1 199.4 227.95 206.95 232.5 209.1 233.75 213.5 236.9 M258.8 290.4 Q268.9 290.9 290.85 295.1 304.05 297.6 307.1 298.45 315.8 300.9 319.85 305.1 316.4 307.65 311.9 304.95 306.8 301.15 303.85 300.1 291.6 295.65 269.05 295.2 242.3 295.45 228.85 295.1 241.65 289.55 258.8 290.4 M282.65 286.8 Q272.4 284.35 265.85 280.1 273.8 276.45 286.45 279.25 298.75 282.0 300.85 287.1 294.2 289.55 282.65 286.8 M270.85 268.1 Q278.25 268.0 280.75 268.15 286.0 268.5 288.85 270.1 286.95 272.9 280.8 273.15 276.15 273.3 270.85 272.1 L270.85 268.1 M214.85 289.1 Q214.65 286.3 217.65 279.1 220.75 271.55 220.85 267.1 228.0 259.5 240.8 259.25 252.8 259.0 262.85 265.1 256.55 274.95 242.7 280.95 233.6 284.85 214.85 289.1" fill="#bfa015" fill-rule="evenodd" stroke="none"/>
    <path d="M344.85 158.1 Q338.65 157.75 338.25 164.4 337.9 170.65 341.85 174.1 348.4 174.35 353.65 171.9 357.1 170.2 361.85 166.1 357.65 169.4 352.25 164.3 L348.3 160.25 Q346.15 158.2 344.85 158.1 M357.85 162.1 Q360.3 162.8 368.55 162.25 375.25 161.85 377.85 164.1 380.45 166.4 381.6 172.35 382.9 178.8 383.85 180.1 387.5 181.8 392.6 181.6 L402.8 181.1 Q405.9 182.85 407.25 187.7 407.85 189.75 408.8 197.1 416.2 202.9 430.4 200.3 437.95 198.95 457.3 192.15 474.85 185.95 483.2 185.2 496.05 184.0 501.8 192.1 499.15 201.0 485.95 205.35 481.6 206.8 473.0 208.7 L458.8 212.1 Q440.0 217.25 435.1 220.3 425.1 226.55 434.8 236.1 431.3 244.6 434.45 256.6 L436.95 265.7 Q438.15 270.7 437.8 274.1 437.1 280.5 431.55 284.35 427.4 287.2 418.75 289.55 408.75 291.95 404.0 293.5 395.85 296.2 391.85 300.1 391.75 303.25 394.3 306.65 396.9 310.1 396.85 313.1 394.9 316.55 390.35 317.25 L381.85 318.1 367.1 322.2 Q358.55 324.5 352.85 324.1 343.85 323.4 329.3 318.3 309.45 311.3 304.85 310.1 294.5 307.4 279.35 307.75 L251.85 309.1 Q258.65 314.55 269.8 320.65 L289.0 330.9 Q312.25 343.7 320.85 358.05 314.45 369.7 299.65 359.6 295.1 356.45 287.8 349.8 279.85 342.55 277.85 341.05 268.3 334.0 259.35 328.5 248.35 321.8 240.85 319.1 235.2 317.05 217.25 312.8 202.2 309.2 193.85 305.1 188.5 302.45 177.8 294.25 167.8 286.6 161.85 284.1 152.8 280.25 134.65 274.5 116.45 268.75 107.85 265.1 102.7 263.4 100.15 261.9 95.45 259.25 95.85 255.1 102.55 255.15 111.15 259.85 L125.85 268.1 Q132.35 271.05 142.3 274.05 L159.85 279.1 Q153.0 265.8 140.35 251.7 133.3 243.85 115.85 227.1 105.0 216.7 92.0 202.3 L68.85 176.1 Q40.05 143.05 35.2 136.85 16.25 112.8 6.85 91.1 1.7 79.15 0.55 72.8 -1.5 61.4 3.85 53.1 25.9 55.0 48.6 72.3 L67.15 87.6 Q78.5 97.2 85.85 102.1 93.65 107.25 106.15 114.3 L126.85 126.1 Q117.9 88.75 121.95 53.85 126.75 12.7 148.85 0.1 159.55 -0.7 166.75 4.2 169.4 6.0 173.1 9.55 L179.85 16.1 188.55 22.8 Q194.0 26.75 195.85 29.1 197.7 31.45 200.0 36.85 202.25 42.1 203.85 44.1 206.0 46.7 210.8 49.9 216.25 53.6 217.85 55.1 224.75 61.65 237.35 75.6 248.85 87.2 259.85 91.1 261.35 96.5 265.65 102.75 L273.75 113.45 Q284.1 126.85 283.85 137.1 283.65 145.25 276.05 157.5 267.4 171.35 265.85 178.1 269.5 176.8 274.95 173.15 L285.35 165.75 Q299.7 155.6 309.85 153.1 L318.2 152.55 327.85 152.1 335.25 150.1 Q339.7 148.75 341.85 149.1 344.75 149.55 348.95 155.1 353.35 160.85 357.85 162.1 M331.15 175.5 Q327.9 169.85 328.85 165.1 316.5 166.2 312.85 175.1 321.85 181.35 332.85 184.1 334.1 180.7 331.15 175.5 M362.9 195.15 Q365.8 193.1 365.85 193.1 364.05 190.55 363.95 183.0 363.8 174.6 362.85 172.1 358.95 172.1 355.45 173.7 354.15 174.35 349.85 177.1 350.4 181.3 354.25 186.7 358.2 192.15 358.85 196.1 361.1 196.35 362.9 195.15 M373.85 170.1 Q371.3 173.1 372.4 178.8 373.0 182.05 374.85 188.1 378.35 188.4 381.6 187.35 L386.85 185.1 Q382.85 183.55 380.35 179.1 378.9 176.5 376.85 170.1 L373.85 170.1 M398.8 189.1 Q398.15 196.5 402.25 200.95 406.5 205.55 412.8 203.1 408.85 201.75 406.6 197.8 404.85 194.65 403.8 189.1 L398.8 189.1 M376.7 191.95 Q370.35 196.25 366.85 198.1 366.25 202.45 367.75 208.2 369.3 214.05 368.85 218.1 374.75 218.05 381.1 216.4 L391.85 213.1 Q390.4 208.95 390.0 200.8 389.85 197.9 389.85 189.1 382.8 188.7 376.7 191.95 M419.8 236.1 L419.8 223.1 Q412.1 217.7 409.55 216.65 402.85 213.95 397.85 218.1 L399.55 229.9 Q400.85 236.3 403.8 239.1 405.7 238.55 412.1 237.9 417.5 237.35 419.8 236.1 M430.8 263.1 Q428.7 260.1 428.55 252.1 428.4 244.2 426.8 242.1 423.75 246.7 424.9 254.2 426.05 262.05 430.8 263.1 M371.4 227.6 Q370.75 225.3 372.85 223.1 370.75 223.25 367.35 224.6 364.05 225.95 361.85 226.1 L366.85 232.25 Q369.6 236.15 368.85 239.1 373.5 238.5 373.85 232.1 L371.4 227.6 M349.55 216.05 Q352.3 219.0 349.85 223.1 355.6 222.95 355.3 216.35 L354.9 210.5 Q354.8 207.05 355.85 205.1 351.75 204.95 348.95 206.7 346.6 208.1 344.85 211.1 345.75 213.1 349.55 216.05 M338.3 235.7 Q334.45 233.45 329.85 236.1 329.75 236.55 330.7 238.95 331.2 240.3 328.85 240.1 332.6 247.95 339.85 250.1 339.75 248.2 341.35 247.55 L344.85 247.1 344.85 243.1 Q344.95 240.9 345.85 240.1 343.9 239.5 341.7 238.05 L338.3 235.7 M332.85 227.1 Q332.95 224.95 333.85 224.1 329.05 219.95 323.4 223.85 318.15 227.5 316.85 234.1 321.9 236.1 332.85 231.1 L332.85 227.1 M359.4 272.3 L356.05 268.35 Q351.9 263.5 345.85 264.1 L345.85 271.1 Q349.75 274.05 353.8 275.35 359.5 277.2 363.85 275.1 361.45 274.4 359.4 272.3 M357.85 285.1 Q359.05 291.85 364.8 296.35 370.5 300.85 376.85 300.1 372.3 296.7 369.85 293.55 366.7 289.4 365.85 284.1 L361.3 284.05 Q358.75 284.15 357.85 285.1 M398.7 279.7 Q394.6 276.85 388.85 278.1 388.2 281.4 391.65 283.75 394.95 286.05 393.85 290.1 393.3 290.9 389.85 291.1 386.85 291.25 386.85 293.1 387.1 293.7 389.0 293.9 390.75 294.1 390.85 295.1 393.6 293.8 398.2 289.45 402.55 285.4 405.8 284.1 403.9 283.6 401.95 282.2 L398.7 279.7 M359.75 316.5 Q357.3 317.5 356.85 318.1 359.8 319.9 362.6 316.6 366.15 312.4 367.85 312.1 364.25 309.7 362.55 308.85 359.35 307.35 355.85 307.1 355.2 310.15 358.1 311.3 361.55 312.7 361.85 314.1 361.7 315.65 359.75 316.5 M165.85 43.1 Q166.15 46.45 169.45 48.75 172.9 51.2 177.85 51.1 L180.85 45.1 Q177.55 38.25 171.45 36.5 165.1 34.65 165.85 43.1 M166.7 28.8 Q166.45 25.8 164.75 23.9 162.85 21.85 159.85 22.1 157.9 24.1 157.85 28.6 157.8 32.0 158.85 36.1 L160.75 36.25 Q161.75 36.4 161.85 37.1 164.4 36.6 165.75 34.05 167.0 31.7 166.7 28.8 M171.8 72.5 Q171.3 73.6 169.85 79.1 174.35 82.45 184.9 89.55 194.8 96.15 199.85 100.1 L203.25 97.5 Q205.0 95.8 204.85 93.1 199.55 93.65 195.55 90.45 192.75 88.2 189.45 82.75 185.05 75.6 183.75 74.0 180.15 69.45 175.85 68.1 173.2 69.15 171.8 72.5 M169.85 73.1 Q173.4 66.95 169.75 60.55 166.3 54.6 159.85 53.1 159.75 54.2 158.45 57.7 157.5 60.4 157.85 63.1 159.55 64.0 163.15 68.8 166.1 72.75 169.85 73.1 M163.55 75.15 Q160.9 69.75 153.85 69.1 154.1 57.75 153.35 54.1 151.85 46.95 145.85 46.1 143.55 52.9 143.65 65.5 143.7 73.7 144.85 86.1 140.1 89.95 132.85 90.1 131.55 89.65 130.8 86.15 130.1 83.0 127.85 83.1 125.75 94.75 128.6 110.1 130.25 118.7 133.85 135.1 135.3 135.95 140.0 137.95 143.9 139.7 145.85 141.1 148.9 140.45 158.25 134.35 166.2 129.15 170.85 130.1 175.1 130.95 178.35 138.3 180.55 143.15 183.45 154.3 186.7 166.85 188.25 170.95 191.2 179.1 194.85 181.1 193.5 177.05 190.45 163.95 187.8 152.55 184.85 145.1 183.35 141.3 179.1 132.95 175.15 125.15 173.8 121.25 169.3 108.35 178.85 102.1 L173.9 94.05 Q170.95 89.25 167.85 87.1 164.85 90.1 164.05 96.8 163.5 101.1 163.85 110.1 161.9 115.35 154.15 118.9 L147.65 121.7 Q143.95 123.35 141.85 125.1 142.05 122.3 139.25 117.45 136.8 113.2 137.85 111.1 139.45 111.25 140.0 113.95 140.6 116.75 141.85 117.1 142.95 112.6 143.95 104.95 L145.65 92.4 Q148.05 77.8 153.85 72.1 149.9 87.6 149.55 90.05 147.95 101.0 151.85 108.1 155.85 106.0 159.5 99.9 163.15 93.8 164.4 87.2 165.8 79.85 163.55 75.15 M200.8 81.85 Q204.1 84.05 207.2 83.55 210.7 83.0 212.85 79.1 210.8 73.75 205.6 69.9 202.05 67.3 194.85 64.1 192.1 51.9 181.85 49.1 177.2 55.9 182.15 61.85 186.45 67.05 193.85 68.1 193.55 72.05 195.65 76.0 197.6 79.7 200.8 81.85 M216.9 91.85 Q218.2 93.15 225.85 98.1 230.35 96.6 231.85 92.1 230.2 91.0 228.25 88.7 L225.0 84.95 Q220.85 80.75 214.85 81.1 212.35 87.15 216.9 91.85 M232.85 105.1 Q235.25 106.0 242.25 110.25 248.5 112.85 250.85 107.1 246.4 102.75 243.7 100.75 239.45 97.55 234.85 96.1 L233.25 100.05 Q232.55 102.45 232.85 105.1 M210.85 128.1 Q205.85 121.4 197.85 119.1 196.5 124.0 192.55 134.5 189.7 144.2 191.85 152.1 197.55 149.2 202.55 141.3 L210.85 128.1 M222.35 140.1 Q217.3 136.7 212.85 136.1 211.85 140.65 208.5 146.9 204.55 153.9 202.8 157.5 196.35 170.65 200.85 182.1 204.75 174.1 215.45 163.25 227.05 151.45 230.85 145.1 228.35 144.2 222.35 140.1 M194.85 113.1 Q192.1 108.6 189.7 106.75 186.15 103.95 180.85 104.1 176.85 109.25 177.15 117.45 177.5 126.4 183.85 128.1 L190.05 121.25 Q193.3 117.2 194.85 113.1 M169.85 134.1 Q168.45 137.8 165.4 141.65 L159.85 148.1 Q161.3 151.3 164.2 154.25 L169.85 159.1 Q173.7 154.55 174.95 147.0 176.35 138.65 172.85 134.1 L169.85 134.1 M229.85 157.1 Q225.85 163.45 219.6 177.85 213.2 189.85 203.85 193.1 202.55 197.8 203.3 205.6 204.15 215.15 203.85 219.1 L211.7 215.65 Q218.0 212.9 222.85 213.1 222.25 212.05 218.85 211.05 215.95 210.25 215.85 208.1 217.0 199.4 220.65 191.6 224.45 183.45 228.85 181.1 L224.65 192.9 Q222.05 199.95 221.85 206.1 227.75 200.1 237.7 184.95 247.35 170.35 253.85 164.1 251.95 169.45 243.95 186.0 237.45 199.5 235.85 207.1 243.55 206.8 247.3 198.95 248.5 196.4 250.1 191.3 L252.85 183.1 257.25 172.25 Q259.45 166.25 259.85 162.1 247.55 163.0 242.55 162.45 234.5 161.6 229.85 157.1 M264.05 120.9 L254.85 115.1 Q253.75 117.25 254.0 120.0 254.15 121.65 254.85 125.1 257.45 125.25 262.35 127.55 266.65 129.6 270.85 129.1 268.9 124.6 264.05 120.9 M309.3 169.0 Q307.05 171.05 306.85 173.1 312.15 170.8 317.6 166.35 L326.85 158.1 318.2 158.65 309.1 159.05 Q299.35 160.35 301.85 169.1 304.5 169.5 307.5 166.55 310.1 164.0 311.85 165.1 311.55 166.9 309.3 169.0 M284.0 171.75 Q280.0 174.5 278.85 179.1 288.15 180.4 293.85 187.1 296.15 186.7 297.95 184.7 L300.85 181.1 Q297.15 180.15 295.2 176.2 294.05 173.85 292.85 168.1 287.05 169.65 284.0 171.75 M292.5 196.35 Q293.7 202.9 296.85 205.1 L306.85 205.1 Q305.35 204.45 301.4 196.5 297.65 188.95 295.85 189.1 291.25 189.4 292.5 196.35 M147.15 16.9 Q143.5 18.15 141.3 20.55 139.0 23.0 139.25 25.7 139.5 28.7 142.85 31.1 153.65 27.6 154.85 16.1 150.95 15.6 147.15 16.9 M129.55 48.45 Q128.1 56.85 128.45 64.05 129.35 83.05 141.85 83.1 140.75 78.45 140.3 70.7 L139.6 57.35 Q138.5 41.45 132.85 36.1 130.85 41.05 129.55 48.45 M54.25 127.2 Q57.2 135.05 62.85 137.1 64.05 117.1 49.85 113.1 51.6 117.55 54.25 127.2 M42.85 112.1 Q41.1 104.7 37.95 100.5 34.2 95.45 27.85 94.1 29.75 97.65 33.05 106.6 36.7 113.5 42.85 112.1 M102.85 153.1 L97.85 149.1 Q94.9 146.65 90.85 147.1 91.8 152.85 93.7 155.75 96.15 159.5 100.85 160.1 100.5 157.9 101.3 156.05 L102.85 153.1 M113.85 163.1 Q114.8 166.0 115.15 173.3 116.0 179.3 119.85 180.1 122.4 179.4 122.8 174.55 123.25 168.2 123.85 167.1 L119.85 164.1 Q117.35 162.55 113.85 163.1 M84.85 180.1 Q84.7 186.75 89.5 188.8 93.8 190.65 99.85 188.1 103.35 184.4 102.6 178.4 101.7 172.0 95.85 172.1 95.8 176.55 92.75 178.5 90.05 180.2 84.85 180.1 M147.85 183.1 L142.35 179.15 Q138.9 177.2 134.85 177.1 135.25 181.75 134.75 192.2 135.1 200.65 139.85 202.1 140.6 197.55 143.35 192.1 L147.85 183.1 M161.4 231.8 L168.85 243.1 175.7 255.05 Q180.05 262.05 184.85 265.1 183.2 260.15 178.1 252.1 171.05 240.95 169.7 238.4 160.5 221.3 167.85 208.1 168.5 209.9 169.05 215.9 169.55 221.05 170.85 223.1 174.7 222.1 175.5 214.75 176.45 205.9 177.85 204.1 168.95 199.35 159.85 196.1 L158.4 209.15 Q157.3 216.3 154.85 220.1 157.0 225.15 161.4 231.8 M152.85 262.1 Q155.1 264.55 159.55 271.6 164.15 277.05 169.85 275.1 L161.7 268.25 Q156.8 264.1 152.85 262.1 M304.85 212.1 Q299.9 214.85 299.5 218.85 299.2 222.4 302.35 225.2 305.45 228.0 309.65 228.0 314.35 227.95 317.85 224.1 315.4 222.9 311.75 217.65 308.5 212.95 304.85 212.1 M314.85 206.1 Q316.45 210.9 318.4 213.05 321.15 216.05 325.85 216.1 322.8 212.35 322.35 205.15 321.95 198.5 323.85 195.1 320.1 198.6 318.85 200.1 316.2 203.05 314.85 206.1 M298.85 216.1 Q295.15 211.55 285.85 201.1 278.25 205.55 275.85 215.1 280.55 214.05 289.05 216.25 296.2 218.15 298.85 216.1 M312.85 239.1 Q310.65 239.2 309.85 240.1 310.45 246.85 315.3 250.9 320.4 255.2 326.85 253.1 322.65 249.95 320.6 247.35 317.65 243.7 316.85 239.1 L312.85 239.1 M260.7 203.8 Q262.6 204.75 265.25 207.45 267.9 210.15 269.35 210.9 L274.85 211.1 Q272.6 210.5 269.1 207.15 L263.2 201.35 Q259.9 198.4 257.9 198.4 255.3 198.45 253.85 203.1 257.7 202.3 260.7 203.8 M270.85 268.1 L270.85 272.1 Q276.15 273.3 280.8 273.15 286.95 272.9 288.85 270.1 286.0 268.5 280.75 268.15 278.25 268.0 270.85 268.1 M282.65 286.8 Q294.2 289.55 300.85 287.1 298.75 282.0 286.45 279.25 273.8 276.45 265.85 280.1 272.4 284.35 282.65 286.8 M258.8 290.4 Q241.65 289.55 228.85 295.1 242.3 295.45 269.05 295.2 291.6 295.65 303.85 300.1 306.8 301.15 311.9 304.95 316.4 307.65 319.85 305.1 315.8 300.9 307.1 298.45 304.05 297.6 290.85 295.1 268.9 290.9 258.8 290.4 M213.5 236.9 Q209.1 233.75 206.95 232.5 199.4 227.95 196.85 235.1 194.35 242.05 200.3 261.75 206.3 281.75 211.85 283.1 214.7 280.15 215.75 275.0 216.75 270.1 215.85 265.1 209.3 265.8 205.95 259.5 202.6 253.15 207.85 249.1 212.1 249.55 215.5 248.25 217.75 247.4 220.85 245.1 221.55 246.65 221.9 252.55 222.2 257.65 223.85 259.1 232.4 258.95 236.8 256.05 240.7 253.45 240.45 249.3 240.25 245.4 236.6 241.75 232.75 237.9 226.85 236.1 224.85 235.95 223.35 238.1 221.8 240.25 219.85 240.1 217.45 239.6 213.5 236.9 M186.85 200.1 L183.85 200.1 Q183.35 223.35 185.1 234.3 187.8 251.2 196.85 258.1 193.8 248.8 191.4 229.55 188.75 207.9 186.85 200.1 M192.85 294.6 Q191.5 295.55 191.85 297.1 195.5 296.95 201.55 298.9 207.2 300.7 211.85 300.1 209.3 297.4 203.6 295.35 L193.85 292.1 Q194.25 293.6 192.85 294.6 M181.7 277.45 Q186.45 281.25 188.85 281.1 187.05 280.35 181.15 275.55 176.45 271.8 173.85 272.1 176.05 272.95 181.7 277.45 M214.85 289.1 Q233.6 284.85 242.7 280.95 256.55 274.95 262.85 265.1 252.8 259.0 240.8 259.25 228.0 259.5 220.85 267.1 220.75 271.55 217.65 279.1 214.65 286.3 214.85 289.1 M224.5 309.45 L236.85 312.1 Q246.1 315.55 256.75 321.95 262.1 325.15 275.4 334.1 299.4 350.35 314.85 355.05 312.05 347.75 301.0 340.75 L279.85 329.1 Q259.95 316.65 249.55 311.6 231.6 302.85 214.85 304.1 216.45 307.65 224.5 309.45" fill="#000000" fill-rule="evenodd" stroke="none"/>
    <path d="M344.85 158.1 Q346.15 158.2 348.3 160.25 L352.25 164.3 Q357.65 169.4 361.85 166.1 357.1 170.2 353.65 171.9 348.4 174.35 341.85 174.1 337.9 170.65 338.25 164.4 338.65 157.75 344.85 158.1 M430.8 263.1 Q426.05 262.05 424.9 254.2 423.75 246.7 426.8 242.1 428.4 244.2 428.55 252.1 428.7 260.1 430.8 263.1 M419.8 236.1 Q417.5 237.35 412.1 237.9 405.7 238.55 403.8 239.1 400.85 236.3 399.55 229.9 L397.85 218.1 Q402.85 213.95 409.55 216.65 412.1 217.7 419.8 223.1 L419.8 236.1 M376.7 191.95 Q382.8 188.7 389.85 189.1 389.85 197.9 390.0 200.8 390.4 208.95 391.85 213.1 L381.1 216.4 Q374.75 218.05 368.85 218.1 369.3 214.05 367.75 208.2 366.25 202.45 366.85 198.1 370.35 196.25 376.7 191.95 M398.8 189.1 L403.8 189.1 Q404.85 194.65 406.6 197.8 408.85 201.75 412.8 203.1 406.5 205.55 402.25 200.95 398.15 196.5 398.8 189.1 M373.85 170.1 L376.85 170.1 Q378.9 176.5 380.35 179.1 382.85 183.55 386.85 185.1 L381.6 187.35 Q378.35 188.4 374.85 188.1 373.0 182.05 372.4 178.8 371.3 173.1 373.85 170.1 M362.9 195.15 Q361.1 196.35 358.85 196.1 358.2 192.15 354.25 186.7 350.4 181.3 349.85 177.1 354.15 174.35 355.45 173.7 358.95 172.1 362.85 172.1 363.8 174.6 363.95 183.0 364.05 190.55 365.85 193.1 365.8 193.1 362.9 195.15 M331.15 175.5 Q334.1 180.7 332.85 184.1 321.85 181.35 312.85 175.1 316.5 166.2 328.85 165.1 327.9 169.85 331.15 175.5 M129.55 48.45 Q130.85 41.05 132.85 36.1 138.5 41.45 139.6 57.35 L140.3 70.7 Q140.75 78.45 141.85 83.1 129.35 83.05 128.45 64.05 128.1 56.85 129.55 48.45 M147.15 16.9 Q150.95 15.6 154.85 16.1 153.65 27.6 142.85 31.1 139.5 28.7 139.25 25.7 139.0 23.0 141.3 20.55 143.5 18.15 147.15 16.9 M292.5 196.35 Q291.25 189.4 295.85 189.1 297.65 188.95 301.4 196.5 305.35 204.45 306.85 205.1 L296.85 205.1 Q293.7 202.9 292.5 196.35 M284.0 171.75 Q287.05 169.65 292.85 168.1 294.05 173.85 295.2 176.2 297.15 180.15 300.85 181.1 L297.95 184.7 Q296.15 186.7 293.85 187.1 288.15 180.4 278.85 179.1 280.0 174.5 284.0 171.75 M309.3 169.0 Q311.55 166.9 311.85 165.1 310.1 164.0 307.5 166.55 304.5 169.5 301.85 169.1 299.35 160.35 309.1 159.05 L318.2 158.65 326.85 158.1 317.6 166.35 Q312.15 170.8 306.85 173.1 307.05 171.05 309.3 169.0 M264.05 120.9 Q268.9 124.6 270.85 129.1 266.65 129.6 262.35 127.55 257.45 125.25 254.85 125.1 254.15 121.65 254.0 120.0 253.75 117.25 254.85 115.1 L264.05 120.9 M229.85 157.1 Q234.5 161.6 242.55 162.45 247.55 163.0 259.85 162.1 259.45 166.25 257.25 172.25 L252.85 183.1 250.1 191.3 Q248.5 196.4 247.3 198.95 243.55 206.8 235.85 207.1 237.45 199.5 243.95 186.0 251.95 169.45 253.85 164.1 247.35 170.35 237.7 184.95 227.75 200.1 221.85 206.1 222.05 199.95 224.65 192.9 L228.85 181.1 Q224.45 183.45 220.65 191.6 217.0 199.4 215.85 208.1 215.95 210.25 218.85 211.05 222.25 212.05 222.85 213.1 218.0 212.9 211.7 215.65 L203.85 219.1 Q204.15 215.15 203.3 205.6 202.55 197.8 203.85 193.1 213.2 189.85 219.6 177.85 225.85 163.45 229.85 157.1 M169.85 134.1 L172.85 134.1 Q176.35 138.65 174.95 147.0 173.7 154.55 169.85 159.1 L164.2 154.25 Q161.3 151.3 159.85 148.1 L165.4 141.65 Q168.45 137.8 169.85 134.1 M194.85 113.1 Q193.3 117.2 190.05 121.25 L183.85 128.1 Q177.5 126.4 177.15 117.45 176.85 109.25 180.85 104.1 186.15 103.95 189.7 106.75 192.1 108.6 194.85 113.1 M222.35 140.1 Q228.35 144.2 230.85 145.1 227.05 151.45 215.45 163.25 204.75 174.1 200.85 182.1 196.35 170.65 202.8 157.5 204.55 153.9 208.5 146.9 211.85 140.65 212.85 136.1 217.3 136.7 222.35 140.1 M210.85 128.1 L202.55 141.3 Q197.55 149.2 191.85 152.1 189.7 144.2 192.55 134.5 196.5 124.0 197.85 119.1 205.85 121.4 210.85 128.1 M232.85 105.1 Q232.55 102.45 233.25 100.05 L234.85 96.1 Q239.45 97.55 243.7 100.75 246.4 102.75 250.85 107.1 248.5 112.85 242.25 110.25 235.25 106.0 232.85 105.1 M216.9 91.85 Q212.35 87.15 214.85 81.1 220.85 80.75 225.0 84.95 L228.25 88.7 Q230.2 91.0 231.85 92.1 230.35 96.6 225.85 98.1 218.2 93.15 216.9 91.85 M200.8 81.85 Q197.6 79.7 195.65 76.0 193.55 72.05 193.85 68.1 186.45 67.05 182.15 61.85 177.2 55.9 181.85 49.1 192.1 51.9 194.85 64.1 202.05 67.3 205.6 69.9 210.8 73.75 212.85 79.1 210.7 83.0 207.2 83.55 204.1 84.05 200.8 81.85 M163.55 75.15 Q165.8 79.85 164.4 87.2 163.15 93.8 159.5 99.9 155.85 106.0 151.85 108.1 147.95 101.0 149.55 90.05 149.9 87.6 153.85 72.1 148.05 77.8 145.65 92.4 L143.95 104.95 Q142.95 112.6 141.85 117.1 140.6 116.75 140.0 113.95 139.45 111.25 137.85 111.1 136.8 113.2 139.25 117.45 142.05 122.3 141.85 125.1 143.95 123.35 147.65 121.7 L154.15 118.9 Q161.9 115.35 163.85 110.1 163.5 101.1 164.05 96.8 164.85 90.1 167.85 87.1 170.95 89.25 173.9 94.05 L178.85 102.1 Q169.3 108.35 173.8 121.25 175.15 125.15 179.1 132.95 183.35 141.3 184.85 145.1 187.8 152.55 190.45 163.95 193.5 177.05 194.85 181.1 191.2 179.1 188.25 170.95 186.7 166.85 183.45 154.3 180.55 143.15 178.35 138.3 175.1 130.95 170.85 130.1 166.2 129.15 158.25 134.35 148.9 140.45 145.85 141.1 143.9 139.7 140.0 137.95 135.3 135.95 133.85 135.1 130.25 118.7 128.6 110.1 125.75 94.75 127.85 83.1 130.1 83.0 130.8 86.15 131.55 89.65 132.85 90.1 140.1 89.95 144.85 86.1 143.7 73.7 143.65 65.5 143.55 52.9 145.85 46.1 151.85 46.95 153.35 54.1 154.1 57.75 153.85 69.1 160.9 69.75 163.55 75.15 M169.85 73.1 Q166.1 72.75 163.15 68.8 159.55 64.0 157.85 63.1 157.5 60.4 158.45 57.7 159.75 54.2 159.85 53.1 166.3 54.6 169.75 60.55 173.4 66.95 169.85 73.1 M171.8 72.5 Q173.2 69.15 175.85 68.1 180.15 69.45 183.75 74.0 185.05 75.6 189.45 82.75 192.75 88.2 195.55 90.45 199.55 93.65 204.85 93.1 205.0 95.8 203.25 97.5 L199.85 100.1 Q194.8 96.15 184.9 89.55 174.35 82.45 169.85 79.1 171.3 73.6 171.8 72.5 M166.7 28.8 Q167.0 31.7 165.75 34.05 164.4 36.6 161.85 37.1 161.75 36.4 160.75 36.25 L158.85 36.1 Q157.8 32.0 157.85 28.6 157.9 24.1 159.85 22.1 162.85 21.85 164.75 23.9 166.45 25.8 166.7 28.8 M165.85 43.1 Q165.1 34.65 171.45 36.5 177.55 38.25 180.85 45.1 L177.85 51.1 Q172.9 51.2 169.45 48.75 166.15 46.45 165.85 43.1 M359.75 316.5 Q361.7 315.65 361.85 314.1 361.55 312.7 358.1 311.3 355.2 310.15 355.85 307.1 359.35 307.35 362.55 308.85 364.25 309.7 367.85 312.1 366.15 312.4 362.6 316.6 359.8 319.9 356.85 318.1 357.3 317.5 359.75 316.5 M398.7 279.7 L401.95 282.2 Q403.9 283.6 405.8 284.1 402.55 285.4 398.2 289.45 393.6 293.8 390.85 295.1 390.75 294.1 389.0 293.9 387.1 293.7 386.85 293.1 386.85 291.25 389.85 291.1 393.3 290.9 393.85 290.1 394.95 286.05 391.65 283.75 388.2 281.4 388.85 278.1 394.6 276.85 398.7 279.7 M357.85 285.1 Q358.75 284.15 361.3 284.05 L365.85 284.1 Q366.7 289.4 369.85 293.55 372.3 296.7 376.85 300.1 370.5 300.85 364.8 296.35 359.05 291.85 357.85 285.1 M359.4 272.3 Q361.45 274.4 363.85 275.1 359.5 277.2 353.8 275.35 349.75 274.05 345.85 271.1 L345.85 264.1 Q351.9 263.5 356.05 268.35 L359.4 272.3 M332.85 227.1 L332.85 231.1 Q321.9 236.1 316.85 234.1 318.15 227.5 323.4 223.85 329.05 219.95 333.85 224.1 332.95 224.95 332.85 227.1 M338.3 235.7 L341.7 238.05 Q343.9 239.5 345.85 240.1 344.95 240.9 344.85 243.1 L344.85 247.1 341.35 247.55 Q339.75 248.2 339.85 250.1 332.6 247.95 328.85 240.1 331.2 240.3 330.7 238.95 329.75 236.55 329.85 236.1 334.45 233.45 338.3 235.7 M260.7 203.8 Q257.7 202.3 253.85 203.1 255.3 198.45 257.9 198.4 259.9 198.4 263.2 201.35 L269.1 207.15 Q272.6 210.5 274.85 211.1 L269.35 210.9 Q267.9 210.15 265.25 207.45 262.6 204.75 260.7 203.8 M312.85 239.1 L316.85 239.1 Q317.65 243.7 320.6 247.35 322.65 249.95 326.85 253.1 320.4 255.2 315.3 250.9 310.45 246.85 309.85 240.1 310.65 239.2 312.85 239.1 M298.85 216.1 Q296.2 218.15 289.05 216.25 280.55 214.05 275.85 215.1 278.25 205.55 285.85 201.1 295.15 211.55 298.85 216.1 M314.85 206.1 Q316.2 203.05 318.85 200.1 320.1 198.6 323.85 195.1 321.95 198.5 322.35 205.15 322.8 212.35 325.85 216.1 321.15 216.05 318.4 213.05 316.45 210.9 314.85 206.1 M304.85 212.1 Q308.5 212.95 311.75 217.65 315.4 222.9 317.85 224.1 314.35 227.95 309.65 228.0 305.45 228.0 302.35 225.2 299.2 222.4 299.5 218.85 299.9 214.85 304.85 212.1 M181.7 277.45 Q176.05 272.95 173.85 272.1 176.45 271.8 181.15 275.55 187.05 280.35 188.85 281.1 186.45 281.25 181.7 277.45 M192.85 294.6 Q194.25 293.6 193.85 292.1 L203.6 295.35 Q209.3 297.4 211.85 300.1 207.2 300.7 201.55 298.9 195.5 296.95 191.85 297.1 191.5 295.55 192.85 294.6 M224.5 309.45 Q216.45 307.65 214.85 304.1 231.6 302.85 249.55 311.6 259.95 316.65 279.85 329.1 L301.0 340.75 Q312.05 347.75 314.85 355.05 299.4 350.35 275.4 334.1 262.1 325.15 256.75 321.95 246.1 315.55 236.85 312.1 L224.5 309.45" fill="#f0d971" fill-rule="evenodd" stroke="none"/>
    <path d="M349.55 216.05 Q345.75 213.1 344.85 211.1 346.6 208.1 348.95 206.7 351.75 204.95 355.85 205.1 354.8 207.05 354.9 210.5 L355.3 216.35 Q355.6 222.95 349.85 223.1 352.3 219.0 349.55 216.05 M371.4 227.6 L373.85 232.1 Q373.5 238.5 368.85 239.1 369.6 236.15 366.85 232.25 L361.85 226.1 Q364.05 225.95 367.35 224.6 370.75 223.25 372.85 223.1 370.75 225.3 371.4 227.6" fill="#28a7e3" fill-rule="evenodd" stroke="none"/>
  </g>
</svg>
