<?xml version="1.0" encoding="UTF-8" standalone="no"?>
<svg xmlns:xlink="http://www.w3.org/1999/xlink" height="374.1px" width="488.1px" xmlns="http://www.w3.org/2000/svg">
  <g transform="matrix(1.0, 0.0, 0.0, 1.0, 0.05, 0.0)">
    <path d="M355.45 165.65 Q361.75 164.75 365.1 170.05 365.65 171.35 367.0 178.15 368.0 183.3 370.1 185.05 373.05 186.6 379.7 185.65 386.4 184.7 389.05 186.05 391.3 188.15 392.35 191.7 L393.75 197.85 Q395.4 205.05 402.05 206.05 410.25 207.3 424.05 203.05 432.05 200.6 448.6 194.4 463.15 189.3 471.4 189.0 482.55 188.65 488.05 196.05 485.1 204.7 474.05 208.1 L463.5 210.55 Q455.7 212.05 452.05 213.05 440.25 216.3 431.55 219.75 417.2 225.45 416.05 230.05 415.35 233.15 417.25 235.95 419.75 239.6 420.05 241.05 421.35 247.2 421.5 262.25 421.65 277.6 423.05 285.05 418.55 291.35 405.35 295.85 L394.7 299.4 Q388.7 301.6 385.1 304.05 385.0 306.55 386.65 309.95 388.3 313.2 388.05 316.05 382.7 319.95 374.15 323.3 366.25 326.4 358.1 328.05 348.55 329.95 337.8 328.35 330.1 327.2 318.4 323.45 L298.85 317.4 Q287.45 314.35 278.1 314.05 L258.7 314.95 238.1 317.05 Q245.2 322.05 256.85 328.5 L276.3 339.3 Q299.25 352.65 309.1 367.0 308.4 368.45 306.1 370.5 303.8 372.5 303.1 374.0 296.05 374.75 289.35 369.5 L279.1 360.0 Q268.85 351.5 257.2 344.15 244.4 336.15 232.1 331.05 227.15 328.95 218.0 326.9 207.6 324.6 203.1 323.05 192.25 319.3 173.8 308.2 153.5 296.0 144.1 292.05 135.7 288.5 119.55 282.5 103.0 276.35 95.1 273.05 90.35 271.65 87.9 270.35 83.5 268.05 84.1 264.05 90.5 264.7 99.55 269.3 L115.1 277.05 Q125.0 281.05 131.5 283.25 140.85 286.45 149.1 288.05 135.2 264.25 105.45 230.2 L81.25 202.6 Q67.4 186.55 58.1 174.05 33.45 140.8 25.35 128.15 8.05 101.05 2.1 79.05 -0.3 70.2 0.0 60.3 0.4 48.5 5.1 46.05 10.9 43.1 22.15 48.8 28.75 52.1 38.1 59.05 L52.85 69.45 Q61.8 75.65 66.1 79.05 69.45 81.7 74.2 87.7 78.75 93.4 81.1 95.05 84.6 97.55 95.15 102.05 104.05 105.9 108.1 110.05 101.8 76.4 106.65 46.2 112.1 12.05 130.1 0.05 141.05 -0.4 148.1 3.55 151.7 5.6 162.1 15.05 171.45 23.55 185.7 41.65 200.9 61.0 209.1 69.05 213.75 73.65 224.35 80.05 235.45 86.85 240.1 91.05 247.7 98.0 256.3 113.25 266.6 131.6 270.1 136.05 267.85 146.5 261.25 160.7 253.1 178.2 251.1 184.05 256.0 182.35 269.9 171.65 283.2 161.45 292.1 159.05 L299.95 158.55 309.1 158.05 Q311.35 157.6 318.6 154.75 324.15 152.55 327.1 153.05 330.25 153.55 334.65 159.35 339.2 165.3 342.1 166.05 345.5 167.0 349.4 166.6 L355.45 165.65 M332.85 165.5 Q328.95 162.5 327.15 162.4 324.5 162.25 323.1 167.05 321.45 172.6 324.1 175.55 326.4 178.1 331.25 178.05 335.8 178.0 340.35 175.8 345.1 173.5 347.1 170.05 343.75 172.0 339.65 170.1 337.55 169.15 332.85 165.5 M335.1 181.05 Q336.5 186.6 339.7 191.95 341.85 195.65 346.1 201.05 347.5 201.15 348.8 200.25 350.4 199.2 351.1 199.05 351.0 196.5 349.65 189.0 348.55 182.95 349.1 178.05 345.8 176.1 341.55 177.8 337.0 180.3 335.1 181.05 M359.1 174.05 Q356.3 177.35 357.5 183.4 358.15 186.75 360.1 193.05 362.85 193.5 365.85 192.3 369.15 191.0 371.1 191.05 L365.75 183.4 Q362.75 178.75 362.1 174.05 L359.1 174.05 M384.1 194.05 Q383.75 201.55 387.9 205.95 392.35 210.7 399.05 208.05 394.2 206.75 391.95 203.65 389.4 200.15 390.05 194.05 L384.1 194.05 M406.05 229.05 Q402.4 224.2 395.7 221.95 387.9 219.35 383.1 224.05 383.1 228.75 386.15 235.45 389.2 242.0 389.05 247.05 393.1 246.05 397.8 244.3 L406.05 241.05 406.05 229.05 M375.25 206.2 L375.1 194.05 Q360.0 193.75 354.8 202.95 350.05 211.4 355.1 224.05 369.15 221.95 378.1 218.05 375.8 214.6 375.25 206.2 M330.1 218.05 Q338.8 222.0 336.1 229.05 341.25 229.35 341.3 222.25 340.5 213.45 341.1 210.05 332.3 211.25 330.1 218.05 M357.1 229.05 L352.75 230.7 Q350.15 231.7 348.1 232.05 L352.4 237.75 Q355.0 241.15 355.1 245.05 358.1 245.5 359.1 243.05 L360.1 238.05 Q357.45 236.25 357.05 233.55 L357.1 229.05 M339.1 272.05 Q341.7 274.65 347.1 275.8 352.95 277.0 357.1 275.05 354.65 274.4 352.65 272.25 L349.5 268.15 Q345.5 263.1 339.1 264.05 L339.1 272.05 M359.1 285.05 Q352.65 285.15 351.6 288.4 350.7 291.2 353.8 295.25 356.7 299.05 360.85 301.2 365.4 303.55 368.1 302.05 363.85 297.65 361.95 295.15 358.65 290.85 359.1 285.05 M378.0 293.7 Q379.8 298.05 378.1 302.05 381.5 301.8 384.85 297.3 388.05 293.0 392.05 293.05 391.55 291.3 388.3 289.3 385.3 287.5 385.1 285.05 L379.5 284.95 Q376.2 284.95 375.1 286.05 375.25 287.1 378.0 293.7 M164.9 52.6 Q162.6 54.6 163.1 62.05 165.1 64.5 169.6 66.6 L177.1 70.05 Q177.4 73.55 179.6 77.65 181.8 81.75 184.75 84.2 192.2 90.4 196.1 81.05 194.15 75.75 189.2 72.45 185.0 69.65 178.1 68.05 178.25 64.55 175.75 60.05 173.35 55.75 170.25 53.45 166.9 50.9 164.9 52.6 M175.25 97.4 Q179.3 102.25 185.1 103.05 L187.85 100.3 Q189.1 98.5 189.1 96.05 188.25 96.05 186.35 96.85 L183.1 97.05 Q176.55 86.3 164.1 78.05 164.65 74.15 162.7 72.45 160.95 70.95 157.1 71.05 156.95 72.75 155.05 76.95 153.5 80.4 154.1 84.05 L160.95 88.75 Q165.05 90.8 169.1 88.05 L175.25 97.4 M200.6 94.35 Q203.05 97.1 209.1 101.05 213.8 99.6 214.4 96.6 214.9 93.95 212.3 90.7 209.95 87.75 206.1 85.5 202.25 83.25 199.1 83.05 196.25 89.45 200.6 94.35 M238.5 123.25 Q239.15 126.8 239.1 128.05 L246.35 131.3 Q250.7 132.95 255.1 133.05 253.65 128.0 248.7 124.45 L239.1 119.05 Q238.05 121.0 238.5 123.25 M235.1 110.05 L227.85 103.8 Q223.5 100.3 219.1 99.05 216.5 103.1 217.1 108.05 221.5 111.9 226.3 113.5 233.25 115.8 235.1 110.05 M165.1 108.05 Q161.55 113.9 162.1 122.45 162.65 132.05 169.1 133.05 169.9 131.7 174.55 126.0 177.95 121.75 179.1 118.05 177.4 113.1 174.45 110.7 170.9 107.85 165.1 108.05 M177.65 139.3 Q174.85 149.25 177.1 157.05 183.15 154.4 187.95 145.9 L191.8 138.75 Q194.1 134.55 196.1 132.05 L189.8 126.85 Q186.0 123.9 182.1 123.05 181.65 126.4 180.2 131.2 L177.65 139.3 M190.1 180.05 Q194.5 175.15 203.95 165.9 212.1 157.4 216.1 150.05 212.85 148.65 207.55 145.1 202.1 141.4 199.1 140.05 191.1 154.5 185.1 171.05 L187.9 175.25 Q189.45 177.75 190.1 180.05 M163.65 165.0 Q160.35 162.7 158.1 162.05 158.9 165.5 162.2 167.7 165.85 170.1 169.1 168.05 167.0 167.4 163.65 165.0 M174.1 162.05 Q173.2 156.35 168.85 147.7 163.65 137.95 161.4 133.1 157.6 124.8 157.55 119.0 157.5 111.65 163.1 106.05 162.3 105.05 157.85 97.3 154.8 91.9 151.1 90.05 147.15 99.5 148.1 116.05 145.65 118.25 138.95 122.4 132.8 126.2 130.1 129.05 134.4 134.4 141.5 135.95 148.45 137.4 157.1 135.05 159.65 137.25 161.55 141.6 L164.5 149.65 Q168.15 159.9 174.1 162.05 M190.45 228.6 L192.1 228.4 196.1 229.05 Q198.45 225.0 200.5 218.2 202.7 210.2 203.85 206.3 208.1 191.8 215.1 187.05 209.45 198.35 208.1 212.05 209.2 213.5 211.7 213.95 213.75 214.3 217.1 214.05 214.25 202.45 223.45 189.9 225.4 187.2 231.7 179.8 236.75 173.95 238.95 170.3 236.3 175.0 231.75 186.7 227.45 197.95 224.1 203.05 226.6 202.35 231.0 204.4 234.65 206.1 237.1 204.05 233.8 204.3 234.1 201.05 235.15 196.7 240.2 184.65 244.35 174.8 245.1 167.05 238.85 167.7 229.6 166.2 L214.1 163.05 203.9 184.85 Q197.6 196.75 190.1 203.05 L193.45 214.15 193.05 217.05 189.45 229.65 189.75 229.15 189.75 229.2 190.45 228.6 M280.1 192.05 Q284.05 190.8 286.1 186.05 282.35 185.25 280.45 181.2 279.9 179.9 278.1 173.05 272.0 174.65 268.95 176.9 264.85 179.9 264.1 185.05 269.0 184.9 273.25 187.4 L280.1 192.05 M304.2 172.7 Q299.6 175.4 298.1 180.05 301.05 181.65 308.1 185.8 314.5 188.95 319.1 188.05 319.5 186.15 318.45 184.05 L316.15 180.15 Q312.8 174.65 314.1 169.05 307.65 170.6 304.2 172.7 M286.1 173.05 L287.35 173.25 Q288.05 173.45 288.1 174.05 290.7 174.35 292.55 171.5 294.4 168.7 297.1 169.05 297.15 171.55 294.8 173.75 292.3 176.05 292.1 178.05 298.25 175.25 303.65 170.9 309.65 166.05 311.1 162.05 307.9 163.8 303.0 163.9 L295.0 163.75 Q290.8 163.85 288.85 165.5 286.3 167.6 286.1 173.05 M279.2 197.15 Q277.95 198.7 277.1 202.05 L280.2 206.4 Q282.15 209.05 283.1 211.05 L292.1 211.05 Q291.65 208.0 287.55 203.6 283.85 199.65 284.1 195.05 280.9 195.05 279.2 197.15 M123.75 21.9 Q121.65 24.75 122.3 27.45 123.05 30.5 127.1 32.05 131.9 29.6 134.2 26.65 137.15 22.85 137.1 17.05 133.25 16.1 129.35 17.65 125.8 19.05 123.75 21.9 M149.6 29.15 Q148.3 22.65 142.1 23.05 140.5 30.45 140.6 32.6 140.8 37.9 146.1 38.05 148.3 36.9 149.25 34.3 150.15 31.8 149.6 29.15 M149.1 45.05 Q149.45 48.45 152.65 50.7 156.0 53.1 161.1 53.05 163.85 49.15 162.3 44.85 161.0 41.15 157.45 39.05 153.9 36.9 151.4 38.2 148.55 39.7 149.1 45.05 M115.1 38.05 Q105.75 85.25 126.1 86.05 L123.4 60.75 Q121.75 45.75 118.1 38.05 L115.1 38.05 M112.1 87.05 Q110.1 100.7 112.2 110.25 114.85 122.7 124.1 124.05 124.35 122.1 122.95 119.7 121.65 117.45 122.1 115.05 123.7 115.15 124.35 118.35 124.9 121.3 127.1 121.05 126.8 112.6 128.85 102.65 129.45 99.85 133.2 85.7 135.9 75.55 136.5 68.9 137.35 59.55 135.1 51.05 L132.15 49.5 Q130.35 48.7 128.1 49.05 126.9 59.65 127.0 69.6 127.1 81.4 129.1 89.05 126.95 92.1 123.25 93.1 119.65 94.1 115.1 93.05 115.1 89.95 114.75 88.9 114.15 87.0 112.1 87.05 M142.05 59.45 Q141.0 62.15 141.1 65.05 142.4 65.95 146.8 71.35 150.1 75.4 154.1 76.05 154.0 73.65 154.85 70.8 L156.1 66.05 Q153.65 65.1 150.55 60.1 147.75 55.55 144.1 55.05 L142.05 59.45 M146.0 75.2 Q143.15 71.65 138.1 72.05 134.6 81.15 133.9 92.4 132.95 106.4 138.1 112.05 143.15 108.85 145.65 98.6 L147.55 90.0 Q148.7 85.0 150.1 82.05 147.6 77.25 146.0 75.2 M26.1 90.05 Q28.75 98.2 30.3 101.4 33.1 107.25 37.1 110.05 37.4 109.4 39.3 109.2 41.0 109.05 41.1 108.05 38.9 101.25 36.65 97.55 33.6 92.4 29.1 90.05 L26.1 90.05 M58.1 117.05 L52.75 112.9 Q49.55 110.15 47.1 109.05 48.95 113.55 50.85 124.3 53.25 133.25 59.1 135.05 59.2 132.15 58.4 126.25 57.7 120.9 58.1 117.05 M86.1 146.05 Q87.55 148.65 89.4 154.75 91.7 159.5 97.1 159.05 99.35 152.75 95.5 148.4 91.75 144.05 86.1 146.05 M118.1 164.05 Q116.2 162.8 114.35 162.3 L109.1 162.05 Q109.75 163.75 109.85 167.0 L110.0 172.65 Q110.35 179.3 114.1 180.05 116.95 178.4 118.0 172.75 118.9 167.95 118.1 164.05 M97.1 180.2 Q97.55 174.8 91.1 172.05 87.7 181.3 78.1 182.05 78.55 190.0 83.3 191.3 87.35 192.45 92.05 188.7 96.75 184.9 97.1 180.2 M137.15 178.5 Q133.6 176.3 130.1 176.05 130.4 180.85 128.45 191.75 127.65 200.8 133.1 203.05 135.0 198.5 137.95 192.4 L143.1 182.05 137.15 178.5 M161.1 209.05 Q162.05 210.55 162.05 218.1 162.05 224.35 165.1 225.05 167.95 221.55 169.4 215.35 170.45 210.9 171.1 203.05 167.5 202.5 162.15 199.5 156.8 196.55 153.1 196.05 154.85 202.15 151.15 210.3 L148.35 216.65 Q147.0 220.2 147.1 223.05 147.25 227.45 152.25 235.65 L160.1 248.05 Q162.6 252.5 166.7 261.3 170.5 268.4 175.1 271.05 173.75 266.1 168.9 257.35 162.6 245.9 161.0 242.35 152.5 223.4 161.1 209.05 M140.2 269.7 Q143.4 275.05 146.2 278.2 153.95 287.1 164.1 286.05 157.15 282.3 148.9 274.25 L135.1 261.05 140.2 269.7 M151.1 262.05 Q153.1 266.25 157.65 269.95 160.35 272.15 166.1 276.05 163.8 272.75 158.9 268.75 L151.1 262.05 M309.1 201.05 L304.15 206.1 Q301.25 209.15 300.1 212.05 302.05 216.75 304.95 219.6 308.95 223.55 312.1 220.05 307.6 218.3 307.6 210.8 307.6 205.9 309.1 201.05 M311.1 237.05 Q304.4 236.45 304.1 242.05 306.65 248.25 309.7 250.9 313.95 254.65 321.1 254.05 L315.05 246.55 Q311.65 242.0 311.1 237.05 M269.2 209.65 Q269.15 212.8 268.1 213.05 265.05 212.9 262.35 209.8 259.45 206.45 257.1 206.05 257.65 210.05 261.4 212.2 263.0 213.1 269.1 215.05 269.95 212.55 271.4 212.5 L276.1 213.05 Q274.65 208.2 271.1 207.05 269.2 206.8 269.2 209.65 M281.1 273.05 Q278.85 271.05 272.7 270.95 265.4 271.25 262.1 271.05 L262.1 275.05 Q266.4 276.55 272.5 276.15 279.3 275.75 281.1 273.05 M265.85 282.15 Q259.75 283.0 257.1 286.05 L273.3 290.85 Q282.95 293.2 292.1 293.05 292.6 289.5 288.25 286.55 284.3 283.9 277.9 282.6 L265.85 282.15 M212.1 243.05 Q209.95 242.1 207.15 239.8 204.1 237.15 202.5 235.95 196.75 231.6 191.1 233.05 188.35 250.35 190.15 265.1 192.45 284.25 202.1 289.05 204.9 285.85 206.0 280.4 207.05 275.2 206.1 270.05 199.9 269.85 197.2 264.2 194.5 258.55 198.1 253.05 208.05 252.6 213.1 248.05 212.65 258.25 215.1 263.05 223.25 262.85 228.0 259.7 232.3 256.8 232.75 252.35 233.2 248.05 229.95 244.1 226.45 239.95 220.1 238.05 217.95 238.05 216.1 240.55 214.25 243.05 212.1 243.05 M179.1 200.05 Q176.0 219.45 176.95 235.3 178.25 256.7 187.1 263.05 185.45 250.45 184.1 233.3 182.7 215.75 182.1 200.05 L179.1 200.05 M204.1 296.05 Q222.4 292.35 234.6 286.25 249.6 278.75 254.1 268.05 246.65 261.25 233.2 262.6 220.95 263.8 213.1 270.05 L208.3 282.75 Q205.25 290.45 204.1 296.05 M212.15 315.6 Q212.25 314.25 213.1 314.05 214.4 314.3 215.2 316.45 215.95 318.7 217.1 319.05 229.1 321.7 240.8 328.1 248.2 332.2 260.55 341.05 273.75 350.5 280.1 354.25 291.65 361.0 303.1 364.0 300.7 357.6 292.85 352.5 283.05 347.15 278.1 344.0 253.2 328.25 243.25 323.45 221.6 312.95 203.1 313.05 203.6 315.35 206.8 316.35 L212.1 318.05 212.15 315.6 M242.45 300.85 Q256.25 300.1 267.1 301.05 276.9 301.9 291.15 306.0 306.55 310.4 311.1 311.05 308.35 305.25 298.9 303.3 L281.1 301.05 264.1 298.15 247.8 296.35 Q229.9 295.55 218.1 303.05 L242.45 300.85 M200.1 309.05 Q195.45 304.6 189.45 302.45 181.45 299.6 180.1 306.05 184.0 305.65 190.25 307.7 196.25 309.7 200.1 309.05" fill="#000000" fill-rule="evenodd" stroke="none"/>
    <path d="M375.25 206.2 Q375.8 214.6 378.1 218.05 369.15 221.95 355.1 224.05 350.05 211.4 354.8 202.95 360.0 193.75 375.1 194.05 L375.25 206.2 M406.05 229.05 L406.05 241.05 397.8 244.3 Q393.1 246.05 389.05 247.05 389.2 242.0 386.15 235.45 383.1 228.75 383.1 224.05 387.9 219.35 395.7 221.95 402.4 224.2 406.05 229.05 M384.1 194.05 L390.05 194.05 Q389.4 200.15 391.95 203.65 394.2 206.75 399.05 208.05 392.35 210.7 387.9 205.95 383.75 201.55 384.1 194.05 M359.1 174.05 L362.1 174.05 Q362.75 178.75 365.75 183.4 L371.1 191.05 Q369.15 191.0 365.85 192.3 362.85 193.5 360.1 193.05 358.15 186.75 357.5 183.4 356.3 177.35 359.1 174.05 M335.1 181.05 Q337.0 180.3 341.55 177.8 345.8 176.1 349.1 178.05 348.55 182.95 349.65 189.0 351.0 196.5 351.1 199.05 350.4 199.2 348.8 200.25 347.5 201.15 346.1 201.05 341.85 195.65 339.7 191.95 336.5 186.6 335.1 181.05 M332.85 165.5 Q337.55 169.15 339.65 170.1 343.75 172.0 347.1 170.05 345.1 173.5 340.35 175.8 335.8 178.0 331.25 178.05 326.4 178.1 324.1 175.55 321.45 172.6 323.1 167.05 324.5 162.25 327.15 162.4 328.95 162.5 332.85 165.5 M193.45 214.15 L190.1 203.05 Q197.6 196.75 203.9 184.85 L214.1 163.05 229.6 166.2 Q238.85 167.7 245.1 167.05 244.35 174.8 240.2 184.65 235.15 196.7 234.1 201.05 233.8 204.3 237.1 204.05 234.65 206.1 231.0 204.4 226.6 202.35 224.1 203.05 227.45 197.95 231.75 186.7 236.3 175.0 238.95 170.3 236.75 173.95 231.7 179.8 225.4 187.2 223.45 189.9 214.25 202.45 217.1 214.05 213.75 214.3 211.7 213.95 209.2 213.5 208.1 212.05 209.45 198.35 215.1 187.05 208.1 191.8 203.85 206.3 202.7 210.2 200.5 218.2 198.45 225.0 196.1 229.05 L192.1 228.4 190.45 228.6 189.75 229.15 189.45 229.65 193.05 217.05 193.15 216.45 193.45 214.15 M174.1 162.05 Q168.15 159.9 164.5 149.65 L161.55 141.6 Q159.65 137.25 157.1 135.05 148.45 137.4 141.5 135.95 134.4 134.4 130.1 129.05 132.8 126.2 138.95 122.4 145.65 118.25 148.1 116.05 147.15 99.5 151.1 90.05 154.8 91.9 157.85 97.3 162.3 105.05 163.1 106.05 157.5 111.65 157.55 119.0 157.6 124.8 161.4 133.1 163.65 137.95 168.85 147.7 173.2 156.35 174.1 162.05 M163.65 165.0 Q167.0 167.4 169.1 168.05 165.85 170.1 162.2 167.7 158.9 165.5 158.1 162.05 160.35 162.7 163.65 165.0 M190.1 180.05 Q189.45 177.75 187.9 175.25 L185.1 171.05 Q191.1 154.5 199.1 140.05 202.1 141.4 207.55 145.1 212.85 148.65 216.1 150.05 212.1 157.4 203.95 165.9 194.5 175.15 190.1 180.05 M177.65 139.3 L180.2 131.2 Q181.65 126.4 182.1 123.05 186.0 123.9 189.8 126.85 L196.1 132.05 Q194.1 134.55 191.8 138.75 L187.95 145.9 Q183.15 154.4 177.1 157.05 174.85 149.25 177.65 139.3 M165.1 108.05 Q170.9 107.85 174.45 110.7 177.4 113.1 179.1 118.05 177.95 121.75 174.55 126.0 169.9 131.7 169.1 133.05 162.65 132.05 162.1 122.45 161.55 113.9 165.1 108.05 M235.1 110.05 Q233.25 115.8 226.3 113.5 221.5 111.9 217.1 108.05 216.5 103.1 219.1 99.05 223.5 100.3 227.85 103.8 L235.1 110.05 M238.5 123.25 Q238.05 121.0 239.1 119.05 L248.7 124.45 Q253.65 128.0 255.1 133.05 250.7 132.95 246.35 131.3 L239.1 128.05 Q239.15 126.8 238.5 123.25 M200.6 94.35 Q196.25 89.45 199.1 83.05 202.25 83.25 206.1 85.5 209.95 87.75 212.3 90.7 214.9 93.95 214.4 96.6 213.8 99.6 209.1 101.05 203.05 97.1 200.6 94.35 M175.25 97.4 L169.1 88.05 Q165.05 90.8 160.95 88.75 L154.1 84.05 Q153.5 80.4 155.05 76.95 156.95 72.75 157.1 71.05 160.95 70.95 162.7 72.45 164.65 74.15 164.1 78.05 176.55 86.3 183.1 97.05 L186.35 96.85 Q188.25 96.05 189.1 96.05 189.1 98.5 187.85 100.3 L185.1 103.05 Q179.3 102.25 175.25 97.4 M164.9 52.6 Q166.9 50.9 170.25 53.45 173.35 55.75 175.75 60.05 178.25 64.55 178.1 68.05 185.0 69.65 189.2 72.45 194.15 75.75 196.1 81.05 192.2 90.4 184.75 84.2 181.8 81.75 179.6 77.65 177.4 73.55 177.1 70.05 L169.6 66.6 Q165.1 64.5 163.1 62.05 162.6 54.6 164.9 52.6 M378.0 293.7 Q375.25 287.1 375.1 286.05 376.2 284.95 379.5 284.95 L385.1 285.05 Q385.3 287.5 388.3 289.3 391.55 291.3 392.05 293.05 388.05 293.0 384.85 297.3 381.5 301.8 378.1 302.05 379.8 298.05 378.0 293.7 M359.1 285.05 Q358.65 290.85 361.95 295.15 363.85 297.65 368.1 302.05 365.4 303.55 360.85 301.2 356.7 299.05 353.8 295.25 350.7 291.2 351.6 288.4 352.65 285.15 359.1 285.05 M339.1 272.05 L339.1 264.05 Q345.5 263.1 349.5 268.15 L352.65 272.25 Q354.65 274.4 357.1 275.05 352.95 277.0 347.1 275.8 341.7 274.65 339.1 272.05 M146.0 75.2 Q147.6 77.25 150.1 82.05 148.7 85.0 147.55 90.0 L145.65 98.6 Q143.15 108.85 138.1 112.05 132.95 106.4 133.9 92.4 134.6 81.15 138.1 72.05 143.15 71.65 146.0 75.2 M142.05 59.45 L144.1 55.05 Q147.75 55.55 150.55 60.1 153.65 65.1 156.1 66.05 L154.85 70.8 Q154.0 73.65 154.1 76.05 150.1 75.4 146.8 71.35 142.4 65.95 141.1 65.05 141.0 62.15 142.05 59.45 M112.1 87.05 Q114.15 87.0 114.75 88.9 115.1 89.95 115.1 93.05 119.65 94.1 123.25 93.1 126.95 92.1 129.1 89.05 127.1 81.4 127.0 69.6 126.9 59.65 128.1 49.05 130.35 48.7 132.15 49.5 L135.1 51.05 Q137.35 59.55 136.5 68.9 135.9 75.55 133.2 85.7 129.45 99.85 128.85 102.65 126.8 112.6 127.1 121.05 124.9 121.3 124.35 118.35 123.7 115.15 122.1 115.05 121.65 117.45 122.95 119.7 124.35 122.1 124.1 124.05 114.85 122.7 112.2 110.25 110.1 100.7 112.1 87.05 M115.1 38.05 L118.1 38.05 Q121.75 45.75 123.4 60.75 L126.1 86.05 Q105.75 85.25 115.1 38.05 M149.1 45.05 Q148.55 39.7 151.4 38.2 153.9 36.9 157.45 39.05 161.0 41.15 162.3 44.85 163.85 49.15 161.1 53.05 156.0 53.1 152.65 50.7 149.45 48.45 149.1 45.05 M149.6 29.15 Q150.15 31.8 149.25 34.3 148.3 36.9 146.1 38.05 140.8 37.9 140.6 32.6 140.5 30.45 142.1 23.05 148.3 22.65 149.6 29.15 M123.75 21.9 Q125.8 19.05 129.35 17.65 133.25 16.1 137.1 17.05 137.15 22.85 134.2 26.65 131.9 29.6 127.1 32.05 123.05 30.5 122.3 27.45 121.65 24.75 123.75 21.9 M279.2 197.15 Q280.9 195.05 284.1 195.05 283.85 199.65 287.55 203.6 291.65 208.0 292.1 211.05 L283.1 211.05 Q282.15 209.05 280.2 206.4 L277.1 202.05 Q277.95 198.7 279.2 197.15 M286.1 173.05 Q286.3 167.6 288.85 165.5 290.8 163.85 295.0 163.75 L303.0 163.9 Q307.9 163.8 311.1 162.05 309.65 166.05 303.65 170.9 298.25 175.25 292.1 178.05 292.3 176.05 294.8 173.75 297.15 171.55 297.1 169.05 294.4 168.7 292.55 171.5 290.7 174.35 288.1 174.05 288.05 173.45 287.35 173.25 L286.1 173.05 M304.2 172.7 Q307.65 170.6 314.1 169.05 312.8 174.65 316.15 180.15 L318.45 184.05 Q319.5 186.15 319.1 188.05 314.5 188.95 308.1 185.8 301.05 181.65 298.1 180.05 299.6 175.4 304.2 172.7 M280.1 192.05 L273.25 187.4 Q269.0 184.9 264.1 185.05 264.85 179.9 268.95 176.9 272.0 174.65 278.1 173.05 279.9 179.9 280.45 181.2 282.35 185.25 286.1 186.05 284.05 190.8 280.1 192.05 M269.2 209.65 Q269.2 206.8 271.1 207.05 274.65 208.2 276.1 213.05 L271.4 212.5 Q269.95 212.55 269.1 215.05 263.0 213.1 261.4 212.2 257.65 210.05 257.1 206.05 259.45 206.45 262.35 209.8 265.05 212.9 268.1 213.05 269.15 212.8 269.2 209.65 M311.1 237.05 Q311.65 242.0 315.05 246.55 L321.1 254.05 Q313.95 254.65 309.7 250.9 306.65 248.25 304.1 242.05 304.4 236.45 311.1 237.05 M309.1 201.05 Q307.6 205.9 307.6 210.8 307.6 218.3 312.1 220.05 308.95 223.55 304.95 219.6 302.05 216.75 300.1 212.05 301.25 209.15 304.15 206.1 L309.1 201.05 M212.15 315.6 L212.1 318.05 206.8 316.35 Q203.6 315.35 203.1 313.05 221.6 312.95 243.25 323.45 253.2 328.25 278.1 344.0 283.05 347.15 292.85 352.5 300.7 357.6 303.1 364.0 291.65 361.0 280.1 354.25 273.75 350.5 260.55 341.05 248.2 332.2 240.8 328.1 229.1 321.7 217.1 319.05 215.95 318.7 215.2 316.45 214.4 314.3 213.1 314.05 212.25 314.25 212.15 315.6 M200.1 309.05 Q196.25 309.7 190.25 307.7 184.0 305.65 180.1 306.05 181.45 299.6 189.45 302.45 195.45 304.6 200.1 309.05" fill="#f0d971" fill-rule="evenodd" stroke="none"/>
    <path d="M161.1 209.05 Q152.5 223.4 161.0 242.35 162.6 245.9 168.9 257.35 173.75 266.1 175.1 271.05 170.5 268.4 166.7 261.3 162.6 252.5 160.1 248.05 L152.25 235.65 Q147.25 227.45 147.1 223.05 147.0 220.2 148.35 216.65 L151.15 210.3 Q154.85 202.15 153.1 196.05 156.8 196.55 162.15 199.5 167.5 202.5 171.1 203.05 170.45 210.9 169.4 215.35 167.95 221.55 165.1 225.05 162.05 224.35 162.05 218.1 162.05 210.55 161.1 209.05 M137.15 178.5 L143.1 182.05 137.95 192.4 Q135.0 198.5 133.1 203.05 127.65 200.8 128.45 191.75 130.4 180.85 130.1 176.05 133.6 176.3 137.15 178.5 M97.1 180.2 Q96.75 184.9 92.05 188.7 87.35 192.45 83.3 191.3 78.55 190.0 78.1 182.05 87.7 181.3 91.1 172.05 97.55 174.8 97.1 180.2 M118.1 164.05 Q118.9 167.95 118.0 172.75 116.95 178.4 114.1 180.05 110.35 179.3 110.0 172.65 L109.85 167.0 Q109.75 163.75 109.1 162.05 L114.35 162.3 Q116.2 162.8 118.1 164.05 M86.1 146.05 Q91.75 144.05 95.5 148.4 99.35 152.75 97.1 159.05 91.7 159.5 89.4 154.75 87.55 148.65 86.1 146.05 M58.1 117.05 Q57.7 120.9 58.4 126.25 59.2 132.15 59.1 135.05 53.25 133.25 50.85 124.3 48.95 113.55 47.1 109.05 49.55 110.15 52.75 112.9 L58.1 117.05 M26.1 90.05 L29.1 90.05 Q33.6 92.4 36.65 97.55 38.9 101.25 41.1 108.05 41.0 109.05 39.3 109.2 37.4 109.4 37.1 110.05 33.1 107.25 30.3 101.4 28.75 98.2 26.1 90.05 M151.1 262.05 L158.9 268.75 Q163.8 272.75 166.1 276.05 160.35 272.15 157.65 269.95 153.1 266.25 151.1 262.05 M212.1 243.05 Q214.25 243.05 216.1 240.55 217.95 238.05 220.1 238.05 226.45 239.95 229.95 244.1 233.2 248.05 232.75 252.35 232.3 256.8 228.0 259.7 223.25 262.85 215.1 263.05 212.65 258.25 213.1 248.05 208.05 252.6 198.1 253.05 194.5 258.55 197.2 264.2 199.9 269.85 206.1 270.05 207.05 275.2 206.0 280.4 204.9 285.85 202.1 289.05 192.45 284.25 190.15 265.1 188.35 250.35 191.1 233.05 196.75 231.6 202.5 235.95 204.1 237.15 207.15 239.8 209.95 242.1 212.1 243.05 M265.85 282.15 L277.9 282.6 Q284.3 283.9 288.25 286.55 292.6 289.5 292.1 293.05 282.95 293.2 273.3 290.85 L257.1 286.05 Q259.75 283.0 265.85 282.15 M281.1 273.05 Q279.3 275.75 272.5 276.15 266.4 276.55 262.1 275.05 L262.1 271.05 Q265.4 271.25 272.7 270.95 278.85 271.05 281.1 273.05 M204.1 296.05 Q205.25 290.45 208.3 282.75 L213.1 270.05 Q220.95 263.8 233.2 262.6 246.65 261.25 254.1 268.05 249.6 278.75 234.6 286.25 222.4 292.35 204.1 296.05 M179.1 200.05 L182.1 200.05 Q182.7 215.75 184.1 233.3 185.45 250.45 187.1 263.05 178.25 256.7 176.95 235.3 176.0 219.45 179.1 200.05 M242.45 300.85 L218.1 303.05 Q229.9 295.55 247.8 296.35 L264.1 298.15 281.1 301.05 298.9 303.3 Q308.35 305.25 311.1 311.05 306.55 310.4 291.15 306.0 276.9 301.9 267.1 301.05 256.25 300.1 242.45 300.85" fill="#bfa015" fill-rule="evenodd" stroke="none"/>
    <path d="M357.1 229.05 L357.05 233.55 Q357.45 236.25 360.1 238.05 L359.1 243.05 Q358.1 245.5 355.1 245.05 355.0 241.15 352.4 237.75 L348.1 232.05 Q350.15 231.7 352.75 230.7 L357.1 229.05 M330.1 218.05 Q332.3 211.25 341.1 210.05 340.5 213.45 341.3 222.25 341.25 229.35 336.1 229.05 338.8 222.0 330.1 218.05" fill="#28a7e3" fill-rule="evenodd" stroke="none"/>
  </g>
</svg>
