<?xml version="1.0" encoding="UTF-8" standalone="no"?>
<svg xmlns:xlink="http://www.w3.org/1999/xlink" height="345.95px" width="487.9px" xmlns="http://www.w3.org/2000/svg">
  <g transform="matrix(1.0, 0.0, 0.0, 1.0, 0.0, 0.0)">
    <path d="M371.85 177.35 Q368.1 179.6 367.95 182.95 364.4 180.05 368.05 175.95 371.7 171.85 376.95 172.95 376.15 174.7 371.85 177.35 M426.95 193.95 Q432.4 193.75 435.85 194.05 440.25 194.5 442.95 195.95 442.45 197.1 440.75 197.55 L437.55 198.1 Q433.7 198.85 434.95 202.95 426.1 203.55 426.95 193.95 M345.95 216.95 Q346.05 219.05 344.7 221.2 343.15 223.65 342.95 224.95 339.25 225.6 337.7 226.2 335.0 227.3 335.95 230.95 333.15 230.55 331.9 227.0 330.9 222.7 329.95 220.95 333.45 222.0 338.05 220.1 345.4 217.1 345.95 216.95 M388.95 253.95 Q389.75 247.65 394.7 244.2 398.45 241.6 405.95 239.95 402.65 241.75 397.5 247.0 392.4 252.15 388.95 253.95 M331.8 271.9 Q333.9 269.8 338.25 269.25 342.35 268.7 346.3 269.7 350.45 270.75 351.95 272.95 346.5 272.0 341.15 273.5 337.4 274.6 330.95 277.95 329.45 274.25 331.8 271.9 M232.95 181.95 Q232.05 176.45 238.25 177.1 L247.95 178.95 Q247.5 182.1 242.1 182.1 235.55 181.55 232.95 181.95 M313.0 220.55 Q317.15 219.8 316.95 215.95 L319.95 215.95 Q320.8 220.9 316.15 225.5 313.2 228.45 306.95 231.95 306.95 230.0 305.8 226.6 304.75 223.4 304.95 220.95 L313.0 220.55 M318.95 268.95 Q314.1 267.75 308.0 269.6 L296.95 273.95 Q297.35 267.4 303.0 263.3 308.05 259.7 313.95 259.95 L315.7 265.2 Q316.9 268.1 318.95 268.95" fill="#ffffff" fill-rule="evenodd" stroke="none"/>
    <path d="M335.95 133.95 Q341.8 137.6 354.9 143.5 366.25 149.2 370.95 155.95 345.3 150.75 335.95 133.95 M431.95 208.95 Q426.75 212.15 420.55 210.25 413.9 208.2 416.95 201.95 421.2 202.3 425.3 204.6 427.6 205.95 431.95 208.95" fill="#bfa015" fill-rule="evenodd" stroke="none"/>
    <path d="M370.1 112.8 Q375.8 116.8 375.95 121.95 363.55 120.8 351.0 111.05 L340.8 102.65 Q334.7 97.65 329.95 95.0 321.45 90.2 311.6 85.6 303.8 81.95 291.95 77.0 290.65 77.05 290.85 79.35 L290.95 83.0 Q305.8 100.45 325.65 115.65 345.65 131.0 367.95 141.95 371.05 143.5 378.6 145.7 385.05 148.25 386.95 152.95 367.7 145.9 347.7 133.75 334.1 125.45 312.95 110.0 316.8 118.5 327.25 130.4 L344.95 149.95 Q343.95 152.25 340.25 149.15 335.4 145.1 333.95 144.95 337.4 149.8 343.35 154.05 347.3 156.85 354.95 160.95 356.3 161.3 355.95 158.95 355.55 156.6 356.95 156.95 L360.6 157.8 Q362.85 158.3 363.95 158.95 363.65 159.95 361.3 160.35 359.1 160.75 358.95 161.95 359.7 164.8 364.6 165.3 L370.95 165.95 364.7 171.75 Q360.85 175.25 358.95 177.95 333.6 152.4 308.95 137.95 302.5 128.55 293.6 110.35 283.3 89.3 278.95 82.0 274.8 82.85 270.5 87.05 265.55 91.9 262.95 93.0 L263.0 90.45 Q262.9 89.1 261.95 89.0 257.85 92.3 247.85 104.15 239.3 114.2 233.95 117.0 234.75 112.4 238.2 106.25 242.0 99.55 242.95 96.0 238.4 102.1 229.7 111.0 L216.0 125.5 Q200.55 143.5 197.95 163.95 199.85 161.25 202.05 156.8 L205.75 149.25 Q210.4 140.3 215.95 136.95 211.5 147.8 208.45 163.45 206.45 173.8 203.95 192.95 207.5 185.55 215.9 163.4 223.15 144.35 228.95 133.95 L235.45 121.5 Q239.1 115.3 243.95 113.0 240.8 120.2 235.45 135.4 230.1 150.7 226.95 157.95 223.8 165.25 217.95 179.95 212.45 192.25 205.95 198.95 203.4 197.4 200.55 194.35 L195.75 189.15 Q189.75 183.05 181.95 182.95 182.75 178.5 184.9 171.65 L188.55 160.2 Q192.55 146.3 189.95 136.95 200.95 125.95 220.1 109.65 L250.95 83.0 Q244.0 83.6 236.2 88.1 233.6 89.55 222.95 97.0 L185.35 124.15 Q162.5 140.5 146.95 148.95 146.45 145.4 149.1 143.15 152.5 140.2 152.95 138.95 152.3 137.35 150.5 138.25 148.1 139.45 146.95 138.95 147.05 135.55 149.75 131.75 152.6 127.7 152.95 124.95 152.1 123.35 149.15 123.9 L144.95 124.95 Q145.55 123.1 149.2 121.25 152.65 119.5 152.95 117.0 150.3 114.1 144.85 116.95 L136.95 121.95 Q136.55 124.4 138.15 125.3 139.2 125.9 141.95 125.95 140.95 128.9 138.9 136.9 137.1 144.0 135.65 147.65 131.05 159.2 120.95 160.95 L123.3 148.9 Q124.45 142.1 122.95 135.95 122.95 134.3 120.1 133.35 117.4 132.5 117.95 129.95 114.6 130.5 112.15 134.15 L107.95 139.95 Q110.8 142.65 113.95 152.5 116.8 161.5 120.95 163.95 139.15 157.2 160.15 144.65 172.35 137.35 195.95 121.95 L177.3 137.75 Q166.45 146.5 156.95 151.95 149.55 156.2 129.25 164.65 111.4 172.0 102.95 177.95 L102.95 187.95 Q99.9 189.95 92.8 191.3 84.5 192.9 81.95 193.95 83.75 188.2 89.3 181.75 96.5 173.35 97.95 170.95 L95.6 159.35 Q94.25 152.45 93.95 146.95 91.45 147.1 86.6 149.35 81.45 151.65 78.95 153.95 L82.85 154.05 Q85.85 151.85 86.95 151.95 81.3 157.2 72.4 173.1 62.0 191.75 58.0 196.95 53.75 202.45 48.25 206.15 40.6 211.3 35.0 208.95 39.45 202.5 42.35 198.8 48.05 191.45 53.0 186.95 61.45 180.8 63.7 177.65 67.45 172.2 58.0 166.95 56.0 166.5 54.5 167.95 53.0 169.45 51.0 168.95 61.1 155.6 81.05 142.55 92.45 135.1 115.95 121.0 114.8 122.55 109.45 126.95 105.2 130.4 103.95 133.95 109.8 132.95 115.35 127.35 122.25 120.4 124.95 119.0 123.7 117.05 121.55 118.35 118.7 120.1 117.95 120.0 117.85 119.4 118.15 119.2 L118.95 119.0 Q139.85 105.9 163.35 95.45 190.2 83.45 215.95 77.0 L230.15 72.95 Q238.6 70.5 243.9 69.6 259.35 66.9 270.95 73.0 268.25 75.0 264.2 73.45 259.85 71.3 257.95 71.0 248.45 73.8 231.85 77.4 L204.05 83.45 Q170.85 91.35 155.95 102.0 177.3 93.55 203.55 86.8 230.95 79.75 257.95 76.0 263.9 77.7 267.95 81.0 269.85 80.7 274.1 78.65 277.7 76.9 280.95 77.0 283.7 76.75 283.4 78.45 283.0 80.6 283.95 81.0 287.7 80.8 287.95 77.0 L281.25 74.7 Q277.1 73.3 274.95 72.0 277.8 69.95 284.85 69.9 L296.95 70.0 Q307.25 76.5 327.95 88.3 350.35 101.1 359.95 107.0 362.95 108.85 370.1 112.8 M333.95 187.95 Q331.25 184.15 325.95 178.95 L317.45 170.4 Q308.0 159.7 307.95 145.95 314.35 149.6 328.4 161.55 340.7 172.0 349.95 175.95 347.75 178.9 342.2 182.25 335.9 186.05 333.95 187.95 M331.95 194.95 Q330.05 194.7 329.2 196.25 328.55 198.25 327.95 198.95 325.4 199.3 321.95 198.45 L315.95 197.95 Q311.35 189.8 309.45 185.15 306.05 176.85 308.95 170.95 315.1 175.05 321.35 182.05 L331.95 194.95 M379.95 244.95 Q379.75 238.05 386.3 235.35 390.1 233.8 398.95 231.95 L390.4 239.4 Q385.3 243.95 379.95 244.95 M353.95 260.95 Q349.3 255.75 351.8 250.45 354.0 245.75 360.25 243.35 366.55 240.9 371.85 242.8 377.85 244.95 378.95 251.95 378.05 254.8 374.75 257.8 370.9 261.25 369.95 262.95 366.1 263.65 361.75 262.15 357.1 260.6 353.95 260.95 M326.95 232.95 Q332.35 234.5 336.05 240.85 L341.95 251.95 Q335.15 256.5 331.95 259.0 326.4 263.25 323.95 267.95 317.7 266.85 315.5 258.9 314.0 248.75 312.95 243.95 314.05 242.95 320.7 239.2 325.6 236.45 326.95 232.95 M176.95 143.95 Q178.65 143.75 178.95 144.95 176.35 151.9 175.8 167.8 175.2 186.0 173.95 191.95 170.55 192.0 164.35 190.1 158.7 188.35 153.95 188.95 158.05 158.75 176.95 143.95 M199.95 108.0 L200.5 106.5 Q200.55 105.95 198.95 106.0 184.55 113.55 177.55 117.55 165.2 124.6 159.95 132.95 168.85 129.5 180.6 121.1 195.3 110.6 199.95 108.0 M270.55 93.35 Q271.4 93.95 271.95 94.0 270.1 109.15 263.2 134.2 255.9 160.45 253.95 173.95 247.85 172.35 241.7 171.75 235.3 171.2 230.95 171.95 236.4 144.0 244.05 126.55 253.65 104.65 268.95 93.0 269.85 92.85 270.55 93.35 M277.95 85.0 L279.0 84.95 279.95 85.0 Q282.0 92.35 287.25 106.0 293.15 121.3 295.3 128.05 303.85 155.05 298.95 175.95 294.25 174.9 289.0 170.4 282.85 165.2 279.95 163.95 272.95 149.1 272.3 128.5 272.0 119.3 273.95 87.0 L275.95 86.0 Q277.2 85.25 277.95 85.0 M265.95 56.0 Q267.25 56.1 268.9 57.7 270.8 59.55 271.95 60.0 273.65 60.65 282.0 61.65 287.9 62.35 288.95 65.0 282.0 66.65 270.8 65.85 L252.95 64.0 Q254.05 59.15 257.65 57.2 260.75 55.55 265.95 56.0 M18.0 236.95 Q14.75 236.05 13.15 232.15 11.6 228.5 12.3 224.6 13.05 220.45 15.8 218.95 19.05 217.2 24.0 219.95 24.25 226.7 23.1 230.6 21.7 235.35 18.0 236.95 M28.0 237.95 Q27.25 231.9 31.5 228.75 35.65 225.65 41.0 227.95 41.05 233.5 36.85 236.55 32.8 239.5 28.0 237.95 M44.75 228.75 Q45.35 227.4 47.0 224.95 58.7 222.35 61.95 225.95 64.1 231.15 56.85 233.85 49.9 236.4 44.0 233.95 43.8 231.1 44.75 228.75 M72.95 203.95 Q73.35 206.4 71.55 208.55 69.7 210.75 69.95 212.95 60.8 215.5 52.0 214.95 51.55 206.3 58.1 204.7 L72.95 203.95 M95.85 231.6 Q88.75 230.95 84.95 227.95 L75.7 232.25 Q70.1 234.25 64.95 232.95 64.5 229.6 65.5 227.0 66.1 225.4 67.95 222.95 75.1 221.3 78.25 221.3 83.9 221.25 85.95 224.95 87.45 222.25 92.6 220.75 97.55 219.3 102.55 219.8 107.95 220.35 109.95 222.95 112.25 225.95 108.95 230.95 L95.85 231.6 M114.95 212.95 Q111.55 209.65 106.15 209.45 102.4 209.35 95.55 211.0 L84.1 213.5 Q77.6 214.45 72.95 212.95 73.0 203.9 79.55 201.2 85.4 198.75 94.95 201.95 L94.95 205.95 105.85 204.2 Q112.65 203.4 116.95 204.95 L116.85 209.85 Q116.5 212.3 114.95 212.95 M156.85 227.9 Q160.4 230.5 159.95 233.95 155.55 235.2 149.9 234.85 L139.95 233.95 Q138.7 229.05 141.75 226.65 144.35 224.6 149.05 225.05 153.6 225.5 156.85 227.9 M130.35 224.25 Q134.35 225.6 135.95 227.95 135.25 233.4 126.35 234.1 118.4 234.75 112.95 231.95 112.3 223.85 122.45 223.2 126.5 222.9 130.35 224.25 M137.75 191.7 L129.95 190.95 Q133.4 179.15 137.3 172.8 142.6 164.25 150.95 160.95 151.3 165.95 149.15 175.9 146.35 188.5 145.95 191.95 L137.75 191.7 M113.45 192.8 Q107.75 192.55 105.95 188.95 108.2 180.4 112.15 176.65 117.3 171.8 126.95 172.95 125.8 175.15 125.2 182.2 124.65 188.7 122.95 190.95 118.45 193.05 113.45 192.8 M80.4 189.6 Q78.0 193.9 76.95 196.95 L68.7 199.35 Q63.45 200.35 59.95 198.95 64.45 186.35 70.55 179.0 77.9 170.1 88.95 166.95 89.5 173.45 84.6 182.35 L80.4 189.6 M41.25 181.0 L51.0 173.95 Q57.2 174.55 59.95 176.95 47.45 189.95 41.4 194.85 30.15 204.0 18.0 207.95 21.7 197.3 31.9 188.35 35.4 185.25 41.25 181.0 M184.0 109.55 L205.95 98.0 Q189.75 104.1 181.95 107.5 168.65 113.35 160.95 120.0 170.8 116.55 184.0 109.55 M299.85 193.8 Q299.45 187.95 300.95 184.95 305.9 185.05 308.4 189.5 309.8 192.1 311.95 197.95 311.15 198.3 306.9 201.6 304.5 203.4 300.95 202.95 L299.85 193.8 M274.7 162.95 Q276.55 174.0 274.95 186.95 270.55 185.65 263.4 186.7 L253.95 187.95 Q255.1 176.4 258.5 165.0 261.15 156.0 265.95 144.95 272.5 149.8 274.7 162.95 M277.95 193.95 Q277.6 184.0 279.95 176.95 286.95 179.75 290.15 182.3 294.9 186.05 295.95 191.95 L287.5 192.5 Q281.6 192.95 277.95 193.95 M253.95 196.95 Q259.65 194.25 264.7 194.25 271.3 194.3 271.95 199.95 267.3 200.35 262.95 201.45 257.35 202.8 253.95 204.95 L253.95 196.95 M265.95 249.95 Q275.9 245.4 280.6 251.8 283.35 255.55 286.95 265.95 284.5 267.45 281.4 264.25 277.55 260.25 275.95 259.95 L271.05 261.05 265.95 261.95 265.35 255.75 Q265.0 252.7 265.95 249.95 M245.95 232.95 Q248.75 232.85 249.0 229.0 248.75 224.1 248.95 221.95 251.65 225.45 252.55 235.35 253.55 246.65 254.95 249.95 252.85 248.75 248.4 242.5 244.8 237.45 239.95 236.95 239.9 235.75 238.7 230.65 237.85 227.15 238.95 224.95 L241.95 224.3 244.95 224.95 Q245.9 225.85 246.0 228.45 L245.95 232.95 M255.05 236.65 Q253.6 230.65 254.95 225.95 259.55 226.9 266.4 229.7 272.7 232.3 276.95 232.95 275.6 236.2 268.15 238.65 261.0 241.0 259.95 244.95 256.55 242.9 255.05 236.65 M250.95 203.95 Q251.9 204.85 252.0 207.45 L251.95 211.95 Q248.35 212.75 242.85 214.4 L233.95 216.95 Q232.7 211.5 232.25 208.45 231.35 203.05 232.95 199.95 235.75 200.55 238.45 202.45 L242.95 205.95 Q244.3 205.95 246.6 204.6 248.6 203.5 250.95 203.95 M297.1 245.0 Q305.15 242.25 307.95 245.95 305.95 250.75 299.95 254.95 L289.95 261.95 Q287.2 260.8 286.05 257.4 285.15 254.75 284.95 249.95 288.05 249.0 297.1 245.0 M295.95 202.95 Q294.55 205.65 289.4 207.4 283.45 209.5 281.95 210.95 281.95 212.1 281.15 215.2 280.55 217.7 280.95 219.95 277.45 219.65 277.7 213.7 L278.1 208.55 Q278.3 205.55 277.95 203.95 281.0 202.25 286.5 201.9 292.15 201.55 295.95 202.95 M168.95 232.95 Q168.9 224.15 178.35 225.65 182.05 226.25 185.45 228.35 188.85 230.5 189.95 232.95 L179.6 232.65 168.95 232.95" fill="#f0d971" fill-rule="evenodd" stroke="none"/>
    <path d="M398.0 189.15 Q400.95 190.3 401.95 189.95 L402.15 198.75 Q402.35 203.45 403.95 206.95 L392.6 206.2 Q387.35 205.2 386.95 198.95 L393.15 198.75 Q397.15 199.05 397.95 195.95 398.15 193.85 397.05 192.35 L394.95 189.95 Q395.8 188.25 398.0 189.15" fill="#ec5320" fill-rule="evenodd" stroke="none"/>
    <path d="M356.95 184.95 Q357.5 187.7 355.25 190.25 353.15 192.7 353.95 195.95 351.85 195.9 349.1 197.6 346.45 199.2 343.95 198.95 344.9 192.0 347.8 188.15 351.35 183.4 356.95 184.95" fill="#28a7e3" fill-rule="evenodd" stroke="none"/>
    <path d="M353.95 195.95 Q353.15 192.7 355.25 190.25 357.5 187.7 356.95 184.95 351.35 183.4 347.8 188.15 344.9 192.0 343.95 198.95 346.45 199.2 349.1 197.6 351.85 195.9 353.95 195.95 M333.95 187.95 Q335.9 186.05 342.2 182.25 347.75 178.9 349.95 175.95 340.7 172.0 328.4 161.55 314.35 149.6 307.95 145.95 308.0 159.7 317.45 170.4 L325.95 178.95 Q331.25 184.15 333.95 187.95 M329.2 196.25 Q330.05 194.7 331.95 194.95 L321.35 182.05 Q315.1 175.05 308.95 170.95 306.05 176.85 309.45 185.15 311.35 189.8 315.95 197.95 L321.95 198.45 Q325.4 199.3 327.95 198.95 328.55 198.25 329.2 196.25 M354.9 143.5 Q341.8 137.6 335.95 133.95 345.3 150.75 370.95 155.95 366.25 149.2 354.9 143.5 M375.95 121.95 Q375.8 116.8 370.1 112.8 362.95 108.85 359.95 107.0 350.35 101.1 327.95 88.3 307.25 76.5 296.95 70.0 L284.85 69.9 Q277.8 69.95 274.95 72.0 277.1 73.3 281.25 74.7 L287.95 77.0 Q287.7 80.8 283.95 81.0 283.0 80.6 283.4 78.45 283.7 76.75 280.95 77.0 277.7 76.9 274.1 78.65 269.85 80.7 267.95 81.0 263.9 77.7 257.95 76.0 230.95 79.75 203.55 86.8 177.3 93.55 155.95 102.0 170.85 91.35 204.05 83.45 L231.85 77.4 Q248.45 73.8 257.95 71.0 259.85 71.3 264.2 73.45 268.25 75.0 270.95 73.0 259.35 66.9 243.9 69.6 238.6 70.5 230.15 72.95 L215.95 77.0 Q190.2 83.45 163.35 95.45 139.85 105.9 118.95 119.0 L118.15 119.2 Q117.85 119.4 117.95 120.0 118.7 120.1 121.55 118.35 123.7 117.05 124.95 119.0 122.25 120.4 115.35 127.35 109.8 132.95 103.95 133.95 105.2 130.4 109.45 126.95 114.8 122.55 115.95 121.0 92.45 135.1 81.05 142.55 61.1 155.6 51.0 168.95 53.0 169.45 54.5 167.95 56.0 166.5 58.0 166.95 67.45 172.2 63.7 177.65 61.45 180.8 53.0 186.95 48.05 191.45 42.35 198.8 39.45 202.5 35.0 208.95 40.6 211.3 48.25 206.15 53.75 202.45 58.0 196.95 62.0 191.75 72.4 173.1 81.3 157.2 86.95 151.95 85.85 151.85 82.85 154.05 L78.95 153.95 Q81.45 151.65 86.6 149.35 91.45 147.1 93.95 146.95 94.25 152.45 95.6 159.35 L97.95 170.95 Q96.5 173.35 89.3 181.75 83.75 188.2 81.95 193.95 84.5 192.9 92.8 191.3 99.9 189.95 102.95 187.95 L102.95 177.95 Q111.4 172.0 129.25 164.65 149.55 156.2 156.95 151.95 166.45 146.5 177.3 137.75 L195.95 121.95 Q172.35 137.35 160.15 144.65 139.15 157.2 120.95 163.95 116.8 161.5 113.95 152.5 110.8 142.65 107.95 139.95 L112.15 134.15 Q114.6 130.5 117.95 129.95 117.4 132.5 120.1 133.35 122.95 134.3 122.95 135.95 124.45 142.1 123.3 148.9 L120.95 160.95 Q131.05 159.2 135.65 147.65 137.1 144.0 138.9 136.9 140.95 128.9 141.95 125.95 139.2 125.9 138.15 125.3 136.55 124.4 136.95 121.95 L144.85 116.95 Q150.3 114.1 152.95 117.0 152.65 119.5 149.2 121.25 145.55 123.1 144.95 124.95 L149.15 123.9 Q152.1 123.35 152.95 124.95 152.6 127.7 149.75 131.75 147.05 135.55 146.95 138.95 148.1 139.45 150.5 138.25 152.3 137.35 152.95 138.95 152.5 140.2 149.1 143.15 146.45 145.4 146.95 148.95 162.5 140.5 185.35 124.15 L222.95 97.0 Q233.6 89.55 236.2 88.1 244.0 83.6 250.95 83.0 L220.1 109.65 Q200.95 125.95 189.95 136.95 192.55 146.3 188.55 160.2 L184.9 171.65 Q182.75 178.5 181.95 182.95 189.75 183.05 195.75 189.15 L200.55 194.35 Q203.4 197.4 205.95 198.95 212.45 192.25 217.95 179.95 223.8 165.25 226.95 157.95 230.1 150.7 235.45 135.4 240.8 120.2 243.95 113.0 239.1 115.3 235.45 121.5 L228.95 133.95 Q223.15 144.35 215.9 163.4 207.5 185.55 203.95 192.95 206.45 173.8 208.45 163.45 211.5 147.8 215.95 136.95 210.4 140.3 205.75 149.25 L202.05 156.8 Q199.85 161.25 197.95 163.95 200.55 143.5 216.0 125.5 L229.7 111.0 Q238.4 102.1 242.95 96.0 242.0 99.55 238.2 106.25 234.75 112.4 233.95 117.0 239.3 114.2 247.85 104.15 257.85 92.3 261.95 89.0 262.9 89.1 263.0 90.45 L262.95 93.0 Q265.55 91.9 270.5 87.05 274.8 82.85 278.95 82.0 283.3 89.3 293.6 110.35 302.5 128.55 308.95 137.95 333.6 152.4 358.95 177.95 360.85 175.25 364.7 171.75 L370.95 165.95 364.6 165.3 Q359.7 164.8 358.95 161.95 359.1 160.75 361.3 160.35 363.65 159.95 363.95 158.95 362.85 158.3 360.6 157.8 L356.95 156.95 Q355.55 156.6 355.95 158.95 356.3 161.3 354.95 160.95 347.3 156.85 343.35 154.05 337.4 149.8 333.95 144.95 335.4 145.1 340.25 149.15 343.95 152.25 344.95 149.95 L327.25 130.4 Q316.8 118.5 312.95 110.0 334.1 125.45 347.7 133.75 367.7 145.9 386.95 152.95 385.05 148.25 378.6 145.7 371.05 143.5 367.95 141.95 345.65 131.0 325.65 115.65 305.8 100.45 290.95 83.0 L290.85 79.35 Q290.65 77.05 291.95 77.0 303.8 81.95 311.6 85.6 321.45 90.2 329.95 95.0 334.7 97.65 340.8 102.65 L351.0 111.05 Q363.55 120.8 375.95 121.95 M331.7 87.3 Q343.75 93.5 350.95 98.0 367.2 108.15 368.7 109.3 378.5 116.8 381.95 125.95 376.7 135.85 365.75 128.85 362.25 126.6 356.5 121.4 L347.95 114.0 Q334.95 104.1 319.95 97.0 334.1 109.3 341.85 115.35 354.35 125.15 365.95 131.95 373.6 136.45 393.5 144.65 411.4 152.0 419.95 157.95 429.3 164.55 441.75 178.1 456.8 194.45 461.9 198.95 459.25 203.15 450.85 208.9 442.55 214.5 439.95 218.95 444.3 224.9 451.35 231.05 L464.4 241.5 Q481.6 254.75 487.9 264.95 479.55 268.75 469.85 262.05 466.55 259.8 462.0 255.5 L454.95 248.95 439.8 235.7 Q431.0 228.35 423.95 224.95 422.1 225.5 422.0 229.5 421.85 234.05 420.95 234.95 399.4 247.45 388.95 265.95 387.95 267.05 384.7 265.7 381.45 264.3 379.95 265.95 378.25 278.95 386.8 294.6 391.65 303.55 402.95 319.95 L407.45 327.1 Q409.9 331.2 410.75 334.0 413.0 341.55 404.95 345.95 395.35 345.0 389.0 336.25 386.8 333.2 384.15 328.15 L379.95 319.95 370.6 303.55 Q365.15 294.4 360.95 288.95 356.95 283.75 354.05 280.95 349.0 276.15 344.95 275.95 341.85 275.8 337.2 279.9 332.5 284.05 328.95 283.95 325.8 283.85 321.8 278.9 317.55 273.6 314.95 272.95 309.9 271.75 304.85 275.55 L300.85 278.45 Q298.4 279.9 295.95 279.95 290.65 280.1 285.45 273.55 L281.35 268.75 Q278.8 266.4 275.95 265.95 264.95 271.25 257.4 264.5 254.7 262.1 251.45 257.25 L245.95 248.95 Q235.8 234.6 230.95 223.35 223.3 205.55 224.95 188.95 220.4 197.7 215.8 210.3 214.0 215.05 207.95 232.95 204.5 240.15 195.3 242.25 182.9 243.85 174.95 245.95 172.1 246.7 167.0 249.7 162.25 252.55 159.95 252.95 153.2 254.25 138.05 251.75 120.25 248.85 112.95 248.95 109.8 249.0 104.1 250.5 98.5 252.0 95.95 251.95 93.35 251.95 88.3 250.4 83.35 248.85 80.95 248.95 77.95 249.1 73.1 251.5 67.35 254.35 64.95 254.95 45.35 260.0 27.35 257.95 7.15 255.65 0.05 244.95 -0.15 235.3 0.5 229.35 1.35 221.05 4.0 214.95 8.9 203.65 20.95 189.05 31.3 176.5 43.0 165.95 60.0 150.7 84.25 134.6 105.85 120.2 131.95 106.0 165.5 87.65 184.15 79.85 214.2 67.25 239.95 65.0 231.65 56.25 214.2 49.5 193.35 42.45 182.95 38.0 172.8 34.1 167.9 31.65 159.4 27.45 155.95 22.0 162.4 21.95 171.4 27.4 183.65 34.75 186.95 36.0 191.5 37.7 204.5 41.15 215.75 44.15 221.95 47.0 220.1 42.8 215.4 36.6 L206.85 25.6 Q196.2 11.3 195.95 0.0 L198.95 0.0 Q202.85 6.6 209.7 23.7 216.7 38.55 225.95 43.0 230.05 44.95 238.15 46.0 248.2 47.25 250.95 48.0 265.45 51.8 273.95 55.0 281.75 57.9 292.95 65.1 L311.95 77.0 Q315.65 79.05 331.7 87.3 M368.05 175.95 Q364.4 180.05 367.95 182.95 368.1 179.6 371.85 177.35 376.15 174.7 376.95 172.95 371.7 171.85 368.05 175.95 M401.95 189.95 Q400.95 190.3 398.0 189.15 395.8 188.25 394.95 189.95 L397.05 192.35 Q398.15 193.85 397.95 195.95 397.15 199.05 393.15 198.75 L386.95 198.95 Q387.35 205.2 392.6 206.2 L403.95 206.95 Q402.35 203.45 402.15 198.75 L401.95 189.95 M440.75 197.55 Q442.45 197.1 442.95 195.95 440.25 194.5 435.85 194.05 432.4 193.75 426.95 193.95 426.1 203.55 434.95 202.95 433.7 198.85 437.55 198.1 L440.75 197.55 M379.95 244.95 Q385.3 243.95 390.4 239.4 L398.95 231.95 Q390.1 233.8 386.3 235.35 379.75 238.05 379.95 244.95 M416.95 201.95 Q413.9 208.2 420.55 210.25 426.75 212.15 431.95 208.95 427.6 205.95 425.3 204.6 421.2 202.3 416.95 201.95 M344.7 221.2 Q346.05 219.05 345.95 216.95 345.4 217.1 338.05 220.1 333.45 222.0 329.95 220.95 330.9 222.7 331.9 227.0 333.15 230.55 335.95 230.95 335.0 227.3 337.7 226.2 339.25 225.6 342.95 224.95 343.15 223.65 344.7 221.2 M351.8 250.45 Q349.3 255.75 353.95 260.95 357.1 260.6 361.75 262.15 366.1 263.65 369.95 262.95 370.9 261.25 374.75 257.8 378.05 254.8 378.95 251.95 377.85 244.95 371.85 242.8 366.55 240.9 360.25 243.35 354.0 245.75 351.8 250.45 M336.05 240.85 Q332.35 234.5 326.95 232.95 325.6 236.45 320.7 239.2 314.05 242.95 312.95 243.95 314.0 248.75 315.5 258.9 317.7 266.85 323.95 267.95 326.4 263.25 331.95 259.0 335.15 256.5 341.95 251.95 L336.05 240.85 M388.95 253.95 Q392.4 252.15 397.5 247.0 402.65 241.75 405.95 239.95 398.45 241.6 394.7 244.2 389.75 247.65 388.95 253.95 M338.25 269.25 Q333.9 269.8 331.8 271.9 329.45 274.25 330.95 277.95 337.4 274.6 341.15 273.5 346.5 272.0 351.95 272.95 350.45 270.75 346.3 269.7 342.35 268.7 338.25 269.25 M198.95 106.0 Q200.55 105.95 200.5 106.5 L199.95 108.0 Q195.3 110.6 180.6 121.1 168.85 129.5 159.95 132.95 165.2 124.6 177.55 117.55 184.55 113.55 198.95 106.0 M178.95 144.95 Q178.65 143.75 176.95 143.95 158.05 158.75 153.95 188.95 158.7 188.35 164.35 190.1 170.55 192.0 173.95 191.95 175.2 186.0 175.8 167.8 176.35 151.9 178.95 144.95 M270.55 93.35 Q269.85 92.85 268.95 93.0 253.65 104.65 244.05 126.55 236.4 144.0 230.95 171.95 235.3 171.2 241.7 171.75 247.85 172.35 253.95 173.95 255.9 160.45 263.2 134.2 270.1 109.15 271.95 94.0 271.4 93.95 270.55 93.35 M277.95 85.0 Q277.2 85.25 275.95 86.0 L273.95 87.0 Q272.0 119.3 272.3 128.5 272.95 149.1 279.95 163.95 282.85 165.2 289.0 170.4 294.25 174.9 298.95 175.95 303.85 155.05 295.3 128.05 293.15 121.3 287.25 106.0 282.0 92.35 279.95 85.0 L279.0 84.95 277.95 85.0 M282.0 61.65 Q273.65 60.65 271.95 60.0 270.8 59.55 268.9 57.7 267.25 56.1 265.95 56.0 260.75 55.55 257.65 57.2 254.05 59.15 252.95 64.0 L270.8 65.85 Q282.0 66.65 288.95 65.0 287.9 62.35 282.0 61.65 M232.95 181.95 Q235.55 181.55 242.1 182.1 247.5 182.1 247.95 178.95 L238.25 177.1 Q232.05 176.45 232.95 181.95 M31.5 228.75 Q27.25 231.9 28.0 237.95 32.8 239.5 36.85 236.55 41.05 233.5 41.0 227.95 35.65 225.65 31.5 228.75 M12.3 224.6 Q11.6 228.5 13.15 232.15 14.75 236.05 18.0 236.95 21.7 235.35 23.1 230.6 24.25 226.7 24.0 219.95 19.05 217.2 15.8 218.95 13.05 220.45 12.3 224.6 M44.0 233.95 Q49.9 236.4 56.85 233.85 64.1 231.15 61.95 225.95 58.7 222.35 47.0 224.95 45.35 227.4 44.75 228.75 43.8 231.1 44.0 233.95 M71.55 208.55 Q73.35 206.4 72.95 203.95 L58.1 204.7 Q51.55 206.3 52.0 214.95 60.8 215.5 69.95 212.95 69.7 210.75 71.55 208.55 M84.95 227.95 Q88.75 230.95 95.85 231.6 L108.95 230.95 Q112.25 225.95 109.95 222.95 107.95 220.35 102.55 219.8 97.55 219.3 92.6 220.75 87.45 222.25 85.95 224.95 83.9 221.25 78.25 221.3 75.1 221.3 67.95 222.95 66.1 225.4 65.5 227.0 64.5 229.6 64.95 232.95 70.1 234.25 75.7 232.25 L84.95 227.95 M116.85 209.85 L116.95 204.95 Q112.65 203.4 105.85 204.2 L94.95 205.95 94.95 201.95 Q85.4 198.75 79.55 201.2 73.0 203.9 72.95 212.95 77.6 214.45 84.1 213.5 L95.55 211.0 Q102.4 209.35 106.15 209.45 111.55 209.65 114.95 212.95 116.5 212.3 116.85 209.85 M149.05 225.05 Q144.35 224.6 141.75 226.65 138.7 229.05 139.95 233.95 L149.9 234.85 Q155.55 235.2 159.95 233.95 160.4 230.5 156.85 227.9 153.6 225.5 149.05 225.05 M135.95 227.95 Q134.35 225.6 130.35 224.25 126.5 222.9 122.45 223.2 112.3 223.85 112.95 231.95 118.4 234.75 126.35 234.1 135.25 233.4 135.95 227.95 M129.95 190.95 L137.75 191.7 145.95 191.95 Q146.35 188.5 149.15 175.9 151.3 165.95 150.95 160.95 142.6 164.25 137.3 172.8 133.4 179.15 129.95 190.95 M105.95 188.95 Q107.75 192.55 113.45 192.8 118.45 193.05 122.95 190.95 124.65 188.7 125.2 182.2 125.8 175.15 126.95 172.95 117.3 171.8 112.15 176.65 108.2 180.4 105.95 188.95 M76.95 196.95 Q78.0 193.9 80.4 189.6 L84.6 182.35 Q89.5 173.45 88.95 166.95 77.9 170.1 70.55 179.0 64.45 186.35 59.95 198.95 63.45 200.35 68.7 199.35 L76.95 196.95 M41.4 194.85 Q47.45 189.95 59.95 176.95 57.2 174.55 51.0 173.95 L41.25 181.0 Q35.4 185.25 31.9 188.35 21.7 197.3 18.0 207.95 30.15 204.0 41.4 194.85 M181.95 107.5 Q189.75 104.1 205.95 98.0 L184.0 109.55 Q170.8 116.55 160.95 120.0 168.65 113.35 181.95 107.5 M300.95 184.95 Q299.45 187.95 299.85 193.8 L300.95 202.95 Q304.5 203.4 306.9 201.6 311.15 198.3 311.95 197.95 309.8 192.1 308.4 189.5 305.9 185.05 300.95 184.95 M279.95 176.95 Q277.6 184.0 277.95 193.95 281.6 192.95 287.5 192.5 L295.95 191.95 Q294.9 186.05 290.15 182.3 286.95 179.75 279.95 176.95 M274.95 186.95 Q276.55 174.0 274.7 162.95 272.5 149.8 265.95 144.95 261.15 156.0 258.5 165.0 255.1 176.4 253.95 187.95 L263.4 186.7 Q270.55 185.65 274.95 186.95 M264.7 194.25 Q259.65 194.25 253.95 196.95 L253.95 204.95 Q257.35 202.8 262.95 201.45 267.3 200.35 271.95 199.95 271.3 194.3 264.7 194.25 M313.0 220.55 L304.95 220.95 Q304.75 223.4 305.8 226.6 306.95 230.0 306.95 231.95 313.2 228.45 316.15 225.5 320.8 220.9 319.95 215.95 L316.95 215.95 Q317.15 219.8 313.0 220.55 M271.05 261.05 L275.95 259.95 Q277.55 260.25 281.4 264.25 284.5 267.45 286.95 265.95 283.35 255.55 280.6 251.8 275.9 245.4 265.95 249.95 265.0 252.7 265.35 255.75 L265.95 261.95 271.05 261.05 M255.05 236.65 Q256.55 242.9 259.95 244.95 261.0 241.0 268.15 238.65 275.6 236.2 276.95 232.95 272.7 232.3 266.4 229.7 259.55 226.9 254.95 225.95 253.6 230.65 255.05 236.65 M246.0 228.45 Q245.9 225.85 244.95 224.95 L241.95 224.3 238.95 224.95 Q237.85 227.15 238.7 230.65 239.9 235.75 239.95 236.95 244.8 237.45 248.4 242.5 252.85 248.75 254.95 249.95 253.55 246.65 252.55 235.35 251.65 225.45 248.95 221.95 248.75 224.1 249.0 229.0 248.75 232.85 245.95 232.95 L246.0 228.45 M251.95 211.95 L252.0 207.45 Q251.9 204.85 250.95 203.95 248.6 203.5 246.6 204.6 244.3 205.95 242.95 205.95 L238.45 202.45 Q235.75 200.55 232.95 199.95 231.35 203.05 232.25 208.45 232.7 211.5 233.95 216.95 L242.85 214.4 Q248.35 212.75 251.95 211.95 M307.95 245.95 Q305.15 242.25 297.1 245.0 288.05 249.0 284.95 249.95 285.15 254.75 286.05 257.4 287.2 260.8 289.95 261.95 L299.95 254.95 Q305.95 250.75 307.95 245.95 M295.95 202.95 Q292.15 201.55 286.5 201.9 281.0 202.25 277.95 203.95 278.3 205.55 278.1 208.55 L277.7 213.7 Q277.45 219.65 280.95 219.95 280.55 217.7 281.15 215.2 281.95 212.1 281.95 210.95 283.45 209.5 289.4 207.4 294.55 205.65 295.95 202.95 M315.7 265.2 L313.95 259.95 Q308.05 259.7 303.0 263.3 297.35 267.4 296.95 273.95 L308.0 269.6 Q314.1 267.75 318.95 268.95 316.9 268.1 315.7 265.2 M168.95 232.95 L179.6 232.65 189.95 232.95 Q188.85 230.5 185.45 228.35 182.05 226.25 178.35 225.65 168.9 224.15 168.95 232.95" fill="#000000" fill-rule="evenodd" stroke="none"/>
    <path d="M440.75 197.55 L437.55 198.1 Q433.7 198.85 434.95 202.95 426.1 203.55 426.95 193.95 432.4 193.75 435.85 194.05 440.25 194.5 442.95 195.95 442.45 197.1 440.75 197.55" fill="#bfa015" fill-rule="evenodd" stroke="none"/>
    <path d="M344.7 221.2 Q343.15 223.65 342.95 224.95 339.25 225.6 337.7 226.2 335.0 227.3 335.95 230.95 333.15 230.55 331.9 227.0 330.9 222.7 329.95 220.95 333.45 222.0 338.05 220.1 345.4 217.1 345.95 216.95 346.05 219.05 344.7 221.2 M338.25 269.25 Q342.35 268.7 346.3 269.7 350.45 270.75 351.95 272.95 346.5 272.0 341.15 273.5 337.4 274.6 330.95 277.95 329.45 274.25 331.8 271.9 333.9 269.8 338.25 269.25 M388.95 253.95 Q389.75 247.65 394.7 244.2 398.45 241.6 405.95 239.95 402.65 241.75 397.5 247.0 392.4 252.15 388.95 253.95 M232.95 181.95 Q232.05 176.45 238.25 177.1 L247.95 178.95 Q247.5 182.1 242.1 182.1 235.55 181.55 232.95 181.95 M313.0 220.55 Q317.15 219.8 316.95 215.95 L319.95 215.95 Q320.8 220.9 316.15 225.5 313.2 228.45 306.95 231.95 306.95 230.0 305.8 226.6 304.75 223.4 304.95 220.95 L313.0 220.55 M315.7 265.2 Q316.9 268.1 318.95 268.95 314.1 267.75 308.0 269.6 L296.95 273.95 Q297.35 267.4 303.0 263.3 308.05 259.7 313.95 259.95 L315.7 265.2" fill="#f0d971" fill-rule="evenodd" stroke="none"/>
    <path d="M368.05 175.95 Q371.7 171.85 376.95 172.95 376.15 174.7 371.85 177.35 368.1 179.6 367.95 182.95 364.4 180.05 368.05 175.95" fill="#28a7e3" fill-rule="evenodd" stroke="none"/>
  </g>
</svg>
