<?xml version="1.0" encoding="UTF-8" standalone="no"?>
<svg xmlns:xlink="http://www.w3.org/1999/xlink" height="106.25px" width="121.65px" xmlns="http://www.w3.org/2000/svg">
  <g transform="matrix(1.0, 0.0, 0.0, 1.0, 56.8, 51.4)">
    <path d="M42.55 -11.15 L42.5 -5.95 Q42.4 -0.65 41.7 5.35 L40.6 14.3 40.5 19.25 Q40.4 20.05 39.9 20.65 39.1 21.8 30.8 25.2 L19.75 29.4 Q13.85 31.25 3.55 33.2 L0.55 33.75 0.4 33.8 0.45 33.75 -0.05 33.9 Q-5.95 35.95 -13.8 36.5 L-14.0 36.5 Q-22.15 36.5 -26.45 32.7 L-26.55 32.6 Q-31.5 28.5 -31.5 20.0 L-31.5 -8.05 Q-33.15 -11.75 -33.95 -15.2 -42.0 -11.6 -46.3 -3.85 -49.9 2.55 -49.8 10.55 -49.75 18.45 -46.15 26.0 -42.4 33.7 -35.75 39.15 -28.5 44.95 -19.15 46.9 2.85 51.25 29.6 34.65 29.8 34.05 30.35 33.55 L32.45 31.65 32.45 30.8 Q32.6 28.15 34.6 26.4 L34.65 26.35 Q36.55 24.6 39.2 24.65 L39.35 24.65 39.4 24.65 40.45 24.85 Q40.75 23.45 41.8 22.5 L41.85 22.45 Q42.6 21.7 43.85 21.4 L44.0 21.35 43.95 21.4 45.15 21.1 46.7 19.45 46.75 19.45 46.85 19.35 Q48.8 17.25 49.2 14.05 49.6 8.65 56.5 7.1 L58.1 7.25 Q58.85 7.6 59.25 8.35 L59.25 8.3 Q59.65 9.05 59.55 9.9 59.4 10.7 58.8 11.3 56.8 13.25 56.75 15.15 58.6 15.3 60.75 13.5 61.4 12.95 62.25 12.9 63.05 12.85 63.75 13.35 64.45 13.85 64.75 14.65 65.0 15.4 64.75 16.2 L64.75 16.25 Q62.4 22.85 57.0 22.75 53.75 22.8 51.5 24.55 L51.55 24.5 51.5 24.55 51.4 24.6 49.55 26.2 49.2 27.25 49.2 27.2 49.15 27.35 49.1 27.4 49.1 27.45 Q48.6 28.55 47.9 29.15 L47.85 29.2 Q46.75 30.15 45.4 30.35 L45.4 31.45 Q45.25 34.15 43.3 35.95 L43.25 36.0 Q41.25 37.75 38.65 37.6 L37.8 37.55 35.7 39.45 Q35.0 40.05 34.15 40.1 4.15 58.95 -20.55 53.75 -31.55 51.45 -40.05 44.65 L-40.15 44.6 Q-48.0 38.2 -52.45 29.05 -56.75 20.05 -56.8 10.6 L-56.8 10.55 Q-56.9 0.65 -52.4 -7.3 -46.6 -17.75 -35.4 -22.2 L-35.3 -22.25 -32.95 -23.05 -31.5 -26.25 -31.5 -30.2 Q-31.45 -34.75 -28.1 -39.05 -25.35 -42.7 -21.65 -43.85 -19.95 -44.45 -18.05 -44.5 L-16.9 -44.5 Q-15.5 -45.45 -14.0 -46.1 L-13.9 -46.15 -13.8 -46.15 Q0.2 -53.3 18.4 -50.75 35.4 -48.45 40.75 -41.05 L40.8 -41.0 Q41.5 -40.3 41.5 -39.25 L41.5 -28.5 42.55 -11.15" fill="#000000" fill-rule="evenodd" stroke="none"/>
    <path d="M40.75 -41.05 Q41.5 -40.15 41.5 -39.25 L41.5 -28.5 42.55 -11.15 42.5 -5.95 Q42.4 -0.65 41.7 5.35 L40.6 14.3 40.5 19.25 Q40.4 20.05 39.9 20.65 39.1 21.8 30.8 25.2 L19.75 29.4 Q13.85 31.25 3.55 33.2 L-0.05 33.9 Q-3.8 35.15 -8.85 35.95 -15.85 37.0 -19.95 35.9 -27.85 33.85 -30.45 27.1 -31.5 24.3 -31.5 20.0 L-31.5 -8.05 Q-33.15 -11.75 -33.95 -15.2 -42.0 -11.6 -46.3 -3.85 -49.9 2.55 -49.8 10.55 -49.75 18.45 -46.15 26.0 -42.4 33.7 -35.75 39.15 -28.5 44.95 -19.15 46.9 2.85 51.25 29.6 34.65 29.8 34.05 30.35 33.55 L32.45 31.65 Q32.1 29.15 34.05 26.9 36.4 24.2 40.45 24.85 41.0 21.55 45.15 21.1 L46.85 19.35 Q48.8 17.25 49.2 14.05 49.6 8.65 56.5 7.1 L58.1 7.25 Q58.85 7.6 59.25 8.35 L59.25 8.3 Q59.65 9.05 59.55 9.9 59.4 10.7 58.8 11.3 56.8 13.25 56.75 15.15 58.6 15.3 60.75 13.5 61.4 12.95 62.25 12.9 63.05 12.85 63.75 13.35 64.45 13.85 64.75 14.65 65.0 15.4 64.75 16.2 L64.75 16.25 Q62.4 22.85 57.0 22.75 54.1 22.85 52.1 24.05 51.05 24.7 49.55 26.2 49.2 27.85 48.2 28.85 47.05 30.05 45.4 30.35 45.65 34.1 43.1 36.15 40.85 37.95 37.8 37.55 L35.7 39.45 Q35.0 40.05 34.15 40.1 4.15 58.95 -20.55 53.75 -32.1 51.2 -40.15 44.6 -48.05 38.15 -52.45 29.05 -56.75 20.05 -56.8 10.6 L-56.8 10.55 Q-56.9 0.65 -52.4 -7.3 -46.6 -17.75 -35.4 -22.2 L-32.95 -23.05 -31.5 -26.25 -31.5 -30.2 Q-31.45 -34.5 -28.1 -39.05 -26.05 -41.9 -23.0 -43.3 -20.1 -44.65 -16.9 -44.5 L-13.8 -46.15 Q0.2 -53.3 18.4 -50.75 35.4 -48.45 40.75 -41.05" fill="#000000" fill-rule="evenodd" stroke="none"/>
    <path d="M-12.0 -42.0 L-22.0 -18.0 -16.0 2.0 8.0 -4.0 Q15.1 0.25 18.5 6.15 22.0 12.15 20.25 17.7 16.1 31.15 -13.0 33.0 L-19.0 33.0 -20.85 20.0 -29.0 20.0 -29.0 -30.15 Q-28.95 -33.95 -26.15 -37.55 -23.9 -40.5 -20.85 -41.5 L-18.0 -42.0 Q-10.7 -42.2 -12.0 -42.0" fill="url(#gradient0)" fill-rule="evenodd" stroke="none"/>
    <path d="M25.3 -33.5 Q30.0 -29.95 30.0 -25.0 30.0 -20.05 25.3 -16.55 20.65 -13.0 14.0 -13.0 7.35 -13.0 2.65 -16.55 -2.0 -20.05 -2.0 -25.0 -2.0 -29.95 2.65 -33.5 7.35 -37.0 14.0 -37.0 20.65 -37.0 25.3 -33.5" fill="url(#gradient1)" fill-rule="evenodd" stroke="none"/>
    <path d="M14.0 -12.4 Q8.0 -12.4 3.8 -15.6 -0.4 -18.75 -0.4 -23.2 -0.4 -27.65 3.8 -30.85 8.0 -34.0 14.0 -34.0 20.0 -34.0 24.15 -30.85 28.4 -27.65 28.4 -23.2 28.4 -18.75 24.15 -15.6 20.0 -12.4 14.0 -12.4" fill="url(#gradient2)" fill-rule="evenodd" stroke="none"/>
    <path d="M14.0 -31.2 Q19.0 -31.2 22.45 -28.55 25.1 -26.55 25.8 -24.0 L26.0 -22.4 26.0 0.0 2.0 0.0 2.0 -22.4 2.25 -24.0 Q2.9 -26.55 5.5 -28.55 9.0 -31.2 14.0 -31.2" fill="url(#gradient3)" fill-rule="evenodd" stroke="none"/>
    <path d="M2.0 -19.7 L2.25 -21.3 Q2.9 -23.85 5.5 -25.85 9.0 -28.5 14.0 -28.5 19.0 -28.5 22.45 -25.85 25.1 -23.85 25.8 -21.3 L26.0 -19.7" fill="none" stroke="url(#gradient4)" stroke-linecap="round" stroke-linejoin="round" stroke-width="0.5"/>
    <path d="M2.0 -16.7 L2.25 -18.3 Q2.9 -20.85 5.5 -22.85 9.0 -25.5 14.0 -25.5 19.0 -25.5 22.45 -22.85 25.1 -20.85 25.8 -18.3 L26.0 -16.7" fill="none" stroke="url(#gradient5)" stroke-linecap="round" stroke-linejoin="round" stroke-width="0.5"/>
    <path d="M2.0 -13.7 L2.25 -15.3 Q2.9 -17.85 5.5 -19.85 9.0 -22.5 14.0 -22.5 19.0 -22.5 22.45 -19.85 25.1 -17.85 25.8 -15.3 L26.0 -13.7" fill="none" stroke="url(#gradient6)" stroke-linecap="round" stroke-linejoin="round" stroke-width="0.5"/>
    <path d="M2.0 -10.7 L2.25 -12.3 Q2.9 -14.85 5.5 -16.85 9.0 -19.5 14.0 -19.5 19.0 -19.5 22.45 -16.85 25.1 -14.85 25.8 -12.3 L26.0 -10.7" fill="none" stroke="url(#gradient7)" stroke-linecap="round" stroke-linejoin="round" stroke-width="0.5"/>
    <path d="M2.0 -1.7 L2.25 -3.3 Q2.9 -5.85 5.5 -7.85 9.0 -10.5 14.0 -10.5 19.0 -10.5 22.45 -7.85 25.1 -5.85 25.8 -3.3 L26.0 -1.7" fill="none" stroke="url(#gradient8)" stroke-linecap="round" stroke-linejoin="round" stroke-width="0.5"/>
    <path d="M2.0 -4.7 L2.25 -6.3 Q2.9 -8.85 5.5 -10.85 9.0 -13.5 14.0 -13.5 19.0 -13.5 22.45 -10.85 25.1 -8.85 25.8 -6.3 L26.0 -4.7" fill="none" stroke="url(#gradient9)" stroke-linecap="round" stroke-linejoin="round" stroke-width="0.5"/>
    <path d="M2.0 -7.7 L2.25 -9.3 Q2.9 -11.85 5.5 -13.85 9.0 -16.5 14.0 -16.5 19.0 -16.5 22.45 -13.85 25.1 -11.85 25.8 -9.3 L26.0 -7.7" fill="none" stroke="url(#gradient10)" stroke-linecap="round" stroke-linejoin="round" stroke-width="0.5"/>
    <path d="M26.0 0.0 L2.0 0.0" fill="none" stroke="url(#gradient11)" stroke-linecap="round" stroke-linejoin="round" stroke-width="0.5"/>
    <path d="M24.7 -3.95 Q19.0 -5.8 9.95 -6.5 L14.0 -7.0 Q20.2 -7.0 24.7 -3.95" fill="url(#gradient12)" fill-rule="evenodd" stroke="none"/>
    <path d="M-22.0 -18.0 L-20.0 5.0 Q-32.35 -6.2 -33.0 -18.0 L-22.0 -18.0" fill="#000000" fill-opacity="0.2" fill-rule="evenodd" stroke="none"/>
    <path d="M39.0 -39.25 L39.0 -28.0 32.0 -18.0 32.0 -35.8 31.9 -35.85 34.0 -38.0 39.0 -39.25" fill="url(#gradient13)" fill-rule="evenodd" stroke="none"/>
    <path d="M33.85 -37.8 Q25.55 -42.15 14.65 -43.4 0.3 -45.0 -11.4 -39.65 -14.85 -37.75 -16.0 -36.0 L-20.0 -39.0 Q-16.45 -42.25 -12.9 -43.85 0.55 -50.75 18.05 -48.3 34.05 -46.1 38.95 -39.25 L33.85 -37.8" fill="url(#gradient14)" fill-rule="evenodd" stroke="none"/>
    <path d="M40.0 -6.0 Q39.9 -0.8 39.2 5.05 L38.0 15.0 32.0 15.0 Q34.55 1.85 35.0 -6.0 35.75 -18.5 34.0 -28.0 L39.05 -28.0 Q40.2 -22.4 40.0 -6.0" fill="url(#gradient15)" fill-rule="evenodd" stroke="none"/>
    <path d="M33.8 -37.8 L31.9 -35.85 Q22.8 -41.15 8.65 -41.2 -6.95 -41.25 -15.0 -34.0 L-16.0 -36.0 Q-14.9 -37.75 -11.5 -39.6 -0.8 -44.8 13.8 -43.6 22.2 -42.9 29.05 -40.15 31.8 -39.05 33.8 -37.8" fill="url(#gradient16)" fill-rule="evenodd" stroke="none"/>
    <path d="M35.3 -12.55 Q35.3 -3.5 34.0 3.0 L32.0 1.0 Q34.2 -12.05 32.0 -26.0 L34.0 -28.0 Q35.3 -21.7 35.3 -12.55" fill="url(#gradient17)" fill-rule="evenodd" stroke="none"/>
    <path d="M-15.0 -34.0 L-19.3 -17.4 -13.9 1.4 -16.0 0.0 -21.0 -18.0 -16.0 -36.0 -15.0 -34.0" fill="url(#gradient18)" fill-rule="evenodd" stroke="none"/>
    <path d="M-32.0 -16.0 Q-30.95 -20.65 -27.05 -28.2 -23.1 -35.75 -20.0 -39.0 L-16.0 -36.0 -21.0 -18.0 -16.0 0.0 Q-17.3 2.6 -20.0 5.0 -23.5 1.75 -27.0 -4.2 -30.85 -10.7 -32.0 -16.0" fill="url(#gradient19)" fill-rule="evenodd" stroke="none"/>
    <path d="M-18.0 -22.0 L-18.0 -20.0 -34.0 -18.0 -34.0 -20.0 -18.0 -22.0" fill="#000000" fill-opacity="0.2" fill-rule="evenodd" stroke="none"/>
    <path d="M-15.0 -22.0 Q-39.95 -22.4 -49.35 -5.6 -53.4 1.6 -53.3 10.55 -53.25 19.25 -49.3 27.5 -45.2 35.95 -37.95 41.85 -30.05 48.2 -19.85 50.3 4.35 55.3 34.0 36.0" fill="none" stroke="url(#gradient20)" stroke-linecap="round" stroke-linejoin="round" stroke-width="2.0"/>
    <path d="M25.25 -12.1 Q18.85 -17.85 7.9 -20.05 1.3 -21.4 -11.5 -21.85" fill="none" stroke="url(#gradient21)" stroke-linecap="round" stroke-linejoin="round" stroke-width="2.0"/>
  </g>
  <defs>
    <linearGradient gradientTransform="matrix(0.0283, 0.0, 0.0, 0.0463, -5.85, -4.15)" gradientUnits="userSpaceOnUse" id="gradient0" spreadMethod="pad" x1="-819.2" x2="819.2">
      <stop offset="0.0" stop-color="#959595"/>
      <stop offset="0.09803921568627451" stop-color="#5b5b5b"/>
      <stop offset="0.5098039215686274" stop-color="#fbfbfb"/>
      <stop offset="0.6588235294117647" stop-color="#fbfbfb"/>
      <stop offset="0.9450980392156862" stop-color="#6d6d6d"/>
    </linearGradient>
    <linearGradient gradientTransform="matrix(0.0195, 0.0, 0.0, 0.0146, 14.0, -25.0)" gradientUnits="userSpaceOnUse" id="gradient1" spreadMethod="pad" x1="-819.2" x2="819.2">
      <stop offset="0.0" stop-color="#4e4e4e"/>
      <stop offset="0.10980392156862745" stop-color="#151515"/>
      <stop offset="0.4745098039215686" stop-color="#a3a3a3"/>
      <stop offset="0.5843137254901961" stop-color="#a3a3a3"/>
      <stop offset="0.8941176470588236" stop-color="#313131"/>
      <stop offset="1.0" stop-color="#4e4e4e"/>
    </linearGradient>
    <linearGradient gradientTransform="matrix(0.0, 0.0133, -0.0132, 0.0, 14.0, -23.2)" gradientUnits="userSpaceOnUse" id="gradient2" spreadMethod="pad" x1="-819.2" x2="819.2">
      <stop offset="0.0" stop-color="#585858"/>
      <stop offset="0.30196078431372547" stop-color="#555555"/>
      <stop offset="1.0" stop-color="#434343"/>
    </linearGradient>
    <linearGradient gradientTransform="matrix(0.0146, 0.0, 0.0, 0.019, 14.0, -15.6)" gradientUnits="userSpaceOnUse" id="gradient3" spreadMethod="pad" x1="-819.2" x2="819.2">
      <stop offset="0.0" stop-color="#30343a"/>
      <stop offset="0.11372549019607843" stop-color="#491818"/>
      <stop offset="0.4745098039215686" stop-color="#932424"/>
      <stop offset="0.6" stop-color="#932424"/>
      <stop offset="0.8627450980392157" stop-color="#491818"/>
      <stop offset="1.0" stop-color="#30343a"/>
    </linearGradient>
    <linearGradient gradientTransform="matrix(0.015, 0.0, 0.0, 0.0181, 14.0, -13.9)" gradientUnits="userSpaceOnUse" id="gradient4" spreadMethod="pad" x1="-819.2" x2="819.2">
      <stop offset="0.0" stop-color="#5e0d0d"/>
      <stop offset="0.27450980392156865" stop-color="#962121"/>
      <stop offset="0.5058823529411764" stop-color="#c80404"/>
      <stop offset="0.7647058823529411" stop-color="#760a0a"/>
    </linearGradient>
    <linearGradient gradientTransform="matrix(0.015, 0.0, 0.0, 0.0057, 14.0, -21.1)" gradientUnits="userSpaceOnUse" id="gradient5" spreadMethod="pad" x1="-819.2" x2="819.2">
      <stop offset="0.0" stop-color="#5e0d0d"/>
      <stop offset="0.27450980392156865" stop-color="#962121"/>
      <stop offset="0.5058823529411764" stop-color="#c80404"/>
      <stop offset="0.7647058823529411" stop-color="#760a0a"/>
    </linearGradient>
    <linearGradient gradientTransform="matrix(0.015, 0.0, 0.0, 0.0057, 14.0, -18.1)" gradientUnits="userSpaceOnUse" id="gradient6" spreadMethod="pad" x1="-819.2" x2="819.2">
      <stop offset="0.0" stop-color="#5e0d0d"/>
      <stop offset="0.27450980392156865" stop-color="#962121"/>
      <stop offset="0.5058823529411764" stop-color="#c80404"/>
      <stop offset="0.7647058823529411" stop-color="#760a0a"/>
    </linearGradient>
    <linearGradient gradientTransform="matrix(0.015, 0.0, 0.0, 0.0057, 14.0, -15.1)" gradientUnits="userSpaceOnUse" id="gradient7" spreadMethod="pad" x1="-819.2" x2="819.2">
      <stop offset="0.0" stop-color="#5e0d0d"/>
      <stop offset="0.27450980392156865" stop-color="#962121"/>
      <stop offset="0.5058823529411764" stop-color="#c80404"/>
      <stop offset="0.7647058823529411" stop-color="#760a0a"/>
    </linearGradient>
    <linearGradient gradientTransform="matrix(0.015, 0.0, 0.0, 0.0057, 14.0, -6.1)" gradientUnits="userSpaceOnUse" id="gradient8" spreadMethod="pad" x1="-819.2" x2="819.2">
      <stop offset="0.0" stop-color="#5e0d0d"/>
      <stop offset="0.27450980392156865" stop-color="#962121"/>
      <stop offset="0.5058823529411764" stop-color="#c80404"/>
      <stop offset="0.7647058823529411" stop-color="#760a0a"/>
    </linearGradient>
    <linearGradient gradientTransform="matrix(0.015, 0.0, 0.0, 0.0057, 14.0, -9.1)" gradientUnits="userSpaceOnUse" id="gradient9" spreadMethod="pad" x1="-819.2" x2="819.2">
      <stop offset="0.0" stop-color="#5e0d0d"/>
      <stop offset="0.27450980392156865" stop-color="#962121"/>
      <stop offset="0.5058823529411764" stop-color="#c80404"/>
      <stop offset="0.7647058823529411" stop-color="#760a0a"/>
    </linearGradient>
    <linearGradient gradientTransform="matrix(0.015, 0.0, 0.0, 0.0057, 14.0, -12.1)" gradientUnits="userSpaceOnUse" id="gradient10" spreadMethod="pad" x1="-819.2" x2="819.2">
      <stop offset="0.0" stop-color="#5e0d0d"/>
      <stop offset="0.27450980392156865" stop-color="#962121"/>
      <stop offset="0.5058823529411764" stop-color="#c80404"/>
      <stop offset="0.7647058823529411" stop-color="#760a0a"/>
    </linearGradient>
    <linearGradient gradientTransform="matrix(0.015, 0.0, 0.0, 0.0181, 14.0, -14.6)" gradientUnits="userSpaceOnUse" id="gradient11" spreadMethod="pad" x1="-819.2" x2="819.2">
      <stop offset="0.0" stop-color="#5e0d0d"/>
      <stop offset="0.43529411764705883" stop-color="#962121"/>
      <stop offset="0.6352941176470588" stop-color="#c80404"/>
      <stop offset="0.8470588235294118" stop-color="#760a0a"/>
    </linearGradient>
    <linearGradient gradientTransform="matrix(0.0195, 0.0, 0.0, 0.0146, 14.0, 5.0)" gradientUnits="userSpaceOnUse" id="gradient12" spreadMethod="pad" x1="-819.2" x2="819.2">
      <stop offset="0.0" stop-color="#4e4e4e"/>
      <stop offset="0.10980392156862745" stop-color="#151515"/>
      <stop offset="0.4745098039215686" stop-color="#a3a3a3"/>
      <stop offset="0.5843137254901961" stop-color="#a3a3a3"/>
      <stop offset="0.8941176470588236" stop-color="#313131"/>
      <stop offset="1.0" stop-color="#4e4e4e"/>
    </linearGradient>
    <linearGradient gradientTransform="matrix(0.0, -0.0134, 0.006, 0.0, 28.7, -28.65)" gradientUnits="userSpaceOnUse" id="gradient13" spreadMethod="pad" x1="-819.2" x2="819.2">
      <stop offset="0.10196078431372549" stop-color="#000000"/>
      <stop offset="0.5215686274509804" stop-color="#77674b"/>
      <stop offset="1.0" stop-color="#6b603f"/>
    </linearGradient>
    <linearGradient gradientTransform="matrix(0.0373, 0.0, 0.0, 0.023, 8.5, -29.9)" gradientUnits="userSpaceOnUse" id="gradient14" spreadMethod="pad" x1="-819.2" x2="819.2">
      <stop offset="0.0" stop-color="#897b52"/>
      <stop offset="0.1843137254901961" stop-color="#675b3a"/>
      <stop offset="0.4196078431372549" stop-color="#b3a57d"/>
      <stop offset="0.5843137254901961" stop-color="#ece1ae"/>
      <stop offset="0.6549019607843137" stop-color="#f2e9cc"/>
      <stop offset="0.7254901960784313" stop-color="#ece1ae"/>
      <stop offset="0.9372549019607843" stop-color="#9f8f60"/>
    </linearGradient>
    <linearGradient gradientTransform="matrix(1.0E-4, -0.0256, 0.0256, 1.0E-4, 35.5, -7.0)" gradientUnits="userSpaceOnUse" id="gradient15" spreadMethod="pad" x1="-819.2" x2="819.2">
      <stop offset="0.09019607843137255" stop-color="#857250"/>
      <stop offset="0.5647058823529412" stop-color="#938357"/>
      <stop offset="0.9372549019607843" stop-color="#a99c63"/>
    </linearGradient>
    <linearGradient gradientTransform="matrix(0.0328, 0.0, 0.0, 0.0231, 6.9, -24.95)" gradientUnits="userSpaceOnUse" id="gradient16" spreadMethod="pad" x1="-819.2" x2="819.2">
      <stop offset="0.0" stop-color="#3e3424"/>
      <stop offset="0.1843137254901961" stop-color="#544938"/>
      <stop offset="0.5607843137254902" stop-color="#938357"/>
      <stop offset="0.7372549019607844" stop-color="#ac9d75"/>
      <stop offset="1.0" stop-color="#857750"/>
    </linearGradient>
    <linearGradient gradientTransform="matrix(0.002, 0.0, 0.0, 0.0177, 33.65, -13.5)" gradientUnits="userSpaceOnUse" id="gradient17" spreadMethod="pad" x1="-819.2" x2="819.2">
      <stop offset="0.0" stop-color="#5e4e3e"/>
      <stop offset="1.0" stop-color="#372f24"/>
    </linearGradient>
    <linearGradient gradientTransform="matrix(0.0044, 0.0, 0.0, 0.0104, -17.45, -9.5)" gradientUnits="userSpaceOnUse" id="gradient18" spreadMethod="pad" x1="-819.2" x2="819.2">
      <stop offset="0.0" stop-color="#5e4e3e"/>
      <stop offset="1.0" stop-color="#372f24"/>
    </linearGradient>
    <linearGradient gradientTransform="matrix(0.0059, 0.0254, -0.0136, 0.0032, -33.8, -14.05)" gradientUnits="userSpaceOnUse" id="gradient19" spreadMethod="pad" x1="-819.2" x2="819.2">
      <stop offset="0.011764705882352941" stop-color="#bbab7b"/>
      <stop offset="0.47058823529411764" stop-color="#9f8f60"/>
      <stop offset="0.9882352941176471" stop-color="#817154"/>
    </linearGradient>
    <linearGradient gradientTransform="matrix(0.0545, 0.0, 0.0, 0.046, -9.65, 14.65)" gradientUnits="userSpaceOnUse" id="gradient20" spreadMethod="pad" x1="-819.2" x2="819.2">
      <stop offset="0.0196078431372549" stop-color="#761616"/>
      <stop offset="0.43529411764705883" stop-color="#ae2626"/>
      <stop offset="0.6352941176470588" stop-color="#fa0c0c"/>
      <stop offset="0.8470588235294118" stop-color="#960c0c"/>
    </linearGradient>
    <linearGradient gradientTransform="matrix(0.0237, 0.0, 0.0, 0.0072, 6.85, -17.0)" gradientUnits="userSpaceOnUse" id="gradient21" spreadMethod="pad" x1="-819.2" x2="819.2">
      <stop offset="0.0" stop-color="#a72525"/>
      <stop offset="0.7333333333333333" stop-color="#c82828"/>
      <stop offset="0.9568627450980393" stop-color="#5b1c1c"/>
    </linearGradient>
  </defs>
</svg>
