<?xml version="1.0" encoding="UTF-8" standalone="no"?>
<svg xmlns:xlink="http://www.w3.org/1999/xlink" height="37.0px" width="10.4px" xmlns="http://www.w3.org/2000/svg">
  <g transform="matrix(1.0, 0.0, 0.0, 1.0, 5.2, 19.0)">
    <path d="M0.0 11.7 Q1.0 11.7 1.7 11.0 2.4 10.3 2.4 9.3 2.4 8.3 1.7 7.6 1.0 6.9 0.0 6.9 -1.0 6.9 -1.7 7.6 -2.4 8.3 -2.4 9.3 -2.4 10.3 -1.7 11.0 -1.0 11.7 0.0 11.7 M0.0 13.3 Q-1.65 13.3 -2.85 12.1 -4.0 10.95 -4.0 9.3 -4.0 7.65 -2.85 6.45 -1.65 5.3 0.0 5.3 1.65 5.3 2.8 6.45 4.0 7.65 4.0 9.3 4.0 10.95 2.8 12.1 1.65 13.3 0.0 13.3" fill="url(#gradient0)" fill-rule="evenodd" stroke="none"/>
    <path d="M1.5 18.0 L-1.5 18.0 -1.5 13.0 Q0.0 11.55 1.5 13.0 L1.5 18.0" fill="url(#gradient1)" fill-rule="evenodd" stroke="none"/>
    <path d="M0.1 8.1 Q-0.65 8.1 -1.0 7.5 L-1.0 1.5 1.0 1.5 1.0 7.5 Q0.85 8.05 0.1 8.1" fill="url(#gradient2)" fill-rule="evenodd" stroke="none"/>
    <path d="M4.0 -19.0 Q6.4 -14.6 3.95 -11.75 1.25 -8.65 1.0 -5.0 0.6 -2.2 1.15 -1.15 L1.7 -0.15 2.0 1.0 1.55 2.3 Q1.0 3.0 0.0 3.0 -1.0 3.0 -1.55 2.3 L-2.0 1.0 -1.7 -0.15 -1.15 -1.15 Q-0.6 -2.2 -1.0 -5.0 -1.25 -8.65 -3.95 -11.75 -6.4 -14.6 -4.0 -19.0 -3.75 -13.55 0.0 -12.0 3.75 -13.55 4.0 -19.0" fill="url(#gradient3)" fill-rule="evenodd" stroke="none"/>
  </g>
  <defs>
    <radialGradient cx="0" cy="0" gradientTransform="matrix(0.0038, -0.0055, 0.0071, 0.005, 2.5, 10.85)" gradientUnits="userSpaceOnUse" id="gradient0" r="819.2" spreadMethod="pad">
      <stop offset="0.09019607843137255" stop-color="#e9e4dc"/>
      <stop offset="0.1803921568627451" stop-color="#e0dac9"/>
      <stop offset="0.6549019607843137" stop-color="#a9936b"/>
      <stop offset="1.0" stop-color="#dbd1a4"/>
    </radialGradient>
    <linearGradient gradientTransform="matrix(0.0018, 0.0, 0.0, 0.0031, 0.0, 15.5)" gradientUnits="userSpaceOnUse" id="gradient1" spreadMethod="pad" x1="-819.2" x2="819.2">
      <stop offset="0.0" stop-color="#9f8f60"/>
      <stop offset="0.5019607843137255" stop-color="#ded8bc"/>
      <stop offset="1.0" stop-color="#9f8f60"/>
    </linearGradient>
    <linearGradient gradientTransform="matrix(0.0012, 0.0, 0.0, 0.0018, 0.0, 4.0)" gradientUnits="userSpaceOnUse" id="gradient2" spreadMethod="pad" x1="-819.2" x2="819.2">
      <stop offset="0.0" stop-color="#9f8f60"/>
      <stop offset="0.5019607843137255" stop-color="#ded8bc"/>
      <stop offset="1.0" stop-color="#9f8f60"/>
    </linearGradient>
    <radialGradient color-interpolation="linearRGB" cx="0" cy="0" gradientTransform="matrix(0.0175, 0.0, 0.0, 0.0238, 0.05, 0.9)" gradientUnits="userSpaceOnUse" id="gradient3" r="819.2" spreadMethod="pad">
      <stop offset="0.06666666666666667" stop-color="#d50d0d"/>
      <stop offset="0.13725490196078433" stop-color="#5c0505"/>
      <stop offset="0.3058823529411765" stop-color="#8c0909"/>
      <stop offset="0.7254901960784313" stop-color="#d80303"/>
      <stop offset="0.807843137254902" stop-color="#d10303"/>
      <stop offset="1.0" stop-color="#700101"/>
    </radialGradient>
  </defs>
</svg>
