<?xml version="1.0" encoding="UTF-8" standalone="no"?>
<svg xmlns:xlink="http://www.w3.org/1999/xlink" height="117.0px" width="102.0px" xmlns="http://www.w3.org/2000/svg">
  <g transform="matrix(1.0, 0.0, 0.0, 1.0, 49.5, 57.5)">
    <path d="M1.0 -50.5 L1.4 -50.45 1.55 -50.45 1.7 -50.4 20.55 -46.45 Q21.2 -46.3 21.7 -45.85 L43.5 -41.45 Q44.3 -41.3 44.9 -40.65 45.45 -40.05 45.5 -39.2 L52.5 38.8 Q52.6 39.7 52.05 40.5 51.45 41.25 50.55 41.45 L-31.45 59.45 -33.1 59.25 -45.1 53.25 -46.1 52.35 -46.5 51.1 -49.5 -39.9 Q-49.55 -40.8 -49.0 -41.45 L-38.0 -56.45 Q-37.6 -57.05 -36.9 -57.3 L-35.5 -57.45 -1.2 -50.5 0.85 -50.5 1.0 -50.5" fill="#000000" fill-rule="evenodd" stroke="none"/>
    <path d="M50.0 39.0 L-32.0 57.0 -34.65 -17.65 46.8 3.2 50.0 39.0" fill="url(#gradient0)" fill-rule="evenodd" stroke="none"/>
    <path d="M-20.5 -14.0 L-19.15 23.95 -11.8 31.0 -18.55 40.5 -18.1 53.95 -23.05 55.05 -23.55 41.25 -31.05 33.7 -24.15 24.2 -25.55 -15.3 -20.5 -14.0 M-25.75 33.0 L-23.8 34.95 -21.2 37.55 -19.05 34.6 -19.0 34.45 -17.1 31.8 -21.65 27.4 -25.75 33.0" fill="url(#gradient1)" fill-rule="evenodd" stroke="none"/>
    <path d="M1.0 -46.0 L-2.0 -46.0 -2.0 -48.0 1.0 -48.0 1.0 -46.0" fill="#312b2e" fill-rule="evenodd" stroke="none"/>
    <path d="M20.0 -44.0 L23.0 -3.0 23.0 -2.9 46.8 3.2 M2.8 -8.05 L3.0 -3.0 Q3.2 1.3 6.4 4.3 9.4 7.1 13.4 7.5 17.5 7.9 20.15 5.4 23.15 2.6 23.0 -2.9 L2.8 -8.05 -34.65 -17.65 -36.0 -55.0 M2.8 -8.05 L1.0 -48.0" fill="none" stroke="#000000" stroke-linecap="round" stroke-linejoin="round" stroke-opacity="0.5019608" stroke-width="1.5"/>
    <path d="M46.4 -1.25 L-34.05 -23.65 -35.2 -54.8 43.0 -39.0 46.4 -1.25" fill="url(#gradient2)" fill-rule="evenodd" stroke="none"/>
    <path d="M-34.05 -23.65 L46.4 -1.25 46.75 3.0 -33.85 -17.65 -34.05 -23.65" fill="url(#gradient3)" fill-rule="evenodd" stroke="none"/>
    <path d="M-36.0 -55.0 L-32.0 57.0 -44.0 51.0 -47.0 -40.0 -36.0 -55.0" fill="url(#gradient4)" fill-rule="evenodd" stroke="none"/>
    <path d="M19.0 -44.0 L22.0 -3.0 Q22.2 2.6 19.15 5.4 16.5 7.9 12.4 7.5 8.4 7.1 5.4 4.3 2.2 1.3 2.0 -3.0 L0.0 -48.0 19.0 -44.0" fill="#000000" fill-opacity="0.2509804" fill-rule="evenodd" stroke="none"/>
    <path d="M1.0 -48.0 L20.0 -44.0 23.0 -3.0 Q23.2 2.6 20.15 5.4 17.5 7.9 13.4 7.5 9.4 7.1 6.4 4.3 3.2 1.3 3.0 -3.0 L1.0 -48.0" fill="url(#gradient5)" fill-rule="evenodd" stroke="none"/>
    <path d="M20.95 -31.55 L18.55 -30.2 21.2 -27.9 21.8 -19.25 12.25 -26.5 2.2 -21.75 1.8 -30.65 5.1 -32.25 1.6 -34.7 1.2 -43.9 12.0 -35.5 20.35 -39.65 20.95 -31.55" fill="url(#gradient6)" fill-rule="evenodd" stroke="none"/>
  </g>
  <defs>
    <linearGradient gradientTransform="matrix(0.0366, -0.0659, 0.0398, 0.0221, -3.8, 3.45)" gradientUnits="userSpaceOnUse" id="gradient0" spreadMethod="pad" x1="-819.2" x2="819.2">
      <stop offset="0.0" stop-color="#606060"/>
      <stop offset="1.0" stop-color="#262626"/>
    </linearGradient>
    <linearGradient gradientTransform="matrix(0.0376, -0.0691, 0.0377, 0.0205, 17.95, 18.3)" gradientUnits="userSpaceOnUse" id="gradient1" spreadMethod="pad" x1="-819.2" x2="819.2">
      <stop offset="0.0" stop-color="#f4f4f4"/>
      <stop offset="0.9490196078431372" stop-color="#b5b5b5"/>
    </linearGradient>
    <linearGradient gradientTransform="matrix(0.0396, -0.0663, 0.0272, 0.0163, 38.3, 27.5)" gradientUnits="userSpaceOnUse" id="gradient2" spreadMethod="pad" x1="-819.2" x2="819.2">
      <stop offset="0.0" stop-color="#665965"/>
      <stop offset="0.8470588235294118" stop-color="#383238"/>
      <stop offset="1.0" stop-color="#383237"/>
    </linearGradient>
    <linearGradient gradientTransform="matrix(0.0393, -0.0661, 0.0141, 0.0084, 12.0, 12.85)" gradientUnits="userSpaceOnUse" id="gradient3" spreadMethod="pad" x1="-819.2" x2="819.2">
      <stop offset="0.0" stop-color="#d68f4b"/>
      <stop offset="1.0" stop-color="#9b5f24"/>
    </linearGradient>
    <linearGradient gradientTransform="matrix(0.0313, -0.0652, 0.0616, 0.0295, -36.8, -5.3)" gradientUnits="userSpaceOnUse" id="gradient4" spreadMethod="pad" x1="-819.2" x2="819.2">
      <stop offset="0.0" stop-color="#7c5858"/>
      <stop offset="1.0" stop-color="#5f4343"/>
    </linearGradient>
    <linearGradient gradientTransform="matrix(0.0417, -0.0633, 0.0283, 0.0186, -3.45, 2.35)" gradientUnits="userSpaceOnUse" id="gradient5" spreadMethod="pad" x1="-819.2" x2="819.2">
      <stop offset="0.0" stop-color="#7e7278"/>
      <stop offset="0.8117647058823529" stop-color="#4a4246"/>
      <stop offset="1.0" stop-color="#5a5055"/>
    </linearGradient>
    <linearGradient gradientTransform="matrix(0.0405, -0.0633, 0.0119, 0.0076, -5.65, -17.7)" gradientUnits="userSpaceOnUse" id="gradient6" spreadMethod="pad" x1="-819.2" x2="819.2">
      <stop offset="0.0" stop-color="#eaeaea"/>
      <stop offset="0.9490196078431372" stop-color="#b8b8b8"/>
    </linearGradient>
  </defs>
</svg>
