<?xml version="1.0" encoding="UTF-8" standalone="no"?>
<svg xmlns:xlink="http://www.w3.org/1999/xlink" height="65.0px" width="106.9px" xmlns="http://www.w3.org/2000/svg">
  <g transform="matrix(1.0, 0.0, 0.0, 1.0, -0.35, -0.5)">
    <path d="M106.75 3.75 Q104.75 13.8 100.45 22.45 96.95 29.4 90.5 38.0 68.0 65.0 63.5 65.0 62.75 65.0 62.05 63.95 L61.95 63.8 63.25 61.3 64.4 59.4 Q64.75 58.5 66.2 56.35 L68.8 52.25 70.65 48.6 72.0 44.6 Q73.1 40.5 75.2 35.85 77.1 31.6 79.25 28.25 82.75 22.65 91.45 12.9 102.15 1.0 106.1 1.0 106.75 1.0 106.75 3.75 M20.55 36.4 Q13.95 30.75 7.85 22.5 2.8 15.65 0.95 11.2 0.5 10.0 1.75 10.0 2.35 10.0 10.9 17.65 L26.45 32.15 49.25 54.5 48.75 54.6 46.0 54.6 Q28.55 43.25 20.55 36.4" fill="#9dae97" fill-rule="evenodd" stroke="none"/>
    <path d="M106.75 3.75 Q104.75 13.8 100.45 22.45 96.95 29.4 90.5 38.0 68.0 65.0 63.5 65.0 62.75 65.0 62.05 63.95 L61.95 63.8 63.25 61.3 64.4 59.4 Q64.75 58.5 66.2 56.35 L68.8 52.25 70.65 48.6 72.0 44.6 Q73.1 40.5 75.2 35.85 77.1 31.6 79.25 28.25 82.75 22.65 91.45 12.9 102.15 1.0 106.1 1.0 106.75 1.0 106.75 3.75 M20.55 36.4 Q28.55 43.25 46.0 54.6 L48.75 54.6 49.25 54.5 26.45 32.15 10.9 17.65 Q2.35 10.0 1.75 10.0 0.5 10.0 0.95 11.2 2.8 15.65 7.85 22.5 13.95 30.75 20.55 36.4" fill="none" stroke="#000000" stroke-linecap="round" stroke-linejoin="round" stroke-width="1.0"/>
  </g>
</svg>
