<?xml version="1.0" encoding="UTF-8" standalone="no"?>
<svg xmlns:xlink="http://www.w3.org/1999/xlink" height="61.15px" width="112.0px" xmlns="http://www.w3.org/2000/svg">
  <g transform="matrix(1.0, 0.0, 0.0, 1.0, 0.15, -60.3)">
    <path d="M64.55 66.95 Q63.9 65.75 63.95 64.75 64.0 63.5 65.3 63.1 69.85 63.65 78.8 72.1 87.65 80.55 94.65 90.95 99.75 98.65 104.3 107.25 L107.4 112.7 111.1 119.65 Q111.6 120.9 111.1 120.95 L110.5 120.85 Q98.15 117.05 87.95 104.7 79.0 93.85 64.55 66.95 M8.85 97.45 Q16.8 88.15 23.25 83.9 L56.25 62.4 57.2 61.7 Q58.25 61.0 58.9 60.85 59.95 60.65 59.75 61.5 59.35 63.3 53.0 68.2 L46.25 73.15 Q38.3 79.35 29.5 88.4 24.85 93.1 15.4 100.45 7.45 106.55 1.85 113.25 L0.6 113.25 0.5 112.65 0.35 112.0 Q0.35 107.45 8.85 97.45" fill="#9dae97" fill-rule="evenodd" stroke="none"/>
    <path d="M8.85 97.45 Q0.35 107.45 0.35 112.0 L0.5 112.65 0.6 113.25 1.85 113.25 Q7.45 106.55 15.4 100.45 24.85 93.1 29.5 88.4 38.3 79.35 46.25 73.15 L53.0 68.2 Q59.35 63.3 59.75 61.5 59.95 60.65 58.9 60.85 58.25 61.0 57.2 61.7 L56.25 62.4 23.25 83.9 Q16.8 88.15 8.85 97.45 M64.55 66.95 Q79.0 93.85 87.95 104.7 98.15 117.05 110.5 120.85 L111.1 120.95 Q111.6 120.9 111.1 119.65 L107.4 112.7 104.3 107.25 Q99.75 98.65 94.65 90.95 87.65 80.55 78.8 72.1 69.85 63.65 65.3 63.1 64.0 63.5 63.95 64.75 63.9 65.75 64.55 66.95" fill="none" stroke="#000000" stroke-linecap="round" stroke-linejoin="round" stroke-width="1.0"/>
  </g>
</svg>
