<?xml version="1.0" encoding="UTF-8" standalone="no"?>
<svg xmlns:xlink="http://www.w3.org/1999/xlink" height="258.0px" width="76.0px" xmlns="http://www.w3.org/2000/svg">
  <g transform="matrix(1.0, 0.0, 0.0, 1.0, 0.0, -8.0)">
    <path d="M74.0 8.0 Q76.0 8.0 76.0 10.0 L76.0 264.0 Q76.0 266.0 74.0 266.0 L2.0 266.0 Q0.0 266.0 0.0 264.0 L0.0 10.0 Q0.0 8.0 2.0 8.0 L74.0 8.0" fill="#000000" fill-rule="evenodd" stroke="none"/>
    <path d="M74.0 11.0 L74.0 263.0 Q74.0 264.0 73.0 264.0 L3.0 264.0 Q2.0 264.0 2.0 263.0 L2.0 11.0 Q2.0 10.0 3.0 10.0 L73.0 10.0 Q74.0 10.0 74.0 11.0" fill="url(#gradient0)" fill-rule="evenodd" stroke="none"/>
  </g>
  <defs>
    <linearGradient gradientTransform="matrix(0.0, 0.155, -0.155, 0.0, 38.0, 137.0)" gradientUnits="userSpaceOnUse" id="gradient0" spreadMethod="pad" x1="-819.2" x2="819.2">
      <stop offset="0.0" stop-color="#55504b"/>
      <stop offset="1.0" stop-color="#7f7871"/>
    </linearGradient>
  </defs>
</svg>
