<?xml version="1.0" encoding="UTF-8" standalone="no"?>
<svg xmlns:xlink="http://www.w3.org/1999/xlink" height="160.0px" width="228.0px" xmlns="http://www.w3.org/2000/svg">
  <g transform="matrix(1.0, 0.0, 0.0, 1.0, 0.0, 0.0)">
    <path d="M226.0 0.0 Q228.0 0.0 228.0 2.0 L228.0 158.0 Q228.0 160.0 226.0 160.0 L2.0 160.0 Q0.0 160.0 0.0 158.0 L0.0 2.0 Q0.0 0.0 2.0 0.0 L226.0 0.0" fill="#000000" fill-rule="evenodd" stroke="none"/>
    <path d="M226.0 3.0 L226.0 157.0 Q226.0 158.0 225.0 158.0 L3.0 158.0 Q2.0 158.0 2.0 157.0 L2.0 3.0 Q2.0 2.0 3.0 2.0 L225.0 2.0 Q226.0 2.0 226.0 3.0" fill="url(#gradient0)" fill-rule="evenodd" stroke="none"/>
  </g>
  <defs>
    <linearGradient gradientTransform="matrix(0.0, 0.0977, -0.155, 0.0, 44.5, 82.0)" gradientUnits="userSpaceOnUse" id="gradient0" spreadMethod="pad" x1="-819.2" x2="819.2">
      <stop offset="0.0" stop-color="#55504b"/>
      <stop offset="1.0" stop-color="#7f7871"/>
    </linearGradient>
  </defs>
</svg>
