<?xml version="1.0" encoding="UTF-8" standalone="no"?>
<svg xmlns:xlink="http://www.w3.org/1999/xlink" height="143.05px" width="119.45px" xmlns="http://www.w3.org/2000/svg">
  <g transform="matrix(1.0, 0.0, 0.0, 1.0, 67.45, 57.05)">
    <path d="M0.7 -9.85 Q2.05 -8.25 2.45 -5.65 L2.45 -5.6 Q2.7 -3.4 2.0 -1.6 2.9 1.55 4.45 4.3 6.9 8.75 7.55 10.6 9.0 14.6 9.0 20.0 L8.7 22.5 8.7 22.6 7.85 25.2 Q7.45 27.7 6.65 29.65 L6.65 29.6 5.0 32.75 5.0 36.4 Q11.3 34.65 15.75 31.25 23.35 25.3 27.35 16.95 L27.35 17.0 Q31.7 7.75 31.4 -3.7 31.15 -15.55 25.55 -23.15 20.2 -30.35 12.0 -30.4 5.7 -30.35 2.9 -24.55 L2.9 -24.6 Q0.6 -19.75 0.6 -12.4 L0.7 -9.85 M52.0 -7.0 Q52.15 22.75 34.3 39.5 21.8 51.25 5.0 53.35 L5.0 80.35 Q5.5 81.05 5.5 82.0 L5.5 83.0 Q5.5 84.25 4.65 85.15 3.75 86.0 2.5 86.0 L-2.5 86.0 Q-3.75 86.0 -4.6 85.15 -5.5 84.25 -5.5 83.0 L-5.5 82.0 Q-5.5 81.05 -5.0 80.35 L-5.0 53.75 Q-20.5 53.15 -34.4 43.55 -47.8 34.3 -56.1 19.35 L-56.1 19.4 Q-57.2 17.55 -61.75 12.4 L-61.85 12.25 Q-66.95 5.6 -67.4 -0.35 L-67.35 -0.3 Q-67.85 -5.05 -66.05 -10.15 L-66.1 -10.15 Q-64.3 -15.65 -60.7 -18.85 -59.95 -19.55 -58.9 -19.6 -57.9 -19.7 -57.0 -19.1 -56.15 -18.55 -55.85 -17.55 L-55.8 -17.35 -55.4 -18.6 Q-54.9 -19.55 -53.95 -19.95 L-51.95 -20.05 Q-50.95 -19.75 -50.3 -18.9 -47.4 -14.7 -46.3 -9.1 L-45.9 -6.6 Q-44.95 -10.15 -45.0 -14.35 -45.0 -15.45 -44.35 -16.25 -43.7 -17.1 -42.65 -17.3 L-40.65 -17.05 Q-39.7 -16.6 -39.25 -15.6 -38.05 -12.95 -37.55 -8.95 -37.05 -5.1 -37.5 -2.05 -38.0 1.75 -42.75 9.8 -44.95 13.35 -44.6 14.75 -38.85 23.55 -31.2 29.4 L-31.15 29.45 Q-23.7 35.05 -15.5 37.1 -10.6 38.25 -5.0 38.0 L-5.0 32.75 -6.6 29.6 -6.6 29.65 Q-7.35 27.95 -7.75 25.85 -12.3 22.95 -16.3 17.5 -17.3 17.25 -18.35 16.65 L-18.35 16.7 Q-20.55 15.5 -21.9 12.9 -23.35 10.2 -22.95 7.7 L-22.7 6.4 Q-28.5 -6.1 -28.6 -18.45 -28.75 -34.2 -20.1 -44.55 -11.5 -55.0 3.05 -56.75 22.0 -59.1 37.0 -43.9 51.9 -28.8 52.0 -7.0 M-55.85 -15.6 Q-59.1 -6.75 -57.05 -0.1 L-57.1 -0.1 -56.75 0.9 -56.2 -0.4 Q-54.8 -3.9 -55.0 -9.15 L-55.0 -9.3 Q-55.0 -12.6 -55.7 -16.4 L-55.85 -15.6" fill="#000000" fill-rule="evenodd" stroke="none"/>
    <path d="M2.0 80.0 L2.0 81.0 -2.0 81.0 -2.0 80.0 2.0 80.0" fill="url(#gradient0)" fill-rule="evenodd" stroke="none"/>
    <path d="M-2.0 34.0 L-2.0 32.0 2.0 32.0 2.0 34.0 -2.0 34.0" fill="url(#gradient1)" fill-rule="evenodd" stroke="none"/>
    <path d="M2.0 81.0 L2.0 82.0 -2.0 82.0 -2.0 81.0 2.0 81.0" fill="url(#gradient2)" fill-rule="evenodd" stroke="none"/>
    <path d="M2.0 82.0 L2.5 82.0 2.5 83.0 -2.5 83.0 -2.5 82.0 -2.0 82.0 2.0 82.0" fill="url(#gradient3)" fill-rule="evenodd" stroke="none"/>
    <path d="M2.0 34.0 L2.0 80.0 -2.0 80.0 -2.0 34.0 2.0 34.0" fill="url(#gradient4)" fill-rule="evenodd" stroke="none"/>
    <path d="M2.0 53.0 L-2.0 53.0 -2.0 39.0 2.0 38.0 2.0 53.0" fill="#302925" fill-opacity="0.4" fill-rule="evenodd" stroke="none"/>
    <path d="M-49.25 -8.5 Q-48.5 -4.75 -48.6 0.8 -48.7 6.0 -49.65 9.5 -50.7 13.5 -52.5 13.5 -53.15 13.5 -54.15 11.25 -55.2 8.9 -55.2 6.9 -55.2 4.9 -53.45 0.75 -51.75 -3.25 -52.0 -9.3 -52.0 -12.95 -52.8 -17.2 -50.2 -13.45 -49.25 -8.5" fill="url(#gradient5)" fill-rule="evenodd" stroke="none"/>
    <path d="M0.2 -25.9 Q-2.4 -20.55 -2.4 -12.4 -2.4 -1.85 1.8 5.75 4.1 9.9 4.7 11.6 6.0 15.2 6.0 20.0 L5.75 21.95 5.0 24.0 -0.4 24.15 -5.0 24.0 Q-12.8 19.55 -19.0 7.2 -25.5 -5.7 -25.6 -18.5 -25.75 -33.05 -17.8 -42.65 -9.9 -52.2 3.4 -53.8 20.85 -55.9 34.7 -41.8 48.65 -27.6 49.0 -7.0 49.55 21.2 32.5 37.2 17.6 51.15 -3.4 50.8 -18.9 50.6 -32.7 41.05 -45.55 32.2 -53.5 17.9 -54.6 15.95 -59.5 10.4 -63.95 4.6 -64.4 -0.6 -64.8 -4.75 -63.25 -9.2 -61.7 -13.9 -58.7 -16.6 -62.3 -6.7 -59.95 0.8 -58.0 7.0 -52.2 10.9 -51.45 8.6 -49.5 5.9 L-46.1 1.2 Q-41.9 -5.2 -42.0 -14.4 -40.95 -12.05 -40.55 -8.55 -40.1 -5.15 -40.5 -2.5 -41.0 0.95 -45.35 8.25 -48.75 13.9 -47.1 16.4 -41.05 25.65 -33.0 31.8 -25.0 37.85 -16.2 40.0 -8.4 41.9 1.0 40.35 11.15 38.6 17.6 33.6 25.75 27.25 30.05 18.25 34.7 8.45 34.4 -3.8 34.1 -16.65 27.95 -24.95 21.65 -33.4 12.0 -33.4 3.85 -33.4 0.2 -25.9" fill="url(#gradient6)" fill-rule="evenodd" stroke="none"/>
    <path d="M3.7 28.3 Q3.35 31.85 1.65 32.3 -0.1 32.7 -2.2 29.8 -4.25 26.85 -5.45 22.15 -6.6 17.5 -6.25 13.95 -5.85 10.3 -4.1 9.9 -2.4 9.45 -0.35 12.45 1.75 15.35 2.9 20.0 4.1 24.7 3.7 28.3" fill="url(#gradient7)" fill-rule="evenodd" stroke="none"/>
    <path d="M-36.15 37.1 Q-38.95 35.2 -42.6 31.5 -46.15 27.8 -48.25 24.6 -50.4 21.25 -49.9 20.3 -49.4 19.35 -46.45 21.25 -43.6 23.1 -40.05 26.75 -36.45 30.45 -34.3 33.8 -32.2 37.0 -32.7 38.0 -33.25 38.95 -36.15 37.1" fill="url(#gradient8)" fill-rule="evenodd" stroke="none"/>
    <path d="M-23.85 -22.25 Q-23.7 -23.8 -22.95 -24.75 -22.15 -25.8 -21.1 -25.7 -20.1 -25.6 -19.45 -24.5 -18.85 -23.4 -19.0 -21.9 -19.1 -20.35 -19.9 -19.35 -20.65 -18.35 -21.7 -18.4 -22.7 -18.45 -23.35 -19.6 -23.95 -20.75 -23.85 -22.25" fill="url(#gradient9)" fill-rule="evenodd" stroke="none"/>
    <path d="M-3.85 -9.0 Q-2.65 -9.1 -1.75 -8.05 -0.8 -7.0 -0.55 -5.25 -0.35 -3.6 -0.95 -2.35 -1.6 -1.0 -2.75 -0.85 -3.85 -0.7 -4.8 -1.75 -5.75 -2.9 -5.95 -4.55 -6.2 -6.3 -5.55 -7.5 -4.95 -8.8 -3.85 -9.0" fill="url(#gradient10)" fill-rule="evenodd" stroke="none"/>
    <path d="M-19.25 11.5 Q-20.2 9.7 -20.0 8.05 -19.8 6.4 -18.6 5.75 -17.4 5.15 -15.95 6.0 -14.55 6.75 -13.6 8.55 -12.7 10.3 -12.85 12.0 -13.0 13.65 -14.2 14.25 -15.4 14.9 -16.9 14.05 -18.35 13.25 -19.25 11.5" fill="url(#gradient11)" fill-rule="evenodd" stroke="none"/>
    <path d="M0.0 32.0 L-2.0 32.0 -3.85 28.45 Q-4.65 26.55 -5.0 24.0 L0.0 24.0 5.0 24.0 Q4.65 26.55 3.85 28.45 L2.0 32.0 0.0 32.0" fill="url(#gradient12)" fill-rule="evenodd" stroke="none"/>
  </g>
  <defs>
    <linearGradient gradientTransform="matrix(0.0024, 0.0, 0.0, 6.0E-4, 0.0, 80.5)" gradientUnits="userSpaceOnUse" id="gradient0" spreadMethod="pad" x1="-819.2" x2="819.2">
      <stop offset="0.00784313725490196" stop-color="#26201a"/>
      <stop offset="0.5176470588235295" stop-color="#645246"/>
      <stop offset="1.0" stop-color="#261e1a"/>
    </linearGradient>
    <linearGradient gradientTransform="matrix(0.0024, 0.0, 0.0, 6.0E-4, 0.0, 33.5)" gradientUnits="userSpaceOnUse" id="gradient1" spreadMethod="pad" x1="-819.2" x2="819.2">
      <stop offset="0.0" stop-color="#404040"/>
      <stop offset="0.49019607843137253" stop-color="#959595"/>
      <stop offset="1.0" stop-color="#404040"/>
    </linearGradient>
    <linearGradient gradientTransform="matrix(0.0024, 0.0, 0.0, 6.0E-4, 0.0, 81.5)" gradientUnits="userSpaceOnUse" id="gradient2" spreadMethod="pad" x1="-819.2" x2="819.2">
      <stop offset="0.0" stop-color="#404040"/>
      <stop offset="0.49019607843137253" stop-color="#959595"/>
      <stop offset="1.0" stop-color="#404040"/>
    </linearGradient>
    <linearGradient gradientTransform="matrix(0.0031, 0.0, 0.0, 6.0E-4, 0.0, 82.5)" gradientUnits="userSpaceOnUse" id="gradient3" spreadMethod="pad" x1="-819.2" x2="819.2">
      <stop offset="0.0" stop-color="#636363"/>
      <stop offset="0.49019607843137253" stop-color="#b5b5b5"/>
      <stop offset="1.0" stop-color="#606060"/>
    </linearGradient>
    <linearGradient gradientTransform="matrix(0.0024, 0.0, 0.0, 0.0488, 0.0, 40.0)" gradientUnits="userSpaceOnUse" id="gradient4" spreadMethod="pad" x1="-819.2" x2="819.2">
      <stop offset="0.0" stop-color="#641c1c"/>
      <stop offset="0.5098039215686274" stop-color="#9a2c2c"/>
      <stop offset="1.0" stop-color="#641c1c"/>
    </linearGradient>
    <linearGradient gradientTransform="matrix(9.0E-4, -0.0172, 0.0187, 9.0E-4, -51.9, -1.85)" gradientUnits="userSpaceOnUse" id="gradient5" spreadMethod="pad" x1="-819.2" x2="819.2">
      <stop offset="0.0" stop-color="#2c343f"/>
      <stop offset="0.6274509803921569" stop-color="#46536a"/>
      <stop offset="1.0" stop-color="#4d6079"/>
    </linearGradient>
    <radialGradient cx="0" cy="0" fx="-1536.0" fy="0" gradientTransform="matrix(0.0688, 0.0, 0.0, 0.0828, 17.05, -10.85)" gradientUnits="userSpaceOnUse" id="gradient6" r="819.2" spreadMethod="pad">
      <stop offset="0.0" stop-color="#2c3f2e"/>
      <stop offset="0.4980392156862745" stop-color="#638d70"/>
      <stop offset="0.7215686274509804" stop-color="#476263"/>
      <stop offset="0.8627450980392157" stop-color="#415570"/>
      <stop offset="1.0" stop-color="#4d6688"/>
    </radialGradient>
    <radialGradient cx="0" cy="0" gradientTransform="matrix(0.0063, -0.0016, 0.0037, 0.0144, -1.25, 21.1)" gradientUnits="userSpaceOnUse" id="gradient7" r="819.2" spreadMethod="pad">
      <stop offset="0.01568627450980392" stop-color="#8acaa4"/>
      <stop offset="0.2" stop-color="#85c7aa" stop-opacity="0.9137255"/>
      <stop offset="1.0" stop-color="#5c946d" stop-opacity="0.0"/>
    </radialGradient>
    <radialGradient cx="0" cy="0" gradientTransform="matrix(0.002, -0.0039, 0.011, 0.0114, -41.3, 29.15)" gradientUnits="userSpaceOnUse" id="gradient8" r="819.2" spreadMethod="pad">
      <stop offset="0.14901960784313725" stop-color="#5588aa"/>
      <stop offset="1.0" stop-color="#4f6786" stop-opacity="0.13333334"/>
    </radialGradient>
    <radialGradient cx="0" cy="0" gradientTransform="matrix(0.0032, 2.0E-4, -4.0E-4, 0.0045, -20.95, -22.05)" gradientUnits="userSpaceOnUse" id="gradient9" r="819.2" spreadMethod="pad">
      <stop offset="0.0" stop-color="#6da77b"/>
      <stop offset="1.0" stop-color="#3d7452"/>
    </radialGradient>
    <radialGradient cx="0" cy="0" gradientTransform="matrix(-0.0035, 5.0E-4, 7.0E-4, 0.005, -3.8, -4.9)" gradientUnits="userSpaceOnUse" id="gradient10" r="819.2" spreadMethod="pad">
      <stop offset="0.0" stop-color="#6da78a"/>
      <stop offset="1.0" stop-color="#507665"/>
    </radialGradient>
    <radialGradient cx="0" cy="0" gradientTransform="matrix(0.0037, -0.0019, 0.0027, 0.0052, -15.9, 9.7)" gradientUnits="userSpaceOnUse" id="gradient11" r="819.2" spreadMethod="pad">
      <stop offset="0.0" stop-color="#76b494"/>
      <stop offset="1.0" stop-color="#507c6c"/>
    </radialGradient>
    <radialGradient cx="0" cy="0" gradientTransform="matrix(0.0049, 0.0, 0.0, 0.0103, 0.0, 24.6)" gradientUnits="userSpaceOnUse" id="gradient12" r="819.2" spreadMethod="pad">
      <stop offset="0.0" stop-color="#cacaca"/>
      <stop offset="0.20784313725490197" stop-color="#b5b5b5"/>
      <stop offset="1.0" stop-color="#606060"/>
    </radialGradient>
  </defs>
</svg>
