<?xml version="1.0" encoding="UTF-8" standalone="no"?>
<svg xmlns:xlink="http://www.w3.org/1999/xlink" height="149.0px" width="25.05px" xmlns="http://www.w3.org/2000/svg">
  <g transform="matrix(1.0, 0.0, 0.0, 1.0, 12.55, 74.5)">
    <path d="M0.7 -74.4 L1.85 -73.7 Q5.75 -69.5 6.35 -66.45 L6.5 -65.05 Q6.7 -28.3 7.2 -12.5 8.1 13.7 11.45 26.35 L11.55 27.0 Q11.75 28.4 8.35 29.95 8.75 31.25 8.2 32.25 7.9 32.8 5.9 33.95 L6.2 34.9 6.9 34.55 8.85 34.5 Q9.8 34.9 10.2 35.8 L11.15 37.55 12.4 40.2 Q12.65 40.95 12.4 41.75 L11.55 43.0 10.15 43.5 7.8 43.85 5.65 45.45 5.35 46.9 Q5.65 50.5 5.35 54.65 L4.65 61.65 5.25 62.9 5.5 64.0 5.5 65.0 5.95 65.55 Q6.4 66.15 6.45 66.5 L6.95 67.45 Q7.55 68.2 7.5 69.2 7.4 70.15 6.7 70.85 6.0 71.5 5.0 71.5 L4.05 71.5 1.8 73.8 Q1.05 74.5 0.0 74.5 -1.05 74.5 -1.8 73.8 L-4.05 71.5 -5.0 71.5 Q-6.0 71.5 -6.7 70.85 -7.4 70.15 -7.5 69.2 -7.55 68.2 -6.95 67.45 L-6.45 66.5 Q-6.4 66.15 -5.95 65.55 L-5.5 65.0 -5.5 64.0 -5.25 62.9 -4.65 61.65 -5.35 54.65 Q-5.65 50.5 -5.35 46.9 L-5.65 45.45 -7.8 43.85 -10.15 43.5 -11.55 43.0 -12.4 41.75 Q-12.65 40.95 -12.4 40.2 L-11.15 37.55 -10.2 35.8 Q-9.8 34.9 -8.85 34.5 L-6.9 34.55 -6.2 34.9 -5.9 33.95 Q-7.9 32.8 -8.2 32.25 -8.75 31.25 -8.35 29.95 -11.75 28.4 -11.55 27.0 L-11.45 26.35 Q-8.1 13.7 -7.2 -12.5 -6.7 -28.3 -6.5 -65.05 L-6.35 -66.45 Q-5.75 -69.5 -1.85 -73.7 L-0.7 -74.4 0.0 -74.5 0.7 -74.4" fill="#000000" fill-rule="evenodd" stroke="none"/>
    <path d="M-2.0 62.0 L-2.8 54.5 Q-3.15 49.9 -2.7 46.0 L0.0 46.0 2.75 46.0 Q3.2 49.9 2.85 54.5 L2.05 62.0 2.0 62.0 -2.0 62.0" fill="url(#gradient0)" fill-rule="evenodd" stroke="none"/>
    <path d="M2.0 65.0 Q2.0 66.8 4.0 67.0 L-4.0 67.0 Q-2.0 66.8 -2.0 65.0 L2.0 65.0" fill="url(#gradient1)" fill-rule="evenodd" stroke="none"/>
    <path d="M4.0 67.0 Q4.2 68.0 5.0 69.0 L3.0 69.0 -3.0 69.0 -5.0 69.0 Q-4.1 68.1 -4.0 67.0 L4.0 67.0" fill="url(#gradient2)" fill-rule="evenodd" stroke="none"/>
    <path d="M3.0 69.0 L0.0 72.0 -3.0 69.0 3.0 69.0" fill="url(#gradient3)" fill-rule="evenodd" stroke="none"/>
    <path d="M3.0 64.0 L3.0 65.0 2.0 65.0 -2.0 65.0 -3.0 65.0 -3.0 64.0 3.0 64.0" fill="url(#gradient4)" fill-rule="evenodd" stroke="none"/>
    <path d="M2.0 62.0 L2.0 62.05 3.0 64.0 -3.0 64.0 -2.0 62.0 2.0 62.0" fill="url(#gradient5)" fill-rule="evenodd" stroke="none"/>
    <path d="M0.0 -64.1 L0.0 -64.15 3.85 -66.0 4.0 -65.05 Q4.2 -28.25 4.7 -12.45 5.6 14.15 9.0 27.0 L4.0 29.0 0.0 31.0 0.0 -64.1" fill="url(#gradient6)" fill-rule="evenodd" stroke="none"/>
    <path d="M0.0 -64.15 L0.0 -64.1 -3.85 -65.95 Q-3.3 -68.45 0.0 -72.0 L0.0 -64.15" fill="#989898" fill-rule="evenodd" stroke="none"/>
    <path d="M0.0 -64.1 L0.0 -72.0 Q3.3 -68.45 3.9 -65.9 L0.0 -64.1" fill="#ffffff" fill-rule="evenodd" stroke="none"/>
    <path d="M0.0 -64.1 L0.0 -45.0 0.0 31.0 -4.0 29.0 -9.0 27.0 Q-5.6 14.15 -4.7 -12.45 -4.2 -28.25 -4.0 -65.0 L-3.85 -65.95 0.0 -64.1" fill="url(#gradient7)" fill-rule="evenodd" stroke="none"/>
    <path d="M0.0 -68.0 L2.0 -65.0 2.0 -32.0 -2.0 -32.0 -2.0 -65.0 0.0 -68.0" fill="url(#gradient8)" fill-rule="evenodd" stroke="none"/>
    <path d="M0.15 -38.45 L0.45 -38.25 1.5 -36.65 1.5 -34.8 0.0 -37.05 -1.5 -34.8 -1.5 -36.65 -0.4 -38.25 -0.15 -38.45 0.15 -38.45" fill="#000000" fill-opacity="0.2509804" fill-rule="evenodd" stroke="none"/>
    <path d="M0.0 -38.0 L2.0 -35.0 Q2.1 -7.95 2.4 -1.15 3.15 17.7 6.0 31.0 3.55 31.95 3.4 33.7 3.25 35.25 5.0 38.0 2.55 39.4 0.0 39.4 -2.55 39.4 -5.0 38.0 -3.25 35.25 -3.4 33.7 -3.55 31.95 -6.0 31.0 -3.15 17.7 -2.4 -1.15 -2.1 -7.95 -2.0 -35.0 L0.0 -38.0" fill="url(#gradient9)" fill-rule="evenodd" stroke="none"/>
    <path d="M5.4 37.05 Q4.0 38.15 1.55 38.5 L1.45 38.05 Q1.2 37.3 1.3 34.25 1.45 31.2 2.0 30.15 L2.7 29.0 0.9 28.35 0.45 24.0 0.0 24.0 -0.45 24.0 -0.9 28.35 -2.7 29.0 -2.0 30.15 Q-1.45 31.2 -1.3 34.25 -1.2 37.3 -1.45 38.05 -1.6 38.5 -2.0 38.5 -4.45 38.15 -5.85 37.05" fill="none" stroke="#000000" stroke-linecap="square" stroke-linejoin="round" stroke-opacity="0.2509804" stroke-width="1.0"/>
    <path d="M-1.05 7.3 Q-0.75 -4.0 0.0 -4.0 0.75 -4.0 1.05 7.3 1.4 20.9 3.0 27.0 1.2 27.5 0.0 29.0 -1.2 27.5 -3.0 27.0 -1.4 20.9 -1.05 7.3" fill="url(#gradient10)" fill-rule="evenodd" stroke="none"/>
    <path d="M3.0 27.0 Q1.4 20.9 1.05 7.3 0.75 -4.0 0.0 -4.0 -0.75 -4.0 -1.05 7.3 -1.4 20.9 -3.0 27.0" fill="none" stroke="url(#gradient11)" stroke-linecap="round" stroke-linejoin="round" stroke-width="0.5"/>
    <path d="M0.0 29.0 Q1.2 27.5 3.0 27.0" fill="none" stroke="url(#gradient12)" stroke-linecap="round" stroke-linejoin="round" stroke-width="0.5"/>
    <path d="M-3.0 27.0 Q-1.2 27.5 0.0 29.0" fill="none" stroke="url(#gradient13)" stroke-linecap="round" stroke-linejoin="round" stroke-width="0.5"/>
    <path d="M1.0 44.0 L2.0 43.0 4.0 43.0 Q3.2 44.3 3.0 46.0 L1.0 46.0 1.0 47.0 -1.0 47.0 -1.0 46.0 -3.0 46.0 Q-3.2 44.3 -4.0 43.0 L-2.0 43.0 -1.0 44.0 0.0 44.0 1.0 44.0" fill="url(#gradient14)" fill-rule="evenodd" stroke="none"/>
    <path d="M2.0 45.0 L0.0 45.0 -2.0 45.0 -3.0 44.0 -5.0 44.0 -5.0 43.0 -2.0 43.0 0.0 43.0 2.0 43.0 5.0 43.0 5.0 44.0 3.0 44.0 2.0 45.0" fill="#000000" fill-opacity="0.15294118" fill-rule="evenodd" stroke="none"/>
    <path d="M7.0 41.45 Q5.65 41.9 5.0 43.0 L2.0 43.0 1.0 44.0 0.0 44.0 -1.0 44.0 Q-1.85 43.15 -5.0 43.0 -5.65 41.9 -7.0 41.45 L-10.0 41.0 Q-9.45 39.35 -8.0 37.0 -6.55 38.25 -4.5 39.1 -2.1 40.05 0.0 40.0 2.1 40.05 4.5 39.1 6.55 38.25 8.0 37.0 9.45 39.35 10.0 41.0 L7.0 41.45" fill="url(#gradient15)" fill-rule="evenodd" stroke="none"/>
    <path d="M1.75 39.7 Q1.75 40.95 1.2 41.5 0.7 42.0 0.0 42.0 -0.7 42.0 -1.2 41.5 -1.75 40.95 -1.75 39.8" fill="none" stroke="url(#gradient16)" stroke-linecap="round" stroke-linejoin="round" stroke-width="1.0"/>
    <path d="M0.0 23.0 L0.0 29.0 -2.7 29.0 -0.9 28.35 -0.45 24.0 0.0 23.0" fill="url(#gradient17)" fill-rule="evenodd" stroke="none"/>
    <path d="M0.0 42.0 Q-0.7 42.0 -1.2 41.5 -1.7 41.0 -1.7 40.3 L-1.75 39.9 -2.15 39.8 Q-4.45 39.5 -6.15 38.25 L-5.6 37.35 Q-4.2 38.45 -1.75 38.8 L-1.45 38.05 Q-1.2 37.3 -1.3 34.25 -1.45 31.2 -2.0 30.15 L-2.7 29.0 0.0 29.0 0.0 42.0" fill="url(#gradient18)" fill-rule="evenodd" stroke="none"/>
    <path d="M0.0 29.0 L2.7 29.0 2.0 30.15 Q1.45 31.2 1.3 34.25 1.2 37.3 1.45 38.05 L1.75 38.8 Q4.25 38.45 5.65 37.35 L6.2 38.25 Q4.5 39.5 2.15 39.8 L1.75 39.9 1.7 40.3 Q1.7 41.0 1.2 41.5 0.7 42.0 0.0 42.0 L0.0 29.0" fill="url(#gradient19)" fill-rule="evenodd" stroke="none"/>
    <path d="M0.0 23.0 L0.45 24.0 0.9 28.35 2.7 29.0 0.0 29.0 0.0 23.0" fill="#ffffff" fill-rule="evenodd" stroke="none"/>
    <path d="M0.0 -68.0 L2.0 -65.0 2.0 -35.0 Q2.1 -7.95 2.4 -1.15 3.15 17.7 6.0 31.0 5.9 30.4 6.05 30.95 L6.1 31.5 5.75 31.4 5.5 31.1 Q2.65 17.75 1.9 -1.1 1.6 -7.7 1.5 -33.25 L1.5 -64.8 0.0 -67.05 -1.5 -64.8 -1.5 -34.8 Q-1.6 -7.9 -1.9 -1.1 -2.65 17.75 -5.5 31.1 L-5.75 31.4 -6.1 31.5 -6.05 30.95 Q-5.9 30.35 -6.0 30.95 -3.15 17.65 -2.4 -1.15 -2.1 -7.95 -2.0 -35.0 L-2.0 -65.0 0.0 -68.0" fill="#000000" fill-opacity="0.2509804" fill-rule="evenodd" stroke="none"/>
    <path d="M3.0 46.0 L3.0 47.0 1.0 47.0 1.0 48.0 -1.0 48.0 -1.0 47.0 -3.0 47.0 -3.0 46.0 -1.0 46.0 -1.0 47.0 1.0 47.0 1.0 46.0 3.0 46.0 M3.0 66.0 L-3.0 66.0 -3.0 65.0 3.0 65.0 3.0 66.0 M3.0 61.0 L-3.0 61.0 -3.0 60.0 3.0 60.0 3.0 61.0" fill="#000000" fill-opacity="0.2" fill-rule="evenodd" stroke="none"/>
  </g>
  <defs>
    <linearGradient gradientTransform="matrix(0.0036, 0.0, 0.0, 0.0098, 0.0, 54.0)" gradientUnits="userSpaceOnUse" id="gradient0" spreadMethod="pad" x1="-819.2" x2="819.2">
      <stop offset="0.0" stop-color="#315555"/>
      <stop offset="0.11764705882352941" stop-color="#233f3f"/>
      <stop offset="0.27058823529411763" stop-color="#386362"/>
      <stop offset="0.4588235294117647" stop-color="#458f7c"/>
      <stop offset="0.5568627450980392" stop-color="#458f7c"/>
      <stop offset="0.7176470588235294" stop-color="#386362"/>
      <stop offset="0.8784313725490196" stop-color="#233f3f"/>
      <stop offset="1.0" stop-color="#315555"/>
    </linearGradient>
    <radialGradient cx="0" cy="0" gradientTransform="matrix(0.0045, 0.0, 0.0, 0.0071, 0.0, 65.0)" gradientUnits="userSpaceOnUse" id="gradient1" r="819.2" spreadMethod="pad">
      <stop offset="0.058823529411764705" stop-color="#baab67"/>
      <stop offset="0.4196078431372549" stop-color="#8c7940"/>
      <stop offset="0.8392156862745098" stop-color="#554b31"/>
      <stop offset="1.0" stop-color="#7e7147"/>
    </radialGradient>
    <linearGradient gradientTransform="matrix(0.0061, 0.0, 0.0, 0.0012, 0.0, 68.0)" gradientUnits="userSpaceOnUse" id="gradient2" spreadMethod="pad" x1="-819.2" x2="819.2">
      <stop offset="0.0" stop-color="#948456"/>
      <stop offset="0.12941176470588237" stop-color="#796b46"/>
      <stop offset="0.30980392156862746" stop-color="#cfba5a"/>
      <stop offset="0.47058823529411764" stop-color="#e9e4c0"/>
      <stop offset="0.5568627450980392" stop-color="#e9e4c0"/>
      <stop offset="0.7333333333333333" stop-color="#cfba5a"/>
      <stop offset="0.8901960784313725" stop-color="#7a6c45"/>
      <stop offset="1.0" stop-color="#7e7147"/>
    </linearGradient>
    <radialGradient cx="0" cy="0" gradientTransform="matrix(0.0045, 0.0, 0.0, 0.0088, 0.0, 69.0)" gradientUnits="userSpaceOnUse" id="gradient3" r="819.2" spreadMethod="pad">
      <stop offset="0.10196078431372549" stop-color="#ffffff"/>
      <stop offset="0.2" stop-color="#c78cf2"/>
      <stop offset="0.37254901960784315" stop-color="#765fa7"/>
      <stop offset="0.615686274509804" stop-color="#463962"/>
      <stop offset="0.8980392156862745" stop-color="#737bc4"/>
    </radialGradient>
    <linearGradient gradientTransform="matrix(0.0037, 0.0, 0.0, 6.0E-4, 0.0, 64.5)" gradientUnits="userSpaceOnUse" id="gradient4" spreadMethod="pad" x1="-819.2" x2="819.2">
      <stop offset="0.0" stop-color="#7b7b7b"/>
      <stop offset="0.10588235294117647" stop-color="#6a6a6a"/>
      <stop offset="0.28627450980392155" stop-color="#948887"/>
      <stop offset="0.4627450980392157" stop-color="#dfdfdf"/>
      <stop offset="0.5647058823529412" stop-color="#dfdfdf"/>
      <stop offset="0.7607843137254902" stop-color="#948887"/>
      <stop offset="0.8980392156862745" stop-color="#6a6a6a"/>
      <stop offset="1.0" stop-color="#7b7b7b"/>
    </linearGradient>
    <radialGradient cx="0" cy="0" gradientTransform="matrix(0.0033, 0.0, 0.0, 0.0082, 0.05, 61.9)" gradientUnits="userSpaceOnUse" id="gradient5" r="819.2" spreadMethod="pad">
      <stop offset="0.17647058823529413" stop-color="#adadad"/>
      <stop offset="0.4549019607843137" stop-color="#838383"/>
      <stop offset="0.8313725490196079" stop-color="#4e4e4e"/>
      <stop offset="1.0" stop-color="#606060"/>
    </radialGradient>
    <linearGradient gradientTransform="matrix(0.0298, -0.0326, 0.0437, 0.0398, 4.45, -17.45)" gradientUnits="userSpaceOnUse" id="gradient6" spreadMethod="pad" x1="-819.2" x2="819.2">
      <stop offset="0.00784313725490196" stop-color="#eaeaea"/>
      <stop offset="0.1803921568627451" stop-color="#b0b0b0"/>
      <stop offset="0.33725490196078434" stop-color="#b5b5b5"/>
      <stop offset="0.615686274509804" stop-color="#ffffff"/>
      <stop offset="0.7843137254901961" stop-color="#ffffff"/>
      <stop offset="1.0" stop-color="#d2cece"/>
    </linearGradient>
    <linearGradient gradientTransform="matrix(0.031, -0.0365, 0.045, 0.0383, -5.95, -23.05)" gradientUnits="userSpaceOnUse" id="gradient7" spreadMethod="pad" x1="-819.2" x2="819.2">
      <stop offset="0.0" stop-color="#b8b8b8"/>
      <stop offset="0.14901960784313725" stop-color="#838383"/>
      <stop offset="0.28627450980392155" stop-color="#8a8a8a"/>
      <stop offset="0.5843137254901961" stop-color="#a6a6a6"/>
      <stop offset="1.0" stop-color="#b0b0b0"/>
    </linearGradient>
    <linearGradient gradientTransform="matrix(0.0119, -0.0171, 0.013, 0.0091, -1.0, -52.1)" gradientUnits="userSpaceOnUse" id="gradient8" spreadMethod="pad" x1="-819.2" x2="819.2">
      <stop offset="0.054901960784313725" stop-color="#cdcdcd"/>
      <stop offset="0.9215686274509803" stop-color="#d0d0d0"/>
    </linearGradient>
    <linearGradient gradientTransform="matrix(0.0249, -0.0217, 0.031, 0.0355, -0.75, 1.15)" gradientUnits="userSpaceOnUse" id="gradient9" spreadMethod="pad" x1="-819.2" x2="819.2">
      <stop offset="0.047058823529411764" stop-color="#b7a54f"/>
      <stop offset="0.1803921568627451" stop-color="#8f8052"/>
      <stop offset="0.4549019607843137" stop-color="#b1a054"/>
      <stop offset="1.0" stop-color="#d1b55f"/>
    </linearGradient>
    <linearGradient gradientTransform="matrix(0.0121, -0.012, 0.0142, 0.0142, -1.25, 13.0)" gradientUnits="userSpaceOnUse" id="gradient10" spreadMethod="pad" x1="-819.2" x2="819.2">
      <stop offset="0.047058823529411764" stop-color="#34b67e"/>
      <stop offset="0.3058823529411765" stop-color="#358a57"/>
      <stop offset="0.9058823529411765" stop-color="#336851"/>
    </linearGradient>
    <linearGradient gradientTransform="matrix(-0.004, 0.0, 0.0, -0.0203, 0.1, 13.05)" gradientUnits="userSpaceOnUse" id="gradient11" spreadMethod="pad" x1="-819.2" x2="819.2">
      <stop offset="0.0392156862745098" stop-color="#61ab78"/>
      <stop offset="0.17647058823529413" stop-color="#47855a"/>
      <stop offset="0.49019607843137253" stop-color="#63d37e"/>
      <stop offset="0.5372549019607843" stop-color="#233f2e"/>
      <stop offset="0.6352941176470588" stop-color="#1a2d1f"/>
      <stop offset="0.8588235294117647" stop-color="#2e523c"/>
    </linearGradient>
    <linearGradient gradientTransform="matrix(-0.0058, -1.0E-4, 2.0E-4, -0.0204, 0.0, 13.05)" gradientUnits="userSpaceOnUse" id="gradient12" spreadMethod="pad" x1="-819.2" x2="819.2">
      <stop offset="0.0" stop-color="#26442e"/>
      <stop offset="0.5098039215686274" stop-color="#6bd39e"/>
      <stop offset="0.5725490196078431" stop-color="#2b5540"/>
    </linearGradient>
    <linearGradient gradientTransform="matrix(-0.0058, -1.0E-4, 2.0E-4, -0.0204, 0.0, 13.05)" gradientUnits="userSpaceOnUse" id="gradient13" spreadMethod="pad" x1="-819.2" x2="819.2">
      <stop offset="0.0" stop-color="#33624a"/>
      <stop offset="0.4196078431372549" stop-color="#478560"/>
      <stop offset="0.5725490196078431" stop-color="#233f34"/>
    </linearGradient>
    <linearGradient gradientTransform="matrix(0.0049, 0.0, 0.0, 0.0024, 0.0, 45.0)" gradientUnits="userSpaceOnUse" id="gradient14" spreadMethod="pad" x1="-819.2" x2="819.2">
      <stop offset="0.0" stop-color="#7b7b7b"/>
      <stop offset="0.10588235294117647" stop-color="#6a6a6a"/>
      <stop offset="0.28627450980392155" stop-color="#948887"/>
      <stop offset="0.4627450980392157" stop-color="#dfdfdf"/>
      <stop offset="0.5647058823529412" stop-color="#dfdfdf"/>
      <stop offset="0.7607843137254902" stop-color="#948887"/>
      <stop offset="0.8980392156862745" stop-color="#6a6a6a"/>
      <stop offset="1.0" stop-color="#7b7b7b"/>
    </linearGradient>
    <linearGradient gradientTransform="matrix(0.0122, 0.0, 0.0, 0.0043, 0.0, 40.5)" gradientUnits="userSpaceOnUse" id="gradient15" spreadMethod="pad" x1="-819.2" x2="819.2">
      <stop offset="0.0" stop-color="#948456"/>
      <stop offset="0.12941176470588237" stop-color="#796b46"/>
      <stop offset="0.30980392156862746" stop-color="#cfba5a"/>
      <stop offset="0.47058823529411764" stop-color="#e9e4c0"/>
      <stop offset="0.5568627450980392" stop-color="#e9e4c0"/>
      <stop offset="0.7333333333333333" stop-color="#cfba5a"/>
      <stop offset="0.8901960784313725" stop-color="#7a6c45"/>
      <stop offset="1.0" stop-color="#7e7147"/>
    </linearGradient>
    <linearGradient gradientTransform="matrix(-0.0027, 0.0, 0.0, -0.002, -0.05, 40.85)" gradientUnits="userSpaceOnUse" id="gradient16" spreadMethod="pad" x1="-819.2" x2="819.2">
      <stop offset="0.0" stop-color="#927934"/>
      <stop offset="0.5058823529411764" stop-color="#bfa858"/>
      <stop offset="1.0" stop-color="#fefadc"/>
    </linearGradient>
    <linearGradient gradientTransform="matrix(0.0036, 0.0, 0.0, 0.011, -0.8, 33.25)" gradientUnits="userSpaceOnUse" id="gradient17" spreadMethod="pad" x1="-819.2" x2="819.2">
      <stop offset="0.12941176470588237" stop-color="#9b9b9b"/>
      <stop offset="0.5647058823529412" stop-color="#8a8a8a"/>
      <stop offset="1.0" stop-color="#5b5b5b"/>
    </linearGradient>
    <linearGradient gradientTransform="matrix(0.0054, -0.0054, 0.0056, 0.0056, 0.0, 35.5)" gradientUnits="userSpaceOnUse" id="gradient18" spreadMethod="pad" x1="-819.2" x2="819.2">
      <stop offset="0.0" stop-color="#606060"/>
      <stop offset="0.27450980392156865" stop-color="#cdcdcd"/>
      <stop offset="0.43137254901960786" stop-color="#c2c2c2"/>
      <stop offset="0.8" stop-color="#606060"/>
      <stop offset="1.0" stop-color="#606060"/>
    </linearGradient>
    <linearGradient gradientTransform="matrix(0.0055, -0.0055, 0.0056, 0.0056, 0.55, 35.15)" gradientUnits="userSpaceOnUse" id="gradient19" spreadMethod="pad" x1="-819.2" x2="819.2">
      <stop offset="0.050980392156862744" stop-color="#898783"/>
      <stop offset="0.25882352941176473" stop-color="#dad9d6"/>
      <stop offset="0.4980392156862745" stop-color="#dadad6"/>
      <stop offset="0.6588235294117647" stop-color="#9d9c99"/>
      <stop offset="0.792156862745098" stop-color="#acaba9"/>
      <stop offset="0.9725490196078431" stop-color="#e2e2e2"/>
    </linearGradient>
  </defs>
</svg>
