<?xml version="1.0" encoding="UTF-8" standalone="no"?>
<svg xmlns:xlink="http://www.w3.org/1999/xlink" height="68.0px" width="167.0px" xmlns="http://www.w3.org/2000/svg">
  <g transform="matrix(1.0, 0.0, 0.0, 1.0, 3.0, 15.0)">
    <path d="M49.0 -12.0 L49.0 -3.0 161.0 -3.0 Q164.0 -3.0 164.0 0.0 L164.0 50.0 Q164.0 53.0 161.0 53.0 L0.0 53.0 Q-3.0 53.0 -3.0 50.0 L-3.0 -12.0 Q-3.0 -15.0 0.0 -15.0 L46.0 -15.0 Q49.0 -15.0 49.0 -12.0 M160.0 2.0 Q160.0 1.0 159.0 1.0 L2.0 1.0 Q1.0 1.0 1.0 2.0 L1.0 48.0 Q1.0 49.0 2.0 49.0 L159.0 49.0 Q160.0 49.0 160.0 48.0 L160.0 2.0" fill="#000000" fill-rule="evenodd" stroke="none"/>
    <path d="M46.0 -14.0 Q48.0 -14.0 48.0 -12.0 L48.0 -2.0 161.0 -2.0 Q163.0 -2.0 163.0 0.0 L163.0 50.0 Q163.0 52.0 161.0 52.0 L0.0 52.0 Q-2.0 52.0 -2.0 50.0 L-2.0 -12.0 Q-2.0 -14.0 0.0 -14.0 L46.0 -14.0 M161.0 2.0 Q161.0 0.0 159.0 0.0 L2.0 0.0 Q0.0 0.0 0.0 2.0 L0.0 48.0 Q0.0 50.0 2.0 50.0 L159.0 50.0 Q161.0 50.0 161.0 48.0 L161.0 2.0" fill="#00ff00" fill-rule="evenodd" stroke="none"/>
  </g>
</svg>
