<?xml version="1.0" encoding="UTF-8" standalone="no"?>
<svg xmlns:xlink="http://www.w3.org/1999/xlink" height="90.0px" width="122.15px" xmlns="http://www.w3.org/2000/svg">
  <g transform="matrix(1.0, 0.0, 0.0, 1.0, 61.05, 45.0)">
    <path d="M33.05 -41.05 Q34.8 -20.2 49.15 -1.75 57.2 8.7 58.25 10.45 L58.25 10.5 Q62.4 17.6 60.55 23.65 58.1 32.6 47.35 35.8 L47.3 35.8 Q38.5 38.4 30.4 35.7 28.0 35.1 25.9 33.6 24.35 32.45 22.5 30.35 L22.3 30.1 22.15 30.6 21.0 33.1 21.0 37.2 Q21.0 38.45 20.15 39.35 L17.75 41.75 Q16.85 42.6 15.6 42.6 L10.5 42.6 Q6.3 45.1 0.05 45.0 L-0.05 45.0 Q-6.3 45.1 -10.5 42.6 L-15.6 42.6 Q-16.85 42.6 -17.7 41.75 L-20.1 39.35 Q-21.0 38.45 -21.0 37.2 L-21.0 33.1 -22.1 30.6 -22.3 30.1 -22.5 30.3 -25.85 33.6 Q-27.95 35.1 -30.3 35.7 -38.45 38.4 -47.2 35.8 -58.0 32.6 -60.5 23.65 -62.35 17.6 -58.2 10.5 L-58.15 10.45 -49.0 -1.75 Q-34.75 -20.2 -33.0 -41.05 -32.9 -42.1 -32.1 -42.9 L-30.9 -44.1 Q-30.2 -44.9 -29.1 -44.95 -28.1 -45.1 -27.2 -44.5 -26.3 -43.9 -25.9 -42.9 -23.8 -36.6 -23.3 -22.55 -22.7 -7.9 -25.75 -1.15 -23.1 -2.45 -19.75 -2.8 -17.75 -5.5 -14.5 -7.5 L-14.2 -10.2 Q-14.15 -11.3 -13.3 -12.05 -12.55 -12.85 -11.45 -12.9 -10.4 -12.95 -9.5 -12.3 L-7.2 -10.55 0.0 -11.4 Q3.85 -11.4 7.15 -10.6 L9.55 -12.35 Q10.4 -13.0 11.45 -12.95 12.55 -12.9 13.4 -12.1 14.15 -11.35 14.3 -10.25 L14.6 -7.5 Q17.75 -5.5 19.75 -2.8 23.1 -2.45 25.8 -1.1 22.7 -7.9 23.3 -22.55 23.8 -36.6 26.0 -42.9 26.3 -43.9 27.2 -44.5 28.0 -45.1 29.1 -45.0 30.1 -44.9 30.9 -44.15 L32.15 -42.95 Q32.95 -42.2 33.05 -41.05" fill="#000000" fill-rule="evenodd" stroke="none"/>
    <path d="M-17.0 0.0 L-17.0 17.0 Q-23.75 28.25 -27.85 31.15 -33.3 34.9 -41.0 31.0 -47.55 25.4 -44.85 16.05 -43.7 12.2 -41.3 9.9 -38.8 7.5 -36.0 8.0 -37.5 11.05 -37.0 12.8 -36.55 14.4 -35.0 14.0 -33.6 13.6 -32.35 11.25 L-29.9 6.5 Q-25.95 0.0 -17.0 0.0" fill="url(#gradient0)" fill-rule="evenodd" stroke="none"/>
    <path d="M44.8 16.05 Q47.5 25.4 40.95 31.0 33.25 34.9 27.8 31.15 23.7 28.25 17.0 17.0 L17.0 0.0 Q25.9 0.0 29.85 6.5 L32.3 11.25 Q33.55 13.6 34.95 14.0 36.5 14.4 36.95 12.8 37.45 11.05 35.95 8.0 38.75 7.5 41.25 9.9 43.65 12.2 44.8 16.05" fill="url(#gradient1)" fill-rule="evenodd" stroke="none"/>
    <path d="M-19.8 1.8 Q-19.8 3.3 -20.9 4.3 -21.9 5.4 -23.4 5.4 -24.9 5.4 -26.0 4.3 -26.6 3.7 -26.8 3.0 -24.1 0.8 -20.15 0.25 -19.8 0.95 -19.8 1.8" fill="url(#gradient2)" fill-rule="evenodd" stroke="none"/>
    <path d="M23.4 5.4 Q21.9 5.4 20.9 4.3 19.8 3.3 19.8 1.8 19.8 0.95 20.15 0.25 24.1 0.8 26.8 3.0 26.6 3.7 26.0 4.3 24.9 5.4 23.4 5.4" fill="url(#gradient3)" fill-rule="evenodd" stroke="none"/>
    <path d="M-30.0 -41.0 L-29.0 -42.0 Q-27.0 -35.85 -26.35 -22.4 -25.55 -5.45 -30.0 0.0 -41.05 13.6 -42.2 22.7 -43.55 33.25 -30.0 32.4 -37.9 35.5 -46.55 33.05 -55.85 30.4 -58.0 23.0 -59.45 18.0 -55.95 12.1 -54.9 10.4 -46.85 0.05 -40.0 -8.75 -36.35 -16.55 -31.1 -27.8 -30.0 -41.0" fill="url(#gradient4)" fill-rule="evenodd" stroke="none"/>
    <path d="M26.35 -22.35 Q27.0 -35.8 29.0 -42.0 L30.0 -41.0 Q31.1 -27.75 36.35 -16.5 40.0 -8.7 46.85 0.1 54.9 10.45 55.95 12.15 59.45 18.05 58.0 23.05 55.85 30.45 46.55 33.1 37.9 35.55 30.0 32.45 43.55 33.3 42.2 22.75 41.05 13.65 30.0 0.05 25.55 -5.4 26.35 -22.35" fill="url(#gradient5)" fill-rule="evenodd" stroke="none"/>
    <path d="M0.0 0.0 L18.0 0.0 Q22.5 6.0 22.2 15.55 21.9 24.25 18.0 32.0 L18.0 37.0 16.0 39.0 10.0 39.0 Q8.0 40.35 5.35 41.2 2.6 42.05 0.0 42.0 -2.6 42.05 -5.35 41.2 -8.0 40.35 -10.0 39.0 L-16.0 39.0 -18.0 37.0 -18.0 32.0 Q-21.9 24.25 -22.2 15.55 -22.5 6.0 -18.0 0.0 L0.0 0.0" fill="url(#gradient6)" fill-rule="evenodd" stroke="none"/>
    <path d="M0.0 21.6 L19.25 21.6 Q19.45 23.0 18.9 25.8 18.25 29.4 16.85 31.2 16.6 31.5 16.45 33.3 16.3 34.85 15.65 34.8 13.75 34.75 10.85 32.4 10.85 36.1 9.6 37.25 5.1 39.6 0.0 39.6 -5.1 39.6 -9.6 37.25 -10.8 36.1 -10.8 32.4 -13.7 34.75 -15.6 34.8 -16.25 34.85 -16.4 33.3 -16.55 31.5 -16.8 31.2 -18.2 29.4 -18.85 25.8 -19.4 23.0 -19.2 21.6 L0.0 21.6" fill="#000000" fill-opacity="0.15294118" fill-rule="evenodd" stroke="none"/>
    <path d="M11.95 -5.4 Q16.1 -3.25 18.05 0.0 L17.05 2.0 Q18.8 5.55 19.35 9.6 19.95 13.85 19.05 18.0 18.9 18.8 21.1 19.45 23.6 20.15 23.8 22.7 24.0 25.55 20.6 27.95 17.2 30.35 15.05 29.0 12.75 27.8 12.7 28.6 12.6 29.9 12.05 30.0 8.85 27.7 5.9 26.8 3.25 25.95 0.0 26.0 -3.25 25.95 -5.9 26.8 -8.85 27.7 -12.0 30.0 -12.55 29.9 -12.65 28.6 -12.7 27.8 -15.0 29.0 -17.15 30.35 -20.55 27.95 -23.95 25.55 -23.75 22.7 -23.55 20.15 -21.05 19.45 -18.85 18.8 -19.0 18.0 -19.9 13.85 -19.3 9.6 -18.75 5.55 -17.0 2.0 L-18.0 0.0 Q-16.05 -3.25 -11.9 -5.4 -6.85 -8.0 0.0 -8.0 6.85 -8.0 11.95 -5.4" fill="url(#gradient7)" fill-rule="evenodd" stroke="none"/>
    <path d="M9.6 19.2 L-9.6 19.2 -9.6 -2.4 9.6 -2.4 9.6 19.2" fill="url(#gradient8)" fill-rule="evenodd" stroke="none"/>
    <path d="M0.0 11.0 Q2.2 12.3 3.25 15.45 4.35 18.9 1.95 20.0 0.1 20.85 0.0 21.0 0.1 20.95 -2.0 20.0 -4.4 18.9 -3.3 15.45 -2.25 12.3 0.0 11.0" fill="url(#gradient9)" fill-rule="evenodd" stroke="none"/>
    <path d="M-12.0 -3.6 L-11.3 -9.9 -6.0 -6.0 Q-5.9 -5.0 -8.65 -3.8 -11.4 -2.6 -12.0 -3.6" fill="url(#gradient10)" fill-rule="evenodd" stroke="none"/>
    <path d="M8.65 -3.8 Q5.9 -5.0 6.0 -6.0 L11.3 -9.9 12.0 -3.6 Q11.4 -2.6 8.65 -3.8" fill="url(#gradient11)" fill-rule="evenodd" stroke="none"/>
    <path d="M-14.0 7.0 Q-14.45 3.95 -9.7 2.1 -5.05 0.3 -2.0 2.0 -0.8 2.7 -0.75 4.5 -0.7 5.55 -1.0 8.0 L-5.0 12.0 -14.0 7.0" fill="url(#gradient12)" fill-rule="evenodd" stroke="none"/>
    <path d="M2.0 2.0 Q5.05 0.3 9.75 2.1 14.5 3.95 14.05 7.0 L5.0 12.0 1.0 8.0 Q0.7 5.55 0.75 4.5 0.8 2.7 2.0 2.0" fill="url(#gradient13)" fill-rule="evenodd" stroke="none"/>
    <path d="M-1.2 3.6 Q-1.0 3.95 -1.25 4.8 -1.5 5.7 -2.0 6.0 -2.65 2.95 -4.7 2.2 -2.1 2.0 -1.2 3.6" fill="url(#gradient14)" fill-rule="evenodd" stroke="none"/>
    <path d="M1.2 3.6 Q2.1 2.0 4.7 2.2 2.65 2.95 2.0 6.0 1.5 5.7 1.25 4.8 1.0 3.95 1.2 3.6" fill="url(#gradient15)" fill-rule="evenodd" stroke="none"/>
    <path d="M-4.95 9.8 Q-4.8 10.7 -5.0 12.0 -11.25 15.25 -17.0 17.0 -19.35 10.05 -13.0 5.0 -8.8 5.65 -7.0 6.75 -5.3 7.8 -4.95 9.8" fill="url(#gradient16)" fill-rule="evenodd" stroke="none"/>
    <path d="M16.95 17.0 Q11.2 15.25 5.0 12.0 4.8 10.7 4.95 9.8 5.3 7.8 7.0 6.75 8.8 5.65 12.95 5.0 19.3 10.05 16.95 17.0" fill="url(#gradient17)" fill-rule="evenodd" stroke="none"/>
    <path d="M1.0 18.0 L0.9 14.8 Q0.85 12.35 0.0 10.95 2.35 12.75 3.25 15.95 4.2 19.35 2.0 20.0 2.3 19.5 2.0 19.0 1.35 18.95 1.0 18.0" fill="url(#gradient18)" fill-rule="evenodd" stroke="none"/>
    <path d="M0.0 10.95 Q-0.85 12.35 -0.9 14.8 L-1.0 18.0 Q-1.35 18.95 -2.0 19.0 -2.3 19.5 -2.0 20.0 -4.2 19.35 -3.25 15.95 -2.35 12.75 0.0 10.95" fill="url(#gradient19)" fill-rule="evenodd" stroke="none"/>
    <path d="M-1.3 25.35 L-8.9 28.05 -24.1 25.25 Q-24.4 14.75 -17.05 10.9 -10.2 7.25 -0.25 10.95 L-1.3 25.35" fill="url(#gradient20)" fill-rule="evenodd" stroke="none"/>
    <path d="M1.3 25.3 L0.25 10.95 Q10.2 7.25 17.05 10.9 24.4 14.75 24.1 25.2 L8.9 28.0 1.3 25.3" fill="url(#gradient21)" fill-rule="evenodd" stroke="none"/>
    <path d="M12.0 19.2 L12.0 30.0 Q8.95 27.8 5.9 27.0 L0.0 26.4 -5.9 27.0 Q-8.95 27.8 -12.0 30.0 L-12.0 19.2 12.0 19.2" fill="url(#gradient22)" fill-rule="evenodd" stroke="none"/>
    <path d="M4.8 26.4 L4.8 25.2 M-4.8 26.4 L-4.8 25.2" fill="none" stroke="#a69e8e" stroke-linecap="round" stroke-linejoin="round" stroke-width="1.0"/>
    <path d="M-9.6 22.8 Q-9.25 23.6 -9.65 25.5 -9.95 27.0 -8.75 28.0 L-10.25 29.2 Q-11.35 30.05 -12.0 30.0 -12.65 29.95 -12.65 28.6 -12.7 27.65 -14.35 28.5 -16.5 29.6 -19.6 27.65 -22.6 25.8 -22.0 25.0 L-20.9 25.15 Q-19.65 25.6 -18.45 25.15 -16.75 24.55 -15.4 22.75 -14.15 21.05 -13.1 20.85 -11.9 20.6 -10.95 21.2 -10.1 21.7 -9.6 22.8" fill="url(#gradient23)" fill-rule="evenodd" stroke="none"/>
    <path d="M9.6 22.8 Q10.1 21.7 10.95 21.2 11.9 20.6 13.1 20.85 14.15 21.05 15.4 22.75 16.75 24.55 18.45 25.15 19.65 25.6 20.9 25.15 L22.0 25.0 Q22.6 25.8 19.6 27.65 16.5 29.6 14.35 28.5 12.7 27.65 12.65 28.6 12.65 29.95 12.0 30.0 11.35 30.05 10.25 29.2 L8.75 28.0 Q9.95 27.0 9.65 25.5 9.25 23.6 9.6 22.8" fill="url(#gradient24)" fill-rule="evenodd" stroke="none"/>
    <path d="M9.0 32.0 L11.0 29.0 Q11.65 29.05 12.0 30.0 12.0 30.8 11.35 31.6 L10.0 33.0 9.0 32.0" fill="url(#gradient25)" fill-rule="evenodd" stroke="none"/>
    <path d="M-10.0 33.0 L-11.35 31.6 Q-12.0 30.8 -12.0 30.0 -11.65 29.05 -11.0 29.0 L-9.0 32.0 -10.0 33.0" fill="url(#gradient26)" fill-rule="evenodd" stroke="none"/>
    <path d="M-8.4 32.4 L-10.15 30.8 -11.0 29.0 Q-11.0 28.45 -9.9 27.8 -8.65 27.05 -7.0 27.0 L-6.0 31.0 -8.4 32.4" fill="url(#gradient27)" fill-rule="evenodd" stroke="none"/>
    <path d="M11.0 29.0 L10.15 30.8 8.4 32.4 6.0 31.0 7.0 27.0 Q8.65 27.05 9.9 27.8 11.0 28.45 11.0 29.0" fill="url(#gradient28)" fill-rule="evenodd" stroke="none"/>
    <path d="M-1.55 29.7 Q-3.85 29.8 -5.0 30.55 L-5.0 26.0 Q-4.55 25.55 -3.5 25.4 L-1.6 25.55 -1.55 29.7" fill="url(#gradient29)" fill-rule="evenodd" stroke="none"/>
    <path d="M4.9 25.95 L4.9 30.5 Q3.75 29.75 1.45 29.65 L1.5 25.5 3.4 25.35 Q4.45 25.5 4.9 25.95" fill="url(#gradient30)" fill-rule="evenodd" stroke="none"/>
    <path d="M1.55 29.65 L-0.05 29.65 -1.55 29.7 -1.6 25.55 Q-0.85 25.0 0.0 25.1 0.9 25.0 1.5 25.45 L1.55 29.65" fill="url(#gradient31)" fill-rule="evenodd" stroke="none"/>
    <path d="M-8.0 28.0 Q-8.3 26.8 -7.3 26.15 L-5.0 26.0 Q-4.7 32.85 -5.0 33.0 -5.3 33.15 -6.4 31.4 -7.65 29.55 -8.0 28.0" fill="url(#gradient32)" fill-rule="evenodd" stroke="none"/>
    <path d="M4.95 26.0 L7.25 26.15 Q8.25 26.8 7.95 28.0 7.6 29.55 6.35 31.4 5.25 33.15 4.95 33.0 4.65 32.85 4.95 26.0" fill="url(#gradient33)" fill-rule="evenodd" stroke="none"/>
  </g>
  <defs>
    <radialGradient cx="0" cy="0" fx="-1184.0" fy="0" gradientTransform="matrix(0.0203, -0.0029, 0.0071, 0.0497, -27.9, 30.3)" gradientUnits="userSpaceOnUse" id="gradient0" r="819.2" spreadMethod="pad">
      <stop offset="0.047058823529411764" stop-color="#cacaca"/>
      <stop offset="0.10980392156862745" stop-color="#7b7b7b"/>
      <stop offset="0.24313725490196078" stop-color="#383838"/>
      <stop offset="0.6039215686274509" stop-color="#111111"/>
      <stop offset="0.7215686274509804" stop-color="#262626"/>
      <stop offset="0.8313725490196079" stop-color="#3c3c3c"/>
      <stop offset="0.9529411764705882" stop-color="#393939"/>
      <stop offset="1.0" stop-color="#2e2e2e"/>
    </radialGradient>
    <radialGradient cx="0" cy="0" fx="-1184.0" fy="0" gradientTransform="matrix(-0.0203, -0.0029, -0.0071, 0.0497, 27.85, 30.3)" gradientUnits="userSpaceOnUse" id="gradient1" r="819.2" spreadMethod="pad">
      <stop offset="0.047058823529411764" stop-color="#cacaca"/>
      <stop offset="0.10980392156862745" stop-color="#7b7b7b"/>
      <stop offset="0.24313725490196078" stop-color="#383838"/>
      <stop offset="0.6039215686274509" stop-color="#111111"/>
      <stop offset="0.7215686274509804" stop-color="#262626"/>
      <stop offset="0.8313725490196079" stop-color="#3c3c3c"/>
      <stop offset="0.9529411764705882" stop-color="#393939"/>
      <stop offset="1.0" stop-color="#2e2e2e"/>
    </radialGradient>
    <radialGradient cx="0" cy="0" gradientTransform="matrix(0.0045, 0.0, 0.0, 0.0045, -23.4, 1.8)" gradientUnits="userSpaceOnUse" id="gradient2" r="819.2" spreadMethod="pad">
      <stop offset="0.30196078431372547" stop-color="#787878"/>
      <stop offset="0.8156862745098039" stop-color="#4a4a4a" stop-opacity="0.0"/>
    </radialGradient>
    <radialGradient cx="0" cy="0" gradientTransform="matrix(-0.0045, 0.0, 0.0, 0.0045, 23.4, 1.8)" gradientUnits="userSpaceOnUse" id="gradient3" r="819.2" spreadMethod="pad">
      <stop offset="0.30196078431372547" stop-color="#787878"/>
      <stop offset="0.8156862745098039" stop-color="#4a4a4a" stop-opacity="0.0"/>
    </radialGradient>
    <radialGradient cx="0" cy="0" fx="-1539.2" fy="0" gradientTransform="matrix(0.0231, -0.0454, 0.0503, 0.0255, -29.4, -1.7)" gradientUnits="userSpaceOnUse" id="gradient4" r="819.2" spreadMethod="pad">
      <stop offset="0.054901960784313725" stop-color="#cacaca"/>
      <stop offset="0.12941176470588237" stop-color="#757575"/>
      <stop offset="0.19607843137254902" stop-color="#585858"/>
      <stop offset="0.2784313725490196" stop-color="#464646"/>
      <stop offset="0.4549019607843137" stop-color="#2e2e2e"/>
      <stop offset="0.788235294117647" stop-color="#111111"/>
      <stop offset="0.8588235294117647" stop-color="#262626"/>
      <stop offset="0.9215686274509803" stop-color="#383838"/>
    </radialGradient>
    <radialGradient cx="0" cy="0" fx="-1539.2" fy="0" gradientTransform="matrix(-0.0231, -0.0454, -0.0503, 0.0256, 29.4, -1.65)" gradientUnits="userSpaceOnUse" id="gradient5" r="819.2" spreadMethod="pad">
      <stop offset="0.054901960784313725" stop-color="#cacaca"/>
      <stop offset="0.12941176470588237" stop-color="#757575"/>
      <stop offset="0.19607843137254902" stop-color="#585858"/>
      <stop offset="0.2784313725490196" stop-color="#464646"/>
      <stop offset="0.4549019607843137" stop-color="#2e2e2e"/>
      <stop offset="0.788235294117647" stop-color="#111111"/>
      <stop offset="0.8588235294117647" stop-color="#262626"/>
      <stop offset="0.9215686274509803" stop-color="#383838"/>
    </radialGradient>
    <linearGradient gradientTransform="matrix(0.0, -0.0281, 0.0256, 0.0, 0.0, 21.0)" gradientUnits="userSpaceOnUse" id="gradient6" spreadMethod="pad" x1="-819.2" x2="819.2">
      <stop offset="0.0" stop-color="#757166"/>
      <stop offset="0.19607843137254902" stop-color="#323029"/>
      <stop offset="0.3411764705882353" stop-color="#312f29"/>
      <stop offset="0.44313725490196076" stop-color="#857e65"/>
      <stop offset="0.8117647058823529" stop-color="#7c745f"/>
    </linearGradient>
    <radialGradient cx="0" cy="0" gradientTransform="matrix(0.0488, 0.0, 0.0, 0.0449, 0.0, -2.0)" gradientUnits="userSpaceOnUse" id="gradient7" r="819.2" spreadMethod="pad">
      <stop offset="0.07058823529411765" stop-color="#d7cec4"/>
      <stop offset="0.1568627450980392" stop-color="#bfb6aa"/>
      <stop offset="0.4235294117647059" stop-color="#8c836a"/>
      <stop offset="0.7843137254901961" stop-color="#b5ae9f"/>
    </radialGradient>
    <radialGradient cx="0" cy="0" gradientTransform="matrix(0.0313, 0.0, 0.0, 0.046, -0.1, 9.95)" gradientUnits="userSpaceOnUse" id="gradient8" r="819.2" spreadMethod="pad">
      <stop offset="0.043137254901960784" stop-color="#d6cdc3" stop-opacity="0.6"/>
      <stop offset="0.06666666666666667" stop-color="#b7ada3" stop-opacity="0.45490196"/>
      <stop offset="0.25098039215686274" stop-color="#554a40" stop-opacity="0.0"/>
    </radialGradient>
    <radialGradient cx="0" cy="0" fx="-928.0" fy="0" gradientTransform="matrix(0.0, -0.007, 0.007, 0.0, 0.0, 16.0)" gradientUnits="userSpaceOnUse" id="gradient9" r="819.2" spreadMethod="pad">
      <stop offset="0.32941176470588235" stop-color="#b5ac9f"/>
      <stop offset="0.6470588235294118" stop-color="#706956"/>
    </radialGradient>
    <radialGradient cx="0" cy="0" fx="380.8" fy="0" gradientTransform="matrix(0.0041, 0.01, -0.0037, 0.0016, -10.2, -7.2)" gradientUnits="userSpaceOnUse" id="gradient10" r="819.2" spreadMethod="pad">
      <stop offset="0.13333333333333333" stop-color="#e6ded9"/>
      <stop offset="0.2196078431372549" stop-color="#d9d0c8"/>
      <stop offset="0.615686274509804" stop-color="#bfb29d"/>
      <stop offset="0.8745098039215686" stop-color="#b4a58b"/>
      <stop offset="0.9725490196078431" stop-color="#b1a28d"/>
    </radialGradient>
    <radialGradient cx="0" cy="0" fx="380.8" fy="0" gradientTransform="matrix(-0.0041, 0.01, 0.0037, 0.0016, 10.2, -7.2)" gradientUnits="userSpaceOnUse" id="gradient11" r="819.2" spreadMethod="pad">
      <stop offset="0.13333333333333333" stop-color="#e6ded9"/>
      <stop offset="0.2196078431372549" stop-color="#d9d0c8"/>
      <stop offset="0.615686274509804" stop-color="#bfb29d"/>
      <stop offset="0.8745098039215686" stop-color="#b4a58b"/>
      <stop offset="0.9725490196078431" stop-color="#b1a28d"/>
    </radialGradient>
    <radialGradient cx="0" cy="0" gradientTransform="matrix(0.0116, -0.0061, 0.0042, 0.0079, -9.6, 9.6)" gradientUnits="userSpaceOnUse" id="gradient12" r="819.2" spreadMethod="pad">
      <stop offset="0.0" stop-color="#121110"/>
      <stop offset="1.0" stop-color="#a89c88"/>
    </radialGradient>
    <radialGradient cx="0" cy="0" gradientTransform="matrix(-0.0116, -0.0061, -0.0042, 0.0079, 9.65, 9.6)" gradientUnits="userSpaceOnUse" id="gradient13" r="819.2" spreadMethod="pad">
      <stop offset="0.0" stop-color="#121110"/>
      <stop offset="1.0" stop-color="#a89c88"/>
    </radialGradient>
    <linearGradient gradientTransform="matrix(0.0022, 0.0, 0.0, 0.0023, -2.95, 4.1)" gradientUnits="userSpaceOnUse" id="gradient14" spreadMethod="pad" x1="-819.2" x2="819.2">
      <stop offset="0.0" stop-color="#706750"/>
      <stop offset="0.7490196078431373" stop-color="#797362"/>
    </linearGradient>
    <linearGradient gradientTransform="matrix(-0.0022, 0.0, 0.0, 0.0023, 2.95, 4.1)" gradientUnits="userSpaceOnUse" id="gradient15" spreadMethod="pad" x1="-819.2" x2="819.2">
      <stop offset="0.0" stop-color="#706750"/>
      <stop offset="0.7490196078431373" stop-color="#797362"/>
    </linearGradient>
    <radialGradient cx="0" cy="0" gradientTransform="matrix(0.0185, 0.0, 0.0, 0.0185, -9.6, 7.2)" gradientUnits="userSpaceOnUse" id="gradient16" r="819.2" spreadMethod="pad">
      <stop offset="0.00392156862745098" stop-color="#020202"/>
      <stop offset="0.7176470588235294" stop-color="#544f41"/>
    </radialGradient>
    <radialGradient cx="0" cy="0" gradientTransform="matrix(-0.0185, 0.0, 0.0, 0.0185, 9.55, 7.2)" gradientUnits="userSpaceOnUse" id="gradient17" r="819.2" spreadMethod="pad">
      <stop offset="0.00392156862745098" stop-color="#020202"/>
      <stop offset="0.7176470588235294" stop-color="#544f41"/>
    </radialGradient>
    <radialGradient cx="0" cy="0" gradientTransform="matrix(0.0105, 0.0, 0.0, 0.0105, 0.0, 12.0)" gradientUnits="userSpaceOnUse" id="gradient18" r="819.2" spreadMethod="pad">
      <stop offset="0.00392156862745098" stop-color="#020202"/>
      <stop offset="0.7098039215686275" stop-color="#403d31"/>
    </radialGradient>
    <radialGradient cx="0" cy="0" gradientTransform="matrix(0.0106, 0.0, 0.0, 0.0106, 0.0, 12.0)" gradientUnits="userSpaceOnUse" id="gradient19" r="819.2" spreadMethod="pad">
      <stop offset="0.00392156862745098" stop-color="#020202"/>
      <stop offset="0.7176470588235294" stop-color="#403d31"/>
    </radialGradient>
    <radialGradient cx="0" cy="0" gradientTransform="matrix(0.0109, 0.0109, -0.0141, 0.0141, -12.0, 25.0)" gradientUnits="userSpaceOnUse" id="gradient20" r="819.2" spreadMethod="pad">
      <stop offset="0.23137254901960785" stop-color="#948d7f"/>
      <stop offset="0.4627450980392157" stop-color="#a29b95" stop-opacity="0.0"/>
    </radialGradient>
    <radialGradient cx="0" cy="0" gradientTransform="matrix(-0.0109, 0.0109, 0.0141, 0.014, 12.0, 24.95)" gradientUnits="userSpaceOnUse" id="gradient21" r="819.2" spreadMethod="pad">
      <stop offset="0.23137254901960785" stop-color="#948d7f"/>
      <stop offset="0.4627450980392157" stop-color="#a29b95" stop-opacity="0.0"/>
    </radialGradient>
    <radialGradient cx="0" cy="0" gradientTransform="matrix(0.0557, 0.0, 0.0, 0.046, 0.0, 26.4)" gradientUnits="userSpaceOnUse" id="gradient22" r="819.2" spreadMethod="pad">
      <stop offset="0.10196078431372549" stop-color="#c4bdac"/>
      <stop offset="0.1803921568627451" stop-color="#b8aea9" stop-opacity="0.0"/>
    </radialGradient>
    <radialGradient cx="0" cy="0" fx="-1385.6000000000001" fy="0" gradientTransform="matrix(0.0102, -0.0056, 0.0049, 0.009, -16.1, 23.05)" gradientUnits="userSpaceOnUse" id="gradient23" r="819.2" spreadMethod="pad">
      <stop offset="0.027450980392156862" stop-color="#b8b1a9"/>
      <stop offset="0.1568627450980392" stop-color="#968f7e"/>
      <stop offset="0.30980392156862746" stop-color="#847d6c"/>
      <stop offset="0.596078431372549" stop-color="#877e70"/>
      <stop offset="0.8" stop-color="#968f7e"/>
    </radialGradient>
    <radialGradient cx="0" cy="0" fx="-1385.6000000000001" fy="0" gradientTransform="matrix(-0.0102, -0.0056, -0.0049, 0.009, 16.1, 23.05)" gradientUnits="userSpaceOnUse" id="gradient24" r="819.2" spreadMethod="pad">
      <stop offset="0.027450980392156862" stop-color="#b8b1a9"/>
      <stop offset="0.1568627450980392" stop-color="#968f7e"/>
      <stop offset="0.30980392156862746" stop-color="#847d6c"/>
      <stop offset="0.596078431372549" stop-color="#877e70"/>
      <stop offset="0.8" stop-color="#968f7e"/>
    </radialGradient>
    <radialGradient cx="0" cy="0" gradientTransform="matrix(-0.0049, -0.0031, -0.0031, 0.0048, 9.8, 33.0)" gradientUnits="userSpaceOnUse" id="gradient25" r="819.2" spreadMethod="pad">
      <stop offset="0.10196078431372549" stop-color="#b0a99b"/>
      <stop offset="0.6470588235294118" stop-color="#78715c"/>
    </radialGradient>
    <radialGradient cx="0" cy="0" gradientTransform="matrix(0.0049, -0.0031, 0.0031, 0.0048, -9.8, 33.0)" gradientUnits="userSpaceOnUse" id="gradient26" r="819.2" spreadMethod="pad">
      <stop offset="0.10196078431372549" stop-color="#b0a99b"/>
      <stop offset="0.6470588235294118" stop-color="#78715c"/>
    </radialGradient>
    <radialGradient cx="0" cy="0" gradientTransform="matrix(0.0025, -0.0012, 0.0027, 0.0058, -8.1, 31.05)" gradientUnits="userSpaceOnUse" id="gradient27" r="819.2" spreadMethod="pad">
      <stop offset="0.21568627450980393" stop-color="#bfb8aa"/>
      <stop offset="0.7215686274509804" stop-color="#918975"/>
      <stop offset="1.0" stop-color="#7b7460"/>
    </radialGradient>
    <radialGradient cx="0" cy="0" gradientTransform="matrix(-0.0025, -0.0012, -0.0027, 0.0058, 8.1, 31.05)" gradientUnits="userSpaceOnUse" id="gradient28" r="819.2" spreadMethod="pad">
      <stop offset="0.21568627450980393" stop-color="#bfb8aa"/>
      <stop offset="0.7215686274509804" stop-color="#918975"/>
      <stop offset="1.0" stop-color="#7b7460"/>
    </radialGradient>
    <radialGradient cx="0" cy="0" gradientTransform="matrix(0.0075, 0.0, 0.0, 0.0154, -2.95, 29.9)" gradientUnits="userSpaceOnUse" id="gradient29" r="819.2" spreadMethod="pad">
      <stop offset="0.07450980392156863" stop-color="#dad6cf"/>
      <stop offset="0.19607843137254902" stop-color="#beb7ab"/>
      <stop offset="0.3333333333333333" stop-color="#a4a086"/>
      <stop offset="0.6" stop-color="#6c5f53"/>
    </radialGradient>
    <radialGradient cx="0" cy="0" gradientTransform="matrix(-0.0075, 0.0, 0.0, 0.0153, 2.85, 29.85)" gradientUnits="userSpaceOnUse" id="gradient30" r="819.2" spreadMethod="pad">
      <stop offset="0.07450980392156863" stop-color="#dad6cf"/>
      <stop offset="0.19607843137254902" stop-color="#beb7ab"/>
      <stop offset="0.3333333333333333" stop-color="#a4a086"/>
      <stop offset="0.6" stop-color="#6c5f53"/>
    </radialGradient>
    <radialGradient cx="0" cy="0" gradientTransform="matrix(0.0068, 0.0, 0.0, 0.0154, 0.0, 29.65)" gradientUnits="userSpaceOnUse" id="gradient31" r="819.2" spreadMethod="pad">
      <stop offset="0.07450980392156863" stop-color="#ddd9cc"/>
      <stop offset="0.19607843137254902" stop-color="#beb6ab"/>
      <stop offset="0.3333333333333333" stop-color="#a49e86"/>
      <stop offset="0.5764705882352941" stop-color="#9a947a"/>
    </radialGradient>
    <radialGradient cx="0" cy="0" fx="35.2" fy="0" gradientTransform="matrix(0.0031, -8.0E-4, 0.0016, 0.0062, -5.95, 30.35)" gradientUnits="userSpaceOnUse" id="gradient32" r="819.2" spreadMethod="pad">
      <stop offset="0.027450980392156862" stop-color="#d9d3d0"/>
      <stop offset="0.2" stop-color="#c6bfb9"/>
      <stop offset="0.7843137254901961" stop-color="#a09c89"/>
      <stop offset="1.0" stop-color="#a9a496"/>
    </radialGradient>
    <radialGradient cx="0" cy="0" fx="35.2" fy="0" gradientTransform="matrix(-0.0031, -8.0E-4, -0.0016, 0.0062, 5.9, 30.35)" gradientUnits="userSpaceOnUse" id="gradient33" r="819.2" spreadMethod="pad">
      <stop offset="0.027450980392156862" stop-color="#d9d3d0"/>
      <stop offset="0.2" stop-color="#c6bfb9"/>
      <stop offset="0.7843137254901961" stop-color="#a09c89"/>
      <stop offset="1.0" stop-color="#a9a496"/>
    </radialGradient>
  </defs>
</svg>
