<?xml version="1.0" encoding="UTF-8" standalone="no"?>
<svg xmlns:xlink="http://www.w3.org/1999/xlink" height="138.0px" width="66.0px" xmlns="http://www.w3.org/2000/svg">
  <g transform="matrix(1.0, 0.0, 0.0, 1.0, 33.0, 69.0)">
    <path d="M8.15 -67.65 L8.2 -67.6 Q13.5 -65.45 13.0 -62.0 L13.0 -61.55 Q16.55 -60.7 19.65 -59.35 29.4 -54.95 29.0 -48.4 L29.0 -19.35 Q33.1 -15.15 33.0 -10.0 33.1 -4.85 29.0 -0.65 L29.0 48.4 Q29.4 54.95 19.6 59.3 L19.65 59.3 Q16.55 60.65 13.0 61.55 L13.0 62.0 Q13.5 65.5 8.2 67.6 L8.15 67.6 Q4.8 69.0 0.0 69.0 -4.8 69.0 -8.2 67.6 -13.5 65.5 -13.0 62.0 L-13.0 61.55 Q-16.55 60.65 -19.6 59.3 -29.4 54.95 -29.0 48.4 L-29.0 -0.65 Q-33.1 -4.85 -33.0 -10.0 -33.05 -15.15 -29.0 -19.35 L-29.0 -48.4 Q-29.4 -54.95 -19.6 -59.35 -16.55 -60.7 -13.0 -61.55 L-13.0 -62.0 Q-13.5 -65.45 -8.25 -67.6 L-8.2 -67.65 Q-4.8 -69.0 0.0 -69.0 4.8 -69.0 8.15 -67.65" fill="#000000" fill-rule="evenodd" stroke="none"/>
    <path d="M0.0 66.0 Q-4.15 66.0 -7.1 64.8 -10.0 63.65 -10.0 62.0 L-10.0 42.0 10.0 42.0 10.0 62.0 Q10.0 63.65 7.05 64.8 4.15 66.0 0.0 66.0" fill="url(#gradient0)" fill-rule="evenodd" stroke="none"/>
    <path d="M30.0 -10.0 Q30.0 -3.35 21.2 1.3 12.45 6.0 0.0 6.0 -12.45 6.0 -21.25 1.3 -30.0 -3.35 -30.0 -10.0 -30.0 -16.65 -21.25 -21.35 -12.45 -26.0 0.0 -26.0 12.45 -26.0 21.2 -21.35 30.0 -16.65 30.0 -10.0" fill="#95836a" fill-rule="evenodd" stroke="none"/>
    <path d="M10.0 -37.6 Q14.6 -38.5 18.4 -40.2 25.85 -43.55 26.0 -48.25 L26.0 48.4 Q26.0 53.2 18.4 56.55 14.6 58.25 10.0 59.15 L10.0 -37.6" fill="url(#gradient1)" fill-rule="evenodd" stroke="none"/>
    <path d="M-26.0 -48.25 L-26.0 -48.4 Q-26.0 -53.2 -18.4 -56.6 -10.75 -60.0 0.0 -60.0 10.75 -60.0 18.4 -56.6 26.0 -53.2 26.0 -48.4 L26.0 -48.25 Q25.85 -43.55 18.4 -40.2 14.6 -38.5 10.0 -37.6 L0.0 -36.75 Q-10.75 -36.75 -18.4 -40.2 -25.85 -43.55 -26.0 -48.25" fill="url(#gradient2)" fill-rule="evenodd" stroke="none"/>
    <path d="M10.0 -37.6 L10.0 59.15 0.0 60.0 Q-10.75 60.0 -18.4 56.55 -26.0 53.2 -26.0 48.4 L-26.0 -48.25 Q-25.85 -43.55 -18.4 -40.2 -10.75 -36.75 0.0 -36.75 L10.0 -37.6" fill="url(#gradient3)" fill-rule="evenodd" stroke="none"/>
    <path d="M8.0 -37.25 L10.0 -37.6 10.0 59.15 8.0 59.5 8.0 -37.25" fill="url(#gradient4)" fill-rule="evenodd" stroke="none"/>
    <path d="M10.0 -61.95 Q9.95 -60.35 7.05 -59.2 4.15 -58.0 0.0 -58.0 -4.15 -58.0 -7.1 -59.2 -9.95 -60.35 -10.0 -61.95 L-10.0 -62.0 Q-10.0 -63.65 -7.1 -64.85 -4.15 -66.0 0.0 -66.0 4.15 -66.0 7.05 -64.85 10.0 -63.65 10.0 -62.0 L10.0 -61.95" fill="url(#gradient5)" fill-rule="evenodd" stroke="none"/>
    <path d="M-10.0 -61.95 Q-9.95 -60.35 -7.1 -59.2 -4.15 -58.0 0.0 -58.0 4.15 -58.0 7.05 -59.2 9.95 -60.35 10.0 -61.95 L10.0 -50.0 Q9.95 -48.4 7.05 -47.25 4.15 -46.05 0.0 -46.05 -4.15 -46.05 -7.1 -47.25 -9.95 -48.4 -10.0 -50.0 L-10.0 -61.95" fill="url(#gradient6)" fill-rule="evenodd" stroke="none"/>
    <path d="M21.2 3.8 Q15.0 7.15 6.9 8.1 12.45 12.75 15.8 19.1 L12.65 21.55 Q8.9 15.0 2.95 8.45 L0.0 8.5 -2.85 8.45 Q-8.9 14.95 -12.65 21.55 L-15.8 19.1 Q-12.45 12.75 -6.9 8.1 -15.0 7.15 -21.25 3.8 -24.1 2.3 -26.0 0.6 L-26.0 -7.35 Q-25.9 -2.5 -18.4 0.95 -10.75 4.5 0.0 4.5 10.75 4.5 18.35 0.95 25.9 -2.5 26.0 -7.35 L26.0 0.55 Q24.05 2.3 21.2 3.8" fill="#000000" fill-opacity="0.2" fill-rule="evenodd" stroke="none"/>
    <path d="M18.35 -1.55 Q26.0 -5.05 26.0 -10.0 L30.0 -10.0 Q30.0 -3.35 21.2 1.3 12.45 6.0 0.0 6.0 -12.45 6.0 -21.25 1.3 -30.0 -3.35 -30.0 -10.0 L-26.0 -10.0 Q-26.0 -5.05 -18.4 -1.55 -10.75 2.0 0.0 2.0 10.75 2.0 18.35 -1.55" fill="url(#gradient7)" fill-rule="evenodd" stroke="none"/>
    <path d="M4.0 4.3 Q3.9 5.75 2.85 6.75 L2.8 6.8 Q1.65 8.0 0.0 8.0 -1.65 8.0 -2.85 6.8 -3.9 5.75 -4.0 4.3 L-4.0 4.0 Q-4.0 2.35 -2.85 1.15 -1.65 0.0 0.0 0.0 1.65 0.0 2.8 1.15 4.0 2.35 4.0 4.0 L4.0 4.3" fill="url(#gradient8)" fill-rule="evenodd" stroke="none"/>
    <path d="M2.85 6.75 Q3.9 5.75 4.0 4.3 11.6 9.55 15.8 17.5 L12.65 19.95 Q8.9 13.35 2.85 6.75 M-4.0 4.3 Q-3.9 5.75 -2.85 6.8 -8.9 13.35 -12.65 19.95 L-15.8 17.5 Q-11.6 9.55 -4.0 4.3" fill="#b5a58a" fill-rule="evenodd" stroke="none"/>
    <path d="M4.0 4.3 Q3.9 5.75 2.85 6.75 M-4.0 4.3 Q-3.9 5.75 -2.85 6.8" fill="none" stroke="#8d785c" stroke-linecap="round" stroke-linejoin="round" stroke-width="1.0"/>
  </g>
  <defs>
    <linearGradient gradientTransform="matrix(0.0122, 0.0, 0.0, 0.0097, 0.0, -54.0)" gradientUnits="userSpaceOnUse" id="gradient0" spreadMethod="pad" x1="-819.2" x2="819.2">
      <stop offset="0.0" stop-color="#140e07"/>
      <stop offset="0.32941176470588235" stop-color="#1b130a"/>
      <stop offset="0.43529411764705883" stop-color="#4d381e"/>
      <stop offset="0.5490196078431373" stop-color="#4d381e"/>
      <stop offset="0.6588235294117647" stop-color="#1e160b"/>
      <stop offset="1.0" stop-color="#140e07"/>
    </linearGradient>
    <linearGradient gradientTransform="matrix(0.0098, 0.0, 0.0, 0.0656, 18.0, 5.45)" gradientUnits="userSpaceOnUse" id="gradient1" spreadMethod="pad" x1="-819.2" x2="819.2">
      <stop offset="0.0" stop-color="#2d5359"/>
      <stop offset="0.058823529411764705" stop-color="#335b62"/>
      <stop offset="0.11764705882352941" stop-color="#4692aa"/>
      <stop offset="1.0" stop-color="#243f46"/>
    </linearGradient>
    <linearGradient gradientTransform="matrix(-1.0E-4, -0.0141, 0.0142, -1.0E-4, 0.0, -48.4)" gradientUnits="userSpaceOnUse" id="gradient2" spreadMethod="pad" x1="-819.2" x2="819.2">
      <stop offset="0.0" stop-color="#d7d5d2"/>
      <stop offset="1.0" stop-color="#beb5b1"/>
    </linearGradient>
    <linearGradient gradientTransform="matrix(0.022, 0.0, 0.0, 0.0656, -8.0, 7.75)" gradientUnits="userSpaceOnUse" id="gradient3" spreadMethod="pad" x1="-819.2" x2="819.2">
      <stop offset="0.0" stop-color="#1e464d"/>
      <stop offset="0.396078431372549" stop-color="#3c919f"/>
      <stop offset="0.8156862745098039" stop-color="#37a6b9"/>
    </linearGradient>
    <linearGradient gradientTransform="matrix(0.0, -0.0598, 0.0593, 0.0, 9.0, 10.95)" gradientUnits="userSpaceOnUse" id="gradient4" spreadMethod="pad" x1="-819.2" x2="819.2">
      <stop offset="0.0" stop-color="#ffffff" stop-opacity="0.07058824"/>
      <stop offset="1.0" stop-color="#ffffff" stop-opacity="0.2"/>
    </linearGradient>
    <linearGradient gradientTransform="matrix(0.0, -0.0049, 0.0049, 0.0, 0.0, -62.0)" gradientUnits="userSpaceOnUse" id="gradient5" spreadMethod="pad" x1="-819.2" x2="819.2">
      <stop offset="0.0" stop-color="#4d381e"/>
      <stop offset="1.0" stop-color="#2e1f12"/>
    </linearGradient>
    <linearGradient gradientTransform="matrix(0.0122, 0.0, 0.0, 0.0097, 0.0, -54.0)" gradientUnits="userSpaceOnUse" id="gradient6" spreadMethod="pad" x1="-819.2" x2="819.2">
      <stop offset="0.0" stop-color="#140e07"/>
      <stop offset="0.32941176470588235" stop-color="#1b130a"/>
      <stop offset="0.43529411764705883" stop-color="#4d381e"/>
      <stop offset="0.5490196078431373" stop-color="#4d381e"/>
      <stop offset="0.6588235294117647" stop-color="#1e160b"/>
      <stop offset="1.0" stop-color="#140e07"/>
    </linearGradient>
    <linearGradient gradientTransform="matrix(0.0366, 0.0, 0.0, 0.0195, 0.0, -10.0)" gradientUnits="userSpaceOnUse" id="gradient7" spreadMethod="pad" x1="-819.2" x2="819.2">
      <stop offset="0.0" stop-color="#978668"/>
      <stop offset="0.5333333333333333" stop-color="#b5a58a"/>
      <stop offset="1.0" stop-color="#978668"/>
    </linearGradient>
    <radialGradient cx="0" cy="0" gradientTransform="matrix(0.005, 0.0, 0.0, 0.005, 0.0, 4.0)" gradientUnits="userSpaceOnUse" id="gradient8" r="819.2" spreadMethod="pad">
      <stop offset="0.0" stop-color="#c7baa9"/>
      <stop offset="0.6784313725490196" stop-color="#b5a58a"/>
      <stop offset="1.0" stop-color="#927b5f"/>
    </radialGradient>
  </defs>
</svg>
