<?xml version="1.0" encoding="UTF-8" standalone="no"?>
<svg xmlns:xlink="http://www.w3.org/1999/xlink" height="5.0px" width="760.0px" xmlns="http://www.w3.org/2000/svg">
  <g transform="matrix(1.0, 0.0, 0.0, 1.0, 0.0, -435.0)">
    <path d="M354.0 438.0 L354.0 439.0 0.0 439.0 0.0 437.0 354.0 437.0 354.0 438.0 M760.0 439.0 L406.0 439.0 406.0 438.0 406.0 437.0 760.0 437.0 760.0 439.0" fill="#d1d1d1" fill-rule="evenodd" stroke="none"/>
    <path d="M0.0 436.0 L354.0 436.0 354.0 437.0 369.0 437.0 369.0 438.0 354.0 438.0 354.0 437.0 0.0 437.0 0.0 436.0 M406.0 438.0 L391.0 438.0 391.0 437.0 406.0 437.0 406.0 436.0 760.0 436.0 760.0 437.0 406.0 437.0 406.0 438.0" fill="#a2a2a2" fill-rule="evenodd" stroke="none"/>
    <path d="M0.0 436.0 L0.0 435.0 760.0 435.0 760.0 436.0 406.0 436.0 406.0 437.0 391.0 437.0 391.0 438.0 406.0 438.0 406.0 439.0 760.0 439.0 760.0 440.0 0.0 440.0 0.0 439.0 354.0 439.0 354.0 438.0 369.0 438.0 369.0 437.0 354.0 437.0 354.0 436.0 0.0 436.0" fill="#000000" fill-rule="evenodd" stroke="none"/>
  </g>
</svg>
