<?xml version="1.0" encoding="UTF-8" standalone="no"?>
<svg xmlns:xlink="http://www.w3.org/1999/xlink" height="88.2px" width="61.0px" xmlns="http://www.w3.org/2000/svg">
  <g transform="matrix(1.0, 0.0, 0.0, 1.0, 30.5, 57.7)">
    <path d="M10.85 -50.6 Q9.05 -48.15 7.75 -42.7 L6.8 -37.85 8.55 -40.5 8.65 -40.65 Q14.25 -49.35 12.9 -51.1 11.75 -51.8 10.85 -50.6 M16.6 -55.85 Q19.9 -53.8 19.0 -48.85 18.25 -44.4 13.7 -37.35 10.8 -32.85 8.15 -29.45 15.55 -27.5 21.4 -21.75 L21.5 -21.6 21.55 -21.55 21.8 -21.35 24.65 -18.0 25.35 -17.05 25.45 -16.85 Q30.5 -9.5 30.5 0.0 30.5 2.65 30.15 5.1 L29.95 6.05 29.95 6.25 Q29.4 8.75 28.5 11.15 27.3 14.2 25.45 16.95 L25.4 17.05 22.0 21.15 21.75 21.35 21.7 21.4 21.65 21.5 21.5 21.65 18.75 24.1 Q10.7 30.5 0.0 30.5 -12.65 30.5 -21.55 21.55 -24.8 18.3 -26.85 14.6 L-27.1 14.2 -27.1 14.15 -27.25 13.85 -27.35 13.7 -28.0 12.25 -28.2 11.85 -28.2 11.9 -28.3 11.6 -28.35 11.55 -28.4 11.4 -28.4 11.35 -28.45 11.3 -28.5 11.15 -28.45 11.25 Q-30.5 6.05 -30.5 0.0 -30.5 -5.45 -28.8 -10.15 L-28.75 -10.45 -28.55 -10.95 -28.35 -11.4 Q-26.15 -17.0 -21.55 -21.55 L-18.8 -24.05 -18.65 -24.15 -17.85 -24.75 Q-12.4 -28.8 -5.8 -30.0 L-6.2 -30.8 Q-7.35 -31.35 -7.9 -32.9 L-7.95 -33.05 Q-8.8 -35.9 -6.1 -37.25 L-3.3 -38.15 -0.1 -38.5 0.0 -38.5 0.05 -38.5 0.15 -38.5 0.85 -38.5 1.95 -44.1 Q3.65 -51.1 6.05 -54.2 10.6 -60.25 16.55 -55.9 L16.6 -55.85" fill="#000000" fill-rule="evenodd" stroke="none"/>
    <path d="M14.75 -53.5 Q18.7 -50.65 11.15 -39.0 5.9 -30.9 1.5 -26.5 L3.25 -34.8 4.85 -43.4 Q6.35 -49.6 8.45 -52.4 11.2 -56.05 14.75 -53.5 Z" fill="none" stroke="url(#gradient0)" stroke-linecap="round" stroke-linejoin="round" stroke-width="1.0"/>
    <path d="M1.0 -26.0 L-1.0 -26.0 -5.0 -34.0 5.0 -34.0 1.0 -26.0" fill="url(#gradient1)" fill-rule="evenodd" stroke="none"/>
    <path d="M2.75 -35.7 L5.0 -35.0 Q5.8 -34.6 5.55 -33.75 5.3 -32.95 4.5 -33.1 1.8 -34.0 0.0 -34.0 -1.8 -34.0 -4.5 -33.1 -5.3 -32.95 -5.55 -33.75 -5.8 -34.6 -5.0 -35.0 L-2.75 -35.7 0.0 -36.0 2.75 -35.7" fill="url(#gradient2)" fill-rule="evenodd" stroke="none"/>
    <path d="M19.8 -19.8 Q28.0 -11.6 28.0 0.0 28.0 11.6 19.8 19.8 11.6 28.0 0.0 28.0 -11.6 28.0 -19.8 19.8 -28.0 11.6 -28.0 0.0 -28.0 -11.6 -19.8 -19.8 -11.6 -28.0 0.0 -28.0 11.6 -28.0 19.8 -19.8" fill="url(#gradient3)" fill-rule="evenodd" stroke="none"/>
    <path d="M-26.25 9.4 Q1.45 11.5 27.45 4.75 L27.65 4.75 27.5 5.75 Q1.55 12.45 -26.05 10.45 L-26.45 9.45 -26.25 9.4" fill="url(#gradient4)" fill-rule="evenodd" stroke="none"/>
    <path d="M-24.9 12.55 Q-4.0 19.5 20.05 19.35 L20.2 19.4 19.8 19.8 19.75 19.85 Q-4.1 19.95 -24.85 13.05 L-25.1 12.55 -24.9 12.55" fill="url(#gradient5)" fill-rule="evenodd" stroke="none"/>
    <path d="M2.5 -17.9 Q13.25 -15.95 22.65 -16.5 L23.3 -15.65 Q23.15 -15.55 23.05 -15.55 13.35 -14.9 2.3 -16.9 -7.05 -18.55 -16.95 -21.9 L-17.2 -22.1 -16.35 -22.75 Q-6.7 -19.5 2.5 -17.9" fill="url(#gradient6)" fill-rule="evenodd" stroke="none"/>
    <path d="M17.55 21.65 L17.7 21.75 17.2 22.15 Q4.95 20.8 -25.85 11.0 L-26.1 10.4 -25.9 10.4 Q5.35 20.4 17.55 21.65" fill="url(#gradient7)" fill-rule="evenodd" stroke="none"/>
    <path d="M19.8 -19.8 L20.0 -19.6 19.9 -19.55 Q-1.4 -9.0 -26.3 -9.6 L-26.4 -9.6 -26.2 -10.1 Q-1.5 -9.5 19.65 -19.95 L19.8 -19.8" fill="url(#gradient8)" fill-rule="evenodd" stroke="none"/>
    <path d="M9.7 12.3 L10.0 13.0 9.7 13.7 Q9.4 14.0 9.0 14.0 L8.3 13.7 Q8.0 13.4 8.0 13.0 8.0 12.6 8.3 12.3 8.6 12.0 9.0 12.0 9.4 12.0 9.7 12.3" fill="#b6c402" fill-rule="evenodd" stroke="none"/>
    <path d="M22.0 13.0 Q22.0 11.75 22.85 10.85 23.75 10.0 25.0 10.0 L26.2 10.25 Q25.1 13.0 23.4 15.55 L22.85 15.1 Q22.0 14.25 22.0 13.0" fill="url(#gradient9)" fill-rule="evenodd" stroke="none"/>
    <path d="M18.0 -6.0 Q18.0 -4.35 16.8 -3.2 15.65 -2.0 14.0 -2.0 12.35 -2.0 11.15 -3.2 10.0 -4.35 10.0 -6.0 10.0 -7.65 11.15 -8.85 12.35 -10.0 14.0 -10.0 15.65 -10.0 16.8 -8.85 18.0 -7.65 18.0 -6.0" fill="url(#gradient10)" fill-rule="evenodd" stroke="none"/>
    <path d="M-17.0 -2.0 Q-18.25 -2.0 -19.15 -2.9 -20.0 -3.75 -20.0 -5.0 -20.0 -6.25 -19.15 -7.15 -18.25 -8.0 -17.0 -8.0 -15.75 -8.0 -14.9 -7.15 -14.0 -6.25 -14.0 -5.0 -14.0 -3.75 -14.9 -2.9 -15.75 -2.0 -17.0 -2.0" fill="url(#gradient11)" fill-rule="evenodd" stroke="none"/>
    <path d="M19.8 -19.8 Q28.0 -11.6 28.0 0.0 28.0 11.6 19.8 19.8 11.6 28.0 0.0 28.0 -11.6 28.0 -19.8 19.8 -28.0 11.6 -28.0 0.0 -28.0 -11.6 -19.8 -19.8 -11.6 -28.0 0.0 -28.0 11.6 -28.0 19.8 -19.8" fill="url(#gradient12)" fill-rule="evenodd" stroke="none"/>
    <path d="M2.3 -26.35 Q-0.3 -28.0 0.0 -28.0 11.6 -28.0 19.8 -19.8 28.0 -11.6 28.0 0.0 28.0 11.6 19.8 19.8 11.6 28.0 0.0 28.0 4.05 26.95 9.25 23.05 19.85 15.15 19.75 1.25 19.7 -11.4 9.15 -21.1 6.2 -23.8 2.3 -26.35" fill="url(#gradient13)" fill-rule="evenodd" stroke="none"/>
    <path d="M-2.3 -26.35 Q-6.2 -23.8 -9.15 -21.1 -19.7 -11.4 -19.75 1.25 -19.85 15.15 -9.25 23.05 -4.05 26.95 0.0 28.0 -11.6 28.0 -19.8 19.8 -28.0 11.6 -28.0 0.0 -28.0 -11.6 -19.8 -19.8 -11.6 -28.0 0.0 -28.0 0.3 -28.0 -2.3 -26.35" fill="url(#gradient14)" fill-rule="evenodd" stroke="none"/>
  </g>
  <defs>
    <linearGradient gradientTransform="matrix(-0.0109, -0.0024, 0.0044, -0.0197, 8.0, -37.65)" gradientUnits="userSpaceOnUse" id="gradient0" spreadMethod="pad" x1="-819.2" x2="819.2">
      <stop offset="0.0" stop-color="#f3e1cb"/>
      <stop offset="0.29411764705882354" stop-color="#bf8b2b"/>
      <stop offset="0.7215686274509804" stop-color="#7c4e1f"/>
      <stop offset="0.9137254901960784" stop-color="#f7eadd"/>
    </linearGradient>
    <radialGradient cx="0" cy="0" gradientTransform="matrix(0.0129, 0.0, 0.0, 0.0129, -0.95, -27.5)" gradientUnits="userSpaceOnUse" id="gradient1" r="819.2" spreadMethod="pad">
      <stop offset="0.0" stop-color="#6a0000"/>
      <stop offset="0.2196078431372549" stop-color="#930202"/>
      <stop offset="0.4117647058823529" stop-color="#ba0505"/>
      <stop offset="0.596078431372549" stop-color="#b80707"/>
    </radialGradient>
    <linearGradient gradientTransform="matrix(0.0068, 0.0, 0.0, 0.0018, 0.0, -34.55)" gradientUnits="userSpaceOnUse" id="gradient2" spreadMethod="pad" x1="-819.2" x2="819.2">
      <stop offset="0.0" stop-color="#8c0909"/>
      <stop offset="0.12156862745098039" stop-color="#9c0e0e"/>
      <stop offset="0.5843137254901961" stop-color="#f43535"/>
      <stop offset="1.0" stop-color="#b40c0c"/>
    </linearGradient>
    <radialGradient cx="0" cy="0" gradientTransform="matrix(0.0433, 0.0, 0.0, 0.0433, 7.25, -12.75)" gradientUnits="userSpaceOnUse" id="gradient3" r="819.2" spreadMethod="pad">
      <stop offset="0.23529411764705882" stop-color="#fed6d6"/>
      <stop offset="0.2627450980392157" stop-color="#fc9898"/>
      <stop offset="0.43137254901960786" stop-color="#e70303"/>
      <stop offset="0.6470588235294118" stop-color="#d50000"/>
      <stop offset="0.7529411764705882" stop-color="#bf0000"/>
      <stop offset="0.9294117647058824" stop-color="#950000"/>
      <stop offset="1.0" stop-color="#800000"/>
    </radialGradient>
    <radialGradient cx="0" cy="0" gradientTransform="matrix(0.0414, 0.0, 0.0, 0.0414, 5.95, -10.05)" gradientUnits="userSpaceOnUse" id="gradient4" r="819.2" spreadMethod="pad">
      <stop offset="0.023529411764705882" stop-color="#d5ffff"/>
      <stop offset="0.3411764705882353" stop-color="#7761fa"/>
      <stop offset="0.36470588235294116" stop-color="#7661f3"/>
      <stop offset="0.6470588235294118" stop-color="#3806ce"/>
      <stop offset="0.7529411764705882" stop-color="#3e01be"/>
      <stop offset="0.9137254901960784" stop-color="#4a0293"/>
      <stop offset="1.0" stop-color="#350367"/>
    </radialGradient>
    <radialGradient cx="0" cy="0" gradientTransform="matrix(0.0431, 0.0, 0.0, 0.0431, 6.05, -10.55)" gradientUnits="userSpaceOnUse" id="gradient5" r="819.2" spreadMethod="pad">
      <stop offset="0.023529411764705882" stop-color="#e0d8fc"/>
      <stop offset="0.3411764705882353" stop-color="#9584fb"/>
      <stop offset="0.36470588235294116" stop-color="#735bf9"/>
      <stop offset="0.6313725490196078" stop-color="#0606ce"/>
      <stop offset="0.7529411764705882" stop-color="#160ab6"/>
      <stop offset="0.9137254901960784" stop-color="#1b068e"/>
      <stop offset="0.9764705882352941" stop-color="#2d3368"/>
      <stop offset="1.0" stop-color="#1f1c4f"/>
    </radialGradient>
    <radialGradient cx="0" cy="0" fx="3.2" fy="0" gradientTransform="matrix(0.0408, 0.0, 0.0, 0.0408, 7.45, -12.75)" gradientUnits="userSpaceOnUse" id="gradient6" r="819.2" spreadMethod="pad">
      <stop offset="0.023529411764705882" stop-color="#d5ffff"/>
      <stop offset="0.24313725490196078" stop-color="#fadd5a"/>
      <stop offset="0.37254901960784315" stop-color="#efef65"/>
      <stop offset="0.6470588235294118" stop-color="#cccc09"/>
      <stop offset="0.7529411764705882" stop-color="#b6a40a"/>
      <stop offset="0.9137254901960784" stop-color="#8d8c07"/>
      <stop offset="1.0" stop-color="#686702"/>
    </radialGradient>
    <radialGradient cx="0" cy="0" gradientTransform="matrix(0.0426, 0.0, 0.0, 0.0426, 5.8, -10.1)" gradientUnits="userSpaceOnUse" id="gradient7" r="819.2" spreadMethod="pad">
      <stop offset="0.023529411764705882" stop-color="#d5ffff"/>
      <stop offset="0.3411764705882353" stop-color="#84eafb"/>
      <stop offset="0.36470588235294116" stop-color="#5febf5"/>
      <stop offset="0.6313725490196078" stop-color="#04c1d0"/>
      <stop offset="0.7529411764705882" stop-color="#05adba"/>
      <stop offset="0.9137254901960784" stop-color="#048791"/>
      <stop offset="0.9764705882352941" stop-color="#246671"/>
      <stop offset="1.0" stop-color="#1e494d"/>
    </radialGradient>
    <radialGradient cx="0" cy="0" gradientTransform="matrix(0.0401, 0.0, 0.0, 0.0401, 7.4, -13.25)" gradientUnits="userSpaceOnUse" id="gradient8" r="819.2" spreadMethod="pad">
      <stop offset="0.023529411764705882" stop-color="#d5ffff"/>
      <stop offset="0.25098039215686274" stop-color="#bbfcad"/>
      <stop offset="0.36470588235294116" stop-color="#7af57a"/>
      <stop offset="0.6470588235294118" stop-color="#03d112"/>
      <stop offset="0.7529411764705882" stop-color="#06ba05"/>
      <stop offset="0.9137254901960784" stop-color="#119302"/>
      <stop offset="0.9764705882352941" stop-color="#276d31"/>
      <stop offset="1.0" stop-color="#036f02"/>
    </radialGradient>
    <radialGradient cx="0" cy="0" gradientTransform="matrix(0.0419, 0.0, 0.0, 0.0419, 6.2, -9.75)" gradientUnits="userSpaceOnUse" id="gradient9" r="819.2" spreadMethod="pad">
      <stop offset="0.023529411764705882" stop-color="#d5ffff"/>
      <stop offset="0.3411764705882353" stop-color="#7761fa"/>
      <stop offset="0.36470588235294116" stop-color="#7661f3"/>
      <stop offset="0.6470588235294118" stop-color="#3806ce"/>
      <stop offset="0.7529411764705882" stop-color="#3e01be"/>
      <stop offset="0.9137254901960784" stop-color="#4a0293"/>
      <stop offset="1.0" stop-color="#350367"/>
    </radialGradient>
    <radialGradient cx="0" cy="0" gradientTransform="matrix(0.0424, 0.0, 0.0, 0.0424, 7.5, -12.75)" gradientUnits="userSpaceOnUse" id="gradient10" r="819.2" spreadMethod="pad">
      <stop offset="0.023529411764705882" stop-color="#d5ffff"/>
      <stop offset="0.23921568627450981" stop-color="#a6fca5"/>
      <stop offset="0.3137254901960784" stop-color="#80f466"/>
      <stop offset="0.6470588235294118" stop-color="#28d004"/>
      <stop offset="0.7529411764705882" stop-color="#01be01"/>
      <stop offset="0.9137254901960784" stop-color="#1c9302"/>
      <stop offset="1.0" stop-color="#036f02"/>
    </radialGradient>
    <radialGradient cx="0" cy="0" gradientTransform="matrix(0.0354, 0.0, 0.0, 0.0354, 5.85, -10.25)" gradientUnits="userSpaceOnUse" id="gradient11" r="819.2" spreadMethod="pad">
      <stop offset="0.023529411764705882" stop-color="#d5ffff"/>
      <stop offset="0.3411764705882353" stop-color="#84ddfb"/>
      <stop offset="0.36470588235294116" stop-color="#60baf4"/>
      <stop offset="0.6470588235294118" stop-color="#078dcd"/>
      <stop offset="0.7529411764705882" stop-color="#0780b8"/>
      <stop offset="0.9137254901960784" stop-color="#026493"/>
      <stop offset="0.9764705882352941" stop-color="#28526c"/>
      <stop offset="1.0" stop-color="#02446f"/>
    </radialGradient>
    <linearGradient gradientTransform="matrix(-5.0E-4, 0.0342, -0.0342, -5.0E-4, 0.0, 0.0)" gradientUnits="userSpaceOnUse" id="gradient12" spreadMethod="pad" x1="-819.2" x2="819.2">
      <stop offset="0.6313725490196078" stop-color="#ffffff" stop-opacity="0.0"/>
      <stop offset="1.0" stop-color="#ffffff" stop-opacity="0.2"/>
    </linearGradient>
    <linearGradient gradientTransform="matrix(0.0316, 0.014, -0.0136, 0.0306, -0.5, 18.25)" gradientUnits="userSpaceOnUse" id="gradient13" spreadMethod="pad" x1="-819.2" x2="819.2">
      <stop offset="0.6274509803921569" stop-color="#ffffff" stop-opacity="0.0"/>
      <stop offset="1.0" stop-color="#ffffff" stop-opacity="0.4509804"/>
    </linearGradient>
    <linearGradient gradientTransform="matrix(-0.0117, -0.0096, -0.0211, 0.0257, -29.7, 4.75)" gradientUnits="userSpaceOnUse" id="gradient14" spreadMethod="pad" x1="-819.2" x2="819.2">
      <stop offset="0.4" stop-color="#ffffff" stop-opacity="0.0"/>
      <stop offset="0.403921568627451" stop-color="#ffffff" stop-opacity="0.0"/>
      <stop offset="0.7215686274509804" stop-color="#ffffff" stop-opacity="0.27058825"/>
    </linearGradient>
  </defs>
</svg>
