<?xml version="1.0" encoding="UTF-8" standalone="no"?>
<svg xmlns:xlink="http://www.w3.org/1999/xlink" height="36.7px" width="98.75px" xmlns="http://www.w3.org/2000/svg">
  <g transform="matrix(1.0, 0.0, 0.0, 1.0, -198.25, -507.3)">
    <path d="M207.95 513.1 L207.9 512.8 207.5 507.85 208.2 507.3 Q210.85 510.15 215.75 512.75 L219.6 514.6 Q229.15 518.75 238.35 518.75 242.0 518.75 249.75 515.75 252.45 523.75 260.7 531.5 269.5 539.75 276.75 539.75 278.35 539.75 281.65 537.8 284.8 536.0 285.75 534.75 L286.0 534.5 Q289.55 539.65 294.65 542.2 295.8 542.8 297.0 543.2 277.8 544.0 256.0 544.0 224.4 544.0 198.35 542.35 199.0 539.15 199.0 536.0 199.0 534.25 198.65 532.55 L198.25 530.75 198.25 530.25 Q200.25 532.25 202.1 532.25 205.0 532.25 206.75 527.75 208.25 523.9 208.25 519.0 L207.95 513.1" fill="url(#gradient0)" fill-rule="evenodd" stroke="none"/>
  </g>
  <defs>
    <linearGradient gradientTransform="matrix(3.0E-4, -0.3259, 0.3271, 2.0E-4, 445.4, 274.0)" gradientUnits="userSpaceOnUse" id="gradient0" spreadMethod="pad" x1="-819.2" x2="819.2">
      <stop offset="0.0" stop-color="#fee778"/>
      <stop offset="0.12156862745098039" stop-color="#ffec46"/>
      <stop offset="1.0" stop-color="#de0303"/>
    </linearGradient>
  </defs>
</svg>
