<?xml version="1.0" encoding="UTF-8" standalone="no"?>
<svg xmlns:xlink="http://www.w3.org/1999/xlink" height="304.85px" width="230.45px" xmlns="http://www.w3.org/2000/svg">
  <g transform="matrix(1.0, 0.0, 0.0, 1.0, -116.5, -225.0)">
    <path d="M346.95 350.0 Q309.95 365.9 297.9 396.1 293.85 406.35 292.45 418.95 291.65 425.75 291.25 435.6 265.45 448.95 257.7 472.35 254.8 481.25 254.1 492.6 253.75 498.6 254.0 511.5 L254.0 512.0 Q230.1 512.05 209.35 513.05 218.0 494.5 207.5 473.5 184.75 475.15 164.6 494.05 157.15 501.05 151.65 508.95 146.95 515.75 145.95 519.75 128.0 523.4 128.0 528.0 L128.2 529.85 Q123.7 522.85 120.4 511.85 117.55 502.4 116.5 493.5 L125.6 508.2 Q131.55 518.0 132.5 518.0 137.15 518.0 142.45 476.0 144.2 462.4 145.65 447.0 L146.8 433.45 Q151.0 442.15 160.15 447.5 168.4 452.3 176.75 452.5 205.5 453.15 243.65 343.4 255.95 307.9 267.6 265.5 275.95 235.1 277.95 225.0 279.3 238.55 286.95 259.0 294.2 278.6 304.85 298.4 315.8 318.7 326.55 332.3 338.35 347.15 346.95 350.0" fill="url(#gradient0)" fill-rule="evenodd" stroke="none"/>
  </g>
  <defs>
    <linearGradient gradientTransform="matrix(3.0E-4, -0.3259, 0.3271, 2.0E-4, 445.4, 274.0)" gradientUnits="userSpaceOnUse" id="gradient0" spreadMethod="pad" x1="-819.2" x2="819.2">
      <stop offset="0.0" stop-color="#ff9831"/>
      <stop offset="0.21568627450980393" stop-color="#f26522"/>
      <stop offset="0.6392156862745098" stop-color="#f00000"/>
      <stop offset="1.0" stop-color="#960505"/>
    </linearGradient>
  </defs>
</svg>
