<?xml version="1.0" encoding="UTF-8" standalone="no"?>
<svg xmlns:xlink="http://www.w3.org/1999/xlink" height="170.0px" width="40.35px" xmlns="http://www.w3.org/2000/svg">
  <g transform="matrix(1.0, 0.0, 0.0, 1.0, 28.35, 77.0)">
    <path d="M1.0 -72.15 L2.0 -53.15 2.0 -53.0 7.0 -53.0 Q8.25 -53.0 9.15 -52.1 L9.25 -52.0 Q10.35 -51.9 11.15 -51.1 12.0 -50.25 12.0 -49.0 L12.0 -45.0 Q12.0 -43.75 11.15 -42.85 L11.0 -42.75 11.0 -42.0 10.85 -41.0 10.15 -39.85 10.0 -39.75 10.0 -39.25 10.15 -39.1 10.85 -38.0 10.15 -36.85 10.0 -36.75 10.0 -36.25 10.15 -36.1 10.85 -35.0 10.15 -33.85 10.0 -33.75 10.0 -33.25 10.15 -33.1 10.85 -32.0 10.15 -30.85 10.0 -30.75 10.0 -30.25 10.15 -30.1 10.85 -29.0 11.0 -28.0 11.0 -27.0 Q11.0 -25.75 10.15 -24.85 L9.6 -24.4 9.15 -23.85 9.0 -23.75 9.0 -21.0 8.8 -19.8 9.9 -17.75 Q11.75 -13.85 8.5 -8.15 L8.5 -7.65 Q9.0 -6.95 9.0 -6.0 L9.0 -4.0 Q9.0 -2.75 8.15 -1.85 L8.0 -1.75 7.7 -0.65 7.0 0.7 7.0 86.75 7.15 86.9 Q8.0 87.75 8.0 89.0 L8.0 90.0 Q8.0 91.25 7.15 92.15 6.25 93.0 5.0 93.0 L-1.0 93.0 Q-2.25 93.0 -3.1 92.15 -4.0 91.25 -4.0 90.0 L-4.0 89.0 Q-4.0 87.75 -3.1 86.9 L-3.0 86.75 -3.0 24.0 -5.0 24.0 Q-6.25 24.0 -7.1 23.15 -8.0 22.25 -8.0 21.0 L-8.0 19.0 Q-8.0 17.75 -7.1 16.9 -6.25 16.0 -5.0 16.0 L-5.0 5.25 -5.1 5.15 Q-6.0 4.25 -6.0 3.0 L-6.0 0.0 Q-6.0 -1.25 -5.1 -2.1 -4.65 -2.6 -4.05 -2.8 L-4.1 -2.85 Q-5.0 -3.75 -5.0 -5.0 L-5.0 -5.95 -8.1 -7.2 Q-8.95 -7.55 -9.45 -8.3 L-9.5 -8.35 -9.9 -7.5 -10.35 -6.6 -10.65 -5.95 -11.3 -4.65 Q-11.8 -3.7 -12.7 -3.25 L-14.65 -3.05 Q-15.7 -3.3 -16.35 -4.1 -31.6 -23.2 -27.45 -41.35 -25.45 -50.65 -20.15 -56.05 L-18.6 -56.95 -16.8 -56.75 -12.6 -54.95 -12.55 -54.9 -9.8 -53.75 Q-8.75 -53.3 -8.25 -52.2 L-8.15 -52.0 -8.0 -52.0 -7.85 -52.0 -8.0 -53.15 -7.0 -72.15 -6.65 -73.35 -5.65 -75.35 Q-5.15 -76.4 -4.05 -76.8 -3.0 -77.2 -1.9 -76.8 -0.85 -76.4 -0.3 -75.35 L0.7 -73.35 1.0 -72.15 M-10.9 -26.15 Q-11.55 -23.25 -10.0 -18.1 L-10.0 -24.75 -10.1 -24.85 Q-10.7 -25.45 -10.9 -26.15" fill="#000000" fill-rule="evenodd" stroke="none"/>
    <path d="M4.0 0.0 L4.0 84.0 0.0 84.0 0.0 0.0 4.0 0.0" fill="url(#gradient0)" fill-rule="evenodd" stroke="none"/>
    <path d="M0.0 88.0 L0.0 84.0 4.0 84.0 4.0 88.0 0.0 88.0" fill="url(#gradient1)" fill-rule="evenodd" stroke="none"/>
    <path d="M5.0 89.0 L5.0 90.0 -1.0 90.0 -1.0 89.0 5.0 89.0" fill="url(#gradient2)" fill-rule="evenodd" stroke="none"/>
    <path d="M4.0 88.0 L5.0 89.0 -1.0 89.0 0.0 88.0 4.0 88.0" fill="url(#gradient3)" fill-rule="evenodd" stroke="none"/>
    <path d="M0.0 0.0 L0.0 21.0 -5.0 21.0 -5.0 19.0 -2.0 19.0 -2.0 3.0 -3.0 3.0 -3.0 0.0 0.0 0.0" fill="url(#gradient4)" fill-rule="evenodd" stroke="none"/>
    <path d="M5.0 -2.0 L4.0 0.0 0.0 0.0 -1.0 -2.0 5.0 -2.0" fill="url(#gradient5)" fill-rule="evenodd" stroke="none"/>
    <path d="M-1.0 -2.0 L-1.0 -26.0 5.0 -26.0 5.0 -2.0 -1.0 -2.0" fill="url(#gradient6)" fill-rule="evenodd" stroke="none"/>
    <path d="M-2.0 -45.0 L-2.0 -12.0 -1.0 -12.0 -1.0 -5.0 -2.0 -5.0 -2.0 -8.0 -7.0 -10.0 -7.0 -45.0 -2.0 -45.0" fill="url(#gradient7)" fill-rule="evenodd" stroke="none"/>
    <path d="M1.0 -37.1 L1.0 -26.0 -3.0 -26.0 -3.0 -27.0 -8.0 -27.0 -8.0 -31.0 -3.0 -31.0 -3.0 -45.0 -0.9 -45.0 1.0 -45.0 1.0 -37.1" fill="url(#gradient8)" fill-rule="evenodd" stroke="none"/>
    <path d="M-3.0 -42.0 L-3.0 -34.0 -4.0 -34.0 -4.0 -42.0 -3.0 -42.0 M-3.3 -12.3 L-4.7 -10.9 -5.4 -11.6 -4.0 -13.0 -3.3 -12.3" fill="#313131" fill-rule="evenodd" stroke="none"/>
    <path d="M9.0 -45.0 L-8.0 -45.0 -8.0 -49.0 9.0 -49.0 9.0 -45.0" fill="url(#gradient9)" fill-rule="evenodd" stroke="none"/>
    <path d="M1.0 -45.0 L7.0 -45.0 7.0 -26.0 1.0 -26.0 1.0 -45.0" fill="url(#gradient10)" fill-rule="evenodd" stroke="none"/>
    <path d="M1.0 -39.0 L1.0 -40.0 8.0 -40.0 8.0 -39.0 1.0 -39.0" fill="url(#gradient11)" fill-rule="evenodd" stroke="none"/>
    <path d="M1.0 -42.0 L1.0 -43.0 8.0 -43.0 8.0 -42.0 1.0 -42.0" fill="url(#gradient12)" fill-rule="evenodd" stroke="none"/>
    <path d="M8.0 -33.0 L1.0 -33.0 1.0 -34.0 8.0 -34.0 8.0 -33.0" fill="url(#gradient13)" fill-rule="evenodd" stroke="none"/>
    <path d="M8.0 -36.0 L1.0 -36.0 1.0 -37.0 8.0 -37.0 8.0 -36.0" fill="url(#gradient14)" fill-rule="evenodd" stroke="none"/>
    <path d="M1.0 -28.0 L8.0 -28.0 8.0 -27.0 1.0 -27.0 1.0 -28.0" fill="url(#gradient15)" fill-rule="evenodd" stroke="none"/>
    <path d="M8.0 -31.0 L8.0 -30.0 1.0 -30.0 1.0 -31.0 8.0 -31.0" fill="url(#gradient16)" fill-rule="evenodd" stroke="none"/>
    <path d="M7.0 -50.0 L7.0 -49.0 2.0 -49.0 2.0 -50.0 7.0 -50.0" fill="url(#gradient17)" fill-rule="evenodd" stroke="none"/>
    <path d="M-1.0 -50.0 L0.0 -50.0 0.0 -49.0 -6.0 -49.0 -6.0 -50.0 -5.0 -50.0 -1.0 -50.0" fill="url(#gradient18)" fill-rule="evenodd" stroke="none"/>
    <path d="M-5.0 -50.0 L-5.0 -51.0 -1.0 -51.0 -1.0 -50.0 -5.0 -50.0" fill="url(#gradient19)" fill-rule="evenodd" stroke="none"/>
    <path d="M1.0 -26.0 L-7.0 -26.0 -7.0 -27.0 1.0 -27.0 1.0 -26.0 M1.0 -31.0 L-7.0 -31.0 -7.0 -32.0 1.0 -32.0 1.0 -31.0 M1.0 -44.0 L-7.0 -44.0 -7.0 -45.0 1.0 -45.0 1.0 -44.0 M4.0 1.0 L0.0 1.0 0.0 0.0 4.0 0.0 4.0 1.0" fill="#000000" fill-opacity="0.23137255" fill-rule="evenodd" stroke="none"/>
    <path d="M4.15 -18.0 Q3.45 -19.15 3.5 -20.0 L3.5 -21.0 5.5 -21.0 5.5 -20.0 Q5.4 -19.55 5.95 -18.65 L7.1 -16.7 Q8.35 -13.6 5.5 -9.0 L5.5 -6.0 3.5 -6.0 3.5 -10.0 Q6.45 -13.3 5.35 -15.95 L4.15 -18.0" fill="url(#gradient20)" fill-rule="evenodd" stroke="none"/>
    <path d="M6.0 -21.0 L3.0 -21.0 3.0 -26.0 6.0 -26.0 6.0 -21.0" fill="url(#gradient21)" fill-rule="evenodd" stroke="none"/>
    <path d="M6.0 -4.0 L3.0 -4.0 3.0 -6.0 6.0 -6.0 6.0 -4.0" fill="url(#gradient22)" fill-rule="evenodd" stroke="none"/>
    <path d="M-2.0 -72.0 L-1.0 -53.0 -2.0 -51.0 -4.0 -51.0 -5.0 -53.0 -4.0 -72.0 -3.0 -74.0 -2.0 -72.0" fill="url(#gradient23)" fill-rule="evenodd" stroke="none"/>
    <path d="M-11.0 -51.0 Q-12.85 -45.5 -10.1 -44.2 -9.25 -43.8 -8.05 -43.85 L-7.0 -44.0 -7.0 -32.0 Q-10.2 -32.4 -12.3 -30.1 -16.5 -25.5 -11.0 -12.0 L-14.0 -6.0 Q-28.25 -23.8 -24.55 -40.7 -22.7 -49.1 -18.0 -54.0 L-11.0 -51.0" fill="url(#gradient24)" fill-rule="evenodd" stroke="none"/>
    <path d="M-13.8 -52.2 L-16.55 -45.1 Q-18.3 -40.45 -18.75 -36.4 -20.05 -24.7 -11.95 -10.1 L-14.0 -6.0 Q-28.25 -23.8 -24.55 -40.7 -22.7 -49.1 -18.0 -54.0 L-13.8 -52.2" fill="url(#gradient25)" fill-rule="evenodd" stroke="none"/>
  </g>
  <defs>
    <linearGradient gradientTransform="matrix(0.0024, 0.0, 0.0, 0.0562, 2.0, 46.0)" gradientUnits="userSpaceOnUse" id="gradient0" spreadMethod="pad" x1="-819.2" x2="819.2">
      <stop offset="0.0" stop-color="#152c55"/>
      <stop offset="0.3764705882352941" stop-color="#3c638a"/>
      <stop offset="0.615686274509804" stop-color="#3c638a"/>
      <stop offset="1.0" stop-color="#152c55"/>
    </linearGradient>
    <linearGradient gradientTransform="matrix(0.0024, 0.0, 0.0, 0.0049, 2.0, 88.0)" gradientUnits="userSpaceOnUse" id="gradient1" spreadMethod="pad" x1="-819.2" x2="819.2">
      <stop offset="0.16862745098039217" stop-color="#6f6451"/>
      <stop offset="0.5019607843137255" stop-color="#c2b4a7"/>
      <stop offset="0.8" stop-color="#6f6451"/>
    </linearGradient>
    <linearGradient gradientTransform="matrix(0.0037, 0.0, 0.0, 6.0E-4, 2.0, 89.5)" gradientUnits="userSpaceOnUse" id="gradient2" spreadMethod="pad" x1="-819.2" x2="819.2">
      <stop offset="0.10196078431372549" stop-color="#6f6451"/>
      <stop offset="0.5019607843137255" stop-color="#c2b4a7"/>
      <stop offset="0.8862745098039215" stop-color="#6f6451"/>
    </linearGradient>
    <linearGradient gradientTransform="matrix(0.0037, 0.0, 0.0, 6.0E-4, 2.0, 90.5)" gradientUnits="userSpaceOnUse" id="gradient3" spreadMethod="pad" x1="-819.2" x2="819.2">
      <stop offset="0.16862745098039217" stop-color="#6f6451"/>
      <stop offset="0.5019607843137255" stop-color="#a49786"/>
      <stop offset="0.8" stop-color="#6f6451"/>
    </linearGradient>
    <linearGradient gradientTransform="matrix(-0.0024, 0.0, 0.0, 0.0085, -2.0, 7.0)" gradientUnits="userSpaceOnUse" id="gradient4" spreadMethod="pad" x1="-819.2" x2="819.2">
      <stop offset="0.0" stop-color="#6a6a6a"/>
      <stop offset="0.27450980392156865" stop-color="#4e4e4e"/>
      <stop offset="0.7568627450980392" stop-color="#353535"/>
    </linearGradient>
    <linearGradient gradientTransform="matrix(0.0037, 0.0, 0.0, 6.0E-4, 2.0, 90.5)" gradientUnits="userSpaceOnUse" id="gradient5" spreadMethod="pad" x1="-819.2" x2="819.2">
      <stop offset="0.16862745098039217" stop-color="#564b3f"/>
      <stop offset="0.5098039215686274" stop-color="#897867"/>
      <stop offset="0.8" stop-color="#564b3f"/>
    </linearGradient>
    <linearGradient gradientTransform="matrix(0.0037, 0.0, 0.0, 6.0E-4, 2.0, 89.5)" gradientUnits="userSpaceOnUse" id="gradient6" spreadMethod="pad" x1="-819.2" x2="819.2">
      <stop offset="0.10196078431372549" stop-color="#51473c"/>
      <stop offset="0.5176470588235295" stop-color="#aa9486"/>
      <stop offset="0.8823529411764706" stop-color="#51473c"/>
    </linearGradient>
    <linearGradient gradientTransform="matrix(0.0, 0.0256, -0.0116, 0.0, -12.0, -25.0)" gradientUnits="userSpaceOnUse" id="gradient7" spreadMethod="pad" x1="-819.2" x2="819.2">
      <stop offset="0.0" stop-color="#877763"/>
      <stop offset="0.40784313725490196" stop-color="#877763"/>
      <stop offset="0.42745098039215684" stop-color="#8a8a8a"/>
      <stop offset="1.0" stop-color="#c2c2c2"/>
    </linearGradient>
    <linearGradient gradientTransform="matrix(0.0063, 0.0, 0.0, 0.0116, -3.0, -37.0)" gradientUnits="userSpaceOnUse" id="gradient8" spreadMethod="pad" x1="-819.2" x2="819.2">
      <stop offset="0.050980392156862744" stop-color="#6f6451"/>
      <stop offset="0.17647058823529413" stop-color="#a59485"/>
      <stop offset="0.33725490196078434" stop-color="#877763"/>
    </linearGradient>
    <linearGradient gradientTransform="matrix(0.0104, 0.0, 0.0, 0.0024, 0.5, -47.0)" gradientUnits="userSpaceOnUse" id="gradient9" spreadMethod="pad" x1="-819.2" x2="819.2">
      <stop offset="0.0" stop-color="#6f6451"/>
      <stop offset="0.1450980392156863" stop-color="#a29380"/>
      <stop offset="0.27058823529411763" stop-color="#6f6451"/>
      <stop offset="0.6862745098039216" stop-color="#6f6451"/>
      <stop offset="0.8784313725490196" stop-color="#a89a88"/>
      <stop offset="1.0" stop-color="#6f6451"/>
    </linearGradient>
    <linearGradient gradientTransform="matrix(0.0037, 0.0, 0.0, 0.0116, 4.0, -35.5)" gradientUnits="userSpaceOnUse" id="gradient10" spreadMethod="pad" x1="-819.2" x2="819.2">
      <stop offset="0.10588235294117647" stop-color="#52400a"/>
      <stop offset="0.14901960784313725" stop-color="#927110"/>
      <stop offset="0.4549019607843137" stop-color="#927110"/>
      <stop offset="0.6980392156862745" stop-color="#c79a14"/>
      <stop offset="0.807843137254902" stop-color="#c79a14"/>
      <stop offset="1.0" stop-color="#6d540a"/>
    </linearGradient>
    <linearGradient gradientTransform="matrix(0.0063, 0.0, 0.0, 6.0E-4, 4.0, -39.0)" gradientUnits="userSpaceOnUse" id="gradient11" spreadMethod="pad" x1="-819.2" x2="819.2">
      <stop offset="0.5607843137254902" stop-color="#b38a13"/>
      <stop offset="0.6627450980392157" stop-color="#eabf40"/>
      <stop offset="0.7607843137254902" stop-color="#eabf40"/>
      <stop offset="0.9490196078431372" stop-color="#9f7b11"/>
    </linearGradient>
    <linearGradient gradientTransform="matrix(0.0063, 0.0, 0.0, 6.0E-4, 4.0, -42.0)" gradientUnits="userSpaceOnUse" id="gradient12" spreadMethod="pad" x1="-819.2" x2="819.2">
      <stop offset="0.5607843137254902" stop-color="#b38a13"/>
      <stop offset="0.6627450980392157" stop-color="#eabf40"/>
      <stop offset="0.7607843137254902" stop-color="#eabf40"/>
      <stop offset="0.9490196078431372" stop-color="#9f7b11"/>
    </linearGradient>
    <linearGradient gradientTransform="matrix(0.0063, 0.0, 0.0, 6.0E-4, 4.0, -33.0)" gradientUnits="userSpaceOnUse" id="gradient13" spreadMethod="pad" x1="-819.2" x2="819.2">
      <stop offset="0.5607843137254902" stop-color="#b38a13"/>
      <stop offset="0.6627450980392157" stop-color="#eabf40"/>
      <stop offset="0.7607843137254902" stop-color="#eabf40"/>
      <stop offset="0.9490196078431372" stop-color="#9f7b11"/>
    </linearGradient>
    <linearGradient gradientTransform="matrix(0.0063, 0.0, 0.0, 6.0E-4, 4.0, -36.0)" gradientUnits="userSpaceOnUse" id="gradient14" spreadMethod="pad" x1="-819.2" x2="819.2">
      <stop offset="0.5607843137254902" stop-color="#b38a13"/>
      <stop offset="0.6627450980392157" stop-color="#eabf40"/>
      <stop offset="0.7607843137254902" stop-color="#eabf40"/>
      <stop offset="0.9490196078431372" stop-color="#9f7b11"/>
    </linearGradient>
    <linearGradient gradientTransform="matrix(0.0063, 0.0, 0.0, 6.0E-4, 4.0, -27.0)" gradientUnits="userSpaceOnUse" id="gradient15" spreadMethod="pad" x1="-819.2" x2="819.2">
      <stop offset="0.5607843137254902" stop-color="#b38a13"/>
      <stop offset="0.6627450980392157" stop-color="#eabf40"/>
      <stop offset="0.7607843137254902" stop-color="#eabf40"/>
      <stop offset="0.9490196078431372" stop-color="#9f7b11"/>
    </linearGradient>
    <linearGradient gradientTransform="matrix(0.0063, 0.0, 0.0, 6.0E-4, 4.0, -30.0)" gradientUnits="userSpaceOnUse" id="gradient16" spreadMethod="pad" x1="-819.2" x2="819.2">
      <stop offset="0.5607843137254902" stop-color="#b38a13"/>
      <stop offset="0.6627450980392157" stop-color="#eabf40"/>
      <stop offset="0.7607843137254902" stop-color="#eabf40"/>
      <stop offset="0.9490196078431372" stop-color="#9f7b11"/>
    </linearGradient>
    <linearGradient gradientTransform="matrix(0.0031, 0.0, 0.0, 6.0E-4, 4.5, -49.5)" gradientUnits="userSpaceOnUse" id="gradient17" spreadMethod="pad" x1="-819.2" x2="819.2">
      <stop offset="0.0" stop-color="#78715c"/>
      <stop offset="0.49019607843137253" stop-color="#d0ccbb"/>
      <stop offset="1.0" stop-color="#837d58"/>
    </linearGradient>
    <linearGradient gradientTransform="matrix(0.0037, 0.0, 0.0, 6.0E-4, -3.0, -49.5)" gradientUnits="userSpaceOnUse" id="gradient18" spreadMethod="pad" x1="-819.2" x2="819.2">
      <stop offset="0.011764705882352941" stop-color="#8d8d8d"/>
      <stop offset="0.5019607843137255" stop-color="#e6e6e6"/>
      <stop offset="1.0" stop-color="#717171"/>
    </linearGradient>
    <linearGradient gradientTransform="matrix(0.0024, 0.0, 0.0, 6.0E-4, -3.0, -50.5)" gradientUnits="userSpaceOnUse" id="gradient19" spreadMethod="pad" x1="-819.2" x2="819.2">
      <stop offset="0.011764705882352941" stop-color="#adadad"/>
      <stop offset="0.5019607843137255" stop-color="#ffffff"/>
      <stop offset="1.0" stop-color="#919191"/>
    </linearGradient>
    <linearGradient gradientTransform="matrix(6.0E-4, 0.0059, -0.0054, 5.0E-4, 3.5, -14.45)" gradientUnits="userSpaceOnUse" id="gradient20" spreadMethod="pad" x1="-819.2" x2="819.2">
      <stop offset="0.0" stop-color="#274883"/>
      <stop offset="0.5019607843137255" stop-color="#459cd6"/>
      <stop offset="1.0" stop-color="#284082"/>
    </linearGradient>
    <linearGradient gradientTransform="matrix(0.0023, 0.0, 0.0, 0.0043, 4.5, -22.0)" gradientUnits="userSpaceOnUse" id="gradient21" spreadMethod="pad" x1="-819.2" x2="819.2">
      <stop offset="0.1411764705882353" stop-color="#7a634b"/>
      <stop offset="0.5215686274509804" stop-color="#9d8062"/>
      <stop offset="0.7764705882352941" stop-color="#cab091"/>
      <stop offset="1.0" stop-color="#ac947d"/>
    </linearGradient>
    <linearGradient gradientTransform="matrix(0.0023, 0.0, 0.0, 0.0043, 4.5, -5.0)" gradientUnits="userSpaceOnUse" id="gradient22" spreadMethod="pad" x1="-819.2" x2="819.2">
      <stop offset="0.1411764705882353" stop-color="#7a634b"/>
      <stop offset="0.5215686274509804" stop-color="#9d8062"/>
      <stop offset="0.7764705882352941" stop-color="#cab091"/>
      <stop offset="1.0" stop-color="#ac947d"/>
    </linearGradient>
    <linearGradient gradientTransform="matrix(0.0, -0.015, 0.014, 0.0, -3.0, -62.5)" gradientUnits="userSpaceOnUse" id="gradient23" spreadMethod="pad" x1="-819.2" x2="819.2">
      <stop offset="0.0" stop-color="#eaeaea"/>
      <stop offset="0.11764705882352941" stop-color="#d8d8d8"/>
      <stop offset="0.15294117647058825" stop-color="#ffffff"/>
      <stop offset="1.0" stop-color="#cacaca"/>
    </linearGradient>
    <linearGradient gradientTransform="matrix(0.0161, -0.0022, 0.004, 0.029, -13.65, -34.95)" gradientUnits="userSpaceOnUse" id="gradient24" spreadMethod="pad" x1="-819.2" x2="819.2">
      <stop offset="0.0" stop-color="#cacaca"/>
      <stop offset="1.0" stop-color="#181818"/>
    </linearGradient>
    <radialGradient cx="0" cy="0" fx="3.2" fy="0" gradientTransform="matrix(0.0031, -0.0362, 0.0353, 0.0031, -29.0, -29.7)" gradientUnits="userSpaceOnUse" id="gradient25" r="819.2" spreadMethod="pad">
      <stop offset="0.17647058823529413" stop-color="#ffffff"/>
      <stop offset="1.0" stop-color="#787878"/>
    </radialGradient>
  </defs>
</svg>
