<?xml version="1.0" encoding="UTF-8" standalone="no"?>
<svg xmlns:xlink="http://www.w3.org/1999/xlink" height="18.15px" width="170.85px" xmlns="http://www.w3.org/2000/svg">
  <g transform="matrix(1.0, 0.0, 0.0, 1.0, 85.45, 21.0)">
    <path d="M0.0 -16.0 Q-46.7 -15.95 -79.8 -5.5 L-79.85 -5.5 -81.4 -5.0 Q-81.95 -4.75 -82.55 -5.0 -83.1 -5.3 -83.3 -5.85 -83.55 -6.45 -83.3 -7.0 L-82.45 -7.8 -80.7 -8.4 -80.7 -8.35 Q-47.2 -18.95 0.0 -19.0 L0.0 -18.95 Q47.2 -18.9 80.7 -8.3 L82.45 -7.75 83.3 -6.95 Q83.55 -6.4 83.3 -5.8 83.1 -5.25 82.55 -4.95 81.95 -4.7 81.4 -4.95 L79.85 -5.45 79.8 -5.45 Q46.7 -15.9 0.0 -15.95 L0.0 -16.0 Z" fill="none" stroke="#000000" stroke-linecap="round" stroke-linejoin="round" stroke-width="4.0"/>
    <path d="M0.0 -15.95 L0.0 -16.0 Q-46.7 -15.95 -79.8 -5.5 L-79.85 -5.5 -81.4 -5.0 Q-81.95 -4.75 -82.55 -5.0 -83.1 -5.3 -83.3 -5.85 -83.55 -6.45 -83.3 -7.0 L-82.45 -7.8 -80.7 -8.4 -80.7 -8.35 Q-47.2 -18.95 0.0 -19.0 L0.0 -18.95 Q47.2 -18.9 80.7 -8.3 L80.7 -8.35 80.75 -8.35 82.45 -7.75 83.3 -6.95 Q83.55 -6.4 83.3 -5.8 83.1 -5.25 82.55 -4.95 81.95 -4.7 81.4 -4.95 L79.85 -5.45 79.8 -5.45 Q46.7 -15.9 0.0 -15.95" fill="url(#gradient0)" fill-rule="evenodd" stroke="none"/>
  </g>
  <defs>
    <linearGradient gradientTransform="matrix(0.099, 0.0, 0.0, 0.0077, 0.0, -12.7)" gradientUnits="userSpaceOnUse" id="gradient0" spreadMethod="pad" x1="-819.2" x2="819.2">
      <stop offset="0.0" stop-color="#959595"/>
      <stop offset="0.19607843137254902" stop-color="#ffffff"/>
      <stop offset="0.5058823529411764" stop-color="#ffffff"/>
      <stop offset="0.8274509803921568" stop-color="#ffffff"/>
      <stop offset="1.0" stop-color="#959595"/>
    </linearGradient>
  </defs>
</svg>
