<?xml version="1.0" encoding="UTF-8" standalone="no"?>
<svg xmlns:xlink="http://www.w3.org/1999/xlink" height="123.75px" width="87.8px" xmlns="http://www.w3.org/2000/svg">
  <g transform="matrix(1.0, 0.0, 0.0, 1.0, 43.9, 61.75)">
    <path d="M1.3 -61.2 L4.0 -58.65 4.6 -57.65 9.2 -38.35 16.3 -31.25 Q16.9 -30.7 16.9 -29.85 L16.9 -25.9 16.6 -24.85 15.85 -24.1 15.05 -23.7 15.4 -23.4 17.4 -21.4 17.95 -20.45 Q18.1 -19.9 17.9 -19.35 L16.0 -13.65 Q16.0 -6.6 16.9 -0.45 L18.95 -2.55 Q20.3 -3.7 21.6 -4.3 24.6 -5.8 26.7 -5.25 28.1 -4.9 28.85 -3.9 29.55 -3.0 29.85 -1.35 35.0 0.0 38.45 2.45 41.6 4.65 42.85 8.15 44.4 12.25 43.7 16.55 43.1 20.25 41.3 23.4 L40.7 24.35 40.65 24.35 Q38.45 27.55 35.0 29.3 L37.75 30.75 37.75 30.8 Q40.75 32.7 41.8 35.2 L41.95 36.15 41.75 38.2 Q41.35 40.5 40.35 42.6 37.45 48.8 29.3 53.7 L24.75 56.2 22.0 57.4 22.0 60.0 Q22.0 60.85 21.4 61.45 20.85 62.0 20.0 62.0 L-20.0 62.0 Q-20.85 62.0 -21.4 61.45 -22.0 60.85 -22.0 60.0 L-22.0 57.4 -24.75 56.2 -29.3 53.7 Q-37.45 48.8 -40.35 42.6 -41.35 40.5 -41.75 38.2 L-41.95 36.15 -41.8 35.2 Q-40.75 32.7 -37.75 30.8 L-37.75 30.75 -35.0 29.3 Q-38.45 27.55 -40.65 24.35 L-40.7 24.35 -41.3 23.4 Q-43.1 20.25 -43.7 16.55 -44.4 12.25 -42.85 8.15 -41.6 4.65 -38.45 2.45 -35.0 0.0 -29.85 -1.35 -29.55 -3.0 -28.85 -3.9 -28.1 -4.9 -26.7 -5.25 -24.6 -5.8 -21.6 -4.3 -20.3 -3.7 -18.95 -2.55 L-16.9 -0.45 Q-16.0 -6.6 -16.0 -13.65 L-17.9 -19.35 Q-18.1 -19.9 -17.95 -20.45 L-17.4 -21.4 -15.4 -23.4 -15.05 -23.7 -15.85 -24.1 -16.6 -24.85 -16.9 -25.9 -16.9 -29.85 Q-16.9 -30.7 -16.3 -31.25 L-9.2 -38.35 -4.6 -57.65 -4.0 -58.65 -1.3 -61.2 Q-0.75 -61.75 0.0 -61.75 0.75 -61.75 1.3 -61.2 M30.25 7.15 Q26.3 5.8 22.6 7.4 L19.9 11.6 Q21.45 16.45 23.95 20.9 24.85 22.45 26.2 23.7 L28.9 23.35 30.6 22.6 31.8 21.5 Q34.55 18.25 34.7 13.9 34.85 9.05 30.6 7.3 L30.25 7.15 M-30.25 7.15 L-30.6 7.3 Q-34.85 9.05 -34.7 13.9 -34.55 18.25 -31.8 21.5 L-30.6 22.6 -28.9 23.35 -26.2 23.7 Q-24.85 22.45 -23.95 20.9 -21.45 16.45 -19.9 11.6 L-22.6 7.4 Q-26.3 5.8 -30.25 7.15" fill="#000000" fill-rule="evenodd" stroke="none"/>
    <path d="M-27.9 -1.0 Q-27.65 -2.8 -26.1 -3.2 -24.6 -3.65 -22.55 -2.55 -17.55 -0.05 -15.0 7.5 -14.5 9.05 -15.8 12.7 -17.15 16.35 -17.3 14.55 -18.0 7.95 -21.55 5.7 -24.3 4.0 -29.15 4.75 -33.0 5.35 -35.05 8.1 -36.95 10.6 -36.7 14.05 -36.2 20.8 -32.4 23.75 -28.3 26.95 -20.8 24.85 L-21.2 27.3 Q-27.5 30.1 -32.85 28.05 -36.7 26.55 -39.05 23.2 -41.1 20.2 -41.8 16.2 -42.4 12.0 -41.2 8.75 -39.3 4.05 -33.5 1.85 L-29.7 0.5 Q-28.05 -0.15 -27.9 -1.0" fill="url(#gradient0)" fill-rule="evenodd" stroke="none"/>
    <path d="M26.1 -3.2 Q27.65 -2.8 27.9 -1.0 28.05 -0.15 29.7 0.5 L33.5 1.85 Q39.3 4.05 41.2 8.75 42.4 12.0 41.8 16.2 41.1 20.2 39.05 23.2 36.7 26.55 32.85 28.05 27.5 30.1 21.2 27.3 L20.8 24.85 Q28.3 26.95 32.4 23.75 36.2 20.8 36.7 14.05 36.95 10.6 35.05 8.1 33.0 5.35 29.15 4.75 24.3 4.0 21.55 5.7 18.0 7.95 17.3 14.55 17.15 16.35 15.8 12.7 14.5 9.05 15.0 7.5 17.55 -0.05 22.55 -2.55 24.6 -3.65 26.1 -3.2" fill="url(#gradient1)" fill-rule="evenodd" stroke="none"/>
    <path d="M-26.25 36.0 Q-25.9 35.15 -24.05 33.8 L-21.1 31.9 Q-16.3 28.95 -12.05 20.7 -5.9 8.7 -5.9 -14.05 L-7.85 -20.0 7.85 -20.0 5.9 -14.05 Q5.9 8.7 12.05 20.7 16.3 28.95 21.1 31.9 L24.05 33.8 Q25.9 35.15 26.25 36.0 L0.0 36.0 -26.25 36.0" fill="#b0eae3" fill-rule="evenodd" stroke="none"/>
    <path d="M26.25 36.0 Q26.05 44.1 10.0 56.0 L-10.0 56.0 Q-26.05 44.1 -26.25 36.0 L0.0 36.0 26.25 36.0" fill="#8adfcf" fill-rule="evenodd" stroke="none"/>
    <path d="M-16.0 -20.0 L-14.0 -22.0 -8.0 -22.0 -8.0 -20.0 -16.0 -20.0 M8.0 -22.0 L14.0 -22.0 16.0 -20.0 8.0 -20.0 8.0 -22.0" fill="#d7f4ee" fill-rule="evenodd" stroke="none"/>
    <path d="M-20.0 56.0 Q-23.55 54.8 -28.3 51.95 -39.4 45.3 -39.95 36.0 L-26.25 36.0 Q-26.05 44.1 -10.0 56.0 L-20.0 56.0" fill="#73d9bf" fill-rule="evenodd" stroke="none"/>
    <path d="M39.95 36.0 Q39.4 45.3 28.3 51.95 23.55 54.8 20.0 56.0 L10.0 56.0 Q26.05 44.1 26.25 36.0 L39.95 36.0" fill="#a0e4d2" fill-rule="evenodd" stroke="none"/>
    <path d="M16.0 -20.0 L14.0 -14.0 Q14.0 -3.5 15.9 4.95 17.7 12.95 21.65 20.75 24.4 26.3 31.75 29.9 L36.7 32.45 Q39.1 34.0 39.95 36.0 L26.25 36.0 Q25.9 35.15 24.05 33.8 L21.1 31.9 Q16.3 28.95 12.05 20.7 5.9 8.7 5.9 -14.05 L7.85 -20.0 8.0 -20.0 16.0 -20.0" fill="#c1f4e2" fill-rule="evenodd" stroke="none"/>
    <path d="M20.0 56.0 L20.0 60.0 -20.0 60.0 -20.0 56.0 -10.0 56.0 10.0 56.0 20.0 56.0" fill="url(#gradient2)" fill-rule="evenodd" stroke="none"/>
    <path d="M-8.0 -20.0 L-8.0 -22.0 0.0 -22.0 8.0 -22.0 8.0 -20.0 7.85 -20.0 -7.85 -20.0 -8.0 -20.0" fill="#f9fdfb" fill-rule="evenodd" stroke="none"/>
    <path d="M-16.0 -20.0 L-8.0 -20.0 -7.85 -20.0 -5.9 -14.05 Q-5.9 8.7 -12.05 20.7 -16.3 28.95 -21.1 31.9 L-24.05 33.8 Q-25.9 35.15 -26.25 36.0 L-39.95 36.0 Q-39.1 34.0 -36.7 32.45 L-31.75 29.9 Q-24.4 26.3 -21.65 20.75 -17.7 12.95 -15.9 4.95 -14.0 -3.5 -14.0 -14.0 L-16.0 -20.0" fill="url(#gradient3)" fill-rule="evenodd" stroke="none"/>
    <path d="M-10.75 -2.0 L-9.7 -15.0 0.0 -15.0 9.7 -15.0 Q10.2 -7.3 10.8 -2.0 L-10.75 -2.0" fill="#73a8a8" fill-rule="evenodd" stroke="none"/>
    <path d="M10.8 -2.0 Q11.35 3.1 12.0 6.0 13.1 10.8 14.15 14.1 15.5 18.15 17.45 22.0 18.9 24.8 21.2 27.15 23.4 29.45 26.0 30.85 L30.9 33.05 Q33.7 34.4 34.65 36.0 33.85 39.25 31.85 42.2 29.6 45.65 26.25 47.8 23.45 49.6 19.65 51.3 15.45 53.15 12.0 54.0 L0.0 54.0 -12.0 54.0 Q-15.45 53.15 -19.65 51.3 -23.45 49.6 -26.25 47.8 -29.6 45.65 -31.85 42.2 -33.85 39.25 -34.65 36.0 -33.7 34.4 -30.9 33.05 L-26.0 30.85 Q-23.4 29.45 -21.2 27.15 -18.9 24.8 -17.45 22.0 -15.5 18.15 -14.15 14.1 -13.1 10.8 -12.0 6.0 -11.35 3.1 -10.75 -2.0 L10.8 -2.0" fill="url(#gradient4)" fill-rule="evenodd" stroke="none"/>
    <path d="M10.8 -2.0 Q11.35 3.1 12.0 6.0 13.1 10.8 14.15 14.1 15.5 18.15 17.45 22.0 18.9 24.8 21.2 27.15 23.4 29.45 26.0 30.85 L30.9 33.05 Q33.7 34.4 34.65 36.0 33.85 39.25 31.85 42.2 29.6 45.65 26.25 47.8 23.45 49.6 19.65 51.3 15.45 53.15 12.0 54.0 L0.0 54.0 -12.0 54.0 Q-15.45 53.15 -19.65 51.3 -23.45 49.6 -26.25 47.8 -29.6 45.65 -31.85 42.2 -33.85 39.25 -34.65 36.0 -33.7 34.4 -30.9 33.05 L-26.0 30.85 Q-23.4 29.45 -21.2 27.15 -18.9 24.8 -17.45 22.0 -15.5 18.15 -14.15 14.1 -13.1 10.8 -12.0 6.0 -11.35 3.1 -10.75 -2.0" fill="none" stroke="#10a063" stroke-linecap="round" stroke-linejoin="round" stroke-width="1.0"/>
    <path d="M-10.75 -2.0 L-9.7 -15.0 0.0 -15.0 9.7 -15.0 Q10.2 -7.3 10.8 -2.0 Z" fill="none" stroke="#49a5c2" stroke-linecap="round" stroke-linejoin="round" stroke-width="1.0"/>
    <path d="M4.75 -35.85 L8.15 -30.4 -8.1 -30.35 -4.65 -35.85 4.75 -35.85 M1.45 -8.05 L-1.3 -8.05 -2.0 -15.5 2.1 -15.5 1.45 -8.05" fill="#ffffff" fill-rule="evenodd" stroke="none"/>
    <path d="M4.75 -35.85 L1.3 -55.2 0.05 -56.4 0.05 -59.75 2.75 -57.2 7.5 -37.35 15.0 -29.85 15.0 -26.0 8.2 -26.0 8.15 -30.4 4.75 -35.85 M5.25 -15.5 L3.7 -8.05 1.45 -8.05 2.1 -15.5 5.25 -15.5 M8.2 -26.0 L2.95 -21.95 -2.85 -21.95 -8.1 -25.9 8.2 -26.0" fill="#d7f4f3" fill-rule="evenodd" stroke="none"/>
    <path d="M-1.3 -8.05 L-3.8 -8.05 -5.2 -15.5 -2.0 -15.5 -1.3 -8.05" fill="#7cd0de" fill-rule="evenodd" stroke="none"/>
    <path d="M0.05 -56.4 L1.3 -55.2 4.75 -35.85 -4.65 -35.85 -1.2 -55.2 0.05 -56.4 M8.15 -30.4 L8.2 -26.0 -8.1 -25.9 -8.1 -30.35 8.15 -30.4" fill="#b0eae3" fill-rule="evenodd" stroke="none"/>
    <path d="M0.05 -59.75 L0.05 -56.4 -1.2 -55.2 -4.65 -35.85 -8.1 -30.35 -8.1 -25.9 -14.9 -25.9 -14.9 -29.85 -7.4 -37.35 -2.65 -57.2 0.05 -59.75" fill="#92e4d6" fill-rule="evenodd" stroke="none"/>
    <path d="M-2.85 -21.95 L-7.5 -21.95 -14.9 -25.9 -8.1 -25.9 -2.85 -21.95" fill="#50cbac" fill-rule="evenodd" stroke="none"/>
    <path d="M8.2 -26.0 L15.0 -26.0 7.65 -21.95 2.95 -21.95 8.2 -26.0" fill="#86e3d2" fill-rule="evenodd" stroke="none"/>
    <path d="M5.25 -15.5 L3.7 -8.05 1.45 -8.05 -1.3 -8.05 -3.8 -8.05 -5.2 -15.5" fill="none" stroke="#30788f" stroke-linecap="round" stroke-linejoin="round" stroke-width="1.0"/>
    <path d="M-20.0 36.0 Q-19.45 34.4 -17.85 33.05 -15.9 31.7 -15.0 30.85 -13.5 29.45 -12.25 27.15 -10.9 24.8 -10.05 22.0 -8.95 18.15 -8.15 14.1 L-6.95 6.0 Q-6.55 3.1 -6.2 -2.0 L-5.6 -15.0 0.0 -15.0 5.6 -15.0 6.25 -2.0 Q6.55 3.1 6.95 6.0 L8.15 14.1 Q8.95 18.15 10.05 22.0 10.9 24.8 12.25 27.15 13.5 29.45 15.0 30.85 15.9 31.7 17.85 33.05 19.45 34.4 20.0 36.0 L-20.0 36.0" fill="url(#gradient5)" fill-rule="evenodd" stroke="none"/>
    <path d="M20.0 36.0 Q19.55 39.25 18.4 42.2 17.1 45.65 15.15 47.8 L11.35 51.3 Q8.9 53.15 6.95 54.0 L0.0 54.0 -6.95 54.0 Q-8.9 53.15 -11.35 51.3 L-15.15 47.8 Q-17.1 45.65 -18.4 42.2 -19.55 39.25 -20.0 36.0 L20.0 36.0" fill="url(#gradient6)" fill-rule="evenodd" stroke="none"/>
  </g>
  <defs>
    <linearGradient gradientTransform="matrix(-0.0152, -0.005, 0.005, -0.0177, -30.4, 13.1)" gradientUnits="userSpaceOnUse" id="gradient0" spreadMethod="pad" x1="-819.2" x2="819.2">
      <stop offset="0.0" stop-color="#96e0cd"/>
      <stop offset="0.6627450980392157" stop-color="#8eccb6"/>
      <stop offset="0.8588235294117647" stop-color="#c0e9e1"/>
    </linearGradient>
    <linearGradient gradientTransform="matrix(0.0152, -0.005, -0.005, -0.0177, 30.4, 13.1)" gradientUnits="userSpaceOnUse" id="gradient1" spreadMethod="pad" x1="-819.2" x2="819.2">
      <stop offset="0.0" stop-color="#c1f4e2"/>
      <stop offset="0.6627450980392157" stop-color="#8eccb6"/>
      <stop offset="0.8588235294117647" stop-color="#c0e9e1"/>
    </linearGradient>
    <linearGradient gradientTransform="matrix(0.0244, 0.0, 0.0, 0.0024, 0.0, 58.0)" gradientUnits="userSpaceOnUse" id="gradient2" spreadMethod="pad" x1="-819.2" x2="819.2">
      <stop offset="0.0" stop-color="#7cd8b8"/>
      <stop offset="0.5372549019607843" stop-color="#b3e8d0"/>
      <stop offset="1.0" stop-color="#7cd8b8"/>
    </linearGradient>
    <linearGradient gradientTransform="matrix(-1.0E-4, -0.0342, 0.0342, -1.0E-4, -22.95, 8.0)" gradientUnits="userSpaceOnUse" id="gradient3" spreadMethod="pad" x1="-819.2" x2="819.2">
      <stop offset="0.0" stop-color="#a7e4d5"/>
      <stop offset="0.2784313725490196" stop-color="#95e0cd"/>
      <stop offset="1.0" stop-color="#60d0b4"/>
    </linearGradient>
    <linearGradient gradientTransform="matrix(0.0, -0.0342, 0.0342, 0.0, 0.0, 26.0)" gradientUnits="userSpaceOnUse" id="gradient4" spreadMethod="pad" x1="-819.2" x2="819.2">
      <stop offset="0.08627450980392157" stop-color="#79f55f"/>
      <stop offset="1.0" stop-color="#37ea8f"/>
    </linearGradient>
    <linearGradient gradientTransform="matrix(0.0, -0.0323, 0.0311, 0.0, 0.0, 10.5)" gradientUnits="userSpaceOnUse" id="gradient5" spreadMethod="pad" x1="-819.2" x2="819.2">
      <stop offset="0.027450980392156862" stop-color="#ffffff" stop-opacity="0.7529412"/>
      <stop offset="0.24705882352941178" stop-color="#ffffff" stop-opacity="0.47843137"/>
      <stop offset="0.8784313725490196" stop-color="#ffffff" stop-opacity="0.39215687"/>
      <stop offset="1.0" stop-color="#ffffff" stop-opacity="0.0"/>
    </linearGradient>
    <linearGradient gradientTransform="matrix(0.0, -0.0342, 0.0197, 0.0, 0.0, 26.0)" gradientUnits="userSpaceOnUse" id="gradient6" spreadMethod="pad" x1="-819.2" x2="819.2">
      <stop offset="0.18823529411764706" stop-color="#ffffff" stop-opacity="0.19215687"/>
      <stop offset="1.0" stop-color="#ffffff" stop-opacity="0.2627451"/>
    </linearGradient>
  </defs>
</svg>
