<?xml version="1.0" encoding="UTF-8" standalone="no"?>
<svg xmlns:xlink="http://www.w3.org/1999/xlink" height="96.05px" width="96.05px" xmlns="http://www.w3.org/2000/svg">
  <g transform="matrix(1.0, 0.0, 0.0, 1.0, 48.0, 48.0)">
    <path d="M34.0 -33.95 Q48.05 -19.85 48.05 0.0 48.05 19.9 34.0 34.0 19.9 48.05 0.0 48.05 -19.85 48.05 -33.95 34.0 -48.0 19.9 -48.0 0.0 -48.0 -19.85 -33.95 -33.95 -19.85 -48.0 0.0 -48.0 19.9 -48.0 34.0 -33.95" fill="url(#gradient0)" fill-rule="evenodd" stroke="none"/>
    <path d="M20.4 37.6 Q11.95 43.25 0.0 43.25 -11.95 43.25 -20.4 37.6 -28.8 32.0 -28.8 24.0 -28.8 16.05 -20.4 10.45 -11.95 4.8 0.0 4.8 11.95 4.8 20.4 10.45 28.8 16.05 28.8 24.0 28.8 32.0 20.4 37.6" fill="url(#gradient1)" fill-rule="evenodd" stroke="none"/>
    <path d="M14.4 -4.8 Q8.45 -4.8 4.2 -9.05 0.0 -13.25 0.0 -19.2 0.0 -25.2 4.2 -29.4 8.45 -33.65 14.4 -33.65 20.4 -33.65 24.6 -29.4 28.8 -25.2 28.8 -19.2 28.8 -13.25 24.6 -9.05 20.4 -4.8 14.4 -4.8" fill="url(#gradient2)" fill-rule="evenodd" stroke="none"/>
  </g>
  <defs>
    <radialGradient cx="0" cy="0" gradientTransform="matrix(0.0593, 0.0, 0.0, 0.0593, 0.0, 0.0)" gradientUnits="userSpaceOnUse" id="gradient0" r="819.2" spreadMethod="pad">
      <stop offset="0.4588235294117647" stop-color="#78e4f8" stop-opacity="0.0"/>
      <stop offset="0.9137254901960784" stop-color="#78e4f8" stop-opacity="0.7019608"/>
      <stop offset="1.0" stop-color="#c2f8fc" stop-opacity="0.8"/>
    </radialGradient>
    <linearGradient gradientTransform="matrix(-1.0E-4, 0.0235, -0.0235, -1.0E-4, 0.0, 24.0)" gradientUnits="userSpaceOnUse" id="gradient1" spreadMethod="pad" x1="-819.2" x2="819.2">
      <stop offset="0.027450980392156862" stop-color="#ffffff" stop-opacity="0.23137255"/>
      <stop offset="0.9529411764705882" stop-color="#ffffff" stop-opacity="0.043137256"/>
    </linearGradient>
    <radialGradient cx="0" cy="0" gradientTransform="matrix(0.0182, 0.0, 0.0, 0.0182, 14.4, -19.2)" gradientUnits="userSpaceOnUse" id="gradient2" r="819.2" spreadMethod="pad">
      <stop offset="0.3333333333333333" stop-color="#ffffff"/>
      <stop offset="0.6078431372549019" stop-color="#ffffff" stop-opacity="0.07058824"/>
    </radialGradient>
  </defs>
</svg>
