<?xml version="1.0" encoding="UTF-8" standalone="no"?>
<svg xmlns:xlink="http://www.w3.org/1999/xlink" height="102.0px" width="344.0px" xmlns="http://www.w3.org/2000/svg">
  <g transform="matrix(1.0, 0.0, 0.0, 1.0, 3.0, 15.0)">
    <path d="M56.0 -12.0 L56.0 -3.0 338.0 -3.0 Q341.0 -3.0 341.0 0.0 L341.0 84.0 Q341.0 87.0 338.0 87.0 L0.0 87.0 Q-3.0 87.0 -3.0 84.0 L-3.0 -12.0 Q-3.0 -15.0 0.0 -15.0 L53.0 -15.0 Q56.0 -15.0 56.0 -12.0 M336.0 1.0 L2.0 1.0 Q1.0 1.0 1.0 2.0 L1.0 82.0 Q1.0 83.0 2.0 83.0 L336.0 83.0 Q337.0 83.0 337.0 82.0 L337.0 2.0 Q337.0 1.0 336.0 1.0" fill="#000000" fill-rule="evenodd" stroke="none"/>
    <path d="M338.0 2.0 Q338.0 0.0 336.0 0.0 L2.0 0.0 Q0.0 0.0 0.0 2.0 L0.0 82.0 Q0.0 84.0 2.0 84.0 L336.0 84.0 Q338.0 84.0 338.0 82.0 L338.0 2.0 M55.0 -12.0 L55.0 -2.0 338.0 -2.0 Q340.0 -2.0 340.0 0.0 L340.0 84.0 Q340.0 86.0 338.0 86.0 L0.0 86.0 Q-2.0 86.0 -2.0 84.0 L-2.0 -12.0 Q-2.0 -14.0 0.0 -14.0 L53.0 -14.0 Q55.0 -14.0 55.0 -12.0" fill="#00ff00" fill-rule="evenodd" stroke="none"/>
  </g>
</svg>
