<?xml version="1.0" encoding="UTF-8" standalone="no"?>
<svg xmlns:xlink="http://www.w3.org/1999/xlink" height="89.0px" width="84.5px" xmlns="http://www.w3.org/2000/svg">
  <g transform="matrix(1.0, 0.0, 0.0, 1.0, 42.25, 40.5)">
    <path d="M34.4 -31.25 L34.4 -31.2 Q33.7 -28.9 33.5 -26.8 L33.5 -24.0 Q33.5 -22.95 32.8 -22.2 32.05 -21.5 31.0 -21.5 L29.7 -21.5 Q30.65 -18.15 32.9 -14.65 47.4 -1.9 39.45 17.75 36.65 24.6 30.45 33.5 L20.0 47.5 19.1 48.25 18.0 48.5 -18.0 48.5 -19.1 48.25 -20.0 47.5 -30.45 33.5 Q-36.65 24.6 -39.4 17.75 -47.4 -1.9 -32.9 -14.65 -30.65 -18.1 -29.7 -21.5 L-31.0 -21.5 Q-32.05 -21.5 -32.75 -22.2 -33.5 -22.95 -33.5 -24.0 L-33.5 -26.75 Q-33.7 -28.9 -34.35 -31.15 -35.45 -34.35 -35.5 -37.95 -35.5 -39.0 -34.75 -39.75 -34.05 -40.5 -33.0 -40.5 L33.0 -40.5 Q34.05 -40.5 34.8 -39.75 35.5 -39.0 35.5 -37.95 35.45 -34.4 34.4 -31.25" fill="#000000" fill-rule="evenodd" stroke="none"/>
    <path d="M27.65 -16.25 Q29.45 -12.4 31.85 -9.75 41.3 0.7 35.8 15.9 32.85 24.0 21.0 41.0 L-21.0 41.0 Q-29.45 31.1 -34.85 16.8 -40.65 1.5 -36.65 -3.75 -28.7 -14.25 -27.25 -16.8 -25.1 -20.55 -26.0 -24.0 L24.0 -24.0 27.65 -16.25" fill="url(#gradient0)" fill-rule="evenodd" stroke="none"/>
  </g>
  <defs>
    <linearGradient gradientTransform="matrix(0.0, -0.0394, 0.0397, 0.0, -0.25, 8.5)" gradientUnits="userSpaceOnUse" id="gradient0" spreadMethod="pad" x1="-819.2" x2="819.2">
      <stop offset="0.13333333333333333" stop-color="#433027"/>
      <stop offset="0.4588235294117647" stop-color="#d6a494"/>
      <stop offset="0.9686274509803922" stop-color="#1b1410"/>
    </linearGradient>
  </defs>
</svg>
