<?xml version="1.0" encoding="UTF-8" standalone="no"?>
<svg xmlns:xlink="http://www.w3.org/1999/xlink" height="7.0px" width="6.0px" xmlns="http://www.w3.org/2000/svg">
  <g transform="matrix(1.0, 0.0, 0.0, 1.0, -10.0, 9.0)">
    <path d="M11.0 -7.0 L11.0 -8.0 15.0 -8.0 15.0 -7.0 11.0 -7.0 M11.0 -3.0 L11.0 -4.0 15.0 -4.0 15.0 -3.0 11.0 -3.0" fill="#ffffff" fill-rule="evenodd" stroke="none"/>
    <path d="M10.0 -5.0 L16.0 -5.0 16.0 -2.0 10.0 -2.0 10.0 -5.0 M10.0 -9.0 L16.0 -9.0 16.0 -6.0 10.0 -6.0 10.0 -9.0 M11.0 -3.0 L15.0 -3.0 15.0 -4.0 11.0 -4.0 11.0 -3.0 M11.0 -7.0 L15.0 -7.0 15.0 -8.0 11.0 -8.0 11.0 -7.0" fill="#000000" fill-rule="evenodd" stroke="none"/>
  </g>
</svg>
