<?xml version="1.0" encoding="UTF-8" standalone="no"?>
<svg xmlns:xlink="http://www.w3.org/1999/xlink" height="119.0px" width="49.0px" xmlns="http://www.w3.org/2000/svg">
  <g transform="matrix(1.0, 0.0, 0.0, 1.0, 24.5, 59.5)">
    <path d="M23.8 -58.75 Q24.5 -58.05 24.5 -57.0 L24.5 57.0 Q24.5 58.05 23.8 58.8 23.05 59.5 22.0 59.5 L-22.0 59.5 Q-23.05 59.5 -23.75 58.8 -24.5 58.05 -24.5 57.0 L-24.5 -57.0 Q-24.5 -58.05 -23.75 -58.75 -23.05 -59.5 -22.0 -59.5 L22.0 -59.5 Q23.05 -59.5 23.8 -58.75" fill="#000000" fill-rule="evenodd" stroke="none"/>
    <path d="M17.0 -52.0 L13.0 -45.0 -13.0 -45.0 -17.0 -52.0 17.0 -52.0" fill="url(#gradient0)" fill-rule="evenodd" stroke="none"/>
    <path d="M13.0 45.0 L17.0 52.0 -17.0 52.0 -13.0 45.0 13.0 45.0" fill="url(#gradient1)" fill-rule="evenodd" stroke="none"/>
    <path d="M19.0 -54.0 L0.0 -54.0 -19.0 -54.0 -19.0 -46.85 -19.0 -44.35 -19.0 0.0 -19.0 54.0 0.0 54.0 19.0 54.0 19.0 0.0 19.0 -54.0 M22.0 57.0 L0.0 57.0 -22.0 57.0 -22.0 -57.0 22.0 -57.0 22.0 57.0" fill="url(#gradient2)" fill-rule="evenodd" stroke="none"/>
    <path d="M19.0 -54.0 L19.0 0.0 19.0 54.0 0.0 54.0 -19.0 54.0 -19.0 0.0 -19.0 -44.35 -19.0 -46.85 -19.0 -54.0 0.0 -54.0 19.0 -54.0 M17.0 -52.0 L-17.0 -52.0 -17.0 52.0 17.0 52.0 17.0 -52.0" fill="url(#gradient3)" fill-rule="evenodd" stroke="none"/>
    <path d="M-17.0 -52.0 L-13.0 -45.0 -13.0 45.0 -17.0 52.0 -17.0 -52.0" fill="url(#gradient4)" fill-rule="evenodd" stroke="none"/>
    <path d="M13.0 -45.0 L17.0 -52.0 17.0 52.0 13.0 45.0 13.0 -45.0" fill="url(#gradient5)" fill-rule="evenodd" stroke="none"/>
    <path d="M-13.0 -45.0 L13.0 -45.0 13.0 45.0 -13.0 45.0 -13.0 -45.0" fill="url(#gradient6)" fill-rule="evenodd" stroke="none"/>
    <path d="M8.05 -51.05 L8.5 -50.0 8.5 -44.5 14.0 -44.5 Q14.6 -44.5 15.05 -44.05 L15.5 -43.0 15.5 43.0 15.05 44.05 Q14.6 44.5 14.0 44.5 L8.5 44.5 8.5 50.0 8.05 51.05 Q7.6 51.5 7.0 51.5 L-7.0 51.5 Q-7.6 51.5 -8.05 51.05 L-8.5 50.0 -8.5 44.5 -14.0 44.5 Q-14.6 44.5 -15.05 44.05 L-15.5 43.0 -15.5 -43.0 -15.05 -44.05 -14.65 -44.35 -14.0 -44.5 -8.5 -44.5 -8.5 -50.0 -8.05 -51.05 Q-7.6 -51.5 -7.0 -51.5 L7.0 -51.5 Q7.6 -51.5 8.05 -51.05" fill="#000000" fill-opacity="0.2509804" fill-rule="evenodd" stroke="none"/>
    <path d="M7.0 43.0 L7.0 50.0 0.0 50.0 -7.0 50.0 -7.0 43.0 7.0 43.0 M-7.0 -43.0 L-7.0 -50.0 7.0 -50.0 7.0 -43.0 -7.0 -43.0" fill="url(#gradient7)" fill-rule="evenodd" stroke="none"/>
    <path d="M14.0 32.0 L14.0 34.0 -14.0 34.0 -14.0 32.0 14.0 32.0 M-14.0 -32.0 L-14.0 -34.0 14.0 -34.0 14.0 -32.0 -14.0 -32.0" fill="url(#gradient8)" fill-rule="evenodd" stroke="none"/>
    <path d="M14.0 -18.0 L14.0 18.0 -14.0 18.0 -14.0 -18.0 14.0 -18.0" fill="url(#gradient9)" fill-rule="evenodd" stroke="none"/>
    <path d="M14.0 -32.0 L14.0 -18.0 -14.0 -18.0 -14.0 -32.0 14.0 -32.0 M14.0 18.0 L14.0 32.0 -14.0 32.0 -14.0 18.0 14.0 18.0 M14.0 34.0 L14.0 43.0 7.0 43.0 -7.0 43.0 -14.0 43.0 -14.0 34.0 14.0 34.0 M-14.0 -34.0 L-14.0 -43.0 -7.0 -43.0 7.0 -43.0 14.0 -43.0 14.0 -34.0 -14.0 -34.0" fill="url(#gradient10)" fill-rule="evenodd" stroke="none"/>
    <path d="M14.0 9.0 L-14.0 9.0 -14.0 3.0 14.0 3.0 14.0 9.0" fill="url(#gradient11)" fill-rule="evenodd" stroke="none"/>
    <path d="M0.0 -2.0 Q1.9 -0.1 5.25 -1.1 6.95 -1.6 8.25 -2.5 3.05 3.8 -1.6 10.3 L-1.8 10.5 -2.1 10.5 -2.35 10.35 -6.35 6.35 -6.5 6.05 -6.4 5.7 0.0 -2.0" fill="#000000" fill-opacity="0.2" fill-rule="evenodd" stroke="none"/>
    <path d="M8.0 -9.0 L14.0 -9.0 14.0 -3.0 8.0 -3.0 Q2.75 3.4 -2.0 10.0 L-6.0 6.0 1.6 -3.3 Q6.15 -8.5 8.0 -9.0" fill="url(#gradient12)" fill-rule="evenodd" stroke="none"/>
    <path d="M8.0 -3.0 L9.0 -4.0 14.0 -4.0 14.0 -3.0 8.0 -3.0" fill="#000000" fill-opacity="0.2" fill-rule="evenodd" stroke="none"/>
    <path d="M14.0 3.0 L-14.0 3.0 -14.0 -3.0 14.0 -3.0 14.0 3.0" fill="url(#gradient13)" fill-rule="evenodd" stroke="none"/>
    <path d="M-20.0 -46.85 L-20.0 -55.0 20.0 -55.0 20.0 55.0 -20.0 55.0 -20.0 -44.35 -20.0 -46.85 M19.0 54.0 L19.0 -54.0 -19.0 -54.0 -19.0 54.0 19.0 54.0" fill="#000000" fill-opacity="0.2509804" fill-rule="evenodd" stroke="none"/>
    <path d="M-7.0 43.0 L7.0 43.0 7.0 44.0 -7.0 44.0 -7.0 43.0" fill="#000000" fill-opacity="0.2" fill-rule="evenodd" stroke="none"/>
    <path d="M14.0 4.0 L-14.0 4.0 -14.0 3.0 14.0 3.0 14.0 4.0" fill="#000000" fill-opacity="0.2" fill-rule="evenodd" stroke="none"/>
  </g>
  <defs>
    <linearGradient gradientTransform="matrix(0.0, -0.0043, 0.0043, 0.0, 0.0, -48.5)" gradientUnits="userSpaceOnUse" id="gradient0" spreadMethod="pad" x1="-819.2" x2="819.2">
      <stop offset="0.0" stop-color="#2c231b"/>
      <stop offset="0.42745098039215684" stop-color="#46382b"/>
      <stop offset="1.0" stop-color="#5e4937"/>
    </linearGradient>
    <linearGradient gradientTransform="matrix(0.0, 0.0043, -0.0043, 0.0, 0.0, 48.5)" gradientUnits="userSpaceOnUse" id="gradient1" spreadMethod="pad" x1="-819.2" x2="819.2">
      <stop offset="0.0" stop-color="#382e23"/>
      <stop offset="1.0" stop-color="#9e866c"/>
    </linearGradient>
    <linearGradient gradientTransform="matrix(0.0268, -0.0703, 0.0649, 0.0248, 0.0, 0.0)" gradientUnits="userSpaceOnUse" id="gradient2" spreadMethod="pad" x1="-819.2" x2="819.2">
      <stop offset="0.0" stop-color="#bca374"/>
      <stop offset="1.0" stop-color="#9c8354"/>
    </linearGradient>
    <linearGradient gradientTransform="matrix(0.0287, -0.0644, 0.0601, 0.0268, 0.0, 0.0)" gradientUnits="userSpaceOnUse" id="gradient3" spreadMethod="pad" x1="-819.2" x2="819.2">
      <stop offset="0.0" stop-color="#d9bc88"/>
      <stop offset="1.0" stop-color="#b1996d"/>
    </linearGradient>
    <linearGradient gradientTransform="matrix(-0.0024, 0.0, 1.0E-4, -0.0635, -15.0, 0.0)" gradientUnits="userSpaceOnUse" id="gradient4" spreadMethod="pad" x1="-819.2" x2="819.2">
      <stop offset="0.0" stop-color="#544232"/>
      <stop offset="1.0" stop-color="#80674a"/>
    </linearGradient>
    <linearGradient gradientTransform="matrix(0.0024, 0.0, 0.0, 0.0635, 15.0, 0.0)" gradientUnits="userSpaceOnUse" id="gradient5" spreadMethod="pad" x1="-819.2" x2="819.2">
      <stop offset="0.0" stop-color="#3e3024"/>
      <stop offset="1.0" stop-color="#645137"/>
    </linearGradient>
    <linearGradient gradientTransform="matrix(-1.0E-4, -0.0562, 0.0549, 0.0, 0.0, 0.0)" gradientUnits="userSpaceOnUse" id="gradient6" spreadMethod="pad" x1="-819.2" x2="819.2">
      <stop offset="0.0" stop-color="#33201a"/>
      <stop offset="1.0" stop-color="#312424"/>
    </linearGradient>
    <linearGradient gradientTransform="matrix(0.0085, 0.0, 0.0, 0.0043, 0.0, -46.5)" gradientUnits="userSpaceOnUse" id="gradient7" spreadMethod="pad" x1="-819.2" x2="819.2">
      <stop offset="0.0" stop-color="#4a202c"/>
      <stop offset="0.12941176470588237" stop-color="#3d181d"/>
      <stop offset="0.4666666666666667" stop-color="#64282f"/>
      <stop offset="0.5725490196078431" stop-color="#64282f"/>
      <stop offset="0.8666666666666667" stop-color="#3d181d"/>
      <stop offset="1.0" stop-color="#4a202c"/>
    </linearGradient>
    <linearGradient gradientTransform="matrix(0.0171, 0.0, 0.0, 0.0012, 0.0, -33.0)" gradientUnits="userSpaceOnUse" id="gradient8" spreadMethod="pad" x1="-819.2" x2="819.2">
      <stop offset="0.0" stop-color="#3a415a"/>
      <stop offset="0.09803921568627451" stop-color="#2b2536"/>
      <stop offset="0.44313725490196076" stop-color="#80839b"/>
      <stop offset="0.5607843137254902" stop-color="#80839b"/>
      <stop offset="0.9137254901960784" stop-color="#2b2536"/>
      <stop offset="1.0" stop-color="#3a415a"/>
    </linearGradient>
    <linearGradient gradientTransform="matrix(0.0171, 0.0, 0.0, 0.022, 0.0, 0.0)" gradientUnits="userSpaceOnUse" id="gradient9" spreadMethod="pad" x1="-819.2" x2="819.2">
      <stop offset="0.0" stop-color="#787878"/>
      <stop offset="0.09019607843137255" stop-color="#5e6162"/>
      <stop offset="0.43529411764705883" stop-color="#8a8d91"/>
      <stop offset="0.5686274509803921" stop-color="#8a8d91"/>
      <stop offset="0.9098039215686274" stop-color="#5e6162"/>
      <stop offset="1.0" stop-color="#787878"/>
    </linearGradient>
    <linearGradient gradientTransform="matrix(0.0171, 0.0, 0.0, 0.0525, 0.0, 0.0)" gradientUnits="userSpaceOnUse" id="gradient10" spreadMethod="pad" x1="-819.2" x2="819.2">
      <stop offset="0.0" stop-color="#244153"/>
      <stop offset="0.09803921568627451" stop-color="#122250"/>
      <stop offset="0.4392156862745098" stop-color="#1c4da4"/>
      <stop offset="0.5529411764705883" stop-color="#1c4da4"/>
      <stop offset="0.9137254901960784" stop-color="#0c1634"/>
      <stop offset="1.0" stop-color="#244153"/>
    </linearGradient>
    <linearGradient gradientTransform="matrix(0.0171, 0.0, 0.0, 0.0037, 0.0, 6.0)" gradientUnits="userSpaceOnUse" id="gradient11" spreadMethod="pad" x1="-819.2" x2="819.2">
      <stop offset="0.0" stop-color="#2f2f33"/>
      <stop offset="0.08627450980392157" stop-color="#212125"/>
      <stop offset="0.39215686274509803" stop-color="#5c5670"/>
      <stop offset="0.5843137254901961" stop-color="#534e63"/>
      <stop offset="0.9058823529411765" stop-color="#212125"/>
      <stop offset="1.0" stop-color="#2f2f33"/>
    </linearGradient>
    <linearGradient gradientTransform="matrix(0.0122, 0.0, 0.0, 0.0116, 2.45, 0.1)" gradientUnits="userSpaceOnUse" id="gradient12" spreadMethod="pad" x1="-819.2" x2="819.2">
      <stop offset="0.0" stop-color="#5c5670"/>
      <stop offset="0.28627450980392155" stop-color="#5c5670"/>
      <stop offset="0.6470588235294118" stop-color="#524961"/>
      <stop offset="0.9372549019607843" stop-color="#2e2e34"/>
      <stop offset="1.0" stop-color="#2c2b31"/>
    </linearGradient>
    <linearGradient gradientTransform="matrix(0.0171, 0.0, 0.0, 0.0037, 0.0, 0.0)" gradientUnits="userSpaceOnUse" id="gradient13" spreadMethod="pad" x1="-819.2" x2="819.2">
      <stop offset="0.0" stop-color="#39393e"/>
      <stop offset="0.08627450980392157" stop-color="#2b262f"/>
      <stop offset="0.4117647058823529" stop-color="#5c5670"/>
      <stop offset="0.5568627450980392" stop-color="#5c5670"/>
      <stop offset="0.8980392156862745" stop-color="#2b262f"/>
      <stop offset="1.0" stop-color="#39393e"/>
    </linearGradient>
  </defs>
</svg>
