<?xml version="1.0" encoding="UTF-8" standalone="no"?>
<svg xmlns:xlink="http://www.w3.org/1999/xlink" height="161.25px" width="33.9px" xmlns="http://www.w3.org/2000/svg">
  <g transform="matrix(1.0, 0.0, 0.0, 1.0, 16.95, 80.65)">
    <path d="M14.0 -80.6 Q15.05 -80.8 16.0 -80.1 16.9 -79.45 16.95 -78.4 L16.75 -77.3 Q8.1 -54.45 6.6 -19.75 5.85 -3.25 7.15 10.15 L7.15 10.2 Q8.25 21.8 10.75 29.9 L10.9 30.95 Q10.95 32.0 10.5 32.7 9.5 34.3 8.1 34.45 7.1 34.6 6.15 34.0 L5.95 35.7 6.15 36.75 6.75 36.75 Q7.75 36.6 8.5 35.6 9.05 34.85 10.0 34.65 10.9 34.45 11.75 34.95 L14.2 37.0 Q15.6 38.55 15.75 39.45 L15.45 40.7 Q14.8 42.25 13.55 42.8 L10.45 43.3 6.05 43.3 4.9 48.05 Q4.6 53.85 3.7 59.1 L2.45 64.85 1.85 67.3 1.65 68.8 Q1.35 70.45 -0.85 71.2 L-1.6 71.3 Q-2.05 73.1 -3.75 74.3 -2.3 76.4 -3.5 77.95 -4.6 79.35 -6.9 80.15 -9.6 81.1 -11.8 80.15 -13.95 79.25 -14.9 76.5 -15.7 74.35 -15.4 72.55 -15.25 71.65 -14.9 71.25 -14.2 70.3 -12.4 70.25 -12.5 69.3 -12.2 68.25 -11.85 66.9 -11.0 66.1 -11.45 63.7 -10.6 62.65 -8.55 60.1 -7.4 56.3 -6.1 52.1 -6.1 47.05 L-6.55 45.25 -7.15 43.3 -11.65 43.3 -14.3 42.95 Q-15.5 42.5 -16.35 41.2 -17.3 39.75 -16.7 38.6 L-15.4 37.05 Q-14.05 35.55 -12.95 34.95 -12.1 34.45 -11.2 34.65 -10.25 34.85 -9.7 35.6 -8.95 36.6 -7.95 36.75 L-7.3 36.75 -7.1 35.7 -7.35 34.0 -7.95 34.3 -9.3 34.45 Q-10.65 34.25 -11.75 32.4 -12.25 31.55 -12.0 30.4 L-11.7 29.45 Q-8.0 20.7 -7.75 5.25 L-7.9 -7.45 -8.25 -24.7 Q-8.4 -42.55 -4.5 -54.95 0.4 -70.75 12.85 -80.1 13.2 -80.45 14.0 -80.6" fill="#000000" fill-rule="evenodd" stroke="none"/>
  </g>
</svg>
