<?xml version="1.0" encoding="UTF-8" standalone="no"?>
<svg xmlns:xlink="http://www.w3.org/1999/xlink" height="12.0px" width="8.3px" xmlns="http://www.w3.org/2000/svg">
  <g transform="matrix(1.0, 0.0, 0.0, 1.0, 4.15, 6.0)">
    <path d="M0.0 3.5 Q1.2 3.5 2.1 2.5 L2.8 1.45 4.15 2.35 Q3.7 3.8 2.25 4.95 0.95 6.0 0.0 6.0 L0.0 3.5" fill="url(#gradient0)" fill-rule="evenodd" stroke="none"/>
    <path d="M0.0 3.5 L0.0 6.0 Q-0.95 6.0 -2.25 4.95 -3.7 3.8 -4.15 2.35 L-2.8 1.45 -2.1 2.5 Q-1.2 3.5 0.0 3.5" fill="url(#gradient1)" fill-rule="evenodd" stroke="none"/>
    <path d="M0.1 -2.9 Q2.15 -2.35 2.0 -2.0 L1.6 -0.35 Q1.65 0.75 2.8 1.45 2.7 2.1 1.9 2.75 1.0 3.5 0.0 3.5 -1.0 3.5 -1.9 2.75 -2.7 2.1 -2.8 1.45 -1.65 0.75 -1.6 -0.35 L-2.0 -2.0 Q-2.15 -2.35 -0.1 -2.9 L0.0 -2.9 0.1 -2.9" fill="url(#gradient2)" fill-rule="evenodd" stroke="none"/>
    <path d="M3.0 -3.0 Q3.0 -1.75 2.1 -0.9 1.25 0.0 0.0 0.0 -1.25 0.0 -2.15 -0.9 -3.0 -1.75 -3.0 -3.0 -3.0 -4.25 -2.15 -5.15 -1.25 -6.0 0.0 -6.0 1.25 -6.0 2.1 -5.15 3.0 -4.25 3.0 -3.0" fill="url(#gradient3)" fill-rule="evenodd" stroke="none"/>
    <path d="M2.0 -3.0 Q2.0 -2.15 1.45 -1.55 0.85 -1.0 0.0 -1.0 -0.85 -1.0 -1.45 -1.55 -2.0 -2.15 -2.0 -3.0 -2.0 -3.85 -1.45 -4.45 -0.85 -5.0 0.0 -5.0 0.85 -5.0 1.45 -4.45 2.0 -3.85 2.0 -3.0" fill="url(#gradient4)" fill-rule="evenodd" stroke="none"/>
    <path d="M0.0 -1.4 Q-0.7 -1.4 -1.15 -1.85 -1.6 -2.3 -1.6 -3.0 -1.6 -3.7 -1.15 -4.15 L0.0 -4.6 1.15 -4.15 Q1.6 -3.7 1.6 -3.0 1.6 -2.3 1.15 -1.85 0.7 -1.4 0.0 -1.4" fill="url(#gradient5)" fill-rule="evenodd" stroke="none"/>
    <path d="M0.05 -2.95 Q-0.1 -2.75 -0.4 -2.75 L-0.85 -2.95 -1.0 -3.4 -0.85 -3.85 -0.4 -4.0 0.05 -3.85 0.25 -3.4 0.05 -2.95" fill="#ffffff" fill-rule="evenodd" stroke="none"/>
  </g>
  <defs>
    <linearGradient gradientTransform="matrix(-0.0022, 0.0027, -0.0038, -0.0042, 4.05, 6.45)" gradientUnits="userSpaceOnUse" id="gradient0" spreadMethod="pad" x1="-819.2" x2="819.2">
      <stop offset="0.16470588235294117" stop-color="#886f22"/>
      <stop offset="0.8392156862745098" stop-color="#cdb338"/>
    </linearGradient>
    <linearGradient gradientTransform="matrix(0.0032, 0.002, 0.0025, -0.0054, -3.25, 7.5)" gradientUnits="userSpaceOnUse" id="gradient1" spreadMethod="pad" x1="-819.2" x2="819.2">
      <stop offset="0.16470588235294117" stop-color="#8f721b"/>
      <stop offset="0.6705882352941176" stop-color="#d7bf53"/>
    </linearGradient>
    <radialGradient cx="0" cy="0" gradientTransform="matrix(0.0046, 0.0, 0.0, 0.0046, 0.0, 0.3)" gradientUnits="userSpaceOnUse" id="gradient2" r="819.2" spreadMethod="pad">
      <stop offset="0.20392156862745098" stop-color="#8f8630"/>
      <stop offset="0.6313725490196078" stop-color="#76661f"/>
      <stop offset="0.6980392156862745" stop-color="#564514"/>
    </radialGradient>
    <linearGradient gradientTransform="matrix(0.0022, 0.003, -0.003, 0.0022, 0.0, -3.0)" gradientUnits="userSpaceOnUse" id="gradient3" spreadMethod="pad" x1="-819.2" x2="819.2">
      <stop offset="0.0" stop-color="#e3bf53"/>
      <stop offset="0.9529411764705882" stop-color="#695a16"/>
    </linearGradient>
    <linearGradient gradientTransform="matrix(-0.0011, -0.0022, 0.0022, -0.0011, 0.0, -3.0)" gradientUnits="userSpaceOnUse" id="gradient4" spreadMethod="pad" x1="-819.2" x2="819.2">
      <stop offset="0.0" stop-color="#d6a821"/>
      <stop offset="0.9529411764705882" stop-color="#604d17"/>
    </linearGradient>
    <radialGradient cx="0" cy="0" gradientTransform="matrix(0.0028, 0.0, 0.0, 0.0028, 0.4, -2.65)" gradientUnits="userSpaceOnUse" id="gradient5" r="819.2" spreadMethod="pad">
      <stop offset="0.26666666666666666" stop-color="#a21515"/>
      <stop offset="0.34901960784313724" stop-color="#e31313"/>
      <stop offset="1.0" stop-color="#952222"/>
    </radialGradient>
  </defs>
</svg>
