<?xml version="1.0" encoding="UTF-8" standalone="no"?>
<svg xmlns:xlink="http://www.w3.org/1999/xlink" height="98.35px" width="98.9px" xmlns="http://www.w3.org/2000/svg">
  <g transform="matrix(1.0, 0.0, 0.0, 1.0, 49.45, 49.15)">
    <path d="M20.65 -45.25 Q23.5 -44.3 25.0 -41.65 L25.05 -41.6 Q26.45 -38.85 25.5 -35.85 L26.45 -35.2 Q28.9 -36.95 31.9 -36.5 L32.05 -36.5 Q35.05 -35.9 36.85 -33.45 L43.35 -24.5 Q45.2 -22.0 44.75 -18.95 L44.75 -18.9 Q44.2 -15.9 41.75 -14.05 L42.1 -12.95 Q45.1 -12.9 47.3 -10.8 L47.4 -10.7 Q49.45 -8.5 49.45 -5.45 L49.45 5.65 Q49.45 8.7 47.35 10.9 L47.35 10.95 Q45.1 13.15 42.05 13.15 L41.7 14.25 Q44.1 16.1 44.65 19.05 L44.65 19.15 Q45.0 22.25 43.25 24.7 L36.75 33.65 Q34.85 36.2 31.85 36.65 L31.9 36.65 Q28.8 37.15 26.3 35.3 L25.3 36.0 Q26.2 38.9 24.9 41.6 L24.85 41.7 Q23.35 44.45 20.45 45.35 L20.5 45.35 9.95 48.8 Q7.0 49.75 4.3 48.4 1.4 47.0 0.45 44.0 L-0.1 42.3 -0.6 43.9 -0.6 43.95 -0.65 44.0 Q-1.6 46.95 -4.4 48.35 L-4.45 48.35 Q-7.15 49.65 -10.0 48.75 L-10.05 48.75 -20.6 45.3 -20.65 45.3 Q-23.5 44.3 -24.95 41.7 L-25.0 41.6 Q-26.45 38.85 -25.5 35.9 L-26.4 35.2 Q-28.9 37.0 -31.9 36.55 L-32.0 36.5 Q-35.05 35.9 -36.8 33.5 L-43.3 24.55 Q-45.2 22.0 -44.7 19.0 L-44.7 18.95 Q-44.2 15.9 -41.7 14.05 L-42.05 12.95 Q-45.1 12.9 -47.25 10.8 L-47.35 10.7 Q-49.45 8.5 -49.45 5.45 L-49.45 -5.65 Q-49.45 -8.7 -47.35 -10.85 L-47.3 -10.9 Q-45.1 -13.15 -41.95 -13.15 L-41.6 -14.2 Q-44.1 -16.05 -44.6 -19.0 L-44.6 -19.15 Q-45.0 -22.25 -43.2 -24.65 L-36.7 -33.6 Q-34.85 -36.2 -31.8 -36.6 L-31.85 -36.6 Q-28.8 -37.15 -26.25 -35.3 L-25.3 -36.0 Q-26.2 -38.9 -24.9 -41.6 L-24.85 -41.7 Q-23.35 -44.45 -20.4 -45.35 L-20.45 -45.3 -9.9 -48.75 -9.95 -48.75 Q-7.0 -49.75 -4.25 -48.35 L-4.3 -48.4 Q-1.4 -47.0 -0.4 -44.0 L-0.4 -43.95 0.15 -42.3 0.65 -43.9 0.65 -44.0 Q1.6 -46.95 4.45 -48.3 L4.5 -48.35 Q7.15 -49.65 10.05 -48.75 L10.1 -48.7 20.65 -45.25 M12.5 -39.9 Q12.5 -38.35 11.35 -37.15 L10.55 -36.5 13.0 -35.7 12.75 -36.5 12.65 -36.9 Q12.55 -38.45 13.4 -39.65 L12.5 -39.9 M4.3 -30.75 Q1.5 -31.6 0.05 -34.1 -1.3 -31.75 -4.05 -30.8 L-14.6 -27.35 -14.65 -27.35 Q-17.4 -26.5 -19.95 -27.6 -19.7 -24.85 -21.4 -22.5 L-27.9 -13.55 Q-29.6 -11.25 -32.45 -10.6 -30.55 -8.6 -30.55 -5.65 L-30.55 5.45 Q-30.55 8.35 -32.45 10.5 -29.75 11.05 -28.0 13.45 L-21.5 22.4 Q-19.85 24.65 -20.1 27.55 L-14.75 27.35 -4.2 30.8 -4.25 30.75 Q-1.5 31.6 -0.05 34.15 1.3 31.75 4.1 30.85 L14.65 27.4 14.7 27.35 Q17.4 26.5 20.0 27.6 19.7 24.85 21.45 22.55 L27.95 13.6 Q29.6 11.25 32.45 10.6 30.55 8.6 30.55 5.65 L30.55 -5.45 Q30.55 -8.35 32.5 -10.5 29.75 -11.05 28.05 -13.4 L21.55 -22.35 Q19.85 -24.65 20.1 -27.55 L14.8 -27.3 4.25 -30.75 4.3 -30.75 M30.85 -23.4 L29.95 -23.35 31.55 -21.2 31.85 -22.1 31.9 -22.3 Q32.65 -23.7 34.1 -24.2 L33.6 -24.9 Q32.65 -23.65 31.05 -23.4 L30.85 -23.4 M38.0 -1.3 L38.0 1.3 38.65 0.8 39.05 0.6 41.8 0.45 41.8 -0.4 39.05 -0.6 38.65 -0.8 38.0 -1.3 M31.85 22.15 L31.55 21.25 29.95 23.4 30.85 23.4 Q32.6 23.55 33.6 24.9 L34.1 24.2 Q32.65 23.7 31.9 22.3 L31.85 22.15 M10.5 36.55 L11.35 37.2 Q12.5 38.35 12.5 39.9 L13.35 39.65 Q12.55 38.45 12.65 36.9 L12.75 36.5 13.0 35.7 10.5 36.55 M-41.8 -0.45 L-41.8 0.45 -41.75 0.45 -39.0 0.65 -38.75 0.75 -38.0 1.3 -38.0 -1.25 -38.75 -0.75 -39.0 -0.65 -41.75 -0.45 -41.8 -0.45 M-13.3 -39.6 Q-12.4 -38.5 -12.65 -36.75 L-12.65 -36.7 -12.95 -35.7 -10.45 -36.5 -11.3 -37.15 Q-12.5 -38.35 -12.5 -39.9 L-13.3 -39.6 M-31.45 -21.25 L-29.95 -23.35 -31.0 -23.4 -31.05 -23.4 Q-32.65 -23.7 -33.55 -24.9 L-34.05 -24.2 Q-32.65 -23.8 -31.85 -22.35 L-31.75 -22.1 -31.45 -21.25 M-31.85 22.35 Q-32.65 23.8 -34.1 24.2 L-33.55 24.95 Q-32.65 23.7 -31.05 23.45 L-31.0 23.45 -29.95 23.4 -31.45 21.3 -31.75 22.1 -31.85 22.35 M-12.95 35.75 L-12.65 36.7 -12.65 36.75 Q-12.4 38.5 -13.3 39.65 L-12.5 39.95 Q-12.5 38.35 -11.3 37.2 L-10.5 36.55 -12.95 35.75" fill="#000000" fill-rule="evenodd" stroke="none"/>
  </g>
</svg>
