<?xml version="1.0" encoding="UTF-8" standalone="no"?>
<svg xmlns:xlink="http://www.w3.org/1999/xlink" height="43.0px" width="43.0px" xmlns="http://www.w3.org/2000/svg">
  <g transform="matrix(1.0, 0.0, 0.0, 1.0, -16.5, -16.5)">
    <path d="M18.0 26.0 L18.0 18.0 32.0 18.0 32.0 58.0 22.0 58.0 22.0 26.0 18.0 26.0" fill="#ffffff" fill-rule="evenodd" stroke="none"/>
    <path d="M18.0 26.0 L22.0 26.0 22.0 58.0 32.0 58.0 32.0 18.0 18.0 18.0 18.0 26.0 Z" fill="none" stroke="#000000" stroke-linecap="round" stroke-linejoin="round" stroke-width="3.0"/>
    <path d="M50.0 40.0 L44.0 40.0 44.0 46.0 50.0 46.0 50.0 40.0 M44.0 52.0 L44.0 58.0 36.0 58.0 36.0 34.0 58.0 34.0 58.0 52.0 44.0 52.0" fill="#ffffff" fill-rule="evenodd" stroke="none"/>
    <path d="M50.0 40.0 L44.0 40.0 44.0 46.0 50.0 46.0 50.0 40.0 M44.0 52.0 L44.0 58.0 36.0 58.0 36.0 34.0 58.0 34.0 58.0 52.0 44.0 52.0" fill="none" stroke="#000000" stroke-linecap="round" stroke-linejoin="round" stroke-width="3.0"/>
  </g>
</svg>
