<?xml version="1.0" encoding="UTF-8" standalone="no"?>
<svg xmlns:xlink="http://www.w3.org/1999/xlink" height="111.6px" width="112.0px" xmlns="http://www.w3.org/2000/svg">
  <g transform="matrix(1.0, 0.0, 0.0, 1.0, 52.5, 52.1)">
    <path d="M-42.6 -30.95 Q-42.05 -33.75 -42.0 -36.0 -41.95 -33.75 -41.4 -30.95 -40.7 -27.4 -39.65 -26.35 -38.6 -25.3 -36.05 -24.6 L-32.0 -24.0 -36.05 -23.4 Q-38.6 -22.7 -39.65 -21.65 L-40.95 -20.0 Q-41.35 -19.25 -41.7 -16.1 L-42.0 -12.0 Q-42.05 -14.25 -42.6 -17.05 -43.3 -20.6 -44.35 -21.65 L-46.0 -22.95 Q-47.6 -23.85 -52.0 -24.0 -47.6 -24.15 -46.0 -25.05 L-44.35 -26.35 Q-43.3 -27.4 -42.6 -30.95" fill="url(#gradient0)" fill-rule="evenodd" stroke="none"/>
    <path d="M41.2 -1.25 Q41.95 -5.0 42.0 -8.0 42.1 -5.0 42.8 -1.25 43.75 3.5 45.15 4.9 46.55 6.3 49.95 7.2 L55.35 8.0 49.95 8.8 Q46.55 9.75 45.15 11.15 L43.4 13.35 Q42.9 14.35 42.4 18.55 L42.0 24.0 Q41.95 21.0 41.2 17.3 40.3 12.55 38.9 11.15 37.9 10.15 36.7 9.4 34.55 8.2 28.7 8.0 34.55 7.8 36.7 6.6 37.9 5.9 38.9 4.9 40.3 3.5 41.2 -1.25" fill="url(#gradient1)" fill-rule="evenodd" stroke="none"/>
    <path d="M-36.5 20.45 Q-36.05 18.2 -36.0 16.4 -35.95 18.2 -35.5 20.45 -34.95 23.3 -34.1 24.1 -33.3 24.95 -31.25 25.5 L-28.0 26.0 -31.25 26.5 Q-33.3 27.05 -34.1 27.9 L-35.15 29.2 Q-35.5 29.8 -35.75 32.3 L-36.0 35.6 Q-36.05 33.8 -36.5 31.55 -37.05 28.7 -37.9 27.9 -38.5 27.3 -39.2 26.85 -40.5 26.1 -44.0 26.0 -40.5 25.9 -39.2 25.15 L-37.9 24.1 Q-37.05 23.3 -36.5 20.45" fill="url(#gradient2)" fill-rule="evenodd" stroke="none"/>
    <path d="M38.75 -41.5 Q36.7 -40.95 35.9 -40.1 L34.85 -38.8 Q34.5 -38.2 34.25 -35.7 L34.0 -32.4 Q33.95 -34.2 33.5 -36.45 32.95 -39.3 32.1 -40.1 L30.8 -41.15 Q29.5 -41.9 26.0 -42.0 29.5 -42.1 30.8 -42.85 L32.1 -43.9 Q32.95 -44.7 33.5 -47.55 33.95 -49.8 34.0 -51.6 34.05 -49.8 34.5 -47.55 35.05 -44.7 35.9 -43.9 36.7 -43.05 38.75 -42.5 L42.0 -42.0 38.75 -41.5" fill="url(#gradient3)" fill-rule="evenodd" stroke="none"/>
    <path d="M38.75 -41.5 L42.0 -42.0 38.75 -42.5 Q36.7 -43.05 35.9 -43.9 35.05 -44.7 34.5 -47.55 34.05 -49.8 34.0 -51.6 33.95 -49.8 33.5 -47.55 32.95 -44.7 32.1 -43.9 L30.8 -42.85 Q29.5 -42.1 26.0 -42.0 29.5 -41.9 30.8 -41.15 L32.1 -40.1 Q32.95 -39.3 33.5 -36.45 33.95 -34.2 34.0 -32.4 L34.25 -35.7 Q34.5 -38.2 34.85 -38.8 L35.9 -40.1 Q36.7 -40.95 38.75 -41.5 M41.2 -1.25 Q40.3 3.5 38.9 4.9 37.9 5.9 36.7 6.6 34.55 7.8 28.7 8.0 34.55 8.2 36.7 9.4 37.9 10.15 38.9 11.15 40.3 12.55 41.2 17.3 41.95 21.0 42.0 24.0 L42.4 18.55 Q42.9 14.35 43.4 13.35 L45.15 11.15 Q46.55 9.75 49.95 8.8 L55.35 8.0 49.95 7.2 Q46.55 6.3 45.15 4.9 43.75 3.5 42.8 -1.25 42.1 -5.0 42.0 -8.0 41.95 -5.0 41.2 -1.25 M-42.6 -30.95 Q-43.3 -27.4 -44.35 -26.35 L-46.0 -25.05 Q-47.6 -24.15 -52.0 -24.0 -47.6 -23.85 -46.0 -22.95 L-44.35 -21.65 Q-43.3 -20.6 -42.6 -17.05 -42.05 -14.25 -42.0 -12.0 L-41.7 -16.1 Q-41.35 -19.25 -40.95 -20.0 L-39.65 -21.65 Q-38.6 -22.7 -36.05 -23.4 L-32.0 -24.0 -36.05 -24.6 Q-38.6 -25.3 -39.65 -26.35 -40.7 -27.4 -41.4 -30.95 -41.95 -33.75 -42.0 -36.0 -42.05 -33.75 -42.6 -30.95 M-36.5 20.45 Q-37.05 23.3 -37.9 24.1 L-39.2 25.15 Q-40.5 25.9 -44.0 26.0 -40.5 26.1 -39.2 26.85 -38.5 27.3 -37.9 27.9 -37.05 28.7 -36.5 31.55 -36.05 33.8 -36.0 35.6 L-35.75 32.3 Q-35.5 29.8 -35.15 29.2 L-34.1 27.9 Q-33.3 27.05 -31.25 26.5 L-28.0 26.0 -31.25 25.5 Q-33.3 24.95 -34.1 24.1 -34.95 23.3 -35.5 20.45 -35.95 18.2 -36.0 16.4 -36.05 18.2 -36.5 20.45" fill="none" stroke="#fee49c" stroke-linecap="round" stroke-linejoin="round" stroke-width="1.0"/>
    <path d="M44.0 40.0 L44.0 46.0 50.0 46.0 50.0 40.0 44.0 40.0 M14.0 26.0 L14.0 34.0 32.0 34.0 32.0 58.0 4.0 58.0 4.0 50.0 22.0 50.0 22.0 42.0 4.0 42.0 4.0 18.0 32.0 18.0 32.0 26.0 14.0 26.0 M44.0 58.0 L36.0 58.0 36.0 34.0 58.0 34.0 58.0 52.0 44.0 52.0 44.0 58.0" fill="#ffffff" fill-rule="evenodd" stroke="none"/>
    <path d="M44.0 40.0 L44.0 46.0 50.0 46.0 50.0 40.0 44.0 40.0 M14.0 26.0 L14.0 34.0 32.0 34.0 32.0 58.0 4.0 58.0 4.0 50.0 22.0 50.0 22.0 42.0 4.0 42.0 4.0 18.0 32.0 18.0 32.0 26.0 14.0 26.0 M44.0 58.0 L36.0 58.0 36.0 34.0 58.0 34.0 58.0 52.0 44.0 52.0 44.0 58.0" fill="none" stroke="#000000" stroke-linecap="round" stroke-linejoin="round" stroke-width="3.0"/>
  </g>
  <defs>
    <radialGradient cx="0" cy="0" gradientTransform="matrix(0.0101, 0.0, 0.0, 0.0101, -42.0, -24.0)" gradientUnits="userSpaceOnUse" id="gradient0" r="819.2" spreadMethod="pad">
      <stop offset="0.39215686274509803" stop-color="#fbfbfb"/>
      <stop offset="1.0" stop-color="#f8f2c7" stop-opacity="0.88235295"/>
    </radialGradient>
    <radialGradient cx="0" cy="0" gradientTransform="matrix(0.0134, 0.0, 0.0, 0.0134, 42.0, 8.0)" gradientUnits="userSpaceOnUse" id="gradient1" r="819.2" spreadMethod="pad">
      <stop offset="0.39215686274509803" stop-color="#fbfbfb"/>
      <stop offset="1.0" stop-color="#f8f2c7" stop-opacity="0.88235295"/>
    </radialGradient>
    <radialGradient cx="0" cy="0" gradientTransform="matrix(0.0081, 0.0, 0.0, 0.0081, -36.0, 26.0)" gradientUnits="userSpaceOnUse" id="gradient2" r="819.2" spreadMethod="pad">
      <stop offset="0.39215686274509803" stop-color="#fbfbfb"/>
      <stop offset="1.0" stop-color="#f8f2c7" stop-opacity="0.88235295"/>
    </radialGradient>
    <radialGradient cx="0" cy="0" gradientTransform="matrix(0.0081, 0.0, 0.0, 0.0081, 34.0, -42.0)" gradientUnits="userSpaceOnUse" id="gradient3" r="819.2" spreadMethod="pad">
      <stop offset="0.39215686274509803" stop-color="#fbfbfb"/>
      <stop offset="1.0" stop-color="#f8f2c7" stop-opacity="0.88235295"/>
    </radialGradient>
  </defs>
</svg>
