<?xml version="1.0" encoding="UTF-8" standalone="no"?>
<svg xmlns:xlink="http://www.w3.org/1999/xlink" height="432.0px" width="336.0px" xmlns="http://www.w3.org/2000/svg">
  <g transform="matrix(1.0, 0.0, 0.0, 1.0, -64.0, -112.0)">
    <path d="M235.3 292.7 Q240.0 297.4 240.0 304.0 240.0 310.65 235.3 315.35 230.65 320.0 224.0 320.0 217.35 320.0 212.7 315.35 208.0 310.65 208.0 304.0 208.0 297.4 212.7 292.7 217.35 288.0 224.0 288.0 230.65 288.0 235.3 292.7" fill="#000000" fill-rule="evenodd" stroke="none"/>
    <path d="M80.0 112.0 Q86.6 112.0 91.3 116.7 96.0 121.35 96.0 128.0 96.0 134.65 91.3 139.3 86.6 144.0 80.0 144.0 73.35 144.0 68.65 139.3 64.0 134.65 64.0 128.0 64.0 121.35 68.65 116.7 73.35 112.0 80.0 112.0 M395.3 436.7 Q400.0 441.35 400.0 448.0 400.0 454.65 395.3 459.3 390.65 464.0 384.0 464.0 377.35 464.0 372.7 459.3 368.0 454.65 368.0 448.0 368.0 441.35 372.7 436.7 377.35 432.0 384.0 432.0 390.65 432.0 395.3 436.7" fill="#000000" fill-rule="evenodd" stroke="none"/>
    <path d="M128.0 528.0 Q128.0 534.65 123.3 539.3 118.6 544.0 112.0 544.0 105.35 544.0 100.65 539.3 96.0 534.65 96.0 528.0 96.0 521.35 100.65 516.7 105.35 512.0 112.0 512.0 118.6 512.0 123.3 516.7 128.0 521.35 128.0 528.0" fill="#000000" fill-rule="evenodd" stroke="none"/>
  </g>
</svg>
