<?xml version="1.0" encoding="UTF-8" standalone="no"?>
<svg xmlns:xlink="http://www.w3.org/1999/xlink" height="452.0px" width="452.0px" xmlns="http://www.w3.org/2000/svg">
  <g transform="matrix(1.0, 0.0, 0.0, 1.0, 2.0, -78.0)">
    <path d="M448.0 304.0 Q448.0 396.8 382.4 462.4 316.8 528.0 224.0 528.0 131.2 528.0 65.6 462.4 0.0 396.8 0.0 304.0 0.0 211.2 65.6 145.6 131.2 80.0 224.0 80.0 316.8 80.0 382.4 145.6 448.0 211.2 448.0 304.0" fill="#000000" fill-rule="evenodd" stroke="none"/>
    <path d="M448.0 304.0 Q448.0 396.8 382.4 462.4 316.8 528.0 224.0 528.0 131.2 528.0 65.6 462.4 0.0 396.8 0.0 304.0 0.0 211.2 65.6 145.6 131.2 80.0 224.0 80.0 316.8 80.0 382.4 145.6 448.0 211.2 448.0 304.0 Z" fill="none" stroke="#000000" stroke-linecap="round" stroke-linejoin="round" stroke-width="4.0"/>
  </g>
</svg>
