<?xml version="1.0" encoding="UTF-8" standalone="no"?>
<svg xmlns:xlink="http://www.w3.org/1999/xlink" height="137.0px" width="108.0px" xmlns="http://www.w3.org/2000/svg">
  <g transform="matrix(1.0, 0.0, 0.0, 1.0, 3.0, 15.0)">
    <path d="M49.0 -12.0 L49.0 -3.0 102.0 -3.0 Q105.0 -3.0 105.0 0.0 L105.0 119.0 Q105.0 122.0 102.0 122.0 L0.0 122.0 Q-3.0 122.0 -3.0 119.0 L-3.0 -12.0 Q-3.0 -15.0 0.0 -15.0 L46.0 -15.0 Q49.0 -15.0 49.0 -12.0 M100.0 1.0 L2.0 1.0 Q1.0 1.0 1.0 2.0 L1.0 117.0 Q1.0 118.0 2.0 118.0 L100.0 118.0 Q101.0 118.0 101.0 117.0 L101.0 2.0 Q101.0 1.0 100.0 1.0" fill="#000000" fill-rule="evenodd" stroke="none"/>
    <path d="M102.0 2.0 Q102.0 0.0 100.0 0.0 L2.0 0.0 Q0.0 0.0 0.0 2.0 L0.0 117.0 Q0.0 119.0 2.0 119.0 L100.0 119.0 Q102.0 119.0 102.0 117.0 L102.0 2.0 M46.0 -14.0 Q48.0 -14.0 48.0 -12.0 L48.0 -2.0 102.0 -2.0 Q104.0 -2.0 104.0 0.0 L104.0 119.0 Q104.0 121.0 102.0 121.0 L0.0 121.0 Q-2.0 121.0 -2.0 119.0 L-2.0 -12.0 Q-2.0 -14.0 0.0 -14.0 L46.0 -14.0" fill="#00ff00" fill-rule="evenodd" stroke="none"/>
  </g>
</svg>
