<?xml version="1.0" encoding="UTF-8" standalone="no"?>
<svg xmlns:xlink="http://www.w3.org/1999/xlink" height="85.0px" width="266.45px" xmlns="http://www.w3.org/2000/svg">
  <g transform="matrix(1.0, 0.0, 0.0, 1.0, 263.45, 0.0)">
    <path d="M3.0 28.0 L-248.0 28.0 -249.0 29.0 -249.0 77.0 -246.0 77.0 -245.65 77.35 -253.0 85.0 -260.45 77.35 -260.0 77.0 -257.0 77.0 -257.0 4.0 3.0 4.0 3.0 28.0" fill="#232323" fill-rule="evenodd" stroke="none"/>
    <path d="M0.0 24.0 L-251.0 24.0 -252.0 25.0 -252.0 73.0 -249.0 73.0 -248.65 73.35 -256.0 81.0 -263.45 73.35 -263.0 73.0 -260.0 73.0 -260.0 24.0 -260.0 2.0 Q-260.0 0.0 -258.0 0.0 L0.0 0.0 0.0 24.0" fill="url(#gradient0)" fill-rule="evenodd" stroke="none"/>
  </g>
  <defs>
    <linearGradient gradientTransform="matrix(0.0, 0.069, -0.069, 0.0, -311.75, 56.5)" gradientUnits="userSpaceOnUse" id="gradient0" spreadMethod="pad" x1="-819.2" x2="819.2">
      <stop offset="0.0" stop-color="#f70f0f"/>
      <stop offset="1.0" stop-color="#8f0505"/>
    </linearGradient>
  </defs>
</svg>
