<?xml version="1.0" encoding="UTF-8" standalone="no"?>
<svg xmlns:xlink="http://www.w3.org/1999/xlink" height="34.0px" width="102.0px" xmlns="http://www.w3.org/2000/svg">
  <g transform="matrix(1.0, 0.0, 0.0, 1.0, 3.0, 15.0)">
    <path d="M56.0 -12.0 L56.0 -3.0 96.0 -3.0 Q99.0 -3.0 99.0 0.0 L99.0 16.0 Q99.0 19.0 96.0 19.0 L0.0 19.0 Q-3.0 19.0 -3.0 16.0 L-3.0 -12.0 Q-3.0 -15.0 0.0 -15.0 L53.0 -15.0 Q56.0 -15.0 56.0 -12.0 M94.0 1.0 L2.0 1.0 Q1.0 1.0 1.0 2.0 L1.0 14.0 Q1.0 15.0 2.0 15.0 L94.0 15.0 Q95.0 15.0 95.0 14.0 L95.0 2.0 Q95.0 1.0 94.0 1.0" fill="#000000" fill-rule="evenodd" stroke="none"/>
    <path d="M55.0 -12.0 L55.0 -2.0 96.0 -2.0 Q98.0 -2.0 98.0 0.0 L98.0 16.0 Q98.0 18.0 96.0 18.0 L0.0 18.0 Q-2.0 18.0 -2.0 16.0 L-2.0 -12.0 Q-2.0 -14.0 0.0 -14.0 L53.0 -14.0 Q55.0 -14.0 55.0 -12.0 M96.0 2.0 Q96.0 0.0 94.0 0.0 L2.0 0.0 Q0.0 0.0 0.0 2.0 L0.0 14.0 Q0.0 16.0 2.0 16.0 L94.0 16.0 Q96.0 16.0 96.0 14.0 L96.0 2.0" fill="#00ff00" fill-rule="evenodd" stroke="none"/>
  </g>
</svg>
