<?xml version="1.0" encoding="UTF-8" standalone="no"?>
<svg xmlns:xlink="http://www.w3.org/1999/xlink" height="68.65px" width="73.5px" xmlns="http://www.w3.org/2000/svg">
  <g transform="matrix(1.0, 0.0, 0.0, 1.0, 37.0, 36.5)">
    <path d="M0.5 -29.0 L-1.5 -29.0 -1.5 -36.0 0.5 -36.0 0.5 -29.0 M17.0 -31.0 Q17.6 -31.0 18.05 -30.55 18.5 -30.1 18.5 -29.5 18.5 -28.9 18.05 -28.45 17.6 -28.0 17.0 -28.0 16.4 -28.0 15.95 -28.45 15.5 -28.9 15.5 -29.5 15.5 -30.1 15.95 -30.55 16.4 -31.0 17.0 -31.0 M31.1 -17.1 Q31.25 -16.5 30.95 -16.0 30.65 -15.5 30.05 -15.3 L28.9 -15.45 Q28.4 -15.75 28.25 -16.35 28.05 -17.0 28.35 -17.5 28.65 -18.0 29.3 -18.15 L30.4 -18.05 Q30.95 -17.75 31.1 -17.1 M36.0 -0.5 L36.0 1.5 29.0 1.5 29.0 -0.5 36.0 -0.5 M28.0 18.0 Q28.0 17.4 28.45 16.95 28.9 16.5 29.5 16.5 30.1 16.5 30.55 16.95 31.0 17.4 31.0 18.0 L30.55 19.05 Q30.1 19.5 29.5 19.5 28.9 19.5 28.45 19.05 28.0 18.6 28.0 18.0 M15.45 29.9 Q15.75 29.4 16.4 29.25 L17.5 29.35 Q18.0 29.65 18.2 30.3 L18.05 31.4 17.15 32.1 16.0 31.95 Q15.5 31.65 15.35 31.05 15.15 30.45 15.45 29.9" fill="#585858" fill-rule="evenodd" stroke="none"/>
    <path d="M-18.1 -31.05 L-17.0 -30.95 Q-16.5 -30.65 -16.3 -30.0 -16.15 -29.45 -16.45 -28.9 -16.75 -28.4 -17.35 -28.2 L-18.5 -28.35 Q-19.0 -28.65 -19.15 -29.25 -19.35 -29.9 -19.05 -30.4 L-18.1 -31.05 M-29.45 -15.95 Q-29.9 -15.5 -30.5 -15.5 -31.1 -15.5 -31.55 -15.95 -32.0 -16.4 -32.0 -17.0 -32.0 -17.6 -31.55 -18.05 -31.1 -18.5 -30.5 -18.5 -29.9 -18.5 -29.45 -18.05 -29.0 -17.6 -29.0 -17.0 -29.0 -16.4 -29.45 -15.95 M-30.0 -0.5 L-30.0 1.5 -37.0 1.5 -37.0 -0.5 -30.0 -0.5 M-31.0 16.35 L-29.9 16.45 Q-29.4 16.75 -29.2 17.4 -29.05 18.0 -29.35 18.5 -29.65 19.0 -30.25 19.2 L-31.4 19.05 -32.05 18.15 Q-32.25 17.5 -31.95 17.0 -31.65 16.5 -31.0 16.35 M-18.0 29.0 Q-17.4 29.0 -16.95 29.45 -16.5 29.9 -16.5 30.5 -16.5 31.1 -16.95 31.55 -17.4 32.0 -18.0 32.0 -18.6 32.0 -19.05 31.55 L-19.5 30.5 Q-19.5 29.9 -19.05 29.45 -18.6 29.0 -18.0 29.0" fill="#000000" fill-rule="evenodd" stroke="none"/>
    <path d="M1.0 -29.5 L-1.0 -29.5 -1.0 -36.5 1.0 -36.5 1.0 -29.5" fill="url(#gradient0)" fill-rule="evenodd" stroke="none"/>
    <path d="M17.5 -31.5 Q18.1 -31.5 18.55 -31.05 L19.0 -30.0 Q19.0 -29.4 18.55 -28.95 18.1 -28.5 17.5 -28.5 16.9 -28.5 16.45 -28.95 16.0 -29.4 16.0 -30.0 16.0 -30.6 16.45 -31.05 16.9 -31.5 17.5 -31.5 M31.45 -16.5 Q31.15 -16.0 30.55 -15.8 L29.4 -15.95 Q28.9 -16.25 28.75 -16.85 28.55 -17.5 28.85 -18.0 29.15 -18.5 29.8 -18.65 L30.9 -18.55 Q31.45 -18.25 31.6 -17.6 31.75 -17.0 31.45 -16.5 M36.5 -1.0 L36.5 1.0 29.5 1.0 29.5 -1.0 36.5 -1.0 M-18.65 -29.75 Q-18.85 -30.4 -18.55 -30.9 -18.25 -31.45 -17.6 -31.55 L-16.5 -31.45 Q-16.0 -31.15 -15.8 -30.5 -15.65 -29.95 -15.95 -29.4 -16.25 -28.9 -16.85 -28.7 L-18.0 -28.85 Q-18.5 -29.15 -18.65 -29.75 M-30.0 -16.0 Q-30.6 -16.0 -31.05 -16.45 -31.5 -16.9 -31.5 -17.5 L-31.05 -18.55 Q-30.6 -19.0 -30.0 -19.0 -29.4 -19.0 -28.95 -18.55 -28.5 -18.1 -28.5 -17.5 -28.5 -16.9 -28.95 -16.45 -29.4 -16.0 -30.0 -16.0 M-30.5 15.85 L-29.4 15.95 Q-28.9 16.25 -28.7 16.9 -28.55 17.5 -28.85 18.0 L-29.75 18.7 -30.9 18.55 -31.55 17.65 Q-31.75 17.0 -31.45 16.5 -31.15 16.0 -30.5 15.85 M-17.5 28.5 Q-16.9 28.5 -16.45 28.95 -16.0 29.4 -16.0 30.0 -16.0 30.6 -16.45 31.05 -16.9 31.5 -17.5 31.5 -18.1 31.5 -18.55 31.05 L-19.0 30.0 Q-19.0 29.4 -18.55 28.95 -18.1 28.5 -17.5 28.5 M28.5 17.5 Q28.5 16.9 28.95 16.45 29.4 16.0 30.0 16.0 30.6 16.0 31.05 16.45 31.5 16.9 31.5 17.5 L31.05 18.55 Q30.6 19.0 30.0 19.0 29.4 19.0 28.95 18.55 28.5 18.1 28.5 17.5" fill="url(#gradient1)" fill-rule="evenodd" stroke="none"/>
    <path d="M-29.5 -1.0 L-29.5 1.0 -36.5 1.0 -36.5 -1.0 -29.5 -1.0" fill="url(#gradient2)" fill-rule="evenodd" stroke="none"/>
    <path d="M15.95 29.4 Q16.25 28.9 16.9 28.75 L18.0 28.85 Q18.5 29.15 18.7 29.8 L18.55 30.9 Q18.25 31.45 17.65 31.6 L16.5 31.45 Q16.0 31.15 15.85 30.55 15.65 29.95 15.95 29.4" fill="url(#gradient3)" fill-rule="evenodd" stroke="none"/>
    <path d="M6.8 -0.35 L6.5 -0.45 6.3 -0.75 6.35 -1.05 Q11.6 -10.95 23.5 -10.65 L23.8 -10.5 23.95 -10.2 23.9 -9.9 Q17.8 0.2 6.8 -0.35 M-24.35 -28.2 Q-10.95 -19.9 -4.8 -3.8 L-4.8 -3.5 -4.95 -3.25 -5.25 -3.15 -5.55 -3.2 Q-19.9 -12.65 -25.1 -27.6 L-25.1 -27.95 -24.95 -28.2 -24.65 -28.3 -24.35 -28.2" fill="url(#gradient4)" fill-rule="evenodd" stroke="none"/>
    <path d="M6.8 -0.85 Q11.9 -10.45 23.45 -10.15 17.55 -0.3 6.8 -0.85" fill="url(#gradient5)" fill-rule="evenodd" stroke="none"/>
    <path d="M-24.65 -27.8 Q-11.35 -19.55 -5.3 -3.65 -19.5 -13.0 -24.65 -27.8" fill="url(#gradient6)" fill-rule="evenodd" stroke="none"/>
    <path d="M9.75 -7.6 Q9.0 -5.85 7.45 -4.95 9.0 -3.0 9.0 -0.45 9.0 2.8 6.35 5.2 3.7 7.45 0.0 7.45 -3.7 7.45 -6.3 5.2 -9.0 2.8 -9.0 -0.45 -9.0 -3.0 -7.45 -4.95 -9.0 -5.85 -9.75 -7.6 -11.3 -11.1 -7.6 -13.55 L-7.4 -13.65 -7.15 -13.6 Q-5.6 -13.0 -4.4 -9.95 L-3.5 -7.75 0.0 -8.4 3.5 -7.75 4.45 -9.95 Q5.6 -13.0 7.15 -13.6 L7.4 -13.65 7.65 -13.55 Q11.3 -11.1 9.75 -7.6" fill="url(#gradient7)" fill-rule="evenodd" stroke="none"/>
    <path d="M3.75 -7.15 L4.9 -9.8 Q5.95 -12.55 7.35 -13.15 10.65 -10.95 9.3 -7.8 8.5 -5.9 6.65 -5.1 8.5 -3.1 8.5 -0.45 8.5 1.1 7.9 2.4 4.4 0.75 0.0 0.75 -4.45 0.75 -7.85 2.45 -8.5 1.1 -8.5 -0.45 -8.5 -3.1 -6.65 -5.1 -8.5 -5.9 -9.3 -7.8 -10.65 -10.95 -7.35 -13.15 -5.95 -12.55 -4.9 -9.8 L-3.75 -7.15 Q-2.05 -7.9 0.0 -7.9 2.05 -7.9 3.75 -7.15" fill="url(#gradient8)" fill-rule="evenodd" stroke="none"/>
    <path d="M6.0 4.6 Q3.5 6.75 0.0 6.75 -3.5 6.75 -6.0 4.6 L-7.35 3.1 Q-4.15 1.55 0.0 1.55 4.1 1.55 7.4 3.1 L6.0 4.6" fill="url(#gradient9)" fill-rule="evenodd" stroke="none"/>
    <path d="M6.4 4.25 L3.6 4.8 3.6 6.1 2.6 6.45 2.6 4.9 0.5 5.0 0.5 6.75 0.0 6.75 -0.5 6.75 -0.5 5.0 -2.5 4.9 -2.5 6.45 -3.5 6.15 -3.5 4.8 -6.35 4.25 -7.35 3.1 -7.15 3.0 -6.5 3.2 -3.5 3.8 -3.5 1.85 -2.5 1.7 -2.5 3.9 -0.5 4.0 -0.5 1.55 0.0 1.55 0.5 1.55 0.5 4.0 2.6 3.9 2.6 1.75 3.6 1.9 3.6 3.8 7.2 3.0 7.4 3.1 6.4 4.25" fill="url(#gradient10)" fill-rule="evenodd" stroke="none"/>
    <path d="M3.45 -4.6 L4.75 -4.85 Q5.45 -4.7 6.1 -4.2 L7.0 -2.85 Q7.15 -2.05 6.75 -1.65 6.35 -1.15 5.5 -1.4 4.7 -1.55 4.0 -2.15 3.3 -2.8 3.1 -3.55 2.95 -4.35 3.45 -4.6" fill="url(#gradient11)" fill-rule="evenodd" stroke="none"/>
    <path d="M-4.0 -2.15 Q-4.7 -1.55 -5.5 -1.4 -6.35 -1.15 -6.75 -1.65 -7.15 -2.05 -7.0 -2.85 L-6.1 -4.2 Q-5.45 -4.7 -4.75 -4.85 L-3.45 -4.6 Q-2.95 -4.35 -3.1 -3.55 -3.3 -2.8 -4.0 -2.15" fill="url(#gradient12)" fill-rule="evenodd" stroke="none"/>
    <path d="M25.9 -29.05 Q32.65 -22.3 32.65 -12.75 32.65 -3.2 25.9 3.5 19.2 10.25 9.65 10.25 0.1 10.25 -6.65 3.5 -13.35 -3.2 -13.35 -12.75 -13.35 -22.3 -6.65 -29.05 0.1 -35.75 9.65 -35.75 19.2 -35.75 25.9 -29.05" fill="url(#gradient13)" fill-rule="evenodd" stroke="none"/>
  </g>
  <defs>
    <linearGradient gradientTransform="matrix(0.0422, -0.0281, 7.0E-4, 0.001, 92.85, 138.2)" gradientUnits="userSpaceOnUse" id="gradient0" spreadMethod="pad" x1="-819.2" x2="819.2">
      <stop offset="0.0" stop-color="#473f1b"/>
      <stop offset="1.0" stop-color="#b7a555"/>
    </linearGradient>
    <linearGradient gradientTransform="matrix(0.0422, -0.0281, 7.0E-4, 0.001, 92.85, 138.2)" gradientUnits="userSpaceOnUse" id="gradient1" spreadMethod="pad" x1="-819.2" x2="819.2">
      <stop offset="0.0" stop-color="#473f1b"/>
      <stop offset="1.0" stop-color="#b7a555"/>
    </linearGradient>
    <linearGradient gradientTransform="matrix(0.0422, -0.0281, 7.0E-4, 0.001, 92.85, 138.2)" gradientUnits="userSpaceOnUse" id="gradient2" spreadMethod="pad" x1="-819.2" x2="819.2">
      <stop offset="0.0" stop-color="#473f1b"/>
      <stop offset="1.0" stop-color="#b7a555"/>
    </linearGradient>
    <linearGradient gradientTransform="matrix(0.0422, -0.0281, 7.0E-4, 0.001, 92.85, 138.2)" gradientUnits="userSpaceOnUse" id="gradient3" spreadMethod="pad" x1="-819.2" x2="819.2">
      <stop offset="0.0" stop-color="#473f1b"/>
      <stop offset="1.0" stop-color="#b7a555"/>
    </linearGradient>
    <radialGradient cx="0" cy="0" gradientTransform="matrix(0.0404, 0.0, 0.0, 0.0404, 0.0, 0.0)" gradientUnits="userSpaceOnUse" id="gradient4" r="819.2" spreadMethod="pad">
      <stop offset="0.0" stop-color="#4a4a4a"/>
      <stop offset="1.0" stop-color="#8a8a8a"/>
    </radialGradient>
    <linearGradient gradientTransform="matrix(0.0088, -0.0051, 0.0029, 0.0049, 13.1, -4.55)" gradientUnits="userSpaceOnUse" id="gradient5" spreadMethod="pad" x1="-819.2" x2="819.2">
      <stop offset="0.0" stop-color="#808080"/>
      <stop offset="1.0" stop-color="#d0d0d0"/>
    </linearGradient>
    <linearGradient gradientTransform="matrix(-0.0117, -0.0117, 0.0104, -0.0104, -11.05, -11.7)" gradientUnits="userSpaceOnUse" id="gradient6" spreadMethod="pad" x1="-819.2" x2="819.2">
      <stop offset="0.0" stop-color="#808080"/>
      <stop offset="1.0" stop-color="#d0d0d0"/>
    </linearGradient>
    <linearGradient gradientTransform="matrix(0.0053, -0.0074, 0.0074, 0.0053, -0.1, -0.5)" gradientUnits="userSpaceOnUse" id="gradient7" spreadMethod="pad" x1="-819.2" x2="819.2">
      <stop offset="0.0" stop-color="#5f2e58"/>
      <stop offset="1.0" stop-color="#9b5597"/>
    </linearGradient>
    <linearGradient gradientTransform="matrix(0.0053, -0.0074, 0.0074, 0.0053, -0.1, -0.5)" gradientUnits="userSpaceOnUse" id="gradient8" spreadMethod="pad" x1="-819.2" x2="819.2">
      <stop offset="0.0" stop-color="#983d82"/>
      <stop offset="1.0" stop-color="#cc80b9"/>
    </linearGradient>
    <linearGradient gradientTransform="matrix(0.0011, -0.0037, 0.0087, 0.0025, -1.3, 3.65)" gradientUnits="userSpaceOnUse" id="gradient9" spreadMethod="pad" x1="-819.2" x2="819.2">
      <stop offset="0.0" stop-color="#cbbd96"/>
      <stop offset="1.0" stop-color="#e2decd"/>
    </linearGradient>
    <radialGradient cx="0" cy="0" gradientTransform="matrix(0.0122, 0.0, 0.0, 0.0035, 0.0, 4.0)" gradientUnits="userSpaceOnUse" id="gradient10" r="819.2" spreadMethod="pad">
      <stop offset="0.6" stop-color="#c6b495"/>
      <stop offset="0.7372549019607844" stop-color="#977b60"/>
    </radialGradient>
    <linearGradient gradientTransform="matrix(0.0011, 0.0026, 0.002, -9.0E-4, 5.0, -3.05)" gradientUnits="userSpaceOnUse" id="gradient11" spreadMethod="pad" x1="-819.2" x2="819.2">
      <stop offset="0.0" stop-color="#ffdd40"/>
      <stop offset="1.0" stop-color="#ffcc00"/>
    </linearGradient>
    <linearGradient gradientTransform="matrix(-0.0011, 0.0026, -0.002, -9.0E-4, -5.0, -3.05)" gradientUnits="userSpaceOnUse" id="gradient12" spreadMethod="pad" x1="-819.2" x2="819.2">
      <stop offset="0.0" stop-color="#ffdd40"/>
      <stop offset="1.0" stop-color="#ffcc00"/>
    </linearGradient>
    <radialGradient cx="0" cy="0" fx="441.6" fy="0" gradientTransform="matrix(0.0206, -0.0223, 0.0226, 0.0208, 9.65, -12.75)" gradientUnits="userSpaceOnUse" id="gradient13" r="819.2" spreadMethod="pad">
      <stop offset="0.22745098039215686" stop-color="#ffffff"/>
      <stop offset="0.3764705882352941" stop-color="#ffffff" stop-opacity="0.77254903"/>
      <stop offset="0.6313725490196078" stop-color="#ffffff" stop-opacity="0.0"/>
    </radialGradient>
  </defs>
</svg>
