<?xml version="1.0" encoding="UTF-8" standalone="no"?>
<svg xmlns:xlink="http://www.w3.org/1999/xlink" height="64.85px" width="43.1px" xmlns="http://www.w3.org/2000/svg">
  <g transform="matrix(1.0, 0.0, 0.0, 1.0, 21.35, 32.3)">
    <path d="M-10.8 -27.0 L-16.15 -27.0 -16.5 -25.6 Q-13.6 -24.75 -11.65 -23.25 -9.7 -21.75 -9.7 -19.6 -9.7 -18.8 -10.1 -18.1 L-12.4 -14.85 -15.15 -11.1 -20.35 -14.6 -17.9 -18.1 -14.25 -15.7 -13.7 -16.55 Q-13.3 -17.1 -13.3 -17.9 -13.3 -18.4 -13.8 -18.9 -14.3 -19.4 -15.2 -19.9 L-17.25 -20.75 -20.0 -21.45 -17.6 -31.3 -9.8 -31.3 -10.8 -27.0 Z" fill="none" stroke="#000000" stroke-linecap="round" stroke-linejoin="round" stroke-width="2.0"/>
    <path d="M-10.8 -27.0 L-16.15 -27.0 -16.5 -25.6 Q-13.6 -24.75 -11.65 -23.25 -9.7 -21.75 -9.7 -19.6 -9.7 -18.8 -10.1 -18.1 L-12.4 -14.85 -15.15 -11.1 -20.35 -14.6 -17.9 -18.1 -14.25 -15.7 -13.7 -16.55 Q-13.3 -17.1 -13.3 -17.9 -13.3 -18.4 -13.8 -18.9 -14.3 -19.4 -15.2 -19.9 L-17.25 -20.75 -20.0 -21.45 -17.6 -31.3 -9.8 -31.3 -10.8 -27.0" fill="#ffffff" fill-rule="evenodd" stroke="none"/>
    <path d="M18.1 27.15 L19.45 27.35 17.25 31.55 Q15.65 31.3 14.75 30.85 13.8 30.45 13.25 29.9 12.7 29.35 12.5 28.7 L12.25 27.5 Q12.25 26.4 12.8 25.4 13.3 24.4 14.15 23.7 L13.4 23.1 12.4 22.05 11.5 20.75 Q11.15 20.05 11.15 19.3 11.15 18.55 11.4 17.9 L12.0 16.65 16.75 11.4 20.75 15.15 18.1 18.25 15.3 15.7 15.15 16.15 Q15.0 16.4 15.0 16.9 15.0 17.7 15.5 18.4 L16.6 19.7 17.9 20.65 19.0 21.4 18.1 22.3 17.2 23.2 16.35 24.25 Q16.0 24.8 16.0 25.2 16.0 25.65 16.3 26.0 L17.05 26.7 18.1 27.15 Z" fill="none" stroke="#000000" stroke-linecap="round" stroke-linejoin="round" stroke-width="2.0"/>
    <path d="M18.1 27.15 L19.45 27.35 17.25 31.55 Q15.65 31.3 14.75 30.85 13.8 30.45 13.25 29.9 12.7 29.35 12.5 28.7 L12.25 27.5 Q12.25 26.4 12.8 25.4 13.3 24.4 14.15 23.7 L13.4 23.1 12.4 22.05 11.5 20.75 Q11.15 20.05 11.15 19.3 11.15 18.55 11.4 17.9 L12.0 16.65 16.75 11.4 20.75 15.15 18.1 18.25 15.3 15.7 15.15 16.15 Q15.0 16.4 15.0 16.9 15.0 17.7 15.5 18.4 L16.6 19.7 17.9 20.65 19.0 21.4 18.1 22.3 17.2 23.2 16.35 24.25 Q16.0 24.8 16.0 25.2 16.0 25.65 16.3 26.0 L17.05 26.7 18.1 27.15" fill="#ffffff" fill-rule="evenodd" stroke="none"/>
  </g>
</svg>
