<?xml version="1.0" encoding="UTF-8" standalone="no"?>
<svg xmlns:xlink="http://www.w3.org/1999/xlink" height="124.35px" width="310.45px" xmlns="http://www.w3.org/2000/svg">
  <g transform="matrix(1.0, 0.0, 0.0, 1.0, 155.75, 44.75)">
    <path d="M123.5 20.35 L93.85 12.85 113.35 10.0 135.0 14.75 135.6 14.85 143.5 16.75 123.5 20.35 M144.25 16.6 L119.1 11.0 118.6 10.85 118.0 10.75 114.25 9.85 116.0 9.5 146.5 16.35 144.25 16.6 M-124.65 20.25 L-144.5 16.75 -123.4 12.0 -122.9 11.85 -122.25 11.75 -121.75 11.6 -121.15 11.5 -120.65 11.35 -120.0 11.25 -114.4 10.0 -94.9 12.85 -124.65 20.25 M-115.25 9.85 L-144.9 16.6 -145.4 16.6 -147.5 16.35 -147.65 16.35 -117.25 9.5 -115.25 9.85 M-16.0 -44.4 L15.0 -44.4 16.25 -43.15 26.6 -7.5 21.6 49.5 -22.65 49.5 -27.65 -6.75 -17.25 -43.15 -16.0 -44.4" fill="#2e2724" fill-rule="evenodd" stroke="none"/>
    <path d="M143.5 16.75 L135.6 14.85 135.0 14.75 113.35 10.0 114.25 9.85 118.0 10.75 118.6 10.85 119.1 11.0 144.25 16.6 143.85 16.75 143.5 16.75 M-144.5 16.75 L-144.9 16.75 -145.4 16.75 -145.4 16.6 -144.9 16.6 -115.25 9.85 -114.4 10.0 -120.0 11.25 -120.65 11.35 -121.15 11.5 -121.75 11.6 -122.25 11.75 -122.9 11.85 -123.4 12.0 -144.5 16.75" fill="#090908" fill-rule="evenodd" stroke="none"/>
    <path d="M-144.9 16.75 L-144.5 16.75 -124.65 20.25 -132.5 65.5 -132.75 66.0 -152.65 60.75 -148.65 38.1 -148.5 37.5 -146.5 25.75 -146.5 25.6 -145.9 22.5 -145.9 22.1 -145.75 21.85 -145.75 21.5 -145.65 21.1 -145.65 20.75 -145.5 20.5 -145.5 20.1 -145.4 19.85 -145.4 19.35 -144.9 16.75 M-145.4 16.6 L-145.4 16.75 -149.15 37.85 -149.25 38.25 -149.25 38.6 -149.4 38.85 -149.4 39.25 -149.5 39.5 -149.5 40.0 -149.65 40.25 -149.65 40.6 -149.75 40.85 -150.4 44.85 -150.5 45.25 -150.5 45.6 -150.75 46.6 -150.75 47.0 -150.9 47.25 -150.9 47.6 -151.0 47.85 -152.5 55.75 -152.5 56.1 -152.65 56.35 -152.65 56.75 -152.75 57.0 -152.9 57.6 -152.9 58.1 -153.0 58.35 -153.0 59.25 -153.15 59.6 -153.25 60.25 -153.25 60.6 -155.4 60.0 -147.65 16.35 -147.5 16.35 -145.4 16.6" fill="#473c38" fill-rule="evenodd" stroke="none"/>
    <path d="M-144.9 16.75 L-145.4 19.35 -145.4 19.85 -145.5 20.1 -145.5 20.5 -145.65 20.75 -145.65 21.1 -145.75 21.5 -145.75 21.85 -145.9 22.1 -145.9 22.5 -146.5 25.6 -146.5 25.75 -148.5 37.5 -148.65 38.1 -152.65 60.75 -153.15 60.6 -153.25 60.6 -153.25 60.25 -153.15 59.6 -153.0 59.25 -153.0 58.35 -152.9 58.1 -152.9 57.6 -152.75 57.0 -152.65 56.75 -152.65 56.35 -152.5 56.1 -152.5 55.75 -151.0 47.85 -150.9 47.6 -150.9 47.25 -150.75 47.0 -150.75 46.6 -150.5 45.6 -150.5 45.25 -150.4 44.85 -149.75 40.85 -149.65 40.6 -149.65 40.25 -149.5 40.0 -149.5 39.5 -149.4 39.25 -149.4 38.85 -149.25 38.6 -149.25 38.25 -149.15 37.85 -145.4 16.75 -144.9 16.75" fill="#0f0e0d" fill-rule="evenodd" stroke="none"/>
    <path d="M-152.65 60.75 L-132.75 66.0 -132.5 66.75 -130.9 79.25 -150.75 73.35 -150.9 73.0 -150.9 72.5 -151.0 72.1 -151.0 71.6 -151.15 71.35 -151.15 70.75 -151.25 70.5 -151.25 70.0 -151.4 69.75 -151.4 69.1 -151.5 68.85 -151.5 68.25 -151.65 68.0 -151.75 67.25 -151.75 66.6 -151.9 66.35 -152.4 63.1 -152.4 62.35 -152.65 60.75 M-155.4 60.0 L-153.25 60.6 -151.4 73.1 -153.5 72.6 -155.4 60.0" fill="#3a312e" fill-rule="evenodd" stroke="none"/>
    <path d="M-150.75 73.35 L-151.4 73.1 -153.25 60.6 -153.15 60.6 -152.65 60.75 -152.4 62.35 -152.4 63.1 -151.9 66.35 -151.75 66.6 -151.75 67.25 -151.65 68.0 -151.5 68.25 -151.5 68.85 -151.4 69.1 -151.4 69.75 -151.25 70.0 -151.25 70.5 -151.15 70.75 -151.15 71.35 -151.0 71.6 -151.0 72.1 -150.9 72.5 -150.9 73.0 -150.75 73.35" fill="#0c0b0a" fill-rule="evenodd" stroke="none"/>
    <path d="M131.5 66.1 L123.6 20.6 123.5 20.35 143.5 16.75 143.85 16.75 145.6 27.0 146.1 29.6 146.25 29.85 146.25 30.25 146.35 30.6 146.35 31.0 146.5 31.25 146.5 31.6 147.1 34.75 147.1 34.85 151.6 60.5 151.6 60.75 131.5 66.1 M146.5 16.35 L154.35 60.0 152.1 60.6 151.85 58.85 151.85 58.35 151.75 58.1 151.6 57.5 151.6 57.0 151.5 56.75 151.5 56.35 151.35 56.1 151.35 55.75 148.75 40.85 148.6 40.6 148.6 40.25 148.5 40.0 148.5 39.5 148.35 39.25 148.35 38.85 148.25 38.6 148.25 38.25 148.1 37.85 145.5 22.75 145.35 22.25 145.1 20.6 145.1 20.35 145.0 20.1 145.0 19.75 144.85 19.5 144.25 16.75 144.25 16.6 146.5 16.35" fill="#1f1a18" fill-rule="evenodd" stroke="none"/>
    <path d="M143.85 16.75 L144.25 16.6 144.25 16.75 144.85 19.5 145.0 19.75 145.0 20.1 145.1 20.35 145.1 20.6 145.35 22.25 145.5 22.75 148.1 37.85 148.25 38.25 148.25 38.6 148.35 38.85 148.35 39.25 148.5 39.5 148.5 40.0 148.6 40.25 148.6 40.6 148.75 40.85 151.35 55.75 151.35 56.1 151.5 56.35 151.5 56.75 151.6 57.0 151.6 57.5 151.75 58.1 151.85 58.35 151.85 58.85 152.1 60.6 151.6 60.75 151.6 60.5 147.1 34.85 147.1 34.75 146.5 31.6 146.5 31.25 146.35 31.0 146.35 30.6 146.25 30.25 146.25 29.85 146.1 29.6 145.6 27.0 143.85 16.75" fill="#060605" fill-rule="evenodd" stroke="none"/>
    <path d="M129.6 79.25 L131.5 66.5 131.5 66.1 151.6 60.75 149.75 73.35 131.35 79.0 129.6 79.25 M154.35 60.0 L152.5 72.6 150.35 73.25 150.6 71.5 150.6 71.1 150.75 70.6 150.75 70.1 150.85 69.85 150.85 69.25 151.0 69.0 152.1 60.6 154.35 60.0" fill="#100e0d" fill-rule="evenodd" stroke="none"/>
    <path d="M93.85 12.85 L123.5 20.35 123.6 20.6 131.5 66.1 131.5 66.5 129.6 79.25 83.85 60.0 83.6 47.75 93.85 12.85" fill="#3d3431" fill-rule="evenodd" stroke="none"/>
    <path d="M150.35 73.25 L150.25 73.25 149.75 73.35 151.6 60.75 152.1 60.6 151.0 69.0 150.85 69.25 150.85 69.85 150.75 70.1 150.75 70.6 150.6 71.1 150.6 71.5 150.35 73.25" fill="#030303" fill-rule="evenodd" stroke="none"/>
    <path d="M-132.75 66.0 L-132.5 65.5 -124.65 20.25 -94.9 12.85 -84.65 47.6 -84.75 60.0 -130.9 79.25 -132.5 66.75 -132.75 66.0" fill="#040303" fill-rule="evenodd" stroke="none"/>
    <path d="M93.85 12.85 L83.6 47.75 83.85 60.0 129.6 79.25 131.5 66.5 131.5 66.1 123.6 20.6 123.5 20.35 93.85 12.85 113.35 10.0 114.25 9.85 116.0 9.5 146.5 16.35 154.35 60.0 152.5 72.6 150.35 73.25 150.25 73.25 149.75 73.35 131.35 79.0 129.6 79.25 M113.35 10.0 L135.0 14.75 135.6 14.85 143.5 16.75 143.85 16.75 144.25 16.6 119.1 11.0 118.6 10.85 118.0 10.75 114.25 9.85 M146.5 16.35 L144.25 16.6 144.25 16.75 144.85 19.5 145.0 19.75 145.0 20.1 145.1 20.35 145.1 20.6 145.35 22.25 145.5 22.75 148.1 37.85 148.25 38.25 148.25 38.6 148.35 38.85 148.35 39.25 148.5 39.5 148.5 40.0 148.6 40.25 148.6 40.6 148.75 40.85 151.35 55.75 151.35 56.1 151.5 56.35 151.5 56.75 151.6 57.0 151.6 57.5 151.75 58.1 151.85 58.35 151.85 58.85 152.1 60.6 154.35 60.0 M131.5 66.1 L151.6 60.75 151.6 60.5 147.1 34.85 147.1 34.75 146.5 31.6 146.5 31.25 146.35 31.0 146.35 30.6 146.25 30.25 146.25 29.85 146.1 29.6 145.6 27.0 143.85 16.75 M143.5 16.75 L123.5 20.35 M-144.9 16.75 L-145.4 19.35 -145.4 19.85 -145.5 20.1 -145.5 20.5 -145.65 20.75 -145.65 21.1 -145.75 21.5 -145.75 21.85 -145.9 22.1 -145.9 22.5 -146.5 25.6 -146.5 25.75 -148.5 37.5 -148.65 38.1 -152.65 60.75 -132.75 66.0 -132.5 65.5 -124.65 20.25 -144.5 16.75 -144.9 16.75 -145.4 16.75 -149.15 37.85 -149.25 38.25 -149.25 38.6 -149.4 38.85 -149.4 39.25 -149.5 39.5 -149.5 40.0 -149.65 40.25 -149.65 40.6 -149.75 40.85 -150.4 44.85 -150.5 45.25 -150.5 45.6 -150.75 46.6 -150.75 47.0 -150.9 47.25 -150.9 47.6 -151.0 47.85 -152.5 55.75 -152.5 56.1 -152.65 56.35 -152.65 56.75 -152.75 57.0 -152.9 57.6 -152.9 58.1 -153.0 58.35 -153.0 59.25 -153.15 59.6 -153.25 60.25 -153.25 60.6 -153.15 60.6 -152.65 60.75 -152.4 62.35 -152.4 63.1 -151.9 66.35 -151.75 66.6 -151.75 67.25 -151.65 68.0 -151.5 68.25 -151.5 68.85 -151.4 69.1 -151.4 69.75 -151.25 70.0 -151.25 70.5 -151.15 70.75 -151.15 71.35 -151.0 71.6 -151.0 72.1 -150.9 72.5 -150.9 73.0 -150.75 73.35 -130.9 79.25 -132.5 66.75 -132.75 66.0 M-144.9 16.6 L-115.25 9.85 -117.25 9.5 -147.65 16.35 -147.5 16.35 -145.4 16.6 -144.9 16.6 M-145.4 16.75 L-145.4 16.6 M-124.65 20.25 L-94.9 12.85 -114.4 10.0 -120.0 11.25 -120.65 11.35 -121.15 11.5 -121.75 11.6 -122.25 11.75 -122.9 11.85 -123.4 12.0 -144.5 16.75 M-115.25 9.85 L-114.4 10.0 M-16.0 -44.4 L15.0 -44.4 16.25 -43.15 26.6 -7.5 21.6 49.5 -22.65 49.5 -27.65 -6.75 -17.25 -43.15 -16.0 -44.4 M16.25 -43.15 L-17.25 -43.15 M-94.9 12.85 L-84.65 47.6 -84.75 60.0 -130.9 79.25 M-147.65 16.35 L-155.4 60.0 -153.25 60.6 -151.4 73.1 -150.9 73.3 -150.9 73.0 M-151.4 73.1 L-153.5 72.6 -155.4 60.0 M-150.75 73.35 L-150.9 73.3 M150.25 73.25 L150.35 73.25 150.6 71.5 150.6 71.1 150.75 70.6 150.75 70.1 150.85 69.85 150.85 69.25 151.0 69.0 152.1 60.6 151.6 60.75 149.75 73.35" fill="none" stroke="#000000" stroke-linecap="round" stroke-linejoin="round" stroke-width="0.7000000000000001"/>
  </g>
</svg>
