<?xml version="1.0" encoding="UTF-8" standalone="no"?>
<svg xmlns:xlink="http://www.w3.org/1999/xlink" height="318.45px" width="180.1px" xmlns="http://www.w3.org/2000/svg">
  <g transform="matrix(1.0, 0.0, 0.0, 1.0, 90.5, 14.0)">
    <path d="M-55.65 132.6 L-30.0 46.35 28.85 46.35 54.35 132.75 36.25 304.0 -37.15 304.1 -37.5 303.75 -55.65 132.6 M-58.25 0.25 L-56.65 -1.75 55.6 -1.75 57.25 0.0 -58.25 0.25 M-56.25 -2.15 L-45.4 -13.65 44.35 -13.65 55.25 -2.15 -56.25 -2.15 M4.5 94.0 L4.6 93.5 7.1 93.5 7.25 91.1 -8.4 91.1 -8.15 93.5 -5.65 93.6 -5.5 124.35 -26.0 124.35 -26.0 122.1 -28.4 122.1 -28.25 135.6 -28.0 136.0 -25.75 136.0 -25.65 133.75 -5.5 133.75 -5.25 185.0 -5.5 185.5 -7.9 185.6 -8.0 187.6 6.6 187.6 6.75 185.5 4.35 185.35 4.35 133.85 24.75 133.75 24.75 136.0 27.1 135.85 27.35 122.1 25.0 122.1 25.0 124.1 24.6 124.35 4.5 124.35 4.5 94.0" fill="#2e2724" fill-rule="evenodd" stroke="none"/>
    <path d="M55.6 -1.75 L-56.65 -1.75 -56.25 -2.15 55.25 -2.15 55.6 -1.75" fill="#090908" fill-rule="evenodd" stroke="none"/>
    <path d="M50.35 11.25 L-51.5 11.25 -58.25 0.25 57.25 0.0 50.35 11.25" fill="#3f3532" fill-rule="evenodd" stroke="none"/>
    <path d="M-51.5 11.25 L-80.5 115.35 -82.15 120.1 -90.15 116.35 -58.25 0.25 -51.5 11.25 M-77.9 122.1 L-48.0 16.85 -30.0 46.35 -55.65 132.6 -77.9 122.1" fill="#433936" fill-rule="evenodd" stroke="none"/>
    <path d="M-51.5 11.25 L-48.0 16.85 -77.9 122.1 -79.25 121.5 -79.5 121.35 -79.75 121.25 -80.0 121.1 -80.25 121.0 -80.5 120.85 -80.75 120.75 -81.0 120.6 -81.25 120.5 -81.5 120.35 -82.15 120.1 -80.5 115.35 -51.5 11.25" fill="#bcb7b5" fill-rule="evenodd" stroke="none"/>
    <path d="M-90.15 116.35 L-82.15 120.1 -79.25 141.75 -79.15 142.1 -79.15 142.75 -79.0 143.1 -79.0 143.6 -78.9 144.1 -78.9 144.5 -78.75 145.1 -78.75 145.5 -78.4 148.1 -78.4 148.25 -74.1 181.15 -61.4 286.75 -69.0 281.5 -88.25 130.25 -88.25 130.1 -88.4 129.5 -88.5 128.6 -88.5 128.25 -88.65 127.75 -90.15 116.35 M-57.5 289.5 L-77.0 127.6 -77.0 127.5 -77.15 126.85 -77.75 122.35 -77.9 122.1 -55.65 132.6 -37.5 303.75 -57.5 289.5" fill="#3c3330" fill-rule="evenodd" stroke="none"/>
    <path d="M-48.0 16.85 L-51.5 11.25 50.35 11.25 47.0 16.85 -48.0 16.85" fill="#aca7a6" fill-rule="evenodd" stroke="none"/>
    <path d="M50.35 11.25 L57.25 0.0 89.25 116.25 80.85 120.25 50.35 11.25 M76.75 122.0 L76.6 122.25 72.5 124.25 71.6 124.6 Q63.0 128.7 54.35 132.75 L28.85 46.35 47.0 16.85 76.75 122.0" fill="#181513" fill-rule="evenodd" stroke="none"/>
    <path d="M89.25 116.25 L89.0 117.35 89.0 118.0 88.85 118.35 88.85 118.85 88.75 119.35 88.75 119.75 88.5 121.25 88.5 121.35 63.75 284.35 60.35 286.75 76.1 160.5 77.35 148.25 77.35 148.1 77.75 145.5 77.75 145.1 77.85 144.5 77.85 144.1 78.0 143.6 78.0 143.1 78.1 142.75 78.1 142.1 78.25 141.75 80.85 120.25 89.25 116.25" fill="#100d0c" fill-rule="evenodd" stroke="none"/>
    <path d="M47.0 16.85 L50.35 11.25 80.85 120.25 80.5 120.35 80.25 120.5 80.0 120.6 79.75 120.75 79.5 120.85 79.25 121.0 79.0 121.1 78.75 121.25 78.5 121.35 78.25 121.5 76.75 122.0 47.0 16.85" fill="#444242" fill-rule="evenodd" stroke="none"/>
    <path d="M-48.0 16.85 L47.0 16.85 28.85 46.35 -30.0 46.35 -48.0 16.85" fill="#3e3531" fill-rule="evenodd" stroke="none"/>
    <path d="M88.5 121.35 L68.25 280.0 Q69.0 281.6 63.75 284.35 L88.5 121.35 M56.5 289.5 L44.5 298.25 76.0 127.6 56.5 289.5" fill="#0f0d0c" fill-rule="evenodd" stroke="none"/>
    <path d="M-82.15 120.1 L-81.5 120.35 -81.25 120.5 -81.0 120.6 -80.75 120.75 -80.5 120.85 -80.25 121.0 -80.0 121.1 -79.75 121.25 -79.5 121.35 -79.25 121.5 -77.9 122.1 -77.75 122.35 -77.15 126.85 -77.0 127.5 -77.0 127.6 -57.5 289.5 -59.25 288.25 -60.15 279.6 -74.1 181.15 -78.4 148.25 -78.4 148.1 -78.75 145.5 -78.75 145.1 -78.9 144.5 -78.9 144.1 -79.0 143.6 -79.0 143.1 -79.15 142.75 -79.15 142.1 -79.25 141.75 -82.15 120.1" fill="#a8a3a2" fill-rule="evenodd" stroke="none"/>
    <path d="M-74.1 181.15 L-60.15 279.6 -59.25 288.25 -61.4 286.75 -74.1 181.15" fill="#a9a4a2" fill-rule="evenodd" stroke="none"/>
    <path d="M58.1 288.35 L56.5 289.5 76.0 127.6 76.0 127.5 76.75 122.35 76.6 122.25 76.75 122.0 78.25 121.5 78.5 121.35 78.75 121.25 79.0 121.1 79.25 121.0 79.5 120.85 79.75 120.75 80.0 120.6 80.25 120.5 80.5 120.35 80.85 120.25 78.25 141.75 78.1 142.1 78.1 142.75 78.0 143.1 78.0 143.6 77.85 144.1 77.85 144.5 77.75 145.1 77.75 145.5 77.35 148.1 77.35 148.25 58.1 288.35" fill="#2c2b2a" fill-rule="evenodd" stroke="none"/>
    <path d="M44.5 298.25 L36.25 304.0 54.35 132.75 Q63.0 128.7 71.6 124.6 L72.5 124.25 76.6 122.25 76.75 122.35 76.0 127.5 76.0 127.6 44.5 298.25" fill="#100d0d" fill-rule="evenodd" stroke="none"/>
    <path d="M60.35 286.75 L58.1 288.35 77.35 148.25 76.1 160.5 60.35 286.75" fill="#2a2828" fill-rule="evenodd" stroke="none"/>
    <path d="M4.5 94.0 L4.5 124.35 24.6 124.35 25.0 124.1 25.0 122.1 27.35 122.1 27.1 135.85 24.75 136.0 24.75 133.75 4.35 133.85 4.35 185.35 6.75 185.5 6.6 187.6 -8.0 187.6 -7.9 185.6 -5.5 185.5 -5.25 185.0 -5.5 133.75 -25.65 133.75 -25.75 136.0 -28.0 136.0 -28.25 135.6 -28.4 122.1 -26.0 122.1 -26.0 124.35 -5.5 124.35 -5.65 93.6 -8.15 93.5 -8.4 91.1 7.25 91.1 7.1 93.5 4.6 93.5 4.5 94.0" fill="#807d7b" fill-rule="evenodd" stroke="none"/>
    <path d="M55.25 -2.15 L55.6 -1.75 57.25 0.0 89.25 116.25 89.0 117.35 89.0 118.0 88.85 118.35 88.85 118.85 88.75 119.35 88.75 119.75 88.5 121.25 88.5 121.35 68.25 280.0 Q69.0 281.6 63.75 284.35 L60.35 286.75 56.5 289.5 36.25 304.0 -37.15 304.1 -37.5 303.75 -57.5 289.5 -61.4 286.75 -69.0 281.5 -88.25 130.25 -88.25 130.1 -88.4 129.5 -88.5 128.6 -88.5 128.25 -88.65 127.75 -90.15 116.35 -58.25 0.25 -56.65 -1.75 -56.25 -2.15 -45.4 -13.65 44.35 -13.65 55.25 -2.15 -56.25 -2.15 M-90.15 116.35 L-82.15 120.1 -80.5 115.35 -51.5 11.25 50.35 11.25 57.25 0.0 -58.25 0.25 M-82.15 120.1 L-81.5 120.35 -81.25 120.5 -81.0 120.6 -80.75 120.75 -80.5 120.85 -80.25 121.0 -80.0 121.1 -79.75 121.25 -79.5 121.35 -79.25 121.5 -77.9 122.1 -48.0 16.85 47.0 16.85 50.35 11.25 80.85 120.25 89.25 116.25 M4.5 94.0 L4.5 124.35 24.6 124.35 25.0 124.1 25.0 122.1 27.35 122.1 27.1 135.85 24.75 136.0 24.75 133.75 4.35 133.85 4.35 185.35 6.75 185.5 6.6 187.6 -8.0 187.6 -7.9 185.6 -5.5 185.5 -5.25 185.0 -5.5 133.75 -25.65 133.75 -25.75 136.0 -28.0 136.0 -28.25 135.6 -28.4 122.1 -26.0 122.1 -26.0 124.35 -5.5 124.35 -5.65 93.6 -8.15 93.5 -8.4 91.1 7.25 91.1 7.1 93.5 4.6 93.5 4.5 94.0 M28.85 46.35 L54.35 132.75 Q63.0 128.7 71.6 124.6 L72.5 124.25 75.85 122.6 76.6 122.25 76.75 122.0 47.0 16.85 28.85 46.35 -30.0 46.35 -55.65 132.6 -37.5 303.75 M76.75 122.0 L78.0 121.6 78.25 121.5 78.5 121.35 78.75 121.25 79.0 121.1 79.25 121.0 79.5 120.85 79.75 120.75 80.0 120.6 80.25 120.5 80.5 120.35 80.85 120.25 78.25 141.75 78.1 142.1 78.1 142.75 78.0 143.1 78.0 143.6 77.85 144.1 77.85 144.5 77.75 145.1 77.75 145.5 77.35 148.1 77.35 148.25 76.1 160.5 60.35 286.75 M78.0 121.6 L76.6 122.25 76.75 122.35 76.0 127.5 76.0 127.6 56.5 289.5 M76.75 122.35 L75.85 122.6 M36.25 304.0 L54.35 132.75 M-76.9 122.6 L-77.9 122.1 -77.75 122.35 -76.9 122.6 -55.65 132.6 M-77.75 122.35 L-77.15 126.85 -77.0 127.5 -77.0 127.6 -57.5 289.5 M-61.4 286.75 L-74.1 181.15 -78.4 148.25 -78.4 148.1 -78.75 145.5 -78.75 145.1 -78.9 144.5 -78.9 144.1 -79.0 143.6 -79.0 143.1 -79.15 142.75 -79.15 142.1 -79.25 141.75 -82.15 120.1 M-56.65 -1.75 L55.6 -1.75" fill="none" stroke="#000000" stroke-linecap="round" stroke-linejoin="round" stroke-width="0.7000000000000001"/>
  </g>
</svg>
