<?xml version="1.0" encoding="UTF-8" standalone="no"?>
<svg xmlns:xlink="http://www.w3.org/1999/xlink" height="69.05px" width="80.6px" xmlns="http://www.w3.org/2000/svg">
  <g transform="matrix(1.0, 0.0, 0.0, 1.0, 40.25, 34.55)">
    <path d="M34.75 -33.15 L34.7 -33.15 Q42.5 -29.0 39.5 -16.35 38.75 -13.1 34.55 -8.0 L31.45 -4.7 Q34.15 -0.95 35.5 3.4 L35.5 3.45 Q37.85 11.2 35.25 17.0 31.65 25.4 21.65 30.15 12.45 34.5 0.0 34.5 -12.45 34.5 -21.65 30.2 L-21.65 30.15 Q-31.7 25.4 -35.3 17.0 -37.9 11.2 -35.55 3.45 L-35.55 3.4 Q-34.2 -1.0 -31.45 -4.75 -32.9 -6.1 -34.45 -8.0 -38.7 -13.1 -39.4 -16.4 -42.45 -29.05 -34.65 -33.2 -31.25 -35.25 -27.35 -34.15 L-27.4 -34.15 Q-23.55 -33.2 -20.95 -29.4 -16.95 -23.7 -16.25 -16.75 L-13.45 -17.95 Q-6.8 -20.4 -0.05 -20.5 L0.05 -20.5 Q6.8 -20.4 13.5 -17.95 L13.5 -17.9 16.3 -16.75 Q16.95 -23.65 21.0 -29.35 23.6 -33.15 27.45 -34.1 31.3 -35.2 34.75 -33.15" fill="#000000" fill-rule="evenodd" stroke="none"/>
    <path d="M12.6 -15.6 Q18.75 -13.25 23.95 -9.0 30.75 -3.45 33.1 4.15 35.15 10.95 32.95 16.0 29.65 23.6 20.55 27.9 11.85 32.0 0.0 32.0 -11.85 32.0 -20.6 27.9 -29.7 23.6 -33.0 16.0 -35.2 10.95 -33.15 4.15 -30.8 -3.45 -24.0 -9.0 -18.8 -13.25 -12.6 -15.6 -6.35 -17.9 0.0 -18.0 6.35 -17.9 12.6 -15.6" fill="url(#gradient0)" fill-rule="evenodd" stroke="none"/>
    <path d="M-23.0 -28.0 Q-17.35 -19.85 -19.0 -9.0 -19.35 -6.85 -21.9 -5.1 -24.4 -3.4 -26.0 -4.0 -28.75 -5.05 -32.55 -9.6 -36.3 -14.1 -37.0 -17.0 -39.5 -27.5 -33.4 -31.05 -30.9 -32.55 -28.05 -31.75 -25.05 -30.95 -23.0 -28.0" fill="url(#gradient1)" fill-rule="evenodd" stroke="none"/>
    <path d="M28.1 -31.7 Q30.95 -32.5 33.45 -31.0 39.55 -27.45 37.05 -16.95 36.35 -14.1 32.6 -9.6 28.8 -5.05 26.05 -4.0 24.45 -3.4 21.95 -5.1 19.4 -6.85 19.05 -9.0 17.35 -19.8 23.05 -27.95 25.1 -30.9 28.1 -31.7" fill="url(#gradient2)" fill-rule="evenodd" stroke="none"/>
    <path d="M13.8 -0.7 Q15.55 -2.6 18.25 -2.6 20.95 -2.5 23.15 -0.55 25.35 1.35 25.75 4.0 26.1 6.7 24.4 8.6 22.75 10.45 20.0 10.4 17.3 10.35 15.1 8.35 12.9 6.45 12.55 3.85 12.15 1.1 13.8 -0.7" fill="url(#gradient3)" fill-rule="evenodd" stroke="none"/>
    <path d="M-13.8 -0.7 Q-12.15 1.1 -12.55 3.85 -12.9 6.45 -15.1 8.35 -17.3 10.35 -20.0 10.4 -22.75 10.45 -24.4 8.6 -26.1 6.7 -25.75 4.0 -25.35 1.35 -23.15 -0.55 -20.95 -2.5 -18.25 -2.6 -15.55 -2.6 -13.8 -0.7" fill="url(#gradient4)" fill-rule="evenodd" stroke="none"/>
    <path d="M-15.0 22.0 Q-11.35 26.15 -0.05 26.15 11.3 26.15 15.0 22.0" fill="none" stroke="url(#gradient5)" stroke-linecap="round" stroke-linejoin="round" stroke-width="2.5"/>
  </g>
  <defs>
    <radialGradient cx="0" cy="0" gradientTransform="matrix(-3.0E-4, -0.0485, 0.0535, -3.0E-4, 0.0, -8.0)" gradientUnits="userSpaceOnUse" id="gradient0" r="819.2" spreadMethod="pad">
      <stop offset="0.0784313725490196" stop-color="#ffebe1"/>
      <stop offset="0.11764705882352941" stop-color="#fdd3b9"/>
      <stop offset="0.23529411764705882" stop-color="#fab78b"/>
      <stop offset="0.4627450980392157" stop-color="#f59465"/>
      <stop offset="0.7333333333333333" stop-color="#c96f52"/>
      <stop offset="0.9372549019607843" stop-color="#83422e"/>
      <stop offset="0.9764705882352941" stop-color="#ac6060"/>
    </radialGradient>
    <radialGradient cx="0" cy="0" fx="243.20000000000002" fy="0" gradientTransform="matrix(-0.0076, -0.0203, 0.0116, -0.0043, -29.2, -21.25)" gradientUnits="userSpaceOnUse" id="gradient1" r="819.2" spreadMethod="pad">
      <stop offset="0.14901960784313725" stop-color="#fee7dc"/>
      <stop offset="0.21568627450980393" stop-color="#fabba7"/>
      <stop offset="0.4117647058823529" stop-color="#e1886a"/>
      <stop offset="0.8274509803921568" stop-color="#9d533b"/>
      <stop offset="0.9921568627450981" stop-color="#b86449"/>
    </radialGradient>
    <radialGradient cx="0" cy="0" fx="243.20000000000002" fy="0" gradientTransform="matrix(0.0077, -0.0203, -0.0116, -0.0043, 29.25, -21.2)" gradientUnits="userSpaceOnUse" id="gradient2" r="819.2" spreadMethod="pad">
      <stop offset="0.14901960784313725" stop-color="#fee7dc"/>
      <stop offset="0.21568627450980393" stop-color="#fabba7"/>
      <stop offset="0.4117647058823529" stop-color="#e1886a"/>
      <stop offset="0.8274509803921568" stop-color="#9d533b"/>
      <stop offset="0.9921568627450981" stop-color="#b86449"/>
    </radialGradient>
    <radialGradient cx="0" cy="0" fx="240.0" fy="0" gradientTransform="matrix(0.0038, 0.0096, -0.0098, 0.0038, 20.4, 5.45)" gradientUnits="userSpaceOnUse" id="gradient3" r="819.2" spreadMethod="pad">
      <stop offset="0.06666666666666667" stop-color="#fcd2b8"/>
      <stop offset="0.1568627450980392" stop-color="#f9b285"/>
      <stop offset="0.6039215686274509" stop-color="#d27756"/>
      <stop offset="0.9215686274509803" stop-color="#a5563d"/>
    </radialGradient>
    <radialGradient cx="0" cy="0" fx="240.0" fy="0" gradientTransform="matrix(-0.0038, 0.0096, 0.0098, 0.0038, -20.4, 5.45)" gradientUnits="userSpaceOnUse" id="gradient4" r="819.2" spreadMethod="pad">
      <stop offset="0.06666666666666667" stop-color="#fcd2b8"/>
      <stop offset="0.1568627450980392" stop-color="#f9b285"/>
      <stop offset="0.6039215686274509" stop-color="#d27756"/>
      <stop offset="0.9176470588235294" stop-color="#a5563d"/>
    </radialGradient>
    <radialGradient cx="0" cy="0" gradientTransform="matrix(0.0269, 0.0, 0.0, 0.0114, 0.0, 28.0)" gradientUnits="userSpaceOnUse" id="gradient5" r="819.2" spreadMethod="pad">
      <stop offset="0.0" stop-color="#ffebe1"/>
      <stop offset="0.13725490196078433" stop-color="#fabe97"/>
      <stop offset="0.2627450980392157" stop-color="#f7a77a"/>
      <stop offset="1.0" stop-color="#712f2b"/>
    </radialGradient>
  </defs>
</svg>
