<?xml version="1.0" encoding="UTF-8" standalone="no"?>
<svg xmlns:xlink="http://www.w3.org/1999/xlink" height="102.0px" width="87.0px" xmlns="http://www.w3.org/2000/svg">
  <g transform="matrix(1.0, 0.0, 0.0, 1.0, 43.5, 49.5)">
    <path d="M39.5 -32.0 Q39.5 -30.95 38.8 -30.2 38.2 -29.7 37.5 -29.55 L37.5 -21.9 42.9 -15.6 Q43.5 -14.9 43.5 -14.0 L43.5 50.0 Q43.5 51.05 42.8 51.8 42.05 52.5 41.0 52.5 L-41.0 52.5 Q-42.05 52.5 -42.75 51.8 -43.5 51.05 -43.5 50.0 L-43.5 -14.0 Q-43.5 -14.9 -42.9 -15.6 L-37.5 -21.9 -37.5 -29.55 Q-38.2 -29.7 -38.75 -30.2 -39.5 -30.95 -39.5 -32.0 L-39.5 -36.0 Q-39.5 -36.85 -39.0 -37.5 -39.5 -38.15 -39.5 -39.0 L-39.5 -47.0 Q-39.5 -48.05 -38.75 -48.75 -38.05 -49.5 -37.0 -49.5 L37.0 -49.5 Q38.05 -49.5 38.8 -48.75 39.5 -48.05 39.5 -47.0 L39.5 -39.0 Q39.5 -38.15 39.05 -37.5 39.5 -36.85 39.5 -36.0 L39.5 -32.0" fill="#000000" fill-rule="evenodd" stroke="none"/>
    <path d="M-36.0 -14.0 L-30.0 -21.0 -14.0 -21.0 -17.0 -14.0 -36.0 -14.0" fill="#cbcad0" fill-rule="evenodd" stroke="none"/>
    <path d="M30.0 -21.0 L36.0 -14.0 17.0 -14.0 14.0 -21.0 30.0 -21.0" fill="#d3d2d7" fill-rule="evenodd" stroke="none"/>
    <path d="M14.0 -21.0 L14.0 -32.0 30.0 -32.0 30.0 -21.0 14.0 -21.0" fill="url(#gradient0)" fill-rule="evenodd" stroke="none"/>
    <path d="M-14.0 -32.0 L-14.0 -21.0 -30.0 -21.0 -30.0 -32.0 -14.0 -32.0" fill="url(#gradient1)" fill-rule="evenodd" stroke="none"/>
    <path d="M-17.0 41.0 L-36.0 41.0 -36.0 -14.0 -17.0 -14.0 -17.0 41.0" fill="url(#gradient2)" fill-rule="evenodd" stroke="none"/>
    <path d="M36.0 -14.0 L36.0 -12.0 36.0 41.0 18.0 41.0 17.0 -14.0 36.0 -14.0" fill="url(#gradient3)" fill-rule="evenodd" stroke="none"/>
    <path d="M18.0 41.0 L17.0 41.0 16.0 41.0 -16.0 41.0 -17.0 41.0 -17.0 -14.0 17.0 -14.0 18.0 41.0" fill="url(#gradient4)" fill-rule="evenodd" stroke="none"/>
    <path d="M-14.0 -32.0 L-13.0 -32.0 13.0 -32.0 14.0 -32.0 14.0 -21.0 -14.0 -21.0 -14.0 -32.0" fill="url(#gradient5)" fill-rule="evenodd" stroke="none"/>
    <path d="M-14.0 -21.0 L14.0 -21.0 17.0 -14.0 -17.0 -14.0 -14.0 -21.0" fill="url(#gradient6)" fill-rule="evenodd" stroke="none"/>
    <path d="M17.0 50.0 L-17.0 50.0 -17.0 41.0 -16.0 41.0 16.0 41.0 17.0 41.0 17.0 50.0" fill="url(#gradient7)" fill-rule="evenodd" stroke="none"/>
    <path d="M17.0 41.0 L18.0 41.0 36.0 41.0 36.0 -12.0 30.0 -19.0 30.0 -32.0 35.0 -32.0 35.0 -21.0 41.0 -14.0 41.0 50.0 17.0 50.0 17.0 41.0" fill="url(#gradient8)" fill-rule="evenodd" stroke="none"/>
    <path d="M-17.0 50.0 L-41.0 50.0 -41.0 -14.0 -35.0 -21.0 -35.0 -32.0 -30.0 -32.0 -30.0 -19.0 -36.0 -12.0 -36.0 41.0 -17.0 41.0 -17.0 50.0" fill="url(#gradient9)" fill-rule="evenodd" stroke="none"/>
  </g>
  <defs>
    <linearGradient gradientTransform="matrix(1.0E-4, -0.0104, 0.0079, 1.0E-4, 21.5, -27.5)" gradientUnits="userSpaceOnUse" id="gradient0" spreadMethod="pad" x1="-819.2" x2="819.2">
      <stop offset="0.30980392156862746" stop-color="#aca9b1"/>
      <stop offset="0.5254901960784314" stop-color="#aca9b1"/>
    </linearGradient>
    <linearGradient gradientTransform="matrix(0.0, -0.0104, 0.0079, 0.0, -21.5, -27.5)" gradientUnits="userSpaceOnUse" id="gradient1" spreadMethod="pad" x1="-819.2" x2="819.2">
      <stop offset="0.3176470588235294" stop-color="#aca9b1"/>
      <stop offset="0.5254901960784314" stop-color="#aca9b1"/>
    </linearGradient>
    <linearGradient gradientTransform="matrix(0.0, -0.0333, 0.0336, 0.0, -27.0, 13.5)" gradientUnits="userSpaceOnUse" id="gradient2" spreadMethod="pad" x1="-819.2" x2="819.2">
      <stop offset="0.0" stop-color="#535258"/>
      <stop offset="0.7529411764705882" stop-color="#99979f"/>
    </linearGradient>
    <linearGradient gradientTransform="matrix(-5.0E-4, -0.0334, 0.0336, -5.0E-4, 27.0, 13.5)" gradientUnits="userSpaceOnUse" id="gradient3" spreadMethod="pad" x1="-819.2" x2="819.2">
      <stop offset="0.0" stop-color="#585760"/>
      <stop offset="0.7529411764705882" stop-color="#99979f"/>
    </linearGradient>
    <linearGradient gradientTransform="matrix(0.0, -0.0336, 0.0336, 0.0, 0.0, 13.5)" gradientUnits="userSpaceOnUse" id="gradient4" spreadMethod="pad" x1="-819.2" x2="819.2">
      <stop offset="0.011764705882352941" stop-color="#7e7887"/>
      <stop offset="0.9490196078431372" stop-color="#a3a3a9"/>
    </linearGradient>
    <linearGradient gradientTransform="matrix(0.0, -0.0159, 0.0079, 0.0, 0.0, -27.5)" gradientUnits="userSpaceOnUse" id="gradient5" spreadMethod="pad" x1="-819.2" x2="819.2">
      <stop offset="0.7529411764705882" stop-color="#c1bec7"/>
      <stop offset="0.9490196078431372" stop-color="#d8d5db"/>
    </linearGradient>
    <linearGradient gradientTransform="matrix(0.0, -0.0159, 0.0079, 0.0, 0.0, -27.5)" gradientUnits="userSpaceOnUse" id="gradient6" spreadMethod="pad" x1="-819.2" x2="819.2">
      <stop offset="0.21568627450980393" stop-color="#ffffff"/>
      <stop offset="0.4470588235294118" stop-color="#ffffff"/>
    </linearGradient>
    <linearGradient gradientTransform="matrix(0.022, 0.0, 0.0, 0.0055, 0.0, 45.5)" gradientUnits="userSpaceOnUse" id="gradient7" spreadMethod="pad" x1="-819.2" x2="819.2">
      <stop offset="0.0" stop-color="#d8d5db"/>
      <stop offset="1.0" stop-color="#d8d5db"/>
    </linearGradient>
    <linearGradient gradientTransform="matrix(6.0E-4, -0.0611, 0.0391, 4.0E-4, 31.75, 0.0)" gradientUnits="userSpaceOnUse" id="gradient8" spreadMethod="pad" x1="-819.2" x2="819.2">
      <stop offset="0.0" stop-color="#b7afc0"/>
      <stop offset="0.24313725490196078" stop-color="#898ca0"/>
      <stop offset="0.5333333333333333" stop-color="#a8aab9"/>
      <stop offset="0.7333333333333333" stop-color="#c5c1ca"/>
    </linearGradient>
    <linearGradient gradientTransform="matrix(0.0, -0.0665, 0.0391, 0.0, -32.0, -4.25)" gradientUnits="userSpaceOnUse" id="gradient9" spreadMethod="pad" x1="-819.2" x2="819.2">
      <stop offset="0.0" stop-color="#958ca4"/>
      <stop offset="0.24313725490196078" stop-color="#777c8e"/>
      <stop offset="0.5333333333333333" stop-color="#9a9dab"/>
      <stop offset="0.7254901960784313" stop-color="#b8b4bc"/>
    </linearGradient>
  </defs>
</svg>
