<?xml version="1.0" encoding="UTF-8" standalone="no"?>
<svg xmlns:xlink="http://www.w3.org/1999/xlink" height="76.0px" width="154.0px" xmlns="http://www.w3.org/2000/svg">
  <g transform="matrix(1.0, 0.0, 0.0, 1.0, 3.0, 15.0)">
    <path d="M56.0 -12.0 L56.0 -3.0 148.0 -3.0 Q151.0 -3.0 151.0 0.0 L151.0 58.0 Q151.0 61.0 148.0 61.0 L0.0 61.0 Q-3.0 61.0 -3.0 58.0 L-3.0 -12.0 Q-3.0 -15.0 0.0 -15.0 L53.0 -15.0 Q56.0 -15.0 56.0 -12.0 M146.0 1.0 L2.0 1.0 Q1.0 1.0 1.0 2.0 L1.0 56.0 Q1.0 57.0 2.0 57.0 L146.0 57.0 Q147.0 57.0 147.0 56.0 L147.0 2.0 Q147.0 1.0 146.0 1.0" fill="#000000" fill-rule="evenodd" stroke="none"/>
    <path d="M55.0 -12.0 L55.0 -2.0 148.0 -2.0 Q150.0 -2.0 150.0 0.0 L150.0 58.0 Q150.0 60.0 148.0 60.0 L0.0 60.0 Q-2.0 60.0 -2.0 58.0 L-2.0 -12.0 Q-2.0 -14.0 0.0 -14.0 L53.0 -14.0 Q55.0 -14.0 55.0 -12.0 M148.0 2.0 Q148.0 0.0 146.0 0.0 L2.0 0.0 Q0.0 0.0 0.0 2.0 L0.0 56.0 Q0.0 58.0 2.0 58.0 L146.0 58.0 Q148.0 58.0 148.0 56.0 L148.0 2.0" fill="#00ff00" fill-rule="evenodd" stroke="none"/>
  </g>
</svg>
