<?xml version="1.0" encoding="UTF-8" standalone="no"?>
<svg xmlns:xlink="http://www.w3.org/1999/xlink" height="85.0px" width="474.45px" xmlns="http://www.w3.org/2000/svg">
  <g transform="matrix(1.0, 0.0, 0.0, 1.0, 471.45, 0.0)">
    <path d="M3.0 28.0 L-40.0 28.0 -41.0 29.0 -41.0 77.0 -38.0 77.0 -37.65 77.35 -45.0 85.0 -52.45 77.35 -52.0 77.0 -49.0 77.0 -49.0 29.0 -50.0 28.0 -144.0 28.0 -145.0 29.0 -145.0 77.0 -142.0 77.0 -141.65 77.35 -149.0 85.0 -156.45 77.35 -156.0 77.0 -153.0 77.0 -153.0 29.0 -154.0 28.0 -248.0 28.0 -249.0 29.0 -249.0 77.0 -246.0 77.0 -245.65 77.35 -253.0 85.0 -260.45 77.35 -260.0 77.0 -257.0 77.0 -257.0 29.0 -258.0 28.0 -352.0 28.0 -353.0 29.0 -353.0 77.0 -350.0 77.0 -349.65 77.35 -357.0 85.0 -364.45 77.35 -364.0 77.0 -361.0 77.0 -361.0 29.0 -362.0 28.0 -456.0 28.0 -457.0 29.0 -457.0 77.0 -454.0 77.0 -453.65 77.35 -461.0 85.0 -468.45 77.35 -468.0 77.0 -465.0 77.0 -465.0 6.0 Q-465.0 4.0 -463.0 4.0 L3.0 4.0 3.0 28.0" fill="#232323" fill-rule="evenodd" stroke="none"/>
    <path d="M0.0 24.0 L-43.0 24.0 -44.0 25.0 -44.0 73.0 -41.0 73.0 -40.65 73.35 -48.0 81.0 -55.45 73.35 -55.0 73.0 -52.0 73.0 -52.0 25.0 -53.0 24.0 -147.0 24.0 -148.0 25.0 -148.0 73.0 -145.0 73.0 -144.65 73.35 -152.0 81.0 -159.45 73.35 -159.0 73.0 -156.0 73.0 -156.0 25.0 -157.0 24.0 -251.0 24.0 -252.0 25.0 -252.0 73.0 -249.0 73.0 -248.65 73.35 -256.0 81.0 -263.45 73.35 -263.0 73.0 -260.0 73.0 -260.0 25.0 -261.0 24.0 -355.0 24.0 -356.0 25.0 -356.0 73.0 -353.0 73.0 -352.65 73.35 -360.0 81.0 -367.45 73.35 -367.0 73.0 -364.0 73.0 -364.0 25.0 -365.0 24.0 -459.0 24.0 -460.0 25.0 -460.0 73.0 -457.0 73.0 -456.65 73.35 -464.0 81.0 -471.45 73.35 -471.0 73.0 -468.0 73.0 -468.0 2.0 Q-468.0 0.0 -466.0 0.0 L0.0 0.0 0.0 24.0" fill="url(#gradient0)" fill-rule="evenodd" stroke="none"/>
  </g>
  <defs>
    <linearGradient gradientTransform="matrix(0.0, 0.069, -0.069, 0.0, -311.75, 56.5)" gradientUnits="userSpaceOnUse" id="gradient0" spreadMethod="pad" x1="-819.2" x2="819.2">
      <stop offset="0.0" stop-color="#f70f0f"/>
      <stop offset="1.0" stop-color="#8f0505"/>
    </linearGradient>
  </defs>
</svg>
