<?xml version="1.0" encoding="UTF-8" standalone="no"?>
<svg xmlns:xlink="http://www.w3.org/1999/xlink" height="118.0px" width="299.0px" xmlns="http://www.w3.org/2000/svg">
  <g transform="matrix(1.0, 0.0, 0.0, 1.0, 3.0, 15.0)">
    <path d="M56.0 -12.0 L56.0 -3.0 293.0 -3.0 Q296.0 -3.0 296.0 0.0 L296.0 100.0 Q296.0 103.0 293.0 103.0 L0.0 103.0 Q-3.0 103.0 -3.0 100.0 L-3.0 -12.0 Q-3.0 -15.0 0.0 -15.0 L53.0 -15.0 Q56.0 -15.0 56.0 -12.0 M291.0 1.0 L2.0 1.0 Q1.0 1.0 1.0 2.0 L1.0 98.0 Q1.0 99.0 2.0 99.0 L291.0 99.0 Q292.0 99.0 292.0 98.0 L292.0 2.0 Q292.0 1.0 291.0 1.0" fill="#000000" fill-rule="evenodd" stroke="none"/>
    <path d="M293.0 2.0 Q293.0 0.0 291.0 0.0 L2.0 0.0 Q0.0 0.0 0.0 2.0 L0.0 98.0 Q0.0 100.0 2.0 100.0 L291.0 100.0 Q293.0 100.0 293.0 98.0 L293.0 2.0 M55.0 -12.0 L55.0 -2.0 293.0 -2.0 Q295.0 -2.0 295.0 0.0 L295.0 100.0 Q295.0 102.0 293.0 102.0 L0.0 102.0 Q-2.0 102.0 -2.0 100.0 L-2.0 -12.0 Q-2.0 -14.0 0.0 -14.0 L53.0 -14.0 Q55.0 -14.0 55.0 -12.0" fill="#00ff00" fill-rule="evenodd" stroke="none"/>
  </g>
</svg>
