<?xml version="1.0" encoding="UTF-8" standalone="no"?>
<svg xmlns:xlink="http://www.w3.org/1999/xlink" height="68.0px" width="112.0px" xmlns="http://www.w3.org/2000/svg">
  <g transform="matrix(1.0, 0.0, 0.0, 1.0, 3.0, 15.0)">
    <path d="M56.0 -12.0 L56.0 -3.0 106.0 -3.0 Q109.0 -3.0 109.0 0.0 L109.0 50.0 Q109.0 53.0 106.0 53.0 L0.0 53.0 Q-3.0 53.0 -3.0 50.0 L-3.0 -12.0 Q-3.0 -15.0 0.0 -15.0 L53.0 -15.0 Q56.0 -15.0 56.0 -12.0 M104.0 1.0 L2.0 1.0 Q1.0 1.0 1.0 2.0 L1.0 48.0 Q1.0 49.0 2.0 49.0 L104.0 49.0 Q105.0 49.0 105.0 48.0 L105.0 2.0 Q105.0 1.0 104.0 1.0" fill="#000000" fill-rule="evenodd" stroke="none"/>
    <path d="M55.0 -12.0 L55.0 -2.0 106.0 -2.0 Q108.0 -2.0 108.0 0.0 L108.0 50.0 Q108.0 52.0 106.0 52.0 L0.0 52.0 Q-2.0 52.0 -2.0 50.0 L-2.0 -12.0 Q-2.0 -14.0 0.0 -14.0 L53.0 -14.0 Q55.0 -14.0 55.0 -12.0 M106.0 2.0 Q106.0 0.0 104.0 0.0 L2.0 0.0 Q0.0 0.0 0.0 2.0 L0.0 48.0 Q0.0 50.0 2.0 50.0 L104.0 50.0 Q106.0 50.0 106.0 48.0 L106.0 2.0" fill="#00ff00" fill-rule="evenodd" stroke="none"/>
  </g>
</svg>
