<?xml version="1.0" encoding="UTF-8" standalone="no"?>
<svg xmlns:xlink="http://www.w3.org/1999/xlink" height="114.55px" width="345.65px" xmlns="http://www.w3.org/2000/svg">
  <g transform="matrix(1.0, 0.0, 0.0, 1.0, -7.3, -7.45)">
    <path d="M345.05 38.4 L351.9 42.4 352.95 57.35 346.7 85.45 323.9 88.75 311.7 95.0 288.2 95.2 268.4 105.8 271.0 110.0 252.1 122.0 250.85 121.8 250.6 120.3 259.3 110.55 254.15 104.5 261.15 95.6 207.65 98.2 195.05 93.95 156.8 94.1 138.0 99.0 62.7 98.7 57.45 94.75 26.0 96.8 11.05 72.8 16.5 51.15 14.8 35.7 62.6 22.1 71.05 13.85 105.05 13.75 144.35 16.1 177.3 12.65 214.95 13.8 269.95 16.65 278.5 12.45 336.15 19.65 345.05 38.4" fill="#666666" fill-rule="evenodd" stroke="none"/>
    <path d="M341.55 33.9 L348.4 37.9 349.45 52.85 343.2 80.95 320.4 84.25 308.2 90.5 284.7 90.7 264.9 101.3 267.5 105.5 248.6 117.5 247.35 117.3 247.1 115.8 255.8 106.05 250.65 100.0 257.65 91.1 204.15 93.7 191.55 89.45 153.3 89.6 134.5 94.5 59.45 94.15 54.2 90.2 22.75 92.25 7.8 68.25 13.25 46.6 11.55 31.15 59.35 17.55 67.8 9.3 101.8 9.2 141.1 11.55 174.05 8.1 211.45 9.3 266.45 12.15 275.0 7.95 332.65 15.15 341.55 33.9 Z" fill="none" stroke="#666666" stroke-linecap="round" stroke-linejoin="round" stroke-width="1.0"/>
    <path d="M348.4 37.9 L349.45 52.85 343.2 80.95 320.4 84.25 308.2 90.5 284.7 90.7 264.9 101.3 267.5 105.5 248.6 117.5 247.35 117.3 247.1 115.8 255.8 106.05 250.65 100.0 257.65 91.1 204.15 93.7 191.55 89.45 153.3 89.6 134.5 94.5 59.45 94.15 54.2 90.2 22.75 92.25 7.8 68.25 13.25 46.6 11.55 31.15 59.35 17.55 67.8 9.3 101.8 9.2 141.1 11.55 174.05 8.1 211.45 9.3 266.45 12.15 275.0 7.95 332.65 15.15 341.55 33.9 348.4 37.9" fill="#ffffff" fill-rule="evenodd" stroke="none"/>
  </g>
</svg>
