<?xml version="1.0" encoding="UTF-8" standalone="no"?>
<svg xmlns:xlink="http://www.w3.org/1999/xlink" height="109.55px" width="341.65px" xmlns="http://www.w3.org/2000/svg">
  <g transform="matrix(1.0, 0.0, 0.0, 1.0, -7.8, -7.95)">
    <path d="M348.4 37.9 L349.45 52.85 343.2 80.95 320.4 84.25 308.2 90.5 284.7 90.7 264.9 101.3 267.5 105.5 248.6 117.5 247.35 117.3 247.1 115.8 255.8 106.05 250.65 100.0 257.65 91.1 204.15 93.7 191.55 89.45 153.3 89.6 134.5 94.5 59.45 94.15 54.2 90.2 22.75 92.25 7.8 68.25 13.25 46.6 11.55 31.15 59.35 17.55 67.8 9.3 101.8 9.2 141.1 11.55 174.05 8.1 211.45 9.3 266.45 12.15 275.0 7.95 332.65 15.15 341.55 33.9 348.4 37.9" fill="#ffffff" fill-rule="evenodd" stroke="none"/>
  </g>
</svg>
