<?xml version="1.0" encoding="UTF-8" standalone="no"?>
<svg xmlns:xlink="http://www.w3.org/1999/xlink" height="131.1px" width="23.95px" xmlns="http://www.w3.org/2000/svg">
  <g transform="matrix(1.0, 0.0, 0.0, 1.0, 12.3, 66.5)">
    <path d="M3.5 -64.05 Q3.55 -62.1 7.1 -36.65 9.2 -21.1 9.6 -9.05 9.75 -3.1 9.5 2.0 L9.5 2.15 9.55 4.55 Q10.05 4.7 10.5 5.0 L11.2 5.75 Q12.15 7.5 11.2 9.25 L10.05 10.3 Q10.5 11.2 10.5 12.6 L10.5 12.75 9.5 29.15 9.5 29.2 Q8.8 39.4 7.65 45.5 6.75 50.3 5.35 54.35 L5.3 54.45 Q4.1 57.4 3.4 58.15 L3.35 58.2 2.5 59.0 Q2.5 59.85 2.0 60.5 L0.7 61.4 -0.4 61.7 -2.05 63.25 -2.05 63.3 Q-3.6 64.35 -4.55 64.45 -6.45 65.3 -9.4 61.85 -12.1 58.65 -11.45 56.6 -11.3 55.65 -10.55 55.05 L-9.4 54.1 -9.5 53.0 -9.45 52.75 -9.3 51.5 -9.25 51.1 -7.8 38.55 Q-7.0 31.2 -7.3 29.95 L-7.4 29.6 -7.9 29.2 -7.95 29.15 Q-9.65 27.35 -9.5 25.7 -9.7 24.35 -8.1 22.6 L-7.95 22.45 -7.65 22.25 -7.25 21.75 Q-6.55 21.0 -6.5 20.0 L-6.55 19.5 Q-6.7 18.8 -7.25 18.25 -7.8 17.7 -8.45 17.55 -9.4 17.35 -9.95 16.6 -10.55 15.85 -10.45 14.9 -10.2 11.45 -7.5 9.55 L-7.5 7.0 -7.7 5.45 Q-7.9 5.0 -8.25 4.8 L-9.25 4.5 Q-10.2 4.35 -10.85 3.7 -11.5 3.0 -11.5 2.05 L-12.2 -21.0 -12.2 -21.05 Q-12.45 -32.75 -11.9 -39.5 -10.4 -57.25 -0.65 -65.85 0.1 -66.5 1.1 -66.5 2.05 -66.5 2.8 -65.75 3.5 -65.05 3.5 -64.05" fill="#000000" fill-rule="evenodd" stroke="none"/>
    <path d="M0.0 59.0 L-1.9 59.4 Q-2.4 60.4 -3.55 61.25 -4.45 61.9 -5.0 62.0 -5.85 62.15 -7.6 59.95 -9.4 57.75 -8.9 56.85 L-6.0 54.0 0.0 57.0 0.0 59.0 M-6.85 56.7 L-7.2 57.0 -7.6 57.5 Q-7.7 58.1 -6.7 59.35 -5.7 60.6 -5.05 60.7 -4.4 60.8 -3.35 59.45 -5.5 58.95 -6.85 56.7" fill="url(#gradient0)" fill-rule="evenodd" stroke="none"/>
    <path d="M4.6 -36.3 Q7.75 -13.3 7.0 2.0 L7.1 5.35 Q7.4 6.65 9.0 7.0 9.3 7.5 9.0 8.0 7.4 8.5 7.2 8.9 7.0 9.2 7.0 11.0 L7.0 12.0 -5.0 12.0 -5.0 7.0 Q-5.0 2.45 -9.0 2.0 L-9.7 -21.1 Q-9.95 -32.65 -9.4 -39.3 -8.0 -55.9 1.0 -64.0 1.05 -62.0 4.6 -36.3" fill="url(#gradient1)" fill-rule="evenodd" stroke="none"/>
    <path d="M0.0 -48.0 Q-2.45 -44.1 -2.8 -29.7 -3.1 -17.75 -2.0 0.0 L-5.4 4.55 Q-6.25 2.3 -9.0 2.0 L-9.7 -21.1 Q-9.95 -32.65 -9.4 -39.3 -8.0 -55.9 1.0 -64.0 L0.0 -48.0" fill="url(#gradient2)" fill-rule="evenodd" stroke="none"/>
    <path d="M0.8 -60.8 Q-7.15 -52.4 -7.65 -32.25 -7.75 -26.5 -7.25 -13.9 -6.75 -2.7 -6.95 2.65 -7.8 2.15 -9.0 2.0 L-9.7 -21.1 Q-9.95 -32.65 -9.4 -39.3 -8.0 -55.9 1.0 -64.0 L0.8 -60.8" fill="url(#gradient3)" fill-rule="evenodd" stroke="none"/>
    <path d="M0.0 -48.0 L1.0 -64.0 Q1.05 -62.0 4.6 -36.3 6.7 -20.9 7.1 -8.95 L4.0 -10.0 2.5 -29.0 Q1.5 -39.7 0.0 -48.0" fill="url(#gradient4)" fill-rule="evenodd" stroke="none"/>
    <path d="M2.4 8.4 Q1.85 9.0 1.0 9.0 0.15 9.0 -0.45 8.4 -1.0 7.85 -1.0 7.0 -1.0 6.15 -0.45 5.55 0.15 5.0 1.0 5.0 1.85 5.0 2.4 5.55 3.0 6.15 3.0 7.0 3.0 7.85 2.4 8.4" fill="#000000" fill-rule="evenodd" stroke="none"/>
    <path d="M7.0 12.0 L-5.0 12.0 -5.0 10.0 7.0 10.0 7.0 12.0" fill="#000000" fill-opacity="0.2" fill-rule="evenodd" stroke="none"/>
    <path d="M8.0 12.6 L7.0 29.0 Q6.3 39.05 5.2 45.05 4.35 49.65 3.0 53.5 L1.5 56.5 Q0.2 58.0 -2.0 58.0 -4.05 58.0 -5.55 56.5 -7.0 55.05 -7.0 53.0 L-5.65 41.35 Q-4.45 30.4 -5.0 29.0 -5.15 28.4 -6.15 27.4 -7.0 26.5 -7.0 25.7 -7.0 24.8 -5.45 23.4 -4.0 22.05 -4.1 19.7 -4.2 17.65 -6.0 16.65 -7.9 15.6 -7.95 15.1 -8.05 14.2 -7.35 13.0 -6.55 11.5 -5.0 11.0 L6.4 11.0 Q8.0 11.0 8.0 12.6" fill="url(#gradient5)" fill-rule="evenodd" stroke="none"/>
    <path d="M6.4 11.0 Q8.0 11.0 8.0 12.6 L7.0 29.0 Q6.3 39.05 5.2 45.05 4.35 49.65 3.0 53.5 L1.5 56.5 Q0.2 58.0 -2.0 58.0 -4.05 58.0 -5.55 56.5 -7.0 55.05 -7.0 53.0 L-5.65 41.35 Q-4.45 30.4 -5.0 29.0 -5.15 28.4 -6.15 27.4 -7.0 26.5 -7.0 25.7 -7.0 24.8 -5.45 23.4 -4.0 22.05 -4.1 19.7 -4.2 17.65 -6.0 16.65 -7.9 15.6 -7.95 15.1 -8.05 14.2 -7.35 13.0 -6.55 11.5 -5.0 11.0 L6.4 11.0 M6.45 28.95 L7.45 12.6 Q7.45 12.0 6.85 12.0 L-4.3 12.0 Q-5.95 12.8 -6.35 14.4 -5.25 14.85 -4.35 15.75 -2.5 17.6 -2.55 20.0 -2.6 22.55 -4.05 23.9 -5.55 25.3 -5.55 25.7 -5.55 26.3 -4.65 27.1 -3.65 28.0 -3.55 28.75 -3.05 31.55 -3.9 38.95 L-5.55 53.15 Q-5.7 54.5 -4.4 55.8 -3.2 57.0 -1.55 57.0 0.15 57.0 1.2 55.85 L2.5 53.2 Q3.8 49.4 4.7 44.9 5.75 38.9 6.45 28.95" fill="url(#gradient6)" fill-rule="evenodd" stroke="none"/>
    <path d="M-6.95 50.75 Q-5.7 47.65 -2.45 47.6 -0.55 47.6 1.35 48.5 3.05 42.75 3.8 36.35 4.5 29.8 4.0 24.0 3.85 22.45 2.5 21.95 1.85 21.7 -4.3 20.4" fill="none" stroke="#000000" stroke-linecap="round" stroke-linejoin="round" stroke-opacity="0.2" stroke-width="0.75"/>
    <path d="M0.5 15.5 L3.5 17.5 M-2.7 55.4 L-1.95 52.6 M-2.4 32.8 L0.6 34.8" fill="none" stroke="#000000" stroke-linecap="round" stroke-linejoin="round" stroke-width="1.0"/>
  </g>
  <defs>
    <linearGradient gradientTransform="matrix(0.0055, 0.0, 0.0, 0.0049, -4.5, 58.0)" gradientUnits="userSpaceOnUse" id="gradient0" spreadMethod="pad" x1="-819.2" x2="819.2">
      <stop offset="0.0" stop-color="#8a8a8a"/>
      <stop offset="0.5882352941176471" stop-color="#b8b8b8"/>
      <stop offset="0.792156862745098" stop-color="#cdcdcd"/>
    </linearGradient>
    <linearGradient gradientTransform="matrix(0.0182, -0.0106, 0.0229, 0.0396, -2.5, -18.8)" gradientUnits="userSpaceOnUse" id="gradient1" spreadMethod="pad" x1="-819.2" x2="819.2">
      <stop offset="0.0" stop-color="#868686"/>
      <stop offset="0.2" stop-color="#9b9b9b"/>
      <stop offset="0.5215686274509804" stop-color="#bfbfbf"/>
      <stop offset="0.7294117647058823" stop-color="#bfbfbf"/>
      <stop offset="1.0" stop-color="#c6c6c6"/>
    </linearGradient>
    <linearGradient gradientTransform="matrix(0.0252, -0.022, 0.0275, 0.0315, -4.45, -29.75)" gradientUnits="userSpaceOnUse" id="gradient2" spreadMethod="pad" x1="-819.2" x2="819.2">
      <stop offset="0.0" stop-color="#9b9b9b"/>
      <stop offset="0.4549019607843137" stop-color="#dfdfdf"/>
      <stop offset="0.7803921568627451" stop-color="#d8d8d8"/>
      <stop offset="1.0" stop-color="#bbbbbb"/>
    </linearGradient>
    <linearGradient gradientTransform="matrix(0.0238, -0.0185, 0.0249, 0.0321, -4.4, -30.7)" gradientUnits="userSpaceOnUse" id="gradient3" spreadMethod="pad" x1="-819.2" x2="819.2">
      <stop offset="0.0" stop-color="#bbbbbb"/>
      <stop offset="0.25882352941176473" stop-color="#e2e2e2"/>
      <stop offset="0.40784313725490196" stop-color="#fbfbfb"/>
      <stop offset="0.7098039215686275" stop-color="#ffffff"/>
      <stop offset="1.0" stop-color="#868686"/>
    </linearGradient>
    <linearGradient gradientTransform="matrix(0.0165, -0.0177, 0.0246, 0.0228, 4.1, -33.9)" gradientUnits="userSpaceOnUse" id="gradient4" spreadMethod="pad" x1="-819.2" x2="819.2">
      <stop offset="0.050980392156862744" stop-color="#a3a3a3"/>
      <stop offset="0.5607843137254902" stop-color="#aaaaaa"/>
      <stop offset="1.0" stop-color="#a6a6a6"/>
    </linearGradient>
    <linearGradient gradientTransform="matrix(0.0127, -0.0107, 0.0127, 0.0151, -1.45, 35.15)" gradientUnits="userSpaceOnUse" id="gradient5" spreadMethod="pad" x1="-819.2" x2="819.2">
      <stop offset="0.0" stop-color="#a09889"/>
      <stop offset="1.0" stop-color="#c0bbb6"/>
    </linearGradient>
    <linearGradient gradientTransform="matrix(0.0106, -3.0E-4, 5.0E-4, 0.0197, 0.4, 35.25)" gradientUnits="userSpaceOnUse" id="gradient6" spreadMethod="pad" x1="-819.2" x2="819.2">
      <stop offset="0.03529411764705882" stop-color="#736a62"/>
      <stop offset="0.8235294117647058" stop-color="#dedcda"/>
      <stop offset="1.0" stop-color="#e1dfdd"/>
    </linearGradient>
  </defs>
</svg>
