<?xml version="1.0" encoding="UTF-8" standalone="no"?>
<svg xmlns:xlink="http://www.w3.org/1999/xlink" height="117.7px" width="260.25px" xmlns="http://www.w3.org/2000/svg">
  <g transform="matrix(1.0, 0.0, 0.0, 1.0, -139.25, -426.1)">
    <path d="M232.75 543.45 L233.6 543.8 232.75 543.75 232.75 543.45 M139.25 443.0 L139.35 442.95 139.25 443.0" fill="url(#gradient0)" fill-rule="evenodd" stroke="none"/>
    <path d="M389.1 431.75 Q395.15 434.65 399.5 435.25 396.6 440.25 393.85 451.45 390.75 463.85 390.75 473.35 390.75 477.45 391.3 481.75 391.8 485.6 392.25 486.25 386.9 493.35 384.4 503.75 382.5 511.45 382.5 519.25 382.5 521.95 382.9 525.75 377.5 520.55 346.5 516.65 L319.6 514.05 Q331.75 507.6 342.6 491.4 353.2 475.6 356.75 462.25 L358.25 462.9 360.85 463.5 Q367.65 463.5 374.8 449.2 380.6 437.65 382.65 426.1 383.2 428.9 389.1 431.75" fill="url(#gradient1)" fill-rule="evenodd" stroke="none"/>
  </g>
  <defs>
    <linearGradient gradientTransform="matrix(-0.0017, -0.3319, 0.332, -0.0016, 484.0, 272.0)" gradientUnits="userSpaceOnUse" id="gradient0" spreadMethod="pad" x1="-819.2" x2="819.2">
      <stop offset="0.0" stop-color="#ff9831"/>
      <stop offset="0.21568627450980393" stop-color="#f26522"/>
      <stop offset="0.6392156862745098" stop-color="#f00000"/>
      <stop offset="1.0" stop-color="#960505"/>
    </linearGradient>
    <linearGradient gradientTransform="matrix(3.0E-4, -0.3259, 0.3271, 2.0E-4, 445.4, 274.0)" gradientUnits="userSpaceOnUse" id="gradient1" spreadMethod="pad" x1="-819.2" x2="819.2">
      <stop offset="0.0" stop-color="#ff9831"/>
      <stop offset="0.21568627450980393" stop-color="#f26522"/>
      <stop offset="0.6392156862745098" stop-color="#f00000"/>
      <stop offset="1.0" stop-color="#960505"/>
    </linearGradient>
  </defs>
</svg>
