<?xml version="1.0" encoding="UTF-8" standalone="no"?>
<svg xmlns:xlink="http://www.w3.org/1999/xlink" height="47.0px" width="120.0px" xmlns="http://www.w3.org/2000/svg">
  <g transform="matrix(1.0, 0.0, 0.0, 1.0, 0.0, 8.0)">
    <path d="M103.0 -7.0 L107.45 0.0 116.0 0.0 Q120.0 0.0 120.0 4.0 L120.0 35.0 Q120.0 39.0 116.0 39.0 L4.0 39.0 Q0.0 39.0 0.0 35.0 L0.0 4.0 Q0.0 0.0 4.0 0.0 L96.55 0.0 101.0 -7.0 102.0 -8.0 103.0 -7.0" fill="#000000" fill-rule="evenodd" stroke="none"/>
    <path d="M118.0 35.0 Q118.0 37.0 116.0 37.0 L4.0 37.0 Q2.0 37.0 2.0 35.0 L2.0 4.0 Q2.0 2.0 4.0 2.0 L96.55 2.0 97.5 1.75 98.25 1.1 102.0 -4.8 105.75 1.1 106.5 1.75 107.45 2.0 116.0 2.0 Q118.0 2.0 118.0 4.0 L118.0 35.0" fill="#bababa" fill-rule="evenodd" stroke="none"/>
  </g>
</svg>
