<?xml version="1.0" encoding="UTF-8" standalone="no"?>
<svg xmlns:xlink="http://www.w3.org/1999/xlink" height="241.05px" width="80.55px" xmlns="http://www.w3.org/2000/svg">
  <g transform="matrix(1.0, 0.0, 0.0, 1.0, 25.7, -37.9)">
    <path d="M10.8 137.2 Q-0.5 122.5 -11.35 103.6 -19.8 88.9 -25.7 75.65 -24.8 53.45 -20.7 37.9 L-12.3 45.2 -6.45 50.0 Q4.4 110.65 11.0 137.0 L10.8 137.2 M20.3 232.25 L18.0 214.7 Q15.95 199.15 15.0 188.9 22.0 194.1 32.95 201.65 L46.2 210.55 Q47.4 235.25 52.5 265.6 L54.85 278.95 43.25 261.85 Q29.55 242.0 20.3 232.25" fill="url(#gradient0)" fill-rule="evenodd" stroke="none"/>
  </g>
  <defs>
    <linearGradient gradientTransform="matrix(3.0E-4, -0.3259, 0.3271, 2.0E-4, 445.4, 274.0)" gradientUnits="userSpaceOnUse" id="gradient0" spreadMethod="pad" x1="-819.2" x2="819.2">
      <stop offset="0.0" stop-color="#ffffff"/>
      <stop offset="0.7764705882352941" stop-color="#39dbe8"/>
    </linearGradient>
  </defs>
</svg>
