<?xml version="1.0" encoding="UTF-8" standalone="no"?>
<svg xmlns:xlink="http://www.w3.org/1999/xlink" height="7.0px" width="7.0px" xmlns="http://www.w3.org/2000/svg">
  <g transform="matrix(1.0, 0.0, 0.0, 1.0, -2.0, 17.0)">
    <path d="M5.0 -16.0 L5.0 -17.0 6.0 -17.0 6.0 -16.0 5.0 -16.0 M6.0 -15.0 L7.0 -15.0 7.0 -14.0 6.0 -14.0 6.0 -15.0 M8.0 -14.0 L9.0 -14.0 9.0 -13.0 8.0 -13.0 8.0 -12.0 7.0 -12.0 7.0 -13.0 8.0 -13.0 8.0 -14.0 M3.0 -12.0 L3.0 -13.0 2.0 -13.0 2.0 -14.0 3.0 -14.0 3.0 -13.0 4.0 -13.0 4.0 -12.0 3.0 -12.0 M4.0 -14.0 L4.0 -15.0 5.0 -15.0 5.0 -14.0 4.0 -14.0" fill="#ffffff" fill-opacity="0.5019608" fill-rule="evenodd" stroke="none"/>
    <path d="M6.0 -16.0 L6.0 -15.0 6.0 -14.0 7.0 -14.0 8.0 -14.0 8.0 -13.0 7.0 -13.0 7.0 -12.0 8.0 -12.0 8.0 -10.0 7.0 -10.0 7.0 -11.0 6.0 -11.0 6.0 -12.0 5.0 -12.0 5.0 -11.0 4.0 -11.0 4.0 -10.0 3.0 -10.0 3.0 -12.0 4.0 -12.0 4.0 -13.0 3.0 -13.0 3.0 -14.0 4.0 -14.0 5.0 -14.0 5.0 -15.0 5.0 -16.0 6.0 -16.0" fill="#ffffff" fill-rule="evenodd" stroke="none"/>
  </g>
</svg>
