<?xml version="1.0" encoding="UTF-8" standalone="no"?>
<svg xmlns:xlink="http://www.w3.org/1999/xlink" height="159.1px" width="158.0px" xmlns="http://www.w3.org/2000/svg">
  <g transform="matrix(1.0, 0.0, 0.0, 1.0, 3.0, 15.1)">
    <path d="M49.0 -3.1 L152.0 -3.1 Q155.0 -3.1 155.0 -0.1 L155.0 140.9 Q155.0 143.9 152.0 143.9 L0.0 144.0 Q-3.0 144.0 -3.0 141.0 L-3.0 -12.1 Q-3.0 -15.1 0.0 -15.1 L46.0 -15.1 Q49.0 -15.1 49.0 -12.1 L49.0 -3.1 M150.0 0.9 L2.0 0.9 Q1.0 0.9 1.0 1.9 L1.0 139.0 Q1.0 140.0 2.0 140.0 L150.0 139.9 Q151.0 139.9 151.0 138.9 L151.0 1.9 Q151.0 0.9 150.0 0.9" fill="#000000" fill-rule="evenodd" stroke="none"/>
    <path d="M150.0 -0.1 L2.0 -0.1 Q0.0 -0.1 0.0 1.9 L0.0 139.0 Q0.0 141.0 2.0 141.0 L150.0 140.9 Q152.0 140.9 152.0 138.9 L152.0 1.9 Q152.0 -0.1 150.0 -0.1 M46.0 -14.1 Q48.0 -14.1 48.0 -12.1 L48.0 -2.1 152.0 -2.1 Q154.0 -2.1 154.0 -0.1 L154.0 140.9 Q154.0 142.9 152.0 142.9 L0.0 143.0 Q-2.0 143.0 -2.0 141.0 L-2.0 -12.1 Q-2.0 -14.1 0.0 -14.1 L46.0 -14.1" fill="#00ff00" fill-rule="evenodd" stroke="none"/>
  </g>
</svg>
