<?xml version="1.0" encoding="UTF-8" standalone="no"?>
<svg xmlns:xlink="http://www.w3.org/1999/xlink" height="111.0px" width="56.15px" xmlns="http://www.w3.org/2000/svg">
  <g transform="matrix(1.0, 0.0, 0.0, 1.0, 28.05, 56.5)">
    <path d="M5.3 -54.3 Q7.5 -52.1 7.5 -49.0 7.5 -45.95 5.3 -43.75 L4.75 -43.2 Q7.0 -42.3 8.85 -40.45 12.35 -36.95 12.5 -32.0 12.5 -26.35 8.85 -22.8 L8.5 -22.4 Q8.6 -21.5 8.15 -20.7 7.5 -19.55 7.5 -18.95 L10.05 -18.5 Q11.05 -18.5 11.8 -17.75 12.5 -17.0 12.5 -16.0 L12.5 -14.0 Q12.5 -12.95 11.8 -12.2 11.2 -11.65 10.5 -11.55 10.35 -10.8 9.8 -10.2 9.25 -9.7 8.55 -9.55 L8.55 -8.6 8.65 -8.0 Q9.3 -6.65 11.2 -6.5 L14.0 -6.5 Q15.4 -6.55 16.5 -5.45 17.55 -4.4 17.5 -3.05 L22.15 0.4 Q26.25 3.8 27.25 5.75 30.15 9.75 23.25 30.15 18.6 43.55 14.3 53.05 L13.35 54.1 Q12.75 54.5 12.0 54.5 L-12.0 54.5 Q-12.75 54.5 -13.35 54.1 L-14.25 53.05 Q-18.75 43.15 -23.15 30.15 -30.1 9.75 -27.15 5.75 -26.2 3.8 -22.05 0.4 L-18.35 -2.45 -17.5 -3.0 Q-17.5 -4.45 -16.45 -5.45 -15.4 -6.55 -14.0 -6.5 L-11.2 -6.5 Q-9.3 -6.65 -8.65 -8.0 L-8.55 -8.6 -8.55 -9.55 Q-9.25 -9.7 -9.75 -10.2 -10.35 -10.8 -10.45 -11.5 -11.2 -11.65 -11.75 -12.2 -12.5 -12.95 -12.5 -14.0 L-12.5 -16.0 Q-12.5 -17.0 -11.75 -17.75 -11.05 -18.5 -10.05 -18.5 L-7.5 -18.95 -7.65 -19.7 -7.95 -20.45 Q-8.6 -21.25 -8.5 -22.2 L-8.85 -22.75 Q-12.5 -26.4 -12.5 -32.0 -12.35 -36.9 -8.85 -40.45 -7.0 -42.3 -4.75 -43.2 L-5.3 -43.7 Q-7.5 -45.9 -7.5 -49.0 -7.5 -52.05 -5.35 -54.25 -3.1 -56.5 0.0 -56.5 3.1 -56.5 5.3 -54.3 M0.0 -50.5 Q-0.6 -50.5 -1.05 -50.1 L-1.1 -50.05 -1.45 -49.3 0.0 -49.5 1.45 -49.3 1.05 -50.05 0.0 -50.5" fill="#000000" fill-rule="evenodd" stroke="none"/>
    <path d="M0.0 -2.0 L14.05 -2.0 Q16.65 -1.0 20.5 2.3 24.2 5.35 25.05 7.0 27.25 10.5 20.85 29.35 16.3 42.6 12.0 52.0 L-12.0 52.0 Q-16.4 42.2 -20.8 29.35 -27.2 10.5 -25.0 7.0 -24.15 5.35 -20.45 2.3 -16.6 -1.0 -14.0 -2.0 L0.0 -2.0" fill="url(#gradient0)" fill-rule="evenodd" stroke="none"/>
    <path d="M-22.7 16.0 Q-24.15 9.8 -23.3 8.1 L-23.2 7.95 Q-22.4 6.55 -19.15 3.85 -13.6 -0.95 -10.0 -2.0 L0.0 -2.0 10.0 -2.0 Q13.6 -0.95 19.15 3.85 22.4 6.55 23.2 7.95 L23.3 8.1 Q24.15 9.8 22.7 16.0 L-22.7 16.0" fill="url(#gradient1)" fill-rule="evenodd" stroke="none"/>
    <path d="M22.7 16.0 Q21.55 20.95 18.9 28.7 L17.55 32.6 15.45 38.55 12.0 47.0 0.0 47.0 -12.0 47.0 Q-14.1 42.25 -17.1 33.8 L-18.9 28.7 Q-21.55 20.95 -22.7 16.0 L22.7 16.0" fill="url(#gradient2)" fill-rule="evenodd" stroke="none"/>
    <path d="M22.45 17.0 L-22.45 17.0 -22.7 16.0 22.7 16.0 22.45 17.0" fill="#ffffff" fill-opacity="0.3019608" fill-rule="evenodd" stroke="none"/>
    <path d="M14.0 12.0 Q14.05 18.1 6.0 43.0 L-6.0 43.0 Q-14.05 18.1 -14.0 12.0 -11.8 7.3 -6.0 5.0 L6.0 5.0 Q11.8 7.3 14.0 12.0" fill="url(#gradient3)" fill-rule="evenodd" stroke="none"/>
    <path d="M25.05 7.0 Q27.25 10.5 20.85 29.35 16.3 42.6 12.0 52.0 L6.0 43.0 Q14.05 18.1 14.0 12.0 L25.05 7.0" fill="url(#gradient4)" fill-rule="evenodd" stroke="none"/>
    <path d="M-20.8 29.35 Q-27.2 10.5 -25.0 7.0 L-14.0 12.0 Q-14.05 18.1 -6.0 43.0 L-12.0 52.0 Q-16.4 42.2 -20.8 29.35" fill="url(#gradient5)" fill-rule="evenodd" stroke="none"/>
    <path d="M0.0 -2.0 L14.05 -2.0 Q16.65 -1.0 20.5 2.3 24.2 5.35 25.05 7.0 L14.0 12.0 Q11.8 7.3 6.0 5.0 L-6.0 5.0 Q-11.8 7.3 -14.0 12.0 L-25.0 7.0 Q-24.15 5.35 -20.45 2.3 -16.6 -1.0 -14.0 -2.0 L0.0 -2.0" fill="url(#gradient6)" fill-rule="evenodd" stroke="none"/>
    <path d="M-10.0 -2.0 Q-13.6 -0.95 -19.15 3.85 -22.4 6.55 -23.2 7.95 L-23.3 8.1 Q-24.85 11.2 -18.9 28.7 -14.7 40.9 -12.0 47.0 L0.0 47.0 12.0 47.0 15.45 38.55 18.9 28.7 Q24.85 11.2 23.3 8.1 L23.2 7.95 Q22.4 6.55 19.15 3.85 13.6 -0.95 10.0 -2.0" fill="none" stroke="url(#gradient7)" stroke-linecap="round" stroke-linejoin="round" stroke-width="0.25"/>
    <path d="M12.0 52.0 L-12.0 52.0 -6.0 43.0 6.0 43.0 12.0 52.0" fill="url(#gradient8)" fill-rule="evenodd" stroke="none"/>
    <path d="M3.55 -0.45 Q3.25 -1.4 4.3 -1.95 L5.9 -2.45 6.25 -2.4 6.5 -2.1 6.45 -1.75 6.15 -1.5 4.75 -1.05 4.5 -0.7 5.05 0.0 5.4 0.65 5.5 1.15 5.45 1.5 5.45 1.55 5.45 1.7 Q5.25 2.45 4.1 2.95 L2.35 3.4 1.5 4.15 0.0 4.5 -1.5 4.15 -1.45 4.15 -2.3 3.4 -4.05 2.95 Q-5.25 2.45 -5.4 1.7 L-5.45 1.55 -5.45 1.5 -5.5 1.15 -5.35 0.65 -5.05 0.0 -5.0 0.0 -4.45 -0.7 -4.7 -1.05 -6.1 -1.5 -6.4 -1.75 -6.45 -2.1 -6.25 -2.4 -5.85 -2.45 -4.25 -1.95 Q-3.25 -1.4 -3.5 -0.45 L-4.25 0.6 -4.25 0.65 -4.4 0.9 -4.45 1.1 -4.5 1.15 -4.45 1.25 -4.45 1.4 -4.45 1.5 -3.7 2.0 -1.85 2.5 Q-1.7 2.5 -1.55 2.7 L-1.0 3.25 0.0 3.5 1.0 3.25 1.05 3.25 1.6 2.7 Q1.7 2.5 1.9 2.5 L3.75 2.0 4.45 1.5 4.45 1.4 4.5 1.25 4.5 1.15 4.5 1.1 4.4 0.9 4.3 0.65 4.25 0.6 Q3.55 -0.2 3.55 -0.45" fill="#353535" fill-opacity="0.4" fill-rule="evenodd" stroke="none"/>
    <path d="M4.5 -1.5 Q3.85 -1.15 4.0 -0.6 L4.65 0.3 4.9 0.8 5.0 1.15 4.95 1.4 4.95 1.55 Q4.8 2.1 3.9 2.45 L2.0 2.95 1.25 3.7 0.0 4.0 -1.25 3.7 -2.0 2.95 -3.9 2.45 Q-4.8 2.1 -4.95 1.55 L-4.95 1.4 -5.0 1.15 -4.9 0.8 -4.65 0.3 -4.0 -0.6 Q-3.85 -1.15 -4.5 -1.5 L-6.0 -2.0 0.0 -2.0 6.0 -2.0 4.5 -1.5" fill="url(#gradient9)" fill-rule="evenodd" stroke="none"/>
    <path d="M16.15 -1.65 Q15.85 -1.3 15.4 -1.3 L-15.4 -1.3 Q-15.85 -1.3 -16.15 -1.65 -16.5 -1.95 -16.5 -2.4 -16.5 -2.85 -16.15 -3.15 -15.85 -3.5 -15.4 -3.5 L15.4 -3.5 Q15.85 -3.5 16.15 -3.15 16.5 -2.85 16.5 -2.4 16.5 -1.95 16.15 -1.65" fill="#000000" fill-opacity="0.2" fill-rule="evenodd" stroke="none"/>
    <path d="M4.0 1.15 L3.7 1.65 3.0 1.9 2.3 1.65 Q2.0 1.45 2.0 1.15 2.0 0.9 2.3 0.65 L3.0 0.45 3.7 0.65 4.0 1.15 M1.0 2.5 L0.7 3.0 0.0 3.2 -0.7 3.0 -1.0 2.5 -0.7 2.0 0.0 1.8 0.7 2.0 1.0 2.5 M-2.0 1.15 Q-2.0 1.45 -2.3 1.65 L-3.0 1.9 -3.7 1.65 -4.0 1.15 -3.7 0.65 -3.0 0.45 -2.3 0.65 Q-2.0 0.9 -2.0 1.15" fill="#000000" fill-opacity="0.4" fill-rule="evenodd" stroke="none"/>
    <path d="M2.8 -51.85 Q1.65 -53.0 0.0 -53.0 -1.65 -53.0 -2.85 -51.85 -4.0 -50.65 -4.0 -49.0 -4.0 -47.35 -2.85 -46.2 -1.65 -45.0 0.0 -45.0 1.65 -45.0 2.8 -46.2 4.0 -47.35 4.0 -49.0 4.0 -50.65 2.8 -51.85 M3.5 -52.55 Q5.0 -51.05 5.0 -49.0 5.0 -46.95 3.5 -45.5 2.05 -44.0 0.0 -44.0 -2.05 -44.0 -3.55 -45.5 -5.0 -46.95 -5.0 -49.0 -5.0 -51.05 -3.55 -52.55 -2.05 -54.0 0.0 -54.0 2.05 -54.0 3.5 -52.55" fill="url(#gradient10)" fill-rule="evenodd" stroke="none"/>
    <path d="M-1.0 -43.0 L-0.9 -43.0 0.9 -43.0 1.0 -43.0 Q1.55 -42.95 1.95 -42.55 2.4 -42.1 2.4 -41.5 L2.4 -41.0 -2.4 -41.0 -2.4 -41.5 Q-2.4 -42.1 -1.95 -42.55 -1.55 -42.95 -1.0 -43.0" fill="url(#gradient11)" fill-rule="evenodd" stroke="none"/>
    <path d="M1.0 -43.0 L0.9 -43.0 -0.9 -43.0 -1.0 -43.0 -1.0 -44.0 1.0 -44.0 1.0 -43.0" fill="#525252" fill-rule="evenodd" stroke="none"/>
    <path d="M1.0 -44.0 L-1.0 -44.0 -2.0 -44.0 -2.0 -45.5 Q-1.65 -47.0 0.0 -47.0 1.65 -47.0 2.0 -45.5 L2.0 -44.0 1.0 -44.0" fill="url(#gradient12)" fill-rule="evenodd" stroke="none"/>
    <path d="M7.05 -38.7 Q10.0 -35.75 10.0 -31.6 10.0 -27.45 7.05 -24.55 4.15 -21.6 0.0 -21.6 -4.15 -21.6 -7.1 -24.55 -10.0 -27.45 -10.0 -31.6 -10.0 -35.75 -7.1 -38.7 -4.15 -41.6 0.0 -41.6 4.15 -41.6 7.05 -38.7" fill="url(#gradient13)" fill-rule="evenodd" stroke="none"/>
    <path d="M-10.0 -16.0 Q-6.35 -16.25 -5.1 -18.4 -4.1 -20.15 -5.0 -22.0 L0.0 -22.0 5.0 -22.0 Q4.1 -20.15 5.1 -18.4 6.35 -16.25 10.0 -16.0 L-10.0 -16.0" fill="url(#gradient14)" fill-rule="evenodd" stroke="none"/>
    <path d="M10.0 -16.0 L10.0 -14.0 8.0 -14.0 -8.0 -14.0 -10.0 -14.0 -10.0 -16.0 10.0 -16.0" fill="url(#gradient15)" fill-rule="evenodd" stroke="none"/>
    <path d="M8.0 -14.0 L8.0 -12.0 7.0 -12.0 -7.0 -12.0 -8.0 -12.0 -8.0 -14.0 8.0 -14.0" fill="url(#gradient16)" fill-rule="evenodd" stroke="none"/>
    <path d="M11.0 -4.0 L14.0 -4.0 14.7 -3.7 15.0 -3.0 14.7 -2.3 Q14.4 -2.0 14.0 -2.0 L-14.0 -2.0 Q-14.4 -2.0 -14.7 -2.3 L-15.0 -3.0 -14.7 -3.7 -14.0 -4.0 -11.0 -4.0 11.0 -4.0" fill="url(#gradient17)" fill-rule="evenodd" stroke="none"/>
    <path d="M7.0 -12.0 Q5.3 -9.65 6.35 -7.05 7.45 -4.3 11.0 -4.0 L-11.0 -4.0 Q-7.45 -4.3 -6.35 -7.05 -5.3 -9.65 -7.0 -12.0 L7.0 -12.0" fill="url(#gradient18)" fill-rule="evenodd" stroke="none"/>
    <path d="M3.15 -14.0 L2.9 -14.0 2.9 -16.0 3.15 -16.0 3.15 -14.0 M-2.85 -14.0 L-3.1 -14.0 -3.1 -16.0 -2.85 -16.0 -2.85 -14.0" fill="#bbbbbb" fill-rule="evenodd" stroke="none"/>
    <path d="M0.15 -16.0 L0.15 -14.0 -0.1 -14.0 -0.1 -16.0 0.15 -16.0" fill="#e2e2e2" fill-rule="evenodd" stroke="none"/>
    <path d="M5.4 -16.0 L5.65 -16.0 5.65 -14.0 5.4 -14.0 5.4 -16.0 M-5.6 -16.0 L-5.35 -16.0 -5.35 -14.0 -5.6 -14.0 -5.6 -16.0" fill="#8d8d8d" fill-rule="evenodd" stroke="none"/>
    <path d="M7.65 -14.0 L7.4 -14.0 7.4 -16.0 7.65 -16.0 7.65 -14.0 M-7.35 -14.0 L-7.6 -14.0 -7.6 -16.0 -7.35 -16.0 -7.35 -14.0" fill="#606060" fill-rule="evenodd" stroke="none"/>
    <path d="M0.0 -32.15 L0.0 -30.4 -0.7 -29.8 Q-0.75 -29.2 -1.6 -28.35 -3.6 -26.35 -3.9 -26.35 -4.35 -26.35 -4.3 -26.8 -4.25 -27.15 -3.5 -27.25 -2.8 -27.4 -2.75 -27.95 L-3.1 -28.35 -3.5 -28.8 Q-3.75 -29.7 -1.9 -30.4 L-3.15 -30.7 Q-4.35 -31.1 -4.25 -31.6 -4.15 -32.1 -5.2 -34.25 -6.15 -36.05 -5.4 -36.3 -3.45 -36.55 -1.7 -34.8 -0.5 -33.55 0.0 -32.15" fill="url(#gradient19)" fill-rule="evenodd" stroke="none"/>
    <path d="M0.0 -32.15 Q0.5 -33.55 1.7 -34.8 3.45 -36.55 5.4 -36.3 6.15 -36.05 5.2 -34.25 4.15 -32.1 4.25 -31.6 4.35 -31.1 3.15 -30.7 L1.9 -30.4 Q3.75 -29.7 3.5 -28.8 L3.1 -28.35 2.75 -27.95 Q2.8 -27.4 3.5 -27.25 4.25 -27.15 4.3 -26.8 4.35 -26.35 3.9 -26.35 3.6 -26.35 1.6 -28.35 0.75 -29.2 0.7 -29.8 L0.0 -30.4 0.0 -32.15" fill="url(#gradient20)" fill-rule="evenodd" stroke="none"/>
    <path d="M8.9 -16.0 L9.15 -16.0 9.15 -14.0 8.9 -14.0 8.9 -16.0 M-9.1 -16.0 L-8.85 -16.0 -8.85 -14.0 -9.1 -14.0 -9.1 -16.0" fill="#353535" fill-rule="evenodd" stroke="none"/>
    <path d="M5.65 -37.3 Q8.0 -34.9 8.0 -31.6 8.0 -28.3 5.65 -25.95 3.3 -23.6 0.0 -23.6 -3.3 -23.6 -5.7 -25.95 -8.0 -28.3 -8.0 -31.6 -8.0 -34.9 -5.7 -37.3 -3.3 -39.6 0.0 -39.6 3.3 -39.6 5.65 -37.3 Z" fill="none" stroke="url(#gradient21)" stroke-linecap="round" stroke-linejoin="round" stroke-width="0.25"/>
    <path d="M6.0 -10.0 L6.0 -9.0 -6.0 -9.0 -6.0 -10.0 -8.0 -12.0 -8.0 -14.0 8.0 -14.0 8.0 -12.0 6.0 -10.0" fill="#000000" fill-opacity="0.2" fill-rule="evenodd" stroke="none"/>
  </g>
  <defs>
    <linearGradient gradientTransform="matrix(0.0, -0.033, 0.033, 0.0, 0.0, 25.0)" gradientUnits="userSpaceOnUse" id="gradient0" spreadMethod="pad" x1="-819.2" x2="819.2">
      <stop offset="0.0" stop-color="#b5b5b5"/>
      <stop offset="0.24705882352941178" stop-color="#b0b0b0"/>
      <stop offset="0.37254901960784315" stop-color="#ffffff"/>
      <stop offset="0.5529411764705883" stop-color="#717171"/>
      <stop offset="0.9176470588235294" stop-color="#ffffff"/>
    </linearGradient>
    <linearGradient gradientTransform="matrix(0.0, -0.0288, 0.0293, 0.0, 0.0, 22.0)" gradientUnits="userSpaceOnUse" id="gradient1" spreadMethod="pad" x1="-819.2" x2="819.2">
      <stop offset="0.3058823529411765" stop-color="#cee1dd"/>
      <stop offset="1.0" stop-color="#779d9c"/>
    </linearGradient>
    <linearGradient gradientTransform="matrix(-1.0E-4, -0.0195, 0.0183, -1.0E-4, -0.25, 30.0)" gradientUnits="userSpaceOnUse" id="gradient2" spreadMethod="pad" x1="-819.2" x2="819.2">
      <stop offset="0.0" stop-color="#057d87"/>
      <stop offset="1.0" stop-color="#71f9f8"/>
    </linearGradient>
    <linearGradient gradientTransform="matrix(0.0, -0.0244, 0.0232, 0.0, 0.0, 24.0)" gradientUnits="userSpaceOnUse" id="gradient3" spreadMethod="pad" x1="-819.2" x2="819.2">
      <stop offset="0.4196078431372549" stop-color="#808080" stop-opacity="0.39215687"/>
      <stop offset="1.0" stop-color="#bfbfbf" stop-opacity="0.6313726"/>
    </linearGradient>
    <linearGradient gradientTransform="matrix(0.0088, -0.0291, 0.0263, 0.0079, 15.8, 29.5)" gradientUnits="userSpaceOnUse" id="gradient4" spreadMethod="pad" x1="-819.2" x2="819.2">
      <stop offset="0.0" stop-color="#000000" stop-opacity="0.2509804"/>
      <stop offset="1.0" stop-color="#9b9b9b" stop-opacity="0.4"/>
    </linearGradient>
    <linearGradient gradientTransform="matrix(-0.013, -0.0273, 0.0247, -0.0118, -15.8, 29.5)" gradientUnits="userSpaceOnUse" id="gradient5" spreadMethod="pad" x1="-819.2" x2="819.2">
      <stop offset="0.0" stop-color="#000000" stop-opacity="0.4509804"/>
      <stop offset="1.0" stop-color="#000000" stop-opacity="0.3529412"/>
    </linearGradient>
    <linearGradient gradientTransform="matrix(0.0317, 0.0, 0.0, 0.0085, 0.0, 5.0)" gradientUnits="userSpaceOnUse" id="gradient6" spreadMethod="pad" x1="-819.2" x2="819.2">
      <stop offset="0.0196078431372549" stop-color="#7b7b7b" stop-opacity="0.53333336"/>
      <stop offset="0.8235294117647058" stop-color="#fefefe" stop-opacity="0.79607844"/>
    </linearGradient>
    <linearGradient gradientTransform="matrix(0.0, -0.0299, 0.03, 0.0, 0.0, 22.5)" gradientUnits="userSpaceOnUse" id="gradient7" spreadMethod="pad" x1="-819.2" x2="819.2">
      <stop offset="0.0" stop-color="#aabcbf"/>
      <stop offset="0.43529411764705883" stop-color="#6d9292"/>
      <stop offset="0.8666666666666667" stop-color="#5c6f70"/>
    </linearGradient>
    <linearGradient gradientTransform="matrix(0.0, -0.0067, 0.0055, 0.0, 0.0, 47.5)" gradientUnits="userSpaceOnUse" id="gradient8" spreadMethod="pad" x1="-819.2" x2="819.2">
      <stop offset="0.0" stop-color="#000000" stop-opacity="0.77254903"/>
      <stop offset="0.3176470588235294" stop-color="#4e4e4e" stop-opacity="0.5019608"/>
    </linearGradient>
    <radialGradient cx="0" cy="0" fx="-1222.4" fy="0" gradientTransform="matrix(0.0, -0.0063, 0.009, 0.0, 0.0, 1.0)" gradientUnits="userSpaceOnUse" id="gradient9" r="819.2" spreadMethod="pad">
      <stop offset="0.01568627450980392" stop-color="#ffffff"/>
      <stop offset="0.1843137254901961" stop-color="#dbdbdb"/>
      <stop offset="0.596078431372549" stop-color="#989898"/>
      <stop offset="1.0" stop-color="#4e4e4e"/>
    </radialGradient>
    <radialGradient cx="0" cy="0" gradientTransform="matrix(0.0171, 0.0, 0.0, 0.0124, 0.0, -54.0)" gradientUnits="userSpaceOnUse" id="gradient10" r="819.2" spreadMethod="pad">
      <stop offset="0.08235294117647059" stop-color="#bbbbbb"/>
      <stop offset="0.16470588235294117" stop-color="#919191"/>
      <stop offset="0.7764705882352941" stop-color="#707070"/>
      <stop offset="0.8235294117647058" stop-color="#6d6d6d"/>
      <stop offset="0.9686274509803922" stop-color="#232323"/>
    </radialGradient>
    <radialGradient cx="0" cy="0" gradientTransform="matrix(0.0049, 0.0, 0.0, 0.0029, 0.0, -42.0)" gradientUnits="userSpaceOnUse" id="gradient11" r="819.2" spreadMethod="pad">
      <stop offset="0.00392156862745098" stop-color="#d0d0d0"/>
      <stop offset="0.1803921568627451" stop-color="#9b9b9b"/>
      <stop offset="0.5333333333333333" stop-color="#5b5b5b"/>
      <stop offset="1.0" stop-color="#232323"/>
    </radialGradient>
    <radialGradient cx="0" cy="0" gradientTransform="matrix(0.0031, 0.0, 0.0, 0.0031, 0.0, -46.0)" gradientUnits="userSpaceOnUse" id="gradient12" r="819.2" spreadMethod="pad">
      <stop offset="0.0" stop-color="#ffffff"/>
      <stop offset="0.1803921568627451" stop-color="#b5b5b5"/>
      <stop offset="0.6274509803921569" stop-color="#6b6b6b"/>
      <stop offset="1.0" stop-color="#4a4a4a"/>
    </radialGradient>
    <linearGradient gradientTransform="matrix(-0.0036, 0.0116, -0.0116, -0.0036, 0.0, -31.6)" gradientUnits="userSpaceOnUse" id="gradient13" spreadMethod="pad" x1="-819.2" x2="819.2">
      <stop offset="0.0" stop-color="#8a8a8a"/>
      <stop offset="0.16862745098039217" stop-color="#6d6d6d"/>
      <stop offset="0.7568627450980392" stop-color="#a4a4a4"/>
      <stop offset="1.0" stop-color="#dfdfdf"/>
    </linearGradient>
    <radialGradient cx="0" cy="0" gradientTransform="matrix(-1.0E-4, -0.0146, 0.0095, -1.0E-4, 0.0, -22.0)" gradientUnits="userSpaceOnUse" id="gradient14" r="819.2" spreadMethod="pad">
      <stop offset="0.058823529411764705" stop-color="#f0f0f0"/>
      <stop offset="0.22745098039215686" stop-color="#c2c2c2"/>
      <stop offset="0.4980392156862745" stop-color="#797979"/>
      <stop offset="0.7215686274509804" stop-color="#585858"/>
      <stop offset="1.0" stop-color="#555555"/>
    </radialGradient>
    <radialGradient cx="0" cy="0" fx="-1616.0" fy="0" gradientTransform="matrix(0.0, -0.0134, 0.0137, 0.0, -0.1, -14.7)" gradientUnits="userSpaceOnUse" id="gradient15" r="819.2" spreadMethod="pad">
      <stop offset="0.054901960784313725" stop-color="#d5d5d5"/>
      <stop offset="0.2980392156862745" stop-color="#9b9b9b"/>
      <stop offset="0.7568627450980392" stop-color="#383838"/>
      <stop offset="0.9725490196078431" stop-color="#666666"/>
    </radialGradient>
    <linearGradient gradientTransform="matrix(0.0098, 0.0, 0.0, 0.0012, 0.0, -13.0)" gradientUnits="userSpaceOnUse" id="gradient16" spreadMethod="pad" x1="-819.2" x2="819.2">
      <stop offset="0.0" stop-color="#555555"/>
      <stop offset="0.09803921568627451" stop-color="#383838"/>
      <stop offset="0.403921568627451" stop-color="#aaaaaa"/>
      <stop offset="0.5882352941176471" stop-color="#aaaaaa"/>
      <stop offset="0.8941176470588236" stop-color="#383838"/>
      <stop offset="1.0" stop-color="#555555"/>
    </linearGradient>
    <radialGradient cx="0" cy="0" gradientTransform="matrix(0.0195, 0.0, 0.0, 0.0017, 0.0, -3.0)" gradientUnits="userSpaceOnUse" id="gradient17" r="819.2" spreadMethod="pad">
      <stop offset="0.08627450980392157" stop-color="#ffffff"/>
      <stop offset="0.3254901960784314" stop-color="#cacaca"/>
      <stop offset="0.49411764705882355" stop-color="#8d8d8d"/>
      <stop offset="0.8666666666666667" stop-color="#515151"/>
      <stop offset="0.9294117647058824" stop-color="#6a6a6a"/>
    </radialGradient>
    <radialGradient cx="0" cy="0" gradientTransform="matrix(-1.0E-4, -0.0158, 0.0131, -1.0E-4, 0.0, -4.0)" gradientUnits="userSpaceOnUse" id="gradient18" r="819.2" spreadMethod="pad">
      <stop offset="0.08627450980392157" stop-color="#dbdbdb"/>
      <stop offset="0.21568627450980393" stop-color="#bababa"/>
      <stop offset="0.4392156862745098" stop-color="#838383"/>
      <stop offset="0.596078431372549" stop-color="#5b5b5b"/>
      <stop offset="0.7372549019607844" stop-color="#383838"/>
      <stop offset="0.8823529411764706" stop-color="#4a4a4a"/>
    </radialGradient>
    <linearGradient gradientTransform="matrix(-1.0E-4, 0.0125, -0.0061, 0.0, 0.0, -31.35)" gradientUnits="userSpaceOnUse" id="gradient19" spreadMethod="pad" x1="-819.2" x2="819.2">
      <stop offset="0.0" stop-color="#2d3c4a"/>
      <stop offset="0.37254901960784315" stop-color="#42586f"/>
      <stop offset="0.6666666666666666" stop-color="#5f767c"/>
      <stop offset="0.984313725490196" stop-color="#435b67"/>
    </linearGradient>
    <linearGradient gradientTransform="matrix(1.0E-4, 0.0125, 0.0061, 0.0, 0.0, -31.35)" gradientUnits="userSpaceOnUse" id="gradient20" spreadMethod="pad" x1="-819.2" x2="819.2">
      <stop offset="0.0" stop-color="#2d3c4a"/>
      <stop offset="0.37254901960784315" stop-color="#42586f"/>
      <stop offset="0.6666666666666666" stop-color="#5f767c"/>
      <stop offset="0.984313725490196" stop-color="#435b67"/>
    </linearGradient>
    <linearGradient gradientTransform="matrix(1.0E-4, 0.0099, -0.0099, 1.0E-4, 0.0, -31.6)" gradientUnits="userSpaceOnUse" id="gradient21" spreadMethod="pad" x1="-819.2" x2="819.2">
      <stop offset="0.0" stop-color="#585858"/>
      <stop offset="0.6784313725490196" stop-color="#8a8a8a"/>
      <stop offset="0.9098039215686274" stop-color="#e6e6e6"/>
    </linearGradient>
  </defs>
</svg>
