<?xml version="1.0" encoding="UTF-8" standalone="no"?>
<svg xmlns:xlink="http://www.w3.org/1999/xlink" height="148.9px" width="33.0px" xmlns="http://www.w3.org/2000/svg">
  <g transform="matrix(1.0, 0.0, 0.0, 1.0, 12.5, 73.5)">
    <path d="M8.4 -67.9 Q12.3 -71.15 17.0 -73.25 L18.85 -73.35 Q19.75 -73.05 20.25 -72.15 20.7 -71.25 20.4 -70.3 L18.9 -65.1 Q9.25 -31.95 7.15 -1.05 6.85 3.75 6.55 18.5 L10.0 18.5 Q11.05 18.5 11.8 19.25 12.5 19.95 12.5 21.0 L12.5 24.0 Q12.5 25.05 11.8 25.8 11.05 26.5 10.0 26.5 L6.6 26.5 6.5 27.15 6.5 28.0 Q6.5 37.65 7.25 46.55 8.15 57.05 10.65 69.5 11.1 71.7 10.35 72.7 L10.25 72.85 Q9.85 73.75 8.0 74.4 L8.05 74.35 Q5.4 75.3 2.85 75.4 0.95 75.5 0.25 74.9 -1.15 74.3 -1.6 71.8 -3.95 58.6 -4.95 49.2 -6.3 37.1 -6.5 28.05 L-6.5 27.0 -6.55 26.5 -10.0 26.5 Q-11.05 26.5 -11.75 25.8 -12.5 25.05 -12.5 24.0 L-12.5 21.0 Q-12.5 19.95 -11.75 19.25 -11.05 18.5 -10.0 18.5 L-6.45 18.5 Q-5.3 -24.95 7.6 -66.7 7.8 -67.45 8.4 -67.9" fill="#000000" fill-rule="evenodd" stroke="none"/>
    <path d="M4.75 46.75 Q5.65 57.4 8.2 70.0 8.4 71.0 8.15 71.45 L7.2 72.0 2.7 72.9 1.55 72.75 Q1.05 72.45 0.85 71.35 -1.5 58.25 -2.5 48.9 -3.8 36.95 -4.0 28.0 L4.0 28.0 Q4.0 37.75 4.75 46.75" fill="url(#gradient0)" fill-rule="evenodd" stroke="none"/>
    <path d="M7.5 66.5 L8.2 70.0 Q8.4 71.0 8.15 71.45 L7.2 72.0 2.7 72.9 1.55 72.75 Q1.05 72.45 0.85 71.35 L0.25 67.9 2.35 67.5 2.9 67.5 3.35 67.8 3.55 68.25 4.55 68.1 Q4.45 67.7 4.7 67.35 4.9 67.0 5.3 66.95 L7.5 66.5" fill="#000000" fill-opacity="0.2" fill-rule="evenodd" stroke="none"/>
    <path d="M5.5 67.9 L7.7 67.5 8.2 70.0 Q8.4 71.0 8.15 71.45 L7.2 72.0 2.7 72.9 1.55 72.75 Q1.05 72.45 0.85 71.35 L0.45 68.9 2.55 68.45 2.7 69.4 5.7 68.9 5.5 67.9" fill="url(#gradient1)" fill-rule="evenodd" stroke="none"/>
    <path d="M7.2 71.9 L4.9 72.65 2.5 72.75 Q1.55 72.65 1.45 72.2 1.4 71.75 2.25 71.25 3.2 70.85 4.55 70.6 L6.95 70.4 Q7.95 70.55 8.0 71.0 8.1 71.45 7.2 71.9" fill="url(#gradient2)" fill-rule="evenodd" stroke="none"/>
    <path d="M4.0 27.0 L-4.0 27.0 -4.3 24.0 4.4 24.0 4.0 27.0" fill="url(#gradient3)" fill-rule="evenodd" stroke="none"/>
    <path d="M4.0 28.0 L-4.0 28.0 -4.0 27.0 4.0 27.0 4.0 28.0" fill="url(#gradient4)" fill-rule="evenodd" stroke="none"/>
  </g>
  <defs>
    <radialGradient cx="0" cy="0" gradientTransform="matrix(0.0165, -0.0014, 0.0089, 0.1062, 7.6, 44.25)" gradientUnits="userSpaceOnUse" id="gradient0" r="819.2" spreadMethod="pad">
      <stop offset="0.2" stop-color="#2d323e"/>
      <stop offset="0.5019607843137255" stop-color="#4f5868"/>
      <stop offset="0.7607843137254902" stop-color="#2d303e"/>
    </radialGradient>
    <linearGradient gradientTransform="matrix(0.0046, -9.0E-4, 6.0E-4, 0.0032, 4.5, 70.5)" gradientUnits="userSpaceOnUse" id="gradient1" spreadMethod="pad" x1="-819.2" x2="819.2">
      <stop offset="0.0" stop-color="#584e3d"/>
      <stop offset="0.3333333333333333" stop-color="#95836a"/>
      <stop offset="0.6352941176470588" stop-color="#a0937a"/>
      <stop offset="1.0" stop-color="#5b5240"/>
    </linearGradient>
    <radialGradient cx="0" cy="0" gradientTransform="matrix(-2.0E-4, -0.0012, 0.0038, -7.0E-4, 4.7, 71.6)" gradientUnits="userSpaceOnUse" id="gradient2" r="819.2" spreadMethod="pad">
      <stop offset="0.0" stop-color="#f1e6c5" stop-opacity="0.6"/>
      <stop offset="0.7568627450980392" stop-color="#ffffff" stop-opacity="0.0"/>
    </radialGradient>
    <linearGradient gradientTransform="matrix(0.0053, 0.0, 0.0, 0.0018, 0.05, 25.5)" gradientUnits="userSpaceOnUse" id="gradient3" spreadMethod="pad" x1="-819.2" x2="819.2">
      <stop offset="0.0" stop-color="#584e3d"/>
      <stop offset="0.3333333333333333" stop-color="#95836a"/>
      <stop offset="0.6352941176470588" stop-color="#a0937a"/>
      <stop offset="1.0" stop-color="#5b5240"/>
    </linearGradient>
    <linearGradient gradientTransform="matrix(0.0049, 0.0, 0.0, 6.0E-4, 0.0, 27.5)" gradientUnits="userSpaceOnUse" id="gradient4" spreadMethod="pad" x1="-819.2" x2="819.2">
      <stop offset="0.0" stop-color="#71644f"/>
      <stop offset="0.3333333333333333" stop-color="#ada089"/>
      <stop offset="0.6392156862745098" stop-color="#ada089"/>
      <stop offset="1.0" stop-color="#71644f"/>
    </linearGradient>
  </defs>
</svg>
