<?xml version="1.0" encoding="UTF-8" standalone="no"?>
<svg xmlns:xlink="http://www.w3.org/1999/xlink" height="100.0px" width="28.0px" xmlns="http://www.w3.org/2000/svg">
  <g transform="matrix(1.0, 0.0, 0.0, 1.0, 10.0, 71.0)">
    <path d="M13.9 -64.7 Q8.05 -44.7 5.7 -21.7 3.7 -2.45 4.0 21.0 L-4.0 21.0 Q-3.15 -23.4 10.0 -66.0 L13.9 -64.7" fill="url(#gradient0)" fill-rule="evenodd" stroke="none"/>
    <path d="M10.0 -66.0 Q13.65 -69.05 18.0 -71.0 L16.5 -65.8 Q14.3 -64.3 11.9 -62.25 L10.0 -66.0" fill="#ffffff" fill-rule="evenodd" stroke="none"/>
    <path d="M16.5 -65.8 Q6.75 -32.35 4.65 -1.2 3.8 16.35 4.0 21.0 L0.0 21.3 0.0 16.0 Q0.4 -5.9 3.15 -23.6 5.8 -40.75 11.95 -62.35 14.05 -64.4 16.5 -65.8" fill="url(#gradient1)" fill-rule="evenodd" stroke="none"/>
    <path d="M0.8 16.0 L1.25 9.8 1.9 9.2 2.0 8.25 2.35 2.15 3.75 1.4 2.9 21.0 -4.0 21.0 -4.0 17.0 -1.2 17.0 -1.1 16.95 -1.1 16.9 -1.0 16.0 0.8 16.0" fill="url(#gradient2)" fill-rule="evenodd" stroke="none"/>
    <path d="M2.75 9.0 L3.15 0.15 4.65 -0.95 Q4.05 12.8 4.0 18.0 L4.0 21.0 -4.0 21.0 -4.0 18.0 0.0 18.0 0.0 17.0 1.55 17.0 Q2.05 16.85 2.0 16.0 L2.3 9.9 Q2.65 9.75 2.75 9.0" fill="url(#gradient3)" fill-rule="evenodd" stroke="none"/>
    <path d="M7.0 21.0 L10.0 21.0 10.0 24.0 7.0 24.0 7.0 21.0 M6.0 24.0 L-6.0 24.0 -6.0 21.0 6.0 21.0 6.0 24.0 M-7.0 24.0 L-10.0 24.0 -10.0 21.0 -7.0 21.0 -7.0 24.0" fill="url(#gradient4)" fill-rule="evenodd" stroke="none"/>
    <path d="M6.0 21.0 L7.0 21.0 7.0 24.0 6.0 24.0 6.0 21.0" fill="url(#gradient5)" fill-rule="evenodd" stroke="none"/>
    <path d="M-6.0 24.0 L-7.0 24.0 -7.0 21.0 -6.0 21.0 -6.0 24.0" fill="url(#gradient6)" fill-rule="evenodd" stroke="none"/>
    <path d="M5.0 25.0 L-5.0 25.0 -5.0 24.0 5.0 24.0 5.0 25.0 M4.0 29.0 L-4.0 29.0 -4.0 28.0 4.0 28.0 4.0 29.0" fill="#000000" fill-opacity="0.2" fill-rule="evenodd" stroke="none"/>
  </g>
  <defs>
    <linearGradient gradientTransform="matrix(0.0318, -0.0135, 0.0207, 0.0487, 5.3, -22.55)" gradientUnits="userSpaceOnUse" id="gradient0" spreadMethod="pad" x1="-819.2" x2="819.2">
      <stop offset="0.0" stop-color="#bbbbbb"/>
      <stop offset="0.33725490196078434" stop-color="#b0b0b0"/>
      <stop offset="0.6941176470588235" stop-color="#ffffff"/>
      <stop offset="0.8549019607843137" stop-color="#d8d8d8"/>
    </linearGradient>
    <linearGradient gradientTransform="matrix(0.0334, -0.0193, 0.0259, 0.0448, 8.2, -21.5)" gradientUnits="userSpaceOnUse" id="gradient1" spreadMethod="pad" x1="-819.2" x2="819.2">
      <stop offset="0.0" stop-color="#919191"/>
      <stop offset="0.4196078431372549" stop-color="#636363"/>
      <stop offset="0.6235294117647059" stop-color="#9b9b9b"/>
      <stop offset="1.0" stop-color="#b8b8b8"/>
    </linearGradient>
    <linearGradient gradientTransform="matrix(0.0043, 0.0, 0.0, 0.0116, -0.5, 11.5)" gradientUnits="userSpaceOnUse" id="gradient2" spreadMethod="pad" x1="-819.2" x2="819.2">
      <stop offset="0.0" stop-color="#891818"/>
      <stop offset="1.0" stop-color="#bb1a1a"/>
    </linearGradient>
    <linearGradient gradientTransform="matrix(0.006, -1.0E-4, 2.0E-4, 0.0135, 0.25, 10.25)" gradientUnits="userSpaceOnUse" id="gradient3" spreadMethod="pad" x1="-819.2" x2="819.2">
      <stop offset="0.0" stop-color="#363c50"/>
      <stop offset="0.396078431372549" stop-color="#606275"/>
      <stop offset="0.7098039215686275" stop-color="#333744"/>
    </linearGradient>
    <linearGradient gradientTransform="matrix(0.0122, 0.0, 0.0, 0.0018, 0.0, 22.5)" gradientUnits="userSpaceOnUse" id="gradient4" spreadMethod="pad" x1="-819.2" x2="819.2">
      <stop offset="0.0" stop-color="#424953"/>
      <stop offset="0.47843137254901963" stop-color="#727c8d"/>
      <stop offset="0.7294117647058823" stop-color="#4b555f"/>
      <stop offset="1.0" stop-color="#58606d"/>
    </linearGradient>
    <linearGradient gradientTransform="matrix(-6.0E-4, 0.0, 0.0, -0.0018, 6.5, 22.5)" gradientUnits="userSpaceOnUse" id="gradient5" spreadMethod="pad" x1="-819.2" x2="819.2">
      <stop offset="0.0" stop-color="#424753"/>
      <stop offset="1.0" stop-color="#757e8a"/>
    </linearGradient>
    <linearGradient gradientTransform="matrix(-6.0E-4, 0.0, 0.0, -0.0018, -6.5, 22.5)" gradientUnits="userSpaceOnUse" id="gradient6" spreadMethod="pad" x1="-819.2" x2="819.2">
      <stop offset="0.0" stop-color="#424753"/>
      <stop offset="1.0" stop-color="#757e8a"/>
    </linearGradient>
  </defs>
</svg>
