<?xml version="1.0" encoding="UTF-8" standalone="no"?>
<svg xmlns:xlink="http://www.w3.org/1999/xlink" height="78.35px" width="117.55px" xmlns="http://www.w3.org/2000/svg">
  <g transform="matrix(1.0, 0.0, 0.0, 1.0, 46.3, 41.5)">
    <path d="M34.0 -31.0 Q34.0 -27.35 33.35 -26.1 32.6 -24.6 30.2 -24.3 28.4 -24.05 22.7 -24.2 L9.0 -24.5 3.0 -24.35 Q3.75 -22.8 4.25 -20.3 9.7 -22.95 16.5 -22.5 26.55 -21.8 33.35 -14.6 39.2 -8.35 40.6 1.05 63.15 1.25 68.55 3.25 71.0 4.15 71.25 5.85 L71.0 9.25 Q71.0 12.05 70.35 13.3 69.45 15.05 66.75 16.0 61.1 18.0 40.5 18.0 L39.45 18.0 38.05 22.45 Q33.2 35.85 23.0 35.85 18.45 35.85 16.3 32.05 L15.0 28.1 Q15.0 25.6 16.55 23.2 L20.0 18.95 21.05 17.65 11.65 17.0 13.0 22.6 Q13.0 25.95 11.0 28.3 8.8 30.85 5.0 30.85 L4.85 30.85 Q4.4 32.95 2.8 34.4 0.0 36.85 -6.0 36.85 -18.25 36.85 -28.85 23.3 -30.4 32.85 -38.0 32.85 -44.65 32.85 -45.95 21.7 -46.65 16.1 -46.0 9.75 L-45.5 -3.0 Q-45.0 -15.5 -45.0 -21.75 -47.05 -28.0 -44.35 -33.2 -42.0 -37.7 -37.2 -39.75 -32.55 -41.75 -28.95 -40.1 -25.0 -38.25 -25.0 -32.75 L-25.55 -29.7 Q-23.15 -32.8 -18.3 -35.35 -9.7 -39.85 3.0 -41.1 15.45 -42.35 24.3 -39.8 34.0 -37.05 34.0 -31.0 M10.3 -5.1 Q9.6 -3.95 8.4 0.25 L8.05 1.4 Q13.75 1.15 23.8 1.05 L23.05 -0.75 Q20.05 -7.5 14.5 -7.5 11.7 -7.5 10.3 -5.1 M-27.55 -19.25 Q-28.75 -12.75 -29.35 -7.7 L-27.15 -4.65 Q-24.05 -0.1 -23.0 2.25 -20.95 8.6 -16.05 12.75 -12.8 15.55 -6.7 18.3 L-6.05 18.6 Q-7.25 15.15 -8.25 10.75 -10.5 0.65 -11.0 -9.85 -11.0 -13.65 -8.5 -18.7 -7.1 -21.6 -5.5 -23.5 -12.75 -22.25 -13.5 -19.25 -13.5 -16.6 -14.05 -15.65 -15.0 -14.0 -20.0 -14.0 -25.4 -14.0 -27.2 -18.35 L-27.55 -19.25" fill="#009900" fill-rule="evenodd" stroke="none"/>
  </g>
</svg>
