<?xml version="1.0" encoding="UTF-8" standalone="no"?>
<svg xmlns:xlink="http://www.w3.org/1999/xlink" height="114.0px" width="114.0px" xmlns="http://www.w3.org/2000/svg">
  <g transform="matrix(1.0, 0.0, 0.0, 1.0, 57.0, 57.0)">
    <path d="M39.6 -39.6 Q56.0 -23.2 56.0 0.0 56.0 23.2 39.6 39.6 23.2 56.0 0.0 56.0 -23.2 56.0 -39.6 39.6 -56.0 23.2 -56.0 0.0 -56.0 -23.2 -39.6 -39.6 -23.2 -56.0 0.0 -56.0 23.2 -56.0 39.6 -39.6" fill="url(#gradient0)" fill-rule="evenodd" stroke="none"/>
    <path d="M39.6 -39.6 Q56.0 -23.2 56.0 0.0 56.0 23.2 39.6 39.6 23.2 56.0 0.0 56.0 -23.2 56.0 -39.6 39.6 -56.0 23.2 -56.0 0.0 -56.0 -23.2 -39.6 -39.6 -23.2 -56.0 0.0 -56.0 23.2 -56.0 39.6 -39.6 Z" fill="none" stroke="#000000" stroke-linecap="round" stroke-linejoin="round" stroke-width="2.0"/>
    <path d="M33.95 -33.95 Q48.0 -19.9 48.0 0.0 48.0 19.9 33.95 33.95 19.9 48.0 0.0 48.0 -19.9 48.0 -33.95 33.95 -48.0 19.9 -48.0 0.0 -48.0 -19.9 -33.95 -33.95 -19.9 -48.0 0.0 -48.0 19.9 -48.0 33.95 -33.95" fill="url(#gradient1)" fill-rule="evenodd" stroke="none"/>
    <path d="M30.55 -30.6 Q43.25 -17.9 43.25 0.0 43.25 17.9 30.55 30.55 17.9 43.25 0.0 43.25 -17.9 43.25 -30.6 30.55 -43.25 17.9 -43.25 0.0 -43.25 -17.9 -30.6 -30.6 -17.9 -43.25 0.0 -43.25 17.9 -43.25 30.55 -30.6" fill="url(#gradient2)" fill-rule="evenodd" stroke="none"/>
    <path d="M39.25 -8.0 Q40.0 -4.15 40.0 0.0 40.0 4.15 39.25 8.0 38.45 12.2 36.8 16.0 34.9 20.2 32.0 24.0 L28.25 28.25 24.0 32.0 Q16.8 37.55 8.0 39.25 L0.0 40.0 -8.0 39.25 Q-16.8 37.55 -24.05 32.0 L-28.3 28.25 -32.05 24.0 Q-34.95 20.2 -36.8 16.0 -38.45 12.2 -39.25 8.0 -40.0 4.15 -40.0 0.0 -40.0 -4.15 -39.25 -8.0 -38.45 -12.2 -36.8 -16.0 -34.95 -20.2 -32.05 -24.0 L-28.3 -28.3 -24.1 -32.0 Q-16.85 -37.6 -8.0 -39.25 L0.0 -40.0 8.0 -39.25 Q16.85 -37.55 24.05 -32.0 L28.25 -28.3 32.05 -24.0 Q34.95 -20.2 36.8 -16.0 38.45 -12.2 39.25 -8.0" fill="url(#gradient3)" fill-rule="evenodd" stroke="none"/>
    <path d="M8.0 -39.25 L8.0 39.25 0.0 40.0 -8.0 39.25 -8.0 -39.25 0.0 -40.0 8.0 -39.25" fill="url(#gradient4)" fill-rule="evenodd" stroke="none"/>
    <path d="M8.0 -39.25 L8.0 39.25 M-8.0 39.25 L-8.0 -39.25" fill="none" stroke="url(#gradient5)" stroke-linecap="round" stroke-linejoin="round" stroke-width="2.0"/>
    <path d="M28.25 -28.3 Q40.0 -16.55 40.0 0.0 40.0 16.55 28.25 28.25 19.5 37.05 8.0 39.25 L0.0 40.0 -8.0 39.25 Q-19.5 37.05 -28.3 28.25 -40.0 16.55 -40.0 0.0 -40.0 -16.55 -28.3 -28.3 -19.5 -37.05 -8.0 -39.25 L0.0 -40.0 8.0 -39.25 Q19.5 -37.05 28.25 -28.3 M0.0 -40.0 L0.0 40.0" fill="none" stroke="#45402c" stroke-linecap="round" stroke-linejoin="round" stroke-width="2.0"/>
    <path d="M23.2 -1.9 Q25.15 0.05 25.15 2.8 25.15 5.55 23.2 7.5 21.25 9.45 18.5 9.45 15.7 9.45 13.8 7.5 11.85 5.55 11.85 2.8 11.85 0.05 13.8 -1.9 15.7 -3.85 18.5 -3.85 21.25 -3.85 23.2 -1.9" fill="#6c6353" fill-rule="evenodd" stroke="none"/>
    <path d="M22.25 -4.25 Q24.0 -2.5 24.0 0.0 24.0 2.5 22.25 4.25 20.5 6.0 18.0 6.0 15.5 6.0 13.75 4.25 12.0 2.5 12.0 0.0 12.0 -2.5 13.75 -4.25 15.5 -6.0 18.0 -6.0 20.5 -6.0 22.25 -4.25" fill="#c1beb5" fill-rule="evenodd" stroke="none"/>
    <path d="M22.25 -4.25 Q24.0 -2.5 24.0 0.0 24.0 2.5 22.25 4.25 20.5 6.0 18.0 6.0 15.5 6.0 13.75 4.25 12.0 2.5 12.0 0.0 12.0 -2.5 13.75 -4.25 15.5 -6.0 18.0 -6.0 20.5 -6.0 22.25 -4.25 Z" fill="none" stroke="url(#gradient6)" stroke-linecap="round" stroke-linejoin="round" stroke-width="2.0"/>
  </g>
  <defs>
    <linearGradient gradientTransform="matrix(-0.0177, -0.066, 0.066, -0.0177, 0.0, 0.0)" gradientUnits="userSpaceOnUse" id="gradient0" spreadMethod="pad" x1="-819.2" x2="819.2">
      <stop offset="0.0" stop-color="#e7972e"/>
      <stop offset="0.17254901960784313" stop-color="#7e5a2c"/>
      <stop offset="0.34901960784313724" stop-color="#f4ba0b"/>
      <stop offset="0.7764705882352941" stop-color="#f4e351"/>
      <stop offset="1.0" stop-color="#fefcf1"/>
    </linearGradient>
    <linearGradient gradientTransform="matrix(0.0, -0.0586, 0.0586, 0.0, 0.0, 0.0)" gradientUnits="userSpaceOnUse" id="gradient1" spreadMethod="pad" x1="-819.2" x2="819.2">
      <stop offset="0.0" stop-color="#d3cbc0"/>
      <stop offset="0.13725490196078433" stop-color="#b5aa97"/>
      <stop offset="1.0" stop-color="#827668"/>
    </linearGradient>
    <linearGradient gradientTransform="matrix(0.0, 0.0528, -0.0528, 0.0, 0.0, 0.0)" gradientUnits="userSpaceOnUse" id="gradient2" spreadMethod="pad" x1="-819.2" x2="819.2">
      <stop offset="0.0" stop-color="#b3ad99"/>
      <stop offset="1.0" stop-color="#a49c86"/>
    </linearGradient>
    <linearGradient gradientTransform="matrix(0.0, -0.0488, 0.0488, 0.0, 0.0, 0.0)" gradientUnits="userSpaceOnUse" id="gradient3" spreadMethod="pad" x1="-819.2" x2="819.2">
      <stop offset="0.0" stop-color="#9e967c"/>
      <stop offset="1.0" stop-color="#c6c1b3"/>
    </linearGradient>
    <linearGradient gradientTransform="matrix(0.0, -0.0452, 0.0488, 0.0, 0.0, 0.0)" gradientUnits="userSpaceOnUse" id="gradient4" spreadMethod="pad" x1="-819.2" x2="819.2">
      <stop offset="0.0" stop-color="#9e967c"/>
      <stop offset="1.0" stop-color="#cbc7b4"/>
    </linearGradient>
    <radialGradient cx="0" cy="0" gradientTransform="matrix(0.0501, 0.0, 0.0, 0.0501, 0.0, 0.0)" gradientUnits="userSpaceOnUse" id="gradient5" r="819.2" spreadMethod="pad">
      <stop offset="0.1803921568627451" stop-color="#968d75"/>
      <stop offset="0.8235294117647058" stop-color="#706456"/>
      <stop offset="1.0" stop-color="#4f463e"/>
    </radialGradient>
    <linearGradient gradientTransform="matrix(-8.0E-4, -0.0085, 0.0085, -8.0E-4, 18.0, 0.0)" gradientUnits="userSpaceOnUse" id="gradient6" spreadMethod="pad" x1="-819.2" x2="819.2">
      <stop offset="0.26666666666666666" stop-color="#938773"/>
      <stop offset="0.5490196078431373" stop-color="#b5afa6"/>
      <stop offset="0.8549019607843137" stop-color="#e3dfdb"/>
    </linearGradient>
  </defs>
</svg>
