<?xml version="1.0" encoding="UTF-8" standalone="no"?>
<svg xmlns:xlink="http://www.w3.org/1999/xlink" height="37.0px" width="484.0px" xmlns="http://www.w3.org/2000/svg">
  <g transform="matrix(1.0, 0.0, 0.0, 1.0, 3.0, 15.0)">
    <path d="M56.0 -3.0 L478.0 -3.0 Q481.0 -3.0 481.0 0.0 L481.0 19.0 Q481.0 22.0 478.0 22.0 L0.0 22.0 Q-3.0 22.0 -3.0 19.0 L-3.0 -12.0 Q-3.0 -15.0 0.0 -15.0 L53.0 -15.0 Q56.0 -15.0 56.0 -12.0 L56.0 -3.0 M476.0 1.0 L2.0 1.0 Q1.0 1.0 1.0 2.0 L1.0 17.0 Q1.0 18.0 2.0 18.0 L476.0 18.0 Q477.0 18.0 477.0 17.0 L477.0 2.0 Q477.0 1.0 476.0 1.0" fill="#000000" fill-rule="evenodd" stroke="none"/>
    <path d="M53.0 -14.0 Q55.0 -14.0 55.0 -12.0 L55.0 -2.0 478.0 -2.0 Q480.0 -2.0 480.0 0.0 L480.0 19.0 Q480.0 21.0 478.0 21.0 L0.0 21.0 Q-2.0 21.0 -2.0 19.0 L-2.0 -12.0 Q-2.0 -14.0 0.0 -14.0 L53.0 -14.0 M478.0 2.0 Q478.0 0.0 476.0 0.0 L2.0 0.0 Q0.0 0.0 0.0 2.0 L0.0 17.0 Q0.0 19.0 2.0 19.0 L476.0 19.0 Q478.0 19.0 478.0 17.0 L478.0 2.0" fill="#00ff00" fill-rule="evenodd" stroke="none"/>
  </g>
</svg>
