<?xml version="1.0" encoding="UTF-8" standalone="no"?>
<svg xmlns:xlink="http://www.w3.org/1999/xlink" height="159.0px" width="17.0px" xmlns="http://www.w3.org/2000/svg">
  <g transform="matrix(1.0, 0.0, 0.0, 1.0, 8.5, 79.5)">
    <path d="M4.85 -76.6 Q6.8 -74.35 7.45 -71.55 7.6 -70.8 7.35 -70.05 L6.65 -69.1 7.5 -68.45 Q8.55 -67.4 8.5 -66.0 8.55 -64.6 7.5 -63.5 L6.55 -62.85 6.5 -62.7 6.5 -62.65 7.4 -62.05 Q8.1 -61.6 8.4 -60.8 8.65 -60.0 8.4 -59.2 8.1 -58.4 7.4 -57.9 L6.1 -57.05 6.0 -54.95 6.0 -54.8 Q5.75 -50.0 5.65 -44.4 5.5 -38.4 5.5 -26.5 6.0 -25.85 6.0 -25.0 L6.0 -23.0 Q6.0 -22.15 5.5 -21.45 L5.5 21.45 Q6.0 22.15 6.0 23.0 L6.0 25.0 Q6.0 25.85 5.5 26.5 5.5 38.4 5.65 44.4 L6.0 54.95 6.1 57.05 7.4 57.9 Q8.1 58.4 8.4 59.2 8.65 60.0 8.4 60.8 8.1 61.6 7.4 62.05 L6.5 62.65 6.5 62.7 6.55 62.85 7.5 63.5 Q8.55 64.6 8.5 66.0 8.55 67.4 7.5 68.45 L6.65 69.1 7.35 70.05 Q7.6 70.8 7.45 71.55 6.8 74.35 4.85 76.6 2.65 79.2 0.45 79.45 L-0.4 79.45 Q-2.65 79.2 -4.85 76.6 -6.8 74.35 -7.45 71.55 L-7.3 70.05 -6.65 69.1 -7.45 68.45 Q-8.55 67.4 -8.5 66.0 -8.55 64.6 -7.45 63.5 L-6.55 62.85 -6.5 62.7 -7.35 62.05 Q-8.1 61.6 -8.35 60.8 -8.65 60.0 -8.35 59.2 -8.1 58.4 -7.35 57.9 L-6.1 57.05 -5.95 54.9 -5.6 44.4 -5.5 26.5 Q-6.0 25.85 -6.0 25.0 L-6.0 23.0 Q-6.0 22.15 -5.5 21.45 L-5.5 -21.45 Q-6.0 -22.15 -6.0 -23.0 L-6.0 -25.0 Q-6.0 -25.85 -5.5 -26.5 L-5.6 -44.4 -5.95 -54.8 -5.95 -54.9 -6.1 -57.05 -7.35 -57.9 Q-8.1 -58.4 -8.35 -59.2 -8.65 -60.0 -8.35 -60.8 -8.1 -61.6 -7.35 -62.05 L-6.5 -62.65 -6.5 -62.7 -6.55 -62.85 -7.45 -63.5 Q-8.55 -64.6 -8.5 -66.0 -8.55 -67.4 -7.45 -68.45 L-6.65 -69.1 -7.3 -70.05 -7.45 -71.55 Q-6.8 -74.35 -4.85 -76.6 -2.65 -79.2 -0.4 -79.45 L0.45 -79.45 Q2.65 -79.2 4.85 -76.6" fill="#000000" fill-rule="evenodd" stroke="none"/>
    <path d="M3.0 61.25 L3.0 58.75 3.25 58.95 Q3.7 59.4 3.7 60.0 L3.25 61.05 3.0 61.25" fill="url(#gradient0)" fill-rule="evenodd" stroke="none"/>
    <path d="M-3.0 58.75 L-3.0 61.25 -3.25 61.05 -3.7 60.0 Q-3.7 59.4 -3.25 58.95 L-3.0 58.75" fill="url(#gradient1)" fill-rule="evenodd" stroke="none"/>
    <path d="M3.0 -58.75 L3.25 -58.95 Q3.7 -59.4 3.7 -60.0 L3.25 -61.05 3.0 -61.25 3.0 -62.0 6.0 -60.0 3.0 -58.0 3.0 -58.75" fill="url(#gradient2)" fill-rule="evenodd" stroke="none"/>
    <path d="M-3.0 -58.75 L-3.0 -58.0 -6.0 -60.0 -3.0 -62.0 -3.0 -61.25 -3.25 -61.05 -3.7 -60.0 Q-3.7 -59.4 -3.25 -58.95 L-3.0 -58.75" fill="url(#gradient3)" fill-rule="evenodd" stroke="none"/>
    <path d="M3.0 -61.25 L3.25 -61.05 3.7 -60.0 Q3.7 -59.4 3.25 -58.95 L3.0 -58.75 2.2 -58.5 Q1.6 -58.5 1.15 -58.95 0.7 -59.4 0.7 -60.0 0.7 -60.6 1.15 -61.05 1.6 -61.5 2.2 -61.5 L3.0 -61.25" fill="url(#gradient4)" fill-rule="evenodd" stroke="none"/>
    <path d="M-3.0 -61.25 L-2.2 -61.5 Q-1.6 -61.5 -1.15 -61.05 -0.7 -60.6 -0.7 -60.0 -0.7 -59.4 -1.15 -58.95 -1.6 -58.5 -2.2 -58.5 L-3.0 -58.75 -3.25 -58.95 Q-3.7 -59.4 -3.7 -60.0 L-3.25 -61.05 -3.0 -61.25" fill="url(#gradient5)" fill-rule="evenodd" stroke="none"/>
    <path d="M3.0 61.25 L3.25 61.05 3.7 60.0 Q3.7 59.4 3.25 58.95 L3.0 58.75 3.0 58.0 6.0 60.0 3.0 62.0 3.0 61.25" fill="url(#gradient6)" fill-rule="evenodd" stroke="none"/>
    <path d="M-3.0 61.25 L-3.0 62.0 -6.0 60.0 -3.0 58.0 -3.0 58.75 -3.25 58.95 Q-3.7 59.4 -3.7 60.0 L-3.25 61.05 -3.0 61.25" fill="url(#gradient7)" fill-rule="evenodd" stroke="none"/>
    <path d="M3.0 23.0 L-3.0 23.0 -3.0 -23.0 3.0 -23.0 3.0 23.0" fill="url(#gradient8)" fill-rule="evenodd" stroke="none"/>
    <path d="M3.0 -5.5 L-3.0 0.0 M3.0 17.5 L-3.0 23.0 M3.0 0.0 L-3.0 5.5 M3.0 5.8 L-3.0 11.3 M3.0 11.6 L-3.0 17.1 M3.0 -11.4 L-3.0 -5.9 M3.0 -17.2 L-3.0 -11.7 M3.0 -23.0 L-3.0 -17.5" fill="none" stroke="#000000" stroke-linecap="round" stroke-linejoin="miter" stroke-miterlimit="3.0" stroke-opacity="0.15294118" stroke-width="0.25"/>
    <path d="M4.0 -63.0 L3.5 -55.0 Q3.25 -50.15 3.15 -44.45 3.0 -38.3 3.0 -26.0 L3.0 -25.0 0.0 -25.0 -3.0 -25.0 -3.0 -26.0 -3.1 -44.45 -3.45 -55.0 -4.0 -63.0 0.0 -63.0 4.0 -63.0" fill="url(#gradient9)" fill-rule="evenodd" stroke="none"/>
    <path d="M0.0 25.0 L3.0 25.0 3.0 26.0 Q3.0 38.3 3.15 44.45 3.25 50.15 3.5 55.0 L4.0 63.0 0.0 63.0 -4.0 63.0 -3.45 55.0 -3.1 44.45 -3.0 26.0 -3.0 25.0 0.0 25.0" fill="url(#gradient10)" fill-rule="evenodd" stroke="none"/>
    <path d="M-5.0 65.0 Q-4.15 64.0 -4.0 63.0 L0.0 63.0 4.0 63.0 Q4.15 64.0 5.0 65.0 L-5.0 65.0" fill="url(#gradient11)" fill-rule="evenodd" stroke="none"/>
    <path d="M5.0 -65.0 Q4.15 -64.0 4.0 -63.0 L0.0 -63.0 -4.0 -63.0 Q-4.15 -64.0 -5.0 -65.0 L5.0 -65.0" fill="url(#gradient12)" fill-rule="evenodd" stroke="none"/>
    <path d="M-4.0 -71.0 L0.0 -71.0 4.0 -71.0 Q3.05 -70.3 3.05 -69.05 3.05 -67.8 4.0 -67.0 L-4.0 -67.0 Q-3.05 -67.8 -3.05 -69.05 -3.05 -70.3 -4.0 -71.0" fill="url(#gradient13)" fill-rule="evenodd" stroke="none"/>
    <path d="M4.0 67.0 Q3.05 67.8 3.05 69.05 3.05 70.3 4.0 71.0 L0.0 71.0 -4.0 71.0 Q-3.05 70.3 -3.05 69.05 -3.05 67.8 -4.0 67.0 L4.0 67.0" fill="url(#gradient14)" fill-rule="evenodd" stroke="none"/>
    <path d="M-4.0 -71.0 L-5.0 -71.0 Q-4.5 -73.2 -2.95 -75.0 -1.45 -76.75 0.0 -77.0 1.45 -76.75 2.95 -75.0 4.5 -73.2 5.0 -71.0 L4.0 -71.0 0.0 -71.0 -4.0 -71.0" fill="url(#gradient15)" fill-rule="evenodd" stroke="none"/>
    <path d="M4.0 71.0 L5.0 71.0 Q4.5 73.2 2.95 75.0 1.45 76.75 0.0 77.0 -1.45 76.75 -2.95 75.0 -4.5 73.2 -5.0 71.0 L-4.0 71.0 0.0 71.0 4.0 71.0" fill="url(#gradient16)" fill-rule="evenodd" stroke="none"/>
    <path d="M4.0 -67.0 L5.0 -67.0 5.7 -66.7 6.0 -66.0 5.7 -65.3 Q5.4 -65.0 5.0 -65.0 L-5.0 -65.0 Q-5.4 -65.0 -5.7 -65.3 L-6.0 -66.0 -5.7 -66.7 -5.0 -67.0 -4.0 -67.0 4.0 -67.0" fill="url(#gradient17)" fill-rule="evenodd" stroke="none"/>
    <path d="M3.5 -23.0 L-3.5 -23.0 -3.5 -25.0 3.5 -25.0 3.5 -23.0" fill="url(#gradient18)" fill-rule="evenodd" stroke="none"/>
    <path d="M3.5 25.0 L-3.5 25.0 -3.5 23.0 3.5 23.0 3.5 25.0" fill="url(#gradient19)" fill-rule="evenodd" stroke="none"/>
    <path d="M5.0 65.0 Q5.4 65.0 5.7 65.3 L6.0 66.0 5.7 66.7 5.0 67.0 4.0 67.0 -4.0 67.0 -5.0 67.0 -5.7 66.7 -6.0 66.0 -5.7 65.3 Q-5.4 65.0 -5.0 65.0 L5.0 65.0" fill="url(#gradient20)" fill-rule="evenodd" stroke="none"/>
    <path d="M-3.7 -60.0 L-3.25 -61.05 Q-2.8 -61.5 -2.2 -61.5 -1.6 -61.5 -1.15 -61.05 -0.7 -60.6 -0.7 -60.0 -0.7 -59.4 -1.15 -58.95 -1.6 -58.5 -2.2 -58.5 -2.8 -58.5 -3.25 -58.95 -3.7 -59.4 -3.7 -60.0" fill="url(#gradient21)" fill-rule="evenodd" stroke="none"/>
    <path d="M3.7 -60.0 Q3.7 -59.4 3.25 -58.95 2.8 -58.5 2.2 -58.5 1.6 -58.5 1.15 -58.95 0.7 -59.4 0.7 -60.0 0.7 -60.6 1.15 -61.05 1.6 -61.5 2.2 -61.5 2.8 -61.5 3.25 -61.05 L3.7 -60.0" fill="url(#gradient22)" fill-rule="evenodd" stroke="none"/>
    <path d="M2.2 58.5 Q2.8 58.5 3.25 58.95 3.7 59.4 3.7 60.0 L3.25 61.05 Q2.8 61.5 2.2 61.5 1.6 61.5 1.15 61.05 0.7 60.6 0.7 60.0 0.7 59.4 1.15 58.95 1.6 58.5 2.2 58.5" fill="url(#gradient23)" fill-rule="evenodd" stroke="none"/>
    <path d="M-3.7 60.0 Q-3.7 59.4 -3.25 58.95 -2.8 58.5 -2.2 58.5 -1.6 58.5 -1.15 58.95 -0.7 59.4 -0.7 60.0 -0.7 60.6 -1.15 61.05 -1.6 61.5 -2.2 61.5 -2.8 61.5 -3.25 61.05 L-3.7 60.0" fill="url(#gradient24)" fill-rule="evenodd" stroke="none"/>
    <path d="M3.0 -45.0 L-3.0 -45.0 -3.0 -46.0 3.0 -46.0 3.0 -45.0 M-3.0 46.0 L3.0 46.0 3.0 47.0 -3.0 47.0 -3.0 46.0" fill="#ffffff" fill-opacity="0.101960786" fill-rule="evenodd" stroke="none"/>
    <path d="M5.0 -73.0 L-5.0 -73.0 -5.0 -74.0 5.0 -74.0 5.0 -73.0 M4.0 -46.0 L-4.0 -46.0 -4.0 -47.0 4.0 -47.0 4.0 -46.0 M3.0 -25.0 L-3.0 -25.0 -3.0 -26.0 3.0 -26.0 3.0 -25.0 M-4.0 45.0 L4.0 45.0 4.0 46.0 -4.0 46.0 -4.0 45.0 M-3.0 25.0 L3.0 25.0 3.0 26.0 -3.0 26.0 -3.0 25.0 M-5.0 73.0 L5.0 73.0 5.0 74.0 -5.0 74.0 -5.0 73.0" fill="#000000" fill-opacity="0.2" fill-rule="evenodd" stroke="none"/>
    <path d="M5.0 -64.0 L-5.0 -64.0 -5.0 -65.0 5.0 -65.0 5.0 -64.0 M5.0 -70.0 L-5.0 -70.0 -5.0 -71.0 5.0 -71.0 5.0 -70.0 M4.0 -62.0 L-4.0 -62.0 -4.0 -63.0 4.0 -63.0 4.0 -62.0 M-5.0 70.0 L5.0 70.0 5.0 71.0 -5.0 71.0 -5.0 70.0 M-4.0 62.0 L4.0 62.0 4.0 63.0 -4.0 63.0 -4.0 62.0" fill="#000000" fill-opacity="0.15294118" fill-rule="evenodd" stroke="none"/>
    <path d="M3.0 -22.0 L-3.0 -22.0 -3.0 -23.0 3.0 -23.0 3.0 -22.0 M-3.0 22.0 L3.0 22.0 3.0 23.0 -3.0 23.0 -3.0 22.0" fill="#000000" fill-opacity="0.3019608" fill-rule="evenodd" stroke="none"/>
  </g>
  <defs>
    <linearGradient gradientTransform="matrix(0.0, -0.0018, 0.0024, 0.0, 4.5, 60.0)" gradientUnits="userSpaceOnUse" id="gradient0" spreadMethod="pad" x1="-819.2" x2="819.2">
      <stop offset="0.0" stop-color="#362801"/>
      <stop offset="0.3411764705882353" stop-color="#836203"/>
      <stop offset="0.5254901960784314" stop-color="#d5a006"/>
      <stop offset="1.0" stop-color="#745703"/>
    </linearGradient>
    <linearGradient gradientTransform="matrix(0.0, -0.0018, 0.0024, 0.0, -4.5, 60.0)" gradientUnits="userSpaceOnUse" id="gradient1" spreadMethod="pad" x1="-819.2" x2="819.2">
      <stop offset="0.0" stop-color="#362801"/>
      <stop offset="0.3411764705882353" stop-color="#836203"/>
      <stop offset="0.5254901960784314" stop-color="#d5a006"/>
      <stop offset="1.0" stop-color="#745703"/>
    </linearGradient>
    <linearGradient gradientTransform="matrix(0.0, -0.0018, 0.0024, 0.0, 4.5, -60.0)" gradientUnits="userSpaceOnUse" id="gradient2" spreadMethod="pad" x1="-819.2" x2="819.2">
      <stop offset="0.0" stop-color="#1a1717"/>
      <stop offset="0.34901960784313724" stop-color="#5f5252"/>
      <stop offset="0.5176470588235295" stop-color="#a29595"/>
      <stop offset="0.7137254901960784" stop-color="#826f6f"/>
      <stop offset="1.0" stop-color="#302c2c"/>
    </linearGradient>
    <linearGradient gradientTransform="matrix(0.0, -0.0018, 0.0024, 0.0, -4.5, -60.0)" gradientUnits="userSpaceOnUse" id="gradient3" spreadMethod="pad" x1="-819.2" x2="819.2">
      <stop offset="0.0" stop-color="#302c2c"/>
      <stop offset="0.34901960784313724" stop-color="#5f5252"/>
      <stop offset="0.5176470588235295" stop-color="#a29595"/>
      <stop offset="0.7137254901960784" stop-color="#826f6f"/>
      <stop offset="1.0" stop-color="#332f2f"/>
    </linearGradient>
    <radialGradient cx="0" cy="0" fx="-848.0" fy="0" gradientTransform="matrix(-0.0048, -0.0036, -0.0012, 0.0017, -0.75, -62.85)" gradientUnits="userSpaceOnUse" id="gradient4" r="819.2" spreadMethod="pad">
      <stop offset="0.0" stop-color="#d0cccc"/>
      <stop offset="0.26666666666666666" stop-color="#9f8d8d"/>
      <stop offset="0.5176470588235295" stop-color="#756868"/>
      <stop offset="1.0" stop-color="#584d4d"/>
    </radialGradient>
    <radialGradient cx="0" cy="0" fx="-848.0" fy="0" gradientTransform="matrix(0.0048, -0.0036, 0.0012, 0.0017, 0.75, -62.85)" gradientUnits="userSpaceOnUse" id="gradient5" r="819.2" spreadMethod="pad">
      <stop offset="0.0" stop-color="#d0cccc"/>
      <stop offset="0.26666666666666666" stop-color="#9f8d8d"/>
      <stop offset="0.5176470588235295" stop-color="#756868"/>
      <stop offset="1.0" stop-color="#584d4d"/>
    </radialGradient>
    <linearGradient gradientTransform="matrix(0.0, -0.0018, 0.0024, 0.0, 4.5, 60.0)" gradientUnits="userSpaceOnUse" id="gradient6" spreadMethod="pad" x1="-819.2" x2="819.2">
      <stop offset="0.0" stop-color="#1a1717"/>
      <stop offset="0.34901960784313724" stop-color="#5f5252"/>
      <stop offset="0.5176470588235295" stop-color="#a29595"/>
      <stop offset="0.7137254901960784" stop-color="#826f6f"/>
      <stop offset="1.0" stop-color="#302c2c"/>
    </linearGradient>
    <linearGradient gradientTransform="matrix(0.0, -0.0018, 0.0024, 0.0, -4.5, 60.0)" gradientUnits="userSpaceOnUse" id="gradient7" spreadMethod="pad" x1="-819.2" x2="819.2">
      <stop offset="0.0" stop-color="#302c2c"/>
      <stop offset="0.34901960784313724" stop-color="#5f5252"/>
      <stop offset="0.5176470588235295" stop-color="#a29595"/>
      <stop offset="0.7137254901960784" stop-color="#826f6f"/>
      <stop offset="1.0" stop-color="#332f2f"/>
    </linearGradient>
    <linearGradient gradientTransform="matrix(0.0037, 0.0, 0.0, 0.014, 0.0, 11.5)" gradientUnits="userSpaceOnUse" id="gradient8" spreadMethod="pad" x1="-819.2" x2="819.2">
      <stop offset="0.0" stop-color="#a49786"/>
      <stop offset="0.10980392156862745" stop-color="#817269"/>
      <stop offset="0.4196078431372549" stop-color="#bab0a7"/>
      <stop offset="0.5764705882352941" stop-color="#bab0a7"/>
      <stop offset="0.8784313725490196" stop-color="#817269"/>
      <stop offset="1.0" stop-color="#a49786"/>
    </linearGradient>
    <linearGradient gradientTransform="matrix(0.0049, 0.0, 0.0, 0.0049, 0.0, -59.0)" gradientUnits="userSpaceOnUse" id="gradient9" spreadMethod="pad" x1="-819.2" x2="819.2">
      <stop offset="0.0" stop-color="#494343"/>
      <stop offset="0.13333333333333333" stop-color="#383232"/>
      <stop offset="0.24705882352941178" stop-color="#473838"/>
      <stop offset="0.4470588235294118" stop-color="#6c5353"/>
      <stop offset="0.5294117647058824" stop-color="#6c5353"/>
      <stop offset="0.788235294117647" stop-color="#473838"/>
      <stop offset="0.8980392156862745" stop-color="#383232"/>
      <stop offset="1.0" stop-color="#494343"/>
    </linearGradient>
    <linearGradient gradientTransform="matrix(0.0049, 0.0, 0.0, -0.0049, 0.0, 59.0)" gradientUnits="userSpaceOnUse" id="gradient10" spreadMethod="pad" x1="-819.2" x2="819.2">
      <stop offset="0.0" stop-color="#494343"/>
      <stop offset="0.13333333333333333" stop-color="#383232"/>
      <stop offset="0.24705882352941178" stop-color="#473838"/>
      <stop offset="0.4470588235294118" stop-color="#6c5353"/>
      <stop offset="0.5294117647058824" stop-color="#6c5353"/>
      <stop offset="0.788235294117647" stop-color="#473838"/>
      <stop offset="0.8980392156862745" stop-color="#383232"/>
      <stop offset="1.0" stop-color="#494343"/>
    </linearGradient>
    <linearGradient gradientTransform="matrix(0.0061, 0.0, 0.0, -0.0012, 0.0, 64.0)" gradientUnits="userSpaceOnUse" id="gradient11" spreadMethod="pad" x1="-819.2" x2="819.2">
      <stop offset="0.0" stop-color="#332f2f"/>
      <stop offset="0.34901960784313724" stop-color="#826f6f"/>
      <stop offset="0.5176470588235295" stop-color="#a29595"/>
      <stop offset="0.7137254901960784" stop-color="#826f6f"/>
      <stop offset="1.0" stop-color="#332f2f"/>
    </linearGradient>
    <linearGradient gradientTransform="matrix(0.0049, 0.0, 0.0, 0.0049, 0.0, -59.0)" gradientUnits="userSpaceOnUse" id="gradient12" spreadMethod="pad" x1="-819.2" x2="819.2">
      <stop offset="0.0" stop-color="#494343"/>
      <stop offset="0.13333333333333333" stop-color="#4a4242"/>
      <stop offset="0.30196078431372547" stop-color="#826f6f"/>
      <stop offset="0.48627450980392156" stop-color="#a29595"/>
      <stop offset="0.5843137254901961" stop-color="#a29595"/>
      <stop offset="0.7607843137254902" stop-color="#826f6f"/>
      <stop offset="0.8941176470588236" stop-color="#4a4242"/>
      <stop offset="1.0" stop-color="#494343"/>
    </linearGradient>
    <radialGradient cx="0" cy="0" gradientTransform="matrix(1.0E-4, -0.0085, 0.0074, 1.0E-4, 0.0, -67.0)" gradientUnits="userSpaceOnUse" id="gradient13" r="819.2" spreadMethod="pad">
      <stop offset="0.07450980392156863" stop-color="#b4a7a7"/>
      <stop offset="0.3137254901960784" stop-color="#9a8787"/>
      <stop offset="0.5372549019607843" stop-color="#655a5a"/>
      <stop offset="0.7529411764705882" stop-color="#3f3838"/>
      <stop offset="0.8196078431372549" stop-color="#2d2b28"/>
    </radialGradient>
    <radialGradient cx="0" cy="0" gradientTransform="matrix(1.0E-4, 0.0085, 0.0074, -1.0E-4, 0.0, 67.0)" gradientUnits="userSpaceOnUse" id="gradient14" r="819.2" spreadMethod="pad">
      <stop offset="0.07450980392156863" stop-color="#b4a7a7"/>
      <stop offset="0.3137254901960784" stop-color="#9a8787"/>
      <stop offset="0.5372549019607843" stop-color="#655a5a"/>
      <stop offset="0.7529411764705882" stop-color="#3f3838"/>
      <stop offset="0.8196078431372549" stop-color="#2d2b28"/>
    </radialGradient>
    <radialGradient cx="0" cy="0" gradientTransform="matrix(0.0, -0.0145, -0.0057, 0.0, 0.0, -71.05)" gradientUnits="userSpaceOnUse" id="gradient15" r="819.2" spreadMethod="pad">
      <stop offset="0.07450980392156863" stop-color="#b4a7a7"/>
      <stop offset="0.3137254901960784" stop-color="#9a8787"/>
      <stop offset="0.5372549019607843" stop-color="#736666"/>
      <stop offset="0.8274509803921568" stop-color="#4a4242"/>
      <stop offset="1.0" stop-color="#464440"/>
    </radialGradient>
    <radialGradient cx="0" cy="0" gradientTransform="matrix(0.0, 0.0145, -0.0057, 0.0, 0.0, 71.05)" gradientUnits="userSpaceOnUse" id="gradient16" r="819.2" spreadMethod="pad">
      <stop offset="0.07450980392156863" stop-color="#b4a7a7"/>
      <stop offset="0.3137254901960784" stop-color="#9a8787"/>
      <stop offset="0.5372549019607843" stop-color="#736666"/>
      <stop offset="0.8274509803921568" stop-color="#4a4242"/>
      <stop offset="1.0" stop-color="#464440"/>
    </radialGradient>
    <radialGradient cx="0" cy="0" gradientTransform="matrix(0.0095, 0.0, 0.0, 0.003, 0.05, -66.2)" gradientUnits="userSpaceOnUse" id="gradient17" r="819.2" spreadMethod="pad">
      <stop offset="0.0" stop-color="#d2cece"/>
      <stop offset="0.1568627450980392" stop-color="#b4a7a7"/>
      <stop offset="0.3137254901960784" stop-color="#9a8787"/>
      <stop offset="0.5372549019607843" stop-color="#736666"/>
      <stop offset="0.8274509803921568" stop-color="#4a4242"/>
      <stop offset="1.0" stop-color="#464440"/>
    </radialGradient>
    <linearGradient gradientTransform="matrix(0.0043, 0.0, 0.0, 0.0012, 0.0, -24.0)" gradientUnits="userSpaceOnUse" id="gradient18" spreadMethod="pad" x1="-819.2" x2="819.2">
      <stop offset="0.0" stop-color="#4e4747"/>
      <stop offset="0.08235294117647059" stop-color="#433d3d"/>
      <stop offset="0.32941176470588235" stop-color="#826f6f"/>
      <stop offset="0.5019607843137255" stop-color="#a29595"/>
      <stop offset="0.6823529411764706" stop-color="#826f6f"/>
      <stop offset="0.9137254901960784" stop-color="#332f2f"/>
      <stop offset="1.0" stop-color="#4e4747"/>
    </linearGradient>
    <linearGradient gradientTransform="matrix(0.0043, 0.0, 0.0, 0.0012, 0.0, 24.0)" gradientUnits="userSpaceOnUse" id="gradient19" spreadMethod="pad" x1="-819.2" x2="819.2">
      <stop offset="0.0" stop-color="#4e4747"/>
      <stop offset="0.08235294117647059" stop-color="#433d3d"/>
      <stop offset="0.32941176470588235" stop-color="#826f6f"/>
      <stop offset="0.5019607843137255" stop-color="#a29595"/>
      <stop offset="0.6823529411764706" stop-color="#826f6f"/>
      <stop offset="0.9137254901960784" stop-color="#332f2f"/>
      <stop offset="1.0" stop-color="#4e4747"/>
    </linearGradient>
    <radialGradient cx="0" cy="0" gradientTransform="matrix(0.0095, 0.0, 0.0, -0.003, 0.05, 66.2)" gradientUnits="userSpaceOnUse" id="gradient20" r="819.2" spreadMethod="pad">
      <stop offset="0.0" stop-color="#d2cece"/>
      <stop offset="0.1568627450980392" stop-color="#b4a7a7"/>
      <stop offset="0.3137254901960784" stop-color="#9a8787"/>
      <stop offset="0.5372549019607843" stop-color="#736666"/>
      <stop offset="0.8274509803921568" stop-color="#4a4242"/>
      <stop offset="1.0" stop-color="#464440"/>
    </radialGradient>
    <radialGradient cx="0" cy="0" fx="-848.0" fy="0" gradientTransform="matrix(0.0048, -0.0036, 0.0012, 0.0017, 0.75, -62.85)" gradientUnits="userSpaceOnUse" id="gradient21" r="819.2" spreadMethod="pad">
      <stop offset="0.0" stop-color="#d0cccc"/>
      <stop offset="0.26666666666666666" stop-color="#9f8d8d"/>
      <stop offset="0.5176470588235295" stop-color="#756868"/>
      <stop offset="1.0" stop-color="#584d4d"/>
    </radialGradient>
    <radialGradient cx="0" cy="0" fx="-848.0" fy="0" gradientTransform="matrix(-0.0048, -0.0036, -0.0012, 0.0017, -0.75, -62.85)" gradientUnits="userSpaceOnUse" id="gradient22" r="819.2" spreadMethod="pad">
      <stop offset="0.0" stop-color="#d0cccc"/>
      <stop offset="0.26666666666666666" stop-color="#9f8d8d"/>
      <stop offset="0.5176470588235295" stop-color="#756868"/>
      <stop offset="1.0" stop-color="#584d4d"/>
    </radialGradient>
    <radialGradient cx="0" cy="0" fx="-848.0" fy="0" gradientTransform="matrix(-0.0048, -0.0036, -0.0012, 0.0017, -0.75, 57.15)" gradientUnits="userSpaceOnUse" id="gradient23" r="819.2" spreadMethod="pad">
      <stop offset="0.0" stop-color="#d0cccc"/>
      <stop offset="0.26666666666666666" stop-color="#9f8d8d"/>
      <stop offset="0.5176470588235295" stop-color="#756868"/>
      <stop offset="1.0" stop-color="#584d4d"/>
    </radialGradient>
    <radialGradient cx="0" cy="0" fx="-848.0" fy="0" gradientTransform="matrix(0.0048, -0.0036, 0.0012, 0.0017, 0.75, 57.15)" gradientUnits="userSpaceOnUse" id="gradient24" r="819.2" spreadMethod="pad">
      <stop offset="0.0" stop-color="#d0cccc"/>
      <stop offset="0.26666666666666666" stop-color="#9f8d8d"/>
      <stop offset="0.5176470588235295" stop-color="#756868"/>
      <stop offset="1.0" stop-color="#584d4d"/>
    </radialGradient>
  </defs>
</svg>
