<?xml version="1.0" encoding="UTF-8" standalone="no"?>
<svg xmlns:xlink="http://www.w3.org/1999/xlink" height="153.75px" width="57.8px" xmlns="http://www.w3.org/2000/svg">
  <g transform="matrix(1.0, 0.0, 0.0, 1.0, 28.9, -258.7)">
    <path d="M9.1 271.15 Q14.55 278.35 18.15 286.1 27.85 306.6 27.4 335.55 27.85 364.55 18.15 385.05 14.55 392.8 9.1 400.0 6.2 403.95 0.0 410.95 -6.2 403.95 -9.1 400.0 -14.55 392.8 -18.15 385.05 -27.85 364.55 -27.4 335.55 -27.85 306.6 -18.15 286.1 -14.55 278.35 -9.1 271.15 -6.2 267.2 0.0 260.2 6.2 267.2 9.1 271.15" fill="url(#gradient0)" fill-rule="evenodd" stroke="none"/>
    <path d="M9.1 271.15 Q6.2 267.2 0.0 260.2 -6.2 267.2 -9.1 271.15 -14.55 278.35 -18.15 286.1 -27.85 306.6 -27.4 335.55 -27.85 364.55 -18.15 385.05 -14.55 392.8 -9.1 400.0 -6.2 403.95 0.0 410.95 6.2 403.95 9.1 400.0 14.55 392.8 18.15 385.05 27.85 364.55 27.4 335.55 27.85 306.6 18.15 286.1 14.55 278.35 9.1 271.15 Z" fill="none" stroke="#000000" stroke-linecap="round" stroke-linejoin="round" stroke-width="3.0"/>
  </g>
  <defs>
    <linearGradient gradientTransform="matrix(0.0, 0.0976, -0.092, 0.0, 0.0, 335.55)" gradientUnits="userSpaceOnUse" id="gradient0" spreadMethod="pad" x1="-819.2" x2="819.2">
      <stop offset="0.0" stop-color="#b056c5"/>
      <stop offset="1.0" stop-color="#000000"/>
    </linearGradient>
  </defs>
</svg>
