<?xml version="1.0" encoding="UTF-8" standalone="no"?>
<svg xmlns:xlink="http://www.w3.org/1999/xlink" height="153.75px" width="67.0px" xmlns="http://www.w3.org/2000/svg">
  <g transform="matrix(1.0, 0.0, 0.0, 1.0, 33.5, -258.7)">
    <path d="M10.65 271.15 Q16.95 278.35 21.2 286.1 32.5 306.6 32.0 335.55 32.5 364.55 21.2 385.05 16.95 392.8 10.65 400.0 7.2 403.95 0.0 410.95 -7.2 403.95 -10.65 400.0 -16.95 392.8 -21.2 385.05 -32.5 364.55 -32.0 335.55 -32.5 306.6 -21.2 286.1 -16.95 278.35 -10.65 271.15 -7.2 267.2 0.0 260.2 7.2 267.2 10.65 271.15" fill="url(#gradient0)" fill-rule="evenodd" stroke="none"/>
    <path d="M10.65 271.15 Q7.2 267.2 0.0 260.2 -7.2 267.2 -10.65 271.15 -16.95 278.35 -21.2 286.1 -32.5 306.6 -32.0 335.55 -32.5 364.55 -21.2 385.05 -16.95 392.8 -10.65 400.0 -7.2 403.95 0.0 410.95 7.2 403.95 10.65 400.0 16.95 392.8 21.2 385.05 32.5 364.55 32.0 335.55 32.5 306.6 21.2 286.1 16.95 278.35 10.65 271.15 Z" fill="none" stroke="#000000" stroke-linecap="round" stroke-linejoin="round" stroke-width="3.0"/>
  </g>
  <defs>
    <linearGradient gradientTransform="matrix(0.0, 0.0976, -0.092, 0.0, 0.0, 335.55)" gradientUnits="userSpaceOnUse" id="gradient0" spreadMethod="pad" x1="-819.2" x2="819.2">
      <stop offset="0.0" stop-color="#b056c5"/>
      <stop offset="1.0" stop-color="#000000"/>
    </linearGradient>
  </defs>
</svg>
