<?xml version="1.0" encoding="UTF-8" standalone="no"?>
<svg xmlns:xlink="http://www.w3.org/1999/xlink" height="401.6px" width="400.4px" xmlns="http://www.w3.org/2000/svg">
  <g transform="matrix(1.0, 0.0, 0.0, 1.0, 194.4, 214.05)">
    <path d="M2.85 -214.05 Q5.45 -213.95 4.65 -206.05 L1.9 -188.6 Q0.15 -176.9 1.1 -171.0 2.4 -162.9 8.55 -162.5 12.65 -161.45 14.85 -160.05 16.35 -159.05 19.25 -158.9 30.15 -155.85 33.0 -161.3 L34.5 -165.3 Q35.25 -167.05 36.9 -166.7 38.35 -166.45 38.1 -164.8 L37.5 -161.1 Q37.6 -155.5 49.7 -152.65 53.65 -150.85 57.35 -150.6 59.4 -150.45 62.45 -150.6 73.4 -151.2 80.2 -165.0 L84.55 -174.6 Q86.8 -179.05 88.95 -179.4 90.45 -177.1 87.8 -172.65 83.9 -167.0 82.0 -163.75 74.75 -151.05 86.6 -141.8 88.2 -140.35 89.45 -139.4 91.75 -137.7 94.5 -136.2 97.75 -135.55 101.95 -130.85 107.15 -125.15 108.8 -124.05 116.55 -117.25 128.6 -121.25 L136.35 -124.3 Q139.8 -125.65 140.65 -124.8 141.85 -123.6 138.75 -122.2 L131.45 -119.05 Q120.95 -113.65 126.95 -104.3 130.2 -98.25 131.8 -91.75 137.3 -81.4 142.25 -81.5 143.45 -81.55 145.35 -82.2 146.75 -82.45 147.5 -81.25 148.1 -80.2 147.0 -79.4 L144.65 -77.3 Q141.65 -73.2 147.45 -62.0 149.55 -61.05 150.95 -57.9 152.8 -53.95 154.05 -52.6 160.1 -37.6 177.0 -37.5 L187.65 -37.85 Q192.1 -37.6 192.1 -34.5 192.1 -32.3 187.25 -33.0 L176.4 -34.4 Q160.5 -35.05 159.95 -16.9 159.1 -8.5 162.2 -2.9 L164.5 0.85 Q165.6 2.85 165.6 4.7 165.6 7.65 164.75 9.5 L162.7 12.7 Q159.55 17.35 158.9 26.85 155.0 32.4 180.3 36.4 L198.1 38.95 Q206.35 40.3 206.0 41.35 205.8 42.05 197.85 40.55 L180.3 37.45 Q154.9 33.95 153.8 43.85 151.7 57.15 153.15 58.8 154.3 65.0 164.8 70.25 L171.55 73.4 Q174.4 74.9 174.0 75.7 173.7 76.45 170.6 75.25 L163.4 72.4 Q152.1 68.75 146.4 74.6 143.75 77.25 140.35 82.15 135.5 88.9 135.25 92.6 136.25 94.2 138.05 96.0 L141.3 99.25 Q142.25 100.05 144.9 101.3 151.25 104.75 165.3 114.8 180.55 125.7 179.75 127.15 179.0 128.55 160.05 117.35 141.65 106.55 138.05 103.25 L135.3 100.5 135.3 100.6 Q132.1 98.4 125.65 104.4 116.2 113.15 113.4 114.55 110.35 116.2 109.25 119.05 108.5 121.1 108.55 124.5 108.6 126.45 116.35 135.3 124.35 144.45 130.15 148.9 131.0 150.7 129.65 151.6 128.2 152.5 126.3 151.3 123.45 145.45 111.7 139.05 101.7 133.65 98.9 133.65 93.4 133.65 81.9 139.75 75.5 143.2 66.2 147.65 59.75 150.95 57.95 153.7 56.7 156.0 59.85 165.7 62.95 175.3 61.9 177.05 59.9 175.95 57.3 166.15 54.6 156.15 53.75 155.5 50.15 152.9 40.1 153.95 30.3 154.95 27.5 157.95 19.9 163.45 20.0 176.25 20.0 179.35 20.35 184.25 20.4 187.55 19.1 187.55 17.95 187.6 17.45 183.3 L16.2 174.0 Q13.05 160.65 -0.15 161.9 -12.35 161.9 -23.65 160.35 -37.05 155.75 -42.8 161.25 -44.3 162.6 -46.4 165.25 -48.25 167.0 -50.7 166.3 -53.2 165.55 -53.05 163.65 L-51.85 159.6 Q-50.1 153.35 -59.35 149.2 -62.35 147.95 -64.95 151.9 -66.65 154.65 -68.85 161.3 -71.55 169.15 -72.35 171.0 -74.4 175.3 -76.4 174.7 -77.05 174.75 -75.6 169.5 -73.05 160.5 -72.45 157.75 -68.5 140.55 -75.65 140.55 -78.8 140.25 -82.85 150.05 -86.8 159.85 -87.05 159.85 -87.75 159.8 -87.5 156.5 L-86.75 149.4 Q-85.8 139.05 -89.45 138.95 -94.55 137.6 -99.35 134.9 -102.8 132.2 -107.6 137.15 L-110.8 140.6 Q-112.35 142.15 -112.9 141.6 -113.35 141.3 -112.2 139.5 L-109.55 135.5 Q-106.1 129.6 -109.35 127.25 -113.45 120.65 -119.05 122.2 L-122.6 123.7 -124.7 123.75 Q-125.25 122.95 -124.65 121.8 L-123.2 119.5 Q-121.35 115.9 -125.0 111.4 -126.1 106.6 -137.7 115.55 L-145.6 122.05 Q-149.25 124.9 -149.4 124.3 -149.6 123.45 -145.85 120.3 L-137.65 113.5 Q-126.15 103.35 -129.2 97.25 -129.95 95.45 -129.6 95.1 -129.3 94.8 -129.8 93.75 -138.1 78.85 -143.85 82.5 L-148.2 86.45 Q-150.6 88.75 -152.7 87.95 -154.25 85.45 -151.55 83.65 -147.65 81.7 -145.9 80.2 -138.75 74.05 -151.6 57.15 -155.4 35.45 -165.75 39.4 L-172.55 43.3 Q-175.6 45.0 -175.9 42.4 -174.8 41.3 -168.8 38.2 -163.0 35.15 -160.25 32.15 -151.15 22.35 -162.35 2.5 -164.95 1.55 -180.05 -0.1 -193.85 -1.55 -194.3 -2.5 -195.15 -4.4 -189.55 -4.7 L-176.65 -5.35 Q-157.45 -7.45 -159.55 -22.25 -154.65 -39.4 -161.6 -48.25 L-166.65 -53.3 Q-169.05 -55.7 -168.55 -57.6 -167.6 -60.75 -163.45 -62.6 -161.75 -63.4 -155.1 -65.2 -149.7 -66.65 -147.35 -68.35 -143.95 -70.8 -144.0 -75.15 -144.0 -76.1 -153.6 -85.4 -163.4 -94.9 -163.85 -96.2 -163.0 -96.1 -150.65 -89.45 -139.2 -83.3 -137.95 -84.35 -135.6 -86.4 -131.5 -92.25 -130.2 -93.85 -134.1 -98.15 -136.35 -100.6 -143.3 -106.9 -157.1 -119.35 -155.15 -122.2 -153.85 -123.4 -149.25 -119.75 L-139.75 -111.1 Q-126.25 -98.4 -124.2 -100.85 -116.1 -108.4 -108.65 -122.35 -104.2 -130.65 -100.85 -135.25 -103.2 -138.05 -108.4 -143.3 -111.4 -146.65 -114.1 -153.1 -116.9 -159.55 -115.8 -160.5 -114.8 -161.35 -110.55 -157.0 -106.6 -152.95 -102.45 -147.25 -98.9 -143.0 -97.0 -139.7 -91.65 -139.9 -79.85 -142.6 L-76.65 -143.35 Q-77.55 -145.15 -78.85 -149.6 -80.25 -153.3 -80.75 -158.5 -81.2 -163.8 -80.1 -164.2 -79.1 -164.55 -76.15 -160.2 -73.6 -156.5 -70.9 -151.35 L-69.65 -148.65 Q-68.6 -146.45 -68.3 -144.75 -65.5 -145.55 -63.2 -146.7 L-58.9 -148.8 Q-52.15 -150.7 -55.4 -160.8 L-57.95 -168.0 Q-58.95 -171.45 -57.5 -172.35 -55.55 -172.8 -54.1 -169.75 -53.25 -168.1 -51.9 -162.95 -49.3 -152.9 -45.8 -153.7 -36.0 -156.55 -25.85 -158.0 -20.2 -158.35 -17.45 -159.35 -14.65 -160.65 -11.85 -161.45 -5.25 -161.3 -2.35 -169.05 -0.2 -174.8 0.1 -186.35 L0.3 -204.35 Q0.6 -213.0 2.85 -214.05 M41.7 -174.3 Q41.7 -172.95 40.75 -172.0 L38.95 -170.25 Q37.5 -168.9 36.95 -168.9 36.4 -168.9 35.8 -171.3 35.3 -173.3 35.3 -174.3 35.3 -175.65 36.2 -176.6 37.15 -177.5 38.5 -177.5 L39.95 -177.1 Q40.8 -176.75 41.3 -176.2 L41.55 -175.6 41.7 -174.3 M-154.75 91.55 Q-155.0 94.95 -156.75 98.05 -158.0 100.2 -160.25 101.35 -162.15 102.25 -164.1 102.25 -168.05 102.25 -170.15 100.2 -172.45 97.9 -172.45 94.5 -172.45 91.2 -170.15 88.85 -168.65 87.45 -167.35 86.75 -165.45 85.8 -162.25 85.45 -160.65 85.45 -158.5 86.35 -156.4 87.15 -155.15 88.3 -154.5 88.6 -154.75 91.55" fill="#aa010e" fill-rule="evenodd" stroke="none"/>
  </g>
</svg>
