<?xml version="1.0" encoding="UTF-8" standalone="no"?>
<svg xmlns:xlink="http://www.w3.org/1999/xlink" height="1149.2px" width="1149.2px" xmlns="http://www.w3.org/2000/svg">
  <g transform="matrix(1.0, 0.0, 0.0, 1.0, 217.25, 292.5)">
    <path d="M762.15 -124.65 Q931.45 44.65 931.45 282.1 931.45 519.5 762.15 686.9 594.8 856.2 357.35 856.2 119.95 856.2 -49.4 686.9 -216.75 519.5 -216.75 282.1 -216.75 44.65 -49.4 -124.65 119.95 -292.0 357.35 -292.0 594.8 -292.0 762.15 -124.65" fill="#ffffff" fill-opacity="0.101960786" fill-rule="evenodd" stroke="none"/>
    <path d="M762.15 -124.65 Q931.45 44.65 931.45 282.1 931.45 519.5 762.15 686.9 594.8 856.2 357.35 856.2 119.95 856.2 -49.4 686.9 -216.75 519.5 -216.75 282.1 -216.75 44.65 -49.4 -124.65 119.95 -292.0 357.35 -292.0 594.8 -292.0 762.15 -124.65 Z" fill="none" stroke="#33ffcc" stroke-linecap="round" stroke-linejoin="round" stroke-opacity="0.101960786" stroke-width="1.0"/>
  </g>
</svg>
