<?xml version="1.0" encoding="UTF-8" standalone="no"?>
<svg xmlns:xlink="http://www.w3.org/1999/xlink" height="155.25px" width="22.45px" xmlns="http://www.w3.org/2000/svg">
  <g transform="matrix(1.0, 0.0, 0.0, 1.0, 11.4, 77.5)">
    <path d="M7.45 -74.4 Q10.5 -71.35 10.5 -67.0 10.5 -65.1 9.95 -63.45 10.95 -61.55 11.05 -59.3 11.1 -57.2 10.45 -55.45 L9.35 -53.4 8.45 -51.9 7.7 -48.85 7.2 -46.2 Q6.15 -39.95 6.0 -37.8 L5.45 -26.05 6.55 -23.6 7.8 -23.0 Q9.0 -22.1 9.05 -20.75 9.15 -19.75 8.1 -18.8 L7.0 -18.05 7.6 -16.65 Q8.3 -14.65 6.75 -13.6 6.05 -13.1 5.2 -13.15 L5.15 0.0 5.55 0.7 6.8 1.1 7.95 1.9 Q8.7 2.75 8.55 3.65 8.35 5.05 6.95 6.1 7.1 7.35 6.4 9.0 5.8 10.45 5.05 11.15 L4.95 24.7 4.95 25.6 Q5.45 26.45 5.45 27.45 L5.25 29.05 4.9 30.2 Q4.75 49.1 4.3 62.1 L3.7 72.85 Q3.3 76.25 2.5 77.0 1.65 77.75 0.0 77.75 -1.65 77.75 -2.5 77.0 -3.3 76.45 -3.7 72.95 L-4.3 62.1 Q-4.8 47.25 -4.95 24.65 L-4.95 21.35 Q-5.8 19.35 -5.9 17.5 -5.95 16.5 -5.6 15.3 L-5.0 13.95 -5.0 0.5 -6.05 0.0 Q-6.8 -0.55 -7.05 -1.4 -7.4 -2.7 -6.35 -4.25 -7.35 -7.45 -6.75 -9.35 L-7.45 -10.25 Q-7.95 -11.0 -7.95 -11.85 -7.9 -12.75 -7.3 -13.4 -6.75 -14.1 -5.85 -14.25 L-5.0 -14.4 -5.3 -29.2 Q-6.9 -31.65 -6.55 -33.4 -6.45 -34.65 -5.7 -35.9 L-7.05 -46.6 Q-7.65 -50.1 -10.0 -53.55 -11.4 -55.55 -11.4 -59.05 -11.4 -62.6 -10.2 -64.4 L-10.5 -67.0 Q-10.5 -71.35 -7.4 -74.4 -4.35 -77.5 0.0 -77.5 4.35 -77.5 7.45 -74.4" fill="#000000" fill-rule="evenodd" stroke="none"/>
    <path d="M0.55 -53.5 Q0.55 -51.35 0.85 -48.65 L1.45 -43.95 -1.95 -43.95 -1.0 -53.5 -0.7 -57.4 -0.65 -60.15 0.15 -60.25 0.55 -53.5" fill="url(#gradient0)" fill-rule="evenodd" stroke="none"/>
    <path d="M0.0 -59.0 Q-3.3 -59.0 -5.65 -61.35 -8.0 -63.7 -8.0 -67.0 -8.0 -70.3 -5.65 -72.65 -3.3 -75.0 0.0 -75.0 3.3 -75.0 5.65 -72.65 8.0 -70.3 8.0 -67.0 8.0 -63.7 5.65 -61.35 3.3 -59.0 0.0 -59.0" fill="url(#gradient1)" fill-rule="evenodd" stroke="none"/>
    <path d="M2.65 -66.35 Q1.55 -65.2 0.0 -65.2 -1.55 -65.2 -2.7 -66.35 -3.8 -67.45 -3.8 -69.0 -3.8 -70.55 -2.7 -71.7 -1.55 -72.8 0.0 -72.8 1.55 -72.8 2.65 -71.7 3.8 -70.55 3.8 -69.0 3.8 -67.45 2.65 -66.35" fill="url(#gradient2)" fill-rule="evenodd" stroke="none"/>
    <path d="M0.0 -67.5 Q-0.6 -67.5 -1.05 -67.95 -1.5 -68.4 -1.5 -69.0 L-1.05 -70.05 0.0 -70.5 1.05 -70.05 1.5 -69.0 Q1.5 -68.4 1.05 -67.95 0.6 -67.5 0.0 -67.5" fill="#000000" fill-rule="evenodd" stroke="none"/>
    <path d="M3.4 -68.6 Q2.8 -68.0 2.0 -68.0 1.2 -68.0 0.6 -68.6 0.0 -69.2 0.0 -70.0 0.0 -70.8 0.6 -71.4 1.2 -72.0 2.0 -72.0 2.8 -72.0 3.4 -71.4 4.0 -70.8 4.0 -70.0 4.0 -69.2 3.4 -68.6" fill="url(#gradient3)" fill-rule="evenodd" stroke="none"/>
    <path d="M3.0 -64.0 L4.0 -64.0 4.0 -60.05 2.25 -59.3 3.0 -64.0 M-7.9 -65.9 L-7.0 -65.0 -6.25 -62.0 Q-7.65 -63.75 -7.9 -65.9 M-3.0 -64.0 L-2.2 -59.3 Q-3.15 -59.55 -4.0 -60.05 L-4.0 -64.0 -3.0 -64.0" fill="#403131" fill-opacity="0.2" fill-rule="evenodd" stroke="none"/>
    <path d="M6.35 -53.25 Q5.65 -52.15 5.25 -50.3 L4.7 -46.6 Q3.65 -40.2 3.5 -38.0 2.9 -30.25 2.7 -13.95 L2.45 24.65 Q2.3 47.2 1.8 62.0 1.4 74.7 1.0 75.0 L0.0 75.25 -1.0 75.0 Q-1.4 74.7 -1.8 62.0 -2.3 47.2 -2.45 24.65 L-2.5 -14.2 Q-2.6 -31.15 -3.45 -38.05 L-3.9 -41.8 -4.6 -47.0 Q-5.25 -51.0 -7.95 -54.95 -8.85 -56.3 -8.9 -59.05 -8.9 -61.9 -7.95 -63.3 -7.25 -64.3 -6.7 -63.9 -6.2 -63.5 -6.7 -62.7 -7.6 -61.2 -7.35 -58.95 -7.15 -56.75 -5.95 -55.5 -4.55 -54.0 -3.6 -51.8 L-2.55 -48.75 -1.35 -46.0 Q-0.4 -44.3 0.0 -44.3 0.45 -44.3 1.4 -45.75 L2.5 -48.0 3.35 -51.05 Q4.15 -53.65 4.8 -54.5 L6.55 -56.85 Q7.45 -58.65 7.0 -61.0 6.8 -62.0 7.3 -62.15 7.8 -62.3 8.2 -61.2 9.05 -58.8 8.1 -56.35 L6.35 -53.25" fill="url(#gradient4)" fill-rule="evenodd" stroke="none"/>
    <path d="M-2.9 -63.5 Q-3.4 -60.55 -3.35 -57.25 -3.35 -54.85 -1.35 -47.85 -0.65 -45.4 -0.25 -42.45 0.15 -39.45 -0.2 -39.05 -0.55 -38.65 -1.1 -38.65 -1.65 -38.7 -1.9 -39.05 L-2.05 -39.55 -2.75 -45.35 -3.95 -51.05 Q-4.8 -54.95 -4.9 -57.05 L-4.65 -60.65 Q-4.25 -63.45 -3.65 -64.0 -3.25 -64.35 -3.05 -64.25 -2.8 -64.15 -2.9 -63.5" fill="url(#gradient5)" fill-rule="evenodd" stroke="none"/>
    <path d="M4.6 -56.95 Q4.75 -54.65 4.15 -49.75 3.6 -45.6 3.05 -43.35 2.55 -41.4 1.3 -41.6 0.0 -41.85 0.25 -43.2 L1.8 -48.75 Q3.15 -53.95 3.1 -57.7 L2.9 -62.45 Q2.8 -63.2 3.0 -63.45 3.3 -63.7 3.7 -62.95 4.2 -62.0 4.6 -56.95" fill="url(#gradient6)" fill-rule="evenodd" stroke="none"/>
    <path d="M1.4 -31.7 L0.7 -30.25 1.35 -29.4 3.15 -29.5 3.8 -29.3 4.2 -28.7 4.1 -28.05 3.35 -26.5 4.4 -24.85 4.45 -24.75 5.3 -22.6 7.05 -21.65 7.5 -21.15 7.5 -20.5 7.15 -19.95 5.6 -18.9 5.4 -17.95 6.25 -16.05 6.3 -15.35 5.9 -14.8 5.25 -14.65 3.35 -14.75 3.25 -14.7 2.55 -14.55 Q2.15 -14.6 1.95 -14.9 L1.7 -15.55 1.75 -19.2 Q1.75 -21.2 1.0 -22.75 L-0.6 -25.05 -2.25 -24.9 -2.9 -25.05 -3.3 -25.6 -3.25 -26.25 -2.55 -27.9 -3.8 -29.7 Q-5.3 -31.85 -5.05 -33.25 L-4.7 -34.55 -4.7 -34.6 -3.75 -35.85 -3.15 -36.05 -2.55 -35.8 -2.2 -35.3 -1.6 -33.8 -1.55 -33.7 -1.2 -33.05 0.45 -33.15 1.1 -32.95 1.5 -32.4 1.4 -31.7 M1.1 -2.45 L2.55 -0.8 2.6 -0.8 3.9 0.85 4.05 1.05 4.5 1.95 6.35 2.5 Q6.7 2.6 6.9 2.9 L7.05 3.55 6.75 4.15 5.45 5.5 Q5.55 7.2 4.9 8.6 L4.85 8.75 3.25 10.9 2.55 11.2 1.85 10.95 Q1.55 10.65 1.55 10.25 L1.45 5.9 Q1.45 4.85 1.0 3.9 L-0.75 3.95 -1.4 3.75 -1.75 3.2 -1.7 2.5 -1.0 1.15 -1.8 0.25 -2.9 -1.1 -4.55 -1.0 -5.2 -1.2 -5.6 -1.75 -5.55 -2.4 -4.75 -4.2 Q-5.4 -5.95 -5.4 -8.15 L-5.4 -8.2 -5.15 -9.75 -6.25 -11.15 -6.45 -11.8 -6.2 -12.45 -5.6 -12.75 -3.6 -13.1 -3.25 -13.6 -2.75 -13.95 -2.15 -13.95 -1.65 -13.6 -1.45 -13.0 -1.3 -7.65 0.1 -7.35 0.7 -7.0 0.9 -6.4 0.7 -5.75 -0.45 -4.4 1.1 -2.45 M0.9 22.4 L2.65 24.8 Q3.85 26.4 3.95 27.4 L3.8 28.8 3.2 30.25 2.7 30.55 2.15 30.55 1.65 30.25 1.4 29.7 1.25 28.05 1.25 27.95 Q1.1 28.0 -1.7 24.05 -3.85 21.0 -4.3 18.3 -4.6 17.05 -4.25 15.95 -3.85 14.55 -3.0 14.2 -2.4 13.85 -1.85 14.4 L-1.55 14.8 -1.45 15.2 -1.45 15.95 -1.4 17.7 -0.65 19.55 0.9 22.35 0.9 22.4" fill="#000000" fill-opacity="0.16078432" fill-rule="evenodd" stroke="none"/>
    <path d="M2.2 -26.45 L3.55 -24.3 4.4 -21.95 6.55 -20.8 4.6 -19.45 4.3 -17.9 5.3 -15.65 3.1 -15.8 2.7 -15.55 2.75 -19.2 Q2.75 -21.5 1.85 -23.25 L-0.1 -26.1 -2.35 -25.9 -1.45 -28.05 -3.0 -30.3 Q-4.2 -32.0 -4.05 -33.15 L-3.8 -34.2 -3.2 -35.05 -2.45 -33.25 -1.8 -32.05 0.5 -32.15 -0.45 -30.15 0.85 -28.4 3.2 -28.5 2.2 -26.45 M1.8 -0.15 L3.15 1.55 3.15 1.5 3.75 2.75 6.05 3.45 4.4 5.1 Q4.6 6.9 3.95 8.35 3.55 9.2 2.55 10.2 L2.45 5.9 Q2.45 4.3 1.6 2.85 L-0.8 2.95 0.2 0.95 -1.05 -0.4 -2.45 -2.15 -4.65 -2.0 -3.65 -4.2 Q-4.4 -5.9 -4.4 -8.15 L-4.05 -10.0 -5.45 -11.8 -3.05 -12.2 -2.45 -13.0 -2.3 -6.85 -0.1 -6.4 -1.65 -4.55 Q-1.35 -3.65 0.4 -1.75 L1.8 -0.15 M2.4 29.6 L2.25 27.95 -0.9 23.45 Q-2.9 20.6 -3.35 18.1 -3.55 17.1 -3.3 16.2 -3.05 15.35 -2.55 15.1 L-2.45 16.05 -2.4 17.8 -1.55 19.95 0.05 22.9 1.85 25.4 Q2.85 26.7 2.95 27.5 L2.8 28.55 2.4 29.6" fill="url(#gradient7)" fill-rule="evenodd" stroke="none"/>
  </g>
  <defs>
    <linearGradient gradientTransform="matrix(0.0021, 0.0, 0.0, 0.0104, -0.3, -52.5)" gradientUnits="userSpaceOnUse" id="gradient0" spreadMethod="pad" x1="-819.2" x2="819.2">
      <stop offset="0.0" stop-color="#483737"/>
      <stop offset="0.19607843137254902" stop-color="#2c2121"/>
      <stop offset="1.0" stop-color="#403131"/>
    </linearGradient>
    <radialGradient cx="0" cy="0" gradientTransform="matrix(0.0127, 0.0, 0.0, 0.0127, 1.2, -68.5)" gradientUnits="userSpaceOnUse" id="gradient1" r="819.2" spreadMethod="pad">
      <stop offset="0.13725490196078433" stop-color="#ffffff"/>
      <stop offset="0.6352941176470588" stop-color="#b5b5b5"/>
      <stop offset="0.8784313725490196" stop-color="#b8b8b8"/>
      <stop offset="1.0" stop-color="#d8d8d8"/>
    </radialGradient>
    <radialGradient cx="0" cy="0" gradientTransform="matrix(0.0047, 0.0, 0.0, 0.0047, 0.0, -69.05)" gradientUnits="userSpaceOnUse" id="gradient2" r="819.2" spreadMethod="pad">
      <stop offset="0.38823529411764707" stop-color="#925a49"/>
      <stop offset="0.4980392156862745" stop-color="#664135"/>
      <stop offset="0.7254901960784313" stop-color="#59372d"/>
      <stop offset="0.8627450980392157" stop-color="#59372d"/>
      <stop offset="1.0" stop-color="#211410"/>
    </radialGradient>
    <radialGradient cx="0" cy="0" gradientTransform="matrix(0.0032, 0.0, 0.0, 0.0032, 2.0, -70.0)" gradientUnits="userSpaceOnUse" id="gradient3" r="819.2" spreadMethod="pad">
      <stop offset="0.3176470588235294" stop-color="#ffffff"/>
      <stop offset="0.4117647058823529" stop-color="#ffffff" stop-opacity="0.2"/>
      <stop offset="0.8431372549019608" stop-color="#ffffff" stop-opacity="0.0"/>
    </radialGradient>
    <linearGradient gradientTransform="matrix(0.0073, 0.0, 0.0, 0.076, 0.0, 12.95)" gradientUnits="userSpaceOnUse" id="gradient4" spreadMethod="pad" x1="-819.2" x2="819.2">
      <stop offset="0.0" stop-color="#3c2f2f"/>
      <stop offset="0.19607843137254902" stop-color="#5f4b4b"/>
      <stop offset="0.49411764705882355" stop-color="#6a5555"/>
      <stop offset="0.8470588235294118" stop-color="#5e4d4d"/>
      <stop offset="1.0" stop-color="#5b4646"/>
    </linearGradient>
    <radialGradient cx="0" cy="0" gradientTransform="matrix(0.0035, -4.0E-4, 0.0019, 0.0184, -3.25, -50.6)" gradientUnits="userSpaceOnUse" id="gradient5" r="819.2" spreadMethod="pad">
      <stop offset="0.0" stop-color="#765f5f"/>
      <stop offset="0.2196078431372549" stop-color="#6d5858"/>
      <stop offset="0.6509803921568628" stop-color="#5f4b4b"/>
      <stop offset="0.7294117647058823" stop-color="#5f4b4b"/>
      <stop offset="1.0" stop-color="#6a5555"/>
    </radialGradient>
    <radialGradient cx="0" cy="0" gradientTransform="matrix(0.0035, 4.0E-4, -0.0016, 0.0152, 3.3, -52.4)" gradientUnits="userSpaceOnUse" id="gradient6" r="819.2" spreadMethod="pad">
      <stop offset="0.0" stop-color="#796262"/>
      <stop offset="0.3764705882352941" stop-color="#695656"/>
      <stop offset="0.6901960784313725" stop-color="#584949"/>
      <stop offset="1.0" stop-color="#5e4d4d"/>
    </radialGradient>
    <linearGradient gradientTransform="matrix(0.0092, 0.0, 0.0, 0.0136, -0.45, -26.15)" gradientUnits="userSpaceOnUse" id="gradient7" spreadMethod="pad" x1="-819.2" x2="819.2">
      <stop offset="0.00784313725490196" stop-color="#444828"/>
      <stop offset="0.4549019607843137" stop-color="#919555"/>
      <stop offset="0.5843137254901961" stop-color="#919555"/>
      <stop offset="1.0" stop-color="#49532d"/>
    </linearGradient>
  </defs>
</svg>
