<?xml version="1.0" encoding="UTF-8" standalone="no"?>
<svg xmlns:xlink="http://www.w3.org/1999/xlink" height="114.0px" width="114.0px" xmlns="http://www.w3.org/2000/svg">
  <g transform="matrix(1.0, 0.0, 0.0, 1.0, 57.0, 57.0)">
    <path d="M41.35 44.1 Q39.7 45.2 37.8 46.85 33.3 50.75 33.0 54.05 33.0 55.25 32.1 56.15 31.25 57.0 30.0 57.0 L-57.0 57.0 -57.0 -57.0 57.0 -57.0 57.0 40.0 Q57.0 41.0 56.4 41.85 55.75 42.65 54.75 42.9 L46.5 45.25 43.75 45.25 Q42.5 45.25 41.65 44.4 L41.35 44.1" fill="#000000" fill-rule="evenodd" stroke="none"/>
    <path d="M43.75 42.25 L41.8 40.45 Q38.7 41.65 35.0 45.0 30.0 49.55 30.0 54.0 L-54.0 54.0 -54.0 -54.0 54.0 -54.0 54.0 40.0 Q50.95 40.75 46.5 42.25 L43.75 42.25" fill="url(#gradient0)" fill-rule="evenodd" stroke="none"/>
    <path d="M12.65 -54.0 L37.15 -54.0 37.05 -53.35 36.75 -50.75 Q36.4 -50.4 32.55 -49.3 L28.75 -48.25 24.0 -49.5 15.75 -51.25 Q14.0 -51.4 12.65 -54.0" fill="#312424" fill-rule="evenodd" stroke="none"/>
    <path d="M-54.0 41.75 L-53.0 41.55 -46.85 41.0 Q-42.35 41.0 -40.7 42.2 -39.7 42.95 -39.45 44.9 -39.15 46.85 -38.35 47.55 -36.95 48.75 -32.85 48.75 L-30.4 47.4 Q-28.0 46.15 -24.35 46.5 -21.25 46.8 -19.45 47.75 -18.1 48.5 -17.0 50.0 -16.1 51.2 -15.85 52.65 L-15.85 54.0 -54.0 54.0 -54.0 41.75" fill="#62504f" fill-rule="evenodd" stroke="none"/>
    <path d="M12.65 -54.0 Q14.0 -51.4 15.75 -51.25 L24.0 -49.5 28.75 -48.25 32.55 -49.3 Q36.4 -50.4 36.75 -50.75 L37.05 -53.35 37.15 -54.0" fill="none" stroke="#271f1f" stroke-linecap="round" stroke-linejoin="round" stroke-width="1.0"/>
    <path d="M-54.0 41.75 L-53.0 41.55 -46.85 41.0 Q-42.35 41.0 -40.7 42.2 -39.7 42.95 -39.45 44.9 -39.15 46.85 -38.35 47.55 -36.95 48.75 -32.85 48.75 L-30.4 47.4 Q-28.0 46.15 -24.35 46.5 -21.25 46.8 -19.45 47.75 -18.1 48.5 -17.0 50.0 -16.1 51.2 -15.85 52.65 L-15.85 54.0" fill="none" stroke="#4d4040" stroke-linecap="round" stroke-linejoin="round" stroke-width="1.0"/>
    <path d="M29.55 -33.05 L29.6 -33.9 29.65 -34.7 29.9 -35.35 30.5 -35.7 32.9 -36.05 35.4 -36.5 35.95 -36.45 36.4 -36.1 36.55 -35.55 36.55 -34.25 36.65 -30.0 36.65 -29.95 36.95 -25.75 37.15 -24.5 37.45 -28.85 37.15 -31.95 36.75 -34.25 Q36.75 -36.05 38.4 -36.0 L41.95 -36.0 Q43.65 -36.05 43.65 -34.25 L43.45 -33.25 43.4 -33.15 43.45 -33.2 43.1 -31.7 42.75 -29.95 42.75 -29.9 42.5 -28.15 42.5 -28.1 41.55 -21.8 39.95 -16.0 38.4 -11.3 37.5 -8.5 37.4 -7.75 37.4 -7.65 Q37.15 -6.15 35.8 -6.25 L32.05 -6.25 Q31.7 -6.25 31.45 -6.45 31.2 -6.65 31.1 -6.95 L31.15 -7.6 32.45 -10.35 33.7 -12.8 Q32.7 -13.95 31.95 -15.9 L31.95 -15.85 Q31.0 -18.1 30.5 -20.65 29.9 -23.2 29.65 -25.8 L29.45 -28.95 27.35 -26.2 26.9 -25.85 26.3 -25.8 25.8 -26.15 25.25 -26.8 25.25 -13.0 24.95 -12.3 Q24.65 -12.0 24.25 -12.0 L19.05 -12.0 Q18.65 -12.0 18.35 -12.3 18.05 -12.6 18.05 -13.0 L18.05 -30.15 18.0 -30.45 18.0 -30.5 17.3 -31.85 Q17.15 -32.15 17.25 -32.45 L17.5 -32.95 20.95 -36.3 21.45 -36.55 22.0 -36.55 22.45 -36.25 24.45 -33.8 26.1 -36.05 26.65 -36.4 27.25 -36.35 27.75 -35.95 29.55 -33.05 M3.5 -38.5 L3.5 -34.9 4.3 -34.9 5.0 -34.6 5.3 -33.9 5.3 -31.1 5.45 -31.4 Q6.2 -33.0 7.4 -34.4 L7.4 -34.45 Q8.6 -35.9 10.45 -36.9 L11.0 -37.05 11.55 -36.85 Q13.9 -35.2 15.15 -33.25 L15.15 -33.2 Q16.3 -31.4 16.95 -29.45 L17.7 -25.9 17.9 -23.3 17.6 -20.75 16.6 -17.85 16.55 -17.8 14.8 -14.75 14.8 -14.7 Q13.6 -13.1 11.65 -11.4 L11.05 -11.15 10.4 -11.35 Q7.8 -13.45 6.6 -15.35 L6.65 -15.35 Q5.35 -17.3 4.8 -19.1 L4.8 -19.05 Q4.2 -20.85 4.1 -22.4 L4.0 -25.25 Q4.0 -26.65 4.4 -28.25 L4.9 -30.1 4.3 -29.9 3.5 -29.9 3.5 -17.5 3.75 -17.0 3.7 -17.05 4.75 -15.75 4.9 -15.05 4.6 -14.45 0.8 -11.05 0.55 -10.9 0.6 -10.85 Q2.4 -9.6 3.35 -8.05 L3.35 -8.1 Q4.25 -6.7 4.75 -5.2 L4.75 -5.15 5.1 -3.8 5.1 -5.65 5.15 -5.7 4.55 -6.8 4.5 -7.4 4.75 -7.9 7.35 -10.45 7.85 -10.7 8.4 -10.7 8.85 -10.4 10.15 -8.8 11.15 -10.15 11.65 -10.55 12.3 -10.5 12.8 -10.1 14.9 -6.75 15.05 -6.2 14.85 -5.65 12.5 -2.55 12.05 -2.2 11.45 -2.15 11.0 -2.45 11.0 7.25 10.7 7.95 10.0 8.25 6.1 8.25 5.4 7.95 Q5.1 7.65 5.1 7.25 L5.1 1.95 4.5 3.7 4.45 3.75 3.1 6.1 0.85 8.5 Q1.15 8.55 1.4 8.8 L4.2 12.15 4.4 12.8 4.2 13.45 2.6 15.45 Q3.0 15.45 3.3 15.75 L3.6 16.45 3.6 19.35 3.3 20.05 2.6 20.35 1.45 20.35 1.45 37.6 1.15 38.3 0.45 38.6 -4.95 38.6 Q-5.35 38.6 -5.65 38.3 L-5.95 37.6 -5.95 20.35 -6.45 20.35 Q-6.85 20.35 -7.15 20.05 L-7.45 19.35 -7.45 16.45 -7.15 15.75 Q-6.85 15.45 -6.45 15.45 L-6.1 15.45 -6.1 15.4 -6.4 14.55 -6.95 13.55 -7.1 13.0 -6.95 12.5 -6.55 12.15 -0.25 8.8 -0.55 8.65 Q-2.5 7.05 -3.45 5.6 -4.5 4.1 -4.85 2.75 L-5.4 0.2 -5.4 0.15 -5.45 -1.95 -5.15 -4.25 -5.15 -4.2 Q-4.95 -5.5 -4.35 -6.75 L-4.35 -6.7 Q-3.8 -7.9 -2.85 -9.0 L-2.85 -9.05 Q-1.95 -10.15 -0.45 -10.9 L-0.45 -10.95 -0.4 -10.95 -0.6 -11.1 -3.55 -14.05 -3.85 -14.75 -3.85 -15.8 -8.15 -11.25 -8.8 -10.95 Q-9.2 -10.9 -9.5 -11.15 -13.3 -13.95 -14.7 -17.1 L-15.3 -18.65 -15.3 -13.0 Q-15.3 -12.6 -15.6 -12.3 -15.9 -12.0 -16.3 -12.0 L-21.7 -12.0 Q-22.1 -12.0 -22.4 -12.3 L-22.7 -13.0 -22.7 -30.65 -22.85 -31.25 -22.9 -31.3 -22.9 -19.95 -22.95 -19.55 -23.65 -18.45 -23.75 -18.4 -24.85 -17.3 -24.85 -17.25 -26.2 -16.0 -26.25 -15.95 -27.8 -14.6 -27.8 -14.55 -32.15 -11.05 -32.75 -10.85 -33.4 -11.05 Q-37.95 -14.4 -40.35 -18.35 L-40.35 -18.4 Q-42.75 -22.45 -42.75 -27.55 L-42.4 -30.1 -41.6 -33.3 -41.6 -33.35 -40.2 -36.85 -39.8 -37.65 -40.95 -37.35 -41.55 -37.35 Q-41.9 -37.45 -42.05 -37.7 L-42.25 -38.3 -42.25 -42.55 -41.95 -43.25 -41.25 -43.55 -32.8 -43.55 -32.15 -43.3 -31.8 -42.75 -31.9 -42.1 Q-33.35 -39.0 -34.25 -36.1 -35.05 -33.35 -35.05 -30.7 L-34.75 -27.9 -34.75 -27.85 Q-34.55 -26.4 -33.85 -24.85 L-33.8 -24.85 Q-33.2 -23.3 -31.95 -21.75 L-31.1 -20.7 -31.1 -42.55 -30.8 -43.25 -30.1 -43.55 -23.9 -43.55 Q-23.5 -43.55 -23.2 -43.25 -22.9 -42.95 -22.9 -42.55 L-22.9 -34.1 -21.05 -35.75 Q-22.15 -36.4 -22.75 -37.65 L-22.8 -38.3 -22.5 -38.85 -19.9 -41.15 -19.35 -41.4 -18.8 -41.3 -18.35 -40.85 -17.5 -39.7 -17.5 -39.65 -17.3 -39.5 -16.4 -39.6 -15.8 -39.55 Q-15.5 -39.45 -15.3 -39.15 L-15.2 -38.55 Q-15.35 -37.15 -15.9 -36.6 L-16.7 -35.8 -16.8 -35.75 -17.3 -35.5 -15.55 -33.5 -15.3 -32.85 -15.3 -29.4 -14.1 -32.2 -12.05 -35.1 Q-10.75 -36.4 -9.0 -36.9 L-8.5 -36.9 -8.05 -36.65 -7.2 -35.4 -6.45 -34.1 -6.4 -34.1 -5.55 -33.05 -5.45 -32.95 Q-5.4 -32.85 -5.5 -32.8 L-5.4 -32.8 -4.8 -32.9 -4.7 -33.0 1.85 -39.2 2.55 -39.5 3.25 -39.2 3.5 -38.5 M9.7 -26.3 Q9.85 -25.2 10.35 -24.0 L11.25 -22.0 12.15 -20.55 12.2 -20.5 12.4 -20.2 Q12.35 -21.9 11.45 -24.35 L11.4 -24.35 10.6 -26.3 10.65 -26.25 9.7 -27.75 9.45 -28.05 9.7 -26.35 9.7 -26.3 M0.1 -1.2 L-0.5 -2.65 -0.8 -3.2 -0.7 -2.85 -0.7 -2.8 -0.2 -1.1 -0.2 -1.05 Q0.05 -0.3 0.45 0.3 L0.45 0.4 0.75 0.9 0.15 -1.2 0.1 -1.2 M37.0 11.1 Q37.4 11.1 37.7 11.4 L37.95 12.1 37.95 15.7 38.75 15.7 Q39.15 15.7 39.45 16.0 L39.75 16.7 39.75 19.7 39.45 20.4 38.75 20.7 37.95 20.7 37.95 33.1 38.2 33.6 38.15 33.55 39.2 34.85 39.35 35.55 39.05 36.15 35.25 39.55 34.55 39.8 Q34.15 39.8 33.85 39.5 L30.9 36.55 Q30.6 36.25 30.6 35.85 L30.6 20.25 30.55 20.1 30.5 20.05 29.6 18.9 Q29.35 18.55 29.4 18.2 L29.75 17.6 36.3 11.4 Q36.55 11.1 37.0 11.1 M29.35 17.95 L29.35 32.25 29.55 33.1 30.35 34.15 30.5 34.8 30.2 35.45 26.7 38.85 26.2 39.1 25.65 39.05 24.45 38.4 24.3 38.25 23.35 37.3 23.35 37.25 22.85 36.6 21.05 38.85 20.45 39.2 19.75 39.05 Q17.45 37.6 16.2 35.55 L15.55 34.35 11.3 39.05 10.75 39.35 10.15 39.25 8.4 38.1 6.1 35.6 Q4.95 34.0 4.05 31.65 3.1 29.3 3.1 26.1 3.1 23.1 4.05 20.8 4.95 18.5 6.1 16.9 7.25 15.3 8.3 14.4 L10.15 13.15 Q10.5 13.0 10.85 13.15 L11.4 13.6 16.0 21.65 16.1 22.25 15.85 22.8 10.55 28.85 11.85 30.4 11.85 30.45 13.2 31.7 14.15 32.2 14.55 32.25 14.95 32.25 14.85 30.75 Q14.85 29.45 15.2 28.1 L15.15 28.15 Q15.4 26.65 16.3 25.2 17.15 23.85 18.6 22.5 L18.65 22.45 Q19.55 21.7 20.7 21.0 L19.25 21.05 16.75 21.2 16.15 21.05 15.75 20.6 15.7 20.0 16.0 19.45 22.3 13.7 Q22.55 13.45 22.9 13.45 L23.5 13.6 28.9 17.1 29.25 17.5 29.35 17.95 M8.8 24.0 L8.75 23.7 8.75 23.65 8.6 23.45 8.6 23.65 8.65 24.25 8.8 24.0 M21.9 28.55 Q21.9 29.45 22.05 30.05 L22.05 27.2 Q21.9 27.8 21.9 28.55 M-7.65 -26.0 Q-8.75 -26.0 -9.6 -26.65 L-9.65 -26.65 -10.15 -27.1 -10.1 -26.55 -10.1 -26.5 -9.75 -24.7 -9.05 -22.55 -8.0 -20.55 -6.45 -18.8 -4.1 -17.6 -3.85 -17.45 -3.85 -29.5 -4.35 -28.35 -4.35 -28.4 Q-4.8 -27.5 -5.5 -26.8 -6.4 -26.0 -7.65 -26.0 M-1.65 -4.35 L-1.7 -4.4 -1.65 -4.3 -1.65 -4.35 M-11.45 13.15 Q-11.1 13.3 -10.9 13.6 L-6.3 21.65 -6.2 22.25 -6.45 22.8 -11.75 28.85 -10.45 30.4 -10.45 30.45 -9.1 31.7 -8.15 32.2 -7.75 32.25 -7.2 32.2 -6.6 32.35 -6.2 32.75 -6.1 33.35 -6.35 33.9 -11.0 39.05 -11.55 39.35 -12.15 39.25 -13.9 38.1 -16.2 35.6 Q-17.35 34.0 -18.25 31.65 -18.8 30.35 -19.0 28.85 -19.65 31.25 -20.5 32.95 L-20.5 33.0 Q-21.5 34.85 -22.7 36.0 -23.9 37.05 -24.95 37.7 L-25.0 37.75 -27.15 38.6 -28.65 38.8 -30.15 38.65 -30.25 38.6 -31.45 38.3 -31.55 38.25 -32.65 37.9 -32.6 37.9 -33.15 37.8 -33.55 37.9 -34.05 38.1 -34.9 38.4 -36.3 38.6 -36.95 38.55 -37.45 38.45 -37.65 38.35 -38.55 37.6 -38.8 36.9 -38.55 36.25 -38.0 35.55 -38.0 35.5 -37.5 34.65 -37.05 33.75 -37.05 11.9 -38.2 10.8 Q-38.8 9.8 -38.8 8.9 -38.85 7.45 -37.3 7.05 L-36.6 7.1 -36.1 7.25 -35.1 7.3 -34.3 7.2 -33.0 7.0 -31.45 6.8 -31.4 6.75 -29.75 6.65 Q-27.75 6.65 -25.6 7.65 -23.55 8.7 -21.95 10.75 -20.35 12.7 -19.4 15.75 -18.65 17.95 -18.45 20.8 L-18.45 21.2 -18.25 20.8 Q-17.35 18.5 -16.2 16.9 L-14.0 14.4 Q-12.8 13.4 -12.15 13.15 -11.8 13.0 -11.45 13.15 M-13.7 23.45 L-13.7 23.65 -13.65 24.25 -13.5 24.0 -13.55 23.7 -13.55 23.65 -13.7 23.45 M-28.7 11.5 L-28.85 12.25 -28.85 33.25 -28.75 33.75 -28.65 33.9 -28.5 33.95 -28.05 33.5 -28.05 33.45 Q-27.65 32.55 -27.65 31.25 L-27.65 14.85 Q-27.65 13.4 -27.9 12.65 L-28.3 11.75 -28.35 11.7 -28.65 11.5 -28.65 11.55 -28.7 11.5 -28.7 11.55 -28.7 11.5" fill="url(#gradient1)" fill-rule="evenodd" stroke="none"/>
    <path d="M26.9 -35.45 L29.7 -30.95 26.55 -26.8 24.8 -28.85 24.25 -28.15 24.25 -13.0 19.05 -13.0 19.05 -30.15 18.8 -31.1 Q18.55 -31.4 18.2 -32.25 L21.65 -35.6 24.25 -32.5 24.25 -31.85 26.9 -35.45 M38.4 -35.0 L41.95 -35.0 Q42.65 -35.0 42.65 -34.25 L42.45 -33.45 42.1 -31.95 41.75 -30.1 41.5 -28.2 Q41.25 -25.15 40.55 -22.05 L39.0 -16.3 37.45 -11.65 Q36.7 -9.65 36.5 -8.7 L36.4 -7.85 Q36.3 -7.25 35.8 -7.25 L32.05 -7.25 33.3 -9.9 34.9 -13.0 Q33.7 -14.05 32.85 -16.25 31.95 -18.4 31.45 -20.9 30.9 -23.35 30.65 -25.9 L30.4 -30.45 30.45 -31.55 30.55 -32.75 30.6 -33.8 30.65 -34.7 33.05 -35.1 35.55 -35.55 35.65 -29.95 35.95 -25.65 36.65 -22.1 37.3 -19.7 38.05 -23.95 Q38.45 -26.3 38.45 -28.85 38.45 -30.85 38.1 -32.2 37.75 -33.55 37.75 -34.25 37.75 -35.0 38.4 -35.0 M8.15 -33.8 Q9.25 -35.1 10.95 -36.05 13.15 -34.5 14.3 -32.7 15.4 -30.95 16.0 -29.15 16.55 -27.35 16.7 -25.8 L16.9 -23.3 16.6 -21.0 15.65 -18.25 13.95 -15.3 Q12.85 -13.75 11.0 -12.15 8.6 -14.1 7.45 -15.9 6.25 -17.7 5.75 -19.4 5.2 -21.05 5.1 -22.5 L5.0 -25.25 Q5.0 -26.55 5.35 -28.05 5.65 -29.55 6.35 -31.0 7.05 -32.45 8.15 -33.8 M4.3 -33.9 L4.3 -30.9 2.5 -30.9 2.5 -17.5 Q2.5 -16.95 2.95 -16.4 L3.9 -15.2 0.1 -11.8 -2.85 -14.75 -2.85 -30.35 Q-2.85 -30.85 -3.2 -31.2 L-4.05 -32.3 2.5 -38.5 2.5 -33.9 4.3 -33.9 M9.0 -29.75 L8.6 -29.35 Q8.45 -29.0 8.45 -28.25 L8.7 -26.15 Q8.9 -24.95 9.4 -23.65 L10.35 -21.55 11.35 -19.95 12.2 -18.95 Q12.6 -18.6 12.85 -18.6 L13.25 -19.0 13.4 -20.05 Q13.4 -21.9 12.35 -24.7 L11.5 -26.75 10.5 -28.35 9.6 -29.4 9.0 -29.75 M10.0 -7.4 L10.0 -6.9 11.95 -9.6 14.05 -6.25 11.7 -3.15 10.4 -4.65 10.0 -4.15 10.0 7.25 6.1 7.25 6.1 -5.65 5.9 -6.35 Q5.7 -6.6 5.45 -7.2 L8.05 -9.75 10.0 -7.4 M2.5 -7.55 L3.8 -4.9 4.3 -2.4 4.45 -0.5 4.25 1.25 3.55 3.3 2.25 5.5 Q1.45 6.65 0.05 7.85 -1.75 6.4 -2.65 5.05 -3.55 3.7 -3.9 2.45 L-4.4 0.1 -4.45 -1.95 -4.2 -4.05 -3.45 -6.3 -2.1 -8.4 0.0 -10.05 Q1.65 -8.9 2.5 -7.55 M0.4 -3.1 L-0.35 -4.3 -1.0 -5.1 -1.45 -5.35 -1.75 -5.05 -1.9 -4.2 -1.7 -2.65 -1.15 -0.75 -0.45 0.8 0.3 2.0 0.95 2.75 1.45 3.05 1.75 2.75 1.85 1.95 Q1.85 0.55 1.05 -1.55 L0.4 -3.1 M-41.25 -42.55 L-32.8 -42.55 Q-34.3 -39.35 -35.2 -36.4 -36.05 -33.5 -36.05 -30.7 L-35.75 -27.7 Q-35.5 -26.1 -34.75 -24.45 -34.05 -22.8 -32.75 -21.15 L-30.1 -18.15 -30.1 -42.55 -23.9 -42.55 -23.9 -19.95 -24.45 -19.1 -25.55 -18.0 -26.9 -16.7 -28.45 -15.35 -32.8 -11.85 Q-37.2 -15.1 -39.5 -18.9 -41.75 -22.75 -41.75 -27.55 L-41.45 -29.9 -40.65 -33.05 -39.3 -36.45 Q-38.55 -38.2 -37.55 -39.1 L-39.35 -38.85 -41.25 -38.3 -41.25 -42.55 M-17.3 -38.5 L-16.2 -38.65 Q-16.3 -37.65 -16.65 -37.25 L-17.3 -36.65 -18.0 -36.3 -18.7 -36.2 Q-20.95 -36.2 -21.85 -38.1 L-19.25 -40.4 -18.2 -38.95 Q-17.75 -38.5 -17.3 -38.5 M-11.35 -34.4 Q-10.25 -35.5 -8.75 -35.95 L-8.1 -34.95 -7.25 -33.55 -6.25 -32.35 -5.5 -31.8 -5.25 -31.8 -4.45 -31.95 -4.65 -30.3 -5.25 -28.85 Q-5.6 -28.1 -6.2 -27.55 -6.8 -27.0 -7.65 -27.0 -8.4 -27.0 -9.0 -27.45 L-10.15 -28.5 -10.85 -29.55 -10.9 -29.5 -11.1 -28.85 -11.2 -27.8 -11.1 -26.45 -10.75 -24.45 -10.0 -22.2 -8.85 -20.0 -7.1 -18.05 Q-6.1 -17.25 -4.45 -16.65 L-8.9 -11.95 Q-12.45 -14.6 -13.8 -17.55 -15.15 -20.5 -15.15 -24.1 -15.15 -26.25 -14.6 -28.2 -14.1 -30.15 -13.25 -31.75 L-11.35 -34.4 M-16.3 -32.85 L-16.3 -13.0 -21.7 -13.0 -21.7 -30.65 Q-21.7 -31.2 -22.0 -31.75 L-22.7 -32.95 -19.15 -36.15 -16.3 -32.85 M-11.8 14.1 L-7.2 22.15 -13.0 28.75 -11.2 31.1 -9.65 32.55 -8.5 33.15 -7.75 33.25 -7.1 33.2 -11.75 38.35 -13.3 37.3 -15.4 35.0 Q-16.5 33.5 -17.35 31.3 -18.2 29.1 -18.2 26.1 -18.2 23.3 -17.35 21.15 -16.5 19.0 -15.4 17.5 L-13.35 15.15 Q-12.35 14.3 -11.8 14.1 M-13.0 22.65 L-14.0 20.75 -14.3 21.55 -14.6 22.55 -14.7 23.65 -14.6 24.75 -14.35 25.6 -14.15 26.35 -13.0 24.95 -12.7 24.55 -12.5 24.0 Q-12.5 23.6 -12.65 23.25 L-13.0 22.65 M-6.1 13.0 L0.6 9.45 3.4 12.8 1.2 15.6 -0.85 13.45 -0.45 14.0 0.05 14.9 0.35 15.65 0.45 16.45 2.6 16.45 2.6 19.35 0.45 19.35 0.45 37.6 -4.95 37.6 -4.95 19.35 -6.45 19.35 -6.45 16.45 -4.95 16.45 -5.0 16.15 -5.15 15.15 -5.5 14.15 -6.1 13.0 M-26.05 8.55 Q-24.2 9.5 -22.75 11.35 -21.25 13.2 -20.35 16.05 -19.4 18.9 -19.4 22.75 -19.4 26.05 -19.95 28.45 -20.55 30.85 -21.4 32.5 -22.3 34.2 -23.4 35.25 L-25.5 36.85 -27.4 37.6 -28.65 37.8 -29.95 37.65 -31.25 37.3 -32.35 36.95 -33.15 36.8 -33.9 36.95 -34.5 37.15 Q-34.7 37.3 -35.2 37.45 L-36.3 37.6 -36.75 37.55 -37.2 37.45 -37.8 36.9 -37.15 36.0 -36.6 35.1 -36.05 33.95 -36.05 11.3 -37.35 10.25 -37.8 8.9 Q-37.8 8.2 -37.05 8.0 L-36.2 8.25 -35.1 8.3 -34.15 8.2 -32.85 8.0 -31.3 7.75 -29.75 7.65 Q-27.95 7.65 -26.05 8.55 M-27.65 11.0 Q-28.05 10.65 -28.4 10.55 L-29.0 10.45 -29.55 10.95 -29.85 12.25 -29.85 33.25 -29.6 34.3 -29.15 34.75 -28.5 34.95 Q-27.8 34.95 -27.2 33.95 -26.65 32.9 -26.65 31.25 L-26.65 14.85 Q-26.65 13.2 -26.95 12.3 -27.25 11.4 -27.65 11.0 M22.9 23.85 L22.9 23.8 22.45 24.15 21.75 25.1 21.15 26.6 Q20.9 27.5 20.9 28.55 20.9 29.8 21.15 30.55 L21.75 31.75 22.3 32.25 22.6 32.4 22.85 32.25 23.05 31.6 23.05 24.05 23.0 23.9 22.9 23.85 M21.85 20.2 L21.0 20.0 19.2 20.05 16.65 20.2 22.95 14.45 28.35 17.95 28.35 32.25 Q28.35 33.15 28.75 33.7 L29.5 34.7 26.0 38.1 25.0 37.55 24.1 36.6 23.3 35.55 22.95 34.85 20.25 38.2 Q18.2 36.9 17.05 35.0 15.85 33.15 15.85 30.75 15.85 29.55 16.15 28.3 16.35 27.0 17.15 25.75 17.95 24.5 19.3 23.2 20.7 22.0 22.75 21.05 L22.7 21.0 22.4 20.55 21.85 20.2 M31.25 19.4 L30.4 18.3 36.95 12.1 36.95 16.7 38.75 16.7 38.75 19.7 36.95 19.7 36.95 33.1 Q36.95 33.65 37.4 34.2 L38.35 35.4 34.55 38.8 31.6 35.85 31.6 20.25 Q31.6 19.75 31.25 19.4 M8.95 15.15 Q9.95 14.3 10.5 14.1 L15.1 22.15 9.3 28.75 11.1 31.1 12.65 32.55 13.8 33.15 14.55 33.25 15.2 33.2 10.55 38.35 9.0 37.3 6.9 35.0 Q5.8 33.5 4.95 31.3 4.1 29.1 4.1 26.1 4.1 23.3 4.95 21.15 5.8 19.0 6.9 17.5 L8.95 15.15 M9.3 22.65 L8.3 20.75 8.0 21.55 7.7 22.55 7.6 23.65 7.7 24.75 7.95 25.6 8.15 26.35 9.3 24.95 9.6 24.55 9.8 24.0 9.65 23.25 9.3 22.65" fill="url(#gradient2)" fill-rule="evenodd" stroke="none"/>
    <path d="M39.9 -5.9 Q41.3 -5.2 42.65 -3.2 L41.9 -2.1 40.5 -0.65 38.95 -2.1 Q37.65 -3.5 37.65 -3.75 37.65 -4.15 38.65 -4.85 L39.9 -5.9 M49.5 24.25 Q50.0 24.25 50.9 21.8 L52.0 19.0 Q52.4 18.55 52.95 18.35 L54.0 18.0 54.0 40.0 Q50.95 40.75 46.5 42.25 L43.75 42.25 41.8 40.45 Q38.7 41.65 35.0 45.0 30.0 49.55 30.0 54.0 L13.0 54.0 12.5 53.0 Q6.4 50.75 4.55 48.45 3.55 47.25 3.0 44.0 2.75 42.3 2.85 40.2 3.05 37.3 4.0 35.5 5.7 36.3 7.45 37.95 L10.4 41.0 Q9.2 37.25 10.5 34.25 L12.0 32.0 10.6 29.5 Q9.15 26.7 9.15 25.0 9.15 22.9 10.0 22.0 11.6 20.35 13.4 19.2 14.9 18.25 16.0 18.0 16.3 17.95 16.15 19.85 L16.0 22.0 Q16.45 23.35 18.2 24.55 20.3 25.95 21.0 27.0 21.75 28.15 20.2 30.9 19.15 32.8 18.0 34.0 18.25 34.7 22.0 37.2 24.1 35.05 30.8 36.65 L31.15 36.3 Q34.5 32.8 34.5 32.1 L29.75 23.0 Q29.75 22.1 32.75 17.5 35.75 13.05 36.0 13.2 38.0 14.55 39.55 16.1 41.5 18.05 41.5 19.25 41.55 23.6 45.45 24.35 L49.5 24.25 M38.0 6.0 L37.2 8.25 35.95 11.0 35.5 8.0 32.2 7.8 Q30.15 7.0 30.15 1.9 30.15 0.9 30.75 0.5 31.1 0.25 31.5 0.25 34.5 0.25 36.35 2.2 38.0 3.9 38.0 6.0 M15.9 17.1 L14.35 16.05 12.6 14.55 14.15 13.05 Q14.8 12.55 16.0 12.0 L17.5 14.05 Q16.35 14.7 15.9 17.1" fill="url(#gradient3)" fill-rule="evenodd" stroke="none"/>
  </g>
  <defs>
    <linearGradient gradientTransform="matrix(0.0, 0.0659, -0.0659, 0.0, 0.0, 0.0)" gradientUnits="userSpaceOnUse" id="gradient0" spreadMethod="pad" x1="-819.2" x2="819.2">
      <stop offset="0.0" stop-color="#342727"/>
      <stop offset="1.0" stop-color="#5f5252"/>
    </linearGradient>
    <linearGradient gradientTransform="matrix(-0.0224, -0.0512, 0.0176, -0.0077, 148.15, -68.15)" gradientUnits="userSpaceOnUse" id="gradient1" spreadMethod="pad" x1="-819.2" x2="819.2">
      <stop offset="0.0" stop-color="#95764d" stop-opacity="0.0"/>
      <stop offset="0.16470588235294117" stop-color="#000000" stop-opacity="0.2"/>
      <stop offset="0.6352941176470588" stop-color="#000000"/>
      <stop offset="1.0" stop-color="#000000"/>
    </linearGradient>
    <linearGradient gradientTransform="matrix(-0.0461, -0.0633, 0.0088, -0.0064, 0.0, -1.1)" gradientUnits="userSpaceOnUse" id="gradient2" spreadMethod="pad" x1="-819.2" x2="819.2">
      <stop offset="0.0" stop-color="#95764d" stop-opacity="0.0"/>
      <stop offset="0.16470588235294117" stop-color="#5f7c79" stop-opacity="0.15294118"/>
      <stop offset="0.6196078431372549" stop-color="#7b9994"/>
    </linearGradient>
    <linearGradient gradientTransform="matrix(-0.0132, -0.0309, 0.0229, -0.0097, 26.3, 27.55)" gradientUnits="userSpaceOnUse" id="gradient3" spreadMethod="pad" x1="-819.2" x2="819.2">
      <stop offset="0.0" stop-color="#87fefd"/>
      <stop offset="0.596078431372549" stop-color="#00ffff"/>
      <stop offset="1.0" stop-color="#02dfdf"/>
    </linearGradient>
  </defs>
</svg>
