<?xml version="1.0" encoding="UTF-8" standalone="no"?>
<svg xmlns:xlink="http://www.w3.org/1999/xlink" height="114.0px" width="114.0px" xmlns="http://www.w3.org/2000/svg">
  <g transform="matrix(1.0, 0.0, 0.0, 1.0, 57.0, 57.0)">
    <path d="M57.0 -57.0 L57.0 40.0 Q57.0 41.0 56.4 41.85 55.75 42.65 54.75 42.9 L46.5 45.25 43.75 45.25 Q42.5 45.25 41.65 44.4 L41.35 44.1 Q39.7 45.2 37.8 46.85 33.3 50.75 33.0 54.05 33.0 55.25 32.1 56.15 31.25 57.0 30.0 57.0 L-57.0 57.0 -57.0 -57.0 57.0 -57.0" fill="#000000" fill-rule="evenodd" stroke="none"/>
    <path d="M43.75 42.25 L41.8 40.45 Q38.7 41.65 35.0 45.0 30.0 49.55 30.0 54.0 L-54.0 54.0 -54.0 -54.0 54.0 -54.0 54.0 40.0 Q50.95 40.75 46.5 42.25 L43.75 42.25" fill="url(#gradient0)" fill-rule="evenodd" stroke="none"/>
    <path d="M37.15 -54.0 L37.05 -53.35 36.75 -50.75 Q36.4 -50.4 32.55 -49.3 L28.75 -48.25 24.0 -49.5 15.75 -51.25 Q14.0 -51.4 12.65 -54.0 L37.15 -54.0" fill="#dbccb0" fill-rule="evenodd" stroke="none"/>
    <path d="M-54.0 41.75 L-53.0 41.55 -46.85 41.0 Q-42.35 41.0 -40.7 42.2 -39.7 42.95 -39.45 44.9 -39.15 46.85 -38.35 47.55 -36.95 48.75 -32.85 48.75 L-30.4 47.4 Q-28.0 46.15 -24.35 46.5 -21.25 46.8 -19.45 47.75 -18.1 48.5 -17.0 50.0 -16.1 51.2 -15.85 52.65 L-15.85 54.0 -54.0 54.0 -54.0 41.75" fill="#d7beae" fill-rule="evenodd" stroke="none"/>
    <path d="M-54.0 41.75 L-53.0 41.55 -46.85 41.0 Q-42.35 41.0 -40.7 42.2 -39.7 42.95 -39.45 44.9 -39.15 46.85 -38.35 47.55 -36.95 48.75 -32.85 48.75 L-30.4 47.4 Q-28.0 46.15 -24.35 46.5 -21.25 46.8 -19.45 47.75 -18.1 48.5 -17.0 50.0 -16.1 51.2 -15.85 52.65 L-15.85 54.0" fill="none" stroke="#ceb3a2" stroke-linecap="round" stroke-linejoin="round" stroke-width="1.0"/>
    <path d="M12.65 -54.0 Q14.0 -51.4 15.75 -51.25 L24.0 -49.5 28.75 -48.25 32.55 -49.3 Q36.4 -50.4 36.75 -50.75 L37.05 -53.35 37.15 -54.0" fill="none" stroke="#d9c5bb" stroke-linecap="round" stroke-linejoin="round" stroke-width="1.0"/>
    <path d="M25.4 -35.1 L25.4 -22.5 25.8 -23.55 Q26.75 -26.0 27.95 -27.6 L30.3 -30.3 30.35 -30.3 32.25 -31.55 32.95 -31.6 33.5 -31.15 38.35 -22.65 38.45 -22.05 38.2 -21.45 32.6 -15.1 33.95 -13.45 33.95 -13.4 35.35 -12.1 35.4 -12.05 Q35.9 -11.65 36.25 -11.55 L36.85 -11.5 37.4 -11.55 38.0 -11.4 38.4 -11.0 38.5 -10.4 38.25 -9.85 33.4 -4.4 32.9 -4.1 32.3 -4.15 30.35 -5.45 Q29.2 -6.35 27.95 -8.05 26.75 -9.7 25.8 -12.15 L25.4 -13.25 25.4 -5.9 25.1 -5.2 Q24.8 -4.9 24.4 -4.9 L18.7 -4.9 Q18.3 -4.9 18.0 -5.2 17.7 -5.5 17.7 -5.9 L17.7 -24.05 17.0 -23.75 16.1 -23.75 16.1 -10.65 16.35 -10.1 16.4 -10.1 17.45 -8.75 17.6 -8.1 17.3 -7.45 13.3 -3.85 Q13.0 -3.6 12.6 -3.6 12.15 -3.6 11.9 -3.9 L8.8 -7.05 Q8.5 -7.35 8.5 -7.75 L8.5 -24.15 8.4 -24.05 Q8.1 -23.75 7.7 -23.75 L6.8 -23.75 6.8 -10.65 7.05 -10.1 7.1 -10.1 8.15 -8.75 8.3 -8.1 8.0 -7.45 4.0 -3.85 3.3 -3.6 Q2.85 -3.6 2.6 -3.9 L-0.5 -7.05 -0.8 -7.75 -0.8 -24.2 -0.95 -24.45 -0.8 -24.35 -1.9 -25.65 -2.1 -26.35 -1.75 -26.95 5.15 -33.4 5.85 -33.7 Q6.25 -33.7 6.55 -33.4 L6.8 -32.7 6.8 -28.9 7.7 -28.9 8.4 -28.6 8.7 -28.05 14.45 -33.4 15.15 -33.7 15.85 -33.4 16.1 -32.7 16.1 -28.9 17.0 -28.9 17.7 -28.6 17.7 -30.75 17.55 -31.85 17.5 -31.9 16.7 -33.65 Q16.55 -33.95 16.65 -34.3 L17.0 -34.85 17.6 -35.05 19.75 -35.2 19.7 -35.15 21.6 -35.5 22.9 -35.8 24.25 -36.1 24.85 -36.0 25.25 -35.65 25.4 -35.1 M30.6 -19.85 L30.6 -19.9 30.85 -20.2 30.8 -20.5 30.75 -20.55 30.55 -20.9 30.55 -20.6 30.6 -19.85 M34.35 12.3 L34.35 15.45 34.05 16.15 33.35 16.45 32.45 16.45 32.45 29.55 32.7 30.1 32.75 30.1 33.8 31.45 33.95 32.1 33.65 32.75 29.65 36.35 28.95 36.6 28.25 36.3 25.15 33.15 Q24.85 32.85 24.85 32.45 L24.85 16.0 24.7 15.75 24.85 15.85 23.75 14.55 23.6 14.3 23.6 29.6 23.7 30.05 23.75 30.15 24.15 30.6 24.45 31.05 24.5 31.6 24.2 32.05 20.4 35.9 19.95 36.2 19.4 36.15 18.95 35.85 16.95 33.4 16.6 33.0 16.6 34.3 16.3 35.0 15.6 35.3 9.75 35.3 Q9.35 35.3 9.05 35.0 L8.75 34.3 8.75 15.95 8.7 15.9 8.65 15.85 8.2 15.4 8.2 34.3 7.9 35.0 7.2 35.3 1.55 35.3 Q1.15 35.3 0.85 35.0 0.55 34.7 0.55 34.3 L0.55 25.25 0.4 26.15 -0.7 29.2 -2.55 32.45 -2.6 32.5 -5.85 35.95 -6.45 36.2 -7.1 36.0 Q-9.75 33.8 -11.05 31.8 -12.4 29.75 -13.0 27.9 L-13.7 24.4 -13.7 24.35 -13.8 21.4 -13.45 18.3 -13.85 18.9 -13.9 18.9 Q-15.1 20.25 -16.7 21.05 -18.35 21.85 -20.35 21.85 L-22.4 21.6 -22.4 34.3 -22.7 35.0 Q-23.0 35.3 -23.4 35.3 L-30.05 35.3 -30.75 35.0 -31.05 34.3 -31.05 7.15 -31.95 6.1 -31.9 6.1 Q-32.6 5.2 -32.6 2.95 L-32.4 2.35 -31.85 2.0 -31.25 2.05 -29.2 2.75 -29.25 2.75 -27.8 2.95 -26.8 2.85 -26.75 2.8 -25.35 2.55 -23.65 2.15 -23.6 2.15 -22.1 1.95 Q-19.7 1.95 -17.75 2.75 -15.8 3.5 -14.4 4.85 -13.0 6.25 -12.25 8.1 -11.55 9.9 -11.55 11.9 L-11.7 13.8 -10.25 11.85 Q-9.0 10.25 -7.0 9.15 L-6.5 9.0 -5.95 9.2 Q-3.45 11.05 -2.2 13.05 L-2.2 13.0 Q-0.95 14.95 -0.3 17.0 0.35 19.0 0.5 20.7 L0.55 21.15 0.55 15.75 0.35 15.05 -0.35 13.8 -0.45 13.15 -0.15 12.55 2.35 10.3 Q1.15 9.65 0.5 8.3 L0.45 7.65 0.75 7.1 3.45 4.7 Q3.65 4.5 4.0 4.45 L4.55 4.55 5.0 4.95 5.9 6.3 6.15 6.5 7.1 6.35 7.75 6.4 8.25 6.8 8.35 7.45 Q8.15 8.8 7.65 9.35 L6.8 10.25 6.75 10.25 Q6.4 10.45 6.1 10.6 L7.95 12.75 8.2 13.3 11.35 9.7 Q11.55 9.5 11.85 9.4 L12.4 9.4 12.85 9.7 15.5 12.75 18.2 9.6 18.7 9.3 19.25 9.3 19.7 9.6 23.35 13.65 23.55 13.95 23.55 13.85 23.9 13.25 30.8 6.8 Q31.05 6.5 31.5 6.5 31.9 6.5 32.2 6.8 L32.45 7.5 32.45 11.3 33.35 11.3 Q33.75 11.3 34.05 11.6 L34.35 12.3 M-17.15 -31.15 L-17.25 -30.7 -17.55 -30.35 -20.75 -28.0 -17.25 -25.45 -16.95 -25.1 -16.85 -24.65 -16.85 -16.8 -15.9 -18.85 Q-15.05 -20.35 -13.4 -21.8 L-11.2 -23.4 -12.85 -23.4 -15.5 -23.2 -16.1 -23.3 -16.5 -23.8 -16.55 -24.4 -16.25 -24.9 -9.6 -31.0 -9.0 -31.3 -8.4 -31.15 -2.7 -27.45 -2.35 -27.05 -2.25 -26.6 -2.25 -11.55 -2.0 -10.6 -1.2 -9.55 Q-0.95 -9.25 -1.0 -8.85 L-1.3 -8.2 -5.05 -4.6 Q-5.25 -4.45 -5.55 -4.35 L-6.1 -4.4 -7.4 -5.25 -7.35 -5.2 -8.45 -6.3 -9.05 -7.05 -11.0 -4.6 Q-11.25 -4.3 -11.65 -4.25 L-12.35 -4.4 Q-14.7 -5.95 -16.0 -8.05 -16.75 -9.25 -17.05 -10.55 -17.7 -9.2 -18.6 -8.2 L-18.55 -8.25 Q-19.55 -7.1 -20.75 -6.3 L-20.8 -6.25 -23.4 -5.15 -23.35 -5.15 -26.25 -4.7 -27.85 -4.9 -29.45 -5.25 -29.5 -5.25 -30.95 -5.6 -31.0 -5.65 -31.8 -5.8 -32.0 -5.75 -32.6 -5.45 -32.75 -5.4 -33.6 -5.1 -33.65 -5.1 -35.1 -4.9 -35.55 -4.9 -35.8 -4.9 -36.2 -5.0 -36.25 -5.0 -37.15 -5.4 -37.65 -5.95 Q-37.8 -6.35 -37.6 -6.75 L-36.6 -8.45 -36.55 -8.5 -36.05 -9.15 -36.0 -9.2 -35.8 -9.65 -35.75 -10.4 -35.75 -33.05 -36.65 -33.95 Q-37.6 -35.05 -37.55 -36.0 -37.55 -37.65 -36.7 -37.85 L-35.9 -38.2 -35.3 -38.2 -33.45 -37.7 -33.35 -37.65 -31.85 -37.5 -30.6 -37.55 -30.7 -37.55 -29.4 -37.85 -28.0 -38.15 -27.9 -38.2 -26.1 -38.3 -23.5 -37.9 Q-22.0 -37.55 -20.6 -36.7 -19.3 -35.85 -18.25 -34.6 -17.15 -33.3 -17.15 -31.15 M-27.05 -28.55 L-26.55 -29.65 -26.5 -29.7 -26.3 -31.1 Q-26.3 -31.75 -26.45 -32.2 L-26.9 -32.95 -26.95 -33.0 -27.05 -33.1 -27.05 -28.55 M-26.2 -21.75 L-27.05 -20.7 -27.05 -11.55 -27.0 -10.65 -26.9 -10.25 -26.85 -10.15 -26.5 -9.95 -26.55 -9.95 -26.1 -9.9 -26.05 -10.1 Q-25.8 -10.5 -25.8 -11.3 L-25.8 -21.45 -26.2 -21.75 M-9.85 -17.3 L-9.85 -17.25 -9.9 -17.15 -10.1 -15.45 -9.9 -13.6 -9.85 -13.45 -9.85 -17.3 M-7.2 22.75 L-6.25 24.85 -5.3 26.45 -5.0 26.85 Q-5.0 25.05 -6.0 22.35 L-5.95 22.35 -6.9 20.25 -6.85 20.3 -7.8 18.8 -7.85 18.7 -8.15 18.3 -7.95 20.25 -7.2 22.75 M-22.55 6.85 L-22.45 6.7 -22.5 6.7 -22.4 6.6 -22.4 6.3 -22.55 6.85 M-22.4 6.7 L-22.4 13.35 Q-21.75 13.35 -21.2 13.7 L-21.15 13.7 -20.5 14.2 -20.4 12.1 Q-20.4 10.9 -20.55 9.8 L-20.95 8.0 -21.0 7.95 -21.6 7.0 -21.65 6.95 Q-21.95 6.75 -22.4 6.7" fill="url(#gradient1)" fill-rule="evenodd" stroke="none"/>
    <path d="M23.15 -34.85 L24.4 -35.1 24.4 -5.9 18.7 -5.9 18.7 -30.75 18.4 -32.35 17.6 -34.05 19.9 -34.2 21.75 -34.55 23.15 -34.85 M32.6 -30.65 L37.45 -22.15 31.3 -15.2 33.2 -12.75 34.8 -11.25 Q35.55 -10.7 36.05 -10.6 L36.85 -10.5 37.5 -10.55 32.65 -5.1 Q32.05 -5.35 30.95 -6.25 29.9 -7.05 28.75 -8.65 27.65 -10.2 26.7 -12.55 25.8 -14.85 25.8 -18.0 25.8 -20.95 26.7 -23.2 27.65 -25.5 28.75 -27.05 L30.95 -29.55 Q32.0 -30.4 32.6 -30.65 M8.2 -26.25 L15.1 -32.7 15.1 -27.9 17.0 -27.9 17.0 -24.75 15.1 -24.75 15.1 -10.65 Q15.1 -10.05 15.6 -9.45 L16.6 -8.2 12.6 -4.6 9.5 -7.75 9.5 -24.2 9.15 -25.1 8.2 -26.25 M5.8 -27.9 L7.7 -27.9 7.7 -24.75 5.8 -24.75 5.8 -10.65 Q5.8 -10.05 6.3 -9.45 L7.3 -8.2 3.3 -4.6 0.2 -7.75 0.2 -24.2 -0.15 -25.1 -1.1 -26.25 5.8 -32.7 5.8 -27.9 M31.3 -21.65 L30.3 -23.6 30.25 -23.6 29.95 -22.8 29.65 -21.7 29.55 -20.6 29.6 -19.4 29.9 -18.55 30.1 -17.75 31.3 -19.2 31.65 -19.6 31.85 -20.2 31.65 -21.0 31.3 -21.65 M25.5 15.1 L24.55 13.95 31.45 7.5 31.45 12.3 33.35 12.3 33.35 15.45 31.45 15.45 31.45 29.55 Q31.45 30.15 31.95 30.75 L32.95 32.0 28.95 35.6 25.85 32.45 25.85 16.0 Q25.85 15.55 25.5 15.1 M1.4 7.85 L4.1 5.45 5.2 7.0 Q5.7 7.5 6.15 7.5 L7.35 7.3 Q7.2 8.35 6.85 8.75 L6.2 9.4 5.4 9.75 4.7 9.85 Q2.35 9.85 1.4 7.85 M8.65 14.3 L12.1 10.35 15.2 13.9 15.4 14.35 18.95 10.25 22.6 14.3 22.6 29.6 Q22.6 30.25 22.9 30.65 L23.5 31.35 19.7 35.2 17.55 32.55 17.2 32.05 Q16.9 31.65 16.9 30.75 L16.9 16.95 16.8 16.6 Q16.75 16.5 16.55 16.5 16.4 16.5 16.05 16.8 L15.6 17.2 15.6 34.3 9.75 34.3 9.75 15.95 9.35 15.15 8.65 14.3 M1.2 14.55 L0.5 13.3 4.2 9.95 7.2 13.4 7.2 34.3 1.55 34.3 1.55 15.75 Q1.55 15.15 1.2 14.55 M-18.15 -31.15 L-22.45 -28.0 -17.85 -24.65 -17.85 -11.3 Q-18.45 -9.9 -19.35 -8.9 -20.2 -7.85 -21.3 -7.15 L-23.7 -6.1 -26.25 -5.7 -27.65 -5.9 -29.25 -6.25 -30.75 -6.6 -31.8 -6.8 -32.4 -6.7 -33.1 -6.35 -33.95 -6.05 -35.1 -5.9 -35.55 -5.9 -36.0 -6.0 -36.7 -6.3 -35.8 -7.85 -35.2 -8.65 Q-34.95 -9.0 -34.85 -9.4 L-34.75 -10.4 -34.75 -33.55 -35.9 -34.6 Q-36.55 -35.35 -36.55 -36.0 -36.55 -36.8 -36.25 -36.95 L-35.65 -37.25 -33.6 -36.7 -31.85 -36.5 -30.45 -36.6 -29.2 -36.9 -27.8 -37.2 -26.1 -37.3 -23.75 -36.95 Q-22.4 -36.6 -21.15 -35.85 -19.95 -35.1 -19.05 -34.0 -18.15 -32.9 -18.15 -31.15 M-3.25 -26.6 L-3.25 -11.55 Q-3.25 -10.55 -2.8 -10.0 L-2.0 -8.95 -5.75 -5.35 -6.75 -6.0 -7.7 -6.95 -8.55 -8.05 -8.95 -8.8 -11.8 -5.25 Q-13.95 -6.65 -15.15 -8.6 -16.4 -10.6 -16.4 -13.1 L-16.1 -15.7 Q-15.85 -17.05 -15.05 -18.35 -14.25 -19.7 -12.75 -21.05 -11.35 -22.35 -9.15 -23.3 L-9.2 -23.35 -9.5 -23.85 -10.1 -24.2 -11.0 -24.4 -12.9 -24.4 -15.6 -24.2 -8.95 -30.3 -3.25 -26.6 M-26.2 -33.65 L-26.85 -34.2 -27.3 -34.35 -27.8 -34.05 -28.05 -33.5 -28.05 -25.75 -27.45 -26.55 -26.3 -27.9 Q-25.85 -28.55 -25.6 -29.35 -25.3 -30.15 -25.3 -31.1 -25.3 -32.0 -25.55 -32.65 L-26.2 -33.65 M-28.05 -21.05 L-28.05 -11.55 -28.0 -10.5 -27.9 -10.0 -27.75 -9.7 -27.5 -9.4 -26.9 -9.05 -26.1 -8.9 Q-25.8 -8.9 -25.3 -9.45 -24.8 -10.05 -24.8 -11.3 L-24.8 -21.95 -26.35 -23.15 -28.05 -21.05 M-9.0 -20.4 L-9.5 -20.1 -10.2 -19.1 -10.85 -17.5 -11.1 -15.45 -10.85 -13.3 -10.2 -12.05 -9.6 -11.5 -9.35 -11.35 Q-9.25 -11.35 -9.05 -11.5 -8.85 -11.65 -8.85 -12.2 L-8.85 -20.2 -8.9 -20.3 -9.0 -20.4 M-20.05 7.6 Q-20.35 6.7 -21.0 6.2 -21.55 5.7 -22.5 5.7 L-23.05 5.85 -23.4 6.3 -23.4 14.5 -22.7 14.3 -21.7 14.55 Q-21.3 14.8 -21.05 15.1 L-20.7 15.75 -20.65 16.2 Q-20.65 16.8 -20.95 17.25 -21.3 17.7 -21.8 17.7 L-22.3 17.6 -21.55 17.85 -20.85 17.65 -20.2 16.9 Q-19.85 16.3 -19.65 15.2 -19.4 14.05 -19.4 12.1 -19.4 10.85 -19.55 9.65 L-20.05 7.6 M-12.55 11.9 Q-12.55 13.75 -13.1 15.35 -13.65 17.0 -14.65 18.25 -15.7 19.45 -17.15 20.15 -18.6 20.85 -20.35 20.85 -21.7 20.85 -22.6 20.45 L-23.4 19.7 -23.4 34.3 -30.05 34.3 -30.05 6.65 -31.1 5.55 Q-31.6 4.8 -31.6 2.95 L-29.55 3.7 -27.8 3.95 -26.6 3.8 -25.1 3.5 -23.45 3.1 -22.1 2.95 Q-19.9 2.95 -18.15 3.65 -16.35 4.35 -15.1 5.55 -13.85 6.8 -13.2 8.45 -12.55 10.1 -12.55 11.9 M-12.8 21.4 L-12.45 18.45 -11.4 15.35 Q-10.65 13.85 -9.5 12.45 -8.35 11.0 -6.55 10.0 -4.2 11.7 -3.05 13.55 -1.85 15.4 -1.25 17.3 -0.65 19.2 -0.5 20.8 L-0.3 23.5 Q-0.3 24.55 -0.6 25.9 L-1.6 28.75 -3.4 31.9 -6.5 35.2 Q-9.0 33.15 -10.25 31.25 -11.5 29.35 -12.05 27.6 L-12.7 24.3 -12.8 21.4 M-8.65 16.7 L-9.05 17.1 -9.15 18.25 -8.95 20.45 -8.15 23.1 -7.15 25.3 -6.15 27.0 -5.25 28.05 Q-4.8 28.4 -4.55 28.4 -4.25 28.4 -4.1 28.0 L-4.0 26.85 Q-4.0 24.9 -5.05 22.0 L-6.0 19.8 -7.05 18.15 -7.95 17.05 Q-8.4 16.7 -8.65 16.7 M-22.3 17.6 L-22.4 17.5 -22.65 17.0 -23.05 17.05 -22.6 17.5 -22.3 17.6" fill="url(#gradient2)" fill-rule="evenodd" stroke="none"/>
    <path d="M38.65 -4.85 L39.9 -5.9 Q41.3 -5.2 42.65 -3.2 L41.9 -2.1 40.5 -0.65 38.95 -2.1 Q37.65 -3.5 37.65 -3.75 37.65 -4.15 38.65 -4.85 M45.45 24.35 L49.5 24.25 Q50.0 24.25 50.9 21.8 L52.0 19.0 Q52.4 18.55 52.95 18.35 L54.0 18.0 54.0 40.0 Q50.95 40.75 46.5 42.25 L43.75 42.25 41.8 40.45 Q38.7 41.65 35.0 45.0 30.0 49.55 30.0 54.0 L13.0 54.0 12.5 53.0 Q6.4 50.75 4.55 48.45 3.55 47.25 3.0 44.0 2.75 42.3 2.85 40.2 3.05 37.3 4.0 35.5 5.7 36.3 7.45 37.95 L10.4 41.0 Q9.2 37.25 10.5 34.25 L12.0 32.0 10.6 29.5 Q9.15 26.7 9.15 25.0 9.15 22.9 10.0 22.0 11.6 20.35 13.4 19.2 14.9 18.25 16.0 18.0 16.3 17.95 16.15 19.85 L16.0 22.0 Q16.45 23.35 18.2 24.55 20.3 25.95 21.0 27.0 21.75 28.15 20.2 30.9 19.15 32.8 18.0 34.0 18.25 34.7 22.0 37.2 24.1 35.05 30.8 36.65 L31.15 36.3 Q34.5 32.8 34.5 32.1 L29.75 23.0 Q29.75 22.1 32.75 17.5 35.75 13.05 36.0 13.2 38.0 14.55 39.55 16.1 41.5 18.05 41.5 19.25 41.55 23.6 45.45 24.35 M38.0 6.0 L37.2 8.25 35.95 11.0 35.5 8.0 32.2 7.8 Q30.15 7.0 30.15 1.9 30.15 0.9 30.75 0.5 31.1 0.25 31.5 0.25 34.5 0.25 36.35 2.2 38.0 3.9 38.0 6.0 M15.9 17.1 L14.35 16.05 12.6 14.55 14.15 13.05 Q14.8 12.55 16.0 12.0 L17.5 14.05 Q16.35 14.7 15.9 17.1" fill="url(#gradient3)" fill-rule="evenodd" stroke="none"/>
  </g>
  <defs>
    <linearGradient gradientTransform="matrix(0.0, 0.0659, -0.0659, 0.0, 0.0, 0.0)" gradientUnits="userSpaceOnUse" id="gradient0" spreadMethod="pad" x1="-819.2" x2="819.2">
      <stop offset="0.0" stop-color="#e2d8c7"/>
      <stop offset="1.0" stop-color="#d2c2b9"/>
    </linearGradient>
    <linearGradient gradientTransform="matrix(-0.0224, -0.0512, 0.0176, -0.0077, 148.15, -68.15)" gradientUnits="userSpaceOnUse" id="gradient1" spreadMethod="pad" x1="-819.2" x2="819.2">
      <stop offset="0.0" stop-color="#95764d" stop-opacity="0.0"/>
      <stop offset="0.16470588235294117" stop-color="#ffffff" stop-opacity="0.2"/>
      <stop offset="0.6352941176470588" stop-color="#ffffff"/>
      <stop offset="1.0" stop-color="#ffffff"/>
    </linearGradient>
    <linearGradient gradientTransform="matrix(-0.0224, -0.0512, 0.0176, -0.0077, 148.15, -68.15)" gradientUnits="userSpaceOnUse" id="gradient2" spreadMethod="pad" x1="-819.2" x2="819.2">
      <stop offset="0.0" stop-color="#95764d" stop-opacity="0.0"/>
      <stop offset="0.16470588235294117" stop-color="#95764d" stop-opacity="0.15294118"/>
      <stop offset="0.6196078431372549" stop-color="#9a7550"/>
      <stop offset="1.0" stop-color="#5e412f"/>
    </linearGradient>
    <linearGradient gradientTransform="matrix(-0.0123, -0.029, 0.0229, -0.0097, 25.45, 29.15)" gradientUnits="userSpaceOnUse" id="gradient3" spreadMethod="pad" x1="-819.2" x2="819.2">
      <stop offset="0.0" stop-color="#fb7166"/>
      <stop offset="0.596078431372549" stop-color="#d81212"/>
      <stop offset="1.0" stop-color="#a60b0b"/>
    </linearGradient>
  </defs>
</svg>
