<?xml version="1.0" encoding="UTF-8" standalone="no"?>
<svg xmlns:xlink="http://www.w3.org/1999/xlink" height="770.0px" width="770.0px" xmlns="http://www.w3.org/2000/svg">
  <g transform="matrix(1.0, 0.0, 0.0, 1.0, 385.0, 385.0)">
    <path d="M203.1 -326.85 Q239.2 -303.85 271.5 -271.55 384.0 -159.05 384.0 0.0 384.0 19.15 382.4 37.65 M-252.55 -289.45 Q-145.85 -384.0 0.0 -384.0 51.7 -384.0 98.5 -372.1 M121.6 -365.4 Q153.05 -355.15 182.15 -339.25 M380.05 58.2 Q376.55 83.0 370.0 106.55 M134.2 361.05 Q71.85 384.0 0.0 384.0 -91.3 384.0 -167.25 346.95 M288.25 253.8 Q280.2 262.8 271.5 271.5 217.9 325.1 153.75 353.2 M343.1 174.9 Q327.2 205.55 305.2 233.65 M-372.2 -98.15 Q-351.55 -179.85 -294.65 -246.55 M-240.95 299.3 Q-256.65 286.4 -271.55 271.5 L-275.7 267.25 M-340.45 179.9 Q-384.0 98.95 -384.0 0.0 -384.0 -39.35 -377.1 -75.8 M-292.2 249.35 Q-313.05 225.4 -329.1 199.45" fill="none" stroke="#ffffff" stroke-linecap="round" stroke-linejoin="round" stroke-width="2.0"/>
  </g>
</svg>
