<?xml version="1.0" encoding="UTF-8" standalone="no"?>
<svg xmlns:xlink="http://www.w3.org/1999/xlink" height="57.0px" width="110.4px" xmlns="http://www.w3.org/2000/svg">
  <g transform="matrix(1.0, 0.0, 0.0, 1.0, 55.3, 28.5)">
    <path d="M30.05 -19.4 Q40.9 -17.3 50.95 -13.35 51.65 -13.1 52.1 -12.45 52.5 -11.8 52.5 -11.05 L52.5 -9.5 53.0 -9.3 54.0 -8.55 54.5 -7.4 Q55.75 0.0 54.5 7.45 L54.0 8.55 53.0 9.3 52.5 9.5 52.5 11.05 Q52.5 11.8 52.1 12.45 L50.95 13.4 Q40.9 17.3 30.05 19.4 L27.6 19.35 Q26.35 19.0 25.4 18.2 23.95 16.9 23.3 16.45 L20.15 20.15 Q11.8 28.5 0.0 28.5 -11.85 28.5 -20.2 20.15 L-23.35 16.45 -25.4 18.2 Q-26.05 18.75 -27.55 19.3 L-30.0 19.4 Q-40.9 17.3 -50.9 13.4 L-52.05 12.45 -52.5 11.05 -52.5 9.5 -52.95 9.3 Q-53.55 9.05 -53.9 8.6 L-54.45 7.5 Q-56.15 -0.7 -54.4 -7.6 L-53.9 -8.6 Q-53.5 -9.05 -52.95 -9.3 L-52.5 -9.5 -52.5 -11.05 -52.05 -12.45 Q-51.65 -13.1 -50.9 -13.35 -40.9 -17.3 -30.05 -19.4 L-27.55 -19.3 Q-26.35 -19.0 -25.4 -18.15 L-23.35 -16.45 -20.15 -20.2 Q-11.8 -28.5 0.0 -28.5 11.85 -28.5 20.15 -20.2 L23.35 -16.45 25.4 -18.15 Q26.35 -19.0 27.6 -19.3 L30.05 -19.4" fill="#000000" fill-rule="evenodd" stroke="none"/>
    <path d="M22.8 -13.6 Q24.25 -14.55 26.7 -16.65 27.3 -17.15 28.1 -17.35 L29.7 -17.45 Q40.35 -15.4 50.2 -11.5 L50.45 -11.3 50.5 -11.05 50.5 11.05 50.45 11.35 50.2 11.55 Q40.35 15.4 29.7 17.45 L28.1 17.4 26.7 16.65 Q24.25 14.55 22.8 13.6 21.15 16.35 18.75 18.75 11.0 26.5 0.0 26.5 -11.0 26.5 -18.75 18.75 -21.15 16.35 -22.8 13.6 -24.25 14.55 -26.7 16.65 L-28.1 17.4 -29.65 17.45 Q-40.35 15.4 -50.15 11.55 L-50.4 11.35 -50.5 11.05 -50.5 -11.05 -50.4 -11.3 -50.15 -11.5 Q-40.35 -15.4 -29.65 -17.45 L-28.1 -17.35 Q-27.3 -17.15 -26.7 -16.65 L-22.8 -13.65 Q-21.15 -16.35 -18.75 -18.75 -11.0 -26.5 0.0 -26.5 11.0 -26.5 18.75 -18.75 21.15 -16.35 22.8 -13.6" fill="url(#gradient0)" fill-rule="evenodd" stroke="none"/>
    <path d="M21.2 -10.35 L22.7 -10.2 Q24.55 -10.8 28.7 -14.35 L28.9 -14.45 29.1 -14.5 Q34.65 -13.45 40.05 -11.85 46.25 -10.0 52.2 -7.45 L52.4 -7.3 52.5 -7.05 Q53.7 0.0 52.5 7.1 L52.4 7.3 52.2 7.45 Q46.25 10.0 40.0 11.85 34.65 13.45 29.1 14.5 L28.9 14.5 28.7 14.4 Q24.55 10.8 22.7 10.25 L21.2 10.4 Q19.5 13.75 16.6 16.6 9.75 23.5 0.0 23.5 -9.75 23.5 -16.65 16.6 -19.55 13.7 -21.2 10.35 L-22.65 10.25 Q-24.55 10.8 -28.65 14.4 L-28.85 14.5 -29.1 14.5 Q-34.7 13.45 -40.05 11.85 -46.3 10.0 -52.2 7.45 L-52.35 7.35 -52.5 7.1 Q-54.1 -0.6 -52.45 -7.1 L-52.35 -7.3 -52.2 -7.45 Q-46.3 -9.95 -40.05 -11.8 L-29.1 -14.5 -28.85 -14.45 -28.65 -14.35 Q-24.55 -10.8 -22.65 -10.2 L-21.2 -10.3 Q-19.55 -13.75 -16.65 -16.65 -9.75 -23.5 0.0 -23.5 9.75 -23.5 16.6 -16.65 19.5 -13.75 21.2 -10.35" fill="#000000" fill-opacity="0.2509804" fill-rule="evenodd" stroke="none"/>
    <path d="M14.0 -13.0 L19.0 -13.0 Q20.1 -9.05 22.8 -9.75 24.75 -10.3 29.0 -14.0 34.55 -12.95 39.9 -11.35 46.1 -9.55 52.0 -7.0 53.2 0.0 52.0 7.0 46.1 9.55 39.85 11.4 34.55 12.95 29.0 14.0 24.75 10.3 22.8 9.75 20.1 9.05 19.0 13.0 L14.0 13.0 14.0 -13.0" fill="url(#gradient1)" fill-rule="evenodd" stroke="none"/>
    <path d="M-14.0 -13.0 L-14.0 13.0 -19.0 13.0 Q-20.1 9.05 -22.8 9.75 -24.75 10.3 -29.0 14.0 -34.55 12.95 -39.85 11.4 -46.1 9.55 -52.0 7.0 -53.2 0.0 -52.0 -7.0 -46.1 -9.55 -39.9 -11.35 -34.55 -12.95 -29.0 -14.0 -24.75 -10.3 -22.8 -9.75 -20.1 -9.05 -19.0 -13.0 L-14.0 -13.0" fill="url(#gradient2)" fill-rule="evenodd" stroke="none"/>
    <path d="M16.25 -16.3 Q20.7 -11.85 22.25 -6.15 L23.2 -5.4 Q26.1 -3.05 28.0 0.0 26.1 3.05 23.2 5.4 L22.25 6.2 Q20.7 11.85 16.25 16.25 9.55 23.0 0.0 23.0 -9.55 23.0 -16.3 16.25 -20.7 11.85 -22.2 6.2 L-23.2 5.4 Q-26.1 3.05 -28.0 0.0 -26.1 -3.05 -23.2 -5.4 L-22.2 -6.15 Q-20.7 -11.85 -16.3 -16.3 -9.55 -23.0 0.0 -23.0 9.55 -23.0 16.25 -16.3" fill="url(#gradient3)" fill-rule="evenodd" stroke="none"/>
    <path d="M11.05 -14.7 Q8.75 -14.7 7.15 -11.65 5.6 -8.75 6.4 -6.4 8.75 -5.6 11.7 -7.15 14.7 -8.75 14.75 -11.0 L14.9 -11.35 15.25 -11.5 15.6 -11.35 19.85 -7.1 20.0 -6.75 19.85 -6.4 18.6 -5.25 24.35 -0.35 24.5 -0.15 24.5 0.15 24.35 0.4 18.6 5.25 19.85 6.4 20.0 6.75 19.85 7.1 15.6 11.35 15.25 11.5 14.9 11.35 14.75 11.0 Q14.7 8.75 11.7 7.15 8.75 5.6 6.4 6.4 5.6 8.75 7.15 11.7 8.75 14.7 11.05 14.7 L11.35 14.8 11.5 15.0 11.55 15.3 11.4 15.55 7.05 19.85 6.7 20.0 6.35 19.9 5.25 18.65 0.4 24.35 0.15 24.5 -0.15 24.5 -0.35 24.35 -5.2 18.65 -6.35 19.85 -6.7 20.0 -7.05 19.85 -11.4 15.55 -11.55 15.3 -11.5 15.0 -11.3 14.8 -11.05 14.7 Q-8.75 14.7 -7.15 11.7 -5.6 8.75 -6.4 6.4 -8.75 5.6 -11.65 7.15 -14.7 8.75 -14.75 11.0 L-14.9 11.35 -15.25 11.5 -15.6 11.35 -19.85 7.1 -20.0 6.75 -19.85 6.4 -18.6 5.3 -24.3 0.4 -24.45 0.15 -24.45 -0.15 -24.3 -0.35 -18.6 -5.25 -19.85 -6.4 -20.0 -6.75 -19.85 -7.1 -15.6 -11.35 -15.25 -11.5 -14.9 -11.35 -14.75 -11.0 Q-14.7 -8.75 -11.65 -7.15 -8.75 -5.6 -6.4 -6.4 -5.6 -8.75 -7.15 -11.65 -8.75 -14.7 -11.05 -14.7 L-11.3 -14.75 -11.5 -15.0 -11.55 -15.3 -11.4 -15.55 -7.05 -19.85 -6.7 -20.0 -6.35 -19.85 -5.2 -18.65 -0.35 -24.3 -0.15 -24.45 0.15 -24.45 0.4 -24.3 5.25 -18.65 6.35 -19.85 6.7 -20.0 7.05 -19.85 11.4 -15.55 11.55 -15.3 11.5 -15.0 11.35 -14.75 11.05 -14.7" fill="#000000" fill-opacity="0.3019608" fill-rule="evenodd" stroke="none"/>
    <path d="M33.45 -3.4 Q34.2 -2.85 35.75 -2.4 39.45 -1.45 39.7 -0.25 L39.7 0.25 Q39.45 1.45 35.75 2.45 34.2 2.85 33.45 3.4 35.45 3.9 35.75 5.9 L35.75 5.85 Q36.05 7.15 34.7 9.2 33.3 11.15 31.0 12.0 31.5 10.25 31.65 0.45 31.8 -10.0 31.0 -12.0 33.8 -10.5 34.7 -9.15 36.05 -7.15 35.75 -5.85 35.45 -3.9 33.45 -3.4 M-34.7 -9.15 Q-33.8 -10.5 -31.0 -12.0 -31.8 -10.0 -31.65 0.45 -31.5 10.25 -31.0 12.0 -33.3 11.15 -34.7 9.2 -36.05 7.15 -35.75 5.85 L-35.75 5.9 Q-35.45 3.9 -33.45 3.4 -34.2 2.85 -35.75 2.45 -39.45 1.45 -39.7 0.25 L-39.7 -0.25 Q-39.45 -1.45 -35.75 -2.4 -34.2 -2.85 -33.45 -3.4 -35.45 -3.9 -35.75 -5.85 -36.05 -7.15 -34.7 -9.15" fill="#000000" fill-opacity="0.21176471" fill-rule="evenodd" stroke="none"/>
    <path d="M0.0 -3.0 L0.0 -24.0 5.25 -17.85 Q2.8 -14.65 2.15 -10.15 1.35 -5.05 3.2 -3.2 4.95 -1.45 10.1 -2.25 14.6 -2.9 17.85 -5.3 L24.0 0.0 3.0 0.0 0.0 -3.0" fill="url(#gradient4)" fill-rule="evenodd" stroke="none"/>
    <path d="M0.0 -24.0 L0.0 -3.0 -3.0 0.0 -24.0 0.0 -17.8 -5.3 Q-14.6 -2.9 -10.1 -2.25 -4.95 -1.45 -3.2 -3.2 -1.35 -5.05 -2.15 -10.15 -2.8 -14.65 -5.25 -17.85 L0.0 -24.0" fill="url(#gradient5)" fill-rule="evenodd" stroke="none"/>
    <path d="M3.0 0.0 L24.0 0.0 17.85 5.3 Q14.6 2.9 10.1 2.25 4.95 1.45 3.2 3.2 1.35 5.05 2.15 10.15 2.8 14.65 5.25 17.85 L5.25 17.9 0.0 24.0 0.0 3.0 3.0 0.0" fill="url(#gradient6)" fill-rule="evenodd" stroke="none"/>
    <path d="M0.0 -3.0 L3.0 0.0 0.0 3.0 -3.0 0.0 0.0 -3.0" fill="#7b7b7b" fill-rule="evenodd" stroke="none"/>
    <path d="M-24.0 0.0 L-3.0 0.0 0.0 3.0 0.0 24.0 -5.25 17.9 Q-2.8 14.65 -2.15 10.15 -1.35 5.05 -3.2 3.2 -4.95 1.45 -10.1 2.25 -14.6 2.9 -17.8 5.3 L-24.0 0.0" fill="url(#gradient7)" fill-rule="evenodd" stroke="none"/>
    <path d="M5.25 -17.85 L6.7 -19.5 11.05 -15.2 Q8.45 -15.25 6.7 -11.9 4.95 -8.6 6.0 -6.0 8.6 -4.95 11.9 -6.7 15.25 -8.45 15.25 -11.0 L19.5 -6.75 17.85 -5.3 Q14.6 -2.9 10.1 -2.25 4.95 -1.45 3.2 -3.2 1.35 -5.05 2.15 -10.15 2.8 -14.65 5.25 -17.85" fill="url(#gradient8)" fill-rule="evenodd" stroke="none"/>
    <path d="M11.9 6.7 Q8.6 4.95 6.0 6.0 4.95 8.6 6.7 11.9 8.45 15.25 11.05 15.2 L6.7 19.5 5.25 17.85 Q2.8 14.65 2.15 10.15 1.35 5.05 3.2 3.2 4.95 1.45 10.1 2.25 14.6 2.9 17.85 5.3 L19.5 6.75 15.25 11.0 Q15.25 8.45 11.9 6.7" fill="url(#gradient9)" fill-rule="evenodd" stroke="none"/>
    <path d="M-15.25 -11.0 Q-15.25 -8.45 -11.9 -6.7 -8.6 -4.95 -6.0 -6.0 -4.95 -8.6 -6.7 -11.9 -8.45 -15.25 -11.05 -15.2 L-6.7 -19.5 Q-2.95 -15.85 -2.15 -10.15 -1.35 -5.05 -3.2 -3.2 -4.95 -1.45 -10.1 -2.25 -15.85 -3.1 -19.5 -6.75 L-15.25 -11.0" fill="url(#gradient10)" fill-rule="evenodd" stroke="none"/>
    <path d="M-10.1 2.25 Q-4.95 1.45 -3.2 3.2 -1.35 5.05 -2.15 10.15 -2.8 14.65 -5.25 17.9 L-6.7 19.5 -11.05 15.2 Q-8.45 15.25 -6.7 11.9 -4.95 8.6 -6.0 6.0 -8.6 4.95 -11.9 6.7 -15.25 8.45 -15.25 11.0 L-19.5 6.75 -17.8 5.3 Q-14.6 2.9 -10.1 2.25" fill="url(#gradient11)" fill-rule="evenodd" stroke="none"/>
    <path d="M29.9 -6.3 L29.0 -7.0 29.4 -7.7 29.9 -6.3 M29.0 7.0 L29.9 6.3 29.4 7.7 29.0 7.0 M-29.4 -7.7 L-29.0 -7.0 -29.9 -6.3 -29.4 -7.7 M-29.9 6.3 L-29.0 7.0 -29.4 7.7 -29.9 6.3" fill="#000000" fill-rule="evenodd" stroke="none"/>
    <path d="M25.95 -9.65 Q27.3 -11.45 29.0 -12.0 30.1 -12.4 31.0 -12.0 L34.05 -8.75 Q35.2 -7.05 35.0 -6.0 34.65 -4.0 32.0 -4.0 32.45 -2.55 35.55 -1.7 38.7 -0.85 39.0 0.0 38.7 0.85 35.55 1.7 32.45 2.55 32.0 4.0 34.65 4.0 35.0 6.0 35.2 7.05 34.05 8.75 L31.0 12.0 Q29.8 12.3 29.0 12.0 27.3 11.45 25.95 9.65 24.6 7.9 25.0 7.0 29.2 4.3 31.0 0.0 29.2 -4.3 25.0 -7.0 24.6 -7.9 25.95 -9.65 M29.9 -6.3 L29.4 -7.7 29.0 -7.0 29.9 -6.3 M29.0 7.0 L29.4 7.7 29.9 6.3 29.0 7.0" fill="url(#gradient12)" fill-rule="evenodd" stroke="none"/>
    <path d="M-31.0 -12.0 Q-30.1 -12.4 -29.0 -12.0 -27.3 -11.45 -25.95 -9.65 -24.6 -7.9 -25.0 -7.0 -29.2 -4.3 -31.0 0.0 -29.2 4.3 -25.0 7.0 -24.6 7.9 -25.95 9.65 -27.3 11.45 -29.0 12.0 -29.8 12.3 -31.0 12.0 L-34.05 8.75 Q-35.2 7.05 -35.0 6.0 -34.65 4.0 -32.0 4.0 -32.45 2.55 -35.55 1.7 -38.7 0.85 -39.0 0.0 -38.7 -0.85 -35.55 -1.7 -32.45 -2.55 -32.0 -4.0 -34.65 -4.0 -35.0 -6.0 -35.2 -7.05 -34.05 -8.75 L-31.0 -12.0 M-29.4 -7.7 L-29.9 -6.3 -29.0 -7.0 -29.4 -7.7 M-29.9 6.3 L-29.4 7.7 -29.0 7.0 -29.9 6.3" fill="url(#gradient13)" fill-rule="evenodd" stroke="none"/>
    <path d="M5.25 -17.85 Q2.8 -14.65 2.15 -10.15 1.35 -5.05 3.2 -3.2 4.95 -1.45 10.1 -2.25 14.6 -2.9 17.85 -5.3" fill="none" stroke="url(#gradient14)" stroke-linecap="round" stroke-linejoin="round" stroke-width="0.25"/>
    <path d="M17.85 5.3 Q14.6 2.9 10.1 2.25 4.95 1.45 3.2 3.2 1.35 5.05 2.15 10.15 2.8 14.65 5.25 17.85" fill="none" stroke="url(#gradient15)" stroke-linecap="round" stroke-linejoin="round" stroke-width="0.25"/>
    <path d="M-17.8 -5.3 Q-14.6 -2.9 -10.1 -2.25 -4.95 -1.45 -3.2 -3.2 -1.35 -5.05 -2.15 -10.15 -2.8 -14.65 -5.25 -17.85" fill="none" stroke="url(#gradient16)" stroke-linecap="round" stroke-linejoin="round" stroke-width="0.25"/>
    <path d="M-5.25 17.9 Q-2.8 14.65 -2.15 10.15 -1.35 5.05 -3.2 3.2 -4.95 1.45 -10.1 2.25 -14.6 2.9 -17.8 5.3" fill="none" stroke="url(#gradient17)" stroke-linecap="round" stroke-linejoin="round" stroke-width="0.25"/>
    <path d="M39.9 -11.35 Q43.4 -0.05 39.85 11.4 M-39.9 -11.35 Q-43.45 -0.05 -39.9 11.35" fill="none" stroke="#000000" stroke-linecap="round" stroke-linejoin="round" stroke-opacity="0.21176471" stroke-width="0.5"/>
  </g>
  <defs>
    <radialGradient cx="0" cy="0" fx="176.0" fy="0" gradientTransform="matrix(1.0E-4, -0.0903, 0.0672, 1.0E-4, 0.0, 0.0)" gradientUnits="userSpaceOnUse" id="gradient0" r="819.2" spreadMethod="pad">
      <stop offset="0.21568627450980393" stop-color="#ffffff"/>
      <stop offset="0.34509803921568627" stop-color="#dfdfdf"/>
      <stop offset="0.8274509803921568" stop-color="#4a4a4a"/>
      <stop offset="1.0" stop-color="#7d9497"/>
    </radialGradient>
    <radialGradient cx="0" cy="0" gradientTransform="matrix(1.0E-4, 0.0524, -0.0352, 0.0, 24.0, 0.0)" gradientUnits="userSpaceOnUse" id="gradient1" r="819.2" spreadMethod="pad">
      <stop offset="0.11764705882352941" stop-color="#cacaca"/>
      <stop offset="0.37254901960784315" stop-color="#bfbfbf"/>
      <stop offset="0.8431372549019608" stop-color="#4a4a4a"/>
      <stop offset="0.9607843137254902" stop-color="#5a666b"/>
    </radialGradient>
    <radialGradient cx="0" cy="0" gradientTransform="matrix(-1.0E-4, 0.0524, 0.0352, 0.0, -24.0, 0.0)" gradientUnits="userSpaceOnUse" id="gradient2" r="819.2" spreadMethod="pad">
      <stop offset="0.11764705882352941" stop-color="#cacaca"/>
      <stop offset="0.37254901960784315" stop-color="#bfbfbf"/>
      <stop offset="0.8431372549019608" stop-color="#4a4a4a"/>
      <stop offset="0.9607843137254902" stop-color="#5a666b"/>
    </radialGradient>
    <radialGradient cx="0" cy="0" gradientTransform="matrix(-2.0E-4, -0.0464, 0.0461, -2.0E-4, 6.0, -12.0)" gradientUnits="userSpaceOnUse" id="gradient3" r="819.2" spreadMethod="pad">
      <stop offset="0.07058823529411765" stop-color="#ffffff"/>
      <stop offset="0.6666666666666666" stop-color="#787878"/>
      <stop offset="0.8627450980392157" stop-color="#4e4e4e"/>
      <stop offset="0.9725490196078431" stop-color="#5b6461"/>
    </radialGradient>
    <linearGradient gradientTransform="matrix(-0.0177, -0.011, 0.0077, -0.0124, 13.55, -12.3)" gradientUnits="userSpaceOnUse" id="gradient4" spreadMethod="pad" x1="-819.2" x2="819.2">
      <stop offset="0.0" stop-color="#ffffff"/>
      <stop offset="0.1843137254901961" stop-color="#dfdfdf"/>
      <stop offset="0.34509803921568627" stop-color="#a3a3a3"/>
      <stop offset="0.5372549019607843" stop-color="#ffffff"/>
      <stop offset="0.7803921568627451" stop-color="#dfdfdf"/>
      <stop offset="0.9411764705882353" stop-color="#ffffff"/>
    </linearGradient>
    <linearGradient gradientTransform="matrix(0.0107, -0.0213, 0.0131, 0.0065, -13.9, -9.6)" gradientUnits="userSpaceOnUse" id="gradient5" spreadMethod="pad" x1="-819.2" x2="819.2">
      <stop offset="0.0" stop-color="#9f9f9f"/>
      <stop offset="0.2" stop-color="#dfdfdf"/>
      <stop offset="0.42745098039215684" stop-color="#8a8a8a"/>
      <stop offset="0.5607843137254902" stop-color="#959595"/>
      <stop offset="0.6980392156862745" stop-color="#808080"/>
      <stop offset="1.0" stop-color="#b8b8b8"/>
    </linearGradient>
    <linearGradient gradientTransform="matrix(0.0131, -0.0164, 0.0114, 0.0091, 12.0, 12.0)" gradientUnits="userSpaceOnUse" id="gradient6" spreadMethod="pad" x1="-819.2" x2="819.2">
      <stop offset="0.054901960784313725" stop-color="#bbbbbb"/>
      <stop offset="0.4117647058823529" stop-color="#989898"/>
      <stop offset="0.6196078431372549" stop-color="#959595"/>
      <stop offset="0.7607843137254902" stop-color="#6a6a6a"/>
      <stop offset="1.0" stop-color="#959595"/>
    </linearGradient>
    <linearGradient gradientTransform="matrix(-0.0165, -0.0168, 0.0104, -0.0103, -11.7, 13.3)" gradientUnits="userSpaceOnUse" id="gradient7" spreadMethod="pad" x1="-819.2" x2="819.2">
      <stop offset="0.0" stop-color="#515151"/>
      <stop offset="0.2784313725490196" stop-color="#606060"/>
      <stop offset="0.5411764705882353" stop-color="#3c3c3c"/>
      <stop offset="1.0" stop-color="#8d8d8d"/>
    </linearGradient>
    <radialGradient cx="0" cy="0" fx="227.20000000000002" fy="0" gradientTransform="matrix(0.0078, 0.0134, -0.0167, 0.0098, 4.2, -8.7)" gradientUnits="userSpaceOnUse" id="gradient8" r="819.2" spreadMethod="pad">
      <stop offset="0.23921568627450981" stop-color="#ededed"/>
      <stop offset="0.6470588235294118" stop-color="#d5d5d5"/>
      <stop offset="0.8235294117647058" stop-color="#bbbbbb"/>
      <stop offset="1.0" stop-color="#a3a3a3"/>
    </radialGradient>
    <linearGradient gradientTransform="matrix(0.0077, -0.0087, 0.008, 0.007, 11.05, 10.6)" gradientUnits="userSpaceOnUse" id="gradient9" spreadMethod="pad" x1="-819.2" x2="819.2">
      <stop offset="0.0" stop-color="#c6c6c6"/>
      <stop offset="0.49411764705882355" stop-color="#989898"/>
      <stop offset="1.0" stop-color="#bfbfbf"/>
    </linearGradient>
    <linearGradient gradientTransform="matrix(0.0088, -0.0075, 0.0069, 0.0081, -10.7, -10.75)" gradientUnits="userSpaceOnUse" id="gradient10" spreadMethod="pad" x1="-819.2" x2="819.2">
      <stop offset="0.0" stop-color="#c2c2c2"/>
      <stop offset="0.49411764705882355" stop-color="#9f9f9f"/>
      <stop offset="1.0" stop-color="#cdcdcd"/>
    </linearGradient>
    <linearGradient gradientTransform="matrix(-0.0086, -0.0084, 0.0074, -0.0076, -10.55, 10.55)" gradientUnits="userSpaceOnUse" id="gradient11" spreadMethod="pad" x1="-819.2" x2="819.2">
      <stop offset="0.0" stop-color="#808080"/>
      <stop offset="0.48627450980392156" stop-color="#434343"/>
      <stop offset="1.0" stop-color="#717171"/>
    </linearGradient>
    <radialGradient cx="0" cy="0" fx="115.2" fy="0" gradientTransform="matrix(0.0171, 0.0, 1.0E-4, -0.018, 26.0, 0.0)" gradientUnits="userSpaceOnUse" id="gradient12" r="819.2" spreadMethod="pad">
      <stop offset="0.13333333333333333" stop-color="#ffffff"/>
      <stop offset="1.0" stop-color="#717171"/>
    </radialGradient>
    <radialGradient cx="0" cy="0" fx="115.2" fy="0" gradientTransform="matrix(-0.0171, 0.0, -1.0E-4, -0.018, -26.0, 0.0)" gradientUnits="userSpaceOnUse" id="gradient13" r="819.2" spreadMethod="pad">
      <stop offset="0.13333333333333333" stop-color="#ffffff"/>
      <stop offset="1.0" stop-color="#717171"/>
    </radialGradient>
    <radialGradient cx="0" cy="0" gradientTransform="matrix(0.0155, 0.0, 0.0, 0.0155, 6.0, -6.0)" gradientUnits="userSpaceOnUse" id="gradient14" r="819.2" spreadMethod="pad">
      <stop offset="0.0" stop-color="#b8b8b8"/>
      <stop offset="1.0" stop-color="#aaaaaa"/>
    </radialGradient>
    <radialGradient cx="0" cy="0" gradientTransform="matrix(0.0294, 0.0, 0.0, 0.0294, 0.0, 8.0)" gradientUnits="userSpaceOnUse" id="gradient15" r="819.2" spreadMethod="pad">
      <stop offset="0.0" stop-color="#b0b0b0"/>
      <stop offset="1.0" stop-color="#b8b8b8"/>
    </radialGradient>
    <radialGradient cx="0" cy="0" gradientTransform="matrix(0.0154, 0.0, 0.0, 0.0154, -6.0, -6.0)" gradientUnits="userSpaceOnUse" id="gradient16" r="819.2" spreadMethod="pad">
      <stop offset="0.0" stop-color="#b8b8b8"/>
      <stop offset="1.0" stop-color="#b8b8b8"/>
    </radialGradient>
    <radialGradient cx="0" cy="0" gradientTransform="matrix(0.0294, 0.0, 0.0, 0.0294, 0.0, 6.0)" gradientUnits="userSpaceOnUse" id="gradient17" r="819.2" spreadMethod="pad">
      <stop offset="0.0" stop-color="#868686"/>
      <stop offset="1.0" stop-color="#6d6d6d"/>
    </radialGradient>
  </defs>
</svg>
