<?xml version="1.0" encoding="UTF-8" standalone="no"?>
<svg xmlns:xlink="http://www.w3.org/1999/xlink" height="143.55px" width="90.85px" xmlns="http://www.w3.org/2000/svg">
  <g transform="matrix(1.0, 0.0, 0.0, 1.0, 63.85, 61.0)">
    <path d="M10.05 -50.7 L10.05 -50.65 Q10.85 -54.3 13.3 -59.3 L13.3 -59.25 Q13.8 -60.35 14.85 -60.75 L14.9 -60.8 16.0 -61.0 17.1 -60.8 17.15 -60.75 Q18.2 -60.35 18.7 -59.25 L18.7 -59.3 Q21.15 -54.3 21.95 -50.65 L21.95 -50.7 Q22.15 -49.85 21.85 -49.0 L21.45 -48.25 22.0 -47.65 Q24.3 -46.6 25.7 -44.45 L25.7 -44.4 25.7 -44.45 Q27.0 -42.35 27.0 -40.05 L27.0 -40.0 Q27.15 -36.25 23.2 -32.55 L20.95 -30.25 21.1 -30.1 21.15 -30.1 Q22.0 -29.25 22.0 -28.0 L22.0 -26.95 Q22.0 -25.75 21.15 -24.9 L21.1 -24.85 21.0 -24.75 21.0 -20.0 Q21.0 -19.2 20.6 -18.5 21.0 -17.85 21.0 -17.0 L21.0 -15.95 Q21.0 -14.75 20.1 -13.85 L20.15 -13.85 20.0 -13.75 20.0 70.25 20.4 71.25 20.45 71.3 20.45 71.35 Q21.05 72.95 21.0 74.0 L21.0 75.0 20.85 76.7 21.0 78.0 21.0 78.05 Q21.0 79.25 20.15 80.1 L20.1 80.15 19.45 81.05 19.15 81.35 Q17.8 82.55 16.05 82.55 L16.0 82.55 Q14.2 82.55 12.85 81.35 L12.55 81.05 11.95 80.15 11.9 80.1 Q11.0 79.25 11.0 78.05 L11.0 78.0 11.2 76.65 11.0 75.0 11.0 74.0 Q10.95 73.05 11.5 71.4 L11.55 71.3 11.6 71.2 12.0 70.6 12.0 -13.75 11.85 -13.85 11.9 -13.85 Q11.0 -14.75 11.0 -15.95 L11.0 -17.0 Q11.0 -17.85 11.4 -18.5 11.0 -19.2 11.0 -20.0 L11.0 -24.75 10.9 -24.85 10.85 -24.9 Q10.0 -25.75 10.0 -26.95 L10.0 -28.0 Q10.0 -29.25 10.85 -30.1 L10.9 -30.1 11.05 -30.25 8.8 -32.55 Q4.85 -36.25 5.0 -40.0 L5.0 -40.05 Q5.0 -42.35 6.3 -44.45 7.7 -46.6 10.0 -47.65 L10.55 -48.25 10.15 -49.0 Q9.85 -49.85 10.05 -50.7" fill="#000000" fill-rule="evenodd" stroke="none"/>
    <path d="M11.4 -49.85 Q14.15 -49.15 16.05 -47.4 16.75 -46.75 16.95 -45.75 17.15 -44.75 16.7 -43.85 16.25 -43.0 15.35 -42.5 L13.65 -41.15 Q12.7 -40.15 12.5 -38.9 L14.7 -36.4 Q15.45 -35.4 15.3 -34.2 15.1 -33.0 14.15 -32.2 11.25 -30.0 8.55 -26.25 7.95 -25.45 7.05 -25.15 L5.2 -25.1 Q-3.25 -27.75 -9.3 -28.6 L-9.35 -28.6 Q-19.2 -30.1 -27.25 -28.1 L-27.3 -28.05 Q-50.25 -22.4 -56.05 1.7 -56.3 2.7 -57.1 3.35 -57.9 3.95 -58.85 4.0 -59.85 4.05 -60.7 3.5 -61.55 2.9 -61.85 1.95 -66.25 -11.25 -60.95 -24.3 L-61.0 -24.3 Q-56.95 -34.45 -48.95 -41.25 -42.85 -46.55 -33.75 -49.1 -29.7 -50.25 -25.7 -50.65 -22.55 -52.95 -9.05 -50.9 L4.05 -49.05 Q7.65 -50.8 11.35 -49.85 L11.4 -49.85" fill="#000000" fill-rule="evenodd" stroke="none"/>
    <path d="M14.85 79.1 Q14.35 78.6 14.35 77.9 14.35 77.25 14.85 76.75 15.35 76.25 16.0 76.25 16.65 76.25 17.15 76.75 17.65 77.25 17.65 77.9 17.65 78.6 17.15 79.1 16.65 79.55 16.0 79.55 15.35 79.55 14.85 79.1" fill="url(#gradient0)" fill-rule="evenodd" stroke="none"/>
    <path d="M16.7 73.55 Q16.4 73.0 16.0 73.0 15.6 73.0 15.3 73.55 15.0 74.15 15.0 75.0 L15.2 76.15 16.0 76.0 16.85 76.15 17.0 75.0 16.7 73.55 M16.0 72.0 Q16.85 72.0 17.4 72.85 18.0 73.75 18.0 75.0 18.0 76.0 17.6 76.8 18.0 77.3 18.0 78.0 L14.0 78.0 Q14.0 77.3 14.4 76.8 14.0 76.0 14.0 75.0 14.0 73.75 14.55 72.85 15.15 72.0 16.0 72.0" fill="url(#gradient1)" fill-rule="evenodd" stroke="none"/>
    <path d="M14.0 74.0 Q14.0 73.4 14.35 72.35 L15.0 71.0 17.0 71.0 17.6 72.3 Q18.0 73.35 18.0 74.0 L14.0 74.0" fill="url(#gradient2)" fill-rule="evenodd" stroke="none"/>
    <path d="M18.0 74.0 L17.0 75.0 15.0 75.0 14.0 74.0 18.0 74.0" fill="url(#gradient3)" fill-rule="evenodd" stroke="none"/>
    <path d="M15.0 66.0 L17.0 66.0 17.0 71.0 15.0 71.0 15.0 66.0" fill="url(#gradient4)" fill-rule="evenodd" stroke="none"/>
    <path d="M15.0 -11.0 L17.0 -11.0 17.0 66.0 15.0 66.0 15.0 -11.0" fill="url(#gradient5)" fill-rule="evenodd" stroke="none"/>
    <path d="M12.3 -34.6 Q9.1 -32.15 6.1 -28.0 -2.6 -30.7 -8.9 -31.6 -19.4 -33.15 -28.0 -31.0 -52.75 -24.95 -59.0 1.0 -63.05 -11.15 -58.2 -23.2 -54.45 -32.65 -47.0 -39.0 -41.35 -43.85 -32.95 -46.2 -24.55 -48.55 -16.5 -47.6 -6.7 -46.4 0.9 -42.95 8.55 -39.55 12.3 -34.6" fill="url(#gradient6)" fill-rule="evenodd" stroke="none"/>
    <path d="M10.05 -35.9 Q9.8 -35.95 9.7 -36.1 7.45 -39.2 -0.6 -42.6 -11.0 -47.05 -23.15 -47.55 -23.4 -47.55 -23.5 -47.7 L-23.65 -48.05 -23.5 -48.4 -23.1 -48.55 Q-10.8 -48.05 -0.15 -43.5 8.15 -40.0 10.5 -36.7 L10.6 -36.3 10.4 -36.0 10.05 -35.9" fill="#4f9ba8" fill-rule="evenodd" stroke="none"/>
    <path d="M14.0 -45.2 Q12.7 -44.55 11.45 -43.2 9.0 -40.55 9.5 -37.1 7.1 -40.2 -1.15 -43.5 -11.75 -47.75 -24.0 -48.0 -22.75 -49.95 -9.5 -47.95 4.4 -45.9 5.35 -46.35 7.95 -47.6 10.65 -46.95 12.65 -46.45 14.0 -45.2" fill="url(#gradient7)" fill-rule="evenodd" stroke="none"/>
    <path d="M14.0 -26.0 L14.0 -27.0 18.0 -27.0 18.0 -26.0 14.0 -26.0" fill="url(#gradient8)" fill-rule="evenodd" stroke="none"/>
    <path d="M14.0 -26.0 L18.0 -26.0 18.0 -20.0 16.0 -20.0 14.0 -20.0 14.0 -26.0" fill="url(#gradient9)" fill-rule="evenodd" stroke="none"/>
    <path d="M18.0 -20.0 Q17.1 -18.8 17.0 -17.0 L16.0 -17.0 16.0 -20.0 18.0 -20.0 M18.0 -16.0 L17.0 -15.0 15.0 -15.0 14.0 -16.0 18.0 -16.0" fill="url(#gradient10)" fill-rule="evenodd" stroke="none"/>
    <path d="M17.0 -17.0 L18.0 -17.0 18.0 -16.0 14.0 -16.0 14.0 -17.0 15.0 -17.0 16.0 -17.0 17.0 -17.0" fill="url(#gradient11)" fill-rule="evenodd" stroke="none"/>
    <path d="M17.0 -15.0 L17.0 -11.0 15.0 -11.0 15.0 -15.0 17.0 -15.0" fill="url(#gradient12)" fill-rule="evenodd" stroke="none"/>
    <path d="M15.0 -17.0 Q14.9 -18.8 14.0 -20.0 L16.0 -20.0 16.0 -17.0 15.0 -17.0" fill="url(#gradient13)" fill-rule="evenodd" stroke="none"/>
    <path d="M14.0 -27.0 L13.0 -27.0 13.0 -28.0 19.0 -28.0 19.0 -27.0 18.0 -27.0 14.0 -27.0" fill="url(#gradient14)" fill-rule="evenodd" stroke="none"/>
    <path d="M18.0 -27.0 L18.0 -26.0 14.0 -26.0 14.0 -27.0 18.0 -27.0" fill="#000000" fill-opacity="0.3019608" fill-rule="evenodd" stroke="none"/>
    <path d="M19.15 -35.85 Q17.85 -34.5 16.0 -34.5 14.1 -34.5 12.75 -35.85 11.5 -37.15 11.5 -39.0 11.5 -40.85 12.75 -42.2 14.1 -43.5 16.0 -43.5 17.85 -43.5 19.15 -42.2 20.5 -40.85 20.5 -39.0 20.5 -37.15 19.15 -35.85" fill="url(#gradient15)" fill-rule="evenodd" stroke="none"/>
    <path d="M12.7 -42.35 L13.05 -42.5 Q14.3 -42.55 16.05 -41.8 17.75 -42.55 19.0 -42.5 L19.35 -42.35 19.45 -41.95 19.3 -41.6 18.95 -41.5 Q17.8 -41.55 16.25 -40.85 L16.05 -40.8 15.85 -40.85 Q14.25 -41.55 13.1 -41.5 L12.7 -41.6 Q12.55 -41.75 12.55 -41.95 L12.7 -42.35" fill="#132b48" fill-rule="evenodd" stroke="none"/>
    <path d="M16.0 -41.7 Q12.25 -43.35 10.9 -41.3 9.6 -39.35 12.0 -37.0 L14.15 -34.5 Q15.15 -33.1 16.0 -31.0 16.85 -33.1 17.85 -34.5 L20.0 -37.0 Q22.4 -39.35 21.1 -41.3 19.75 -43.35 16.0 -41.7 M23.15 -42.85 Q24.0 -41.5 24.0 -40.0 24.0 -37.4 21.15 -34.8 18.05 -32.0 17.75 -30.45 L17.2 -28.65 Q16.85 -28.0 16.0 -28.0 15.15 -28.0 14.8 -28.65 14.5 -29.1 14.25 -30.45 13.95 -32.0 10.85 -34.8 8.0 -37.4 8.0 -40.0 8.0 -41.5 8.85 -42.85 9.85 -44.4 11.65 -45.05 13.9 -45.95 16.0 -46.0 18.1 -45.95 20.35 -45.05 22.15 -44.4 23.15 -42.85" fill="url(#gradient16)" fill-rule="evenodd" stroke="none"/>
    <path d="M14.0 -28.0 L14.35 -30.0 17.7 -30.0 18.0 -28.0 14.0 -28.0" fill="url(#gradient17)" fill-rule="evenodd" stroke="none"/>
    <path d="M16.0 -51.7 L16.0 -58.0 Q18.25 -53.35 19.0 -50.0 17.35 -51.3 16.0 -51.7" fill="url(#gradient18)" fill-rule="evenodd" stroke="none"/>
    <path d="M16.0 -51.7 Q14.75 -51.35 13.0 -50.0 13.75 -53.35 16.0 -58.0 L16.0 -51.7" fill="url(#gradient19)" fill-rule="evenodd" stroke="none"/>
    <path d="M16.0 -46.0 L16.0 -51.7 Q17.35 -51.3 19.0 -50.0 17.7 -49.85 17.4 -49.4 17.0 -48.65 17.3 -46.0 L16.0 -46.0" fill="url(#gradient20)" fill-rule="evenodd" stroke="none"/>
    <path d="M13.0 -50.0 Q14.75 -51.35 16.0 -51.7 L16.0 -46.0 14.7 -46.0 Q15.0 -48.65 14.6 -49.4 14.3 -49.85 13.0 -50.0" fill="url(#gradient21)" fill-rule="evenodd" stroke="none"/>
    <path d="M12.65 -45.4 Q12.65 -45.85 13.25 -46.75 L14.25 -48.0 17.75 -48.0 18.75 -46.75 19.3 -45.4 Q17.75 -44.05 16.0 -43.95 14.2 -44.05 12.65 -45.4" fill="url(#gradient22)" fill-rule="evenodd" stroke="none"/>
  </g>
  <defs>
    <radialGradient cx="0" cy="0" gradientTransform="matrix(0.0041, 0.0, 0.0, 0.0041, 16.0, 77.9)" gradientUnits="userSpaceOnUse" id="gradient0" r="819.2" spreadMethod="pad">
      <stop offset="0.07450980392156863" stop-color="#ffffff"/>
      <stop offset="0.2" stop-color="#d72524"/>
      <stop offset="0.6078431372549019" stop-color="#801515"/>
    </radialGradient>
    <radialGradient cx="0" cy="0" gradientTransform="matrix(0.0035, 0.0, 0.0, 0.0062, 16.05, 77.95)" gradientUnits="userSpaceOnUse" id="gradient1" r="819.2" spreadMethod="pad">
      <stop offset="0.07058823529411765" stop-color="#e2e2e2"/>
      <stop offset="0.20784313725490197" stop-color="#bbbbbb"/>
      <stop offset="0.4" stop-color="#b0b0b0"/>
      <stop offset="0.8549019607843137" stop-color="#666666"/>
    </radialGradient>
    <radialGradient cx="0" cy="0" gradientTransform="matrix(0.0026, 0.0, 0.0, 0.0091, 15.95, 73.9)" gradientUnits="userSpaceOnUse" id="gradient2" r="819.2" spreadMethod="pad">
      <stop offset="0.07058823529411765" stop-color="#e2e2e2"/>
      <stop offset="0.20784313725490197" stop-color="#bbbbbb"/>
      <stop offset="0.4" stop-color="#b0b0b0"/>
      <stop offset="0.8549019607843137" stop-color="#666666"/>
    </radialGradient>
    <radialGradient cx="0" cy="0" gradientTransform="matrix(0.0, -0.0015, 0.0028, 0.0, 16.05, 73.95)" gradientUnits="userSpaceOnUse" id="gradient3" r="819.2" spreadMethod="pad">
      <stop offset="0.050980392156862744" stop-color="#cdcdcd"/>
      <stop offset="0.21176470588235294" stop-color="#aaaaaa"/>
      <stop offset="0.7019607843137254" stop-color="#666666"/>
    </radialGradient>
    <linearGradient gradientTransform="matrix(0.0012, 0.0, 0.0, 0.0012, 16.0, -11.1)" gradientUnits="userSpaceOnUse" id="gradient4" spreadMethod="pad" x1="-819.2" x2="819.2">
      <stop offset="0.0" stop-color="#6a6a6a"/>
      <stop offset="0.4980392156862745" stop-color="#cdcdcd"/>
      <stop offset="1.0" stop-color="#5b5b5b"/>
    </linearGradient>
    <linearGradient gradientTransform="matrix(0.0015, 0.0, 0.0, 0.0311, 16.0, 39.5)" gradientUnits="userSpaceOnUse" id="gradient5" spreadMethod="pad" x1="-819.2" x2="819.2">
      <stop offset="0.0" stop-color="#262626"/>
      <stop offset="0.20392156862745098" stop-color="#434343"/>
      <stop offset="0.5019607843137255" stop-color="#5b5b5b"/>
      <stop offset="0.796078431372549" stop-color="#434343"/>
      <stop offset="1.0" stop-color="#262626"/>
    </linearGradient>
    <linearGradient gradientTransform="matrix(0.0439, 0.0, 0.0, 0.0226, -23.25, -29.55)" gradientUnits="userSpaceOnUse" id="gradient6" spreadMethod="pad" x1="-819.2" x2="819.2">
      <stop offset="0.01568627450980392" stop-color="#d9eaec"/>
      <stop offset="0.43529411764705883" stop-color="#ffffff"/>
      <stop offset="0.9686274509803922" stop-color="#c8e3e8"/>
    </linearGradient>
    <linearGradient gradientTransform="matrix(-0.0195, -0.0111, 0.0044, -0.0078, -6.5, -44.35)" gradientUnits="userSpaceOnUse" id="gradient7" spreadMethod="pad" x1="-819.2" x2="819.2">
      <stop offset="0.00392156862745098" stop-color="#464646"/>
      <stop offset="0.5686274509803921" stop-color="#919191"/>
      <stop offset="1.0" stop-color="#747474"/>
    </linearGradient>
    <linearGradient gradientTransform="matrix(0.0024, 0.0, 0.0, 6.0E-4, 16.0, -26.5)" gradientUnits="userSpaceOnUse" id="gradient8" spreadMethod="pad" x1="-819.2" x2="819.2">
      <stop offset="0.0" stop-color="#6a6a6a"/>
      <stop offset="0.403921568627451" stop-color="#d5d5d5"/>
      <stop offset="0.5764705882352941" stop-color="#c2c2c2"/>
      <stop offset="1.0" stop-color="#5b5b5b"/>
    </linearGradient>
    <linearGradient gradientTransform="matrix(0.0024, 0.0, 0.0, 0.0012, 16.0, -17.0)" gradientUnits="userSpaceOnUse" id="gradient9" spreadMethod="pad" x1="-819.2" x2="819.2">
      <stop offset="0.0" stop-color="#6a6a6a"/>
      <stop offset="0.403921568627451" stop-color="#d5d5d5"/>
      <stop offset="0.5764705882352941" stop-color="#c2c2c2"/>
      <stop offset="1.0" stop-color="#5b5b5b"/>
    </linearGradient>
    <linearGradient gradientTransform="matrix(0.0024, 0.0, 0.0, 0.0012, 16.0, -18.0)" gradientUnits="userSpaceOnUse" id="gradient10" spreadMethod="pad" x1="-819.2" x2="819.2">
      <stop offset="0.0" stop-color="#6a6a6a"/>
      <stop offset="0.403921568627451" stop-color="#adadad"/>
      <stop offset="0.5764705882352941" stop-color="#adadad"/>
      <stop offset="1.0" stop-color="#5b5b5b"/>
    </linearGradient>
    <linearGradient gradientTransform="matrix(0.0024, 0.0, 0.0, 0.0012, 16.0, -17.0)" gradientUnits="userSpaceOnUse" id="gradient11" spreadMethod="pad" x1="-819.2" x2="819.2">
      <stop offset="0.0" stop-color="#6a6a6a"/>
      <stop offset="0.403921568627451" stop-color="#bfbfbf"/>
      <stop offset="0.5764705882352941" stop-color="#c2c2c2"/>
      <stop offset="1.0" stop-color="#5b5b5b"/>
    </linearGradient>
    <linearGradient gradientTransform="matrix(0.0012, 0.0, 0.0, 0.0012, 16.05, -15.7)" gradientUnits="userSpaceOnUse" id="gradient12" spreadMethod="pad" x1="-819.2" x2="819.2">
      <stop offset="0.0" stop-color="#6a6a6a"/>
      <stop offset="0.4980392156862745" stop-color="#cdcdcd"/>
      <stop offset="1.0" stop-color="#5b5b5b"/>
    </linearGradient>
    <linearGradient gradientTransform="matrix(-0.0024, 0.0, 0.0, 0.0012, 16.0, -18.0)" gradientUnits="userSpaceOnUse" id="gradient13" spreadMethod="pad" x1="-819.2" x2="819.2">
      <stop offset="0.0" stop-color="#6a6a6a"/>
      <stop offset="0.403921568627451" stop-color="#adadad"/>
      <stop offset="0.5764705882352941" stop-color="#adadad"/>
      <stop offset="1.0" stop-color="#5b5b5b"/>
    </linearGradient>
    <linearGradient gradientTransform="matrix(0.0037, 0.0, 0.0, 6.0E-4, 16.0, -27.5)" gradientUnits="userSpaceOnUse" id="gradient14" spreadMethod="pad" x1="-819.2" x2="819.2">
      <stop offset="0.0" stop-color="#6a6a6a"/>
      <stop offset="0.403921568627451" stop-color="#d5d5d5"/>
      <stop offset="0.5764705882352941" stop-color="#c2c2c2"/>
      <stop offset="1.0" stop-color="#5b5b5b"/>
    </linearGradient>
    <radialGradient cx="0" cy="0" gradientTransform="matrix(0.0056, 0.0, 0.0, 0.0053, 16.0, -40.0)" gradientUnits="userSpaceOnUse" id="gradient15" r="819.2" spreadMethod="pad">
      <stop offset="0.09803921568627451" stop-color="#fdf4f3"/>
      <stop offset="0.22745098039215686" stop-color="#1e9cd9"/>
      <stop offset="0.6078431372549019" stop-color="#174393"/>
      <stop offset="0.7647058823529411" stop-color="#172f99"/>
      <stop offset="1.0" stop-color="#1d62be"/>
    </radialGradient>
    <radialGradient cx="0" cy="0" gradientTransform="matrix(0.0098, 0.0, 0.0, 0.0144, 16.0, -40.0)" gradientUnits="userSpaceOnUse" id="gradient16" r="819.2" spreadMethod="pad">
      <stop offset="0.1568627450980392" stop-color="#e2e2e2"/>
      <stop offset="0.23529411764705882" stop-color="#b8b8b8"/>
      <stop offset="0.38823529411764707" stop-color="#929292"/>
      <stop offset="1.0" stop-color="#2d2d2d"/>
    </radialGradient>
    <linearGradient gradientTransform="matrix(0.0024, 0.0, 0.0, 0.0018, 16.0, -28.5)" gradientUnits="userSpaceOnUse" id="gradient17" spreadMethod="pad" x1="-819.2" x2="819.2">
      <stop offset="0.0" stop-color="#5b5b5b"/>
      <stop offset="0.4980392156862745" stop-color="#919191"/>
      <stop offset="1.0" stop-color="#4e4e4e"/>
    </linearGradient>
    <linearGradient gradientTransform="matrix(0.0, -0.0049, 0.0049, 0.0, 17.5, -54.0)" gradientUnits="userSpaceOnUse" id="gradient18" spreadMethod="pad" x1="-819.2" x2="819.2">
      <stop offset="0.0" stop-color="#b0b0b0"/>
      <stop offset="1.0" stop-color="#e6e6e6"/>
    </linearGradient>
    <linearGradient gradientTransform="matrix(0.0, -0.0049, -0.0049, 0.0, 14.5, -54.0)" gradientUnits="userSpaceOnUse" id="gradient19" spreadMethod="pad" x1="-819.2" x2="819.2">
      <stop offset="0.0" stop-color="#ffffff"/>
      <stop offset="1.0" stop-color="#dbdbdb"/>
    </linearGradient>
    <radialGradient cx="0" cy="0" gradientTransform="matrix(0.0082, 0.0, 0.0, 0.0082, 16.0, -52.0)" gradientUnits="userSpaceOnUse" id="gradient20" r="819.2" spreadMethod="pad">
      <stop offset="0.09019607843137255" stop-color="#b8b8b8"/>
      <stop offset="0.38823529411764707" stop-color="#929292"/>
      <stop offset="1.0" stop-color="#2d2d2d"/>
    </radialGradient>
    <radialGradient cx="0" cy="0" gradientTransform="matrix(-0.0082, 0.0, 0.0, 0.0082, 16.0, -52.0)" gradientUnits="userSpaceOnUse" id="gradient21" r="819.2" spreadMethod="pad">
      <stop offset="0.13333333333333333" stop-color="#b8b8b8"/>
      <stop offset="1.0" stop-color="#757575"/>
    </radialGradient>
    <radialGradient cx="0" cy="0" gradientTransform="matrix(0.0041, 0.0, 0.0, 0.0043, 16.0, -47.4)" gradientUnits="userSpaceOnUse" id="gradient22" r="819.2" spreadMethod="pad">
      <stop offset="0.10980392156862745" stop-color="#d5d5d5"/>
      <stop offset="0.21176470588235294" stop-color="#b5b5b5"/>
      <stop offset="0.8235294117647058" stop-color="#6d6d6d"/>
    </radialGradient>
  </defs>
</svg>
