<?xml version="1.0" encoding="UTF-8" standalone="no"?>
<svg xmlns:xlink="http://www.w3.org/1999/xlink" height="418.0px" width="416.95px" xmlns="http://www.w3.org/2000/svg">
  <g transform="matrix(1.0, 0.0, 0.0, 1.0, 208.25, 209.0)">
    <path d="M-24.0 -206.75 L-2.0 -208.0 0.0 -208.0 13.3 -207.6 M141.15 -152.75 L147.05 -147.05 Q151.9 -142.25 156.35 -137.25 M201.7 -52.85 Q204.95 -39.85 206.55 -26.15 M-163.65 -128.6 Q-156.0 -138.1 -147.05 -147.05 L-144.3 -149.75 M-198.5 64.0 Q-205.3 42.45 -207.25 18.95 M-32.65 205.7 Q-49.3 203.25 -64.9 198.25 M-152.75 141.15 Q-161.75 131.5 -169.25 121.3 M207.7 11.85 Q206.65 33.15 201.7 52.85 M162.3 130.3 Q155.2 138.9 147.05 147.05 L143.0 151.0 137.8 155.85 M27.6 206.35 L0.0 208.0 -8.0 207.9" fill="none" stroke="#4893f7" stroke-linecap="round" stroke-linejoin="round" stroke-opacity="0.4" stroke-width="2.0"/>
  </g>
</svg>
