<?xml version="1.0" encoding="UTF-8" standalone="no"?>
<svg xmlns:xlink="http://www.w3.org/1999/xlink" height="271.0px" width="268.7px" xmlns="http://www.w3.org/2000/svg">
  <g transform="matrix(1.0, 0.0, 0.0, 1.0, 134.3, 135.5)">
    <path d="M0.0 -135.5 Q1.2 -133.15 3.05 -116.3 L6.95 -80.5 Q13.05 -29.05 21.05 -20.65 28.7 -12.55 79.75 -6.1 L115.5 -2.2 134.4 0.0 115.55 2.05 79.95 5.75 Q29.0 11.95 21.05 20.65 13.25 29.2 7.05 80.55 5.5 93.55 3.1 116.3 1.2 133.15 0.0 135.5 -1.2 133.05 -3.05 116.1 -5.35 93.2 -6.9 80.25 -12.9 28.9 -21.15 20.65 -29.4 12.4 -80.75 6.3 L-116.6 2.45 Q-130.0 1.0 -134.3 0.0 -130.0 -1.0 -116.6 -2.45 L-80.75 -6.3 Q-29.4 -12.4 -21.15 -20.65 -12.9 -28.9 -6.9 -80.25 -5.35 -93.2 -3.05 -116.1 -1.2 -133.05 0.0 -135.5" fill="#02e8ae" fill-opacity="0.0" fill-rule="evenodd" stroke="none"/>
  </g>
</svg>
