<?xml version="1.0" encoding="UTF-8" standalone="no"?>
<svg xmlns:xlink="http://www.w3.org/1999/xlink" height="428.0px" width="429.0px" xmlns="http://www.w3.org/2000/svg">
  <g transform="matrix(1.0, 0.0, 0.0, 1.0, 215.0, 214.0)">
    <path d="M1.25 -179.35 L2.05 -111.05 Q3.5 -13.2 8.0 -8.0 11.9 -3.5 111.45 -1.85 L180.5 -0.95 Q212.45 -0.5 214.0 0.0 L180.85 1.05 112.3 1.65 Q13.15 2.85 8.0 8.0 3.4 12.6 2.2 110.55 L1.5 179.05 Q1.05 211.05 0.0 214.0 -1.0 211.1 -1.4 179.3 L-2.0 111.25 Q-3.0 13.7 -8.0 8.0 -12.05 3.35 -110.0 2.15 -134.75 1.8 -179.0 1.4 L-215.0 0.0 -179.05 -1.3 Q-134.7 -1.7 -109.9 -2.05 -11.8 -3.35 -8.0 -8.0 -3.75 -13.25 -2.25 -111.2 L-1.4 -179.5 Q-0.85 -211.3 0.0 -214.0 0.8 -211.3 1.25 -179.35" fill="url(#gradient0)" fill-rule="evenodd" stroke="none"/>
  </g>
  <defs>
    <radialGradient cx="0" cy="0" gradientTransform="matrix(0.2635, 0.0, 0.0, 0.2635, -0.5, 0.0)" gradientUnits="userSpaceOnUse" id="gradient0" r="819.2" spreadMethod="pad">
      <stop offset="0.027450980392156862" stop-color="#ffffff"/>
      <stop offset="0.08235294117647059" stop-color="#ffec95"/>
      <stop offset="0.25882352941176473" stop-color="#fee781"/>
      <stop offset="0.4980392156862745" stop-color="#abe7f3"/>
      <stop offset="0.6941176470588235" stop-color="#71cdf9"/>
    </radialGradient>
  </defs>
</svg>
