<?xml version="1.0" encoding="UTF-8" standalone="no"?>
<svg xmlns:xlink="http://www.w3.org/1999/xlink" height="482.0px" width="466.0px" xmlns="http://www.w3.org/2000/svg">
  <g transform="matrix(1.0, 0.0, 0.0, 1.0, 233.5, 233.5)">
    <path d="M0.0 -64.0 Q0.8 -61.25 0.85 -52.55 L0.8 -35.3 Q1.05 -11.7 5.5 -6.5 9.4 -2.0 35.2 -1.1 L53.55 -0.7 64.0 0.0 53.9 0.7 Q42.5 0.4 36.05 0.4 10.65 0.35 5.5 5.5 0.9 10.1 0.95 34.3 L1.1 52.1 Q1.05 61.05 0.0 64.0 -1.0 61.1 -1.2 52.35 -1.15 41.1 -1.25 35.0 -1.5 11.2 -6.5 5.5 -10.55 0.9 -34.25 0.9 L-52.2 1.0 -65.0 0.0 -52.25 -1.05 -34.15 -1.3 Q-10.3 -1.8 -6.5 -6.5 -2.25 -11.75 -1.5 -35.45 L-1.15 -52.7 Q-0.85 -61.35 0.0 -64.0" fill="url(#gradient0)" fill-rule="evenodd" stroke="none"/>
    <path d="M79.5 -0.5 L143.5 -0.5 M191.5 -0.5 L231.5 -0.5 M-192.5 -0.5 L-232.5 -0.5 M-160.5 -0.5 L-96.5 -0.5 M-0.5 -80.5 L-0.5 -232.5 M-0.5 79.5 L-0.5 183.5 M-0.5 191.5 L-0.5 247.5" fill="none" stroke="#8ac2fb" stroke-linecap="round" stroke-linejoin="round" stroke-width="2.0"/>
  </g>
  <defs>
    <radialGradient cx="0" cy="0" gradientTransform="matrix(0.0787, 0.0, 0.0, 0.0787, -0.5, 0.0)" gradientUnits="userSpaceOnUse" id="gradient0" r="819.2" spreadMethod="pad">
      <stop offset="0.0" stop-color="#ffec95"/>
      <stop offset="0.08627450980392157" stop-color="#fee781"/>
      <stop offset="0.25882352941176473" stop-color="#abe7f3"/>
      <stop offset="0.5490196078431373" stop-color="#71cdf9"/>
    </radialGradient>
  </defs>
</svg>
