<?xml version="1.0" encoding="UTF-8" standalone="no"?>
<svg xmlns:xlink="http://www.w3.org/1999/xlink" height="171.9px" width="212.1px" xmlns="http://www.w3.org/2000/svg">
  <g transform="matrix(1.0, 0.0, 0.0, 1.0, 106.05, 171.9)">
    <path d="M-94.05 0.0 Q-94.05 -66.9 -65.6 -114.25 -38.3 -159.5 0.0 -159.9 38.3 -159.5 65.65 -114.25 L65.6 -114.25 Q94.05 -66.9 94.05 0.0 L-94.05 0.0" fill="#ffffff" fill-opacity="0.9529412" fill-rule="evenodd" stroke="none"/>
    <path d="M-94.05 0.0 L-106.05 0.0 Q-106.05 -70.6 -75.9 -120.45 L-75.85 -120.45 Q-44.55 -172.35 0.0 -171.9 44.55 -172.35 75.9 -120.45 106.05 -70.6 106.05 0.0 L94.05 0.0 Q94.05 -66.9 65.6 -114.25 L65.65 -114.25 Q38.3 -159.5 0.0 -159.9 -38.3 -159.5 -65.6 -114.25 -94.05 -66.9 -94.05 0.0" fill="#e18dfe" fill-opacity="0.8" fill-rule="evenodd" stroke="none"/>
  </g>
</svg>
