<?xml version="1.0" encoding="UTF-8" standalone="no"?>
<svg xmlns:xlink="http://www.w3.org/1999/xlink" height="559.55px" width="234.3px" xmlns="http://www.w3.org/2000/svg">
  <g transform="matrix(1.0, 0.0, 0.0, 1.0, 117.15, 559.55)">
    <path d="M104.65 0.0 Q105.15 -24.8 105.15 -50.55 105.15 -258.2 72.75 -405.05 41.5 -546.2 0.0 -547.55 -41.5 -546.2 -72.75 -405.05 -105.15 -258.2 -105.15 -50.55 -105.15 -24.8 -104.65 0.0 L-116.65 0.0 Q-117.15 -24.8 -117.15 -50.55 -117.15 -259.7 -84.45 -407.65 -50.5 -560.95 0.0 -559.55 50.5 -560.95 84.45 -407.65 117.15 -259.7 117.15 -50.55 117.15 -24.8 116.65 0.0 L104.65 0.0" fill="#e18dfe" fill-opacity="0.8" fill-rule="evenodd" stroke="none"/>
    <path d="M-104.65 0.0 Q-105.15 -24.8 -105.15 -50.55 -105.15 -258.2 -72.75 -405.05 -41.5 -546.2 0.0 -547.55 41.5 -546.2 72.75 -405.05 105.15 -258.2 105.15 -50.55 105.15 -24.8 104.65 0.0 L-104.65 0.0" fill="url(#gradient0)" fill-rule="evenodd" stroke="none"/>
  </g>
  <defs>
    <radialGradient cx="0" cy="0" gradientTransform="matrix(0.166, 0.0, 0.0, 0.8111, 0.0, 0.0)" gradientUnits="userSpaceOnUse" id="gradient0" r="819.2" spreadMethod="pad">
      <stop offset="0.6588235294117647" stop-color="#ffffff"/>
      <stop offset="1.0" stop-color="#d9c8fd"/>
    </radialGradient>
  </defs>
</svg>
