<?xml version="1.0" encoding="UTF-8" standalone="no"?>
<svg xmlns:xlink="http://www.w3.org/1999/xlink" height="766.0px" width="246.1px" xmlns="http://www.w3.org/2000/svg">
  <g transform="matrix(1.0, 0.0, 0.0, 1.0, 123.05, 766.0)">
    <path d="M-110.35 0.0 L-122.35 0.0 Q-123.05 -37.9 -123.05 -77.45 -123.05 -360.85 -88.65 -561.25 -53.3 -767.4 0.0 -766.0 53.3 -767.4 88.7 -561.25 123.05 -360.85 123.05 -77.45 123.05 -37.9 122.4 0.0 L110.4 0.0 Q111.05 -37.9 111.05 -77.45 111.05 -359.65 76.85 -559.2 43.6 -752.65 0.0 -754.0 -43.6 -752.65 -76.8 -559.2 -111.05 -359.65 -111.05 -77.45 -111.05 -37.9 -110.35 0.0" fill="#e18dfe" fill-opacity="0.8" fill-rule="evenodd" stroke="none"/>
    <path d="M-110.35 0.0 Q-111.05 -37.9 -111.05 -77.45 -111.05 -359.65 -76.8 -559.2 -43.6 -752.65 0.0 -754.0 43.6 -752.65 76.85 -559.2 111.05 -359.65 111.05 -77.45 111.05 -37.9 110.4 0.0 L-110.35 0.0" fill="url(#gradient0)" fill-rule="evenodd" stroke="none"/>
  </g>
  <defs>
    <radialGradient cx="0" cy="0" gradientTransform="matrix(0.1563, 0.0, 0.0, 0.9835, 0.0, 0.0)" gradientUnits="userSpaceOnUse" id="gradient0" r="819.2" spreadMethod="pad">
      <stop offset="0.6588235294117647" stop-color="#ffffff"/>
      <stop offset="1.0" stop-color="#d9c8fd"/>
    </radialGradient>
  </defs>
</svg>
