<?xml version="1.0" encoding="UTF-8" standalone="no"?>
<svg xmlns:xlink="http://www.w3.org/1999/xlink" height="26.4px" width="14.25px" xmlns="http://www.w3.org/2000/svg">
  <g transform="matrix(1.0, 0.0, 0.0, 1.0, -62.05, 4.8)">
    <path d="M73.05 1.45 Q73.05 2.65 72.5 3.75 L70.9 5.85 71.85 6.8 73.0 8.0 73.95 9.35 Q74.3 10.1 74.3 10.9 L74.1 12.4 73.45 13.7 72.6 14.9 71.75 15.85 68.25 19.6 64.05 15.6 66.75 12.45 69.95 15.4 70.45 14.65 70.65 13.65 Q70.65 12.65 70.05 11.75 L68.7 10.15 67.15 9.05 66.1 8.45 66.95 7.75 68.1 6.65 69.05 5.35 69.5 4.1 Q69.5 3.5 69.1 3.0 L68.15 2.1 66.85 1.55 65.55 1.3 67.9 -2.8 Q69.45 -2.55 70.45 -2.05 L72.0 -1.0 72.85 0.2 73.05 1.45" fill="#ffffff" fill-rule="evenodd" stroke="none"/>
    <path d="M73.05 1.45 Q73.05 2.65 72.5 3.75 L70.9 5.85 71.85 6.8 73.0 8.0 73.95 9.35 Q74.3 10.1 74.3 10.9 L74.1 12.4 73.45 13.7 72.6 14.9 71.75 15.85 68.25 19.6 64.05 15.6 66.75 12.45 69.95 15.4 70.45 14.65 70.65 13.65 Q70.65 12.65 70.05 11.75 L68.7 10.15 67.15 9.05 66.1 8.45 66.95 7.75 68.1 6.65 69.05 5.35 69.5 4.1 Q69.5 3.5 69.1 3.0 L68.15 2.1 66.85 1.55 65.55 1.3 67.9 -2.8 Q69.45 -2.55 70.45 -2.05 L72.0 -1.0 72.85 0.2 73.05 1.45 Z" fill="none" stroke="#000000" stroke-linecap="round" stroke-linejoin="round" stroke-width="4.0"/>
  </g>
</svg>
