<?xml version="1.0" encoding="UTF-8" standalone="no"?>
<svg xmlns:xlink="http://www.w3.org/1999/xlink" height="25.35px" width="16.0px" xmlns="http://www.w3.org/2000/svg">
  <g transform="matrix(1.0, 0.0, 0.0, 1.0, -60.15, 4.5)">
    <path d="M71.6 1.85 L69.15 5.4 67.15 8.65 66.0 10.75 68.55 10.75 68.55 7.5 69.7 5.9 71.0 4.2 72.2 2.8 72.9 2.05 72.9 10.75 74.15 10.75 74.15 14.25 72.9 14.25 72.9 18.85 68.55 18.85 68.55 14.25 62.15 14.25 64.65 9.75 66.6 5.25 67.9 1.1 Q68.4 -0.9 68.4 -2.5 L74.0 -2.5 74.0 -1.15 71.6 1.85" fill="#ffffff" fill-rule="evenodd" stroke="none"/>
    <path d="M71.6 1.85 L69.15 5.4 67.15 8.65 66.0 10.75 68.55 10.75 68.55 7.5 69.7 5.9 71.0 4.2 72.2 2.8 72.9 2.05 72.9 10.75 74.15 10.75 74.15 14.25 72.9 14.25 72.9 18.85 68.55 18.85 68.55 14.25 62.15 14.25 64.65 9.75 66.6 5.25 67.9 1.1 Q68.4 -0.9 68.4 -2.5 L74.0 -2.5 74.0 -1.15 71.6 1.85 Z" fill="none" stroke="#000000" stroke-linecap="round" stroke-linejoin="round" stroke-width="4.0"/>
  </g>
</svg>
