<?xml version="1.0" encoding="UTF-8" standalone="no"?>
<svg xmlns:xlink="http://www.w3.org/1999/xlink" height="29.0px" width="14.95px" xmlns="http://www.w3.org/2000/svg">
  <g transform="matrix(1.0, 0.0, 0.0, 1.0, -61.85, 4.5)">
    <path d="M70.95 7.4 L70.0 5.25 68.8 3.5 67.65 2.15 66.75 3.2 Q66.4 3.75 66.4 4.65 66.4 5.8 66.75 6.85 L67.55 8.7 68.7 10.0 Q69.35 10.5 69.95 10.5 L70.6 10.3 71.45 9.85 70.95 7.4 M73.45 2.4 L74.5 5.25 74.8 7.85 74.35 11.55 Q73.9 13.55 72.9 15.6 71.95 17.6 70.45 19.4 68.9 21.2 66.85 22.5 L68.1 20.35 69.5 17.85 70.7 15.05 71.4 12.1 68.0 15.7 65.8 13.7 64.55 11.95 Q64.15 11.1 64.0 10.05 63.85 9.05 63.85 7.65 63.85 5.3 65.1 2.85 66.3 0.4 69.35 -2.5 70.7 -1.55 71.7 -0.3 72.75 1.0 73.45 2.4" fill="#ffffff" fill-rule="evenodd" stroke="none"/>
    <path d="M70.95 7.4 L70.0 5.25 68.8 3.5 67.65 2.15 66.75 3.2 Q66.4 3.75 66.4 4.65 66.4 5.8 66.75 6.85 L67.55 8.7 68.7 10.0 Q69.35 10.5 69.95 10.5 L70.6 10.3 71.45 9.85 70.95 7.4 M73.45 2.4 L74.5 5.25 74.8 7.85 74.35 11.55 Q73.9 13.55 72.9 15.6 71.95 17.6 70.45 19.4 68.9 21.2 66.85 22.5 L68.1 20.35 69.5 17.85 70.7 15.05 71.4 12.1 68.0 15.7 65.8 13.7 64.55 11.95 Q64.15 11.1 64.0 10.05 63.85 9.05 63.85 7.65 63.85 5.3 65.1 2.85 66.3 0.4 69.35 -2.5 70.7 -1.55 71.7 -0.3 72.75 1.0 73.45 2.4" fill="none" stroke="#000000" stroke-linecap="round" stroke-linejoin="round" stroke-width="4.0"/>
  </g>
</svg>
