<?xml version="1.0" encoding="UTF-8" standalone="no"?>
<svg xmlns:xlink="http://www.w3.org/1999/xlink" height="28.25px" width="15.35px" xmlns="http://www.w3.org/2000/svg">
  <g transform="matrix(1.0, 0.0, 0.0, 1.0, -61.7, 6.7)">
    <path d="M70.75 -2.75 L69.25 -0.35 Q68.55 0.9 68.0 2.35 67.5 3.75 67.3 5.2 L67.75 5.05 68.3 4.65 70.75 2.2 72.85 4.5 74.15 6.5 74.85 8.25 75.05 10.05 74.8 12.4 73.95 14.75 72.1 17.15 69.05 19.55 Q67.9 18.8 66.9 17.6 L65.25 15.0 Q64.5 13.6 64.1 12.15 63.7 10.7 63.7 9.55 63.7 7.85 64.25 5.75 64.8 3.65 65.9 1.65 67.0 -0.4 68.65 -2.1 70.3 -3.8 72.45 -4.7 L70.75 -2.75 M69.75 7.6 Q69.0 6.85 68.1 6.85 67.65 6.85 67.2 7.25 67.25 8.6 67.65 9.85 L68.6 12.1 69.85 14.0 71.05 15.35 71.9 14.3 72.15 12.85 71.85 11.35 71.05 9.35 69.75 7.6" fill="#ffffff" fill-rule="evenodd" stroke="none"/>
    <path d="M70.75 -2.75 L69.25 -0.35 Q68.55 0.9 68.0 2.35 67.5 3.75 67.3 5.2 L67.75 5.05 68.3 4.65 70.75 2.2 72.85 4.5 74.15 6.5 74.85 8.25 75.05 10.05 74.8 12.4 73.95 14.75 72.1 17.15 69.05 19.55 Q67.9 18.8 66.9 17.6 L65.25 15.0 Q64.5 13.6 64.1 12.15 63.7 10.7 63.7 9.55 63.7 7.85 64.25 5.75 64.8 3.65 65.9 1.65 67.0 -0.4 68.65 -2.1 70.3 -3.8 72.45 -4.7 L70.75 -2.75 M69.75 7.6 Q69.0 6.85 68.1 6.85 67.65 6.85 67.2 7.25 67.25 8.6 67.65 9.85 L68.6 12.1 69.85 14.0 71.05 15.35 71.9 14.3 72.15 12.85 71.85 11.35 71.05 9.35 69.75 7.6" fill="none" stroke="#000000" stroke-linecap="round" stroke-linejoin="round" stroke-width="4.0"/>
    <path d="M69.25 -0.35 Q68.55 0.9 68.0 2.35 67.5 3.75 67.3 5.2 L67.75 5.05 68.3 4.65 70.75 2.2 72.85 4.5 74.15 6.5 74.85 8.25 75.05 10.05 74.8 12.4 73.95 14.75 72.1 17.15 69.05 19.55 Q67.9 18.8 66.9 17.6 L65.25 15.0 Q64.5 13.6 64.1 12.15 63.7 10.7 63.7 9.55 63.7 7.85 64.25 5.75 64.8 3.65 65.9 1.65 67.0 -0.4 68.65 -2.1 70.3 -3.8 72.45 -4.7 L70.75 -2.75 69.25 -0.35 M71.05 9.35 L69.75 7.6 Q69.0 6.85 68.1 6.85 67.65 6.85 67.2 7.25 67.25 8.6 67.65 9.85 L68.6 12.1 69.85 14.0 71.05 15.35 71.9 14.3 72.15 12.85 71.85 11.35 71.05 9.35" fill="#ce1313" fill-rule="evenodd" stroke="none"/>
  </g>
</svg>
