<?xml version="1.0" encoding="UTF-8" standalone="no"?>
<svg xmlns:xlink="http://www.w3.org/1999/xlink" height="132.05px" width="481.65px" xmlns="http://www.w3.org/2000/svg">
  <g transform="matrix(1.0, 0.0, 0.0, 1.0, -59.5, -583.35)">
    <path d="M433.35 612.95 L447.3 609.45 Q472.2 603.6 483.55 602.75 L486.0 604.35 490.0 606.95 514.1 602.3 527.05 599.9 527.2 599.85 Q531.95 625.95 536.45 669.15 538.75 691.3 540.65 713.65 535.45 713.85 485.4 712.7 435.1 711.5 431.1 711.65 431.05 701.0 432.1 661.45 L433.3 612.95 433.35 612.95" fill="#000000" fill-rule="evenodd" stroke="none"/>
    <path d="M433.25 612.6 L435.95 605.25 Q449.35 602.7 485.8 594.0 L528.4 583.85 527.8 590.95 527.1 599.3 527.05 599.9 514.1 602.3 490.0 606.95 486.0 604.35 483.55 602.75 Q472.2 603.6 447.3 609.45 L433.35 612.95 433.25 612.6" fill="#72603f" fill-rule="evenodd" stroke="none"/>
    <path d="M527.05 599.9 L527.1 599.3 527.8 590.95 528.4 583.85 485.8 594.0 Q449.35 602.7 435.95 605.25 L433.25 612.6 433.1 613.0 433.3 612.95 433.25 612.6 M433.35 612.95 L447.3 609.45 Q472.2 603.6 483.55 602.75 L486.0 604.35 490.0 606.95 514.1 602.3 527.05 599.9 527.2 599.85 527.1 599.3 M433.35 612.95 L433.3 612.95 432.1 661.45 Q431.05 701.0 431.1 711.65 435.1 711.5 485.4 712.7 535.45 713.85 540.65 713.65 538.75 691.3 536.45 669.15 531.95 625.95 527.2 599.85" fill="none" stroke="#000000" stroke-linecap="round" stroke-linejoin="round" stroke-width="1.0"/>
    <path d="M74.35 598.95 L118.65 606.35 Q144.4 610.45 155.25 612.75 L156.3 616.85 Q173.55 620.75 223.0 630.5 L227.15 620.0 228.5 616.55 Q228.4 638.95 227.7 673.6 227.0 709.4 226.55 714.7 L60.0 708.7 Q60.05 702.55 64.5 638.3 L70.05 636.1 Q70.3 631.3 72.5 614.0 L74.35 598.95" fill="#000000" fill-rule="evenodd" stroke="none"/>
    <path d="M228.5 616.55 L227.15 620.0 223.0 630.5 Q173.55 620.75 156.3 616.85 L155.25 612.75 Q144.4 610.45 118.65 606.35 L74.35 598.95 74.4 598.65 83.3 594.85 87.4 593.2 129.7 596.9 162.95 600.05 164.4 600.25 189.9 606.7 220.0 614.1 228.5 615.7 228.5 616.55" fill="#72603f" fill-rule="evenodd" stroke="none"/>
    <path d="M74.35 598.95 L118.65 606.35 Q144.4 610.45 155.25 612.75 L156.3 616.85 Q173.55 620.75 223.0 630.5 L227.15 620.0 228.5 616.55 228.5 615.7 220.0 614.1 189.9 606.7 164.4 600.25 162.95 600.05 129.7 596.9 87.4 593.2 83.3 594.85 74.4 598.65 74.35 598.95 73.9 598.9 74.4 598.65 M228.5 616.55 Q228.4 638.95 227.7 673.6 227.0 709.4 226.55 714.7 L60.0 708.7 Q60.05 702.55 64.5 638.3 L70.05 636.1 Q70.3 631.3 72.5 614.0 L74.35 598.95 M228.5 616.55 L228.85 615.75 228.5 615.7 M164.4 600.25 L163.45 600.0 162.95 600.05" fill="none" stroke="#000000" stroke-linecap="round" stroke-linejoin="round" stroke-width="1.0"/>
    <path d="M217.65 692.35 Q217.35 685.8 217.5 663.85 L217.65 628.2 Q224.55 625.8 239.35 623.2 L241.2 622.85 239.75 610.1 Q266.9 606.3 316.65 602.7 386.85 597.55 410.0 602.15 L410.25 606.85 410.3 608.2 Q416.75 607.85 426.2 607.9 L444.35 608.45 Q451.5 680.9 451.55 693.65 451.6 697.5 450.75 701.95 450.0 706.25 449.85 713.55 L217.65 692.35" fill="#000000" fill-rule="evenodd" stroke="none"/>
    <path d="M217.65 692.35 Q217.35 685.8 217.5 663.85 L217.65 628.2 Q224.55 625.8 239.35 623.2 L241.2 622.85 239.75 610.1 Q266.9 606.3 316.65 602.7 386.85 597.55 410.0 602.15 L410.25 606.85 410.3 608.2 Q416.75 607.85 426.2 607.9 L444.35 608.45 Q451.5 680.9 451.55 693.65 451.6 697.5 450.75 701.95 450.0 706.25 449.85 713.55 L459.95 714.45 M213.5 691.95 L217.65 692.35 449.85 713.55 449.8 714.9 M217.65 692.35 L217.7 693.35 217.75 694.35" fill="none" stroke="#000000" stroke-linecap="round" stroke-linejoin="round" stroke-width="1.0"/>
  </g>
</svg>
