<?xml version="1.0" encoding="UTF-8" standalone="no"?>
<svg xmlns:xlink="http://www.w3.org/1999/xlink" height="47.75px" width="259.75px" xmlns="http://www.w3.org/2000/svg">
  <g transform="matrix(1.0, 0.0, 0.0, 1.0, 137.2, 23.1)">
    <path d="M1.9 -16.2 L10.95 -18.9 Q20.2 -21.85 22.05 -23.1 L22.1 -23.1 Q24.8 -21.1 26.65 -20.25 31.6 -18.0 43.75 -18.0 50.7 -18.0 57.75 -19.8 L58.9 -20.1 Q72.0 -13.35 82.05 -11.75 L93.3 -10.9 105.75 -11.0 Q106.85 -11.0 114.55 -5.15 L122.55 0.7 Q119.05 1.9 110.6 6.85 L102.75 11.5 Q85.2 11.5 69.0 16.95 60.45 19.85 51.25 24.65 L41.85 22.6 Q22.6 18.55 13.0 18.0 L2.25 18.0 Q-0.8 16.5 -4.8 15.15 -14.15 12.0 -21.25 12.0 -25.95 12.0 -32.0 13.15 L-34.95 13.75 Q-37.7 12.95 -40.5 12.5 L-54.55 10.6 -68.75 10.0 -84.85 10.1 Q-89.05 10.4 -94.5 12.05 -98.1 10.5 -103.3 8.65 -116.45 4.0 -124.75 4.0 -126.3 4.0 -128.8 4.95 L-131.5 6.0 Q-132.1 4.0 -134.05 0.6 -136.1 -2.95 -137.2 -3.6 L-137.0 -4.0 -129.95 -3.5 -124.25 -3.0 Q-114.7 -3.0 -105.9 -6.7 -99.6 -9.35 -97.0 -12.0 -95.5 -11.25 -92.5 -9.3 L-89.9 -7.6 -86.4 -7.3 -80.75 -7.0 Q-73.65 -7.0 -60.65 -10.1 L-51.45 -12.55 Q-47.0 -9.8 -41.7 -8.4 -36.15 -7.0 -28.5 -7.0 -22.2 -7.0 -11.25 -10.8 -3.8 -13.4 1.9 -16.2" fill="url(#gradient0)" fill-rule="evenodd" stroke="none"/>
    <path d="M0.0 7.85 L0.0 -7.85 61.35 -5.65 Q96.5 -3.3 96.5 0.0 96.5 3.3 61.35 5.65 L0.0 7.85" fill="#ffffff" fill-rule="evenodd" stroke="none"/>
  </g>
  <defs>
    <radialGradient cx="0" cy="0" fx="656.0" fy="0" gradientTransform="matrix(0.2734, 0.0, 0.0, 0.0593, -72.0, 0.0)" gradientUnits="userSpaceOnUse" id="gradient0" r="819.2" spreadMethod="pad">
      <stop offset="0.0" stop-color="#fcba43"/>
      <stop offset="0.10980392156862745" stop-color="#ff702b"/>
      <stop offset="0.28627450980392155" stop-color="#e71818"/>
      <stop offset="1.0" stop-color="#661a1a"/>
    </radialGradient>
  </defs>
</svg>
