<?xml version="1.0" encoding="UTF-8" standalone="no"?>
<svg xmlns:xlink="http://www.w3.org/1999/xlink" height="173.7px" width="200.4px" xmlns="http://www.w3.org/2000/svg">
  <g transform="matrix(1.0, 0.0, 0.0, 1.0, 0.0, -100.0)">
    <path d="M176.85 135.35 Q166.0 137.0 157.65 133.15 155.15 132.0 153.3 130.5 L153.3 253.2 148.9 253.2 148.9 124.8 Q148.35 123.4 148.15 121.9 146.95 114.7 153.85 108.5 160.65 102.15 171.5 100.5 182.35 98.85 190.75 102.8 199.1 106.7 200.25 113.9 201.35 121.15 194.55 127.4 187.65 133.7 176.85 135.35 M75.9 144.8 Q75.35 143.4 75.15 141.9 74.0 134.7 80.85 128.5 87.65 122.15 98.5 120.5 109.35 118.85 117.75 122.8 126.1 126.7 127.25 133.9 128.35 141.15 121.55 147.4 114.65 153.7 103.85 155.35 93.0 157.0 84.65 153.15 82.15 152.0 80.3 150.5 L80.25 264.75 75.85 264.75 75.9 144.8 M23.55 139.5 Q34.4 137.85 42.8 141.8 51.15 145.7 52.3 152.9 53.4 160.15 46.6 166.4 39.7 172.7 28.9 174.35 18.05 176.0 9.7 172.15 7.2 171.0 5.35 169.5 L5.35 264.75 0.95 264.75 0.95 163.8 Q0.4 162.4 0.2 160.9 -1.0 153.7 5.9 147.5 12.7 141.15 23.55 139.5" fill="#000000" fill-rule="evenodd" stroke="none"/>
    <path d="M153.3 250.1 L153.3 262.1 1.0 273.7 1.0 261.7 153.3 250.1 M153.3 221.1 L153.3 233.1 1.0 244.7 1.0 232.7 153.3 221.1" fill="#000000" fill-rule="evenodd" stroke="none"/>
  </g>
</svg>
