<?xml version="1.0" encoding="UTF-8" standalone="no"?>
<svg xmlns:xlink="http://www.w3.org/1999/xlink" height="123.95px" width="102.0px" xmlns="http://www.w3.org/2000/svg">
  <g transform="matrix(1.0, 0.0, 0.0, 1.0, 51.0, 61.95)">
    <path d="M2.65 -61.5 L3.55 -60.3 4.0 -59.0 4.0 -57.25 4.15 -57.1 Q5.0 -56.25 5.0 -55.0 L5.0 -53.25 5.15 -53.1 Q6.0 -52.25 6.0 -51.0 L6.0 -49.0 5.7 -47.6 7.9 -48.0 8.0 -48.0 24.0 -48.0 Q25.15 -48.0 26.05 -47.2 26.85 -46.45 27.0 -45.25 27.1 -44.15 26.4 -43.2 L20.4 -35.2 19.35 -34.3 Q18.7 -34.0 18.0 -34.0 L14.65 -34.0 12.55 -31.7 50.15 5.9 Q51.0 6.75 51.0 8.0 51.0 9.25 50.15 10.15 L43.25 17.0 44.0 17.0 Q45.25 17.0 46.15 17.9 47.0 18.75 47.0 20.0 L47.0 24.0 Q47.0 25.25 46.15 26.15 45.25 27.0 44.0 27.0 L43.5 27.0 Q42.45 31.75 40.6 34.85 L40.6 34.8 Q39.2 37.2 39.0 39.25 L38.0 59.15 Q37.95 60.35 37.1 61.2 36.2 62.0 35.0 62.0 L32.0 62.0 Q30.75 62.0 29.9 61.15 29.0 60.25 29.0 59.0 L29.0 31.25 5.0 55.25 5.0 59.0 Q5.0 60.25 4.15 61.15 3.25 62.0 2.0 62.0 L-2.0 62.0 Q-3.25 62.0 -4.1 61.15 -5.0 60.25 -5.0 59.0 L-5.0 55.25 -29.0 31.25 -29.0 59.0 Q-29.0 60.25 -29.85 61.15 -30.75 62.0 -32.0 62.0 L-35.0 62.0 Q-36.2 62.0 -37.05 61.2 -37.95 60.35 -38.0 59.15 L-39.0 39.25 Q-39.2 37.2 -40.6 34.8 L-40.55 34.85 Q-42.45 31.75 -43.45 27.0 L-44.0 27.0 Q-45.25 27.0 -46.1 26.15 -47.0 25.25 -47.0 24.0 L-47.0 20.0 Q-47.0 18.75 -46.1 17.9 -45.25 17.0 -44.0 17.0 L-43.25 17.0 -50.1 10.15 Q-51.0 9.25 -51.0 8.0 -51.0 6.75 -50.1 5.9 L-12.5 -31.7 -14.65 -34.0 -18.0 -34.0 Q-18.7 -34.0 -19.35 -34.3 L-20.4 -35.2 -26.4 -43.2 Q-27.1 -44.15 -26.95 -45.25 -26.85 -46.45 -26.0 -47.2 -25.15 -48.0 -24.0 -48.0 L-8.0 -48.0 -7.85 -48.0 -5.65 -47.6 Q-6.0 -48.25 -6.0 -49.0 L-6.0 -51.0 Q-6.0 -52.25 -5.1 -53.1 L-5.0 -53.25 -5.0 -55.0 Q-5.0 -56.25 -4.1 -57.1 L-4.0 -57.25 -4.0 -59.0 -3.5 -60.3 -2.6 -61.5 Q-2.2 -61.95 0.0 -61.95 2.2 -61.95 2.65 -61.5" fill="#000000" fill-rule="evenodd" stroke="none"/>
    <path d="M-7.05 -43.45 Q-6.5 -41.25 -4.7 -38.9 L-3.0 -37.0 -4.95 -34.1 Q-7.1 -31.35 -8.0 -32.0 -11.65 -34.5 -13.0 -37.0 L-18.0 -37.0 -24.0 -45.0 -8.0 -45.0 Q-6.7 -44.95 -6.4 -44.3 -6.25 -44.0 -7.05 -43.45 M6.4 -44.3 Q6.7 -44.95 8.0 -45.0 L24.0 -45.0 19.9 -39.5 18.0 -37.0 13.0 -37.0 Q11.65 -34.5 8.0 -32.0 7.1 -31.35 4.95 -34.1 L3.0 -37.0 4.7 -38.9 Q6.5 -41.25 7.05 -43.45 6.25 -44.0 6.4 -44.3" fill="url(#gradient0)" fill-rule="evenodd" stroke="none"/>
    <path d="M22.0 -42.0 L19.9 -42.0 15.65 -42.0 16.05 -43.0 19.9 -43.0 23.0 -43.0 22.0 -42.0 M20.25 -39.0 L19.9 -39.0 14.15 -39.0 14.7 -40.0 19.9 -40.0 21.0 -40.0 20.25 -39.0 M-17.5 -39.0 L-20.25 -39.0 -21.0 -40.0 -17.5 -40.0 -14.7 -40.0 -14.15 -39.0 -17.5 -39.0 M-15.65 -42.0 L-17.5 -42.0 -22.0 -42.0 -23.0 -43.0 -17.5 -43.0 -16.05 -43.0 -15.65 -42.0" fill="#000000" fill-rule="evenodd" stroke="none"/>
    <path d="M0.0 -40.0 L10.95 -29.05 48.0 8.0 0.0 8.0 0.0 -40.0" fill="url(#gradient1)" fill-rule="evenodd" stroke="none"/>
    <path d="M-48.0 8.0 L-10.95 -29.05 0.0 -40.0 0.0 8.0 -48.0 8.0" fill="url(#gradient2)" fill-rule="evenodd" stroke="none"/>
    <path d="M48.0 8.0 L0.0 56.0 0.0 8.0 48.0 8.0" fill="url(#gradient3)" fill-rule="evenodd" stroke="none"/>
    <path d="M0.0 56.0 L-48.0 8.0 0.0 8.0 0.0 56.0" fill="url(#gradient4)" fill-rule="evenodd" stroke="none"/>
    <path d="M0.0 -29.05 L0.0 -29.0 -11.0 -29.0 -10.95 -29.05 -1.0 -39.0 0.0 -39.0 0.0 -29.05" fill="url(#gradient5)" fill-rule="evenodd" stroke="none"/>
    <path d="M12.0 -28.0 L-12.0 -28.0 -11.0 -29.0 11.0 -29.0 12.0 -28.0 M11.0 45.0 L-11.0 45.0 -12.0 44.0 12.0 44.0 11.0 45.0" fill="#704307" fill-opacity="0.4" fill-rule="evenodd" stroke="none"/>
    <path d="M19.0 -21.0 L-19.0 -21.0 -18.0 -22.0 18.0 -22.0 19.0 -21.0 M26.0 -14.0 L-26.0 -14.0 -25.0 -15.0 25.0 -15.0 26.0 -14.0 M33.0 -7.0 L-33.0 -7.0 -32.0 -8.0 32.0 -8.0 33.0 -7.0 M40.0 0.0 L-40.0 0.0 -39.0 -1.0 39.0 -1.0 40.0 0.0" fill="url(#gradient6)" fill-rule="evenodd" stroke="none"/>
    <path d="M4.0 -28.0 L4.0 -22.0 3.0 -22.0 3.0 -28.0 4.0 -28.0 M4.0 -14.0 L4.0 -8.0 3.0 -8.0 3.0 -14.0 4.0 -14.0 M26.0 -1.0 L25.0 -1.0 25.0 -7.0 26.0 -7.0 26.0 -1.0 M36.0 0.0 L37.0 0.0 37.0 8.0 36.0 8.0 36.0 0.0 M15.0 0.0 L16.0 0.0 16.0 8.0 15.0 8.0 15.0 0.0 M-29.0 -1.0 L-29.0 -7.0 -28.0 -7.0 -28.0 -1.0 -29.0 -1.0 M-7.0 -15.0 L-8.0 -15.0 -8.0 -21.0 -7.0 -21.0 -7.0 -15.0 M-18.0 -14.0 L-18.0 -8.0 -19.0 -8.0 -19.0 -14.0 -18.0 -14.0 M-5.0 -7.0 L-4.0 -7.0 -4.0 -1.0 -5.0 -1.0 -5.0 -7.0 M-18.0 0.0 L-18.0 8.0 -19.0 8.0 -19.0 0.0 -18.0 0.0" fill="url(#gradient7)" fill-rule="evenodd" stroke="none"/>
    <path d="M8.0 -15.0 L8.0 -21.0 9.0 -21.0 9.0 -15.0 8.0 -15.0 M25.0 23.0 L25.0 17.0 26.0 17.0 26.0 23.0 25.0 23.0 M9.0 8.0 L9.0 16.0 8.0 16.0 8.0 8.0 9.0 8.0 M4.0 17.0 L4.0 23.0 3.0 23.0 3.0 17.0 4.0 17.0 M16.0 24.0 L16.0 30.0 15.0 30.0 15.0 24.0 16.0 24.0 M9.0 37.0 L8.0 37.0 8.0 31.0 9.0 31.0 9.0 37.0 M4.0 44.0 L3.0 44.0 3.0 38.0 4.0 38.0 4.0 44.0 M-10.0 -28.0 L-10.0 -22.0 -11.0 -22.0 -11.0 -28.0 -10.0 -28.0" fill="url(#gradient8)" fill-rule="evenodd" stroke="none"/>
    <path d="M-10.0 24.0 L-11.0 24.0 -11.0 17.0 -10.0 17.0 -10.0 24.0" fill="url(#gradient9)" fill-rule="evenodd" stroke="none"/>
    <path d="M-30.0 17.0 L-30.0 24.0 -31.0 24.0 -31.0 17.0 -30.0 17.0" fill="url(#gradient10)" fill-rule="evenodd" stroke="none"/>
    <path d="M-26.0 8.0 L-26.0 16.0 -27.0 16.0 -27.0 8.0 -26.0 8.0" fill="url(#gradient11)" fill-rule="evenodd" stroke="none"/>
    <path d="M-14.0 37.0 L-14.0 31.0 -13.0 31.0 -13.0 37.0 -14.0 37.0" fill="url(#gradient12)" fill-rule="evenodd" stroke="none"/>
    <path d="M-6.0 38.0 L-6.0 45.0 -7.0 45.0 -7.0 38.0 -6.0 38.0" fill="url(#gradient13)" fill-rule="evenodd" stroke="none"/>
    <path d="M33.0 23.0 L32.0 24.0 -26.0 24.0 -26.0 23.0 33.0 23.0 M40.0 16.0 L39.0 17.0 -39.0 17.0 -40.0 16.0 40.0 16.0 M19.0 37.0 L18.0 38.0 -18.0 38.0 -19.0 37.0 19.0 37.0 M26.0 30.0 L25.0 31.0 -25.0 31.0 -26.0 30.0 26.0 30.0" fill="#937417" fill-rule="evenodd" stroke="none"/>
    <path d="M48.0 9.0 L-48.0 9.0 -48.0 7.0 48.0 7.0 48.0 9.0" fill="url(#gradient14)" fill-rule="evenodd" stroke="none"/>
    <path d="M30.0 26.0 L-30.0 26.0 -32.0 24.0 32.0 24.0 30.0 26.0" fill="#000000" fill-opacity="0.15294118" fill-rule="evenodd" stroke="none"/>
    <path d="M1.0 -39.0 L-1.0 -39.0 -1.0 -59.0 1.0 -59.0 1.0 -39.0" fill="url(#gradient15)" fill-rule="evenodd" stroke="none"/>
    <path d="M-1.0 -53.0 L-2.0 -53.0 -2.0 -55.0 2.0 -55.0 2.0 -53.0 1.0 -53.0 -1.0 -53.0" fill="url(#gradient16)" fill-rule="evenodd" stroke="none"/>
    <path d="M-1.0 -49.0 L-3.0 -49.0 -3.0 -51.0 3.0 -51.0 3.0 -49.0 1.0 -49.0 -1.0 -49.0" fill="url(#gradient17)" fill-rule="evenodd" stroke="none"/>
    <path d="M1.0 -53.0 L1.0 -52.0 -1.0 -52.0 -1.0 -53.0 1.0 -53.0 M1.0 -49.0 L1.0 -48.0 -1.0 -48.0 -1.0 -49.0 1.0 -49.0" fill="#000000" fill-opacity="0.4" fill-rule="evenodd" stroke="none"/>
    <path d="M2.0 -29.05 L2.0 -28.0 -2.0 -28.0 -2.0 -29.05 -2.0 -33.0 2.0 -33.0 2.0 -29.05" fill="url(#gradient18)" fill-rule="evenodd" stroke="none"/>
    <path d="M-2.0 -38.0 L-2.0 -40.0 2.0 -40.0 2.0 -38.0 -2.0 -38.0 M-2.0 -41.0 L-2.0 -43.0 2.0 -43.0 2.0 -41.0 -2.0 -41.0 M-2.0 -44.0 L-2.0 -46.0 2.0 -46.0 2.0 -44.0 -2.0 -44.0" fill="url(#gradient19)" fill-rule="evenodd" stroke="none"/>
    <path d="M-2.0 -40.0 L-2.0 -41.0 2.0 -41.0 2.0 -40.0 -2.0 -40.0 M-2.0 -43.0 L-2.0 -44.0 2.0 -44.0 2.0 -43.0 -2.0 -43.0" fill="#313131" fill-rule="evenodd" stroke="none"/>
    <path d="M2.0 -38.0 L2.0 -33.0 -2.0 -33.0 -2.0 -38.0 2.0 -38.0" fill="url(#gradient20)" fill-rule="evenodd" stroke="none"/>
    <path d="M4.0 26.0 L4.0 56.0 -4.0 56.0 -4.0 26.0 -34.0 26.0 -34.0 24.0 34.0 24.0 34.0 26.0 4.0 26.0" fill="#000000" fill-opacity="0.5019608" fill-rule="evenodd" stroke="none"/>
    <path d="M38.0 33.3 Q36.2 36.4 36.0 39.0 L35.0 59.0 32.0 59.0 32.0 34.5 32.0 24.0 36.65 22.95 Q41.3 22.25 41.0 24.0 40.05 29.85 38.0 33.3 M2.0 29.45 L2.0 59.0 -2.0 59.0 -2.0 29.45 -2.0 29.25 -2.0 22.0 2.0 22.0 2.0 29.25 2.0 29.45 M-38.0 33.3 Q-40.05 29.85 -41.0 24.0 -41.3 22.25 -36.65 22.95 L-32.0 24.0 -32.0 34.5 -32.0 59.0 -35.0 59.0 -36.0 39.0 Q-36.2 36.4 -38.0 33.3" fill="url(#gradient21)" fill-rule="evenodd" stroke="none"/>
    <path d="M44.0 24.0 L-44.0 24.0 -44.0 20.0 44.0 20.0 44.0 24.0" fill="url(#gradient22)" fill-rule="evenodd" stroke="none"/>
  </g>
  <defs>
    <linearGradient gradientTransform="matrix(0.0, -0.0093, -0.0079, 0.0, -13.4, -38.2)" gradientUnits="userSpaceOnUse" id="gradient0" spreadMethod="pad" x1="-819.2" x2="819.2">
      <stop offset="0.0" stop-color="#c2c2c2"/>
      <stop offset="0.27058823529411763" stop-color="#6d6d6d"/>
      <stop offset="1.0" stop-color="#bbbbbb"/>
    </linearGradient>
    <linearGradient gradientTransform="matrix(0.016, -0.0171, 0.0427, 0.0399, 16.5, 1.4)" gradientUnits="userSpaceOnUse" id="gradient1" spreadMethod="pad" x1="-819.2" x2="819.2">
      <stop offset="0.0" stop-color="#cfa21b"/>
      <stop offset="1.0" stop-color="#dfb742"/>
    </linearGradient>
    <linearGradient gradientTransform="matrix(-0.0159, -0.0158, 0.0412, -0.0415, 34.6, -52.85)" gradientUnits="userSpaceOnUse" id="gradient2" spreadMethod="pad" x1="-819.2" x2="819.2">
      <stop offset="0.0" stop-color="#f8d55e"/>
      <stop offset="1.0" stop-color="#cea724"/>
    </linearGradient>
    <linearGradient gradientTransform="matrix(0.0158, 0.0157, -0.0412, 0.0414, 80.95, -47.2)" gradientUnits="userSpaceOnUse" id="gradient3" spreadMethod="pad" x1="-819.2" x2="819.2">
      <stop offset="0.5333333333333333" stop-color="#97771a"/>
      <stop offset="1.0" stop-color="#9c9c9a"/>
    </linearGradient>
    <linearGradient gradientTransform="matrix(-0.0145, 0.0147, -0.0416, -0.0411, 15.2, 46.85)" gradientUnits="userSpaceOnUse" id="gradient4" spreadMethod="pad" x1="-819.2" x2="819.2">
      <stop offset="0.0" stop-color="#b18d23"/>
      <stop offset="1.0" stop-color="#d0a420"/>
    </linearGradient>
    <linearGradient gradientTransform="matrix(0.0067, 0.0, 0.0, 0.0067, -5.45, -34.3)" gradientUnits="userSpaceOnUse" id="gradient5" spreadMethod="pad" x1="-819.2" x2="819.2">
      <stop offset="0.0" stop-color="#dcb030"/>
      <stop offset="1.0" stop-color="#edcb67"/>
    </linearGradient>
    <radialGradient cx="0" cy="0" gradientTransform="matrix(0.0576, 0.0, 0.0, 0.0576, 0.15, 7.75)" gradientUnits="userSpaceOnUse" id="gradient6" r="819.2" spreadMethod="pad">
      <stop offset="0.0" stop-color="#926718" stop-opacity="0.101960786"/>
      <stop offset="1.0" stop-color="#926718" stop-opacity="0.5019608"/>
    </radialGradient>
    <radialGradient cx="0" cy="0" gradientTransform="matrix(0.0576, 0.0, 0.0, 0.0576, 0.15, 7.75)" gradientUnits="userSpaceOnUse" id="gradient7" r="819.2" spreadMethod="pad">
      <stop offset="0.0" stop-color="#926718" stop-opacity="0.101960786"/>
      <stop offset="1.0" stop-color="#926718" stop-opacity="0.5019608"/>
    </radialGradient>
    <radialGradient cx="0" cy="0" gradientTransform="matrix(0.0403, 0.0, 0.0, 0.0403, 0.0, -7.5)" gradientUnits="userSpaceOnUse" id="gradient8" r="819.2" spreadMethod="pad">
      <stop offset="0.0" stop-color="#926718" stop-opacity="0.101960786"/>
      <stop offset="1.0" stop-color="#926718" stop-opacity="0.5019608"/>
    </radialGradient>
    <radialGradient cx="0" cy="0" gradientTransform="matrix(0.0403, 0.0, 0.0, 0.0403, -19.0, 1.5)" gradientUnits="userSpaceOnUse" id="gradient9" r="819.2" spreadMethod="pad">
      <stop offset="0.0" stop-color="#926718" stop-opacity="0.101960786"/>
      <stop offset="1.0" stop-color="#926718" stop-opacity="0.5019608"/>
    </radialGradient>
    <radialGradient cx="0" cy="0" gradientTransform="matrix(0.0403, 0.0, 0.0, 0.0403, -39.0, 1.5)" gradientUnits="userSpaceOnUse" id="gradient10" r="819.2" spreadMethod="pad">
      <stop offset="0.0" stop-color="#926718" stop-opacity="0.101960786"/>
      <stop offset="1.0" stop-color="#926718" stop-opacity="0.5019608"/>
    </radialGradient>
    <radialGradient cx="0" cy="0" gradientTransform="matrix(0.0403, 0.0, 0.0, 0.0403, -35.0, -7.5)" gradientUnits="userSpaceOnUse" id="gradient11" r="819.2" spreadMethod="pad">
      <stop offset="0.0" stop-color="#926718" stop-opacity="0.101960786"/>
      <stop offset="1.0" stop-color="#926718" stop-opacity="0.5019608"/>
    </radialGradient>
    <radialGradient cx="0" cy="0" gradientTransform="matrix(0.0403, 0.0, 0.0, 0.0403, -22.0, 14.5)" gradientUnits="userSpaceOnUse" id="gradient12" r="819.2" spreadMethod="pad">
      <stop offset="0.0" stop-color="#926718" stop-opacity="0.101960786"/>
      <stop offset="1.0" stop-color="#926718" stop-opacity="0.5019608"/>
    </radialGradient>
    <radialGradient cx="0" cy="0" gradientTransform="matrix(0.0403, 0.0, 0.0, 0.0403, -15.0, 22.5)" gradientUnits="userSpaceOnUse" id="gradient13" r="819.2" spreadMethod="pad">
      <stop offset="0.0" stop-color="#926718" stop-opacity="0.101960786"/>
      <stop offset="1.0" stop-color="#926718" stop-opacity="0.5019608"/>
    </radialGradient>
    <radialGradient cx="0" cy="0" gradientTransform="matrix(0.0586, 0.0, 0.0, 0.0586, 0.0, 8.0)" gradientUnits="userSpaceOnUse" id="gradient14" r="819.2" spreadMethod="pad">
      <stop offset="0.0" stop-color="#64401c" stop-opacity="0.57254905"/>
      <stop offset="1.0" stop-color="#64401c"/>
    </radialGradient>
    <linearGradient gradientTransform="matrix(0.0012, 0.0, 0.0, 0.0024, 0.0, -57.0)" gradientUnits="userSpaceOnUse" id="gradient15" spreadMethod="pad" x1="-819.2" x2="819.2">
      <stop offset="0.0" stop-color="#5b5b5b"/>
      <stop offset="0.396078431372549" stop-color="#b0b0b0"/>
      <stop offset="0.6196078431372549" stop-color="#b0b0b0"/>
      <stop offset="1.0" stop-color="#5b5b5b"/>
    </linearGradient>
    <linearGradient gradientTransform="matrix(0.0024, 0.0, 0.0, 0.0012, 0.0, -54.0)" gradientUnits="userSpaceOnUse" id="gradient16" spreadMethod="pad" x1="-819.2" x2="819.2">
      <stop offset="0.00392156862745098" stop-color="#636363"/>
      <stop offset="0.23137254901960785" stop-color="#b8b8b8"/>
      <stop offset="0.49411764705882355" stop-color="#dfdfdf"/>
      <stop offset="0.7568627450980392" stop-color="#b8b8b8"/>
      <stop offset="1.0" stop-color="#3c3c3c"/>
    </linearGradient>
    <linearGradient gradientTransform="matrix(0.0038, 0.0, 0.0, 0.0012, 0.0, -54.0)" gradientUnits="userSpaceOnUse" id="gradient17" spreadMethod="pad" x1="-819.2" x2="819.2">
      <stop offset="0.00392156862745098" stop-color="#636363"/>
      <stop offset="0.23137254901960785" stop-color="#b8b8b8"/>
      <stop offset="0.5019607843137255" stop-color="#dfdfdf"/>
      <stop offset="0.7568627450980392" stop-color="#b8b8b8"/>
      <stop offset="1.0" stop-color="#3c3c3c"/>
    </linearGradient>
    <linearGradient gradientTransform="matrix(0.0, 0.0033, -0.0031, 0.0, 0.0, -30.5)" gradientUnits="userSpaceOnUse" id="gradient18" spreadMethod="pad" x1="-819.2" x2="819.2">
      <stop offset="0.0" stop-color="#353535" stop-opacity="0.34117648"/>
      <stop offset="1.0" stop-color="#434343" stop-opacity="0.0"/>
    </linearGradient>
    <linearGradient gradientTransform="matrix(1.0E-4, 0.005, -0.0012, 0.0, 0.3, -42.0)" gradientUnits="userSpaceOnUse" id="gradient19" spreadMethod="pad" x1="-819.2" x2="819.2">
      <stop offset="0.0" stop-color="#787878"/>
      <stop offset="1.0" stop-color="#adadad"/>
    </linearGradient>
    <linearGradient gradientTransform="matrix(0.0, -0.0031, 0.0031, 0.0, -1.0, -35.5)" gradientUnits="userSpaceOnUse" id="gradient20" spreadMethod="pad" x1="-819.2" x2="819.2">
      <stop offset="0.0" stop-color="#353535"/>
      <stop offset="0.0" stop-color="#1c1c1c"/>
      <stop offset="1.0" stop-color="#434343"/>
    </linearGradient>
    <linearGradient gradientTransform="matrix(0.0, 0.0218, -0.0244, 0.0, -1.5, 40.5)" gradientUnits="userSpaceOnUse" id="gradient21" spreadMethod="pad" x1="-819.2" x2="819.2">
      <stop offset="0.06666666666666667" stop-color="#353535"/>
      <stop offset="0.08235294117647059" stop-color="#515151"/>
      <stop offset="0.28627450980392155" stop-color="#787878"/>
      <stop offset="0.6235294117647059" stop-color="#999999"/>
      <stop offset="1.0" stop-color="#adadad"/>
    </linearGradient>
    <linearGradient gradientTransform="matrix(0.0586, 0.0, 0.0, 0.0024, 0.0, 22.0)" gradientUnits="userSpaceOnUse" id="gradient22" spreadMethod="pad" x1="-819.2" x2="819.2">
      <stop offset="0.00392156862745098" stop-color="#636363"/>
      <stop offset="0.49411764705882355" stop-color="#d0d0d0"/>
      <stop offset="1.0" stop-color="#3c3c3c"/>
    </linearGradient>
  </defs>
</svg>
