<?xml version="1.0" encoding="UTF-8" standalone="no"?>
<svg xmlns:xlink="http://www.w3.org/1999/xlink" height="163.0px" width="15.0px" xmlns="http://www.w3.org/2000/svg">
  <g transform="matrix(1.0, 0.0, 0.0, 1.0, 7.5, 81.5)">
    <path d="M6.5 -76.0 L6.5 -74.0 Q6.5 -72.95 5.8 -72.2 5.25 -71.7 4.55 -71.55 L4.55 -71.5 5.0 -71.5 6.45 -71.05 7.35 -69.85 Q7.6 -69.15 7.45 -68.4 L6.85 -66.05 Q7.5 -65.15 7.5 -64.0 7.55 -62.6 6.5 -61.5 L6.35 -61.35 6.2 -59.75 Q5.75 -55.25 5.6 -47.95 L5.5 -42.0 5.8 -41.75 Q6.5 -41.05 6.5 -40.0 L6.5 -38.0 Q6.5 -36.95 5.8 -36.2 L5.5 -35.95 5.5 -35.0 6.25 -34.25 Q7.0 -33.55 7.0 -32.5 7.0 -31.45 6.25 -30.7 L6.25 -30.75 5.5 -30.0 5.5 -27.0 6.25 -26.25 Q7.0 -25.55 7.0 -24.5 7.0 -23.45 6.25 -22.7 L6.25 -22.75 5.5 -22.0 5.5 -19.0 6.25 -18.25 Q7.0 -17.55 7.0 -16.5 7.0 -15.45 6.25 -14.7 L6.25 -14.75 5.5 -14.0 5.5 -11.0 6.25 -10.25 Q7.0 -9.55 7.0 -8.5 7.0 -7.45 6.25 -6.7 L6.25 -6.75 5.5 -6.0 5.5 -3.0 6.25 -2.25 Q7.0 -1.55 7.0 -0.5 7.0 0.55 6.25 1.3 L6.25 1.25 5.5 2.0 5.5 5.0 6.25 5.75 Q7.0 6.45 7.0 7.5 7.0 8.55 6.25 9.3 L6.25 9.25 5.5 10.0 5.5 13.0 6.25 13.75 Q7.0 14.45 7.0 15.5 7.0 16.55 6.25 17.3 L6.25 17.25 5.5 18.0 5.5 21.0 6.25 21.75 Q7.0 22.45 7.0 23.5 7.0 24.55 6.25 25.3 L6.25 25.25 5.5 26.0 5.5 29.0 6.25 29.75 Q7.0 30.45 7.0 31.5 7.0 32.55 6.25 33.3 L6.25 33.25 5.5 34.0 5.5 36.0 5.8 36.25 Q6.5 36.95 6.5 38.0 L6.5 40.0 Q6.5 41.05 5.8 41.8 L5.5 42.0 5.6 47.95 Q5.75 55.25 6.2 59.8 L6.35 61.4 6.5 61.55 Q7.55 62.6 7.5 64.0 7.5 65.15 6.85 66.05 L7.45 68.4 Q7.6 69.15 7.35 69.9 L6.45 71.05 5.0 71.5 4.55 71.5 4.55 71.55 Q5.25 71.7 5.8 72.25 6.5 72.95 6.5 74.0 L6.5 76.0 Q6.5 77.05 5.8 77.8 5.05 78.5 4.0 78.5 L3.5 78.5 3.5 79.0 Q3.5 80.05 2.8 80.8 2.05 81.5 1.0 81.5 L-1.0 81.5 Q-2.05 81.5 -2.75 80.8 -3.5 80.05 -3.5 79.0 L-3.5 78.5 -4.0 78.5 Q-5.05 78.5 -5.75 77.8 -6.5 77.05 -6.5 76.0 L-6.5 74.0 Q-6.5 72.95 -5.75 72.25 -5.2 71.7 -4.5 71.55 L-4.5 71.5 -5.0 71.5 Q-5.8 71.5 -6.4 71.05 L-7.35 69.9 -7.4 68.4 -6.85 66.05 Q-7.5 65.15 -7.5 64.0 -7.55 62.6 -6.45 61.55 L-6.3 61.4 -6.15 59.8 Q-5.75 55.25 -5.6 47.95 L-5.5 42.0 -5.75 41.8 Q-6.5 41.05 -6.5 40.0 L-6.5 38.0 Q-6.5 36.95 -5.75 36.25 L-5.5 36.0 -5.5 34.0 -6.25 33.25 -6.25 33.3 Q-7.0 32.55 -7.0 31.5 -7.0 30.45 -6.25 29.75 L-5.5 29.0 -5.5 26.0 -6.25 25.25 -6.25 25.3 Q-7.0 24.55 -7.0 23.5 -7.0 22.45 -6.25 21.75 L-5.5 21.0 -5.5 18.0 -6.25 17.25 -6.25 17.3 Q-7.0 16.55 -7.0 15.5 -7.0 14.45 -6.25 13.75 L-5.5 13.0 -5.5 10.0 -6.25 9.25 -6.25 9.3 Q-7.0 8.55 -7.0 7.5 -7.0 6.45 -6.25 5.75 L-5.5 5.0 -5.5 2.0 -6.25 1.25 -6.25 1.3 Q-7.0 0.55 -7.0 -0.5 -7.0 -1.55 -6.25 -2.25 L-5.5 -3.0 -5.5 -6.0 -6.25 -6.75 -6.25 -6.7 Q-7.0 -7.45 -7.0 -8.5 -7.0 -9.55 -6.25 -10.25 L-5.5 -11.0 -5.5 -14.0 -6.25 -14.75 -6.25 -14.7 Q-7.0 -15.45 -7.0 -16.5 -7.0 -17.55 -6.25 -18.25 L-5.5 -19.0 -5.5 -22.0 -6.25 -22.75 -6.25 -22.7 Q-7.0 -23.45 -7.0 -24.5 -7.0 -25.55 -6.25 -26.25 L-5.5 -27.0 -5.5 -30.0 -6.25 -30.75 -6.25 -30.7 Q-7.0 -31.45 -7.0 -32.5 -7.0 -33.55 -6.25 -34.25 L-5.5 -35.0 -5.5 -35.95 -5.75 -36.2 Q-6.5 -36.95 -6.5 -38.0 L-6.5 -40.0 Q-6.5 -41.05 -5.75 -41.75 L-5.5 -42.0 -5.6 -47.95 Q-5.75 -55.25 -6.15 -59.75 L-6.3 -61.35 -6.45 -61.5 Q-7.55 -62.6 -7.5 -64.0 -7.5 -65.15 -6.85 -66.05 L-7.4 -68.4 -7.35 -69.85 -6.4 -71.05 Q-5.8 -71.5 -5.0 -71.5 L-4.5 -71.5 -4.5 -71.55 Q-5.2 -71.7 -5.75 -72.2 -6.5 -72.95 -6.5 -74.0 L-6.5 -76.0 Q-6.5 -77.05 -5.75 -77.75 -5.05 -78.5 -4.0 -78.5 L-3.5 -78.5 -3.5 -79.0 Q-3.5 -80.05 -2.75 -80.75 -2.05 -81.5 -1.0 -81.5 L1.0 -81.5 Q2.05 -81.5 2.8 -80.75 3.5 -80.05 3.5 -79.0 L3.5 -78.5 4.0 -78.5 Q5.05 -78.5 5.8 -77.75 6.5 -77.05 6.5 -76.0" fill="#000000" fill-rule="evenodd" stroke="none"/>
    <path d="M1.0 -76.0 L4.0 -76.0 4.0 -74.0 1.0 -74.0 1.0 -71.0 -1.0 -71.0 -1.0 -74.0 -4.0 -74.0 -4.0 -76.0 -1.0 -76.0 -1.0 -79.0 1.0 -79.0 1.0 -76.0" fill="url(#gradient0)" fill-rule="evenodd" stroke="none"/>
    <path d="M4.0 74.0 L4.0 76.0 1.0 76.0 1.0 79.0 -1.0 79.0 -1.0 76.0 -4.0 76.0 -4.0 74.0 -1.0 74.0 -1.0 71.0 1.0 71.0 1.0 74.0 4.0 74.0" fill="url(#gradient1)" fill-rule="evenodd" stroke="none"/>
    <path d="M2.0 -71.0 L3.0 -69.0 -3.0 -69.0 -2.0 -71.0 2.0 -71.0" fill="url(#gradient2)" fill-rule="evenodd" stroke="none"/>
    <path d="M-3.0 69.0 L3.0 69.0 2.0 71.0 -2.0 71.0 -3.0 69.0" fill="url(#gradient3)" fill-rule="evenodd" stroke="none"/>
    <path d="M-3.65 -60.0 L-4.0 -63.0 0.0 -63.0 4.0 -63.0 3.7 -60.0 -3.65 -60.0 M-4.0 65.0 L4.0 65.0 5.0 69.0 -5.0 69.0 -4.0 65.0" fill="url(#gradient4)" fill-rule="evenodd" stroke="none"/>
    <path d="M5.0 -69.0 L4.0 -65.0 -4.0 -65.0 -5.0 -69.0 5.0 -69.0" fill="url(#gradient5)" fill-rule="evenodd" stroke="none"/>
    <path d="M3.0 -38.0 L3.0 -36.0 0.0 -36.0 -3.0 -36.0 -3.0 -38.0 0.0 -38.0 3.0 -38.0" fill="url(#gradient6)" fill-rule="evenodd" stroke="none"/>
    <path d="M-3.0 36.0 L0.0 36.0 3.0 36.0 3.0 38.0 0.0 38.0 -3.0 38.0 -3.0 36.0" fill="url(#gradient7)" fill-rule="evenodd" stroke="none"/>
    <path d="M-3.65 60.0 L3.7 60.0 4.0 63.0 0.0 63.0 -4.0 63.0 -3.65 60.0" fill="url(#gradient8)" fill-rule="evenodd" stroke="none"/>
    <path d="M3.7 -60.0 Q3.25 -55.4 3.1 -48.0 L3.0 -40.7 3.0 -40.0 0.0 -40.0 -3.0 -40.0 -3.0 -40.7 -3.1 -48.0 Q-3.25 -55.4 -3.65 -60.0 L3.7 -60.0" fill="url(#gradient9)" fill-rule="evenodd" stroke="none"/>
    <path d="M-3.65 60.0 Q-3.25 55.4 -3.1 48.0 L-3.0 40.7 -3.0 40.0 0.0 40.0 3.0 40.0 3.0 40.7 3.1 48.0 Q3.25 55.4 3.7 60.0 L-3.65 60.0" fill="url(#gradient10)" fill-rule="evenodd" stroke="none"/>
    <path d="M4.0 -38.0 L3.0 -38.0 0.0 -38.0 -3.0 -38.0 -4.0 -38.0 -4.0 -40.0 0.0 -40.0 4.0 -40.0 4.0 -38.0" fill="url(#gradient11)" fill-rule="evenodd" stroke="none"/>
    <path d="M3.0 38.0 L4.0 38.0 4.0 40.0 0.0 40.0 -4.0 40.0 -4.0 38.0 -3.0 38.0 0.0 38.0 3.0 38.0" fill="url(#gradient12)" fill-rule="evenodd" stroke="none"/>
    <path d="M5.0 -64.0 L4.7 -63.3 Q4.4 -63.0 4.0 -63.0 L-4.0 -63.0 Q-4.4 -63.0 -4.7 -63.3 L-5.0 -64.0 -4.7 -64.7 -4.0 -65.0 4.0 -65.0 4.7 -64.7 5.0 -64.0" fill="url(#gradient13)" fill-rule="evenodd" stroke="none"/>
    <path d="M4.0 63.0 Q4.4 63.0 4.7 63.3 L5.0 64.0 4.7 64.7 4.0 65.0 -4.0 65.0 -4.7 64.7 -5.0 64.0 -4.7 63.3 Q-4.4 63.0 -4.0 63.0 L4.0 63.0" fill="url(#gradient14)" fill-rule="evenodd" stroke="none"/>
    <path d="M2.1 -66.9 Q1.25 -66.0 0.0 -66.0 -1.25 -66.0 -2.15 -66.9 -3.0 -67.75 -3.0 -69.0 L3.0 -69.0 Q3.0 -67.75 2.1 -66.9" fill="url(#gradient15)" fill-rule="evenodd" stroke="none"/>
    <path d="M2.1 66.9 Q3.0 67.75 3.0 69.0 L-3.0 69.0 Q-3.0 67.75 -2.15 66.9 -1.25 66.0 0.0 66.0 1.25 66.0 2.1 66.9" fill="url(#gradient16)" fill-rule="evenodd" stroke="none"/>
  </g>
  <defs>
    <linearGradient gradientTransform="matrix(0.0025, -0.0043, 0.0042, 0.0024, 0.0, -75.0)" gradientUnits="userSpaceOnUse" id="gradient0" spreadMethod="pad" x1="-819.2" x2="819.2">
      <stop offset="0.0" stop-color="#666666"/>
      <stop offset="0.4549019607843137" stop-color="#838383"/>
      <stop offset="0.6980392156862745" stop-color="#999191"/>
      <stop offset="1.0" stop-color="#e6e6e6"/>
    </linearGradient>
    <linearGradient gradientTransform="matrix(0.0033, -0.0033, 0.0034, 0.0034, 0.0, 75.0)" gradientUnits="userSpaceOnUse" id="gradient1" spreadMethod="pad" x1="-819.2" x2="819.2">
      <stop offset="0.0" stop-color="#a6a6a6"/>
      <stop offset="0.3411764705882353" stop-color="#636363"/>
      <stop offset="1.0" stop-color="#a3a3a3"/>
    </linearGradient>
    <linearGradient gradientTransform="matrix(0.0037, 0.0, 0.0, 0.0012, 0.0, -70.0)" gradientUnits="userSpaceOnUse" id="gradient2" spreadMethod="pad" x1="-819.2" x2="819.2">
      <stop offset="0.0" stop-color="#655421"/>
      <stop offset="0.12156862745098039" stop-color="#695723"/>
      <stop offset="0.4235294117647059" stop-color="#a98c38"/>
      <stop offset="0.592156862745098" stop-color="#a98c38"/>
      <stop offset="0.9137254901960784" stop-color="#695723"/>
      <stop offset="1.0" stop-color="#655421"/>
    </linearGradient>
    <linearGradient gradientTransform="matrix(0.0037, 0.0, 0.0, 0.0012, 0.0, 70.0)" gradientUnits="userSpaceOnUse" id="gradient3" spreadMethod="pad" x1="-819.2" x2="819.2">
      <stop offset="0.0" stop-color="#655421"/>
      <stop offset="0.12156862745098039" stop-color="#695723"/>
      <stop offset="0.4235294117647059" stop-color="#a98c38"/>
      <stop offset="0.592156862745098" stop-color="#a98c38"/>
      <stop offset="0.9137254901960784" stop-color="#695723"/>
      <stop offset="1.0" stop-color="#655421"/>
    </linearGradient>
    <linearGradient gradientTransform="matrix(0.0061, 0.0, 0.0, 0.0024, 0.0, -67.0)" gradientUnits="userSpaceOnUse" id="gradient4" spreadMethod="pad" x1="-819.2" x2="819.2">
      <stop offset="0.0" stop-color="#353535"/>
      <stop offset="0.4470588235294118" stop-color="#8d8d8d"/>
      <stop offset="0.5843137254901961" stop-color="#8d8d8d"/>
      <stop offset="1.0" stop-color="#353535"/>
    </linearGradient>
    <linearGradient gradientTransform="matrix(0.0061, 0.0, 0.0, 0.0024, 0.0, -67.0)" gradientUnits="userSpaceOnUse" id="gradient5" spreadMethod="pad" x1="-819.2" x2="819.2">
      <stop offset="0.0" stop-color="#353535"/>
      <stop offset="0.4470588235294118" stop-color="#8d8d8d"/>
      <stop offset="0.5843137254901961" stop-color="#8d8d8d"/>
      <stop offset="0.9921568627450981" stop-color="#353535"/>
    </linearGradient>
    <linearGradient gradientTransform="matrix(0.0037, 0.0, 0.0, 0.0012, 0.0, -37.0)" gradientUnits="userSpaceOnUse" id="gradient6" spreadMethod="pad" x1="-819.2" x2="819.2">
      <stop offset="0.0" stop-color="#6a6a6a"/>
      <stop offset="0.49019607843137253" stop-color="#b5b5b5"/>
      <stop offset="1.0" stop-color="#6a6a6a"/>
    </linearGradient>
    <linearGradient gradientTransform="matrix(0.0037, 0.0, 0.0, 0.0012, 0.0, -37.0)" gradientUnits="userSpaceOnUse" id="gradient7" spreadMethod="pad" x1="-819.2" x2="819.2">
      <stop offset="0.0" stop-color="#6a6a6a"/>
      <stop offset="0.49019607843137253" stop-color="#b5b5b5"/>
      <stop offset="1.0" stop-color="#6a6a6a"/>
    </linearGradient>
    <linearGradient gradientTransform="matrix(0.0061, 0.0, 0.0, 0.0024, 0.0, -67.0)" gradientUnits="userSpaceOnUse" id="gradient8" spreadMethod="pad" x1="-819.2" x2="819.2">
      <stop offset="0.0" stop-color="#353535"/>
      <stop offset="0.4470588235294118" stop-color="#8d8d8d"/>
      <stop offset="0.5843137254901961" stop-color="#8d8d8d"/>
      <stop offset="1.0" stop-color="#353535"/>
    </linearGradient>
    <linearGradient gradientTransform="matrix(0.0037, 0.0, 0.0, 0.0012, 0.0, -37.0)" gradientUnits="userSpaceOnUse" id="gradient9" spreadMethod="pad" x1="-819.2" x2="819.2">
      <stop offset="0.0" stop-color="#6a0000"/>
      <stop offset="0.4392156862745098" stop-color="#db0000"/>
      <stop offset="0.596078431372549" stop-color="#db0000"/>
      <stop offset="1.0" stop-color="#6a0000"/>
    </linearGradient>
    <linearGradient gradientTransform="matrix(0.0045, 0.0, 0.0, 0.0122, 0.0, 50.0)" gradientUnits="userSpaceOnUse" id="gradient10" spreadMethod="pad" x1="-819.2" x2="819.2">
      <stop offset="0.0" stop-color="#6a0000"/>
      <stop offset="0.4392156862745098" stop-color="#db0000"/>
      <stop offset="0.596078431372549" stop-color="#db0000"/>
      <stop offset="1.0" stop-color="#6a0000"/>
    </linearGradient>
    <linearGradient gradientTransform="matrix(0.0049, 0.0, 0.0, 0.0012, 0.0, -39.0)" gradientUnits="userSpaceOnUse" id="gradient11" spreadMethod="pad" x1="-819.2" x2="819.2">
      <stop offset="0.027450980392156862" stop-color="#6a6a6a"/>
      <stop offset="0.4470588235294118" stop-color="#b5b5b5"/>
      <stop offset="0.592156862745098" stop-color="#b5b5b5"/>
      <stop offset="0.9725490196078431" stop-color="#6a6a6a"/>
    </linearGradient>
    <linearGradient gradientTransform="matrix(0.0049, 0.0, 0.0, 0.0012, 0.0, -39.0)" gradientUnits="userSpaceOnUse" id="gradient12" spreadMethod="pad" x1="-819.2" x2="819.2">
      <stop offset="0.027450980392156862" stop-color="#6a6a6a"/>
      <stop offset="0.4470588235294118" stop-color="#b5b5b5"/>
      <stop offset="0.5843137254901961" stop-color="#b5b5b5"/>
      <stop offset="0.9725490196078431" stop-color="#6a6a6a"/>
    </linearGradient>
    <radialGradient cx="0" cy="0" gradientTransform="matrix(0.0073, 0.0, 0.0, 0.0022, 0.0, -64.0)" gradientUnits="userSpaceOnUse" id="gradient13" r="819.2" spreadMethod="pad">
      <stop offset="0.13333333333333333" stop-color="#bfbfbf"/>
      <stop offset="0.26666666666666666" stop-color="#9f9f9f"/>
      <stop offset="0.8627450980392157" stop-color="#3c3c3c"/>
      <stop offset="0.9490196078431372" stop-color="#5b5b5b"/>
    </radialGradient>
    <radialGradient cx="0" cy="0" gradientTransform="matrix(0.0073, 0.0, 0.0, 0.0024, 0.0, 64.0)" gradientUnits="userSpaceOnUse" id="gradient14" r="819.2" spreadMethod="pad">
      <stop offset="0.13333333333333333" stop-color="#bfbfbf"/>
      <stop offset="0.26666666666666666" stop-color="#9f9f9f"/>
      <stop offset="0.8627450980392157" stop-color="#3c3c3c"/>
      <stop offset="0.9490196078431372" stop-color="#5b5b5b"/>
    </radialGradient>
    <radialGradient cx="0" cy="0" gradientTransform="matrix(0.0024, 0.0, 0.0, 0.0035, 0.0, -69.0)" gradientUnits="userSpaceOnUse" id="gradient15" r="819.2" spreadMethod="pad">
      <stop offset="0.0" stop-color="#ffffff" stop-opacity="0.4"/>
      <stop offset="1.0" stop-color="#ffffff" stop-opacity="0.0"/>
    </radialGradient>
    <radialGradient cx="0" cy="0" gradientTransform="matrix(0.0024, 0.0, 0.0, -0.0035, 0.0, 69.0)" gradientUnits="userSpaceOnUse" id="gradient16" r="819.2" spreadMethod="pad">
      <stop offset="0.0" stop-color="#ffffff" stop-opacity="0.4"/>
      <stop offset="1.0" stop-color="#ffffff" stop-opacity="0.0"/>
    </radialGradient>
  </defs>
</svg>
