<?xml version="1.0" encoding="UTF-8" standalone="no"?>
<svg xmlns:xlink="http://www.w3.org/1999/xlink" height="144.0px" width="10.0px" xmlns="http://www.w3.org/2000/svg">
  <g transform="matrix(1.0, 0.0, 0.0, 1.0, 5.0, 72.0)">
    <path d="M4.0 -60.0 L-4.0 -60.0 -4.0 -61.0 4.0 -61.0 4.0 -60.0 M3.0 -69.0 L-3.0 -69.0 -3.0 -70.0 3.0 -70.0 3.0 -69.0 M1.0 -71.0 L-1.0 -71.0 -1.0 -72.0 1.0 -72.0 1.0 -71.0 M4.0 -62.0 L-4.0 -62.0 -4.0 -63.0 4.0 -63.0 4.0 -62.0 M3.0 -40.0 L-3.0 -40.0 -3.0 -41.0 3.0 -41.0 3.0 -40.0 M4.0 -48.0 L-4.0 -48.0 -4.0 -49.0 4.0 -49.0 4.0 -48.0 M3.0 -37.0 L-3.0 -37.0 -3.0 -38.0 3.0 -38.0 3.0 -37.0 M-3.0 37.0 L3.0 37.0 3.0 38.0 -3.0 38.0 -3.0 37.0 M-4.0 48.0 L4.0 48.0 4.0 49.0 -4.0 49.0 -4.0 48.0 M-3.0 40.0 L3.0 40.0 3.0 41.0 -3.0 41.0 -3.0 40.0 M-4.0 60.0 L4.0 60.0 4.0 61.0 -4.0 61.0 -4.0 60.0 M-5.0 65.0 L5.0 65.0 5.0 66.0 -5.0 66.0 -5.0 65.0 M-1.0 71.0 L1.0 71.0 1.0 72.0 -1.0 72.0 -1.0 71.0 M-4.0 69.0 L4.0 69.0 4.0 70.0 -4.0 70.0 -4.0 69.0" fill="#000000" fill-opacity="0.15294118" fill-rule="evenodd" stroke="none"/>
  </g>
</svg>
