<?xml version="1.0" encoding="UTF-8" standalone="no"?>
<svg xmlns:xlink="http://www.w3.org/1999/xlink" height="142.5px" width="177.85px" xmlns="http://www.w3.org/2000/svg">
  <g transform="matrix(1.0, 0.0, 0.0, 1.0, -400.7, -387.4)">
    <path d="M516.85 387.4 L517.25 387.6 501.75 409.75 501.05 410.0 501.55 410.0 501.75 409.75 Q504.2 409.0 510.7 406.3 L507.35 411.4 Q506.2 413.0 505.55 414.4 L505.9 414.55 513.25 413.6 519.45 413.3 521.45 413.35 511.5 426.3 Q512.0 426.35 512.0 426.8 L529.75 428.1 534.9 428.95 529.75 431.7 523.45 434.75 Q514.9 438.8 512.0 441.0 548.4 448.05 578.55 454.9 574.45 455.2 561.05 458.0 L540.25 462.05 Q540.75 462.05 540.75 462.5 L545.15 466.25 548.5 469.45 542.0 470.15 534.95 470.75 534.9 471.2 552.95 482.3 Q565.85 490.2 570.7 492.9 L546.2 493.85 515.55 495.4 524.65 513.0 513.05 509.85 509.15 508.65 Q503.85 507.1 501.2 506.0 L501.55 510.25 501.9 514.5 497.25 513.0 Q494.1 511.95 491.5 511.85 L487.8 512.45 485.45 513.0 484.15 512.75 Q483.75 512.7 483.45 512.95 L483.0 525.4 Q484.3 527.6 484.85 529.9 480.5 526.15 469.5 519.45 459.8 513.55 454.55 511.05 L453.5 513.7 Q452.55 515.4 451.15 515.35 449.65 515.3 446.9 511.55 L442.7 506.15 440.25 509.3 437.55 512.25 Q437.65 508.9 435.7 504.65 433.6 500.05 431.25 500.0 429.55 499.95 429.2 500.9 428.6 502.75 427.35 503.85 423.3 501.2 421.35 499.4 417.8 496.1 417.75 491.95 420.3 491.5 423.85 486.45 427.1 481.8 427.2 479.8 414.25 473.6 413.65 473.6 413.1 473.55 411.55 475.45 L409.7 477.9 Q403.95 475.6 402.7 468.7 402.15 465.65 402.5 455.0 L402.8 449.6 Q403.1 447.45 403.75 446.15 402.5 444.85 401.6 442.3 400.55 439.25 400.7 436.25 400.75 434.7 401.05 433.55 401.4 432.35 402.1 431.65 402.75 430.85 405.0 430.05 409.75 428.2 411.2 421.95 411.95 418.4 417.15 415.35 420.05 413.6 425.05 411.7 425.1 410.65 425.7 407.5 L426.35 403.8 426.6 403.75 426.85 403.35 Q428.0 404.45 430.4 406.0 L433.2 407.6 Q434.75 407.65 439.8 406.05 441.05 405.6 441.6 403.8 L442.45 401.2 Q443.55 399.7 450.5 397.5 456.95 395.5 458.65 395.6 459.9 395.6 462.3 397.9 464.75 400.25 465.95 400.3 467.35 400.35 472.6 396.7 477.85 393.15 478.15 393.15 L480.0 392.75 481.65 392.4 Q483.75 396.75 485.95 399.2 488.9 398.0 503.35 393.4 513.5 390.2 516.85 387.4" fill="#ffffff" fill-rule="evenodd" stroke="none"/>
    <path d="M501.55 410.0 L501.75 409.75" fill="none" stroke="#ffffff" stroke-linecap="butt" stroke-linejoin="round" stroke-width="1.0"/>
  </g>
</svg>
