<?xml version="1.0" encoding="UTF-8" standalone="no"?>
<svg xmlns:xlink="http://www.w3.org/1999/xlink" height="48.0px" width="488.0px" xmlns="http://www.w3.org/2000/svg">
  <g transform="matrix(1.0, 0.0, 0.0, 1.0, 244.0, 24.0)">
    <path d="M155.55 -16.65 Q91.15 -22.5 0.0 -22.5 -91.15 -22.5 -155.6 -16.65 -220.0 -10.8 -220.0 -2.5 -220.0 5.8 -155.6 11.65 -91.15 17.5 0.0 17.5 91.15 17.5 155.55 11.65 220.0 5.8 220.0 -2.5 220.0 -10.8 155.55 -16.65 M172.5 -17.0 Q244.0 -9.95 244.0 0.0 244.0 9.95 172.5 16.95 101.05 24.0 0.0 24.0 -101.05 24.0 -172.55 16.95 -244.0 9.95 -244.0 0.0 -244.0 -9.95 -172.55 -17.0 -101.05 -24.0 0.0 -24.0 101.05 -24.0 172.5 -17.0" fill="url(#gradient0)" fill-rule="evenodd" stroke="none"/>
  </g>
  <defs>
    <linearGradient gradientTransform="matrix(0.2979, 0.0, 0.0, 0.0293, 0.0, 0.0)" gradientUnits="userSpaceOnUse" id="gradient0" spreadMethod="pad" x1="-819.2" x2="819.2">
      <stop offset="0.0" stop-color="#ffffff" stop-opacity="0.12156863"/>
      <stop offset="0.01568627450980392" stop-color="#ffffff" stop-opacity="0.16078432"/>
      <stop offset="0.5058823529411764" stop-color="#ffffff" stop-opacity="0.08235294"/>
      <stop offset="1.0" stop-color="#ffffff" stop-opacity="0.16078432"/>
    </linearGradient>
  </defs>
</svg>
