<?xml version="1.0" encoding="UTF-8" standalone="no"?>
<svg xmlns:xlink="http://www.w3.org/1999/xlink" height="232.0px" width="144.0px" xmlns="http://www.w3.org/2000/svg">
  <g transform="matrix(1.0, 0.0, 0.0, 1.0, 72.0, 116.0)">
    <path d="M5.85 -11.9 Q7.8 -8.8 38.55 -6.4 L72.0 -4.0 38.45 -1.95 Q7.7 0.1 5.7 3.25 3.35 7.05 1.5 58.7 0.55 86.0 0.0 116.0 -0.45 89.5 -1.65 58.7 -3.65 7.05 -6.0 3.25 -7.95 0.15 -38.6 -1.95 L-72.0 -4.0 -38.55 -6.35 Q-7.85 -8.75 -5.85 -11.9 -3.5 -15.7 -1.55 -63.05 -0.45 -91.25 0.0 -116.0 0.45 -91.25 1.6 -63.05 3.5 -15.7 5.85 -11.9" fill="url(#gradient0)" fill-rule="evenodd" stroke="none"/>
  </g>
  <defs>
    <radialGradient cx="0" cy="0" gradientTransform="matrix(0.0902, 0.0, 0.0, 0.1311, 0.0, 0.0)" gradientUnits="userSpaceOnUse" id="gradient0" r="819.2" spreadMethod="pad">
      <stop offset="0.0" stop-color="#000000"/>
      <stop offset="0.0" stop-color="#e817a5"/>
      <stop offset="0.8862745098039215" stop-color="#1f0318"/>
    </radialGradient>
  </defs>
</svg>
