<?xml version="1.0" encoding="UTF-8" standalone="no"?>
<svg xmlns:xlink="http://www.w3.org/1999/xlink" height="17.5px" width="18.0px" xmlns="http://www.w3.org/2000/svg">
  <g transform="matrix(1.0, 0.0, 0.0, 1.0, 9.0, 6.5)">
    <path d="M8.0 -5.5 L2.0 -4.5 0.0 1.5 -2.0 -4.5 -8.0 -5.5" fill="none" stroke="#000000" stroke-linecap="round" stroke-linejoin="round" stroke-opacity="0.2" stroke-width="2.0"/>
    <path d="M0.0 -1.0 Q0.25 -1.0 1.15 -2.5 L2.0 -4.0 2.0 2.0 -2.0 2.0 -2.0 -4.0 -1.15 -2.5 Q-0.25 -1.0 0.0 -1.0" fill="#000000" fill-rule="evenodd" stroke="none"/>
    <path d="M0.0 1.65 L0.65 1.1 Q1.4 -0.25 2.0 -4.0 L8.0 -6.0 7.0 7.0 0.0 11.0 0.0 1.65" fill="url(#gradient0)" fill-rule="evenodd" stroke="none"/>
    <path d="M0.0 1.65 L0.0 11.0 -7.0 7.0 -8.0 -6.0 -2.0 -4.0 Q-1.4 -0.25 -0.65 1.1 L0.0 1.65" fill="url(#gradient1)" fill-rule="evenodd" stroke="none"/>
    <path d="M5.6 -5.15 L6.6 -5.5 5.65 7.8 4.6 8.4 5.6 -5.15" fill="url(#gradient2)" fill-rule="evenodd" stroke="none"/>
    <path d="M-6.6 -5.5 L-5.55 -5.15 -4.6 8.4 -5.65 7.8 -6.6 -5.5" fill="url(#gradient3)" fill-rule="evenodd" stroke="none"/>
  </g>
  <defs>
    <linearGradient gradientTransform="matrix(0.0099, 0.003, -0.0023, 0.0075, 5.0, -0.7)" gradientUnits="userSpaceOnUse" id="gradient0" spreadMethod="pad" x1="-819.2" x2="819.2">
      <stop offset="0.11372549019607843" stop-color="#cdcdcd"/>
      <stop offset="0.37254901960784315" stop-color="#a3a3a3"/>
      <stop offset="0.5725490196078431" stop-color="#717171"/>
      <stop offset="0.7568627450980392" stop-color="#4a4a4a"/>
    </linearGradient>
    <linearGradient gradientTransform="matrix(0.0062, -0.0067, 0.0058, 0.0052, -0.25, 6.7)" gradientUnits="userSpaceOnUse" id="gradient1" spreadMethod="pad" x1="-819.2" x2="819.2">
      <stop offset="0.050980392156862744" stop-color="#717171"/>
      <stop offset="0.3137254901960784" stop-color="#1c1c1c"/>
      <stop offset="0.7529411764705882" stop-color="#515151"/>
    </linearGradient>
    <linearGradient gradientTransform="matrix(-1.0E-4, 0.0095, -0.0099, -2.0E-4, 5.6, 1.4)" gradientUnits="userSpaceOnUse" id="gradient2" spreadMethod="pad" x1="-819.2" x2="819.2">
      <stop offset="0.0" stop-color="#dc1446"/>
      <stop offset="0.984313725490196" stop-color="#b81d53"/>
    </linearGradient>
    <linearGradient gradientTransform="matrix(1.0E-4, 0.0095, 0.0099, -2.0E-4, -5.6, 1.4)" gradientUnits="userSpaceOnUse" id="gradient3" spreadMethod="pad" x1="-819.2" x2="819.2">
      <stop offset="0.00392156862745098" stop-color="#b7154f"/>
      <stop offset="0.984313725490196" stop-color="#731335"/>
    </linearGradient>
  </defs>
</svg>
