<?xml version="1.0" encoding="UTF-8" standalone="no"?>
<svg xmlns:xlink="http://www.w3.org/1999/xlink" height="42.85px" width="20.2px" xmlns="http://www.w3.org/2000/svg">
  <g transform="matrix(1.0, 0.0, 0.0, 1.0, 10.05, -32.15)">
    <path d="M2.45 44.75 Q1.8 44.1 0.0 44.0 -1.8 44.1 -2.45 44.75 -3.05 45.35 -3.0 47.0 L-4.0 47.0 Q-5.3 44.0 -7.0 43.0 -7.0 40.55 -4.75 38.75 -2.65 37.0 0.0 37.0 2.65 37.0 4.75 38.75 7.0 40.55 7.0 43.0 5.3 44.0 4.0 47.0 L3.0 47.0 Q3.1 45.35 2.45 44.75" fill="url(#gradient0)" fill-rule="evenodd" stroke="none"/>
    <path d="M0.1 37.0 L4.15 35.9 Q5.35 35.25 5.5 33.25 L10.15 32.15 9.0 39.0 Q6.8 40.1 5.0 42.0 3.2 40.05 0.1 40.0 L0.1 37.0" fill="url(#gradient1)" fill-rule="evenodd" stroke="none"/>
    <path d="M0.1 37.0 L0.1 40.0 0.0 40.0 Q-3.1 40.05 -4.9 42.0 -6.7 40.1 -8.9 39.0 L-10.05 32.15 -5.4 33.25 Q-5.25 35.25 -4.05 35.9 -3.25 36.35 0.0 37.0 L0.1 37.0" fill="url(#gradient2)" fill-rule="evenodd" stroke="none"/>
    <path d="M0.0 44.65 Q-1.55 44.75 -2.15 45.35 -2.75 45.95 -2.7 47.6 L-3.7 47.6 -3.95 47.0 -3.0 47.0 Q-3.05 45.35 -2.45 44.75 -1.8 44.1 0.0 44.0 1.8 44.1 2.45 44.75 3.1 45.35 3.0 47.0 L4.0 47.0 3.7 47.6 2.7 47.6 Q2.75 45.95 2.15 45.35 1.55 44.75 0.0 44.65 M4.0 67.0 L-4.0 67.0 -4.0 66.0 4.0 66.0 4.0 67.0 M4.0 64.0 L-4.0 64.0 -4.0 63.0 4.0 63.0 4.0 64.0 M6.0 75.0 L-6.0 75.0 -6.0 74.0 6.0 74.0 6.0 75.0" fill="#000000" fill-opacity="0.2509804" fill-rule="evenodd" stroke="none"/>
    <path d="M0.0 40.0 Q3.15 40.0 5.0 42.0 6.8 40.1 9.0 39.0 L10.0 33.2 10.15 33.15 9.0 40.0 Q6.8 41.1 5.0 43.0 3.15 41.0 0.0 41.0 -3.15 41.0 -5.0 43.0 -6.8 41.1 -9.0 40.0 L-10.0 34.0 -9.8 34.0 -9.0 39.0 Q-6.8 40.1 -5.0 42.0 -3.15 40.0 0.0 40.0" fill="#181818" fill-opacity="0.2509804" fill-rule="evenodd" stroke="none"/>
  </g>
  <defs>
    <radialGradient cx="0" cy="0" gradientTransform="matrix(0.0088, 0.0, 0.0, 0.0305, 0.0, 40.0)" gradientUnits="userSpaceOnUse" id="gradient0" r="819.2" spreadMethod="pad">
      <stop offset="0.0196078431372549" stop-color="#f8f8f8"/>
      <stop offset="0.1450980392156863" stop-color="#d8d8d8"/>
      <stop offset="0.34509803921568627" stop-color="#bbbbbb"/>
      <stop offset="0.5019607843137255" stop-color="#8a8a8a"/>
      <stop offset="0.6549019607843137" stop-color="#6d6d6d"/>
      <stop offset="0.7764705882352941" stop-color="#9f9f9f"/>
      <stop offset="0.9137254901960784" stop-color="#ababab"/>
      <stop offset="0.9607843137254902" stop-color="#c2c2c2"/>
    </radialGradient>
    <linearGradient gradientTransform="matrix(0.0061, 0.0, 0.0, 0.0055, 5.0, 37.5)" gradientUnits="userSpaceOnUse" id="gradient1" spreadMethod="pad" x1="-819.2" x2="819.2">
      <stop offset="0.12156862745098039" stop-color="#ffffff"/>
      <stop offset="0.2980392156862745" stop-color="#cdcdcd"/>
      <stop offset="0.8196078431372549" stop-color="#666666"/>
      <stop offset="0.9803921568627451" stop-color="#7b7b7b"/>
    </linearGradient>
    <linearGradient gradientTransform="matrix(-0.0061, 0.0, 0.0, 0.0055, -4.9, 37.5)" gradientUnits="userSpaceOnUse" id="gradient2" spreadMethod="pad" x1="-819.2" x2="819.2">
      <stop offset="0.050980392156862744" stop-color="#b0b0b0"/>
      <stop offset="0.2823529411764706" stop-color="#919191"/>
      <stop offset="1.0" stop-color="#d5d5d5"/>
    </linearGradient>
  </defs>
</svg>
