<?xml version="1.0" encoding="UTF-8" standalone="no"?>
<svg xmlns:xlink="http://www.w3.org/1999/xlink" height="55.0px" width="81.0px" xmlns="http://www.w3.org/2000/svg">
  <g transform="matrix(1.0, 0.0, 0.0, 1.0, 40.5, 27.5)">
    <path d="M40.5 -20.0 L40.5 20.0 Q40.5 27.5 33.0 27.5 L-33.0 27.5 Q-40.5 27.5 -40.5 20.0 L-40.5 -20.0 Q-40.5 -27.5 -33.0 -27.5 L33.0 -27.5 Q40.5 -27.5 40.5 -20.0" fill="#000000" fill-rule="evenodd" stroke="none"/>
    <path d="M38.0 -20.0 L38.0 20.0 Q38.0 25.0 33.0 25.0 L-33.0 25.0 Q-38.0 25.0 -38.0 20.0 L-38.0 -20.0 Q-38.0 -25.0 -33.0 -25.0 L33.0 -25.0 Q38.0 -25.0 38.0 -20.0" fill="url(#gradient0)" fill-rule="evenodd" stroke="none"/>
  </g>
  <defs>
    <linearGradient gradientTransform="matrix(-0.0402, -0.0404, 0.0216, -0.0215, 0.0, 0.0)" gradientUnits="userSpaceOnUse" id="gradient0" spreadMethod="pad" x1="-819.2" x2="819.2">
      <stop offset="0.0" stop-color="#dbdbdb"/>
      <stop offset="0.23137254901960785" stop-color="#cacaca"/>
      <stop offset="1.0" stop-color="#ffffff"/>
    </linearGradient>
  </defs>
</svg>
