<?xml version="1.0" encoding="UTF-8" standalone="no"?>
<svg xmlns:xlink="http://www.w3.org/1999/xlink" height="24.3px" width="30.2px" xmlns="http://www.w3.org/2000/svg">
  <g transform="matrix(1.0, 0.0, 0.0, 1.0, 15.1, 12.15)">
    <path d="M13.65 -3.3 Q11.7 -0.55 8.0 0.15 L7.4 0.25 Q10.15 1.4 9.95 4.4 9.75 7.3 7.3 8.05 7.95 8.8 8.3 10.25 8.75 12.1 7.95 12.15 7.35 12.2 7.05 11.6 6.75 11.05 6.95 10.15 7.25 8.3 6.4 8.3 4.0 8.35 1.85 4.45 0.15 1.35 0.0 -1.05 -0.15 1.35 -1.85 4.45 -4.0 8.35 -6.4 8.3 -7.25 8.3 -6.95 10.15 -6.75 11.05 -7.05 11.6 -7.35 12.2 -7.95 12.15 -8.75 12.1 -8.3 10.25 -7.95 8.8 -7.3 8.05 -9.75 7.3 -9.95 4.4 -10.15 1.4 -7.4 0.25 L-8.0 0.15 Q-11.7 -0.55 -13.65 -3.3 -15.5 -5.85 -15.0 -8.85 -14.75 -10.5 -13.3 -11.45 -11.55 -12.65 -9.0 -11.85 -5.05 -10.65 -3.3 -5.05 L-2.15 -2.05 Q-1.4 -1.05 0.0 -1.85 1.4 -1.05 2.15 -2.05 L3.3 -5.05 Q5.05 -10.65 9.0 -11.85 11.55 -12.65 13.3 -11.45 14.75 -10.5 15.0 -8.85 15.5 -5.85 13.65 -3.3" fill="#ffffff" fill-rule="evenodd" stroke="none"/>
  </g>
</svg>
