<?xml version="1.0" encoding="UTF-8" standalone="no"?>
<svg xmlns:xlink="http://www.w3.org/1999/xlink" height="50.0px" width="76.0px" xmlns="http://www.w3.org/2000/svg">
  <g transform="matrix(1.0, 0.0, 0.0, 1.0, 38.0, 25.0)">
    <path d="M0.0 -1.0 Q1.4 -0.2 2.15 -1.2 L3.3 -4.2 Q5.05 -9.8 9.0 -11.0 11.55 -11.8 13.3 -10.6 14.75 -9.65 15.0 -8.0 15.5 -5.0 13.65 -2.45 11.7 0.3 8.0 1.0 L7.4 1.1 Q10.15 2.25 9.95 5.25 9.75 8.15 7.3 8.9 7.95 9.65 8.3 11.1 8.75 12.95 7.95 13.0 7.35 13.05 7.05 12.45 6.75 11.9 6.95 11.0 7.25 9.15 6.4 9.15 4.0 9.2 1.85 5.3 0.15 2.2 0.0 -0.2 L0.0 -1.0" fill="url(#gradient0)" fill-rule="evenodd" stroke="none"/>
    <path d="M0.0 -0.2 Q-0.15 2.2 -1.85 5.3 -4.0 9.2 -6.4 9.15 -7.25 9.15 -6.95 11.0 -6.75 11.9 -7.05 12.45 -7.35 13.05 -7.95 13.0 -8.75 12.95 -8.3 11.1 -7.95 9.65 -7.3 8.9 -9.75 8.15 -9.95 5.25 -10.15 2.25 -7.4 1.1 L-8.0 1.0 Q-11.7 0.3 -13.65 -2.45 -15.5 -5.0 -15.0 -8.0 -14.75 -9.65 -13.3 -10.6 -11.55 -11.8 -9.0 -11.0 -5.05 -9.8 -3.3 -4.2 L-2.15 -1.2 Q-1.4 -0.2 0.0 -1.0 L0.0 -0.2" fill="url(#gradient1)" fill-rule="evenodd" stroke="none"/>
    <path d="M-8.9 -25.0 L-38.0 4.1 -38.0 -12.9 -25.9 -25.0 -8.9 -25.0" fill="url(#gradient2)" fill-rule="evenodd" stroke="none"/>
    <path d="M8.9 25.0 L38.0 -4.1 38.0 12.9 25.9 25.0 8.9 25.0" fill="url(#gradient3)" fill-rule="evenodd" stroke="none"/>
    <path d="M-38.0 -10.1 L-23.1 -25.0 -20.2 -25.0 -38.0 -7.2 -38.0 -10.1" fill="url(#gradient4)" fill-rule="evenodd" stroke="none"/>
    <path d="M-11.8 -25.0 L-38.0 1.2 -38.0 -1.6 -14.6 -25.0 -11.8 -25.0" fill="url(#gradient5)" fill-rule="evenodd" stroke="none"/>
    <path d="M11.8 25.0 L38.0 -1.2 38.0 1.6 14.6 25.0 11.8 25.0" fill="url(#gradient6)" fill-rule="evenodd" stroke="none"/>
    <path d="M38.0 10.1 L23.1 25.0 20.3 25.0 38.0 7.3 38.0 10.1" fill="url(#gradient7)" fill-rule="evenodd" stroke="none"/>
  </g>
  <defs>
    <linearGradient gradientTransform="matrix(0.0376, 0.0359, -0.0102, 0.0107, -4.25, 4.45)" gradientUnits="userSpaceOnUse" id="gradient0" spreadMethod="pad" x1="-819.2" x2="819.2">
      <stop offset="0.0" stop-color="#6b9ffe"/>
      <stop offset="0.29411764705882354" stop-color="#0f5fff"/>
      <stop offset="1.0" stop-color="#0352bc"/>
    </linearGradient>
    <linearGradient gradientTransform="matrix(-0.0376, 0.0359, 0.0102, 0.0107, 4.25, 4.45)" gradientUnits="userSpaceOnUse" id="gradient1" spreadMethod="pad" x1="-819.2" x2="819.2">
      <stop offset="0.0" stop-color="#6b9ffe"/>
      <stop offset="0.29411764705882354" stop-color="#0f5fff"/>
      <stop offset="1.0" stop-color="#0352bc"/>
    </linearGradient>
    <linearGradient gradientTransform="matrix(0.0392, 0.0361, -0.012, 0.013, 3.7, -4.0)" gradientUnits="userSpaceOnUse" id="gradient2" spreadMethod="pad" x1="-819.2" x2="819.2">
      <stop offset="0.0" stop-color="#6b9ffe"/>
      <stop offset="0.29411764705882354" stop-color="#0f5fff"/>
      <stop offset="1.0" stop-color="#01379a"/>
    </linearGradient>
    <linearGradient gradientTransform="matrix(0.0424, 0.0321, -0.0107, 0.0141, 4.05, -5.35)" gradientUnits="userSpaceOnUse" id="gradient3" spreadMethod="pad" x1="-819.2" x2="819.2">
      <stop offset="0.0" stop-color="#6b9ffe"/>
      <stop offset="0.29411764705882354" stop-color="#0f5fff"/>
      <stop offset="1.0" stop-color="#0253e8"/>
    </linearGradient>
    <linearGradient gradientTransform="matrix(0.0474, 0.0276, -0.0054, 0.0094, -0.55, 0.95)" gradientUnits="userSpaceOnUse" id="gradient4" spreadMethod="pad" x1="-819.2" x2="819.2">
      <stop offset="0.0" stop-color="#decfb6"/>
      <stop offset="0.29411764705882354" stop-color="#c1a876"/>
      <stop offset="0.8" stop-color="#c1a876"/>
      <stop offset="1.0" stop-color="#c1a876"/>
    </linearGradient>
    <linearGradient gradientTransform="matrix(0.0469, 0.026, -0.0078, 0.014, 0.1, -0.2)" gradientUnits="userSpaceOnUse" id="gradient5" spreadMethod="pad" x1="-819.2" x2="819.2">
      <stop offset="0.0" stop-color="#decfb6"/>
      <stop offset="0.29411764705882354" stop-color="#c1a876"/>
      <stop offset="0.8" stop-color="#c1a876"/>
      <stop offset="1.0" stop-color="#c1a876"/>
    </linearGradient>
    <linearGradient gradientTransform="matrix(0.0411, 0.0338, -0.0101, 0.0123, -2.45, 3.0)" gradientUnits="userSpaceOnUse" id="gradient6" spreadMethod="pad" x1="-819.2" x2="819.2">
      <stop offset="0.0" stop-color="#decfb6"/>
      <stop offset="0.29411764705882354" stop-color="#c1a876"/>
      <stop offset="0.8" stop-color="#c4aa7b"/>
      <stop offset="1.0" stop-color="#c1a876"/>
    </linearGradient>
    <linearGradient gradientTransform="matrix(0.045, 0.029, -0.0058, 0.0091, 0.2, -0.3)" gradientUnits="userSpaceOnUse" id="gradient7" spreadMethod="pad" x1="-819.2" x2="819.2">
      <stop offset="0.0" stop-color="#decfb6"/>
      <stop offset="0.29411764705882354" stop-color="#c1a876"/>
      <stop offset="0.8" stop-color="#c4aa7b"/>
      <stop offset="1.0" stop-color="#c1a876"/>
    </linearGradient>
  </defs>
</svg>
