<?xml version="1.0" encoding="UTF-8" standalone="no"?>
<svg xmlns:xlink="http://www.w3.org/1999/xlink" height="22.0px" width="329.85px" xmlns="http://www.w3.org/2000/svg">
  <g transform="matrix(1.0, 0.0, 0.0, 1.0, 165.9, 6.05)">
    <path d="M-163.9 13.95 L-163.9 10.85 Q-88.1 -4.05 -0.95 -4.05 86.2 -4.05 161.95 10.85 L161.95 13.95 Q86.2 -1.05 -0.95 -1.05 -88.15 -1.05 -163.9 13.95" fill="url(#gradient0)" fill-rule="evenodd" stroke="none"/>
    <path d="M-163.9 13.95 Q-88.15 -1.05 -0.95 -1.05 86.2 -1.05 161.95 13.95 L161.95 10.85 Q86.2 -4.05 -0.95 -4.05 -88.1 -4.05 -163.9 10.85 L-163.9 13.95 Z" fill="none" stroke="#000000" stroke-linecap="round" stroke-linejoin="round" stroke-width="4.0"/>
    <path d="M-163.9 13.95 L-163.9 10.85 Q-88.1 -4.05 -0.95 -4.05 86.2 -4.05 161.95 10.85 L161.95 13.95 Q86.2 -1.05 -0.95 -1.05 -88.15 -1.05 -163.9 13.95" fill="url(#gradient1)" fill-rule="evenodd" stroke="none"/>
  </g>
  <defs>
    <linearGradient gradientTransform="matrix(0.1989, 0.0, 0.0, 0.011, -1.0, 4.95)" gradientUnits="userSpaceOnUse" id="gradient0" spreadMethod="pad" x1="-819.2" x2="819.2">
      <stop offset="0.0" stop-color="#959595"/>
      <stop offset="0.19607843137254902" stop-color="#ffffff"/>
      <stop offset="0.5058823529411764" stop-color="#ffffff"/>
      <stop offset="0.8274509803921568" stop-color="#ffffff"/>
      <stop offset="1.0" stop-color="#959595"/>
    </linearGradient>
    <linearGradient gradientTransform="matrix(0.1989, 0.0, 0.0, 0.011, -1.0, 4.95)" gradientUnits="userSpaceOnUse" id="gradient1" spreadMethod="pad" x1="-819.2" x2="819.2">
      <stop offset="0.0" stop-color="#959595"/>
      <stop offset="0.19607843137254902" stop-color="#ffffff"/>
      <stop offset="0.5058823529411764" stop-color="#ffffff"/>
      <stop offset="0.8274509803921568" stop-color="#ffffff"/>
      <stop offset="1.0" stop-color="#959595"/>
    </linearGradient>
  </defs>
</svg>
