<?xml version="1.0" encoding="UTF-8" standalone="no"?>
<svg xmlns:xlink="http://www.w3.org/1999/xlink" height="137.9px" width="43.0px" xmlns="http://www.w3.org/2000/svg">
  <g transform="matrix(1.0, 0.0, 0.0, 1.0, 21.5, 66.5)">
    <path d="M2.75 -65.75 Q3.5 -65.05 3.5 -64.0 L3.5 -40.95 3.75 -40.75 Q4.5 -40.05 4.5 -39.0 L4.5 -38.45 Q5.0 -37.85 5.0 -37.0 L5.0 -34.0 4.9 -33.25 Q5.45 -31.9 6.2 -30.85 6.95 -29.8 7.65 -29.4 8.25 -29.25 8.75 -28.75 9.5 -28.05 9.5 -27.0 L9.5 -25.0 Q9.5 -23.95 8.75 -23.25 L8.5 -23.0 8.5 21.05 8.75 21.25 Q9.45 21.85 9.5 22.8 10.05 24.7 6.65 26.55 L6.55 26.6 6.55 26.85 Q8.75 25.5 11.5 25.5 15.65 25.5 18.55 28.45 21.5 31.35 21.5 35.5 21.5 39.65 18.55 42.55 15.65 45.5 11.5 45.5 7.35 45.5 4.45 42.55 L4.0 43.45 3.5 44.0 3.5 50.2 5.15 52.65 5.7 53.2 7.05 54.35 Q10.0 57.25 10.0 61.4 10.0 65.55 7.05 68.45 4.15 71.4 0.0 71.4 -4.15 71.4 -7.05 68.45 -10.0 65.55 -10.0 61.4 -10.0 57.25 -7.05 54.35 L-5.65 53.2 -5.1 52.65 -3.5 50.2 -3.5 44.0 -3.95 43.45 -4.45 42.55 Q-7.35 45.5 -11.5 45.5 -15.65 45.5 -18.55 42.55 -21.5 39.65 -21.5 35.5 -21.5 31.35 -18.55 28.45 -15.65 25.5 -11.5 25.5 -8.75 25.5 -6.5 26.85 L-6.5 26.6 -6.6 26.55 -6.65 26.55 Q-10.0 24.7 -9.5 22.8 -9.45 21.9 -8.75 21.25 L-8.6 21.15 -8.5 21.05 -8.5 -23.0 -8.75 -23.25 Q-9.5 -23.95 -9.5 -25.0 L-9.5 -27.0 Q-9.5 -28.05 -8.75 -28.75 -8.25 -29.25 -7.6 -29.4 L-6.2 -30.85 Q-5.45 -31.9 -4.9 -33.25 L-5.0 -34.0 -5.0 -37.0 Q-5.0 -37.85 -4.5 -38.45 L-4.5 -39.0 Q-4.5 -40.05 -3.75 -40.75 L-3.5 -40.95 -3.5 -62.0 Q-3.5 -63.05 -2.75 -63.75 L-0.75 -65.75 Q-0.05 -66.5 1.0 -66.5 2.05 -66.5 2.75 -65.75 M11.55 32.4 Q10.25 32.4 9.3 33.3 8.4 34.25 8.4 35.55 8.4 36.85 9.3 37.75 10.25 38.65 11.55 38.65 12.85 38.65 13.75 37.75 14.65 36.85 14.65 35.55 14.65 34.25 13.75 33.3 12.85 32.4 11.55 32.4 M2.25 59.2 Q1.35 58.3 0.05 58.3 -1.25 58.3 -2.2 59.2 -3.1 60.15 -3.1 61.45 -3.1 62.75 -2.2 63.65 -1.25 64.55 0.05 64.55 1.35 64.55 2.25 63.65 3.15 62.75 3.15 61.45 3.15 60.15 2.25 59.2 M5.0 22.0 L5.0 -23.0 -5.0 -23.0 -5.0 22.0 5.0 22.0 M-9.25 33.3 Q-10.15 32.4 -11.45 32.4 -12.75 32.4 -13.7 33.3 -14.6 34.25 -14.6 35.55 -14.6 36.85 -13.7 37.75 -12.75 38.65 -11.45 38.65 -10.15 38.65 -9.25 37.75 -8.35 36.85 -8.35 35.55 -8.35 34.25 -9.25 33.3" fill="#000000" fill-rule="evenodd" stroke="none"/>
    <path d="M5.3 56.1 Q7.5 58.3 7.5 61.4 7.5 64.5 5.3 66.7 3.1 68.9 0.0 68.9 -3.1 68.9 -5.3 66.7 -7.5 64.5 -7.5 61.4 -7.5 58.3 -5.3 56.1 -3.1 53.9 0.0 53.9 3.1 53.9 5.3 56.1 M5.65 61.45 Q5.65 59.1 4.0 57.45 2.35 55.8 0.05 55.8 -2.3 55.8 -3.95 57.45 -5.6 59.1 -5.6 61.45 -5.6 63.75 -3.95 65.4 -2.3 67.05 0.05 67.05 2.35 67.05 4.0 65.4 5.65 63.75 5.65 61.45" fill="url(#gradient0)" fill-rule="evenodd" stroke="none"/>
    <path d="M4.0 -3.0 L-5.0 -3.0 -5.0 -21.0 4.0 -21.0 4.0 -3.0" fill="#f9f822" fill-rule="evenodd" stroke="none"/>
    <path d="M1.0 53.0 L-1.0 53.0 -1.0 4.0 1.0 4.0 1.0 53.0" fill="url(#gradient1)" fill-rule="evenodd" stroke="none"/>
    <path d="M1.9 -19.25 Q1.4 -20.25 0.0 -20.25 -1.4 -20.25 -1.85 -19.25 L-1.9 -19.25 -2.25 -17.0 -2.25 22.0 -2.45 22.55 Q-2.7 22.75 -3.0 22.75 -3.3 22.75 -3.5 22.55 L-3.75 22.0 -3.75 -17.0 Q-3.7 -19.1 -3.2 -19.95 L-3.2 -19.9 Q-2.4 -21.75 0.0 -21.75 2.4 -21.75 3.25 -19.9 L3.2 -19.95 Q3.7 -19.1 3.75 -17.0 L3.75 22.0 3.55 22.55 3.0 22.75 2.5 22.55 2.25 22.0 2.25 -16.95 1.9 -19.25" fill="#000000" fill-opacity="0.2" fill-rule="evenodd" stroke="none"/>
    <path d="M0.0 -21.0 Q1.9 -21.0 2.55 -19.6 2.95 -18.85 3.0 -17.0 L3.0 22.0 -3.0 22.0 -3.0 -17.0 Q-2.95 -18.85 -2.55 -19.6 -1.9 -21.0 0.0 -21.0" fill="url(#gradient2)" fill-rule="evenodd" stroke="none"/>
    <path d="M1.3 -22.6 L1.5 -20.0 1.5 19.0 -1.5 19.0 -1.5 -20.0 -1.25 -22.6 Q-0.95 -24.0 0.0 -24.0 0.95 -24.0 1.3 -22.6" fill="url(#gradient3)" fill-rule="evenodd" stroke="none"/>
    <path d="M3.0 1.0 L3.0 3.0 -3.0 3.0 -3.0 1.0 3.0 1.0" fill="url(#gradient4)" fill-rule="evenodd" stroke="none"/>
    <path d="M-3.0 1.0 L-3.0 -3.0 3.0 -3.0 3.0 1.0 -3.0 1.0" fill="url(#gradient5)" fill-rule="evenodd" stroke="none"/>
    <path d="M3.0 3.0 L2.0 4.0 -2.0 4.0 -3.0 3.0 3.0 3.0" fill="url(#gradient6)" fill-rule="evenodd" stroke="none"/>
    <path d="M2.5 -37.0 L2.5 -34.0 0.0 -34.0 -2.5 -34.0 -2.5 -37.0 0.0 -37.0 2.5 -37.0" fill="url(#gradient7)" fill-rule="evenodd" stroke="none"/>
    <path d="M0.0 26.0 L4.0 26.0 Q4.05 29.35 4.5 30.5 4.85 31.25 6.0 32.0 L6.0 34.0 -6.0 34.0 -6.0 32.0 Q-4.85 31.25 -4.5 30.5 -4.05 29.35 -4.0 26.0 L0.0 26.0" fill="url(#gradient8)" fill-rule="evenodd" stroke="none"/>
    <path d="M-1.0 -39.0 L-1.0 -62.0 1.0 -64.0 1.0 -39.0 -1.0 -39.0" fill="url(#gradient9)" fill-rule="evenodd" stroke="none"/>
    <path d="M-6.9 -27.0 Q-5.55 -27.45 -4.2 -29.35 -2.8 -31.3 -2.0 -34.0 L0.0 -34.0 2.0 -34.0 Q2.8 -31.3 4.2 -29.35 5.55 -27.45 6.9 -27.0 L-6.9 -27.0" fill="url(#gradient10)" fill-rule="evenodd" stroke="none"/>
    <path d="M1.0 -39.0 L2.0 -39.0 2.0 -37.0 -2.0 -37.0 -2.0 -39.0 -1.0 -39.0 1.0 -39.0" fill="url(#gradient11)" fill-rule="evenodd" stroke="none"/>
    <path d="M6.9 -27.0 L7.0 -27.0 7.0 -25.0 6.0 -25.0 -6.0 -25.0 -7.0 -25.0 -7.0 -27.0 -6.9 -27.0 6.9 -27.0" fill="url(#gradient12)" fill-rule="evenodd" stroke="none"/>
    <path d="M6.0 -25.0 L6.0 22.0 3.0 22.0 3.0 -17.0 Q2.95 -18.85 2.55 -19.6 1.9 -21.0 0.0 -21.0 -1.9 -21.0 -2.55 -19.6 -2.95 -18.85 -3.0 -17.0 L-3.0 22.0 -6.0 22.0 -6.0 -25.0 6.0 -25.0" fill="url(#gradient13)" fill-rule="evenodd" stroke="none"/>
    <path d="M6.0 22.0 Q6.9 22.0 7.0 23.0 L-7.0 23.0 Q-6.9 22.0 -6.0 22.0 L-3.0 22.0 3.0 22.0 6.0 22.0" fill="url(#gradient14)" fill-rule="evenodd" stroke="none"/>
    <path d="M7.0 23.0 Q7.0 23.5 5.5 24.3 4.0 25.1 4.0 26.0 L0.0 26.0 -4.0 26.0 Q-4.0 25.1 -5.5 24.3 -7.0 23.5 -7.0 23.0 L7.0 23.0" fill="url(#gradient15)" fill-rule="evenodd" stroke="none"/>
    <path d="M-3.0 37.0 L-5.0 37.0 -5.0 34.0 -2.0 34.0 Q-2.0 33.25 -1.5 32.65 -0.95 32.0 0.0 32.0 0.95 32.0 1.5 32.65 2.0 33.25 2.0 34.0 L5.0 34.0 5.0 37.0 3.0 37.0 -3.0 37.0" fill="url(#gradient16)" fill-rule="evenodd" stroke="none"/>
    <path d="M3.0 37.0 L2.0 41.0 -2.0 41.0 -3.0 37.0 3.0 37.0" fill="url(#gradient17)" fill-rule="evenodd" stroke="none"/>
    <path d="M2.0 41.0 L2.0 42.0 -2.0 42.0 -2.0 41.0 2.0 41.0" fill="url(#gradient18)" fill-rule="evenodd" stroke="none"/>
    <path d="M-3.0 54.0 L-1.0 51.0 1.0 51.0 3.0 54.0 -3.0 54.0" fill="url(#gradient19)" fill-rule="evenodd" stroke="none"/>
    <path d="M3.0 54.0 L4.0 55.0 -4.0 55.0 -3.0 54.0 3.0 54.0" fill="url(#gradient20)" fill-rule="evenodd" stroke="none"/>
    <path d="M0.0 31.75 Q1.1 31.75 1.7 32.5 2.15 33.05 2.25 33.75 L4.45 33.75 4.45 34.25 2.0 34.25 1.85 34.2 1.75 34.0 Q1.75 33.35 1.3 32.8 0.8 32.25 0.0 32.25 -0.8 32.25 -1.3 32.8 -1.75 33.35 -1.75 34.0 L-1.8 34.2 -2.0 34.25 -4.25 34.25 -4.25 33.75 -2.25 33.75 Q-2.15 33.05 -1.7 32.5 -1.1 31.75 0.0 31.75 M0.35 33.15 L0.5 33.5 0.35 33.85 0.0 34.0 -0.35 33.85 -0.5 33.5 -0.35 33.15 0.0 33.0 0.35 33.15" fill="#000000" fill-opacity="0.4" fill-rule="evenodd" stroke="none"/>
    <path d="M19.0 35.5 Q19.0 38.6 16.8 40.8 14.6 43.0 11.5 43.0 8.4 43.0 6.2 40.8 4.0 38.6 4.0 35.5 4.0 32.4 6.2 30.2 8.4 28.0 11.5 28.0 14.6 28.0 16.8 30.2 19.0 32.4 19.0 35.5 M17.15 35.55 Q17.15 33.2 15.5 31.55 13.85 29.9 11.55 29.9 9.2 29.9 7.55 31.55 5.9 33.2 5.9 35.55 5.9 37.85 7.55 39.5 9.2 41.15 11.55 41.15 13.85 41.15 15.5 39.5 17.15 37.85 17.15 35.55" fill="url(#gradient21)" fill-rule="evenodd" stroke="none"/>
    <path d="M-5.85 35.55 Q-5.85 33.2 -7.5 31.55 -9.15 29.9 -11.45 29.9 -13.8 29.9 -15.45 31.55 -17.1 33.2 -17.1 35.55 -17.1 37.85 -15.45 39.5 -13.8 41.15 -11.45 41.15 -9.15 41.15 -7.5 39.5 -5.85 37.85 -5.85 35.55 M-4.0 35.5 Q-4.0 38.6 -6.2 40.8 -8.4 43.0 -11.5 43.0 -14.6 43.0 -16.8 40.8 -19.0 38.6 -19.0 35.5 -19.0 32.4 -16.8 30.2 -14.6 28.0 -11.5 28.0 -8.4 28.0 -6.2 30.2 -4.0 32.4 -4.0 35.5" fill="url(#gradient22)" fill-rule="evenodd" stroke="none"/>
    <path d="M6.0 -24.0 L-6.0 -24.0 -6.0 -25.0 6.0 -25.0 6.0 -24.0 M3.0 -33.0 L-3.0 -33.0 -3.0 -34.0 3.0 -34.0 3.0 -33.0 M-3.0 37.0 L3.0 37.0 3.0 38.0 -3.0 38.0 -3.0 37.0 M-4.5 25.0 L4.5 25.0 Q4.0 25.5 4.0 26.0 L-4.0 26.0 Q-4.0 25.5 -4.5 25.0 M-6.0 21.0 L6.0 21.0 6.0 22.0 -6.0 22.0 -6.0 21.0" fill="#000000" fill-opacity="0.2" fill-rule="evenodd" stroke="none"/>
    <path d="M-1.0 4.0 L1.0 4.0 1.0 5.0 -1.0 5.0 -1.0 4.0" fill="url(#gradient23)" fill-rule="evenodd" stroke="none"/>
  </g>
  <defs>
    <linearGradient gradientTransform="matrix(0.0092, 0.0, 0.0, 0.0092, 0.0, 61.4)" gradientUnits="userSpaceOnUse" id="gradient0" spreadMethod="pad" x1="-819.2" x2="819.2">
      <stop offset="0.0" stop-color="#7a775a"/>
      <stop offset="0.0784313725490196" stop-color="#646346"/>
      <stop offset="0.30980392156862746" stop-color="#b8b39c"/>
      <stop offset="0.3607843137254902" stop-color="#d1cec2"/>
      <stop offset="0.6588235294117647" stop-color="#d2d0c1"/>
      <stop offset="0.7137254901960784" stop-color="#b6b69e"/>
      <stop offset="0.9215686274509803" stop-color="#646346"/>
      <stop offset="1.0" stop-color="#7a775a"/>
    </linearGradient>
    <linearGradient gradientTransform="matrix(0.0012, 0.0, 0.0, 0.0104, 0.0, 13.5)" gradientUnits="userSpaceOnUse" id="gradient1" spreadMethod="pad" x1="-819.2" x2="819.2">
      <stop offset="0.0" stop-color="#1c1c1c"/>
      <stop offset="0.5098039215686274" stop-color="#aaaaaa"/>
      <stop offset="1.0" stop-color="#383838"/>
    </linearGradient>
    <linearGradient gradientTransform="matrix(0.0037, 0.0, 0.0, 0.0262, 0.0, 0.5)" gradientUnits="userSpaceOnUse" id="gradient2" spreadMethod="pad" x1="-819.2" x2="819.2">
      <stop offset="0.00392156862745098" stop-color="#ffffff" stop-opacity="0.101960786"/>
      <stop offset="0.5333333333333333" stop-color="#ffffff" stop-opacity="0.2"/>
      <stop offset="1.0" stop-color="#ffffff" stop-opacity="0.101960786"/>
    </linearGradient>
    <radialGradient cx="0" cy="0" fx="758.4000000000001" fy="0" gradientTransform="matrix(0.0, -0.0251, 0.0039, 0.0, 0.1, -3.8)" gradientUnits="userSpaceOnUse" id="gradient3" r="819.2" spreadMethod="pad">
      <stop offset="0.023529411764705882" stop-color="#ffffff" stop-opacity="0.7019608"/>
      <stop offset="0.5058823529411764" stop-color="#ffffff" stop-opacity="0.0"/>
    </radialGradient>
    <linearGradient gradientTransform="matrix(0.0037, 0.0, 0.0, 0.0012, 0.0, 2.0)" gradientUnits="userSpaceOnUse" id="gradient4" spreadMethod="pad" x1="-819.2" x2="819.2">
      <stop offset="0.0" stop-color="#1c1c1c"/>
      <stop offset="0.49411764705882355" stop-color="#aaaaaa"/>
      <stop offset="0.9137254901960784" stop-color="#2e2e2e"/>
    </linearGradient>
    <linearGradient gradientTransform="matrix(0.0037, 0.0, 0.0, 0.0024, 0.0, -1.0)" gradientUnits="userSpaceOnUse" id="gradient5" spreadMethod="pad" x1="-819.2" x2="819.2">
      <stop offset="0.0" stop-color="#000000"/>
      <stop offset="0.5019607843137255" stop-color="#515151"/>
      <stop offset="1.0" stop-color="#000000"/>
    </linearGradient>
    <linearGradient gradientTransform="matrix(0.0037, 0.0, 0.0, 6.0E-4, 0.0, 3.5)" gradientUnits="userSpaceOnUse" id="gradient6" spreadMethod="pad" x1="-819.2" x2="819.2">
      <stop offset="0.0" stop-color="#181818"/>
      <stop offset="0.49411764705882355" stop-color="#8a8a8a"/>
      <stop offset="1.0" stop-color="#1c1c1c"/>
    </linearGradient>
    <linearGradient gradientTransform="matrix(0.0031, 0.0, 0.0, 0.0018, 0.0, -35.5)" gradientUnits="userSpaceOnUse" id="gradient7" spreadMethod="pad" x1="-819.2" x2="819.2">
      <stop offset="0.0" stop-color="#7a775a"/>
      <stop offset="0.0784313725490196" stop-color="#646346"/>
      <stop offset="0.34901960784313724" stop-color="#b8b39c"/>
      <stop offset="0.4117647058823529" stop-color="#d1cec2"/>
      <stop offset="0.5843137254901961" stop-color="#d2d0c1"/>
      <stop offset="0.6588235294117647" stop-color="#b6b69e"/>
      <stop offset="0.9215686274509803" stop-color="#646346"/>
      <stop offset="1.0" stop-color="#7a775a"/>
    </linearGradient>
    <linearGradient gradientTransform="matrix(0.0073, 0.0, 0.0, 0.0049, 0.0, 30.0)" gradientUnits="userSpaceOnUse" id="gradient8" spreadMethod="pad" x1="-819.2" x2="819.2">
      <stop offset="0.0" stop-color="#7a775a"/>
      <stop offset="0.0784313725490196" stop-color="#646346"/>
      <stop offset="0.30980392156862746" stop-color="#b8b39c"/>
      <stop offset="0.3607843137254902" stop-color="#d1cec2"/>
      <stop offset="0.6588235294117647" stop-color="#d2d0c1"/>
      <stop offset="0.7137254901960784" stop-color="#b6b69e"/>
      <stop offset="0.9215686274509803" stop-color="#646346"/>
      <stop offset="1.0" stop-color="#7a775a"/>
    </linearGradient>
    <linearGradient gradientTransform="matrix(0.0012, 0.0, 0.0, 0.0153, 0.0, -51.5)" gradientUnits="userSpaceOnUse" id="gradient9" spreadMethod="pad" x1="-819.2" x2="819.2">
      <stop offset="0.0" stop-color="#757575"/>
      <stop offset="0.5098039215686274" stop-color="#ffffff"/>
      <stop offset="1.0" stop-color="#989898"/>
    </linearGradient>
    <radialGradient cx="0" cy="0" gradientTransform="matrix(0.0073, 0.0, 0.0, 0.0182, 0.0, -34.0)" gradientUnits="userSpaceOnUse" id="gradient10" r="819.2" spreadMethod="pad">
      <stop offset="0.11764705882352941" stop-color="#bab99a"/>
      <stop offset="0.8392156862745098" stop-color="#656545"/>
      <stop offset="1.0" stop-color="#575744"/>
    </radialGradient>
    <linearGradient gradientTransform="matrix(0.0024, 0.0, 0.0, 0.0012, 0.0, -38.0)" gradientUnits="userSpaceOnUse" id="gradient11" spreadMethod="pad" x1="-819.2" x2="819.2">
      <stop offset="0.0" stop-color="#7a775a"/>
      <stop offset="0.0784313725490196" stop-color="#646346"/>
      <stop offset="0.34901960784313724" stop-color="#b8b39c"/>
      <stop offset="0.4117647058823529" stop-color="#d1cec2"/>
      <stop offset="0.5843137254901961" stop-color="#d2d0c1"/>
      <stop offset="0.6588235294117647" stop-color="#b6b69e"/>
      <stop offset="0.9215686274509803" stop-color="#646346"/>
      <stop offset="1.0" stop-color="#7a775a"/>
    </linearGradient>
    <linearGradient gradientTransform="matrix(0.0085, 0.0, 0.0, 0.0012, 0.0, -26.0)" gradientUnits="userSpaceOnUse" id="gradient12" spreadMethod="pad" x1="-819.2" x2="819.2">
      <stop offset="0.0" stop-color="#7a775a"/>
      <stop offset="0.0784313725490196" stop-color="#646346"/>
      <stop offset="0.30980392156862746" stop-color="#b8b39c"/>
      <stop offset="0.3607843137254902" stop-color="#d1cec2"/>
      <stop offset="0.6588235294117647" stop-color="#d2d0c1"/>
      <stop offset="0.7137254901960784" stop-color="#b6b69e"/>
      <stop offset="0.9215686274509803" stop-color="#646346"/>
      <stop offset="1.0" stop-color="#7a775a"/>
    </linearGradient>
    <linearGradient gradientTransform="matrix(0.0073, 0.0, 0.0, 0.0287, 0.0, -1.5)" gradientUnits="userSpaceOnUse" id="gradient13" spreadMethod="pad" x1="-819.2" x2="819.2">
      <stop offset="0.0" stop-color="#7a775a"/>
      <stop offset="0.0784313725490196" stop-color="#646346"/>
      <stop offset="0.30980392156862746" stop-color="#b8b39c"/>
      <stop offset="0.3607843137254902" stop-color="#d1cec2"/>
      <stop offset="0.6588235294117647" stop-color="#d2d0c1"/>
      <stop offset="0.7137254901960784" stop-color="#b6b69e"/>
      <stop offset="0.9215686274509803" stop-color="#646346"/>
      <stop offset="1.0" stop-color="#7a775a"/>
    </linearGradient>
    <linearGradient gradientTransform="matrix(0.0085, 0.0, 0.0, 6.0E-4, 0.0, 22.5)" gradientUnits="userSpaceOnUse" id="gradient14" spreadMethod="pad" x1="-819.2" x2="819.2">
      <stop offset="0.0" stop-color="#7a775a"/>
      <stop offset="0.0784313725490196" stop-color="#646346"/>
      <stop offset="0.30980392156862746" stop-color="#b8b39c"/>
      <stop offset="0.3607843137254902" stop-color="#d1cec2"/>
      <stop offset="0.6588235294117647" stop-color="#d2d0c1"/>
      <stop offset="0.7137254901960784" stop-color="#b6b69e"/>
      <stop offset="0.9215686274509803" stop-color="#646346"/>
      <stop offset="1.0" stop-color="#7a775a"/>
    </linearGradient>
    <linearGradient gradientTransform="matrix(0.0085, 0.0, 0.0, 0.0018, 0.0, 24.5)" gradientUnits="userSpaceOnUse" id="gradient15" spreadMethod="pad" x1="-819.2" x2="819.2">
      <stop offset="0.0" stop-color="#5b5746"/>
      <stop offset="0.0784313725490196" stop-color="#57543e"/>
      <stop offset="0.34509803921568627" stop-color="#a29980"/>
      <stop offset="0.40784313725490196" stop-color="#bfbbaa"/>
      <stop offset="0.6078431372549019" stop-color="#bfbbaa"/>
      <stop offset="0.6705882352941176" stop-color="#9b9b80"/>
      <stop offset="0.9215686274509803" stop-color="#57543e"/>
      <stop offset="1.0" stop-color="#5b5746"/>
    </linearGradient>
    <linearGradient gradientTransform="matrix(0.0061, 0.0, 0.0, 0.0031, 0.0, 34.5)" gradientUnits="userSpaceOnUse" id="gradient16" spreadMethod="pad" x1="-819.2" x2="819.2">
      <stop offset="0.0" stop-color="#7a775a"/>
      <stop offset="0.0784313725490196" stop-color="#646346"/>
      <stop offset="0.30980392156862746" stop-color="#b8b39c"/>
      <stop offset="0.3607843137254902" stop-color="#d1cec2"/>
      <stop offset="0.6588235294117647" stop-color="#d2d0c1"/>
      <stop offset="0.7137254901960784" stop-color="#b6b69e"/>
      <stop offset="0.9215686274509803" stop-color="#646346"/>
      <stop offset="1.0" stop-color="#7a775a"/>
    </linearGradient>
    <linearGradient gradientTransform="matrix(0.0037, 0.0, 0.0, 0.0024, 0.0, 39.0)" gradientUnits="userSpaceOnUse" id="gradient17" spreadMethod="pad" x1="-819.2" x2="819.2">
      <stop offset="0.0" stop-color="#7a775a"/>
      <stop offset="0.0784313725490196" stop-color="#646346"/>
      <stop offset="0.30980392156862746" stop-color="#b8b39c"/>
      <stop offset="0.3607843137254902" stop-color="#d1cec2"/>
      <stop offset="0.6588235294117647" stop-color="#d2d0c1"/>
      <stop offset="0.7137254901960784" stop-color="#b6b69e"/>
      <stop offset="0.9215686274509803" stop-color="#646346"/>
      <stop offset="1.0" stop-color="#7a775a"/>
    </linearGradient>
    <linearGradient gradientTransform="matrix(0.0024, 0.0, 0.0, 6.0E-4, 0.0, 41.5)" gradientUnits="userSpaceOnUse" id="gradient18" spreadMethod="pad" x1="-819.2" x2="819.2">
      <stop offset="0.0" stop-color="#7a775a"/>
      <stop offset="0.0784313725490196" stop-color="#646346"/>
      <stop offset="0.30980392156862746" stop-color="#b8b39c"/>
      <stop offset="0.3607843137254902" stop-color="#d1cec2"/>
      <stop offset="0.6588235294117647" stop-color="#d2d0c1"/>
      <stop offset="0.7137254901960784" stop-color="#b6b69e"/>
      <stop offset="0.9215686274509803" stop-color="#646346"/>
      <stop offset="1.0" stop-color="#7a775a"/>
    </linearGradient>
    <linearGradient gradientTransform="matrix(0.0037, 0.0, 0.0, 0.0018, 0.0, 52.5)" gradientUnits="userSpaceOnUse" id="gradient19" spreadMethod="pad" x1="-819.2" x2="819.2">
      <stop offset="0.0" stop-color="#7a775a"/>
      <stop offset="0.0784313725490196" stop-color="#646346"/>
      <stop offset="0.30980392156862746" stop-color="#b8b39c"/>
      <stop offset="0.3607843137254902" stop-color="#d1cec2"/>
      <stop offset="0.6588235294117647" stop-color="#d2d0c1"/>
      <stop offset="0.7137254901960784" stop-color="#b6b69e"/>
      <stop offset="0.9215686274509803" stop-color="#646346"/>
      <stop offset="1.0" stop-color="#7a775a"/>
    </linearGradient>
    <linearGradient gradientTransform="matrix(0.0049, 0.0, 0.0, 6.0E-4, 0.0, 54.5)" gradientUnits="userSpaceOnUse" id="gradient20" spreadMethod="pad" x1="-819.2" x2="819.2">
      <stop offset="0.0" stop-color="#5b5746"/>
      <stop offset="0.0784313725490196" stop-color="#57543e"/>
      <stop offset="0.34509803921568627" stop-color="#a29980"/>
      <stop offset="0.40784313725490196" stop-color="#bfbbaa"/>
      <stop offset="0.6078431372549019" stop-color="#bfbbaa"/>
      <stop offset="0.6705882352941176" stop-color="#9b9b80"/>
      <stop offset="0.9215686274509803" stop-color="#57543e"/>
      <stop offset="1.0" stop-color="#5b5746"/>
    </linearGradient>
    <linearGradient gradientTransform="matrix(0.0092, 0.0, 0.0, 0.0092, 11.5, 35.5)" gradientUnits="userSpaceOnUse" id="gradient21" spreadMethod="pad" x1="-819.2" x2="819.2">
      <stop offset="0.0" stop-color="#7a775a"/>
      <stop offset="0.0784313725490196" stop-color="#646346"/>
      <stop offset="0.30980392156862746" stop-color="#b8b39c"/>
      <stop offset="0.3607843137254902" stop-color="#d1cec2"/>
      <stop offset="0.6588235294117647" stop-color="#d2d0c1"/>
      <stop offset="0.7137254901960784" stop-color="#b6b69e"/>
      <stop offset="0.9215686274509803" stop-color="#646346"/>
      <stop offset="1.0" stop-color="#7a775a"/>
    </linearGradient>
    <linearGradient gradientTransform="matrix(0.0092, 0.0, 0.0, 0.0092, -11.5, 35.5)" gradientUnits="userSpaceOnUse" id="gradient22" spreadMethod="pad" x1="-819.2" x2="819.2">
      <stop offset="0.0" stop-color="#7a775a"/>
      <stop offset="0.0784313725490196" stop-color="#646346"/>
      <stop offset="0.30980392156862746" stop-color="#b8b39c"/>
      <stop offset="0.3607843137254902" stop-color="#d1cec2"/>
      <stop offset="0.6588235294117647" stop-color="#d2d0c1"/>
      <stop offset="0.7137254901960784" stop-color="#b6b69e"/>
      <stop offset="0.9215686274509803" stop-color="#646346"/>
      <stop offset="1.0" stop-color="#7a775a"/>
    </linearGradient>
    <linearGradient gradientTransform="matrix(0.0012, 0.0, 0.0, 6.0E-4, 0.0, 4.5)" gradientUnits="userSpaceOnUse" id="gradient23" spreadMethod="pad" x1="-819.2" x2="819.2">
      <stop offset="0.0" stop-color="#181818"/>
      <stop offset="0.49411764705882355" stop-color="#8a8a8a"/>
      <stop offset="1.0" stop-color="#1c1c1c"/>
    </linearGradient>
  </defs>
</svg>
