<?xml version="1.0" encoding="UTF-8" standalone="no"?>
<svg xmlns:xlink="http://www.w3.org/1999/xlink" height="184.0px" width="448.0px" xmlns="http://www.w3.org/2000/svg">
  <g transform="matrix(1.0, 0.0, 0.0, 1.0, 0.0, -416.0)">
    <path d="M310.0 416.0 Q312.0 416.0 312.0 418.0 L312.0 542.0 Q312.0 544.0 310.0 544.0 L0.0 544.0 0.0 416.0 310.0 416.0" fill="#ced0d1" fill-opacity="0.101960786" fill-rule="evenodd" stroke="none"/>
    <path d="M320.0 418.0 Q320.0 416.0 322.0 416.0 L446.0 416.0 Q448.0 416.0 448.0 418.0 L448.0 542.0 Q448.0 544.0 446.0 544.0 L322.0 544.0 Q320.0 544.0 320.0 542.0 L320.0 418.0" fill="#506164" fill-opacity="0.3019608" fill-rule="evenodd" stroke="none"/>
    <path d="M312.0 421.0 L63.0 421.0 51.0 433.0 0.0 433.0 0.0 417.0 312.0 417.0 312.0 421.0 M312.0 464.0 L141.0 464.0 Q139.0 464.0 139.0 462.0 L139.0 451.0 Q139.0 449.0 141.0 449.0 L312.0 449.0 312.0 464.0 M0.0 528.0 L0.0 513.0 126.0 513.0 Q128.0 513.0 128.0 515.0 L128.0 526.0 Q128.0 528.0 126.0 528.0 L0.0 528.0 M128.0 462.0 Q128.0 464.0 126.0 464.0 L0.0 464.0 0.0 449.0 126.0 449.0 Q128.0 449.0 128.0 451.0 L128.0 462.0 M128.0 483.0 L128.0 494.0 Q128.0 496.0 126.0 496.0 L0.0 496.0 0.0 481.0 126.0 481.0 Q128.0 481.0 128.0 483.0" fill="#2b2526" fill-rule="evenodd" stroke="none"/>
    <path d="M312.0 420.0 L63.0 420.0 51.0 432.0 0.0 432.0 0.0 416.0 312.0 416.0 312.0 420.0 M312.0 463.0 L141.0 463.0 Q139.0 463.0 139.0 461.0 L139.0 450.0 Q139.0 448.0 141.0 448.0 L312.0 448.0 312.0 463.0 M0.0 527.0 L0.0 512.0 126.0 512.0 Q128.0 512.0 128.0 514.0 L128.0 525.0 Q128.0 527.0 126.0 527.0 L0.0 527.0 M126.0 480.0 Q128.0 480.0 128.0 482.0 L128.0 493.0 Q128.0 495.0 126.0 495.0 L0.0 495.0 0.0 480.0 126.0 480.0 M126.0 448.0 Q128.0 448.0 128.0 450.0 L128.0 461.0 Q128.0 463.0 126.0 463.0 L0.0 463.0 0.0 448.0 126.0 448.0" fill="#7d7678" fill-rule="evenodd" stroke="none"/>
    <path d="M0.0 600.0 L0.0 576.0 446.0 576.0 Q448.0 576.0 448.0 578.0 L448.0 598.0 Q448.0 600.0 446.0 600.0 L0.0 600.0" fill="#0d809c" fill-rule="evenodd" stroke="none"/>
  </g>
</svg>
