<?xml version="1.0" encoding="UTF-8" standalone="no"?>
<svg xmlns:xlink="http://www.w3.org/1999/xlink" height="111.0px" width="109.0px" xmlns="http://www.w3.org/2000/svg">
  <g transform="matrix(1.0, 0.0, 0.0, 1.0, 54.5, 55.5)">
    <path d="M53.8 -49.75 Q54.5 -49.05 54.5 -48.0 L54.5 44.0 54.45 44.5 53.25 50.55 Q53.1 51.4 52.4 52.0 51.7 52.55 50.8 52.55 L38.8 52.5 -49.9 55.5 Q-50.95 55.55 -51.7 54.85 -52.5 54.1 -52.5 53.05 L-54.5 -37.95 Q-54.5 -38.95 -53.8 -39.7 -53.1 -40.45 -52.1 -40.5 L-46.9 -40.7 -46.5 -53.05 Q-46.45 -54.1 -45.7 -54.8 -44.95 -55.55 -43.9 -55.5 L45.1 -52.5 Q46.1 -52.45 46.8 -51.75 L47.45 -50.5 52.0 -50.5 Q53.05 -50.5 53.8 -49.75" fill="#000000" fill-rule="evenodd" stroke="none"/>
    <path d="M36.0 50.0 L36.0 49.0 51.0 49.0 50.8 50.05 36.0 50.0" fill="url(#gradient0)" fill-rule="evenodd" stroke="none"/>
    <path d="M51.0 49.0 L48.0 49.0 -40.0 49.0 -40.0 44.0 46.0 44.0 51.0 49.0" fill="url(#gradient1)" fill-rule="evenodd" stroke="none"/>
    <path d="M50.55 44.0 L52.0 44.0 51.0 49.0 49.8 49.0 50.55 44.0" fill="url(#gradient2)" fill-rule="evenodd" stroke="none"/>
    <path d="M50.0 48.0 L-3.0 48.0 -3.0 46.0 -38.0 46.0 -38.0 44.0 50.0 44.0 50.0 48.0" fill="url(#gradient3)" fill-rule="evenodd" stroke="none"/>
    <path d="M51.0 42.0 L50.0 48.0 48.0 48.0 49.0 42.0 51.0 42.0" fill="#000000" fill-rule="evenodd" stroke="none"/>
    <path d="M38.15 51.55 L38.15 46.05 40.5 46.05 40.5 50.0 Q40.5 50.6 40.1 51.05 39.65 51.5 39.05 51.5 L38.15 51.55" fill="#000000" fill-opacity="0.2" fill-rule="evenodd" stroke="none"/>
    <path d="M-52.0 -38.0 L39.0 -42.0 39.0 44.0 -38.0 44.0 -38.0 46.0 39.0 46.0 39.0 50.0 -50.0 53.0 -52.0 -38.0" fill="url(#gradient4)" fill-rule="evenodd" stroke="none"/>
    <path d="M51.8 45.0 L-40.0 45.0 -40.0 44.0 52.0 44.0 51.8 45.0" fill="url(#gradient5)" fill-rule="evenodd" stroke="none"/>
    <path d="M46.1 -51.05 Q46.5 -50.6 46.5 -50.0 L46.5 42.0 46.3 42.8 45.75 43.35 44.95 43.5 -47.05 40.5 Q-47.65 40.5 -48.1 40.05 -48.5 39.55 -48.5 38.95 L-45.5 -53.05 Q-45.5 -53.65 -45.0 -54.1 -44.55 -54.5 -43.95 -54.5 L45.05 -51.5 Q45.65 -51.5 46.1 -51.05" fill="#000000" fill-opacity="0.2" fill-rule="evenodd" stroke="none"/>
    <path d="M-44.0 -53.0 L45.0 -50.0 45.0 42.0 -47.0 39.0 -44.0 -53.0" fill="url(#gradient6)" fill-rule="evenodd" stroke="none"/>
    <path d="M52.0 -48.0 L52.0 44.0 48.0 44.0 -40.0 44.0 -40.0 -48.0 52.0 -48.0" fill="url(#gradient7)" fill-rule="evenodd" stroke="none"/>
    <path d="M49.0 -48.0 L49.0 44.0 48.0 44.0 48.0 -48.0 49.0 -48.0" fill="#ffffff" fill-opacity="0.101960786" fill-rule="evenodd" stroke="none"/>
    <path d="M48.0 -48.0 L48.0 44.0 47.0 44.0 47.0 -48.0 48.0 -48.0" fill="#000000" fill-opacity="0.2" fill-rule="evenodd" stroke="none"/>
    <path d="M37.9 -2.0 Q37.85 -16.05 27.95 -25.95 18.05 -35.85 4.0 -35.85 -10.05 -35.85 -19.95 -25.95 -29.85 -16.05 -29.85 -2.0 -29.85 12.05 -19.95 21.95 -10.05 31.85 4.0 31.9 18.05 31.85 27.95 21.95 37.85 12.05 37.9 -2.0 M28.15 -26.15 Q38.15 -16.15 38.15 -2.0 38.15 12.15 28.15 22.15 18.15 32.15 4.0 32.15 -10.15 32.15 -20.15 22.15 -30.15 12.15 -30.1 -2.0 -30.15 -16.15 -20.15 -26.15 -10.15 -36.15 4.0 -36.1 18.15 -36.15 28.15 -26.15 M39.9 -2.0 Q39.85 -16.85 29.35 -27.35 18.85 -37.85 4.0 -37.85 -10.85 -37.85 -21.35 -27.35 -31.85 -16.85 -31.85 -2.0 -31.85 12.85 -21.35 23.35 -10.85 33.85 4.0 33.9 18.85 33.85 29.35 23.35 39.85 12.85 39.9 -2.0 M29.55 -27.55 Q40.15 -16.95 40.15 -2.0 40.15 12.95 29.55 23.55 18.95 34.15 4.0 34.15 -10.95 34.15 -21.55 23.55 -32.15 12.95 -32.1 -2.0 -32.15 -16.95 -21.55 -27.55 -10.95 -38.15 4.0 -38.1 18.95 -38.15 29.55 -27.55 M35.9 -2.0 Q35.85 -15.2 26.5 -24.55 17.2 -33.85 4.0 -33.85 -9.2 -33.85 -18.55 -24.55 -27.85 -15.2 -27.85 -2.0 -27.85 11.2 -18.55 20.5 -9.2 29.85 4.0 29.9 17.2 29.85 26.5 20.5 35.85 11.2 35.9 -2.0 M26.7 -24.75 Q36.15 -15.3 36.15 -2.0 36.15 11.3 26.7 20.7 17.3 30.15 4.0 30.15 -9.3 30.15 -18.75 20.7 -28.15 11.3 -28.1 -2.0 -28.15 -15.3 -18.75 -24.75 -9.3 -34.15 4.0 -34.1 17.3 -34.15 26.7 -24.75 M25.3 -23.35 Q34.15 -14.5 34.15 -2.0 34.15 10.5 25.3 19.3 16.5 28.15 4.0 28.15 -8.5 28.15 -17.35 19.3 -26.15 10.5 -26.1 -2.0 -26.15 -14.5 -17.35 -23.35 -8.5 -32.15 4.0 -32.1 16.5 -32.15 25.3 -23.35 M33.9 -2.0 Q33.85 -14.4 25.1 -23.15 16.4 -31.85 4.0 -31.85 -8.4 -31.85 -17.15 -23.15 -25.85 -14.4 -25.85 -2.0 -25.85 10.4 -17.15 19.1 -8.4 27.85 4.0 27.9 16.4 27.85 25.1 19.1 33.85 10.4 33.9 -2.0" fill="#a02525" fill-rule="evenodd" stroke="none"/>
    <path d="M-3.85 27.05 L-3.8 26.95 -3.7 26.95 -3.65 27.0 -3.6 27.1 -5.15 32.9 -5.2 32.95 -5.3 33.0 -5.4 32.95 -5.4 32.85 -3.85 27.05 M-22.05 13.05 L-21.95 13.05 -21.9 13.1 -21.85 13.2 -21.9 13.25 -27.1 16.25 -27.2 16.3 -27.3 16.25 -27.3 16.15 -27.25 16.05 -22.05 13.05 M-24.9 5.85 L-24.95 5.9 -30.75 7.45 -30.85 7.4 -30.9 7.35 -30.9 7.25 -30.8 7.2 -25.0 5.65 -24.9 5.65 -24.85 5.75 -24.9 5.85 M-11.0 23.85 L-10.9 23.85 -10.85 23.95 -10.9 24.05 -13.9 29.25 -13.95 29.3 -14.05 29.25 -14.1 29.2 -14.1 29.1 -11.1 23.9 -11.0 23.85 M-17.1 19.25 L-17.15 19.35 -21.4 23.6 -21.5 23.65 -21.6 23.6 -21.6 23.5 -21.55 23.4 -17.3 19.15 -17.25 19.15 -17.15 19.2 -17.1 19.25 M-32.0 -1.85 L-32.1 -1.9 -32.1 -2.0 -32.1 -2.1 -32.0 -2.1 -26.0 -2.1 -25.9 -2.1 -25.85 -2.0 -25.9 -1.9 -26.0 -1.85 -32.0 -1.85 M-30.75 -11.05 L-30.85 -11.15 -30.85 -11.2 -30.8 -11.3 -30.7 -11.3 -24.9 -9.75 -24.85 -9.7 -24.8 -9.6 -24.9 -9.55 -24.95 -9.5 -30.75 -11.05 M-27.25 -20.0 L-27.25 -20.1 -27.15 -20.15 -27.05 -20.15 -21.85 -17.15 -21.8 -17.05 -21.85 -16.95 -21.9 -16.9 -22.0 -16.95 -27.2 -19.95 -27.25 -20.0 M-21.55 -27.35 L-21.55 -27.45 -21.55 -27.55 -21.45 -27.55 -21.35 -27.55 -17.15 -23.35 -17.1 -23.25 -17.15 -23.15 -17.25 -23.1 -17.35 -23.15 -21.55 -27.35 M-3.8 -30.95 L-3.85 -31.0 -5.4 -36.7 -5.4 -36.8 -5.3 -36.85 -5.25 -36.85 -5.15 -36.75 -3.6 -31.05 -3.65 -31.0 -3.7 -30.9 -3.8 -30.95 M-14.05 -33.05 L-14.0 -33.15 -13.9 -33.15 -13.85 -33.1 -10.9 -27.95 -10.85 -27.85 -10.9 -27.8 -11.0 -27.75 -11.1 -27.8 -14.05 -32.95 -14.05 -33.05 M3.9 28.0 L3.9 27.9 4.0 27.9 4.1 27.9 4.15 28.0 4.15 34.0 4.1 34.1 4.0 34.15 3.9 34.1 3.9 34.0 3.9 28.0 M11.65 26.9 L11.75 26.85 11.8 26.85 11.9 26.95 13.5 32.75 13.45 32.8 13.4 32.9 13.3 32.85 13.25 32.8 11.65 27.0 11.65 26.9 M18.9 24.15 L18.9 24.05 18.95 23.95 19.05 23.95 19.1 24.0 22.1 29.2 22.15 29.3 22.1 29.35 22.0 29.4 21.9 29.35 18.9 24.15 M25.1 19.2 L25.1 19.1 25.2 19.1 25.3 19.1 29.55 23.35 29.6 23.45 29.55 23.55 29.45 23.6 29.35 23.55 25.1 19.3 25.1 19.2 M29.95 13.05 L29.9 13.0 29.9 12.9 30.0 12.85 30.1 12.85 35.3 15.85 35.35 15.95 35.3 16.05 35.25 16.1 35.15 16.05 29.95 13.05 M32.95 6.0 L32.85 5.9 32.85 5.85 32.9 5.75 33.0 5.75 38.8 7.3 38.85 7.35 38.9 7.45 38.8 7.5 38.75 7.55 32.95 6.0 M34.0 -1.85 L33.9 -1.9 33.9 -2.0 33.9 -2.1 34.0 -2.1 40.0 -2.1 40.1 -2.1 40.15 -2.0 40.1 -1.9 40.0 -1.85 34.0 -1.85 M38.8 -11.4 L38.9 -11.4 38.95 -11.3 38.9 -11.2 38.85 -11.15 33.0 -9.65 32.9 -9.7 32.85 -9.75 32.85 -9.85 32.95 -9.9 38.8 -11.4 M35.3 -19.85 L35.25 -19.8 30.05 -16.8 29.95 -16.75 29.85 -16.8 29.85 -16.9 29.9 -17.0 35.1 -20.0 35.2 -20.0 35.25 -19.95 35.3 -19.85 M13.25 -36.6 L13.3 -36.7 13.4 -36.7 13.45 -36.65 13.5 -36.55 11.9 -30.8 11.8 -30.75 11.75 -30.7 11.65 -30.8 11.65 -30.85 13.25 -36.6 M3.9 -38.0 L3.9 -38.1 4.0 -38.1 4.1 -38.1 4.15 -38.0 4.15 -32.0 4.1 -31.9 4.0 -31.85 3.9 -31.9 3.9 -32.0 3.9 -38.0 M22.0 -33.3 L22.1 -33.3 22.15 -33.2 22.1 -33.1 19.1 -27.9 19.05 -27.85 18.95 -27.9 18.9 -27.95 18.9 -28.05 21.9 -33.25 22.0 -33.3 M29.6 -27.45 L29.55 -27.35 25.3 -23.1 25.2 -23.05 25.1 -23.1 25.1 -23.2 25.15 -23.3 29.4 -27.55 29.45 -27.55 29.55 -27.5 29.6 -27.45" fill="#a02525" fill-rule="evenodd" stroke="none"/>
  </g>
  <defs>
    <linearGradient gradientTransform="matrix(-1.0E-4, -0.0067, 6.0E-4, 0.0, 43.5, 49.5)" gradientUnits="userSpaceOnUse" id="gradient0" spreadMethod="pad" x1="-819.2" x2="819.2">
      <stop offset="0.0" stop-color="#302f33"/>
      <stop offset="1.0" stop-color="#262626"/>
    </linearGradient>
    <linearGradient gradientTransform="matrix(0.0, -0.0031, 0.0031, 0.0, 6.0, 46.5)" gradientUnits="userSpaceOnUse" id="gradient1" spreadMethod="pad" x1="-819.2" x2="819.2">
      <stop offset="0.0" stop-color="#383838"/>
      <stop offset="0.3333333333333333" stop-color="#232323"/>
    </linearGradient>
    <linearGradient gradientTransform="matrix(0.0, -0.0019, 0.0018, 0.0, 51.5, 46.5)" gradientUnits="userSpaceOnUse" id="gradient2" spreadMethod="pad" x1="-819.2" x2="819.2">
      <stop offset="0.0" stop-color="#2b2a2c"/>
      <stop offset="1.0" stop-color="#1c1c1d"/>
    </linearGradient>
    <linearGradient gradientTransform="matrix(0.0, -0.0024, 0.0024, 0.0, 6.0, 46.0)" gradientUnits="userSpaceOnUse" id="gradient3" spreadMethod="pad" x1="-819.2" x2="819.2">
      <stop offset="0.0" stop-color="#464646"/>
      <stop offset="0.5647058823529412" stop-color="#3c3c3c"/>
      <stop offset="0.615686274509804" stop-color="#313131"/>
    </linearGradient>
    <linearGradient gradientTransform="matrix(-0.0022, -0.0555, 0.0579, -0.0023, -6.5, 5.5)" gradientUnits="userSpaceOnUse" id="gradient4" spreadMethod="pad" x1="-819.2" x2="819.2">
      <stop offset="0.0" stop-color="#555555"/>
      <stop offset="0.08627450980392157" stop-color="#464646"/>
      <stop offset="1.0" stop-color="#4a4e51"/>
    </linearGradient>
    <linearGradient gradientTransform="matrix(0.0, -7.0E-4, 6.0E-4, 0.0, 6.0, 44.5)" gradientUnits="userSpaceOnUse" id="gradient5" spreadMethod="pad" x1="-819.2" x2="819.2">
      <stop offset="0.0" stop-color="#1f2021"/>
      <stop offset="1.0" stop-color="#1c1c1c"/>
    </linearGradient>
    <linearGradient gradientTransform="matrix(0.0015, -0.0561, 0.058, 0.0015, -1.0, -5.5)" gradientUnits="userSpaceOnUse" id="gradient6" spreadMethod="pad" x1="-819.2" x2="819.2">
      <stop offset="0.26666666666666666" stop-color="#535657"/>
      <stop offset="1.0" stop-color="#6a6a6a"/>
    </linearGradient>
    <linearGradient gradientTransform="matrix(0.0, -0.0562, 0.0562, 0.0, 6.0, -2.0)" gradientUnits="userSpaceOnUse" id="gradient7" spreadMethod="pad" x1="-819.2" x2="819.2">
      <stop offset="0.011764705882352941" stop-color="#262626"/>
      <stop offset="0.25098039215686274" stop-color="#2b2b31"/>
      <stop offset="0.6901960784313725" stop-color="#302d35"/>
      <stop offset="1.0" stop-color="#3e3e42"/>
    </linearGradient>
  </defs>
</svg>
