<?xml version="1.0" encoding="UTF-8" standalone="no"?>
<svg xmlns:xlink="http://www.w3.org/1999/xlink" height="39.65px" width="30.5px" xmlns="http://www.w3.org/2000/svg">
  <g transform="matrix(1.0, 0.0, 0.0, 1.0, 15.5, 20.1)">
    <path d="M14.1 -17.15 Q15.0 -16.25 15.0 -15.0 15.0 -13.75 14.15 -12.9 L14.1 -12.85 Q13.25 -12.0 12.05 -12.0 13.3 -12.0 14.1 -11.15 15.0 -10.25 15.0 -9.0 15.0 -7.75 14.15 -6.9 L14.1 -6.85 Q13.25 -6.0 12.05 -6.0 13.3 -6.0 14.1 -5.15 15.0 -4.25 15.0 -3.0 15.0 -1.75 14.15 -0.9 L14.1 -0.85 Q13.25 0.0 12.0 0.0 10.75 0.0 9.85 -0.9 9.0 -1.7 9.0 -3.0 9.0 -4.25 9.85 -5.1 L9.9 -5.15 Q10.75 -6.0 11.95 -6.0 10.75 -6.0 9.85 -6.9 9.35 -7.4 9.15 -8.1 L9.1 -6.7 Q8.85 -2.2 6.9 1.5 L6.9 1.45 Q3.8 7.4 -2.15 12.5 -8.1 17.65 -14.2 19.5 L-14.9 19.45 -15.4 18.95 Q-15.6 18.6 -15.45 18.25 L-14.95 17.7 Q-6.8 13.2 -2.25 6.0 L-2.25 5.95 Q1.6 -0.05 2.0 -6.05 2.3 -10.4 0.9 -13.2 L0.95 -13.15 Q-0.55 -15.95 -3.3 -15.45 -5.8 -15.05 -7.15 -12.6 L-7.4 -12.1 -5.7 -12.4 Q-3.5 -12.4 -1.95 -10.9 -0.35 -9.3 -0.35 -7.1 -0.35 -4.85 -1.95 -3.35 L-1.9 -3.4 Q-3.45 -1.8 -5.7 -1.8 -7.85 -1.8 -9.4 -3.35 L-9.45 -3.4 Q-10.3 -4.2 -10.7 -5.3 -11.85 -7.65 -11.7 -10.4 -11.55 -13.45 -9.75 -15.6 -5.45 -21.0 0.55 -19.9 6.05 -19.0 7.95 -14.35 8.85 -12.15 9.05 -9.55 9.2 -10.45 9.85 -11.1 L9.9 -11.15 Q10.75 -12.0 11.95 -12.0 10.75 -12.0 9.85 -12.9 9.0 -13.7 9.0 -15.0 9.0 -16.25 9.85 -17.1 L9.9 -17.15 Q10.75 -18.0 12.0 -18.0 13.3 -18.0 14.1 -17.15 M-8.1 -11.8 L-8.15 -11.75 -7.8 -11.55 -7.9 -11.75 -8.1 -11.8" fill="#000000" fill-opacity="0.15294118" fill-rule="evenodd" stroke="none"/>
    <path d="M7.0 -14.0 Q8.3 -10.8 8.1 -6.75 7.85 -2.5 6.0 1.0 3.0 6.8 -2.8 11.75 -8.6 16.75 -14.5 18.55 -6.1 13.95 -1.4 6.5 2.6 0.25 3.0 -6.0 3.3 -10.65 1.8 -13.65 0.0 -17.1 -3.5 -16.45 -6.45 -15.95 -8.05 -13.1 -8.65 -12.0 -8.55 -11.3 -8.5 -10.6 -7.7 -10.95 L-7.7 -10.9 -5.7 -11.4 Q-3.9 -11.4 -2.65 -10.2 -1.35 -8.9 -1.35 -7.1 -1.35 -5.3 -2.65 -4.1 -3.9 -2.8 -5.7 -2.8 -7.45 -2.8 -8.75 -4.1 -9.5 -4.8 -9.8 -5.75 -10.85 -7.85 -10.7 -10.35 -10.55 -13.05 -9.0 -15.0 -5.05 -19.9 0.35 -18.95 5.3 -18.1 7.0 -14.0" fill="url(#gradient0)" fill-rule="evenodd" stroke="none"/>
    <path d="M13.4 -13.6 Q12.85 -13.0 12.0 -13.0 11.15 -13.0 10.55 -13.6 10.0 -14.15 10.0 -15.0 10.0 -15.85 10.55 -16.45 11.15 -17.0 12.0 -17.0 12.85 -17.0 13.4 -16.45 14.0 -15.85 14.0 -15.0 14.0 -14.15 13.4 -13.6 M10.55 -7.6 Q10.0 -8.15 10.0 -9.0 10.0 -9.85 10.55 -10.45 11.15 -11.0 12.0 -11.0 12.85 -11.0 13.4 -10.45 14.0 -9.85 14.0 -9.0 14.0 -8.15 13.4 -7.6 12.85 -7.0 12.0 -7.0 11.15 -7.0 10.55 -7.6 M10.55 -1.6 Q10.0 -2.15 10.0 -3.0 10.0 -3.85 10.55 -4.45 11.15 -5.0 12.0 -5.0 12.85 -5.0 13.4 -4.45 14.0 -3.85 14.0 -3.0 14.0 -2.15 13.4 -1.6 12.85 -1.0 12.0 -1.0 11.15 -1.0 10.55 -1.6" fill="url(#gradient1)" fill-rule="evenodd" stroke="none"/>
  </g>
  <defs>
    <linearGradient gradientTransform="matrix(1.0E-4, -0.024, 0.023, 1.0E-4, -3.2, -0.3)" gradientUnits="userSpaceOnUse" id="gradient0" spreadMethod="pad" x1="-819.2" x2="819.2">
      <stop offset="0.0" stop-color="#991e1e"/>
      <stop offset="1.0" stop-color="#e1091f"/>
    </linearGradient>
    <linearGradient gradientTransform="matrix(1.0E-4, -0.024, 0.023, 1.0E-4, -3.2, -0.3)" gradientUnits="userSpaceOnUse" id="gradient1" spreadMethod="pad" x1="-819.2" x2="819.2">
      <stop offset="0.0" stop-color="#991e1e"/>
      <stop offset="1.0" stop-color="#e1091f"/>
    </linearGradient>
  </defs>
</svg>
