<?xml version="1.0" encoding="UTF-8" standalone="no"?>
<svg xmlns:xlink="http://www.w3.org/1999/xlink" height="117.3px" width="232.0px" xmlns="http://www.w3.org/2000/svg">
  <g transform="matrix(1.0, 0.0, 0.0, 1.0, 116.0, 58.65)">
    <path d="M21.9 -39.6 Q27.0 -34.5 28.0 -32.65 36.6 -33.95 46.0 -30.65 58.35 -17.95 75.0 -22.65 L79.0 -22.65 76.0 -18.65 Q86.8 -13.4 95.0 -3.65 106.05 0.0 116.0 15.35 104.0 12.55 92.0 13.35 87.25 20.85 84.5 23.7 79.75 28.5 73.0 26.35 68.35 31.35 72.0 38.35 66.95 41.3 67.0 49.35 56.7 50.45 48.0 58.35 34.95 59.75 23.0 54.35 4.4 60.05 -13.0 47.35 -23.9 44.4 -34.0 38.35 -45.2 41.1 -56.0 36.35 -71.05 21.75 -78.0 3.35 L-83.0 -0.65 -89.0 1.35 Q-97.15 -6.35 -108.0 -8.65 L-110.0 -14.65 -106.0 -18.65 -116.0 -30.65 -102.0 -35.65 -86.0 -30.65 -81.0 -32.65 -69.0 -29.65 Q-59.05 -34.1 -53.0 -41.65 L-42.0 -40.65 -39.0 -49.65 -31.0 -50.65 -15.0 -58.65 3.0 -58.65 17.0 -48.65 Q17.9 -43.6 21.9 -39.6" fill="#ffffff" fill-opacity="0.0" fill-rule="evenodd" stroke="none"/>
  </g>
</svg>
