<?xml version="1.0" encoding="UTF-8" standalone="no"?>
<svg xmlns:xlink="http://www.w3.org/1999/xlink" height="128.0px" width="196.0px" xmlns="http://www.w3.org/2000/svg">
  <g transform="matrix(1.0, 0.0, 0.0, 1.0, 98.0, 64.0)">
    <path d="M40.0 -47.0 L46.0 -51.0 Q49.7 -48.9 51.9 -48.35 L59.0 -48.0 Q70.05 -41.75 82.0 -39.0 L85.0 -33.0 98.0 -23.0 98.0 -3.0 93.0 -4.0 83.0 13.0 78.0 15.0 82.0 23.0 84.0 36.0 66.0 36.0 48.0 42.0 45.0 50.0 33.0 64.0 18.0 48.0 Q10.7 53.9 0.0 48.0 L-28.0 42.0 Q-31.25 43.55 -32.0 46.0 L-22.0 50.0 Q-25.95 51.15 -30.9 54.3 -32.65 55.4 -39.0 60.0 -46.75 54.95 -50.25 53.0 -54.65 50.45 -57.0 50.0 -58.4 44.6 -65.0 42.0 -64.3 39.4 -66.8 32.2 -69.25 25.05 -68.0 21.0 -66.5 16.2 -67.3 11.9 -68.15 7.05 -72.0 2.0 -71.3 -6.5 -78.0 -10.0 -77.75 -18.25 -82.0 -26.0 -89.65 -40.55 -78.0 -41.0 -80.4 -44.4 -87.85 -46.05 -96.5 -48.0 -98.0 -49.0 L-97.0 -50.0 Q-90.45 -54.15 -83.0 -53.0 -76.15 -59.0 -71.1 -61.05 -65.7 -63.3 -60.0 -62.0 L-57.0 -64.0 Q-51.0 -62.55 -48.0 -57.0 -40.45 -54.7 -38.0 -50.0 -28.45 -45.65 -18.0 -47.0 1.4 -37.9 15.25 -37.6 30.0 -37.35 40.0 -47.0" fill="#ffffff" fill-opacity="0.0" fill-rule="evenodd" stroke="none"/>
  </g>
</svg>
