<?xml version="1.0" encoding="UTF-8" standalone="no"?>
<svg xmlns:xlink="http://www.w3.org/1999/xlink" height="65.85px" width="63.6px" xmlns="http://www.w3.org/2000/svg">
  <g transform="matrix(1.0, 0.0, 0.0, 1.0, 31.35, 65.85)">
    <path d="M10.5 -36.0 L13.5 0.0 -13.5 0.0 -10.5 -36.0 Q-10.5 -39.35 -7.45 -41.65 -4.35 -44.0 0.0 -44.0 4.3 -44.0 7.4 -41.65 10.5 -39.3 10.5 -36.0" fill="#000000" fill-rule="evenodd" stroke="none"/>
    <path d="M8.7 -62.25 Q12.35 -58.6 12.35 -53.5 12.35 -48.4 8.7 -44.8 5.1 -41.15 0.0 -41.15 -5.1 -41.15 -8.75 -44.8 -12.35 -48.4 -12.35 -53.5 -12.35 -58.6 -8.75 -62.25 -5.1 -65.85 0.0 -65.85 5.1 -65.85 8.7 -62.25" fill="#000000" fill-rule="evenodd" stroke="none"/>
    <path d="M21.5 -40.5 L24.9 -31.65 Q25.35 -30.55 26.6 -30.55 L26.6 -29.85 21.65 -29.85 21.65 -30.55 21.95 -30.55 Q22.65 -30.55 22.8 -30.95 L22.65 -31.95 22.15 -33.05 18.7 -33.05 18.35 -32.1 18.1 -31.35 Q18.0 -30.95 18.25 -30.75 L19.55 -30.5 19.55 -29.85 12.6 -29.85 10.0 -35.0 8.85 -35.0 8.85 -31.5 Q8.85 -30.85 9.15 -30.65 L10.3 -30.5 10.3 -29.85 0.55 -29.85 0.55 -30.55 0.85 -30.55 Q1.55 -30.55 1.7 -30.95 L1.55 -31.95 1.05 -33.05 -2.4 -33.05 -2.75 -32.1 -3.0 -31.35 Q-3.1 -30.95 -2.85 -30.75 L-1.55 -30.5 -1.55 -29.85 -10.25 -29.85 -10.25 -30.55 -9.1 -30.7 Q-8.8 -30.85 -8.8 -31.6 L-8.8 -34.9 -12.9 -34.9 -12.9 -31.6 Q-12.9 -30.85 -12.6 -30.7 L-11.5 -30.55 -11.5 -29.85 -16.4 -29.85 -16.4 -30.55 -16.25 -30.55 Q-15.05 -30.55 -15.05 -31.6 L-15.05 -38.5 Q-15.05 -39.2 -15.3 -39.4 L-16.4 -39.6 -16.4 -40.25 -11.5 -40.25 -11.5 -39.6 -12.65 -39.4 -12.9 -38.6 -12.9 -35.7 -8.8 -35.7 -8.8 -38.45 Q-8.8 -39.25 -9.15 -39.45 L-10.25 -39.6 -10.25 -40.25 -5.3 -40.25 -5.3 -39.6 -6.4 -39.45 Q-6.7 -39.25 -6.7 -38.45 L-6.7 -31.65 Q-6.7 -30.55 -5.5 -30.55 L-5.3 -30.55 -5.3 -30.5 Q-4.65 -30.55 -4.3 -30.9 -3.9 -31.25 -3.55 -32.3 L-0.5 -40.5 0.4 -40.5 3.8 -31.65 Q4.25 -30.55 5.5 -30.55 L5.5 -30.5 6.5 -30.7 Q6.8 -30.85 6.8 -31.7 L6.8 -38.55 Q6.8 -39.3 6.5 -39.45 L5.35 -39.6 5.35 -40.25 10.6 -40.25 12.25 -40.2 Q13.2 -40.1 13.85 -39.65 14.7 -39.05 14.9 -38.05 15.05 -36.85 14.25 -36.0 13.6 -35.15 12.15 -35.05 L14.35 -31.1 Q14.65 -30.5 15.65 -30.5 L15.8 -30.5 Q16.45 -30.55 16.8 -30.9 L17.55 -32.3 20.6 -40.5 21.5 -40.5 M21.7 -26.25 L30.85 -26.25 31.0 -22.5 30.35 -22.5 Q30.15 -23.55 29.75 -24.25 L28.7 -25.25 26.7 -25.55 25.55 -25.4 Q25.3 -25.25 25.3 -24.5 L25.3 -21.65 26.05 -21.65 Q26.55 -21.7 26.9 -21.9 27.65 -22.3 27.7 -23.85 L28.35 -23.85 28.35 -18.75 27.7 -18.75 27.5 -19.95 Q27.2 -20.85 26.3 -20.95 L25.3 -21.0 25.3 -17.85 25.3 -17.25 Q25.3 -16.85 25.5 -16.8 L26.2 -16.6 26.95 -16.6 Q28.4 -16.6 29.15 -17.25 L30.0 -18.45 30.55 -19.95 31.25 -19.95 30.9 -15.85 21.7 -15.85 21.7 -16.5 Q22.7 -16.45 22.95 -16.7 L23.2 -17.85 23.2 -24.5 22.9 -25.35 21.7 -25.55 21.7 -26.25 M20.45 -38.1 L18.95 -33.85 21.9 -33.85 20.45 -38.1 M12.25 -38.7 Q11.65 -39.6 10.0 -39.55 L9.25 -39.4 Q8.85 -39.1 8.85 -38.45 L8.85 -35.65 10.2 -35.65 11.65 -35.95 Q12.35 -36.25 12.5 -37.2 12.65 -38.1 12.25 -38.7 M4.05 -26.25 L9.3 -18.75 9.3 -24.5 9.05 -25.35 7.8 -25.6 7.8 -26.25 11.7 -26.25 11.7 -25.6 Q10.1 -25.7 10.1 -24.5 L10.1 -15.7 9.4 -15.7 3.1 -24.45 3.1 -17.65 Q3.1 -16.95 3.4 -16.7 L4.6 -16.5 4.6 -15.85 -4.1 -15.85 -4.1 -16.55 -3.8 -16.55 Q-3.1 -16.55 -2.95 -16.95 -2.8 -17.15 -3.1 -17.95 L-3.6 -19.05 -7.05 -19.05 -7.4 -18.1 -7.65 -17.35 Q-7.75 -16.95 -7.5 -16.75 L-6.2 -16.5 -6.2 -15.85 -14.9 -15.85 -14.9 -16.55 -13.75 -16.7 Q-13.45 -16.85 -13.45 -17.6 L-13.45 -20.9 -17.55 -20.9 -17.55 -17.6 Q-17.55 -16.85 -17.25 -16.7 L-16.15 -16.55 -16.15 -15.85 -21.05 -15.85 -21.05 -16.55 -20.9 -16.55 Q-19.7 -16.55 -19.7 -17.6 L-19.7 -24.5 Q-19.7 -25.2 -19.95 -25.4 L-21.05 -25.6 -21.05 -26.25 -16.15 -26.25 -16.15 -25.6 -17.3 -25.4 -17.55 -24.6 -17.55 -21.7 -13.45 -21.7 -13.45 -24.45 Q-13.45 -25.25 -13.8 -25.45 L-14.9 -25.6 -14.9 -26.25 -9.95 -26.25 -9.95 -25.6 -11.05 -25.45 Q-11.35 -25.25 -11.35 -24.45 L-11.35 -17.65 Q-11.35 -16.55 -10.15 -16.55 L-9.95 -16.55 -9.95 -16.5 Q-9.3 -16.55 -8.95 -16.9 -8.55 -17.25 -8.2 -18.3 L-5.15 -26.5 -4.25 -26.5 -0.85 -17.65 Q-0.4 -16.55 0.85 -16.55 L0.85 -16.5 1.95 -16.7 Q2.3 -16.95 2.3 -17.85 L2.3 -24.9 1.7 -25.45 0.7 -25.6 0.7 -26.25 4.05 -26.25 M19.3 -25.6 L20.1 -26.4 20.6 -26.35 20.7 -22.4 20.05 -22.4 19.05 -24.7 Q18.1 -25.7 16.9 -25.65 15.85 -25.65 15.1 -24.85 14.3 -23.95 14.1 -22.55 13.85 -20.95 14.15 -19.3 14.4 -17.95 15.1 -17.2 15.95 -16.2 17.05 -16.5 17.95 -16.65 18.25 -17.35 L18.4 -19.05 18.2 -19.75 17.35 -19.9 17.05 -19.9 17.05 -20.6 21.8 -20.6 21.8 -19.95 20.8 -19.8 Q20.55 -19.6 20.55 -19.05 L20.55 -15.8 20.1 -15.8 19.05 -16.75 Q17.6 -15.35 15.55 -15.75 13.8 -16.05 12.7 -17.6 11.65 -18.75 11.55 -20.7 11.4 -22.7 12.65 -24.25 13.65 -25.9 15.45 -26.25 17.65 -26.75 19.3 -25.6 M-20.15 -39.6 Q-21.2 -39.75 -22.15 -39.0 -23.3 -37.8 -23.25 -34.85 -23.2 -32.5 -22.1 -31.4 -21.55 -30.85 -20.75 -30.7 L-19.2 -30.85 Q-17.9 -31.35 -16.9 -33.6 L-16.35 -33.35 Q-16.95 -31.6 -17.7 -30.85 -18.5 -30.05 -19.7 -29.8 -21.5 -29.45 -22.9 -30.15 -23.85 -30.6 -24.6 -31.5 -25.4 -32.55 -25.6 -33.8 -26.15 -37.1 -23.95 -39.1 -22.5 -40.4 -20.4 -40.35 -19.25 -40.3 -18.0 -39.55 L-17.4 -40.2 -16.8 -40.2 -16.55 -36.4 -17.2 -36.35 -17.6 -37.3 -18.5 -38.7 Q-19.25 -39.5 -20.15 -39.6 M-2.15 -33.85 L0.8 -33.85 -0.65 -38.1 -2.15 -33.85 M-22.65 -25.55 L-22.05 -26.2 -21.45 -26.2 -21.2 -22.4 -21.85 -22.35 -22.25 -23.3 -23.15 -24.7 Q-23.9 -25.5 -24.8 -25.6 -25.85 -25.75 -26.8 -25.0 -27.95 -23.8 -27.9 -20.85 -27.85 -18.5 -26.75 -17.4 -26.2 -16.85 -25.4 -16.7 L-23.85 -16.85 Q-22.55 -17.35 -21.55 -19.6 L-21.0 -19.35 Q-21.6 -17.6 -22.35 -16.85 -23.15 -16.05 -24.35 -15.8 -26.15 -15.45 -27.55 -16.15 -28.5 -16.6 -29.25 -17.5 -30.05 -18.55 -30.25 -19.8 -30.8 -23.1 -28.6 -25.1 -27.15 -26.4 -25.05 -26.35 -23.9 -26.3 -22.65 -25.55 M-6.8 -19.85 L-3.85 -19.85 -5.3 -24.1 -6.8 -19.85" fill="none" stroke="#000000" stroke-linecap="round" stroke-linejoin="round" stroke-width="2.0"/>
    <path d="M21.5 -40.5 L24.9 -31.65 Q25.35 -30.55 26.6 -30.55 L26.6 -29.85 21.65 -29.85 21.65 -30.55 21.95 -30.55 Q22.65 -30.55 22.8 -30.95 L22.65 -31.95 22.15 -33.05 18.7 -33.05 18.35 -32.1 18.1 -31.35 Q18.0 -30.95 18.25 -30.75 L19.55 -30.5 19.55 -29.85 12.6 -29.85 10.0 -35.0 8.85 -35.0 8.85 -31.5 Q8.85 -30.85 9.15 -30.65 L10.3 -30.5 10.3 -29.85 0.55 -29.85 0.55 -30.55 0.85 -30.55 Q1.55 -30.55 1.7 -30.95 L1.55 -31.95 1.05 -33.05 -2.4 -33.05 -2.75 -32.1 -3.0 -31.35 Q-3.1 -30.95 -2.85 -30.75 L-1.55 -30.5 -1.55 -29.85 -10.25 -29.85 -10.25 -30.55 -9.1 -30.7 Q-8.8 -30.85 -8.8 -31.6 L-8.8 -34.9 -12.9 -34.9 -12.9 -31.6 Q-12.9 -30.85 -12.6 -30.7 L-11.5 -30.55 -11.5 -29.85 -16.4 -29.85 -16.4 -30.55 -16.25 -30.55 Q-15.05 -30.55 -15.05 -31.6 L-15.05 -38.5 Q-15.05 -39.2 -15.3 -39.4 L-16.4 -39.6 -16.4 -40.25 -11.5 -40.25 -11.5 -39.6 -12.65 -39.4 -12.9 -38.6 -12.9 -35.7 -8.8 -35.7 -8.8 -38.45 Q-8.8 -39.25 -9.15 -39.45 L-10.25 -39.6 -10.25 -40.25 -5.3 -40.25 -5.3 -39.6 -6.4 -39.45 Q-6.7 -39.25 -6.7 -38.45 L-6.7 -31.65 Q-6.7 -30.55 -5.5 -30.55 L-5.3 -30.55 -5.3 -30.5 Q-4.65 -30.55 -4.3 -30.9 -3.9 -31.25 -3.55 -32.3 L-0.5 -40.5 0.4 -40.5 3.8 -31.65 Q4.25 -30.55 5.5 -30.55 L5.5 -30.5 6.5 -30.7 Q6.8 -30.85 6.8 -31.7 L6.8 -38.55 Q6.8 -39.3 6.5 -39.45 L5.35 -39.6 5.35 -40.25 10.6 -40.25 12.25 -40.2 Q13.2 -40.1 13.85 -39.65 14.7 -39.05 14.9 -38.05 15.05 -36.85 14.25 -36.0 13.6 -35.15 12.15 -35.05 L14.35 -31.1 Q14.65 -30.5 15.65 -30.5 L15.8 -30.5 Q16.45 -30.55 16.8 -30.9 L17.55 -32.3 20.6 -40.5 21.5 -40.5 M21.7 -25.55 L21.7 -26.25 30.85 -26.25 31.0 -22.5 30.35 -22.5 Q30.15 -23.55 29.75 -24.25 L28.7 -25.25 26.7 -25.55 25.55 -25.4 Q25.3 -25.25 25.3 -24.5 L25.3 -21.65 26.05 -21.65 Q26.55 -21.7 26.9 -21.9 27.65 -22.3 27.7 -23.85 L28.35 -23.85 28.35 -18.75 27.7 -18.75 27.5 -19.95 Q27.2 -20.85 26.3 -20.95 L25.3 -21.0 25.3 -17.85 25.3 -17.25 Q25.3 -16.85 25.5 -16.8 L26.2 -16.6 26.95 -16.6 Q28.4 -16.6 29.15 -17.25 L30.0 -18.45 30.55 -19.95 31.25 -19.95 30.9 -15.85 21.7 -15.85 21.7 -16.5 Q22.7 -16.45 22.95 -16.7 L23.2 -17.85 23.2 -24.5 22.9 -25.35 21.7 -25.55 M20.45 -38.1 L18.95 -33.85 21.9 -33.85 20.45 -38.1 M12.25 -38.7 Q11.65 -39.6 10.0 -39.55 L9.25 -39.4 Q8.85 -39.1 8.85 -38.45 L8.85 -35.65 10.2 -35.65 11.65 -35.95 Q12.35 -36.25 12.5 -37.2 12.65 -38.1 12.25 -38.7 M4.05 -26.25 L9.3 -18.75 9.3 -24.5 9.05 -25.35 7.8 -25.6 7.8 -26.25 11.7 -26.25 11.7 -25.6 Q10.1 -25.7 10.1 -24.5 L10.1 -15.7 9.4 -15.7 3.1 -24.45 3.1 -17.65 Q3.1 -16.95 3.4 -16.7 L4.6 -16.5 4.6 -15.85 -4.1 -15.85 -4.1 -16.55 -3.8 -16.55 Q-3.1 -16.55 -2.95 -16.95 -2.8 -17.15 -3.1 -17.95 L-3.6 -19.05 -7.05 -19.05 -7.4 -18.1 -7.65 -17.35 Q-7.75 -16.95 -7.5 -16.75 L-6.2 -16.5 -6.2 -15.85 -14.9 -15.85 -14.9 -16.55 -13.75 -16.7 Q-13.45 -16.85 -13.45 -17.6 L-13.45 -20.9 -17.55 -20.9 -17.55 -17.6 Q-17.55 -16.85 -17.25 -16.7 L-16.15 -16.55 -16.15 -15.85 -21.05 -15.85 -21.05 -16.55 -20.9 -16.55 Q-19.7 -16.55 -19.7 -17.6 L-19.7 -24.5 Q-19.7 -25.2 -19.95 -25.4 L-21.05 -25.6 -21.05 -26.25 -16.15 -26.25 -16.15 -25.6 -17.3 -25.4 -17.55 -24.6 -17.55 -21.7 -13.45 -21.7 -13.45 -24.45 Q-13.45 -25.25 -13.8 -25.45 L-14.9 -25.6 -14.9 -26.25 -9.95 -26.25 -9.95 -25.6 -11.05 -25.45 Q-11.35 -25.25 -11.35 -24.45 L-11.35 -17.65 Q-11.35 -16.55 -10.15 -16.55 L-9.95 -16.55 -9.95 -16.5 Q-9.3 -16.55 -8.95 -16.9 -8.55 -17.25 -8.2 -18.3 L-5.15 -26.5 -4.25 -26.5 -0.85 -17.65 Q-0.4 -16.55 0.85 -16.55 L0.85 -16.5 1.95 -16.7 Q2.3 -16.95 2.3 -17.85 L2.3 -24.9 1.7 -25.45 0.7 -25.6 0.7 -26.25 4.05 -26.25 M19.3 -25.6 L20.1 -26.4 20.6 -26.35 20.7 -22.4 20.05 -22.4 19.05 -24.7 Q18.1 -25.7 16.9 -25.65 15.85 -25.65 15.1 -24.85 14.3 -23.95 14.1 -22.55 13.85 -20.95 14.15 -19.3 14.4 -17.95 15.1 -17.2 15.95 -16.2 17.05 -16.5 17.95 -16.65 18.25 -17.35 L18.4 -19.05 18.2 -19.75 17.35 -19.9 17.05 -19.9 17.05 -20.6 21.8 -20.6 21.8 -19.95 20.8 -19.8 Q20.55 -19.6 20.55 -19.05 L20.55 -15.8 20.1 -15.8 19.05 -16.75 Q17.6 -15.35 15.55 -15.75 13.8 -16.05 12.7 -17.6 11.65 -18.75 11.55 -20.7 11.4 -22.7 12.65 -24.25 13.65 -25.9 15.45 -26.25 17.65 -26.75 19.3 -25.6 M-17.4 -40.2 L-16.8 -40.2 -16.55 -36.4 -17.2 -36.35 -17.6 -37.3 -18.5 -38.7 Q-19.25 -39.5 -20.15 -39.6 -21.2 -39.75 -22.15 -39.0 -23.3 -37.8 -23.25 -34.85 -23.2 -32.5 -22.1 -31.4 -21.55 -30.85 -20.75 -30.7 L-19.2 -30.85 Q-17.9 -31.35 -16.9 -33.6 L-16.35 -33.35 Q-16.95 -31.6 -17.7 -30.85 -18.5 -30.05 -19.7 -29.8 -21.5 -29.45 -22.9 -30.15 -23.85 -30.6 -24.6 -31.5 -25.4 -32.55 -25.6 -33.8 -26.15 -37.1 -23.95 -39.1 -22.5 -40.4 -20.4 -40.35 -19.25 -40.3 -18.0 -39.55 L-17.4 -40.2 M-2.15 -33.85 L0.8 -33.85 -0.65 -38.1 -2.15 -33.85 M-21.45 -26.2 L-21.2 -22.4 -21.85 -22.35 -22.25 -23.3 -23.15 -24.7 Q-23.9 -25.5 -24.8 -25.6 -25.85 -25.75 -26.8 -25.0 -27.95 -23.8 -27.9 -20.85 -27.85 -18.5 -26.75 -17.4 -26.2 -16.85 -25.4 -16.7 L-23.85 -16.85 Q-22.55 -17.35 -21.55 -19.6 L-21.0 -19.35 Q-21.6 -17.6 -22.35 -16.85 -23.15 -16.05 -24.35 -15.8 -26.15 -15.45 -27.55 -16.15 -28.5 -16.6 -29.25 -17.5 -30.05 -18.55 -30.25 -19.8 -30.8 -23.1 -28.6 -25.1 -27.15 -26.4 -25.05 -26.35 -23.9 -26.3 -22.65 -25.55 L-22.05 -26.2 -21.45 -26.2 M-6.8 -19.85 L-3.85 -19.85 -5.3 -24.1 -6.8 -19.85" fill="#ffffff" fill-rule="evenodd" stroke="none"/>
  </g>
</svg>
