<?xml version="1.0" encoding="UTF-8" standalone="no"?>
<svg xmlns:xlink="http://www.w3.org/1999/xlink" height="100.0px" width="106.5px" xmlns="http://www.w3.org/2000/svg">
  <g transform="matrix(1.0, 0.0, 0.0, 1.0, 53.25, 50.0)">
    <path d="M26.55 -26.6 Q15.6 -37.55 0.0 -37.55 -15.6 -37.55 -26.6 -26.6 -33.85 -19.3 -36.3 -10.0 L-35.25 -10.0 Q-34.45 -10.0 -33.85 -9.4 L-33.8 -9.4 Q-33.25 -8.8 -33.25 -8.0 -33.25 -7.15 -33.85 -6.55 L-33.85 -6.6 -41.85 1.4 -41.8 1.4 Q-42.4 2.0 -43.25 2.0 -44.1 2.0 -44.65 1.4 L-52.65 -6.6 -52.65 -6.55 Q-53.25 -7.15 -53.25 -8.0 -53.25 -8.8 -52.65 -9.4 -52.05 -10.0 -51.25 -10.0 L-49.05 -10.0 Q-46.35 -24.4 -35.35 -35.35 -20.7 -50.0 0.0 -50.0 20.7 -50.0 35.35 -35.35 47.0 -23.75 49.4 -8.3 L49.4 -8.25 49.2 -7.15 49.25 -7.2 Q49.0 -6.65 48.55 -6.3 L48.5 -6.3 47.4 -6.0 38.8 -6.0 Q38.1 -6.0 37.55 -6.45 37.0 -6.9 36.85 -7.6 34.75 -18.4 26.55 -26.6 M43.25 -2.0 Q44.1 -2.0 44.7 -1.4 L44.65 -1.4 52.65 6.6 Q53.25 7.15 53.25 8.0 53.25 8.8 52.7 9.4 L52.65 9.45 Q52.05 10.0 51.25 10.0 L49.1 10.0 Q46.35 24.4 35.35 35.35 20.7 50.0 0.0 50.0 -20.7 50.0 -35.35 35.35 -47.0 23.75 -49.4 8.3 L-49.2 7.15 -48.5 6.35 -48.45 6.3 -47.4 6.0 -38.8 6.0 Q-38.1 6.0 -37.5 6.45 L-37.55 6.45 Q-37.0 6.9 -36.85 7.6 -34.75 18.4 -26.55 26.6 -15.6 37.55 0.0 37.55 15.6 37.55 26.6 26.6 33.85 19.3 36.3 10.0 L35.25 10.0 Q34.45 10.0 33.85 9.45 L33.85 9.4 Q33.25 8.8 33.25 8.0 33.25 7.15 33.85 6.6 L41.85 -1.4 Q42.4 -2.0 43.25 -2.0" fill="#000000" fill-rule="evenodd" stroke="none"/>
    <path d="M38.8 -8.0 Q36.6 -19.35 27.95 -28.0 16.4 -39.55 0.0 -39.55 -16.4 -39.55 -28.0 -28.0 -36.6 -19.35 -38.8 -8.0 L-35.25 -8.0 -43.25 0.0 -51.25 -8.0 -47.4 -8.0 Q-45.1 -22.8 -33.95 -33.95 -19.9 -48.0 0.0 -48.0 19.9 -48.0 33.95 -33.95 45.1 -22.8 47.4 -8.0 L38.8 -8.0" fill="url(#gradient0)" fill-rule="evenodd" stroke="none"/>
    <path d="M43.25 0.0 L51.25 8.0 47.4 8.0 Q45.1 22.8 33.95 33.95 19.9 48.0 0.0 48.0 -19.9 48.0 -33.95 33.95 -45.1 22.8 -47.4 8.0 L-38.8 8.0 Q-36.6 19.35 -27.95 28.0 -16.4 39.55 0.0 39.55 16.4 39.55 28.0 28.0 36.6 19.35 38.8 8.0 L35.25 8.0 43.25 0.0" fill="url(#gradient1)" fill-rule="evenodd" stroke="none"/>
  </g>
  <defs>
    <radialGradient cx="0" cy="0" gradientTransform="matrix(0.1064, 0.0, 0.0, 0.1064, -40.0, -8.0)" gradientUnits="userSpaceOnUse" id="gradient0" r="819.2" spreadMethod="pad">
      <stop offset="0.0" stop-color="#ffffff"/>
      <stop offset="1.0" stop-color="#969696"/>
    </radialGradient>
    <radialGradient cx="0" cy="0" gradientTransform="matrix(-0.1064, 0.0, 0.0, -0.1064, 40.0, 8.0)" gradientUnits="userSpaceOnUse" id="gradient1" r="819.2" spreadMethod="pad">
      <stop offset="0.0" stop-color="#ffffff"/>
      <stop offset="1.0" stop-color="#969696"/>
    </radialGradient>
  </defs>
</svg>
