<?xml version="1.0" encoding="UTF-8" standalone="no"?>
<svg xmlns:xlink="http://www.w3.org/1999/xlink" height="141.5px" width="298.3px" xmlns="http://www.w3.org/2000/svg">
  <g transform="matrix(1.0, 0.0, 0.0, 1.0, 0.5, 0.5)">
    <path d="M274.65 133.25 L271.95 133.5 Q243.9 136.0 214.75 136.0 L153.25 135.0 82.15 137.75 22.25 140.5 5.9 139.85 0.0 8.95 9.6 9.0 45.75 7.0 98.2 2.9 139.65 0.0 144.25 5.1 Q164.3 8.2 199.45 7.65 209.8 7.5 215.8 7.7 256.85 93.3 265.8 113.45 L274.65 133.25" fill="url(#gradient0)" fill-rule="evenodd" stroke="none"/>
    <path d="M274.65 133.25 L271.95 133.5 Q243.9 136.0 214.75 136.0 L153.25 135.0 82.15 137.75 22.25 140.5 5.9 139.85 0.0 8.95 9.6 9.0 45.75 7.0 98.2 2.9 139.65 0.0 144.25 5.1 Q164.3 8.2 199.45 7.65 209.8 7.5 215.8 7.7 256.85 93.3 265.8 113.45 L274.65 133.25 297.3 131.0 M274.65 133.25 L277.25 138.8 277.8 140.0" fill="none" stroke="#000000" stroke-linecap="round" stroke-linejoin="round" stroke-width="1.0"/>
  </g>
  <defs>
    <linearGradient gradientTransform="matrix(1.0E-4, -0.0804, 0.0858, 1.0E-4, 138.25, 60.4)" gradientUnits="userSpaceOnUse" id="gradient0" spreadMethod="pad" x1="-819.2" x2="819.2">
      <stop offset="0.1843137254901961" stop-color="#4f4128"/>
      <stop offset="1.0" stop-color="#72603f"/>
    </linearGradient>
  </defs>
</svg>
