<?xml version="1.0" encoding="UTF-8" standalone="no"?>
<svg xmlns:xlink="http://www.w3.org/1999/xlink" height="152.0px" width="53.7px" xmlns="http://www.w3.org/2000/svg">
  <g transform="matrix(1.0, 0.0, 0.0, 1.0, 26.85, 74.5)">
    <path d="M0.75 -74.35 Q1.45 -74.15 1.95 -73.55 L3.8 -71.25 7.4 -70.35 10.15 -71.65 11.6 -71.85 Q12.35 -71.75 12.95 -71.2 13.5 -70.7 13.65 -69.95 L14.4 -66.6 16.9 -64.35 20.1 -64.2 Q20.85 -64.15 21.45 -63.65 L22.35 -62.45 Q22.55 -61.75 22.35 -61.0 L21.45 -57.8 22.65 -54.45 25.8 -52.2 26.7 -51.05 Q26.95 -50.35 26.8 -49.6 26.6 -48.85 26.05 -48.35 L23.5 -46.05 23.5 -40.0 Q23.5 -38.95 22.8 -38.2 22.05 -37.5 21.0 -37.5 L12.0 -37.5 Q11.3 -37.5 10.75 -37.85 L6.3 -40.5 5.7 -40.45 6.35 -39.45 Q7.0 -39.4 7.55 -38.95 8.45 -38.25 8.65 -37.6 L8.6 -35.95 Q8.4 -35.0 7.2 -34.15 L5.95 -33.35 Q5.35 -32.1 5.5 -29.15 L5.5 -28.5 Q5.25 -27.3 4.5 -26.2 L4.5 42.55 Q5.2 42.7 5.8 43.25 6.5 43.95 6.5 45.0 L6.5 46.0 Q6.5 46.75 6.1 47.4 L5.15 48.2 Q4.9 48.55 4.8 49.45 4.5 51.45 4.5 58.0 L4.5 60.55 Q5.55 61.6 5.5 63.0 5.55 64.4 4.5 65.45 L4.5 65.9 Q4.85 68.6 6.0 70.5 L6.45 71.5 Q6.7 72.65 5.8 73.8 L4.45 75.05 Q4.2 75.85 3.2 76.55 1.9 77.5 0.0 77.5 -1.9 77.5 -3.2 76.55 -4.2 75.85 -4.45 75.05 L-5.8 73.8 Q-6.7 72.65 -6.45 71.5 L-6.0 70.5 Q-4.85 68.6 -4.5 65.9 L-4.5 65.45 Q-5.55 64.4 -5.5 63.0 -5.55 61.6 -4.5 60.55 L-4.5 58.0 Q-4.5 51.45 -4.8 49.45 -4.9 48.55 -5.15 48.2 L-6.1 47.4 Q-6.5 46.75 -6.5 46.0 L-6.5 45.0 Q-6.5 43.95 -5.8 43.25 -5.2 42.7 -4.5 42.55 L-4.5 -26.2 Q-5.25 -27.3 -5.5 -28.5 L-5.5 -29.15 Q-5.35 -32.1 -5.95 -33.35 L-7.2 -34.15 Q-8.4 -35.0 -8.6 -35.95 L-8.65 -37.6 Q-8.45 -38.25 -7.55 -38.95 -7.0 -39.4 -6.35 -39.45 L-5.7 -40.45 -6.3 -40.5 -10.75 -37.85 Q-11.3 -37.5 -12.0 -37.5 L-21.0 -37.5 Q-22.05 -37.5 -22.8 -38.2 -23.5 -38.95 -23.5 -40.0 L-23.5 -46.05 -26.05 -48.35 Q-26.6 -48.85 -26.8 -49.6 -26.95 -50.35 -26.7 -51.05 L-25.8 -52.2 -22.65 -54.45 -21.45 -57.8 -22.35 -61.0 Q-22.55 -61.75 -22.35 -62.45 L-21.45 -63.65 Q-20.85 -64.15 -20.1 -64.2 L-16.9 -64.35 -14.4 -66.6 -13.65 -69.95 Q-13.5 -70.7 -12.95 -71.2 -12.35 -71.75 -11.6 -71.85 L-10.15 -71.65 -7.4 -70.35 -3.8 -71.25 -1.95 -73.55 Q-1.45 -74.15 -0.75 -74.35 L0.0 -74.5 0.75 -74.35" fill="#000000" fill-rule="evenodd" stroke="none"/>
  </g>
</svg>
