<?xml version="1.0" encoding="UTF-8" standalone="no"?>
<svg xmlns:xlink="http://www.w3.org/1999/xlink" height="27.95px" width="8.0px" xmlns="http://www.w3.org/2000/svg">
  <g transform="matrix(1.0, 0.0, 0.0, 1.0, 4.0, 13.95)">
    <path d="M1.45 -13.45 Q2.0 -12.9 2.0 -12.2 L2.0 -9.25 3.0 -8.55 Q4.0 -7.55 4.0 -6.15 L4.0 -2.85 Q4.0 -1.45 3.05 -0.5 L3.0 -0.45 2.45 0.0 3.0 0.45 Q4.0 1.45 4.0 2.85 L4.0 6.15 Q4.0 7.55 3.05 8.5 L3.0 8.55 2.0 9.25 2.0 12.25 Q2.0 12.9 1.55 13.4 L1.45 13.45 1.4 13.55 Q0.9 14.0 0.25 14.0 L-0.25 14.0 Q-0.95 14.0 -1.5 13.45 -2.0 12.95 -2.0 12.25 L-2.0 9.25 -3.05 8.5 Q-4.0 7.6 -4.0 6.15 L-4.0 2.85 Q-4.0 1.45 -3.05 0.5 L-3.0 0.45 -2.45 0.0 -3.05 -0.5 Q-4.0 -1.4 -4.0 -2.85 L-4.0 -6.15 Q-4.0 -7.55 -3.05 -8.5 L-3.0 -8.55 -2.0 -9.25 -2.0 -12.2 Q-2.0 -12.85 -1.55 -13.35 L-1.4 -13.5 Q-0.9 -13.95 -0.25 -13.95 L0.25 -13.95 Q0.95 -13.95 1.45 -13.45" fill="url(#gradient0)" fill-rule="evenodd" stroke="none"/>
  </g>
  <defs>
    <linearGradient gradientTransform="matrix(0.0049, 0.0, 0.0, 0.0171, 0.0, 0.0)" gradientUnits="userSpaceOnUse" id="gradient0" spreadMethod="pad" x1="-819.2" x2="819.2">
      <stop offset="0.00392156862745098" stop-color="#000000" stop-opacity="0.43137255"/>
      <stop offset="1.0" stop-color="#000000" stop-opacity="0.14117648"/>
    </linearGradient>
  </defs>
</svg>
