<?xml version="1.0" encoding="UTF-8" standalone="no"?>
<svg xmlns:xlink="http://www.w3.org/1999/xlink" height="128.0px" width="65.0px" xmlns="http://www.w3.org/2000/svg">
  <g transform="matrix(1.0, 0.0, 0.0, 1.0, 32.5, 64.5)">
    <path d="M21.25 -56.15 L22.05 -55.4 22.5 -54.4 23.3 -49.35 24.0 -48.45 Q24.5 -47.8 24.5 -47.0 24.5 -44.65 25.3 -40.6 26.35 -35.5 26.5 -33.15 26.55 -32.3 26.05 -31.55 L24.95 -30.0 Q25.4 -27.85 26.25 -26.1 26.65 -25.25 26.4 -24.3 26.15 -23.4 25.4 -22.9 L24.6 -21.9 24.75 -21.75 Q25.5 -21.05 25.5 -20.0 L25.6 -11.6 Q25.6 -10.7 25.0 -9.95 24.4 -9.25 23.5 -9.1 L22.85 -9.0 Q22.95 -3.2 23.85 4.7 25.0 15.0 27.15 23.2 29.05 30.6 30.5 32.0 L31.2 32.75 31.5 33.75 32.5 42.75 32.35 43.9 31.7 44.85 28.1 47.9 28.45 49.5 28.4 50.8 27.65 51.9 Q21.65 57.0 14.35 60.15 6.55 63.55 0.0 63.5 -6.55 63.55 -14.35 60.15 -21.65 57.0 -27.6 51.9 L-28.35 50.8 Q-28.6 50.15 -28.45 49.5 L-28.1 47.9 -31.65 44.85 -32.3 43.9 -32.45 42.75 -31.45 33.75 -31.15 32.75 -30.45 32.0 Q-29.05 30.6 -27.1 23.2 -25.0 15.0 -23.8 4.7 -22.95 -3.25 -22.8 -9.05 L-23.25 -9.1 Q-24.2 -9.25 -24.8 -9.95 -25.4 -10.7 -25.4 -11.6 L-25.3 -20.0 Q-25.3 -21.05 -24.55 -21.75 L-24.5 -21.8 -25.35 -22.9 Q-26.15 -23.4 -26.4 -24.3 -26.65 -25.25 -26.25 -26.1 -25.4 -27.85 -24.95 -30.0 L-26.0 -31.55 Q-26.55 -32.3 -26.5 -33.15 -26.35 -35.45 -25.3 -40.55 -24.5 -44.65 -24.5 -47.0 -24.5 -47.8 -24.0 -48.45 L-23.3 -49.35 -22.45 -54.4 -22.05 -55.4 -21.25 -56.15 -14.25 -60.15 -13.5 -60.45 Q-4.25 -62.4 -1.3 -64.15 L0.0 -64.5 1.3 -64.15 Q4.3 -62.4 13.55 -60.45 L14.25 -60.15 21.25 -56.15" fill="#000000" fill-rule="evenodd" stroke="none"/>
    <path d="M0.1 -20.0 L0.2 -20.0 23.0 -20.0 23.1 -11.6 0.2 -8.0 0.1 -8.0 0.1 -20.0" fill="url(#gradient0)" fill-rule="evenodd" stroke="none"/>
    <path d="M0.1 -8.0 L0.0 -8.0 -22.9 -11.6 -22.8 -20.0 0.0 -20.0 0.1 -20.0 0.1 -8.0" fill="url(#gradient1)" fill-rule="evenodd" stroke="none"/>
    <path d="M0.0 -33.0 L22.0 -33.0 Q22.4 -28.3 24.0 -25.0 18.35 -21.3 21.35 4.95 22.55 15.45 24.7 23.8 26.95 32.5 29.0 34.0 L30.0 43.0 Q14.85 56.7 0.0 56.85 L0.0 -33.0" fill="url(#gradient2)" fill-rule="evenodd" stroke="none"/>
    <path d="M0.0 -33.0 L0.0 56.85 Q-14.85 56.7 -30.0 43.0 L-29.0 34.0 Q-26.95 32.5 -24.7 23.8 -22.55 15.45 -21.35 4.95 -18.35 -21.3 -24.0 -25.0 -22.4 -28.3 -22.0 -33.0 L0.0 -33.0" fill="url(#gradient3)" fill-rule="evenodd" stroke="none"/>
    <path d="M0.0 -27.0 L0.2 -27.0 Q5.9 -26.95 9.9 -24.5 14.25 -21.8 17.0 -16.0 15.85 -4.65 16.85 12.8 17.85 30.5 20.0 34.0 L23.0 36.0 26.0 50.0 Q20.3 54.85 13.35 57.85 6.1 61.0 0.0 61.0 -6.1 61.0 -13.35 57.85 -20.3 54.85 -26.0 50.0 L-23.0 36.0 -20.0 34.0 Q-17.85 30.5 -16.85 12.8 -16.3 3.4 -16.4 -4.2 -16.45 -10.75 -17.0 -16.0 -14.25 -21.8 -9.9 -24.5 -5.85 -27.0 0.0 -27.0" fill="url(#gradient4)" fill-rule="evenodd" stroke="none"/>
    <path d="M17.55 22.0 L19.0 22.0 21.85 35.25 20.0 34.0 Q18.5 31.55 17.55 22.0 M-20.0 34.0 L-21.8 35.25 -19.0 22.0 -17.55 22.0 Q-18.5 31.55 -20.0 34.0" fill="#000000" fill-rule="evenodd" stroke="none"/>
    <path d="M-16.15 -56.2 Q-16.9 -52.3 -17.0 -49.15 L-21.0 -48.0 -20.0 -54.0 -16.15 -56.2" fill="url(#gradient5)" fill-rule="evenodd" stroke="none"/>
    <path d="M0.0 -50.0 L0.0 -48.0" fill="none" stroke="#202125" stroke-linecap="round" stroke-linejoin="round" stroke-width="0.5"/>
    <path d="M-13.0 -58.0 Q-13.9 -53.55 -14.0 -50.0 L-17.0 -49.15 Q-16.9 -52.3 -16.15 -56.2 L-13.0 -58.0" fill="url(#gradient6)" fill-rule="evenodd" stroke="none"/>
    <path d="M16.15 -56.2 L20.0 -54.0 21.0 -48.0 17.0 -49.15 Q16.9 -52.3 16.15 -56.2" fill="url(#gradient7)" fill-rule="evenodd" stroke="none"/>
    <path d="M0.0 -50.0 L0.0 -62.0 Q3.15 -60.1 13.0 -58.0 13.9 -53.55 14.0 -50.0 L0.0 -50.0" fill="url(#gradient8)" fill-rule="evenodd" stroke="none"/>
    <path d="M0.0 -62.0 L0.0 -50.0 -14.0 -50.0 Q-13.9 -53.55 -13.0 -58.0 -3.15 -60.1 0.0 -62.0" fill="url(#gradient9)" fill-rule="evenodd" stroke="none"/>
    <path d="M13.0 -58.0 L16.15 -56.2 Q16.9 -52.3 17.0 -49.15 L14.0 -50.0 Q13.9 -53.55 13.0 -58.0" fill="url(#gradient10)" fill-rule="evenodd" stroke="none"/>
    <path d="M0.0 -56.3 Q2.85 -54.45 5.75 -53.75 8.45 -53.1 13.0 -53.0 15.2 -52.95 18.1 -50.8 20.45 -49.1 22.0 -47.0 22.0 -44.45 22.85 -40.1 L24.0 -33.0 Q21.05 -28.9 19.65 -25.9 17.95 -22.25 18.0 -19.0 18.05 -16.25 17.2 -15.85 16.4 -15.5 16.0 -17.0 15.6 -18.4 14.45 -19.65 L12.0 -22.0 Q6.6 -25.9 0.2 -26.95 L0.0 -27.0 -0.2 -26.95 Q-6.6 -25.9 -12.0 -22.0 L-14.45 -19.65 Q-15.6 -18.4 -16.0 -17.0 -16.4 -15.5 -17.2 -15.85 -18.05 -16.25 -18.0 -19.0 -17.95 -22.25 -19.65 -25.9 -21.05 -28.9 -24.0 -33.0 L-22.85 -40.1 Q-22.0 -44.45 -22.0 -47.0 -20.45 -49.1 -18.1 -50.8 -15.2 -52.95 -13.0 -53.0 -8.45 -53.1 -5.75 -53.75 -2.85 -54.45 0.0 -56.3" fill="url(#gradient11)" fill-rule="evenodd" stroke="none"/>
    <path d="M3.0 -50.0 Q8.05 -51.4 13.85 -47.3 16.5 -45.25 17.55 -44.55 19.35 -43.45 20.35 -44.0 L20.6 -40.75 Q20.7 -37.0 19.75 -34.7 L17.9 -30.65 17.05 -29.0 15.55 -32.1 Q14.75 -30.9 14.2 -28.85 13.05 -24.7 14.05 -20.05 L12.05 -21.75 12.05 -22.0 Q11.0 -25.85 13.25 -31.25 14.35 -33.95 15.65 -35.85 L16.25 -34.65 Q16.95 -33.4 17.05 -33.5 17.9 -34.65 18.3 -37.25 18.75 -40.1 17.95 -41.2 14.65 -45.55 10.2 -47.4 5.55 -49.35 3.0 -47.0 L1.7 -48.85 Q0.75 -49.95 0.0 -50.0 -0.75 -49.95 -1.7 -48.85 L-3.0 -47.0 Q-5.55 -49.35 -10.2 -47.4 -14.6 -45.55 -17.9 -41.2 -18.7 -40.1 -18.25 -37.25 -17.85 -34.65 -17.0 -33.5 -16.9 -33.4 -16.2 -34.65 L-15.6 -35.85 Q-14.3 -33.95 -13.2 -31.25 L-12.1 -28.1 Q-11.25 -24.7 -12.0 -22.0 L-12.0 -21.85 -13.95 -20.15 Q-13.1 -24.35 -13.95 -28.1 L-14.15 -28.85 Q-14.7 -30.9 -15.5 -32.1 L-17.0 -29.0 -17.85 -30.65 -19.7 -34.7 Q-20.65 -37.0 -20.55 -40.75 L-20.3 -44.0 Q-19.3 -43.45 -17.5 -44.55 L-13.8 -47.3 Q-8.05 -51.4 -3.0 -50.0 -2.0 -51.6 0.0 -53.0 2.0 -51.6 3.0 -50.0" fill="url(#gradient12)" fill-rule="evenodd" stroke="none"/>
    <path d="M14.05 -20.05 L14.05 -20.0 Q13.45 -12.75 13.4 -8.0 13.35 -4.65 13.65 9.7 13.85 20.85 16.15 30.7 17.25 35.6 18.35 38.3 20.75 44.1 19.8 47.85 18.8 51.6 14.55 52.5 15.5 47.45 11.95 44.6 8.35 41.7 4.0 44.0 3.4 40.7 0.0 39.0 -3.4 40.7 -4.0 44.0 -8.35 41.7 -11.95 44.6 -15.5 47.45 -14.55 52.5 -18.8 51.6 -19.8 47.85 -20.75 44.1 -18.35 38.3 -17.25 35.6 -16.15 30.7 -13.85 20.85 -13.65 9.7 -13.35 -4.65 -13.4 -8.0 -13.45 -12.75 -14.05 -20.0 L-14.05 -20.05 -12.05 -21.75 Q-11.7 -11.7 -11.8 1.6 -11.6 9.95 -9.0 10.0 -12.1 14.2 -13.15 23.1 -14.25 32.2 -12.05 37.0 -15.9 36.5 -16.95 39.55 -18.0 42.55 -15.05 45.0 -12.35 40.2 -5.0 41.0 -4.7 40.15 -3.5 39.05 L-1.75 37.65 Q-1.05 37.15 -1.0 36.2 -0.85 34.25 -2.95 34.25 -2.0 31.05 -5.4 30.05 L-5.7 29.75 -5.3 29.5 Q-1.5 28.65 -1.1 22.0 L-0.9 17.4 Q-0.75 15.25 0.0 15.0 0.75 15.25 0.9 17.4 L1.1 22.0 Q1.5 28.65 5.3 29.5 L5.7 29.75 5.4 30.05 Q2.0 31.05 2.95 34.25 0.85 34.25 1.0 36.2 1.05 37.15 1.75 37.65 L3.5 39.05 Q4.7 40.15 5.0 41.0 12.35 40.2 15.05 45.0 18.0 42.55 16.95 39.55 15.9 36.5 12.05 37.0 14.25 32.2 13.15 23.1 12.1 14.2 9.0 10.0 11.6 9.95 11.8 1.6 11.7 -11.7 12.05 -21.75 L14.05 -20.05 M0.0 44.0 L2.5 48.0 Q0.4 50.1 0.5 56.0 L0.0 56.15 -0.5 56.0 Q-0.4 50.1 -2.5 48.0 L0.0 44.0 M0.0 33.5 L1.2 31.5 0.7 30.5 0.0 30.5 -0.7 30.5 -1.2 31.5 0.0 33.5" fill="url(#gradient13)" fill-rule="evenodd" stroke="none"/>
    <path d="M-14.35 -19.8 L-13.95 -20.15 Q-13.1 -24.35 -13.95 -28.1 L-14.15 -28.85 Q-14.7 -30.9 -15.5 -32.1 L-17.0 -29.0 -17.85 -30.65 -19.7 -34.7 Q-20.65 -37.0 -20.55 -40.75 L-20.3 -44.0 Q-19.3 -43.45 -17.5 -44.55 L-13.8 -47.3 Q-8.05 -51.4 -3.0 -50.0 -2.0 -51.6 0.0 -53.0 2.0 -51.6 3.0 -50.0 8.05 -51.4 13.85 -47.3 16.5 -45.25 17.55 -44.55 19.35 -43.45 20.35 -44.0 L20.6 -40.75 Q20.7 -37.0 19.75 -34.7 L17.9 -30.65 17.05 -29.0 15.55 -32.1 Q14.75 -30.9 14.2 -28.85 13.05 -24.7 14.05 -20.05 L14.3 -19.8 M0.95 -27.0 Q7.35 -25.35 12.05 -21.75 L12.05 -22.0 Q11.0 -25.85 13.25 -31.25 14.35 -33.95 15.65 -35.85 L16.25 -34.65 Q16.95 -33.4 17.05 -33.5 17.9 -34.65 18.3 -37.25 18.75 -40.1 17.95 -41.2 14.65 -45.55 10.2 -47.4 5.55 -49.35 3.0 -47.0 L1.7 -48.85 Q0.75 -49.95 0.0 -50.0 -0.75 -49.95 -1.7 -48.85 L-3.0 -47.0 Q-5.55 -49.35 -10.2 -47.4 -14.6 -45.55 -17.9 -41.2 -18.7 -40.1 -18.25 -37.25 -17.85 -34.65 -17.0 -33.5 -16.9 -33.4 -16.2 -34.65 L-15.6 -35.85 Q-14.3 -33.95 -13.2 -31.25 L-12.1 -28.1 Q-11.25 -24.7 -12.0 -22.0 L-12.0 -21.85 Q-7.35 -25.4 -1.0 -27.0 M12.05 -21.75 Q11.7 -11.7 11.8 1.6 11.6 9.95 9.0 10.0 12.1 14.2 13.15 23.1 14.25 32.2 12.05 37.0 15.9 36.5 16.95 39.55 18.0 42.55 15.05 45.0 12.35 40.2 5.0 41.0 4.7 40.15 3.5 39.05 L1.75 37.65 Q1.05 37.15 1.0 36.2 0.85 34.25 2.95 34.25 2.0 31.05 5.4 30.05 L5.7 29.75 5.3 29.5 Q1.5 28.65 1.1 22.0 L0.9 17.4 Q0.75 15.25 0.0 15.0 -0.75 15.25 -0.9 17.4 L-1.1 22.0 Q-1.5 28.65 -5.3 29.5 L-5.7 29.75 -5.4 30.05 Q-2.0 31.05 -2.95 34.25 -0.85 34.25 -1.0 36.2 -1.05 37.15 -1.75 37.65 L-3.5 39.05 Q-4.7 40.15 -5.0 41.0 -12.35 40.2 -15.05 45.0 -18.0 42.55 -16.95 39.55 -15.9 36.5 -12.05 37.0 -14.25 32.2 -13.15 23.1 -12.1 14.2 -9.0 10.0 -11.6 9.95 -11.8 1.6 -11.7 -11.7 -12.05 -21.75 L-14.05 -20.05 -14.05 -20.0 Q-13.45 -12.75 -13.4 -8.0 -13.35 -4.65 -13.65 9.7 -13.85 20.85 -16.15 30.7 -17.25 35.6 -18.35 38.3 -20.75 44.1 -19.8 47.85 -18.8 51.6 -14.55 52.5 -15.5 47.45 -11.95 44.6 -8.35 41.7 -4.0 44.0 -3.4 40.7 0.0 39.0 3.4 40.7 4.0 44.0 8.35 41.7 11.95 44.6 15.5 47.45 14.55 52.5 18.8 51.6 19.8 47.85 20.75 44.1 18.35 38.3 17.25 35.6 16.15 30.7 13.85 20.85 13.65 9.7 13.35 -4.65 13.4 -8.0 13.45 -12.75 14.05 -20.0 L14.05 -20.05 12.05 -21.75 M-13.95 -20.15 L-12.0 -21.85 M-1.2 31.5 L0.0 33.5 1.2 31.5 0.7 30.5 0.0 30.5 -0.7 30.5 -1.2 31.5 M-2.5 48.0 L0.0 44.0 2.5 48.0 Q0.4 50.1 0.5 56.0 L0.0 56.15 -0.5 56.0 Q-0.4 50.1 -2.5 48.0" fill="none" stroke="#2b2622" stroke-linecap="round" stroke-linejoin="round" stroke-opacity="0.5019608" stroke-width="0.5"/>
    <path d="M8.0 -38.0 Q9.15 -33.35 7.05 -28.1 5.0 -22.9 0.2 -18.2 L0.0 -18.0 Q-4.95 -22.8 -7.05 -28.1 -9.15 -33.35 -8.0 -38.0 -7.35 -40.6 -5.05 -42.3 -3.35 -43.55 -1.4 -43.85 L0.0 -46.0 1.4 -43.85 Q3.35 -43.55 5.05 -42.3 7.35 -40.6 8.0 -38.0" fill="url(#gradient14)" fill-rule="evenodd" stroke="none"/>
    <path d="M16.75 -15.8 Q15.75 -16.75 14.3 -19.8 M-16.8 -15.85 Q-15.8 -16.75 -14.35 -19.8" fill="none" stroke="#000000" stroke-linecap="round" stroke-linejoin="round" stroke-opacity="0.6" stroke-width="0.5"/>
    <path d="M14.3 -19.8 Q9.0 -24.95 0.95 -27.0 M-14.35 -19.8 Q-9.05 -24.95 -1.0 -27.0" fill="none" stroke="#000000" stroke-linecap="round" stroke-linejoin="round" stroke-opacity="0.3529412" stroke-width="0.5"/>
    <path d="M4.9 -31.0 Q3.5 -27.45 0.2 -24.2 L0.0 -24.0 Q-2.05 -26.0 -3.4 -28.1 L-4.9 -31.0 Q-6.35 -34.65 -5.55 -37.85 -5.1 -39.65 -3.5 -40.85 -1.9 -42.0 0.0 -42.0 1.9 -42.0 3.5 -40.85 5.1 -39.65 5.55 -37.85 6.35 -34.65 4.9 -31.0" fill="url(#gradient15)" fill-rule="evenodd" stroke="none"/>
    <path d="M4.4 -31.4 Q3.15 -28.2 0.2 -25.3 L0.0 -25.1 Q-1.5 -26.55 -2.6 -28.1 -3.75 -29.7 -4.4 -31.4 -5.7 -34.7 -5.0 -37.55 -4.6 -39.2 -3.15 -40.25 -1.7 -41.3 0.0 -41.3 1.7 -41.3 3.15 -40.25 4.6 -39.2 5.0 -37.55 5.7 -34.7 4.4 -31.4" fill="url(#gradient16)" fill-rule="evenodd" stroke="none"/>
  </g>
  <defs>
    <linearGradient gradientTransform="matrix(0.0035, 1.0E-4, -2.0E-4, 0.0073, 21.45, -15.45)" gradientUnits="userSpaceOnUse" id="gradient0" spreadMethod="pad" x1="-819.2" x2="819.2">
      <stop offset="0.1411764705882353" stop-color="#645453"/>
      <stop offset="0.24313725490196078" stop-color="#705e5c"/>
      <stop offset="0.39215686274509803" stop-color="#705f5c"/>
      <stop offset="0.6509803921568628" stop-color="#4e413f"/>
      <stop offset="0.8156862745098039" stop-color="#62514f"/>
    </linearGradient>
    <linearGradient gradientTransform="matrix(-0.0035, 1.0E-4, 2.0E-4, 0.0073, -21.25, -15.45)" gradientUnits="userSpaceOnUse" id="gradient1" spreadMethod="pad" x1="-819.2" x2="819.2">
      <stop offset="0.1411764705882353" stop-color="#645453"/>
      <stop offset="0.24313725490196078" stop-color="#705e5c"/>
      <stop offset="0.39215686274509803" stop-color="#705f5c"/>
      <stop offset="0.6509803921568628" stop-color="#4e413f"/>
      <stop offset="0.8156862745098039" stop-color="#62514f"/>
    </linearGradient>
    <radialGradient cx="0" cy="0" fx="-1526.4" fy="0" gradientTransform="matrix(-0.0125, -0.0859, 0.0256, -0.0037, 22.2, 33.4)" gradientUnits="userSpaceOnUse" id="gradient2" r="819.2" spreadMethod="pad">
      <stop offset="0.050980392156862744" stop-color="#7d737b"/>
      <stop offset="0.11764705882352941" stop-color="#6a6268"/>
      <stop offset="0.2196078431372549" stop-color="#554f53"/>
      <stop offset="0.6313725490196078" stop-color="#444043"/>
      <stop offset="0.788235294117647" stop-color="#363436"/>
      <stop offset="0.9215686274509803" stop-color="#52494d"/>
    </radialGradient>
    <radialGradient cx="0" cy="0" fx="-1526.4" fy="0" gradientTransform="matrix(0.0125, -0.0859, -0.0256, -0.0037, -22.2, 33.4)" gradientUnits="userSpaceOnUse" id="gradient3" r="819.2" spreadMethod="pad">
      <stop offset="0.050980392156862744" stop-color="#7d737b"/>
      <stop offset="0.11764705882352941" stop-color="#6a6268"/>
      <stop offset="0.2196078431372549" stop-color="#554f53"/>
      <stop offset="0.6313725490196078" stop-color="#444043"/>
      <stop offset="0.788235294117647" stop-color="#363436"/>
      <stop offset="0.9215686274509803" stop-color="#52494d"/>
    </radialGradient>
    <radialGradient cx="0" cy="0" gradientTransform="matrix(1.0E-4, -0.2328, 0.0374, 0.0, 0.0, 60.0)" gradientUnits="userSpaceOnUse" id="gradient4" r="819.2" spreadMethod="pad">
      <stop offset="0.050980392156862744" stop-color="#606060"/>
      <stop offset="0.17647058823529413" stop-color="#4e4e4e"/>
      <stop offset="0.4470588235294118" stop-color="#3c3c3c"/>
      <stop offset="0.5843137254901961" stop-color="#232323"/>
      <stop offset="0.6862745098039216" stop-color="#232323"/>
      <stop offset="0.792156862745098" stop-color="#313131"/>
      <stop offset="1.0" stop-color="#202020"/>
    </radialGradient>
    <linearGradient gradientTransform="matrix(0.0027, 3.0E-4, -0.0011, 0.0085, -18.55, -54.8)" gradientUnits="userSpaceOnUse" id="gradient5" spreadMethod="pad" x1="-819.2" x2="819.2">
      <stop offset="0.0" stop-color="#4f484c"/>
      <stop offset="0.5764705882352941" stop-color="#4f484c"/>
      <stop offset="1.0" stop-color="#3c3a3d"/>
    </linearGradient>
    <linearGradient gradientTransform="matrix(0.0023, 0.0, 0.0, 0.0085, -15.15, -55.35)" gradientUnits="userSpaceOnUse" id="gradient6" spreadMethod="pad" x1="-819.2" x2="819.2">
      <stop offset="0.0" stop-color="#585256"/>
      <stop offset="0.5176470588235295" stop-color="#5b5558"/>
      <stop offset="1.0" stop-color="#3a3639"/>
    </linearGradient>
    <linearGradient gradientTransform="matrix(0.0037, -6.0E-4, 0.0013, 0.0085, 18.45, -54.85)" gradientUnits="userSpaceOnUse" id="gradient7" spreadMethod="pad" x1="-819.2" x2="819.2">
      <stop offset="0.01568627450980392" stop-color="#4a4346"/>
      <stop offset="0.9176470588235294" stop-color="#898389"/>
    </linearGradient>
    <linearGradient gradientTransform="matrix(0.0088, 0.0, 0.0, 0.0085, 7.0, -55.0)" gradientUnits="userSpaceOnUse" id="gradient8" spreadMethod="pad" x1="-819.2" x2="819.2">
      <stop offset="0.0" stop-color="#8d878c"/>
      <stop offset="1.0" stop-color="#7b757a"/>
    </linearGradient>
    <linearGradient gradientTransform="matrix(0.0083, 0.0, 0.0, 0.0085, -6.9, -71.0)" gradientUnits="userSpaceOnUse" id="gradient9" spreadMethod="pad" x1="-819.2" x2="819.2">
      <stop offset="0.0" stop-color="#585256"/>
      <stop offset="1.0" stop-color="#4a4346"/>
    </linearGradient>
    <linearGradient gradientTransform="matrix(0.0023, 1.0E-4, -3.0E-4, 0.0085, 15.35, -56.7)" gradientUnits="userSpaceOnUse" id="gradient10" spreadMethod="pad" x1="-819.2" x2="819.2">
      <stop offset="0.0" stop-color="#5a5458"/>
      <stop offset="0.10588235294117647" stop-color="#656165"/>
      <stop offset="0.5843137254901961" stop-color="#6d676d"/>
    </linearGradient>
    <radialGradient cx="0" cy="0" gradientTransform="matrix(0.0, -0.0684, 0.0374, 0.0, 0.0, -50.0)" gradientUnits="userSpaceOnUse" id="gradient11" r="819.2" spreadMethod="pad">
      <stop offset="0.10196078431372549" stop-color="#515151"/>
      <stop offset="0.36470588235294116" stop-color="#3c3c3c"/>
      <stop offset="0.5843137254901961" stop-color="#232323"/>
      <stop offset="0.6862745098039216" stop-color="#232323"/>
      <stop offset="0.792156862745098" stop-color="#313131"/>
      <stop offset="1.0" stop-color="#202020"/>
    </radialGradient>
    <radialGradient cx="0" cy="0" gradientTransform="matrix(0.0461, 0.0, 0.0, 0.1484, 0.05, -53.1)" gradientUnits="userSpaceOnUse" id="gradient12" r="819.2" spreadMethod="pad">
      <stop offset="0.050980392156862744" stop-color="#c1bb9f"/>
      <stop offset="0.10980392156862745" stop-color="#bcaf98"/>
      <stop offset="0.25098039215686274" stop-color="#92886d"/>
      <stop offset="0.40784313725490196" stop-color="#4f473e"/>
      <stop offset="0.5058823529411764" stop-color="#61594d"/>
      <stop offset="0.6666666666666666" stop-color="#92886d"/>
      <stop offset="1.0" stop-color="#8c8264"/>
    </radialGradient>
    <radialGradient cx="0" cy="0" gradientTransform="matrix(0.0537, 0.0, 0.0, 0.1055, 0.0, 44.0)" gradientUnits="userSpaceOnUse" id="gradient13" r="819.2" spreadMethod="pad">
      <stop offset="0.0196078431372549" stop-color="#e1ddd5"/>
      <stop offset="0.12941176470588237" stop-color="#b9b0a2"/>
      <stop offset="0.25098039215686274" stop-color="#92886d"/>
      <stop offset="0.40784313725490196" stop-color="#4f473e"/>
      <stop offset="0.5058823529411764" stop-color="#61594d"/>
      <stop offset="0.6666666666666666" stop-color="#92886d"/>
      <stop offset="0.796078431372549" stop-color="#4f473e"/>
    </radialGradient>
    <radialGradient cx="0" cy="0" gradientTransform="matrix(-2.0E-4, -0.0343, 0.0244, -1.0E-4, 0.0, -18.0)" gradientUnits="userSpaceOnUse" id="gradient14" r="819.2" spreadMethod="pad">
      <stop offset="0.1568627450980392" stop-color="#989898"/>
      <stop offset="0.26666666666666666" stop-color="#717171"/>
      <stop offset="0.592156862745098" stop-color="#565656"/>
      <stop offset="0.6862745098039216" stop-color="#2e2e2e"/>
      <stop offset="0.8901960784313725" stop-color="#262626"/>
    </radialGradient>
    <linearGradient gradientTransform="matrix(0.0, 0.0114, -0.011, 0.0, 0.0, -33.0)" gradientUnits="userSpaceOnUse" id="gradient15" spreadMethod="pad" x1="-819.2" x2="819.2">
      <stop offset="0.11372549019607843" stop-color="#585858"/>
      <stop offset="0.42745098039215684" stop-color="#2e2e2e"/>
      <stop offset="0.7803921568627451" stop-color="#464646"/>
      <stop offset="0.8941176470588236" stop-color="#5b5b5b"/>
    </linearGradient>
    <radialGradient cx="0" cy="0" fx="364.8" fy="0" gradientTransform="matrix(1.0E-4, -0.01, 0.0077, 1.0E-4, 0.0, -34.2)" gradientUnits="userSpaceOnUse" id="gradient16" r="819.2" spreadMethod="pad">
      <stop offset="0.13333333333333333" stop-color="#ffffff"/>
      <stop offset="0.20784313725490197" stop-color="#790d43"/>
      <stop offset="0.34509803921568627" stop-color="#7e0e46"/>
      <stop offset="0.4392156862745098" stop-color="#ce1c75"/>
      <stop offset="0.7607843137254902" stop-color="#870e4b"/>
      <stop offset="0.9529411764705882" stop-color="#f83899"/>
    </radialGradient>
  </defs>
</svg>
