<?xml version="1.0" encoding="UTF-8" standalone="no"?>
<svg xmlns:xlink="http://www.w3.org/1999/xlink" height="694.1px" width="664.8px" xmlns="http://www.w3.org/2000/svg">
  <g transform="matrix(1.0, 0.0, 0.0, 1.0, 291.65, 384.0)">
    <path d="M-201.05 -367.8 L-201.05 -384.0 266.35 -384.0 266.35 -367.8 197.75 -367.8 -201.05 -367.8" fill="url(#gradient0)" fill-rule="evenodd" stroke="none"/>
    <path d="M197.75 -367.8 L197.75 -362.4 122.65 -362.4 -243.75 -362.4 -243.75 -367.8 -201.05 -367.8 197.75 -367.8" fill="url(#gradient1)" fill-rule="evenodd" stroke="none"/>
    <path d="M241.75 -286.9 L241.75 -282.6 206.9 -282.6 -98.75 -282.6 -98.75 -286.9 -67.65 -286.9 241.75 -286.9" fill="url(#gradient2)" fill-rule="evenodd" stroke="none"/>
    <path d="M206.9 -282.6 L206.9 -278.25 -175.05 -278.25 -175.05 -282.6 -98.75 -282.6 206.9 -282.6" fill="url(#gradient3)" fill-rule="evenodd" stroke="none"/>
    <path d="M206.9 -278.25 L209.05 -278.25 209.05 -276.1 -198.85 -276.1 -198.85 -278.25 -175.05 -278.25 206.9 -278.25" fill="url(#gradient4)" fill-rule="evenodd" stroke="none"/>
    <path d="M209.05 -276.1 L230.9 -276.1 230.9 -244.8 -166.35 -244.8 -252.05 -244.8 -252.05 -276.1 -198.85 -276.1 209.05 -276.1" fill="url(#gradient5)" fill-rule="evenodd" stroke="none"/>
    <path d="M186.05 -240.5 L186.05 -229.7 -81.9 -229.7 -146.65 -229.7 -146.65 -240.5 186.05 -240.5" fill="url(#gradient6)" fill-rule="evenodd" stroke="none"/>
    <path d="M230.9 -244.8 L257.0 -244.8 257.0 -240.5 186.05 -240.5 -146.65 -240.5 -166.35 -240.5 -166.35 -244.8 230.9 -244.8" fill="url(#gradient7)" fill-rule="evenodd" stroke="none"/>
    <path d="M186.05 -229.7 L243.05 -229.7 243.05 -221.05 -35.35 -221.05 -81.9 -221.05 -81.9 -229.7 186.05 -229.7" fill="url(#gradient8)" fill-rule="evenodd" stroke="none"/>
    <path d="M243.05 -221.05 L243.05 -213.5 -35.35 -213.5 -35.35 -221.05 243.05 -221.05" fill="url(#gradient9)" fill-rule="evenodd" stroke="none"/>
    <path d="M243.05 -213.5 L259.2 -213.5 259.2 -210.3 259.2 -177.9 -112.0 -177.9 -157.0 -177.9 -157.0 -213.5 -35.35 -213.5 243.05 -213.5" fill="url(#gradient10)" fill-rule="evenodd" stroke="none"/>
    <path d="M259.2 -213.5 L275.4 -213.5 275.4 -210.3 259.2 -210.3 259.2 -213.5" fill="url(#gradient11)" fill-rule="evenodd" stroke="none"/>
    <path d="M147.25 -312.8 L294.85 -312.8 294.85 -286.9 241.75 -286.9 -67.65 -286.9 -67.65 -312.8 147.25 -312.8" fill="url(#gradient12)" fill-rule="evenodd" stroke="none"/>
    <path d="M122.65 -362.4 L122.65 -355.95 122.45 -355.95 -281.5 -355.95 -291.65 -355.95 -291.65 -362.4 -243.75 -362.4 122.65 -362.4" fill="url(#gradient13)" fill-rule="evenodd" stroke="none"/>
    <path d="M101.95 -331.15 L101.95 -319.25 -162.15 -319.25 -199.75 -319.25 -199.75 -331.15 101.95 -331.15" fill="url(#gradient14)" fill-rule="evenodd" stroke="none"/>
    <path d="M101.95 -319.25 L147.25 -319.25 147.25 -312.8 -67.65 -312.8 -162.15 -312.8 -162.15 -319.25 101.95 -319.25" fill="url(#gradient15)" fill-rule="evenodd" stroke="none"/>
    <path d="M122.45 -355.95 L122.45 -331.15 101.95 -331.15 -199.75 -331.15 -281.5 -331.15 -281.5 -355.95 122.45 -355.95" fill="url(#gradient16)" fill-rule="evenodd" stroke="none"/>
    <path d="M285.5 -169.3 L311.4 -169.3 311.4 -167.15 13.65 -167.15 13.65 -169.3 285.5 -169.3" fill="url(#gradient17)" fill-rule="evenodd" stroke="none"/>
    <path d="M259.2 -177.9 L285.5 -177.9 285.5 -169.3 13.65 -169.3 -112.0 -169.3 -112.0 -177.9 259.2 -177.9" fill="url(#gradient18)" fill-rule="evenodd" stroke="none"/>
    <path d="M253.4 -132.6 L258.65 -132.6 258.65 -123.95 -63.75 -123.95 -63.75 -132.6 -43.05 -132.6 253.4 -132.6" fill="url(#gradient19)" fill-rule="evenodd" stroke="none"/>
    <path d="M258.65 -123.95 L318.2 -123.95 318.2 -116.4 -92.25 -116.4 -92.25 -123.95 -63.75 -123.95 258.65 -123.95" fill="url(#gradient20)" fill-rule="evenodd" stroke="none"/>
    <path d="M253.4 -150.95 L253.4 -132.6 -43.05 -132.6 -43.05 -150.95 -31.2 -150.95 253.4 -150.95" fill="url(#gradient21)" fill-rule="evenodd" stroke="none"/>
    <path d="M197.75 -69.85 L197.75 -59.05 -79.3 -59.05 -79.3 -69.85 -43.05 -69.85 197.75 -69.85" fill="url(#gradient22)" fill-rule="evenodd" stroke="none"/>
    <path d="M180.2 -38.55 L180.2 -31.0 -146.1 -31.0 -146.1 -38.55 -125.95 -38.55 180.2 -38.55" fill="url(#gradient23)" fill-rule="evenodd" stroke="none"/>
    <path d="M197.75 -59.05 L221.05 -59.05 221.05 -38.55 180.2 -38.55 -125.95 -38.55 -125.95 -59.05 -79.3 -59.05 197.75 -59.05" fill="url(#gradient24)" fill-rule="evenodd" stroke="none"/>
    <path d="M-43.05 -69.85 L-43.05 -83.9 261.2 -83.9 261.2 -69.85 197.75 -69.85 -43.05 -69.85" fill="url(#gradient25)" fill-rule="evenodd" stroke="none"/>
    <path d="M180.2 -31.0 L289.25 -31.0 289.25 -11.6 209.4 -11.6 -195.85 -11.6 -228.6 -11.6 -228.6 -31.0 -146.1 -31.0 180.2 -31.0" fill="url(#gradient26)" fill-rule="evenodd" stroke="none"/>
    <path d="M311.4 -167.15 L336.5 -167.15 336.5 -150.95 253.4 -150.95 -31.2 -150.95 -31.2 -167.15 13.65 -167.15 311.4 -167.15" fill="url(#gradient27)" fill-rule="evenodd" stroke="none"/>
    <path d="M-113.35 -100.05 L-123.35 -100.05 -123.35 -114.1 350.55 -114.1 350.55 -100.05 -113.35 -100.05" fill="url(#gradient28)" fill-rule="evenodd" stroke="none"/>
    <path d="M-113.35 -88.2 L-113.35 -100.05 350.55 -100.05 360.55 -100.05 360.55 -88.2 342.05 -88.2 -113.35 -88.2" fill="url(#gradient29)" fill-rule="evenodd" stroke="none"/>
    <path d="M-43.05 -83.9 L-129.15 -83.9 -129.15 -88.2 -113.35 -88.2 342.05 -88.2 342.05 -83.9 261.2 -83.9 -43.05 -83.9" fill="url(#gradient30)" fill-rule="evenodd" stroke="none"/>
    <path d="M320.4 117.9 L345.0 117.9 345.0 140.55 -74.5 140.55 -74.5 117.9 320.4 117.9" fill="url(#gradient31)" fill-rule="evenodd" stroke="none"/>
    <path d="M-92.25 164.25 L-92.25 156.95 338.9 156.95 338.9 164.5 311.85 164.5 -92.25 164.5 -92.25 164.25" fill="url(#gradient32)" fill-rule="evenodd" stroke="none"/>
    <path d="M345.0 140.55 L373.15 140.55 373.15 156.7 -240.6 156.7 -240.6 140.55 -74.5 140.55 345.0 140.55" fill="url(#gradient33)" fill-rule="evenodd" stroke="none"/>
    <path d="M323.35 92.0 L326.6 92.0 326.6 112.5 320.4 112.5 -108.1 112.5 -202.95 112.5 -202.95 92.0 -63.75 92.0 323.35 92.0" fill="url(#gradient34)" fill-rule="evenodd" stroke="none"/>
    <path d="M-145.2 63.95 L-233.45 63.95 -233.45 53.15 240.25 53.15 255.95 53.15 255.95 63.95 -145.2 63.95" fill="url(#gradient35)" fill-rule="evenodd" stroke="none"/>
    <path d="M-145.2 82.25 L-145.2 63.95 255.95 63.95 260.1 63.95 260.1 82.25 176.9 82.25 -145.2 82.25" fill="url(#gradient36)" fill-rule="evenodd" stroke="none"/>
    <path d="M-63.75 92.0 L-63.75 89.8 176.9 89.8 323.35 89.8 323.35 92.0 -63.75 92.0" fill="url(#gradient37)" fill-rule="evenodd" stroke="none"/>
    <path d="M195.8 37.9 L222.5 37.9 222.5 42.2 -246.25 42.2 -246.25 37.9 -164.15 37.9 195.8 37.9" fill="url(#gradient38)" fill-rule="evenodd" stroke="none"/>
    <path d="M-164.15 37.9 L-164.15 27.25 195.8 27.25 195.8 37.9 -164.15 37.9" fill="url(#gradient39)" fill-rule="evenodd" stroke="none"/>
    <path d="M93.5 6.55 L164.6 6.55 164.6 27.05 -239.4 27.05 -239.4 6.55 93.5 6.55" fill="url(#gradient40)" fill-rule="evenodd" stroke="none"/>
    <path d="M-63.75 89.8 L-149.4 89.8 -149.4 82.25 -145.2 82.25 176.9 82.25 176.9 89.8 -63.75 89.8" fill="url(#gradient41)" fill-rule="evenodd" stroke="none"/>
    <path d="M-233.45 53.15 L-251.75 53.15 -251.75 42.35 240.25 42.35 240.25 53.15 -233.45 53.15" fill="url(#gradient42)" fill-rule="evenodd" stroke="none"/>
    <path d="M320.4 112.5 L320.4 117.9 -74.5 117.9 -108.1 117.9 -108.1 112.5 320.4 112.5" fill="url(#gradient43)" fill-rule="evenodd" stroke="none"/>
    <path d="M-24.95 186.95 L-138.75 186.95 -138.75 164.25 -92.25 164.25 -92.25 164.5 311.85 164.5 311.85 186.95 307.8 186.95 -24.95 186.95" fill="url(#gradient44)" fill-rule="evenodd" stroke="none"/>
    <path d="M307.8 186.95 L307.8 189.1 289.25 189.1 -24.95 189.1 -24.95 186.95 307.8 186.95" fill="url(#gradient45)" fill-rule="evenodd" stroke="none"/>
    <path d="M93.5 2.95 L93.5 6.55 -239.4 6.55 -267.7 6.55 -267.7 3.5 -85.8 2.75 27.5 2.25 93.5 2.25 93.5 2.95" fill="url(#gradient46)" fill-rule="evenodd" stroke="none"/>
    <path d="M209.4 -11.6 L209.4 2.45 93.5 2.95 93.5 2.25 27.5 2.25 -85.8 2.75 -85.8 2.45 -154.55 2.75 -195.85 2.45 -195.85 -11.6 209.4 -11.6" fill="url(#gradient47)" fill-rule="evenodd" stroke="none"/>
    <path d="M162.6 259.2 L176.35 259.2 176.35 268.9 176.35 271.1 166.4 271.1 166.4 268.9 165.75 268.9 122.35 268.9 122.35 270.0 35.6 270.0 35.6 268.9 -151.45 268.9 -222.4 268.9 -222.4 259.2 -218.05 259.2 162.6 259.2" fill="url(#gradient48)" fill-rule="evenodd" stroke="none"/>
    <path d="M176.35 268.9 L209.75 268.9 209.75 275.55 -148.5 275.55 -148.5 276.45 -151.45 276.45 -151.45 268.9 35.6 268.9 35.6 270.0 122.35 270.0 165.75 270.0 165.75 268.9 166.4 268.9 166.4 271.1 176.35 271.1 176.35 268.9" fill="url(#gradient49)" fill-rule="evenodd" stroke="none"/>
    <path d="M289.25 189.1 L289.25 206.35 285.45 206.35 285.45 205.25 275.85 205.25 275.85 204.25 235.25 204.25 235.25 205.25 235.05 205.25 235.05 204.25 231.45 204.25 -171.65 204.25 -171.65 189.1 -24.95 189.1 289.25 189.1" fill="url(#gradient50)" fill-rule="evenodd" stroke="none"/>
    <path d="M275.85 205.25 L275.85 214.0 -198.05 214.0 -198.05 204.25 -171.65 204.25 231.45 204.25 231.45 205.35 235.25 205.35 235.25 205.25 235.25 204.25 275.85 204.25 275.85 205.25" fill="url(#gradient51)" fill-rule="evenodd" stroke="none"/>
    <path d="M209.75 275.55 L243.8 275.55 243.8 291.75 -95.35 291.75 -148.5 291.75 -148.5 276.45 -148.5 275.55 209.75 275.55" fill="url(#gradient52)" fill-rule="evenodd" stroke="none"/>
    <path d="M243.8 291.75 L249.05 291.75 249.05 310.1 -95.35 310.1 -95.35 291.75 243.8 291.75" fill="url(#gradient53)" fill-rule="evenodd" stroke="none"/>
    <path d="M-216.55 235.5 L-216.55 215.0 178.4 215.0 178.4 235.5 162.6 235.5 -216.55 235.5" fill="url(#gradient54)" fill-rule="evenodd" stroke="none"/>
    <path d="M-216.55 235.5 L162.6 235.5 162.6 259.2 -218.05 259.2 -218.05 235.5 -216.55 235.5" fill="url(#gradient55)" fill-rule="evenodd" stroke="none"/>
  </g>
  <defs>
    <radialGradient cx="0" cy="0" gradientTransform="matrix(0.2855, 0.0, 0.0, 0.2379, 32.65, -375.9)" gradientUnits="userSpaceOnUse" id="gradient0" r="819.2" spreadMethod="pad">
      <stop offset="0.0" stop-color="#ffd50d"/>
      <stop offset="1.0" stop-color="#ffd50d" stop-opacity="0.0"/>
    </radialGradient>
    <radialGradient cx="0" cy="0" gradientTransform="matrix(0.2695, 0.0, 0.0, 0.2246, -23.05, -365.1)" gradientUnits="userSpaceOnUse" id="gradient1" r="819.2" spreadMethod="pad">
      <stop offset="0.0" stop-color="#ffd50d"/>
      <stop offset="1.0" stop-color="#ffd50d" stop-opacity="0.0"/>
    </radialGradient>
    <radialGradient cx="0" cy="0" gradientTransform="matrix(0.2079, 0.0, 0.0, 0.1732, 71.45, -284.75)" gradientUnits="userSpaceOnUse" id="gradient2" r="819.2" spreadMethod="pad">
      <stop offset="0.0" stop-color="#ffd50d"/>
      <stop offset="1.0" stop-color="#ffd50d" stop-opacity="0.0"/>
    </radialGradient>
    <radialGradient cx="0" cy="0" gradientTransform="matrix(0.2331, 0.0, 0.0, 0.1943, 15.9, -280.45)" gradientUnits="userSpaceOnUse" id="gradient3" r="819.2" spreadMethod="pad">
      <stop offset="0.0" stop-color="#ffd50d"/>
      <stop offset="1.0" stop-color="#ffd50d" stop-opacity="0.0"/>
    </radialGradient>
    <radialGradient cx="0" cy="0" gradientTransform="matrix(0.2489, 0.0, 0.0, 0.2075, 5.1, -276.1)" gradientUnits="userSpaceOnUse" id="gradient4" r="819.2" spreadMethod="pad">
      <stop offset="0.0" stop-color="#ffd50d"/>
      <stop offset="1.0" stop-color="#ffd50d" stop-opacity="0.0"/>
    </radialGradient>
    <radialGradient cx="0" cy="0" gradientTransform="matrix(0.2957, 0.0, 0.0, 0.2464, -10.6, -260.45)" gradientUnits="userSpaceOnUse" id="gradient5" r="819.2" spreadMethod="pad">
      <stop offset="0.0" stop-color="#ffd50d"/>
      <stop offset="1.0" stop-color="#ffd50d" stop-opacity="0.0"/>
    </radialGradient>
    <radialGradient cx="0" cy="0" gradientTransform="matrix(0.2032, 0.0, 0.0, 0.1694, 19.7, -235.1)" gradientUnits="userSpaceOnUse" id="gradient6" r="819.2" spreadMethod="pad">
      <stop offset="0.0" stop-color="#ffd50d"/>
      <stop offset="1.0" stop-color="#ffd50d" stop-opacity="0.0"/>
    </radialGradient>
    <radialGradient cx="0" cy="0" gradientTransform="matrix(0.2584, 0.0, 0.0, 0.2153, 45.3, -242.65)" gradientUnits="userSpaceOnUse" id="gradient7" r="819.2" spreadMethod="pad">
      <stop offset="0.0" stop-color="#ffd50d"/>
      <stop offset="1.0" stop-color="#ffd50d" stop-opacity="0.0"/>
    </radialGradient>
    <radialGradient cx="0" cy="0" gradientTransform="matrix(0.1984, 0.0, 0.0, 0.1653, 80.6, -225.4)" gradientUnits="userSpaceOnUse" id="gradient8" r="819.2" spreadMethod="pad">
      <stop offset="0.0" stop-color="#ffd50d"/>
      <stop offset="1.0" stop-color="#ffd50d" stop-opacity="0.0"/>
    </radialGradient>
    <radialGradient cx="0" cy="0" gradientTransform="matrix(0.1701, 0.0, 0.0, 0.1417, 103.85, -216.75)" gradientUnits="userSpaceOnUse" id="gradient9" r="819.2" spreadMethod="pad">
      <stop offset="0.0" stop-color="#ffd50d"/>
      <stop offset="1.0" stop-color="#ffd50d" stop-opacity="0.0"/>
    </radialGradient>
    <radialGradient cx="0" cy="0" gradientTransform="matrix(0.2554, 0.0, 0.0, 0.2128, 51.05, -195.7)" gradientUnits="userSpaceOnUse" id="gradient10" r="819.2" spreadMethod="pad">
      <stop offset="0.0" stop-color="#ffd50d"/>
      <stop offset="1.0" stop-color="#ffd50d" stop-opacity="0.0"/>
    </radialGradient>
    <radialGradient cx="0" cy="0" gradientTransform="matrix(0.2031, 0.0, 0.0, 0.1693, 109.05, -211.9)" gradientUnits="userSpaceOnUse" id="gradient11" r="819.2" spreadMethod="pad">
      <stop offset="0.0" stop-color="#ffd50d"/>
      <stop offset="1.0" stop-color="#ffd50d" stop-opacity="0.0"/>
    </radialGradient>
    <radialGradient cx="0" cy="0" gradientTransform="matrix(0.2221, 0.0, 0.0, 0.1851, 113.6, -299.85)" gradientUnits="userSpaceOnUse" id="gradient12" r="819.2" spreadMethod="pad">
      <stop offset="0.0" stop-color="#ffd50d"/>
      <stop offset="1.0" stop-color="#ffd50d" stop-opacity="0.0"/>
    </radialGradient>
    <radialGradient cx="0" cy="0" gradientTransform="matrix(0.253, 0.0, 0.0, 0.2108, -84.55, -359.2)" gradientUnits="userSpaceOnUse" id="gradient13" r="819.2" spreadMethod="pad">
      <stop offset="0.0" stop-color="#ffd50d"/>
      <stop offset="1.0" stop-color="#ffd50d" stop-opacity="0.0"/>
    </radialGradient>
    <radialGradient cx="0" cy="0" gradientTransform="matrix(0.1844, 0.0, 0.0, 0.1536, -48.9, -325.2)" gradientUnits="userSpaceOnUse" id="gradient14" r="819.2" spreadMethod="pad">
      <stop offset="0.0" stop-color="#ffd50d"/>
      <stop offset="1.0" stop-color="#ffd50d" stop-opacity="0.0"/>
    </radialGradient>
    <radialGradient cx="0" cy="0" gradientTransform="matrix(0.189, 0.0, 0.0, 0.1575, -7.5, -316.05)" gradientUnits="userSpaceOnUse" id="gradient15" r="819.2" spreadMethod="pad">
      <stop offset="0.0" stop-color="#ffd50d"/>
      <stop offset="1.0" stop-color="#ffd50d" stop-opacity="0.0"/>
    </radialGradient>
    <radialGradient cx="0" cy="0" gradientTransform="matrix(0.2473, 0.0, 0.0, 0.2061, -79.55, -343.55)" gradientUnits="userSpaceOnUse" id="gradient16" r="819.2" spreadMethod="pad">
      <stop offset="0.0" stop-color="#ffd50d"/>
      <stop offset="1.0" stop-color="#ffd50d" stop-opacity="0.0"/>
    </radialGradient>
    <radialGradient cx="0" cy="0" gradientTransform="matrix(0.1818, 0.0, 0.0, 0.1515, 162.5, -168.25)" gradientUnits="userSpaceOnUse" id="gradient17" r="819.2" spreadMethod="pad">
      <stop offset="0.0" stop-color="#ffd50d"/>
      <stop offset="1.0" stop-color="#ffd50d" stop-opacity="0.0"/>
    </radialGradient>
    <radialGradient cx="0" cy="0" gradientTransform="matrix(0.2427, 0.0, 0.0, 0.2023, 86.7, -173.6)" gradientUnits="userSpaceOnUse" id="gradient18" r="819.2" spreadMethod="pad">
      <stop offset="0.0" stop-color="#ffd50d"/>
      <stop offset="1.0" stop-color="#ffd50d" stop-opacity="0.0"/>
    </radialGradient>
    <radialGradient cx="0" cy="0" gradientTransform="matrix(0.1969, 0.0, 0.0, 0.1641, 97.45, -128.3)" gradientUnits="userSpaceOnUse" id="gradient19" r="819.2" spreadMethod="pad">
      <stop offset="0.0" stop-color="#ffd50d"/>
      <stop offset="1.0" stop-color="#ffd50d" stop-opacity="0.0"/>
    </radialGradient>
    <radialGradient cx="0" cy="0" gradientTransform="matrix(0.2506, 0.0, 0.0, 0.2089, 112.95, -120.2)" gradientUnits="userSpaceOnUse" id="gradient20" r="819.2" spreadMethod="pad">
      <stop offset="0.0" stop-color="#ffd50d"/>
      <stop offset="1.0" stop-color="#ffd50d" stop-opacity="0.0"/>
    </radialGradient>
    <radialGradient cx="0" cy="0" gradientTransform="matrix(0.1816, 0.0, 0.0, 0.1513, 105.15, -141.25)" gradientUnits="userSpaceOnUse" id="gradient21" r="819.2" spreadMethod="pad">
      <stop offset="0.0" stop-color="#ffd50d"/>
      <stop offset="1.0" stop-color="#ffd50d" stop-opacity="0.0"/>
    </radialGradient>
    <radialGradient cx="0" cy="0" gradientTransform="matrix(0.1693, 0.0, 0.0, 0.1411, 59.25, -64.45)" gradientUnits="userSpaceOnUse" id="gradient22" r="819.2" spreadMethod="pad">
      <stop offset="0.0" stop-color="#ffd50d"/>
      <stop offset="1.0" stop-color="#ffd50d" stop-opacity="0.0"/>
    </radialGradient>
    <radialGradient cx="0" cy="0" gradientTransform="matrix(0.1992, 0.0, 0.0, 0.166, 17.05, -34.8)" gradientUnits="userSpaceOnUse" id="gradient23" r="819.2" spreadMethod="pad">
      <stop offset="0.0" stop-color="#ffd50d"/>
      <stop offset="1.0" stop-color="#ffd50d" stop-opacity="0.0"/>
    </radialGradient>
    <radialGradient cx="0" cy="0" gradientTransform="matrix(0.2123, 0.0, 0.0, 0.1769, 47.55, -48.8)" gradientUnits="userSpaceOnUse" id="gradient24" r="819.2" spreadMethod="pad">
      <stop offset="0.0" stop-color="#ffd50d"/>
      <stop offset="1.0" stop-color="#ffd50d" stop-opacity="0.0"/>
    </radialGradient>
    <radialGradient cx="0" cy="0" gradientTransform="matrix(0.186, 0.0, 0.0, 0.155, 109.05, -76.9)" gradientUnits="userSpaceOnUse" id="gradient25" r="819.2" spreadMethod="pad">
      <stop offset="0.0" stop-color="#ffd50d"/>
      <stop offset="1.0" stop-color="#ffd50d" stop-opacity="0.0"/>
    </radialGradient>
    <radialGradient cx="0" cy="0" gradientTransform="matrix(0.3164, 0.0, 0.0, 0.2637, 30.3, -21.3)" gradientUnits="userSpaceOnUse" id="gradient26" r="819.2" spreadMethod="pad">
      <stop offset="0.0" stop-color="#ffd50d"/>
      <stop offset="1.0" stop-color="#ffd50d" stop-opacity="0.0"/>
    </radialGradient>
    <radialGradient cx="0" cy="0" gradientTransform="matrix(0.2247, 0.0, 0.0, 0.1873, 152.65, -159.05)" gradientUnits="userSpaceOnUse" id="gradient27" r="819.2" spreadMethod="pad">
      <stop offset="0.0" stop-color="#ffd50d"/>
      <stop offset="1.0" stop-color="#ffd50d" stop-opacity="0.0"/>
    </radialGradient>
    <radialGradient cx="0" cy="0" gradientTransform="matrix(0.2895, 0.0, 0.0, 0.2412, 113.6, -107.1)" gradientUnits="userSpaceOnUse" id="gradient28" r="819.2" spreadMethod="pad">
      <stop offset="0.0" stop-color="#ffd50d"/>
      <stop offset="1.0" stop-color="#ffd50d" stop-opacity="0.0"/>
    </radialGradient>
    <radialGradient cx="0" cy="0" gradientTransform="matrix(0.2894, 0.0, 0.0, 0.2411, 123.6, -94.15)" gradientUnits="userSpaceOnUse" id="gradient29" r="819.2" spreadMethod="pad">
      <stop offset="0.0" stop-color="#ffd50d"/>
      <stop offset="1.0" stop-color="#ffd50d" stop-opacity="0.0"/>
    </radialGradient>
    <radialGradient cx="0" cy="0" gradientTransform="matrix(0.2876, 0.0, 0.0, 0.2397, 106.45, -86.05)" gradientUnits="userSpaceOnUse" id="gradient30" r="819.2" spreadMethod="pad">
      <stop offset="0.0" stop-color="#ffd50d"/>
      <stop offset="1.0" stop-color="#ffd50d" stop-opacity="0.0"/>
    </radialGradient>
    <radialGradient cx="0" cy="0" gradientTransform="matrix(0.2566, 0.0, 0.0, 0.2138, 135.25, 129.2)" gradientUnits="userSpaceOnUse" id="gradient31" r="819.2" spreadMethod="pad">
      <stop offset="0.0" stop-color="#ffd50d"/>
      <stop offset="1.0" stop-color="#ffd50d" stop-opacity="0.0"/>
    </radialGradient>
    <radialGradient cx="0" cy="0" gradientTransform="matrix(0.2632, 0.0, 0.0, 0.2194, 123.3, 160.7)" gradientUnits="userSpaceOnUse" id="gradient32" r="819.2" spreadMethod="pad">
      <stop offset="0.0" stop-color="#ffd50d"/>
      <stop offset="1.0" stop-color="#ffd50d" stop-opacity="0.0"/>
    </radialGradient>
    <radialGradient cx="0" cy="0" gradientTransform="matrix(0.3748, 0.0, 0.0, 0.3124, 66.25, 148.6)" gradientUnits="userSpaceOnUse" id="gradient33" r="819.2" spreadMethod="pad">
      <stop offset="0.0" stop-color="#ffd50d"/>
      <stop offset="1.0" stop-color="#ffd50d" stop-opacity="0.0"/>
    </radialGradient>
    <radialGradient cx="0" cy="0" gradientTransform="matrix(0.3236, 0.0, 0.0, 0.2697, 61.8, 102.25)" gradientUnits="userSpaceOnUse" id="gradient34" r="819.2" spreadMethod="pad">
      <stop offset="0.0" stop-color="#ffd50d"/>
      <stop offset="1.0" stop-color="#ffd50d" stop-opacity="0.0"/>
    </radialGradient>
    <radialGradient cx="0" cy="0" gradientTransform="matrix(0.2988, 0.0, 0.0, 0.249, 11.25, 58.55)" gradientUnits="userSpaceOnUse" id="gradient35" r="819.2" spreadMethod="pad">
      <stop offset="0.0" stop-color="#ffd50d"/>
      <stop offset="1.0" stop-color="#ffd50d" stop-opacity="0.0"/>
    </radialGradient>
    <radialGradient cx="0" cy="0" gradientTransform="matrix(0.2478, 0.0, 0.0, 0.2065, 57.45, 73.1)" gradientUnits="userSpaceOnUse" id="gradient36" r="819.2" spreadMethod="pad">
      <stop offset="0.0" stop-color="#ffd50d"/>
      <stop offset="1.0" stop-color="#ffd50d" stop-opacity="0.0"/>
    </radialGradient>
    <radialGradient cx="0" cy="0" gradientTransform="matrix(0.2363, 0.0, 0.0, 0.1969, 129.8, 90.9)" gradientUnits="userSpaceOnUse" id="gradient37" r="819.2" spreadMethod="pad">
      <stop offset="0.0" stop-color="#ffd50d"/>
      <stop offset="1.0" stop-color="#ffd50d" stop-opacity="0.0"/>
    </radialGradient>
    <radialGradient cx="0" cy="0" gradientTransform="matrix(0.2861, 0.0, 0.0, 0.2384, -11.85, 40.05)" gradientUnits="userSpaceOnUse" id="gradient38" r="819.2" spreadMethod="pad">
      <stop offset="0.0" stop-color="#ffd50d"/>
      <stop offset="1.0" stop-color="#ffd50d" stop-opacity="0.0"/>
    </radialGradient>
    <radialGradient cx="0" cy="0" gradientTransform="matrix(0.2199, 0.0, 0.0, 0.1832, 15.8, 32.65)" gradientUnits="userSpaceOnUse" id="gradient39" r="819.2" spreadMethod="pad">
      <stop offset="0.0" stop-color="#ffd50d"/>
      <stop offset="1.0" stop-color="#ffd50d" stop-opacity="0.0"/>
    </radialGradient>
    <radialGradient cx="0" cy="0" gradientTransform="matrix(0.247, 0.0, 0.0, 0.2059, -37.45, 16.8)" gradientUnits="userSpaceOnUse" id="gradient40" r="819.2" spreadMethod="pad">
      <stop offset="0.0" stop-color="#ffd50d"/>
      <stop offset="1.0" stop-color="#ffd50d" stop-opacity="0.0"/>
    </radialGradient>
    <radialGradient cx="0" cy="0" gradientTransform="matrix(0.1992, 0.0, 0.0, 0.166, 13.75, 86.55)" gradientUnits="userSpaceOnUse" id="gradient41" r="819.2" spreadMethod="pad">
      <stop offset="0.0" stop-color="#ffd50d"/>
      <stop offset="1.0" stop-color="#ffd50d" stop-opacity="0.0"/>
    </radialGradient>
    <radialGradient cx="0" cy="0" gradientTransform="matrix(0.3004, 0.0, 0.0, 0.2504, -5.75, 47.75)" gradientUnits="userSpaceOnUse" id="gradient42" r="819.2" spreadMethod="pad">
      <stop offset="0.0" stop-color="#ffd50d"/>
      <stop offset="1.0" stop-color="#ffd50d" stop-opacity="0.0"/>
    </radialGradient>
    <radialGradient cx="0" cy="0" gradientTransform="matrix(0.2616, 0.0, 0.0, 0.218, 106.15, 115.2)" gradientUnits="userSpaceOnUse" id="gradient43" r="819.2" spreadMethod="pad">
      <stop offset="0.0" stop-color="#ffd50d"/>
      <stop offset="1.0" stop-color="#ffd50d" stop-opacity="0.0"/>
    </radialGradient>
    <radialGradient cx="0" cy="0" gradientTransform="matrix(0.2755, 0.0, 0.0, 0.2296, 86.55, 175.6)" gradientUnits="userSpaceOnUse" id="gradient44" r="819.2" spreadMethod="pad">
      <stop offset="0.0" stop-color="#ffd50d"/>
      <stop offset="1.0" stop-color="#ffd50d" stop-opacity="0.0"/>
    </radialGradient>
    <radialGradient cx="0" cy="0" gradientTransform="matrix(0.2031, 0.0, 0.0, 0.1693, 141.45, 188.0)" gradientUnits="userSpaceOnUse" id="gradient45" r="819.2" spreadMethod="pad">
      <stop offset="0.0" stop-color="#ffd50d"/>
      <stop offset="1.0" stop-color="#ffd50d" stop-opacity="0.0"/>
    </radialGradient>
    <radialGradient cx="0" cy="0" gradientTransform="matrix(0.2205, 0.0, 0.0, 0.1837, -87.1, 4.4)" gradientUnits="userSpaceOnUse" id="gradient46" r="819.2" spreadMethod="pad">
      <stop offset="0.0" stop-color="#ffd50d"/>
      <stop offset="1.0" stop-color="#ffd50d" stop-opacity="0.0"/>
    </radialGradient>
    <radialGradient cx="0" cy="0" gradientTransform="matrix(0.2476, 0.0, 0.0, 0.2063, 6.8, -4.6)" gradientUnits="userSpaceOnUse" id="gradient47" r="819.2" spreadMethod="pad">
      <stop offset="0.0" stop-color="#ffd50d"/>
      <stop offset="1.0" stop-color="#ffd50d" stop-opacity="0.0"/>
    </radialGradient>
    <radialGradient cx="0" cy="0" gradientTransform="matrix(0.2435, 0.0, 0.0, 0.2029, -23.05, 265.15)" gradientUnits="userSpaceOnUse" id="gradient48" r="819.2" spreadMethod="pad">
      <stop offset="0.0" stop-color="#ffd50d"/>
      <stop offset="1.0" stop-color="#ffd50d" stop-opacity="0.0"/>
    </radialGradient>
    <radialGradient cx="0" cy="0" gradientTransform="matrix(0.2205, 0.0, 0.0, 0.1838, 29.15, 273.2)" gradientUnits="userSpaceOnUse" id="gradient49" r="819.2" spreadMethod="pad">
      <stop offset="0.0" stop-color="#ffd50d"/>
      <stop offset="1.0" stop-color="#ffd50d" stop-opacity="0.0"/>
    </radialGradient>
    <radialGradient cx="0" cy="0" gradientTransform="matrix(0.2816, 0.0, 0.0, 0.2347, 58.8, 197.7)" gradientUnits="userSpaceOnUse" id="gradient50" r="819.2" spreadMethod="pad">
      <stop offset="0.0" stop-color="#ffd50d"/>
      <stop offset="1.0" stop-color="#ffd50d" stop-opacity="0.0"/>
    </radialGradient>
    <radialGradient cx="0" cy="0" gradientTransform="matrix(0.2893, 0.0, 0.0, 0.2411, 38.9, 209.1)" gradientUnits="userSpaceOnUse" id="gradient51" r="819.2" spreadMethod="pad">
      <stop offset="0.0" stop-color="#ffd50d"/>
      <stop offset="1.0" stop-color="#ffd50d" stop-opacity="0.0"/>
    </radialGradient>
    <radialGradient cx="0" cy="0" gradientTransform="matrix(0.2397, 0.0, 0.0, 0.1998, 47.65, 283.65)" gradientUnits="userSpaceOnUse" id="gradient52" r="819.2" spreadMethod="pad">
      <stop offset="0.0" stop-color="#ffd50d"/>
      <stop offset="1.0" stop-color="#ffd50d" stop-opacity="0.0"/>
    </radialGradient>
    <radialGradient cx="0" cy="0" gradientTransform="matrix(0.2106, 0.0, 0.0, 0.1755, 76.85, 300.9)" gradientUnits="userSpaceOnUse" id="gradient53" r="819.2" spreadMethod="pad">
      <stop offset="0.0" stop-color="#ffd50d"/>
      <stop offset="1.0" stop-color="#ffd50d" stop-opacity="0.0"/>
    </radialGradient>
    <radialGradient cx="0" cy="0" gradientTransform="matrix(0.2415, 0.0, 0.0, 0.2012, -19.05, 225.25)" gradientUnits="userSpaceOnUse" id="gradient54" r="819.2" spreadMethod="pad">
      <stop offset="0.0" stop-color="#ffd50d"/>
      <stop offset="1.0" stop-color="#ffd50d" stop-opacity="0.0"/>
    </radialGradient>
    <radialGradient cx="0" cy="0" gradientTransform="matrix(0.233, 0.0, 0.0, 0.1942, -27.7, 247.35)" gradientUnits="userSpaceOnUse" id="gradient55" r="819.2" spreadMethod="pad">
      <stop offset="0.0" stop-color="#ffd50d"/>
      <stop offset="1.0" stop-color="#ffd50d" stop-opacity="0.0"/>
    </radialGradient>
  </defs>
</svg>
