<?xml version="1.0" encoding="UTF-8" standalone="no"?>
<svg xmlns:xlink="http://www.w3.org/1999/xlink" height="96.0px" width="96.0px" xmlns="http://www.w3.org/2000/svg">
  <g transform="matrix(1.0, 0.0, 0.0, 1.0, 48.0, 48.0)">
    <path d="M22.55 -22.7 Q32.0 -13.3 32.0 0.0 32.0 13.3 22.55 22.55 13.3 32.0 0.0 32.0 -13.3 32.0 -22.7 22.55 -32.0 13.3 -32.0 0.0 -32.0 -13.3 -22.7 -22.7 -13.3 -32.0 0.0 -32.0 13.3 -32.0 22.55 -22.7 M11.35 -11.35 Q6.7 -16.0 0.0 -16.0 -6.7 -16.0 -11.35 -11.35 -16.0 -6.7 -16.0 0.0 -16.0 6.7 -11.35 11.35 -6.7 16.0 0.0 16.0 6.7 16.0 11.35 11.35 16.0 6.7 16.0 0.0 16.0 -6.7 11.35 -11.35" fill="url(#gradient0)" fill-rule="evenodd" stroke="none"/>
    <path d="M0.0 -48.0 Q7.55 -29.15 11.1 -11.1 29.9 -8.5 48.0 0.0 29.9 8.5 11.1 11.1 7.55 29.15 0.0 48.0 -7.55 29.15 -11.1 11.1 -29.9 8.5 -48.0 0.0 -29.9 -8.5 -11.1 -11.1 -7.55 -29.15 0.0 -48.0" fill="url(#gradient1)" fill-rule="evenodd" stroke="none"/>
  </g>
  <defs>
    <radialGradient cx="0" cy="0" gradientTransform="matrix(0.0398, 0.0, 0.0, 0.0398, 0.0, 0.0)" gradientUnits="userSpaceOnUse" id="gradient0" r="819.2" spreadMethod="pad">
      <stop offset="0.5764705882352941" stop-color="#ffffff" stop-opacity="0.0"/>
      <stop offset="1.0" stop-color="#dd84fb"/>
    </radialGradient>
    <radialGradient cx="0" cy="0" gradientTransform="matrix(0.0595, 0.0, 0.0, 0.0595, 0.0, 0.0)" gradientUnits="userSpaceOnUse" id="gradient1" r="819.2" spreadMethod="pad">
      <stop offset="0.5254901960784314" stop-color="#bd0ef8"/>
      <stop offset="0.8431372549019608" stop-color="#6d4bd6"/>
      <stop offset="1.0" stop-color="#694fbd"/>
    </radialGradient>
  </defs>
</svg>
