<?xml version="1.0" encoding="UTF-8" standalone="no"?>
<svg xmlns:xlink="http://www.w3.org/1999/xlink" height="143.25px" width="43.8px" xmlns="http://www.w3.org/2000/svg">
  <g transform="matrix(1.0, 0.0, 0.0, 1.0, 22.3, 72.5)">
    <path d="M19.55 -72.45 Q20.35 -72.25 20.95 -71.6 L21.1 -71.35 21.5 -70.2 21.5 -70.1 21.5 -70.05 Q21.55 -69.3 21.15 -68.65 L21.1 -68.6 Q15.2 -59.5 11.95 -38.55 9.0 -19.65 9.1 2.6 9.5 3.25 9.5 4.0 L9.5 4.05 Q9.15 20.75 10.2 23.75 L10.25 23.85 Q10.6 24.5 10.5 25.25 L10.5 25.3 10.5 25.45 Q10.35 26.25 9.75 26.85 L9.55 27.0 8.65 27.45 8.6 27.55 8.45 27.75 8.5 33.0 Q8.7 51.0 4.25 61.0 0.45 69.65 -5.0 69.95 L-5.4 70.25 -5.5 70.3 -5.7 70.4 -5.75 70.45 -5.8 70.45 -7.95 70.55 -8.0 70.55 -8.05 70.5 -8.1 70.5 -8.15 70.5 Q-12.7 71.35 -16.1 68.85 L-16.35 68.65 -16.2 68.75 Q-19.6 66.35 -20.7 61.0 L-21.3 59.95 -21.5 59.8 -21.4 59.85 -21.45 59.8 -21.55 59.7 -21.6 59.65 Q-22.35 58.6 -22.3 57.4 L-22.3 57.35 Q-22.3 56.6 -21.95 55.95 L-22.05 54.6 Q-21.95 53.45 -21.4 52.6 -21.75 51.75 -21.7 50.8 L-21.7 50.65 -21.7 50.55 Q-21.5 48.95 -20.4 47.9 L-20.1 47.05 Q-20.85 43.1 -19.4 37.35 -19.25 36.7 -18.75 36.2 -18.3 35.7 -17.65 35.55 L-17.65 35.6 Q-17.0 35.4 -16.35 35.6 L-15.4 35.85 -15.15 35.9 -14.8 36.0 -12.6 36.55 -12.45 36.55 -12.4 36.55 Q-11.5 36.75 -10.9 37.55 L-10.75 37.8 -10.7 37.9 Q-10.25 36.8 -10.25 35.45 -10.3 34.1 -10.5 33.65 L-11.0 32.5 -11.0 32.35 -11.0 32.3 -10.75 31.1 -10.7 31.1 -10.7 31.05 Q-10.35 30.3 -9.6 29.95 L-7.1 28.75 -6.9 28.7 -5.75 28.5 Q-5.05 28.55 -4.5 29.0 L-4.25 27.9 -3.45 27.0 Q-2.75 26.1 -2.5 17.8 L-2.15 -6.45 Q-1.1 -45.9 8.75 -66.1 L8.8 -66.15 8.8 -66.2 8.9 -66.35 9.2 -66.75 9.25 -66.8 9.45 -66.95 Q12.6 -70.15 18.1 -72.35 L18.15 -72.35 19.25 -72.45 19.5 -72.45 19.55 -72.45 M-20.15 47.65 L-20.2 47.65 -20.2 47.7 -20.15 47.65 M-7.45 50.35 Q-7.6 53.0 -6.3 56.0 -5.55 54.3 -4.9 51.35 -4.1 47.45 -4.0 43.6 -7.05 46.75 -7.45 50.3 L-7.45 50.35 M-14.65 60.45 Q-14.15 62.4 -13.0 63.55 L-12.75 63.85 -12.9 63.45 -14.2 60.05 -14.6 60.4 -14.65 60.45 M-21.3 59.95 L-21.35 59.9 -21.3 59.95" fill="#222626" fill-rule="evenodd" stroke="none"/>
    <path d="M-7.0 67.0 Q-11.3 68.6 -14.3 66.45 -17.25 64.35 -17.95 59.25" fill="none" stroke="url(#gradient0)" stroke-linecap="round" stroke-linejoin="round" stroke-width="1.0"/>
    <path d="M14.5 -63.4 Q2.3 -40.1 3.0 29.0 L2.0 29.0 2.0 32.0 -1.45 32.1 -2.0 29.0 Q-0.3 28.05 0.0 17.85 0.1 3.1 0.35 -6.35 1.4 -45.15 11.0 -65.0 L14.5 -63.4" fill="url(#gradient1)" fill-rule="evenodd" stroke="none"/>
    <path d="M14.5 -63.4 L11.0 -65.0 Q13.85 -67.95 19.0 -70.0 16.55 -67.35 14.5 -63.4" fill="#eb547a" fill-rule="evenodd" stroke="none"/>
    <path d="M19.0 -70.0 Q12.8 -60.6 9.45 -38.95 6.35 -19.15 6.6 4.25 L5.0 7.0 Q6.5 11.15 5.0 33.0 L1.0 33.0 0.0 31.0 Q1.8 30.25 2.3 19.3 L2.95 -6.3 Q4.3 -46.95 13.0 -64.0 L19.0 -70.0" fill="url(#gradient2)" fill-rule="evenodd" stroke="none"/>
    <path d="M5.95 27.6 L6.0 33.0 2.0 33.0 2.0 32.0 Q5.65 31.8 4.0 26.0 6.15 24.5 8.0 25.0 7.2 25.1 6.55 26.05 5.95 26.9 5.95 27.6" fill="url(#gradient3)" fill-rule="evenodd" stroke="none"/>
    <path d="M5.0 7.0 Q5.35 5.2 7.0 4.0 6.6 22.2 8.0 25.0 6.55 24.55 4.05 26.0 4.95 24.7 5.05 20.4 L5.0 7.0" fill="url(#gradient4)" fill-rule="evenodd" stroke="none"/>
    <path d="M-5.55 64.3 L-5.0 64.2 -5.1 67.05 -5.65 67.05 -5.55 64.3" fill="#3c4047" fill-rule="evenodd" stroke="none"/>
    <path d="M-5.1 65.1 L-7.0 64.45 -8.0 65.8 Q-7.0 66.8 -5.1 66.75 L-5.1 65.1 M1.95 46.1 L0.9 39.0 -1.0 37.0 -1.0 33.0 6.0 33.0 Q6.2 50.35 1.95 60.0 -2.05 69.15 -8.0 67.0 L-11.0 65.0 -7.0 60.0 Q-4.8 62.3 -2.15 60.5 0.7 58.55 2.0 53.0 2.5 50.95 1.95 46.1" fill="url(#gradient5)" fill-rule="evenodd" stroke="none"/>
    <path d="M5.0 39.0 L-2.0 39.0 -2.0 33.0 5.0 33.0 5.0 39.0" fill="url(#gradient6)" fill-rule="evenodd" stroke="none"/>
    <path d="M-7.5 67.85 L-7.5 67.45 -7.2 66.55 -6.9 66.3 -6.5 66.3 -6.3 66.55 -6.25 66.9 -6.6 67.85 -6.85 68.15 -7.25 68.15 -7.5 67.85" fill="url(#gradient7)" fill-rule="evenodd" stroke="none"/>
    <path d="M2.55 46.35 Q2.4 50.35 0.4 55.65 -1.65 60.95 -5.2 58.85 -3.6 57.1 -2.45 51.85 -1.35 46.6 -1.5 41.35 L0.0 41.35 1.25 41.35 Q2.0 41.35 2.4 41.85 2.75 42.35 2.55 46.35" fill="url(#gradient8)" fill-rule="evenodd" stroke="none"/>
    <path d="M-5.0 33.0 Q-4.45 34.15 -3.9 34.1 L-2.0 33.0 -2.0 37.35 Q-4.8 37.55 -5.0 41.0 L-6.05 40.05 -6.0 40.0 Q-6.65 37.9 -5.0 37.0 L-5.0 33.0" fill="url(#gradient9)" fill-rule="evenodd" stroke="none"/>
    <path d="M-6.05 40.05 L-5.0 41.0 Q-9.55 45.3 -9.95 50.15 -10.3 54.65 -7.0 60.0 L-8.65 62.05 Q-16.5 47.9 -6.05 40.05" fill="url(#gradient10)" fill-rule="evenodd" stroke="none"/>
    <path d="M-8.5 32.2 L-6.0 31.0 Q-6.45 33.15 -6.0 40.0 -15.35 49.4 -7.9 61.1 L-10.05 63.8 Q-16.65 50.1 -9.0 40.0 -7.7 38.05 -7.75 35.3 -7.85 32.95 -8.5 32.2" fill="url(#gradient11)" fill-rule="evenodd" stroke="none"/>
    <path d="M-2.0 36.0 Q-3.6 36.1 -4.7 37.05 -5.9 38.1 -6.0 40.0 -6.45 33.15 -6.0 31.0 -5.4 32.55 -4.15 32.7 -3.1 32.8 -2.0 32.0 L-2.0 36.0" fill="url(#gradient12)" fill-rule="evenodd" stroke="none"/>
    <path d="M6.0 32.0 L6.0 33.0 0.0 33.0 0.0 32.0 6.0 32.0 M-2.0 32.0 L-2.0 39.0 -3.0 39.0 -3.0 32.0 -2.0 32.0 M-7.0 60.0 L-11.0 65.0 -12.0 64.0 -7.0 58.0 -7.0 60.0 M-8.25 66.85 L-8.0 67.0 -7.4 67.2 -7.5 67.45 -7.5 67.85 -7.25 68.15 -6.85 68.15 -6.6 67.85 -6.4 67.4 -6.0 67.4 -6.0 69.0 -9.0 69.0 -8.25 66.85 M-6.9 66.3 L-7.15 66.55 -7.95 66.0 -6.0 66.0 -6.0 66.85 -6.2 66.85 -6.3 66.55 -6.5 66.3 -6.9 66.3" fill="#000000" fill-opacity="0.2" fill-rule="evenodd" stroke="none"/>
    <path d="M4.0 33.0 L4.0 37.0 -0.55 37.25 Q-1.5 37.6 -2.0 39.0 L-2.0 36.0 -2.0 32.0 0.0 31.0 1.0 33.0 4.0 33.0" fill="url(#gradient13)" fill-rule="evenodd" stroke="none"/>
    <path d="M-3.8 56.45 L-1.1 57.9 M-1.5 43.85 L2.25 43.85 M-2.35 51.45 L1.1 52.45 M-1.9 48.9 L1.7 49.6 M-1.65 46.35 L2.05 46.7 M-2.95 53.95 L0.25 55.25" fill="none" stroke="#4e3c23" stroke-linecap="round" stroke-linejoin="round" stroke-opacity="0.3019608" stroke-width="0.25"/>
    <path d="M3.2 43.05 L3.0 46.0 Q2.65 50.35 2.0 53.0 0.7 58.55 -2.15 60.5 -4.8 62.3 -7.0 60.0 L-5.2 58.85 Q-1.8 60.9 0.35 54.95 L0.5 54.6 1.7 49.65 2.25 43.2 2.05 41.95 Q1.85 41.4 1.25 41.35 L-1.5 41.35 -2.0 39.0 0.9 39.0 Q2.2 38.9 2.7 39.5 L3.15 40.85 3.2 43.05" fill="url(#gradient14)" fill-rule="evenodd" stroke="none"/>
  </g>
  <defs>
    <linearGradient gradientTransform="matrix(0.0066, 0.0057, -0.0038, 0.0044, -12.5, 63.45)" gradientUnits="userSpaceOnUse" id="gradient0" spreadMethod="pad" x1="-819.2" x2="819.2">
      <stop offset="0.0" stop-color="#605020"/>
      <stop offset="0.49019607843137253" stop-color="#c5a23a"/>
      <stop offset="0.6666666666666666" stop-color="#a58730"/>
      <stop offset="0.9607843137254902" stop-color="#403515"/>
    </linearGradient>
    <linearGradient gradientTransform="matrix(0.034, -0.0307, 0.0397, 0.0439, 6.25, -16.45)" gradientUnits="userSpaceOnUse" id="gradient1" spreadMethod="pad" x1="-819.2" x2="819.2">
      <stop offset="0.0" stop-color="#b93758"/>
      <stop offset="0.25882352941176473" stop-color="#722337"/>
      <stop offset="0.5882352941176471" stop-color="#722331"/>
      <stop offset="0.7647058823529411" stop-color="#e9415f"/>
      <stop offset="1.0" stop-color="#712438"/>
    </linearGradient>
    <linearGradient gradientTransform="matrix(0.0344, -0.0455, 0.0501, 0.0378, 9.5, -18.5)" gradientUnits="userSpaceOnUse" id="gradient2" spreadMethod="pad" x1="-819.2" x2="819.2">
      <stop offset="0.0" stop-color="#3e1e26"/>
      <stop offset="0.2196078431372549" stop-color="#a33246"/>
      <stop offset="0.43529411764705883" stop-color="#860f2e"/>
      <stop offset="0.6235294117647059" stop-color="#860f24"/>
      <stop offset="0.7529411764705882" stop-color="#aa1530"/>
      <stop offset="1.0" stop-color="#3a050f"/>
    </linearGradient>
    <linearGradient gradientTransform="matrix(0.0037, 0.0, 0.0, 0.005, 5.0, 28.9)" gradientUnits="userSpaceOnUse" id="gradient3" spreadMethod="pad" x1="-819.2" x2="819.2">
      <stop offset="0.0196078431372549" stop-color="#6f7a82"/>
      <stop offset="0.03529411764705882" stop-color="#545c63"/>
      <stop offset="0.4549019607843137" stop-color="#21242c"/>
      <stop offset="0.592156862745098" stop-color="#242731"/>
      <stop offset="1.0" stop-color="#3a3e4b"/>
    </linearGradient>
    <linearGradient gradientTransform="matrix(0.0023, 0.0, 0.0, 0.0134, 6.05, 14.95)" gradientUnits="userSpaceOnUse" id="gradient4" spreadMethod="pad" x1="-819.2" x2="819.2">
      <stop offset="0.0" stop-color="#545c63"/>
      <stop offset="0.3137254901960784" stop-color="#292d32"/>
      <stop offset="0.5215686274509804" stop-color="#30323a"/>
      <stop offset="0.6313725490196078" stop-color="#272d34"/>
      <stop offset="1.0" stop-color="#70748f"/>
    </linearGradient>
    <radialGradient cx="0" cy="0" gradientTransform="matrix(0.0187, 3.0E-4, -6.0E-4, 0.0382, -8.0, 40.0)" gradientUnits="userSpaceOnUse" id="gradient5" r="819.2" spreadMethod="pad">
      <stop offset="0.0" stop-color="#2e313d"/>
      <stop offset="0.4196078431372549" stop-color="#161a1b"/>
      <stop offset="0.6235294117647059" stop-color="#3d4249"/>
      <stop offset="0.7764705882352941" stop-color="#3d4249"/>
      <stop offset="0.8392156862745098" stop-color="#1d1f23"/>
      <stop offset="0.9058823529411765" stop-color="#282c33"/>
    </radialGradient>
    <linearGradient gradientTransform="matrix(-0.0042, 0.0, 0.0, -0.0037, 2.7, 38.9)" gradientUnits="userSpaceOnUse" id="gradient6" spreadMethod="pad" x1="-819.2" x2="819.2">
      <stop offset="0.0392156862745098" stop-color="#131715" stop-opacity="0.8117647"/>
      <stop offset="0.13725490196078433" stop-color="#191e1d" stop-opacity="0.85490197"/>
      <stop offset="0.2980392156862745" stop-color="#33383d" stop-opacity="0.9607843"/>
      <stop offset="0.3137254901960784" stop-color="#3c4148" stop-opacity="0.99607843"/>
      <stop offset="0.6274509803921569" stop-color="#3d4249"/>
      <stop offset="1.0" stop-color="#21262c"/>
    </linearGradient>
    <radialGradient cx="0" cy="0" gradientTransform="matrix(7.0E-4, 3.0E-4, -5.0E-4, 0.0013, -6.9, 67.25)" gradientUnits="userSpaceOnUse" id="gradient7" r="819.2" spreadMethod="pad">
      <stop offset="0.10588235294117647" stop-color="#d6b861"/>
      <stop offset="0.32941176470588235" stop-color="#c5a23a"/>
      <stop offset="0.6666666666666666" stop-color="#a58730"/>
      <stop offset="0.9607843137254902" stop-color="#715c24"/>
    </radialGradient>
    <radialGradient cx="0" cy="0" gradientTransform="matrix(0.0112, 0.0026, -0.0053, 0.0224, -7.2, 48.85)" gradientUnits="userSpaceOnUse" id="gradient8" r="819.2" spreadMethod="pad">
      <stop offset="0.5529411764705883" stop-color="#75694a"/>
      <stop offset="0.6666666666666666" stop-color="#b1a57e"/>
      <stop offset="0.7764705882352941" stop-color="#c8bea2"/>
      <stop offset="0.8666666666666667" stop-color="#c8bea2"/>
      <stop offset="0.9294117647058824" stop-color="#9a8c65"/>
      <stop offset="1.0" stop-color="#675e43"/>
    </radialGradient>
    <linearGradient gradientTransform="matrix(0.0031, -0.0031, 0.0034, 0.0034, -4.1, 37.0)" gradientUnits="userSpaceOnUse" id="gradient9" spreadMethod="pad" x1="-819.2" x2="819.2">
      <stop offset="0.0" stop-color="#f3f1e7"/>
      <stop offset="0.25098039215686274" stop-color="#a9a481"/>
      <stop offset="0.592156862745098" stop-color="#403a2b"/>
      <stop offset="0.9921568627450981" stop-color="#231f14"/>
    </linearGradient>
    <linearGradient gradientTransform="matrix(0.0021, -0.0134, 0.0133, 0.002, -8.5, 51.05)" gradientUnits="userSpaceOnUse" id="gradient10" spreadMethod="pad" x1="-819.2" x2="819.2">
      <stop offset="0.054901960784313725" stop-color="#625b40"/>
      <stop offset="0.4117647058823529" stop-color="#b4a783"/>
      <stop offset="0.5294117647058824" stop-color="#f1e4be"/>
      <stop offset="0.596078431372549" stop-color="#f9f1db"/>
      <stop offset="0.6352941176470588" stop-color="#fbf4e6"/>
      <stop offset="0.6784313725490196" stop-color="#fbf4e6"/>
      <stop offset="0.7019607843137254" stop-color="#f1e4be"/>
      <stop offset="0.8" stop-color="#b4a783"/>
      <stop offset="1.0" stop-color="#625b40"/>
    </linearGradient>
    <radialGradient cx="0" cy="0" gradientTransform="matrix(5.0E-4, -0.0294, 0.0233, 4.0E-4, -12.7, 47.1)" gradientUnits="userSpaceOnUse" id="gradient11" r="819.2" spreadMethod="pad">
      <stop offset="0.011764705882352941" stop-color="#9ea5b6"/>
      <stop offset="0.06666666666666667" stop-color="#7085ab"/>
      <stop offset="0.20392156862745098" stop-color="#4d556a"/>
      <stop offset="0.6666666666666666" stop-color="#34343d"/>
    </radialGradient>
    <radialGradient cx="0" cy="0" fx="179.20000000000002" fy="0" gradientTransform="matrix(7.0E-4, -0.011, 0.007, 4.0E-4, 0.0, 36.0)" gradientUnits="userSpaceOnUse" id="gradient12" r="819.2" spreadMethod="pad">
      <stop offset="0.07058823529411765" stop-color="#7e8096"/>
      <stop offset="0.396078431372549" stop-color="#444352"/>
      <stop offset="0.7764705882352941" stop-color="#1d1d23"/>
      <stop offset="0.9921568627450981" stop-color="#202226"/>
    </radialGradient>
    <linearGradient gradientTransform="matrix(0.0037, 0.0, 0.0, 0.0049, 1.0, 35.0)" gradientUnits="userSpaceOnUse" id="gradient13" spreadMethod="pad" x1="-819.2" x2="819.2">
      <stop offset="0.0196078431372549" stop-color="#40464d"/>
      <stop offset="0.15294117647058825" stop-color="#292e32"/>
      <stop offset="0.2784313725490196" stop-color="#343a3c"/>
      <stop offset="0.6627450980392157" stop-color="#4a5257"/>
      <stop offset="0.8823529411764706" stop-color="#555e62"/>
    </linearGradient>
    <radialGradient cx="0" cy="0" fx="32.0" fy="0" gradientTransform="matrix(0.0191, 0.009, -0.0125, 0.0266, -4.35, 59.85)" gradientUnits="userSpaceOnUse" id="gradient14" r="819.2" spreadMethod="pad">
      <stop offset="0.047058823529411764" stop-color="#88857d"/>
      <stop offset="0.10588235294117647" stop-color="#5b5a53"/>
      <stop offset="0.23529411764705882" stop-color="#595851"/>
      <stop offset="0.6784313725490196" stop-color="#8d8a87"/>
      <stop offset="0.7803921568627451" stop-color="#8b8781"/>
      <stop offset="0.8901960784313725" stop-color="#54514e"/>
    </radialGradient>
  </defs>
</svg>
