<?xml version="1.0" encoding="UTF-8" standalone="no"?>
<svg xmlns:xlink="http://www.w3.org/1999/xlink" height="106.0px" width="426.0px" xmlns="http://www.w3.org/2000/svg">
  <g transform="matrix(1.0, 0.0, 0.0, 1.0, -143.0, -199.0)">
    <path d="M440.0 288.0 L432.0 304.0 424.0 288.0 150.0 288.0 Q144.0 288.0 144.0 282.0 L144.0 206.0 Q144.0 200.0 150.0 200.0 L562.0 200.0 Q568.0 200.0 568.0 206.0 L568.0 282.0 Q568.0 288.0 562.0 288.0 L440.0 288.0" fill="#e2e2e2" fill-rule="evenodd" stroke="none"/>
    <path d="M440.0 288.0 L562.0 288.0 Q568.0 288.0 568.0 282.0 L568.0 206.0 Q568.0 200.0 562.0 200.0 L150.0 200.0 Q144.0 200.0 144.0 206.0 L144.0 282.0 Q144.0 288.0 150.0 288.0 L424.0 288.0 432.0 304.0 440.0 288.0 Z" fill="none" stroke="#000000" stroke-linecap="round" stroke-linejoin="round" stroke-width="2.0"/>
  </g>
</svg>
