<?xml version="1.0" encoding="UTF-8" standalone="no"?>
<svg xmlns:xlink="http://www.w3.org/1999/xlink" height="302.0px" width="304.0px" xmlns="http://www.w3.org/2000/svg">
  <g transform="matrix(1.0, 0.0, 0.0, 1.0, 0.0, 0.0)">
    <path d="M132.25 0.0 L171.85 0.0 171.85 8.0 222.0 8.0 Q224.0 8.0 224.0 10.0 L224.0 38.0 Q224.0 40.0 222.0 40.0 L172.0 40.0 172.0 56.0 180.0 56.0 180.0 58.0 153.0 71.0 151.0 71.0 124.0 58.0 124.0 56.0 132.0 56.0 132.0 40.0 82.0 40.0 Q80.0 40.0 80.0 38.0 L80.0 10.0 Q80.0 8.0 82.0 8.0 L132.25 8.0 132.25 0.0 M224.0 74.0 L224.0 102.0 Q224.0 104.0 222.0 104.0 L171.85 104.0 171.85 112.0 171.85 116.0 250.0 116.0 Q252.0 116.0 252.0 118.0 L252.0 136.0 260.0 136.0 260.0 138.0 233.0 151.0 231.0 151.0 204.0 138.0 204.0 136.0 212.0 136.0 212.0 130.0 Q212.0 128.0 210.0 128.0 L94.0 128.0 Q92.0 128.0 92.0 130.0 L92.0 135.0 92.0 136.0 100.0 136.0 100.0 138.0 73.0 151.0 71.0 151.0 44.0 138.0 44.0 136.0 52.0 136.0 52.0 135.0 52.0 118.0 Q52.0 116.0 54.0 116.0 L132.25 116.0 132.25 112.0 132.25 104.0 82.0 104.0 Q80.0 104.0 80.0 102.0 L80.0 74.0 Q80.0 72.0 82.0 72.0 L222.0 72.0 Q224.0 72.0 224.0 74.0 M162.0 152.0 L302.0 152.0 Q304.0 152.0 304.0 154.0 L304.0 182.0 Q304.0 184.0 302.0 184.0 L252.0 184.0 252.0 200.0 260.0 200.0 260.0 202.0 233.0 215.0 231.0 215.0 204.0 202.0 204.0 200.0 212.0 200.0 212.0 184.0 162.0 184.0 Q160.0 184.0 160.0 182.0 L160.0 154.0 Q160.0 152.0 162.0 152.0 M144.0 154.0 L144.0 182.0 Q144.0 184.0 142.0 184.0 L92.0 184.0 92.0 200.0 100.0 200.0 100.0 202.0 73.0 215.0 71.0 215.0 44.0 202.0 44.0 200.0 52.0 200.0 52.0 184.0 2.0 184.0 Q0.0 184.0 0.0 182.0 L0.0 154.0 Q0.0 152.0 2.0 152.0 L142.0 152.0 Q144.0 152.0 144.0 154.0 M92.0 258.0 Q92.0 260.0 94.0 260.0 L210.0 260.0 Q212.0 260.0 212.0 258.0 L212.0 248.0 162.0 248.0 Q160.0 248.0 160.0 246.0 L160.0 218.0 Q160.0 216.0 162.0 216.0 L302.0 216.0 Q304.0 216.0 304.0 218.0 L304.0 246.0 Q304.0 248.0 302.0 248.0 L252.0 248.0 252.0 270.0 Q252.0 272.0 250.0 272.0 L172.0 272.0 172.0 287.0 180.0 287.0 180.0 289.0 153.0 302.0 151.0 302.0 124.0 289.0 124.0 287.0 132.0 287.0 132.0 272.0 54.0 272.0 Q52.0 272.0 52.0 270.0 L52.0 248.0 2.0 248.0 Q0.0 248.0 0.0 246.0 L0.0 218.0 Q0.0 216.0 2.0 216.0 L142.0 216.0 Q144.0 216.0 144.0 218.0 L144.0 246.0 Q144.0 248.0 142.0 248.0 L92.0 248.0 92.0 258.0" fill="#7c746e" fill-rule="evenodd" stroke="none"/>
  </g>
</svg>
