<?xml version="1.0" encoding="UTF-8" standalone="no"?>
<svg xmlns:xlink="http://www.w3.org/1999/xlink" height="192.0px" width="512.0px" xmlns="http://www.w3.org/2000/svg">
  <g transform="matrix(1.0, 0.0, 0.0, 1.0, -16.0, -16.0)">
    <path d="M206.0 192.0 Q208.0 192.0 208.0 194.0 L208.0 206.0 Q208.0 208.0 206.0 208.0 L18.0 208.0 Q16.0 208.0 16.0 206.0 L16.0 194.0 Q16.0 192.0 18.0 192.0 L206.0 192.0 M208.0 162.0 L208.0 174.0 Q208.0 176.0 206.0 176.0 L18.0 176.0 Q16.0 176.0 16.0 174.0 L16.0 162.0 Q16.0 160.0 18.0 160.0 L206.0 160.0 Q208.0 160.0 208.0 162.0 M208.0 130.0 L208.0 142.0 Q208.0 144.0 206.0 144.0 L18.0 144.0 Q16.0 144.0 16.0 142.0 L16.0 130.0 Q16.0 128.0 18.0 128.0 L206.0 128.0 Q208.0 128.0 208.0 130.0 M206.0 96.0 Q208.0 96.0 208.0 98.0 L208.0 110.0 Q208.0 112.0 206.0 112.0 L18.0 112.0 Q16.0 112.0 16.0 110.0 L16.0 98.0 Q16.0 96.0 18.0 96.0 L206.0 96.0 M208.0 66.0 L208.0 78.0 Q208.0 80.0 206.0 80.0 L18.0 80.0 Q16.0 80.0 16.0 78.0 L16.0 66.0 Q16.0 64.0 18.0 64.0 L206.0 64.0 Q208.0 64.0 208.0 66.0 M526.0 192.0 Q528.0 192.0 528.0 194.0 L528.0 206.0 Q528.0 208.0 526.0 208.0 L218.0 208.0 Q216.0 208.0 216.0 206.0 L216.0 194.0 Q216.0 192.0 218.0 192.0 L526.0 192.0 M528.0 162.0 L528.0 174.0 Q528.0 176.0 526.0 176.0 L218.0 176.0 Q216.0 176.0 216.0 174.0 L216.0 162.0 Q216.0 160.0 218.0 160.0 L526.0 160.0 Q528.0 160.0 528.0 162.0 M528.0 130.0 L528.0 142.0 Q528.0 144.0 526.0 144.0 L218.0 144.0 Q216.0 144.0 216.0 142.0 L216.0 130.0 Q216.0 128.0 218.0 128.0 L526.0 128.0 Q528.0 128.0 528.0 130.0 M526.0 96.0 Q528.0 96.0 528.0 98.0 L528.0 110.0 Q528.0 112.0 526.0 112.0 L218.0 112.0 Q216.0 112.0 216.0 110.0 L216.0 98.0 Q216.0 96.0 218.0 96.0 L526.0 96.0 M528.0 66.0 L528.0 78.0 Q528.0 80.0 526.0 80.0 L218.0 80.0 Q216.0 80.0 216.0 78.0 L216.0 66.0 Q216.0 64.0 218.0 64.0 L526.0 64.0 Q528.0 64.0 528.0 66.0" fill="#6f6f6e" fill-opacity="0.101960786" fill-rule="evenodd" stroke="none"/>
    <path d="M206.0 16.0 Q208.0 16.0 208.0 18.0 L208.0 30.0 Q208.0 32.0 206.0 32.0 L18.0 32.0 Q16.0 32.0 16.0 30.0 L16.0 18.0 Q16.0 16.0 18.0 16.0 L206.0 16.0" fill="#6f6f6e" fill-opacity="0.101960786" fill-rule="evenodd" stroke="none"/>
  </g>
</svg>
