<?xml version="1.0" encoding="UTF-8" standalone="no"?>
<svg xmlns:xlink="http://www.w3.org/1999/xlink" height="177.1px" width="554.25px" xmlns="http://www.w3.org/2000/svg">
  <g transform="matrix(1.0, 0.0, 0.0, 1.0, 275.9, 83.5)">
    <path d="M61.75 -59.25 L55.5 -53.5 35.5 -49.0 34.5 -49.25 41.25 -54.75 61.75 -59.25 M79.0 -63.0 L99.0 -67.0 88.5 -60.25 67.75 -56.0 79.0 -63.0 M22.5 -46.0 L2.0 -40.75 1.0 -40.75 3.5 -45.5 24.0 -50.5 22.5 -46.0 M132.0 -67.0 L130.5 -67.25 151.5 -75.75 170.0 -78.0 149.0 -69.25 132.0 -67.0 M101.0 -62.25 L99.75 -62.5 115.75 -70.0 135.5 -73.25 119.75 -65.5 101.0 -62.25 M204.75 -71.0 L242.25 -81.5 254.75 -80.25 216.25 -69.25 204.75 -71.0 M220.0 -67.75 L263.25 -78.5 271.25 -75.5 226.5 -64.25 220.0 -67.75 M228.0 -56.5 L228.0 -62.0 274.25 -71.75 Q276.5 -73.0 278.0 -67.0 L229.0 -56.5 228.0 -56.5 M162.25 -70.25 L159.0 -70.5 185.25 -79.75 202.0 -81.0 175.5 -71.25 162.25 -70.25 M183.75 -71.75 Q224.0 -86.75 231.25 -82.0 L197.75 -71.25 183.75 -71.75 M200.25 -32.0 L214.0 -41.0 264.5 -47.25 252.25 -38.0 201.25 -31.75 200.25 -32.0 M167.75 -15.5 L189.25 -26.0 236.75 -29.0 215.25 -17.75 168.75 -15.25 167.75 -15.5 M191.75 -7.0 L162.0 5.25 124.0 2.75 153.0 -9.0 189.5 -7.5 191.75 -7.0 M226.25 -53.0 L276.75 -61.5 272.5 -54.5 220.25 -45.5 Q220.0 -47.0 226.25 -53.0 M131.75 16.25 L95.0 29.0 70.25 21.0 104.75 9.5 131.75 16.25 M49.25 27.75 L60.0 39.5 19.25 51.5 18.25 51.0 10.75 38.5 48.5 27.75 49.25 27.75 M-108.0 -12.5 L-89.0 -18.75 -76.5 -18.25 -96.25 -11.5 -108.0 -12.5 M-108.25 -7.5 L-126.75 -0.5 -141.75 0.25 -143.25 0.0 -125.5 -6.5 -108.25 -7.5 M-71.75 -24.25 L-53.5 -29.75 Q-52.5 -31.0 -44.25 -28.25 L-64.0 -22.0 -71.75 -24.25 M-32.25 -31.75 L-34.25 -35.25 -14.5 -40.75 -11.0 -37.75 -31.25 -31.75 -32.25 -31.75 M-49.5 53.5 L-11.0 44.25 -17.0 60.75 -58.0 70.5 -58.5 70.25 -49.5 53.5 M-137.75 3.5 L-154.25 10.5 -175.5 13.25 -176.75 13.0 -160.5 6.5 -137.75 3.5 M-158.25 88.25 L-188.0 91.75 -189.0 91.5 -153.5 71.0 -123.75 67.0 -158.25 88.25 M-129.5 83.75 L-105.25 64.25 -70.25 57.75 -92.0 77.25 -128.0 84.0 -129.5 83.75 M-200.75 33.25 L-233.25 40.25 -234.0 40.0 -220.75 33.0 -188.75 26.25 -200.75 33.25 M-165.25 15.0 L-179.75 22.0 -207.0 26.75 -192.0 19.5 -165.25 15.0 M-217.5 44.5 L-255.25 53.75 Q-255.25 52.0 -245.75 46.75 L-208.25 37.5 -217.5 44.5 M-228.25 63.0 L-275.0 77.75 Q-276.5 76.75 -274.0 71.75 L-228.5 57.75 -228.25 63.0 M-219.5 69.0 L-268.25 86.75 -269.25 86.75 -274.25 82.25 -227.5 65.75 Q-226.25 64.5 -219.5 69.0 M-232.75 93.0 L-189.5 72.75 -167.5 72.0 -211.25 93.25 -232.75 93.0 M-202.0 73.75 L-247.5 92.25 -261.25 89.75 -214.5 71.0 -199.75 72.25 -202.0 73.75 M-227.0 54.5 L-270.0 66.5 Q-270.25 65.0 -264.0 59.75 L-222.0 48.25 -227.0 54.5" fill="url(#gradient0)" fill-rule="evenodd" stroke="none"/>
    <path d="M175.5 -71.25 L162.25 -70.25 159.0 -70.5 185.25 -79.75 202.0 -81.0 175.5 -71.25 M183.75 -71.75 Q224.0 -86.75 231.25 -82.0 L197.75 -71.25 183.75 -71.75 M226.25 -53.0 L276.75 -61.5 272.5 -54.5 220.25 -45.5 Q220.0 -47.0 226.25 -53.0 M228.0 -62.0 L274.25 -71.75 Q276.5 -73.0 278.0 -67.0 L229.0 -56.5 228.0 -56.5 228.0 -62.0 M220.0 -67.75 L263.25 -78.5 271.25 -75.5 226.5 -64.25 220.0 -67.75 M242.25 -81.5 L254.75 -80.25 216.25 -69.25 204.75 -71.0 242.25 -81.5 M24.0 -50.5 L3.5 -45.5 1.0 -40.75 2.0 -40.75 22.5 -46.0 24.0 -50.5 M41.25 -54.75 L61.75 -59.25 55.5 -53.5 35.5 -49.0 34.5 -49.25 41.25 -54.75 M79.0 -63.0 L99.0 -67.0 88.5 -60.25 67.75 -56.0 79.0 -63.0 M115.75 -70.0 L135.5 -73.25 119.75 -65.5 101.0 -62.25 99.75 -62.5 115.75 -70.0 M151.5 -75.75 L170.0 -78.0 149.0 -69.25 132.0 -67.0 130.5 -67.25 151.5 -75.75 M104.75 9.5 L70.25 21.0 95.0 29.0 131.75 16.25 104.75 9.5 M153.0 -9.0 L189.5 -7.5 191.75 -7.0 162.0 5.25 124.0 2.75 153.0 -9.0 M10.75 38.5 L48.5 27.75 49.25 27.75 60.0 39.5 19.25 51.5 18.25 51.0 10.75 38.5 M215.25 -17.75 L168.75 -15.25 167.75 -15.5 189.25 -26.0 236.75 -29.0 215.25 -17.75 M200.25 -32.0 L214.0 -41.0 264.5 -47.25 252.25 -38.0 201.25 -31.75 200.25 -32.0 M-227.0 54.5 L-270.0 66.5 Q-270.25 65.0 -264.0 59.75 L-222.0 48.25 -227.0 54.5 M-217.5 44.5 L-255.25 53.75 Q-255.25 52.0 -245.75 46.75 L-208.25 37.5 -217.5 44.5 M-220.75 33.0 L-188.75 26.25 -200.75 33.25 -233.25 40.25 -234.0 40.0 -220.75 33.0 M-179.75 22.0 L-207.0 26.75 -192.0 19.5 -165.25 15.0 -179.75 22.0 M-176.75 13.0 L-160.5 6.5 -137.75 3.5 -154.25 10.5 -175.5 13.25 -176.75 13.0 M-261.25 89.75 L-214.5 71.0 -199.75 72.25 -202.0 73.75 -247.5 92.25 -261.25 89.75 M-274.25 82.25 L-227.5 65.75 Q-226.25 64.5 -219.5 69.0 L-268.25 86.75 -269.25 86.75 -274.25 82.25 M-274.0 71.75 L-228.5 57.75 -228.25 63.0 -275.0 77.75 Q-276.5 76.75 -274.0 71.75 M-167.5 72.0 L-211.25 93.25 -232.75 93.0 -189.5 72.75 -167.5 72.0 M-189.0 91.5 L-153.5 71.0 -123.75 67.0 -158.25 88.25 -188.0 91.75 -189.0 91.5 M-31.25 -31.75 L-32.25 -31.75 -34.25 -35.25 -14.5 -40.75 -11.0 -37.75 -31.25 -31.75 M-64.0 -22.0 L-71.75 -24.25 -53.5 -29.75 Q-52.5 -31.0 -44.25 -28.25 L-64.0 -22.0 M-11.0 44.25 L-17.0 60.75 -58.0 70.5 -58.5 70.25 -49.5 53.5 -11.0 44.25 M-89.0 -18.75 L-76.5 -18.25 -96.25 -11.5 -108.0 -12.5 -89.0 -18.75 M-125.5 -6.5 L-108.25 -7.5 -126.75 -0.5 -141.75 0.25 -143.25 0.0 -125.5 -6.5 M-129.5 83.75 L-105.25 64.25 -70.25 57.75 -92.0 77.25 -128.0 84.0 -129.5 83.75" fill="none" stroke="#000000" stroke-linecap="round" stroke-linejoin="round" stroke-width="0.7000000000000001"/>
  </g>
  <defs>
    <linearGradient gradientTransform="matrix(0.0195, 0.0728, -0.0146, 0.0039, 81.1, -20.3)" gradientUnits="userSpaceOnUse" id="gradient0" spreadMethod="pad" x1="-819.2" x2="819.2">
      <stop offset="0.0" stop-color="#94b6c0"/>
      <stop offset="1.0" stop-color="#ffffff"/>
    </linearGradient>
  </defs>
</svg>
