<?xml version="1.0" encoding="UTF-8" standalone="no"?>
<svg xmlns:xlink="http://www.w3.org/1999/xlink" height="170.95px" width="553.7px" xmlns="http://www.w3.org/2000/svg">
  <g transform="matrix(1.0, 0.0, 0.0, 1.0, 275.85, 77.1)">
    <path d="M144.5 -73.8 L144.5 -74.6 147.0 -75.0 144.5 -73.8 M226.5 -53.25 L228.25 -59.25 277.5 -69.0 277.25 -63.0 227.75 -53.25 226.5 -53.25 M227.5 -62.0 Q223.25 -65.25 223.75 -66.25 L267.5 -76.5 Q268.75 -77.75 274.5 -73.25 L228.25 -62.0 227.5 -62.0 M191.75 -26.5 L190.75 -26.75 207.0 -36.25 257.0 -41.5 241.5 -31.5 191.75 -26.5 M164.0 -9.5 L154.75 -9.75 178.5 -20.5 223.5 -22.0 199.25 -10.25 164.0 -9.5 M223.0 -49.0 L274.5 -57.25 267.25 -49.25 215.25 -41.25 214.75 -41.5 223.0 -49.0 M173.25 0.75 L141.25 13.0 106.75 9.0 137.5 -2.75 173.0 0.25 173.25 0.75 M109.0 24.0 L70.5 36.75 51.0 27.0 86.5 15.75 109.0 24.0 M34.75 47.25 L-6.25 58.25 Q-8.5 57.0 -9.25 43.75 L29.25 33.5 34.75 47.25 M-150.75 87.0 L-122.5 67.0 -89.0 61.25 -115.5 81.75 -149.5 87.25 -150.75 87.0 M-207.5 71.75 L-256.5 91.0 -267.0 87.5 -220.0 69.5 -207.5 71.75 M-223.5 67.25 L-271.75 84.0 -273.0 84.0 -275.5 79.0 -229.0 63.25 Q-227.75 62.25 -223.5 67.25 M-228.75 60.25 L-274.5 74.25 Q-275.5 73.0 -271.75 68.0 L-227.25 54.75 -228.75 60.25 M-204.75 92.25 L-166.75 72.0 -139.75 69.25 -178.0 90.75 -205.0 93.0 -205.5 92.75 -204.75 92.25 M-179.5 72.5 L-225.25 93.5 -244.25 92.5 -199.5 72.75 -179.5 72.5" fill="url(#gradient0)" fill-rule="evenodd" stroke="none"/>
    <path d="M226.5 -53.25 L228.25 -59.25 277.5 -69.0 277.25 -63.0 227.75 -53.25 226.5 -53.25 M227.5 -62.0 Q223.25 -65.25 223.75 -66.25 L267.5 -76.5 Q268.75 -77.75 274.5 -73.25 L228.25 -62.0 227.5 -62.0 M191.75 -26.5 L241.5 -31.5 257.0 -41.5 207.0 -36.25 190.75 -26.75 191.75 -26.5 M164.0 -9.5 L154.75 -9.75 178.5 -20.5 223.5 -22.0 199.25 -10.25 164.0 -9.5 M223.0 -49.0 L274.5 -57.25 267.25 -49.25 215.25 -41.25 214.75 -41.5 223.0 -49.0 M173.25 0.75 L141.25 13.0 106.75 9.0 137.5 -2.75 173.0 0.25 173.25 0.75 M109.0 24.0 L70.5 36.75 51.0 27.0 86.5 15.75 109.0 24.0 M34.75 47.25 L-6.25 58.25 Q-8.5 57.0 -9.25 43.75 L29.25 33.5 34.75 47.25 M-150.75 87.0 L-122.5 67.0 -89.0 61.25 -115.5 81.75 -149.5 87.25 -150.75 87.0 M-205.5 92.75 L-204.75 92.25 -166.75 72.0 -139.75 69.25 -178.0 90.75 -205.0 93.0 -205.5 92.75 M-207.5 71.75 L-256.5 91.0 -267.0 87.5 -220.0 69.5 -207.5 71.75 M-223.5 67.25 L-271.75 84.0 -273.0 84.0 -275.5 79.0 -229.0 63.25 Q-227.75 62.25 -223.5 67.25 M-228.75 60.25 L-274.5 74.25 Q-275.5 73.0 -271.75 68.0 L-227.25 54.75 -228.75 60.25 M-179.5 72.5 L-225.25 93.5 -244.25 92.5 -199.5 72.75 -179.5 72.5" fill="none" stroke="#000000" stroke-linecap="round" stroke-linejoin="round" stroke-width="0.7000000000000001"/>
  </g>
  <defs>
    <linearGradient gradientTransform="matrix(0.0195, 0.0728, -0.0146, 0.0039, 81.1, -20.3)" gradientUnits="userSpaceOnUse" id="gradient0" spreadMethod="pad" x1="-819.2" x2="819.2">
      <stop offset="0.0" stop-color="#94b6c0"/>
      <stop offset="1.0" stop-color="#ffffff"/>
    </linearGradient>
  </defs>
</svg>
