<?xml version="1.0" encoding="UTF-8" standalone="no"?>
<svg xmlns:xlink="http://www.w3.org/1999/xlink" height="153.2px" width="314.45px" xmlns="http://www.w3.org/2000/svg">
  <g transform="matrix(1.0, 0.0, 0.0, 1.0, 2.35, 7.0)">
    <path d="M49.15 -7.0 L49.15 121.4 Q49.7 122.8 49.9 124.3 51.1 131.5 44.2 137.7 37.4 144.05 26.55 145.7 15.7 147.35 7.3 143.4 -1.05 139.5 -2.2 132.3 -3.3 125.05 3.5 118.8 10.4 112.5 21.2 110.85 32.05 109.2 40.4 113.05 42.9 114.2 44.75 115.7 L44.75 -7.0 49.15 -7.0 M223.75 -3.4 L228.15 -3.4 228.15 99.4 Q228.7 100.8 228.9 102.3 230.1 109.5 223.2 115.7 216.4 122.05 205.55 123.7 194.7 125.35 186.3 121.4 177.95 117.5 176.8 110.3 175.7 103.05 182.5 96.8 189.4 90.5 200.2 88.85 211.05 87.2 219.4 91.05 221.9 92.2 223.75 93.7 L223.75 -3.4 M139.75 -3.0 L144.15 -3.0 144.15 82.4 Q144.7 83.8 144.9 85.3 146.1 92.5 139.2 98.7 132.4 105.05 121.55 106.7 110.7 108.35 102.3 104.4 93.95 100.5 92.8 93.3 91.7 86.05 98.5 79.8 105.4 73.5 116.2 71.85 127.05 70.2 135.4 74.05 137.9 75.2 139.75 76.7 L139.75 -3.0 M311.15 -7.0 L311.15 121.4 Q311.7 122.8 311.9 124.3 313.1 131.5 306.2 137.7 299.4 144.05 288.55 145.7 277.7 147.35 269.3 143.4 260.95 139.5 259.8 132.3 258.7 125.05 265.5 118.8 272.4 112.5 283.2 110.85 294.05 109.2 302.4 113.05 304.9 114.2 306.75 115.7 L306.75 -7.0 311.15 -7.0" fill="#000000" fill-rule="evenodd" stroke="none"/>
    <path d="M309.0 -7.0 L309.0 5.0 48.0 5.0 48.0 -7.0 309.0 -7.0 M309.0 34.0 L48.0 34.0 48.0 22.0 309.0 22.0 309.0 34.0" fill="#000000" fill-rule="evenodd" stroke="none"/>
  </g>
</svg>
