<?xml version="1.0" encoding="UTF-8" standalone="no"?>
<svg xmlns:xlink="http://www.w3.org/1999/xlink" height="31.9px" width="608.15px" xmlns="http://www.w3.org/2000/svg">
  <g transform="matrix(1.0, 0.0, 0.0, 1.0, 303.05, 5.55)">
    <path d="M303.1 21.3 L303.1 24.35 Q163.6 -0.55 0.55 -0.55 -161.95 -0.55 -301.05 24.2 L-301.05 21.15 Q-161.9 -3.55 0.55 -3.55 163.55 -3.55 303.1 21.3" fill="url(#gradient0)" fill-rule="evenodd" stroke="none"/>
    <path d="M303.1 21.3 Q163.55 -3.55 0.55 -3.55 -161.9 -3.55 -301.05 21.15 L-301.05 24.2 Q-161.95 -0.55 0.55 -0.55 163.6 -0.55 303.1 24.35 L303.1 21.3 Z" fill="none" stroke="#000000" stroke-linecap="round" stroke-linejoin="round" stroke-width="4.0"/>
    <path d="M303.1 21.3 L303.1 24.35 Q163.6 -0.55 0.55 -0.55 -161.95 -0.55 -301.05 24.2 L-301.05 21.15 Q-161.9 -3.55 0.55 -3.55 163.55 -3.55 303.1 21.3" fill="url(#gradient1)" fill-rule="evenodd" stroke="none"/>
  </g>
  <defs>
    <linearGradient gradientTransform="matrix(0.3687, 0.0, 0.0, 0.017, 1.0, 10.4)" gradientUnits="userSpaceOnUse" id="gradient0" spreadMethod="pad" x1="-819.2" x2="819.2">
      <stop offset="0.0" stop-color="#959595"/>
      <stop offset="0.19607843137254902" stop-color="#ffffff"/>
      <stop offset="0.5058823529411764" stop-color="#ffffff"/>
      <stop offset="0.8274509803921568" stop-color="#ffffff"/>
      <stop offset="1.0" stop-color="#959595"/>
    </linearGradient>
    <linearGradient gradientTransform="matrix(0.3687, 0.0, 0.0, 0.017, 1.0, 10.4)" gradientUnits="userSpaceOnUse" id="gradient1" spreadMethod="pad" x1="-819.2" x2="819.2">
      <stop offset="0.0" stop-color="#959595"/>
      <stop offset="0.19607843137254902" stop-color="#ffffff"/>
      <stop offset="0.5058823529411764" stop-color="#ffffff"/>
      <stop offset="0.8274509803921568" stop-color="#ffffff"/>
      <stop offset="1.0" stop-color="#959595"/>
    </linearGradient>
  </defs>
</svg>
