<?xml version="1.0" encoding="UTF-8" standalone="no"?>
<svg xmlns:xlink="http://www.w3.org/1999/xlink" height="28.0px" width="12.0px" xmlns="http://www.w3.org/2000/svg">
  <g transform="matrix(1.0, 0.0, 0.0, 1.0, 6.0, 14.0)">
    <path d="M6.0 -11.0 Q3.35 -10.85 3.1 -4.95 2.9 -0.6 4.0 6.0 4.35 8.1 3.0 14.0 L-3.0 14.0 Q-4.35 8.1 -4.0 6.0 -2.9 -0.6 -3.1 -4.95 -3.35 -10.85 -6.0 -11.0 L6.0 -11.0" fill="url(#gradient0)" fill-rule="evenodd" stroke="none"/>
    <path d="M6.0 -11.0 L-6.0 -11.0 -5.0 -14.0 5.0 -14.0 6.0 -11.0" fill="url(#gradient1)" fill-rule="evenodd" stroke="none"/>
    <path d="M4.0 6.0 L3.95 9.0 -3.9 9.0 Q-4.15 7.05 -4.0 6.0 L4.0 6.0" fill="url(#gradient2)" fill-rule="evenodd" stroke="none"/>
  </g>
  <defs>
    <radialGradient cx="0" cy="0" fx="-1216.0" fy="0" gradientTransform="matrix(2.0E-4, -0.0402, 0.0074, 0.0, 0.0, -3.1)" gradientUnits="userSpaceOnUse" id="gradient0" r="819.2" spreadMethod="pad">
      <stop offset="0.0" stop-color="#ededed"/>
      <stop offset="0.18823529411764706" stop-color="#eaeaea"/>
      <stop offset="0.5019607843137255" stop-color="#cbcac9"/>
      <stop offset="0.788235294117647" stop-color="#9d9a99"/>
      <stop offset="0.9568627450980393" stop-color="#92928f"/>
    </radialGradient>
    <radialGradient cx="0" cy="0" gradientTransform="matrix(0.0073, 0.0, 0.0, 0.0059, 0.0, -11.05)" gradientUnits="userSpaceOnUse" id="gradient1" r="819.2" spreadMethod="pad">
      <stop offset="0.0" stop-color="#ffffff"/>
      <stop offset="0.12156862745098039" stop-color="#f5f3f3"/>
      <stop offset="0.4" stop-color="#e3e1e1"/>
      <stop offset="0.8156862745098039" stop-color="#c8c4c4"/>
      <stop offset="0.9215686274509803" stop-color="#cfcbcb"/>
    </radialGradient>
    <radialGradient cx="0" cy="0" gradientTransform="matrix(0.0049, 0.0, 0.0, 0.0124, 0.0, 6.0)" gradientUnits="userSpaceOnUse" id="gradient2" r="819.2" spreadMethod="pad">
      <stop offset="0.0" stop-color="#f3f0d8"/>
      <stop offset="0.30980392156862746" stop-color="#d5c680"/>
      <stop offset="0.8392156862745098" stop-color="#a99538"/>
      <stop offset="0.9921568627450981" stop-color="#bca749"/>
    </radialGradient>
  </defs>
</svg>
