<?xml version="1.0" encoding="UTF-8" standalone="no"?>
<svg xmlns:xlink="http://www.w3.org/1999/xlink" height="92.0px" width="27.25px" xmlns="http://www.w3.org/2000/svg">
  <g transform="matrix(1.0, 0.0, 0.0, 1.0, 14.0, 39.0)">
    <path d="M3.95 43.6 Q3.45 44.65 3.25 46.4 L2.0 46.0 -3.15 46.95 Q-3.4 44.55 -4.1 43.35 L1.0 44.0 3.95 43.6" fill="url(#gradient0)" fill-rule="evenodd" stroke="none"/>
    <path d="M8.0 47.0 L5.0 51.0 1.95 46.75 1.0 53.0 -3.0 51.0 Q-0.55 48.1 1.0 45.0 L1.3 45.3 1.0 44.0 Q4.7 44.85 8.0 47.0" fill="#000000" fill-opacity="0.2" fill-rule="evenodd" stroke="none"/>
    <path d="M2.0 45.0 Q1.8 48.4 1.0 52.0 L-3.0 50.0 Q-0.55 47.1 1.0 44.0 L2.0 45.0" fill="url(#gradient1)" fill-rule="evenodd" stroke="none"/>
    <path d="M9.0 47.0 L6.0 50.0 2.5 46.25 2.0 44.0 Q5.7 44.85 9.0 47.0" fill="url(#gradient2)" fill-rule="evenodd" stroke="none"/>
    <path d="M2.05 46.45 Q1.55 46.5 0.75 45.65 -0.1 44.8 0.05 44.4 0.3 43.8 1.5 43.65 L2.95 43.75 Q3.25 44.0 2.9 45.2 2.55 46.4 2.05 46.45" fill="url(#gradient3)" fill-rule="evenodd" stroke="none"/>
    <path d="M13.0 -39.0 L12.0 -35.0 -12.0 -35.0 -13.0 -39.0 13.0 -39.0" fill="url(#gradient4)" fill-rule="evenodd" stroke="none"/>
    <path d="M-12.0 35.0 L12.0 35.0 13.0 39.0 -13.0 39.0 -12.0 35.0" fill="url(#gradient5)" fill-rule="evenodd" stroke="none"/>
    <path d="M13.0 34.0 L-13.0 34.0 -13.0 -34.0 13.0 -34.0 13.0 34.0" fill="url(#gradient6)" fill-rule="evenodd" stroke="none"/>
    <path d="M-13.0 -32.0 L-12.6 -32.0 Q-12.6 -34.0 -12.05 -34.0 L-2.9 -34.0 Q-1.7 -33.95 -1.25 -33.0 L-1.0 -32.0 0.0 -32.0 1.0 -32.0 1.25 -33.0 Q1.7 -33.95 2.95 -34.0 L12.05 -34.0 Q12.6 -34.0 12.6 -32.0 L13.0 -32.0 M-13.0 32.0 L-12.6 32.0 Q-12.6 34.0 -12.05 34.0 L-2.9 34.0 Q-1.7 33.95 -1.25 33.0 L-1.0 32.0 0.0 32.0 1.0 32.0 1.25 33.0 Q1.7 33.95 2.95 34.0 L12.05 34.0 Q12.6 34.0 12.6 32.0 L13.0 32.0" fill="none" stroke="#000000" stroke-linecap="round" stroke-linejoin="round" stroke-opacity="0.2509804" stroke-width="0.5"/>
    <path d="M13.0 -34.0 L13.0 -32.0 12.6 -32.0 Q12.6 -34.0 12.05 -34.0 L2.95 -34.0 Q1.7 -33.95 1.25 -33.0 L1.0 -32.0 0.0 -32.0 -1.0 -32.0 -1.25 -33.0 Q-1.7 -33.95 -2.9 -34.0 L-12.05 -34.0 Q-12.6 -34.0 -12.6 -32.0 L-13.0 -32.0 -13.0 -34.0 -12.0 -35.0 12.0 -35.0 13.0 -34.0" fill="url(#gradient7)" fill-rule="evenodd" stroke="none"/>
    <path d="M12.0 35.0 L-12.0 35.0 -13.0 34.0 -13.0 32.0 -12.6 32.0 Q-12.6 34.0 -12.05 34.0 L-2.9 34.0 Q-1.7 33.95 -1.25 33.0 L-1.0 32.0 0.0 32.0 1.0 32.0 1.25 33.0 Q1.7 33.95 2.95 34.0 L12.05 34.0 Q12.6 34.0 12.6 32.0 L13.0 32.0 13.0 34.0 12.0 35.0" fill="url(#gradient8)" fill-rule="evenodd" stroke="none"/>
    <path d="M-7.0 39.0 L7.0 39.0 7.0 42.0 -7.0 42.0 -7.0 39.0" fill="url(#gradient9)" fill-rule="evenodd" stroke="none"/>
    <path d="M13.0 -34.0 L-14.0 -34.0 -14.0 -35.0 13.0 -35.0 13.0 -34.0 M-14.0 34.0 L13.0 34.0 13.0 35.0 -14.0 35.0 -14.0 34.0" fill="#4b3e25" fill-opacity="0.15294118" fill-rule="evenodd" stroke="none"/>
  </g>
  <defs>
    <radialGradient cx="0" cy="0" gradientTransform="matrix(0.0061, 0.0, 0.0, 0.0067, -0.05, 45.15)" gradientUnits="userSpaceOnUse" id="gradient0" r="819.2" spreadMethod="pad">
      <stop offset="0.14901960784313725" stop-color="#069ce3"/>
      <stop offset="0.615686274509804" stop-color="#0572a5"/>
      <stop offset="0.9764705882352941" stop-color="#036483"/>
    </radialGradient>
    <radialGradient cx="0" cy="0" gradientTransform="matrix(0.0034, -0.0072, 0.0046, 0.0022, 1.05, 46.0)" gradientUnits="userSpaceOnUse" id="gradient1" r="819.2" spreadMethod="pad">
      <stop offset="0.011764705882352941" stop-color="#036f92"/>
      <stop offset="0.18823529411764706" stop-color="#2ebafc"/>
      <stop offset="0.3254901960784314" stop-color="#35b7f4"/>
      <stop offset="1.0" stop-color="#04a8dd"/>
    </radialGradient>
    <radialGradient cx="0" cy="0" fx="-1171.2" fy="0" gradientTransform="matrix(0.0061, 0.0037, -0.002, 0.0033, 5.35, 46.85)" gradientUnits="userSpaceOnUse" id="gradient2" r="819.2" spreadMethod="pad">
      <stop offset="0.011764705882352941" stop-color="#036f92"/>
      <stop offset="0.17647058823529413" stop-color="#2ebafc"/>
      <stop offset="0.3137254901960784" stop-color="#35b7f4"/>
      <stop offset="0.7176470588235294" stop-color="#037ea7"/>
    </radialGradient>
    <radialGradient cx="0" cy="0" fx="140.8" fy="0" gradientTransform="matrix(-4.0E-4, -0.0031, 0.0031, -4.0E-4, 1.7, 44.7)" gradientUnits="userSpaceOnUse" id="gradient3" r="819.2" spreadMethod="pad">
      <stop offset="0.36470588235294116" stop-color="#12c0fa"/>
      <stop offset="0.7294117647058823" stop-color="#078dcd"/>
      <stop offset="0.9803921568627451" stop-color="#037ea7"/>
    </radialGradient>
    <radialGradient cx="0" cy="0" gradientTransform="matrix(0.0156, 0.0, 0.0, 0.0178, 0.0, -38.95)" gradientUnits="userSpaceOnUse" id="gradient4" r="819.2" spreadMethod="pad">
      <stop offset="0.0" stop-color="#f4f0df"/>
      <stop offset="0.23921568627450981" stop-color="#ddd699"/>
      <stop offset="0.44313725490196076" stop-color="#d5c680"/>
      <stop offset="0.6549019607843137" stop-color="#ac9943"/>
      <stop offset="0.8941176470588236" stop-color="#958122"/>
      <stop offset="0.9803921568627451" stop-color="#c0ab4b"/>
    </radialGradient>
    <radialGradient cx="0" cy="0" gradientTransform="matrix(0.0157, 0.0, 0.0, 0.0157, 0.0, 38.95)" gradientUnits="userSpaceOnUse" id="gradient5" r="819.2" spreadMethod="pad">
      <stop offset="0.0" stop-color="#f4f0df"/>
      <stop offset="0.23921568627450981" stop-color="#ddd699"/>
      <stop offset="0.44313725490196076" stop-color="#d5c680"/>
      <stop offset="0.6549019607843137" stop-color="#ac9943"/>
      <stop offset="0.8941176470588236" stop-color="#958122"/>
      <stop offset="0.9803921568627451" stop-color="#c0ab4b"/>
    </radialGradient>
    <linearGradient gradientTransform="matrix(0.0159, 0.0, 0.0, 0.0415, 0.0, 0.0)" gradientUnits="userSpaceOnUse" id="gradient6" spreadMethod="pad" x1="-819.2" x2="819.2">
      <stop offset="0.0196078431372549" stop-color="#dad6d6"/>
      <stop offset="0.054901960784313725" stop-color="#c8c4c4"/>
      <stop offset="0.23137254901960785" stop-color="#e3e1e1"/>
      <stop offset="0.3686274509803922" stop-color="#f7f6f6"/>
      <stop offset="0.4549019607843137" stop-color="#ffffff"/>
      <stop offset="0.5529411764705883" stop-color="#ffffff"/>
      <stop offset="0.6313725490196078" stop-color="#f5f3f3"/>
      <stop offset="0.7843137254901961" stop-color="#e3e1e1"/>
      <stop offset="0.9294117647058824" stop-color="#c8c4c4"/>
      <stop offset="0.9607843137254902" stop-color="#dad6d6"/>
    </linearGradient>
    <radialGradient cx="0" cy="0" gradientTransform="matrix(0.022, 0.0, 0.0, -0.0186, 0.0, -32.0)" gradientUnits="userSpaceOnUse" id="gradient7" r="819.2" spreadMethod="pad">
      <stop offset="0.16862745098039217" stop-color="#efe8c7"/>
      <stop offset="0.36470588235294116" stop-color="#d3c06b"/>
      <stop offset="0.6313725490196078" stop-color="#876d23"/>
      <stop offset="0.7137254901960784" stop-color="#d9cc91"/>
    </radialGradient>
    <radialGradient cx="0" cy="0" gradientTransform="matrix(0.022, 0.0, 0.0, 0.0186, 0.0, 32.0)" gradientUnits="userSpaceOnUse" id="gradient8" r="819.2" spreadMethod="pad">
      <stop offset="0.16862745098039217" stop-color="#efe8c7"/>
      <stop offset="0.36470588235294116" stop-color="#d3c06b"/>
      <stop offset="0.6313725490196078" stop-color="#876d23"/>
      <stop offset="0.7137254901960784" stop-color="#d9cc91"/>
    </radialGradient>
    <linearGradient gradientTransform="matrix(0.0, -0.002, 0.0018, 0.0, 0.0, 40.5)" gradientUnits="userSpaceOnUse" id="gradient9" spreadMethod="pad" x1="-819.2" x2="819.2">
      <stop offset="0.3058823529411765" stop-color="#000000" stop-opacity="0.0"/>
      <stop offset="0.8470588235294118" stop-color="#000000" stop-opacity="0.2509804"/>
    </linearGradient>
  </defs>
</svg>
