<?xml version="1.0" encoding="UTF-8" standalone="no"?>
<svg xmlns:xlink="http://www.w3.org/1999/xlink" height="138.75px" width="29.25px" xmlns="http://www.w3.org/2000/svg">
  <g transform="matrix(1.0, 0.0, 0.0, 1.0, 14.75, 69.5)">
    <path d="M8.45 -52.5 Q9.7 -46.5 9.95 -35.8 L9.95 -35.75 10.15 -17.5 Q10.4 1.75 13.15 3.8 13.9 4.15 14.3 5.0 14.65 5.8 14.45 6.65 L13.5 8.0 Q12.8 8.95 12.6 13.55 13.25 13.7 13.8 14.25 14.5 14.95 14.5 16.0 L14.5 18.0 Q14.5 18.85 14.0 19.55 L13.5 20.0 13.95 20.45 Q14.5 21.1 14.5 21.95 14.85 39.95 7.25 60.6 L7.25 60.7 7.0 62.05 Q3.7 68.8 0.75 68.85 L0.7 68.85 Q-6.7 69.9 -8.6 68.15 -11.05 67.15 -14.1 62.35 L-14.15 62.25 Q-15.45 60.5 -13.85 57.95 L-13.85 57.9 Q-12.55 55.85 -10.6 55.55 -7.9 49.8 -6.25 41.2 -4.95 34.25 -5.1 32.55 L-7.3 30.85 Q-8.15 30.2 -8.25 29.25 L-8.8 25.5 Q-8.95 24.6 -8.5 23.85 -8.05 23.05 -7.2 22.75 -4.3 21.65 -4.0 20.0 L-4.0 19.55 -4.85 19.5 -6.1 19.25 -7.05 18.4 -9.05 15.4 -9.5 14.0 Q-9.5 13.25 -9.05 12.6 L-9.0 12.5 -10.05 12.3 -11.1 11.35 Q-11.5 10.75 -11.5 10.05 -11.7 -28.1 -10.1 -40.0 -7.65 -59.55 2.3 -68.8 3.0 -69.5 3.95 -69.5 4.9 -69.5 5.65 -68.9 6.35 -68.3 6.5 -67.35 L6.85 -64.8 6.85 -64.75 8.45 -52.5 M-2.35 66.15 L-2.3 66.1 -2.2 66.05 -2.3 66.1 -2.35 66.15 -2.45 66.2 -2.4 66.2 -2.35 66.15" fill="#000000" fill-rule="evenodd" stroke="none"/>
    <path d="M5.0 -38.0 L3.4 4.1 3.35 12.0 2.0 12.0 2.0 -38.0 5.0 -38.0" fill="url(#gradient0)" fill-rule="evenodd" stroke="none"/>
    <path d="M5.0 23.0 L5.0 5.0 3.4 4.1 3.4 -17.5 Q3.45 -30.65 4.0 -37.0 L2.65 -37.35 Q3.0 -42.35 3.85 -46.15 4.75 -50.25 6.0 -52.0 7.2 -46.15 7.45 -35.75 L7.65 -17.5 Q7.9 3.95 12.0 6.0 10.2 7.35 10.0 16.0 L12.0 16.0 12.0 18.0 11.15 18.25 Q10.25 18.55 10.0 19.0 9.6 19.7 11.3 23.0 L5.0 23.0" fill="url(#gradient1)" fill-rule="evenodd" stroke="none"/>
    <path d="M11.3 23.0 L5.0 23.0" fill="none" stroke="#000000" stroke-linecap="round" stroke-linejoin="round" stroke-width="0.25"/>
    <path d="M6.0 -52.0 Q2.75 -47.5 2.15 -28.9 1.95 -23.5 2.0 14.0 L-3.0 14.0 Q-4.45 10.5 -6.85 9.95 -7.0 -26.85 -5.65 -38.55 -3.55 -56.45 4.35 -64.45 L6.0 -52.0" fill="url(#gradient2)" fill-rule="evenodd" stroke="none"/>
    <path d="M6.2 -51.95 Q3.4 -48.1 2.65 -37.65" fill="none" stroke="#242828" stroke-linecap="round" stroke-linejoin="round" stroke-width="0.5"/>
    <path d="M4.35 -64.45 Q-3.55 -56.45 -5.65 -38.55 -7.0 -26.85 -6.85 9.95 L-9.0 10.0 Q-9.2 -27.85 -7.65 -39.7 -5.3 -58.2 4.0 -67.0 L4.35 -64.45" fill="url(#gradient3)" fill-rule="evenodd" stroke="none"/>
    <path d="M-1.0 14.0 L2.0 20.0 -0.7 26.0 0.85 31.2 Q0.95 35.45 -0.45 42.5 -2.35 51.9 -6.0 59.0 -4.1 65.25 -6.3 65.9 -8.5 66.5 -12.0 61.0 -12.4 60.35 -11.8 59.25 -11.2 58.15 -10.65 58.05 L-9.3 58.1 -9.0 58.0 Q-5.7 51.65 -3.8 41.65 -2.1 32.6 -3.0 31.0 L-5.8 28.85 -6.35 25.1 Q-1.45 23.25 -1.5 19.95 -1.55 16.8 -5.0 17.0 L-1.0 14.0" fill="url(#gradient4)" fill-rule="evenodd" stroke="none"/>
    <path d="M6.85 19.4 Q9.85 20.8 12.85 21.4 L12.9 25.85 5.3 20.45 2.8 14.95 -7.2 13.2 3.85 8.75 Q3.8 11.45 4.0 12.0 4.5 13.25 6.7 13.2 L6.85 19.4 M-0.5 27.3 Q2.0 30.1 2.55 33.1 L-4.0 28.25 -4.4 25.3 Q-3.0 24.5 -0.5 27.3" fill="#000000" fill-opacity="0.2" fill-rule="evenodd" stroke="none"/>
    <path d="M9.55 21.35 Q10.0 38.85 1.95 60.05 L1.55 61.15 3.95 62.1 0.0 66.0 -7.0 66.0 Q-8.5 65.1 -9.65 63.25 -10.65 61.75 -10.65 61.1 L-10.35 60.15 Q-10.0 59.4 -9.7 59.45 L-7.0 59.65 Q-5.2 59.7 -4.85 59.1 -2.1 54.15 -0.05 45.75 1.75 38.1 2.0 32.0 L-3.6 27.95 -4.0 25.0 Q1.2 22.15 0.55 18.5 0.3 17.0 -1.15 16.5 -2.7 16.0 -5.0 17.0 L-7.0 14.0 3.0 10.0 Q3.4 12.5 3.7 13.0 4.25 13.95 6.0 14.0 L6.0 20.0 9.55 21.35 M0.35 63.65 L0.1 63.65 0.1 63.55 -3.1 63.75 -3.25 63.8 -3.65 64.0 -4.3 64.65 -4.45 64.9 -4.7 65.8 -3.0 65.65 -0.65 65.65 0.35 63.65" fill="url(#gradient5)" fill-rule="evenodd" stroke="none"/>
    <path d="M12.0 22.0 Q12.35 40.55 4.0 62.0 L3.95 62.1 1.55 61.15 1.95 60.05 Q10.0 38.85 9.55 21.35 L12.0 22.0" fill="url(#gradient6)" fill-rule="evenodd" stroke="none"/>
    <path d="M1.8 59.95 L4.75 60.95 Q2.25 66.05 0.35 66.35 -6.25 67.3 -7.0 66.0 L-6.0 66.0 Q-5.9 63.85 -4.3 63.0 -2.75 62.2 0.65 62.4 L1.8 59.95 M-3.25 63.8 Q-4.55 64.3 -4.7 65.8 L-0.75 65.45 0.1 63.55 -3.25 63.8" fill="url(#gradient7)" fill-rule="evenodd" stroke="none"/>
    <path d="M4.75 60.95 L2.05 60.7 1.0 62.95 -3.85 63.35 Q-5.35 64.0 -5.45 65.95 L-6.0 66.0 Q-5.9 63.85 -4.3 63.0 -2.75 62.2 0.65 62.4 L1.8 59.95 4.75 60.95" fill="#000000" fill-opacity="0.16078432" fill-rule="evenodd" stroke="none"/>
    <path d="M4.8 22.75 L5.35 22.55 5.9 22.75 6.15 23.35 5.9 23.9 5.35 24.15 4.8 23.9 4.55 23.35 4.8 22.75" fill="#3e3739" fill-rule="evenodd" stroke="none"/>
    <path d="M4.3 22.3 Q4.75 21.85 5.35 21.85 5.95 21.85 6.4 22.3 6.85 22.75 6.85 23.35 L6.4 24.4 Q5.95 24.85 5.35 24.85 4.75 24.85 4.3 24.4 3.85 23.95 3.85 23.35 3.85 22.75 4.3 22.3 M4.8 22.75 L4.55 23.35 4.8 23.9 5.35 24.15 5.9 23.9 6.15 23.35 5.9 22.75 5.35 22.55 4.8 22.75" fill="url(#gradient8)" fill-rule="evenodd" stroke="none"/>
    <path d="M2.45 15.45 Q2.0 15.9 1.4 15.9 0.8 15.9 0.35 15.45 -0.1 15.0 -0.1 14.4 -0.1 13.8 0.35 13.35 0.8 12.9 1.4 12.9 2.0 12.9 2.45 13.35 2.9 13.8 2.9 14.4 L2.45 15.45" fill="url(#gradient9)" fill-rule="evenodd" stroke="none"/>
    <path d="M0.95 14.9 L0.7 14.4 0.95 13.9 1.4 13.7 1.9 13.9 2.1 14.4 1.9 14.9 Q1.7 15.1 1.4 15.1 L0.95 14.9 Z" fill="none" stroke="url(#gradient10)" stroke-linecap="round" stroke-linejoin="round" stroke-width="0.25"/>
    <path d="M0.05 59.95 Q-0.4 60.4 -1.0 60.4 -1.6 60.4 -2.05 59.95 L-2.5 58.9 Q-2.5 58.3 -2.05 57.85 -1.6 57.4 -1.0 57.4 -0.4 57.4 0.05 57.85 0.5 58.3 0.5 58.9 0.5 59.5 0.05 59.95 M-0.45 58.3 L-1.0 58.1 -1.55 58.3 -1.8 58.9 -1.55 59.45 -1.0 59.7 -0.45 59.45 -0.2 58.9 Q-0.2 58.55 -0.45 58.3" fill="url(#gradient11)" fill-rule="evenodd" stroke="none"/>
    <path d="M-0.45 58.3 Q-0.2 58.55 -0.2 58.9 L-0.45 59.45 -1.0 59.7 -1.55 59.45 -1.8 58.9 -1.55 58.3 -1.0 58.1 -0.45 58.3" fill="#3e3739" fill-rule="evenodd" stroke="none"/>
    <path d="M2.35 28.95 L2.95 29.35 M-0.65 26.95 L-0.05 27.35" fill="none" stroke="#181818" stroke-linecap="square" stroke-linejoin="round" stroke-width="1.0"/>
    <path d="M1.2 29.6 L2.1 28.35 M2.65 30.7 L3.65 29.35 M-1.8 27.6 L-0.9 26.35 M-0.35 28.7 L0.65 27.35" fill="none" stroke="#2c292c" stroke-linecap="round" stroke-linejoin="round" stroke-width="0.25"/>
  </g>
  <defs>
    <linearGradient gradientTransform="matrix(0.0, -0.0302, 0.0305, 0.0, 3.5, -13.0)" gradientUnits="userSpaceOnUse" id="gradient0" spreadMethod="pad" x1="-819.2" x2="819.2">
      <stop offset="0.0" stop-color="#cd2020"/>
      <stop offset="0.1411764705882353" stop-color="#cd2020"/>
      <stop offset="0.9450980392156862" stop-color="#fd2d2d"/>
      <stop offset="1.0" stop-color="#df0202"/>
    </linearGradient>
    <linearGradient gradientTransform="matrix(0.008, -0.0518, 0.0452, 0.007, 8.2, -20.4)" gradientUnits="userSpaceOnUse" id="gradient1" spreadMethod="pad" x1="-819.2" x2="819.2">
      <stop offset="0.0" stop-color="#212524"/>
      <stop offset="0.27058823529411763" stop-color="#383e3f"/>
      <stop offset="0.48627450980392156" stop-color="#373938"/>
      <stop offset="0.6313725490196078" stop-color="#373938"/>
      <stop offset="1.0" stop-color="#474d4e"/>
    </linearGradient>
    <linearGradient gradientTransform="matrix(0.009, -0.0501, 0.0471, 0.0085, -0.6, -25.2)" gradientUnits="userSpaceOnUse" id="gradient2" spreadMethod="pad" x1="-819.2" x2="819.2">
      <stop offset="0.0" stop-color="#2b2f31"/>
      <stop offset="0.2627450980392157" stop-color="#50575a"/>
      <stop offset="0.5176470588235295" stop-color="#666d6f"/>
      <stop offset="0.6705882352941176" stop-color="#6c7575"/>
      <stop offset="1.0" stop-color="#353a3c"/>
    </linearGradient>
    <linearGradient gradientTransform="matrix(0.0124, -0.0463, 0.0454, 0.0122, -2.4, -28.5)" gradientUnits="userSpaceOnUse" id="gradient3" spreadMethod="pad" x1="-819.2" x2="819.2">
      <stop offset="0.0" stop-color="#a9aeb2"/>
      <stop offset="0.21176470588235294" stop-color="#b8bcbe"/>
      <stop offset="0.5529411764705883" stop-color="#e6e6e6"/>
      <stop offset="0.6235294117647059" stop-color="#ffffff"/>
      <stop offset="0.7098039215686275" stop-color="#ffffff"/>
      <stop offset="1.0" stop-color="#a9aeb2"/>
    </linearGradient>
    <linearGradient color-interpolation="linearRGB" gradientTransform="matrix(0.0069, -0.0308, 0.0309, 0.007, -5.15, 40.0)" gradientUnits="userSpaceOnUse" id="gradient4" spreadMethod="pad" x1="-819.2" x2="819.2">
      <stop offset="0.0" stop-color="#2f2d2e"/>
      <stop offset="0.23137254901960785" stop-color="#484447"/>
      <stop offset="0.7764705882352941" stop-color="#5c5a5c"/>
      <stop offset="0.807843137254902" stop-color="#726d70"/>
      <stop offset="0.9058823529411765" stop-color="#5b5b5b"/>
      <stop offset="0.9607843137254902" stop-color="#4f4d4f"/>
    </linearGradient>
    <linearGradient color-interpolation="linearRGB" gradientTransform="matrix(0.009, -0.0337, 0.033, 0.0089, 0.85, 38.0)" gradientUnits="userSpaceOnUse" id="gradient5" spreadMethod="pad" x1="-819.2" x2="819.2">
      <stop offset="0.0" stop-color="#413f41"/>
      <stop offset="0.050980392156862744" stop-color="#5a5659"/>
      <stop offset="0.47843137254901963" stop-color="#676567"/>
      <stop offset="0.5686274509803921" stop-color="#6f6c6f"/>
      <stop offset="0.6862745098039216" stop-color="#7b757a"/>
      <stop offset="0.7843137254901961" stop-color="#7b757a"/>
      <stop offset="1.0" stop-color="#464646"/>
    </linearGradient>
    <linearGradient color-interpolation="linearRGB" gradientTransform="matrix(0.0083, -0.0237, 0.0322, 0.0113, 0.6, 39.45)" gradientUnits="userSpaceOnUse" id="gradient6" spreadMethod="pad" x1="-819.2" x2="819.2">
      <stop offset="0.0" stop-color="#403e42"/>
      <stop offset="0.3254901960784314" stop-color="#5b555b"/>
      <stop offset="0.807843137254902" stop-color="#62605e"/>
      <stop offset="1.0" stop-color="#5b555a"/>
    </linearGradient>
    <linearGradient gradientTransform="matrix(-0.0024, 0.0054, -0.0038, -0.0017, -1.3, 63.7)" gradientUnits="userSpaceOnUse" id="gradient7" spreadMethod="pad" x1="-819.2" x2="819.2">
      <stop offset="0.00784313725490196" stop-color="#d8d8d8"/>
      <stop offset="0.08627450980392157" stop-color="#cacaca"/>
      <stop offset="0.7686274509803922" stop-color="#858f8f"/>
    </linearGradient>
    <linearGradient gradientTransform="matrix(5.0E-4, -0.0018, 0.0018, 5.0E-4, 5.35, 23.35)" gradientUnits="userSpaceOnUse" id="gradient8" spreadMethod="pad" x1="-819.2" x2="819.2">
      <stop offset="0.0" stop-color="#383838"/>
      <stop offset="0.48627450980392156" stop-color="#232323"/>
      <stop offset="1.0" stop-color="#0e0e0e"/>
    </linearGradient>
    <linearGradient gradientTransform="matrix(-5.0E-4, -0.0018, 0.0018, -5.0E-4, 1.4, 14.4)" gradientUnits="userSpaceOnUse" id="gradient9" spreadMethod="pad" x1="-819.2" x2="819.2">
      <stop offset="0.00784313725490196" stop-color="#ffffff"/>
      <stop offset="0.20392156862745098" stop-color="#bbbbbb"/>
      <stop offset="0.7333333333333333" stop-color="#6c7575"/>
      <stop offset="1.0" stop-color="#5f6767"/>
    </linearGradient>
    <linearGradient color-interpolation="linearRGB" gradientTransform="matrix(0.0, 0.001, -0.001, 0.0, 1.4, 14.4)" gradientUnits="userSpaceOnUse" id="gradient10" spreadMethod="pad" x1="-819.2" x2="819.2">
      <stop offset="0.011764705882352941" stop-color="#dbdbdb"/>
      <stop offset="1.0" stop-color="#768181"/>
    </linearGradient>
    <linearGradient gradientTransform="matrix(0.0013, -0.0013, 0.0013, 0.0013, -1.0, 58.9)" gradientUnits="userSpaceOnUse" id="gradient11" spreadMethod="pad" x1="-819.2" x2="819.2">
      <stop offset="0.0" stop-color="#383838"/>
      <stop offset="0.48627450980392156" stop-color="#232323"/>
      <stop offset="1.0" stop-color="#0e0e0e"/>
    </linearGradient>
  </defs>
</svg>
