<?xml version="1.0" encoding="UTF-8" standalone="no"?>
<svg xmlns:xlink="http://www.w3.org/1999/xlink" height="22.0px" width="512.0px" xmlns="http://www.w3.org/2000/svg">
  <g transform="matrix(1.0, 0.0, 0.0, 1.0, 256.0, 11.0)">
    <path d="M195.0 -10.2 Q181.25 -11.0 160.0 -11.0 134.7 -11.0 109.0 -10.2 L64.8 -7.8 Q55.8 -6.9 -103.8 -4.25 -256.0 -1.7 -256.0 0.0 -256.0 1.7 -103.8 4.2 55.8 6.85 64.8 7.75 L109.0 10.2 Q134.9 11.0 160.0 11.0 181.15 11.0 195.0 10.2 L223.2 7.75 Q256.0 4.55 256.0 0.0 256.0 -4.55 223.2 -7.8 L195.0 -10.2" fill="url(#gradient0)" fill-rule="evenodd" stroke="none"/>
  </g>
  <defs>
    <radialGradient cx="0" cy="0" fx="-1040.0" fy="0" gradientTransform="matrix(-0.332, 0.0, 0.0, 0.0199, 0.0, 0.0)" gradientUnits="userSpaceOnUse" id="gradient0" r="819.2" spreadMethod="pad">
      <stop offset="0.0" stop-color="#ffffff"/>
      <stop offset="0.5019607843137255" stop-color="#fefdf4"/>
      <stop offset="0.7607843137254902" stop-color="#eddc49" stop-opacity="0.73333335"/>
      <stop offset="1.0" stop-color="#67effa" stop-opacity="0.3019608"/>
    </radialGradient>
  </defs>
</svg>
