<?xml version="1.0" encoding="UTF-8" standalone="no"?>
<svg xmlns:xlink="http://www.w3.org/1999/xlink" height="301.75px" width="257.2px" xmlns="http://www.w3.org/2000/svg">
  <g transform="matrix(1.0, 0.0, 0.0, 1.0, -143.0, -242.7)">
    <path d="M387.1 487.55 Q395.45 461.3 399.95 439.5 401.35 456.1 394.6 490.15 388.25 521.95 384.0 528.0 L383.35 529.35 Q382.9 530.3 382.15 530.9 378.95 533.35 375.95 534.2 372.35 535.3 363.45 536.0 366.25 531.05 365.8 516.65 365.4 503.35 362.95 493.5 366.9 497.45 370.65 504.7 L375.95 515.0 Q378.75 513.85 387.1 487.55 M143.0 245.25 L143.05 242.7 Q153.75 254.5 171.65 266.3 180.45 272.1 191.45 278.2 197.8 297.05 219.75 323.7 237.2 344.9 252.05 357.35 271.6 407.1 301.7 443.35 327.55 474.45 355.5 489.5 333.3 493.25 332.0 516.7 331.3 528.5 335.15 540.6 L311.4 542.5 Q306.0 528.8 298.05 513.8 L297.55 512.8 Q292.25 502.85 278.45 486.25 272.1 478.55 256.0 460.5 250.65 475.3 256.05 508.1 258.85 525.1 263.7 544.0 L257.35 544.4 252.6 544.0 Q239.7 505.65 219.95 465.2 194.35 412.8 179.5 408.5 159.6 376.65 149.85 320.1 143.0 280.3 143.0 245.25" fill="url(#gradient0)" fill-rule="evenodd" stroke="none"/>
  </g>
  <defs>
    <linearGradient gradientTransform="matrix(3.0E-4, -0.3259, 0.3271, 2.0E-4, 445.4, 274.0)" gradientUnits="userSpaceOnUse" id="gradient0" spreadMethod="pad" x1="-819.2" x2="819.2">
      <stop offset="0.0" stop-color="#ffffff"/>
      <stop offset="0.7764705882352941" stop-color="#39dbe8"/>
    </linearGradient>
  </defs>
</svg>
