<?xml version="1.0" encoding="UTF-8" standalone="no"?>
<svg xmlns:xlink="http://www.w3.org/1999/xlink" height="367.2px" width="221.35px" xmlns="http://www.w3.org/2000/svg">
  <g transform="matrix(1.0, 0.0, 0.0, 1.0, -36.55, -176.8)">
    <path d="M150.8 264.65 Q170.35 282.05 190.3 296.2 200.9 303.7 210.05 309.15 204.65 327.9 216.2 344.05 196.35 349.45 186.7 368.15 178.45 384.3 179.1 407.0 179.7 427.5 186.95 445.0 194.25 462.55 204.0 466.75 206.45 482.15 219.85 505.85 234.4 531.65 249.7 544.0 201.7 543.7 166.9 539.5 162.95 513.25 150.5 477.0 133.25 426.65 110.15 394.85 104.75 400.0 99.15 406.95 86.85 387.15 74.25 353.6 62.65 322.65 53.25 286.7 44.05 251.65 39.65 222.4 35.1 191.9 37.2 176.8 53.05 192.35 73.75 208.0 95.45 224.45 116.5 235.95 121.75 238.85 126.5 241.15 136.9 252.3 150.8 264.65 M257.9 420.45 Q252.1 425.1 245.15 432.6 239.9 438.2 235.7 443.8 237.1 435.9 235.95 424.5 234.75 412.65 231.3 402.1 L239.15 407.7 Q247.35 413.45 257.9 420.45" fill="url(#gradient0)" fill-rule="evenodd" stroke="none"/>
  </g>
  <defs>
    <linearGradient gradientTransform="matrix(3.0E-4, -0.3259, 0.3271, 2.0E-4, 445.4, 274.0)" gradientUnits="userSpaceOnUse" id="gradient0" spreadMethod="pad" x1="-819.2" x2="819.2">
      <stop offset="0.0" stop-color="#ffffff"/>
      <stop offset="0.7764705882352941" stop-color="#39dbe8"/>
    </linearGradient>
  </defs>
</svg>
