<?xml version="1.0" encoding="UTF-8" standalone="no"?>
<svg xmlns:xlink="http://www.w3.org/1999/xlink" height="1009.0px" width="1009.0px" xmlns="http://www.w3.org/2000/svg">
  <g transform="matrix(1.0, 0.0, 0.0, 1.0, 504.5, 504.5)">
    <path d="M504.0 0.0 Q504.0 208.75 356.35 356.35 208.75 504.0 0.0 504.0 -208.75 504.0 -356.4 356.35 -504.0 208.75 -504.0 0.0 -504.0 -208.75 -356.4 -356.4 -208.75 -504.0 0.0 -504.0 208.75 -504.0 356.35 -356.4 504.0 -208.75 504.0 0.0" fill="url(#gradient0)" fill-rule="evenodd" stroke="none"/>
    <path d="M504.0 0.0 Q504.0 208.75 356.35 356.35 208.75 504.0 0.0 504.0 -208.75 504.0 -356.4 356.35 -504.0 208.75 -504.0 0.0 -504.0 -208.75 -356.4 -356.4 -208.75 -504.0 0.0 -504.0 208.75 -504.0 356.35 -356.4 504.0 -208.75 504.0 0.0 Z" fill="none" stroke="#ffcc00" stroke-linecap="round" stroke-linejoin="round" stroke-width="1.0"/>
  </g>
  <defs>
    <radialGradient cx="0" cy="0" gradientTransform="matrix(0.6215, 0.0, 0.0, 0.6215, 0.0, 0.0)" gradientUnits="userSpaceOnUse" id="gradient0" r="819.2" spreadMethod="pad">
      <stop offset="0.0" stop-color="#ffffff"/>
      <stop offset="0.8901960784313725" stop-color="#fffef7"/>
      <stop offset="1.0" stop-color="#faea61"/>
    </radialGradient>
  </defs>
</svg>
