<?xml version="1.0" encoding="UTF-8" standalone="no"?>
<svg xmlns:xlink="http://www.w3.org/1999/xlink" height="70.9px" width="110.0px" xmlns="http://www.w3.org/2000/svg">
  <g transform="matrix(1.0, 0.0, 0.0, 1.0, 56.5, 31.4)">
    <path d="M38.35 -25.15 L40.05 -23.15 Q40.6 -22.5 40.65 -21.6 L40.65 -21.3 42.5 -6.3 42.5 -6.15 48.75 -3.75 Q49.5 -3.45 49.95 -2.75 L51.1 -1.0 51.45 -0.35 51.55 0.3 53.5 15.7 Q53.6 16.6 53.15 17.35 L51.8 18.4 -11.2 39.4 -12.05 39.5 -13.2 39.2 -35.2 27.2 -35.7 26.85 -36.1 26.65 -55.2 16.2 Q-55.95 15.8 -56.25 15.05 -56.6 14.3 -56.45 13.5 L-53.7 0.75 -53.25 -0.25 -52.5 -1.25 Q-51.95 -2.0 -51.05 -2.2 L-50.9 -2.2 -45.45 -3.8 -43.1 -12.7 -42.7 -13.55 -41.8 -14.85 Q-41.3 -15.55 -40.45 -15.75 L-39.95 -15.85 22.6 -31.3 24.15 -31.2 37.35 -25.9 38.35 -25.2 38.35 -25.15" fill="#d50000" fill-rule="evenodd" stroke="none"/>
    <path d="M-34.9 24.45 L-54.0 14.0 -51.25 1.25 -50.5 0.25 -36.0 8.0 -34.9 24.45" fill="url(#gradient0)" fill-rule="evenodd" stroke="none"/>
    <path d="M-36.0 8.0 L27.0 -10.1 29.6 4.2 -34.9 24.45 -36.0 8.0" fill="url(#gradient1)" fill-rule="evenodd" stroke="none"/>
    <path d="M27.0 -10.1 L-36.0 8.0 -50.5 0.25 9.45 -16.95 27.0 -10.1" fill="url(#gradient2)" fill-rule="evenodd" stroke="none"/>
    <path d="M27.05 -10.6 L-35.85 9.45 -37.15 7.4 25.8 -12.4 27.05 -10.6" fill="url(#gradient3)" fill-rule="evenodd" stroke="none"/>
    <path d="M-30.45 12.7 L-29.45 11.25 -14.0 19.0 -12.0 37.0 -34.0 25.0 -30.45 12.7" fill="url(#gradient4)" fill-rule="evenodd" stroke="none"/>
    <path d="M51.0 16.0 L-12.0 37.0 -14.0 19.0 48.25 -0.75 49.05 0.4 51.0 16.0" fill="url(#gradient5)" fill-rule="evenodd" stroke="none"/>
    <path d="M48.25 -0.75 L-14.0 19.0 -29.4 11.3 31.2 -7.8 47.85 -1.45 48.25 -0.75" fill="url(#gradient6)" fill-rule="evenodd" stroke="none"/>
    <path d="M-15.15 18.4 L47.8 -1.4 49.05 0.4 -13.85 20.45 -15.15 18.4" fill="url(#gradient7)" fill-rule="evenodd" stroke="none"/>
    <path d="M-25.0 -7.0 L-23.0 12.0 -44.25 1.45 -40.7 -12.1 -39.75 -13.35 -25.0 -7.0" fill="url(#gradient8)" fill-rule="evenodd" stroke="none"/>
    <path d="M40.0 -6.0 L-23.0 12.0 -25.0 -7.0 37.1 -22.75 38.1 -21.55 40.0 -6.0" fill="url(#gradient9)" fill-rule="evenodd" stroke="none"/>
    <path d="M36.4 -23.6 L37.1 -22.75 -25.0 -7.0 -39.7 -13.35 23.2 -28.9 36.4 -23.6" fill="url(#gradient10)" fill-rule="evenodd" stroke="none"/>
    <path d="M38.15 -21.55 L-24.8 -5.25 -26.1 -7.5 36.45 -23.55 38.15 -21.55" fill="url(#gradient11)" fill-rule="evenodd" stroke="none"/>
  </g>
  <defs>
    <linearGradient gradientTransform="matrix(-0.0141, -0.0339, 0.0141, -0.0058, -27.65, 11.85)" gradientUnits="userSpaceOnUse" id="gradient0" spreadMethod="pad" x1="-819.2" x2="819.2">
      <stop offset="0.047058823529411764" stop-color="#dbdbdb"/>
      <stop offset="0.1450980392156863" stop-color="#bfbfbf"/>
      <stop offset="1.0" stop-color="#464646"/>
    </linearGradient>
    <linearGradient gradientTransform="matrix(0.0042, 0.0101, -0.0194, 0.008, -3.25, 7.1)" gradientUnits="userSpaceOnUse" id="gradient1" spreadMethod="pad" x1="-819.2" x2="819.2">
      <stop offset="0.0" stop-color="#2e2e2e"/>
      <stop offset="0.5098039215686274" stop-color="#383838"/>
      <stop offset="1.0" stop-color="#464646"/>
    </linearGradient>
    <linearGradient gradientTransform="matrix(0.0087, -0.0468, 0.015, 0.0028, -12.05, -4.45)" gradientUnits="userSpaceOnUse" id="gradient2" spreadMethod="pad" x1="-819.2" x2="819.2">
      <stop offset="0.0" stop-color="#8a8a8a"/>
      <stop offset="0.21568627450980393" stop-color="#3c3c3c"/>
      <stop offset="1.0" stop-color="#515151"/>
    </linearGradient>
    <linearGradient gradientTransform="matrix(0.0367, -0.0138, 0.0039, 0.0105, -5.05, 0.15)" gradientUnits="userSpaceOnUse" id="gradient3" spreadMethod="pad" x1="-819.2" x2="819.2">
      <stop offset="0.0" stop-color="#555555"/>
      <stop offset="0.18823529411764706" stop-color="#0b0b0b"/>
      <stop offset="0.7019607843137254" stop-color="#2e2e2e"/>
      <stop offset="1.0" stop-color="#6a6a6a"/>
    </linearGradient>
    <linearGradient gradientTransform="matrix(-0.0141, -0.0339, 0.0141, -0.0058, -27.65, 11.85)" gradientUnits="userSpaceOnUse" id="gradient4" spreadMethod="pad" x1="-819.2" x2="819.2">
      <stop offset="0.07058823529411765" stop-color="#fbfbfb"/>
      <stop offset="0.11764705882352941" stop-color="#ede8d8"/>
      <stop offset="0.1843137254901961" stop-color="#bfbfbf"/>
      <stop offset="1.0" stop-color="#464646"/>
    </linearGradient>
    <linearGradient gradientTransform="matrix(-0.0226, 0.0293, -0.0183, -0.0141, 18.15, 17.65)" gradientUnits="userSpaceOnUse" id="gradient5" spreadMethod="pad" x1="-819.2" x2="819.2">
      <stop offset="0.1411764705882353" stop-color="#1c1c1c"/>
      <stop offset="0.48627450980392156" stop-color="#383838"/>
      <stop offset="0.792156862745098" stop-color="#4a4a4a"/>
      <stop offset="1.0" stop-color="#515151"/>
    </linearGradient>
    <linearGradient gradientTransform="matrix(0.0119, -0.044, 0.0129, 0.0035, 11.95, 6.05)" gradientUnits="userSpaceOnUse" id="gradient6" spreadMethod="pad" x1="-819.2" x2="819.2">
      <stop offset="0.0" stop-color="#aaaaaa"/>
      <stop offset="0.5058823529411764" stop-color="#000000"/>
      <stop offset="0.5529411764705883" stop-color="#181818"/>
      <stop offset="0.9215686274509803" stop-color="#e2e2e2"/>
    </linearGradient>
    <linearGradient gradientTransform="matrix(0.0375, -0.0115, 0.0033, 0.0107, 16.85, 11.2)" gradientUnits="userSpaceOnUse" id="gradient7" spreadMethod="pad" x1="-819.2" x2="819.2">
      <stop offset="0.0" stop-color="#b5b5b5"/>
      <stop offset="0.4980392156862745" stop-color="#060606"/>
      <stop offset="1.0" stop-color="#d0d0d0"/>
    </linearGradient>
    <linearGradient gradientTransform="matrix(-0.0141, -0.0339, 0.0141, -0.0058, -27.65, 11.85)" gradientUnits="userSpaceOnUse" id="gradient8" spreadMethod="pad" x1="-819.2" x2="819.2">
      <stop offset="0.047058823529411764" stop-color="#dbdbdb"/>
      <stop offset="0.1450980392156863" stop-color="#bfbfbf"/>
      <stop offset="1.0" stop-color="#464646"/>
    </linearGradient>
    <linearGradient gradientTransform="matrix(-0.0321, -0.0186, 0.0106, -0.0183, 7.2, -5.95)" gradientUnits="userSpaceOnUse" id="gradient9" spreadMethod="pad" x1="-819.2" x2="819.2">
      <stop offset="0.19607843137254902" stop-color="#545a6b"/>
      <stop offset="0.26666666666666666" stop-color="#3a424b"/>
      <stop offset="0.5725490196078431" stop-color="#3e3e3e"/>
      <stop offset="0.8431372549019608" stop-color="#1c1c1c"/>
    </linearGradient>
    <linearGradient gradientTransform="matrix(0.003, -0.0195, 0.0132, 0.0021, -3.65, -18.25)" gradientUnits="userSpaceOnUse" id="gradient10" spreadMethod="pad" x1="-819.2" x2="819.2">
      <stop offset="0.08627450980392157" stop-color="#dfdfdf"/>
      <stop offset="0.4" stop-color="#585858"/>
      <stop offset="0.6509803921568628" stop-color="#3c3c3c"/>
      <stop offset="0.9215686274509803" stop-color="#434343"/>
      <stop offset="1.0" stop-color="#7b7b7b"/>
    </linearGradient>
    <linearGradient gradientTransform="matrix(0.0398, -0.0122, 0.0033, 0.0107, 6.0, -14.4)" gradientUnits="userSpaceOnUse" id="gradient11" spreadMethod="pad" x1="-819.2" x2="819.2">
      <stop offset="0.01568627450980392" stop-color="#ededed"/>
      <stop offset="0.7490196078431373" stop-color="#353535"/>
      <stop offset="0.8941176470588236" stop-color="#4d4d4d"/>
      <stop offset="1.0" stop-color="#919191"/>
    </linearGradient>
  </defs>
</svg>
