<?xml version="1.0" encoding="UTF-8" standalone="no"?>
<svg xmlns:xlink="http://www.w3.org/1999/xlink" height="192.0px" width="384.0px" xmlns="http://www.w3.org/2000/svg">
  <g transform="matrix(1.0, 0.0, 0.0, 1.0, 0.0, 0.0)">
    <path d="M368.0 16.0 L360.0 32.0 368.0 48.0 376.0 32.0 368.0 16.0 376.0 0.0 384.0 16.0 376.0 32.0 384.0 48.0 376.0 64.0 368.0 48.0 360.0 64.0 352.0 48.0 360.0 32.0 352.0 16.0 360.0 0.0 368.0 16.0 M376.0 64.0 L384.0 80.0 376.0 96.0 384.0 112.0 376.0 128.0 384.0 144.0 376.0 160.0 384.0 176.0 376.0 192.0 368.0 176.0 360.0 192.0 352.0 176.0 344.0 192.0 336.0 176.0 328.0 192.0 320.0 176.0 312.0 192.0 304.0 176.0 296.0 192.0 288.0 176.0 280.0 192.0 272.0 176.0 264.0 192.0 256.0 176.0 248.0 192.0 240.0 176.0 232.0 192.0 224.0 176.0 216.0 192.0 208.0 176.0 200.0 192.0 192.0 176.0 184.0 192.0 176.0 176.0 168.0 192.0 160.0 176.0 152.0 192.0 144.0 176.0 136.0 192.0 128.0 176.0 120.0 192.0 112.0 176.0 104.0 192.0 96.0 176.0 88.0 192.0 80.0 176.0 72.0 192.0 64.0 176.0 56.0 192.0 48.0 176.0 40.0 192.0 32.0 176.0 24.0 192.0 16.0 176.0 8.0 192.0 0.0 176.0 8.0 160.0 0.0 144.0 8.0 128.0 0.0 112.0 8.0 96.0 0.0 80.0 8.0 64.0 0.0 48.0 8.0 32.0 0.0 16.0 8.0 0.0 16.0 16.0 24.0 0.0 32.0 16.0 40.0 0.0 48.0 16.0 56.0 0.0 64.0 16.0 72.0 0.0 80.0 16.0 88.0 0.0 96.0 16.0 104.0 0.0 112.0 16.0 120.0 0.0 128.0 16.0 136.0 0.0 144.0 16.0 152.0 0.0 160.0 16.0 168.0 0.0 176.0 16.0 184.0 0.0 192.0 16.0 200.0 0.0 208.0 16.0 216.0 0.0 224.0 16.0 232.0 0.0 240.0 16.0 248.0 0.0 256.0 16.0 264.0 0.0 272.0 16.0 280.0 0.0 288.0 16.0 296.0 0.0 304.0 16.0 312.0 0.0 320.0 16.0 328.0 0.0 336.0 16.0 344.0 0.0 352.0 16.0 344.0 32.0 352.0 48.0 344.0 64.0 352.0 80.0 360.0 64.0 368.0 80.0 376.0 64.0 M344.0 32.0 L336.0 16.0 328.0 32.0 336.0 48.0 344.0 32.0 M344.0 96.0 L352.0 112.0 360.0 96.0 352.0 80.0 344.0 96.0 336.0 80.0 328.0 96.0 336.0 112.0 344.0 96.0 M344.0 64.0 L336.0 48.0 328.0 64.0 336.0 80.0 344.0 64.0 M368.0 80.0 L360.0 96.0 368.0 112.0 376.0 96.0 368.0 80.0 M368.0 112.0 L360.0 128.0 368.0 144.0 376.0 128.0 368.0 112.0 M352.0 144.0 L360.0 128.0 352.0 112.0 344.0 128.0 352.0 144.0 344.0 160.0 336.0 144.0 344.0 128.0 336.0 112.0 328.0 128.0 320.0 112.0 328.0 96.0 320.0 80.0 328.0 64.0 320.0 48.0 328.0 32.0 320.0 16.0 312.0 32.0 304.0 16.0 296.0 32.0 288.0 16.0 280.0 32.0 272.0 16.0 264.0 32.0 256.0 16.0 248.0 32.0 240.0 16.0 232.0 32.0 224.0 16.0 216.0 32.0 208.0 16.0 200.0 32.0 192.0 16.0 184.0 32.0 176.0 16.0 168.0 32.0 160.0 16.0 152.0 32.0 144.0 16.0 136.0 32.0 128.0 16.0 120.0 32.0 112.0 16.0 104.0 32.0 96.0 16.0 88.0 32.0 80.0 16.0 72.0 32.0 64.0 16.0 56.0 32.0 48.0 16.0 40.0 32.0 32.0 16.0 24.0 32.0 16.0 16.0 8.0 32.0 16.0 48.0 8.0 64.0 16.0 80.0 8.0 96.0 16.0 112.0 8.0 128.0 16.0 144.0 8.0 160.0 16.0 176.0 24.0 160.0 32.0 176.0 40.0 160.0 48.0 176.0 56.0 160.0 64.0 176.0 72.0 160.0 80.0 176.0 88.0 160.0 96.0 176.0 104.0 160.0 112.0 176.0 120.0 160.0 128.0 176.0 136.0 160.0 144.0 176.0 152.0 160.0 160.0 176.0 168.0 160.0 176.0 176.0 184.0 160.0 192.0 176.0 200.0 160.0 208.0 176.0 216.0 160.0 224.0 176.0 232.0 160.0 240.0 176.0 248.0 160.0 256.0 176.0 264.0 160.0 272.0 176.0 280.0 160.0 288.0 176.0 296.0 160.0 304.0 176.0 312.0 160.0 320.0 176.0 328.0 160.0 336.0 176.0 344.0 160.0 352.0 176.0 360.0 160.0 368.0 176.0 376.0 160.0 368.0 144.0 360.0 160.0 352.0 144.0 M328.0 128.0 L336.0 144.0 328.0 160.0 320.0 144.0 312.0 160.0 304.0 144.0 296.0 160.0 288.0 144.0 280.0 160.0 272.0 144.0 264.0 160.0 256.0 144.0 248.0 160.0 240.0 144.0 232.0 160.0 224.0 144.0 216.0 160.0 208.0 144.0 200.0 160.0 192.0 144.0 184.0 160.0 176.0 144.0 168.0 160.0 160.0 144.0 152.0 160.0 144.0 144.0 136.0 160.0 128.0 144.0 120.0 160.0 112.0 144.0 104.0 160.0 96.0 144.0 88.0 160.0 80.0 144.0 72.0 160.0 64.0 144.0 56.0 160.0 48.0 144.0 40.0 160.0 32.0 144.0 24.0 160.0 16.0 144.0 24.0 128.0 16.0 112.0 24.0 96.0 16.0 80.0 24.0 64.0 16.0 48.0 24.0 32.0 32.0 48.0 40.0 32.0 48.0 48.0 56.0 32.0 64.0 48.0 72.0 32.0 80.0 48.0 88.0 32.0 96.0 48.0 104.0 32.0 112.0 48.0 120.0 32.0 128.0 48.0 136.0 32.0 144.0 48.0 152.0 32.0 160.0 48.0 168.0 32.0 176.0 48.0 184.0 32.0 192.0 48.0 200.0 32.0 208.0 48.0 216.0 32.0 224.0 48.0 232.0 32.0 240.0 48.0 248.0 32.0 256.0 48.0 264.0 32.0 272.0 48.0 280.0 32.0 288.0 48.0 296.0 32.0 304.0 48.0 312.0 32.0 320.0 48.0 312.0 64.0 320.0 80.0 312.0 96.0 320.0 112.0 312.0 128.0 320.0 144.0 328.0 128.0 M264.0 96.0 L272.0 112.0 280.0 96.0 272.0 80.0 264.0 96.0 256.0 80.0 248.0 96.0 256.0 112.0 264.0 96.0 M264.0 64.0 L256.0 48.0 248.0 64.0 256.0 80.0 264.0 64.0 272.0 80.0 280.0 64.0 288.0 80.0 280.0 96.0 288.0 112.0 280.0 128.0 272.0 112.0 264.0 128.0 256.0 112.0 248.0 128.0 240.0 112.0 248.0 96.0 240.0 80.0 248.0 64.0 240.0 48.0 232.0 64.0 224.0 48.0 216.0 64.0 208.0 48.0 200.0 64.0 192.0 48.0 184.0 64.0 176.0 48.0 168.0 64.0 160.0 48.0 152.0 64.0 144.0 48.0 136.0 64.0 128.0 48.0 120.0 64.0 112.0 48.0 104.0 64.0 96.0 48.0 88.0 64.0 80.0 48.0 72.0 64.0 64.0 48.0 56.0 64.0 48.0 48.0 40.0 64.0 32.0 48.0 24.0 64.0 32.0 80.0 24.0 96.0 32.0 112.0 24.0 128.0 32.0 144.0 40.0 128.0 48.0 144.0 56.0 128.0 64.0 144.0 72.0 128.0 80.0 144.0 88.0 128.0 96.0 144.0 104.0 128.0 112.0 144.0 120.0 128.0 128.0 144.0 136.0 128.0 144.0 144.0 152.0 128.0 160.0 144.0 168.0 128.0 176.0 144.0 184.0 128.0 192.0 144.0 200.0 128.0 208.0 144.0 216.0 128.0 224.0 144.0 232.0 128.0 240.0 144.0 248.0 128.0 256.0 144.0 264.0 128.0 272.0 144.0 280.0 128.0 288.0 144.0 296.0 128.0 304.0 144.0 312.0 128.0 304.0 112.0 312.0 96.0 304.0 80.0 312.0 64.0 304.0 48.0 296.0 64.0 288.0 48.0 280.0 64.0 272.0 48.0 264.0 64.0 M288.0 80.0 L296.0 64.0 304.0 80.0 296.0 96.0 304.0 112.0 296.0 128.0 288.0 112.0 296.0 96.0 288.0 80.0 M184.0 96.0 L192.0 112.0 200.0 96.0 192.0 80.0 184.0 96.0 176.0 80.0 168.0 96.0 176.0 112.0 184.0 96.0 M168.0 64.0 L176.0 80.0 184.0 64.0 192.0 80.0 200.0 64.0 208.0 80.0 216.0 64.0 224.0 80.0 232.0 64.0 240.0 80.0 232.0 96.0 240.0 112.0 232.0 128.0 224.0 112.0 216.0 128.0 208.0 112.0 200.0 128.0 192.0 112.0 184.0 128.0 176.0 112.0 168.0 128.0 160.0 112.0 152.0 128.0 144.0 112.0 136.0 128.0 128.0 112.0 120.0 128.0 112.0 112.0 104.0 128.0 96.0 112.0 88.0 128.0 80.0 112.0 72.0 128.0 64.0 112.0 56.0 128.0 48.0 112.0 40.0 128.0 32.0 112.0 40.0 96.0 32.0 80.0 40.0 64.0 48.0 80.0 56.0 64.0 64.0 80.0 72.0 64.0 80.0 80.0 88.0 64.0 96.0 80.0 104.0 64.0 112.0 80.0 120.0 64.0 128.0 80.0 136.0 64.0 144.0 80.0 152.0 64.0 160.0 80.0 168.0 64.0 M216.0 96.0 L224.0 112.0 232.0 96.0 224.0 80.0 216.0 96.0 208.0 80.0 200.0 96.0 208.0 112.0 216.0 96.0 M104.0 96.0 L112.0 112.0 120.0 96.0 112.0 80.0 104.0 96.0 96.0 80.0 88.0 96.0 96.0 112.0 104.0 96.0 M64.0 80.0 L56.0 96.0 48.0 80.0 40.0 96.0 48.0 112.0 56.0 96.0 64.0 112.0 72.0 96.0 80.0 112.0 88.0 96.0 80.0 80.0 72.0 96.0 64.0 80.0 M144.0 80.0 L136.0 96.0 128.0 80.0 120.0 96.0 128.0 112.0 136.0 96.0 144.0 112.0 152.0 96.0 160.0 112.0 168.0 96.0 160.0 80.0 152.0 96.0 144.0 80.0" fill="#000000" fill-rule="evenodd" stroke="none"/>
  </g>
</svg>
