<?xml version="1.0" encoding="UTF-8" standalone="no"?>
<svg xmlns:xlink="http://www.w3.org/1999/xlink" height="137.0px" width="253.0px" xmlns="http://www.w3.org/2000/svg">
  <g transform="matrix(1.0, 0.0, 0.0, 1.0, 3.0, 15.0)">
    <path d="M56.0 -3.0 L247.0 -3.0 Q250.0 -3.0 250.0 0.0 L250.0 119.0 Q250.0 122.0 247.0 122.0 L0.0 122.0 Q-3.0 122.0 -3.0 119.0 L-3.0 -12.0 Q-3.0 -15.0 0.0 -15.0 L53.0 -15.0 Q56.0 -15.0 56.0 -12.0 L56.0 -3.0 M245.0 1.0 L2.0 1.0 Q1.0 1.0 1.0 2.0 L1.0 117.0 Q1.0 118.0 2.0 118.0 L245.0 118.0 Q246.0 118.0 246.0 117.0 L246.0 2.0 Q246.0 1.0 245.0 1.0" fill="#000000" fill-rule="evenodd" stroke="none"/>
    <path d="M247.0 2.0 Q247.0 0.0 245.0 0.0 L2.0 0.0 Q0.0 0.0 0.0 2.0 L0.0 117.0 Q0.0 119.0 2.0 119.0 L245.0 119.0 Q247.0 119.0 247.0 117.0 L247.0 2.0 M53.0 -14.0 Q55.0 -14.0 55.0 -12.0 L55.0 -2.0 247.0 -2.0 Q249.0 -2.0 249.0 0.0 L249.0 119.0 Q249.0 121.0 247.0 121.0 L0.0 121.0 Q-2.0 121.0 -2.0 119.0 L-2.0 -12.0 Q-2.0 -14.0 0.0 -14.0 L53.0 -14.0" fill="#00ff00" fill-rule="evenodd" stroke="none"/>
  </g>
</svg>
