<?xml version="1.0" encoding="UTF-8" standalone="no"?>
<svg xmlns:xlink="http://www.w3.org/1999/xlink" height="46.0px" width="128.0px" xmlns="http://www.w3.org/2000/svg">
  <g transform="matrix(1.0, 0.0, 0.0, 1.0, 3.0, 15.0)">
    <path d="M56.0 -3.0 L122.0 -3.0 Q125.0 -3.0 125.0 0.0 L125.0 28.0 Q125.0 31.0 122.0 31.0 L0.0 31.0 Q-3.0 31.0 -3.0 28.0 L-3.0 -12.0 Q-3.0 -15.0 0.0 -15.0 L53.0 -15.0 Q56.0 -15.0 56.0 -12.0 L56.0 -3.0 M120.0 1.0 L2.0 1.0 Q1.0 1.0 1.0 2.0 L1.0 26.0 Q1.0 27.0 2.0 27.0 L120.0 27.0 Q121.0 27.0 121.0 26.0 L121.0 2.0 Q121.0 1.0 120.0 1.0" fill="#000000" fill-rule="evenodd" stroke="none"/>
    <path d="M55.0 -12.0 L55.0 -2.0 122.0 -2.0 Q124.0 -2.0 124.0 0.0 L124.0 28.0 Q124.0 30.0 122.0 30.0 L0.0 30.0 Q-2.0 30.0 -2.0 28.0 L-2.0 -12.0 Q-2.0 -14.0 0.0 -14.0 L53.0 -14.0 Q55.0 -14.0 55.0 -12.0 M122.0 2.0 Q122.0 0.0 120.0 0.0 L2.0 0.0 Q0.0 0.0 0.0 2.0 L0.0 26.0 Q0.0 28.0 2.0 28.0 L120.0 28.0 Q122.0 28.0 122.0 26.0 L122.0 2.0" fill="#00ff00" fill-rule="evenodd" stroke="none"/>
  </g>
</svg>
