<?xml version="1.0" encoding="UTF-8" standalone="no"?>
<svg xmlns:xlink="http://www.w3.org/1999/xlink" height="4.75px" width="4.75px" xmlns="http://www.w3.org/2000/svg">
  <g transform="matrix(1.0, 0.0, 0.0, 1.0, 2.35, 2.35)">
    <path d="M1.4 -1.45 Q2.0 -0.85 2.0 0.0 2.0 0.85 1.4 1.4 0.85 2.0 0.0 2.0 -0.85 2.0 -1.45 1.4 -2.0 0.85 -2.0 0.0 -2.0 -0.85 -1.45 -1.45 -0.85 -2.0 0.0 -2.0 0.85 -2.0 1.4 -1.45" fill="url(#gradient0)" fill-rule="evenodd" stroke="none"/>
    <path d="M0.0 -2.35 Q1.0 -2.4 1.7 -1.7 2.4 -1.0 2.4 0.0 2.35 1.0 1.7 1.65 L1.65 1.7 Q1.0 2.35 0.0 2.4 -1.0 2.4 -1.7 1.7 -2.4 1.0 -2.35 0.0 -2.35 -1.0 -1.7 -1.7 -1.0 -2.35 0.0 -2.35 M1.15 -1.15 L0.0 -1.6 Q-0.7 -1.65 -1.15 -1.2 L-1.2 -1.15 Q-1.65 -0.7 -1.6 0.0 -1.6 0.7 -1.15 1.15 -0.7 1.6 0.0 1.65 0.7 1.65 1.15 1.15 1.65 0.7 1.65 0.0 1.6 -0.7 1.15 -1.15 M0.7 -0.7 L1.0 0.0 0.7 0.7 0.0 1.0 -0.7 0.7 -1.0 0.0 -0.7 -0.7 0.0 -1.0 0.7 -0.7" fill="#000000" fill-rule="evenodd" stroke="none"/>
  </g>
  <defs>
    <linearGradient gradientTransform="matrix(-0.0013, 0.0021, -0.0021, -0.0013, 0.0, 0.0)" gradientUnits="userSpaceOnUse" id="gradient0" spreadMethod="pad" x1="-819.2" x2="819.2">
      <stop offset="0.0" stop-color="#8a8a8a"/>
      <stop offset="0.6352941176470588" stop-color="#e6e6e6"/>
      <stop offset="0.8862745098039215" stop-color="#ffffff"/>
    </linearGradient>
  </defs>
</svg>
