<?xml version="1.0" encoding="UTF-8" standalone="no"?>
<svg xmlns:xlink="http://www.w3.org/1999/xlink" height="54.0px" width="80.0px" xmlns="http://www.w3.org/2000/svg">
  <g transform="matrix(1.0, 0.0, 0.0, 1.0, 3.0, 15.0)">
    <path d="M74.0 -3.0 Q77.0 -3.0 77.0 0.0 L77.0 36.0 Q77.0 39.0 74.0 39.0 L0.0 39.0 Q-3.0 39.0 -3.0 36.0 L-3.0 -12.0 Q-3.0 -15.0 0.0 -15.0 L46.0 -15.0 Q49.0 -15.0 49.0 -12.0 L49.0 -3.0 74.0 -3.0 M73.0 2.0 Q73.0 1.0 72.0 1.0 L2.0 1.0 Q1.0 1.0 1.0 2.0 L1.0 34.0 Q1.0 35.0 2.0 35.0 L72.0 35.0 Q73.0 35.0 73.0 34.0 L73.0 2.0" fill="#000000" fill-rule="evenodd" stroke="none"/>
    <path d="M74.0 -2.0 Q76.0 -2.0 76.0 0.0 L76.0 36.0 Q76.0 38.0 74.0 38.0 L0.0 38.0 Q-2.0 38.0 -2.0 36.0 L-2.0 -12.0 Q-2.0 -14.0 0.0 -14.0 L46.0 -14.0 Q48.0 -14.0 48.0 -12.0 L48.0 -2.0 74.0 -2.0 M74.0 2.0 Q74.0 0.0 72.0 0.0 L2.0 0.0 Q0.0 0.0 0.0 2.0 L0.0 34.0 Q0.0 36.0 2.0 36.0 L72.0 36.0 Q74.0 36.0 74.0 34.0 L74.0 2.0" fill="#00ff00" fill-rule="evenodd" stroke="none"/>
  </g>
</svg>
