<?xml version="1.0" encoding="UTF-8" standalone="no"?>
<svg xmlns:xlink="http://www.w3.org/1999/xlink" height="117.05px" width="548.0px" xmlns="http://www.w3.org/2000/svg">
  <g transform="matrix(1.0, 0.0, 0.0, 1.0, 3.0, 15.0)">
    <path d="M49.0 -12.0 L49.0 -3.0 542.0 -3.0 Q545.0 -3.0 545.0 0.0 L545.0 99.05 Q545.0 102.05 542.0 102.05 L0.0 102.05 Q-3.0 102.05 -3.0 99.05 L-3.0 -12.0 Q-3.0 -15.0 0.0 -15.0 L46.0 -15.0 Q49.0 -15.0 49.0 -12.0 M540.0 1.0 L2.0 1.0 Q1.0 1.0 1.0 2.0 L1.0 97.05 Q1.0 98.05 2.0 98.05 L540.0 98.05 Q541.0 98.05 541.0 97.05 L541.0 2.0 Q541.0 1.0 540.0 1.0" fill="#000000" fill-rule="evenodd" stroke="none"/>
    <path d="M542.0 2.0 Q542.0 0.0 540.0 0.0 L2.0 0.0 Q0.0 0.0 0.0 2.0 L0.0 97.05 Q0.0 99.05 2.0 99.05 L540.0 99.05 Q542.0 99.05 542.0 97.05 L542.0 2.0 M46.0 -14.0 Q48.0 -14.0 48.0 -12.0 L48.0 -2.0 542.0 -2.0 Q544.0 -2.0 544.0 0.0 L544.0 99.05 Q544.0 101.05 542.0 101.05 L0.0 101.05 Q-2.0 101.05 -2.0 99.05 L-2.0 -12.0 Q-2.0 -14.0 0.0 -14.0 L46.0 -14.0" fill="#00ff00" fill-rule="evenodd" stroke="none"/>
  </g>
</svg>
