<?xml version="1.0" encoding="UTF-8" standalone="no"?>
<svg xmlns:xlink="http://www.w3.org/1999/xlink" height="84.25px" width="7.05px" xmlns="http://www.w3.org/2000/svg">
  <g transform="matrix(1.0, 0.0, 0.0, 1.0, 3.5, 83.25)">
    <path d="M1.8 -81.5 Q2.45 -80.85 2.55 -79.9 L2.55 -79.75 2.55 -2.45 Q2.5 -1.45 1.8 -0.75 1.05 0.0 0.0 0.0 -1.05 0.0 -1.8 -0.75 -2.5 -1.45 -2.5 -2.45 L-2.5 -79.75 -2.5 -79.9 Q-2.45 -80.85 -1.8 -81.5 L-1.75 -81.5 Q-1.05 -82.25 0.0 -82.25 1.05 -82.25 1.8 -81.5" fill="#fbfffd" fill-rule="evenodd" stroke="none"/>
    <path d="M1.8 -81.5 Q2.45 -80.85 2.55 -79.9 L2.55 -79.75 2.55 -2.45 Q2.5 -1.45 1.8 -0.75 1.05 0.0 0.0 0.0 -1.05 0.0 -1.8 -0.75 -2.5 -1.45 -2.5 -2.45 L-2.5 -79.75 -2.5 -79.9 Q-2.45 -80.85 -1.8 -81.5 L-1.75 -81.5 Q-1.05 -82.25 0.0 -82.25 1.05 -82.25 1.8 -81.5 Z" fill="none" stroke="#8c97f9" stroke-linecap="round" stroke-linejoin="round" stroke-opacity="0.5019608" stroke-width="2.0"/>
  </g>
</svg>
