<?xml version="1.0" encoding="UTF-8" standalone="no"?>
<svg xmlns:xlink="http://www.w3.org/1999/xlink" height="93.3px" width="217.0px" xmlns="http://www.w3.org/2000/svg">
  <g transform="matrix(1.0, 0.0, 0.0, 1.0, 8.5, 46.65)">
    <path d="M208.0 46.15 L203.5 45.75 Q177.35 43.45 123.65 36.0 L117.55 35.15 Q64.35 27.7 32.3 21.6 3.55 16.1 -1.4 13.05 -5.5 10.5 -7.0 6.75 -8.0 4.2 -8.0 0.0 -8.0 -4.2 -7.0 -6.75 -5.5 -10.5 -1.4 -13.05 3.55 -16.1 32.3 -21.6 64.35 -27.7 117.55 -35.15 180.85 -44.0 208.0 -46.15 L208.0 46.15" fill="url(#gradient0)" fill-rule="evenodd" stroke="none"/>
    <path d="M208.0 46.15 L203.5 45.75 Q177.35 43.45 123.65 36.0 L117.55 35.15 Q64.35 27.7 32.3 21.6 3.55 16.1 -1.4 13.05 -5.5 10.5 -7.0 6.75 -8.0 4.2 -8.0 0.0 -8.0 -4.2 -7.0 -6.75 -5.5 -10.5 -1.4 -13.05 3.55 -16.1 32.3 -21.6 64.35 -27.7 117.55 -35.15 180.85 -44.0 208.0 -46.15" fill="none" stroke="#8c97f9" stroke-linecap="round" stroke-linejoin="round" stroke-width="1.0"/>
  </g>
  <defs>
    <radialGradient cx="0" cy="0" fx="-880.0" fy="0" gradientTransform="matrix(0.3027, 0.0, 0.0, -0.0647, 208.0, 0.0)" gradientUnits="userSpaceOnUse" id="gradient0" r="819.2" spreadMethod="pad">
      <stop offset="0.43137254901960786" stop-color="#ffffff"/>
      <stop offset="0.7843137254901961" stop-color="#acc0fd"/>
      <stop offset="0.984313725490196" stop-color="#3246f8"/>
    </radialGradient>
  </defs>
</svg>
