<?xml version="1.0" encoding="UTF-8" standalone="no"?>
<svg xmlns:xlink="http://www.w3.org/1999/xlink" height="39.2px" width="217.0px" xmlns="http://www.w3.org/2000/svg">
  <g transform="matrix(1.0, 0.0, 0.0, 1.0, 8.5, 19.6)">
    <path d="M31.2 -10.75 Q62.25 -14.6 164.8 -18.15 192.15 -19.1 208.0 -19.1 L208.0 19.1 207.45 19.1 Q191.7 19.1 164.8 18.15 L109.85 16.0 Q52.95 13.45 31.2 10.75 L8.3 7.65 Q0.7 6.4 -2.5 5.0 -4.75 4.0 -6.3 2.7 -8.0 1.25 -8.0 0.0 -8.0 -1.25 -6.3 -2.7 -4.75 -4.0 -2.5 -5.0 0.7 -6.4 8.3 -7.65 L31.2 -10.75" fill="url(#gradient0)" fill-rule="evenodd" stroke="none"/>
    <path d="M31.2 -10.75 Q62.25 -14.6 164.8 -18.15 192.15 -19.1 208.0 -19.1 L208.0 19.1 207.45 19.1 Q191.7 19.1 164.8 18.15 L109.85 16.0 Q52.95 13.45 31.2 10.75 L8.3 7.65 Q0.7 6.4 -2.5 5.0 -4.75 4.0 -6.3 2.7 -8.0 1.25 -8.0 0.0 -8.0 -1.25 -6.3 -2.7 -4.75 -4.0 -2.5 -5.0 0.7 -6.4 8.3 -7.65 L31.2 -10.75 Z" fill="none" stroke="#8c97f9" stroke-linecap="round" stroke-linejoin="round" stroke-width="1.0"/>
  </g>
  <defs>
    <radialGradient cx="0" cy="0" fx="-880.0" fy="0" gradientTransform="matrix(0.3027, 0.0, 0.0, -0.0647, 208.0, 0.0)" gradientUnits="userSpaceOnUse" id="gradient0" r="819.2" spreadMethod="pad">
      <stop offset="0.43137254901960786" stop-color="#ffffff"/>
      <stop offset="0.7843137254901961" stop-color="#acc0fd"/>
      <stop offset="0.984313725490196" stop-color="#3246f8"/>
    </radialGradient>
  </defs>
</svg>
