<?xml version="1.0" encoding="UTF-8" standalone="no"?>
<svg xmlns:xlink="http://www.w3.org/1999/xlink" height="109.5px" width="34.0px" xmlns="http://www.w3.org/2000/svg">
  <g transform="matrix(1.0, 0.0, 0.0, 1.0, 16.55, 65.3)">
    <path d="M-6.5 -59.6 L-6.45 -60.8 Q-6.45 -62.05 -4.4 -62.95 -2.4 -63.75 -0.45 -63.8 L0.55 -63.8 Q2.15 -63.75 4.55 -62.8 6.55 -61.9 6.55 -60.8 L6.55 -59.8 6.55 -54.8 Q6.3 -53.55 4.55 -52.8 2.65 -52.0 0.55 -51.8 L-0.45 -51.8 Q-2.55 -52.0 -4.45 -52.8 -6.2 -53.55 -6.45 -54.8 L-6.5 -59.6" fill="#cc9966" fill-rule="evenodd" stroke="none"/>
    <path d="M-6.5 -59.6 L-6.45 -54.8 Q-6.2 -53.55 -4.45 -52.8 -2.55 -52.0 -0.45 -51.8 L0.55 -51.8 Q2.65 -52.0 4.55 -52.8 6.3 -53.55 6.55 -54.8 L6.55 -59.8 Q8.3 -58.8 8.55 -58.8 10.85 -58.8 11.75 -57.55 12.55 -56.45 12.55 -53.8 12.55 -52.05 11.95 -51.2 L10.7 -49.75 10.5 -49.45 10.45 -49.5 Q6.55 -47.6 -0.25 -47.5 -7.1 -47.4 -11.2 -50.55 L-11.8 -51.2 Q-12.45 -52.05 -12.45 -53.8 -12.45 -56.45 -11.65 -57.55 -10.7 -58.8 -8.45 -58.8 L-6.5 -59.6 M8.9 -36.35 Q9.35 -28.25 12.35 -22.35 15.95 -15.3 16.05 -7.8 L16.05 35.2 Q15.8 36.75 14.8 38.15 13.7 39.8 12.0 40.65 7.85 42.7 2.1 42.7 L-1.5 42.7 Q-7.2 42.7 -11.4 40.65 -13.1 39.8 -14.2 38.15 -15.2 36.75 -15.45 35.2 L-15.45 -7.8 Q-15.35 -15.3 -11.75 -22.35 -8.85 -28.05 -8.3 -35.8 L-7.6 -36.3 Q-3.85 -37.8 1.05 -37.7 5.4 -37.6 8.9 -36.35" fill="#339966" fill-rule="evenodd" stroke="none"/>
    <path d="M10.5 -49.45 Q8.8 -46.9 8.8 -39.3 L8.9 -36.35 Q5.4 -37.6 1.05 -37.7 -3.85 -37.8 -7.6 -36.3 L-8.3 -35.8 -8.2 -39.3 Q-8.2 -47.35 -10.3 -49.75 L-11.2 -50.55 Q-7.1 -47.4 -0.25 -47.5 6.55 -47.6 10.45 -49.5 L10.5 -49.45" fill="#287951" fill-rule="evenodd" stroke="none"/>
    <path d="M-6.45 -54.8 Q-6.2 -53.55 -4.45 -52.8 -2.55 -52.0 -0.45 -51.8 L0.55 -51.8 Q2.65 -52.0 4.55 -52.8 6.3 -53.55 6.55 -54.8" fill="none" stroke="#996633" stroke-linecap="round" stroke-linejoin="round" stroke-width="2.0"/>
    <path d="M5.3 -62.95 Q7.35 -62.05 7.35 -60.8 L7.4 -59.25 9.7 -58.8 Q11.95 -58.8 12.7 -57.55 13.35 -56.5 13.35 -53.8 13.35 -52.3 12.7 -51.35 L11.25 -49.7 Q9.1 -47.0 9.1 -39.3 9.1 -29.25 12.45 -22.45 15.85 -15.55 15.95 -8.05 L15.95 34.95 Q15.25 39.15 12.3 40.65 8.15 42.7 2.4 42.7 L-1.5 42.7 Q-7.2 42.7 -11.4 40.65 -14.35 39.15 -15.05 34.95 L-15.05 -8.05 Q-14.95 -15.55 -11.55 -22.45 -8.2 -29.25 -8.2 -39.3 -8.2 -47.0 -10.3 -49.7 L-11.8 -51.35 Q-12.45 -52.3 -12.45 -53.8 -12.45 -56.5 -11.8 -57.55 -11.05 -58.8 -8.8 -58.8 L-6.5 -59.25 -6.45 -60.8 Q-6.45 -62.05 -4.4 -62.95 -2.4 -63.75 -0.45 -63.8 L0.45 -63.8 1.35 -63.8 Q3.3 -63.75 5.3 -62.95 Z" fill="none" stroke="#000000" stroke-linecap="round" stroke-linejoin="round" stroke-width="3.0"/>
    <path d="M4.05 -21.3 L4.05 -17.9 M4.05 -8.7 L4.05 36.7 M1.05 -49.2 L2.4 -49.3 4.75 -49.9" fill="none" stroke="#33cc99" stroke-linecap="round" stroke-linejoin="round" stroke-width="3.0"/>
    <path d="M4.05 -17.9 L4.05 -8.7" fill="none" stroke="#bbeedb" stroke-linecap="round" stroke-linejoin="round" stroke-width="3.0"/>
  </g>
</svg>
