<?xml version="1.0" encoding="UTF-8" standalone="no"?>
<svg xmlns:xlink="http://www.w3.org/1999/xlink" height="80.4px" width="87.1px" xmlns="http://www.w3.org/2000/svg">
  <g transform="matrix(1.0, 0.0, 0.0, 1.0, 43.55, 42.9)">
    <path d="M32.65 -42.8 Q38.55 -41.7 41.65 -27.1 43.95 -16.25 43.5 -6.85 L43.5 -6.8 40.9 24.6 41.5 28.65 41.5 29.0 41.5 31.0 Q41.5 31.75 41.15 32.35 L41.5 34.65 Q41.6 35.35 41.3 36.05 L40.35 37.1 Q39.75 37.5 39.0 37.5 L29.0 37.5 Q28.15 37.5 27.45 36.95 26.85 36.5 26.65 35.8 L26.6 35.8 25.1 35.5 25.0 35.5 10.1 35.5 10.0 35.5 9.45 35.5 Q9.3 36.3 8.65 36.9 7.9 37.5 7.0 37.5 L-7.0 37.5 Q-7.9 37.5 -8.6 36.9 -9.3 36.3 -9.45 35.5 L-10.0 35.5 -25.0 35.5 -25.05 35.5 -26.6 35.8 Q-26.85 36.5 -27.45 36.95 -28.15 37.5 -29.0 37.5 L-39.0 37.5 Q-39.75 37.5 -40.35 37.1 L-41.25 36.05 Q-41.6 35.35 -41.45 34.65 L-41.15 32.35 Q-41.5 31.75 -41.5 31.0 L-41.5 29.0 -41.45 28.65 -40.9 24.6 -43.5 -5.75 -43.5 -6.0 -43.5 -6.85 -43.5 -7.0 Q-43.95 -16.3 -41.65 -27.1 -38.55 -41.7 -32.65 -42.8 L-32.0 -42.9 -24.0 -42.9 -22.6 -42.5 -16.35 -42.5 -15.0 -42.9 -13.0 -42.9 -11.6 -42.5 11.65 -42.5 Q12.25 -42.9 13.0 -42.9 L15.0 -42.9 16.35 -42.5 22.55 -42.5 22.9 -42.65 23.9 -42.9 32.0 -42.9 32.65 -42.8" fill="#000000" fill-rule="evenodd" stroke="none"/>
    <path d="M25.0 33.0 L10.0 33.0 Q8.05 33.05 7.45 33.65 7.15 33.95 7.0 35.0 L0.0 35.0 -7.0 35.0 Q-7.15 33.95 -7.45 33.65 -8.05 33.05 -10.0 33.0 L-25.0 33.0 Q-26.6 32.95 -27.75 33.55 -28.8 34.1 -29.0 35.0 L-39.0 35.0 -38.0 28.0 38.0 28.0 39.0 35.0 29.0 35.0 Q28.8 34.1 27.75 33.55 26.6 32.95 25.0 33.0" fill="url(#gradient0)" fill-rule="evenodd" stroke="none"/>
    <path d="M39.0 29.0 L39.0 31.0 -39.0 31.0 -39.0 29.0 39.0 29.0" fill="url(#gradient1)" fill-rule="evenodd" stroke="none"/>
    <path d="M-39.0 29.0 L-38.0 22.0 38.0 22.0 39.0 29.0 -39.0 29.0" fill="#dab065" fill-rule="evenodd" stroke="none"/>
    <path d="M41.0 -6.0 L40.9 -4.75 38.0 29.0 0.0 29.0 -38.0 29.0 -41.0 -6.0 -2.75 -6.0 41.0 -6.0" fill="url(#gradient2)" fill-rule="evenodd" stroke="none"/>
    <path d="M32.0 -4.75 L32.0 -3.5 -32.0 -3.5 -32.0 -5.5 -2.75 -5.5 32.0 -5.5 32.0 -4.75 M30.65 23.5 L18.65 23.5 18.65 21.5 30.65 21.5 30.65 23.5 M-19.0 21.5 L-19.0 23.5 -31.0 23.5 -31.0 21.5 -19.0 21.5" fill="#000000" fill-opacity="0.2" fill-rule="evenodd" stroke="none"/>
    <path d="M11.0 15.4 L0.0 20.4 -11.0 15.4 -11.0 4.4 -7.0 4.4 -7.0 5.25 7.0 5.25 7.0 4.4 11.0 4.4 11.0 15.4 M7.0 10.4 L7.0 7.35 -7.0 7.35 -7.0 10.4 7.0 10.4" fill="#000000" fill-opacity="0.3019608" fill-rule="evenodd" stroke="none"/>
    <path d="M7.0 -4.0 L7.0 11.0 -7.0 11.0 -7.0 -4.0 -32.0 -4.0 -32.0 -6.0 -2.75 -6.0 32.0 -6.0 32.0 -4.75 32.0 -4.0 7.0 -4.0 M-31.0 27.0 L31.0 27.0 30.0 29.0 -30.0 29.0 -31.0 27.0 M-19.0 21.0 L-19.0 23.0 -31.0 23.0 -31.0 21.0 -19.0 21.0 M32.0 21.0 L32.0 23.0 20.0 23.0 20.0 21.0 32.0 21.0" fill="url(#gradient3)" fill-rule="evenodd" stroke="none"/>
    <path d="M31.95 -4.75 L32.0 -6.0 41.0 -6.0 40.9 -4.75 38.0 29.0 30.0 29.0 Q30.85 20.1 31.95 -4.75 M18.0 -6.0 L21.0 -6.0 20.95 -4.75 20.0 27.0 17.0 27.0 17.95 -4.75 18.0 -6.0 M-18.0 -6.0 L-17.0 27.0 -20.0 27.0 -21.0 -6.0 -18.0 -6.0 M-32.0 -6.0 Q-30.85 19.9 -30.0 29.0 L-38.0 29.0 -41.0 -6.0 -32.0 -6.0" fill="url(#gradient4)" fill-rule="evenodd" stroke="none"/>
    <path d="M41.0 -6.0 L-41.0 -6.0 -41.0 -7.0 41.0 -7.0 41.0 -6.0" fill="#6d4818" fill-rule="evenodd" stroke="none"/>
    <path d="M24.9 -40.4 L25.0 -39.4 23.0 -39.4 23.9 -40.4 24.9 -40.4 M14.0 -40.4 L14.0 -39.4 12.0 -39.4 13.0 -40.4 14.0 -40.4 M-13.0 -40.4 L-12.0 -39.4 -14.0 -39.4 -14.0 -40.4 -13.0 -40.4 M-24.0 -40.4 L-23.0 -39.4 -25.0 -39.4 -25.0 -40.4 -24.0 -40.4" fill="#b78324" fill-rule="evenodd" stroke="none"/>
    <path d="M0.0 -40.0 L32.0 -40.0 Q36.0 -34.2 38.3 -26.4 40.9 -17.55 41.0 -7.0 L-41.0 -7.0 Q-41.15 -17.45 -38.45 -26.45 -36.15 -34.0 -32.0 -40.0 L-2.75 -40.0 0.0 -40.0" fill="url(#gradient5)" fill-rule="evenodd" stroke="none"/>
    <path d="M0.0 -19.0 L5.0 -19.0 Q6.1 -17.75 6.6 -15.2 7.0 -12.95 7.0 -9.0 L41.0 -9.0 41.0 -7.0 -2.75 -7.0 -41.0 -7.0 -41.0 -9.0 -7.0 -9.0 Q-7.0 -13.05 -6.6 -15.25 -6.1 -17.75 -5.0 -19.0 L-2.75 -19.0 0.0 -19.0" fill="url(#gradient6)" fill-rule="evenodd" stroke="none"/>
    <path d="M4.0 -15.0 Q3.6 -15.0 3.3 -15.3 3.0 -15.6 3.0 -16.0 3.0 -16.4 3.3 -16.7 L4.0 -17.0 4.7 -16.7 5.0 -16.0 4.7 -15.3 Q4.4 -15.0 4.0 -15.0" fill="url(#gradient7)" fill-rule="evenodd" stroke="none"/>
    <path d="M-5.0 -16.0 L-4.7 -16.7 -4.0 -17.0 -3.3 -16.7 Q-3.0 -16.4 -3.0 -16.0 -3.0 -15.6 -3.3 -15.3 -3.6 -15.0 -4.0 -15.0 -4.4 -15.0 -4.7 -15.3 L-5.0 -16.0" fill="url(#gradient8)" fill-rule="evenodd" stroke="none"/>
    <path d="M13.0 -40.4 L15.0 -40.4 Q18.15 -37.65 19.6 -28.05 21.15 -17.7 20.9 -7.0 L17.9 -7.0 Q18.15 -18.95 17.4 -25.55 16.2 -36.45 13.0 -40.4 M24.0 -40.4 L32.0 -40.4 Q36.55 -39.15 39.2 -26.6 41.45 -16.05 41.0 -7.0 L32.0 -7.0 Q32.6 -16.2 30.4 -27.1 28.35 -37.3 24.0 -40.4 M-13.0 -40.4 Q-16.2 -36.45 -17.4 -25.55 -18.15 -18.95 -17.9 -7.0 L-20.9 -7.0 Q-21.15 -17.7 -19.6 -28.05 -18.15 -37.65 -15.0 -40.4 L-13.0 -40.4 M-24.0 -40.4 Q-28.35 -37.3 -30.4 -27.1 -32.6 -16.2 -32.0 -7.0 L-41.0 -7.0 Q-41.45 -16.05 -39.2 -26.6 -36.55 -39.15 -32.0 -40.4 L-24.0 -40.4" fill="url(#gradient9)" fill-rule="evenodd" stroke="none"/>
    <path d="M4.9 -11.9 L5.1 -8.0 5.0 -7.95 5.05 -4.75 5.15 10.0 5.1 10.1 5.0 10.15 -5.0 10.15 -5.1 10.1 -5.1 10.0 -5.0 -7.95 -5.1 -8.0 Q-5.1 -11.5 -4.9 -11.95 -4.6 -13.25 -3.0 -13.1 L2.95 -13.1 Q4.55 -13.25 4.9 -11.9 M-4.75 -8.0 L-4.85 9.9 4.9 9.9 4.8 -4.75 4.75 -8.0 4.75 -8.1 4.85 -8.1 4.65 -11.85 Q4.35 -12.95 2.95 -12.85 L-3.0 -12.85 Q-4.4 -12.95 -4.65 -11.85 L-4.85 -8.1 -4.8 -8.1 -4.75 -8.0" fill="url(#gradient10)" fill-rule="evenodd" stroke="none"/>
    <path d="M-4.75 -8.0 L-4.8 -8.1 -4.85 -8.1 -4.65 -11.85 Q-4.4 -12.95 -3.0 -12.85 L2.95 -12.85 Q4.35 -12.95 4.65 -11.85 L4.85 -8.1 4.75 -8.1 4.75 -8.0 -2.75 -8.0 -4.75 -8.0" fill="url(#gradient11)" fill-rule="evenodd" stroke="none"/>
    <path d="M4.75 -8.0 L4.8 -4.75 4.9 9.9 -4.85 9.9 -4.75 -8.0 -2.75 -8.0 4.75 -8.0" fill="url(#gradient12)" fill-rule="evenodd" stroke="none"/>
    <path d="M5.0 -6.0 L2.55 -6.0 2.55 -8.0 5.0 -8.0 5.0 -6.0 M-5.0 -8.0 L-2.5 -8.0 -2.5 -6.0 -5.0 -6.0 -5.0 -8.0" fill="url(#gradient13)" fill-rule="evenodd" stroke="none"/>
    <path d="M1.55 -6.0 L-1.5 -6.0 -1.5 -8.0 1.55 -8.0 1.55 -6.0" fill="url(#gradient14)" fill-rule="evenodd" stroke="none"/>
    <path d="M7.0 6.0 L-7.0 6.0 -7.0 4.0 7.0 4.0 7.0 6.0" fill="url(#gradient15)" fill-rule="evenodd" stroke="none"/>
    <path d="M11.0 14.0 L0.0 19.0 -11.0 14.0 -11.0 3.0 -7.0 3.0 -7.0 9.0 7.0 9.0 7.0 3.0 11.0 3.0 11.0 14.0" fill="url(#gradient16)" fill-rule="evenodd" stroke="none"/>
    <path d="M7.5 3.5 L10.5 3.5 10.5 13.7 0.0 18.45 -10.5 13.7 -10.5 3.5 -7.5 3.5 -7.5 9.0 -7.35 9.35 -7.0 9.5 7.0 9.5 7.35 9.35 7.5 9.0 7.5 3.5" fill="url(#gradient17)" fill-rule="evenodd" stroke="none"/>
    <path d="M1.0 12.4 L0.7 13.05 0.7 15.15 -0.7 15.15 -0.7 13.05 -1.0 12.4 -0.7 11.65 0.0 11.4 0.7 11.65 1.0 12.4" fill="#000000" fill-rule="evenodd" stroke="none"/>
    <path d="M-2.0 -3.0 L2.0 -3.0 2.0 2.0 -2.0 2.0 -2.0 -3.0" fill="#000000" fill-rule="evenodd" stroke="none"/>
    <path d="M1.8 7.55 L-1.8 7.55 -1.8 1.55 1.8 1.55 1.8 7.55" fill="#000000" fill-opacity="0.3019608" fill-rule="evenodd" stroke="none"/>
    <path d="M1.8 7.0 L-1.8 7.0 -1.8 1.0 1.8 1.0 1.8 7.0" fill="url(#gradient18)" fill-rule="evenodd" stroke="none"/>
  </g>
  <defs>
    <linearGradient gradientTransform="matrix(0.0, -0.0024, 0.0037, 0.0, 0.0, 33.0)" gradientUnits="userSpaceOnUse" id="gradient0" spreadMethod="pad" x1="-819.2" x2="819.2">
      <stop offset="0.8117647058823529" stop-color="#ae772d"/>
      <stop offset="0.8745098039215686" stop-color="#815121"/>
    </linearGradient>
    <linearGradient gradientTransform="matrix(0.0, -0.0015, 0.0018, 0.0, 0.5, 30.0)" gradientUnits="userSpaceOnUse" id="gradient1" spreadMethod="pad" x1="-819.2" x2="819.2">
      <stop offset="0.47058823529411764" stop-color="#ae772d"/>
      <stop offset="0.5607843137254902" stop-color="#dab065"/>
    </linearGradient>
    <linearGradient gradientTransform="matrix(-1.0E-4, -0.022, 0.0214, -1.0E-4, 0.0, 11.5)" gradientUnits="userSpaceOnUse" id="gradient2" spreadMethod="pad" x1="-819.2" x2="819.2">
      <stop offset="0.0" stop-color="#b40303"/>
      <stop offset="0.6588235294117647" stop-color="#7b0404"/>
    </linearGradient>
    <linearGradient gradientTransform="matrix(-1.0E-4, -0.0215, 0.0214, -1.0E-4, 35.5, 11.5)" gradientUnits="userSpaceOnUse" id="gradient3" spreadMethod="pad" x1="-819.2" x2="819.2">
      <stop offset="0.0" stop-color="#bb8235"/>
      <stop offset="0.8392156862745098" stop-color="#c89537"/>
    </linearGradient>
    <linearGradient gradientTransform="matrix(-1.0E-4, -0.0215, 0.0214, -1.0E-4, 35.5, 11.5)" gradientUnits="userSpaceOnUse" id="gradient4" spreadMethod="pad" x1="-819.2" x2="819.2">
      <stop offset="0.0" stop-color="#bb8235"/>
      <stop offset="0.8392156862745098" stop-color="#c89537"/>
    </linearGradient>
    <linearGradient gradientTransform="matrix(0.0, -0.0203, 0.0201, 0.0, -0.05, -23.5)" gradientUnits="userSpaceOnUse" id="gradient5" spreadMethod="pad" x1="-819.2" x2="819.2">
      <stop offset="0.34901960784313724" stop-color="#7c0303"/>
      <stop offset="0.7450980392156863" stop-color="#b40303"/>
      <stop offset="0.8980392156862745" stop-color="#990000"/>
      <stop offset="1.0" stop-color="#940101"/>
    </linearGradient>
    <linearGradient gradientTransform="matrix(0.0, -0.0208, 0.0208, 0.0, 33.6, -24.0)" gradientUnits="userSpaceOnUse" id="gradient6" spreadMethod="pad" x1="-819.2" x2="819.2">
      <stop offset="0.18823529411764706" stop-color="#c2933d"/>
      <stop offset="0.4980392156862745" stop-color="#d9a91e"/>
      <stop offset="0.6941176470588235" stop-color="#e4cc85"/>
      <stop offset="0.8666666666666667" stop-color="#d9a91e"/>
      <stop offset="1.0" stop-color="#bb892f"/>
    </linearGradient>
    <radialGradient cx="0" cy="0" gradientTransform="matrix(0.0016, 0.0, 0.0, 0.0016, 4.0, -16.0)" gradientUnits="userSpaceOnUse" id="gradient7" r="819.2" spreadMethod="pad">
      <stop offset="0.0" stop-color="#ddba53"/>
      <stop offset="0.5764705882352941" stop-color="#bf9340"/>
      <stop offset="0.6705882352941176" stop-color="#493718"/>
    </radialGradient>
    <radialGradient cx="0" cy="0" gradientTransform="matrix(-0.0016, 0.0, 0.0, 0.0016, -4.0, -16.0)" gradientUnits="userSpaceOnUse" id="gradient8" r="819.2" spreadMethod="pad">
      <stop offset="0.0" stop-color="#ddba53"/>
      <stop offset="0.5764705882352941" stop-color="#bf9340"/>
      <stop offset="0.6705882352941176" stop-color="#493718"/>
    </radialGradient>
    <linearGradient gradientTransform="matrix(0.0, -0.0208, 0.0208, 0.0, 33.6, -24.0)" gradientUnits="userSpaceOnUse" id="gradient9" spreadMethod="pad" x1="-819.2" x2="819.2">
      <stop offset="0.18823529411764706" stop-color="#c2933d"/>
      <stop offset="0.4980392156862745" stop-color="#d9a91e"/>
      <stop offset="0.6941176470588235" stop-color="#e4cc85"/>
      <stop offset="0.8666666666666667" stop-color="#d9a91e"/>
      <stop offset="1.0" stop-color="#bb892f"/>
    </linearGradient>
    <linearGradient gradientTransform="matrix(0.0, -0.0145, 0.0142, 0.0, 0.0, -1.5)" gradientUnits="userSpaceOnUse" id="gradient10" spreadMethod="pad" x1="-819.2" x2="819.2">
      <stop offset="0.0" stop-color="#9d6b28"/>
      <stop offset="0.6941176470588235" stop-color="#9a732c"/>
      <stop offset="0.7490196078431373" stop-color="#c79e39"/>
      <stop offset="1.0" stop-color="#e3bf53"/>
    </linearGradient>
    <linearGradient gradientTransform="matrix(0.0, -0.0033, 0.0031, 0.0, -0.05, -10.5)" gradientUnits="userSpaceOnUse" id="gradient11" spreadMethod="pad" x1="-819.2" x2="819.2">
      <stop offset="0.0" stop-color="#bb892f"/>
      <stop offset="1.0" stop-color="#d7ab28"/>
    </linearGradient>
    <linearGradient gradientTransform="matrix(0.0, -0.0098, 0.0085, 0.0, 0.0, 2.0)" gradientUnits="userSpaceOnUse" id="gradient12" spreadMethod="pad" x1="-819.2" x2="819.2">
      <stop offset="0.0" stop-color="#d5aa2b"/>
      <stop offset="0.9098039215686274" stop-color="#c19b28"/>
      <stop offset="0.9450980392156862" stop-color="#846326"/>
    </linearGradient>
    <linearGradient gradientTransform="matrix(0.0, -0.0012, 0.0012, 0.0, 0.0, -7.0)" gradientUnits="userSpaceOnUse" id="gradient13" spreadMethod="pad" x1="-819.2" x2="819.2">
      <stop offset="0.14901960784313725" stop-color="#aa7a22"/>
      <stop offset="0.5843137254901961" stop-color="#dcbb7e"/>
      <stop offset="1.0" stop-color="#aa7a22"/>
    </linearGradient>
    <linearGradient gradientTransform="matrix(0.0, -0.0012, 0.0012, 0.0, 0.0, -7.0)" gradientUnits="userSpaceOnUse" id="gradient14" spreadMethod="pad" x1="-819.2" x2="819.2">
      <stop offset="0.22745098039215686" stop-color="#aa7a22"/>
      <stop offset="0.5215686274509804" stop-color="#d7b474"/>
      <stop offset="0.7137254901960784" stop-color="#dcbb7e"/>
      <stop offset="1.0" stop-color="#aa7a22"/>
    </linearGradient>
    <linearGradient gradientTransform="matrix(0.0085, 0.0, 0.0, 0.0012, 0.0, 5.0)" gradientUnits="userSpaceOnUse" id="gradient15" spreadMethod="pad" x1="-819.2" x2="819.2">
      <stop offset="0.054901960784313725" stop-color="#000000"/>
      <stop offset="0.08627450980392157" stop-color="#676767"/>
      <stop offset="0.9058823529411765" stop-color="#666666"/>
      <stop offset="0.9372549019607843" stop-color="#000000"/>
    </linearGradient>
    <linearGradient gradientTransform="matrix(-1.0E-4, -0.0105, 0.0097, -1.0E-4, 1.9, 11.0)" gradientUnits="userSpaceOnUse" id="gradient16" spreadMethod="pad" x1="-819.2" x2="819.2">
      <stop offset="0.3058823529411765" stop-color="#636363"/>
      <stop offset="0.9058823529411765" stop-color="#c4c4c4"/>
      <stop offset="0.9568627450980393" stop-color="#d0d0d0"/>
    </linearGradient>
    <linearGradient gradientTransform="matrix(0.0, -0.0097, 0.0091, 0.0, 0.0, 10.95)" gradientUnits="userSpaceOnUse" id="gradient17" spreadMethod="pad" x1="-819.2" x2="819.2">
      <stop offset="0.01568627450980392" stop-color="#b8b8b8"/>
      <stop offset="1.0" stop-color="#919191"/>
    </linearGradient>
    <linearGradient gradientTransform="matrix(0.0, -0.0038, 0.0037, 0.0, 0.0, 4.0)" gradientUnits="userSpaceOnUse" id="gradient18" spreadMethod="pad" x1="-819.2" x2="819.2">
      <stop offset="0.0" stop-color="#966729"/>
      <stop offset="0.15294117647058825" stop-color="#997126"/>
      <stop offset="0.3254901960784314" stop-color="#dbbe6a"/>
      <stop offset="1.0" stop-color="#ab8c30"/>
    </linearGradient>
  </defs>
</svg>
