<?xml version="1.0" encoding="UTF-8" standalone="no"?>
<svg xmlns:xlink="http://www.w3.org/1999/xlink" height="9.0px" width="8.0px" xmlns="http://www.w3.org/2000/svg">
  <g transform="matrix(1.0, 0.0, 0.0, 1.0, -2.0, 10.0)">
    <path d="M7.0 -9.0 L9.0 -9.0 9.0 -2.0 7.0 -2.0 7.0 -5.0 3.0 -5.0 3.0 -9.0 5.0 -9.0 5.0 -6.0 7.0 -6.0 7.0 -9.0" fill="#ffffff" fill-rule="evenodd" stroke="none"/>
    <path d="M7.0 -9.0 L7.0 -6.0 5.0 -6.0 5.0 -9.0 3.0 -9.0 3.0 -5.0 7.0 -5.0 7.0 -2.0 9.0 -2.0 9.0 -9.0 7.0 -9.0 M6.0 -1.0 L6.0 -4.0 2.0 -4.0 2.0 -10.0 10.0 -10.0 10.0 -1.0 6.0 -1.0" fill="#ca9019" fill-rule="evenodd" stroke="none"/>
  </g>
</svg>
