<?xml version="1.0" encoding="UTF-8" standalone="no"?>
<svg xmlns:xlink="http://www.w3.org/1999/xlink" height="1061.0px" width="232.8px" xmlns="http://www.w3.org/2000/svg">
  <g transform="matrix(1.0, 0.0, 0.0, 1.0, 116.9, 195.0)">
    <path d="M9.05 -96.95 L0.0 -193.0 -9.2 -96.95 Q-13.75 -48.55 -16.6 -24.75 -20.65 8.4 -25.75 32.65 -31.35 59.3 -40.0 84.25 -45.95 100.0 -64.7 145.95 -80.6 184.85 -88.9 208.4 -113.85 279.5 -114.9 335.5 -113.85 391.5 -88.9 462.6 -80.6 486.15 -64.7 525.05 -45.95 571.0 -40.0 586.75 -31.35 611.7 -25.75 638.35 -20.65 662.6 -16.6 695.75 -11.5 737.95 0.0 864.0 L9.05 767.95 Q13.55 718.05 16.15 695.75 20.0 662.4 24.9 638.35 30.35 611.6 39.0 586.75 44.95 571.0 63.7 525.05 79.6 486.15 87.9 462.6 112.85 391.5 113.9 335.5 112.85 279.5 87.9 208.4 79.6 184.85 63.7 145.95 44.95 100.0 39.0 84.25 30.35 59.4 24.9 32.65 20.0 8.6 16.15 -24.75 13.55 -47.05 9.05 -96.95 Z" fill="none" stroke="#000000" stroke-linecap="round" stroke-linejoin="round" stroke-width="4.0"/>
  </g>
</svg>
