<?xml version="1.0" encoding="UTF-8" standalone="no"?>
<svg xmlns:xlink="http://www.w3.org/1999/xlink" height="1061.0px" width="145.7px" xmlns="http://www.w3.org/2000/svg">
  <g transform="matrix(1.0, 0.0, 0.0, 1.0, 73.35, 195.0)">
    <path d="M6.55 -87.4 L8.15 5.7 Q8.9 56.45 11.4 84.05 14.8 121.55 23.0 145.2 L47.2 218.75 Q56.95 248.4 60.8 262.85 65.3 279.95 67.35 296.4 68.95 309.85 70.35 335.5 68.95 361.15 67.35 374.6 65.3 391.05 60.8 408.15 56.95 422.6 47.2 452.25 L23.0 525.8 Q14.8 549.45 11.4 586.95 8.9 614.55 8.15 665.3 L6.55 758.4 Q4.85 816.3 0.0 864.0 -4.8 816.4 -6.7 758.4 L-8.6 665.3 Q-9.6 614.75 -12.25 586.95 -15.75 549.5 -24.0 525.8 L-48.2 452.25 Q-57.95 422.6 -61.8 408.15 -66.3 391.05 -68.35 374.6 -69.95 361.15 -71.35 335.5 -69.95 309.85 -68.35 296.4 -66.3 279.95 -61.8 262.85 -57.95 248.4 -48.2 218.75 L-24.0 145.2 Q-15.75 121.5 -12.25 84.05 -9.6 56.25 -8.6 5.75 L-6.7 -87.4 Q-4.8 -145.4 0.0 -193.0 4.85 -145.3 6.55 -87.4 Z" fill="none" stroke="#000000" stroke-linecap="round" stroke-linejoin="round" stroke-width="4.0"/>
  </g>
</svg>
