<?xml version="1.0" encoding="UTF-8" standalone="no"?>
<svg xmlns:xlink="http://www.w3.org/1999/xlink" height="1058.95px" width="282.5px" xmlns="http://www.w3.org/2000/svg">
  <g transform="matrix(1.0, 0.0, 0.0, 1.0, 141.55, 193.65)">
    <path d="M45.2 -124.45 L56.75 -47.7 Q71.35 45.3 83.95 80.25 109.65 151.65 122.5 203.95 140.15 275.75 140.95 335.5 140.15 395.25 122.5 467.05 109.65 519.35 83.95 590.75 71.35 625.7 56.75 718.7 L45.2 795.45 Q38.45 840.3 34.0 864.65 34.0 865.15 -0.25 865.3 -34.55 865.4 -34.6 864.65 -39.05 840.3 -45.8 795.45 L-57.35 718.7 Q-71.95 625.7 -84.55 590.75 -110.25 519.35 -123.1 467.05 -140.75 395.25 -141.55 335.5 -140.75 275.75 -123.1 203.95 -110.25 151.65 -84.55 80.25 -71.95 45.3 -57.35 -47.7 L-45.8 -124.45 Q-39.05 -169.3 -34.6 -193.65 L34.0 -193.65 Q38.45 -169.3 45.2 -124.45" fill="#ffffff" fill-rule="evenodd" stroke="none"/>
  </g>
</svg>
