<?xml version="1.0" encoding="UTF-8" standalone="no"?>
<svg xmlns:xlink="http://www.w3.org/1999/xlink" height="107.1px" width="118.05px" xmlns="http://www.w3.org/2000/svg">
  <g transform="matrix(1.0, 0.0, 0.0, 1.0, 57.7, 49.15)">
    <path d="M30.7 -44.85 L45.05 -34.05 Q49.05 -31.05 46.05 -27.05 L44.05 -24.35 46.25 -20.9 48.3 -21.55 Q53.05 -23.05 54.55 -18.3 L59.95 -1.15 60.0 -1.1 Q61.45 3.7 56.7 5.15 L53.95 6.05 53.5 10.9 56.95 13.5 Q60.95 16.5 57.95 20.5 L47.1 34.85 Q44.1 38.85 40.1 35.85 L37.15 33.65 32.6 36.0 33.1 38.9 Q33.55 41.3 32.35 42.7 31.4 44.25 28.95 44.65 L29.05 44.6 11.35 47.7 11.25 47.75 Q6.6 48.4 5.6 44.1 L5.1 44.25 Q6.75 48.65 2.25 50.5 L-14.35 57.4 Q-19.0 59.25 -20.85 54.65 L-25.45 43.65 -25.45 43.6 Q-26.45 41.35 -25.6 39.75 -25.1 38.0 -22.75 37.1 L-22.8 37.1 -6.2 30.2 -6.15 30.2 Q-1.6 28.3 0.35 32.85 L0.4 32.9 0.8 33.95 3.7 33.2 3.45 31.85 3.45 31.8 Q3.0 29.35 4.2 28.0 5.15 26.4 7.6 26.05 L7.55 26.05 25.25 22.95 25.3 22.95 28.6 23.25 29.55 21.65 40.15 7.65 Q39.4 6.8 39.0 5.45 L33.6 -11.7 Q32.9 -13.95 33.6 -15.45 L31.85 -16.45 17.5 -27.25 17.55 -27.2 16.6 -28.0 9.65 -28.0 9.45 -28.0 Q7.75 -28.05 6.3 -29.3 L6.15 -29.45 Q4.5 -31.1 4.7 -33.15 L4.7 -33.95 Q4.7 -35.9 6.05 -37.35 L6.15 -37.45 Q7.75 -39.1 9.8 -38.9 L20.1 -38.95 23.7 -43.8 Q26.7 -47.75 30.65 -44.85 L30.7 -44.85 M-9.0 44.3 L-9.6 42.9 -9.6 42.95 -9.7 42.5 -15.25 44.8 -14.5 46.6 -9.0 44.3" fill="#000000" fill-rule="evenodd" stroke="none"/>
    <path d="M28.3 -6.15 Q28.5 4.35 17.4 11.9 L17.4 12.05 Q17.4 12.95 16.9 13.7 16.4 14.45 15.6 14.8 L8.6 17.8 7.3 18.05 6.0 17.7 5.9 17.65 Q-3.3 20.85 -14.7 20.85 -32.15 20.85 -44.55 13.4 -57.9 5.35 -57.7 -6.15 L-57.7 -22.15 Q-57.9 -33.65 -44.55 -41.7 L-44.5 -41.7 Q-32.15 -49.15 -14.7 -49.15 2.75 -49.15 15.1 -41.7 28.5 -33.65 28.3 -22.15 L28.3 -6.15 M9.95 -17.7 Q-0.25 -23.5 -14.7 -23.5 -29.15 -23.5 -39.4 -17.7 L-42.25 -15.8 Q-40.25 -13.8 -36.95 -12.0 L-36.95 -11.95 Q-27.75 -7.0 -14.7 -7.0 -8.0 -7.0 -2.25 -8.3 L-1.95 -9.0 Q-1.45 -9.85 -0.55 -10.2 6.6 -13.25 8.3 -13.05 L9.2 -12.9 Q11.35 -14.3 12.9 -15.8 L9.95 -17.7" fill="#000000" fill-rule="evenodd" stroke="none"/>
    <path d="M23.7 -33.85 Q22.5 -32.25 24.1 -31.05 L33.7 -23.85 Q35.3 -22.65 36.5 -24.25 L38.9 -27.45 Q40.1 -29.05 38.5 -30.25 L28.9 -37.45 Q27.3 -38.65 26.1 -37.05 L23.7 -33.85 M36.45 -12.6 Q35.85 -14.5 37.75 -15.1 L49.2 -18.7 Q51.1 -19.3 51.7 -17.4 L57.1 -0.25 Q57.7 1.7 55.8 2.3 L44.35 5.9 Q42.45 6.5 41.85 4.55 L36.45 -12.6 M26.1 -42.0 Q27.3 -43.6 28.9 -42.45 L43.25 -31.65 Q44.85 -30.45 43.65 -28.85 L36.45 -19.25 Q35.25 -17.65 33.65 -18.85 L19.3 -29.65 Q17.7 -30.8 18.9 -32.4 L26.1 -42.0 M41.15 -10.9 L44.75 0.5 Q45.35 2.4 47.3 1.8 L51.1 0.6 Q53.0 0.0 52.4 -1.9 L48.8 -13.3 Q48.2 -15.2 46.3 -14.6 L42.5 -13.4 Q40.55 -12.8 41.15 -10.9 M42.8 9.1 Q44.0 7.5 45.6 8.7 L55.15 15.9 Q56.75 17.1 55.55 18.7 L44.7 33.05 Q43.5 34.65 41.9 33.45 L32.35 26.25 Q30.75 25.05 31.95 23.45 L42.8 9.1 M44.15 13.9 L36.9 23.45 Q35.7 25.05 37.3 26.25 L40.5 28.65 Q42.1 29.85 43.3 28.25 L50.55 18.7 Q51.75 17.1 50.15 15.9 L46.95 13.5 Q45.35 12.3 44.15 13.9 M2.2 45.1 Q2.95 46.95 1.1 47.7 L-15.5 54.6 Q-17.35 55.35 -18.1 53.5 L-22.7 42.45 Q-23.5 40.6 -21.65 39.85 L-5.05 32.95 Q-3.2 32.2 -2.4 34.05 L2.2 45.1 M13.05 40.3 L24.85 38.3 Q26.85 37.95 26.5 35.95 L25.85 32.0 Q25.5 30.05 23.5 30.4 L11.7 32.4 Q9.7 32.75 10.05 34.7 L10.7 38.65 Q11.05 40.65 13.05 40.3 M10.8 44.75 Q8.8 45.05 8.45 43.1 L6.4 31.3 Q6.05 29.3 8.05 29.0 L25.75 25.9 Q27.75 25.6 28.1 27.6 L30.15 39.4 Q30.5 41.35 28.5 41.65 L10.8 44.75 M-18.45 44.95 L-16.9 48.65 Q-16.15 50.5 -14.3 49.75 L-3.25 45.15 Q-1.4 44.4 -2.15 42.55 L-3.7 38.85 Q-4.45 37.05 -6.3 37.8 L-17.35 42.4 Q-19.2 43.15 -18.45 44.95" fill="url(#gradient0)" fill-rule="evenodd" stroke="none"/>
    <path d="M27.6 -36.05 Q28.4 -36.0 29.0 -35.4 29.65 -34.85 29.6 -34.05 L29.6 -33.05 Q29.6 -32.3 29.0 -31.65 28.5 -31.05 27.65 -31.05 L9.65 -31.0 Q8.9 -31.05 8.25 -31.6 7.65 -32.2 7.7 -32.95 L7.7 -33.95 Q7.7 -34.75 8.25 -35.35 8.85 -35.95 9.6 -35.9 L27.6 -36.05" fill="url(#gradient1)" fill-rule="evenodd" stroke="none"/>
    <path d="M14.35 35.5 L14.6 36.45 Q14.8 37.25 14.4 37.95 13.95 38.7 13.2 38.9 L-4.2 43.6 -5.7 43.35 Q-6.5 42.95 -6.7 42.15 L-6.95 41.2 Q-7.15 40.45 -6.7 39.7 -6.25 38.95 -5.5 38.75 L11.9 34.05 Q12.65 33.85 13.4 34.3 14.15 34.75 14.35 35.5 M40.85 23.3 Q41.6 23.55 42.0 24.25 L42.45 25.15 Q42.85 25.85 42.6 26.65 42.35 27.45 41.65 27.85 L25.75 36.25 24.2 36.35 Q23.45 36.1 23.05 35.4 L22.6 34.5 Q22.2 33.8 22.45 33.0 22.7 32.2 23.4 31.85 L39.3 23.45 40.85 23.3 M48.75 -3.1 L49.7 -3.0 Q50.5 -2.95 51.05 -2.3 51.6 -1.65 51.5 -0.85 L49.95 17.05 Q49.85 17.85 49.2 18.4 48.55 18.95 47.75 18.9 L46.8 18.8 Q46.0 18.75 45.45 18.1 44.9 17.45 45.0 16.65 L46.55 -1.25 Q46.65 -2.05 47.3 -2.6 47.95 -3.15 48.75 -3.1 M36.8 -29.15 Q37.55 -28.95 37.95 -28.25 L47.65 -13.1 Q48.1 -12.5 47.95 -11.65 47.7 -10.8 47.05 -10.4 L46.25 -9.85 Q45.55 -9.45 44.7 -9.55 43.9 -9.8 43.45 -10.45 L33.75 -25.6 Q33.3 -26.3 33.55 -27.1 33.7 -27.95 34.4 -28.35 L35.25 -28.85 Q35.85 -29.3 36.8 -29.15" fill="url(#gradient2)" fill-rule="evenodd" stroke="none"/>
    <path d="M27.6 -36.05 L9.6 -35.9 Q8.85 -35.95 8.25 -35.35 7.7 -34.75 7.7 -33.95 L7.7 -32.95 Q7.65 -32.2 8.25 -31.6 8.9 -31.05 9.65 -31.0 L27.65 -31.05 Q28.5 -31.05 29.0 -31.65 29.6 -32.3 29.6 -33.05 L29.6 -34.05 Q29.65 -34.85 29.0 -35.4 28.4 -36.0 27.6 -36.05 M36.8 -29.15 Q35.85 -29.3 35.25 -28.85 L34.4 -28.35 Q33.7 -27.95 33.55 -27.1 33.3 -26.3 33.75 -25.6 L43.45 -10.45 Q43.9 -9.8 44.7 -9.55 45.55 -9.45 46.25 -9.85 L47.05 -10.4 Q47.7 -10.8 47.95 -11.65 48.1 -12.5 47.65 -13.1 L37.95 -28.25 Q37.55 -28.95 36.8 -29.15 M48.75 -3.1 Q47.95 -3.15 47.3 -2.6 46.65 -2.05 46.55 -1.25 L45.0 16.65 Q44.9 17.45 45.45 18.1 46.0 18.75 46.8 18.8 L47.75 18.9 Q48.55 18.95 49.2 18.4 49.85 17.85 49.95 17.05 L51.5 -0.85 Q51.6 -1.65 51.05 -2.3 50.5 -2.95 49.7 -3.0 L48.75 -3.1 M40.85 23.3 L39.3 23.45 23.4 31.85 Q22.7 32.2 22.45 33.0 22.2 33.8 22.6 34.5 L23.05 35.4 Q23.45 36.1 24.2 36.35 L25.75 36.25 41.65 27.85 Q42.35 27.45 42.6 26.65 42.85 25.85 42.45 25.15 L42.0 24.25 Q41.6 23.55 40.85 23.3 M14.35 35.5 Q14.15 34.75 13.4 34.3 12.65 33.85 11.9 34.05 L-5.5 38.75 Q-6.25 38.95 -6.7 39.7 -7.15 40.45 -6.95 41.2 L-6.7 42.15 Q-6.5 42.95 -5.7 43.35 L-4.2 43.6 13.2 38.9 Q13.95 38.7 14.4 37.95 14.8 37.25 14.6 36.45 L14.35 35.5" fill="none" stroke="#453a3a" stroke-linecap="round" stroke-linejoin="round" stroke-width="1.0"/>
    <path d="M22.3 -19.25 Q22.3 -15.5 20.35 -12.25 17.7 -16.7 11.45 -20.3 0.65 -26.5 -14.7 -26.5 -30.05 -26.5 -40.9 -20.3 -47.1 -16.7 -49.75 -12.25 -51.7 -15.5 -51.7 -19.25 -51.7 -28.05 -40.9 -34.3 -30.05 -40.5 -14.7 -40.5 0.65 -40.5 11.45 -34.3 22.3 -28.05 22.3 -19.25" fill="url(#gradient3)" fill-rule="evenodd" stroke="none"/>
    <path d="M9.0 -9.35 Q18.8 -14.65 18.8 -22.15 18.8 -29.65 9.0 -35.0 -0.8 -40.3 -14.7 -40.3 -28.6 -40.3 -38.4 -35.0 -48.2 -29.65 -48.2 -22.15 -48.2 -14.65 -38.4 -9.35 -28.6 -4.0 -14.7 -4.0 -0.8 -4.0 9.0 -9.35 M20.35 -15.15 Q22.3 -18.4 22.3 -22.15 22.3 -30.95 11.45 -37.2 0.65 -43.4 -14.7 -43.4 -30.05 -43.4 -40.9 -37.2 -51.7 -30.95 -51.7 -22.15 -51.7 -18.4 -49.75 -15.15 -47.1 -10.7 -40.9 -7.15 -30.05 -0.9 -14.7 -0.9 0.65 -0.9 11.45 -7.15 17.7 -10.7 20.35 -15.15 17.7 -10.7 11.45 -7.15 0.65 -0.9 -14.7 -0.9 -30.05 -0.9 -40.9 -7.15 -47.1 -10.7 -49.75 -15.15 -51.7 -18.4 -51.7 -22.15 -51.7 -30.95 -40.9 -37.2 -30.05 -43.4 -14.7 -43.4 0.65 -43.4 11.45 -37.2 22.3 -30.95 22.3 -22.15 22.3 -18.4 20.35 -15.15 M-54.7 -21.6 L-54.7 -22.15 Q-54.7 -32.1 -43.0 -39.15 -31.25 -46.15 -14.7 -46.15 1.85 -46.15 13.55 -39.15 25.3 -32.1 25.3 -22.15 L25.3 -21.6 Q25.15 -17.65 23.15 -14.15 L21.75 -12.05 Q18.8 -8.35 13.55 -5.2 1.85 1.85 -14.7 1.85 -31.25 1.85 -43.0 -5.2 -48.25 -8.35 -51.1 -12.05 L-52.55 -14.15 Q-54.55 -17.65 -54.7 -21.6" fill="url(#gradient4)" fill-rule="evenodd" stroke="none"/>
    <path d="M25.3 -21.6 L25.3 -6.15 Q25.3 3.8 13.55 10.8 1.85 17.85 -14.7 17.85 -31.25 17.85 -43.0 10.8 -54.7 3.8 -54.7 -6.15 L-54.7 -21.6 Q-54.55 -17.65 -52.55 -14.15 L-51.1 -12.05 Q-48.25 -8.35 -43.0 -5.2 -31.25 1.85 -14.7 1.85 1.85 1.85 13.55 -5.2 18.8 -8.35 21.75 -12.05 L23.15 -14.15 Q25.15 -17.65 25.3 -21.6" fill="url(#gradient5)" fill-rule="evenodd" stroke="none"/>
    <path d="M20.35 -15.15 Q17.7 -10.7 11.45 -7.15 0.65 -0.9 -14.7 -0.9 -30.05 -0.9 -40.9 -7.15 -47.1 -10.7 -49.75 -15.15 -51.7 -18.4 -51.7 -22.15 -51.7 -30.95 -40.9 -37.2 -30.05 -43.4 -14.7 -43.4 0.65 -43.4 11.45 -37.2 22.3 -30.95 22.3 -22.15 22.3 -18.4 20.35 -15.15 Z" fill="none" stroke="#381d14" stroke-linecap="round" stroke-linejoin="round" stroke-width="1.0"/>
    <path d="M5.7 6.05 Q6.0 5.9 6.5 4.65 L8.65 6.85 Q7.9 8.9 6.5 9.95 L6.0 9.3 Q5.8 9.05 5.7 9.1 -2.4 11.9 -12.9 12.1 L-12.9 12.4 -12.9 14.95 -11.7 15.25 -14.7 17.25 -17.7 15.25 -16.5 14.95 -16.5 12.4 -16.5 12.1 Q-27.0 11.9 -35.1 9.1 -35.2 9.05 -35.4 9.3 L-35.9 9.95 Q-37.3 8.9 -38.05 6.85 L-35.9 4.65 Q-35.4 5.9 -35.1 6.05 -27.15 8.85 -16.5 9.1 L-16.5 5.65 -17.7 5.35 -14.7 3.35 -11.7 5.35 -12.9 5.65 -12.9 9.1 Q-2.25 8.85 5.7 6.05" fill="url(#gradient6)" fill-rule="evenodd" stroke="none"/>
    <path d="M5.7 5.6 Q6.0 5.45 6.5 4.2 L8.65 6.4 Q7.9 8.45 6.5 9.5 L6.0 8.85 Q5.8 8.6 5.7 8.65 -2.4 11.45 -12.9 11.65 L-12.9 11.95 -12.9 14.5 -11.7 14.8 -14.7 16.8 -17.7 14.8 -16.5 14.5 -16.5 11.95 -16.5 11.65 Q-27.0 11.45 -35.1 8.65 -35.2 8.6 -35.4 8.85 L-35.9 9.5 Q-37.3 8.45 -38.05 6.4 L-35.9 4.2 Q-35.4 5.45 -35.1 5.6 -27.15 8.4 -16.5 8.65 L-16.5 5.2 -17.7 4.9 -14.7 2.9 -11.7 4.9 -12.9 5.2 -12.9 8.65 Q-2.25 8.4 5.7 5.6" fill="url(#gradient7)" fill-rule="evenodd" stroke="none"/>
    <path d="M8.6 6.3 L8.65 6.4 Q7.9 8.45 6.5 9.5 L6.0 8.85 Q5.8 8.6 5.7 8.65 -2.4 11.45 -12.9 11.65 L-12.9 11.95 -12.9 14.5 -11.7 14.8 -14.7 16.8 -14.7 10.4 -3.45 9.4 Q3.25 8.4 8.6 6.3" fill="url(#gradient8)" fill-rule="evenodd" stroke="none"/>
    <path d="M-17.7 4.9 L-14.7 2.9 -14.7 10.4 -25.95 9.4 Q-32.65 8.4 -38.0 6.3 L-35.9 4.2 Q-35.4 5.45 -35.1 5.6 -27.15 8.4 -16.5 8.65 L-16.5 5.2 -17.7 4.9" fill="url(#gradient9)" fill-rule="evenodd" stroke="none"/>
    <path d="M8.85 14.45 L7.4 15.05 6.1 14.35 7.45 13.85 7.4 -1.3 5.35 -3.9 2.85 -6.6 0.65 -6.0 0.6 -7.45 1.7 -7.7 3.4 -7.9 Q4.15 -7.8 8.85 -1.65 L8.85 14.45" fill="url(#gradient10)" fill-rule="evenodd" stroke="none"/>
    <path d="M0.6 -7.45 Q7.15 -10.2 8.1 -10.05 9.1 -10.05 14.4 -4.55 L14.4 12.05 8.85 14.45 8.85 -1.65 Q4.15 -7.8 3.4 -7.9 L1.7 -7.7 0.6 -7.45" fill="url(#gradient11)" fill-rule="evenodd" stroke="none"/>
  </g>
  <defs>
    <linearGradient gradientTransform="matrix(-0.0204, 0.059, -0.0113, -0.0039, 18.0, 6.5)" gradientUnits="userSpaceOnUse" id="gradient0" spreadMethod="pad" x1="-819.2" x2="819.2">
      <stop offset="0.0" stop-color="#504545"/>
      <stop offset="0.3333333333333333" stop-color="#877878"/>
      <stop offset="0.6470588235294118" stop-color="#918484"/>
      <stop offset="0.7333333333333333" stop-color="#c6bfbf"/>
      <stop offset="0.8431372549019608" stop-color="#8c7b7b"/>
      <stop offset="1.0" stop-color="#867171"/>
    </linearGradient>
    <linearGradient gradientTransform="matrix(0.0111, 0.0614, -0.0118, 0.0021, 40.1, 6.15)" gradientUnits="userSpaceOnUse" id="gradient1" spreadMethod="pad" x1="-819.2" x2="819.2">
      <stop offset="0.0" stop-color="#504545"/>
      <stop offset="0.3333333333333333" stop-color="#877878"/>
      <stop offset="0.6470588235294118" stop-color="#918484"/>
      <stop offset="0.7333333333333333" stop-color="#c6bfbf"/>
      <stop offset="0.8431372549019608" stop-color="#8c7b7b"/>
      <stop offset="1.0" stop-color="#867171"/>
    </linearGradient>
    <linearGradient gradientTransform="matrix(-0.0204, 0.059, -0.0113, -0.0039, 18.0, 6.5)" gradientUnits="userSpaceOnUse" id="gradient2" spreadMethod="pad" x1="-819.2" x2="819.2">
      <stop offset="0.0" stop-color="#504545"/>
      <stop offset="0.3333333333333333" stop-color="#877878"/>
      <stop offset="0.6470588235294118" stop-color="#918484"/>
      <stop offset="0.7333333333333333" stop-color="#c6bfbf"/>
      <stop offset="0.8431372549019608" stop-color="#8c7b7b"/>
      <stop offset="1.0" stop-color="#867171"/>
    </linearGradient>
    <radialGradient cx="0" cy="0" gradientTransform="matrix(0.047, 0.0, 0.0, 0.047, -14.7, -26.35)" gradientUnits="userSpaceOnUse" id="gradient3" r="819.2" spreadMethod="pad">
      <stop offset="0.0" stop-color="#60443c"/>
      <stop offset="1.0" stop-color="#351c17"/>
    </radialGradient>
    <linearGradient gradientTransform="matrix(0.0, 0.0306, -0.0293, 0.0, -14.7, -22.15)" gradientUnits="userSpaceOnUse" id="gradient4" spreadMethod="pad" x1="-819.2" x2="819.2">
      <stop offset="0.0" stop-color="#6d3f12"/>
      <stop offset="1.0" stop-color="#48281a"/>
    </linearGradient>
    <linearGradient gradientTransform="matrix(0.0488, 0.0, 0.0, 0.0241, -14.7, -1.9)" gradientUnits="userSpaceOnUse" id="gradient5" spreadMethod="pad" x1="-819.2" x2="819.2">
      <stop offset="0.0" stop-color="#48281a"/>
      <stop offset="0.38823529411764707" stop-color="#754535"/>
      <stop offset="0.6627450980392157" stop-color="#784329"/>
      <stop offset="1.0" stop-color="#48281a"/>
    </linearGradient>
    <radialGradient cx="0" cy="0" gradientTransform="matrix(0.0, -0.0093, 0.0303, 0.0, -14.7, 9.9)" gradientUnits="userSpaceOnUse" id="gradient6" r="819.2" spreadMethod="pad">
      <stop offset="0.0" stop-color="#4d4040"/>
      <stop offset="1.0" stop-color="#3e3939"/>
    </radialGradient>
    <radialGradient cx="0" cy="0" gradientTransform="matrix(0.0, -0.0093, 0.0303, 0.0, -14.7, 9.45)" gradientUnits="userSpaceOnUse" id="gradient7" r="819.2" spreadMethod="pad">
      <stop offset="0.0" stop-color="#aa9b9b"/>
      <stop offset="1.0" stop-color="#776a6a"/>
    </radialGradient>
    <radialGradient cx="0" cy="0" gradientTransform="matrix(0.0, -0.0093, -0.0303, 0.0, -14.7, 9.45)" gradientUnits="userSpaceOnUse" id="gradient8" r="819.2" spreadMethod="pad">
      <stop offset="0.0" stop-color="#64504d"/>
      <stop offset="1.0" stop-color="#776a6a"/>
    </radialGradient>
    <radialGradient cx="0" cy="0" gradientTransform="matrix(0.0, -0.0093, 0.0303, 0.0, -14.7, 9.45)" gradientUnits="userSpaceOnUse" id="gradient9" r="819.2" spreadMethod="pad">
      <stop offset="0.0" stop-color="#ebe9e9"/>
      <stop offset="1.0" stop-color="#776a6a" stop-opacity="0.0"/>
    </radialGradient>
    <linearGradient gradientTransform="matrix(0.005, 0.0, 0.0, 0.014, 4.75, 3.55)" gradientUnits="userSpaceOnUse" id="gradient10" spreadMethod="pad" x1="-819.2" x2="819.2">
      <stop offset="0.0" stop-color="#7b6666"/>
      <stop offset="1.0" stop-color="#534848"/>
    </linearGradient>
    <linearGradient gradientTransform="matrix(-0.0057, -0.0145, 0.0141, -0.0055, 7.7, 2.3)" gradientUnits="userSpaceOnUse" id="gradient11" spreadMethod="pad" x1="-819.2" x2="819.2">
      <stop offset="0.0" stop-color="#867171"/>
      <stop offset="0.6274509803921569" stop-color="#5e4d4d"/>
      <stop offset="0.7098039215686275" stop-color="#918484"/>
      <stop offset="0.7686274509803922" stop-color="#877878"/>
      <stop offset="1.0" stop-color="#504545"/>
    </linearGradient>
  </defs>
</svg>
