<?xml version="1.0" encoding="UTF-8" standalone="no"?>
<svg xmlns:xlink="http://www.w3.org/1999/xlink" height="769.45px" width="705.1px" xmlns="http://www.w3.org/2000/svg">
  <g transform="matrix(1.0, 0.0, 0.0, 1.0, 317.3, 406.2)">
    <path d="M113.15 -324.9 L79.55 -227.5 110.0 -202.95 M51.0 -162.65 L38.55 -133.2 9.65 -99.45 9.5 -99.5 8.45 -51.0 8.45 -50.25 8.35 -50.25 5.05 -22.9 5.1 -12.1 13.8 -37.15 54.3 -154.35 79.55 -227.5 M65.35 -59.05 L38.4 -34.65 51.95 -6.15 52.0 -6.15 102.0 -16.0 110.7 -22.8 215.6 -32.35 166.65 -151.3 101.2 -92.3 74.0 -67.4 65.35 -59.05 39.25 -72.1 12.6 -22.45 19.0 -18.0 M8.45 -51.0 L8.35 -50.25 -15.75 -48.75 -8.05 -24.45 5.05 -22.9 M38.4 -34.65 L32.3 -29.2 8.2 -7.9 8.3 -7.9 11.45 -2.25 25.5 -3.6 51.95 -6.15 52.0 -6.05 52.0 -6.15 M24.0 -42.5 L32.3 -29.2 M13.8 -37.15 L18.75 -34.95 M-8.05 -24.45 L-2.45 -6.85 3.45 -7.45 5.1 -12.1 M12.6 -22.45 L4.55 -7.55 8.2 -7.9 M3.45 -7.45 L4.55 -7.55 M11.45 -2.25 L2.5 -3.0 3.0 1.7 4.8 2.9 10.2 6.45 44.35 19.85 136.0 60.0 M257.6 -404.95 L135.0 -249.0 68.7 -125.45 39.25 -72.1 M386.55 -349.7 L207.5 -158.45 166.65 -151.3 M271.0 -41.0 L215.6 -32.35 M4.8 2.9 L3.15 3.95 6.95 8.1 Q8.55 7.25 10.2 6.45 M-2.45 -6.85 L-2.6 -6.85 -3.2 -5.8 -3.9 -4.65 Q-6.25 -3.3 -8.65 -2.0 L-5.85 -0.3 -5.9 0.85 -1.45 1.2 -0.6 2.35 -2.35 4.9 1.5 5.25 1.45 5.1 3.15 3.95 M10.15 12.9 L4.85 15.25 6.75 21.05 6.8 21.1 14.7 45.7 34.25 38.0 6.95 8.1 M1.5 5.25 L4.85 15.25 M14.7 45.7 L25.3 78.6 36.55 113.55 76.0 151.0 105.0 192.0 M34.25 38.0 L75.55 83.25 191.05 183.05 M25.5 -3.6 L22.0 10.5 M-3.9 -4.65 L-10.9 -13.9 -45.45 -59.85 -70.25 -79.65 -80.8 -34.25 -44.0 -18.6 -31.65 -16.55 -19.8 -25.1 M-31.65 -16.55 L-24.2 -11.8 -8.65 -2.0 M-3.2 -5.8 L-8.2 -15.85 -10.9 -13.9 M-8.2 -15.85 L-32.8 -64.95 -45.45 -59.85 M-80.8 -34.25 L-102.75 -43.05 -312.95 -203.95 M-70.25 -79.65 L-92.5 -97.45 M-32.8 -64.95 L-127.95 -182.95 -194.95 -312.95 M-15.75 -48.75 L-54.0 -210.0 M29.0 362.0 L-0.65 21.45 -2.35 4.9 -2.55 4.85 -0.6 2.35 M-5.85 -0.3 L-19.75 0.9 -17.4 9.2 -5.9 0.85 M-19.75 0.9 L-27.25 1.15 -54.65 2.05 -93.95 3.0 M-1.45 1.2 L-27.0 27.0 -0.5 30.5 M-17.4 9.2 L-64.75 32.5 -50.1 49.3 -27.0 27.0 M-50.1 49.3 L-100.05 100.0 M-316.05 178.05 L-177.05 86.0 -64.75 32.5 M-44.0 -18.6 L-54.65 2.05 M-24.2 -11.8 L-27.25 1.15 M6.75 21.05 L-0.65 21.45" fill="none" stroke="url(#gradient0)" stroke-linecap="round" stroke-linejoin="round" stroke-width="2.5"/>
  </g>
  <defs>
    <radialGradient cx="0" cy="0" gradientTransform="matrix(0.5884, 0.0, 0.0, 0.5884, 35.25, -21.45)" gradientUnits="userSpaceOnUse" id="gradient0" r="819.2" spreadMethod="pad">
      <stop offset="0.47058823529411764" stop-color="#ffffff"/>
      <stop offset="0.8392156862745098" stop-color="#ffffff" stop-opacity="0.0"/>
    </radialGradient>
  </defs>
</svg>
