<?xml version="1.0" encoding="UTF-8" standalone="no"?>
<svg xmlns:xlink="http://www.w3.org/1999/xlink" height="128.65px" width="63.7px" xmlns="http://www.w3.org/2000/svg">
  <g transform="matrix(1.0, 0.0, 0.0, 1.0, 30.6, 64.15)">
    <path d="M8.45 -64.15 L9.65 -64.05 Q11.9 -63.75 14.4 -62.1 24.8 -55.6 25.4 -26.45 L25.4 -26.4 Q25.4 -12.7 25.65 -7.1 26.1 1.0 27.85 3.3 L27.9 3.35 Q28.45 4.0 28.5 4.9 L28.5 12.0 29.25 12.9 31.05 14.65 Q33.05 17.35 33.1 21.05 33.1 24.8 30.9 27.55 L30.85 27.6 29.5 28.85 29.5 41.3 Q30.5 42.15 30.5 44.0 L30.5 56.0 Q30.5 57.85 29.5 58.7 L29.5 62.0 Q29.5 63.0 28.8 63.75 L28.75 63.8 Q28.0 64.5 27.0 64.5 L-2.0 64.5 -2.9 64.35 -5.4 63.35 -6.55 62.4 -7.0 61.0 -7.0 59.0 -16.1 59.0 Q-18.55 59.0 -19.75 57.85 -21.05 56.7 -21.0 54.4 L-21.0 50.65 Q-21.05 48.3 -19.75 47.2 -18.55 46.0 -16.1 46.0 L-7.0 46.0 -7.0 40.95 -8.35 39.5 -8.3 39.5 Q-9.0 38.75 -9.0 37.8 L-9.0 36.5 Q-10.5 34.7 -10.5 34.0 L-10.5 30.5 -11.0 30.5 Q-11.8 30.5 -12.45 30.05 -13.1 29.55 -13.35 28.8 L-13.8 27.5 -24.8 27.5 Q-27.3 27.6 -29.05 25.35 L-29.0 25.4 Q-30.6 23.65 -30.6 21.0 -30.6 18.45 -29.05 16.65 L-29.0 16.65 Q-27.3 14.45 -24.85 14.5 L-13.8 14.5 -13.35 13.2 Q-13.1 12.45 -12.45 12.0 L-12.45 11.95 Q-11.8 11.5 -11.0 11.5 L-4.55 11.5 Q-3.6 3.4 -7.3 -5.0 -7.65 -5.85 -7.35 -6.75 -3.0 -21.0 -4.8 -40.4 -5.6 -48.8 -7.5 -54.0 L-7.5 -54.05 Q-8.85 -57.85 -10.25 -58.5 -12.15 -59.35 -12.3 -60.85 -12.5 -62.2 -11.4 -63.05 -9.6 -64.3 -7.55 -64.15 L-6.35 -64.05 Q-4.9 -63.85 -3.35 -63.1 -1.55 -64.3 0.45 -64.15 L1.65 -64.05 Q3.1 -63.85 4.65 -63.1 6.45 -64.3 8.45 -64.15" fill="#000000" fill-rule="evenodd" stroke="none"/>
    <path d="M-7.0 38.0 L-7.0 34.0 -2.0 34.0 -2.0 60.0 -5.0 60.0 -5.0 40.0 -7.0 38.0" fill="url(#gradient0)" fill-rule="evenodd" stroke="none"/>
    <path d="M29.35 16.15 Q31.0 18.25 31.0 21.15 31.0 24.0 29.35 26.05 28.2 27.55 25.4 27.95 L25.4 14.1 Q27.7 14.1 29.35 16.15" fill="url(#gradient1)" fill-rule="evenodd" stroke="none"/>
    <path d="M27.55 16.05 Q29.2 18.15 29.2 21.05 29.2 23.9 27.55 25.95 L27.0 26.55 27.0 15.45 27.55 16.05" fill="url(#gradient2)" fill-rule="evenodd" stroke="none"/>
    <path d="M21.0 23.0 L24.0 23.0 24.0 14.0 27.0 14.0 27.0 44.0 21.0 44.0 21.0 23.0" fill="url(#gradient3)" fill-rule="evenodd" stroke="none"/>
  </g>
  <defs>
    <linearGradient gradientTransform="matrix(0.0031, 0.0, 0.0, 0.0171, -4.0, 48.0)" gradientUnits="userSpaceOnUse" id="gradient0" spreadMethod="pad" x1="-819.2" x2="819.2">
      <stop offset="0.1803921568627451" stop-color="#404040"/>
      <stop offset="0.8313725490196079" stop-color="#3c3c3c"/>
    </linearGradient>
    <linearGradient gradientTransform="matrix(0.0, 0.0085, -0.0085, 0.0, 25.4, 21.05)" gradientUnits="userSpaceOnUse" id="gradient1" spreadMethod="pad" x1="-819.2" x2="819.2">
      <stop offset="0.0" stop-color="#adadad"/>
      <stop offset="0.5058823529411764" stop-color="#eaeaea"/>
      <stop offset="1.0" stop-color="#9b9b9b"/>
    </linearGradient>
    <linearGradient gradientTransform="matrix(0.0068, 0.0, 0.0, 0.0085, 23.6, 20.95)" gradientUnits="userSpaceOnUse" id="gradient2" spreadMethod="pad" x1="-819.2" x2="819.2">
      <stop offset="0.0" stop-color="#515151"/>
      <stop offset="1.0" stop-color="#9f9f9f"/>
    </linearGradient>
    <linearGradient gradientTransform="matrix(0.0214, 0.0, 0.0, 0.0177, 9.5, 28.5)" gradientUnits="userSpaceOnUse" id="gradient3" spreadMethod="pad" x1="-819.2" x2="819.2">
      <stop offset="0.0" stop-color="#666666"/>
      <stop offset="0.050980392156862744" stop-color="#7b7b7b"/>
      <stop offset="0.20392156862745098" stop-color="#d0d0d0"/>
      <stop offset="0.2784313725490196" stop-color="#f4f4f4"/>
      <stop offset="0.3764705882352941" stop-color="#dfdfdf"/>
      <stop offset="0.615686274509804" stop-color="#838383"/>
      <stop offset="0.8235294117647058" stop-color="#959595"/>
      <stop offset="1.0" stop-color="#cdcdcd"/>
    </linearGradient>
  </defs>
</svg>
