<?xml version="1.0" encoding="UTF-8" standalone="no"?>
<svg xmlns:xlink="http://www.w3.org/1999/xlink" height="83.65px" width="20.05px" xmlns="http://www.w3.org/2000/svg">
  <g transform="matrix(1.0, 0.0, 0.0, 1.0, 8.55, 41.85)">
    <path d="M6.35 -6.6 Q5.85 7.2 5.95 12.8 6.1 22.2 8.45 24.8 8.75 33.65 7.45 41.8 L-3.55 41.8 Q2.8 28.2 -3.55 13.8 1.0 -0.85 -0.85 -20.85 -1.7 -29.65 -3.7 -35.1 -5.8 -41.0 -8.55 -41.2 -7.3 -42.05 -5.9 -41.8 -4.55 -41.55 -2.55 -40.2 3.0 -36.45 5.05 -26.55 6.55 -19.25 6.35 -6.6" fill="url(#gradient0)" fill-rule="evenodd" stroke="none"/>
    <path d="M6.35 -6.6 Q6.55 -19.25 5.05 -26.55 3.0 -36.45 -2.55 -40.2 -4.55 -41.55 -5.9 -41.8 L-6.3 -41.85 -5.4 -41.8 Q-3.55 -41.55 -1.55 -40.2 7.8 -33.95 8.35 -6.6 8.35 7.2 8.6 12.8 9.1 22.25 11.45 24.8 L8.45 24.8 Q6.1 22.2 5.95 12.8 5.85 7.2 6.35 -6.6" fill="url(#gradient1)" fill-rule="evenodd" stroke="none"/>
    <path d="M10.45 41.8 L7.45 41.8 Q8.75 33.65 8.45 24.8 L11.45 24.8 Q11.75 33.75 10.45 41.8" fill="url(#gradient2)" fill-rule="evenodd" stroke="none"/>
  </g>
  <defs>
    <linearGradient gradientTransform="matrix(-0.0273, 0.021, -0.0311, -0.0404, -0.05, -0.05)" gradientUnits="userSpaceOnUse" id="gradient0" spreadMethod="pad" x1="-819.2" x2="819.2">
      <stop offset="0.0" stop-color="#666666"/>
      <stop offset="0.047058823529411764" stop-color="#8d8d8d"/>
      <stop offset="0.27058823529411763" stop-color="#cdcdcd"/>
      <stop offset="0.36470588235294116" stop-color="#dfdfdf"/>
      <stop offset="0.49411764705882355" stop-color="#dfdfdf"/>
      <stop offset="0.6470588235294118" stop-color="#b0b0b0"/>
      <stop offset="0.8235294117647058" stop-color="#a6a6a6"/>
      <stop offset="1.0" stop-color="#d5d5d5"/>
    </linearGradient>
    <linearGradient gradientTransform="matrix(-0.0155, 0.0091, -0.0205, -0.035, 2.55, -8.45)" gradientUnits="userSpaceOnUse" id="gradient1" spreadMethod="pad" x1="-819.2" x2="819.2">
      <stop offset="0.0" stop-color="#ddc16f"/>
      <stop offset="0.4196078431372549" stop-color="#f4e7d0"/>
      <stop offset="0.5568627450980392" stop-color="#dec476"/>
      <stop offset="1.0" stop-color="#896f21"/>
    </linearGradient>
    <linearGradient gradientTransform="matrix(0.0057, -0.0053, 0.007, 0.0076, 9.45, 33.3)" gradientUnits="userSpaceOnUse" id="gradient2" spreadMethod="pad" x1="-819.2" x2="819.2">
      <stop offset="0.19607843137254902" stop-color="#9b7c24"/>
      <stop offset="1.0" stop-color="#ddc784"/>
    </linearGradient>
  </defs>
</svg>
