<?xml version="1.0" encoding="UTF-8" standalone="no"?>
<svg xmlns:xlink="http://www.w3.org/1999/xlink" height="33.45px" width="153.0px" xmlns="http://www.w3.org/2000/svg">
  <g transform="matrix(1.0, 0.0, 0.0, 1.0, 76.5, 16.95)">
    <path d="M14.0 -16.5 Q15.05 -16.5 15.8 -15.75 L16.05 -15.5 18.45 -15.5 18.5 -15.5 Q19.9 -16.95 22.0 -16.95 24.05 -16.95 25.5 -15.5 26.4 -14.6 26.75 -13.5 L29.0 -13.5 Q30.05 -13.5 30.8 -12.75 31.5 -12.05 31.5 -11.0 L31.5 -9.4 Q38.9 -5.3 43.65 -8.1 44.25 -8.5 45.0 -8.5 L74.0 -8.5 Q75.05 -8.5 75.8 -7.75 76.5 -7.05 76.5 -6.0 L76.5 14.0 Q76.5 15.05 75.8 15.8 75.05 16.5 74.0 16.5 L72.5 16.45 Q59.7 13.8 46.05 6.35 L44.2 8.2 Q42.6 9.45 41.95 9.4 L40.35 8.7 37.85 7.1 32.05 3.15 Q31.6 4.45 30.85 5.25 29.2 7.35 25.05 7.5 21.55 7.65 19.05 5.15 L18.4 11.3 Q18.25 12.3 17.5 12.95 16.65 13.6 15.65 13.5 L4.7 12.35 Q3.7 12.2 3.05 11.4 2.4 10.6 2.55 9.6 L3.2 3.5 1.95 3.3 Q-8.45 -1.55 -20.0 -1.5 L-52.0 -1.5 Q-52.8 -1.5 -53.45 -1.95 L-54.0 -2.5 -62.0 -2.5 Q-63.7 -2.5 -64.3 -4.0 L-64.5 -5.5 -74.0 -5.5 Q-75.05 -5.5 -75.75 -6.2 -76.5 -6.95 -76.5 -8.0 L-76.5 -10.0 Q-76.5 -11.05 -75.75 -11.75 -75.2 -12.35 -74.45 -12.45 L-73.9 -13.65 Q-73.2 -14.5 -72.0 -14.5 L-70.0 -14.5 Q-68.8 -14.5 -68.0 -13.5 L-67.45 -12.5 -54.45 -12.5 -53.95 -13.6 Q-53.25 -14.5 -52.0 -14.5 L-51.0 -14.5 Q-50.5 -15.5 -49.0 -15.5 L-1.0 -15.5 -0.75 -15.75 Q-0.05 -16.5 1.0 -16.5 L3.0 -16.5 Q4.05 -16.5 4.8 -15.75 L5.8 -14.75 Q6.3 -14.2 6.45 -13.5 L9.5 -13.5 9.5 -14.0 Q9.5 -15.05 10.25 -15.75 10.95 -16.5 12.0 -16.5 L14.0 -16.5" fill="#000000" fill-rule="evenodd" stroke="none"/>
  </g>
</svg>
