<?xml version="1.0" encoding="UTF-8" standalone="no"?>
<svg xmlns:xlink="http://www.w3.org/1999/xlink" height="152.1px" width="361.3px" xmlns="http://www.w3.org/2000/svg">
  <g transform="matrix(1.0, 0.0, 0.0, 1.0, -150.15, 48.0)">
    <path d="M511.1 -16.5 L511.1 -2.75 151.1 -44.0 152.5 -46.0 Q154.85 -47.75 156.25 -47.5 L333.1 -32.65 333.5 -32.25 511.1 -16.5" fill="#5a5a5a" fill-rule="evenodd" stroke="none"/>
    <path d="M156.25 -47.5 L157.85 -47.65 511.1 -18.4 511.1 -16.5 333.5 -32.25 333.1 -32.65 156.25 -47.5 M511.1 -2.75 L511.1 3.5 150.5 -41.65 151.1 -44.0 511.1 -2.75" fill="#525252" fill-rule="evenodd" stroke="none"/>
    <path d="M511.1 3.5 L511.1 10.1 150.75 -39.5 150.5 -41.65 511.1 3.5 M511.1 72.85 L511.1 84.75 151.35 -16.5 150.85 -17.75 150.75 -21.15 511.1 72.85" fill="#353535" fill-rule="evenodd" stroke="none"/>
    <path d="M511.1 10.1 L511.1 20.75 157.1 -35.5 Q151.75 -35.9 150.75 -39.5 L511.1 10.1 M511.1 84.75 L510.85 103.75 165.0 -7.4 Q154.25 -9.15 151.35 -16.5 L511.1 84.75" fill="#121212" fill-rule="evenodd" stroke="none"/>
    <path d="M511.1 25.85 L511.1 72.85 150.75 -21.15 Q152.0 -31.4 162.75 -33.25 L511.1 25.85" fill="#575757" fill-rule="evenodd" stroke="none"/>
    <path d="M162.75 -33.25 L165.85 -33.25 511.1 23.6 511.1 25.85 162.75 -33.25" fill="#4c4c4c" fill-rule="evenodd" stroke="none"/>
    <path d="M157.85 -47.65 L511.1 -18.4 511.1 20.75 157.1 -35.5 Q151.75 -35.9 150.75 -39.5 L150.5 -41.65 151.1 -44.0 152.5 -46.0 Q154.85 -47.75 156.25 -47.5 L157.85 -47.65 M151.35 -16.5 Q154.25 -9.15 165.0 -7.4 L510.85 103.75 511.1 23.6 165.85 -33.25 162.75 -33.25 Q152.0 -31.4 150.75 -21.15 L150.85 -17.75 151.35 -16.5" fill="none" stroke="#000000" stroke-linecap="round" stroke-linejoin="round" stroke-width="0.7000000000000001"/>
  </g>
</svg>
