<?xml version="1.0" encoding="UTF-8" standalone="no"?>
<svg xmlns:xlink="http://www.w3.org/1999/xlink" height="170.0px" width="128.0px" xmlns="http://www.w3.org/2000/svg">
  <g transform="matrix(1.0, 0.0, 0.0, 1.0, 64.0, 87.0)">
    <path d="M-64.0 -64.0 L64.0 -64.0 64.0 64.0 -64.0 64.0 -64.0 -64.0" fill="#38cd4e" fill-opacity="0.0" fill-rule="evenodd" stroke="none"/>
    <path d="M5.7 -81.4 L5.7 -81.35 Q7.0 -77.5 7.0 -72.0 L7.0 -66.85 8.0 -67.0 Q21.1 -67.15 30.25 -54.0 L30.3 -54.0 Q39.0 -41.5 39.0 -24.0 L39.0 20.0 39.0 20.3 Q38.55 26.0 31.75 33.8 26.05 40.25 21.4 42.65 L20.0 43.0 16.0 43.0 Q14.75 43.0 13.9 42.15 13.0 41.25 13.0 40.0 L13.0 36.1 Q12.95 37.25 12.15 38.15 11.25 39.0 10.0 39.0 L7.0 39.0 7.0 73.15 Q7.6 73.35 8.15 73.9 9.0 74.75 9.0 76.0 L9.0 80.0 Q9.0 81.25 8.15 82.15 7.25 83.0 6.0 83.0 L-6.0 83.0 Q-7.25 83.0 -8.1 82.15 -9.0 81.25 -9.0 80.0 L-9.0 76.0 Q-9.0 74.75 -8.1 73.9 -7.6 73.35 -7.0 73.15 L-7.0 39.0 -10.0 39.0 Q-11.25 39.0 -12.1 38.15 -12.95 37.25 -13.0 36.1 L-13.0 40.0 Q-13.0 41.25 -13.85 42.15 -14.75 43.0 -16.0 43.0 L-20.0 43.0 -21.4 42.65 Q-26.05 40.25 -31.75 33.8 -38.55 26.0 -38.95 20.3 L-39.0 20.0 -39.0 -24.0 Q-39.0 -41.5 -30.25 -54.0 -21.05 -67.15 -8.0 -67.0 L-7.0 -66.85 -7.0 -72.0 Q-7.0 -77.5 -5.65 -81.4 L-5.65 -81.35 Q-3.85 -87.0 0.0 -87.0 3.8 -87.0 5.7 -81.4" fill="#000000" fill-rule="evenodd" stroke="none"/>
    <path d="M8.0 -64.0 Q19.65 -64.0 27.8 -52.3 36.0 -40.5 36.0 -24.0 L36.0 20.0 Q35.5 24.95 29.5 31.8 24.25 37.75 20.0 40.0 L16.0 40.0 16.0 24.0 -16.0 24.0 -16.0 40.0 -20.0 40.0 Q-24.25 37.75 -29.5 31.8 -35.5 24.95 -36.0 20.0 L-36.0 -24.0 Q-36.0 -40.5 -27.8 -52.3 -19.6 -64.0 -8.0 -64.0 L-8.0 -20.0 8.0 -20.0 8.0 -64.0" fill="url(#gradient0)" fill-rule="evenodd" stroke="none"/>
    <path d="M25.35 -50.55 L25.35 -50.6 Q33.0 -39.5 33.0 -24.0 L33.0 19.9 Q32.35 24.0 27.25 29.85 22.85 34.85 19.2 37.0 L19.0 37.15 19.0 24.0 Q19.0 22.75 18.15 21.9 17.25 21.0 16.0 21.0 L-16.0 21.0 Q-17.25 21.0 -18.1 21.9 -19.0 22.75 -19.0 24.0 L-19.0 37.15 -19.2 37.0 Q-22.85 34.85 -27.25 29.85 -32.35 24.0 -33.0 19.9 L-33.0 -24.0 Q-33.0 -39.5 -25.3 -50.6 -19.2 -59.3 -11.0 -60.7 L-11.0 -20.0 Q-11.0 -18.75 -10.1 -17.85 -9.25 -17.0 -8.0 -17.0 L8.0 -17.0 Q9.25 -17.0 10.15 -17.85 11.0 -18.75 11.0 -20.0 L11.0 -60.7 Q19.25 -59.3 25.35 -50.55" fill="url(#gradient1)" fill-rule="evenodd" stroke="none"/>
    <path d="M31.0 -24.0 L31.0 19.7 Q30.25 23.35 25.75 28.5 L21.0 33.25 21.0 24.0 Q21.0 21.95 19.55 20.5 L19.55 20.45 Q18.05 19.0 16.0 19.0 L-16.0 19.0 Q-18.05 19.0 -19.5 20.45 L-19.55 20.5 Q-21.0 21.95 -21.0 24.0 L-21.0 33.25 -25.75 28.5 Q-30.25 23.35 -31.0 19.7 L-31.0 -24.0 Q-31.0 -38.85 -23.65 -49.45 -19.0 -56.15 -13.0 -58.15 L-13.0 -20.0 Q-13.0 -17.95 -11.55 -16.45 L-11.5 -16.45 Q-10.05 -15.0 -8.0 -15.0 L8.0 -15.0 Q10.05 -15.0 11.55 -16.45 13.0 -17.95 13.0 -20.0 L13.0 -58.15 Q19.05 -56.15 23.7 -49.4 31.0 -38.8 31.0 -24.0" fill="url(#gradient2)" fill-rule="evenodd" stroke="none"/>
    <path d="M14.0 -56.65 L14.0 -30.0 16.0 -30.0 16.0 18.0 Q18.9 18.2 20.5 20.0 L21.6 21.8 Q22.0 22.95 22.0 24.95 L22.0 31.0 25.2 27.6 Q29.05 23.25 30.0 19.5 L30.0 -24.0 Q30.0 -31.0 28.15 -37.5 26.35 -43.85 23.2 -48.3 20.45 -52.2 18.0 -54.2 L14.0 -56.65 M13.0 -29.0 L13.0 -58.15 Q19.05 -56.15 23.7 -49.4 31.0 -38.8 31.0 -24.0 L31.0 19.7 Q30.25 23.35 25.75 28.5 L21.0 33.25 21.0 24.0 Q21.0 22.0 19.55 20.45 18.35 19.15 16.15 19.0 L15.0 19.0 15.0 -29.0 13.0 -29.0 M-31.0 -24.0 Q-31.0 -38.8 -23.7 -49.4 -19.05 -56.15 -13.0 -58.15 L-13.0 -29.0 -15.0 -29.0 -15.0 19.0 -16.15 19.0 Q-18.35 19.15 -19.55 20.45 -21.0 22.0 -21.0 24.0 L-21.0 33.25 -25.75 28.5 Q-30.25 23.35 -31.0 19.7 L-31.0 -24.0 M-14.0 -56.65 L-18.0 -54.2 Q-20.45 -52.2 -23.2 -48.3 -26.35 -43.85 -28.15 -37.5 -30.0 -31.0 -30.0 -24.0 L-30.0 19.5 Q-29.05 23.25 -25.2 27.6 L-22.0 31.0 -22.0 24.95 Q-22.0 22.95 -21.6 21.8 L-20.5 20.0 Q-18.9 18.2 -16.0 18.0 L-16.0 -30.0 -14.0 -30.0 -14.0 -56.65" fill="url(#gradient3)" fill-rule="evenodd" stroke="none"/>
    <path d="M4.0 76.0 L6.0 76.0 6.0 80.0 -6.0 80.0 -6.0 76.0 -4.0 76.0 4.0 76.0" fill="url(#gradient4)" fill-rule="evenodd" stroke="none"/>
    <path d="M4.0 74.0 L4.0 74.05 4.0 74.65 4.0 76.0 -4.0 76.0 -4.0 74.0 4.0 74.0" fill="#776a6a" fill-rule="evenodd" stroke="none"/>
    <path d="M-4.0 74.0 L-4.0 -72.0 Q-4.0 -76.95 -2.8 -80.45 -1.65 -84.0 0.0 -84.0 1.65 -84.0 2.85 -80.45 4.0 -76.95 4.0 -72.0 L4.0 74.0 -4.0 74.0" fill="url(#gradient5)" fill-rule="evenodd" stroke="none"/>
    <path d="M4.0 38.0 L-4.0 38.0 -4.0 -46.0 4.0 -46.0 4.0 38.0" fill="url(#gradient6)" fill-rule="evenodd" stroke="none"/>
    <path d="M1.4 -72.5 Q0.85 -71.0 0.0 -71.0 -0.85 -71.0 -1.45 -72.5 -2.0 -73.95 -2.0 -76.0 -2.0 -78.05 -1.45 -79.55 -0.85 -81.0 0.0 -81.0 0.85 -81.0 1.4 -79.55 2.0 -78.05 2.0 -76.0 2.0 -73.95 1.4 -72.5" fill="url(#gradient7)" fill-rule="evenodd" stroke="none"/>
    <path d="M9.0 -40.0 L9.0 -29.0 -9.0 -29.0 -9.0 -40.0 9.0 -40.0" fill="url(#gradient8)" fill-rule="evenodd" stroke="none"/>
    <path d="M9.0 -29.0 L9.0 -28.0 -9.0 -28.0 -9.0 -29.0 9.0 -29.0" fill="url(#gradient9)" fill-rule="evenodd" stroke="none"/>
    <path d="M10.0 36.0 L-10.0 36.0 -10.0 32.0 10.0 32.0 10.0 36.0" fill="url(#gradient10)" fill-rule="evenodd" stroke="none"/>
    <path d="M-9.0 -40.0 L-6.0 -45.0 6.0 -45.0 9.0 -40.0 -9.0 -40.0" fill="url(#gradient11)" fill-rule="evenodd" stroke="none"/>
    <path d="M9.0 -40.0 L9.0 -29.0 9.0 -28.0 M-9.0 -28.0 L-9.0 -29.0 -9.0 -40.0" fill="none" stroke="#605757" stroke-linecap="round" stroke-linejoin="round" stroke-width="1.0"/>
    <path d="M-8.0 32.0 L-13.0 32.0 -13.0 -28.0 -8.0 -28.0 -8.0 32.0" fill="url(#gradient12)" fill-rule="evenodd" stroke="none"/>
    <path d="M8.0 32.0 L-8.0 32.0 -8.0 -28.0 8.0 -28.0 8.0 32.0" fill="url(#gradient13)" fill-rule="evenodd" stroke="none"/>
    <path d="M8.0 -28.0 L13.0 -28.0 13.0 32.0 8.0 32.0 8.0 -28.0" fill="url(#gradient14)" fill-rule="evenodd" stroke="none"/>
    <path d="M12.0 -22.0 L6.0 -22.0 6.0 -24.0 12.0 -24.0 12.0 -22.0 M12.0 -18.0 L6.0 -18.0 6.0 -20.0 12.0 -20.0 12.0 -18.0 M12.0 -14.0 L6.0 -14.0 6.0 -16.0 12.0 -16.0 12.0 -14.0 M10.55 18.3 Q11.15 18.3 11.55 18.7 12.0 19.15 12.0 19.75 12.0 20.35 11.55 20.75 11.15 21.2 10.55 21.2 L-10.55 21.2 Q-11.15 21.2 -11.6 20.75 -12.0 20.35 -12.0 19.75 -12.0 19.15 -11.6 18.7 -11.15 18.3 -10.55 18.3 L10.55 18.3 M-6.0 -22.0 L-12.0 -22.0 -12.0 -24.0 -6.0 -24.0 -6.0 -22.0 M-6.0 -18.0 L-12.0 -18.0 -12.0 -20.0 -6.0 -20.0 -6.0 -18.0 M-6.0 -14.0 L-12.0 -14.0 -12.0 -16.0 -6.0 -16.0 -6.0 -14.0" fill="#323d4e" fill-opacity="0.6" fill-rule="evenodd" stroke="none"/>
    <path d="M14.05 1.45 Q14.5 1.9 14.5 2.5 L13.1 17.5 Q13.1 18.1 12.65 18.55 L12.1 18.95 12.1 19.0 0.0 19.0 -12.1 19.0 -12.1 18.95 -12.65 18.55 Q-13.1 18.1 -13.1 17.5 L-14.5 2.5 Q-14.5 1.9 -14.05 1.45 -13.6 1.0 -13.0 1.0 L-10.45 1.0 Q-10.2 1.0 -10.0 1.45 L-9.8 2.5 -10.0 3.55 -10.45 4.0 -11.35 4.0 -10.1 16.0 0.0 16.0 10.1 16.0 11.35 4.0 10.45 4.0 10.0 3.55 9.8 2.5 10.0 1.45 Q10.2 1.0 10.45 1.0 L13.0 1.0 Q13.6 1.0 14.05 1.45" fill="url(#gradient15)" fill-rule="evenodd" stroke="none"/>
    <path d="M10.45 0.5 L13.0 0.5 Q13.8 0.5 14.4 1.1 15.0 1.7 15.0 2.5 L15.0 2.55 13.6 17.55 Q13.6 18.3 13.0 18.9 L12.95 19.0 12.55 19.3 12.45 19.35 12.1 19.5 -12.1 19.5 -12.45 19.35 -12.5 19.3 -12.9 19.0 -13.0 18.9 Q-13.6 18.3 -13.6 17.55 L-13.6 17.5 -15.0 2.55 -15.0 2.5 Q-15.0 1.7 -14.4 1.1 -13.8 0.5 -13.0 0.5 L-10.45 0.5 Q-10.25 0.5 -10.1 0.65 L-9.95 1.0 -10.1 1.35 -10.45 1.5 -13.0 1.5 Q-13.4 1.5 -13.7 1.8 L-14.0 2.45 -12.6 17.45 -12.6 17.5 -12.35 18.15 -11.85 18.5 11.85 18.5 12.4 18.15 12.6 17.5 12.6 17.45 14.0 2.5 13.7 1.8 Q13.4 1.5 13.05 1.5 L10.45 1.5 10.1 1.35 9.95 1.0 10.1 0.65 Q10.25 0.5 10.45 0.5" fill="#292932" fill-rule="evenodd" stroke="none"/>
  </g>
  <defs>
    <linearGradient gradientTransform="matrix(0.0505, -0.0207, 0.0102, 0.0248, 7.2, 8.7)" gradientUnits="userSpaceOnUse" id="gradient0" spreadMethod="pad" x1="-819.2" x2="819.2">
      <stop offset="0.0" stop-color="#7a6c5a"/>
      <stop offset="0.9176470588235294" stop-color="#9e8e7d"/>
      <stop offset="1.0" stop-color="#b7a99d"/>
    </linearGradient>
    <radialGradient cx="0" cy="0" gradientTransform="matrix(0.0699, -0.0678, 0.0675, 0.0695, 16.0, -32.0)" gradientUnits="userSpaceOnUse" id="gradient1" r="819.2" spreadMethod="pad">
      <stop offset="0.023529411764705882" stop-color="#506ca0"/>
      <stop offset="0.30196078431372547" stop-color="#4d5e8e"/>
      <stop offset="0.8470588235294118" stop-color="#465164"/>
      <stop offset="0.9568627450980393" stop-color="#526474"/>
    </radialGradient>
    <radialGradient cx="0" cy="0" gradientTransform="matrix(0.0699, -0.0678, 0.0675, 0.0695, 16.0, -32.0)" gradientUnits="userSpaceOnUse" id="gradient2" r="819.2" spreadMethod="pad">
      <stop offset="0.023529411764705882" stop-color="#506ca0"/>
      <stop offset="0.30196078431372547" stop-color="#4d5e8e"/>
      <stop offset="0.8470588235294118" stop-color="#465164"/>
      <stop offset="0.9568627450980393" stop-color="#526474"/>
    </radialGradient>
    <linearGradient gradientTransform="matrix(0.0505, -0.0207, 0.0102, 0.0248, 7.2, 8.7)" gradientUnits="userSpaceOnUse" id="gradient3" spreadMethod="pad" x1="-819.2" x2="819.2">
      <stop offset="0.0" stop-color="#7a6c5a"/>
      <stop offset="0.9176470588235294" stop-color="#9e8e7d"/>
      <stop offset="1.0" stop-color="#b7a99d"/>
    </linearGradient>
    <linearGradient gradientTransform="matrix(-0.0098, 0.0, 0.0, -0.0024, 0.0, 78.0)" gradientUnits="userSpaceOnUse" id="gradient4" spreadMethod="pad" x1="-819.2" x2="819.2">
      <stop offset="0.0" stop-color="#8d8787"/>
      <stop offset="0.4235294117647059" stop-color="#b1afaf"/>
      <stop offset="0.6274509803921569" stop-color="#b6b4b4"/>
      <stop offset="1.0" stop-color="#8d8787"/>
    </linearGradient>
    <linearGradient gradientTransform="matrix(-0.0049, 0.0, 0.0, -0.0903, 0.0, 2.0)" gradientUnits="userSpaceOnUse" id="gradient5" spreadMethod="pad" x1="-819.2" x2="819.2">
      <stop offset="0.10196078431372549" stop-color="#8d8787"/>
      <stop offset="0.43529411764705883" stop-color="#afabab"/>
      <stop offset="0.5843137254901961" stop-color="#afabab"/>
      <stop offset="0.8862745098039215" stop-color="#8d8787"/>
    </linearGradient>
    <linearGradient gradientTransform="matrix(0.0055, 0.0, 0.0, 0.0513, 0.0, -4.5)" gradientUnits="userSpaceOnUse" id="gradient6" spreadMethod="pad" x1="-819.2" x2="819.2">
      <stop offset="0.0" stop-color="#686464"/>
      <stop offset="0.4549019607843137" stop-color="#878585"/>
      <stop offset="0.5764705882352941" stop-color="#878585"/>
      <stop offset="1.0" stop-color="#686464"/>
    </linearGradient>
    <radialGradient cx="0" cy="0" gradientTransform="matrix(0.0026, 0.0, 0.0, 0.0061, 0.0, -76.0)" gradientUnits="userSpaceOnUse" id="gradient7" r="819.2" spreadMethod="pad">
      <stop offset="0.1450980392156863" stop-color="#ffffff" stop-opacity="0.5019608"/>
      <stop offset="0.6509803921568628" stop-color="#ffffff" stop-opacity="0.17254902"/>
      <stop offset="1.0" stop-color="#ffffff" stop-opacity="0.0"/>
    </radialGradient>
    <linearGradient gradientTransform="matrix(0.0128, 0.0, 0.0, 0.0073, 0.0, -30.5)" gradientUnits="userSpaceOnUse" id="gradient8" spreadMethod="pad" x1="-819.2" x2="819.2">
      <stop offset="0.0" stop-color="#8d8787"/>
      <stop offset="0.4549019607843137" stop-color="#b3aeae"/>
      <stop offset="0.5843137254901961" stop-color="#b3aeae"/>
      <stop offset="1.0" stop-color="#8d8787"/>
    </linearGradient>
    <linearGradient gradientTransform="matrix(0.0128, 0.0, 0.0, 0.0073, 0.0, -30.5)" gradientUnits="userSpaceOnUse" id="gradient9" spreadMethod="pad" x1="-819.2" x2="819.2">
      <stop offset="0.0" stop-color="#686464"/>
      <stop offset="0.4549019607843137" stop-color="#878585"/>
      <stop offset="0.5764705882352941" stop-color="#878585"/>
      <stop offset="1.0" stop-color="#686464"/>
    </linearGradient>
    <linearGradient gradientTransform="matrix(0.0116, 0.0, 0.0, 0.0024, 0.0, 33.5)" gradientUnits="userSpaceOnUse" id="gradient10" spreadMethod="pad" x1="-819.2" x2="819.2">
      <stop offset="0.0" stop-color="#686464"/>
      <stop offset="0.4549019607843137" stop-color="#8d8d8d"/>
      <stop offset="0.5843137254901961" stop-color="#8d8d8d"/>
      <stop offset="1.0" stop-color="#686464"/>
    </linearGradient>
    <radialGradient cx="0" cy="0" gradientTransform="matrix(0.0, -0.0104, 0.0131, 0.0, 0.0, -40.0)" gradientUnits="userSpaceOnUse" id="gradient11" r="819.2" spreadMethod="pad">
      <stop offset="0.09019607843137255" stop-color="#d1cfcf"/>
      <stop offset="0.3803921568627451" stop-color="#b3aeae"/>
      <stop offset="1.0" stop-color="#8d8787"/>
    </radialGradient>
    <linearGradient gradientTransform="matrix(0.0023, 0.0, 0.0, 0.0366, 10.25, 2.25)" gradientUnits="userSpaceOnUse" id="gradient12" spreadMethod="pad" x1="-819.2" x2="819.2">
      <stop offset="0.0" stop-color="#394353"/>
      <stop offset="1.0" stop-color="#4e5772"/>
    </linearGradient>
    <linearGradient gradientTransform="matrix(0.0224, -0.0092, 0.0102, 0.0248, 3.05, 9.4)" gradientUnits="userSpaceOnUse" id="gradient13" spreadMethod="pad" x1="-819.2" x2="819.2">
      <stop offset="0.0" stop-color="#4e5772"/>
      <stop offset="1.0" stop-color="#4f5e86"/>
    </linearGradient>
    <linearGradient gradientTransform="matrix(0.0023, 0.0, 0.0, 0.0366, 10.25, 2.25)" gradientUnits="userSpaceOnUse" id="gradient14" spreadMethod="pad" x1="-819.2" x2="819.2">
      <stop offset="0.0" stop-color="#37424f"/>
      <stop offset="1.0" stop-color="#4e5772"/>
    </linearGradient>
    <linearGradient gradientTransform="matrix(0.0, -0.0122, 0.011, 0.0, 0.0, 10.0)" gradientUnits="userSpaceOnUse" id="gradient15" spreadMethod="pad" x1="-819.2" x2="819.2">
      <stop offset="0.0" stop-color="#a8a4a4"/>
      <stop offset="0.17647058823529413" stop-color="#a8a4a4"/>
      <stop offset="0.2196078431372549" stop-color="#7e7878"/>
      <stop offset="0.47843137254901963" stop-color="#918a8a"/>
      <stop offset="0.5372549019607843" stop-color="#b1afaf"/>
      <stop offset="1.0" stop-color="#9c9494"/>
    </linearGradient>
  </defs>
</svg>
