<?xml version="1.0" encoding="UTF-8" standalone="no"?>
<svg xmlns:xlink="http://www.w3.org/1999/xlink" height="73.65px" width="108.4px" xmlns="http://www.w3.org/2000/svg">
  <g transform="matrix(1.0, 0.0, 0.0, 1.0, 54.2, 26.0)">
    <path d="M24.7 -25.75 L37.95 -25.15 Q44.25 -23.7 47.65 -19.8 L52.2 -18.9 53.65 -18.0 Q54.2 -17.35 54.2 -16.45 L54.2 -7.65 Q54.2 -6.95 53.85 -6.35 L52.85 -5.4 49.6 -3.8 48.95 -1.8 49.75 -0.7 49.85 0.3 49.8 0.65 50.15 1.15 Q53.4 5.2 52.5 9.2 51.95 13.65 46.0 17.6 36.85 23.65 21.1 23.6 L21.0 23.6 Q15.15 24.05 11.8 26.75 L11.5 27.1 Q9.1 29.2 9.1 32.3 9.1 35.15 11.25 37.2 L11.3 37.25 Q13.45 39.15 16.65 39.25 L16.95 39.0 Q17.5 38.4 18.3 38.3 19.1 38.15 19.85 38.55 L21.5 39.35 22.0 39.35 Q22.9 39.35 23.6 39.9 L26.4 39.9 Q27.45 39.9 28.2 40.65 28.9 41.35 28.9 42.4 L28.9 43.5 Q28.9 44.55 28.2 45.3 27.45 46.0 26.4 46.0 L23.6 46.0 Q22.9 46.55 22.0 46.55 L21.5 46.55 Q20.7 47.0 19.85 47.4 L18.3 47.65 Q17.5 47.5 16.95 46.95 L16.75 46.75 Q10.35 46.75 6.15 42.7 L6.15 42.65 Q1.7 38.45 1.6 32.4 1.45 26.05 6.45 21.5 L6.4 21.5 Q10.9 17.2 19.15 16.3 L21.7 16.15 Q34.45 16.05 41.9 11.3 L41.9 11.35 Q44.45 9.65 45.1 7.95 L44.8 6.65 44.45 6.65 43.25 6.3 41.55 7.6 36.4 10.45 Q32.35 12.1 27.65 12.4 19.65 12.85 13.4 9.0 9.9 6.8 7.65 3.65 L6.6 3.65 Q5.65 3.65 4.95 3.05 3.25 1.7 1.65 -3.1 L1.6 -3.2 Q1.25 -4.05 0.05 -4.05 L-0.05 -4.05 Q-1.25 -4.05 -1.6 -3.2 L-1.6 -3.1 Q-3.25 1.7 -4.95 3.05 -5.65 3.65 -6.6 3.65 L-7.65 3.65 Q-9.9 6.8 -13.35 9.0 L-13.4 9.0 Q-19.65 12.85 -27.65 12.4 -32.35 12.1 -36.4 10.5 L-36.4 10.45 -41.55 7.6 Q-47.8 3.1 -49.6 -3.8 L-52.8 -5.4 -53.8 -6.35 Q-54.2 -6.95 -54.2 -7.65 L-54.2 -16.45 Q-54.2 -17.35 -53.6 -18.0 -53.05 -18.7 -52.15 -18.9 L-47.65 -19.8 Q-44.25 -23.7 -37.95 -25.1 -32.5 -26.45 -24.7 -25.75 -17.7 -25.15 -12.05 -22.85 -6.3 -20.6 -4.0 -17.45 -2.05 -16.7 -0.05 -16.75 L0.05 -16.75 Q2.05 -16.7 4.0 -17.45 6.3 -20.6 12.1 -22.85 L12.05 -22.85 Q17.7 -25.15 24.7 -25.75" fill="#000000" fill-rule="evenodd" stroke="none"/>
    <path d="M4.0 -3.9 Q3.2 -6.6 0.0 -6.55 -3.2 -6.6 -4.0 -3.9 -5.3 0.0 -6.6 1.15 L-8.8 1.15 -8.8 -6.55 Q-0.35 -15.15 0.0 -7.9 0.35 -15.2 8.8 -6.55 L8.8 1.15 6.6 1.15 Q5.3 0.0 4.0 -3.9" fill="url(#gradient0)" fill-rule="evenodd" stroke="none"/>
    <path d="M14.5 -17.3 Q19.5 -21.4 26.55 -21.4 33.6 -21.4 38.55 -17.3 43.55 -13.2 43.55 -7.4 43.55 -1.6 38.55 2.5 33.6 6.6 26.55 6.6 19.5 6.6 14.5 2.5 9.55 -1.6 9.55 -7.4 9.55 -13.2 14.5 -17.3" fill="url(#gradient1)" fill-rule="evenodd" stroke="none"/>
    <path d="M-14.5 -17.3 Q-9.55 -13.2 -9.55 -7.4 -9.55 -1.6 -14.5 2.5 -19.5 6.6 -26.55 6.6 -33.6 6.6 -38.55 2.5 -43.55 -1.6 -43.55 -7.4 -43.55 -13.2 -38.55 -17.3 -33.6 -21.4 -26.55 -21.4 -19.5 -21.4 -14.5 -17.3" fill="url(#gradient2)" fill-rule="evenodd" stroke="none"/>
    <path d="M39.85 -15.75 L39.85 -16.2 40.15 -16.55 40.65 -16.55 41.0 -16.25 42.8 -12.2 42.8 -11.7 42.45 -11.35 42.0 -11.35 Q41.75 -11.45 41.65 -11.7 L39.85 -15.75 M-42.0 -11.35 L-42.45 -11.35 -42.8 -11.7 -42.8 -12.2 -41.0 -16.25 -40.65 -16.55 -40.15 -16.55 -39.85 -16.2 -39.85 -15.75 -41.65 -11.7 Q-41.75 -11.45 -42.0 -11.35" fill="#000000" fill-rule="evenodd" stroke="none"/>
    <path d="M6.7 -4.3 L5.6 -15.3 Q7.4 -18.35 13.0 -20.55 18.3 -22.7 24.9 -23.25 L37.4 -22.7 Q43.3 -21.35 46.3 -17.5 48.65 -11.65 47.4 -5.4 46.0 1.3 40.1 5.55 37.9 7.1 35.45 8.15 31.75 9.65 27.5 9.9 20.3 10.3 14.7 6.85 8.6 3.05 6.7 -4.3 M11.15 -2.7 Q12.25 0.35 14.4 2.1 16.75 4.0 19.0 4.9 21.1 5.8 23.6 6.05 L23.65 6.05 Q29.2 6.75 33.4 4.7 L33.65 4.55 Q36.05 3.3 37.6 1.85 39.4 0.1 40.4 -2.4 41.4 -4.8 41.6 -7.4 41.75 -9.7 41.25 -11.15 L42.2 -11.95 40.4 -16.0 39.15 -15.85 Q37.6 -17.65 35.2 -18.85 L34.6 -19.15 Q30.45 -21.05 25.0 -20.55 19.2 -19.95 15.1 -16.7 10.3 -12.95 10.3 -7.05 10.3 -4.95 11.15 -2.7" fill="url(#gradient3)" fill-rule="evenodd" stroke="none"/>
    <path d="M-46.3 -17.5 Q-43.3 -21.35 -37.4 -22.7 L-24.9 -23.25 Q-18.3 -22.7 -13.0 -20.55 -7.4 -18.35 -5.6 -15.3 L-6.7 -4.3 Q-8.6 3.05 -14.7 6.85 -20.3 10.3 -27.5 9.9 -31.75 9.65 -35.45 8.15 -37.9 7.1 -40.1 5.55 -46.0 1.3 -47.4 -5.4 -48.65 -11.65 -46.3 -17.5 M-41.25 -11.15 Q-41.75 -9.7 -41.6 -7.4 -41.4 -4.8 -40.4 -2.4 -39.4 0.1 -37.6 1.85 -36.05 3.3 -33.65 4.55 L-33.4 4.7 Q-29.2 6.75 -23.65 6.05 L-23.6 6.05 Q-21.1 5.8 -19.0 4.9 -16.75 4.0 -14.4 2.1 -12.25 0.35 -11.15 -2.7 -10.3 -4.95 -10.3 -7.05 -10.3 -12.95 -15.1 -16.7 -19.2 -19.95 -25.0 -20.55 -30.45 -21.05 -34.6 -19.15 L-35.2 -18.85 Q-37.6 -17.65 -39.15 -15.85 L-40.4 -16.0 -42.2 -11.95 -41.25 -11.15" fill="url(#gradient4)" fill-rule="evenodd" stroke="none"/>
    <path d="M36.8 -21.4 L35.05 -18.9 34.15 -19.35 Q34.9 -20.75 36.1 -22.05 L36.85 -22.85 37.9 -22.6 36.8 -21.4 M-35.05 -18.9 L-36.8 -21.4 -37.9 -22.6 -36.85 -22.85 -36.1 -22.05 Q-34.9 -20.75 -34.15 -19.35 L-35.05 -18.9" fill="#1e3437" fill-rule="evenodd" stroke="none"/>
    <path d="M35.9 7.95 L34.95 8.35 32.95 4.9 33.85 4.45 35.9 7.9 35.9 7.95 M-35.9 7.95 L-35.9 7.9 -33.85 4.45 -32.95 4.9 -34.95 8.35 -35.9 7.95" fill="#112020" fill-rule="evenodd" stroke="none"/>
    <path d="M12.7 -7.0 Q12.75 -11.65 16.6 -14.7 20.05 -17.4 25.15 -17.9 30.2 -18.45 34.0 -16.5 38.1 -14.4 38.6 -10.2 L38.75 -6.85 Q38.65 -5.2 37.9 -3.35 37.2 -1.55 35.55 0.05 L32.7 2.15 Q28.6 4.1 23.85 3.5 19.0 2.95 16.1 0.25 13.0 -2.6 12.7 -7.0" fill="url(#gradient5)" fill-rule="evenodd" stroke="none"/>
    <path d="M-34.0 -16.5 Q-30.2 -18.45 -25.15 -17.9 -20.05 -17.4 -16.6 -14.7 -12.75 -11.65 -12.7 -7.0 -13.0 -2.6 -16.1 0.25 -19.0 2.95 -23.85 3.5 -28.6 4.1 -32.7 2.15 L-35.55 0.05 Q-37.2 -1.55 -37.9 -3.35 -38.65 -5.2 -38.75 -6.85 L-38.6 -10.2 Q-38.1 -14.4 -34.0 -16.5" fill="url(#gradient6)" fill-rule="evenodd" stroke="none"/>
    <path d="M0.0 -14.25 Q2.75 -14.2 5.5 -15.35 9.25 -16.55 6.6 -5.45 3.4 -7.75 0.0 -7.65 -3.4 -7.75 -6.6 -5.45 -9.25 -16.55 -5.5 -15.35 -2.75 -14.2 0.0 -14.25" fill="url(#gradient7)" fill-rule="evenodd" stroke="none"/>
    <path d="M50.0 8.8 Q49.45 12.3 44.6 15.5 35.95 21.15 21.0 21.1 L20.9 21.1 Q13.7 21.6 9.75 25.2 L9.8 25.2 Q6.55 28.1 6.6 32.3 6.6 36.25 9.55 39.05 12.7 41.95 17.55 41.75 18.05 41.7 18.4 42.05 18.8 42.4 18.85 42.9 L18.55 43.75 Q18.15 44.15 17.65 44.2 11.7 44.5 7.85 40.85 4.2 37.35 4.1 32.35 4.0 27.1 8.1 23.35 12.6 19.2 20.85 18.65 L20.9 18.65 Q35.1 18.7 43.25 13.4 46.95 10.95 47.55 8.35 47.95 5.8 45.3 3.15 44.95 2.75 45.0 2.25 45.0 1.7 45.35 1.35 45.7 1.0 46.25 1.05 46.75 1.05 47.1 1.4 50.75 5.2 50.0 8.8" fill="url(#gradient8)" fill-rule="evenodd" stroke="none"/>
    <path d="M44.55 4.15 L42.8 3.05 Q42.55 1.8 43.5 0.4 44.55 -1.1 45.9 -1.05 L47.35 0.1 Q46.6 3.15 44.55 4.15" fill="url(#gradient9)" fill-rule="evenodd" stroke="none"/>
    <path d="M45.35 1.75 Q46.0 0.8 46.8 0.85 L47.7 1.6 Q47.35 3.0 46.0 4.0 L44.95 3.35 Q44.75 2.6 45.35 1.75" fill="url(#gradient10)" fill-rule="evenodd" stroke="none"/>
    <path d="M18.7 40.75 L18.7 45.15 17.6 44.05 17.6 41.85 18.7 40.75" fill="url(#gradient11)" fill-rule="evenodd" stroke="none"/>
    <path d="M18.7 45.15 L18.7 40.75 20.9 41.85 20.9 43.5 20.9 44.05 18.7 45.15" fill="url(#gradient12)" fill-rule="evenodd" stroke="none"/>
    <path d="M20.9 44.05 L20.9 43.5 20.9 41.85 22.0 41.85 22.0 42.4 22.0 43.5 22.0 44.05 20.9 44.05" fill="url(#gradient13)" fill-rule="evenodd" stroke="none"/>
    <path d="M22.0 43.5 L22.0 42.4 26.4 42.4 26.4 43.5 22.0 43.5" fill="url(#gradient14)" fill-rule="evenodd" stroke="none"/>
    <path d="M47.3 -5.45 L46.2 -17.55 51.7 -16.45 51.7 -7.65 47.3 -5.45" fill="url(#gradient15)" fill-rule="evenodd" stroke="none"/>
    <path d="M-51.7 -16.45 L-46.2 -17.55 -47.3 -5.45 -51.7 -7.65 -51.7 -16.45" fill="url(#gradient16)" fill-rule="evenodd" stroke="none"/>
  </g>
  <defs>
    <linearGradient gradientTransform="matrix(0.0107, 0.0, 0.0, 0.0076, 0.0, -5.05)" gradientUnits="userSpaceOnUse" id="gradient0" spreadMethod="pad" x1="-819.2" x2="819.2">
      <stop offset="0.0" stop-color="#501b1b"/>
      <stop offset="0.3333333333333333" stop-color="#9c2323"/>
      <stop offset="0.6274509803921569" stop-color="#9c2323"/>
      <stop offset="1.0" stop-color="#501b1b"/>
    </linearGradient>
    <linearGradient gradientTransform="matrix(0.0, -0.0176, 0.0171, 0.0, 26.55, -7.4)" gradientUnits="userSpaceOnUse" id="gradient1" spreadMethod="pad" x1="-819.2" x2="819.2">
      <stop offset="0.0392156862745098" stop-color="#bcaf9e"/>
      <stop offset="0.2" stop-color="#645c53"/>
      <stop offset="0.792156862745098" stop-color="#4f4a46"/>
    </linearGradient>
    <linearGradient gradientTransform="matrix(0.0, -0.0176, -0.0171, 0.0, -26.55, -7.4)" gradientUnits="userSpaceOnUse" id="gradient2" spreadMethod="pad" x1="-819.2" x2="819.2">
      <stop offset="0.0392156862745098" stop-color="#bcaf9e"/>
      <stop offset="0.2" stop-color="#645c53"/>
      <stop offset="0.792156862745098" stop-color="#4f4a46"/>
    </linearGradient>
    <linearGradient gradientTransform="matrix(0.0, -0.0209, 0.0204, 0.0, 26.75, -6.75)" gradientUnits="userSpaceOnUse" id="gradient3" spreadMethod="pad" x1="-819.2" x2="819.2">
      <stop offset="0.0" stop-color="#3f6b6b"/>
      <stop offset="0.07058823529411765" stop-color="#2b4a4a"/>
      <stop offset="0.21176470588235294" stop-color="#254141"/>
      <stop offset="0.6823529411764706" stop-color="#a2c8c4"/>
      <stop offset="1.0" stop-color="#5a767a"/>
    </linearGradient>
    <linearGradient gradientTransform="matrix(0.0, -0.0209, -0.0204, 0.0, -26.75, -6.75)" gradientUnits="userSpaceOnUse" id="gradient4" spreadMethod="pad" x1="-819.2" x2="819.2">
      <stop offset="0.0" stop-color="#3f6b6b"/>
      <stop offset="0.07058823529411765" stop-color="#2b4a4a"/>
      <stop offset="0.21176470588235294" stop-color="#254141"/>
      <stop offset="0.6823529411764706" stop-color="#a2c8c4"/>
      <stop offset="1.0" stop-color="#5a767a"/>
    </linearGradient>
    <radialGradient cx="0" cy="0" fx="-1145.6000000000001" fy="0" gradientTransform="matrix(1.0E-4, -0.0156, 0.0304, 1.0E-4, 25.75, -7.2)" gradientUnits="userSpaceOnUse" id="gradient5" r="819.2" spreadMethod="pad">
      <stop offset="0.10980392156862745" stop-color="#8b1010"/>
      <stop offset="0.3058823529411765" stop-color="#562929"/>
      <stop offset="0.5764705882352941" stop-color="#702c2c"/>
      <stop offset="0.8509803921568627" stop-color="#c62424"/>
      <stop offset="1.0" stop-color="#b63434"/>
    </radialGradient>
    <radialGradient cx="0" cy="0" fx="-1145.6000000000001" fy="0" gradientTransform="matrix(-1.0E-4, -0.0156, -0.0304, 1.0E-4, -25.75, -7.2)" gradientUnits="userSpaceOnUse" id="gradient6" r="819.2" spreadMethod="pad">
      <stop offset="0.10980392156862745" stop-color="#8b1010"/>
      <stop offset="0.3058823529411765" stop-color="#562929"/>
      <stop offset="0.5764705882352941" stop-color="#702c2c"/>
      <stop offset="0.8509803921568627" stop-color="#c62424"/>
      <stop offset="1.0" stop-color="#b63434"/>
    </radialGradient>
    <linearGradient gradientTransform="matrix(2.0E-4, -0.008, 0.0061, 2.0E-4, 0.0, -10.45)" gradientUnits="userSpaceOnUse" id="gradient7" spreadMethod="pad" x1="-819.2" x2="819.2">
      <stop offset="0.09019607843137255" stop-color="#406a63"/>
      <stop offset="0.3607843137254902" stop-color="#6c928d"/>
      <stop offset="0.5098039215686274" stop-color="#a8c8c7"/>
      <stop offset="0.6078431372549019" stop-color="#bdd7d7"/>
      <stop offset="0.6784313725490196" stop-color="#a7cdcf"/>
      <stop offset="0.9490196078431372" stop-color="#679897"/>
    </linearGradient>
    <linearGradient gradientTransform="matrix(-0.0168, 0.0312, -0.0232, -0.0125, 27.45, 22.8)" gradientUnits="userSpaceOnUse" id="gradient8" spreadMethod="pad" x1="-819.2" x2="819.2">
      <stop offset="0.0" stop-color="#e04134"/>
      <stop offset="0.4745098039215686" stop-color="#484848"/>
      <stop offset="0.8980392156862745" stop-color="#989898"/>
    </linearGradient>
    <linearGradient gradientTransform="matrix(0.002, -0.0025, 0.0025, 0.002, 45.1, 1.4)" gradientUnits="userSpaceOnUse" id="gradient9" spreadMethod="pad" x1="-819.2" x2="819.2">
      <stop offset="0.0" stop-color="#2d2313"/>
      <stop offset="0.48627450980392156" stop-color="#baa545"/>
      <stop offset="0.5647058823529412" stop-color="#baa545"/>
      <stop offset="0.9882352941176471" stop-color="#4f3c22"/>
    </linearGradient>
    <linearGradient gradientTransform="matrix(0.0011, -0.0014, 0.0015, 0.0012, 46.25, 2.35)" gradientUnits="userSpaceOnUse" id="gradient10" spreadMethod="pad" x1="-819.2" x2="819.2">
      <stop offset="0.0" stop-color="#2e2e2e"/>
      <stop offset="0.5176470588235295" stop-color="#aaaaaa"/>
      <stop offset="0.6588235294117647" stop-color="#b0b0b0"/>
      <stop offset="1.0" stop-color="#666666"/>
    </linearGradient>
    <linearGradient gradientTransform="matrix(1.0E-4, -0.0027, 0.0027, 0.0, 18.15, 42.95)" gradientUnits="userSpaceOnUse" id="gradient11" spreadMethod="pad" x1="-819.2" x2="819.2">
      <stop offset="0.0" stop-color="#33261a"/>
      <stop offset="0.5058823529411764" stop-color="#7d6b39"/>
      <stop offset="1.0" stop-color="#423120"/>
    </linearGradient>
    <linearGradient gradientTransform="matrix(-1.0E-4, -0.003, 0.0027, -1.0E-4, 19.8, 42.95)" gradientUnits="userSpaceOnUse" id="gradient12" spreadMethod="pad" x1="-819.2" x2="819.2">
      <stop offset="0.0784313725490196" stop-color="#2d1d13"/>
      <stop offset="0.49019607843137253" stop-color="#baae45"/>
      <stop offset="0.9450980392156862" stop-color="#533c1e"/>
    </linearGradient>
    <linearGradient gradientTransform="matrix(-1.0E-4, -0.0013, 0.0013, -1.0E-4, 21.45, 42.95)" gradientUnits="userSpaceOnUse" id="gradient13" spreadMethod="pad" x1="-819.2" x2="819.2">
      <stop offset="0.0" stop-color="#2e2112"/>
      <stop offset="0.4470588235294118" stop-color="#baa545"/>
      <stop offset="0.5647058823529412" stop-color="#baa545"/>
      <stop offset="1.0" stop-color="#503f21"/>
    </linearGradient>
    <linearGradient gradientTransform="matrix(0.0, -7.0E-4, 7.0E-4, 0.0, 23.65, 42.95)" gradientUnits="userSpaceOnUse" id="gradient14" spreadMethod="pad" x1="-819.2" x2="819.2">
      <stop offset="0.0" stop-color="#382b1d"/>
      <stop offset="0.5411764705882353" stop-color="#b79c4f"/>
      <stop offset="1.0" stop-color="#564329"/>
    </linearGradient>
    <linearGradient gradientTransform="matrix(1.0E-4, -0.0079, 0.0074, 1.0E-4, 48.95, -11.5)" gradientUnits="userSpaceOnUse" id="gradient15" spreadMethod="pad" x1="-819.2" x2="819.2">
      <stop offset="0.09019607843137255" stop-color="#406a63"/>
      <stop offset="0.4549019607843137" stop-color="#94b9bb"/>
      <stop offset="0.6392156862745098" stop-color="#a7cdcf"/>
      <stop offset="0.9490196078431372" stop-color="#6d8992"/>
    </linearGradient>
    <linearGradient gradientTransform="matrix(0.0, -0.0079, 0.0074, 0.0, -48.95, -11.5)" gradientUnits="userSpaceOnUse" id="gradient16" spreadMethod="pad" x1="-819.2" x2="819.2">
      <stop offset="0.09019607843137255" stop-color="#406a63"/>
      <stop offset="0.4549019607843137" stop-color="#94b9bb"/>
      <stop offset="0.6392156862745098" stop-color="#a7cdcf"/>
      <stop offset="0.9490196078431372" stop-color="#6d8992"/>
    </linearGradient>
  </defs>
</svg>
