<?xml version="1.0" encoding="UTF-8" standalone="no"?>
<svg xmlns:xlink="http://www.w3.org/1999/xlink" height="91.0px" width="91.0px" xmlns="http://www.w3.org/2000/svg">
  <g transform="matrix(1.0, 0.0, 0.0, 1.0, 45.5, 45.5)">
    <path d="M32.2 -32.15 Q42.1 -22.25 44.65 -9.2 45.5 -4.8 45.5 0.0 45.5 12.3 39.85 22.25 36.8 27.6 32.2 32.25 18.85 45.5 0.0 45.5 -18.9 45.5 -32.2 32.25 -45.5 18.9 -45.5 0.0 -45.5 -18.85 -32.2 -32.15 -18.9 -45.5 0.0 -45.5 18.85 -45.5 32.2 -32.15" fill="#000000" fill-rule="evenodd" stroke="none"/>
    <path d="M28.25 -28.3 Q40.0 -16.55 40.0 0.0 40.0 16.55 28.25 28.25 16.55 40.0 0.0 40.0 -16.55 40.0 -28.3 28.25 -40.0 16.55 -40.0 0.0 -40.0 -16.55 -28.3 -28.3 -16.55 -40.0 0.0 -40.0 16.55 -40.0 28.25 -28.3" fill="url(#gradient0)" fill-rule="evenodd" stroke="none"/>
    <path d="M-8.4 27.6 L-7.45 27.85 -7.75 29.0 -8.7 28.75 -8.4 27.6" fill="url(#gradient1)" fill-rule="evenodd" stroke="none"/>
    <path d="M-0.5 28.75 L0.0 28.75 0.5 28.75 0.5 30.0 -0.5 30.0 -0.5 28.75" fill="url(#gradient2)" fill-rule="evenodd" stroke="none"/>
    <path d="M6.9 28.0 L7.85 27.75 8.2 29.0 7.25 29.25 6.9 28.0" fill="url(#gradient3)" fill-rule="evenodd" stroke="none"/>
    <path d="M4.95 20.55 L6.55 26.55 0.5 27.25 0.5 20.75 4.95 20.55 M10.55 19.7 L13.05 24.05 Q10.4 25.5 7.5 26.3 L5.95 20.45 10.55 19.7 M13.9 23.55 L11.6 19.5 16.55 17.95 18.6 20.0 Q16.35 22.05 13.9 23.55 M19.3 19.3 L17.55 17.55 Q20.4 16.4 22.95 14.8 21.4 17.15 19.3 19.3 M-0.5 20.75 L-0.5 27.25 Q-3.95 27.2 -7.05 26.4 L-5.5 20.5 -0.5 20.75 M-6.5 20.4 L-8.0 26.15 Q-14.3 24.25 -19.25 19.3 -21.35 17.2 -22.9 14.85 -15.8 19.25 -6.5 20.4" fill="url(#gradient4)" fill-rule="evenodd" stroke="none"/>
    <path d="M-8.4 27.6 Q-15.05 25.6 -20.3 20.35 -23.75 16.9 -25.8 12.85 L-27.2 9.55 Q-28.75 5.1 -28.75 0.0 -28.75 -5.1 -27.2 -9.55 L-25.8 -12.85 Q-23.75 -16.9 -20.3 -20.3 -11.9 -28.75 0.0 -28.75 11.9 -28.75 20.35 -20.3 23.8 -16.85 25.85 -12.8 L27.25 -9.5 Q28.75 -5.05 28.75 0.0 28.75 5.1 27.2 9.55 L25.85 12.8 Q23.8 16.85 20.35 20.35 L19.65 21.05 Q17.25 23.25 14.65 24.85 L13.8 25.35 Q10.95 26.85 7.85 27.75 L6.9 28.0 0.5 28.75 0.0 28.75 -0.5 28.75 Q-4.15 28.7 -7.45 27.85 L-8.4 27.6 M24.65 -11.8 L22.95 -14.8 19.3 -19.25 Q11.3 -27.25 0.0 -27.25 -11.3 -27.25 -19.25 -19.25 -21.35 -17.2 -22.9 -14.85 L-24.6 -11.85 Q-27.25 -6.5 -27.25 0.0 -27.25 6.5 -24.6 11.9 L-22.25 13.55 Q-13.0 19.25 0.0 19.25 L9.8 18.35 10.8 18.15 15.4 16.8 16.45 16.45 Q19.5 15.2 22.2 13.55 L24.65 11.85 Q27.25 6.45 27.25 0.0 27.25 -6.45 24.65 -11.8 M4.95 20.55 L0.5 20.75 0.5 27.25 6.55 26.55 4.95 20.55 M19.3 19.3 Q21.4 17.15 22.95 14.8 20.4 16.4 17.55 17.55 L19.3 19.3 M13.9 23.55 Q16.35 22.05 18.6 20.0 L16.55 17.95 11.6 19.5 13.9 23.55 M10.55 19.7 L5.95 20.45 7.5 26.3 Q10.4 25.5 13.05 24.05 L10.55 19.7 M-0.5 20.75 L-5.5 20.5 -7.05 26.4 Q-3.95 27.2 -0.5 27.25 L-0.5 20.75 M-6.5 20.4 Q-15.8 19.25 -22.9 14.85 -21.35 17.2 -19.25 19.3 -14.3 24.25 -8.0 26.15 L-6.5 20.4" fill="url(#gradient5)" fill-rule="evenodd" stroke="none"/>
    <path d="M0.65 0.25 Q3.3 2.4 4.5 5.65 5.65 8.7 4.95 10.4 L4.5 10.9 Q3.5 11.7 1.6 9.45 L1.55 9.4 1.5 9.35 Q0.6 8.2 0.0 8.05 -0.6 8.2 -1.5 9.35 L-1.55 9.4 -1.55 9.45 Q-3.5 11.7 -4.5 10.9 L-4.95 10.4 -4.9 10.4 Q-5.65 8.7 -4.5 5.65 -3.3 2.4 -0.65 0.25 -0.4 0.0 0.0 0.0 L0.05 0.0 Q0.4 0.0 0.65 0.25" fill="url(#gradient6)" fill-rule="evenodd" stroke="none"/>
    <path d="M5.85 -12.15 Q7.95 -14.3 11.0 -14.3 14.0 -14.3 16.15 -12.15 18.3 -10.0 18.3 -7.0 18.3 -4.05 16.3 -2.0 L16.25 -1.95 16.15 -1.85 Q14.0 0.3 11.0 0.3 7.95 0.3 5.85 -1.85 3.7 -3.95 3.7 -7.0 3.7 -10.0 5.85 -12.15" fill="url(#gradient7)" fill-rule="evenodd" stroke="none"/>
    <path d="M3.55 6.0 Q4.55 8.6 4.0 10.0 3.55 10.25 2.3 8.75 0.95 7.05 0.0 7.0 -0.95 7.05 -2.3 8.75 -3.55 10.25 -4.0 10.0 -4.55 8.6 -3.55 6.0 -2.45 3.0 0.0 1.0 2.45 3.0 3.55 6.0" fill="url(#gradient8)" fill-rule="evenodd" stroke="none"/>
    <path d="M4.7 -7.0 Q4.7 -9.6 6.55 -11.45 8.35 -13.3 11.0 -13.3 13.6 -13.3 15.45 -11.45 17.3 -9.6 17.3 -7.0 17.3 -4.35 15.45 -2.55 13.6 -0.7 11.0 -0.7 8.35 -0.7 6.55 -2.55 4.7 -4.35 4.7 -7.0" fill="url(#gradient9)" fill-rule="evenodd" stroke="none"/>
    <path d="M29.8 -19.8 Q21.6 -28.0 10.0 -28.0 -1.6 -28.0 -9.8 -19.8 -18.0 -11.6 -18.0 0.0 -18.0 11.6 -9.8 19.8 -1.6 28.0 10.0 28.0 21.6 28.0 29.8 19.8 37.0 12.65 37.9 2.85 37.0 16.75 26.85 26.85 15.75 38.0 0.0 38.0 -15.75 38.0 -26.9 26.85 -38.0 15.75 -38.0 0.0 -38.0 -15.75 -26.9 -26.9 -15.75 -38.0 0.0 -38.0 15.75 -38.0 26.85 -26.9 37.0 -16.75 37.9 -2.85 37.0 -12.6 29.8 -19.8" fill="url(#gradient10)" fill-rule="evenodd" stroke="none"/>
    <path d="M10.0 -28.5 Q21.8 -28.5 30.15 -20.15 38.5 -11.8 38.5 0.0 38.5 11.8 30.15 20.15 21.8 28.5 10.0 28.5 -1.8 28.5 -10.15 20.15 -18.5 11.8 -18.5 0.0 -18.5 -11.8 -10.15 -20.15 -1.8 -28.5 10.0 -28.5 M29.45 -19.45 Q21.4 -27.5 10.0 -27.5 -1.4 -27.5 -9.45 -19.45 -17.5 -11.4 -17.5 0.0 -17.5 11.4 -9.45 19.45 -1.4 27.5 10.0 27.5 21.4 27.5 29.45 19.45 37.5 11.4 37.5 0.0 37.5 -11.4 29.45 -19.45" fill="url(#gradient11)" fill-rule="evenodd" stroke="none"/>
    <path d="M30.4 -30.4 Q39.8 -21.0 42.2 -8.75 43.0 -4.55 43.0 0.0 43.0 11.65 37.65 21.05 34.8 26.05 30.4 30.45 17.8 43.0 0.0 43.0 -17.85 43.0 -30.45 30.45 -43.0 17.85 -43.0 0.0 -43.0 -17.8 -30.45 -30.4 -17.85 -43.0 0.0 -43.0 17.8 -43.0 30.4 -30.4 M27.95 -27.95 Q16.4 -39.55 0.0 -39.55 -16.4 -39.55 -28.0 -27.95 -39.55 -16.4 -39.55 0.0 -39.55 16.4 -28.0 28.0 -16.4 39.55 0.0 39.55 16.4 39.55 27.95 28.0 32.0 23.95 34.65 19.35 39.55 10.7 39.55 0.0 39.55 -4.2 38.8 -8.05 36.6 -19.3 27.95 -27.95" fill="url(#gradient12)" fill-rule="evenodd" stroke="none"/>
    <path d="M27.95 -27.95 Q36.6 -19.3 38.8 -8.05 39.55 -4.2 39.55 0.0 39.55 10.7 34.65 19.35 32.0 23.95 27.95 28.0 16.4 39.55 0.0 39.55 -16.4 39.55 -28.0 28.0 -39.55 16.4 -39.55 0.0 -39.55 -16.4 -28.0 -27.95 -16.4 -39.55 0.0 -39.55 16.4 -39.55 27.95 -27.95 M26.55 -26.55 Q15.6 -37.55 0.0 -37.55 -15.6 -37.55 -26.6 -26.55 -37.55 -15.6 -37.55 0.0 -37.55 15.6 -26.6 26.6 -15.6 37.55 0.0 37.55 15.6 37.55 26.55 26.6 30.4 22.75 32.9 18.4 37.55 10.15 37.55 0.0 37.55 -4.0 36.85 -7.65 34.75 -18.35 26.55 -26.55" fill="url(#gradient13)" fill-rule="evenodd" stroke="none"/>
  </g>
  <defs>
    <linearGradient gradientTransform="matrix(-0.0027, -0.0359, 0.0353, -0.0026, -9.5, 0.9)" gradientUnits="userSpaceOnUse" id="gradient0" spreadMethod="pad" x1="-819.2" x2="819.2">
      <stop offset="0.23137254901960785" stop-color="#aaaaaa"/>
      <stop offset="1.0" stop-color="#bbbbbb"/>
    </linearGradient>
    <linearGradient gradientTransform="matrix(-0.0012, 0.0055, -0.0059, -0.0013, -6.55, 21.2)" gradientUnits="userSpaceOnUse" id="gradient1" spreadMethod="pad" x1="-819.2" x2="819.2">
      <stop offset="0.36470588235294116" stop-color="#636363"/>
      <stop offset="1.0" stop-color="#c2c2c2"/>
    </linearGradient>
    <linearGradient gradientTransform="matrix(3.0E-4, 0.0064, -0.0061, 4.0E-4, 0.5, 23.85)" gradientUnits="userSpaceOnUse" id="gradient2" spreadMethod="pad" x1="-819.2" x2="819.2">
      <stop offset="0.36470588235294116" stop-color="#636363"/>
      <stop offset="1.0" stop-color="#c2c2c2"/>
    </linearGradient>
    <linearGradient gradientTransform="matrix(0.001, 0.0047, -0.0059, 0.0013, 6.45, 24.25)" gradientUnits="userSpaceOnUse" id="gradient3" spreadMethod="pad" x1="-819.2" x2="819.2">
      <stop offset="0.36470588235294116" stop-color="#636363"/>
      <stop offset="1.0" stop-color="#a6a6a6"/>
    </linearGradient>
    <radialGradient cx="0" cy="0" gradientTransform="matrix(0.0349, 0.0, 0.0, 0.0349, -0.1, 0.15)" gradientUnits="userSpaceOnUse" id="gradient4" r="819.2" spreadMethod="pad">
      <stop offset="0.5764705882352941" stop-color="#a6a6a6"/>
      <stop offset="1.0" stop-color="#b8b8b8"/>
    </radialGradient>
    <linearGradient gradientTransform="matrix(0.0, 0.0348, -0.0348, 0.0, -3.6, 1.1)" gradientUnits="userSpaceOnUse" id="gradient5" spreadMethod="pad" x1="-819.2" x2="819.2">
      <stop offset="0.0" stop-color="#989898"/>
      <stop offset="1.0" stop-color="#9b9b9b"/>
    </linearGradient>
    <linearGradient gradientTransform="matrix(1.0E-4, 0.0057, -0.0061, 1.0E-4, 0.05, 5.55)" gradientUnits="userSpaceOnUse" id="gradient6" spreadMethod="pad" x1="-819.2" x2="819.2">
      <stop offset="0.3607843137254902" stop-color="#8a8a8a"/>
      <stop offset="0.8980392156862745" stop-color="#c2c2c2"/>
    </linearGradient>
    <linearGradient gradientTransform="matrix(0.0, 0.0083, -0.0083, 0.0, 11.0, -7.0)" gradientUnits="userSpaceOnUse" id="gradient7" spreadMethod="pad" x1="-819.2" x2="819.2">
      <stop offset="0.27450980392156865" stop-color="#868686"/>
      <stop offset="1.0" stop-color="#c2c2c2"/>
    </linearGradient>
    <linearGradient gradientTransform="matrix(0.0, 0.0051, -0.0055, 0.0, 0.0, 5.5)" gradientUnits="userSpaceOnUse" id="gradient8" spreadMethod="pad" x1="-819.2" x2="819.2">
      <stop offset="0.0" stop-color="#9f9f9f"/>
      <stop offset="1.0" stop-color="#9f9f9f"/>
    </linearGradient>
    <linearGradient gradientTransform="matrix(0.0, 0.0077, -0.0077, 0.0, 11.0, -7.0)" gradientUnits="userSpaceOnUse" id="gradient9" spreadMethod="pad" x1="-819.2" x2="819.2">
      <stop offset="0.0" stop-color="#aaaaaa"/>
      <stop offset="1.0" stop-color="#a6a6a6"/>
    </linearGradient>
    <linearGradient gradientTransform="matrix(0.0114, 0.0454, -0.0451, 0.0113, -0.4, 0.0)" gradientUnits="userSpaceOnUse" id="gradient10" spreadMethod="pad" x1="-819.2" x2="819.2">
      <stop offset="0.0" stop-color="#d8d8d8"/>
      <stop offset="0.8862745098039215" stop-color="#aaaaaa"/>
      <stop offset="1.0" stop-color="#bfb6aa"/>
    </linearGradient>
    <linearGradient gradientTransform="matrix(0.0145, 0.0316, -0.0316, 0.0145, 10.0, 0.0)" gradientUnits="userSpaceOnUse" id="gradient11" spreadMethod="pad" x1="-819.2" x2="819.2">
      <stop offset="0.0" stop-color="#7b7b7b"/>
      <stop offset="0.25098039215686274" stop-color="#9b9b9b"/>
      <stop offset="0.34509803921568627" stop-color="#9f9f9f"/>
      <stop offset="0.615686274509804" stop-color="#959595"/>
      <stop offset="1.0" stop-color="#d5d5d5"/>
    </linearGradient>
    <linearGradient gradientTransform="matrix(0.0155, 0.0513, -0.0502, 0.0152, 0.0, 0.0)" gradientUnits="userSpaceOnUse" id="gradient12" spreadMethod="pad" x1="-819.2" x2="819.2">
      <stop offset="0.0392156862745098" stop-color="#e6e6e6"/>
      <stop offset="0.8823529411764706" stop-color="#868686"/>
      <stop offset="1.0" stop-color="#aca093"/>
    </linearGradient>
    <linearGradient gradientTransform="matrix(0.0, 0.0483, -0.0483, 0.0, 0.0, 0.0)" gradientUnits="userSpaceOnUse" id="gradient13" spreadMethod="pad" x1="-819.2" x2="819.2">
      <stop offset="0.0" stop-color="#9b9b9b"/>
      <stop offset="1.0" stop-color="#cacaca"/>
    </linearGradient>
  </defs>
</svg>
