<?xml version="1.0" encoding="UTF-8" standalone="no"?>
<svg xmlns:xlink="http://www.w3.org/1999/xlink" height="198.0px" width="371.0px" xmlns="http://www.w3.org/2000/svg">
  <g transform="matrix(1.0, 0.0, 0.0, 1.0, 3.0, 15.0)">
    <path d="M56.0 -12.0 L56.0 -3.0 365.0 -3.0 Q368.0 -3.0 368.0 0.0 L368.0 180.0 Q368.0 183.0 365.0 183.0 L0.0 183.0 Q-3.0 183.0 -3.0 180.0 L-3.0 -12.0 Q-3.0 -15.0 0.0 -15.0 L53.0 -15.0 Q56.0 -15.0 56.0 -12.0 M363.0 1.0 L2.0 1.0 Q1.0 1.0 1.0 2.0 L1.0 178.0 Q1.0 179.0 2.0 179.0 L363.0 179.0 Q364.0 179.0 364.0 178.0 L364.0 2.0 Q364.0 1.0 363.0 1.0" fill="#000000" fill-rule="evenodd" stroke="none"/>
    <path d="M365.0 2.0 Q365.0 0.0 363.0 0.0 L2.0 0.0 Q0.0 0.0 0.0 2.0 L0.0 178.0 Q0.0 180.0 2.0 180.0 L363.0 180.0 Q365.0 180.0 365.0 178.0 L365.0 2.0 M55.0 -12.0 L55.0 -2.0 365.0 -2.0 Q367.0 -2.0 367.0 0.0 L367.0 180.0 Q367.0 182.0 365.0 182.0 L0.0 182.0 Q-2.0 182.0 -2.0 180.0 L-2.0 -12.0 Q-2.0 -14.0 0.0 -14.0 L53.0 -14.0 Q55.0 -14.0 55.0 -12.0" fill="#00ff00" fill-rule="evenodd" stroke="none"/>
  </g>
</svg>
