<?xml version="1.0" encoding="UTF-8" standalone="no"?>
<svg xmlns:xlink="http://www.w3.org/1999/xlink" height="89.0px" width="169.0px" xmlns="http://www.w3.org/2000/svg">
  <g transform="matrix(1.0, 0.0, 0.0, 1.0, 3.0, 15.0)">
    <path d="M49.0 -12.0 L49.0 -3.0 163.0 -3.0 Q166.0 -3.0 166.0 0.0 L166.0 71.0 Q166.0 74.0 163.0 74.0 L0.0 74.0 Q-3.0 74.0 -3.0 71.0 L-3.0 -12.0 Q-3.0 -15.0 0.0 -15.0 L46.0 -15.0 Q49.0 -15.0 49.0 -12.0 M162.0 2.0 Q162.0 1.0 161.0 1.0 L2.0 1.0 Q1.0 1.0 1.0 2.0 L1.0 69.0 Q1.0 70.0 2.0 70.0 L161.0 70.0 Q162.0 70.0 162.0 69.0 L162.0 2.0" fill="#000000" fill-rule="evenodd" stroke="none"/>
    <path d="M48.0 -12.0 L48.0 -2.0 163.0 -2.0 Q165.0 -2.0 165.0 0.0 L165.0 71.0 Q165.0 73.0 163.0 73.0 L0.0 73.0 Q-2.0 73.0 -2.0 71.0 L-2.0 -12.0 Q-2.0 -14.0 0.0 -14.0 L46.0 -14.0 Q48.0 -14.0 48.0 -12.0 M163.0 2.0 Q163.0 0.0 161.0 0.0 L2.0 0.0 Q0.0 0.0 0.0 2.0 L0.0 69.0 Q0.0 71.0 2.0 71.0 L161.0 71.0 Q163.0 71.0 163.0 69.0 L163.0 2.0" fill="#00ff00" fill-rule="evenodd" stroke="none"/>
  </g>
</svg>
