<?xml version="1.0" encoding="UTF-8" standalone="no"?>
<svg xmlns:xlink="http://www.w3.org/1999/xlink" height="84.0px" width="168.0px" xmlns="http://www.w3.org/2000/svg">
  <g transform="matrix(1.0, 0.0, 0.0, 1.0, 3.0, 15.0)">
    <path d="M49.0 -12.0 L49.0 -3.0 162.0 -3.0 Q165.0 -3.0 165.0 0.0 L165.0 66.0 Q165.0 69.0 162.0 69.0 L0.0 69.0 Q-3.0 69.0 -3.0 66.0 L-3.0 -12.0 Q-3.0 -15.0 0.0 -15.0 L46.0 -15.0 Q49.0 -15.0 49.0 -12.0 M160.0 1.0 L2.0 1.0 Q1.0 1.0 1.0 2.0 L1.0 64.0 Q1.0 65.0 2.0 65.0 L160.0 65.0 Q161.0 65.0 161.0 64.0 L161.0 2.0 Q161.0 1.0 160.0 1.0" fill="#000000" fill-rule="evenodd" stroke="none"/>
    <path d="M48.0 -12.0 L48.0 -2.0 162.0 -2.0 Q164.0 -2.0 164.0 0.0 L164.0 66.0 Q164.0 68.0 162.0 68.0 L0.0 68.0 Q-2.0 68.0 -2.0 66.0 L-2.0 -12.0 Q-2.0 -14.0 0.0 -14.0 L46.0 -14.0 Q48.0 -14.0 48.0 -12.0 M162.0 2.0 Q162.0 0.0 160.0 0.0 L2.0 0.0 Q0.0 0.0 0.0 2.0 L0.0 64.0 Q0.0 66.0 2.0 66.0 L160.0 66.0 Q162.0 66.0 162.0 64.0 L162.0 2.0" fill="#00ff00" fill-rule="evenodd" stroke="none"/>
  </g>
</svg>
