<?xml version="1.0" encoding="UTF-8" standalone="no"?>
<svg xmlns:xlink="http://www.w3.org/1999/xlink" height="160.0px" width="408.0px" xmlns="http://www.w3.org/2000/svg">
  <g transform="matrix(1.0, 0.0, 0.0, 1.0, 0.0, 0.0)">
    <path d="M408.0 9.0 L384.25 11.5 350.8 9.0 299.2 7.5 285.45 9.75 272.0 9.0 232.65 7.75 216.7 7.75 191.05 9.0 143.05 9.0 101.95 10.65 72.95 9.0 37.95 11.5 0.0 9.0 0.0 1.0 38.6 0.0 72.65 1.0 101.5 1.0 143.9 0.0 191.4 1.0 217.0 2.0 232.6 1.5 272.0 1.0 285.25 1.0 297.3 1.0 351.35 0.5 408.0 1.0 408.0 9.0 M408.0 78.0 L380.0 78.0 348.15 79.5 303.45 78.0 285.3 78.25 272.0 78.0 235.4 78.0 213.95 76.75 188.3 78.0 140.3 78.0 103.2 78.0 75.6 78.0 31.95 78.0 0.0 78.0 0.0 70.0 32.6 70.0 74.8 68.25 103.05 70.0 140.85 71.75 188.6 70.0 214.25 69.0 235.1 70.0 272.0 70.0 285.85 68.75 302.85 70.0 348.2 73.75 380.3 70.0 408.0 70.0 408.0 78.0 M408.0 62.0 L380.65 62.0 349.75 64.0 302.2 62.0 284.85 62.0 272.0 62.0 235.55 63.5 215.35 64.0 188.95 62.0 141.45 59.75 102.85 62.0 75.0 61.25 33.3 62.0 0.0 62.0 0.0 38.0 33.4 36.5 74.05 38.0 102.3 39.75 142.4 40.5 189.9 38.0 216.3 36.5 234.3 37.25 271.5 38.75 285.65 39.5 300.5 39.75 350.2 37.75 382.1 40.0 408.0 38.0 408.0 62.0 M380.1 83.0 L408.0 81.0 408.0 160.0 0.0 160.0 0.0 81.0 31.65 81.0 75.95 80.25 103.25 80.25 140.7 81.5 188.45 83.25 213.85 81.75 235.55 81.0 272.0 83.5 285.05 83.25 303.7 81.0 348.25 84.25 380.1 83.0" fill="#ddf5f7" fill-rule="evenodd" stroke="none"/>
  </g>
</svg>
