<?xml version="1.0" encoding="UTF-8" standalone="no"?>
<svg xmlns:xlink="http://www.w3.org/1999/xlink" height="16.65px" width="15.05px" xmlns="http://www.w3.org/2000/svg">
  <g transform="matrix(1.0, 0.0, 0.0, 1.0, -97.05, -215.65)">
    <path d="M110.9 219.55 L110.8 217.8 Q110.65 217.3 110.05 217.25 L107.85 217.2 106.25 217.2 106.25 220.45 106.25 227.1 Q106.25 229.9 106.4 230.75 L106.8 231.2 108.15 231.3 108.3 231.4 108.3 232.2 108.15 232.3 104.55 232.25 100.95 232.3 100.85 232.2 100.85 231.4 100.95 231.3 102.35 231.2 102.75 230.75 102.9 227.1 102.9 220.45 102.85 217.2 101.15 217.2 98.7 217.35 98.45 217.5 98.3 218.25 98.2 219.55 98.05 219.65 97.3 219.65 97.2 219.55 97.15 217.55 97.05 215.8 97.15 215.65 102.2 215.8 106.9 215.8 111.95 215.65 112.1 215.8 Q111.95 216.65 111.95 217.6 L111.9 219.55 111.8 219.65 111.05 219.65 110.9 219.55" fill="#ffffff" fill-rule="evenodd" stroke="none"/>
  </g>
</svg>
