<?xml version="1.0" encoding="UTF-8" standalone="no"?>
<svg xmlns:xlink="http://www.w3.org/1999/xlink" height="16.95px" width="3.7px" xmlns="http://www.w3.org/2000/svg">
  <g transform="matrix(1.0, 0.0, 0.0, 1.0, -114.85, -215.65)">
    <path d="M114.95 217.25 L114.95 216.75 Q115.2 216.55 117.35 215.65 L118.55 215.7 118.55 216.15 118.3 218.85 117.2 227.0 116.3 227.5 116.2 227.4 115.95 225.4 115.45 221.8 Q114.95 218.3 114.95 217.25 M114.85 230.75 Q114.85 230.0 115.4 229.45 115.95 228.9 116.7 228.9 117.45 228.9 118.0 229.45 118.5 230.0 118.5 230.75 118.5 231.5 118.0 232.05 117.45 232.6 116.7 232.6 115.95 232.6 115.4 232.05 114.85 231.55 114.85 230.75" fill="#ffffff" fill-rule="evenodd" stroke="none"/>
  </g>
</svg>
