<?xml version="1.0" encoding="UTF-8" standalone="no"?>
<svg xmlns:xlink="http://www.w3.org/1999/xlink" height="268.0px" width="176.0px" xmlns="http://www.w3.org/2000/svg">
  <g transform="matrix(1.0, 0.0, 0.0, 1.0, -1.05, 9.0)">
    <path d="M1.05 -7.0 Q1.05 -9.0 3.05 -9.0 L175.05 -9.0 Q177.05 -9.0 177.05 -7.0 L177.05 257.0 Q177.05 259.0 175.05 259.0 L3.05 259.0 Q1.05 259.0 1.05 257.0 L1.05 -7.0 M173.05 2.0 L5.05 2.0 Q3.05 2.0 3.05 4.0 L3.05 244.0 Q3.05 246.0 5.05 246.0 L173.05 246.0 Q175.05 246.0 175.05 244.0 L175.05 4.0 Q175.05 2.0 173.05 2.0" fill="#ffffff" fill-rule="evenodd" stroke="none"/>
  </g>
</svg>
