<?xml version="1.0" encoding="UTF-8" standalone="no"?>
<svg xmlns:xlink="http://www.w3.org/1999/xlink" height="97.0px" width="361.0px" xmlns="http://www.w3.org/2000/svg">
  <g transform="matrix(1.0, 0.0, 0.0, 1.0, 3.0, 15.0)">
    <path d="M49.0 -12.0 L49.0 -3.0 355.0 -3.0 Q358.0 -3.0 358.0 0.0 L358.0 79.0 Q358.0 82.0 355.0 82.0 L0.0 82.0 Q-3.0 82.0 -3.0 79.0 L-3.0 -12.0 Q-3.0 -15.0 0.0 -15.0 L46.0 -15.0 Q49.0 -15.0 49.0 -12.0 M353.0 1.0 L2.0 1.0 Q1.0 1.0 1.0 2.0 L1.0 77.0 Q1.0 78.0 2.0 78.0 L353.0 78.0 Q354.0 78.0 354.0 77.0 L354.0 2.0 Q354.0 1.0 353.0 1.0" fill="#000000" fill-rule="evenodd" stroke="none"/>
    <path d="M355.0 2.0 Q355.0 0.0 353.0 0.0 L2.0 0.0 Q0.0 0.0 0.0 2.0 L0.0 77.0 Q0.0 79.0 2.0 79.0 L353.0 79.0 Q355.0 79.0 355.0 77.0 L355.0 2.0 M48.0 -12.0 L48.0 -2.0 355.0 -2.0 Q357.0 -2.0 357.0 0.0 L357.0 79.0 Q357.0 81.0 355.0 81.0 L0.0 81.0 Q-2.0 81.0 -2.0 79.0 L-2.0 -12.0 Q-2.0 -14.0 0.0 -14.0 L46.0 -14.0 Q48.0 -14.0 48.0 -12.0" fill="#00ff00" fill-rule="evenodd" stroke="none"/>
  </g>
</svg>
