<?xml version="1.0" encoding="UTF-8" standalone="no"?>
<svg xmlns:xlink="http://www.w3.org/1999/xlink" height="83.0px" width="65.0px" xmlns="http://www.w3.org/2000/svg">
  <g transform="matrix(1.0, 0.0, 0.0, 1.0, 38.5, 35.5)">
    <path d="M26.5 -33.0 L26.5 35.0 Q26.5 36.05 25.8 36.8 L15.8 46.8 Q15.05 47.5 14.0 47.5 L-35.0 47.5 Q-36.05 47.5 -36.75 46.8 -37.5 46.05 -37.5 45.0 L-37.5 17.05 -37.75 16.8 Q-38.5 16.05 -38.5 15.0 L-38.5 1.0 -38.25 -0.05 -37.55 -0.95 -37.5 -1.0 -37.5 -23.0 Q-37.5 -24.05 -36.75 -24.75 L-34.75 -26.75 Q-34.05 -27.5 -33.0 -27.5 L-32.05 -27.5 -29.5 -30.05 -29.5 -31.0 Q-29.5 -32.05 -28.75 -32.75 L-26.75 -34.75 Q-26.05 -35.5 -25.0 -35.5 L24.0 -35.5 Q25.05 -35.5 25.8 -34.75 26.5 -34.05 26.5 -33.0" fill="#000000" fill-rule="evenodd" stroke="none"/>
    <path d="M-27.0 -25.0 L-27.0 -31.0 -25.0 -33.0 -25.0 35.0 -27.0 37.0 -27.0 -25.0 M-35.0 45.0 L-35.0 -23.0 -33.0 -25.0 -33.0 43.0 -35.0 45.0" fill="url(#gradient0)" fill-rule="evenodd" stroke="none"/>
    <path d="M24.0 35.0 L14.0 45.0 -35.0 45.0 -33.0 43.0 13.0 43.0 19.0 37.0 13.0 37.0 -27.0 37.0 -25.0 35.0 24.0 35.0" fill="#1b2a30" fill-rule="evenodd" stroke="none"/>
    <path d="M-33.0 -25.0 L-27.0 -25.0 -27.0 37.0 13.0 37.0 13.0 43.0 -33.0 43.0 -33.0 -25.0" fill="url(#gradient1)" fill-rule="evenodd" stroke="none"/>
    <path d="M13.0 43.0 L13.0 37.0 19.0 37.0 13.0 43.0" fill="url(#gradient2)" fill-rule="evenodd" stroke="none"/>
    <path d="M-25.0 -33.0 L24.0 -33.0 24.0 35.0 -25.0 35.0 -25.0 -33.0" fill="url(#gradient3)" fill-rule="evenodd" stroke="none"/>
    <path d="M-27.0 37.0 L18.0 37.0 13.0 42.0 -32.0 42.0 -27.0 37.0" fill="url(#gradient4)" fill-rule="evenodd" stroke="none"/>
    <path d="M-32.0 42.0 L-32.0 -24.0 -27.0 -29.0 -27.0 37.0 -32.0 42.0" fill="url(#gradient5)" fill-rule="evenodd" stroke="none"/>
    <path d="M-27.0 37.0 L19.0 37.0 16.0 39.0 -29.0 39.0 -27.0 37.0" fill="#000000" fill-opacity="0.15294118" fill-rule="evenodd" stroke="none"/>
    <path d="M-29.0 39.0 L-29.0 -27.0 -27.0 -29.0 -27.0 37.0 -29.0 39.0" fill="#000000" fill-opacity="0.2" fill-rule="evenodd" stroke="none"/>
    <path d="M11.0 -33.0 L24.0 -33.0 24.0 -20.0 22.0 -20.0 Q21.6 -20.0 21.3 -20.3 21.0 -20.6 21.0 -21.0 L21.0 -23.6 19.6 -25.0 17.0 -25.0 Q16.6 -25.0 16.3 -25.3 16.0 -25.6 16.0 -26.0 L16.0 -28.6 14.6 -30.0 12.0 -30.0 Q11.6 -30.0 11.3 -30.3 11.0 -30.6 11.0 -31.0 L11.0 -33.0 M21.3 22.3 Q21.6 22.0 22.0 22.0 L24.0 22.0 24.0 35.0 22.0 37.0 9.0 37.0 Q9.0 36.6 9.3 36.3 L11.0 34.6 11.0 33.0 Q11.0 32.6 11.3 32.3 11.6 32.0 12.0 32.0 L14.6 32.0 16.0 30.6 16.0 28.0 Q16.0 27.6 16.3 27.3 16.6 27.0 17.0 27.0 L19.6 27.0 21.0 25.6 21.0 23.0 Q21.0 22.6 21.3 22.3 M19.8 30.7 L19.7 30.8 19.85 30.85 19.8 30.7 M1.3 44.3 L2.6 43.0 16.0 43.0 14.0 45.0 1.0 45.0 Q1.0 44.6 1.3 44.3 M-12.0 -31.0 Q-12.0 -30.6 -12.3 -30.3 -12.6 -30.0 -13.0 -30.0 L-15.6 -30.0 -17.0 -28.6 -17.0 -26.0 Q-17.0 -25.6 -17.3 -25.3 -17.6 -25.0 -18.0 -25.0 L-20.6 -25.0 -22.0 -23.6 -22.0 -21.0 Q-22.0 -20.6 -22.3 -20.3 -22.6 -20.0 -23.0 -20.0 L-24.6 -20.0 -26.3 -18.3 Q-26.6 -18.0 -27.0 -18.0 L-27.0 -31.0 -25.0 -33.0 -12.0 -33.0 -12.0 -31.0 M-35.0 -10.0 L-35.0 -23.0 -33.0 -25.0 -33.0 -11.6 -34.3 -10.3 Q-34.6 -10.0 -35.0 -10.0 M-26.0 -8.0 L-17.0 -8.0 Q-16.6 -8.0 -16.3 -7.7 -16.0 -7.4 -16.0 -7.0 L-16.0 -4.9 Q-14.55 -4.65 -13.5 -3.55 -12.0 -2.05 -12.0 0.0 L-12.0 0.5 -12.0 1.0 Q-12.0 3.05 -13.45 4.5 L-13.5 4.55 Q-14.6 5.65 -16.0 5.9 L-16.0 8.0 Q-16.0 8.4 -16.3 8.7 -16.6 9.0 -17.0 9.0 L-24.65 9.0 -27.0 10.9 -27.0 12.35 -32.0 16.35 -33.0 15.7 -34.35 16.8 -35.0 17.0 -35.0 -1.05 -26.6 -7.75 -26.0 -8.0 M-22.3 22.3 Q-22.0 22.6 -22.0 23.0 L-22.0 25.6 -20.6 27.0 -18.0 27.0 Q-17.6 27.0 -17.3 27.3 -17.0 27.6 -17.0 28.0 L-17.0 30.6 -15.6 32.0 -13.0 32.0 Q-12.6 32.0 -12.3 32.3 -12.0 32.6 -12.0 33.0 L-12.0 35.0 Q-12.0 35.4 -12.3 35.7 L-13.6 37.0 -27.0 37.0 -27.0 23.6 -25.7 22.3 Q-25.4 22.0 -25.0 22.0 L-23.0 22.0 Q-22.6 22.0 -22.3 22.3 M-33.7 30.3 Q-33.4 30.0 -33.0 30.0 L-33.0 43.0 -20.0 43.0 Q-20.0 43.4 -20.3 43.7 L-21.6 45.0 -35.0 45.0 -35.0 31.6 -33.7 30.3" fill="#000000" fill-opacity="0.2" fill-rule="evenodd" stroke="none"/>
    <path d="M2.8 -4.25 Q4.0 -2.5 4.0 0.0 4.0 2.5 2.8 4.25 1.65 6.0 0.0 6.0 -1.65 6.0 -2.85 4.25 -4.0 2.5 -4.0 0.0 -4.0 -2.5 -2.85 -4.25 -1.65 -6.0 0.0 -6.0 1.65 -6.0 2.8 -4.25" fill="#000000" fill-opacity="0.2" fill-rule="evenodd" stroke="none"/>
    <path d="M-25.0 -33.0 L-16.0 -33.0 -13.0 -33.0 -13.0 -31.0 -16.0 -31.0 -18.0 -29.0 -18.0 -26.0 -21.0 -26.0 -23.0 -24.0 -23.0 -21.0 -25.0 -21.0 -25.0 -33.0 M-21.5 -29.5 L-21.5 -27.5 -19.5 -29.5 -21.5 -29.5" fill="url(#gradient6)" fill-rule="evenodd" stroke="none"/>
    <path d="M12.0 35.0 L12.0 33.0 15.0 33.0 17.0 31.0 17.0 28.0 20.0 28.0 22.0 26.0 22.0 23.0 24.0 23.0 24.0 35.0 12.0 35.0 M20.5 31.5 L20.5 29.5 18.5 31.5 20.5 31.5" fill="url(#gradient7)" fill-rule="evenodd" stroke="none"/>
    <path d="M20.5 -29.5 L18.5 -29.5 20.5 -27.5 20.5 -29.5 M12.0 -31.0 L12.0 -33.0 15.0 -33.0 24.0 -33.0 24.0 -21.0 22.0 -21.0 22.0 -24.0 20.0 -26.0 17.0 -26.0 17.0 -29.0 15.0 -31.0 12.0 -31.0" fill="url(#gradient8)" fill-rule="evenodd" stroke="none"/>
    <path d="M-25.0 23.0 L-23.0 23.0 -23.0 26.0 -21.0 28.0 -18.0 28.0 -18.0 31.0 -16.0 33.0 -13.0 33.0 -13.0 35.0 -25.0 35.0 -25.0 23.0 M-21.5 31.5 L-19.5 31.5 -21.5 29.5 -21.5 31.5" fill="url(#gradient9)" fill-rule="evenodd" stroke="none"/>
    <path d="M-25.0 -21.0 L-27.0 -19.0 -27.0 -31.0 -25.0 -33.0 -25.0 -21.0 M-25.0 23.0 L-25.0 35.0 -27.0 37.0 -27.0 25.0 -25.0 23.0" fill="#555555" fill-rule="evenodd" stroke="none"/>
    <path d="M-35.0 -23.0 L-33.0 -25.0 -33.0 -13.0 -35.0 -11.0 -35.0 -23.0 M-35.0 45.0 L-35.0 33.0 -33.0 31.0 -33.0 43.0 -35.0 45.0" fill="#464646" fill-rule="evenodd" stroke="none"/>
    <path d="M4.0 43.0 L16.0 43.0 14.0 45.0 2.0 45.0 4.0 43.0 M-33.0 43.0 L-21.0 43.0 -23.0 45.0 -35.0 45.0 -33.0 43.0" fill="#585858" fill-rule="evenodd" stroke="none"/>
    <path d="M24.0 35.0 L22.0 37.0 10.0 37.0 12.0 35.0 24.0 35.0 M-25.0 35.0 L-13.0 35.0 -15.0 37.0 -27.0 37.0 -25.0 35.0" fill="#666666" fill-rule="evenodd" stroke="none"/>
    <path d="M1.65 -15.95 Q3.85 -7.15 11.0 0.0 3.85 7.15 1.65 15.95 1.2 17.7 0.7 21.05 0.45 23.0 0.0 23.0 -0.45 23.0 -0.7 21.05 -1.2 17.7 -1.65 15.95 -3.85 7.15 -11.0 0.0 -3.85 -7.15 -1.65 -15.95 -1.2 -17.7 -0.7 -21.05 -0.45 -23.0 0.0 -23.0 0.45 -23.0 0.7 -21.05 1.2 -17.7 1.65 -15.95 M0.0 -12.0 Q-0.8 -12.0 -3.9 -6.8 -7.0 -1.55 -7.0 0.0 -7.0 1.55 -3.9 6.8 -0.8 12.0 0.0 12.0 0.8 12.0 3.9 6.8 7.0 1.55 7.0 0.0 7.0 -1.55 3.9 -6.8 0.8 -12.0 0.0 -12.0" fill="url(#gradient10)" fill-rule="evenodd" stroke="none"/>
    <path d="M12.45 -14.25 Q9.9 -10.55 7.05 -8.55 7.75 -11.9 10.3 -15.6 12.85 -19.3 16.1 -21.7 15.0 -17.95 12.45 -14.25" fill="url(#gradient11)" fill-rule="evenodd" stroke="none"/>
    <path d="M16.1 21.7 Q12.85 19.3 10.3 15.6 7.75 11.9 7.05 8.55 9.9 10.55 12.45 14.25 15.0 17.95 16.1 21.7" fill="url(#gradient12)" fill-rule="evenodd" stroke="none"/>
    <path d="M-16.1 -21.7 Q-12.85 -19.3 -10.3 -15.6 -7.75 -11.9 -7.05 -8.55 -9.9 -10.55 -12.45 -14.25 -15.0 -17.95 -16.1 -21.7" fill="url(#gradient13)" fill-rule="evenodd" stroke="none"/>
    <path d="M-10.3 15.6 Q-12.85 19.3 -16.1 21.7 -15.0 17.95 -12.45 14.25 -9.9 10.55 -7.05 8.55 -7.75 11.9 -10.3 15.6" fill="url(#gradient14)" fill-rule="evenodd" stroke="none"/>
    <path d="M2.1 -3.55 Q3.0 -2.05 3.0 0.0 3.0 2.05 2.1 3.5 1.25 5.0 0.0 5.0 -1.25 5.0 -2.15 3.5 -3.0 2.05 -3.0 0.0 -3.0 -2.05 -2.15 -3.55 -1.25 -5.0 0.0 -5.0 1.25 -5.0 2.1 -3.55" fill="url(#gradient15)" fill-rule="evenodd" stroke="none"/>
    <path d="M-21.5 -29.5 L-19.5 -29.5" fill="none" stroke="url(#gradient16)" stroke-linecap="round" stroke-linejoin="round" stroke-width="0.25"/>
    <path d="M-21.5 -27.5 L-21.5 -29.5" fill="none" stroke="url(#gradient17)" stroke-linecap="round" stroke-linejoin="round" stroke-width="0.25"/>
    <path d="M-19.5 -29.5 L-21.5 -27.5" fill="none" stroke="url(#gradient18)" stroke-linecap="round" stroke-linejoin="round" stroke-width="0.25"/>
    <path d="M20.5 29.5 L20.5 31.5" fill="none" stroke="url(#gradient19)" stroke-linecap="round" stroke-linejoin="round" stroke-width="0.25"/>
    <path d="M20.5 31.5 L18.5 31.5" fill="none" stroke="url(#gradient20)" stroke-linecap="round" stroke-linejoin="round" stroke-width="0.25"/>
    <path d="M18.5 31.5 L20.5 29.5" fill="none" stroke="url(#gradient21)" stroke-linecap="round" stroke-linejoin="round" stroke-width="0.25"/>
    <path d="M20.5 -27.5 L20.5 -29.5" fill="none" stroke="url(#gradient22)" stroke-linecap="round" stroke-linejoin="round" stroke-width="0.25"/>
    <path d="M18.5 -29.5 L20.5 -27.5" fill="none" stroke="url(#gradient23)" stroke-linecap="round" stroke-linejoin="round" stroke-width="0.25"/>
    <path d="M20.5 -29.5 L18.5 -29.5" fill="none" stroke="url(#gradient24)" stroke-linecap="round" stroke-linejoin="round" stroke-width="0.25"/>
    <path d="M-21.5 31.5 L-19.5 31.5" fill="none" stroke="url(#gradient25)" stroke-linecap="round" stroke-linejoin="round" stroke-width="0.25"/>
    <path d="M-21.5 29.5 L-21.5 31.5" fill="none" stroke="url(#gradient26)" stroke-linecap="round" stroke-linejoin="round" stroke-width="0.25"/>
    <path d="M-19.5 31.5 L-21.5 29.5" fill="none" stroke="url(#gradient27)" stroke-linecap="round" stroke-linejoin="round" stroke-width="0.25"/>
    <path d="M0.0 -12.0 Q-0.8 -12.0 -3.9 -6.8 -7.0 -1.55 -7.0 0.0 -7.0 1.55 -3.9 6.8 -0.8 12.0 0.0 12.0 0.8 12.0 3.9 6.8 7.0 1.55 7.0 0.0 7.0 -1.55 3.9 -6.8 0.8 -12.0 0.0 -12.0" fill="none" stroke="#666666" stroke-linecap="round" stroke-linejoin="round" stroke-width="0.5"/>
    <path d="M0.7 -21.05 Q1.2 -17.7 1.65 -15.95 3.85 -7.15 11.0 0.0 3.85 7.15 1.65 15.95 1.2 17.7 0.7 21.05 0.45 23.0 0.0 23.0 -0.45 23.0 -0.7 21.05 -1.2 17.7 -1.65 15.95 -3.85 7.15 -11.0 0.0 -3.85 -7.15 -1.65 -15.95 -1.2 -17.7 -0.7 -21.05 -0.45 -23.0 0.0 -23.0 0.45 -23.0 0.7 -21.05" fill="none" stroke="url(#gradient28)" stroke-linecap="round" stroke-linejoin="round" stroke-width="0.5"/>
    <path d="M16.1 -21.7 Q12.85 -19.3 10.3 -15.6 7.75 -11.9 7.05 -8.55 9.9 -10.55 12.45 -14.25 15.0 -17.95 16.1 -21.7" fill="none" stroke="url(#gradient29)" stroke-linecap="round" stroke-linejoin="round" stroke-width="0.5"/>
    <path d="M10.3 15.6 Q7.75 11.9 7.05 8.55 9.9 10.55 12.45 14.25 15.0 17.95 16.1 21.7 12.85 19.3 10.3 15.6" fill="none" stroke="url(#gradient30)" stroke-linecap="round" stroke-linejoin="round" stroke-width="0.5"/>
    <path d="M-12.45 -14.25 Q-15.0 -17.95 -16.1 -21.7 -12.85 -19.3 -10.3 -15.6 -7.75 -11.9 -7.05 -8.55 -9.9 -10.55 -12.45 -14.25" fill="none" stroke="url(#gradient31)" stroke-linecap="round" stroke-linejoin="round" stroke-width="0.5"/>
    <path d="M-16.1 21.7 Q-12.85 19.3 -10.3 15.6 -7.75 11.9 -7.05 8.55 -9.9 10.55 -12.45 14.25 -15.0 17.95 -16.1 21.7" fill="none" stroke="url(#gradient32)" stroke-linecap="round" stroke-linejoin="round" stroke-width="0.5"/>
    <path d="M-17.0 -3.0 Q-15.35 -3.0 -14.2 -1.85 -13.0 -0.65 -13.0 1.0 -13.0 2.65 -14.2 3.8 -15.35 5.0 -17.0 5.0 -18.65 5.0 -19.85 3.8 -21.0 2.65 -21.0 1.0 -21.0 -0.65 -19.85 -1.85 -18.65 -3.0 -17.0 -3.0 M-23.0 7.0 L-17.0 7.0 -17.0 8.0 -23.0 8.0 -23.0 7.0" fill="#666666" fill-rule="evenodd" stroke="none"/>
    <path d="M-23.0 8.0 L-25.0 8.0 -35.0 16.0 -36.0 16.0 -36.0 15.0 -26.0 7.0 -25.9 6.9 -23.0 6.9 -23.0 7.0 -23.0 8.0" fill="url(#gradient33)" fill-rule="evenodd" stroke="none"/>
    <path d="M-26.0 7.0 L-36.0 15.0 -36.0 1.0 -26.0 -7.0 -26.0 7.0" fill="url(#gradient34)" fill-rule="evenodd" stroke="none"/>
    <path d="M-26.0 -7.0 L-23.0 -7.0 -23.0 7.0 -26.0 7.0 -26.0 -7.0" fill="url(#gradient35)" fill-rule="evenodd" stroke="none"/>
    <path d="M-23.0 -7.0 L-17.0 -7.0 -17.0 -4.0 Q-15.35 -4.0 -14.2 -2.85 -13.0 -1.65 -13.0 0.0 -13.0 1.65 -14.2 2.8 -15.35 4.0 -17.0 4.0 L-17.0 7.0 -23.0 7.0 -23.0 -7.0" fill="url(#gradient36)" fill-rule="evenodd" stroke="none"/>
    <path d="M-17.0 -2.7 Q-15.85 -2.7 -15.1 -1.95 -14.3 -1.1 -14.3 0.0 -14.3 1.1 -15.1 1.9 -15.85 2.7 -17.0 2.7 -18.1 2.7 -18.95 1.9 -19.7 1.1 -19.7 0.0 -19.7 -1.1 -18.95 -1.95 -18.1 -2.7 -17.0 -2.7" fill="url(#gradient37)" fill-rule="evenodd" stroke="none"/>
    <path d="M-22.0 -5.0 L-22.0 -6.0 -21.0 -6.0 -21.0 -5.0 -22.0 -5.0 M-22.0 6.0 L-22.0 5.0 -21.0 5.0 -21.0 6.0 -22.0 6.0" fill="#757575" fill-rule="evenodd" stroke="none"/>
    <path d="M-15.55 -1.4 Q-15.0 -0.85 -15.0 0.0 -15.0 0.85 -15.55 1.4 -16.15 2.0 -17.0 2.0 -17.8 2.0 -18.4 1.4 -19.0 0.85 -19.0 0.0 -19.0 -0.85 -18.4 -1.4 -17.8 -2.0 -17.0 -2.0 -16.15 -2.0 -15.55 -1.4" fill="url(#gradient38)" fill-rule="evenodd" stroke="none"/>
  </g>
  <defs>
    <linearGradient gradientTransform="matrix(0.0012, 0.0, 0.0, 0.0427, -26.0, 2.0)" gradientUnits="userSpaceOnUse" id="gradient0" spreadMethod="pad" x1="-819.2" x2="819.2">
      <stop offset="0.0" stop-color="#263945"/>
      <stop offset="1.0" stop-color="#1c2b31"/>
    </linearGradient>
    <linearGradient gradientTransform="matrix(0.0369, -2.0E-4, 2.0E-4, 0.0414, -8.25, 9.55)" gradientUnits="userSpaceOnUse" id="gradient1" spreadMethod="pad" x1="-819.2" x2="819.2">
      <stop offset="0.0" stop-color="#2c4454"/>
      <stop offset="0.3333333333333333" stop-color="#375b73"/>
      <stop offset="0.796078431372549" stop-color="#2f4148"/>
    </linearGradient>
    <linearGradient gradientTransform="matrix(0.0076, -0.006, 0.0255, 0.0325, -3.55, 16.55)" gradientUnits="userSpaceOnUse" id="gradient2" spreadMethod="pad" x1="-819.2" x2="819.2">
      <stop offset="0.21568627450980393" stop-color="#27363a"/>
      <stop offset="0.7019607843137254" stop-color="#233c47"/>
      <stop offset="0.9764705882352941" stop-color="#2c4454"/>
    </linearGradient>
    <linearGradient gradientTransform="matrix(-0.0354, 0.0398, -0.031, -0.0275, -0.5, 1.0)" gradientUnits="userSpaceOnUse" id="gradient3" spreadMethod="pad" x1="-819.2" x2="819.2">
      <stop offset="0.0" stop-color="#2f4766"/>
      <stop offset="1.0" stop-color="#3a6185"/>
    </linearGradient>
    <linearGradient gradientTransform="matrix(0.0, -0.0031, 0.0018, 0.0, -6.0, 38.5)" gradientUnits="userSpaceOnUse" id="gradient4" spreadMethod="pad" x1="-819.2" x2="819.2">
      <stop offset="0.30980392156862746" stop-color="#83889e"/>
      <stop offset="1.0" stop-color="#7b7e99"/>
    </linearGradient>
    <linearGradient gradientTransform="matrix(0.0018, 0.0, 0.0, 0.0421, -28.5, 5.5)" gradientUnits="userSpaceOnUse" id="gradient5" spreadMethod="pad" x1="-819.2" x2="819.2">
      <stop offset="0.3568627450980392" stop-color="#cfd0da"/>
      <stop offset="1.0" stop-color="#8d8ea9"/>
    </linearGradient>
    <linearGradient gradientTransform="matrix(0.036, -0.0277, 0.0045, 0.0058, 47.4, 61.5)" gradientUnits="userSpaceOnUse" id="gradient6" spreadMethod="pad" x1="-819.2" x2="819.2">
      <stop offset="0.0" stop-color="#666666"/>
      <stop offset="0.4627450980392157" stop-color="#aaaaaa"/>
      <stop offset="0.6509803921568628" stop-color="#ffffff"/>
    </linearGradient>
    <linearGradient gradientTransform="matrix(0.0319, -0.0237, 0.0044, 0.0059, -48.15, -42.4)" gradientUnits="userSpaceOnUse" id="gradient7" spreadMethod="pad" x1="-819.2" x2="819.2">
      <stop offset="0.16862745098039217" stop-color="#1c1c1c"/>
      <stop offset="0.5607843137254902" stop-color="#a6a6a6"/>
      <stop offset="0.792156862745098" stop-color="#ffffff"/>
    </linearGradient>
    <linearGradient gradientTransform="matrix(0.0376, -0.0318, 0.0047, 0.0056, 19.0, 22.1)" gradientUnits="userSpaceOnUse" id="gradient8" spreadMethod="pad" x1="-819.2" x2="819.2">
      <stop offset="0.0" stop-color="#555555"/>
      <stop offset="0.4117647058823529" stop-color="#838383"/>
      <stop offset="0.8274509803921568" stop-color="#666666"/>
      <stop offset="0.8901960784313725" stop-color="#cacaca"/>
      <stop offset="1.0" stop-color="#ffffff"/>
    </linearGradient>
    <linearGradient gradientTransform="matrix(0.0322, -0.0196, 0.0038, 0.0062, -19.0, 29.0)" gradientUnits="userSpaceOnUse" id="gradient9" spreadMethod="pad" x1="-819.2" x2="819.2">
      <stop offset="0.27450980392156865" stop-color="#666666"/>
      <stop offset="0.42745098039215684" stop-color="#b5b5b5"/>
      <stop offset="0.49019607843137253" stop-color="#d5d5d5"/>
      <stop offset="1.0" stop-color="#ffffff"/>
    </linearGradient>
    <linearGradient gradientTransform="matrix(0.0157, -0.008, 0.0127, 0.025, 0.0, 0.0)" gradientUnits="userSpaceOnUse" id="gradient10" spreadMethod="pad" x1="-819.2" x2="819.2">
      <stop offset="0.0" stop-color="#464646"/>
      <stop offset="0.30980392156862746" stop-color="#ffffff"/>
      <stop offset="0.5372549019607843" stop-color="#bbbbbb"/>
      <stop offset="0.7254901960784313" stop-color="#eaeaea"/>
      <stop offset="1.0" stop-color="#989898"/>
    </linearGradient>
    <linearGradient gradientTransform="matrix(0.0241, -0.0184, 0.0049, 0.0064, 0.0, -2.0)" gradientUnits="userSpaceOnUse" id="gradient11" spreadMethod="pad" x1="-819.2" x2="819.2">
      <stop offset="0.0" stop-color="#c2c2c2"/>
      <stop offset="0.1568627450980392" stop-color="#606060"/>
      <stop offset="0.4588235294117647" stop-color="#a6a6a6"/>
      <stop offset="0.7176470588235294" stop-color="#eaeaea"/>
      <stop offset="1.0" stop-color="#989898"/>
    </linearGradient>
    <linearGradient gradientTransform="matrix(0.0244, -0.0132, 0.0038, 0.007, -7.2, 1.85)" gradientUnits="userSpaceOnUse" id="gradient12" spreadMethod="pad" x1="-819.2" x2="819.2">
      <stop offset="0.0" stop-color="#c2c2c2"/>
      <stop offset="0.1568627450980392" stop-color="#606060"/>
      <stop offset="0.4588235294117647" stop-color="#a6a6a6"/>
      <stop offset="0.7176470588235294" stop-color="#c2c2c2"/>
      <stop offset="1.0" stop-color="#989898"/>
    </linearGradient>
    <linearGradient gradientTransform="matrix(0.025, -0.0159, 0.0043, 0.0068, 11.35, 17.95)" gradientUnits="userSpaceOnUse" id="gradient13" spreadMethod="pad" x1="-819.2" x2="819.2">
      <stop offset="0.0" stop-color="#c2c2c2"/>
      <stop offset="0.27450980392156865" stop-color="#606060"/>
      <stop offset="0.42745098039215684" stop-color="#b0b0b0"/>
      <stop offset="0.5529411764705883" stop-color="#eaeaea"/>
      <stop offset="1.0" stop-color="#989898"/>
    </linearGradient>
    <linearGradient gradientTransform="matrix(0.0233, -0.017, 0.0047, 0.0065, 0.0, -0.05)" gradientUnits="userSpaceOnUse" id="gradient14" spreadMethod="pad" x1="-819.2" x2="819.2">
      <stop offset="0.0" stop-color="#959595"/>
      <stop offset="0.14901960784313725" stop-color="#989898"/>
      <stop offset="0.36470588235294116" stop-color="#ffffff"/>
      <stop offset="0.4588235294117647" stop-color="#fbfbfb"/>
      <stop offset="0.7176470588235294" stop-color="#ffffff"/>
      <stop offset="1.0" stop-color="#f8f8f8"/>
    </linearGradient>
    <radialGradient cx="0" cy="0" fx="224.0" fy="0" gradientTransform="matrix(0.0042, 0.0, 0.0, 0.0078, 0.15, -1.35)" gradientUnits="userSpaceOnUse" id="gradient15" r="819.2" spreadMethod="pad">
      <stop offset="0.0784313725490196" stop-color="#fef9f8"/>
      <stop offset="0.21568627450980393" stop-color="#f84032"/>
      <stop offset="0.49411764705882355" stop-color="#ac1e13"/>
      <stop offset="0.8274509803921568" stop-color="#682009"/>
      <stop offset="0.984313725490196" stop-color="#606060"/>
    </radialGradient>
    <linearGradient gradientTransform="matrix(0.0024, 0.0, 0.0, 0.0374, -20.0, 2.0)" gradientUnits="userSpaceOnUse" id="gradient16" spreadMethod="pad" x1="-819.2" x2="819.2">
      <stop offset="0.0" stop-color="#ffffff"/>
      <stop offset="0.6509803921568628" stop-color="#3c3c3c"/>
      <stop offset="1.0" stop-color="#eaeaea"/>
    </linearGradient>
    <linearGradient gradientTransform="matrix(0.0024, 0.0, 0.0, 0.0374, -20.0, 2.0)" gradientUnits="userSpaceOnUse" id="gradient17" spreadMethod="pad" x1="-819.2" x2="819.2">
      <stop offset="0.0" stop-color="#ffffff"/>
      <stop offset="1.0" stop-color="#eaeaea"/>
    </linearGradient>
    <linearGradient gradientTransform="matrix(0.0024, 0.0, 0.0, 0.0374, -20.0, 2.0)" gradientUnits="userSpaceOnUse" id="gradient18" spreadMethod="pad" x1="-819.2" x2="819.2">
      <stop offset="0.0" stop-color="#a0a0a0"/>
      <stop offset="1.0" stop-color="#878787"/>
    </linearGradient>
    <linearGradient gradientTransform="matrix(0.0015, 0.0, 0.0, 0.0374, 19.55, 1.1)" gradientUnits="userSpaceOnUse" id="gradient19" spreadMethod="pad" x1="-819.2" x2="819.2">
      <stop offset="0.0" stop-color="#ffffff"/>
      <stop offset="0.6509803921568628" stop-color="#949494"/>
    </linearGradient>
    <linearGradient gradientTransform="matrix(0.0015, 0.0, 0.0, 0.0374, 19.55, 1.1)" gradientUnits="userSpaceOnUse" id="gradient20" spreadMethod="pad" x1="-819.2" x2="819.2">
      <stop offset="0.0" stop-color="#c2c2c2"/>
      <stop offset="1.0" stop-color="#838383"/>
    </linearGradient>
    <linearGradient gradientTransform="matrix(0.0015, 0.0, 0.0, 0.0374, 19.55, 1.1)" gradientUnits="userSpaceOnUse" id="gradient21" spreadMethod="pad" x1="-819.2" x2="819.2">
      <stop offset="0.0" stop-color="#bbbbbb"/>
      <stop offset="1.0" stop-color="#949494"/>
    </linearGradient>
    <linearGradient gradientTransform="matrix(0.0015, 0.0, 0.0, 0.0374, 19.55, 1.7)" gradientUnits="userSpaceOnUse" id="gradient22" spreadMethod="pad" x1="-819.2" x2="819.2">
      <stop offset="0.0" stop-color="#ffffff"/>
      <stop offset="0.27450980392156865" stop-color="#727272"/>
      <stop offset="1.0" stop-color="#555555"/>
    </linearGradient>
    <linearGradient gradientTransform="matrix(0.0015, 0.0, 0.0, 0.0374, 19.55, 1.7)" gradientUnits="userSpaceOnUse" id="gradient23" spreadMethod="pad" x1="-819.2" x2="819.2">
      <stop offset="0.0" stop-color="#ffffff"/>
      <stop offset="1.0" stop-color="#959595"/>
    </linearGradient>
    <linearGradient gradientTransform="matrix(0.0015, 0.0, 0.0, 0.0374, 19.55, 1.7)" gradientUnits="userSpaceOnUse" id="gradient24" spreadMethod="pad" x1="-819.2" x2="819.2">
      <stop offset="0.0" stop-color="#ffffff"/>
      <stop offset="1.0" stop-color="#5b5b5b"/>
    </linearGradient>
    <linearGradient gradientTransform="matrix(0.0015, 0.0, 0.0, 0.0374, -20.65, 1.2)" gradientUnits="userSpaceOnUse" id="gradient25" spreadMethod="pad" x1="-819.2" x2="819.2">
      <stop offset="0.0" stop-color="#bababa"/>
      <stop offset="1.0" stop-color="#757575"/>
    </linearGradient>
    <linearGradient gradientTransform="matrix(0.0015, 0.0, 0.0, 0.0374, -20.65, 1.2)" gradientUnits="userSpaceOnUse" id="gradient26" spreadMethod="pad" x1="-819.2" x2="819.2">
      <stop offset="0.0" stop-color="#dbdbdb"/>
      <stop offset="1.0" stop-color="#cbcbcb"/>
    </linearGradient>
    <linearGradient gradientTransform="matrix(0.0015, 0.0, 0.0, 0.0374, -20.65, 1.2)" gradientUnits="userSpaceOnUse" id="gradient27" spreadMethod="pad" x1="-819.2" x2="819.2">
      <stop offset="0.0" stop-color="#606060"/>
      <stop offset="1.0" stop-color="#838383"/>
    </linearGradient>
    <linearGradient gradientTransform="matrix(0.0172, -0.0095, 0.0137, 0.0248, 0.0, 0.0)" gradientUnits="userSpaceOnUse" id="gradient28" spreadMethod="pad" x1="-819.2" x2="819.2">
      <stop offset="0.03529411764705882" stop-color="#959595"/>
      <stop offset="0.4588235294117647" stop-color="#585858"/>
      <stop offset="0.8196078431372549" stop-color="#ffffff"/>
    </linearGradient>
    <linearGradient gradientTransform="matrix(0.0278, -0.0176, 0.0143, 0.0226, 4.7, 7.45)" gradientUnits="userSpaceOnUse" id="gradient29" spreadMethod="pad" x1="-819.2" x2="819.2">
      <stop offset="0.2980392156862745" stop-color="#959595"/>
      <stop offset="0.6313725490196078" stop-color="#585858"/>
      <stop offset="1.0" stop-color="#ededed"/>
    </linearGradient>
    <linearGradient gradientTransform="matrix(0.0231, -0.0114, 0.0119, 0.024, 5.05, -4.15)" gradientUnits="userSpaceOnUse" id="gradient30" spreadMethod="pad" x1="-819.2" x2="819.2">
      <stop offset="0.3686274509803922" stop-color="#636363"/>
      <stop offset="0.49411764705882355" stop-color="#ffffff"/>
    </linearGradient>
    <linearGradient gradientTransform="matrix(0.0154, -0.0125, 0.0167, 0.0207, 1.85, -4.5)" gradientUnits="userSpaceOnUse" id="gradient31" spreadMethod="pad" x1="-819.2" x2="819.2">
      <stop offset="0.34509803921568627" stop-color="#585858"/>
      <stop offset="0.43529411764705883" stop-color="#ffffff"/>
      <stop offset="1.0" stop-color="#bfbfbf"/>
    </linearGradient>
    <linearGradient gradientTransform="matrix(0.0252, -0.0102, 0.01, 0.0248, -3.5, 3.3)" gradientUnits="userSpaceOnUse" id="gradient32" spreadMethod="pad" x1="-819.2" x2="819.2">
      <stop offset="0.0" stop-color="#919191"/>
      <stop offset="0.12156862745098039" stop-color="#5b5b5b"/>
      <stop offset="0.4196078431372549" stop-color="#f8f8f8"/>
    </linearGradient>
    <linearGradient gradientTransform="matrix(0.0079, 0.0, 0.0, 0.0052, -29.5, 11.2)" gradientUnits="userSpaceOnUse" id="gradient33" spreadMethod="pad" x1="-819.2" x2="819.2">
      <stop offset="0.0" stop-color="#2d363e"/>
      <stop offset="1.0" stop-color="#222b33"/>
    </linearGradient>
    <linearGradient gradientTransform="matrix(0.0073, 0.0, 0.0, 0.0128, -32.0, 3.5)" gradientUnits="userSpaceOnUse" id="gradient34" spreadMethod="pad" x1="-819.2" x2="819.2">
      <stop offset="0.0" stop-color="#45586b"/>
      <stop offset="0.8901960784313725" stop-color="#343d52"/>
      <stop offset="1.0" stop-color="#3d4758"/>
    </linearGradient>
    <linearGradient gradientTransform="matrix(0.0024, 0.0, 0.0, 0.0085, -24.0, 0.0)" gradientUnits="userSpaceOnUse" id="gradient35" spreadMethod="pad" x1="-819.2" x2="819.2">
      <stop offset="0.0" stop-color="#3d4758"/>
      <stop offset="1.0" stop-color="#4b596b"/>
    </linearGradient>
    <linearGradient gradientTransform="matrix(0.0093, -1.0E-4, 0.0, 0.0085, -20.45, 4.4)" gradientUnits="userSpaceOnUse" id="gradient36" spreadMethod="pad" x1="-819.2" x2="819.2">
      <stop offset="0.2627450980392157" stop-color="#919191"/>
      <stop offset="0.7803921568627451" stop-color="#ffffff"/>
      <stop offset="1.0" stop-color="#d8d8d8"/>
    </linearGradient>
    <linearGradient gradientTransform="matrix(0.003, -0.0013, 0.0013, 0.003, -17.0, 0.0)" gradientUnits="userSpaceOnUse" id="gradient37" spreadMethod="pad" x1="-819.2" x2="819.2">
      <stop offset="0.0" stop-color="#eaeaea"/>
      <stop offset="0.16862745098039217" stop-color="#e8e8e8"/>
      <stop offset="1.0" stop-color="#636363"/>
    </linearGradient>
    <linearGradient gradientTransform="matrix(0.0022, -0.0011, 0.0011, 0.0022, -17.0, 0.0)" gradientUnits="userSpaceOnUse" id="gradient38" spreadMethod="pad" x1="-819.2" x2="819.2">
      <stop offset="0.07058823529411765" stop-color="#adadad"/>
      <stop offset="1.0" stop-color="#f4f4f4"/>
    </linearGradient>
  </defs>
</svg>
