<?xml version="1.0" encoding="UTF-8" standalone="no"?>
<svg xmlns:xlink="http://www.w3.org/1999/xlink" height="17.0px" width="33.0px" xmlns="http://www.w3.org/2000/svg">
  <g transform="matrix(1.0, 0.0, 0.0, 1.0, 16.5, 8.5)">
    <path d="M16.0 0.0 Q16.0 3.3 11.3 5.65 6.65 8.0 0.0 8.0 -6.65 8.0 -11.35 5.65 -16.0 3.3 -16.0 0.0 -16.0 -3.3 -11.35 -5.65 -6.65 -8.0 0.0 -8.0 6.65 -8.0 11.3 -5.65 16.0 -3.3 16.0 0.0" fill="url(#gradient0)" fill-rule="evenodd" stroke="none"/>
    <path d="M16.0 0.0 Q16.0 3.3 11.3 5.65 6.65 8.0 0.0 8.0 -6.65 8.0 -11.35 5.65 -16.0 3.3 -16.0 0.0 -16.0 -3.3 -11.35 -5.65 -6.65 -8.0 0.0 -8.0 6.65 -8.0 11.3 -5.65 16.0 -3.3 16.0 0.0 Z" fill="none" stroke="#000000" stroke-linecap="round" stroke-linejoin="round" stroke-width="1.0"/>
  </g>
  <defs>
    <radialGradient cx="0" cy="0" fx="345.6" fy="0" gradientTransform="matrix(0.0, -0.0098, 0.0196, 0.0, 0.0, 0.0)" gradientUnits="userSpaceOnUse" id="gradient0" r="819.2" spreadMethod="pad">
      <stop offset="0.0" stop-color="#625048"/>
      <stop offset="0.7647058823529411" stop-color="#0f0c0b"/>
      <stop offset="0.9372549019607843" stop-color="#675749"/>
      <stop offset="1.0" stop-color="#000000"/>
    </radialGradient>
  </defs>
</svg>
