<?xml version="1.0" encoding="UTF-8" standalone="no"?>
<svg xmlns:xlink="http://www.w3.org/1999/xlink" height="34.05px" width="73.55px" xmlns="http://www.w3.org/2000/svg">
  <g transform="matrix(1.0, 0.0, 0.0, 1.0, 13.85, 7.4)">
    <path d="M25.7 -7.2 Q28.35 -6.55 35.95 -1.65 44.4 3.85 50.35 9.45 55.05 13.85 57.7 19.5 59.75 23.8 59.7 26.45 59.7 27.25 55.9 24.45 50.15 20.3 44.9 18.2 L38.9 16.15 31.4 13.8 Q26.7 12.45 20.9 7.35 18.6 5.35 19.4 3.35 20.45 0.7 19.3 -1.6 18.4 -3.6 19.8 -5.6 21.55 -8.05 25.7 -7.2" fill="url(#gradient0)" fill-rule="evenodd" stroke="none"/>
    <path d="M27.65 1.0 Q28.7 1.0 29.4 1.7 30.15 2.45 30.15 3.45 30.15 4.45 29.4 5.15 28.7 5.9 27.65 5.9 26.6 5.9 25.85 5.15 25.15 4.45 25.15 3.45 25.15 2.45 25.85 1.7 26.6 1.0 27.65 1.0" fill="#000000" fill-rule="evenodd" stroke="none"/>
    <path d="M-3.0 21.75 Q-2.9 23.25 -2.25 24.6 -7.95 25.15 -13.35 23.8 L-13.85 20.55 Q-8.55 22.2 -3.0 21.75" fill="#caae60" fill-rule="evenodd" stroke="none"/>
    <path d="M13.7 14.75 Q17.2 12.9 20.5 10.05 L23.65 6.85 25.75 3.7 Q26.85 1.8 28.0 2.75 29.25 3.6 28.25 5.15 25.8 9.2 22.3 12.2 19.0 15.1 15.5 17.1 14.35 16.1 13.7 14.75" fill="#3d6551" fill-rule="evenodd" stroke="none"/>
  </g>
  <defs>
    <radialGradient cx="0" cy="0" fx="-1635.2" fy="0" gradientTransform="matrix(0.0071, -0.0106, 0.0283, 0.019, 40.0, 8.0)" gradientUnits="userSpaceOnUse" id="gradient0" r="819.2" spreadMethod="pad">
      <stop offset="0.14901960784313725" stop-color="#ffffff"/>
      <stop offset="0.7764705882352941" stop-color="#c6bbb9"/>
      <stop offset="1.0" stop-color="#8e7a77"/>
    </radialGradient>
  </defs>
</svg>
