<?xml version="1.0" encoding="UTF-8" standalone="no"?>
<svg xmlns:xlink="http://www.w3.org/1999/xlink" height="32.0px" width="16.0px" xmlns="http://www.w3.org/2000/svg">
  <g transform="matrix(1.0, 0.0, 0.0, 1.0, 46.0, -26.0)">
    <path d="M-30.0 28.0 L-30.0 56.0 Q-30.0 56.85 -30.55 57.45 -31.15 58.0 -32.0 58.0 L-40.0 58.0 Q-40.85 58.0 -41.4 57.45 -42.0 56.85 -42.0 56.0 L-42.0 34.0 -44.0 34.0 Q-44.85 34.0 -45.4 33.45 -46.0 32.85 -46.0 32.0 L-46.0 28.0 Q-46.0 27.15 -45.4 26.6 -44.85 26.0 -44.0 26.0 L-32.0 26.0 Q-31.15 26.0 -30.55 26.6 -30.0 27.15 -30.0 28.0" fill="#000000" fill-rule="evenodd" stroke="none"/>
    <path d="M-44.0 28.0 L-32.0 28.0 -32.0 56.0 -40.0 56.0 -40.0 32.0 -44.0 32.0 -44.0 28.0" fill="#ffffff" fill-rule="evenodd" stroke="none"/>
  </g>
</svg>
