<?xml version="1.0" encoding="UTF-8" standalone="no"?>
<svg xmlns:xlink="http://www.w3.org/1999/xlink" height="32.0px" width="24.0px" xmlns="http://www.w3.org/2000/svg">
  <g transform="matrix(1.0, 0.0, 0.0, 1.0, 46.0, -26.0)">
    <path d="M-22.0 28.0 L-22.0 56.0 Q-22.0 56.85 -22.55 57.45 -23.15 58.0 -24.0 58.0 L-44.0 58.0 Q-44.85 58.0 -45.4 57.45 -46.0 56.85 -46.0 56.0 L-46.0 52.0 Q-46.0 51.15 -45.4 50.6 -44.85 50.0 -44.0 50.0 L-34.0 50.0 -34.0 46.0 -44.0 46.0 Q-44.85 46.0 -45.4 45.45 -46.0 44.85 -46.0 44.0 L-46.0 40.0 Q-46.0 39.15 -45.4 38.6 -44.85 38.0 -44.0 38.0 L-34.0 38.0 -34.0 34.0 -44.0 34.0 Q-44.85 34.0 -45.4 33.45 -46.0 32.85 -46.0 32.0 L-46.0 28.0 Q-46.0 27.15 -45.4 26.6 -44.85 26.0 -44.0 26.0 L-24.0 26.0 Q-23.15 26.0 -22.55 26.6 -22.0 27.15 -22.0 28.0" fill="#000000" fill-rule="evenodd" stroke="none"/>
    <path d="M-32.0 32.0 L-44.0 32.0 -44.0 28.0 -24.0 28.0 -24.0 56.0 -44.0 56.0 -44.0 52.0 -32.0 52.0 -32.0 44.0 -44.0 44.0 -44.0 40.0 -32.0 40.0 -32.0 32.0" fill="#ffffff" fill-rule="evenodd" stroke="none"/>
  </g>
</svg>
