<?xml version="1.0" encoding="UTF-8" standalone="no"?>
<svg xmlns:xlink="http://www.w3.org/1999/xlink" height="32.0px" width="36.0px" xmlns="http://www.w3.org/2000/svg">
  <g transform="matrix(1.0, 0.0, 0.0, 1.0, 58.0, -26.0)">
    <path d="M-50.0 30.0 L-54.0 30.0 -54.0 54.0 -50.0 54.0 -50.0 30.0 M-30.55 30.6 Q-30.0 31.15 -30.0 32.0 L-30.0 52.0 Q-30.0 52.85 -30.55 53.45 -31.15 54.0 -31.8 54.0 L-26.0 54.0 -26.0 30.0 -31.8 30.0 Q-31.15 30.0 -30.55 30.6 M-38.0 32.0 Q-38.0 31.15 -37.4 30.6 -36.85 30.0 -36.15 30.0 L-42.0 30.0 -42.0 54.0 -36.15 54.0 Q-36.85 54.0 -37.4 53.45 -38.0 52.85 -38.0 52.0 L-38.0 32.0 M-22.55 26.6 Q-22.0 27.15 -22.0 28.0 L-22.0 56.0 Q-22.0 56.85 -22.55 57.45 -23.15 58.0 -24.0 58.0 L-44.0 58.0 Q-44.85 58.0 -45.4 57.45 -46.0 56.85 -46.0 56.15 -46.0 56.85 -46.55 57.45 -47.15 58.0 -48.0 58.0 L-56.0 58.0 Q-56.85 58.0 -57.4 57.45 -58.0 56.85 -58.0 56.0 L-58.0 28.0 Q-58.0 27.15 -57.4 26.6 -56.85 26.0 -56.0 26.0 L-48.0 26.0 Q-47.15 26.0 -46.55 26.6 -46.0 27.15 -46.0 27.95 -46.0 27.15 -45.4 26.6 -44.85 26.0 -44.0 26.0 L-24.0 26.0 Q-23.15 26.0 -22.55 26.6" fill="#000000" fill-rule="evenodd" stroke="none"/>
    <path d="M-32.0 32.0 L-36.0 32.0 -36.0 52.0 -32.0 52.0 -32.0 32.0 M-44.0 28.0 L-24.0 28.0 -24.0 56.0 -44.0 56.0 -44.0 28.0" fill="#ffffff" fill-rule="evenodd" stroke="none"/>
    <path d="M-48.0 28.0 L-48.0 56.0 -56.0 56.0 -56.0 28.0 -48.0 28.0" fill="#ffffff" fill-rule="evenodd" stroke="none"/>
  </g>
</svg>
