<?xml version="1.0" encoding="UTF-8" standalone="no"?>
<svg xmlns:xlink="http://www.w3.org/1999/xlink" height="153.6px" width="25.55px" xmlns="http://www.w3.org/2000/svg">
  <g transform="matrix(1.0, 0.0, 0.0, 1.0, 12.05, 77.5)">
    <path d="M7.95 -70.65 Q8.25 -68.8 8.7 -67.1 9.55 -64.1 10.8 -62.75 11.5 -62.05 11.5 -61.0 L11.5 27.55 Q12.0 27.65 12.5 28.0 13.15 28.45 13.4 29.25 13.65 30.0 13.4 30.8 L12.4 33.8 Q12.1 34.55 11.45 35.05 L10.55 35.45 10.5 35.95 10.5 38.0 10.5 40.0 10.45 56.1 Q10.1 67.55 7.95 69.65 L7.5 72.4 7.5 72.35 Q7.1 75.0 5.0 75.75 3.6 76.45 1.1 75.8 L1.1 75.75 Q-4.15 74.3 -3.6 71.2 -9.0 65.95 -11.05 56.15 -12.85 47.3 -11.45 37.65 -11.35 36.65 -10.55 36.05 -9.85 35.5 -9.0 35.5 -9.5 34.85 -9.5 34.05 -9.5 33.1 -8.9 32.4 -8.35 31.7 -7.4 31.55 -5.95 31.15 -5.4 29.3 -5.15 28.5 -4.5 28.0 -4.0 27.6 -3.35 27.55 L-3.45 27.05 Q-3.95 25.8 -5.5 25.45 -6.4 25.25 -6.95 24.55 -7.5 23.85 -7.5 23.0 L-6.5 -58.0 Q-6.5 -63.75 -3.65 -69.2 -0.6 -75.05 3.9 -77.2 L5.5 -77.45 Q6.35 -77.3 6.9 -76.6 7.45 -75.95 7.5 -75.1 7.6 -72.75 7.95 -70.65 M1.6 70.9 L2.3 71.2 3.0 70.9 3.25 70.25 3.0 69.55 2.3 69.25 Q1.95 69.25 1.6 69.55 1.35 69.85 1.35 70.25 L1.6 70.9 M-4.3 46.05 L-3.75 45.25 Q-2.85 44.3 -2.5 43.1 L-2.5 43.05 Q-2.15 41.8 -2.4 40.6 L-2.45 40.5 Q-3.15 41.65 -3.65 42.95 -4.15 44.15 -4.3 46.05 M-4.4 47.65 L-4.4 51.0 Q-4.2 55.55 -2.9 58.95 -2.45 57.55 -2.35 55.95 L-2.35 55.9 Q-2.1 51.9 -4.15 48.25 L-4.4 47.65" fill="#000000" fill-rule="evenodd" stroke="none"/>
    <path d="M3.8 70.25 Q3.8 69.65 3.35 69.2 2.9 68.75 2.3 68.75 1.7 68.75 1.25 69.2 0.8 69.65 0.8 70.25 0.8 70.85 1.25 71.3 1.7 71.75 2.3 71.75 2.9 71.75 3.35 71.3 3.8 70.85 3.8 70.25 M-2.15 36.0 Q-4.6 38.65 -6.0 42.0 -7.15 44.9 -6.9 51.1 -6.55 59.2 -3.0 64.0 L-2.4 65.8 -0.25 65.9 0.0 64.0 6.0 66.0 5.0 72.0 Q4.7 74.15 1.75 73.35 -1.25 72.5 -1.0 71.0 L-0.9 70.3 Q-6.55 65.45 -8.6 55.65 -10.3 47.2 -9.0 38.0 -5.2 38.4 -4.0 35.0 L0.0 34.0 -2.15 36.0" fill="url(#gradient0)" fill-rule="evenodd" stroke="none"/>
    <path d="M-4.0 35.0 L0.0 34.0 -2.15 36.0" fill="none" stroke="url(#gradient1)" stroke-linecap="round" stroke-linejoin="round" stroke-width="0.25"/>
    <path d="M-0.25 65.9 L0.0 64.0 6.0 66.0" fill="none" stroke="url(#gradient2)" stroke-linecap="round" stroke-linejoin="round" stroke-width="0.25"/>
    <path d="M6.0 66.0 L5.1 71.55 Q4.5 73.65 3.3 73.45" fill="none" stroke="url(#gradient3)" stroke-linecap="round" stroke-linejoin="round" stroke-width="0.25"/>
    <path d="M2.3 71.75 Q1.7 71.75 1.25 71.3 0.8 70.85 0.8 70.25 0.8 69.65 1.25 69.2 1.7 68.75 2.3 68.75 2.9 68.75 3.35 69.2 3.8 69.65 3.8 70.25 3.8 70.85 3.35 71.3 2.9 71.75 2.3 71.75" fill="none" stroke="url(#gradient4)" stroke-linecap="round" stroke-linejoin="round" stroke-width="0.25"/>
    <path d="M3.7 66.7 L-0.5 66.1 -0.5 64.4 3.7 64.4 3.7 66.7" fill="#000000" fill-rule="evenodd" stroke="none"/>
    <path d="M9.0 -61.0 L9.0 30.0 -2.0 30.0 Q-0.25 28.65 -1.1 26.2 -2.0 23.65 -5.0 23.0 L-4.95 19.55 Q0.0 -54.85 0.0 -56.0 0.0 -61.15 2.55 -66.05 3.85 -68.55 5.5 -70.3 L6.3 -66.45 Q7.35 -62.65 9.0 -61.0" fill="url(#gradient5)" fill-rule="evenodd" stroke="none"/>
    <path d="M2.35 35.4 Q-0.65 36.35 -1.45 37.55 -2.15 37.1 -3.0 37.0 -3.15 34.7 -1.7 33.4 -0.75 32.5 0.45 32.3 5.1 31.5 9.0 33.0 8.45 33.45 8.2 34.5 5.25 34.5 2.35 35.4" fill="url(#gradient6)" fill-rule="evenodd" stroke="none"/>
    <path d="M1.4 34.5 L8.2 34.5 8.0 35.75 8.0 40.0 0.0 40.0 Q-0.2 38.6 -1.1 37.8 L-1.45 37.55 0.05 35.45 Q0.9 34.5 1.4 34.5" fill="url(#gradient7)" fill-rule="evenodd" stroke="none"/>
    <path d="M10.0 33.0 L1.0 33.0 Q0.25 33.1 -0.85 34.2 -2.1 35.4 -3.0 37.0 -5.45 35.8 -7.0 34.0 -4.0 33.5 -3.0 30.0 L11.0 30.0 10.0 33.0" fill="url(#gradient8)" fill-rule="evenodd" stroke="none"/>
    <path d="M5.95 68.8 L-2.25 67.65 -3.0 64.05 6.3 62.9 5.95 68.8" fill="#000000" fill-opacity="0.15294118" fill-rule="evenodd" stroke="none"/>
    <path d="M0.0 40.0 Q0.85 38.7 2.25 38.35 L8.0 38.0 7.95 56.0 Q7.65 66.35 6.0 68.0 L3.1 67.65 3.1 66.1 2.85 66.1 5.0 65.0 0.0 65.0 0.4 65.8 -0.15 67.25 -2.0 67.0 -3.0 64.0 0.0 64.0 2.0 47.0 2.0 40.0 0.0 40.0" fill="url(#gradient9)" fill-rule="evenodd" stroke="none"/>
    <path d="M0.4 65.75 L0.4 65.8 0.0 65.0 5.0 65.0 2.85 66.1 0.4 65.75" fill="url(#gradient10)" fill-rule="evenodd" stroke="none"/>
    <path d="M-2.0 47.0 L2.0 47.0 Q4.25 56.5 0.0 64.0 L-3.0 64.0 Q-0.1 60.7 0.15 56.05 0.45 51.35 -2.0 47.0" fill="url(#gradient11)" fill-rule="evenodd" stroke="none"/>
    <path d="M-2.0 47.0 Q-0.6 45.6 -0.1 43.75 0.45 41.85 0.0 40.0 L2.0 40.0 2.0 47.0 -2.0 47.0" fill="url(#gradient12)" fill-rule="evenodd" stroke="none"/>
    <path d="M7.05 39.0 L7.0 56.0 Q6.75 65.1 5.55 67.1 L5.35 67.3 3.75 67.1 3.6 66.75 3.6 66.1 3.5 65.8 3.15 65.6 0.5 65.25 0.45 65.25 0.15 65.35 -0.05 65.6 -0.35 66.3 -0.55 66.55 -1.55 66.45 -1.7 66.25 -2.0 64.0 Q0.65 61.2 1.1 56.3 1.6 51.15 -0.8 47.3 L-0.85 47.0 -0.75 46.75 Q0.3 45.65 0.8 43.9 1.35 42.05 1.0 40.25 L1.0 40.0 1.1 39.8 Q1.75 39.0 2.4 38.85 L6.55 38.5 6.9 38.65 7.05 39.0" fill="url(#gradient13)" fill-rule="evenodd" stroke="none"/>
    <path d="M2.5 25.5 Q2.5 24.9 2.95 24.45 3.4 24.0 4.0 24.0 4.6 24.0 5.05 24.45 5.5 24.9 5.5 25.5 L5.5 30.0 2.5 30.0 2.5 25.5" fill="#000000" fill-opacity="0.4117647" fill-rule="evenodd" stroke="none"/>
    <path d="M5.5 26.5 L5.5 30.0 2.5 30.0 2.5 26.5 Q2.5 25.9 2.95 25.45 3.4 25.0 4.0 25.0 4.6 25.0 5.05 25.45 5.5 25.9 5.5 26.5" fill="url(#gradient14)" fill-rule="evenodd" stroke="none"/>
    <path d="M8.0 2.0 L9.0 2.0 9.0 4.0 8.0 4.0 8.0 2.0 M9.0 7.0 L9.0 9.0 8.0 9.0 8.0 7.0 9.0 7.0 M8.0 12.0 L9.0 12.0 9.0 14.0 8.0 14.0 8.0 12.0 M9.0 17.0 L9.0 19.0 8.0 19.0 8.0 17.0 9.0 17.0 M8.0 22.0 L9.0 22.0 9.0 24.0 8.0 24.0 8.0 22.0" fill="#666666" fill-rule="evenodd" stroke="none"/>
    <path d="M9.0 -43.0 L9.0 -41.0 8.0 -41.0 8.0 -43.0 9.0 -43.0 M8.0 -38.0 L9.0 -38.0 9.0 -36.0 8.0 -36.0 8.0 -38.0 M9.0 -33.0 L9.0 -31.0 8.0 -31.0 8.0 -33.0 9.0 -33.0" fill="#adadad" fill-rule="evenodd" stroke="none"/>
    <path d="M8.0 -28.0 L9.0 -28.0 9.0 -26.0 8.0 -26.0 8.0 -28.0 M9.0 -23.0 L9.0 -21.0 8.0 -21.0 8.0 -23.0 9.0 -23.0" fill="#9f9f9f" fill-rule="evenodd" stroke="none"/>
    <path d="M9.0 -18.0 L9.0 -16.0 8.0 -16.0 8.0 -18.0 9.0 -18.0 M8.0 -13.0 L9.0 -13.0 9.0 -11.0 8.0 -11.0 8.0 -13.0 M9.0 -8.0 L9.0 -6.0 8.0 -6.0 8.0 -8.0 9.0 -8.0" fill="#919191" fill-rule="evenodd" stroke="none"/>
    <path d="M8.0 -3.0 L9.0 -3.0 9.0 -1.0 8.0 -1.0 8.0 -3.0" fill="#838383" fill-rule="evenodd" stroke="none"/>
    <path d="M8.0 -43.0 L8.0 -44.0 9.0 -44.0 9.0 -43.0 8.0 -43.0 M9.0 -38.0 L8.0 -38.0 8.0 -39.0 9.0 -39.0 9.0 -38.0 M8.0 -33.0 L8.0 -34.0 9.0 -34.0 9.0 -33.0 8.0 -33.0 M9.0 -28.0 L8.0 -28.0 8.0 -29.0 9.0 -29.0 9.0 -28.0 M8.0 -18.0 L8.0 -19.0 9.0 -19.0 9.0 -18.0 8.0 -18.0 M8.0 -23.0 L8.0 -24.0 9.0 -24.0 9.0 -23.0 8.0 -23.0 M9.0 -13.0 L8.0 -13.0 8.0 -14.0 9.0 -14.0 9.0 -13.0 M8.0 -8.0 L8.0 -9.0 9.0 -9.0 9.0 -8.0 8.0 -8.0 M9.0 -3.0 L8.0 -3.0 8.0 -4.0 9.0 -4.0 9.0 -3.0 M9.0 2.0 L8.0 2.0 8.0 1.0 9.0 1.0 9.0 2.0 M8.0 7.0 L8.0 6.0 9.0 6.0 9.0 7.0 8.0 7.0 M9.0 12.0 L8.0 12.0 8.0 11.0 9.0 11.0 9.0 12.0 M8.0 17.0 L8.0 16.0 9.0 16.0 9.0 17.0 8.0 17.0 M9.0 22.0 L8.0 22.0 8.0 21.0 9.0 21.0 9.0 22.0" fill="#464646" fill-rule="evenodd" stroke="none"/>
    <path d="M2.55 -66.05 Q0.0 -61.15 0.0 -56.0 L-1.0 16.7 -1.15 16.8 -4.95 19.55 -4.0 -58.0 Q-4.0 -63.15 -1.45 -68.05 1.2 -73.1 5.0 -75.0 L5.5 -70.3 Q3.85 -68.55 2.55 -66.05" fill="url(#gradient15)" fill-rule="evenodd" stroke="none"/>
    <path d="M4.5 60.55 L3.45 61.0 Q2.85 61.0 2.4 60.55 1.95 60.1 1.95 59.5 1.95 58.9 2.4 58.45 2.85 58.0 3.45 58.0 4.05 58.0 4.5 58.45 4.95 58.9 4.95 59.5 L4.5 60.55" fill="url(#gradient16)" fill-rule="evenodd" stroke="none"/>
  </g>
  <defs>
    <linearGradient gradientTransform="matrix(-0.0095, 0.0168, -0.0208, -0.0118, -1.1, 54.35)" gradientUnits="userSpaceOnUse" id="gradient0" spreadMethod="pad" x1="-819.2" x2="819.2">
      <stop offset="0.06666666666666667" stop-color="#3a3630"/>
      <stop offset="0.11372549019607843" stop-color="#655a52"/>
      <stop offset="0.5372549019607843" stop-color="#857b6b"/>
      <stop offset="0.6235294117647059" stop-color="#857b6b"/>
      <stop offset="0.8784313725490196" stop-color="#63594e"/>
      <stop offset="1.0" stop-color="#484237"/>
    </linearGradient>
    <linearGradient gradientTransform="matrix(0.0096, 0.0, 0.0, 0.0243, -1.8, 53.75)" gradientUnits="userSpaceOnUse" id="gradient1" spreadMethod="pad" x1="-819.2" x2="819.2">
      <stop offset="0.0" stop-color="#2b4040"/>
      <stop offset="0.48627450980392156" stop-color="#2f4845"/>
      <stop offset="0.7215686274509804" stop-color="#618f8e"/>
      <stop offset="0.8784313725490196" stop-color="#5a8180"/>
      <stop offset="1.0" stop-color="#8fb6b6"/>
    </linearGradient>
    <linearGradient gradientTransform="matrix(0.0096, 0.0, 0.0, 0.0243, -1.8, 53.75)" gradientUnits="userSpaceOnUse" id="gradient2" spreadMethod="pad" x1="-819.2" x2="819.2">
      <stop offset="0.0" stop-color="#2b4040"/>
      <stop offset="0.48627450980392156" stop-color="#2f4845"/>
      <stop offset="0.7215686274509804" stop-color="#618f8e"/>
      <stop offset="0.8784313725490196" stop-color="#5a8180"/>
      <stop offset="1.0" stop-color="#8fb6b6"/>
    </linearGradient>
    <linearGradient gradientTransform="matrix(0.0018, 2.0E-4, -0.0028, 0.0241, 6.15, 54.55)" gradientUnits="userSpaceOnUse" id="gradient3" spreadMethod="pad" x1="-819.2" x2="819.2">
      <stop offset="0.23921568627450981" stop-color="#5e534d"/>
      <stop offset="0.5568627450980392" stop-color="#67635f"/>
      <stop offset="1.0" stop-color="#ada69e"/>
    </linearGradient>
    <linearGradient gradientTransform="matrix(0.0024, 0.0, 0.0, 0.0243, 2.3, 53.5)" gradientUnits="userSpaceOnUse" id="gradient4" spreadMethod="pad" x1="-819.2" x2="819.2">
      <stop offset="0.01568627450980392" stop-color="#92867a"/>
      <stop offset="0.5725490196078431" stop-color="#37312b"/>
      <stop offset="1.0" stop-color="#574f44"/>
    </linearGradient>
    <linearGradient gradientTransform="matrix(0.0321, -0.0334, 0.0441, 0.0423, 2.0, -20.15)" gradientUnits="userSpaceOnUse" id="gradient5" spreadMethod="pad" x1="-819.2" x2="819.2">
      <stop offset="0.0" stop-color="#666666"/>
      <stop offset="0.4" stop-color="#9b9b9b"/>
      <stop offset="0.5725490196078431" stop-color="#bfbfbf"/>
      <stop offset="0.6980392156862745" stop-color="#e2e2e2"/>
      <stop offset="0.807843137254902" stop-color="#e2e2e2"/>
      <stop offset="1.0" stop-color="#b8b8b8"/>
    </linearGradient>
    <linearGradient gradientTransform="matrix(0.0073, 0.0, 0.0, 0.0028, 3.0, 35.25)" gradientUnits="userSpaceOnUse" id="gradient6" spreadMethod="pad" x1="-819.2" x2="819.2">
      <stop offset="0.00784313725490196" stop-color="#121816"/>
      <stop offset="0.2" stop-color="#2f4238"/>
      <stop offset="0.4392156862745098" stop-color="#4c6254"/>
      <stop offset="0.6039215686274509" stop-color="#506758"/>
      <stop offset="0.807843137254902" stop-color="#29382f"/>
      <stop offset="1.0" stop-color="#374842"/>
    </linearGradient>
    <radialGradient cx="0" cy="0" fx="41.6" fy="0" gradientTransform="matrix(0.0063, -4.0E-4, 8.0E-4, 0.0117, 3.4, 34.35)" gradientUnits="userSpaceOnUse" id="gradient7" r="819.2" spreadMethod="pad">
      <stop offset="0.07058823529411765" stop-color="#baa68b"/>
      <stop offset="0.21568627450980393" stop-color="#998a7b"/>
      <stop offset="0.7176470588235294" stop-color="#5f534b"/>
      <stop offset="1.0" stop-color="#847466"/>
    </radialGradient>
    <linearGradient gradientTransform="matrix(0.011, 0.0, 0.0, 0.0043, 2.0, 33.5)" gradientUnits="userSpaceOnUse" id="gradient8" spreadMethod="pad" x1="-819.2" x2="819.2">
      <stop offset="0.0" stop-color="#574a4a"/>
      <stop offset="0.47843137254901963" stop-color="#998a7b"/>
      <stop offset="0.6274509803921569" stop-color="#998a7b"/>
      <stop offset="0.8627450980392157" stop-color="#5f534b"/>
      <stop offset="1.0" stop-color="#847466"/>
    </linearGradient>
    <linearGradient gradientTransform="matrix(0.0121, -0.0038, 0.0055, 0.0174, 2.75, 52.75)" gradientUnits="userSpaceOnUse" id="gradient9" spreadMethod="pad" x1="-819.2" x2="819.2">
      <stop offset="0.0" stop-color="#2b4040"/>
      <stop offset="0.4196078431372549" stop-color="#2f4845"/>
      <stop offset="0.5882352941176471" stop-color="#4e726d"/>
      <stop offset="0.8549019607843137" stop-color="#528376"/>
      <stop offset="1.0" stop-color="#6aaa8a"/>
    </linearGradient>
    <linearGradient gradientTransform="matrix(0.0076, -3.0E-4, 8.0E-4, 0.0183, 2.8, 52.7)" gradientUnits="userSpaceOnUse" id="gradient10" spreadMethod="pad" x1="-819.2" x2="819.2">
      <stop offset="0.0" stop-color="#1a2626"/>
      <stop offset="1.0" stop-color="#2f4845"/>
    </linearGradient>
    <linearGradient gradientTransform="matrix(0.0099, -0.0078, 0.0113, 0.0144, 1.55, 53.05)" gradientUnits="userSpaceOnUse" id="gradient11" spreadMethod="pad" x1="-819.2" x2="819.2">
      <stop offset="0.023529411764705882" stop-color="#3d5857"/>
      <stop offset="0.30196078431372547" stop-color="#2f4240"/>
      <stop offset="1.0" stop-color="#111a16"/>
    </linearGradient>
    <linearGradient gradientTransform="matrix(0.0019, -0.0074, 0.0177, 0.0046, 11.35, 45.8)" gradientUnits="userSpaceOnUse" id="gradient12" spreadMethod="pad" x1="-819.2" x2="819.2">
      <stop offset="0.0" stop-color="#2b4040"/>
      <stop offset="0.24313725490196078" stop-color="#62958b"/>
      <stop offset="0.7607843137254902" stop-color="#2f4845"/>
    </linearGradient>
    <linearGradient gradientTransform="matrix(-0.0067, 0.0173, -0.0164, -0.0064, 2.7, 52.75)" gradientUnits="userSpaceOnUse" id="gradient13" spreadMethod="pad" x1="-819.2" x2="819.2">
      <stop offset="0.10196078431372549" stop-color="#2e4340"/>
      <stop offset="1.0" stop-color="#41705f"/>
    </linearGradient>
    <radialGradient cx="0" cy="0" gradientTransform="matrix(-2.0E-4, -0.0126, 0.004, -1.0E-4, 4.0, 31.0)" gradientUnits="userSpaceOnUse" id="gradient14" r="819.2" spreadMethod="pad">
      <stop offset="0.10196078431372549" stop-color="#bfbfbf"/>
      <stop offset="0.6" stop-color="#6a6a6a"/>
      <stop offset="1.0" stop-color="#555555"/>
    </radialGradient>
    <linearGradient gradientTransform="matrix(0.0316, -0.032, 0.041, 0.0405, 0.25, -27.75)" gradientUnits="userSpaceOnUse" id="gradient15" spreadMethod="pad" x1="-819.2" x2="819.2">
      <stop offset="0.050980392156862744" stop-color="#9b9b9b"/>
      <stop offset="0.24313725490196078" stop-color="#989898"/>
      <stop offset="0.44313725490196076" stop-color="#e2e2e2"/>
      <stop offset="0.615686274509804" stop-color="#ffffff"/>
      <stop offset="0.7176470588235294" stop-color="#ffffff"/>
      <stop offset="1.0" stop-color="#868686"/>
    </linearGradient>
    <radialGradient cx="0" cy="0" fx="169.60000000000002" fy="0" gradientTransform="matrix(0.0018, -8.0E-4, 8.0E-4, 0.0018, 3.45, 59.5)" gradientUnits="userSpaceOnUse" id="gradient16" r="819.2" spreadMethod="pad">
      <stop offset="0.18823529411764706" stop-color="#f0f0f0"/>
      <stop offset="0.24313725490196078" stop-color="#d0d0d0"/>
      <stop offset="0.3333333333333333" stop-color="#c2c2c2"/>
      <stop offset="0.615686274509804" stop-color="#9f9f9f"/>
      <stop offset="0.9215686274509803" stop-color="#6a6a6a"/>
    </radialGradient>
  </defs>
</svg>
