<?xml version="1.0" encoding="UTF-8" standalone="no"?>
<svg xmlns:xlink="http://www.w3.org/1999/xlink" height="63.0px" width="69.0px" xmlns="http://www.w3.org/2000/svg">
  <g transform="matrix(1.0, 0.0, 0.0, 1.0, 34.5, 31.5)">
    <path d="M28.35 -19.9 L28.5 -19.0 Q30.3 -3.0 34.4 12.3 L34.45 12.35 34.5 12.8 Q34.6 13.55 34.2 14.25 33.65 15.1 32.7 15.4 L32.65 15.45 Q27.7 17.55 21.0 22.05 16.3 25.1 8.5 31.0 L7.45 31.5 6.25 31.4 -25.5 21.45 -26.2 21.2 -26.25 21.15 -31.25 18.15 -31.75 17.8 -33.75 15.8 Q-34.5 15.05 -34.5 14.0 L-34.5 -10.0 -34.25 -11.1 -33.5 -12.0 -8.5 -31.0 -7.55 -31.45 -7.2 -31.5 -6.8 -31.5 -6.25 -31.4 26.75 -21.4 27.4 -21.1 27.9 -20.6 28.0 -20.5 28.35 -19.9" fill="#000000" fill-rule="evenodd" stroke="none"/>
    <path d="M7.0 29.0 L-25.0 19.0 -26.0 14.0 10.0 0.0 32.0 13.0 Q26.8 15.15 19.6 19.95 14.9 23.05 7.0 29.0" fill="url(#gradient0)" fill-rule="evenodd" stroke="none"/>
    <path d="M26.0 -19.0 Q27.8 -2.6 32.0 13.0 L10.0 0.0 8.0 -13.0 26.0 -19.0" fill="url(#gradient1)" fill-rule="evenodd" stroke="none"/>
    <path d="M-7.0 -29.0 L8.0 -13.0 10.0 0.0 -26.0 14.0 -32.0 11.0 -32.0 -10.0 -7.0 -29.0" fill="url(#gradient2)" fill-rule="evenodd" stroke="none"/>
    <path d="M8.0 -13.0 L-7.0 -29.0 26.0 -19.0 8.0 -13.0" fill="url(#gradient3)" fill-rule="evenodd" stroke="none"/>
    <path d="M-30.0 16.0 L-32.0 14.0 -32.0 11.0 Q-30.5 10.9 -28.7 11.8 -26.9 12.7 -26.0 14.0 L-25.0 19.0 -30.0 16.0" fill="url(#gradient4)" fill-rule="evenodd" stroke="none"/>
  </g>
  <defs>
    <linearGradient gradientTransform="matrix(-0.0038, 0.0216, -0.0173, -0.0031, 3.1, 14.75)" gradientUnits="userSpaceOnUse" id="gradient0" spreadMethod="pad" x1="-819.2" x2="819.2">
      <stop offset="0.011764705882352941" stop-color="#9394a0"/>
      <stop offset="0.7019607843137254" stop-color="#473854"/>
      <stop offset="1.0" stop-color="#3f2c23"/>
    </linearGradient>
    <linearGradient gradientTransform="matrix(-0.0124, 0.0019, -0.0029, -0.0193, 20.4, -0.25)" gradientUnits="userSpaceOnUse" id="gradient1" spreadMethod="pad" x1="-819.2" x2="819.2">
      <stop offset="0.12156862745098039" stop-color="#777795"/>
      <stop offset="0.9764705882352941" stop-color="#9a9aa5"/>
      <stop offset="1.0" stop-color="#eae9eb"/>
    </linearGradient>
    <radialGradient cx="0" cy="0" fx="-822.4000000000001" fy="0" gradientTransform="matrix(0.0363, -0.0364, 0.0364, 0.0363, -24.0, 4.0)" gradientUnits="userSpaceOnUse" id="gradient2" r="819.2" spreadMethod="pad">
      <stop offset="0.24313725490196078" stop-color="#201a26"/>
      <stop offset="0.4549019607843137" stop-color="#504161"/>
      <stop offset="0.6078431372549019" stop-color="#5c6278"/>
      <stop offset="0.9058823529411765" stop-color="#acb0bd"/>
    </radialGradient>
    <linearGradient gradientTransform="matrix(-0.002, 0.0067, -0.0093, -0.0028, 8.6, -17.8)" gradientUnits="userSpaceOnUse" id="gradient3" spreadMethod="pad" x1="-819.2" x2="819.2">
      <stop offset="0.0" stop-color="#bfbfcc"/>
      <stop offset="0.7176470588235294" stop-color="#eaedf0"/>
    </linearGradient>
    <linearGradient gradientTransform="matrix(0.0043, 0.0, 0.0, 0.0049, -28.5, 15.0)" gradientUnits="userSpaceOnUse" id="gradient4" spreadMethod="pad" x1="-819.2" x2="819.2">
      <stop offset="0.07450980392156863" stop-color="#9c9daf"/>
      <stop offset="0.10588235294117647" stop-color="#777795"/>
      <stop offset="0.8980392156862745" stop-color="#4e4a51"/>
    </linearGradient>
  </defs>
</svg>
