<?xml version="1.0" encoding="UTF-8" standalone="no"?>
<svg xmlns:xlink="http://www.w3.org/1999/xlink" height="21.9px" width="20.5px" xmlns="http://www.w3.org/2000/svg">
  <g transform="matrix(1.0, 0.0, 0.0, 1.0, 10.25, 10.25)">
    <path d="M7.25 -7.25 Q10.25 -4.3 10.25 0.0 10.25 4.3 7.25 7.25 4.3 10.25 0.0 10.25 -4.3 10.25 -7.25 7.25 -10.25 4.3 -10.25 0.0 -10.25 -4.3 -7.25 -7.25 -4.3 -10.25 0.0 -10.25 4.3 -10.25 7.25 -7.25" fill="url(#gradient0)" fill-rule="evenodd" stroke="none"/>
    <path d="M9.6 -3.8 L9.8 -3.0 Q5.15 -4.15 0.0 -4.15 -5.1 -4.15 -9.85 -3.0 L-9.5 -3.85 Q0.0 -6.15 9.6 -3.8 M-9.85 3.05 Q-5.1 4.2 0.0 4.2 5.15 4.2 9.8 3.05 L9.6 3.85 Q0.0 6.2 -9.5 3.9 L-9.85 3.05" fill="#ffffff" fill-rule="evenodd" stroke="none"/>
    <path d="M-2.25 -2.75 Q0.65 -2.75 2.75 -0.7 4.95 1.5 4.95 4.45 4.95 7.45 2.9 9.5 0.75 11.7 -2.25 11.65 -5.25 11.65 -7.4 9.5 -9.45 7.35 -9.45 4.45 -9.45 1.5 -7.4 -0.7 -5.25 -2.75 -2.25 -2.75" fill="url(#gradient1)" fill-rule="evenodd" stroke="none"/>
  </g>
  <defs>
    <radialGradient cx="0" cy="0" gradientTransform="matrix(0.0125, 0.0, 0.0, 0.0125, 0.0, 0.0)" gradientUnits="userSpaceOnUse" id="gradient0" r="819.2" spreadMethod="pad">
      <stop offset="0.0" stop-color="#c78af4"/>
      <stop offset="0.8784313725490196" stop-color="#c78af4"/>
      <stop offset="0.9098039215686274" stop-color="#cfa9f8"/>
    </radialGradient>
    <radialGradient cx="0" cy="0" gradientTransform="matrix(0.0099, 0.0, 0.0, 0.0099, -2.1, 4.8)" gradientUnits="userSpaceOnUse" id="gradient1" r="819.2" spreadMethod="pad">
      <stop offset="0.1568627450980392" stop-color="#5b0fa8" stop-opacity="0.3019608"/>
      <stop offset="1.0" stop-color="#c78af4" stop-opacity="0.0"/>
    </radialGradient>
  </defs>
</svg>
