<?xml version="1.0" encoding="UTF-8" standalone="no"?>
<svg xmlns:xlink="http://www.w3.org/1999/xlink" height="20.5px" width="20.5px" xmlns="http://www.w3.org/2000/svg">
  <g transform="matrix(1.0, 0.0, 0.0, 1.0, 10.25, 10.25)">
    <path d="M7.25 -7.25 Q10.25 -4.3 10.25 0.0 10.25 4.3 7.25 7.25 4.3 10.25 0.0 10.25 -4.3 10.25 -7.25 7.25 -10.25 4.3 -10.25 0.0 -10.25 -4.3 -7.25 -7.25 -4.3 -10.25 0.0 -10.25 4.3 -10.25 7.25 -7.25" fill="url(#gradient0)" fill-rule="evenodd" stroke="none"/>
    <path d="M9.6 -3.8 L9.8 -3.0 Q5.15 -4.15 0.0 -4.15 -5.1 -4.15 -9.85 -3.0 L-9.5 -3.85 Q0.0 -6.15 9.6 -3.8 M-9.85 3.05 Q-5.1 4.2 0.0 4.2 5.15 4.2 9.8 3.05 L9.6 3.85 Q0.0 6.2 -9.5 3.9 L-9.85 3.05" fill="#ffffff" fill-rule="evenodd" stroke="none"/>
    <path d="M-1.65 -4.15 Q1.25 -4.15 3.35 -2.1 5.55 0.1 5.55 3.05 5.55 6.05 3.5 8.1 1.35 10.3 -1.65 10.25 -4.65 10.25 -6.8 8.1 -8.85 5.95 -8.85 3.05 -8.85 0.1 -6.8 -2.1 -4.65 -4.15 -1.65 -4.15" fill="url(#gradient1)" fill-rule="evenodd" stroke="none"/>
  </g>
  <defs>
    <radialGradient cx="0" cy="0" gradientTransform="matrix(0.0126, 0.0, 0.0, 0.0126, 0.0, 0.0)" gradientUnits="userSpaceOnUse" id="gradient0" r="819.2" spreadMethod="pad">
      <stop offset="0.0" stop-color="#a3f2f8"/>
      <stop offset="0.8784313725490196" stop-color="#a3f2f8"/>
      <stop offset="0.9411764705882353" stop-color="#caf8fb"/>
    </radialGradient>
    <radialGradient cx="0" cy="0" gradientTransform="matrix(0.0099, 0.0, 0.0, 0.0099, -1.5, 3.4)" gradientUnits="userSpaceOnUse" id="gradient1" r="819.2" spreadMethod="pad">
      <stop offset="0.1568627450980392" stop-color="#0fa2a2" stop-opacity="0.3019608"/>
      <stop offset="1.0" stop-color="#a3f2f8" stop-opacity="0.0"/>
    </radialGradient>
  </defs>
</svg>
