<?xml version="1.0" encoding="UTF-8" standalone="no"?>
<svg xmlns:xlink="http://www.w3.org/1999/xlink" height="422.3px" width="305.0px" xmlns="http://www.w3.org/2000/svg">
  <g transform="matrix(1.0, 0.0, 0.0, 1.0, -289.0, -287.0)">
    <path d="M417.5 394.95 Q420.75 414.75 426.35 428.25 432.95 444.0 441.5 447.5 441.35 451.35 439.1 472.45 437.05 491.25 437.15 503.25 437.35 541.45 457.5 551.5 458.4 570.95 497.05 602.5 503.55 607.8 528.6 626.9 546.6 640.6 553.5 647.5 553.95 661.5 562.45 675.3 573.05 692.6 593.5 703.5 583.1 713.15 447.3 705.3 L354.9 698.9 313.5 695.5 Q310.95 687.8 315.5 669.75 L325.55 636.2 Q331.6 616.0 331.55 606.25 331.55 593.05 321.5 591.5 306.95 563.75 303.5 533.05 301.3 513.45 303.45 481.2 305.65 447.95 304.4 434.5 302.15 409.95 289.5 391.5 294.1 389.4 304.45 385.5 314.1 381.9 318.75 379.65 334.05 372.1 337.5 359.5 362.15 359.0 369.5 287.5 376.5 296.5 393.9 319.65 409.3 339.1 417.5 343.5 414.65 346.7 414.65 361.95 414.6 377.3 417.5 394.95" fill="url(#gradient0)" fill-rule="evenodd" stroke="none"/>
    <path d="M417.5 394.95 Q420.75 414.75 426.35 428.25 432.95 444.0 441.5 447.5 441.35 451.35 439.1 472.45 437.05 491.25 437.15 503.25 437.35 541.45 457.5 551.5 458.4 570.95 497.05 602.5 503.55 607.8 528.6 626.9 546.6 640.6 553.5 647.5 553.95 661.5 562.45 675.3 573.05 692.6 593.5 703.5 583.1 713.15 447.3 705.3 L354.9 698.9 313.5 695.5 Q310.95 687.8 315.5 669.75 L325.55 636.2 Q331.6 616.0 331.55 606.25 331.55 593.05 321.5 591.5 306.95 563.75 303.5 533.05 301.3 513.45 303.45 481.2 305.65 447.95 304.4 434.5 302.15 409.95 289.5 391.5 294.1 389.4 304.45 385.5 314.1 381.9 318.75 379.65 334.05 372.1 337.5 359.5 362.15 359.0 369.5 287.5 376.5 296.5 393.9 319.65 409.3 339.1 417.5 343.5 414.65 346.7 414.65 361.95 414.6 377.3 417.5 394.95 Z" fill="none" stroke="#16dfef" stroke-linecap="round" stroke-linejoin="round" stroke-width="1.0"/>
  </g>
  <defs>
    <linearGradient gradientTransform="matrix(2.0E-4, -0.3473, 0.3381, 2.0E-4, 289.55, 436.5)" gradientUnits="userSpaceOnUse" id="gradient0" spreadMethod="pad" x1="-819.2" x2="819.2">
      <stop offset="0.0" stop-color="#c8fdfc"/>
      <stop offset="0.5333333333333333" stop-color="#26eeed"/>
      <stop offset="1.0" stop-color="#21d5f3"/>
    </linearGradient>
  </defs>
</svg>
