<?xml version="1.0" encoding="UTF-8" standalone="no"?>
<svg xmlns:xlink="http://www.w3.org/1999/xlink" height="101.0px" width="107.0px" xmlns="http://www.w3.org/2000/svg">
  <g transform="matrix(1.0, 0.0, 0.0, 1.0, 50.5, 50.5)">
    <path d="M54.0 -50.5 Q55.05 -50.5 55.8 -49.75 56.5 -49.05 56.5 -48.0 L56.5 48.0 Q56.5 49.05 55.8 49.8 55.05 50.5 54.0 50.5 L49.0 50.5 48.5 50.45 48.0 50.5 -48.0 50.5 Q-49.05 50.5 -49.75 49.8 -50.5 49.05 -50.5 48.0 L-50.5 -48.0 Q-50.5 -49.05 -49.75 -49.75 -49.05 -50.5 -48.0 -50.5 L48.0 -50.5 48.5 -50.45 49.0 -50.5 54.0 -50.5" fill="#000000" fill-rule="evenodd" stroke="none"/>
    <path d="M49.0 -50.5 Q50.05 -50.5 50.8 -49.75 51.5 -49.05 51.5 -48.0 L51.5 48.0 Q51.5 49.05 50.8 49.8 50.05 50.5 49.0 50.5 L48.0 50.5 Q46.95 50.5 46.25 49.8 45.5 49.05 45.5 48.0 L45.5 -48.0 Q45.5 -49.05 46.25 -49.75 46.95 -50.5 48.0 -50.5 L49.0 -50.5" fill="#000000" fill-rule="evenodd" stroke="none"/>
    <path d="M48.0 48.0 L-48.0 48.0 -48.0 -48.0 48.0 -48.0 48.0 48.0" fill="url(#gradient0)" fill-rule="evenodd" stroke="none"/>
    <path d="M54.0 -48.0 L54.0 48.0 49.0 48.0 49.0 -48.0 54.0 -48.0" fill="url(#gradient1)" fill-rule="evenodd" stroke="none"/>
    <path d="M49.0 -48.0 L49.0 48.0 48.0 48.0 48.0 -48.0 49.0 -48.0" fill="#000000" fill-rule="evenodd" stroke="none"/>
    <path d="M0.0 -39.1 Q16.2 -39.15 27.65 -27.65 39.15 -16.15 39.15 0.0 39.15 16.15 27.65 27.65 16.2 39.15 0.0 39.15 -16.15 39.15 -27.6 27.65 -39.15 16.15 -39.1 0.0 -39.15 -16.15 -27.6 -27.65 -16.15 -39.15 0.0 -39.1 M27.5 -27.5 Q16.1 -38.85 0.0 -38.85 -16.05 -38.85 -27.45 -27.5 -38.85 -16.05 -38.85 0.0 -38.85 16.05 -27.45 27.5 -16.05 38.85 0.0 38.9 16.1 38.85 27.5 27.5 38.85 16.05 38.9 0.0 38.85 -16.05 27.5 -27.5 M0.0 -37.15 Q15.4 -37.2 26.25 -26.25 37.2 -15.35 37.2 0.0 37.2 15.35 26.25 26.25 15.4 37.2 0.0 37.2 -15.35 37.2 -26.2 26.25 -37.2 15.35 -37.15 0.0 -37.2 -15.35 -26.2 -26.25 -15.35 -37.2 0.0 -37.15 M26.1 -26.1 Q15.3 -36.9 0.0 -36.9 -15.25 -36.9 -26.1 -26.1 -36.9 -15.25 -36.9 0.0 -36.9 15.25 -26.1 26.1 -15.25 36.9 0.0 36.95 15.3 36.9 26.1 26.1 36.9 15.25 36.95 0.0 36.9 -15.25 26.1 -26.1 M0.0 -43.3 Q17.95 -43.35 30.65 -30.65 43.35 -17.9 43.35 0.0 43.35 17.9 30.65 30.65 17.95 43.35 0.0 43.35 -17.9 43.35 -30.6 30.65 -43.35 17.9 -43.3 0.0 -43.35 -17.9 -30.6 -30.65 -17.9 -43.35 0.0 -43.3 M30.45 -30.45 Q17.85 -43.05 0.0 -43.05 -17.8 -43.05 -30.4 -30.45 -43.05 -17.8 -43.05 0.0 -43.05 17.8 -30.4 30.45 -17.8 43.05 0.0 43.1 17.85 43.05 30.45 30.45 43.05 17.8 43.1 0.0 43.05 -17.8 30.45 -30.45 M0.0 -41.15 Q17.05 -41.2 29.1 -29.1 41.2 -17.0 41.2 0.0 41.2 17.0 29.1 29.1 17.05 41.2 0.0 41.2 -17.0 41.2 -29.05 29.1 -41.2 17.0 -41.15 0.0 -41.2 -17.0 -29.05 -29.1 -17.0 -41.2 0.0 -41.15 M28.95 -28.95 Q16.95 -40.9 0.0 -40.9 -16.9 -40.9 -28.9 -28.95 -40.9 -16.9 -40.9 0.0 -40.9 16.9 -28.9 28.95 -16.9 40.9 0.0 40.95 16.95 40.9 28.95 28.95 40.9 16.9 40.95 0.0 40.9 -16.9 28.95 -28.95" fill="#a553c1" fill-rule="evenodd" stroke="none"/>
    <path d="M-9.7 35.75 L-9.65 35.65 -9.55 35.65 -9.5 35.7 -9.45 35.8 -11.0 41.6 -11.05 41.65 -11.15 41.7 -11.25 41.65 -11.25 41.55 -9.7 35.75 M-21.6 37.3 L-21.6 37.2 -18.6 32.0 -18.5 31.95 -18.4 31.95 -18.35 32.05 -18.4 32.15 -21.4 37.35 -21.45 37.4 -21.55 37.35 -21.6 37.3 M-26.25 26.1 L-26.15 26.05 -26.05 26.05 -26.0 26.15 -26.05 26.25 -30.3 30.5 -30.4 30.55 -30.45 30.5 -30.5 30.4 -30.5 30.35 -26.25 26.1 M-31.9 18.45 L-31.85 18.55 -31.9 18.6 -37.1 21.6 -37.2 21.65 -37.3 21.6 -37.3 21.5 -37.25 21.4 -32.05 18.4 -31.95 18.4 -31.9 18.45 M-35.6 9.65 L-35.65 9.75 -41.5 11.3 -41.6 11.25 -41.65 11.2 -41.65 11.1 -41.55 11.05 -35.7 9.5 -35.65 9.5 -35.55 9.6 -35.6 9.65 M-37.3 -21.4 L-37.35 -21.45 -37.35 -21.55 -37.25 -21.6 -37.15 -21.6 -31.95 -18.6 -31.9 -18.5 -31.95 -18.4 -32.0 -18.35 -32.1 -18.4 -37.3 -21.4 M-30.5 -30.3 L-30.5 -30.4 -30.5 -30.5 -30.4 -30.5 -30.3 -30.5 -26.05 -26.25 -26.0 -26.15 -26.05 -26.05 -26.15 -26.0 -26.25 -26.05 -30.5 -30.3 M-18.5 -31.85 L-18.6 -31.9 -21.6 -37.1 -21.6 -37.2 -21.55 -37.3 -21.45 -37.3 -21.4 -37.25 -18.4 -32.05 -18.35 -31.95 -18.4 -31.9 -18.5 -31.85 M-11.1 -41.65 L-11.0 -41.55 -9.4 -35.7 -9.45 -35.65 -9.5 -35.55 -9.6 -35.6 -9.65 -35.65 -11.25 -41.5 -11.25 -41.6 -11.15 -41.65 -11.1 -41.65 M-41.65 -11.05 L-41.65 -11.15 -41.6 -11.25 -41.5 -11.25 -35.7 -9.7 -35.65 -9.65 -35.6 -9.55 -35.65 -9.5 -35.75 -9.45 -41.55 -11.0 -41.65 -11.05 M-43.1 -0.1 L-43.0 -0.1 -37.0 -0.1 -36.9 -0.1 -36.85 0.0 -36.9 0.1 -37.0 0.15 -43.0 0.15 -43.1 0.1 -43.1 0.0 -43.1 -0.1 M30.5 30.3 L30.55 30.4 30.5 30.5 30.4 30.55 30.3 30.5 26.05 26.25 26.05 26.15 26.05 26.05 26.15 26.05 26.25 26.05 30.5 30.3 M9.65 35.65 L9.75 35.75 11.3 41.55 11.25 41.6 11.2 41.7 11.1 41.65 11.05 41.6 9.5 35.8 9.5 35.7 9.6 35.65 9.65 35.65 M0.0 36.9 L0.1 36.9 0.15 37.0 0.15 43.0 0.1 43.1 0.0 43.15 -0.1 43.1 -0.1 43.0 -0.1 37.0 -0.1 36.9 0.0 36.9 M18.4 32.0 L18.45 31.9 18.55 31.9 18.6 31.95 21.6 37.15 21.65 37.25 21.6 37.3 21.5 37.35 21.4 37.3 18.4 32.1 18.4 32.0 M31.95 18.45 L32.05 18.4 32.15 18.4 37.35 21.4 37.4 21.5 37.35 21.6 37.3 21.65 37.2 21.6 32.0 18.6 31.95 18.55 31.95 18.45 M41.65 11.1 L41.7 11.2 41.6 11.25 41.55 11.3 35.75 9.75 35.65 9.65 35.65 9.6 35.7 9.5 35.8 9.5 41.6 11.05 41.65 11.1 M36.9 -0.1 L37.0 -0.1 43.0 -0.1 43.1 -0.1 43.15 0.0 43.1 0.1 43.0 0.15 37.0 0.15 36.9 0.1 36.9 0.0 36.9 -0.1 M35.7 -9.45 L35.65 -9.5 35.65 -9.6 35.75 -9.65 41.55 -11.25 41.6 -11.25 41.7 -11.15 41.65 -11.1 41.6 -11.0 35.8 -9.4 35.7 -9.45 M37.15 -21.6 L37.25 -21.6 37.3 -21.55 37.35 -21.45 37.3 -21.4 32.1 -18.4 32.0 -18.35 31.9 -18.4 31.9 -18.5 31.95 -18.6 37.15 -21.6 M0.0 -43.1 L0.1 -43.1 0.15 -43.0 0.15 -37.0 0.1 -36.9 0.0 -36.85 -0.1 -36.9 -0.1 -37.0 -0.1 -43.0 -0.1 -43.1 0.0 -43.1 M11.1 -41.65 L11.2 -41.65 11.25 -41.6 11.3 -41.5 9.75 -35.7 9.7 -35.65 9.6 -35.6 9.5 -35.65 9.5 -35.75 11.05 -41.55 11.1 -41.65 M26.25 -26.05 L26.15 -26.0 26.05 -26.05 26.05 -26.15 26.1 -26.25 30.35 -30.5 30.4 -30.5 30.5 -30.45 30.55 -30.4 30.5 -30.3 26.25 -26.05 M21.4 -37.3 L21.5 -37.35 21.6 -37.35 21.65 -37.25 21.6 -37.15 18.6 -31.95 18.55 -31.9 18.45 -31.95 18.4 -32.0 18.4 -32.1 21.4 -37.3" fill="#a553c1" fill-rule="evenodd" stroke="none"/>
  </g>
  <defs>
    <linearGradient gradientTransform="matrix(0.0, -0.0586, 0.0586, 0.0, 0.0, 0.0)" gradientUnits="userSpaceOnUse" id="gradient0" spreadMethod="pad" x1="-819.2" x2="819.2">
      <stop offset="0.0" stop-color="#2d173e"/>
      <stop offset="0.10588235294117647" stop-color="#30173e"/>
      <stop offset="1.0" stop-color="#5f3065"/>
    </linearGradient>
    <linearGradient gradientTransform="matrix(0.0, -0.0586, 0.0586, 0.0, 97.0, 0.0)" gradientUnits="userSpaceOnUse" id="gradient1" spreadMethod="pad" x1="-819.2" x2="819.2">
      <stop offset="0.0" stop-color="#2d173e"/>
      <stop offset="0.10196078431372549" stop-color="#31173f"/>
      <stop offset="1.0" stop-color="#5e2f64"/>
    </linearGradient>
  </defs>
</svg>
