<?xml version="1.0" encoding="UTF-8" standalone="no"?>
<svg xmlns:xlink="http://www.w3.org/1999/xlink" height="46.85px" width="400.6px" xmlns="http://www.w3.org/2000/svg">
  <g transform="matrix(1.0, 0.0, 0.0, 1.0, -35.4, 21.7)">
    <path d="M67.85 -2.75 Q76.1 -4.5 78.5 -4.5 93.35 -1.65 94.9 -0.9 L100.7 -2.0 107.75 -3.5 111.0 -1.5 Q114.75 0.5 117.5 0.5 L109.0 1.9 Q106.1 2.4 104.35 3.15 L103.75 3.45 100.2 2.75 Q96.85 2.0 93.5 2.0 85.65 2.0 78.8 3.3 L76.55 3.8 62.0 -1.55 67.85 -2.75 M180.0 -1.8 Q187.9 -2.35 193.0 -3.5 198.0 -4.55 204.25 -6.65 L209.75 -8.5 213.8 -6.5 Q217.8 -4.5 221.5 -4.5 223.2 -4.5 227.7 -5.8 L232.0 -5.5 Q240.4 -5.5 249.9 -8.0 L262.5 -12.0 Q264.1 -7.3 271.35 -5.35 276.25 -4.0 283.25 -4.0 286.9 -4.0 289.7 -5.35 292.3 -6.6 295.05 -9.3 299.0 -10.85 299.0 -14.0 299.0 -15.85 297.9 -18.15 L296.8 -20.15 298.9 -20.9 300.85 -21.7 310.5 -17.15 Q318.25 -13.5 321.65 -12.2 L336.6 -14.5 Q349.1 -16.85 355.2 -19.25 363.35 -16.0 372.25 -16.0 L392.15 -17.05 Q397.7 -12.55 403.7 -10.8 409.7 -9.1 413.0 -11.0 414.6 -9.4 425.9 -5.05 436.25 -1.0 436.0 0.0 435.75 1.1 427.35 4.95 417.85 9.25 416.25 10.5 396.15 10.5 387.0 12.75 382.95 13.8 374.15 18.0 363.8 16.5 358.0 16.5 348.75 16.5 340.2 18.7 L338.0 19.3 332.0 19.0 Q323.75 19.0 315.55 22.05 311.2 23.65 309.0 25.15 308.55 16.6 302.5 11.5 296.85 6.75 287.05 5.8 282.1 7.05 277.7 8.7 268.6 12.15 267.0 15.0 264.05 12.65 252.7 10.6 243.7 8.95 235.25 8.6 225.95 5.0 221.25 4.35 218.75 4.0 205.25 4.0 L191.55 4.55 Q185.25 5.1 183.5 6.0 182.65 3.5 179.1 0.9 L175.15 -1.5 180.0 -1.8 M158.05 6.75 L158.0 7.0 150.8 8.05 133.25 9.0 113.5 8.0 Q114.25 7.1 117.95 5.35 L121.1 4.55 126.5 3.5 149.0 3.95 149.5 4.0 150.9 4.35 153.55 5.0 Q157.4 5.95 158.5 6.5 158.2 6.5 158.05 6.75 M43.95 9.2 Q42.55 8.55 39.65 6.7 L35.4 3.85 Q38.9 2.25 45.5 2.0 46.35 2.0 49.2 3.25 52.05 4.5 53.0 4.5 L44.45 9.25 43.95 9.2" fill="url(#gradient0)" fill-rule="evenodd" stroke="none"/>
    <path d="M320.0 -7.85 L381.35 -5.65 Q416.5 -3.3 416.5 0.0 416.5 3.3 381.35 5.65 L320.0 7.85 320.0 -7.85" fill="#ffffff" fill-rule="evenodd" stroke="none"/>
  </g>
  <defs>
    <radialGradient cx="0" cy="0" fx="656.0" fy="0" gradientTransform="matrix(0.2734, 0.0, 0.0, 0.0593, 240.0, 0.0)" gradientUnits="userSpaceOnUse" id="gradient0" r="819.2" spreadMethod="pad">
      <stop offset="0.0" stop-color="#fcba43"/>
      <stop offset="0.10980392156862745" stop-color="#ff702b"/>
      <stop offset="0.28627450980392155" stop-color="#e71818"/>
      <stop offset="1.0" stop-color="#661a1a"/>
    </radialGradient>
  </defs>
</svg>
