<?xml version="1.0" encoding="UTF-8" standalone="no"?>
<svg xmlns:xlink="http://www.w3.org/1999/xlink" height="132.0px" width="39.0px" xmlns="http://www.w3.org/2000/svg">
  <g transform="matrix(1.0, 0.0, 0.0, 1.0, 19.5, 57.5)">
    <path d="M9.65 -57.4 Q13.7 -56.4 16.5 -53.05 L18.0 -51.0 Q19.5 -48.35 19.5 -45.55 19.5 -42.65 18.0 -40.0 L16.5 -37.9 Q13.7 -34.6 9.65 -33.55 L8.15 -33.65 Q7.4 -33.95 6.95 -34.55 6.5 -35.2 6.5 -36.0 L6.5 -38.8 5.3 -36.45 4.5 -34.6 4.5 -21.05 5.8 -19.75 Q6.5 -19.05 6.5 -18.0 L6.5 -6.0 Q6.5 -4.95 5.8 -4.2 L4.5 -2.95 4.5 18.55 Q5.5 19.6 5.5 21.0 5.5 22.4 4.5 23.45 L4.5 55.55 Q5.2 55.7 5.8 56.25 6.5 56.95 6.5 58.0 L6.5 60.0 Q6.5 60.85 6.0 61.5 L6.4 62.35 8.4 69.3 8.35 70.85 Q8.1 71.55 7.45 72.05 6.8 72.5 6.0 72.5 L5.55 72.5 5.25 73.15 4.3 74.15 3.0 74.5 -3.0 74.5 -4.3 74.15 -5.2 73.15 -5.5 72.5 -6.0 72.5 Q-6.8 72.5 -7.45 72.05 -8.1 71.55 -8.35 70.85 L-8.4 69.3 -6.4 62.35 -6.0 61.5 Q-6.5 60.85 -6.5 60.0 L-6.5 58.0 Q-6.5 56.95 -5.75 56.25 -5.2 55.7 -4.5 55.55 L-4.5 23.45 Q-5.5 22.4 -5.5 21.0 -5.5 19.6 -4.5 18.55 L-4.5 -2.95 -5.75 -4.2 Q-6.5 -4.95 -6.5 -6.0 L-6.5 -18.0 Q-6.5 -19.05 -5.75 -19.75 L-4.5 -21.05 -4.5 -34.6 -6.5 -38.8 -6.5 -36.0 Q-6.5 -35.2 -6.95 -34.55 -7.4 -33.95 -8.1 -33.65 L-9.6 -33.55 Q-13.7 -34.6 -16.5 -37.9 L-18.0 -40.0 Q-19.5 -42.7 -19.5 -45.55 -19.5 -49.5 -16.5 -53.05 -13.7 -56.4 -9.6 -57.4 L-8.1 -57.35 Q-7.4 -57.05 -6.95 -56.4 -6.5 -55.8 -6.5 -55.0 L-6.5 -52.45 -6.3 -52.15 -5.0 -52.5 -3.3 -52.5 -2.05 -54.35 Q-1.6 -55.1 -0.8 -55.35 0.0 -55.65 0.8 -55.35 L2.1 -54.35 3.35 -52.5 5.0 -52.5 6.3 -52.15 6.5 -52.45 6.5 -55.0 Q6.5 -55.8 6.95 -56.4 L8.15 -57.35 9.65 -57.4" fill="#000000" fill-rule="evenodd" stroke="none"/>
    <path d="M5.45 68.0 L-5.4 68.0 -4.0 63.0 4.0 63.0 5.45 68.0" fill="url(#gradient0)" fill-rule="evenodd" stroke="none"/>
    <path d="M6.0 70.0 L-6.0 70.0 -5.4 68.0 5.45 68.0 6.0 70.0" fill="url(#gradient1)" fill-rule="evenodd" stroke="none"/>
    <path d="M3.0 72.0 L-3.0 72.0 -4.0 70.0 4.0 70.0 3.0 72.0" fill="url(#gradient2)" fill-rule="evenodd" stroke="none"/>
    <path d="M2.0 62.0 L-2.0 62.0 -2.0 60.0 2.0 60.0 2.0 62.0" fill="url(#gradient3)" fill-rule="evenodd" stroke="none"/>
    <path d="M2.0 61.0 L-2.0 61.0 -2.0 60.0 2.0 60.0 2.0 61.0" fill="#000000" fill-opacity="0.2" fill-rule="evenodd" stroke="none"/>
    <path d="M2.0 63.0 L-2.0 63.0 -2.0 62.0 2.0 62.0 2.0 63.0" fill="url(#gradient4)" fill-rule="evenodd" stroke="none"/>
    <path d="M2.0 58.0 L-2.0 58.0 -2.0 23.0 2.0 23.0 2.0 58.0" fill="url(#gradient5)" fill-rule="evenodd" stroke="none"/>
    <path d="M-0.6 23.0 L-2.0 24.2 M2.0 30.85 L-2.0 34.2 M2.0 35.85 L-2.0 39.2 M2.0 40.85 L-2.0 44.2 M2.0 45.85 L-2.0 49.2 M2.0 50.85 L-2.0 54.2 M2.0 25.85 L-2.0 29.2 M2.0 55.85 L-0.6 58.0" fill="none" stroke="url(#gradient6)" stroke-linecap="round" stroke-linejoin="round" stroke-width="0.5"/>
    <path d="M4.0 60.0 L-4.0 60.0 -4.0 58.0 4.0 58.0 4.0 60.0" fill="url(#gradient7)" fill-rule="evenodd" stroke="none"/>
    <path d="M2.0 23.0 L-2.0 23.0 -2.0 -4.0 2.0 -4.0 2.0 23.0" fill="url(#gradient8)" fill-rule="evenodd" stroke="none"/>
    <path d="M2.0 -21.0 L-2.0 -21.0 -2.0 -22.0 2.0 -22.0 2.0 -21.0" fill="url(#gradient9)" fill-rule="evenodd" stroke="none"/>
    <path d="M2.0 -4.0 L-2.0 -4.0 -4.0 -6.0 4.0 -6.0 2.0 -4.0" fill="url(#gradient10)" fill-rule="evenodd" stroke="none"/>
    <path d="M2.0 -20.0 L4.0 -18.0 -4.0 -18.0 -2.0 -20.0 2.0 -20.0" fill="url(#gradient11)" fill-rule="evenodd" stroke="none"/>
    <path d="M4.0 -6.0 L-4.0 -6.0 -4.0 -18.0 4.0 -18.0 4.0 -6.0" fill="url(#gradient12)" fill-rule="evenodd" stroke="none"/>
    <path d="M2.0 20.0 Q2.4 20.0 2.7 20.3 L3.0 21.0 2.7 21.7 2.0 22.0 -2.0 22.0 -2.7 21.7 -3.0 21.0 -2.7 20.3 Q-2.4 20.0 -2.0 20.0 L2.0 20.0" fill="url(#gradient13)" fill-rule="evenodd" stroke="none"/>
    <path d="M2.0 -20.0 L-2.0 -20.0 -2.0 -36.0 2.0 -36.0 2.0 -20.0" fill="url(#gradient14)" fill-rule="evenodd" stroke="none"/>
    <path d="M2.0 -35.0 L-2.0 -35.0 -2.0 -36.0 2.0 -36.0 2.0 -35.0" fill="url(#gradient15)" fill-rule="evenodd" stroke="none"/>
    <path d="M5.0 -41.0 Q3.35 -38.85 2.35 -36.0 L-2.3 -36.0 Q-3.35 -38.85 -5.0 -41.0 L5.0 -41.0" fill="url(#gradient16)" fill-rule="evenodd" stroke="none"/>
    <path d="M5.0 -41.0 L-5.0 -41.0 -5.0 -50.0 5.0 -50.0 5.0 -41.0" fill="url(#gradient17)" fill-rule="evenodd" stroke="none"/>
    <path d="M0.0 -53.0 L2.0 -50.0 -2.0 -50.0 0.0 -53.0" fill="url(#gradient18)" fill-rule="evenodd" stroke="none"/>
    <path d="M7.3 -49.75 Q8.65 -50.65 9.0 -52.0 L9.0 -46.0 9.0 -40.0 Q8.65 -41.35 7.3 -42.25 6.05 -43.05 5.0 -43.0 L5.0 -46.0 5.0 -49.0 Q6.05 -48.95 7.3 -49.75" fill="url(#gradient19)" fill-rule="evenodd" stroke="none"/>
    <path d="M-7.3 -49.75 Q-6.05 -48.95 -5.0 -49.0 L-5.0 -46.0 -5.0 -43.0 Q-6.05 -43.05 -7.3 -42.25 -8.65 -41.35 -9.0 -40.0 L-9.0 -46.0 -9.0 -52.0 Q-8.65 -50.65 -7.3 -49.75" fill="url(#gradient20)" fill-rule="evenodd" stroke="none"/>
    <path d="M14.6 -51.45 Q16.95 -48.65 17.0 -45.5 16.95 -42.35 14.6 -39.55 12.3 -36.85 9.0 -36.0 L9.0 -55.0 Q12.3 -54.15 14.6 -51.45" fill="url(#gradient21)" fill-rule="evenodd" stroke="none"/>
    <path d="M-14.6 -51.45 Q-12.3 -54.15 -9.0 -55.0 L-9.0 -36.0 Q-12.3 -36.85 -14.6 -39.55 -16.95 -42.35 -17.0 -45.5 -16.95 -48.65 -14.6 -51.45" fill="url(#gradient22)" fill-rule="evenodd" stroke="none"/>
    <path d="M2.0 -1.0 L-2.0 -1.0 -2.0 -2.0 2.0 -2.0 2.0 -1.0 M2.0 -22.0 L-2.0 -22.0 -2.0 -23.0 2.0 -23.0 2.0 -22.0 M-4.0 70.0 L4.0 70.0 4.0 71.0 -4.0 71.0 -4.0 70.0 M-6.0 67.0 L6.0 67.0 6.0 68.0 -6.0 68.0 -6.0 67.0" fill="#000000" fill-opacity="0.2901961" fill-rule="evenodd" stroke="none"/>
  </g>
  <defs>
    <linearGradient gradientTransform="matrix(0.0066, 0.0, 0.0, 0.0031, 0.0, 65.5)" gradientUnits="userSpaceOnUse" id="gradient0" spreadMethod="pad" x1="-819.2" x2="819.2">
      <stop offset="0.0" stop-color="#606060"/>
      <stop offset="0.11372549019607843" stop-color="#5b5b5b"/>
      <stop offset="0.23529411764705882" stop-color="#a49393"/>
      <stop offset="0.3254901960784314" stop-color="#c2c2c2"/>
      <stop offset="0.4549019607843137" stop-color="#f4f4f4"/>
      <stop offset="0.5607843137254902" stop-color="#f4f4f4"/>
      <stop offset="0.6823529411764706" stop-color="#c2c2c2"/>
      <stop offset="0.7647058823529411" stop-color="#a49393"/>
      <stop offset="0.8823529411764706" stop-color="#5b5b5b"/>
      <stop offset="1.0" stop-color="#606060"/>
    </linearGradient>
    <linearGradient gradientTransform="matrix(0.0073, 0.0, 0.0, 0.0012, 0.0, 69.0)" gradientUnits="userSpaceOnUse" id="gradient1" spreadMethod="pad" x1="-819.2" x2="819.2">
      <stop offset="0.0" stop-color="#606060"/>
      <stop offset="0.11372549019607843" stop-color="#5b5b5b"/>
      <stop offset="0.23529411764705882" stop-color="#a49393"/>
      <stop offset="0.3254901960784314" stop-color="#c2c2c2"/>
      <stop offset="0.4549019607843137" stop-color="#f4f4f4"/>
      <stop offset="0.5607843137254902" stop-color="#f4f4f4"/>
      <stop offset="0.6823529411764706" stop-color="#c2c2c2"/>
      <stop offset="0.7647058823529411" stop-color="#a49393"/>
      <stop offset="0.8823529411764706" stop-color="#5b5b5b"/>
      <stop offset="1.0" stop-color="#606060"/>
    </linearGradient>
    <linearGradient gradientTransform="matrix(0.0049, 0.0, 0.0, 0.0012, 0.0, 71.0)" gradientUnits="userSpaceOnUse" id="gradient2" spreadMethod="pad" x1="-819.2" x2="819.2">
      <stop offset="0.01568627450980392" stop-color="#383838"/>
      <stop offset="0.1568627450980392" stop-color="#645b5b"/>
      <stop offset="0.24705882352941178" stop-color="#837e7e"/>
      <stop offset="0.43529411764705883" stop-color="#aaaaaa"/>
      <stop offset="0.5686274509803921" stop-color="#aaaaaa"/>
      <stop offset="0.7686274509803922" stop-color="#837e7e"/>
      <stop offset="0.8470588235294118" stop-color="#645b5b"/>
      <stop offset="0.9803921568627451" stop-color="#383838"/>
    </linearGradient>
    <linearGradient gradientTransform="matrix(0.0024, 0.0, 0.0, 0.0012, 0.0, 61.0)" gradientUnits="userSpaceOnUse" id="gradient3" spreadMethod="pad" x1="-819.2" x2="819.2">
      <stop offset="0.0" stop-color="#606060"/>
      <stop offset="0.11372549019607843" stop-color="#5b5b5b"/>
      <stop offset="0.23529411764705882" stop-color="#a49393"/>
      <stop offset="0.3254901960784314" stop-color="#c2c2c2"/>
      <stop offset="0.4549019607843137" stop-color="#f4f4f4"/>
      <stop offset="0.5607843137254902" stop-color="#f4f4f4"/>
      <stop offset="0.6823529411764706" stop-color="#c2c2c2"/>
      <stop offset="0.7647058823529411" stop-color="#a49393"/>
      <stop offset="0.8823529411764706" stop-color="#5b5b5b"/>
      <stop offset="1.0" stop-color="#606060"/>
    </linearGradient>
    <linearGradient gradientTransform="matrix(0.0024, 0.0, 0.0, 6.0E-4, 0.0, 62.5)" gradientUnits="userSpaceOnUse" id="gradient4" spreadMethod="pad" x1="-819.2" x2="819.2">
      <stop offset="0.11372549019607843" stop-color="#11384a"/>
      <stop offset="0.3254901960784314" stop-color="#255aa0"/>
      <stop offset="0.47843137254901963" stop-color="#2773d8"/>
      <stop offset="0.5490196078431373" stop-color="#2773d8"/>
      <stop offset="0.6862745098039216" stop-color="#255aa0"/>
      <stop offset="0.8823529411764706" stop-color="#11384a"/>
    </linearGradient>
    <linearGradient gradientTransform="matrix(0.0024, 0.0, 0.0, 0.0214, 0.0, 40.5)" gradientUnits="userSpaceOnUse" id="gradient5" spreadMethod="pad" x1="-819.2" x2="819.2">
      <stop offset="0.11372549019607843" stop-color="#11384a"/>
      <stop offset="0.3254901960784314" stop-color="#255aa0"/>
      <stop offset="0.47843137254901963" stop-color="#2773d8"/>
      <stop offset="0.5490196078431373" stop-color="#2773d8"/>
      <stop offset="0.6862745098039216" stop-color="#255aa0"/>
      <stop offset="0.8823529411764706" stop-color="#11384a"/>
    </linearGradient>
    <linearGradient gradientTransform="matrix(0.0027, 0.0, 0.0, 0.0217, 0.0, 40.5)" gradientUnits="userSpaceOnUse" id="gradient6" spreadMethod="pad" x1="-819.2" x2="819.2">
      <stop offset="0.11372549019607843" stop-color="#126389"/>
      <stop offset="0.3254901960784314" stop-color="#2796de"/>
      <stop offset="0.47843137254901963" stop-color="#3995f0"/>
      <stop offset="0.5607843137254902" stop-color="#3995f0"/>
      <stop offset="0.6862745098039216" stop-color="#2796de"/>
      <stop offset="0.8823529411764706" stop-color="#126389"/>
    </linearGradient>
    <linearGradient gradientTransform="matrix(0.0049, 0.0, 0.0, 0.0012, 0.0, 59.0)" gradientUnits="userSpaceOnUse" id="gradient7" spreadMethod="pad" x1="-819.2" x2="819.2">
      <stop offset="0.0" stop-color="#606060"/>
      <stop offset="0.11372549019607843" stop-color="#5b5b5b"/>
      <stop offset="0.23529411764705882" stop-color="#a49393"/>
      <stop offset="0.3254901960784314" stop-color="#c2c2c2"/>
      <stop offset="0.4549019607843137" stop-color="#f4f4f4"/>
      <stop offset="0.5607843137254902" stop-color="#f4f4f4"/>
      <stop offset="0.6823529411764706" stop-color="#c2c2c2"/>
      <stop offset="0.7647058823529411" stop-color="#a49393"/>
      <stop offset="0.8823529411764706" stop-color="#5b5b5b"/>
      <stop offset="1.0" stop-color="#606060"/>
    </linearGradient>
    <linearGradient gradientTransform="matrix(0.0024, 0.0, 0.0, 0.0153, 0.0, 10.5)" gradientUnits="userSpaceOnUse" id="gradient8" spreadMethod="pad" x1="-819.2" x2="819.2">
      <stop offset="0.0" stop-color="#606060"/>
      <stop offset="0.11372549019607843" stop-color="#5b5b5b"/>
      <stop offset="0.23529411764705882" stop-color="#a49393"/>
      <stop offset="0.3254901960784314" stop-color="#c2c2c2"/>
      <stop offset="0.4549019607843137" stop-color="#f4f4f4"/>
      <stop offset="0.5607843137254902" stop-color="#f4f4f4"/>
      <stop offset="0.6823529411764706" stop-color="#c2c2c2"/>
      <stop offset="0.7647058823529411" stop-color="#a49393"/>
      <stop offset="0.8823529411764706" stop-color="#5b5b5b"/>
      <stop offset="1.0" stop-color="#606060"/>
    </linearGradient>
    <linearGradient gradientTransform="matrix(0.0024, 0.0, 0.0, 6.0E-4, 0.0, -21.5)" gradientUnits="userSpaceOnUse" id="gradient9" spreadMethod="pad" x1="-819.2" x2="819.2">
      <stop offset="0.24705882352941178" stop-color="#cdc7c7"/>
      <stop offset="0.49019607843137253" stop-color="#b4b1b1"/>
      <stop offset="0.8627450980392157" stop-color="#7b7b7b"/>
      <stop offset="1.0" stop-color="#989898"/>
    </linearGradient>
    <radialGradient cx="0" cy="0" gradientTransform="matrix(0.0061, 0.0, 0.0, 0.0061, 0.0, -6.0)" gradientUnits="userSpaceOnUse" id="gradient10" r="819.2" spreadMethod="pad">
      <stop offset="0.2" stop-color="#7b7b7b"/>
      <stop offset="0.6862745098039216" stop-color="#434343"/>
      <stop offset="0.9568627450980393" stop-color="#8a8a8a"/>
    </radialGradient>
    <radialGradient cx="0" cy="0" gradientTransform="matrix(0.0049, 0.0, 0.0, 0.006, 0.0, -18.0)" gradientUnits="userSpaceOnUse" id="gradient11" r="819.2" spreadMethod="pad">
      <stop offset="0.00392156862745098" stop-color="#ffffff"/>
      <stop offset="0.3607843137254902" stop-color="#e2e2e2"/>
      <stop offset="0.4745098039215686" stop-color="#d9d1d0"/>
      <stop offset="0.7450980392156863" stop-color="#837c7c"/>
    </radialGradient>
    <linearGradient gradientTransform="matrix(0.0049, 0.0, 0.0, 0.0073, 0.0, -12.0)" gradientUnits="userSpaceOnUse" id="gradient12" spreadMethod="pad" x1="-819.2" x2="819.2">
      <stop offset="0.0" stop-color="#606060"/>
      <stop offset="0.11372549019607843" stop-color="#5b5b5b"/>
      <stop offset="0.23529411764705882" stop-color="#a49393"/>
      <stop offset="0.3254901960784314" stop-color="#c2c2c2"/>
      <stop offset="0.4549019607843137" stop-color="#f4f4f4"/>
      <stop offset="0.5607843137254902" stop-color="#f4f4f4"/>
      <stop offset="0.6823529411764706" stop-color="#c2c2c2"/>
      <stop offset="0.7647058823529411" stop-color="#a49393"/>
      <stop offset="0.8823529411764706" stop-color="#5b5b5b"/>
      <stop offset="1.0" stop-color="#606060"/>
    </linearGradient>
    <radialGradient cx="0" cy="0" gradientTransform="matrix(0.0046, 0.0, 0.0, 0.0018, 0.0, 21.0)" gradientUnits="userSpaceOnUse" id="gradient13" r="819.2" spreadMethod="pad">
      <stop offset="0.10588235294117647" stop-color="#ffffff"/>
      <stop offset="0.34901960784313724" stop-color="#cdcdcd"/>
      <stop offset="0.4980392156862745" stop-color="#bdadac"/>
      <stop offset="0.7568627450980392" stop-color="#404040"/>
      <stop offset="0.8823529411764706" stop-color="#434343"/>
    </radialGradient>
    <linearGradient gradientTransform="matrix(0.0024, 0.0, 0.0, 0.0079, 0.0, -28.5)" gradientUnits="userSpaceOnUse" id="gradient14" spreadMethod="pad" x1="-819.2" x2="819.2">
      <stop offset="0.0" stop-color="#606060"/>
      <stop offset="0.11372549019607843" stop-color="#5b5b5b"/>
      <stop offset="0.23529411764705882" stop-color="#a49393"/>
      <stop offset="0.3254901960784314" stop-color="#c2c2c2"/>
      <stop offset="0.4549019607843137" stop-color="#f4f4f4"/>
      <stop offset="0.5607843137254902" stop-color="#f4f4f4"/>
      <stop offset="0.6823529411764706" stop-color="#c2c2c2"/>
      <stop offset="0.7647058823529411" stop-color="#a49393"/>
      <stop offset="0.8823529411764706" stop-color="#5b5b5b"/>
      <stop offset="1.0" stop-color="#606060"/>
    </linearGradient>
    <linearGradient gradientTransform="matrix(0.0024, 0.0, 0.0, 6.0E-4, 0.0, -35.5)" gradientUnits="userSpaceOnUse" id="gradient15" spreadMethod="pad" x1="-819.2" x2="819.2">
      <stop offset="0.0" stop-color="#4e4e4e"/>
      <stop offset="0.11372549019607843" stop-color="#3c3c3c"/>
      <stop offset="0.23529411764705882" stop-color="#736262"/>
      <stop offset="0.3254901960784314" stop-color="#8a8a8a"/>
      <stop offset="0.4549019607843137" stop-color="#a6a6a6"/>
      <stop offset="0.5607843137254902" stop-color="#a6a6a6"/>
      <stop offset="0.6823529411764706" stop-color="#8a8a8a"/>
      <stop offset="0.7647058823529411" stop-color="#736262"/>
      <stop offset="0.8823529411764706" stop-color="#3c3c3c"/>
      <stop offset="1.0" stop-color="#4e4e4e"/>
    </linearGradient>
    <linearGradient gradientTransform="matrix(0.0, -0.0031, 0.0031, 0.0, 0.0, -38.5)" gradientUnits="userSpaceOnUse" id="gradient16" spreadMethod="pad" x1="-819.2" x2="819.2">
      <stop offset="0.06666666666666667" stop-color="#8b8989"/>
      <stop offset="0.32941176470588235" stop-color="#777171"/>
      <stop offset="1.0" stop-color="#434343"/>
    </linearGradient>
    <linearGradient gradientTransform="matrix(0.0, -0.0061, 0.0055, 0.0, 0.0, -45.5)" gradientUnits="userSpaceOnUse" id="gradient17" spreadMethod="pad" x1="-819.2" x2="819.2">
      <stop offset="0.0" stop-color="#cacaca"/>
      <stop offset="0.29411764705882354" stop-color="#cdcdcd"/>
      <stop offset="0.43137254901960786" stop-color="#c2c2c2"/>
      <stop offset="0.7803921568627451" stop-color="#aea6a6"/>
      <stop offset="1.0" stop-color="#808080"/>
    </linearGradient>
    <linearGradient gradientTransform="matrix(0.0, 0.0018, -0.0018, 0.0, 0.0, -51.5)" gradientUnits="userSpaceOnUse" id="gradient18" spreadMethod="pad" x1="-819.2" x2="819.2">
      <stop offset="0.24705882352941178" stop-color="#cdc7c7"/>
      <stop offset="0.49019607843137253" stop-color="#b4b1b1"/>
      <stop offset="0.8627450980392157" stop-color="#7b7b7b"/>
      <stop offset="1.0" stop-color="#989898"/>
    </linearGradient>
    <radialGradient cx="0" cy="0" gradientTransform="matrix(0.0074, 0.0, 0.0, -0.0074, 5.15, -46.4)" gradientUnits="userSpaceOnUse" id="gradient19" r="819.2" spreadMethod="pad">
      <stop offset="0.058823529411764705" stop-color="#bbbbbb"/>
      <stop offset="0.1450980392156863" stop-color="#9f9f9f"/>
      <stop offset="0.29411764705882354" stop-color="#887977"/>
      <stop offset="0.6941176470588235" stop-color="#434343"/>
      <stop offset="1.0" stop-color="#2e2e2e"/>
    </radialGradient>
    <radialGradient cx="0" cy="0" gradientTransform="matrix(-0.0074, 0.0, 0.0, -0.0074, -5.15, -46.4)" gradientUnits="userSpaceOnUse" id="gradient20" r="819.2" spreadMethod="pad">
      <stop offset="0.058823529411764705" stop-color="#bbbbbb"/>
      <stop offset="0.1450980392156863" stop-color="#9f9f9f"/>
      <stop offset="0.29411764705882354" stop-color="#887977"/>
      <stop offset="0.6941176470588235" stop-color="#434343"/>
      <stop offset="1.0" stop-color="#2e2e2e"/>
    </radialGradient>
    <radialGradient cx="0" cy="0" gradientTransform="matrix(-0.0121, 0.0, 0.0, 0.0148, 9.5, -45.5)" gradientUnits="userSpaceOnUse" id="gradient21" r="819.2" spreadMethod="pad">
      <stop offset="0.10980392156862745" stop-color="#f4f4f4"/>
      <stop offset="0.3137254901960784" stop-color="#bfbfbf"/>
      <stop offset="0.43137254901960786" stop-color="#a79b98"/>
      <stop offset="0.6784313725490196" stop-color="#434343"/>
      <stop offset="0.8549019607843137" stop-color="#8a8a8a"/>
    </radialGradient>
    <radialGradient cx="0" cy="0" gradientTransform="matrix(0.0121, 0.0, 0.0, 0.0148, -9.5, -45.5)" gradientUnits="userSpaceOnUse" id="gradient22" r="819.2" spreadMethod="pad">
      <stop offset="0.10980392156862745" stop-color="#f4f4f4"/>
      <stop offset="0.3137254901960784" stop-color="#bfbfbf"/>
      <stop offset="0.43137254901960786" stop-color="#a79b98"/>
      <stop offset="0.6784313725490196" stop-color="#434343"/>
      <stop offset="0.8549019607843137" stop-color="#8a8a8a"/>
    </radialGradient>
  </defs>
</svg>
