<?xml version="1.0" encoding="UTF-8" standalone="no"?>
<svg xmlns:xlink="http://www.w3.org/1999/xlink" height="928.0px" width="928.0px" xmlns="http://www.w3.org/2000/svg">
  <g transform="matrix(1.0, 0.0, 0.0, 1.0, 464.0, 464.0)">
    <path d="M26.6 -200.5 Q24.55 -173.95 21.15 -146.4 11.75 -69.8 0.1 -49.0 -11.6 -69.8 -21.1 -146.4 -24.5 -173.95 -26.6 -200.5 -28.45 -224.3 -28.0 -230.0 -26.6 -247.6 -23.35 -291.9 -20.15 -333.9 -17.45 -361.8 -9.45 -444.2 0.0 -464.0 9.4 -444.2 17.45 -361.8 20.15 -333.75 23.35 -291.9 26.6 -247.6 28.0 -230.0 28.45 -224.3 26.6 -200.5" fill="url(#gradient0)" fill-rule="evenodd" stroke="none"/>
    <path d="M9.6 -9.75 Q17.2 -2.25 48.0 0.0 16.95 2.05 9.6 9.45 2.4 16.8 0.0 48.0 -2.4 16.95 -9.95 9.6 -17.3 2.25 -48.0 0.0 -17.3 -2.55 -9.95 -10.1 -2.55 -17.55 0.0 -48.0 2.25 -17.15 9.6 -9.75" fill="url(#gradient1)" fill-rule="evenodd" stroke="none"/>
    <path d="M49.0 -0.1 Q69.8 -11.75 146.4 -21.15 173.95 -24.55 200.5 -26.6 L230.0 -28.0 291.9 -23.35 361.8 -17.45 Q444.2 -9.4 464.0 0.0 444.2 9.45 361.8 17.45 L291.9 23.35 230.0 28.0 200.5 26.6 Q173.95 24.5 146.4 21.1 69.8 11.6 49.0 -0.1" fill="url(#gradient2)" fill-rule="evenodd" stroke="none"/>
    <path d="M0.1 49.0 Q11.75 69.8 21.15 146.4 24.55 173.95 26.6 200.5 28.45 224.3 28.0 230.0 26.6 247.6 23.35 291.9 20.15 333.75 17.45 361.8 9.4 444.2 0.0 464.0 -9.45 444.2 -17.45 361.8 -20.15 333.9 -23.35 291.9 -26.6 247.6 -28.0 230.0 -28.45 224.3 -26.6 200.5 -24.5 173.95 -21.1 146.4 -11.6 69.8 0.1 49.0" fill="url(#gradient3)" fill-rule="evenodd" stroke="none"/>
    <path d="M-200.5 -26.6 Q-173.95 -24.55 -146.4 -21.15 -69.8 -11.75 -49.0 -0.1 -69.8 11.6 -146.4 21.1 -173.95 24.5 -200.5 26.6 L-230.0 28.0 -291.9 23.35 -361.8 17.45 Q-444.2 9.45 -464.0 0.0 -444.2 -9.4 -361.8 -17.45 L-291.9 -23.35 -230.0 -28.0 -200.5 -26.6" fill="url(#gradient4)" fill-rule="evenodd" stroke="none"/>
  </g>
  <defs>
    <radialGradient cx="0" cy="0" gradientTransform="matrix(0.0, -0.472, -0.472, 0.0, 0.0, 0.0)" gradientUnits="userSpaceOnUse" id="gradient0" r="819.2" spreadMethod="pad">
      <stop offset="0.796078431372549" stop-color="#000000"/>
      <stop offset="0.9450980392156862" stop-color="#610275"/>
    </radialGradient>
    <radialGradient cx="0" cy="0" gradientTransform="matrix(0.0587, 0.0, 0.0, 0.0587, 0.0, 0.0)" gradientUnits="userSpaceOnUse" id="gradient1" r="819.2" spreadMethod="pad">
      <stop offset="0.796078431372549" stop-color="#000000"/>
      <stop offset="0.9450980392156862" stop-color="#610275"/>
    </radialGradient>
    <radialGradient cx="0" cy="0" gradientTransform="matrix(0.472, 0.0, 0.0, 0.472, 0.0, 0.0)" gradientUnits="userSpaceOnUse" id="gradient2" r="819.2" spreadMethod="pad">
      <stop offset="0.796078431372549" stop-color="#000000"/>
      <stop offset="0.9450980392156862" stop-color="#610275"/>
    </radialGradient>
    <radialGradient cx="0" cy="0" gradientTransform="matrix(0.0, 0.472, -0.472, 0.0, 0.0, 0.0)" gradientUnits="userSpaceOnUse" id="gradient3" r="819.2" spreadMethod="pad">
      <stop offset="0.796078431372549" stop-color="#000000"/>
      <stop offset="0.9450980392156862" stop-color="#610275"/>
    </radialGradient>
    <radialGradient cx="0" cy="0" gradientTransform="matrix(-0.472, 0.0, 0.0, 0.472, 0.0, 0.0)" gradientUnits="userSpaceOnUse" id="gradient4" r="819.2" spreadMethod="pad">
      <stop offset="0.796078431372549" stop-color="#000000"/>
      <stop offset="0.9450980392156862" stop-color="#610275"/>
    </radialGradient>
  </defs>
</svg>
