<?xml version="1.0" encoding="UTF-8" standalone="no"?>
<svg xmlns:xlink="http://www.w3.org/1999/xlink" height="384.65px" width="544.0px" xmlns="http://www.w3.org/2000/svg">
  <g transform="matrix(1.0, 0.0, 0.0, 1.0, 0.0, 27.0)">
    <path d="M402.0 -1.0 Q388.65 -1.0 379.35 2.5 370.0 6.0 370.0 11.0 370.0 15.95 379.35 19.45 388.8 23.0 402.0 23.0 415.15 23.0 424.6 19.45 434.0 15.9 434.0 11.0 434.0 6.05 424.6 2.5 415.3 -1.0 402.0 -1.0 M451.25 -24.55 L456.35 -27.0 544.0 -27.0 544.0 340.25 534.6 340.0 Q501.75 340.0 469.9 354.3 467.95 355.15 466.15 356.05 445.0 349.0 419.5 349.0 387.45 349.0 362.8 357.55 357.8 354.05 351.75 350.7 319.9 333.0 285.0 333.0 250.25 333.0 223.0 347.15 218.2 349.6 214.1 352.35 196.55 349.0 174.5 349.0 151.85 349.0 140.85 352.7 L129.95 356.8 127.6 357.65 Q118.9 353.6 105.95 351.0 81.0 346.0 32.5 346.0 11.6 346.0 0.0 349.8 L0.0 -16.0 Q20.05 -17.35 36.7 -20.3 52.95 -23.25 60.05 -26.7 61.25 -12.75 89.3 -3.1 118.55 7.0 160.0 7.0 177.35 7.0 192.7 5.25 198.9 13.55 213.75 20.25 239.5 32.0 276.0 32.0 312.55 32.0 338.2 20.25 364.0 8.55 364.0 -8.0 364.0 -12.6 362.05 -16.8 376.8 -14.0 394.0 -14.0 427.6 -14.0 451.25 -24.55" fill="url(#gradient0)" fill-rule="evenodd" stroke="none"/>
  </g>
  <defs>
    <linearGradient gradientTransform="matrix(0.0, -0.2118, 0.1788, 0.0, 272.0, 213.5)" gradientUnits="userSpaceOnUse" id="gradient0" spreadMethod="pad" x1="-819.2" x2="819.2">
      <stop offset="0.0" stop-color="#e02cb4"/>
      <stop offset="1.0" stop-color="#c91225"/>
    </linearGradient>
  </defs>
</svg>
