<?xml version="1.0" encoding="UTF-8" standalone="no"?>
<svg xmlns:xlink="http://www.w3.org/1999/xlink" height="384.65px" width="544.0px" xmlns="http://www.w3.org/2000/svg">
  <g transform="matrix(1.0, 0.0, 0.0, 1.0, 0.0, -63.0)">
    <path d="M402.0 89.0 Q388.65 89.0 379.35 92.5 370.0 96.0 370.0 101.0 370.0 105.95 379.35 109.45 388.8 113.0 402.0 113.0 415.15 113.0 424.6 109.45 434.0 105.9 434.0 101.0 434.0 96.05 424.6 92.5 415.3 89.0 402.0 89.0 M451.25 65.45 L456.35 63.0 544.0 63.0 544.0 430.25 534.6 430.0 Q501.75 430.0 469.9 444.3 467.95 445.15 466.15 446.05 445.0 439.0 419.5 439.0 387.45 439.0 362.8 447.55 357.8 444.05 351.75 440.7 319.9 423.0 285.0 423.0 250.25 423.0 223.0 437.15 218.2 439.6 214.1 442.35 196.55 439.0 174.5 439.0 151.85 439.0 140.85 442.7 L129.95 446.8 127.6 447.65 Q118.9 443.6 105.95 441.0 81.0 436.0 32.5 436.0 11.6 436.0 0.0 439.8 L0.0 74.0 Q20.05 72.65 36.7 69.7 52.95 66.75 60.05 63.3 61.25 77.25 89.3 86.9 118.55 97.0 160.0 97.0 177.35 97.0 192.7 95.25 198.9 103.55 213.75 110.25 239.5 122.0 276.0 122.0 312.55 122.0 338.2 110.25 364.0 98.55 364.0 82.0 364.0 77.4 362.05 73.2 376.8 76.0 394.0 76.0 427.6 76.0 451.25 65.45" fill="url(#gradient0)" fill-rule="evenodd" stroke="none"/>
  </g>
  <defs>
    <linearGradient gradientTransform="matrix(0.0, -0.2118, 0.1788, 0.0, 272.0, 303.5)" gradientUnits="userSpaceOnUse" id="gradient0" spreadMethod="pad" x1="-819.2" x2="819.2">
      <stop offset="0.0" stop-color="#e02cb4"/>
      <stop offset="1.0" stop-color="#c91225"/>
    </linearGradient>
  </defs>
</svg>
