<?xml version="1.0" encoding="UTF-8" standalone="no"?>
<svg xmlns:xlink="http://www.w3.org/1999/xlink" height="322.45px" width="544.0px" xmlns="http://www.w3.org/2000/svg">
  <g transform="matrix(1.0, 0.0, 0.0, 1.0, 0.0, -254.0)">
    <path d="M153.75 287.6 Q142.0 279.7 125.5 279.7 109.0 279.7 97.2 287.6 85.5 295.5 85.5 306.7 85.5 317.95 97.2 325.8 109.0 333.7 125.5 333.7 142.0 333.7 153.75 325.8 165.5 317.95 165.5 306.7 165.5 295.45 153.75 287.6 M467.5 308.7 Q467.5 302.1 460.75 297.35 454.1 292.7 444.5 292.7 434.95 292.7 428.2 297.35 421.5 302.1 421.5 308.7 421.5 315.35 428.2 320.0 434.9 324.7 444.5 324.7 454.1 324.7 460.75 320.0 467.5 315.35 467.5 308.7 M421.7 273.7 L446.5 274.7 Q502.0 274.7 541.25 255.35 L544.0 254.0 544.0 568.65 Q536.25 566.25 524.45 564.15 489.9 558.0 441.0 558.0 392.1 558.0 357.55 564.15 328.15 569.4 323.8 576.45 299.55 573.0 266.0 573.0 233.45 573.0 209.75 576.25 205.5 570.95 195.7 566.6 178.45 559.0 154.0 559.0 129.55 559.0 112.25 566.6 107.15 568.85 103.55 571.45 94.6 568.5 73.4 566.1 42.2 562.6 0.0 562.1 L0.0 284.75 Q19.45 289.7 42.5 289.7 85.65 289.7 116.05 272.4 122.5 268.8 127.65 264.75 148.5 271.7 174.5 271.7 190.8 271.7 205.4 268.9 213.6 291.1 233.15 308.95 266.85 339.7 314.5 339.7 362.1 339.7 395.8 308.95 413.2 293.05 421.7 273.7" fill="url(#gradient0)" fill-rule="evenodd" stroke="none"/>
  </g>
  <defs>
    <linearGradient gradientTransform="matrix(0.0, -0.2118, 0.1788, 0.0, 272.0, 427.5)" gradientUnits="userSpaceOnUse" id="gradient0" spreadMethod="pad" x1="-819.2" x2="819.2">
      <stop offset="0.0" stop-color="#e02cb4"/>
      <stop offset="1.0" stop-color="#c91225"/>
    </linearGradient>
  </defs>
</svg>
