<?xml version="1.0" encoding="UTF-8" standalone="no"?>
<svg xmlns:xlink="http://www.w3.org/1999/xlink" height="155.1px" width="544.0px" xmlns="http://www.w3.org/2000/svg">
  <g transform="matrix(1.0, 0.0, 0.0, 1.0, 0.0, -510.5)">
    <path d="M302.45 558.8 Q277.1 544.65 257.7 539.3 239.95 534.4 213.1 532.8 L208.25 525.9 205.15 521.55 254.4 510.5 Q268.2 523.6 279.0 531.0 288.5 537.5 297.15 541.4 298.4 546.3 301.05 554.65 L302.45 558.8 M294.1 596.85 Q315.7 587.4 323.35 575.4 331.95 579.2 341.9 581.4 341.5 582.4 341.5 583.5 341.5 590.15 356.7 594.8 371.95 599.5 393.5 599.5 415.05 599.5 430.25 594.8 445.5 590.15 445.5 583.5 445.5 581.05 443.4 578.85 460.25 581.5 479.5 581.5 516.15 581.5 544.0 571.9 L544.0 649.95 518.5 648.5 500.7 649.15 Q496.9 649.0 493.0 649.0 463.2 649.0 442.1 658.05 434.0 661.5 429.05 665.6 418.1 661.0 380.5 657.45 327.5 652.5 252.5 652.5 178.35 652.5 125.7 657.35 L101.0 656.0 Q80.15 656.0 63.1 659.4 57.2 656.2 47.6 653.5 27.25 647.8 0.0 646.75 L0.0 570.8 Q11.0 572.5 23.5 572.5 53.75 572.5 75.1 562.55 86.65 557.2 91.95 550.65 L101.15 552.7 Q99.5 556.95 99.5 561.5 99.5 582.2 132.9 596.85 166.3 611.5 213.5 611.5 260.7 611.5 294.1 596.85 M80.55 517.25 L80.25 517.1 81.15 517.0 80.55 517.25" fill="url(#gradient0)" fill-rule="evenodd" stroke="none"/>
    <path d="M121.3 536.25 L117.95 535.9 Q124.1 532.95 136.65 529.25 150.9 525.05 156.05 524.2 L156.05 524.65 Q150.0 532.9 150.0 535.5 150.0 537.25 150.2 537.55 150.65 538.35 153.0 539.0 L136.0 539.0 Q130.55 537.15 121.3 536.25" fill="url(#gradient1)" fill-rule="evenodd" stroke="none"/>
  </g>
  <defs>
    <linearGradient gradientTransform="matrix(0.0, -0.2118, 0.1788, 0.0, 272.0, 537.5)" gradientUnits="userSpaceOnUse" id="gradient0" spreadMethod="pad" x1="-819.2" x2="819.2">
      <stop offset="0.0" stop-color="#e02cb4"/>
      <stop offset="1.0" stop-color="#c91225"/>
    </linearGradient>
    <linearGradient gradientTransform="matrix(0.0, -0.2118, 0.1788, 0.0, 272.0, 507.5)" gradientUnits="userSpaceOnUse" id="gradient1" spreadMethod="pad" x1="-819.2" x2="819.2">
      <stop offset="0.0" stop-color="#e02cb4"/>
      <stop offset="1.0" stop-color="#c91225"/>
    </linearGradient>
  </defs>
</svg>
