<?xml version="1.0" encoding="UTF-8" standalone="no"?>
<svg xmlns:xlink="http://www.w3.org/1999/xlink" height="144.0px" width="216.0px" xmlns="http://www.w3.org/2000/svg">
  <g transform="matrix(1.0, 0.0, 0.0, 1.0, -8.0, 184.0)">
    <path d="M8.0 -54.0 Q8.0 -56.0 10.0 -56.0 L222.0 -56.0 Q224.0 -56.0 224.0 -54.0 L224.0 -42.0 Q224.0 -40.0 222.0 -40.0 L10.0 -40.0 Q8.0 -40.0 8.0 -42.0 L8.0 -54.0 M8.0 -86.0 Q8.0 -88.0 10.0 -88.0 L222.0 -88.0 Q224.0 -88.0 224.0 -86.0 L224.0 -74.0 Q224.0 -72.0 222.0 -72.0 L10.0 -72.0 Q8.0 -72.0 8.0 -74.0 L8.0 -86.0 M8.0 -118.0 Q8.0 -120.0 10.0 -120.0 L222.0 -120.0 Q224.0 -120.0 224.0 -118.0 L224.0 -106.0 Q224.0 -104.0 222.0 -104.0 L10.0 -104.0 Q8.0 -104.0 8.0 -106.0 L8.0 -118.0 M8.0 -150.0 Q8.0 -152.0 10.0 -152.0 L222.0 -152.0 Q224.0 -152.0 224.0 -150.0 L224.0 -138.0 Q224.0 -136.0 222.0 -136.0 L10.0 -136.0 Q8.0 -136.0 8.0 -138.0 L8.0 -150.0 M8.0 -182.0 Q8.0 -184.0 10.0 -184.0 L222.0 -184.0 Q224.0 -184.0 224.0 -182.0 L224.0 -170.0 Q224.0 -168.0 222.0 -168.0 L10.0 -168.0 Q8.0 -168.0 8.0 -170.0 L8.0 -182.0" fill="#ffffff" fill-opacity="0.0627451" fill-rule="evenodd" stroke="none"/>
  </g>
</svg>
