<?xml version="1.0" encoding="UTF-8" standalone="no"?>
<svg xmlns:xlink="http://www.w3.org/1999/xlink" height="23.6px" width="12.1px" xmlns="http://www.w3.org/2000/svg">
  <g transform="matrix(1.0, 0.0, 0.0, 1.0, 21.15, 32.3)">
    <path d="M-10.65 -26.15 L-12.0 -21.8 -13.35 -17.75 Q-13.95 -15.75 -13.95 -13.95 L-13.85 -12.05 -13.75 -9.7 -18.1 -9.7 Q-18.1 -12.15 -17.7 -13.9 L-16.7 -17.3 -15.45 -20.15 -14.15 -22.6 -13.2 -24.8 Q-12.85 -25.75 -12.85 -26.3 L-17.8 -26.3 -18.9 -26.1 -20.15 -25.65 -19.45 -31.3 -18.5 -31.2 -10.05 -31.05 Q-10.05 -28.35 -10.65 -26.15 Z" fill="none" stroke="#000000" stroke-linecap="round" stroke-linejoin="round" stroke-width="2.0"/>
    <path d="M-10.65 -26.15 L-12.0 -21.8 -13.35 -17.75 Q-13.95 -15.75 -13.95 -13.95 L-13.85 -12.05 -13.75 -9.7 -18.1 -9.7 Q-18.1 -12.15 -17.7 -13.9 L-16.7 -17.3 -15.45 -20.15 -14.15 -22.6 -13.2 -24.8 Q-12.85 -25.75 -12.85 -26.3 L-17.8 -26.3 -18.9 -26.1 -20.15 -25.65 -19.45 -31.3 -18.5 -31.2 -10.05 -31.05 Q-10.05 -28.35 -10.65 -26.15" fill="#ffffff" fill-rule="evenodd" stroke="none"/>
  </g>
</svg>
