<?xml version="1.0" encoding="UTF-8" standalone="no"?>
<svg xmlns:xlink="http://www.w3.org/1999/xlink" height="102.2px" width="100.05px" xmlns="http://www.w3.org/2000/svg">
  <g transform="matrix(1.0, 0.0, 0.0, 1.0, 49.95, 49.7)">
    <path d="M34.6 -43.2 L38.8 -46.55 Q39.4 -47.05 40.15 -47.1 L41.15 -46.95 41.95 -48.35 Q42.45 -49.25 43.45 -49.5 L45.35 -49.25 48.8 -47.25 Q49.7 -46.75 50.0 -45.75 50.25 -44.75 49.75 -43.85 L48.95 -42.5 49.55 -41.7 49.8 -40.25 49.05 -34.9 Q48.9 -34.05 48.3 -33.45 47.7 -32.9 46.9 -32.75 L45.75 -32.85 43.75 -29.35 44.15 -29.1 Q45.05 -28.6 45.3 -27.6 45.6 -26.6 45.1 -25.7 L40.25 -17.3 43.4 -13.4 Q48.45 -5.85 48.5 4.0 48.8 21.35 25.4 37.3 18.8 41.75 8.3 48.25 L1.2 52.2 Q0.1 52.85 -1.2 52.2 -4.5 50.5 -8.25 48.25 -15.5 44.0 -25.4 37.3 -48.8 21.35 -48.5 4.0 -48.45 -5.85 -43.35 -13.4 L-40.1 -17.45 -44.95 -25.9 Q-45.5 -26.8 -45.2 -27.8 -44.95 -28.8 -44.05 -29.3 L-43.6 -29.55 -45.6 -33.0 -46.75 -32.9 Q-47.6 -33.05 -48.2 -33.6 -48.8 -34.2 -48.9 -35.05 L-49.65 -40.4 Q-49.8 -41.15 -49.45 -41.85 L-48.85 -42.6 -49.6 -43.95 Q-50.15 -44.85 -49.85 -45.85 -49.6 -46.85 -48.7 -47.35 L-45.25 -49.35 -43.35 -49.6 Q-42.35 -49.35 -41.8 -48.45 L-41.05 -47.1 -40.05 -47.25 Q-39.3 -47.2 -38.7 -46.7 L-34.5 -43.35 Q-33.85 -42.85 -33.6 -42.0 -33.4 -41.2 -33.75 -40.4 L-34.35 -39.55 -32.35 -36.05 -31.95 -36.3 -30.05 -36.55 Q-29.05 -36.3 -28.5 -35.4 L-23.45 -26.55 -14.6 -27.05 -14.55 -27.05 Q-6.6 -26.35 0.0 -22.05 6.6 -26.35 14.6 -27.05 L23.65 -26.55 28.65 -35.2 Q29.15 -36.1 30.15 -36.35 L32.1 -36.1 32.45 -35.85 34.45 -39.4 33.85 -40.25 Q33.5 -41.05 33.75 -41.85 33.95 -42.7 34.6 -43.2" fill="#000000" fill-rule="evenodd" stroke="none"/>
    <path d="M0.0 -19.0 Q6.6 -23.85 14.8 -24.55 22.65 -25.2 29.75 -21.9 L30.15 -21.7 37.2 -16.9 39.4 -14.4 40.95 -12.5 41.3 -12.05 Q45.95 -5.05 46.0 4.0 46.05 20.2 24.0 35.2 14.2 41.9 7.0 46.1 L0.0 50.0 0.0 -19.0" fill="url(#gradient0)" fill-rule="evenodd" stroke="none"/>
    <path d="M0.0 -19.0 L0.0 50.0 -7.0 46.1 Q-14.2 41.9 -24.0 35.2 -46.05 20.2 -46.0 4.0 -45.95 -5.05 -41.3 -12.05 L-40.95 -12.5 -39.4 -14.4 -37.2 -16.9 -30.15 -21.7 -29.75 -21.9 Q-22.65 -25.2 -14.8 -24.55 -6.6 -23.85 0.0 -19.0" fill="url(#gradient1)" fill-rule="evenodd" stroke="none"/>
    <path d="M37.55 -14.55 Q39.0 -13.05 39.0 -11.0 39.0 -8.95 37.55 -7.5 36.05 -6.0 34.0 -6.0 31.95 -6.0 30.5 -7.5 29.0 -8.95 29.0 -11.0 29.0 -13.05 30.5 -14.55 31.95 -16.0 34.0 -16.0 36.05 -16.0 37.55 -14.55" fill="url(#gradient2)" fill-rule="evenodd" stroke="none"/>
    <path d="M-30.5 -7.5 Q-31.95 -6.0 -34.0 -6.0 -36.05 -6.0 -37.55 -7.5 -39.0 -8.95 -39.0 -11.0 -39.0 -13.05 -37.55 -14.55 -36.05 -16.0 -34.0 -16.0 -31.95 -16.0 -30.5 -14.55 -29.0 -13.05 -29.0 -11.0 -29.0 -8.95 -30.5 -7.5" fill="url(#gradient3)" fill-rule="evenodd" stroke="none"/>
    <path d="M-13.0 30.0 Q-13.0 32.05 -14.5 33.5 -15.95 35.0 -18.0 35.0 -20.05 35.0 -21.55 33.5 -23.0 32.05 -23.0 30.0 -23.0 27.95 -21.55 26.45 -20.05 25.0 -18.0 25.0 -15.95 25.0 -14.5 26.45 -13.0 27.95 -13.0 30.0" fill="url(#gradient4)" fill-rule="evenodd" stroke="none"/>
    <path d="M13.0 30.0 Q13.0 27.95 14.5 26.45 15.95 25.0 18.0 25.0 20.05 25.0 21.55 26.45 23.0 27.95 23.0 30.0 23.0 32.05 21.55 33.5 20.05 35.0 18.0 35.0 15.95 35.0 14.5 33.5 13.0 32.05 13.0 30.0" fill="url(#gradient5)" fill-rule="evenodd" stroke="none"/>
    <path d="M-34.0 -14.5 Q-32.55 -14.5 -31.55 -13.5 -30.5 -12.45 -30.5 -11.0 -30.5 -9.6 -31.55 -8.55 -32.6 -7.5 -34.0 -7.5 -35.45 -7.5 -36.5 -8.55 -37.5 -9.55 -37.5 -11.0 -37.5 -12.45 -36.5 -13.45 L-36.45 -13.5 Q-35.45 -14.5 -34.0 -14.5" fill="url(#gradient6)" fill-rule="evenodd" stroke="none"/>
    <path d="M-21.5 30.0 Q-21.5 28.55 -20.5 27.55 L-20.45 27.5 Q-19.45 26.5 -18.0 26.5 -16.55 26.5 -15.55 27.5 -14.5 28.55 -14.5 30.0 -14.5 31.4 -15.55 32.45 -16.6 33.5 -18.0 33.5 -19.45 33.5 -20.5 32.45 -21.5 31.45 -21.5 30.0" fill="url(#gradient7)" fill-rule="evenodd" stroke="none"/>
    <path d="M31.55 -13.5 Q32.55 -14.5 34.0 -14.5 35.45 -14.5 36.45 -13.5 L36.5 -13.45 Q37.5 -12.45 37.5 -11.0 37.5 -9.55 36.5 -8.55 35.45 -7.5 34.0 -7.5 32.6 -7.5 31.55 -8.55 30.5 -9.6 30.5 -11.0 30.5 -12.45 31.55 -13.5" fill="url(#gradient8)" fill-rule="evenodd" stroke="none"/>
    <path d="M14.5 30.0 Q14.5 28.55 15.55 27.5 16.55 26.5 18.0 26.5 19.45 26.5 20.45 27.5 L20.5 27.55 Q21.5 28.55 21.5 30.0 21.5 31.45 20.5 32.45 19.45 33.5 18.0 33.5 16.6 33.5 15.55 32.45 14.5 31.4 14.5 30.0" fill="url(#gradient9)" fill-rule="evenodd" stroke="none"/>
    <path d="M35.8 -12.75 L35.8 -12.8 35.8 -12.75" fill="url(#gradient10)" fill-rule="evenodd" stroke="none"/>
    <path d="M19.8 28.25 L19.8 28.2 19.8 28.25" fill="url(#gradient11)" fill-rule="evenodd" stroke="none"/>
    <path d="M-19.75 28.25 L-19.8 28.25 -19.75 28.2 -19.75 28.25" fill="url(#gradient12)" fill-rule="evenodd" stroke="none"/>
    <path d="M-35.75 -12.75 L-35.8 -12.75 -35.75 -12.8 -35.75 -12.75" fill="url(#gradient13)" fill-rule="evenodd" stroke="none"/>
    <path d="M-35.75 -12.75 Q-35.0 -13.5 -34.0 -13.5 -33.0 -13.5 -32.25 -12.8 -31.5 -12.05 -31.5 -11.0 -31.5 -10.0 -32.25 -9.3 L-32.25 -9.25 -32.3 -9.25 Q-33.0 -8.5 -34.0 -8.5 -35.05 -8.5 -35.8 -9.25 -36.5 -10.0 -36.5 -11.0 -36.5 -12.0 -35.75 -12.75" fill="url(#gradient14)" fill-rule="evenodd" stroke="none"/>
    <path d="M32.25 -12.8 Q33.0 -13.5 34.0 -13.5 35.0 -13.5 35.75 -12.75 36.5 -12.0 36.5 -11.0 36.5 -10.0 35.8 -9.25 35.05 -8.5 34.0 -8.5 33.0 -8.5 32.3 -9.25 L32.25 -9.25 32.25 -9.3 Q31.5 -10.0 31.5 -11.0 31.5 -12.05 32.25 -12.8" fill="url(#gradient15)" fill-rule="evenodd" stroke="none"/>
    <path d="M35.75 -12.8 L35.8 -12.75 35.75 -12.75 35.75 -12.8" fill="url(#gradient16)" fill-rule="evenodd" stroke="none"/>
    <path d="M19.75 28.25 L19.75 28.2 19.8 28.25 19.75 28.25" fill="url(#gradient17)" fill-rule="evenodd" stroke="none"/>
    <path d="M-19.75 28.25 Q-19.0 27.5 -18.0 27.5 -17.0 27.5 -16.25 28.2 -15.5 28.95 -15.5 30.0 -15.5 31.0 -16.25 31.7 L-16.25 31.75 -16.3 31.75 Q-17.0 32.5 -18.0 32.5 -19.05 32.5 -19.8 31.75 -20.5 31.0 -20.5 30.0 -20.5 29.0 -19.75 28.25" fill="url(#gradient18)" fill-rule="evenodd" stroke="none"/>
    <path d="M15.5 30.0 Q15.5 28.95 16.25 28.2 17.0 27.5 18.0 27.5 19.0 27.5 19.75 28.25 20.5 29.0 20.5 30.0 20.5 31.0 19.8 31.75 19.05 32.5 18.0 32.5 17.0 32.5 16.3 31.75 L16.25 31.75 16.25 31.7 Q15.5 31.0 15.5 30.0" fill="url(#gradient19)" fill-rule="evenodd" stroke="none"/>
    <path d="M0.0 -9.0 Q-0.95 -11.7 -3.6 -13.9 -6.25 -16.1 -8.9 -17.25 -11.9 -18.55 -15.7 -18.9 -24.45 -19.7 -30.8 -14.8 L-30.5 -14.55 Q-29.0 -13.05 -29.0 -11.0 -29.0 -8.95 -30.5 -7.5 -31.95 -6.0 -34.0 -6.0 -35.9 -6.0 -37.35 -7.3 L-38.0 -6.05 Q-40.5 -0.65 -40.0 5.0 -39.7 8.05 -38.25 11.25 L-39.1 11.95 Q-39.75 12.5 -39.8 13.35 -39.9 14.2 -39.35 14.8 -38.85 15.45 -38.0 15.4 -37.15 15.45 -36.55 14.9 L-36.35 14.75 -34.5 17.4 -35.25 18.05 Q-35.9 18.6 -35.95 19.45 -36.05 20.3 -35.5 20.9 -35.0 21.55 -34.15 21.5 -33.3 21.55 -32.7 21.0 L-32.0 20.4 Q-28.25 24.45 -22.8 28.7 -22.5 27.45 -21.55 26.45 -20.05 25.0 -18.0 25.0 -15.95 25.0 -14.5 26.45 -13.0 27.95 -13.0 30.0 -13.0 32.05 -14.5 33.5 L-15.15 34.1 0.0 43.0 15.15 34.1 14.5 33.5 Q13.0 32.05 13.0 30.0 13.0 27.95 14.5 26.45 15.95 25.0 18.0 25.0 20.05 25.0 21.55 26.45 22.5 27.45 22.8 28.7 28.25 24.45 32.0 20.4 L32.7 21.0 Q33.3 21.55 34.15 21.5 35.0 21.55 35.5 20.9 36.05 20.3 35.95 19.45 35.9 18.6 35.25 18.05 L34.55 17.4 36.4 14.75 36.6 14.9 Q37.2 15.45 38.05 15.4 38.9 15.45 39.4 14.8 39.95 14.2 39.85 13.35 39.8 12.5 39.15 11.95 L38.3 11.2 Q39.7 8.05 40.0 5.0 40.5 -0.65 38.0 -6.05 L37.35 -7.3 Q35.9 -6.0 34.0 -6.0 31.95 -6.0 30.5 -7.5 29.0 -8.95 29.0 -11.0 29.0 -13.05 30.5 -14.55 L30.8 -14.8 Q24.45 -19.7 15.7 -18.9 11.9 -18.55 8.9 -17.25 6.25 -16.1 3.6 -13.9 0.95 -11.7 0.0 -9.0 Z" fill="none" stroke="url(#gradient20)" stroke-linecap="round" stroke-linejoin="round" stroke-width="1.5"/>
    <path d="M0.0 -9.0 L0.0 43.0 -15.15 34.1 -14.5 33.5 Q-13.0 32.05 -13.0 30.0 -13.0 27.95 -14.5 26.45 -15.95 25.0 -18.0 25.0 -20.05 25.0 -21.55 26.45 -22.5 27.45 -22.8 28.7 -38.95 16.15 -40.0 5.0 -40.5 -0.65 -38.0 -6.05 L-37.35 -7.3 Q-35.9 -6.0 -34.0 -6.0 -31.95 -6.0 -30.5 -7.5 -29.0 -8.95 -29.0 -11.0 -29.0 -13.05 -30.5 -14.55 L-30.8 -14.8 Q-24.45 -19.7 -15.7 -18.9 -11.9 -18.55 -8.9 -17.25 -6.25 -16.1 -3.6 -13.9 -0.95 -11.7 0.0 -9.0" fill="url(#gradient21)" fill-rule="evenodd" stroke="none"/>
    <path d="M0.0 -9.0 Q0.95 -11.7 3.6 -13.9 6.25 -16.1 8.9 -17.25 11.9 -18.55 15.7 -18.9 24.45 -19.7 30.8 -14.8 L30.5 -14.55 Q29.0 -13.05 29.0 -11.0 29.0 -8.95 30.5 -7.5 31.95 -6.0 34.0 -6.0 35.9 -6.0 37.35 -7.3 L38.0 -6.05 Q40.5 -0.65 40.0 5.0 38.95 16.15 22.8 28.7 22.5 27.45 21.55 26.45 20.05 25.0 18.0 25.0 15.95 25.0 14.5 26.45 13.0 27.95 13.0 30.0 13.0 32.05 14.5 33.5 L15.15 34.1 0.0 43.0 0.0 -9.0" fill="url(#gradient22)" fill-rule="evenodd" stroke="none"/>
    <path d="M6.0 22.0 L6.0 20.0 7.0 20.0 7.0 22.0 6.0 22.0 M-6.0 22.0 L-6.0 20.0 -5.0 20.0 -5.0 22.0 -6.0 22.0" fill="#3d3434" fill-rule="evenodd" stroke="none"/>
    <path d="M-9.0 19.0 L-9.0 18.0 9.0 18.0 9.0 19.0 -9.0 19.0" fill="#a33f3f" fill-rule="evenodd" stroke="none"/>
    <path d="M6.0 31.0 L6.0 32.0 -6.0 32.0 -6.0 31.0 6.0 31.0" fill="#703232" fill-rule="evenodd" stroke="none"/>
    <path d="M10.0 28.0 L10.0 29.0 6.0 29.0 6.0 28.0 10.0 28.0 M-6.0 29.0 L-10.0 29.0 -10.0 28.0 -6.0 28.0 -6.0 29.0" fill="#7d3939" fill-rule="evenodd" stroke="none"/>
    <path d="M7.0 22.0 L7.0 23.0 6.0 23.0 6.0 22.0 7.0 22.0 M-5.0 22.0 L-5.0 23.0 -6.0 23.0 -6.0 22.0 -5.0 22.0" fill="#98433d" fill-rule="evenodd" stroke="none"/>
    <path d="M9.0 19.0 L9.0 18.0 -9.0 18.0 -9.0 19.0 -9.0 27.0 -5.0 27.0 -5.0 29.0 5.0 29.0 5.0 27.0 9.0 27.0 9.0 19.0 M10.0 28.0 L6.0 28.0 6.0 29.0 6.0 31.0 -6.0 31.0 -6.0 29.0 -6.0 28.0 -10.0 28.0 -10.0 17.0 10.0 17.0 10.0 28.0" fill="url(#gradient23)" fill-rule="evenodd" stroke="none"/>
  </g>
  <defs>
    <radialGradient cx="0" cy="0" gradientTransform="matrix(-0.0589, -0.0049, -0.0072, 0.087, 16.0, -20.0)" gradientUnits="userSpaceOnUse" id="gradient0" r="819.2" spreadMethod="pad">
      <stop offset="0.0392156862745098" stop-color="#e6d9d9"/>
      <stop offset="0.2196078431372549" stop-color="#c8b7b7"/>
      <stop offset="0.6784313725490196" stop-color="#a58b8b"/>
      <stop offset="0.9176470588235294" stop-color="#7d5757"/>
      <stop offset="1.0" stop-color="#a47171"/>
    </radialGradient>
    <radialGradient cx="0" cy="0" gradientTransform="matrix(0.0589, -0.0049, 0.0072, 0.087, -16.0, -20.0)" gradientUnits="userSpaceOnUse" id="gradient1" r="819.2" spreadMethod="pad">
      <stop offset="0.0392156862745098" stop-color="#e6d9d9"/>
      <stop offset="0.2196078431372549" stop-color="#c8b7b7"/>
      <stop offset="0.6784313725490196" stop-color="#a58b8b"/>
      <stop offset="0.9176470588235294" stop-color="#7d5757"/>
      <stop offset="1.0" stop-color="#a47171"/>
    </radialGradient>
    <linearGradient gradientTransform="matrix(-0.0032, 0.0052, 0.0052, 0.0032, 34.0, -11.0)" gradientUnits="userSpaceOnUse" id="gradient2" spreadMethod="pad" x1="-819.2" x2="819.2">
      <stop offset="0.0" stop-color="#fdc8c8" stop-opacity="0.0"/>
      <stop offset="1.0" stop-color="#fbb5b5" stop-opacity="0.15294118"/>
    </linearGradient>
    <linearGradient gradientTransform="matrix(0.0032, 0.0052, -0.0052, 0.0032, -34.0, -11.0)" gradientUnits="userSpaceOnUse" id="gradient3" spreadMethod="pad" x1="-819.2" x2="819.2">
      <stop offset="0.0" stop-color="#fdc8c8" stop-opacity="0.0"/>
      <stop offset="1.0" stop-color="#fbb5b5" stop-opacity="0.15294118"/>
    </linearGradient>
    <linearGradient gradientTransform="matrix(0.0041, -0.0045, 0.0045, 0.0041, -18.0, 30.0)" gradientUnits="userSpaceOnUse" id="gradient4" spreadMethod="pad" x1="-819.2" x2="819.2">
      <stop offset="0.01568627450980392" stop-color="#fdc8c8" stop-opacity="0.0"/>
      <stop offset="1.0" stop-color="#fbb5b5" stop-opacity="0.15294118"/>
    </linearGradient>
    <linearGradient gradientTransform="matrix(-0.0041, -0.0045, -0.0045, 0.0041, 18.0, 30.0)" gradientUnits="userSpaceOnUse" id="gradient5" spreadMethod="pad" x1="-819.2" x2="819.2">
      <stop offset="0.01568627450980392" stop-color="#fdc8c8" stop-opacity="0.0"/>
      <stop offset="1.0" stop-color="#fbb5b5" stop-opacity="0.15294118"/>
    </linearGradient>
    <linearGradient gradientTransform="matrix(0.0014, 0.004, -0.004, 0.0014, -34.0, -11.0)" gradientUnits="userSpaceOnUse" id="gradient6" spreadMethod="pad" x1="-819.2" x2="819.2">
      <stop offset="0.0" stop-color="#704747"/>
      <stop offset="1.0" stop-color="#eadbdb"/>
    </linearGradient>
    <linearGradient gradientTransform="matrix(0.0018, 0.0039, -0.0039, 0.0018, -18.0, 30.0)" gradientUnits="userSpaceOnUse" id="gradient7" spreadMethod="pad" x1="-819.2" x2="819.2">
      <stop offset="0.01568627450980392" stop-color="#694947"/>
      <stop offset="1.0" stop-color="#caa6a6"/>
    </linearGradient>
    <linearGradient gradientTransform="matrix(-0.0014, 0.004, 0.004, 0.0014, 34.0, -11.0)" gradientUnits="userSpaceOnUse" id="gradient8" spreadMethod="pad" x1="-819.2" x2="819.2">
      <stop offset="0.0" stop-color="#704747"/>
      <stop offset="1.0" stop-color="#eadbdb"/>
    </linearGradient>
    <linearGradient gradientTransform="matrix(-0.0018, 0.0039, 0.0039, 0.0018, 18.0, 30.0)" gradientUnits="userSpaceOnUse" id="gradient9" spreadMethod="pad" x1="-819.2" x2="819.2">
      <stop offset="0.01568627450980392" stop-color="#694947"/>
      <stop offset="1.0" stop-color="#caa6a6"/>
    </linearGradient>
    <linearGradient gradientTransform="matrix(0.0043, 0.0, 0.0, 0.0043, 34.0, -11.0)" gradientUnits="userSpaceOnUse" id="gradient10" spreadMethod="pad" x1="-819.2" x2="819.2">
      <stop offset="0.0" stop-color="#fdc8c8" stop-opacity="0.0"/>
      <stop offset="1.0" stop-color="#fbb5b5" stop-opacity="0.15294118"/>
    </linearGradient>
    <linearGradient gradientTransform="matrix(0.0043, 0.0, 0.0, 0.0043, 18.0, 30.0)" gradientUnits="userSpaceOnUse" id="gradient11" spreadMethod="pad" x1="-819.2" x2="819.2">
      <stop offset="0.0" stop-color="#fdc8c8" stop-opacity="0.0"/>
      <stop offset="1.0" stop-color="#fbb5b5" stop-opacity="0.15294118"/>
    </linearGradient>
    <linearGradient gradientTransform="matrix(0.0018, 0.0039, -0.0039, 0.0018, -18.0, 30.0)" gradientUnits="userSpaceOnUse" id="gradient12" spreadMethod="pad" x1="-819.2" x2="819.2">
      <stop offset="0.01568627450980392" stop-color="#b90606"/>
      <stop offset="1.0" stop-color="#fec0c0"/>
    </linearGradient>
    <linearGradient gradientTransform="matrix(-9.0E-4, -0.0042, 0.0042, -9.0E-4, -34.0, -11.0)" gradientUnits="userSpaceOnUse" id="gradient13" spreadMethod="pad" x1="-819.2" x2="819.2">
      <stop offset="0.0" stop-color="#b90606"/>
      <stop offset="1.0" stop-color="#fec0c0"/>
    </linearGradient>
    <radialGradient cx="0" cy="0" gradientTransform="matrix(0.004, 0.0, 0.0, 0.004, -34.25, -11.85)" gradientUnits="userSpaceOnUse" id="gradient14" r="819.2" spreadMethod="pad">
      <stop offset="0.07450980392156863" stop-color="#ebd3d3"/>
      <stop offset="0.24313725490196078" stop-color="#d2b3b3"/>
      <stop offset="1.0" stop-color="#724e4e"/>
    </radialGradient>
    <radialGradient cx="0" cy="0" gradientTransform="matrix(-0.004, 0.0, 0.0, 0.004, 34.25, -11.85)" gradientUnits="userSpaceOnUse" id="gradient15" r="819.2" spreadMethod="pad">
      <stop offset="0.07450980392156863" stop-color="#ebd3d3"/>
      <stop offset="0.24313725490196078" stop-color="#d2b3b3"/>
      <stop offset="1.0" stop-color="#724e4e"/>
    </radialGradient>
    <linearGradient gradientTransform="matrix(9.0E-4, -0.0042, -0.0042, -9.0E-4, 34.0, -11.0)" gradientUnits="userSpaceOnUse" id="gradient16" spreadMethod="pad" x1="-819.2" x2="819.2">
      <stop offset="0.0" stop-color="#b90606"/>
      <stop offset="1.0" stop-color="#fec0c0"/>
    </linearGradient>
    <linearGradient gradientTransform="matrix(-0.0018, 0.0039, 0.0039, 0.0018, 18.0, 30.0)" gradientUnits="userSpaceOnUse" id="gradient17" spreadMethod="pad" x1="-819.2" x2="819.2">
      <stop offset="0.01568627450980392" stop-color="#b90606"/>
      <stop offset="1.0" stop-color="#fec0c0"/>
    </linearGradient>
    <radialGradient cx="0" cy="0" gradientTransform="matrix(0.004, 0.0, 0.0, 0.004, -18.3, 29.2)" gradientUnits="userSpaceOnUse" id="gradient18" r="819.2" spreadMethod="pad">
      <stop offset="0.09019607843137255" stop-color="#cdbebe"/>
      <stop offset="0.2980392156862745" stop-color="#b89c9c"/>
      <stop offset="1.0" stop-color="#6f5151"/>
    </radialGradient>
    <radialGradient cx="0" cy="0" gradientTransform="matrix(-0.004, 0.0, 0.0, 0.004, 18.3, 29.2)" gradientUnits="userSpaceOnUse" id="gradient19" r="819.2" spreadMethod="pad">
      <stop offset="0.09019607843137255" stop-color="#cdbebe"/>
      <stop offset="0.2980392156862745" stop-color="#b89c9c"/>
      <stop offset="1.0" stop-color="#6f5151"/>
    </radialGradient>
    <radialGradient cx="0" cy="0" gradientTransform="matrix(0.0581, 0.0, 0.0, 0.0595, 0.0, -4.2)" gradientUnits="userSpaceOnUse" id="gradient20" r="819.2" spreadMethod="pad">
      <stop offset="0.14901960784313725" stop-color="#a53d3d"/>
      <stop offset="0.3568627450980392" stop-color="#8a3d3d"/>
      <stop offset="0.7254901960784313" stop-color="#683333"/>
      <stop offset="0.9058823529411765" stop-color="#562929"/>
      <stop offset="1.0" stop-color="#984949"/>
    </radialGradient>
    <radialGradient cx="0" cy="0" gradientTransform="matrix(-0.0806, 0.0, 0.0, 0.0806, 0.0, -16.0)" gradientUnits="userSpaceOnUse" id="gradient21" r="819.2" spreadMethod="pad">
      <stop offset="0.18823529411764706" stop-color="#cc4848"/>
      <stop offset="0.4117647058823529" stop-color="#ae4141"/>
      <stop offset="0.7254901960784313" stop-color="#5f2e2e"/>
      <stop offset="0.8745098039215686" stop-color="#8f4545"/>
    </radialGradient>
    <radialGradient cx="0" cy="0" gradientTransform="matrix(0.0806, 0.0, 0.0, 0.0806, 0.0, -16.0)" gradientUnits="userSpaceOnUse" id="gradient22" r="819.2" spreadMethod="pad">
      <stop offset="0.18823529411764706" stop-color="#cc4848"/>
      <stop offset="0.4117647058823529" stop-color="#ae4141"/>
      <stop offset="0.7254901960784313" stop-color="#5f2e2e"/>
      <stop offset="0.8745098039215686" stop-color="#8f4545"/>
    </radialGradient>
    <linearGradient gradientTransform="matrix(0.0, -0.0098, 0.0085, 0.0, 0.0, 24.0)" gradientUnits="userSpaceOnUse" id="gradient23" spreadMethod="pad" x1="-819.2" x2="819.2">
      <stop offset="0.0" stop-color="#412929"/>
      <stop offset="1.0" stop-color="#6b3636"/>
    </linearGradient>
  </defs>
</svg>
