<?xml version="1.0" encoding="UTF-8" standalone="no"?>
<svg xmlns:xlink="http://www.w3.org/1999/xlink" height="21.0px" width="56.0px" xmlns="http://www.w3.org/2000/svg">
  <g transform="matrix(1.0, 0.0, 0.0, 1.0, 28.0, 18.0)">
    <path d="M-10.1 -0.1 Q-13.15 3.0 -17.5 3.0 -21.9 3.0 -24.95 -0.1 -28.0 -3.2 -28.0 -7.5 -28.0 -11.9 -24.95 -14.95 -21.9 -18.0 -17.5 -18.0 -13.15 -18.0 -10.1 -14.95 -7.0 -11.9 -7.0 -7.5 -7.0 -3.2 -10.1 -0.1" fill="url(#gradient0)" fill-rule="evenodd" stroke="none"/>
    <path d="M10.1 -14.95 Q13.15 -18.0 17.5 -18.0 21.9 -18.0 24.95 -14.95 28.0 -11.9 28.0 -7.5 28.0 -3.2 24.95 -0.1 21.9 3.0 17.5 3.0 13.15 3.0 10.1 -0.1 7.0 -3.2 7.0 -7.5 7.0 -11.9 10.1 -14.95" fill="url(#gradient1)" fill-rule="evenodd" stroke="none"/>
  </g>
  <defs>
    <radialGradient cx="0" cy="0" gradientTransform="matrix(0.0129, 0.0, 0.0, 0.0129, -17.5, -7.5)" gradientUnits="userSpaceOnUse" id="gradient0" r="819.2" spreadMethod="pad">
      <stop offset="0.047058823529411764" stop-color="#d24848"/>
      <stop offset="0.984313725490196" stop-color="#cc4848" stop-opacity="0.0"/>
    </radialGradient>
    <radialGradient cx="0" cy="0" gradientTransform="matrix(-0.0129, 0.0, 0.0, 0.0129, 17.5, -7.5)" gradientUnits="userSpaceOnUse" id="gradient1" r="819.2" spreadMethod="pad">
      <stop offset="0.047058823529411764" stop-color="#d24848"/>
      <stop offset="0.984313725490196" stop-color="#cc4848" stop-opacity="0.0"/>
    </radialGradient>
  </defs>
</svg>
