<?xml version="1.0" encoding="UTF-8" standalone="no"?>
<svg xmlns:xlink="http://www.w3.org/1999/xlink" height="31.05px" width="14.0px" xmlns="http://www.w3.org/2000/svg">
  <g transform="matrix(1.0, 0.0, 0.0, 1.0, 0.0, 26.0)">
    <path d="M0.0 4.0 L0.0 0.0 14.0 0.0 14.0 4.0 Q7.1 6.1 0.0 4.0" fill="url(#gradient0)" fill-rule="evenodd" stroke="none"/>
    <path d="M11.0 -3.0 L11.0 0.0 3.0 0.0 3.0 -3.0 11.0 -3.0" fill="url(#gradient1)" fill-rule="evenodd" stroke="none"/>
    <path d="M10.5 -3.0 L3.5 -3.0 3.5 -8.0 10.5 -8.0 10.5 -3.0" fill="url(#gradient2)" fill-rule="evenodd" stroke="none"/>
    <path d="M14.0 -3.0 L10.5 -3.0 10.5 -8.0 14.0 -8.0 14.0 -3.0" fill="#ffffff" fill-rule="evenodd" stroke="none"/>
    <path d="M0.0 -3.0 L0.0 -8.0 3.5 -8.0 3.5 -3.0 0.0 -3.0" fill="url(#gradient3)" fill-rule="evenodd" stroke="none"/>
    <path d="M3.0 -17.0 L11.0 -17.0 11.0 -13.0 11.0 -8.0 3.0 -8.0 3.0 -13.0 3.0 -17.0" fill="url(#gradient4)" fill-rule="evenodd" stroke="none"/>
    <path d="M11.0 -13.0 L3.0 -13.0 3.0 -15.0 11.0 -15.0 11.0 -13.0 M11.0 -10.0 L3.0 -10.0 3.0 -12.0 11.0 -12.0 11.0 -10.0" fill="url(#gradient5)" fill-rule="evenodd" stroke="none"/>
    <path d="M11.0 -22.0 L13.0 -17.0 1.0 -17.0 3.0 -22.0 11.0 -22.0" fill="url(#gradient6)" fill-rule="evenodd" stroke="none"/>
    <path d="M5.0 -26.0 L9.0 -26.0 9.0 -22.0 5.0 -22.0 5.0 -26.0" fill="url(#gradient7)" fill-rule="evenodd" stroke="none"/>
    <path d="M3.0 -16.0 L3.0 -17.0 11.0 -17.0 11.0 -16.0 3.0 -16.0 M11.0 -3.0 L11.0 -2.0 3.0 -2.0 3.0 -3.0 11.0 -3.0" fill="#000000" fill-opacity="0.15294118" fill-rule="evenodd" stroke="none"/>
  </g>
  <defs>
    <linearGradient gradientTransform="matrix(0.0086, 0.0, 0.0, 0.0064, 7.05, 1.95)" gradientUnits="userSpaceOnUse" id="gradient0" spreadMethod="pad" x1="-819.2" x2="819.2">
      <stop offset="0.0" stop-color="#717171"/>
      <stop offset="0.10588235294117647" stop-color="#585858"/>
      <stop offset="0.3568627450980392" stop-color="#dfdfdf"/>
      <stop offset="0.5098039215686274" stop-color="#ffffff"/>
      <stop offset="0.6862745098039216" stop-color="#dfdfdf"/>
      <stop offset="1.0" stop-color="#555555"/>
    </linearGradient>
    <linearGradient gradientTransform="matrix(0.0051, 0.0, 0.0, 0.004, 7.0, -1.5)" gradientUnits="userSpaceOnUse" id="gradient1" spreadMethod="pad" x1="-819.2" x2="819.2">
      <stop offset="0.0" stop-color="#868686"/>
      <stop offset="0.18823529411764706" stop-color="#787878"/>
      <stop offset="0.47058823529411764" stop-color="#f6f6f6"/>
      <stop offset="0.592156862745098" stop-color="#ffffff"/>
      <stop offset="1.0" stop-color="#5b5b5b"/>
    </linearGradient>
    <linearGradient gradientTransform="matrix(0.0049, -0.002, 0.0018, 0.0044, 6.9, -5.5)" gradientUnits="userSpaceOnUse" id="gradient2" spreadMethod="pad" x1="-819.2" x2="819.2">
      <stop offset="0.0" stop-color="#cdcdcd"/>
      <stop offset="0.5843137254901961" stop-color="#d0d0d0"/>
      <stop offset="1.0" stop-color="#adadad"/>
    </linearGradient>
    <linearGradient gradientTransform="matrix(0.0033, -8.0E-4, 9.0E-4, 0.0036, 1.7, -5.5)" gradientUnits="userSpaceOnUse" id="gradient3" spreadMethod="pad" x1="-819.2" x2="819.2">
      <stop offset="0.0" stop-color="#9f9f9f"/>
      <stop offset="0.4745098039215686" stop-color="#717171"/>
    </linearGradient>
    <linearGradient gradientTransform="matrix(0.0049, 1.0E-4, -1.0E-4, 0.0053, 7.1, -10.75)" gradientUnits="userSpaceOnUse" id="gradient4" spreadMethod="pad" x1="-819.2" x2="819.2">
      <stop offset="0.0" stop-color="#bfbfbf"/>
      <stop offset="0.18823529411764706" stop-color="#e2e2e2"/>
      <stop offset="0.39215686274509803" stop-color="#ffffff"/>
      <stop offset="0.5764705882352941" stop-color="#ffffff"/>
      <stop offset="0.7764705882352941" stop-color="#ededed"/>
      <stop offset="1.0" stop-color="#cdcdcd"/>
    </linearGradient>
    <linearGradient gradientTransform="matrix(0.0048, 3.0E-4, -2.0E-4, 0.0035, 7.0, -14.0)" gradientUnits="userSpaceOnUse" id="gradient5" spreadMethod="pad" x1="-819.2" x2="819.2">
      <stop offset="0.0" stop-color="#2d7567"/>
      <stop offset="0.38823529411764707" stop-color="#69e2c4"/>
      <stop offset="0.6392156862745098" stop-color="#69e2c4"/>
      <stop offset="1.0" stop-color="#2d7567"/>
    </linearGradient>
    <linearGradient gradientTransform="matrix(0.0073, 2.0E-4, -1.0E-4, 0.0057, 6.95, -18.6)" gradientUnits="userSpaceOnUse" id="gradient6" spreadMethod="pad" x1="-819.2" x2="819.2">
      <stop offset="0.0" stop-color="#9f9f9f"/>
      <stop offset="0.13725490196078433" stop-color="#bfbfbf"/>
      <stop offset="0.39215686274509803" stop-color="#ffffff"/>
      <stop offset="0.6078431372549019" stop-color="#ffffff"/>
      <stop offset="0.9490196078431372" stop-color="#cdcdcd"/>
    </linearGradient>
    <linearGradient gradientTransform="matrix(0.0019, 0.0, 0.0, 0.0025, 7.05, -23.45)" gradientUnits="userSpaceOnUse" id="gradient7" spreadMethod="pad" x1="-819.2" x2="819.2">
      <stop offset="0.050980392156862744" stop-color="#836c2e"/>
      <stop offset="0.10980392156862745" stop-color="#9f832d"/>
      <stop offset="0.18823529411764706" stop-color="#836c2e"/>
      <stop offset="0.23921568627450981" stop-color="#836c2e"/>
      <stop offset="0.44313725490196076" stop-color="#ffffff"/>
      <stop offset="0.6509803921568628" stop-color="#ffffff"/>
      <stop offset="1.0" stop-color="#99791e"/>
    </linearGradient>
  </defs>
</svg>
