<?xml version="1.0" encoding="UTF-8" standalone="no"?>
<svg xmlns:xlink="http://www.w3.org/1999/xlink" height="113.0px" width="43.0px" xmlns="http://www.w3.org/2000/svg">
  <g transform="matrix(1.0, 0.0, 0.0, 1.0, 21.5, 56.5)">
    <path d="M8.5 -52.15 Q8.8 -47.9 8.5 -43.8 L8.1 -42.6 7.1 -41.75 3.2 -39.75 3.25 -38.15 3.8 -37.75 Q4.5 -37.05 4.5 -36.0 L4.5 -35.2 Q4.8 -33.9 5.7 -32.8 L5.65 -32.9 Q6.6 -31.8 7.85 -31.35 8.6 -31.1 9.05 -30.45 9.5 -29.8 9.5 -29.0 L9.5 -28.0 9.8 -27.75 Q10.5 -27.05 10.5 -26.0 L10.5 16.0 10.75 16.25 Q11.5 16.95 11.5 17.95 L11.8 20.5 18.0 20.5 Q18.8 20.5 19.45 21.0 20.1 21.45 20.4 22.2 L21.4 25.2 Q21.65 25.95 21.4 26.75 21.15 27.5 20.55 28.0 L19.15 28.5 7.5 29.1 7.25 30.1 6.6 30.95 5.6 32.15 5.6 32.25 5.5 33.95 Q5.55 34.6 5.2 35.2 L4.5 36.0 4.5 46.8 4.55 46.85 Q8.95 48.1 12.6 51.05 13.25 51.6 13.45 52.45 13.6 53.3 13.25 54.1 12.9 54.85 12.15 55.25 L10.15 56.25 8.85 56.5 7.65 56.1 Q4.05 53.75 0.1 53.5 L-0.05 53.5 Q-4.05 53.75 -7.6 56.1 -8.2 56.45 -8.85 56.5 L-10.1 56.25 -12.1 55.25 -13.25 54.1 Q-13.6 53.3 -13.4 52.45 -13.25 51.6 -12.55 51.05 -8.9 48.15 -4.55 46.85 L-4.5 46.8 -4.5 36.0 -5.2 35.2 Q-5.55 34.6 -5.5 33.95 -5.45 32.75 -5.55 32.25 L-5.6 32.15 -6.6 30.95 -7.25 30.1 -7.5 29.1 -19.1 28.5 Q-19.9 28.45 -20.55 28.0 -21.15 27.5 -21.4 26.75 -21.65 25.95 -21.35 25.2 L-20.35 22.2 Q-20.1 21.45 -19.45 21.0 -18.8 20.5 -18.0 20.5 L-11.75 20.5 Q-11.5 19.35 -11.5 18.0 -11.5 16.95 -10.75 16.25 L-10.5 16.0 -10.5 -26.0 Q-10.5 -27.05 -9.75 -27.75 L-9.5 -28.0 -9.5 -29.0 Q-9.5 -29.8 -9.05 -30.45 -8.6 -31.1 -7.8 -31.35 -6.6 -31.8 -5.6 -32.9 L-5.65 -32.8 Q-4.8 -33.9 -4.5 -35.2 L-4.5 -36.0 Q-4.5 -37.05 -3.75 -37.75 L-3.65 -37.85 Q-3.95 -42.5 -3.1 -43.3 -2.55 -44.65 1.6 -46.6 1.75 -50.2 1.5 -53.8 1.45 -54.6 1.85 -55.25 2.25 -55.95 3.0 -56.25 L4.45 -56.45 Q5.2 -56.3 5.8 -55.75 L7.8 -53.75 Q8.45 -53.1 8.5 -52.15" fill="#000000" fill-rule="evenodd" stroke="none"/>
    <path d="M-8.0 -24.0 L8.0 -24.0 8.0 15.0 -8.0 15.0 -8.0 -24.0" fill="#919191" fill-rule="evenodd" stroke="none"/>
    <path d="M-7.0 -24.0 L7.0 -24.0 7.0 15.0 -7.0 15.0 -7.0 -24.0" fill="url(#gradient0)" fill-rule="evenodd" stroke="none"/>
    <path d="M2.0 47.0 L-2.0 47.0 -2.0 45.0 2.0 45.0 2.0 47.0" fill="url(#gradient1)" fill-rule="evenodd" stroke="none"/>
    <path d="M2.0 -2.0 L2.0 15.0 -2.0 15.0 -2.0 -2.0 2.0 -2.0" fill="url(#gradient2)" fill-rule="evenodd" stroke="none"/>
    <path d="M2.0 45.0 L-2.0 45.0 -2.0 34.0 2.0 34.0 2.0 45.0" fill="url(#gradient3)" fill-rule="evenodd" stroke="none"/>
    <path d="M7.0 -2.0 L-7.0 -2.0 -7.0 -3.0 7.0 -3.0 7.0 -2.0" fill="url(#gradient4)" fill-rule="evenodd" stroke="none"/>
    <path d="M7.0 -3.0 L-7.0 -3.0 -7.0 -6.0 7.0 -6.0 7.0 -3.0" fill="url(#gradient5)" fill-rule="evenodd" stroke="none"/>
    <path d="M4.0 -8.0 L5.45 -6.95 Q6.0 -6.6 7.0 -6.0 L-7.0 -6.0 -5.5 -6.9 Q-4.5 -7.55 -4.0 -8.0 L0.0 -8.0 4.0 -8.0" fill="url(#gradient6)" fill-rule="evenodd" stroke="none"/>
    <path d="M9.0 54.0 Q4.75 51.2 0.0 51.0 -4.75 51.2 -9.0 54.0 L-11.0 53.0 Q-7.4 50.1 -3.0 49.0 L3.0 49.0 Q7.4 50.1 11.0 53.0 L9.0 54.0" fill="url(#gradient7)" fill-rule="evenodd" stroke="none"/>
    <path d="M3.0 48.95 Q1.75 49.9 0.05 49.95 -1.65 49.95 -3.0 49.0 -2.25 48.25 -2.0 47.0 L2.0 47.0 Q2.25 48.2 3.0 48.95" fill="url(#gradient8)" fill-rule="evenodd" stroke="none"/>
    <path d="M5.0 29.0 Q3.55 30.2 3.2 31.45 2.95 32.2 3.0 34.0 L0.0 34.0 -3.0 34.0 Q-2.95 32.2 -3.2 31.45 -3.55 30.2 -5.0 29.0 L0.0 29.0 5.0 29.0" fill="url(#gradient9)" fill-rule="evenodd" stroke="none"/>
    <path d="M5.0 29.0 L-5.0 29.0 -5.0 26.0 5.0 26.0 5.0 29.0" fill="url(#gradient10)" fill-rule="evenodd" stroke="none"/>
    <path d="M5.0 28.0 L-5.0 28.0 -5.0 26.0 5.0 26.0 5.0 28.0" fill="#000000" fill-opacity="0.2" fill-rule="evenodd" stroke="none"/>
    <path d="M0.0 27.0 L-19.0 26.0 -18.0 23.0 0.0 23.0 0.0 27.0" fill="url(#gradient11)" fill-rule="evenodd" stroke="none"/>
    <path d="M19.0 26.0 L0.0 27.0 0.0 23.0 18.0 23.0 19.0 26.0" fill="url(#gradient12)" fill-rule="evenodd" stroke="none"/>
    <path d="M10.0 23.0 L0.0 23.0 -10.0 23.0 Q-9.05 20.95 -9.0 18.0 L0.0 18.0 9.0 18.0 Q9.05 20.95 10.0 23.0" fill="url(#gradient13)" fill-rule="evenodd" stroke="none"/>
    <path d="M8.0 18.0 L-8.0 18.0 -8.0 15.0 8.0 15.0 8.0 18.0" fill="url(#gradient14)" fill-rule="evenodd" stroke="none"/>
    <path d="M7.0 -22.0 L-7.0 -22.0 -7.0 -29.0 7.0 -29.0 7.0 -22.0" fill="url(#gradient15)" fill-rule="evenodd" stroke="none"/>
    <path d="M8.0 -24.0 L-8.0 -24.0 -8.0 -26.0 8.0 -26.0 8.0 -24.0" fill="url(#gradient16)" fill-rule="evenodd" stroke="none"/>
    <path d="M7.0 -29.0 L0.0 -29.0 -7.0 -29.0 Q-5.15 -29.65 -3.75 -31.25 -2.4 -32.9 -2.0 -35.0 L0.0 -35.0 2.0 -35.0 Q2.4 -32.9 3.75 -31.25 5.15 -29.65 7.0 -29.0" fill="url(#gradient17)" fill-rule="evenodd" stroke="none"/>
    <path d="M2.0 -35.0 L-2.0 -35.0 -2.0 -36.0 2.0 -36.0 2.0 -35.0" fill="url(#gradient18)" fill-rule="evenodd" stroke="none"/>
    <path d="M6.0 -52.0 Q6.3 -47.9 6.0 -44.0 1.5 -41.85 1.0 -41.0 0.45 -40.0 1.0 -36.0 L-1.0 -36.0 Q-1.5 -41.2 -1.0 -42.0 -0.35 -43.05 4.0 -45.0 4.3 -49.4 4.0 -54.0 L6.0 -52.0" fill="url(#gradient19)" fill-rule="evenodd" stroke="none"/>
    <path d="M6.0 -52.0 L5.7 -46.35 Q5.4 -44.0 5.0 -44.0 4.6 -44.0 4.3 -46.35 4.0 -48.7 4.0 -52.0 L4.05 -53.95 6.0 -52.0" fill="url(#gradient20)" fill-rule="evenodd" stroke="none"/>
    <path d="M-2.0 34.0 L2.0 34.0 2.0 35.0 -2.0 35.0 -2.0 34.0 M2.0 -2.0 L2.0 0.0 -2.0 0.0 -2.0 -2.0 2.0 -2.0" fill="#000000" fill-opacity="0.2" fill-rule="evenodd" stroke="none"/>
    <path d="M7.0 -22.0 L-7.0 -22.0 -7.0 -24.0 7.0 -24.0 7.0 -22.0" fill="#ffffff" fill-opacity="0.22352941" fill-rule="evenodd" stroke="none"/>
    <path d="M-3.0 -24.0 L-3.0 15.0 -8.0 15.0 -8.0 -24.0 -3.0 -24.0" fill="url(#gradient21)" fill-rule="evenodd" stroke="none"/>
    <path d="M4.0 -24.0 L4.0 15.0 1.0 15.0 1.0 -24.0 4.0 -24.0" fill="url(#gradient22)" fill-rule="evenodd" stroke="none"/>
    <path d="M4.0 -18.0 L0.0 -14.0 M5.0 -15.0 L7.0 -13.0" fill="none" stroke="#ffffff" stroke-linecap="round" stroke-linejoin="round" stroke-width="0.25"/>
    <path d="M4.0 -18.0 L5.0 -15.0" fill="none" stroke="#dbdbdb" stroke-linecap="round" stroke-linejoin="round" stroke-width="0.25"/>
    <path d="M7.0 -13.0 L7.0 -11.0" fill="none" stroke="#a3a3a3" stroke-linecap="round" stroke-linejoin="round" stroke-width="0.25"/>
    <path d="M7.0 -21.0 L4.0 -18.0" fill="none" stroke="url(#gradient23)" stroke-linecap="round" stroke-linejoin="round" stroke-width="0.25"/>
    <path d="M0.0 -14.0 L-7.0 -11.0" fill="none" stroke="url(#gradient24)" stroke-linecap="round" stroke-linejoin="round" stroke-width="0.25"/>
  </g>
  <defs>
    <linearGradient gradientTransform="matrix(0.0085, 0.0, 0.0, 0.0238, 0.0, -4.5)" gradientUnits="userSpaceOnUse" id="gradient0" spreadMethod="pad" x1="-819.2" x2="819.2">
      <stop offset="0.0" stop-color="#757a8a"/>
      <stop offset="0.3686274509803922" stop-color="#b1b6be"/>
      <stop offset="0.6470588235294118" stop-color="#b1b6be"/>
      <stop offset="0.9607843137254902" stop-color="#676f7a"/>
    </linearGradient>
    <linearGradient gradientTransform="matrix(0.0024, 0.0, 0.0, 0.0012, 0.0, 46.0)" gradientUnits="userSpaceOnUse" id="gradient1" spreadMethod="pad" x1="-819.2" x2="819.2">
      <stop offset="0.0" stop-color="#606060"/>
      <stop offset="0.13725490196078433" stop-color="#5b5b5b"/>
      <stop offset="0.3137254901960784" stop-color="#a29d9d"/>
      <stop offset="0.3803921568627451" stop-color="#cdcdcd"/>
      <stop offset="0.49019607843137253" stop-color="#e2e2e2"/>
      <stop offset="0.6039215686274509" stop-color="#cdcdcd"/>
      <stop offset="0.6862745098039216" stop-color="#a29d9d"/>
      <stop offset="0.8313725490196079" stop-color="#5b5b5b"/>
      <stop offset="1.0" stop-color="#606060"/>
    </linearGradient>
    <linearGradient gradientTransform="matrix(0.0024, 0.0, 0.0, 0.0104, 0.0, 6.5)" gradientUnits="userSpaceOnUse" id="gradient2" spreadMethod="pad" x1="-819.2" x2="819.2">
      <stop offset="0.0" stop-color="#606060"/>
      <stop offset="0.13725490196078433" stop-color="#434343"/>
      <stop offset="0.44313725490196076" stop-color="#808080"/>
      <stop offset="0.5686274509803921" stop-color="#808080"/>
      <stop offset="0.8313725490196079" stop-color="#434343"/>
      <stop offset="1.0" stop-color="#606060"/>
    </linearGradient>
    <linearGradient gradientTransform="matrix(0.0024, 0.0, 0.0, 0.0067, 0.0, 39.5)" gradientUnits="userSpaceOnUse" id="gradient3" spreadMethod="pad" x1="-819.2" x2="819.2">
      <stop offset="0.0" stop-color="#606060"/>
      <stop offset="0.13725490196078433" stop-color="#434343"/>
      <stop offset="0.4117647058823529" stop-color="#808080"/>
      <stop offset="0.5725490196078431" stop-color="#808080"/>
      <stop offset="0.8313725490196079" stop-color="#434343"/>
      <stop offset="1.0" stop-color="#606060"/>
    </linearGradient>
    <linearGradient gradientTransform="matrix(0.0073, 0.0, 0.0, 6.0E-4, 0.0, -2.5)" gradientUnits="userSpaceOnUse" id="gradient4" spreadMethod="pad" x1="-819.2" x2="819.2">
      <stop offset="0.0" stop-color="#606060"/>
      <stop offset="0.13725490196078433" stop-color="#5b5b5b"/>
      <stop offset="0.3137254901960784" stop-color="#a29d9d"/>
      <stop offset="0.3803921568627451" stop-color="#cdcdcd"/>
      <stop offset="0.49019607843137253" stop-color="#e2e2e2"/>
      <stop offset="0.6039215686274509" stop-color="#cdcdcd"/>
      <stop offset="0.6862745098039216" stop-color="#a29d9d"/>
      <stop offset="0.8313725490196079" stop-color="#5b5b5b"/>
      <stop offset="1.0" stop-color="#606060"/>
    </linearGradient>
    <linearGradient gradientTransform="matrix(0.0085, 0.0, 0.0, 0.0018, 0.0, -4.5)" gradientUnits="userSpaceOnUse" id="gradient5" spreadMethod="pad" x1="-819.2" x2="819.2">
      <stop offset="0.043137254901960784" stop-color="#181818"/>
      <stop offset="0.12941176470588237" stop-color="#2e2e2e"/>
      <stop offset="0.5019607843137255" stop-color="#4a4a4a"/>
      <stop offset="0.8823529411764706" stop-color="#2e2e2e"/>
      <stop offset="0.9686274509803922" stop-color="#181818"/>
    </linearGradient>
    <radialGradient cx="0" cy="0" gradientTransform="matrix(0.0098, 0.0, 0.0, 0.0074, 0.0, -6.0)" gradientUnits="userSpaceOnUse" id="gradient6" r="819.2" spreadMethod="pad">
      <stop offset="0.12156862745098039" stop-color="#353535"/>
      <stop offset="0.42745098039215684" stop-color="#202020"/>
      <stop offset="0.6980392156862745" stop-color="#2e2e2e"/>
    </radialGradient>
    <linearGradient gradientTransform="matrix(0.0147, -6.0E-4, 1.0E-4, 0.0031, 0.1, 51.5)" gradientUnits="userSpaceOnUse" id="gradient7" spreadMethod="pad" x1="-819.2" x2="819.2">
      <stop offset="0.0196078431372549" stop-color="#ba9176"/>
      <stop offset="0.17254901960784313" stop-color="#9a7a65"/>
      <stop offset="0.7254901960784313" stop-color="#755c4c"/>
      <stop offset="0.9490196078431372" stop-color="#72534e"/>
    </linearGradient>
    <radialGradient cx="0" cy="0" gradientTransform="matrix(0.0073, 0.0, 0.0, 0.0067, 0.0, 50.0)" gradientUnits="userSpaceOnUse" id="gradient8" r="819.2" spreadMethod="pad">
      <stop offset="0.0196078431372549" stop-color="#a88879"/>
      <stop offset="0.10588235294117647" stop-color="#9a7a65"/>
      <stop offset="0.24705882352941178" stop-color="#755c4c"/>
      <stop offset="0.43529411764705883" stop-color="#5e453e"/>
      <stop offset="0.6980392156862745" stop-color="#48352f"/>
    </radialGradient>
    <radialGradient cx="0" cy="0" gradientTransform="matrix(0.0075, 0.0, 0.0, 0.0128, 0.0, 34.0)" gradientUnits="userSpaceOnUse" id="gradient9" r="819.2" spreadMethod="pad">
      <stop offset="0.0196078431372549" stop-color="#a88879"/>
      <stop offset="0.10588235294117647" stop-color="#9a7a65"/>
      <stop offset="0.24705882352941178" stop-color="#755c4c"/>
      <stop offset="0.43529411764705883" stop-color="#5e453e"/>
      <stop offset="0.6980392156862745" stop-color="#48352f"/>
    </radialGradient>
    <linearGradient gradientTransform="matrix(0.0061, 0.0, 0.0, 0.0018, 0.0, 27.5)" gradientUnits="userSpaceOnUse" id="gradient10" spreadMethod="pad" x1="-819.2" x2="819.2">
      <stop offset="0.0" stop-color="#554137"/>
      <stop offset="0.1568627450980392" stop-color="#48362f"/>
      <stop offset="0.3058823529411765" stop-color="#795646"/>
      <stop offset="0.4392156862745098" stop-color="#ad7052"/>
      <stop offset="0.4980392156862745" stop-color="#ba8776"/>
      <stop offset="0.5529411764705883" stop-color="#ad7052"/>
      <stop offset="0.6901960784313725" stop-color="#795646"/>
      <stop offset="0.8431372549019608" stop-color="#48362f"/>
      <stop offset="1.0" stop-color="#554137"/>
    </linearGradient>
    <linearGradient gradientTransform="matrix(-0.0116, 0.0, 0.0, -0.0024, -9.5, 25.0)" gradientUnits="userSpaceOnUse" id="gradient11" spreadMethod="pad" x1="-819.2" x2="819.2">
      <stop offset="0.0" stop-color="#795646"/>
      <stop offset="0.2980392156862745" stop-color="#48362f"/>
      <stop offset="0.8980392156862745" stop-color="#503d34"/>
      <stop offset="1.0" stop-color="#675143"/>
    </linearGradient>
    <linearGradient gradientTransform="matrix(-0.0116, 0.0, 0.0, -0.0024, 9.5, 25.0)" gradientUnits="userSpaceOnUse" id="gradient12" spreadMethod="pad" x1="-819.2" x2="819.2">
      <stop offset="0.0" stop-color="#675143"/>
      <stop offset="0.25882352941176473" stop-color="#48362f"/>
      <stop offset="0.5529411764705883" stop-color="#8a5f51"/>
      <stop offset="0.796078431372549" stop-color="#d1967a"/>
      <stop offset="0.9882352941176471" stop-color="#d7bcb5"/>
    </linearGradient>
    <linearGradient gradientTransform="matrix(0.0122, 0.0, 0.0, 0.0031, 0.0, 20.5)" gradientUnits="userSpaceOnUse" id="gradient13" spreadMethod="pad" x1="-819.2" x2="819.2">
      <stop offset="0.0" stop-color="#675143"/>
      <stop offset="0.1568627450980392" stop-color="#48362f"/>
      <stop offset="0.3058823529411765" stop-color="#795646"/>
      <stop offset="0.4392156862745098" stop-color="#ad7052"/>
      <stop offset="0.4980392156862745" stop-color="#ba8776"/>
      <stop offset="0.5529411764705883" stop-color="#ad7052"/>
      <stop offset="0.6901960784313725" stop-color="#795646"/>
      <stop offset="0.8431372549019608" stop-color="#48362f"/>
      <stop offset="1.0" stop-color="#675143"/>
    </linearGradient>
    <linearGradient gradientTransform="matrix(0.0098, 0.0, 0.0, 0.0018, 0.0, 16.5)" gradientUnits="userSpaceOnUse" id="gradient14" spreadMethod="pad" x1="-819.2" x2="819.2">
      <stop offset="0.0" stop-color="#606060"/>
      <stop offset="0.13725490196078433" stop-color="#5b5b5b"/>
      <stop offset="0.3137254901960784" stop-color="#a29d9d"/>
      <stop offset="0.3803921568627451" stop-color="#cdcdcd"/>
      <stop offset="0.49019607843137253" stop-color="#e2e2e2"/>
      <stop offset="0.6039215686274509" stop-color="#cdcdcd"/>
      <stop offset="0.6862745098039216" stop-color="#a29d9d"/>
      <stop offset="0.8313725490196079" stop-color="#5b5b5b"/>
      <stop offset="1.0" stop-color="#606060"/>
    </linearGradient>
    <linearGradient gradientTransform="matrix(0.0085, 0.0, 0.0, 0.0043, 0.0, -25.5)" gradientUnits="userSpaceOnUse" id="gradient15" spreadMethod="pad" x1="-819.2" x2="819.2">
      <stop offset="0.0" stop-color="#675143"/>
      <stop offset="0.1568627450980392" stop-color="#48362f"/>
      <stop offset="0.3058823529411765" stop-color="#795646"/>
      <stop offset="0.4392156862745098" stop-color="#ad7052"/>
      <stop offset="0.4980392156862745" stop-color="#ba8776"/>
      <stop offset="0.5529411764705883" stop-color="#ad7052"/>
      <stop offset="0.6901960784313725" stop-color="#795646"/>
      <stop offset="0.8431372549019608" stop-color="#48362f"/>
      <stop offset="1.0" stop-color="#675143"/>
    </linearGradient>
    <linearGradient gradientTransform="matrix(0.0098, 0.0, 0.0, 0.0012, 0.0, -25.0)" gradientUnits="userSpaceOnUse" id="gradient16" spreadMethod="pad" x1="-819.2" x2="819.2">
      <stop offset="0.0" stop-color="#606060"/>
      <stop offset="0.13725490196078433" stop-color="#5b5b5b"/>
      <stop offset="0.3137254901960784" stop-color="#a29d9d"/>
      <stop offset="0.3803921568627451" stop-color="#cdcdcd"/>
      <stop offset="0.49019607843137253" stop-color="#e2e2e2"/>
      <stop offset="0.6039215686274509" stop-color="#cdcdcd"/>
      <stop offset="0.6862745098039216" stop-color="#a29d9d"/>
      <stop offset="0.8313725490196079" stop-color="#5b5b5b"/>
      <stop offset="1.0" stop-color="#606060"/>
    </linearGradient>
    <radialGradient cx="0" cy="0" gradientTransform="matrix(0.0098, 0.0, 0.0, 0.0198, 0.0, -28.95)" gradientUnits="userSpaceOnUse" id="gradient17" r="819.2" spreadMethod="pad">
      <stop offset="0.03529411764705882" stop-color="#d3aa9c"/>
      <stop offset="0.16470588235294117" stop-color="#bb7351"/>
      <stop offset="0.3607843137254902" stop-color="#885944"/>
      <stop offset="0.6823529411764706" stop-color="#4e3832"/>
      <stop offset="1.0" stop-color="#291d1d"/>
    </radialGradient>
    <linearGradient gradientTransform="matrix(0.0024, 0.0, 0.0, 6.0E-4, 0.0, -35.5)" gradientUnits="userSpaceOnUse" id="gradient18" spreadMethod="pad" x1="-819.2" x2="819.2">
      <stop offset="0.0" stop-color="#606060"/>
      <stop offset="0.13725490196078433" stop-color="#5b5b5b"/>
      <stop offset="0.3137254901960784" stop-color="#a29d9d"/>
      <stop offset="0.3803921568627451" stop-color="#cdcdcd"/>
      <stop offset="0.49019607843137253" stop-color="#e2e2e2"/>
      <stop offset="0.6039215686274509" stop-color="#cdcdcd"/>
      <stop offset="0.6862745098039216" stop-color="#a29d9d"/>
      <stop offset="0.8313725490196079" stop-color="#5b5b5b"/>
      <stop offset="1.0" stop-color="#606060"/>
    </linearGradient>
    <radialGradient cx="0" cy="0" gradientTransform="matrix(0.005, 0.0, 0.0, 0.0112, 0.0, -36.0)" gradientUnits="userSpaceOnUse" id="gradient19" r="819.2" spreadMethod="pad">
      <stop offset="0.0" stop-color="#e2e2e2"/>
      <stop offset="0.043137254901960784" stop-color="#cdcdcd"/>
      <stop offset="0.5215686274509804" stop-color="#757575"/>
      <stop offset="1.0" stop-color="#a6a6a6"/>
    </radialGradient>
    <radialGradient cx="0" cy="0" gradientTransform="matrix(0.0036, 0.0, 0.0, 0.0071, 5.05, -54.0)" gradientUnits="userSpaceOnUse" id="gradient20" r="819.2" spreadMethod="pad">
      <stop offset="0.1843137254901961" stop-color="#ffffff"/>
      <stop offset="1.0" stop-color="#989898" stop-opacity="0.0"/>
    </radialGradient>
    <linearGradient gradientTransform="matrix(0.0031, 0.0, 0.0, 0.0269, -5.5, -2.0)" gradientUnits="userSpaceOnUse" id="gradient21" spreadMethod="pad" x1="-819.2" x2="819.2">
      <stop offset="0.00392156862745098" stop-color="#ffffff" stop-opacity="0.12156863"/>
      <stop offset="0.6235294117647059" stop-color="#ffffff" stop-opacity="0.2"/>
      <stop offset="0.6627450980392157" stop-color="#ffffff" stop-opacity="0.0"/>
    </linearGradient>
    <linearGradient gradientTransform="matrix(0.0, -0.0269, 0.0269, 0.0, 2.5, -2.0)" gradientUnits="userSpaceOnUse" id="gradient22" spreadMethod="pad" x1="-819.2" x2="819.2">
      <stop offset="0.00392156862745098" stop-color="#ffffff" stop-opacity="0.24313726"/>
      <stop offset="1.0" stop-color="#ffffff" stop-opacity="0.53333336"/>
    </linearGradient>
    <linearGradient gradientTransform="matrix(0.0087, 0.0, 0.0, 0.0062, 0.0, -16.0)" gradientUnits="userSpaceOnUse" id="gradient23" spreadMethod="pad" x1="-819.2" x2="819.2">
      <stop offset="0.0" stop-color="#808080"/>
      <stop offset="0.5176470588235295" stop-color="#d8d8d8"/>
    </linearGradient>
    <linearGradient gradientTransform="matrix(0.0087, 0.0, 0.0, 0.0062, 0.0, -16.0)" gradientUnits="userSpaceOnUse" id="gradient24" spreadMethod="pad" x1="-819.2" x2="819.2">
      <stop offset="0.0" stop-color="#666666"/>
      <stop offset="0.25098039215686274" stop-color="#d8d8d8"/>
    </linearGradient>
  </defs>
</svg>
