<?xml version="1.0" encoding="UTF-8" standalone="no"?>
<svg xmlns:xlink="http://www.w3.org/1999/xlink" height="99.5px" width="98.5px" xmlns="http://www.w3.org/2000/svg">
  <g transform="matrix(1.0, 0.0, 0.0, 1.0, 48.55, 48.5)">
    <path d="M27.45 20.5 L45.45 38.5 45.45 41.5 40.45 46.5 37.45 46.5 19.45 28.5 27.45 20.5" fill="#990033" fill-rule="evenodd" stroke="none"/>
    <path d="M10.95 27.0 L26.95 11.0 29.45 8.5 35.45 8.5 35.45 15.0 30.45 17.5 27.45 20.5 19.45 28.5 16.45 31.5 14.95 35.5 8.45 35.5 8.45 29.5 10.95 27.0 M45.45 38.5 L48.45 41.5 48.45 47.5 46.45 49.5 40.45 49.5 37.45 46.5 40.45 46.5 45.45 41.5 45.45 38.5" fill="#ffcc00" fill-rule="evenodd" stroke="none"/>
    <path d="M10.95 27.0 L-47.05 -31.0 -47.05 -47.0 -31.05 -47.0 26.95 11.0 10.95 27.0 M-31.05 -31.2 L-43.05 -31.2 11.4 23.2 17.35 17.2 -31.05 -31.2" fill="#ffffff" fill-rule="evenodd" stroke="none"/>
    <path d="M-31.05 -31.2 L17.35 17.2 11.4 23.2 -43.05 -31.2 -31.05 -31.2" fill="#cccccc" fill-rule="evenodd" stroke="none"/>
    <path d="M26.95 11.0 L-31.05 -47.0 -47.05 -47.0 -47.05 -31.0 10.95 27.0 M26.95 11.0 L29.45 8.5 35.45 8.5 35.45 15.0 30.45 17.5 27.45 20.5 45.45 38.5 48.45 41.5 48.45 47.5 46.45 49.5 40.45 49.5 37.45 46.5 19.45 28.5 16.45 31.5 14.95 35.5 8.45 35.5 8.45 29.5 10.95 27.0" fill="none" stroke="#000000" stroke-linecap="round" stroke-linejoin="round" stroke-width="3.0"/>
    <path d="M-31.05 -31.2 L17.35 17.2 11.4 23.2 -43.05 -31.2 -31.05 -31.2" fill="none" stroke="#cccccc" stroke-linecap="round" stroke-linejoin="round" stroke-width="3.0"/>
    <path d="M10.95 27.0 L26.95 11.0" fill="none" stroke="#996633" stroke-linecap="round" stroke-linejoin="round" stroke-width="2.0"/>
    <path d="M19.45 28.5 L27.45 20.5" fill="none" stroke="#660033" stroke-linecap="round" stroke-linejoin="round" stroke-width="2.0"/>
  </g>
</svg>
