<?xml version="1.0" encoding="UTF-8" standalone="no"?>
<svg xmlns:xlink="http://www.w3.org/1999/xlink" height="108.45px" width="112.1px" xmlns="http://www.w3.org/2000/svg">
  <g transform="matrix(1.0, 0.0, 0.0, 1.0, 52.6, 68.95)">
    <path d="M32.0 -38.0 L48.0 -22.0 16.0 -22.0 32.0 -38.0" fill="#9ccefe" fill-rule="evenodd" stroke="none"/>
    <path d="M48.0 -22.0 L48.0 -18.0 16.0 -18.0 16.0 -22.0 48.0 -22.0" fill="#c0e0fe" fill-rule="evenodd" stroke="none"/>
    <path d="M0.0 -38.0 L32.0 -38.0 16.0 -22.0 0.0 -38.0" fill="#ffffff" fill-rule="evenodd" stroke="none"/>
    <path d="M0.0 -38.0 L16.0 -22.0 -16.0 -22.0 0.0 -38.0" fill="#c7e3fe" fill-rule="evenodd" stroke="none"/>
    <path d="M16.0 -22.0 L16.0 -18.0 -16.0 -18.0 -16.0 -22.0 16.0 -22.0" fill="#5cabf8" fill-rule="evenodd" stroke="none"/>
    <path d="M48.0 -18.0 L0.0 38.0 16.0 -18.0 48.0 -18.0" fill="#3399ff" fill-rule="evenodd" stroke="none"/>
    <path d="M16.0 -18.0 L0.0 38.0 -16.0 -18.0 16.0 -18.0" fill="url(#gradient0)" fill-rule="evenodd" stroke="none"/>
    <path d="M-48.0 -22.0 L-32.0 -38.0 -16.0 -22.0 -48.0 -22.0" fill="#5eaefd" fill-rule="evenodd" stroke="none"/>
    <path d="M-48.0 -18.0 L-48.0 -22.0 -16.0 -22.0 -16.0 -18.0 -48.0 -18.0" fill="#3398fd" fill-rule="evenodd" stroke="none"/>
    <path d="M-32.0 -38.0 L0.0 -38.0 -16.0 -22.0 -32.0 -38.0" fill="#96cbfe" fill-rule="evenodd" stroke="none"/>
    <path d="M0.0 38.0 L-48.0 -18.0 -16.0 -18.0 0.0 38.0" fill="#0371de" fill-rule="evenodd" stroke="none"/>
    <path d="M48.0 -22.0 L48.0 -18.0 0.0 38.0 -48.0 -18.0 -48.0 -22.0 -32.0 -38.0 0.0 -38.0 32.0 -38.0 48.0 -22.0 Z" fill="none" stroke="#000000" stroke-linecap="round" stroke-linejoin="round" stroke-width="3.0"/>
    <path d="M-30.45 17.6 L-32.0 36.65 -33.55 17.6 -52.6 16.0 -33.55 14.45 -32.0 -4.6 -30.45 14.45 -11.35 16.0 -30.45 17.6" fill="url(#gradient1)" fill-rule="evenodd" stroke="none"/>
    <path d="M34.05 -39.4 L32.0 -14.0 29.95 -39.4 4.55 -41.5 29.95 -43.55 32.0 -68.95 34.05 -43.55 59.5 -41.5 34.05 -39.4" fill="url(#gradient2)" fill-rule="evenodd" stroke="none"/>
  </g>
  <defs>
    <linearGradient gradientTransform="matrix(0.0, 0.0439, -0.0342, 0.0, 0.0, 10.0)" gradientUnits="userSpaceOnUse" id="gradient0" spreadMethod="pad" x1="-819.2" x2="819.2">
      <stop offset="0.0" stop-color="#96cbfe"/>
      <stop offset="1.0" stop-color="#449ffb"/>
    </linearGradient>
    <radialGradient cx="0" cy="0" gradientTransform="matrix(0.0252, 0.0, 0.0, 0.0252, -32.0, 16.0)" gradientUnits="userSpaceOnUse" id="gradient1" r="819.2" spreadMethod="pad">
      <stop offset="0.0" stop-color="#ffffff"/>
      <stop offset="0.4980392156862745" stop-color="#f5fffb"/>
      <stop offset="0.7294117647058823" stop-color="#b4fce2"/>
      <stop offset="1.0" stop-color="#96cbfe" stop-opacity="0.0"/>
    </radialGradient>
    <radialGradient cx="0" cy="0" gradientTransform="matrix(0.0335, 0.0, 0.0, 0.0335, 32.0, -41.5)" gradientUnits="userSpaceOnUse" id="gradient2" r="819.2" spreadMethod="pad">
      <stop offset="0.0" stop-color="#ffffff"/>
      <stop offset="0.4980392156862745" stop-color="#f5fffb"/>
      <stop offset="0.7294117647058823" stop-color="#b4fce2"/>
      <stop offset="1.0" stop-color="#96cbfe" stop-opacity="0.0"/>
    </radialGradient>
  </defs>
</svg>
