<?xml version="1.0" encoding="UTF-8" standalone="no"?>
<svg xmlns:xlink="http://www.w3.org/1999/xlink" height="101.0px" width="85.1px" xmlns="http://www.w3.org/2000/svg">
  <g transform="matrix(1.0, 0.0, 0.0, 1.0, 42.55, 50.5)">
    <path d="M28.75 -19.1 Q43.15 -16.2 42.5 -11.0 43.0 -6.85 34.05 -4.15 35.95 -0.8 36.9 3.2 38.35 9.6 37.5 18.25 L37.5 18.3 Q36.5 27.05 33.05 34.05 L33.05 34.0 Q29.5 41.15 23.6 45.95 17.95 50.65 10.0 50.5 L9.95 50.5 Q5.3 50.5 0.0 47.85 -5.3 50.5 -9.95 50.5 -17.9 50.65 -23.55 45.95 L-23.6 45.95 Q-29.5 41.15 -33.05 34.0 L-33.0 34.05 Q-36.6 27.05 -37.45 18.25 -38.4 9.5 -36.85 3.2 -35.95 -0.8 -34.05 -4.15 -43.0 -6.85 -42.5 -11.0 -43.15 -16.2 -28.8 -19.1 L-22.3 -20.15 Q-1.8 -51.05 0.0 -50.5 1.8 -51.05 22.3 -20.15 L28.75 -19.1" fill="#000000" fill-rule="evenodd" stroke="none"/>
    <path d="M20.85 -17.85 L28.25 -16.65 Q40.0 -14.3 40.0 -11.0 40.0 -7.95 30.05 -5.7 33.2 -1.55 34.45 3.75 35.85 9.8 35.0 18.0 34.1 26.3 30.8 32.9 27.5 39.55 22.0 44.0 17.05 48.15 10.0 48.0 5.35 47.95 0.0 45.0 -5.35 47.95 -10.0 48.0 -17.0 48.15 -22.0 44.0 -27.5 39.55 -30.8 32.9 -34.15 26.3 -35.0 18.0 -35.85 9.75 -34.45 3.75 -33.2 -1.6 -30.05 -5.7 -40.0 -7.95 -40.0 -11.0 -40.0 -14.3 -28.3 -16.65 L-20.85 -17.85 Q-1.0 -48.0 0.0 -48.0 1.0 -48.0 20.85 -17.85" fill="url(#gradient0)" fill-rule="evenodd" stroke="none"/>
    <path d="M28.25 -16.65 Q40.0 -14.3 40.0 -11.0 40.0 -7.95 30.05 -5.7 33.2 -1.55 34.45 3.75 35.85 9.8 35.0 18.0 34.1 26.3 30.8 32.9 27.5 39.55 22.0 44.0 17.05 48.15 10.0 48.0 5.35 47.95 0.0 45.0 -5.35 47.95 -10.0 48.0 -17.0 48.15 -22.0 44.0 -27.5 39.55 -30.8 32.9 -34.15 26.3 -35.0 18.0 -35.85 9.75 -34.45 3.75 -33.2 -1.6 -30.05 -5.7 -40.0 -7.95 -40.0 -11.0 -40.0 -14.3 -28.3 -16.65 L-20.85 -17.85 Q-1.0 -48.0 0.0 -48.0 1.0 -48.0 20.85 -17.85 L28.25 -16.65 Z" fill="none" stroke="#000000" stroke-linecap="round" stroke-linejoin="round" stroke-opacity="0.2" stroke-width="2.0"/>
    <path d="M-10.0 10.0 L-12.1 5.15 -14.0 0.0 Q-16.15 2.05 -18.4 5.8 -20.75 9.65 -20.0 10.0 -18.9 10.55 -15.7 10.55 L-10.0 10.0 M0.0 -3.0 Q15.05 -3.0 26.1 -4.95 33.15 3.4 31.6 17.85 30.0 32.9 20.05 41.0 16.0 44.3 10.05 44.2 4.4 44.1 0.0 41.0 -4.4 44.1 -10.05 44.2 -15.95 44.3 -20.0 41.0 -29.95 32.9 -31.55 17.85 -33.1 3.4 -26.05 -4.9 -15.0 -3.0 0.0 -3.0 M-10.65 24.85 Q-15.1 23.85 -19.0 22.0 -15.9 26.7 -9.4 30.5 -3.45 34.0 0.0 34.0 3.45 34.0 9.4 30.5 15.9 26.7 19.0 22.0 15.1 23.85 10.65 24.85 10.35 26.5 9.0 28.0 7.0 27.05 6.45 25.6 L0.0 26.0 -6.45 25.6 Q-7.1 27.65 -9.0 29.0 -10.55 26.95 -10.65 24.85 M19.0 9.0 L14.0 1.0 Q12.3 3.75 11.55 5.4 10.5 7.6 10.0 10.0 14.6 10.0 19.0 9.0 M0.0 13.0 L-4.0 18.0 Q-0.1 17.4 4.0 18.0 1.7 15.95 0.0 13.0" fill="url(#gradient1)" fill-rule="evenodd" stroke="none"/>
    <path d="M25.5 -3.3 Q14.6 -1.5 0.0 -1.5 -14.55 -1.5 -25.4 -3.25 -31.45 4.55 -30.05 17.7 -28.5 32.1 -19.05 39.85 -15.4 42.8 -10.05 42.7 -4.9 42.6 -0.85 39.8 -0.5 39.5 0.0 39.5 0.5 39.5 0.9 39.8 4.9 42.6 10.1 42.7 15.45 42.8 19.1 39.85 28.55 32.1 30.1 17.7 31.5 4.55 25.5 -3.3 M0.0 -3.0 Q15.05 -3.0 26.1 -4.95 33.15 3.4 31.6 17.85 30.0 32.9 20.05 41.0 16.0 44.3 10.05 44.2 4.4 44.1 0.0 41.0 -4.4 44.1 -10.05 44.2 -15.95 44.3 -20.0 41.0 -29.95 32.9 -31.55 17.85 -33.1 3.4 -26.05 -4.9 -15.0 -3.0 0.0 -3.0" fill="#000000" fill-opacity="0.101960786" fill-rule="evenodd" stroke="none"/>
    <path d="M16.5 10.5 Q24.4 27.8 10.5 43.5 M-17.5 10.5 Q-20.95 18.95 -19.4 26.9 -17.75 35.3 -10.5 43.5 M-11.65 -2.7 L-13.5 0.5 M11.7 -2.7 L13.5 0.5" fill="none" stroke="url(#gradient2)" stroke-linecap="round" stroke-linejoin="round" stroke-width="1.0"/>
    <path d="M0.0 -9.0 Q-4.95 -8.95 -11.0 -10.25 -18.85 -12.0 -21.0 -15.0 L-17.0 -21.0 Q-13.3 -18.8 -7.55 -17.75 L0.0 -17.0 7.55 -17.75 Q13.3 -18.8 17.0 -21.0 L21.0 -15.0 Q18.85 -12.0 11.0 -10.25 4.95 -8.95 0.0 -9.0" fill="url(#gradient3)" fill-rule="evenodd" stroke="none"/>
  </g>
  <defs>
    <radialGradient cx="0" cy="0" gradientTransform="matrix(0.0488, 0.0, 0.0, 0.0611, 0.0, 0.0)" gradientUnits="userSpaceOnUse" id="gradient0" r="819.2" spreadMethod="pad">
      <stop offset="0.10588235294117647" stop-color="#62230f"/>
      <stop offset="0.43137254901960786" stop-color="#522010"/>
      <stop offset="0.8549019607843137" stop-color="#491818"/>
    </radialGradient>
    <radialGradient cx="0" cy="0" gradientTransform="matrix(0.048, 0.0, 0.0, 0.0576, 0.0, 0.0)" gradientUnits="userSpaceOnUse" id="gradient1" r="819.2" spreadMethod="pad">
      <stop offset="0.27450980392156865" stop-color="#4f8426"/>
      <stop offset="0.8" stop-color="#4a6f26"/>
      <stop offset="0.9490196078431372" stop-color="#464a2d"/>
      <stop offset="1.0" stop-color="#4f552b"/>
    </radialGradient>
    <linearGradient gradientTransform="matrix(3.0E-4, -0.0311, 0.0299, 3.0E-4, 0.0, 19.5)" gradientUnits="userSpaceOnUse" id="gradient2" spreadMethod="pad" x1="-819.2" x2="819.2">
      <stop offset="0.01568627450980392" stop-color="#3c291a"/>
      <stop offset="0.7254901960784313" stop-color="#694a2c"/>
      <stop offset="1.0" stop-color="#805b37"/>
    </linearGradient>
    <linearGradient gradientTransform="matrix(0.0, -0.0085, 0.0073, 0.0, 0.0, -15.0)" gradientUnits="userSpaceOnUse" id="gradient3" spreadMethod="pad" x1="-819.2" x2="819.2">
      <stop offset="0.058823529411764705" stop-color="#daa865"/>
      <stop offset="0.984313725490196" stop-color="#dfac7b"/>
    </linearGradient>
  </defs>
</svg>
