<?xml version="1.0" encoding="UTF-8" standalone="no"?>
<svg xmlns:xlink="http://www.w3.org/1999/xlink" height="47.0px" width="175.0px" xmlns="http://www.w3.org/2000/svg">
  <g transform="matrix(1.0, 0.0, 0.0, 1.0, 0.0, 8.0)">
    <path d="M136.55 -7.0 L141.0 0.0 171.0 0.0 Q175.0 0.0 175.0 4.0 L175.0 35.0 Q175.0 39.0 171.0 39.0 L72.5 39.0 4.0 39.0 Q0.0 39.0 0.0 35.0 L0.0 4.0 Q0.0 0.0 4.0 0.0 L72.5 0.0 130.1 0.0 134.55 -7.0 135.55 -8.0 136.55 -7.0" fill="#000000" fill-rule="evenodd" stroke="none"/>
    <path d="M173.0 35.0 Q173.0 37.0 171.0 37.0 L4.0 37.0 Q2.0 37.0 2.0 35.0 L2.0 4.0 Q2.0 2.0 4.0 2.0 L130.1 2.0 131.05 1.75 131.8 1.1 135.55 -4.8 139.3 1.1 140.05 1.75 141.0 2.0 171.0 2.0 Q173.0 2.0 173.0 4.0 L173.0 35.0" fill="#bababa" fill-rule="evenodd" stroke="none"/>
  </g>
</svg>
