<?xml version="1.0" encoding="UTF-8" standalone="no"?>
<svg xmlns:xlink="http://www.w3.org/1999/xlink" height="87.0px" width="61.0px" xmlns="http://www.w3.org/2000/svg">
  <g transform="matrix(1.0, 0.0, 0.0, 1.0, 30.5, 43.5)">
    <path d="M30.5 -36.9 L30.5 36.9 Q30.5 43.5 23.9 43.5 L-23.9 43.5 Q-30.5 43.5 -30.5 36.9 L-30.5 -36.9 Q-30.5 -43.5 -23.9 -43.5 L23.9 -43.5 Q30.5 -43.5 30.5 -36.9" fill="#000000" fill-rule="evenodd" stroke="none"/>
    <path d="M23.9 -41.0 Q28.0 -41.0 28.0 -36.9 L28.0 36.9 Q28.0 41.0 23.9 41.0 L-23.9 41.0 Q-28.0 41.0 -28.0 36.9 L-28.0 -36.9 Q-28.0 -41.0 -23.9 -41.0 L23.9 -41.0" fill="url(#gradient0)" fill-rule="evenodd" stroke="none"/>
    <path d="M0.0 -10.0 Q1.3 -12.75 3.95 -14.05 6.3 -15.15 9.0 -15.0 14.35 -14.65 17.2 -10.5 20.05 -6.3 19.05 0.0 18.25 4.95 10.4 9.75 1.9 15.0 0.0 20.0 -1.9 15.0 -10.35 9.75 -18.2 4.95 -19.0 0.0 -20.0 -6.3 -17.15 -10.5 -14.3 -14.65 -9.0 -15.0 -6.3 -15.15 -3.95 -14.05 -1.3 -12.75 0.0 -10.0" fill="url(#gradient1)" fill-rule="evenodd" stroke="none"/>
    <path d="M-18.05 -29.15 L-16.85 -29.4 Q-15.55 -29.3 -14.85 -28.3 -14.2 -27.3 -14.45 -25.8 -14.6 -24.6 -16.5 -23.45 -18.55 -22.2 -19.0 -21.0 -19.45 -22.2 -21.5 -23.45 -23.35 -24.6 -23.55 -25.8 -23.8 -27.3 -23.1 -28.3 -22.45 -29.3 -21.15 -29.4 L-19.95 -29.15 Q-19.3 -28.85 -19.0 -28.2 L-18.05 -29.15" fill="url(#gradient2)" fill-rule="evenodd" stroke="none"/>
    <path d="M19.0 21.0 Q19.45 22.2 21.5 23.45 23.4 24.6 23.55 25.8 23.8 27.3 23.15 28.3 22.45 29.3 21.15 29.4 L19.95 29.15 Q19.3 28.85 19.0 28.2 L18.05 29.15 16.85 29.4 Q15.55 29.3 14.9 28.3 14.2 27.3 14.45 25.8 14.65 24.6 16.5 23.45 18.55 22.2 19.0 21.0" fill="url(#gradient3)" fill-rule="evenodd" stroke="none"/>
    <path d="M-18.8 -37.2 L-18.35 -35.95 -16.75 -32.05 -16.55 -31.65 -16.35 -31.45 -16.15 -31.35 -16.0 -31.3 -16.0 -31.0 -18.5 -31.0 -18.5 -31.15 -18.5 -31.25 -18.4 -31.3 -17.95 -31.4 Q-17.8 -31.5 -17.8 -31.7 L-17.8 -31.85 -18.0 -32.45 -18.2 -33.0 -18.35 -33.15 -18.6 -33.15 -19.4 -33.15 -19.65 -33.15 -19.8 -33.0 -20.0 -32.45 -20.2 -31.85 -20.2 -31.7 -20.05 -31.4 -19.6 -31.3 -19.5 -31.25 -19.5 -31.15 -19.5 -31.0 -22.0 -31.0 -22.0 -31.3 -21.85 -31.35 -21.65 -31.45 -21.45 -31.65 -21.25 -32.05 -19.65 -35.95 -19.2 -37.2 -19.0 -37.3 -18.8 -37.2 M-18.45 -33.55 L-18.45 -33.7 -19.0 -35.15 -19.55 -33.7 -19.55 -33.55 -19.4 -33.5 -18.6 -33.5 -18.45 -33.55 M19.5 31.0 L22.0 31.0 22.0 31.3 21.85 31.35 21.65 31.45 21.45 31.65 21.25 32.05 19.65 35.95 19.2 37.2 19.0 37.3 18.8 37.2 18.35 35.95 16.75 32.05 16.55 31.65 16.35 31.45 16.15 31.35 16.0 31.3 16.0 31.0 18.5 31.0 18.5 31.15 18.5 31.25 18.4 31.3 17.95 31.4 Q17.8 31.5 17.8 31.7 L17.8 31.85 18.0 32.45 18.2 33.0 18.35 33.15 18.6 33.15 19.4 33.15 19.65 33.15 19.8 33.0 20.0 32.45 20.2 31.85 20.2 31.7 20.05 31.4 19.6 31.3 19.5 31.25 19.5 31.15 19.5 31.0 M18.45 33.55 L18.45 33.7 19.0 35.15 19.55 33.7 19.55 33.55 19.4 33.5 18.6 33.5 18.45 33.55" fill="#000000" fill-rule="evenodd" stroke="none"/>
    <path d="M9.6 -8.7 Q10.6 -6.55 10.0 -4.55 9.4 -2.6 7.55 -1.5 9.25 0.2 9.25 2.4 9.25 5.15 6.65 7.05 3.95 9.0 0.25 9.0 L-0.25 9.0 Q-3.95 9.0 -6.65 7.05 -9.25 5.15 -9.25 2.4 -9.25 0.2 -7.55 -1.5 -9.4 -2.6 -10.0 -4.55 -10.6 -6.55 -9.6 -8.7 -8.85 -8.55 -8.1 -7.9 -7.3 -7.25 -6.85 -6.4 -6.05 -4.75 -6.3 -2.5 -3.7 -4.2 -0.25 -4.2 L0.25 -4.2 Q3.7 -4.2 6.3 -2.5 6.05 -4.75 6.85 -6.4 7.3 -7.25 8.1 -7.9 8.85 -8.55 9.6 -8.7 M6.1 1.2 Q6.1 0.55 5.65 0.1 5.2 -0.35 4.55 -0.35 3.95 -0.35 3.5 0.1 3.05 0.55 3.05 1.2 3.05 1.85 3.5 2.3 3.95 2.75 4.55 2.75 5.2 2.75 5.65 2.3 6.1 1.85 6.1 1.2 M-4.55 2.75 Q-3.95 2.75 -3.5 2.3 -3.05 1.85 -3.05 1.2 -3.05 0.55 -3.5 0.1 -3.95 -0.35 -4.55 -0.35 -5.2 -0.35 -5.65 0.1 -6.1 0.55 -6.1 1.2 -6.1 1.85 -5.65 2.3 -5.2 2.75 -4.55 2.75 M4.7 5.9 L4.35 5.6 Q4.15 5.45 3.9 5.6 2.0 6.4 0.0 6.35 -2.0 6.4 -3.9 5.6 -4.15 5.45 -4.35 5.6 L-4.7 5.9 -4.7 6.35 -4.4 6.7 Q-2.2 7.6 0.0 7.55 2.2 7.6 4.4 6.7 L4.7 6.35 4.7 5.9" fill="#ffffff" fill-rule="evenodd" stroke="none"/>
    <path d="M27.0 -36.9 Q27.0 -40.0 23.9 -40.0 L-23.9 -40.0 Q-27.0 -40.0 -27.0 -36.9 L-27.0 36.9 Q-27.0 40.0 -23.9 40.0 L23.9 40.0 Q27.0 40.0 27.0 36.9 L27.0 -36.9 M23.9 -41.0 Q28.0 -41.0 28.0 -36.9 L28.0 36.9 Q28.0 41.0 23.9 41.0 L-23.9 41.0 Q-28.0 41.0 -28.0 36.9 L-28.0 -36.9 Q-28.0 -41.0 -23.9 -41.0 L23.9 -41.0" fill="url(#gradient4)" fill-rule="evenodd" stroke="none"/>
  </g>
  <defs>
    <linearGradient gradientTransform="matrix(0.0429, -0.0405, 0.0343, 0.0363, 0.0, 0.0)" gradientUnits="userSpaceOnUse" id="gradient0" spreadMethod="pad" x1="-819.2" x2="819.2">
      <stop offset="0.16470588235294117" stop-color="#ffffff"/>
      <stop offset="0.3058823529411765" stop-color="#f8f8f8"/>
      <stop offset="0.5411764705882353" stop-color="#f8f8f8"/>
      <stop offset="1.0" stop-color="#d5d5d5"/>
    </linearGradient>
    <linearGradient gradientTransform="matrix(-0.045, 0.0203, -0.0088, -0.0194, -3.15, -1.7)" gradientUnits="userSpaceOnUse" id="gradient1" spreadMethod="pad" x1="-819.2" x2="819.2">
      <stop offset="0.0" stop-color="#c00505"/>
      <stop offset="0.8823529411764706" stop-color="#ff2b2b"/>
    </linearGradient>
    <linearGradient gradientTransform="matrix(-0.0114, 0.0047, -0.0019, -0.0047, -34.85, -60.25)" gradientUnits="userSpaceOnUse" id="gradient2" spreadMethod="pad" x1="-819.2" x2="819.2">
      <stop offset="0.0" stop-color="#c00505"/>
      <stop offset="0.8823529411764706" stop-color="#ff2b2b"/>
    </linearGradient>
    <linearGradient gradientTransform="matrix(-0.0194, 0.0112, -0.0026, -0.0044, 34.25, 58.05)" gradientUnits="userSpaceOnUse" id="gradient3" spreadMethod="pad" x1="-819.2" x2="819.2">
      <stop offset="0.0" stop-color="#c00505"/>
      <stop offset="0.8823529411764706" stop-color="#ff2b2b"/>
    </linearGradient>
    <linearGradient gradientTransform="matrix(0.0444, -0.0409, 0.0338, 0.0368, 0.0, 0.0)" gradientUnits="userSpaceOnUse" id="gradient4" spreadMethod="pad" x1="-819.2" x2="819.2">
      <stop offset="0.08235294117647059" stop-color="#ffffff" stop-opacity="0.0"/>
      <stop offset="0.807843137254902" stop-color="#ffffff"/>
    </linearGradient>
  </defs>
</svg>
