<?xml version="1.0" encoding="UTF-8" standalone="no"?>
<svg xmlns:xlink="http://www.w3.org/1999/xlink" height="153.2px" width="101.1px" xmlns="http://www.w3.org/2000/svg">
  <g transform="matrix(1.0, 0.0, 0.0, 1.0, 2.35, 7.0)">
    <path d="M49.15 -7.0 L49.15 121.4 Q49.7 122.8 49.9 124.3 51.1 131.5 44.2 137.7 37.4 144.05 26.55 145.7 15.7 147.35 7.3 143.4 -1.05 139.5 -2.2 132.3 -3.3 125.05 3.5 118.8 10.4 112.5 21.2 110.85 32.05 109.2 40.4 113.05 42.9 114.2 44.75 115.7 L44.75 -7.0 49.15 -7.0" fill="#000000" fill-rule="evenodd" stroke="none"/>
    <path d="M97.45 54.2 Q99.15 60.25 98.6 67.85 97.95 76.8 94.15 84.75 84.35 105.45 57.7 112.5 92.0 98.9 94.35 71.0 95.25 60.4 91.1 49.9 87.45 40.65 81.7 35.4 74.0 28.5 62.9 23.9 54.75 20.5 48.8 19.7 48.1 19.6 47.65 19.0 47.2 18.4 47.35 17.7 47.4 17.0 48.0 16.55 48.5 16.2 49.05 16.2 L49.15 -7.0 Q51.25 -2.0 54.95 2.0 57.35 4.6 63.1 9.4 77.65 21.4 87.7 34.0 95.3 44.25 97.45 54.2" fill="#000000" fill-rule="evenodd" stroke="none"/>
  </g>
</svg>
