<?xml version="1.0" encoding="UTF-8" standalone="no"?>
<svg xmlns:xlink="http://www.w3.org/1999/xlink" height="817.65px" width="442.95px" xmlns="http://www.w3.org/2000/svg">
  <g transform="matrix(1.0, 0.0, 0.0, 1.0, -38.75, 64.9)">
    <path d="M239.8 -63.9 L272.0 -8.0 239.8 47.85 175.3 47.85 143.05 -8.0 175.3 -63.9 239.8 -63.9 M383.3 -63.9 L447.8 -63.9 480.0 -8.0 447.8 47.85 383.3 47.85 351.05 -8.0 383.3 -63.9 M376.7 55.9 L344.5 111.75 280.0 111.75 247.75 55.9 280.0 0.0 344.5 0.0 376.7 55.9 M351.75 119.9 L384.0 64.0 448.5 64.0 480.7 119.9 448.5 175.75 384.0 175.75 351.75 119.9 M376.7 183.9 L344.5 239.75 280.0 239.75 247.75 183.9 280.0 128.0 344.5 128.0 376.7 183.9 M447.8 192.1 L480.0 248.0 447.8 303.85 383.3 303.85 351.05 248.0 383.3 192.1 447.8 192.1 M344.5 367.75 L280.0 367.75 247.75 311.9 280.0 256.0 344.5 256.0 376.7 311.9 344.5 367.75 M384.0 320.0 L448.5 320.0 480.7 375.9 448.5 431.75 384.0 431.75 351.75 375.9 384.0 320.0 M240.5 64.0 L272.7 119.9 240.5 175.75 176.0 175.75 143.75 119.9 176.0 64.0 240.5 64.0 M239.8 192.1 L272.0 248.0 239.8 303.85 175.3 303.85 143.05 248.0 175.3 192.1 239.8 192.1 M72.0 0.0 L136.5 0.0 168.7 55.9 136.5 111.75 72.0 111.75 39.75 55.9 72.0 0.0 M72.0 128.0 L136.5 128.0 168.7 183.9 136.5 239.75 72.0 239.75 39.75 183.9 72.0 128.0 M39.75 311.9 L72.0 256.0 136.5 256.0 168.7 311.9 136.5 367.75 72.0 367.75 39.75 311.9 M136.5 384.0 L168.7 439.9 136.5 495.75 72.0 495.75 39.75 439.9 72.0 384.0 136.5 384.0 M240.5 320.0 L272.7 375.9 240.5 431.75 176.0 431.75 143.75 375.9 176.0 320.0 240.5 320.0 M239.8 448.1 L272.0 504.0 239.8 559.85 175.3 559.85 143.05 504.0 175.3 448.1 239.8 448.1 M240.5 576.0 L272.7 631.9 240.5 687.75 176.0 687.75 143.75 631.9 176.0 576.0 240.5 576.0 M280.0 512.0 L344.5 512.0 376.7 567.9 344.5 623.75 280.0 623.75 247.75 567.9 280.0 512.0 M247.75 439.9 L280.0 384.0 344.5 384.0 376.7 439.9 344.5 495.75 280.0 495.75 247.75 439.9 M72.0 512.0 L136.5 512.0 168.7 567.9 136.5 623.75 72.0 623.75 39.75 567.9 72.0 512.0 M247.25 695.9 L279.5 640.0 344.0 640.0 376.2 695.9 344.0 751.75 279.5 751.75 247.25 695.9 M351.05 504.0 L383.3 448.1 447.8 448.1 480.0 504.0 447.8 559.85 383.3 559.85 351.05 504.0 M448.5 576.0 L480.7 631.9 448.5 687.75 384.0 687.75 351.75 631.9 384.0 576.0 448.5 576.0" fill="none" stroke="#000000" stroke-linecap="round" stroke-linejoin="round" stroke-width="2.0"/>
  </g>
</svg>
