<?xml version="1.0" encoding="UTF-8" standalone="no"?>
<svg xmlns:xlink="http://www.w3.org/1999/xlink" height="111.75px" width="128.95px" xmlns="http://www.w3.org/2000/svg">
  <g transform="matrix(1.0, 0.0, 0.0, 1.0, 64.45, 55.85)">
    <path d="M-64.45 0.05 L-32.2 -55.85 32.3 -55.85 64.5 0.05 32.3 55.9 -32.2 55.9 -64.45 0.05" fill="#a60b0b" fill-rule="evenodd" stroke="none"/>
    <path d="M28.3 -28.3 Q29.5 -27.1 29.45 -25.35 29.45 -23.65 28.25 -22.45 27.05 -21.25 25.35 -21.25 24.3 -21.25 23.45 -21.7 L21.0 -19.3 Q24.15 -15.95 25.95 -12.05 L29.05 -13.3 Q28.95 -14.35 29.4 -15.35 30.0 -16.9 31.55 -17.55 33.15 -18.2 34.75 -17.55 36.35 -16.95 37.0 -15.35 37.65 -13.75 36.95 -12.15 36.35 -10.6 34.75 -9.95 33.2 -9.3 31.6 -9.95 30.6 -10.35 29.95 -11.1 L26.9 -9.85 Q28.35 -5.8 28.55 -1.2 L32.0 -1.2 Q32.25 -2.15 33.0 -2.9 34.2 -4.1 35.9 -4.1 37.6 -4.1 38.8 -2.9 40.0 -1.7 40.0 0.0 40.0 1.7 38.8 2.9 37.6 4.1 35.9 4.1 34.2 4.1 33.0 2.9 32.25 2.15 32.0 1.2 L28.55 1.2 Q28.35 5.8 26.9 9.85 L29.95 11.15 Q30.6 10.35 31.6 9.95 33.2 9.3 34.75 9.95 36.35 10.6 36.95 12.15 37.65 13.75 37.0 15.35 36.35 16.95 34.75 17.55 33.15 18.2 31.55 17.55 30.0 16.9 29.4 15.35 28.95 14.35 29.05 13.35 L25.95 12.05 Q24.1 15.95 21.0 19.3 L23.45 21.75 Q24.3 21.25 25.35 21.25 27.05 21.25 28.25 22.45 29.45 23.65 29.45 25.35 29.5 27.1 28.3 28.3 27.1 29.5 25.35 29.45 23.65 29.45 22.45 28.25 21.25 27.05 21.25 25.35 21.25 24.3 21.75 23.45 L19.3 21.0 Q15.95 24.1 12.05 25.95 L13.35 29.05 Q14.35 28.95 15.35 29.4 16.9 30.0 17.55 31.55 18.2 33.15 17.55 34.75 16.95 36.35 15.35 37.0 13.75 37.65 12.15 36.95 10.6 36.35 9.95 34.75 9.3 33.2 9.95 31.6 10.35 30.6 11.15 29.95 L9.85 26.9 Q5.8 28.35 1.2 28.55 L1.2 32.0 Q2.15 32.25 2.9 33.0 4.1 34.2 4.1 35.9 4.1 37.6 2.9 38.8 1.7 40.0 0.0 40.0 -1.7 40.0 -2.9 38.8 -4.1 37.6 -4.1 35.9 -4.1 34.2 -2.9 33.0 -2.15 32.25 -1.2 32.0 L-1.2 28.55 Q-5.8 28.35 -9.85 26.9 L-11.1 29.95 Q-10.35 30.6 -9.95 31.6 -9.3 33.2 -9.95 34.75 -10.6 36.35 -12.15 36.95 -13.75 37.65 -15.35 37.0 -16.95 36.35 -17.55 34.75 -18.2 33.15 -17.55 31.55 -16.9 30.0 -15.35 29.4 -14.35 28.95 -13.3 29.05 L-12.05 25.95 Q-15.95 24.15 -19.3 21.0 L-21.7 23.45 Q-21.25 24.3 -21.25 25.35 -21.25 27.05 -22.45 28.25 -23.65 29.45 -25.35 29.45 -27.1 29.5 -28.3 28.3 -29.5 27.1 -29.45 25.35 -29.45 23.65 -28.25 22.45 -27.05 21.25 -25.35 21.25 -24.3 21.25 -23.4 21.75 L-21.0 19.3 Q-24.15 15.95 -25.95 12.05 L-29.05 13.35 Q-28.95 14.35 -29.4 15.35 -30.0 16.9 -31.55 17.55 -33.15 18.2 -34.75 17.55 -36.35 16.95 -37.0 15.35 -37.65 13.75 -36.95 12.15 -36.35 10.6 -34.75 9.95 -33.2 9.3 -31.6 9.95 -30.6 10.35 -29.95 11.15 L-26.85 9.85 Q-28.35 5.8 -28.5 1.2 L-31.95 1.2 Q-32.25 2.15 -33.0 2.9 -34.2 4.1 -35.9 4.1 -37.6 4.1 -38.8 2.9 -40.0 1.7 -40.0 0.0 -40.0 -1.7 -38.8 -2.9 -37.6 -4.1 -35.9 -4.1 -34.2 -4.1 -33.0 -2.9 -32.25 -2.15 -31.95 -1.2 L-28.5 -1.2 Q-28.35 -5.8 -26.85 -9.85 L-29.95 -11.1 Q-30.6 -10.35 -31.6 -9.95 -33.2 -9.3 -34.75 -9.95 -36.35 -10.6 -36.95 -12.15 -37.65 -13.75 -37.0 -15.35 -36.35 -16.95 -34.75 -17.55 -33.15 -18.2 -31.55 -17.55 -30.0 -16.9 -29.4 -15.35 -28.95 -14.35 -29.05 -13.3 L-25.95 -12.05 Q-24.15 -15.95 -21.0 -19.3 L-23.4 -21.7 Q-24.3 -21.25 -25.35 -21.25 -27.05 -21.25 -28.25 -22.45 -29.45 -23.65 -29.45 -25.35 -29.5 -27.1 -28.3 -28.3 -27.1 -29.5 -25.35 -29.45 -23.65 -29.45 -22.45 -28.25 -21.25 -27.05 -21.25 -25.35 -21.25 -24.3 -21.7 -23.4 L-19.3 -21.0 Q-15.95 -24.15 -12.05 -25.95 L-13.3 -29.05 Q-14.35 -28.95 -15.35 -29.4 -16.9 -30.0 -17.55 -31.55 -18.2 -33.15 -17.55 -34.75 -16.95 -36.35 -15.35 -37.0 -13.75 -37.65 -12.15 -36.95 -10.6 -36.35 -9.95 -34.75 -9.3 -33.2 -9.95 -31.6 -10.35 -30.6 -11.1 -29.95 L-9.85 -26.85 Q-5.8 -28.35 -1.2 -28.5 L-1.2 -31.95 Q-2.15 -32.25 -2.9 -33.0 -4.1 -34.2 -4.1 -35.9 -4.1 -37.6 -2.9 -38.8 -1.7 -40.0 0.0 -40.0 1.7 -40.0 2.9 -38.8 4.1 -37.6 4.1 -35.9 4.1 -34.2 2.9 -33.0 2.15 -32.25 1.2 -31.95 L1.2 -28.5 Q5.8 -28.35 9.85 -26.85 L11.15 -29.95 Q10.35 -30.6 9.95 -31.6 9.3 -33.2 9.95 -34.75 10.6 -36.35 12.15 -36.95 13.75 -37.65 15.35 -37.0 16.95 -36.35 17.55 -34.75 18.2 -33.15 17.55 -31.55 16.9 -30.0 15.35 -29.4 14.35 -28.95 13.35 -29.05 L12.05 -25.95 Q15.95 -24.15 19.3 -21.0 L21.75 -23.4 Q21.25 -24.3 21.25 -25.35 21.25 -27.05 22.45 -28.25 23.65 -29.45 25.35 -29.45 27.1 -29.5 28.3 -28.3 M-6.75 18.1 L13.55 -0.9 -0.75 -0.9 6.75 -17.5 -13.55 1.45 0.75 1.45 -6.75 18.1" fill="#000000" fill-rule="evenodd" stroke="none"/>
    <path d="M-6.75 18.1 L0.75 1.45 -13.55 1.45 6.75 -17.5 -0.75 -0.9 13.55 -0.9 -6.75 18.1" fill="#de0c0c" fill-rule="evenodd" stroke="none"/>
  </g>
</svg>
