<?xml version="1.0" encoding="UTF-8" standalone="no"?>
<svg xmlns:xlink="http://www.w3.org/1999/xlink" height="83.0px" width="61.0px" xmlns="http://www.w3.org/2000/svg">
  <g transform="matrix(1.0, 0.0, 0.0, 1.0, 3.5, 15.5)">
    <path d="M57.5 -12.0 L57.5 64.0 Q57.5 67.5 54.0 67.5 L0.0 67.5 Q-3.5 67.5 -3.5 64.0 L-3.5 -12.0 Q-3.5 -15.5 0.0 -15.5 L54.0 -15.5 Q57.5 -15.5 57.5 -12.0 M52.0 1.5 L2.0 1.5 Q1.5 1.5 1.5 2.0 L1.5 62.0 Q1.5 62.5 2.0 62.5 L52.0 62.5 Q52.5 62.5 52.5 62.0 L52.5 2.0 Q52.5 1.5 52.0 1.5" fill="#000000" fill-rule="evenodd" stroke="none"/>
    <path d="M56.5 -12.0 L56.5 64.0 Q56.5 66.5 54.0 66.5 L0.0 66.5 Q-2.5 66.5 -2.5 64.0 L-2.5 -12.0 Q-2.5 -14.5 0.0 -14.5 L54.0 -14.5 Q56.5 -14.5 56.5 -12.0 M52.0 0.5 L2.0 0.5 Q0.5 0.5 0.5 2.0 L0.5 62.0 Q0.5 63.5 2.0 63.5 L52.0 63.5 Q53.5 63.5 53.5 62.0 L53.5 2.0 Q53.5 0.5 52.0 0.5" fill="#00ff00" fill-rule="evenodd" stroke="none"/>
  </g>
</svg>
