<?xml version="1.0" encoding="UTF-8" standalone="no"?>
<svg xmlns:xlink="http://www.w3.org/1999/xlink" height="54.0px" width="54.0px" xmlns="http://www.w3.org/2000/svg">
  <g transform="matrix(1.0, 0.0, 0.0, 1.0, 0.5, 0.5)">
    <path d="M2.0 0.0 L51.0 0.0 Q53.0 0.0 53.0 2.0 L53.0 51.0 Q53.0 53.0 51.0 53.0 L2.0 53.0 Q0.0 53.0 0.0 51.0 L0.0 2.0 Q0.0 0.0 2.0 0.0" fill="#ffffff" fill-rule="evenodd" stroke="none"/>
    <path d="M2.0 0.0 Q0.0 0.0 0.0 2.0 L0.0 51.0 Q0.0 53.0 2.0 53.0 L51.0 53.0 Q53.0 53.0 53.0 51.0 L53.0 2.0 Q53.0 0.0 51.0 0.0 L2.0 0.0 Z" fill="none" stroke="#ffffff" stroke-linecap="round" stroke-linejoin="round" stroke-width="1.0"/>
  </g>
</svg>
