<?xml version="1.0" encoding="UTF-8" standalone="no"?>
<svg xmlns:xlink="http://www.w3.org/1999/xlink" height="33.0px" width="161.0px" xmlns="http://www.w3.org/2000/svg">
  <g transform="matrix(1.0, 0.0, 0.0, 1.0, 7.5, 16.5)">
    <path d="M25.75 -16.0 L26.0 -16.0 Q78.35 -15.95 115.5 -11.35 153.0 -6.65 153.0 0.0 153.0 6.65 115.5 11.3 78.35 15.95 26.0 16.0 L25.75 16.0 Q12.2 16.0 2.6 11.3 -7.0 6.65 -7.0 0.0 -7.0 -6.65 2.6 -11.35 12.2 -16.0 25.75 -16.0" fill="#ffffff" fill-rule="evenodd" stroke="none"/>
    <path d="M25.75 -16.0 L26.0 -16.0 Q78.35 -15.95 115.5 -11.35 153.0 -6.65 153.0 0.0 153.0 6.65 115.5 11.3 78.35 15.95 26.0 16.0 L25.75 16.0 Q12.2 16.0 2.6 11.3 -7.0 6.65 -7.0 0.0 -7.0 -6.65 2.6 -11.35 12.2 -16.0 25.75 -16.0 Z" fill="none" stroke="#ffcc00" stroke-linecap="round" stroke-linejoin="round" stroke-width="1.0"/>
  </g>
</svg>
