<?xml version="1.0" encoding="UTF-8" standalone="no"?>
<svg xmlns:xlink="http://www.w3.org/1999/xlink" height="64.0px" width="62.0px" xmlns="http://www.w3.org/2000/svg">
  <g transform="matrix(1.0, 0.0, 0.0, 1.0, -353.0, -72.0)">
    <path d="M404.0 136.0 Q401.0 136.0 401.0 133.0 L401.0 127.5 Q401.0 124.5 404.0 124.5 L410.0 124.5 Q413.0 124.5 413.0 127.5 L413.0 133.0 Q413.0 136.0 410.0 136.0 L404.0 136.0 M367.0 127.5 L367.0 133.0 Q367.0 136.0 364.0 136.0 L358.0 136.0 Q355.0 136.0 355.0 133.0 L355.0 127.5 Q355.0 124.5 358.0 124.5 L364.0 124.5 Q367.0 124.5 367.0 127.5 M378.0 127.5 Q378.0 124.5 381.0 124.5 L387.0 124.5 Q390.0 124.5 390.0 127.5 L390.0 133.0 Q390.0 136.0 387.0 136.0 L381.0 136.0 Q378.0 136.0 378.0 133.0 L378.0 127.5 M376.0 75.0 Q376.0 72.0 379.0 72.0 L389.0 72.0 Q392.0 72.0 392.0 75.0 L390.0 117.0 Q390.0 120.0 387.0 120.0 L381.0 120.0 Q378.0 120.0 378.0 117.0 L376.0 75.0 M353.0 75.0 Q353.0 72.0 356.0 72.0 L366.0 72.0 Q369.0 72.0 369.0 75.0 L367.0 117.0 Q367.0 120.0 364.0 120.0 L358.0 120.0 Q355.0 120.0 355.0 117.0 L353.0 75.0 M412.0 72.0 Q415.0 72.0 415.0 75.0 L413.0 117.0 Q413.0 120.0 410.0 120.0 L404.0 120.0 Q401.0 120.0 401.0 117.0 L399.0 75.0 Q399.0 72.0 402.0 72.0 L412.0 72.0" fill="#000000" fill-rule="evenodd" stroke="none"/>
  </g>
</svg>
