<?xml version="1.0" encoding="UTF-8" standalone="no"?>
<svg xmlns:xlink="http://www.w3.org/1999/xlink" height="109.35px" width="96.3px" xmlns="http://www.w3.org/2000/svg">
  <g transform="matrix(1.0, 0.0, 0.0, 1.0, 48.15, 54.75)">
    <path d="M0.05 -54.75 Q6.4 -54.7 10.7 -51.2 L13.9 -47.95 20.0 -46.75 20.95 -46.3 Q23.25 -44.55 24.85 -42.65 L26.95 -41.45 Q28.5 -40.35 29.4 -39.05 L30.6 -37.1 31.45 -36.4 33.4 -34.0 34.05 -32.65 34.8 -31.85 36.2 -29.65 36.8 -27.95 37.75 -26.45 38.25 -24.65 Q39.05 -23.7 39.65 -21.0 L40.0 -20.4 Q42.45 -17.1 44.45 -12.3 46.65 -7.1 47.4 -2.1 48.15 2.65 48.15 6.5 48.15 19.35 42.2 29.85 42.85 32.8 41.6 34.9 40.55 36.6 38.7 37.05 38.5 38.7 36.75 40.25 34.8 42.0 32.55 41.9 18.95 54.6 0.0 54.6 -18.95 54.6 -32.55 41.9 -34.8 42.0 -36.75 40.25 -38.5 38.7 -38.7 37.05 -40.55 36.6 -41.6 34.9 -42.85 32.8 -42.2 29.85 -48.15 19.35 -48.15 6.5 -48.15 2.65 -47.4 -2.1 -46.65 -7.1 -44.45 -12.3 -42.45 -17.1 -40.0 -20.4 L-39.65 -21.0 Q-39.05 -23.7 -38.25 -24.65 L-37.75 -26.45 -36.8 -27.95 -36.2 -29.65 -34.8 -31.85 -34.05 -32.65 -33.4 -34.0 -31.45 -36.4 -30.6 -37.1 -29.4 -39.05 Q-28.5 -40.35 -26.95 -41.45 L-24.85 -42.65 Q-23.25 -44.55 -20.95 -46.3 L-20.0 -46.75 -13.9 -47.95 -10.7 -51.2 Q-6.4 -54.7 -0.05 -54.75 L0.0 -54.75 0.05 -54.75 M0.0 -24.5 Q-13.45 -24.5 -23.0 -14.95 -32.3 -5.65 -32.5 7.45 -31.05 16.7 -23.1 24.0 L-23.05 24.05 Q-13.5 32.85 0.0 32.85 13.5 32.85 23.05 24.05 L23.1 24.0 Q31.05 16.7 32.5 7.45 32.3 -5.65 23.0 -14.95 13.45 -24.5 0.0 -24.5" fill="#000000" fill-rule="evenodd" stroke="none"/>
    <path d="M45.75 -5.3 L39.5 -3.65 M-44.6 -5.3 L-38.3 -3.65" fill="none" stroke="#000000" stroke-linecap="round" stroke-linejoin="round" stroke-width="0.25"/>
    <path d="M9.1 -49.25 L12.75 -45.6 -12.7 -45.6 -9.1 -49.25 Q-5.45 -52.2 0.0 -52.25 5.45 -52.2 9.1 -49.25" fill="url(#gradient0)" fill-rule="evenodd" stroke="none"/>
    <path d="M31.1 -25.15 Q44.0 -12.25 44.0 6.0 44.0 24.25 31.1 37.1 18.25 50.0 0.0 50.0 -18.25 50.0 -31.15 37.1 -44.0 24.25 -44.0 6.0 -44.0 -12.25 -31.15 -25.15 -18.25 -38.0 0.0 -38.0 18.25 -38.0 31.1 -25.15 M28.25 -22.3 Q16.55 -34.0 0.0 -34.0 -16.55 -34.0 -28.3 -22.3 -40.0 -10.55 -40.0 6.0 -40.0 22.55 -28.3 34.25 -16.55 46.0 0.0 46.0 16.55 46.0 28.25 34.25 40.0 22.55 40.0 6.0 40.0 -10.55 28.25 -22.3" fill="#691d1d" fill-rule="evenodd" stroke="none"/>
    <path d="M0.0 43.15 Q-14.5 43.15 -24.8 33.6 -35.1 24.15 -35.1 10.75 L-35.15 8.8 -35.1 7.0 Q-33.85 17.5 -24.8 25.85 -14.5 35.35 0.0 35.35 14.5 35.35 24.75 25.85 33.85 17.55 35.1 6.85 L35.1 10.75 Q35.1 24.15 24.75 33.6 14.5 43.15 0.0 43.15" fill="url(#gradient1)" fill-rule="evenodd" stroke="none"/>
    <path d="M0.0 -46.95 Q9.7 -46.5 19.45 -44.3 26.05 -39.3 25.9 -32.65 L24.6 -32.65 24.6 -27.5 24.3 -27.5 29.3 -23.1 Q41.5 -10.95 41.5 6.2 41.5 23.4 29.3 35.5 17.2 47.7 0.0 47.7 -17.2 47.7 -29.35 35.5 -41.5 23.4 -41.5 6.2 -41.5 -10.95 -29.35 -23.1 -28.3 -24.15 -26.75 -30.45 L-25.35 -36.55 Q-24.85 -38.55 -23.05 -40.95 -21.2 -43.45 -19.45 -44.3 -17.75 -45.1 -11.25 -45.95 L0.0 -46.95 M24.75 -16.75 Q14.5 -27.0 0.0 -27.0 -14.5 -27.0 -24.75 -16.75 -35.0 -6.5 -35.0 8.0 -35.0 22.5 -24.75 32.75 -14.5 43.0 0.0 43.0 14.5 43.0 24.75 32.75 35.0 22.5 35.0 8.0 35.0 -6.5 24.75 -16.75" fill="url(#gradient2)" fill-rule="evenodd" stroke="none"/>
    <path d="M-44.3 -4.95 Q-43.6 -7.8 -42.5 -10.5 -40.75 -15.0 -37.9 -19.05 L-37.35 -20.0 -36.85 -21.8 Q-36.5 -23.0 -36.0 -23.15 L-33.45 -23.1 -32.4 -21.95 -31.55 -20.45 Q-31.35 -19.55 -32.25 -19.05 L-33.45 -18.3 -34.35 -17.1 Q-36.6 -13.95 -38.1 -10.5 -39.5 -7.3 -40.35 -3.9 L-40.3 -3.9 Q-41.5 0.9 -41.5 6.2 -41.5 19.15 -34.55 29.3 -33.35 30.6 -33.35 31.8 -33.35 32.55 -34.65 33.75 -35.6 34.75 -36.95 34.75 -38.45 34.75 -39.3 33.75 -39.9 33.1 -39.7 31.35 L-39.5 29.5 Q-45.65 19.2 -45.65 6.5 -45.65 2.25 -44.95 -1.7 L-44.3 -4.95" fill="url(#gradient3)" fill-rule="evenodd" stroke="none"/>
    <path d="M37.9 -19.05 Q40.75 -15.0 42.5 -10.5 43.6 -7.8 44.3 -4.95 L44.95 -1.7 Q45.65 2.25 45.65 6.5 45.65 19.2 39.5 29.5 L39.7 31.35 Q39.9 33.1 39.3 33.75 38.45 34.75 36.95 34.75 35.6 34.75 34.65 33.75 33.35 32.55 33.35 31.8 33.35 30.6 34.55 29.3 41.5 19.15 41.5 6.2 41.5 0.9 40.3 -3.9 L40.35 -3.9 Q39.5 -7.3 38.1 -10.5 36.6 -13.95 34.35 -17.1 L33.45 -18.3 32.25 -19.05 Q31.35 -19.55 31.55 -20.45 L32.4 -21.95 33.45 -23.1 36.0 -23.15 Q36.5 -23.0 36.85 -21.8 L37.35 -20.0 37.9 -19.05" fill="url(#gradient4)" fill-rule="evenodd" stroke="none"/>
    <path d="M0.0 47.7 Q17.2 47.7 29.35 35.5 L31.3 33.45 Q32.1 32.65 32.55 32.65 33.55 32.65 35.25 34.2 36.2 35.2 36.2 36.55 36.2 37.2 35.65 37.85 L34.6 38.7 31.5 39.45 Q18.35 52.1 0.0 52.1 L0.0 47.7" fill="url(#gradient5)" fill-rule="evenodd" stroke="none"/>
    <path d="M0.0 47.7 L0.0 52.1 Q-18.35 52.1 -31.5 39.45 L-34.6 38.7 -35.65 37.85 Q-36.2 37.2 -36.2 36.55 -36.2 35.2 -35.25 34.2 -33.55 32.65 -32.55 32.65 -32.1 32.65 -31.3 33.45 L-29.35 35.5 Q-17.2 47.7 0.0 47.7" fill="url(#gradient6)" fill-rule="evenodd" stroke="none"/>
    <path d="M32.8 33.4 Q34.05 33.4 34.95 34.25 35.8 35.15 35.8 36.4 35.8 37.65 34.95 38.5 34.05 39.4 32.8 39.4 31.55 39.4 30.7 38.5 29.8 37.65 29.8 36.4 29.8 35.15 30.7 34.25 31.55 33.4 32.8 33.4" fill="url(#gradient7)" fill-rule="evenodd" stroke="none"/>
    <path d="M-30.7 34.25 Q-29.8 35.15 -29.8 36.4 -29.8 37.65 -30.7 38.5 -31.55 39.4 -32.8 39.4 -34.05 39.4 -34.95 38.5 -35.8 37.65 -35.8 36.4 -35.8 35.15 -34.95 34.25 -34.05 33.4 -32.8 33.4 -31.55 33.4 -30.7 34.25" fill="url(#gradient8)" fill-rule="evenodd" stroke="none"/>
    <path d="M36.9 28.4 Q38.15 28.4 39.05 29.25 39.9 30.15 39.9 31.4 39.9 32.65 39.05 33.5 38.15 34.4 36.9 34.4 35.65 34.4 34.8 33.5 33.9 32.65 33.9 31.4 33.9 30.15 34.8 29.25 35.65 28.4 36.9 28.4" fill="url(#gradient9)" fill-rule="evenodd" stroke="none"/>
    <path d="M-36.9 28.4 Q-35.65 28.4 -34.8 29.25 -33.9 30.15 -33.9 31.4 -33.9 32.65 -34.8 33.5 -35.65 34.4 -36.9 34.4 -38.15 34.4 -39.05 33.5 -39.9 32.65 -39.9 31.4 -39.9 30.15 -39.05 29.25 -38.15 28.4 -36.9 28.4" fill="url(#gradient10)" fill-rule="evenodd" stroke="none"/>
    <path d="M32.4 -18.35 Q31.7 -19.0 31.7 -20.0 31.7 -20.95 32.4 -21.6 33.05 -22.3 34.0 -22.3 34.95 -22.3 35.65 -21.6 36.3 -20.95 36.3 -20.0 36.3 -19.0 35.65 -18.35 34.95 -17.7 34.0 -17.7 33.05 -17.7 32.4 -18.35" fill="url(#gradient11)" fill-rule="evenodd" stroke="none"/>
    <path d="M-32.4 -18.35 Q-33.05 -17.7 -34.0 -17.7 -34.95 -17.7 -35.65 -18.35 -36.3 -19.0 -36.3 -20.0 -36.3 -20.95 -35.65 -21.6 -34.95 -22.3 -34.0 -22.3 -33.05 -22.3 -32.4 -21.6 -31.7 -20.95 -31.7 -20.0 -31.7 -19.0 -32.4 -18.35" fill="url(#gradient12)" fill-rule="evenodd" stroke="none"/>
    <path d="M-30.95 -24.9 L-30.15 -24.3 Q-29.65 -23.3 -29.65 -22.35 L-29.75 -21.75 -29.75 -21.7 Q-30.0 -20.9 -30.6 -20.2 -31.3 -19.35 -31.65 -19.85 -32.25 -20.75 -33.65 -21.3 L-35.5 -22.1 Q-35.9 -22.5 -35.95 -23.35 L-35.65 -24.75 -35.0 -26.15 -34.2 -26.95 -33.4 -26.3 -32.3 -25.4 -30.95 -24.9" fill="url(#gradient13)" fill-rule="evenodd" stroke="none"/>
    <path d="M30.95 -24.9 L32.3 -25.4 33.4 -26.3 34.2 -26.95 35.0 -26.15 35.65 -24.75 35.95 -23.35 Q35.9 -22.5 35.5 -22.1 L33.65 -21.3 Q32.25 -20.75 31.65 -19.85 31.3 -19.35 30.6 -20.2 30.0 -20.9 29.75 -21.7 L29.75 -21.75 29.65 -22.35 Q29.65 -23.3 30.15 -24.3 L30.95 -24.9" fill="url(#gradient14)" fill-rule="evenodd" stroke="none"/>
    <path d="M-34.45 -27.0 L-33.9 -28.65 -32.85 -30.25 -31.75 -31.1 Q-31.45 -31.05 -30.9 -30.15 -30.25 -29.1 -29.7 -28.9 L-28.15 -28.05 Q-27.5 -27.7 -27.3 -27.2 -26.75 -25.45 -27.25 -24.05 -27.65 -23.15 -28.55 -22.35 -29.5 -21.4 -29.9 -22.1 -30.45 -23.25 -32.05 -24.15 -33.85 -25.05 -34.15 -25.45 -34.55 -26.05 -34.45 -27.0" fill="url(#gradient15)" fill-rule="evenodd" stroke="none"/>
    <path d="M34.45 -27.0 Q34.55 -26.05 34.15 -25.45 33.85 -25.05 32.05 -24.15 30.45 -23.25 29.9 -22.1 29.5 -21.4 28.55 -22.35 27.65 -23.15 27.25 -24.05 26.75 -25.45 27.3 -27.2 27.5 -27.7 28.15 -28.05 L29.7 -28.9 Q30.25 -29.1 30.9 -30.15 31.45 -31.05 31.75 -31.1 L32.85 -30.25 33.9 -28.65 34.45 -27.0" fill="url(#gradient16)" fill-rule="evenodd" stroke="none"/>
    <path d="M-31.15 -32.85 Q-30.7 -33.7 -29.75 -34.55 -28.75 -35.5 -28.35 -35.35 -28.05 -35.25 -27.5 -34.15 -26.9 -32.9 -26.3 -32.6 L-24.6 -31.45 Q-23.9 -31.0 -23.75 -30.4 -23.35 -28.3 -24.1 -26.75 -24.65 -25.75 -25.75 -24.95 -27.0 -24.05 -27.3 -24.85 -27.85 -26.25 -29.6 -27.45 L-31.75 -29.2 Q-32.2 -29.95 -31.95 -31.05 L-31.15 -32.85" fill="url(#gradient17)" fill-rule="evenodd" stroke="none"/>
    <path d="M28.35 -35.35 Q28.75 -35.5 29.75 -34.55 30.7 -33.7 31.15 -32.85 L31.95 -31.05 Q32.2 -29.95 31.75 -29.2 L29.6 -27.45 Q27.85 -26.25 27.3 -24.85 27.0 -24.05 25.75 -24.95 24.65 -25.75 24.1 -26.75 23.35 -28.3 23.75 -30.4 23.9 -31.0 24.6 -31.45 L26.3 -32.6 Q26.9 -32.9 27.5 -34.15 28.05 -35.25 28.35 -35.35" fill="url(#gradient18)" fill-rule="evenodd" stroke="none"/>
    <path d="M-20.1 -29.85 Q-20.85 -28.75 -22.25 -28.0 -23.75 -27.2 -24.0 -28.15 -24.4 -29.8 -26.25 -31.35 L-28.45 -33.6 Q-28.9 -34.55 -28.45 -35.75 L-27.3 -37.65 -25.5 -39.4 Q-24.2 -40.35 -23.8 -40.15 L-23.0 -38.65 Q-22.5 -37.2 -21.85 -36.75 L-20.0 -35.25 Q-19.3 -34.65 -19.3 -34.0 -19.1 -31.5 -20.1 -29.85" fill="url(#gradient19)" fill-rule="evenodd" stroke="none"/>
    <path d="M25.5 -39.4 L27.3 -37.65 28.45 -35.75 Q28.9 -34.55 28.45 -33.6 L26.25 -31.35 Q24.4 -29.8 24.0 -28.15 23.75 -27.2 22.25 -28.0 20.85 -28.75 20.1 -29.85 19.1 -31.5 19.3 -34.0 19.3 -34.65 20.0 -35.25 L21.85 -36.75 Q22.5 -37.2 23.0 -38.65 L23.8 -40.15 Q24.2 -40.35 25.5 -39.4" fill="url(#gradient20)" fill-rule="evenodd" stroke="none"/>
    <path d="M0.0 -49.3 Q5.45 -49.15 7.05 -46.65 L12.75 -46.05 14.2 -45.6 Q16.5 -44.7 16.8 -43.2 L16.9 -42.6 Q17.65 -37.15 13.7 -33.35 L13.2 -32.9 Q8.35 -28.7 0.0 -28.8 L0.0 -49.3" fill="url(#gradient21)" fill-rule="evenodd" stroke="none"/>
    <path d="M0.0 -49.3 L0.0 -28.8 Q-8.35 -28.7 -13.2 -32.9 L-13.7 -33.35 Q-17.65 -37.15 -16.9 -42.6 L-16.8 -43.2 Q-16.5 -44.7 -14.15 -45.6 L-12.75 -46.05 -7.05 -46.65 Q-5.45 -49.15 0.0 -49.3" fill="url(#gradient22)" fill-rule="evenodd" stroke="none"/>
    <path d="M3.5 -50.8 Q5.0 -49.65 5.0 -48.0 5.0 -46.35 3.5 -45.2 2.05 -44.05 0.0 -44.05 -2.05 -44.05 -3.55 -45.2 -5.0 -46.35 -5.0 -48.0 -5.0 -49.65 -3.55 -50.8 -2.05 -51.95 0.0 -51.95 2.05 -51.95 3.5 -50.8" fill="url(#gradient23)" fill-rule="evenodd" stroke="none"/>
    <path d="M0.5 -49.8 L0.5 -49.55 2.45 -49.35 2.55 -49.6 2.8 -49.85 3.15 -49.95 3.4 -49.7 3.5 -49.35 3.45 -49.2 5.35 -48.5 5.45 -48.65 5.75 -48.85 6.15 -48.9 6.3 -48.6 6.35 -48.2 6.25 -48.0 7.05 -47.3 7.35 -46.8 6.6 -46.95 5.7 -47.35 5.25 -46.65 4.9 -46.45 4.55 -46.45 4.4 -46.8 4.4 -47.15 4.85 -47.85 3.15 -48.4 2.95 -47.6 2.7 -47.35 2.35 -47.25 2.1 -47.5 2.0 -47.85 2.2 -48.6 0.5 -48.75 0.5 -48.0 0.3 -47.7 0.0 -47.5 -0.3 -47.7 -0.5 -48.0 -0.5 -48.75 -2.15 -48.6 -1.95 -47.9 -2.05 -47.55 -2.3 -47.25 -2.65 -47.35 -2.9 -47.6 -3.15 -48.4 -4.8 -47.85 -4.35 -47.15 -4.35 -46.8 -4.55 -46.45 -4.9 -46.45 -5.2 -46.65 -5.65 -47.35 Q-5.95 -47.15 -6.6 -46.95 L-7.3 -46.8 -7.0 -47.3 -6.2 -48.0 -6.3 -48.15 -6.3 -48.55 -6.15 -48.85 -5.8 -48.85 -5.45 -48.7 -5.35 -48.5 Q-4.45 -49.0 -3.4 -49.2 L-3.45 -49.35 -3.35 -49.7 -3.1 -49.95 -2.8 -49.85 -2.5 -49.6 -2.45 -49.35 -0.5 -49.55 -0.5 -49.8 -0.3 -50.1 0.0 -50.3 0.3 -50.1 0.5 -49.8" fill="url(#gradient24)" fill-rule="evenodd" stroke="none"/>
    <path d="M-16.9 -42.6 Q-16.55 -41.75 -15.75 -41.7 L-14.75 -41.45 Q-14.55 -41.1 -14.7 -40.65 L-14.9 -39.6 Q-14.9 -38.15 -14.15 -36.45 L-13.4 -34.7 -13.6 -33.6 -13.7 -33.35 Q-17.65 -37.15 -16.9 -42.6" fill="url(#gradient25)" fill-rule="evenodd" stroke="none"/>
    <path d="M16.9 -42.6 Q17.65 -37.15 13.7 -33.35 L13.6 -33.6 13.4 -34.7 14.15 -36.45 Q14.9 -38.15 14.9 -39.6 L14.7 -40.65 Q14.55 -41.1 14.75 -41.45 L15.75 -41.7 Q16.55 -41.75 16.9 -42.6" fill="url(#gradient26)" fill-rule="evenodd" stroke="none"/>
    <path d="M10.9 -46.6 Q15.0 -45.9 16.85 -44.85 16.75 -37.35 12.55 -33.1 8.15 -28.7 0.0 -28.8 -8.15 -28.7 -12.55 -33.1 -16.75 -37.35 -16.85 -44.85 -15.0 -45.9 -10.9 -46.6 L-6.75 -47.1 -6.5 -47.3 -5.15 -49.05 -4.6 -48.15 -3.4 -48.4 -3.5 -49.85 -1.45 -48.7 -1.3 -48.75 Q-1.1 -48.75 -0.65 -49.4 L0.0 -50.05 0.65 -49.4 Q1.05 -48.75 1.3 -48.75 L1.35 -48.75 3.4 -49.85 3.35 -48.3 4.1 -48.25 4.55 -48.1 5.15 -49.05 6.5 -47.2 6.6 -47.1 10.9 -46.6" fill="url(#gradient27)" fill-rule="evenodd" stroke="none"/>
    <path d="M3.3 -38.05 L3.35 -37.95 3.25 -37.85 Q-0.05 -36.15 -3.35 -37.85 L-3.4 -37.95 -3.4 -38.05 -3.35 -38.1 -3.25 -38.1 Q-0.05 -36.55 3.1 -38.1 L3.25 -38.1 3.3 -38.05" fill="#b12626" fill-rule="evenodd" stroke="none"/>
    <path d="M12.35 -40.45 Q12.6 -38.75 10.6 -37.55 9.55 -36.95 7.6 -36.65 L3.85 -36.9 Q2.85 -37.3 2.5 -38.1 2.1 -39.0 2.25 -41.1 2.3 -42.1 3.5 -43.1 L3.45 -42.0 3.9 -41.6 4.95 -41.55 Q6.85 -41.85 6.85 -42.15 L6.35 -42.85 5.6 -43.5 7.7 -43.45 Q10.1 -43.25 11.1 -42.6 12.1 -41.95 12.35 -40.45" fill="url(#gradient28)" fill-rule="evenodd" stroke="none"/>
    <path d="M-5.6 -43.5 L-6.35 -42.85 -6.85 -42.15 Q-6.85 -41.85 -4.95 -41.55 L-3.9 -41.6 -3.45 -42.0 -3.5 -43.1 Q-2.3 -42.1 -2.25 -41.1 -2.1 -39.0 -2.5 -38.1 -2.85 -37.3 -3.85 -36.9 L-7.6 -36.65 Q-9.55 -36.95 -10.6 -37.55 -12.6 -38.75 -12.35 -40.45 -12.1 -41.95 -11.1 -42.6 -10.1 -43.25 -7.7 -43.45 L-5.6 -43.5" fill="url(#gradient29)" fill-rule="evenodd" stroke="none"/>
    <path d="M2.6 -45.55 Q2.85 -45.4 2.7 -44.8 L1.5 -42.75 Q0.35 -41.05 0.0 -41.05 -0.35 -41.05 -1.5 -42.75 L-2.7 -44.8 Q-2.85 -45.4 -2.6 -45.55 -2.35 -45.65 -2.05 -45.3 -0.65 -43.45 0.0 -43.25 0.65 -43.45 2.05 -45.3 2.35 -45.65 2.6 -45.55" fill="url(#gradient30)" fill-rule="evenodd" stroke="none"/>
  </g>
  <defs>
    <radialGradient cx="0" cy="0" fx="294.40000000000003" fy="0" gradientTransform="matrix(0.0, -0.0052, 0.0172, 0.0, 0.0, -49.3)" gradientUnits="userSpaceOnUse" id="gradient0" r="819.2" spreadMethod="pad">
      <stop offset="0.4392156862745098" stop-color="#bf3a3a"/>
      <stop offset="0.7647058823529411" stop-color="#ce3535"/>
      <stop offset="0.8784313725490196" stop-color="#b12727"/>
    </radialGradient>
    <radialGradient cx="0" cy="0" fx="-1094.4" fy="0" gradientTransform="matrix(0.0, -0.0269, 0.0693, 0.0, 0.0, 28.0)" gradientUnits="userSpaceOnUse" id="gradient1" r="819.2" spreadMethod="pad">
      <stop offset="0.09019607843137255" stop-color="#da5050"/>
      <stop offset="0.16470588235294117" stop-color="#c64f4f"/>
      <stop offset="0.6941176470588235" stop-color="#7b1111"/>
      <stop offset="1.0" stop-color="#690e0e"/>
    </radialGradient>
    <radialGradient cx="0" cy="0" gradientTransform="matrix(0.0992, 0.0, 0.0, 0.1044, 0.0, -38.0)" gradientUnits="userSpaceOnUse" id="gradient2" r="819.2" spreadMethod="pad">
      <stop offset="0.07450980392156863" stop-color="#fea3a3"/>
      <stop offset="0.1568627450980392" stop-color="#dd6262"/>
      <stop offset="0.3254901960784314" stop-color="#971313"/>
      <stop offset="0.5725490196078431" stop-color="#b53535"/>
      <stop offset="0.8588235294117647" stop-color="#852525"/>
      <stop offset="1.0" stop-color="#4d1515"/>
    </radialGradient>
    <linearGradient gradientTransform="matrix(0.0, -0.037, 0.0557, 0.0, 0.0, 6.5)" gradientUnits="userSpaceOnUse" id="gradient3" spreadMethod="pad" x1="-819.2" x2="819.2">
      <stop offset="0.0" stop-color="#840202"/>
      <stop offset="1.0" stop-color="#820404"/>
    </linearGradient>
    <linearGradient gradientTransform="matrix(0.0, -0.037, -0.0557, 0.0, 0.0, 6.5)" gradientUnits="userSpaceOnUse" id="gradient4" spreadMethod="pad" x1="-819.2" x2="819.2">
      <stop offset="0.0" stop-color="#830202"/>
      <stop offset="1.0" stop-color="#820303"/>
    </linearGradient>
    <linearGradient gradientTransform="matrix(-0.0464, 0.0, 0.0, -0.0115, 0.0, -8.3)" gradientUnits="userSpaceOnUse" id="gradient5" spreadMethod="pad" x1="-819.2" x2="819.2">
      <stop offset="0.08235294117647059" stop-color="#6d1212"/>
      <stop offset="0.5098039215686274" stop-color="#842626"/>
      <stop offset="0.8941176470588236" stop-color="#820202"/>
    </linearGradient>
    <linearGradient gradientTransform="matrix(0.0464, 0.0, 0.0, -0.0115, 0.0, -8.3)" gradientUnits="userSpaceOnUse" id="gradient6" spreadMethod="pad" x1="-819.2" x2="819.2">
      <stop offset="0.08235294117647059" stop-color="#5e2222"/>
      <stop offset="0.49019607843137253" stop-color="#802b2b"/>
      <stop offset="0.9058823529411765" stop-color="#820202"/>
    </linearGradient>
    <radialGradient cx="0" cy="0" gradientTransform="matrix(-0.0031, 0.0, 0.0, 0.0031, 32.8, 36.4)" gradientUnits="userSpaceOnUse" id="gradient7" r="819.2" spreadMethod="pad">
      <stop offset="0.21176470588235294" stop-color="#e14f4f" stop-opacity="0.38039216"/>
      <stop offset="0.8980392156862745" stop-color="#853a3a" stop-opacity="0.0"/>
    </radialGradient>
    <radialGradient cx="0" cy="0" gradientTransform="matrix(0.0031, 0.0, 0.0, 0.0031, -32.8, 36.4)" gradientUnits="userSpaceOnUse" id="gradient8" r="819.2" spreadMethod="pad">
      <stop offset="0.21176470588235294" stop-color="#e14f4f" stop-opacity="0.38039216"/>
      <stop offset="0.8980392156862745" stop-color="#853a3a" stop-opacity="0.0"/>
    </radialGradient>
    <radialGradient cx="0" cy="0" gradientTransform="matrix(-0.0031, 0.0, 0.0, 0.0031, 36.9, 31.4)" gradientUnits="userSpaceOnUse" id="gradient9" r="819.2" spreadMethod="pad">
      <stop offset="0.21176470588235294" stop-color="#e14f4f" stop-opacity="0.53333336"/>
      <stop offset="0.8980392156862745" stop-color="#853a3a" stop-opacity="0.0"/>
    </radialGradient>
    <radialGradient cx="0" cy="0" gradientTransform="matrix(0.0031, 0.0, 0.0, 0.0031, -36.9, 31.4)" gradientUnits="userSpaceOnUse" id="gradient10" r="819.2" spreadMethod="pad">
      <stop offset="0.21176470588235294" stop-color="#e14f4f" stop-opacity="0.53333336"/>
      <stop offset="0.8980392156862745" stop-color="#853a3a" stop-opacity="0.0"/>
    </radialGradient>
    <radialGradient cx="0" cy="0" gradientTransform="matrix(-0.0024, 0.0, 0.0, 0.0024, 34.0, -20.0)" gradientUnits="userSpaceOnUse" id="gradient11" r="819.2" spreadMethod="pad">
      <stop offset="0.21176470588235294" stop-color="#e14f4f" stop-opacity="0.53333336"/>
      <stop offset="0.8980392156862745" stop-color="#853a3a" stop-opacity="0.0"/>
    </radialGradient>
    <radialGradient cx="0" cy="0" gradientTransform="matrix(0.0024, 0.0, 0.0, 0.0024, -34.0, -20.0)" gradientUnits="userSpaceOnUse" id="gradient12" r="819.2" spreadMethod="pad">
      <stop offset="0.21176470588235294" stop-color="#e14f4f" stop-opacity="0.53333336"/>
      <stop offset="0.8980392156862745" stop-color="#853a3a" stop-opacity="0.0"/>
    </radialGradient>
    <radialGradient cx="0" cy="0" gradientTransform="matrix(0.0041, 0.0, 0.0, 0.0041, -32.3, -22.6)" gradientUnits="userSpaceOnUse" id="gradient13" r="819.2" spreadMethod="pad">
      <stop offset="0.13333333333333333" stop-color="#fa8b8b"/>
      <stop offset="0.25882352941176473" stop-color="#de3d3d"/>
      <stop offset="0.8156862745098039" stop-color="#800d0d"/>
    </radialGradient>
    <radialGradient cx="0" cy="0" gradientTransform="matrix(-0.0041, 0.0, 0.0, 0.0041, 32.3, -22.6)" gradientUnits="userSpaceOnUse" id="gradient14" r="819.2" spreadMethod="pad">
      <stop offset="0.13333333333333333" stop-color="#fa8b8b"/>
      <stop offset="0.24705882352941178" stop-color="#de3d3d"/>
      <stop offset="0.8156862745098039" stop-color="#800d0d"/>
    </radialGradient>
    <radialGradient cx="0" cy="0" gradientTransform="matrix(0.0056, 0.0, 0.0, 0.0056, -30.25, -25.65)" gradientUnits="userSpaceOnUse" id="gradient15" r="819.2" spreadMethod="pad">
      <stop offset="0.12941176470588237" stop-color="#fa8b8b"/>
      <stop offset="0.25098039215686274" stop-color="#de3d3d"/>
      <stop offset="0.8196078431372549" stop-color="#800d0d"/>
    </radialGradient>
    <radialGradient cx="0" cy="0" gradientTransform="matrix(-0.0056, 0.0, 0.0, 0.0056, 30.25, -25.65)" gradientUnits="userSpaceOnUse" id="gradient16" r="819.2" spreadMethod="pad">
      <stop offset="0.12941176470588237" stop-color="#fa8b8b"/>
      <stop offset="0.24705882352941178" stop-color="#de3d3d"/>
      <stop offset="0.8156862745098039" stop-color="#800d0d"/>
    </radialGradient>
    <radialGradient cx="0" cy="0" gradientTransform="matrix(0.0065, 0.0, 0.0, 0.0065, -27.35, -29.3)" gradientUnits="userSpaceOnUse" id="gradient17" r="819.2" spreadMethod="pad">
      <stop offset="0.13333333333333333" stop-color="#fa8b8b"/>
      <stop offset="0.24705882352941178" stop-color="#de3d3d"/>
      <stop offset="0.8196078431372549" stop-color="#800d0d"/>
    </radialGradient>
    <radialGradient cx="0" cy="0" gradientTransform="matrix(-0.0065, 0.0, 0.0, 0.0065, 27.35, -29.3)" gradientUnits="userSpaceOnUse" id="gradient18" r="819.2" spreadMethod="pad">
      <stop offset="0.13333333333333333" stop-color="#fa8b8b"/>
      <stop offset="0.24705882352941178" stop-color="#de3d3e"/>
      <stop offset="0.8156862745098039" stop-color="#800d0d"/>
    </radialGradient>
    <radialGradient cx="0" cy="0" gradientTransform="matrix(0.0082, 0.0, 0.0, 0.0082, -22.95, -33.8)" gradientUnits="userSpaceOnUse" id="gradient19" r="819.2" spreadMethod="pad">
      <stop offset="0.13333333333333333" stop-color="#fa8b8b"/>
      <stop offset="0.24705882352941178" stop-color="#de3d3d"/>
      <stop offset="0.8313725490196079" stop-color="#800d0d"/>
    </radialGradient>
    <radialGradient cx="0" cy="0" gradientTransform="matrix(-0.0082, 0.0, 0.0, 0.0082, 22.95, -33.8)" gradientUnits="userSpaceOnUse" id="gradient20" r="819.2" spreadMethod="pad">
      <stop offset="0.13725490196078433" stop-color="#fa8b8b"/>
      <stop offset="0.25882352941176473" stop-color="#de3d3d"/>
      <stop offset="0.8235294117647058" stop-color="#800d0d"/>
    </radialGradient>
    <radialGradient cx="0" cy="0" fx="-1264.0" fy="0" gradientTransform="matrix(0.0, -0.0171, -0.0251, 0.0, 0.0, -38.0)" gradientUnits="userSpaceOnUse" id="gradient21" r="819.2" spreadMethod="pad">
      <stop offset="0.0" stop-color="#fa8b8b"/>
      <stop offset="0.6274509803921569" stop-color="#b12626"/>
      <stop offset="0.7137254901960784" stop-color="#b12626"/>
      <stop offset="0.8784313725490196" stop-color="#d03636"/>
      <stop offset="1.0" stop-color="#a31f1f"/>
    </radialGradient>
    <radialGradient cx="0" cy="0" fx="-1264.0" fy="0" gradientTransform="matrix(0.0, -0.0171, 0.0251, 0.0, 0.0, -38.0)" gradientUnits="userSpaceOnUse" id="gradient22" r="819.2" spreadMethod="pad">
      <stop offset="0.0" stop-color="#fa8b8b"/>
      <stop offset="0.6274509803921569" stop-color="#b12626"/>
      <stop offset="0.7137254901960784" stop-color="#b12626"/>
      <stop offset="0.8784313725490196" stop-color="#d03636"/>
      <stop offset="1.0" stop-color="#a31f1f"/>
    </radialGradient>
    <radialGradient cx="0" cy="0" gradientTransform="matrix(0.0, -0.005, 0.006, 0.0, 0.0, -48.0)" gradientUnits="userSpaceOnUse" id="gradient23" r="819.2" spreadMethod="pad">
      <stop offset="0.16862745098039217" stop-color="#fc5858" stop-opacity="0.72156864"/>
      <stop offset="1.0" stop-color="#c73737" stop-opacity="0.0"/>
    </radialGradient>
    <linearGradient gradientTransform="matrix(0.0089, 0.0, 0.0, 0.0023, 0.0, -48.4)" gradientUnits="userSpaceOnUse" id="gradient24" spreadMethod="pad" x1="-819.2" x2="819.2">
      <stop offset="0.0" stop-color="#d50606"/>
      <stop offset="0.34901960784313724" stop-color="#501515"/>
      <stop offset="0.7254901960784313" stop-color="#501515"/>
      <stop offset="1.0" stop-color="#d50606"/>
    </linearGradient>
    <linearGradient gradientTransform="matrix(0.002, -0.002, 0.004, 0.004, -15.2, -38.0)" gradientUnits="userSpaceOnUse" id="gradient25" spreadMethod="pad" x1="-819.2" x2="819.2">
      <stop offset="0.09019607843137255" stop-color="#000000" stop-opacity="0.0"/>
      <stop offset="1.0" stop-color="#000000" stop-opacity="0.22352941"/>
    </linearGradient>
    <linearGradient gradientTransform="matrix(-0.002, -0.002, -0.004, 0.004, 15.2, -38.0)" gradientUnits="userSpaceOnUse" id="gradient26" spreadMethod="pad" x1="-819.2" x2="819.2">
      <stop offset="0.09019607843137255" stop-color="#000000" stop-opacity="0.0"/>
      <stop offset="1.0" stop-color="#000000" stop-opacity="0.22352941"/>
    </linearGradient>
    <radialGradient cx="0" cy="0" gradientTransform="matrix(0.0209, 0.0, 0.0, 0.0143, -0.3, -33.55)" gradientUnits="userSpaceOnUse" id="gradient27" r="819.2" spreadMethod="pad">
      <stop offset="0.0196078431372549" stop-color="#f99b9b" stop-opacity="0.99215686"/>
      <stop offset="0.44313725490196076" stop-color="#f76464" stop-opacity="0.67058825"/>
      <stop offset="1.0" stop-color="#da3434" stop-opacity="0.0"/>
    </radialGradient>
    <radialGradient cx="0" cy="0" fx="528.0" fy="0" gradientTransform="matrix(0.0, -0.0049, -0.0085, 0.0, 6.0, -40.0)" gradientUnits="userSpaceOnUse" id="gradient28" r="819.2" spreadMethod="pad">
      <stop offset="0.17254901960784313" stop-color="#9d2020"/>
      <stop offset="0.7490196078431373" stop-color="#4e1515"/>
    </radialGradient>
    <radialGradient cx="0" cy="0" fx="528.0" fy="0" gradientTransform="matrix(0.0, -0.0049, 0.0085, 0.0, -6.0, -40.0)" gradientUnits="userSpaceOnUse" id="gradient29" r="819.2" spreadMethod="pad">
      <stop offset="0.17647058823529413" stop-color="#9d2020"/>
      <stop offset="0.7490196078431373" stop-color="#4e1515"/>
    </radialGradient>
    <linearGradient gradientTransform="matrix(0.0, 0.0035, -0.0026, 0.0, 0.0, -43.15)" gradientUnits="userSpaceOnUse" id="gradient30" spreadMethod="pad" x1="-819.2" x2="819.2">
      <stop offset="0.0" stop-color="#961f1f"/>
      <stop offset="1.0" stop-color="#5c1919"/>
    </linearGradient>
  </defs>
</svg>
