<?xml version="1.0" encoding="UTF-8" standalone="no"?>
<svg xmlns:xlink="http://www.w3.org/1999/xlink" height="534.6px" width="450.1px" xmlns="http://www.w3.org/2000/svg">
  <g transform="matrix(1.0, 0.0, 0.0, 1.0, 228.25, 360.0)">
    <path d="M183.1 -358.25 L183.25 -358.0 183.1 -357.9 183.0 -357.4 183.0 -357.25 182.6 -356.15 182.5 -356.0 182.25 -355.4 181.85 -354.75 181.85 -354.65 181.1 -353.4 180.85 -353.25 180.6 -353.0 178.5 -351.25 178.35 -351.25 176.5 -351.0 175.5 -351.25 174.75 -351.25 174.1 -351.75 173.85 -351.9 173.5 -352.0 173.25 -352.25 172.35 -353.75 172.25 -354.15 172.25 -354.4 172.1 -354.65 171.75 -357.0 171.75 -357.75 171.85 -358.0 171.85 -359.65 172.0 -359.9 173.25 -360.0 179.85 -360.0 181.85 -359.75 182.6 -359.75 183.0 -360.0 183.1 -358.25 M136.1 -180.75 L136.1 -180.65 136.35 -180.15 136.35 -179.65 136.25 -179.4 136.25 -178.5 136.1 -178.25 136.1 -178.15 135.5 -176.75 135.25 -176.5 135.1 -176.25 134.25 -175.75 134.25 -175.65 134.0 -175.4 133.75 -175.4 133.0 -175.0 131.85 -175.0 131.25 -175.25 130.35 -175.75 129.85 -176.25 129.25 -177.5 129.0 -178.65 129.25 -180.0 130.0 -181.9 130.6 -182.5 130.75 -182.9 131.35 -182.9 132.35 -183.15 132.85 -183.15 133.6 -182.9 134.25 -182.9 134.5 -182.75 135.0 -182.65 135.1 -182.4 136.1 -180.75 M218.25 -2.25 L219.5 -1.0 220.25 0.0 221.75 3.0 221.85 5.85 221.75 6.1 220.25 8.35 219.5 9.0 219.0 9.25 218.85 9.35 218.6 9.6 218.35 9.75 217.75 10.25 214.6 10.75 211.5 10.75 210.35 10.0 209.5 9.6 208.1 8.75 207.1 7.1 206.85 6.85 206.75 6.35 206.25 5.0 206.1 4.85 206.0 4.6 205.85 4.35 205.85 3.25 205.6 1.6 206.0 1.35 206.75 0.35 207.25 -0.5 207.35 -0.75 208.1 -1.9 208.35 -2.0 210.5 -3.15 212.5 -3.4 216.5 -3.4 218.25 -2.25 M42.1 -198.5 L42.6 -199.25 43.5 -199.75 44.85 -199.9 45.25 -199.75 45.5 -199.75 46.1 -199.5 46.25 -199.5 46.75 -198.5 46.85 -198.5 46.85 -198.4 47.0 -198.15 47.0 -198.0 47.5 -197.65 47.5 -196.25 47.25 -195.75 47.25 -195.65 46.85 -195.0 46.75 -194.75 46.35 -194.25 45.75 -193.65 44.75 -192.9 43.5 -192.4 42.35 -192.75 42.0 -192.75 41.0 -193.15 40.75 -193.4 40.6 -194.25 40.6 -194.4 40.5 -195.15 40.5 -196.15 40.75 -197.15 41.1 -197.75 41.75 -198.4 42.1 -198.5 M-203.0 -196.4 L-202.75 -195.4 -202.65 -195.25 -202.65 -195.0 -202.25 -194.25 -202.5 -193.5 -202.5 -193.0 -202.75 -192.25 -203.0 -192.15 -203.5 -191.75 -204.4 -191.65 -205.65 -192.0 -206.65 -192.4 -208.0 -193.75 -208.15 -194.15 -208.5 -194.65 -208.65 -195.4 -208.4 -195.5 -208.4 -196.65 -208.15 -197.4 -207.65 -197.9 -207.0 -198.25 -206.5 -198.4 -205.9 -198.5 -205.25 -198.4 -204.75 -197.9 -204.0 -197.5 -203.4 -196.75 -203.25 -196.75 -203.0 -196.4 M-151.9 -73.5 L-149.5 -71.4 -149.4 -70.15 -149.4 -69.9 -149.25 -69.65 -149.5 -69.0 -149.5 -68.9 -149.9 -68.15 -150.0 -67.75 -149.9 -67.4 -150.0 -67.15 -151.65 -65.65 -151.9 -65.5 -152.15 -65.5 -152.9 -65.15 -153.15 -65.0 -155.0 -64.9 -156.25 -65.25 -156.65 -65.4 -157.9 -66.65 -158.4 -67.4 -158.4 -67.5 -158.75 -67.9 -158.75 -68.15 -159.4 -69.5 -159.15 -70.25 -159.0 -71.0 -158.25 -72.4 -158.0 -72.75 -157.65 -73.0 -157.5 -73.15 -156.0 -73.9 -154.9 -74.0 -152.65 -73.9 -152.4 -73.75 -152.25 -73.75 -151.9 -73.5 M-182.5 -83.75 L-182.15 -83.75 -181.15 -83.4 -176.9 -80.75 -176.15 -80.0 -174.25 -78.65 -172.0 -76.15 -169.15 -71.5 -168.9 -71.15 -169.9 -67.0 -169.75 -66.5 -169.9 -66.25 -170.0 -65.65 -170.75 -62.75 -170.9 -62.4 -171.0 -61.9 -171.15 -61.75 -171.25 -61.25 -172.25 -59.9 -175.15 -58.25 -175.4 -58.15 -175.65 -58.0 -176.0 -57.9 -179.5 -56.25 -183.25 -56.75 -184.0 -56.75 -184.4 -56.9 -186.25 -57.0 -188.65 -58.25 -193.65 -61.25 -196.15 -64.5 -197.25 -66.4 -197.5 -67.65 -198.4 -70.4 -199.15 -74.9 -199.25 -75.25 -199.4 -76.15 -196.9 -79.65 -196.65 -79.9 -193.0 -83.0 -187.9 -85.4 -187.65 -85.4 -187.4 -85.25 -187.0 -85.15 -186.65 -85.0 -186.5 -85.0 -184.5 -84.4 -184.4 -84.4 -184.15 -84.25 -183.65 -84.15 -182.5 -83.75 M-217.75 -5.75 L-217.65 -5.4 -217.75 -3.9 -218.25 -3.4 -218.75 -2.5 -218.65 -2.25 -220.15 -1.25 -221.65 -0.9 -223.25 -0.75 -223.9 -0.75 -224.5 -1.25 -226.5 -2.0 -226.75 -2.25 -227.5 -3.65 -227.75 -4.0 -227.75 -4.25 -228.25 -5.15 -228.15 -6.15 -228.0 -6.65 -227.0 -8.15 -226.9 -8.4 -226.4 -8.9 -225.65 -9.5 -223.75 -10.25 -219.9 -10.0 -218.4 -8.5 -217.9 -7.0 -217.9 -6.0 -217.75 -5.75 M-95.9 -1.25 L-93.0 -0.75 -92.65 -0.75 -91.5 0.6 -91.25 1.0 -91.15 1.35 -91.0 1.35 -89.4 3.85 -89.25 4.5 -88.15 7.5 -88.65 10.6 -88.65 10.85 -88.5 11.1 -88.65 11.35 -88.65 11.5 -89.5 14.1 -89.9 14.5 -92.0 16.1 -92.75 17.0 -95.75 17.0 -96.15 16.75 -99.75 13.6 -100.0 12.85 -101.0 10.6 -101.15 9.75 -101.15 9.35 -101.5 8.0 -101.5 7.85 -101.65 7.5 -101.65 7.35 -101.9 6.85 -101.75 6.5 -101.5 4.6 -101.5 3.75 -100.65 0.75 -97.75 -1.0 -97.25 -1.15 -95.9 -1.25 M-51.5 41.1 L-51.0 42.6 -51.4 43.75 -52.15 44.35 -52.4 44.75 -52.4 45.0 -52.65 45.1 -53.0 45.35 -53.25 45.35 -54.15 45.85 -55.4 45.85 -56.5 45.35 -57.0 44.85 -57.25 44.5 -57.4 44.0 -57.65 43.75 -57.65 43.35 -57.5 42.5 -57.5 41.6 -57.15 41.1 -57.15 41.0 -56.75 40.35 -56.0 39.6 -55.4 39.35 -55.0 39.25 -53.65 39.25 -52.75 39.5 -52.65 39.5 -52.4 39.75 -52.4 39.85 -51.9 40.35 -51.5 41.0 -51.5 41.1 M57.6 155.5 L59.0 155.5 60.0 156.1 60.35 156.25 61.35 156.85 61.5 157.1 61.85 158.1 62.1 159.25 62.1 159.85 61.75 160.85 61.75 161.1 61.1 162.1 60.85 162.25 60.6 162.6 60.0 162.85 59.6 163.1 58.5 163.5 57.35 163.25 57.0 163.1 56.85 163.1 56.6 163.0 55.25 162.1 54.75 161.35 54.5 160.85 54.5 159.5 54.6 159.35 54.6 159.0 54.5 158.5 54.6 158.35 54.85 157.75 55.25 157.1 55.75 156.85 55.85 156.1 56.25 156.1 57.25 155.75 57.6 155.5 M-103.25 129.85 L-103.0 126.35 -97.65 120.1 -93.5 119.0 -93.15 118.85 -88.25 119.1 -87.15 119.5 -86.9 119.5 -86.5 119.6 -86.0 119.6 -85.75 119.75 -85.25 119.75 -83.15 122.0 -81.75 125.35 -81.75 125.5 -81.4 126.35 -81.25 126.6 -81.25 126.75 -80.65 128.0 -80.75 129.0 -80.65 129.1 -80.65 129.35 -81.4 132.6 -82.9 135.6 -83.15 135.85 -86.15 138.35 -86.4 138.6 -86.65 138.6 -90.65 140.1 -94.25 139.85 -98.0 139.0 -100.15 137.35 -100.4 137.25 -100.9 136.6 -102.15 134.25 -102.25 134.0 -102.4 133.75 -103.25 129.85 M184.35 166.75 L184.25 166.0 184.35 164.85 185.1 163.75 185.1 163.6 185.35 163.35 186.5 162.5 187.1 162.25 188.35 162.25 189.0 162.1 190.1 162.5 190.25 162.5 190.5 162.6 190.85 162.85 191.6 163.1 192.35 163.6 192.6 164.0 193.25 164.85 193.75 165.75 193.85 166.0 194.0 166.25 195.1 169.25 195.1 169.85 194.75 171.5 194.0 173.0 193.75 173.35 193.6 173.35 192.35 174.0 190.5 174.6 188.25 174.25 187.75 173.75 186.85 173.35 186.75 172.85 184.75 169.35 184.35 167.85 184.35 166.75" fill="#ffffff" fill-rule="evenodd" stroke="none"/>
  </g>
</svg>
