<?xml version="1.0" encoding="UTF-8" standalone="no"?>
<svg xmlns:xlink="http://www.w3.org/1999/xlink" height="539.6px" width="434.85px" xmlns="http://www.w3.org/2000/svg">
  <g transform="matrix(1.0, 0.0, 0.0, 1.0, 220.75, 359.25)">
    <path d="M180.35 -357.5 L180.5 -357.25 181.25 -354.75 181.5 -352.15 181.5 -351.5 181.35 -351.15 181.35 -350.9 181.25 -350.5 181.0 -349.9 180.6 -349.5 180.6 -349.15 180.5 -348.9 180.5 -348.75 179.75 -347.25 179.1 -347.0 179.1 -346.9 179.0 -346.75 176.85 -345.0 175.0 -344.9 174.85 -344.9 173.6 -345.15 171.85 -345.9 170.85 -347.5 170.35 -349.75 170.25 -350.65 170.35 -353.4 170.5 -353.5 170.6 -354.0 170.5 -354.5 171.1 -355.75 171.6 -356.5 173.6 -358.0 174.25 -358.4 174.6 -358.5 174.85 -358.65 175.75 -358.9 176.5 -359.0 176.85 -359.25 177.5 -359.0 178.0 -359.0 180.25 -357.5 180.35 -357.5 M131.0 -170.25 L131.1 -170.25 131.35 -170.15 131.6 -170.15 131.85 -169.75 132.35 -168.75 132.85 -168.15 132.85 -168.0 133.0 -167.65 132.85 -167.25 133.0 -166.25 132.75 -166.0 132.6 -165.75 132.75 -165.5 132.6 -165.25 132.5 -164.9 131.85 -163.9 131.6 -163.65 131.0 -163.4 131.0 -163.25 130.75 -163.0 130.5 -163.0 129.6 -162.75 128.35 -162.75 127.75 -163.15 127.25 -163.4 127.0 -163.65 126.35 -164.75 125.85 -166.15 126.0 -166.4 126.1 -167.5 126.6 -168.75 126.75 -169.25 127.5 -170.0 128.0 -170.25 129.1 -170.5 129.85 -170.5 131.0 -170.25 M205.35 8.6 L208.85 8.6 210.5 9.6 210.6 9.75 210.85 10.0 211.6 10.6 211.85 11.0 212.1 11.25 212.5 11.85 214.0 14.75 214.1 17.35 214.0 17.75 212.5 20.0 211.75 20.6 211.25 20.85 211.0 21.1 210.75 21.25 210.75 21.35 210.0 21.85 207.0 22.25 205.85 22.25 205.35 22.1 204.1 22.25 203.0 21.5 202.85 21.5 202.75 21.35 202.5 21.25 200.85 20.25 200.0 18.85 199.75 18.6 199.25 17.1 199.25 17.0 198.75 16.1 198.6 15.5 198.75 14.75 198.5 14.6 198.75 13.25 199.5 12.25 200.0 11.35 200.25 11.0 200.5 10.1 201.1 9.85 203.0 8.85 203.1 8.85 205.35 8.6 M41.6 -186.5 L42.5 -187.0 43.85 -187.15 44.1 -187.0 45.25 -186.65 45.6 -185.75 46.0 -185.5 46.35 -184.9 46.35 -183.9 46.25 -183.5 46.1 -183.4 46.1 -183.0 45.6 -182.25 45.5 -182.15 45.5 -182.0 45.1 -181.65 44.75 -181.15 44.35 -180.9 44.0 -180.5 43.6 -180.4 42.5 -179.9 41.35 -180.25 41.0 -180.25 40.1 -180.65 39.75 -180.9 39.6 -181.75 39.6 -181.9 39.5 -182.25 39.6 -183.0 39.6 -183.65 39.85 -184.5 40.25 -185.25 40.6 -185.75 41.1 -185.9 41.6 -186.5 M-199.75 -185.0 L-199.15 -184.75 -198.65 -184.15 -198.5 -184.15 -198.15 -183.65 -198.15 -183.5 -198.0 -183.15 -198.0 -182.75 -197.75 -182.5 -197.75 -182.15 -197.4 -181.5 -197.65 -181.0 -197.65 -180.5 -198.0 -179.65 -198.25 -179.4 -198.4 -179.4 -199.5 -179.0 -200.65 -179.25 -201.75 -179.75 -202.75 -180.65 -202.9 -180.75 -202.9 -180.9 -203.15 -181.15 -203.5 -181.9 -203.65 -182.65 -203.65 -183.0 -203.4 -183.15 -203.4 -183.9 -203.15 -184.65 -202.9 -184.9 -202.25 -185.25 -202.15 -185.4 -201.65 -185.5 -200.9 -185.4 -200.25 -185.5 -199.75 -185.0 M-163.75 -54.15 L-162.9 -53.0 -162.5 -52.65 -162.15 -52.5 -161.9 -51.65 -159.5 -48.15 -160.4 -43.4 -160.4 -43.0 -160.65 -42.75 -160.5 -42.5 -160.65 -42.15 -161.25 -40.0 -161.4 -39.9 -161.9 -38.65 -162.15 -38.4 -164.4 -36.75 -164.65 -36.5 -165.4 -36.0 -166.5 -35.4 -166.65 -35.4 -166.9 -35.25 -167.0 -35.25 -169.4 -34.15 -173.65 -34.4 -176.15 -34.75 -177.25 -35.4 -177.65 -35.5 -178.0 -35.75 -182.65 -38.4 -183.0 -38.9 -184.9 -41.15 -185.9 -43.0 -186.25 -44.4 -187.15 -46.9 -187.75 -51.0 -187.9 -51.5 -187.9 -52.15 -185.5 -55.5 -182.25 -58.65 Q-179.6 -59.8 -177.0 -61.0 L-172.0 -59.5 -170.65 -58.9 -167.25 -57.0 -166.5 -56.4 -165.9 -55.75 -163.75 -54.15 M-210.5 5.0 L-210.65 5.5 -210.5 5.75 -210.4 6.1 -210.5 7.5 -210.75 7.75 -211.4 9.0 -212.75 10.1 -214.25 10.5 -216.25 10.6 -218.9 9.35 -219.0 9.35 -219.15 9.25 -219.25 9.0 -219.9 7.85 -220.15 7.5 -220.15 7.35 -220.75 6.0 -220.25 5.0 -220.25 4.5 -219.5 3.75 -219.5 3.6 -219.4 3.35 -218.65 2.6 -218.0 2.1 -215.75 1.35 -214.65 1.5 -214.25 1.6 -213.4 1.5 -212.5 1.6 -211.15 3.0 -210.5 5.0 M-147.65 -59.25 L-147.4 -59.25 -147.15 -59.15 -146.9 -59.15 -146.5 -58.9 -145.65 -58.25 -145.25 -58.0 -145.25 -57.75 -144.25 -56.9 -144.15 -55.25 -144.25 -54.65 -144.5 -54.4 -144.5 -53.65 -144.75 -53.4 -144.9 -52.65 -146.25 -51.4 -147.4 -50.9 -148.15 -50.75 -149.5 -50.65 -151.0 -51.0 -152.65 -52.65 -152.75 -52.9 -152.75 -53.0 -152.9 -53.15 -153.0 -53.4 -153.15 -53.5 -153.15 -53.75 -153.75 -55.0 -153.5 -55.75 -153.5 -55.9 -153.4 -56.5 -152.65 -57.65 -152.65 -57.9 -152.4 -58.15 -150.5 -59.25 -149.5 -59.4 -148.75 -59.4 -147.65 -59.25 M-93.4 7.75 L-92.9 7.6 -90.4 8.1 -89.15 9.6 -88.75 10.25 -87.0 12.6 -86.9 13.35 -85.9 16.25 -86.15 18.0 -86.5 19.25 -86.65 20.5 -87.25 22.75 -87.5 23.0 -87.65 23.0 -89.4 24.35 -90.4 25.5 -93.25 25.5 -94.65 24.5 -97.15 22.25 -97.9 20.25 -97.9 20.1 -98.4 19.25 -98.5 18.35 -98.5 17.85 -98.9 16.6 -98.9 16.5 -99.0 16.1 -99.0 16.0 -99.25 15.6 -99.15 15.35 -98.75 12.5 -98.75 12.1 -98.65 11.85 -98.0 9.6 -97.65 9.35 -96.0 8.5 -95.15 7.85 -95.0 7.85 -94.75 7.75 -93.4 7.75 M-54.5 47.35 L-54.15 47.25 -53.9 47.1 -53.15 47.0 -52.65 47.0 -51.25 47.35 -50.5 48.1 -50.15 49.0 -50.15 49.1 -50.0 49.35 -49.65 50.25 -50.15 51.5 -50.9 52.35 -51.65 53.0 -51.75 53.0 -52.15 53.25 -52.75 53.5 -54.15 53.5 -55.15 53.0 -55.75 52.25 -55.9 51.75 -56.15 51.5 -56.15 51.1 -56.0 50.35 -56.0 49.35 -55.65 48.85 -55.65 48.75 -55.25 48.1 -54.5 47.35 M-77.9 136.85 L-78.65 140.0 -80.0 142.85 -80.25 143.1 -83.25 145.6 -83.5 145.75 -87.5 147.25 -90.65 147.1 -91.25 146.85 -94.65 146.1 -96.75 144.5 -97.0 144.35 -97.4 144.0 -98.65 141.5 -98.75 141.1 -98.9 140.85 -99.65 137.25 -99.4 134.0 -97.5 131.75 -97.5 131.6 -97.0 130.85 -94.25 127.85 -90.15 126.75 -86.75 126.85 -85.75 126.75 -84.65 127.0 -84.15 127.25 -84.0 127.25 -83.65 127.35 -83.15 127.35 -82.9 127.5 -80.9 129.1 -80.25 129.75 -78.9 133.0 -78.9 133.1 -78.75 133.35 -78.65 133.75 -78.5 134.0 -78.5 134.1 -78.0 135.0 -77.9 136.85 M59.85 162.75 L60.25 164.25 60.25 165.6 60.0 166.1 60.0 166.25 59.85 166.35 59.5 167.0 58.6 167.85 57.85 168.25 56.85 168.5 56.75 168.5 55.0 168.1 54.75 168.0 54.25 167.6 53.6 167.25 52.85 166.0 52.85 165.0 53.0 164.6 53.0 163.5 53.1 163.25 53.6 162.35 54.0 162.0 54.35 161.5 55.6 161.0 56.1 160.85 57.25 160.85 58.6 161.5 59.5 162.25 59.75 162.25 59.75 162.35 59.85 162.6 59.85 162.75 M180.0 168.6 L180.6 168.35 182.0 168.5 183.0 168.35 183.5 168.6 183.6 168.6 184.25 169.0 184.75 169.1 185.35 169.5 185.6 169.75 186.1 170.35 186.6 171.1 186.6 171.35 186.85 171.6 187.0 171.85 187.1 172.1 187.25 172.35 187.6 173.5 187.6 173.75 187.75 173.85 188.25 175.1 188.25 175.25 188.35 175.6 188.0 177.25 187.25 178.85 187.0 179.1 183.85 180.35 181.6 180.0 181.25 179.6 180.35 179.1 180.25 178.5 178.35 175.25 178.25 174.25 178.1 174.1 178.0 173.6 178.0 172.6 177.85 172.0 178.0 170.85 178.75 169.75 179.0 169.6 180.0 168.6" fill="#ffffff" fill-rule="evenodd" stroke="none"/>
  </g>
</svg>
