<?xml version="1.0" encoding="UTF-8" standalone="no"?>
<svg xmlns:xlink="http://www.w3.org/1999/xlink" height="536.6px" width="419.75px" xmlns="http://www.w3.org/2000/svg">
  <g transform="matrix(1.0, 0.0, 0.0, 1.0, 213.25, 350.75)">
    <path d="M178.25 -349.15 L178.35 -348.9 179.1 -346.4 179.35 -343.9 179.25 -343.15 179.35 -343.15 179.1 -343.0 179.25 -342.75 178.85 -341.65 178.75 -341.5 178.5 -341.4 178.5 -340.9 178.25 -340.5 178.25 -340.4 177.6 -339.15 176.85 -338.65 174.75 -337.0 172.6 -336.9 172.1 -337.0 170.5 -337.5 170.25 -337.65 170.0 -337.75 169.75 -338.0 168.85 -339.65 168.75 -340.15 168.6 -340.4 168.6 -340.65 168.5 -341.0 168.35 -342.25 168.25 -342.65 168.35 -345.25 168.5 -345.5 169.0 -347.25 169.0 -347.4 169.35 -348.0 169.6 -348.25 171.5 -349.75 172.0 -350.0 173.35 -350.5 174.5 -350.75 175.35 -350.75 178.25 -349.15 M128.35 -157.65 L128.6 -157.4 129.35 -156.4 129.6 -155.75 129.6 -155.65 129.75 -155.4 129.6 -154.9 129.75 -153.9 129.6 -153.65 129.5 -153.25 129.1 -152.25 128.85 -152.15 128.75 -151.9 128.6 -151.65 127.75 -151.15 127.75 -151.0 127.35 -150.75 127.1 -150.75 126.6 -150.5 125.6 -150.5 125.1 -150.65 124.6 -151.0 124.1 -151.25 123.85 -151.5 123.25 -152.4 123.1 -152.75 123.0 -153.65 122.85 -153.9 122.85 -154.0 123.1 -155.25 123.75 -156.9 124.35 -157.65 125.0 -157.9 125.85 -157.75 126.5 -158.15 128.35 -157.65 M203.1 21.35 L203.25 21.5 204.25 22.35 204.25 22.5 204.6 22.85 205.25 23.85 205.35 24.1 205.5 24.35 205.6 24.6 205.75 24.85 206.35 26.35 206.5 29.0 205.0 31.25 203.6 32.35 203.35 32.5 202.6 33.1 199.6 33.5 197.0 33.5 195.6 32.6 195.25 32.5 193.75 31.5 193.1 30.5 193.0 30.25 192.75 30.0 192.5 29.1 192.35 28.75 191.85 27.85 191.6 26.85 191.75 26.1 191.5 25.85 191.75 24.6 192.5 23.85 193.0 22.85 193.25 22.5 193.5 21.6 193.85 21.5 196.0 20.35 201.5 20.35 203.1 21.35 M43.35 -174.5 L44.0 -174.4 44.25 -174.15 44.6 -173.4 44.75 -173.4 44.75 -173.0 45.25 -172.5 45.25 -171.65 45.0 -170.9 45.0 -170.75 44.6 -170.15 44.5 -169.9 44.1 -169.4 42.85 -168.25 42.75 -168.25 41.5 -167.75 40.85 -167.9 39.0 -168.5 38.85 -168.65 38.6 -169.65 38.6 -169.75 38.5 -170.4 38.6 -170.75 38.6 -171.25 38.85 -172.15 39.6 -173.4 40.1 -173.5 40.6 -174.15 41.5 -174.65 43.0 -174.65 Q43.2 -174.55 43.35 -174.5 M-193.5 -171.4 L-193.75 -171.25 -193.4 -170.9 -193.15 -170.25 -193.15 -169.9 -192.75 -169.25 -193.0 -168.65 -193.0 -168.25 -193.15 -168.0 -193.15 -167.9 -193.25 -167.5 -193.4 -167.25 -193.65 -167.15 -193.75 -167.15 -194.5 -166.9 -194.65 -166.9 -194.9 -166.75 -195.9 -167.0 -197.0 -167.5 -198.25 -168.75 -198.75 -169.5 -198.75 -170.75 -198.5 -172.0 -198.15 -172.4 -197.25 -173.0 -196.9 -173.15 -196.15 -173.0 -195.65 -173.15 -195.15 -172.65 -194.4 -172.25 -193.9 -171.65 -193.5 -171.4 M-161.0 -35.9 L-157.4 -33.75 -157.25 -33.75 -156.9 -33.4 -154.9 -32.15 -152.9 -29.75 -150.4 -25.75 -151.15 -21.25 -151.25 -21.0 -151.25 -20.9 -152.65 -16.9 -156.4 -14.15 -158.0 -13.4 -158.25 -13.25 -158.75 -13.25 -159.25 -12.9 -163.65 -12.75 -164.9 -13.0 -165.4 -13.15 -166.0 -13.25 -166.25 -13.4 -166.65 -13.5 -167.75 -13.9 -172.0 -16.25 -172.4 -16.65 -175.0 -20.5 -176.25 -24.25 -176.9 -29.15 -172.15 -35.0 -167.4 -37.15 -166.5 -37.4 -161.65 -36.0 -161.25 -36.0 -161.0 -35.9 M-203.5 16.85 L-203.65 17.0 -203.65 17.1 -203.75 17.25 -203.65 18.0 -203.9 18.35 -203.9 18.5 -204.0 18.6 -204.4 20.0 -205.75 21.0 -206.65 21.25 -208.25 21.5 -209.0 21.5 -210.0 21.0 -210.5 20.85 -211.75 20.25 -212.0 20.0 -212.75 18.75 -212.9 18.35 -213.25 16.75 -213.0 16.25 -213.0 15.75 -212.15 14.75 -212.15 14.6 -210.75 13.35 -209.25 12.75 -208.0 12.6 -207.15 12.75 -207.0 12.75 -205.5 12.85 -204.15 14.25 -203.5 16.35 -203.5 16.85 M-141.65 -45.15 L-141.4 -44.9 -141.25 -44.9 -140.75 -44.4 -139.25 -43.15 -139.15 -41.5 -139.25 -40.9 -139.5 -40.65 -139.5 -39.75 -139.75 -39.65 -139.75 -39.0 -139.9 -39.0 -141.15 -37.9 -141.9 -37.5 -142.25 -37.5 -143.0 -37.15 -144.25 -37.0 -145.75 -37.4 -147.0 -38.65 -147.15 -38.75 -147.4 -39.15 -147.5 -39.4 -147.65 -39.5 -147.75 -39.75 -147.75 -39.9 -148.25 -41.15 -148.15 -41.75 -148.15 -42.15 -147.25 -44.0 -147.0 -44.25 -146.15 -44.9 -145.4 -45.0 -144.0 -45.4 -143.65 -45.65 -141.65 -45.15 M-86.25 19.5 L-86.0 19.6 -85.5 20.1 -84.65 21.85 -84.5 22.6 -83.5 25.35 -83.9 28.5 -84.9 31.35 -84.75 31.75 -86.5 32.75 -87.9 34.35 -90.65 34.35 -92.4 33.1 -93.4 32.1 -94.75 30.5 -95.15 29.25 -95.15 29.1 -95.25 29.0 -95.65 28.35 -95.75 27.5 -95.75 27.0 -96.15 25.75 -96.15 25.5 -96.25 25.25 -96.25 25.1 -96.5 24.75 -96.4 24.35 -96.15 22.85 -96.15 22.5 -96.0 21.6 -96.0 21.5 -95.0 18.75 -93.0 17.6 -92.5 17.25 -92.15 17.1 -90.25 17.0 -88.0 17.5 -87.15 18.25 -86.4 19.25 -86.25 19.25 -86.25 19.5 M-53.25 55.0 L-52.65 54.6 -51.5 54.6 -51.0 54.5 -50.0 54.85 -49.9 54.85 -49.75 55.1 -49.25 55.6 -48.75 56.6 -48.75 56.75 -48.4 57.75 -48.9 58.85 -49.4 59.5 -49.65 59.75 -49.9 60.1 -50.15 60.25 -50.25 60.25 -50.4 60.35 -50.5 60.35 -51.4 60.85 -52.75 60.85 -52.9 60.75 -53.65 60.5 -54.25 59.5 -54.65 59.0 -54.75 58.6 -54.4 56.35 -54.0 56.1 -54.0 55.75 -53.65 55.35 -53.5 55.25 -53.25 55.0 M-76.0 140.75 L-76.0 140.85 -75.75 141.25 -75.75 141.5 -75.65 141.75 -75.5 142.0 -75.5 142.1 -74.9 143.35 -74.9 144.5 -75.15 144.6 -75.0 144.75 -75.65 147.5 -77.0 150.25 -77.15 150.5 -80.15 153.0 -84.25 154.6 -87.9 154.25 -91.0 153.5 -92.9 152.1 -93.15 152.0 -93.65 151.35 -94.9 149.1 -95.0 148.85 -95.15 148.6 -95.75 145.6 -95.75 141.85 -93.9 139.5 -93.75 139.35 -93.65 139.1 -93.0 138.5 -90.65 135.75 -87.0 134.85 -83.5 134.6 -82.25 134.85 -82.0 135.0 -81.5 135.1 -81.15 135.1 -80.9 135.25 -80.65 135.35 -79.75 135.5 -77.4 137.5 -76.0 140.75 M55.6 165.85 L56.6 166.5 56.85 166.6 57.85 167.1 58.0 167.35 58.1 167.6 58.6 169.85 58.5 170.25 58.5 171.0 57.85 171.75 57.75 172.0 57.35 172.35 56.1 173.25 55.85 173.35 55.0 173.35 53.35 173.0 52.0 172.1 51.75 171.6 51.35 171.0 51.35 169.75 51.5 169.6 51.5 168.6 51.6 168.25 52.1 167.35 52.5 166.85 52.85 166.5 54.0 166.1 54.35 165.85 55.6 165.85 M174.0 174.35 L174.6 174.25 175.6 174.35 176.1 174.1 176.6 174.25 177.0 174.5 177.25 174.5 177.5 174.6 178.0 175.0 178.35 175.0 179.25 175.6 179.75 176.35 180.0 176.6 180.0 177.0 180.5 177.5 180.35 177.75 180.6 177.75 180.6 177.85 181.75 180.85 181.75 181.5 181.5 183.0 180.6 184.6 180.5 184.75 180.35 184.75 179.1 185.35 179.0 185.35 178.75 185.5 178.6 185.5 177.5 185.85 175.35 185.5 175.0 185.1 174.1 184.6 174.0 184.1 172.75 181.85 172.75 181.75 172.1 180.85 172.1 180.1 171.85 179.35 171.85 178.1 171.75 177.75 171.85 177.5 171.85 176.6 172.5 175.75 172.5 175.6 172.85 175.5 172.75 175.1 174.0 174.35" fill="#ffffff" fill-rule="evenodd" stroke="none"/>
  </g>
</svg>
