<?xml version="1.0" encoding="UTF-8" standalone="no"?>
<svg xmlns:xlink="http://www.w3.org/1999/xlink" height="551.1px" width="405.35px" xmlns="http://www.w3.org/2000/svg">
  <g transform="matrix(1.0, 0.0, 0.0, 1.0, 206.25, 360.0)">
    <path d="M169.1 -339.75 L169.85 -340.15 171.25 -340.65 171.85 -340.65 172.35 -341.0 172.85 -340.75 173.35 -340.65 175.75 -339.15 176.6 -336.5 176.85 -333.5 176.6 -332.9 176.6 -332.75 176.35 -332.0 176.0 -331.65 176.0 -331.15 175.75 -330.75 175.75 -330.65 175.1 -329.4 174.5 -329.15 174.5 -329.0 174.35 -328.9 172.35 -327.25 170.25 -327.15 170.1 -327.25 169.75 -327.25 169.5 -327.4 168.25 -327.75 167.5 -328.15 166.5 -329.9 166.35 -330.4 166.0 -332.25 165.85 -332.65 166.0 -335.5 166.1 -335.9 166.25 -336.25 166.25 -337.15 166.6 -337.5 166.6 -337.65 167.0 -337.9 167.1 -338.25 169.1 -339.75 M125.25 -145.4 L126.5 -143.4 126.5 -143.25 126.6 -143.15 126.6 -142.25 126.35 -141.5 126.5 -141.5 126.35 -141.4 126.25 -141.0 126.0 -140.75 126.1 -140.5 125.6 -139.9 125.5 -139.65 124.5 -138.9 124.35 -138.9 124.1 -138.75 123.85 -138.75 122.25 -138.5 122.1 -138.65 121.1 -139.25 120.75 -139.65 120.25 -140.5 120.0 -141.5 119.85 -141.9 119.85 -142.0 120.1 -143.25 120.75 -144.75 121.35 -145.5 121.75 -145.65 122.85 -145.9 123.5 -145.9 124.1 -145.65 125.0 -145.5 125.25 -145.4 M194.35 31.6 L196.0 32.85 196.1 33.0 197.5 34.35 197.6 34.75 197.85 35.0 198.0 35.25 198.1 35.5 198.25 35.75 198.35 36.0 198.5 36.25 199.0 37.5 199.1 40.1 197.6 42.35 196.1 43.5 196.0 43.5 195.0 44.0 192.6 44.35 189.85 44.35 188.75 43.6 188.5 43.5 186.85 42.5 186.25 41.5 186.25 41.35 186.0 41.1 185.6 40.25 185.6 40.1 184.85 38.0 184.85 37.5 185.0 35.75 185.6 35.0 187.0 32.75 189.1 31.6 194.35 31.6 M41.1 -162.65 L42.1 -162.65 43.1 -162.25 43.5 -161.25 43.6 -161.15 44.1 -160.5 44.1 -159.25 43.85 -158.75 43.85 -158.65 43.5 -158.15 43.35 -158.0 43.35 -157.9 42.85 -157.25 42.35 -156.9 42.25 -156.75 42.0 -156.65 41.6 -156.4 40.5 -155.9 39.35 -156.25 38.85 -156.25 38.25 -156.65 38.0 -156.75 37.75 -157.65 37.75 -157.75 37.6 -158.15 37.6 -158.9 38.0 -160.25 38.25 -160.75 38.75 -161.4 39.25 -161.9 39.75 -162.25 41.1 -162.65 M-163.5 -359.5 L-163.5 -358.4 -164.4 -356.25 -164.75 -356.0 -164.75 -355.75 -165.15 -355.25 -166.9 -354.65 -167.0 -354.65 -167.25 -354.5 -167.4 -354.5 -168.9 -354.75 -170.0 -355.4 -170.25 -355.5 -170.75 -355.9 -172.0 -356.65 -172.75 -358.4 -173.0 -358.65 -173.15 -358.9 -173.25 -359.15 -173.75 -359.65 -173.75 -360.0 -173.25 -360.0 -173.0 -359.9 -172.25 -360.0 -164.15 -359.9 -163.65 -360.0 -163.5 -359.5 M-188.9 -159.0 L-188.65 -158.4 -188.65 -158.0 -188.25 -157.4 -188.5 -156.9 -188.5 -156.4 -189.0 -155.5 -189.0 -155.4 -189.15 -155.4 -190.15 -155.0 -191.0 -155.15 -191.25 -155.25 -191.5 -155.4 -192.4 -155.65 -193.65 -156.9 -194.15 -157.65 -194.15 -158.75 -193.9 -159.4 -193.75 -160.15 -193.5 -160.4 -192.65 -161.0 -191.5 -161.0 -191.0 -161.15 -190.5 -160.65 -189.9 -160.4 -189.5 -159.9 -189.15 -159.65 -189.0 -159.25 -188.9 -159.25 -188.9 -159.0 M-205.25 25.25 L-203.9 24.1 -202.4 23.5 -198.75 23.5 -197.5 24.75 -197.0 26.1 -197.0 26.35 -197.15 26.5 -197.0 26.6 -197.0 27.0 -196.9 27.5 -197.0 27.6 -197.0 28.75 -197.15 29.0 -197.4 29.25 -197.75 30.35 -198.9 31.0 -199.0 31.35 -200.4 31.85 -201.65 32.0 -202.25 32.0 -203.15 31.5 -203.25 31.5 -203.65 31.25 -204.75 30.75 -205.0 30.5 -205.9 29.0 -206.25 27.35 -205.25 25.25 M-161.75 -13.0 L-156.75 -15.0 -152.15 -13.75 -152.0 -13.75 -151.65 -13.65 -151.5 -13.65 -148.25 -11.75 -148.15 -11.75 -145.65 -10.25 -144.0 -8.15 -143.9 -7.9 -141.75 -4.5 -142.4 -0.15 -142.4 0.1 -143.75 4.0 -143.9 4.0 -147.4 6.5 -150.0 7.75 -150.9 7.85 -154.15 7.85 -157.25 7.1 -157.9 7.0 -161.75 4.85 -162.25 4.35 -164.75 0.85 -165.0 -0.25 -165.9 -2.65 -166.25 -6.0 -166.4 -6.5 -166.4 -7.15 -164.4 -9.9 -164.15 -10.15 -163.9 -10.65 -163.65 -11.0 -163.5 -11.15 -162.65 -12.65 -161.9 -12.75 -161.75 -13.0 M-139.25 -32.25 L-138.65 -32.4 -137.15 -32.0 -137.0 -31.9 -135.75 -31.25 -135.5 -30.75 -134.5 -30.0 -134.4 -28.9 -134.4 -28.75 -134.25 -28.5 -134.25 -28.4 -134.75 -27.5 -134.75 -26.9 -135.15 -26.0 -136.25 -25.0 -137.25 -24.5 -138.25 -24.25 -139.25 -24.15 -140.75 -24.4 -142.4 -26.15 -142.5 -26.4 -142.65 -26.65 -142.65 -26.75 -142.75 -26.75 -142.9 -27.0 -143.0 -27.25 -143.15 -28.0 -143.0 -28.75 -143.0 -29.4 -142.15 -30.9 -141.75 -31.25 -140.25 -32.15 -139.25 -32.25 M-88.75 26.35 L-88.0 26.6 -87.65 26.6 -85.4 27.1 -84.4 28.0 -83.9 28.85 -83.65 29.1 -82.25 30.85 -82.25 31.0 -82.0 31.35 -81.9 32.35 -81.0 34.75 -81.65 37.0 -81.75 39.0 -82.4 40.5 -82.4 41.0 -83.65 41.5 -83.75 41.75 -85.25 43.35 -88.0 43.5 -88.4 43.25 -91.9 39.85 -92.4 38.35 -92.5 38.25 -92.75 37.75 -92.9 36.6 -93.25 35.5 -93.25 35.1 -93.4 34.75 -93.4 34.5 -93.65 34.1 -93.5 33.5 -93.15 31.0 -92.25 28.35 -90.25 27.25 -89.75 26.85 -89.4 26.75 -88.75 26.35 M-47.65 63.6 L-47.15 64.85 -47.65 66.0 -48.4 66.5 -48.4 66.85 -49.0 67.35 -49.15 67.5 -49.5 67.5 -50.15 68.0 -51.0 68.0 -52.4 67.5 -52.5 67.25 -53.25 66.1 -53.4 65.75 -53.0 63.6 -52.65 63.35 -52.65 63.1 -52.5 62.85 -51.75 62.1 -51.25 61.85 -50.4 61.75 -50.0 61.75 -48.75 62.0 -48.25 62.85 -47.65 63.5 -47.65 63.6 M-74.25 145.6 L-73.0 148.75 -73.0 148.85 -72.65 149.75 -72.5 150.0 -72.5 150.1 -72.0 151.0 -72.0 152.5 -72.75 155.35 -74.15 158.1 -76.9 160.5 -77.25 160.6 -80.9 162.0 -83.75 161.85 -84.4 161.75 -87.4 161.0 -89.25 159.6 -89.5 159.5 -90.0 159.0 -91.15 156.75 -91.25 156.6 -91.4 156.25 -92.0 153.35 -91.9 149.75 -89.9 147.1 -89.5 146.75 -87.15 144.0 -83.65 143.1 -83.4 143.0 -80.25 142.85 -78.65 143.1 -78.4 143.25 -77.75 143.35 -77.65 143.5 -76.65 143.6 -74.25 145.6 M56.25 172.0 L56.35 172.25 56.5 172.5 56.5 172.6 56.75 173.75 56.75 173.85 57.0 174.25 56.85 174.6 56.75 175.1 56.25 176.5 56.0 176.85 55.75 177.1 55.25 177.5 54.35 178.0 53.5 178.1 52.1 177.75 51.75 177.6 50.6 176.85 50.1 176.1 50.0 175.75 49.85 174.6 50.0 174.35 50.0 173.35 50.1 173.1 50.6 172.25 51.35 171.35 52.5 171.0 54.0 170.85 56.25 172.0 M169.6 180.0 L170.0 179.75 170.5 179.85 170.85 180.1 171.35 180.25 172.35 180.75 172.6 180.85 173.1 181.25 174.1 182.75 174.1 182.85 174.25 183.1 175.5 186.35 175.5 186.85 175.1 188.35 174.35 189.85 174.25 190.0 172.85 190.75 172.6 190.75 171.35 191.1 169.25 190.75 168.85 190.25 168.35 190.1 167.5 188.5 167.5 188.25 166.35 186.35 166.0 185.1 166.0 183.6 165.85 183.25 166.0 182.85 166.0 182.25 166.6 181.25 166.85 181.1 167.85 180.1 168.25 179.85 168.75 179.85 169.6 180.0" fill="#ffffff" fill-rule="evenodd" stroke="none"/>
  </g>
</svg>
