<?xml version="1.0" encoding="UTF-8" standalone="no"?>
<svg xmlns:xlink="http://www.w3.org/1999/xlink" height="550.75px" width="438.6px" xmlns="http://www.w3.org/2000/svg">
  <g transform="matrix(1.0, 0.0, 0.0, 1.0, 199.5, 354.65)">
    <path d="M170.35 -329.25 L171.1 -328.5 172.75 -327.75 173.6 -325.4 173.6 -324.9 173.85 -322.65 173.85 -322.25 173.75 -321.9 173.75 -321.65 173.35 -320.65 173.25 -320.5 173.1 -320.0 172.85 -319.65 172.25 -318.25 171.6 -318.0 171.6 -317.9 171.5 -317.75 169.35 -316.25 168.85 -316.0 167.0 -316.25 166.75 -316.25 165.75 -316.65 165.35 -316.75 164.85 -317.0 164.6 -317.25 163.85 -318.75 163.6 -319.4 163.25 -321.4 163.1 -321.75 163.1 -321.9 163.25 -323.4 163.25 -324.25 163.35 -324.5 163.85 -326.25 164.1 -326.65 166.25 -328.4 166.85 -328.75 169.35 -329.5 170.1 -329.25 170.35 -329.25 M121.25 -133.9 L122.0 -133.5 122.25 -133.4 122.35 -133.15 123.35 -131.5 123.35 -131.25 123.5 -130.75 123.35 -130.25 123.35 -129.9 123.25 -129.75 123.25 -129.5 123.1 -129.15 123.0 -128.75 122.6 -128.25 122.5 -128.0 122.25 -127.75 121.1 -127.0 120.75 -127.0 120.0 -126.9 119.1 -126.9 118.1 -127.5 117.5 -128.4 117.35 -128.5 117.35 -128.75 116.85 -130.0 116.85 -130.15 117.1 -131.25 117.5 -132.25 117.6 -132.75 118.35 -133.5 119.85 -133.9 120.1 -134.0 120.5 -133.9 121.25 -133.9 M238.5 9.75 L239.1 9.75 239.1 17.75 237.25 17.6 236.75 17.25 236.35 16.85 235.75 16.0 235.6 15.85 235.6 15.75 235.5 15.6 235.1 13.6 235.25 13.0 235.1 12.25 235.5 11.85 235.6 11.5 237.75 10.1 238.5 9.75 M-167.9 -354.65 L-167.5 -354.65 -166.0 -354.4 -163.65 -353.4 -162.5 -352.4 -162.4 -352.4 -162.0 -351.75 -161.9 -351.15 -161.9 -351.0 -161.75 -350.75 -161.5 -350.5 -161.4 -350.15 -161.4 -350.0 -161.15 -349.5 -161.15 -349.25 -160.9 -348.5 -161.0 -347.65 -161.65 -346.0 -161.9 -345.65 -162.0 -345.4 -162.4 -344.75 -162.65 -344.5 -164.75 -343.75 -166.25 -344.0 -168.25 -345.25 -168.4 -345.4 -169.25 -345.75 -170.15 -347.65 -170.4 -347.9 -170.5 -348.15 -170.5 -348.4 -170.9 -348.5 -171.15 -349.5 -171.15 -350.9 -169.0 -354.4 -168.15 -354.5 -167.9 -354.65 M-189.65 -147.15 L-189.4 -147.75 -189.25 -148.65 -189.0 -148.9 -188.4 -149.25 -188.25 -149.4 -187.75 -149.5 -187.15 -149.4 -186.5 -149.5 -186.15 -149.0 -185.4 -148.75 -185.0 -148.15 -184.75 -148.0 -184.5 -147.75 -184.5 -147.4 -184.4 -147.15 -184.4 -147.0 -184.25 -146.65 -184.25 -146.4 -183.9 -145.9 -184.15 -145.4 -184.15 -144.9 -184.5 -144.15 -184.75 -143.9 -184.9 -143.9 -185.4 -143.65 -186.15 -143.5 -187.0 -143.9 -187.9 -144.15 -189.15 -145.4 -189.25 -145.75 -189.25 -145.9 -189.65 -146.15 -189.65 -147.15 M-195.65 33.6 L-194.5 33.6 -193.9 33.75 -192.4 33.75 -191.25 34.85 -191.15 34.85 -191.0 35.1 -190.75 36.1 -190.75 36.6 -190.65 36.75 -190.5 37.6 -190.65 37.75 -190.65 38.75 -190.75 39.1 -191.0 39.35 -191.4 40.35 -192.5 41.1 -192.75 41.35 -192.9 41.35 -193.15 41.5 -193.9 41.85 -195.15 42.0 -195.65 42.0 -196.4 41.6 -196.5 41.6 -197.0 41.25 -197.65 41.0 -198.4 40.6 -199.15 39.25 -199.15 39.0 -199.5 37.5 -198.75 35.85 -198.65 35.5 -197.65 34.6 -197.25 34.35 -195.65 33.6 M-135.65 -19.5 L-135.0 -19.65 -134.0 -19.65 -133.25 -19.75 -132.75 -19.5 -132.65 -19.5 -132.4 -19.4 -132.15 -19.4 -131.9 -19.15 -131.15 -18.75 -130.0 -17.65 -129.75 -16.0 -130.25 -14.65 -130.25 -14.5 -130.65 -13.65 -132.5 -12.25 -132.5 -12.15 -132.9 -12.15 -133.25 -12.0 -134.5 -11.9 -136.0 -12.15 -137.65 -13.9 -137.75 -14.15 -137.75 -14.25 -137.9 -14.4 -138.15 -14.75 -138.25 -15.0 -138.25 -15.5 -138.5 -15.65 -138.15 -17.0 -137.4 -18.25 -137.15 -18.5 -135.65 -19.5 M-154.5 10.35 L-153.5 8.75 -152.5 8.0 -151.5 7.6 -151.4 7.6 -151.0 7.5 -148.0 6.35 -147.5 6.1 -142.65 7.35 -139.4 9.1 -139.25 9.1 -139.15 9.25 -139.0 9.35 -137.15 10.25 -135.65 12.35 -135.15 13.35 -133.4 15.75 -134.0 19.5 -134.0 19.85 -134.15 20.1 -134.15 20.25 -135.25 23.5 -135.5 23.75 -135.65 23.75 -141.15 27.35 -145.15 27.35 -148.0 26.75 -148.75 26.5 -151.9 24.85 -152.15 24.75 -152.75 24.25 -155.0 21.0 -155.25 19.85 -156.0 17.75 -156.5 14.1 -156.4 13.75 -155.25 11.5 -154.75 10.85 -154.75 10.75 -154.5 10.5 -154.5 10.35 M39.25 -150.75 L39.5 -150.9 41.1 -150.9 41.35 -150.75 42.1 -150.5 42.25 -150.4 42.35 -149.9 42.5 -149.75 42.5 -149.65 42.75 -149.25 43.1 -148.9 43.1 -147.75 42.85 -147.25 42.85 -147.15 42.5 -146.65 42.5 -146.5 42.0 -145.9 41.75 -145.65 41.25 -145.4 40.6 -144.9 39.6 -144.5 38.0 -144.9 37.75 -144.9 37.35 -145.15 37.1 -145.25 36.85 -146.15 36.85 -146.25 36.75 -147.25 37.0 -148.65 37.25 -149.0 38.35 -150.25 39.1 -150.75 39.25 -150.75 M-46.0 71.75 L-46.4 72.85 -47.4 73.6 -47.4 73.75 -47.75 74.25 -48.0 74.35 -48.4 74.35 -48.9 74.75 -50.15 74.75 -50.25 74.6 -51.0 74.35 -51.65 73.5 -51.65 73.35 -51.9 73.1 -52.0 72.85 -52.0 72.6 -51.9 71.85 -51.9 70.85 -51.75 70.5 -51.25 69.85 -50.4 69.0 -50.0 68.85 -49.75 68.85 -49.65 68.75 -48.75 68.75 -47.65 69.0 -47.4 69.1 -46.75 69.75 -46.0 71.75 M-76.5 151.0 L-76.0 151.1 -75.75 151.25 -75.15 151.35 -75.0 151.35 -73.4 151.85 -71.4 153.5 -71.25 153.75 -69.9 157.1 -69.75 157.35 -69.15 159.85 -69.0 160.0 -69.15 160.25 -69.0 160.25 -69.65 162.85 -71.15 165.75 -73.75 168.0 -74.15 168.1 -77.5 169.35 -80.4 169.35 -81.15 169.1 -83.75 168.5 -85.65 167.1 -85.9 167.0 -86.25 166.5 -87.4 164.5 -87.4 164.35 -87.5 164.25 -87.65 163.85 -88.15 161.25 -88.15 160.35 -88.4 160.0 -88.15 157.75 -86.25 155.1 -86.0 155.0 -83.5 152.1 -80.15 151.25 -77.0 151.0 -76.5 151.0 M50.0 176.0 L51.0 175.6 51.5 175.5 52.5 175.5 53.35 176.0 53.6 176.1 54.6 176.6 54.75 176.85 54.85 177.1 55.25 178.75 55.25 179.85 55.0 180.35 54.6 180.85 54.75 181.0 54.25 181.5 54.25 181.6 54.0 181.75 53.75 182.0 52.85 182.5 51.75 182.5 50.6 182.25 50.25 182.1 49.1 181.35 48.5 180.25 48.5 179.0 48.6 178.6 48.6 177.85 49.1 176.85 50.0 176.0 M-81.5 38.0 L-81.25 38.6 -80.65 39.25 -79.75 40.5 -79.75 40.6 -79.5 41.1 -78.5 44.25 -79.15 46.25 -79.15 47.25 -79.65 48.35 -79.75 50.25 -81.0 50.75 -81.15 51.0 -81.4 51.1 -82.65 52.6 -85.25 52.75 -85.65 52.5 -87.75 50.6 -87.9 50.5 -89.15 49.1 -89.5 47.85 -89.5 47.75 -89.65 47.5 -89.9 47.25 -90.0 46.1 -90.0 45.85 -90.4 44.75 -90.4 44.5 -90.5 44.25 -90.5 44.0 -90.75 43.75 -90.5 43.25 -90.25 40.75 -90.25 40.5 -90.15 40.1 -90.0 39.75 -89.9 39.35 -89.25 38.0 -87.5 37.0 -87.0 36.6 -86.65 36.5 -86.0 36.1 -85.25 36.35 -84.9 36.35 -82.65 36.85 -81.5 38.0 M188.85 43.75 L189.25 44.0 190.5 45.35 190.6 45.75 190.75 45.75 190.6 45.85 191.35 47.0 191.35 47.1 191.5 47.35 191.85 48.35 192.0 50.6 191.85 51.0 190.5 53.0 189.25 54.0 189.0 54.1 188.5 54.5 184.6 55.0 184.25 55.0 183.1 54.85 181.25 53.75 181.25 53.6 180.1 53.0 179.5 52.0 179.35 51.5 179.0 50.85 178.25 48.75 178.35 47.85 178.1 47.0 179.1 45.85 180.35 43.6 182.5 42.5 187.35 42.6 188.85 43.75 M164.85 185.35 L165.0 185.5 165.1 185.5 165.6 185.6 166.75 186.25 167.1 186.5 168.25 188.25 168.25 188.6 168.35 188.6 168.5 188.75 168.5 188.85 169.5 191.6 169.5 192.0 169.25 193.5 168.5 194.85 168.25 195.1 167.1 195.6 166.85 195.75 165.5 196.1 163.75 195.85 163.5 195.75 162.25 194.35 161.85 193.75 161.75 193.25 161.35 192.6 161.1 192.35 161.1 192.25 160.6 191.5 160.35 190.35 160.35 187.5 161.0 186.6 162.1 185.5 162.6 185.25 163.0 185.25 163.85 185.35 164.25 185.1 164.85 185.35" fill="#ffffff" fill-rule="evenodd" stroke="none"/>
  </g>
</svg>
