<?xml version="1.0" encoding="UTF-8" standalone="no"?>
<svg xmlns:xlink="http://www.w3.org/1999/xlink" height="543.75px" width="430.75px" xmlns="http://www.w3.org/2000/svg">
  <g transform="matrix(1.0, 0.0, 0.0, 1.0, 193.15, 342.75)">
    <path d="M167.25 -316.65 L167.35 -316.4 167.85 -316.25 169.35 -315.25 169.6 -315.0 170.35 -312.9 170.35 -312.4 170.6 -310.25 170.5 -309.65 170.6 -309.65 170.35 -309.5 170.5 -309.25 170.25 -308.5 170.1 -308.4 169.85 -307.9 169.85 -307.65 169.6 -307.25 169.6 -307.15 168.5 -305.65 168.25 -305.5 166.35 -304.0 164.6 -304.0 162.5 -304.5 161.85 -304.75 161.5 -305.15 160.75 -306.5 160.1 -309.0 160.1 -309.4 160.25 -311.15 160.25 -312.0 160.35 -312.4 160.5 -312.65 160.35 -313.15 161.1 -314.25 161.35 -314.5 163.6 -316.15 164.75 -316.65 166.6 -317.0 167.0 -316.65 167.25 -316.65 M114.0 -118.4 L114.0 -118.5 114.25 -119.75 114.75 -121.15 115.35 -121.75 115.85 -122.0 116.85 -122.25 117.25 -122.25 118.1 -122.15 118.75 -121.9 118.85 -121.9 119.25 -121.65 119.35 -121.4 120.0 -120.65 120.25 -119.9 120.35 -119.9 120.35 -119.4 120.25 -119.25 120.35 -118.4 120.25 -118.0 120.0 -117.9 120.0 -117.75 119.85 -117.5 119.85 -117.15 119.25 -116.25 118.1 -115.5 117.75 -115.5 117.1 -115.4 116.1 -115.5 115.35 -116.0 115.25 -116.0 115.0 -116.25 114.6 -116.9 114.35 -117.15 114.35 -117.4 114.0 -118.4 M236.25 19.6 L237.0 20.6 237.0 21.1 237.1 21.25 237.35 21.35 237.5 22.25 237.6 22.5 237.6 22.85 237.25 23.85 237.0 24.25 237.0 24.5 236.0 25.6 235.85 25.6 234.5 26.6 232.35 26.75 230.85 26.5 230.1 26.1 229.85 25.85 229.1 24.85 229.1 24.75 228.6 23.5 228.75 22.75 228.6 22.1 228.6 21.25 228.85 20.85 229.25 20.5 230.85 19.35 231.1 19.25 231.85 18.85 233.35 18.5 233.6 18.5 234.6 19.0 235.0 19.0 235.25 19.1 235.5 19.25 235.85 19.35 236.1 19.6 236.25 19.6 M-158.65 -338.4 L-158.75 -338.15 -158.65 -338.0 -158.4 -337.75 -158.4 -337.5 -158.25 -337.0 -158.25 -336.0 -159.0 -334.15 -159.4 -333.75 -159.25 -333.75 -159.5 -333.65 -159.65 -333.25 -159.9 -333.0 -160.15 -332.9 -160.25 -332.9 -161.5 -332.4 -161.75 -332.25 -162.15 -332.25 -163.5 -332.5 -164.15 -332.9 -164.4 -333.0 -165.4 -333.65 -165.65 -333.75 -166.4 -334.15 -167.25 -335.9 -167.65 -336.5 -168.25 -337.75 -168.15 -339.65 -166.5 -341.9 -166.4 -342.4 -165.15 -342.75 -163.15 -342.5 -162.9 -342.5 -161.15 -341.75 -160.75 -341.5 -159.5 -340.5 -159.25 -340.0 -159.25 -339.5 -159.15 -339.4 -159.15 -339.25 -159.0 -339.0 -158.9 -338.9 -158.9 -338.75 -158.65 -338.5 -158.65 -338.4 M-184.15 -138.0 L-183.9 -138.25 -183.0 -138.5 -182.15 -138.25 -181.9 -137.9 -181.25 -137.65 -180.75 -137.0 -180.4 -136.75 -180.4 -136.65 -180.25 -136.25 -180.25 -135.9 -180.0 -135.4 -180.0 -135.25 -179.75 -134.75 -180.0 -134.0 -180.0 -133.75 -180.5 -133.0 -180.5 -132.9 -180.65 -132.9 -181.4 -132.65 -181.9 -132.65 -181.9 -132.5 -183.75 -133.15 -184.25 -133.75 -184.65 -134.15 -184.75 -134.4 -184.75 -134.5 -184.9 -134.5 -185.0 -134.75 -185.0 -134.9 -185.4 -135.0 -185.25 -135.4 -185.25 -136.0 -185.15 -136.4 -185.15 -136.75 -184.9 -137.5 -184.15 -138.0 M-128.4 -7.65 L-128.15 -7.5 -127.9 -7.5 -126.75 -6.75 -126.5 -6.4 -125.65 -5.75 -125.5 -4.25 -125.9 -3.15 -125.9 -2.75 -126.15 -2.5 -126.25 -1.9 -126.4 -1.9 -128.0 -0.5 -128.4 -0.5 -129.0 -0.25 -130.15 -0.15 -131.15 -0.4 -131.5 -0.4 -132.4 -1.25 -133.0 -2.0 -133.15 -2.25 -133.15 -2.4 -133.4 -2.65 -133.5 -2.9 -133.65 -3.15 -133.75 -3.75 -133.65 -4.4 -133.65 -5.0 -133.4 -5.65 -133.25 -5.9 -131.9 -7.15 -130.4 -7.75 -129.4 -7.9 -128.65 -7.75 -128.4 -7.65 M-139.15 26.0 L-138.65 26.0 -134.4 27.0 -133.4 27.35 -133.15 27.5 -132.9 27.6 -132.65 27.75 -132.4 27.85 -131.5 28.35 -131.25 28.6 -131.0 28.6 -130.4 29.0 -130.25 29.0 -130.0 29.1 -129.75 29.25 -129.15 29.5 -127.75 31.6 -127.5 31.85 -125.75 34.6 -126.25 38.75 -126.4 39.0 -126.4 39.1 -127.5 42.0 -127.75 42.25 -127.9 42.25 -132.4 45.35 -132.9 45.5 -132.9 45.6 -133.15 45.75 -136.75 45.75 -140.0 45.0 -142.9 43.5 -143.0 43.5 -143.25 43.35 -143.75 42.85 -145.9 39.85 -146.0 39.1 -146.9 36.75 -147.15 33.85 -147.15 33.1 -146.4 31.75 -146.5 31.6 -146.4 31.0 -145.0 29.1 -145.0 29.0 -144.0 27.6 -141.4 26.85 -141.25 26.75 -140.65 26.5 -140.5 26.5 -140.0 26.25 -139.75 26.25 -139.15 26.0 M38.1 -139.4 L38.6 -139.5 40.35 -139.5 41.0 -139.25 41.1 -139.15 41.35 -138.75 41.5 -138.25 42.1 -137.65 42.1 -136.5 41.75 -135.75 41.75 -135.65 41.5 -135.5 41.5 -135.4 41.35 -135.15 40.5 -134.4 40.35 -134.15 40.25 -134.15 39.75 -133.75 38.75 -133.4 38.5 -133.25 37.85 -133.5 37.75 -133.5 37.6 -133.65 37.5 -133.65 37.0 -133.75 36.85 -133.75 36.25 -134.15 36.0 -134.9 36.0 -135.0 35.85 -135.4 35.85 -136.15 36.0 -136.5 36.25 -137.4 36.5 -137.9 37.0 -138.25 37.5 -138.75 37.75 -139.15 38.1 -139.4 M-77.0 50.6 L-76.0 53.75 -76.5 55.6 -76.4 56.1 -76.65 56.25 -76.65 56.5 -77.25 59.1 -77.5 59.75 -78.4 60.1 -78.75 60.35 -78.9 60.5 -80.0 61.85 -82.4 62.0 -82.9 61.85 -84.9 60.0 -85.15 59.6 -86.25 58.5 -86.5 57.6 -86.65 57.35 -87.0 56.6 -87.25 55.75 -87.15 55.6 -87.15 55.35 -87.5 54.75 -87.5 53.85 -87.65 53.6 -87.65 51.6 -87.5 51.6 -87.5 50.35 -87.25 50.0 -87.15 49.5 -87.0 49.1 -87.0 48.75 -86.4 47.75 -84.65 46.75 -84.15 46.35 -83.9 46.25 -83.25 45.85 -82.65 46.25 -82.25 46.1 -82.0 46.25 -80.15 46.6 -78.75 47.85 -78.65 48.35 -78.5 48.5 -77.15 50.25 -77.15 50.35 -77.0 50.6 M-48.65 75.5 L-47.25 75.5 -46.4 75.6 -45.65 76.35 -45.25 77.35 -45.15 77.5 -44.9 78.35 -45.25 79.5 -46.75 80.75 -47.0 80.85 -47.65 81.25 -48.5 81.35 -48.9 81.25 -49.0 81.25 -49.75 80.85 -50.0 80.6 -50.4 80.1 -50.5 79.75 -50.75 79.25 -50.65 78.35 -50.65 77.35 -50.25 77.1 -50.25 77.0 -50.15 76.75 -50.0 76.6 -49.9 76.35 -49.75 76.25 -49.25 75.75 -48.75 75.6 -48.65 75.5 M-73.75 159.0 L-73.0 159.1 -72.65 159.25 -72.5 159.25 -70.0 159.75 -68.15 161.75 -66.9 164.85 -66.9 165.0 -66.0 166.85 -66.25 168.0 -66.15 168.0 -66.75 170.5 -68.15 173.25 -70.65 175.35 -74.25 176.75 -76.9 176.75 -80.25 175.85 -81.9 174.6 -82.15 174.5 -82.65 174.0 -83.65 172.0 -83.75 171.75 -83.9 171.5 -84.4 169.0 -84.4 168.1 -84.65 167.6 -84.5 167.35 -84.4 165.5 -82.65 163.1 -82.5 163.0 -80.0 160.1 -76.5 159.25 -75.9 159.25 -73.75 159.0 M47.25 182.35 L47.35 182.1 47.75 181.35 48.6 180.5 49.6 180.1 50.0 180.0 51.0 180.0 52.0 180.5 52.25 180.6 53.1 181.1 53.25 181.35 53.35 181.6 53.6 182.75 53.6 183.0 53.85 183.25 53.6 184.0 53.5 184.75 53.5 185.0 53.25 185.1 53.1 185.35 53.0 185.6 52.6 186.0 52.0 186.35 51.5 186.75 50.5 186.85 49.85 186.6 49.35 186.6 49.0 186.5 48.85 186.5 48.25 186.0 47.85 185.75 47.1 184.6 47.1 183.5 47.25 183.35 47.25 182.35 M-185.15 44.6 L-184.65 45.85 -184.65 46.35 -184.5 46.6 -184.5 47.0 -184.65 47.75 -184.5 47.75 -184.75 48.5 -184.75 48.6 -184.9 48.85 -185.15 50.0 -186.4 50.6 -186.4 50.75 -187.15 51.1 -187.25 51.1 -187.75 51.35 -188.75 51.5 -189.4 51.5 -190.25 51.1 -190.65 50.85 -191.5 50.5 -191.9 50.25 -192.65 49.1 -192.75 48.85 -192.75 48.75 -193.15 47.25 -192.25 45.25 -191.4 44.5 -190.65 44.0 -189.15 43.35 -187.65 43.5 -187.15 43.5 -186.15 43.75 -185.15 44.6 M172.6 56.25 L173.85 54.1 175.85 53.1 176.75 52.85 177.0 53.0 177.75 53.1 181.1 53.25 182.1 54.25 182.25 54.35 183.5 55.75 183.6 55.75 183.75 56.1 183.85 56.1 183.75 56.25 184.5 57.35 184.5 57.5 184.6 57.75 184.75 58.0 185.0 58.75 184.85 59.0 185.1 59.25 185.1 61.0 184.85 61.5 183.75 63.1 182.35 64.25 181.25 64.75 178.35 65.1 177.5 65.1 176.0 64.6 175.35 64.25 174.5 63.6 173.75 63.25 173.1 62.25 173.0 61.85 172.6 61.1 172.5 61.0 171.85 59.0 172.0 58.25 171.75 57.35 172.6 56.25 M156.75 190.6 L158.35 190.25 158.6 190.25 159.0 190.35 159.25 190.5 159.35 190.5 160.25 190.75 160.85 191.25 161.0 191.25 161.75 192.0 161.85 192.25 162.5 193.1 162.6 193.5 162.6 193.6 162.75 193.85 162.85 193.85 162.75 194.0 162.85 194.1 163.75 196.5 163.75 197.0 163.5 198.35 162.75 199.85 162.6 200.0 162.5 200.0 161.5 200.5 161.1 200.6 160.0 201.0 158.0 200.6 156.5 198.75 156.35 198.25 156.25 198.1 156.0 197.6 155.35 196.6 155.35 196.25 155.0 195.5 155.0 195.1 154.85 194.6 155.1 193.5 155.0 193.25 155.5 191.85 155.5 191.75 156.75 190.6" fill="#ffffff" fill-rule="evenodd" stroke="none"/>
  </g>
</svg>
