<?xml version="1.0" encoding="UTF-8" standalone="no"?>
<svg xmlns:xlink="http://www.w3.org/1999/xlink" height="508.5px" width="452.1px" xmlns="http://www.w3.org/2000/svg">
  <g transform="matrix(1.0, 0.0, 0.0, 1.0, 240.0, 290.4)">
    <path d="M155.25 -256.25 L155.5 -255.4 155.75 -253.0 155.6 -252.9 155.5 -252.75 155.6 -252.5 155.5 -252.15 155.35 -251.9 155.25 -251.5 155.1 -251.4 155.0 -251.0 154.85 -250.75 154.6 -250.5 154.6 -250.4 154.0 -249.65 153.6 -249.25 151.85 -248.0 149.35 -248.25 147.6 -248.9 147.5 -249.25 146.6 -251.0 146.35 -252.25 146.35 -252.4 146.25 -252.65 146.25 -255.0 146.6 -256.0 146.6 -256.4 146.85 -256.9 147.0 -257.0 147.1 -257.25 148.85 -258.5 149.1 -258.65 150.5 -259.25 151.75 -259.5 152.6 -259.15 153.5 -258.5 153.75 -258.4 154.0 -258.15 154.25 -258.0 154.5 -257.9 154.75 -257.5 154.75 -257.15 155.25 -256.4 155.25 -256.25 M103.85 -77.5 L104.35 -78.0 104.85 -78.25 106.0 -78.5 106.85 -78.15 107.6 -78.0 107.75 -78.0 107.85 -77.9 108.0 -77.65 108.6 -77.0 108.6 -76.65 108.85 -76.25 108.85 -76.15 109.0 -75.5 108.75 -75.25 108.85 -74.9 108.75 -74.75 108.75 -74.65 108.5 -74.4 108.5 -74.25 108.6 -74.0 108.1 -73.65 108.1 -73.4 107.85 -73.15 107.1 -72.65 105.85 -72.5 105.85 -72.4 105.1 -72.5 104.6 -72.9 104.35 -73.0 104.25 -73.15 103.5 -74.0 103.35 -74.25 103.1 -75.0 103.1 -75.15 103.35 -75.65 103.35 -76.25 103.85 -77.5 M-155.4 -287.75 L-154.9 -288.25 -153.75 -289.75 -153.65 -290.15 -152.5 -290.4 -150.75 -290.4 -150.5 -290.25 -149.0 -289.75 -147.5 -288.65 -147.4 -288.65 -147.15 -287.75 -147.15 -287.65 -147.0 -287.5 -146.9 -287.25 -146.9 -287.15 -146.65 -286.75 -146.4 -286.15 -146.4 -285.9 -146.25 -285.25 -146.25 -284.75 -146.9 -283.4 -147.0 -283.0 -147.15 -282.9 -147.25 -282.65 -148.0 -281.9 -148.25 -281.9 -148.5 -281.75 -148.75 -281.65 -148.9 -281.65 -149.25 -281.5 -149.4 -281.4 -150.25 -281.4 -151.15 -281.65 -151.25 -281.65 -151.4 -281.75 -152.65 -282.25 -152.75 -282.25 -153.0 -282.5 -154.15 -283.15 -154.25 -283.65 -154.9 -285.15 -155.0 -285.15 -155.5 -285.65 -155.4 -286.25 -155.4 -287.75 M-230.15 -271.5 L-228.4 -271.9 -228.0 -271.9 -226.65 -272.15 -224.9 -271.75 -223.25 -270.25 -223.15 -270.0 -222.5 -269.0 -222.4 -268.9 -222.4 -268.75 -222.25 -268.25 -222.15 -266.5 -222.65 -265.25 -222.9 -264.9 -223.75 -264.0 -223.75 -263.9 -223.9 -263.75 -224.15 -263.75 -224.4 -263.65 -224.5 -263.65 -225.25 -263.25 -227.4 -263.25 -227.65 -263.4 -229.25 -263.75 -230.15 -264.65 -230.25 -264.65 -230.4 -264.75 -230.65 -265.0 -231.75 -266.65 -231.75 -268.4 -231.4 -269.75 -231.15 -270.15 -231.15 -270.25 -230.15 -271.5 M-169.15 -96.25 L-168.9 -96.65 -168.25 -97.15 -168.15 -97.15 -167.15 -97.4 -166.65 -97.25 -166.15 -96.9 -166.0 -96.9 -165.65 -96.5 -165.5 -96.5 -165.0 -96.0 -165.15 -95.75 -164.9 -95.4 -164.75 -95.4 -164.75 -95.0 -164.65 -95.0 -164.65 -94.65 -164.5 -94.65 -164.5 -94.25 -164.4 -94.0 -164.5 -93.5 -164.65 -93.15 -164.75 -92.75 -165.0 -92.5 -165.5 -92.4 -165.9 -92.15 -166.65 -92.15 -167.15 -92.25 -167.9 -92.5 -168.4 -93.0 -168.4 -93.15 -168.65 -93.25 -168.75 -93.4 -168.9 -93.5 -168.9 -93.65 -169.15 -94.0 -169.15 -94.15 -169.25 -94.25 -169.4 -95.0 -169.4 -95.4 -169.15 -95.65 -169.15 -96.25 M-113.75 34.25 L-113.4 34.25 -113.15 34.35 -113.0 34.35 -112.4 34.6 -111.9 35.0 -111.4 35.25 -110.5 36.1 -110.65 37.0 -110.4 37.35 -110.75 38.25 -110.75 38.85 -111.0 39.35 -112.5 40.75 -112.9 40.75 -114.0 40.85 -114.4 41.0 -115.65 40.75 -116.4 40.0 -117.0 39.1 -117.15 39.0 -117.25 38.75 -117.4 38.1 -117.65 37.85 -117.4 37.25 -117.5 36.75 -117.4 36.5 -117.15 36.1 -117.0 36.0 -116.65 35.5 -115.9 34.85 -115.15 34.5 -114.65 34.35 -113.75 34.25 M32.75 -94.9 L33.0 -95.65 33.25 -96.15 33.6 -96.65 34.0 -97.0 34.6 -97.4 35.25 -97.5 35.5 -97.65 36.6 -97.65 37.35 -97.4 37.6 -97.15 37.75 -96.75 37.85 -96.75 38.35 -95.9 38.35 -95.25 38.1 -94.9 38.25 -94.65 37.85 -94.25 37.85 -94.0 37.75 -93.9 37.6 -93.65 36.6 -92.75 35.25 -92.15 34.0 -92.5 33.75 -92.5 33.0 -92.9 32.75 -93.5 32.75 -94.9 M-73.75 84.1 L-73.4 84.0 -72.5 83.5 -72.25 83.6 -72.0 83.85 -71.5 84.0 -69.75 84.25 -69.25 84.75 -67.9 86.25 -67.25 87.5 -67.25 87.6 -67.15 88.0 -66.25 90.5 -66.4 90.75 -66.75 92.0 -66.65 92.35 -66.9 92.85 -66.75 93.0 -67.0 93.6 -67.0 93.75 -67.4 95.25 -68.65 96.35 -69.75 97.6 -72.0 97.85 -74.15 95.85 -75.15 94.6 -75.25 94.25 -75.4 94.0 -75.4 93.85 -75.5 93.85 -75.9 93.1 -76.0 92.35 -76.0 92.1 -76.15 91.75 -76.4 90.75 -76.4 90.25 -76.5 89.25 -76.4 87.75 -76.0 86.1 -75.75 85.85 -75.5 85.35 -73.75 84.1 M-41.9 100.5 L-41.65 100.6 -41.65 100.75 -41.0 101.75 -40.75 102.35 -41.25 103.5 -41.9 104.0 -41.75 104.1 -42.25 104.5 -42.4 104.6 -43.75 105.1 -44.25 105.1 -44.65 105.0 -45.4 104.5 -45.75 104.0 -45.75 103.85 -46.0 103.6 -46.15 103.25 -46.0 102.5 -46.0 102.35 -45.9 101.35 -45.4 100.6 -44.65 99.85 -44.15 99.75 -42.9 99.75 -42.15 100.0 -41.9 100.5 M-55.75 194.35 L-55.4 196.0 -55.25 196.1 -55.5 196.5 -56.0 198.6 -56.75 200.1 -57.65 201.25 -59.0 202.35 -59.75 202.75 -59.9 202.75 -62.15 203.6 -64.15 203.75 -67.15 202.85 -68.15 202.1 -68.4 202.0 -69.0 201.5 -69.9 199.85 -70.0 199.6 -70.15 199.35 -70.65 196.6 -70.5 194.25 -69.5 192.75 -69.15 192.1 -68.5 191.85 -67.0 189.75 -64.0 189.0 -61.65 188.75 -61.15 188.75 -58.75 189.1 -57.25 190.75 -55.75 194.35 M42.35 198.1 L42.85 197.35 43.6 196.6 44.5 196.25 44.75 196.1 45.85 196.25 46.5 196.6 46.6 196.6 46.75 196.75 47.75 197.25 47.75 197.35 47.85 197.6 48.1 198.85 48.1 199.5 48.25 199.6 48.1 200.35 48.1 200.5 47.6 201.1 47.35 201.5 47.1 201.75 46.75 201.75 46.25 202.25 45.0 202.35 44.6 202.25 44.35 202.25 44.1 202.1 43.75 202.0 42.6 201.0 42.25 200.35 42.25 199.35 42.35 199.0 42.35 198.1 M-100.65 96.75 L-99.75 97.75 -99.9 98.6 -100.15 101.6 -101.4 104.1 -102.9 105.0 -103.15 105.35 -103.4 105.5 -105.15 107.0 -108.25 107.1 -110.15 106.75 -110.65 106.6 -110.9 106.6 -111.15 106.5 -113.65 105.25 -115.15 103.1 -116.0 100.6 -116.25 100.25 -116.25 97.85 -116.0 96.85 -116.0 95.5 -114.0 92.75 -111.5 92.0 -110.65 91.85 -110.15 91.85 -106.25 92.35 -105.65 92.5 -102.9 93.85 -102.4 94.0 -101.5 95.35 -100.65 96.75 M-170.15 81.35 L-169.5 80.0 -168.9 79.35 -168.5 79.1 -168.25 79.0 -167.15 78.35 -164.25 78.35 -163.25 79.35 -163.15 79.6 -162.9 80.5 -162.75 81.5 -162.65 81.75 -162.75 82.6 -162.9 82.85 -163.0 83.1 -162.9 83.1 -163.15 83.25 -163.15 83.5 -163.4 84.1 -165.5 85.25 -165.75 85.25 -165.75 85.35 -167.0 85.5 -167.9 85.1 -168.0 85.0 -169.25 84.35 -169.9 83.35 -170.0 83.1 -170.4 81.75 -170.15 81.35 M-221.4 123.0 L-220.0 122.5 -218.5 122.6 -218.15 122.75 -216.4 124.6 -216.4 124.75 -215.9 126.6 -216.0 126.85 -216.0 127.0 -216.75 129.25 -217.9 130.25 -217.9 130.35 -218.0 130.35 -218.75 130.85 -219.15 130.85 -219.4 131.1 -219.5 131.25 -219.75 131.25 -220.9 131.5 -222.25 131.1 -222.9 130.75 -223.15 130.5 -224.0 129.35 -224.25 128.85 -224.4 128.35 -224.4 127.85 -224.65 127.1 -224.15 125.1 -223.4 124.35 -223.0 123.85 -221.9 123.1 -221.4 123.0 M-239.5 156.0 L-238.5 156.0 -237.5 156.6 -237.4 157.0 -236.5 158.0 -236.0 158.75 -236.0 158.85 -235.9 159.1 -236.25 159.85 -236.4 160.1 -236.65 160.25 -236.75 160.75 -236.75 160.85 -236.9 161.0 -236.9 161.5 -238.15 162.35 -239.25 162.6 -240.0 162.35 -239.9 161.75 -240.0 160.85 -239.9 160.5 -240.0 159.85 -240.0 156.1 -239.5 156.0 M210.75 53.85 L211.35 54.5 211.5 54.75 211.5 54.85 211.6 55.25 212.0 56.1 212.1 56.1 212.1 56.5 212.0 56.75 212.1 56.75 211.85 57.6 211.85 57.75 211.6 57.85 211.75 58.0 211.6 58.1 211.1 58.85 209.5 60.1 207.1 60.1 206.0 59.85 205.35 59.35 204.85 58.85 204.75 58.5 204.6 58.25 204.5 57.6 204.25 57.1 204.1 56.5 204.1 56.0 204.5 55.0 204.6 54.6 207.1 53.0 208.5 52.75 210.5 53.6 210.6 53.75 210.75 53.85 M155.75 91.25 L156.6 91.25 157.5 91.85 158.75 93.0 158.75 93.25 159.6 94.25 160.0 95.35 160.0 95.5 160.25 96.25 160.35 98.25 159.1 100.1 158.0 101.0 157.75 101.1 155.75 101.5 155.5 101.5 155.1 101.6 154.1 101.75 153.6 101.75 152.0 101.0 150.6 100.0 150.35 99.75 149.6 98.35 149.5 98.1 149.35 97.25 149.0 96.25 149.1 94.5 149.6 94.0 150.85 91.85 152.5 91.0 153.35 90.85 154.75 91.1 155.0 91.1 155.75 91.25 M138.75 208.6 L139.1 208.6 139.35 208.75 139.75 208.85 140.1 209.0 140.25 209.0 141.35 209.85 141.6 210.1 142.25 211.1 142.25 211.35 142.5 212.1 142.6 212.25 142.6 212.35 142.85 212.75 142.85 212.85 143.1 213.25 143.35 214.0 143.35 214.6 143.1 215.75 142.5 217.0 142.35 217.1 142.25 217.25 141.25 217.75 141.1 217.75 140.85 217.85 140.75 217.85 140.0 218.1 138.35 217.75 137.35 216.6 137.25 216.35 137.25 216.25 137.1 216.1 137.0 215.85 136.85 215.6 136.75 215.35 136.6 215.1 136.5 214.85 136.35 214.6 136.35 214.5 136.25 214.35 136.25 214.25 136.1 214.0 136.0 213.75 135.85 213.5 136.0 213.1 135.75 212.85 135.75 211.75 135.85 211.5 135.85 210.6 136.5 209.75 137.25 209.0 137.6 208.75 138.0 208.75 138.75 208.6" fill="#ffffff" fill-rule="evenodd" stroke="none"/>
  </g>
</svg>
