<?xml version="1.0" encoding="UTF-8" standalone="no"?>
<svg xmlns:xlink="http://www.w3.org/1999/xlink" height="581.85px" width="442.9px" xmlns="http://www.w3.org/2000/svg">
  <g transform="matrix(1.0, 0.0, 0.0, 1.0, 236.65, 360.0)">
    <path d="M95.5 -355.0 L96.5 -354.5 97.0 -354.0 97.0 -353.65 97.1 -353.65 97.25 -353.5 97.1 -353.25 97.35 -353.25 97.35 -353.0 97.5 -353.0 97.75 -352.4 97.5 -352.0 97.35 -351.15 97.35 -351.0 97.5 -350.9 97.25 -349.9 97.0 -349.25 96.25 -348.25 95.35 -347.5 95.1 -347.25 94.85 -347.25 94.6 -347.15 93.6 -347.15 92.6 -347.4 91.6 -348.4 91.1 -350.15 91.0 -350.9 92.25 -353.75 92.6 -354.15 93.35 -354.65 94.35 -355.0 95.5 -355.0 M150.25 -242.75 L150.75 -242.15 150.85 -242.15 150.75 -242.0 150.85 -241.9 151.35 -241.0 151.35 -240.75 151.5 -240.5 151.5 -240.15 151.75 -237.9 151.5 -237.5 151.6 -237.4 151.5 -237.0 151.35 -236.65 151.25 -236.5 150.85 -235.75 150.6 -235.4 150.6 -235.25 150.25 -234.9 149.85 -234.65 149.85 -234.4 149.75 -234.25 149.6 -234.25 148.0 -233.15 146.1 -233.25 143.85 -234.0 143.75 -234.5 143.25 -235.25 142.6 -237.4 142.6 -240.25 143.1 -241.75 143.5 -242.15 145.35 -243.4 146.75 -244.0 147.85 -244.25 148.35 -244.15 148.75 -243.9 149.75 -243.15 150.0 -243.0 150.25 -242.75 M103.1 -68.25 L104.35 -68.25 105.0 -67.9 105.25 -67.65 105.85 -66.75 106.0 -66.75 105.85 -66.65 106.1 -66.25 106.25 -66.15 106.25 -65.75 106.1 -65.65 106.25 -64.9 106.0 -64.65 105.85 -64.4 105.85 -63.9 105.5 -63.65 105.5 -63.4 105.25 -63.15 104.35 -62.65 103.5 -62.5 103.1 -62.5 102.5 -62.65 102.1 -62.9 101.85 -63.0 101.75 -63.15 101.1 -63.9 100.75 -64.5 100.75 -64.75 100.6 -65.0 100.6 -65.25 100.85 -65.65 100.85 -66.15 101.1 -66.9 101.35 -67.4 101.85 -68.0 102.25 -68.15 103.1 -68.25 M39.1 -359.65 L39.1 -359.5 38.85 -358.4 38.0 -357.15 37.5 -356.65 36.85 -356.4 36.75 -356.15 36.5 -355.9 35.35 -355.4 35.1 -355.25 34.5 -355.15 32.5 -355.15 32.0 -355.25 30.35 -355.75 29.75 -356.25 29.5 -356.5 29.1 -357.15 28.6 -357.65 28.6 -358.75 28.5 -359.5 28.5 -359.9 30.0 -360.0 36.25 -359.9 37.5 -360.0 37.75 -359.9 38.85 -360.0 39.1 -359.65 M-143.9 -273.9 L-143.75 -273.75 -143.65 -273.5 -143.65 -273.4 -143.5 -273.25 -143.5 -272.75 -143.25 -272.5 -143.15 -271.75 -143.5 -271.15 -143.75 -270.25 -143.65 -270.25 -143.75 -269.9 -143.9 -269.75 -144.0 -269.4 -144.75 -268.65 -145.0 -268.5 -145.15 -268.5 Q-145.5 -268.3 -145.9 -268.15 L-146.5 -268.0 -146.9 -268.0 -148.5 -268.5 -149.4 -268.9 -149.5 -268.9 -150.75 -269.65 -150.9 -270.25 -151.15 -270.75 -151.65 -271.5 -151.65 -271.65 -152.15 -272.5 -152.0 -273.5 -152.0 -274.15 -151.5 -274.65 -150.4 -276.15 -150.25 -276.5 -149.25 -276.65 -149.0 -276.75 -145.75 -276.15 -145.5 -276.0 -144.25 -275.0 -144.0 -274.65 -144.0 -274.15 -143.9 -274.0 -143.9 -273.9 M-216.4 -251.9 L-216.25 -250.9 -216.25 -249.65 -216.65 -248.9 -216.5 -248.75 -217.15 -248.4 -217.0 -248.15 -217.65 -247.75 -218.25 -247.15 -218.65 -247.15 -219.0 -246.9 -219.4 -246.9 -219.9 -246.75 -221.15 -246.75 -222.9 -247.15 -223.75 -248.0 -224.0 -248.15 -225.15 -249.5 -225.4 -250.65 -225.4 -251.65 -225.25 -252.75 -224.65 -253.4 -224.25 -254.15 -223.75 -254.65 -222.15 -255.0 -220.4 -255.15 -218.65 -254.9 -217.5 -253.9 -217.15 -253.5 -216.5 -252.4 -216.25 -252.15 -216.4 -251.9 M-163.0 -87.9 L-161.9 -87.15 -161.75 -86.75 -161.65 -86.9 -161.4 -86.65 -161.25 -86.4 -161.25 -85.9 -161.15 -85.65 -161.15 -85.5 -161.0 -85.25 -161.0 -85.0 -160.9 -85.0 -160.75 -84.75 -161.25 -84.4 -161.0 -83.9 -161.4 -83.25 -161.9 -83.15 -162.5 -82.9 -163.0 -82.9 -164.25 -83.15 -164.5 -83.5 -165.4 -84.4 -165.5 -84.75 -165.65 -84.75 -165.75 -85.65 -165.75 -86.0 -165.5 -86.25 -165.5 -86.9 -165.25 -87.25 -164.65 -87.75 -164.5 -87.75 -163.5 -88.0 -163.0 -87.9 M35.5 -88.15 L36.5 -87.75 36.6 -87.65 36.85 -87.15 37.0 -87.15 37.25 -86.9 37.35 -86.65 37.25 -86.25 37.35 -85.5 37.25 -85.25 37.25 -85.15 37.1 -85.0 37.1 -84.9 37.0 -84.75 37.0 -84.4 36.1 -83.5 35.85 -83.4 35.85 -83.25 35.75 -83.25 34.35 -82.65 33.0 -83.15 32.85 -83.15 32.35 -83.4 32.0 -84.0 32.0 -84.4 32.1 -84.75 32.1 -85.4 32.35 -86.4 33.5 -87.65 34.0 -87.9 34.6 -87.9 35.5 -88.15 M-43.65 105.35 L-43.15 105.35 -42.4 105.25 -42.25 105.25 -41.15 105.5 -40.9 106.0 -40.75 106.1 -40.15 107.0 -40.0 107.6 -39.9 107.85 -40.25 108.85 -40.9 109.35 -41.0 109.6 -41.4 110.0 -41.65 110.1 -42.25 110.5 -43.4 110.5 -44.15 110.1 -44.4 109.85 -44.5 109.6 -44.65 109.35 -45.0 108.6 -44.9 107.85 -44.9 106.85 -44.4 106.25 -44.4 106.1 -43.65 105.35 M-65.0 96.25 L-64.0 99.1 -64.5 100.6 -64.4 101.1 -64.65 101.35 -64.5 101.35 -64.65 101.85 -64.65 102.0 -64.75 102.5 -64.9 102.6 -65.9 104.35 -66.25 104.6 -66.4 104.85 -67.4 106.0 -69.25 106.1 -69.75 106.0 -71.65 104.25 -71.9 103.85 -72.65 103.1 -72.75 102.6 -72.75 102.5 -73.15 102.0 -73.4 100.85 -73.4 100.75 -73.75 99.35 -73.75 98.85 -73.9 97.85 -73.75 96.35 -73.25 94.85 -73.25 94.75 -73.15 94.5 -72.9 94.1 -72.0 93.35 -71.65 93.25 -71.25 92.85 -71.15 92.85 -69.9 92.35 -69.15 92.75 -67.4 93.1 -66.4 94.1 -65.9 94.75 -65.65 94.85 -65.0 96.1 -65.0 96.25 M-53.0 202.85 L-54.5 206.85 -54.75 207.0 -56.4 208.35 -57.0 208.75 -57.15 208.75 -59.4 209.6 -61.15 209.75 -61.5 209.75 -64.15 209.0 -66.0 207.5 -67.15 205.25 -67.5 203.1 -67.5 200.75 -66.5 199.25 -66.15 198.6 -65.5 198.35 -64.15 196.35 -61.5 195.75 -61.25 195.6 -59.0 195.35 -58.4 195.35 -56.15 195.75 -54.65 197.5 -53.75 199.75 -53.65 200.25 -53.15 201.85 -53.0 202.1 -53.15 202.85 -53.0 202.85 M42.5 200.25 L43.35 199.85 44.5 199.85 45.35 200.25 45.85 200.6 46.5 200.85 46.5 201.0 46.75 201.75 46.85 202.35 46.85 202.85 47.0 203.0 47.0 203.25 46.6 204.1 46.35 204.5 46.25 204.85 46.0 205.1 44.85 205.85 43.75 205.85 43.5 205.75 43.25 205.75 43.0 205.6 42.6 205.5 41.5 204.5 41.1 203.85 41.1 202.85 41.25 202.0 41.25 201.85 41.75 201.0 42.5 200.25 M-107.65 47.85 L-107.65 48.5 -108.15 48.6 -108.5 49.25 -109.0 49.75 -109.25 49.85 -110.15 49.85 -110.75 50.0 -112.0 49.85 -112.75 49.25 -113.5 48.25 -113.65 48.1 -113.65 48.0 -113.75 47.5 -113.75 47.35 -113.9 47.25 -114.15 47.0 -113.9 46.6 -113.9 46.5 -114.0 46.0 -113.9 45.85 -113.9 45.75 -113.5 45.35 -113.25 44.85 -113.15 44.75 -112.4 44.1 -111.9 43.75 -111.5 43.6 -110.25 43.5 -109.9 43.5 -109.5 43.6 Q-109.3 43.7 -109.15 43.75 L-107.15 45.25 -107.25 46.25 -107.25 46.6 -107.4 47.35 -107.65 47.85 M-158.0 88.1 L-157.9 89.1 -157.9 89.5 -158.0 90.1 -158.15 90.5 -158.4 90.85 -158.4 91.0 -158.5 91.6 -159.5 92.35 -159.75 92.5 -160.25 92.6 -160.75 92.85 -161.25 92.85 -162.15 93.0 -162.9 92.6 -163.0 92.6 -163.25 92.5 -164.25 92.0 -164.9 91.0 -164.9 90.75 -165.25 89.5 -165.0 89.0 -164.5 87.6 -163.75 87.1 -163.5 86.85 -163.25 86.75 -162.15 86.1 -160.65 86.0 -159.75 86.1 -159.4 86.1 -158.4 87.1 -158.0 88.1 M-95.4 109.75 L-94.25 111.1 -94.65 114.0 -94.65 114.35 -95.75 116.85 -95.9 116.85 -97.75 118.25 -98.25 118.35 -99.5 119.6 -102.4 119.75 -104.75 119.25 -105.0 119.1 -107.5 118.0 -108.9 116.1 -109.15 115.1 -109.9 113.5 -109.9 110.5 -109.75 108.75 -108.25 106.6 -107.75 106.1 -105.4 105.35 -102.5 105.35 -100.5 105.75 -100.25 105.75 -99.9 105.85 -99.65 106.0 -99.4 106.1 -97.15 107.25 -96.0 108.6 -96.0 108.75 -95.75 109.1 -95.4 109.75 M-216.65 134.6 L-216.65 133.75 -216.5 132.85 -216.4 132.6 -215.65 131.85 -215.25 131.35 -214.15 130.6 -213.75 130.5 -212.65 130.1 -210.9 130.1 -210.5 130.35 -209.15 131.85 -208.9 132.25 -208.4 134.0 -208.75 134.85 -209.15 136.5 -209.75 137.1 -210.25 137.5 -210.5 137.6 -211.9 138.5 -212.15 138.5 -213.25 138.75 -214.5 138.35 -215.15 138.0 -215.9 137.25 -216.5 136.1 -216.75 135.0 -216.75 134.6 -216.65 134.6 M-229.4 164.1 L-229.75 165.1 -230.0 165.25 -230.0 165.6 -230.25 165.85 -230.25 166.0 -230.4 166.5 -231.15 167.1 -232.15 167.35 -232.5 167.5 -234.25 167.5 -234.65 167.25 -235.25 167.0 -236.65 165.1 -236.65 163.75 -235.5 162.1 -235.15 162.0 -234.65 161.5 -234.25 161.35 -234.0 161.35 -233.25 161.0 -232.0 161.0 -231.75 161.1 -230.9 161.75 -230.25 162.6 -230.0 162.85 -229.4 164.0 -229.4 164.1 M206.0 63.35 L206.1 64.25 206.25 64.25 206.25 64.5 206.0 65.25 206.0 65.35 205.85 65.5 205.85 65.6 205.75 65.75 205.6 65.85 205.0 66.85 203.6 67.75 201.35 67.85 200.35 67.6 199.75 67.25 199.5 67.0 199.0 66.25 198.85 65.6 198.5 65.0 198.5 63.75 198.75 62.75 198.85 62.5 200.0 61.75 201.5 61.0 202.35 60.75 202.6 60.6 204.75 61.6 205.5 62.35 205.5 62.5 205.6 62.6 205.6 62.75 205.85 63.0 205.75 63.25 206.0 63.35 M151.25 99.75 L153.0 101.1 153.25 101.35 153.35 101.75 154.1 102.6 154.5 103.75 154.5 103.85 154.75 104.5 154.6 104.6 154.85 106.1 154.85 106.5 153.6 108.25 152.35 109.25 152.1 109.35 150.6 109.6 150.35 109.6 150.0 109.75 148.25 109.85 146.75 109.1 145.35 108.1 144.75 106.85 144.35 106.35 144.25 105.5 143.85 104.6 143.85 104.0 144.1 102.75 144.5 102.35 145.6 100.35 147.75 99.25 148.0 99.35 148.25 99.35 149.75 99.6 149.85 99.6 150.75 99.75 151.25 99.75 M137.1 214.1 L137.6 215.0 137.6 215.1 137.75 215.35 138.0 216.0 138.1 216.1 138.1 216.25 138.35 216.35 138.35 216.75 138.6 217.25 138.75 217.75 138.85 218.5 138.6 219.6 138.0 220.85 137.85 221.0 137.6 221.1 136.85 221.5 135.5 221.85 135.25 221.75 135.0 221.75 134.0 221.5 133.0 220.25 132.1 218.5 132.0 218.25 131.85 218.0 131.75 217.6 131.6 217.35 131.75 217.1 131.5 216.85 131.5 215.6 131.6 215.1 131.6 214.6 132.25 213.75 133.0 213.0 133.35 212.85 134.35 213.0 134.6 212.6 134.85 212.75 136.0 213.1 137.1 214.1" fill="#ffffff" fill-rule="evenodd" stroke="none"/>
  </g>
</svg>
