<?xml version="1.0" encoding="UTF-8" standalone="no"?>
<svg xmlns:xlink="http://www.w3.org/1999/xlink" height="65.55px" width="74.7px" xmlns="http://www.w3.org/2000/svg">
  <g transform="matrix(1.0, 0.0, 0.0, 1.0, 226.8, -106.25)">
    <path d="M-159.0 171.25 Q-165.0 173.5 -170.25 166.5 L-170.5 165.75 -171.75 163.25 -172.0 162.5 -173.25 160.25 -173.25 154.75 -173.5 153.5 -173.5 148.25 -170.75 139.5 -167.25 134.5 -166.0 133.25 -165.5 133.0 -163.25 131.5 Q-150.0 127.75 -152.5 153.75 L-159.0 171.25 M-193.5 118.75 L-190.5 128.75 -195.0 141.25 Q-197.5 147.0 -207.0 149.5 -227.25 150.25 -226.75 129.75 -228.0 115.5 -204.25 106.25 L-199.5 111.0 -193.5 118.75" fill="#ffffff" fill-rule="evenodd" stroke="none"/>
  </g>
</svg>
