<?xml version="1.0" encoding="UTF-8" standalone="no"?>
<svg xmlns:xlink="http://www.w3.org/1999/xlink" height="164.25px" width="206.7px" xmlns="http://www.w3.org/2000/svg">
  <g transform="matrix(1.0, 0.0, 0.0, 1.0, -18.15, 182.25)">
    <path d="M46.0 -56.5 L53.25 -51.25 57.35 -44.5 59.0 -36.15 57.0 -27.65 52.5 -22.75 42.1 -18.0 31.85 -21.15 24.5 -27.4 18.35 -33.4 Q17.5 -34.5 20.35 -41.9 L26.35 -51.15 34.35 -56.5 46.0 -56.5 M152.35 -176.25 L161.85 -179.75 171.5 -182.25 Q179.6 -175.9 183.25 -162.75 L184.0 -150.75 178.25 -139.0 Q168.75 -133.4 167.0 -134.5 L160.75 -134.4 151.5 -138.4 150.75 -139.4 150.35 -139.75 149.85 -140.4 149.5 -140.75 146.5 -144.25 146.1 -144.65 Q144.35 -145.15 142.85 -153.9 L144.25 -168.15 152.35 -176.25 M217.5 -111.75 L221.6 -104.25 224.0 -96.0 224.85 -87.5 223.75 -80.25 218.75 -76.75 218.35 -76.65 213.25 -79.0 207.85 -84.9 203.6 -91.65 203.6 -92.15 203.25 -92.5 203.0 -93.9 203.75 -104.5 203.75 -104.9 204.1 -108.0 204.1 -108.4 204.25 -109.25 204.25 -109.5 204.1 -110.15 204.85 -111.0 205.35 -112.25 206.0 -113.15 206.5 -114.4 207.6 -116.15 214.0 -114.75 217.5 -111.75 M177.75 -57.5 L177.85 -58.25 177.85 -58.9 Q188.1 -79.15 196.25 -81.4 199.1 -77.75 189.0 -60.75 L186.1 -57.0 180.5 -51.25 177.85 -51.9 177.85 -53.65 177.75 -54.0 177.75 -57.5" fill="#ffffff" fill-rule="evenodd" stroke="none"/>
  </g>
</svg>
