<?xml version="1.0" encoding="UTF-8" standalone="no"?>
<svg xmlns:xlink="http://www.w3.org/1999/xlink" height="136.9px" width="242.55px" xmlns="http://www.w3.org/2000/svg">
  <g transform="matrix(1.0, 0.0, 0.0, 1.0, -65.45, 207.9)">
    <path d="M284.5 -203.75 L289.5 -206.75 292.35 -207.9 296.85 -205.0 304.6 -198.25 305.1 -197.0 305.25 -196.75 305.35 -196.4 305.5 -196.15 305.6 -195.75 305.75 -195.5 305.85 -195.15 306.0 -194.9 306.1 -194.5 306.25 -194.25 306.35 -193.9 306.5 -193.65 306.6 -193.25 306.75 -193.0 306.85 -192.65 307.0 -192.4 307.1 -192.0 307.25 -191.75 307.35 -191.4 307.5 -191.15 307.85 -190.25 308.0 -190.15 308.0 -189.9 307.85 -189.25 304.5 -179.9 304.5 -179.75 304.25 -178.9 300.0 -173.65 292.5 -170.0 284.35 -169.9 278.25 -172.15 273.1 -177.9 272.75 -188.15 277.0 -196.5 284.5 -203.75" fill="#ffffff" fill-rule="evenodd" stroke="none"/>
    <path d="M69.05 -105.4 L77.2 -115.25 Q85.3 -121.75 87.05 -120.9 L94.2 -116.5 104.45 -108.75 110.55 -98.0 108.3 -84.4 104.2 -77.0 95.3 -71.75 85.8 -71.0 84.8 -71.0 76.05 -73.9 68.45 -80.9 65.45 -94.0 69.05 -105.4" fill="#ffffff" fill-rule="evenodd" stroke="none"/>
  </g>
</svg>
