<?xml version="1.0" encoding="UTF-8" standalone="no"?>
<svg xmlns:xlink="http://www.w3.org/1999/xlink" height="38.1px" width="40.5px" xmlns="http://www.w3.org/2000/svg">
  <g transform="matrix(1.0, 0.0, 0.0, 1.0, -171.5, 155.25)">
    <path d="M180.5 -151.0 L188.75 -155.25 200.25 -154.0 207.1 -148.15 Q212.0 -140.15 211.25 -138.65 L212.0 -132.4 209.6 -124.9 204.25 -120.25 203.85 -120.15 203.5 -120.0 199.85 -118.9 199.5 -118.75 195.85 -117.65 195.5 -117.5 195.1 -117.4 194.75 -117.25 194.0 -117.15 193.35 -117.25 192.25 -117.75 192.0 -117.9 185.35 -120.75 185.1 -120.9 184.5 -121.15 176.1 -129.4 171.5 -134.75 171.5 -136.65 174.25 -143.4 180.5 -151.0" fill="#ffffff" fill-rule="evenodd" stroke="none"/>
  </g>
</svg>
