<?xml version="1.0" encoding="UTF-8" standalone="no"?>
<svg xmlns:xlink="http://www.w3.org/1999/xlink" height="105.7px" width="48.85px" xmlns="http://www.w3.org/2000/svg">
  <g transform="matrix(1.0, 0.0, 0.0, 1.0, -9.05, -34.15)">
    <path d="M57.9 40.65 Q57.9 51.85 55.05 62.5 52.15 73.05 48.6 83.05 45.15 93.15 42.25 102.6 39.4 112.05 39.4 120.95 39.4 125.55 39.85 130.0 40.25 134.55 40.25 139.85 L22.55 139.85 Q22.55 129.85 24.45 121.35 26.3 112.8 29.05 105.5 31.85 98.1 35.15 91.8 L41.2 79.9 Q44.0 74.4 45.9 69.6 47.75 64.85 47.75 60.45 L22.55 60.45 Q19.1 60.45 16.55 61.55 13.95 62.55 12.8 63.45 L15.65 39.65 18.75 39.95 26.05 40.15 35.65 40.35 45.45 40.6 53.6 40.65 57.9 40.65" fill="#666666" fill-rule="evenodd" stroke="none"/>
    <path d="M49.85 35.15 L54.15 35.15 Q54.15 46.35 51.3 57.0 48.4 67.55 44.85 77.55 41.4 87.65 38.5 97.1 35.65 106.55 35.65 115.45 35.65 120.05 36.1 124.5 36.5 129.05 36.5 134.35 L18.8 134.35 Q18.8 124.35 20.7 115.85 22.55 107.3 25.3 100.0 28.1 92.6 31.4 86.3 L37.45 74.4 Q40.25 68.9 42.15 64.1 44.0 59.35 44.0 54.95 L18.8 54.95 Q15.35 54.95 12.8 56.05 10.2 57.05 9.05 57.95 L11.9 34.15 15.0 34.45 22.3 34.65 31.9 34.85 41.7 35.1 49.85 35.15" fill="url(#gradient0)" fill-rule="evenodd" stroke="none"/>
  </g>
  <defs>
    <linearGradient gradientTransform="matrix(2.0E-4, -0.0545, 0.0549, 2.0E-4, 364.75, 78.05)" gradientUnits="userSpaceOnUse" id="gradient0" spreadMethod="pad" x1="-819.2" x2="819.2">
      <stop offset="0.0" stop-color="#55000f"/>
      <stop offset="1.0" stop-color="#ff005a"/>
    </linearGradient>
  </defs>
</svg>
