<?xml version="1.0" encoding="UTF-8" standalone="no"?>
<svg xmlns:xlink="http://www.w3.org/1999/xlink" height="35.35px" width="18.2px" xmlns="http://www.w3.org/2000/svg">
  <g transform="matrix(1.0, 0.0, 0.0, 1.0, -1.6, 2.5)">
    <path d="M15.25 -2.45 Q15.75 -2.3 16.05 -1.85 L16.3 -0.85 Q16.25 -0.3 15.85 0.05 L13.75 2.55 11.9 5.55 11.85 5.6 Q11.2 6.75 10.7 8.05 L11.5 7.25 Q11.95 6.8 12.55 6.8 13.15 6.8 13.6 7.25 L16.55 10.45 18.45 13.25 Q19.15 14.65 19.5 16.0 L19.55 16.05 19.8 18.7 19.5 22.15 19.5 22.2 Q19.1 23.9 18.15 25.7 L18.15 25.75 Q17.2 27.45 15.45 29.25 L15.4 29.25 11.05 32.65 10.25 32.85 9.45 32.65 Q7.75 31.55 6.3 29.75 4.85 28.0 3.85 26.0 L3.9 26.0 Q2.85 24.0 2.25 21.95 L2.2 21.95 Q1.6 19.8 1.6 18.05 1.6 15.55 2.4 12.6 3.2 9.65 4.8 6.8 6.3 3.9 8.7 1.5 L8.7 1.55 Q11.1 -1.0 14.2 -2.35 L15.25 -2.45 M9.4 16.0 L9.85 18.05 9.85 18.0 Q10.3 19.5 11.0 20.75 L11.05 20.75 12.55 23.1 12.85 23.5 12.95 22.45 12.65 20.95 12.6 20.9 11.55 18.45 11.6 18.45 10.15 16.5 10.1 16.45 9.4 16.0" fill="#000000" fill-rule="evenodd" stroke="none"/>
    <path d="M10.55 4.85 L8.9 8.45 Q8.2 10.35 8.0 12.25 L8.55 12.05 9.25 11.5 12.55 8.3 Q14.25 9.95 15.35 11.35 L17.1 13.95 18.05 16.35 18.3 18.7 18.0 21.85 Q17.65 23.4 16.8 25.0 15.95 26.55 14.35 28.2 12.8 29.75 10.25 31.35 8.75 30.4 7.45 28.8 6.15 27.2 5.2 25.3 4.25 23.45 3.65 21.5 3.1 19.6 3.1 18.05 3.1 15.75 3.85 13.0 4.6 10.2 6.1 7.5 7.55 4.8 9.75 2.55 11.95 0.25 14.8 -1.0 13.65 0.15 12.55 1.65 L10.55 4.85 M8.4 18.45 L9.7 21.45 11.35 24.0 12.95 25.8 14.1 24.4 Q14.45 23.7 14.45 22.45 L14.05 20.45 12.9 17.75 Q12.2 16.45 11.2 15.45 10.25 14.4 9.05 14.4 8.45 14.4 7.8 14.95 7.9 16.75 8.4 18.45" fill="url(#gradient0)" fill-rule="evenodd" stroke="none"/>
  </g>
  <defs>
    <linearGradient gradientTransform="matrix(0.0, 0.0206, -0.0222, 0.0, -27.6, 15.65)" gradientUnits="userSpaceOnUse" id="gradient0" spreadMethod="pad" x1="-819.2" x2="819.2">
      <stop offset="0.0" stop-color="#ffffff"/>
      <stop offset="1.0" stop-color="#757575"/>
    </linearGradient>
  </defs>
</svg>
