<?xml version="1.0" encoding="UTF-8" standalone="no"?>
<svg xmlns:xlink="http://www.w3.org/1999/xlink" height="98.85px" width="51.65px" xmlns="http://www.w3.org/2000/svg">
  <g transform="matrix(1.0, 0.0, 0.0, 1.0, -9.05, -34.15)">
    <path d="M14.65 83.85 L25.8 39.65 60.3 39.65 55.9 57.0 30.25 57.0 28.15 66.3 Q43.0 70.6 51.85 77.5 60.7 84.3 60.7 93.9 60.7 97.5 59.05 100.7 L55.75 106.5 54.85 107.8 52.5 110.9 49.3 115.2 45.7 120.0 35.8 133.0 12.8 117.4 23.35 102.6 40.7 113.95 Q42.4 112.35 44.55 109.35 46.6 106.35 46.6 102.2 46.6 99.05 43.85 96.3 41.25 93.6 36.75 91.25 32.35 88.95 26.6 87.1 20.8 85.2 14.65 83.85" fill="#666666" fill-rule="evenodd" stroke="none"/>
    <path d="M10.9 78.35 L22.05 34.15 56.55 34.15 52.15 51.5 26.5 51.5 24.4 60.8 Q39.25 65.1 48.1 72.0 56.95 78.8 56.95 88.4 56.95 92.0 55.3 95.2 L52.0 101.0 51.1 102.3 48.75 105.4 45.55 109.7 41.95 114.5 32.05 127.5 9.05 111.9 19.6 97.1 36.95 108.45 Q38.65 106.85 40.8 103.85 42.85 100.85 42.85 96.7 42.85 93.55 40.1 90.8 37.5 88.1 33.0 85.75 28.6 83.45 22.85 81.6 17.05 79.7 10.9 78.35" fill="url(#gradient0)" fill-rule="evenodd" stroke="none"/>
  </g>
  <defs>
    <linearGradient gradientTransform="matrix(2.0E-4, -0.0545, 0.0549, 2.0E-4, 472.5, 78.05)" gradientUnits="userSpaceOnUse" id="gradient0" spreadMethod="pad" x1="-819.2" x2="819.2">
      <stop offset="0.0" stop-color="#55000f"/>
      <stop offset="1.0" stop-color="#ff005a"/>
    </linearGradient>
  </defs>
</svg>
