<?xml version="1.0" encoding="UTF-8" standalone="no"?>
<svg xmlns:xlink="http://www.w3.org/1999/xlink" height="79.25px" width="217.0px" xmlns="http://www.w3.org/2000/svg">
  <g transform="matrix(1.0, 0.0, 0.0, 1.0, 109.0, -3.85)">
    <path d="M95.25 51.6 L104.1 64.85 107.85 72.25 108.0 72.85 107.25 73.85 106.6 74.5 99.6 76.75 92.75 78.1 60.75 81.35 31.75 82.6 -0.5 83.1 -47.75 82.1 -74.15 80.35 -93.75 78.1 -100.65 76.75 -105.4 75.35 -108.25 73.85 -109.0 72.5 -105.25 65.0 -96.25 51.6 -85.65 39.5 -83.15 37.1 -82.4 36.5 -82.15 36.25 -73.75 29.0 -73.4 28.6 -60.65 20.1 -60.15 19.85 -59.75 19.6 -59.5 19.5 -59.25 19.35 -59.0 19.25 -58.75 19.1 -58.5 19.0 -58.25 18.85 -58.0 18.75 -57.75 18.6 -57.5 18.5 -57.25 18.35 -53.15 16.35 -53.0 16.35 -52.75 16.25 -52.5 16.1 -52.25 16.0 -52.0 15.85 -51.75 15.75 -51.5 15.6 -51.25 15.5 -51.0 15.35 -50.75 15.25 -50.5 15.1 -50.25 15.0 -50.0 14.85 -49.75 14.75 -46.5 13.1 -46.25 13.1 -46.15 13.0 -45.9 12.85 -45.5 12.75 -45.25 12.6 -41.9 11.5 -40.15 10.85 -39.75 10.75 -39.4 10.6 -39.0 10.5 -38.65 10.35 -38.25 10.25 -37.9 10.1 -37.5 10.0 -37.15 9.85 -36.75 9.75 -36.4 9.6 -36.0 9.5 -35.9 9.5 -31.4 8.0 -31.15 8.0 -30.65 7.85 -16.9 5.1 -16.75 5.1 -16.25 5.0 -14.65 5.0 -14.5 4.85 -13.0 4.85 -12.4 4.75 -11.25 4.75 -10.5 4.6 -9.5 4.6 -8.9 4.5 -8.65 4.35 -7.9 4.5 -7.25 4.5 -6.5 4.25 -5.75 4.35 -5.25 4.35 -4.9 4.25 -4.75 4.1 -4.25 4.25 -3.4 4.25 -3.0 4.1 -2.9 4.0 -1.0 4.0 -0.9 3.85 -0.5 3.85 -0.25 4.0 1.6 4.0 1.75 4.1 2.35 4.25 2.75 4.25 3.25 4.1 3.6 4.25 3.75 4.25 4.25 4.35 4.75 4.35 5.25 4.25 6.25 4.5 6.85 4.5 7.35 4.35 7.5 4.5 7.85 4.6 9.5 4.6 10.25 4.75 11.5 4.75 12.0 4.85 13.5 4.85 13.6 5.0 15.25 5.0 15.6 5.1 15.75 5.1 16.25 5.25 16.85 5.25 17.1 5.35 17.35 5.5 17.5 5.5 18.0 5.6 18.1 5.6 18.6 5.75 19.0 5.75 19.25 5.85 19.6 5.85 19.85 6.0 20.25 6.0 20.5 6.1 20.6 6.1 21.1 6.25 21.35 6.25 21.85 6.35 22.0 6.35 22.5 6.5 23.1 6.5 23.35 6.6 23.75 6.6 24.0 6.75 24.35 6.75 24.6 6.85 25.0 6.85 25.25 7.0 25.6 7.0 25.85 7.1 26.25 7.1 26.5 7.25 26.85 7.25 27.1 7.35 27.5 7.35 27.75 7.5 28.1 7.5 28.35 7.6 28.75 7.6 29.0 7.75 29.35 7.75 30.0 8.0 30.5 8.0 31.1 8.25 35.25 9.6 36.25 10.0 42.85 12.25 43.25 12.35 43.6 12.5 44.0 12.6 45.1 13.0 45.25 13.1 59.35 20.0 72.6 29.0 75.0 31.0 75.1 31.0 84.25 39.1 84.6 39.5 85.0 39.85 95.25 51.6" fill="#0a0a0a" fill-rule="evenodd" stroke="none"/>
  </g>
</svg>
