<?xml version="1.0" encoding="UTF-8" standalone="no"?>
<svg xmlns:xlink="http://www.w3.org/1999/xlink" height="121.75px" width="263.25px" xmlns="http://www.w3.org/2000/svg">
  <g transform="matrix(1.0, 0.0, 0.0, 1.0, 132.25, 35.75)">
    <path d="M123.5 47.0 L129.25 64.0 131.0 71.5 130.75 74.25 130.25 75.25 127.75 76.5 114.5 79.75 103.75 81.25 75.75 83.75 39.75 85.5 20.0 86.0 -21.0 86.0 -40.75 85.5 -76.75 83.75 -104.75 81.25 -115.5 79.75 -123.5 78.0 -128.75 76.25 -131.75 74.25 -132.25 73.0 -130.25 64.0 -124.5 47.0 -116.5 31.0 -106.5 16.25 -94.75 3.0 -81.75 -8.5 -81.25 -8.75 -66.25 -18.5 -51.0 -26.0 -50.0 -26.25 -33.5 -31.75 -27.0 -33.0 -26.5 -33.0 -25.75 -33.25 -22.0 -34.0 -21.5 -34.0 -18.0 -34.75 -16.75 -34.75 -16.0 -35.0 -15.25 -35.0 -13.5 -35.25 -10.25 -35.25 -9.5 -35.5 -5.25 -35.5 -4.5 -35.75 -3.25 -35.5 2.25 -35.5 3.0 -35.75 4.0 -35.5 8.5 -35.5 9.0 -35.25 13.75 -35.25 14.25 -35.0 15.75 -35.0 16.5 -34.75 18.75 -34.25 19.5 -34.25 20.0 -34.0 20.75 -34.0 21.5 -33.75 22.0 -33.75 22.75 -33.5 23.25 -33.5 24.0 -33.25 24.5 -33.25 25.25 -33.0 25.75 -33.0 26.5 -32.75 27.0 -32.75 28.0 -32.5 28.25 -32.5 29.25 -32.25 29.5 -32.25 30.5 -32.0 31.75 -32.0 32.5 -31.75 34.0 -31.5 34.75 -31.25 35.25 -30.75 35.5 -30.75 36.0 -30.5 36.25 -30.5 36.75 -30.25 37.5 -30.25 38.0 -30.0 49.0 -26.25 49.5 -26.25 54.5 -23.75 54.75 -23.75 64.75 -18.5 80.75 -8.5 93.75 3.0 105.5 16.25 115.5 31.0 123.5 47.0" fill="#0a0a0a" fill-rule="evenodd" stroke="none"/>
  </g>
</svg>
