<?xml version="1.0" encoding="UTF-8" standalone="no"?>
<svg xmlns:xlink="http://www.w3.org/1999/xlink" height="66.1px" width="243.65px" xmlns="http://www.w3.org/2000/svg">
  <g transform="matrix(1.0, 0.0, 0.0, 1.0, -19.15, -228.5)">
    <path d="M136.75 241.35 L136.5 243.5 Q136.5 252.0 146.5 258.0 155.65 263.5 166.25 263.5 172.5 263.5 178.35 259.15 184.3 254.75 185.8 248.8 186.7 245.1 186.85 239.85 186.95 235.4 186.5 232.5 190.3 234.25 194.55 235.25 L202.3 236.3 Q212.55 236.3 220.5 228.5 224.8 239.0 236.4 243.05 246.9 246.65 262.8 244.8 237.5 262.1 199.0 279.0 L195.95 280.0 192.6 280.8 Q191.35 278.65 188.7 276.65 184.45 273.5 180.25 273.5 175.85 273.5 172.5 276.5 169.0 279.6 169.0 284.25 L169.1 287.7 158.3 290.6 150.9 291.5 138.8 292.85 Q140.0 290.45 140.0 288.25 140.0 281.75 135.5 277.0 130.3 271.5 121.25 271.5 113.65 271.5 108.0 275.0 102.0 278.7 102.0 284.25 102.0 288.2 106.5 293.0 L108.1 294.6 99.1 294.5 90.55 294.35 Q80.85 285.45 76.2 282.7 68.1 278.0 57.5 278.0 38.5 278.0 32.0 284.35 L25.45 281.8 19.15 279.35 Q30.45 271.45 35.0 266.5 L44.2 255.8 Q49.25 249.25 51.0 244.55 53.95 243.25 62.25 238.75 64.2 243.15 66.7 245.95 68.65 248.1 73.05 251.3 84.9 260.0 104.5 260.0 115.35 260.0 126.35 251.1 134.35 244.7 137.0 239.55 L136.75 241.35 M201.0 245.0 Q197.9 245.0 195.5 246.5 192.5 248.3 192.5 251.5 192.5 254.25 194.55 257.0 196.6 259.8 199.05 260.3 202.2 259.8 204.85 258.45 209.0 256.3 209.0 253.0 209.0 245.0 201.0 245.0" fill="url(#gradient0)" fill-rule="evenodd" stroke="none"/>
  </g>
  <defs>
    <linearGradient gradientTransform="matrix(0.0042, -0.0311, 0.0399, 0.0054, 130.8, 281.85)" gradientUnits="userSpaceOnUse" id="gradient0" spreadMethod="pad" x1="-819.2" x2="819.2">
      <stop offset="0.0" stop-color="#9c20df"/>
      <stop offset="1.0" stop-color="#9d24df" stop-opacity="0.2901961"/>
    </linearGradient>
  </defs>
</svg>
