<?xml version="1.0" encoding="UTF-8" standalone="no"?>
<svg xmlns:xlink="http://www.w3.org/1999/xlink" height="84.0px" width="99.05px" xmlns="http://www.w3.org/2000/svg">
  <g transform="matrix(1.0, 0.0, 0.0, 1.0, 49.5, 41.5)">
    <path d="M2.2 -40.15 Q7.9 -29.45 12.95 -21.5 L14.05 -20.8 Q15.25 -19.9 17.1 -17.25 L16.95 -17.45 22.9 -8.35 24.0 -7.5 27.0 -3.5 Q27.45 -2.9 27.5 -2.15 L27.35 -1.1 28.25 -0.1 30.25 3.9 Q30.6 4.6 30.5 5.4 L37.45 16.7 Q43.2 26.7 47.75 31.25 L47.75 31.2 Q50.5 33.85 49.05 37.55 L49.0 37.6 Q47.55 41.2 43.2 41.5 L43.0 41.5 6.05 41.5 Q4.25 42.4 0.1 42.5 L-1.2 42.2 -1.55 41.95 -4.6 42.25 -4.65 42.25 Q-7.1 42.2 -8.25 41.5 L-45.0 41.5 Q-45.75 41.5 -46.4 41.1 L-47.3 39.95 -49.3 34.95 Q-49.6 34.3 -49.45 33.65 L-48.95 32.45 -41.35 22.6 -41.35 22.65 Q-35.65 14.5 -32.2 7.15 L-32.45 6.3 Q-32.6 5.5 -32.15 4.75 L-28.15 -2.25 Q-27.7 -3.1 -26.75 -3.35 L-26.3 -3.45 Q-20.35 -12.2 -14.75 -22.95 -9.05 -33.95 -5.0 -39.45 -4.55 -40.1 -3.8 -40.35 L-0.8 -41.35 0.95 -41.3 Q1.75 -41.0 2.2 -40.15" fill="#000000" fill-rule="evenodd" stroke="none"/>
    <path d="M24.0 -2.0 L-25.0 -1.0 Q-18.55 -10.25 -12.55 -21.8 -6.95 -32.6 -3.0 -38.0 L0.0 -39.0 Q5.8 -28.05 10.95 -20.0 17.2 -10.1 24.0 -2.0" fill="url(#gradient0)" fill-rule="evenodd" stroke="none"/>
    <path d="M24.0 -2.0 L-7.0 -2.0 Q3.5 -8.8 11.0 -19.0 11.95 -20.3 15.05 -15.85 L24.0 -2.0" fill="url(#gradient1)" fill-rule="evenodd" stroke="none"/>
    <path d="M-29.0 6.0 L-25.0 -1.0 Q-1.35 -3.1 24.0 -2.0 L27.0 5.0 24.0 39.0 -29.0 39.0 -29.0 6.0" fill="url(#gradient2)" fill-rule="evenodd" stroke="none"/>
    <path d="M-20.85 22.6 Q-14.1 32.05 -6.0 39.0 L-45.0 39.0 -47.0 34.0 Q-42.0 27.85 -39.3 24.05 -32.6 14.5 -29.0 6.0 -28.0 12.6 -20.85 22.6" fill="url(#gradient3)" fill-rule="evenodd" stroke="none"/>
    <path d="M46.7 36.6 Q45.75 38.8 43.0 39.0 L-3.0 39.0 Q26.65 15.0 27.0 5.0 29.0 7.15 35.25 17.95 41.25 28.35 46.0 33.0 47.55 34.5 46.7 36.6" fill="url(#gradient4)" fill-rule="evenodd" stroke="none"/>
    <path d="M30.5 10.0 Q24.15 23.65 5.9 39.0" fill="none" stroke="url(#gradient5)" stroke-linecap="round" stroke-linejoin="round" stroke-width="0.5"/>
    <path d="M31.2 18.65 Q27.3 24.8 23.35 29.35 18.9 34.4 13.0 39.0" fill="none" stroke="url(#gradient6)" stroke-linecap="round" stroke-linejoin="round" stroke-width="0.5"/>
    <path d="M37.1 21.0 Q35.25 24.5 32.25 28.25 29.35 32.0 26.05 35.0" fill="none" stroke="url(#gradient7)" stroke-linecap="round" stroke-linejoin="round" stroke-width="0.5"/>
    <path d="M38.6 31.5 Q35.55 35.65 31.3 39.0" fill="none" stroke="url(#gradient8)" stroke-linecap="round" stroke-linejoin="round" stroke-width="0.5"/>
    <path d="M-39.0 27.2 Q-37.6 33.85 -33.6 39.0" fill="none" stroke="url(#gradient9)" stroke-linecap="round" stroke-linejoin="round" stroke-width="0.5"/>
    <path d="M-19.3 -9.75 Q-18.4 -7.1 -16.3 -5.0 -14.0 -2.65 -10.95 -1.9" fill="none" stroke="url(#gradient10)" stroke-linecap="round" stroke-linejoin="round" stroke-width="0.5"/>
    <path d="M-27.45 3.25 Q-5.7 2.55 10.5 3.25" fill="none" stroke="url(#gradient11)" stroke-linecap="round" stroke-linejoin="round" stroke-width="0.5"/>
    <path d="M-16.0 28.9 Q-0.5 29.95 4.45 28.75" fill="none" stroke="url(#gradient12)" stroke-linecap="round" stroke-linejoin="round" stroke-width="0.5"/>
    <path d="M-12.5 32.75 Q-5.3 33.65 2.3 32.75" fill="none" stroke="url(#gradient13)" stroke-linecap="round" stroke-linejoin="round" stroke-width="0.5"/>
    <path d="M17.0 20.95 Q2.85 21.8 -10.1 20.95" fill="none" stroke="url(#gradient14)" stroke-linecap="round" stroke-linejoin="round" stroke-width="0.5"/>
    <path d="M-3.85 -36.8 L4.6 -21.4" fill="none" stroke="url(#gradient15)" stroke-linecap="round" stroke-linejoin="round" stroke-width="0.5"/>
    <path d="M-15.75 -15.95 Q-13.25 -10.6 -8.5 -7.1" fill="none" stroke="url(#gradient16)" stroke-linecap="round" stroke-linejoin="round" stroke-width="0.5"/>
    <path d="M14.85 -16.05 Q9.2 -6.95 1.1 -2.35" fill="none" stroke="url(#gradient17)" stroke-linecap="round" stroke-linejoin="round" stroke-width="0.5"/>
    <path d="M17.2 -12.55 Q14.3 -6.95 8.2 -2.4" fill="none" stroke="url(#gradient18)" stroke-linecap="round" stroke-linejoin="round" stroke-width="0.5"/>
    <path d="M-31.7 11.7 Q-28.35 22.7 -21.4 30.5" fill="none" stroke="url(#gradient19)" stroke-linecap="round" stroke-linejoin="round" stroke-width="0.5"/>
    <path d="M-43.35 29.45 Q-41.65 34.8 -39.2 39.0" fill="none" stroke="url(#gradient20)" stroke-linecap="round" stroke-linejoin="round" stroke-width="0.5"/>
    <path d="M24.0 -2.0 L27.0 5.0 Q29.0 7.15 35.25 17.95 41.25 28.35 46.0 33.0 47.55 34.5 46.7 36.6 45.75 38.8 43.0 39.0 L-45.0 39.0 -47.0 34.0 Q-42.0 27.85 -39.3 24.05 -32.6 14.5 -29.0 6.0 L-25.0 -1.0 Q-18.55 -10.25 -12.55 -21.8 -6.95 -32.6 -3.0 -38.0 L0.0 -39.0 Q5.8 -28.05 10.95 -20.0 L11.4 -19.25 Q12.5 -19.5 15.05 -15.85 L24.0 -2.0" fill="url(#gradient21)" fill-rule="evenodd" stroke="none"/>
    <path d="M-2.0 11.0 L-30.0 6.0 -26.0 -1.0 -2.0 10.0 -2.0 11.0" fill="url(#gradient22)" fill-rule="evenodd" stroke="none"/>
    <path d="M28.0 5.0 Q13.35 7.4 -1.0 11.0 L0.0 9.0 Q14.9 2.5 26.0 1.0 L28.0 5.0" fill="url(#gradient23)" fill-rule="evenodd" stroke="none"/>
    <path d="M25.0 -2.0 Q11.85 5.2 -2.0 11.0 L-2.0 10.0 22.0 -6.0 25.0 -2.0" fill="url(#gradient24)" fill-rule="evenodd" stroke="none"/>
    <path d="M-3.0 12.0 L0.0 12.0 -2.0 39.0 Q-2.3 39.85 -4.55 39.75 -6.75 39.7 -7.0 39.0 L-3.0 12.0" fill="url(#gradient25)" fill-rule="evenodd" stroke="none"/>
    <path d="M3.0 12.0 Q4.45 25.3 5.0 39.0 4.65 39.85 0.0 40.0 0.55 25.9 0.0 12.0 L3.0 12.0" fill="url(#gradient26)" fill-rule="evenodd" stroke="none"/>
    <path d="M4.0 11.0 Q12.9 15.1 23.0 18.0 L20.0 22.0 Q7.0 16.45 2.0 12.0 L4.0 11.0" fill="url(#gradient27)" fill-rule="evenodd" stroke="none"/>
    <path d="M4.0 11.0 Q0.8 13.15 -4.0 13.0 L-5.0 9.0 3.0 8.0 4.0 11.0" fill="url(#gradient28)" fill-rule="evenodd" stroke="none"/>
    <path d="M15.0 -2.0 Q7.7 3.3 5.0 7.0 L1.0 5.0 Q6.65 -1.35 14.0 -6.0 L15.0 -2.0" fill="url(#gradient29)" fill-rule="evenodd" stroke="none"/>
    <path d="M5.0 7.0 Q3.75 8.2 3.4 9.55 1.1 9.1 -3.0 7.0 L0.0 4.0 5.0 7.0" fill="url(#gradient30)" fill-rule="evenodd" stroke="none"/>
    <path d="M-0.1 8.35 Q-13.1 12.05 -22.0 12.0 -22.95 11.25 -22.95 8.9 -23.0 6.5 -22.0 6.0 L-12.95 5.75 -3.0 7.0 -0.1 8.35" fill="url(#gradient31)" fill-rule="evenodd" stroke="none"/>
    <path d="M-0.1 8.35 Q-13.1 12.05 -22.0 12.0" fill="none" stroke="url(#gradient32)" stroke-linecap="round" stroke-linejoin="round" stroke-width="1.0"/>
    <path d="M-22.0 12.0 Q-22.95 11.25 -22.95 8.9 -23.0 6.5 -22.0 6.0" fill="none" stroke="url(#gradient33)" stroke-linecap="round" stroke-linejoin="round" stroke-width="1.0"/>
    <path d="M-10.0 -2.0 Q-4.15 -4.85 1.4 -8.35 -2.55 -4.9 -7.0 -2.0 L-10.0 -2.0 M-6.7 37.05 L-6.85 38.25 Q-11.3 34.35 -15.25 29.7 -11.35 33.5 -6.7 37.05 M16.45 20.45 L17.2 20.8 Q12.05 26.25 4.15 33.05 9.55 28.05 14.7 22.4 L16.45 20.45 M27.0 5.0 Q26.85 9.6 20.4 17.25 L19.45 16.95 Q25.0 10.05 27.0 5.0" fill="#000000" fill-opacity="0.2509804" fill-rule="evenodd" stroke="none"/>
    <path d="M16.0 2.75 L25.0 -2.0 23.95 -3.4 25.0 -4.0 26.0 -2.0 Q15.1 4.15 3.7 8.75 L3.85 8.5 14.8 3.35 16.0 3.0 16.0 2.75 M28.0 6.0 Q17.5 6.95 3.8 9.85 15.8 7.0 28.0 5.0 L28.0 6.0 M0.05 13.45 Q0.5 26.6 0.0 40.0 L-0.5 40.0 Q-0.05 28.25 -0.35 16.7 L-0.1 13.45 -0.05 12.7 0.05 12.7 0.05 13.45 M-3.2 13.5 L-7.0 39.0 Q-6.75 39.7 -4.55 39.75 L-3.7 39.75 -5.05 39.8 Q-7.25 39.75 -7.5 39.05 L-3.7 13.3 -3.65 13.0 -3.15 13.0 -3.2 13.5 M-7.05 10.15 L-7.8 10.3 -7.85 10.3 -7.05 10.15 M-4.55 10.9 L-4.6 10.55 -4.5 10.9 -4.55 10.9 M-4.1 12.65 L-4.05 12.65 -4.05 12.7 -4.1 12.65 M-29.0 4.25 L-30.0 6.0 -22.8 7.3 -22.85 7.65 -32.0 6.0 -30.0 4.0 -29.0 4.25" fill="#000000" fill-opacity="0.3019608" fill-rule="evenodd" stroke="none"/>
    <path d="M16.0 2.75 L16.0 3.0 14.8 3.35 Q9.6 4.8 5.0 7.0 6.5 4.95 9.4 2.4 12.6 1.0 16.0 0.0 L16.0 2.75 M-3.7 13.3 L-3.85 13.0 -3.65 13.0 -3.7 13.3" fill="#000000" fill-opacity="0.2509804" fill-rule="evenodd" stroke="none"/>
    <path d="M-7.8 10.3 L-7.05 10.15 -7.0 10.15 -4.85 9.65 -4.6 10.55 -4.55 10.9 -4.45 11.25 Q-7.55 13.4 -15.55 17.9 -23.3 22.25 -27.0 24.0 -29.7 22.85 -30.0 20.0 L-21.4 15.5 Q-14.05 11.85 -11.2 11.0 L-7.8 10.3" fill="url(#gradient34)" fill-rule="evenodd" stroke="none"/>
    <path d="M-3.15 13.0 Q-0.25 12.95 2.05 12.05 L4.0 11.0 3.95 10.75 4.6 11.3 2.7 12.6 Q5.0 14.5 8.8 16.6 11.45 19.35 17.0 23.7 22.8 28.3 25.75 29.85 L21.75 33.85 Q16.8 29.65 11.5 24.05 4.95 17.15 2.4 12.7 L0.4 13.35 0.05 13.45 0.05 12.7 -0.05 12.7 -0.1 13.45 -3.2 13.5 -3.15 13.0" fill="url(#gradient35)" fill-rule="evenodd" stroke="none"/>
  </g>
  <defs>
    <radialGradient cx="0" cy="0" gradientTransform="matrix(0.0275, 0.0, 0.0, 0.0502, -2.75, -2.2)" gradientUnits="userSpaceOnUse" id="gradient0" r="819.2" spreadMethod="pad">
      <stop offset="0.15294117647058825" stop-color="#437937"/>
      <stop offset="0.5411764705882353" stop-color="#205727"/>
      <stop offset="0.8235294117647058" stop-color="#234f22"/>
      <stop offset="0.9137254901960784" stop-color="#375c29"/>
      <stop offset="1.0" stop-color="#34672e"/>
    </radialGradient>
    <linearGradient gradientTransform="matrix(0.0094, 0.0094, -0.0075, 0.0075, 13.35, -7.1)" gradientUnits="userSpaceOnUse" id="gradient1" spreadMethod="pad" x1="-819.2" x2="819.2">
      <stop offset="0.0" stop-color="#5d8853"/>
      <stop offset="0.10196078431372549" stop-color="#366327"/>
      <stop offset="0.40784313725490196" stop-color="#264b21"/>
      <stop offset="0.8470588235294118" stop-color="#2e4927"/>
    </linearGradient>
    <linearGradient gradientTransform="matrix(0.0, 0.0253, -0.0253, 0.0, -1.0, 18.3)" gradientUnits="userSpaceOnUse" id="gradient2" spreadMethod="pad" x1="-819.2" x2="819.2">
      <stop offset="0.0" stop-color="#437937"/>
      <stop offset="0.09803921568627451" stop-color="#35552b"/>
      <stop offset="0.23921568627450981" stop-color="#395629"/>
      <stop offset="0.5882352941176471" stop-color="#396c28"/>
      <stop offset="0.807843137254902" stop-color="#3c5030"/>
      <stop offset="0.9450980392156862" stop-color="#3f4624"/>
    </linearGradient>
    <radialGradient cx="0" cy="0" gradientTransform="matrix(0.0319, -0.0168, 0.0116, 0.022, -20.0, 24.0)" gradientUnits="userSpaceOnUse" id="gradient3" r="819.2" spreadMethod="pad">
      <stop offset="0.1411764705882353" stop-color="#437937"/>
      <stop offset="0.6235294117647059" stop-color="#2b4f22"/>
      <stop offset="0.7568627450980392" stop-color="#2f4b25"/>
      <stop offset="1.0" stop-color="#293520"/>
    </radialGradient>
    <radialGradient cx="0" cy="0" gradientTransform="matrix(0.0391, 0.0195, -0.0127, 0.0253, 16.0, 22.0)" gradientUnits="userSpaceOnUse" id="gradient4" r="819.2" spreadMethod="pad">
      <stop offset="0.20784313725490197" stop-color="#437937"/>
      <stop offset="0.7803921568627451" stop-color="#2f4b25"/>
      <stop offset="0.9882352941176471" stop-color="#212817"/>
    </radialGradient>
    <linearGradient gradientTransform="matrix(0.0141, -0.0147, 0.0336, 0.0321, 3.5, 13.7)" gradientUnits="userSpaceOnUse" id="gradient5" spreadMethod="pad" x1="-819.2" x2="819.2">
      <stop offset="0.1411764705882353" stop-color="#607e41" stop-opacity="0.14117648"/>
      <stop offset="0.3764705882352941" stop-color="#547a36"/>
      <stop offset="0.7254901960784313" stop-color="#5e8640"/>
      <stop offset="1.0" stop-color="#607e41" stop-opacity="0.101960786"/>
    </linearGradient>
    <linearGradient gradientTransform="matrix(0.0123, -0.0095, 0.0284, 0.0368, -2.05, -2.95)" gradientUnits="userSpaceOnUse" id="gradient6" spreadMethod="pad" x1="-819.2" x2="819.2">
      <stop offset="0.1411764705882353" stop-color="#607e41" stop-opacity="0.14117648"/>
      <stop offset="0.3764705882352941" stop-color="#547a36"/>
      <stop offset="0.7254901960784313" stop-color="#5e8640"/>
      <stop offset="1.0" stop-color="#607e41" stop-opacity="0.101960786"/>
    </linearGradient>
    <linearGradient gradientTransform="matrix(0.0086, -0.0068, 0.0289, 0.0365, 13.25, 8.55)" gradientUnits="userSpaceOnUse" id="gradient7" spreadMethod="pad" x1="-819.2" x2="819.2">
      <stop offset="0.1411764705882353" stop-color="#607e41" stop-opacity="0.14117648"/>
      <stop offset="0.3764705882352941" stop-color="#547a36"/>
      <stop offset="0.7254901960784313" stop-color="#5e8640"/>
      <stop offset="1.0" stop-color="#607e41" stop-opacity="0.101960786"/>
    </linearGradient>
    <linearGradient gradientTransform="matrix(0.0043, -0.0047, 0.0341, 0.0316, 10.0, 12.2)" gradientUnits="userSpaceOnUse" id="gradient8" spreadMethod="pad" x1="-819.2" x2="819.2">
      <stop offset="0.1411764705882353" stop-color="#607e41" stop-opacity="0.14117648"/>
      <stop offset="0.3764705882352941" stop-color="#4a662f"/>
      <stop offset="0.7254901960784313" stop-color="#526c35"/>
      <stop offset="1.0" stop-color="#607e41" stop-opacity="0.101960786"/>
    </linearGradient>
    <linearGradient gradientTransform="matrix(0.0034, 0.0059, -0.0401, 0.0235, -10.3, 15.95)" gradientUnits="userSpaceOnUse" id="gradient9" spreadMethod="pad" x1="-819.2" x2="819.2">
      <stop offset="0.1411764705882353" stop-color="#607e41" stop-opacity="0.14117648"/>
      <stop offset="0.3764705882352941" stop-color="#46612c"/>
      <stop offset="0.7254901960784313" stop-color="#46612c"/>
      <stop offset="1.0" stop-color="#607e41" stop-opacity="0.101960786"/>
    </linearGradient>
    <linearGradient gradientTransform="matrix(0.0066, 0.0039, -0.0237, 0.04, -18.75, 1.3)" gradientUnits="userSpaceOnUse" id="gradient10" spreadMethod="pad" x1="-819.2" x2="819.2">
      <stop offset="0.1411764705882353" stop-color="#607e41" stop-opacity="0.14117648"/>
      <stop offset="0.3764705882352941" stop-color="#4e6a31"/>
      <stop offset="0.7254901960784313" stop-color="#4e6a31"/>
      <stop offset="1.0" stop-color="#607e41" stop-opacity="0.101960786"/>
    </linearGradient>
    <linearGradient gradientTransform="matrix(0.0222, 0.0, 0.0, 0.0466, -2.4, 1.1)" gradientUnits="userSpaceOnUse" id="gradient11" spreadMethod="pad" x1="-819.2" x2="819.2">
      <stop offset="0.1411764705882353" stop-color="#607e41" stop-opacity="0.14117648"/>
      <stop offset="0.3764705882352941" stop-color="#547a36"/>
      <stop offset="0.7254901960784313" stop-color="#5e8640"/>
      <stop offset="1.0" stop-color="#607e41" stop-opacity="0.101960786"/>
    </linearGradient>
    <linearGradient gradientTransform="matrix(0.0108, 0.0, -2.0E-4, 0.0466, -8.25, 0.75)" gradientUnits="userSpaceOnUse" id="gradient12" spreadMethod="pad" x1="-819.2" x2="819.2">
      <stop offset="0.1411764705882353" stop-color="#607e41" stop-opacity="0.14117648"/>
      <stop offset="0.3764705882352941" stop-color="#4a662f"/>
      <stop offset="0.7254901960784313" stop-color="#4a662f"/>
      <stop offset="1.0" stop-color="#607e41" stop-opacity="0.101960786"/>
    </linearGradient>
    <linearGradient gradientTransform="matrix(0.0089, 0.0, -2.0E-4, 0.0466, -6.15, 0.75)" gradientUnits="userSpaceOnUse" id="gradient13" spreadMethod="pad" x1="-819.2" x2="819.2">
      <stop offset="0.1411764705882353" stop-color="#607e41" stop-opacity="0.14117648"/>
      <stop offset="0.3764705882352941" stop-color="#4a662f"/>
      <stop offset="0.7254901960784313" stop-color="#4a662f"/>
      <stop offset="1.0" stop-color="#607e41" stop-opacity="0.101960786"/>
    </linearGradient>
    <linearGradient gradientTransform="matrix(0.0191, 0.0, 0.0, 0.0466, 5.95, 0.6)" gradientUnits="userSpaceOnUse" id="gradient14" spreadMethod="pad" x1="-819.2" x2="819.2">
      <stop offset="0.1411764705882353" stop-color="#607e41" stop-opacity="0.14117648"/>
      <stop offset="0.3764705882352941" stop-color="#607649"/>
      <stop offset="0.7254901960784313" stop-color="#607649"/>
      <stop offset="1.0" stop-color="#607e41" stop-opacity="0.101960786"/>
    </linearGradient>
    <linearGradient gradientTransform="matrix(0.0046, 0.0085, -0.041, 0.022, -26.4, -14.85)" gradientUnits="userSpaceOnUse" id="gradient15" spreadMethod="pad" x1="-819.2" x2="819.2">
      <stop offset="0.21568627450980393" stop-color="#607e41" stop-opacity="0.14117648"/>
      <stop offset="0.6862745098039216" stop-color="#4e6a31"/>
      <stop offset="0.8980392156862745" stop-color="#4e6a31"/>
    </linearGradient>
    <linearGradient gradientTransform="matrix(0.005, 0.0049, -0.0323, 0.0334, -21.55, -2.5)" gradientUnits="userSpaceOnUse" id="gradient16" spreadMethod="pad" x1="-819.2" x2="819.2">
      <stop offset="0.1411764705882353" stop-color="#607e41" stop-opacity="0.14117648"/>
      <stop offset="0.5764705882352941" stop-color="#4e6a31"/>
      <stop offset="0.9686274509803922" stop-color="#4e6a31"/>
    </linearGradient>
    <linearGradient gradientTransform="matrix(0.0083, -0.0062, 0.0279, 0.0372, 15.0, -0.95)" gradientUnits="userSpaceOnUse" id="gradient17" spreadMethod="pad" x1="-819.2" x2="819.2">
      <stop offset="0.12156862745098039" stop-color="#4e6a31"/>
      <stop offset="0.3568627450980392" stop-color="#4e6a31"/>
      <stop offset="0.8431372549019608" stop-color="#607e41" stop-opacity="0.101960786"/>
    </linearGradient>
    <linearGradient gradientTransform="matrix(0.0055, -0.0051, 0.0313, 0.0344, 18.5, -0.1)" gradientUnits="userSpaceOnUse" id="gradient18" spreadMethod="pad" x1="-819.2" x2="819.2">
      <stop offset="0.06666666666666667" stop-color="#4e6a31"/>
      <stop offset="0.29411764705882354" stop-color="#4e6a31"/>
      <stop offset="0.8274509803921568" stop-color="#607e41" stop-opacity="0.101960786"/>
    </linearGradient>
    <linearGradient gradientTransform="matrix(0.0044, 0.0054, -0.0361, 0.0293, -12.7, 11.05)" gradientUnits="userSpaceOnUse" id="gradient19" spreadMethod="pad" x1="-819.2" x2="819.2">
      <stop offset="0.1411764705882353" stop-color="#607e41" stop-opacity="0.14117648"/>
      <stop offset="0.6039215686274509" stop-color="#547a36"/>
      <stop offset="0.8784313725490196" stop-color="#5e8640"/>
    </linearGradient>
    <linearGradient gradientTransform="matrix(0.003, 0.005, -0.0399, 0.0238, -13.25, 17.9)" gradientUnits="userSpaceOnUse" id="gradient20" spreadMethod="pad" x1="-819.2" x2="819.2">
      <stop offset="0.1411764705882353" stop-color="#607e41" stop-opacity="0.14117648"/>
      <stop offset="0.3764705882352941" stop-color="#46612c"/>
      <stop offset="0.6" stop-color="#46612c"/>
      <stop offset="0.8980392156862745" stop-color="#607e41" stop-opacity="0.101960786"/>
    </linearGradient>
    <radialGradient cx="0" cy="0" gradientTransform="matrix(0.0662, 0.0, 0.0, 0.0683, -2.0, 6.0)" gradientUnits="userSpaceOnUse" id="gradient21" r="819.2" spreadMethod="pad">
      <stop offset="0.17254901960784313" stop-color="#ffffff" stop-opacity="0.15294118"/>
      <stop offset="0.7843137254901961" stop-color="#2c591e" stop-opacity="0.0"/>
    </radialGradient>
    <linearGradient gradientTransform="matrix(0.013, 0.0067, -0.0033, 0.0065, -18.25, 9.9)" gradientUnits="userSpaceOnUse" id="gradient22" spreadMethod="pad" x1="-819.2" x2="819.2">
      <stop offset="0.0" stop-color="#76753a"/>
      <stop offset="0.058823529411764705" stop-color="#58582e"/>
      <stop offset="0.23137254901960785" stop-color="#89894b"/>
      <stop offset="0.5764705882352941" stop-color="#999857"/>
      <stop offset="0.8823529411764706" stop-color="#6a7740"/>
      <stop offset="1.0" stop-color="#554e2b"/>
    </linearGradient>
    <linearGradient gradientTransform="matrix(-0.0167, 0.0057, -0.002, -0.0058, 14.0, 7.6)" gradientUnits="userSpaceOnUse" id="gradient23" spreadMethod="pad" x1="-819.2" x2="819.2">
      <stop offset="0.0" stop-color="#76753a"/>
      <stop offset="0.058823529411764705" stop-color="#58582e"/>
      <stop offset="0.23137254901960785" stop-color="#89894b"/>
      <stop offset="0.5764705882352941" stop-color="#999857"/>
      <stop offset="0.8823529411764706" stop-color="#4e532d"/>
      <stop offset="1.0" stop-color="#554e2b"/>
    </linearGradient>
    <linearGradient gradientTransform="matrix(-0.014, 0.0087, -0.0055, -0.0088, 11.5, 2.5)" gradientUnits="userSpaceOnUse" id="gradient24" spreadMethod="pad" x1="-819.2" x2="819.2">
      <stop offset="0.0" stop-color="#76753a"/>
      <stop offset="0.058823529411764705" stop-color="#58582e"/>
      <stop offset="0.23137254901960785" stop-color="#89894b"/>
      <stop offset="0.5764705882352941" stop-color="#999857"/>
      <stop offset="0.8823529411764706" stop-color="#515630"/>
      <stop offset="1.0" stop-color="#554e2b"/>
    </linearGradient>
    <linearGradient gradientTransform="matrix(9.0E-4, -0.017, 0.0169, 8.0E-4, -3.55, 25.9)" gradientUnits="userSpaceOnUse" id="gradient25" spreadMethod="pad" x1="-819.2" x2="819.2">
      <stop offset="0.0" stop-color="#76753a"/>
      <stop offset="0.058823529411764705" stop-color="#58582e"/>
      <stop offset="0.23137254901960785" stop-color="#89894b"/>
      <stop offset="0.5764705882352941" stop-color="#999857"/>
      <stop offset="0.8823529411764706" stop-color="#6a7740"/>
      <stop offset="1.0" stop-color="#554e2b"/>
    </linearGradient>
    <linearGradient gradientTransform="matrix(0.0, -0.0171, 0.0171, 0.0, 2.5, 26.0)" gradientUnits="userSpaceOnUse" id="gradient26" spreadMethod="pad" x1="-819.2" x2="819.2">
      <stop offset="0.0" stop-color="#76753a"/>
      <stop offset="0.058823529411764705" stop-color="#58582e"/>
      <stop offset="0.23137254901960785" stop-color="#89894b"/>
      <stop offset="0.5764705882352941" stop-color="#999857"/>
      <stop offset="0.8823529411764706" stop-color="#6a7740"/>
      <stop offset="1.0" stop-color="#554e2b"/>
    </linearGradient>
    <radialGradient cx="0" cy="0" fx="-953.6" fy="0" gradientTransform="matrix(0.0118, 0.0062, -0.0013, 0.0025, 9.85, 15.3)" gradientUnits="userSpaceOnUse" id="gradient27" r="819.2" spreadMethod="pad">
      <stop offset="0.0" stop-color="#6b6f42"/>
      <stop offset="0.4980392156862745" stop-color="#a1a15b"/>
      <stop offset="0.8666666666666667" stop-color="#85874b"/>
      <stop offset="1.0" stop-color="#7e7e47"/>
    </radialGradient>
    <linearGradient gradientTransform="matrix(0.0046, -0.0015, 9.0E-4, 0.0029, -0.5, 10.5)" gradientUnits="userSpaceOnUse" id="gradient28" spreadMethod="pad" x1="-819.2" x2="819.2">
      <stop offset="0.0" stop-color="#808040"/>
      <stop offset="0.058823529411764705" stop-color="#777640"/>
      <stop offset="0.1803921568627451" stop-color="#959555"/>
      <stop offset="0.8823529411764706" stop-color="#959555"/>
      <stop offset="1.0" stop-color="#6a6937"/>
    </linearGradient>
    <radialGradient cx="0" cy="0" fx="-947.2" fy="0" gradientTransform="matrix(0.0084, -0.0086, 0.0023, 0.0023, 8.0, 0.5)" gradientUnits="userSpaceOnUse" id="gradient29" r="819.2" spreadMethod="pad">
      <stop offset="0.023529411764705882" stop-color="#747343"/>
      <stop offset="0.4980392156862745" stop-color="#a2a25b"/>
      <stop offset="0.8666666666666667" stop-color="#898b4d"/>
      <stop offset="1.0" stop-color="#82814a"/>
    </radialGradient>
    <linearGradient gradientTransform="matrix(0.0029, 0.0021, -0.002, 0.0027, 1.0, 6.75)" gradientUnits="userSpaceOnUse" id="gradient30" spreadMethod="pad" x1="-819.2" x2="819.2">
      <stop offset="0.0" stop-color="#808040"/>
      <stop offset="0.058823529411764705" stop-color="#777640"/>
      <stop offset="0.1803921568627451" stop-color="#959555"/>
      <stop offset="0.8823529411764706" stop-color="#959555"/>
      <stop offset="1.0" stop-color="#6a6937"/>
    </linearGradient>
    <radialGradient cx="0" cy="0" fx="806.4000000000001" fy="0" gradientTransform="matrix(0.013, 0.0, 0.0, 0.0038, -10.6, 8.45)" gradientUnits="userSpaceOnUse" id="gradient31" r="819.2" spreadMethod="pad">
      <stop offset="0.027450980392156862" stop-color="#57603c"/>
      <stop offset="0.29411764705882354" stop-color="#a3a35c"/>
      <stop offset="0.8235294117647058" stop-color="#787b44"/>
      <stop offset="1.0" stop-color="#6d7140"/>
    </radialGradient>
    <linearGradient gradientTransform="matrix(0.0137, 0.0048, -0.0015, 0.0042, -11.6, 9.25)" gradientUnits="userSpaceOnUse" id="gradient32" spreadMethod="pad" x1="-819.2" x2="819.2">
      <stop offset="0.1450980392156863" stop-color="#58573d"/>
      <stop offset="0.4196078431372549" stop-color="#696841"/>
      <stop offset="0.7490196078431373" stop-color="#4f5132" stop-opacity="0.0"/>
    </linearGradient>
    <linearGradient gradientTransform="matrix(0.0137, 0.0048, -0.0015, 0.0042, -11.6, 9.25)" gradientUnits="userSpaceOnUse" id="gradient33" spreadMethod="pad" x1="-819.2" x2="819.2">
      <stop offset="0.0392156862745098" stop-color="#464e2f" stop-opacity="0.0"/>
      <stop offset="0.12156862745098039" stop-color="#58573d"/>
      <stop offset="0.4196078431372549" stop-color="#4f5132"/>
      <stop offset="0.7490196078431373" stop-color="#4f5132" stop-opacity="0.0"/>
    </linearGradient>
    <linearGradient gradientTransform="matrix(-0.0113, 0.0058, -0.0026, -0.0051, -20.1, 18.3)" gradientUnits="userSpaceOnUse" id="gradient34" spreadMethod="pad" x1="-819.2" x2="819.2">
      <stop offset="0.0" stop-color="#000000" stop-opacity="0.2509804"/>
      <stop offset="0.9058823529411765" stop-color="#000000" stop-opacity="0.0"/>
    </linearGradient>
    <linearGradient gradientTransform="matrix(0.0168, 0.018, -0.0081, 0.0076, 10.95, 22.55)" gradientUnits="userSpaceOnUse" id="gradient35" spreadMethod="pad" x1="-819.2" x2="819.2">
      <stop offset="0.0" stop-color="#000000" stop-opacity="0.2509804"/>
      <stop offset="0.8313725490196079" stop-color="#000000" stop-opacity="0.0"/>
    </linearGradient>
  </defs>
</svg>
