<?xml version="1.0" encoding="UTF-8" standalone="no"?>
<svg xmlns:xlink="http://www.w3.org/1999/xlink" height="91.25px" width="49.4px" xmlns="http://www.w3.org/2000/svg">
  <g transform="matrix(1.0, 0.0, 0.0, 1.0, 24.7, 42.75)">
    <path d="M6.5 -38.5 Q9.7 -38.7 12.5 -36.05 L12.5 -36.0 Q15.05 -33.6 16.3 -29.1 17.85 -27.15 19.6 -23.15 23.3 -14.75 24.5 -2.15 25.5 8.35 21.3 21.15 16.85 34.7 9.65 40.95 L9.7 40.95 Q8.85 41.7 6.65 44.6 L6.55 44.75 Q3.15 48.75 0.0 48.5 -3.15 48.75 -6.55 44.75 L-6.65 44.6 -9.65 40.9 Q-16.85 34.65 -21.25 21.1 -25.5 8.3 -24.5 -2.2 -23.3 -14.8 -19.6 -23.2 -17.85 -27.2 -16.25 -29.15 -15.05 -33.65 -12.5 -36.05 L-12.45 -36.1 Q-9.7 -38.75 -6.5 -38.55 L-5.9 -38.85 -5.95 -39.7 Q-6.35 -42.4 -3.2 -42.5 1.85 -43.2 2.7 -41.85 3.3 -41.6 3.85 -39.4 5.2 -39.2 6.5 -38.5" fill="#000000" fill-rule="evenodd" stroke="none"/>
    <path d="M2.3 -31.0 L2.0 -31.0 -2.0 -31.0 Q-1.65 -33.35 -1.85 -35.65 -2.1 -38.25 -3.0 -39.0 L-3.45 -39.7 Q-3.45 -40.0 -3.0 -40.0 0.45 -40.5 1.0 -40.0 1.4 -39.65 1.9 -36.2 L2.3 -31.0" fill="url(#gradient0)" fill-rule="evenodd" stroke="none"/>
    <path d="M4.0 -35.0 L0.0 -35.0 -4.0 -35.0 -4.0 -38.0 Q-1.15 -38.4 0.0 -37.0 1.15 -38.4 4.0 -38.0 L4.0 -35.0" fill="#000000" fill-opacity="0.2" fill-rule="evenodd" stroke="none"/>
    <path d="M14.05 -27.9 Q15.55 -26.15 17.3 -22.15 20.85 -14.05 22.0 -1.95 22.95 8.1 18.9 20.35 17.25 25.45 15.2 29.5 24.75 -0.45 14.05 -27.9" fill="url(#gradient1)" fill-rule="evenodd" stroke="none"/>
    <path d="M14.0 -27.95 L14.05 -27.9 Q24.75 -0.45 15.2 29.5 L14.95 29.95 Q11.9 35.65 8.0 39.05 L6.6 40.65 Q14.45 21.1 12.8 -5.0 12.15 -15.4 10.05 -24.4 8.2 -32.45 6.05 -35.95 8.55 -36.35 10.75 -34.25 13.0 -32.05 14.0 -27.95" fill="url(#gradient2)" fill-rule="evenodd" stroke="none"/>
    <path d="M2.85 -37.0 Q4.45 -36.9 6.0 -35.95 L6.05 -35.95 Q8.2 -32.45 10.05 -24.4 12.15 -15.4 12.8 -5.0 14.45 21.1 6.6 40.65 5.75 41.6 4.65 43.1 2.2 46.0 0.0 46.0 L0.0 -35.95 Q1.05 -37.05 2.85 -37.0" fill="url(#gradient3)" fill-rule="evenodd" stroke="none"/>
    <path d="M-14.0 -28.0 Q-24.7 -0.55 -15.2 29.35 -17.25 25.35 -18.9 20.3 -22.95 8.05 -22.0 -2.0 -20.85 -14.1 -17.3 -22.2 -15.55 -26.25 -14.0 -28.0" fill="url(#gradient4)" fill-rule="evenodd" stroke="none"/>
    <path d="M-6.0 -36.0 Q-8.2 -32.5 -10.05 -24.4 -12.15 -15.45 -12.8 -5.0 -14.45 21.05 -6.6 40.6 L-8.0 39.0 Q-11.9 35.6 -14.9 29.95 L-15.2 29.35 Q-24.7 -0.55 -14.0 -28.0 -13.0 -32.1 -10.75 -34.3 -8.55 -36.4 -6.0 -36.0" fill="url(#gradient5)" fill-rule="evenodd" stroke="none"/>
    <path d="M-10.05 -24.4 Q-8.2 -32.5 -6.0 -36.0 -4.45 -36.95 -2.85 -37.05 -1.05 -37.1 0.0 -36.0 L0.0 46.0 Q-2.2 46.0 -4.65 43.1 L-6.6 40.6 Q-14.45 21.05 -12.8 -5.0 -12.15 -15.45 -10.05 -24.4" fill="url(#gradient6)" fill-rule="evenodd" stroke="none"/>
    <path d="M16.85 -21.95 Q20.35 -13.9 21.5 -1.9 22.45 8.05 18.45 20.2 L17.7 22.4 Q23.4 -1.35 16.15 -23.5 L16.85 -21.95" fill="url(#gradient7)" fill-rule="evenodd" stroke="none"/>
    <path d="M5.35 -35.2 Q7.35 -31.75 9.1 -24.15 11.15 -15.25 11.8 -4.95 L11.8 -4.9 Q13.4 20.8 5.75 40.1 L3.85 42.5 3.9 42.45 Q2.35 44.25 1.0 44.8 L1.0 -35.5 Q1.7 -36.0 2.8 -36.0 4.05 -35.9 5.35 -35.2" fill="url(#gradient8)" fill-rule="evenodd" stroke="none"/>
    <path d="M13.05 -27.65 L13.1 -27.5 Q23.65 -0.45 14.3 29.05 L14.05 29.5 Q11.85 33.65 9.15 36.55 15.25 18.35 13.8 -5.05 13.15 -15.55 11.05 -24.6 9.5 -31.25 7.75 -34.85 8.95 -34.55 10.05 -33.5 12.1 -31.5 13.05 -27.7 L13.05 -27.65" fill="url(#gradient9)" fill-rule="evenodd" stroke="none"/>
    <path d="M-5.25 -35.25 Q-4.05 -35.95 -2.8 -36.05 -1.7 -36.05 -1.0 -35.55 L-1.0 44.8 Q-2.35 44.25 -3.85 42.45 L-3.85 42.5 -5.7 40.1 Q-13.4 20.75 -11.8 -4.9 L-11.8 -4.95 Q-11.15 -15.3 -9.05 -24.15 -7.35 -31.85 -5.25 -35.25" fill="url(#gradient10)" fill-rule="evenodd" stroke="none"/>
    <path d="M-14.0 -28.0 Q-24.85 -0.25 -15.0 30.0" fill="none" stroke="url(#gradient11)" stroke-linecap="round" stroke-linejoin="round" stroke-width="0.25"/>
    <path d="M6.0 -36.0 Q8.2 -32.5 10.05 -24.55 12.15 -15.7 12.8 -5.5 14.5 21.0 6.0 41.0" fill="none" stroke="url(#gradient12)" stroke-linecap="round" stroke-linejoin="round" stroke-width="0.25"/>
    <path d="M14.0 -28.0 Q24.85 -0.25 15.0 30.0" fill="none" stroke="url(#gradient13)" stroke-linecap="round" stroke-linejoin="round" stroke-width="0.25"/>
    <path d="M0.0 -36.0 L0.0 46.0" fill="none" stroke="url(#gradient14)" stroke-linecap="round" stroke-linejoin="round" stroke-width="0.25"/>
    <path d="M-6.0 -36.0 Q-8.2 -32.5 -10.05 -24.55 -12.15 -15.75 -12.8 -5.5 -14.5 21.0 -6.0 41.0" fill="none" stroke="url(#gradient15)" stroke-linecap="round" stroke-linejoin="round" stroke-width="0.25"/>
  </g>
  <defs>
    <radialGradient cx="0" cy="0" fx="19.200000000000003" fy="0" gradientTransform="matrix(0.003, -5.0E-4, 0.0012, 0.0076, -0.7, -37.25)" gradientUnits="userSpaceOnUse" id="gradient0" r="819.2" spreadMethod="pad">
      <stop offset="0.07058823529411765" stop-color="#dfa975"/>
      <stop offset="0.5686274509803921" stop-color="#9b6531"/>
      <stop offset="0.984313725490196" stop-color="#61401f"/>
    </radialGradient>
    <radialGradient cx="0" cy="0" fx="784.0" fy="0" gradientTransform="matrix(-0.0011, -0.0362, 0.0362, -0.0011, 18.1, 0.8)" gradientUnits="userSpaceOnUse" id="gradient1" r="819.2" spreadMethod="pad">
      <stop offset="0.0" stop-color="#fbab91"/>
      <stop offset="0.22745098039215686" stop-color="#ce2406"/>
      <stop offset="0.5882352941176471" stop-color="#8d1d1d"/>
      <stop offset="0.8509803921568627" stop-color="#9a2525"/>
      <stop offset="1.0" stop-color="#db6464"/>
    </radialGradient>
    <radialGradient cx="0" cy="0" fx="774.4000000000001" fy="0" gradientTransform="matrix(-0.0042, -0.0498, 0.0185, -0.0016, 9.35, 3.45)" gradientUnits="userSpaceOnUse" id="gradient2" r="819.2" spreadMethod="pad">
      <stop offset="0.047058823529411764" stop-color="#ffffff"/>
      <stop offset="0.17254901960784313" stop-color="#ff816a"/>
      <stop offset="0.396078431372549" stop-color="#f52f1f"/>
      <stop offset="0.7764705882352941" stop-color="#82211a"/>
      <stop offset="0.8745098039215686" stop-color="#892121"/>
      <stop offset="1.0" stop-color="#c12f2f"/>
    </radialGradient>
    <radialGradient cx="0" cy="0" fx="774.4000000000001" fy="0" gradientTransform="matrix(-9.0E-4, -0.0535, 0.0276, -5.0E-4, 3.65, 5.9)" gradientUnits="userSpaceOnUse" id="gradient3" r="819.2" spreadMethod="pad">
      <stop offset="0.0" stop-color="#fee9e2"/>
      <stop offset="0.058823529411764705" stop-color="#fec7c7"/>
      <stop offset="0.28627450980392155" stop-color="#f74409"/>
      <stop offset="0.7764705882352941" stop-color="#751717"/>
      <stop offset="0.8745098039215686" stop-color="#781d1d"/>
      <stop offset="1.0" stop-color="#ca2d2d"/>
    </radialGradient>
    <radialGradient cx="0" cy="0" fx="659.2" fy="0" gradientTransform="matrix(0.0041, -0.0611, 0.0362, 0.0024, -20.0, 4.0)" gradientUnits="userSpaceOnUse" id="gradient4" r="819.2" spreadMethod="pad">
      <stop offset="0.0" stop-color="#f2680d"/>
      <stop offset="0.38823529411764707" stop-color="#a52121"/>
      <stop offset="1.0" stop-color="#3a0c0c"/>
    </radialGradient>
    <radialGradient cx="0" cy="0" fx="710.4000000000001" fy="0" gradientTransform="matrix(9.0E-4, -0.0542, 0.0275, 5.0E-4, -9.55, 5.0)" gradientUnits="userSpaceOnUse" id="gradient5" r="819.2" spreadMethod="pad">
      <stop offset="0.0" stop-color="#fd9e42"/>
      <stop offset="0.24313725490196078" stop-color="#f75a0f"/>
      <stop offset="0.7215686274509804" stop-color="#82211a"/>
    </radialGradient>
    <radialGradient cx="0" cy="0" fx="774.4000000000001" fy="0" gradientTransform="matrix(0.0016, -0.0513, 0.0272, 8.0E-4, -4.65, 4.15)" gradientUnits="userSpaceOnUse" id="gradient6" r="819.2" spreadMethod="pad">
      <stop offset="0.0" stop-color="#fec1b8"/>
      <stop offset="0.06666666666666667" stop-color="#fdaa8e"/>
      <stop offset="0.3176470588235294" stop-color="#fa4205"/>
      <stop offset="0.8156862745098039" stop-color="#631414"/>
      <stop offset="0.9176470588235294" stop-color="#721b1b"/>
      <stop offset="1.0" stop-color="#9a2525"/>
    </radialGradient>
    <linearGradient gradientTransform="matrix(0.0, 0.0356, -0.035, 0.0, 18.1, 0.8)" gradientUnits="userSpaceOnUse" id="gradient7" spreadMethod="pad" x1="-819.2" x2="819.2">
      <stop offset="0.0" stop-color="#ffffff" stop-opacity="0.12156863"/>
      <stop offset="1.0" stop-color="#ffffff" stop-opacity="0.050980393"/>
    </linearGradient>
    <linearGradient gradientTransform="matrix(0.0, -0.0273, 0.0493, 0.0, 5.45, -14.0)" gradientUnits="userSpaceOnUse" id="gradient8" spreadMethod="pad" x1="-819.2" x2="819.2">
      <stop offset="0.28627450980392155" stop-color="#ffffff" stop-opacity="0.0"/>
      <stop offset="0.7764705882352941" stop-color="#ffffff" stop-opacity="0.3019608"/>
    </linearGradient>
    <linearGradient gradientTransform="matrix(0.0, -0.046, 0.0468, 0.0, 13.55, 2.3)" gradientUnits="userSpaceOnUse" id="gradient9" spreadMethod="pad" x1="-819.2" x2="819.2">
      <stop offset="0.4549019607843137" stop-color="#ffffff" stop-opacity="0.0"/>
      <stop offset="0.8980392156862745" stop-color="#ffffff" stop-opacity="0.23137255"/>
    </linearGradient>
    <linearGradient gradientTransform="matrix(0.0, 0.0507, -0.0507, 0.0, -6.55, 4.45)" gradientUnits="userSpaceOnUse" id="gradient10" spreadMethod="pad" x1="-819.2" x2="819.2">
      <stop offset="0.23529411764705882" stop-color="#ffffff" stop-opacity="0.24313726"/>
      <stop offset="0.47843137254901963" stop-color="#ffffff" stop-opacity="0.0"/>
    </linearGradient>
    <linearGradient gradientTransform="matrix(0.0, 0.0378, -0.0502, 0.0, -4.0, 1.0)" gradientUnits="userSpaceOnUse" id="gradient11" spreadMethod="pad" x1="-819.2" x2="819.2">
      <stop offset="0.0" stop-color="#f17a54"/>
      <stop offset="0.26666666666666666" stop-color="#ee5c2d"/>
      <stop offset="0.3686274509803922" stop-color="#e84009"/>
      <stop offset="0.8117647058823529" stop-color="#5e1313"/>
      <stop offset="1.0" stop-color="#a42e06"/>
    </linearGradient>
    <linearGradient gradientTransform="matrix(0.0, 0.0482, -0.0502, 0.0, -2.5, 2.5)" gradientUnits="userSpaceOnUse" id="gradient12" spreadMethod="pad" x1="-819.2" x2="819.2">
      <stop offset="0.0" stop-color="#f17a54"/>
      <stop offset="0.26666666666666666" stop-color="#ee5c2d"/>
      <stop offset="0.3686274509803922" stop-color="#e84009"/>
      <stop offset="0.8117647058823529" stop-color="#5e1313"/>
      <stop offset="1.0" stop-color="#a42e06"/>
    </linearGradient>
    <linearGradient gradientTransform="matrix(3.0E-4, 0.0356, -0.0502, 5.0E-4, -4.0, 1.05)" gradientUnits="userSpaceOnUse" id="gradient13" spreadMethod="pad" x1="-819.2" x2="819.2">
      <stop offset="0.0" stop-color="#f17a54"/>
      <stop offset="0.26666666666666666" stop-color="#ee5c2d"/>
      <stop offset="0.3686274509803922" stop-color="#e84009"/>
      <stop offset="0.8117647058823529" stop-color="#5e1313"/>
      <stop offset="1.0" stop-color="#a42e06"/>
    </linearGradient>
    <linearGradient gradientTransform="matrix(5.0E-4, 0.05, -0.0502, 5.0E-4, 0.0, 5.0)" gradientUnits="userSpaceOnUse" id="gradient14" spreadMethod="pad" x1="-819.2" x2="819.2">
      <stop offset="0.0" stop-color="#ee5c2d"/>
      <stop offset="0.20784313725490197" stop-color="#e84009"/>
      <stop offset="0.8117647058823529" stop-color="#5e1313"/>
      <stop offset="1.0" stop-color="#c43709"/>
    </linearGradient>
    <linearGradient gradientTransform="matrix(-4.0E-4, 0.0484, -0.0502, -5.0E-4, -2.5, 2.45)" gradientUnits="userSpaceOnUse" id="gradient15" spreadMethod="pad" x1="-819.2" x2="819.2">
      <stop offset="0.0" stop-color="#faa95a"/>
      <stop offset="0.22745098039215686" stop-color="#d04011"/>
      <stop offset="0.4117647058823529" stop-color="#f55e2c"/>
      <stop offset="0.8117647058823529" stop-color="#7b1a1a"/>
      <stop offset="1.0" stop-color="#6c1e04"/>
    </linearGradient>
  </defs>
</svg>
