<?xml version="1.0" encoding="UTF-8" standalone="no"?>
<svg xmlns:xlink="http://www.w3.org/1999/xlink" height="2.8px" width="2.8px" xmlns="http://www.w3.org/2000/svg">
  <g transform="matrix(1.0, 0.0, 0.0, 1.0, 1.4, 1.4)">
    <path d="M1.0 -1.0 Q1.4 -0.6 1.4 0.0 1.4 0.6 1.0 1.0 0.6 1.4 0.0 1.4 -0.6 1.4 -1.0 1.0 -1.4 0.6 -1.4 0.0 -1.4 -0.6 -1.0 -1.0 -0.6 -1.4 0.0 -1.4 0.6 -1.4 1.0 -1.0" fill="#000000" fill-opacity="0.8" fill-rule="evenodd" stroke="none"/>
    <path d="M0.7 -0.7 L1.0 0.0 0.7 0.7 0.0 1.0 -0.7 0.7 -1.0 0.0 -0.7 -0.7 0.0 -1.0 0.7 -0.7" fill="url(#gradient0)" fill-rule="evenodd" stroke="none"/>
  </g>
  <defs>
    <linearGradient gradientTransform="matrix(0.0012, 0.0, 0.0, 0.0012, 0.0, 0.0)" gradientUnits="userSpaceOnUse" id="gradient0" spreadMethod="pad" x1="-819.2" x2="819.2">
      <stop offset="0.0" stop-color="#d7d7d2"/>
      <stop offset="1.0" stop-color="#9f9f9f"/>
    </linearGradient>
  </defs>
</svg>
