<?xml version="1.0" encoding="UTF-8" standalone="no"?>
<svg xmlns:xlink="http://www.w3.org/1999/xlink" height="125.6px" width="83.0px" xmlns="http://www.w3.org/2000/svg">
  <g transform="matrix(1.0, 0.0, 0.0, 1.0, 41.5, 63.05)">
    <path d="M41.45 -58.85 Q41.55 -57.85 40.85 -57.05 L33.15 -47.9 33.2 -47.0 32.8 -43.75 Q32.65 -42.4 31.85 -41.75 L30.45 -41.2 30.5 -40.0 Q30.5 -37.65 29.4 -35.75 L31.75 -34.8 Q32.3 -34.25 32.45 -33.5 L32.3 -32.0 29.3 -25.0 Q28.95 -24.25 28.25 -23.8 27.5 -23.4 26.65 -23.5 L19.65 -24.5 Q18.9 -24.65 18.3 -25.15 17.7 -25.7 17.55 -26.5 L16.0 -26.5 Q15.15 -26.5 14.5 -27.0 L14.25 -26.85 Q13.65 -26.5 12.95 -26.5 11.45 -26.5 10.25 -25.75 9.45 -25.2 9.15 -24.85 7.5 -23.25 7.5 -21.0 7.5 -18.7 9.1 -17.1 10.7 -15.5 12.95 -15.5 15.55 -15.5 16.85 -17.1 17.45 -17.8 18.0 -19.9 18.55 -21.95 18.8 -22.25 L19.8 -23.15 21.1 -23.45 Q23.3 -23.35 25.55 -22.1 27.8 -20.85 28.8 -19.65 29.65 -18.65 29.75 -17.25 36.45 -13.2 40.45 -10.0 41.5 -9.2 41.5 -8.0 41.5 -7.25 41.0 -6.55 L40.45 -5.95 Q36.5 -2.85 29.9 1.2 29.85 2.6 28.9 3.75 27.85 5.05 25.65 6.2 L25.7 6.15 Q24.35 6.9 22.75 7.25 L19.9 7.2 Q18.55 6.55 18.55 5.0 18.55 4.25 18.05 3.05 17.5 1.85 16.95 1.2 15.5 -0.45 13.05 -0.45 10.65 -0.45 9.2 1.15 7.7 2.8 7.45 5.3 L7.45 7.05 7.55 9.65 Q7.85 11.4 10.25 15.8 L10.55 17.1 10.15 18.35 Q7.3 22.9 7.35 28.6 7.45 34.55 9.15 37.9 10.2 40.0 12.6 39.55 13.65 39.35 14.5 40.0 15.45 40.65 15.55 41.85 15.75 44.6 15.25 46.75 14.45 50.55 12.0 51.35 L8.9 51.45 2.2 61.3 1.25 62.35 0.0 62.55 -1.25 62.35 -2.2 61.3 -8.9 51.45 -12.0 51.35 Q-14.45 50.55 -15.25 46.75 -15.75 44.6 -15.55 41.85 -15.45 40.65 -14.5 40.0 -13.65 39.35 -12.6 39.55 -10.2 40.0 -9.15 37.9 -7.45 34.55 -7.35 28.6 -7.3 22.9 -10.15 18.35 L-10.55 17.1 -10.25 15.8 Q-7.85 11.4 -7.55 9.65 L-7.45 7.05 -7.45 5.3 Q-7.7 2.8 -9.2 1.15 -10.65 -0.45 -13.05 -0.45 -15.5 -0.45 -16.95 1.2 -17.5 1.85 -18.05 3.05 -18.55 4.25 -18.55 5.0 -18.55 6.55 -19.9 7.2 L-22.75 7.25 Q-24.35 6.9 -25.7 6.15 L-25.65 6.2 Q-27.85 5.05 -28.9 3.75 -29.85 2.6 -29.9 1.2 -36.5 -2.85 -40.45 -5.95 L-41.0 -6.55 Q-41.5 -7.25 -41.5 -8.0 -41.5 -9.2 -40.45 -10.0 -36.45 -13.2 -29.75 -17.25 -29.65 -18.65 -28.8 -19.65 -27.8 -20.85 -25.55 -22.1 -23.3 -23.35 -21.1 -23.45 L-19.8 -23.15 -18.8 -22.25 Q-18.55 -21.95 -18.0 -19.9 -17.45 -17.8 -16.85 -17.1 -15.55 -15.5 -12.95 -15.5 -10.7 -15.5 -9.1 -17.1 -7.5 -18.7 -7.5 -21.0 -7.5 -23.25 -9.15 -24.85 -9.45 -25.2 -10.25 -25.75 -11.45 -26.5 -12.95 -26.5 -13.65 -26.5 -14.25 -26.85 L-14.5 -27.0 Q-15.15 -26.5 -16.0 -26.5 L-17.55 -26.5 Q-17.7 -25.7 -18.3 -25.15 -18.9 -24.65 -19.65 -24.5 L-26.65 -23.5 Q-27.5 -23.4 -28.25 -23.8 -28.95 -24.25 -29.3 -25.0 L-32.3 -32.0 -32.45 -33.5 Q-32.3 -34.25 -31.75 -34.8 L-29.4 -35.75 Q-30.5 -37.65 -30.5 -40.0 L-30.45 -41.2 -31.85 -41.75 Q-32.65 -42.4 -32.8 -43.75 L-33.2 -47.0 -33.15 -47.9 -40.85 -57.05 Q-41.55 -57.85 -41.45 -58.85 -41.35 -59.9 -40.55 -60.55 L-38.25 -62.45 Q-37.45 -63.15 -36.45 -63.05 -35.4 -62.95 -34.75 -62.15 L-27.05 -53.0 -26.25 -52.9 -22.75 -51.9 Q-21.25 -51.45 -20.95 -50.05 -20.8 -49.15 -21.05 -48.45 -19.75 -48.4 -18.4 -47.7 -12.2 -52.15 -4.7 -53.1 L-1.7 -55.85 Q-0.95 -56.5 0.0 -56.5 0.95 -56.5 1.7 -55.85 L4.7 -53.1 Q12.2 -52.15 18.4 -47.7 19.75 -48.4 21.05 -48.45 20.8 -49.15 20.95 -50.05 21.25 -51.45 22.75 -51.9 L26.25 -52.9 27.05 -53.0 34.75 -62.15 Q35.4 -62.95 36.45 -63.05 37.45 -63.15 38.25 -62.45 L40.55 -60.55 Q41.35 -59.9 41.45 -58.85 M0.0 -10.55 L-1.25 -9.2 -2.65 -7.95 -1.8 -7.25 -1.7 -7.15 -1.25 -6.75 -0.05 -5.3 0.0 -5.35 0.05 -5.3 1.25 -6.75 1.7 -7.15 1.8 -7.25 2.65 -7.95 1.25 -9.2 0.0 -10.55" fill="#000000" fill-rule="evenodd" stroke="none"/>
    <path d="M26.25 -44.25 Q28.0 -42.5 28.0 -40.0 28.0 -37.5 26.25 -35.75 24.5 -34.0 22.0 -34.0 19.5 -34.0 17.75 -35.75 16.0 -37.5 16.0 -40.0 16.0 -42.5 17.75 -44.25 19.5 -46.0 22.0 -46.0 24.5 -46.0 26.25 -44.25 M24.55 -37.45 Q25.6 -38.5 25.6 -40.0 25.6 -41.5 24.55 -42.55 23.5 -43.6 22.0 -43.6 20.5 -43.6 19.45 -42.55 18.4 -41.5 18.4 -40.0 18.4 -38.5 19.45 -37.45 20.5 -36.4 22.0 -36.4 23.5 -36.4 24.55 -37.45" fill="url(#gradient0)" fill-rule="evenodd" stroke="none"/>
    <path d="M-16.0 -40.0 Q-16.0 -37.5 -17.75 -35.75 -19.5 -34.0 -22.0 -34.0 -24.5 -34.0 -26.25 -35.75 -28.0 -37.5 -28.0 -40.0 -28.0 -42.5 -26.25 -44.25 -24.5 -46.0 -22.0 -46.0 -19.5 -46.0 -17.75 -44.25 -16.0 -42.5 -16.0 -40.0 M-18.4 -40.0 Q-18.4 -41.5 -19.45 -42.55 -20.5 -43.6 -22.0 -43.6 -23.5 -43.6 -24.55 -42.55 -25.6 -41.5 -25.6 -40.0 -25.6 -38.5 -24.55 -37.45 -23.5 -36.4 -22.0 -36.4 -20.5 -36.4 -19.45 -37.45 -18.4 -38.5 -18.4 -40.0" fill="url(#gradient1)" fill-rule="evenodd" stroke="none"/>
  </g>
  <defs>
    <radialGradient cx="0" cy="0" gradientTransform="matrix(0.0086, 0.0, 0.0, 0.0142, 22.05, -45.85)" gradientUnits="userSpaceOnUse" id="gradient0" r="819.2" spreadMethod="pad">
      <stop offset="0.047058823529411764" stop-color="#eaeaea"/>
      <stop offset="0.6274509803921569" stop-color="#434343"/>
      <stop offset="0.9490196078431372" stop-color="#bbbbbb"/>
    </radialGradient>
    <radialGradient cx="0" cy="0" gradientTransform="matrix(-0.0086, 0.0, 0.0, 0.0142, -22.05, -45.85)" gradientUnits="userSpaceOnUse" id="gradient1" r="819.2" spreadMethod="pad">
      <stop offset="0.047058823529411764" stop-color="#eaeaea"/>
      <stop offset="0.6274509803921569" stop-color="#434343"/>
      <stop offset="0.9490196078431372" stop-color="#bbbbbb"/>
    </radialGradient>
  </defs>
</svg>
