<?xml version="1.0" encoding="UTF-8" standalone="no"?>
<svg xmlns:xlink="http://www.w3.org/1999/xlink" height="101.0px" width="101.0px" xmlns="http://www.w3.org/2000/svg">
  <g transform="matrix(1.0, 0.0, 0.0, 1.0, 50.5, 50.5)">
    <path d="M49.8 -49.75 Q50.5 -49.05 50.5 -48.0 L50.5 48.0 Q50.5 49.05 49.8 49.8 49.05 50.5 48.0 50.5 L-48.0 50.5 Q-49.05 50.5 -49.75 49.8 -50.5 49.05 -50.5 48.0 L-50.5 -48.0 Q-50.5 -49.05 -49.75 -49.75 -49.05 -50.5 -48.0 -50.5 L48.0 -50.5 Q49.05 -50.5 49.8 -49.75" fill="#000000" fill-rule="evenodd" stroke="none"/>
    <path d="M48.0 -48.0 L48.0 48.0 -48.0 48.0 -48.0 -48.0 48.0 -48.0" fill="url(#gradient0)" fill-rule="evenodd" stroke="none"/>
    <path d="M48.0 -40.0 L-48.0 -40.0 -48.0 -41.0 48.0 -41.0 48.0 -40.0 M48.0 -38.0 L-48.0 -38.0 -48.0 -39.0 48.0 -39.0 48.0 -38.0 M48.0 -42.0 L-48.0 -42.0 -48.0 -43.0 48.0 -43.0 48.0 -42.0 M48.0 -36.0 L-48.0 -36.0 -48.0 -37.0 48.0 -37.0 48.0 -36.0 M48.0 -34.0 L-48.0 -34.0 -48.0 -35.0 48.0 -35.0 48.0 -34.0" fill="#3d662f" fill-opacity="0.5019608" fill-rule="evenodd" stroke="none"/>
    <path d="M-48.0 34.0 L48.0 34.0 48.0 35.0 -48.0 35.0 -48.0 34.0 M-48.0 36.0 L48.0 36.0 48.0 37.0 -48.0 37.0 -48.0 36.0 M-48.0 38.0 L48.0 38.0 48.0 39.0 -48.0 39.0 -48.0 38.0 M-48.0 40.0 L48.0 40.0 48.0 41.0 -48.0 41.0 -48.0 40.0 M-48.0 42.0 L48.0 42.0 48.0 43.0 -48.0 43.0 -48.0 42.0" fill="#2f4d24" fill-opacity="0.5019608" fill-rule="evenodd" stroke="none"/>
    <path d="M48.0 -47.0 L-48.0 -47.0 -48.0 -48.0 48.0 -48.0 48.0 -47.0" fill="#a9f78e" fill-rule="evenodd" stroke="none"/>
    <path d="M42.0 -47.0 L42.0 48.0 41.0 48.0 41.0 -47.0 42.0 -47.0" fill="#0f2d04" fill-opacity="0.19215687" fill-rule="evenodd" stroke="none"/>
    <path d="M43.0 -47.0 L43.0 48.0 42.0 48.0 42.0 -47.0 43.0 -47.0" fill="#a9f78e" fill-opacity="0.3019608" fill-rule="evenodd" stroke="none"/>
  </g>
  <defs>
    <linearGradient gradientTransform="matrix(-0.0244, -0.0716, 0.0554, -0.0189, 0.0, 0.0)" gradientUnits="userSpaceOnUse" id="gradient0" spreadMethod="pad" x1="-819.2" x2="819.2">
      <stop offset="0.0" stop-color="#71b92f"/>
      <stop offset="0.00392156862745098" stop-color="#75bb2f"/>
      <stop offset="0.21568627450980393" stop-color="#3d9525"/>
      <stop offset="0.33725490196078434" stop-color="#53993c"/>
      <stop offset="0.8823529411764706" stop-color="#6dd158"/>
    </linearGradient>
  </defs>
</svg>
