<?xml version="1.0" encoding="UTF-8" standalone="no"?>
<svg xmlns:xlink="http://www.w3.org/1999/xlink" height="89.65px" width="33.3px" xmlns="http://www.w3.org/2000/svg">
  <g transform="matrix(1.0, 0.0, 0.0, 1.0, 19.4, 47.0)">
    <path d="M1.95 -37.95 Q6.25 -46.4 9.8 -46.95 L10.1 -47.0 Q13.7 -46.95 13.9 -35.9 14.05 -25.05 9.9 -17.5 8.6 -15.2 5.9 -13.0 L5.85 -13.0 2.0 -10.45 2.0 -2.95 Q4.4 -2.85 6.3 -2.05 9.3 -4.75 12.5 -2.85 13.25 -2.4 13.2 -1.65 13.3 -1.05 11.95 -0.15 10.75 0.65 11.3 2.25 13.3 5.5 13.0 9.85 12.6 15.0 9.4 18.9 6.4 22.5 2.0 23.65 L2.0 30.1 Q1.5 37.5 -3.3 40.8 -7.75 43.8 -12.35 41.95 -15.45 40.7 -17.05 37.85 -18.85 34.8 -17.95 31.75 -17.55 30.05 -16.3 28.45 -14.95 26.65 -13.7 26.25 -11.65 25.45 -8.9 27.9 -5.95 30.55 -6.85 34.7 -7.25 36.6 -9.25 37.55 -7.55 38.1 -5.65 36.85 -2.25 34.6 -2.0 30.0 L-2.0 24.15 Q-8.3 24.35 -13.05 20.4 -18.2 16.05 -19.2 8.75 -20.2 1.15 -16.0 -6.0 -11.5 -13.75 -2.0 -18.6 L-2.0 -25.0 Q-2.15 -30.0 2.0 -37.95 L1.95 -37.95 M2.0 -25.9 L2.0 -20.85 Q5.1 -23.05 8.25 -26.65 9.45 -28.1 9.8 -30.45 L10.0 -35.7 Q8.9 -35.2 6.9 -33.45 2.45 -29.65 2.0 -25.9 M2.0 5.1 L2.0 19.55 Q3.7 18.85 4.9 17.35 6.6 15.15 6.65 12.15 6.75 9.2 5.25 7.15 3.95 5.4 2.0 5.1 M-2.0 -2.6 L-2.0 -8.3 Q-7.7 -5.15 -10.85 -0.25 -13.95 4.65 -13.6 9.8 -13.25 14.65 -9.8 17.5 -6.65 20.1 -2.0 20.1 L-2.0 5.4 Q-4.9 6.25 -5.8 8.95 -7.0 12.75 -3.3 16.3 -3.05 16.55 -3.0 16.95 -2.95 17.3 -3.2 17.6 L-3.8 18.0 -4.5 17.9 Q-13.05 13.05 -10.25 4.95 -9.15 1.55 -6.15 -0.65 -4.25 -2.05 -2.0 -2.6" fill="url(#gradient0)" fill-rule="evenodd" stroke="none"/>
    <path d="M10.0 -46.0 Q12.7 -45.8 12.9 -35.9 13.05 -25.3 9.0 -18.0 7.8 -15.85 5.25 -13.8 L1.0 -11.0 1.0 -2.0 Q4.15 -2.0 6.5 -0.85 9.2 -3.65 12.0 -2.0 12.4 -1.75 11.95 -1.45 L10.9 -0.55 Q9.7 0.65 10.4 2.65 12.25 5.6 12.0 9.75 11.65 14.6 8.6 18.25 5.55 21.9 1.0 22.85 L1.0 30.0 Q0.55 36.9 -3.9 39.95 -7.85 42.65 -12.0 41.0 -14.75 39.9 -16.2 37.35 -17.75 34.7 -17.0 32.0 -16.6 30.5 -15.5 29.05 -14.4 27.55 -13.4 27.2 -11.8 26.65 -9.6 28.65 -7.0 30.9 -7.85 34.45 -8.2 35.95 -9.65 36.6 L-11.65 37.0 Q-8.95 40.15 -5.1 37.7 -1.25 35.2 -1.0 30.0 L-1.0 23.1 Q-7.55 23.65 -12.4 19.6 -17.25 15.5 -18.2 8.6 -19.15 1.35 -15.15 -5.5 -10.65 -13.2 -1.0 -18.0 L-1.0 -25.0 Q-1.15 -29.8 2.85 -37.5 6.85 -45.35 10.0 -46.0 M11.0 -36.0 Q11.0 -38.3 6.25 -34.2 1.45 -30.1 1.0 -26.0 L1.0 -19.0 Q5.0 -21.4 9.0 -26.0 10.4 -27.65 10.8 -30.35 L11.0 -36.0 M1.0 20.85 Q3.9 20.25 5.7 17.95 7.6 15.5 7.65 12.15 7.75 8.85 6.05 6.55 4.15 4.0 1.0 4.0 L1.0 20.85 M-1.0 -10.0 Q-8.05 -6.5 -11.7 -0.8 -15.0 4.4 -14.6 9.85 -14.2 15.15 -10.45 18.25 -6.7 21.4 -1.0 21.1 L-1.0 4.15 Q-5.5 4.85 -6.75 8.6 -8.2 13.0 -4.0 17.0 -11.8 12.6 -9.3 5.25 -8.3 2.15 -5.55 0.15 -3.45 -1.4 -1.0 -1.8 L-1.0 -10.0" fill="url(#gradient1)" fill-rule="evenodd" stroke="none"/>
  </g>
  <defs>
    <linearGradient gradientTransform="matrix(0.0197, 0.0431, -0.0485, 0.0222, 2.65, -3.2)" gradientUnits="userSpaceOnUse" id="gradient0" spreadMethod="pad" x1="-819.2" x2="819.2">
      <stop offset="0.11764705882352941" stop-color="#367421"/>
      <stop offset="1.0" stop-color="#387025"/>
    </linearGradient>
    <linearGradient gradientTransform="matrix(-0.004, 0.0571, -0.0532, -0.0037, 3.05, -1.65)" gradientUnits="userSpaceOnUse" id="gradient1" spreadMethod="pad" x1="-819.2" x2="819.2">
      <stop offset="0.00784313725490196" stop-color="#2cbe8a"/>
      <stop offset="0.4745098039215686" stop-color="#51c837"/>
      <stop offset="0.7294117647058823" stop-color="#83d52a"/>
      <stop offset="1.0" stop-color="#80d52b"/>
    </linearGradient>
  </defs>
</svg>
