<?xml version="1.0" encoding="UTF-8" standalone="no"?>
<svg xmlns:xlink="http://www.w3.org/1999/xlink" height="18.4px" width="67.3px" xmlns="http://www.w3.org/2000/svg">
  <g transform="matrix(1.0, 0.0, 0.0, 1.0, 36.65, 31.5)">
    <path d="M17.35 -25.95 L16.55 -24.9 Q19.9 -24.6 24.35 -22.65 29.85 -20.3 30.15 -18.55 L27.2 -19.85 23.0 -20.0 Q25.1 -19.05 27.1 -17.3 29.65 -15.1 29.4 -13.6 26.45 -17.2 16.7 -18.55 L10.3 -19.45 Q7.45 -20.0 7.05 -20.9 6.8 -21.5 6.9 -22.0 6.8 -22.8 7.1 -23.4 L-3.0 -24.0 -13.1 -23.4 Q-12.85 -22.85 -12.9 -22.1 -12.8 -21.55 -13.05 -20.9 -13.45 -20.0 -16.3 -19.45 L-22.7 -18.55 Q-32.45 -17.2 -35.4 -13.6 -35.65 -15.1 -33.1 -17.3 -31.1 -19.05 -29.0 -20.0 L-33.2 -19.85 -36.15 -18.55 Q-35.85 -20.3 -30.35 -22.65 -25.9 -24.6 -22.5 -24.9 L-23.35 -25.95 Q-24.35 -26.9 -24.0 -27.45 -23.3 -28.6 -16.95 -29.75 -10.25 -30.95 -3.0 -31.0 L10.95 -29.75 Q17.3 -28.6 18.0 -27.45 18.35 -26.9 17.35 -25.95 Z" fill="none" stroke="#7d6724" stroke-linecap="round" stroke-linejoin="round" stroke-width="1.0"/>
    <path d="M10.3 -19.45 Q7.45 -20.0 7.05 -20.9 6.05 -23.25 10.4 -24.35 L15.0 -25.0 Q18.85 -25.05 24.35 -22.65 29.85 -20.3 30.15 -18.55 L27.2 -19.85 23.0 -20.0 Q25.1 -19.05 27.1 -17.3 29.65 -15.1 29.4 -13.6 26.45 -17.2 16.7 -18.55 L10.3 -19.45" fill="url(#gradient0)" fill-rule="evenodd" stroke="none"/>
    <path d="M-21.0 -25.0 L-16.4 -24.35 Q-12.05 -23.25 -13.05 -20.9 -13.45 -20.0 -16.3 -19.45 L-22.7 -18.55 Q-32.45 -17.2 -35.4 -13.6 -35.65 -15.1 -33.1 -17.3 -31.1 -19.05 -29.0 -20.0 L-33.2 -19.85 -36.15 -18.55 Q-35.85 -20.3 -30.35 -22.65 -24.85 -25.05 -21.0 -25.0" fill="url(#gradient1)" fill-rule="evenodd" stroke="none"/>
    <path d="M9.6 -21.9 L6.9 -21.85 Q6.55 -24.75 10.75 -25.15 L15.0 -25.0 15.35 -20.95 Q15.45 -20.0 13.7 -20.2 11.85 -20.45 9.6 -21.9 M-21.0 -25.0 L-16.75 -25.15 Q-12.55 -24.75 -12.9 -21.85 L-15.6 -21.9 Q-17.85 -20.45 -19.7 -20.2 -21.45 -20.0 -21.35 -20.95 L-21.0 -25.0" fill="#7e661d" fill-rule="evenodd" stroke="none"/>
    <path d="M17.35 -25.95 Q15.75 -24.45 15.35 -20.95 14.1 -22.3 8.85 -23.15 L-3.0 -24.0 -14.85 -23.15 Q-20.1 -22.3 -21.35 -20.95 -21.75 -24.45 -23.35 -25.95 -24.35 -26.9 -24.0 -27.45 -23.3 -28.6 -16.95 -29.75 -10.25 -30.95 -3.0 -31.0 L10.95 -29.75 Q17.3 -28.6 18.0 -27.45 18.35 -26.9 17.35 -25.95" fill="url(#gradient2)" fill-rule="evenodd" stroke="none"/>
  </g>
  <defs>
    <linearGradient gradientTransform="matrix(0.0141, 1.0E-4, 0.0, -0.0069, 18.5, -19.65)" gradientUnits="userSpaceOnUse" id="gradient0" spreadMethod="pad" x1="-819.2" x2="819.2">
      <stop offset="0.25098039215686274" stop-color="#a9851d"/>
      <stop offset="0.5686274509803921" stop-color="#ceae1c"/>
      <stop offset="0.7254901960784313" stop-color="#cbaa1c"/>
      <stop offset="0.9137254901960784" stop-color="#b58d17"/>
      <stop offset="1.0" stop-color="#bb921a"/>
    </linearGradient>
    <linearGradient gradientTransform="matrix(-0.0141, 1.0E-4, 0.0, -0.0069, -24.5, -19.65)" gradientUnits="userSpaceOnUse" id="gradient1" spreadMethod="pad" x1="-819.2" x2="819.2">
      <stop offset="0.25098039215686274" stop-color="#a9851d"/>
      <stop offset="0.5686274509803921" stop-color="#ceae1c"/>
      <stop offset="0.7254901960784313" stop-color="#cbaa1c"/>
      <stop offset="0.9137254901960784" stop-color="#b58d17"/>
      <stop offset="1.0" stop-color="#bb921a"/>
    </linearGradient>
    <radialGradient cx="0" cy="0" gradientTransform="matrix(0.0258, 0.0, 0.0, 0.0258, -3.0, -31.0)" gradientUnits="userSpaceOnUse" id="gradient2" r="819.2" spreadMethod="pad">
      <stop offset="0.10980392156862745" stop-color="#e4c845"/>
      <stop offset="0.4980392156862745" stop-color="#dbad2b"/>
      <stop offset="0.8627450980392157" stop-color="#ba8627"/>
      <stop offset="1.0" stop-color="#c5985c"/>
    </radialGradient>
  </defs>
</svg>
