<?xml version="1.0" encoding="UTF-8" standalone="no"?>
<svg xmlns:xlink="http://www.w3.org/1999/xlink" height="151.4px" width="31.0px" xmlns="http://www.w3.org/2000/svg">
  <g transform="matrix(1.0, 0.0, 0.0, 1.0, 15.5, 75.5)">
    <path d="M11.4 -75.1 Q12.05 -74.65 12.35 -73.85 12.65 -73.05 12.4 -72.25 L12.05 -71.05 12.05 -71.0 11.8 -70.25 11.8 -70.15 Q7.35 -53.0 5.95 -10.35 L5.55 6.7 5.55 6.8 Q5.7 12.8 7.35 17.1 7.6 17.8 7.45 18.55 7.3 19.25 6.75 19.8 L5.9 20.35 Q6.4 20.9 6.5 21.7 6.6 22.6 6.1 23.4 5.8 24.2 5.95 27.45 L6.25 30.85 Q7.1 31.35 7.4 32.3 7.7 33.25 7.2 34.2 7.05 34.85 7.2 37.2 L7.2 37.25 Q7.3 38.7 7.55 39.85 L7.75 40.0 Q8.0 39.3 8.65 38.9 L10.0 38.5 Q10.7 38.5 11.35 38.9 14.25 40.75 15.25 42.9 15.65 43.65 15.45 44.55 15.25 45.4 14.6 45.95 13.9 46.5 13.0 46.5 L6.9 46.5 6.45 46.55 Q6.3 47.25 5.8 47.8 L4.8 48.8 4.5 49.0 4.5 49.8 Q5.1 57.05 4.6 64.05 L4.8 64.25 Q5.5 64.95 5.5 66.0 L5.5 67.0 5.35 67.9 5.8 68.25 Q6.5 68.95 6.5 70.0 L6.5 71.0 Q6.5 72.05 5.8 72.8 5.15 73.4 4.25 73.5 L3.5 74.5 Q2.05 75.9 0.0 75.9 -1.95 75.9 -3.45 74.55 L-3.55 74.4 -4.25 73.5 Q-5.15 73.4 -5.75 72.8 -6.5 72.05 -6.5 71.0 L-6.5 70.0 Q-6.5 68.95 -5.75 68.25 L-5.35 67.9 -5.5 67.0 -5.5 66.0 Q-5.5 64.95 -4.75 64.25 L-4.6 64.05 Q-5.15 56.55 -4.5 50.0 L-4.5 49.0 -4.75 48.8 -5.75 47.8 Q-6.3 47.25 -6.45 46.55 L-6.85 46.5 -13.0 46.5 Q-13.9 46.5 -14.55 45.95 -15.25 45.4 -15.45 44.55 -15.65 43.65 -15.2 42.9 -14.25 40.75 -11.35 38.9 -10.75 38.5 -10.0 38.5 L-8.6 38.9 Q-8.0 39.3 -7.7 40.0 L-7.5 39.85 -7.4 39.85 -7.3 39.95 Q-6.2 35.6 -6.3 31.95 L-6.35 30.55 Q-8.3 31.15 -9.15 29.4 -9.75 29.0 -9.45 27.5 L-9.45 27.6 Q-8.6 22.35 -4.8 -21.25 -1.7 -57.4 2.7 -67.95 L2.85 -68.25 Q5.1 -72.1 8.4 -74.9 9.0 -75.45 9.85 -75.5 10.7 -75.55 11.4 -75.1" fill="#000000" fill-rule="evenodd" stroke="none"/>
    <path d="M0.0 73.4 Q-1.0 73.4 -1.75 72.7 -2.4 72.0 -2.4 71.0 -2.4 70.0 -1.75 69.25 -1.0 68.6 0.0 68.6 1.0 68.6 1.7 69.25 2.4 70.0 2.4 71.0 2.4 72.0 1.7 72.7 1.0 73.4 0.0 73.4" fill="url(#gradient0)" fill-rule="evenodd" stroke="none"/>
    <path d="M1.7 72.7 Q1.0 73.4 0.0 73.4 -1.0 73.4 -1.75 72.7 -2.4 72.0 -2.4 71.0 -2.4 70.0 -1.75 69.25 -1.0 68.6 0.0 68.6 1.0 68.6 1.7 69.25 2.4 70.0 2.4 71.0 2.4 72.0 1.7 72.7" fill="url(#gradient1)" fill-rule="evenodd" stroke="none"/>
    <path d="M-4.0 71.0 L-4.0 70.0 -1.75 70.0 -2.0 71.0 -4.0 71.0" fill="url(#gradient2)" fill-rule="evenodd" stroke="none"/>
    <path d="M2.0 71.0 L1.75 70.0 4.0 70.0 4.0 71.0 2.0 71.0" fill="url(#gradient3)" fill-rule="evenodd" stroke="none"/>
    <path d="M3.0 70.0 L1.75 70.0 1.4 69.55 Q0.85 69.0 0.0 69.0 -0.85 69.0 -1.45 69.55 L-1.75 70.0 -3.0 70.0 Q-2.05 68.85 -2.0 67.0 L0.0 67.0 2.0 67.0 Q2.1 68.85 3.0 70.0" fill="url(#gradient4)" fill-rule="evenodd" stroke="none"/>
    <path d="M3.0 67.0 L-3.0 67.0 -3.0 66.0 3.0 66.0 3.0 67.0" fill="url(#gradient5)" fill-rule="evenodd" stroke="none"/>
    <path d="M2.0 50.0 Q2.65 57.65 2.0 65.0 L-2.0 65.0 Q-2.7 56.95 -2.0 50.0 L2.0 50.0" fill="url(#gradient6)" fill-rule="evenodd" stroke="none"/>
    <path d="M2.0 66.0 L-2.0 66.0 -2.0 65.0 2.0 65.0 2.0 66.0" fill="url(#gradient7)" fill-rule="evenodd" stroke="none"/>
    <path d="M2.0 50.0 L-2.0 50.0 -2.0 49.0 2.0 49.0 2.0 50.0" fill="url(#gradient8)" fill-rule="evenodd" stroke="none"/>
    <path d="M2.0 49.0 L-2.0 49.0 Q-2.05 47.25 -3.0 47.0 L0.0 47.0 3.0 47.0 Q2.05 47.25 2.0 49.0" fill="url(#gradient9)" fill-rule="evenodd" stroke="none"/>
    <path d="M3.0 47.0 L-3.0 47.0 -4.0 46.0 4.0 46.0 3.0 47.0" fill="url(#gradient10)" fill-rule="evenodd" stroke="none"/>
    <path d="M0.0 43.0 L6.85 44.0 Q5.6 44.05 4.7 44.6 3.65 45.25 4.0 46.0 L0.0 46.0 -4.0 46.0 Q-3.65 45.25 -4.7 44.6 -5.6 44.05 -6.85 44.0 L0.0 43.0" fill="url(#gradient11)" fill-rule="evenodd" stroke="none"/>
    <path d="M3.0 43.5 L-3.0 43.5 -3.0 41.5 3.0 41.5 3.0 43.5" fill="#000000" fill-rule="evenodd" stroke="none"/>
    <path d="M4.0 48.0 L-4.0 48.0 -4.0 47.0 4.0 47.0 4.0 48.0 M13.0 45.0 L1.8 45.0 Q1.15 44.05 0.0 44.0 -1.15 44.05 -1.8 45.0 L-13.0 45.0 Q-12.2 43.4 -10.0 42.0 -9.4 43.35 -7.5 43.35 -5.55 43.4 -5.0 42.0 L5.0 42.0 Q5.55 43.4 7.5 43.35 9.4 43.35 10.0 42.0 12.2 43.4 13.0 45.0 M4.0 68.0 L-4.0 68.0 -4.0 67.0 4.0 67.0 4.0 68.0" fill="#000000" fill-opacity="0.2" fill-rule="evenodd" stroke="none"/>
    <path d="M10.0 -73.0 Q4.95 -56.35 3.45 -10.45 1.95 33.7 5.0 41.0 L0.0 41.0 -5.0 41.0 Q-3.65 36.0 -3.8 31.85 -3.95 27.35 -6.0 27.0 L-6.75 27.75 -7.0 28.0 Q-6.1 22.75 -2.3 -21.05 0.75 -56.6 5.0 -67.0 L10.0 -73.0" fill="url(#gradient12)" fill-rule="evenodd" stroke="none"/>
    <path d="M-3.7 41.0 L-5.0 41.0 Q-3.65 36.0 -3.8 31.85 -3.95 27.35 -6.0 27.0 L-6.75 27.75 -7.0 28.1 -5.25 25.2 Q-2.95 25.95 -2.5 31.05 -2.05 36.1 -3.7 41.0" fill="url(#gradient13)" fill-rule="evenodd" stroke="none"/>
    <path d="M6.0 -66.0 Q2.4 -57.9 -0.7 -22.7 -4.65 21.7 -5.2 25.1 L-7.0 28.1 -7.0 28.0 Q-6.1 22.75 -2.3 -21.05 0.75 -56.6 5.0 -67.0 L6.0 -66.0" fill="url(#gradient14)" fill-rule="evenodd" stroke="none"/>
    <path d="M6.0 -66.0 L5.0 -67.0 Q7.05 -70.45 10.0 -73.0 L9.25 -70.45 Q7.45 -68.8 6.0 -66.0" fill="#ffffff" fill-rule="evenodd" stroke="none"/>
    <path d="M0.2 41.0 L0.2 25.0 Q0.2 22.15 1.0 19.6 1.65 17.5 2.2 17.0 L2.2 8.0 Q2.25 6.35 3.2 6.0" fill="none" stroke="#000000" stroke-linecap="round" stroke-linejoin="round" stroke-opacity="0.3019608" stroke-width="1.0"/>
    <path d="M2.0 8.0 Q2.05 6.35 3.0 6.0 3.1 13.05 5.0 18.0 1.25 18.75 2.6 29.3 3.35 35.4 5.0 41.0 L0.0 41.0 0.0 25.0 Q0.0 22.15 0.8 19.6 1.45 17.5 2.0 17.0 L2.0 8.0" fill="url(#gradient15)" fill-rule="evenodd" stroke="none"/>
    <path d="M4.0 22.0 Q3.25 23.1 3.45 27.55 3.7 32.25 5.0 33.0 4.5 33.95 4.7 37.35 4.9 41.2 6.0 43.0 L4.0 43.0 Q2.8 39.15 3.0 34.0 1.8 32.55 1.8 27.15 1.8 21.65 3.15 19.4 3.05 20.15 3.35 20.95 3.6 21.65 4.0 22.0" fill="url(#gradient16)" fill-rule="evenodd" stroke="none"/>
    <path d="M7.0 43.0 L4.0 43.0 Q2.8 39.15 3.0 34.0 1.8 32.55 1.8 27.15 1.8 21.65 3.15 19.4" fill="none" stroke="#000000" stroke-linecap="round" stroke-linejoin="round" stroke-opacity="0.3019608" stroke-width="0.25"/>
    <path d="M1.5 36.0 L1.5 41.0 1.35 41.35 1.0 41.5 -1.0 41.5 -1.35 41.35 -1.5 41.0 -1.5 36.0 -1.35 35.65 -0.35 34.65 0.0 34.5 0.35 34.65 1.35 35.65 1.5 36.0" fill="#000000" fill-opacity="0.2" fill-rule="evenodd" stroke="none"/>
    <path d="M1.0 36.0 L1.0 41.0 -1.0 41.0 -1.0 36.0 0.0 35.0 1.0 36.0" fill="#000000" fill-opacity="0.8" fill-rule="evenodd" stroke="none"/>
    <path d="M5.0 41.0 Q5.55 42.4 7.5 42.35 9.4 42.35 10.0 41.0 12.2 42.4 13.0 44.0 L1.8 44.0 Q1.15 43.05 0.0 43.0 -1.15 43.05 -1.8 44.0 L-13.0 44.0 Q-12.2 42.4 -10.0 41.0 -9.4 42.35 -7.5 42.35 -5.55 42.4 -5.0 41.0 L5.0 41.0" fill="url(#gradient17)" fill-rule="evenodd" stroke="none"/>
  </g>
  <defs>
    <radialGradient cx="0" cy="0" gradientTransform="matrix(0.0038, 0.0, 0.0, 0.0038, 0.75, 71.35)" gradientUnits="userSpaceOnUse" id="gradient0" r="819.2" spreadMethod="pad">
      <stop offset="0.09803921568627451" stop-color="#ffffff"/>
      <stop offset="0.1803921568627451" stop-color="#a5efa5"/>
      <stop offset="0.3254901960784314" stop-color="#21c92d"/>
      <stop offset="0.47843137254901963" stop-color="#129825"/>
      <stop offset="0.7450980392156863" stop-color="#16692b"/>
      <stop offset="0.9882352941176471" stop-color="#3e691d"/>
    </radialGradient>
    <radialGradient cx="0" cy="0" gradientTransform="matrix(0.0037, 0.0, 0.0, 0.0037, 0.45, 70.5)" gradientUnits="userSpaceOnUse" id="gradient1" r="819.2" spreadMethod="pad">
      <stop offset="0.10980392156862745" stop-color="#eac9aa"/>
      <stop offset="0.17254901960784313" stop-color="#e39122"/>
      <stop offset="0.36470588235294116" stop-color="#6c3613"/>
      <stop offset="0.7607843137254902" stop-color="#753a14"/>
      <stop offset="0.8862745098039215" stop-color="#a5511b"/>
    </radialGradient>
    <linearGradient gradientTransform="matrix(0.0049, 0.0, 0.0, 6.0E-4, 0.0, 70.55)" gradientUnits="userSpaceOnUse" id="gradient2" spreadMethod="pad" x1="-819.2" x2="819.2">
      <stop offset="0.0" stop-color="#5a4f41"/>
      <stop offset="0.17254901960784313" stop-color="#675a49"/>
      <stop offset="0.34509803921568627" stop-color="#9b8c71"/>
      <stop offset="0.49019607843137253" stop-color="#d5c79e"/>
      <stop offset="0.5411764705882353" stop-color="#d5c79e"/>
      <stop offset="0.6901960784313725" stop-color="#9b8c71"/>
      <stop offset="0.8431372549019608" stop-color="#675a49"/>
      <stop offset="1.0" stop-color="#5a4f41"/>
    </linearGradient>
    <linearGradient gradientTransform="matrix(0.0049, 0.0, 0.0, 6.0E-4, 0.0, 70.7)" gradientUnits="userSpaceOnUse" id="gradient3" spreadMethod="pad" x1="-819.2" x2="819.2">
      <stop offset="0.0" stop-color="#5a4f41"/>
      <stop offset="0.17254901960784313" stop-color="#675a49"/>
      <stop offset="0.34509803921568627" stop-color="#9b8c71"/>
      <stop offset="0.49019607843137253" stop-color="#d5c79e"/>
      <stop offset="0.5411764705882353" stop-color="#d5c79e"/>
      <stop offset="0.6901960784313725" stop-color="#9b8c71"/>
      <stop offset="0.8431372549019608" stop-color="#675a49"/>
      <stop offset="1.0" stop-color="#5a4f41"/>
    </linearGradient>
    <radialGradient cx="0" cy="0" gradientTransform="matrix(1.0E-4, -0.0096, 0.0052, 1.0E-4, 0.0, 67.0)" gradientUnits="userSpaceOnUse" id="gradient4" r="819.2" spreadMethod="pad">
      <stop offset="0.01568627450980392" stop-color="#d5c79e"/>
      <stop offset="0.2823529411764706" stop-color="#9b8c71"/>
      <stop offset="0.6392156862745098" stop-color="#4f4237"/>
      <stop offset="0.796078431372549" stop-color="#413830"/>
    </radialGradient>
    <linearGradient gradientTransform="matrix(0.0037, 0.0, 0.0, 6.0E-4, 0.0, 66.5)" gradientUnits="userSpaceOnUse" id="gradient5" spreadMethod="pad" x1="-819.2" x2="819.2">
      <stop offset="0.0" stop-color="#5a4f41"/>
      <stop offset="0.17254901960784313" stop-color="#675a49"/>
      <stop offset="0.34509803921568627" stop-color="#9b8c71"/>
      <stop offset="0.49019607843137253" stop-color="#d5c79e"/>
      <stop offset="0.5411764705882353" stop-color="#d5c79e"/>
      <stop offset="0.6901960784313725" stop-color="#9b8c71"/>
      <stop offset="0.8431372549019608" stop-color="#675a49"/>
      <stop offset="1.0" stop-color="#5a4f41"/>
    </linearGradient>
    <linearGradient gradientTransform="matrix(0.0037, 0.0, 0.0, 0.0092, -0.05, 57.5)" gradientUnits="userSpaceOnUse" id="gradient6" spreadMethod="pad" x1="-819.2" x2="819.2">
      <stop offset="0.00784313725490196" stop-color="#7d2d2d"/>
      <stop offset="0.11764705882352941" stop-color="#3f1616"/>
      <stop offset="0.27450980392156865" stop-color="#6c2828"/>
      <stop offset="0.4588235294117647" stop-color="#aa4040"/>
      <stop offset="0.5607843137254902" stop-color="#aa4040"/>
      <stop offset="0.7254901960784313" stop-color="#6c2828"/>
      <stop offset="0.8784313725490196" stop-color="#3f1616"/>
      <stop offset="1.0" stop-color="#7d2d2d"/>
    </linearGradient>
    <linearGradient gradientTransform="matrix(0.0024, 0.0, 0.0, 6.0E-4, 0.0, 65.5)" gradientUnits="userSpaceOnUse" id="gradient7" spreadMethod="pad" x1="-819.2" x2="819.2">
      <stop offset="0.0" stop-color="#5a4f41"/>
      <stop offset="0.17254901960784313" stop-color="#675a49"/>
      <stop offset="0.34509803921568627" stop-color="#9b8c71"/>
      <stop offset="0.49019607843137253" stop-color="#d5c79e"/>
      <stop offset="0.5411764705882353" stop-color="#d5c79e"/>
      <stop offset="0.6901960784313725" stop-color="#9b8c71"/>
      <stop offset="0.8431372549019608" stop-color="#675a49"/>
      <stop offset="1.0" stop-color="#5a4f41"/>
    </linearGradient>
    <linearGradient gradientTransform="matrix(0.0024, 0.0, 0.0, 6.0E-4, 0.0, 49.5)" gradientUnits="userSpaceOnUse" id="gradient8" spreadMethod="pad" x1="-819.2" x2="819.2">
      <stop offset="0.0" stop-color="#5a4f41"/>
      <stop offset="0.17254901960784313" stop-color="#675a49"/>
      <stop offset="0.34509803921568627" stop-color="#9b8c71"/>
      <stop offset="0.49019607843137253" stop-color="#d5c79e"/>
      <stop offset="0.5411764705882353" stop-color="#d5c79e"/>
      <stop offset="0.6901960784313725" stop-color="#9b8c71"/>
      <stop offset="0.8431372549019608" stop-color="#675a49"/>
      <stop offset="1.0" stop-color="#5a4f41"/>
    </linearGradient>
    <linearGradient gradientTransform="matrix(0.0037, 0.0, 0.0, 0.0012, 0.0, 48.0)" gradientUnits="userSpaceOnUse" id="gradient9" spreadMethod="pad" x1="-819.2" x2="819.2">
      <stop offset="0.00784313725490196" stop-color="#7d2d2d"/>
      <stop offset="0.11764705882352941" stop-color="#3f1616"/>
      <stop offset="0.27450980392156865" stop-color="#6c2828"/>
      <stop offset="0.4588235294117647" stop-color="#aa4040"/>
      <stop offset="0.5607843137254902" stop-color="#aa4040"/>
      <stop offset="0.7254901960784313" stop-color="#6c2828"/>
      <stop offset="0.8784313725490196" stop-color="#3f1616"/>
      <stop offset="1.0" stop-color="#7d2d2d"/>
    </linearGradient>
    <linearGradient gradientTransform="matrix(0.0049, 0.0, 0.0, 6.0E-4, 0.0, 46.5)" gradientUnits="userSpaceOnUse" id="gradient10" spreadMethod="pad" x1="-819.2" x2="819.2">
      <stop offset="0.0" stop-color="#5a4f41"/>
      <stop offset="0.17254901960784313" stop-color="#675a49"/>
      <stop offset="0.34509803921568627" stop-color="#9b8c71"/>
      <stop offset="0.49019607843137253" stop-color="#d5c79e"/>
      <stop offset="0.5411764705882353" stop-color="#d5c79e"/>
      <stop offset="0.6901960784313725" stop-color="#9b8c71"/>
      <stop offset="0.8431372549019608" stop-color="#675a49"/>
      <stop offset="1.0" stop-color="#5a4f41"/>
    </linearGradient>
    <radialGradient cx="0" cy="0" gradientTransform="matrix(0.0084, 0.0, 0.0, 0.0084, 0.0, 42.0)" gradientUnits="userSpaceOnUse" id="gradient11" r="819.2" spreadMethod="pad">
      <stop offset="0.01568627450980392" stop-color="#d5c79e"/>
      <stop offset="0.4470588235294118" stop-color="#9b8c71"/>
      <stop offset="0.7098039215686275" stop-color="#4f4237"/>
      <stop offset="0.8862745098039215" stop-color="#5a4f41"/>
    </radialGradient>
    <linearGradient gradientTransform="matrix(0.039, -0.045, 0.0525, 0.0455, 1.5, -16.0)" gradientUnits="userSpaceOnUse" id="gradient12" spreadMethod="pad" x1="-819.2" x2="819.2">
      <stop offset="0.0" stop-color="#9f9f9f"/>
      <stop offset="0.3333333333333333" stop-color="#9b9b9b"/>
      <stop offset="0.7333333333333333" stop-color="#bfbfbf"/>
      <stop offset="1.0" stop-color="#757575"/>
    </linearGradient>
    <linearGradient gradientTransform="matrix(0.0048, -0.0068, 0.0079, 0.0056, -4.65, 33.1)" gradientUnits="userSpaceOnUse" id="gradient13" spreadMethod="pad" x1="-819.2" x2="819.2">
      <stop offset="0.0" stop-color="#d5d5d5"/>
      <stop offset="0.9686274509803922" stop-color="#6a6a6a"/>
    </linearGradient>
    <linearGradient gradientTransform="matrix(0.0321, -0.0365, 0.0435, 0.0383, -0.5, -19.45)" gradientUnits="userSpaceOnUse" id="gradient14" spreadMethod="pad" x1="-819.2" x2="819.2">
      <stop offset="0.0" stop-color="#e2e2e2"/>
      <stop offset="0.4235294117647059" stop-color="#d5d5d5"/>
      <stop offset="0.5215686274509804" stop-color="#f8f8f8"/>
      <stop offset="0.6980392156862745" stop-color="#ffffff"/>
      <stop offset="0.8235294117647058" stop-color="#ededed"/>
      <stop offset="1.0" stop-color="#c2c2c2"/>
    </linearGradient>
    <linearGradient gradientTransform="matrix(0.0111, -0.0126, 0.016, 0.0141, 2.5, 23.5)" gradientUnits="userSpaceOnUse" id="gradient15" spreadMethod="pad" x1="-819.2" x2="819.2">
      <stop offset="0.0" stop-color="#785c5c"/>
      <stop offset="0.30980392156862746" stop-color="#483837"/>
      <stop offset="0.596078431372549" stop-color="#654745"/>
      <stop offset="0.7490196078431373" stop-color="#815c5a"/>
      <stop offset="0.9372549019607843" stop-color="#483737"/>
    </linearGradient>
    <linearGradient gradientTransform="matrix(0.006, -0.021, 0.0138, 0.004, 5.5, 23.85)" gradientUnits="userSpaceOnUse" id="gradient16" spreadMethod="pad" x1="-819.2" x2="819.2">
      <stop offset="0.0" stop-color="#785c5c"/>
      <stop offset="0.2784313725490196" stop-color="#483837"/>
      <stop offset="0.43137254901960786" stop-color="#654745"/>
      <stop offset="0.5686274509803921" stop-color="#815c5a"/>
    </linearGradient>
    <linearGradient gradientTransform="matrix(0.0171, 0.0, 0.0, 0.0018, 0.0, 42.5)" gradientUnits="userSpaceOnUse" id="gradient17" spreadMethod="pad" x1="-819.2" x2="819.2">
      <stop offset="0.0" stop-color="#8d7d63"/>
      <stop offset="0.06666666666666667" stop-color="#675a49"/>
      <stop offset="0.26666666666666666" stop-color="#9b8c71"/>
      <stop offset="0.37254901960784315" stop-color="#898065"/>
      <stop offset="0.49019607843137253" stop-color="#d5c79e"/>
      <stop offset="0.5411764705882353" stop-color="#d5c79e"/>
      <stop offset="0.6470588235294118" stop-color="#898065"/>
      <stop offset="0.7607843137254902" stop-color="#9b8c71"/>
      <stop offset="0.8313725490196079" stop-color="#675a49"/>
      <stop offset="0.8901960784313725" stop-color="#8d7d63"/>
    </linearGradient>
  </defs>
</svg>
