<?xml version="1.0" encoding="UTF-8" standalone="no"?>
<svg xmlns:xlink="http://www.w3.org/1999/xlink" height="220.25px" width="7.05px" xmlns="http://www.w3.org/2000/svg">
  <g transform="matrix(1.0, 0.0, 0.0, 1.0, 3.5, 262.25)">
    <path d="M2.55 -258.9 L2.55 -258.75 2.55 -45.45 Q2.5 -44.45 1.8 -43.75 1.05 -43.0 0.0 -43.0 -1.05 -43.0 -1.8 -43.75 -2.5 -44.45 -2.5 -45.45 L-2.5 -258.75 -2.5 -258.9 Q-2.45 -259.85 -1.8 -260.5 L-1.75 -260.5 Q-1.05 -261.25 0.0 -261.25 1.05 -261.25 1.8 -260.5 2.45 -259.85 2.55 -258.9" fill="#fbfffd" fill-rule="evenodd" stroke="none"/>
    <path d="M2.55 -258.9 L2.55 -258.75 2.55 -45.45 Q2.5 -44.45 1.8 -43.75 1.05 -43.0 0.0 -43.0 -1.05 -43.0 -1.8 -43.75 -2.5 -44.45 -2.5 -45.45 L-2.5 -258.75 -2.5 -258.9 Q-2.45 -259.85 -1.8 -260.5 L-1.75 -260.5 Q-1.05 -261.25 0.0 -261.25 1.05 -261.25 1.8 -260.5 2.45 -259.85 2.55 -258.9 Z" fill="none" stroke="#fff495" stroke-linecap="round" stroke-linejoin="round" stroke-opacity="0.5019608" stroke-width="2.0"/>
  </g>
</svg>
