<?xml version="1.0" encoding="UTF-8" standalone="no"?>
<svg xmlns:xlink="http://www.w3.org/1999/xlink" height="51.75px" width="7.05px" xmlns="http://www.w3.org/2000/svg">
  <g transform="matrix(1.0, 0.0, 0.0, 1.0, 3.5, 47.75)">
    <path d="M2.55 -44.25 L2.55 0.55 Q2.5 1.55 1.8 2.25 1.05 3.0 0.0 3.0 -1.05 3.0 -1.8 2.25 -2.5 1.55 -2.5 0.55 L-2.5 -44.25 -2.5 -44.4 Q-2.45 -45.35 -1.8 -46.0 L-1.75 -46.0 Q-1.05 -46.75 0.0 -46.75 1.05 -46.75 1.8 -46.0 2.45 -45.35 2.55 -44.4 L2.55 -44.25" fill="#fbfffd" fill-rule="evenodd" stroke="none"/>
    <path d="M2.55 -44.25 L2.55 0.55 Q2.5 1.55 1.8 2.25 1.05 3.0 0.0 3.0 -1.05 3.0 -1.8 2.25 -2.5 1.55 -2.5 0.55 L-2.5 -44.25 -2.5 -44.4 Q-2.45 -45.35 -1.8 -46.0 L-1.75 -46.0 Q-1.05 -46.75 0.0 -46.75 1.05 -46.75 1.8 -46.0 2.45 -45.35 2.55 -44.4 L2.55 -44.25 Z" fill="none" stroke="#fff495" stroke-linecap="round" stroke-linejoin="round" stroke-opacity="0.5019608" stroke-width="2.0"/>
  </g>
</svg>
