<?xml version="1.0" encoding="UTF-8" standalone="no"?>
<svg xmlns:xlink="http://www.w3.org/1999/xlink" height="21.45px" width="12.15px" xmlns="http://www.w3.org/2000/svg">
  <g transform="matrix(1.0, 0.0, 0.0, 1.0, 21.7, 32.5)">
    <path d="M-10.85 -25.75 Q-10.85 -24.6 -11.5 -23.25 L-12.9 -20.65 -14.65 -18.15 Q-15.5 -16.95 -16.0 -16.65 L-10.55 -16.65 -12.35 -12.05 -20.7 -12.05 -19.0 -15.4 -17.25 -18.35 Q-16.4 -19.85 -15.85 -21.25 -15.25 -22.7 -15.25 -24.0 -15.25 -25.0 -15.7 -25.6 -16.15 -26.15 -16.85 -26.45 L-18.4 -26.8 -20.25 -26.9 -17.35 -31.5 Q-15.7 -31.5 -14.55 -31.0 L-12.55 -29.65 Q-11.75 -28.8 -11.3 -27.8 -10.85 -26.8 -10.85 -25.75 Z" fill="none" stroke="#000000" stroke-linecap="round" stroke-linejoin="round" stroke-width="2.0"/>
    <path d="M-10.85 -25.75 Q-10.85 -24.6 -11.5 -23.25 L-12.9 -20.65 -14.65 -18.15 Q-15.5 -16.95 -16.0 -16.65 L-10.55 -16.65 -12.35 -12.05 -20.7 -12.05 -19.0 -15.4 -17.25 -18.35 Q-16.4 -19.85 -15.85 -21.25 -15.25 -22.7 -15.25 -24.0 -15.25 -25.0 -15.7 -25.6 -16.15 -26.15 -16.85 -26.45 L-18.4 -26.8 -20.25 -26.9 -17.35 -31.5 Q-15.7 -31.5 -14.55 -31.0 L-12.55 -29.65 Q-11.75 -28.8 -11.3 -27.8 -10.85 -26.8 -10.85 -25.75" fill="#ffffff" fill-rule="evenodd" stroke="none"/>
  </g>
</svg>
