<?xml version="1.0" encoding="UTF-8" standalone="no"?>
<svg xmlns:xlink="http://www.w3.org/1999/xlink" height="40.0px" width="40.0px" xmlns="http://www.w3.org/2000/svg">
  <g transform="matrix(1.0, 0.0, 0.0, 1.0, 0.0, 0.0)">
    <path d="M0.0 38.0 L0.0 2.0 Q0.0 0.0 2.0 0.0 L38.0 0.0 Q40.0 0.0 40.0 2.0 L40.0 38.0 Q40.0 40.0 38.0 40.0 L2.0 40.0 Q0.0 40.0 0.0 38.0" fill="#57c4df" fill-rule="evenodd" stroke="none"/>
    <path d="M38.0 3.0 L38.0 37.0 Q38.0 38.0 37.0 38.0 L3.0 38.0 Q2.0 38.0 2.0 37.0 L2.0 3.0 Q2.0 2.0 3.0 2.0 L37.0 2.0 Q38.0 2.0 38.0 3.0" fill="#e8e8e8" fill-rule="evenodd" stroke="none"/>
    <path d="M36.0 5.0 L36.0 35.0 Q36.0 36.0 35.0 36.0 L5.0 36.0 Q4.0 36.0 4.0 35.0 L4.0 5.0 Q4.0 4.0 5.0 4.0 L35.0 4.0 Q36.0 4.0 36.0 5.0" fill="#ffffff" fill-rule="evenodd" stroke="none"/>
  </g>
</svg>
