<?xml version="1.0" encoding="UTF-8" standalone="no"?>
<svg xmlns:xlink="http://www.w3.org/1999/xlink" height="807.55px" width="343.9px" xmlns="http://www.w3.org/2000/svg">
  <g transform="matrix(1.0, 0.0, 0.0, 1.0, 0.35, 600.35)">
    <path d="M343.2 -600.0 L343.2 -495.45 321.85 -464.8 Q327.0 -451.65 329.8 -433.85 331.7 -421.7 332.5 -407.4 L332.6 86.25 332.1 86.25 329.25 85.5 329.35 -403.9 Q328.5 -417.8 326.6 -429.65 323.8 -447.25 318.75 -460.3 L216.1 -312.85 Q219.9 -303.6 221.8 -291.65 L206.5 -271.55 Q202.6 -280.45 197.05 -285.5 190.45 -291.55 181.5 -292.25 L181.5 -292.5 181.6 -292.75 205.25 -330.15 199.65 -334.25 Q196.5 -336.4 193.75 -337.45 L181.5 -315.65 160.0 -315.65 177.75 -350.4 167.35 -350.65 246.85 -515.9 237.75 -539.65 240.0 -544.75 249.25 -520.9 287.25 -600.0 319.35 -600.0 277.0 -520.9 276.85 -520.15 277.1 -505.15 329.5 -600.0 343.2 -600.0 M274.45 -499.9 L274.5 -500.25 274.25 -515.4 186.1 -350.4 186.25 -340.0 274.35 -499.9 274.45 -499.9 M160.1 -301.65 L160.0 -301.15 125.25 -236.4 112.75 -236.4 112.6 -236.65 113.85 -238.65 144.0 -301.65 160.1 -301.65 M137.85 -223.0 L131.75 -227.5 125.1 -229.0 160.25 -292.15 Q177.15 -290.15 185.55 -269.05 L145.25 -211.15 143.0 -216.0 137.85 -223.0 M124.75 -228.0 L131.25 -226.65 137.25 -222.25 142.5 -215.25 144.7 -210.35 118.9 -173.25 Q121.35 -167.6 122.25 -160.6 L121.55 -159.7 Q120.35 -162.35 118.85 -164.6 117.3 -166.9 115.55 -168.5 111.6 -172.2 106.75 -172.4 L106.75 -172.65 106.75 -172.75 113.1 -182.5 Q109.9 -185.35 107.1 -186.65 L106.6 -186.15 94.0 -186.15 97.85 -193.75 92.1 -193.9 112.25 -235.4 124.85 -235.4 124.6 -234.75 102.5 -193.75 102.6 -188.15 124.75 -228.0 M93.85 -177.15 L80.6 -152.65 80.5 -152.0 70.6 -133.9 63.5 -133.9 63.5 -134.25 72.5 -152.65 72.5 -153.0 84.6 -177.9 94.0 -177.9 93.85 -177.15 M109.05 -159.15 L81.6 -119.75 Q78.4 -122.0 75.5 -122.65 L75.5 -122.7 77.75 -126.1 75.5 -128.0 Q73.35 -129.5 70.75 -130.25 L80.6 -147.75 80.6 -148.25 80.75 -148.25 94.0 -172.25 Q103.35 -171.75 108.8 -159.75 L109.05 -159.15 M66.35 -125.5 L59.35 -112.9 59.35 -112.4 53.85 -102.4 48.35 -102.4 48.35 -102.75 53.5 -112.9 53.35 -113.15 59.75 -126.15 66.5 -126.15 66.35 -125.5 M76.85 -112.9 L62.55 -92.35 61.3 -94.45 Q58.35 -98.75 54.0 -99.9 L66.5 -122.25 Q73.15 -122.1 76.85 -112.9 M316.6 99.1 L319.6 100.0 319.5 206.25 316.5 204.3 316.6 99.1 M309.25 96.6 L309.25 85.5 312.25 86.35 312.25 97.6 309.25 96.6" fill="#100f10" fill-rule="evenodd" stroke="none"/>
    <path d="M208.35 -266.85 Q210.95 -259.4 212.3 -250.6 L213.1 -243.25 213.6 49.75 201.85 49.75 201.85 56.25 206.1 57.6 206.1 120.0 184.3 120.05 184.75 56.25 180.35 56.25 180.35 49.75 192.0 49.75 192.35 -234.25 191.75 -242.75 Q190.6 -253.05 188.05 -261.8 179.85 -289.8 160.25 -292.15 L160.0 -301.15 160.1 -301.65 144.0 -301.65 138.6 -315.4 160.0 -315.65 181.5 -315.65 181.6 -292.75 181.5 -292.5 181.5 -292.25 Q199.9 -290.8 208.35 -266.85 M121.7 -159.35 L122.6 -157.0 122.75 -156.25 123.1 29.1 118.6 29.1 118.6 31.75 115.6 31.85 115.6 36.0 118.35 36.85 118.35 70.6 108.5 70.65 108.75 33.6 108.5 33.0 105.85 32.85 106.0 29.1 112.75 29.1 113.0 -139.9 Q113.1 -150.2 108.8 -159.75 103.35 -171.75 94.0 -172.25 L93.85 -177.15 94.0 -177.9 84.6 -177.9 81.75 -185.5 81.35 -185.75 81.75 -186.15 94.0 -186.15 106.6 -186.15 106.75 -172.75 106.75 -172.65 106.6 -172.4 Q113.65 -172.2 118.85 -164.6 120.45 -162.2 121.7 -159.35 M82.0 -119.45 L82.4 -118.5 Q84.6 -112.65 84.5 -106.4 L84.85 20.75 84.0 20.6 84.0 21.75 79.6 21.85 79.6 24.75 81.6 25.35 81.6 49.85 76.75 49.7 76.75 23.25 75.0 23.25 75.0 20.5 79.6 20.5 80.0 -98.0 Q80.0 -103.6 77.6 -110.8 73.85 -122.1 66.5 -122.25 L66.35 -125.5 66.5 -126.15 59.75 -126.15 57.5 -131.75 66.5 -132.0 70.6 -132.0 70.75 -130.25 Q73.35 -129.5 75.5 -128.0 L75.5 -122.7 75.5 -122.65 Q78.55 -121.95 82.0 -119.45" fill="#cccccc" fill-opacity="0.15294118" fill-rule="evenodd" stroke="none"/>
    <path d="M160.0 -315.65 L177.75 -350.4 167.35 -350.65 161.35 -367.25 237.75 -539.65 240.0 -544.75 262.85 -597.15 262.25 -600.0 264.1 -600.0 287.25 -600.0 319.35 -600.0 329.5 -600.0 343.2 -600.0 M262.85 -597.15 L264.1 -600.0 M237.75 -539.65 L246.85 -515.9 274.35 -515.9 274.25 -515.4 274.5 -500.25 274.35 -499.9 Q299.2 -495.95 312.6 -473.2 326.5 -449.6 329.35 -403.9 L329.25 85.5 332.1 86.25 332.6 86.25 332.5 -407.4 Q329.9 -453.3 316.0 -477.05 302.5 -500.1 277.0 -504.65 L277.0 -504.9 277.1 -505.15 276.85 -520.15 277.0 -520.9 249.25 -520.9 240.0 -544.75 M287.25 -600.0 L249.25 -520.9 M277.0 -520.9 L319.35 -600.0 M181.5 -315.65 L193.75 -337.45 186.1 -339.5 186.25 -340.0 186.1 -350.4 177.75 -350.4 M181.6 -292.75 L205.25 -330.15 199.65 -334.25 Q196.5 -336.4 193.75 -337.45 M208.35 -266.85 Q199.9 -290.8 181.5 -292.25 L181.5 -292.5 181.6 -292.75 181.5 -315.65 160.0 -315.65 138.6 -315.4 144.0 -301.65 160.1 -301.65 160.0 -301.15 160.25 -292.15 Q179.85 -289.8 188.05 -261.8 190.6 -253.05 191.75 -242.75 L192.35 -234.25 192.0 49.75 180.35 49.75 180.35 56.25 184.75 56.25 184.3 120.05 206.1 120.0 206.1 57.6 201.85 56.25 201.85 49.75 213.6 49.75 213.1 -243.25 212.3 -250.6 Q210.95 -259.4 208.35 -266.85 M213.6 49.75 L223.5 52.0 223.5 -273.0 Q222.1 -312.25 205.25 -330.15 M94.0 -186.15 L97.85 -193.75 92.1 -193.9 88.75 -202.65 108.0 -246.15 108.5 -247.0 119.5 -272.65 115.75 -290.9 99.75 -325.0 78.5 -353.25 53.75 -373.25 27.1 -386.0 0.0 -395.25 0.0 -396.85 27.25 -387.5 54.1 -374.65 78.85 -354.5 100.1 -326.5 116.25 -292.25 119.85 -273.5 138.6 -315.4 M0.0 -256.0 L17.35 -250.15 34.6 -241.9 17.5 -250.75 0.2 -256.55 M119.5 -272.65 L119.85 -273.5 M108.0 -246.15 L112.25 -235.4 124.85 -235.4 124.6 -234.75 124.85 -228.65 125.1 -229.0 125.1 -235.5 125.25 -236.4 112.75 -236.4 112.6 -236.65 108.5 -247.0 M112.6 -236.65 L113.85 -238.65 144.0 -301.65 M124.6 -234.75 L102.5 -193.75 102.6 -188.15 124.75 -228.0 124.85 -228.65 M123.1 29.1 L123.25 30.25 123.1 31.75 149.6 38.75 150.0 38.75 149.75 -184.4 149.0 -195.75 146.5 -206.4 142.5 -215.25 137.25 -222.25 131.25 -226.65 124.75 -228.0 M160.25 -292.15 L125.1 -229.0 131.75 -227.5 137.85 -223.0 143.0 -216.0 147.1 -207.15 149.5 -196.25 150.35 -184.9 150.25 38.85 192.0 49.75 M160.0 -301.15 L125.25 -236.4 M150.35 -184.9 L149.75 -184.4 M121.7 -159.35 Q120.45 -162.2 118.85 -164.6 113.65 -172.2 106.6 -172.4 L106.75 -172.65 106.75 -172.75 106.6 -186.15 94.0 -186.15 81.75 -186.15 81.35 -185.75 81.75 -185.5 84.6 -177.9 94.0 -177.9 93.85 -177.15 94.0 -172.25 Q103.35 -171.75 108.8 -159.75 113.1 -150.2 113.0 -139.9 L112.75 29.1 106.0 29.1 105.85 32.85 108.5 33.0 108.75 33.6 108.5 70.65 118.35 70.6 118.35 36.85 115.6 36.0 115.6 31.85 118.6 31.75 118.6 29.1 123.1 29.1 122.75 -156.25 122.6 -157.0 121.7 -159.35 M106.6 -186.15 L107.1 -186.65 102.5 -187.65 102.6 -188.15 M107.1 -186.65 Q109.9 -185.35 113.1 -182.5 121.5 -172.9 122.6 -157.0 M102.5 -193.75 L97.85 -193.75 M113.1 -182.5 L106.75 -172.75 M75.5 -128.0 Q73.35 -129.5 70.75 -130.25 L70.6 -132.0 66.5 -132.0 57.5 -131.75 59.75 -126.15 66.5 -126.15 66.35 -125.5 66.5 -122.25 Q73.85 -122.1 77.6 -110.8 80.0 -103.6 80.0 -98.0 L79.6 20.5 75.0 20.5 75.0 23.25 76.75 23.25 76.75 49.7 81.6 49.85 81.6 25.35 79.6 24.75 79.6 21.85 84.0 21.75 84.0 20.6 84.85 20.75 84.5 -106.4 Q84.6 -112.65 82.4 -118.5 L82.0 -119.45 M75.5 -128.0 L77.75 -126.1 Q80.35 -123.5 82.0 -119.45 M81.35 -185.75 L77.1 -176.75 69.75 -159.5 72.5 -152.65 72.5 -153.0 84.6 -177.9 M72.5 -152.65 L80.6 -152.65 93.85 -177.15 M80.6 -152.65 L80.5 -152.0 80.6 -148.25 80.75 -148.25 94.0 -172.25 M70.75 -130.25 L80.6 -147.75 80.6 -148.25 M70.6 -132.0 L70.6 -133.9 67.35 -133.9 66.5 -132.0 M67.35 -133.9 L63.5 -133.9 63.5 -134.25 61.1 -140.15 69.75 -159.5 M0.15 -189.7 Q46.65 -176.7 56.85 -131.15 L56.85 -130.9 57.5 -131.75 M53.5 -112.9 L48.35 -102.75 48.35 -102.4 53.85 -102.4 59.35 -112.4 59.35 -112.9 53.5 -112.9 53.35 -113.15 53.35 -113.25 51.25 -118.1 46.6 -107.4 48.35 -102.75 M53.85 -102.4 L54.0 -99.9 59.5 -109.65 59.35 -112.4 M51.25 -118.1 L56.85 -130.9 M59.35 -112.9 L66.35 -125.5 M66.5 -122.25 L59.5 -109.65 Q67.8 -107.45 70.4 -96.85 71.6 -91.9 71.5 -82.4 L71.5 18.35 79.6 20.5 M59.75 -126.15 L53.35 -113.15 M63.5 -134.25 L72.5 -152.65 M80.5 -152.0 L70.6 -133.9 M62.1 38.5 L62.1 19.25 60.85 18.85 60.75 16.6 64.75 16.5 64.35 -85.25 Q64.15 -90.25 61.3 -94.45 58.35 -98.75 54.0 -99.9 M84.85 20.75 L84.85 21.75 96.85 25.0 96.95 18.25 96.85 -119.75 Q95.1 -145.5 80.75 -148.25 M92.1 -193.9 L112.25 -235.4 M77.1 -176.75 Q69.85 -219.45 34.6 -241.9 M329.5 -600.0 L277.1 -505.15 M274.25 -515.4 L186.1 -350.4 M274.35 -499.9 L186.25 -340.0 M167.35 -350.65 L246.85 -515.9 M343.2 89.05 L332.6 86.25 M309.25 96.6 L312.25 97.6 312.25 86.35 309.25 85.5 309.25 96.6 214.75 67.1 214.75 139.05 M201.85 49.75 L223.5 55.1 223.5 52.0 M206.1 57.6 L209.75 58.5 210.0 57.85 223.5 57.85 223.5 55.1 M214.75 67.1 L209.85 65.6 209.75 58.5 M319.5 206.85 L319.6 100.0 316.6 99.1 316.5 204.9 M316.6 99.1 L312.25 97.6 M309.25 85.5 L210.0 57.85 M140.75 43.75 L141.1 43.85 141.25 39.0 140.75 38.75 140.75 43.75 118.35 36.85 M141.1 43.85 L144.1 45.0 144.6 45.1 180.35 56.25 M141.25 39.0 L150.25 38.85 150.0 38.75 M115.6 31.85 L140.75 38.75 149.6 38.75 M84.85 21.75 L84.0 21.75 M112.75 29.1 L97.0 25.0 96.85 25.0 91.5 25.0 106.0 29.1 M91.5 25.0 L91.0 25.0 91.0 28.25 93.0 29.0 105.85 32.85 M79.6 21.85 L90.85 25.0 91.0 25.0 M91.0 28.25 L90.75 28.1 81.6 25.35 M96.95 18.25 L97.0 25.0 M118.35 76.65 L118.35 70.6 M118.6 31.75 L123.1 31.75 M118.6 29.1 L123.25 30.25 M144.6 45.1 L144.6 93.6 M143.85 93.15 L144.1 45.0 M93.0 60.25 L93.0 29.0 M60.75 16.6 L67.0 18.35 67.5 18.35 71.5 18.35 70.85 18.25 64.75 16.5 M67.0 18.35 L67.0 20.75 68.5 21.25 75.0 23.25 M68.5 21.25 L68.6 21.6 68.5 44.35 M67.0 20.75 L62.1 19.25 M67.5 18.35 L75.0 20.5 M180.35 49.75 L141.25 39.0 M343.2 107.4 L319.6 100.0 M332.1 86.25 L312.25 86.35 343.2 94.95 M309.25 85.5 L329.25 85.5 223.5 57.85" fill="none" stroke="#171317" stroke-linecap="round" stroke-linejoin="round" stroke-width="0.7000000000000001"/>
    <path d="M82.0 -119.45 Q78.55 -121.95 75.5 -122.65 L75.5 -122.7 75.5 -128.0 M77.75 -126.1 L75.5 -122.7 75.5 -122.65" fill="none" stroke="#171317" stroke-linecap="round" stroke-linejoin="round" stroke-width="0.75"/>
  </g>
</svg>
