<?xml version="1.0" encoding="UTF-8" standalone="no"?>
<svg xmlns:xlink="http://www.w3.org/1999/xlink" height="1199.1px" width="693.1px" xmlns="http://www.w3.org/2000/svg">
  <g transform="matrix(1.0, 0.0, 0.0, 1.0, 343.55, 600.0)">
    <path d="M-154.0 -320.15 L-148.25 -335.15 -193.75 -335.15 -193.9 -310.5 Q-213.15 -304.9 -217.9 -292.9 L-223.4 -280.5 -226.75 -266.25 -228.0 -250.65 -227.9 52.85 -240.75 55.85 -240.75 59.1 -215.9 52.85 -215.5 52.85 -215.4 59.75 -219.9 61.1 -219.9 127.5 -197.15 127.5 -197.15 59.75 -192.75 59.75 -192.9 52.85 -149.4 40.75 -149.0 40.75 -121.4 33.0 -121.15 34.1 -121.15 37.35 -124.0 38.35 -124.0 79.85 -85.4 79.75 -78.5 73.1 -116.1 73.05 -113.5 73.0 -39.65 73.0 -38.3 70.4 -37.1 70.4 -38.4 73.0 37.15 72.8 117.65 73.1 77.5 73.25 84.25 79.75 123.0 79.85 123.0 80.0 42.5 80.0 42.75 80.85 46.6 87.85 47.0 88.0 135.35 88.0 135.75 88.25 93.5 88.25 103.6 98.1 150.85 98.1 151.1 98.25 151.35 98.35 104.1 98.35 117.1 110.75 170.35 110.75 170.75 111.0 59.1 111.1 67.6 127.25 195.75 127.25 196.1 127.5 218.85 127.5 219.1 127.6 135.1 127.6 135.25 127.85 157.85 149.35 230.35 149.35 230.35 149.75 230.75 150.0 79.85 150.0 96.25 180.85 278.25 180.85 278.75 181.25 279.35 181.6 192.25 181.6 242.25 229.1 349.55 229.1 349.55 230.35 243.85 230.5 330.35 312.25 349.55 312.25 349.55 314.6 167.6 314.6 261.0 490.0 349.55 490.0 349.55 495.6 3.85 495.6 4.75 599.1 -5.9 599.1 -5.25 495.6 -343.55 495.6 -343.55 490.0 -262.0 490.0 -168.5 314.6 -343.55 314.6 -343.55 312.15 -331.15 312.1 -244.9 230.35 -343.55 230.35 -343.55 229.1 -243.25 229.0 -193.25 181.6 -280.4 181.6 -343.55 222.45 -343.55 94.75 -226.5 62.1 -240.75 62.1 -343.55 88.9 -343.55 -600.0 -221.2 -600.0 -24.7 -114.0 -25.4 -113.65 -50.5 -78.4 Q-53.65 -75.0 -54.25 -66.15 L-54.15 13.5 -64.0 16.1 -63.9 -79.75 Q-63.4 -94.15 -53.5 -96.5 L-53.4 -99.65 -48.25 -99.65 -46.5 -104.25 -55.9 -104.25 -56.15 -101.15 Q-59.9 -100.4 -60.0 -99.65 L-60.5 -99.25 -60.5 -96.75 -63.5 -95.9 -65.65 -91.5 -66.75 -86.9 -67.15 -81.9 -66.9 -40.0 -67.15 16.1 -67.0 16.85 -82.5 21.0 -82.9 21.0 -82.65 -107.25 -81.25 -112.75 -79.0 -118.25 Q-76.65 -122.65 -72.9 -124.5 L-69.15 -125.25 -69.15 -129.25 -62.4 -129.25 -60.15 -135.15 -73.5 -135.25 -73.65 -133.15 Q-78.5 -132.65 -78.5 -131.4 L-78.5 -125.65 Q-78.75 -124.9 -82.25 -124.25 L-85.4 -122.15 -86.25 -120.65 -87.75 -114.25 -88.25 -107.65 -88.0 -34.25 -88.25 21.25 -87.25 21.0 -87.0 22.35 -88.15 22.35 -100.25 25.6 -94.75 25.75 -83.15 22.35 -82.75 22.35 -82.75 25.35 -84.75 26.0 -84.75 54.35 -113.5 73.0 -113.5 34.1 -111.0 34.1 -111.0 30.1 -95.25 25.75 -101.15 25.75 -117.5 30.1 -118.0 30.1 -117.65 -150.0 Q-116.75 -172.65 -98.4 -178.4 L-98.5 -184.15 -88.75 -184.15 -85.5 -192.65 -111.5 -192.65 -111.65 -178.75 Q-122.9 -177.25 -128.65 -161.25 L-129.0 30.1 -129.15 31.35 -124.0 30.25 -123.9 33.0 -129.0 33.0 -158.0 40.6 -151.55 40.75 -158.75 40.75 -205.15 52.85 -205.25 -246.15 -204.0 -266.0 -200.65 -280.25 -195.25 -292.75 -188.15 -302.25 Q-180.75 -309.75 -171.0 -310.25 L-171.0 -320.15 -154.0 -320.15 M-63.0 19.25 L-64.4 19.6 -64.5 41.1 -79.75 51.1 -79.75 23.85 -77.9 23.75 -78.0 21.0 -63.4 16.85 -63.0 16.85 -63.0 19.25 M-42.0 80.0 L-46.15 88.0 45.0 88.0 40.85 80.0 -42.0 80.0 M-43.4 80.1 L-124.0 80.0 -136.5 88.1 -47.75 88.0 -46.75 86.75 -43.4 80.1 M-1.25 89.1 L-1.65 88.25 -92.75 88.25 -103.0 98.1 -1.5 98.1 -1.25 89.1 M-58.15 111.1 L-66.4 127.1 65.25 127.25 57.0 111.1 -58.15 111.1 M-133.9 127.6 L-156.25 149.35 -1.9 149.35 -1.75 127.6 -133.9 127.6 M-159.0 149.35 L-136.25 127.85 -220.15 127.6 -231.4 134.0 -231.4 149.35 -159.0 149.35 M-105.25 98.35 L-152.5 98.35 -171.4 110.75 -118.15 110.75 -105.25 98.35 M-136.75 88.25 L-152.15 98.1 -104.65 98.0 -95.5 89.5 -94.65 88.25 -136.75 88.25 M-1.25 79.75 Q-0.9 73.75 -1.5 73.1 L-77.15 73.1 -83.75 79.75 -1.25 79.75 M-68.15 126.6 L-60.0 111.1 -171.9 111.1 -196.75 127.25 -68.75 127.25 -68.15 126.6 M-1.75 98.35 L-103.25 98.35 -116.0 110.75 -1.5 110.75 -1.75 98.35 M-2.15 181.75 L-2.4 181.6 -189.9 181.6 -239.25 229.1 -2.65 229.1 -2.15 181.75 M-78.0 150.0 L-80.15 153.5 -94.0 180.6 92.85 180.85 77.0 150.0 -78.0 150.0 M-80.75 150.25 L-231.75 150.0 -279.25 180.85 -97.25 180.85 -80.75 150.25 M1.0 181.6 L1.5 229.1 238.0 229.1 188.75 181.6 1.0 181.6 M1.5 230.5 L2.5 312.25 324.6 312.25 239.5 230.35 1.5 230.5 M0.6 127.75 L0.85 149.35 155.25 149.35 132.6 127.6 0.6 127.75 M0.25 99.25 L0.6 110.75 115.0 110.75 102.25 98.35 0.35 98.35 0.25 99.25 M75.25 73.1 L0.1 73.25 Q-0.75 79.1 0.75 79.75 L82.75 79.75 Q76.6 72.85 75.25 73.1 M101.85 98.1 L91.75 88.25 0.25 88.25 0.25 88.6 Q-0.65 97.25 0.85 98.1 L101.85 98.1 M-163.0 314.6 L-253.4 490.0 252.25 490.0 161.75 314.6 -163.0 314.6 M-3.4 312.25 L-2.75 230.35 -240.65 230.35 -325.65 312.25 -3.4 312.25" fill="#100f10" fill-rule="evenodd" stroke="none"/>
  </g>
</svg>
