<?xml version="1.0" encoding="UTF-8" standalone="no"?>
<svg xmlns:xlink="http://www.w3.org/1999/xlink" height="749.85px" width="343.9px" xmlns="http://www.w3.org/2000/svg">
  <g transform="matrix(1.0, 0.0, 0.0, 1.0, 0.35, 600.35)">
    <path d="M304.75 -555.0 L304.6 -572.25 199.6 -375.75 199.75 -364.5 304.75 -555.0 M329.5 -600.0 L343.2 -600.0 343.2 -495.45 231.9 -335.55 Q236.0 -325.75 238.0 -313.1 L219.1 -288.2 Q214.85 -297.1 208.9 -302.55 205.85 -305.35 202.35 -307.2 L193.45 -310.35 192.8 -310.5 192.85 -310.75 220.1 -354.0 Q215.05 -359.45 208.35 -362.0 L192.75 -335.15 170.0 -335.15 190.75 -375.75 179.75 -375.75 179.6 -376.15 274.25 -572.9 264.0 -599.4 264.25 -600.0 269.25 -600.0 277.1 -579.0 287.25 -600.0 319.35 -600.0 308.1 -579.0 308.0 -561.0 329.5 -600.0 M169.85 -319.65 L131.25 -247.65 118.1 -247.65 118.1 -248.0 152.85 -320.15 170.0 -320.15 169.85 -319.65 M197.15 -285.65 L152.25 -221.15 150.0 -226.4 144.5 -233.65 138.1 -238.4 131.1 -240.0 170.0 -310.25 Q188.05 -307.9 197.15 -285.65 M117.6 -246.5 L130.6 -246.5 130.6 -246.15 106.5 -201.25 106.6 -195.4 130.75 -238.9 137.35 -237.4 143.85 -232.75 149.25 -225.5 151.55 -220.15 123.75 -180.25 Q126.1 -174.7 127.15 -167.05 L126.0 -165.5 123.9 -169.4 Q122.0 -172.45 119.75 -174.5 115.75 -178.1 110.5 -178.75 L117.5 -189.5 111.25 -193.9 110.5 -192.65 97.35 -192.65 101.75 -201.25 95.75 -201.25 117.6 -246.5 M97.35 -184.15 L97.25 -183.5 72.5 -137.5 72.5 -135.25 68.25 -135.25 68.1 -135.65 69.25 -137.5 65.1 -137.65 74.6 -157.15 74.75 -157.65 87.6 -184.15 97.35 -184.15 M113.0 -164.8 L83.7 -122.7 Q80.6 -124.9 77.25 -125.65 L79.95 -129.2 77.25 -131.55 Q75.1 -133.05 72.6 -133.75 L97.35 -178.4 Q107.75 -176.95 113.0 -164.8 M61.25 -129.25 L68.1 -129.25 68.0 -128.65 60.75 -115.25 60.6 -114.75 54.85 -104.25 49.35 -104.65 49.35 -104.7 54.6 -115.55 54.6 -115.6 61.2 -129.25 61.25 -129.25 M55.0 -101.75 L60.75 -111.75 60.75 -112.15 68.1 -125.25 Q75.2 -124.4 78.9 -115.8 L63.55 -93.75 Q60.8 -100.5 55.0 -101.15 L55.0 -101.75" fill="#100f10" fill-rule="evenodd" stroke="none"/>
    <path d="M192.75 -335.15 L192.85 -310.75 192.75 -310.5 Q211.15 -307.3 220.4 -285.25 223.6 -277.6 225.2 -268.8 226.45 -262.0 226.25 -258.25 L226.85 52.85 214.35 52.85 214.35 59.75 218.85 61.1 218.85 127.6 196.1 127.6 196.1 59.75 191.6 59.75 191.6 52.85 204.0 52.85 204.25 -248.75 Q204.2 -266.15 198.4 -282.35 189.35 -307.75 170.0 -310.25 L169.85 -319.65 170.0 -320.15 152.85 -320.15 147.25 -334.75 147.25 -335.15 170.0 -335.15 192.75 -335.15 M84.35 -192.25 L84.35 -192.65 97.35 -192.65 110.5 -192.65 110.5 -178.75 Q118.7 -177.75 123.9 -169.4 125.55 -166.8 126.7 -163.75 L127.5 -161.25 128.0 30.1 122.85 30.25 122.85 33.0 120.1 33.1 120.1 37.35 123.0 38.35 123.0 73.1 112.3 73.15 112.35 34.1 109.85 34.1 109.85 30.1 116.5 30.1 117.0 30.1 117.0 -144.9 Q116.95 -154.9 113.45 -163.75 108.2 -176.9 97.35 -178.4 L97.25 -183.5 97.35 -184.15 87.6 -184.15 84.35 -192.25 M77.25 -125.65 Q80.95 -124.8 84.3 -122.2 86.65 -116.75 86.85 -110.9 L87.1 21.25 86.0 21.1 86.0 22.35 81.75 22.5 81.75 25.35 83.75 26.0 83.75 51.1 78.6 50.9 78.6 23.85 76.75 23.75 76.85 21.0 81.85 21.0 81.85 20.8 82.0 -100.75 Q81.75 -108.55 79.25 -114.95 75.55 -124.35 68.1 -125.25 L68.0 -128.65 68.1 -129.25 61.25 -129.25 61.25 -129.3 59.0 -135.15 68.25 -135.25 72.5 -135.25 72.6 -133.75 Q75.1 -133.05 77.25 -131.55 L77.25 -125.65" fill="#cccccc" fill-opacity="0.15294118" fill-rule="evenodd" stroke="none"/>
    <path d="M343.2 -541.75 Q329.2 -558.1 308.0 -561.0 L308.1 -579.0 277.1 -579.0 269.25 -600.0 264.25 -600.0 264.0 -599.4 274.25 -572.9 304.75 -572.9 304.6 -572.25 304.75 -555.0 Q328.6 -551.4 343.2 -531.6 M308.1 -579.0 L319.35 -600.0 287.25 -600.0 277.1 -579.0 M287.25 -600.0 L269.25 -600.0 M0.0 -415.85 L0.0 -414.0 28.5 -404.25 56.35 -390.9 82.25 -370.0 104.35 -340.5 121.05 -304.6 125.25 -285.75 125.6 -286.5 121.75 -305.5 104.85 -342.15 82.75 -371.4 56.75 -392.5 28.6 -406.0 0.0 -415.85 M192.85 -310.75 L220.1 -354.0 Q215.05 -359.45 208.35 -362.0 L192.75 -335.15 192.85 -310.75 192.75 -310.5 Q211.15 -307.3 220.4 -285.25 223.6 -277.6 225.2 -268.8 226.45 -262.0 226.25 -258.25 L226.85 52.85 239.75 55.85 239.75 -292.9 Q238.5 -335.1 220.1 -354.0 M170.0 -335.15 L190.75 -375.75 179.75 -375.75 179.6 -376.15 173.0 -393.5 264.0 -599.4 M208.35 -362.0 L199.75 -364.5 199.6 -375.75 190.75 -375.75 M192.75 -335.15 L170.0 -335.15 147.25 -335.15 147.25 -334.75 152.85 -320.15 170.0 -320.15 169.85 -319.65 170.0 -310.25 Q189.35 -307.75 198.4 -282.35 204.2 -266.15 204.25 -248.75 L204.0 52.85 191.6 52.85 191.6 59.75 196.1 59.75 196.1 127.6 218.85 127.6 218.85 61.1 214.35 59.75 214.35 52.85 226.85 52.85 M0.0 -264.45 L18.0 -258.25 35.75 -249.15 Q65.15 -230.35 77.35 -191.65 L79.5 -182.15 84.35 -192.25 84.35 -192.65 97.35 -192.65 101.75 -201.25 95.75 -201.25 92.25 -210.4 113.25 -257.65 113.6 -259.0 125.25 -285.75 M35.75 -249.15 L17.85 -257.65 0.0 -263.7 M17.85 -257.65 L18.0 -258.25 M113.25 -257.65 L117.6 -246.5 130.6 -246.5 131.1 -246.75 131.25 -247.65 118.1 -247.65 118.1 -248.0 113.6 -259.0 M101.75 -201.25 L106.5 -201.25 130.6 -246.15 130.85 -239.5 131.1 -240.0 131.1 -246.75 M117.6 -246.5 L95.75 -201.25 M130.85 -239.5 L130.75 -238.9 137.35 -237.4 143.85 -232.75 149.25 -225.5 153.35 -216.0 156.0 -205.0 157.0 -193.15 157.5 -193.4 156.75 -206.15 154.1 -216.75 150.0 -226.4 144.5 -233.65 138.1 -238.4 131.1 -240.0 170.0 -310.25 M147.25 -334.75 L125.6 -286.5 M118.1 -248.0 L152.85 -320.15 M110.5 -178.75 Q118.7 -177.75 123.9 -169.4 125.55 -166.8 126.7 -163.75 L127.5 -161.25 127.6 -162.4 Q126.1 -181.55 117.5 -189.5 L110.5 -178.75 110.5 -192.65 97.35 -192.65 M117.5 -189.5 L111.25 -193.9 110.5 -192.65 M130.75 -238.9 L106.6 -195.4 106.6 -194.9 111.25 -193.9 M84.35 -192.25 L87.6 -184.15 97.35 -184.15 97.25 -183.5 97.35 -178.4 Q108.2 -176.9 113.45 -163.75 116.95 -154.9 117.0 -144.9 L117.0 30.1 116.5 30.1 109.85 30.1 109.85 34.1 112.35 34.1 112.3 73.15 123.0 73.1 123.0 38.35 120.1 37.35 120.1 33.1 122.85 33.0 122.85 30.25 128.0 30.1 127.5 -161.25 M83.25 -157.65 L74.75 -157.65 74.6 -157.15 65.1 -137.65 69.25 -137.5 72.5 -137.5 83.0 -157.15 83.25 -157.65 97.25 -183.5 M72.6 -133.75 L83.1 -152.75 83.0 -157.15 M97.35 -178.4 L83.1 -152.75 Q98.9 -149.95 99.75 -123.25 L99.8 21.1 99.85 25.75 116.5 30.1 M84.3 -122.2 L83.65 -123.65 Q82.05 -126.95 79.95 -129.2 L77.25 -131.55 Q75.1 -133.05 72.6 -133.75 L72.5 -135.25 68.25 -135.25 59.0 -135.15 61.25 -129.3 61.25 -129.25 68.1 -129.25 68.0 -128.65 68.1 -125.25 Q75.55 -124.35 79.25 -114.95 81.75 -108.55 82.0 -100.75 L81.85 20.8 81.85 21.0 76.85 21.0 76.75 23.75 78.6 23.85 78.6 50.9 83.75 51.1 83.75 26.0 81.75 25.35 81.75 22.5 86.0 22.35 86.0 21.1 87.1 21.25 87.1 22.35 99.75 25.75 99.8 21.1 M84.3 -122.2 Q86.65 -116.75 86.85 -110.9 L87.1 21.25 M79.5 -182.15 L72.1 -164.65 74.75 -157.65 87.6 -184.15 M63.35 39.25 L63.35 19.6 62.0 19.25 62.0 17.0 66.0 16.85 65.85 -77.4 Q65.6 -86.15 64.65 -90.25 62.15 -100.35 55.0 -101.15 L55.0 -101.75 54.85 -104.25 49.35 -104.65 49.35 -104.7 47.45 -108.6 52.65 -120.8 58.25 -133.45 Q53.15 -156.45 39.05 -171.4 24.45 -186.95 0.15 -193.9 M65.1 -137.65 L62.85 -144.25 72.1 -164.65 M68.25 -135.25 L68.1 -135.65 69.25 -137.5 M72.5 -137.5 L72.5 -135.25 M59.0 -135.15 L58.25 -133.45 M54.6 -115.55 L60.75 -115.25 68.0 -128.65 M54.85 -104.25 L60.6 -114.75 60.75 -115.25 M68.1 -125.25 L60.75 -112.15 60.75 -111.75 Q67.15 -110.95 70.55 -102.85 73.05 -96.85 73.0 -90.5 L72.75 18.65 72.75 18.75 68.75 18.75 68.5 18.75 68.6 21.15 68.6 21.25 68.35 21.1 63.35 19.6 M60.75 -111.75 L55.0 -101.75 M60.6 -114.75 L60.75 -112.15 M169.85 -319.65 L131.25 -247.65 M106.6 -195.4 L106.5 -201.25 M319.35 -600.0 L329.5 -600.0 308.0 -561.0 M179.6 -376.15 L274.25 -572.9 M304.6 -572.25 L199.6 -375.75 M304.75 -555.0 L199.75 -364.5 M343.2 94.95 L225.25 62.1 225.0 62.75 225.1 70.35 230.35 72.0 343.2 107.25 M343.2 89.15 L239.75 62.1 225.25 62.1 M239.75 55.85 L239.75 59.1 239.75 62.1 M239.75 59.1 L214.35 52.85 M225.0 62.75 L218.85 61.1 M230.35 72.0 L230.35 149.15 M122.85 33.0 L128.0 33.0 128.0 31.35 122.85 30.25 M128.0 31.35 L128.0 30.1 M148.0 40.75 L147.5 40.6 147.5 45.85 148.0 46.1 148.0 40.75 157.5 40.75 156.85 40.6 147.5 40.6 120.1 33.1 M148.0 46.1 L151.0 47.1 151.35 47.25 191.6 59.75 M147.5 45.85 L123.0 38.35 M156.85 40.6 L128.0 33.0 M86.0 22.35 L87.1 22.35 M99.85 25.75 L99.75 25.75 94.1 25.75 109.85 30.1 M81.75 22.5 L93.6 25.75 93.75 25.75 94.1 25.75 M93.75 25.75 L93.75 29.1 95.85 29.85 109.85 34.1 M93.75 29.1 L93.5 29.0 83.75 26.0 M150.85 97.65 L151.05 66.15 151.0 47.1 M123.0 79.65 L123.0 73.1 M151.35 47.25 L151.05 66.15 M96.0 62.0 L95.85 29.85 M70.35 21.9 L76.75 23.75 M76.85 21.0 L68.75 18.75 M68.5 18.75 L62.0 17.0 M72.75 18.75 L66.0 16.85 M70.35 21.9 L70.1 45.4 M204.0 52.85 L157.5 40.75 157.5 -193.4 M191.6 52.85 L148.0 40.75 M157.0 -193.15 L156.85 40.6" fill="none" stroke="#171317" stroke-linecap="round" stroke-linejoin="round" stroke-width="0.7000000000000001"/>
    <path d="M79.95 -129.2 L77.25 -125.65 Q80.95 -124.8 84.3 -122.2 M77.25 -131.55 L77.25 -125.65 M61.25 -129.3 L54.6 -115.6 54.6 -115.55 49.35 -104.7 M52.65 -120.8 L54.6 -115.6 M72.75 18.65 L81.85 20.8 M68.6 21.15 L70.35 21.9" fill="none" stroke="#171317" stroke-linecap="round" stroke-linejoin="round" stroke-width="0.75"/>
  </g>
</svg>
