<?xml version="1.0" encoding="UTF-8" standalone="no"?>
<svg xmlns:xlink="http://www.w3.org/1999/xlink" height="761.5px" width="343.9px" xmlns="http://www.w3.org/2000/svg">
  <g transform="matrix(1.0, 0.0, 0.0, 1.0, 0.35, 600.35)">
    <path d="M343.2 -600.05 L343.2 -495.5 250.05 -361.7 Q254.75 -350.95 256.85 -337.8 L233.45 -307.05 Q229.1 -316.8 222.9 -322.65 215.55 -329.65 205.6 -331.15 L237.35 -381.65 Q232.0 -386.7 224.75 -390.25 L205.5 -357.15 181.25 -357.15 205.6 -405.15 193.6 -405.25 287.25 -600.0 319.35 -600.0 215.25 -405.15 215.35 -392.9 329.5 -600.0 343.2 -600.05 M181.25 -341.25 L181.1 -340.75 137.85 -260.0 124.0 -260.0 163.0 -341.25 181.25 -341.25 M210.05 -304.25 L159.85 -232.15 157.5 -237.65 151.75 -245.4 145.1 -250.25 137.75 -252.0 181.25 -330.65 Q200.4 -328.2 210.05 -304.25 M137.35 -258.75 L110.85 -209.25 111.0 -203.4 137.25 -250.75 144.35 -249.15 151.0 -244.4 156.75 -236.75 159.2 -231.15 128.45 -187.0 Q131.15 -180.9 132.25 -173.8 L130.45 -171.4 Q128.45 -175.7 125.8 -178.75 L124.0 -180.6 Q119.9 -184.4 114.6 -185.4 L122.25 -197.15 Q119.0 -200.45 115.75 -201.65 L114.6 -199.75 101.0 -199.75 105.85 -209.25 99.6 -209.5 123.5 -258.75 137.35 -258.75 M85.6 -157.0 L85.75 -157.5 101.0 -184.9 Q111.9 -183.3 117.2 -170.8 L85.75 -125.7 Q82.95 -128.05 79.35 -129.2 L82.2 -133.1 79.3 -135.35 Q77.15 -136.65 74.6 -137.4 L85.6 -157.0 M90.85 -190.9 L101.0 -190.9 100.85 -190.25 85.6 -162.0 85.5 -161.4 74.5 -141.15 74.5 -138.75 69.85 -138.75 71.1 -141.15 67.0 -141.15 67.0 -141.5 77.0 -162.0 77.1 -162.5 90.85 -190.9 M69.85 -132.65 L69.75 -131.9 62.1 -117.75 62.0 -117.25 56.0 -106.4 50.35 -106.9 62.85 -132.65 69.85 -132.65 M62.1 -114.4 L62.2 -114.65 62.1 -114.65 69.85 -128.4 Q76.7 -128.2 80.8 -118.55 L64.9 -95.7 Q62.05 -101.6 56.1 -103.75 L62.1 -114.4" fill="#100f10" fill-rule="evenodd" stroke="none"/>
    <path d="M181.25 -330.65 L181.1 -340.75 181.25 -341.25 163.0 -341.25 157.0 -356.75 157.0 -357.15 181.25 -357.15 205.5 -357.15 205.6 -331.15 Q226.25 -328.0 235.75 -301.3 238.7 -292.95 240.2 -283.25 L241.1 -275.25 241.75 56.35 228.5 56.35 228.5 63.75 233.35 65.25 233.4 136.1 209.0 136.15 209.25 64.35 209.0 63.75 204.25 63.75 204.25 56.35 217.35 56.35 217.75 -265.15 Q217.75 -281.0 212.25 -298.1 202.75 -327.9 181.25 -330.65 M133.0 -164.25 L133.1 31.25 127.35 31.35 127.35 34.35 125.25 34.35 125.0 35.5 125.0 39.0 127.85 39.85 127.85 75.5 116.35 75.35 116.75 36.0 116.5 35.5 113.85 35.35 113.85 31.25 120.85 31.25 121.35 31.25 121.5 -146.9 Q121.2 -160.15 117.75 -169.35 112.55 -183.2 101.0 -184.9 L100.85 -190.25 101.0 -190.9 90.85 -190.9 87.5 -199.4 87.5 -199.75 101.0 -199.75 114.6 -199.75 114.6 -185.4 Q121.1 -184.2 125.8 -178.75 130.5 -173.35 133.0 -164.25 M74.6 -137.4 Q77.15 -136.65 79.3 -135.35 L79.3 -129.2 79.3 -129.15 79.35 -129.2 Q84.3 -127.6 87.7 -123.8 88.55 -121.05 89.0 -117.75 L89.5 21.85 88.25 21.6 88.25 23.0 84.0 23.1 84.0 26.1 86.0 26.75 86.0 52.5 80.6 52.5 80.75 24.5 78.75 24.35 78.85 21.6 83.85 21.6 84.1 -103.25 Q84.35 -109.45 81.2 -117.55 77.05 -128.2 69.85 -128.4 L69.75 -131.9 69.85 -132.65 62.85 -132.65 60.5 -138.5 69.85 -138.75 74.5 -138.75 74.6 -137.4" fill="#cccccc" fill-opacity="0.15294118" fill-rule="evenodd" stroke="none"/>
    <path d="M181.25 -357.15 L205.6 -405.15 193.6 -405.25 186.5 -424.15 264.1 -600.0 287.25 -600.0 319.35 -600.0 329.5 -600.0 343.2 -600.0 M0.0 -434.55 L29.85 -424.4 59.35 -410.4 86.35 -388.5 109.55 -357.7 127.25 -320.0 131.5 -299.9 132.0 -300.4 132.0 -301.0 127.85 -320.9 127.85 -321.75 110.25 -358.75 86.85 -390.0 59.6 -412.15 30.1 -426.25 0.0 -436.6 0.0 -434.55 M205.5 -357.15 L224.75 -390.25 215.35 -392.9 215.25 -405.15 205.6 -405.15 M215.25 -405.15 L319.35 -600.0 M193.6 -405.25 L287.25 -600.0 M224.75 -390.25 Q232.0 -386.7 237.35 -381.65 258.3 -358.3 258.5 -315.75 L258.5 60.25 258.5 63.75 258.5 67.0 343.2 89.1 M181.25 -330.65 Q202.75 -327.9 212.25 -298.1 217.75 -281.0 217.75 -265.15 L217.35 56.35 204.25 56.35 204.25 63.75 209.0 63.75 209.25 64.35 209.0 136.15 233.4 136.1 233.35 65.25 228.5 63.75 228.5 56.35 241.75 56.35 241.1 -275.25 240.2 -283.25 Q238.7 -292.95 235.75 -301.3 226.25 -328.0 205.6 -331.15 L205.5 -357.15 181.25 -357.15 157.0 -357.15 157.0 -356.75 163.0 -341.25 181.25 -341.25 181.1 -340.75 181.25 -330.65 137.75 -252.0 145.1 -250.25 151.75 -245.4 157.5 -237.65 161.85 -227.5 164.6 -215.9 165.75 -203.75 165.5 -203.25 165.5 42.85 217.35 56.35 M237.35 -381.65 L205.6 -331.15 M133.1 31.25 L133.25 32.75 133.1 34.35 164.5 42.6 164.85 42.6 164.85 -202.65 163.85 -215.15 161.1 -226.75 156.75 -236.75 151.0 -244.4 144.35 -249.15 137.25 -250.75 111.0 -203.4 115.75 -201.65 Q119.0 -200.45 122.25 -197.15 132.9 -183.8 133.0 -164.25 L133.1 31.25 127.35 31.35 133.25 32.75 M165.5 -203.25 L164.85 -202.65 M132.0 -301.0 L157.0 -356.75 M69.85 -138.75 L71.1 -141.15 67.0 -141.15 67.0 -141.5 64.5 -147.9 74.1 -169.4 74.35 -169.75 82.1 -188.0 Q74.55 -229.25 37.0 -257.5 L18.35 -265.75 0.0 -272.0 M37.0 -257.5 L18.6 -266.4 18.35 -265.75 M0.0 -272.75 L18.6 -266.4 M123.5 -259.15 L118.85 -270.5 96.0 -219.15 99.6 -209.5 123.5 -258.75 123.5 -259.15 M137.25 -250.75 L137.25 -251.15 137.1 -258.25 110.85 -209.25 111.0 -203.4 M137.25 -251.15 L137.6 -251.25 137.75 -252.0 137.75 -259.15 137.85 -260.0 124.0 -260.0 119.35 -272.0 118.85 -270.65 118.85 -270.5 M123.5 -258.75 L137.35 -258.75 137.1 -258.25 M87.5 -199.4 L87.5 -199.75 101.0 -199.75 105.85 -209.25 99.6 -209.5 M110.85 -209.25 L105.85 -209.25 M114.6 -199.75 L115.75 -201.65 M101.0 -199.75 L114.6 -199.75 114.6 -185.4 122.25 -197.15 M119.35 -272.0 L131.5 -299.9 M133.0 -164.25 Q130.5 -173.35 125.8 -178.75 121.1 -184.2 114.6 -185.4 M101.0 -184.9 L100.85 -190.25 85.85 -162.5 85.6 -162.0 85.75 -157.5 101.0 -184.9 Q112.55 -183.2 117.75 -169.35 121.2 -160.15 121.5 -146.9 L121.35 31.25 120.85 31.25 113.85 31.25 113.85 35.35 116.5 35.5 116.75 36.0 116.35 75.35 127.85 75.5 127.85 39.85 125.0 39.0 125.0 35.5 125.25 34.35 127.35 34.35 127.35 31.35 M100.85 -190.25 L101.0 -190.9 90.85 -190.9 77.1 -162.5 85.85 -162.5 M71.1 -141.15 L74.5 -141.15 85.5 -161.4 85.6 -162.0 M89.5 21.85 L89.5 23.0 102.5 26.5 102.85 26.5 103.1 -127.25 Q101.55 -153.3 85.75 -157.5 L85.6 -157.0 74.6 -137.4 Q77.15 -136.65 79.3 -135.35 L82.2 -133.1 Q85.85 -129.6 87.7 -123.8 88.55 -121.05 89.0 -117.75 L89.5 21.85 88.25 21.6 88.25 23.0 89.5 23.0 M74.6 -137.4 L74.5 -138.75 69.85 -138.75 60.5 -138.5 62.85 -132.65 69.85 -132.65 69.75 -131.9 69.85 -128.4 Q77.05 -128.2 81.2 -117.55 84.35 -109.45 84.1 -103.25 L83.85 21.6 78.85 21.6 78.75 24.35 80.75 24.5 80.6 52.5 86.0 52.5 86.0 26.75 84.0 26.1 84.0 23.1 88.25 23.0 M67.0 -141.5 L77.0 -162.0 77.1 -162.5 74.35 -169.75 M74.5 -138.75 L74.5 -141.15 M60.5 -138.5 L59.55 -136.35 48.5 -111.65 50.35 -106.9 55.85 -118.0 62.85 -132.65 M64.75 40.0 L64.75 20.1 63.25 19.6 63.5 17.25 67.35 17.25 67.25 -86.0 Q66.1 -100.15 56.1 -103.75 L56.0 -106.4 50.35 -106.9 M56.1 -103.75 L62.1 -114.4 62.1 -114.65 62.0 -117.25 56.0 -106.4 M62.0 -117.25 L62.1 -117.75 55.85 -118.0 M69.85 -128.4 L62.1 -114.65 Q69.75 -113.65 72.95 -103.0 74.85 -96.65 74.75 -89.3 L74.75 19.1 83.85 21.6 M62.1 -117.75 L69.75 -131.9 M59.55 -136.35 Q54.25 -160.3 39.4 -175.85 24.35 -191.6 0.15 -198.3 M181.1 -340.75 L137.85 -260.0 M124.0 -260.0 L163.0 -341.25 M90.85 -190.9 L87.5 -199.4 82.1 -188.0 M215.35 -392.9 L329.5 -600.0 M164.85 42.6 L165.5 42.85 156.0 42.85 204.25 56.35 M248.35 160.8 L248.35 77.6 242.6 75.85 242.6 67.75 233.35 65.25 M343.2 94.9 L242.85 67.0 242.6 67.75 M241.75 56.35 L258.5 60.25 M258.5 67.0 L242.85 67.0 M258.5 63.75 L228.5 56.35 M127.35 34.35 L133.1 34.35 M155.35 48.35 L155.5 42.85 154.75 42.6 154.75 48.25 155.35 48.35 158.35 49.5 159.1 49.75 204.25 63.75 M156.0 42.85 L155.5 42.85 M154.75 42.6 L125.25 34.35 M154.75 48.25 L127.85 39.85 M96.75 26.6 L96.6 26.6 96.6 30.0 96.75 26.6 97.35 26.6 102.5 26.5 M99.0 64.0 L98.85 30.75 96.6 30.0 86.0 26.75 M120.85 31.25 L103.1 26.6 102.85 26.5 M113.85 35.35 L98.85 30.75 M97.35 26.6 L113.85 31.25 M84.0 23.1 L96.6 26.6 M127.85 82.8 L127.85 75.5 M64.75 20.1 L70.0 21.6 70.1 19.25 63.5 17.25 M78.85 21.6 L70.6 19.25 70.1 19.25 M71.75 46.45 L71.75 34.5 71.6 22.25 70.1 21.75 70.0 21.6 M71.6 22.25 L71.85 22.35 78.75 24.35 M67.35 17.25 L74.25 19.1 74.75 19.1 70.6 19.25 M71.85 22.35 L71.75 34.5 M159.1 49.75 L158.85 102.85 M158.25 102.45 L158.35 49.5 M164.5 42.6 L154.75 42.6 M248.35 77.6 L343.2 107.3" fill="none" stroke="#171317" stroke-linecap="round" stroke-linejoin="round" stroke-width="0.7000000000000001"/>
    <path d="M79.3 -129.2 L79.3 -129.15 79.35 -129.2 79.3 -129.2 79.3 -135.35 M79.35 -129.2 Q84.3 -127.6 87.7 -123.8 M79.35 -129.2 L82.2 -133.1" fill="none" stroke="#171317" stroke-linecap="round" stroke-linejoin="round" stroke-width="0.75"/>
  </g>
</svg>
