<?xml version="1.0" encoding="UTF-8" standalone="no"?>
<svg xmlns:xlink="http://www.w3.org/1999/xlink" height="1199.1px" width="692.25px" xmlns="http://www.w3.org/2000/svg">
  <g transform="matrix(1.0, 0.0, 0.0, 1.0, 343.55, 600.0)">
    <path d="M-95.5 -198.15 L-91.9 -207.15 -120.0 -207.4 -120.15 -192.4 -122.85 -191.55 -125.5 -190.75 -130.65 -187.0 Q-136.4 -181.15 -139.65 -168.25 L-139.75 32.5 -139.9 34.0 -133.5 32.6 -133.4 35.85 -139.75 35.85 -174.5 44.85 -163.9 44.85 -131.9 35.85 -131.25 35.85 -131.25 40.6 -134.4 41.6 -134.4 86.6 -92.5 86.5 -84.4 78.75 -128.25 78.75 -122.15 78.6 -122.15 36.85 -119.4 36.75 -119.4 32.5 -101.65 27.5 -107.5 27.5 -127.0 32.5 -127.15 -150.9 -126.4 -164.0 -124.25 -173.5 -120.75 -181.4 Q-117.15 -188.0 -111.5 -190.75 L-105.9 -192.0 -106.0 -198.15 -95.5 -198.15 M-195.0 -365.25 L-175.65 -365.25 -169.15 -382.0 -221.0 -382.25 -221.15 -353.75 -231.4 -351.4 -240.5 -344.75 -248.65 -333.75 -254.75 -319.75 -258.65 -303.5 -260.0 -285.9 -259.9 60.35 -281.4 65.35 -281.4 69.1 -245.9 60.35 -245.65 68.25 -250.75 69.75 -250.75 145.5 -224.9 145.5 -224.9 68.25 -219.75 68.25 -219.9 60.35 -165.15 45.1 -175.4 45.1 -233.9 60.35 -234.0 -282.5 -232.75 -303.25 -228.9 -319.65 -222.75 -333.9 Q-215.25 -346.9 -205.4 -351.5 L-195.15 -353.75 -195.0 -365.25 M-77.65 -142.4 L-77.9 -140.5 Q-82.4 -140.0 -82.5 -139.0 L-82.5 -132.0 Q-86.75 -131.9 -91.0 -126.9 L-92.65 -120.65 -93.15 -113.65 -92.9 -32.15 -93.15 22.5 -91.75 22.25 -91.65 23.6 -93.15 23.6 -107.0 27.35 -101.0 27.35 -87.65 23.6 -87.4 25.1 -87.4 26.85 -89.5 27.5 -89.5 57.5 -103.25 66.35 -1.15 66.35 68.85 66.35 102.0 66.35 102.25 66.5 70.35 66.5 76.1 72.0 79.05 72.05 38.25 72.1 41.6 78.6 127.2 78.75 83.35 78.85 91.6 86.5 133.35 86.6 133.5 86.75 46.1 86.75 51.25 96.25 148.0 96.25 148.25 96.35 148.5 96.5 102.25 96.5 114.6 108.5 166.75 108.5 167.05 108.6 115.1 108.75 131.35 124.25 191.1 124.25 191.35 124.35 66.25 124.5 77.25 145.25 223.35 145.25 223.75 145.5 249.75 145.5 250.1 145.75 154.25 145.85 184.75 174.75 269.5 174.75 269.5 175.1 270.0 175.5 93.5 175.5 116.85 219.35 337.5 219.35 339.1 220.5 233.35 220.6 311.35 294.5 348.7 294.5 348.7 296.6 313.75 296.6 348.7 329.65 348.7 335.4 308.25 296.5 2.1 296.5 3.35 447.6 348.7 447.6 348.7 452.25 241.0 452.25 319.35 599.1 308.6 599.1 232.75 452.25 -234.0 452.25 -309.75 599.1 -320.25 599.1 -242.15 452.25 -343.55 452.25 -343.55 447.6 -4.5 447.6 -3.25 296.5 -309.4 296.5 -343.55 329.35 -343.55 323.75 -314.75 296.5 -343.55 296.5 -343.55 294.4 -312.4 294.35 -234.4 220.5 -340.15 220.5 -343.55 222.7 -343.55 94.65 -264.75 72.75 -281.4 72.75 -343.55 88.95 -343.55 -600.0 -221.2 -600.0 -24.5 -113.5 -33.5 -107.4 -52.25 -80.9 Q-55.4 -77.75 -56.0 -68.25 L-55.9 14.0 -66.15 16.75 -66.5 16.75 -66.65 -76.9 -66.25 -86.0 Q-65.9 -96.4 -55.5 -100.4 L-55.65 -103.65 -50.15 -103.65 -48.25 -108.25 -48.9 -108.4 -58.25 -108.4 -58.25 -105.4 Q-62.65 -104.75 -62.65 -103.65 L-63.0 -103.4 -63.0 -100.75 Q-63.15 -100.15 -66.5 -99.25 L-68.4 -95.5 -69.5 -90.5 -69.9 -85.25 -69.65 -40.15 -69.9 16.75 -69.75 17.6 -86.75 22.1 -87.25 22.1 -87.4 -102.25 -86.9 -112.9 -85.5 -119.0 -83.15 -124.4 Q-78.4 -131.75 -72.75 -131.75 L-72.75 -136.0 -65.65 -136.0 -63.25 -142.25 -77.65 -142.4 M-52.5 14.0 L-52.5 15.25 -52.65 16.0 -53.9 16.35 -53.75 34.25 -63.9 40.85 -63.9 19.0 -62.5 19.0 -62.65 16.75 -53.0 14.0 -52.5 14.0 M-65.65 17.6 L-65.65 20.0 -67.15 20.5 -67.15 42.85 -83.9 53.75 -83.9 25.1 -81.9 25.0 -82.0 22.1 -66.0 17.6 -65.65 17.6 M-45.4 86.75 L-50.4 96.25 49.25 96.25 44.35 86.75 -45.4 86.75 M-122.15 78.6 L-42.65 78.6 Q-39.15 73.1 -39.65 72.1 L-80.05 72.05 -77.15 72.0 -71.5 66.6 -71.75 66.5 -103.4 66.5 -122.15 78.6 M-70.15 66.5 L-75.75 72.0 -1.25 72.0 -1.25 66.5 -70.15 66.5 M-52.0 96.25 L-47.0 86.75 -134.5 86.75 -149.0 96.25 -52.0 96.25 M-1.1 78.75 L-83.0 78.75 -90.75 86.5 -1.4 86.5 -1.1 78.75 M-103.25 96.5 L-149.5 96.5 -167.75 108.25 -167.9 108.5 -115.75 108.5 -103.25 96.5 M-38.0 72.1 L-41.25 78.6 40.1 78.6 36.85 72.1 -38.0 72.1 M-116.25 108.75 L-168.65 108.75 -192.15 124.25 -132.25 124.1 -116.25 108.75 M-113.9 108.5 L-1.5 108.5 -1.4 96.5 -101.4 96.5 -113.9 108.5 M-65.0 124.5 L-75.65 145.1 74.5 145.25 64.85 126.1 63.75 124.5 -65.0 124.5 M-78.25 145.25 L-67.15 124.5 -192.5 124.5 -224.4 145.25 -78.25 145.25 M-1.75 147.5 L-2.15 145.75 -152.75 145.75 -182.65 174.75 -2.15 174.75 -1.75 147.5 M-114.15 108.75 L-130.15 124.25 -1.65 124.25 -1.75 108.75 -114.15 108.75 M-270.5 174.75 L-185.9 174.75 -155.25 145.85 -251.15 145.75 -270.5 156.85 -270.5 174.75 M0.35 108.75 L0.75 124.25 129.1 124.25 113.1 108.75 0.35 108.75 M0.0 66.5 L0.1 72.0 74.75 72.0 69.1 66.5 0.0 66.5 M89.75 86.5 L81.85 78.75 0.1 78.75 0.1 86.35 0.5 86.5 89.75 86.5 M-91.15 175.5 L-113.9 219.1 112.75 219.35 90.25 175.5 -91.15 175.5 M-94.4 175.6 L-271.0 175.5 -338.4 219.35 -117.75 219.35 -94.4 175.6 M-230.4 220.5 L-307.25 294.5 -3.15 294.5 -2.5 220.5 -230.4 220.5 M1.0 174.75 L181.6 174.75 154.85 148.75 151.35 145.75 0.75 145.75 1.0 174.75 M1.85 292.5 L2.25 294.5 306.0 294.5 229.35 220.5 1.35 220.5 1.85 292.5 M0.45 108.5 L112.75 108.5 100.35 96.5 0.25 96.75 Q0.1 106.65 0.45 108.5" fill="#100f10" fill-rule="evenodd" stroke="none"/>
  </g>
</svg>
