<?xml version="1.0" encoding="UTF-8" standalone="no"?>
<svg xmlns:xlink="http://www.w3.org/1999/xlink" height="775.15px" width="343.9px" xmlns="http://www.w3.org/2000/svg">
  <g transform="matrix(1.0, 0.0, 0.0, 1.0, 0.35, 600.35)">
    <path d="M343.2 -600.0 L343.2 -495.45 271.1 -391.9 Q275.9 -380.35 278.25 -366.0 L250.1 -328.95 Q245.35 -339.25 238.75 -345.4 230.8 -352.85 220.1 -354.4 L257.5 -414.0 Q250.0 -421.15 243.85 -423.4 L220.0 -382.25 194.0 -382.25 223.1 -439.4 210.1 -439.65 287.25 -600.0 319.35 -600.0 233.6 -439.4 233.75 -426.25 329.5 -600.0 343.2 -600.0 M193.85 -364.65 L145.25 -273.75 130.6 -273.75 130.6 -274.15 174.5 -365.25 194.0 -365.25 193.85 -364.65 M225.45 -326.3 L168.65 -244.7 168.25 -245.0 165.75 -250.15 159.75 -258.4 152.75 -263.5 145.25 -265.25 145.35 -265.75 194.0 -353.75 Q215.4 -351.0 225.45 -326.3 M165.0 -249.15 L167.6 -243.25 133.75 -194.65 135.05 -191.0 Q136.55 -186.35 137.45 -180.6 L135.4 -177.9 Q132.65 -184.05 128.9 -187.6 124.6 -191.65 119.0 -192.4 L127.35 -205.4 Q124.05 -209.1 120.6 -210.15 L119.0 -207.4 105.0 -207.4 110.35 -218.15 103.85 -218.4 130.0 -272.4 144.5 -272.4 144.35 -271.9 115.5 -218.15 115.6 -211.75 144.5 -263.9 151.85 -262.25 159.0 -257.15 165.0 -249.15 M104.85 -198.15 L104.75 -197.5 88.35 -167.25 88.25 -166.5 76.6 -145.15 76.6 -142.4 71.75 -142.4 73.1 -145.15 68.85 -145.15 68.85 -145.5 79.5 -167.25 79.5 -167.65 79.6 -167.75 94.35 -198.15 104.85 -198.15 M88.55 -162.5 L88.6 -162.5 104.85 -192.0 Q115.9 -190.95 121.65 -177.2 L87.9 -128.75 Q85.4 -131.2 81.4 -132.3 L81.4 -132.35 84.4 -136.7 81.4 -138.95 Q79.3 -140.3 76.75 -141.25 L88.55 -162.5 M71.6 -135.4 L63.6 -120.65 63.5 -120.15 57.25 -108.75 51.35 -109.0 57.25 -120.75 57.25 -121.0 64.5 -136.0 71.75 -136.0 71.6 -135.4 M63.6 -117.0 L63.6 -117.25 71.75 -131.75 Q79.05 -131.3 83.05 -121.8 L66.4 -97.85 Q63.6 -103.5 57.35 -106.0 L63.6 -117.0" fill="#100f10" fill-rule="evenodd" stroke="none"/>
    <path d="M220.1 -354.4 Q241.0 -351.35 251.4 -325.9 255.0 -317.2 256.85 -306.85 258.2 -299.4 258.25 -294.65 L258.85 60.35 244.6 60.35 244.6 68.25 249.75 69.75 249.8 145.75 223.8 145.8 223.85 68.25 218.6 68.25 218.6 60.35 232.75 60.35 233.0 -285.4 Q232.6 -305.5 227.2 -321.6 217.35 -350.75 194.0 -353.75 L193.85 -364.65 194.0 -365.25 174.5 -365.25 168.0 -382.0 194.0 -382.25 220.0 -382.25 220.1 -354.4 M138.6 -168.25 L138.75 32.5 132.35 32.6 132.35 35.85 130.6 35.85 130.25 35.85 130.25 40.6 133.35 41.6 133.35 78.75 121.0 78.8 121.25 37.35 121.0 36.85 118.25 36.75 118.25 32.5 125.75 32.5 126.0 -155.75 Q125.8 -167.3 121.65 -177.15 115.9 -190.95 104.85 -192.0 L104.75 -197.5 104.85 -198.15 94.35 -198.15 90.85 -207.0 90.85 -207.4 105.0 -207.4 119.0 -207.4 119.0 -192.4 Q133.05 -190.5 138.6 -168.25 M76.6 -142.4 L76.75 -141.25 Q79.3 -140.3 81.4 -138.95 L81.4 -132.35 81.4 -132.3 Q89.4 -130.05 91.3 -122.6 L91.5 -121.0 92.1 22.1 90.6 22.25 90.6 23.6 86.35 23.75 86.35 26.85 88.5 27.5 88.5 53.85 82.6 53.9 82.85 25.1 80.75 25.0 80.85 22.1 85.75 22.1 86.25 22.1 86.25 -107.15 Q86.4 -112.95 83.6 -120.4 79.55 -131.25 71.75 -131.75 L71.6 -135.4 71.75 -136.0 64.5 -136.0 62.1 -142.0 62.1 -142.15 71.75 -142.4 76.6 -142.4 M66.1 20.5 L66.1 40.85 62.75 40.65 62.85 19.0 61.5 19.0 61.5 16.75 65.5 16.75 65.5 -81.5 Q65.65 -86.25 62.95 -92.6 59.55 -100.45 54.5 -100.4 L54.5 -103.65 49.0 -103.65 47.1 -108.25 54.5 -108.4 57.25 -108.4 57.35 -106.0 Q68.25 -101.6 68.6 -87.9 L68.75 17.6 64.6 17.75 64.6 20.0 66.1 20.5" fill="#cccccc" fill-opacity="0.15294118" fill-rule="evenodd" stroke="none"/>
    <path d="M194.0 -382.25 L223.1 -439.4 210.1 -439.65 202.35 -459.9 264.25 -600.0 287.25 -600.0 319.35 -600.0 329.5 -600.0 343.2 -600.0 M0.0 -457.45 L31.35 -446.75 62.35 -431.9 91.0 -408.75 115.5 -376.15 134.0 -336.65 138.35 -315.4 139.0 -316.9 134.75 -338.4 116.0 -378.25 91.5 -410.65 62.75 -433.9 31.75 -448.9 0.0 -459.75 0.0 -457.45 M220.0 -382.25 L243.85 -423.4 233.75 -426.25 233.6 -439.4 223.1 -439.4 M220.1 -354.4 L257.5 -414.0 Q250.0 -421.15 243.85 -423.4 M233.6 -439.4 L319.35 -600.0 M210.1 -439.65 L287.25 -600.0 M220.1 -354.4 Q241.0 -351.35 251.4 -325.9 255.0 -317.2 256.85 -306.85 258.2 -299.4 258.25 -294.65 L258.85 60.35 280.35 65.35 280.35 -342.65 Q279.05 -389.6 257.5 -414.0 M220.1 -354.4 L220.0 -382.25 194.0 -382.25 168.0 -382.0 174.5 -365.25 194.0 -365.25 193.85 -364.65 194.0 -353.75 Q217.35 -350.75 227.2 -321.6 232.6 -305.5 233.0 -285.4 L232.75 60.35 218.6 60.35 218.6 68.25 223.85 68.25 223.8 145.8 249.8 145.75 249.75 69.75 244.6 68.25 244.6 60.35 258.85 60.35 M194.0 -353.75 L145.35 -265.75 145.25 -265.25 152.75 -263.5 159.75 -258.4 165.75 -250.15 168.25 -245.0 170.35 -239.5 172.0 -233.65 173.25 -227.15 174.5 -214.5 174.25 45.1 232.75 60.35 M138.75 32.5 L138.85 34.1 138.75 35.85 173.1 44.85 173.5 44.85 173.5 -213.4 172.5 -226.5 169.6 -238.65 165.0 -249.15 159.0 -257.15 151.85 -262.25 144.5 -263.9 115.6 -211.75 115.5 -211.25 120.6 -210.15 Q124.05 -209.1 127.35 -205.4 132.35 -199.65 135.05 -191.0 137.8 -182.45 138.5 -170.3 L138.6 -168.25 138.75 32.5 132.35 32.6 138.85 34.1 M0.0 -281.5 L19.1 -275.0 38.25 -265.75 Q76.25 -238.9 84.95 -194.15 L90.85 -207.0 90.85 -207.4 105.0 -207.4 110.35 -218.15 103.85 -218.4 99.85 -228.0 125.1 -284.9 125.75 -286.4 138.35 -315.4 M38.25 -265.75 L19.1 -274.25 0.0 -280.75 M19.1 -275.0 L19.1 -274.25 M145.25 -273.75 L130.6 -273.75 130.0 -272.4 144.5 -272.4 145.1 -273.15 145.25 -273.75 193.85 -364.65 M130.6 -273.75 L130.6 -274.15 125.75 -286.4 M103.85 -218.4 L130.0 -272.4 125.1 -284.9 M145.25 -265.25 L144.6 -264.4 144.5 -263.9 M144.6 -264.4 L144.35 -271.9 115.5 -218.15 115.6 -211.75 M144.5 -272.4 L144.35 -271.9 M145.35 -265.75 L145.1 -273.15 M94.35 -198.15 L90.85 -207.0 M119.0 -207.4 L120.6 -210.15 M138.6 -168.25 Q133.05 -190.5 119.0 -192.4 L119.0 -207.4 105.0 -207.4 M115.5 -218.15 L110.35 -218.15 M94.35 -198.15 L104.85 -198.15 104.75 -197.5 104.85 -192.0 Q115.9 -190.95 121.65 -177.15 125.8 -167.3 126.0 -155.75 L125.75 32.5 118.25 32.5 118.25 36.75 121.0 36.85 121.25 37.35 121.0 78.8 133.35 78.75 133.35 41.6 130.25 40.6 130.25 35.85 130.6 35.85 132.35 35.85 132.35 32.6 M76.75 -141.25 L88.6 -162.6 88.35 -167.25 88.25 -166.5 76.6 -145.15 76.6 -142.4 76.75 -141.25 Q79.3 -140.3 81.4 -138.95 L84.4 -136.7 Q90.0 -131.55 91.3 -122.6 L91.5 -121.0 92.1 22.1 92.0 22.5 92.0 23.6 105.85 27.35 106.25 27.35 106.25 -131.25 Q106.0 -156.95 88.6 -162.5 L88.6 -162.6 M94.35 -198.15 L79.6 -167.75 79.5 -167.65 79.5 -167.25 88.35 -167.25 104.75 -197.5 M104.85 -192.0 L88.6 -162.5 M85.75 22.1 L86.25 22.1 86.25 -107.15 Q86.4 -112.95 83.6 -120.4 79.55 -131.25 71.75 -131.75 L63.6 -117.25 63.6 -117.0 Q74.8 -115.1 76.5 -94.9 L76.5 19.6 85.75 22.1 80.85 22.1 80.75 25.0 82.85 25.1 82.6 53.9 88.5 53.85 88.5 27.5 86.35 26.85 86.35 23.75 90.6 23.6 90.6 22.25 92.1 22.1 M71.75 -142.4 L73.1 -145.15 68.85 -145.15 68.85 -145.5 66.35 -152.15 76.5 -174.75 84.95 -194.15 M76.5 -174.75 L79.5 -167.65 M76.6 -142.4 L71.75 -142.4 62.1 -142.15 62.1 -142.0 64.5 -136.0 71.75 -136.0 71.6 -135.4 71.75 -131.75 M76.6 -145.15 L73.1 -145.15 M0.0 -202.55 Q25.15 -196.05 40.3 -180.7 55.5 -165.25 60.8 -140.7 L60.95 -139.8 62.1 -142.0 M66.1 20.5 L66.1 40.85 62.75 40.65 62.85 19.0 61.5 19.0 61.5 16.75 65.5 16.75 65.5 -81.5 Q65.65 -86.25 62.95 -92.6 59.55 -100.45 54.5 -100.4 L54.5 -103.65 49.0 -103.65 47.1 -108.25 54.5 -108.4 54.5 -108.75 51.35 -109.0 49.5 -113.75 55.0 -126.25 60.95 -139.8 M57.25 -108.4 L57.25 -108.75 54.5 -108.75 M66.1 20.5 L64.6 20.0 64.6 17.75 68.75 17.6 68.6 -87.9 Q68.25 -101.6 57.35 -106.0 L57.25 -108.4 54.5 -108.4 M51.35 -109.0 L57.25 -120.75 63.6 -120.65 71.6 -135.4 M57.25 -108.75 L63.5 -120.15 63.6 -120.65 M63.6 -117.25 L63.5 -120.15 M64.5 -136.0 L57.25 -121.0 55.0 -126.25 M57.35 -106.0 L63.6 -117.0 M68.85 -145.5 L79.5 -167.25 M139.0 -316.9 L168.0 -382.0 M130.6 -274.15 L174.5 -365.25 M127.35 -205.4 L119.0 -192.4 M233.75 -426.25 L329.5 -600.0 M280.35 65.35 L280.25 69.1 280.35 72.75 343.2 89.15 M280.35 72.75 L263.6 72.75 343.2 94.9 M263.6 72.75 L263.25 72.85 263.25 73.5 263.35 82.35 269.5 84.25 343.2 107.35 M263.25 73.5 L249.75 69.75 M244.6 60.35 L280.25 69.1 M173.1 44.85 L162.85 44.85 163.75 45.1 174.25 45.1 173.5 44.85 M218.6 60.35 L163.75 45.1 163.75 51.0 166.75 52.1 167.6 52.35 218.6 68.25 M163.75 51.0 L162.85 50.75 133.35 41.6 M162.85 44.85 L162.85 50.75 M269.5 84.25 L269.5 174.45 M167.6 52.35 L167.5 108.45 M166.75 107.95 L166.75 52.1 M132.35 35.85 L138.75 35.85 M90.6 23.6 L92.0 23.6 M90.6 22.25 L92.0 22.5 M102.25 66.2 L102.1 31.85 99.75 31.0 88.5 27.5 M118.25 32.5 L100.35 27.5 99.85 27.5 99.75 31.0 99.75 27.35 86.35 23.75 M99.85 27.5 L99.75 27.35 105.85 27.35 M118.25 36.75 L102.1 31.85 M106.25 27.35 L106.5 27.5 125.75 32.5 M133.35 86.35 L133.35 78.75 M76.5 19.6 L76.1 19.6 71.75 19.6 80.85 22.1 M66.1 20.5 L71.6 22.1 71.75 19.6 64.6 17.75 M73.35 47.5 L73.35 22.75 71.75 22.25 71.6 22.1 M68.75 17.6 L76.1 19.6 M80.75 25.0 L73.35 22.75 M162.85 44.85 L130.6 35.85" fill="none" stroke="#171317" stroke-linecap="round" stroke-linejoin="round" stroke-width="0.7000000000000001"/>
    <path d="M81.4 -132.35 L81.4 -132.3 81.4 -132.35 81.4 -138.95 M81.4 -132.35 L84.4 -136.7 M81.4 -132.3 Q89.4 -130.05 91.3 -122.6" fill="none" stroke="#171317" stroke-linecap="round" stroke-linejoin="round" stroke-width="0.75"/>
  </g>
</svg>
