<?xml version="1.0" encoding="UTF-8" standalone="no"?>
<svg xmlns:xlink="http://www.w3.org/1999/xlink" height="791.35px" width="343.9px" xmlns="http://www.w3.org/2000/svg">
  <g transform="matrix(1.0, 0.0, 0.0, 1.0, 0.35, 600.35)">
    <path d="M343.2 -600.0 L343.2 -495.45 296.45 -428.3 Q301.5 -415.9 304.05 -400.0 L269.15 -354.0 Q264.1 -364.55 256.65 -371.1 248.2 -378.55 236.75 -381.0 L281.35 -452.25 Q274.55 -459.45 266.35 -462.5 L236.6 -411.15 208.75 -411.15 243.85 -480.0 230.0 -480.25 230.0 -481.0 287.25 -600.0 319.35 -600.0 255.25 -480.0 255.35 -465.5 329.5 -600.0 343.2 -600.0 M0.0 -482.7 L0.0 -485.25 33.5 -473.75 66.25 -458.4 96.6 -433.5 122.6 -398.65 142.25 -357.4 146.75 -334.4 146.1 -332.9 141.5 -355.4 121.85 -397.0 96.0 -431.5 65.85 -455.9 33.25 -471.4 0.0 -482.7 M208.6 -392.25 L153.35 -289.0 153.25 -288.4 153.5 -280.5 208.75 -380.65 Q231.5 -376.95 242.4 -350.65 L177.9 -258.0 180.0 -253.25 182.9 -240.45 183.0 -239.9 184.25 -226.4 184.1 47.6 183.75 47.6 183.1 47.35 183.1 -225.15 182.1 -238.9 179.0 -251.9 176.9 -256.6 139.8 -203.3 Q142.5 -196.9 143.75 -188.9 L140.85 -185.05 138.4 -189.3 Q136.3 -192.6 133.95 -194.9 129.3 -199.45 123.75 -200.0 L133.0 -214.4 126.0 -219.25 123.75 -215.65 109.0 -215.65 115.25 -227.65 108.6 -227.65 108.5 -228.0 137.25 -287.4 137.25 -287.75 132.0 -300.75 132.75 -302.25 138.0 -289.0 187.85 -392.9 208.6 -392.9 208.6 -392.25 M152.35 -286.9 L152.5 -287.4 152.35 -287.4 152.35 -286.9 120.6 -227.65 120.75 -221.15 120.6 -220.9 120.7 -220.85 120.75 -221.15 152.5 -278.5 152.6 -278.9 152.35 -286.9 M153.5 -280.5 L153.35 -280.0 153.4 -280.0 153.5 -280.5 M109.0 -205.5 L91.35 -172.9 91.05 -172.9 91.05 -172.4 78.85 -149.25 78.85 -146.15 73.75 -146.15 75.25 -149.25 70.85 -149.25 70.85 -149.65 82.25 -172.9 82.25 -173.4 98.1 -206.0 109.0 -206.0 109.0 -205.5 M126.45 -184.1 L91.25 -133.55 92.7 -129.65 90.25 -132.15 Q87.05 -135.0 83.6 -135.65 L87.0 -140.65 83.6 -143.15 Q82.35 -143.9 79.0 -145.25 L91.35 -167.75 91.6 -168.0 109.1 -199.5 Q119.8 -198.6 126.1 -184.85 L126.45 -184.1 M85.25 -124.95 L75.5 -110.9 75.15 -111.15 75.35 -110.75 67.65 -99.65 66.85 -101.35 Q66.4 -101.8 63.1 -102.75 L64.5 -104.65 63.1 -105.65 58.6 -108.25 65.1 -120.0 65.25 -119.95 65.25 -120.2 73.75 -135.4 Q80.8 -134.85 85.2 -125.1 L85.25 -124.95 M73.6 -139.15 L65.1 -123.35 64.75 -123.35 64.85 -122.85 58.5 -111.15 52.5 -111.4 58.55 -123.8 58.6 -123.8 58.6 -123.85 66.25 -139.65 73.6 -139.65 73.6 -139.15" fill="#100f10" fill-rule="evenodd" stroke="none"/>
    <path d="M180.85 -410.75 L180.85 -411.15 208.75 -411.15 236.6 -411.15 236.75 -381.0 Q262.15 -375.6 272.55 -345.7 275.8 -336.4 277.15 -325.7 L277.85 -316.9 278.5 65.0 263.5 65.0 263.1 65.0 263.1 73.5 268.75 75.1 268.7 156.75 240.7 156.8 240.75 73.5 235.25 73.5 235.25 65.0 250.5 65.0 250.75 -305.9 Q250.55 -326.8 244.6 -344.65 234.0 -376.55 208.75 -380.65 L208.6 -392.25 208.75 -392.9 187.85 -392.9 180.85 -410.75 M109.0 -215.65 L123.75 -215.65 123.75 -200.0 Q132.1 -199.2 138.4 -189.3 143.6 -181.15 144.75 -172.4 L144.85 33.85 138.1 33.85 137.6 33.85 137.6 37.35 136.0 37.5 136.0 42.35 139.25 43.5 139.25 81.85 125.8 81.9 125.85 38.25 123.0 38.25 123.0 33.85 131.0 33.85 131.0 -162.15 Q131.25 -173.65 126.1 -184.85 119.8 -198.6 109.1 -199.5 L109.0 -205.5 109.1 -206.0 98.1 -206.0 94.5 -215.25 94.5 -215.65 109.0 -215.65 M83.6 -143.15 L83.6 -135.65 Q88.4 -134.75 92.7 -129.65 94.05 -126.75 94.5 -120.5 L94.75 22.75 93.0 22.75 93.0 24.35 88.9 24.35 88.85 27.6 91.0 28.35 91.0 55.25 85.0 55.05 85.1 25.75 83.1 25.75 83.1 22.75 88.25 22.75 88.6 22.75 88.5 -111.15 Q88.6 -117.5 85.2 -125.1 80.8 -134.85 73.75 -135.4 L73.6 -139.15 73.6 -139.65 66.25 -139.65 63.75 -145.9 73.75 -146.15 78.85 -146.15 79.0 -145.25 Q82.35 -143.9 83.6 -143.15 M50.0 -105.75 L48.0 -110.5 55.6 -110.65 58.5 -110.65 58.6 -108.25 63.1 -105.65 63.1 -102.75 Q66.4 -101.8 66.85 -101.35 71.05 -92.9 70.15 -80.6 L70.25 18.0 66.0 18.1 66.0 20.5 67.5 21.0 67.5 41.75 64.0 41.8 64.25 19.35 62.75 19.35 62.75 17.1 66.6 17.1 66.85 -80.6 Q66.8 -89.95 63.95 -95.75 60.9 -101.8 55.6 -102.4 L55.6 -105.75 50.0 -105.75" fill="#cccccc" fill-opacity="0.15294118" fill-rule="evenodd" stroke="none"/>
    <path d="M208.75 -411.15 L243.85 -480.0 229.6 -480.25 221.1 -502.4 264.25 -600.0 287.25 -600.0 319.35 -600.0 329.5 -600.0 343.2 -600.0 M0.0 -482.7 L33.25 -471.4 65.85 -455.9 96.0 -431.5 121.85 -397.0 141.5 -355.4 146.1 -332.9 146.75 -334.4 142.25 -357.4 122.6 -398.65 96.6 -433.5 66.25 -458.4 33.5 -473.75 0.0 -485.25 0.0 -482.7 M229.6 -480.25 L230.0 -480.4 230.0 -481.0 287.25 -600.0 M180.85 -410.75 L180.85 -411.15 208.75 -411.15 236.6 -411.15 266.35 -462.5 255.35 -465.5 255.25 -480.0 243.85 -480.0 M236.75 -381.0 L281.35 -452.25 Q274.55 -459.45 266.35 -462.5 M255.25 -480.0 L319.35 -600.0 M180.85 -410.75 L187.85 -392.9 208.75 -392.9 208.6 -392.25 208.75 -380.65 Q234.0 -376.55 244.6 -344.65 250.55 -326.8 250.75 -305.9 L250.5 65.0 235.25 65.0 235.25 73.5 240.75 73.5 240.7 156.8 268.7 156.75 268.75 75.1 263.1 73.5 263.1 65.0 263.5 65.0 278.5 65.0 277.85 -316.9 277.15 -325.7 Q275.8 -336.4 272.55 -345.7 262.15 -375.6 236.75 -381.0 L236.6 -411.15 M174.1 -262.9 L179.0 -251.9 182.1 -238.9 183.1 -225.15 183.1 47.35 183.75 47.6 184.1 47.6 184.25 -226.4 183.0 -239.9 180.0 -253.25 175.1 -264.15 168.75 -272.65 161.25 -278.15 153.35 -280.0 152.6 -278.9 152.5 -278.5 160.35 -276.75 167.85 -271.4 174.1 -262.9 M132.0 -300.75 L137.25 -287.75 138.0 -289.0 132.75 -302.25 132.0 -300.75 104.2 -238.0 108.5 -228.0 137.25 -287.4 137.25 -287.75 M146.1 -332.9 L132.75 -302.25 M73.75 -146.15 L75.25 -149.25 70.85 -149.25 70.85 -149.65 68.25 -156.25 79.35 -181.0 87.75 -200.65 Q82.95 -231.5 57.6 -259.9 L39.35 -274.0 19.75 -283.4 0.0 -290.05 M0.0 -291.0 L19.85 -284.15 39.5 -274.65 57.6 -259.9 M137.25 -287.4 L152.5 -287.4 153.25 -288.4 153.35 -289.0 138.0 -289.0 187.85 -392.9 M152.5 -287.4 L152.35 -286.9 152.6 -278.9 M153.35 -280.0 L153.5 -280.5 153.25 -288.4 M123.75 -215.65 L126.0 -219.25 120.6 -220.9 120.75 -221.15 120.6 -227.65 115.25 -227.65 109.0 -215.65 123.75 -215.65 123.75 -200.0 133.0 -214.4 126.0 -219.25 M115.25 -227.65 L108.6 -227.65 108.5 -228.0 M109.0 -215.65 L94.5 -215.65 94.5 -215.25 98.1 -206.0 109.1 -206.0 109.0 -205.5 109.1 -199.5 Q119.8 -198.6 126.1 -184.85 131.25 -173.65 131.0 -162.15 L131.0 33.85 123.0 33.85 123.0 38.25 125.85 38.25 125.8 81.9 139.25 81.85 139.25 43.5 136.0 42.35 136.0 37.5 137.6 37.35 137.6 33.85 138.1 33.85 144.85 33.85 144.75 -172.4 Q143.6 -181.15 138.4 -189.3 132.1 -199.2 123.75 -200.0 M87.75 -200.65 L94.5 -215.25 M152.5 -278.5 L120.75 -221.15 M152.35 -286.9 L120.6 -227.65 M109.0 -205.5 L91.35 -172.9 91.05 -172.4 91.35 -167.75 91.6 -168.0 109.1 -199.5 M98.1 -206.0 L82.25 -173.4 82.25 -172.9 91.35 -172.9 M83.6 -135.65 L87.0 -140.65 83.6 -143.15 83.6 -135.65 Q88.4 -134.75 92.7 -129.65 91.05 -135.25 87.0 -140.65 M83.6 -143.15 Q82.35 -143.9 79.0 -145.25 L78.85 -146.15 73.75 -146.15 63.75 -145.9 66.25 -139.65 73.6 -139.65 73.6 -139.15 73.75 -135.4 Q80.8 -134.85 85.2 -125.1 88.6 -117.5 88.5 -111.15 L88.6 22.75 88.25 22.75 83.1 22.75 83.1 25.75 85.1 25.75 85.0 55.05 91.0 55.25 91.0 28.35 88.85 27.6 88.9 24.35 93.0 24.35 93.0 22.75 94.75 22.75 94.5 -120.5 Q94.05 -126.75 92.7 -129.65 M91.6 -168.0 Q108.3 -164.45 109.85 -135.65 L109.95 20.7 110.0 28.35 131.0 33.85 M78.85 -146.15 L78.85 -149.25 75.25 -149.25 M0.0 -207.35 Q25.25 -200.95 40.9 -184.8 56.45 -168.75 62.3 -143.3 L62.4 -142.95 63.75 -145.9 M58.6 -123.85 L58.55 -123.8 52.5 -111.4 55.75 -111.15 58.5 -111.15 64.85 -122.85 65.1 -123.35 73.6 -139.15 M58.6 -123.85 L66.25 -139.65 M50.0 -105.75 L55.6 -105.75 55.6 -102.4 Q60.9 -101.8 63.95 -95.75 66.8 -89.95 66.85 -80.6 L66.6 17.1 62.75 17.1 62.75 19.35 64.25 19.35 64.0 41.8 67.5 41.75 67.5 21.0 66.0 20.5 66.0 18.1 70.25 18.0 70.15 -80.6 Q71.05 -92.9 66.85 -101.35 66.4 -101.8 63.1 -102.75 L63.1 -105.65 58.6 -108.25 58.5 -110.65 55.6 -110.65 48.0 -110.5 50.0 -105.75 M58.5 -110.65 L58.5 -111.15 M55.75 -111.15 L55.6 -110.65 M52.5 -111.4 L50.6 -116.15 56.4 -129.6 62.4 -142.95 M65.25 -120.2 L65.1 -120.0 65.25 -119.95 Q71.55 -118.55 75.15 -111.15 78.4 -104.55 78.25 -96.6 L78.35 20.1 88.25 22.75 M66.85 -101.35 L64.5 -104.65 63.1 -102.75 M64.5 -104.65 L63.1 -105.65 M65.1 -120.0 L58.6 -108.25 M65.25 -120.2 L73.75 -135.4 M91.35 -167.75 L79.0 -145.25 M91.05 -172.4 L78.85 -149.25 M82.25 -173.4 L79.35 -181.0 M70.85 -149.65 L82.25 -172.9 M144.75 -172.4 Q145.25 -200.25 133.0 -214.4 M208.75 -380.65 L153.5 -280.5 M208.6 -392.25 L153.35 -289.0 M278.5 65.0 L306.5 71.5 306.5 -374.65 Q304.35 -428.35 281.35 -452.25 M146.75 -334.4 L180.85 -410.75 M329.5 -600.0 L255.35 -465.5 M294.5 190.65 L294.5 92.1 287.6 90.0 287.5 80.25 268.75 75.1 M287.5 80.25 L287.85 79.5 306.5 79.5 306.35 75.6 263.5 65.0 M306.35 75.6 L306.5 71.5 M183.1 47.35 L182.75 47.35 171.85 47.35 172.85 47.75 183.75 47.6 M176.75 114.4 L177.0 55.25 176.0 55.0 175.85 113.85 M176.0 55.0 L172.85 53.85 171.85 53.6 139.25 43.5 M235.25 65.0 L172.85 47.75 172.85 53.85 M171.85 53.6 L171.85 47.35 136.0 37.5 M235.25 73.5 L177.0 55.25 M250.5 65.0 L184.1 47.6 M138.1 33.85 L145.0 35.6 144.85 33.85 M137.6 37.35 L144.85 37.35 145.0 35.6 M94.75 22.75 L94.75 23.1 94.75 24.35 109.25 28.25 109.85 28.35 109.95 20.7 M94.75 23.1 L93.0 22.75 M94.75 24.35 L93.0 24.35 M110.0 28.35 L109.85 28.35 103.6 28.35 123.0 33.85 M88.9 24.35 L103.1 28.35 103.25 28.35 103.6 28.35 M103.25 28.35 L103.25 32.1 105.45 32.85 123.0 38.25 M91.0 28.35 L103.25 32.1 103.1 28.35 M139.25 90.15 L139.25 81.85 M105.45 32.85 L105.5 68.3 M66.0 18.1 L73.5 20.1 73.55 20.1 78.35 20.1 70.25 18.0 M75.25 48.75 L75.25 23.5 75.1 23.35 73.5 22.75 67.5 21.0 M73.5 22.75 L73.5 20.1 M83.1 25.75 L75.1 23.35 M83.1 22.75 L73.55 20.1 M182.75 47.35 L144.85 37.35 M343.2 89.1 L306.5 79.5 M343.2 107.35 L294.5 92.1 M343.2 94.9 L287.85 79.5" fill="none" stroke="#171317" stroke-linecap="round" stroke-linejoin="round" stroke-width="0.7000000000000001"/>
    <path d="M58.55 -123.8 L58.6 -123.8 58.6 -123.85 M64.85 -122.85 L64.75 -123.35 58.6 -123.8 M56.4 -129.6 L58.6 -123.85 M65.25 -119.95 L65.25 -120.2 64.85 -122.85 M65.1 -123.35 L64.75 -123.35" fill="none" stroke="#171317" stroke-linecap="round" stroke-linejoin="round" stroke-width="0.75"/>
  </g>
</svg>
