<?xml version="1.0" encoding="UTF-8" standalone="no"?>
<svg xmlns:xlink="http://www.w3.org/1999/xlink" height="1199.0px" width="686.95px" xmlns="http://www.w3.org/2000/svg">
  <g transform="matrix(1.0, 0.0, 0.0, 1.0, 343.55, 599.9)">
    <path d="M-257.25 -411.75 L-268.9 -409.15 -279.65 -401.4 -289.25 -388.5 -296.4 -372.4 -301.0 -353.15 -302.5 -332.65 -302.4 70.35 -338.75 78.75 -338.75 83.35 -286.25 70.35 -285.75 70.35 -285.75 79.6 -292.0 81.35 -291.9 169.35 -261.65 169.35 -261.75 79.6 -255.75 79.5 -255.75 70.35 -184.5 50.5 -196.0 50.5 -272.25 70.35 -272.4 -328.15 -270.9 -352.9 -266.25 -372.15 -259.15 -388.5 Q-250.25 -403.75 -238.9 -409.15 L-226.9 -411.75 -226.9 -425.0 -204.4 -425.0 -196.75 -444.65 -257.15 -444.9 -257.25 -411.75 M-129.9 -224.5 L-130.0 -208.15 Q-151.15 -200.9 -152.4 -174.25 L-152.5 37.25 -144.75 35.25 -144.4 35.25 -144.25 39.1 -152.5 39.1 -194.9 50.25 -183.15 50.25 -143.5 39.1 -143.25 39.85 -143.25 44.35 -146.75 45.5 -146.65 94.6 -101.0 94.5 -91.25 85.25 -139.4 85.25 -132.15 85.1 -46.0 85.1 -42.0 77.5 -120.25 77.5 -132.15 85.1 -132.15 39.85 -129.25 39.85 -129.4 35.25 -108.25 29.35 -107.75 29.35 -93.15 25.1 -92.5 25.1 -92.5 28.5 -94.9 29.25 -94.75 60.85 -110.4 71.0 -1.4 71.0 Q-1.1 68.95 -0.5 69.8 L0.1 71.0 109.1 71.0 109.35 71.1 75.35 71.1 81.85 77.35 119.0 77.35 119.25 77.5 41.1 77.5 45.0 85.1 138.3 85.25 90.35 85.5 100.0 94.5 145.6 94.6 145.75 94.75 50.35 94.75 56.25 106.0 96.5 106.35 163.25 106.25 163.6 106.35 163.85 106.5 112.75 106.5 128.1 121.25 186.35 121.25 187.1 121.6 128.75 121.6 149.35 141.25 217.25 141.25 218.0 141.75 75.5 141.75 89.85 169.0 260.0 169.0 260.5 169.35 179.75 169.75 179.85 170.0 222.6 210.5 324.6 210.5 324.6 211.0 325.35 211.5 112.75 211.5 114.35 215.1 148.35 278.6 343.4 278.6 343.4 280.6 296.85 280.6 343.4 324.65 343.4 330.25 291.75 280.5 1.85 280.5 3.1 412.0 343.4 412.0 343.4 416.0 3.1 416.0 4.75 599.1 -5.9 599.1 -4.25 432.85 -4.5 416.0 -343.55 416.0 -343.55 412.0 -4.4 412.0 -3.15 280.5 -292.75 280.5 -343.55 329.35 -343.55 323.7 -297.9 280.5 -343.55 280.5 -343.55 278.6 -149.4 278.6 -113.65 211.85 -113.65 211.5 -326.4 211.5 -343.55 222.65 -343.55 94.6 -318.4 87.6 -338.9 87.6 -343.55 88.8 -343.55 -599.85 -221.15 -599.9 -23.75 -111.75 -54.15 -83.5 Q-57.5 -79.5 -57.9 -70.5 L-57.9 13.85 -57.75 14.5 -69.25 17.5 -69.4 -80.15 -69.0 -89.5 Q-68.65 -100.25 -57.75 -104.5 L-57.75 -107.9 -52.15 -107.9 -50.5 -112.9 -60.75 -112.9 -60.75 -110.0 Q-64.4 -109.75 -65.5 -108.15 L-65.4 -104.5 Q-69.4 -104.0 -69.5 -103.25 -73.75 -93.4 -73.0 -89.0 L-72.9 17.5 -72.75 17.6 -72.75 18.35 -91.65 23.35 -92.0 23.35 -92.15 -108.75 -91.65 -119.25 Q-91.25 -133.4 -76.9 -139.0 L-76.75 -143.5 -69.25 -143.5 -66.65 -150.0 -82.15 -150.25 -82.25 -149.15 Q-82.65 -148.65 -86.65 -147.9 L-87.15 -147.4 -87.15 -139.5 Q-92.4 -138.65 -96.75 -132.9 L-98.0 -127.9 -98.65 -120.4 -98.65 23.85 -96.75 23.5 -96.65 25.1 -98.5 25.1 -114.25 29.25 -109.75 29.35 -114.9 29.35 -137.5 35.25 -137.65 -163.15 -136.75 -178.15 -134.5 -187.9 -130.9 -196.15 -126.15 -202.5 Q-121.4 -207.4 -114.75 -207.75 L-114.75 -214.5 -103.4 -214.5 -99.5 -224.25 -129.9 -224.5 M-55.65 16.85 L-55.65 35.35 -66.5 42.5 -66.65 19.85 -65.0 19.75 -65.0 17.5 -54.75 14.5 -54.25 14.5 -54.25 15.75 -54.4 16.5 -55.65 16.85 M-76.4 20.6 L-68.65 18.35 -68.4 19.85 -68.4 20.85 -70.0 21.35 -70.0 44.85 -88.5 56.75 -88.5 26.5 -86.4 26.5 -86.5 23.35 -76.75 20.6 -76.4 20.6 M-76.4 71.25 L-76.65 71.1 -110.5 71.1 -120.0 77.35 -82.65 77.25 -76.4 71.25 M-51.0 97.0 L-55.5 106.25 54.35 106.25 48.35 94.75 -49.5 94.75 -51.0 97.0 M-40.75 77.5 L-44.65 85.1 43.5 85.1 39.6 77.5 -40.75 77.5 M-1.5 71.1 L-75.0 71.1 -81.4 77.35 -1.25 77.35 -1.5 71.1 M-127.5 121.6 L-147.75 141.25 -1.9 141.25 -1.9 121.6 -127.5 121.6 M-1.25 86.0 L-1.65 85.25 -89.75 85.25 -99.15 94.5 -1.4 94.5 -1.25 86.0 M-130.0 121.6 L-188.4 121.6 -218.25 141.25 -150.25 141.1 -129.9 121.85 -130.0 121.6 M-129.15 121.1 L-113.9 106.5 -164.9 106.5 -187.4 121.0 -187.5 121.25 -129.15 121.1 M-111.75 106.5 L-127.15 121.25 -1.65 121.25 -1.4 108.0 -1.75 106.5 -111.75 106.5 M-77.9 145.1 L-76.5 141.75 -219.0 141.75 -261.0 169.0 -90.75 169.0 -78.4 145.5 -77.9 145.1 M-73.9 141.75 L-87.9 168.85 86.75 169.0 72.75 141.75 -73.9 141.75 M-57.4 106.25 L-51.25 94.75 -146.75 94.75 -164.25 106.25 -57.4 106.25 M-292.4 169.75 L-325.65 189.0 -325.65 210.5 -223.65 210.5 -180.65 169.85 -292.4 169.75 M1.0 169.75 L1.35 210.5 218.75 210.5 176.35 169.75 1.0 169.75 M0.35 106.75 L0.6 121.25 126.0 121.25 112.85 108.35 110.5 106.5 0.35 106.75 M0.5 121.75 L0.75 141.25 146.75 141.25 126.5 121.6 0.5 121.75 M0.1 71.1 L0.0 71.75 Q-0.65 76.85 0.75 77.35 L80.35 77.35 74.0 71.1 0.1 71.1 M98.1 94.5 L88.6 85.25 0.25 85.35 Q-0.65 93.6 0.85 94.5 L98.1 94.5 M-2.4 210.5 L-2.15 169.75 -177.65 169.75 -219.75 210.5 -2.4 210.5 M-109.75 211.5 L-144.4 278.35 143.25 278.5 108.6 211.5 -109.75 211.5" fill="#100f10" fill-rule="evenodd" stroke="none"/>
  </g>
</svg>
