<?xml version="1.0" encoding="UTF-8" standalone="no"?>
<svg xmlns:xlink="http://www.w3.org/1999/xlink" height="810.85px" width="343.9px" xmlns="http://www.w3.org/2000/svg">
  <g transform="matrix(1.0, 0.0, 0.0, 1.0, 0.35, 600.35)">
    <path d="M343.2 -600.0 L343.2 -495.45 326.55 -471.55 Q332.2 -457.85 335.1 -440.85 L291.25 -383.1 Q285.75 -394.8 278.0 -401.8 268.7 -410.2 256.1 -411.9 L256.25 -412.25 310.1 -498.4 Q298.5 -508.6 293.75 -509.75 L256.1 -444.9 225.85 -444.9 268.75 -529.0 253.5 -529.25 287.25 -600.0 319.35 -600.0 281.35 -529.0 281.5 -513.0 329.5 -600.0 343.2 -600.0 M0.0 -511.05 L0.0 -514.0 35.5 -501.75 70.25 -485.15 102.35 -459.0 129.85 -422.25 150.25 -379.25 155.5 -354.15 154.75 -352.4 149.85 -376.25 129.1 -420.25 101.75 -456.75 69.75 -482.65 35.25 -499.0 0.0 -511.05 M225.85 -425.0 L225.75 -424.4 162.35 -306.0 162.25 -305.25 162.5 -296.9 225.85 -411.75 Q250.8 -407.15 262.45 -379.45 L188.3 -272.95 190.6 -267.75 193.8 -254.85 193.7 -254.75 193.85 -254.65 195.1 -239.65 194.85 50.5 193.85 50.25 193.85 -238.25 192.85 -253.0 189.5 -266.65 187.35 -271.55 146.3 -212.65 Q149.05 -206.1 150.35 -197.65 L146.65 -192.8 Q143.85 -199.0 139.5 -202.85 135.05 -206.85 129.0 -208.4 L139.1 -224.25 Q135.7 -228.0 131.75 -229.4 L128.85 -224.5 113.6 -224.5 120.5 -238.0 113.5 -238.0 113.5 -238.4 145.25 -304.25 139.85 -318.25 140.6 -320.0 146.1 -306.4 147.25 -308.15 203.25 -425.0 225.85 -425.0 M161.5 -294.75 L161.6 -295.25 161.35 -303.75 126.1 -238.0 126.25 -231.0 161.5 -294.75 M113.5 -214.0 L94.6 -178.75 94.35 -178.0 81.0 -153.65 81.1 -150.25 75.75 -150.25 77.5 -153.65 73.0 -154.0 102.1 -214.5 113.6 -214.5 113.5 -214.0 M94.75 -173.75 L113.75 -207.75 Q126.0 -206.0 131.85 -191.9 L94.1 -137.65 95.95 -132.3 92.75 -135.7 Q89.45 -138.65 86.0 -139.5 L89.5 -144.75 86.0 -147.4 Q83.55 -149.0 81.1 -149.15 L94.7 -173.8 94.75 -173.75 M75.6 -142.9 L66.85 -126.9 66.6 -126.0 59.75 -113.5 53.6 -113.75 60.0 -126.65 60.0 -126.9 68.1 -143.5 75.75 -143.5 75.6 -142.9 M65.8 -106.85 L64.35 -108.15 Q62.35 -109.7 59.85 -110.5 L75.85 -139.0 Q83.15 -138.35 87.55 -128.25 L69.1 -101.8 68.15 -103.7 64.35 -104.65 65.8 -106.85 M187.35 58.5 L187.05 120.7 186.35 120.15 186.35 58.25 187.35 58.5 M183.1 57.1 L182.0 56.75 182.0 50.25 182.5 50.25 183.1 50.5 183.1 57.1" fill="#100f10" fill-rule="evenodd" stroke="none"/>
    <path d="M195.75 -444.5 L195.75 -444.9 225.85 -444.9 256.1 -444.9 256.25 -412.25 256.1 -411.9 Q280.4 -408.65 292.5 -380.25 296.75 -370.25 298.95 -358.25 300.6 -349.3 300.6 -342.75 L301.35 70.35 285.1 70.35 284.75 70.35 284.75 79.6 290.85 81.35 290.8 169.75 260.4 169.75 260.5 79.6 254.6 79.5 254.6 70.35 271.1 70.35 271.35 -331.25 Q270.95 -355.55 264.45 -374.15 253.1 -406.75 225.85 -411.75 L225.75 -424.4 225.85 -425.0 203.25 -425.0 195.75 -444.5 M98.35 -224.15 L98.5 -224.5 113.6 -224.5 128.85 -224.5 129.0 -208.4 Q148.1 -203.5 151.35 -174.25 L151.5 35.25 143.25 35.25 143.25 39.1 142.25 39.25 142.25 44.35 145.6 45.5 145.6 85.25 131.0 85.35 131.1 39.85 128.1 39.85 128.1 35.25 136.25 35.25 136.6 -165.4 Q136.35 -179.6 132.65 -189.85 126.85 -205.85 113.75 -207.75 L113.5 -214.0 113.6 -214.5 102.1 -214.5 98.35 -224.15 M81.25 -149.4 L81.1 -149.15 Q83.55 -149.0 86.0 -147.4 L86.0 -139.5 Q91.2 -138.2 95.95 -132.3 L97.0 -127.9 97.6 23.35 95.6 23.5 95.6 25.1 91.85 25.1 91.5 25.25 91.5 28.5 93.75 29.25 93.75 56.85 87.3 56.85 87.5 26.5 85.35 26.5 85.35 23.35 90.6 23.35 91.0 23.35 91.1 -112.0 Q91.4 -118.8 87.95 -127.3 83.5 -138.3 75.85 -139.0 L75.6 -142.9 75.75 -143.5 68.1 -143.5 65.6 -149.9 65.6 -150.25 75.75 -150.25 81.1 -150.25 81.25 -149.4 M56.75 -112.9 L59.75 -112.9 59.85 -110.5 Q62.35 -109.7 64.35 -108.15 L64.3 -104.65 64.3 -104.6 64.35 -104.65 68.15 -103.7 Q70.8 -99.1 71.6 -91.65 L71.75 18.35 67.35 18.5 67.35 20.85 69.0 21.35 69.0 42.6 65.45 42.6 65.6 19.85 64.0 19.75 64.0 17.5 68.1 17.5 68.25 -84.75 Q68.4 -90.7 65.75 -96.55 62.45 -103.75 56.75 -104.5 L56.75 -107.9 51.0 -107.9 49.35 -112.9 56.75 -112.9" fill="#cccccc" fill-opacity="0.15294118" fill-rule="evenodd" stroke="none"/>
    <path d="M225.85 -444.9 L268.75 -529.0 253.5 -529.25 243.75 -553.65 264.25 -600.0 287.25 -600.0 319.35 -600.0 329.5 -600.0 343.2 -600.0 M0.0 -514.0 L0.0 -511.05 35.25 -499.0 69.75 -482.65 101.75 -456.75 129.1 -420.25 149.85 -376.25 154.75 -352.4 155.5 -354.15 150.25 -379.25 129.85 -422.25 102.35 -459.0 70.25 -485.15 35.5 -501.75 0.0 -514.0 M256.1 -444.9 L293.75 -509.75 281.5 -513.0 281.35 -529.0 268.75 -529.0 M256.25 -412.25 L310.1 -498.4 Q298.5 -508.6 293.75 -509.75 M195.75 -444.5 L203.25 -425.0 225.85 -425.0 225.75 -424.4 225.85 -411.75 Q253.1 -406.75 264.45 -374.15 270.95 -355.55 271.35 -331.25 L271.1 70.35 254.6 70.35 254.6 79.5 260.5 79.6 260.4 169.75 290.8 169.75 290.85 81.35 284.75 79.6 284.75 70.35 285.1 70.35 301.35 70.35 300.6 -342.75 Q300.6 -349.3 298.95 -358.25 296.75 -370.25 292.5 -380.25 280.4 -408.65 256.1 -411.9 L256.25 -412.25 256.1 -444.9 225.85 -444.9 195.75 -444.9 195.75 -444.5 155.5 -354.15 M281.35 -529.0 L319.35 -600.0 M287.25 -600.0 L253.5 -529.25 M225.75 -424.4 L162.35 -306.0 162.25 -305.25 162.5 -296.9 225.85 -411.75 M162.35 -306.0 L146.1 -306.0 146.1 -306.4 140.6 -320.0 139.85 -318.25 145.25 -304.25 161.5 -304.25 161.35 -303.75 161.6 -295.25 161.5 -294.75 169.85 -292.9 177.75 -287.25 184.35 -278.25 189.5 -266.65 192.85 -253.0 193.85 -238.25 193.85 50.25 194.85 50.5 195.1 -239.65 193.85 -254.65 190.6 -267.75 185.35 -279.65 178.75 -288.75 170.75 -294.5 162.35 -296.5 162.5 -296.9 M146.1 -306.4 L147.25 -308.15 203.25 -425.0 M154.75 -352.4 L140.6 -320.0 M0.0 -300.05 L20.35 -293.15 40.75 -283.4 59.5 -268.25 59.6 -268.9 40.85 -284.15 20.5 -294.0 0.0 -301.0 M59.5 -268.25 L71.55 -252.35 59.6 -268.9 M113.6 -224.5 L120.5 -238.0 113.5 -238.0 113.5 -238.4 109.25 -249.25 139.85 -318.25 M98.35 -224.15 L98.5 -224.5 113.6 -224.5 128.85 -224.5 131.75 -229.4 126.25 -231.0 126.1 -238.0 120.5 -238.0 M98.35 -224.15 L102.1 -214.5 113.6 -214.5 113.5 -214.0 113.75 -207.75 Q126.85 -205.85 132.65 -189.85 136.35 -179.6 136.6 -165.4 L136.25 35.25 128.1 35.25 128.1 39.85 131.1 39.85 131.0 85.35 145.6 85.25 145.6 45.5 142.25 44.35 142.25 39.25 143.25 39.1 143.25 35.25 151.5 35.25 151.35 -174.25 Q148.1 -203.5 129.0 -208.4 L128.85 -224.5 M98.35 -224.15 L90.5 -207.0 81.85 -186.75 85.0 -178.75 102.1 -214.5 M129.0 -208.4 L139.1 -224.25 Q135.7 -228.0 131.75 -229.4 M161.5 -294.75 L126.25 -231.0 M161.35 -303.75 L126.1 -238.0 M113.5 -238.4 L145.25 -304.25 M90.5 -207.0 Q85.0 -233.65 71.55 -252.35 M94.6 -178.75 L85.0 -178.75 73.0 -154.0 77.5 -153.65 81.0 -153.65 94.35 -178.0 94.6 -178.75 113.5 -214.0 M97.6 23.35 L97.5 23.85 97.5 25.1 113.1 29.25 113.6 29.25 113.85 -140.4 Q111.7 -170.75 94.75 -173.75 L94.75 -173.95 81.25 -149.4 81.1 -149.15 Q83.55 -149.0 86.0 -147.4 L89.5 -144.75 Q93.8 -140.15 95.95 -132.3 L97.0 -127.9 97.6 23.35 95.6 23.5 97.5 23.85 M94.75 -173.95 L94.6 -178.75 M81.1 -150.25 L81.25 -149.4 M81.0 -153.65 L81.1 -150.25 75.75 -150.25 65.6 -150.25 65.6 -149.9 68.1 -143.5 75.75 -143.5 75.6 -142.9 75.85 -139.0 Q83.5 -138.3 87.95 -127.3 91.4 -118.8 91.1 -112.0 L91.0 23.35 90.6 23.35 85.35 23.35 85.35 26.5 87.5 26.5 87.3 56.85 93.75 56.85 93.75 29.25 91.5 28.5 91.5 25.25 91.85 25.1 95.6 25.1 95.6 23.5 M95.95 -132.3 Q91.2 -138.2 86.0 -139.5 L86.0 -147.4 M86.0 -139.5 L89.5 -144.75 M81.85 -186.75 L70.25 -160.75 73.0 -154.0 M77.5 -153.65 L75.75 -150.25 M56.75 -112.9 L56.85 -113.5 53.6 -113.75 51.75 -118.65 57.75 -132.4 63.85 -146.75 63.85 -146.9 63.85 -147.0 Q50.95 -200.3 0.15 -212.8 M63.85 -146.9 L63.9 -146.95 65.6 -149.9 M56.85 -113.5 L59.75 -113.5 66.6 -126.0 66.85 -126.9 60.0 -126.9 60.0 -126.65 53.6 -113.75 M66.85 -126.9 L75.6 -142.9 M57.75 -132.4 L60.0 -126.9 68.1 -143.5 M56.75 -112.9 L59.75 -112.9 59.75 -113.5 M69.0 21.35 L69.0 42.6 65.45 42.6 65.6 19.85 64.0 19.75 64.0 17.5 68.1 17.5 68.25 -84.75 Q68.4 -90.7 65.75 -96.55 62.45 -103.75 56.75 -104.5 L56.75 -107.9 51.0 -107.9 49.35 -112.9 Q41.35 -152.7 0.0 -164.45 M49.35 -112.9 L56.75 -112.9 M64.35 -108.15 Q62.35 -109.7 59.85 -110.5 L59.75 -112.9 M64.35 -108.15 L65.8 -106.85 68.15 -103.7 Q70.8 -99.1 71.6 -91.65 L71.75 18.35 80.0 20.6 80.1 20.6 80.25 -96.0 Q79.45 -120.85 66.75 -123.0 L59.85 -110.5 M66.75 -123.0 L66.6 -126.0 M75.85 -139.0 L66.75 -123.0 M113.75 -207.75 L94.75 -173.75 M139.1 -224.25 Q152.9 -209.15 151.35 -174.25 M329.5 -600.0 L281.5 -513.0 M301.35 70.35 L337.6 78.75 337.75 -413.4 Q335.7 -469.5 310.1 -498.4 M343.2 89.05 L337.75 87.6 317.1 87.75 343.2 95.0 M285.1 70.35 L337.75 83.35 337.6 78.75 M337.75 87.6 L337.75 83.35 M343.2 107.45 L324.6 101.6 324.6 210.15 M290.85 81.35 L317.1 88.6 317.1 87.75 M193.85 50.25 L182.5 50.25 183.1 50.5 194.85 50.5 271.1 70.35 M254.6 70.35 L183.1 50.5 183.1 57.1 186.35 58.25 187.35 58.5 254.6 79.5 M145.6 45.5 L182.0 56.75 182.0 50.25 142.25 39.25 M183.1 57.1 L182.0 56.75 M182.5 50.25 L182.0 50.25 M324.6 101.6 L317.1 99.25 317.1 88.6 M186.35 58.25 L186.35 120.65 M187.35 58.5 L187.1 120.65 M143.25 39.1 L151.5 39.1 151.5 37.25 143.25 35.25 M151.5 35.25 L151.5 37.25 M95.6 25.1 L97.5 25.1 M113.6 29.25 L113.85 29.35 136.25 35.25 M91.85 25.1 L106.6 29.35 106.85 29.35 108.45 29.35 113.1 29.25 M128.1 35.25 L106.85 29.35 106.85 33.25 109.25 34.0 128.1 39.85 M106.85 33.25 L106.6 33.1 93.75 29.25 M106.6 33.1 L106.6 29.35 M113.85 29.35 L108.45 29.35 M145.6 94.25 L145.6 85.25 M109.35 70.8 L109.25 34.0 M69.0 21.35 L67.35 20.85 67.35 18.5 71.75 18.35 M77.1 49.95 L77.1 24.0 75.35 23.35 75.1 23.25 69.0 21.35 M67.35 18.5 L75.25 20.6 75.5 20.6 80.0 20.6 M75.1 23.25 L75.25 20.6 75.35 23.35 M80.1 20.6 L80.25 20.6 90.6 23.35 M77.1 24.0 L85.35 26.5 M85.35 23.35 L75.5 20.6 M151.5 39.1 L193.85 50.25" fill="none" stroke="#171317" stroke-linecap="round" stroke-linejoin="round" stroke-width="0.7000000000000001"/>
    <path d="M64.35 -108.15 L64.3 -104.65 64.35 -104.65 65.8 -106.85 M64.3 -104.65 L64.3 -104.6 64.35 -104.65 68.15 -103.7" fill="none" stroke="#171317" stroke-linecap="round" stroke-linejoin="round" stroke-width="0.75"/>
  </g>
</svg>
