<?xml version="1.0" encoding="UTF-8" standalone="no"?>
<svg xmlns:xlink="http://www.w3.org/1999/xlink" height="1199.1px" width="681.6px" xmlns="http://www.w3.org/2000/svg">
  <g transform="matrix(1.0, 0.0, 0.0, 1.0, 343.55, 600.0)">
    <path d="M-280.0 -448.5 L-292.9 -445.65 -304.65 -437.15 -315.0 -423.25 -322.9 -405.5 -327.9 -383.15 -329.5 -362.25 -329.4 76.6 -343.55 79.95 -343.55 -600.0 -221.2 -600.0 -24.45 -113.45 -55.15 -84.9 Q-58.25 -82.4 -58.9 -72.0 L-58.9 14.75 -70.65 17.85 -70.75 -83.0 -70.4 -91.5 Q-70.15 -102.4 -59.0 -106.75 L-59.0 -110.15 -53.25 -110.15 -51.4 -115.25 -62.15 -115.25 -62.15 -112.5 -65.4 -111.75 -66.9 -110.5 -66.9 -107.0 -67.65 -106.5 -69.9 -106.15 -71.25 -105.15 Q-75.4 -95.65 -74.5 -90.25 L-74.4 18.85 -83.0 21.1 -83.5 21.1 -94.65 24.1 -94.75 -111.65 -94.25 -122.5 -92.65 -129.25 -90.15 -135.0 Q-87.15 -140.25 -83.15 -142.15 L-78.9 -143.0 -79.0 -147.65 -71.25 -147.65 -68.5 -154.25 -84.65 -154.5 -84.75 -153.65 -89.5 -152.0 -89.5 -143.25 Q-97.65 -140.9 -99.75 -136.15 L-101.0 -131.65 -101.65 -124.0 -101.65 24.6 -99.9 24.1 -99.5 24.1 -99.4 25.85 -101.5 25.85 -118.5 30.35 -111.75 30.35 -95.75 25.85 -95.4 25.85 -95.4 29.35 -97.75 30.1 -97.65 62.75 -114.25 73.5 -1.25 73.5 76.25 73.5 113.1 73.5 113.35 73.6 78.0 73.6 85.0 80.35 123.6 80.35 123.85 80.5 42.85 80.6 47.1 88.75 136.5 88.75 136.75 88.85 144.7 89.0 94.25 89.1 104.6 99.0 152.6 99.1 152.6 99.25 58.25 99.25 Q53.25 98.6 52.85 99.75 L59.5 112.0 172.25 112.0 172.5 112.1 172.85 112.35 119.0 112.35 136.1 128.85 198.1 128.85 197.85 128.5 199.25 129.35 198.85 129.25 136.85 129.25 160.35 151.6 233.25 151.6 234.0 152.1 81.0 152.1 98.0 184.1 283.25 184.1 283.75 184.5 195.85 185.0 196.1 185.35 247.85 234.35 338.05 234.35 338.05 235.6 125.5 235.6 171.75 322.1 338.05 322.1 338.05 325.2 337.35 324.5 2.35 324.5 3.75 505.6 4.1 514.5 338.05 514.5 338.05 520.75 4.1 520.75 4.75 599.1 -5.9 599.1 -5.15 522.1 -5.4 520.75 -343.55 520.75 -343.55 514.5 -5.25 514.5 -3.4 328.1 -3.65 324.5 -338.5 324.5 -343.55 329.35 -343.55 322.1 -172.5 322.1 -126.5 236.0 -126.5 235.6 -343.55 235.6 -343.55 234.35 -248.9 234.35 -197.0 185.25 -318.5 185.0 -343.55 199.5 -343.55 84.55 -311.5 76.6 -311.25 86.75 -317.9 88.6 -317.9 184.5 -285.0 184.5 -285.0 86.75 -278.5 86.75 -278.5 76.6 -195.75 53.75 -208.4 53.6 -296.15 76.6 -296.5 76.6 -296.65 -358.15 -295.0 -384.4 -290.0 -405.25 -282.25 -423.25 -272.0 -437.0 -260.15 -445.65 -247.15 -448.5 -247.15 -462.9 -222.65 -462.9 -214.25 -484.15 Q-214.45 -484.45 -247.25 -484.5 L-280.0 -484.5 -280.0 -448.5 M-136.5 -204.5 Q-132.15 -212.4 -125.9 -215.4 L-119.5 -216.75 -119.65 -223.75 -107.75 -223.75 -103.75 -233.9 -135.4 -234.15 -135.5 -217.15 Q-141.65 -216.65 -147.4 -211.25 L-152.4 -204.5 -156.25 -195.4 -158.5 -186.0 -159.4 -175.15 -159.25 36.75 -159.9 36.85 -159.9 39.0 -150.75 36.75 -150.75 41.1 -159.9 41.1 -207.0 53.35 -194.4 53.35 -150.75 41.1 -150.15 41.1 -150.15 46.5 -153.65 47.6 -153.65 99.1 -105.75 99.0 -95.25 89.0 -143.7 88.95 -137.75 88.85 -137.75 88.75 -48.15 88.75 -43.75 80.6 -125.0 80.6 -137.75 88.75 -137.9 41.6 -134.75 41.6 -134.75 36.75 -112.4 30.5 -119.0 30.5 -143.0 36.75 -143.4 36.75 -143.5 -170.9 -142.65 -185.75 -140.4 -195.75 -136.5 -204.5 M-55.25 16.75 L-56.65 17.25 -56.5 34.6 -56.65 36.0 -68.0 43.35 -68.0 20.25 -66.4 20.1 -66.4 17.85 -55.65 14.75 -55.25 14.75 -55.25 16.75 M-42.4 80.6 L-46.5 88.6 45.35 88.75 42.0 81.75 41.0 80.6 -42.4 80.6 M-79.15 73.85 L-79.4 73.6 -114.4 73.6 -124.65 80.35 -86.0 80.35 -85.5 80.0 -79.15 73.85 M-78.5 21.25 L-78.5 21.1 -70.5 18.85 -69.9 18.85 -69.9 21.35 -71.75 22.0 -71.65 45.85 -91.0 58.35 -91.0 27.25 -89.0 27.25 -89.0 24.1 -78.5 21.25 M-1.9 73.6 L-77.5 73.6 -84.4 80.35 -1.25 80.35 Q-0.65 74.1 -1.9 73.6 M-160.9 151.25 L-138.0 129.25 -199.9 129.25 -200.25 129.35 -234.15 151.6 -161.4 151.6 -160.9 151.25 M-98.75 184.0 L-81.9 152.1 -235.0 152.1 -284.25 184.1 -99.15 184.1 -98.75 184.0 M0.25 99.0 L102.75 99.0 92.5 89.0 0.25 89.0 0.25 99.0 M0.6 129.25 L0.75 151.6 157.5 151.6 134.1 129.25 0.6 129.25 M0.5 128.6 L1.1 128.85 133.85 128.85 119.35 114.6 116.6 112.35 0.5 112.5 0.5 128.6 M0.1 73.6 L0.0 74.5 Q-0.75 80.0 0.85 80.35 L83.5 80.35 76.5 73.6 0.1 73.6 M195.0 187.35 L192.1 185.0 1.1 185.25 1.5 234.35 243.6 234.35 195.0 187.35 M-244.65 234.35 L-2.65 234.35 -2.25 185.0 -193.5 185.0 -244.65 234.35 M-122.15 235.6 L-125.4 241.25 -166.9 322.1 165.75 322.1 121.25 235.6 -122.15 235.6 M-79.25 152.1 L-95.75 184.1 94.6 184.1 79.35 154.25 77.85 152.1 -79.25 152.1 M-103.75 99.0 L-1.5 99.0 Q-0.75 89.85 -1.9 89.0 L-93.65 89.0 -103.75 99.0 M-51.75 99.25 L-53.25 101.35 -58.5 112.0 57.35 112.0 50.85 99.25 -51.75 99.25 M-60.5 112.0 L-53.75 99.25 -153.65 99.25 -173.25 112.0 -60.5 112.0 M-135.4 129.25 L-158.5 151.6 -1.9 151.6 -1.75 129.25 -135.4 129.25 M-137.15 128.75 L-120.0 112.35 -173.9 112.35 -199.0 128.5 -199.4 129.0 -137.15 128.75 M-117.9 112.35 L-135.0 128.85 -1.75 128.85 -1.5 113.25 -1.65 112.35 -117.9 112.35" fill="#100f10" fill-rule="evenodd" stroke="none"/>
  </g>
</svg>
