<?xml version="1.0" encoding="UTF-8" standalone="no"?>
<svg xmlns:xlink="http://www.w3.org/1999/xlink" height="785.7px" width="343.9px" xmlns="http://www.w3.org/2000/svg">
  <g transform="matrix(1.0, 0.0, 0.0, 1.0, 0.35, 600.35)">
    <path d="M343.2 -600.0 L343.2 -557.35 Q335.1 -565.35 327.0 -567.65 L279.0 -484.5 246.25 -484.5 299.35 -589.15 282.0 -589.25 287.25 -600.0 319.35 -600.0 313.5 -589.15 313.6 -571.4 329.5 -600.0 343.2 -600.0 M343.2 -551.3 L343.2 -451.55 316.9 -416.9 Q310.95 -429.35 302.55 -437.05 292.55 -446.3 279.1 -448.9 L343.2 -551.3 M0.0 -542.95 L0.0 -546.1 37.75 -533.15 74.75 -515.5 108.85 -487.9 138.0 -448.75 138.1 -448.5 160.1 -402.25 160.1 -401.4 165.35 -376.4 164.35 -374.25 159.25 -399.65 137.25 -446.4 108.1 -485.15 74.25 -512.65 37.5 -530.15 0.0 -542.95 M246.0 -462.4 L172.6 -325.15 172.5 -324.4 172.75 -315.5 246.1 -448.5 Q273.35 -443.25 285.95 -413.25 L200.2 -290.05 202.6 -284.5 206.0 -269.9 207.35 -254.65 207.25 53.6 206.85 53.6 205.85 53.35 206.0 -253.15 204.85 -268.65 201.35 -283.25 199.1 -288.5 153.25 -222.65 Q156.15 -215.75 157.6 -207.15 L152.95 -201.05 151.95 -203.1 Q149.2 -208.5 145.75 -211.85 140.85 -216.55 134.5 -217.25 L145.85 -235.0 Q141.65 -239.45 138.1 -240.4 L134.35 -234.15 118.5 -234.15 126.35 -249.5 119.0 -249.5 119.0 -249.9 154.35 -323.25 148.6 -338.0 149.5 -340.0 155.25 -325.4 221.5 -462.9 246.1 -462.9 246.0 -462.4 M171.6 -313.15 L171.75 -313.65 171.5 -322.75 132.25 -249.5 132.35 -242.15 171.6 -313.15 M118.35 -223.15 L98.25 -185.75 88.25 -185.75 106.6 -223.75 118.5 -223.75 118.35 -223.15 M137.4 -199.85 L96.95 -141.8 Q98.45 -138.5 99.2 -134.7 98.55 -137.15 95.95 -139.45 L95.55 -139.8 Q92.65 -142.25 88.5 -143.5 L92.25 -149.15 88.35 -152.0 83.75 -153.9 98.0 -179.75 98.1 -180.0 118.5 -216.75 Q130.85 -215.55 137.4 -199.85 M97.85 -184.65 L83.6 -158.4 83.6 -154.5 77.85 -154.5 79.85 -158.4 75.25 -158.5 75.25 -158.75 88.1 -185.15 97.85 -185.15 97.85 -184.65 M77.75 -146.9 L68.35 -129.75 68.25 -129.0 61.1 -116.0 54.85 -116.25 70.1 -147.65 77.85 -147.65 77.75 -146.9 M52.5 -100.0 L47.1 -100.15 52.1 -110.15 57.85 -110.15 57.85 -109.65 52.5 -100.0 M61.25 -113.0 L77.85 -143.0 Q85.75 -142.5 90.15 -132.05 L70.55 -103.85 70.2 -104.55 69.55 -105.8 Q67.85 -106.85 65.8 -107.1 L65.8 -107.25 67.1 -109.25 65.75 -110.5 Q63.65 -112.2 61.25 -112.4 L61.25 -113.0 M60.75 -89.8 Q58.05 -95.95 52.5 -97.0 L58.0 -106.75 Q63.8 -106.4 67.05 -98.85 L60.75 -89.8 M194.6 60.75 L193.25 60.25 193.35 53.35 193.75 53.35 194.6 53.75 194.6 60.75 M199.25 62.25 L199.25 128.95 198.0 127.9 197.85 127.8 198.0 61.85 199.25 62.25" fill="#100f10" fill-rule="evenodd" stroke="none"/>
    <path d="M279.0 -484.5 L279.1 -448.9 Q305.75 -443.75 318.85 -412.6 323.4 -401.8 325.75 -389.1 327.45 -379.9 327.5 -373.4 L328.35 76.6 310.25 76.6 310.25 86.75 316.85 88.6 316.8 185.0 283.8 185.0 284.0 86.75 277.25 86.6 277.35 76.6 295.1 76.6 295.5 76.6 295.6 -360.65 Q295.05 -387.6 288.2 -407.4 275.9 -442.75 246.1 -448.5 L246.0 -462.4 246.1 -462.9 221.5 -462.9 213.25 -484.15 213.35 -484.5 246.25 -484.5 279.0 -484.5 M106.65 -223.75 L102.7 -234.2 102.75 -234.3 118.5 -234.15 134.35 -234.15 134.5 -217.25 Q145.35 -216.05 151.95 -203.1 157.25 -192.8 157.85 -180.5 L158.25 36.75 149.5 36.85 149.5 41.1 149.0 41.35 149.1 41.6 149.1 46.5 152.6 47.6 152.6 89.0 136.65 89.05 136.85 41.6 133.6 41.6 133.6 36.75 142.0 36.75 142.35 36.75 142.5 -172.65 Q142.65 -186.6 137.7 -199.05 131.15 -215.5 118.5 -216.75 L118.35 -223.15 118.5 -223.75 106.65 -223.75 M83.75 -153.9 L88.35 -152.0 88.5 -143.5 Q92.95 -142.15 95.95 -139.45 98.55 -137.15 99.2 -134.7 100.3 -130.65 100.25 -127.75 L100.6 24.1 98.35 24.1 98.35 25.85 94.35 26.0 94.35 29.35 96.6 30.1 96.6 58.5 89.8 58.55 90.0 27.25 87.85 27.25 87.85 24.1 93.5 24.1 93.75 -114.75 Q93.9 -122.4 90.65 -130.8 86.2 -142.45 77.85 -143.0 L77.75 -146.9 77.85 -147.65 70.1 -147.65 67.5 -154.15 67.5 -154.5 77.85 -154.5 83.6 -154.5 83.75 -153.9 M69.55 -105.8 L70.2 -104.55 Q73.25 -98.5 73.25 -93.65 L73.35 18.85 69.35 18.85 68.85 19.0 68.85 21.35 70.6 22.0 70.6 43.5 66.75 43.25 66.85 20.25 65.25 20.1 65.35 17.85 69.5 17.85 69.75 -86.0 Q69.8 -91.55 67.55 -97.65 64.25 -106.35 58.0 -106.75 L57.85 -109.65 57.85 -110.15 52.1 -110.15 50.1 -115.0 50.35 -115.25 58.0 -115.25 61.1 -115.25 61.25 -113.0 61.25 -112.4 Q63.65 -112.2 65.75 -110.5 L65.8 -107.25 65.75 -107.15 65.8 -107.1 Q67.85 -106.85 69.55 -105.8" fill="#cccccc" fill-opacity="0.15294118" fill-rule="evenodd" stroke="none"/>
    <path d="M343.2 -557.35 Q335.1 -565.35 327.0 -567.65 L279.0 -484.5 279.1 -448.9 343.2 -551.3 M246.25 -484.5 L299.35 -589.15 282.0 -589.25 277.85 -600.0 287.25 -600.0 319.35 -600.0 329.5 -600.0 313.6 -571.4 313.75 -570.65 327.0 -567.65 M118.5 -234.15 L126.35 -249.5 119.0 -249.5 119.0 -249.9 114.6 -261.25 148.6 -338.0 149.5 -340.0 164.35 -374.25 159.25 -399.65 137.25 -446.4 108.1 -485.15 74.25 -512.65 37.5 -530.15 0.0 -542.95 0.0 -546.1 37.75 -533.15 74.75 -515.5 108.85 -487.9 138.0 -448.75 138.1 -448.5 160.1 -402.25 160.1 -401.4 165.35 -376.4 213.25 -484.15 213.35 -484.5 246.25 -484.5 279.0 -484.5 M313.6 -571.4 L313.5 -589.15 299.35 -589.15 M213.25 -484.15 L221.5 -462.9 246.1 -462.9 246.0 -462.4 246.1 -448.5 Q275.9 -442.75 288.2 -407.4 295.05 -387.6 295.6 -360.65 L295.5 76.6 295.1 76.6 277.35 76.6 277.25 86.6 284.0 86.75 283.8 185.0 316.8 185.0 316.85 88.6 310.25 86.75 310.25 76.6 328.35 76.6 327.5 -373.4 Q327.45 -379.9 325.75 -389.1 323.4 -401.8 318.85 -412.6 305.75 -443.75 279.1 -448.9 M282.0 -589.25 L287.25 -600.0 M319.35 -600.0 L313.5 -589.15 M165.35 -376.4 L164.35 -374.25 M148.6 -338.0 L154.35 -323.25 171.6 -323.25 171.5 -322.75 171.75 -313.65 172.6 -315.0 172.75 -315.5 172.5 -324.4 172.6 -325.15 155.35 -325.15 155.25 -325.4 149.5 -340.0 M171.75 -313.65 L171.6 -313.15 180.5 -311.15 188.85 -305.15 196.0 -295.65 201.35 -283.25 204.85 -268.65 206.0 -253.15 205.85 53.35 206.85 53.6 207.25 53.6 207.35 -254.65 206.0 -269.9 202.6 -284.5 197.1 -297.15 190.0 -306.75 181.6 -312.9 172.6 -315.0 M77.85 -154.5 L79.85 -158.4 75.25 -158.5 75.25 -158.75 72.5 -165.9 84.75 -193.5 85.1 -194.0 85.1 -194.15 94.0 -215.0 Q88.95 -238.4 78.5 -256.15 L61.6 -277.75 42.25 -293.5 21.25 -303.5 0.0 -310.7 M0.0 -311.75 L21.25 -304.5 42.35 -294.25 61.85 -278.5 78.5 -256.15 M42.25 -293.5 L42.35 -294.25 M61.85 -278.5 L61.6 -277.75 M134.35 -234.15 L138.1 -240.4 132.35 -242.15 132.25 -249.5 126.35 -249.5 M102.7 -234.2 L94.0 -215.0 M85.1 -194.0 L88.25 -185.75 106.6 -223.75 106.65 -223.75 118.5 -223.75 118.35 -223.15 118.5 -216.75 Q131.15 -215.5 137.7 -199.05 142.65 -186.6 142.5 -172.65 L142.35 36.75 142.0 36.75 133.6 36.75 133.6 41.6 136.85 41.6 136.65 89.05 152.6 89.0 152.6 47.6 149.1 46.5 149.1 41.6 149.0 41.35 149.5 41.1 149.5 36.85 158.25 36.75 157.85 -180.5 Q157.25 -192.8 151.95 -203.1 145.35 -216.05 134.5 -217.25 L134.35 -234.15 118.5 -234.15 102.75 -234.3 M134.5 -217.25 L145.85 -235.0 Q141.65 -239.45 138.1 -240.4 M119.0 -249.9 L154.35 -323.25 M75.25 -158.75 L88.1 -185.15 88.1 -185.5 84.75 -193.5 M98.0 -179.75 L98.1 -180.0 97.85 -185.15 97.85 -184.65 98.0 -179.75 83.75 -153.9 88.35 -152.0 92.25 -149.15 Q97.6 -143.0 99.2 -134.7 100.3 -130.65 100.25 -127.75 L100.6 24.1 100.5 24.6 100.5 25.85 117.5 30.35 117.7 13.9 117.75 -145.25 Q116.4 -175.75 98.1 -180.0 L118.5 -216.75 M88.1 -185.15 L97.85 -185.15 98.25 -185.75 88.25 -185.75 88.1 -185.5 M83.75 -153.9 L83.6 -154.5 77.85 -154.5 67.5 -154.5 67.5 -154.15 70.1 -147.65 77.85 -147.65 77.75 -146.9 77.85 -143.0 Q86.2 -142.45 90.65 -130.8 93.9 -122.4 93.75 -114.75 L93.5 24.1 87.85 24.1 87.85 27.25 90.0 27.25 89.8 58.55 96.6 58.5 96.6 30.1 94.35 29.35 94.35 26.0 98.35 25.85 98.35 24.1 100.6 24.1 M83.6 -154.5 L83.6 -158.4 79.85 -158.4 M83.6 -158.4 L97.85 -184.65 M99.2 -134.7 Q98.55 -137.15 95.95 -139.45 92.95 -142.15 88.5 -143.5 L88.35 -152.0 M88.5 -143.5 L92.25 -149.15 M0.1 -218.1 Q55.4 -202.0 65.65 -150.4 L65.65 -150.25 67.5 -154.15 M68.35 -129.75 L68.6 -130.15 61.5 -130.15 54.85 -116.25 58.1 -116.0 61.1 -116.0 68.25 -129.0 68.35 -129.75 68.5 -126.0 77.85 -143.0 M65.65 -150.25 L59.35 -136.0 61.5 -130.15 70.1 -147.65 M68.6 -130.15 L77.75 -146.9 M58.0 -115.25 L58.1 -116.0 M59.35 -136.0 L52.55 -121.05 54.85 -116.25 M65.75 -110.5 Q63.65 -112.2 61.25 -112.4 L61.25 -113.0 61.1 -115.25 58.0 -115.25 50.35 -115.25 50.1 -115.0 52.1 -110.15 57.85 -110.15 57.85 -109.65 58.0 -106.75 Q64.25 -106.35 67.55 -97.65 69.8 -91.55 69.75 -86.0 L69.5 17.85 65.35 17.85 65.25 20.1 66.85 20.25 66.75 43.25 70.6 43.5 70.6 22.0 68.85 21.35 68.85 19.0 69.35 18.85 73.35 18.85 73.25 -93.65 Q73.25 -98.5 70.2 -104.55 L69.55 -105.8 M65.75 -110.5 L67.1 -109.25 69.55 -105.8 M52.5 -97.0 L52.5 -100.0 47.1 -100.15 45.35 -104.65 50.1 -115.0 M57.85 -109.65 L52.5 -100.0 M47.1 -100.15 L52.1 -110.15 M61.1 -116.0 L61.1 -115.25 M61.25 -113.0 L68.5 -126.0 Q80.95 -123.2 82.25 -102.25 L82.25 21.1 93.5 24.1 M0.0 -167.5 Q40.95 -157.05 50.35 -115.25 M62.75 -82.6 L63.1 16.1 69.5 17.85 M52.5 -97.0 L58.0 -106.75 M158.25 36.75 L158.75 36.85 158.85 -194.0 Q157.9 -220.65 145.85 -235.0 M118.35 -223.15 L98.25 -185.75 M171.5 -322.75 L132.25 -249.5 M171.6 -313.15 L132.35 -242.15 M155.25 -325.4 L221.5 -462.9 M246.0 -462.4 L172.6 -325.15 M246.1 -448.5 L172.75 -315.5 M328.35 76.6 L343.2 80.1 M277.35 76.6 L194.6 53.75 194.6 60.75 198.0 61.85 199.25 62.25 277.25 86.6 M194.6 53.75 L193.75 53.35 193.35 53.35 193.25 60.25 194.6 60.75 M193.75 53.35 L205.85 53.35 158.85 41.1 149.5 41.1 193.35 53.35 M206.85 53.6 L194.6 53.75 M199.25 62.25 L199.25 129.0 M198.0 61.85 L197.85 128.05 M207.25 53.6 L295.1 76.6 M158.75 36.85 L158.75 39.0 158.85 41.1 M158.75 39.0 L149.5 36.85 M73.35 18.85 L81.85 21.1 82.25 21.1 M100.5 24.6 L98.35 24.1 M100.5 25.85 L98.35 25.85 M117.5 30.35 L117.85 30.35 117.7 13.9 M133.6 36.75 L111.35 30.5 110.6 30.5 110.6 34.35 113.1 35.25 113.35 35.35 133.6 41.6 M110.6 30.5 L110.5 30.35 110.25 34.25 110.6 34.35 M94.35 26.0 L110.5 30.35 117.5 30.35 M142.0 36.75 L117.85 30.35 111.35 30.5 M110.25 34.25 L96.6 30.1 M113.1 73.25 L113.2 49.6 113.1 35.25 M152.6 98.8 L152.6 89.0 M113.35 35.35 L113.2 49.6 M87.85 24.1 L77.25 21.25 77.25 24.0 78.85 24.5 79.1 24.6 87.85 27.25 M77.25 21.25 L77.1 21.1 77.25 24.0 70.6 22.0 M69.35 18.85 L77.1 21.1 81.85 21.1 M65.35 17.85 L59.25 16.25 59.25 18.25 60.5 18.75 65.25 20.1 M78.85 24.5 L78.95 37.85 79.1 24.6 M63.1 16.1 L59.25 16.25 M60.5 18.75 L60.6 39.25 M78.85 51.1 L78.95 37.85 M193.25 60.25 L152.6 47.6 M343.2 84.8 L310.25 76.6 M343.2 95.95 L316.85 88.6" fill="none" stroke="#171317" stroke-linecap="round" stroke-linejoin="round" stroke-width="0.7000000000000001"/>
    <path d="M106.65 -223.75 L102.7 -234.2 M102.75 -234.3 L102.7 -234.2" fill="none" stroke="#000000" stroke-linecap="round" stroke-linejoin="round" stroke-width="0.75"/>
    <path d="M69.55 -105.8 Q67.85 -106.85 65.8 -107.1 L65.75 -107.15 65.8 -107.25 65.75 -110.5 M67.1 -109.25 L65.8 -107.25 65.8 -107.1 M52.5 -97.0 Q60.75 -95.4 62.75 -82.6" fill="none" stroke="#171317" stroke-linecap="round" stroke-linejoin="round" stroke-width="0.75"/>
  </g>
</svg>
