<?xml version="1.0" encoding="UTF-8" standalone="no"?>
<svg xmlns:xlink="http://www.w3.org/1999/xlink" height="803.8px" width="343.9px" xmlns="http://www.w3.org/2000/svg">
  <g transform="matrix(1.0, 0.0, 0.0, 1.0, 0.35, 600.35)">
    <path d="M343.2 -600.0 L343.2 -595.4 306.5 -532.0 270.35 -532.0 305.0 -600.0 343.2 -600.0 M332.65 -480.3 Q321.55 -490.85 306.6 -493.0 L343.2 -551.5 343.2 -466.95 Q338.45 -474.8 332.65 -480.3 M0.0 -582.6 Q149.4 -539.7 176.5 -401.65 L175.35 -399.0 Q161.2 -467.85 119.8 -511.15 77.0 -555.95 0.0 -578.95 L0.0 -582.6 M270.25 -507.9 L184.25 -346.9 184.35 -336.65 270.35 -492.5 Q299.9 -488.4 314.1 -453.6 L213.85 -309.7 Q217.45 -300.6 219.35 -288.45 220.55 -280.5 221.1 -271.25 L221.25 57.25 220.75 57.25 219.75 56.85 219.75 -269.9 Q219.2 -278.95 218.0 -286.7 216.1 -298.75 212.5 -307.75 L161.35 -234.25 Q164.4 -227.1 165.75 -217.9 L159.8 -210.1 Q156.6 -217.25 152.3 -221.3 147.2 -226.15 140.55 -226.75 L140.6 -227.0 153.25 -246.9 Q150.05 -250.45 145.0 -252.5 L140.5 -244.65 124.0 -244.65 132.75 -262.0 125.0 -262.0 125.0 -262.4 164.75 -344.65 164.6 -344.9 158.6 -360.4 159.5 -362.9 165.75 -347.25 243.25 -508.25 270.25 -508.25 270.25 -507.9 M183.0 -333.9 L183.25 -334.5 183.0 -344.25 139.0 -262.0 139.1 -254.5 183.0 -333.9 M123.75 -233.15 L102.0 -192.65 91.5 -192.65 111.5 -233.75 123.85 -233.75 123.75 -233.15 M143.7 -208.9 L100.1 -146.35 Q101.5 -143.15 102.45 -139.05 100.35 -141.9 98.35 -143.8 94.6 -147.3 91.05 -147.7 L95.1 -153.75 Q93.2 -155.55 90.95 -156.7 88.8 -157.8 86.35 -158.25 L86.5 -158.9 80.25 -159.0 82.5 -163.4 77.6 -163.65 91.35 -192.0 101.6 -192.0 101.5 -191.5 86.35 -163.4 86.5 -158.9 123.85 -226.5 Q137.0 -225.35 143.7 -208.9 M59.25 -112.5 L59.1 -111.9 53.6 -102.15 48.0 -102.25 53.25 -112.5 59.25 -112.5 M72.1 -151.9 L80.25 -151.9 80.1 -151.4 70.25 -133.0 70.1 -133.0 70.1 -132.65 62.5 -118.75 62.5 -117.75 59.25 -117.75 59.75 -118.75 56.1 -118.9 63.1 -133.15 63.1 -133.4 72.1 -151.9 M59.25 -109.0 Q65.05 -108.95 68.45 -100.8 L62.0 -91.55 61.8 -91.7 Q59.0 -97.45 53.75 -99.4 L59.25 -109.0 M62.5 -115.0 L62.6 -115.5 80.25 -147.15 Q88.95 -145.75 93.1 -136.3 L72.3 -106.35 71.45 -108.1 67.2 -109.4 68.8 -111.8 67.15 -113.2 Q65.05 -114.65 62.5 -115.0 M206.35 57.0 L207.6 57.35 207.5 64.75 206.35 64.35 206.35 57.0 M212.6 66.5 L212.5 137.45 211.25 136.5 211.1 136.45 211.25 66.0 212.6 66.5" fill="#100f10" fill-rule="evenodd" stroke="none"/>
    <path d="M234.25 -531.65 L234.25 -532.0 270.35 -532.0 306.5 -532.0 306.6 -493.0 Q329.3 -489.75 343.2 -466.95 L343.2 84.25 341.1 84.25 340.75 84.25 340.6 95.25 343.2 96.0 343.2 203.1 311.9 203.1 311.75 95.25 304.6 95.25 304.6 84.25 324.5 84.25 324.6 -396.0 Q324.8 -403.05 323.6 -414.15 321.7 -431.0 317.15 -445.15 303.35 -487.9 270.35 -492.5 L270.25 -507.9 270.25 -508.25 243.25 -508.25 234.25 -531.65 M111.5 -233.75 L107.25 -244.4 124.0 -244.65 140.5 -244.65 140.6 -227.0 140.5 -226.75 Q152.9 -225.65 159.85 -210.0 164.65 -199.1 165.0 -188.65 L165.35 38.5 156.6 38.5 156.25 38.5 156.1 43.5 156.6 43.6 156.6 48.85 159.6 49.85 159.6 93.0 142.6 93.05 143.0 43.5 139.6 43.5 139.6 38.5 148.75 38.5 148.85 -182.5 Q148.8 -195.75 144.15 -207.75 137.45 -225.3 123.85 -226.5 L123.75 -233.15 123.85 -233.75 111.5 -233.75 M86.5 -158.9 L86.35 -158.25 Q88.8 -157.8 90.95 -156.7 L90.95 -147.75 90.95 -147.6 91.05 -147.7 Q96.55 -147.05 102.45 -139.05 L103.1 -135.75 103.75 24.75 101.25 24.85 101.25 26.75 97.75 26.75 97.35 26.85 97.5 30.35 99.6 31.0 99.6 59.9 92.5 59.9 92.6 28.1 90.35 28.0 90.5 24.75 95.85 24.75 96.35 24.75 96.5 -118.15 Q96.35 -127.45 93.9 -134.3 89.85 -145.6 80.25 -147.15 L80.1 -151.4 80.25 -151.9 72.1 -151.9 69.5 -158.65 69.5 -159.0 80.25 -159.0 86.5 -158.9 M62.5 -117.75 L62.6 -115.5 62.5 -115.0 Q65.05 -114.65 67.15 -113.2 L67.2 -109.4 71.45 -108.1 Q72.5 -106.1 73.35 -103.55 74.4 -100.3 74.95 -96.45 L75.25 -93.25 75.1 19.25 70.5 19.35 70.5 21.85 72.25 22.5 72.25 44.35 68.25 44.2 68.5 20.75 66.75 20.6 66.85 18.25 71.0 18.25 71.25 -88.25 Q71.25 -92.9 69.0 -99.3 65.55 -108.95 59.25 -109.0 L59.1 -111.9 59.25 -112.5 53.25 -112.5 51.25 -117.65 51.25 -117.75 59.25 -117.75 62.5 -117.75" fill="#cccccc" fill-opacity="0.15294118" fill-rule="evenodd" stroke="none"/>
    <path d="M124.0 -244.65 L132.75 -262.0 125.0 -262.0 125.0 -262.4 120.35 -274.4 158.6 -360.4 159.5 -362.9 175.35 -399.0 Q161.2 -467.85 119.8 -511.15 77.0 -555.95 0.0 -578.95 L0.0 -582.6 Q149.4 -539.7 176.5 -401.65 L234.25 -531.65 234.25 -532.0 270.35 -532.0 305.0 -600.0 343.2 -600.0 M234.25 -531.65 L243.25 -508.25 270.25 -508.25 270.25 -507.9 270.35 -492.5 Q303.35 -487.9 317.15 -445.15 321.7 -431.0 323.6 -414.15 324.8 -403.05 324.6 -396.0 L324.5 84.25 304.6 84.25 304.6 95.25 311.75 95.25 311.9 203.1 343.2 203.1 M343.2 96.0 L340.6 95.25 340.75 84.25 341.1 84.25 343.2 84.25 M343.2 -466.95 Q329.3 -489.75 306.6 -493.0 L306.5 -532.0 270.35 -532.0 M175.35 -399.0 L176.5 -401.65 M158.6 -360.4 L164.6 -344.9 164.75 -344.65 183.0 -344.65 183.0 -344.25 183.25 -334.5 184.25 -336.15 184.35 -336.65 184.25 -346.9 165.75 -346.9 165.75 -347.25 159.5 -362.9 M183.25 -334.5 L183.0 -333.9 Q216.3 -329.0 219.75 -269.9 L219.75 56.85 220.75 57.25 221.25 57.25 221.1 -271.25 Q217.7 -331.25 184.25 -336.15 M80.25 -159.0 L82.5 -163.4 77.6 -163.65 74.75 -171.0 88.0 -200.5 88.25 -201.25 97.25 -222.25 Q95.2 -238.45 87.25 -254.2 79.2 -270.1 63.85 -288.15 L43.75 -304.4 22.0 -314.75 0.0 -322.2 M0.0 -323.35 L22.1 -315.75 44.0 -305.25 63.85 -288.15 M59.25 -117.75 L59.75 -118.75 56.1 -118.9 54.05 -124.1 60.85 -139.4 67.25 -154.15 Q63.75 -171.6 53.95 -186.75 43.9 -202.35 30.1 -211.0 L15.1 -218.15 0.2 -223.7 15.1 -218.5 30.1 -211.0 M15.1 -218.5 L15.1 -218.15 M140.5 -244.65 L145.0 -252.5 139.0 -253.9 139.1 -254.5 139.0 -262.0 132.75 -262.0 M111.5 -233.75 L107.25 -244.4 97.25 -222.25 M88.0 -200.5 L88.35 -200.4 91.35 -192.4 91.5 -192.65 91.5 -193.4 91.1 -193.65 88.5 -200.75 88.25 -201.25 M111.5 -233.75 L123.85 -233.75 123.75 -233.15 123.85 -226.5 Q137.45 -225.3 144.15 -207.75 148.8 -195.75 148.85 -182.5 L148.75 38.5 139.6 38.5 139.6 43.5 143.0 43.5 142.6 93.05 159.6 93.0 159.6 49.85 156.6 48.85 156.6 43.6 156.1 43.5 156.25 38.5 156.6 38.5 165.35 38.5 165.0 -188.65 Q164.65 -199.1 159.85 -210.0 152.9 -225.65 140.5 -226.75 L140.6 -227.0 140.5 -244.65 124.0 -244.65 107.25 -244.4 M165.35 38.5 L166.85 38.75 166.85 -203.9 Q166.35 -232.9 153.25 -246.9 L140.6 -227.0 M145.0 -252.5 Q150.05 -250.45 153.25 -246.9 M123.75 -233.15 L102.0 -192.65 101.6 -192.0 101.85 -186.65 123.85 -226.5 M101.6 -192.0 L101.5 -191.5 86.35 -163.4 86.5 -158.9 101.85 -186.65 Q114.3 -184.75 119.5 -167.35 122.4 -157.5 122.4 -146.15 L122.1 31.5 122.35 31.6 148.75 38.5 M77.6 -163.65 L91.35 -192.0 91.35 -192.4 M86.5 -158.9 L86.35 -158.25 Q88.8 -157.8 90.95 -156.7 93.2 -155.55 95.1 -153.75 100.2 -148.9 102.45 -139.05 L103.1 -135.75 103.75 24.75 103.75 25.35 103.75 26.75 121.75 31.5 122.1 31.5 M82.5 -163.4 L86.35 -163.4 M102.0 -192.65 L91.5 -192.65 111.5 -233.75 M101.6 -192.0 L91.35 -192.0 M95.85 24.75 L96.35 24.75 96.5 -118.15 Q96.35 -127.45 93.9 -134.3 89.85 -145.6 80.25 -147.15 L70.25 -129.25 Q75.95 -128.15 80.1 -121.45 84.35 -114.7 84.25 -106.4 L84.35 21.75 95.85 24.75 90.5 24.75 90.35 28.0 92.6 28.1 92.5 59.9 99.6 59.9 99.6 31.0 97.5 30.35 97.35 26.85 97.75 26.75 101.25 26.75 101.25 24.85 103.75 24.75 M69.5 -158.65 L69.5 -159.0 80.25 -159.0 86.5 -158.9 M80.1 -151.4 L80.25 -151.9 72.1 -151.9 63.1 -133.4 63.1 -133.15 70.25 -133.0 80.1 -151.4 80.25 -147.15 M69.5 -158.65 L67.25 -154.15 M72.1 -151.9 L69.5 -158.65 M62.6 -115.5 L70.25 -129.25 70.1 -132.65 62.5 -118.75 62.5 -117.75 62.6 -115.5 62.5 -115.0 Q65.05 -114.65 67.15 -113.2 L68.8 -111.8 Q70.25 -110.3 71.45 -108.1 72.5 -106.1 73.35 -103.55 74.4 -100.3 74.95 -96.45 L75.25 -93.25 75.1 19.25 83.75 21.6 84.35 21.75 79.6 21.75 90.5 24.75 M60.85 -139.4 L63.1 -133.4 M70.1 -132.65 L70.25 -133.0 M51.25 -117.75 L59.25 -117.75 62.5 -117.75 M59.1 -111.9 L59.25 -112.5 53.25 -112.5 48.0 -102.25 53.6 -102.15 59.1 -111.9 59.25 -109.0 Q65.55 -108.95 69.0 -99.3 71.25 -92.9 71.25 -88.25 L71.0 18.25 66.85 18.25 66.75 20.6 68.5 20.75 68.25 44.2 72.25 44.35 72.25 22.5 70.5 21.85 70.5 19.35 75.1 19.25 M51.25 -117.65 L51.25 -117.75 Q42.6 -159.15 0.05 -171.0 M53.25 -112.5 L51.25 -117.65 46.25 -106.4 48.0 -102.25 M53.6 -102.15 L53.75 -99.4 59.25 -109.0 M63.1 -133.15 L56.1 -118.9 M59.75 -118.75 L62.5 -118.75 M61.75 40.0 L61.75 19.1 60.35 18.6 60.35 16.5 60.85 16.5 64.25 16.5 64.25 -81.6 Q63.95 -87.25 61.8 -91.7 59.0 -97.45 53.75 -99.4 M183.0 -333.9 L139.1 -254.5 M125.0 -262.4 L164.75 -344.65 M183.0 -344.25 L139.0 -262.0 M343.2 -595.4 L306.5 -532.0 M306.6 -493.0 L343.2 -551.5 M165.75 -347.25 L243.25 -508.25 M270.25 -507.9 L184.25 -346.9 M184.35 -336.65 L270.35 -492.5 M343.2 84.8 L341.1 84.25 M166.85 38.75 L166.75 41.0 166.85 43.1 219.25 56.85 219.75 56.85 M206.35 57.0 L206.35 64.35 207.5 64.75 207.6 57.35 206.35 57.0 156.6 43.25 156.6 43.6 M207.5 64.75 L211.25 66.0 212.6 66.5 304.6 95.25 M207.6 57.35 L220.75 57.25 M206.35 57.0 L219.25 56.85 M212.6 66.5 L212.5 137.6 M211.25 66.0 L211.1 136.7 M304.6 84.25 L207.6 57.35 M90.35 28.0 L81.1 25.25 81.1 52.45 M114.85 35.75 L114.85 31.6 114.6 31.5 114.6 35.6 114.85 35.75 117.35 36.6 139.6 43.5 M139.6 38.5 L115.35 31.6 114.85 31.6 M101.25 26.75 L103.75 26.75 M103.75 25.35 L101.25 24.85 M114.6 31.5 L97.75 26.75 M99.6 31.0 L114.6 35.6 M99.6 59.9 L99.6 64.5 M159.6 49.85 L160.35 50.1 206.35 64.35 M117.35 36.6 L117.5 76.1 M122.35 31.6 L115.35 31.6 M114.6 31.5 L121.75 31.5 M64.25 16.5 L64.35 16.5 71.0 18.25 M61.75 19.1 L66.75 20.6 M66.85 18.25 L60.85 16.5 M83.75 21.6 L79.25 21.75 79.6 21.75 M79.25 21.75 L79.1 21.75 79.25 24.6 79.25 21.75 M81.1 25.25 L79.25 24.6 72.25 22.5 M79.1 21.75 L70.5 19.35 M160.35 103.8 L160.35 50.1 M166.75 41.0 L156.6 38.5 M166.85 43.1 L156.6 43.25 M221.25 57.25 L324.5 84.25" fill="none" stroke="#171317" stroke-linecap="round" stroke-linejoin="round" stroke-width="0.7000000000000001"/>
    <path d="M91.05 -147.7 L90.95 -147.75 90.95 -147.6 91.05 -147.7 95.1 -153.75 M91.05 -147.7 Q96.55 -147.05 102.45 -139.05 M90.95 -156.7 L90.95 -147.75 M67.15 -113.2 L67.2 -109.4 68.8 -111.8 M71.45 -108.1 L67.2 -109.4" fill="none" stroke="#171317" stroke-linecap="round" stroke-linejoin="round" stroke-width="0.75"/>
  </g>
</svg>
