<?xml version="1.0" encoding="UTF-8" standalone="no"?>
<svg xmlns:xlink="http://www.w3.org/1999/xlink" height="748.2px" width="343.9px" xmlns="http://www.w3.org/2000/svg">
  <g transform="matrix(1.0, 0.0, 0.0, 1.0, 0.35, 600.35)">
    <path d="M196.1 -357.65 L196.25 -358.15 196.0 -368.65 146.35 -276.0 146.5 -267.9 146.35 -267.65 146.45 -267.6 146.5 -267.9 196.1 -357.65 M54.6 -600.0 L63.6 -600.0 Q113.9 -574.7 147.5 -528.8 180.4 -483.9 189.25 -430.5 L187.85 -427.4 Q177.6 -484.1 142.3 -530.4 106.25 -577.65 54.6 -600.0 M343.2 -513.6 L343.2 -495.4 229.15 -331.65 Q233.35 -321.6 235.35 -309.5 236.75 -300.65 237.0 -290.65 L237.0 61.5 235.5 61.0 235.5 -289.15 Q235.3 -298.8 233.85 -307.55 231.85 -319.3 227.65 -329.45 L170.05 -246.7 Q172.9 -239.35 174.35 -229.25 L167.25 -219.9 Q163.95 -227.0 159.25 -231.25 154.1 -235.95 147.2 -237.2 L147.25 -237.5 147.25 -237.65 161.5 -260.0 Q157.5 -263.95 152.75 -265.9 L147.1 -256.15 129.75 -256.15 139.85 -276.0 131.6 -276.15 176.5 -369.15 176.5 -369.5 169.85 -386.15 171.0 -388.9 177.6 -371.75 269.75 -563.5 299.75 -563.5 299.6 -562.9 197.5 -371.75 197.35 -371.0 197.6 -360.65 299.75 -546.0 Q327.7 -542.75 343.2 -513.6 M343.2 -551.6 L343.2 -545.95 340.0 -546.5 343.2 -551.6 M343.2 -600.0 L343.2 -595.45 339.85 -589.75 299.75 -589.75 305.0 -600.0 343.2 -600.0 M116.75 -244.75 L129.75 -244.75 129.6 -244.15 105.85 -200.0 95.25 -200.0 116.75 -244.75 M105.6 -199.25 L89.1 -168.65 89.25 -163.75 105.5 -193.15 111.0 -191.9 116.1 -188.15 120.5 -182.4 122.35 -178.2 103.4 -151.0 Q104.9 -147.45 105.95 -143.0 103.6 -146.0 101.35 -148.1 97.55 -151.6 93.9 -152.4 L98.05 -158.95 Q96.1 -160.85 93.75 -162.05 91.65 -163.1 89.2 -163.6 L89.25 -163.75 89.1 -163.65 82.6 -163.75 85.1 -168.65 80.1 -168.9 94.85 -199.25 105.6 -199.25 M129.75 -237.15 Q143.55 -235.3 150.45 -218.55 L122.75 -178.75 120.85 -182.75 116.5 -188.75 111.35 -192.5 105.75 -193.9 129.75 -237.15 M82.5 -155.75 L72.25 -136.9 72.0 -136.9 72.0 -136.65 64.0 -121.5 64.0 -120.4 60.5 -120.4 61.1 -121.5 57.5 -121.75 74.35 -156.5 82.6 -156.5 82.5 -155.75 M95.85 -140.15 L74.1 -108.95 73.75 -109.5 Q73.0 -110.6 68.75 -111.9 L70.6 -114.4 68.85 -115.65 Q67.05 -116.95 64.0 -117.65 L64.0 -118.0 64.1 -118.25 72.0 -132.25 72.05 -132.25 72.1 -132.65 82.6 -151.65 Q91.4 -150.25 95.8 -140.25 L95.85 -140.15 M60.5 -115.0 L60.5 -114.5 54.75 -104.15 48.85 -104.45 54.5 -115.0 60.5 -115.0 M60.6 -111.5 Q66.75 -110.55 70.05 -103.1 L63.3 -93.4 Q60.5 -99.8 54.6 -100.9 L60.6 -111.5 M227.85 71.25 L227.85 147.4 226.1 146.25 226.25 70.75 227.85 71.25 M221.0 61.0 L222.6 61.5 222.6 69.5 221.0 69.0 221.0 61.0" fill="#100f10" fill-rule="evenodd" stroke="none"/>
    <path d="M343.2 -513.6 Q327.7 -542.75 299.75 -546.0 L299.6 -562.9 299.75 -563.5 269.75 -563.5 259.75 -589.4 259.85 -589.75 299.75 -589.75 339.85 -589.75 340.0 -546.5 343.2 -545.95 343.2 -513.6 M147.25 -237.65 L147.25 -237.5 147.1 -237.25 Q160.65 -234.75 167.6 -219.15 169.8 -214.15 171.2 -208.25 172.4 -203.35 172.7 -199.4 L173.25 40.25 163.6 40.35 163.6 45.6 164.85 45.85 165.0 51.5 167.1 52.25 167.1 97.35 149.35 97.4 149.75 45.6 146.1 45.5 146.25 40.25 155.5 40.25 155.85 40.25 156.0 -189.25 155.6 -196.25 Q154.75 -204.7 152.7 -211.9 146.1 -234.95 129.75 -237.15 L129.6 -244.15 129.75 -244.75 116.75 -244.75 112.35 -256.0 129.75 -256.15 147.1 -256.15 147.25 -237.65 M89.1 -163.65 Q91.6 -163.15 93.75 -162.05 L93.75 -152.5 93.9 -152.4 Q99.75 -151.1 105.95 -143.0 L106.5 -140.25 107.1 25.6 104.6 25.6 104.25 25.6 104.25 27.6 100.85 27.6 100.5 27.75 100.5 31.25 102.85 32.0 102.85 61.6 95.1 61.6 95.5 29.0 93.1 28.85 93.25 25.6 99.25 25.6 99.35 -122.15 Q99.1 -132.7 95.8 -140.25 91.4 -150.25 82.6 -151.65 L82.5 -155.75 82.6 -156.5 74.35 -156.5 71.5 -163.5 82.6 -163.75 89.1 -163.65 M52.25 -120.4 L60.5 -120.4 64.0 -120.4 64.1 -118.25 64.0 -118.0 64.0 -117.65 Q67.05 -116.95 68.85 -115.65 L68.75 -111.9 Q73.0 -110.6 73.75 -109.5 75.65 -107.0 76.75 -98.0 L76.85 19.75 72.1 19.85 72.1 22.35 73.85 23.0 73.85 45.35 69.75 45.15 69.85 21.1 68.25 21.1 68.25 18.6 72.75 18.65 72.85 -89.65 Q73.05 -94.75 70.85 -101.0 67.55 -110.4 60.6 -111.5 L60.5 -114.5 60.5 -115.0 54.5 -115.0 52.35 -120.15 52.35 -120.25 52.25 -120.4 M343.2 105.6 L337.85 105.6 337.85 93.35 343.2 93.35 343.2 105.6" fill="#cccccc" fill-opacity="0.15294118" fill-rule="evenodd" stroke="none"/>
    <path d="M340.0 -546.5 L343.2 -551.6 M343.2 -545.95 L340.0 -546.5 339.85 -589.75 299.75 -589.75 259.85 -589.75 259.75 -589.4 269.75 -563.5 299.75 -563.5 299.6 -562.9 299.75 -546.0 Q327.7 -542.75 343.2 -513.6 M343.2 -595.45 L339.85 -589.75 M54.6 -600.0 Q106.25 -577.65 142.3 -530.4 177.6 -484.1 187.85 -427.4 L189.25 -430.5 Q180.4 -483.9 147.5 -528.8 113.9 -574.7 63.6 -600.0 L54.6 -600.0 M259.75 -589.4 L189.25 -430.5 M299.75 -589.75 L305.0 -600.0 343.2 -600.0 M169.85 -386.15 L176.5 -369.5 176.5 -369.15 196.1 -369.15 196.0 -368.65 196.25 -358.15 197.5 -360.15 197.6 -360.65 197.35 -371.0 197.5 -371.75 177.6 -371.75 171.0 -388.9 169.85 -386.15 126.85 -289.0 131.6 -276.15 176.5 -369.15 M196.25 -358.15 L196.1 -357.65 Q214.0 -357.25 225.15 -334.85 234.95 -315.2 235.5 -289.15 L235.5 61.0 237.0 61.5 237.0 -290.65 Q236.35 -318.45 226.3 -337.75 215.35 -358.7 197.5 -360.15 M147.25 -237.65 L147.25 -237.5 147.1 -237.25 Q160.65 -234.75 167.6 -219.15 169.8 -214.15 171.2 -208.25 172.4 -203.35 172.7 -199.4 L173.25 40.25 175.75 40.85 175.75 -202.65 Q176.5 -245.9 161.5 -260.0 L147.25 -237.65 147.1 -256.15 129.75 -256.15 112.35 -256.0 116.75 -244.75 129.75 -244.75 129.6 -244.15 129.75 -237.15 Q146.1 -234.95 152.7 -211.9 154.75 -204.7 155.6 -196.25 L156.0 -189.25 155.85 40.25 155.5 40.25 146.25 40.25 146.1 45.5 149.75 45.6 149.35 97.4 167.1 97.35 167.1 52.25 165.0 51.5 164.85 45.85 163.6 45.6 163.6 40.35 173.25 40.25 M0.0 -335.75 L23.0 -327.9 45.75 -317.0 66.6 -299.9 84.6 -275.9 98.25 -246.9 101.25 -231.4 112.35 -256.0 M82.6 -163.75 L85.1 -168.65 80.1 -168.9 77.25 -176.65 91.35 -208.25 91.6 -209.15 101.0 -230.75 97.85 -246.5 84.35 -275.15 66.35 -299.15 45.5 -316.0 22.75 -326.75 0.0 -334.55 M66.35 -299.15 L66.6 -299.9 M15.5 -224.4 L15.5 -223.9 31.0 -216.5 15.5 -224.4 0.0 -229.6 M0.0 -229.05 L15.5 -223.9 M60.5 -120.4 L61.1 -121.5 57.5 -121.75 55.5 -127.75 62.35 -142.75 62.5 -143.15 69.0 -158.4 Q65.35 -180.95 45.25 -204.9 43.7 -206.75 31.0 -216.5 M129.75 -256.15 L139.85 -276.0 131.6 -276.15 M161.5 -260.0 Q157.5 -263.95 152.75 -265.9 L147.1 -256.15 M152.75 -265.9 L146.35 -267.65 146.5 -267.9 146.35 -276.0 139.85 -276.0 M84.6 -275.9 L84.35 -275.15 M97.85 -246.5 L98.25 -246.9 M91.35 -208.25 L94.85 -199.25 105.6 -199.25 105.85 -200.0 95.25 -200.0 94.85 -200.5 91.6 -209.15 M105.35 -198.75 L105.6 -193.65 105.75 -193.9 105.6 -199.25 105.35 -198.75 89.1 -168.65 89.25 -163.75 105.5 -193.15 105.6 -193.65 M101.25 -231.4 L101.0 -230.75 M95.25 -200.0 L116.75 -244.75 M129.6 -244.15 L105.85 -200.0 M127.1 -156.5 L126.35 -165.9 126.0 -165.75 126.85 -156.4 127.1 -156.5 127.1 32.85 155.5 40.25 M126.0 -165.75 L123.85 -174.65 120.5 -182.4 116.1 -188.15 111.0 -191.9 105.5 -193.15 M129.75 -237.15 L105.75 -193.9 111.35 -192.5 116.5 -188.75 120.85 -182.75 124.35 -175.25 126.35 -165.9 M89.25 -163.75 L89.1 -163.65 Q91.6 -163.15 93.75 -162.05 96.1 -160.85 98.05 -158.95 103.5 -153.7 105.95 -143.0 L106.5 -140.25 107.1 25.6 107.1 26.25 107.1 27.6 126.6 32.75 126.85 -156.4 M89.1 -168.65 L85.1 -168.65 M82.6 -163.75 L89.1 -163.65 M82.6 -163.75 L71.5 -163.5 74.35 -156.5 82.6 -156.5 82.5 -155.75 82.6 -151.65 Q91.4 -150.25 95.8 -140.25 99.1 -132.7 99.35 -122.15 L99.25 25.6 93.25 25.6 93.1 28.85 95.5 29.0 95.1 61.6 102.85 61.6 102.85 32.0 100.5 31.25 100.5 27.75 100.85 27.6 104.25 27.6 104.25 25.6 104.6 25.6 107.1 25.6 M69.0 -158.4 L71.5 -163.5 M61.1 -121.5 L64.0 -121.5 72.0 -136.65 72.25 -136.9 64.85 -136.9 57.5 -121.75 M64.85 -136.9 L62.5 -143.15 M64.1 -118.25 L72.0 -132.25 72.0 -132.65 72.1 -132.65 72.0 -136.65 M52.25 -120.4 L52.35 -120.25 52.35 -120.15 54.5 -115.0 60.5 -115.0 60.5 -114.5 60.6 -111.5 Q67.55 -110.4 70.85 -101.0 73.05 -94.75 72.85 -89.65 L72.75 18.65 68.25 18.6 68.25 21.1 69.85 21.1 69.75 45.15 73.85 45.35 73.85 23.0 72.1 22.35 72.1 19.85 76.85 19.75 76.75 -98.0 Q75.65 -107.0 73.75 -109.5 73.0 -110.6 68.75 -111.9 L68.85 -115.65 Q67.05 -116.95 64.0 -117.65 L64.0 -118.0 64.1 -118.25 64.0 -120.4 60.5 -120.4 52.25 -120.4 Q42.75 -163.15 0.0 -174.2 M52.35 -120.15 L47.35 -108.9 48.85 -104.5 48.85 -104.45 54.5 -115.0 M60.5 -114.5 L54.75 -104.15 54.6 -100.9 60.6 -111.5 M48.85 -104.45 L54.75 -104.15 M64.0 -121.5 L64.0 -120.4 M68.75 -111.9 L70.6 -114.4 68.85 -115.65 M70.6 -114.4 Q72.55 -112.5 73.75 -109.5 M74.35 -156.5 L64.85 -136.9 M72.25 -136.9 L82.5 -155.75 M54.6 -100.9 Q66.15 -98.75 65.75 -76.4 L65.75 16.85 72.75 18.65 M82.6 -151.65 L72.1 -132.65 M76.85 19.75 L86.25 22.25 86.6 22.25 86.5 -108.9 Q83.8 -131.75 72.0 -132.25 M80.1 -168.9 L94.85 -199.25 M146.35 -276.0 L196.0 -368.65 M196.1 -357.65 L146.5 -267.9 M171.0 -388.9 L187.85 -427.4 M197.6 -360.65 L299.75 -546.0 M177.6 -371.75 L269.75 -563.5 M299.6 -562.9 L197.5 -371.75 M343.2 93.35 L337.85 93.35 337.85 105.6 343.2 105.6 M164.85 45.85 L165.35 45.5 175.75 45.5 175.75 43.25 163.6 40.35 M175.75 43.25 L175.75 40.85 M167.1 52.25 L169.0 52.75 221.0 69.0 221.0 61.0 165.35 45.5 M175.75 45.5 L235.1 61.0 235.5 61.0 M337.85 93.35 L223.1 61.5 222.6 61.5 222.6 69.5 226.25 70.75 227.85 71.25 337.85 105.6 M343.2 89.1 L237.0 61.5 223.1 61.5 M222.6 61.5 L221.0 61.0 235.1 61.0 M221.0 69.0 L222.6 69.5 M169.0 52.75 L169.0 109.4 M226.25 70.75 L226.1 146.4 M227.85 71.25 L227.85 147.5 M126.6 32.75 L127.1 32.85 119.85 32.85 146.25 40.25 M119.85 32.85 L119.25 32.85 119.25 37.1 121.85 38.0 122.1 38.1 146.1 45.5 M81.25 22.25 L81.1 25.1 81.35 25.25 81.35 22.35 81.25 22.25 72.1 19.85 M81.25 22.25 L86.25 22.25 M83.1 53.85 L83.25 25.85 81.35 25.25 M93.1 28.85 L83.25 25.85 M119.25 32.85 L119.0 32.75 119.0 37.0 119.25 37.1 M107.1 26.25 L104.6 25.6 M107.1 27.6 L104.25 27.6 M119.0 37.0 L102.85 32.0 M119.0 32.75 L100.85 27.6 M99.25 25.6 L86.6 22.25 M93.25 25.6 L81.35 22.35 M122.1 38.1 L121.95 49.65 121.85 78.9 M121.85 38.0 L121.95 49.65 M119.0 32.75 L126.6 32.75 M63.1 40.9 L63.0 19.5 61.6 19.0 61.6 16.85 61.75 16.85 65.7 16.85 65.75 16.85 M68.25 18.6 L61.6 16.85 M63.0 19.5 L68.25 21.1 M81.1 25.1 L73.85 23.0" fill="none" stroke="#171317" stroke-linecap="round" stroke-linejoin="round" stroke-width="0.7000000000000001"/>
    <path d="M93.75 -162.05 L93.75 -152.5 93.9 -152.4 98.05 -158.95 M93.9 -152.4 Q99.75 -151.1 105.95 -143.0" fill="none" stroke="#171317" stroke-linecap="round" stroke-linejoin="round" stroke-width="0.75"/>
  </g>
</svg>
