<?xml version="1.0" encoding="UTF-8" standalone="no"?>
<svg xmlns:xlink="http://www.w3.org/1999/xlink" height="1199.1px" width="700.2px" xmlns="http://www.w3.org/2000/svg">
  <g transform="matrix(1.0, 0.0, 0.0, 1.0, 343.55, 600.0)">
    <path d="M-137.4 -256.9 L-123.65 -256.9 -119.0 -268.65 -155.5 -268.9 -155.65 -249.25 Q-170.65 -244.75 -174.65 -235.25 L-179.25 -224.75 -182.0 -213.5 -182.9 -201.25 -182.9 42.25 -186.75 43.1 -186.75 45.6 -173.0 42.25 -172.75 47.85 -175.4 48.5 -175.4 54.35 -176.65 54.85 -176.5 102.25 -179.5 103.75 -179.5 116.0 -123.4 115.75 -109.25 102.25 -162.8 102.2 -158.25 102.1 -158.25 47.85 -154.65 47.85 -154.65 42.25 -125.4 34.25 -133.25 34.1 -164.15 42.25 -164.65 42.25 -164.75 -196.5 -163.75 -213.0 -161.15 -224.75 -156.75 -234.9 Q-151.4 -244.0 -144.5 -247.25 L-137.25 -248.9 -137.4 -256.9 M-244.65 158.25 L-245.0 158.6 -168.65 158.5 -143.25 134.35 -207.75 134.35 -244.65 158.25 M-175.4 48.1 L-186.75 48.0 -254.5 65.75 -239.0 65.75 -175.4 48.1 M-48.0 91.35 L-53.4 101.85 52.25 102.0 47.6 92.6 46.6 91.35 -48.0 91.35 M-141.5 91.35 L-157.9 102.0 -55.25 102.0 -49.5 91.35 -141.5 91.35 M-2.25 194.6 L-2.25 159.25 -166.65 159.25 -203.25 194.6 -2.25 194.6 M-60.5 116.1 L-62.15 118.6 -69.75 133.85 68.6 133.85 59.5 116.1 -60.5 116.1 M-72.15 133.85 L-62.65 116.1 -179.65 116.1 -206.9 133.85 -72.15 133.85 M-1.65 136.1 L-2.0 134.35 -140.75 134.35 -166.0 158.6 -2.0 158.6 -1.65 136.1 M-107.5 102.25 L-121.25 115.75 -1.65 115.75 -1.5 102.25 -107.5 102.25 M-128.0 82.5 L-141.15 91.1 -97.5 91.1 -88.5 82.5 -128.0 82.5 M-1.4 91.1 L-1.25 82.5 -86.75 82.5 -95.65 91.0 -95.15 91.1 -1.4 91.1 M-75.5 20.25 L-74.9 20.25 -74.9 22.85 -76.65 23.5 -76.75 49.1 -99.4 63.85 -99.4 29.85 -97.25 29.85 -97.4 26.35 -75.5 20.25 M-77.75 -161.25 L-75.0 -168.75 -93.25 -168.75 -97.75 -167.75 -97.9 -156.75 Q-98.15 -155.75 -102.65 -155.0 L-106.4 -152.25 -110.65 -146.0 -111.15 -144.75 -111.9 -136.5 -111.9 27.1 -108.65 26.35 -108.5 28.5 -111.75 28.5 -132.5 34.0 -124.9 34.1 -105.15 28.5 -104.9 29.85 -104.9 32.35 -107.4 33.1 -107.4 69.1 -127.9 82.35 -88.0 82.25 -80.75 75.25 -79.25 75.25 -86.65 82.35 -1.25 82.35 -1.15 76.1 -1.5 75.25 -43.15 75.15 -40.75 75.1 -37.65 69.1 -36.5 69.1 -39.5 75.1 38.35 75.1 35.35 69.1 36.75 69.1 39.85 75.1 82.4 75.2 79.85 75.25 87.0 82.35 126.6 82.35 127.0 82.5 87.35 82.5 96.5 91.1 140.1 91.1 140.35 91.25 48.6 91.35 54.1 102.0 156.85 102.0 157.1 102.1 166.3 102.25 108.35 102.5 122.35 115.75 178.5 116.0 178.6 116.1 61.75 116.1 71.25 133.85 205.85 133.85 206.75 134.35 142.35 134.35 167.6 158.6 243.85 158.6 243.6 158.25 245.35 159.35 245.0 159.25 168.6 159.25 205.85 194.6 299.35 194.6 300.75 195.5 104.1 195.5 133.75 251.5 356.65 251.5 356.65 252.5 267.75 253.1 356.65 337.25 356.65 343.0 263.0 253.0 1.75 253.1 2.75 355.35 356.65 355.35 356.65 358.3 190.85 358.35 319.35 599.1 308.75 599.1 184.25 358.25 -185.4 358.25 -309.75 599.1 -320.25 599.1 -191.9 358.5 -343.55 358.4 -343.55 355.35 -3.75 355.35 -3.0 253.0 -264.25 253.0 -343.55 329.4 -343.55 323.7 -268.9 253.0 -343.55 253.0 -343.55 251.5 -134.75 251.5 -105.15 195.5 -301.75 195.5 -343.55 222.7 -343.55 94.65 -241.25 66.25 -256.5 66.25 -343.55 88.9 -343.55 -600.0 -221.2 -600.0 -28.7 -123.9 -58.4 -89.25 Q-61.5 -86.0 -62.15 -75.75 L-62.15 15.6 -67.65 17.1 -64.15 17.1 -58.9 15.6 -58.25 15.6 -58.25 17.75 -59.65 18.1 -59.65 38.1 -72.5 46.35 -72.5 21.6 -70.9 21.6 -70.9 19.1 -64.75 17.25 -68.15 17.25 -75.5 19.1 -75.65 -87.5 -75.15 -97.25 Q-74.75 -109.65 -63.0 -114.0 L-63.15 -117.65 -56.9 -117.65 -54.65 -123.15 -66.5 -123.15 -66.65 -120.75 -66.9 -120.4 -70.0 -119.75 -71.4 -118.65 -71.25 -117.65 -71.4 -114.25 -72.0 -113.75 -74.75 -113.15 -76.65 -111.9 -78.15 -108.65 -79.4 -103.4 -79.9 -97.4 -79.9 19.1 -79.4 19.1 -79.25 20.25 -79.75 20.25 -103.4 26.35 -103.5 -122.75 -103.0 -133.9 -101.25 -141.25 -98.5 -147.5 -95.0 -152.25 Q-91.65 -155.75 -86.25 -156.25 L-86.25 -161.25 -77.75 -161.25 M-246.5 159.35 L-300.4 194.6 -206.75 194.5 -169.65 159.25 -246.0 159.25 -246.5 159.35 M0.75 158.25 L1.1 158.6 164.85 158.6 139.6 134.35 0.6 134.35 0.75 158.25 M0.35 115.6 L1.0 115.75 120.25 115.75 106.35 102.25 0.35 102.35 0.35 115.6 M0.1 75.35 L0.1 82.35 85.5 82.35 78.25 75.25 0.1 75.35 M94.6 91.1 L85.75 82.5 0.1 82.5 0.25 91.1 94.6 91.1 M202.25 194.6 L165.5 159.25 0.85 159.35 1.25 194.6 202.25 194.6 M-101.65 195.5 L-130.4 251.35 129.35 251.5 100.35 195.5 -101.65 195.5" fill="#100f10" fill-rule="evenodd" stroke="none"/>
  </g>
</svg>
