<?xml version="1.0" encoding="UTF-8" standalone="no"?>
<svg xmlns:xlink="http://www.w3.org/1999/xlink" height="1199.1px" width="694.9px" xmlns="http://www.w3.org/2000/svg">
  <g transform="matrix(1.0, 0.0, 0.0, 1.0, 343.55, 600.0)">
    <path d="M-265.0 171.5 L-265.4 171.85 -182.65 171.75 -153.0 143.6 -221.9 143.6 -265.0 171.5 M-186.4 51.0 L-197.75 51.0 -275.65 71.25 -258.9 71.25 -186.4 51.0 M-50.15 95.6 L-56.15 107.25 55.0 107.35 49.0 95.6 -50.15 95.6 M-2.15 172.75 L-2.4 172.6 -180.5 172.6 -224.4 214.85 -2.5 214.85 -2.15 172.75 M-77.15 143.25 L-66.4 123.25 -68.0 123.1 -190.4 123.1 -221.4 143.25 -77.15 143.25 M-64.15 123.1 L-65.9 125.85 -74.65 143.25 73.5 143.25 63.1 123.1 -64.15 123.1 M-1.75 145.25 L-2.0 143.6 -150.4 143.6 -179.75 171.85 -2.15 171.85 -1.75 145.25 M-113.0 107.6 L-128.5 122.75 -1.65 122.75 -1.4 109.1 -1.65 107.6 -113.0 107.6 M-133.4 86.0 L-147.9 95.5 -101.5 95.1 -92.25 86.25 -92.4 86.0 -133.4 86.0 M-1.4 95.35 L-1.65 86.0 -90.4 86.0 -100.0 95.35 -1.4 95.35 M-80.25 -166.5 L-77.25 -173.9 -77.25 -174.0 -100.7 -174.15 -100.9 -161.5 Q-111.65 -159.25 -114.9 -149.0 L-115.65 -140.9 -115.75 28.1 -112.15 27.25 -112.0 29.5 -115.65 29.5 -138.25 35.5 -130.25 35.5 -108.75 29.5 -108.5 30.85 -108.5 33.5 -111.25 34.35 -111.15 71.5 -133.15 85.75 -91.65 85.75 -83.9 78.1 -82.25 78.1 -90.15 85.75 -1.4 85.75 -1.15 79.1 -1.5 78.1 -44.75 78.05 -42.25 78.0 -38.9 71.5 -37.75 71.5 -41.0 78.0 39.85 78.0 36.6 71.5 38.0 71.5 41.35 78.0 119.85 78.0 120.1 78.1 82.85 78.1 90.5 85.75 131.85 85.75 132.1 85.85 132.35 86.0 91.1 86.0 100.85 95.35 146.75 95.35 147.1 95.6 50.85 95.6 56.85 107.35 165.1 107.35 165.35 107.5 168.95 107.55 114.1 107.85 130.0 122.75 189.1 122.85 189.35 123.1 65.5 123.1 76.1 143.25 220.35 143.25 220.75 143.5 152.0 143.6 181.6 171.85 264.25 171.85 264.0 171.5 265.5 172.6 182.75 172.6 227.25 214.85 330.5 214.85 332.0 215.85 115.0 215.85 152.35 286.35 351.35 286.35 351.35 288.35 305.0 288.35 351.35 332.2 351.35 338.0 299.6 288.25 2.0 288.5 3.25 429.0 351.35 429.0 351.35 433.35 231.0 433.35 319.35 599.1 308.6 599.1 227.25 441.0 223.0 433.35 -224.15 433.35 -309.75 599.1 -320.25 599.1 -232.0 433.6 -343.55 433.55 -343.55 429.0 -4.4 429.0 -3.25 288.25 -300.9 288.25 -343.55 329.3 -343.55 323.65 -306.15 288.25 -343.55 288.25 -343.55 286.35 -153.4 286.35 -115.9 215.85 -333.0 215.85 -343.55 222.7 -343.55 94.65 -261.15 71.75 -277.9 71.75 -343.55 88.9 -343.55 -600.0 -221.2 -600.0 -25.65 -116.4 -28.0 -116.0 Q-36.7 -108.25 -45.45 -99.55 -63.0 -82.15 -63.4 -77.25 L-63.25 15.85 -69.15 17.5 -65.4 17.6 -59.65 15.85 -59.5 18.1 -60.75 18.5 -60.75 38.85 -74.25 47.5 -74.25 22.1 -72.5 22.1 -72.5 19.5 -66.0 17.6 -69.65 17.6 -76.65 19.5 -77.25 19.5 -77.4 -89.4 -76.9 -99.9 Q-74.25 -109.2 -71.25 -113.0 -68.5 -116.55 -64.4 -116.65 L-64.5 -120.4 -58.15 -120.4 -56.0 -125.75 -68.15 -125.9 -68.15 -123.4 Q-72.9 -122.9 -73.0 -121.65 L-73.0 -116.9 -73.65 -116.4 -76.5 -115.75 -78.75 -114.15 -80.0 -111.65 -81.25 -106.15 -81.9 -99.9 -81.75 19.6 -81.15 19.6 -81.0 20.75 -81.75 20.75 -92.15 23.5 -87.0 23.5 -77.4 20.75 -76.75 20.75 -76.75 23.5 -78.65 24.1 -78.5 50.35 -102.65 66.0 -102.65 30.85 -100.4 30.85 -100.5 27.25 -87.65 23.6 -92.65 23.6 -106.75 27.25 -106.9 -125.75 -106.25 -138.15 -104.5 -145.65 -101.65 -152.25 Q-98.4 -158.0 -93.75 -160.25 L-89.0 -161.25 -89.0 -166.5 -80.25 -166.5 M-152.0 -260.15 L-144.5 -261.75 -144.4 -270.25 -130.15 -270.25 -125.4 -282.75 -163.5 -282.75 -163.65 -261.75 -171.25 -260.0 -177.9 -255.15 -184.0 -247.0 -188.5 -236.9 -191.4 -224.65 -192.4 -208.5 -192.4 44.5 -197.75 45.75 -197.75 48.35 -182.0 44.5 -181.75 50.35 -185.75 51.5 -185.75 107.6 -190.15 110.0 -190.25 122.85 -130.9 122.75 -115.0 107.6 -168.8 107.55 -166.4 107.5 -166.4 107.35 -57.9 107.35 -51.75 95.6 -148.15 95.6 -166.4 107.35 -166.4 50.35 -162.75 50.35 -162.75 44.5 -130.9 35.6 -138.9 35.6 -172.75 44.5 -173.15 44.5 -173.25 -207.5 -172.25 -224.0 -169.4 -236.5 -164.75 -247.15 Q-159.15 -256.65 -152.0 -260.15 M-267.15 172.85 L-331.5 214.85 -228.15 214.75 -183.9 172.6 -266.5 172.6 -267.15 172.85 M89.0 85.75 L81.25 78.1 0.1 78.35 0.1 85.75 89.0 85.75 M-112.15 215.85 L-148.4 286.25 147.25 286.35 111.0 215.85 -112.15 215.85 M89.35 86.0 L0.25 86.0 0.1 86.85 Q-0.4 94.5 0.75 95.35 L99.0 95.35 89.35 86.0 M223.35 214.85 L179.5 172.6 1.0 172.6 1.5 214.85 223.35 214.85 M0.75 143.85 L1.0 171.85 178.6 171.85 149.35 143.6 0.75 143.85 M0.35 122.0 L0.5 122.75 127.5 122.75 113.6 109.1 111.5 107.6 0.35 107.75 0.35 122.0" fill="#100f10" fill-rule="evenodd" stroke="none"/>
  </g>
</svg>
