<?xml version="1.0" encoding="UTF-8" standalone="no"?>
<svg xmlns:xlink="http://www.w3.org/1999/xlink" height="772.95px" width="343.9px" xmlns="http://www.w3.org/2000/svg">
  <g transform="matrix(1.0, 0.0, 0.0, 1.0, 0.35, 600.35)">
    <path d="M228.75 -417.0 L228.85 -417.4 228.6 -429.75 163.85 -308.75 164.0 -299.65 228.75 -417.0 M178.75 -600.35 L183.75 -600.35 214.0 -535.65 221.0 -502.4 219.1 -498.25 212.25 -532.0 182.85 -594.4 178.75 -600.35 M329.5 -600.35 L343.2 -600.35 343.2 -495.45 267.55 -386.75 270.6 -379.75 275.25 -360.75 276.75 -339.25 276.85 71.75 276.5 71.75 274.5 71.25 274.75 -337.0 273.1 -357.65 268.5 -377.0 265.45 -383.8 190.05 -275.45 Q193.55 -266.9 195.25 -256.75 L185.15 -243.45 Q183.1 -247.95 180.35 -251.5 178.45 -253.95 176.35 -255.85 170.25 -261.35 162.5 -261.9 L162.6 -262.25 180.75 -290.9 Q175.5 -295.55 171.0 -297.5 L162.5 -282.75 143.35 -282.75 156.5 -308.75 147.35 -309.0 205.85 -430.4 198.1 -450.15 199.75 -453.75 207.5 -434.15 287.25 -600.0 287.25 -600.35 319.35 -600.35 319.35 -600.0 230.6 -433.75 230.75 -420.9 329.5 -600.0 329.5 -600.35 M166.5 -241.7 L133.0 -193.55 131.0 -198.0 126.35 -204.5 120.75 -208.5 114.6 -210.0 143.5 -261.75 Q158.05 -259.15 165.55 -243.75 L166.5 -241.7 M143.25 -269.75 L114.75 -216.75 103.25 -216.75 129.0 -270.25 143.35 -270.25 143.25 -269.75 M114.35 -215.9 L114.25 -215.4 95.35 -180.25 95.5 -175.25 114.35 -209.15 120.25 -207.75 125.75 -203.75 130.5 -197.4 132.55 -192.9 110.65 -161.4 Q111.8 -158.6 112.4 -155.5 L113.75 -149.45 113.75 -149.4 Q111.95 -154.65 108.05 -157.7 104.7 -160.4 99.75 -161.4 L99.85 -161.65 99.85 -161.75 105.1 -169.9 99.75 -173.65 97.0 -174.25 88.0 -174.25 91.0 -180.25 85.75 -180.25 85.75 -180.65 102.85 -215.9 114.35 -215.9 M87.85 -165.9 L76.0 -144.15 76.0 -143.65 67.1 -127.4 60.35 -127.4 60.35 -127.75 79.1 -166.5 88.0 -166.5 87.85 -165.9 M88.0 -161.25 Q95.35 -160.25 100.05 -152.8 101.15 -151.1 102.05 -149.05 L77.85 -114.35 77.85 -114.3 Q75.2 -116.15 71.85 -116.85 L74.15 -120.15 74.2 -120.1 74.15 -120.15 Q73.1 -121.2 71.9 -121.85 69.8 -123.1 67.1 -123.4 L67.25 -124.0 76.1 -139.65 76.1 -140.0 88.0 -161.25 M51.35 -108.6 L57.0 -120.4 63.35 -120.4 63.35 -120.25 51.6 -98.5 46.5 -98.65 51.25 -108.45 51.35 -108.6 M73.2 -107.6 L59.9 -88.5 Q58.55 -91.2 56.5 -93.1 54.05 -95.35 51.75 -95.75 L51.75 -95.9 63.35 -116.65 Q67.5 -116.55 71.15 -111.25 L73.2 -107.6 M257.85 71.25 L259.85 71.85 259.75 81.1 257.75 80.5 257.85 71.25 M266.1 83.25 L266.1 172.25 264.0 170.8 264.0 82.6 266.1 83.25" fill="#100f10" fill-rule="evenodd" stroke="none"/>
    <path d="M162.5 -282.75 L162.6 -262.25 162.5 -261.9 Q172.9 -261.15 180.35 -251.5 189.45 -239.8 190.85 -218.0 L191.35 44.5 180.75 44.6 180.6 50.35 184.6 51.5 184.6 57.6 184.6 107.5 165.1 107.6 165.35 50.35 161.6 50.35 161.6 44.5 171.75 44.5 172.1 44.5 172.25 -209.15 Q172.15 -230.15 165.55 -243.75 158.05 -259.15 143.5 -261.75 L143.25 -269.75 143.35 -270.25 129.0 -270.25 124.1 -282.65 143.35 -282.75 162.5 -282.75 M97.0 -174.25 L99.75 -173.65 99.85 -161.75 99.75 -161.4 Q110.6 -159.15 113.85 -149.0 L114.25 -145.5 114.75 27.25 111.0 27.25 111.0 29.5 107.5 29.6 107.5 33.5 110.1 34.35 110.1 65.65 101.35 65.65 101.75 31.35 101.5 30.85 99.1 30.75 99.25 27.25 105.5 27.25 105.85 -127.5 Q105.75 -143.85 100.05 -152.8 95.35 -160.25 88.0 -161.25 L87.85 -165.9 88.0 -166.5 79.1 -166.5 76.1 -173.9 76.1 -174.25 88.0 -174.25 97.0 -174.25 M77.9 -114.25 Q80.45 -108.05 80.5 -102.75 L80.6 19.6 80.0 19.6 80.0 20.75 76.1 20.75 75.75 20.85 75.75 23.5 77.5 24.1 77.5 47.5 73.1 47.35 73.25 22.1 71.5 22.1 71.5 19.5 75.6 19.5 76.25 19.5 76.25 -90.65 Q76.1 -104.1 71.15 -111.25 67.5 -116.55 63.35 -116.65 L63.35 -120.25 63.35 -120.4 57.0 -120.4 54.85 -125.75 67.15 -126.5 67.25 -124.0 67.1 -123.4 Q69.8 -123.1 71.9 -121.85 L71.85 -116.85 Q75.25 -116.15 77.9 -114.25" fill="#cccccc" fill-opacity="0.15294118" fill-rule="evenodd" stroke="none"/>
    <path d="M178.75 -600.0 L182.85 -594.4 212.25 -532.0 219.1 -498.25 221.0 -502.4 214.0 -535.65 184.5 -598.65 183.75 -600.0 M143.35 -282.75 L156.5 -308.75 147.35 -309.0 142.0 -323.4 198.1 -450.15 199.75 -453.75 218.75 -496.75 219.1 -498.25 M198.1 -450.15 L205.85 -430.4 228.75 -430.4 228.6 -429.75 228.85 -417.4 228.75 -417.0 240.6 -414.25 251.6 -406.25 261.1 -393.5 268.5 -377.0 273.1 -357.65 274.75 -337.0 274.5 71.25 276.5 71.75 276.85 71.75 276.75 -339.25 275.25 -360.75 270.6 -379.75 263.25 -396.5 253.75 -409.4 242.6 -417.5 230.6 -420.25 230.6 -420.65 230.75 -420.9 230.6 -433.75 207.5 -433.75 207.5 -434.15 199.75 -453.75 M264.25 -600.0 L221.0 -502.4 M207.5 -434.15 L287.25 -600.0 M319.35 -600.0 L230.6 -433.75 M162.5 -282.75 L171.0 -297.5 163.85 -299.15 164.0 -299.65 163.85 -308.75 156.5 -308.75 M162.5 -282.75 L143.35 -282.75 124.1 -282.65 129.0 -270.25 143.35 -270.25 143.25 -269.75 143.5 -261.75 Q158.05 -259.15 165.55 -243.75 172.15 -230.15 172.25 -209.15 L172.1 44.5 171.75 44.5 161.6 44.5 161.6 50.35 165.35 50.35 165.1 107.6 184.6 107.5 184.6 57.6 184.6 51.5 180.6 50.35 180.75 44.6 191.35 44.5 190.85 -218.0 Q189.45 -239.8 180.35 -251.5 172.9 -261.15 162.5 -261.9 L162.6 -262.25 162.5 -282.75 M191.35 44.5 L196.75 45.75 196.75 -240.25 Q196.25 -262.6 188.45 -279.0 184.55 -287.15 180.75 -290.9 L162.6 -262.25 M180.75 -290.9 Q175.5 -295.55 171.0 -297.5 M0.0 -362.3 L24.85 -353.9 49.35 -342.25 71.85 -324.0 91.35 -298.0 106.0 -266.75 109.5 -250.0 109.85 -250.75 106.5 -267.9 91.75 -298.9 72.25 -324.9 Q72.1 -325.75 68.25 -328.5 L49.6 -343.5 25.0 -355.15 0.0 -363.75 M67.15 -126.5 L67.1 -127.4 60.35 -127.4 60.35 -127.75 58.0 -133.4 65.85 -150.5 73.0 -166.9 Q69.95 -184.75 57.55 -203.5 L47.85 -216.25 32.6 -228.5 16.35 -236.25 0.15 -242.3 16.5 -236.75 32.85 -228.9 48.0 -216.65 57.55 -203.5 M16.35 -236.25 L16.5 -236.75 M32.85 -228.9 L32.6 -228.5 M47.85 -216.25 L48.0 -216.65 M88.0 -174.25 L91.0 -180.25 85.75 -180.25 85.75 -180.65 82.6 -188.9 99.0 -225.5 99.0 -225.65 99.35 -226.5 109.5 -250.0 M99.0 -225.5 L102.85 -215.9 114.35 -215.9 114.6 -216.15 114.75 -216.75 103.25 -216.75 99.35 -226.5 M91.0 -180.25 L95.35 -180.25 114.25 -215.4 114.35 -215.9 M114.5 -209.75 L114.35 -209.15 120.25 -207.75 125.75 -203.75 130.5 -197.4 134.25 -189.15 136.6 -179.65 137.25 -169.15 137.75 -169.25 137.0 -179.9 134.75 -189.65 131.0 -198.0 126.35 -204.5 120.75 -208.5 114.6 -210.0 114.5 -209.75 114.25 -215.4 M114.6 -210.0 L114.6 -216.15 M114.75 -216.75 L143.25 -269.75 M143.5 -261.75 L114.6 -210.0 M103.25 -216.75 L129.0 -270.25 M124.1 -282.65 L109.85 -250.75 M97.0 -174.25 L99.75 -173.65 105.1 -169.9 Q107.2 -168.05 109.1 -164.6 111.45 -160.35 112.4 -155.5 L113.85 -149.0 114.25 -145.5 114.75 27.25 114.6 28.1 114.6 29.5 137.25 35.5 137.25 -169.15 M97.0 -174.25 L95.5 -174.65 95.5 -175.25 95.35 -180.25 M97.0 -174.25 L88.0 -174.25 76.1 -174.25 76.1 -173.9 79.1 -166.5 88.0 -166.5 87.85 -165.9 88.0 -161.25 Q95.35 -160.25 100.05 -152.8 105.75 -143.85 105.85 -127.5 L105.5 27.25 99.25 27.25 99.1 30.75 101.5 30.85 101.75 31.35 101.35 65.65 110.1 65.65 110.1 34.35 107.5 33.5 107.5 29.6 111.0 29.5 111.0 27.25 114.75 27.25 M99.85 -161.75 L99.75 -173.65 M105.1 -169.9 L99.85 -161.75 99.85 -161.65 99.75 -161.4 Q110.6 -159.15 113.85 -149.0 M88.0 -161.25 L76.1 -140.0 Q80.3 -139.2 83.75 -136.25 90.35 -129.95 91.35 -113.0 L91.35 23.5 91.6 23.6 105.5 27.25 M73.0 -166.9 L76.1 -173.9 M71.9 -121.85 Q69.8 -123.1 67.1 -123.4 L67.25 -124.0 67.15 -126.5 54.85 -125.75 57.0 -120.4 63.35 -120.4 63.35 -120.25 63.35 -116.65 Q67.5 -116.55 71.15 -111.25 76.1 -104.1 76.25 -90.65 L76.25 19.5 75.6 19.5 71.5 19.5 71.5 22.1 73.25 22.1 73.1 47.35 77.5 47.5 77.5 24.1 75.75 23.5 75.75 20.85 76.1 20.75 80.0 20.75 80.0 19.6 80.6 19.6 80.5 -102.75 Q80.45 -108.05 77.9 -114.25 M71.9 -121.85 Q73.1 -121.2 74.15 -120.15 L74.2 -120.1 Q76.4 -117.9 77.9 -114.25 M67.1 -127.4 L76.0 -143.65 76.0 -144.15 68.35 -144.15 60.35 -127.75 M67.25 -124.0 L76.1 -139.65 76.1 -140.0 76.0 -143.65 M0.0 -181.45 Q30.7 -173.7 45.65 -148.8 50.35 -141.05 52.9 -132.5 L54.5 -125.5 54.6 -125.55 54.85 -125.75 M59.75 37.1 L59.75 18.5 58.5 18.1 58.35 17.25 58.35 16.0 62.25 15.85 62.1 -79.5 Q61.4 -88.6 56.5 -93.1 54.05 -95.35 51.75 -95.75 L51.75 -95.9 51.6 -98.5 46.5 -98.65 44.75 -103.0 49.4 -113.35 54.5 -124.75 54.5 -125.5 M51.25 -108.45 L51.35 -108.6 57.0 -120.4 M57.1 -104.9 Q64.3 -103.5 67.1 -94.0 68.0 -91.0 68.3 -87.4 L68.5 -84.0 68.5 17.5 75.6 19.5 M65.85 -150.5 L68.35 -144.15 79.1 -166.5 M46.5 -98.65 L51.25 -108.45 M87.85 -165.9 L76.0 -144.15 M114.35 -209.15 L95.5 -175.25 M102.85 -215.9 L85.75 -180.65 M147.35 -309.0 L205.85 -430.4 M228.75 -417.0 L164.0 -299.65 M228.6 -429.75 L163.85 -308.75 M329.5 -600.0 L230.75 -420.9 M257.85 71.25 L257.75 80.5 259.75 81.1 259.85 71.85 257.85 71.25 185.1 51.0 184.75 51.0 184.6 51.5 M259.75 81.1 L264.0 82.6 266.1 83.25 343.2 107.35 M259.85 71.85 L276.5 71.75 M274.5 71.25 L257.85 71.25 M185.1 51.0 L196.75 51.0 196.75 48.5 180.75 44.6 M196.75 45.75 L196.75 48.5 M184.6 57.6 L189.1 59.1 257.75 80.5 M189.1 59.1 L189.1 122.4 M264.0 82.6 L264.0 170.9 M266.1 83.25 L266.1 172.25 M196.75 51.0 L274.5 71.25 M137.25 35.5 L137.75 35.6 137.75 -169.25 M129.0 35.5 L129.0 40.1 129.25 40.25 129.25 35.6 129.0 35.5 107.5 29.6 M161.6 44.5 L129.75 35.6 129.25 35.6 M129.0 35.5 L137.25 35.5 M129.25 40.25 L132.1 41.25 161.6 50.35 M171.75 44.5 L137.75 35.6 129.75 35.6 M91.6 23.6 L86.35 23.6 99.25 27.25 M80.6 19.6 L80.75 20.75 91.0 23.5 91.35 23.5 M85.75 23.5 L85.75 26.6 85.85 23.6 85.75 23.5 76.1 20.75 M85.75 23.5 L91.0 23.5 M86.35 23.6 L85.85 23.6 M85.75 26.6 L87.85 27.35 99.1 30.75 M114.6 28.1 L111.0 27.25 M111.0 29.5 L114.6 29.5 M87.75 56.85 L87.85 27.35 M132.1 41.25 L132.1 85.5 M129.0 40.1 L110.1 34.35 M58.35 16.0 L64.25 17.6 68.0 17.5 62.25 15.85 M68.5 17.5 L64.75 17.6 71.5 19.5 M71.5 22.1 L65.6 20.35 65.75 20.75 65.6 42.5 M64.75 17.6 L64.25 17.6 64.25 19.85 65.6 20.35 M68.0 17.5 L68.5 17.5 M80.75 20.75 L80.0 20.75 M64.25 19.85 L59.75 18.5 M85.75 26.6 L77.5 24.1 M343.2 94.95 L259.85 71.85 M343.2 89.1 L276.85 71.75" fill="none" stroke="#171317" stroke-linecap="round" stroke-linejoin="round" stroke-width="0.7000000000000001"/>
    <path d="M77.9 -114.25 Q75.25 -116.15 71.85 -116.85 L71.9 -121.85 M63.35 -120.25 L56.9 -108.25 56.75 -108.05 57.05 -105.35 63.35 -116.65 M51.35 -108.6 L51.15 -108.65 51.25 -108.45 M57.05 -105.35 L57.1 -104.9 M51.35 -108.6 L56.9 -108.25 M49.4 -113.35 L51.15 -108.65 M74.15 -120.15 L71.85 -116.85 M57.05 -105.35 L51.75 -95.9 M56.75 -108.05 L51.6 -98.5" fill="none" stroke="#171317" stroke-linecap="round" stroke-linejoin="round" stroke-width="0.75"/>
  </g>
</svg>
