<?xml version="1.0" encoding="UTF-8" standalone="no"?>
<svg xmlns:xlink="http://www.w3.org/1999/xlink" height="33.8px" width="19.6px" xmlns="http://www.w3.org/2000/svg">
  <g transform="matrix(1.0, 0.0, 0.0, 1.0, -165.05, -90.0)">
    <path d="M179.3 90.0 Q179.8 90.0 181.5 90.75 L183.5 91.6 184.15 91.9 184.5 92.25 Q184.25 92.5 184.65 92.85 181.5 94.8 178.25 100.8 177.4 102.3 174.8 108.05 172.55 112.85 171.8 118.25 L171.35 123.8 168.0 123.6 165.8 123.15 Q165.05 122.9 165.05 122.5 L165.1 120.95 165.15 120.8 165.2 120.5 Q166.3 112.3 168.0 108.5 L170.3 103.05 Q171.55 100.3 172.6 98.6 L176.35 93.1 Q178.7 90.0 179.3 90.0" fill="url(#gradient0)" fill-rule="evenodd" stroke="none"/>
  </g>
  <defs>
    <linearGradient gradientTransform="matrix(0.0201, 0.0073, -0.0072, 0.0197, 176.65, 107.75)" gradientUnits="userSpaceOnUse" id="gradient0" spreadMethod="pad" x1="-819.2" x2="819.2">
      <stop offset="0.0" stop-color="#e2fdfe" stop-opacity="0.8"/>
      <stop offset="1.0" stop-color="#ffffff" stop-opacity="0.0"/>
    </linearGradient>
  </defs>
</svg>
