<?xml version="1.0" encoding="UTF-8" standalone="no"?>
<svg xmlns:xlink="http://www.w3.org/1999/xlink" height="101.0px" width="39.0px" xmlns="http://www.w3.org/2000/svg">
  <g transform="matrix(1.0, 0.0, 0.0, 1.0, 19.5, 50.5)">
    <path d="M19.5 -21.0 L19.5 48.0 Q19.5 49.05 18.8 49.8 18.05 50.5 17.0 50.5 L-17.0 50.5 Q-18.05 50.5 -18.75 49.8 -19.5 49.05 -19.5 48.0 L-19.5 -21.0 Q-19.65 -30.05 -13.6 -39.9 -6.95 -50.85 0.0 -50.5 6.95 -50.85 13.6 -39.9 19.55 -30.1 19.5 -21.0" fill="#000000" fill-rule="evenodd" stroke="none"/>
    <path d="M16.95 -23.0 L17.0 -21.0 17.0 48.0 -17.0 48.0 -17.0 -21.0 -16.95 -23.0 16.95 -23.0" fill="url(#gradient0)" fill-rule="evenodd" stroke="none"/>
    <path d="M16.85 -24.0 L16.95 -23.0 -16.95 -23.0 -16.85 -24.0 Q-16.1 -31.05 -11.5 -38.6 -5.75 -48.0 0.0 -48.0 5.75 -48.0 11.45 -38.6 16.0 -31.05 16.85 -24.0" fill="url(#gradient1)" fill-rule="evenodd" stroke="none"/>
    <path d="M6.0 20.0 Q4.35 18.6 3.0 19.0 1.75 19.35 1.35 21.1 0.35 25.35 5.0 31.0 2.4 31.25 1.4 36.85 L1.35 37.3 Q1.1 41.2 3.4 43.05 5.3 44.55 8.5 44.55 11.7 44.55 13.6 43.05 15.9 41.2 15.7 37.3 L15.6 36.85 Q14.6 31.25 12.0 31.0 16.65 25.35 15.65 21.1 15.25 19.35 14.0 19.0 12.65 18.6 11.0 20.0 L17.0 0.45 17.0 48.0 -17.0 48.0 -17.0 0.4 -11.0 20.0 Q-12.65 18.6 -14.0 19.0 -15.25 19.35 -15.65 21.1 -16.65 25.35 -12.0 31.0 -14.6 31.25 -15.6 36.85 L-15.65 37.3 Q-15.9 41.2 -13.6 43.05 -11.7 44.55 -8.5 44.55 -5.3 44.55 -3.4 43.05 -1.1 41.2 -1.3 37.3 L-1.4 36.85 Q-2.4 31.25 -5.0 31.0 -0.35 25.35 -1.35 21.1 -1.75 19.35 -3.0 19.0 -4.35 18.6 -6.0 20.0 L0.0 0.0 6.0 20.0" fill="#000000" fill-opacity="0.3019608" fill-rule="evenodd" stroke="none"/>
    <path d="M0.0 0.0 L-6.0 20.0 Q-4.35 18.6 -3.0 19.0 -1.75 19.35 -1.35 21.1 -0.35 25.35 -5.0 31.0 M17.0 0.45 L11.0 20.0 Q12.65 18.6 14.0 19.0 15.25 19.35 15.65 21.1 16.65 25.35 12.0 31.0" fill="none" stroke="#d10303" stroke-linecap="round" stroke-linejoin="round" stroke-width="0.5"/>
    <path d="M5.0 31.0 Q0.35 25.35 1.35 21.1 1.75 19.35 3.0 19.0 4.35 18.6 6.0 20.0 L0.0 0.0 M-12.0 31.0 Q-16.65 25.35 -15.65 21.1 -15.25 19.35 -14.0 19.0 -12.65 18.6 -11.0 20.0 L-17.0 0.4" fill="none" stroke="#690101" stroke-linecap="round" stroke-linejoin="round" stroke-width="0.5"/>
    <path d="M12.0 31.0 Q14.6 31.25 15.6 36.85 L15.7 37.3 Q15.9 41.2 13.6 43.05 11.7 44.55 8.5 44.55 5.3 44.55 3.4 43.05 1.1 41.2 1.35 37.3 L1.4 36.85 Q2.4 31.25 5.0 31.0" fill="none" stroke="url(#gradient2)" stroke-linecap="round" stroke-linejoin="round" stroke-width="0.5"/>
    <path d="M-5.0 31.0 Q-2.4 31.25 -1.4 36.85 L-1.3 37.3 Q-1.1 41.2 -3.4 43.05 -5.3 44.55 -8.5 44.55 -11.7 44.55 -13.6 43.05 -15.9 41.2 -15.65 37.3 L-15.6 36.85 Q-14.6 31.25 -12.0 31.0" fill="none" stroke="url(#gradient3)" stroke-linecap="round" stroke-linejoin="round" stroke-width="0.5"/>
    <path d="M6.0 1.0 L9.0 -9.0 12.0 1.0 9.0 11.0 6.0 1.0 M-12.0 1.0 L-9.0 -9.0 -6.0 1.0 -9.0 11.0 -12.0 1.0" fill="#000000" fill-opacity="0.3019608" fill-rule="evenodd" stroke="none"/>
    <path d="M9.0 11.0 L6.0 1.0 9.0 -9.0 M-9.0 11.0 L-12.0 1.0 -9.0 -9.0" fill="none" stroke="#d10303" stroke-linecap="round" stroke-linejoin="round" stroke-width="0.5"/>
    <path d="M9.0 -9.0 L12.0 1.0 9.0 11.0 M-9.0 -9.0 L-6.0 1.0 -9.0 11.0" fill="none" stroke="#690101" stroke-linecap="round" stroke-linejoin="round" stroke-width="0.5"/>
    <path d="M4.25 -32.1 Q6.0 -29.15 6.0 -25.0 6.0 -20.85 4.25 -17.95 2.5 -15.0 0.0 -15.0 -2.5 -15.0 -4.25 -17.95 -6.0 -20.85 -6.0 -25.0 -6.0 -29.15 -4.25 -32.1 -2.5 -35.0 0.0 -35.0 2.5 -35.0 4.25 -32.1" fill="url(#gradient4)" fill-rule="evenodd" stroke="none"/>
  </g>
  <defs>
    <linearGradient gradientTransform="matrix(0.0208, 0.0, 0.0, 0.0586, 0.0, 0.0)" gradientUnits="userSpaceOnUse" id="gradient0" spreadMethod="pad" x1="-819.2" x2="819.2">
      <stop offset="0.0392156862745098" stop-color="#46484f"/>
      <stop offset="0.12941176470588237" stop-color="#201d23"/>
      <stop offset="0.23921568627450981" stop-color="#36343d"/>
      <stop offset="0.44313725490196076" stop-color="#787878"/>
      <stop offset="0.5529411764705883" stop-color="#787878"/>
      <stop offset="0.7568627450980392" stop-color="#36343d"/>
      <stop offset="0.8784313725490196" stop-color="#201d23"/>
      <stop offset="0.9529411764705882" stop-color="#46484f"/>
    </linearGradient>
    <radialGradient cx="0" cy="0" gradientTransform="matrix(0.0217, 0.0, 0.0, 0.0408, 0.0, -23.05)" gradientUnits="userSpaceOnUse" id="gradient1" r="819.2" spreadMethod="pad">
      <stop offset="0.09803921568627451" stop-color="#7b7b7b"/>
      <stop offset="0.23529411764705882" stop-color="#606060"/>
      <stop offset="0.49411764705882355" stop-color="#36343d"/>
      <stop offset="0.7098039215686275" stop-color="#201d23"/>
      <stop offset="0.8862745098039215" stop-color="#46484f"/>
    </radialGradient>
    <linearGradient gradientTransform="matrix(0.0211, 0.0, 0.0, 0.0278, -0.05, 22.25)" gradientUnits="userSpaceOnUse" id="gradient2" spreadMethod="pad" x1="-819.2" x2="819.2">
      <stop offset="0.16470588235294117" stop-color="#8d8d8d"/>
      <stop offset="0.6862745098039216" stop-color="#690101"/>
      <stop offset="1.0" stop-color="#d10303"/>
    </linearGradient>
    <linearGradient gradientTransform="matrix(0.0211, 0.0, 0.0, 0.0278, -0.05, 22.25)" gradientUnits="userSpaceOnUse" id="gradient3" spreadMethod="pad" x1="-819.2" x2="819.2">
      <stop offset="0.08235294117647059" stop-color="#690101"/>
      <stop offset="0.4627450980392157" stop-color="#d10303"/>
    </linearGradient>
    <radialGradient cx="0" cy="0" gradientTransform="matrix(0.0073, 0.0, 0.0, 0.0122, 0.0, -25.0)" gradientUnits="userSpaceOnUse" id="gradient4" r="819.2" spreadMethod="pad">
      <stop offset="0.23137254901960785" stop-color="#bbbbbb"/>
      <stop offset="0.8196078431372549" stop-color="#989898" stop-opacity="0.0"/>
    </radialGradient>
  </defs>
</svg>
