<?xml version="1.0" encoding="UTF-8" standalone="no"?>
<svg xmlns:xlink="http://www.w3.org/1999/xlink" height="118.0px" width="113.25px" xmlns="http://www.w3.org/2000/svg">
  <g transform="matrix(1.0, 0.0, 0.0, 1.0, 54.25, 59.0)">
    <path d="M59.0 -52.0 L59.0 52.0 Q59.0 59.0 52.0 59.0 L-8.0 59.0 Q-15.0 59.0 -15.0 52.0 L-15.0 -52.0 Q-15.0 -59.0 -8.0 -59.0 L52.0 -59.0 Q59.0 -59.0 59.0 -52.0 M-53.15 -38.2 Q-54.05 -43.35 -54.2 -46.05 -54.55 -51.6 -52.0 -51.8 -48.1 -54.0 -43.4 -41.6 L-43.4 -41.55 Q-40.0 -33.1 -36.5 -20.85 L-17.2 47.1 Q-16.9 48.15 -17.35 49.2 -17.85 50.2 -18.85 50.65 L-24.5 53.15 -26.2 53.4 Q-27.05 53.25 -27.7 52.65 -28.4 52.05 -28.6 51.25 L-47.85 -16.65 -47.9 -16.7 Q-51.3 -28.8 -53.15 -38.15 L-53.15 -38.2" fill="#000000" fill-rule="evenodd" stroke="none"/>
    <path d="M52.0 -56.0 Q56.0 -56.0 56.0 -52.0 L56.0 52.0 Q56.0 56.0 52.0 56.0 L-8.0 56.0 Q-12.0 56.0 -12.0 52.0 L-12.0 -52.0 Q-12.0 -56.0 -8.0 -56.0 L52.0 -56.0" fill="url(#gradient0)" fill-rule="evenodd" stroke="none"/>
    <path d="M50.0 -52.0 L-6.0 -52.0 Q-8.0 -52.0 -8.0 -50.0 L-8.0 50.0 Q-8.0 52.0 -6.0 52.0 L50.0 52.0 Q52.0 52.0 52.0 50.0 L52.0 -50.0 Q52.0 -52.0 50.0 -52.0 Z" fill="none" stroke="#284528" stroke-linecap="round" stroke-linejoin="round" stroke-width="1.0"/>
    <path d="M7.15 -40.05 Q8.35 -50.0 10.0 -50.0 11.7 -50.0 12.8 -40.05 13.95 -30.8 14.0 -18.0 L14.0 6.0 20.0 6.0 20.0 -18.0 Q20.1 -30.6 21.15 -40.05 22.35 -50.0 24.0 -50.0 25.7 -50.0 26.8 -40.05 27.95 -30.8 28.0 -18.0 L28.0 6.0 34.0 6.0 34.0 -18.0 Q34.1 -30.6 35.15 -40.05 36.35 -50.0 38.0 -50.0 39.7 -50.0 40.8 -40.05 41.95 -30.8 42.0 -18.0 L42.0 6.0 50.0 6.0 Q52.0 6.0 52.0 8.0 L52.0 30.0 Q52.0 32.0 50.0 32.0 L42.0 32.0 42.0 52.0 34.0 52.0 34.0 32.0 28.0 32.0 28.0 52.0 20.0 52.0 20.0 32.0 14.0 32.0 14.0 52.0 6.0 52.0 6.0 32.0 -2.0 32.0 Q-4.0 32.0 -4.0 30.0 L-4.0 8.0 Q-4.0 6.0 -2.0 6.0 L6.0 6.0 6.0 -18.0 Q6.1 -30.6 7.15 -40.05" fill="#1b2e1b" fill-rule="evenodd" stroke="none"/>
    <path d="M5.85 -41.65 Q6.75 -51.6 8.0 -51.6 9.3 -51.6 10.1 -41.65 10.95 -32.4 11.0 -19.6 L11.0 52.0 5.0 52.0 5.0 -19.6 Q5.1 -32.2 5.85 -41.65" fill="url(#gradient1)" fill-rule="evenodd" stroke="none"/>
    <path d="M19.85 -41.65 Q20.75 -51.6 22.0 -51.6 23.3 -51.6 24.1 -41.65 24.95 -32.4 25.0 -19.6 L25.0 52.0 19.0 52.0 19.0 -19.6 Q19.1 -32.2 19.85 -41.65" fill="url(#gradient2)" fill-rule="evenodd" stroke="none"/>
    <path d="M33.85 -41.65 Q34.75 -51.6 36.0 -51.6 37.3 -51.6 38.1 -41.65 38.95 -32.4 39.0 -19.6 L39.0 52.0 33.0 52.0 33.0 -19.6 Q33.1 -32.2 33.85 -41.65" fill="url(#gradient3)" fill-rule="evenodd" stroke="none"/>
    <path d="M-50.8 -49.05 Q-49.65 -49.6 -46.2 -40.5 -42.85 -32.15 -39.4 -20.05 L-20.1 47.9 -25.75 50.4 -45.0 -17.5 Q-48.35 -29.45 -50.2 -38.75 -51.95 -48.55 -50.8 -49.05" fill="url(#gradient4)" fill-rule="evenodd" stroke="none"/>
    <path d="M50.0 30.0 Q50.0 32.0 48.0 32.0 L-4.0 32.0 Q-6.0 32.0 -6.0 30.0 L-6.0 8.0 Q-6.0 6.0 -4.0 6.0 L48.0 6.0 Q50.0 6.0 50.0 8.0 L50.0 30.0" fill="url(#gradient5)" fill-rule="evenodd" stroke="none"/>
    <path d="M32.0 6.0 L32.0 32.0 26.0 32.0 26.0 6.0 32.0 6.0" fill="url(#gradient6)" fill-rule="evenodd" stroke="none"/>
    <path d="M18.0 6.0 L18.0 32.0 12.0 32.0 12.0 6.0 18.0 6.0" fill="url(#gradient7)" fill-rule="evenodd" stroke="none"/>
    <path d="M4.0 6.0 L4.0 32.0 2.0 32.0 2.0 6.0 4.0 6.0" fill="url(#gradient8)" fill-rule="evenodd" stroke="none"/>
    <path d="M42.0 32.0 L40.0 32.0 40.0 6.0 42.0 6.0 42.0 32.0" fill="url(#gradient9)" fill-rule="evenodd" stroke="none"/>
    <path d="M36.0 6.0 L36.0 32.0 34.0 32.0 34.0 6.0 36.0 6.0" fill="url(#gradient10)" fill-rule="evenodd" stroke="none"/>
    <path d="M22.0 32.0 L20.0 32.0 20.0 6.0 22.0 6.0 22.0 32.0" fill="url(#gradient11)" fill-rule="evenodd" stroke="none"/>
    <path d="M8.0 6.0 L8.0 32.0 6.0 32.0 6.0 6.0 8.0 6.0" fill="url(#gradient12)" fill-rule="evenodd" stroke="none"/>
  </g>
  <defs>
    <linearGradient gradientTransform="matrix(0.0158, 0.083, -0.0719, 0.0137, 21.0, 0.0)" gradientUnits="userSpaceOnUse" id="gradient0" spreadMethod="pad" x1="-819.2" x2="819.2">
      <stop offset="0.0" stop-color="#426f42"/>
      <stop offset="0.7490196078431373" stop-color="#1f361f"/>
      <stop offset="1.0" stop-color="#456b47"/>
    </linearGradient>
    <linearGradient gradientTransform="matrix(0.0037, 0.0, 0.0, 0.0632, 8.0, 0.2)" gradientUnits="userSpaceOnUse" id="gradient1" spreadMethod="pad" x1="-819.2" x2="819.2">
      <stop offset="0.0" stop-color="#352e2d"/>
      <stop offset="0.25882352941176473" stop-color="#8f8585"/>
      <stop offset="0.403921568627451" stop-color="#726969"/>
      <stop offset="0.7490196078431373" stop-color="#352d2d"/>
      <stop offset="1.0" stop-color="#403737"/>
    </linearGradient>
    <linearGradient gradientTransform="matrix(0.0037, 0.0, 0.0, 0.0632, 22.0, 0.2)" gradientUnits="userSpaceOnUse" id="gradient2" spreadMethod="pad" x1="-819.2" x2="819.2">
      <stop offset="0.0" stop-color="#352e2d"/>
      <stop offset="0.25882352941176473" stop-color="#8f8585"/>
      <stop offset="0.403921568627451" stop-color="#726969"/>
      <stop offset="0.7490196078431373" stop-color="#352d2d"/>
      <stop offset="1.0" stop-color="#403737"/>
    </linearGradient>
    <linearGradient gradientTransform="matrix(0.0037, 0.0, 0.0, 0.0632, 36.0, 0.2)" gradientUnits="userSpaceOnUse" id="gradient3" spreadMethod="pad" x1="-819.2" x2="819.2">
      <stop offset="0.0" stop-color="#352e2d"/>
      <stop offset="0.25882352941176473" stop-color="#8f8585"/>
      <stop offset="0.403921568627451" stop-color="#726969"/>
      <stop offset="0.7490196078431373" stop-color="#352d2d"/>
      <stop offset="1.0" stop-color="#403737"/>
    </linearGradient>
    <linearGradient gradientTransform="matrix(0.0037, -0.0011, 0.0171, 0.0582, -36.4, 1.05)" gradientUnits="userSpaceOnUse" id="gradient4" spreadMethod="pad" x1="-819.2" x2="819.2">
      <stop offset="0.0" stop-color="#352e2d"/>
      <stop offset="0.25882352941176473" stop-color="#8f8585"/>
      <stop offset="0.403921568627451" stop-color="#726969"/>
      <stop offset="0.7490196078431373" stop-color="#352d2d"/>
      <stop offset="1.0" stop-color="#403737"/>
    </linearGradient>
    <linearGradient gradientTransform="matrix(0.0, 0.0296, -0.0159, 0.0, 21.0, 19.0)" gradientUnits="userSpaceOnUse" id="gradient5" spreadMethod="pad" x1="-819.2" x2="819.2">
      <stop offset="0.0" stop-color="#3b633b"/>
      <stop offset="0.7686274509803922" stop-color="#1a2817"/>
      <stop offset="1.0" stop-color="#253724"/>
    </linearGradient>
    <linearGradient gradientTransform="matrix(0.0, 0.0159, -0.0159, 0.0, 29.0, 19.0)" gradientUnits="userSpaceOnUse" id="gradient6" spreadMethod="pad" x1="-819.2" x2="819.2">
      <stop offset="0.0" stop-color="#355834"/>
      <stop offset="1.0" stop-color="#101b10"/>
    </linearGradient>
    <linearGradient gradientTransform="matrix(0.0, 0.0159, -0.0159, 0.0, 15.0, 19.0)" gradientUnits="userSpaceOnUse" id="gradient7" spreadMethod="pad" x1="-819.2" x2="819.2">
      <stop offset="0.0" stop-color="#335532"/>
      <stop offset="1.0" stop-color="#111c10"/>
    </linearGradient>
    <linearGradient gradientTransform="matrix(0.0, 0.0159, -0.0159, 0.0, 1.0, 19.0)" gradientUnits="userSpaceOnUse" id="gradient8" spreadMethod="pad" x1="-819.2" x2="819.2">
      <stop offset="0.0" stop-color="#315230"/>
      <stop offset="1.0" stop-color="#111d11"/>
    </linearGradient>
    <linearGradient gradientTransform="matrix(0.0, 0.0159, -0.0159, 0.0, 39.0, 19.0)" gradientUnits="userSpaceOnUse" id="gradient9" spreadMethod="pad" x1="-819.2" x2="819.2">
      <stop offset="0.0" stop-color="#345633"/>
      <stop offset="1.0" stop-color="#111d11"/>
    </linearGradient>
    <linearGradient gradientTransform="matrix(0.0, 0.0159, -0.0159, 0.0, 35.0, 19.0)" gradientUnits="userSpaceOnUse" id="gradient10" spreadMethod="pad" x1="-819.2" x2="819.2">
      <stop offset="0.0" stop-color="#406c40"/>
      <stop offset="1.0" stop-color="#1b2c1b"/>
    </linearGradient>
    <linearGradient gradientTransform="matrix(0.0, 0.0159, -0.0159, 0.0, 21.0, 19.0)" gradientUnits="userSpaceOnUse" id="gradient11" spreadMethod="pad" x1="-819.2" x2="819.2">
      <stop offset="0.0" stop-color="#416e41"/>
      <stop offset="1.0" stop-color="#1c2e1c"/>
    </linearGradient>
    <linearGradient gradientTransform="matrix(0.0, 0.0159, -0.0159, 0.0, 7.0, 19.0)" gradientUnits="userSpaceOnUse" id="gradient12" spreadMethod="pad" x1="-819.2" x2="819.2">
      <stop offset="0.0" stop-color="#426f42"/>
      <stop offset="1.0" stop-color="#1c2e1c"/>
    </linearGradient>
  </defs>
</svg>
