<?xml version="1.0" encoding="UTF-8" standalone="no"?>
<svg xmlns:xlink="http://www.w3.org/1999/xlink" height="154.8px" width="45.0px" xmlns="http://www.w3.org/2000/svg">
  <g transform="matrix(1.0, 0.0, 0.0, 1.0, 22.5, 76.3)">
    <path d="M7.5 -70.55 Q9.45 -69.75 10.4 -67.8 10.9 -67.0 12.3 -60.35 L14.0 -51.25 14.0 -47.55 Q13.75 -41.9 12.7 -38.0 L12.25 -36.5 13.0 -36.5 Q15.0 -36.5 15.8 -34.9 16.4 -34.1 16.25 -32.4 L15.7 -28.95 Q15.15 -24.2 18.75 -20.8 19.3 -20.25 19.45 -19.5 19.6 -18.8 19.35 -18.05 19.05 -17.35 18.4 -16.9 17.75 -16.5 17.0 -16.5 L11.85 -16.5 10.4 -15.05 12.6 -12.9 Q13.3 -12.35 13.45 -11.5 13.65 -10.65 13.25 -9.85 L12.1 -7.2 Q9.85 -0.95 10.2 8.25 10.6 18.25 13.9 26.05 L15.2 28.85 Q15.6 29.6 15.45 30.5 L14.6 31.95 Q14.1 32.45 12.6 32.5 12.6 33.7 12.95 35.6 13.3 37.55 13.75 38.35 L19.9 40.65 Q21.55 41.55 21.45 43.2 21.35 44.75 20.0 45.3 L19.55 45.5 20.0 45.5 Q21.05 45.5 21.8 46.25 22.5 46.95 22.5 48.0 L22.5 50.0 Q22.5 50.85 22.05 51.5 22.45 52.1 22.5 52.85 22.55 53.8 22.0 54.55 17.3 60.5 22.0 66.5 22.55 67.2 22.5 68.1 22.45 69.0 21.9 69.7 14.2 78.4 0.05 78.5 L0.0 78.5 Q-14.2 78.4 -21.85 69.7 -22.45 69.0 -22.5 68.1 -22.55 67.2 -21.95 66.5 -17.3 60.5 -21.95 54.55 -22.55 53.8 -22.5 52.85 -22.45 52.1 -22.0 51.5 -22.5 50.85 -22.5 50.0 L-22.5 48.0 Q-22.5 46.95 -21.75 46.25 -21.05 45.5 -20.0 45.5 L-19.5 45.5 -20.0 45.3 -21.1 44.35 Q-21.5 43.7 -21.5 42.95 -21.5 42.2 -21.05 41.55 -20.6 40.9 -19.85 40.65 L-13.7 38.35 -13.05 35.8 Q-12.6 33.65 -12.6 32.5 L-13.0 32.5 Q-13.9 32.5 -14.55 31.95 -15.25 31.35 -15.45 30.5 -15.6 29.6 -15.2 28.85 L-13.85 26.05 Q-10.55 18.25 -10.15 8.25 -9.8 -0.9 -12.05 -7.2 L-13.2 -9.85 Q-13.65 -10.65 -13.45 -11.5 -13.25 -12.4 -12.55 -12.95 L-10.35 -15.05 -11.8 -16.5 -17.0 -16.5 Q-17.75 -16.5 -18.4 -16.9 -19.05 -17.35 -19.3 -18.05 -19.6 -18.8 -19.45 -19.5 -19.3 -20.25 -18.7 -20.8 -15.15 -24.2 -15.65 -28.95 L-16.2 -32.4 Q-16.45 -34.4 -15.5 -35.45 -14.8 -36.25 -13.8 -36.4 L-15.2 -38.65 -16.75 -41.45 -17.0 -42.5 -17.0 -50.85 -16.85 -51.65 Q-15.8 -54.9 -14.85 -56.65 L-13.9 -57.65 -13.15 -58.45 -12.1 -61.0 Q-11.8 -61.8 -11.05 -62.25 L-10.15 -62.65 -8.5 -70.35 Q-7.95 -72.4 -6.05 -72.9 L-4.2 -73.05 Q-3.25 -76.65 0.4 -76.25 3.45 -76.15 4.3 -73.65 6.25 -73.05 7.5 -70.55 M-8.05 -62.85 L-8.2 -62.85 -7.95 -62.8 -8.05 -62.85 M-4.95 -60.45 L-4.95 -60.3 -4.95 -60.35 -4.95 -60.45" fill="#000000" fill-rule="evenodd" stroke="none"/>
    <path d="M-9.8 -60.1 L-8.2 -60.35 -6.9 -59.95 -7.25 -50.85 -14.5 -50.85 -12.65 -55.5 Q-11.6 -56.1 -10.95 -57.35 L-9.8 -60.1" fill="url(#gradient0)" fill-rule="evenodd" stroke="none"/>
    <path d="M-9.3 -51.9 L-9.3 -42.5 -14.5 -42.5 -14.5 -50.85 Q-11.6 -52.65 -9.3 -51.9" fill="url(#gradient1)" fill-rule="evenodd" stroke="none"/>
    <path d="M-10.35 -46.7 L-3.05 -42.5 -6.2 -32.1 Q-11.6 -36.3 -14.5 -42.5 L-10.35 -46.7" fill="url(#gradient2)" fill-rule="evenodd" stroke="none"/>
    <path d="M2.15 -60.2 L-2.45 -60.35 -2.15 -66.65 0.1 -66.9 2.15 -66.45 2.15 -60.2" fill="url(#gradient3)" fill-rule="evenodd" stroke="none"/>
    <path d="M2.15 -66.45 L-2.15 -66.65 -1.9 -71.85 Q-1.55 -73.9 0.25 -73.75 2.05 -73.65 2.15 -71.65 L2.15 -66.45" fill="url(#gradient4)" fill-rule="evenodd" stroke="none"/>
    <path d="M5.25 -59.15 L5.25 -68.55 Q7.4 -68.3 8.2 -66.6 L9.4 -62.3 5.25 -59.15" fill="url(#gradient5)" fill-rule="evenodd" stroke="none"/>
    <path d="M5.25 -57.1 L5.25 -64.35 Q7.35 -63.3 9.4 -62.3 L10.45 -57.1 5.25 -57.1" fill="url(#gradient6)" fill-rule="evenodd" stroke="none"/>
    <path d="M7.35 -58.15 L10.45 -57.1 11.5 -50.85 5.25 -50.85 7.35 -58.15" fill="url(#gradient7)" fill-rule="evenodd" stroke="none"/>
    <path d="M6.3 -65.4 L2.15 -63.35 2.15 -71.65 Q4.25 -71.4 5.1 -69.75 L6.3 -65.4" fill="url(#gradient8)" fill-rule="evenodd" stroke="none"/>
    <path d="M6.3 -65.4 L7.35 -59.15 2.15 -58.15 2.15 -66.45 6.3 -65.4" fill="url(#gradient9)" fill-rule="evenodd" stroke="none"/>
    <path d="M7.35 -59.15 L8.35 -51.9 2.15 -51.9 2.15 -60.2 7.35 -59.15" fill="url(#gradient10)" fill-rule="evenodd" stroke="none"/>
    <path d="M2.15 -55.0 L-2.6 -55.1 -2.45 -60.3 -0.05 -60.6 2.15 -60.2 2.15 -55.0" fill="url(#gradient11)" fill-rule="evenodd" stroke="none"/>
    <path d="M-7.25 -64.9 L-6.15 -69.55 Q-5.8 -70.55 -4.5 -70.55 -3.25 -70.5 -3.15 -69.65 L-3.05 -64.7 -7.25 -64.9" fill="url(#gradient12)" fill-rule="evenodd" stroke="none"/>
    <path d="M-8.25 -59.15 L-7.25 -64.9 -3.05 -65.35 -3.05 -58.15 -8.25 -59.15" fill="url(#gradient13)" fill-rule="evenodd" stroke="none"/>
    <path d="M-3.05 -60.2 L-3.05 -51.9 -9.3 -51.9 -8.25 -59.15 -3.05 -60.2" fill="url(#gradient14)" fill-rule="evenodd" stroke="none"/>
    <path d="M11.5 -50.85 L11.5 -47.7 Q10.9 -34.95 6.3 -32.1 L-6.2 -38.35 -10.35 -46.7 -9.3 -52.9 Q-3.85 -55.65 1.15 -55.15 6.05 -54.65 11.5 -50.85" fill="url(#gradient15)" fill-rule="evenodd" stroke="none"/>
    <path d="M0.05 -42.5 Q3.05 -42.5 5.2 -40.4 7.35 -38.2 7.35 -35.2 7.35 -33.5 6.65 -32.1 L-6.55 -32.1 Q-7.25 -33.5 -7.25 -35.2 -7.25 -38.2 -5.15 -40.4 L-5.1 -40.45 Q-2.9 -42.5 0.05 -42.5" fill="url(#gradient16)" fill-rule="evenodd" stroke="none"/>
    <path d="M3.7 -30.55 Q2.2 -29.0 0.05 -29.0 -2.1 -29.0 -3.65 -30.55 -5.15 -32.05 -5.15 -34.2 -5.15 -36.3 -3.65 -37.9 -2.1 -39.4 0.05 -39.4 2.2 -39.4 3.7 -37.9 5.25 -36.3 5.25 -34.2 5.25 -32.05 3.7 -30.55" fill="url(#gradient17)" fill-rule="evenodd" stroke="none"/>
    <path d="M0.55 -37.3 L-0.45 -37.3 -0.45 -39.4 0.55 -39.4 0.55 -37.3" fill="#393939" fill-rule="evenodd" stroke="none"/>
    <path d="M1.5 -53.15 Q1.5 -51.95 0.9 -51.05 0.35 -50.2 -0.4 -50.2 -1.2 -50.2 -1.75 -51.05 -2.25 -51.95 -2.25 -53.15 -2.25 -54.4 -1.75 -55.2 -1.2 -56.05 -0.4 -56.05 0.35 -56.05 0.9 -55.2 1.5 -54.4 1.5 -53.15" fill="url(#gradient18)" fill-rule="evenodd" stroke="none"/>
    <path d="M-5.1 -54.1 Q-4.55 -53.35 -4.55 -52.2 -4.55 -51.05 -5.1 -50.25 -5.55 -49.5 -6.3 -49.5 -7.0 -49.5 -7.55 -50.25 -8.0 -51.05 -8.0 -52.2 -8.0 -53.35 -7.55 -54.1 -7.0 -54.9 -6.3 -54.9 -5.55 -54.9 -5.1 -54.1" fill="url(#gradient19)" fill-rule="evenodd" stroke="none"/>
    <path d="M3.8 -50.55 Q3.35 -51.3 3.35 -52.45 3.35 -53.6 3.8 -54.4 4.3 -55.15 5.05 -55.15 5.75 -55.15 6.25 -54.4 6.8 -53.6 6.8 -52.45 6.8 -51.3 6.25 -50.55 5.75 -49.75 5.05 -49.75 4.3 -49.75 3.8 -50.55" fill="url(#gradient20)" fill-rule="evenodd" stroke="none"/>
    <path d="M9.85 -52.8 Q10.4 -52.8 10.75 -52.2 11.25 -51.55 11.25 -50.65 11.25 -49.7 10.75 -49.0 10.4 -48.4 9.85 -48.4 9.2 -48.4 8.8 -49.0 8.35 -49.7 8.35 -50.65 8.35 -51.55 8.8 -52.2 9.2 -52.8 9.85 -52.8" fill="url(#gradient21)" fill-rule="evenodd" stroke="none"/>
    <path d="M-14.0 61.0 L14.0 61.0 Q14.5 63.95 16.05 67.2 L17.75 70.2 Q11.0 75.9 0.0 76.0 -11.0 75.9 -17.75 70.2 L-16.05 67.2 Q-14.5 63.95 -14.0 61.0" fill="url(#gradient22)" fill-rule="evenodd" stroke="none"/>
    <path d="M-14.0 61.0 Q-14.15 56.9 -15.55 54.1 -16.4 52.4 -17.9 50.9 L-17.0 50.0 17.0 50.0 17.9 50.9 Q16.4 52.4 15.55 54.1 14.15 56.9 14.0 61.0 L-14.0 61.0" fill="url(#gradient23)" fill-rule="evenodd" stroke="none"/>
    <path d="M5.65 62.65 Q3.3 65.0 0.0 65.0 -3.3 65.0 -5.65 62.65 -8.0 60.3 -8.0 57.0 -8.0 53.7 -5.65 51.35 -3.3 49.0 0.0 49.0 3.3 49.0 5.65 51.35 8.0 53.7 8.0 57.0 8.0 60.3 5.65 62.65" fill="url(#gradient24)" fill-rule="evenodd" stroke="none"/>
    <path d="M0.0 65.0 L-1.0 64.95 -1.0 58.0 1.0 58.0 1.0 64.95 0.0 65.0" fill="#000000" fill-rule="evenodd" stroke="none"/>
    <path d="M6.35 52.65 L7.4 53.85 Q8.0 55.3 8.0 57.0 8.0 58.55 7.5 59.85 L7.3 59.7 Q7.0 59.4 7.0 59.0 7.0 56.1 4.95 54.05 2.9 52.0 0.0 52.0 -2.9 52.0 -4.95 54.05 -7.0 56.1 -7.0 59.0 -7.0 59.4 -7.3 59.7 L-7.5 59.85 Q-8.0 58.55 -8.0 57.0 -8.0 55.3 -7.35 53.85 L-6.35 52.65 Q-5.35 51.65 -4.15 51.0 L4.15 51.0 Q5.35 51.65 6.35 52.65" fill="#000000" fill-opacity="0.2627451" fill-rule="evenodd" stroke="none"/>
    <path d="M15.0 46.0 Q12.15 43.6 11.0 40.0 L19.0 43.0 15.0 46.0" fill="url(#gradient25)" fill-rule="evenodd" stroke="none"/>
    <path d="M-15.0 46.0 L-19.0 43.0 -11.0 40.0 Q-12.45 43.3 -15.0 46.0" fill="url(#gradient26)" fill-rule="evenodd" stroke="none"/>
    <path d="M20.0 50.0 L-20.0 50.0 Q-21.15 49.0 -20.0 48.0 L20.0 48.0 Q20.8 48.8 20.0 50.0" fill="url(#gradient27)" fill-rule="evenodd" stroke="none"/>
    <path d="M17.0 48.0 L0.0 48.0 -17.0 48.0 Q-13.65 45.05 -11.85 40.5 L-11.0 38.0 11.0 38.0 11.85 40.5 Q13.65 45.05 17.0 48.0" fill="url(#gradient28)" fill-rule="evenodd" stroke="none"/>
    <path d="M17.9 50.9 L20.0 53.0 Q14.15 60.5 20.0 68.0 L17.75 70.2 17.05 69.0 16.05 67.2 Q14.5 63.95 14.0 61.0 14.15 56.9 15.55 54.1 16.4 52.4 17.9 50.9 M-17.9 50.9 Q-16.4 52.4 -15.55 54.1 -14.15 56.9 -14.0 61.0 -14.5 63.95 -16.05 67.2 L-17.05 69.0 -17.75 70.2 -20.0 68.0 Q-14.15 60.5 -20.0 53.0 L-17.9 50.9" fill="url(#gradient29)" fill-rule="evenodd" stroke="none"/>
    <path d="M17.0 50.0 Q12.4 53.3 12.0 59.0 L8.0 59.0 Q8.0 55.7 5.65 53.35 3.3 51.0 0.0 51.0 -3.3 51.0 -5.65 53.35 -8.0 55.7 -8.0 59.0 L-12.0 59.0 Q-12.4 53.3 -17.0 50.0 L0.0 50.0 17.0 50.0" fill="url(#gradient30)" fill-rule="evenodd" stroke="none"/>
    <path d="M-13.9 44.8 Q-15.4 43.7 -16.0 43.0 -15.0 42.25 -13.0 41.3 L-10.0 40.0 Q-9.65 40.5 -9.7 41.6 L-10.0 43.3 Q-10.75 45.65 -12.0 46.0 L-13.9 44.8" fill="url(#gradient31)" fill-rule="evenodd" stroke="none"/>
    <path d="M-3.85 40.25 Q-2.65 40.75 -2.2 41.85 -1.7 43.0 -2.2 44.15 -2.65 45.3 -3.75 45.8 -4.9 46.3 -6.1 45.8 -7.25 45.35 -7.65 44.2 -8.2 43.05 -7.75 41.9 -7.25 40.75 -6.1 40.25 -5.0 39.8 -3.85 40.25" fill="url(#gradient32)" fill-rule="evenodd" stroke="none"/>
    <path d="M7.85 41.9 Q8.3 43.05 7.75 44.2 7.35 45.35 6.2 45.8 5.0 46.3 3.85 45.8 2.75 45.3 2.3 44.15 1.8 43.0 2.3 41.85 2.75 40.75 3.95 40.25 5.1 39.8 6.2 40.25 7.35 40.75 7.85 41.9" fill="url(#gradient33)" fill-rule="evenodd" stroke="none"/>
    <path d="M9.7 41.6 Q9.65 40.5 10.0 40.0 L13.0 41.3 Q15.0 42.25 16.0 43.0 15.4 43.7 13.9 44.8 L12.0 46.0 Q10.75 45.65 10.0 43.3 L9.7 41.6" fill="url(#gradient34)" fill-rule="evenodd" stroke="none"/>
    <path d="M-6.5 40.4 L-6.1 40.6 Q-4.25 41.5 -2.35 43.75 L-2.25 43.85 -2.4 44.25 Q-2.85 45.35 -4.05 45.85 -5.2 46.3 -6.25 45.85 L-7.85 43.25 -8.1 42.6 Q-8.6 41.1 -8.2 40.45 L-6.5 40.4" fill="url(#gradient35)" fill-rule="evenodd" stroke="none"/>
    <path d="M8.25 40.45 Q8.65 41.1 8.15 42.6 L7.9 43.25 6.3 45.85 Q5.25 46.3 4.1 45.85 2.9 45.35 2.45 44.25 L2.3 43.85 2.4 43.75 Q4.3 41.5 6.15 40.6 L6.55 40.4 8.25 40.45" fill="url(#gradient36)" fill-rule="evenodd" stroke="none"/>
    <path d="M0.0 30.0 L10.0 30.0 Q10.0 33.75 10.75 37.0 L11.0 38.0 -11.0 38.0 -10.75 37.0 Q-10.0 33.75 -10.0 30.0 L0.0 30.0" fill="url(#gradient37)" fill-rule="evenodd" stroke="none"/>
    <path d="M11.0 38.0 L-11.0 38.0 -11.0 37.0 11.0 37.0 11.0 38.0" fill="#000000" fill-opacity="0.2" fill-rule="evenodd" stroke="none"/>
    <path d="M12.0 32.0 L-12.0 32.0 -12.0 30.0 12.0 30.0 12.0 32.0" fill="#000000" fill-opacity="0.3529412" fill-rule="evenodd" stroke="none"/>
    <path d="M0.0 -11.0 L11.0 -11.0 Q7.2 -3.65 7.65 8.35 8.15 20.8 13.0 30.0 L0.0 30.0 -13.0 30.0 Q-8.15 20.8 -7.65 8.35 -7.2 -3.65 -11.0 -11.0 L0.0 -11.0" fill="url(#gradient38)" fill-rule="evenodd" stroke="none"/>
    <path d="M0.0 -9.0 Q1.75 -9.0 2.55 -7.8 3.3 -6.7 2.75 -4.2 1.9 -1.05 1.9 9.7 1.9 20.45 2.75 23.25 3.3 25.7 2.55 26.8 1.75 28.0 0.0 28.0 -1.7 28.0 -2.5 26.8 -3.25 25.7 -2.7 23.25 -1.85 20.45 -1.85 9.7 -1.85 -1.05 -2.7 -4.2 -3.25 -6.7 -2.5 -7.8 -1.7 -9.0 0.0 -9.0" fill="url(#gradient39)" fill-rule="evenodd" stroke="none"/>
    <path d="M-5.2 -2.85 Q-4.1 2.85 -5.05 14.3 -5.95 24.85 -7.5 26.8 -8.3 27.8 -9.85 27.8 -11.0 27.8 -11.55 27.0 -8.05 18.85 -7.65 8.35 -7.3 -1.4 -9.7 -8.05 -9.3 -8.6 -8.35 -8.6 -6.3 -8.6 -5.2 -2.85" fill="url(#gradient40)" fill-rule="evenodd" stroke="none"/>
    <path d="M8.4 -8.6 Q9.35 -8.6 9.75 -8.05 7.35 -1.4 7.7 8.35 8.1 18.85 11.6 27.0 11.05 27.8 9.9 27.8 8.35 27.8 7.55 26.8 6.0 24.85 5.05 14.3 4.1 2.85 5.2 -2.85 6.35 -8.6 8.4 -8.6" fill="url(#gradient41)" fill-rule="evenodd" stroke="none"/>
    <path d="M1.15 -7.0 Q1.65 -6.5 1.65 -5.8 1.65 -5.1 1.15 -4.65 0.7 -4.15 0.0 -4.15 -0.7 -4.15 -1.2 -4.65 -1.65 -5.1 -1.65 -5.8 -1.65 -6.5 -1.2 -7.0 -0.7 -7.45 0.0 -7.45 L1.15 -7.0" fill="url(#gradient42)" fill-rule="evenodd" stroke="none"/>
    <path d="M-8.15 -7.4 L-7.25 -7.15 Q-6.75 -6.8 -6.6 -6.1 -6.4 -5.45 -6.65 -4.9 -6.8 -4.3 -7.3 -4.2 -7.75 -4.05 -8.25 -4.45 L-8.85 -5.5 -8.85 -6.7 -8.15 -7.4" fill="url(#gradient43)" fill-rule="evenodd" stroke="none"/>
    <path d="M7.25 -7.15 L8.15 -7.4 8.85 -6.7 8.85 -5.5 8.25 -4.45 Q7.75 -4.05 7.3 -4.2 6.8 -4.3 6.65 -4.9 6.4 -5.45 6.6 -6.1 6.75 -6.8 7.25 -7.15" fill="url(#gradient44)" fill-rule="evenodd" stroke="none"/>
    <path d="M8.0 -14.0 Q9.3 -12.4 11.0 -11.0 L-11.0 -11.0 Q-9.25 -12.4 -8.0 -14.0 L0.0 -14.0 8.0 -14.0" fill="url(#gradient45)" fill-rule="evenodd" stroke="none"/>
    <path d="M8.0 -14.0 L-8.0 -14.0 -8.0 -17.0 8.0 -17.0 8.0 -14.0" fill="url(#gradient46)" fill-rule="evenodd" stroke="none"/>
    <path d="M3.0 -16.0 L3.0 -17.0 -3.0 -17.0 -3.0 -16.0 -8.0 -16.0 Q-9.25 -17.85 -11.0 -19.0 L0.0 -19.0 11.0 -19.0 Q9.25 -17.85 8.0 -16.0 L3.0 -16.0" fill="url(#gradient47)" fill-rule="evenodd" stroke="none"/>
    <path d="M12.0 -18.0 L-12.0 -18.0 -12.0 -20.0 12.0 -20.0 12.0 -18.0" fill="#000000" fill-opacity="0.2" fill-rule="evenodd" stroke="none"/>
    <path d="M3.0 -16.5 L-3.0 -16.5 -3.0 -17.5 3.0 -17.5 3.0 -16.5" fill="#000000" fill-rule="evenodd" stroke="none"/>
    <path d="M0.0 -34.0 L13.0 -34.0 Q13.9 -34.0 13.75 -32.7 L13.2 -29.25 Q12.5 -23.3 17.0 -19.0 L0.0 -19.0 -17.0 -19.0 Q-12.5 -23.3 -13.2 -29.25 L-13.75 -32.7 Q-13.9 -34.0 -13.0 -34.0 L0.0 -34.0" fill="url(#gradient48)" fill-rule="evenodd" stroke="none"/>
    <path d="M11.35 -30.05 L12.35 -30.1 12.25 -29.3 Q11.7 -24.65 14.3 -20.95 L13.25 -21.0 Q10.7 -24.65 11.25 -29.3 L11.35 -30.05 M1.25 -30.05 L1.25 -21.0 -1.25 -21.0 -1.25 -30.1 1.25 -30.05 M6.1 -25.25 L6.0 -30.05 8.0 -30.05 Q7.65 -24.1 9.05 -21.0 L7.0 -21.0 Q6.3 -22.8 6.1 -25.25 M-6.1 -25.2 Q-6.3 -22.8 -7.0 -21.0 L-9.0 -21.0 Q-7.8 -24.05 -8.0 -30.0 L-6.0 -30.0 -6.1 -25.2 M-11.3 -30.0 L-11.2 -29.25 Q-10.65 -24.6 -13.2 -21.0 L-14.25 -20.95 Q-11.65 -24.6 -12.2 -29.25 L-12.3 -30.05 -11.3 -30.0" fill="url(#gradient49)" fill-rule="evenodd" stroke="none"/>
    <path d="M13.0 -34.0 Q13.9 -34.0 13.75 -32.7 L13.3 -30.0 -13.3 -30.0 -13.75 -32.7 Q-13.9 -34.0 -13.0 -34.0 L0.0 -34.0 13.0 -34.0" fill="url(#gradient50)" fill-rule="evenodd" stroke="none"/>
  </g>
  <defs>
    <linearGradient gradientTransform="matrix(0.0028, 5.0E-4, -8.0E-4, 0.0047, -12.05, -51.6)" gradientUnits="userSpaceOnUse" id="gradient0" spreadMethod="pad" x1="-819.2" x2="819.2">
      <stop offset="0.0" stop-color="#353535"/>
      <stop offset="0.49411764705882355" stop-color="#4a4a4a"/>
      <stop offset="1.0" stop-color="#3c3c3c"/>
    </linearGradient>
    <linearGradient gradientTransform="matrix(0.0032, 0.0, 0.0, 0.0058, -11.9, -47.3)" gradientUnits="userSpaceOnUse" id="gradient1" spreadMethod="pad" x1="-819.2" x2="819.2">
      <stop offset="0.0" stop-color="#393939"/>
      <stop offset="0.49411764705882355" stop-color="#515151"/>
      <stop offset="1.0" stop-color="#3e3e3e"/>
    </linearGradient>
    <linearGradient gradientTransform="matrix(0.006, -0.0036, 0.0045, 0.0076, -8.8, -39.4)" gradientUnits="userSpaceOnUse" id="gradient2" spreadMethod="pad" x1="-819.2" x2="819.2">
      <stop offset="0.0" stop-color="#111111"/>
      <stop offset="0.43137254901960786" stop-color="#383838"/>
      <stop offset="1.0" stop-color="#313131"/>
    </linearGradient>
    <linearGradient gradientTransform="matrix(0.0032, 0.0, 0.0, 0.004, -0.45, -63.5)" gradientUnits="userSpaceOnUse" id="gradient3" spreadMethod="pad" x1="-819.2" x2="819.2">
      <stop offset="0.0" stop-color="#2e2e2e"/>
      <stop offset="0.5215686274509804" stop-color="#666666"/>
      <stop offset="1.0" stop-color="#464646"/>
    </linearGradient>
    <linearGradient gradientTransform="matrix(0.0032, 0.0, 0.0, 0.0045, -0.45, -70.2)" gradientUnits="userSpaceOnUse" id="gradient4" spreadMethod="pad" x1="-819.2" x2="819.2">
      <stop offset="0.0" stop-color="#2e2e2e"/>
      <stop offset="0.5607843137254902" stop-color="#585858"/>
      <stop offset="1.0" stop-color="#464646"/>
    </linearGradient>
    <linearGradient gradientTransform="matrix(0.0023, -6.0E-4, 0.0014, 0.0056, 7.35, -63.75)" gradientUnits="userSpaceOnUse" id="gradient5" spreadMethod="pad" x1="-819.2" x2="819.2">
      <stop offset="0.0" stop-color="#2e2e2e"/>
      <stop offset="0.5607843137254902" stop-color="#585858"/>
      <stop offset="1.0" stop-color="#464646"/>
    </linearGradient>
    <linearGradient gradientTransform="matrix(0.0031, -5.0E-4, 7.0E-4, 0.0044, 8.15, -60.75)" gradientUnits="userSpaceOnUse" id="gradient6" spreadMethod="pad" x1="-819.2" x2="819.2">
      <stop offset="0.0" stop-color="#2e2e2e"/>
      <stop offset="0.5215686274509804" stop-color="#666666"/>
      <stop offset="1.0" stop-color="#464646"/>
    </linearGradient>
    <linearGradient gradientTransform="matrix(0.0027, -3.0E-4, 5.0E-4, 0.0044, 9.15, -54.6)" gradientUnits="userSpaceOnUse" id="gradient7" spreadMethod="pad" x1="-819.2" x2="819.2">
      <stop offset="0.0" stop-color="#2b2b2b"/>
      <stop offset="0.5019607843137255" stop-color="#5b5b5b"/>
      <stop offset="1.0" stop-color="#434343"/>
    </linearGradient>
    <linearGradient gradientTransform="matrix(0.0025, -1.0E-4, 2.0E-4, 0.0051, 4.0, -67.5)" gradientUnits="userSpaceOnUse" id="gradient8" spreadMethod="pad" x1="-819.2" x2="819.2">
      <stop offset="0.0" stop-color="#2e2e2e"/>
      <stop offset="0.5607843137254902" stop-color="#585858"/>
      <stop offset="1.0" stop-color="#464646"/>
    </linearGradient>
    <linearGradient gradientTransform="matrix(0.0032, -2.0E-4, 3.0E-4, 0.0051, 4.55, -62.2)" gradientUnits="userSpaceOnUse" id="gradient9" spreadMethod="pad" x1="-819.2" x2="819.2">
      <stop offset="0.0" stop-color="#2e2e2e"/>
      <stop offset="0.5215686274509804" stop-color="#666666"/>
      <stop offset="1.0" stop-color="#464646"/>
    </linearGradient>
    <linearGradient gradientTransform="matrix(0.0038, 0.0, 0.0, 0.0051, 5.25, -56.05)" gradientUnits="userSpaceOnUse" id="gradient10" spreadMethod="pad" x1="-819.2" x2="819.2">
      <stop offset="0.0" stop-color="#2b2b2b"/>
      <stop offset="0.5019607843137255" stop-color="#5b5b5b"/>
      <stop offset="1.0" stop-color="#434343"/>
    </linearGradient>
    <linearGradient gradientTransform="matrix(0.0032, 0.0, 0.0, 0.0034, -0.45, -57.8)" gradientUnits="userSpaceOnUse" id="gradient11" spreadMethod="pad" x1="-819.2" x2="819.2">
      <stop offset="0.0" stop-color="#2b2b2b"/>
      <stop offset="0.5019607843137255" stop-color="#5b5b5b"/>
      <stop offset="1.0" stop-color="#434343"/>
    </linearGradient>
    <linearGradient gradientTransform="matrix(0.0025, 4.0E-4, -7.0E-4, 0.005, -5.1, -67.5)" gradientUnits="userSpaceOnUse" id="gradient12" spreadMethod="pad" x1="-819.2" x2="819.2">
      <stop offset="0.0" stop-color="#2e2e2e"/>
      <stop offset="0.5607843137254902" stop-color="#585858"/>
      <stop offset="1.0" stop-color="#464646"/>
    </linearGradient>
    <linearGradient gradientTransform="matrix(0.0031, 4.0E-4, -7.0E-4, 0.005, -5.65, -62.3)" gradientUnits="userSpaceOnUse" id="gradient13" spreadMethod="pad" x1="-819.2" x2="819.2">
      <stop offset="0.0" stop-color="#2e2e2e"/>
      <stop offset="0.5215686274509804" stop-color="#666666"/>
      <stop offset="1.0" stop-color="#464646"/>
    </linearGradient>
    <linearGradient gradientTransform="matrix(0.0038, 4.0E-4, -5.0E-4, 0.0051, -6.2, -56.05)" gradientUnits="userSpaceOnUse" id="gradient14" spreadMethod="pad" x1="-819.2" x2="819.2">
      <stop offset="0.0" stop-color="#2b2b2b"/>
      <stop offset="0.5019607843137255" stop-color="#5b5b5b"/>
      <stop offset="1.0" stop-color="#434343"/>
    </linearGradient>
    <linearGradient gradientTransform="matrix(0.0133, 0.0, 0.0, 0.0141, 0.55, -43.65)" gradientUnits="userSpaceOnUse" id="gradient15" spreadMethod="pad" x1="-819.2" x2="819.2">
      <stop offset="0.0" stop-color="#2e2e2e"/>
      <stop offset="0.49411764705882355" stop-color="#5b5b5b"/>
      <stop offset="1.0" stop-color="#232323"/>
    </linearGradient>
    <linearGradient gradientTransform="matrix(0.0089, 0.0, 0.0, 0.0063, 0.05, -37.3)" gradientUnits="userSpaceOnUse" id="gradient16" spreadMethod="pad" x1="-819.2" x2="819.2">
      <stop offset="0.0" stop-color="#6c5e4a"/>
      <stop offset="0.08235294117647059" stop-color="#6d6358"/>
      <stop offset="0.4196078431372549" stop-color="#ccc2b9"/>
      <stop offset="0.5254901960784314" stop-color="#cec6bd"/>
      <stop offset="0.6235294117647059" stop-color="#ccc2b9"/>
      <stop offset="1.0" stop-color="#6c5e4a"/>
    </linearGradient>
    <radialGradient cx="0" cy="0" gradientTransform="matrix(0.011, 0.0, 0.0, 0.011, 1.45, -35.65)" gradientUnits="userSpaceOnUse" id="gradient17" r="819.2" spreadMethod="pad">
      <stop offset="0.0" stop-color="#f0f0f0"/>
      <stop offset="0.34901960784313724" stop-color="#b0b0b0"/>
      <stop offset="0.5568627450980392" stop-color="#838383"/>
      <stop offset="0.8784313725490196" stop-color="#6a6a6a"/>
      <stop offset="1.0" stop-color="#6d6d6d"/>
    </radialGradient>
    <radialGradient cx="0" cy="0" gradientTransform="matrix(0.0026, 0.0, 0.0, 0.0039, -0.35, -53.1)" gradientUnits="userSpaceOnUse" id="gradient18" r="819.2" spreadMethod="pad">
      <stop offset="0.054901960784313725" stop-color="#cec6bd"/>
      <stop offset="0.25098039215686274" stop-color="#ccc2b9"/>
      <stop offset="0.8588235294117647" stop-color="#897c6b"/>
      <stop offset="0.9607843137254902" stop-color="#6c5e4a"/>
    </radialGradient>
    <radialGradient cx="0" cy="0" gradientTransform="matrix(0.0025, 0.0, 0.0, 0.0034, -6.4, -52.2)" gradientUnits="userSpaceOnUse" id="gradient19" r="819.2" spreadMethod="pad">
      <stop offset="0.054901960784313725" stop-color="#cec6bd"/>
      <stop offset="0.2627450980392157" stop-color="#ccc2b9"/>
      <stop offset="0.8588235294117647" stop-color="#897c6b"/>
      <stop offset="0.9607843137254902" stop-color="#6c5e4a"/>
    </radialGradient>
    <radialGradient cx="0" cy="0" gradientTransform="matrix(0.0024, 0.0, 0.0, 0.0036, 4.95, -52.6)" gradientUnits="userSpaceOnUse" id="gradient20" r="819.2" spreadMethod="pad">
      <stop offset="0.054901960784313725" stop-color="#cec6bd"/>
      <stop offset="0.27058823529411763" stop-color="#ccc2b9"/>
      <stop offset="0.8588235294117647" stop-color="#897c6b"/>
      <stop offset="0.9607843137254902" stop-color="#6c5e4a"/>
    </radialGradient>
    <radialGradient cx="0" cy="0" gradientTransform="matrix(0.0021, 0.0, 0.0, 0.0028, 9.8, -50.7)" gradientUnits="userSpaceOnUse" id="gradient21" r="819.2" spreadMethod="pad">
      <stop offset="0.047058823529411764" stop-color="#cec6bd"/>
      <stop offset="0.27058823529411763" stop-color="#ccc2b9"/>
      <stop offset="0.8588235294117647" stop-color="#897c6b"/>
      <stop offset="0.9607843137254902" stop-color="#6c5e4a"/>
    </radialGradient>
    <radialGradient cx="0" cy="0" gradientTransform="matrix(0.0255, 0.0, 0.0, 0.0255, 0.0, 74.0)" gradientUnits="userSpaceOnUse" id="gradient22" r="819.2" spreadMethod="pad">
      <stop offset="0.0784313725490196" stop-color="#555555"/>
      <stop offset="0.4235294117647059" stop-color="#2e2e2e"/>
      <stop offset="0.7254901960784313" stop-color="#151515"/>
      <stop offset="1.0" stop-color="#0b0b0b"/>
    </radialGradient>
    <linearGradient gradientTransform="matrix(0.0, -0.0059, 0.0123, 0.0, 0.0, 56.0)" gradientUnits="userSpaceOnUse" id="gradient23" spreadMethod="pad" x1="-819.2" x2="819.2">
      <stop offset="0.23137254901960785" stop-color="#000000"/>
      <stop offset="1.0" stop-color="#2b2b2b"/>
    </linearGradient>
    <radialGradient cx="0" cy="0" gradientTransform="matrix(0.0107, 0.0, 0.0, 0.0107, 0.0, 57.0)" gradientUnits="userSpaceOnUse" id="gradient24" r="819.2" spreadMethod="pad">
      <stop offset="0.00784313725490196" stop-color="#ccc2b9"/>
      <stop offset="0.11372549019607843" stop-color="#cec6bd"/>
      <stop offset="0.2196078431372549" stop-color="#ccc2b9"/>
      <stop offset="0.7254901960784313" stop-color="#796a5b"/>
      <stop offset="0.9450980392156862" stop-color="#786554"/>
    </radialGradient>
    <linearGradient gradientTransform="matrix(0.0049, -1.0E-4, 0.0, 0.0037, 15.3, 42.65)" gradientUnits="userSpaceOnUse" id="gradient25" spreadMethod="pad" x1="-819.2" x2="819.2">
      <stop offset="0.0" stop-color="#232323"/>
      <stop offset="1.0" stop-color="#515151"/>
    </linearGradient>
    <linearGradient gradientTransform="matrix(-0.0039, 1.0E-4, -1.0E-4, -0.0037, -15.15, 42.75)" gradientUnits="userSpaceOnUse" id="gradient26" spreadMethod="pad" x1="-819.2" x2="819.2">
      <stop offset="0.0" stop-color="#232323"/>
      <stop offset="1.0" stop-color="#515151"/>
    </linearGradient>
    <linearGradient gradientTransform="matrix(0.0244, 0.0, 0.0, 0.0061, 0.0, 43.0)" gradientUnits="userSpaceOnUse" id="gradient27" spreadMethod="pad" x1="-819.2" x2="819.2">
      <stop offset="0.0" stop-color="#383838"/>
      <stop offset="0.16862745098039217" stop-color="#1c1c1c"/>
      <stop offset="0.4745098039215686" stop-color="#6a6a6a"/>
      <stop offset="0.5764705882352941" stop-color="#6d6d6d"/>
      <stop offset="0.8156862745098039" stop-color="#1c1c1c"/>
      <stop offset="1.0" stop-color="#383838"/>
    </linearGradient>
    <linearGradient gradientTransform="matrix(0.0208, 0.0, 0.0, 0.0061, 0.0, 43.0)" gradientUnits="userSpaceOnUse" id="gradient28" spreadMethod="pad" x1="-819.2" x2="819.2">
      <stop offset="0.0" stop-color="#383838"/>
      <stop offset="0.16862745098039217" stop-color="#1c1c1c"/>
      <stop offset="0.4392156862745098" stop-color="#666666"/>
      <stop offset="0.5725490196078431" stop-color="#666666"/>
      <stop offset="0.8156862745098039" stop-color="#1c1c1c"/>
      <stop offset="1.0" stop-color="#383838"/>
    </linearGradient>
    <linearGradient gradientTransform="matrix(0.0, -0.0123, 0.0123, 0.0, 0.0, 60.1)" gradientUnits="userSpaceOnUse" id="gradient29" spreadMethod="pad" x1="-819.2" x2="819.2">
      <stop offset="0.00784313725490196" stop-color="#4e4e4e"/>
      <stop offset="0.5176470588235295" stop-color="#181818"/>
      <stop offset="1.0" stop-color="#404040"/>
    </linearGradient>
    <linearGradient gradientTransform="matrix(0.0208, 0.0, 0.0, 0.0055, 0.0, 54.5)" gradientUnits="userSpaceOnUse" id="gradient30" spreadMethod="pad" x1="-819.2" x2="819.2">
      <stop offset="0.0" stop-color="#464646"/>
      <stop offset="0.21568627450980393" stop-color="#1c1c1c"/>
      <stop offset="0.4196078431372549" stop-color="#555555"/>
      <stop offset="0.596078431372549" stop-color="#555555"/>
      <stop offset="0.7843137254901961" stop-color="#1c1c1c"/>
      <stop offset="1.0" stop-color="#4e4e4e"/>
    </linearGradient>
    <linearGradient gradientTransform="matrix(-0.0014, -0.0063, 0.0036, -8.0E-4, -11.8, 41.05)" gradientUnits="userSpaceOnUse" id="gradient31" spreadMethod="pad" x1="-819.2" x2="819.2">
      <stop offset="0.08235294117647059" stop-color="#2e2e2e"/>
      <stop offset="0.396078431372549" stop-color="#555555"/>
      <stop offset="0.7686274509803922" stop-color="#151515"/>
      <stop offset="1.0" stop-color="#3c3c3c"/>
    </linearGradient>
    <radialGradient cx="0" cy="0" fx="-835.2" fy="0" gradientTransform="matrix(0.0103, -0.0081, 0.0029, 0.0037, 1.9, 36.55)" gradientUnits="userSpaceOnUse" id="gradient32" r="819.2" spreadMethod="pad">
      <stop offset="0.0" stop-color="#8a8a8a"/>
      <stop offset="0.26666666666666666" stop-color="#7b7b7b"/>
      <stop offset="0.4666666666666667" stop-color="#666666"/>
      <stop offset="0.7254901960784313" stop-color="#535353"/>
      <stop offset="0.8431372549019608" stop-color="#515151"/>
      <stop offset="0.9411764705882353" stop-color="#4a4a4a"/>
    </radialGradient>
    <radialGradient cx="0" cy="0" fx="-835.2" fy="0" gradientTransform="matrix(-0.0103, -0.0081, -0.0029, 0.0037, -1.8, 36.55)" gradientUnits="userSpaceOnUse" id="gradient33" r="819.2" spreadMethod="pad">
      <stop offset="0.0" stop-color="#8a8a8a"/>
      <stop offset="0.26666666666666666" stop-color="#7b7b7b"/>
      <stop offset="0.4666666666666667" stop-color="#666666"/>
      <stop offset="0.7254901960784313" stop-color="#535353"/>
      <stop offset="0.8431372549019608" stop-color="#515151"/>
      <stop offset="0.9411764705882353" stop-color="#464646"/>
    </radialGradient>
    <linearGradient gradientTransform="matrix(0.0023, -0.0083, 0.0035, 9.0E-4, 13.7, 40.7)" gradientUnits="userSpaceOnUse" id="gradient34" spreadMethod="pad" x1="-819.2" x2="819.2">
      <stop offset="0.054901960784313725" stop-color="#151515"/>
      <stop offset="0.19607843137254902" stop-color="#2f2f2f"/>
      <stop offset="0.37254901960784315" stop-color="#606060"/>
      <stop offset="0.4666666666666667" stop-color="#4b4b4b"/>
      <stop offset="0.6823529411764706" stop-color="#1f1f1f"/>
      <stop offset="0.8392156862745098" stop-color="#151515"/>
    </linearGradient>
    <radialGradient cx="0" cy="0" fx="3.2" fy="0" gradientTransform="matrix(0.0082, 0.0084, 0.001, -0.0018, -1.55, 48.2)" gradientUnits="userSpaceOnUse" id="gradient35" r="819.2" spreadMethod="pad">
      <stop offset="0.10588235294117647" stop-color="#000000" stop-opacity="0.2901961"/>
      <stop offset="0.4470588235294118" stop-color="#000000" stop-opacity="0.09019608"/>
      <stop offset="0.6862745098039216" stop-color="#000000" stop-opacity="0.0"/>
    </radialGradient>
    <radialGradient cx="0" cy="0" fx="3.2" fy="0" gradientTransform="matrix(-0.0082, 0.0084, -0.001, -0.0018, 1.6, 48.2)" gradientUnits="userSpaceOnUse" id="gradient36" r="819.2" spreadMethod="pad">
      <stop offset="0.10588235294117647" stop-color="#000000" stop-opacity="0.2901961"/>
      <stop offset="0.4470588235294118" stop-color="#000000" stop-opacity="0.09019608"/>
      <stop offset="0.6862745098039216" stop-color="#000000" stop-opacity="0.0"/>
    </radialGradient>
    <linearGradient gradientTransform="matrix(0.0171, 0.0, 0.0, 0.0049, 0.0, 34.0)" gradientUnits="userSpaceOnUse" id="gradient37" spreadMethod="pad" x1="-819.2" x2="819.2">
      <stop offset="0.0" stop-color="#383838"/>
      <stop offset="0.16862745098039217" stop-color="#1c1c1c"/>
      <stop offset="0.4470588235294118" stop-color="#666666"/>
      <stop offset="0.5568627450980392" stop-color="#666666"/>
      <stop offset="0.8156862745098039" stop-color="#1c1c1c"/>
      <stop offset="1.0" stop-color="#383838"/>
    </linearGradient>
    <linearGradient gradientTransform="matrix(0.0159, 0.0, 0.0, 0.025, 0.0, 9.5)" gradientUnits="userSpaceOnUse" id="gradient38" spreadMethod="pad" x1="-819.2" x2="819.2">
      <stop offset="0.0" stop-color="#464646"/>
      <stop offset="0.1411764705882353" stop-color="#232323"/>
      <stop offset="0.47058823529411764" stop-color="#717171"/>
      <stop offset="0.5490196078431373" stop-color="#717171"/>
      <stop offset="0.8588235294117647" stop-color="#232323"/>
      <stop offset="1.0" stop-color="#464646"/>
    </linearGradient>
    <linearGradient gradientTransform="matrix(0.0, 0.0228, -0.0226, 0.0, 0.0, 9.5)" gradientUnits="userSpaceOnUse" id="gradient39" spreadMethod="pad" x1="-819.2" x2="819.2">
      <stop offset="0.0" stop-color="#2b2b2b" stop-opacity="0.67058825"/>
      <stop offset="0.5725490196078431" stop-color="#555555" stop-opacity="0.2901961"/>
      <stop offset="1.0" stop-color="#181818" stop-opacity="0.2901961"/>
    </linearGradient>
    <linearGradient gradientTransform="matrix(-0.0042, 0.0, 1.0E-4, -0.0222, -8.1, 9.6)" gradientUnits="userSpaceOnUse" id="gradient40" spreadMethod="pad" x1="-819.2" x2="819.2">
      <stop offset="0.0" stop-color="#2b2b2b" stop-opacity="0.67058825"/>
      <stop offset="0.5725490196078431" stop-color="#555555" stop-opacity="0.2901961"/>
      <stop offset="1.0" stop-color="#181818" stop-opacity="0.2901961"/>
    </linearGradient>
    <linearGradient gradientTransform="matrix(0.0049, 0.0, 0.0, 0.0222, 8.0, 12.4)" gradientUnits="userSpaceOnUse" id="gradient41" spreadMethod="pad" x1="-819.2" x2="819.2">
      <stop offset="0.0" stop-color="#2b2b2b" stop-opacity="0.67058825"/>
      <stop offset="0.5725490196078431" stop-color="#555555" stop-opacity="0.2901961"/>
      <stop offset="1.0" stop-color="#181818" stop-opacity="0.2901961"/>
    </linearGradient>
    <radialGradient cx="0" cy="0" gradientTransform="matrix(0.0024, 0.0, 0.0, 0.0024, 0.0, -5.8)" gradientUnits="userSpaceOnUse" id="gradient42" r="819.2" spreadMethod="pad">
      <stop offset="0.2" stop-color="#bda882"/>
      <stop offset="0.6941176470588235" stop-color="#79664d"/>
      <stop offset="0.7803921568627451" stop-color="#8b785f"/>
    </radialGradient>
    <radialGradient cx="0" cy="0" fx="-1331.2" fy="0" gradientTransform="matrix(0.0017, -5.0E-4, 8.0E-4, 0.0025, -7.75, -5.9)" gradientUnits="userSpaceOnUse" id="gradient43" r="819.2" spreadMethod="pad">
      <stop offset="0.2" stop-color="#bda882"/>
      <stop offset="0.6941176470588235" stop-color="#79664d"/>
      <stop offset="0.7803921568627451" stop-color="#8b785f"/>
    </radialGradient>
    <radialGradient cx="0" cy="0" fx="-1331.2" fy="0" gradientTransform="matrix(-0.0018, -4.0E-4, 6.0E-4, -0.0027, 7.6, -5.8)" gradientUnits="userSpaceOnUse" id="gradient44" r="819.2" spreadMethod="pad">
      <stop offset="0.2" stop-color="#bda882"/>
      <stop offset="0.6941176470588235" stop-color="#79664d"/>
      <stop offset="0.7803921568627451" stop-color="#8b785f"/>
    </radialGradient>
    <linearGradient gradientTransform="matrix(0.0134, 0.0, 0.0, 0.0018, 0.0, -12.5)" gradientUnits="userSpaceOnUse" id="gradient45" spreadMethod="pad" x1="-819.2" x2="819.2">
      <stop offset="0.0" stop-color="#555555"/>
      <stop offset="0.16470588235294117" stop-color="#313131"/>
      <stop offset="0.3686274509803922" stop-color="#787878"/>
      <stop offset="0.4980392156862745" stop-color="#a3a3a3"/>
      <stop offset="0.6196078431372549" stop-color="#787878"/>
      <stop offset="0.8235294117647058" stop-color="#313131"/>
      <stop offset="1.0" stop-color="#555555"/>
    </linearGradient>
    <linearGradient gradientTransform="matrix(0.0098, 0.0, 0.0, 0.0018, 0.0, -15.5)" gradientUnits="userSpaceOnUse" id="gradient46" spreadMethod="pad" x1="-819.2" x2="819.2">
      <stop offset="0.0" stop-color="#636363"/>
      <stop offset="0.49411764705882355" stop-color="#dfdfdf"/>
      <stop offset="1.0" stop-color="#6a6a6a"/>
    </linearGradient>
    <linearGradient gradientTransform="matrix(0.0134, 0.0, 0.0, 0.0018, 0.0, -17.5)" gradientUnits="userSpaceOnUse" id="gradient47" spreadMethod="pad" x1="-819.2" x2="819.2">
      <stop offset="0.0" stop-color="#2b2b2b"/>
      <stop offset="0.42745098039215684" stop-color="#434343"/>
      <stop offset="0.6313725490196078" stop-color="#434343"/>
      <stop offset="1.0" stop-color="#2e2e2e"/>
    </linearGradient>
    <linearGradient gradientTransform="matrix(0.0208, 0.0, 0.0, 0.0092, 0.0, -26.5)" gradientUnits="userSpaceOnUse" id="gradient48" spreadMethod="pad" x1="-819.2" x2="819.2">
      <stop offset="0.03529411764705882" stop-color="#585858"/>
      <stop offset="0.16862745098039217" stop-color="#262626"/>
      <stop offset="0.44313725490196076" stop-color="#717171"/>
      <stop offset="0.5490196078431373" stop-color="#717171"/>
      <stop offset="0.8392156862745098" stop-color="#262626"/>
      <stop offset="0.9607843137254902" stop-color="#585858"/>
    </linearGradient>
    <linearGradient gradientTransform="matrix(0.0168, 0.0, 0.0, 0.0024, 0.0, -32.0)" gradientUnits="userSpaceOnUse" id="gradient49" spreadMethod="pad" x1="-819.2" x2="819.2">
      <stop offset="0.10980392156862745" stop-color="#6c5e4a"/>
      <stop offset="0.4196078431372549" stop-color="#ccc2b9"/>
      <stop offset="0.5254901960784314" stop-color="#cec6bd"/>
      <stop offset="0.6235294117647059" stop-color="#ccc2b9"/>
      <stop offset="0.8901960784313725" stop-color="#6c5e4a"/>
      <stop offset="0.9450980392156862" stop-color="#786554"/>
    </linearGradient>
    <linearGradient gradientTransform="matrix(0.0168, 0.0, 0.0, 0.0024, 0.0, -32.0)" gradientUnits="userSpaceOnUse" id="gradient50" spreadMethod="pad" x1="-819.2" x2="819.2">
      <stop offset="0.10980392156862745" stop-color="#6c5e4a"/>
      <stop offset="0.4196078431372549" stop-color="#ccc2b9"/>
      <stop offset="0.5254901960784314" stop-color="#cec6bd"/>
      <stop offset="0.6235294117647059" stop-color="#ccc2b9"/>
      <stop offset="0.8901960784313725" stop-color="#6c5e4a"/>
      <stop offset="0.9450980392156862" stop-color="#786554"/>
    </linearGradient>
  </defs>
</svg>
