<?xml version="1.0" encoding="UTF-8" standalone="no"?>
<svg xmlns:xlink="http://www.w3.org/1999/xlink" height="82.05px" width="260.0px" xmlns="http://www.w3.org/2000/svg">
  <g transform="matrix(1.0, 0.0, 0.0, 1.0, 0.0, 8.05)">
    <path d="M49.45 -7.05 L54.0 -0.05 256.0 0.0 Q260.0 0.0 260.0 4.0 L260.0 70.0 Q260.0 74.0 256.0 74.0 L72.5 74.0 4.0 74.0 Q0.0 74.0 0.0 70.0 L0.0 4.0 Q0.0 0.0 4.0 0.0 L43.0 -0.05 47.45 -7.05 48.45 -8.05 49.45 -7.05" fill="#000000" fill-rule="evenodd" stroke="none"/>
    <path d="M256.0 2.0 Q258.0 2.0 258.0 4.0 L258.0 70.0 Q258.0 72.0 256.0 72.0 L4.0 72.0 Q2.0 72.0 2.0 70.0 L2.0 4.0 Q2.0 2.0 4.0 2.0 L43.1 1.95 44.05 1.7 44.8 1.05 48.55 -4.85 52.3 1.05 53.05 1.7 54.0 1.95 256.0 2.0" fill="#bababa" fill-rule="evenodd" stroke="none"/>
  </g>
</svg>
