<?xml version="1.0" encoding="UTF-8" standalone="no"?>
<svg xmlns:xlink="http://www.w3.org/1999/xlink" height="58.9px" width="56.45px" xmlns="http://www.w3.org/2000/svg">
  <g transform="matrix(1.0, 0.0, 0.0, 1.0, 26.6, 55.9)">
    <path d="M29.35 -36.7 Q31.4 -26.65 24.8 -20.2 25.45 -24.85 24.25 -28.65 22.45 -34.25 16.8 -33.1 15.95 -36.55 11.95 -38.85 L11.6 -39.05 10.65 -41.15 Q8.9 -43.8 4.9 -43.6 L3.95 -43.45 3.1 -43.25 2.15 -43.0 1.1 -42.75 Q-0.4 -42.1 -0.6 -41.05 L-3.6 -41.1 Q-9.0 -39.7 -11.8 -36.4 -14.05 -33.8 -14.05 -30.85 L-14.0 -29.8 -13.85 -29.35 -14.0 -29.0 Q-16.85 -30.7 -18.65 -27.9 -20.6 -24.85 -18.5 -19.2 -23.55 -23.1 -25.5 -27.65 -26.7 -30.45 -26.6 -33.3 -26.25 -42.65 -21.05 -47.8 -16.0 -52.8 -8.0 -52.4 -3.55 -57.15 6.9 -55.45 17.35 -53.75 21.45 -47.35 24.1 -46.8 26.3 -43.8 28.5 -40.8 29.35 -36.7 M14.35 -26.05 L13.4 -27.45 11.85 -29.35 Q13.7 -29.6 15.35 -31.1 14.35 -29.2 14.35 -26.05 M1.35 -38.65 L1.5 -38.65 1.85 -38.7 Q2.3 -37.95 3.1 -37.05 5.65 -34.2 9.8 -34.15 L9.75 -33.4 10.05 -31.4 10.35 -30.4 10.1 -30.4 10.0 -30.4 9.7 -30.5 8.15 -30.25 6.05 -30.05 Q5.3 -30.35 3.1 -29.2 L2.1 -28.6 0.1 -27.45 0.05 -27.5 Q0.75 -28.55 1.25 -30.85 L1.85 -35.15 1.65 -37.9 1.35 -38.6 1.35 -38.65 M4.75 -41.1 L4.75 -41.05 4.7 -41.05 4.75 -41.1 M-12.95 -28.25 L-12.9 -28.15 Q-12.35 -27.7 -11.4 -27.2 -8.9 -25.95 -5.5 -25.95 -3.45 -25.95 -1.75 -26.8 L-1.45 -26.95 -1.3 -26.65 Q-2.65 -24.8 -2.65 -23.05 L-2.5 -21.15 -4.45 -19.65 Q-5.3 -20.4 -6.4 -20.8 L-11.35 -20.95 -11.25 -22.45 Q-11.25 -24.65 -11.9 -26.3 L-12.9 -28.15 -12.95 -28.25" fill="url(#gradient0)" fill-rule="evenodd" stroke="none"/>
    <path d="M7.4 -6.45 L7.45 -6.25 7.45 -6.1 7.65 -4.85 7.55 -3.9 7.2 -2.0 7.2 -1.95 6.8 -0.95 6.45 0.0 Q4.45 3.0 -0.3 3.0 -2.55 3.0 -4.25 0.3 L-5.5 -2.45 -5.45 -2.8 -3.5 -2.45 -1.9 -2.55 -1.75 -2.55 Q-0.6 -2.55 0.2 -3.2 L0.35 -3.3 Q1.55 -4.0 1.55 -4.75 L1.45 -5.2 1.45 -5.55 Q1.45 -7.75 -0.75 -10.2 L-2.55 -12.0 -2.95 -12.6 -2.6 -13.65 -2.35 -14.75 Q-2.25 -13.75 -1.75 -12.85 -0.75 -11.05 1.3 -11.05 L2.1 -11.1 2.05 -10.55 2.05 -10.25 2.4 -9.85 Q2.45 -9.1 3.25 -8.4 4.5 -7.25 7.05 -7.25 L7.25 -7.25 7.4 -6.5 7.4 -6.45" fill="#fde98e" fill-rule="evenodd" stroke="none"/>
  </g>
  <defs>
    <radialGradient cx="0" cy="0" gradientTransform="matrix(0.0453, 0.0, 0.0, 0.0744, -0.15, 0.25)" gradientUnits="userSpaceOnUse" id="gradient0" r="819.2" spreadMethod="pad">
      <stop offset="0.043137254901960784" stop-color="#fffdf7"/>
      <stop offset="0.17254901960784313" stop-color="#fff177"/>
      <stop offset="0.44313725490196076" stop-color="#fbd526"/>
      <stop offset="0.5254901960784314" stop-color="#fbd226"/>
      <stop offset="0.7803921568627451" stop-color="#fa9a1b"/>
      <stop offset="1.0" stop-color="#cd1d1d"/>
    </radialGradient>
  </defs>
</svg>
