<?xml version="1.0" encoding="UTF-8" standalone="no"?>
<svg xmlns:xlink="http://www.w3.org/1999/xlink" height="24.95px" width="61.95px" xmlns="http://www.w3.org/2000/svg">
  <g transform="matrix(1.0, 0.0, 0.0, 1.0, 28.4, 61.05)">
    <path d="M19.35 -51.75 Q18.1 -53.7 15.7 -55.9 17.35 -56.15 20.1 -54.65 22.7 -53.2 22.7 -52.5 20.6 -52.4 19.35 -51.75 M4.85 -60.9 L4.95 -61.05 Q8.3 -61.1 11.0 -59.8 13.35 -58.7 14.5 -57.0 13.5 -57.1 12.85 -56.65 12.15 -56.25 11.4 -55.0 9.9 -58.6 4.85 -60.9 M3.3 -60.85 Q2.4 -59.75 2.1 -58.8 L-1.0 -59.6 Q0.45 -61.25 3.3 -60.85 M29.4 -44.2 Q29.9 -46.05 29.05 -47.3 28.45 -48.2 26.9 -49.1 28.95 -50.1 30.65 -49.4 32.15 -48.8 32.9 -47.1 33.7 -45.25 33.55 -41.8 33.4 -38.2 32.4 -36.1 32.3 -39.2 31.9 -40.8 31.15 -43.7 29.4 -44.2 M-10.15 -58.05 Q-7.85 -59.1 -5.9 -59.2 -9.65 -55.55 -10.0 -52.6 -13.85 -54.35 -16.55 -54.3 -16.4 -55.15 -13.65 -55.25 -12.8 -56.8 -10.15 -58.05 M-22.4 -48.15 L-22.2 -44.55 -24.25 -43.6 Q-27.35 -41.95 -28.4 -40.05 -28.45 -44.4 -25.8 -48.2 -23.5 -51.45 -22.1 -51.3 -22.35 -50.6 -22.4 -48.15" fill="url(#gradient0)" fill-rule="evenodd" stroke="none"/>
    <path d="M-14.8 -45.15 L-14.15 -46.65 -13.95 -46.6 -11.7 -46.15 -12.1 -43.75 -13.4 -43.9 -15.3 -43.95 -14.8 -45.15" fill="#eb0505" fill-rule="evenodd" stroke="none"/>
  </g>
  <defs>
    <radialGradient cx="0" cy="0" gradientTransform="matrix(0.0453, 0.0, 0.0, 0.0744, -0.15, 0.25)" gradientUnits="userSpaceOnUse" id="gradient0" r="819.2" spreadMethod="pad">
      <stop offset="0.043137254901960784" stop-color="#fffdf7"/>
      <stop offset="0.17254901960784313" stop-color="#fff177"/>
      <stop offset="0.44313725490196076" stop-color="#fbd526"/>
      <stop offset="0.5254901960784314" stop-color="#fbd226"/>
      <stop offset="0.7803921568627451" stop-color="#fa9a1b"/>
      <stop offset="1.0" stop-color="#cd1d1d"/>
    </radialGradient>
  </defs>
</svg>
