<?xml version="1.0" encoding="UTF-8" standalone="no"?>
<svg xmlns:xlink="http://www.w3.org/1999/xlink" height="14.1px" width="61.6px" xmlns="http://www.w3.org/2000/svg">
  <g transform="matrix(1.0, 0.0, 0.0, 1.0, 27.8, 58.2)">
    <path d="M33.75 -45.35 L32.65 -45.8 30.95 -46.3 30.2 -50.3 Q31.95 -50.3 33.05 -48.5 34.05 -46.85 33.75 -45.35 M-10.25 -58.0 L-11.1 -55.0 -12.55 -55.65 -13.8 -56.3 Q-13.85 -56.9 -12.25 -57.7 -10.7 -58.55 -10.25 -58.0 M-24.3 -46.1 L-25.2 -45.7 -27.8 -44.1 Q-27.8 -45.9 -26.8 -47.75 -25.85 -49.65 -24.4 -50.7 L-24.4 -47.65 -24.3 -46.1" fill="url(#gradient0)" fill-rule="evenodd" stroke="none"/>
  </g>
  <defs>
    <radialGradient cx="0" cy="0" gradientTransform="matrix(0.0453, 0.0, 0.0, 0.0744, -0.15, 0.25)" gradientUnits="userSpaceOnUse" id="gradient0" r="819.2" spreadMethod="pad">
      <stop offset="0.043137254901960784" stop-color="#fffdf7"/>
      <stop offset="0.17254901960784313" stop-color="#fff177"/>
      <stop offset="0.44313725490196076" stop-color="#fbd526"/>
      <stop offset="0.5254901960784314" stop-color="#fbd226"/>
      <stop offset="0.7803921568627451" stop-color="#fa9a1b"/>
      <stop offset="1.0" stop-color="#cd1d1d"/>
    </radialGradient>
  </defs>
</svg>
