<?xml version="1.0" encoding="UTF-8" standalone="no"?>
<svg xmlns:xlink="http://www.w3.org/1999/xlink" height="109.95px" width="100.25px" xmlns="http://www.w3.org/2000/svg">
  <g transform="matrix(1.0, 0.0, 0.0, 1.0, 48.85, 52.5)">
    <path d="M28.05 -52.5 Q36.35 -52.85 42.7 -45.9 48.85 -39.25 50.8 -27.25 L50.8 -27.2 Q52.3 -18.35 49.95 -11.55 46.5 -1.8 38.8 -4.45 L38.75 -4.5 Q33.3 -6.0 31.35 -12.85 30.35 -15.95 29.35 -23.4 28.25 -28.3 25.75 -30.55 L25.65 -30.65 Q24.15 -31.75 22.1 -32.35 22.75 -29.45 22.75 -26.25 22.75 -15.5 15.15 -7.9 L15.1 -7.85 Q7.5 -0.25 -3.25 -0.25 -7.15 -0.25 -10.6 -1.2 -12.75 0.15 -15.5 0.25 -17.0 2.05 -17.7 4.1 L-17.7 4.15 Q-18.65 7.0 -17.6 9.85 -15.9 14.65 -10.9 16.9 L-10.85 16.9 Q-6.55 18.8 1.95 19.6 L15.45 19.1 Q22.05 18.0 28.3 15.75 L28.45 15.65 29.5 15.2 30.85 15.15 Q33.15 15.5 35.55 21.1 37.4 25.55 38.6 31.45 41.7 46.95 37.15 52.95 L36.6 53.45 36.05 53.8 35.8 53.95 Q32.2 55.85 25.6 56.8 L11.35 57.35 Q3.7 57.05 -3.95 55.65 -15.45 53.45 -23.75 49.15 -37.55 42.0 -43.5 32.25 -49.55 22.5 -48.75 8.65 -48.1 -2.35 -40.6 -11.05 -36.9 -15.35 -32.1 -18.45 -31.55 -21.15 -29.55 -23.1 L-29.1 -23.5 -29.25 -26.25 Q-29.25 -37.0 -21.65 -44.65 -14.0 -52.25 -3.25 -52.25 6.75 -52.25 14.0 -45.75 L16.9 -48.45 17.2 -48.65 Q21.9 -52.3 28.0 -52.5 L28.05 -52.5 M20.6 -43.7 L18.1 -41.25 19.6 -38.85 Q26.0 -38.4 29.65 -35.15 33.6 -31.95 35.2 -24.6 L35.3 -24.25 Q36.25 -17.45 37.1 -14.55 38.05 -11.2 40.5 -10.2 42.95 -9.8 44.25 -13.5 46.1 -19.05 44.9 -26.25 43.25 -36.25 38.25 -41.85 33.85 -46.65 28.2 -46.5 24.05 -46.4 20.85 -43.95 L20.6 -43.7" fill="#000000" fill-rule="evenodd" stroke="none"/>
    <path d="M27.05 -32.05 L27.05 -32.1 Q22.9 -35.55 14.35 -34.85 13.9 -34.8 13.6 -35.1 13.3 -35.35 13.25 -35.75 13.2 -36.2 13.5 -36.5 L14.2 -36.85 Q23.7 -37.65 28.35 -33.6 31.85 -30.7 33.3 -24.05 L33.3 -24.0 Q34.3 -16.95 35.15 -13.95 36.5 -9.4 39.95 -8.3 44.15 -7.15 46.15 -12.85 48.15 -18.8 46.9 -26.55 L46.9 -26.6 Q45.1 -37.25 39.7 -43.2 34.7 -48.7 28.15 -48.5 23.15 -48.35 19.4 -45.3 16.3 -42.85 12.95 -37.7 L12.3 -37.25 11.55 -37.4 Q11.2 -37.65 11.15 -38.05 11.05 -38.45 11.25 -38.8 14.8 -44.35 18.15 -46.9 L18.15 -46.85 Q22.45 -50.35 28.1 -50.5 35.5 -50.8 41.2 -44.55 47.0 -38.25 48.85 -26.9 50.25 -18.6 48.05 -12.2 45.35 -4.45 39.35 -6.4 34.9 -7.7 33.25 -13.4 32.3 -16.45 31.3 -23.7 L31.35 -23.65 Q30.05 -29.5 27.05 -32.05" fill="url(#gradient0)" fill-rule="evenodd" stroke="none"/>
    <path d="M16.75 -26.25 Q16.75 -34.55 10.9 -40.4 5.05 -46.25 -3.25 -46.25 -11.55 -46.25 -17.4 -40.4 -23.25 -34.55 -23.25 -26.25 -23.25 -17.95 -17.4 -12.1 -11.55 -6.25 -3.25 -6.25 5.05 -6.25 10.9 -12.1 16.75 -17.95 16.75 -26.25 M20.75 -26.25 Q20.75 -16.3 13.7 -9.3 6.7 -2.25 -3.25 -2.25 -13.2 -2.25 -20.25 -9.3 -27.25 -16.3 -27.25 -26.25 -27.25 -36.2 -20.25 -43.25 -13.2 -50.25 -3.25 -50.25 6.7 -50.25 13.7 -43.25 20.75 -36.2 20.75 -26.25" fill="url(#gradient1)" fill-rule="evenodd" stroke="none"/>
    <path d="M16.75 -26.25 Q16.75 -17.95 10.9 -12.1 5.05 -6.25 -3.25 -6.25 -11.55 -6.25 -17.4 -12.1 -23.25 -17.95 -23.25 -26.25 -23.25 -34.55 -17.4 -40.4 -11.55 -46.25 -3.25 -46.25 5.05 -46.25 10.9 -40.4 16.75 -34.55 16.75 -26.25" fill="url(#gradient2)" fill-rule="evenodd" stroke="none"/>
    <path d="M1.55 -29.05 Q-1.05 -29.05 -2.9 -30.9 -4.6 -32.55 -4.6 -35.2 -4.6 -37.8 -2.9 -39.65 -1.05 -41.35 1.55 -41.35 4.2 -41.35 5.85 -39.65 7.7 -37.8 7.7 -35.2 7.7 -32.55 5.85 -30.9 4.2 -29.05 1.55 -29.05" fill="url(#gradient3)" fill-rule="evenodd" stroke="none"/>
    <path d="M-15.3 -24.0 Q-10.8 -25.0 -8.4 -22.6 -6.0 -20.2 -7.05 -15.7 -8.0 -11.25 -11.75 -7.5 L-23.45 -19.2 Q-19.7 -22.95 -15.3 -24.0" fill="url(#gradient4)" fill-rule="evenodd" stroke="none"/>
    <path d="M-12.65 -19.45 Q-8.95 -15.8 -8.3 -11.3 -7.7 -6.7 -10.45 -4.0 -13.2 -1.25 -17.65 -1.9 -22.2 -2.55 -25.85 -6.2 -29.55 -9.9 -30.2 -14.45 -30.85 -18.95 -28.15 -21.7 -25.4 -24.4 -20.85 -23.85 -16.3 -23.1 -12.65 -19.45" fill="url(#gradient5)" fill-rule="evenodd" stroke="none"/>
    <path d="M-30.75 -16.95 L-29.25 -17.9 Q-27.85 -18.7 -25.9 -19.15 L-22.75 -19.4 Q-20.85 -19.15 -19.3 -18.1 L-16.7 -15.9 Q-15.2 -14.45 -14.5 -13.2 -13.6 -11.7 -13.35 -9.75 -12.75 -5.1 -14.85 -3.25 L-15.65 -2.5" fill="none" stroke="#636363" stroke-linecap="round" stroke-linejoin="round" stroke-width="0.5"/>
    <path d="M-22.75 -19.4 Q-20.85 -19.15 -19.3 -18.1 L-16.7 -15.9 Q-15.2 -14.45 -14.5 -13.2 -13.6 -11.7 -13.35 -9.75 -12.75 -5.1 -14.85 -3.25 -18.45 -0.15 -19.6 3.5 -20.75 7.0 -19.5 10.5 -17.55 16.1 -11.7 18.7 -7.15 20.75 1.75 21.6 L15.75 21.05 Q22.7 19.95 29.25 17.5 27.65 19.75 27.4 25.15 27.15 29.9 27.95 35.8 28.5 40.05 30.45 44.6 31.3 46.6 32.25 48.25 33.5 50.45 34.95 52.1 31.6 53.95 25.3 54.8 L11.4 55.35 Q3.9 55.05 -3.6 53.65 -14.75 51.55 -22.85 47.35 -36.05 40.5 -41.8 31.2 -47.5 21.95 -46.75 8.75 -46.15 -1.55 -39.1 -9.75 -34.9 -14.6 -29.25 -17.9 -27.85 -18.7 -25.9 -19.15 L-22.75 -19.4" fill="url(#gradient6)" fill-rule="evenodd" stroke="none"/>
    <path d="M2.55 31.45 Q-1.1 31.05 -3.55 30.15 -5.65 29.35 -5.65 28.85 L-3.6 28.6 2.55 28.65 16.35 28.05 Q22.95 27.55 28.85 26.3 L28.85 30.8 23.35 31.6 16.35 32.05 8.35 32.0 2.55 31.45" fill="url(#gradient7)" fill-rule="evenodd" stroke="none"/>
    <path d="M29.25 17.5 L30.3 17.05 Q31.85 17.5 33.7 21.85 35.5 26.15 36.65 31.85 39.5 46.2 35.5 51.75 L34.95 52.1 Q33.65 50.6 32.5 48.7 L31.95 48.9 23.35 50.2 9.65 50.65 4.85 50.35 Q-10.6 49.05 -21.7 43.05 L-21.6 42.55 -21.25 42.15 Q-16.25 44.55 -12.25 45.9 -4.0 48.7 4.95 49.35 L9.1 49.6 Q16.65 49.9 23.65 49.2 L31.5 47.95 31.95 47.85 32.05 47.85 30.45 44.6 Q28.5 40.05 27.95 35.8 27.15 29.9 27.4 25.15 27.65 19.75 29.25 17.5" fill="url(#gradient8)" fill-rule="evenodd" stroke="none"/>
    <path d="M22.15 46.5 L8.45 46.95 8.05 46.3 7.9 45.9 Q15.45 46.2 22.45 45.5 L30.3 44.25 30.75 45.2 Q28.15 45.95 22.15 46.5" fill="url(#gradient9)" fill-rule="evenodd" stroke="none"/>
  </g>
  <defs>
    <linearGradient gradientTransform="matrix(0.0234, 0.0, 0.0, 0.0272, 30.25, -28.25)" gradientUnits="userSpaceOnUse" id="gradient0" spreadMethod="pad" x1="-819.2" x2="819.2">
      <stop offset="0.0" stop-color="#d8ccc9"/>
      <stop offset="1.0" stop-color="#cbbcb4"/>
    </linearGradient>
    <linearGradient gradientTransform="matrix(0.0, -0.0293, 0.0293, 0.0, -3.25, -26.25)" gradientUnits="userSpaceOnUse" id="gradient1" spreadMethod="pad" x1="-819.2" x2="819.2">
      <stop offset="0.0" stop-color="#e74344"/>
      <stop offset="0.1411764705882353" stop-color="#d22424"/>
      <stop offset="0.2823529411764706" stop-color="#d22525"/>
      <stop offset="1.0" stop-color="#f84e4e"/>
    </linearGradient>
    <radialGradient cx="0" cy="0" gradientTransform="matrix(0.0312, 0.0, 0.0, 0.0312, -3.0, -16.6)" gradientUnits="userSpaceOnUse" id="gradient2" r="819.2" spreadMethod="pad">
      <stop offset="0.2196078431372549" stop-color="#7e0707"/>
      <stop offset="0.5686274509803921" stop-color="#dc1414"/>
      <stop offset="0.8745098039215686" stop-color="#c91212"/>
    </radialGradient>
    <radialGradient cx="0" cy="0" gradientTransform="matrix(0.0098, 0.0, 0.0, 0.0098, 1.55, -35.2)" gradientUnits="userSpaceOnUse" id="gradient3" r="819.2" spreadMethod="pad">
      <stop offset="0.0" stop-color="#ffffff"/>
      <stop offset="0.3411764705882353" stop-color="#ffffff"/>
      <stop offset="0.7529411764705882" stop-color="#ffffff" stop-opacity="0.0"/>
      <stop offset="1.0" stop-color="#ffffff" stop-opacity="0.0"/>
    </radialGradient>
    <radialGradient cx="0" cy="0" gradientTransform="matrix(0.0082, -0.0045, 0.0031, 0.0057, -13.9, -19.75)" gradientUnits="userSpaceOnUse" id="gradient4" r="819.2" spreadMethod="pad">
      <stop offset="0.0" stop-color="#c2bdbc"/>
      <stop offset="1.0" stop-color="#9a938f"/>
    </radialGradient>
    <linearGradient gradientTransform="matrix(-0.0093, -0.0126, 0.0109, -0.008, -19.25, -12.8)" gradientUnits="userSpaceOnUse" id="gradient5" spreadMethod="pad" x1="-819.2" x2="819.2">
      <stop offset="0.0" stop-color="#9a938f"/>
      <stop offset="0.6549019607843137" stop-color="#c2bdbc"/>
      <stop offset="1.0" stop-color="#a59f9c"/>
    </linearGradient>
    <linearGradient gradientTransform="matrix(0.0499, 0.0, 0.0, 0.0457, -5.95, 18.0)" gradientUnits="userSpaceOnUse" id="gradient6" spreadMethod="pad" x1="-819.2" x2="819.2">
      <stop offset="0.0" stop-color="#d5c9c6"/>
      <stop offset="1.0" stop-color="#e3dddb"/>
    </linearGradient>
    <linearGradient gradientTransform="matrix(0.0342, 0.0, 0.0, 0.0024, 22.35, 28.85)" gradientUnits="userSpaceOnUse" id="gradient7" spreadMethod="pad" x1="-819.2" x2="819.2">
      <stop offset="0.0" stop-color="#ffffff" stop-opacity="0.0"/>
      <stop offset="1.0" stop-color="#ffffff" stop-opacity="0.3529412"/>
    </linearGradient>
    <linearGradient gradientTransform="matrix(0.0364, 0.0, 0.0, 0.0214, 8.05, 34.55)" gradientUnits="userSpaceOnUse" id="gradient8" spreadMethod="pad" x1="-819.2" x2="819.2">
      <stop offset="0.0" stop-color="#c7b5af"/>
      <stop offset="1.0" stop-color="#d3c6c0"/>
    </linearGradient>
    <linearGradient gradientTransform="matrix(0.0364, 0.0, 0.0, 0.0214, 6.85, 30.85)" gradientUnits="userSpaceOnUse" id="gradient9" spreadMethod="pad" x1="-819.2" x2="819.2">
      <stop offset="0.0" stop-color="#c7b5af"/>
      <stop offset="1.0" stop-color="#d3c6c0"/>
    </linearGradient>
  </defs>
</svg>
