<?xml version="1.0" encoding="UTF-8" standalone="no"?>
<svg xmlns:xlink="http://www.w3.org/1999/xlink" height="2883.05px" width="28.6px" xmlns="http://www.w3.org/2000/svg">
  <g transform="matrix(1.0, 0.0, 0.0, 1.0, 14.3, 1441.55)">
    <path d="M8.9 -1234.95 L9.05 -1226.8 Q12.8 -1015.15 12.8 -713.1 L12.8 711.9 12.8 713.3 Q12.8 1013.95 9.05 1226.75 L8.9 1234.9 7.55 1300.9 Q4.3 1440.0 0.0 1440.0 -4.3 1440.0 -7.55 1300.9 L-8.9 1234.9 -9.1 1226.75 Q-12.8 1013.95 -12.8 713.3 L-12.8 711.9 -12.8 -713.05 Q-12.8 -1014.0 -9.1 -1226.8 L-8.9 -1234.95 -7.55 -1300.95 Q-4.3 -1440.05 0.0 -1440.05 4.3 -1440.05 7.55 -1300.95 L8.9 -1234.95" fill="#ffffff" fill-rule="evenodd" stroke="none"/>
    <path d="M8.9 -1234.95 L7.55 -1300.95 Q4.3 -1440.05 0.0 -1440.05 -4.3 -1440.05 -7.55 -1300.95 L-8.9 -1234.95 -9.1 -1226.8 Q-12.8 -1014.0 -12.8 -713.05 L-12.8 711.9 -12.8 713.3 Q-12.8 1013.95 -9.1 1226.75 L-8.9 1234.9 -7.55 1300.9 Q-4.3 1440.0 0.0 1440.0 4.3 1440.0 7.55 1300.9 L8.9 1234.9 9.05 1226.75 Q12.8 1013.95 12.8 713.3 L12.8 711.9 12.8 -713.1 Q12.8 -1015.15 9.05 -1226.8 L8.9 -1234.95 Z" fill="none" stroke="#00ffff" stroke-linecap="round" stroke-linejoin="round" stroke-width="3.0"/>
  </g>
</svg>
