<?xml version="1.0" encoding="UTF-8" standalone="no"?>
<svg xmlns:xlink="http://www.w3.org/1999/xlink" height="43.9px" width="41.9px" xmlns="http://www.w3.org/2000/svg">
  <g transform="matrix(1.0, 0.0, 0.0, 1.0, 3.0, -5.7)">
    <path d="M10.6 6.5 Q13.0 4.7 16.65 6.85 19.0 8.25 24.65 15.3 31.0 23.2 34.9 30.4 37.95 36.05 38.7 42.25 39.25 47.0 38.4 49.5 38.15 50.25 35.4 46.35 31.25 40.6 26.9 37.0 L21.85 33.15 15.5 28.55 Q11.4 25.8 7.5 19.1 6.0 16.5 7.35 14.85 9.2 12.7 8.85 10.15 8.6 7.95 10.6 6.5" fill="url(#gradient0)" fill-rule="evenodd" stroke="none"/>
    <path d="M15.7 18.5 Q15.0 19.25 13.95 19.25 12.9 19.25 12.15 18.5 11.45 17.8 11.45 16.8 11.45 15.8 12.15 15.05 12.9 14.35 13.95 14.35 15.0 14.35 15.7 15.05 16.45 15.8 16.45 16.8 16.45 17.8 15.7 18.5" fill="#000000" fill-rule="evenodd" stroke="none"/>
    <path d="M14.1 18.5 Q10.3 21.25 5.95 22.7 1.75 24.15 -2.25 24.6 -2.9 23.25 -3.0 21.75 0.95 21.4 5.05 20.0 L9.25 18.25 12.4 16.15 Q14.1 14.85 14.85 16.15 15.65 17.4 14.1 18.5" fill="#caae60" fill-rule="evenodd" stroke="none"/>
  </g>
  <defs>
    <radialGradient cx="0" cy="0" fx="-1456.0" fy="0" gradientTransform="matrix(0.0066, -0.0051, 0.0131, 0.0166, 24.65, 22.2)" gradientUnits="userSpaceOnUse" id="gradient0" r="819.2" spreadMethod="pad">
      <stop offset="0.0" stop-color="#52403a"/>
      <stop offset="1.0" stop-color="#333333"/>
    </radialGradient>
  </defs>
</svg>
