<?xml version="1.0" encoding="UTF-8" standalone="no"?>
<svg xmlns:xlink="http://www.w3.org/1999/xlink" height="43.4px" width="21.55px" xmlns="http://www.w3.org/2000/svg">
  <g transform="matrix(1.0, 0.0, 0.0, 1.0, 33.95, 19.3)">
    <path d="M-25.05 -16.8 Q-25.05 -15.75 -25.8 -15.05 -26.5 -14.3 -27.55 -14.3 -28.6 -14.3 -29.35 -15.05 -30.05 -15.75 -30.05 -16.8 -30.05 -17.85 -29.35 -18.6 -28.6 -19.3 -27.55 -19.3 -26.5 -19.3 -25.8 -18.6 -25.05 -17.85 -25.05 -16.8" fill="#0c3649" fill-rule="evenodd" stroke="none"/>
    <path d="M-27.0 -17.75 Q-25.75 -16.95 -27.3 -14.2 -32.95 -4.45 -29.5 5.55 -26.05 15.55 -15.65 19.8 L-12.9 20.85 -12.4 24.1 -17.15 22.5 Q-28.75 17.7 -32.5 6.6 -36.3 -4.45 -30.15 -15.35 -28.25 -18.6 -27.0 -17.75" fill="#caae60" fill-rule="evenodd" stroke="none"/>
  </g>
</svg>
