<?xml version="1.0" encoding="UTF-8" standalone="no"?>
<svg xmlns:xlink="http://www.w3.org/1999/xlink" height="168.0px" width="29.95px" xmlns="http://www.w3.org/2000/svg">
  <g transform="matrix(1.0, 0.0, 0.0, 1.0, 21.85, 83.5)">
    <path d="M5.35 -75.95 Q1.55 -65.9 0.1 -49.1 L0.1 -49.05 Q-0.8 -39.1 -1.1 -18.95 -1.5 9.95 -0.4 29.45 L-0.3 30.0 2.0 30.0 Q3.25 30.0 4.15 30.9 5.0 31.75 5.0 33.0 L5.0 34.0 Q5.0 35.25 4.15 36.15 3.25 37.0 2.0 37.0 L0.25 37.0 0.25 37.05 Q1.75 51.7 4.65 62.45 L6.9 69.4 7.4 70.75 7.4 70.8 Q8.25 73.3 8.1 74.2 8.25 75.4 7.1 76.8 7.15 79.25 5.75 81.2 L5.4 81.75 Q3.05 84.45 -0.75 84.5 -6.65 84.45 -9.65 79.9 L-9.6 79.95 Q-11.4 77.5 -12.85 71.3 L-14.5 65.0 Q-16.3 64.15 -17.1 62.3 L-17.1 62.35 -17.35 61.7 Q-20.6 57.5 -21.65 54.3 -22.1 53.15 -21.55 52.1 -21.1 51.0 -19.95 50.55 L-19.4 50.3 -19.0 50.1 -17.25 49.35 -17.3 49.35 -15.7 48.65 -15.6 48.65 -15.35 48.55 -15.45 48.55 -14.55 48.15 -12.35 48.1 Q-11.55 48.35 -11.05 49.0 L-12.55 37.6 -12.6 37.0 -15.0 37.0 Q-16.25 37.0 -17.1 36.15 -18.0 35.25 -18.0 34.0 L-18.0 33.0 Q-18.0 31.75 -17.1 30.9 -16.25 30.0 -15.0 30.0 L-13.15 30.0 -13.15 29.95 Q-13.6 20.65 -13.75 5.85 -13.95 -9.05 -13.75 -19.05 -13.45 -36.7 -12.65 -47.35 -11.05 -67.5 -7.0 -76.8 -5.75 -79.1 -2.7 -80.95 -0.3 -82.45 2.95 -83.15 L6.3 -83.25 Q6.9 -82.4 6.6 -80.5 L5.35 -75.95 M-6.1 69.65 L-6.05 69.65 Q-5.0 74.15 -3.8 76.05 L-3.25 76.7 -3.95 75.25 -3.95 75.3 -4.85 73.1 -6.05 69.65 -6.15 69.45 -6.1 69.65" fill="#000000" fill-rule="evenodd" stroke="none"/>
    <path d="M3.55 75.05 L3.8 75.35 Q4.55 77.9 3.1 79.75 L3.1 79.8 Q1.65 81.5 -0.75 81.5 -5.0 81.5 -7.15 78.25 -8.65 76.05 -9.95 70.6 -11.65 63.6 -12.6 61.2 L-12.6 60.8 -12.3 60.55 -11.95 60.55 -11.65 60.85 Q-10.75 63.3 -9.0 70.35 -7.75 75.55 -6.3 77.7 -4.4 80.5 -0.75 80.5 1.15 80.5 2.3 79.15 L2.35 79.15 Q3.45 77.65 2.85 75.65 L2.85 75.3 3.15 75.05 3.55 75.05" fill="#847342" fill-rule="evenodd" stroke="none"/>
  </g>
</svg>
