<?xml version="1.0" encoding="UTF-8" standalone="no"?>
<svg xmlns:xlink="http://www.w3.org/1999/xlink" height="157.65px" width="20.1px" xmlns="http://www.w3.org/2000/svg">
  <g transform="matrix(1.0, 0.0, 0.0, 1.0, 15.0, 80.6)">
    <path d="M1.75 63.2 L4.05 70.45 4.55 71.75 5.1 74.0 Q5.05 74.85 3.5 76.05 1.95 77.25 1.15 77.0 -0.05 76.65 -1.25 74.0 L-2.05 72.05 Q-8.05 56.1 -10.0 33.0 L-3.2 32.4 Q-1.7 50.5 1.75 63.2" fill="url(#gradient0)" fill-rule="evenodd" stroke="none"/>
    <path d="M-4.3 -75.75 Q-2.8 -77.8 -1.15 -78.8 1.55 -80.45 4.05 -80.6 1.6 -79.3 -0.15 -76.65 -1.3 -74.9 -1.9 -73.05 L-4.3 -75.75" fill="#e6e6e6" fill-rule="evenodd" stroke="none"/>
    <path d="M-6.6 33.0 L-10.0 33.0 Q-10.6 23.3 -10.75 5.8 -10.95 -9.05 -10.75 -19.0 -10.45 -38.35 -9.85 -46.55 -8.5 -66.35 -4.7 -74.9 L-4.3 -75.75 -1.9 -73.05 Q-4.95 -62.75 -6.25 -46.9 -7.1 -36.2 -7.35 -19.05 -7.55 -6.7 -7.35 7.3 -7.15 22.9 -6.6 33.0" fill="url(#gradient1)" fill-rule="evenodd" stroke="none"/>
    <path d="M4.05 -80.6 L4.15 -80.6 2.55 -77.0 Q-1.4 -66.5 -2.9 -49.35 -3.8 -39.3 -4.1 -19.0 -4.55 12.6 -3.2 33.0 L-6.6 33.0 Q-7.15 22.9 -7.35 7.3 -7.55 -6.7 -7.35 -19.05 -7.1 -36.2 -6.25 -46.9 -4.95 -62.75 -1.9 -73.05 -1.3 -74.9 -0.15 -76.65 1.6 -79.3 4.05 -80.6" fill="url(#gradient2)" fill-rule="evenodd" stroke="none"/>
    <path d="M-3.4 27.95 L-3.2 32.45 -10.15 32.7 -10.35 28.2 -3.4 27.95" fill="url(#gradient3)" fill-rule="evenodd" stroke="none"/>
    <path d="M-11.0 33.0 L-11.0 32.0 -2.0 32.0 -2.0 33.0 -11.0 33.0" fill="#a3a3a3" fill-rule="evenodd" stroke="none"/>
    <path d="M-2.0 34.0 L-2.0 35.0 -11.0 35.0 -11.0 34.0 -2.0 34.0" fill="#7b7b7b" fill-rule="evenodd" stroke="none"/>
    <path d="M-2.0 33.0 L2.0 33.0 2.0 34.0 -2.0 34.0 -11.0 34.0 -15.0 34.0 -15.0 33.0 -11.0 33.0 -2.0 33.0" fill="url(#gradient4)" fill-rule="evenodd" stroke="none"/>
    <path d="M-1.25 74.0 L0.2 73.05 Q1.25 73.55 1.95 73.05 2.7 72.6 2.6 71.4 L4.05 70.45 4.55 71.75 5.1 74.0 Q5.05 74.85 3.5 76.05 1.95 77.25 1.15 77.0 -0.05 76.65 -1.25 74.0" fill="url(#gradient5)" fill-rule="evenodd" stroke="none"/>
    <path d="M4.05 70.45 L2.6 71.4 Q2.7 72.6 1.95 73.05 1.25 73.55 0.2 73.05 L-1.25 74.0" fill="none" stroke="#201b8c" stroke-linecap="round" stroke-linejoin="round" stroke-width="1.0"/>
    <path d="M0.0 68.3 L-2.25 68.1 -0.75 66.45 1.4 66.7 0.0 68.3 M-6.15 38.0 L-4.05 38.65 -5.8 39.95 -7.95 39.35 -6.15 38.0 M-7.0 46.9 L-5.2 45.55 -3.1 46.2 -4.85 47.5 -7.0 46.9 M-4.25 61.15 L-2.55 59.7 -0.4 60.2 -2.05 61.6 -4.25 61.15 M-1.9 53.3 L-3.55 54.7 -5.75 54.25 -4.0 52.8 -1.9 53.3" fill="#beb072" fill-rule="evenodd" stroke="none"/>
  </g>
  <defs>
    <linearGradient gradientTransform="matrix(-0.0034, -0.0242, 0.027, -0.0037, -2.7, 54.75)" gradientUnits="userSpaceOnUse" id="gradient0" spreadMethod="pad" x1="-819.2" x2="819.2">
      <stop offset="0.0" stop-color="#252f5a"/>
      <stop offset="0.5019607843137255" stop-color="#40579b"/>
      <stop offset="1.0" stop-color="#252f5a"/>
    </linearGradient>
    <linearGradient gradientTransform="matrix(0.0, -0.0648, 0.0668, 0.0, -6.4, -21.75)" gradientUnits="userSpaceOnUse" id="gradient1" spreadMethod="pad" x1="-819.2" x2="819.2">
      <stop offset="0.0" stop-color="#bfbfbf"/>
      <stop offset="0.5215686274509804" stop-color="#eaeaea"/>
      <stop offset="1.0" stop-color="#bfbfbf"/>
    </linearGradient>
    <linearGradient gradientTransform="matrix(0.0071, 0.0, 0.0, 0.0693, -1.65, -23.8)" gradientUnits="userSpaceOnUse" id="gradient2" spreadMethod="pad" x1="-819.2" x2="819.2">
      <stop offset="0.0" stop-color="#808080"/>
      <stop offset="1.0" stop-color="#9b9b9b"/>
    </linearGradient>
    <linearGradient gradientTransform="matrix(1.0E-4, 0.0026, -0.0027, 1.0E-4, -6.8, 30.15)" gradientUnits="userSpaceOnUse" id="gradient3" spreadMethod="pad" x1="-819.2" x2="819.2">
      <stop offset="0.09803921568627451" stop-color="#d9ce9d"/>
      <stop offset="0.13725490196078433" stop-color="#c7b978"/>
      <stop offset="1.0" stop-color="#938357"/>
    </linearGradient>
    <linearGradient gradientTransform="matrix(0.0104, 0.0, 0.0, 6.0E-4, -6.5, 33.5)" gradientUnits="userSpaceOnUse" id="gradient4" spreadMethod="pad" x1="-819.2" x2="819.2">
      <stop offset="0.0" stop-color="#919191"/>
      <stop offset="0.15294117647058825" stop-color="#808080"/>
      <stop offset="0.4470588235294118" stop-color="#cdcdcd"/>
      <stop offset="0.6196078431372549" stop-color="#cdcdcd"/>
      <stop offset="0.8313725490196079" stop-color="#808080"/>
      <stop offset="1.0" stop-color="#919191"/>
    </linearGradient>
    <radialGradient cx="0" cy="0" gradientTransform="matrix(0.005, 0.0, 0.0, 0.005, 2.75, 73.0)" gradientUnits="userSpaceOnUse" id="gradient5" r="819.2" spreadMethod="pad">
      <stop offset="0.0" stop-color="#ffffff"/>
      <stop offset="0.2" stop-color="#d5d5d5"/>
      <stop offset="0.5215686274509804" stop-color="#a3a3a3"/>
      <stop offset="1.0" stop-color="#808080"/>
    </radialGradient>
  </defs>
</svg>
