<?xml version="1.0" encoding="UTF-8" standalone="no"?>
<svg xmlns:xlink="http://www.w3.org/1999/xlink" height="151.5px" width="27.0px" xmlns="http://www.w3.org/2000/svg">
  <g transform="matrix(1.0, 0.0, 0.0, 1.0, 14.5, 78.5)">
    <path d="M10.65 -70.85 Q5.1 -55.85 2.55 -32.35 -0.35 -5.85 2.0 18.5 3.85 19.65 4.75 21.55 5.05 22.2 5.0 22.9 L6.1 24.35 6.15 24.45 6.4 24.95 6.45 25.0 6.65 25.55 Q7.35 27.3 7.1 30.3 6.85 32.85 6.05 34.45 L5.3 36.05 5.25 37.1 5.2 37.45 4.95 38.6 4.8 39.1 4.6 40.7 Q4.8 44.05 5.35 47.8 L5.45 48.35 5.5 48.45 Q6.7 56.45 9.4 64.2 L9.35 64.1 10.15 66.2 10.3 67.0 Q11.05 69.5 5.5 71.85 -0.05 74.2 -1.35 71.85 L-2.0 70.65 -2.35 68.9 -2.45 68.55 -8.4 41.65 -9.35 38.8 Q-9.65 38.0 -9.35 37.2 -9.05 36.35 -8.35 35.9 L-7.75 35.5 -8.95 35.3 -10.05 34.4 -12.25 31.05 -12.25 31.1 -14.05 28.4 Q-14.6 27.65 -14.45 26.75 -14.4 25.85 -13.7 25.2 L-11.7 22.95 -11.75 23.05 Q-10.8 21.75 -10.5 20.85 -12.05 -3.95 -9.75 -27.5 -7.4 -51.15 -1.4 -70.7 L-1.0 -71.45 Q1.25 -74.6 4.3 -76.4 6.65 -77.8 9.45 -78.45 L11.2 -78.2 Q12.05 -77.75 12.35 -76.85 12.7 -75.95 12.35 -75.05 L10.65 -70.85" fill="#000000" fill-rule="evenodd" stroke="none"/>
    <path d="M8.3 -71.75 Q2.65 -56.5 0.05 -32.65 -2.95 -5.1 -0.35 20.1 1.65 20.9 2.5 22.65 L2.05 23.15 Q3.85 25.15 4.3 26.4 4.8 27.75 4.6 30.05 4.4 32.2 3.75 33.5 L2.65 35.6 2.8 36.85 2.5 38.0 Q2.15 39.4 2.1 40.8 2.3 44.25 2.9 48.15 L3.0 48.8 Q4.25 57.05 7.0 65.0 L7.8 67.1 Q7.85 68.15 4.5 69.55 1.2 70.95 0.45 70.15 L0.05 68.0 0.0 68.0 -6.0 41.0 -7.0 38.0 -5.35 36.5 Q-4.8 35.6 -5.0 34.0 L-4.8 33.95 Q-5.4 32.3 -7.0 32.0 L-8.0 33.0 -10.2 29.7 -12.0 27.0 -9.75 24.5 Q-8.2 22.4 -8.0 21.0 L-8.0 20.8 Q-9.55 -3.85 -7.25 -27.25 -4.95 -50.65 1.0 -70.0 2.95 -72.7 5.6 -74.25 7.6 -75.45 10.0 -76.0 L8.3 -71.75" fill="#000000" fill-rule="evenodd" stroke="none"/>
    <path d="M1.9 23.0 Q3.85 25.1 4.3 26.4 4.8 27.75 4.6 30.05 4.4 32.2 3.75 33.5 L2.55 35.7 1.1 37.9 Q1.0 38.05 0.1 37.4 L-0.65 36.6 Q0.15 35.9 1.15 34.1 L2.0 32.45 Q3.1 29.2 2.4 27.05 1.75 25.4 0.55 24.4 L1.9 23.0" fill="url(#gradient0)" fill-rule="evenodd" stroke="none"/>
    <path d="M1.65 23.35 Q3.5 25.55 3.85 26.55 4.35 27.9 4.0 30.3 3.7 32.7 2.9 34.05 L0.95 37.15 0.1 36.65 Q2.4 33.9 3.0 30.8 3.4 28.45 2.9 26.9 L2.9 26.85 Q2.5 25.75 0.9 24.0 L1.65 23.35" fill="url(#gradient1)" fill-rule="evenodd" stroke="none"/>
    <path d="M-5.7 26.25 Q-4.15 23.8 -0.35 21.0 L1.5 30.85 Q1.55 31.4 -4.6 34.9 -5.0 32.4 -7.0 32.0 -7.25 28.8 -5.7 26.25" fill="url(#gradient2)" fill-rule="evenodd" stroke="none"/>
    <path d="M3.0 48.8 Q4.25 57.05 7.0 65.0 L0.0 68.0 -6.0 41.0 -0.8 38.45 1.1 49.15 3.0 48.8" fill="url(#gradient3)" fill-rule="evenodd" stroke="none"/>
    <path d="M0.95 48.45 L-0.8 38.45 2.0 37.0 Q1.95 42.1 2.9 48.15 L0.95 48.45" fill="#3e1e1e" fill-rule="evenodd" stroke="none"/>
    <path d="M1.1 49.15 L0.95 48.45 2.9 48.15 3.0 48.8 1.1 49.15" fill="#804040" fill-rule="evenodd" stroke="none"/>
    <path d="M-4.9 46.0 L-2.0 46.0 -2.0 47.5 -4.55 47.5 -4.9 46.0" fill="url(#gradient4)" fill-rule="evenodd" stroke="none"/>
    <path d="M-3.8 51.0 L-1.0 51.0 -1.0 52.5 -3.45 52.5 -3.8 51.0" fill="url(#gradient5)" fill-rule="evenodd" stroke="none"/>
    <path d="M0.0 57.5 L-2.35 57.5 -2.35 57.4 -2.6 56.0 0.0 56.0 0.0 57.5" fill="url(#gradient6)" fill-rule="evenodd" stroke="none"/>
    <path d="M0.9 62.5 L-1.2 62.5 -1.55 61.0 0.9 61.0 0.9 62.5" fill="url(#gradient7)" fill-rule="evenodd" stroke="none"/>
    <path d="M2.0 35.0 L-7.0 38.0 -5.35 36.5 Q-4.8 35.6 -5.0 34.0 L1.4 31.9 Q0.45 32.7 1.15 33.95 L2.0 35.0" fill="url(#gradient8)" fill-rule="evenodd" stroke="none"/>
    <path d="M2.0 38.0 L-6.0 41.0 -7.0 38.0 2.0 35.0 2.0 38.0" fill="url(#gradient9)" fill-rule="evenodd" stroke="none"/>
    <path d="M7.8 67.1 Q7.85 68.15 4.5 69.55 1.2 70.95 0.45 70.15 L-0.05 67.6 1.8 67.1 1.55 65.9 Q1.85 65.15 2.9 64.75 L4.65 64.8 5.0 65.85 6.95 64.9 7.8 67.1" fill="url(#gradient10)" fill-rule="evenodd" stroke="none"/>
    <path d="M3.8 65.9 L3.65 66.25 3.3 66.4 2.95 66.25 2.8 65.9 Q2.8 65.7 2.95 65.55 3.1 65.4 3.3 65.4 3.5 65.4 3.65 65.55 L3.8 65.9" fill="#434343" fill-rule="evenodd" stroke="none"/>
    <path d="M0.35 44.45 Q0.3 41.45 -0.65 35.9 L-2.45 32.1 0.25 32.8 1.95 43.65 0.35 44.45" fill="#000000" fill-opacity="0.15294118" fill-rule="evenodd" stroke="none"/>
    <path d="M1.35 34.05 Q2.95 35.15 2.8 36.85 L2.5 38.0 Q2.0 39.85 2.1 41.65 L2.3 48.25 0.95 48.45 0.2 44.25 0.2 43.05 Q0.2 38.9 0.6 37.45 L0.65 37.25 Q1.0 36.25 0.2 35.7 -2.0 34.15 -2.0 32.05 -2.0 31.85 -1.0 31.8 L0.0 32.0 Q0.1 33.15 1.35 34.05" fill="url(#gradient11)" fill-rule="evenodd" stroke="none"/>
    <path d="M2.3 36.8 L2.05 37.85 Q1.5 39.8 1.6 41.7 L1.85 48.25 0.95 48.4 0.7 47.1 0.7 43.0 Q0.5 39.65 1.1 37.6 L1.15 37.4 Q1.6 36.05 0.5 35.3 -1.45 33.9 -1.5 32.05 -1.45 31.9 -1.0 31.9 L-0.5 32.0 Q-0.4 33.4 1.05 34.45 2.4 35.4 2.3 36.8" fill="url(#gradient12)" fill-rule="evenodd" stroke="none"/>
    <path d="M10.0 -76.0 Q3.05 -60.0 0.05 -32.65 -2.95 -4.9 -0.3 20.5 L0.35 24.75 Q-2.05 23.6 -4.4 25.65 -6.0 27.1 -6.0 29.3 L-5.8 30.7 -6.0 31.0 -8.0 33.0 -10.2 29.7 Q-7.2 27.05 -5.0 22.0 -6.2 -7.45 -4.1 -28.85 -1.7 -54.15 5.6 -74.25 7.6 -75.45 10.0 -76.0" fill="url(#gradient13)" fill-rule="evenodd" stroke="none"/>
    <path d="M5.6 -74.25 Q-1.7 -54.15 -4.1 -28.85 -6.2 -7.6 -5.0 21.55 L-8.0 20.8 Q-9.55 -3.85 -7.25 -27.25 -4.95 -50.65 1.0 -70.0 2.95 -72.7 5.6 -74.25" fill="url(#gradient14)" fill-rule="evenodd" stroke="none"/>
    <path d="M-8.0 21.0 L-8.0 20.8 -5.0 21.55 -5.0 22.0 Q-7.2 27.05 -10.2 29.7 L-12.0 27.0 -9.75 24.5 Q-8.2 22.4 -8.0 21.0" fill="url(#gradient15)" fill-rule="evenodd" stroke="none"/>
    <path d="M1.0 -70.0 Q2.95 -72.7 5.6 -74.25 7.6 -75.45 10.0 -76.0 L8.05 -71.1 Q4.8 -69.6 3.55 -68.15 L1.0 -69.95 1.0 -70.0" fill="#b8b8b8" fill-rule="evenodd" stroke="none"/>
    <path d="M0.35 24.75 Q-0.75 23.05 -0.75 21.6 -0.75 20.1 -0.35 20.1 1.65 20.9 2.5 22.65 L0.35 24.75" fill="url(#gradient16)" fill-rule="evenodd" stroke="none"/>
    <path d="M1.85 31.75 Q0.85 32.8 -0.6 32.8 -2.1 32.8 -3.15 31.75 -4.1 30.75 -4.1 29.3 -4.1 27.85 -3.15 26.8 -2.1 25.8 -0.6 25.8 0.85 25.8 1.85 26.8 2.9 27.85 2.9 29.3 2.9 30.75 1.85 31.75" fill="url(#gradient17)" fill-rule="evenodd" stroke="none"/>
    <path d="M1.85 31.75 Q0.85 32.8 -0.6 32.8 -2.1 32.8 -3.15 31.75 -4.1 30.75 -4.1 29.3 -4.1 27.85 -3.15 26.8 -2.1 25.8 -0.6 25.8 0.85 25.8 1.85 26.8 2.9 27.85 2.9 29.3 2.9 30.75 1.85 31.75 Z" fill="none" stroke="#2e2e2e" stroke-linecap="round" stroke-linejoin="round" stroke-width="0.25"/>
    <path d="M0.4 29.25 L0.1 30.0 -0.65 30.3 Q-1.1 30.3 -1.4 30.0 L-1.7 29.25 -1.4 28.55 Q-1.1 28.2 -0.65 28.2 -0.2 28.2 0.1 28.55 L0.4 29.25" fill="url(#gradient18)" fill-rule="evenodd" stroke="none"/>
    <path d="M0.4 29.25 L0.1 28.55 Q-0.2 28.2 -0.65 28.2 -1.1 28.2 -1.4 28.55 L-1.7 29.25 -1.4 30.0 Q-1.1 30.3 -0.65 30.3 L0.1 30.0 0.4 29.25 M1.6 29.25 Q1.6 30.2 0.95 30.85 0.3 31.5 -0.65 31.5 -1.6 31.5 -2.25 30.85 -2.9 30.2 -2.9 29.25 -2.9 28.3 -2.25 27.65 -1.6 27.0 -0.65 27.0 0.3 27.0 0.95 27.65 1.6 28.3 1.6 29.25" fill="url(#gradient19)" fill-rule="evenodd" stroke="none"/>
    <path d="M-7.85 30.85 L-8.0 30.5 -7.85 30.15 Q-7.7 30.0 -7.5 30.0 -7.3 30.0 -7.15 30.15 -7.0 30.3 -7.0 30.5 L-7.15 30.85 -7.5 31.0 -7.85 30.85" fill="#b5b5b5" fill-rule="evenodd" stroke="none"/>
    <path d="M-7.85 30.85 L-8.0 30.5 -7.85 30.15 Q-7.7 30.0 -7.5 30.0 -7.3 30.0 -7.15 30.15 -7.0 30.3 -7.0 30.5 L-7.15 30.85 -7.5 31.0 -7.85 30.85 Z" fill="none" stroke="#2b2b2b" stroke-linecap="round" stroke-linejoin="round" stroke-width="0.25"/>
    <path d="M1.85 22.35 Q2.05 23.0 1.75 23.4 1.45 23.8 0.75 23.75 L0.05 23.6 Q-1.15 22.75 -0.55 20.5 0.15 20.7 0.95 21.2 1.6 21.75 1.85 22.35" fill="url(#gradient20)" fill-rule="evenodd" stroke="none"/>
    <path d="M2.15 25.4 Q3.05 26.1 3.35 26.75 3.7 27.4 3.75 28.8" fill="none" stroke="url(#gradient21)" stroke-linecap="round" stroke-linejoin="round" stroke-width="1.5"/>
  </g>
  <defs>
    <linearGradient gradientTransform="matrix(4.0E-4, 0.0092, -0.0102, 4.0E-4, 1.8, 30.75)" gradientUnits="userSpaceOnUse" id="gradient0" spreadMethod="pad" x1="-819.2" x2="819.2">
      <stop offset="0.25098039215686274" stop-color="#dfbbda"/>
      <stop offset="0.6666666666666666" stop-color="#2b1a51"/>
    </linearGradient>
    <linearGradient gradientTransform="matrix(-2.0E-4, 0.0091, -0.0089, -1.0E-4, 2.75, 31.35)" gradientUnits="userSpaceOnUse" id="gradient1" spreadMethod="pad" x1="-819.2" x2="819.2">
      <stop offset="0.3137254901960784" stop-color="#e194eb"/>
      <stop offset="0.6392156862745098" stop-color="#4a1283"/>
    </linearGradient>
    <linearGradient gradientTransform="matrix(-0.0027, -0.0063, 0.0078, -0.0034, -2.55, 27.95)" gradientUnits="userSpaceOnUse" id="gradient2" spreadMethod="pad" x1="-819.2" x2="819.2">
      <stop offset="0.0" stop-color="#4e4e4e"/>
      <stop offset="0.8156862745098039" stop-color="#232323"/>
    </linearGradient>
    <linearGradient gradientTransform="matrix(0.0048, -0.001, 0.0039, 0.0185, 0.5, 52.5)" gradientUnits="userSpaceOnUse" id="gradient3" spreadMethod="pad" x1="-819.2" x2="819.2">
      <stop offset="0.058823529411764705" stop-color="#472323"/>
      <stop offset="0.49019607843137253" stop-color="#723838"/>
      <stop offset="1.0" stop-color="#4b1f1f"/>
    </linearGradient>
    <linearGradient gradientTransform="matrix(0.0018, 0.0, 0.0, 6.0E-4, -3.45, 46.75)" gradientUnits="userSpaceOnUse" id="gradient4" spreadMethod="pad" x1="-819.2" x2="819.2">
      <stop offset="0.0" stop-color="#7a3030"/>
      <stop offset="0.8392156862745098" stop-color="#773333"/>
      <stop offset="0.8941176470588236" stop-color="#3d1818"/>
    </linearGradient>
    <linearGradient gradientTransform="matrix(0.0017, 0.0, 0.0, 9.0E-4, -2.4, 51.75)" gradientUnits="userSpaceOnUse" id="gradient5" spreadMethod="pad" x1="-819.2" x2="819.2">
      <stop offset="0.0" stop-color="#7a3030"/>
      <stop offset="0.8392156862745098" stop-color="#773333"/>
      <stop offset="0.8941176470588236" stop-color="#3d1818"/>
    </linearGradient>
    <linearGradient gradientTransform="matrix(0.0016, 0.0, 0.0, 9.0E-4, -1.3, 56.75)" gradientUnits="userSpaceOnUse" id="gradient6" spreadMethod="pad" x1="-819.2" x2="819.2">
      <stop offset="0.0" stop-color="#7a3030"/>
      <stop offset="0.8392156862745098" stop-color="#773333"/>
      <stop offset="0.8941176470588236" stop-color="#3d1818"/>
    </linearGradient>
    <linearGradient gradientTransform="matrix(0.0015, 0.0, 0.0, 9.0E-4, -0.35, 61.75)" gradientUnits="userSpaceOnUse" id="gradient7" spreadMethod="pad" x1="-819.2" x2="819.2">
      <stop offset="0.0" stop-color="#7a3030"/>
      <stop offset="0.8392156862745098" stop-color="#773333"/>
      <stop offset="0.8941176470588236" stop-color="#3d1818"/>
    </linearGradient>
    <linearGradient gradientTransform="matrix(0.0054, -0.001, 8.0E-4, 0.0042, -2.5, 34.5)" gradientUnits="userSpaceOnUse" id="gradient8" spreadMethod="pad" x1="-819.2" x2="819.2">
      <stop offset="0.011764705882352941" stop-color="#353535"/>
      <stop offset="0.3176470588235294" stop-color="#404040"/>
      <stop offset="0.6196078431372549" stop-color="#717171"/>
      <stop offset="0.8392156862745098" stop-color="#383838"/>
    </linearGradient>
    <linearGradient gradientTransform="matrix(0.0054, -0.0011, 7.0E-4, 0.0036, -2.5, 38.0)" gradientUnits="userSpaceOnUse" id="gradient9" spreadMethod="pad" x1="-819.2" x2="819.2">
      <stop offset="0.0" stop-color="#262626"/>
      <stop offset="0.6352941176470588" stop-color="#787878"/>
      <stop offset="0.7254901960784313" stop-color="#6d6d6d"/>
      <stop offset="1.0" stop-color="#202020"/>
    </linearGradient>
    <linearGradient gradientTransform="matrix(0.0031, -9.0E-4, 8.0E-4, 0.0028, 3.7, 66.6)" gradientUnits="userSpaceOnUse" id="gradient10" spreadMethod="pad" x1="-819.2" x2="819.2">
      <stop offset="0.0" stop-color="#4a4a4a"/>
      <stop offset="0.6627450980392157" stop-color="#787878"/>
      <stop offset="1.0" stop-color="#606060"/>
    </linearGradient>
    <linearGradient gradientTransform="matrix(-2.0E-4, -0.0105, 0.0106, -2.0E-4, 0.45, 39.7)" gradientUnits="userSpaceOnUse" id="gradient11" spreadMethod="pad" x1="-819.2" x2="819.2">
      <stop offset="0.0" stop-color="#691616"/>
      <stop offset="0.1843137254901961" stop-color="#9e2121"/>
      <stop offset="0.5411764705882353" stop-color="#f27777"/>
      <stop offset="0.9686274509803922" stop-color="#8b1010"/>
    </linearGradient>
    <linearGradient gradientTransform="matrix(-3.0E-4, -0.0103, 0.0103, -3.0E-4, 0.6, 39.95)" gradientUnits="userSpaceOnUse" id="gradient12" spreadMethod="pad" x1="-819.2" x2="819.2">
      <stop offset="0.0" stop-color="#780707"/>
      <stop offset="0.1843137254901961" stop-color="#d71313"/>
      <stop offset="0.5568627450980392" stop-color="#ff9595"/>
      <stop offset="1.0" stop-color="#cb1f1f"/>
    </linearGradient>
    <linearGradient gradientTransform="matrix(0.039, -0.0284, 0.0391, 0.0537, -0.1, -21.5)" gradientUnits="userSpaceOnUse" id="gradient13" spreadMethod="pad" x1="-819.2" x2="819.2">
      <stop offset="0.10980392156862745" stop-color="#606060"/>
      <stop offset="0.26666666666666666" stop-color="#313131"/>
      <stop offset="0.7254901960784313" stop-color="#666666"/>
      <stop offset="0.9568627450980393" stop-color="#4e4e4e"/>
    </linearGradient>
    <linearGradient gradientTransform="matrix(0.0389, -0.0461, 0.0484, 0.0408, -3.2, -22.3)" gradientUnits="userSpaceOnUse" id="gradient14" spreadMethod="pad" x1="-819.2" x2="819.2">
      <stop offset="0.011764705882352941" stop-color="#464646"/>
      <stop offset="0.23529411764705882" stop-color="#6d6d6d"/>
      <stop offset="0.5058823529411764" stop-color="#9b9b9b"/>
      <stop offset="0.615686274509804" stop-color="#a3a3a3"/>
      <stop offset="0.7843137254901961" stop-color="#787878"/>
      <stop offset="0.9725490196078431" stop-color="#717171"/>
    </linearGradient>
    <linearGradient gradientTransform="matrix(0.0389, -0.0461, 0.0484, 0.0408, -3.2, -22.3)" gradientUnits="userSpaceOnUse" id="gradient15" spreadMethod="pad" x1="-819.2" x2="819.2">
      <stop offset="0.08627450980392157" stop-color="#989898"/>
      <stop offset="0.20392156862745098" stop-color="#5b5b5b"/>
    </linearGradient>
    <linearGradient gradientTransform="matrix(0.0015, -0.0011, 0.0022, 0.0029, -0.35, 23.35)" gradientUnits="userSpaceOnUse" id="gradient16" spreadMethod="pad" x1="-819.2" x2="819.2">
      <stop offset="0.011764705882352941" stop-color="#63511d"/>
      <stop offset="0.20392156862745098" stop-color="#655e1b"/>
      <stop offset="0.6" stop-color="#9d9128"/>
      <stop offset="0.8274509803921568" stop-color="#9b8e28"/>
      <stop offset="1.0" stop-color="#786323"/>
    </linearGradient>
    <linearGradient gradientTransform="matrix(0.0031, 0.0029, -0.0029, 0.0031, -0.6, 29.3)" gradientUnits="userSpaceOnUse" id="gradient17" spreadMethod="pad" x1="-819.2" x2="819.2">
      <stop offset="0.0" stop-color="#757575"/>
      <stop offset="0.4392156862745098" stop-color="#919191"/>
      <stop offset="1.0" stop-color="#353535"/>
    </linearGradient>
    <radialGradient cx="0" cy="0" gradientTransform="matrix(0.0014, 0.0, 0.0, 0.0014, -0.65, 29.25)" gradientUnits="userSpaceOnUse" id="gradient18" r="819.2" spreadMethod="pad">
      <stop offset="0.11372549019607843" stop-color="#dfdfdf"/>
      <stop offset="0.5843137254901961" stop-color="#808080"/>
      <stop offset="0.7450980392156863" stop-color="#808080"/>
      <stop offset="0.807843137254902" stop-color="#2e2e2e"/>
    </radialGradient>
    <linearGradient gradientTransform="matrix(0.0017, -0.0022, 0.0022, 0.0017, -0.65, 29.25)" gradientUnits="userSpaceOnUse" id="gradient19" spreadMethod="pad" x1="-819.2" x2="819.2">
      <stop offset="0.0" stop-color="#838383"/>
      <stop offset="0.3333333333333333" stop-color="#666666"/>
      <stop offset="0.49411764705882355" stop-color="#464646"/>
      <stop offset="1.0" stop-color="#181818"/>
    </linearGradient>
    <radialGradient cx="0" cy="0" gradientTransform="matrix(0.0011, -0.0011, 0.0022, 0.0022, 0.2, 22.15)" gradientUnits="userSpaceOnUse" id="gradient20" r="819.2" spreadMethod="pad">
      <stop offset="0.0" stop-color="#ffffff" stop-opacity="0.4"/>
      <stop offset="0.7607843137254902" stop-color="#ffffff" stop-opacity="0.0"/>
    </radialGradient>
    <radialGradient cx="0" cy="0" gradientTransform="matrix(9.0E-4, -5.0E-4, 0.0016, 0.0028, 3.3, 26.8)" gradientUnits="userSpaceOnUse" id="gradient21" r="819.2" spreadMethod="pad">
      <stop offset="0.3607843137254902" stop-color="#ffffff" stop-opacity="0.6"/>
      <stop offset="0.8745098039215686" stop-color="#ffffff" stop-opacity="0.0"/>
    </radialGradient>
  </defs>
</svg>
