<?xml version="1.0" encoding="UTF-8" standalone="no"?>
<svg xmlns:xlink="http://www.w3.org/1999/xlink" height="97.4px" width="149.55px" xmlns="http://www.w3.org/2000/svg">
  <g transform="matrix(1.0, 0.0, 0.0, 1.0, 74.75, 48.7)">
    <path d="M2.8 -27.7 L15.8 -29.7 26.8 -33.7 40.8 -46.7 44.8 -42.7 39.8 -36.7 41.8 -23.7 47.8 -15.7 66.8 -1.7 66.8 6.3 73.8 8.3 74.8 14.3 67.8 16.3 70.8 28.3 57.8 29.3 63.8 35.3 57.8 39.3 Q47.8 48.95 33.05 48.7 19.2 48.4 -0.2 39.3 -10.65 40.65 -20.2 36.3 -22.65 31.6 -30.2 29.3 -33.2 23.75 -39.2 22.3 -40.05 17.45 -45.2 15.3 -57.15 3.3 -72.2 -4.7 -73.05 -17.3 -70.2 -19.7 -72.05 -22.85 -72.2 -26.7 -78.2 -32.8 -70.2 -35.7 -71.25 -40.65 -67.2 -44.7 L-58.2 -48.7 -56.2 -43.7 -62.2 -39.7 -45.2 -32.7 -22.2 -31.7 -2.2 -20.7 2.8 -27.7" fill="#ffffff" fill-opacity="0.0" fill-rule="evenodd" stroke="none"/>
  </g>
</svg>
