<?xml version="1.0" encoding="UTF-8" standalone="no"?>
<svg xmlns:xlink="http://www.w3.org/1999/xlink" height="128.0px" width="173.0px" xmlns="http://www.w3.org/2000/svg">
  <g transform="matrix(1.0, 0.0, 0.0, 1.0, 86.5, 64.0)">
    <path d="M32.5 -27.0 L45.5 -35.0 Q47.0 -34.0 55.65 -32.05 63.1 -30.4 65.5 -27.0 53.85 -26.55 61.5 -12.0 65.75 -4.25 65.5 4.0 72.2 7.5 71.5 16.0 75.35 21.05 76.2 25.9 77.0 30.2 75.5 35.0 74.25 39.05 76.7 46.2 79.2 53.4 78.5 56.0 85.1 58.6 86.5 64.0 74.6 63.3 64.5 59.0 56.5 61.2 49.5 59.0 L24.5 58.0 Q11.45 44.6 2.05 46.9 -0.7 47.6 -3.55 49.9 L-6.5 52.0 -19.5 51.0 -25.5 46.0 -44.5 45.0 -46.5 40.0 -52.5 43.0 -73.5 34.0 Q-68.8 30.1 -68.75 20.35 -68.7 10.4 -73.5 -5.0 -75.75 -10.9 -77.7 -22.9 -79.8 -35.75 -81.5 -41.0 L-86.5 -46.0 -82.5 -50.0 -78.5 -64.0 -52.5 -48.0 Q-45.6 -43.3 -36.5 -41.0 -29.95 -42.0 -26.5 -40.0 -15.6 -42.05 -7.5 -37.0 15.05 -38.35 20.55 -37.45 30.1 -35.85 32.5 -27.0" fill="#ffffff" fill-opacity="0.0" fill-rule="evenodd" stroke="none"/>
  </g>
</svg>
