<?xml version="1.0" encoding="UTF-8" standalone="no"?>
<svg xmlns:xlink="http://www.w3.org/1999/xlink" height="90.5px" width="262.8px" xmlns="http://www.w3.org/2000/svg">
  <g transform="matrix(1.0, 0.0, 0.0, 1.0, 131.4, 45.25)">
    <path d="M9.9 -34.9 Q12.65 -37.75 17.4 -45.25 38.55 -18.85 71.4 -9.25 L66.4 -3.25 Q78.6 -4.15 91.65 -0.75 104.85 2.65 119.4 9.75 L125.4 16.75 125.4 20.75 131.4 24.75 131.4 31.75 124.4 35.75 127.4 38.75 126.9 45.25 -111.1 45.25 -110.6 25.75 Q-112.8 23.1 -118.9 17.05 -124.0 12.1 -126.35 8.5 -133.45 -2.4 -130.6 -22.25 -119.8 -17.5 -108.6 -20.25 -98.5 -14.2 -87.6 -11.25 -70.2 1.45 -51.6 -4.25 -39.65 1.15 -26.6 -0.25 -17.9 -8.15 -7.6 -9.25 -7.65 -17.3 -2.6 -20.25 -6.25 -27.25 -1.6 -32.25 5.15 -30.1 9.9 -34.9" fill="#ffffff" fill-opacity="0.0" fill-rule="evenodd" stroke="none"/>
  </g>
</svg>
