<?xml version="1.0" encoding="UTF-8" standalone="no"?>
<svg xmlns:xlink="http://www.w3.org/1999/xlink" height="72.0px" width="536.0px" xmlns="http://www.w3.org/2000/svg">
  <g transform="matrix(1.0, 0.0, 0.0, 1.0, 0.0, 0.0)">
    <path d="M532.0 0.0 Q536.0 0.0 536.0 4.0 L536.0 68.0 Q536.0 72.0 532.0 72.0 L4.0 72.0 Q0.0 72.0 0.0 68.0 L0.0 4.0 Q0.0 0.0 4.0 0.0 L532.0 0.0 M534.5 4.0 Q534.5 1.5 532.0 1.5 L4.0 1.5 Q1.5 1.5 1.5 4.0 L1.5 68.0 Q1.5 70.5 4.0 70.5 L532.0 70.5 Q534.5 70.5 534.5 68.0 L534.5 4.0" fill="#e0ddd6" fill-rule="evenodd" stroke="none"/>
  </g>
</svg>
