<?xml version="1.0" encoding="UTF-8" standalone="no"?>
<svg xmlns:xlink="http://www.w3.org/1999/xlink" height="50.35px" width="52.15px" xmlns="http://www.w3.org/2000/svg">
  <g transform="matrix(1.0, 0.0, 0.0, 1.0, 25.3, 25.0)">
    <path d="M15.4 -19.9 Q16.2 -19.8 17.25 -19.1 18.6 -18.35 19.25 -17.25 20.35 -16.2 21.95 -13.35 23.6 -10.6 24.1 -8.95 25.0 -6.2 25.0 0.0 L25.05 1.7 25.05 3.35 25.9 4.3 26.85 5.15 25.6 5.9 24.4 6.75 Q23.3 10.75 21.75 13.3 20.85 14.75 17.95 17.65 L16.3 18.95 Q16.75 20.2 16.05 20.75 L14.05 20.65 Q10.2 23.3 7.75 24.15 5.1 25.1 0.0 25.35 L-3.6 24.95 -7.05 24.05 -8.4 23.95 Q-10.1 24.45 -11.3 23.65 -12.3 23.05 -13.6 21.0 L-17.85 17.85 Q-19.1 17.85 -19.9 15.3 -22.1 12.5 -23.25 8.95 -24.45 5.55 -25.0 0.55 -25.3 0.3 -25.3 -0.75 -25.3 -1.8 -24.95 -2.0 -24.6 -7.15 -23.5 -9.8 -23.35 -10.75 -21.4 -13.9 -19.4 -17.1 -18.2 -17.85 -17.2 -19.5 -15.9 -20.4 -14.65 -21.3 -12.8 -21.5 -10.05 -23.2 -6.95 -24.05 L-0.45 -25.0 2.25 -24.95 5.0 -24.55 6.75 -24.7 Q8.5 -24.6 9.1 -23.3 10.8 -22.7 13.15 -21.2 L15.4 -19.9" fill="#aa010e" fill-rule="evenodd" stroke="none"/>
  </g>
</svg>
