<?xml version="1.0" encoding="UTF-8" standalone="no"?>
<svg xmlns:xlink="http://www.w3.org/1999/xlink" height="76.95px" width="89.2px" xmlns="http://www.w3.org/2000/svg">
  <g transform="matrix(1.0, 0.0, 0.0, 1.0, 44.7, 37.8)">
    <path d="M28.5 -25.65 Q26.4 -24.65 27.0 -23.7 28.3 -22.45 29.2 -20.3 L30.4 -17.5 Q34.75 -16.75 35.8 -13.6 36.45 -11.7 35.7 -9.6 35.1 -7.85 34.3 -7.4 35.0 -3.85 35.0 0.0 L34.75 4.5 36.6 7.0 Q34.9 8.45 33.75 9.65 32.55 14.0 30.2 17.9 L31.7 19.0 35.6 21.0 Q37.1 21.8 38.25 23.05 39.4 24.3 39.15 24.8 L37.5 24.9 Q35.95 24.5 34.0 23.2 L29.2 19.45 Q26.7 23.15 25.15 24.7 L23.45 26.0 Q23.75 26.85 25.6 28.55 27.15 30.0 27.25 31.6 27.35 32.9 26.25 33.6 25.25 34.2 24.0 33.9 23.25 33.7 21.8 32.1 20.15 30.2 19.0 29.5 11.85 34.2 0.0 35.45 L-5.05 35.05 -9.85 33.7 -11.0 34.0 Q-12.7 34.5 -13.65 36.6 -14.55 38.65 -16.0 39.0 -17.5 39.4 -19.0 38.65 -20.8 37.75 -20.75 35.75 -20.7 33.95 -19.55 32.7 -18.65 31.7 -19.0 29.75 L-19.05 29.45 Q-21.75 27.65 -24.2 25.3 L-25.5 26.75 Q-26.65 28.5 -28.5 28.5 -29.8 28.5 -30.8 27.35 -31.7 26.3 -31.7 25.3 -31.7 23.65 -29.7 22.15 L-28.35 20.6 -30.55 17.3 Q-31.8 15.4 -32.1 15.25 L-32.85 14.85 -33.75 14.65 Q-35.35 14.65 -36.35 13.7 -37.5 12.7 -37.5 10.9 -37.5 9.25 -36.15 7.95 L-34.65 6.55 Q-34.5 6.2 -34.7 4.15 L-35.0 0.8 Q-35.85 0.0 -37.1 0.0 L-41.75 0.35 Q-44.8 0.3 -44.7 -1.45 -44.6 -3.4 -42.05 -3.1 L-36.95 -2.3 Q-35.8 -2.25 -34.9 -2.85 -34.45 -10.05 -32.85 -13.7 -32.8 -14.5 -33.5 -16.15 -34.25 -17.85 -34.25 -18.8 -34.25 -21.8 -31.5 -22.5 L-29.6 -22.7 -28.2 -22.8 Q-27.5 -23.0 -25.5 -25.0 L-25.4 -27.35 Q-25.35 -28.6 -24.2 -29.55 -23.1 -30.5 -21.8 -30.6 L-19.1 -30.35 -17.9 -30.15 Q-14.05 -32.5 -9.7 -33.7 L-8.5 -35.0 Q-7.05 -36.3 -5.4 -36.5 -2.4 -36.9 -0.6 -35.0 3.6 -35.35 7.0 -34.35 L8.45 -36.1 Q10.1 -38.35 12.1 -37.6 13.75 -37.0 13.7 -35.2 L13.25 -32.5 Q15.65 -31.65 18.3 -29.9 L20.75 -28.35 Q21.9 -28.2 22.7 -29.95 L23.9 -32.35 Q25.05 -33.65 27.25 -33.25 28.75 -33.0 29.95 -31.6 31.05 -30.3 31.0 -29.0 30.95 -26.9 28.5 -25.65 M41.0 10.5 Q39.7 10.35 38.85 9.35 L37.2 7.05 39.45 5.35 Q40.5 4.7 41.8 4.85 43.05 5.05 43.85 5.95 44.65 6.95 44.5 8.1 44.35 9.3 43.25 9.95 42.25 10.7 41.0 10.5" fill="#aa010e" fill-rule="evenodd" stroke="none"/>
  </g>
</svg>
