<?xml version="1.0" encoding="UTF-8" standalone="no"?>
<svg xmlns:xlink="http://www.w3.org/1999/xlink" height="72.5px" width="760.5px" xmlns="http://www.w3.org/2000/svg">
  <g transform="matrix(1.0, 0.0, 0.0, 1.0, 0.5, 0.0)">
    <path d="M436.0 0.0 L760.0 0.0 760.0 64.0 436.0 64.0 405.0 33.0 404.0 32.0 405.0 31.0 436.0 0.0 M429.55 64.0 L400.7 64.0 368.7 32.0 400.7 0.0 429.55 0.0 397.5 32.0 429.55 64.0" fill="#000000" fill-rule="evenodd" stroke="none"/>
    <path d="M436.0 64.0 L429.55 64.0 397.5 32.0 429.55 0.0 436.0 0.0 405.0 31.0 404.0 32.0 405.0 33.0 436.0 64.0 M400.7 64.0 L0.0 64.0 0.0 0.0 400.7 0.0 368.7 32.0 400.7 64.0" fill="#004dfb" fill-rule="evenodd" stroke="none"/>
    <path d="M0.0 64.0 L0.0 72.0" fill="none" stroke="#336666" stroke-linecap="round" stroke-linejoin="round" stroke-width="1.0"/>
  </g>
</svg>
