<?xml version="1.0" encoding="UTF-8" standalone="no"?>
<svg xmlns:xlink="http://www.w3.org/1999/xlink" height="64.0px" width="760.0px" xmlns="http://www.w3.org/2000/svg">
  <g transform="matrix(1.0, 0.0, 0.0, 1.0, 0.0, 0.0)">
    <path d="M436.0 0.0 L760.0 0.0 760.0 64.0 436.0 64.0 405.0 33.0 404.0 32.0 405.0 31.0 436.0 0.0 M410.1 64.0 L390.25 64.0 358.25 32.0 390.25 0.0 410.1 0.0 378.95 32.05 410.1 64.0" fill="#000000" fill-rule="evenodd" stroke="none"/>
    <path d="M436.0 64.0 L410.1 64.0 378.95 32.05 410.1 0.0 436.0 0.0 405.0 31.0 404.0 32.0 405.0 33.0 436.0 64.0 M390.25 64.0 L0.0 64.0 0.0 0.0 390.25 0.0 358.25 32.0 390.25 64.0" fill="#004dfb" fill-rule="evenodd" stroke="none"/>
  </g>
</svg>
