<?xml version="1.0" encoding="UTF-8" standalone="no"?>
<svg xmlns:xlink="http://www.w3.org/1999/xlink" height="146.05px" width="31.75px" xmlns="http://www.w3.org/2000/svg">
  <g transform="matrix(1.0, 0.0, 0.0, 1.0, 17.35, 73.5)">
    <path d="M-9.3 -72.8 Q-4.9 -68.9 -2.25 -58.55 0.15 -49.0 3.2 -24.75 6.2 -0.6 5.5 32.0 L5.5 34.0 6.0 34.45 Q9.45 34.4 12.0 37.45 13.4 39.15 13.95 41.5 14.4 43.35 14.4 46.2 14.4 52.05 9.65 62.4 10.8 63.9 10.05 66.3 9.3 68.65 7.65 69.0 6.65 71.65 3.95 72.4 1.05 73.15 -0.75 70.5 -6.5 63.55 -6.5 42.1 L-6.45 41.55 Q-13.2 41.4 -16.0 38.6 -18.5 36.1 -16.35 33.9 L-15.0 32.55 Q-13.35 31.3 -11.75 31.4 -8.45 31.7 -7.4 34.55 L-7.0 34.35 -6.5 34.0 -6.5 31.85 Q-4.8 -20.5 -13.45 -70.55 -13.55 -71.1 -13.25 -72.0 -12.9 -73.1 -12.25 -73.35 -11.6 -73.6 -10.55 -73.35 L-9.3 -72.8 M5.45 41.55 Q5.2 52.6 5.4 55.8 7.25 50.5 7.4 46.05 L7.35 44.3 Q7.05 41.4 5.45 41.55" fill="#000000" fill-rule="evenodd" stroke="none"/>
    <path d="M-14.45 35.5 L-13.0 34.2 -11.9 33.9 Q-10.9 33.95 -10.3 34.5 -9.8 35.0 -9.8 35.5 -9.8 36.4 -11.15 36.4 -9.6 37.2 -5.0 37.0 -4.8 37.0 -4.8 38.0 -4.75 39.0 -4.95 39.0 L-10.85 38.55 Q-12.95 38.05 -14.25 36.8 -14.95 36.1 -14.45 35.5" fill="url(#gradient0)" fill-rule="evenodd" stroke="none"/>
    <path d="M9.85 44.0 Q9.55 41.65 8.55 40.3 7.85 39.5 6.7 39.2 L4.15 39.0 Q3.95 39.0 3.7 38.2 3.45 37.4 3.65 37.35 7.7 36.1 10.1 39.0 L10.1 39.05 Q11.55 40.8 11.85 44.0 L11.9 46.15 Q11.8 52.45 6.1 64.05 6.95 63.8 7.45 64.05 8.1 64.4 7.65 65.8 7.45 66.4 6.6 66.7 L5.2 66.8 Q3.9 66.65 4.1 65.05 9.65 54.3 9.9 46.1 L9.85 44.0" fill="url(#gradient1)" fill-rule="evenodd" stroke="none"/>
    <path d="M1.3 69.15 Q-4.0 62.3 -4.0 42.0 L3.0 42.0 Q2.0 59.25 4.85 67.6 L1.3 69.15" fill="url(#gradient2)" fill-rule="evenodd" stroke="none"/>
    <path d="M1.3 69.15 L4.7 67.15 5.0 68.0 Q5.2 68.8 4.05 69.5 3.0 70.15 2.35 69.95 L1.7 69.65 1.3 69.15" fill="url(#gradient3)" fill-rule="evenodd" stroke="none"/>
    <path d="M2.85 45.0 Q2.45 55.15 3.5 61.85 0.7 61.0 -0.55 57.85 -2.0 54.15 -1.0 48.0 -1.9 47.05 -1.9 45.85 -1.9 44.65 -1.0 44.0 -0.1 43.35 0.9 43.75 1.8 44.1 2.0 45.0 L2.85 45.0" fill="url(#gradient4)" fill-rule="evenodd" stroke="none"/>
    <path d="M1.1 46.7 Q0.7 47.1 0.1 47.1 -0.5 47.1 -0.9 46.7 -1.3 46.3 -1.3 45.7 -1.3 45.1 -0.9 44.7 -0.5 44.3 0.1 44.3 0.7 44.3 1.1 44.7 1.5 45.1 1.5 45.7 1.5 46.3 1.1 46.7" fill="#000000" fill-opacity="0.3019608" fill-rule="evenodd" stroke="none"/>
    <path d="M-1.25 48.1 Q-2.15 47.1 -2.15 45.85 -2.15 44.5 -1.15 43.8 -0.15 43.05 1.0 43.55 1.9 43.9 2.2 44.75 L2.85 44.75 2.85 45.25 2.0 45.25 1.85 45.2 1.75 45.05 Q1.55 44.3 0.8 44.0 -0.05 43.65 -0.85 44.2 -1.65 44.8 -1.65 45.85 -1.65 46.95 -0.85 47.8 L-1.25 48.1" fill="url(#gradient5)" fill-rule="evenodd" stroke="none"/>
    <path d="M-0.85 47.8 L-0.75 48.0 -0.75 48.05 Q-1.75 54.1 -0.3 57.75 0.85 60.7 3.45 61.55 L3.5 62.1 3.45 62.1 Q0.5 61.2 -0.75 57.95 -2.25 54.25 -1.25 48.1 L-0.85 47.8" fill="url(#gradient6)" fill-rule="evenodd" stroke="none"/>
    <path d="M1.1 45.7 L0.8 46.4 0.1 46.7 -0.6 46.4 -0.9 45.7 -0.6 45.0 Q-0.3 44.7 0.1 44.7 0.5 44.7 0.8 45.0 L1.1 45.7" fill="url(#gradient7)" fill-rule="evenodd" stroke="none"/>
    <path d="M5.0 39.0 L-6.0 39.0 -6.0 37.0 -5.0 36.0 4.0 36.0 5.0 37.0 5.0 39.0" fill="url(#gradient8)" fill-rule="evenodd" stroke="none"/>
    <path d="M2.0 40.0 Q2.05 41.3 3.0 42.0 L-4.0 42.0 Q-3.05 41.3 -3.0 40.0 L2.0 40.0" fill="url(#gradient9)" fill-rule="evenodd" stroke="none"/>
    <path d="M-3.0 40.0 L-4.0 40.0 -5.0 39.0 4.0 39.0 3.0 40.0 2.0 40.0 -3.0 40.0" fill="url(#gradient10)" fill-rule="evenodd" stroke="none"/>
    <path d="M3.0 36.0 L-4.0 36.0 -4.0 32.0 3.0 32.0 3.0 36.0" fill="url(#gradient11)" fill-rule="evenodd" stroke="none"/>
    <path d="M-4.7 -57.9 Q-2.3 -48.5 0.7 -24.45 3.7 -0.4 3.0 32.0 L-4.0 32.0 Q-2.3 -20.65 -11.0 -71.0 -7.1 -67.35 -4.7 -57.9" fill="url(#gradient12)" fill-rule="evenodd" stroke="none"/>
    <path d="M-11.0 -71.0 Q-7.1 -67.35 -4.7 -57.9 -2.3 -48.5 0.7 -24.45 3.7 -0.4 3.0 32.0 L1.0 32.0 Q1.7 -0.4 -1.3 -24.45 -4.3 -48.5 -6.7 -57.9 -8.25 -64.05 -10.45 -67.7 L-11.0 -71.0" fill="url(#gradient13)" fill-rule="evenodd" stroke="none"/>
    <path d="M2.0 41.0 L-3.0 41.0 -3.0 40.0 2.0 40.0 2.0 41.0 M3.0 32.0 L-4.0 32.0 -4.0 31.0 3.0 31.0 3.0 32.0 M6.0 39.0 L5.0 39.0 5.0 37.0 6.0 37.0 6.0 39.0 M3.0 36.0 L-4.0 36.0 -4.0 35.0 3.0 35.0 3.0 36.0 M-6.0 39.0 L-7.0 39.0 -7.0 37.0 -6.0 37.0 -6.0 39.0" fill="#000000" fill-opacity="0.15294118" fill-rule="evenodd" stroke="none"/>
    <path d="M1.05 69.25 L0.6 68.4 4.4 66.2 4.85 67.05 1.05 69.25" fill="#000000" fill-opacity="0.2" fill-rule="evenodd" stroke="none"/>
    <path d="M6.1 63.95 Q5.0 64.45 5.15 65.5" fill="none" stroke="#475863" stroke-linecap="round" stroke-linejoin="round" stroke-width="0.25"/>
    <path d="M-11.05 36.35 L-12.25 36.15 Q-12.85 35.85 -12.9 35.3" fill="none" stroke="#4a5860" stroke-linecap="round" stroke-linejoin="round" stroke-width="0.25"/>
    <path d="M7.8 64.95 L7.45 65.85 Q7.05 66.25 6.5 66.25 6.0 66.25 5.6 65.85 5.2 65.45 5.2 64.95 5.2 64.4 5.6 64.05 6.0 63.65 6.5 63.65 7.05 63.65 7.45 64.05 7.8 64.4 7.8 64.95" fill="url(#gradient14)" fill-rule="evenodd" stroke="none"/>
    <path d="M-10.2 34.85 Q-10.2 35.35 -10.55 35.75 -10.95 36.15 -11.5 36.15 -12.0 36.15 -12.4 35.75 -12.8 35.35 -12.8 34.85 -12.8 34.3 -12.4 33.95 -12.0 33.55 -11.5 33.55 -10.95 33.55 -10.55 33.95 -10.2 34.3 -10.2 34.85" fill="url(#gradient15)" fill-rule="evenodd" stroke="none"/>
    <path d="M3.0 33.0 L-4.0 33.0 -4.0 32.0 3.0 32.0 3.0 33.0" fill="url(#gradient16)" fill-rule="evenodd" stroke="none"/>
    <path d="M5.0 37.0 L-6.0 37.0 -5.0 36.0 4.0 36.0 5.0 37.0" fill="url(#gradient17)" fill-rule="evenodd" stroke="none"/>
  </g>
  <defs>
    <linearGradient gradientTransform="matrix(0.0067, 0.0, 0.0, 0.0035, -9.5, 36.1)" gradientUnits="userSpaceOnUse" id="gradient0" spreadMethod="pad" x1="-819.2" x2="819.2">
      <stop offset="0.0" stop-color="#657585"/>
      <stop offset="0.7764705882352941" stop-color="#5c6b78"/>
    </linearGradient>
    <radialGradient cx="0" cy="0" gradientTransform="matrix(0.0209, 0.0, 0.0, 0.0323, 10.0, 41.0)" gradientUnits="userSpaceOnUse" id="gradient1" r="819.2" spreadMethod="pad">
      <stop offset="0.0392156862745098" stop-color="#b7c5c8"/>
      <stop offset="0.08235294117647059" stop-color="#8499a0"/>
      <stop offset="0.16862745098039217" stop-color="#6b848b"/>
      <stop offset="0.7215686274509804" stop-color="#374348"/>
      <stop offset="0.8784313725490196" stop-color="#51656f"/>
    </radialGradient>
    <radialGradient cx="0" cy="0" gradientTransform="matrix(0.0079, -0.001, 0.0037, 0.0287, 2.35, 54.2)" gradientUnits="userSpaceOnUse" id="gradient2" r="819.2" spreadMethod="pad">
      <stop offset="0.11764705882352941" stop-color="#667a84"/>
      <stop offset="0.49019607843137253" stop-color="#798e9b"/>
      <stop offset="0.5882352941176471" stop-color="#6a8795"/>
      <stop offset="0.792156862745098" stop-color="#475663"/>
      <stop offset="1.0" stop-color="#2d3c3e"/>
    </radialGradient>
    <radialGradient cx="0" cy="0" gradientTransform="matrix(0.0012, 0.0017, -0.0023, 0.0017, 3.1, 68.15)" gradientUnits="userSpaceOnUse" id="gradient3" r="819.2" spreadMethod="pad">
      <stop offset="0.1803921568627451" stop-color="#6d8492"/>
      <stop offset="0.7568627450980392" stop-color="#4f6471"/>
    </radialGradient>
    <linearGradient gradientTransform="matrix(0.0031, -1.0E-4, 4.0E-4, 0.0112, 0.8, 52.7)" gradientUnits="userSpaceOnUse" id="gradient4" spreadMethod="pad" x1="-819.2" x2="819.2">
      <stop offset="0.3254901960784314" stop-color="#503a61"/>
      <stop offset="0.6" stop-color="#493452"/>
      <stop offset="0.7450980392156863" stop-color="#6a4976"/>
    </linearGradient>
    <linearGradient gradientTransform="matrix(0.0046, -0.001, 0.0024, 0.0112, 0.8, 52.7)" gradientUnits="userSpaceOnUse" id="gradient5" spreadMethod="pad" x1="-819.2" x2="819.2">
      <stop offset="0.39215686274509803" stop-color="#adb8bc"/>
      <stop offset="0.5647058823529412" stop-color="#3c464a"/>
    </linearGradient>
    <linearGradient gradientTransform="matrix(0.0031, 0.0, 0.0, 0.0087, 0.9, 54.95)" gradientUnits="userSpaceOnUse" id="gradient6" spreadMethod="pad" x1="-819.2" x2="819.2">
      <stop offset="0.39215686274509803" stop-color="#adb8bc"/>
      <stop offset="0.5647058823529412" stop-color="#3c464a"/>
    </linearGradient>
    <radialGradient cx="0" cy="0" gradientTransform="matrix(0.0016, 0.0, 0.0, 0.0016, 0.1, 45.7)" gradientUnits="userSpaceOnUse" id="gradient7" r="819.2" spreadMethod="pad">
      <stop offset="0.13333333333333333" stop-color="#e7e6fb"/>
      <stop offset="0.25098039215686274" stop-color="#8f1fb6"/>
      <stop offset="0.8980392156862745" stop-color="#df3ae0"/>
    </radialGradient>
    <linearGradient gradientTransform="matrix(0.0067, 0.0, 0.0, 0.0018, -0.5, 37.5)" gradientUnits="userSpaceOnUse" id="gradient8" spreadMethod="pad" x1="-819.2" x2="819.2">
      <stop offset="0.0" stop-color="#667a84"/>
      <stop offset="0.1803921568627451" stop-color="#5c7278"/>
      <stop offset="0.2784313725490196" stop-color="#7d9dac"/>
      <stop offset="0.6941176470588235" stop-color="#7d9dac"/>
      <stop offset="0.807843137254902" stop-color="#58777c"/>
      <stop offset="1.0" stop-color="#657d85"/>
    </linearGradient>
    <linearGradient gradientTransform="matrix(0.0043, 0.0, 0.0, 0.0012, -0.5, 41.0)" gradientUnits="userSpaceOnUse" id="gradient9" spreadMethod="pad" x1="-819.2" x2="819.2">
      <stop offset="0.06666666666666667" stop-color="#232323"/>
      <stop offset="0.49411764705882355" stop-color="#555555"/>
      <stop offset="0.9568627450980393" stop-color="#232323"/>
    </linearGradient>
    <linearGradient gradientTransform="matrix(0.0055, 0.0, 0.0, 6.0E-4, -0.5, 39.5)" gradientUnits="userSpaceOnUse" id="gradient10" spreadMethod="pad" x1="-819.2" x2="819.2">
      <stop offset="0.0" stop-color="#3f5356"/>
      <stop offset="0.1843137254901961" stop-color="#404f55"/>
      <stop offset="0.5058823529411764" stop-color="#5f767c"/>
      <stop offset="0.807843137254902" stop-color="#414f54"/>
      <stop offset="1.0" stop-color="#405055"/>
    </linearGradient>
    <linearGradient gradientTransform="matrix(0.0043, 0.0, 0.0, 0.0024, -0.5, 34.0)" gradientUnits="userSpaceOnUse" id="gradient11" spreadMethod="pad" x1="-819.2" x2="819.2">
      <stop offset="0.0" stop-color="#55626a"/>
      <stop offset="0.7764705882352941" stop-color="#73868c"/>
    </linearGradient>
    <linearGradient gradientTransform="matrix(0.029, -0.0476, 0.0536, 0.0327, -3.95, -19.5)" gradientUnits="userSpaceOnUse" id="gradient12" spreadMethod="pad" x1="-819.2" x2="819.2">
      <stop offset="0.0" stop-color="#9f9f9f"/>
      <stop offset="0.4196078431372549" stop-color="#cdcdcd"/>
      <stop offset="0.6862745098039216" stop-color="#dfdfdf"/>
      <stop offset="1.0" stop-color="#9b9b9b"/>
    </linearGradient>
    <linearGradient gradientTransform="matrix(0.0312, -0.0408, 0.0499, 0.0381, -3.95, -19.5)" gradientUnits="userSpaceOnUse" id="gradient13" spreadMethod="pad" x1="-819.2" x2="819.2">
      <stop offset="0.0" stop-color="#dfdfdf"/>
      <stop offset="0.3333333333333333" stop-color="#e6e6e6"/>
      <stop offset="0.4627450980392157" stop-color="#f8f8f8"/>
      <stop offset="0.6980392156862745" stop-color="#ffffff"/>
      <stop offset="0.8235294117647058" stop-color="#dbdbdb"/>
      <stop offset="1.0" stop-color="#ffffff"/>
    </linearGradient>
    <radialGradient cx="0" cy="0" gradientTransform="matrix(0.0013, 0.0, 0.0, 0.0013, 6.5, 65.05)" gradientUnits="userSpaceOnUse" id="gradient14" r="819.2" spreadMethod="pad">
      <stop offset="0.27450980392156865" stop-color="#aababf"/>
      <stop offset="0.9607843137254902" stop-color="#63747e" stop-opacity="0.0"/>
    </radialGradient>
    <radialGradient cx="0" cy="0" gradientTransform="matrix(0.0013, 0.0, 0.0, 0.0013, -11.5, 34.95)" gradientUnits="userSpaceOnUse" id="gradient15" r="819.2" spreadMethod="pad">
      <stop offset="0.27450980392156865" stop-color="#aab7bf"/>
      <stop offset="0.9607843137254902" stop-color="#63727e" stop-opacity="0.0"/>
    </radialGradient>
    <linearGradient gradientTransform="matrix(0.0043, 0.0, 0.0, 6.0E-4, -0.5, 32.5)" gradientUnits="userSpaceOnUse" id="gradient16" spreadMethod="pad" x1="-819.2" x2="819.2">
      <stop offset="0.0" stop-color="#688197"/>
      <stop offset="0.7764705882352941" stop-color="#819ca9"/>
    </linearGradient>
    <linearGradient gradientTransform="matrix(0.0073, -2.0E-4, 0.0, 6.0E-4, -1.05, 34.35)" gradientUnits="userSpaceOnUse" id="gradient17" spreadMethod="pad" x1="-819.2" x2="819.2">
      <stop offset="0.27058823529411763" stop-color="#70888f"/>
      <stop offset="0.3686274509803922" stop-color="#94b3b8"/>
      <stop offset="0.6666666666666666" stop-color="#9bbdbf"/>
      <stop offset="0.8313725490196079" stop-color="#637e87"/>
    </linearGradient>
  </defs>
</svg>
