<?xml version="1.0" encoding="UTF-8" standalone="no"?>
<svg xmlns:xlink="http://www.w3.org/1999/xlink" height="153.75px" width="65.9px" xmlns="http://www.w3.org/2000/svg">
  <g transform="matrix(1.0, 0.0, 0.0, 1.0, -4.3, 6.95)">
    <path d="M49.1 -6.95 Q79.35 0.25 66.2 20.0 56.35 34.65 49.85 48.8 47.65 53.45 45.85 58.1 57.9 78.4 51.3 118.25 51.7 119.75 51.7 121.6 51.4 130.35 45.7 136.85 41.65 141.8 28.2 144.7 14.3 149.4 9.2 143.65 4.0 138.75 4.4 132.4 3.75 126.25 7.7 120.65 12.05 113.9 23.2 110.9 37.55 107.1 44.45 109.65 46.55 110.35 48.05 112.05 49.3 94.2 47.7 81.95 43.65 76.05 43.8 58.35 L44.3 57.35 48.65 48.2 61.95 20.85 Q71.4 1.55 44.4 -6.15 L49.1 -6.95" fill="#c6c6c6" fill-rule="evenodd" stroke="none"/>
  </g>
</svg>
