<?xml version="1.0" encoding="UTF-8" standalone="no"?>
<svg xmlns:xlink="http://www.w3.org/1999/xlink" height="168.45px" width="106.4px" xmlns="http://www.w3.org/2000/svg">
  <g transform="matrix(1.0, 0.0, 0.0, 1.0, -18.8, -19.05)">
    <path d="M123.75 44.65 Q116.05 59.0 100.7 62.1 85.45 65.3 67.8 81.05 54.05 111.2 99.65 155.7 L103.55 159.25 Q113.25 167.15 114.35 171.85 114.85 177.6 104.35 183.95 93.55 190.85 83.9 184.3 74.9 175.9 71.85 163.25 68.55 151.95 69.2 148.2 69.35 143.65 73.25 141.65 77.1 138.7 85.35 143.9 87.75 145.4 90.55 147.7 62.95 117.3 61.35 92.5 61.25 82.55 75.9 72.35 87.55 65.0 98.0 61.85 89.9 63.35 83.4 66.9 L88.75 62.8 Q96.5 58.55 107.25 57.85 112.55 55.15 116.4 50.25 104.15 49.3 95.5 51.9 86.85 53.35 66.8 39.15 62.9 56.6 50.35 62.45 37.95 68.35 33.5 77.4 34.35 93.85 38.6 98.45 40.85 100.3 43.45 103.05 L44.7 104.2 44.55 104.2 48.65 108.85 50.0 110.95 Q53.15 115.8 50.65 118.25 47.55 121.45 38.2 122.4 28.35 123.2 22.9 115.35 17.95 106.65 18.95 99.95 19.35 94.6 21.75 95.25 24.0 95.45 29.85 96.8 33.4 97.4 36.8 98.95 31.45 91.1 31.15 71.8 38.3 64.2 50.45 56.6 62.55 49.05 61.45 26.3 61.05 22.9 60.25 19.05 88.5 38.1 99.1 37.35 109.55 35.45 125.2 40.9 L123.75 44.65" fill="#c6c6c6" fill-rule="evenodd" stroke="none"/>
  </g>
</svg>
