<?xml version="1.0" encoding="UTF-8" standalone="no"?>
<svg xmlns:xlink="http://www.w3.org/1999/xlink" height="152.5px" width="94.8px" xmlns="http://www.w3.org/2000/svg">
  <g transform="matrix(1.0, 0.0, 0.0, 1.0, -3.6, 7.0)">
    <path d="M49.1 -7.0 Q42.3 0.15 40.85 5.65 39.4 9.3 39.9 15.55 41.4 31.25 59.65 41.5 L88.7 56.3 Q96.85 60.55 98.4 67.8 L97.25 84.45 Q98.1 102.9 72.9 108.75 102.1 97.65 94.45 70.95 94.6 60.65 78.75 53.5 L56.95 42.65 Q45.8 36.85 38.05 32.0 32.25 28.45 28.4 27.85 39.25 57.8 49.9 71.55 73.6 92.0 60.65 119.8 L60.5 122.55 Q58.35 130.0 48.2 138.25 38.45 146.15 27.85 145.45 17.2 144.2 9.55 138.3 1.55 133.1 4.35 125.7 7.9 117.65 19.05 111.6 29.6 105.85 39.5 107.05 49.4 108.05 55.3 112.2 57.1 113.2 58.25 114.75 64.25 98.25 57.4 84.35 53.6 77.45 44.55 71.7 43.95 67.8 40.35 62.1 31.2 50.45 26.25 32.6 21.2 14.7 44.75 -7.0 L49.1 -7.0" fill="#c6c6c6" fill-rule="evenodd" stroke="none"/>
  </g>
</svg>
