<?xml version="1.0" encoding="UTF-8" standalone="no"?>
<svg xmlns:xlink="http://www.w3.org/1999/xlink" height="31.9px" width="608.95px" xmlns="http://www.w3.org/2000/svg">
  <g transform="matrix(1.0, 0.0, 0.0, 1.0, 303.45, 6.0)">
    <path d="M-301.05 23.75 Q-301.85 22.25 -301.05 20.7 -161.95 -4.0 0.5 -4.0 163.5 -4.0 303.0 20.85 304.05 22.4 303.0 23.9 163.55 -1.0 0.5 -1.0 -162.0 -1.0 -301.05 23.75" fill="url(#gradient0)" fill-rule="evenodd" stroke="none"/>
    <path d="M-301.05 23.75 Q-162.0 -1.0 0.5 -1.0 163.55 -1.0 303.0 23.9 304.05 22.4 303.0 20.85 163.5 -4.0 0.5 -4.0 -161.95 -4.0 -301.05 20.7 -301.85 22.25 -301.05 23.75 Z" fill="none" stroke="#000000" stroke-linecap="round" stroke-linejoin="round" stroke-width="4.0"/>
    <path d="M-301.05 23.75 Q-302.3 22.5 -301.05 20.7 -161.95 -4.0 0.5 -4.0 163.5 -4.0 303.0 20.85 304.15 22.4 303.0 23.9 163.55 -1.0 0.5 -1.0 -162.0 -1.0 -301.05 23.75" fill="url(#gradient1)" fill-rule="evenodd" stroke="none"/>
  </g>
  <defs>
    <linearGradient gradientTransform="matrix(0.3687, 0.0, 0.0, 0.017, 0.95, 9.95)" gradientUnits="userSpaceOnUse" id="gradient0" spreadMethod="pad" x1="-819.2" x2="819.2">
      <stop offset="0.0" stop-color="#959595"/>
      <stop offset="0.19607843137254902" stop-color="#ffffff"/>
      <stop offset="0.5058823529411764" stop-color="#ffffff"/>
      <stop offset="0.8274509803921568" stop-color="#ffffff"/>
      <stop offset="1.0" stop-color="#959595"/>
    </linearGradient>
    <linearGradient gradientTransform="matrix(0.3687, 0.0, 0.0, 0.017, 0.95, 9.95)" gradientUnits="userSpaceOnUse" id="gradient1" spreadMethod="pad" x1="-819.2" x2="819.2">
      <stop offset="0.0" stop-color="#959595"/>
      <stop offset="0.19607843137254902" stop-color="#ffffff"/>
      <stop offset="0.5058823529411764" stop-color="#ffffff"/>
      <stop offset="0.8274509803921568" stop-color="#ffffff"/>
      <stop offset="1.0" stop-color="#959595"/>
    </linearGradient>
  </defs>
</svg>
