<?xml version="1.0" encoding="UTF-8" standalone="no"?>
<svg xmlns:xlink="http://www.w3.org/1999/xlink" height="104.0px" width="62.0px" xmlns="http://www.w3.org/2000/svg">
  <g transform="matrix(1.0, 0.0, 0.0, 1.0, 3.0, 15.0)">
    <path d="M59.0 -12.0 L59.0 86.0 Q59.0 89.0 56.0 89.0 L0.0 89.0 Q-3.0 89.0 -3.0 86.0 L-3.0 -12.0 Q-3.0 -15.0 0.0 -15.0 L56.0 -15.0 Q59.0 -15.0 59.0 -12.0 M54.0 1.0 L2.0 1.0 Q1.0 1.0 1.0 2.0 L1.0 84.0 Q1.0 85.0 2.0 85.0 L54.0 85.0 Q55.0 85.0 55.0 84.0 L55.0 2.0 Q55.0 1.0 54.0 1.0" fill="#000000" fill-rule="evenodd" stroke="none"/>
    <path d="M56.0 -14.0 Q58.0 -14.0 58.0 -12.0 L58.0 86.0 Q58.0 88.0 56.0 88.0 L0.0 88.0 Q-2.0 88.0 -2.0 86.0 L-2.0 -12.0 Q-2.0 -14.0 0.0 -14.0 L56.0 -14.0 M54.0 0.0 L2.0 0.0 Q0.0 0.0 0.0 2.0 L0.0 84.0 Q0.0 86.0 2.0 86.0 L54.0 86.0 Q56.0 86.0 56.0 84.0 L56.0 2.0 Q56.0 0.0 54.0 0.0" fill="#ff00ff" fill-rule="evenodd" stroke="none"/>
  </g>
</svg>
