<?xml version="1.0" encoding="UTF-8" standalone="no"?>
<svg xmlns:xlink="http://www.w3.org/1999/xlink" height="13.85px" width="6.2px" xmlns="http://www.w3.org/2000/svg">
  <g transform="matrix(1.0, 0.0, 0.0, 1.0, -20.7, -17.7)">
    <path d="M26.8 18.55 L25.65 18.65 25.3 19.05 25.2 22.05 25.2 27.2 25.3 30.25 25.65 30.6 26.8 30.7 26.9 30.8 26.9 31.45 26.8 31.55 23.8 31.5 20.8 31.55 20.7 31.45 20.7 30.8 20.8 30.7 21.95 30.6 22.25 30.25 22.4 27.2 22.4 22.05 22.25 19.05 21.95 18.65 20.8 18.55 20.7 18.45 20.7 17.8 20.8 17.7 23.8 17.8 26.8 17.7 26.9 17.8 26.9 18.45 26.8 18.55" fill="#ffffff" fill-rule="evenodd" stroke="none"/>
  </g>
</svg>
