<?xml version="1.0" encoding="UTF-8" standalone="no"?>
<svg xmlns:xlink="http://www.w3.org/1999/xlink" height="64.0px" width="760.0px" xmlns="http://www.w3.org/2000/svg">
  <g transform="matrix(1.0, 0.0, 0.0, 1.0, 0.0, 0.0)">
    <path d="M436.0 0.0 L760.0 0.0 760.0 64.0 436.0 64.0 405.0 33.0 404.0 32.0 405.0 31.0 436.0 0.0 M414.95 64.0 L392.85 64.0 360.85 32.0 392.85 0.0 414.95 0.0 384.2 32.25 414.95 64.0" fill="#000000" fill-rule="evenodd" stroke="none"/>
    <path d="M436.0 64.0 L414.95 64.0 384.2 32.25 414.95 0.0 436.0 0.0 405.0 31.0 404.0 32.0 405.0 33.0 436.0 64.0 M392.85 64.0 L0.0 64.0 0.0 0.0 392.85 0.0 360.85 32.0 392.85 64.0" fill="#004dfb" fill-rule="evenodd" stroke="none"/>
  </g>
</svg>
