<?xml version="1.0" encoding="UTF-8" standalone="no"?>
<svg xmlns:xlink="http://www.w3.org/1999/xlink" height="107.0px" width="107.4px" xmlns="http://www.w3.org/2000/svg">
  <g transform="matrix(1.0, 0.0, 0.0, 1.0, 53.35, 53.05)">
    <path d="M39.85 -17.45 Q40.9 -12.3 39.25 -6.35 38.45 -3.4 37.45 -1.45 32.0 10.3 18.0 16.3 L17.8 16.4 Q3.05 22.7 -15.2 19.45 -23.0 17.9 -28.4 20.7 -32.4 22.8 -33.4 27.0 -34.35 31.2 -32.0 35.05 -30.1 38.1 -26.45 40.25 -24.6 41.3 -23.15 41.75 0.65 50.0 19.85 41.6 36.7 34.1 43.2 17.3 L43.25 17.1 Q49.45 0.6 41.55 -14.5 L39.85 -17.45 M11.5 -49.85 L12.8 -51.55 Q13.15 -52.45 14.05 -52.8 L15.85 -52.9 Q18.55 -52.05 19.45 -49.8 L19.6 -48.35 Q19.6 -47.05 16.75 -44.35 39.45 -36.05 48.65 -18.2 58.3 0.15 50.7 20.0 46.8 30.2 40.45 36.95 33.8 44.05 23.1 48.9 1.45 58.75 -25.8 49.3 -34.6 46.2 -38.8 39.25 -42.95 32.35 -41.15 25.15 -39.4 17.5 -32.15 13.65 -24.85 9.6 -13.75 11.6 1.95 14.4 14.65 9.05 L14.85 8.95 Q25.8 4.25 30.2 -4.85 34.3 -13.55 29.9 -22.0 L29.75 -22.25 Q24.45 -31.7 10.7 -37.65 L8.55 -37.4 6.7 -37.65 Q4.1 -35.45 2.0 -35.5 L0.95 -35.55 -0.65 -34.0 0.5 -32.8 Q2.25 -30.9 1.9 -28.8 1.55 -26.65 -1.05 -25.3 L-2.9 -25.05 -5.7 -26.0 Q-5.75 -24.5 -6.7 -23.6 L-7.25 -23.05 Q-8.3 -22.05 -9.6 -22.05 L-8.25 -20.35 -8.05 -20.2 Q-6.4 -18.9 -7.25 -16.0 -7.5 -15.0 -8.0 -14.1 L-8.0 -13.45 Q-8.05 -5.4 -13.75 0.35 -18.65 5.15 -25.2 5.9 L-25.4 6.3 -26.15 7.05 Q-28.65 8.65 -31.25 7.85 L-34.35 6.65 Q-38.5 5.8 -45.85 11.15 L-47.95 12.3 Q-50.05 12.85 -51.9 10.95 -53.85 8.9 -53.2 6.7 L-52.15 4.85 Q-46.85 -2.5 -47.6 -6.6 L-48.85 -9.75 Q-49.65 -12.35 -48.05 -14.8 L-47.45 -15.4 -46.85 -15.8 Q-46.15 -22.35 -41.3 -27.2 -35.6 -32.95 -27.5 -33.0 L-26.9 -33.0 -24.95 -33.75 Q-22.1 -34.6 -20.75 -32.9 L-20.6 -32.7 Q-19.9 -31.85 -18.95 -31.4 -18.95 -32.7 -17.9 -33.7 L-17.35 -34.25 Q-16.5 -35.25 -15.0 -35.3 L-16.05 -38.2 Q-16.1 -39.0 -15.65 -39.95 -14.55 -42.1 -12.9 -42.75 -10.7 -43.65 -8.15 -41.5 L-7.0 -40.35 -6.25 -41.1 -6.5 -43.0 Q-6.5 -46.75 -3.65 -48.6 -0.6 -50.8 3.25 -49.45 5.35 -48.75 6.25 -48.15 L8.5 -48.5 10.2 -48.4 11.5 -49.85" fill="#000000" fill-rule="evenodd" stroke="none"/>
    <path d="M12.7 -47.4 Q14.45 -49.2 15.05 -50.55 16.6 -50.05 17.15 -48.8 17.0 -47.95 14.75 -45.9 12.35 -43.7 10.4 -43.0 L9.75 -44.6 12.7 -47.4" fill="url(#gradient0)" fill-rule="evenodd" stroke="none"/>
    <path d="M4.3 -43.75 L2.5 -44.6 -0.6 -44.65 -0.65 -44.6 Q-1.45 -43.95 -1.5 -43.0 -1.45 -42.1 -0.65 -41.4 L-0.6 -41.4 Q0.45 -40.5 2.0 -40.5 2.75 -40.5 4.0 -41.35 5.15 -42.2 5.2 -42.7 5.15 -43.15 4.3 -43.75 M5.6 -40.0 Q3.25 -38.0 2.0 -38.0 -0.5 -38.0 -2.25 -39.5 -4.0 -40.95 -4.0 -43.0 -4.0 -45.35 -2.25 -46.55 -0.2 -47.95 2.5 -47.1 4.15 -46.6 6.0 -45.35 8.0 -43.95 8.0 -43.0 8.0 -42.0 5.6 -40.0" fill="url(#gradient1)" fill-rule="evenodd" stroke="none"/>
    <path d="M9.5 -42.5 Q35.3 -35.05 45.1 -16.35 53.9 0.4 46.9 18.75 39.85 37.1 21.45 45.25 0.95 54.35 -24.5 45.5 -31.85 42.95 -35.4 37.15 -38.65 31.75 -37.3 26.05 -35.9 20.15 -30.3 17.15 -24.0 13.8 -14.5 15.5 2.5 18.55 16.2 12.7 28.85 7.35 33.8 -3.15 38.85 -13.8 33.25 -24.2 27.0 -35.7 9.5 -42.5 Z" fill="none" stroke="url(#gradient2)" stroke-linecap="round" stroke-linejoin="round" stroke-width="3.0"/>
    <path d="M9.25 -46.0 Q10.35 -46.0 10.35 -44.9 L10.35 -41.1 Q10.35 -40.0 9.25 -40.0 L8.1 -40.0 Q7.0 -40.0 7.0 -41.1 L7.0 -44.9 Q7.0 -46.0 8.1 -46.0 L9.25 -46.0" fill="url(#gradient3)" fill-rule="evenodd" stroke="none"/>
  </g>
  <defs>
    <linearGradient gradientTransform="matrix(0.0054, -0.0033, 0.0022, 0.0037, 13.45, -47.55)" gradientUnits="userSpaceOnUse" id="gradient0" spreadMethod="pad" x1="-819.2" x2="819.2">
      <stop offset="0.0" stop-color="#4f3722"/>
      <stop offset="0.8862745098039215" stop-color="#806440"/>
    </linearGradient>
    <radialGradient cx="0" cy="0" gradientTransform="matrix(0.007, 0.0, 0.0, 0.0082, 0.85, -43.95)" gradientUnits="userSpaceOnUse" id="gradient1" r="819.2" spreadMethod="pad">
      <stop offset="0.25882352941176473" stop-color="#806440"/>
      <stop offset="0.7843137254901961" stop-color="#684f2d"/>
      <stop offset="0.9725490196078431" stop-color="#4f3722"/>
    </radialGradient>
    <radialGradient cx="0" cy="0" gradientTransform="matrix(0.0661, 0.0, 0.0, 0.0661, 4.5, 10.75)" gradientUnits="userSpaceOnUse" id="gradient2" r="819.2" spreadMethod="pad">
      <stop offset="0.2627450980392157" stop-color="#96704b"/>
      <stop offset="0.7843137254901961" stop-color="#684f2d"/>
      <stop offset="0.9725490196078431" stop-color="#4f3722"/>
    </radialGradient>
    <radialGradient cx="0" cy="0" gradientTransform="matrix(0.0026, 0.0, 0.0, 0.0058, 8.7, -43.0)" gradientUnits="userSpaceOnUse" id="gradient3" r="819.2" spreadMethod="pad">
      <stop offset="0.25882352941176473" stop-color="#806440"/>
      <stop offset="0.7843137254901961" stop-color="#684f2d"/>
    </radialGradient>
  </defs>
</svg>
