<?xml version="1.0" encoding="UTF-8" standalone="no"?>
<svg xmlns:xlink="http://www.w3.org/1999/xlink" height="75.0px" width="34.0px" xmlns="http://www.w3.org/2000/svg">
  <g transform="matrix(1.0, 0.0, 0.0, 1.0, 17.0, 37.0)">
    <path d="M12.0 -7.05 Q17.0 -2.05 17.0 5.0 17.0 12.05 12.0 17.0 7.05 22.0 0.0 22.0 -7.05 22.0 -12.05 17.0 -17.0 12.05 -17.0 5.0 -17.0 -2.05 -12.05 -7.05 -7.05 -12.0 0.0 -12.0 7.05 -12.0 12.0 -7.05" fill="#ff6a6a" fill-rule="evenodd" stroke="none"/>
    <path d="M11.3 -6.35 Q16.0 -1.65 16.0 5.0 16.0 11.65 11.3 16.3 6.65 21.0 0.0 21.0 -6.65 21.0 -11.35 16.3 -16.0 11.65 -16.0 5.0 -16.0 -1.65 -11.35 -6.35 -6.65 -11.0 0.0 -11.0 6.65 -11.0 11.3 -6.35" fill="url(#gradient0)" fill-rule="evenodd" stroke="none"/>
    <path d="M-8.25 -3.05 Q-11.6 0.3 -11.6 5.0 -11.6 9.7 -8.25 13.05 -4.9 16.4 -0.2 16.4 4.5 16.4 7.85 13.05 11.2 9.7 11.2 5.0 11.2 0.3 7.85 -3.05 4.5 -6.4 -0.2 -6.4 -4.9 -6.4 -8.25 -3.05 M-0.2 -11.2 Q6.5 -11.2 11.25 -6.45 16.0 -1.7 16.0 5.0 16.0 11.7 11.25 16.45 6.5 21.2 -0.2 21.2 -6.9 21.2 -11.65 16.45 -16.4 11.7 -16.4 5.0 -16.4 -1.7 -11.65 -6.45 -6.9 -11.2 -0.2 -11.2" fill="url(#gradient1)" fill-rule="evenodd" stroke="none"/>
    <path d="M-0.4 -10.7 L-4.5 -7.55 Q-10.8 -1.75 -10.85 5.85 -10.9 14.2 -4.55 18.95 -1.45 21.25 1.0 21.9 -5.95 21.9 -10.9 17.0 -15.8 12.05 -15.8 5.1 -15.8 -1.85 -10.9 -6.8 -5.95 -11.7 1.0 -11.7 L-0.4 -10.7" fill="url(#gradient2)" fill-rule="evenodd" stroke="none"/>
    <path d="M11.25 20.5 Q9.3 21.2 8.15 21.85 3.65 24.45 2.0 35.0 1.7 37.0 0.0 37.0 -1.7 37.0 -2.0 35.0 -3.65 24.45 -8.15 21.85 -9.3 21.2 -11.25 20.5 -12.65 19.75 -13.0 18.0 -12.8 17.1 -12.0 17.0 L0.0 17.0 12.0 17.0 Q12.8 17.1 13.0 18.0 12.65 19.75 11.25 20.5" fill="url(#gradient3)" fill-rule="evenodd" stroke="none"/>
    <path d="M7.15 24.05 L6.0 26.0 -5.6 26.0 Q-5.8 24.4 -6.15 24.05 L-6.0 24.0 7.0 24.0 7.15 24.05" fill="#000000" fill-opacity="0.2901961" fill-rule="evenodd" stroke="none"/>
    <path d="M11.0 -8.0 L-11.0 -8.0 Q-10.95 -9.05 -10.35 -10.0 -9.75 -11.05 -9.0 -11.0 -6.85 -10.85 -5.0 -11.7 -3.0 -12.65 -3.0 -14.0 -3.25 -14.7 -4.0 -15.0 L0.0 -15.0 4.0 -15.0 Q3.25 -14.7 3.0 -14.0 3.0 -12.65 5.0 -11.7 6.85 -10.85 9.0 -11.0 9.75 -11.05 10.35 -10.0 10.95 -9.05 11.0 -8.0" fill="url(#gradient4)" fill-rule="evenodd" stroke="none"/>
    <path d="M6.0 -12.0 L-6.0 -12.0 -4.0 -16.0 4.0 -16.0 6.0 -12.0" fill="#000000" fill-opacity="0.2" fill-rule="evenodd" stroke="none"/>
    <path d="M4.7 -17.7 L5.0 -16.9 5.0 -16.1 4.7 -15.35 Q4.35 -15.0 3.9 -15.0 L-3.9 -15.0 Q-4.35 -15.0 -4.7 -15.35 L-5.0 -16.1 -5.0 -16.9 -4.7 -17.7 Q-4.35 -18.0 -3.9 -18.0 L3.9 -18.0 Q4.35 -18.0 4.7 -17.7" fill="url(#gradient5)" fill-rule="evenodd" stroke="none"/>
    <path d="M3.0 -18.0 L0.0 -18.0 -3.0 -18.0 -3.0 -19.0 Q-3.05 -20.65 -5.35 -21.5 -7.8 -22.4 -8.0 -23.0 -8.45 -24.4 -7.9 -25.2 -7.35 -25.95 -6.0 -26.0 L0.0 -26.0 6.0 -26.0 Q7.35 -25.95 7.9 -25.2 8.45 -24.4 8.0 -23.0 7.8 -22.4 5.35 -21.5 3.05 -20.65 3.0 -19.0 L3.0 -18.0" fill="url(#gradient6)" fill-rule="evenodd" stroke="none"/>
    <path d="M1.0 -26.0 L-1.0 -26.0 -1.0 -27.0 1.0 -27.0 1.0 -26.0" fill="url(#gradient7)" fill-rule="evenodd" stroke="none"/>
    <path d="M2.0 -27.65 Q2.0 -27.15 1.3 -26.8 L0.0 -26.55 -1.3 -26.8 Q-2.0 -27.15 -2.0 -27.65 L-2.0 -35.9 Q-2.0 -36.4 -1.3 -36.75 L0.0 -37.0 1.3 -36.75 Q2.0 -36.4 2.0 -35.9 L2.0 -27.65" fill="url(#gradient8)" fill-rule="evenodd" stroke="none"/>
    <path d="M12.0 17.0 Q12.8 17.1 13.0 18.0 L-13.0 18.0 Q-12.8 17.1 -12.0 17.0 L12.0 17.0" fill="url(#gradient9)" fill-rule="evenodd" stroke="none"/>
    <path d="M1.4 35.65 Q0.85 38.0 0.0 38.0 -0.85 38.0 -1.45 35.65 -1.6 34.95 -3.85 29.55 L-6.0 24.0 6.0 24.0 3.85 29.55 1.4 35.65" fill="url(#gradient10)" fill-rule="evenodd" stroke="none"/>
  </g>
  <defs>
    <radialGradient cx="0" cy="0" fx="44.800000000000004" fy="0" gradientTransform="matrix(0.0197, 0.0218, -0.0222, 0.0201, -6.0, -2.0)" gradientUnits="userSpaceOnUse" id="gradient0" r="819.2" spreadMethod="pad">
      <stop offset="0.07450980392156863" stop-color="#ffffff"/>
      <stop offset="0.10196078431372549" stop-color="#ff8080"/>
      <stop offset="0.1843137254901961" stop-color="#ff4040"/>
      <stop offset="0.3333333333333333" stop-color="#ff0000"/>
      <stop offset="0.7647058823529411" stop-color="#ea0000"/>
      <stop offset="0.9294117647058824" stop-color="#f00000"/>
      <stop offset="1.0" stop-color="#ff1515"/>
    </radialGradient>
    <linearGradient gradientTransform="matrix(0.0221, 0.0068, -0.006, 0.0195, -0.2, 5.0)" gradientUnits="userSpaceOnUse" id="gradient1" spreadMethod="pad" x1="-819.2" x2="819.2">
      <stop offset="0.6352941176470588" stop-color="#ffffff" stop-opacity="0.0"/>
      <stop offset="0.9215686274509803" stop-color="#ffffff" stop-opacity="0.34117648"/>
    </linearGradient>
    <linearGradient gradientTransform="matrix(-0.007, -0.0058, -0.0126, 0.0154, -16.8, 7.95)" gradientUnits="userSpaceOnUse" id="gradient2" spreadMethod="pad" x1="-819.2" x2="819.2">
      <stop offset="0.1568627450980392" stop-color="#ffffff" stop-opacity="0.0"/>
      <stop offset="0.3803921568627451" stop-color="#ffffff" stop-opacity="0.0"/>
      <stop offset="0.4627450980392157" stop-color="#ffffff" stop-opacity="0.019607844"/>
      <stop offset="1.0" stop-color="#ffffff" stop-opacity="0.2901961"/>
    </linearGradient>
    <radialGradient cx="0" cy="0" gradientTransform="matrix(0.0195, 0.0, 0.0, 0.0084, 0.0, 17.0)" gradientUnits="userSpaceOnUse" id="gradient3" r="819.2" spreadMethod="pad">
      <stop offset="0.0" stop-color="#e2e2e2"/>
      <stop offset="0.2196078431372549" stop-color="#dbdbdb"/>
      <stop offset="0.4470588235294118" stop-color="#959595"/>
      <stop offset="0.7490196078431373" stop-color="#585858"/>
      <stop offset="0.7647058823529411" stop-color="#585858"/>
    </radialGradient>
    <radialGradient cx="0" cy="0" gradientTransform="matrix(0.0146, 0.0, 0.0, 0.0073, 0.0, -9.0)" gradientUnits="userSpaceOnUse" id="gradient4" r="819.2" spreadMethod="pad">
      <stop offset="0.07450980392156863" stop-color="#f0f0f0"/>
      <stop offset="0.37254901960784315" stop-color="#cdcdcd"/>
      <stop offset="0.6549019607843137" stop-color="#808080"/>
      <stop offset="0.8274509803921568" stop-color="#585858"/>
      <stop offset="0.9568627450980393" stop-color="#636363"/>
    </radialGradient>
    <radialGradient cx="0" cy="0" gradientTransform="matrix(0.0073, 0.0, 0.0, 0.0044, 0.0, -16.5)" gradientUnits="userSpaceOnUse" id="gradient5" r="819.2" spreadMethod="pad">
      <stop offset="0.023529411764705882" stop-color="#e6e6e6"/>
      <stop offset="0.23137254901960785" stop-color="#d0d0d0"/>
      <stop offset="0.9176470588235294" stop-color="#4a4a4a"/>
    </radialGradient>
    <radialGradient cx="0" cy="0" gradientTransform="matrix(0.0122, 0.0, 0.0, 0.0049, 0.0, -24.65)" gradientUnits="userSpaceOnUse" id="gradient6" r="819.2" spreadMethod="pad">
      <stop offset="0.09803921568627451" stop-color="#ffffff"/>
      <stop offset="0.23137254901960785" stop-color="#d8d8d8"/>
      <stop offset="0.6666666666666666" stop-color="#666666"/>
      <stop offset="0.9450980392156862" stop-color="#4a4a4a"/>
    </radialGradient>
    <linearGradient gradientTransform="matrix(0.0012, 0.0, 0.0, 6.0E-4, 0.0, -26.5)" gradientUnits="userSpaceOnUse" id="gradient7" spreadMethod="pad" x1="-819.2" x2="819.2">
      <stop offset="0.09803921568627451" stop-color="#4a4a4a"/>
      <stop offset="0.39215686274509803" stop-color="#636363"/>
      <stop offset="0.6509803921568628" stop-color="#636363"/>
      <stop offset="0.9176470588235294" stop-color="#4a4a4a"/>
    </linearGradient>
    <radialGradient cx="0" cy="0" gradientTransform="matrix(0.0031, 0.0, 0.0, 0.0101, 0.0, -33.0)" gradientUnits="userSpaceOnUse" id="gradient8" r="819.2" spreadMethod="pad">
      <stop offset="0.00784313725490196" stop-color="#eaeaea"/>
      <stop offset="0.11764705882352941" stop-color="#d5d5d5"/>
      <stop offset="0.5607843137254902" stop-color="#7b7b7b"/>
      <stop offset="0.9098039215686274" stop-color="#515151"/>
    </radialGradient>
    <radialGradient cx="0" cy="0" gradientTransform="matrix(0.0167, 0.0, 0.0, 0.0167, 0.0, 17.5)" gradientUnits="userSpaceOnUse" id="gradient9" r="819.2" spreadMethod="pad">
      <stop offset="0.3607843137254902" stop-color="#dfdfdf"/>
      <stop offset="0.6039215686274509" stop-color="#b8b8b8"/>
      <stop offset="0.807843137254902" stop-color="#757575"/>
      <stop offset="0.9607843137254902" stop-color="#555555"/>
    </radialGradient>
    <radialGradient cx="0" cy="0" fx="486.40000000000003" fy="0" gradientTransform="matrix(0.0, 0.0122, -0.0034, 0.0, 0.0, 28.0)" gradientUnits="userSpaceOnUse" id="gradient10" r="819.2" spreadMethod="pad">
      <stop offset="0.0784313725490196" stop-color="#e2e2e2" stop-opacity="0.9137255"/>
      <stop offset="0.1843137254901961" stop-color="#b0b0b0" stop-opacity="0.7921569"/>
      <stop offset="0.8588235294117647" stop-color="#838383" stop-opacity="0.0"/>
    </radialGradient>
  </defs>
</svg>
