<?xml version="1.0" encoding="UTF-8" standalone="no"?>
<svg xmlns:xlink="http://www.w3.org/1999/xlink" height="55.35px" width="68.0px" xmlns="http://www.w3.org/2000/svg">
  <g transform="matrix(1.0, 0.0, 0.0, 1.0, 34.0, 26.0)">
    <path d="M23.8 -18.6 Q34.05 -10.9 34.0 0.0 34.05 10.9 23.8 18.55 L22.15 19.75 23.0 24.7 Q23.55 28.4 21.6 28.95 L21.65 28.95 Q20.7 29.75 18.3 28.9 L18.1 28.8 10.9 24.7 Q5.8 26.0 0.0 26.0 -13.95 26.0 -23.85 18.55 -34.05 10.9 -34.0 0.0 -34.05 -10.9 -23.85 -18.6 -13.95 -26.0 0.0 -26.0 13.95 -26.0 23.8 -18.6" fill="#ffffff" fill-rule="evenodd" stroke="none"/>
    <path d="M22.6 -17.0 Q32.0 -9.95 32.0 0.0 32.0 9.95 22.6 16.95 L19.9 18.8 21.0 25.0 Q21.3 26.85 20.65 27.2 L19.0 27.0 11.2 22.55 Q6.0 24.0 0.0 24.0 -13.25 24.0 -22.65 16.95 -32.0 9.95 -32.0 0.0 -32.0 -9.95 -22.65 -17.0 -13.25 -24.0 0.0 -24.0 13.25 -24.0 22.6 -17.0" fill="url(#gradient0)" fill-rule="evenodd" stroke="none"/>
  </g>
  <defs>
    <linearGradient gradientTransform="matrix(0.0, 0.0293, -0.0313, 0.0, 0.0, 0.0)" gradientUnits="userSpaceOnUse" id="gradient0" spreadMethod="pad" x1="-819.2" x2="819.2">
      <stop offset="0.0" stop-color="#0b0b0b"/>
      <stop offset="1.0" stop-color="#383838"/>
    </linearGradient>
  </defs>
</svg>
