<?xml version="1.0" encoding="UTF-8" standalone="no"?>
<svg xmlns:xlink="http://www.w3.org/1999/xlink" height="6.0px" width="16.0px" xmlns="http://www.w3.org/2000/svg">
  <g transform="matrix(1.0, 0.0, 0.0, 1.0, 18.0, 3.0)">
    <path d="M-12.9 -2.15 Q-12.0 -1.25 -12.0 0.0 -12.0 1.25 -12.9 2.1 -13.75 3.0 -15.0 3.0 -16.25 3.0 -17.15 2.1 -18.0 1.25 -18.0 0.0 -18.0 -1.25 -17.15 -2.15 -16.25 -3.0 -15.0 -3.0 -13.75 -3.0 -12.9 -2.15 M-2.9 -2.15 Q-2.0 -1.25 -2.0 0.0 -2.0 1.25 -2.9 2.1 -3.75 3.0 -5.0 3.0 -6.25 3.0 -7.15 2.1 -8.0 1.25 -8.0 0.0 -8.0 -1.25 -7.15 -2.15 -6.25 -3.0 -5.0 -3.0 -3.75 -3.0 -2.9 -2.15" fill="#cccccc" fill-rule="evenodd" stroke="none"/>
  </g>
</svg>
