<?xml version="1.0" encoding="UTF-8" standalone="no"?>
<svg xmlns:xlink="http://www.w3.org/1999/xlink" height="240.0px" width="168.0px" xmlns="http://www.w3.org/2000/svg">
  <g transform="matrix(1.0, 0.0, 0.0, 1.0, 0.5, 0.5)">
    <path d="M165.0 0.0 Q167.0 0.0 167.0 2.0 L167.0 237.0 Q167.0 239.0 165.0 239.0 L2.0 239.0 Q0.0 239.0 0.0 237.0 L0.0 2.0 Q0.0 0.0 2.0 0.0 L165.0 0.0" fill="#c4c4c4" fill-rule="evenodd" stroke="none"/>
    <path d="M165.0 0.0 L2.0 0.0 Q0.0 0.0 0.0 2.0 L0.0 237.0 Q0.0 239.0 2.0 239.0 L165.0 239.0 Q167.0 239.0 167.0 237.0 L167.0 2.0 Q167.0 0.0 165.0 0.0 Z" fill="none" stroke="#000000" stroke-linecap="round" stroke-linejoin="round" stroke-width="1.0"/>
  </g>
</svg>
