<?xml version="1.0" encoding="UTF-8" standalone="no"?>
<svg xmlns:xlink="http://www.w3.org/1999/xlink" height="50.6px" width="53.7px" xmlns="http://www.w3.org/2000/svg">
  <g transform="matrix(1.0, 0.0, 0.0, 1.0, 27.35, 0.75)">
    <path d="M-16.15 1.25 L-16.0 0.85 -15.9 0.35 -15.75 0.1 -15.65 -0.4 14.6 -0.4 14.6 0.1 14.75 0.25 15.0 1.25 15.1 1.35 15.1 1.6 15.25 1.85 15.25 2.1 15.35 2.5 15.5 3.25 15.5 3.35 15.6 3.6 15.6 3.75 15.75 4.5 15.6 4.85 16.0 5.0 16.1 5.5 16.25 5.85 16.85 8.0 17.0 8.35 17.1 8.85 18.0 11.75 18.0 12.25 18.35 13.5 18.5 13.85 21.0 22.5 21.1 22.75 21.35 23.75 21.6 24.35 21.85 25.35 22.0 25.6 22.1 26.25 22.25 26.6 22.35 27.1 22.75 28.25 22.85 28.75 23.0 29.1 24.25 33.35 26.0 38.6 25.0 49.5 -26.0 49.5 -27.0 39.0 -26.65 37.25 -26.5 37.1 -26.4 36.6 -26.25 36.25 -26.15 35.75 -26.15 35.6 -17.9 7.4 -16.4 2.5 -16.5 2.5 -16.25 2.1 -16.4 2.1 -16.25 1.85 -16.15 1.6 -16.15 1.35 -16.0 1.25 -16.15 1.25" fill="#2e2724" fill-rule="evenodd" stroke="none"/>
    <path d="M15.0 1.25 L15.1 1.25 15.1 1.35 15.0 1.25 M15.25 2.1 L15.35 2.1 15.35 2.5 15.5 2.5 15.5 3.25 15.35 2.5 15.25 2.1 M15.6 3.75 L16.0 4.5 16.6 6.6 17.6 10.0 17.75 10.35 18.6 13.35 19.6 16.75 19.75 17.1 20.35 19.25 20.5 19.6 20.6 20.1 21.5 23.0 21.6 23.5 21.75 23.85 22.35 26.0 22.5 26.35 22.6 26.85 22.75 27.25 23.35 29.35 26.0 38.6 24.25 33.35 23.0 29.1 22.85 28.75 22.75 28.25 22.35 27.1 22.25 26.6 22.1 26.25 22.0 25.6 21.85 25.35 21.6 24.35 21.35 23.75 21.1 22.75 21.0 22.5 18.5 13.85 18.35 13.5 18.0 12.25 18.0 11.75 17.1 8.85 17.0 8.35 16.85 8.0 16.25 5.85 16.1 5.5 16.0 5.0 15.6 4.85 15.75 4.5 15.6 3.75" fill="#040303" fill-rule="evenodd" stroke="none"/>
    <path d="M-17.9 7.4 L-16.5 2.5 -16.4 2.1 -16.25 2.1 -16.5 2.5 -16.4 2.5 -17.9 7.4 M-16.15 1.35 L-16.15 1.25 -16.0 1.25 -16.15 1.35" fill="#38302d" fill-rule="evenodd" stroke="none"/>
    <path d="M-15.65 -0.4 L14.6 -0.4 14.6 0.1 14.75 0.25 15.0 1.25 15.1 1.25 15.1 1.35 15.1 1.6 15.25 1.85 15.25 2.1 15.35 2.1 15.35 2.5 15.5 2.5 15.5 3.25 15.5 3.35 15.6 3.6 15.6 3.75 16.0 4.5 16.6 6.6 17.6 10.0 17.75 10.35 19.6 16.75 19.75 17.1 20.35 19.25 20.5 19.6 20.6 20.1 21.5 23.0 21.6 23.5 21.75 23.85 22.35 26.0 22.5 26.35 22.6 26.85 22.75 27.25 23.35 29.35 26.0 38.6 25.0 49.5 -26.0 49.5 -27.0 39.0 -26.65 37.25 -26.5 37.1 -26.4 36.6 -26.25 36.25 -26.15 35.75 -26.15 35.6 -17.9 7.4 -16.5 2.5 -16.4 2.1 -16.25 1.85 -16.15 1.6 -16.15 1.35 -16.15 1.25 -16.0 0.85 -15.9 0.35 -15.75 0.1 -15.65 -0.4 M-16.15 1.35 L-16.0 1.25 -16.15 1.25 M-16.4 2.1 L-16.25 2.1 -16.5 2.5 -16.4 2.5 -17.0 4.5 15.75 4.5 15.6 3.75 M-17.0 4.5 L-17.9 7.4 M15.1 1.35 L15.0 1.25 M15.25 2.1 L15.35 2.5 15.5 3.25 M26.0 38.6 L23.0 29.1 22.85 28.75 22.75 28.25 22.35 27.1 22.25 26.6 22.1 26.25 22.0 25.6 21.85 25.35 21.6 24.35 21.35 23.75 21.1 22.75 21.0 22.5 18.5 13.85 18.35 13.5 18.0 12.25 18.0 11.75 17.1 8.85 17.0 8.35 16.85 8.0 16.25 5.85 16.1 5.5 16.0 5.0 15.6 4.85 15.75 4.5 M14.6 0.1 L-15.75 0.1" fill="none" stroke="#000000" stroke-linecap="round" stroke-linejoin="round" stroke-width="0.7000000000000001"/>
  </g>
</svg>
