<?xml version="1.0" encoding="UTF-8" standalone="no"?>
<svg xmlns:xlink="http://www.w3.org/1999/xlink" height="279.1px" width="479.8px" xmlns="http://www.w3.org/2000/svg">
  <g transform="matrix(1.0, 0.0, 0.0, 1.0, 240.35, 93.5)">
    <path d="M27.25 -55.9 L18.1 49.5 -19.25 49.5 -28.25 -55.65 -17.65 -93.15 16.6 -93.15 27.25 -55.9" fill="#2e2724" fill-rule="evenodd" stroke="none"/>
    <path d="M-19.25 49.5 L-28.25 -55.65 -17.65 -93.15 16.6 -93.15 27.25 -55.9 18.1 49.5" fill="none" stroke="#000000" stroke-linecap="round" stroke-linejoin="round" stroke-width="0.7000000000000001"/>
    <path d="M148.6 -39.75 L148.1 -39.75 127.35 -38.9 97.35 -40.9 120.75 -41.75 150.35 -39.9 148.6 -39.75 M-151.4 -39.9 L-118.0 -41.65 -98.4 -40.9 -128.5 -38.9 -149.15 -39.75 -149.65 -39.75 -151.4 -39.9 M-223.25 58.85 L-172.5 51.5 -168.15 69.75 -227.0 80.0 -223.4 60.1 -223.4 60.0 -223.25 59.6 -223.25 58.85 M-231.15 60.6 L-231.15 60.25 -224.9 59.1 -229.0 80.0 -236.4 81.25 -231.9 63.5 -231.75 63.1 -231.4 61.35 -231.15 60.6 M223.75 59.1 L230.0 60.1 230.1 60.35 234.85 79.25 235.0 79.6 235.0 80.0 235.25 81.25 227.85 80.1 227.85 80.0 224.25 61.85 224.1 61.75 224.1 61.25 223.75 59.35 223.75 59.1 M167.0 69.75 L171.5 51.5 222.25 58.85 225.35 75.35 225.35 75.75 225.5 76.0 225.6 76.75 225.75 77.25 226.0 79.75 225.75 79.6 167.0 69.75" fill="#2e2724" fill-rule="evenodd" stroke="none"/>
    <path d="M-160.0 4.5 L-153.0 -34.25 Q-152.5 -39.65 -151.4 -39.9 L-149.65 -39.75 -153.5 -18.4 -153.65 -18.0 -153.65 -17.65 -153.75 -17.4 -153.75 -17.0 -153.9 -16.75 -154.0 -15.65 -154.15 -15.4 -155.0 -10.15 -155.15 -9.75 -155.15 -9.4 -155.25 -9.15 -155.25 -8.75 -155.4 -8.5 -157.0 -0.15 -157.0 0.25 -157.15 0.5 -157.15 0.85 -157.25 1.1 -157.5 2.35 -157.5 3.1 -157.65 3.6 -157.65 4.1 -157.75 4.35 -157.75 4.75 -160.0 4.5 M-149.15 -39.75 L-128.5 -38.9 -136.65 7.25 -136.75 7.6 -136.75 7.85 -157.25 4.85 -152.9 -18.75 -152.9 -19.75 -149.15 -39.75" fill="#473c38" fill-rule="evenodd" stroke="none"/>
    <path d="M-127.25 77.85 L-147.25 72.0 -147.9 67.75 -147.9 67.1 -148.0 66.85 -148.25 65.25 -148.25 64.6 -148.4 64.35 -154.65 22.6 -154.65 22.25 -154.75 21.75 -154.75 21.35 -154.9 20.85 -154.9 20.5 -155.0 20.1 -155.0 19.6 -155.15 19.25 -155.15 18.75 -155.25 18.35 -155.25 18.0 -155.4 17.6 -155.4 17.1 -155.5 16.75 -155.5 16.25 -155.65 15.85 -155.65 15.35 -155.75 15.0 -155.75 14.5 -155.9 14.25 -155.9 13.6 -156.0 13.35 -156.0 12.75 -156.15 12.5 -156.4 10.85 -156.4 10.25 -156.5 10.0 -156.9 7.5 -156.9 7.0 -157.0 6.6 -157.0 6.25 -157.15 5.75 -157.25 4.85 -136.75 7.85 -136.75 8.0 -127.25 77.85 M-147.75 71.85 L-149.9 71.25 -160.0 4.5 -157.75 4.75 -157.75 4.85 -148.65 65.35 -148.65 66.1 -147.75 71.25 -147.75 71.85 M224.85 185.25 L217.6 183.1 219.35 170.25 219.35 169.85 219.5 169.35 219.75 167.5 219.75 167.1 219.85 166.5 219.85 165.85 220.0 165.6 220.5 161.75 227.85 163.75 227.75 164.5 227.75 165.25 227.6 165.5 227.6 166.1 227.5 166.6 227.5 166.85 227.5 167.0 227.0 170.6 226.85 170.85 226.85 171.5 226.75 171.85 226.75 172.35 226.6 172.85 226.6 173.25 226.5 174.1 224.85 185.25 M215.75 182.6 L157.35 165.25 159.1 145.1 159.1 145.25 218.6 161.25 216.6 175.85 216.6 176.6 216.5 176.85 216.5 177.6 216.35 177.85 216.35 178.5 216.25 178.85 216.25 179.5 216.1 179.85 216.1 180.35 216.0 180.85 216.0 181.35 215.85 181.85 215.85 182.25 215.75 182.6" fill="#3a312e" fill-rule="evenodd" stroke="none"/>
    <path d="M-147.25 72.0 L-147.75 71.85 -147.75 71.25 -148.65 66.1 -148.65 65.35 -157.75 4.85 -157.75 4.75 -157.65 4.85 -157.25 4.85 -157.15 5.75 -157.0 6.25 -157.0 6.6 -156.9 7.0 -156.9 7.5 -156.5 10.0 -156.4 10.25 -156.4 10.85 -156.15 12.5 -156.0 12.75 -156.0 13.35 -155.9 13.6 -155.9 14.25 -155.75 14.5 -155.75 15.0 -155.65 15.35 -155.65 15.85 -155.5 16.25 -155.5 16.75 -155.4 17.1 -155.4 17.6 -155.25 18.0 -155.25 18.35 -155.15 18.75 -155.15 19.25 -155.0 19.6 -155.0 20.1 -154.9 20.5 -154.9 20.85 -154.75 21.35 -154.75 21.75 -154.65 22.25 -154.65 22.6 -148.4 64.35 -148.25 64.6 -148.25 65.25 -148.0 66.85 -147.9 67.1 -147.9 67.75 -147.25 72.0 M217.6 183.1 L215.75 182.6 215.85 182.25 215.85 181.85 216.0 181.35 216.0 180.85 216.1 180.35 216.1 179.85 216.25 179.5 216.25 178.85 216.35 178.5 216.35 177.85 216.5 177.6 216.5 176.85 216.6 176.6 216.6 175.85 218.6 161.25 220.5 161.75 220.0 165.6 219.85 165.85 219.85 166.5 219.75 167.1 219.75 167.5 219.5 169.35 219.35 169.85 219.35 170.25 217.6 183.1" fill="#0c0b0a" fill-rule="evenodd" stroke="none"/>
    <path d="M148.1 -39.75 L151.85 -19.75 151.85 -18.75 152.0 -18.15 156.1 4.6 156.1 4.85 135.6 8.1 127.35 -38.9 148.1 -39.75 M156.6 4.75 L156.25 2.25 156.1 1.6 156.1 1.1 156.0 0.85 156.0 0.5 155.85 0.25 155.85 -0.15 155.75 -0.5 153.1 -15.4 153.0 -15.65 152.85 -16.75 152.75 -17.0 152.75 -17.4 152.6 -17.65 152.6 -18.0 152.5 -18.4 148.6 -39.75 150.35 -39.9 151.0 -39.65 159.0 4.5 156.6 4.75 M-168.15 69.75 L-160.15 145.1 -219.65 161.25 -225.75 94.5 -225.75 94.1 -225.9 93.1 -225.9 92.25 -226.0 91.75 -226.75 83.0 -226.9 82.1 -226.9 81.1 -227.0 80.75 -227.0 80.0 -168.15 69.75 M-236.4 81.25 L-229.0 80.0 -229.0 80.1 -222.75 147.0 -222.75 147.35 -222.65 149.25 -222.5 149.75 -222.25 152.35 -222.25 152.85 -222.15 154.75 -222.0 155.1 -221.75 160.25 -221.5 161.1 -221.5 161.75 -229.0 163.75 -236.25 83.1 -236.25 82.1 -236.5 81.75 -236.5 81.6 -236.4 81.25" fill="#1f1a18" fill-rule="evenodd" stroke="none"/>
    <path d="M148.1 -39.75 L148.6 -39.75 152.5 -18.4 152.6 -18.0 152.6 -17.65 152.75 -17.4 152.75 -17.0 152.85 -16.75 153.0 -15.65 153.1 -15.4 155.75 -0.5 155.85 -0.15 155.85 0.25 156.0 0.5 156.0 0.85 156.1 1.1 156.1 1.6 156.25 2.25 156.6 4.75 156.5 4.85 156.1 4.85 156.1 4.6 152.0 -18.15 151.85 -18.75 151.85 -19.75 148.1 -39.75 M-221.5 161.75 L-221.5 161.1 -221.75 160.25 -222.0 155.1 -222.15 154.75 -222.25 152.85 -222.25 152.35 -222.5 149.75 -222.65 149.25 -222.75 147.35 -222.75 147.0 -229.0 80.1 -229.0 80.0 -227.0 80.0 -227.0 80.75 -226.9 81.1 -226.9 82.1 -226.75 83.0 -226.0 91.75 -225.9 92.25 -225.9 93.1 -225.75 94.1 -225.75 94.5 -219.65 161.25 -221.5 161.75" fill="#060605" fill-rule="evenodd" stroke="none"/>
    <path d="M97.35 -40.9 L127.35 -38.9 135.6 8.1 126.1 77.85 86.35 61.0 85.85 -2.25 96.35 -40.9 97.35 -40.9" fill="#3d3431" fill-rule="evenodd" stroke="none"/>
    <path d="M126.1 77.85 L135.6 8.1 156.1 4.85 151.0 39.5 151.0 40.1 150.85 40.35 150.85 41.0 150.75 41.25 150.6 42.0 150.6 42.6 150.5 42.85 150.5 43.5 150.35 43.75 150.35 44.35 150.25 44.6 150.25 45.1 150.1 45.5 150.1 46.0 150.0 46.35 150.0 46.85 149.85 47.25 149.85 47.6 149.75 48.1 149.75 48.5 149.6 49.0 149.6 49.35 149.5 49.75 149.5 50.25 149.35 50.6 149.35 51.0 149.25 51.5 149.25 51.85 149.1 52.35 149.1 52.75 147.35 64.35 147.25 64.6 147.25 65.25 147.0 66.85 146.85 67.1 146.85 67.75 146.1 72.1 126.1 77.85 M146.75 71.85 L147.6 66.1 147.6 65.35 154.1 22.85 154.1 22.5 154.25 22.0 154.25 21.5 154.35 21.1 154.35 20.6 154.5 20.35 155.1 16.1 155.1 15.75 155.25 15.35 155.25 14.85 155.35 14.5 155.35 13.85 155.5 13.6 155.5 13.0 156.6 4.85 156.6 4.75 159.0 4.5 149.0 70.6 148.75 71.35 146.75 71.85 M-160.15 145.1 L-158.4 165.25 -216.75 182.6 -218.4 171.1 -218.4 170.75 -218.5 170.1 -218.5 169.75 -218.65 169.25 -218.65 168.75 -218.75 168.25 -218.75 167.75 -218.9 167.35 -218.9 166.75 -219.0 166.35 -219.0 165.75 -219.15 165.5 -219.15 164.75 -219.25 164.5 -219.5 162.6 -219.5 162.1 -219.65 161.6 -219.65 161.25 -160.15 145.1 M-218.65 183.25 L-226.0 185.25 -226.9 180.35 -227.0 180.35 -227.0 179.5 -227.15 179.1 -227.15 178.5 -227.25 178.1 -227.25 177.6 -227.4 177.1 -227.4 176.75 -228.4 168.85 -228.4 168.6 -228.5 167.85 -228.5 167.0 -228.65 166.6 -228.75 166.1 -228.75 165.6 -228.9 165.25 -228.9 164.85 -229.0 164.35 -229.0 163.75 -221.5 161.75 -218.65 183.25" fill="#100e0d" fill-rule="evenodd" stroke="none"/>
    <path d="M156.1 4.85 L156.5 4.85 156.6 4.75 156.6 4.85 155.5 13.0 155.5 13.6 155.35 13.85 155.35 14.5 155.25 14.85 155.25 15.35 155.1 15.75 155.1 16.1 154.5 20.35 154.35 20.6 154.35 21.1 154.25 21.5 154.25 22.0 154.1 22.5 154.1 22.85 147.6 65.35 147.6 66.1 146.75 71.85 146.1 72.1 146.85 67.75 146.85 67.1 147.0 66.85 147.25 65.25 147.25 64.6 147.35 64.35 149.1 52.75 149.1 52.35 149.25 51.85 149.25 51.5 149.35 51.0 149.35 50.6 149.5 50.25 149.5 49.75 149.6 49.35 149.6 49.0 149.75 48.5 149.75 48.1 149.85 47.6 149.85 47.25 150.0 46.85 150.0 46.35 150.1 46.0 150.1 45.5 150.25 45.1 150.25 44.6 150.35 44.35 150.35 43.75 150.5 43.5 150.5 42.85 150.6 42.6 150.6 42.0 150.75 41.25 150.85 41.0 150.85 40.35 151.0 40.1 151.0 39.5 156.1 4.85 M-216.75 182.6 L-218.65 183.25 -221.5 161.75 -219.65 161.25 -219.65 161.6 -219.5 162.1 -219.5 162.6 -219.25 164.5 -219.15 164.75 -219.15 165.5 -219.0 165.75 -219.0 166.35 -218.9 166.75 -218.9 167.35 -218.75 167.75 -218.75 168.25 -218.65 168.75 -218.65 169.25 -218.5 169.75 -218.5 170.1 -218.4 170.75 -218.4 171.1 -216.75 182.6" fill="#030303" fill-rule="evenodd" stroke="none"/>
    <path d="M-224.9 59.1 L-223.25 58.85 -223.25 59.6 -223.4 60.0 -223.4 60.1 -227.0 80.0 -229.0 80.0 -224.9 59.1 M222.25 58.85 L223.75 59.1 223.75 59.35 224.1 61.25 224.1 61.75 224.25 61.85 227.85 80.0 226.0 79.75 225.75 77.25 225.6 76.75 225.5 76.0 225.35 75.75 225.35 75.35 222.25 58.85" fill="#090908" fill-rule="evenodd" stroke="none"/>
    <path d="M-149.65 -39.75 L-149.15 -39.75 -152.9 -19.75 -152.9 -18.75 -157.25 4.85 -157.65 4.85 -157.75 4.75 -157.75 4.35 -157.65 4.1 -157.65 3.6 -157.5 3.1 -157.5 2.35 -157.25 1.1 -157.15 0.85 -157.15 0.5 -157.0 0.25 -157.0 -0.15 -155.4 -8.5 -155.25 -8.75 -155.25 -9.15 -155.15 -9.4 -155.15 -9.75 -155.0 -10.15 -154.15 -15.4 -154.0 -15.65 -153.9 -16.75 -153.75 -17.0 -153.75 -17.4 -153.65 -17.65 -153.65 -18.0 -153.5 -18.4 -149.65 -39.75 M227.85 80.0 L227.85 80.1 221.75 147.0 221.75 147.35 221.6 148.35 221.6 149.25 221.5 149.75 220.75 157.85 220.75 158.35 220.6 159.25 220.6 160.25 220.5 160.6 220.5 161.75 218.6 161.25 218.6 160.75 224.75 94.5 224.75 94.1 224.85 92.25 225.0 91.75 225.25 89.0 225.25 88.5 225.35 86.6 225.5 86.25 226.0 79.75 227.85 80.0" fill="#0f0e0d" fill-rule="evenodd" stroke="none"/>
    <path d="M-98.4 -40.9 L-97.4 -40.75 -86.9 -2.65 -87.4 60.85 -127.25 77.85 -136.75 8.0 -136.75 7.85 -136.75 7.6 -136.65 7.25 -128.5 -38.9 -98.4 -40.9" fill="#040303" fill-rule="evenodd" stroke="none"/>
    <path d="M159.1 145.1 L167.0 69.75 225.75 79.6 226.0 79.75 225.5 86.25 225.35 86.6 225.25 88.5 225.25 89.0 225.0 91.75 224.85 92.25 224.75 94.1 224.75 94.5 218.6 160.75 218.6 161.25 159.1 145.25 159.1 145.1" fill="#493d39" fill-rule="evenodd" stroke="none"/>
    <path d="M-240.0 82.1 L-240.0 76.85 -236.9 71.1 -237.25 72.0 -237.25 73.25 -237.5 74.25 -238.0 76.0 -240.0 82.1 M-234.75 67.1 L-234.75 67.0 -231.65 61.0 -231.15 60.6 -231.4 61.35 -231.75 63.1 -231.9 63.5 -236.4 81.25 -236.5 81.6 -236.65 81.75 -240.0 86.0 -239.65 85.0 -239.65 84.85 -239.25 83.75 -239.0 83.35 -238.75 82.25 -238.65 82.0 -235.15 67.85 -234.75 67.1" fill="#4b403b" fill-rule="evenodd" stroke="none"/>
    <path d="M-240.0 86.0 L-240.0 82.1 -238.0 76.0 -237.5 74.25 -237.25 73.25 -237.25 72.0 -236.9 71.1 -236.9 71.0 -236.65 70.6 -236.65 70.5 -234.75 67.1 -235.15 67.85 -238.65 82.0 -238.75 82.25 -239.0 83.35 -239.25 83.75 -239.65 84.85 -239.65 85.0 -240.0 86.0" fill="#d1cbc9" fill-rule="evenodd" stroke="none"/>
    <path d="M230.1 60.35 L233.75 67.1 233.85 67.75 233.85 68.1 234.0 68.5 234.35 69.75 234.5 70.1 234.85 71.25 234.85 71.35 235.1 72.5 235.25 72.85 235.35 73.35 238.6 85.35 238.75 85.75 238.6 85.85 235.35 81.75 235.25 81.25 235.0 80.0 235.0 79.6 234.85 79.25 230.1 60.35 M235.6 70.6 L239.0 76.75 239.0 83.35 237.1 76.5 237.0 76.0 236.85 75.6 236.5 74.25 236.5 73.85 236.35 73.75 236.25 73.25 236.1 72.85 235.6 70.6" fill="#0d0b0a" fill-rule="evenodd" stroke="none"/>
    <path d="M227.85 80.1 L235.25 81.25 235.25 81.6 235.1 82.1 235.0 84.5 234.85 85.35 234.85 85.85 227.85 163.35 227.85 163.75 220.5 161.75 220.5 160.6 220.6 160.25 220.6 159.25 220.75 158.35 220.75 157.85 221.5 149.75 221.6 149.25 221.6 148.35 221.75 147.35 221.75 147.0 227.85 80.1" fill="#483d39" fill-rule="evenodd" stroke="none"/>
    <path d="M233.75 67.1 L235.5 70.35 235.6 70.6 236.1 72.85 236.25 73.25 236.35 73.75 236.5 73.85 236.5 74.25 236.85 75.6 237.0 76.0 237.1 76.5 239.0 83.35 239.1 86.6 238.75 86.6 238.75 86.25 238.6 85.85 238.75 85.75 238.6 85.35 235.35 73.35 235.25 72.85 235.1 72.5 234.85 71.35 234.85 71.25 234.5 70.1 234.35 69.75 234.0 68.5 233.85 68.1 233.85 67.75 233.75 67.1" fill="#242222" fill-rule="evenodd" stroke="none"/>
    <path d="M239.1 105.35 L239.1 159.1 238.85 159.25 238.5 159.35 238.25 159.5 237.35 159.85 237.25 159.85 236.6 160.1 236.35 160.25 235.75 160.5 235.6 160.6 235.35 160.6 235.25 160.75 235.0 160.85 234.75 160.85 234.35 161.0 234.25 159.75 234.5 156.85 234.6 156.5 234.6 155.35 234.75 155.0 234.75 154.0 234.85 153.5 234.85 152.5 235.0 152.0 235.0 151.1 235.1 150.35 235.1 149.6 235.25 148.85 235.25 148.25 235.35 147.35 235.35 146.85 235.5 145.85 238.1 115.5 238.25 115.25 238.25 114.0 238.35 113.6 238.35 112.6 238.5 112.1 238.5 111.35 239.1 105.35 M238.6 85.85 L238.75 86.25 238.75 86.6 238.75 87.6 233.25 149.75 233.25 150.25 233.1 150.85 233.1 151.6 233.0 152.0 233.0 153.1 232.85 154.0 232.85 154.5 232.75 155.1 232.75 156.0 232.6 156.25 232.35 158.35 232.35 158.75 232.25 159.5 232.25 161.1 232.1 161.6 232.1 161.85 232.1 162.0 232.0 162.1 231.75 162.25 231.35 162.35 231.1 162.5 230.75 162.6 230.5 162.75 228.0 163.75 227.85 163.75 227.85 163.35 234.85 85.85 234.85 85.35 235.0 84.5 235.1 82.1 235.25 81.6 235.25 81.25 235.35 81.75 238.6 85.85" fill="#1a1615" fill-rule="evenodd" stroke="none"/>
    <path d="M232.35 181.0 L231.25 181.6 233.35 167.0 233.35 166.35 233.5 167.0 232.35 181.0 M225.5 185.0 L224.85 185.25 226.5 174.1 226.6 173.25 226.6 172.85 226.75 172.35 226.75 171.85 226.85 171.5 226.85 170.85 227.0 171.5 226.75 171.85 226.85 172.35 226.6 172.85 226.75 173.25 226.5 174.1 226.6 174.1 225.5 185.0 M227.85 163.75 L228.0 163.75 227.75 165.25 227.5 166.85 227.5 166.6 227.6 166.1 227.6 165.5 227.75 165.25 227.75 164.5 227.85 163.75 M233.65 164.8 L233.6 164.95 233.6 164.85 233.65 164.8" fill="#141110" fill-rule="evenodd" stroke="none"/>
    <path d="M239.1 159.1 L239.1 177.1 232.35 181.0 233.5 167.0 233.35 166.35 233.5 166.1 233.6 165.25 233.6 164.95 233.65 164.8 233.75 164.35 234.0 162.6 234.0 162.25 233.85 161.35 234.1 161.25 234.35 161.0 234.75 160.85 235.0 160.85 235.25 160.75 235.35 160.6 235.6 160.6 235.75 160.5 236.35 160.25 236.6 160.1 237.25 159.85 237.35 159.85 238.25 159.5 238.5 159.35 238.85 159.25 239.1 159.1 M229.1 182.85 L225.5 185.0 226.6 174.1 226.5 174.1 226.75 173.25 226.6 172.85 226.85 172.35 226.75 171.85 227.0 171.5 226.85 170.85 227.0 170.6 227.5 167.0 227.5 166.85 227.75 165.25 228.0 163.75 230.5 162.75 230.75 162.6 231.1 162.5 231.35 162.35 231.75 162.25 232.0 162.1 232.1 162.25 231.85 163.5 231.75 165.1 231.6 165.35 231.6 166.0 231.5 166.25 231.5 166.85 231.35 167.25 231.35 167.75 231.25 168.1 231.25 168.6 231.1 169.1 231.1 169.5 230.6 172.85 230.6 173.0 230.1 175.75 230.0 177.35 229.85 177.6 229.85 178.25 229.75 178.5 229.75 179.1 229.6 179.5 229.6 180.0 229.5 180.35 229.5 180.85 229.1 182.85" fill="#13100f" fill-rule="evenodd" stroke="none"/>
    <path d="M231.25 181.6 L229.35 182.75 230.6 173.0 230.6 172.85 231.1 169.5 231.1 169.1 231.25 168.6 231.25 168.1 231.35 167.75 231.35 167.25 231.5 166.85 231.5 166.25 231.6 166.0 231.6 165.35 231.75 165.1 231.85 163.5 232.1 162.25 232.0 162.1 232.1 162.0 232.5 161.85 232.6 161.85 232.75 161.75 233.1 161.6 233.25 161.6 233.5 161.5 233.75 161.35 233.85 161.35 234.0 162.25 234.0 162.6 233.75 164.35 233.65 164.8 233.6 164.85 233.6 164.95 233.6 165.25 233.5 166.1 233.35 166.35 233.35 167.0 231.25 181.6" fill="#363434" fill-rule="evenodd" stroke="none"/>
    <path d="M232.1 162.0 L232.1 161.85 232.5 161.85 232.1 162.0" fill="#363534" fill-rule="evenodd" stroke="none"/>
    <path d="M239.1 86.6 L239.1 105.35 238.5 111.35 238.5 112.1 238.35 112.6 238.35 113.6 238.25 114.0 238.25 115.25 238.1 115.5 235.5 145.85 235.35 146.85 235.35 147.35 235.25 148.25 235.25 148.85 235.1 149.6 235.1 150.35 235.0 151.1 235.0 152.0 234.85 152.5 234.85 153.5 234.75 154.0 234.75 155.0 234.6 155.35 234.6 156.5 234.5 156.85 234.25 159.75 234.35 161.0 234.1 161.25 233.85 161.35 233.75 161.35 233.5 161.5 233.25 161.6 233.1 161.6 232.75 161.75 232.6 161.85 232.5 161.85 232.1 161.85 232.1 161.6 232.25 161.1 232.25 159.5 232.35 158.75 232.35 158.35 232.6 156.25 232.75 156.0 232.75 155.1 232.85 154.5 232.85 154.0 233.0 153.1 233.0 152.0 233.1 151.6 233.1 150.85 233.25 150.25 233.25 149.75 238.75 87.6 238.75 86.6 239.1 86.6" fill="#494746" fill-rule="evenodd" stroke="none"/>
    <path d="M-240.0 159.25 L-240.0 109.6 -239.65 110.6 -239.5 111.35 -239.5 112.1 -239.4 112.6 -239.4 113.6 -239.25 114.0 -239.25 115.25 -239.15 115.5 -238.5 122.5 -238.5 122.85 -238.4 124.0 -238.4 124.35 -238.25 125.35 -238.25 125.85 -238.15 127.5 -238.0 128.25 -238.0 129.0 -237.9 129.6 -237.9 130.5 -237.75 131.1 -237.75 132.0 -237.65 132.5 -237.65 133.6 -237.5 134.0 -237.5 135.1 -237.4 135.35 -235.5 161.1 -235.9 160.85 -236.15 160.85 -236.4 160.75 -236.5 160.6 -236.75 160.5 -237.0 160.5 -237.15 160.35 -237.5 160.25 -238.25 159.85 -238.5 159.75 -238.75 159.6 -239.15 159.5 -239.4 159.35 -239.65 159.25 -240.0 159.25 M-240.0 86.25 L-240.0 86.0 -236.65 81.75 -236.5 81.6 -236.5 81.75 -236.25 82.1 -236.25 83.1 -229.0 163.75 -232.5 162.25 -232.75 162.25 -233.15 162.0 -233.25 161.6 -233.25 160.6 -233.4 160.25 -233.5 158.35 -233.65 157.5 -234.0 152.0 -234.15 151.6 -234.15 150.85 -234.25 150.25 -234.25 149.75 -234.4 148.85 -240.0 86.25" fill="#433935" fill-rule="evenodd" stroke="none"/>
    <path d="M-240.0 109.6 L-240.0 86.25 -234.4 148.85 -234.25 149.75 -234.25 150.25 -234.15 150.85 -234.15 151.6 -234.0 152.0 -233.65 157.5 -233.5 158.35 -233.4 160.25 -233.25 160.6 -233.25 161.6 -233.15 162.0 -233.25 162.0 -233.5 161.85 -233.75 161.75 -233.9 161.75 -234.15 161.6 -234.4 161.5 -234.5 161.5 -235.0 161.35 -235.25 161.25 -235.5 161.1 -237.4 135.35 -237.5 135.1 -237.5 134.0 -237.65 133.6 -237.65 132.5 -237.75 132.0 -237.75 131.1 -237.9 130.5 -237.9 129.6 -238.0 129.0 -238.0 128.25 -238.15 127.5 -238.25 125.85 -238.25 125.35 -238.4 124.35 -238.4 124.0 -238.5 122.85 -238.5 122.5 -239.15 115.5 -239.25 115.25 -239.25 114.0 -239.4 113.6 -239.4 112.6 -239.5 112.1 -239.5 111.35 -239.65 110.6 -240.0 109.6" fill="#bbb5b4" fill-rule="evenodd" stroke="none"/>
    <path d="M-226.0 185.25 L-230.15 182.85 -231.65 173.0 -231.65 172.85 -232.15 169.5 -232.15 169.1 -232.25 168.6 -232.25 168.1 -232.4 167.75 -232.4 167.25 -232.5 166.85 -232.5 166.25 -232.65 166.0 -232.65 165.35 -232.75 165.1 -233.15 162.25 -233.15 162.0 -232.75 162.25 -232.5 162.25 -229.0 163.75 -229.0 164.35 -228.9 164.85 -228.9 165.25 -228.75 165.6 -228.75 166.1 -228.65 166.6 -228.5 167.0 -228.5 167.85 -228.4 168.6 -228.4 168.85 -227.4 176.75 -227.4 177.1 -227.25 177.6 -227.25 178.1 -227.15 178.5 -227.15 179.1 -227.0 179.5 -227.0 180.35 -226.9 180.35 -226.0 185.25 M-232.25 181.6 L-240.0 177.1 -240.0 159.25 -239.65 159.25 -239.4 159.35 -239.15 159.5 -238.75 159.6 -238.5 159.75 -238.25 159.85 -237.5 160.25 -237.15 160.35 -237.0 160.5 -236.75 160.5 -236.5 160.6 -236.4 160.75 -236.15 160.85 -235.9 160.85 -235.5 161.1 -235.25 161.25 -235.0 161.35 -235.15 161.75 -235.15 162.1 -235.0 162.25 -235.0 162.6 -234.65 166.1 -234.65 166.35 -234.5 167.0 -232.25 181.6" fill="#3b322f" fill-rule="evenodd" stroke="none"/>
    <path d="M-230.4 182.75 L-232.25 181.6 -234.5 167.0 -234.65 166.35 -234.65 166.1 -235.0 162.6 -235.0 162.25 -235.15 162.1 -235.15 161.75 -235.0 161.35 -234.5 161.5 -234.4 161.5 -234.15 161.6 -233.9 161.75 -233.75 161.75 -233.5 161.85 -233.25 162.0 -233.15 162.0 -233.15 162.25 -232.75 165.1 -232.65 165.35 -232.65 166.0 -232.5 166.25 -232.5 166.85 -232.4 167.25 -232.4 167.75 -232.25 168.1 -232.25 168.6 -232.15 169.1 -232.15 169.5 -231.65 172.85 -231.65 173.0 -231.15 177.35 -231.0 177.6 -231.0 178.25 -230.9 178.5 -230.9 179.1 -230.75 179.5 -230.75 180.0 -230.65 180.35 -230.65 180.85 -230.4 182.25 -230.4 182.75" fill="#a6a19f" fill-rule="evenodd" stroke="none"/>
    <path d="M229.35 182.75 L229.1 182.85 229.5 180.85 229.5 180.35 229.6 180.0 229.6 179.5 229.75 179.1 229.75 178.5 229.85 178.25 229.85 177.6 230.0 177.35 230.1 175.75 230.6 173.0 229.35 182.75" fill="#383636" fill-rule="evenodd" stroke="none"/>
    <path d="M-230.15 182.85 L-230.4 182.75 -230.4 182.25 -230.65 180.85 -230.65 180.35 -230.75 180.0 -230.75 179.5 -230.9 179.1 -230.9 178.5 -231.0 178.25 -231.0 177.6 -231.15 177.35 -231.65 173.0 -230.15 182.85" fill="#a5a09e" fill-rule="evenodd" stroke="none"/>
    <path d="M150.35 -39.9 L148.6 -39.75 152.5 -18.4 152.6 -18.0 152.6 -17.65 152.75 -17.4 152.75 -17.0 152.85 -16.75 153.0 -15.65 153.1 -15.4 155.75 -0.5 155.85 -0.15 155.85 0.25 156.0 0.5 156.0 0.85 156.1 1.1 156.1 1.6 156.25 2.25 156.6 4.75 159.0 4.5 151.0 -39.65 150.35 -39.9 120.75 -41.75 117.0 -41.65 118.1 -41.65 119.1 -41.5 120.25 -41.5 121.1 -41.4 122.25 -41.4 123.1 -41.25 124.35 -41.25 125.1 -41.15 126.5 -41.15 127.25 -41.0 128.5 -41.0 129.35 -40.9 130.6 -40.9 131.6 -40.75 132.75 -40.75 133.6 -40.65 134.85 -40.65 135.75 -40.5 139.0 -40.4 140.0 -40.25 143.1 -40.15 144.1 -40.0 145.25 -40.0 147.35 -39.75 148.1 -39.75 148.6 -39.75 M148.1 -39.75 L151.85 -19.75 151.85 -18.75 152.0 -18.15 156.1 4.6 156.1 4.85 156.5 4.85 156.6 4.75 156.6 4.85 155.5 13.0 155.5 13.6 155.35 13.85 155.35 14.5 155.25 14.85 155.25 15.35 155.1 15.75 155.1 16.1 154.5 20.35 154.35 20.6 154.35 21.1 154.25 21.5 154.25 22.0 154.1 22.5 154.1 22.85 147.6 65.35 147.6 66.1 147.25 67.85 146.75 71.85 148.75 71.35 149.0 70.6 159.0 4.5 M117.0 -41.65 L97.35 -40.9 127.35 -38.9 147.35 -39.75 M97.35 -40.9 L96.35 -40.9 85.85 -2.25 86.35 61.0 126.1 77.85 135.6 8.1 127.35 -38.9 M126.1 77.85 L146.1 72.1 146.85 67.75 146.85 67.1 147.0 66.85 147.25 65.25 147.25 64.6 147.35 64.35 149.1 52.75 149.1 52.35 149.25 51.85 149.25 51.5 149.35 51.0 149.35 50.6 149.5 50.25 149.5 49.75 149.6 49.35 149.6 49.0 149.75 48.5 149.75 48.1 149.85 47.6 149.85 47.25 150.0 46.85 150.0 46.35 150.1 46.0 150.1 45.5 150.25 45.1 150.25 44.6 150.35 44.35 150.35 43.75 150.5 43.5 150.5 42.85 150.6 42.6 150.6 42.0 150.75 41.25 150.85 41.0 150.85 40.35 151.0 40.1 151.0 39.5 156.1 4.85 135.6 8.1 M-97.4 -40.75 L-86.9 -2.65 -87.4 60.85 -127.25 77.85 -147.25 72.0 -147.65 71.9 -147.75 71.85 -149.9 71.25 -160.0 4.5 -153.0 -34.25 Q-152.5 -39.65 -151.4 -39.9 L-127.65 -41.15 -123.5 -41.35 -123.4 -41.4 -123.15 -41.4 -121.4 -41.5 -119.4 -41.6 -119.15 -41.65 -118.0 -41.65 -98.4 -40.9 -97.4 -40.75 M-151.4 -39.9 L-149.65 -39.75 -149.15 -39.75 -148.4 -39.75 -145.15 -40.0 -144.15 -40.15 -143.0 -40.15 -142.15 -40.25 -140.9 -40.25 -140.0 -40.4 -136.75 -40.5 -135.9 -40.65 -134.65 -40.65 -132.65 -40.75 -131.65 -40.9 -128.4 -41.0 -127.65 -41.15 -126.25 -41.15 -125.5 -41.25 -124.25 -41.25 -123.5 -41.35 -123.15 -41.4 -122.15 -41.4 -121.4 -41.5 -120.0 -41.5 -119.4 -41.6 -118.0 -41.65 M-149.15 -39.75 L-152.9 -19.75 -152.9 -18.75 -157.25 4.85 -136.75 7.85 -136.75 7.6 -136.65 7.25 -128.5 -38.9 -148.4 -39.75 M-160.0 4.5 L-157.75 4.75 -157.75 4.35 -157.65 4.1 -157.65 3.6 -157.5 3.1 -157.5 2.35 -157.25 1.1 -157.15 0.85 -157.15 0.5 -157.0 0.25 -157.0 -0.15 -155.4 -8.5 -155.25 -8.75 -155.25 -9.15 -155.15 -9.4 -155.15 -9.75 -155.0 -10.15 -154.15 -15.4 -154.0 -15.65 -153.9 -16.75 -153.75 -17.0 -153.75 -17.4 -153.65 -17.65 -153.65 -18.0 -153.5 -18.4 -149.65 -39.75 M-127.25 77.85 L-136.75 8.0 -136.75 7.85 M-147.25 72.0 L-147.9 67.75 -147.9 67.1 -148.0 66.85 -148.25 65.25 -148.25 64.6 -148.4 64.35 -154.65 22.6 -154.65 22.25 -154.75 21.75 -154.75 21.35 -154.9 20.85 -154.9 20.5 -155.0 20.1 -155.0 19.6 -155.15 19.25 -155.15 18.75 -155.25 18.35 -155.25 18.0 -155.4 17.6 -155.4 17.1 -155.5 16.75 -155.5 16.25 -155.65 15.85 -155.65 15.35 -155.75 15.0 -155.75 14.5 -155.9 14.25 -155.9 13.6 -156.0 13.35 -156.0 12.75 -156.15 12.5 -156.4 10.85 -156.4 10.25 -156.5 10.0 -156.9 7.5 -156.9 7.0 -157.0 6.6 -157.0 6.25 -157.15 5.75 -157.25 4.85 -157.65 4.85 -157.75 4.75 -157.75 4.85 -148.65 65.35 -148.65 66.1 -148.25 67.85 -147.9 70.5 -147.75 71.25 -147.75 71.35 -147.65 71.9 M-128.5 -38.9 L-98.4 -40.9 M-147.75 71.85 L-147.75 71.35 M-168.15 69.75 L-160.15 145.1 -158.4 165.25 -216.75 182.6 -216.85 182.65 -218.65 183.25 -226.0 185.25 -226.5 185.0 -230.15 182.85 -230.4 182.75 -232.25 181.6 -233.4 181.0 -240.0 177.1 -240.0 159.25 -240.0 109.6 -240.0 86.25 -240.0 86.0 -240.0 82.1 -240.0 76.85 -236.9 71.1 -236.9 71.0 -236.65 70.6 -236.65 70.5 -234.75 67.1 -234.75 67.0 -231.65 61.0 -231.55 60.95 -231.15 60.6 -231.15 60.25 -224.9 59.1 -223.25 58.85 -172.5 51.5 -168.15 69.75 -227.0 80.0 -227.0 80.75 -226.9 81.1 -226.9 82.1 -226.75 83.0 -226.75 83.5 -226.0 91.75 -225.9 92.25 -225.9 93.1 -225.75 94.1 -225.75 94.5 -219.65 161.25 -160.15 145.1 M-224.9 59.1 L-229.0 80.0 -227.0 80.0 -223.4 60.1 -223.4 60.0 -223.25 59.6 -223.25 58.85 M-234.75 67.1 L-235.15 67.85 -238.65 82.0 -238.75 82.25 -239.0 83.35 -239.25 83.75 -239.65 84.85 -239.65 85.0 -239.8 85.55 -240.0 86.0 -236.65 81.75 -236.5 81.6 -236.4 81.25 -231.9 63.5 -231.75 63.1 -231.4 61.35 -231.55 60.95 M-240.0 82.1 L-238.0 76.0 -237.5 74.25 -237.25 73.25 -237.25 72.0 -236.9 71.1 M-236.5 81.6 L-236.5 81.75 -236.25 82.1 -236.25 83.1 -229.0 163.75 -221.5 161.75 -221.5 161.1 -221.75 160.25 -222.0 155.1 -222.15 154.75 -222.25 152.85 -222.25 152.35 -222.5 149.75 -222.65 149.25 -222.75 147.35 -222.75 147.0 -229.0 80.1 -229.0 80.0 -236.4 81.25 M-231.15 60.6 L-231.4 61.35 M-240.0 159.25 L-239.65 159.25 -239.4 159.35 -239.15 159.5 -238.75 159.6 -238.5 159.75 -238.25 159.85 -237.5 160.25 -237.15 160.35 -237.0 160.5 -236.75 160.5 -236.5 160.6 -236.4 160.75 -236.15 160.85 -235.9 160.85 -235.5 161.1 -237.4 135.35 -237.5 135.1 -237.5 134.0 -237.65 133.6 -237.65 132.5 -237.75 132.0 -237.75 131.1 -237.9 130.5 -237.9 129.6 -238.0 129.0 -238.0 128.25 -238.15 127.5 -238.25 125.85 -238.25 125.35 -238.4 124.35 -238.4 124.0 -238.5 122.85 -238.5 122.5 -239.15 115.5 -239.25 115.25 -239.25 114.0 -239.4 113.6 -239.4 112.6 -239.5 112.1 -239.5 111.35 -239.65 110.6 -240.0 109.6 M-240.0 86.25 L-234.4 148.85 -234.25 149.75 -234.25 150.25 -234.15 150.85 -234.15 151.6 -234.0 152.0 -233.65 157.5 -233.5 158.35 -233.4 160.25 -233.25 160.6 -233.25 161.6 -233.15 162.0 -232.75 162.25 -232.5 162.25 -229.0 163.75 -229.0 164.35 -228.9 164.85 -228.9 165.25 -228.75 165.6 -228.75 166.1 -228.65 166.6 -228.5 167.0 -228.5 167.85 -228.4 168.6 -228.4 168.85 -228.05 171.7 -228.0 171.75 -228.0 172.1 -227.9 172.65 -227.9 172.75 -227.9 172.85 -227.4 176.75 -227.4 177.1 -227.35 177.15 -227.3 177.35 -227.25 177.6 -227.25 178.1 -227.2 178.3 -227.15 178.5 -227.15 179.1 -227.05 179.3 -227.0 179.5 -227.0 180.35 -226.9 180.35 -226.0 185.25 M-226.5 185.0 L-227.0 180.35 -227.15 179.5 -227.15 179.1 -227.25 178.5 -227.25 178.1 -227.4 177.6 -227.4 177.1 -227.5 176.75 -227.65 175.0 -227.65 174.85 -227.9 173.25 -227.9 172.85 -227.9 172.65 -228.0 172.35 -228.0 172.1 -228.05 171.7 -228.15 171.5 -228.4 168.85 M-230.4 182.75 L-230.4 182.25 -230.65 180.85 -230.65 180.35 -230.75 180.0 -230.75 179.5 -230.9 179.1 -230.9 178.5 -231.0 178.25 -231.0 177.6 -231.15 177.35 -231.65 173.0 -231.65 172.85 -232.15 169.5 -232.15 169.1 -232.25 168.6 -232.25 168.1 -232.4 167.75 -232.4 167.25 -232.5 166.85 -232.5 166.25 -232.65 166.0 -232.65 165.35 -232.75 165.1 -233.15 162.25 -233.15 162.0 -233.25 162.0 -233.5 161.85 -233.75 161.75 -233.9 161.75 -234.15 161.6 -234.4 161.5 -234.5 161.5 -235.0 161.35 -235.15 161.75 -235.15 162.1 -235.0 162.25 -235.0 162.6 -234.75 164.75 -234.75 164.85 -234.75 165.0 -234.65 166.1 -234.65 166.35 -234.65 166.4 -234.55 166.7 -234.5 167.0 -232.25 181.6 M-233.15 162.0 L-233.5 161.85 M-233.15 162.25 L-232.75 162.25 M-234.65 166.35 L-234.75 166.1 -234.75 165.0 -234.75 164.75 -234.9 164.35 -235.0 162.6 M-235.5 161.1 L-235.4 161.1 -235.25 161.25 -235.0 161.35 M-235.25 161.25 L-235.5 161.1 M-235.15 161.75 L-235.25 161.75 -235.15 162.1 M-233.4 181.0 L-234.65 167.0 -234.65 166.4 M-234.65 167.0 L-234.55 166.7 M-230.15 182.85 L-231.65 173.0 M-227.4 177.6 L-227.3 177.35 M-227.15 179.5 L-227.05 179.3 M-227.25 178.5 L-227.2 178.3 M-219.65 161.25 L-219.65 161.6 -219.5 162.1 -219.5 162.6 -219.25 164.5 -219.15 164.75 -219.15 165.5 -219.0 165.75 -219.0 166.35 -218.9 166.75 -218.9 167.35 -218.75 167.75 -218.75 168.25 -218.65 168.75 -218.65 169.25 -218.5 169.75 -218.5 170.1 -218.4 170.75 -218.4 171.1 -217.8 175.4 -216.75 182.6 M-217.8 175.4 L-216.85 182.65 M-219.65 161.25 L-221.5 161.75 -218.65 183.25 M230.1 60.35 L233.75 67.1 235.5 70.35 235.6 70.6 239.0 76.75 239.0 83.35 239.1 86.6 239.1 105.35 239.1 159.1 239.1 177.1 232.35 181.0 231.25 181.6 229.35 182.75 229.1 182.85 225.5 185.0 224.85 185.25 217.6 183.1 215.85 182.65 215.75 182.6 157.35 165.25 159.1 145.1 167.0 69.75 171.5 51.5 222.25 58.85 223.75 59.1 230.0 60.1 230.1 60.35 234.85 79.25 235.0 79.6 235.0 80.0 235.25 81.25 235.35 81.75 238.6 85.85 238.75 85.75 238.6 85.35 235.35 73.35 235.25 72.85 235.1 72.5 234.85 71.35 234.85 71.25 234.5 70.1 234.35 69.75 234.0 68.5 233.85 68.1 233.85 67.75 233.75 67.1 M223.75 59.1 L223.75 59.35 224.1 61.25 224.1 61.75 224.25 61.85 227.85 80.0 227.85 80.1 235.25 81.25 235.25 81.6 235.1 82.1 235.0 84.5 234.85 85.35 234.85 85.85 227.85 163.35 227.85 163.75 228.0 163.75 230.5 162.75 230.75 162.6 231.1 162.5 231.35 162.35 231.75 162.25 232.0 162.1 232.1 162.0 232.1 161.85 232.1 161.6 232.25 161.1 232.25 159.5 232.35 158.75 232.35 158.35 232.6 156.25 232.75 156.0 232.75 155.1 232.85 154.5 232.85 154.0 233.0 153.1 233.0 152.0 233.1 151.6 233.1 150.85 233.25 150.25 233.25 149.75 238.75 87.6 238.75 86.6 238.75 86.25 238.6 85.85 M167.0 69.75 L225.75 79.6 226.0 79.75 225.75 77.25 225.6 76.75 225.5 76.0 225.35 75.75 225.35 75.35 222.25 58.85 M227.85 80.0 L226.0 79.75 225.5 86.25 225.35 86.6 225.25 88.5 225.25 89.0 225.0 91.75 224.85 92.25 224.75 94.1 224.75 94.5 218.6 160.75 218.6 161.1 218.6 161.25 220.5 161.75 220.5 160.6 220.6 160.25 220.6 159.25 220.75 158.35 220.75 157.85 221.5 149.75 221.6 149.25 221.6 148.35 221.75 147.35 221.75 147.0 227.85 80.1 M235.6 70.6 L236.1 72.85 236.25 73.25 236.35 73.75 236.5 73.85 236.5 74.25 236.85 75.6 237.0 76.0 237.1 76.5 239.0 83.35 M238.75 86.6 L239.1 86.6 M239.1 105.35 L238.5 111.35 238.5 112.1 238.35 112.6 238.35 113.6 238.25 114.0 238.25 115.25 238.1 115.5 235.5 145.85 235.35 146.85 235.35 147.35 235.25 148.25 235.25 148.85 235.1 149.6 235.1 150.35 235.0 151.1 235.0 152.0 234.85 152.5 234.85 153.5 234.75 154.0 234.75 155.0 234.6 155.35 234.6 156.5 234.5 156.85 234.25 159.75 234.35 161.0 234.75 160.85 235.0 160.85 235.25 160.75 235.35 160.6 235.6 160.6 235.75 160.5 236.35 160.25 236.6 160.1 237.25 159.85 237.35 159.85 238.25 159.5 238.5 159.35 238.85 159.25 239.1 159.1 M147.25 67.85 L146.65 71.9 146.75 71.85 M146.1 72.1 L146.65 71.9 M159.1 145.1 L159.1 145.25 218.6 161.25 216.6 175.85 216.6 176.6 216.5 176.85 216.5 177.6 216.35 177.85 216.35 178.5 216.25 178.85 216.25 179.5 216.1 179.85 216.1 180.35 216.0 180.85 216.0 181.35 215.85 181.85 215.85 182.25 215.85 182.65 M224.85 185.25 L226.5 174.1 226.6 173.25 226.6 172.85 226.75 172.35 226.75 171.85 226.85 171.5 226.85 170.85 227.5 166.85 227.5 166.6 227.6 166.1 227.6 165.5 227.75 165.25 227.75 164.5 227.85 163.75 220.5 161.75 220.0 165.6 219.85 165.85 219.85 166.5 219.75 167.1 219.75 167.5 219.5 169.35 219.35 169.85 219.35 170.25 217.6 183.1 M215.75 182.6 L215.85 182.25 M234.75 160.85 L234.75 161.0 234.35 161.0 234.25 161.25 234.1 161.25 233.85 161.35 234.0 162.25 234.0 162.6 233.75 164.35 233.65 164.8 233.6 164.9 233.6 165.25 233.5 166.1 233.4 166.3 233.45 166.7 233.5 167.0 232.35 181.0 M234.35 161.0 L234.1 161.25 M233.85 161.35 L233.75 161.35 233.5 161.5 233.25 161.6 233.1 161.6 232.75 161.75 232.6 161.85 232.5 161.85 232.1 162.0 M232.5 161.85 L232.1 161.85 M232.0 162.1 L232.1 162.25 231.85 163.5 231.75 165.1 231.6 165.35 231.6 166.0 231.5 166.25 231.5 166.85 231.35 167.25 231.35 167.75 231.25 168.1 231.25 168.6 231.1 169.1 231.1 169.5 230.6 172.85 230.6 173.0 229.35 182.75 M231.25 181.6 L233.35 167.0 233.35 166.35 233.6 164.9 233.6 164.85 233.65 164.8 234.0 162.6 M227.75 165.25 L228.0 163.75 M227.75 165.25 L227.5 166.85 227.5 167.0 227.0 170.6 226.9 170.8 226.95 171.2 227.0 171.5 226.8 171.8 226.8 172.1 226.85 172.35 226.6 172.85 226.7 173.05 226.75 173.25 226.5 174.1 226.6 174.1 225.5 185.0 M226.9 170.8 L226.85 170.85 226.95 171.2 226.85 171.5 M226.8 171.8 L226.75 171.85 226.8 172.1 226.75 172.35 M233.35 167.0 L233.45 166.7 233.35 166.35 233.4 166.3 M226.6 173.25 L226.7 173.05 M230.6 173.0 L230.1 175.75 230.0 177.35 229.85 177.6 229.85 178.25 229.75 178.5 229.75 179.1 229.6 179.5 229.6 180.0 229.5 180.35 229.5 180.85 229.1 182.85" fill="none" stroke="#000000" stroke-linecap="round" stroke-linejoin="round" stroke-width="0.7000000000000001"/>
  </g>
</svg>
