<?xml version="1.0" encoding="UTF-8" standalone="no"?>
<svg xmlns:xlink="http://www.w3.org/1999/xlink" height="282.95px" width="479.8px" xmlns="http://www.w3.org/2000/svg">
  <g transform="matrix(1.0, 0.0, 0.0, 1.0, 240.35, 101.85)">
    <path d="M131.25 -101.4 L152.6 -99.65 161.0 -54.25 140.0 -54.0 131.5 -100.5 131.6 -101.25 131.25 -101.4 M153.1 -99.65 L155.5 -99.4 163.85 -54.4 161.6 -54.25 153.1 -99.65" fill="#1f1a18" fill-rule="evenodd" stroke="none"/>
    <path d="M152.6 -99.65 L153.1 -99.65 161.6 -54.25 161.0 -54.25 152.6 -99.65" fill="#060605" fill-rule="evenodd" stroke="none"/>
    <path d="M163.85 -54.4 L146.75 59.35 145.5 69.5 145.0 70.1 143.25 70.5 161.6 -54.25 163.85 -54.4 M142.6 70.75 L122.6 76.35 140.0 -54.0 161.0 -54.25 142.6 70.75" fill="#100e0d" fill-rule="evenodd" stroke="none"/>
    <path d="M122.6 76.35 L89.1 62.25 88.25 -55.15 99.1 -97.25 99.6 -97.65 131.25 -101.4 131.6 -101.25 131.5 -100.5 140.0 -54.0 122.6 76.35" fill="#3d3431" fill-rule="evenodd" stroke="none"/>
    <path d="M16.6 -93.15 L27.25 -55.9 18.1 49.5 -19.25 49.5 -28.25 -55.65 -17.65 -93.15 16.6 -93.15" fill="#2e2724" fill-rule="evenodd" stroke="none"/>
    <path d="M-141.15 -54.0 L-132.5 -101.5 -100.25 -97.5 -89.25 -55.4 -90.15 62.25 -123.9 76.35 -141.15 -54.0" fill="#040303" fill-rule="evenodd" stroke="none"/>
    <path d="M-162.65 -54.25 L-164.9 -54.4 -156.5 -99.4 -154.25 -99.5 -162.65 -54.25 M-153.65 -99.65 L-132.5 -101.5 -141.15 -54.0 -162.0 -54.25 -153.65 -99.65" fill="#473c39" fill-rule="evenodd" stroke="none"/>
    <path d="M-162.65 -54.25 L-154.25 -99.5 -153.65 -99.65 -162.0 -54.25 -162.65 -54.25" fill="#0f0e0d" fill-rule="evenodd" stroke="none"/>
    <path d="M-164.9 -54.4 L-162.65 -54.25 -144.25 70.5 -146.4 70.0 -164.9 -54.4 M-162.0 -54.25 L-141.15 -54.0 -123.9 76.35 -143.75 70.6 -162.0 -54.25" fill="#3a312e" fill-rule="evenodd" stroke="none"/>
    <path d="M-144.25 70.5 L-162.65 -54.25 -162.0 -54.25 -143.75 70.6 -144.25 70.5" fill="#0c0b0a" fill-rule="evenodd" stroke="none"/>
    <path d="M143.25 70.5 L142.6 70.75 161.0 -54.25 161.6 -54.25 143.25 70.5" fill="#030303" fill-rule="evenodd" stroke="none"/>
    <path d="M89.1 62.25 L88.25 -55.15 99.1 -97.25 99.6 -97.65 131.25 -101.4 152.6 -99.65 153.1 -99.65 155.5 -99.4 163.85 -54.4 146.75 59.35 M122.6 76.35 L140.0 -54.0 131.5 -100.5 131.6 -101.25 131.25 -101.4 M18.1 49.5 L27.25 -55.9 16.6 -93.15 -17.65 -93.15 -28.25 -55.65 -19.25 49.5 M142.6 70.75 L161.0 -54.25 140.0 -54.0 M152.6 -99.65 L161.0 -54.25 161.6 -54.25 153.1 -99.65 M161.6 -54.25 L163.85 -54.4 M161.6 -54.25 L143.25 70.5 M-144.25 70.5 L-162.65 -54.25 -164.9 -54.4 -146.4 70.0 M-153.65 -99.65 L-162.0 -54.25 -141.15 -54.0 -132.5 -101.5 -153.65 -99.65 -154.25 -99.5 -162.65 -54.25 -162.0 -54.25 -143.75 70.6 M-154.25 -99.5 L-156.5 -99.4 -164.9 -54.4 M-90.15 62.25 L-89.25 -55.4 -100.25 -97.5 -132.5 -101.5 M-123.9 76.35 L-141.15 -54.0" fill="none" stroke="#000000" stroke-linecap="round" stroke-linejoin="round" stroke-width="0.7000000000000001"/>
    <path d="M232.6 -27.9 L234.1 -27.9 239.1 -23.15 239.1 -21.9 238.35 -21.9 232.6 -27.9 M-240.0 -21.9 L-240.0 -23.25 -239.65 -23.25 -235.0 -27.9 -233.5 -27.9 -239.5 -21.9 -240.0 -21.9" fill="#090908" fill-rule="evenodd" stroke="none"/>
    <path d="M234.1 -27.9 L239.1 -27.65 239.1 -23.15 234.1 -27.9 M175.5 -24.75 L178.85 -30.0 232.6 -27.9 238.35 -21.9 175.5 -24.75 M-233.5 -27.9 L-180.65 -30.0 Q-179.4 -30.25 -176.5 -24.75 L-239.5 -21.9 -233.5 -27.9 M-240.0 -23.25 L-240.0 -27.65 -235.0 -27.9 -239.65 -23.25 -240.0 -23.25" fill="#2e2724" fill-rule="evenodd" stroke="none"/>
    <path d="M-176.5 -24.75 L-168.25 52.75 -168.5 52.85 -232.0 62.25 -238.25 -8.15 -238.25 -8.75 -238.4 -9.5 -238.4 -10.65 -238.5 -10.9 -239.15 -17.75 -239.15 -18.25 -239.4 -19.75 -239.5 -21.9 -176.5 -24.75 M-240.0 63.35 L-240.0 -2.9 -235.0 48.75 -235.0 49.5 -234.9 50.25 -234.9 51.35 -234.75 51.6 -234.65 53.25 -234.5 54.25 -234.5 55.1 -234.4 55.6 -234.15 60.75 -234.0 61.25 -233.9 61.85 -233.9 62.5 -240.0 63.35" fill="#1f1a18" fill-rule="evenodd" stroke="none"/>
    <path d="M167.25 52.75 L175.5 -24.75 238.35 -21.9 238.35 -19.75 237.85 -15.0 237.75 -14.5 237.75 -13.65 237.6 -12.65 237.5 -10.9 237.35 -10.65 237.35 -9.5 237.25 -8.75 237.25 -8.15 230.85 62.1 167.35 52.85 167.25 52.75" fill="#4c403c" fill-rule="evenodd" stroke="none"/>
    <path d="M239.1 63.35 L239.1 77.0 238.75 78.0 238.75 78.75 238.6 79.0 238.6 79.6 238.5 80.1 238.5 80.5 224.35 180.75 217.25 178.6 231.6 71.85 231.6 71.5 231.75 71.0 231.75 70.25 231.85 70.0 232.1 68.1 232.1 67.6 232.25 67.25 232.25 66.35 232.75 63.0 232.75 62.5 232.85 62.5 239.1 63.35 M215.5 178.1 L158.1 161.35 167.25 52.75 167.35 52.85 230.85 62.1 230.85 62.25 228.5 79.6 228.5 80.35 228.35 80.6 228.35 81.35 228.25 81.6 228.25 82.25 228.1 82.75 228.1 83.25 228.0 83.75 228.0 84.1 227.85 84.75 227.85 85.1 226.85 92.6 226.75 92.85 226.75 93.6 226.6 93.85 226.6 94.5 226.5 94.85 226.5 95.5 226.35 95.85 226.35 96.35 226.25 97.0 226.25 97.35 215.5 178.1" fill="#3a312e" fill-rule="evenodd" stroke="none"/>
    <path d="M217.25 178.6 L215.5 178.1 226.25 97.35 226.25 97.0 226.35 96.35 226.35 95.85 226.5 95.5 226.5 94.85 226.6 94.5 226.6 93.85 226.75 93.6 226.75 92.85 226.85 92.6 227.85 85.1 227.85 84.75 228.0 84.1 228.0 83.75 228.1 83.25 228.1 82.75 228.25 82.25 228.25 81.6 228.35 81.35 228.35 80.6 228.5 80.35 228.5 79.6 230.85 62.25 232.75 62.5 232.75 63.0 232.25 66.35 232.25 67.25 232.1 67.6 232.1 68.1 231.85 70.0 231.75 70.25 231.75 71.0 231.6 71.5 231.6 71.85 217.25 178.6" fill="#0c0b0a" fill-rule="evenodd" stroke="none"/>
    <path d="M239.1 -21.9 L239.1 -5.75 234.0 49.5 233.85 50.25 233.85 51.35 233.75 51.6 233.1 58.35 233.1 58.85 233.0 60.75 232.85 61.25 232.75 62.5 230.85 62.25 230.85 62.1 237.25 -8.15 237.25 -8.75 237.35 -9.5 237.35 -10.65 237.5 -10.9 237.6 -12.65 237.75 -13.65 237.75 -14.5 237.85 -15.0 238.35 -19.75 238.35 -21.9 239.1 -21.9" fill="#0f0e0d" fill-rule="evenodd" stroke="none"/>
    <path d="M-240.0 -2.9 L-240.0 -21.9 -239.5 -21.9 -239.4 -19.75 -239.15 -18.25 -239.15 -17.75 -238.5 -10.9 -238.4 -10.65 -238.4 -9.5 -238.25 -8.75 -238.25 -8.15 -232.0 62.25 -233.9 62.5 -233.9 61.85 -234.0 61.25 -234.15 60.75 -234.4 55.6 -234.5 55.1 -234.5 54.25 -234.65 53.25 -234.75 51.6 -234.9 51.35 -234.9 50.25 -235.0 49.5 -235.0 48.75 -240.0 -2.9" fill="#060605" fill-rule="evenodd" stroke="none"/>
    <path d="M-168.25 52.75 L-159.15 161.35 -216.5 178.1 -227.25 97.35 -227.25 97.0 -227.4 96.35 -227.4 95.85 -227.5 95.5 -227.5 94.85 -227.65 94.5 -227.65 93.85 -227.75 93.6 -227.75 92.85 -227.9 92.6 -230.75 71.0 -230.75 70.6 -230.9 70.0 -230.9 69.6 -231.0 69.1 -231.0 68.6 -231.15 68.1 -231.15 67.5 -231.25 67.25 -231.25 66.5 -231.4 66.25 -231.65 64.35 -231.65 63.5 -231.75 63.35 -231.75 62.75 -232.0 62.25 -168.5 52.85 -168.25 52.75 M-218.25 178.75 L-225.5 180.75 -239.9 78.75 -240.0 63.35 -233.9 62.5 -233.75 62.5 -233.75 62.85 -218.25 178.75" fill="#100e0d" fill-rule="evenodd" stroke="none"/>
    <path d="M239.1 -5.75 L239.1 63.35 232.85 62.5 232.75 62.5 232.85 61.25 233.0 60.75 233.1 58.85 233.1 58.35 233.75 51.6 233.85 51.35 233.85 50.25 234.0 49.5 239.1 -5.75" fill="#4a3f3b" fill-rule="evenodd" stroke="none"/>
    <path d="M-216.5 178.1 L-218.25 178.75 -233.75 62.85 -233.75 62.5 -233.9 62.5 -232.0 62.25 -231.75 62.75 -231.75 63.35 -231.65 63.5 -231.65 64.35 -231.4 66.25 -231.25 66.5 -231.25 67.25 -231.15 67.5 -231.15 68.1 -231.0 68.6 -231.0 69.1 -230.9 69.6 -230.9 70.0 -230.75 70.6 -230.75 71.0 -227.9 92.6 -227.75 92.85 -227.75 93.6 -227.65 93.85 -227.65 94.5 -227.5 94.85 -227.5 95.5 -227.4 95.85 -227.4 96.35 -227.25 97.0 -227.25 97.35 -216.5 178.1" fill="#030303" fill-rule="evenodd" stroke="none"/>
    <path d="M239.1 77.0 L239.1 79.1 226.85 179.25 226.75 179.5 224.35 180.75 238.5 80.5 238.5 80.1 238.6 79.6 238.6 79.0 238.75 78.75 238.75 78.0 239.1 77.0 M239.1 119.1 L239.1 149.35 236.75 174.0 230.75 177.25 238.5 123.5 238.5 122.85 238.6 122.6 239.1 119.1" fill="#141110" fill-rule="evenodd" stroke="none"/>
    <path d="M239.1 79.1 L239.1 105.35 237.25 117.85 237.25 118.6 237.1 118.85 237.1 119.5 237.0 119.85 237.0 120.35 236.85 120.85 236.85 121.25 236.75 121.75 236.75 122.1 236.1 126.5 236.0 126.75 236.0 127.35 235.85 127.6 235.85 128.25 235.75 128.6 235.75 129.1 235.6 129.6 235.6 130.0 235.5 130.5 235.5 130.85 228.6 178.5 226.75 179.5 226.85 179.25 239.1 79.1 M239.1 149.35 L239.1 172.75 236.75 174.0 239.1 149.35" fill="#13100f" fill-rule="evenodd" stroke="none"/>
    <path d="M239.1 105.35 L239.1 108.5 235.5 135.25 235.35 135.85 235.35 136.25 235.1 137.75 235.1 138.1 235.0 138.75 235.0 139.1 234.85 139.6 234.85 140.0 234.75 140.6 234.75 141.0 234.6 141.5 234.6 142.0 234.5 142.5 234.5 142.85 234.35 143.35 234.35 143.85 234.25 144.35 234.25 144.85 234.1 145.35 234.1 145.75 234.0 146.25 234.0 146.75 233.85 147.25 233.85 147.75 233.75 148.1 233.75 148.6 233.6 149.1 233.6 149.6 233.5 150.0 233.5 150.6 233.35 151.0 233.35 151.6 233.25 151.85 233.25 152.5 233.1 152.85 233.1 153.5 233.0 153.75 233.0 154.5 232.85 154.75 232.85 155.35 232.75 155.6 232.75 156.35 232.6 156.6 232.5 158.25 232.35 158.5 229.85 177.75 228.6 178.5 235.5 130.85 235.5 130.5 235.6 130.0 235.6 129.6 235.75 129.1 235.75 128.6 235.85 128.25 235.85 127.6 236.0 127.35 236.0 126.75 236.1 126.5 236.75 122.1 236.75 121.75 236.85 121.25 236.85 120.85 237.0 120.35 237.0 119.85 237.1 119.5 237.1 118.85 237.25 118.6 237.25 117.85 239.1 105.35" fill="#383636" fill-rule="evenodd" stroke="none"/>
    <path d="M239.1 108.5 L239.1 119.1 238.6 122.6 238.5 122.85 238.5 123.5 230.75 177.25 229.85 177.75 232.35 158.5 232.5 158.25 232.6 156.6 232.75 156.35 232.75 155.6 232.85 155.35 232.85 154.75 233.0 154.5 233.0 153.75 233.1 153.5 233.1 152.85 233.25 152.5 233.25 151.85 233.35 151.6 233.35 151.0 233.5 150.6 233.5 150.0 233.6 149.6 233.6 149.1 233.75 148.6 233.75 148.1 233.85 147.75 233.85 147.25 234.0 146.75 234.0 146.25 234.1 145.75 234.1 145.35 234.25 144.85 234.25 144.35 234.35 143.85 234.35 143.35 234.5 142.85 234.5 142.5 234.6 142.0 234.6 141.5 234.75 141.0 234.75 140.6 234.85 140.0 234.85 139.6 235.0 139.1 235.0 138.75 235.1 138.1 235.1 137.75 235.35 136.25 235.35 135.85 235.5 135.25 239.1 108.5" fill="#363434" fill-rule="evenodd" stroke="none"/>
    <path d="M-225.5 180.75 L-229.75 178.25 -236.5 130.85 -236.5 130.5 -236.65 130.0 -236.65 129.6 -236.75 129.1 -236.75 128.6 -236.9 128.25 -236.9 127.6 -237.0 127.35 -237.0 126.75 -237.15 126.5 -239.15 112.5 -239.15 112.1 -239.25 111.6 -239.25 111.25 -239.4 110.75 -239.4 110.25 -239.5 109.85 -239.5 109.25 -239.65 109.0 -239.65 108.35 -240.0 106.35 -240.0 82.1 -239.9 80.5 -240.0 79.6 -239.9 78.75 -225.5 180.75 M-231.75 177.25 L-240.0 172.75 -240.0 120.0 -239.9 122.6 -231.75 177.25" fill="#3b322f" fill-rule="evenodd" stroke="none"/>
    <path d="M-229.75 178.25 L-230.9 177.75 -230.9 177.1 -231.15 175.6 -231.15 175.25 -233.4 158.5 -233.5 158.25 -233.65 156.6 -233.75 156.35 -233.75 155.6 -233.9 155.35 -233.9 154.75 -234.0 154.5 -234.0 153.75 -234.15 153.5 -234.15 152.85 -234.25 152.5 -234.25 151.85 -234.4 151.6 -234.4 151.0 -234.5 150.6 -234.5 150.0 -234.65 149.6 -234.65 149.1 -234.75 148.6 -234.75 148.1 -234.9 147.75 -234.9 147.25 -235.0 146.75 -235.0 146.25 -235.15 145.75 -235.15 145.35 -235.25 144.85 -235.25 144.35 -235.4 143.85 -235.4 143.35 -235.5 142.85 -235.5 142.5 -235.65 142.0 -235.65 141.5 -235.75 141.0 -235.75 140.6 -235.9 140.0 -235.9 139.6 -236.0 139.1 -236.0 138.75 -236.15 138.1 -236.15 137.75 -236.4 136.25 -236.4 135.85 -240.0 111.35 -240.0 106.35 -239.65 108.35 -239.65 109.0 -239.5 109.25 -239.5 109.85 -239.4 110.25 -239.4 110.75 -239.25 111.25 -239.25 111.6 -239.15 112.1 -239.15 112.5 -237.15 126.5 -237.0 126.75 -237.0 127.35 -236.9 127.6 -236.9 128.25 -236.75 128.6 -236.75 129.1 -236.65 129.6 -236.65 130.0 -236.5 130.5 -236.5 130.85 -229.75 178.25" fill="#a5a09e" fill-rule="evenodd" stroke="none"/>
    <path d="M-230.9 177.75 L-231.75 177.25 -239.9 122.6 -240.0 120.0 -240.0 111.35 -236.4 135.85 -236.4 136.25 -236.15 137.75 -236.15 138.1 -236.0 138.75 -236.0 139.1 -235.9 139.6 -235.9 140.0 -235.75 140.6 -235.75 141.0 -235.65 141.5 -235.65 142.0 -235.5 142.5 -235.5 142.85 -235.4 143.35 -235.4 143.85 -235.25 144.35 -235.25 144.85 -235.15 145.35 -235.15 145.75 -235.0 146.25 -235.0 146.75 -234.9 147.25 -234.9 147.75 -234.75 148.1 -234.75 148.6 -234.65 149.1 -234.65 149.6 -234.5 150.0 -234.5 150.6 -234.4 151.0 -234.4 151.6 -234.25 151.85 -234.25 152.5 -234.15 152.85 -234.15 153.5 -234.0 153.75 -234.0 154.5 -233.9 154.75 -233.9 155.35 -233.75 155.6 -233.75 156.35 -233.65 156.6 -233.5 158.25 -233.4 158.5 -231.15 175.25 -231.15 175.6 -230.9 177.1 -230.9 177.75" fill="#a6a19f" fill-rule="evenodd" stroke="none"/>
    <path d="M234.1 -27.9 L239.1 -27.65 239.1 -23.15 239.1 -21.9 239.1 -5.75 239.1 63.35 239.1 77.0 239.1 79.1 239.1 105.35 239.1 108.5 239.1 119.1 239.1 149.35 239.1 172.75 236.75 174.0 230.75 177.25 229.85 177.75 229.8 177.8 228.6 178.5 226.75 179.5 224.35 180.75 217.25 178.6 215.5 178.1 158.1 161.35 167.25 52.75 175.5 -24.75 178.85 -30.0 232.6 -27.9 234.1 -27.9 239.1 -23.15 M232.6 -27.9 L238.35 -21.9 239.1 -21.9 M167.25 52.75 L167.35 52.85 230.85 62.1 237.25 -8.15 237.25 -8.75 237.35 -9.5 237.35 -10.65 237.5 -10.9 237.6 -12.65 237.75 -13.65 237.75 -14.5 237.85 -15.0 238.35 -19.75 238.35 -21.9 175.5 -24.75 M-176.5 -24.75 L-168.25 52.75 -159.15 161.35 -216.5 178.1 -218.25 178.75 -225.5 180.75 -228.0 179.25 -229.75 178.25 -230.9 177.75 -231.75 177.25 -237.75 174.0 -240.0 172.75 -240.0 153.35 -240.0 120.0 -240.0 111.35 -240.0 108.1 -240.0 106.35 -240.0 82.1 -239.9 81.1 -239.9 80.5 -240.0 79.6 -239.9 78.75 -240.0 63.35 -240.0 -2.9 -240.0 -21.9 -240.0 -23.25 -240.0 -27.65 -235.0 -27.9 -233.5 -27.9 -180.65 -30.0 Q-179.4 -30.25 -176.5 -24.75 L-239.5 -21.9 -239.4 -19.75 -239.15 -18.25 -239.15 -17.75 -238.5 -10.9 -238.4 -10.65 -238.4 -9.5 -238.25 -8.75 -238.25 -8.15 -232.0 62.25 -168.5 52.85 -168.25 52.75 M-235.0 -27.9 L-239.65 -23.25 -240.0 -23.25 M-240.0 -21.9 L-239.5 -21.9 -233.5 -27.9 M-240.0 -2.9 L-235.0 48.75 -235.0 49.5 -234.9 50.25 -234.9 51.35 -234.75 51.6 -234.65 53.25 -234.5 54.25 -234.5 55.1 -234.4 55.6 -234.15 60.75 -234.0 61.25 -233.9 61.85 -233.9 62.5 -232.0 62.25 -231.75 62.75 -231.75 63.35 -231.65 63.5 -231.65 64.35 -231.4 66.25 -231.25 66.5 -231.25 67.25 -231.15 67.5 -231.15 68.1 -231.0 68.6 -231.0 69.1 -230.9 69.6 -230.9 70.0 -230.75 70.6 -230.75 71.0 -227.9 92.6 -227.75 92.85 -227.75 93.6 -227.65 93.85 -227.65 94.5 -227.5 94.85 -227.5 95.5 -227.4 95.85 -227.4 96.35 -227.25 97.0 -227.25 97.35 -216.5 178.1 M-233.9 62.5 L-233.75 62.85 -233.75 62.5 -233.9 62.5 -240.0 63.35 M-239.65 82.1 L-239.55 82.7 -239.75 81.35 -240.0 82.1 -239.65 82.1 M-239.75 81.35 L-239.9 81.1 M-228.0 179.25 L-231.0 153.5 -231.15 153.25 -231.4 151.25 -231.4 150.35 -231.5 150.1 -231.5 149.35 -231.65 149.1 -231.65 148.25 -231.75 148.0 -231.75 147.25 -231.9 147.0 -231.9 146.25 -232.0 146.0 -232.0 145.25 -232.15 144.85 -232.15 144.1 -232.25 143.85 -232.25 143.1 -232.4 142.85 -232.4 142.1 -232.5 141.75 -232.5 141.0 -232.65 140.75 -232.65 140.0 -232.75 139.75 -232.75 139.0 -232.9 138.6 -232.9 138.0 -233.0 137.6 -233.0 136.85 -233.15 136.5 -233.15 135.85 -233.25 135.5 -233.25 134.85 -233.4 134.5 -233.4 133.85 -233.5 133.35 -233.5 132.75 -233.65 132.35 -233.65 131.75 -233.75 131.35 -233.75 130.75 -233.9 130.25 -233.9 129.75 -234.0 129.25 -234.0 128.6 -234.15 128.25 -234.15 127.6 -234.25 127.1 -234.25 126.6 -234.4 126.1 -234.4 125.5 -234.5 125.0 -234.5 124.5 -234.65 124.0 -234.65 123.5 -234.75 123.0 -234.75 122.5 -234.9 121.85 -234.9 121.35 -235.0 120.85 -235.0 120.35 -235.15 119.85 -235.15 119.35 -235.25 118.75 -235.25 118.35 -235.4 117.75 -235.4 117.25 -235.5 116.75 -235.5 116.25 -235.65 115.6 -235.65 115.25 -235.75 114.6 -235.75 114.25 -235.9 113.5 -235.9 113.1 -236.0 112.5 -236.0 112.1 -236.15 111.5 -236.15 111.1 -236.25 110.35 -236.25 110.0 -236.4 109.35 -236.4 109.0 -236.5 108.35 -236.5 108.0 -236.75 106.25 -236.75 105.85 -236.9 105.25 -236.9 104.85 -238.65 90.5 -238.65 89.35 -239.15 85.35 -239.15 85.25 -239.55 82.7 M-229.75 178.25 L-236.5 130.85 -236.5 130.5 -236.65 130.0 -236.65 129.6 -236.75 129.1 -236.75 128.6 -236.9 128.25 -236.9 127.6 -237.0 127.35 -237.0 126.75 -237.15 126.5 -239.15 112.5 -239.15 112.1 -239.25 111.6 -239.25 111.25 -239.4 110.75 -239.4 110.25 -239.5 109.85 -239.5 109.25 -239.65 109.0 -239.65 108.35 -240.0 108.1 M-239.65 108.35 L-240.0 106.35 M-231.75 177.25 L-239.9 122.6 -240.0 120.0 M-240.0 111.35 L-236.4 135.85 -236.4 136.25 -236.15 137.75 -236.15 138.1 -236.0 138.75 -236.0 139.1 -235.9 139.6 -235.9 140.0 -235.75 140.6 -235.75 141.0 -235.65 141.5 -235.65 142.0 -235.5 142.5 -235.5 142.85 -235.4 143.35 -235.4 143.85 -235.25 144.35 -235.25 144.85 -235.15 145.35 -235.15 145.75 -235.0 146.25 -235.0 146.75 -234.9 147.25 -234.9 147.75 -234.75 148.1 -234.75 148.6 -234.65 149.1 -234.65 149.6 -234.5 150.0 -234.5 150.6 -234.4 151.0 -234.4 151.6 -234.25 151.85 -234.25 152.5 -234.15 152.85 -234.15 153.5 -234.0 153.75 -234.0 154.5 -233.9 154.75 -233.9 155.35 -233.75 155.6 -233.75 156.35 -233.65 156.6 -233.5 158.25 -233.4 158.5 -231.15 175.25 -231.15 175.6 -230.9 177.1 -230.9 177.75 M-237.75 174.0 L-240.0 153.35 M-218.25 178.75 L-233.75 62.85 M-239.9 78.75 L-225.5 180.75 M230.85 62.1 L230.85 62.25 232.75 62.5 232.85 61.25 233.0 60.75 233.1 58.85 233.1 58.35 233.75 51.6 233.85 51.35 233.85 50.25 234.0 49.5 239.1 -5.75 M239.1 63.35 L232.85 62.5 232.75 62.5 232.75 63.0 232.25 66.35 232.25 67.25 232.1 67.6 232.1 68.1 231.85 70.0 231.75 70.25 231.75 71.0 231.6 71.5 231.6 71.85 217.25 178.6 M215.5 178.1 L226.25 97.35 226.25 97.0 226.35 96.35 226.35 95.85 226.5 95.5 226.5 94.85 226.6 94.5 226.6 93.85 226.75 93.6 226.75 92.85 226.85 92.6 227.85 85.1 227.85 84.75 228.0 84.1 228.0 83.75 228.1 83.25 228.1 82.75 228.25 82.25 228.25 81.6 228.35 81.35 228.35 80.6 228.5 80.35 228.5 79.6 230.85 62.25 M239.1 77.0 L238.75 78.0 238.75 78.75 238.6 79.0 238.6 79.6 238.5 80.1 238.5 80.5 224.35 180.75 M239.1 105.35 L237.25 117.85 237.25 118.6 237.1 118.85 237.1 119.5 237.0 119.85 237.0 120.35 236.85 120.85 236.85 121.25 236.75 121.75 236.75 122.1 236.1 126.5 236.0 126.75 236.0 127.35 235.85 127.6 235.85 128.25 235.75 128.6 235.75 129.1 235.6 129.6 235.6 130.0 235.5 130.5 235.5 130.85 228.6 178.5 M239.1 119.1 L238.6 122.6 238.5 122.85 238.5 123.5 230.75 177.25 M239.1 108.5 L235.5 135.25 235.35 135.85 235.35 136.25 235.1 137.75 235.1 138.1 235.0 138.75 235.0 139.1 234.85 139.6 234.85 140.0 234.75 140.6 234.75 141.0 234.6 141.5 234.6 142.0 234.5 142.5 234.5 142.85 234.35 143.35 234.35 143.85 234.25 144.35 234.25 144.85 234.1 145.35 234.1 145.75 234.0 146.25 234.0 146.75 233.85 147.25 233.85 147.75 233.75 148.1 233.75 148.6 233.6 149.1 233.6 149.6 233.5 150.0 233.5 150.6 233.35 151.0 233.35 151.6 233.25 151.85 233.25 152.5 233.1 152.85 233.1 153.5 233.0 153.75 233.0 154.5 232.85 154.75 232.85 155.35 232.75 155.6 232.75 156.35 232.6 156.6 232.5 158.25 232.35 158.5 230.55 172.35 230.35 173.7 230.25 174.7 229.85 177.75 M230.25 174.7 L229.8 177.8 M239.1 79.1 L226.85 179.25 226.75 179.5 M236.75 174.0 L239.1 149.35" fill="none" stroke="#000000" stroke-linecap="round" stroke-linejoin="round" stroke-width="0.7000000000000001"/>
  </g>
</svg>
