<?xml version="1.0" encoding="UTF-8" standalone="no"?>
<svg xmlns:xlink="http://www.w3.org/1999/xlink" height="310.7px" width="479.8px" xmlns="http://www.w3.org/2000/svg">
  <g transform="matrix(1.0, 0.0, 0.0, 1.0, 240.35, 134.25)">
    <path d="M131.25 -101.4 L152.6 -99.65 161.0 -54.25 140.0 -54.0 131.5 -100.5 131.6 -101.25 131.25 -101.4 M153.25 -99.5 L155.5 -99.4 163.85 -54.4 161.6 -54.25 153.25 -99.5 M-240.0 -48.5 L-240.0 -133.9 -185.75 -129.15 -177.5 -49.4 -240.0 -48.5" fill="#1f1a18" fill-rule="evenodd" stroke="none"/>
    <path d="M152.6 -99.65 L153.25 -99.5 161.6 -54.25 161.0 -54.25 152.6 -99.65" fill="#060605" fill-rule="evenodd" stroke="none"/>
    <path d="M163.85 -54.4 L146.75 59.35 145.5 69.5 145.0 70.1 143.25 70.5 161.6 -54.25 163.85 -54.4 M142.6 70.75 L122.6 76.35 140.0 -54.0 161.0 -54.25 142.6 70.75 M-240.0 -48.5 L-177.5 -49.4 -159.9 157.75 -216.25 173.85 -239.9 -4.4 -240.0 -48.5 M-217.9 174.35 L-224.65 176.35 -225.15 176.35 -225.25 176.0 -239.9 71.35 -239.9 71.1 -240.0 70.5 -239.9 11.0 -217.9 174.35" fill="#100e0d" fill-rule="evenodd" stroke="none"/>
    <path d="M122.6 76.35 L89.1 62.25 88.25 -55.15 99.1 -97.25 99.6 -97.65 131.25 -101.4 131.6 -101.25 131.5 -100.5 140.0 -54.0 122.6 76.35" fill="#3d3431" fill-rule="evenodd" stroke="none"/>
    <path d="M16.6 -93.15 L27.25 -55.9 18.1 49.5 -19.25 49.5 -28.25 -55.65 -17.65 -93.15 16.6 -93.15" fill="#2e2724" fill-rule="evenodd" stroke="none"/>
    <path d="M-141.15 -54.0 L-132.5 -101.5 -100.25 -97.5 -89.25 -55.4 -90.15 62.25 -123.9 76.35 -141.15 -54.0" fill="#040303" fill-rule="evenodd" stroke="none"/>
    <path d="M-162.65 -54.25 L-164.9 -54.4 -156.5 -99.4 -154.25 -99.5 -162.65 -54.25 M-153.65 -99.65 L-132.5 -101.5 -141.15 -54.0 -162.0 -54.25 -153.65 -99.65" fill="#473c39" fill-rule="evenodd" stroke="none"/>
    <path d="M-162.65 -54.25 L-154.25 -99.5 -153.65 -99.65 -162.0 -54.25 -162.65 -54.25" fill="#0f0e0d" fill-rule="evenodd" stroke="none"/>
    <path d="M239.1 -48.5 L239.1 -6.15 215.1 173.85 158.75 157.6 176.35 -49.4 239.1 -48.5 M239.1 9.25 L239.1 68.6 224.25 172.85 224.1 176.1 223.75 176.35 216.85 174.35 239.1 9.25 M-164.9 -54.4 L-162.65 -54.25 -144.25 70.5 -146.4 70.0 -164.9 -54.4 M-162.0 -54.25 L-141.15 -54.0 -123.9 76.35 -143.75 70.6 -162.0 -54.25" fill="#3a312e" fill-rule="evenodd" stroke="none"/>
    <path d="M239.1 -6.15 L239.1 9.25 216.85 174.35 215.1 173.85 239.1 -6.15 M-144.25 70.5 L-162.65 -54.25 -162.0 -54.25 -143.75 70.6 -144.25 70.5" fill="#0c0b0a" fill-rule="evenodd" stroke="none"/>
    <path d="M143.25 70.5 L142.6 70.75 161.0 -54.25 161.6 -54.25 143.25 70.5 M-216.25 173.85 L-217.9 174.35 -239.9 11.0 -239.9 -4.4 -216.25 173.85" fill="#030303" fill-rule="evenodd" stroke="none"/>
    <path d="M176.35 -49.4 L184.75 -129.15 238.75 -133.9 239.1 -133.9 239.1 -48.5 176.35 -49.4" fill="#4d423d" fill-rule="evenodd" stroke="none"/>
    <path d="M-225.25 176.0 L-230.15 168.5 -231.9 154.35 -231.9 154.0 -232.0 153.35 -232.0 153.1 -232.15 152.35 -232.15 152.25 -239.9 100.1 -239.9 99.6 -240.0 99.25 -239.9 71.35 -225.25 176.0 M-232.5 165.0 L-239.9 154.1 -239.9 113.75 -236.9 132.35 -236.9 132.5 -236.4 135.85 -236.4 136.25 -236.25 136.75 -236.25 137.1 -236.15 137.6 -236.15 138.1 -236.0 138.5 -236.0 139.0 -235.9 139.35 -232.5 165.0" fill="#3b322f" fill-rule="evenodd" stroke="none"/>
    <path d="M-230.15 168.5 L-232.5 165.0 -235.9 139.35 -236.0 139.0 -236.0 138.5 -236.15 138.1 -236.15 137.6 -236.25 137.1 -236.25 136.75 -236.4 136.25 -236.4 135.85 -236.9 132.5 -236.9 132.35 -239.9 109.85 -239.9 100.1 -232.15 152.25 -232.15 152.35 -232.0 153.1 -232.0 153.35 -231.9 154.0 -231.9 154.35 -230.15 168.5" fill="#a5a09e" fill-rule="evenodd" stroke="none"/>
    <path d="M-239.9 113.75 L-239.9 109.85 -236.9 132.35 -239.9 113.75" fill="#a6a19f" fill-rule="evenodd" stroke="none"/>
    <path d="M239.1 68.6 L239.1 85.6 231.1 152.25 231.1 152.35 231.0 153.1 231.0 153.35 230.6 153.85 230.85 154.0 230.85 154.35 230.5 154.6 230.75 155.35 230.25 156.5 229.5 163.6 229.5 163.85 229.35 164.5 229.35 165.1 229.25 165.35 229.1 168.5 224.1 176.1 224.25 172.85 239.1 68.6 M239.1 111.25 L239.1 153.6 231.35 165.0 232.0 159.35 232.1 159.0 232.1 158.5 232.25 158.0 232.25 157.6 233.1 151.6 233.25 151.1 233.25 150.75 234.85 139.35 235.0 139.0 235.0 138.5 235.1 138.1 235.1 137.6 235.25 137.1 235.25 136.75 235.35 136.25 235.35 135.85 235.5 135.25 235.85 132.5 235.85 132.35 239.1 111.25" fill="#141110" fill-rule="evenodd" stroke="none"/>
    <path d="M239.1 107.1 L239.1 111.25 235.85 132.35 239.1 107.1" fill="#363434" fill-rule="evenodd" stroke="none"/>
    <path d="M239.1 97.35 L239.1 107.1 235.85 132.35 235.85 132.5 235.5 135.25 235.35 135.85 235.35 136.25 235.25 136.75 235.25 137.1 235.1 137.6 235.1 138.1 235.0 138.5 235.0 139.0 234.85 139.35 233.25 150.75 233.25 151.1 233.1 151.6 232.25 157.6 232.25 158.0 232.1 158.5 232.1 159.0 232.0 159.35 231.35 165.0 229.1 168.5 229.25 165.35 229.35 165.1 229.35 164.5 229.5 163.85 229.5 163.6 230.75 155.35 230.85 154.35 230.85 154.0 231.0 153.35 231.0 153.1 231.1 152.35 231.1 152.25 239.1 97.35" fill="#383636" fill-rule="evenodd" stroke="none"/>
    <path d="M239.1 85.6 L239.1 97.35 231.1 152.25 239.1 85.6 M230.75 155.35 L230.5 154.6 230.85 154.35 230.75 155.35 229.5 163.6 230.25 156.5 230.75 155.35 M230.85 154.0 L230.6 153.85 231.0 153.35 230.85 154.0" fill="#13100f" fill-rule="evenodd" stroke="none"/>
    <path d="M122.6 76.35 L140.0 -54.0 131.5 -100.5 131.6 -101.25 131.25 -101.4 99.6 -97.65 99.1 -97.25 88.25 -55.15 89.1 62.25 M131.25 -101.4 L152.6 -99.65 153.25 -99.5 155.5 -99.4 163.85 -54.4 146.75 59.35 M18.1 49.5 L27.25 -55.9 16.6 -93.15 -17.65 -93.15 -28.25 -55.65 -19.25 49.5 M142.6 70.75 L161.0 -54.25 140.0 -54.0 M152.6 -99.65 L161.0 -54.25 161.6 -54.25 153.25 -99.5 M158.75 157.6 L176.35 -49.4 184.75 -129.15 238.75 -133.9 239.1 -133.9 239.1 -48.5 239.1 -6.15 239.1 9.25 239.1 68.6 239.1 85.6 239.1 97.35 239.1 107.1 239.1 111.25 239.1 153.6 231.35 165.0 229.1 168.5 224.1 176.1 224.25 172.85 239.1 68.6 M239.1 -48.5 L176.35 -49.4 M161.6 -54.25 L163.85 -54.4 M231.35 165.0 L232.0 159.35 232.1 159.0 232.1 158.5 232.25 158.0 232.25 157.6 233.1 151.6 233.25 151.1 233.25 150.75 234.85 139.35 235.0 139.0 235.0 138.5 235.1 138.1 235.1 137.6 235.25 137.1 235.25 136.75 235.35 136.25 235.35 135.85 235.5 135.25 235.85 132.5 235.85 132.35 239.1 107.1 M235.85 132.35 L239.1 111.25 M230.5 154.6 L230.75 155.35 230.85 154.35 230.5 154.6 M230.85 154.0 L231.0 153.35 230.6 153.85 230.85 154.0 230.85 154.35 M239.1 97.35 L231.1 152.25 231.1 152.35 231.0 153.1 231.0 153.35 M229.1 168.5 L229.25 165.35 229.35 165.1 229.35 164.5 229.5 163.85 229.5 163.6 230.25 156.5 230.75 155.35 229.5 163.6 M239.1 9.25 L216.85 174.35 M231.1 152.25 L239.1 85.6 M161.6 -54.25 L143.25 70.5 M215.1 173.85 L239.1 -6.15 M-240.0 -133.9 L-240.0 -48.5 -177.5 -49.4 -185.75 -129.15 -240.0 -133.9 M-144.25 70.5 L-162.65 -54.25 -164.9 -54.4 -146.4 70.0 M-239.9 71.35 L-225.25 176.0 -230.15 168.5 -232.5 165.0 -239.9 154.1 -239.9 113.75 -239.9 109.85 -239.9 100.1 -239.9 99.6 -240.0 99.25 -239.9 88.6 -239.9 71.35 -239.9 71.1 -240.0 70.5 -239.9 11.0 -239.9 -4.4 -240.0 -48.5 M-153.65 -99.65 L-162.0 -54.25 -141.15 -54.0 -132.5 -101.5 -153.65 -99.65 -154.25 -99.5 -162.65 -54.25 -162.0 -54.25 -143.75 70.6 M-154.25 -99.5 L-156.5 -99.4 -164.9 -54.4 M-90.15 62.25 L-89.25 -55.4 -100.25 -97.5 -132.5 -101.5 M-239.9 109.85 L-236.9 132.35 -236.9 132.5 -236.4 135.85 -236.4 136.25 -236.25 136.75 -236.25 137.1 -236.15 137.6 -236.15 138.1 -236.0 138.5 -236.0 139.0 -235.9 139.35 -232.5 165.0 M-239.9 113.75 L-236.9 132.35 M-231.9 154.0 L-231.65 153.6 -232.0 153.35 -231.9 154.0 -231.9 154.35 -231.5 154.6 -231.75 155.35 -231.4 155.6 -231.5 157.5 -230.15 168.5 M-239.9 88.6 L-232.15 152.25 -232.15 152.35 -232.0 153.1 -232.0 153.35 M-231.5 157.5 L-231.75 155.35 -231.9 154.35 M-232.15 152.25 L-239.9 100.1 M-217.9 174.35 L-239.9 11.0 M-239.9 -4.4 L-216.25 173.85 M-123.9 76.35 L-141.15 -54.0 M-159.9 157.75 L-177.5 -49.4" fill="none" stroke="#000000" stroke-linecap="round" stroke-linejoin="round" stroke-width="0.7000000000000001"/>
  </g>
</svg>
