<?xml version="1.0" encoding="UTF-8" standalone="no"?>
<svg xmlns:xlink="http://www.w3.org/1999/xlink" height="197.3px" width="166.7px" xmlns="http://www.w3.org/2000/svg">
  <g transform="matrix(1.0, 0.0, 0.0, 1.0, 83.85, -107.15)">
    <path d="M-44.4 114.25 L-44.4 114.1 -44.25 113.85 -44.25 113.75 -44.15 113.35 -44.0 113.0 -44.0 112.85 -43.9 112.35 -43.75 112.0 -43.65 111.5 -43.65 111.1 -43.5 110.85 -43.5 110.6 -42.5 107.5 41.35 107.5 50.85 145.5 -52.0 145.5 -44.4 114.25 M46.85 304.0 L4.0 304.1 4.0 276.5 22.75 276.5 22.75 278.35 24.85 278.35 25.1 266.6 23.0 266.6 22.85 268.6 4.1 268.6 4.0 243.1 4.5 242.35 6.5 242.35 6.6 240.5 -7.65 240.35 -7.5 242.35 -5.15 242.5 -5.15 268.6 -23.9 268.6 -24.0 266.6 -26.15 266.6 -26.0 278.35 -23.75 278.35 -23.75 276.5 -5.15 276.5 -5.0 304.1 -48.0 303.85 -51.25 275.5 -27.5 202.6 26.35 202.6 50.1 275.5 46.85 304.0 M-53.65 152.35 L-53.9 152.25 -53.9 152.1 -53.75 151.85 -53.75 151.75 -53.5 151.0 -53.5 150.85 -53.25 150.0 -53.25 149.6 -53.15 149.35 -53.15 149.1 -52.4 146.85 51.25 146.85 51.6 148.1 51.75 148.5 51.85 149.0 52.1 149.6 52.1 149.85 52.6 152.35 -53.65 152.35" fill="#2e2724" fill-rule="evenodd" stroke="none"/>
    <path d="M41.35 107.5 L65.75 188.1 78.5 237.35 78.35 237.1 78.25 236.75 78.25 236.6 78.1 236.5 78.1 236.35 78.0 236.1 78.0 235.75 77.85 235.5 77.85 235.35 77.75 235.25 77.75 235.1 77.6 234.85 77.6 234.5 77.5 234.25 77.5 234.1 77.35 234.0 77.35 233.85 77.25 233.6 77.25 233.25 77.1 233.0 77.1 232.85 77.0 232.75 77.0 232.5 76.85 232.35 76.85 232.1 76.75 232.0 76.75 231.75 76.6 231.5 76.6 231.25 76.5 231.1 76.5 230.85 76.35 230.75 76.35 230.5 76.25 230.25 76.25 230.0 76.1 229.85 76.1 229.6 76.0 229.5 76.0 229.25 75.85 229.0 75.85 228.85 75.6 228.25 75.5 227.75 75.5 227.5 75.35 227.35 75.35 227.1 75.25 227.0 75.25 226.75 75.1 226.5 75.1 226.35 75.0 226.1 75.0 225.85 74.85 225.75 74.85 225.5 74.75 225.25 74.75 225.1 74.6 224.85 74.6 224.6 74.5 224.5 74.5 224.25 74.35 224.0 74.35 223.85 74.25 223.6 74.25 223.35 74.1 223.25 74.1 223.0 74.0 222.75 74.0 222.6 73.85 222.35 73.85 222.25 73.75 222.0 73.75 221.75 73.6 221.5 73.6 221.35 73.5 221.1 73.5 221.0 73.35 220.75 73.35 220.5 73.25 220.25 73.25 220.1 73.1 219.85 73.1 219.75 73.0 219.5 73.0 219.35 72.85 219.0 72.85 218.85 72.75 218.6 72.75 218.5 72.6 218.25 72.6 218.1 72.5 217.85 72.5 217.6 72.35 217.35 72.35 217.25 72.25 217.0 72.25 216.85 72.1 216.6 72.1 216.35 72.0 216.1 72.0 216.0 71.85 215.75 71.85 215.6 71.75 215.35 71.75 215.25 71.6 214.85 71.6 214.75 71.5 214.5 71.5 214.35 71.35 214.1 71.35 214.0 71.25 213.6 71.25 213.5 71.1 213.25 71.1 213.1 71.0 212.85 71.0 212.75 70.75 212.0 70.75 211.85 70.6 211.6 70.6 211.5 70.35 210.75 70.35 210.6 70.25 210.35 70.25 210.25 70.0 209.5 70.0 209.35 69.85 209.1 69.85 209.0 69.5 207.85 69.5 207.75 69.1 206.6 69.1 206.5 64.6 191.35 64.6 191.25 64.5 191.25 64.25 190.1 64.25 190.0 64.1 190.0 63.85 188.85 63.85 188.75 63.75 188.75 63.5 187.6 63.5 187.5 63.35 187.5 63.35 187.1 63.1 186.35 63.1 186.25 63.0 186.25 63.0 185.85 62.75 185.1 62.75 185.0 62.6 185.0 62.6 184.6 62.5 184.35 62.5 184.25 62.35 183.85 62.35 183.75 62.25 183.75 62.25 183.35 62.1 183.1 62.1 183.0 62.0 182.6 62.0 182.5 61.85 182.5 61.85 182.1 61.75 181.85 61.75 181.75 61.6 181.35 61.6 181.25 61.5 181.25 61.5 180.85 61.35 180.6 61.35 180.5 61.25 180.25 61.25 180.0 61.1 180.0 61.1 179.6 61.0 179.35 61.0 179.25 60.85 179.0 60.85 178.75 60.75 178.75 60.75 178.35 60.6 178.1 60.6 177.85 60.5 177.6 60.35 177.25 60.35 177.1 60.25 176.85 60.25 176.75 60.1 176.5 60.0 176.1 60.0 175.85 59.85 175.6 59.85 175.5 59.6 174.85 59.6 174.6 59.5 174.35 59.5 174.1 59.35 173.85 59.35 173.75 59.25 173.5 59.1 173.25 59.1 172.85 59.0 172.6 59.0 172.5 58.85 172.25 58.75 172.0 58.75 171.6 58.6 171.35 58.6 171.25 58.5 171.0 58.35 170.6 58.35 170.5 58.25 170.35 58.25 170.0 58.1 169.75 58.0 169.35 58.0 169.25 57.85 169.1 57.85 168.75 57.75 168.5 57.6 168.1 57.6 168.0 57.5 167.85 57.5 167.6 57.35 167.5 57.35 167.25 57.25 166.85 57.25 166.75 57.1 166.6 57.1 166.35 57.0 166.25 57.0 166.0 56.85 165.6 56.85 165.5 56.75 165.35 56.75 165.1 56.6 165.0 56.6 164.75 56.5 164.35 56.35 164.1 56.25 163.75 56.25 163.35 56.1 163.1 56.1 163.0 56.0 162.85 55.85 162.5 55.85 162.1 55.75 161.85 55.75 161.75 55.6 161.6 55.6 161.5 55.5 161.25 55.5 160.85 55.35 160.6 55.25 160.25 55.1 160.0 55.1 159.6 54.85 159.0 54.85 158.85 54.75 158.75 54.75 158.5 54.6 158.35 54.6 158.1 54.5 157.75 54.5 157.6 54.35 157.5 54.35 157.25 54.25 157.1 54.25 156.85 54.0 156.1 54.0 156.0 53.85 155.85 53.85 155.6 53.35 155.1 52.6 152.35 52.1 149.85 52.1 149.6 51.85 149.0 51.75 148.5 51.6 148.1 51.25 146.85 50.85 145.5 41.35 107.5 M78.5 237.4 L78.75 238.35 78.6 238.0 78.6 237.85 78.5 237.75 78.5 237.4 M80.1 242.35 L80.1 242.6 81.75 248.6 79.85 242.35 79.75 242.0 80.0 242.1 79.85 242.35 80.1 242.35 M79.25 240.1 L79.5 240.5 79.35 240.5 79.25 240.1 M79.6 241.35 L79.85 241.75 79.75 242.0 79.6 241.35" fill="#040303" fill-rule="evenodd" stroke="none"/>
    <path d="M-52.0 145.5 L50.85 145.5 51.25 146.85 -52.4 146.85 -52.0 145.5" fill="#090908" fill-rule="evenodd" stroke="none"/>
    <path d="M-80.65 241.1 L-80.5 239.85 -80.25 239.0 -80.15 238.85 -80.0 238.35 -80.0 238.0 -79.9 237.85 -79.75 237.6 -79.9 237.6 -79.75 237.35 -79.75 237.1 -79.65 237.0 -79.65 236.75 -79.5 236.5 -79.5 236.35 -79.4 236.1 -79.4 235.85 -79.25 235.75 -79.25 235.5 -79.0 234.85 -79.0 234.6 -67.0 189.0 -49.9 131.75 -48.65 128.5 -48.75 128.0 -48.25 127.25 -44.75 114.6 -44.4 114.25 -52.0 145.5 -52.4 146.85 -53.15 149.1 -53.15 149.35 -53.25 149.6 -53.25 150.0 -53.5 150.85 -53.5 151.0 -53.75 151.75 -53.75 151.85 -53.9 152.1 -53.9 152.25 -53.65 152.35 -53.75 152.6 -54.15 153.0 -54.15 153.1 -54.5 154.25 -54.5 154.35 -54.4 155.1 -55.25 156.75 -55.25 156.85 -56.25 160.25 -56.4 160.6 -57.5 164.25 -57.5 164.35 -71.0 209.1 -71.0 209.25 -72.5 214.25 -72.65 214.6 -72.75 215.1 -72.9 215.5 -73.25 216.75 -73.4 217.1 -73.5 217.6 -74.0 219.25 -74.15 219.6 -74.25 220.1 -74.4 220.5 -74.75 221.75 -74.9 222.0 -74.9 222.1 -75.0 222.5 -75.0 222.6 -75.15 222.85 -75.15 223.0 -80.65 241.1" fill="#38302d" fill-rule="evenodd" stroke="none"/>
    <path d="M-53.65 152.35 L52.6 152.35 46.35 164.5 -47.5 164.5 -53.75 152.6 -53.65 152.35 M-27.5 202.6 L-43.9 171.1 -44.25 171.0 -44.25 170.6 43.25 170.6 43.1 171.0 26.35 202.6 -27.5 202.6" fill="#3e3531" fill-rule="evenodd" stroke="none"/>
    <path d="M-83.5 251.75 L-81.65 244.5 -81.25 243.25 -81.15 243.1 -80.9 242.1 -80.75 241.75 -80.65 241.25 -80.65 241.1 -75.15 223.0 -75.15 222.85 -75.0 222.6 -75.0 222.5 -74.9 222.1 -74.9 222.0 -74.75 221.75 -74.4 220.5 -74.25 220.1 -74.15 219.6 -74.0 219.25 -73.5 217.6 -73.4 217.1 -73.25 216.75 -72.9 215.5 -72.75 215.1 -72.65 214.6 -72.5 214.25 -71.0 209.25 -71.0 209.1 -57.5 164.35 -57.5 164.25 -56.4 160.6 -56.25 160.25 -55.25 156.85 -55.25 156.75 -54.4 155.1 -54.5 154.35 -54.5 154.25 -54.15 153.1 -54.15 153.0 -53.75 152.6 -47.5 164.5 -47.4 164.85 -75.9 257.35 -83.5 251.75 M-44.25 171.0 L-43.9 171.1 -27.5 202.6 -51.25 275.5 -71.9 260.5 -72.0 260.25 -44.25 171.0" fill="#433936" fill-rule="evenodd" stroke="none"/>
    <path d="M-79.9 237.85 L-79.9 237.6 -79.75 237.6 -79.9 237.85" fill="#0c0b0a" fill-rule="evenodd" stroke="none"/>
    <path d="M78.5 237.35 L78.5 237.4 78.5 237.75 78.6 237.85 78.6 238.0 78.75 238.35 78.85 238.6 78.85 238.75 79.0 239.1 79.0 239.25 79.1 239.5 79.1 239.6 79.25 239.85 79.25 240.0 79.25 240.1 79.35 240.5 79.5 240.75 79.5 241.1 79.6 241.25 79.6 241.35 79.75 242.0 79.85 242.35 81.75 248.6 81.75 248.75 81.85 249.25 82.0 249.6 82.1 250.1 82.25 250.25 82.25 250.6 82.5 251.6 74.75 257.35 46.35 164.85 46.35 164.5 52.6 152.35 53.35 155.1 53.85 155.6 53.85 155.85 54.0 156.0 54.0 156.1 54.25 156.85 54.25 157.1 54.35 157.25 54.35 157.5 54.5 157.6 54.5 157.75 54.6 158.1 54.6 158.35 54.75 158.5 54.75 158.75 54.85 158.85 54.85 159.0 55.1 159.6 55.1 160.0 55.25 160.25 55.35 160.6 55.5 160.85 55.5 161.25 55.6 161.5 55.6 161.6 55.75 161.75 55.75 161.85 55.85 162.1 55.85 162.5 56.0 162.85 56.1 163.0 56.1 163.1 56.25 163.35 56.25 163.75 56.35 164.1 56.5 164.35 56.5 164.6 56.6 164.75 56.6 165.0 56.75 165.1 56.75 165.35 56.85 165.5 56.85 165.6 56.85 165.85 57.0 166.0 57.0 166.25 57.1 166.35 57.1 166.6 57.25 166.75 57.25 166.85 57.25 167.1 57.35 167.25 57.35 167.5 57.5 167.6 57.5 167.85 57.6 168.0 57.6 168.1 57.6 168.35 57.75 168.5 57.85 168.75 57.85 169.1 58.0 169.25 58.0 169.35 58.0 169.6 58.1 169.75 58.25 170.0 58.25 170.35 58.35 170.5 58.35 170.6 58.35 170.85 58.5 171.0 58.6 171.25 58.6 171.35 58.75 171.6 58.75 172.0 58.85 172.25 59.0 172.5 59.0 172.6 59.1 172.85 59.1 173.25 59.25 173.5 59.35 173.75 59.35 173.85 59.5 174.1 59.5 174.35 59.6 174.6 59.6 174.85 59.85 175.5 59.85 175.6 60.0 175.85 60.0 176.1 60.1 176.5 60.25 176.75 60.25 176.85 60.35 177.1 60.35 177.25 60.35 177.5 60.5 177.6 60.6 177.85 60.6 178.1 60.75 178.35 60.75 178.75 60.85 178.75 60.85 179.0 61.0 179.25 61.0 179.35 61.1 179.6 61.1 180.0 61.25 180.0 61.25 180.25 61.35 180.5 61.35 180.6 61.5 180.85 61.5 181.25 61.6 181.25 61.6 181.35 61.75 181.75 61.75 181.85 61.85 182.1 61.85 182.5 62.0 182.5 62.0 182.6 62.1 183.0 62.1 183.1 62.25 183.35 62.25 183.75 62.35 183.75 62.35 183.85 62.5 184.25 62.5 184.35 62.6 184.6 62.6 185.0 62.75 185.0 62.75 185.1 63.0 185.85 63.0 186.25 63.1 186.25 63.1 186.35 63.35 187.1 63.35 187.5 63.5 187.5 63.5 187.6 63.75 188.75 63.85 188.75 63.85 188.85 64.1 190.0 64.25 190.0 64.25 190.1 64.5 191.25 64.6 191.25 64.6 191.35 69.1 206.5 69.1 206.6 69.5 207.75 69.5 207.85 69.85 209.0 69.85 209.1 70.0 209.35 70.0 209.5 70.25 210.25 70.25 210.35 70.35 210.6 70.35 210.75 70.6 211.5 70.6 211.6 70.75 211.85 70.75 212.0 71.0 212.75 71.0 212.85 71.1 213.1 71.1 213.25 71.25 213.5 71.25 213.6 71.35 214.0 71.35 214.1 71.5 214.35 71.5 214.5 71.6 214.75 71.6 214.85 71.75 215.25 71.75 215.35 71.85 215.6 71.85 215.75 72.0 216.0 72.0 216.1 72.1 216.35 72.1 216.6 72.25 216.85 72.25 217.0 72.35 217.25 72.35 217.35 72.5 217.6 72.5 217.85 72.6 218.1 72.6 218.25 72.75 218.5 72.75 218.6 72.85 218.85 72.85 219.0 73.0 219.35 73.0 219.5 73.1 219.75 73.1 219.85 73.25 220.1 73.25 220.25 73.35 220.5 73.35 220.75 73.5 221.0 73.5 221.1 73.6 221.35 73.6 221.5 73.75 221.75 73.75 222.0 73.85 222.25 73.85 222.35 74.0 222.6 74.0 222.75 74.1 223.0 74.1 223.25 74.25 223.35 74.25 223.6 74.35 223.85 74.35 224.0 74.5 224.25 74.5 224.5 74.6 224.6 74.6 224.85 74.75 225.1 74.75 225.25 74.85 225.5 74.85 225.75 75.0 225.85 75.0 226.1 75.1 226.35 75.1 226.5 75.25 226.75 75.25 227.0 75.35 227.1 75.35 227.35 75.5 227.5 75.5 227.75 75.6 228.25 75.85 228.85 75.85 229.0 76.0 229.25 76.0 229.5 76.1 229.6 76.1 229.85 76.25 230.0 76.25 230.25 76.35 230.5 76.35 230.75 76.5 230.85 76.5 231.1 76.6 231.25 76.6 231.5 76.75 231.75 76.75 232.0 76.85 232.1 76.85 232.35 77.0 232.5 77.0 232.75 77.1 232.85 77.1 233.0 77.25 233.25 77.25 233.6 77.35 233.85 77.35 234.0 77.5 234.1 77.5 234.25 77.6 234.5 77.6 234.85 77.75 235.1 77.75 235.25 77.85 235.35 77.85 235.5 78.0 235.75 78.0 236.1 78.1 236.35 78.1 236.5 78.25 236.6 78.25 236.75 78.35 237.1 78.5 237.35 M26.35 202.6 L43.1 171.0 44.75 175.0 44.6 175.5 71.0 260.1 70.75 260.35 50.1 275.5 26.35 202.6" fill="#181513" fill-rule="evenodd" stroke="none"/>
    <path d="M-47.5 164.5 L46.35 164.5 46.35 164.85 43.25 170.6 -44.25 170.6 -47.4 164.85 -47.5 164.5" fill="#aca7a6" fill-rule="evenodd" stroke="none"/>
    <path d="M78.85 238.75 L79.0 239.0 79.0 239.1 78.85 238.75 M79.25 240.0 L79.5 240.5 79.6 240.5 79.5 240.75 79.35 240.5 79.5 240.5 79.25 240.1 79.25 240.0 M79.6 241.25 L79.85 241.75 80.0 242.1 80.1 242.35 79.85 242.35 80.0 242.1 79.75 242.0 79.85 241.75 79.6 241.35 79.6 241.25 M56.5 164.35 L56.6 164.75 56.5 164.6 56.5 164.35 M56.85 165.6 L57.0 166.0 56.85 165.85 56.85 165.6 M57.25 166.85 L57.35 167.25 57.25 167.1 57.25 166.85 M57.6 168.1 L57.75 168.5 57.6 168.35 57.6 168.1 M58.0 169.35 L58.1 169.75 58.0 169.6 58.0 169.35 M58.35 170.6 L58.5 171.0 58.35 170.85 58.35 170.6 M60.35 177.25 L60.5 177.6 60.35 177.5 60.35 177.25" fill="#010101" fill-rule="evenodd" stroke="none"/>
    <path d="M-44.25 171.0 L-72.0 260.25 Q-73.85 258.95 -75.75 257.6 L-75.9 257.35 -47.4 164.85 -44.25 170.6 -44.25 171.0" fill="#bcb7b5" fill-rule="evenodd" stroke="none"/>
    <path d="M-48.0 303.85 L-68.25 289.35 -71.15 265.35 -71.15 265.25 -71.9 260.5 -51.25 275.5 -48.0 303.85 M-72.15 286.5 L-78.75 281.85 -79.5 281.5 -81.65 264.75 -81.65 264.6 -81.9 263.1 -81.9 262.75 -82.0 262.35 -83.5 251.75 -75.9 257.35 -75.75 257.6 -73.15 277.6 -73.0 278.0 -73.0 278.5 -72.9 279.0 -72.9 279.35 -72.75 279.85 -72.75 280.25 -72.4 282.75 -72.4 282.85 -72.15 286.5" fill="#3c3330" fill-rule="evenodd" stroke="none"/>
    <path d="M43.1 171.0 L43.25 170.6 46.35 164.85 74.75 257.35 71.0 260.1 44.6 175.5 44.75 175.0 43.1 171.0" fill="#444242" fill-rule="evenodd" stroke="none"/>
    <path d="M-68.25 289.35 L-71.75 286.85 -72.4 282.85 -72.4 282.75 -72.75 280.25 -72.75 279.85 -72.9 279.35 -72.9 279.0 -73.0 278.5 -73.0 278.0 -73.15 277.6 -75.75 257.6 Q-73.85 258.95 -72.0 260.25 L-71.9 260.5 -71.15 265.25 -71.15 265.35 -68.25 289.35" fill="#a8a3a2" fill-rule="evenodd" stroke="none"/>
    <path d="M70.6 287.0 L67.25 289.35 69.85 269.6 70.1 265.35 70.1 265.25 70.25 264.75 70.75 260.35 71.0 260.1 74.75 257.35 72.1 277.6 72.0 278.0 72.0 278.5 71.85 279.0 71.85 279.35 71.75 279.85 71.75 280.25 71.35 282.75 71.35 282.85 70.6 287.0" fill="#2c2b2a" fill-rule="evenodd" stroke="none"/>
    <path d="M82.5 251.6 L82.35 252.35 82.35 253.0 82.25 253.35 82.25 253.85 82.1 254.25 82.1 254.6 81.85 256.1 81.85 256.25 77.75 281.85 71.0 286.75 71.35 282.85 71.35 282.75 71.75 280.25 71.75 279.85 71.85 279.35 71.85 279.0 72.0 278.5 72.0 278.0 72.1 277.6 74.75 257.35 82.5 251.6" fill="#100d0c" fill-rule="evenodd" stroke="none"/>
    <path d="M71.0 286.75 L70.6 287.0 71.35 282.85 71.0 286.75" fill="#2a2828" fill-rule="evenodd" stroke="none"/>
    <path d="M81.85 256.25 L78.6 281.1 77.75 281.85 81.85 256.25 M67.25 289.35 L65.0 291.1 70.1 265.35 69.85 269.6 67.25 289.35" fill="#0f0d0c" fill-rule="evenodd" stroke="none"/>
    <path d="M65.0 291.1 L46.85 304.0 50.1 275.5 70.75 260.35 70.25 264.75 70.1 265.25 70.1 265.35 65.0 291.1" fill="#100d0d" fill-rule="evenodd" stroke="none"/>
    <path d="M-71.75 286.85 L-72.15 286.5 -72.4 282.85 -71.75 286.85" fill="#a9a4a2" fill-rule="evenodd" stroke="none"/>
    <path d="M4.0 304.1 L-5.0 304.1 -5.15 276.5 -23.75 276.5 -23.75 278.35 -26.0 278.35 -26.15 266.6 -24.0 266.6 -23.9 268.6 -5.15 268.6 -5.15 242.5 -7.5 242.35 -7.65 240.35 6.6 240.5 6.5 242.35 4.5 242.35 4.0 243.1 4.1 268.6 22.85 268.6 23.0 266.6 25.1 266.6 24.85 278.35 22.75 278.35 22.75 276.5 4.0 276.5 4.0 304.1" fill="#807d7b" fill-rule="evenodd" stroke="none"/>
    <path d="M51.25 146.85 L51.75 148.5 51.85 149.0 52.1 149.6 52.1 149.85 52.25 149.85 53.85 155.6 53.85 155.85 54.0 156.0 54.0 156.1 54.25 156.85 54.25 157.1 54.35 157.25 54.35 157.5 54.5 157.6 54.5 157.75 54.6 158.1 54.6 158.35 54.75 158.5 54.75 158.75 54.85 158.85 54.85 159.0 55.1 159.6 55.1 160.0 55.25 160.0 55.25 160.25 55.35 160.6 55.5 160.85 55.5 161.25 55.6 161.25 55.6 161.5 55.6 161.6 55.75 161.75 55.75 161.85 55.85 162.1 55.85 162.5 56.0 162.5 56.0 162.85 56.1 162.85 56.1 163.0 56.1 163.1 56.25 163.35 56.25 163.75 56.35 163.75 56.35 164.1 56.5 164.1 56.5 164.35 56.6 164.75 56.6 165.0 56.75 165.1 56.75 165.35 56.85 165.5 56.85 165.6 57.0 166.0 57.0 166.25 57.1 166.35 57.1 166.6 57.25 166.75 57.25 166.85 57.35 167.25 57.35 167.5 57.5 167.6 57.5 167.85 57.6 168.0 57.6 168.1 57.75 168.5 57.85 168.75 57.85 169.1 58.0 169.25 58.0 169.35 58.1 169.75 58.25 170.0 58.25 170.35 58.35 170.5 58.35 170.6 58.5 171.0 58.6 171.25 58.6 171.35 58.75 171.6 58.75 172.0 58.85 172.0 58.85 172.25 59.0 172.5 59.0 172.6 59.1 172.85 59.1 173.25 59.25 173.25 59.25 173.5 59.35 173.75 59.35 173.85 59.5 174.1 59.5 174.35 59.6 174.6 59.6 174.85 59.75 175.0 59.75 175.25 59.85 175.35 59.85 175.5 59.85 175.6 60.0 175.85 60.0 176.1 60.1 176.25 60.1 176.5 60.25 176.6 60.25 176.75 60.25 176.85 60.35 177.1 60.35 177.25 60.5 177.6 60.6 177.85 60.6 178.1 60.75 178.35 60.75 178.75 60.85 178.75 60.85 179.0 61.0 179.1 61.0 179.25 61.0 179.35 61.1 179.6 61.1 180.0 61.25 180.0 61.25 180.25 61.35 180.35 61.35 180.5 61.35 180.6 61.5 180.85 61.5 181.25 61.6 181.25 61.6 181.35 61.75 181.6 61.75 181.75 61.75 181.85 61.85 182.1 61.85 182.5 62.0 182.5 62.0 182.6 62.1 182.85 62.1 183.0 62.1 183.1 62.25 183.35 62.25 183.75 62.35 183.75 62.35 183.85 62.5 184.1 62.5 184.25 62.5 184.35 62.6 184.6 62.6 185.0 62.75 185.0 62.75 185.1 62.95 185.7 63.0 185.75 63.0 185.85 63.0 186.25 63.1 186.25 63.1 186.35 63.15 186.5 63.3 186.9 63.35 187.0 63.35 187.1 63.35 187.5 63.5 187.5 63.5 187.6 63.6 188.0 63.75 188.25 63.75 188.75 63.85 188.75 63.85 188.85 64.1 189.5 64.1 190.0 64.25 190.0 64.25 190.1 64.35 190.5 64.5 190.75 64.5 191.25 64.6 191.25 64.6 191.35 64.75 191.75 64.8 192.05 64.9 192.35 65.0 192.6 65.35 193.85 65.5 194.25 65.6 194.75 65.65 194.85 65.75 195.1 66.25 196.75 66.35 197.25 66.5 197.6 66.85 198.85 67.0 199.25 67.1 199.75 67.25 200.1 67.75 201.75 67.85 202.25 68.0 202.6 68.5 204.25 68.6 204.75 68.75 205.1 69.0 206.0 69.1 206.1 69.1 206.5 69.1 206.6 69.25 206.75 69.35 207.25 69.5 207.35 69.5 207.75 69.5 207.85 69.6 208.0 69.75 208.5 69.85 208.6 69.85 209.0 69.85 209.1 70.0 209.35 70.0 209.5 70.25 210.25 70.25 210.35 70.35 210.6 70.35 210.75 70.5 211.0 70.6 211.5 70.6 211.6 70.75 211.85 70.75 212.0 71.0 212.75 71.0 212.85 71.1 213.1 71.1 213.25 71.25 213.5 71.25 213.6 71.35 214.0 71.35 214.1 71.5 214.35 71.5 214.5 71.6 214.75 71.6 214.85 71.75 215.25 71.75 215.35 71.85 215.6 71.85 215.75 72.0 216.0 72.0 216.1 72.1 216.35 72.1 216.6 72.25 216.85 72.25 217.0 72.35 217.25 72.35 217.35 72.5 217.6 72.5 217.85 72.6 218.1 72.6 218.25 72.75 218.5 72.75 218.6 72.85 218.85 72.85 219.0 73.0 219.35 73.0 219.5 73.1 219.75 73.1 219.85 73.25 220.1 73.25 220.25 73.35 220.5 73.35 220.75 73.5 221.0 73.5 221.1 73.6 221.35 73.6 221.5 73.75 221.75 73.75 222.0 73.85 222.25 73.85 222.35 74.0 222.6 74.0 222.75 74.1 223.0 74.1 223.25 74.25 223.35 74.25 223.6 74.35 223.85 74.35 224.0 74.5 224.25 74.5 224.5 74.6 224.6 74.6 224.85 74.75 225.1 74.75 225.25 74.85 225.5 74.85 225.75 75.0 225.85 75.0 226.1 75.1 226.35 75.1 226.5 75.25 226.75 75.25 227.0 75.35 227.1 75.35 227.35 75.5 227.5 75.5 227.75 75.6 227.75 75.6 228.25 75.75 228.25 75.75 228.6 75.85 228.6 75.85 228.85 75.85 229.0 76.0 229.25 76.0 229.5 76.1 229.6 76.1 229.85 76.25 230.0 76.25 230.25 76.35 230.25 76.35 230.5 76.35 230.75 76.5 230.85 76.5 231.1 76.6 231.25 76.6 231.5 76.75 231.5 76.75 231.75 76.75 232.0 76.85 232.1 76.85 232.35 77.0 232.5 77.0 232.75 77.1 232.75 77.1 232.85 77.1 233.0 77.25 233.25 77.25 233.6 77.35 233.6 77.35 233.85 77.35 234.0 77.5 234.1 77.5 234.25 77.6 234.5 77.6 234.85 77.75 234.85 77.75 235.1 77.75 235.25 77.85 235.35 77.85 235.5 78.0 235.75 78.0 236.1 78.1 236.1 78.1 236.35 78.1 236.5 78.25 236.6 78.25 236.75 78.35 237.1 78.5 237.35 65.75 188.1 41.35 107.5 50.85 145.5 51.25 146.85 -52.4 146.85 -53.15 149.1 -53.15 149.35 -53.25 149.6 -53.25 150.0 -53.5 150.85 -53.5 151.0 -53.75 151.75 -53.75 151.85 -53.9 152.1 -53.9 152.25 -53.65 152.35 52.6 152.35 52.1 149.85 M55.1 160.0 L55.25 160.25 M53.35 155.1 L52.6 152.35 46.35 164.5 46.35 164.85 74.75 257.35 82.5 251.6 82.25 250.6 82.25 250.25 82.1 250.1 82.0 249.6 81.85 249.25 81.75 248.75 81.75 248.6 79.85 242.35 79.75 242.0 79.6 241.35 79.6 241.25 79.5 241.1 79.5 240.75 79.35 240.5 79.25 240.1 79.25 240.0 79.25 239.85 79.1 239.6 79.1 239.5 79.0 239.25 79.0 239.1 78.85 238.75 78.75 238.35 78.6 238.0 78.6 237.85 78.5 237.75 78.5 237.45 78.5 237.35 M46.35 164.85 L43.25 170.6 43.1 171.0 44.75 175.0 44.6 175.5 71.0 260.1 74.75 257.35 72.1 277.6 72.0 278.0 72.0 278.5 71.85 279.0 71.85 279.35 71.75 279.85 71.75 280.25 71.35 282.75 71.35 282.85 71.0 286.75 77.75 281.85 78.6 281.1 81.85 256.25 81.85 256.1 82.1 254.6 82.1 254.25 82.25 253.85 82.25 253.35 82.35 253.0 82.35 252.35 82.5 251.6 M56.1 163.0 L56.0 162.85 55.85 162.5 M56.6 164.75 L56.5 164.6 56.5 164.35 56.35 164.1 56.25 163.75 M56.85 165.6 L56.85 165.85 57.0 166.0 M55.5 161.25 L55.6 161.5 M57.25 166.85 L57.25 167.1 57.35 167.25 M57.6 168.1 L57.6 168.35 57.75 168.5 M58.0 169.35 L58.0 169.6 58.1 169.75 M58.35 170.6 L58.35 170.85 58.5 171.0 M58.75 172.0 L58.85 172.25 M59.1 173.25 L59.25 173.5 M59.85 175.5 L59.75 175.25 59.6 174.85 M60.35 177.25 L60.35 177.5 60.5 177.6 M60.25 176.75 L60.1 176.5 60.0 176.1 M60.85 179.0 L61.0 179.25 M61.25 180.25 L61.35 180.5 M61.6 181.35 L61.75 181.75 M62.75 185.1 L62.85 185.6 62.95 185.7 63.0 185.85 M62.0 182.6 L62.1 183.0 M62.35 183.85 L62.5 184.25 M63.35 187.1 L63.3 186.9 63.25 186.85 63.15 186.5 M63.85 188.85 L64.1 190.0 M64.25 190.1 L64.5 191.25 M63.5 187.6 L63.75 188.75 M65.6 194.75 L64.9 192.35 64.85 192.25 64.8 192.05 64.6 191.35 M65.65 194.85 L66.35 197.25 67.1 199.75 69.1 206.5 M69.85 209.0 L69.5 207.85 M69.1 206.6 L69.5 207.75 M70.35 210.75 L70.6 211.5 M75.6 228.25 L75.75 228.6 75.85 228.85 M75.5 227.75 L75.6 228.25 M76.6 231.5 L76.75 231.75 M76.25 230.25 L76.35 230.5 M77.0 232.75 L77.1 232.85 M77.25 233.6 L77.35 233.85 M77.6 234.85 L77.75 235.1 M78.6 237.85 L78.6 237.8 78.6 237.75 78.5 237.75 M78.6 237.75 L78.5 237.45 M78.1 236.35 L78.0 236.1 M78.85 238.75 L78.85 238.6 78.75 238.35 78.6 237.8 M79.0 239.1 L79.0 239.0 78.85 238.75 M79.25 240.1 L79.5 240.5 79.25 240.0 M79.5 240.75 L79.6 240.5 79.5 240.5 79.35 240.5 M79.85 242.35 L80.1 242.35 80.0 242.1 79.85 242.35 M80.0 242.1 L79.85 241.75 79.75 242.0 80.0 242.1 M81.75 248.6 L80.1 242.6 80.1 242.35 M79.6 241.35 L79.85 241.75 79.6 241.25 M6.6 240.5 L-7.65 240.35 -7.5 242.35 -5.15 242.5 -5.15 268.6 -23.9 268.6 -24.0 266.6 -26.15 266.6 -26.0 278.35 -23.75 278.35 -23.75 276.5 -5.15 276.5 -5.0 304.1 4.0 304.1 4.0 276.5 22.75 276.5 22.75 278.35 24.85 278.35 25.1 266.6 23.0 266.6 22.85 268.6 4.1 268.6 4.0 243.1 4.5 242.35 6.5 242.35 6.6 240.5 M71.0 260.1 L70.75 260.35 70.25 264.75 70.1 265.25 69.85 269.6 67.25 289.35 70.6 287.0 71.35 282.85 M71.0 286.75 L70.6 287.0 M70.75 260.35 L50.1 275.5 46.85 304.0 67.25 289.35 M50.1 275.5 L26.35 202.6 -27.5 202.6 -51.25 275.5 -48.0 303.85 -5.0 304.1 M46.85 304.0 L4.0 304.1 M26.35 202.6 L43.1 171.0 M-48.0 303.85 L-68.25 289.35 -71.75 286.85 -72.15 286.5 -78.75 281.85 -79.5 281.5 -81.65 264.75 -81.65 264.6 -81.9 263.1 -81.9 262.75 -82.0 262.35 -83.5 251.75 -81.25 243.25 -81.15 243.1 -80.9 242.1 -80.75 241.75 -80.65 241.25 -80.65 241.1 -80.5 239.85 -80.25 239.0 -80.15 238.85 -80.0 238.35 -80.0 238.0 -79.9 237.85 -79.9 237.6 -79.75 237.35 -79.75 237.1 -79.65 237.0 -79.65 236.75 -79.5 236.5 -79.5 236.35 -79.4 236.1 -79.4 235.85 -79.25 235.75 -79.25 235.5 -79.0 234.85 -79.0 234.6 -67.0 189.0 -49.9 131.75 -48.65 128.5 -48.75 128.0 -48.25 127.25 -44.75 114.6 -44.4 114.25 -44.4 114.1 -44.25 113.85 -44.25 113.75 -44.15 113.35 -44.0 113.0 -44.0 112.85 -43.9 112.35 -43.75 112.0 -43.65 111.5 -43.65 111.1 -43.5 110.85 -43.5 110.6 -42.5 107.5 41.35 107.5 M-52.4 146.85 L-52.0 145.5 -44.4 114.25 M-53.9 152.25 L-54.15 153.0 -53.75 152.6 -53.65 152.35 M-54.15 153.0 L-54.15 153.1 -54.5 154.25 -54.5 154.35 -55.25 156.75 -55.25 156.85 -56.25 160.25 -56.4 160.6 -57.5 164.25 -57.5 164.35 -71.0 209.1 -71.0 209.25 -72.5 214.25 -72.65 214.6 -72.75 215.1 -72.9 215.5 -73.25 216.75 -73.4 217.1 -73.5 217.6 -74.0 219.25 -74.15 219.6 -74.25 220.1 -74.4 220.5 -74.75 221.75 -74.9 222.0 -74.9 222.1 -75.0 222.5 -75.0 222.6 -75.15 222.85 -75.15 223.0 -75.4 223.85 -80.65 241.1 M-74.9 222.1 L-75.15 222.35 -75.0 222.5 M-75.15 223.0 L-75.5 223.25 -75.5 223.6 -75.4 223.85 -75.75 224.25 -75.9 224.6 -76.0 225.1 -76.15 225.5 -76.5 226.75 -76.65 227.1 -76.75 227.6 -77.25 229.25 -77.4 229.6 -77.5 230.1 -78.0 231.75 -78.15 232.1 -78.25 232.6 -78.4 233.0 -78.75 234.25 -78.9 234.5 -79.0 234.6 M-79.9 237.6 L-79.75 237.6 -79.9 237.85 M-47.4 164.85 L-75.9 257.35 -75.75 257.6 Q-73.85 258.95 -72.0 260.25 L-44.25 171.0 M-68.25 289.35 L-71.15 265.35 -71.15 265.25 -71.9 260.5 -72.0 260.25 M-75.75 257.6 L-73.15 277.6 -73.0 278.0 -73.0 278.5 -72.9 279.0 -72.9 279.35 -72.75 279.85 -72.75 280.25 -72.4 282.75 -72.4 282.85 -71.75 286.85 M-72.15 286.5 L-72.4 282.85 M-51.25 275.5 L-71.9 260.5 M-75.9 257.35 L-83.5 251.75 M46.35 164.5 L-47.5 164.5 M-44.25 170.6 L43.25 170.6 M50.85 145.5 L-52.0 145.5" fill="none" stroke="#000000" stroke-linecap="round" stroke-linejoin="round" stroke-width="0.7000000000000001"/>
  </g>
</svg>
