<?xml version="1.0" encoding="UTF-8" standalone="no"?>
<svg xmlns:xlink="http://www.w3.org/1999/xlink" height="463.0px" width="197.0px" xmlns="http://www.w3.org/2000/svg">
  <g transform="matrix(1.0, 0.0, 0.0, 1.0, 98.5, 181.0)">
    <path d="M56.25 -171.15 L-56.25 -171.15 -63.75 -180.5 63.75 -180.5 56.25 -171.15" fill="#3e3431" fill-rule="evenodd" stroke="none"/>
    <path d="M52.75 275.95 L58.25 281.5 -58.25 281.5 -52.75 275.95 52.75 275.95" fill="#110f0e" fill-rule="evenodd" stroke="none"/>
    <path d="M56.4 -170.9 L56.25 -171.15 63.75 -180.5 98.0 -42.5 89.25 -41.0 56.4 -170.9 M-56.25 -171.15 L-56.4 -170.9 -89.25 -41.0 -98.0 -42.5 -63.75 -180.5 -56.25 -171.15" fill="#443a36" fill-rule="evenodd" stroke="none"/>
    <path d="M89.25 -41.0 L98.0 -42.5 58.25 281.5 52.75 275.95 52.65 275.35 89.25 -41.0 M-98.0 -42.5 L-89.25 -41.0 -52.65 275.35 -52.75 275.95 -58.25 281.5 -98.0 -42.5" fill="#3c3330" fill-rule="evenodd" stroke="none"/>
    <path d="M45.3 -156.85 L72.95 -38.35 41.7 264.5 -41.7 264.5 -72.95 -38.35 -45.3 -156.85 45.3 -156.85" fill="url(#gradient0)" fill-rule="evenodd" stroke="none"/>
    <path d="M72.95 -38.35 L84.7 -40.35 48.35 271.25 41.7 264.5 72.95 -38.35 M-41.7 264.5 L-48.35 271.25 -84.7 -40.35 -72.95 -38.35 -41.7 264.5" fill="#5b244a" fill-rule="evenodd" stroke="none"/>
    <path d="M52.65 -166.0 L45.3 -156.85 -45.3 -156.85 -52.65 -166.0 52.65 -166.0" fill="#411b37" fill-rule="evenodd" stroke="none"/>
    <path d="M45.3 -156.85 L52.65 -166.0 84.7 -40.35 72.95 -38.35 45.3 -156.85 M-52.65 -166.0 L-45.3 -156.85 -72.95 -38.35 -84.7 -40.35 -52.65 -166.0" fill="#4b1f41" fill-rule="evenodd" stroke="none"/>
    <path d="M41.7 264.5 L48.35 271.25 -48.35 271.25 -41.7 264.5 41.7 264.5" fill="#9c3f85" fill-rule="evenodd" stroke="none"/>
    <path d="M84.7 -40.35 L52.65 -166.0 56.4 -170.9 89.25 -41.0 84.7 -40.35 M-56.4 -170.9 L-52.65 -166.0 -84.7 -40.35 -89.25 -41.0 -56.4 -170.9" fill="#6f2d5f" fill-rule="evenodd" stroke="none"/>
    <path d="M56.4 -170.9 L52.65 -166.0 -52.65 -166.0 -56.4 -170.9 -56.25 -171.15 56.25 -171.15 56.4 -170.9" fill="#783267" fill-rule="evenodd" stroke="none"/>
    <path d="M84.7 -40.35 L89.25 -41.0 52.65 275.35 48.35 271.25 84.7 -40.35 M-89.25 -41.0 L-84.7 -40.35 -48.35 271.25 -52.65 275.35 -89.25 -41.0" fill="#642855" fill-rule="evenodd" stroke="none"/>
    <path d="M48.35 271.25 L52.65 275.35 52.75 275.95 -52.75 275.95 -52.65 275.35 -48.35 271.25 48.35 271.25" fill="#502144" fill-rule="evenodd" stroke="none"/>
    <path d="M56.25 -171.15 L-56.25 -171.15 M89.25 -41.0 L56.4 -170.9 M98.0 -42.5 L63.75 -180.5 -63.75 -180.5 -98.0 -42.5 -58.25 281.5 -52.75 275.95 52.75 275.95 58.25 281.5 98.0 -42.5 M52.65 275.35 L89.25 -41.0 M-89.25 -41.0 L-56.4 -170.9 M-52.65 275.35 L-89.25 -41.0 M58.25 281.5 L-58.25 281.5" fill="none" stroke="#000000" stroke-linecap="round" stroke-linejoin="round" stroke-width="1.0"/>
  </g>
  <defs>
    <linearGradient gradientTransform="matrix(0.028, 0.2879, -0.2559, 0.0249, 0.05, 53.85)" gradientUnits="userSpaceOnUse" id="gradient0" spreadMethod="pad" x1="-819.2" x2="819.2">
      <stop offset="0.0" stop-color="#5b244a"/>
      <stop offset="1.0" stop-color="#7a3660"/>
    </linearGradient>
  </defs>
</svg>
