<?xml version="1.0" encoding="UTF-8" standalone="no"?>
<svg xmlns:xlink="http://www.w3.org/1999/xlink" height="462.85px" width="195.7px" xmlns="http://www.w3.org/2000/svg">
  <g transform="matrix(1.0, 0.0, 0.0, 1.0, 98.35, 181.0)">
    <path d="M55.1 -171.15 L-56.25 -171.15 -63.75 -180.5 62.6 -180.65 55.1 -171.15 M-52.65 -166.0 L51.5 -166.0 31.75 -140.65 -32.9 -140.65 -51.65 -165.15 -52.65 -166.0" fill="#3e3431" fill-rule="evenodd" stroke="none"/>
    <path d="M51.5 -166.0 L83.6 -40.4 72.5 -38.65 72.35 -38.65 69.0 -38.15 68.5 -38.0 68.1 -38.0 67.6 -37.9 67.25 -37.9 66.85 -37.75 66.5 -37.75 66.0 -37.65 65.6 -37.65 65.25 -37.5 59.6 -36.75 31.75 -140.65 51.5 -166.0 M88.25 -41.0 L55.25 -170.9 55.1 -171.15 62.6 -180.65 97.0 -42.5 93.75 -42.0 93.35 -41.9 93.0 -41.9 92.6 -41.75 92.25 -41.75 90.25 -41.4 90.1 -41.4 88.25 -41.0" fill="#181513" fill-rule="evenodd" stroke="none"/>
    <path d="M55.25 -170.9 L51.5 -166.0 -52.65 -166.0 -56.4 -170.9 -56.25 -171.15 55.1 -171.15 55.25 -170.9" fill="#aca7a6" fill-rule="evenodd" stroke="none"/>
    <path d="M-56.25 -171.15 L-56.4 -170.9 -89.25 -41.0 -91.15 -41.4 -91.25 -41.4 -92.9 -41.65 -93.25 -41.75 -93.65 -41.75 -94.0 -41.9 -94.4 -41.9 -94.75 -42.0 -98.0 -42.5 -63.75 -180.5 -56.25 -171.15 M-52.65 -166.0 L-51.65 -165.15 -32.9 -140.65 -60.75 -36.75 -66.25 -37.5 -66.65 -37.65 -67.0 -37.65 -67.5 -37.75 -67.9 -37.75 -68.25 -37.9 -68.65 -37.9 -69.15 -38.0 -69.5 -38.0 -72.75 -38.5 -73.4 -38.65 -73.5 -38.65 -84.75 -40.4 -52.65 -166.0" fill="#443a36" fill-rule="evenodd" stroke="none"/>
    <path d="M-56.4 -170.9 L-52.65 -166.0 -84.75 -40.4 -87.15 -40.75 -87.5 -40.75 -87.65 -40.75 -89.25 -41.0 -56.4 -170.9" fill="#bcb7b5" fill-rule="evenodd" stroke="none"/>
    <path d="M-29.75 273.1 L-47.65 278.35 -48.0 278.5 -50.25 259.6 -50.4 259.25 -50.4 258.6 -50.5 258.1 -50.5 257.6 -50.65 257.1 -50.65 256.75 -51.0 253.85 -51.0 253.75 -84.0 -35.15 -84.0 -35.4 -84.15 -35.9 -84.75 -40.25 -84.75 -40.4 -73.5 -38.65 -73.4 -38.65 -72.75 -38.5 -69.5 -38.0 -69.15 -38.0 -68.65 -37.9 -68.25 -37.9 -67.9 -37.75 -67.5 -37.75 -67.0 -37.65 -66.65 -37.65 -66.25 -37.5 -60.75 -36.75 -29.75 273.1 M-58.25 281.5 L-89.75 26.75 -96.15 -28.15 -96.15 -28.25 -96.4 -29.9 -96.4 -30.25 -96.5 -30.65 -98.0 -42.5 -94.75 -42.0 -94.4 -41.9 -94.0 -41.9 -93.65 -41.75 -93.25 -41.75 -92.9 -41.65 -91.25 -41.4 -91.15 -41.4 -89.25 -41.0 -86.5 -18.4 -86.4 -18.0 -86.4 -17.4 -86.25 -17.0 -86.25 -16.5 -86.15 -15.9 -86.15 -15.5 -86.0 -14.9 -86.0 -14.5 -85.75 -12.75 -85.75 -12.65 -77.5 54.0 -53.15 267.5 -53.15 267.6 -53.0 268.35 -53.0 268.75 -52.9 269.1 -51.65 279.35 -51.65 279.5 -58.25 281.5" fill="#3c3330" fill-rule="evenodd" stroke="none"/>
    <path d="M51.5 -166.0 L55.25 -170.9 88.25 -41.0 86.6 -40.75 86.0 -40.75 83.6 -40.4 51.5 -166.0" fill="#444242" fill-rule="evenodd" stroke="none"/>
    <path d="M31.75 -140.65 L59.6 -36.75 29.0 270.6 29.0 271.0 28.85 271.35 28.6 273.1 -29.75 273.1 -60.75 -36.75 -32.9 -140.65 31.75 -140.65 M5.0 -83.25 L5.25 -83.75 7.85 -83.75 8.0 -86.5 -9.0 -86.65 -8.9 -83.75 -6.25 -83.75 -6.15 -83.15 -6.0 -46.65 -28.25 -46.65 -28.4 -49.5 -31.0 -49.5 -30.75 -32.75 -28.15 -32.75 -28.25 -35.4 -27.9 -35.5 -6.0 -35.5 -5.65 25.35 -6.0 26.25 -8.5 26.25 -8.65 28.85 7.35 28.85 7.5 26.25 4.75 26.1 4.85 -35.5 27.1 -35.5 27.1 -32.75 29.75 -32.75 30.0 -49.5 27.35 -49.5 27.25 -46.65 5.0 -46.65 5.0 -83.25" fill="#2e2724" fill-rule="evenodd" stroke="none"/>
    <path d="M83.6 -40.4 L86.0 -40.75 86.6 -40.75 88.25 -41.0 85.5 -18.4 85.35 -18.0 85.35 -17.4 85.25 -17.0 85.25 -16.5 85.1 -15.9 85.1 -15.5 85.0 -14.9 85.0 -14.5 84.75 -12.75 84.75 -12.65 76.55 54.0 50.0 253.75 83.0 -35.15 83.0 -35.4 83.75 -40.25 83.6 -40.4" fill="#2c2b2a" fill-rule="evenodd" stroke="none"/>
    <path d="M76.55 54.0 L84.75 -12.65 84.75 -12.75 85.0 -14.5 85.0 -14.9 85.1 -15.5 85.1 -15.9 85.25 -16.5 85.25 -17.0 85.35 -17.4 85.35 -18.0 85.5 -18.4 88.25 -41.0 90.1 -41.4 90.25 -41.4 92.25 -41.75 92.6 -41.75 93.0 -41.9 93.35 -41.9 93.75 -42.0 97.0 -42.5 95.5 -30.65 95.35 -30.25 95.35 -29.9 95.1 -28.25 95.1 -28.15 52.1 267.5 76.55 54.0" fill="#100d0c" fill-rule="evenodd" stroke="none"/>
    <path d="M50.0 253.75 L76.55 54.0 52.1 267.5 52.1 267.6 52.0 268.35 52.0 268.75 51.85 269.1 50.5 279.5 50.25 279.5 49.35 279.1 49.0 279.1 47.0 278.5 47.0 278.35 49.25 259.6 49.35 259.25 49.35 258.6 49.5 258.1 49.5 257.6 49.6 257.1 49.6 256.75 50.0 253.85 50.0 253.75" fill="#2a2828" fill-rule="evenodd" stroke="none"/>
    <path d="M83.0 -35.15 L50.0 253.75 50.0 253.85 49.6 256.75 49.6 257.1 49.5 257.6 49.5 258.1 49.35 258.6 49.35 259.25 49.25 259.6 47.0 278.35 43.25 277.35 43.1 277.35 42.35 277.1 41.85 277.0 38.1 275.85 37.6 275.75 37.25 275.6 28.6 273.1 28.85 271.35 29.0 271.0 29.0 270.6 83.0 -35.15 M50.5 279.5 L51.85 269.1 52.0 268.75 52.0 268.35 52.1 267.6 52.1 267.5 95.1 -28.15 88.75 26.75 57.6 280.85 57.25 281.5 50.5 279.5" fill="#0f0d0c" fill-rule="evenodd" stroke="none"/>
    <path d="M59.6 -36.75 L65.25 -37.5 65.6 -37.65 66.0 -37.65 66.5 -37.75 66.85 -37.75 67.25 -37.9 67.6 -37.9 68.1 -38.0 68.5 -38.0 69.0 -38.15 72.35 -38.65 72.5 -38.65 83.6 -40.4 83.75 -40.25 83.0 -35.4 83.0 -35.15 29.0 270.6 59.6 -36.75" fill="#100d0d" fill-rule="evenodd" stroke="none"/>
    <path d="M-89.25 -41.0 L-87.65 -40.75 -87.5 -40.75 -87.0 -40.65 -86.75 -40.65 -86.4 -40.5 -84.75 -40.25 -84.15 -35.9 -84.0 -35.4 -84.0 -35.15 -51.0 253.75 -77.5 54.0 -85.75 -12.65 -85.75 -12.75 -86.0 -14.5 -86.0 -14.9 -86.15 -15.5 -86.15 -15.9 -86.25 -16.5 -86.25 -17.0 -86.4 -17.4 -86.4 -18.0 -86.5 -18.4 -89.25 -41.0" fill="#a8a3a2" fill-rule="evenodd" stroke="none"/>
    <path d="M-51.0 253.75 L-51.0 253.85 -50.65 256.75 -50.65 257.1 -50.5 257.6 -50.5 258.1 -50.4 258.6 -50.4 259.25 -50.25 259.6 -48.0 278.5 -48.15 278.5 -51.65 279.35 -52.9 269.1 -53.0 268.75 -53.0 268.35 -53.15 267.6 -53.15 267.5 -77.5 54.0 -51.0 253.75" fill="#a9a4a2" fill-rule="evenodd" stroke="none"/>
    <path d="M-48.0 278.5 L47.0 278.5 49.0 279.1 49.35 279.1 50.25 279.5 -51.65 279.5 -51.65 279.35 -48.15 278.5 -48.0 278.5" fill="#302f2e" fill-rule="evenodd" stroke="none"/>
    <path d="M28.6 273.1 L37.25 275.6 37.6 275.75 38.1 275.85 41.85 277.0 42.35 277.1 43.1 277.35 43.25 277.35 47.0 278.35 47.0 278.5 -48.0 278.5 -47.65 278.35 -29.75 273.1 28.6 273.1 M57.25 281.5 L-58.25 281.5 -51.65 279.5 50.25 279.5 50.5 279.5 57.25 281.5" fill="#110f0e" fill-rule="evenodd" stroke="none"/>
    <path d="M-87.5 -40.75 L-87.15 -40.75 -84.75 -40.4 -84.75 -40.25 -86.4 -40.5 -86.75 -40.65 -87.0 -40.65 -87.5 -40.75" fill="#a8a4a2" fill-rule="evenodd" stroke="none"/>
    <path d="M5.0 -83.25 L5.0 -46.65 27.25 -46.65 27.35 -49.5 30.0 -49.5 29.75 -32.75 27.1 -32.75 27.1 -35.5 4.85 -35.5 4.75 26.1 7.5 26.25 7.35 28.85 -8.65 28.85 -8.5 26.25 -6.0 26.25 -5.65 25.35 -6.0 -35.5 -27.9 -35.5 -28.25 -35.4 -28.15 -32.75 -30.75 -32.75 -31.0 -49.5 -28.4 -49.5 -28.25 -46.65 -6.0 -46.65 -6.15 -83.15 -6.25 -83.75 -8.9 -83.75 -9.0 -86.65 8.0 -86.5 7.85 -83.75 5.25 -83.75 5.0 -83.25" fill="#807d7b" fill-rule="evenodd" stroke="none"/>
    <path d="M51.5 -166.0 L83.6 -40.4 86.0 -40.75 86.5 -40.75 86.6 -40.75 88.25 -41.0 55.25 -170.9 51.5 -166.0 31.75 -140.65 59.6 -36.75 65.25 -37.5 65.6 -37.65 66.0 -37.65 66.5 -37.75 66.85 -37.75 67.25 -37.9 67.6 -37.9 68.1 -38.0 68.5 -38.0 69.0 -38.15 72.35 -38.65 72.5 -38.65 75.3 -39.05 83.6 -40.4 83.75 -40.25 85.35 -40.5 85.75 -40.65 86.0 -40.65 86.0 -40.75 M88.25 -41.0 L90.1 -41.4 90.25 -41.4 92.25 -41.75 92.6 -41.75 93.0 -41.9 93.35 -41.9 93.75 -42.0 97.0 -42.5 62.6 -180.65 55.1 -171.15 55.25 -170.9 M5.0 -83.25 L5.0 -46.65 27.25 -46.65 27.35 -49.5 30.0 -49.5 29.75 -32.75 27.1 -32.75 27.1 -35.5 4.85 -35.5 4.75 26.1 7.5 26.25 7.35 28.85 -8.65 28.85 -8.5 26.25 -6.0 26.25 -5.65 25.35 -6.0 -35.5 -27.9 -35.5 -28.25 -35.4 -28.15 -32.75 -30.75 -32.75 -31.0 -49.5 -28.4 -49.5 -28.25 -46.65 -6.0 -46.65 -6.15 -83.15 -6.25 -83.75 -8.9 -83.75 -9.0 -86.65 8.0 -86.5 7.85 -83.75 5.25 -83.75 5.0 -83.25 M86.0 -40.65 L86.5 -40.75 M83.75 -40.25 L83.0 -35.4 83.0 -35.15 50.0 253.75 50.0 253.85 49.6 256.75 49.6 257.1 49.5 257.6 49.5 258.1 49.35 258.6 49.35 259.25 49.25 259.6 47.0 278.35 47.0 278.5 49.0 279.1 M95.5 -30.65 L97.0 -42.5 M49.35 279.1 L50.25 279.5 50.5 279.5 51.85 269.1 52.0 268.75 52.0 268.35 52.1 267.6 52.1 267.5 76.55 54.0 84.75 -12.65 84.75 -12.75 85.0 -14.5 85.0 -14.9 85.1 -15.5 85.1 -15.9 85.25 -16.5 85.25 -17.0 85.35 -17.4 85.35 -18.0 85.5 -18.4 88.25 -41.0 M75.3 -39.05 L83.75 -40.25 M28.6 273.1 L-29.75 273.1 -47.65 278.35 -47.0 278.5 46.6 278.5 43.25 277.35 43.1 277.35 42.35 277.1 41.85 277.0 38.1 275.85 37.6 275.75 37.25 275.6 28.6 273.1 28.85 271.35 29.0 271.0 29.0 270.6 59.6 -36.75 M46.6 278.5 L47.0 278.5 M47.0 278.35 L43.25 277.35 M50.5 279.5 L57.25 281.5 M57.6 280.85 L88.75 26.75 95.1 -28.15 M62.6 -180.65 L-63.75 -180.5 -98.0 -42.5 -94.75 -42.0 -94.4 -41.9 -94.0 -41.9 -93.65 -41.75 -93.25 -41.75 -92.9 -41.65 -91.25 -41.4 -91.15 -41.4 -89.25 -41.0 -56.4 -170.9 -56.25 -171.15 55.1 -171.15 M-89.25 -41.0 L-87.65 -40.75 -87.5 -40.75 -87.15 -40.75 -84.75 -40.4 -52.65 -166.0 51.5 -166.0 M-89.25 -41.0 L-86.5 -18.4 -86.4 -18.0 -86.4 -17.4 -86.25 -17.0 -86.25 -16.5 -86.15 -15.9 -86.15 -15.5 -86.0 -14.9 -86.0 -14.5 -85.75 -12.75 -85.75 -12.65 -77.5 54.0 -53.15 267.5 -53.15 267.6 -53.0 268.35 -53.0 268.75 -52.9 269.1 -51.65 279.35 -48.15 278.5 -48.0 278.5 -50.25 259.6 -50.4 259.25 -50.4 258.6 -50.5 258.1 -50.5 257.6 -50.65 257.1 -50.65 256.75 -51.0 253.85 -51.0 253.75 -84.0 -35.15 -84.0 -35.4 -84.15 -35.9 -84.75 -40.25 -86.4 -40.5 -86.75 -40.65 -87.0 -40.65 -87.5 -40.75 M-87.15 -40.75 L-87.0 -40.65 M-84.75 -40.25 L-84.75 -40.4 -78.4 -39.35 -73.5 -38.65 -73.4 -38.65 -72.75 -38.5 -69.5 -38.0 -69.15 -38.0 -68.65 -37.9 -68.25 -37.9 -67.9 -37.75 -67.5 -37.75 -67.0 -37.65 -66.65 -37.65 -66.25 -37.5 -60.75 -36.75 -32.9 -140.65 31.75 -140.65 M-98.0 -42.5 L-96.5 -30.65 -96.4 -30.25 M-78.4 -39.35 L-84.75 -40.25 M-96.4 -29.9 L-89.75 26.75 -58.25 281.5 -51.65 279.5 -51.65 279.35 M-47.65 278.35 L-48.0 278.5 -47.0 278.5 M-60.75 -36.75 L-29.75 273.1 M-51.65 279.5 L50.25 279.5" fill="none" stroke="#000000" stroke-linecap="round" stroke-linejoin="round" stroke-width="0.7000000000000001"/>
  </g>
</svg>
