<?xml version="1.0" encoding="UTF-8" standalone="no"?>
<svg xmlns:xlink="http://www.w3.org/1999/xlink" height="107.0px" width="37.0px" xmlns="http://www.w3.org/2000/svg">
  <g transform="matrix(1.0, 0.0, 0.0, 1.0, 18.5, 53.5)">
    <path d="M7.05 -52.4 L14.05 -42.4 14.5 -41.25 15.5 -32.0 15.5 -19.25 17.2 -18.15 Q18.55 -16.8 18.5 -15.0 18.55 -13.2 17.2 -11.8 16.4 -11.05 15.5 -10.75 L15.5 14.5 16.5 14.55 Q17.2 14.65 17.8 15.25 18.5 15.95 18.5 17.0 18.5 18.15 17.5 20.1 L16.75 21.2 16.8 21.25 Q17.5 21.95 17.5 23.0 L17.5 29.0 17.05 30.4 15.9 31.35 Q13.75 32.15 12.9 33.0 11.75 34.4 11.5 37.25 L11.5 44.0 11.4 46.7 Q10.8 49.1 8.55 50.9 5.35 53.5 0.0 53.5 -5.3 53.5 -8.55 50.9 -10.8 49.1 -11.4 46.7 L-11.5 44.0 -11.5 37.25 Q-11.75 34.4 -12.9 33.0 -13.75 32.15 -15.9 31.35 L-17.05 30.4 -17.5 29.0 -17.5 23.0 Q-17.5 21.95 -16.75 21.25 L-16.7 21.2 -16.7 21.15 -17.4 20.1 Q-18.5 18.7 -18.5 17.0 -18.5 15.95 -17.75 15.25 -17.2 14.65 -16.45 14.55 L-15.5 14.5 -15.5 -10.75 Q-16.4 -11.05 -17.15 -11.8 -18.55 -13.2 -18.5 -15.0 -18.55 -16.8 -17.15 -18.15 -16.4 -18.95 -15.5 -19.25 L-15.5 -29.0 Q-15.5 -29.7 -15.15 -30.25 L-6.15 -45.25 -5.5 -45.95 3.5 -52.95 Q4.0 -53.4 4.7 -53.45 L6.05 -53.25 7.05 -52.4" fill="#000000" fill-rule="evenodd" stroke="none"/>
    <path d="M6.4 15.0 L-6.4 15.0 -6.4 -30.75 6.4 -34.2 6.4 15.0" fill="url(#gradient0)" fill-rule="evenodd" stroke="none"/>
    <path d="M13.0 -32.0 L13.0 15.0 6.4 15.0 6.4 -34.2 11.0 -35.0 13.0 -32.0" fill="url(#gradient1)" fill-rule="evenodd" stroke="none"/>
    <path d="M-6.4 -30.75 L-6.4 15.0 -13.0 15.0 -13.0 -29.0 -6.4 -30.75" fill="url(#gradient2)" fill-rule="evenodd" stroke="none"/>
    <path d="M1.0 -32.0 L-6.4 -25.4 -13.0 -29.0 -4.0 -44.0 5.0 -51.0 6.0 -43.0 1.0 -32.0" fill="url(#gradient3)" fill-rule="evenodd" stroke="none"/>
    <path d="M6.0 -43.0 L13.0 -32.0 6.4 -27.9 1.0 -32.0 6.0 -43.0" fill="#f9fdf9" fill-rule="evenodd" stroke="none"/>
    <path d="M6.0 -43.0 L5.0 -51.0 12.0 -41.0 13.0 -32.0 6.0 -43.0" fill="url(#gradient4)" fill-rule="evenodd" stroke="none"/>
    <path d="M15.4 -16.4 Q16.0 -15.8 16.0 -15.0 16.0 -14.2 15.4 -13.6 14.8 -13.0 14.0 -13.0 L-14.0 -13.0 Q-14.8 -13.0 -15.4 -13.6 -16.0 -14.2 -16.0 -15.0 -16.0 -15.8 -15.4 -16.4 -14.8 -17.0 -14.0 -17.0 L14.0 -17.0 Q14.8 -17.0 15.4 -16.4" fill="url(#gradient5)" fill-rule="evenodd" stroke="none"/>
    <path d="M-2.0 23.0 L-2.0 21.5 2.0 21.5 2.0 23.0 -2.0 23.0" fill="#000000" fill-rule="evenodd" stroke="none"/>
    <path d="M-14.0 17.0 L-14.0 15.0 14.0 15.0 14.0 17.0 -14.0 17.0" fill="url(#gradient6)" fill-rule="evenodd" stroke="none"/>
    <path d="M2.0 23.0 L2.0 21.5 -2.0 21.5 -2.0 23.0 -14.0 23.0 Q-14.0 20.95 -14.5 20.0 L-15.15 19.0 15.2 19.0 14.5 20.0 Q14.0 20.95 14.0 23.0 L2.0 23.0" fill="url(#gradient7)" fill-rule="evenodd" stroke="none"/>
    <path d="M15.2 19.0 L-15.15 19.0 -15.4 18.65 Q-16.0 17.9 -16.0 17.0 L-14.0 17.0 14.0 17.0 16.0 17.0 Q16.0 17.9 15.45 18.65 L15.2 19.0" fill="url(#gradient8)" fill-rule="evenodd" stroke="none"/>
    <path d="M8.0 46.0 L-8.0 46.0 -8.0 44.0 8.0 44.0 8.0 46.0" fill="url(#gradient9)" fill-rule="evenodd" stroke="none"/>
    <path d="M-15.0 29.0 L-15.0 23.0 15.0 23.0 15.0 29.0 -15.0 29.0" fill="url(#gradient10)" fill-rule="evenodd" stroke="none"/>
    <path d="M15.0 29.0 Q12.15 30.1 11.05 31.3 9.35 33.15 9.0 37.0 L-9.0 37.0 Q-9.35 33.15 -11.05 31.3 -12.15 30.1 -15.0 29.0 L15.0 29.0" fill="url(#gradient11)" fill-rule="evenodd" stroke="none"/>
    <path d="M9.0 37.0 L9.0 44.0 -9.0 44.0 -9.0 37.0 9.0 37.0" fill="url(#gradient12)" fill-rule="evenodd" stroke="none"/>
    <path d="M5.9 49.65 Q3.4 51.0 0.0 51.0 -3.4 51.0 -5.9 49.65 -8.35 48.25 -9.0 46.0 L9.0 46.0 Q8.35 48.25 5.9 49.65" fill="url(#gradient13)" fill-rule="evenodd" stroke="none"/>
    <path d="M13.0 -11.0 L-13.0 -11.0 -13.0 -13.0 13.0 -13.0 13.0 -11.0 M-11.0 15.0 L-13.0 15.0 -13.0 14.0 13.0 14.0 13.0 15.0 7.0 15.0 6.0 15.0 -10.0 15.0 -11.0 15.0" fill="#0a611f" fill-opacity="0.2" fill-rule="evenodd" stroke="none"/>
    <path d="M7.0 15.0 L7.0 16.0 14.0 16.0 14.0 17.0 -14.0 17.0 -14.0 16.0 -11.0 16.0 -11.0 15.0 -10.0 15.0 -10.0 16.0 6.0 16.0 6.0 15.0 7.0 15.0 M-14.0 22.0 L14.0 22.0 14.0 23.0 -14.0 23.0 -14.0 22.0 M-9.0 41.0 L9.0 41.0 9.0 42.0 -9.0 42.0 -9.0 41.0" fill="#000000" fill-opacity="0.13333334" fill-rule="evenodd" stroke="none"/>
    <path d="M-5.85 31.15 Q-5.4 32.3 -5.3 33.55 -5.25 34.0 -5.55 34.5 -5.9 35.0 -6.35 34.95 -7.5 34.9 -7.75 33.4 -8.2 30.75 -11.0 29.0 L-7.5 29.0 Q-6.5 29.6 -5.85 31.15" fill="url(#gradient14)" fill-rule="evenodd" stroke="none"/>
    <path d="M6.35 34.95 Q5.9 35.0 5.55 34.5 5.25 34.0 5.3 33.55 5.4 32.3 5.85 31.15 6.5 29.6 7.5 29.0 L11.0 29.0 Q8.2 30.75 7.75 33.4 7.5 34.9 6.35 34.95" fill="url(#gradient15)" fill-rule="evenodd" stroke="none"/>
    <path d="M7.0 -13.0 Q7.3 -13.45 8.55 -13.45 9.75 -13.45 10.0 -13.0 L10.0 17.0 7.0 17.0 7.0 -13.0" fill="url(#gradient16)" fill-rule="evenodd" stroke="none"/>
    <path d="M-10.0 -13.0 Q-9.65 -13.45 -8.4 -13.45 -7.2 -13.45 -7.0 -13.0 L-7.0 17.0 -10.0 17.0 -10.0 -13.0" fill="url(#gradient17)" fill-rule="evenodd" stroke="none"/>
  </g>
  <defs>
    <linearGradient gradientTransform="matrix(0.0, -0.029, 0.03, 0.0, 0.0, -8.25)" gradientUnits="userSpaceOnUse" id="gradient0" spreadMethod="pad" x1="-819.2" x2="819.2">
      <stop offset="0.0" stop-color="#2dca54"/>
      <stop offset="1.0" stop-color="#b5fbb9"/>
    </linearGradient>
    <linearGradient gradientTransform="matrix(-2.0E-4, -0.0288, 0.0305, -2.0E-4, 9.75, -8.4)" gradientUnits="userSpaceOnUse" id="gradient1" spreadMethod="pad" x1="-819.2" x2="819.2">
      <stop offset="0.0" stop-color="#1b7a32"/>
      <stop offset="1.0" stop-color="#25af52"/>
    </linearGradient>
    <linearGradient gradientTransform="matrix(0.0, -0.0281, 0.0279, 0.0, -9.65, -7.15)" gradientUnits="userSpaceOnUse" id="gradient2" spreadMethod="pad" x1="-819.2" x2="819.2">
      <stop offset="0.0" stop-color="#21963e"/>
      <stop offset="0.5411764705882353" stop-color="#30cf57"/>
    </linearGradient>
    <linearGradient gradientTransform="matrix(-0.0072, 0.0154, -0.0141, -0.0066, -3.05, -39.1)" gradientUnits="userSpaceOnUse" id="gradient3" spreadMethod="pad" x1="-819.2" x2="819.2">
      <stop offset="0.0" stop-color="#35d05b"/>
      <stop offset="0.5686274509803921" stop-color="#65e06d"/>
      <stop offset="0.9803921568627451" stop-color="#77e476"/>
    </linearGradient>
    <linearGradient gradientTransform="matrix(-0.0054, -0.0118, 0.0105, -0.0047, 9.0, -41.5)" gradientUnits="userSpaceOnUse" id="gradient4" spreadMethod="pad" x1="-819.2" x2="819.2">
      <stop offset="0.0" stop-color="#76eb87"/>
      <stop offset="1.0" stop-color="#c1eec1"/>
    </linearGradient>
    <radialGradient cx="0" cy="0" gradientTransform="matrix(0.0, -0.0024, 0.0261, 0.0, 0.0, -15.4)" gradientUnits="userSpaceOnUse" id="gradient5" r="819.2" spreadMethod="pad">
      <stop offset="0.11764705882352941" stop-color="#e6e4e7"/>
      <stop offset="1.0" stop-color="#867d88"/>
    </radialGradient>
    <linearGradient gradientTransform="matrix(0.0171, 0.0, 0.0, 0.0018, 0.0, 16.5)" gradientUnits="userSpaceOnUse" id="gradient6" spreadMethod="pad" x1="-819.2" x2="819.2">
      <stop offset="0.08235294117647059" stop-color="#977c2f"/>
      <stop offset="0.43137254901960786" stop-color="#ead677"/>
      <stop offset="0.5647058823529412" stop-color="#ead677"/>
      <stop offset="0.9098039215686274" stop-color="#977c2f"/>
    </linearGradient>
    <linearGradient gradientTransform="matrix(0.0185, 0.0, 0.0, 0.0024, 0.0, 21.0)" gradientUnits="userSpaceOnUse" id="gradient7" spreadMethod="pad" x1="-819.2" x2="819.2">
      <stop offset="0.12156862745098039" stop-color="#2e2d2f"/>
      <stop offset="0.4470588235294118" stop-color="#6a676d"/>
      <stop offset="0.5647058823529412" stop-color="#6a676d"/>
      <stop offset="0.8666666666666667" stop-color="#2e2d2f"/>
    </linearGradient>
    <linearGradient gradientTransform="matrix(0.0195, 0.0, 0.0, 0.0012, 0.0, 18.0)" gradientUnits="userSpaceOnUse" id="gradient8" spreadMethod="pad" x1="-819.2" x2="819.2">
      <stop offset="0.15294117647058825" stop-color="#444046"/>
      <stop offset="0.4588235294117647" stop-color="#b0afb1"/>
      <stop offset="0.5607843137254902" stop-color="#b0afb1"/>
      <stop offset="0.8666666666666667" stop-color="#444046"/>
    </linearGradient>
    <linearGradient gradientTransform="matrix(0.0098, 0.0, 0.0, 0.0012, 0.0, 45.0)" gradientUnits="userSpaceOnUse" id="gradient9" spreadMethod="pad" x1="-819.2" x2="819.2">
      <stop offset="0.0" stop-color="#4e474e"/>
      <stop offset="1.0" stop-color="#433d43"/>
    </linearGradient>
    <linearGradient gradientTransform="matrix(0.0183, 0.0, 0.0, 0.0037, 0.0, 26.0)" gradientUnits="userSpaceOnUse" id="gradient10" spreadMethod="pad" x1="-819.2" x2="819.2">
      <stop offset="0.10980392156862745" stop-color="#6f666c"/>
      <stop offset="0.4" stop-color="#b8b1b7"/>
      <stop offset="0.5882352941176471" stop-color="#bab5bb"/>
      <stop offset="0.8784313725490196" stop-color="#6f666c"/>
    </linearGradient>
    <radialGradient cx="0" cy="0" gradientTransform="matrix(-0.0182, 0.0, 0.0, 0.0252, 0.0, 36.8)" gradientUnits="userSpaceOnUse" id="gradient11" r="819.2" spreadMethod="pad">
      <stop offset="0.11372549019607843" stop-color="#bab5bb"/>
      <stop offset="0.49019607843137253" stop-color="#645a65"/>
      <stop offset="0.8980392156862745" stop-color="#49424a"/>
    </radialGradient>
    <linearGradient gradientTransform="matrix(0.0122, 0.0, 0.0, 0.0037, 0.0, 26.0)" gradientUnits="userSpaceOnUse" id="gradient12" spreadMethod="pad" x1="-819.2" x2="819.2">
      <stop offset="0.12941176470588237" stop-color="#675f66"/>
      <stop offset="0.4" stop-color="#bab5bb"/>
      <stop offset="0.5843137254901961" stop-color="#bab5bb"/>
      <stop offset="0.8745098039215686" stop-color="#675f66"/>
    </linearGradient>
    <radialGradient cx="0" cy="0" gradientTransform="matrix(0.0, -0.0063, 0.0114, 0.0, 0.0, 46.0)" gradientUnits="userSpaceOnUse" id="gradient13" r="819.2" spreadMethod="pad">
      <stop offset="0.24705882352941178" stop-color="#bdb8be"/>
      <stop offset="0.807843137254902" stop-color="#5f5760"/>
      <stop offset="1.0" stop-color="#6f666f"/>
    </radialGradient>
    <linearGradient gradientTransform="matrix(0.0037, -6.0E-4, 7.0E-4, 0.0039, -7.35, 33.6)" gradientUnits="userSpaceOnUse" id="gradient14" spreadMethod="pad" x1="-819.2" x2="819.2">
      <stop offset="0.24313725490196078" stop-color="#9b8fa0"/>
      <stop offset="0.4745098039215686" stop-color="#7e7482"/>
      <stop offset="0.9450980392156862" stop-color="#161416"/>
    </linearGradient>
    <linearGradient gradientTransform="matrix(-0.0037, -6.0E-4, -7.0E-4, 0.0039, 7.35, 33.6)" gradientUnits="userSpaceOnUse" id="gradient15" spreadMethod="pad" x1="-819.2" x2="819.2">
      <stop offset="0.24313725490196078" stop-color="#9b8fa0"/>
      <stop offset="0.4745098039215686" stop-color="#7e7482"/>
      <stop offset="0.9450980392156862" stop-color="#161416"/>
    </linearGradient>
    <linearGradient gradientTransform="matrix(-0.0019, 0.0, 0.0, -0.0195, 8.5, 2.25)" gradientUnits="userSpaceOnUse" id="gradient16" spreadMethod="pad" x1="-819.2" x2="819.2">
      <stop offset="0.06666666666666667" stop-color="#7c737d"/>
      <stop offset="0.4470588235294118" stop-color="#d1ced2"/>
      <stop offset="0.5254901960784314" stop-color="#cbc8cc"/>
      <stop offset="0.9568627450980393" stop-color="#6d666f"/>
    </linearGradient>
    <linearGradient gradientTransform="matrix(-0.0019, 0.0, 0.0, -0.0195, -8.5, 2.5)" gradientUnits="userSpaceOnUse" id="gradient17" spreadMethod="pad" x1="-819.2" x2="819.2">
      <stop offset="0.07058823529411765" stop-color="#7c737d"/>
      <stop offset="0.4470588235294118" stop-color="#d1ced2"/>
      <stop offset="0.5254901960784314" stop-color="#cbc8cc"/>
      <stop offset="0.9568627450980393" stop-color="#6d666f"/>
    </linearGradient>
  </defs>
</svg>
