<?xml version="1.0" encoding="UTF-8" standalone="no"?>
<svg xmlns:xlink="http://www.w3.org/1999/xlink" height="236.0px" width="7.05px" xmlns="http://www.w3.org/2000/svg">
  <g transform="matrix(1.0, 0.0, 0.0, 1.0, 3.5, 262.25)">
    <path d="M-2.5 -88.0 L-2.5 -258.75 -2.5 -258.9 Q-2.45 -259.85 -1.8 -260.5 L-1.75 -260.5 Q-1.05 -261.25 0.0 -261.25 1.05 -261.25 1.8 -260.5 2.45 -259.85 2.55 -258.9 L2.55 -258.75 2.55 -88.0 2.55 -29.7 Q2.5 -28.7 1.8 -28.0 1.05 -27.25 0.0 -27.25 -1.05 -27.25 -1.8 -28.0 -2.5 -28.7 -2.5 -29.7 L-2.5 -88.0" fill="#fbfffd" fill-rule="evenodd" stroke="none"/>
    <path d="M-2.5 -88.0 L-2.5 -258.75 -2.5 -258.9 Q-2.45 -259.85 -1.8 -260.5 L-1.75 -260.5 Q-1.05 -261.25 0.0 -261.25 1.05 -261.25 1.8 -260.5 2.45 -259.85 2.55 -258.9 L2.55 -258.75 2.55 -88.0" fill="none" stroke="#99ffcc" stroke-linecap="round" stroke-linejoin="round" stroke-width="2.0"/>
    <path d="M2.55 -88.0 L2.55 -29.7 Q2.5 -28.7 1.8 -28.0 1.05 -27.25 0.0 -27.25 -1.05 -27.25 -1.8 -28.0 -2.5 -28.7 -2.5 -29.7 L-2.5 -88.0 Z" fill="none" stroke="#99ffcc" stroke-linecap="round" stroke-linejoin="round" stroke-width="2.0"/>
  </g>
</svg>
