<?xml version="1.0" encoding="UTF-8" standalone="no"?>
<svg xmlns:xlink="http://www.w3.org/1999/xlink" height="142.25px" width="7.05px" xmlns="http://www.w3.org/2000/svg">
  <g transform="matrix(1.0, 0.0, 0.0, 1.0, 3.5, 152.25)">
    <path d="M-2.5 -109.25 L-2.5 -148.75 -2.5 -148.9 Q-2.45 -149.85 -1.8 -150.5 L-1.75 -150.5 Q-1.05 -151.25 0.0 -151.25 1.05 -151.25 1.8 -150.5 2.45 -149.85 2.55 -148.9 L2.55 -148.75 2.55 -109.25 -2.5 -109.25 M2.55 -84.25 L2.55 -13.45 Q2.5 -12.45 1.8 -11.75 1.05 -11.0 0.0 -11.0 -1.05 -11.0 -1.8 -11.75 -2.5 -12.45 -2.5 -13.45 L-2.5 -84.25 -2.5 -108.75 2.55 -108.75 2.55 -84.25" fill="#fbfffd" fill-rule="evenodd" stroke="none"/>
    <path d="M-2.5 -109.25 L-2.5 -148.75 -2.5 -148.9 Q-2.45 -149.85 -1.8 -150.5 L-1.75 -150.5 Q-1.05 -151.25 0.0 -151.25 1.05 -151.25 1.8 -150.5 2.45 -149.85 2.55 -148.9 L2.55 -148.75 2.55 -109.25 M2.55 -84.25 L2.55 -13.45 Q2.5 -12.45 1.8 -11.75 1.05 -11.0 0.0 -11.0 -1.05 -11.0 -1.8 -11.75 -2.5 -12.45 -2.5 -13.45 L-2.5 -84.25" fill="none" stroke="#99ffcc" stroke-linecap="round" stroke-linejoin="round" stroke-width="2.0"/>
    <path d="M-2.5 -84.25 L-2.5 -108.75 M2.55 -108.75 L2.55 -84.25" fill="none" stroke="#99ffcc" stroke-linecap="round" stroke-linejoin="round" stroke-width="2.0"/>
  </g>
</svg>
