<?xml version="1.0" encoding="UTF-8" standalone="no"?>
<svg xmlns:xlink="http://www.w3.org/1999/xlink" height="80.0px" width="234.0px" xmlns="http://www.w3.org/2000/svg">
  <g transform="matrix(1.0, 0.0, 0.0, 1.0, 10.0, 0.0)">
    <path d="M220.0 0.0 Q224.0 0.0 224.0 4.0 L224.0 76.0 Q224.0 80.0 220.0 80.0 L72.5 80.0 4.0 80.0 Q0.0 80.0 0.0 76.0 L0.0 21.0 -9.0 17.0 -10.0 16.0 -9.0 15.0 0.0 11.0 0.0 4.0 Q0.0 0.0 4.0 0.0 L220.0 0.0" fill="#000000" fill-rule="evenodd" stroke="none"/>
    <path d="M220.0 2.0 Q222.0 2.0 222.0 4.0 L222.0 76.0 Q222.0 78.0 220.0 78.0 L4.0 78.0 Q2.0 78.0 2.0 76.0 L2.0 21.0 1.75 20.1 1.1 19.35 -7.0 16.0 1.1 12.6 1.75 11.85 2.0 11.0 2.0 4.0 Q2.0 2.0 4.0 2.0 L220.0 2.0" fill="#bababa" fill-rule="evenodd" stroke="none"/>
  </g>
</svg>
