<?xml version="1.0" encoding="UTF-8" standalone="no"?>
<svg xmlns:xlink="http://www.w3.org/1999/xlink" height="190.0px" width="234.0px" xmlns="http://www.w3.org/2000/svg">
  <g transform="matrix(1.0, 0.0, 0.0, 1.0, -127.0, 105.0)">
    <path d="M142.2 -89.8 Q157.45 -105.0 179.0 -105.0 200.55 -105.0 215.75 -89.8 231.0 -74.55 231.0 -53.0 231.0 -31.45 215.75 -16.25 200.55 -1.0 179.0 -1.0 157.45 -1.0 142.2 -16.25 127.0 -31.45 127.0 -53.0 127.0 -74.55 142.2 -89.8 M272.2 -89.8 Q287.45 -105.0 309.0 -105.0 330.55 -105.0 345.75 -89.8 361.0 -74.55 361.0 -53.0 361.0 -31.45 345.75 -16.25 330.55 -1.0 309.0 -1.0 287.45 -1.0 272.2 -16.25 257.0 -31.45 257.0 -53.0 257.0 -74.55 272.2 -89.8 M280.75 -3.8 Q296.0 11.45 296.0 33.0 296.0 54.55 280.75 69.75 265.55 85.0 244.0 85.0 222.45 85.0 207.2 69.75 192.0 54.55 192.0 33.0 192.0 11.45 207.2 -3.8 222.45 -19.0 244.0 -19.0 265.55 -19.0 280.75 -3.8" fill="#ffffff" fill-rule="evenodd" stroke="none"/>
  </g>
</svg>
