<?xml version="1.0" encoding="UTF-8" standalone="no"?>
<svg xmlns:xlink="http://www.w3.org/1999/xlink" height="437.0px" width="512.0px" xmlns="http://www.w3.org/2000/svg">
  <g transform="matrix(1.0, 0.0, 0.0, 1.0, -8.0, -40.0)">
    <path d="M308.0 267.0 Q308.0 245.45 292.75 230.2 277.55 215.0 256.0 215.0 234.45 215.0 219.2 230.2 204.0 245.45 204.0 267.0 204.0 288.55 219.2 303.75 234.45 319.0 256.0 319.0 277.55 319.0 292.75 303.75 308.0 288.55 308.0 267.0 M227.75 144.2 Q212.55 129.0 191.0 129.0 169.45 129.0 154.2 144.2 139.0 159.45 139.0 181.0 139.0 202.55 154.2 217.75 169.45 233.0 191.0 233.0 212.55 233.0 227.75 217.75 243.0 202.55 243.0 181.0 243.0 159.45 227.75 144.2 M372.0 181.0 Q372.0 159.45 356.75 144.2 341.55 129.0 320.0 129.0 298.45 129.0 283.2 144.2 268.0 159.45 268.0 181.0 268.0 202.55 283.2 217.75 298.45 233.0 320.0 233.0 341.55 233.0 356.75 217.75 372.0 202.55 372.0 181.0 M8.0 472.0 L8.0 40.0 520.0 40.0 520.0 477.0 8.0 477.0 8.0 472.0" fill="#000000" fill-opacity="0.2" fill-rule="evenodd" stroke="none"/>
  </g>
</svg>
