<?xml version="1.0" encoding="UTF-8" standalone="no"?>
<svg xmlns:xlink="http://www.w3.org/1999/xlink" height="115.05px" width="83.1px" xmlns="http://www.w3.org/2000/svg">
  <g transform="matrix(1.0, 0.0, 0.0, 1.0, 41.55, 56.55)">
    <path d="M41.5 -53.6 Q42.05 -36.35 35.8 -21.25 38.75 -16.6 38.5 -11.9 38.45 -10.9 37.75 -10.2 34.65 -7.1 34.5 -1.6 34.35 0.4 35.7 3.65 37.85 8.65 37.5 11.25 L37.2 12.2 36.55 12.95 32.85 15.95 28.45 32.65 Q28.2 33.4 27.6 33.95 L22.0 38.6 13.25 57.1 12.3 58.15 10.9 58.5 Q10.15 58.45 9.55 58.05 5.95 55.5 0.0 55.5 -5.95 55.5 -9.5 58.05 L-10.85 58.5 -12.25 58.15 -13.25 57.1 -22.0 38.6 -27.6 33.95 Q-28.2 33.4 -28.4 32.65 L-32.8 15.95 -36.55 12.95 -37.2 12.2 -37.5 11.25 Q-37.85 8.65 -35.7 3.65 -34.35 0.4 -34.45 -1.6 -34.6 -7.05 -37.75 -10.2 -38.45 -10.9 -38.5 -11.9 -38.75 -16.6 -35.8 -21.2 -42.2 -36.5 -41.5 -54.0 L-41.3 -55.0 -40.5 -56.0 -39.8 -56.35 -38.45 -56.45 -37.15 -55.7 -27.35 -43.1 Q-23.3 -37.9 -19.7 -34.2 L-14.95 -36.3 -13.25 -36.35 Q-12.4 -36.1 -11.9 -35.35 -7.55 -28.65 0.0 -28.5 7.5 -28.65 11.9 -35.35 12.4 -36.1 13.25 -36.35 L14.95 -36.3 19.75 -34.2 Q22.05 -36.6 27.4 -43.15 L36.75 -55.1 37.45 -55.85 38.45 -56.45 Q39.15 -56.75 40.15 -56.2 40.95 -55.8 41.3 -55.0 41.6 -54.3 41.5 -53.6" fill="#000000" fill-rule="evenodd" stroke="none"/>
    <path d="M0.0 13.0 L31.0 13.0 26.0 32.0 20.0 37.0 11.0 56.0 Q6.9 53.0 0.0 53.0 -6.9 53.0 -11.0 56.0 L-20.0 37.0 -26.0 32.0 -31.0 13.0 0.0 13.0" fill="url(#gradient0)" fill-rule="evenodd" stroke="none"/>
    <path d="M11.05 46.35 Q11.5 47.45 11.15 48.7 10.8 49.95 9.85 50.65 8.85 51.35 7.8 51.05 6.75 50.75 6.25 49.65 5.8 48.55 6.15 47.3 6.5 46.05 7.45 45.35 8.45 44.7 9.5 45.0 10.55 45.3 11.05 46.35" fill="url(#gradient1)" fill-rule="evenodd" stroke="none"/>
    <path d="M-11.05 46.35 Q-10.55 45.3 -9.5 45.0 -8.45 44.7 -7.45 45.35 -6.5 46.05 -6.15 47.3 -5.8 48.55 -6.25 49.65 -6.75 50.75 -7.8 51.05 -8.85 51.35 -9.85 50.65 -10.8 49.95 -11.15 48.7 -11.5 47.45 -11.05 46.35" fill="url(#gradient2)" fill-rule="evenodd" stroke="none"/>
    <path d="M9.25 46.55 L9.1 47.6 8.25 48.4 7.3 48.3 6.7 47.65 Q6.55 47.15 6.8 46.55 7.05 46.0 7.55 45.75 8.05 45.45 8.6 45.75 9.2 46.05 9.25 46.55 M-7.5 45.7 Q-7.0 45.95 -6.75 46.55 -6.5 47.15 -6.65 47.65 L-7.25 48.3 -8.2 48.4 -9.05 47.6 -9.2 46.55 Q-9.15 46.0 -8.55 45.7 -8.0 45.4 -7.5 45.7" fill="#000000" fill-rule="evenodd" stroke="none"/>
    <path d="M31.0 14.0 L31.0 18.0 25.55 19.55 Q23.9 25.1 22.1 28.3 19.95 32.1 17.35 34.0 L15.55 36.6 Q13.7 38.8 13.0 38.7 12.25 38.8 10.1 36.6 L8.7 34.85 5.5 34.5 0.0 33.95 -5.5 34.5 -8.7 34.85 -10.15 36.6 Q-12.3 38.8 -13.05 38.7 -13.75 38.8 -15.6 36.6 L-17.45 33.95 Q-20.0 32.05 -22.1 28.3 -23.9 25.1 -25.55 19.55 L-31.0 18.0 -31.0 14.0 -24.0 15.0 -24.0 20.0 -24.4 19.9 Q-22.9 24.85 -21.25 27.8 -19.85 30.35 -18.2 32.0 L-18.15 31.75 -17.85 31.55 -17.45 31.55 -17.2 31.85 -16.65 33.3 -15.3 34.05 -15.0 34.35 -15.05 34.7 -15.3 35.0 -15.6 35.0 -14.85 35.95 -13.05 37.7 Q-12.6 37.6 -10.85 35.9 L-10.1 35.0 -10.5 35.0 -10.85 34.85 -11.0 34.5 -10.85 34.15 -10.5 34.0 -9.3 33.9 -8.7 33.0 -8.4 32.75 -8.0 32.85 -7.8 33.15 -7.85 33.55 -7.95 33.75 -5.6 33.5 0.0 32.95 5.6 33.5 8.0 33.75 7.85 33.55 7.8 33.15 8.0 32.85 8.4 32.75 8.7 33.0 9.3 33.9 10.5 34.0 10.85 34.15 11.0 34.5 10.85 34.85 10.5 35.0 10.05 35.0 10.8 35.9 Q12.55 37.6 13.0 37.7 L14.8 35.95 15.55 35.0 15.3 35.0 15.05 34.7 15.0 34.35 15.3 34.05 16.55 33.35 17.15 31.8 17.4 31.5 17.8 31.5 18.1 31.7 18.15 32.0 Q19.8 30.4 21.25 27.8 22.9 24.85 24.4 19.9 L24.0 20.0 24.0 15.0 31.0 14.0" fill="#000000" fill-opacity="0.3019608" fill-rule="evenodd" stroke="none"/>
    <path d="M0.0 -2.0 L32.0 -2.0 Q31.7 0.5 33.4 4.6 35.2 8.85 35.0 11.0 L25.0 19.0 23.0 24.0 9.0 34.0 0.0 33.0 -9.0 34.0 -23.0 24.0 -25.0 19.0 -35.0 11.0 Q-35.2 8.85 -33.4 4.6 -31.7 0.5 -32.0 -2.0 L0.0 -2.0" fill="url(#gradient3)" fill-rule="evenodd" stroke="none"/>
    <path d="M27.0 0.0 L32.0 -2.0 M-27.0 0.0 L-32.0 -2.0" fill="none" stroke="#000000" stroke-linecap="round" stroke-linejoin="round" stroke-opacity="0.4" stroke-width="1.0"/>
    <path d="M6.0 25.0 Q5.0 26.1 3.3 26.8 L0.0 28.0 -3.3 26.8 Q-5.0 26.1 -6.0 25.0 L-1.0 22.0 0.0 22.0 1.0 22.0 6.0 25.0" fill="url(#gradient4)" fill-rule="evenodd" stroke="none"/>
    <path d="M0.0 -7.0 L27.0 -7.0 27.0 0.0 Q25.3 5.1 20.95 7.0 16.7 8.85 9.0 8.0 2.05 10.5 6.0 25.0 L3.0 24.0 2.0 23.0 0.0 23.0 -2.0 23.0 -3.0 24.0 -6.0 25.0 Q-2.05 10.5 -9.0 8.0 -16.7 8.85 -20.95 7.0 -25.3 5.1 -27.0 0.0 L-27.0 -7.0 0.0 -7.0" fill="url(#gradient5)" fill-rule="evenodd" stroke="none"/>
    <path d="M24.7 -2.0 Q24.75 0.85 21.95 3.1 19.4 5.15 16.05 5.65 14.7 5.85 13.2 5.65 L10.95 5.15 9.7 6.0 Q8.7 6.5 8.4 6.2 8.1 5.9 8.75 4.85 L9.5 3.75 Q8.55 2.65 8.0 1.0 L20.4 -3.3 24.7 -2.0" fill="url(#gradient6)" fill-rule="evenodd" stroke="none"/>
    <path d="M-24.7 -2.0 L-20.4 -3.3 -8.0 1.0 Q-8.55 2.65 -9.5 3.75 L-8.75 4.85 Q-8.1 5.9 -8.4 6.2 -8.7 6.5 -9.7 6.0 L-10.95 5.15 -13.2 5.65 Q-14.7 5.85 -16.05 5.65 -19.4 5.15 -21.95 3.1 -24.75 0.85 -24.7 -2.0" fill="url(#gradient7)" fill-rule="evenodd" stroke="none"/>
    <path d="M15.25 -3.8 Q16.5 -3.8 17.4 -2.9 18.2 -1.95 18.2 -0.7 18.2 0.6 17.4 1.5 16.5 2.45 15.25 2.45 14.0 2.45 13.2 1.5 12.35 0.6 12.35 -0.7 12.35 -1.95 13.2 -2.9 14.0 -3.8 15.25 -3.8" fill="url(#gradient8)" fill-rule="evenodd" stroke="none"/>
    <path d="M-12.35 -0.7 Q-12.35 0.6 -13.2 1.5 -14.0 2.45 -15.25 2.45 -16.5 2.45 -17.4 1.5 -18.2 0.6 -18.2 -0.7 -18.2 -1.95 -17.4 -2.9 -16.5 -3.8 -15.25 -3.8 -14.0 -3.8 -13.2 -2.9 -12.35 -1.95 -12.35 -0.7" fill="url(#gradient9)" fill-rule="evenodd" stroke="none"/>
    <path d="M14.0 -34.0 Q25.9 -29.15 31.55 -22.7 36.2 -17.4 36.0 -12.0 32.2 -8.3 32.0 -2.0 L27.0 0.0 21.0 -2.0 Q15.75 0.2 8.0 1.0 1.15 8.65 2.0 23.0 L0.0 23.0 -2.0 23.0 Q-1.15 8.65 -8.0 1.0 -15.75 0.2 -21.0 -2.0 L-27.0 0.0 -32.0 -2.0 Q-32.2 -8.3 -36.0 -12.0 -36.2 -17.4 -31.55 -22.7 -25.9 -29.15 -14.0 -34.0 -8.85 -26.1 0.0 -26.0 8.85 -26.1 14.0 -34.0" fill="url(#gradient10)" fill-rule="evenodd" stroke="none"/>
    <path d="M3.0 -2.9 Q3.75 -5.0 5.85 -5.8 L6.0 -5.75 6.6 -4.8 Q7.15 -2.7 6.2 -0.7 5.8 0.2 4.9 0.45 3.7 0.85 3.15 -0.25 2.55 -1.55 3.0 -2.9 M-3.0 -2.85 Q-2.55 -1.5 -3.15 -0.2 -3.65 0.9 -4.85 0.5 -5.75 0.25 -6.15 -0.65 -7.1 -2.65 -6.55 -4.75 L-5.95 -5.7 -5.8 -5.75 Q-3.7 -4.95 -3.0 -2.85" fill="#000000" fill-rule="evenodd" stroke="none"/>
    <path d="M38.95 -53.9 L38.95 -54.0 38.95 -53.9 M24.0 -16.0 L23.95 -16.0 24.0 -16.0" fill="url(#gradient11)" fill-rule="evenodd" stroke="none"/>
    <path d="M38.95 -53.9 L39.0 -54.0 38.95 -53.85 Q32.95 -33.15 24.0 -16.0 L23.95 -16.0 Q17.4 -22.0 19.0 -30.0 23.55 -34.15 29.35 -41.6 L38.95 -53.9" fill="url(#gradient12)" fill-rule="evenodd" stroke="none"/>
    <path d="M38.95 -53.85 Q39.6 -36.3 32.95 -21.0 28.85 -17.6 24.0 -16.0 32.95 -33.15 38.95 -53.85" fill="url(#gradient13)" fill-rule="evenodd" stroke="none"/>
    <path d="M-39.0 -54.0 L-29.35 -41.6 Q-23.55 -34.15 -19.0 -30.0 -17.4 -22.0 -24.0 -16.0 -33.0 -33.2 -39.0 -54.0" fill="url(#gradient14)" fill-rule="evenodd" stroke="none"/>
    <path d="M-24.0 -16.0 Q-28.85 -17.6 -33.0 -21.0 -39.7 -36.35 -39.0 -54.0 -33.0 -33.2 -24.0 -16.0" fill="url(#gradient15)" fill-rule="evenodd" stroke="none"/>
    <path d="M12.6 24.55 L12.65 24.5 Q16.1 28.7 17.0 33.0 15.75 36.2 13.0 38.0 L12.95 38.0 12.6 24.55" fill="url(#gradient16)" fill-rule="evenodd" stroke="none"/>
    <path d="M-12.6 24.55 L-12.95 38.0 -13.0 38.0 Q-15.75 36.2 -17.0 33.0 -16.1 28.7 -12.65 24.5 L-12.6 24.55" fill="url(#gradient17)" fill-rule="evenodd" stroke="none"/>
    <path d="M12.6 24.6 L12.95 38.0 Q10.5 36.35 9.0 34.0 9.85 28.0 12.6 24.6" fill="url(#gradient18)" fill-rule="evenodd" stroke="none"/>
    <path d="M-12.95 38.0 L-12.6 24.55 Q-9.85 27.95 -9.0 34.0 -10.5 36.35 -12.95 38.0" fill="url(#gradient19)" fill-rule="evenodd" stroke="none"/>
    <path d="M17.0 33.0 Q15.7 28.7 13.0 25.0 15.35 21.25 18.0 19.0 L18.0 26.0 Q17.85 30.0 17.0 33.0" fill="url(#gradient20)" fill-rule="evenodd" stroke="none"/>
    <path d="M-13.0 25.0 Q-15.7 28.7 -17.0 33.0 -17.85 30.0 -18.0 26.0 L-18.0 19.0 Q-15.35 21.25 -13.0 25.0" fill="url(#gradient21)" fill-rule="evenodd" stroke="none"/>
    <path d="M20.8 21.05 Q22.3 22.5 23.0 24.0 21.15 29.9 17.0 33.0 17.85 30.0 18.0 26.0 L18.0 19.0 Q19.4 19.65 20.8 21.05" fill="url(#gradient22)" fill-rule="evenodd" stroke="none"/>
    <path d="M-20.8 21.05 Q-19.4 19.65 -18.0 19.0 L-18.0 26.0 Q-17.85 30.0 -17.0 33.0 -21.15 29.9 -23.0 24.0 -22.3 22.5 -20.8 21.05" fill="url(#gradient23)" fill-rule="evenodd" stroke="none"/>
  </g>
  <defs>
    <radialGradient cx="0" cy="0" gradientTransform="matrix(0.0317, 0.0, 0.0, 0.0547, 0.0, 14.0)" gradientUnits="userSpaceOnUse" id="gradient0" r="819.2" spreadMethod="pad">
      <stop offset="0.23921568627450981" stop-color="#989898"/>
      <stop offset="0.4588235294117647" stop-color="#838383"/>
      <stop offset="0.5176470588235295" stop-color="#787878"/>
      <stop offset="0.8470588235294118" stop-color="#353535"/>
      <stop offset="1.0" stop-color="#313131"/>
    </radialGradient>
    <linearGradient gradientTransform="matrix(0.0019, -0.0026, 0.0031, 0.0023, 8.65, 48.0)" gradientUnits="userSpaceOnUse" id="gradient1" spreadMethod="pad" x1="-819.2" x2="819.2">
      <stop offset="0.0" stop-color="#757575"/>
      <stop offset="0.43137254901960786" stop-color="#444444"/>
      <stop offset="0.7647058823529411" stop-color="#353535"/>
      <stop offset="1.0" stop-color="#232323"/>
    </linearGradient>
    <linearGradient gradientTransform="matrix(-0.001, -0.0039, 0.0037, -9.0E-4, -8.7, 47.75)" gradientUnits="userSpaceOnUse" id="gradient2" spreadMethod="pad" x1="-819.2" x2="819.2">
      <stop offset="0.0" stop-color="#757575"/>
      <stop offset="0.4549019607843137" stop-color="#444444"/>
      <stop offset="0.7647058823529411" stop-color="#353535"/>
      <stop offset="1.0" stop-color="#232323"/>
    </linearGradient>
    <radialGradient cx="0" cy="0" gradientTransform="matrix(0.0448, 0.0, 0.0, 0.0448, 0.0, 7.6)" gradientUnits="userSpaceOnUse" id="gradient3" r="819.2" spreadMethod="pad">
      <stop offset="0.1568627450980392" stop-color="#959595"/>
      <stop offset="0.6509803921568628" stop-color="#585858"/>
      <stop offset="0.7607843137254902" stop-color="#383838"/>
      <stop offset="1.0" stop-color="#111111"/>
    </radialGradient>
    <linearGradient gradientTransform="matrix(0.0, -0.0037, 0.0037, 0.0, 0.0, 25.0)" gradientUnits="userSpaceOnUse" id="gradient4" spreadMethod="pad" x1="-819.2" x2="819.2">
      <stop offset="0.0" stop-color="#353535"/>
      <stop offset="0.5725490196078431" stop-color="#1c1c1c"/>
    </linearGradient>
    <linearGradient gradientTransform="matrix(-1.0E-4, -0.0229, 0.0195, -1.0E-4, 0.0, 9.0)" gradientUnits="userSpaceOnUse" id="gradient5" spreadMethod="pad" x1="-819.2" x2="819.2">
      <stop offset="0.21176470588235294" stop-color="#353535"/>
      <stop offset="0.47843137254901963" stop-color="#404040"/>
      <stop offset="0.5647058823529412" stop-color="#434343"/>
      <stop offset="0.7098039215686275" stop-color="#1c1c1c"/>
    </linearGradient>
    <linearGradient gradientTransform="matrix(-0.0098, 0.0, 0.0, -0.0076, 16.0, 0.25)" gradientUnits="userSpaceOnUse" id="gradient6" spreadMethod="pad" x1="-819.2" x2="819.2">
      <stop offset="0.0" stop-color="#262626"/>
      <stop offset="1.0" stop-color="#000000"/>
    </linearGradient>
    <linearGradient gradientTransform="matrix(0.0098, 0.0, 0.0, -0.0076, -16.0, 0.25)" gradientUnits="userSpaceOnUse" id="gradient7" spreadMethod="pad" x1="-819.2" x2="819.2">
      <stop offset="0.0" stop-color="#262626"/>
      <stop offset="1.0" stop-color="#000000"/>
    </linearGradient>
    <radialGradient cx="0" cy="0" gradientTransform="matrix(0.0038, 0.0, 0.0, 0.0038, 15.25, -0.3)" gradientUnits="userSpaceOnUse" id="gradient8" r="819.2" spreadMethod="pad">
      <stop offset="0.4470588235294118" stop-color="#ebd591"/>
      <stop offset="0.7254901960784313" stop-color="#302616"/>
      <stop offset="0.8627450980392157" stop-color="#886d3e"/>
    </radialGradient>
    <radialGradient cx="0" cy="0" gradientTransform="matrix(0.0039, 0.0, 0.0, 0.0039, -15.25, -0.65)" gradientUnits="userSpaceOnUse" id="gradient9" r="819.2" spreadMethod="pad">
      <stop offset="0.4470588235294118" stop-color="#ebd591"/>
      <stop offset="0.7254901960784313" stop-color="#302616"/>
      <stop offset="0.8627450980392157" stop-color="#886d3e"/>
    </radialGradient>
    <radialGradient cx="0" cy="0" gradientTransform="matrix(0.0454, 0.0, 0.0, 0.0592, 0.0, 0.0)" gradientUnits="userSpaceOnUse" id="gradient10" r="819.2" spreadMethod="pad">
      <stop offset="0.0" stop-color="#d5d5d5"/>
      <stop offset="0.36470588235294116" stop-color="#757575"/>
      <stop offset="0.5686274509803921" stop-color="#464646"/>
      <stop offset="0.8274509803921568" stop-color="#151515"/>
      <stop offset="1.0" stop-color="#2e2e2e"/>
    </radialGradient>
    <linearGradient gradientTransform="matrix(0.004, 0.018, -0.0226, 0.005, 31.95, -35.1)" gradientUnits="userSpaceOnUse" id="gradient11" spreadMethod="pad" x1="-819.2" x2="819.2">
      <stop offset="0.0" stop-color="#7c6625"/>
      <stop offset="0.7803921568627451" stop-color="#57411a"/>
      <stop offset="1.0" stop-color="#554b31"/>
    </linearGradient>
    <linearGradient gradientTransform="matrix(-0.0115, 0.0046, -0.0086, -0.0215, 30.25, -32.4)" gradientUnits="userSpaceOnUse" id="gradient12" spreadMethod="pad" x1="-819.2" x2="819.2">
      <stop offset="0.0392156862745098" stop-color="#bfbfbf"/>
      <stop offset="0.050980392156862744" stop-color="#bfbfbf"/>
      <stop offset="0.49019607843137253" stop-color="#989898"/>
      <stop offset="0.9607843137254902" stop-color="#6d6d6d"/>
    </linearGradient>
    <linearGradient gradientTransform="matrix(0.004, 0.018, -0.0226, 0.005, 31.95, -35.1)" gradientUnits="userSpaceOnUse" id="gradient13" spreadMethod="pad" x1="-819.2" x2="819.2">
      <stop offset="0.0" stop-color="#4e4e4e"/>
      <stop offset="0.7803921568627451" stop-color="#353535"/>
      <stop offset="1.0" stop-color="#404040"/>
    </linearGradient>
    <linearGradient gradientTransform="matrix(0.0119, 0.0031, -0.0059, 0.0223, -30.4, -35.6)" gradientUnits="userSpaceOnUse" id="gradient14" spreadMethod="pad" x1="-819.2" x2="819.2">
      <stop offset="0.03529411764705882" stop-color="#bfbfbf"/>
      <stop offset="0.054901960784313725" stop-color="#bfbfbf"/>
      <stop offset="0.49019607843137253" stop-color="#989898"/>
      <stop offset="0.9607843137254902" stop-color="#6d6d6d"/>
    </linearGradient>
    <linearGradient gradientTransform="matrix(-0.004, 0.0183, -0.0226, -0.0049, -31.55, -35.0)" gradientUnits="userSpaceOnUse" id="gradient15" spreadMethod="pad" x1="-819.2" x2="819.2">
      <stop offset="0.0" stop-color="#4e4e4e"/>
      <stop offset="0.7803921568627451" stop-color="#353535"/>
      <stop offset="1.0" stop-color="#404040"/>
    </linearGradient>
    <linearGradient gradientTransform="matrix(0.0041, 0.0045, -0.0061, 0.0056, 13.15, 31.7)" gradientUnits="userSpaceOnUse" id="gradient16" spreadMethod="pad" x1="-819.2" x2="819.2">
      <stop offset="0.0" stop-color="#868686"/>
      <stop offset="0.44313725490196076" stop-color="#666666"/>
      <stop offset="1.0" stop-color="#353535"/>
    </linearGradient>
    <linearGradient gradientTransform="matrix(-0.0037, 0.0051, -0.0067, -0.0049, -13.9, 31.1)" gradientUnits="userSpaceOnUse" id="gradient17" spreadMethod="pad" x1="-819.2" x2="819.2">
      <stop offset="0.0" stop-color="#868686"/>
      <stop offset="0.4392156862745098" stop-color="#666666"/>
      <stop offset="1.0" stop-color="#353535"/>
    </linearGradient>
    <linearGradient gradientTransform="matrix(0.0, -0.0078, 0.0082, 1.0E-4, 10.95, 31.3)" gradientUnits="userSpaceOnUse" id="gradient18" spreadMethod="pad" x1="-819.2" x2="819.2">
      <stop offset="0.21176470588235294" stop-color="#717171"/>
      <stop offset="0.6588235294117647" stop-color="#959595"/>
      <stop offset="1.0" stop-color="#aaaaaa"/>
    </linearGradient>
    <linearGradient gradientTransform="matrix(-4.0E-4, -0.008, 0.0082, -4.0E-4, -11.05, 31.3)" gradientUnits="userSpaceOnUse" id="gradient19" spreadMethod="pad" x1="-819.2" x2="819.2">
      <stop offset="0.20784313725490197" stop-color="#717171"/>
      <stop offset="0.6588235294117647" stop-color="#959595"/>
      <stop offset="1.0" stop-color="#aaaaaa"/>
    </linearGradient>
    <linearGradient gradientTransform="matrix(0.0, 0.0073, -0.0085, 0.0, 15.5, 26.0)" gradientUnits="userSpaceOnUse" id="gradient20" spreadMethod="pad" x1="-819.2" x2="819.2">
      <stop offset="0.0" stop-color="#616161"/>
      <stop offset="0.6588235294117647" stop-color="#6d6d6d"/>
      <stop offset="1.0" stop-color="#787878"/>
    </linearGradient>
    <linearGradient gradientTransform="matrix(6.0E-4, 0.0073, -0.0085, 7.0E-4, -15.55, 26.0)" gradientUnits="userSpaceOnUse" id="gradient21" spreadMethod="pad" x1="-819.2" x2="819.2">
      <stop offset="0.011764705882352941" stop-color="#616161"/>
      <stop offset="0.6588235294117647" stop-color="#6d6d6d"/>
      <stop offset="1.0" stop-color="#7b7b7b"/>
    </linearGradient>
    <linearGradient gradientTransform="matrix(-0.0051, 0.0056, -0.0063, -0.0058, 19.0, 26.3)" gradientUnits="userSpaceOnUse" id="gradient22" spreadMethod="pad" x1="-819.2" x2="819.2">
      <stop offset="0.0" stop-color="#404040"/>
      <stop offset="0.7568627450980392" stop-color="#404040"/>
      <stop offset="1.0" stop-color="#464646"/>
    </linearGradient>
    <linearGradient gradientTransform="matrix(0.0043, 0.0065, -0.0071, 0.0048, -20.1, 26.65)" gradientUnits="userSpaceOnUse" id="gradient23" spreadMethod="pad" x1="-819.2" x2="819.2">
      <stop offset="0.00784313725490196" stop-color="#404040"/>
      <stop offset="0.7568627450980392" stop-color="#404040"/>
      <stop offset="1.0" stop-color="#464646"/>
    </linearGradient>
  </defs>
</svg>
