<?xml version="1.0" encoding="UTF-8" standalone="no"?>
<svg xmlns:xlink="http://www.w3.org/1999/xlink" height="61.95px" width="100.8px" xmlns="http://www.w3.org/2000/svg">
  <g transform="matrix(1.0, 0.0, 0.0, 1.0, 50.4, 26.5)">
    <path d="M3.6 -26.45 L4.9 -26.0 5.8 -25.0 7.55 -21.15 13.3 -20.35 19.8 -23.85 21.55 -24.05 27.85 -22.25 29.05 -21.35 Q29.5 -20.7 29.5 -19.9 L29.5 -14.45 39.45 -15.95 Q40.45 -16.15 41.3 -15.5 L45.15 -12.2 Q45.85 -11.45 45.85 -10.45 L45.85 -4.5 48.2 -4.2 Q49.15 -4.1 49.8 -3.4 50.4 -2.7 50.4 -1.75 L50.4 7.25 50.4 9.05 50.4 10.75 Q50.4 11.7 49.8 12.4 49.15 13.1 48.2 13.25 L45.85 13.5 45.85 19.5 45.65 20.55 45.0 21.4 41.45 24.4 40.5 24.9 39.45 25.0 29.5 23.5 29.5 28.9 Q29.5 29.75 29.0 30.4 28.5 31.05 27.75 31.3 L21.7 33.1 19.8 32.9 13.3 29.45 7.55 30.25 5.75 34.05 4.85 35.05 3.5 35.45 -3.5 35.45 Q-4.25 35.45 -4.85 35.05 L-5.75 34.0 -7.55 30.2 -13.3 29.4 -19.75 32.9 -21.65 33.1 -27.7 31.3 -29.0 30.4 Q-29.5 29.75 -29.5 28.9 L-29.5 23.5 -39.4 25.0 -40.45 24.9 -41.4 24.4 -44.95 21.4 -45.6 20.55 -45.85 19.5 -45.85 13.5 -48.2 13.25 Q-49.1 13.1 -49.75 12.45 -50.4 11.75 -50.4 10.8 L-50.4 9.0 -50.4 7.3 -50.4 -1.75 Q-50.4 -2.7 -49.75 -3.4 -49.15 -4.1 -48.15 -4.2 L-45.85 -4.5 -45.85 -10.45 Q-45.85 -11.45 -45.15 -12.2 -43.45 -13.95 -41.25 -15.5 -40.45 -16.15 -39.4 -15.95 L-29.5 -14.45 -29.5 -19.9 Q-29.5 -20.7 -29.0 -21.35 -28.55 -22.0 -27.8 -22.25 L-21.5 -24.05 -19.75 -23.85 -13.3 -20.35 -7.55 -21.15 -5.75 -25.0 -4.85 -26.0 -3.55 -26.45 0.0 -26.5 3.6 -26.45" fill="#000000" fill-rule="evenodd" stroke="none"/>
    <path d="M37.55 6.05 L47.9 7.25 47.9 9.05 47.9 10.75 37.55 12.0 37.55 6.05 M-37.55 6.05 L-37.55 12.0 -47.9 10.75 -47.9 9.05 -47.9 7.25 -37.55 6.05 M-37.55 12.0 L-35.55 15.85 Q-37.0 14.0 -37.55 12.0" fill="url(#gradient0)" fill-rule="evenodd" stroke="none"/>
    <path d="M-36.85 4.3 L-35.55 6.85 -35.55 15.85 -37.55 12.0 -37.55 6.05 -37.55 3.0 -36.85 4.3" fill="url(#gradient1)" fill-rule="evenodd" stroke="none"/>
    <path d="M10.25 -9.3 L10.25 -7.75 -0.5 -7.75 -10.5 -7.75 -10.5 -9.3 -5.9 -9.75 -3.5 -14.95 -0.5 -15.0 0.0 -15.0 3.5 -14.95 5.9 -9.75 10.25 -9.3" fill="#c2c2c2" fill-opacity="0.3529412" fill-rule="evenodd" stroke="none"/>
    <path d="M10.25 -9.3 L13.7 -8.75 15.85 -9.9 20.9 30.7 13.7 26.85 5.9 27.85 3.5 32.95 0.0 32.6 0.0 32.55 -0.5 32.55 -0.5 15.5 0.0 15.5 Q5.4 15.5 9.2 13.6 13.0 11.7 13.0 9.0 13.0 6.3 9.2 4.4 5.4 2.5 0.0 2.5 L-0.5 2.5 -0.5 -7.75 10.25 -7.75 10.25 -9.3" fill="url(#gradient2)" fill-rule="evenodd" stroke="none"/>
    <path d="M-36.85 4.3 L-35.55 2.15 -43.35 -1.45 Q-41.8 -3.05 -39.8 -4.5 L-29.6 -2.95 -26.9 -4.45 -23.9 -5.8 -27.0 -10.9 -20.95 -12.65 -17.4 -10.75 -20.15 30.3 -20.95 30.7 Q-23.8 29.2 -27.0 28.9 L-23.9 23.8 -26.9 22.45 -29.55 20.95 -39.8 22.5 Q-41.35 20.05 -43.35 19.5 L-35.55 15.85 -35.55 6.85 -36.85 4.3" fill="url(#gradient3)" fill-rule="evenodd" stroke="none"/>
    <path d="M20.9 30.7 L15.85 -9.9 20.95 -12.65 27.0 -10.9 23.9 -5.8 26.9 -4.45 29.6 -2.95 39.8 -4.5 Q41.8 -3.05 43.35 -1.45 L35.55 2.15 36.9 4.3 37.55 3.0 37.55 6.05 37.55 12.0 37.55 12.05 37.55 12.1 Q37.0 14.0 35.65 15.75 L35.6 15.85 43.35 19.5 Q41.35 20.05 39.8 22.5 L29.55 20.95 26.9 22.45 23.9 23.8 25.9 28.4 Q24.6 28.5 23.35 29.25 L20.95 30.7 20.9 30.7" fill="url(#gradient4)" fill-rule="evenodd" stroke="none"/>
    <path d="M-0.5 -7.75 L-0.5 2.5 Q-5.6 2.6 -9.2 4.4 -13.0 6.3 -13.0 9.0 -13.0 11.7 -9.2 13.6 -5.6 15.4 -0.5 15.5 L-0.5 32.55 -3.5 32.95 -5.9 27.8 -13.7 26.8 -20.15 30.3 -17.4 -10.75 -13.7 -8.75 -10.5 -9.3 -10.5 -7.75 -0.5 -7.75" fill="url(#gradient5)" fill-rule="evenodd" stroke="none"/>
    <path d="M9.2 -4.6 Q13.0 -2.7 13.0 0.0 13.0 2.65 9.4 4.5 L9.2 4.4 Q5.4 2.5 0.0 2.5 -5.4 2.5 -9.2 4.4 L-9.4 4.5 Q-13.0 2.65 -13.0 0.0 -13.0 -2.7 -9.2 -4.6 -5.4 -6.5 0.0 -6.5 5.4 -6.5 9.2 -4.6" fill="url(#gradient6)" fill-rule="evenodd" stroke="none"/>
    <path d="M23.9 -5.8 L23.9 -14.8 27.0 -19.9 27.0 -10.9 23.9 -5.8" fill="url(#gradient7)" fill-rule="evenodd" stroke="none"/>
    <path d="M-20.95 21.7 L-13.7 17.8 -13.7 26.8 -20.95 30.7 -20.95 21.7" fill="url(#gradient8)" fill-rule="evenodd" stroke="none"/>
    <path d="M5.9 18.8 L5.9 27.85 3.5 32.95 3.5 23.95 5.9 18.8" fill="url(#gradient9)" fill-rule="evenodd" stroke="none"/>
    <path d="M-29.55 11.95 L-29.55 20.95 -39.8 22.5 -39.8 13.5 -29.55 11.95" fill="url(#gradient10)" fill-rule="evenodd" stroke="none"/>
    <path d="M-37.55 12.0 L-47.9 10.75 -47.9 1.75 -37.55 3.0 -37.55 12.0" fill="url(#gradient11)" fill-rule="evenodd" stroke="none"/>
    <path d="M-43.35 -10.45 L-35.55 -6.85 -35.55 2.15 -43.35 -1.45 -43.35 -10.45 M-27.0 -19.9 L-23.9 -14.8 -23.9 -5.8 -27.0 -10.9 -27.0 -19.9" fill="#3d4343" fill-rule="evenodd" stroke="none"/>
    <path d="M-3.5 23.95 L-3.5 32.95 -5.9 27.8 -5.9 18.8 -3.5 23.95" fill="#4e5453" fill-rule="evenodd" stroke="none"/>
    <path d="M13.7 17.8 L20.95 21.7 20.95 30.7 13.7 26.85 13.7 17.8" fill="url(#gradient12)" fill-rule="evenodd" stroke="none"/>
    <path d="M29.5 11.9 L39.8 13.45 39.8 22.5 29.5 20.95 29.5 11.9" fill="url(#gradient13)" fill-rule="evenodd" stroke="none"/>
    <path d="M47.9 1.75 L47.9 10.75 37.55 12.0 37.55 3.0 47.9 1.75" fill="url(#gradient14)" fill-rule="evenodd" stroke="none"/>
    <path d="M43.35 -10.45 L43.35 -1.45 35.55 2.15 35.55 -6.85 43.35 -10.45" fill="url(#gradient15)" fill-rule="evenodd" stroke="none"/>
    <path d="M-20.95 21.7 L-20.95 30.7 -27.0 28.9 -27.0 19.9 -20.95 21.7" fill="#5e6768" fill-rule="evenodd" stroke="none"/>
    <path d="M-39.8 22.5 L-43.35 19.5 -43.35 10.5 -39.8 13.5 -39.8 22.5" fill="#515859" fill-rule="evenodd" stroke="none"/>
    <path d="M20.95 21.7 L27.0 19.9 27.0 28.9 20.95 30.7 20.95 21.7" fill="url(#gradient16)" fill-rule="evenodd" stroke="none"/>
    <path d="M3.5 32.95 L-3.5 32.95 -3.5 23.95 3.5 23.95 3.5 32.95" fill="#848f91" fill-rule="evenodd" stroke="none"/>
    <path d="M43.35 10.5 L43.35 19.5 39.8 22.5 39.8 13.5 43.35 10.5" fill="url(#gradient17)" fill-rule="evenodd" stroke="none"/>
    <path d="M9.2 -4.6 Q5.4 -6.5 0.0 -6.5 -5.4 -6.5 -9.2 -4.6 -13.0 -2.7 -13.0 0.0 -13.0 2.7 -9.2 4.6 -5.4 6.5 0.0 6.5 5.4 6.5 9.2 4.6 13.0 2.7 13.0 0.0 13.0 -2.7 9.2 -4.6 M0.0 -24.0 L3.5 -23.95 5.9 -18.75 13.7 -17.75 20.95 -21.65 27.0 -19.9 23.9 -14.8 26.9 -13.45 29.6 -11.95 39.8 -13.5 Q41.8 -12.05 43.35 -10.45 L35.55 -6.85 Q37.0 -5.0 37.55 -2.95 L47.9 -1.75 47.9 1.75 37.55 3.0 Q37.0 5.0 35.55 6.85 L43.35 10.5 39.8 13.5 29.55 11.95 26.9 13.45 23.9 14.8 27.0 19.9 20.95 21.7 13.7 17.8 5.9 18.8 3.5 23.95 0.0 24.0 -3.5 23.95 -5.9 18.8 -13.7 17.8 -20.95 21.7 -27.0 19.9 -23.9 14.8 -26.9 13.45 -29.55 11.95 -39.8 13.5 -43.35 10.5 -35.55 6.85 Q-37.0 5.0 -37.55 3.0 L-47.9 1.75 -47.9 -1.75 -37.55 -2.95 Q-37.0 -5.0 -35.55 -6.85 L-43.35 -10.45 Q-41.8 -12.05 -39.8 -13.5 L-29.6 -11.95 -26.9 -13.45 -23.9 -14.8 -27.0 -19.9 -20.95 -21.65 -13.7 -17.75 -5.9 -18.75 -3.5 -23.95 0.0 -24.0" fill="url(#gradient18)" fill-rule="evenodd" stroke="none"/>
    <path d="M2.6 -15.0 Q2.6 -14.45 1.85 -14.1 1.1 -13.7 0.0 -13.7 -1.1 -13.7 -1.85 -14.1 -2.6 -14.45 -2.6 -15.0 -2.6 -15.55 -1.85 -15.9 L0.0 -16.3 1.85 -15.9 Q2.6 -15.55 2.6 -15.0" fill="#c2c2c2" fill-opacity="0.3529412" fill-rule="evenodd" stroke="none"/>
    <path d="M1.85 15.9 Q1.1 16.3 0.0 16.3 -1.1 16.3 -1.85 15.9 -2.6 15.55 -2.6 15.0 -2.6 14.45 -1.85 14.1 L0.0 13.7 1.85 14.1 Q2.6 14.45 2.6 15.0 2.6 15.55 1.85 15.9" fill="#c2c2c2" fill-opacity="0.6431373" fill-rule="evenodd" stroke="none"/>
    <path d="M0.0 -13.7 Q-1.1 -13.7 -1.85 -14.1 -2.4 -14.35 -2.55 -14.75 -2.4 -15.15 -1.85 -15.4 L0.0 -15.8 1.85 -15.4 Q2.4 -15.15 2.55 -14.75 2.4 -14.35 1.85 -14.1 1.1 -13.7 0.0 -13.7 M-1.85 14.6 L0.0 14.2 1.85 14.6 Q2.4 14.85 2.55 15.25 2.4 15.65 1.85 15.9 1.1 16.3 0.0 16.3 -1.1 16.3 -1.85 15.9 -2.4 15.65 -2.55 15.25 -2.4 14.85 -1.85 14.6" fill="#000000" fill-opacity="0.28235295" fill-rule="evenodd" stroke="none"/>
  </g>
  <defs>
    <linearGradient gradientTransform="matrix(0.0585, 0.0, 0.0, 0.0293, 0.0, 8.95)" gradientUnits="userSpaceOnUse" id="gradient0" spreadMethod="pad" x1="-819.2" x2="819.2">
      <stop offset="0.01568627450980392" stop-color="#4a4a4a"/>
      <stop offset="0.2196078431372549" stop-color="#464646"/>
      <stop offset="0.30980392156862746" stop-color="#484848"/>
      <stop offset="0.47058823529411764" stop-color="#606060"/>
      <stop offset="0.6980392156862745" stop-color="#464646"/>
      <stop offset="0.8117647058823529" stop-color="#6d6d6d"/>
      <stop offset="1.0" stop-color="#4e4e4e"/>
    </linearGradient>
    <linearGradient gradientTransform="matrix(0.0012, 0.0, 0.0, 0.0078, -36.55, 9.4)" gradientUnits="userSpaceOnUse" id="gradient1" spreadMethod="pad" x1="-819.2" x2="819.2">
      <stop offset="0.0" stop-color="#383838"/>
      <stop offset="1.0" stop-color="#4e4e4e"/>
    </linearGradient>
    <linearGradient gradientTransform="matrix(0.0, -0.0061, 0.0293, 0.0, -0.85, 23.25)" gradientUnits="userSpaceOnUse" id="gradient2" spreadMethod="pad" x1="-819.2" x2="819.2">
      <stop offset="0.00784313725490196" stop-color="#6a7071"/>
      <stop offset="1.0" stop-color="#555a5b"/>
    </linearGradient>
    <linearGradient gradientTransform="matrix(0.0, -0.0061, 0.0293, 0.0, -0.85, 23.25)" gradientUnits="userSpaceOnUse" id="gradient3" spreadMethod="pad" x1="-819.2" x2="819.2">
      <stop offset="0.00784313725490196" stop-color="#6a7071"/>
      <stop offset="1.0" stop-color="#444848"/>
    </linearGradient>
    <linearGradient gradientTransform="matrix(0.0, -0.0061, 0.0293, 0.0, -0.85, 23.25)" gradientUnits="userSpaceOnUse" id="gradient4" spreadMethod="pad" x1="-819.2" x2="819.2">
      <stop offset="0.4666666666666667" stop-color="#757b7b"/>
      <stop offset="1.0" stop-color="#616565"/>
    </linearGradient>
    <linearGradient gradientTransform="matrix(0.0, -0.0061, 0.0293, 0.0, -0.85, 23.25)" gradientUnits="userSpaceOnUse" id="gradient5" spreadMethod="pad" x1="-819.2" x2="819.2">
      <stop offset="0.00784313725490196" stop-color="#6a7071"/>
      <stop offset="1.0" stop-color="#484d4d"/>
    </linearGradient>
    <radialGradient cx="0" cy="0" gradientTransform="matrix(0.0186, 0.0, 0.0, 0.0186, 0.0, -6.0)" gradientUnits="userSpaceOnUse" id="gradient6" r="819.2" spreadMethod="pad">
      <stop offset="0.24705882352941178" stop-color="#899198"/>
      <stop offset="1.0" stop-color="#4d5255"/>
    </radialGradient>
    <linearGradient gradientTransform="matrix(0.0019, 0.0, 0.0, 0.0086, 25.45, -12.85)" gradientUnits="userSpaceOnUse" id="gradient7" spreadMethod="pad" x1="-819.2" x2="819.2">
      <stop offset="0.00784313725490196" stop-color="#b8b8b8"/>
      <stop offset="0.8627450980392157" stop-color="#b5b5b5"/>
    </linearGradient>
    <linearGradient gradientTransform="matrix(0.0, -0.0089, 0.0079, 0.0, -17.35, 24.25)" gradientUnits="userSpaceOnUse" id="gradient8" spreadMethod="pad" x1="-819.2" x2="819.2">
      <stop offset="0.0" stop-color="#939b9d"/>
      <stop offset="0.00784313725490196" stop-color="#a3a9a9"/>
      <stop offset="1.0" stop-color="#738084"/>
    </linearGradient>
    <linearGradient gradientTransform="matrix(0.0, -0.0089, 0.0079, 0.0, -17.35, 24.25)" gradientUnits="userSpaceOnUse" id="gradient9" spreadMethod="pad" x1="-819.2" x2="819.2">
      <stop offset="0.0" stop-color="#939b9d"/>
      <stop offset="0.00784313725490196" stop-color="#a3a9a9"/>
      <stop offset="1.0" stop-color="#838e92"/>
    </linearGradient>
    <linearGradient gradientTransform="matrix(0.0, -0.0064, 0.0079, 0.0, -18.05, 17.05)" gradientUnits="userSpaceOnUse" id="gradient10" spreadMethod="pad" x1="-819.2" x2="819.2">
      <stop offset="0.0" stop-color="#939d9b"/>
      <stop offset="1.0" stop-color="#566061"/>
    </linearGradient>
    <linearGradient gradientTransform="matrix(0.0, -0.0064, 0.0079, 0.0, -18.1, 6.55)" gradientUnits="userSpaceOnUse" id="gradient11" spreadMethod="pad" x1="-819.2" x2="819.2">
      <stop offset="0.0" stop-color="#626a67"/>
      <stop offset="1.0" stop-color="#3d4343"/>
    </linearGradient>
    <linearGradient gradientTransform="matrix(0.002, -0.0072, 0.0076, 0.0021, -16.05, 14.95)" gradientUnits="userSpaceOnUse" id="gradient12" spreadMethod="pad" x1="-819.2" x2="819.2">
      <stop offset="0.0" stop-color="#8a9796"/>
      <stop offset="1.0" stop-color="#5e6867"/>
    </linearGradient>
    <linearGradient gradientTransform="matrix(0.0012, -0.0062, 0.0077, 0.0014, -13.3, 8.15)" gradientUnits="userSpaceOnUse" id="gradient13" spreadMethod="pad" x1="-819.2" x2="819.2">
      <stop offset="0.0" stop-color="#8a9795"/>
      <stop offset="1.0" stop-color="#707a78"/>
    </linearGradient>
    <linearGradient gradientTransform="matrix(0.0011, -0.0062, 0.0077, 0.0014, -10.8, -3.5)" gradientUnits="userSpaceOnUse" id="gradient14" spreadMethod="pad" x1="-819.2" x2="819.2">
      <stop offset="0.0" stop-color="#8a9795"/>
      <stop offset="1.0" stop-color="#9ea7a4"/>
    </linearGradient>
    <linearGradient gradientTransform="matrix(0.0011, -0.0062, 0.0077, 0.0014, -8.25, -15.05)" gradientUnits="userSpaceOnUse" id="gradient15" spreadMethod="pad" x1="-819.2" x2="819.2">
      <stop offset="0.0" stop-color="#8a9795"/>
      <stop offset="1.0" stop-color="#9ea7a4"/>
    </linearGradient>
    <linearGradient gradientTransform="matrix(-4.0E-4, -0.0073, 0.0073, -4.0E-4, 41.45, 24.3)" gradientUnits="userSpaceOnUse" id="gradient16" spreadMethod="pad" x1="-819.2" x2="819.2">
      <stop offset="0.07450980392156863" stop-color="#657070"/>
      <stop offset="0.792156862745098" stop-color="#9aa5a2"/>
    </linearGradient>
    <linearGradient gradientTransform="matrix(-4.0E-4, -0.0073, 0.0073, -4.0E-4, 41.55, 16.5)" gradientUnits="userSpaceOnUse" id="gradient17" spreadMethod="pad" x1="-819.2" x2="819.2">
      <stop offset="0.0" stop-color="#abb6b6"/>
      <stop offset="0.47843137254901963" stop-color="#c4cac9"/>
      <stop offset="0.7098039215686275" stop-color="#d9dddc"/>
    </linearGradient>
    <linearGradient gradientTransform="matrix(8.0E-4, -0.0317, 0.0293, 8.0E-4, 0.1, 0.0)" gradientUnits="userSpaceOnUse" id="gradient18" spreadMethod="pad" x1="-819.2" x2="819.2">
      <stop offset="0.0196078431372549" stop-color="#e6e6e6"/>
      <stop offset="0.15294117647058825" stop-color="#b1b7b8"/>
      <stop offset="0.4392156862745098" stop-color="#6c7475"/>
      <stop offset="0.5764705882352941" stop-color="#5f6667"/>
      <stop offset="0.6941176470588235" stop-color="#5b6164"/>
      <stop offset="0.8274509803921568" stop-color="#6c6f6f"/>
      <stop offset="0.9176470588235294" stop-color="#898383"/>
    </linearGradient>
  </defs>
</svg>
