<?xml version="1.0" encoding="UTF-8" standalone="no"?>
<svg xmlns:xlink="http://www.w3.org/1999/xlink" height="555.0px" width="401.15px" xmlns="http://www.w3.org/2000/svg">
  <g transform="matrix(1.0, 0.0, 0.0, 1.0, -89.0, -159.0)">
    <path d="M345.5 383.5 Q337.85 421.7 336.5 458.5 334.75 506.0 345.5 527.5 350.55 537.6 356.4 556.4 L366.5 590.5 Q372.7 610.9 378.15 623.15 385.3 639.3 393.5 647.5 409.85 663.85 442.8 682.05 470.9 697.6 489.5 703.5 494.5 713.5 312.5 713.5 221.5 713.5 129.5 711.5 118.75 706.1 103.3 643.95 97.35 619.95 93.3 597.25 89.3 575.1 89.5 567.5 90.5 530.2 108.3 503.35 115.2 492.95 126.0 482.0 130.1 477.8 145.5 463.5 166.55 443.85 189.2 390.55 211.4 338.15 217.5 295.5 227.9 294.25 233.8 280.8 238.9 269.15 240.15 249.65 241.2 232.5 239.15 213.4 237.25 195.5 233.5 183.5 L255.0 185.1 Q265.0 185.2 272.5 183.15 288.35 178.75 305.5 159.5 299.4 184.95 310.95 224.3 318.1 248.7 329.5 271.5 323.85 300.45 328.15 330.5 332.4 360.7 345.5 383.5" fill="url(#gradient0)" fill-rule="evenodd" stroke="none"/>
    <path d="M345.5 383.5 Q337.85 421.7 336.5 458.5 334.75 506.0 345.5 527.5 350.55 537.6 356.4 556.4 L366.5 590.5 Q372.7 610.9 378.15 623.15 385.3 639.3 393.5 647.5 409.85 663.85 442.8 682.05 470.9 697.6 489.5 703.5 494.5 713.5 312.5 713.5 221.5 713.5 129.5 711.5 118.75 706.1 103.3 643.95 97.35 619.95 93.3 597.25 89.3 575.1 89.5 567.5 90.5 530.2 108.3 503.35 115.2 492.95 126.0 482.0 130.1 477.8 145.5 463.5 166.55 443.85 189.2 390.55 211.4 338.15 217.5 295.5 227.9 294.25 233.8 280.8 238.9 269.15 240.15 249.65 241.2 232.5 239.15 213.4 237.25 195.5 233.5 183.5 L255.0 185.1 Q265.0 185.2 272.5 183.15 288.35 178.75 305.5 159.5 299.4 184.95 310.95 224.3 318.1 248.7 329.5 271.5 323.85 300.45 328.15 330.5 332.4 360.7 345.5 383.5 Z" fill="none" stroke="#f48517" stroke-linecap="round" stroke-linejoin="round" stroke-width="1.0"/>
  </g>
  <defs>
    <linearGradient gradientTransform="matrix(2.0E-4, -0.3473, 0.3381, 2.0E-4, 289.55, 436.5)" gradientUnits="userSpaceOnUse" id="gradient0" spreadMethod="pad" x1="-819.2" x2="819.2">
      <stop offset="0.0" stop-color="#f8e338"/>
      <stop offset="0.5333333333333333" stop-color="#ef9b2c"/>
      <stop offset="1.0" stop-color="#f32121"/>
    </linearGradient>
  </defs>
</svg>
