<?xml version="1.0" encoding="UTF-8" standalone="no"?>
<svg xmlns:xlink="http://www.w3.org/1999/xlink" height="356.15px" width="320.2px" xmlns="http://www.w3.org/2000/svg">
  <g transform="matrix(1.0, 0.0, 0.0, 1.0, 20.65, -343.5)">
    <path d="M28.0 384.0 Q45.2 375.05 54.4 365.5 62.45 357.1 68.0 344.0 80.45 359.6 83.25 362.7 92.4 372.75 100.0 376.0 89.05 387.1 83.05 402.9 78.45 414.85 76.0 432.0 68.15 426.5 57.6 423.1 46.3 419.5 37.4 420.15 44.35 411.15 36.85 396.7 34.55 392.15 31.05 387.6 L28.0 384.0 M48.1 499.1 L55.5 487.5 Q55.3 503.55 61.0 526.5 66.95 550.55 77.4 573.7 88.9 599.35 103.3 617.8 119.6 638.65 137.5 647.5 163.55 677.8 224.45 687.05 239.0 689.25 268.35 691.6 291.15 693.4 297.5 695.5 312.5 700.5 175.05 698.65 104.25 697.75 9.5 695.5 1.6 681.15 -2.5 672.85 -9.8 658.25 -13.85 645.15 -24.95 608.9 -16.5 567.5 0.7 563.4 29.8 525.05 38.9 513.05 48.1 499.1" fill="url(#gradient0)" fill-rule="evenodd" stroke="none"/>
    <path d="M28.0 384.0 Q45.2 375.05 54.4 365.5 62.45 357.1 68.0 344.0 80.45 359.6 83.25 362.7 92.4 372.75 100.0 376.0 89.05 387.1 83.05 402.9 78.45 414.85 76.0 432.0 68.15 426.5 57.6 423.1 46.3 419.5 37.4 420.15 44.35 411.15 36.85 396.7 34.55 392.15 31.05 387.6 L28.0 384.0 M48.1 499.1 L55.5 487.5 Q55.3 503.55 61.0 526.5 66.95 550.55 77.4 573.7 88.9 599.35 103.3 617.8 119.6 638.65 137.5 647.5 163.55 677.8 224.45 687.05 239.0 689.25 268.35 691.6 291.15 693.4 297.5 695.5 312.5 700.5 175.05 698.65 104.25 697.75 9.5 695.5 1.6 681.15 -2.5 672.85 -9.8 658.25 -13.85 645.15 -24.95 608.9 -16.5 567.5 0.7 563.4 29.8 525.05 38.9 513.05 48.1 499.1" fill="none" stroke="#f48517" stroke-linecap="round" stroke-linejoin="round" stroke-width="1.0"/>
  </g>
  <defs>
    <linearGradient gradientTransform="matrix(2.0E-4, -0.3473, 0.3381, 2.0E-4, 289.55, 436.5)" gradientUnits="userSpaceOnUse" id="gradient0" spreadMethod="pad" x1="-819.2" x2="819.2">
      <stop offset="0.0" stop-color="#f8e338"/>
      <stop offset="0.5333333333333333" stop-color="#ef9b2c"/>
      <stop offset="1.0" stop-color="#f32121"/>
    </linearGradient>
  </defs>
</svg>
