<?xml version="1.0" encoding="UTF-8" standalone="no"?>
<svg xmlns:xlink="http://www.w3.org/1999/xlink" height="14.0px" width="19.0px" xmlns="http://www.w3.org/2000/svg">
  <g transform="matrix(1.0, 0.0, 0.0, 1.0, 0.5, 0.5)">
    <path d="M10.0 12.0 L8.0 12.0 8.0 10.0 10.0 10.0 10.0 12.0 M8.0 4.0 L10.0 4.0 10.0 9.0 8.0 9.0 8.0 4.0" fill="#000000" fill-rule="evenodd" stroke="none"/>
    <path d="M8.0 4.0 L8.0 9.0 10.0 9.0 10.0 4.0 8.0 4.0 M10.0 12.0 L10.0 10.0 8.0 10.0 8.0 12.0 10.0 12.0 M9.0 0.0 L18.0 13.0 0.0 13.0 9.0 0.0" fill="#edc718" fill-rule="evenodd" stroke="none"/>
    <path d="M9.0 0.0 L18.0 13.0 0.0 13.0 9.0 0.0 Z" fill="none" stroke="#000000" stroke-linecap="round" stroke-linejoin="round" stroke-width="1.0"/>
  </g>
</svg>
