<?xml version="1.0" encoding="UTF-8" standalone="no"?>
<svg xmlns:xlink="http://www.w3.org/1999/xlink" height="480.0px" width="288.0px" xmlns="http://www.w3.org/2000/svg">
  <g transform="matrix(1.0, 0.0, 0.0, 1.0, 144.0, 240.0)">
    <path d="M0.0 -240.0 Q1.6 -240.0 3.15 -206.55 L6.05 -132.25 Q10.35 -22.45 16.4 -16.4 22.6 -10.2 84.25 -5.65 L125.55 -2.75 Q144.0 -1.25 144.0 0.0 144.0 1.25 125.55 2.75 L84.25 5.65 Q22.6 10.2 16.4 16.4 10.35 22.45 6.05 132.25 L3.15 206.55 Q1.6 240.0 0.0 240.0 -1.6 240.0 -3.15 206.55 L-6.05 132.25 Q-10.35 22.45 -16.4 16.4 -22.6 10.2 -84.25 5.65 L-125.55 2.75 Q-144.0 1.25 -144.0 0.0 -144.0 -1.25 -125.55 -2.75 L-84.25 -5.65 Q-22.6 -10.2 -16.4 -16.4 -10.35 -22.45 -6.05 -132.25 L-3.15 -206.55 Q-1.6 -240.0 0.0 -240.0" fill="url(#gradient0)" fill-rule="evenodd" stroke="none"/>
  </g>
  <defs>
    <radialGradient cx="0" cy="0" gradientTransform="matrix(0.1758, 0.0, 0.0, 0.2941, 0.0, 0.0)" gradientUnits="userSpaceOnUse" id="gradient0" r="819.2" spreadMethod="pad">
      <stop offset="0.24313725490196078" stop-color="#ffffff"/>
      <stop offset="0.4470588235294118" stop-color="#fbeeca"/>
      <stop offset="0.7843137254901961" stop-color="#8bb8f3" stop-opacity="0.7921569"/>
      <stop offset="1.0" stop-color="#98a9f3" stop-opacity="0.0"/>
    </radialGradient>
  </defs>
</svg>
