<?xml version="1.0" encoding="UTF-8" standalone="no"?>
<svg xmlns:xlink="http://www.w3.org/1999/xlink" height="312.0px" width="320.0px" xmlns="http://www.w3.org/2000/svg">
  <g transform="matrix(1.0, 0.0, 0.0, 1.0, 160.0, 156.0)">
    <path d="M155.7 -155.0 L-155.7 -155.0 Q-159.0 -155.0 -159.0 -152.0 L-159.0 152.0 Q-159.0 155.0 -155.7 155.0 L155.7 155.0 Q159.0 155.0 159.0 152.0 L159.0 -152.0 Q159.0 -155.0 155.7 -155.0 M155.7 -156.0 Q160.05 -156.0 160.0 -152.0 L160.0 152.0 Q160.05 156.0 155.7 156.0 L-155.7 156.0 Q-160.05 156.0 -160.0 152.0 L-160.0 -152.0 Q-160.05 -156.0 -155.7 -156.0 L155.7 -156.0" fill="#a2a2a3" fill-opacity="0.8509804" fill-rule="evenodd" stroke="none"/>
    <path d="M155.7 -155.0 Q159.0 -155.0 159.0 -152.0 L159.0 152.0 Q159.0 155.0 155.7 155.0 L-155.7 155.0 Q-159.0 155.0 -159.0 152.0 L-159.0 -152.0 Q-159.0 -155.0 -155.7 -155.0 L155.7 -155.0" fill="url(#gradient0)" fill-rule="evenodd" stroke="none"/>
  </g>
  <defs>
    <linearGradient gradientTransform="matrix(0.0, -0.188, 0.1892, 0.0, 0.0, 0.0)" gradientUnits="userSpaceOnUse" id="gradient0" spreadMethod="pad" x1="-819.2" x2="819.2">
      <stop offset="0.0" stop-color="#74757c" stop-opacity="0.8509804"/>
      <stop offset="1.0" stop-color="#808087" stop-opacity="0.8509804"/>
    </linearGradient>
  </defs>
</svg>
