<?xml version="1.0" encoding="UTF-8" standalone="no"?>
<svg xmlns:xlink="http://www.w3.org/1999/xlink" height="134.05px" width="626.25px" xmlns="http://www.w3.org/2000/svg">
  <g transform="matrix(1.0, 0.0, 0.0, 1.0, 313.1, 67.0)">
    <path d="M305.9 12.7 Q315.75 14.0 312.2 22.8 311.3 25.05 309.4 26.45 307.85 27.55 306.85 29.05 297.7 31.45 294.4 23.8 293.85 22.55 293.85 21.05 296.7 14.45 304.0 12.75 L305.9 12.7 M127.2 -35.8 Q122.9 -37.5 121.85 -42.95 127.55 -55.5 139.35 -46.35 139.85 -45.95 139.55 -45.05 137.55 -38.3 131.5 -35.8 129.35 -34.95 127.2 -35.8 M90.85 -42.95 Q100.55 -33.65 108.1 -22.15 108.85 -21.0 110.6 -20.3 113.55 -19.15 114.85 -15.95 116.9 -11.4 114.5 -6.65 113.85 -5.45 113.8 -3.95 113.35 3.2 113.55 9.0 L113.8 19.05 Q113.8 21.0 112.85 22.05 107.55 23.75 103.0 26.25 97.9 29.05 89.85 28.85 86.15 28.75 84.25 26.55 83.85 26.05 82.85 25.9 76.25 25.15 77.85 16.05 82.35 12.55 81.65 7.9 80.85 3.05 80.95 -1.95 81.05 -9.15 79.45 -14.15 79.35 -14.45 79.95 -14.8 L87.85 -18.95 Q93.4 -23.3 88.5 -29.65 84.15 -35.25 80.55 -41.35 79.9 -42.45 79.75 -43.95 79.5 -47.3 80.85 -48.95 87.55 -52.75 90.2 -44.05 90.35 -43.45 90.85 -42.95 M99.55 -13.2 Q97.85 -13.95 96.2 -13.2 91.35 -11.0 89.85 -4.95 89.85 -2.45 89.5 0.0 87.35 14.55 96.85 17.05 100.8 18.95 103.2 14.2 104.3 12.05 103.45 7.9 L103.5 6.95 Q105.8 -2.1 102.1 -10.65 101.3 -12.4 99.55 -13.2 M68.85 -17.95 Q71.15 -14.6 68.55 -11.2 66.25 -8.1 66.5 -3.0 66.7 1.4 65.85 9.05 69.4 15.5 71.25 23.2 L71.2 24.15 Q70.4 26.6 68.85 28.05 62.75 30.05 58.45 25.4 54.1 20.65 50.15 25.45 48.85 27.05 46.85 28.05 L42.85 30.05 Q35.6 28.3 33.4 21.2 L32.85 21.05 Q32.05 16.4 31.9 11.05 L31.85 10.05 Q40.25 4.45 40.35 -8.95 L39.9 -9.95 Q37.65 -12.25 36.85 -15.95 34.65 -22.7 42.0 -24.35 L42.95 -24.15 Q47.75 -21.85 51.85 -18.95 56.5 -19.85 59.35 -22.45 59.85 -22.95 60.85 -22.9 66.85 -22.45 68.85 -17.95 M135.85 -13.95 Q131.65 -3.35 134.45 9.9 135.05 12.85 136.15 15.95 L136.6 17.15 Q138.9 22.75 135.65 27.6 134.55 29.25 131.85 29.05 128.6 31.25 125.5 28.4 122.9 26.0 122.85 21.05 122.0 11.7 124.25 5.8 L124.35 5.05 Q124.6 -2.2 122.4 -6.75 L119.5 -12.3 Q118.85 -13.45 118.85 -14.95 122.3 -20.5 129.05 -22.2 133.85 -23.45 135.65 -20.8 138.0 -17.45 135.85 -13.95 M16.85 -22.95 Q23.0 -19.1 26.25 -12.65 L26.05 -11.85 25.85 -10.95 Q21.25 -6.1 22.1 5.1 22.5 10.4 24.5 13.65 25.35 15.05 25.7 17.05 26.1 19.75 24.85 21.05 17.95 25.65 8.05 27.9 7.4 28.05 6.55 28.6 4.7 29.85 1.85 30.05 -7.8 27.7 -12.9 20.85 L-13.15 20.05 Q-9.25 13.4 -8.85 3.05 -8.6 -1.95 -8.65 -6.95 L-8.95 -8.05 Q-11.15 -11.9 -9.15 -14.95 -7.3 -18.6 -1.15 -18.65 1.65 -18.65 3.45 -20.3 8.7 -25.15 16.85 -22.95 M51.3 -0.25 Q48.65 4.8 43.85 8.05 43.85 11.05 44.65 13.8 L45.35 15.35 Q46.15 16.75 47.8 16.55 53.3 16.0 55.85 12.05 58.65 9.85 58.65 4.05 58.6 -2.2 56.85 -5.95 53.25 -13.75 51.1 -4.9 50.85 -3.95 51.35 -3.55 52.55 -2.65 51.3 -0.25 M-1.15 -5.95 Q-1.15 -1.95 -0.7 2.0 L-0.65 4.0 Q-1.1 15.0 5.85 18.05 12.2 20.2 13.25 12.1 14.05 5.75 14.35 -1.0 14.55 -5.65 12.2 -8.4 10.85 -9.95 8.75 -10.25 0.9 -11.4 -1.15 -5.95 M-19.7 25.4 Q-22.35 28.3 -28.1 28.05 -33.75 26.15 -37.45 22.4 -38.45 21.35 -41.15 21.45 L-45.15 21.15 Q-63.85 17.55 -72.9 28.4 -74.4 30.25 -74.4 33.05 -74.4 36.25 -76.1 37.05 -76.45 46.35 -71.2 50.15 -65.95 53.85 -60.1 57.05 -63.7 64.95 -70.35 59.3 -70.6 59.05 -71.1 59.05 -80.2 53.15 -80.3 39.05 -80.3 35.85 -79.5 32.95 -77.75 26.9 -74.35 22.6 -71.6 19.05 -70.55 13.15 -69.2 5.45 -68.95 -3.95 -68.7 -14.4 -78.1 -10.95 -79.95 -16.95 -76.9 -22.85 L-76.05 -23.85 Q-72.05 -26.4 -69.1 -29.95 L-66.85 -43.1 Q-65.7 -49.4 -70.25 -50.5 -72.1 -51.0 -73.1 -51.95 -80.05 -56.3 -83.55 -48.7 -84.1 -47.45 -84.85 -46.55 -86.75 -44.25 -88.4 -47.8 -89.65 -50.45 -89.1 -54.95 -85.4 -62.7 -78.0 -66.75 L-77.1 -66.95 Q-66.7 -67.4 -60.75 -63.5 L-58.35 -63.55 Q-58.1 -63.95 -57.1 -64.0 -46.8 -64.6 -38.0 -66.1 -26.6 -67.95 -24.1 -59.95 -22.15 -56.95 -24.4 -53.5 -28.1 -47.85 -32.8 -52.3 -36.15 -55.45 -39.1 -58.95 -47.05 -58.85 -45.7 -48.9 L-45.6 -47.95 -44.35 -19.0 Q-43.6 -5.45 -47.35 2.4 -48.1 4.05 -47.3 5.6 -45.55 9.0 -40.1 9.05 -34.95 10.55 -33.0 4.75 -32.1 2.05 -32.45 -0.9 -33.4 -8.95 -33.5 -15.95 -33.55 -18.9 -33.0 -21.2 -32.3 -23.75 -32.75 -26.05 -33.3 -28.65 -31.1 -28.95 -26.75 -27.5 -28.2 -21.75 -28.6 -19.95 -28.55 -17.95 L-27.65 11.0 Q-27.6 11.55 -27.15 12.05 -24.15 15.55 -19.25 17.3 -18.65 17.55 -18.15 18.05 -16.45 21.75 -19.7 25.4 M255.9 12.7 Q265.75 14.0 262.25 22.8 261.3 25.05 259.4 26.45 257.85 27.55 256.85 29.05 247.7 31.45 244.4 23.8 243.85 22.55 243.85 21.05 246.75 14.45 254.0 12.75 L255.9 12.7 M224.85 7.05 Q225.6 13.8 226.8 20.05 227.8 25.1 231.35 27.7 231.85 28.05 231.85 29.05 233.8 35.0 231.35 41.85 227.2 53.35 216.65 58.65 212.85 60.55 208.85 62.05 202.3 58.6 194.75 56.45 L191.9 55.75 Q189.1 55.25 188.85 52.05 191.3 44.0 197.2 39.5 201.75 35.95 202.25 29.0 202.4 26.5 200.85 25.05 190.7 24.25 193.15 16.1 194.15 12.8 194.2 8.05 L194.2 -3.95 Q194.1 -10.7 195.85 -14.95 202.15 -19.65 210.6 -22.65 211.35 -22.95 212.15 -23.55 216.75 -27.1 221.55 -22.65 222.85 -21.45 224.85 -20.95 231.2 -16.7 226.95 -8.9 223.75 -3.05 224.85 7.05 M280.9 12.7 Q290.75 14.0 287.2 22.8 286.3 25.05 284.4 26.45 282.85 27.55 281.85 29.05 272.7 31.45 269.4 23.8 268.85 22.55 268.85 21.05 271.7 14.45 279.0 12.75 L280.9 12.7 M171.85 -21.95 L180.75 -19.55 Q186.6 -18.25 183.85 -12.95 177.95 -5.35 180.3 9.95 180.95 13.95 182.85 17.05 187.45 24.5 179.85 28.05 173.7 30.7 171.7 24.05 168.65 13.75 170.0 -0.95 170.95 -11.45 162.85 -7.95 154.6 -2.85 157.3 9.15 157.85 11.55 158.75 13.65 159.35 15.05 160.55 16.35 165.25 21.3 159.85 26.05 153.8 32.5 147.1 25.8 L146.85 25.05 Q143.3 20.7 145.95 14.65 146.85 12.55 146.85 10.05 146.85 1.55 146.3 -6.95 146.15 -9.75 144.25 -11.4 142.4 -13.0 142.85 -16.95 145.55 -21.25 150.2 -23.15 150.85 -23.45 151.35 -22.65 155.4 -16.1 161.7 -17.55 163.35 -17.95 164.4 -19.3 167.65 -23.65 171.85 -21.95 M214.75 27.3 Q213.85 27.05 213.4 27.55 L201.85 41.05 202.0 41.95 Q205.25 49.6 215.85 50.05 220.45 49.65 221.95 46.6 226.8 36.85 219.85 29.05 L214.75 27.3 M202.85 -1.95 L202.75 -1.0 Q200.35 13.05 208.85 16.05 215.0 16.2 215.15 11.05 215.25 5.95 217.0 3.15 L217.35 2.05 Q217.35 -5.45 213.1 -9.25 208.25 -13.55 205.45 -7.65 L202.85 -1.95 M-237.45 -52.2 Q-239.6 -48.95 -242.1 -45.95 -244.3 -31.95 -243.05 -17.85 -241.85 -4.2 -243.3 7.15 -244.1 13.55 -243.65 20.0 -243.15 27.5 -246.1 31.05 -254.4 24.35 -258.05 13.05 -261.7 1.65 -267.25 -7.45 -269.1 -10.45 -270.75 -13.6 L-281.85 -33.55 -282.3 -34.35 Q-282.95 -35.6 -285.1 -34.95 -288.65 -28.8 -286.85 -19.8 -286.1 -15.95 -286.85 -12.1 L-286.8 -9.0 Q-286.25 -4.3 -287.05 0.9 L-287.95 0.7 Q-289.55 0.0 -290.1 -1.95 -291.8 -9.25 -300.1 -9.45 L-300.75 -9.55 Q-304.3 -11.7 -302.1 -14.95 -298.75 -22.6 -292.5 -27.5 -290.65 -29.0 -290.25 -32.85 L-289.9 -35.95 Q-289.35 -41.2 -291.1 -43.95 -296.0 -55.2 -307.45 -47.5 -309.2 -46.3 -309.8 -47.6 -310.8 -49.75 -310.1 -53.95 -306.3 -60.15 -299.8 -63.3 -295.85 -65.2 -291.1 -65.95 -281.9 -63.15 -279.5 -53.1 -278.5 -49.0 -276.8 -45.6 -272.9 -37.65 -269.65 -29.7 -266.25 -21.3 -258.1 -17.95 -255.4 -10.15 -251.35 -3.4 L-250.3 -2.55 Q-250.1 -2.45 -250.1 -1.95 -245.55 -4.95 -246.15 -14.0 L-246.6 -22.95 Q-246.95 -32.1 -247.45 -41.0 -247.95 -51.1 -259.1 -49.95 -266.1 -51.5 -260.75 -56.65 L-256.6 -60.5 Q-250.8 -65.65 -238.1 -63.95 -232.75 -59.35 -237.45 -52.2 M-227.6 -6.95 Q-227.6 -7.45 -227.95 -8.05 -230.1 -11.9 -228.1 -14.95 -226.25 -18.6 -220.1 -18.65 -217.3 -18.65 -215.5 -20.3 -210.25 -25.15 -202.1 -22.95 -196.0 -19.1 -192.7 -12.65 -192.6 -12.45 -192.9 -11.85 L-193.1 -10.95 Q-197.7 -6.1 -196.85 5.1 -196.45 10.4 -194.45 13.65 -193.6 15.05 -193.3 17.05 -192.85 19.75 -194.1 21.05 -201.0 25.65 -210.9 27.9 -211.6 28.05 -212.4 28.6 -214.3 29.85 -217.1 30.05 -226.8 27.7 -231.85 20.85 L-232.1 20.05 Q-228.2 13.4 -227.8 3.05 L-227.6 -6.95 M-186.1 -18.95 L-186.1 -31.95 Q-183.85 -37.75 -180.9 -42.45 -179.05 -45.4 -176.65 -47.55 -174.55 -49.4 -170.1 -48.95 -163.3 -47.1 -170.05 -41.85 -177.05 -36.4 -178.35 -25.85 -178.9 -21.65 -177.1 -18.95 -168.85 -17.4 -162.65 -22.35 -160.4 -24.15 -159.7 -23.85 -156.6 -22.5 -154.65 -20.35 -152.35 -17.75 -150.1 -19.95 -145.2 -24.55 -139.25 -22.6 -133.4 -20.7 -128.1 -17.95 -126.8 -13.95 -129.5 -9.6 L-129.65 -9.05 Q-131.2 2.8 -129.95 13.0 -129.4 17.75 -131.1 20.05 -133.35 22.8 -138.05 23.5 -144.65 24.5 -149.2 27.9 -152.5 30.4 -155.65 27.65 -157.25 26.2 -158.1 24.05 -166.15 24.0 -169.7 28.55 -170.1 29.05 -171.1 29.1 -176.1 29.55 -181.55 25.65 -183.1 24.55 -185.1 24.05 -186.85 17.7 -183.7 11.7 -183.1 10.55 -182.8 9.1 -181.55 3.6 -182.1 -3.95 -183.6 -9.45 -185.3 -14.25 -186.1 -16.45 -186.1 -18.95 M-204.6 -1.0 Q-204.4 -5.65 -206.75 -8.4 -208.1 -9.95 -210.2 -10.25 -218.05 -11.4 -220.1 -5.95 -220.1 -1.95 -219.7 2.0 -219.6 3.05 -219.65 4.0 -220.05 15.0 -213.1 18.05 -206.8 20.2 -205.75 12.1 -204.9 5.75 -204.6 -1.0 M-288.1 4.05 Q-287.25 11.7 -282.1 15.0 -278.4 17.35 -275.0 15.2 -271.35 12.95 -270.1 16.05 -269.85 18.3 -272.4 22.85 -277.0 30.95 -285.95 29.25 L-288.3 28.65 -292.1 28.05 Q-305.15 28.95 -306.9 41.05 -307.7 46.65 -306.1 50.05 -304.2 59.15 -293.1 59.7 -289.9 59.85 -290.5 63.95 -290.85 66.75 -294.1 67.05 -308.6 67.55 -311.85 56.25 -312.1 55.55 -313.1 55.05 L-313.1 40.05 -313.1 39.05 Q-309.65 27.45 -301.8 20.3 -297.9 16.75 -293.5 13.45 -291.3 11.85 -291.05 8.05 -290.8 4.8 -288.1 4.05 M-162.95 -7.75 L-163.45 -9.25 Q-165.4 -13.65 -168.1 -11.9 -172.65 -9.0 -174.1 -2.95 L-174.15 -1.95 Q-176.25 13.2 -168.1 18.05 -161.15 16.5 -161.15 7.05 -161.15 0.5 -162.95 -7.75 M-144.4 -10.7 Q-145.1 -11.45 -145.95 -11.25 -151.15 -10.0 -153.1 -4.95 L-153.2 -3.95 Q-155.4 11.85 -147.1 17.05 L-145.15 16.85 Q-139.9 15.75 -139.5 9.1 -138.6 -4.5 -144.4 -10.7 M-53.8 -34.95 Q-53.35 -43.2 -54.9 -49.0 -55.1 -49.95 -55.35 -50.0 -59.65 -50.95 -59.5 -46.95 -59.4 -41.7 -61.1 -38.95 -59.85 -28.7 -59.55 -16.95 -59.25 -5.55 -60.75 3.95 -61.8 10.75 -57.1 11.05 -54.3 2.35 -53.65 -8.95 L-53.65 -9.9 Q-54.5 -21.6 -53.8 -34.95" fill="#ffffff" fill-rule="evenodd" stroke="none"/>
  </g>
</svg>
