<?xml version="1.0" encoding="UTF-8" standalone="no"?>
<svg xmlns:xlink="http://www.w3.org/1999/xlink" height="134.65px" width="122.15px" xmlns="http://www.w3.org/2000/svg">
  <g transform="matrix(1.0, 0.0, 0.0, 1.0, 61.05, 67.3)">
    <path d="M27.05 -40.9 Q28.6 -52.1 28.2 -63.7 28.15 -64.75 28.85 -65.4 33.85 -69.75 39.35 -64.05 44.5 -58.8 48.2 -52.5 60.2 -32.05 61.05 -8.45 61.3 -0.65 59.25 6.9 51.2 36.75 34.75 63.05 33.95 64.3 32.55 64.6 18.6 67.25 4.5 67.2 -19.7 68.65 -40.1 56.0 L-51.95 48.5 Q-58.4 44.25 -61.05 37.1 L-53.25 36.4 Q-34.35 33.05 -18.1 22.1 -11.5 7.75 2.25 0.25 L10.65 -4.6 Q17.7 -9.15 21.4 -16.7 27.05 -28.15 27.05 -40.9" fill="#ffffff" fill-rule="evenodd" stroke="none"/>
  </g>
</svg>
