<?xml version="1.0" encoding="UTF-8" standalone="no"?>
<svg xmlns:xlink="http://www.w3.org/1999/xlink" height="200.45px" width="249.2px" xmlns="http://www.w3.org/2000/svg">
  <g transform="matrix(1.0, 0.0, 0.0, 1.0, 124.6, 100.2)">
    <path d="M103.6 -99.15 L104.35 -100.15 Q106.35 -100.55 107.25 -98.7 112.4 -87.9 116.3 -76.8 129.9 -38.15 121.15 1.4 116.3 23.35 102.55 41.45 84.95 64.65 76.55 92.4 75.65 95.3 72.5 95.65 56.6 97.1 40.75 93.75 L31.9 93.35 Q10.55 97.1 -10.85 99.5 -37.7 102.25 -63.5 95.2 -77.2 91.4 -88.75 83.45 -116.9 64.15 -124.6 30.8 L-120.0 30.5 Q-118.6 30.85 -117.55 31.7 -106.5 40.15 -93.85 45.75 -85.05 49.55 -75.5 49.6 -47.8 49.7 -23.65 35.8 -0.95 37.95 21.7 35.8 33.65 34.85 42.6 27.25 63.9 9.25 69.35 -18.2 76.8 -24.95 82.75 -33.1 95.7 -50.9 99.55 -72.65 L100.0 -77.6 Q99.9 -88.95 103.6 -99.15" fill="#ffffff" fill-rule="evenodd" stroke="none"/>
  </g>
</svg>
