<?xml version="1.0" encoding="UTF-8" standalone="no"?>
<svg xmlns:xlink="http://www.w3.org/1999/xlink" height="150.6px" width="120.85px" xmlns="http://www.w3.org/2000/svg">
  <g transform="matrix(1.0, 0.0, 0.0, 1.0, 60.45, 75.3)">
    <path d="M-21.65 -70.9 Q-16.25 -76.2 -9.5 -75.1 -5.55 -71.85 -7.8 -67.1 -16.15 -49.55 -14.8 -30.0 -13.15 -6.75 0.75 12.25 9.8 24.6 20.9 35.3 30.5 44.6 42.6 49.85 46.05 51.3 49.7 51.9 57.75 53.0 60.4 60.35 55.8 66.0 49.35 69.05 29.1 78.4 7.15 73.75 -3.0 71.55 -12.5 67.05 -28.4 59.5 -43.0 49.75 -49.5 45.45 -53.1 38.55 -59.4 26.6 -60.25 12.95 -61.65 -8.65 -53.55 -28.75 -45.4 -48.9 -29.4 -63.6 L-21.65 -70.9" fill="#ffffff" fill-rule="evenodd" stroke="none"/>
  </g>
</svg>
