<?xml version="1.0" encoding="UTF-8" standalone="no"?>
<svg xmlns:xlink="http://www.w3.org/1999/xlink" height="95.0px" width="75.0px" xmlns="http://www.w3.org/2000/svg">
  <g transform="matrix(1.0, 0.0, 0.0, 1.0, 43.5, 41.5)">
    <path d="M30.8 -40.75 Q31.5 -40.05 31.5 -39.0 L31.5 39.0 Q31.5 40.05 30.8 40.8 L18.8 52.8 Q18.05 53.5 17.0 53.5 L-41.0 53.5 Q-42.05 53.5 -42.75 52.8 -43.5 52.05 -43.5 51.0 L-43.5 19.0 Q-43.5 17.95 -42.75 17.25 L-42.5 16.95 -42.5 6.05 -42.75 5.8 Q-43.5 5.05 -43.5 4.0 L-43.5 -27.0 Q-43.5 -28.05 -42.75 -28.75 L-40.75 -30.75 Q-40.05 -31.5 -39.0 -31.5 L-37.05 -31.5 -33.5 -35.05 -33.5 -37.0 Q-33.5 -38.05 -32.75 -38.75 L-30.75 -40.75 Q-30.05 -41.5 -29.0 -41.5 L29.0 -41.5 Q30.05 -41.5 30.8 -40.75 M-13.9 -10.5 L-14.95 -9.85 -12.7 -8.35 -13.9 -10.5 M-13.9 10.5 L-13.05 9.05 -13.2 9.15 -14.6 10.1 -13.9 10.5" fill="#000000" fill-rule="evenodd" stroke="none"/>
    <path d="M-36.0 2.0 L-36.0 4.0 -41.0 4.0 -41.0 -27.0 -39.0 -29.0 -39.0 2.0 -36.0 2.0 M-39.0 17.0 L-39.0 49.0 -41.0 51.0 -41.0 19.0 -39.0 17.0" fill="#3c3c3c" fill-rule="evenodd" stroke="none"/>
    <path d="M-39.0 49.0 L19.0 49.0 17.0 51.0 -41.0 51.0 -39.0 49.0" fill="#2e2e2e" fill-rule="evenodd" stroke="none"/>
    <path d="M-39.0 -29.0 L-32.0 -29.0 -32.0 2.0 -36.0 2.0 -39.0 2.0 -39.0 -29.0 M-39.0 49.0 L-39.0 17.0 19.0 17.0 19.0 49.0 -39.0 49.0" fill="#4f4a47" fill-rule="evenodd" stroke="none"/>
    <path d="M-39.0 -15.0 L-39.0 -29.0 -34.0 -29.0 -34.0 -15.0 -39.0 -15.0 M-37.0 35.0 L-37.0 47.0 -25.0 47.0 -25.0 49.0 -39.0 49.0 -39.0 35.0 -37.0 35.0 M19.0 47.0 L19.0 49.0 5.0 49.0 5.0 47.0 19.0 47.0" fill="#72683f" fill-rule="evenodd" stroke="none"/>
    <path d="M24.0 41.0 L25.0 41.0 19.0 47.0 18.0 47.0 24.0 41.0" fill="url(#gradient0)" fill-rule="evenodd" stroke="none"/>
    <path d="M22.0 41.0 L24.0 39.0 24.0 41.0 18.0 47.0 16.0 49.0 16.0 47.0 22.0 41.0" fill="url(#gradient1)" fill-rule="evenodd" stroke="none"/>
    <path d="M-37.0 47.0 L-37.0 -28.0 -31.0 -34.0 -31.0 41.0 -37.0 47.0" fill="url(#gradient2)" fill-rule="evenodd" stroke="none"/>
    <path d="M-31.0 41.0 L22.0 41.0 16.0 47.0 -37.0 47.0 -31.0 41.0" fill="url(#gradient3)" fill-rule="evenodd" stroke="none"/>
    <path d="M-31.0 -34.0 L-31.0 41.0 24.0 41.0 20.0 43.0 -33.0 43.0 -33.0 -32.0 -31.0 -34.0" fill="#000000" fill-opacity="0.2" fill-rule="evenodd" stroke="none"/>
    <path d="M-28.0 7.0 L-28.0 9.0 -29.0 9.0 -37.0 17.0 -39.0 17.0 -40.0 18.0 -40.0 17.0 -30.0 7.0 -28.0 7.0" fill="url(#gradient4)" fill-rule="evenodd" stroke="none"/>
    <path d="M-29.0 8.0 L-29.0 25.0 -31.0 27.0 -31.0 9.0 -29.0 7.0 -29.0 8.0 M-31.0 -6.0 L-31.0 -9.0 -31.0 -23.0 -29.0 -25.0 -29.0 -11.0 -29.0 -8.0 -31.0 -6.0" fill="#2b2b2b" fill-rule="evenodd" stroke="none"/>
    <path d="M-15.0 39.0 L15.0 39.0 13.0 41.0 -17.0 41.0 -15.0 39.0" fill="#2e2e2e" fill-rule="evenodd" stroke="none"/>
    <path d="M-29.0 25.0 L-29.0 39.0 -31.0 41.0 -31.0 27.0 -29.0 25.0 M-31.0 -23.0 L-31.0 -37.0 -29.0 -39.0 -29.0 -25.0 -31.0 -23.0 M-41.0 -27.0 L-39.0 -29.0 -39.0 -15.0 -41.0 -13.0 -41.0 -27.0 M-41.0 51.0 L-41.0 37.0 -39.0 35.0 -39.0 49.0 -41.0 51.0" fill="#5f5436" fill-rule="evenodd" stroke="none"/>
    <path d="M-29.0 39.0 L-15.0 39.0 -17.0 41.0 -31.0 41.0 -29.0 39.0 M15.0 39.0 L29.0 39.0 27.0 41.0 19.0 49.0 17.0 51.0 3.0 51.0 5.0 49.0 16.0 49.0 24.0 41.0 13.0 41.0 15.0 39.0 M-39.0 49.0 L-25.0 49.0 -27.0 51.0 -41.0 51.0 -39.0 49.0" fill="#524934" fill-rule="evenodd" stroke="none"/>
    <path d="M-29.0 -8.0 L-13.9 -8.0 Q-12.9 -9.8 -11.35 -11.35 -6.65 -16.0 0.0 -16.0 6.65 -16.0 11.3 -11.35 16.0 -6.65 16.0 0.0 16.0 6.65 11.3 11.3 L10.35 12.2 Q6.0 16.0 0.0 16.0 -6.0 16.0 -10.35 12.2 L-11.35 11.3 Q-12.9 9.75 -13.9 8.0 L-29.0 8.0 -29.0 7.0 -29.0 -6.0 -31.0 -6.0 -29.0 -8.0" fill="url(#gradient5)" fill-rule="evenodd" stroke="none"/>
    <path d="M-18.2 7.0 L-18.75 7.0 -18.75 -7.0 -18.2 -7.0 -18.2 7.0" fill="#333333" fill-rule="evenodd" stroke="none"/>
    <path d="M-18.2 -7.0 L-13.3 -7.0 Q-12.25 -8.95 -10.6 -10.6 -6.2 -15.0 0.0 -15.0 6.2 -15.0 10.6 -10.6 15.0 -6.2 15.0 0.0 15.0 6.2 10.6 10.6 6.2 15.0 0.0 15.0 -6.2 15.0 -10.6 10.6 -12.25 8.95 -13.3 7.0 L-18.2 7.0 -18.2 -7.0" fill="url(#gradient6)" fill-rule="evenodd" stroke="none"/>
    <path d="M-18.75 7.0 L-30.0 7.0 -40.0 17.0 -40.0 3.0 -30.0 -7.0 -18.75 -7.0 -18.75 7.0" fill="url(#gradient7)" fill-rule="evenodd" stroke="none"/>
    <path d="M0.0 -39.0 L29.0 -39.0 29.0 39.0 0.0 39.0 -29.0 39.0 -29.0 8.0 -13.9 8.0 Q-12.9 9.75 -11.35 11.3 -6.65 16.0 0.0 16.0 6.65 16.0 11.3 11.3 16.0 6.65 16.0 0.0 16.0 -6.65 11.3 -11.35 6.65 -16.0 0.0 -16.0 -6.65 -16.0 -11.35 -11.35 -12.9 -9.8 -13.9 -8.0 L-29.0 -8.0 -29.0 -39.0 0.0 -39.0" fill="url(#gradient8)" fill-rule="evenodd" stroke="none"/>
    <path d="M13.0 -39.0 L13.0 -38.85 10.15 -29.75 10.0 -29.5 9.7 -29.4 6.85 -29.1 4.8 -19.65 6.1 -18.3 6.2 -18.05 6.2 -17.8 2.3 -5.6 2.05 -5.3 1.65 -5.25 1.35 -5.5 1.35 -5.9 5.15 -17.8 3.9 -19.15 3.8 -19.35 3.75 -19.6 5.9 -29.65 6.05 -29.9 6.35 -30.05 9.3 -30.35 12.0 -39.0 13.0 -39.0 M23.25 10.15 L23.0 10.2 22.75 10.15 12.35 5.8 12.2 5.7 12.1 5.5 11.65 4.05 5.6 2.3 5.3 2.05 5.3 1.65 5.55 1.35 5.9 1.35 12.2 3.2 12.4 3.3 12.55 3.5 13.0 5.0 22.9 9.15 25.55 7.35 25.75 7.25 25.95 7.3 29.15 8.25 29.15 9.2 28.85 9.2 25.9 8.3 23.25 10.15 M6.0 -0.85 L5.6 -0.9 5.4 -1.2 5.45 -1.6 Q5.55 -1.8 5.75 -1.8 L22.05 -5.85 22.4 -5.85 24.25 -4.85 28.9 -5.75 29.15 -5.7 29.15 -4.75 29.1 -4.75 24.25 -3.85 23.9 -3.9 22.05 -4.85 6.0 -0.85 M5.65 -0.3 L6.0 -0.45 18.25 -0.45 19.75 -2.05 20.05 -2.2 28.95 -3.15 29.15 -3.1 29.15 -2.15 29.05 -2.15 20.35 -1.2 18.9 0.4 18.7 0.5 18.5 0.55 6.0 0.55 5.65 0.4 5.5 0.05 5.65 -0.3 M4.85 -2.7 Q4.7 -2.9 4.8 -3.05 L5.0 -3.35 11.25 -7.05 11.55 -7.15 11.85 -7.0 13.15 -5.7 18.2 -7.7 18.3 -10.85 18.4 -11.1 18.55 -11.25 28.75 -17.25 29.15 -17.3 29.15 -16.35 19.3 -10.55 19.15 -7.3 19.05 -7.05 18.85 -6.85 13.25 -4.65 12.95 -4.65 12.7 -4.8 11.45 -6.0 5.5 -2.5 5.15 -2.45 4.85 -2.7 M2.1 -24.7 L2.2 -24.35 0.9 -5.95 0.75 -5.6 0.4 -5.5 Q0.15 -5.5 0.05 -5.65 L-0.1 -6.0 1.2 -24.2 -1.65 -27.5 -1.8 -27.8 -2.3 -38.9 -2.3 -39.0 -1.3 -39.0 -0.8 -28.05 2.1 -24.7 M19.0 -31.75 Q19.1 -31.95 19.3 -32.0 L19.7 -31.9 19.9 -31.6 19.85 -31.2 16.3 -25.55 16.1 -25.4 15.85 -25.35 12.4 -25.35 10.35 -20.95 11.3 -17.75 11.3 -17.5 11.25 -17.3 6.0 -8.8 6.35 -7.4 6.35 -7.2 6.25 -6.95 5.2 -5.6 20.05 -19.75 20.3 -19.85 20.55 -19.85 23.25 -19.3 28.65 -24.45 29.05 -24.6 29.15 -24.55 29.15 -23.5 23.75 -18.35 23.55 -18.25 23.3 -18.25 20.6 -18.85 4.7 -3.75 4.35 -3.65 Q4.1 -3.65 4.0 -3.8 3.85 -3.95 3.85 -4.15 L3.85 -4.2 3.8 -4.2 3.45 -4.3 3.25 -4.65 3.35 -5.0 5.3 -7.45 5.0 -8.75 5.05 -9.15 10.25 -17.65 9.35 -20.85 9.35 -21.2 11.6 -26.05 11.8 -26.25 12.05 -26.35 15.6 -26.35 19.0 -31.75 M29.15 20.75 L29.1 20.75 28.75 20.7 14.05 10.95 11.8 11.1 11.6 11.1 11.4 11.0 7.8 7.7 7.7 7.45 7.7 7.15 8.0 6.2 4.7 3.9 4.45 3.6 4.55 3.25 4.85 3.0 5.25 3.1 8.85 5.6 9.05 5.85 9.05 6.15 8.75 7.15 11.95 10.1 14.15 9.9 14.5 10.0 29.15 19.75 29.15 20.75 M22.6 27.2 L22.65 27.15 22.6 27.2 M0.25 5.65 L0.4 6.0 0.1 18.15 1.3 18.5 1.55 18.65 1.65 18.95 2.25 28.55 2.2 28.8 1.95 29.0 -0.15 30.0 -0.35 38.85 -1.35 38.85 -1.15 29.65 -1.05 29.4 -0.85 29.2 1.25 28.25 0.7 19.35 -0.5 19.0 -0.8 18.8 -0.9 18.5 -0.6 6.0 -0.45 5.65 -0.1 5.5 Q0.1 5.5 0.25 5.65 M1.0 6.0 L1.05 5.6 Q1.15 5.4 1.35 5.4 L1.7 5.45 1.95 5.75 6.35 22.55 6.35 22.8 6.2 23.0 4.5 24.7 5.35 29.95 8.15 30.55 8.4 30.7 8.55 30.95 10.65 38.85 9.6 38.85 7.65 31.5 4.8 30.85 4.55 30.7 4.4 30.45 3.45 24.65 3.5 24.4 3.6 24.2 5.3 22.5 1.0 6.0 M2.2 5.7 L2.2 5.3 2.45 5.0 2.8 5.0 3.1 5.25 11.9 22.75 13.5 22.45 13.8 22.5 14.0 22.7 19.95 33.55 20.0 33.95 19.75 34.25 19.35 34.3 19.05 34.05 13.3 23.55 11.7 23.8 11.4 23.75 11.15 23.55 2.2 5.7 M24.05 23.55 L24.2 23.8 24.2 24.05 23.2 27.65 24.25 29.25 24.3 29.6 24.1 29.95 23.7 30.0 23.4 29.8 22.2 28.0 22.1 27.65 22.2 27.4 23.15 24.05 16.45 17.3 14.05 17.65 13.8 17.65 13.6 17.5 3.4 5.05 3.25 4.65 3.45 4.35 Q3.6 4.2 3.8 4.2 4.0 4.2 4.15 4.4 L14.15 16.6 16.55 16.25 16.75 16.3 16.95 16.4 24.05 23.55 M-6.9 -39.0 L-6.05 -34.45 -6.05 -34.15 -6.2 -33.95 -8.2 -32.25 -5.15 -20.8 -3.6 -20.15 -3.4 -20.0 -3.3 -19.8 -0.65 -6.0 Q-0.6 -5.8 -0.7 -5.6 L-1.05 -5.4 -1.4 -5.45 -1.65 -5.8 -4.25 -19.35 -5.8 -20.0 -5.95 -20.1 -6.05 -20.3 -9.2 -32.3 -9.2 -32.6 -9.05 -32.8 -7.1 -34.5 -7.95 -38.9 -7.95 -39.0 -6.9 -39.0 M-5.45 1.55 L-5.2 1.85 -5.25 2.25 -5.5 2.5 -18.2 6.85 -18.2 5.8 -5.85 1.55 -5.45 1.55 M-1.8 5.45 L-1.4 5.4 -1.1 5.6 -1.05 6.0 -2.3 10.95 -2.45 11.2 -2.75 11.3 -3.55 11.4 -13.5 38.85 -14.55 38.85 -4.4 10.75 -4.25 10.5 -4.0 10.4 -3.2 10.35 -2.0 5.75 -1.8 5.45 M-2.9 4.75 Q-2.7 4.85 -2.65 5.05 L-2.7 5.4 -3.65 6.9 -3.55 8.35 -3.6 8.6 -9.1 19.65 -9.25 19.85 -9.55 19.9 -11.3 19.9 -19.4 33.6 -19.7 33.85 -20.1 33.8 -20.3 33.5 -20.25 33.1 -12.0 19.15 -11.85 19.0 -11.6 18.9 -9.85 18.9 -4.55 8.25 -4.65 6.85 -4.55 6.55 -3.55 4.9 Q-3.45 4.75 -3.25 4.7 L-2.9 4.75 M-4.5 4.0 L-4.15 3.85 Q-3.95 3.85 -3.8 4.0 -3.65 4.1 -3.65 4.35 L-3.75 4.7 -18.25 20.0 -18.5 20.15 -18.75 20.15 -22.2 19.45 -28.7 24.25 -29.0 24.35 -29.0 23.25 -22.6 18.5 -22.4 18.4 -22.2 18.4 -18.8 19.1 -4.5 4.0 M-5.0 2.65 L-4.65 2.9 Q-4.55 3.05 -4.6 3.25 L-4.8 3.6 -9.65 6.6 -9.65 7.55 -9.7 7.8 -9.85 7.95 -15.5 12.1 -15.7 12.2 -15.9 12.2 -18.0 11.75 -24.55 15.95 -24.75 16.0 -24.95 16.0 -27.95 15.25 -28.8 15.6 -29.0 15.6 -29.0 14.55 -28.15 14.25 -27.85 14.25 -24.95 15.0 -18.35 10.8 -18.0 10.7 -15.9 11.15 -10.65 7.3 -10.65 6.3 -10.6 6.05 -10.4 5.9 -5.35 2.75 -5.0 2.65 M-12.45 -0.45 L-12.2 -0.35 -12.0 -0.1 -11.7 0.75 -6.0 0.15 -5.6 0.3 -5.45 0.6 -5.55 1.0 -5.9 1.15 -12.0 1.8 -12.3 1.75 -12.5 1.5 -12.85 0.55 -18.2 0.45 -18.2 -0.55 -12.45 -0.45 M-18.2 -3.35 L-18.2 -4.4 -10.3 -2.8 -10.05 -2.65 -9.9 -2.4 -9.75 -1.9 -5.85 -1.35 -5.55 -1.15 -5.45 -0.75 -5.65 -0.45 -6.0 -0.35 -10.2 -0.95 -10.45 -1.05 -10.6 -1.3 -10.75 -1.85 -18.2 -3.35 M-29.0 -12.9 L-29.0 -13.95 -28.8 -13.9 -5.25 -2.95 -4.95 -2.65 Q-4.9 -2.5 -5.0 -2.3 L-5.25 -2.0 -5.65 -2.05 -29.0 -12.9 M-26.05 -22.1 L-26.0 -22.15 -26.05 -22.1 M-25.8 -22.55 L-25.5 -22.65 Q-25.35 -22.65 -25.15 -22.5 L-17.45 -15.8 -17.3 -15.45 -17.15 -14.05 -4.45 -4.05 -4.25 -3.7 -4.35 -3.35 -4.7 -3.15 -5.05 -3.25 -17.95 -13.4 -18.1 -13.55 -18.15 -13.75 -18.25 -15.2 -25.6 -21.55 -27.4 -21.15 -27.65 -21.15 -27.85 -21.25 -29.0 -22.1 -29.0 -23.25 -28.7 -23.15 -27.4 -22.15 -25.8 -22.55 M-26.5 -27.4 L-26.65 -27.75 -26.5 -28.1 -26.15 -28.25 -25.8 -28.1 -20.15 -22.1 -18.8 -22.6 -18.5 -22.6 -18.25 -22.45 -3.5 -4.85 -3.4 -4.5 Q-3.4 -4.3 -3.55 -4.15 L-3.95 -4.05 Q-4.15 -4.05 -4.25 -4.2 L-18.8 -21.55 -20.1 -21.05 -20.4 -21.05 -20.65 -21.2 -26.5 -27.4 M-16.65 -37.95 L-16.4 -38.25 -16.0 -38.25 -15.75 -38.0 -8.8 -21.75 Q-8.7 -21.55 -8.75 -21.35 L-9.35 -19.7 -2.25 -5.55 -2.2 -5.2 -2.45 -4.9 -2.85 -4.85 -3.15 -5.1 -10.35 -19.45 -10.4 -19.65 -10.35 -19.85 -9.75 -21.55 -16.65 -37.6 -16.65 -37.95" fill="url(#gradient9)" fill-rule="evenodd" stroke="none"/>
    <path d="M3.5 -3.55 Q2.05 -5.0 0.0 -5.0 -2.05 -5.0 -3.55 -3.55 -5.0 -2.05 -5.0 0.0 -5.0 2.05 -3.55 3.5 -2.05 5.0 0.0 5.0 2.05 5.0 3.5 3.5 5.0 2.05 5.0 0.0 5.0 -2.05 3.5 -3.55 M4.25 -4.25 Q6.0 -2.5 6.0 0.0 6.0 2.5 4.25 4.25 2.5 6.0 0.0 6.0 -2.5 6.0 -4.25 4.25 -6.0 2.5 -6.0 0.0 -6.0 -2.5 -4.25 -4.25 -2.5 -6.0 0.0 -6.0 2.5 -6.0 4.25 -4.25" fill="url(#gradient10)" fill-rule="evenodd" stroke="none"/>
    <path d="M2.8 -2.85 Q4.0 -1.65 4.0 0.0 4.0 1.65 2.8 2.8 1.65 4.0 0.0 4.0 -1.65 4.0 -2.85 2.8 -4.0 1.65 -4.0 0.0 -4.0 -1.65 -2.85 -2.85 -1.65 -4.0 0.0 -4.0 1.65 -4.0 2.8 -2.85" fill="#000000" fill-rule="evenodd" stroke="none"/>
    <path d="M2.1 -2.15 Q3.0 -1.25 3.0 0.0 3.0 1.25 2.1 2.1 1.25 3.0 0.0 3.0 -1.25 3.0 -2.15 2.1 -3.0 1.25 -3.0 0.0 -3.0 -1.25 -2.15 -2.15 -1.25 -3.0 0.0 -3.0 1.25 -3.0 2.1 -2.15" fill="url(#gradient11)" fill-rule="evenodd" stroke="none"/>
    <path d="M1.3 -1.4 L1.6 -0.7 1.3 0.0 Q1.0 0.3 0.6 0.3 L-0.1 0.0 -0.4 -0.7 -0.1 -1.4 0.6 -1.7 Q1.0 -1.7 1.3 -1.4" fill="url(#gradient12)" fill-rule="evenodd" stroke="none"/>
    <path d="M-28.0 -5.0 L-28.0 5.0 -30.0 5.0 -31.0 6.0 -31.0 -4.0 -30.0 -5.0 -28.0 -5.0 M-21.0 -6.0 L-19.0 -6.0 -19.0 -5.0 -21.0 -5.0 -21.0 -6.0 M-19.0 6.0 L-21.0 6.0 -21.0 5.0 -19.0 5.0 -19.0 6.0 M-39.0 4.0 L-39.0 14.0 -40.0 15.0 -40.0 5.0 -39.0 4.0" fill="#000000" fill-rule="evenodd" stroke="none"/>
    <path d="M-30.0 -2.0 L-28.0 -2.0 -28.0 -1.5 -30.0 -1.5 -30.0 -2.0 M-28.0 2.0 L-30.0 2.0 -30.0 1.45 -28.0 1.45 -28.0 2.0" fill="#585858" fill-rule="evenodd" stroke="none"/>
    <path d="M-28.0 -2.0 L-30.0 -2.0 -30.0 -4.0 -28.0 -4.0 -28.0 -2.0 M-30.0 -1.5 L-28.0 -1.5 -28.0 1.45 -30.0 1.45 -30.0 -1.5 M-30.0 2.0 L-28.0 2.0 -28.0 4.0 -30.0 4.0 -30.0 2.0" fill="url(#gradient13)" fill-rule="evenodd" stroke="none"/>
    <path d="M28.65 24.65 Q28.8 24.5 29.0 24.5 L29.0 25.7 24.35 30.35 24.0 30.5 20.5 30.5 20.5 34.0 20.35 34.35 15.7 39.0 14.5 39.0 14.65 38.65 19.5 33.8 19.5 30.0 19.65 29.65 20.0 29.5 23.8 29.5 28.65 24.65 M20.5 -34.0 L20.5 -30.5 24.0 -30.5 24.35 -30.35 29.0 -25.7 29.0 -24.5 Q28.8 -24.5 28.65 -24.65 L23.8 -29.5 20.0 -29.5 19.65 -29.65 19.5 -30.0 19.5 -33.8 14.65 -38.65 14.5 -39.0 15.7 -39.0 20.35 -34.35 20.5 -34.0 M-14.5 -39.0 L-14.65 -38.65 -19.5 -33.8 -19.5 -30.0 -19.65 -29.65 -20.0 -29.5 -23.8 -29.5 -28.65 -24.65 Q-28.8 -24.5 -29.0 -24.5 L-29.0 -25.7 -24.35 -30.35 -24.0 -30.5 -20.5 -30.5 -20.5 -34.0 -20.35 -34.35 -15.7 -39.0 -14.5 -39.0 M-29.0 24.5 Q-28.8 24.5 -28.65 24.65 L-23.8 29.5 -20.0 29.5 -19.65 29.65 -19.5 30.0 -19.5 33.8 -14.65 38.65 -14.5 39.0 -15.7 39.0 -20.35 34.35 -20.5 34.0 -20.5 30.5 -24.0 30.5 -24.35 30.35 -29.0 25.7 -29.0 24.5" fill="#000000" fill-opacity="0.7019608" fill-rule="evenodd" stroke="none"/>
    <path d="M20.0 34.0 L20.0 30.0 24.0 30.0 29.0 25.0 29.0 39.0 15.0 39.0 20.0 34.0" fill="url(#gradient14)" fill-rule="evenodd" stroke="none"/>
    <path d="M-29.0 39.0 L-29.0 25.0 -24.0 30.0 -20.0 30.0 -20.0 34.0 -15.0 39.0 -29.0 39.0" fill="url(#gradient15)" fill-rule="evenodd" stroke="none"/>
    <path d="M29.0 -25.0 L24.0 -30.0 20.0 -30.0 20.0 -34.0 15.0 -39.0 29.0 -39.0 29.0 -25.0 M-20.0 -34.0 L-20.0 -30.0 -24.0 -30.0 -29.0 -25.0 -29.0 -39.0 -15.0 -39.0 -20.0 -34.0" fill="url(#gradient16)" fill-rule="evenodd" stroke="none"/>
    <path d="M-24.0 -35.0 L-24.0 -34.0 -25.0 -34.0 -25.0 -35.0 -24.0 -35.0 M-23.0 -31.0 L-23.0 -33.0 -21.0 -33.0 -21.0 -31.0 -23.0 -31.0 M-24.0 -31.0 L-25.0 -31.0 -27.0 -29.0 -27.0 -37.0 -19.0 -37.0 -21.0 -35.0 -21.0 -34.0 -23.0 -34.0 -23.0 -36.0 -26.0 -36.0 -26.0 -33.0 -24.0 -33.0 -24.0 -31.0" fill="url(#gradient17)" fill-rule="evenodd" stroke="none"/>
    <path d="M24.0 -35.0 L25.0 -35.0 25.0 -34.0 24.0 -34.0 24.0 -35.0 M26.0 -33.0 L26.0 -36.0 23.0 -36.0 23.0 -34.0 21.0 -34.0 21.0 -35.0 19.0 -37.0 27.0 -37.0 27.0 -29.0 25.0 -31.0 24.0 -31.0 24.0 -33.0 26.0 -33.0 M21.0 -33.0 L23.0 -33.0 23.0 -31.0 21.0 -31.0 21.0 -33.0" fill="url(#gradient18)" fill-rule="evenodd" stroke="none"/>
    <path d="M-26.0 33.0 L-26.0 36.0 -23.0 36.0 -23.0 34.0 -21.0 34.0 -21.0 35.0 -19.0 37.0 -27.0 37.0 -27.0 29.0 -25.0 31.0 -24.0 31.0 -24.0 33.0 -26.0 33.0 M-21.0 33.0 L-23.0 33.0 -23.0 31.0 -21.0 31.0 -21.0 33.0 M-25.0 34.0 L-24.0 34.0 -24.0 35.0 -25.0 35.0 -25.0 34.0" fill="url(#gradient19)" fill-rule="evenodd" stroke="none"/>
    <path d="M23.0 31.0 L23.0 33.0 21.0 33.0 21.0 31.0 23.0 31.0 M25.0 31.0 L27.0 29.0 27.0 37.0 19.0 37.0 21.0 35.0 21.0 34.0 23.0 34.0 23.0 36.0 26.0 36.0 26.0 33.0 24.0 33.0 24.0 31.0 25.0 31.0 M25.0 34.0 L25.0 35.0 24.0 35.0 24.0 34.0 25.0 34.0" fill="url(#gradient20)" fill-rule="evenodd" stroke="none"/>
  </g>
  <defs>
    <linearGradient gradientTransform="matrix(0.0, -0.0039, 0.0027, 0.0, -5.5, 44.0)" gradientUnits="userSpaceOnUse" id="gradient0" spreadMethod="pad" x1="-819.2" x2="819.2">
      <stop offset="0.09803921568627451" stop-color="#8d8d8d"/>
      <stop offset="0.8313725490196079" stop-color="#7b7b7b"/>
    </linearGradient>
    <linearGradient gradientTransform="matrix(0.0049, 0.0, 0.0, 0.0061, 20.0, 44.0)" gradientUnits="userSpaceOnUse" id="gradient1" spreadMethod="pad" x1="-819.2" x2="819.2">
      <stop offset="0.0" stop-color="#595033"/>
      <stop offset="1.0" stop-color="#72683f"/>
    </linearGradient>
    <linearGradient gradientTransform="matrix(0.0037, 0.0, 0.0, 0.0497, -34.0, 3.5)" gradientUnits="userSpaceOnUse" id="gradient2" spreadMethod="pad" x1="-819.2" x2="819.2">
      <stop offset="0.0" stop-color="#cdc2a3"/>
      <stop offset="1.0" stop-color="#8d8669"/>
    </linearGradient>
    <linearGradient gradientTransform="matrix(0.0, -0.0039, 0.0027, 0.0, -5.5, 44.0)" gradientUnits="userSpaceOnUse" id="gradient3" spreadMethod="pad" x1="-819.2" x2="819.2">
      <stop offset="0.0" stop-color="#a8a373"/>
      <stop offset="1.0" stop-color="#a29264"/>
    </linearGradient>
    <linearGradient gradientTransform="matrix(0.0082, -0.0048, 0.0034, 0.0058, -34.2, 12.85)" gradientUnits="userSpaceOnUse" id="gradient4" spreadMethod="pad" x1="-819.2" x2="819.2">
      <stop offset="0.09019607843137255" stop-color="#313131"/>
      <stop offset="1.0" stop-color="#4e4e4e"/>
    </linearGradient>
    <linearGradient gradientTransform="matrix(-0.004, 0.0181, -0.019, -0.0042, -7.1, 0.2)" gradientUnits="userSpaceOnUse" id="gradient5" spreadMethod="pad" x1="-819.2" x2="819.2">
      <stop offset="0.0" stop-color="#161514"/>
      <stop offset="1.0" stop-color="#706a65"/>
    </linearGradient>
    <linearGradient gradientTransform="matrix(0.0192, -0.0094, 0.008, 0.0164, -1.6, 0.0)" gradientUnits="userSpaceOnUse" id="gradient6" spreadMethod="pad" x1="-819.2" x2="819.2">
      <stop offset="0.0392156862745098" stop-color="#7b7060"/>
      <stop offset="1.0" stop-color="#515151"/>
    </linearGradient>
    <linearGradient gradientTransform="matrix(0.013, 0.0, 0.0, 0.0146, -29.4, 5.0)" gradientUnits="userSpaceOnUse" id="gradient7" spreadMethod="pad" x1="-819.2" x2="819.2">
      <stop offset="0.0" stop-color="#827668"/>
      <stop offset="0.39215686274509803" stop-color="#494536"/>
      <stop offset="0.48627450980392156" stop-color="#9e9183"/>
      <stop offset="0.8196078431372549" stop-color="#7b7060"/>
    </linearGradient>
    <linearGradient gradientTransform="matrix(0.0463, -0.0356, 0.029, 0.0378, -0.5, 0.05)" gradientUnits="userSpaceOnUse" id="gradient8" spreadMethod="pad" x1="-819.2" x2="819.2">
      <stop offset="0.0" stop-color="#2b2b2b"/>
      <stop offset="1.0" stop-color="#665e59"/>
    </linearGradient>
    <radialGradient cx="0" cy="0" gradientTransform="matrix(0.0507, 0.0, 0.0, 0.0507, -0.1, 0.0)" gradientUnits="userSpaceOnUse" id="gradient9" r="819.2" spreadMethod="pad">
      <stop offset="0.1450980392156863" stop-color="#ddc44d" stop-opacity="0.0"/>
      <stop offset="0.2627450980392157" stop-color="#ddc44d"/>
      <stop offset="1.0" stop-color="#615210"/>
    </radialGradient>
    <linearGradient gradientTransform="matrix(0.0037, -0.0063, 0.0063, 0.0037, 0.0, 0.0)" gradientUnits="userSpaceOnUse" id="gradient10" spreadMethod="pad" x1="-819.2" x2="819.2">
      <stop offset="0.058823529411764705" stop-color="#b1a9a3"/>
      <stop offset="0.34509803921568627" stop-color="#706a60"/>
      <stop offset="0.8" stop-color="#27261f"/>
    </linearGradient>
    <radialGradient cx="0" cy="0" gradientTransform="matrix(0.0038, 0.0, 0.0, 0.0038, -0.35, 0.7)" gradientUnits="userSpaceOnUse" id="gradient11" r="819.2" spreadMethod="pad">
      <stop offset="0.24705882352941178" stop-color="#8c0000"/>
      <stop offset="0.5647058823529412" stop-color="#c92121"/>
      <stop offset="0.788235294117647" stop-color="#f01c1c"/>
    </radialGradient>
    <radialGradient cx="0" cy="0" gradientTransform="matrix(0.0016, 0.0, 0.0, 0.0016, 0.6, -0.7)" gradientUnits="userSpaceOnUse" id="gradient12" r="819.2" spreadMethod="pad">
      <stop offset="0.4392156862745098" stop-color="#ffffff"/>
      <stop offset="0.8392156862745098" stop-color="#ffffff" stop-opacity="0.0"/>
    </radialGradient>
    <linearGradient gradientTransform="matrix(0.0012, 0.0, 0.0, 0.0054, -29.0, 0.4)" gradientUnits="userSpaceOnUse" id="gradient13" spreadMethod="pad" x1="-819.2" x2="819.2">
      <stop offset="0.0" stop-color="#786b5c"/>
      <stop offset="0.396078431372549" stop-color="#aca399"/>
      <stop offset="0.592156862745098" stop-color="#aca399"/>
      <stop offset="1.0" stop-color="#786b5c"/>
    </linearGradient>
    <linearGradient gradientTransform="matrix(0.0067, -0.0116, 0.0074, 0.0043, -8.15, 14.45)" gradientUnits="userSpaceOnUse" id="gradient14" spreadMethod="pad" x1="-819.2" x2="819.2">
      <stop offset="0.0" stop-color="#72683f"/>
      <stop offset="0.47058823529411764" stop-color="#9b8646"/>
      <stop offset="0.8745098039215686" stop-color="#c5b56b"/>
    </linearGradient>
    <linearGradient gradientTransform="matrix(0.0074, -0.0128, 0.0074, 0.0043, -17.6, 37.1)" gradientUnits="userSpaceOnUse" id="gradient15" spreadMethod="pad" x1="-819.2" x2="819.2">
      <stop offset="0.0" stop-color="#72683f"/>
      <stop offset="0.4627450980392157" stop-color="#9b8646"/>
      <stop offset="0.8745098039215686" stop-color="#c5b56b"/>
    </linearGradient>
    <linearGradient gradientTransform="matrix(0.0073, -0.0127, 0.0074, 0.0043, -5.5, -24.4)" gradientUnits="userSpaceOnUse" id="gradient16" spreadMethod="pad" x1="-819.2" x2="819.2">
      <stop offset="0.0" stop-color="#72683f"/>
      <stop offset="0.4666666666666667" stop-color="#9b8646"/>
      <stop offset="0.8745098039215686" stop-color="#c5b56b"/>
    </linearGradient>
    <linearGradient gradientTransform="matrix(0.0012, 0.0, 0.0, 0.0012, -20.0, -36.0)" gradientUnits="userSpaceOnUse" id="gradient17" spreadMethod="pad" x1="-819.2" x2="819.2">
      <stop offset="0.09019607843137255" stop-color="#313131"/>
      <stop offset="1.0" stop-color="#4e4e4e"/>
    </linearGradient>
    <linearGradient gradientTransform="matrix(-0.0012, 0.0, 0.0, 0.0012, 20.0, -36.0)" gradientUnits="userSpaceOnUse" id="gradient18" spreadMethod="pad" x1="-819.2" x2="819.2">
      <stop offset="0.09019607843137255" stop-color="#313131"/>
      <stop offset="1.0" stop-color="#4e4e4e"/>
    </linearGradient>
    <linearGradient gradientTransform="matrix(0.0012, 0.0, 0.0, -0.0012, -20.0, 36.0)" gradientUnits="userSpaceOnUse" id="gradient19" spreadMethod="pad" x1="-819.2" x2="819.2">
      <stop offset="0.09019607843137255" stop-color="#313131"/>
      <stop offset="1.0" stop-color="#4e4e4e"/>
    </linearGradient>
    <linearGradient gradientTransform="matrix(-0.0012, 0.0, 0.0, -0.0012, 20.0, 36.0)" gradientUnits="userSpaceOnUse" id="gradient20" spreadMethod="pad" x1="-819.2" x2="819.2">
      <stop offset="0.09019607843137255" stop-color="#313131"/>
      <stop offset="1.0" stop-color="#4e4e4e"/>
    </linearGradient>
  </defs>
</svg>
