<?xml version="1.0" encoding="UTF-8" standalone="no"?>
<svg xmlns:xlink="http://www.w3.org/1999/xlink" height="744.95px" width="579.2px" xmlns="http://www.w3.org/2000/svg">
  <g transform="matrix(1.0, 0.0, 0.0, 1.0, 184.3, 8.4)">
    <path d="M279.7 -0.4 Q269.25 16.4 259.75 38.95 235.0 97.65 235.0 149.0 235.0 230.05 258.75 279.05 266.05 294.2 275.45 305.6 266.0 352.3 266.0 397.5 266.0 443.95 278.0 499.1 290.05 554.5 311.45 605.7 333.95 659.7 362.4 698.1 378.3 719.5 394.9 734.5 354.25 737.75 98.35 735.9 -68.95 734.65 -176.5 733.0 -177.5 719.15 -181.35 366.85 -185.2 10.7 -184.0 -8.0 -169.1 -8.85 57.35 -7.95 281.95 -7.15 284.3 -7.35 L279.7 -0.4" fill="url(#gradient0)" fill-rule="evenodd" stroke="none"/>
  </g>
  <defs>
    <linearGradient gradientTransform="matrix(2.0E-4, -0.3473, 0.3381, 2.0E-4, 289.55, 436.5)" gradientUnits="userSpaceOnUse" id="gradient0" spreadMethod="pad" x1="-819.2" x2="819.2">
      <stop offset="0.0" stop-color="#6b10af"/>
      <stop offset="0.39215686274509803" stop-color="#2e105a"/>
      <stop offset="0.8156862745098039" stop-color="#030204"/>
      <stop offset="1.0" stop-color="#000000"/>
    </linearGradient>
  </defs>
</svg>
