<?xml version="1.0" encoding="UTF-8" standalone="no"?>
<svg xmlns:xlink="http://www.w3.org/1999/xlink" height="962.1px" width="962.1px" xmlns="http://www.w3.org/2000/svg">
  <g transform="matrix(1.0, 0.0, 0.0, 1.0, 481.1, 480.65)">
    <path d="M3.2 -3.25 Q5.75 -0.75 16.0 0.0 5.65 0.7 3.2 3.15 0.8 5.6 0.0 16.0 -0.8 5.65 -3.3 3.2 -5.75 0.75 -16.0 0.0 -5.75 -0.85 -3.3 -3.35 -0.85 -5.85 0.0 -16.0 0.75 -5.7 3.2 -3.25" fill="url(#gradient0)" fill-rule="evenodd" stroke="none"/>
    <path d="M377.0 -9.0 L426.65 -6.3 Q471.25 -3.35 481.0 0.0 465.95 5.25 377.0 10.0 364.0 10.7 244.45 7.35 115.15 3.7 92.0 0.0 115.1 -3.65 244.35 -6.85 364.4 -9.8 377.0 -9.0" fill="url(#gradient1)" fill-rule="evenodd" stroke="none"/>
    <path d="M-426.75 -6.35 L-377.1 -9.05 Q-364.5 -9.9 -244.45 -6.9 -115.2 -3.7 -92.1 -0.05 -115.25 3.65 -244.55 7.3 -364.1 10.7 -377.1 9.95 -466.05 5.2 -481.1 -0.05 -471.35 -3.4 -426.75 -6.35" fill="url(#gradient2)" fill-rule="evenodd" stroke="none"/>
    <path d="M6.7 -426.3 L9.4 -376.65 Q10.25 -364.05 7.25 -244.0 4.05 -114.75 0.4 -91.65 -3.3 -114.8 -6.95 -244.1 -10.35 -363.65 -9.6 -376.65 -4.85 -465.6 0.4 -480.65 3.75 -470.9 6.7 -426.3" fill="url(#gradient3)" fill-rule="evenodd" stroke="none"/>
    <path d="M7.2 244.8 Q10.15 364.85 9.35 377.45 L6.65 427.1 Q3.7 471.7 0.35 481.45 -4.9 466.4 -9.65 377.45 -10.35 364.45 -7.0 244.9 -3.35 115.6 0.35 92.45 4.0 115.55 7.2 244.8" fill="url(#gradient4)" fill-rule="evenodd" stroke="none"/>
  </g>
  <defs>
    <radialGradient cx="0" cy="0" gradientTransform="matrix(0.0197, 0.0, 0.0, 0.0197, 0.0, 0.0)" gradientUnits="userSpaceOnUse" id="gradient0" r="819.2" spreadMethod="pad">
      <stop offset="0.5333333333333333" stop-color="#fffaea"/>
      <stop offset="0.796078431372549" stop-color="#fff5db"/>
      <stop offset="0.9529411764705882" stop-color="#feecb8"/>
    </radialGradient>
    <radialGradient cx="0" cy="0" gradientTransform="matrix(0.2421, 0.0, 0.0, 0.2421, 286.5, 0.5)" gradientUnits="userSpaceOnUse" id="gradient1" r="819.2" spreadMethod="pad">
      <stop offset="0.5333333333333333" stop-color="#fffaea"/>
      <stop offset="0.796078431372549" stop-color="#fff5db"/>
      <stop offset="0.9529411764705882" stop-color="#feecb8"/>
    </radialGradient>
    <radialGradient cx="0" cy="0" gradientTransform="matrix(-0.2421, 0.0, 0.0, 0.2428, -286.6, 0.45)" gradientUnits="userSpaceOnUse" id="gradient2" r="819.2" spreadMethod="pad">
      <stop offset="0.5333333333333333" stop-color="#fffaea"/>
      <stop offset="0.796078431372549" stop-color="#fff5db"/>
      <stop offset="0.9529411764705882" stop-color="#feecb8"/>
    </radialGradient>
    <radialGradient cx="0" cy="0" gradientTransform="matrix(0.0, -0.2421, -0.2428, 0.0, -0.1, -286.15)" gradientUnits="userSpaceOnUse" id="gradient3" r="819.2" spreadMethod="pad">
      <stop offset="0.5333333333333333" stop-color="#fffaea"/>
      <stop offset="0.796078431372549" stop-color="#fff5db"/>
      <stop offset="0.9529411764705882" stop-color="#feecb8"/>
    </radialGradient>
    <radialGradient cx="0" cy="0" gradientTransform="matrix(0.0, 0.2421, -0.2421, 0.0, -0.15, 286.95)" gradientUnits="userSpaceOnUse" id="gradient4" r="819.2" spreadMethod="pad">
      <stop offset="0.5333333333333333" stop-color="#fffaea"/>
      <stop offset="0.796078431372549" stop-color="#fff5db"/>
      <stop offset="0.9529411764705882" stop-color="#feecb8"/>
    </radialGradient>
  </defs>
</svg>
