<?xml version="1.0" encoding="UTF-8" standalone="no"?>
<svg xmlns:xlink="http://www.w3.org/1999/xlink" height="36.25px" width="91.0px" xmlns="http://www.w3.org/2000/svg">
  <g transform="matrix(1.0, 0.0, 0.0, 1.0, -239.6, -11.75)">
    <path d="M330.6 21.5 L322.85 21.5 Q325.5 25.95 325.5 32.0 325.5 39.4 322.8 43.3 319.55 48.0 315.0 48.0 310.45 48.0 307.25 43.3 305.85 41.3 305.6 38.15 L305.6 32.0 Q305.6 26.0 308.3 21.5 L259.7 21.5 Q262.4 26.0 262.4 32.0 L262.4 38.15 Q262.15 41.3 260.75 43.3 257.55 48.0 253.0 48.0 248.45 48.0 245.2 43.3 242.5 39.4 242.5 32.0 242.5 25.95 245.15 21.5 L239.6 21.5 239.6 11.75 330.6 11.75 330.6 21.5" fill="#a3771d" fill-rule="evenodd" stroke="none"/>
  </g>
</svg>
