<?xml version="1.0" encoding="UTF-8" standalone="no"?>
<svg xmlns:xlink="http://www.w3.org/1999/xlink" height="25.0px" width="122.0px" xmlns="http://www.w3.org/2000/svg">
  <g transform="matrix(1.0, 0.0, 0.0, 1.0, 49.0, 11.0)">
    <path d="M28.0 -2.0 Q28.2 0.05 27.55 1.5 26.95 2.7 26.0 3.0 26.9 0.8 26.0 -2.0 L28.0 -2.0" fill="url(#gradient0)" fill-rule="evenodd" stroke="none"/>
    <path d="M21.0 -2.0 L21.0 1.0 Q21.0 2.4 22.25 3.25 23.4 4.0 25.0 4.0 27.4 4.0 28.3 2.85 28.95 2.0 29.0 0.1 L29.0 -1.0 33.0 -1.0 33.0 0.0 30.0 0.0 Q29.95 2.45 28.95 3.6 27.75 4.95 25.0 5.0 23.0 5.0 21.65 4.1 20.05 3.0 20.0 1.0 L18.0 1.0 18.0 -2.0 21.0 -2.0" fill="url(#gradient1)" fill-rule="evenodd" stroke="none"/>
    <path d="M33.0 -2.0 L37.0 1.0 5.0 2.0 5.0 -1.0 33.0 -2.0" fill="#000000" fill-opacity="0.15294118" fill-rule="evenodd" stroke="none"/>
    <path d="M73.0 -6.0 L73.0 14.0 Q60.6 11.4 47.0 4.0 45.7 3.3 44.05 5.0 42.3 6.8 41.95 6.7 L39.35 5.1 Q36.5 2.95 34.95 2.0 29.75 -1.2 29.0 -1.0 L3.0 1.0 Q-7.9 -4.05 -20.0 -4.0 L-49.0 -4.0 -49.0 -6.0 -44.0 -6.0 -44.0 -7.0 -49.0 -7.0 -49.0 -11.0 -6.0 -11.0 -5.0 -8.0 29.0 -8.0 Q38.8 -1.95 45.0 -6.0 L73.0 -6.0" fill="url(#gradient2)" fill-rule="evenodd" stroke="none"/>
    <path d="M20.9 -0.35 L24.55 -1.1 29.55 -1.95 Q29.85 -1.95 32.6 -0.4 35.45 1.15 36.9 2.2 L40.45 4.8 Q41.85 5.8 42.15 5.85 L44.1 4.15 Q45.9 2.45 46.5 2.45 L54.6 6.4 Q64.25 10.7 73.0 12.7 L73.0 14.0 Q60.6 11.4 47.0 4.0 45.7 3.3 44.05 5.0 42.3 6.8 41.95 6.7 L39.35 5.1 Q36.5 2.95 34.95 2.0 29.75 -1.2 29.0 -1.0 L20.9 -0.35 M3.0 1.0 Q-7.9 -4.05 -20.0 -4.0 L-49.0 -4.0 -49.0 -5.0 -19.0 -5.0 Q-11.6 -5.0 -4.45 -3.05 1.7 -1.35 4.8 0.9 L3.0 1.0" fill="url(#gradient3)" fill-rule="evenodd" stroke="none"/>
    <path d="M28.0 -8.0 L29.0 -8.0 Q38.8 -1.95 45.0 -6.0 L73.0 -6.0 73.0 -5.0 48.0 -5.0 Q47.1 -5.0 44.25 -4.0 41.45 -3.0 40.7 -3.05 37.7 -3.15 33.65 -4.9 30.35 -6.3 28.0 -8.0" fill="url(#gradient4)" fill-rule="evenodd" stroke="none"/>
  </g>
  <defs>
    <linearGradient gradientTransform="matrix(-0.001, 0.0031, -0.0029, -0.001, 27.0, 0.5)" gradientUnits="userSpaceOnUse" id="gradient0" spreadMethod="pad" x1="-819.2" x2="819.2">
      <stop offset="0.2627450980392157" stop-color="#808080"/>
      <stop offset="0.7333333333333333" stop-color="#a3a3a3"/>
    </linearGradient>
    <linearGradient gradientTransform="matrix(0.0074, -0.0039, 0.0021, 0.004, 26.05, 2.1)" gradientUnits="userSpaceOnUse" id="gradient1" spreadMethod="pad" x1="-819.2" x2="819.2">
      <stop offset="0.14901960784313725" stop-color="#808080"/>
      <stop offset="0.5764705882352941" stop-color="#adadad"/>
      <stop offset="0.8156862745098039" stop-color="#787878"/>
      <stop offset="0.8666666666666667" stop-color="#5b5b5b"/>
    </linearGradient>
    <linearGradient gradientTransform="matrix(0.0, -0.0152, 0.0153, 0.0, 12.0, 1.5)" gradientUnits="userSpaceOnUse" id="gradient2" spreadMethod="pad" x1="-819.2" x2="819.2">
      <stop offset="0.1843137254901961" stop-color="#866546"/>
      <stop offset="0.4470588235294118" stop-color="#76573a"/>
      <stop offset="0.6823529411764706" stop-color="#6d5134"/>
      <stop offset="0.9490196078431372" stop-color="#684733"/>
      <stop offset="0.9921568627450981" stop-color="#8f6945"/>
    </linearGradient>
    <linearGradient gradientTransform="matrix(-1.0E-4, -0.0061, 0.003, -1.0E-4, -5.65, -1.45)" gradientUnits="userSpaceOnUse" id="gradient3" spreadMethod="pad" x1="-819.2" x2="819.2">
      <stop offset="0.0" stop-color="#66493c"/>
      <stop offset="1.0" stop-color="#503427"/>
    </linearGradient>
    <linearGradient gradientTransform="matrix(0.0269, 0.0, 0.0, 0.0033, 51.0, -5.35)" gradientUnits="userSpaceOnUse" id="gradient4" spreadMethod="pad" x1="-819.2" x2="819.2">
      <stop offset="0.0" stop-color="#8d6d4e"/>
      <stop offset="0.19607843137254902" stop-color="#906e4d"/>
      <stop offset="0.27450980392156865" stop-color="#ab8561"/>
      <stop offset="0.39215686274509803" stop-color="#926e4c"/>
      <stop offset="0.5254901960784314" stop-color="#936e4c"/>
      <stop offset="1.0" stop-color="#a67a51"/>
    </linearGradient>
  </defs>
</svg>
