<?xml version="1.0" encoding="UTF-8" standalone="no"?>
<svg xmlns:xlink="http://www.w3.org/1999/xlink" height="28.45px" width="148.0px" xmlns="http://www.w3.org/2000/svg">
  <g transform="matrix(1.0, 0.0, 0.0, 1.0, 74.0, 14.45)">
    <path d="M74.0 -6.0 L74.0 14.0 73.0 14.0 73.0 -6.0 74.0 -6.0" fill="url(#gradient0)" fill-rule="evenodd" stroke="none"/>
    <path d="M12.0 -11.0 L12.0 -14.0 14.0 -14.0 15.0 -13.0 20.0 -13.0 20.0 -11.0 12.0 -11.0" fill="url(#gradient1)" fill-rule="evenodd" stroke="none"/>
    <path d="M1.0 -13.0 L1.0 -14.0 3.0 -14.0 4.0 -13.0 4.0 -11.0 3.0 -11.0 1.0 -11.0 1.0 -13.0" fill="url(#gradient2)" fill-rule="evenodd" stroke="none"/>
    <path d="M20.0 -11.0 L29.0 -11.0 29.0 -8.0 -4.0 -8.0 -5.0 -11.0 1.0 -11.0 3.0 -11.0 4.0 -11.0 12.0 -11.0 20.0 -11.0" fill="url(#gradient3)" fill-rule="evenodd" stroke="none"/>
    <path d="M-5.0 -11.0 L-49.0 -11.0 -49.0 -13.0 1.0 -13.0 1.0 -11.0 -5.0 -11.0" fill="url(#gradient4)" fill-rule="evenodd" stroke="none"/>
    <path d="M-49.0 -6.0 L-49.0 -7.0 -45.0 -7.0 -45.0 -6.0 -49.0 -6.0" fill="url(#gradient5)" fill-rule="evenodd" stroke="none"/>
    <path d="M20.4 -12.55 Q21.05 -13.2 22.0 -13.2 22.9 -13.2 23.55 -12.55 24.2 -11.9 24.2 -11.0 24.2 -10.05 23.55 -9.45 22.9 -8.8 22.0 -8.8 21.05 -8.8 20.4 -9.45 19.8 -10.05 19.8 -11.0 19.8 -11.9 20.4 -12.55" fill="#000000" fill-opacity="0.101960786" fill-rule="evenodd" stroke="none"/>
    <path d="M23.7 -10.3 Q23.0 -9.55 22.0 -9.55 20.95 -9.55 20.25 -10.3 19.55 -10.95 19.55 -12.0 19.55 -13.0 20.25 -13.75 20.95 -14.45 22.0 -14.45 23.0 -14.45 23.7 -13.75 24.45 -13.0 24.45 -12.0 24.45 -10.95 23.7 -10.3" fill="url(#gradient6)" fill-rule="evenodd" stroke="none"/>
    <path d="M-41.0 -12.0 L-40.3 -11.7 Q-40.0 -11.4 -40.0 -11.0 L-42.0 -11.0 -41.7 -11.7 -41.0 -12.0 M-44.0 -12.0 Q-43.6 -12.0 -43.3 -11.7 -43.0 -11.4 -43.0 -11.0 L-45.0 -11.0 -44.7 -11.7 -44.0 -12.0 M-46.3 -11.7 Q-46.0 -11.4 -46.0 -11.0 L-48.0 -11.0 -47.7 -11.7 -47.0 -12.0 Q-46.6 -12.0 -46.3 -11.7 M-37.0 -11.0 L-39.0 -11.0 -38.7 -11.7 -38.0 -12.0 Q-37.6 -12.0 -37.3 -11.7 -37.0 -11.4 -37.0 -11.0" fill="#000000" fill-rule="evenodd" stroke="none"/>
    <path d="M22.7 -12.7 L22.0 -12.95 Q21.55 -13.0 21.25 -12.7 L21.3 -12.7 Q21.0 -12.45 21.0 -12.0 21.0 -11.6 21.25 -11.3 L21.3 -11.3 Q21.55 -11.05 22.0 -11.0 L22.7 -11.3 23.0 -12.0 22.7 -12.7 M22.0 -13.7 Q22.7 -13.7 23.2 -13.25 L23.25 -13.25 Q23.75 -12.75 23.75 -12.0 23.75 -11.2 23.2 -10.75 L23.25 -10.75 Q22.7 -10.25 22.0 -10.25 21.25 -10.25 20.75 -10.75 20.2 -11.2 20.25 -12.0 20.2 -12.75 20.75 -13.25 L22.0 -13.7" fill="#262626" fill-rule="evenodd" stroke="none"/>
    <path d="M-52.0 -7.0 L-52.0 -5.0 -62.0 -5.0 -62.0 -7.0 -52.0 -7.0" fill="url(#gradient7)" fill-rule="evenodd" stroke="none"/>
    <path d="M-53.0 -10.0 L-53.0 -8.0 -74.0 -8.0 -74.0 -10.0 -53.0 -10.0" fill="url(#gradient8)" fill-rule="evenodd" stroke="none"/>
    <path d="M-72.0 -10.0 L-72.0 -12.0 -70.0 -12.0 -69.0 -10.0 -72.0 -10.0" fill="url(#gradient9)" fill-rule="evenodd" stroke="none"/>
    <path d="M-69.0 -10.0 L-69.0 -8.0 -73.0 -8.0 -73.0 -10.0 -72.0 -10.0 -69.0 -10.0" fill="url(#gradient10)" fill-rule="evenodd" stroke="none"/>
    <path d="M-52.0 -11.0 L-52.0 -12.0 -49.0 -12.0 -49.0 -4.0 -52.0 -4.0 -52.0 -7.0 -52.0 -11.0" fill="url(#gradient11)" fill-rule="evenodd" stroke="none"/>
    <path d="M-52.0 -7.0 L-53.0 -7.0 -53.0 -11.0 -52.0 -11.0 -52.0 -7.0" fill="url(#gradient12)" fill-rule="evenodd" stroke="none"/>
    <path d="M-55.0 -8.0 L-55.0 -7.0 -59.0 -7.0 -59.0 -8.0 -55.0 -8.0" fill="url(#gradient13)" fill-rule="evenodd" stroke="none"/>
    <path d="M-59.0 -8.0 L-59.0 -10.0 -55.0 -10.0 -55.0 -8.0 -59.0 -8.0" fill="url(#gradient14)" fill-rule="evenodd" stroke="none"/>
    <path d="M-55.0 -7.0 L-55.0 -5.0 -59.0 -5.0 -59.0 -7.0 -55.0 -7.0" fill="url(#gradient15)" fill-rule="evenodd" stroke="none"/>
    <path d="M-24.0 -13.0 Q-22.0 -13.3 -20.0 -13.0 L-20.0 -4.0 Q-22.0 -3.7 -24.0 -4.0 L-24.0 -13.0" fill="url(#gradient16)" fill-rule="evenodd" stroke="none"/>
    <path d="M-68.0 -8.0 L-69.0 -8.0 -69.0 -10.0 -68.0 -10.0 -68.0 -8.0 M-54.0 -7.0 L-54.0 -5.0 -55.0 -5.0 -55.0 -7.0 -54.0 -7.0 M-54.0 -8.0 L-55.0 -8.0 -55.0 -10.0 -54.0 -10.0 -54.0 -8.0 M-59.0 -7.0 L-59.0 -5.0 -60.0 -5.0 -60.0 -7.0 -59.0 -7.0 M-60.0 -10.0 L-59.0 -10.0 -59.0 -8.0 -60.0 -8.0 -60.0 -10.0 M-48.0 -6.0 L-48.0 -4.0 -49.0 -4.0 -49.0 -6.0 -48.0 -6.0 M-48.0 -11.0 L-48.0 -7.0 -49.0 -7.0 -49.0 -11.0 -48.0 -11.0 M-24.0 -4.0 L-25.0 -4.0 -25.0 -13.0 -24.0 -13.0 -24.0 -4.0 M-19.0 -13.0 L-19.0 -4.0 -20.0 -4.0 -20.0 -13.0 -19.0 -13.0" fill="#000000" fill-opacity="0.17254902" fill-rule="evenodd" stroke="none"/>
    <path d="M0.0 -11.0 L0.0 -13.0 1.0 -13.0 1.0 -11.0 0.0 -11.0 M16.0 -8.0 L15.0 -8.0 15.0 -11.0 16.0 -11.0 16.0 -8.0 M26.0 -11.0 L27.0 -11.0 27.0 -8.0 26.0 -8.0 26.0 -11.0 M-2.0 -11.0 L-3.0 -11.0 -3.0 -13.0 -2.0 -13.0 -2.0 -11.0" fill="#000000" fill-opacity="0.2509804" fill-rule="evenodd" stroke="none"/>
  </g>
  <defs>
    <linearGradient gradientTransform="matrix(0.0, -0.0119, 0.0122, 0.0, 73.5, 4.0)" gradientUnits="userSpaceOnUse" id="gradient0" spreadMethod="pad" x1="-819.2" x2="819.2">
      <stop offset="0.050980392156862744" stop-color="#262626"/>
      <stop offset="0.08627450980392157" stop-color="#383838"/>
      <stop offset="0.8862745098039215" stop-color="#535353"/>
      <stop offset="0.9450980392156862" stop-color="#787878"/>
      <stop offset="1.0" stop-color="#666666"/>
    </linearGradient>
    <linearGradient gradientTransform="matrix(0.0, -0.0018, 0.0018, 0.0, 16.0, -12.5)" gradientUnits="userSpaceOnUse" id="gradient1" spreadMethod="pad" x1="-819.2" x2="819.2">
      <stop offset="0.0196078431372549" stop-color="#383838"/>
      <stop offset="1.0" stop-color="#7b7b7b"/>
    </linearGradient>
    <linearGradient gradientTransform="matrix(0.0, -0.0018, 0.0018, 0.0, 2.5, -12.5)" gradientUnits="userSpaceOnUse" id="gradient2" spreadMethod="pad" x1="-819.2" x2="819.2">
      <stop offset="0.0196078431372549" stop-color="#383838"/>
      <stop offset="1.0" stop-color="#7b7b7b"/>
    </linearGradient>
    <linearGradient gradientTransform="matrix(0.0, -0.0018, 0.0018, 0.0, 20.5, -9.5)" gradientUnits="userSpaceOnUse" id="gradient3" spreadMethod="pad" x1="-819.2" x2="819.2">
      <stop offset="0.08235294117647059" stop-color="#353535"/>
      <stop offset="0.8156862745098039" stop-color="#494949"/>
      <stop offset="0.8745098039215686" stop-color="#606060"/>
    </linearGradient>
    <linearGradient gradientTransform="matrix(0.0, -0.0011, 0.0012, 0.0, -25.0, -12.0)" gradientUnits="userSpaceOnUse" id="gradient4" spreadMethod="pad" x1="-819.2" x2="819.2">
      <stop offset="0.2196078431372549" stop-color="#353535"/>
      <stop offset="0.6941176470588235" stop-color="#868686"/>
      <stop offset="0.9568627450980393" stop-color="#606060"/>
    </linearGradient>
    <linearGradient gradientTransform="matrix(0.0, -8.0E-4, 6.0E-4, 0.0, -47.0, -6.5)" gradientUnits="userSpaceOnUse" id="gradient5" spreadMethod="pad" x1="-819.2" x2="819.2">
      <stop offset="0.0" stop-color="#5b5b5b"/>
      <stop offset="1.0" stop-color="#aaaaaa"/>
    </linearGradient>
    <linearGradient gradientTransform="matrix(4.0E-4, -0.003, 0.003, 4.0E-4, 22.0, -12.0)" gradientUnits="userSpaceOnUse" id="gradient6" spreadMethod="pad" x1="-819.2" x2="819.2">
      <stop offset="0.0784313725490196" stop-color="#585858"/>
      <stop offset="0.9372549019607843" stop-color="#383838"/>
    </linearGradient>
    <linearGradient gradientTransform="matrix(0.0, -0.0013, 0.0012, 0.0, -57.0, -6.0)" gradientUnits="userSpaceOnUse" id="gradient7" spreadMethod="pad" x1="-819.2" x2="819.2">
      <stop offset="0.00784313725490196" stop-color="#434343"/>
      <stop offset="0.3764705882352941" stop-color="#787878"/>
      <stop offset="0.6196078431372549" stop-color="#989898"/>
      <stop offset="1.0" stop-color="#4a4a4a"/>
    </linearGradient>
    <linearGradient gradientTransform="matrix(0.0, -0.0012, 0.0012, 0.0, -63.5, -9.0)" gradientUnits="userSpaceOnUse" id="gradient8" spreadMethod="pad" x1="-819.2" x2="819.2">
      <stop offset="0.00784313725490196" stop-color="#434343"/>
      <stop offset="0.39215686274509803" stop-color="#787878"/>
      <stop offset="0.6470588235294118" stop-color="#989898"/>
      <stop offset="1.0" stop-color="#4a4a4a"/>
    </linearGradient>
    <linearGradient gradientTransform="matrix(0.0, -0.0013, 0.0012, 0.0, -70.5, -11.0)" gradientUnits="userSpaceOnUse" id="gradient9" spreadMethod="pad" x1="-819.2" x2="819.2">
      <stop offset="0.00784313725490196" stop-color="#606060"/>
      <stop offset="0.1411764705882353" stop-color="#959595"/>
      <stop offset="0.8549019607843137" stop-color="#989898"/>
      <stop offset="0.8980392156862745" stop-color="#c2c2c2"/>
    </linearGradient>
    <linearGradient gradientTransform="matrix(0.0, -0.0012, 0.0012, 0.0, -71.0, -9.0)" gradientUnits="userSpaceOnUse" id="gradient10" spreadMethod="pad" x1="-819.2" x2="819.2">
      <stop offset="0.00784313725490196" stop-color="#6a6a6a"/>
      <stop offset="0.40784313725490196" stop-color="#959595"/>
      <stop offset="0.6352941176470588" stop-color="#bbbbbb"/>
      <stop offset="0.9450980392156862" stop-color="#838383"/>
    </linearGradient>
    <linearGradient gradientTransform="matrix(-1.0E-4, -0.0047, 0.0049, -1.0E-4, -50.5, -8.0)" gradientUnits="userSpaceOnUse" id="gradient11" spreadMethod="pad" x1="-819.2" x2="819.2">
      <stop offset="0.11764705882352941" stop-color="#585858"/>
      <stop offset="0.19607843137254902" stop-color="#868686"/>
      <stop offset="0.5843137254901961" stop-color="#868686"/>
      <stop offset="0.8274509803921568" stop-color="#cacaca"/>
      <stop offset="1.0" stop-color="#959595"/>
    </linearGradient>
    <linearGradient gradientTransform="matrix(0.0, -0.0023, 0.0024, 0.0, -52.5, -9.0)" gradientUnits="userSpaceOnUse" id="gradient12" spreadMethod="pad" x1="-819.2" x2="819.2">
      <stop offset="0.00784313725490196" stop-color="#434343"/>
      <stop offset="0.43529411764705883" stop-color="#b0b0b0"/>
      <stop offset="0.7254901960784313" stop-color="#d0d0d0"/>
      <stop offset="1.0" stop-color="#636363"/>
    </linearGradient>
    <linearGradient gradientTransform="matrix(0.0, -6.0E-4, 6.0E-4, 0.0, -57.0, -7.5)" gradientUnits="userSpaceOnUse" id="gradient13" spreadMethod="pad" x1="-819.2" x2="819.2">
      <stop offset="0.0" stop-color="#636363"/>
      <stop offset="1.0" stop-color="#5b5b5b"/>
    </linearGradient>
    <linearGradient gradientTransform="matrix(0.0, -0.0013, 0.0012, 0.0, -57.0, -9.0)" gradientUnits="userSpaceOnUse" id="gradient14" spreadMethod="pad" x1="-819.2" x2="819.2">
      <stop offset="0.00784313725490196" stop-color="#6a6a6a"/>
      <stop offset="0.40784313725490196" stop-color="#959595"/>
      <stop offset="0.6352941176470588" stop-color="#bbbbbb"/>
      <stop offset="0.9450980392156862" stop-color="#838383"/>
    </linearGradient>
    <linearGradient gradientTransform="matrix(0.0, -0.0013, 0.0012, 0.0, -57.0, -6.0)" gradientUnits="userSpaceOnUse" id="gradient15" spreadMethod="pad" x1="-819.2" x2="819.2">
      <stop offset="0.00784313725490196" stop-color="#6a6a6a"/>
      <stop offset="0.40784313725490196" stop-color="#959595"/>
      <stop offset="0.6352941176470588" stop-color="#bbbbbb"/>
      <stop offset="0.9450980392156862" stop-color="#838383"/>
    </linearGradient>
    <linearGradient gradientTransform="matrix(1.0E-4, -0.0058, 0.0055, 1.0E-4, -22.0, -8.5)" gradientUnits="userSpaceOnUse" id="gradient16" spreadMethod="pad" x1="-819.2" x2="819.2">
      <stop offset="0.0784313725490196" stop-color="#585858"/>
      <stop offset="0.1568627450980392" stop-color="#7b7b7b"/>
      <stop offset="0.7176470588235294" stop-color="#7b7b7b"/>
      <stop offset="0.8901960784313725" stop-color="#bfbfbf"/>
      <stop offset="1.0" stop-color="#6d6d6d"/>
    </linearGradient>
  </defs>
</svg>
