<?xml version="1.0" encoding="UTF-8" standalone="no"?>
<svg xmlns:xlink="http://www.w3.org/1999/xlink" height="121.5px" width="46.8px" xmlns="http://www.w3.org/2000/svg">
  <g transform="matrix(1.0, 0.0, 0.0, 1.0, 23.35, 76.75)">
    <path d="M7.45 -38.65 L4.95 -34.7 4.75 -34.7 4.75 -23.25 -4.7 -23.25 -4.7 -34.7 -4.85 -34.7 -7.45 -38.65 7.45 -38.65 M9.45 39.05 L-9.3 39.1 -7.3 36.3 7.5 36.3 9.45 39.05" fill="#ffffff" fill-rule="evenodd" stroke="none"/>
    <path d="M-4.7 -23.25 L4.75 -23.25 4.75 -34.7 4.95 -34.7 7.45 -38.65 11.85 -31.5 22.45 -27.4 22.35 -23.25 7.5 -23.25 7.5 -16.0 18.5 -16.0 15.0 36.3 17.55 39.05 9.5 39.05 9.45 39.05 7.5 36.3 7.5 -16.0 -7.4 -16.0 -7.4 -23.25 -4.7 -23.25" fill="#e8d8ed" fill-rule="evenodd" stroke="none"/>
    <path d="M-7.45 -38.65 L-4.85 -34.7 -4.7 -34.7 -4.7 -23.25 -7.4 -23.25 -22.25 -23.25 -22.35 -27.4 -11.75 -31.5 -7.45 -38.65 M-18.4 -16.0 L-7.4 -16.0 -7.3 36.3 -14.9 36.3 -18.4 -16.0 M-17.45 39.05 L-9.3 39.1 -9.3 43.75 -17.45 43.75 -17.45 39.05 M9.5 43.75 L9.5 39.05 17.55 39.05 17.55 43.75 9.5 43.75" fill="#b18dc7" fill-rule="evenodd" stroke="none"/>
    <path d="M-7.4 -16.0 L7.5 -16.0 7.5 36.3 -7.3 36.3 -9.3 39.1 9.45 39.05 9.5 39.05 9.5 43.75 -9.3 43.75 -9.3 39.1 -17.45 39.05 -14.9 36.3 -7.3 36.3 -7.4 -16.0" fill="#e1daeb" fill-rule="evenodd" stroke="none"/>
    <path d="M-7.4 -23.25 L-7.4 -16.0 -18.4 -16.0 -22.25 -23.25 -7.4 -23.25" fill="#885898" fill-rule="evenodd" stroke="none"/>
    <path d="M7.5 -16.0 L7.5 -23.25 22.35 -23.25 18.5 -16.0 7.5 -16.0" fill="#b39ac0" fill-rule="evenodd" stroke="none"/>
    <path d="M7.45 -38.65 L-7.45 -38.65 -11.75 -31.5 -22.35 -27.4 -22.25 -23.25 -18.4 -16.0 -14.9 36.3 M22.35 -23.25 L22.45 -27.4 11.85 -31.5 7.45 -38.65 M18.5 -16.0 L22.35 -23.25 M-17.45 39.05 L-17.45 43.75 -9.3 43.75 9.5 43.75 M-17.45 39.05 L-14.9 36.3 M17.55 39.05 L15.0 36.3 18.5 -16.0 M17.55 39.05 L17.55 43.75 9.5 43.75" fill="none" stroke="#000000" stroke-linecap="round" stroke-linejoin="round" stroke-width="2.0"/>
    <path d="M15.05 -21.1 L13.1 -17.3 Q12.8 -16.7 12.8 -16.15 L9.35 35.0 3.3 35.0 -3.05 35.0 -9.3 35.0 -12.8 -16.15 -13.05 -17.3 -15.05 -21.1 15.05 -21.1" fill="url(#gradient0)" fill-rule="evenodd" stroke="none"/>
    <path d="M-15.05 -21.1 L-16.65 -24.1 -16.7 -25.6 -9.5 -27.95 Q-8.55 -28.35 -8.15 -29.1 L-5.15 -35.5 5.25 -35.5 8.3 -29.1 Q8.7 -28.3 9.7 -27.95 L16.7 -25.6 16.65 -24.1 15.05 -21.1 -15.05 -21.1" fill="#9c85a5" fill-rule="evenodd" stroke="none"/>
    <path d="M-16.65 -24.1 L-16.7 -25.6 -9.5 -27.95 Q-8.55 -28.35 -8.15 -29.1 L-5.15 -35.5 5.25 -35.5 8.3 -29.1 Q8.7 -28.3 9.7 -27.95 L16.7 -25.6 16.65 -24.1" fill="none" stroke="#9c65af" stroke-linecap="round" stroke-linejoin="round" stroke-width="1.0"/>
    <path d="M15.05 -21.1 L13.1 -17.3 Q12.8 -16.7 12.8 -16.15 L9.35 35.0 3.3 35.0 -3.05 35.0 -9.3 35.0 -12.8 -16.15 -13.05 -17.3 -15.05 -21.1 -16.65 -24.1 M16.65 -24.1 L15.05 -21.1" fill="none" stroke="#764a7b" stroke-linecap="round" stroke-linejoin="round" stroke-width="1.0"/>
    <path d="M4.75 -51.85 L8.15 -46.4 -8.1 -46.35 -4.65 -51.85 4.75 -51.85 M1.45 -27.85 L-1.3 -27.85 -2.0 -35.3 2.1 -35.3 1.45 -27.85" fill="#ffffff" fill-rule="evenodd" stroke="none"/>
    <path d="M8.2 -42.0 L14.9 -41.9 7.5 -38.4 7.65 -38.2 2.95 -38.2 8.2 -42.0 M0.05 -75.75 L0.05 -72.4 -1.2 -71.2 -4.65 -51.85 -8.1 -46.35 -8.1 -42.15 -14.9 -42.15 -14.9 -45.85 -7.4 -53.35 -2.65 -73.2 0.05 -75.75" fill="#ae9aba" fill-rule="evenodd" stroke="none"/>
    <path d="M4.75 -51.85 L1.3 -71.2 0.05 -72.4 0.05 -75.75 2.75 -73.2 7.5 -53.35 15.0 -45.85 15.0 -41.95 14.9 -41.9 8.2 -42.0 2.95 -38.2 -2.85 -38.2 -8.1 -42.0 8.2 -42.0 8.2 -46.35 8.15 -46.4 4.75 -51.85" fill="#e4daeb" fill-rule="evenodd" stroke="none"/>
    <path d="M0.05 -72.4 L1.3 -71.2 4.75 -51.85 -4.65 -51.85 -1.2 -71.2 0.05 -72.4 M8.15 -46.4 L8.2 -46.35 8.2 -42.0 -8.1 -42.0 -8.1 -42.15 -8.1 -46.35 8.15 -46.4" fill="#d1bada" fill-rule="evenodd" stroke="none"/>
    <path d="M-8.1 -42.0 L-2.85 -38.2 -7.5 -38.2 -7.4 -38.4 -14.9 -41.95 -14.9 -42.15 -8.1 -42.15 -8.1 -42.0" fill="#9c6f9d" fill-rule="evenodd" stroke="none"/>
    <path d="M2.1 -35.3 L5.25 -35.3 3.7 -27.85 1.45 -27.85 2.1 -35.3" fill="#edd5f0" fill-rule="evenodd" stroke="none"/>
    <path d="M-1.3 -27.85 L-3.8 -27.85 -5.2 -35.3 -2.0 -35.3 -1.3 -27.85" fill="#b683d1" fill-rule="evenodd" stroke="none"/>
    <path d="M14.9 -41.9 L15.0 -41.95 15.0 -45.85 7.5 -53.35 2.75 -73.2 0.05 -75.75 -2.65 -73.2 -7.4 -53.35 -14.9 -45.85 -14.9 -42.15 -14.9 -41.95 -7.4 -38.4 -7.5 -38.2 M7.65 -38.2 L7.5 -38.4 14.9 -41.9" fill="none" stroke="#000000" stroke-linecap="round" stroke-linejoin="round" stroke-width="2.0"/>
    <path d="M5.25 -35.3 L3.7 -27.85 1.45 -27.85 -1.3 -27.85 -3.8 -27.85 -5.2 -35.3" fill="none" stroke="#813689" stroke-linecap="round" stroke-linejoin="round" stroke-width="1.0"/>
    <path d="M-9.05 -25.95 L-4.05 -29.35 -2.1 -35.3 2.2 -35.3 4.15 -29.35 9.15 -25.95 -9.05 -25.95" fill="#ffffff" fill-rule="evenodd" stroke="none"/>
    <path d="M9.15 -25.95 L9.15 -23.45 9.15 -23.4 7.4 -21.1 4.1 33.5 -3.85 33.5 -7.3 -21.1 -9.05 -23.4 -9.05 -23.45 -9.05 -25.95 9.15 -25.95" fill="#ffffff" fill-opacity="0.3019608" fill-rule="evenodd" stroke="none"/>
  </g>
  <defs>
    <linearGradient gradientTransform="matrix(0.0, -0.0346, 0.0342, 0.0, 0.0, 6.95)" gradientUnits="userSpaceOnUse" id="gradient0" spreadMethod="pad" x1="-819.2" x2="819.2">
      <stop offset="0.0" stop-color="#281cce"/>
      <stop offset="1.0" stop-color="#ec70fa"/>
    </linearGradient>
  </defs>
</svg>
