<?xml version="1.0" encoding="UTF-8" standalone="no"?>
<svg xmlns:xlink="http://www.w3.org/1999/xlink" height="50.0px" width="79.5px" xmlns="http://www.w3.org/2000/svg">
  <g transform="matrix(1.0, 0.0, 0.0, 1.0, 39.0, 25.0)">
    <path d="M34.4 -6.45 L35.5 -6.0 39.5 -3.0 Q40.25 -2.45 40.45 -1.5 40.65 -0.6 40.2 0.25 37.1 5.75 30.55 10.95 22.05 17.0 16.95 19.45 11.3 22.15 7.2 22.5 -20.3 24.95 -33.95 7.55 -34.55 6.8 -34.5 5.85 -34.45 4.9 -33.75 4.25 L-29.75 0.25 Q-29.25 -0.3 -28.45 -0.45 L-27.0 -0.3 Q-15.15 4.45 -3.9 -8.6 -3.3 -9.3 -2.45 -9.45 L-0.85 -9.2 Q8.55 -4.45 19.35 -7.4 L21.2 -7.2 Q26.7 -4.2 33.2 -6.35 L34.4 -6.45" fill="#000000" fill-rule="evenodd" stroke="none"/>
    <path d="M34.0 -4.0 Q32.25 3.6 23.95 8.8 16.2 13.7 5.65 14.9 -5.05 16.15 -13.95 13.05 -23.7 9.65 -28.0 2.0 -14.6 7.65 -2.0 -7.0 8.25 -1.75 20.0 -5.0 26.45 -1.45 34.0 -4.0" fill="url(#gradient0)" fill-rule="evenodd" stroke="none"/>
    <path d="M7.0 20.0 Q-19.15 22.2 -32.0 6.0 L-28.0 2.0 Q-22.8 6.45 -18.5 8.05 -15.45 9.15 -12.0 9.0 -9.2 11.1 -6.5 12.1 -1.6 13.95 6.0 14.0 L7.0 20.0" fill="url(#gradient1)" fill-rule="evenodd" stroke="none"/>
    <path d="M24.0 5.0 L29.0 9.0 Q22.2 14.2 15.9 17.15 10.8 19.5 7.0 20.0 L6.0 14.0 Q14.45 12.55 24.0 5.0" fill="url(#gradient2)" fill-rule="evenodd" stroke="none"/>
    <path d="M38.0 -1.0 Q35.1 4.15 29.0 9.0 L24.0 5.0 Q29.5 3.45 34.0 -4.0 L38.0 -1.0" fill="url(#gradient3)" fill-rule="evenodd" stroke="none"/>
    <path d="M11.65 -11.9 Q16.4 -14.9 13.45 -21.05 17.35 -15.45 22.35 -18.1 17.6 -15.05 20.45 -8.95 16.65 -14.5 11.65 -11.9" fill="url(#gradient4)" fill-rule="evenodd" stroke="none"/>
    <path d="M-23.0 -25.0 Q-21.9 -9.2 -19.25 -5.15 -16.65 -1.2 -7.0 0.0 -16.65 1.2 -19.25 5.15 -21.9 9.2 -23.0 25.0 -24.1 9.2 -26.75 5.15 -29.35 1.2 -39.0 0.0 -29.35 -1.2 -26.75 -5.15 -24.1 -9.2 -23.0 -25.0" fill="url(#gradient5)" fill-rule="evenodd" stroke="none"/>
  </g>
  <defs>
    <radialGradient cx="0" cy="0" gradientTransform="matrix(-2.0E-4, -0.0296, 0.0623, -3.0E-4, 4.0, -6.0)" gradientUnits="userSpaceOnUse" id="gradient0" r="819.2" spreadMethod="pad">
      <stop offset="0.27058823529411763" stop-color="#dad2c0"/>
      <stop offset="0.6980392156862745" stop-color="#a7986d"/>
      <stop offset="0.8862745098039215" stop-color="#856f65"/>
    </radialGradient>
    <linearGradient gradientTransform="matrix(0.0237, 0.0076, -0.0034, 0.0106, -12.5, 11.05)" gradientUnits="userSpaceOnUse" id="gradient1" spreadMethod="pad" x1="-819.2" x2="819.2">
      <stop offset="0.0" stop-color="#dad2b1"/>
      <stop offset="0.49019607843137253" stop-color="#c6b995"/>
      <stop offset="0.5058823529411764" stop-color="#ddd5bd"/>
      <stop offset="1.0" stop-color="#bbab7b"/>
    </linearGradient>
    <linearGradient gradientTransform="matrix(0.0123, -0.0067, 0.0044, 0.008, 17.35, 12.6)" gradientUnits="userSpaceOnUse" id="gradient2" spreadMethod="pad" x1="-819.2" x2="819.2">
      <stop offset="0.0" stop-color="#dad2b1"/>
      <stop offset="1.0" stop-color="#f5f2eb"/>
    </linearGradient>
    <linearGradient gradientTransform="matrix(-0.0088, 0.009, -0.0057, -0.0055, 30.8, 2.25)" gradientUnits="userSpaceOnUse" id="gradient3" spreadMethod="pad" x1="-819.2" x2="819.2">
      <stop offset="0.0784313725490196" stop-color="#ede8d8"/>
      <stop offset="0.49411764705882355" stop-color="#d7cea8"/>
      <stop offset="0.8549019607843137" stop-color="#c9ba92"/>
    </linearGradient>
    <radialGradient cx="0" cy="0" gradientTransform="matrix(0.0062, -0.0036, 0.0043, 0.0074, 17.0, -15.0)" gradientUnits="userSpaceOnUse" id="gradient4" r="819.2" spreadMethod="pad">
      <stop offset="0.4117647058823529" stop-color="#ffffff"/>
      <stop offset="0.7607843137254902" stop-color="#e8dfc8"/>
    </radialGradient>
    <radialGradient cx="0" cy="0" gradientTransform="matrix(0.0208, 0.0, 0.0, 0.0305, -23.0, 0.0)" gradientUnits="userSpaceOnUse" id="gradient5" r="819.2" spreadMethod="pad">
      <stop offset="0.27450980392156865" stop-color="#ffffff"/>
      <stop offset="0.4627450980392157" stop-color="#f3eba7"/>
      <stop offset="1.0" stop-color="#d0b991"/>
    </radialGradient>
  </defs>
</svg>
