<?xml version="1.0" encoding="UTF-8" standalone="no"?>
<svg xmlns:xlink="http://www.w3.org/1999/xlink" height="13.55px" width="30.5px" xmlns="http://www.w3.org/2000/svg">
  <g transform="matrix(1.0, 0.0, 0.0, 1.0, 0.0, 0.0)">
    <path d="M4.85 0.1 Q7.25 0.45 8.6 1.35 11.6 3.4 12.3 5.55 12.8 7.0 10.5 7.65 9.3 8.0 7.1 7.7 L3.5 6.85 Q1.35 6.05 0.0 3.35 L0.55 1.1 0.9 0.2 4.85 0.1 M30.4 9.75 Q30.85 10.5 29.25 12.05 27.65 13.5 26.5 13.55 23.35 13.65 21.3 11.35 21.5 10.35 23.35 8.8 25.0 7.45 25.4 7.45 28.95 7.3 30.4 9.75" fill="#ffffff" fill-rule="evenodd" stroke="none"/>
  </g>
</svg>
