<?xml version="1.0" encoding="UTF-8" standalone="no"?>
<svg xmlns:xlink="http://www.w3.org/1999/xlink" height="80.0px" width="51.5px" xmlns="http://www.w3.org/2000/svg">
  <g transform="matrix(1.0, 0.0, 0.0, 1.0, 25.75, 40.0)">
    <path d="M3.9 -2.85 Q6.05 -0.7 16.25 -0.75 25.75 -0.75 25.75 0.0 25.75 0.75 16.25 0.75 6.05 0.7 3.9 2.9 1.7 5.1 1.15 22.9 0.6 40.0 0.0 40.0 -0.65 40.0 -1.15 22.9 -1.65 5.1 -3.85 2.9 -6.05 0.7 -16.25 0.75 -25.75 0.75 -25.75 0.0 -25.75 -0.75 -16.25 -0.75 -6.05 -0.7 -3.85 -2.85 -1.65 -5.05 -1.15 -22.9 -0.65 -40.0 0.0 -40.0 0.6 -40.0 1.15 -22.9 1.7 -5.05 3.9 -2.85" fill="url(#gradient0)" fill-rule="evenodd" stroke="none"/>
  </g>
  <defs>
    <radialGradient cx="0" cy="0" gradientTransform="matrix(0.0244, 0.0, 0.0, 0.037, 0.0, 0.0)" gradientUnits="userSpaceOnUse" id="gradient0" r="819.2" spreadMethod="pad">
      <stop offset="0.32941176470588235" stop-color="#ffffff" stop-opacity="0.0"/>
      <stop offset="1.0" stop-color="#92d9fa" stop-opacity="0.8235294"/>
    </radialGradient>
  </defs>
</svg>
