<?xml version="1.0" encoding="UTF-8" standalone="no"?>
<svg xmlns:xlink="http://www.w3.org/1999/xlink" height="140.1px" width="44.85px" xmlns="http://www.w3.org/2000/svg">
  <g transform="matrix(1.0, 0.0, 0.0, 1.0, 16.15, 68.6)">
    <path d="M5.9 -65.85 Q14.25 -69.15 25.15 -68.5 L25.8 -68.35 Q27.2 -67.9 27.9 -66.85 29.3 -65.1 28.3 -62.95 L27.35 -61.9 26.0 -61.5 25.3 -61.5 Q23.2 -59.2 19.3 -58.05 L19.35 -58.05 13.6 -57.0 Q12.0 -56.7 10.3 -55.25 8.75 -53.95 7.9 -52.5 L7.0 -51.6 5.85 -51.3 5.7 -50.4 6.6 -49.95 Q7.25 -49.4 7.45 -48.5 7.65 -47.65 7.25 -46.85 L6.3 -45.05 6.3 -45.0 6.25 -44.95 6.25 -44.85 Q5.4 -42.6 5.45 -39.05 L5.8 -38.75 Q6.5 -38.05 6.5 -37.0 L6.5 -35.0 Q6.5 -34.15 6.0 -33.45 L5.8 -33.2 5.6 -33.05 5.95 -32.15 6.0 -31.5 Q6.0 -30.55 5.5 -29.8 5.35 12.45 4.7 56.05 L4.5 69.05 Q4.5 70.05 3.75 70.8 3.0 71.5 2.0 71.5 L-2.0 71.5 Q-3.0 71.5 -3.75 70.8 -4.5 70.05 -4.5 69.05 L-4.7 56.05 Q-5.35 12.45 -5.5 -29.8 -6.0 -30.55 -6.0 -31.5 L-5.95 -32.15 -5.55 -33.05 -5.75 -33.2 -6.0 -33.45 Q-6.5 -34.15 -6.5 -35.0 L-6.5 -37.0 Q-6.5 -38.05 -5.75 -38.75 L-5.4 -39.05 Q-5.4 -42.6 -6.2 -44.85 L-6.25 -44.95 -7.2 -46.85 Q-7.65 -47.65 -7.45 -48.5 -7.25 -49.4 -6.55 -49.95 L-5.95 -50.3 Q-7.25 -52.4 -11.45 -54.0 L-11.95 -54.25 -14.75 -56.45 -14.8 -56.5 Q-16.45 -58.3 -16.1 -60.25 -16.05 -62.2 -13.9 -64.65 -11.85 -67.05 -9.6 -67.85 L-9.1 -68.0 Q-6.5 -68.55 -2.0 -67.0 L-2.05 -67.0 2.35 -65.25 Q2.8 -65.1 3.15 -64.75 L5.85 -65.85 5.9 -65.85" fill="#000000" fill-rule="evenodd" stroke="none"/>
    <path d="M2.2 56.0 L2.0 69.0 0.0 69.0 -2.0 69.0 -2.2 56.0 2.2 56.0" fill="url(#gradient0)" fill-rule="evenodd" stroke="none"/>
    <path d="M4.0 -46.0 Q2.65 -42.75 3.0 -37.0 L-3.0 -37.0 Q-2.65 -42.75 -4.0 -46.0 L4.0 -46.0" fill="url(#gradient1)" fill-rule="evenodd" stroke="none"/>
    <path d="M3.0 -37.0 L4.0 -37.0 4.0 -35.0 -4.0 -35.0 -4.0 -37.0 -3.0 -37.0 3.0 -37.0" fill="url(#gradient2)" fill-rule="evenodd" stroke="none"/>
    <path d="M-4.0 -46.0 L-5.0 -48.0 -3.0 -48.0 3.0 -48.0 5.0 -48.0 4.0 -46.0 -4.0 -46.0" fill="url(#gradient3)" fill-rule="evenodd" stroke="none"/>
    <path d="M-3.0 -48.0 L-3.0 -49.0 3.0 -49.0 3.0 -48.0 -3.0 -48.0" fill="url(#gradient4)" fill-rule="evenodd" stroke="none"/>
    <path d="M-2.2 56.0 Q-2.85 11.8 -3.0 -31.0 L0.0 -31.0 3.0 -31.0 Q2.85 11.8 2.2 56.0 L-2.2 56.0" fill="url(#gradient5)" fill-rule="evenodd" stroke="none"/>
    <path d="M0.5 -23.0 L-0.5 -23.0 -0.5 -31.0 -3.0 -31.0 -3.0 -35.0 3.0 -35.0 3.0 -31.0 0.5 -31.0 0.5 -23.0" fill="url(#gradient6)" fill-rule="evenodd" stroke="none"/>
    <path d="M0.0 -38.6 L-1.6 -41.0 0.0 -43.4 1.6 -41.0 0.0 -38.6" fill="url(#gradient7)" fill-rule="evenodd" stroke="none"/>
    <path d="M-3.15 -42.95 Q-1.7 -44.0 -1.1 -46.0" fill="none" stroke="url(#gradient8)" stroke-linecap="round" stroke-linejoin="round" stroke-width="0.25"/>
    <path d="M3.15 -42.95 Q1.7 -44.0 1.1 -46.0" fill="none" stroke="url(#gradient9)" stroke-linecap="round" stroke-linejoin="round" stroke-width="0.25"/>
    <path d="M1.8 -37.0 Q2.1 -38.1 2.9 -38.65" fill="none" stroke="url(#gradient10)" stroke-linecap="round" stroke-linejoin="round" stroke-width="0.25"/>
    <path d="M-1.8 -37.0 Q-2.1 -38.1 -2.9 -38.65" fill="none" stroke="url(#gradient11)" stroke-linecap="round" stroke-linejoin="round" stroke-width="0.25"/>
    <path d="M0.0 -38.6 L-1.6 -41.0 0.0 -43.4 1.6 -41.0 0.0 -38.6" fill="none" stroke="url(#gradient12)" stroke-linecap="round" stroke-linejoin="round" stroke-width="0.25"/>
    <path d="M5.75 -53.8 L2.9 -53.85 1.85 -54.15 Q-1.15 -54.5 -2.15 -55.1 -4.05 -56.25 -4.9 -57.5 -4.5 -58.1 -3.55 -58.45 L-1.0 -59.0 Q4.2 -59.65 11.0 -62.55 16.15 -64.8 23.95 -63.9 22.35 -61.55 18.6 -60.45 L13.2 -59.5 Q11.0 -59.15 8.65 -57.15 6.8 -55.55 5.75 -53.8" fill="url(#gradient13)" fill-rule="evenodd" stroke="none"/>
    <path d="M0.1 -60.15 Q0.85 -61.25 1.55 -61.45 L1.6 -61.45 6.8 -63.55 Q14.7 -66.6 25.0 -66.0 L25.9 -65.35 Q26.35 -64.75 26.0 -64.0 L24.0 -64.0 23.95 -63.9 Q16.15 -64.8 11.0 -62.55 4.2 -59.65 -1.0 -59.0 -0.7 -59.1 0.1 -60.15" fill="url(#gradient14)" fill-rule="evenodd" stroke="none"/>
    <path d="M3.45 -52.45 L3.0 -49.0 -3.0 -49.0 Q-3.05 -51.6 -5.7 -53.65 -7.2 -54.8 -10.6 -56.35 -11.9 -56.95 -12.8 -57.95 -13.75 -59.0 -13.65 -60.0 -13.5 -61.3 -12.0 -63.05 -10.4 -64.9 -8.7 -65.55 -6.55 -65.9 -2.8 -64.65 L1.2 -63.05 1.7 -62.3 1.55 -61.45 Q0.85 -61.25 0.1 -60.15 -0.7 -59.1 -1.0 -59.0 L-3.55 -58.45 Q-4.5 -58.1 -4.9 -57.5 -4.05 -56.25 -2.15 -55.1 -1.15 -54.5 1.85 -54.15 3.75 -53.95 3.45 -52.45" fill="url(#gradient15)" fill-rule="evenodd" stroke="none"/>
    <path d="M2.5 -53.45 Q3.15 -52.85 3.4 -52.15 L3.05 -49.2 2.85 -49.0 -3.0 -49.0 Q-3.05 -50.45 -3.8 -51.75 -3.6 -52.7 -2.8 -53.45 -1.7 -54.45 -0.15 -54.45 L1.2 -54.2 Q1.9 -54.0 2.5 -53.45" fill="url(#gradient16)" fill-rule="evenodd" stroke="none"/>
    <path d="M4.0 -52.0 Q1.2 -52.6 -0.45 -53.4 -2.85 -54.55 -4.15 -56.5 L-3.1 -55.65 Q-0.75 -54.25 3.95 -53.75 L4.0 -52.0" fill="#000000" fill-opacity="0.3019608" fill-rule="evenodd" stroke="none"/>
    <path d="M-3.75 -62.8 Q-2.95 -62.65 -2.85 -62.15 -2.8 -61.6 -3.1 -61.05 L-2.65 -60.5 -3.25 -60.9 -4.5 -60.8 -5.15 -61.55 Q-5.35 -62.05 -5.2 -62.6 L-3.75 -62.8 Z" fill="none" stroke="url(#gradient17)" stroke-linecap="round" stroke-linejoin="round" stroke-width="0.5"/>
    <path d="M-1.45 -58.95 Q3.9 -59.5 11.0 -62.55 16.2 -64.8 24.1 -63.9" fill="none" stroke="url(#gradient18)" stroke-linecap="round" stroke-linejoin="round" stroke-width="0.25"/>
    <path d="M-4.9 -57.5 Q-4.05 -56.25 -2.15 -55.1 -1.2 -54.55 1.8 -54.15 3.65 -53.9 3.35 -52.4" fill="none" stroke="url(#gradient19)" stroke-linecap="round" stroke-linejoin="round" stroke-width="0.25"/>
    <path d="M-4.9 -57.5 Q-4.5 -58.1 -3.55 -58.45 L-1.0 -59.0 0.2 -60.25 Q1.05 -61.4 1.75 -61.6" fill="none" stroke="url(#gradient20)" stroke-linecap="round" stroke-linejoin="round" stroke-width="0.25"/>
    <path d="M-3.9 -52.85 Q-2.5 -51.15 -2.2 -49.0 L-3.0 -49.0 Q-3.05 -51.6 -5.75 -53.7 -7.25 -54.85 -10.6 -56.35 -13.65 -57.85 -13.65 -60.0 L-13.45 -60.75 Q-12.95 -58.65 -10.65 -57.15 L-6.55 -55.05 Q-5.0 -54.25 -3.9 -52.85" fill="#ffffff" fill-opacity="0.101960786" fill-rule="evenodd" stroke="none"/>
    <path d="M3.0 -48.0 L-3.0 -48.0 -3.0 -49.0 3.0 -49.0 3.0 -48.0 M4.0 -45.0 L-4.0 -45.0 -4.0 -46.0 4.0 -46.0 4.0 -45.0 M1.5 -30.0 L1.5 -22.0 -1.5 -22.0 -1.5 -30.0 -3.0 -30.0 -3.0 -31.0 3.0 -31.0 3.0 -30.0 1.5 -30.0 M3.0 -34.0 L-3.0 -34.0 -3.0 -35.0 3.0 -35.0 3.0 -34.0 M0.5 -30.0 L-0.5 -30.0 -0.5 -23.0 0.5 -23.0 0.5 -30.0" fill="#000000" fill-opacity="0.15294118" fill-rule="evenodd" stroke="none"/>
    <path d="M-2.0 58.0 L2.0 58.0 2.0 59.0 -2.0 59.0 -2.0 58.0" fill="#000000" fill-opacity="0.2" fill-rule="evenodd" stroke="none"/>
    <path d="M-4.0 -32.0 L4.0 -32.0" fill="none" stroke="#000000" stroke-linecap="round" stroke-linejoin="round" stroke-opacity="0.3019608" stroke-width="0.25"/>
  </g>
  <defs>
    <linearGradient gradientTransform="matrix(0.0027, 0.0, 0.0, 0.0079, 0.0, 62.5)" gradientUnits="userSpaceOnUse" id="gradient0" spreadMethod="pad" x1="-819.2" x2="819.2">
      <stop offset="0.0" stop-color="#606060"/>
      <stop offset="0.09803921568627451" stop-color="#434343"/>
      <stop offset="0.34901960784313724" stop-color="#8a8a8a"/>
      <stop offset="0.5098039215686274" stop-color="#b0b0b0"/>
      <stop offset="0.6627450980392157" stop-color="#8a8a8a"/>
      <stop offset="0.8862745098039215" stop-color="#434343"/>
      <stop offset="1.0" stop-color="#606060"/>
    </linearGradient>
    <linearGradient gradientTransform="matrix(0.0047, 0.0, 0.0, 0.0055, 0.0, -41.5)" gradientUnits="userSpaceOnUse" id="gradient1" spreadMethod="pad" x1="-819.2" x2="819.2">
      <stop offset="0.0" stop-color="#606060"/>
      <stop offset="0.09803921568627451" stop-color="#434343"/>
      <stop offset="0.34901960784313724" stop-color="#8a8a8a"/>
      <stop offset="0.5058823529411764" stop-color="#b0b0b0"/>
      <stop offset="0.6627450980392157" stop-color="#8a8a8a"/>
      <stop offset="0.8862745098039215" stop-color="#434343"/>
      <stop offset="1.0" stop-color="#606060"/>
    </linearGradient>
    <linearGradient gradientTransform="matrix(0.0049, 0.0, 0.0, 0.0012, 0.0, -36.0)" gradientUnits="userSpaceOnUse" id="gradient2" spreadMethod="pad" x1="-819.2" x2="819.2">
      <stop offset="0.0" stop-color="#606060"/>
      <stop offset="0.09803921568627451" stop-color="#434343"/>
      <stop offset="0.32941176470588235" stop-color="#8a8a8a"/>
      <stop offset="0.4745098039215686" stop-color="#b0b0b0"/>
      <stop offset="0.5568627450980392" stop-color="#b0b0b0"/>
      <stop offset="0.6823529411764706" stop-color="#8a8a8a"/>
      <stop offset="0.8862745098039215" stop-color="#434343"/>
      <stop offset="1.0" stop-color="#606060"/>
    </linearGradient>
    <linearGradient gradientTransform="matrix(0.0061, 0.0, 0.0, 0.0012, 0.0, -47.0)" gradientUnits="userSpaceOnUse" id="gradient3" spreadMethod="pad" x1="-819.2" x2="819.2">
      <stop offset="0.0" stop-color="#636363"/>
      <stop offset="0.09803921568627451" stop-color="#434343"/>
      <stop offset="0.39215686274509803" stop-color="#adadad"/>
      <stop offset="0.5058823529411764" stop-color="#bfbfbf"/>
      <stop offset="0.615686274509804" stop-color="#adadad"/>
      <stop offset="0.9137254901960784" stop-color="#434343"/>
      <stop offset="1.0" stop-color="#636363"/>
    </linearGradient>
    <linearGradient gradientTransform="matrix(0.0037, 0.0, 0.0, 6.0E-4, 0.0, -48.5)" gradientUnits="userSpaceOnUse" id="gradient4" spreadMethod="pad" x1="-819.2" x2="819.2">
      <stop offset="0.0" stop-color="#606060"/>
      <stop offset="0.09803921568627451" stop-color="#787878"/>
      <stop offset="0.4549019607843137" stop-color="#a6a6a6"/>
      <stop offset="0.5490196078431373" stop-color="#a6a6a6"/>
      <stop offset="0.8980392156862745" stop-color="#787878"/>
      <stop offset="1.0" stop-color="#636363"/>
    </linearGradient>
    <linearGradient gradientTransform="matrix(0.0037, 0.0, 0.0, 0.0531, 0.0, 12.5)" gradientUnits="userSpaceOnUse" id="gradient5" spreadMethod="pad" x1="-819.2" x2="819.2">
      <stop offset="0.0" stop-color="#525050"/>
      <stop offset="0.08627450980392157" stop-color="#262626"/>
      <stop offset="0.42745098039215684" stop-color="#554d4d"/>
      <stop offset="0.5176470588235295" stop-color="#595151"/>
      <stop offset="0.6" stop-color="#554d4d"/>
      <stop offset="0.8941176470588236" stop-color="#262626"/>
      <stop offset="1.0" stop-color="#525050"/>
    </linearGradient>
    <linearGradient gradientTransform="matrix(0.0038, 0.0, 0.0, 0.0079, 0.0, 62.5)" gradientUnits="userSpaceOnUse" id="gradient6" spreadMethod="pad" x1="-819.2" x2="819.2">
      <stop offset="0.0" stop-color="#606060"/>
      <stop offset="0.09803921568627451" stop-color="#434343"/>
      <stop offset="0.34901960784313724" stop-color="#8a8a8a"/>
      <stop offset="0.5058823529411764" stop-color="#b0b0b0"/>
      <stop offset="0.6627450980392157" stop-color="#8a8a8a"/>
      <stop offset="0.8862745098039215" stop-color="#434343"/>
      <stop offset="1.0" stop-color="#606060"/>
    </linearGradient>
    <linearGradient gradientTransform="matrix(0.0049, 0.0, 0.0, 0.0029, 0.0, -41.0)" gradientUnits="userSpaceOnUse" id="gradient7" spreadMethod="pad" x1="-819.2" x2="819.2">
      <stop offset="0.13333333333333333" stop-color="#850707"/>
      <stop offset="0.33725490196078434" stop-color="#d00b0b"/>
      <stop offset="0.5098039215686274" stop-color="#ea0d0d"/>
      <stop offset="0.6666666666666666" stop-color="#d00b0b"/>
      <stop offset="0.8470588235294118" stop-color="#850707"/>
    </linearGradient>
    <linearGradient gradientTransform="matrix(0.004, 0.0, 0.0, 0.0056, 0.0, -41.5)" gradientUnits="userSpaceOnUse" id="gradient8" spreadMethod="pad" x1="-819.2" x2="819.2">
      <stop offset="0.0" stop-color="#313131"/>
      <stop offset="0.8862745098039215" stop-color="#434343"/>
      <stop offset="1.0" stop-color="#313131"/>
    </linearGradient>
    <linearGradient gradientTransform="matrix(0.004, 0.0, 0.0, 0.0056, 0.0, -41.5)" gradientUnits="userSpaceOnUse" id="gradient9" spreadMethod="pad" x1="-819.2" x2="819.2">
      <stop offset="0.0" stop-color="#313131"/>
      <stop offset="0.17254901960784313" stop-color="#919191"/>
      <stop offset="1.0" stop-color="#202020"/>
    </linearGradient>
    <linearGradient gradientTransform="matrix(0.004, 0.0, 0.0, 0.0056, 0.0, -41.5)" gradientUnits="userSpaceOnUse" id="gradient10" spreadMethod="pad" x1="-819.2" x2="819.2">
      <stop offset="0.0" stop-color="#313131"/>
      <stop offset="0.17647058823529413" stop-color="#868686"/>
      <stop offset="1.0" stop-color="#202020"/>
    </linearGradient>
    <linearGradient gradientTransform="matrix(0.004, 0.0, 0.0, 0.0056, 0.0, -41.5)" gradientUnits="userSpaceOnUse" id="gradient11" spreadMethod="pad" x1="-819.2" x2="819.2">
      <stop offset="0.0" stop-color="#313131"/>
      <stop offset="0.8235294117647058" stop-color="#666666"/>
      <stop offset="1.0" stop-color="#202020"/>
    </linearGradient>
    <linearGradient gradientTransform="matrix(0.0, -0.0034, 0.0031, 0.0, 0.0, -41.0)" gradientUnits="userSpaceOnUse" id="gradient12" spreadMethod="pad" x1="-819.2" x2="819.2">
      <stop offset="0.0" stop-color="#ffffff"/>
      <stop offset="0.48627450980392156" stop-color="#717171"/>
      <stop offset="0.5215686274509804" stop-color="#555555"/>
      <stop offset="1.0" stop-color="#111111"/>
    </linearGradient>
    <radialGradient cx="0" cy="0" gradientTransform="matrix(0.0348, -0.0111, 0.0064, 0.02, 12.6, -65.45)" gradientUnits="userSpaceOnUse" id="gradient13" r="819.2" spreadMethod="pad">
      <stop offset="0.12156862745098039" stop-color="#e2e2e2"/>
      <stop offset="0.20784313725490197" stop-color="#b8b8b8"/>
      <stop offset="0.23137254901960785" stop-color="#b0b0b0"/>
      <stop offset="0.2823529411764706" stop-color="#989898"/>
      <stop offset="0.5411764705882353" stop-color="#464646"/>
      <stop offset="0.6352941176470588" stop-color="#868686"/>
      <stop offset="0.9176470588235294" stop-color="#2e2e2e"/>
    </radialGradient>
    <radialGradient cx="0" cy="0" gradientTransform="matrix(0.0425, -0.0114, 0.0023, 0.0087, 12.8, -64.9)" gradientUnits="userSpaceOnUse" id="gradient14" r="819.2" spreadMethod="pad">
      <stop offset="0.08235294117647059" stop-color="#e2e2e2"/>
      <stop offset="0.16862745098039217" stop-color="#cacaca"/>
      <stop offset="0.2823529411764706" stop-color="#989898"/>
      <stop offset="0.5294117647058824" stop-color="#515151"/>
      <stop offset="0.6352941176470588" stop-color="#555555"/>
      <stop offset="0.9176470588235294" stop-color="#2e2e2e"/>
    </radialGradient>
    <radialGradient cx="0" cy="0" fx="246.4" fy="0" gradientTransform="matrix(8.0E-4, -0.0114, 0.0157, 0.0012, -5.15, -61.1)" gradientUnits="userSpaceOnUse" id="gradient15" r="819.2" spreadMethod="pad">
      <stop offset="0.08235294117647059" stop-color="#ffffff"/>
      <stop offset="0.16862745098039217" stop-color="#d5d5d5"/>
      <stop offset="0.2823529411764706" stop-color="#a3a3a3"/>
      <stop offset="0.5294117647058824" stop-color="#5b5b5b"/>
      <stop offset="0.6352941176470588" stop-color="#666666"/>
      <stop offset="0.8549019607843137" stop-color="#5b5b5b"/>
    </radialGradient>
    <radialGradient cx="0" cy="0" fx="-1616.0" fy="0" gradientTransform="matrix(0.0, -0.0067, 0.0058, 0.0, -0.1, -48.9)" gradientUnits="userSpaceOnUse" id="gradient16" r="819.2" spreadMethod="pad">
      <stop offset="0.0" stop-color="#ffffff" stop-opacity="0.77254903"/>
      <stop offset="1.0" stop-color="#787878" stop-opacity="0.0"/>
    </radialGradient>
    <linearGradient gradientTransform="matrix(1.0E-4, 0.0022, -0.0017, 1.0E-4, -3.9, -61.55)" gradientUnits="userSpaceOnUse" id="gradient17" spreadMethod="pad" x1="-819.2" x2="819.2">
      <stop offset="0.13725490196078433" stop-color="#2b2b2b"/>
      <stop offset="0.6784313725490196" stop-color="#b0b0b0"/>
      <stop offset="0.9450980392156862" stop-color="#d5d5d5"/>
    </linearGradient>
    <linearGradient gradientTransform="matrix(0.0195, 0.0, 0.0, 0.0037, 8.25, -61.2)" gradientUnits="userSpaceOnUse" id="gradient18" spreadMethod="pad" x1="-819.2" x2="819.2">
      <stop offset="0.0" stop-color="#000000"/>
      <stop offset="0.36470588235294116" stop-color="#666666"/>
      <stop offset="0.6627450980392157" stop-color="#c2c2c2"/>
      <stop offset="0.8156862745098039" stop-color="#a6a6a6"/>
      <stop offset="1.0" stop-color="#262626"/>
    </linearGradient>
    <linearGradient gradientTransform="matrix(-4.0E-4, -0.0061, 0.0057, -4.0E-4, -0.75, -57.0)" gradientUnits="userSpaceOnUse" id="gradient19" spreadMethod="pad" x1="-819.2" x2="819.2">
      <stop offset="0.0" stop-color="#5b5b5b"/>
      <stop offset="0.21176470588235294" stop-color="#2e2e2e"/>
      <stop offset="0.4588235294117647" stop-color="#434343"/>
      <stop offset="0.5607843137254902" stop-color="#313131"/>
      <stop offset="0.7254901960784313" stop-color="#606060"/>
      <stop offset="1.0" stop-color="#464646"/>
    </linearGradient>
    <linearGradient gradientTransform="matrix(-4.0E-4, -0.0061, 0.0057, -4.0E-4, -0.75, -57.0)" gradientUnits="userSpaceOnUse" id="gradient20" spreadMethod="pad" x1="-819.2" x2="819.2">
      <stop offset="0.0" stop-color="#5b5b5b"/>
      <stop offset="0.21176470588235294" stop-color="#2e2e2e"/>
      <stop offset="0.4588235294117647" stop-color="#434343"/>
      <stop offset="0.5607843137254902" stop-color="#313131"/>
      <stop offset="0.7254901960784313" stop-color="#4a4a4a"/>
      <stop offset="1.0" stop-color="#464646"/>
    </linearGradient>
  </defs>
</svg>
