<?xml version="1.0" encoding="UTF-8" standalone="no"?>
<svg xmlns:xlink="http://www.w3.org/1999/xlink" height="151.05px" width="29.2px" xmlns="http://www.w3.org/2000/svg">
  <g transform="matrix(1.0, 0.0, 0.0, 1.0, 14.6, 71.5)">
    <path d="M11.75 -71.35 L12.85 -70.65 13.45 -69.5 Q13.9 -67.35 13.8 -64.3 L13.65 -62.35 Q14.9 -59.2 14.5 -54.7 14.3 -52.3 11.55 -47.6 L10.55 -45.9 Q11.85 -44.65 11.9 -43.9 12.05 -42.25 10.7 -41.35 8.75 -40.1 7.9 -37.4 7.6 -36.65 7.6 -36.0 9.05 -36.4 10.6 -35.2 12.4 -33.8 12.15 -31.2 11.85 -27.9 8.95 -27.05 L7.35 -23.05 Q7.05 -22.35 6.4 -21.9 L5.95 -21.65 5.75 -20.5 Q6.6 -20.5 7.4 -20.05 8.55 -19.35 8.5 -18.0 L8.5 -17.0 Q8.4 -15.2 6.95 -14.65 L5.05 -14.5 5.5 -13.0 5.5 -12.0 Q5.55 -11.2 5.05 -10.5 L4.5 -9.95 4.5 58.05 Q4.45 60.6 4.8 62.1 4.9 62.5 5.3 62.9 L5.9 63.4 Q7.85 65.65 6.4 67.95 6.25 68.15 6.8 68.85 7.45 69.7 7.2 71.25 7.0 72.5 5.8 73.8 L4.35 75.0 2.1 78.4 0.8 79.4 0.0 79.55 -0.8 79.4 -2.1 78.4 -4.35 75.0 -5.8 73.8 Q-7.0 72.5 -7.2 71.25 -7.45 69.7 -6.8 68.85 -6.25 68.15 -6.4 67.95 -7.85 65.65 -5.9 63.4 L-5.3 62.9 Q-4.9 62.5 -4.8 62.1 -4.45 60.6 -4.5 58.05 L-4.5 -9.95 -5.05 -10.5 Q-5.55 -11.2 -5.5 -12.0 L-5.5 -13.0 -5.05 -14.5 -6.95 -14.65 Q-8.4 -15.2 -8.5 -17.0 L-8.5 -18.0 Q-8.55 -19.35 -7.4 -20.05 -6.6 -20.5 -5.75 -20.5 L-5.95 -21.65 -6.4 -21.9 Q-7.05 -22.35 -7.35 -23.05 L-8.95 -27.05 Q-11.85 -27.9 -12.15 -31.2 -12.4 -33.8 -10.6 -35.2 -9.05 -36.4 -7.6 -36.0 -7.6 -36.65 -7.9 -37.4 -8.75 -40.1 -10.7 -41.35 -12.05 -42.25 -11.9 -43.9 -11.85 -44.65 -10.55 -45.9 L-11.55 -47.6 Q-14.3 -52.3 -14.5 -54.7 -14.9 -59.2 -13.65 -62.35 L-13.8 -64.3 Q-13.9 -67.35 -13.45 -69.5 L-12.85 -70.65 -11.75 -71.35 -10.45 -71.4 -4.45 -70.05 0.0 -70.5 4.45 -70.05 10.45 -71.4 11.75 -71.35" fill="#000000" fill-rule="evenodd" stroke="none"/>
    <path d="M3.0 -38.0 L-3.0 -38.0 -4.0 -46.0 4.0 -46.0 3.0 -38.0" fill="url(#gradient0)" fill-rule="evenodd" stroke="none"/>
    <path d="M4.0 -45.0 L-4.0 -45.0 -4.0 -46.0 4.0 -46.0 4.0 -45.0" fill="#000000" fill-opacity="0.2" fill-rule="evenodd" stroke="none"/>
    <path d="M5.0 -46.0 L-5.0 -46.0 -5.0 -48.0 5.0 -48.0 5.0 -46.0" fill="url(#gradient1)" fill-rule="evenodd" stroke="none"/>
    <path d="M0.0 -28.0 L5.0 -28.0 Q5.0 -26.8 4.0 -23.9 3.0 -21.05 3.0 -18.0 L-3.0 -18.0 Q-3.0 -21.05 -4.0 -23.85 -5.0 -26.75 -5.0 -28.0 L0.0 -28.0" fill="url(#gradient2)" fill-rule="evenodd" stroke="none"/>
    <path d="M-2.0 -7.0 L-2.0 -12.0 2.0 -12.0 2.0 -7.0 -2.0 -7.0" fill="url(#gradient3)" fill-rule="evenodd" stroke="none"/>
    <path d="M0.0 -17.0 L4.0 -17.0 Q2.35 -15.85 2.45 -13.0 L0.0 -13.0 0.0 -17.0" fill="url(#gradient4)" fill-rule="evenodd" stroke="none"/>
    <path d="M0.0 -17.0 L0.0 -13.0 -2.45 -13.0 Q-2.35 -15.85 -4.0 -17.0 L0.0 -17.0" fill="url(#gradient5)" fill-rule="evenodd" stroke="none"/>
    <path d="M4.0 69.0 L0.0 69.0 -4.0 69.0 -3.7 67.45 Q-3.4 66.35 -3.0 66.0 L3.0 66.0 Q3.4 66.35 3.7 67.45 L4.0 69.0" fill="url(#gradient6)" fill-rule="evenodd" stroke="none"/>
    <path d="M2.0 56.0 L2.0 58.0 -2.0 58.0 -2.0 56.0 2.0 56.0" fill="url(#gradient7)" fill-rule="evenodd" stroke="none"/>
    <path d="M2.0 58.0 Q1.95 61.15 2.4 62.75 2.85 64.45 4.0 65.0 L-4.0 65.0 Q-2.85 64.45 -2.4 62.75 -1.95 61.15 -2.0 58.0 L2.0 58.0" fill="url(#gradient8)" fill-rule="evenodd" stroke="none"/>
    <path d="M2.0 -7.0 L2.0 56.0 -2.0 56.0 -2.0 -7.0 2.0 -7.0" fill="url(#gradient9)" fill-rule="evenodd" stroke="none"/>
    <path d="M1.2 -13.0 Q1.2 -15.8 2.45 -17.0" fill="none" stroke="url(#gradient10)" stroke-linecap="round" stroke-linejoin="round" stroke-width="0.5"/>
    <path d="M-1.2 -13.0 Q-1.2 -15.8 -2.45 -17.0" fill="none" stroke="url(#gradient11)" stroke-linecap="round" stroke-linejoin="round" stroke-width="0.5"/>
    <path d="M5.0 -27.0 L-5.0 -27.0 -5.0 -29.0 5.0 -29.0 5.0 -27.0" fill="url(#gradient12)" fill-rule="evenodd" stroke="none"/>
    <path d="M6.0 -17.0 L-6.0 -17.0 -6.0 -18.0 6.0 -18.0 6.0 -17.0" fill="url(#gradient13)" fill-rule="evenodd" stroke="none"/>
    <path d="M3.0 -12.0 L-3.0 -12.0 -3.0 -13.0 3.0 -13.0 3.0 -12.0" fill="url(#gradient14)" fill-rule="evenodd" stroke="none"/>
    <path d="M4.05 -40.65 L7.0 -46.0 9.4 -43.5 Q6.7 -41.85 5.5 -38.2 4.25 -34.3 6.5 -32.35 7.05 -31.85 7.1 -32.45 7.25 -33.3 7.7 -33.45 8.5 -33.75 9.1 -33.1 9.75 -32.45 9.65 -31.35 9.6 -30.35 8.85 -29.8 L7.6 -29.4 Q5.6 -29.35 4.05 -30.9 2.15 -32.8 2.6 -36.0 L2.8 -37.0 Q3.2 -38.95 4.05 -40.65" fill="url(#gradient15)" fill-rule="evenodd" stroke="none"/>
    <path d="M-4.05 -40.65 Q-3.2 -38.95 -2.8 -37.0 L-2.6 -36.0 Q-2.15 -32.8 -4.05 -30.9 -5.6 -29.35 -7.6 -29.4 L-8.85 -29.8 Q-9.6 -30.35 -9.65 -31.35 -9.75 -32.45 -9.1 -33.1 -8.5 -33.75 -7.7 -33.45 -7.25 -33.3 -7.1 -32.45 -7.05 -31.85 -6.5 -32.35 -4.25 -34.3 -5.5 -38.2 -6.7 -41.85 -9.4 -43.5 L-7.0 -46.0 -4.05 -40.65" fill="url(#gradient16)" fill-rule="evenodd" stroke="none"/>
    <path d="M7.0 -29.0 Q0.55 -32.85 5.2 -41.8 L7.4 -45.45" fill="none" stroke="url(#gradient17)" stroke-linecap="round" stroke-linejoin="round" stroke-width="0.5"/>
    <path d="M-7.35 -45.45 L-5.2 -41.8 Q-0.55 -32.85 -7.0 -29.0" fill="none" stroke="url(#gradient18)" stroke-linecap="round" stroke-linejoin="round" stroke-width="0.5"/>
    <path d="M2.15 -61.15 Q1.25 -62.0 0.0 -62.0 -1.25 -62.0 -2.15 -61.15 -3.0 -60.25 -3.0 -59.0 L-2.95 -58.55 Q-7.3 -57.1 -4.9 -50.45 -0.1 -40.8 0.0 -38.1 0.1 -40.8 4.9 -50.45 7.3 -57.1 2.95 -58.55 L3.0 -59.0 Q3.0 -60.25 2.15 -61.15 M10.0 -63.0 Q11.2 -59.7 9.75 -54.95 9.1 -52.85 6.1 -46.2 3.55 -40.55 2.9 -37.1 2.2 -33.25 3.2 -30.0 L5.0 -30.0 5.0 -29.0 -5.0 -29.0 -5.0 -30.0 -3.2 -30.0 Q-2.2 -33.25 -2.9 -37.1 -3.55 -40.55 -6.1 -46.2 -9.1 -52.85 -9.75 -54.95 -11.2 -59.7 -10.0 -63.0 L0.0 -65.0 10.0 -63.0" fill="url(#gradient19)" fill-rule="evenodd" stroke="none"/>
    <path d="M2.15 -61.15 Q3.0 -60.25 3.0 -59.0 L2.95 -58.55 Q7.3 -57.1 4.9 -50.45 0.1 -40.8 0.0 -38.1 -0.1 -40.8 -4.9 -50.45 -7.3 -57.1 -2.95 -58.55 L-3.0 -59.0 Q-3.0 -60.25 -2.15 -61.15 -1.25 -62.0 0.0 -62.0 1.25 -62.0 2.15 -61.15 Z" fill="none" stroke="url(#gradient20)" stroke-linecap="round" stroke-linejoin="round" stroke-width="0.5"/>
    <path d="M10.0 -63.9 Q12.5 -60.5 12.0 -55.0 11.75 -52.9 9.4 -48.9 L5.2 -41.8 Q0.55 -32.85 7.0 -29.0 L5.0 -24.0 4.0 -24.0 4.65 -26.75 5.0 -29.0 Q0.45 -31.75 1.6 -37.75 2.35 -41.9 6.0 -48.0 10.15 -55.15 7.8 -59.8 5.75 -63.95 0.0 -64.0 -5.75 -63.95 -7.8 -59.8 -10.15 -55.15 -6.0 -48.0 -2.4 -41.95 -1.6 -37.5 -0.45 -31.35 -5.0 -29.0 L-4.65 -26.75 -4.0 -24.0 -5.0 -24.0 -7.0 -29.0 Q-0.55 -32.85 -5.2 -41.8 L-9.4 -48.9 Q-11.75 -52.9 -12.0 -55.0 -12.5 -60.5 -10.0 -63.9 -6.95 -67.95 0.0 -68.0 6.95 -67.95 10.0 -63.9" fill="url(#gradient21)" fill-rule="evenodd" stroke="none"/>
    <path d="M0.0 -64.25 Q5.9 -64.2 8.05 -59.9 10.45 -55.15 6.25 -47.85 2.7 -42.0 1.9 -38.2 1.35 -35.4 2.15 -32.75 3.05 -30.05 4.95 -29.0 L4.25 -29.0 Q2.3 -30.25 1.55 -32.8 0.75 -35.4 1.4 -38.3 2.2 -42.2 5.8 -48.1 7.8 -51.55 8.25 -54.7 8.7 -57.7 7.6 -59.7 5.45 -63.7 0.0 -63.75 -5.5 -63.7 -7.55 -59.7 -8.65 -57.65 -8.2 -54.65 -7.75 -51.55 -5.75 -48.1 -2.2 -42.2 -1.4 -38.3 -0.8 -35.5 -1.6 -32.95 -2.35 -30.55 -4.25 -29.0 L-4.95 -29.0 Q-3.05 -30.3 -2.2 -32.9 -1.35 -35.45 -1.9 -38.2 -2.7 -42.0 -6.2 -47.85 -10.45 -55.15 -8.0 -59.9 -5.9 -64.2 0.0 -64.25" fill="url(#gradient22)" fill-rule="evenodd" stroke="none"/>
    <path d="M4.3 -67.45 L11.0 -69.0 Q11.4 -67.1 11.3 -64.4 L11.1 -62.05 9.8 -62.75 7.3 -64.45 Q5.65 -65.8 4.3 -67.45" fill="url(#gradient23)" fill-rule="evenodd" stroke="none"/>
    <path d="M-11.1 -62.05 L-11.25 -64.85 Q-11.35 -67.85 -11.0 -69.0 L-4.3 -67.45 Q-5.65 -65.8 -7.3 -64.45 L-9.8 -62.75 -11.1 -62.05" fill="url(#gradient24)" fill-rule="evenodd" stroke="none"/>
    <path d="M9.7 -63.55 L9.1 -63.85 7.7 -64.75 6.0 -66.4 9.7 -67.25 Q9.95 -66.2 9.85 -64.8 L9.7 -63.55" fill="url(#gradient25)" fill-rule="evenodd" stroke="none"/>
    <path d="M-7.7 -64.75 L-9.1 -63.85 -9.7 -63.55 -9.85 -65.05 Q-9.95 -66.7 -9.7 -67.25 L-6.0 -66.4 -7.7 -64.75" fill="url(#gradient26)" fill-rule="evenodd" stroke="none"/>
    <path d="M-9.9 -32.45 L-9.0 -34.25 Q-8.4 -34.85 -7.8 -34.65 -7.2 -34.5 -7.05 -33.65 -6.85 -32.7 -7.2 -31.7 -7.45 -30.6 -8.05 -29.9 -8.65 -29.3 -9.25 -29.5 -9.85 -29.65 -10.0 -30.5 -10.2 -31.35 -9.9 -32.45" fill="url(#gradient27)" fill-rule="evenodd" stroke="none"/>
    <path d="M0.0 71.0 L0.0 77.0 -4.0 71.0 0.0 71.0" fill="url(#gradient28)" fill-rule="evenodd" stroke="none"/>
    <path d="M0.0 77.0 L0.0 71.0 4.0 71.0 0.0 77.0" fill="url(#gradient29)" fill-rule="evenodd" stroke="none"/>
    <path d="M4.5 71.0 L-4.5 71.0 -4.5 69.0 4.5 69.0 4.5 71.0 M4.0 67.0 L0.0 67.0 -4.0 67.0 Q-4.85 66.0 -4.0 65.0 L0.0 65.0 4.0 65.0 Q4.85 66.0 4.0 67.0" fill="url(#gradient30)" fill-rule="evenodd" stroke="none"/>
    <path d="M0.6 -24.0 L0.0 -24.0 -0.6 -24.0 -1.5 -29.0 1.5 -29.0 0.6 -24.0" fill="url(#gradient31)" fill-rule="evenodd" stroke="none"/>
    <path d="M0.0 69.95 L0.0 73.0 -0.6 71.6 -0.8 70.3 Q-0.6 70.0 0.0 69.95" fill="url(#gradient32)" fill-rule="evenodd" stroke="none"/>
    <path d="M-3.9 72.25 L-4.7 71.15 -4.75 70.4 Q-4.65 70.05 -4.05 70.15 L-2.8 72.8 Q-3.2 72.85 -3.9 72.25" fill="url(#gradient33)" fill-rule="evenodd" stroke="none"/>
    <path d="M4.75 70.4 L4.7 71.15 3.9 72.25 Q3.2 72.85 2.8 72.8 L4.05 70.15 Q4.65 70.05 4.75 70.4" fill="url(#gradient34)" fill-rule="evenodd" stroke="none"/>
    <path d="M0.0 69.95 Q0.6 70.0 0.8 70.3 L0.6 71.6 0.0 73.0 0.0 69.95" fill="url(#gradient35)" fill-rule="evenodd" stroke="none"/>
    <path d="M0.0 -52.95 L0.0 -53.0 4.0 -53.0 3.0 -48.0 0.0 -48.0 0.0 -52.95" fill="url(#gradient36)" fill-rule="evenodd" stroke="none"/>
    <path d="M0.0 -53.0 L0.0 -52.95 -4.0 -52.95 -3.95 -53.0 0.0 -57.95 0.0 -53.0" fill="url(#gradient37)" fill-rule="evenodd" stroke="none"/>
    <path d="M4.0 -53.0 L0.0 -53.0 0.0 -57.95 0.0 -58.0 4.0 -53.0" fill="url(#gradient38)" fill-rule="evenodd" stroke="none"/>
    <path d="M0.0 -29.0 L-2.65 -29.0 0.0 -33.0 2.6 -29.0 0.0 -29.0" fill="url(#gradient39)" fill-rule="evenodd" stroke="none"/>
    <path d="M0.0 -52.95 L0.0 -48.0 -3.0 -48.0 -4.0 -52.95 0.0 -52.95" fill="url(#gradient40)" fill-rule="evenodd" stroke="none"/>
    <path d="M-3.95 -53.0 L-4.0 -52.95 -4.0 -53.0 -3.95 -53.0" fill="url(#gradient41)" fill-rule="evenodd" stroke="none"/>
    <path d="M1.6 -32.3 Q2.2 -31.55 2.2 -30.5 2.2 -29.65 1.8 -29.0 L-1.4 -29.0 Q-1.8 -29.65 -1.8 -30.5 -1.8 -31.55 -1.25 -32.3 -0.65 -33.0 0.2 -33.0 1.05 -33.0 1.6 -32.3" fill="url(#gradient42)" fill-rule="evenodd" stroke="none"/>
    <path d="M2.0 -11.0 L-2.0 -11.0 -2.0 -12.0 2.0 -12.0 2.0 -11.0 M-2.0 58.0 L2.0 58.0 2.0 59.0 -2.0 59.0 -2.0 58.0 M-5.0 67.0 L5.0 67.0 5.0 68.0 -5.0 68.0 -5.0 67.0" fill="#000000" fill-opacity="0.2" fill-rule="evenodd" stroke="none"/>
    <path d="M4.0 -16.0 L-4.0 -16.0 -4.0 -17.0 4.0 -17.0 4.0 -16.0" fill="#000000" fill-opacity="0.2" fill-rule="evenodd" stroke="none"/>
  </g>
  <defs>
    <linearGradient gradientTransform="matrix(0.0037, 0.0, 0.0, 0.0049, 0.0, -42.0)" gradientUnits="userSpaceOnUse" id="gradient0" spreadMethod="pad" x1="-819.2" x2="819.2">
      <stop offset="0.0" stop-color="#37485e"/>
      <stop offset="0.29411764705882354" stop-color="#4e899c"/>
      <stop offset="0.5058823529411764" stop-color="#5fbbcb"/>
      <stop offset="0.7490196078431373" stop-color="#4e899c"/>
      <stop offset="1.0" stop-color="#37485e"/>
    </linearGradient>
    <linearGradient gradientTransform="matrix(0.0061, 0.0, 0.0, 0.0012, 0.0, -47.0)" gradientUnits="userSpaceOnUse" id="gradient1" spreadMethod="pad" x1="-819.2" x2="819.2">
      <stop offset="0.0" stop-color="#665026"/>
      <stop offset="0.4470588235294118" stop-color="#e4d17c"/>
      <stop offset="0.5333333333333333" stop-color="#eede97"/>
      <stop offset="1.0" stop-color="#665026"/>
    </linearGradient>
    <radialGradient cx="0" cy="0" gradientTransform="matrix(0.0049, 0.0, 0.0, 0.0207, 0.0, -27.0)" gradientUnits="userSpaceOnUse" id="gradient2" r="819.2" spreadMethod="pad">
      <stop offset="0.2" stop-color="#5fbbcb"/>
      <stop offset="0.42745098039215684" stop-color="#4e899c"/>
      <stop offset="0.8941176470588236" stop-color="#37485e"/>
    </radialGradient>
    <linearGradient gradientTransform="matrix(0.0024, 0.0, 0.0, 0.0031, 0.0, -9.5)" gradientUnits="userSpaceOnUse" id="gradient3" spreadMethod="pad" x1="-819.2" x2="819.2">
      <stop offset="0.0" stop-color="#736a44"/>
      <stop offset="0.5058823529411764" stop-color="#d5c271"/>
      <stop offset="1.0" stop-color="#6f6642"/>
    </linearGradient>
    <linearGradient gradientTransform="matrix(0.0037, 0.0, 0.0, 0.0024, 0.0, -15.0)" gradientUnits="userSpaceOnUse" id="gradient4" spreadMethod="pad" x1="-819.2" x2="819.2">
      <stop offset="0.0" stop-color="#736a44"/>
      <stop offset="0.5058823529411764" stop-color="#d5c271"/>
      <stop offset="1.0" stop-color="#6f6642"/>
    </linearGradient>
    <linearGradient gradientTransform="matrix(-0.0037, 0.0, 0.0, 0.0024, 0.0, -15.0)" gradientUnits="userSpaceOnUse" id="gradient5" spreadMethod="pad" x1="-819.2" x2="819.2">
      <stop offset="0.0" stop-color="#736a44"/>
      <stop offset="0.5058823529411764" stop-color="#d5c271"/>
      <stop offset="1.0" stop-color="#6f6642"/>
    </linearGradient>
    <linearGradient gradientTransform="matrix(0.0049, 0.0, 0.0, 0.0018, 0.0, 67.5)" gradientUnits="userSpaceOnUse" id="gradient6" spreadMethod="pad" x1="-819.2" x2="819.2">
      <stop offset="0.0" stop-color="#3e3824"/>
      <stop offset="0.5215686274509804" stop-color="#867955"/>
      <stop offset="1.0" stop-color="#353120"/>
    </linearGradient>
    <linearGradient gradientTransform="matrix(0.0024, 0.0, 0.0, 0.0012, 0.0, 57.0)" gradientUnits="userSpaceOnUse" id="gradient7" spreadMethod="pad" x1="-819.2" x2="819.2">
      <stop offset="0.0" stop-color="#736a44"/>
      <stop offset="0.5058823529411764" stop-color="#d5c271"/>
      <stop offset="1.0" stop-color="#6f6642"/>
    </linearGradient>
    <radialGradient cx="0" cy="0" gradientTransform="matrix(0.0035, 0.0, 0.0, 0.0291, 0.0, 65.0)" gradientUnits="userSpaceOnUse" id="gradient8" r="819.2" spreadMethod="pad">
      <stop offset="0.0" stop-color="#c9b452"/>
      <stop offset="1.0" stop-color="#5e5937"/>
    </radialGradient>
    <linearGradient gradientTransform="matrix(0.0024, 0.0, 0.0, 0.0385, 0.0, 24.5)" gradientUnits="userSpaceOnUse" id="gradient9" spreadMethod="pad" x1="-819.2" x2="819.2">
      <stop offset="0.0" stop-color="#9e9892"/>
      <stop offset="0.38823529411764707" stop-color="#f1f2e1"/>
      <stop offset="0.6470588235294118" stop-color="#eef2e1"/>
      <stop offset="1.0" stop-color="#9c9794"/>
    </linearGradient>
    <linearGradient gradientTransform="matrix(0.0, 0.0024, -0.0027, 0.0, 3.65, -15.0)" gradientUnits="userSpaceOnUse" id="gradient10" spreadMethod="pad" x1="-819.2" x2="819.2">
      <stop offset="0.23529411764705882" stop-color="#736028"/>
      <stop offset="0.2627450980392157" stop-color="#9f8e4e"/>
      <stop offset="1.0" stop-color="#dfc98a"/>
    </linearGradient>
    <linearGradient gradientTransform="matrix(0.0, 0.0024, 0.0027, 0.0, -3.65, -15.0)" gradientUnits="userSpaceOnUse" id="gradient11" spreadMethod="pad" x1="-819.2" x2="819.2">
      <stop offset="0.23529411764705882" stop-color="#736028"/>
      <stop offset="0.2627450980392157" stop-color="#9f8e4e"/>
      <stop offset="1.0" stop-color="#dfc98a"/>
    </linearGradient>
    <linearGradient gradientTransform="matrix(0.0061, 0.0, 0.0, 0.0012, 0.0, -33.0)" gradientUnits="userSpaceOnUse" id="gradient12" spreadMethod="pad" x1="-819.2" x2="819.2">
      <stop offset="0.0" stop-color="#665026"/>
      <stop offset="0.3803921568627451" stop-color="#e4d17c"/>
      <stop offset="0.8" stop-color="#eede97"/>
      <stop offset="1.0" stop-color="#cdb163"/>
    </linearGradient>
    <linearGradient gradientTransform="matrix(0.0073, 0.0, 0.0, 6.0E-4, 0.0, -12.5)" gradientUnits="userSpaceOnUse" id="gradient13" spreadMethod="pad" x1="-819.2" x2="819.2">
      <stop offset="0.0" stop-color="#565021"/>
      <stop offset="0.39215686274509803" stop-color="#c9b452"/>
      <stop offset="0.592156862745098" stop-color="#c9b452"/>
      <stop offset="1.0" stop-color="#565021"/>
    </linearGradient>
    <linearGradient gradientTransform="matrix(0.0037, 0.0, 0.0, 6.0E-4, 0.0, -12.5)" gradientUnits="userSpaceOnUse" id="gradient14" spreadMethod="pad" x1="-819.2" x2="819.2">
      <stop offset="0.0" stop-color="#565021"/>
      <stop offset="0.39215686274509803" stop-color="#c9b452"/>
      <stop offset="0.5882352941176471" stop-color="#c9b452"/>
      <stop offset="1.0" stop-color="#565021"/>
    </linearGradient>
    <radialGradient cx="0" cy="0" gradientTransform="matrix(0.0123, 0.0, 0.0, 0.0166, 8.4, -32.35)" gradientUnits="userSpaceOnUse" id="gradient15" r="819.2" spreadMethod="pad">
      <stop offset="0.03529411764705882" stop-color="#fbefbb"/>
      <stop offset="0.054901960784313725" stop-color="#c6ae40"/>
      <stop offset="0.27450980392156865" stop-color="#d3c172"/>
      <stop offset="1.0" stop-color="#f1e19a"/>
    </radialGradient>
    <radialGradient cx="0" cy="0" gradientTransform="matrix(-0.0157, 0.0, 0.0, 0.0166, -8.3, -32.1)" gradientUnits="userSpaceOnUse" id="gradient16" r="819.2" spreadMethod="pad">
      <stop offset="0.03529411764705882" stop-color="#af9341"/>
      <stop offset="0.13333333333333333" stop-color="#73612f"/>
      <stop offset="0.2627450980392157" stop-color="#95834d"/>
      <stop offset="0.7607843137254902" stop-color="#52402e"/>
    </radialGradient>
    <linearGradient gradientTransform="matrix(-0.0021, -0.0095, 0.0265, -0.0057, -6.15, -34.75)" gradientUnits="userSpaceOnUse" id="gradient17" spreadMethod="pad" x1="-819.2" x2="819.2">
      <stop offset="0.058823529411764705" stop-color="#7a6f4a" stop-opacity="0.0"/>
      <stop offset="0.23137254901960785" stop-color="#b49743"/>
      <stop offset="1.0" stop-color="#998342"/>
    </linearGradient>
    <linearGradient gradientTransform="matrix(0.0012, -0.0107, 0.0269, 0.0031, -6.2, -37.05)" gradientUnits="userSpaceOnUse" id="gradient18" spreadMethod="pad" x1="-819.2" x2="819.2">
      <stop offset="0.043137254901960784" stop-color="#7a6f4a" stop-opacity="0.0"/>
      <stop offset="0.17254901960784313" stop-color="#7a6f4a"/>
      <stop offset="1.0" stop-color="#7c714c"/>
    </linearGradient>
    <linearGradient gradientTransform="matrix(0.0129, 0.0, 0.0, 0.0226, 0.0, -46.5)" gradientUnits="userSpaceOnUse" id="gradient19" spreadMethod="pad" x1="-819.2" x2="819.2">
      <stop offset="0.17254901960784313" stop-color="#52402e"/>
      <stop offset="0.49019607843137253" stop-color="#c6b564"/>
      <stop offset="0.7764705882352941" stop-color="#eada95"/>
      <stop offset="1.0" stop-color="#9c8a38"/>
    </linearGradient>
    <linearGradient gradientTransform="matrix(0.0073, 0.0, 0.0, 0.0149, 0.0, -50.05)" gradientUnits="userSpaceOnUse" id="gradient20" spreadMethod="pad" x1="-819.2" x2="819.2">
      <stop offset="0.0" stop-color="#baad76"/>
      <stop offset="0.5294117647058824" stop-color="#7e6c38"/>
      <stop offset="1.0" stop-color="#b89e54"/>
    </linearGradient>
    <linearGradient gradientTransform="matrix(0.0148, 0.0, 0.0, 0.0269, 0.0, -46.0)" gradientUnits="userSpaceOnUse" id="gradient21" spreadMethod="pad" x1="-819.2" x2="819.2">
      <stop offset="0.023529411764705882" stop-color="#79635b"/>
      <stop offset="0.11372549019607843" stop-color="#5e4b3c"/>
      <stop offset="0.20392156862745098" stop-color="#52402e"/>
      <stop offset="0.5215686274509804" stop-color="#c6b564"/>
      <stop offset="0.7450980392156863" stop-color="#eada95"/>
      <stop offset="1.0" stop-color="#9c8a38"/>
    </linearGradient>
    <linearGradient gradientTransform="matrix(0.0109, 0.0, 0.0, 0.0217, 0.0, -46.45)" gradientUnits="userSpaceOnUse" id="gradient22" spreadMethod="pad" x1="-819.2" x2="819.2">
      <stop offset="0.0" stop-color="#a58f52"/>
      <stop offset="0.2" stop-color="#867546"/>
      <stop offset="0.5098039215686274" stop-color="#94792c"/>
      <stop offset="0.8274509803921568" stop-color="#c0af61"/>
      <stop offset="1.0" stop-color="#a3893f"/>
    </linearGradient>
    <linearGradient gradientTransform="matrix(0.0148, 0.0, 0.0, 0.0269, 2.0, -46.05)" gradientUnits="userSpaceOnUse" id="gradient23" spreadMethod="pad" x1="-819.2" x2="819.2">
      <stop offset="0.023529411764705882" stop-color="#79635b"/>
      <stop offset="0.11372549019607843" stop-color="#5e4b3c"/>
      <stop offset="0.20392156862745098" stop-color="#52402e"/>
      <stop offset="0.5607843137254902" stop-color="#aa9637"/>
      <stop offset="0.7019607843137254" stop-color="#e5d58e"/>
      <stop offset="0.796078431372549" stop-color="#eada95"/>
      <stop offset="0.9450980392156862" stop-color="#9c8a38"/>
    </linearGradient>
    <linearGradient gradientTransform="matrix(0.0148, 0.0, 0.0, 0.0269, -0.85, -46.35)" gradientUnits="userSpaceOnUse" id="gradient24" spreadMethod="pad" x1="-819.2" x2="819.2">
      <stop offset="0.023529411764705882" stop-color="#79635b"/>
      <stop offset="0.10196078431372549" stop-color="#5e4b3c"/>
      <stop offset="0.5215686274509804" stop-color="#c6b564"/>
      <stop offset="0.7450980392156863" stop-color="#eada95"/>
      <stop offset="1.0" stop-color="#9c8a38"/>
    </linearGradient>
    <linearGradient gradientTransform="matrix(-0.0019, 0.001, -0.001, -0.0019, 8.1, -65.85)" gradientUnits="userSpaceOnUse" id="gradient25" spreadMethod="pad" x1="-819.2" x2="819.2">
      <stop offset="0.23137254901960785" stop-color="#545c55"/>
      <stop offset="1.0" stop-color="#101210"/>
    </linearGradient>
    <linearGradient gradientTransform="matrix(0.0019, 0.001, 0.001, -0.0019, -8.1, -65.85)" gradientUnits="userSpaceOnUse" id="gradient26" spreadMethod="pad" x1="-819.2" x2="819.2">
      <stop offset="0.0" stop-color="#434943"/>
      <stop offset="1.0" stop-color="#101210"/>
    </linearGradient>
    <radialGradient cx="0" cy="0" gradientTransform="matrix(0.0014, 6.0E-4, -8.0E-4, 0.0018, -8.35, -32.0)" gradientUnits="userSpaceOnUse" id="gradient27" r="819.2" spreadMethod="pad">
      <stop offset="0.0" stop-color="#ffffff" stop-opacity="0.5019608"/>
      <stop offset="1.0" stop-color="#8b7d56" stop-opacity="0.0"/>
    </radialGradient>
    <linearGradient gradientTransform="matrix(0.0022, -9.0E-4, 0.0015, 0.0034, -0.95, 73.5)" gradientUnits="userSpaceOnUse" id="gradient28" spreadMethod="pad" x1="-819.2" x2="819.2">
      <stop offset="0.0" stop-color="#f0fbff"/>
      <stop offset="1.0" stop-color="#87d3f8"/>
    </linearGradient>
    <linearGradient gradientTransform="matrix(0.0018, 0.0032, -0.0042, 0.0024, -5.35, 77.6)" gradientUnits="userSpaceOnUse" id="gradient29" spreadMethod="pad" x1="-819.2" x2="819.2">
      <stop offset="0.0" stop-color="#d5f1ff"/>
      <stop offset="1.0" stop-color="#ffffff"/>
    </linearGradient>
    <linearGradient gradientTransform="matrix(0.0054, 0.0, 0.0, 0.0012, -0.05, 66.0)" gradientUnits="userSpaceOnUse" id="gradient30" spreadMethod="pad" x1="-819.2" x2="819.2">
      <stop offset="0.0" stop-color="#565021"/>
      <stop offset="0.39215686274509803" stop-color="#c9b452"/>
      <stop offset="0.5882352941176471" stop-color="#c9b452"/>
      <stop offset="1.0" stop-color="#565021"/>
    </linearGradient>
    <radialGradient cx="0" cy="0" gradientTransform="matrix(0.002, 0.0, 0.0, 0.0074, 0.45, -29.1)" gradientUnits="userSpaceOnUse" id="gradient31" r="819.2" spreadMethod="pad">
      <stop offset="0.2627450980392157" stop-color="#eee7ac"/>
      <stop offset="1.0" stop-color="#a58d4b"/>
    </radialGradient>
    <radialGradient cx="0" cy="0" gradientTransform="matrix(-0.0012, 0.0, 0.0, 0.0048, 0.0, 70.0)" gradientUnits="userSpaceOnUse" id="gradient32" r="819.2" spreadMethod="pad">
      <stop offset="0.3254901960784314" stop-color="#c9b452"/>
      <stop offset="1.0" stop-color="#7a6527"/>
    </radialGradient>
    <linearGradient gradientTransform="matrix(-0.001, 0.0, 0.0, 0.0012, -4.45, 65.65)" gradientUnits="userSpaceOnUse" id="gradient33" spreadMethod="pad" x1="-819.2" x2="819.2">
      <stop offset="0.0" stop-color="#c2aa3d"/>
      <stop offset="1.0" stop-color="#565021"/>
    </linearGradient>
    <linearGradient gradientTransform="matrix(0.001, 0.0, 0.0, 0.0012, 4.45, 65.65)" gradientUnits="userSpaceOnUse" id="gradient34" spreadMethod="pad" x1="-819.2" x2="819.2">
      <stop offset="0.0" stop-color="#c2aa3d"/>
      <stop offset="1.0" stop-color="#565021"/>
    </linearGradient>
    <radialGradient cx="0" cy="0" gradientTransform="matrix(0.0012, 0.0, 0.0, 0.0048, 0.0, 70.0)" gradientUnits="userSpaceOnUse" id="gradient35" r="819.2" spreadMethod="pad">
      <stop offset="0.3254901960784314" stop-color="#c9b452"/>
      <stop offset="1.0" stop-color="#7a6527"/>
    </radialGradient>
    <linearGradient gradientTransform="matrix(0.002, 0.003, -0.0025, 0.0017, 1.7, -50.6)" gradientUnits="userSpaceOnUse" id="gradient36" spreadMethod="pad" x1="-819.2" x2="819.2">
      <stop offset="0.0" stop-color="#9776fa"/>
      <stop offset="0.011764705882352941" stop-color="#b0d2ff"/>
      <stop offset="1.0" stop-color="#f9ebfe"/>
    </linearGradient>
    <linearGradient gradientTransform="matrix(0.0024, 0.0, 0.0, 0.0031, -2.0, -55.45)" gradientUnits="userSpaceOnUse" id="gradient37" spreadMethod="pad" x1="-819.2" x2="819.2">
      <stop offset="0.0" stop-color="#b8edfe"/>
      <stop offset="1.0" stop-color="#ccd1ff"/>
    </linearGradient>
    <linearGradient gradientTransform="matrix(0.0024, 0.0, 0.0, 0.0031, 2.0, -55.5)" gradientUnits="userSpaceOnUse" id="gradient38" spreadMethod="pad" x1="-819.2" x2="819.2">
      <stop offset="0.0" stop-color="#ffffff"/>
      <stop offset="1.0" stop-color="#ffffff"/>
    </linearGradient>
    <linearGradient gradientTransform="matrix(0.0, 0.0032, -0.0025, 0.0, -0.15, -31.0)" gradientUnits="userSpaceOnUse" id="gradient39" spreadMethod="pad" x1="-819.2" x2="819.2">
      <stop offset="0.0" stop-color="#3198ff"/>
      <stop offset="1.0" stop-color="#0246c4"/>
    </linearGradient>
    <linearGradient gradientTransform="matrix(0.0024, -0.0031, 0.0024, 0.0019, -1.5, -51.05)" gradientUnits="userSpaceOnUse" id="gradient40" spreadMethod="pad" x1="-819.2" x2="819.2">
      <stop offset="0.0" stop-color="#ebfefd"/>
      <stop offset="1.0" stop-color="#80b6ff"/>
    </linearGradient>
    <linearGradient gradientTransform="matrix(0.0024, -0.0031, 0.0024, 0.0019, -2.0, -50.5)" gradientUnits="userSpaceOnUse" id="gradient41" spreadMethod="pad" x1="-819.2" x2="819.2">
      <stop offset="0.0" stop-color="#e2fdfe"/>
      <stop offset="1.0" stop-color="#8ec6fd"/>
    </linearGradient>
    <radialGradient cx="0" cy="0" gradientTransform="matrix(0.001, 0.0, 0.0, 0.0022, 0.2, -29.55)" gradientUnits="userSpaceOnUse" id="gradient42" r="819.2" spreadMethod="pad">
      <stop offset="0.0" stop-color="#ffffff"/>
      <stop offset="1.0" stop-color="#ffffff" stop-opacity="0.0"/>
    </radialGradient>
  </defs>
</svg>
