<?xml version="1.0" encoding="UTF-8" standalone="no"?>
<svg xmlns:xlink="http://www.w3.org/1999/xlink" height="103.0px" width="232.4px" xmlns="http://www.w3.org/2000/svg">
  <g transform="matrix(1.0, 0.0, 0.0, 1.0, 16.0, 31.0)">
    <path d="M131.8 -14.9 Q158.75 -4.95 182.05 11.15 201.35 24.5 204.5 26.95 212.0 32.7 214.25 37.25 216.4 41.45 216.4 49.7 L216.0 72.0 Q204.25 69.85 187.95 67.8 L162.25 64.75 Q135.05 61.3 128.0 56.0 116.5 46.2 109.4 40.85 96.7 31.25 80.15 24.4 40.35 8.0 -16.0 8.0 L-16.0 -26.95 Q8.3 -31.0 35.0 -31.0 88.2 -31.0 131.8 -14.9" fill="#ffa2d0" fill-rule="evenodd" stroke="none"/>
  </g>
</svg>
