<?xml version="1.0" encoding="UTF-8" standalone="no"?>
<svg xmlns:xlink="http://www.w3.org/1999/xlink" height="215.0px" width="261.15px" xmlns="http://www.w3.org/2000/svg">
  <g transform="matrix(1.0, 0.0, 0.0, 1.0, 16.0, 31.0)">
    <path d="M131.8 -14.9 Q158.75 -4.95 182.05 11.15 243.0 53.35 243.0 113.0 243.0 122.2 244.5 136.9 245.65 148.0 244.75 152.85 243.45 159.95 237.35 166.65 231.0 173.65 216.0 184.0 187.9 172.15 147.15 140.9 134.4 131.1 121.95 120.6 L112.0 112.0 Q125.05 112.0 129.1 106.65 132.4 102.35 130.1 93.8 129.1 90.2 124.05 78.0 120.0 68.35 120.0 64.0 120.0 40.8 80.15 24.4 40.35 8.0 -16.0 8.0 L-16.0 -26.95 Q8.3 -31.0 35.0 -31.0 88.2 -31.0 131.8 -14.9" fill="#ffa2d0" fill-rule="evenodd" stroke="none"/>
  </g>
</svg>
