<?xml version="1.0" encoding="UTF-8" standalone="no"?>
<svg xmlns:xlink="http://www.w3.org/1999/xlink" height="266.2px" width="259.0px" xmlns="http://www.w3.org/2000/svg">
  <g transform="matrix(1.0, 0.0, 0.0, 1.0, 16.0, 31.0)">
    <path d="M131.8 -14.9 Q158.75 -4.95 182.05 11.15 243.0 53.35 243.0 113.0 243.0 172.65 182.05 214.8 155.75 233.05 137.9 234.95 L124.05 234.4 112.0 232.0 56.0 120.0 Q81.3 120.0 102.1 97.8 110.25 89.1 115.3 79.25 120.0 70.1 120.0 64.0 120.0 40.8 80.15 24.4 40.35 8.0 -16.0 8.0 L-16.0 -26.95 Q8.3 -31.0 35.0 -31.0 88.2 -31.0 131.8 -14.9" fill="#ffa2d0" fill-rule="evenodd" stroke="none"/>
  </g>
</svg>
