<?xml version="1.0" encoding="UTF-8" standalone="no"?>
<svg xmlns:xlink="http://www.w3.org/1999/xlink" height="26.75px" width="14.9px" xmlns="http://www.w3.org/2000/svg">
  <g transform="matrix(1.0, 0.0, 0.0, 1.0, -7.0, -1.25)">
    <path d="M21.75 18.1 Q21.5 19.45 20.9 20.45 19.8 22.1 18.8 22.55 15.3 24.3 11.75 22.1 11.05 21.55 11.0 22.0 L11.0 28.0 7.0 28.0 Q7.45 26.85 7.45 24.4 L7.45 6.15 Q7.5 4.35 9.4 2.75 10.55 1.7 12.85 1.3 L16.3 1.7 Q17.05 2.0 17.85 2.7 L19.1 4.4 Q20.25 7.7 18.0 10.0 20.2 11.45 20.85 12.85 22.3 15.25 21.75 18.1 M12.85 2.65 Q12.25 2.8 11.7 3.4 11.0 4.2 11.0 6.0 L11.0 20.0 Q11.65 20.95 13.0 21.35 L14.95 21.5 Q16.3 21.3 17.0 19.85 18.05 16.85 16.85 13.95 L16.15 12.8 Q15.45 11.7 13.5 11.25 L11.75 10.75 13.4 10.3 Q15.15 9.9 15.75 8.75 16.45 6.8 15.8 4.8 15.4 3.6 14.65 3.05 13.8 2.45 12.85 2.65" fill="url(#gradient0)" fill-rule="evenodd" stroke="none"/>
    <path d="M11.75 10.75 L12.0 10.65 12.0 10.85 11.75 10.75" fill="#8d8d8d" fill-rule="evenodd" stroke="none"/>
    <path d="M20.9 20.45 Q19.8 22.1 18.8 22.55 16.4 23.75 13.95 23.1 L11.75 22.1 Q11.05 21.55 11.0 22.0 L11.0 28.0 8.15 28.0 8.45 24.75 8.45 6.5 Q8.5 4.7 10.4 3.1 11.55 2.05 13.85 1.65 L16.7 1.9 Q17.25 2.15 17.85 2.7 L19.1 4.4 Q20.25 7.7 18.0 10.0 20.2 11.45 20.85 12.85 22.3 15.25 21.75 18.1 21.5 19.45 20.9 20.45 M15.65 3.4 Q15.1 3.0 14.55 2.95 13.7 2.45 12.85 2.65 12.25 2.8 11.7 3.4 11.0 4.2 11.0 6.0 L11.0 20.0 Q11.65 20.95 13.0 21.35 L13.3 21.45 14.0 21.7 15.95 21.85 Q17.3 21.65 18.0 20.2 19.05 17.2 17.85 14.3 L17.15 13.15 Q16.5 12.1 14.75 11.65 L14.5 11.6 12.75 11.1 12.8 11.1 14.4 10.65 Q16.15 10.25 16.75 9.1 17.45 7.15 16.8 5.15 16.4 3.95 15.65 3.4" fill="url(#gradient1)" fill-rule="evenodd" stroke="none"/>
  </g>
  <defs>
    <linearGradient gradientTransform="matrix(-0.0024, -0.016, 0.0161, -0.0024, 14.45, 14.35)" gradientUnits="userSpaceOnUse" id="gradient0" spreadMethod="pad" x1="-819.2" x2="819.2">
      <stop offset="0.0" stop-color="#133eb9"/>
      <stop offset="1.0" stop-color="#0b1a42"/>
    </linearGradient>
    <linearGradient gradientTransform="matrix(-0.0034, -0.0158, 0.0157, -0.0034, 15.0, 14.0)" gradientUnits="userSpaceOnUse" id="gradient1" spreadMethod="pad" x1="-819.2" x2="819.2">
      <stop offset="0.0" stop-color="#4a9ff4"/>
      <stop offset="0.6235294117647059" stop-color="#3b90ee"/>
      <stop offset="1.0" stop-color="#1e72e1"/>
    </linearGradient>
  </defs>
</svg>
