<?xml version="1.0" encoding="UTF-8" standalone="no"?>
<svg xmlns:xlink="http://www.w3.org/1999/xlink" height="16.5px" width="18.5px" xmlns="http://www.w3.org/2000/svg">
  <g transform="matrix(1.0, 0.0, 0.0, 1.0, -5.5, -6.25)">
    <path d="M23.9 17.85 L23.65 19.8 23.45 20.45 Q23.0 21.85 22.15 22.35 20.35 23.3 19.05 20.7 L18.6 19.75 Q18.45 19.25 18.15 19.75 17.15 21.2 15.9 21.85 13.5 23.15 10.7 22.6 8.85 22.3 7.2 20.6 L6.4 19.45 Q4.85 16.25 5.9 12.05 L5.95 11.85 6.0 11.65 Q6.75 8.7 9.45 7.1 11.45 5.95 13.75 6.4 16.6 6.75 17.9 10.05 18.1 10.55 18.3 9.95 L19.9 6.6 24.0 6.6 19.95 16.6 19.95 16.7 Q19.85 17.25 20.25 17.95 20.8 19.15 21.6 19.5 22.05 19.65 22.45 19.15 L22.85 18.4 22.85 18.25 22.9 18.25 22.95 17.85 23.9 17.85 M11.15 9.4 Q10.15 10.55 9.9 11.25 L9.85 11.6 Q9.35 13.85 9.75 17.45 9.9 18.55 10.45 19.75 11.35 21.15 13.2 20.55 13.75 20.45 14.25 19.9 15.1 18.85 15.55 17.55 L16.45 15.1 16.4 14.5 Q16.05 11.8 14.8 9.85 13.8 8.5 12.55 8.65 11.65 8.8 11.15 9.4" fill="url(#gradient0)" fill-rule="evenodd" stroke="none"/>
    <path d="M23.8 7.1 L19.9 16.6 Q19.55 17.35 20.1 18.35 20.5 19.25 21.2 19.8 L22.5 19.9 Q23.15 19.5 23.45 18.35 L23.75 18.35 23.4 20.45 Q22.95 21.85 22.1 22.35 L21.3 22.6 Q20.4 22.25 19.65 20.8 L19.2 19.85 Q18.8 18.8 18.5 19.05 L18.1 19.75 Q17.1 21.2 15.85 21.85 13.75 23.0 11.35 22.7 L11.3 22.7 Q10.45 22.55 9.65 22.0 L8.15 20.6 7.35 19.45 Q5.8 16.25 6.85 12.05 7.65 8.95 9.95 7.6 11.65 6.6 13.6 6.8 L13.7 6.8 14.0 6.85 14.15 6.9 Q16.55 7.45 17.75 10.45 18.25 11.65 18.8 10.45 L20.3 7.1 23.8 7.1 M12.5 8.65 Q11.6 8.8 11.1 9.4 10.25 10.4 10.1 11.7 9.6 14.1 10.0 17.55 10.15 18.7 10.7 19.85 11.4 20.85 12.45 21.1 L13.7 21.05 14.75 20.4 Q15.6 19.35 16.05 18.05 L17.0 15.45 17.0 14.6 Q16.65 11.9 15.4 9.95 14.5 8.7 13.4 8.75 L12.5 8.65" fill="url(#gradient1)" fill-rule="evenodd" stroke="none"/>
  </g>
  <defs>
    <linearGradient gradientTransform="matrix(-0.0023, -0.0108, 0.0098, -0.0021, 14.8, 14.9)" gradientUnits="userSpaceOnUse" id="gradient0" spreadMethod="pad" x1="-819.2" x2="819.2">
      <stop offset="0.0" stop-color="#ca1111"/>
      <stop offset="1.0" stop-color="#440909"/>
    </linearGradient>
    <linearGradient gradientTransform="matrix(-0.0015, -0.011, 0.0097, -0.0013, 14.9, 14.65)" gradientUnits="userSpaceOnUse" id="gradient1" spreadMethod="pad" x1="-819.2" x2="819.2">
      <stop offset="0.0" stop-color="#fb2f2f"/>
      <stop offset="0.6509803921568628" stop-color="#dc2020"/>
      <stop offset="1.0" stop-color="#aa2222"/>
    </linearGradient>
  </defs>
</svg>
