<?xml version="1.0" encoding="UTF-8" standalone="no"?>
<svg xmlns:xlink="http://www.w3.org/1999/xlink" height="220.0px" width="152.0px" xmlns="http://www.w3.org/2000/svg">
  <g transform="matrix(1.0, 0.0, 0.0, 1.0, 3.0, 15.0)">
    <path d="M56.0 -12.0 L56.0 -3.0 146.0 -3.0 Q149.0 -3.0 149.0 0.0 L149.0 202.0 Q149.0 205.0 146.0 205.0 L0.0 205.0 Q-3.0 205.0 -3.0 202.0 L-3.0 -12.0 Q-3.0 -15.0 0.0 -15.0 L53.0 -15.0 Q56.0 -15.0 56.0 -12.0 M144.0 1.0 L2.0 1.0 Q1.0 1.0 1.0 2.0 L1.0 200.0 Q1.0 201.0 2.0 201.0 L144.0 201.0 Q145.0 201.0 145.0 200.0 L145.0 2.0 Q145.0 1.0 144.0 1.0" fill="#000000" fill-rule="evenodd" stroke="none"/>
    <path d="M55.0 -12.0 L55.0 -2.0 146.0 -2.0 Q148.0 -2.0 148.0 0.0 L148.0 202.0 Q148.0 204.0 146.0 204.0 L0.0 204.0 Q-2.0 204.0 -2.0 202.0 L-2.0 -12.0 Q-2.0 -14.0 0.0 -14.0 L53.0 -14.0 Q55.0 -14.0 55.0 -12.0 M146.0 2.0 Q146.0 0.0 144.0 0.0 L2.0 0.0 Q0.0 0.0 0.0 2.0 L0.0 200.0 Q0.0 202.0 2.0 202.0 L144.0 202.0 Q146.0 202.0 146.0 200.0 L146.0 2.0" fill="#00ff00" fill-rule="evenodd" stroke="none"/>
  </g>
</svg>
