<?xml version="1.0" encoding="UTF-8" standalone="no"?>
<svg xmlns:xlink="http://www.w3.org/1999/xlink" height="11.6px" width="11.6px" xmlns="http://www.w3.org/2000/svg">
  <g transform="matrix(1.0, 0.0, 0.0, 1.0, 5.8, 5.8)">
    <path d="M-5.8 0.0 L-5.45 -0.7 -0.7 -5.45 Q-0.35 -5.8 0.0 -5.8 L0.0 0.0 -5.8 0.0 0.0 0.0 0.0 -5.8 Q0.35 -5.8 0.7 -5.45 L5.45 -0.7 Q6.15 0.0 5.45 0.7 L0.7 5.45 Q0.0 6.15 -0.7 5.45 L-5.45 0.7 -5.8 0.0 M0.0 0.0 L0.0 5.5 Q0.35 5.5 0.65 5.15 L5.15 0.65 5.5 0.0 0.0 0.0 5.5 0.0 5.15 0.65 0.65 5.15 Q0.35 5.5 0.0 5.5 L0.0 0.0" fill="#ffffff" fill-rule="evenodd" stroke="none"/>
    <path d="M0.0 -5.8 Q-0.35 -5.8 -0.7 -5.45 L-5.45 -0.7 -5.8 0.0 0.0 0.0 0.0 -5.8 Q0.35 -5.8 0.7 -5.45 L5.45 -0.7 Q6.15 0.0 5.45 0.7 L0.7 5.45 Q0.0 6.15 -0.7 5.45 L-5.45 0.7 -5.8 0.0 M0.0 0.0 L5.5 0.0 5.15 0.65 0.65 5.15 Q0.35 5.5 0.0 5.5 L0.0 0.0" fill="none" stroke="#ffffff" stroke-linecap="round" stroke-linejoin="round" stroke-width="0.05"/>
  </g>
</svg>
