<?xml version="1.0" encoding="UTF-8" standalone="no"?>
<svg xmlns:xlink="http://www.w3.org/1999/xlink" height="12.05px" width="12.35px" xmlns="http://www.w3.org/2000/svg">
  <g transform="matrix(1.0, 0.0, 0.0, 1.0, 6.25, 5.95)">
    <path d="M3.25 -3.1 L5.05 -1.45 6.0 -0.2 Q6.0 0.2 3.95 2.4 2.65 4.05 2.05 4.05 L-0.25 1.95 Q0.0 1.25 0.0 -0.05 0.0 -0.65 -0.5 -1.2 L-1.3 -2.0 -1.9 -2.65 -2.3 -3.4 Q-2.45 -4.4 0.1 -5.85 L3.25 -3.1 M1.05 5.4 Q0.35 6.0 0.0 6.0 L-1.3 5.2 -2.55 4.0 Q-2.8 3.65 -0.5 2.25 -0.15 2.25 1.75 4.35 L1.05 5.4 M-1.35 -1.55 L-0.5 -0.9 -0.4 -0.25 Q-0.4 1.3 -0.85 1.75 L-2.05 2.9 -2.95 3.15 Q-3.6 3.15 -6.15 0.1 L-4.55 -2.0 Q-3.4 -3.15 -3.25 -3.15 L-3.0 -3.05 -1.35 -1.55" fill="#ff0000" fill-rule="evenodd" stroke="none"/>
    <path d="M3.25 -3.1 L5.05 -1.45 6.0 -0.2 Q6.0 0.2 3.95 2.4 2.65 4.05 2.05 4.05 L-0.25 1.95 Q0.0 1.25 0.0 -0.05 0.0 -0.65 -0.5 -1.2 L-1.3 -2.0 -1.9 -2.65 -2.3 -3.4 Q-2.45 -4.4 0.1 -5.85 L3.25 -3.1 M1.05 5.4 Q0.35 6.0 0.0 6.0 L-1.3 5.2 -2.55 4.0 Q-2.8 3.65 -0.5 2.25 -0.15 2.25 1.75 4.35 L1.05 5.4 M-1.35 -1.55 L-0.5 -0.9 -0.4 -0.25 Q-0.4 1.3 -0.85 1.75 L-2.05 2.9 -2.95 3.15 Q-3.6 3.15 -6.15 0.1 L-4.55 -2.0 Q-3.4 -3.15 -3.25 -3.15 L-3.0 -3.05 -1.35 -1.55" fill="none" stroke="#ff0000" stroke-linecap="round" stroke-linejoin="round" stroke-width="0.25"/>
  </g>
</svg>
