<?xml version="1.0" encoding="UTF-8" standalone="no"?>
<svg xmlns:xlink="http://www.w3.org/1999/xlink" height="12.95px" width="17.85px" xmlns="http://www.w3.org/2000/svg">
  <g transform="matrix(1.0, 0.0, 0.0, 1.0, 8.7, 2.9)">
    <path d="M0.35 -1.6 Q0.35 -2.5 1.4 -2.8 2.25 -2.8 2.9 -2.4 3.55 -1.95 3.55 -1.4 3.55 -1.1 2.7 -0.75 L1.5 -0.45 Q1.3 -0.4 0.35 -1.6 M7.9 0.7 Q7.9 1.35 7.6 1.35 L7.1 1.05 Q6.9 0.65 7.45 0.3 L7.7 0.5 7.9 0.7 M6.65 1.65 L5.55 1.3 4.85 0.35 5.4 -0.3 6.75 0.25 6.8 0.9 6.65 1.65 M6.95 2.95 L6.95 3.5 6.9 3.9 6.6 3.95 5.9 3.75 5.3 3.25 Q5.4 2.8 6.05 2.5 L6.95 2.95 M6.25 5.35 L4.85 5.4 5.05 4.2 6.25 4.6 6.25 5.35 M6.8 5.45 L7.2 5.85 6.8 6.05 Q6.6 6.1 6.5 6.25 L6.25 5.65 6.8 5.45 M9.05 4.2 L8.55 5.1 7.8 4.3 Q8.25 3.85 8.5 3.85 L9.05 4.2 M3.0 2.9 L3.25 2.65 3.85 2.55 Q4.45 2.55 4.45 3.1 L3.75 3.8 2.85 3.2 3.0 2.9 M8.3 5.5 L7.8 5.9 7.3 5.45 Q7.6 5.05 7.85 5.1 L8.3 5.5 M0.9 1.05 L0.4 0.4 0.25 0.45 0.6 -0.1 1.45 0.5 0.9 1.05 M2.8 4.35 L3.35 4.0 3.65 4.7 3.2 5.0 2.8 4.35 M0.35 6.55 Q1.5 6.55 1.5 7.45 L1.1 7.5 Q-0.4 7.5 0.35 6.55 M0.4 8.5 L0.6 8.25 0.65 8.2 1.05 8.85 0.7 9.2 0.25 8.7 0.4 8.5 M1.6 7.9 L2.35 8.05 2.3 9.0 2.25 9.05 1.55 8.6 1.6 7.9 M5.7 6.9 L6.65 6.95 Q6.95 7.15 6.9 7.7 L6.55 7.9 6.25 8.05 5.95 7.55 5.7 6.9 M-1.95 -1.05 L-1.45 -1.95 -0.65 -1.4 -0.3 -1.0 Q-0.3 -0.5 -0.55 -0.2 L-0.85 0.05 Q-1.2 0.05 -1.7 -0.3 L-2.1 -0.7 -1.95 -1.05 M-1.6 2.85 Q-1.6 3.55 -1.75 3.7 L-2.4 3.8 -3.2 2.75 -2.5 2.05 Q-1.6 2.45 -1.6 2.85 M-4.4 1.9 L-5.6 2.1 -6.35 0.95 -5.8 0.25 -5.45 0.1 -4.35 0.4 Q-3.8 0.65 -3.8 0.9 -3.8 1.65 -4.4 1.9 M-4.75 2.7 L-4.45 3.15 -4.8 3.3 -5.45 3.35 -5.7 3.0 -5.7 2.55 -5.05 2.4 -4.75 2.7 M-3.5 4.25 L-2.8 4.35 -2.4 5.1 -2.75 5.15 Q-3.35 5.15 -3.55 4.3 L-3.5 4.25 M-4.55 6.05 L-5.15 5.25 -4.2 4.85 -3.55 5.65 -4.05 5.8 -4.55 6.05 M-2.25 4.6 Q-2.25 4.3 -1.65 4.3 L-1.35 4.75 -2.05 5.25 -2.25 4.6 M-1.45 5.95 Q-0.95 5.95 -0.6 6.55 -0.6 6.85 -1.25 6.85 L-1.75 6.85 -2.3 6.55 -2.4 6.15 -1.45 5.95 M-6.2 2.2 L-5.95 3.0 -6.05 3.9 Q-6.15 4.2 -6.6 4.2 L-7.35 4.15 -8.6 3.15 -7.75 1.95 Q-7.4 1.5 -7.1 1.5 -6.55 1.5 -6.2 2.2 M-5.35 5.9 L-5.3 5.9 -5.25 7.05 -5.9 6.25 Q-5.6 5.95 -5.35 5.9 M-1.0 8.35 L-1.6 8.25 -1.65 7.6 -0.95 7.6 -0.45 8.3 -1.0 8.35 M-2.15 7.55 L-2.25 8.1 -3.1 7.75 -2.9 6.95 Q-2.15 7.35 -2.15 7.55 M-3.8 7.75 L-4.7 7.35 -4.1 6.85 -3.9 7.25 -3.8 7.7 -3.8 7.75 M-1.0 9.95 L-1.5 9.4 -1.1 9.0 -0.6 9.5 -1.0 9.95" fill="#ff0000" fill-rule="evenodd" stroke="none"/>
    <path d="M0.35 -1.6 Q0.35 -2.5 1.4 -2.8 2.25 -2.8 2.9 -2.4 3.55 -1.95 3.55 -1.4 3.55 -1.1 2.7 -0.75 L1.5 -0.45 Q1.3 -0.4 0.35 -1.6 M7.9 0.7 Q7.9 1.35 7.6 1.35 L7.1 1.05 Q6.9 0.65 7.45 0.3 L7.7 0.5 7.9 0.7 M6.65 1.65 L5.55 1.3 4.85 0.35 5.4 -0.3 6.75 0.25 6.8 0.9 6.65 1.65 M6.95 2.95 L6.95 3.5 6.9 3.9 6.6 3.95 5.9 3.75 5.3 3.25 Q5.4 2.8 6.05 2.5 L6.95 2.95 M6.25 5.35 L4.85 5.4 5.05 4.2 6.25 4.6 6.25 5.35 M6.8 5.45 L7.2 5.85 6.8 6.05 Q6.6 6.1 6.5 6.25 L6.25 5.65 6.8 5.45 M9.05 4.2 L8.55 5.1 7.8 4.3 Q8.25 3.85 8.5 3.85 L9.05 4.2 M8.3 5.5 L7.85 5.1 Q7.6 5.05 7.3 5.45 L7.8 5.9 8.3 5.5 M3.0 2.9 L2.85 3.2 3.75 3.8 4.45 3.1 Q4.45 2.55 3.85 2.55 L3.25 2.65 3.0 2.9 M0.9 1.05 L0.4 0.4 0.25 0.45 0.6 -0.1 1.45 0.5 0.9 1.05 M2.8 4.35 L3.35 4.0 3.65 4.7 3.2 5.0 2.8 4.35 M0.35 6.55 Q1.5 6.55 1.5 7.45 L1.1 7.5 Q-0.4 7.5 0.35 6.55 M0.4 8.5 L0.6 8.25 0.65 8.2 1.05 8.85 0.7 9.2 0.25 8.7 0.4 8.5 M1.6 7.9 L2.35 8.05 2.3 9.0 2.25 9.05 1.55 8.6 1.6 7.9 M5.7 6.9 L6.65 6.95 Q6.95 7.15 6.9 7.7 L6.55 7.9 6.25 8.05 5.95 7.55 5.7 6.9 M-1.95 -1.05 L-1.45 -1.95 -0.65 -1.4 -0.3 -1.0 Q-0.3 -0.5 -0.55 -0.2 L-0.85 0.05 Q-1.2 0.05 -1.7 -0.3 L-2.1 -0.7 -2.15 -0.8 -1.95 -1.05 -2.1 -0.7 M-1.6 2.85 Q-1.6 3.55 -1.75 3.7 L-2.4 3.8 -3.2 2.75 -2.5 2.05 Q-1.6 2.45 -1.6 2.85 M-4.4 1.9 L-5.6 2.1 -6.35 0.95 -5.8 0.25 -5.45 0.1 -4.35 0.4 Q-3.8 0.65 -3.8 0.9 -3.8 1.65 -4.4 1.9 M-4.75 2.7 L-4.45 3.15 -4.8 3.3 -5.45 3.35 -5.7 3.0 -5.7 2.55 -5.05 2.4 -4.75 2.7 M-3.5 4.25 L-2.8 4.35 -2.4 5.1 -2.75 5.15 Q-3.35 5.15 -3.55 4.3 L-3.55 4.25 -3.5 4.25 M-4.55 6.05 L-5.15 5.25 -4.2 4.85 -3.55 5.65 -4.05 5.8 -4.55 6.05 M-2.25 4.6 Q-2.25 4.3 -1.65 4.3 L-1.35 4.75 -2.05 5.25 -2.25 4.6 M-1.45 5.95 Q-0.95 5.95 -0.6 6.55 -0.6 6.85 -1.25 6.85 L-1.75 6.85 -2.3 6.55 -2.4 6.15 -1.45 5.95 M-6.2 2.2 L-5.95 3.0 -6.05 3.9 Q-6.15 4.2 -6.6 4.2 L-7.35 4.15 -8.6 3.15 -7.75 1.95 Q-7.4 1.5 -7.1 1.5 -6.55 1.5 -6.2 2.2 M-5.35 5.9 Q-5.6 5.95 -5.9 6.25 L-5.25 7.05 -5.3 5.9 -5.35 5.9 M-1.0 8.35 L-1.6 8.25 -1.65 7.6 -0.95 7.6 -0.45 8.3 -1.0 8.35 M-2.15 7.55 Q-2.15 7.35 -2.9 6.95 L-3.1 7.75 -2.25 8.1 -2.15 7.55 M-3.8 7.7 L-3.8 7.75 -4.7 7.35 -4.1 6.85 -3.9 7.25 -3.8 7.7 M-1.0 9.95 L-1.5 9.4 -1.1 9.0 -0.6 9.5 -1.0 9.95" fill="none" stroke="#ff0000" stroke-linecap="round" stroke-linejoin="round" stroke-width="0.25"/>
  </g>
</svg>
