<?xml version="1.0" encoding="UTF-8" standalone="no"?>
<svg xmlns:xlink="http://www.w3.org/1999/xlink" height="139.45px" width="38.0px" xmlns="http://www.w3.org/2000/svg">
  <g transform="matrix(1.0, 0.0, 0.0, 1.0, 15.2, 70.85)">
    <path d="M20.2 -62.85 Q19.6 -61.6 19.5 -59.8 19.45 -58.8 18.65 -58.1 15.9 -55.7 15.5 -51.7 L15.15 -50.65 14.35 -49.85 Q13.45 -49.2 12.75 -47.5 12.1 -45.9 12.35 -44.9 12.65 -44.15 12.4 -43.3 12.15 -42.5 11.5 -42.0 10.6 -41.25 10.15 -39.65 L10.2 -39.65 Q9.8 -38.15 10.2 -37.25 L10.5 -35.95 Q10.5 -35.25 10.1 -34.65 L9.15 -33.75 Q7.95 -33.2 7.65 -31.85 7.3 -30.5 8.05 -29.4 8.55 -28.7 8.5 -27.8 8.4 -26.9 7.8 -26.25 5.55 -23.95 7.15 -21.25 7.6 -20.5 7.5 -19.6 7.35 -18.75 6.7 -18.15 5.5 -17.05 5.3 -15.75 L5.3 -15.7 Q5.2 -14.55 6.0 -13.5 6.45 -12.9 6.5 -12.05 6.5 -11.3 6.1 -10.6 4.9 -8.8 5.35 -6.9 L5.35 -6.85 Q5.5 -6.1 5.9 -5.65 6.45 -5.0 6.5 -4.2 6.55 -3.35 6.1 -2.65 4.95 -0.85 5.3 1.05 L5.55 1.6 5.95 2.4 Q6.45 3.05 6.5 3.85 6.55 4.65 6.1 5.35 4.95 7.15 5.3 9.05 L5.55 9.6 5.95 10.4 Q6.45 11.05 6.5 11.85 6.55 12.65 6.1 13.35 4.95 15.15 5.3 17.05 L5.55 17.6 5.95 18.4 Q6.5 19.1 6.5 20.0 L6.5 25.5 8.35 25.55 Q9.6 25.7 10.1 26.25 11.45 27.35 11.05 29.1 L10.1 31.4 5.5 35.2 5.5 47.2 Q5.2 53.75 3.15 58.65 L3.15 58.6 Q2.15 61.0 0.9 62.65 -1.8 66.35 -4.6 68.1 -5.95 68.95 -7.8 68.4 -8.7 68.1 -9.5 67.4 L-9.7 67.4 Q-12.0 67.4 -13.6 65.8 -15.2 64.2 -15.2 61.9 -15.2 59.65 -13.65 58.05 L-13.55 57.95 -13.5 57.85 -13.35 56.9 -13.35 56.85 Q-13.05 55.2 -12.0 54.35 -11.25 53.75 -10.5 53.7 L-8.9 53.15 Q-7.65 52.5 -7.15 51.8 -5.7 49.8 -5.5 46.8 L-5.5 35.2 -9.95 31.55 -10.0 31.5 -11.0 29.1 Q-11.45 27.35 -10.1 26.25 -9.6 25.7 -8.35 25.55 L-6.5 25.5 -6.5 -12.05 Q-5.95 -37.0 6.2 -55.9 12.6 -65.75 18.5 -70.0 19.45 -70.7 20.7 -70.8 21.95 -70.95 22.45 -70.35 22.95 -69.75 22.7 -68.4 L22.2 -66.8 Q20.65 -64.0 20.25 -62.95 L20.2 -62.85" fill="#000000" fill-rule="evenodd" stroke="none"/>
    <path d="M0.0 28.0 L-4.0 28.0 -4.0 -12.0 Q-3.45 -36.2 8.3 -54.55 14.2 -63.7 20.0 -68.0 8.9 -53.1 4.35 -39.85 0.15 -27.65 0.0 -12.0 L0.0 28.0" fill="url(#gradient0)" fill-rule="evenodd" stroke="none"/>
    <path d="M20.0 -68.0 L17.9 -63.9 Q17.15 -62.25 17.0 -60.0 13.55 -56.95 13.0 -52.0 11.55 -51.1 10.45 -48.5 9.3 -45.75 10.0 -44.0 8.45 -42.85 7.75 -40.3 7.05 -37.65 8.0 -36.0 5.8 -34.9 5.2 -32.45 4.6 -30.0 6.0 -28.0 2.45 -24.3 5.0 -20.0 3.0 -18.2 2.8 -16.0 2.55 -13.9 4.0 -12.0 2.15 -9.2 2.9 -6.3 3.25 -4.85 4.0 -4.0 2.2 -1.2 2.9 1.7 3.3 3.15 4.0 4.0 2.2 6.8 2.9 9.7 3.3 11.15 4.0 12.0 2.2 14.8 2.9 17.7 3.3 19.15 4.0 20.0 L4.0 28.0 0.0 28.0 0.0 -12.0 Q0.15 -27.65 4.35 -39.85 8.9 -53.1 20.0 -68.0" fill="url(#gradient1)" fill-rule="evenodd" stroke="none"/>
    <path d="M-8.05 61.0 L-8.4 60.6 Q-8.85 60.05 -9.7 60.05 -10.45 60.05 -11.0 60.6 -11.55 61.1 -11.55 61.9 -11.55 62.7 -11.0 63.2 -10.45 63.8 -9.7 63.8 -8.85 63.8 -8.4 63.2 -7.8 62.7 -7.8 61.9 L-7.85 61.5 -7.1 63.4 -7.6 64.0 Q-8.4 64.9 -9.7 64.9 -10.95 64.9 -11.85 64.0 -12.7 63.15 -12.7 61.9 -12.7 60.65 -11.85 59.75 -10.95 58.9 -9.7 58.9 L-8.8 59.05 -8.05 61.0" fill="url(#gradient2)" fill-rule="evenodd" stroke="none"/>
    <path d="M-3.0 36.0 L-3.0 34.0 3.0 34.0 3.0 36.0 -3.0 36.0" fill="url(#gradient3)" fill-rule="evenodd" stroke="none"/>
    <path d="M3.0 36.0 L3.0 47.0 -3.0 47.0 -3.0 36.0 3.0 36.0" fill="url(#gradient4)" fill-rule="evenodd" stroke="none"/>
    <path d="M-7.65 55.4 L-7.0 55.0 -1.0 61.0 -3.55 64.05 -7.65 55.4" fill="url(#gradient5)" fill-rule="evenodd" stroke="none"/>
    <path d="M-6.0 66.0 L-6.2 66.05 -7.0 66.0 Q-8.5 65.5 -9.9 62.6 -11.3 59.6 -10.9 57.3 L-10.5 56.4 -10.25 56.15 -6.0 65.95 -5.95 65.95 -6.0 66.0" fill="url(#gradient6)" fill-rule="evenodd" stroke="none"/>
    <path d="M-3.55 64.05 Q-4.35 64.9 -6.0 66.0 L-5.95 65.95 -6.0 65.95 -10.25 56.15 Q-8.75 56.0 -7.65 55.4 L-3.55 64.05" fill="url(#gradient7)" fill-rule="evenodd" stroke="none"/>
    <path d="M6.75 31.0 L3.0 34.0 -3.0 34.0 -6.75 31.0 6.75 31.0" fill="url(#gradient8)" fill-rule="evenodd" stroke="none"/>
    <path d="M-6.75 31.0 L-8.0 30.0 8.0 30.0 6.75 31.0 -6.75 31.0" fill="url(#gradient9)" fill-rule="evenodd" stroke="none"/>
    <path d="M7.0 28.0 L8.0 28.0 Q8.7 28.1 8.6 28.5 L8.0 30.0 -8.0 30.0 -8.6 28.5 Q-8.7 28.1 -8.0 28.0 L-7.0 28.0 0.0 28.0 7.0 28.0" fill="url(#gradient10)" fill-rule="evenodd" stroke="none"/>
    <path d="M-7.15 55.2 L-6.8 54.85 -0.8 60.85 -1.15 61.2 -7.15 55.2" fill="#000000" fill-rule="evenodd" stroke="none"/>
    <path d="M0.85 57.65 Q-0.1 59.95 -1.0 61.0 L-7.0 55.0 Q-6.1 54.5 -5.15 53.25 -3.3 50.75 -3.0 47.0 L3.0 47.0 Q2.75 53.1 0.85 57.65" fill="url(#gradient11)" fill-rule="evenodd" stroke="none"/>
    <path d="M2.75 50.5 L0.2 49.95 -3.35 49.3 -3.3 49.0 0.25 49.7 2.75 50.2 2.75 50.3 2.75 50.5 M0.5 58.55 L0.4 58.8 -1.35 57.0 -5.15 53.55 -5.05 53.3 -1.2 56.8 0.5 58.55 M2.05 54.05 L2.0 54.3 -1.35 52.7 -0.15 54.15 1.5 56.0 1.5 56.05 1.4 56.25 -0.35 54.3 -2.05 52.4 -4.0 51.5 -3.9 51.3 -2.1 52.1 2.05 54.05" fill="#2f2b26" fill-opacity="0.3019608" fill-rule="evenodd" stroke="none"/>
    <path d="M3.0 37.0 L-3.0 37.0 -3.0 36.0 3.0 36.0 3.0 37.0" fill="#000000" fill-opacity="0.15294118" fill-rule="evenodd" stroke="none"/>
    <path d="M0.5 37.6 L0.7 38.05 0.7 45.15 0.5 45.6 Q0.3 45.8 0.05 45.8 L-0.4 45.6 -0.55 45.2 -0.55 38.0 -0.4 37.6 0.05 37.45 0.5 37.6 M0.45 38.05 L0.3 37.8 0.05 37.7 -0.2 37.8 -0.3 38.0 -0.3 45.2 -0.2 45.4 0.05 45.55 Q0.2 45.5 0.3 45.4 L0.45 45.15 0.45 38.05" fill="url(#gradient12)" fill-rule="evenodd" stroke="none"/>
    <path d="M0.45 38.05 L0.45 45.15 0.3 45.4 Q0.2 45.5 0.05 45.55 L-0.2 45.4 -0.3 45.2 -0.3 38.0 -0.2 37.8 0.05 37.7 0.3 37.8 0.45 38.05" fill="url(#gradient13)" fill-rule="evenodd" stroke="none"/>
  </g>
  <defs>
    <linearGradient gradientTransform="matrix(0.0278, -0.0685, 0.054, 0.0219, 7.15, -31.55)" gradientUnits="userSpaceOnUse" id="gradient0" spreadMethod="pad" x1="-819.2" x2="819.2">
      <stop offset="0.0" stop-color="#838383"/>
      <stop offset="0.47843137254901963" stop-color="#fbfbfb"/>
      <stop offset="0.596078431372549" stop-color="#f8f8f8"/>
      <stop offset="0.9921568627450981" stop-color="#bfbfbf"/>
    </linearGradient>
    <linearGradient gradientTransform="matrix(0.0179, -0.0577, 0.0557, 0.0173, 7.1, -18.8)" gradientUnits="userSpaceOnUse" id="gradient1" spreadMethod="pad" x1="-819.2" x2="819.2">
      <stop offset="0.0" stop-color="#636363"/>
      <stop offset="0.4666666666666667" stop-color="#bfbfbf"/>
      <stop offset="0.6549019607843137" stop-color="#cacaca"/>
      <stop offset="0.9921568627450981" stop-color="#a6a6a6"/>
    </linearGradient>
    <radialGradient cx="0" cy="0" gradientTransform="matrix(0.0066, 0.0, 0.0, 0.0066, -12.15, 62.95)" gradientUnits="userSpaceOnUse" id="gradient2" r="819.2" spreadMethod="pad">
      <stop offset="0.0392156862745098" stop-color="#b59b97"/>
      <stop offset="0.13333333333333333" stop-color="#957c73"/>
      <stop offset="0.19607843137254902" stop-color="#84695e"/>
      <stop offset="0.6313725490196078" stop-color="#4e3f32"/>
    </radialGradient>
    <linearGradient gradientTransform="matrix(0.0037, 0.0, 0.0, 0.0079, 0.0, 40.5)" gradientUnits="userSpaceOnUse" id="gradient3" spreadMethod="pad" x1="-819.2" x2="819.2">
      <stop offset="0.0" stop-color="#4e2214"/>
      <stop offset="0.5215686274509804" stop-color="#bf5431"/>
      <stop offset="1.0" stop-color="#4e2214"/>
    </linearGradient>
    <linearGradient gradientTransform="matrix(0.0049, 0.0, 0.0, 0.0079, 0.0, 40.5)" gradientUnits="userSpaceOnUse" id="gradient4" spreadMethod="pad" x1="-819.2" x2="819.2">
      <stop offset="0.0" stop-color="#452f25"/>
      <stop offset="0.5254901960784314" stop-color="#654f45"/>
      <stop offset="1.0" stop-color="#452f25"/>
    </linearGradient>
    <linearGradient gradientTransform="matrix(0.004, 0.0038, -0.0047, 0.0048, -5.5, 60.5)" gradientUnits="userSpaceOnUse" id="gradient5" spreadMethod="pad" x1="-819.2" x2="819.2">
      <stop offset="0.0" stop-color="#452f25"/>
      <stop offset="0.5176470588235295" stop-color="#654f45"/>
      <stop offset="1.0" stop-color="#452f25"/>
    </linearGradient>
    <radialGradient cx="0" cy="0" fx="67.2" fy="0" gradientTransform="matrix(0.0035, -0.0016, 0.0033, 0.0074, -7.6, 62.0)" gradientUnits="userSpaceOnUse" id="gradient6" r="819.2" spreadMethod="pad">
      <stop offset="0.0" stop-color="#be5532"/>
      <stop offset="0.16470588235294117" stop-color="#984327"/>
      <stop offset="0.43529411764705883" stop-color="#6c311e"/>
      <stop offset="0.7372549019607844" stop-color="#4b2316"/>
    </radialGradient>
    <radialGradient cx="0" cy="0" fx="-1600.0" fy="0" gradientTransform="matrix(0.0082, -0.004, 0.0032, 0.0067, -7.65, 61.1)" gradientUnits="userSpaceOnUse" id="gradient7" r="819.2" spreadMethod="pad">
      <stop offset="0.0" stop-color="#d27657"/>
      <stop offset="0.25882352941176473" stop-color="#a84a2b"/>
      <stop offset="0.6901960784313725" stop-color="#612b1a"/>
      <stop offset="1.0" stop-color="#482013"/>
    </radialGradient>
    <linearGradient gradientTransform="matrix(0.0098, 0.0, 0.0, 0.0024, 0.0, 32.0)" gradientUnits="userSpaceOnUse" id="gradient8" spreadMethod="pad" x1="-819.2" x2="819.2">
      <stop offset="0.0" stop-color="#3c1611"/>
      <stop offset="0.5215686274509804" stop-color="#9d4528"/>
      <stop offset="1.0" stop-color="#26110b"/>
    </linearGradient>
    <linearGradient gradientTransform="matrix(0.0098, 0.0, 0.0, 0.0024, 0.0, 32.0)" gradientUnits="userSpaceOnUse" id="gradient9" spreadMethod="pad" x1="-819.2" x2="819.2">
      <stop offset="0.0" stop-color="#2d1b1a"/>
      <stop offset="0.5176470588235295" stop-color="#753e2d"/>
      <stop offset="1.0" stop-color="#2d1b1a"/>
    </linearGradient>
    <linearGradient gradientTransform="matrix(0.0105, 0.0, 0.0, 0.0012, 0.0, 29.0)" gradientUnits="userSpaceOnUse" id="gradient10" spreadMethod="pad" x1="-819.2" x2="819.2">
      <stop offset="0.0" stop-color="#783823"/>
      <stop offset="0.5215686274509804" stop-color="#bf5431"/>
      <stop offset="1.0" stop-color="#4e2214"/>
    </linearGradient>
    <radialGradient cx="0" cy="0" fx="41.6" fy="0" gradientTransform="matrix(0.0132, 0.0042, -0.0068, 0.0211, -7.85, 50.05)" gradientUnits="userSpaceOnUse" id="gradient11" r="819.2" spreadMethod="pad">
      <stop offset="0.0" stop-color="#1c1c1c"/>
      <stop offset="0.4235294117647059" stop-color="#978e84"/>
      <stop offset="0.5490196078431373" stop-color="#beb9ab"/>
      <stop offset="0.7137254901960784" stop-color="#c7c4b8"/>
      <stop offset="0.9607843137254902" stop-color="#978f84"/>
    </radialGradient>
    <radialGradient cx="0" cy="0" gradientTransform="matrix(0.0018, 0.0, 0.0, 0.0111, 0.0, 46.0)" gradientUnits="userSpaceOnUse" id="gradient12" r="819.2" spreadMethod="pad">
      <stop offset="0.0" stop-color="#ab9b94"/>
      <stop offset="0.3176470588235294" stop-color="#5f5450"/>
      <stop offset="0.6352941176470588" stop-color="#292323"/>
    </radialGradient>
    <linearGradient gradientTransform="matrix(0.0, 0.0057, -0.0051, 1.0E-4, 0.1, 41.9)" gradientUnits="userSpaceOnUse" id="gradient13" spreadMethod="pad" x1="-819.2" x2="819.2">
      <stop offset="0.0" stop-color="#85716b"/>
      <stop offset="1.0" stop-color="#5f5450"/>
    </linearGradient>
  </defs>
</svg>
