<?xml version="1.0" encoding="UTF-8" standalone="no"?>
<svg xmlns:xlink="http://www.w3.org/1999/xlink" height="16.75px" width="46.0px" xmlns="http://www.w3.org/2000/svg">
  <g transform="matrix(1.0, 0.0, 0.0, 1.0, 39.5, 9.5)">
    <path d="M6.5 -0.35 Q6.5 2.8 4.6 5.0 2.7 7.25 0.0 7.25 -2.7 7.25 -4.6 5.0 -6.5 2.8 -6.5 -0.35 -6.5 -4.3 -5.1 -6.0 -4.3 -6.95 -2.7 -7.15 L0.15 -7.25 2.6 -7.05 Q3.75 -6.75 4.6 -5.75 6.5 -3.5 6.5 -0.35 M-37.2 -8.25 Q-36.3 -9.2 -35.15 -9.4 L-32.65 -9.4 -29.85 -9.1 Q-28.25 -8.8 -27.5 -7.8 -26.25 -6.05 -26.55 -2.1 -26.75 1.05 -28.85 3.15 -30.9 5.25 -33.6 5.05 -36.3 4.85 -38.0 2.45 -39.7 0.1 -39.5 -3.05 -39.25 -6.2 -37.2 -8.25" fill="#403937" fill-rule="evenodd" stroke="none"/>
  </g>
</svg>
