<?xml version="1.0" encoding="UTF-8" standalone="no"?>
<svg xmlns:xlink="http://www.w3.org/1999/xlink" height="163.0px" width="163.0px" xmlns="http://www.w3.org/2000/svg">
  <g transform="matrix(1.0, 0.0, 0.0, 1.0, 81.5, 81.5)">
    <path d="M10.25 -10.3 Q6.05 -14.5 0.0 -14.5 -6.0 -14.5 -10.25 -10.3 L-10.3 -10.25 Q-14.5 -6.0 -14.5 0.0 -14.5 6.05 -10.3 10.25 -6.05 14.5 0.0 14.5 6.0 14.5 10.25 10.25 14.5 6.0 14.5 0.0 14.5 -6.05 10.25 -10.3 M0.0 -17.5 Q7.25 -17.5 12.35 -12.4 17.5 -7.25 17.5 0.0 17.5 7.25 12.4 12.35 L12.35 12.4 Q7.25 17.5 0.0 17.5 -7.25 17.5 -12.4 12.35 -17.5 7.25 -17.5 0.0 -17.5 -7.25 -12.4 -12.4 -7.25 -17.5 0.0 -17.5" fill="#ffffff" fill-rule="evenodd" stroke="none"/>
    <path d="M32.9 -32.9 Q19.3 -46.5 0.0 -46.5 -19.3 -46.5 -32.9 -32.9 -46.5 -19.3 -46.5 0.0 -46.5 19.3 -32.9 32.9 -19.3 46.5 0.0 46.5 19.3 46.5 32.9 32.9 46.5 19.3 46.5 0.0 46.5 -19.3 32.9 -32.9 M0.0 -49.5 Q20.5 -49.5 35.0 -35.0 49.5 -20.5 49.5 0.0 49.5 20.5 35.0 35.0 20.5 49.5 0.0 49.5 -20.5 49.5 -35.0 35.0 -49.5 20.5 -49.5 0.0 -49.5 -20.5 -35.0 -35.0 -20.5 -49.5 0.0 -49.5" fill="#ffffff" fill-opacity="0.9019608" fill-rule="evenodd" stroke="none"/>
    <path d="M55.5 -55.55 Q32.55 -78.5 0.0 -78.5 -32.55 -78.5 -55.55 -55.55 -78.5 -32.55 -78.5 0.0 -78.5 32.55 -55.55 55.5 -32.55 78.5 0.0 78.5 32.55 78.5 55.5 55.5 78.5 32.55 78.5 0.0 78.5 -32.55 55.5 -55.55 M0.0 -81.5 Q33.75 -81.5 57.6 -57.65 81.5 -33.75 81.5 0.0 81.5 33.75 57.6 57.6 33.75 81.5 0.0 81.5 -33.75 81.5 -57.65 57.6 -81.5 33.75 -81.5 0.0 -81.5 -33.75 -57.65 -57.65 -33.75 -81.5 0.0 -81.5" fill="#ffffff" fill-opacity="0.77254903" fill-rule="evenodd" stroke="none"/>
  </g>
</svg>
