<?xml version="1.0" encoding="UTF-8" standalone="no"?>
<svg xmlns:xlink="http://www.w3.org/1999/xlink" height="57.75px" width="98.0px" xmlns="http://www.w3.org/2000/svg">
  <g transform="matrix(1.0, 0.0, 0.0, 1.0, 49.0, 29.05)">
    <path d="M6.95 -4.9 L6.85 -5.0 7.0 -5.0 6.95 -4.9 M-7.0 -5.0 L-6.85 -5.0 -6.9 -4.9 -7.0 -5.0" fill="#f5e7a5" fill-rule="evenodd" stroke="none"/>
    <path d="M7.0 -5.4 L7.0 -6.75 7.4 -7.1 8.2 -6.45 Q10.1 -4.95 13.15 -3.05 19.8 1.2 29.75 0.9 33.95 0.8 37.5 -0.1 41.0 -0.95 43.2 -2.35 44.75 -3.35 45.7 -4.3 L47.85 -7.1 49.0 -6.05 Q48.45 -4.75 47.05 -3.2 45.7 -1.8 44.55 -1.15 41.1 0.7 37.85 1.5 L31.25 2.5 29.95 2.6 28.6 2.65 25.75 2.6 Q19.6 2.2 13.85 -0.8 11.9 -1.8 10.15 -3.05 L7.0 -5.4 M8.5 -8.05 L12.5 -11.1 Q14.95 -9.55 17.6 -8.35 19.9 -7.4 21.95 -6.9 28.75 -5.35 35.2 -6.75 41.3 -8.1 43.65 -11.15 L46.75 -8.2 Q45.4 -5.65 42.05 -3.5 39.65 -1.95 34.85 -1.15 L27.9 -0.55 Q24.9 -0.5 21.4 -1.35 18.45 -2.0 16.25 -3.05 12.5 -4.75 8.5 -8.05 M13.75 -12.1 L15.8 -13.4 Q21.95 -10.25 30.2 -10.65 37.95 -11.0 40.2 -13.8 L42.35 -12.25 Q40.2 -9.35 34.0 -8.1 26.75 -6.6 19.55 -9.3 16.1 -10.65 13.75 -12.1 M-31.25 2.5 L-37.85 1.5 Q-41.1 0.7 -44.55 -1.15 -45.7 -1.8 -47.05 -3.2 -48.45 -4.75 -49.0 -6.05 L-47.85 -7.1 -45.7 -4.3 Q-44.75 -3.35 -43.2 -2.35 -41.0 -0.95 -37.5 -0.1 -33.95 0.8 -29.75 0.9 -19.8 1.2 -13.15 -3.05 -10.1 -4.95 -8.2 -6.45 L-7.4 -7.1 -7.0 -6.75 -7.0 -5.4 -10.15 -3.05 Q-11.9 -1.8 -13.85 -0.8 -19.6 2.2 -25.75 2.6 L-28.6 2.65 -29.95 2.6 -31.25 2.5 M-43.65 -11.15 Q-41.3 -8.1 -35.2 -6.75 -28.75 -5.35 -21.95 -6.9 -19.9 -7.4 -17.6 -8.35 -14.95 -9.55 -12.5 -11.1 L-8.5 -8.05 Q-12.5 -4.75 -16.25 -3.05 -18.45 -2.0 -21.4 -1.35 -24.9 -0.5 -27.9 -0.55 L-34.85 -1.15 Q-39.65 -1.95 -42.05 -3.5 -45.4 -5.65 -46.75 -8.2 L-43.65 -11.15 M-13.75 -12.1 Q-16.1 -10.65 -19.55 -9.3 -26.75 -6.6 -34.0 -8.1 -40.2 -9.35 -42.35 -12.25 L-40.2 -13.8 Q-37.95 -11.0 -30.2 -10.65 -21.95 -10.25 -15.8 -13.4 L-13.75 -12.1" fill="#aac4cc" fill-rule="evenodd" stroke="none"/>
    <path d="M7.4 -7.1 L7.5 -7.15 8.5 -8.05 Q12.5 -4.75 16.25 -3.05 18.45 -2.0 21.4 -1.35 24.9 -0.5 27.9 -0.55 L34.85 -1.15 Q39.65 -1.95 42.05 -3.5 45.4 -5.65 46.75 -8.2 L47.85 -7.1 45.7 -4.3 Q44.75 -3.35 43.2 -2.35 41.0 -0.95 37.5 -0.1 33.95 0.8 29.75 0.9 19.8 1.2 13.15 -3.05 10.1 -4.95 8.2 -6.45 L7.4 -7.1 M12.5 -11.1 L13.75 -12.05 13.75 -12.1 Q16.1 -10.65 19.55 -9.3 26.75 -6.6 34.0 -8.1 40.2 -9.35 42.35 -12.25 L43.65 -11.15 Q41.3 -8.1 35.2 -6.75 28.75 -5.35 21.95 -6.9 19.9 -7.4 17.6 -8.35 14.95 -9.55 12.5 -11.1 M-43.65 -11.15 L-42.35 -12.25 Q-40.2 -9.35 -34.0 -8.1 -26.75 -6.6 -19.55 -9.3 -16.1 -10.65 -13.75 -12.1 L-13.75 -12.05 -12.5 -11.1 Q-14.95 -9.55 -17.6 -8.35 -19.9 -7.4 -21.95 -6.9 -28.75 -5.35 -35.2 -6.75 -41.3 -8.1 -43.65 -11.15 M-47.85 -7.1 L-46.75 -8.2 Q-45.4 -5.65 -42.05 -3.5 -39.65 -1.95 -34.85 -1.15 L-27.9 -0.55 Q-24.9 -0.5 -21.4 -1.35 -18.45 -2.0 -16.25 -3.05 -12.5 -4.75 -8.5 -8.05 L-7.5 -7.15 -7.4 -7.1 -8.2 -6.45 Q-10.1 -4.95 -13.15 -3.05 -19.8 1.2 -29.75 0.9 -33.95 0.8 -37.5 -0.1 -41.0 -0.95 -43.2 -2.35 -44.75 -3.35 -45.7 -4.3 L-47.85 -7.1" fill="#8aaaac" fill-rule="evenodd" stroke="none"/>
    <path d="M49.0 -16.5 L47.15 -18.45 42.4 -22.6 Q34.5 -28.4 21.35 -24.45 16.6 -23.0 13.15 -21.0 L7.0 -16.75 7.0 -18.7 Q8.55 -20.1 11.65 -21.95 16.05 -24.5 20.9 -26.0 27.3 -28.0 32.9 -27.6 38.8 -27.15 42.95 -24.1 47.05 -21.05 49.0 -18.45 L49.0 -16.5 M5.0 -21.25 L5.0 -5.0 4.05 -5.0 3.0 -5.0 3.0 -21.25 5.0 -21.25 M37.75 25.9 L6.95 -4.9 7.0 -5.0 7.0 -5.4 10.15 -3.05 Q11.9 -1.8 13.85 -0.8 L37.75 23.1 37.75 25.9 M49.0 -8.05 L46.3 -11.05 Q43.4 -14.1 41.0 -15.55 30.35 -21.95 18.85 -16.85 14.25 -14.8 10.85 -12.2 L7.0 -8.75 7.0 -10.75 Q8.1 -12.0 11.3 -14.25 15.05 -16.8 18.3 -18.2 25.4 -21.25 32.15 -20.45 37.2 -19.85 41.45 -17.15 45.4 -14.65 49.0 -10.3 L49.0 -8.05 M-3.0 -5.0 L-4.05 -5.0 -5.0 -5.0 -5.0 -21.25 -3.0 -21.25 -3.0 -5.0 M-37.75 25.9 L-37.75 23.1 -13.85 -0.8 Q-11.9 -1.8 -10.15 -3.05 L-7.0 -5.4 -7.0 -5.0 -6.9 -4.9 -37.75 25.9 M-42.0 18.85 L-44.8 18.85 -28.6 2.65 -25.75 2.6 -42.0 18.85 M-49.0 -8.05 L-49.0 -10.3 Q-45.4 -14.65 -41.45 -17.15 -37.2 -19.85 -32.15 -20.45 -25.4 -21.25 -18.3 -18.2 -15.05 -16.8 -11.3 -14.25 -8.1 -12.0 -7.0 -10.75 L-7.0 -8.75 -10.85 -12.2 Q-14.25 -14.8 -18.85 -16.85 -30.35 -21.95 -41.0 -15.55 -43.4 -14.1 -46.3 -11.05 L-49.0 -8.05 M-49.0 -16.5 L-49.0 -18.45 Q-47.05 -21.05 -42.95 -24.1 -38.8 -27.15 -32.9 -27.6 -27.3 -28.0 -20.9 -26.0 -16.05 -24.5 -11.65 -21.95 -8.55 -20.1 -7.0 -18.7 L-7.0 -16.75 -13.15 -21.0 Q-16.6 -23.0 -21.35 -24.45 -34.5 -28.4 -42.4 -22.6 L-47.15 -18.45 -49.0 -16.5 M25.75 2.6 L28.6 2.65 44.8 18.85 42.0 18.85 25.75 2.6" fill="url(#gradient0)" fill-rule="evenodd" stroke="none"/>
    <path d="M49.0 -18.45 Q47.05 -21.05 42.95 -24.1 38.8 -27.15 32.9 -27.6 27.3 -28.0 20.9 -26.0 16.05 -24.5 11.65 -21.95 8.55 -20.1 7.0 -18.7 L7.0 -16.75 13.15 -21.0 Q16.6 -23.0 21.35 -24.45 34.5 -28.4 42.4 -22.6 L47.15 -18.45 49.0 -16.5 49.0 -10.3 Q45.4 -14.65 41.45 -17.15 37.2 -19.85 32.15 -20.45 25.4 -21.25 18.3 -18.2 15.05 -16.8 11.3 -14.25 8.1 -12.0 7.0 -10.75 L7.0 -8.75 10.85 -12.2 Q14.25 -14.8 18.85 -16.85 30.35 -21.95 41.0 -15.55 43.4 -14.1 46.3 -11.05 L49.0 -8.05 49.0 -6.05 47.85 -7.1 46.75 -8.2 43.65 -11.15 42.35 -12.25 40.2 -13.8 Q34.9 -17.65 27.2 -17.0 20.8 -16.45 15.8 -13.4 L13.75 -12.1 13.75 -12.05 12.5 -11.1 8.5 -8.05 7.5 -7.15 7.4 -7.1 7.0 -6.75 7.0 -5.4 7.0 -5.0 6.85 -5.0 6.95 -4.9 37.75 25.9 37.75 28.7 4.05 -5.0 5.0 -5.0 5.0 -21.25 7.0 -21.25 7.0 -20.65 Q34.85 -37.75 49.0 -20.05 L49.0 -18.45 M-3.0 -21.25 L0.0 -21.25 3.0 -21.25 3.0 -5.0 0.0 -5.0 -3.0 -5.0 -3.0 -21.25 M-4.05 -5.0 L-37.75 28.7 -37.75 25.9 -6.9 -4.9 -6.85 -5.0 -7.0 -5.0 -7.0 -5.4 -7.0 -6.75 -7.4 -7.1 -7.5 -7.15 -8.5 -8.05 -12.5 -11.1 -13.75 -12.05 -13.75 -12.1 -15.8 -13.4 Q-20.8 -16.45 -27.2 -17.0 -34.9 -17.65 -40.2 -13.8 L-42.35 -12.25 -43.65 -11.15 -46.75 -8.2 -47.85 -7.1 -49.0 -6.05 -49.0 -8.05 -46.3 -11.05 Q-43.4 -14.1 -41.0 -15.55 -30.35 -21.95 -18.85 -16.85 -14.25 -14.8 -10.85 -12.2 L-7.0 -8.75 -7.0 -10.75 Q-8.1 -12.0 -11.3 -14.25 -15.05 -16.8 -18.3 -18.2 -25.4 -21.25 -32.15 -20.45 -37.2 -19.85 -41.45 -17.15 -45.4 -14.65 -49.0 -10.3 L-49.0 -16.5 -47.15 -18.45 -42.4 -22.6 Q-34.5 -28.4 -21.35 -24.45 -16.6 -23.0 -13.15 -21.0 L-7.0 -16.75 -7.0 -18.7 Q-8.55 -20.1 -11.65 -21.95 -16.05 -24.5 -20.9 -26.0 -27.3 -28.0 -32.9 -27.6 -38.8 -27.15 -42.95 -24.1 -47.05 -21.05 -49.0 -18.45 L-49.0 -20.05 Q-34.85 -37.75 -7.0 -20.65 L-7.0 -21.25 -5.0 -21.25 -5.0 -5.0 -4.05 -5.0 M-37.75 23.1 L-37.75 18.8 -42.0 18.85 -25.75 2.6 Q-19.6 2.2 -13.85 -0.8 L-37.75 23.1 M-44.8 18.85 L-47.65 18.8 -31.25 2.5 -29.95 2.6 -28.6 2.65 -44.8 18.85 M13.85 -0.8 Q19.6 2.2 25.75 2.6 L42.0 18.85 37.75 18.8 37.75 23.1 13.85 -0.8 M28.6 2.65 L29.95 2.6 31.25 2.5 47.65 18.8 44.8 18.85 28.6 2.65" fill="url(#gradient1)" fill-rule="evenodd" stroke="none"/>
  </g>
  <defs>
    <radialGradient cx="0" cy="0" gradientTransform="matrix(0.0688, 0.0, 0.0, 0.0688, 0.0, -14.0)" gradientUnits="userSpaceOnUse" id="gradient0" r="819.2" spreadMethod="pad">
      <stop offset="0.0" stop-color="#cedce1"/>
      <stop offset="1.0" stop-color="#b5c8ca"/>
    </radialGradient>
    <radialGradient cx="0" cy="0" gradientTransform="matrix(0.0658, 0.0, 0.0, 0.0658, 0.0, -13.1)" gradientUnits="userSpaceOnUse" id="gradient1" r="819.2" spreadMethod="pad">
      <stop offset="0.0" stop-color="#ecf4f4"/>
      <stop offset="1.0" stop-color="#cbdee4"/>
    </radialGradient>
  </defs>
</svg>
