<?xml version="1.0" encoding="UTF-8" standalone="no"?>
<svg xmlns:xlink="http://www.w3.org/1999/xlink" height="64.35px" width="1024.0px" xmlns="http://www.w3.org/2000/svg">
  <g transform="matrix(1.0, 0.0, 0.0, 1.0, 0.0, 1.0)">
    <path d="M102.2 -0.95 L102.8 -0.95 103.3 -0.6 Q108.65 5.9 115.6 10.4 L115.6 10.45 Q120.3 13.55 125.3 10.8 L126.4 10.2 126.9 10.05 127.4 10.2 127.75 10.6 Q129.85 14.85 134.05 16.75 L134.1 16.75 Q141.3 20.2 149.4 19.65 164.05 18.25 177.05 11.4 L177.05 11.35 181.45 9.1 182.05 9.0 182.65 9.3 Q186.1 13.0 190.55 15.0 193.8 16.45 196.5 14.5 L196.55 14.5 197.25 14.0 197.8 13.8 198.4 14.0 200.3 15.25 Q205.0 18.3 210.55 17.5 217.85 16.4 224.8 13.4 L224.85 13.4 Q231.45 10.65 237.5 6.9 L237.55 6.9 238.3 6.35 Q238.6 6.1 239.0 6.15 L239.65 6.45 Q244.25 11.2 250.4 12.75 L250.45 12.75 Q254.9 13.95 257.95 10.15 L257.95 10.1 258.6 9.45 Q258.8 9.25 259.1 9.2 L259.65 9.3 260.1 9.65 Q262.1 12.55 265.5 13.05 273.5 13.65 280.25 8.9 L281.65 7.9 282.35 7.7 Q282.75 7.75 283.0 8.1 286.6 12.85 292.05 15.6 301.05 20.25 311.1 20.35 320.05 20.45 325.4 13.35 L326.45 11.85 326.85 11.45 327.35 11.35 Q336.05 11.85 344.6 10.1 356.5 7.65 367.35 2.15 L367.4 2.15 370.0 0.9 370.75 0.85 371.3 1.3 372.75 3.55 Q377.6 10.5 385.8 12.1 391.8 13.35 397.1 10.55 L397.55 10.2 Q397.75 10.0 398.05 9.95 L398.6 10.05 399.05 10.4 Q401.05 13.35 403.4 16.1 L403.45 16.1 Q407.8 21.3 414.4 22.3 L414.45 22.35 Q424.4 24.0 432.7 18.1 L432.75 18.05 434.2 17.15 Q434.55 16.9 434.95 17.0 439.35 17.75 443.65 15.75 453.05 11.25 458.85 2.55 L458.85 2.5 459.45 1.5 459.9 1.1 460.5 0.95 461.05 1.25 462.25 2.4 462.25 2.35 Q468.2 7.65 476.15 9.1 483.65 10.65 491.1 9.45 L491.05 9.5 493.6 9.05 494.3 9.15 494.7 9.75 Q496.0 14.15 499.65 16.8 506.4 21.75 515.3 21.9 534.3 22.15 551.5 14.25 L554.3 12.9 554.85 12.8 Q555.15 12.85 555.4 13.05 557.2 14.5 559.5 15.35 565.5 17.35 571.0 14.1 574.8 11.9 578.2 8.85 L579.4 7.85 Q579.65 7.6 580.05 7.6 L580.65 7.8 581.95 8.65 582.0 8.65 Q592.5 15.05 604.45 18.6 618.45 22.8 632.55 19.4 641.7 17.05 649.0 11.2 L648.95 11.2 650.15 10.2 Q650.45 9.95 650.85 9.95 651.25 9.95 651.55 10.25 654.5 13.3 658.05 15.35 664.75 19.3 672.7 18.0 682.05 16.4 689.5 10.15 L689.6 10.1 690.85 9.1 Q691.05 8.85 691.35 8.85 L691.9 8.9 694.9 10.0 Q700.5 11.65 706.45 11.75 718.25 12.0 729.35 8.15 L729.4 8.15 731.4 7.45 732.0 7.4 732.5 7.6 Q738.15 12.8 744.8 16.8 752.65 21.5 761.55 23.8 770.95 26.05 780.1 22.2 L780.15 22.2 Q792.1 17.15 801.7 8.55 L801.7 8.6 803.1 7.2 803.6 6.9 804.2 6.95 804.7 7.35 Q809.15 14.95 816.95 19.2 L818.5 20.0 826.35 17.3 826.8 17.25 827.25 17.45 Q833.35 21.9 840.8 20.75 L840.85 20.7 Q850.2 19.55 858.9 15.45 L858.95 15.45 860.55 14.7 861.05 14.55 861.5 14.7 Q863.0 15.55 864.55 16.0 L864.6 16.0 Q876.8 19.7 889.6 17.95 899.45 17.0 907.75 11.45 L909.15 10.45 909.85 10.25 Q910.2 10.3 910.45 10.6 913.95 14.55 919.0 16.25 924.05 17.95 928.65 14.9 L930.05 13.9 930.55 13.7 931.15 13.85 933.1 14.85 933.15 14.85 Q945.5 20.6 959.2 19.25 967.0 18.35 973.4 14.15 L975.8 12.45 976.4 12.25 Q976.75 12.25 977.0 12.5 979.95 15.05 983.55 16.85 992.15 20.9 1001.65 19.75 1013.15 18.05 1022.7 11.5 L1023.65 10.8 Q1023.8 10.65 1024.0 10.6 L1024.0 41.0 1023.95 40.95 1020.85 40.35 1020.75 40.35 Q1013.3 38.7 1006.15 40.75 1001.7 42.15 997.85 45.1 L997.9 45.1 997.05 45.8 996.4 46.05 995.8 45.9 994.8 45.2 Q987.85 40.4 979.7 37.95 L979.75 38.0 Q972.6 35.95 965.15 35.9 953.85 36.9 945.9 44.55 L945.85 44.6 945.1 45.5 944.55 45.9 943.9 45.8 Q933.6 40.8 922.05 41.1 913.2 41.35 905.05 44.9 L905.1 44.85 903.85 45.45 903.35 45.55 902.85 45.4 899.35 43.1 899.3 43.1 Q887.95 35.75 875.55 30.65 L875.5 30.65 Q864.05 25.8 852.8 30.25 839.5 35.4 829.6 45.6 L826.75 48.75 826.05 49.1 825.35 48.9 823.15 47.25 Q819.4 44.8 815.05 43.55 805.25 40.8 794.85 40.55 783.4 40.3 773.45 45.45 L773.5 45.45 Q772.4 46.0 771.4 46.75 L770.65 46.9 770.05 46.55 Q767.75 43.65 764.6 41.9 755.7 36.9 745.7 35.4 L744.4 35.3 Q741.6 37.25 739.2 39.55 735.65 42.8 733.65 47.1 L733.7 47.05 733.3 48.0 732.8 48.5 732.1 48.55 Q722.6 45.8 712.65 44.5 698.65 42.6 687.15 50.25 L687.2 50.25 685.45 51.6 684.75 51.85 684.1 51.6 Q681.35 49.1 677.65 48.55 670.95 48.0 665.85 52.45 L665.8 52.45 664.5 53.55 663.9 53.75 663.25 53.5 Q659.9 50.65 655.85 48.9 L655.85 48.85 Q644.25 43.6 631.8 41.75 L631.75 41.75 Q620.85 40.3 611.4 45.55 L611.35 45.55 610.2 46.25 609.75 46.45 609.25 46.4 Q607.6 45.75 605.8 45.55 L605.75 45.55 Q600.55 45.15 596.0 47.8 595.2 48.2 594.5 48.65 L593.9 48.8 593.35 48.6 Q587.75 44.2 581.05 42.55 L581.0 42.55 Q572.05 40.4 563.4 43.05 L563.3 43.05 562.45 43.45 562.0 43.5 561.55 43.4 553.8 39.0 545.65 47.9 545.15 48.2 544.55 48.15 Q533.0 43.4 520.6 44.45 509.1 45.65 500.55 53.45 L500.5 53.45 498.5 55.45 497.95 55.75 497.35 55.65 489.5 51.95 Q485.15 49.85 480.65 50.95 475.25 52.35 471.25 56.4 L470.35 57.3 Q470.1 57.55 469.75 57.6 L469.1 57.45 Q466.2 55.55 462.95 54.25 452.05 50.0 440.25 48.85 L440.2 48.85 Q430.0 48.45 419.85 49.4 419.1 49.9 418.25 49.05 L417.05 47.85 Q410.5 41.9 402.1 38.8 L402.15 38.8 Q398.3 37.5 394.6 38.4 387.95 39.85 382.15 43.3 L382.1 43.35 380.9 43.95 380.3 44.05 375.4 43.55 375.35 43.55 Q365.8 42.85 356.35 44.85 344.15 47.45 336.4 56.9 L335.25 58.45 334.85 58.8 334.35 58.9 333.85 58.75 Q330.15 56.1 326.1 54.6 319.55 52.15 313.35 56.5 L313.3 56.5 310.7 58.15 310.1 58.25 Q309.75 58.2 309.5 57.95 L305.75 54.85 Q297.85 49.25 288.4 47.0 L288.35 47.0 Q281.2 45.05 273.85 45.95 L273.9 45.95 273.4 46.05 270.35 56.05 269.9 56.65 269.2 56.75 266.75 56.05 266.7 56.0 259.3 55.65 259.25 55.65 Q255.2 56.2 251.45 57.8 L251.45 57.75 239.55 63.25 238.8 63.3 238.2 62.8 238.15 62.65 Q234.8 58.1 230.1 55.75 224.7 52.9 219.1 53.45 L218.35 53.6 217.8 53.55 217.35 53.25 216.45 52.25 216.5 52.25 Q211.7 47.0 204.75 45.6 191.3 42.6 178.05 46.15 169.3 48.4 162.85 54.75 L162.85 54.7 161.65 56.0 161.15 56.3 160.6 56.25 159.15 55.85 159.15 55.8 Q148.7 52.7 138.1 50.1 127.45 47.4 116.5 46.25 105.95 44.9 95.4 46.6 87.25 47.55 80.0 51.35 L77.9 52.4 77.15 52.5 76.6 52.05 Q71.15 43.9 61.8 41.95 52.85 40.15 44.7 43.55 43.3 44.1 42.0 44.85 L41.45 44.95 40.95 44.8 Q33.25 39.4 23.75 39.25 14.35 39.1 6.15 43.15 L4.95 43.2 4.9 43.2 0.0 40.35 0.0 9.8 7.25 2.95 Q7.5 2.65 7.85 2.65 8.25 2.65 8.55 2.9 L10.15 4.0 10.15 4.05 Q16.75 8.35 24.7 7.7 L25.45 7.55 26.0 7.65 26.4 8.05 Q29.15 12.45 33.75 14.55 L33.8 14.55 Q38.0 16.5 42.3 15.0 L43.0 14.8 43.55 14.8 44.05 15.15 Q45.9 17.45 48.7 19.05 55.3 22.75 62.9 21.25 72.15 19.3 78.6 11.9 L80.5 9.75 Q80.75 9.5 81.1 9.45 L81.75 9.55 89.4 13.6 92.0 11.55 100.5 1.15 100.5 1.1 101.7 -0.55 Q101.85 -0.85 102.2 -0.95 M455.6 20.2 L465.15 21.6 470.5 16.65 460.85 15.15 455.6 20.2 M5.85 16.7 Q8.4 17.95 10.5 17.45 12.6 16.85 14.2 14.4 L8.55 12.9 5.85 16.7 M692.85 39.3 L707.35 37.45 707.6 31.9 698.2 32.15 689.5 38.25 692.85 39.3" fill="#e3062e" fill-rule="evenodd" stroke="none"/>
    <path d="M1024.0 11.75 L1024.0 39.95 1020.95 39.35 Q1013.25 37.7 1005.85 39.8 1001.25 41.25 997.25 44.3 L996.35 45.05 995.35 44.35 Q988.3 39.5 980.0 37.0 972.7 34.95 965.05 34.9 953.35 35.95 945.15 43.85 L944.3 44.9 Q933.8 39.8 922.0 40.1 913.0 40.35 904.65 43.95 L903.4 44.55 899.85 42.25 Q888.4 34.85 875.9 29.7 864.05 24.7 852.4 29.3 838.9 34.55 828.85 44.9 L825.95 48.1 823.75 46.45 Q819.85 43.9 815.3 42.6 805.4 39.8 794.85 39.55 783.15 39.3 773.0 44.55 771.85 45.15 770.8 45.9 768.4 42.85 765.05 41.0 756.0 35.95 745.85 34.4 L744.1 34.25 Q741.1 36.35 738.5 38.8 734.85 42.2 732.75 46.65 L732.35 47.6 Q722.8 44.8 712.75 43.5 698.4 41.55 686.6 49.4 L684.75 50.85 Q681.8 48.15 677.8 47.55 670.65 46.95 665.15 51.7 L663.9 52.75 Q660.45 49.8 656.25 47.95 644.5 42.65 631.9 40.75 620.65 39.25 610.9 44.65 610.2 45.0 609.6 45.45 607.8 44.75 605.85 44.55 600.35 44.1 595.5 46.9 L593.95 47.8 Q588.2 43.25 581.25 41.55 572.0 39.35 563.0 42.1 L562.05 42.5 553.6 37.7 544.9 47.2 Q533.15 42.4 520.5 43.45 508.65 44.7 499.85 52.7 L497.75 54.75 489.9 51.05 Q485.25 48.8 480.4 49.95 474.75 51.45 470.55 55.7 L469.65 56.6 Q466.65 54.65 463.3 53.3 452.25 49.0 440.3 47.85 429.85 47.45 419.4 48.4 L418.95 48.35 417.7 47.1 Q411.05 41.05 402.45 37.85 398.35 36.45 394.35 37.4 387.6 38.9 381.65 42.45 L380.45 43.05 375.4 42.55 Q365.75 41.85 356.15 43.85 343.6 46.55 335.6 56.25 L334.4 57.9 Q330.6 55.2 326.45 53.65 319.45 51.0 312.75 55.65 L310.2 57.25 Q308.4 55.45 306.3 54.0 298.25 48.3 288.6 46.0 281.25 44.05 273.7 44.95 L272.6 45.2 269.4 55.75 267.0 55.05 259.1 54.65 Q254.95 55.2 251.05 56.85 245.05 59.55 239.1 62.35 L239.0 62.15 Q235.5 57.35 230.55 54.85 224.9 51.9 219.0 52.45 L218.1 52.6 217.2 51.55 Q212.2 46.1 204.95 44.6 191.3 41.55 177.8 45.15 168.8 47.5 162.15 54.0 L160.9 55.3 159.4 54.85 Q148.95 51.75 138.35 49.1 127.65 46.4 116.6 45.25 105.95 43.9 95.25 45.6 86.95 46.6 79.55 50.45 L77.4 51.5 Q71.75 43.0 62.0 40.95 52.75 39.1 44.3 42.6 42.85 43.2 41.5 43.95 33.6 38.4 23.75 38.25 14.05 38.1 5.55 42.3 L5.4 42.3 0.0 39.2 0.0 10.8 7.9 3.65 9.6 4.85 Q16.5 9.4 24.8 8.7 L25.55 8.55 Q28.45 13.25 33.35 15.45 37.95 17.6 42.6 15.95 L43.25 15.75 Q45.25 18.25 48.2 19.9 55.15 23.8 63.1 22.2 72.7 20.2 79.35 12.55 L81.25 10.4 89.35 14.7 Q91.3 13.85 92.75 12.2 L101.3 1.7 102.5 0.0 Q107.95 6.65 115.05 11.25 120.25 14.7 125.75 11.65 L126.85 11.05 Q129.1 15.6 133.65 17.65 141.1 21.2 149.5 20.65 164.35 19.2 177.5 12.25 L181.9 9.95 Q185.5 13.8 190.15 15.9 193.95 17.6 197.1 15.3 L197.8 14.8 199.75 16.1 Q204.75 19.35 210.7 18.5 218.15 17.4 225.2 14.3 231.9 11.55 238.0 7.75 L238.9 7.15 Q243.75 12.1 250.15 13.7 255.25 15.1 258.7 10.75 L259.25 10.2 Q261.5 13.5 265.35 14.05 273.75 14.7 280.8 9.7 L282.2 8.7 Q285.95 13.65 291.6 16.5 300.8 21.25 311.1 21.35 320.55 21.45 326.2 13.95 L327.3 12.35 Q336.15 12.85 344.8 11.05 356.85 8.6 367.8 3.05 L370.45 1.8 371.9 4.1 Q377.0 11.4 385.6 13.05 391.95 14.4 397.6 11.4 L398.2 10.95 Q400.25 13.95 402.65 16.75 407.25 22.25 414.25 23.3 424.65 25.05 433.25 18.9 L434.75 17.95 Q439.5 18.8 444.05 16.65 453.7 12.05 459.65 3.1 L460.35 1.95 461.55 3.1 Q467.75 8.6 475.95 10.05 483.6 11.65 491.25 10.45 L493.75 10.0 Q495.15 14.75 499.05 17.6 506.05 22.75 515.25 22.9 534.5 23.15 551.9 15.15 L554.75 13.8 Q556.7 15.4 559.15 16.3 565.6 18.45 571.5 14.95 575.4 12.7 578.85 9.6 L580.05 8.6 581.45 9.5 Q592.1 15.95 604.15 19.55 618.4 23.85 632.8 20.35 642.15 17.95 649.6 11.95 L650.8 10.95 Q653.9 14.1 657.55 16.2 664.55 20.35 672.85 18.95 682.5 17.35 690.15 10.9 L691.5 9.8 Q693.0 10.45 694.6 10.95 700.35 12.65 706.4 12.75 718.4 13.0 729.65 9.1 L731.8 8.35 Q737.55 13.6 744.25 17.65 752.25 22.45 761.3 24.75 771.05 27.1 780.5 23.1 792.65 18.0 802.35 9.3 L803.8 7.85 Q808.4 15.7 816.45 20.05 L818.4 21.1 826.65 18.25 Q833.1 22.95 840.95 21.7 850.5 20.5 859.3 16.35 L861.0 15.55 Q862.6 16.5 864.3 16.95 876.7 20.7 889.7 18.95 899.8 17.95 908.3 12.25 L909.7 11.25 Q913.35 15.4 918.65 17.2 924.2 19.05 929.2 15.7 L930.6 14.7 932.7 15.75 Q945.35 21.6 959.3 20.25 967.35 19.3 973.95 14.95 L976.35 13.25 Q979.4 15.9 983.1 17.75 992.0 21.95 1001.8 20.75 1013.55 19.0 1023.25 12.3 L1024.0 11.75 M708.3 38.35 L708.65 30.85 697.85 31.15 687.25 38.55 692.75 40.3 708.3 38.35 M465.45 22.65 L472.7 15.95 460.5 14.05 453.4 20.9 465.45 22.65 M15.8 13.75 L8.1 11.75 4.35 17.0 Q11.55 21.25 15.5 14.15 L15.8 13.75" fill="#ffffff" fill-rule="evenodd" stroke="none"/>
  </g>
</svg>
