<?xml version="1.0" encoding="UTF-8" standalone="no"?>
<svg xmlns:xlink="http://www.w3.org/1999/xlink" height="253.2px" width="237.7px" xmlns="http://www.w3.org/2000/svg">
  <g transform="matrix(1.0, 0.0, 0.0, 1.0, 124.35, 4.35)">
    <path d="M10.75 -0.5 L-5.5 90.75 -62.25 81.25 -42.5 -4.0 10.75 -0.5" fill="#c5c5c5" fill-rule="evenodd" stroke="none"/>
    <path d="M73.5 88.25 L104.5 108.75 113.0 173.5 82.5 146.25 73.5 88.25" fill="#878787" fill-rule="evenodd" stroke="none"/>
    <path d="M-124.0 248.5 L-116.5 169.75 -84.75 35.5 -81.5 71.75 -124.0 248.5" fill="#b1b1b1" fill-rule="evenodd" stroke="none"/>
    <path d="M-62.25 81.25 L-42.5 -4.0 10.75 -0.5 -5.5 90.75 -62.25 81.25 M-81.5 71.75 L-124.0 248.5 -116.5 169.75 -84.75 35.5 -81.5 71.75 M82.5 146.25 L73.5 88.25 104.5 108.75 113.0 173.5 82.5 146.25" fill="none" stroke="#00ffff" stroke-linecap="round" stroke-linejoin="round" stroke-width="0.7000000000000001"/>
  </g>
</svg>
