<?xml version="1.0" encoding="UTF-8" standalone="no"?>
<svg xmlns:xlink="http://www.w3.org/1999/xlink" height="183.95px" width="394.7px" xmlns="http://www.w3.org/2000/svg">
  <g transform="matrix(1.0, 0.0, 0.0, 1.0, 240.35, -19.65)">
    <path d="M-105.5 33.25 L-239.5 95.5 -240.0 54.5 -150.25 20.0 -103.5 31.75 -105.5 33.25" fill="#979797" fill-rule="evenodd" stroke="none"/>
    <path d="M144.75 114.0 L140.0 127.5 126.75 166.25 106.5 140.0 123.5 88.5 125.5 83.75 147.75 102.75 148.25 103.75 144.75 114.0" fill="#a5a5a5" fill-rule="evenodd" stroke="none"/>
    <path d="M144.75 114.0 L151.25 121.5 154.0 159.75 141.5 143.5 140.0 127.5 144.75 114.0" fill="#6f6f6f" fill-rule="evenodd" stroke="none"/>
    <path d="M81.75 69.0 L107.25 79.5 96.25 128.5 71.75 114.5 81.75 69.0" fill="#c2c2c2" fill-rule="evenodd" stroke="none"/>
    <path d="M-52.75 145.5 L4.75 157.0 15.75 203.25 -34.5 191.25 -52.75 145.5" fill="#5c5c5c" fill-rule="evenodd" stroke="none"/>
    <path d="M107.25 79.5 L96.25 128.5 71.75 114.5 81.75 69.0 107.25 79.5 M123.5 88.5 L106.5 140.0 126.75 166.25 140.0 127.5 144.75 114.0 148.25 103.75 147.75 102.75 125.5 83.75 123.5 88.5 M140.0 127.5 L141.5 143.5 154.0 159.75 151.25 121.5 144.75 114.0 M15.75 203.25 L-34.5 191.25 -52.75 145.5 4.75 157.0 15.75 203.25 M-105.5 33.25 L-239.5 95.5 -240.0 54.5 -150.25 20.0 -103.5 31.75 -105.5 33.25" fill="none" stroke="#00ffff" stroke-linecap="round" stroke-linejoin="round" stroke-width="0.7000000000000001"/>
  </g>
</svg>
