<?xml version="1.0" encoding="UTF-8" standalone="no"?>
<svg xmlns:xlink="http://www.w3.org/1999/xlink" height="133.95px" width="239.7px" xmlns="http://www.w3.org/2000/svg">
  <g transform="matrix(1.0, 0.0, 0.0, 1.0, 52.85, -49.15)">
    <path d="M47.0 63.0 L-14.0 123.75 -52.5 100.5 6.25 49.5 47.0 63.0" fill="#b4b4b4" fill-rule="evenodd" stroke="none"/>
    <path d="M123.75 129.0 L115.0 122.0 121.75 86.25 122.25 85.75 135.75 94.5 123.75 129.0" fill="#a9a9a9" fill-rule="evenodd" stroke="none"/>
    <path d="M135.75 94.5 L136.5 93.75 152.0 109.5 135.5 155.25 134.75 155.5 121.25 136.5 123.75 129.0 135.75 94.5" fill="#9d9d9d" fill-rule="evenodd" stroke="none"/>
    <path d="M186.5 112.25 L186.5 145.5 176.0 132.5 176.0 101.25 186.5 112.25" fill="#696969" fill-rule="evenodd" stroke="none"/>
    <path d="M74.25 182.75 L37.75 167.5 29.5 124.25 68.0 137.5 74.25 182.75" fill="#818181" fill-rule="evenodd" stroke="none"/>
    <path d="M186.5 145.5 L176.0 132.5 176.0 101.25 186.5 112.25 186.5 145.5 M135.75 94.5 L136.5 93.75 152.0 109.5 135.5 155.25 134.75 155.5 121.25 136.5 123.75 129.0 115.0 122.0 121.75 86.25 122.25 85.75 135.75 94.5 123.75 129.0 M47.0 63.0 L-14.0 123.75 -52.5 100.5 6.25 49.5 47.0 63.0 M29.5 124.25 L68.0 137.5 74.25 182.75 37.75 167.5 29.5 124.25" fill="none" stroke="#00ffff" stroke-linecap="round" stroke-linejoin="round" stroke-width="0.7000000000000001"/>
  </g>
</svg>
