<?xml version="1.0" encoding="UTF-8" standalone="no"?>
<svg xmlns:xlink="http://www.w3.org/1999/xlink" height="424.75px" width="163.7px" xmlns="http://www.w3.org/2000/svg">
  <g transform="matrix(1.0, 0.0, 0.0, 1.0, -202.4, -150.7)">
    <path d="M332.5 219.5 Q339.85 223.5 345.6 240.5 351.35 257.45 344.75 266.0 322.75 256.95 318.85 255.0 305.4 248.2 301.5 241.0 299.5 237.25 301.8 229.65 304.9 219.5 305.0 217.25 307.65 213.6 314.7 214.7 317.35 215.15 332.5 219.5 M242.65 153.9 Q248.5 151.95 257.05 150.8 259.9 150.4 266.2 151.8 273.15 153.35 277.55 155.8 283.25 159.0 289.75 168.5 297.05 179.2 297.3 187.65 297.75 206.0 297.05 208.8 297.5 214.3 295.75 219.5 L292.05 229.05 Q290.55 231.35 288.85 234.8 L286.25 240.0 Q283.85 244.6 279.3 248.25 274.7 251.9 272.0 251.55 269.25 251.15 263.25 249.0 251.4 244.8 243.0 239.0 238.75 236.1 231.15 227.6 223.55 219.05 221.25 214.55 217.95 208.0 216.3 199.1 214.35 188.8 216.3 182.05 218.1 175.85 221.8 170.65 224.45 166.9 230.3 161.05 234.8 156.55 242.65 153.9 M220.75 266.5 Q223.0 271.75 225.35 273.8 227.5 275.7 231.25 276.0 231.25 277.75 224.75 282.05 218.45 286.25 216.5 286.25 215.0 286.25 209.75 280.9 L203.5 274.25 Q202.45 273.15 202.5 269.15 L202.75 263.5 Q202.75 261.7 207.75 257.45 210.05 255.45 213.6 253.45 216.95 251.55 217.5 251.75 L218.2 256.55 Q218.9 262.3 220.75 266.5 M228.55 308.1 L239.35 295.9 Q258.25 300.65 277.3 297.05 296.2 293.45 314.3 281.85 L322.55 297.85 323.3 305.0 Q323.8 309.9 323.45 313.35 322.45 323.4 314.0 327.25 304.25 330.9 292.25 330.4 285.15 330.1 272.75 327.75 254.4 333.85 248.9 334.2 239.0 334.85 232.75 326.25 L228.55 308.1 M263.1 459.3 Q267.5 447.4 276.7 444.5 284.05 442.7 290.05 448.1 295.95 453.35 301.6 466.6 313.65 502.25 322.1 548.6 324.15 559.65 323.1 566.0 321.9 573.4 316.6 575.15 312.2 576.6 307.3 570.6 L297.1 556.1 Q272.7 522.3 261.6 479.6 259.15 470.1 263.1 459.3 M350.5 413.75 L340.0 419.25 342.75 404.25 350.5 413.75 M362.85 476.1 Q366.1 483.85 366.1 514.15 366.1 518.65 362.55 536.55 358.95 554.9 357.35 557.4 352.45 565.0 346.35 563.65 344.85 563.3 342.5 560.2 339.9 556.8 338.85 553.15 338.05 550.4 336.9 535.0 335.85 520.6 335.85 515.65 335.85 504.5 336.3 497.7 337.35 483.05 340.35 478.1 341.8 475.7 346.45 473.0 350.7 470.6 352.35 470.6 354.45 470.6 357.7 471.95 361.8 473.6 362.85 476.1" fill="#ffffff" fill-rule="evenodd" stroke="none"/>
    <path d="M220.75 266.5 Q223.0 271.75 225.35 273.8 227.5 275.7 231.25 276.0 231.25 277.75 224.75 282.05 218.45 286.25 216.5 286.25 215.0 286.25 209.75 280.9 L203.5 274.25 Q202.45 273.15 202.5 269.15 L202.75 263.5 Q202.75 261.7 207.75 257.45 210.05 255.45 213.6 253.45 216.95 251.55 217.5 251.75 L218.2 256.55 Q218.9 262.3 220.75 266.5 Z" fill="none" stroke="#ffffff" stroke-linecap="round" stroke-linejoin="round" stroke-width="0.25"/>
  </g>
</svg>
