<?xml version="1.0" encoding="UTF-8" standalone="no"?>
<svg xmlns:xlink="http://www.w3.org/1999/xlink" height="555.65px" width="293.8px" xmlns="http://www.w3.org/2000/svg">
  <g transform="matrix(1.0, 0.0, 0.0, 1.0, -148.75, -103.25)">
    <path d="M344.4 348.2 Q344.85 355.5 344.5 361.25 344.4 369.6 347.0 373.95 348.3 376.1 349.45 376.4 L394.5 418.5 396.2 421.45 Q398.15 426.15 399.25 434.75 399.95 440.35 398.8 452.35 L396.25 474.5 Q395.7 479.25 391.6 495.7 387.3 512.85 387.0 514.75 386.5 517.85 375.35 544.5 364.8 569.7 365.5 570.0 369.4 571.65 371.7 577.35 374.0 582.9 373.65 589.4 373.25 596.35 369.85 601.15 366.0 606.65 359.0 607.75 L350.3 607.7 341.5 607.5 Q340.4 607.25 341.55 630.2 L342.75 653.0 Q334.4 658.2 319.45 658.85 304.5 659.45 299.75 653.75 300.15 640.0 295.65 613.15 290.9 584.85 286.0 576.75 277.9 567.05 257.75 540.7 L239.25 516.25 238.5 484.75 233.0 346.5 191.0 380.75 176.5 362.5 Q165.6 365.55 157.3 356.85 149.35 348.55 148.75 335.25 L197.25 275.75 Q196.55 274.25 197.45 268.55 L198.5 261.5 Q198.5 259.3 205.9 252.55 200.9 248.2 199.0 242.5 197.15 237.0 196.9 226.45 L196.6 218.7 Q196.4 213.6 196.75 210.75 204.75 177.0 206.75 170.75 208.35 165.75 213.65 158.6 219.3 150.9 224.75 147.0 230.5 142.85 242.1 139.85 253.05 137.0 260.5 137.25 L264.35 137.7 Q263.3 133.55 257.85 132.3 L237.1 131.65 Q206.45 133.1 192.25 145.5 197.1 131.15 220.0 119.85 234.7 112.65 266.0 103.25 283.55 111.05 288.55 124.3 292.95 135.9 286.5 146.5 292.2 151.1 316.4 173.55 348.35 203.25 374.15 229.45 454.3 310.9 440.5 323.5 437.45 332.95 431.2 337.4 425.6 341.4 418.0 341.0 417.85 341.15 384.5 320.5 360.2 340.35 343.25 332.75 L344.4 348.2" fill="#ffffff" fill-rule="evenodd" stroke="none"/>
  </g>
</svg>
