<?xml version="1.0" encoding="UTF-8" standalone="no"?>
<svg xmlns:xlink="http://www.w3.org/1999/xlink" height="369.0px" width="369.0px" xmlns="http://www.w3.org/2000/svg">
  <g transform="matrix(1.0, 0.0, 0.0, 1.0, 184.5, 184.5)">
    <path d="M130.5 -130.45 Q184.5 -76.45 184.5 0.0 184.5 76.45 130.5 130.5 76.45 184.5 0.0 184.5 -76.45 184.5 -130.45 130.5 -184.5 76.45 -184.5 0.0 -184.5 -76.45 -130.45 -130.45 -76.45 -184.5 0.0 -184.5 76.45 -184.5 130.5 -130.45" fill="#000000" fill-rule="evenodd" stroke="none"/>
    <path d="M128.7 -128.7 Q182.0 -75.4 182.0 0.0 182.0 75.4 128.7 128.7 75.4 182.0 0.0 182.0 -75.4 182.0 -128.7 128.7 -182.0 75.4 -182.0 0.0 -182.0 -75.4 -128.7 -128.7 -75.4 -182.0 0.0 -182.0 75.4 -182.0 128.7 -128.7" fill="url(#gradient0)" fill-rule="evenodd" stroke="none"/>
  </g>
  <defs>
    <radialGradient cx="0" cy="0" gradientTransform="matrix(0.2812, 0.0, 0.0, 0.2812, 0.0, -88.0)" gradientUnits="userSpaceOnUse" id="gradient0" r="819.2" spreadMethod="pad">
      <stop offset="0.17647058823529413" stop-color="#fc2e2e"/>
      <stop offset="0.44313725490196076" stop-color="#c40202"/>
      <stop offset="0.8823529411764706" stop-color="#890303"/>
      <stop offset="1.0" stop-color="#9e0303"/>
    </radialGradient>
  </defs>
</svg>
