<?xml version="1.0" encoding="UTF-8" standalone="no"?>
<svg xmlns:xlink="http://www.w3.org/1999/xlink" height="53.55px" width="329.75px" xmlns="http://www.w3.org/2000/svg">
  <g transform="matrix(1.0, 0.0, 0.0, 1.0, 47.2, 21.05)">
    <path d="M-45.55 -0.75 L-47.2 -4.6 -40.65 -5.5 -34.5 -6.5 Q-33.3 -5.85 -31.55 -5.1 -28.65 -3.85 -25.95 -3.2 L-25.25 -2.65 -24.5 -2.2 -29.1 0.0 -33.95 2.6 -36.85 1.8 Q-41.9 0.5 -43.25 0.5 -44.95 0.5 -45.55 -0.75 M7.8 -4.05 L20.35 -5.85 Q25.4 -6.4 25.5 -6.95 25.55 -5.7 31.0 -5.0 L40.0 -4.5 50.25 -5.25 54.4 -5.65 55.4 -5.35 59.5 -5.0 Q65.2 -5.0 74.2 -7.8 77.5 -8.85 79.8 -9.8 87.35 -5.6 92.65 -4.0 97.65 -2.5 105.0 -2.5 109.4 -2.5 111.75 -3.7 L116.0 -6.3 124.2 -6.6 133.55 -7.1 Q146.5 -8.55 153.6 -15.0 162.0 -15.35 176.65 -18.45 L188.25 -21.05 193.05 -17.8 Q197.4 -15.5 210.0 -15.5 215.5 -15.5 224.0 -17.85 L229.45 -19.15 233.2 -16.5 Q239.15 -12.5 246.75 -12.5 252.65 -12.5 256.15 -13.5 L262.5 -15.0 Q262.45 -12.6 270.6 -7.8 274.1 -5.7 282.55 -1.5 283.0 -1.3 270.75 11.0 258.7 11.0 246.9 14.05 243.1 14.9 242.3 15.35 239.45 16.95 236.9 20.1 232.9 25.0 234.0 28.0 L226.6 28.85 Q221.35 29.7 221.0 32.5 L218.1 28.6 Q217.4 27.65 215.35 26.95 L213.5 26.5 Q215.05 25.9 221.75 23.85 228.0 21.5 229.5 18.5 225.8 16.65 217.7 15.5 L205.0 14.5 Q201.3 14.5 198.2 15.65 196.85 16.15 196.0 16.7 187.85 17.3 178.55 19.9 170.7 22.05 167.3 24.05 160.95 21.3 145.1 18.0 L104.5 10.0 Q99.6 7.05 98.0 6.5 L92.0 6.5 Q92.0 7.0 90.0 8.0 L76.5 6.75 64.25 6.25 55.5 6.0 36.95 5.85 Q35.95 5.95 34.6 6.85 33.35 7.65 33.0 8.2 L28.35 7.0 Q11.95 2.95 3.0 2.0 L-6.15 2.0 -9.7 -0.95 7.8 -4.05" fill="url(#gradient0)" fill-rule="evenodd" stroke="none"/>
    <path d="M160.0 -7.85 L221.35 -5.65 Q256.5 -3.3 256.5 0.0 256.5 3.3 221.35 5.65 L160.0 7.85 160.0 -7.85" fill="#ffffff" fill-rule="evenodd" stroke="none"/>
  </g>
  <defs>
    <radialGradient cx="0" cy="0" fx="656.0" fy="0" gradientTransform="matrix(0.2734, 0.0, 0.0, 0.0593, 88.0, 0.0)" gradientUnits="userSpaceOnUse" id="gradient0" r="819.2" spreadMethod="pad">
      <stop offset="0.0" stop-color="#fcba43"/>
      <stop offset="0.10980392156862745" stop-color="#ff702b"/>
      <stop offset="0.28627450980392155" stop-color="#e71818"/>
      <stop offset="1.0" stop-color="#661a1a"/>
    </radialGradient>
  </defs>
</svg>
