<?xml version="1.0" encoding="UTF-8" standalone="no"?>
<svg xmlns:xlink="http://www.w3.org/1999/xlink" height="16.05px" width="377.0px" xmlns="http://www.w3.org/2000/svg">
  <g transform="matrix(1.0, 0.0, 0.0, 1.0, -199.5, 7.85)">
    <path d="M271.5 0.5 L271.7 0.7 271.65 0.7 271.5 0.5 M389.95 -2.5 L390.2 -2.15 390.1 -2.1 389.95 -2.5" fill="#ff0000" fill-rule="evenodd" stroke="none"/>
    <path d="M271.65 0.7 Q269.85 1.8 267.7 3.25 264.05 5.7 262.25 7.35 L260.25 6.65 Q254.0 4.5 251.25 4.5 L248.15 4.6 Q247.05 4.85 246.5 6.0 245.5 5.0 240.1 2.6 L237.55 1.45 246.4 -1.7 254.35 -4.5 259.6 -1.65 Q264.75 0.5 271.5 0.5 L271.65 0.7 M312.25 -6.8 Q314.6 -4.65 321.4 -3.2 L324.8 -2.5 Q328.45 2.25 336.75 2.9 341.45 3.25 348.55 2.7 350.15 3.85 352.4 5.05 355.85 6.95 357.95 7.4 L347.15 6.85 Q341.5 6.9 337.7 8.0 L332.0 7.05 324.05 6.5 Q317.05 6.5 314.55 8.0 L314.5 8.2 Q311.4 6.85 303.8 4.65 L292.6 1.25 301.0 -2.0 Q309.0 -5.25 312.25 -6.8 M390.1 -2.1 L383.7 0.6 379.6 2.65 377.85 2.1 373.8 1.5 Q371.45 1.5 368.4 2.5 L365.55 3.5 358.45 0.75 350.55 -1.8 353.45 -2.6 355.5 -3.25 358.4 -4.2 363.95 -6.1 372.5 -5.25 384.05 -4.5 384.35 -4.25 Q385.8 -3.15 389.95 -2.5 L390.1 -2.1 M445.25 -6.7 Q448.15 -5.65 457.7 -4.45 461.0 -0.55 466.8 3.0 L466.75 3.4 451.3 3.0 Q448.85 3.0 444.5 4.5 L440.55 6.0 433.7 3.75 Q430.15 2.65 427.45 2.1 L434.85 -0.95 Q442.9 -4.6 445.25 -6.7 M213.9 4.45 Q208.45 5.05 207.0 6.5 L202.2 2.7 199.5 0.5 208.05 -2.5 Q209.8 -0.8 213.3 1.35 L218.4 4.2 213.9 4.45 M414.55 3.45 L410.6 4.3 Q404.95 5.8 403.75 7.6 L399.35 5.45 Q396.45 4.0 395.15 3.45 L398.85 1.45 Q402.8 -0.7 404.3 -1.25 L410.1 1.4 414.55 3.45" fill="url(#gradient0)" fill-rule="evenodd" stroke="none"/>
    <path d="M480.0 -7.85 L541.35 -5.65 Q576.5 -3.3 576.5 0.0 576.5 3.3 541.35 5.65 L480.0 7.85 480.0 -7.85" fill="#ffffff" fill-rule="evenodd" stroke="none"/>
  </g>
  <defs>
    <radialGradient cx="0" cy="0" fx="656.0" fy="0" gradientTransform="matrix(0.2734, 0.0, 0.0, 0.0593, 288.0, 0.0)" gradientUnits="userSpaceOnUse" id="gradient0" r="819.2" spreadMethod="pad">
      <stop offset="0.0" stop-color="#fcba43"/>
      <stop offset="0.10980392156862745" stop-color="#ff702b"/>
      <stop offset="0.28627450980392155" stop-color="#e71818"/>
      <stop offset="1.0" stop-color="#661a1a"/>
    </radialGradient>
  </defs>
</svg>
