<?xml version="1.0" encoding="UTF-8" standalone="no"?>
<svg xmlns:xlink="http://www.w3.org/1999/xlink" height="92.0px" width="34.0px" xmlns="http://www.w3.org/2000/svg">
  <g transform="matrix(1.0, 0.0, 0.0, 1.0, 17.0, 43.0)">
    <path d="M17.0 -26.0 L17.0 34.0 16.7 35.35 15.65 37.5 16.15 37.9 Q17.0 38.75 17.0 40.0 L17.0 46.0 Q17.0 47.25 16.15 48.15 15.25 49.0 14.0 49.0 L-14.0 49.0 Q-15.25 49.0 -16.1 48.15 -17.0 47.25 -17.0 46.0 L-17.0 40.0 Q-17.0 38.75 -16.1 37.9 L-15.6 37.5 -16.65 35.35 -17.0 34.0 -17.0 -26.0 Q-17.0 -33.05 -12.0 -38.0 -7.05 -43.0 0.0 -43.0 7.05 -43.0 12.05 -38.0 17.0 -33.05 17.0 -26.0" fill="#000000" fill-rule="evenodd" stroke="none"/>
    <path d="M12.0 42.0 L-12.0 42.0 -12.0 36.0 12.0 36.0 12.0 42.0" fill="#6a6a6a" fill-rule="evenodd" stroke="none"/>
    <path d="M14.0 -20.0 L14.0 34.0 -14.0 34.0 -14.0 -20.0 14.0 -20.0" fill="url(#gradient0)" fill-rule="evenodd" stroke="none"/>
    <path d="M-14.0 40.0 L14.0 40.0 14.0 46.0 -14.0 46.0 -14.0 40.0" fill="url(#gradient1)" fill-rule="evenodd" stroke="none"/>
    <path d="M14.0 34.0 L12.0 38.0 -12.0 38.0 -14.0 34.0 14.0 34.0" fill="url(#gradient2)" fill-rule="evenodd" stroke="none"/>
    <path d="M-14.0 -20.0 L-14.0 -26.0 Q-14.0 -31.8 -9.9 -35.9 -5.8 -40.0 0.0 -40.0 5.8 -40.0 9.9 -35.9 14.0 -31.8 14.0 -26.0 L14.0 -20.0 -14.0 -20.0" fill="url(#gradient3)" fill-rule="evenodd" stroke="none"/>
    <path d="M-14.0 -20.0 L14.0 -20.0" fill="none" stroke="#44403c" stroke-linecap="round" stroke-linejoin="round" stroke-width="1.0"/>
    <path d="M4.5 -20.05 L9.1 -20.05 Q9.1 1.8 8.4 18.15 7.7 34.0 6.8 34.0 5.8 34.0 5.15 18.15 4.5 3.0 4.5 -20.05" fill="url(#gradient4)" fill-rule="evenodd" stroke="none"/>
    <path d="M9.1 -20.05 L4.5 -20.05 4.5 -21.2 Q4.6 -24.55 5.15 -27.05 5.8 -30.0 6.8 -30.0 7.7 -30.0 8.4 -27.05 9.0 -24.55 9.1 -21.2 L9.1 -20.05" fill="url(#gradient5)" fill-rule="evenodd" stroke="none"/>
  </g>
  <defs>
    <linearGradient gradientTransform="matrix(0.0171, 0.0, 0.0, 0.033, 0.0, 7.0)" gradientUnits="userSpaceOnUse" id="gradient0" spreadMethod="pad" x1="-819.2" x2="819.2">
      <stop offset="0.0" stop-color="#8a8a8a"/>
      <stop offset="0.17647058823529413" stop-color="#717171"/>
      <stop offset="0.3137254901960784" stop-color="#6d6d6d"/>
      <stop offset="0.5372549019607843" stop-color="#8d8d8d"/>
      <stop offset="0.7607843137254902" stop-color="#b3aea8"/>
      <stop offset="1.0" stop-color="#8b8a89"/>
    </linearGradient>
    <linearGradient gradientTransform="matrix(0.0171, 0.0, 0.0, 0.0037, 0.0, 43.0)" gradientUnits="userSpaceOnUse" id="gradient1" spreadMethod="pad" x1="-819.2" x2="819.2">
      <stop offset="0.0" stop-color="#8a8a8a"/>
      <stop offset="0.17647058823529413" stop-color="#717171"/>
      <stop offset="0.3137254901960784" stop-color="#6d6d6d"/>
      <stop offset="0.5372549019607843" stop-color="#8d8d8d"/>
      <stop offset="0.7607843137254902" stop-color="#b3aea8"/>
      <stop offset="1.0" stop-color="#8b8a89"/>
    </linearGradient>
    <linearGradient gradientTransform="matrix(0.0122, 0.0, 0.0, 0.0024, 0.0, 36.0)" gradientUnits="userSpaceOnUse" id="gradient2" spreadMethod="pad" x1="-819.2" x2="819.2">
      <stop offset="0.0" stop-color="#8a8a8a"/>
      <stop offset="0.17647058823529413" stop-color="#717171"/>
      <stop offset="0.3137254901960784" stop-color="#6d6d6d"/>
      <stop offset="0.5372549019607843" stop-color="#8d8d8d"/>
      <stop offset="0.7607843137254902" stop-color="#b3aea8"/>
      <stop offset="1.0" stop-color="#8b8a89"/>
    </linearGradient>
    <linearGradient gradientTransform="matrix(0.0171, 0.0, 0.0, 0.0122, 0.0, -30.0)" gradientUnits="userSpaceOnUse" id="gradient3" spreadMethod="pad" x1="-819.2" x2="819.2">
      <stop offset="0.0" stop-color="#798c73"/>
      <stop offset="0.19607843137254902" stop-color="#4b5f4b"/>
      <stop offset="0.7372549019607844" stop-color="#93b08e"/>
      <stop offset="1.0" stop-color="#6c936f"/>
    </linearGradient>
    <radialGradient cx="0" cy="0" gradientTransform="matrix(0.014, 0.0, 0.0, 0.0662, 6.8, -20.25)" gradientUnits="userSpaceOnUse" id="gradient4" r="819.2" spreadMethod="pad">
      <stop offset="0.0" stop-color="#cacaca"/>
      <stop offset="1.0" stop-color="#adadad" stop-opacity="0.0"/>
    </radialGradient>
    <radialGradient cx="0" cy="0" gradientTransform="matrix(0.014, 0.0, 0.0, 0.0123, 6.8, -19.9)" gradientUnits="userSpaceOnUse" id="gradient5" r="819.2" spreadMethod="pad">
      <stop offset="0.0" stop-color="#acc4af"/>
      <stop offset="1.0" stop-color="#b8b3a3" stop-opacity="0.0"/>
    </radialGradient>
  </defs>
</svg>
