<?xml version="1.0" encoding="UTF-8" standalone="no"?>
<svg xmlns:xlink="http://www.w3.org/1999/xlink" height="62.55px" width="63.0px" xmlns="http://www.w3.org/2000/svg">
  <g transform="matrix(1.0, 0.0, 0.0, 1.0, 31.5, 31.25)">
    <path d="M3.5 -29.85 L3.95 -31.25 Q14.45 -30.05 22.25 -22.3 31.5 -13.05 31.5 0.0 31.5 13.05 22.25 22.25 14.45 30.05 3.95 31.3 L3.5 29.85 3.3 29.6 3.0 29.5 -3.0 29.5 -3.3 29.6 -3.45 29.85 -3.95 31.3 Q-14.45 30.05 -22.3 22.25 -31.5 13.05 -31.5 0.0 -31.5 -13.05 -22.3 -22.3 -14.45 -30.05 -3.95 -31.25 L-3.45 -29.85 -3.3 -29.6 -3.0 -29.5 3.0 -29.5 3.3 -29.6 3.5 -29.85" fill="#fed356" fill-rule="evenodd" stroke="none"/>
  </g>
</svg>
