<?xml version="1.0" encoding="UTF-8" standalone="no"?>
<svg xmlns:xlink="http://www.w3.org/1999/xlink" height="14.2px" width="14.2px" xmlns="http://www.w3.org/2000/svg">
  <g transform="matrix(1.0, 0.0, 0.0, 1.0, 7.1, 7.1)">
    <path d="M2.1 -2.1 Q3.1 -1.1 4.3 -0.65 5.3 -0.25 7.1 0.0 5.3 0.25 4.3 0.65 3.1 1.1 2.1 2.1 1.15 3.05 0.7 4.25 0.4 5.1 0.0 7.1 -0.4 5.1 -0.7 4.25 -1.15 3.05 -2.1 2.1 -3.1 1.1 -4.3 0.65 -5.3 0.25 -7.1 0.0 -5.3 -0.25 -4.3 -0.65 -3.1 -1.1 -2.1 -2.1 -1.15 -3.05 -0.7 -4.25 -0.4 -5.1 0.0 -7.1 0.4 -5.1 0.7 -4.25 1.15 -3.05 2.1 -2.1" fill="url(#gradient0)" fill-rule="evenodd" stroke="none"/>
  </g>
  <defs>
    <radialGradient cx="0" cy="0" gradientTransform="matrix(0.0094, 0.0, 0.0, 0.0094, 0.0, 0.0)" gradientUnits="userSpaceOnUse" id="gradient0" r="819.2" spreadMethod="pad">
      <stop offset="0.24313725490196078" stop-color="#ffffff"/>
      <stop offset="0.4627450980392157" stop-color="#fcebba"/>
      <stop offset="0.7647058823529411" stop-color="#b4d2fc"/>
    </radialGradient>
  </defs>
</svg>
