<?xml version="1.0" encoding="UTF-8" standalone="no"?>
<svg xmlns:xlink="http://www.w3.org/1999/xlink" height="143.75px" width="278.75px" xmlns="http://www.w3.org/2000/svg">
  <g transform="matrix(1.0, 0.0, 0.0, 1.0, 140.0, 56.5)">
    <path d="M18.0 -55.25 L18.75 -55.0 20.0 -54.75 20.5 -54.75 21.25 -54.5 21.75 -54.5 22.5 -54.25 23.25 -54.25 24.0 -54.0 24.5 -54.0 25.25 -53.75 25.75 -53.75 26.75 -53.5 27.0 -53.5 28.0 -53.25 28.25 -53.25 29.25 -53.0 30.25 -53.0 31.0 -52.75 32.25 -52.75 33.5 -52.5 48.25 -47.5 48.5 -47.5 50.25 -46.75 51.25 -46.75 67.5 -38.75 68.25 -38.5 78.0 -32.0 78.25 -32.0 83.5 -28.25 97.25 -16.25 110.25 -2.25 120.75 13.25 129.0 29.75 135.0 47.5 138.75 65.75 138.75 73.75 138.5 75.25 136.0 76.75 130.5 78.5 111.0 82.0 81.0 84.75 42.75 86.5 -0.25 87.25 -43.75 86.5 -82.0 84.75 -98.25 83.25 -123.0 80.25 -131.5 78.5 -137.0 76.5 -140.0 75.0 -139.75 66.5 -136.0 47.5 -130.0 29.75 -121.75 13.25 -111.25 -2.25 -98.75 -16.25 -84.75 -28.25 -84.5 -28.5 -71.25 -37.25 -70.75 -37.5 -70.0 -38.0 -51.25 -47.0 -49.5 -47.5 -49.25 -47.5 -49.0 -47.75 -35.25 -52.25 -32.75 -52.75 -32.0 -52.75 -31.25 -53.0 -30.75 -53.0 -26.75 -53.75 -26.5 -53.75 -20.5 -55.0 -19.75 -55.0 -19.25 -55.25 -18.5 -55.25 -17.5 -55.5 -16.25 -55.5 -15.25 -55.75 -14.75 -55.75 -14.0 -56.0 -12.75 -56.0 -0.5 -56.5 2.25 -56.25 9.0 -56.25 11.5 -56.0 13.0 -56.0 13.75 -55.75 14.0 -55.75 15.25 -55.5 15.5 -55.5 16.25 -55.25 18.0 -55.25" fill="#0a0a0a" fill-rule="evenodd" stroke="none"/>
  </g>
</svg>
