<?xml version="1.0" encoding="UTF-8" standalone="no"?>
<svg xmlns:xlink="http://www.w3.org/1999/xlink" height="153.5px" width="285.0px" xmlns="http://www.w3.org/2000/svg">
  <g transform="matrix(1.0, 0.0, 0.0, 1.0, 143.0, 66.0)">
    <path d="M22.5 -64.0 L23.0 -63.75 23.75 -63.75 24.25 -63.5 25.25 -63.5 25.75 -63.25 26.5 -63.25 28.0 -62.75 29.25 -62.75 29.75 -62.5 32.25 -62.25 32.75 -62.0 33.0 -62.0 34.75 -61.75 35.5 -61.5 36.5 -61.0 39.5 -60.0 40.25 -60.0 48.5 -57.25 49.25 -56.75 49.5 -56.75 50.0 -56.5 50.75 -56.5 51.25 -56.25 51.75 -56.25 68.75 -48.0 69.5 -47.75 72.5 -45.75 73.0 -45.5 79.75 -41.0 80.25 -40.75 80.75 -40.25 81.5 -39.75 82.5 -39.25 84.0 -38.25 84.5 -37.75 84.75 -37.75 99.5 -25.0 112.25 -10.75 122.5 5.0 131.25 21.75 137.5 39.75 141.25 58.5 142.0 74.0 141.5 75.5 139.0 77.0 133.5 78.75 113.75 82.25 83.0 85.0 43.75 87.0 22.0 87.5 -23.0 87.5 -44.75 87.0 -100.5 83.75 -126.0 80.5 -134.5 78.5 -140.0 76.75 -143.0 75.0 -143.0 69.5 -142.75 67.75 -142.75 65.75 -142.5 64.0 -142.5 62.25 -142.25 60.25 -142.25 59.5 -138.5 40.0 -132.25 21.75 -123.75 4.75 -113.0 -11.0 -99.0 -26.5 -98.25 -27.0 -97.25 -28.0 -96.25 -28.75 -95.25 -29.75 -94.25 -30.5 -93.5 -31.25 -92.5 -32.0 -91.5 -33.0 -90.5 -33.75 -89.75 -34.5 -88.75 -35.25 -88.0 -36.0 -86.75 -37.0 -86.25 -37.25 -69.75 -48.0 -52.25 -56.25 -34.0 -62.0 -33.75 -62.0 -31.0 -62.5 -30.25 -62.75 -29.5 -62.75 -28.25 -63.0 -27.5 -63.25 -26.75 -63.25 -20.0 -64.5 -19.75 -64.5 -17.0 -65.0 -16.5 -65.0 -15.75 -65.25 -15.0 -65.25 -14.5 -65.5 -13.25 -65.5 -5.5 -66.0 12.0 -65.5 13.25 -65.25 14.5 -65.25 15.5 -65.0 16.0 -65.0 16.75 -64.75 17.25 -64.75 18.0 -64.5 18.75 -64.5 19.75 -64.25 20.0 -64.25 21.0 -64.0 22.5 -64.0" fill="#0a0a0a" fill-rule="evenodd" stroke="none"/>
  </g>
</svg>
