<?xml version="1.0" encoding="UTF-8" standalone="no"?>
<svg xmlns:xlink="http://www.w3.org/1999/xlink" height="151.0px" width="325.0px" xmlns="http://www.w3.org/2000/svg">
  <g transform="matrix(1.0, 0.0, 0.0, 1.0, 3.0, 15.0)">
    <path d="M56.0 -3.0 L319.0 -3.0 Q322.0 -3.0 322.0 0.0 L322.0 133.0 Q322.0 136.0 319.0 136.0 L0.0 136.0 Q-3.0 136.0 -3.0 133.0 L-3.0 -12.0 Q-3.0 -15.0 0.0 -15.0 L53.0 -15.0 Q56.0 -15.0 56.0 -12.0 L56.0 -3.0 M317.0 1.0 L2.0 1.0 Q1.0 1.0 1.0 2.0 L1.0 131.0 Q1.0 132.0 2.0 132.0 L317.0 132.0 Q318.0 132.0 318.0 131.0 L318.0 2.0 Q318.0 1.0 317.0 1.0" fill="#000000" fill-rule="evenodd" stroke="none"/>
    <path d="M319.0 2.0 Q319.0 0.0 317.0 0.0 L2.0 0.0 Q0.0 0.0 0.0 2.0 L0.0 131.0 Q0.0 133.0 2.0 133.0 L317.0 133.0 Q319.0 133.0 319.0 131.0 L319.0 2.0 M55.0 -12.0 L55.0 -2.0 319.0 -2.0 Q321.0 -2.0 321.0 0.0 L321.0 124.75 321.0 133.0 Q321.0 135.0 319.0 135.0 L304.6 135.0 0.0 135.0 Q-2.0 135.0 -2.0 133.0 L-2.0 -12.0 Q-2.0 -14.0 0.0 -14.0 L53.0 -14.0 Q55.0 -14.0 55.0 -12.0" fill="#00ff00" fill-rule="evenodd" stroke="none"/>
  </g>
</svg>
