<?xml version="1.0" encoding="UTF-8" standalone="no"?>
<svg xmlns:xlink="http://www.w3.org/1999/xlink" height="260.0px" width="536.0px" xmlns="http://www.w3.org/2000/svg">
  <g transform="matrix(1.0, 0.0, 0.0, 1.0, 3.0, 15.0)">
    <path d="M56.0 -3.0 L530.0 -3.0 Q533.0 -3.0 533.0 0.0 L533.0 242.0 Q533.0 245.0 530.0 245.0 L0.0 245.0 Q-3.0 245.0 -3.0 242.0 L-3.0 -12.0 Q-3.0 -15.0 0.0 -15.0 L53.0 -15.0 Q56.0 -15.0 56.0 -12.0 L56.0 -3.0 M528.0 1.0 L2.0 1.0 Q1.0 1.0 1.0 2.0 L1.0 240.0 Q1.0 241.0 2.0 241.0 L528.0 241.0 Q529.0 241.0 529.0 240.0 L529.0 2.0 Q529.0 1.0 528.0 1.0" fill="#000000" fill-rule="evenodd" stroke="none"/>
    <path d="M55.0 -2.0 L65.0 -2.0 530.0 -2.0 Q532.0 -2.0 532.0 0.0 L532.0 242.0 Q532.0 244.0 530.0 244.0 L0.0 244.0 Q-2.0 244.0 -2.0 242.0 L-2.0 -12.0 Q-2.0 -14.0 0.0 -14.0 L53.0 -14.0 Q55.0 -14.0 55.0 -12.0 L55.0 -2.0 M528.0 0.0 L65.0 0.0 2.0 0.0 Q0.0 0.0 0.0 2.0 L0.0 240.0 Q0.0 242.0 2.0 242.0 L528.0 242.0 Q530.0 242.0 530.0 240.0 L530.0 2.0 Q530.0 0.0 528.0 0.0" fill="#00ff00" fill-rule="evenodd" stroke="none"/>
  </g>
</svg>
