<?xml version="1.0" encoding="UTF-8" standalone="no"?>
<svg xmlns:xlink="http://www.w3.org/1999/xlink" height="11.75px" width="64.85px" xmlns="http://www.w3.org/2000/svg">
  <g transform="matrix(1.0, 0.0, 0.0, 1.0, -106.35, -24.3)">
    <path d="M138.75 28.85 L142.25 28.4 144.0 24.8 145.7 28.4 149.25 28.85 152.8 28.4 154.55 24.8 156.25 28.4 159.8 28.85 163.3 28.4 165.05 24.8 166.75 28.4 170.7 28.9 167.75 31.6 168.5 35.55 165.05 33.6 161.55 35.55 162.3 31.6 159.8 29.3 157.25 31.6 158.0 35.55 154.55 33.6 151.05 35.55 151.8 31.6 149.25 29.3 146.7 31.6 147.45 35.55 144.0 33.6 140.5 35.55 141.25 31.6 138.75 29.3 136.2 31.6 136.95 35.55 133.5 33.6 130.0 35.55 130.75 31.6 128.2 29.3 125.65 31.6 126.4 35.55 122.95 33.6 119.45 35.55 120.2 31.6 117.25 28.9 121.2 28.4 122.95 24.8 124.65 28.4 128.2 28.85 131.75 28.4 133.5 24.8 135.2 28.4 138.75 28.85 138.3 28.9 138.75 29.3 138.3 28.9 138.75 28.85 M149.25 28.85 L148.85 28.9 149.25 29.3 148.85 28.9 149.25 28.85 M159.8 28.85 L159.35 28.9 159.8 29.3 159.35 28.9 159.8 28.85" fill="#000000" fill-rule="evenodd" stroke="none"/>
    <path d="M138.75 28.85 L142.25 28.4 144.0 24.8 145.7 28.4 149.25 28.85 152.8 28.4 154.55 24.8 156.25 28.4 159.8 28.85 163.3 28.4 165.05 24.8 166.75 28.4 170.7 28.9 167.75 31.6 168.5 35.55 165.05 33.6 161.55 35.55 162.3 31.6 159.8 29.3 157.25 31.6 158.0 35.55 154.55 33.6 151.05 35.55 151.8 31.6 149.25 29.3 146.7 31.6 147.45 35.55 144.0 33.6 140.5 35.55 141.25 31.6 138.75 29.3 136.2 31.6 136.95 35.55 133.5 33.6 130.0 35.55 130.75 31.6 128.2 29.3 125.65 31.6 126.4 35.55 122.95 33.6 119.45 35.55 120.2 31.6 117.25 28.9 121.2 28.4 122.95 24.8 124.65 28.4 128.2 28.85 131.75 28.4 133.5 24.8 135.2 28.4 138.75 28.85 138.3 28.9 138.75 29.3 M159.8 29.3 L159.35 28.9 159.8 28.85 M149.25 29.3 L148.85 28.9 149.25 28.85" fill="none" stroke="#595142" stroke-linecap="round" stroke-linejoin="round" stroke-width="1.0"/>
    <path d="M117.95 29.4 L117.8 29.3 115.25 31.6 116.0 35.55 112.55 33.6 109.05 35.55 109.8 31.6 106.85 28.9 110.8 28.4 112.55 24.8 114.25 28.4 117.8 28.85 117.95 28.85 117.95 29.4" fill="#000000" fill-rule="evenodd" stroke="none"/>
    <path d="M117.95 29.4 L117.8 29.3 115.25 31.6 116.0 35.55 112.55 33.6 109.05 35.55 109.8 31.6 106.85 28.9 110.8 28.4 112.55 24.8 114.25 28.4 117.8 28.85 117.95 28.85" fill="none" stroke="#595142" stroke-linecap="round" stroke-linejoin="round" stroke-width="1.0"/>
  </g>
</svg>
