<?xml version="1.0" encoding="UTF-8" standalone="no"?>
<svg xmlns:xlink="http://www.w3.org/1999/xlink" height="40.0px" width="88.0px" xmlns="http://www.w3.org/2000/svg">
  <g transform="matrix(1.0, 0.0, 0.0, 1.0, 3.0, 15.0)">
    <path d="M56.0 -12.0 L56.0 -3.0 82.0 -3.0 Q85.0 -3.0 85.0 0.0 L85.0 22.0 Q85.0 25.0 82.0 25.0 L0.0 25.0 Q-3.0 25.0 -3.0 22.0 L-3.0 -12.0 Q-3.0 -15.0 0.0 -15.0 L53.0 -15.0 Q56.0 -15.0 56.0 -12.0 M81.0 2.0 Q81.0 1.0 80.0 1.0 L2.0 1.0 Q1.0 1.0 1.0 2.0 L1.0 20.0 Q1.0 21.0 2.0 21.0 L80.0 21.0 Q81.0 21.0 81.0 20.0 L81.0 2.0" fill="#000000" fill-rule="evenodd" stroke="none"/>
    <path d="M55.0 -12.0 L55.0 -2.0 82.0 -2.0 Q84.0 -2.0 84.0 0.0 L84.0 22.0 Q84.0 24.0 82.0 24.0 L0.0 24.0 Q-2.0 24.0 -2.0 22.0 L-2.0 -12.0 Q-2.0 -14.0 0.0 -14.0 L53.0 -14.0 Q55.0 -14.0 55.0 -12.0 M82.0 2.0 Q82.0 0.0 80.0 0.0 L2.0 0.0 Q0.0 0.0 0.0 2.0 L0.0 20.0 Q0.0 22.0 2.0 22.0 L80.0 22.0 Q82.0 22.0 82.0 20.0 L82.0 2.0" fill="#00ff00" fill-rule="evenodd" stroke="none"/>
  </g>
</svg>
