<?xml version="1.0" encoding="UTF-8" standalone="no"?>
<svg xmlns:xlink="http://www.w3.org/1999/xlink" height="411.8px" width="649.45px" xmlns="http://www.w3.org/2000/svg">
  <g transform="matrix(1.0, 0.0, 0.0, 1.0, 138.0, 52.35)">
    <path d="M99.1 -49.65 L100.1 -51.15 101.35 -51.9 103.5 -52.0 105.0 -51.9 105.1 -51.9 320.3 -33.45 511.1 -15.65 510.85 -1.65 509.85 -1.65 508.35 0.5 507.35 0.5 447.5 -6.5 234.1 -33.75 99.1 -49.65" fill="#595959" fill-rule="evenodd" stroke="none"/>
    <path d="M320.3 -33.45 L392.1 -28.25 511.1 -17.75 511.1 -15.65 320.3 -33.45 M510.85 -1.65 L511.1 3.5 98.75 -48.15 99.1 -49.65 234.1 -33.75 447.5 -6.5 507.35 0.5 508.35 0.5 509.85 -1.65 510.85 -1.65" fill="#525252" fill-rule="evenodd" stroke="none"/>
    <path d="M511.1 3.5 L511.1 10.5 251.1 -24.75 99.0 -46.75 98.75 -48.15 511.1 3.5" fill="#363636" fill-rule="evenodd" stroke="none"/>
    <path d="M511.1 10.5 L511.1 20.1 411.5 4.85 102.1 -44.25 Q100.6 -44.15 99.0 -46.75 L251.1 -24.75 511.1 10.5" fill="#111111" fill-rule="evenodd" stroke="none"/>
    <path d="M511.1 72.85 L72.0 -41.65 Q71.75 -46.0 77.5 -47.5 L511.1 25.1 511.1 72.85" fill="#565656" fill-rule="evenodd" stroke="none"/>
    <path d="M77.5 -47.5 L79.6 -47.5 511.1 23.6 511.1 25.1 77.5 -47.5" fill="#4c4c4c" fill-rule="evenodd" stroke="none"/>
    <path d="M72.35 -39.5 L72.0 -41.65 511.1 72.85 511.1 86.75 290.0 24.6 72.35 -39.5" fill="#353535" fill-rule="evenodd" stroke="none"/>
    <path d="M72.35 -39.5 L290.0 24.6 511.1 86.75 510.85 103.75 85.25 -33.0 Q72.25 -36.25 72.35 -39.5" fill="#121212" fill-rule="evenodd" stroke="none"/>
    <path d="M9.25 359.1 L-137.65 359.1 -11.9 -25.9 Q-11.9 -27.0 -9.5 -29.65 -4.4 -34.4 1.1 -33.25 L8.25 135.25 8.0 136.0 9.25 163.1 9.25 359.1" fill="#545454" fill-rule="evenodd" stroke="none"/>
    <path d="M1.1 -33.25 Q4.5 -33.75 10.25 -27.4 L136.6 358.85 9.25 359.1 9.25 163.1 8.0 136.0 8.25 135.25 1.1 -33.25" fill="#292929" fill-rule="evenodd" stroke="none"/>
    <path d="M10.25 -27.4 L136.6 358.85 -137.65 359.1 -11.9 -25.9 Q-11.9 -27.0 -9.5 -29.65 -4.4 -34.4 1.1 -33.25 4.5 -33.75 10.25 -27.4 M72.35 -39.5 Q72.25 -36.25 85.25 -33.0 L510.85 103.75 511.1 23.6 79.6 -47.5 77.5 -47.5 Q71.75 -46.0 72.0 -41.65 L72.35 -39.5 M103.5 -52.0 L105.0 -51.9 105.1 -51.9 392.1 -28.25 511.1 -17.75 510.85 -1.65 511.1 20.1 411.5 4.85 102.1 -44.25 Q100.6 -44.15 99.0 -46.75 L98.75 -48.15 99.1 -49.65 100.1 -51.15 101.35 -51.9 103.5 -52.0" fill="none" stroke="#000000" stroke-linecap="round" stroke-linejoin="round" stroke-width="0.7000000000000001"/>
  </g>
</svg>
