<?xml version="1.0" encoding="UTF-8" standalone="no"?>
<svg xmlns:xlink="http://www.w3.org/1999/xlink" height="155.0px" width="21.0px" xmlns="http://www.w3.org/2000/svg">
  <g transform="matrix(1.0, 0.0, 0.0, 1.0, 9.5, 77.5)">
    <path d="M7.25 -37.85 L6.45 -36.2 Q7.5 -35.05 7.5 -33.5 L7.5 -33.45 8.35 -30.05 8.4 -29.65 9.35 -21.15 Q10.9 -19.0 11.5 -11.15 11.55 -10.25 11.0 -9.5 L11.05 -9.55 Q10.55 -8.8 9.65 -8.55 L5.65 -7.55 5.6 -7.55 4.5 -7.55 4.5 52.0 4.75 52.25 4.8 52.25 Q5.5 52.95 5.5 54.0 L5.55 55.95 Q5.65 60.95 6.35 61.9 L7.3 63.0 Q7.65 63.8 7.45 64.65 7.2 65.45 6.55 66.0 L6.05 66.3 Q6.5 67.05 6.5 68.0 6.55 69.4 5.5 70.5 L5.05 70.85 4.25 72.85 4.2 72.9 Q3.05 75.35 1.9 76.65 L0.7 77.4 Q0.0 77.6 -0.7 77.4 L-1.9 76.65 Q-3.05 75.35 -4.2 72.9 L-4.2 72.85 -5.05 70.85 -5.45 70.5 Q-6.55 69.4 -6.5 68.0 -6.5 67.05 -6.05 66.3 L-6.5 66.0 Q-7.2 65.45 -7.4 64.65 -7.65 63.8 -7.3 63.0 L-7.25 63.0 Q-6.95 62.3 -6.3 61.9 -5.65 60.95 -5.5 55.95 L-5.5 54.0 Q-5.5 52.95 -4.75 52.25 L-4.5 52.0 -4.5 -8.0 -4.75 -8.2 -4.75 -8.25 Q-5.5 -8.95 -5.5 -9.95 L-5.5 -13.0 -5.6 -25.45 -5.6 -25.5 Q-5.7 -28.5 -5.95 -30.35 L-6.3 -30.65 -6.3 -30.7 Q-7.5 -31.9 -7.5 -33.5 -7.5 -35.05 -6.4 -36.2 L-7.25 -37.85 -7.4 -38.35 -8.4 -42.35 -8.45 -42.4 Q-8.6 -43.15 -8.35 -43.85 L-8.3 -43.9 -7.45 -45.0 -7.4 -45.05 -6.5 -45.45 -6.5 -65.55 -6.95 -65.7 -6.9 -65.65 Q-7.65 -65.95 -8.05 -66.6 L-8.1 -66.65 Q-8.55 -67.3 -8.5 -68.05 -8.45 -69.75 -8.65 -70.8 L-8.7 -71.0 -9.4 -74.35 -9.4 -74.4 Q-9.6 -75.2 -9.3 -75.95 L-9.25 -76.0 -8.2 -77.15 -8.15 -77.2 -6.65 -77.45 -6.6 -77.45 Q6.7 -75.5 6.5 -65.0 L6.5 -45.45 7.45 -45.05 7.45 -45.0 8.35 -43.9 8.35 -43.85 Q8.6 -43.15 8.45 -42.4 L8.45 -42.35 7.45 -38.35 7.25 -37.85 M5.35 -34.85 L5.35 -34.9 5.3 -34.85 5.35 -34.85" fill="#000000" fill-rule="evenodd" stroke="none"/>
    <path d="M2.0 64.0 Q2.0 65.55 3.0 67.0 L0.0 67.0 -3.0 67.0 Q-2.0 65.55 -2.0 64.0 L0.0 64.0 2.0 64.0" fill="url(#gradient0)" fill-rule="evenodd" stroke="none"/>
    <path d="M3.0 69.0 L1.95 71.8 Q0.95 73.9 0.0 75.0 -0.95 73.9 -1.95 71.8 L-3.0 69.0 0.0 69.0 3.0 69.0" fill="url(#gradient1)" fill-rule="evenodd" stroke="none"/>
    <path d="M3.7 67.3 L4.0 68.0 3.7 68.7 3.0 69.0 -3.0 69.0 -3.7 68.7 -4.0 68.0 -3.7 67.3 Q-3.4 67.0 -3.0 67.0 L3.0 67.0 Q3.4 67.0 3.7 67.3" fill="url(#gradient2)" fill-rule="evenodd" stroke="none"/>
    <path d="M5.0 64.0 L0.0 64.0 -5.0 64.0 Q-3.25 63.05 -3.0 56.0 L3.05 56.0 Q3.25 63.05 5.0 64.0" fill="url(#gradient3)" fill-rule="evenodd" stroke="none"/>
    <path d="M0.0 54.0 L3.0 54.0 3.05 56.0 -3.0 56.0 -3.0 54.0 0.0 54.0" fill="url(#gradient4)" fill-rule="evenodd" stroke="none"/>
    <path d="M2.0 54.0 L-2.0 54.0 -2.0 -8.0 2.0 -8.0 2.0 54.0" fill="url(#gradient5)" fill-rule="evenodd" stroke="none"/>
    <path d="M2.0 -8.0 L-2.0 -8.0 -2.0 -10.0 2.0 -10.0 2.0 -8.0" fill="url(#gradient6)" fill-rule="evenodd" stroke="none"/>
    <path d="M3.0 -10.0 L-3.0 -10.0 -3.0 -13.0 3.0 -13.0 3.0 -10.0" fill="url(#gradient7)" fill-rule="evenodd" stroke="none"/>
    <path d="M3.0 -34.0 L-3.0 -34.0 -3.0 -37.0 3.0 -37.0 3.0 -34.0" fill="url(#gradient8)" fill-rule="evenodd" stroke="none"/>
    <path d="M2.5 -35.5 Q4.35 -35.3 5.4 -29.45 L6.5 -19.5" fill="none" stroke="url(#gradient9)" stroke-linecap="round" stroke-linejoin="round" stroke-width="1.0"/>
    <path d="M9.0 -11.0 L5.0 -10.0 5.2 -17.1 Q5.4 -20.05 6.0 -20.0 L7.0 -20.0 Q8.35 -19.85 9.0 -11.0" fill="url(#gradient10)" fill-rule="evenodd" stroke="none"/>
    <path d="M3.0 -36.0 L3.35 -35.85 3.5 -35.5 3.35 -35.15 3.0 -35.0 -3.0 -35.0 -3.35 -35.15 -3.5 -35.5 -3.35 -35.85 -3.0 -36.0 3.0 -36.0" fill="url(#gradient11)" fill-rule="evenodd" stroke="none"/>
    <path d="M4.0 -33.0 Q3.3 -31.1 3.1 -25.55 L3.0 -13.0 0.0 -13.0 -3.0 -13.0 -3.1 -25.55 Q-3.3 -31.1 -4.0 -33.0 L0.0 -33.0 4.0 -33.0" fill="url(#gradient12)" fill-rule="evenodd" stroke="none"/>
    <path d="M4.55 -34.55 L5.0 -33.5 Q5.0 -32.9 4.55 -32.45 4.1 -32.0 3.5 -32.0 L-3.5 -32.0 Q-4.1 -32.0 -4.55 -32.45 -5.0 -32.9 -5.0 -33.5 L-4.55 -34.55 Q-4.1 -35.0 -3.5 -35.0 L3.5 -35.0 Q4.1 -35.0 4.55 -34.55" fill="url(#gradient13)" fill-rule="evenodd" stroke="none"/>
    <path d="M4.0 -37.0 L-4.0 -37.0 -5.0 -39.0 5.0 -39.0 4.0 -37.0" fill="url(#gradient14)" fill-rule="evenodd" stroke="none"/>
    <path d="M6.0 -38.0 L-6.0 -38.0 -6.0 -39.0 6.0 -39.0 6.0 -38.0 M4.0 -36.0 L-4.0 -36.0 -4.0 -37.0 4.0 -37.0 4.0 -36.0 M4.0 -31.0 L-4.0 -31.0 -4.0 -32.0 4.0 -32.0 4.0 -31.0 M2.0 -9.0 L-2.0 -9.0 -2.0 -10.0 2.0 -10.0 2.0 -9.0 M-3.0 64.0 L3.0 64.0 3.0 65.0 -3.0 65.0 -3.0 64.0" fill="#000000" fill-opacity="0.2" fill-rule="evenodd" stroke="none"/>
    <path d="M0.0 -39.0 L-5.0 -39.0 -6.0 -43.0 0.0 -43.0 0.0 -39.0" fill="url(#gradient15)" fill-rule="evenodd" stroke="none"/>
    <path d="M6.0 -43.0 L5.0 -39.0 0.0 -39.0 0.0 -43.0 6.0 -43.0" fill="url(#gradient16)" fill-rule="evenodd" stroke="none"/>
    <path d="M0.0 -43.0 L-4.0 -43.0 -4.0 -69.0 0.0 -69.0 0.0 -43.0" fill="url(#gradient17)" fill-rule="evenodd" stroke="none"/>
    <path d="M4.0 -43.0 L-1.0 -43.0 -1.0 -63.0 Q-1.1 -65.35 -2.7 -66.7 -4.0 -67.8 -6.0 -68.0 -5.95 -70.25 -6.15 -71.5 L-7.0 -75.0 Q3.95 -73.4 4.0 -65.0 L4.0 -43.0" fill="url(#gradient18)" fill-rule="evenodd" stroke="none"/>
  </g>
  <defs>
    <linearGradient gradientTransform="matrix(0.0037, 0.0, 0.0, 0.0018, 0.0, 65.5)" gradientUnits="userSpaceOnUse" id="gradient0" spreadMethod="pad" x1="-819.2" x2="819.2">
      <stop offset="0.0" stop-color="#181818"/>
      <stop offset="0.10196078431372549" stop-color="#37341e"/>
      <stop offset="0.2823529411764706" stop-color="#777a45"/>
      <stop offset="0.43137254901960786" stop-color="#aaa46a"/>
      <stop offset="0.5764705882352941" stop-color="#aaa46a"/>
      <stop offset="0.7176470588235294" stop-color="#777a45"/>
      <stop offset="0.8901960784313725" stop-color="#2e2e2e"/>
      <stop offset="1.0" stop-color="#181818"/>
    </linearGradient>
    <radialGradient cx="0" cy="0" gradientTransform="matrix(0.004, 0.0, 0.0, 0.0098, 0.05, 68.85)" gradientUnits="userSpaceOnUse" id="gradient1" r="819.2" spreadMethod="pad">
      <stop offset="0.15294117647058825" stop-color="#c7c2a3"/>
      <stop offset="0.3333333333333333" stop-color="#a9a36b"/>
      <stop offset="0.6666666666666666" stop-color="#514d2f"/>
      <stop offset="0.788235294117647" stop-color="#282717"/>
      <stop offset="0.9137254901960784" stop-color="#423c28"/>
    </radialGradient>
    <radialGradient cx="0" cy="0" gradientTransform="matrix(0.0, -0.0019, 0.0052, 0.0, 0.0, 68.0)" gradientUnits="userSpaceOnUse" id="gradient2" r="819.2" spreadMethod="pad">
      <stop offset="0.09803921568627451" stop-color="#d7d2bd"/>
      <stop offset="0.3803921568627451" stop-color="#a9a36b"/>
      <stop offset="0.7450980392156863" stop-color="#5a5a3a"/>
      <stop offset="0.9215686274509803" stop-color="#58513d"/>
    </radialGradient>
    <linearGradient gradientTransform="matrix(0.0061, 0.0, 0.0, 0.0049, 0.0, 60.0)" gradientUnits="userSpaceOnUse" id="gradient3" spreadMethod="pad" x1="-819.2" x2="819.2">
      <stop offset="0.08235294117647059" stop-color="#58606d"/>
      <stop offset="0.21176470588235294" stop-color="#3c3962"/>
      <stop offset="0.4235294117647059" stop-color="#515cbb"/>
      <stop offset="0.5686274509803921" stop-color="#515cbb"/>
      <stop offset="0.788235294117647" stop-color="#3c3962"/>
      <stop offset="0.9176470588235294" stop-color="#58606d"/>
    </linearGradient>
    <linearGradient gradientTransform="matrix(0.0037, 0.0, 0.0, 0.0012, 0.0, 55.0)" gradientUnits="userSpaceOnUse" id="gradient4" spreadMethod="pad" x1="-819.2" x2="819.2">
      <stop offset="0.047058823529411764" stop-color="#50454b"/>
      <stop offset="0.27058823529411763" stop-color="#877882"/>
      <stop offset="0.4470588235294118" stop-color="#afa5ad"/>
      <stop offset="0.5529411764705883" stop-color="#afa5ad"/>
      <stop offset="0.7529411764705882" stop-color="#877882"/>
      <stop offset="0.9764705882352941" stop-color="#50454b"/>
    </linearGradient>
    <linearGradient gradientTransform="matrix(0.0024, 0.0, 0.0, 0.0378, 0.0, 23.0)" gradientUnits="userSpaceOnUse" id="gradient5" spreadMethod="pad" x1="-819.2" x2="819.2">
      <stop offset="0.08235294117647059" stop-color="#322723"/>
      <stop offset="0.1411764705882353" stop-color="#322723"/>
      <stop offset="0.396078431372549" stop-color="#7e6038"/>
      <stop offset="0.6039215686274509" stop-color="#7e6038"/>
      <stop offset="0.8627450980392157" stop-color="#322723"/>
      <stop offset="0.9372549019607843" stop-color="#322723"/>
    </linearGradient>
    <linearGradient gradientTransform="matrix(0.0024, 0.0, 0.0, 0.0012, 0.0, -9.0)" gradientUnits="userSpaceOnUse" id="gradient6" spreadMethod="pad" x1="-819.2" x2="819.2">
      <stop offset="0.047058823529411764" stop-color="#50454b"/>
      <stop offset="0.27058823529411763" stop-color="#877882"/>
      <stop offset="0.4470588235294118" stop-color="#afa5ad"/>
      <stop offset="0.5529411764705883" stop-color="#afa5ad"/>
      <stop offset="0.7529411764705882" stop-color="#877882"/>
      <stop offset="0.9764705882352941" stop-color="#50454b"/>
    </linearGradient>
    <linearGradient gradientTransform="matrix(0.0037, 0.0, 0.0, 0.0018, 0.0, -11.5)" gradientUnits="userSpaceOnUse" id="gradient7" spreadMethod="pad" x1="-819.2" x2="819.2">
      <stop offset="0.047058823529411764" stop-color="#50454b"/>
      <stop offset="0.27058823529411763" stop-color="#877882"/>
      <stop offset="0.4470588235294118" stop-color="#afa5ad"/>
      <stop offset="0.5529411764705883" stop-color="#afa5ad"/>
      <stop offset="0.7529411764705882" stop-color="#877882"/>
      <stop offset="0.9764705882352941" stop-color="#50454b"/>
    </linearGradient>
    <linearGradient gradientTransform="matrix(0.0037, 0.0, 0.0, 0.0018, 0.0, -35.5)" gradientUnits="userSpaceOnUse" id="gradient8" spreadMethod="pad" x1="-819.2" x2="819.2">
      <stop offset="0.047058823529411764" stop-color="#50454b"/>
      <stop offset="0.27058823529411763" stop-color="#877882"/>
      <stop offset="0.4470588235294118" stop-color="#afa5ad"/>
      <stop offset="0.5529411764705883" stop-color="#afa5ad"/>
      <stop offset="0.7529411764705882" stop-color="#877882"/>
      <stop offset="0.9764705882352941" stop-color="#50454b"/>
    </linearGradient>
    <linearGradient gradientTransform="matrix(0.0037, 0.0104, -0.0098, 0.0035, 4.5, -27.5)" gradientUnits="userSpaceOnUse" id="gradient9" spreadMethod="pad" x1="-819.2" x2="819.2">
      <stop offset="0.25882352941176473" stop-color="#513d1a"/>
      <stop offset="0.30980392156862746" stop-color="#926f2e"/>
      <stop offset="0.6901960784313725" stop-color="#b58735"/>
      <stop offset="1.0" stop-color="#896421"/>
    </linearGradient>
    <radialGradient cx="0" cy="0" gradientTransform="matrix(0.0036, -3.0E-4, 0.0011, 0.0138, 6.9, -19.05)" gradientUnits="userSpaceOnUse" id="gradient10" r="819.2" spreadMethod="pad">
      <stop offset="0.047058823529411764" stop-color="#c59350"/>
      <stop offset="0.2980392156862745" stop-color="#b58735"/>
      <stop offset="0.4117647058823529" stop-color="#a57b30"/>
      <stop offset="0.5882352941176471" stop-color="#836227"/>
      <stop offset="0.8901960784313725" stop-color="#433112"/>
    </radialGradient>
    <radialGradient cx="0" cy="0" gradientTransform="matrix(0.0, -0.0017, 0.0045, 0.0, 0.0, -35.5)" gradientUnits="userSpaceOnUse" id="gradient11" r="819.2" spreadMethod="pad">
      <stop offset="0.054901960784313725" stop-color="#c69c4f"/>
      <stop offset="0.39215686274509803" stop-color="#bb9935"/>
      <stop offset="0.5254901960784314" stop-color="#a58730"/>
      <stop offset="0.7333333333333333" stop-color="#896627"/>
    </radialGradient>
    <linearGradient gradientTransform="matrix(0.0049, 0.0, 0.0, 0.0122, 0.0, -23.0)" gradientUnits="userSpaceOnUse" id="gradient12" spreadMethod="pad" x1="-819.2" x2="819.2">
      <stop offset="0.08235294117647059" stop-color="#58606d"/>
      <stop offset="0.21176470588235294" stop-color="#3c3962"/>
      <stop offset="0.4235294117647059" stop-color="#515cbb"/>
      <stop offset="0.5686274509803921" stop-color="#515cbb"/>
      <stop offset="0.788235294117647" stop-color="#3c3962"/>
      <stop offset="0.9176470588235294" stop-color="#58606d"/>
    </linearGradient>
    <radialGradient cx="0" cy="0" gradientTransform="matrix(0.0081, 0.0, 0.0, 0.0033, 0.0, -33.5)" gradientUnits="userSpaceOnUse" id="gradient13" r="819.2" spreadMethod="pad">
      <stop offset="0.1568627450980392" stop-color="#515cbb"/>
      <stop offset="0.4745098039215686" stop-color="#3c3962"/>
      <stop offset="0.792156862745098" stop-color="#3d4b58"/>
    </radialGradient>
    <linearGradient gradientTransform="matrix(0.0061, 0.0, 0.0, 0.0012, 0.0, -38.0)" gradientUnits="userSpaceOnUse" id="gradient14" spreadMethod="pad" x1="-819.2" x2="819.2">
      <stop offset="0.047058823529411764" stop-color="#50454b"/>
      <stop offset="0.27058823529411763" stop-color="#877882"/>
      <stop offset="0.4470588235294118" stop-color="#afa5ad"/>
      <stop offset="0.5529411764705883" stop-color="#afa5ad"/>
      <stop offset="0.7529411764705882" stop-color="#877882"/>
      <stop offset="0.9764705882352941" stop-color="#50454b"/>
    </linearGradient>
    <linearGradient gradientTransform="matrix(0.0037, 0.0, 0.0, 0.0024, -3.0, -41.0)" gradientUnits="userSpaceOnUse" id="gradient15" spreadMethod="pad" x1="-819.2" x2="819.2">
      <stop offset="0.00784313725490196" stop-color="#9f8a97"/>
      <stop offset="1.0" stop-color="#6b5a65"/>
    </linearGradient>
    <linearGradient gradientTransform="matrix(0.0037, 0.0011, -7.0E-4, 0.0023, 3.0, -41.0)" gradientUnits="userSpaceOnUse" id="gradient16" spreadMethod="pad" x1="-819.2" x2="819.2">
      <stop offset="0.0" stop-color="#cfc5cc"/>
      <stop offset="0.6588235294117647" stop-color="#887783"/>
      <stop offset="1.0" stop-color="#4f464b"/>
    </linearGradient>
    <linearGradient gradientTransform="matrix(0.0078, 0.0118, -0.0132, 0.0088, -2.0, -56.0)" gradientUnits="userSpaceOnUse" id="gradient17" spreadMethod="pad" x1="-819.2" x2="819.2">
      <stop offset="0.0" stop-color="#313131"/>
      <stop offset="0.6901960784313725" stop-color="#313131"/>
      <stop offset="1.0" stop-color="#3c3c3c"/>
    </linearGradient>
    <linearGradient gradientTransform="matrix(0.0133, 0.0188, -0.0158, 0.0112, -13.2, -48.65)" gradientUnits="userSpaceOnUse" id="gradient18" spreadMethod="pad" x1="-819.2" x2="819.2">
      <stop offset="0.0" stop-color="#2b2b2b"/>
      <stop offset="0.23921568627450981" stop-color="#919191"/>
      <stop offset="0.3254901960784314" stop-color="#919191"/>
      <stop offset="0.42745098039215684" stop-color="#636363"/>
      <stop offset="0.6784313725490196" stop-color="#606060"/>
      <stop offset="1.0" stop-color="#7b7b7b"/>
    </linearGradient>
  </defs>
</svg>
