<?xml version="1.0" encoding="UTF-8" standalone="no"?>
<svg xmlns:xlink="http://www.w3.org/1999/xlink" height="98.15px" width="91.1px" xmlns="http://www.w3.org/2000/svg">
  <g transform="matrix(1.0, 0.0, 0.0, 1.0, 44.55, 50.1)">
    <path d="M6.0 -49.8 Q6.85 -49.35 7.2 -48.4 L11.85 -35.2 12.7 -35.9 12.95 -39.8 12.95 -39.6 13.55 -45.25 Q13.6 -46.0 14.05 -46.55 14.5 -47.15 15.2 -47.35 L16.6 -47.4 19.25 -46.45 19.2 -46.45 Q21.35 -45.45 22.2 -44.3 L22.7 -43.3 22.7 -42.25 22.35 -40.4 23.15 -40.6 32.5 -41.55 42.65 -42.45 43.65 -42.4 44.55 -41.95 Q46.4 -40.5 46.5 -38.1 47.0 -27.2 42.75 -12.45 38.9 1.1 35.2 4.5 39.05 13.25 36.8 20.3 33.7 31.0 18.25 32.5 L5.9 33.1 8.4 34.85 Q15.25 33.85 18.15 36.25 L19.4 37.0 Q21.5 38.2 21.4 39.75 21.75 41.1 20.25 42.75 L20.2 42.85 19.5 43.45 19.25 43.85 Q17.05 46.95 10.05 47.9 L10.0 47.9 Q2.75 48.8 1.1 44.7 L-2.25 44.15 Q-5.05 43.5 -6.65 42.4 -7.1 43.25 -8.25 44.1 L-8.15 44.05 -9.0 44.65 -9.25 44.95 Q-11.85 47.75 -18.85 47.7 L-18.9 47.7 Q-27.9 47.55 -27.5 41.1 -27.9 34.6 -18.85 34.55 -12.1 34.5 -9.45 37.1 L-9.3 35.95 Q-9.0 34.0 -8.0 32.85 L-20.0 32.5 -20.05 32.5 Q-36.2 32.55 -41.9 21.7 -47.3 12.05 -41.7 -1.35 -36.15 -14.6 -22.7 -23.2 -11.0 -30.7 3.45 -32.15 L-2.7 -43.55 Q-3.15 -44.35 -2.95 -45.25 -2.75 -46.15 -2.05 -46.7 1.05 -49.15 4.2 -50.0 L6.0 -49.8" fill="#000000" fill-rule="evenodd" stroke="none"/>
    <path d="M11.0 -30.0 L8.0 -29.0 -0.5 -44.75 Q2.15 -46.85 4.85 -47.6 L11.0 -30.0" fill="url(#gradient0)" fill-rule="evenodd" stroke="none"/>
    <path d="M18.15 -44.2 Q19.65 -43.5 20.25 -42.75 L17.6 -29.75 15.0 -30.0 Q15.05 -35.1 15.45 -39.6 L16.0 -45.0 18.15 -44.2" fill="url(#gradient1)" fill-rule="evenodd" stroke="none"/>
    <path d="M-21.35 -21.1 Q-6.85 -30.4 12.0 -30.0 L30.0 0.0 Q37.0 11.2 34.4 19.55 31.55 28.7 18.0 30.0 9.95 30.8 -1.3 30.5 L-20.0 30.0 Q-34.5 30.05 -39.7 20.5 -44.45 11.75 -39.4 -0.4 -34.1 -12.95 -21.35 -21.1" fill="url(#gradient2)" fill-rule="evenodd" stroke="none"/>
    <path d="M11.5 -6.65 Q21.9 -3.2 31.5 2.6 L32.6 4.8 33.4 6.75 Q25.25 5.05 20.4 3.55 11.8 0.9 3.7 -4.8 L8.55 -5.35 Q10.05 -5.75 11.5 -6.65" fill="url(#gradient3)" fill-rule="evenodd" stroke="none"/>
    <path d="M11.5 -6.5 Q8.6 -5.35 4.45 -5.15 L-2.5 -5.5" fill="none" stroke="url(#gradient4)" stroke-linecap="round" stroke-linejoin="round" stroke-width="1.0"/>
    <path d="M24.15 -8.85 Q32.55 -0.9 34.0 3.0 34.35 3.9 33.5 4.5 32.45 5.25 30.0 5.0 23.2 4.3 15.9 1.1 12.3 -0.5 10.0 -2.0 4.9 -1.65 2.0 -2.0 -2.45 -2.5 -7.15 -6.25 -12.2 -10.25 -12.0 -14.0 -10.95 -15.45 2.6 -15.9 L16.0 -16.0 24.15 -8.85" fill="url(#gradient5)" fill-rule="evenodd" stroke="none"/>
    <path d="M17.0 -5.0 Q9.0 -4.6 3.85 -8.4 -1.65 -12.5 0.0 -19.0 1.75 -25.8 5.25 -28.55 8.8 -31.35 15.6 -31.15" fill="none" stroke="#000000" stroke-linecap="round" stroke-linejoin="round" stroke-opacity="0.2" stroke-width="2.0"/>
    <path d="M14.0 -32.0 L17.0 -5.0 Q9.0 -4.6 3.85 -8.4 -1.65 -12.5 0.0 -19.0 1.65 -25.45 5.75 -29.0 9.5 -32.25 14.0 -32.0" fill="url(#gradient6)" fill-rule="evenodd" stroke="none"/>
    <path d="M14.45 -6.9 Q6.25 -9.45 3.95 -14.85 1.35 -20.95 7.1 -29.45" fill="none" stroke="url(#gradient7)" stroke-linecap="round" stroke-linejoin="round" stroke-width="1.0"/>
    <path d="M24.0 -2.0 Q24.55 -10.65 27.2 -19.75 32.5 -37.9 43.0 -40.0 43.95 -39.25 44.0 -38.0 44.45 -27.45 40.35 -13.15 36.45 0.55 33.0 3.0 L24.0 -2.0" fill="url(#gradient8)" fill-rule="evenodd" stroke="none"/>
    <path d="M34.0 -15.0 L33.0 -12.0 30.0 -13.0 30.0 -15.0 Q32.35 -15.3 34.0 -15.0" fill="#6e8666" fill-rule="evenodd" stroke="none"/>
    <path d="M32.65 -39.05 L43.0 -40.0 Q36.95 -38.1 32.8 -26.8 29.05 -16.45 30.7 -13.2 31.25 -12.2 32.25 -12.9 33.15 -13.45 34.0 -15.0 34.65 -15.05 33.25 -9.15 31.55 -2.05 32.0 1.0 32.25 2.5 33.0 3.0 25.6 2.2 19.0 -2.25 12.45 -6.6 12.0 -11.0 8.65 -13.7 8.0 -16.0 7.2 -18.9 7.4 -22.3 7.65 -25.85 9.0 -28.0 14.25 -36.4 23.6 -38.15 L32.65 -39.05" fill="url(#gradient9)" fill-rule="evenodd" stroke="none"/>
    <path d="M32.0 -13.0 Q27.3 -10.45 21.05 -11.0 15.5 -11.5 12.0 -14.0" fill="none" stroke="url(#gradient10)" stroke-linecap="round" stroke-linejoin="round" stroke-width="0.5"/>
  </g>
  <defs>
    <linearGradient gradientTransform="matrix(-0.0044, -0.0095, 0.0105, -0.0048, 4.5, -38.5)" gradientUnits="userSpaceOnUse" id="gradient0" spreadMethod="pad" x1="-819.2" x2="819.2">
      <stop offset="0.0" stop-color="#311515"/>
      <stop offset="0.10196078431372549" stop-color="#561b1b"/>
      <stop offset="0.47058823529411764" stop-color="#8f2121"/>
      <stop offset="0.8823529411764706" stop-color="#d52b2b"/>
    </linearGradient>
    <linearGradient gradientTransform="matrix(0.0012, -0.0086, 0.0091, 0.0013, 17.85, -37.5)" gradientUnits="userSpaceOnUse" id="gradient1" spreadMethod="pad" x1="-819.2" x2="819.2">
      <stop offset="0.0" stop-color="#5b0f0f"/>
      <stop offset="0.2627450980392157" stop-color="#841111"/>
      <stop offset="0.6470588235294118" stop-color="#b71e1e"/>
    </linearGradient>
    <radialGradient cx="0" cy="0" fx="313.6" fy="0" gradientTransform="matrix(9.0E-4, -0.0488, 0.0645, 0.0012, -2.75, -4.75)" gradientUnits="userSpaceOnUse" id="gradient2" r="819.2" spreadMethod="pad">
      <stop offset="0.0" stop-color="#86ac7d"/>
      <stop offset="0.1803921568627451" stop-color="#7c9b79"/>
      <stop offset="0.49019607843137253" stop-color="#557759"/>
      <stop offset="0.6352941176470588" stop-color="#455942"/>
      <stop offset="0.8509803921568627" stop-color="#323f32"/>
      <stop offset="1.0" stop-color="#40513c"/>
    </radialGradient>
    <linearGradient gradientTransform="matrix(-0.0054, 0.0115, -0.0074, -0.0035, 18.5, -5.15)" gradientUnits="userSpaceOnUse" id="gradient3" spreadMethod="pad" x1="-819.2" x2="819.2">
      <stop offset="0.0" stop-color="#030303"/>
      <stop offset="0.4980392156862745" stop-color="#283625"/>
      <stop offset="0.7450980392156863" stop-color="#283223" stop-opacity="0.0"/>
    </linearGradient>
    <linearGradient gradientTransform="matrix(0.0092, 0.0, 0.0, 0.0015, 4.5, -5.8)" gradientUnits="userSpaceOnUse" id="gradient4" spreadMethod="pad" x1="-819.2" x2="819.2">
      <stop offset="0.0" stop-color="#6b8565"/>
      <stop offset="0.2784313725490196" stop-color="#688565"/>
      <stop offset="0.8509803921568627" stop-color="#313c2f"/>
    </linearGradient>
    <linearGradient gradientTransform="matrix(0.0147, 0.0239, -0.011, 0.0067, 11.0, -5.55)" gradientUnits="userSpaceOnUse" id="gradient5" spreadMethod="pad" x1="-819.2" x2="819.2">
      <stop offset="0.1411764705882353" stop-color="#000000" stop-opacity="0.0"/>
      <stop offset="0.2823529411764706" stop-color="#000000" stop-opacity="0.19215687"/>
      <stop offset="1.0" stop-color="#000000" stop-opacity="0.3137255"/>
    </linearGradient>
    <radialGradient cx="0" cy="0" gradientTransform="matrix(0.0093, 0.0172, -0.0172, 0.0093, 5.1, -20.65)" gradientUnits="userSpaceOnUse" id="gradient6" r="819.2" spreadMethod="pad">
      <stop offset="0.0" stop-color="#f14e4e"/>
      <stop offset="0.4392156862745098" stop-color="#ae2d2d"/>
      <stop offset="0.8392156862745098" stop-color="#552e1c"/>
      <stop offset="1.0" stop-color="#401515"/>
    </radialGradient>
    <linearGradient gradientTransform="matrix(0.0074, 0.0, 0.0, 0.0135, 8.85, -17.45)" gradientUnits="userSpaceOnUse" id="gradient7" spreadMethod="pad" x1="-819.2" x2="819.2">
      <stop offset="0.0" stop-color="#ae2626"/>
      <stop offset="0.49411764705882355" stop-color="#532424"/>
      <stop offset="1.0" stop-color="#150606"/>
    </linearGradient>
    <radialGradient cx="0" cy="0" gradientTransform="matrix(0.0414, -0.0391, 0.0329, 0.0348, 22.0, -4.0)" gradientUnits="userSpaceOnUse" id="gradient8" r="819.2" spreadMethod="pad">
      <stop offset="0.22745098039215686" stop-color="#1b251b"/>
      <stop offset="0.403921568627451" stop-color="#2e3e2d"/>
      <stop offset="0.6705882352941176" stop-color="#3e5a3a"/>
      <stop offset="1.0" stop-color="#668862"/>
    </radialGradient>
    <radialGradient cx="0" cy="0" fx="83.2" fy="0" gradientTransform="matrix(0.0332, -0.0045, 0.0035, 0.0259, 33.25, -33.25)" gradientUnits="userSpaceOnUse" id="gradient9" r="819.2" spreadMethod="pad">
      <stop offset="0.0784313725490196" stop-color="#879f82"/>
      <stop offset="0.403921568627451" stop-color="#6d8565"/>
      <stop offset="1.0" stop-color="#394639"/>
    </radialGradient>
    <linearGradient gradientTransform="matrix(0.0127, 0.0, 0.0, 0.0021, 22.1, -12.55)" gradientUnits="userSpaceOnUse" id="gradient10" spreadMethod="pad" x1="-819.2" x2="819.2">
      <stop offset="0.06666666666666667" stop-color="#3d4136"/>
      <stop offset="0.6901960784313725" stop-color="#505b46"/>
      <stop offset="1.0" stop-color="#6e8666"/>
    </linearGradient>
  </defs>
</svg>
