<?xml version="1.0" encoding="UTF-8" standalone="no"?>
<svg xmlns:xlink="http://www.w3.org/1999/xlink" height="16.0px" width="8.15px" xmlns="http://www.w3.org/2000/svg">
  <g transform="matrix(1.0, 0.0, 0.0, 1.0, 4.05, 8.0)">
    <path d="M0.0 -8.0 L0.95 -7.3 2.05 -6.0 Q4.15 -3.85 4.1 1.85 4.0 8.0 0.0 8.0 -4.0 8.0 -4.05 1.85 -4.1 -3.85 -2.0 -6.0 L-0.95 -7.3 0.0 -8.0" fill="url(#gradient0)" fill-rule="evenodd" stroke="none"/>
    <path d="M0.55 -7.0 L1.75 -5.6 Q3.65 -3.5 3.6 1.85 3.5 7.45 0.0 7.5 -3.5 7.4 -3.55 1.85 -3.6 -3.6 -1.65 -5.65 L-0.55 -7.0 Q-0.25 -7.45 0.0 -7.5 0.25 -7.45 0.55 -7.0" fill="url(#gradient1)" fill-rule="evenodd" stroke="none"/>
    <path d="M0.0 -8.0 L0.95 -7.3 2.05 -6.0 Q4.15 -3.85 4.1 1.85 4.0 8.0 0.0 8.0 -4.0 8.0 -4.05 1.85 -4.1 -3.85 -2.0 -6.0 L-0.95 -7.3 0.0 -8.0" fill="url(#gradient2)" fill-rule="evenodd" stroke="none"/>
  </g>
  <defs>
    <radialGradient cx="0" cy="0" fx="-822.4000000000001" fy="0" gradientTransform="matrix(0.0, -0.0115, 0.0075, 0.0, 0.05, 0.0)" gradientUnits="userSpaceOnUse" id="gradient0" r="819.2" spreadMethod="pad">
      <stop offset="0.12156862745098039" stop-color="#2e2727"/>
      <stop offset="0.5215686274509804" stop-color="#1e1c1a"/>
      <stop offset="0.6862745098039216" stop-color="#413f3f"/>
      <stop offset="0.8470588235294118" stop-color="#464646"/>
      <stop offset="1.0" stop-color="#313131"/>
    </radialGradient>
    <radialGradient cx="0" cy="0" fx="-822.4000000000001" fy="0" gradientTransform="matrix(0.0, -0.0115, 0.0075, 0.0, 0.05, 0.0)" gradientUnits="userSpaceOnUse" id="gradient1" r="819.2" spreadMethod="pad">
      <stop offset="0.17647058823529413" stop-color="#514544"/>
      <stop offset="0.5215686274509804" stop-color="#252121"/>
      <stop offset="0.9137254901960784" stop-color="#404040"/>
      <stop offset="1.0" stop-color="#464646"/>
    </radialGradient>
    <radialGradient cx="0" cy="0" fx="-825.6" fy="0" gradientTransform="matrix(0.0072, 9.0E-4, -0.0025, 0.0202, 1.0, -2.0)" gradientUnits="userSpaceOnUse" id="gradient2" r="819.2" spreadMethod="pad">
      <stop offset="0.00784313725490196" stop-color="#ffffff"/>
      <stop offset="0.3686274509803922" stop-color="#313131" stop-opacity="0.0"/>
    </radialGradient>
  </defs>
</svg>
