<?xml version="1.0" encoding="UTF-8" standalone="no"?>
<svg xmlns:xlink="http://www.w3.org/1999/xlink" height="108.0px" width="81.0px" xmlns="http://www.w3.org/2000/svg">
  <g transform="matrix(1.0, 0.0, 0.0, 1.0, 40.5, 53.5)">
    <path d="M34.8 -49.75 Q35.5 -49.05 35.5 -48.05 35.55 -47.05 34.85 -46.3 27.85 -38.65 21.6 -33.95 21.95 -32.15 21.2 -30.4 L21.15 -30.35 Q20.1 -28.2 18.0 -27.35 L17.9 -27.3 17.85 -27.3 17.25 -27.1 14.1 -26.9 Q13.25 -25.55 12.0 -24.8 21.25 -22.05 28.65 -14.65 40.5 -2.8 40.5 14.0 40.5 30.75 28.65 42.6 L28.6 42.65 Q16.75 54.5 0.0 54.5 -16.8 54.5 -28.65 42.65 -40.5 30.8 -40.5 14.0 -40.5 -2.8 -28.65 -14.65 -21.25 -22.05 -11.95 -24.8 -13.2 -25.55 -14.05 -26.9 L-17.2 -27.1 -17.15 -27.1 -17.75 -27.3 -17.8 -27.3 -17.9 -27.35 Q-20.05 -28.2 -21.1 -30.35 L-21.1 -30.4 Q-21.85 -32.05 -21.55 -33.75 -27.95 -38.5 -34.85 -46.35 -35.5 -47.1 -35.5 -48.05 -35.45 -49.05 -34.75 -49.75 L-31.75 -52.75 Q-31.25 -53.25 -30.6 -53.4 L-29.25 -53.35 -28.1 -52.65 Q-22.3 -46.1 -17.0 -41.95 L-16.9 -42.0 -16.85 -42.0 -16.75 -42.05 -12.45 -42.15 -11.85 -41.95 -11.8 -41.95 -11.7 -41.9 Q-9.85 -41.2 -8.85 -39.6 L-6.35 -39.45 -6.25 -39.4 -6.2 -39.4 -5.6 -39.2 Q-3.4 -38.6 -2.25 -36.55 L-1.95 -36.0 Q0.0 -36.3 2.05 -36.0 L2.35 -36.55 Q3.45 -38.6 5.7 -39.2 L6.3 -39.4 6.4 -39.45 8.95 -39.6 Q9.9 -41.2 11.8 -41.9 L11.9 -41.95 11.95 -41.95 12.55 -42.15 12.5 -42.15 16.85 -42.05 16.8 -42.05 16.85 -42.05 Q22.2 -46.2 28.15 -52.7 L28.15 -52.65 29.3 -53.4 Q29.95 -53.6 30.65 -53.4 31.3 -53.25 31.8 -52.75 L34.8 -49.75" fill="#000000" fill-rule="evenodd" stroke="none"/>
    <path d="M33.0 -48.0 Q23.8 -37.9 15.85 -33.05 7.55 -27.9 -0.2 -28.0 -7.95 -27.9 -16.15 -33.05 -24.05 -37.9 -33.0 -48.0 L-30.0 -51.0 Q-21.8 -41.8 -14.65 -37.2 -7.1 -32.35 -0.2 -32.25 6.7 -32.35 14.35 -37.2 21.55 -41.8 30.0 -51.0 L33.0 -48.0" fill="url(#gradient0)" fill-rule="evenodd" stroke="none"/>
    <path d="M5.0 -33.0 L5.0 -24.0 4.0 -24.0 4.0 -33.0 5.0 -33.0 M-4.0 -33.0 L-4.0 -24.0 -5.0 -24.0 -5.0 -33.0 -4.0 -33.0" fill="#000000" fill-opacity="0.2509804" fill-rule="evenodd" stroke="none"/>
  </g>
  <defs>
    <radialGradient cx="0" cy="0" gradientTransform="matrix(0.0439, 0.0, 0.0, 0.0965, 0.0, -14.0)" gradientUnits="userSpaceOnUse" id="gradient0" r="819.2" spreadMethod="pad">
      <stop offset="0.2" stop-color="#652121"/>
      <stop offset="0.32941176470588235" stop-color="#250d0c"/>
      <stop offset="0.592156862745098" stop-color="#301e16"/>
      <stop offset="0.6509803921568628" stop-color="#704132"/>
      <stop offset="1.0" stop-color="#793c31"/>
    </radialGradient>
  </defs>
</svg>
