<?xml version="1.0" encoding="UTF-8" standalone="no"?>
<svg xmlns:xlink="http://www.w3.org/1999/xlink" height="85.65px" width="76.0px" xmlns="http://www.w3.org/2000/svg">
  <g transform="matrix(1.0, 0.0, 0.0, 1.0, 38.0, 33.65)">
    <path d="M4.0 -23.0 L-4.0 -23.0 -4.0 -33.0 Q0.0 -34.3 4.0 -33.0 L4.0 -23.0" fill="url(#gradient0)" fill-rule="evenodd" stroke="none"/>
    <path d="M26.85 -12.9 Q38.0 -1.75 38.0 14.0 38.0 29.75 26.85 40.85 15.75 52.0 0.0 52.0 -15.75 52.0 -26.9 40.85 -38.0 29.75 -38.0 14.0 -38.0 -1.75 -26.9 -12.9 -15.75 -24.0 0.0 -24.0 15.75 -24.0 26.85 -12.9" fill="url(#gradient1)" fill-rule="evenodd" stroke="none"/>
    <path d="M24.75 -10.75 Q35.0 -0.5 35.0 14.0 35.0 28.5 24.75 38.75 14.5 49.0 0.0 49.0 -14.5 49.0 -24.75 38.75 -35.0 28.5 -35.0 14.0 -35.0 -0.5 -24.75 -10.75 -14.5 -21.0 0.0 -21.0 14.5 -21.0 24.75 -10.75" fill="url(#gradient2)" fill-rule="evenodd" stroke="none"/>
    <path d="M23.7 -9.7 Q33.5 0.1 33.5 14.0 33.5 27.9 23.7 37.7 13.9 47.5 0.0 47.5 -13.9 47.5 -23.7 37.7 -33.5 27.9 -33.5 14.0 -33.5 0.1 -23.7 -9.7 -13.9 -19.5 0.0 -19.5 13.9 -19.5 23.7 -9.7" fill="url(#gradient3)" fill-rule="evenodd" stroke="none"/>
    <path d="M9.05 -19.75 L10.1 -12.2 0.4 13.0 0.45 13.0 11.45 -11.7 17.5 -16.25 16.6 -8.7 0.75 13.0 0.8 13.0 17.7 -7.9 24.75 -10.75 21.9 -3.7 1.0 13.2 1.0 13.3 22.75 -2.5 30.3 -3.45 25.7 2.6 1.0 13.55 1.0 13.65 26.25 3.85 33.75 4.95 27.8 9.65 1.0 13.85 1.0 14.15 27.75 18.35 33.75 23.05 26.2 24.15 1.0 14.4 1.0 14.45 25.75 25.45 30.3 31.5 22.8 30.55 1.0 14.75 1.0 14.8 21.9 31.7 24.75 38.75 17.7 35.9 0.8 15.0 0.75 15.0 16.55 36.75 17.5 44.3 11.4 39.75 0.45 15.0 0.4 15.0 10.15 40.25 9.05 47.8 4.35 41.85 0.15 15.0 -0.15 15.0 -4.35 41.85 -9.05 47.8 -10.15 40.25 -0.35 15.0 -0.45 15.0 -11.4 39.75 -17.5 44.3 -16.55 36.75 -0.7 15.0 -0.8 15.0 -17.7 35.9 -24.75 38.75 -21.9 31.7 -1.0 14.8 -1.0 14.75 -22.8 30.55 -30.3 31.5 -25.75 25.45 -1.0 14.45 -1.0 14.4 -26.2 24.15 -33.75 23.05 -27.75 18.35 -1.0 14.15 -1.0 13.85 -27.8 9.65 -33.75 4.95 -26.25 3.85 -1.0 13.65 -1.0 13.55 -25.7 2.6 -30.3 -3.45 -22.75 -2.5 -1.0 13.3 -1.0 13.2 -21.9 -3.7 -24.75 -10.75 -17.7 -7.9 -0.8 13.0 -0.7 13.0 -16.6 -8.7 -17.5 -16.25 -11.45 -11.7 -0.45 13.0 -0.35 13.0 -10.1 -12.2 -9.05 -19.75 -4.3 -13.8 -0.15 13.0 0.15 13.0 4.3 -13.8 9.05 -19.75" fill="url(#gradient4)" fill-rule="evenodd" stroke="none"/>
    <path d="M1.1 -20.95 L3.95 -14.4 4.0 -13.85 Q2.2 0.4 3.2 6.8 L7.2 10.8 27.9 10.0 28.4 10.1 35.0 12.9 35.0 14.0 35.0 15.1 28.4 17.95 27.9 18.0 7.2 17.2 3.2 21.2 Q2.2 27.6 4.0 41.9 L3.95 42.4 1.1 49.0 0.0 49.0 -1.1 49.0 -3.9 42.4 -4.0 41.9 Q-2.2 27.6 -3.2 21.2 L-7.2 17.2 -27.85 18.0 -28.4 17.95 -34.95 15.1 -35.0 14.0 -34.95 12.9 -28.4 10.1 -27.85 10.0 -7.15 10.8 -3.2 6.85 Q-2.2 0.4 -4.0 -13.85 L-3.9 -14.4 -1.1 -20.95 0.0 -21.0 1.1 -20.95" fill="#000000" fill-opacity="0.3019608" fill-rule="evenodd" stroke="none"/>
    <path d="M0.0 -21.0 L3.0 -14.0 Q0.7 4.4 3.0 10.0 L1.0 10.0 1.0 13.0 4.0 13.0 4.0 11.0 Q9.6 13.3 28.0 11.0 L35.0 14.0 28.0 17.0 Q9.6 14.7 4.0 17.0 L4.0 15.0 1.0 15.0 1.0 18.0 3.0 18.0 Q0.7 23.6 3.0 42.0 L0.0 49.0 -3.0 42.0 Q-0.7 23.6 -3.0 18.0 L-1.0 18.0 -1.0 15.0 -4.0 15.0 -4.0 17.0 Q-9.6 14.7 -28.0 17.0 L-35.0 14.0 -28.0 11.0 Q-9.6 13.3 -4.0 11.0 L-4.0 13.0 -1.0 13.0 -1.0 10.0 -3.0 10.0 Q-0.7 4.4 -3.0 -14.0 L0.0 -21.0" fill="url(#gradient5)" fill-rule="evenodd" stroke="none"/>
    <path d="M0.0 14.0 L-9.0 14.0 0.0 5.0 0.0 14.0" fill="url(#gradient6)" fill-rule="evenodd" stroke="none"/>
    <path d="M0.0 23.0 L-9.0 14.0 0.0 14.0 0.0 23.0" fill="url(#gradient7)" fill-rule="evenodd" stroke="none"/>
    <path d="M0.0 14.0 L9.0 14.0 0.0 23.0 0.0 14.0" fill="url(#gradient8)" fill-rule="evenodd" stroke="none"/>
    <path d="M0.0 14.0 L0.0 5.0 9.0 14.0 0.0 14.0" fill="url(#gradient9)" fill-rule="evenodd" stroke="none"/>
    <path d="M0.0 14.0 L-5.0 14.0 0.0 9.0 0.0 14.0" fill="url(#gradient10)" fill-rule="evenodd" stroke="none"/>
    <path d="M0.0 19.0 L-5.0 14.0 0.0 14.0 0.0 19.0" fill="url(#gradient11)" fill-rule="evenodd" stroke="none"/>
    <path d="M0.0 14.0 L5.0 14.0 0.0 19.0 0.0 14.0" fill="url(#gradient12)" fill-rule="evenodd" stroke="none"/>
    <path d="M0.0 14.0 L0.0 9.0 5.0 14.0 0.0 14.0" fill="url(#gradient13)" fill-rule="evenodd" stroke="none"/>
  </g>
  <defs>
    <radialGradient cx="0" cy="0" gradientTransform="matrix(0.0769, 0.0, 0.0, 0.0131, 0.0, -24.0)" gradientUnits="userSpaceOnUse" id="gradient0" r="819.2" spreadMethod="pad">
      <stop offset="0.20784313725490197" stop-color="#bbbbbb"/>
      <stop offset="0.4666666666666667" stop-color="#cfcfcf"/>
      <stop offset="0.596078431372549" stop-color="#e2e2e2"/>
      <stop offset="0.6862745098039216" stop-color="#dfdfdf"/>
      <stop offset="0.8549019607843137" stop-color="#81878b"/>
      <stop offset="0.9098039215686274" stop-color="#919799"/>
    </radialGradient>
    <linearGradient gradientTransform="matrix(2.0E-4, -0.0464, 0.0464, 2.0E-4, 0.0, 14.0)" gradientUnits="userSpaceOnUse" id="gradient1" spreadMethod="pad" x1="-819.2" x2="819.2">
      <stop offset="0.0" stop-color="#a3a8a9"/>
      <stop offset="0.19607843137254902" stop-color="#707272"/>
      <stop offset="0.4470588235294118" stop-color="#676f7a"/>
      <stop offset="0.7607843137254902" stop-color="#8a9197"/>
      <stop offset="0.9490196078431372" stop-color="#d8d8d8"/>
      <stop offset="1.0" stop-color="#fbfbfb"/>
    </linearGradient>
    <linearGradient gradientTransform="matrix(0.0086, -0.043, 0.0419, 0.0084, 0.0, 14.0)" gradientUnits="userSpaceOnUse" id="gradient2" spreadMethod="pad" x1="-819.2" x2="819.2">
      <stop offset="0.0" stop-color="#434849"/>
      <stop offset="0.23137254901960785" stop-color="#383b3c"/>
      <stop offset="0.6196078431372549" stop-color="#060606"/>
    </linearGradient>
    <linearGradient gradientTransform="matrix(0.0073, -0.0427, 0.0421, 0.0072, 0.0, 14.0)" gradientUnits="userSpaceOnUse" id="gradient3" spreadMethod="pad" x1="-819.2" x2="819.2">
      <stop offset="0.0" stop-color="#434849"/>
      <stop offset="0.20784313725490197" stop-color="#36383a"/>
      <stop offset="1.0" stop-color="#202020"/>
    </linearGradient>
    <linearGradient gradientTransform="matrix(0.0101, -0.0422, 0.0401, 0.0096, 0.0, 14.0)" gradientUnits="userSpaceOnUse" id="gradient4" spreadMethod="pad" x1="-819.2" x2="819.2">
      <stop offset="0.10980392156862745" stop-color="#dfdfdf"/>
      <stop offset="0.23137254901960785" stop-color="#dfdfdf"/>
      <stop offset="0.6666666666666666" stop-color="#c2c3c2"/>
      <stop offset="0.8901960784313725" stop-color="#a2a4a3"/>
      <stop offset="0.984313725490196" stop-color="#d5d5d5"/>
    </linearGradient>
    <linearGradient gradientTransform="matrix(0.0033, -0.0444, 0.0426, 0.0032, 0.0, 14.0)" gradientUnits="userSpaceOnUse" id="gradient5" spreadMethod="pad" x1="-819.2" x2="819.2">
      <stop offset="0.0392156862745098" stop-color="#ffffff"/>
      <stop offset="0.4117647058823529" stop-color="#bfbfbf"/>
      <stop offset="0.4392156862745098" stop-color="#e2e2e2"/>
      <stop offset="0.6235294117647059" stop-color="#d3d6d5"/>
      <stop offset="0.7254901960784313" stop-color="#cccecd"/>
      <stop offset="1.0" stop-color="#d3d6d3"/>
    </linearGradient>
    <linearGradient gradientTransform="matrix(0.0055, 0.0, 0.0, 0.0055, -4.5, 9.5)" gradientUnits="userSpaceOnUse" id="gradient6" spreadMethod="pad" x1="-819.2" x2="819.2">
      <stop offset="0.0" stop-color="#9ea6a7"/>
      <stop offset="1.0" stop-color="#c0c2c5"/>
    </linearGradient>
    <linearGradient gradientTransform="matrix(0.0055, 0.0, 0.0, 0.0055, -4.5, 18.5)" gradientUnits="userSpaceOnUse" id="gradient7" spreadMethod="pad" x1="-819.2" x2="819.2">
      <stop offset="0.0" stop-color="#73797d"/>
      <stop offset="1.0" stop-color="#6a7377"/>
    </linearGradient>
    <linearGradient gradientTransform="matrix(0.0055, 0.0, 0.0, 0.0055, 4.5, 18.5)" gradientUnits="userSpaceOnUse" id="gradient8" spreadMethod="pad" x1="-819.2" x2="819.2">
      <stop offset="0.0" stop-color="#aaadb0"/>
      <stop offset="1.0" stop-color="#bcbfc2"/>
    </linearGradient>
    <linearGradient gradientTransform="matrix(0.0055, 0.0, 0.0, 0.0055, 4.5, 9.5)" gradientUnits="userSpaceOnUse" id="gradient9" spreadMethod="pad" x1="-819.2" x2="819.2">
      <stop offset="0.0" stop-color="#f0f0f0"/>
      <stop offset="1.0" stop-color="#dddfe1"/>
    </linearGradient>
    <linearGradient gradientTransform="matrix(0.0047, -0.0039, 0.0039, 0.0047, 0.0, 14.0)" gradientUnits="userSpaceOnUse" id="gradient10" spreadMethod="pad" x1="-819.2" x2="819.2">
      <stop offset="0.0" stop-color="#00ccff"/>
      <stop offset="1.0" stop-color="#43eefc"/>
    </linearGradient>
    <linearGradient gradientTransform="matrix(0.0047, -0.0039, 0.0039, 0.0047, 0.0, 14.0)" gradientUnits="userSpaceOnUse" id="gradient11" spreadMethod="pad" x1="-819.2" x2="819.2">
      <stop offset="0.0" stop-color="#026c75"/>
      <stop offset="0.6039215686274509" stop-color="#039292"/>
    </linearGradient>
    <linearGradient gradientTransform="matrix(0.0043, -0.0043, 0.0043, 0.0043, 0.75, 14.75)" gradientUnits="userSpaceOnUse" id="gradient12" spreadMethod="pad" x1="-819.2" x2="819.2">
      <stop offset="0.00784313725490196" stop-color="#02cbee"/>
      <stop offset="1.0" stop-color="#04d7d6"/>
    </linearGradient>
    <linearGradient gradientTransform="matrix(0.0047, -0.0039, 0.0039, 0.0047, 0.0, 14.0)" gradientUnits="userSpaceOnUse" id="gradient13" spreadMethod="pad" x1="-819.2" x2="819.2">
      <stop offset="0.0" stop-color="#ffffff"/>
      <stop offset="1.0" stop-color="#e2fefd"/>
    </linearGradient>
  </defs>
</svg>
