<?xml version="1.0" encoding="UTF-8" standalone="no"?>
<svg xmlns:xlink="http://www.w3.org/1999/xlink" height="147.45px" width="110.2px" xmlns="http://www.w3.org/2000/svg">
  <g transform="matrix(1.0, 0.0, 0.0, 1.0, -22.15, -41.4)">
    <path d="M110.0 123.75 L89.5 188.5 64.0 149.5 63.25 147.25 85.25 74.5 88.0 67.25 119.5 92.5 114.5 109.75 110.0 123.75" fill="#acacac" fill-rule="evenodd" stroke="none"/>
    <path d="M73.5 50.0 L59.5 115.75 22.5 102.75 36.25 41.75 73.5 50.0" fill="#cccccc" fill-rule="evenodd" stroke="none"/>
    <path d="M110.0 123.75 L114.5 109.75 126.75 121.75 132.0 168.5 113.25 147.5 110.0 123.75" fill="#7b7b7b" fill-rule="evenodd" stroke="none"/>
    <path d="M85.25 74.5 L63.25 147.25 64.0 149.5 89.5 188.5 110.0 123.75 114.5 109.75 119.5 92.5 88.0 67.25 85.25 74.5 M73.5 50.0 L59.5 115.75 22.5 102.75 36.25 41.75 73.5 50.0 M110.0 123.75 L113.25 147.5 132.0 168.5 126.75 121.75 114.5 109.75" fill="none" stroke="#00ffff" stroke-linecap="round" stroke-linejoin="round" stroke-width="0.7000000000000001"/>
  </g>
</svg>
