<?xml version="1.0" encoding="UTF-8" standalone="no"?>
<svg xmlns:xlink="http://www.w3.org/1999/xlink" height="123.0px" width="53.0px" xmlns="http://www.w3.org/2000/svg">
  <g transform="matrix(1.0, 0.0, 0.0, 1.0, 26.5, 61.5)">
    <path d="M5.5 -55.15 L5.5 -55.1 5.85 -52.35 6.45 -49.65 Q7.35 -47.65 9.7 -46.7 L9.75 -46.7 Q11.05 -46.2 15.9 -45.25 20.85 -44.3 22.95 -42.5 L23.0 -42.5 Q26.5 -39.85 26.5 -34.0 L26.5 35.0 Q26.75 37.8 23.6 39.4 L23.5 43.05 Q23.5 44.05 22.75 44.8 22.0 45.5 21.0 45.5 L20.5 45.5 20.5 56.6 20.5 56.9 20.45 57.3 20.4 57.55 Q20.1 58.95 19.05 60.05 L19.1 59.95 Q17.65 61.5 15.5 61.5 13.4 61.5 11.95 60.05 L11.5 59.55 11.05 60.05 11.1 59.95 Q9.65 61.5 7.5 61.5 5.4 61.5 3.95 60.05 2.75 58.85 2.6 57.35 L2.6 57.3 2.55 56.9 2.5 56.6 2.5 45.5 -2.5 45.5 -2.5 56.6 -2.5 56.9 -2.55 57.3 -2.6 57.55 Q-2.9 58.95 -3.95 60.05 L-3.9 59.95 Q-5.35 61.5 -7.5 61.5 -9.6 61.5 -11.05 60.05 L-11.5 59.5 -11.9 59.95 -12.05 60.1 Q-13.45 61.5 -15.5 61.5 -17.6 61.5 -19.05 60.05 -20.15 58.95 -20.4 57.45 L-20.4 57.3 -20.45 56.9 -20.5 56.6 -20.5 45.5 -21.0 45.5 Q-22.0 45.5 -22.75 44.8 -23.5 44.05 -23.5 43.05 L-23.55 39.4 Q-26.75 37.85 -26.5 35.0 L-26.5 -34.0 Q-26.5 -39.85 -22.95 -42.5 -20.85 -44.3 -15.85 -45.25 -11.05 -46.2 -9.7 -46.7 L-9.65 -46.7 Q-7.35 -47.65 -6.4 -49.65 L-5.85 -52.35 -5.5 -55.1 -5.5 -55.15 Q-5.35 -57.6 -4.35 -59.05 L-4.35 -59.1 Q-2.8 -61.5 0.0 -61.5 2.8 -61.5 4.35 -59.1 L4.4 -59.05 Q5.35 -57.6 5.5 -55.15" fill="#000000" fill-rule="evenodd" stroke="none"/>
    <path d="M0.0 -59.0 Q1.45 -59.0 2.25 -57.75 2.9 -56.7 3.0 -55.0 3.05 -53.6 3.4 -51.85 L4.0 -49.0 -4.0 -49.0 -3.4 -51.85 Q-3.05 -53.6 -3.0 -55.0 -2.9 -56.7 -2.25 -57.75 -1.45 -59.0 0.0 -59.0" fill="url(#gradient0)" fill-rule="evenodd" stroke="none"/>
    <path d="M1.0 -56.95 Q1.45 -56.15 1.5 -54.9 1.55 -53.4 1.95 -51.55 L2.55 -48.65 2.6 -48.45 Q4.05 -44.7 8.15 -43.0 L8.2 -43.0 Q9.7 -42.35 15.15 -41.3 18.85 -40.6 20.45 -39.35 L20.5 -39.35 Q22.5 -37.65 22.5 -34.0 L22.5 35.0 Q22.35 35.6 21.35 36.0 L21.1 36.15 Q19.8 36.85 19.6 38.95 L19.55 41.5 -19.5 41.5 -19.6 39.0 Q-19.75 36.85 -21.1 36.15 L-21.35 36.0 Q-22.35 35.6 -22.5 35.0 L-22.5 -34.0 Q-22.5 -37.65 -20.45 -39.35 -18.85 -40.6 -15.1 -41.3 -9.7 -42.35 -8.2 -43.0 L-8.15 -43.0 Q-4.05 -44.7 -2.6 -48.45 L-2.5 -48.65 -1.9 -51.55 Q-1.55 -53.4 -1.5 -54.9 -1.45 -56.15 -0.95 -56.95 -0.65 -57.5 0.0 -57.5 0.65 -57.5 1.0 -56.95" fill="url(#gradient1)" fill-rule="evenodd" stroke="none"/>
    <path d="M-12.25 18.95 Q-11.6 19.45 -11.5 20.3 -10.85 26.1 -12.55 30.2 -13.6 32.9 -13.05 35.6 -12.9 36.4 -13.3 37.1 -13.75 37.75 -14.55 37.95 L-16.05 37.7 Q-16.75 37.25 -16.95 36.45 -17.8 32.6 -16.25 28.75 L-16.25 28.7 Q-14.95 25.4 -15.45 20.75 -15.6 19.9 -15.05 19.25 -14.55 18.6 -13.7 18.55 -12.9 18.4 -12.25 18.95" fill="url(#gradient2)" fill-rule="evenodd" stroke="none"/>
    <path d="M-3.2 18.55 Q-2.6 19.1 -2.55 19.95 -2.25 26.75 -4.3 29.05 -5.55 30.85 -5.5 36.0 -5.5 36.8 -6.05 37.4 -6.65 38.0 -7.45 38.0 -8.3 38.0 -8.9 37.45 -9.5 36.85 -9.5 36.05 -9.55 28.95 -7.4 26.55 -6.3 24.85 -6.5 20.1 -6.55 19.25 -5.95 18.65 -5.4 18.05 -4.55 18.0 -3.8 17.95 -3.2 18.55" fill="url(#gradient3)" fill-rule="evenodd" stroke="none"/>
    <path d="M13.65 18.05 Q14.45 18.25 14.9 18.95 17.95 23.8 17.25 28.6 16.6 33.2 17.2 35.5 17.4 36.25 17.0 37.0 16.55 37.7 15.8 37.95 L14.25 37.75 Q13.5 37.3 13.3 36.55 12.45 33.7 13.25 28.05 L13.25 28.0 Q13.7 24.55 11.5 21.05 11.05 20.35 11.25 19.55 11.45 18.75 12.15 18.3 12.85 17.85 13.65 18.05" fill="url(#gradient4)" fill-rule="evenodd" stroke="none"/>
    <path d="M3.05 19.65 Q3.2 18.85 3.9 18.35 4.55 17.9 5.35 18.05 6.15 18.2 6.65 18.9 7.1 19.55 7.0 20.35 6.5 23.3 7.8 28.15 9.45 34.15 9.0 36.35 8.85 37.15 8.15 37.65 7.45 38.1 6.65 38.0 5.85 37.85 5.35 37.15 4.9 36.45 5.05 35.65 5.25 33.95 3.95 29.2 2.3 23.3 3.05 19.65" fill="url(#gradient5)" fill-rule="evenodd" stroke="none"/>
    <path d="M13.05 57.0 L13.0 56.6 13.0 35.0 18.0 35.0 18.0 56.6 17.95 57.0 13.05 57.0" fill="url(#gradient6)" fill-rule="evenodd" stroke="none"/>
    <path d="M5.05 57.0 L5.0 56.6 5.0 35.0 10.0 35.0 10.0 56.6 9.95 57.0 5.05 57.0" fill="url(#gradient7)" fill-rule="evenodd" stroke="none"/>
    <path d="M17.95 57.0 Q17.8 57.7 17.25 58.25 16.55 59.0 15.5 59.0 14.45 59.0 13.7 58.25 13.15 57.7 13.05 57.0 L17.95 57.0" fill="url(#gradient8)" fill-rule="evenodd" stroke="none"/>
    <path d="M9.95 57.0 Q9.8 57.7 9.25 58.25 8.55 59.0 7.5 59.0 6.45 59.0 5.7 58.25 5.15 57.7 5.05 57.0 L9.95 57.0" fill="url(#gradient9)" fill-rule="evenodd" stroke="none"/>
    <path d="M-9.95 57.0 L-10.0 56.6 -10.0 35.0 -5.0 35.0 -5.0 56.6 -5.05 57.0 -9.95 57.0" fill="url(#gradient10)" fill-rule="evenodd" stroke="none"/>
    <path d="M-17.95 57.0 L-18.0 56.6 -18.0 35.0 -13.0 35.0 -13.0 56.6 -13.05 57.0 -17.95 57.0" fill="url(#gradient11)" fill-rule="evenodd" stroke="none"/>
    <path d="M-5.05 57.0 L-5.75 58.25 Q-6.45 59.0 -7.5 59.0 -8.55 59.0 -9.3 58.25 L-9.95 57.0 -5.05 57.0" fill="url(#gradient12)" fill-rule="evenodd" stroke="none"/>
    <path d="M-13.05 57.0 Q-13.2 57.7 -13.75 58.25 -14.45 59.0 -15.5 59.0 -16.55 59.0 -17.3 58.25 -17.85 57.7 -17.95 57.0 L-13.05 57.0" fill="url(#gradient13)" fill-rule="evenodd" stroke="none"/>
    <path d="M4.0 -20.0 L16.0 -20.0 16.0 -18.0 4.0 -18.0 4.0 -20.0 M-4.0 -20.0 L-4.0 -18.0 -16.0 -18.0 -16.0 -20.0 -4.0 -20.0 M4.0 12.0 L4.0 10.0 16.0 10.0 16.0 12.0 4.0 12.0 M-16.0 -7.0 L-4.0 -7.0 -4.0 -5.0 -16.0 -5.0 -16.0 -7.0 M-16.0 12.0 L-16.0 10.0 -4.0 10.0 -4.0 12.0 -16.0 12.0" fill="#000000" fill-rule="evenodd" stroke="none"/>
    <path d="M15.0 -23.0 L21.0 -23.0 21.0 -20.0 19.0 -20.0 16.0 -20.0 4.0 -20.0 -4.0 -20.0 -16.0 -20.0 -19.0 -20.0 -21.0 -20.0 -21.0 -23.0 -15.0 -23.0 -12.0 -23.0 12.0 -23.0 15.0 -23.0" fill="url(#gradient14)" fill-rule="evenodd" stroke="none"/>
    <path d="M19.0 13.0 L21.0 13.0 21.0 16.0 17.0 16.0 10.0 16.0 8.0 16.0 1.0 16.0 -1.0 16.0 -8.0 16.0 -10.0 16.0 -17.0 16.0 -21.0 16.0 -21.0 13.0 -19.0 13.0 -16.0 13.0 -4.0 13.0 4.0 13.0 16.0 13.0 19.0 13.0" fill="url(#gradient15)" fill-rule="evenodd" stroke="none"/>
    <path d="M16.0 12.0 L16.0 13.0 4.0 13.0 4.0 12.0 16.0 12.0" fill="url(#gradient16)" fill-rule="evenodd" stroke="none"/>
    <path d="M-4.0 13.0 L-16.0 13.0 -16.0 12.0 -4.0 12.0 -4.0 13.0" fill="url(#gradient17)" fill-rule="evenodd" stroke="none"/>
    <path d="M-15.0 -30.0 L-15.5 -30.0 Q-16.1 -30.0 -16.55 -30.45 -17.0 -30.9 -17.0 -31.5 -17.0 -32.1 -16.55 -32.55 -16.1 -33.0 -15.5 -33.0 L15.5 -33.0 Q16.1 -33.0 16.55 -32.55 17.0 -32.1 17.0 -31.5 17.0 -30.9 16.55 -30.45 16.1 -30.0 15.5 -30.0 L15.0 -30.0 12.0 -30.0 -12.0 -30.0 -15.0 -30.0" fill="url(#gradient18)" fill-rule="evenodd" stroke="none"/>
    <path d="M12.0 -30.0 L15.0 -30.0 15.0 -23.0 12.0 -23.0 12.0 -30.0" fill="url(#gradient19)" fill-rule="evenodd" stroke="none"/>
    <path d="M-15.0 -30.0 L-12.0 -30.0 -12.0 -23.0 -15.0 -23.0 -15.0 -30.0" fill="url(#gradient20)" fill-rule="evenodd" stroke="none"/>
    <path d="M17.0 16.0 L17.0 19.0 16.0 19.0 11.0 19.0 10.0 19.0 10.0 16.0 17.0 16.0" fill="url(#gradient21)" fill-rule="evenodd" stroke="none"/>
    <path d="M8.0 16.0 L8.0 19.0 7.0 19.0 2.0 19.0 1.0 19.0 1.0 16.0 8.0 16.0" fill="url(#gradient22)" fill-rule="evenodd" stroke="none"/>
    <path d="M-10.0 16.0 L-10.0 19.0 -11.0 19.0 -16.0 19.0 -17.0 19.0 -17.0 16.0 -10.0 16.0" fill="url(#gradient23)" fill-rule="evenodd" stroke="none"/>
    <path d="M-1.0 16.0 L-1.0 19.0 -2.0 19.0 -7.0 19.0 -8.0 19.0 -8.0 16.0 -1.0 16.0" fill="url(#gradient24)" fill-rule="evenodd" stroke="none"/>
    <path d="M16.0 19.0 L16.0 21.0 11.0 21.0 11.0 19.0 16.0 19.0" fill="url(#gradient25)" fill-rule="evenodd" stroke="none"/>
    <path d="M7.0 19.0 L7.0 21.0 2.0 21.0 2.0 19.0 7.0 19.0" fill="url(#gradient26)" fill-rule="evenodd" stroke="none"/>
    <path d="M-2.0 19.0 L-2.0 21.0 -7.0 21.0 -7.0 19.0 -2.0 19.0" fill="url(#gradient27)" fill-rule="evenodd" stroke="none"/>
    <path d="M-11.0 19.0 L-11.0 21.0 -16.0 21.0 -16.0 19.0 -11.0 19.0" fill="url(#gradient28)" fill-rule="evenodd" stroke="none"/>
    <path d="M19.0 37.0 L19.0 40.0 -19.0 40.0 -19.0 37.0 19.0 37.0" fill="url(#gradient29)" fill-rule="evenodd" stroke="none"/>
    <path d="M19.0 -20.0 L19.0 13.0 16.0 13.0 16.0 12.0 16.0 10.0 4.0 10.0 4.0 12.0 4.0 13.0 -4.0 13.0 -4.0 12.0 -4.0 10.0 -16.0 10.0 -16.0 12.0 -16.0 13.0 -19.0 13.0 -19.0 -20.0 -16.0 -20.0 -16.0 -18.0 -4.0 -18.0 -4.0 -20.0 4.0 -20.0 4.0 -18.0 16.0 -18.0 16.0 -20.0 19.0 -20.0 M-16.0 -7.0 L-16.0 -5.0 -4.0 -5.0 -4.0 -7.0 -16.0 -7.0" fill="url(#gradient30)" fill-rule="evenodd" stroke="none"/>
    <path d="M19.0 -18.0 L-19.0 -18.0 -19.0 -20.0 19.0 -20.0 19.0 -18.0 M15.0 -30.0 L15.0 -28.0 12.0 -28.0 12.0 -30.0 15.0 -30.0 M10.0 43.0 L10.0 45.0 5.0 45.0 5.0 43.0 10.0 43.0 M10.0 40.0 L10.0 42.0 5.0 42.0 5.0 40.0 10.0 40.0 M18.0 43.0 L18.0 45.0 13.0 45.0 13.0 43.0 18.0 43.0 M18.0 40.0 L18.0 42.0 13.0 42.0 13.0 40.0 18.0 40.0 M-12.0 -30.0 L-12.0 -28.0 -15.0 -28.0 -15.0 -30.0 -12.0 -30.0 M-13.0 43.0 L-13.0 45.0 -18.0 45.0 -18.0 43.0 -13.0 43.0 M-13.0 42.0 L-18.0 42.0 -18.0 40.0 -13.0 40.0 -13.0 42.0 M-5.0 43.0 L-5.0 45.0 -10.0 45.0 -10.0 43.0 -5.0 43.0 M-5.0 42.0 L-10.0 42.0 -10.0 40.0 -5.0 40.0 -5.0 42.0" fill="#000000" fill-opacity="0.15294118" fill-rule="evenodd" stroke="none"/>
    <path d="M1.0 -56.95 Q1.45 -56.15 1.5 -54.9 1.55 -53.4 1.95 -51.55 L2.55 -48.65 2.6 -48.45 Q4.05 -44.7 8.15 -43.0 L8.2 -43.0 Q9.7 -42.35 15.15 -41.3 18.85 -40.6 20.45 -39.35 L20.5 -39.35 Q22.5 -37.65 22.5 -34.0 L22.5 -24.0 -22.5 -24.0 -22.5 -34.0 Q-22.5 -37.65 -20.45 -39.35 -18.85 -40.6 -15.1 -41.3 -9.7 -42.35 -8.2 -43.0 L-8.15 -43.0 Q-4.05 -44.7 -2.6 -48.45 L-2.5 -48.65 -1.9 -51.55 Q-1.55 -53.4 -1.5 -54.9 -1.45 -56.15 -0.95 -56.95 -0.65 -57.5 0.0 -57.5 0.65 -57.5 1.0 -56.95" fill="url(#gradient31)" fill-rule="evenodd" stroke="none"/>
    <path d="M21.4 -40.55 Q24.0 -38.5 24.0 -34.0 L24.0 35.0 Q24.0 36.55 21.9 37.4 21.2 37.85 21.1 39.1 L21.0 43.0 0.0 43.0 -21.0 43.0 -21.1 39.1 Q-21.2 37.85 -21.9 37.4 -24.0 36.55 -24.0 35.0 L-24.0 -34.0 Q-24.0 -38.5 -21.4 -40.55 -19.6 -42.0 -15.4 -42.8 -10.15 -43.8 -8.75 -44.4 -5.25 -45.8 -4.0 -49.0 L-2.45 -49.0 -2.5 -48.65 -2.6 -48.45 Q-4.05 -44.7 -8.15 -43.0 L-8.2 -43.0 Q-9.7 -42.35 -15.1 -41.3 -18.85 -40.6 -20.45 -39.35 -22.5 -37.65 -22.5 -34.0 L-22.5 35.0 Q-22.35 35.6 -21.35 36.0 L-21.1 36.15 Q-19.75 36.85 -19.6 39.0 L-19.5 41.5 19.55 41.5 19.6 38.95 Q19.8 36.85 21.1 36.15 L21.35 36.0 Q22.35 35.6 22.5 35.0 L22.5 -34.0 Q22.5 -37.65 20.5 -39.35 L20.45 -39.35 Q18.85 -40.6 15.15 -41.3 9.7 -42.35 8.2 -43.0 L8.15 -43.0 Q4.05 -44.7 2.6 -48.45 L2.55 -48.65 2.45 -49.0 4.0 -49.0 Q5.25 -45.8 8.75 -44.4 10.15 -43.8 15.4 -42.8 19.6 -42.0 21.4 -40.55" fill="url(#gradient32)" fill-rule="evenodd" stroke="none"/>
    <path d="M14.0 35.0 L-2.0 35.0 -2.0 -24.0 14.0 -24.0 14.0 35.0" fill="url(#gradient33)" fill-rule="evenodd" stroke="none"/>
    <path d="M1.0 -56.95 Q1.45 -56.15 1.5 -54.9 1.55 -53.4 1.95 -51.55 L2.55 -48.65 2.6 -48.45 Q4.05 -44.7 8.15 -43.0 L8.2 -43.0 Q9.7 -42.35 15.15 -41.3 18.85 -40.6 20.45 -39.35 L20.5 -39.35 Q21.6 -37.45 0.15 -37.4 -21.35 -37.35 -20.1 -38.95 -18.85 -40.6 -15.1 -41.3 -9.7 -42.35 -8.2 -43.0 L-8.15 -43.0 Q-4.05 -44.7 -2.6 -48.45 L-2.5 -48.65 -1.9 -51.55 Q-1.55 -53.4 -1.5 -54.9 -1.45 -56.15 -0.95 -56.95 -0.65 -57.5 0.0 -57.5 0.65 -57.5 1.0 -56.95" fill="url(#gradient34)" fill-rule="evenodd" stroke="none"/>
    <path d="M22.5 -24.0 L16.35 -23.6 Q8.95 -23.8 3.0 -27.0 -0.65 -28.95 -3.2 -32.05 -6.4 -36.0 -5.0 -39.0 L-0.3 -42.65 Q5.0 -45.75 8.15 -43.0 L8.2 -43.0 Q9.7 -42.35 15.15 -41.3 18.85 -40.6 20.45 -39.35 L20.5 -39.35 Q22.5 -37.65 22.5 -34.0 L22.5 -24.0" fill="url(#gradient35)" fill-rule="evenodd" stroke="none"/>
  </g>
  <defs>
    <linearGradient gradientTransform="matrix(0.0, -0.0061, 0.0061, 0.0, 0.0, -54.0)" gradientUnits="userSpaceOnUse" id="gradient0" spreadMethod="pad" x1="-819.2" x2="819.2">
      <stop offset="0.0" stop-color="#bab8b6"/>
      <stop offset="0.29411764705882354" stop-color="#a4a09b"/>
      <stop offset="0.7254901960784313" stop-color="#c5c2ba"/>
      <stop offset="1.0" stop-color="#bcbaad"/>
    </linearGradient>
    <linearGradient gradientTransform="matrix(-3.0E-4, -0.0607, 0.0604, -3.0E-4, 0.0, -8.0)" gradientUnits="userSpaceOnUse" id="gradient1" spreadMethod="pad" x1="-819.2" x2="819.2">
      <stop offset="0.0" stop-color="#8a8a8a"/>
      <stop offset="0.03529411764705882" stop-color="#555a5b"/>
      <stop offset="0.0784313725490196" stop-color="#868686"/>
      <stop offset="0.10196078431372549" stop-color="#868686"/>
      <stop offset="0.33725490196078434" stop-color="#c0c0c0"/>
      <stop offset="0.6235294117647059" stop-color="#828484"/>
      <stop offset="0.796078431372549" stop-color="#828483"/>
    </linearGradient>
    <linearGradient gradientTransform="matrix(0.0036, 0.0, 0.0, 0.0119, -14.3, 28.25)" gradientUnits="userSpaceOnUse" id="gradient2" spreadMethod="pad" x1="-819.2" x2="819.2">
      <stop offset="0.0" stop-color="#1b1107"/>
      <stop offset="0.6" stop-color="#1b1107"/>
      <stop offset="1.0" stop-color="#3c3c3c"/>
    </linearGradient>
    <linearGradient gradientTransform="matrix(0.0043, 0.0, 0.0, 0.0122, -6.0, 28.0)" gradientUnits="userSpaceOnUse" id="gradient3" spreadMethod="pad" x1="-819.2" x2="819.2">
      <stop offset="0.0" stop-color="#1b1107"/>
      <stop offset="0.6" stop-color="#1b1107"/>
      <stop offset="1.0" stop-color="#3c3c3c"/>
    </linearGradient>
    <linearGradient gradientTransform="matrix(0.0038, 0.0, 0.0, 0.0122, 14.3, 28.0)" gradientUnits="userSpaceOnUse" id="gradient4" spreadMethod="pad" x1="-819.2" x2="819.2">
      <stop offset="0.0" stop-color="#1b1107"/>
      <stop offset="0.6" stop-color="#2e2e2e"/>
      <stop offset="1.0" stop-color="#4a4a4a"/>
    </linearGradient>
    <linearGradient gradientTransform="matrix(0.0038, 0.0, 0.0, 0.0122, 5.95, 28.0)" gradientUnits="userSpaceOnUse" id="gradient5" spreadMethod="pad" x1="-819.2" x2="819.2">
      <stop offset="0.0" stop-color="#1b1107"/>
      <stop offset="0.6784313725490196" stop-color="#353535"/>
      <stop offset="1.0" stop-color="#666666"/>
    </linearGradient>
    <linearGradient gradientTransform="matrix(0.0031, 0.0, 0.0, 0.0146, 15.5, 47.0)" gradientUnits="userSpaceOnUse" id="gradient6" spreadMethod="pad" x1="-819.2" x2="819.2">
      <stop offset="0.0" stop-color="#6d6d6d"/>
      <stop offset="0.24313725490196078" stop-color="#959595"/>
      <stop offset="0.3686274509803922" stop-color="#b5b5b5"/>
      <stop offset="0.49411764705882355" stop-color="#d8d8d8"/>
      <stop offset="0.6235294117647059" stop-color="#b5b5b5"/>
      <stop offset="0.7490196078431373" stop-color="#959595"/>
      <stop offset="1.0" stop-color="#6a6a6a"/>
    </linearGradient>
    <linearGradient gradientTransform="matrix(0.0031, 0.0, 0.0, 0.0146, 7.5, 47.0)" gradientUnits="userSpaceOnUse" id="gradient7" spreadMethod="pad" x1="-819.2" x2="819.2">
      <stop offset="0.0" stop-color="#6d6d6d"/>
      <stop offset="0.24313725490196078" stop-color="#959595"/>
      <stop offset="0.3686274509803922" stop-color="#b5b5b5"/>
      <stop offset="0.49411764705882355" stop-color="#d8d8d8"/>
      <stop offset="0.6235294117647059" stop-color="#b5b5b5"/>
      <stop offset="0.7490196078431373" stop-color="#959595"/>
      <stop offset="1.0" stop-color="#6a6a6a"/>
    </linearGradient>
    <radialGradient cx="0" cy="0" gradientTransform="matrix(0.0029, 0.0, 0.0, 0.0029, 15.4, 56.8)" gradientUnits="userSpaceOnUse" id="gradient8" r="819.2" spreadMethod="pad">
      <stop offset="0.07450980392156863" stop-color="#d3d3d3"/>
      <stop offset="0.27058823529411763" stop-color="#b3b3b3"/>
      <stop offset="0.5294117647058824" stop-color="#919191"/>
      <stop offset="1.0" stop-color="#757575"/>
    </radialGradient>
    <radialGradient cx="0" cy="0" gradientTransform="matrix(0.0029, 0.0, 0.0, 0.0029, 7.4, 56.8)" gradientUnits="userSpaceOnUse" id="gradient9" r="819.2" spreadMethod="pad">
      <stop offset="0.07450980392156863" stop-color="#d3d3d3"/>
      <stop offset="0.27058823529411763" stop-color="#b3b3b3"/>
      <stop offset="0.5294117647058824" stop-color="#919191"/>
      <stop offset="1.0" stop-color="#757575"/>
    </radialGradient>
    <linearGradient gradientTransform="matrix(0.0031, 0.0, 0.0, 0.0146, -7.5, 47.0)" gradientUnits="userSpaceOnUse" id="gradient10" spreadMethod="pad" x1="-819.2" x2="819.2">
      <stop offset="0.0" stop-color="#6d6d6d"/>
      <stop offset="0.24313725490196078" stop-color="#959595"/>
      <stop offset="0.3686274509803922" stop-color="#b5b5b5"/>
      <stop offset="0.49411764705882355" stop-color="#d8d8d8"/>
      <stop offset="0.6235294117647059" stop-color="#b5b5b5"/>
      <stop offset="0.7490196078431373" stop-color="#959595"/>
      <stop offset="1.0" stop-color="#6a6a6a"/>
    </linearGradient>
    <linearGradient gradientTransform="matrix(0.0031, 0.0, 0.0, 0.0146, -15.5, 47.0)" gradientUnits="userSpaceOnUse" id="gradient11" spreadMethod="pad" x1="-819.2" x2="819.2">
      <stop offset="0.0" stop-color="#6d6d6d"/>
      <stop offset="0.24313725490196078" stop-color="#959595"/>
      <stop offset="0.3686274509803922" stop-color="#b5b5b5"/>
      <stop offset="0.49411764705882355" stop-color="#d8d8d8"/>
      <stop offset="0.6235294117647059" stop-color="#b5b5b5"/>
      <stop offset="0.7490196078431373" stop-color="#959595"/>
      <stop offset="1.0" stop-color="#6a6a6a"/>
    </linearGradient>
    <radialGradient cx="0" cy="0" gradientTransform="matrix(0.0029, 0.0, 0.0, 0.0029, -7.6, 56.8)" gradientUnits="userSpaceOnUse" id="gradient12" r="819.2" spreadMethod="pad">
      <stop offset="0.07450980392156863" stop-color="#d3d3d3"/>
      <stop offset="0.27058823529411763" stop-color="#b3b3b3"/>
      <stop offset="0.5294117647058824" stop-color="#919191"/>
      <stop offset="1.0" stop-color="#757575"/>
    </radialGradient>
    <radialGradient cx="0" cy="0" gradientTransform="matrix(0.0029, 0.0, 0.0, 0.0029, -15.6, 56.8)" gradientUnits="userSpaceOnUse" id="gradient13" r="819.2" spreadMethod="pad">
      <stop offset="0.07450980392156863" stop-color="#d3d3d3"/>
      <stop offset="0.27058823529411763" stop-color="#b3b3b3"/>
      <stop offset="0.5294117647058824" stop-color="#919191"/>
      <stop offset="1.0" stop-color="#757575"/>
    </radialGradient>
    <linearGradient gradientTransform="matrix(0.0256, 0.0, 0.0, 0.0018, 0.0, -21.5)" gradientUnits="userSpaceOnUse" id="gradient14" spreadMethod="pad" x1="-819.2" x2="819.2">
      <stop offset="0.0" stop-color="#717171"/>
      <stop offset="0.5254901960784314" stop-color="#c6c6c6"/>
      <stop offset="1.0" stop-color="#7b7b7b"/>
    </linearGradient>
    <linearGradient gradientTransform="matrix(0.0256, 0.0, 0.0, 0.0018, 0.0, 14.5)" gradientUnits="userSpaceOnUse" id="gradient15" spreadMethod="pad" x1="-819.2" x2="819.2">
      <stop offset="0.0" stop-color="#717171"/>
      <stop offset="0.5254901960784314" stop-color="#c6c6c6"/>
      <stop offset="1.0" stop-color="#7b7b7b"/>
    </linearGradient>
    <linearGradient gradientTransform="matrix(0.0073, 0.0, 0.0, 6.0E-4, 10.0, 12.5)" gradientUnits="userSpaceOnUse" id="gradient16" spreadMethod="pad" x1="-819.2" x2="819.2">
      <stop offset="0.0" stop-color="#515151"/>
      <stop offset="0.5254901960784314" stop-color="#666666"/>
      <stop offset="1.0" stop-color="#585858"/>
    </linearGradient>
    <linearGradient gradientTransform="matrix(0.0073, 0.0, 0.0, 6.0E-4, -10.0, 12.5)" gradientUnits="userSpaceOnUse" id="gradient17" spreadMethod="pad" x1="-819.2" x2="819.2">
      <stop offset="0.0" stop-color="#515151"/>
      <stop offset="0.5254901960784314" stop-color="#666666"/>
      <stop offset="1.0" stop-color="#585858"/>
    </linearGradient>
    <linearGradient gradientTransform="matrix(0.0208, 0.0, 0.0, 0.0018, 0.0, -31.5)" gradientUnits="userSpaceOnUse" id="gradient18" spreadMethod="pad" x1="-819.2" x2="819.2">
      <stop offset="0.0" stop-color="#717171"/>
      <stop offset="0.5254901960784314" stop-color="#c6c6c6"/>
      <stop offset="1.0" stop-color="#7b7b7b"/>
    </linearGradient>
    <linearGradient gradientTransform="matrix(0.0018, 0.0, 0.0, 0.0043, 13.5, -26.5)" gradientUnits="userSpaceOnUse" id="gradient19" spreadMethod="pad" x1="-819.2" x2="819.2">
      <stop offset="0.0" stop-color="#3c3c3c"/>
      <stop offset="0.38823529411764707" stop-color="#838383"/>
      <stop offset="0.6039215686274509" stop-color="#838383"/>
      <stop offset="1.0" stop-color="#3c3c3c"/>
    </linearGradient>
    <linearGradient gradientTransform="matrix(0.0018, 0.0, 0.0, 0.0043, -13.5, -26.5)" gradientUnits="userSpaceOnUse" id="gradient20" spreadMethod="pad" x1="-819.2" x2="819.2">
      <stop offset="0.0" stop-color="#3c3c3c"/>
      <stop offset="0.38823529411764707" stop-color="#838383"/>
      <stop offset="0.6039215686274509" stop-color="#838383"/>
      <stop offset="1.0" stop-color="#3c3c3c"/>
    </linearGradient>
    <linearGradient gradientTransform="matrix(0.0043, 0.0, 0.0, 0.0018, 13.5, 17.5)" gradientUnits="userSpaceOnUse" id="gradient21" spreadMethod="pad" x1="-819.2" x2="819.2">
      <stop offset="0.0" stop-color="#414a2f"/>
      <stop offset="0.36470588235294116" stop-color="#94a06b"/>
      <stop offset="0.6078431372549019" stop-color="#94a06b"/>
      <stop offset="1.0" stop-color="#414a2f"/>
    </linearGradient>
    <linearGradient gradientTransform="matrix(0.0043, 0.0, 0.0, 0.0018, 4.5, 17.5)" gradientUnits="userSpaceOnUse" id="gradient22" spreadMethod="pad" x1="-819.2" x2="819.2">
      <stop offset="0.0" stop-color="#414a2f"/>
      <stop offset="0.36470588235294116" stop-color="#94a06b"/>
      <stop offset="0.6078431372549019" stop-color="#94a06b"/>
      <stop offset="1.0" stop-color="#414a2f"/>
    </linearGradient>
    <linearGradient gradientTransform="matrix(0.0043, 0.0, 0.0, 0.0018, -13.5, 17.5)" gradientUnits="userSpaceOnUse" id="gradient23" spreadMethod="pad" x1="-819.2" x2="819.2">
      <stop offset="0.0" stop-color="#414a2f"/>
      <stop offset="0.36470588235294116" stop-color="#94a06b"/>
      <stop offset="0.6078431372549019" stop-color="#94a06b"/>
      <stop offset="1.0" stop-color="#414a2f"/>
    </linearGradient>
    <linearGradient gradientTransform="matrix(0.0043, 0.0, 0.0, 0.0018, -4.5, 17.5)" gradientUnits="userSpaceOnUse" id="gradient24" spreadMethod="pad" x1="-819.2" x2="819.2">
      <stop offset="0.0" stop-color="#414a2f"/>
      <stop offset="0.36470588235294116" stop-color="#94a06b"/>
      <stop offset="0.6078431372549019" stop-color="#94a06b"/>
      <stop offset="1.0" stop-color="#414a2f"/>
    </linearGradient>
    <linearGradient gradientTransform="matrix(0.0031, 0.0, 0.0, 0.0012, 13.5, 20.0)" gradientUnits="userSpaceOnUse" id="gradient25" spreadMethod="pad" x1="-819.2" x2="819.2">
      <stop offset="0.0" stop-color="#515151"/>
      <stop offset="0.5254901960784314" stop-color="#666666"/>
      <stop offset="1.0" stop-color="#585858"/>
    </linearGradient>
    <linearGradient gradientTransform="matrix(0.0031, 0.0, 0.0, 0.0012, 4.5, 20.0)" gradientUnits="userSpaceOnUse" id="gradient26" spreadMethod="pad" x1="-819.2" x2="819.2">
      <stop offset="0.0" stop-color="#515151"/>
      <stop offset="0.5254901960784314" stop-color="#666666"/>
      <stop offset="1.0" stop-color="#585858"/>
    </linearGradient>
    <linearGradient gradientTransform="matrix(0.0031, 0.0, 0.0, 0.0012, -4.5, 20.0)" gradientUnits="userSpaceOnUse" id="gradient27" spreadMethod="pad" x1="-819.2" x2="819.2">
      <stop offset="0.0" stop-color="#515151"/>
      <stop offset="0.5254901960784314" stop-color="#666666"/>
      <stop offset="1.0" stop-color="#585858"/>
    </linearGradient>
    <linearGradient gradientTransform="matrix(0.0031, 0.0, 0.0, 0.0012, -13.5, 20.0)" gradientUnits="userSpaceOnUse" id="gradient28" spreadMethod="pad" x1="-819.2" x2="819.2">
      <stop offset="0.0" stop-color="#515151"/>
      <stop offset="0.5254901960784314" stop-color="#666666"/>
      <stop offset="1.0" stop-color="#585858"/>
    </linearGradient>
    <linearGradient gradientTransform="matrix(0.0256, 0.0, 0.0, 0.0018, 0.0, 38.5)" gradientUnits="userSpaceOnUse" id="gradient29" spreadMethod="pad" x1="-819.2" x2="819.2">
      <stop offset="0.0" stop-color="#717171"/>
      <stop offset="0.5254901960784314" stop-color="#c6c6c6"/>
      <stop offset="1.0" stop-color="#7b7b7b"/>
    </linearGradient>
    <linearGradient gradientTransform="matrix(0.0232, 0.0, 0.0, 0.0201, 0.0, -3.5)" gradientUnits="userSpaceOnUse" id="gradient30" spreadMethod="pad" x1="-819.2" x2="819.2">
      <stop offset="0.0" stop-color="#bbbbbb"/>
      <stop offset="0.10980392156862745" stop-color="#959595"/>
      <stop offset="0.3568627450980392" stop-color="#cacaca"/>
      <stop offset="0.5098039215686274" stop-color="#d5d5d5"/>
      <stop offset="0.6470588235294118" stop-color="#cacaca"/>
      <stop offset="0.8901960784313725" stop-color="#8d8d8d"/>
      <stop offset="1.0" stop-color="#adadad"/>
    </linearGradient>
    <linearGradient gradientTransform="matrix(0.0, -0.0203, 0.0204, 0.0, 0.0, -40.75)" gradientUnits="userSpaceOnUse" id="gradient31" spreadMethod="pad" x1="-819.2" x2="819.2">
      <stop offset="0.0" stop-color="#000000" stop-opacity="0.3019608"/>
      <stop offset="0.5411764705882353" stop-color="#12130f"/>
      <stop offset="0.6901960784313725" stop-color="#000000"/>
      <stop offset="0.9568627450980393" stop-color="#969889"/>
      <stop offset="1.0" stop-color="#ffffff"/>
    </linearGradient>
    <linearGradient gradientTransform="matrix(-3.0E-4, -0.0569, 0.0562, -3.0E-4, 0.0, -3.0)" gradientUnits="userSpaceOnUse" id="gradient32" spreadMethod="pad" x1="-819.2" x2="819.2">
      <stop offset="0.0" stop-color="#817e76"/>
      <stop offset="0.050980392156862744" stop-color="#393837"/>
      <stop offset="0.07450980392156863" stop-color="#88837d"/>
      <stop offset="0.11372549019607843" stop-color="#727069"/>
      <stop offset="0.5333333333333333" stop-color="#b8b8b8"/>
      <stop offset="0.6627450980392157" stop-color="#a2a4a4"/>
      <stop offset="0.8392156862745098" stop-color="#595c5e"/>
      <stop offset="0.8627450980392157" stop-color="#aaadb0"/>
    </linearGradient>
    <linearGradient gradientTransform="matrix(0.0, -0.0363, 0.036, 0.0, 6.0, 5.5)" gradientUnits="userSpaceOnUse" id="gradient33" spreadMethod="pad" x1="-819.2" x2="819.2">
      <stop offset="0.0" stop-color="#ffffff" stop-opacity="0.0"/>
      <stop offset="0.058823529411764705" stop-color="#ffffff" stop-opacity="0.2509804"/>
      <stop offset="0.06666666666666667" stop-color="#ffffff" stop-opacity="0.3529412"/>
      <stop offset="1.0" stop-color="#ffffff" stop-opacity="0.2509804"/>
    </linearGradient>
    <radialGradient cx="0" cy="0" gradientTransform="matrix(0.0311, 0.0, 0.0, 0.0074, 0.0, -42.0)" gradientUnits="userSpaceOnUse" id="gradient34" r="819.2" spreadMethod="pad">
      <stop offset="0.18823529411764706" stop-color="#ffffff" stop-opacity="0.57254905"/>
      <stop offset="0.4392156862745098" stop-color="#ffffff" stop-opacity="0.14117648"/>
      <stop offset="0.6666666666666666" stop-color="#ffffff" stop-opacity="0.0"/>
    </radialGradient>
    <radialGradient cx="0" cy="0" gradientTransform="matrix(0.0154, 0.0, 0.0, 0.0088, 9.6, -35.0)" gradientUnits="userSpaceOnUse" id="gradient35" r="819.2" spreadMethod="pad">
      <stop offset="0.24313725490196078" stop-color="#ffffff" stop-opacity="0.972549"/>
      <stop offset="0.34509803921568627" stop-color="#ffffff" stop-opacity="0.44313726"/>
      <stop offset="0.5490196078431373" stop-color="#ffffff" stop-opacity="0.22352941"/>
      <stop offset="0.7490196078431373" stop-color="#ffffff" stop-opacity="0.08235294"/>
      <stop offset="1.0" stop-color="#ffffff" stop-opacity="0.0"/>
    </radialGradient>
  </defs>
</svg>
