<?xml version="1.0" encoding="UTF-8" standalone="no"?>
<svg xmlns:xlink="http://www.w3.org/1999/xlink" height="63.9px" width="86.2px" xmlns="http://www.w3.org/2000/svg">
  <g transform="matrix(1.0, 0.0, 0.0, 1.0, 43.15, 31.5)">
    <path d="M10.9 -31.5 Q11.85 -31.55 12.6 -30.9 13.35 -30.3 13.5 -29.3 L13.7 -27.95 Q15.35 -23.95 19.0 -19.1 23.95 -12.5 28.5 -11.45 32.6 -10.65 36.1 -8.2 38.1 -6.75 39.55 -5.05 42.2 -4.25 42.65 -3.45 43.5 -2.05 42.65 -0.55 39.95 4.9 37.8 12.55 L37.8 12.5 34.35 27.0 Q33.7 29.05 29.55 30.15 21.4 32.4 0.0 32.4 -21.55 32.4 -29.5 30.2 -33.65 29.05 -34.35 26.7 -36.1 19.25 -37.8 12.55 -39.8 5.4 -42.3 0.2 L-42.85 -0.8 Q-43.2 -1.45 -43.15 -2.15 L-42.7 -3.45 -41.6 -4.3 -39.55 -5.05 -37.6 -7.0 -36.3 -8.05 Q-33.1 -10.4 -28.55 -11.45 -24.1 -12.45 -21.5 -16.2 L-19.05 -20.2 Q-17.4 -23.0 -15.85 -24.65 L-15.3 -26.65 Q-14.6 -30.15 -13.85 -30.65 -13.4 -31.2 -12.65 -31.4 L-11.2 -31.35 Q-10.5 -31.15 -10.0 -30.55 L-8.9 -29.05 Q-5.25 -30.55 0.0 -30.5 L6.65 -29.75 Q8.05 -31.35 10.9 -31.5" fill="#000000" fill-rule="evenodd" stroke="none"/>
    <path d="M32.9 -2.0 Q34.8 -3.1 36.35 -3.1 37.95 -3.1 40.6 -2.0 L39.35 0.25 37.95 2.0 32.9 2.0 32.9 -2.0 M-33.0 -2.0 L-33.0 2.0 -38.0 2.0 -39.4 0.25 -40.65 -2.0 Q-38.0 -3.1 -36.4 -3.1 -34.85 -3.1 -33.0 -2.0" fill="#37302b" fill-rule="evenodd" stroke="none"/>
    <path d="M0.0 -28.0 Q4.75 -28.05 8.2 -26.65 10.4 -24.3 14.5 -15.2 L9.4 -18.35 Q6.6 -20.1 4.9 -20.7 4.35 -20.9 3.1 -19.6 L0.8 -16.7 -4.5 -8.95 Q-6.9 -5.35 -7.5 -5.9 -13.45 -11.0 -12.55 -18.75 -12.1 -22.6 -10.5 -25.45 L-10.45 -25.5 Q-6.4 -28.05 0.0 -28.0" fill="url(#gradient0)" fill-rule="evenodd" stroke="none"/>
    <path d="M11.4 -27.0 Q13.15 -22.75 17.0 -17.6 22.7 -10.05 28.0 -9.0 31.6 -8.3 34.65 -6.15 38.15 -3.7 39.5 -0.25 L36.0 8.0 0.0 8.0 -36.0 8.0 -39.5 -0.25 Q-38.1 -3.75 -34.85 -6.05 -32.0 -8.1 -28.0 -9.0 -22.6 -10.2 -19.45 -14.8 L-16.95 -18.9 -14.0 -23.0 Q-13.4 -23.65 -12.85 -26.15 L-12.0 -29.0 Q-10.2 -26.7 -10.0 -26.0 -9.9 -25.65 -10.15 -25.05 L-10.8 -22.9 Q-11.3 -19.95 -9.4 -13.75 -7.6 -7.95 -7.0 -8.0 -6.55 -8.05 -2.35 -15.25 1.95 -22.55 4.0 -23.0 7.5 -21.8 13.0 -16.8 13.35 -16.6 11.7 -20.2 9.85 -24.15 8.0 -27.0 8.6 -28.9 11.0 -29.0 L11.4 -27.0" fill="url(#gradient1)" fill-rule="evenodd" stroke="none"/>
    <path d="M18.95 -6.7 Q26.8 -5.4 26.8 -3.55 26.8 -1.65 18.95 -0.35 11.1 1.0 0.0 1.0 -11.1 1.0 -18.95 -0.35 -26.8 -1.65 -26.8 -3.55 -26.8 -5.4 -18.95 -6.7 -11.1 -8.05 0.0 -8.05 11.1 -8.05 18.95 -6.7" fill="url(#gradient2)" fill-rule="evenodd" stroke="none"/>
    <path d="M36.55 0.1 L36.35 0.0 36.55 0.1 38.45 0.2 Q39.15 0.0 40.6 -2.0 37.7 3.7 35.4 11.85 L32.0 26.0 Q32.0 26.95 28.75 27.8 L28.75 27.75 28.7 27.8 28.7 27.75 29.45 24.4 31.7 13.45 Q33.75 5.65 36.55 0.1" fill="url(#gradient3)" fill-rule="evenodd" stroke="none"/>
    <path d="M23.3 28.75 L22.6 28.8 16.95 29.4 Q17.05 24.95 17.3 22.6 17.4 21.3 18.45 13.9 18.9 10.35 20.1 5.8 L20.95 2.85 Q23.7 3.7 25.7 3.6 27.7 3.45 29.5 2.05 L27.4 8.15 26.1 12.85 Q25.1 17.5 24.25 22.4 L23.3 28.75" fill="url(#gradient4)" fill-rule="evenodd" stroke="none"/>
    <path d="M36.55 0.1 Q33.75 5.65 31.7 13.45 L29.45 24.4 28.7 27.75 28.7 27.8 23.3 28.75 24.25 22.4 Q25.1 17.5 26.1 12.85 L27.4 8.15 29.5 2.05 Q34.0 2.85 36.55 0.1" fill="url(#gradient5)" fill-rule="evenodd" stroke="none"/>
    <path d="M8.35 29.9 L0.0 30.0 0.0 4.0 Q3.45 5.3 7.4 4.4 9.4 3.95 10.65 3.25 9.55 8.5 9.15 13.55 L8.55 22.1 8.35 29.9" fill="url(#gradient6)" fill-rule="evenodd" stroke="none"/>
    <path d="M16.95 29.4 L8.35 29.9 8.55 22.1 9.15 13.55 Q9.55 8.5 10.65 3.25 15.65 5.85 20.95 2.85 L20.1 5.8 Q18.9 10.35 18.45 13.9 17.4 21.3 17.3 22.6 17.05 24.95 16.95 29.4" fill="url(#gradient7)" fill-rule="evenodd" stroke="none"/>
    <path d="M0.0 30.0 L-8.35 29.9 -8.55 22.1 -9.15 13.55 Q-9.55 8.5 -10.65 3.25 -9.4 3.95 -7.4 4.4 -3.45 5.3 0.0 4.0 L0.0 30.0" fill="url(#gradient8)" fill-rule="evenodd" stroke="none"/>
    <path d="M-8.35 29.9 L-16.95 29.4 Q-17.05 24.95 -17.3 22.6 -17.4 21.3 -18.45 13.9 -18.9 10.35 -20.1 5.8 L-20.95 2.85 Q-15.65 5.85 -10.65 3.25 -9.55 8.5 -9.15 13.55 L-8.55 22.1 -8.35 29.9" fill="url(#gradient9)" fill-rule="evenodd" stroke="none"/>
    <path d="M-16.95 29.4 L-22.6 28.8 -23.3 28.75 -24.25 22.4 Q-25.1 17.5 -26.1 12.85 L-27.4 8.15 -29.5 2.05 Q-27.7 3.45 -25.7 3.6 -23.7 3.7 -20.95 2.85 L-20.1 5.8 Q-18.9 10.35 -18.45 13.9 -17.4 21.3 -17.3 22.6 -17.05 24.95 -16.95 29.4" fill="url(#gradient10)" fill-rule="evenodd" stroke="none"/>
    <path d="M-23.3 28.75 L-28.7 27.8 -28.7 27.75 -29.45 24.4 -31.7 13.45 Q-33.75 5.65 -36.55 0.1 -34.0 2.85 -29.5 2.05 L-27.4 8.15 -26.1 12.85 Q-25.1 17.5 -24.25 22.4 L-23.3 28.75" fill="url(#gradient11)" fill-rule="evenodd" stroke="none"/>
    <path d="M-28.7 27.8 L-28.75 27.75 -28.75 27.8 Q-32.0 26.95 -32.0 26.0 L-35.4 11.85 Q-37.7 3.7 -40.6 -2.0 -39.15 0.0 -38.45 0.2 L-36.55 0.1 Q-33.75 5.65 -31.7 13.45 L-29.45 24.4 -28.7 27.75 -28.7 27.8" fill="url(#gradient12)" fill-rule="evenodd" stroke="none"/>
    <path d="M28.7 27.75 L28.7 27.8" fill="none" stroke="#00ff00" stroke-linecap="round" stroke-linejoin="round" stroke-width="0.25"/>
    <path d="M23.3 28.75 L24.25 22.4 Q25.1 17.5 26.1 12.85 L27.4 8.15 29.5 2.05 M28.7 27.75 L29.45 24.4 31.7 13.45 Q33.75 5.65 36.55 0.1 M16.95 29.4 Q17.05 24.95 17.3 22.6 17.4 21.3 18.45 13.9 18.9 10.35 20.1 5.8 L20.95 2.85 M10.65 3.25 Q9.55 8.5 9.15 13.55 L8.55 22.1 8.35 29.9 M0.0 4.0 L0.0 30.0 M-20.95 2.85 L-20.1 5.8 Q-18.9 10.35 -18.45 13.9 -17.4 21.3 -17.3 22.6 -17.05 24.95 -16.95 29.4 M-10.65 3.25 Q-9.55 8.5 -9.15 13.55 L-8.55 22.1 -8.35 29.9 M-36.55 0.1 Q-33.75 5.65 -31.7 13.45 L-29.45 24.4 -28.7 27.75 M-23.3 28.75 L-24.25 22.4 Q-25.1 17.5 -26.1 12.85 L-27.4 8.15 -29.5 2.05" fill="none" stroke="url(#gradient13)" stroke-linecap="butt" stroke-linejoin="round" stroke-width="1.0"/>
  </g>
  <defs>
    <radialGradient cx="0" cy="0" fx="3.2" fy="0" gradientTransform="matrix(0.0338, 0.0, 0.0, 0.0292, 0.3, -24.7)" gradientUnits="userSpaceOnUse" id="gradient0" r="819.2" spreadMethod="pad">
      <stop offset="0.0" stop-color="#e2c878"/>
      <stop offset="0.3333333333333333" stop-color="#daab56"/>
      <stop offset="0.6549019607843137" stop-color="#b3773e"/>
      <stop offset="1.0" stop-color="#98632e"/>
    </radialGradient>
    <linearGradient gradientTransform="matrix(0.0, -0.0223, 0.0226, 0.0, 0.0, -10.5)" gradientUnits="userSpaceOnUse" id="gradient1" spreadMethod="pad" x1="-819.2" x2="819.2">
      <stop offset="0.0" stop-color="#6b4929"/>
      <stop offset="0.19607843137254902" stop-color="#9f6c3c"/>
      <stop offset="0.3137254901960784" stop-color="#bc8249"/>
      <stop offset="0.4392156862745098" stop-color="#b98048"/>
      <stop offset="1.0" stop-color="#92663a"/>
    </linearGradient>
    <radialGradient cx="0" cy="0" gradientTransform="matrix(0.0, -0.0055, 0.0328, 0.0, 0.0, -3.55)" gradientUnits="userSpaceOnUse" id="gradient2" r="819.2" spreadMethod="pad">
      <stop offset="0.0" stop-color="#d28f4f" stop-opacity="0.84313726"/>
      <stop offset="1.0" stop-color="#c88f28" stop-opacity="0.0"/>
    </radialGradient>
    <linearGradient gradientTransform="matrix(-0.0072, -0.0012, 0.0028, -0.0172, 34.6, 12.3)" gradientUnits="userSpaceOnUse" id="gradient3" spreadMethod="pad" x1="-819.2" x2="819.2">
      <stop offset="0.0" stop-color="#4d4339"/>
      <stop offset="0.3607843137254902" stop-color="#655a52"/>
      <stop offset="1.0" stop-color="#3e3533"/>
    </linearGradient>
    <linearGradient gradientTransform="matrix(-0.0073, -0.002, 0.0044, -0.0161, 20.95, 15.55)" gradientUnits="userSpaceOnUse" id="gradient4" spreadMethod="pad" x1="-819.2" x2="819.2">
      <stop offset="0.2196078431372549" stop-color="#4d4339"/>
      <stop offset="0.49019607843137253" stop-color="#4f463e"/>
      <stop offset="1.0" stop-color="#403631"/>
    </linearGradient>
    <linearGradient gradientTransform="matrix(0.0065, 0.0018, -0.0045, 0.0164, 26.35, 29.5)" gradientUnits="userSpaceOnUse" id="gradient5" spreadMethod="pad" x1="-819.2" x2="819.2">
      <stop offset="0.03529411764705882" stop-color="#433a34"/>
      <stop offset="0.6666666666666666" stop-color="#584f49"/>
      <stop offset="1.0" stop-color="#483f37"/>
    </linearGradient>
    <linearGradient gradientTransform="matrix(0.0065, 0.0, 0.0, 0.0166, 5.45, 16.4)" gradientUnits="userSpaceOnUse" id="gradient6" spreadMethod="pad" x1="-819.2" x2="819.2">
      <stop offset="0.0" stop-color="#4d4339"/>
      <stop offset="0.615686274509804" stop-color="#4f463e"/>
      <stop offset="1.0" stop-color="#483f37"/>
    </linearGradient>
    <linearGradient gradientTransform="matrix(0.0093, 6.0E-4, -0.001, 0.0165, 14.25, 16.6)" gradientUnits="userSpaceOnUse" id="gradient7" spreadMethod="pad" x1="-819.2" x2="819.2">
      <stop offset="0.0" stop-color="#443c33"/>
      <stop offset="0.615686274509804" stop-color="#554a40"/>
      <stop offset="1.0" stop-color="#433934"/>
    </linearGradient>
    <linearGradient gradientTransform="matrix(-0.0065, 0.0, 0.0, 0.0166, -5.45, 16.4)" gradientUnits="userSpaceOnUse" id="gradient8" spreadMethod="pad" x1="-819.2" x2="819.2">
      <stop offset="0.0" stop-color="#4d4339"/>
      <stop offset="0.5843137254901961" stop-color="#4f463e"/>
      <stop offset="1.0" stop-color="#483f37"/>
    </linearGradient>
    <linearGradient gradientTransform="matrix(-0.0093, 6.0E-4, 0.001, 0.0165, -14.25, 16.6)" gradientUnits="userSpaceOnUse" id="gradient9" spreadMethod="pad" x1="-819.2" x2="819.2">
      <stop offset="0.0" stop-color="#443c33"/>
      <stop offset="0.615686274509804" stop-color="#554a40"/>
      <stop offset="1.0" stop-color="#433934"/>
    </linearGradient>
    <linearGradient gradientTransform="matrix(0.0073, -0.002, -0.0044, -0.0161, -20.95, 15.55)" gradientUnits="userSpaceOnUse" id="gradient10" spreadMethod="pad" x1="-819.2" x2="819.2">
      <stop offset="0.2196078431372549" stop-color="#4d4339"/>
      <stop offset="0.49019607843137253" stop-color="#4f463e"/>
      <stop offset="1.0" stop-color="#403631"/>
    </linearGradient>
    <linearGradient gradientTransform="matrix(-0.0065, 0.0018, 0.0045, 0.0164, -26.35, 29.5)" gradientUnits="userSpaceOnUse" id="gradient11" spreadMethod="pad" x1="-819.2" x2="819.2">
      <stop offset="0.03529411764705882" stop-color="#433a34"/>
      <stop offset="0.6666666666666666" stop-color="#584f49"/>
      <stop offset="1.0" stop-color="#483f37"/>
    </linearGradient>
    <linearGradient gradientTransform="matrix(0.0072, -0.0012, -0.0028, -0.0172, -34.6, 12.3)" gradientUnits="userSpaceOnUse" id="gradient12" spreadMethod="pad" x1="-819.2" x2="819.2">
      <stop offset="0.0" stop-color="#4d4339"/>
      <stop offset="0.3607843137254902" stop-color="#655a52"/>
      <stop offset="1.0" stop-color="#3e3533"/>
    </linearGradient>
    <linearGradient gradientTransform="matrix(0.0, -0.0184, 0.0184, 0.0, 0.0, 15.05)" gradientUnits="userSpaceOnUse" id="gradient13" spreadMethod="pad" x1="-819.2" x2="819.2">
      <stop offset="0.0" stop-color="#403831"/>
      <stop offset="1.0" stop-color="#615650"/>
    </linearGradient>
  </defs>
</svg>
