<?xml version="1.0" encoding="UTF-8" standalone="no"?>
<svg xmlns:xlink="http://www.w3.org/1999/xlink" height="9.0px" width="8.0px" xmlns="http://www.w3.org/2000/svg">
  <g transform="matrix(1.0, 0.0, 0.0, 1.0, -9.0, 10.0)">
    <path d="M10.0 -4.0 L10.0 -5.0 12.0 -5.0 12.0 -9.0 14.0 -9.0 14.0 -5.0 16.0 -5.0 16.0 -4.0 15.0 -4.0 15.0 -3.0 14.0 -3.0 14.0 -2.0 12.0 -2.0 12.0 -3.0 11.0 -3.0 11.0 -4.0 10.0 -4.0" fill="#ffffff" fill-rule="evenodd" stroke="none"/>
    <path d="M16.0 -4.0 L16.0 -5.0 14.0 -5.0 14.0 -9.0 12.0 -9.0 12.0 -5.0 10.0 -5.0 10.0 -4.0 9.0 -4.0 9.0 -6.0 11.0 -6.0 11.0 -10.0 15.0 -10.0 15.0 -6.0 17.0 -6.0 17.0 -4.0 16.0 -4.0 16.0 -3.0 15.0 -3.0 15.0 -2.0 14.0 -2.0 14.0 -1.0 12.0 -1.0 12.0 -2.0 11.0 -2.0 11.0 -3.0 10.0 -3.0 10.0 -4.0 11.0 -4.0 11.0 -3.0 12.0 -3.0 12.0 -2.0 14.0 -2.0 14.0 -3.0 15.0 -3.0 15.0 -4.0 16.0 -4.0" fill="#8b46a8" fill-rule="evenodd" stroke="none"/>
  </g>
</svg>
