<?xml version="1.0" encoding="UTF-8" standalone="no"?>
<svg xmlns:xlink="http://www.w3.org/1999/xlink" height="9.0px" width="8.0px" xmlns="http://www.w3.org/2000/svg">
  <g transform="matrix(1.0, 0.0, 0.0, 1.0, -2.0, 10.0)">
    <path d="M3.0 -8.0 L3.0 -9.0 9.0 -9.0 9.0 -2.0 3.0 -2.0 3.0 -3.0 7.0 -3.0 7.0 -5.0 3.0 -5.0 3.0 -6.0 7.0 -6.0 7.0 -8.0 3.0 -8.0" fill="#ffffff" fill-rule="evenodd" stroke="none"/>
    <path d="M3.0 -8.0 L7.0 -8.0 7.0 -6.0 3.0 -6.0 3.0 -5.0 7.0 -5.0 7.0 -3.0 3.0 -3.0 3.0 -2.0 9.0 -2.0 9.0 -9.0 3.0 -9.0 3.0 -8.0 M2.0 -1.0 L2.0 -10.0 10.0 -10.0 10.0 -1.0 2.0 -1.0" fill="#8b46a8" fill-rule="evenodd" stroke="none"/>
  </g>
</svg>
