<?xml version="1.0" encoding="UTF-8" standalone="no"?>
<svg xmlns:xlink="http://www.w3.org/1999/xlink" height="545.55px" width="164.65px" xmlns="http://www.w3.org/2000/svg">
  <g transform="matrix(1.0, 0.0, 0.0, 1.0, 82.3, 272.75)">
    <path d="M4.25 112.1 Q11.85 155.8 30.8 192.4 L-36.15 271.3 Q-63.3 214.2 -73.95 144.9 L4.25 112.1 M80.85 -155.95 Q60.9 -139.85 43.7 -113.6 -0.8 -45.65 -0.8 50.45 -0.8 61.8 -0.15 72.7 L-79.95 84.45 Q-80.8 67.75 -80.8 50.45 -80.8 -92.05 -24.6 -192.8 5.2 -246.15 41.55 -271.25 L80.85 -155.95" fill="#ffffff" fill-rule="evenodd" stroke="none"/>
    <path d="M80.85 -155.95 L41.55 -271.25 Q5.2 -246.15 -24.6 -192.8 -80.8 -92.05 -80.8 50.45 -80.8 67.75 -79.95 84.45 L-0.15 72.7 Q-0.8 61.8 -0.8 50.45 -0.8 -45.65 43.7 -113.6 60.9 -139.85 80.85 -155.95 M4.25 112.1 L-73.95 144.9 Q-63.3 214.2 -36.15 271.3 L30.8 192.4 Q11.85 155.8 4.25 112.1" fill="none" stroke="#00ffff" stroke-linecap="round" stroke-linejoin="round" stroke-width="3.0"/>
  </g>
</svg>
