<?xml version="1.0" encoding="UTF-8" standalone="no"?>
<svg xmlns:xlink="http://www.w3.org/1999/xlink" height="522.5px" width="477.85px" xmlns="http://www.w3.org/2000/svg">
  <g transform="matrix(1.0, 0.0, 0.0, 1.0, 240.0, 360.0)">
    <path d="M182.25 -359.15 L181.75 -358.65 179.85 -357.25 178.0 -357.0 177.85 -357.0 176.5 -357.25 175.35 -357.75 175.1 -357.9 174.85 -358.0 174.35 -358.5 174.25 -358.75 174.1 -359.0 174.0 -359.25 173.85 -359.5 173.75 -359.75 174.0 -360.0 182.75 -360.0 183.0 -359.9 182.25 -359.25 182.25 -359.15 M140.85 -208.4 L141.1 -208.25 141.5 -208.15 141.75 -207.9 141.85 -207.65 142.35 -206.75 142.75 -206.25 142.75 -206.15 143.0 -205.4 142.85 -204.4 142.85 -204.25 142.75 -203.65 142.85 -203.65 142.75 -203.4 142.75 -203.25 142.6 -203.0 142.35 -202.25 141.85 -201.75 141.85 -201.65 141.75 -201.4 141.35 -201.0 141.1 -200.9 140.5 -200.5 139.35 -200.0 137.85 -200.0 137.5 -200.25 136.75 -200.65 136.0 -201.5 135.75 -202.0 135.5 -202.75 135.35 -204.0 135.6 -205.4 136.1 -206.75 136.35 -207.25 137.1 -208.15 137.85 -208.4 138.0 -208.4 138.85 -208.65 139.25 -208.65 139.75 -208.5 139.85 -208.4 140.85 -208.4 M225.25 -27.25 L227.5 -27.75 232.25 -27.75 233.85 -26.65 236.0 -24.4 237.6 -21.25 237.85 -18.25 237.75 -18.0 236.0 -15.4 235.1 -14.65 234.6 -14.5 234.5 -14.25 234.35 -14.15 234.1 -13.9 233.5 -13.4 233.1 -13.25 229.25 -12.65 227.0 -12.75 226.0 -13.15 222.85 -14.75 221.5 -16.9 221.0 -18.0 220.5 -19.65 220.5 -20.65 220.1 -22.0 220.5 -22.5 221.6 -23.65 221.85 -24.65 222.0 -24.9 222.35 -25.75 223.0 -26.15 223.25 -26.25 225.1 -27.25 225.25 -27.25 M45.6 -226.25 L46.0 -226.4 46.5 -226.4 46.85 -226.25 47.5 -226.25 47.75 -226.15 48.1 -226.15 48.35 -226.0 48.6 -225.75 48.75 -225.75 49.1 -224.9 49.1 -224.75 49.25 -224.65 49.75 -224.0 49.85 -222.65 49.75 -222.4 49.6 -222.25 49.6 -221.9 49.1 -221.0 49.0 -220.75 48.5 -220.25 48.35 -220.0 48.35 -219.9 48.0 -219.65 47.5 -219.15 45.6 -218.25 45.0 -218.5 44.1 -218.65 43.5 -218.65 43.0 -219.15 42.75 -219.25 42.6 -220.4 42.6 -220.5 42.5 -221.25 42.5 -222.25 42.75 -222.5 42.85 -223.5 43.1 -224.0 44.25 -225.25 45.6 -226.25 M-218.4 -224.4 L-218.4 -224.5 -218.25 -224.65 -217.4 -225.25 -215.25 -225.25 -214.9 -224.75 -214.4 -224.4 -213.75 -224.25 -213.75 -223.9 -213.15 -223.25 -213.15 -223.15 -213.0 -222.75 -212.9 -222.15 -212.75 -221.75 -212.5 -221.4 -212.4 -221.0 -212.4 -220.5 -212.5 -220.0 -212.5 -219.65 -212.75 -219.5 -213.0 -218.75 -213.25 -218.5 -213.75 -218.15 -214.65 -218.15 -215.9 -218.5 -216.15 -218.65 -217.0 -219.0 -218.4 -220.4 -218.65 -220.75 -219.0 -221.4 -219.0 -222.75 -218.75 -223.4 -218.9 -223.9 -218.5 -223.75 -218.5 -224.15 -218.4 -224.4 M-197.25 -129.5 L-191.4 -123.65 -188.15 -118.25 -188.15 -117.25 -188.9 -111.4 -190.4 -107.65 -190.5 -107.25 -190.65 -107.0 -190.65 -106.9 -191.65 -104.9 -195.4 -103.4 -195.4 -103.25 -199.65 -101.4 -200.9 -101.4 -201.4 -101.5 -201.5 -101.5 -206.75 -102.25 -207.4 -102.25 -209.5 -103.65 -209.75 -103.75 -210.15 -104.0 -210.4 -104.25 -210.5 -104.25 -210.65 -104.4 -210.9 -104.5 -211.0 -104.65 -211.25 -104.9 -211.5 -105.0 -216.0 -107.9 -216.4 -108.25 -218.25 -110.9 -218.75 -111.5 -220.15 -113.9 -222.25 -123.4 -222.25 -123.5 -222.4 -123.75 -222.65 -125.0 -219.65 -129.25 -215.0 -132.65 -214.9 -132.65 -214.15 -133.0 -213.9 -133.15 -213.65 -133.25 -210.0 -135.15 -207.4 -134.65 -207.15 -134.5 -206.75 -134.5 -202.15 -132.65 -198.0 -129.9 -197.9 -129.9 -197.25 -129.5 M-166.4 -105.65 L-165.9 -105.65 -165.25 -105.5 -165.0 -105.5 -164.75 -105.4 -164.25 -105.4 -163.5 -105.0 -163.25 -104.75 -163.15 -104.75 -162.75 -104.25 -162.4 -104.15 -162.15 -104.0 -162.15 -103.75 -160.75 -102.5 -160.65 -100.75 -160.75 -100.25 -160.75 -100.0 -161.4 -97.9 -163.0 -96.5 -164.9 -95.75 -166.75 -95.65 -168.5 -96.25 -169.9 -97.5 -169.9 -97.65 -170.15 -97.9 -170.25 -98.15 -170.4 -98.4 -170.9 -98.9 -170.9 -99.4 -171.5 -100.65 -171.25 -101.65 -171.15 -102.4 -169.9 -104.4 -168.75 -104.9 -168.65 -105.0 -168.25 -105.0 -166.75 -105.5 -166.65 -105.5 -166.4 -105.65 M-237.65 -35.15 L-237.4 -35.0 -237.15 -35.0 -235.4 -34.75 -233.9 -33.4 -233.4 -31.65 -233.0 -31.4 -233.15 -30.4 -233.25 -30.25 -233.15 -28.25 -233.65 -27.65 -234.15 -26.65 -235.65 -25.4 -237.0 -25.15 -237.4 -25.0 -239.65 -24.9 -239.75 -25.0 -240.0 -25.9 -240.0 -34.75 -239.75 -35.0 -237.65 -35.15 M-59.5 23.6 L-58.5 22.85 -57.4 22.6 -56.9 22.6 -55.65 23.0 -55.5 23.0 -55.25 23.25 -55.25 23.35 -55.0 23.85 -54.4 24.5 -54.4 24.6 -53.75 26.25 -54.4 27.5 -55.0 28.1 -55.25 28.75 -55.5 29.0 -55.9 29.0 -56.15 29.25 -56.4 29.35 -56.65 29.5 -57.15 29.6 -58.15 29.6 -58.75 29.5 -59.65 29.1 -60.25 28.5 -60.4 28.25 -60.5 27.75 -60.75 27.5 -60.75 26.1 -60.65 25.85 -60.65 25.1 -60.25 24.6 -60.15 24.5 -60.15 24.35 -59.5 23.6 M-104.75 -15.4 L-102.25 -16.9 -99.9 -17.15 -97.25 -16.65 -95.65 -15.15 -95.5 -14.75 -95.25 -14.5 -93.65 -12.25 -93.4 -11.65 -92.15 -7.9 -92.15 -7.75 -92.25 -7.5 -92.25 -7.25 -92.65 -3.9 -93.65 -0.9 -93.9 -0.65 -94.0 -0.65 -96.25 1.1 -96.5 1.35 -97.0 2.0 -100.0 1.85 -100.5 1.75 -101.0 1.25 -102.4 0.25 -104.65 -2.25 -104.65 -2.5 -105.4 -4.4 -105.65 -4.75 -106.25 -7.9 -106.4 -8.25 -106.4 -8.65 -106.5 -8.75 -106.15 -11.75 -106.15 -12.4 -106.0 -12.5 -105.25 -15.15 -104.75 -15.4 M65.6 147.0 L65.85 148.0 65.85 148.35 66.0 148.5 66.0 148.75 65.85 149.1 65.75 149.5 65.75 150.0 65.6 150.1 65.35 150.35 64.75 151.35 64.25 151.85 63.85 152.0 63.25 152.35 62.1 152.6 62.0 152.6 61.1 152.5 59.85 152.1 58.75 151.35 58.25 150.6 58.25 150.5 58.0 150.25 57.85 150.0 57.85 148.5 58.0 148.0 57.85 147.5 58.0 147.25 58.1 147.0 58.1 146.75 59.1 145.35 59.5 145.0 61.35 144.35 62.5 144.35 63.6 144.85 63.85 145.0 65.1 145.6 65.25 145.85 65.35 146.35 65.6 147.0 M-91.25 105.85 L-89.25 107.35 -89.0 107.5 -88.25 108.25 -86.75 111.85 -86.75 112.0 -85.5 114.85 -85.65 115.85 -85.65 116.0 -86.4 119.5 -88.15 122.85 -91.65 125.75 -96.25 127.5 -99.65 127.1 -100.0 127.1 -104.0 126.25 -106.5 124.35 -106.75 124.25 -108.5 121.0 -108.65 120.85 -108.9 120.1 -109.65 116.35 -109.4 112.85 -106.65 109.35 -103.65 106.25 -99.65 105.1 -99.15 105.0 -95.4 105.1 -93.0 105.5 -92.9 105.5 -91.25 105.85 M206.5 150.6 L208.25 153.25 208.35 153.5 208.35 153.6 209.1 156.25 209.35 156.35 209.5 156.75 209.6 157.25 209.25 159.0 208.35 160.85 208.25 161.0 208.1 161.0 204.6 162.5 202.1 162.1 201.75 161.75 200.85 161.35 199.75 159.35 199.6 159.25 199.35 159.0 199.1 158.5 199.1 158.35 198.25 156.85 197.85 155.25 197.75 153.35 197.85 152.1 199.0 150.35 200.25 149.5 200.75 149.25 203.6 149.35 204.5 149.6 204.6 149.6 204.75 149.75 206.5 150.6" fill="#ffffff" fill-rule="evenodd" stroke="none"/>
  </g>
</svg>
