<?xml version="1.0" encoding="UTF-8" standalone="no"?>
<svg xmlns:xlink="http://www.w3.org/1999/xlink" height="528.75px" width="466.1px" xmlns="http://www.w3.org/2000/svg">
  <g transform="matrix(1.0, 0.0, 0.0, 1.0, 236.25, 360.0)">
    <path d="M183.25 -359.5 L183.1 -359.25 183.1 -359.15 181.75 -357.4 181.75 -357.25 181.6 -357.15 179.5 -355.4 179.35 -355.4 177.6 -355.15 176.35 -355.4 174.75 -356.0 174.5 -356.15 174.25 -356.4 173.75 -357.0 173.35 -357.9 173.25 -358.25 173.25 -358.5 173.1 -358.75 173.0 -359.5 172.75 -359.9 173.1 -360.0 182.5 -360.0 183.35 -359.75 183.25 -359.5 M134.25 -195.5 L135.5 -195.65 136.0 -195.9 136.25 -195.75 136.6 -195.65 137.0 -195.65 137.75 -195.5 138.1 -195.25 138.35 -195.25 138.35 -195.15 138.6 -194.9 138.6 -194.75 139.6 -193.0 139.6 -191.4 139.35 -191.25 139.35 -190.9 139.5 -190.9 139.35 -190.65 139.35 -190.5 138.85 -189.4 138.6 -189.25 138.5 -189.0 138.5 -188.9 138.0 -188.4 137.5 -188.25 137.35 -188.0 137.25 -187.9 137.1 -187.9 136.1 -187.5 134.6 -187.5 134.35 -187.75 133.5 -188.25 132.85 -188.9 132.6 -189.4 132.5 -189.9 132.1 -191.15 132.35 -192.65 132.85 -194.0 133.1 -194.5 133.85 -195.4 134.25 -195.5 M224.0 -15.5 L226.0 -14.5 228.0 -12.25 228.1 -12.0 229.6 -9.0 229.85 -6.25 229.85 -6.15 229.6 -5.9 229.6 -5.75 228.0 -3.4 227.25 -2.75 226.75 -2.5 226.5 -2.25 226.35 -2.15 226.1 -1.9 225.35 -1.4 222.0 -0.9 221.1 -1.0 219.5 -0.9 216.6 -2.25 215.5 -2.9 214.1 -5.0 214.0 -5.4 213.25 -7.4 213.1 -7.65 213.1 -8.5 212.85 -9.4 213.1 -10.5 214.25 -11.5 214.5 -12.5 215.0 -13.65 217.75 -15.15 220.0 -15.5 224.0 -15.5 M46.35 -212.9 L47.1 -212.65 47.25 -212.65 47.5 -212.4 47.85 -211.5 48.1 -211.4 48.6 -210.5 48.6 -209.5 48.5 -209.0 48.35 -208.65 48.35 -208.5 47.6 -207.25 47.25 -206.9 47.25 -206.75 46.75 -206.4 46.35 -206.0 46.0 -205.75 44.5 -205.15 43.85 -205.4 43.25 -205.5 42.85 -205.5 41.75 -206.15 41.6 -207.15 41.6 -207.25 41.5 -208.15 41.5 -208.65 41.75 -210.15 42.1 -210.75 43.25 -212.0 44.1 -212.65 44.6 -212.9 46.35 -212.9 M-209.9 -211.65 L-209.75 -211.15 -208.5 -210.15 -208.25 -210.0 -208.0 -209.5 -207.9 -209.5 -207.9 -209.15 -207.75 -208.9 -207.65 -208.65 -207.65 -208.5 -207.15 -207.4 -207.4 -206.5 -207.4 -206.15 -207.65 -206.0 -208.0 -205.15 -208.75 -204.75 -209.5 -204.65 -210.65 -205.0 -211.75 -205.5 -213.15 -206.9 -213.65 -207.75 -213.75 -208.65 -213.5 -209.15 -213.5 -209.9 -213.25 -210.65 -212.75 -211.15 -212.15 -211.5 -211.5 -211.65 -210.9 -211.5 -210.4 -211.65 -209.9 -211.65 M-156.5 -88.15 L-156.25 -87.75 -155.0 -86.65 -154.9 -84.75 -155.0 -84.25 -155.0 -84.0 -155.4 -83.25 -155.4 -82.65 -155.65 -82.0 -155.75 -82.0 -157.15 -80.75 -157.4 -80.65 -157.65 -80.5 -158.0 -80.5 -158.75 -80.0 -160.9 -80.0 -162.25 -80.4 -164.0 -82.0 -164.15 -82.25 -164.25 -82.5 -164.65 -83.15 -164.65 -83.4 -165.25 -84.75 -165.0 -85.4 -165.0 -86.25 -163.9 -88.15 -162.0 -89.15 -161.9 -89.15 -160.65 -89.4 -160.4 -89.5 -160.0 -89.5 -158.75 -89.25 -158.4 -89.25 -158.0 -89.15 -156.5 -88.15 M-208.4 -104.25 L-208.25 -104.5 -207.25 -105.4 -206.9 -105.5 -206.9 -105.65 -205.65 -106.9 -199.0 -110.4 -196.5 -109.65 -196.25 -109.5 -195.9 -109.5 -191.65 -108.0 -187.75 -105.5 -187.65 -105.5 -187.4 -105.4 -186.65 -104.75 -186.0 -104.0 -185.15 -103.4 -181.75 -100.0 -181.65 -99.75 -178.5 -94.75 -178.65 -94.4 -178.65 -93.9 -178.75 -93.5 -178.75 -93.25 -179.65 -88.65 -179.4 -88.15 -180.15 -86.75 -181.15 -84.15 -181.25 -83.75 -181.75 -82.65 -185.5 -80.9 -185.5 -80.75 -189.65 -78.9 -191.5 -79.0 -191.75 -79.15 -192.15 -79.15 -192.75 -79.25 -192.9 -79.25 -195.5 -79.65 -195.9 -79.65 -196.5 -79.75 -197.15 -79.75 -199.15 -81.15 -199.4 -81.25 -204.9 -84.65 -205.25 -85.0 -207.4 -87.9 -207.5 -88.15 -207.75 -88.5 -208.65 -90.15 -209.0 -91.65 -209.15 -92.0 -209.15 -92.15 -209.9 -94.25 -210.75 -99.25 -210.9 -99.65 -211.0 -100.65 -208.4 -104.25 M-231.65 -22.4 L-229.9 -22.4 -229.4 -22.25 -227.5 -22.15 -226.0 -20.75 -225.25 -18.15 -225.4 -17.75 -225.15 -17.65 -225.25 -17.4 -225.4 -17.15 -225.4 -15.9 -226.25 -14.25 -227.75 -13.15 -228.9 -12.9 -229.4 -12.65 -231.5 -12.65 -232.15 -13.0 -233.15 -13.4 -234.65 -14.25 -235.65 -15.9 -235.75 -16.15 -235.75 -16.25 -236.25 -17.4 -235.9 -18.65 -235.9 -19.25 -235.15 -20.0 -235.15 -20.15 -235.0 -20.4 -233.5 -21.75 -233.15 -21.9 -231.65 -22.4 M-91.4 -3.75 L-90.25 -0.65 -90.25 -0.25 -90.4 0.1 -90.4 0.25 -90.65 3.1 -90.75 3.35 -90.75 3.5 -91.65 6.25 -91.9 6.5 -92.0 6.5 -94.4 8.35 -95.0 9.1 -98.15 9.1 -98.4 8.85 -100.0 7.6 -101.0 6.6 -101.15 6.6 -101.65 6.1 -102.4 5.1 -102.4 4.85 -103.0 3.35 -103.0 3.25 -103.4 2.6 -104.0 -0.4 -104.0 -0.5 -104.15 -0.9 -104.4 -1.25 -104.0 -3.0 -104.0 -3.9 -103.9 -4.5 -103.9 -4.9 -103.15 -7.4 -102.65 -7.9 -100.75 -8.9 -100.0 -9.4 -99.9 -9.4 -98.4 -9.65 -98.15 -9.65 -97.5 -9.5 -95.15 -9.15 -93.75 -7.65 -93.5 -7.25 -93.4 -7.0 -91.5 -4.4 -91.4 -3.75 M-58.0 32.0 L-57.5 31.5 -57.0 31.25 -56.5 31.1 -55.15 31.1 -54.15 31.35 -53.15 32.35 -52.75 33.35 -52.4 34.6 -52.9 35.75 -53.5 36.35 -53.75 36.85 -54.25 37.25 -54.65 37.5 -54.9 37.6 -55.15 37.75 -55.65 37.85 -57.0 37.85 -58.0 37.5 -58.75 36.6 -58.9 36.1 -59.0 36.0 -59.25 35.6 -59.25 35.35 -59.0 34.5 -59.0 34.0 -59.15 33.75 -58.65 33.0 -58.65 32.85 -58.0 32.0 M64.0 153.75 L64.0 154.1 63.6 155.6 63.5 155.85 63.35 156.0 62.85 156.85 62.35 157.35 61.35 157.85 60.25 158.1 60.1 158.1 59.35 158.0 58.1 157.6 57.6 157.25 56.85 156.85 56.5 156.1 56.1 155.5 56.1 154.1 56.25 153.75 56.25 152.85 56.35 152.6 56.5 152.35 56.85 151.6 57.35 151.5 57.6 150.75 59.0 150.25 59.35 150.0 60.75 150.0 63.25 151.35 63.5 152.0 63.6 152.6 63.85 153.5 64.0 153.75 M-106.25 119.25 L-104.25 116.6 -100.65 112.75 -96.4 111.6 -92.75 111.75 -89.75 112.25 -89.4 112.25 -87.65 112.85 -85.9 114.75 -84.25 118.6 -84.15 119.0 -83.15 121.25 -83.25 122.25 -83.25 122.35 -84.15 125.75 -85.75 129.0 -89.0 131.75 -93.5 133.5 -96.9 133.25 -101.25 132.25 -103.65 130.5 -104.15 129.85 -105.65 127.0 -105.9 126.35 -106.5 123.5 -106.5 122.75 -106.4 122.25 -106.25 119.25 M192.1 156.85 L193.35 156.0 193.85 155.85 195.25 155.85 196.35 156.0 196.6 156.0 197.0 156.1 197.35 156.25 197.75 156.35 197.75 156.5 198.75 156.85 199.25 157.25 200.6 159.1 200.75 159.35 200.85 159.6 201.0 159.85 201.6 161.6 201.6 161.75 202.1 162.85 202.1 163.0 202.25 163.6 201.85 165.25 201.0 167.1 200.85 167.25 199.35 168.0 199.0 168.1 197.5 168.75 195.35 168.35 195.0 168.25 194.75 168.0 193.75 167.5 193.5 166.85 192.85 165.75 192.6 165.5 192.1 164.35 191.5 163.35 191.1 163.0 190.85 159.85 191.0 158.6 192.1 156.85" fill="#ffffff" fill-rule="evenodd" stroke="none"/>
  </g>
</svg>
