<?xml version="1.0" encoding="UTF-8" standalone="no"?>
<svg xmlns:xlink="http://www.w3.org/1999/xlink" height="536.0px" width="418.0px" xmlns="http://www.w3.org/2000/svg">
  <g transform="matrix(1.0, 0.0, 0.0, 1.0, 187.0, 330.4)">
    <path d="M166.85 -299.0 L167.1 -296.9 167.1 -296.25 166.85 -296.15 167.0 -295.9 166.6 -294.9 166.5 -294.75 166.35 -294.4 166.1 -294.0 166.1 -293.9 164.85 -292.25 164.75 -292.25 162.85 -290.9 161.35 -290.9 160.6 -291.0 159.6 -291.25 158.5 -291.65 158.25 -292.0 157.6 -293.25 157.35 -293.9 156.85 -296.0 156.85 -298.0 157.0 -298.25 157.0 -298.75 157.1 -299.15 157.25 -299.4 157.1 -299.9 157.6 -300.5 157.75 -300.75 158.1 -301.15 160.25 -302.65 160.5 -302.75 161.5 -303.25 162.85 -303.5 163.85 -302.9 164.25 -302.9 164.5 -302.65 166.0 -301.75 166.5 -300.65 166.6 -300.15 166.75 -299.75 166.85 -299.65 166.85 -299.0 M116.25 -110.25 L117.0 -109.4 117.25 -108.4 117.35 -108.25 117.25 -107.9 117.25 -107.75 117.35 -107.15 117.35 -107.0 117.25 -106.5 117.1 -106.4 116.85 -106.15 117.0 -105.9 116.6 -105.5 116.5 -105.25 116.25 -105.0 115.35 -104.4 115.1 -104.4 114.85 -104.25 114.0 -104.25 113.75 -104.15 113.35 -104.25 112.35 -104.9 111.85 -105.4 111.25 -106.75 111.25 -107.25 111.35 -107.65 111.35 -108.4 111.75 -109.25 111.85 -109.75 112.5 -110.4 113.0 -110.65 113.85 -110.5 114.25 -110.9 115.25 -110.75 116.0 -110.4 116.25 -110.25 M225.6 27.75 L227.0 27.35 229.1 28.25 229.25 28.35 229.35 28.35 229.5 28.5 229.6 28.5 230.35 29.6 230.5 29.6 230.5 29.85 230.6 30.1 230.6 30.25 230.85 30.85 230.75 31.1 230.85 31.25 231.0 31.35 230.85 31.6 231.0 31.6 230.75 32.1 230.75 32.5 230.6 32.6 230.6 32.75 230.35 33.0 229.85 34.0 228.0 35.35 226.1 35.5 225.6 35.35 224.1 35.25 223.6 34.6 223.25 34.25 222.75 33.5 222.35 32.35 222.25 31.5 222.25 30.85 222.5 29.75 222.75 29.35 225.6 27.75 M-156.0 -326.5 L-156.0 -326.4 -155.9 -326.0 -155.9 -325.75 -155.75 -325.65 -155.5 -325.4 -155.5 -325.15 -155.4 -324.5 -155.4 -323.75 -156.0 -322.4 -156.15 -322.15 -156.4 -321.9 -156.4 -321.65 -157.0 -320.75 -157.25 -320.75 -158.25 -320.4 -158.5 -320.25 -159.25 -320.15 -160.75 -320.5 -163.5 -322.0 -163.9 -323.0 -164.65 -324.25 -165.15 -324.9 -165.15 -327.25 -164.65 -327.75 -164.15 -328.65 -163.4 -329.65 -163.25 -330.0 -162.15 -330.15 -161.75 -330.4 -160.25 -330.0 -159.9 -330.0 -157.9 -329.15 -156.65 -328.15 -156.4 -327.65 -156.25 -327.0 -156.25 -326.9 -156.0 -326.5 M-180.9 -125.25 L-180.9 -126.0 -180.75 -126.65 -180.5 -126.75 -179.9 -127.25 -179.75 -127.4 -178.75 -127.65 -178.15 -127.5 -177.75 -127.0 -177.0 -126.75 -176.65 -126.4 -176.15 -125.25 -176.0 -125.0 -176.0 -124.65 -175.65 -124.0 -175.9 -123.15 -176.25 -122.4 -176.65 -122.15 -177.0 -122.15 -177.15 -122.0 -177.5 -122.0 -177.5 -121.9 -178.25 -122.0 -179.4 -122.4 -180.15 -123.15 -180.5 -123.4 -180.5 -123.5 -180.65 -123.75 -180.75 -124.0 -180.9 -124.15 -180.9 -124.25 -181.15 -124.75 -181.15 -125.25 -180.9 -125.25 M-129.25 6.25 L-129.0 5.6 -128.15 4.6 -127.5 4.1 -126.75 3.75 -125.25 3.5 -124.75 3.5 -124.25 3.6 -124.0 3.75 -123.9 3.85 -123.25 4.25 -122.65 4.5 -121.65 5.5 -121.4 7.0 -122.25 9.25 -123.9 10.6 -124.15 10.6 -124.75 10.75 -125.75 10.85 -126.75 10.75 -127.25 10.6 -128.75 9.0 -128.75 8.85 -128.9 8.75 -129.15 8.35 -129.5 7.35 -129.25 7.0 -129.25 6.25 M35.5 -126.75 L36.6 -128.0 36.85 -128.15 37.75 -128.5 39.6 -128.5 40.1 -128.25 40.35 -127.9 40.35 -127.65 40.6 -127.4 41.1 -126.65 41.1 -126.0 41.0 -125.4 40.85 -125.15 40.85 -125.0 40.6 -124.65 40.35 -124.4 40.25 -124.15 39.35 -123.4 39.35 -123.25 39.25 -123.25 39.0 -123.0 37.75 -122.5 37.0 -122.75 36.85 -122.75 36.6 -122.9 36.25 -122.9 36.0 -123.0 35.75 -123.15 35.5 -123.25 35.1 -124.15 35.1 -124.4 35.0 -124.75 35.1 -125.15 35.1 -125.65 35.5 -126.75 M-76.75 56.85 L-76.4 57.25 -76.4 57.35 -75.65 58.25 -75.4 58.35 -74.65 59.75 -74.65 59.85 -74.4 60.5 -74.4 61.0 -74.15 61.25 -73.5 63.25 -74.0 64.85 -73.9 65.5 -74.15 65.6 -74.15 65.85 -74.25 66.6 -74.75 68.35 -75.0 69.0 -75.75 69.25 -75.75 69.35 -76.15 69.5 -76.25 69.75 -77.4 71.1 -79.75 71.25 -80.15 71.1 -81.9 69.5 -82.25 69.1 -82.4 68.85 -83.0 68.5 -83.75 66.75 -84.15 66.1 -84.25 65.0 -84.25 64.75 -84.65 63.6 -84.65 63.35 -84.75 63.1 -84.65 60.0 -84.4 59.6 -84.4 59.35 -84.25 59.0 -84.15 58.6 -84.15 58.25 -83.75 57.5 -81.9 56.25 -81.25 56.0 -80.75 55.6 -77.4 56.25 -76.75 56.85 M-47.75 82.0 L-47.4 82.0 -46.65 81.85 -46.4 81.85 -46.0 82.0 -45.75 82.0 -45.25 82.1 -44.5 82.85 -44.25 83.35 -44.25 83.5 -43.75 84.75 -44.25 85.85 -44.9 86.25 -44.9 86.6 -45.4 87.0 -46.0 87.25 -46.5 87.6 -47.65 87.6 -47.9 87.5 -48.65 87.1 -48.9 86.85 -49.15 86.35 -49.15 86.25 -49.5 85.6 -49.4 84.85 -49.4 84.0 -49.25 83.6 -48.9 83.35 -48.9 83.1 -48.75 82.85 -48.15 82.25 -47.75 82.0 M-65.25 169.5 L-64.15 172.25 -64.0 172.5 -63.9 173.0 -63.75 173.25 -63.4 175.0 -63.25 175.1 -63.4 175.5 -63.25 175.5 -63.9 177.85 -65.0 180.25 -65.15 180.5 -65.4 180.6 -67.9 182.6 -71.0 183.75 -73.65 183.85 -76.75 183.0 -78.15 182.0 -78.25 182.0 -79.0 181.25 -80.25 178.85 -80.4 178.35 -80.9 175.75 -80.75 173.1 -79.0 170.75 -78.75 170.6 -76.5 167.85 -73.5 167.25 -73.25 167.1 -72.9 167.1 -70.5 166.85 -70.15 166.85 -69.9 167.0 -69.25 167.1 -69.15 167.1 -67.15 167.5 -65.25 169.5 M49.75 184.25 L50.5 184.75 50.75 184.85 51.6 185.35 51.75 185.5 51.85 185.75 52.0 186.0 51.85 186.25 52.0 186.5 52.1 186.85 52.1 187.0 52.35 187.35 52.1 188.35 52.25 188.85 51.75 189.25 51.6 189.35 51.6 189.6 51.25 190.1 49.85 191.0 48.85 191.0 48.6 190.85 48.35 190.75 48.0 190.75 47.6 190.6 47.5 190.6 46.5 189.85 45.85 188.85 45.85 186.75 46.0 186.6 46.0 186.35 46.5 185.6 46.75 185.35 47.1 184.85 48.35 184.35 49.75 184.25 M-122.65 47.1 L-122.5 47.1 -122.25 47.25 -118.4 52.35 -119.0 56.25 -120.15 59.1 -121.25 59.75 -122.9 61.0 -123.15 61.1 -125.15 62.6 -128.9 62.75 -131.5 62.25 -132.0 62.1 -134.25 61.0 -135.4 60.25 -137.25 57.6 -137.5 56.6 -138.25 54.6 -138.5 51.85 -138.65 51.1 -138.15 50.25 -138.0 49.75 -137.9 49.0 -136.4 46.85 -136.4 46.75 -135.65 45.75 -132.9 44.85 -132.75 44.85 -131.0 44.35 -130.65 44.35 -126.4 45.35 -126.15 45.5 -125.9 45.5 -122.65 47.1 M-179.25 53.85 L-179.15 54.35 -179.15 55.1 -178.75 55.75 -178.65 56.25 -178.65 56.85 -178.9 57.75 -178.9 57.85 -179.15 58.25 -179.4 59.1 -180.5 59.75 -180.5 59.85 -181.25 60.25 -181.65 60.25 -182.25 60.5 -183.4 60.6 -184.25 60.25 -184.9 59.85 -185.75 59.5 -185.9 59.35 -186.65 58.0 -186.65 57.85 -187.0 56.5 -186.25 54.85 -186.15 54.5 -185.25 53.75 -184.65 53.35 -183.5 52.85 -182.9 52.75 -180.75 52.85 -180.25 53.1 -179.25 53.85 M176.0 64.6 L176.25 64.85 176.25 65.0 176.85 65.75 177.0 65.85 177.1 66.0 177.35 66.25 178.1 67.85 178.1 68.0 178.25 68.25 178.35 68.75 178.35 68.85 178.5 70.85 178.35 71.25 177.1 73.0 176.0 73.85 175.75 74.1 174.75 74.5 173.0 74.75 172.5 74.75 172.1 74.85 171.1 74.85 169.5 74.25 167.5 73.0 167.1 72.35 167.1 72.25 166.85 71.85 166.85 71.75 166.6 71.5 166.5 71.1 166.35 70.85 166.35 70.35 165.75 69.0 165.85 68.25 165.85 67.0 166.5 66.25 167.85 64.1 169.6 63.25 170.5 63.0 171.25 63.25 174.25 63.35 175.0 63.75 175.6 64.35 176.0 64.6 M156.35 196.85 L157.0 198.1 157.1 198.25 157.1 198.5 157.35 198.6 157.5 198.85 157.6 199.1 157.75 199.75 158.25 201.25 158.25 201.85 158.0 203.0 157.25 204.5 157.1 204.6 154.5 205.6 153.6 205.35 152.75 205.25 151.5 203.75 151.5 203.6 151.35 203.5 151.25 203.25 151.1 203.0 150.85 202.35 150.5 201.85 150.25 201.35 149.85 200.25 150.0 200.0 149.75 199.35 149.85 198.6 149.85 197.35 150.35 196.6 150.6 196.5 151.35 195.6 152.0 195.35 153.1 195.5 153.6 195.25 154.35 195.5 155.6 196.25 155.75 196.25 156.35 196.85" fill="#ffffff" fill-rule="evenodd" stroke="none"/>
  </g>
</svg>
