<?xml version="1.0" encoding="UTF-8" standalone="no"?>
<svg xmlns:xlink="http://www.w3.org/1999/xlink" height="527.25px" width="464.5px" xmlns="http://www.w3.org/2000/svg">
  <g transform="matrix(1.0, 0.0, 0.0, 1.0, 240.0, 317.4)">
    <path d="M154.6 -287.0 L156.75 -288.5 158.0 -289.0 159.1 -289.25 159.5 -289.4 160.35 -288.65 160.6 -288.65 160.85 -288.4 161.0 -288.4 162.35 -287.5 162.5 -287.25 162.75 -286.65 162.85 -286.25 163.25 -285.15 163.5 -282.5 163.35 -282.4 163.25 -282.25 163.35 -282.0 163.25 -281.65 163.1 -281.4 163.0 -281.0 162.85 -280.9 162.75 -280.4 162.5 -280.25 162.35 -279.9 162.35 -279.75 161.35 -278.65 161.35 -278.5 159.35 -277.0 158.1 -277.0 157.5 -277.15 157.25 -277.15 155.0 -277.9 153.85 -280.15 153.5 -281.9 153.5 -284.5 153.6 -284.75 154.1 -286.4 154.35 -286.75 154.6 -287.0 M114.1 -97.75 L114.25 -97.65 114.5 -97.4 114.5 -96.0 114.35 -95.65 114.1 -95.5 114.0 -95.25 114.0 -95.15 113.85 -95.0 113.6 -94.65 113.5 -94.15 112.5 -93.5 111.6 -93.4 111.1 -93.25 110.5 -93.4 109.75 -93.9 108.85 -94.9 108.75 -95.15 108.6 -95.4 108.6 -95.5 108.5 -95.75 108.5 -96.25 108.6 -96.65 108.6 -97.4 109.0 -98.25 109.1 -98.65 109.75 -99.4 111.1 -99.75 111.5 -99.75 112.25 -99.5 112.85 -99.4 113.0 -99.4 113.25 -99.25 113.35 -99.15 114.1 -98.25 114.1 -97.75 M-157.15 -317.15 L-155.0 -316.4 -153.65 -315.25 -153.5 -315.15 -153.25 -314.5 -153.25 -314.0 -153.15 -313.9 -153.0 -313.65 -153.0 -313.5 -152.9 -313.4 -152.9 -312.9 -152.5 -312.5 -152.5 -312.25 -152.4 -311.75 -152.5 -311.0 -153.0 -309.75 -153.5 -309.0 -154.25 -308.15 -156.0 -307.5 -156.25 -307.5 -157.5 -307.75 -157.65 -307.9 -157.75 -307.9 -157.9 -308.0 -158.0 -308.0 -160.65 -309.5 -160.75 -310.25 -161.5 -311.5 -162.0 -312.75 -162.0 -313.9 -161.5 -314.9 -160.25 -316.65 -160.15 -317.0 -158.65 -317.4 -157.15 -317.15 M-239.4 -306.65 L-237.5 -306.15 -236.25 -305.0 -236.0 -304.65 -235.9 -304.65 -236.0 -304.5 -235.65 -304.25 -235.4 -304.0 -235.4 -303.75 -235.0 -303.25 -234.9 -303.15 -234.75 -302.65 -234.5 -301.4 -234.5 -300.25 -235.15 -299.25 -235.15 -299.0 -235.5 -298.75 -235.9 -298.0 -236.65 -297.5 -237.25 -297.25 -237.4 -297.15 -237.75 -297.0 -239.75 -297.0 -240.0 -297.15 -239.9 -301.65 -240.0 -302.4 -240.0 -306.25 -239.4 -306.65 M-175.75 -117.0 L-174.65 -116.9 -174.0 -117.0 -173.75 -116.75 -173.65 -116.75 -173.15 -116.4 -172.75 -115.9 -172.5 -115.75 -172.25 -115.5 -172.25 -114.75 -172.15 -114.5 -172.0 -114.5 -172.0 -114.15 -171.9 -114.15 -171.9 -113.65 -172.0 -113.15 -172.0 -112.75 -172.4 -112.15 -172.65 -111.9 -172.75 -111.9 -173.0 -111.75 -173.5 -111.75 -173.5 -111.65 -174.5 -111.75 -175.65 -112.15 -176.65 -113.25 -176.65 -113.4 -176.75 -113.65 -176.75 -113.75 -177.0 -114.4 -177.0 -114.75 -176.9 -115.25 -176.9 -115.5 -176.75 -116.15 -176.5 -116.4 -175.75 -117.0 M-122.65 14.5 L-122.25 14.35 -121.25 14.5 -120.4 14.35 -120.15 14.5 -119.9 14.6 -118.75 15.25 -118.65 15.25 -117.75 16.1 -117.5 17.6 -117.9 19.0 -118.25 19.75 -119.9 21.1 -120.0 21.25 -120.5 21.25 -120.9 21.35 -121.9 21.5 -123.0 21.25 -123.9 20.5 -124.65 19.6 -124.65 19.5 -124.75 19.35 -124.9 19.25 -125.0 19.0 -125.15 18.75 -125.15 18.25 -125.4 18.1 -125.15 17.0 -125.15 16.75 -124.9 16.35 -124.4 15.75 -124.25 15.6 -123.5 15.0 -122.65 14.5 M37.0 -117.9 L38.6 -117.9 39.1 -117.65 39.25 -117.5 39.5 -117.0 39.6 -117.0 40.25 -116.15 40.25 -115.25 40.1 -115.0 39.85 -114.9 39.85 -114.75 39.75 -114.65 39.6 -114.0 39.5 -113.9 39.35 -113.65 38.35 -112.75 38.0 -112.5 37.0 -112.15 36.75 -112.0 36.0 -112.25 35.75 -112.4 35.35 -112.5 34.5 -112.9 34.35 -113.5 34.35 -113.65 34.25 -113.75 34.35 -114.5 34.25 -114.9 34.35 -115.15 34.5 -115.75 34.75 -116.25 35.35 -116.75 35.75 -117.25 36.0 -117.5 36.35 -117.75 36.85 -117.75 37.0 -117.9 M-76.75 65.5 L-74.75 65.85 -74.25 66.35 -73.75 67.0 -73.25 67.35 -73.15 67.75 -72.25 69.0 -72.25 69.1 -72.0 69.6 -71.15 72.5 -71.5 74.25 -71.5 74.75 -71.65 74.85 -71.65 75.25 -72.25 77.5 -72.5 78.1 -73.25 78.35 -73.25 78.5 -73.65 78.6 -73.65 78.75 -73.75 78.85 -74.75 80.1 -77.15 80.35 -77.5 80.1 -79.5 78.25 -79.65 78.0 -80.65 77.0 -80.9 76.1 -81.0 75.85 -81.15 75.6 -81.25 75.35 -81.5 74.25 -81.5 73.75 -81.9 72.6 -81.9 72.25 -82.0 71.35 -81.9 69.5 -81.5 68.85 -81.5 68.6 -81.4 68.35 -81.25 67.75 -80.9 67.0 -78.75 65.6 -77.65 65.1 -77.4 65.25 -77.15 65.35 -77.0 65.5 -76.75 65.5 M-44.9 88.1 L-44.15 88.35 -43.9 88.5 -43.9 88.85 -43.65 89.0 -43.15 89.75 -43.15 89.85 -43.0 90.1 -42.75 90.85 -43.25 92.0 -43.9 92.5 -44.0 92.6 -44.4 93.1 -45.4 93.6 -46.4 93.75 -46.65 93.6 -47.4 93.25 -47.75 92.85 -47.9 92.5 -48.4 91.75 -48.15 89.75 -47.65 89.1 -47.4 88.85 -46.9 88.1 -44.9 88.1 M-75.5 178.1 L-75.4 178.0 -75.0 177.85 -73.25 175.5 -70.25 174.75 -67.5 174.5 -66.9 174.5 -66.65 174.6 -66.4 174.6 -64.25 175.0 -62.5 176.85 -61.4 179.5 -61.4 179.6 -61.25 179.85 -61.15 180.25 -61.0 180.5 -60.9 180.75 -60.9 180.85 -60.65 182.1 -60.5 182.35 -60.65 182.75 -60.5 182.75 -61.15 185.1 -62.15 187.35 -65.0 189.6 -67.9 190.6 -70.4 190.75 -73.5 189.85 -74.65 189.0 -74.9 188.85 -75.5 188.35 -76.5 186.5 -76.75 185.85 -77.25 183.1 -77.25 180.5 -75.5 178.1 M50.25 189.5 L50.35 189.6 50.5 190.0 50.75 191.1 50.75 191.6 50.85 191.75 50.75 192.0 50.5 193.0 50.25 193.35 50.25 193.6 50.0 194.0 49.75 194.25 49.6 194.25 49.1 194.5 48.75 194.85 48.5 195.0 47.75 195.0 47.35 194.85 46.75 194.75 46.6 194.75 46.35 194.6 46.1 194.5 45.25 193.85 44.6 192.85 44.6 190.85 44.75 190.6 44.85 190.35 45.25 189.6 45.6 189.6 46.0 188.85 46.85 188.6 47.25 188.35 48.35 188.35 49.6 189.25 50.25 189.5 M-117.75 62.75 L-117.5 63.0 -115.4 64.0 -115.25 64.0 -113.4 66.25 -113.0 67.0 -111.65 68.6 -111.9 69.0 -112.25 72.6 -113.25 74.6 -113.25 75.0 -113.65 75.25 -113.65 75.35 -114.5 76.0 -115.4 76.35 -115.4 76.5 -115.5 76.6 -115.9 76.85 -116.0 77.0 -117.9 78.5 -118.65 78.75 -121.9 78.6 -122.15 78.5 -124.4 78.1 -126.15 77.25 -126.4 77.1 -126.75 77.0 -127.5 76.5 -129.4 73.85 -129.65 73.25 -130.25 71.1 -130.5 68.6 -130.5 68.0 -130.15 67.1 -130.25 67.0 -130.0 65.6 -128.4 63.35 -127.75 62.6 -125.15 61.75 -123.4 61.5 -122.75 61.5 -122.25 61.6 -121.65 61.6 -119.25 62.25 -119.0 62.35 -118.5 62.35 -117.75 62.75 M-180.65 64.0 L-180.25 63.35 -179.25 62.5 -179.0 62.35 -177.75 61.75 -175.5 61.75 -174.75 61.85 -173.75 62.75 -173.5 63.25 -173.4 63.85 -173.25 64.35 -173.25 64.6 -173.0 65.1 -173.25 65.75 -173.15 65.75 -173.25 66.5 -173.5 66.85 -173.4 66.85 -173.9 67.85 -174.75 68.35 -175.0 68.6 -175.9 68.85 -176.25 69.1 -176.4 69.1 -176.75 69.25 -177.75 69.35 -178.65 68.85 -178.75 68.75 -179.0 68.6 -180.15 68.1 -180.9 66.75 -180.9 66.6 -181.25 65.35 -180.65 64.0 M-235.75 106.35 L-234.5 106.5 -232.65 108.5 -232.65 108.6 -232.0 110.6 -232.15 110.85 -232.15 111.0 -232.4 111.75 -232.75 113.35 -233.0 113.6 -234.75 115.0 -235.0 115.1 -235.25 115.25 -235.5 115.35 -235.9 115.35 -235.9 115.5 -236.15 115.6 -236.25 115.6 -237.5 115.85 -238.9 115.5 -239.4 115.5 -239.5 115.1 -239.9 114.75 -239.9 113.6 -240.0 113.35 -239.9 111.25 -240.0 110.35 -240.0 107.75 -239.65 107.6 -238.65 107.0 -236.75 106.35 -235.75 106.35 M224.0 38.25 L224.0 38.5 224.1 38.5 224.0 38.6 224.0 38.75 224.35 39.5 224.35 39.6 224.5 40.0 224.35 40.25 224.5 40.25 224.25 41.0 224.25 41.1 224.0 41.5 224.0 41.6 223.85 41.85 224.0 41.85 223.75 42.0 223.35 42.5 223.1 42.75 221.6 43.85 219.35 43.85 217.85 43.6 217.0 42.75 216.6 42.25 216.6 42.1 216.5 42.0 216.1 40.75 216.0 40.0 216.0 39.5 216.35 38.5 216.35 38.1 217.75 37.1 218.1 37.0 219.25 36.35 220.35 36.1 220.75 36.1 223.0 37.1 223.75 38.0 224.0 38.25 M167.6 73.0 L167.85 73.1 168.0 73.1 169.0 73.6 169.85 74.5 170.5 75.0 170.5 75.25 171.35 76.25 171.85 77.6 171.85 78.0 172.1 78.1 172.1 79.25 172.25 80.0 172.1 80.5 172.1 80.6 171.85 80.85 171.85 81.0 170.85 82.5 169.75 83.35 169.35 83.6 168.35 83.85 166.6 84.1 166.0 84.25 165.5 84.25 164.0 83.85 163.75 83.75 161.6 82.35 161.5 82.25 161.35 82.0 161.35 81.85 161.1 81.6 161.0 81.35 160.85 81.1 160.5 80.35 160.5 79.85 159.85 78.5 160.0 77.85 160.1 76.5 160.6 75.85 161.75 73.85 163.75 72.85 164.1 72.75 164.75 72.75 165.25 72.85 165.5 73.0 167.6 73.0 M150.75 201.0 L151.1 201.35 151.25 201.6 151.5 201.85 151.5 202.0 151.85 202.5 151.85 202.75 152.0 203.0 152.1 203.25 152.25 203.25 152.1 203.35 152.25 203.5 152.25 203.75 152.35 203.85 152.35 204.0 152.5 204.6 153.1 205.85 153.1 206.25 152.75 207.6 152.1 208.75 152.0 209.0 150.6 209.6 149.35 209.85 148.5 209.75 147.6 209.5 146.5 208.1 146.5 208.0 146.35 207.85 146.25 207.6 146.1 207.35 145.75 206.6 145.6 206.35 145.6 206.25 145.25 205.75 145.25 205.35 145.0 204.85 145.1 204.6 144.85 204.35 144.85 203.85 145.0 203.1 145.0 202.0 145.35 201.6 145.35 201.35 146.5 200.25 146.85 200.1 148.1 199.85 148.35 199.85 148.6 200.0 148.75 200.0 149.5 200.25 149.6 200.35 150.6 201.0 150.75 201.0" fill="#ffffff" fill-rule="evenodd" stroke="none"/>
  </g>
</svg>
