<?xml version="1.0" encoding="UTF-8" standalone="no"?>
<svg xmlns:xlink="http://www.w3.org/1999/xlink" height="518.1px" width="456.65px" xmlns="http://www.w3.org/2000/svg">
  <g transform="matrix(1.0, 0.0, 0.0, 1.0, 238.4, 304.0)">
    <path d="M157.1 -273.65 L157.5 -273.5 158.6 -272.65 158.75 -272.65 158.6 -272.4 158.6 -272.25 158.85 -272.15 159.35 -270.65 159.35 -270.15 159.6 -268.25 159.6 -267.65 159.35 -267.5 159.35 -267.0 159.25 -266.65 159.1 -266.5 158.6 -265.4 157.6 -264.25 157.6 -264.15 157.5 -264.0 155.75 -262.65 153.6 -262.75 153.35 -262.9 151.5 -263.5 150.6 -264.9 150.25 -265.65 150.35 -265.9 149.85 -267.9 150.0 -269.75 150.0 -270.25 150.1 -270.65 150.5 -271.75 150.75 -272.15 154.1 -274.4 155.35 -274.5 155.75 -274.65 Q156.2 -274.25 156.6 -273.9 L156.85 -273.9 157.1 -273.65 M108.35 -88.9 L108.6 -89.0 109.0 -88.9 109.6 -88.9 110.25 -88.5 110.5 -88.4 111.25 -87.5 111.35 -87.0 111.5 -86.9 111.5 -86.65 111.6 -86.5 111.5 -86.0 111.6 -85.75 111.6 -85.25 111.5 -85.15 111.5 -84.75 111.35 -84.65 111.1 -84.4 111.25 -84.25 110.85 -84.0 110.75 -83.5 109.75 -82.9 109.35 -82.75 108.35 -82.75 108.1 -82.65 107.85 -82.75 107.0 -83.25 106.25 -84.15 106.1 -84.25 105.85 -84.9 105.75 -85.4 105.75 -85.5 105.85 -86.5 106.25 -87.4 106.35 -87.9 107.0 -88.5 107.35 -88.75 108.35 -88.9 M-154.0 -303.75 L-153.65 -303.75 -152.15 -303.25 -151.75 -303.0 -150.5 -302.0 -150.25 -301.5 -150.25 -301.0 -150.15 -300.9 -149.75 -300.25 -149.75 -299.9 -149.5 -299.65 -149.5 -299.4 -149.4 -298.9 -149.4 -298.0 -150.0 -296.75 -150.25 -296.5 -150.25 -296.15 -150.4 -295.9 -151.25 -295.15 -151.9 -294.9 -152.15 -294.75 -152.5 -294.65 -152.65 -294.65 -152.9 -294.5 -153.0 -294.5 -154.4 -294.9 -154.5 -294.9 -154.75 -295.0 -154.9 -295.0 -155.15 -295.15 -155.9 -295.5 -156.25 -295.75 -157.0 -296.15 -157.5 -297.15 -157.9 -297.75 -158.75 -299.5 -158.75 -300.75 -157.0 -303.4 -156.9 -303.75 -155.4 -304.0 -154.0 -303.75 M-237.65 -287.15 L-237.65 -287.4 -236.5 -288.65 -234.9 -289.0 -232.9 -289.15 -232.65 -289.15 -231.15 -288.75 -230.0 -287.75 -229.9 -287.75 -229.4 -287.15 -228.65 -286.0 -228.5 -285.65 -228.5 -285.5 -228.25 -284.25 -228.25 -283.15 -228.9 -282.25 -228.9 -282.0 -229.15 -281.75 -229.0 -281.75 -229.25 -281.65 -229.25 -281.4 -230.15 -280.5 -230.4 -280.5 -231.5 -280.0 -233.65 -280.0 -233.9 -280.15 -235.5 -280.5 -236.65 -281.5 -237.9 -283.0 -238.4 -284.5 -238.25 -285.4 -238.25 -286.25 -237.65 -287.15 M-168.5 -105.4 L-168.5 -105.15 -168.4 -104.9 -168.4 -104.65 -168.25 -104.4 -168.25 -104.15 -168.0 -103.65 -168.4 -103.25 -168.25 -102.75 -168.65 -102.15 -169.4 -101.75 -170.4 -101.75 -170.75 -101.9 -171.65 -102.15 -172.15 -102.65 -172.15 -102.75 -172.4 -102.9 -172.65 -103.15 -172.65 -103.25 -172.75 -103.5 -172.9 -103.75 -173.25 -103.9 -172.9 -103.9 -173.15 -104.75 -173.0 -105.25 -172.9 -106.0 -172.0 -106.9 -171.75 -106.9 -170.9 -107.15 -170.25 -107.0 -169.9 -106.5 -169.25 -106.25 -169.0 -105.9 -168.75 -105.75 -168.5 -105.4 M-120.4 25.85 L-119.5 25.1 -118.9 24.75 -118.4 24.6 -117.4 24.5 -117.0 24.5 -116.15 24.75 -115.5 25.25 -115.0 25.35 -114.0 26.35 -114.15 27.35 -113.9 27.75 -114.25 28.5 -114.25 29.25 -114.65 29.85 -116.15 31.25 -116.65 31.25 -118.0 31.5 -119.25 31.25 -120.15 30.5 -120.75 29.6 -120.75 29.5 -120.9 29.35 -121.15 29.0 -121.4 28.25 -121.15 27.6 -121.25 27.1 -121.15 26.85 -121.0 26.6 -120.75 26.35 -120.4 25.85 M38.75 -106.65 L38.75 -106.4 39.35 -105.0 39.0 -104.75 39.1 -104.4 38.85 -104.25 38.75 -104.15 38.75 -103.9 38.5 -103.65 38.5 -103.5 37.75 -102.75 37.5 -102.65 37.1 -102.4 36.1 -102.0 35.25 -102.15 35.1 -102.15 35.0 -102.25 34.85 -102.25 33.85 -102.65 33.5 -103.4 33.5 -104.75 33.75 -105.5 34.0 -106.0 34.5 -106.5 35.0 -107.15 35.1 -107.15 35.75 -107.5 36.0 -107.5 36.5 -107.65 37.1 -107.75 37.35 -107.65 37.5 -107.5 38.35 -107.25 38.5 -106.75 38.75 -106.65 M-69.65 78.5 L-69.65 78.6 -68.65 81.6 -69.15 83.25 -69.0 83.6 -69.25 84.0 -69.15 84.0 -69.25 84.6 -69.25 84.75 -69.9 86.5 -70.0 87.0 -71.15 87.5 -71.0 87.6 -72.25 89.0 -74.4 89.1 -74.9 89.0 -76.75 87.25 -76.9 87.0 -77.9 85.85 -78.15 85.1 -78.4 84.75 -78.5 84.5 -78.65 83.5 -78.65 83.25 -79.0 82.1 -79.0 81.85 -79.15 81.6 -79.25 79.85 -79.15 78.75 -78.75 78.1 -78.75 78.0 -78.65 77.75 -78.65 77.6 -78.5 77.0 -78.5 76.85 -78.15 76.25 -76.25 75.0 -75.15 74.5 -74.9 74.5 -74.5 74.75 -74.25 74.75 -72.25 75.1 -71.75 75.6 -69.65 78.5 M-44.25 94.0 L-43.9 94.1 -43.65 94.1 -43.15 94.25 -42.5 94.85 -42.15 95.5 -42.15 95.6 -41.75 96.75 -42.15 97.75 -42.9 98.35 -42.75 98.5 -43.4 99.0 -44.75 99.5 -45.4 99.5 -46.25 99.1 -46.65 98.75 -46.75 98.35 -47.25 97.6 -47.0 96.75 -47.15 96.0 -46.75 95.6 -46.75 95.5 -46.4 94.85 -46.25 94.75 -45.9 94.35 -45.5 94.1 -45.15 94.1 -44.65 94.0 -44.25 94.0 M-64.0 181.75 L-63.75 181.85 -63.65 181.85 -61.4 182.25 -59.65 184.1 -58.5 187.0 -58.5 187.1 -58.4 187.5 -58.25 187.75 -57.9 189.6 -58.15 189.85 -58.5 192.0 -59.4 193.75 -60.0 194.6 -62.15 196.25 -64.9 197.25 -67.25 197.35 -70.15 196.6 -71.25 195.75 -71.5 195.6 -72.25 195.0 -73.15 193.25 -73.25 193.1 -73.4 192.75 -73.75 190.6 -73.9 190.0 -73.75 187.6 -72.25 185.25 -71.75 185.1 -70.0 182.75 -67.25 182.1 -67.0 182.0 -66.65 182.0 -64.5 181.75 -64.0 181.75 M43.35 195.6 L43.5 195.35 43.5 194.6 43.6 194.35 44.0 193.6 44.35 193.5 44.75 192.85 45.75 192.5 46.0 192.35 47.0 192.35 47.85 192.85 48.85 193.6 49.1 193.6 49.1 193.75 49.25 194.0 49.1 194.25 49.25 194.5 49.35 195.0 49.35 195.1 49.6 195.35 49.5 195.75 49.5 196.1 49.25 196.85 48.85 197.25 48.85 197.5 48.1 198.25 47.25 198.75 46.25 198.75 45.85 198.6 45.6 198.6 45.0 198.35 44.1 197.75 43.75 197.25 43.5 196.75 43.35 195.75 43.35 195.6 M-111.75 78.1 L-108.9 79.5 -108.4 79.6 -106.75 82.25 -105.4 83.85 -105.65 84.25 -106.0 87.75 -106.9 89.5 -107.0 89.85 -107.25 90.25 -108.9 91.25 -109.65 92.0 -111.25 93.25 -114.65 93.35 -115.65 93.25 -117.5 92.85 -118.15 92.5 -118.25 92.5 -118.5 92.35 -118.75 92.25 -120.4 91.35 -122.0 89.1 -122.9 86.35 -123.15 84.0 -123.15 83.5 -122.75 82.75 -122.65 81.1 -121.25 79.1 -121.25 79.0 -120.65 78.25 -118.15 77.5 -116.9 77.35 -114.65 77.35 -113.0 77.75 -112.9 77.75 -111.75 78.1 M-168.25 71.35 L-167.9 72.75 -167.75 72.85 -167.75 73.75 -168.0 74.85 -168.15 75.1 -168.25 75.35 -168.15 75.35 -168.5 76.1 -169.5 76.75 -169.75 77.0 -170.4 77.1 -170.5 77.25 -171.15 77.5 -172.25 77.6 -173.25 77.1 -173.4 77.0 -174.5 76.5 -175.15 75.35 -175.25 75.1 -175.65 73.75 -175.4 73.35 -174.75 71.85 -173.75 71.0 -173.5 70.85 -172.25 70.25 -171.9 70.25 -170.75 70.1 -170.15 70.25 -169.4 70.25 -168.25 71.35 M-225.15 116.0 L-224.5 116.5 -224.25 117.0 -223.75 119.0 -224.15 119.85 -224.5 121.5 -225.9 122.75 -226.0 122.75 -226.75 123.25 -227.0 123.35 -227.4 123.35 -227.65 123.6 -227.75 123.6 -229.0 123.85 -230.4 123.5 -231.9 122.25 -232.5 121.1 -232.65 120.5 -232.65 120.25 -232.75 119.75 -232.75 119.6 -232.65 119.0 -232.65 118.35 -232.4 117.25 -231.15 116.0 -230.65 115.6 -229.65 115.1 -228.25 114.75 -228.0 114.6 -227.0 114.6 -226.4 114.75 -226.15 114.75 -225.15 116.0 M217.35 46.25 L218.0 47.35 218.0 47.5 218.1 47.85 218.1 48.25 218.25 48.25 218.25 48.5 217.85 49.75 217.6 50.1 217.75 50.1 217.5 50.25 216.75 51.1 215.5 52.1 213.25 52.1 211.85 51.85 211.35 51.5 211.1 51.25 210.5 50.35 210.35 50.0 210.35 49.6 210.1 49.1 210.0 48.35 210.0 47.85 210.25 46.75 210.35 46.5 211.6 46.0 211.6 45.6 212.25 45.35 213.1 44.85 214.5 44.5 216.35 45.35 216.5 45.35 216.75 45.5 216.85 45.75 217.35 46.1 217.35 46.25 M165.85 86.85 L165.85 87.0 166.0 87.35 166.1 87.85 166.1 89.5 165.85 90.0 164.85 91.5 163.0 92.85 161.1 93.0 160.75 93.0 160.5 93.1 159.75 93.1 159.75 93.25 158.6 93.0 158.35 92.85 158.1 92.75 157.35 92.35 156.1 91.35 156.0 91.35 155.85 91.25 155.6 90.85 155.1 89.75 154.85 89.35 154.75 88.85 154.75 88.6 154.35 87.6 154.35 87.0 154.5 85.75 155.0 85.25 156.1 83.1 158.0 82.1 158.85 82.0 159.25 82.1 159.35 82.25 160.75 82.25 161.35 82.35 162.25 82.35 162.85 82.75 164.0 83.75 164.1 84.0 164.5 84.25 164.5 84.5 165.25 85.35 165.85 86.85 M146.35 206.1 L146.85 207.1 147.1 207.5 147.25 207.6 147.35 207.85 147.5 208.1 147.6 208.35 147.6 208.75 147.85 209.25 148.1 210.1 148.1 210.5 147.85 211.75 147.1 213.1 147.0 213.25 146.0 213.75 145.85 213.75 145.6 213.85 145.5 213.85 144.5 214.1 143.5 213.85 142.85 213.6 142.0 212.75 141.75 212.35 141.75 212.25 140.85 210.5 140.6 210.1 140.35 209.35 140.25 208.75 140.25 207.1 140.35 207.1 140.35 206.5 140.75 206.0 141.0 205.5 141.75 204.75 142.1 204.5 142.6 204.5 143.35 204.35 143.6 204.35 144.75 204.75 144.85 204.75 145.85 205.5 146.1 205.75 146.25 205.85 146.35 206.1" fill="#ffffff" fill-rule="evenodd" stroke="none"/>
  </g>
</svg>
