<?xml version="1.0" encoding="UTF-8" standalone="no"?>
<svg xmlns:xlink="http://www.w3.org/1999/xlink" height="161.0px" width="222.75px" xmlns="http://www.w3.org/2000/svg">
  <g transform="matrix(1.0, 0.0, 0.0, 1.0, 111.35, 80.5)">
    <path d="M31.65 -58.5 L37.65 -47.5 55.65 -43.5 56.65 -34.5 64.65 -31.5 64.65 -37.5 72.65 -42.5 81.65 -50.5 90.65 -46.5 98.65 -43.5 Q100.35 -38.25 102.45 -25.4 104.4 -13.4 106.65 -7.5 111.45 7.9 111.4 17.85 111.35 27.6 106.65 31.5 L87.65 31.5 71.65 41.5 61.65 33.5 37.65 40.5 37.65 47.5 71.65 64.5 68.65 80.5 12.65 68.5 7.65 61.5 Q-1.15 59.95 -5.55 53.65 -9.95 47.3 -8.35 36.5 -13.4 35.9 -19.6 33.85 -25.3 32.0 -30.35 29.5 -48.05 22.15 -63.35 37.5 -67.8 34.9 -80.2 33.25 -91.4 31.7 -93.35 29.5 -102.55 35.7 -111.35 36.5 -107.25 28.95 -100.05 23.75 -92.7 18.45 -83.35 16.5 -82.45 11.7 -80.35 8.55 -78.2 5.3 -74.05 2.55 -65.6 -3.0 -50.35 -6.5 -53.1 -10.45 -58.2 -15.6 L-66.1 -23.7 Q-74.4 -33.1 -72.35 -42.5 -79.05 -50.0 -78.35 -58.5 L-88.35 -71.5 -68.35 -70.5 -54.35 -80.5 -23.35 -72.5 -14.35 -74.5 -3.35 -67.5 2.65 -67.5 16.65 -59.5 31.65 -58.5" fill="#ffffff" fill-opacity="0.0" fill-rule="evenodd" stroke="none"/>
  </g>
</svg>
