<?xml version="1.0" encoding="UTF-8" standalone="no"?>
<svg xmlns:xlink="http://www.w3.org/1999/xlink" height="195.5px" width="287.5px" xmlns="http://www.w3.org/2000/svg">
  <g transform="matrix(1.0, 0.0, 0.0, 1.0, 143.75, 97.75)">
    <path d="M42.75 -86.25 Q31.3 -86.35 21.75 -84.25 L35.75 -73.25 47.75 -70.25 60.75 -68.25 79.75 -64.25 82.75 -60.25 89.75 -56.25 101.75 -54.25 105.75 -49.25 105.75 -43.25 115.75 -30.25 Q115.05 -21.75 121.75 -14.25 119.7 -4.85 128.0 4.55 L135.9 12.65 Q141.0 17.8 143.75 21.75 128.5 25.25 120.05 30.8 115.9 33.55 113.75 36.8 111.65 39.95 110.75 44.75 101.4 46.7 94.05 52.0 86.85 57.2 82.75 64.75 78.9 66.75 71.9 74.45 65.25 81.85 60.75 83.75 55.8 85.85 52.75 87.75 48.6 90.35 45.75 93.75 32.2 92.3 21.8 93.1 10.4 94.0 -0.25 97.75 L-26.25 89.75 -36.25 63.75 -32.25 55.75 -34.25 51.75 Q-56.1 58.95 -80.25 70.75 L-89.25 78.75 -114.25 78.75 -120.25 73.75 -136.25 70.75 -143.75 69.25 -143.75 -97.75 68.25 -97.75 Q64.15 -95.55 62.1 -93.2 59.85 -90.55 59.75 -87.25 52.35 -82.75 42.75 -86.25" fill="#ffffff" fill-opacity="0.0" fill-rule="evenodd" stroke="none"/>
  </g>
</svg>
