<?xml version="1.0" encoding="UTF-8" standalone="no"?>
<svg xmlns:xlink="http://www.w3.org/1999/xlink" height="141.0px" width="166.0px" xmlns="http://www.w3.org/2000/svg">
  <g transform="matrix(1.0, 0.0, 0.0, 1.0, 83.0, 70.5)">
    <path d="M37.0 -64.5 L52.0 -48.5 83.0 -32.5 77.0 -22.5 49.0 -10.5 35.0 1.5 52.0 17.5 39.0 23.5 26.0 27.5 19.0 27.5 15.0 41.5 35.0 70.5 Q20.45 63.4 7.25 60.0 -5.8 56.6 -18.0 57.5 L-13.0 51.5 Q-45.85 41.9 -67.0 15.5 -55.0 14.7 -43.0 17.5 -52.95 2.15 -64.0 -1.5 -72.2 -11.25 -83.0 -16.5 L-80.0 -20.5 Q-59.4 -18.4 -51.7 -24.5 -43.45 -31.1 -51.0 -46.5 -52.4 -49.35 -47.6 -54.7 -43.35 -59.55 -38.0 -62.5 -35.65 -62.05 -31.25 -59.5 L-20.0 -52.5 -11.9 -58.2 Q-6.95 -61.35 -3.0 -62.5 L-13.0 -66.5 Q-12.25 -68.95 -9.0 -70.5 L19.0 -64.5 Q29.7 -58.6 37.0 -64.5" fill="#ffffff" fill-opacity="0.0" fill-rule="evenodd" stroke="none"/>
  </g>
</svg>
