<?xml version="1.0" encoding="UTF-8" standalone="no"?>
<svg xmlns:xlink="http://www.w3.org/1999/xlink" height="553.45px" width="504.25px" xmlns="http://www.w3.org/2000/svg">
  <g transform="matrix(1.0, 0.0, 0.0, 1.0, 252.15, 276.25)">
    <path d="M55.0 -248.8 Q70.25 -230.95 85.0 -207.0 99.05 -184.1 105.65 -161.8 112.3 -139.2 111.45 -116.25 110.65 -92.7 100.6 -72.75 91.6 -55.05 73.35 -36.65 47.9 -10.8 0.15 0.9 L0.15 1.15 Q12.7 7.1 27.35 10.0 72.75 18.95 111.3 -6.75 129.0 -18.65 141.3 -37.1 150.95 -51.65 161.7 -77.75 168.35 -94.3 173.25 -110.9 176.6 -122.3 180.55 -139.4 L252.1 -116.55 Q252.55 -101.2 243.65 -76.2 235.85 -54.05 222.45 -29.35 209.7 -5.7 193.65 11.15 177.4 28.2 157.1 38.95 136.35 50.0 114.0 51.3 94.15 52.4 69.15 45.75 34.1 36.7 0.15 1.3 1.4 14.7 6.05 28.35 21.0 72.2 62.6 92.75 81.8 102.2 104.0 103.65 121.45 104.75 149.45 100.95 167.15 98.5 184.05 94.4 195.6 91.6 212.45 86.45 L228.45 159.95 Q215.35 168.1 189.2 172.9 166.1 177.15 137.9 178.0 110.95 178.7 88.35 173.25 65.4 167.7 45.9 155.5 25.9 143.0 13.6 124.25 2.75 107.6 -4.1 82.5 -13.7 47.65 -0.1 0.6 L-0.15 0.15 Q-11.65 8.05 -21.55 19.3 -52.0 54.15 -49.0 100.35 -47.55 121.65 -37.75 141.55 -29.95 157.2 -12.7 179.5 -1.75 193.55 10.2 206.1 18.4 214.7 31.25 226.7 L-24.3 277.2 Q-37.85 269.95 -55.05 249.75 -70.3 231.9 -85.05 207.95 -99.1 185.05 -105.7 162.75 -112.35 140.15 -111.5 117.2 -110.7 93.65 -100.65 73.7 -91.65 56.0 -73.4 37.6 -47.95 11.75 -0.15 0.05 L-0.2 -0.15 Q-12.75 -6.15 -27.4 -9.05 -72.8 -18.0 -111.35 7.7 -129.05 19.6 -141.35 38.05 -151.0 52.6 -161.75 78.7 -168.4 95.25 -173.3 111.85 -176.65 123.25 -180.6 140.35 L-252.15 117.5 Q-252.6 102.15 -243.7 77.15 -235.9 55.0 -222.5 30.3 -209.75 6.65 -193.7 -10.2 -177.45 -27.25 -157.15 -38.0 -136.4 -49.05 -114.05 -50.35 -94.2 -51.45 -69.2 -44.8 -34.15 -35.75 -0.2 -0.3 -1.45 -13.7 -6.1 -27.4 -21.05 -71.25 -62.65 -91.8 -81.85 -101.25 -104.05 -102.7 -121.5 -103.8 -149.5 -100.0 -167.2 -97.55 -184.1 -93.45 -195.65 -90.65 -212.5 -85.5 L-228.5 -159.0 Q-215.4 -167.15 -189.25 -171.95 -166.15 -176.2 -137.95 -177.05 -111.0 -177.75 -88.4 -172.3 -65.45 -166.75 -45.95 -154.55 -25.95 -142.05 -13.65 -123.3 -2.8 -106.65 4.05 -81.55 13.65 -46.7 0.1 0.4 L0.15 0.85 Q11.6 -7.1 21.5 -18.35 51.95 -53.2 48.95 -99.4 47.5 -120.7 37.7 -140.6 29.9 -156.25 12.65 -178.55 1.7 -192.6 -10.25 -205.15 -18.45 -213.75 -31.3 -225.75 L24.25 -276.25 Q37.8 -269.0 55.0 -248.8" fill="#339900" fill-rule="evenodd" stroke="none"/>
  </g>
</svg>
