<?xml version="1.0" encoding="UTF-8" standalone="no"?>
<svg xmlns:xlink="http://www.w3.org/1999/xlink" height="27.95px" width="12.35px" xmlns="http://www.w3.org/2000/svg">
  <g transform="matrix(1.0, 0.0, 0.0, 1.0, 5.9, 15.85)">
    <path d="M5.55 -0.75 L5.2 1.0 Q4.35 1.7 2.55 1.5 -0.05 1.2 -2.1 0.0 L-2.15 -0.1 Q-2.4 -2.05 -3.2 -2.65 -4.75 -3.65 -5.2 -4.8 -5.45 -5.5 -5.35 -6.45 L-4.8 -9.05 -3.55 -11.55 -1.65 -14.4 Q-0.8 -15.35 0.15 -15.35 1.05 -15.35 1.95 -14.35 L3.95 -11.4 5.3 -8.55 5.9 -5.85 5.95 -3.6 5.55 -0.75 M4.2 3.95 L2.65 7.8 1.55 10.75 Q1.05 11.6 0.15 11.6 -0.75 11.6 -1.5 10.05 L-2.5 7.1 -2.95 5.15 -2.9 3.35 Q-2.4 2.65 -2.15 1.65 L-0.6 1.5 1.4 1.95 2.9 2.75 4.35 3.6 4.2 3.95" fill="#000000" fill-rule="evenodd" stroke="none"/>
    <path d="M5.55 -0.75 L5.2 1.0 Q4.35 1.7 2.55 1.5 -0.05 1.2 -2.1 0.0 L-2.15 -0.1 Q-2.4 -2.05 -3.2 -2.65 -4.75 -3.65 -5.2 -4.8 -5.45 -5.5 -5.35 -6.45 L-4.8 -9.05 -3.55 -11.55 -1.65 -14.4 Q-0.8 -15.35 0.15 -15.35 1.05 -15.35 1.95 -14.35 L3.95 -11.4 5.3 -8.55 5.9 -5.85 5.95 -3.6 5.55 -0.75 M4.2 3.95 L2.65 7.8 1.55 10.75 Q1.05 11.6 0.15 11.6 -0.75 11.6 -1.5 10.05 L-2.5 7.1 -2.95 5.15 -2.9 3.35 Q-2.4 2.65 -2.15 1.65 L-0.6 1.5 1.4 1.95 2.9 2.75 4.35 3.6 4.2 3.95" fill="none" stroke="#000000" stroke-linecap="round" stroke-linejoin="round" stroke-width="1.0"/>
  </g>
</svg>
