<?xml version="1.0" encoding="UTF-8" standalone="no"?>
<svg xmlns:xlink="http://www.w3.org/1999/xlink" height="794.35px" width="517.6px" xmlns="http://www.w3.org/2000/svg">
  <g transform="matrix(1.0, 0.0, 0.0, 1.0, -23.8, 4.2)">
    <path d="M31.6 777.2 Q28.8 765.2 27.1 750.75 24.8 731.2 24.8 710.65 24.8 670.15 33.8 636.15 35.7 628.6 46.15 602.95 54.75 581.75 59.45 575.2 L58.8 572.3 58.8 546.3 Q66.95 550.35 76.5 557.4 82.65 561.95 87.55 566.3 L95.4 560.95 97.9 559.45 Q99.3 527.0 119.1 468.05 125.45 449.05 136.65 419.0 L150.8 380.3 Q162.95 344.35 187.7 304.2 208.55 270.35 226.95 252.35 L236.8 275.5 Q240.55 284.0 243.8 290.35 254.2 258.4 283.0 224.0 297.9 206.2 314.35 192.2 328.15 180.5 340.15 173.95 342.0 169.1 345.25 163.8 349.2 157.4 353.6 153.1 355.55 139.45 362.55 119.75 371.55 94.5 386.3 66.05 400.85 37.95 415.8 16.85 424.5 4.5 431.8 -3.2 L540.4 -3.2 Q536.5 3.85 531.7 13.5 521.15 34.65 510.85 59.5 485.8 119.75 485.8 140.8 485.8 142.85 487.05 148.95 487.7 152.2 488.3 154.2 490.85 152.35 495.05 150.0 L505.3 144.3 505.7 144.5 Q503.25 149.45 500.55 157.75 L498.05 165.25 Q501.85 163.6 507.95 161.05 517.4 157.1 522.4 154.6 520.05 171.45 508.55 187.85 503.6 194.9 490.95 208.35 486.1 242.35 477.05 265.15 471.4 279.35 462.75 292.25 461.95 316.9 449.85 364.2 442.15 394.1 429.4 437.75 430.4 442.65 431.05 448.85 432.3 460.65 432.3 478.55 432.3 509.0 430.05 528.3 428.4 542.75 425.0 554.75 L426.7 560.95 428.6 567.9 425.85 567.55 419.45 566.9 423.05 576.25 424.75 581.0 420.2 580.8 410.85 580.4 Q406.65 587.9 401.85 594.2 397.15 600.4 392.5 604.55 L392.8 609.95 Q392.8 636.1 377.7 672.7 371.55 687.65 364.85 698.95 360.75 705.9 357.5 709.7 358.45 715.1 359.1 722.05 360.3 734.8 360.3 749.7 360.3 761.4 358.3 772.95 L357.55 777.2 31.6 777.2 M405.8 452.8 L405.6 446.0 403.9 441.6 Q400.15 432.5 393.75 422.6 384.95 446.3 368.4 481.4 L350.3 518.7 Q350.35 561.2 355.55 601.0 358.45 623.5 362.05 638.6 366.05 629.75 368.35 620.35 371.8 606.45 371.8 590.45 L371.65 586.7 Q378.25 576.5 382.45 569.0 391.55 552.85 395.3 537.3 398.65 523.5 402.2 495.5 405.8 466.85 405.8 452.8 M410.85 580.4 L409.3 580.3 410.85 580.4" fill="#ffffff" fill-rule="evenodd" stroke="none"/>
    <path d="M31.6 777.2 Q28.8 765.2 27.1 750.75 24.8 731.2 24.8 710.65 24.8 670.15 33.8 636.15 35.7 628.6 46.15 602.95 54.75 581.75 59.45 575.2 L58.8 572.3 58.8 546.3 Q66.95 550.35 76.5 557.4 82.65 561.95 87.55 566.3 L95.4 560.95 97.9 559.45 Q99.3 527.0 119.1 468.05 125.45 449.05 136.65 419.0 L150.8 380.3 Q162.95 344.35 187.7 304.2 208.55 270.35 226.95 252.35 L236.8 275.5 Q240.55 284.0 243.8 290.35 254.2 258.4 283.0 224.0 297.9 206.2 314.35 192.2 328.15 180.5 340.15 173.95 342.0 169.1 345.25 163.8 349.2 157.4 353.6 153.1 355.55 139.45 362.55 119.75 371.55 94.5 386.3 66.05 400.85 37.95 415.8 16.85 424.5 4.5 431.8 -3.2 L540.4 -3.2 Q536.5 3.85 531.7 13.5 521.15 34.65 510.85 59.5 485.8 119.75 485.8 140.8 485.8 142.85 487.05 148.95 487.7 152.2 488.3 154.2 490.85 152.35 495.05 150.0 L505.3 144.3 505.8 144.3 505.7 144.5 Q503.25 149.45 500.55 157.75 L498.05 165.25 Q501.85 163.6 507.95 161.05 517.4 157.1 522.4 154.6 520.05 171.45 508.55 187.85 503.6 194.9 490.95 208.35 486.1 242.35 477.05 265.15 471.4 279.35 462.75 292.25 461.95 316.9 449.85 364.2 442.15 394.1 429.4 437.75 430.4 442.65 431.05 448.85 432.3 460.65 432.3 478.55 432.3 509.0 430.05 528.3 428.4 542.75 425.0 554.75 L426.7 560.95 428.6 567.9 425.85 567.55 419.45 566.9 423.05 576.25 424.75 581.0 420.2 580.8 410.85 580.4 Q406.65 587.9 401.85 594.2 397.15 600.4 392.5 604.55 L392.8 609.95 Q392.8 636.1 377.7 672.7 371.55 687.65 364.85 698.95 360.75 705.9 357.5 709.7 358.45 715.1 359.1 722.05 360.3 734.8 360.3 749.7 360.3 761.4 358.3 772.95 L357.55 777.2 361.8 777.2 M35.8 789.15 L34.8 789.15 Q33.05 783.5 31.6 777.2 L25.3 777.2 24.8 776.7 M405.8 452.8 Q405.8 466.85 402.2 495.5 398.65 523.5 395.3 537.3 391.55 552.85 382.45 569.0 378.25 576.5 371.65 586.7 L371.8 590.45 Q371.8 606.45 368.35 620.35 366.05 629.75 362.05 638.6 358.45 623.5 355.55 601.0 350.35 561.2 350.3 518.7 L368.4 481.4 Q384.95 446.3 393.75 422.6 400.15 432.5 403.9 441.6 L405.6 446.0 405.8 452.8 M409.3 580.3 L410.85 580.4 M357.55 777.2 L355.4 787.25 M31.6 777.2 L357.55 777.2" fill="none" stroke="#00ffff" stroke-linecap="round" stroke-linejoin="round" stroke-width="2.0"/>
  </g>
</svg>
