<?xml version="1.0" encoding="UTF-8" standalone="no"?>
<svg xmlns:xlink="http://www.w3.org/1999/xlink" height="65.0px" width="65.0px" xmlns="http://www.w3.org/2000/svg">
  <g transform="matrix(1.0, 0.0, 0.0, 1.0, 32.5, 32.5)">
    <path d="M19.8 -19.8 Q11.6 -28.0 0.0 -28.0 -11.6 -28.0 -19.8 -19.8 -28.0 -11.6 -28.0 0.0 -28.0 11.6 -19.8 19.8 -11.6 28.0 0.0 28.0 11.6 28.0 19.8 19.8 28.0 11.6 28.0 0.0 28.0 -11.6 19.8 -19.8 M23.0 -23.0 Q32.5 -13.5 32.5 0.0 32.5 13.5 23.0 23.0 13.5 32.5 0.0 32.5 -13.5 32.5 -23.0 23.0 -32.5 13.5 -32.5 0.0 -32.5 -13.5 -23.0 -23.0 -13.5 -32.5 0.0 -32.5 13.5 -32.5 23.0 -23.0" fill="#000000" fill-rule="evenodd" stroke="none"/>
    <path d="M21.2 -21.25 Q30.0 -12.45 30.0 0.0 30.0 12.45 21.2 21.2 12.45 30.0 0.0 30.0 -12.45 30.0 -21.25 21.2 -30.0 12.45 -30.0 0.0 -30.0 -12.45 -21.25 -21.25 -12.45 -30.0 0.0 -30.0 12.45 -30.0 21.2 -21.25 M19.8 -19.8 Q11.6 -28.0 0.0 -28.0 -11.6 -28.0 -19.8 -19.8 -28.0 -11.6 -28.0 0.0 -28.0 11.6 -19.8 19.8 -11.6 28.0 0.0 28.0 11.6 28.0 19.8 19.8 28.0 11.6 28.0 0.0 28.0 -11.6 19.8 -19.8" fill="url(#gradient0)" fill-rule="evenodd" stroke="none"/>
    <path d="M19.8 -19.8 Q28.0 -11.6 28.0 0.0 28.0 11.6 19.8 19.8 11.6 28.0 0.0 28.0 -11.6 28.0 -19.8 19.8 -28.0 11.6 -28.0 0.0 -28.0 -11.6 -19.8 -19.8 -11.6 -28.0 0.0 -28.0 11.6 -28.0 19.8 -19.8" fill="url(#gradient1)" fill-rule="evenodd" stroke="none"/>
    <path d="M4.0 -22.0 L5.0 -10.0 0.0 0.0 0.0 28.0 Q-7.75 25.85 -12.65 19.3 -17.75 12.4 -17.0 4.0 -16.5 -1.2 -13.8 -5.35 -12.25 -7.75 -8.2 -11.9 -4.3 -15.9 -2.7 -18.5 -0.2 -22.7 0.0 -28.0 L4.0 -22.0" fill="url(#gradient2)" fill-rule="evenodd" stroke="none"/>
    <path d="M0.0 -28.0 Q6.1 -26.35 11.55 -21.1 17.95 -14.95 18.0 -8.0 18.05 -2.75 15.5 1.25 14.15 3.3 9.75 7.75 5.55 11.9 3.6 15.35 0.6 20.65 0.0 28.0 L-6.0 18.0 6.0 -16.0 0.0 -28.0" fill="url(#gradient3)" fill-rule="evenodd" stroke="none"/>
    <path d="M7.95 -18.75 Q10.25 -13.3 10.0 -8.0 9.75 -3.35 7.25 1.0 L2.4 8.05 Q-3.5 16.8 0.0 28.0 -7.9 22.8 -9.7 13.75 -11.25 5.95 -8.0 -2.0 -6.3 -6.05 -1.05 -14.0 2.75 -21.35 0.0 -28.0 5.2 -25.25 7.95 -18.75" fill="url(#gradient4)" fill-rule="evenodd" stroke="none"/>
    <path d="M19.8 -19.8 Q28.0 -11.6 28.0 0.0 28.0 11.6 19.8 19.8 11.6 28.0 0.0 28.0 -11.6 28.0 -19.8 19.8 -28.0 11.6 -28.0 0.0 -28.0 -11.6 -19.8 -19.8 -11.6 -28.0 0.0 -28.0 11.6 -28.0 19.8 -19.8" fill="url(#gradient5)" fill-rule="evenodd" stroke="none"/>
    <path d="M0.0 30.0 Q-12.45 30.0 -21.25 21.2 L-21.85 20.6 -20.0 6.0 20.0 6.0 21.9 20.55 21.2 21.2 Q12.45 30.0 0.0 30.0" fill="url(#gradient6)" fill-rule="evenodd" stroke="none"/>
  </g>
  <defs>
    <radialGradient cx="0" cy="0" fx="649.6" fy="0" gradientTransform="matrix(0.0351, -0.028, 0.028, 0.0351, 0.0, 0.0)" gradientUnits="userSpaceOnUse" id="gradient0" r="819.2" spreadMethod="pad">
      <stop offset="0.12156862745098039" stop-color="#3d4a50"/>
      <stop offset="1.0" stop-color="#cbd3d6"/>
    </radialGradient>
    <linearGradient gradientTransform="matrix(3.0E-4, -0.0342, 0.0342, 3.0E-4, 0.0, 0.0)" gradientUnits="userSpaceOnUse" id="gradient1" spreadMethod="pad" x1="-819.2" x2="819.2">
      <stop offset="0.1568627450980392" stop-color="#506785"/>
      <stop offset="1.0" stop-color="#151b1c"/>
    </linearGradient>
    <radialGradient cx="0" cy="0" fx="153.60000000000002" fy="0" gradientTransform="matrix(0.0038, -0.0414, 0.037, 0.0034, -6.0, -4.0)" gradientUnits="userSpaceOnUse" id="gradient2" r="819.2" spreadMethod="pad">
      <stop offset="0.08235294117647059" stop-color="#404040"/>
      <stop offset="0.7803921568627451" stop-color="#232323"/>
    </radialGradient>
    <radialGradient cx="0" cy="0" gradientTransform="matrix(0.0092, -0.0377, 0.0297, 0.0073, 8.0, -4.0)" gradientUnits="userSpaceOnUse" id="gradient3" r="819.2" spreadMethod="pad">
      <stop offset="0.08235294117647059" stop-color="#262626"/>
      <stop offset="0.7294117647058823" stop-color="#313131"/>
    </radialGradient>
    <radialGradient cx="0" cy="0" gradientTransform="matrix(0.0167, 0.004, -0.0081, 0.0341, -0.1, 0.0)" gradientUnits="userSpaceOnUse" id="gradient4" r="819.2" spreadMethod="pad">
      <stop offset="0.16862745098039217" stop-color="#151515"/>
      <stop offset="1.0" stop-color="#202020"/>
    </radialGradient>
    <radialGradient cx="0" cy="0" fx="486.40000000000003" fy="0" gradientTransform="matrix(0.029, -0.0249, 0.0249, 0.029, 0.0, 0.0)" gradientUnits="userSpaceOnUse" id="gradient5" r="819.2" spreadMethod="pad">
      <stop offset="0.10588235294117647" stop-color="#ffffff"/>
      <stop offset="0.15294117647058825" stop-color="#ffffff" stop-opacity="0.62352943"/>
      <stop offset="0.48627450980392156" stop-color="#b8b8b8" stop-opacity="0.0"/>
      <stop offset="0.7607843137254902" stop-color="#75959f" stop-opacity="0.2"/>
      <stop offset="0.9176470588235294" stop-color="#bad1e0"/>
    </radialGradient>
    <linearGradient gradientTransform="matrix(1.0E-4, -0.0146, 0.0183, 1.0E-4, -0.1, 18.0)" gradientUnits="userSpaceOnUse" id="gradient6" spreadMethod="pad" x1="-819.2" x2="819.2">
      <stop offset="0.6235294117647059" stop-color="#ffffff" stop-opacity="0.19215687"/>
      <stop offset="1.0" stop-color="#ffffff" stop-opacity="0.0"/>
    </linearGradient>
  </defs>
</svg>
