<?xml version="1.0" encoding="UTF-8" standalone="no"?>
<svg xmlns:xlink="http://www.w3.org/1999/xlink" height="360.0px" width="208.0px" xmlns="http://www.w3.org/2000/svg">
  <g transform="matrix(1.0, 0.0, 0.0, 1.0, 0.0, 0.0)">
    <path d="M0.0 360.0 L0.0 0.0 208.0 0.0 208.0 360.0 0.0 360.0" fill="#000000" fill-rule="evenodd" stroke="none"/>
    <path d="M144.0 341.0 L207.0 341.0 207.0 349.0 144.0 349.0 144.0 341.0" fill="#2a2a2a" fill-rule="evenodd" stroke="none"/>
    <path d="M2.0 154.0 L142.0 154.0 142.0 172.0 2.0 172.0 2.0 154.0 M142.0 190.0 L142.0 208.0 2.0 208.0 2.0 190.0 142.0 190.0 M2.0 226.0 L142.0 226.0 142.0 320.0 2.0 320.0 2.0 226.0" fill="#cecfd1" fill-rule="evenodd" stroke="none"/>
    <path d="M144.0 47.0 L144.0 32.0 207.0 32.0 207.0 47.0 144.0 47.0" fill="#025570" fill-rule="evenodd" stroke="none"/>
    <path d="M207.0 47.0 L207.0 48.0 144.0 48.0 144.0 47.0 207.0 47.0" fill="#0f3d4d" fill-rule="evenodd" stroke="none"/>
    <path d="M207.0 48.0 L207.0 344.0 144.0 344.0 144.0 48.0 207.0 48.0 M2.0 32.0 L142.0 32.0 142.0 136.0 2.0 136.0 2.0 32.0" fill="#464646" fill-rule="evenodd" stroke="none"/>
    <path d="M144.0 345.0 L207.0 345.0 207.0 359.0 144.0 359.0 144.0 345.0" fill="#7a7a7a" fill-rule="evenodd" stroke="none"/>
    <path d="M42.5 325.5 L45.5 325.5 M50.5 325.5 L53.5 325.5 M58.5 325.5 L61.5 325.5 M66.5 325.5 L69.5 325.5 M74.5 325.5 L77.5 325.5 M2.5 325.5 L5.5 325.5 M10.5 325.5 L13.5 325.5 M18.5 325.5 L21.5 325.5 M26.5 325.5 L29.5 325.5 M34.5 325.5 L37.5 325.5 M122.5 325.5 L125.5 325.5 M130.5 325.5 L133.5 325.5 M138.5 325.5 L141.5 325.5 M82.5 325.5 L85.5 325.5 M90.5 325.5 L93.5 325.5 M98.5 325.5 L101.5 325.5 M106.5 325.5 L109.5 325.5 M114.5 325.5 L117.5 325.5" fill="none" stroke="#cecfd1" stroke-linecap="square" stroke-linejoin="round" stroke-width="1.0"/>
  </g>
</svg>
