<?xml version="1.0" encoding="UTF-8" standalone="no"?>
<svg xmlns:xlink="http://www.w3.org/1999/xlink" height="47.0px" width="48.0px" xmlns="http://www.w3.org/2000/svg">
  <g transform="matrix(1.0, 0.0, 0.0, 1.0, 24.0, 19.0)">
    <path d="M-13.0 -7.0 L-15.0 -10.0 -11.0 -14.0 -8.0 -13.0 -13.0 -7.0" fill="url(#gradient0)" fill-rule="evenodd" stroke="none"/>
    <path d="M8.0 -13.0 L11.0 -14.0 15.0 -10.0 13.0 -7.0 8.0 -13.0" fill="url(#gradient1)" fill-rule="evenodd" stroke="none"/>
    <path d="M15.0 -10.0 L23.0 -17.0 24.0 -16.0 15.0 -10.0 M-23.0 -17.0 L-15.0 -10.0 -24.0 -16.0 -23.0 -17.0" fill="#000000" fill-opacity="0.2" fill-rule="evenodd" stroke="none"/>
    <path d="M-11.0 -14.0 L-15.0 -10.0 -23.0 -17.0 Q-20.6 -19.05 -17.0 -19.0 L-11.0 -14.0" fill="url(#gradient2)" fill-rule="evenodd" stroke="none"/>
    <path d="M23.0 -17.0 L15.0 -10.0 11.0 -14.0 17.0 -19.0 Q20.6 -19.05 23.0 -17.0" fill="url(#gradient3)" fill-rule="evenodd" stroke="none"/>
    <path d="M14.0 -7.0 Q16.6 -1.95 15.85 5.7 15.1 13.2 11.0 24.0 L0.0 24.0 -11.0 24.0 Q-15.1 13.2 -15.85 5.7 -16.6 -1.95 -14.0 -7.0 -11.75 -11.4 -7.3 -14.3 -3.25 -17.0 0.0 -17.0 3.25 -17.0 7.3 -14.3 11.75 -11.4 14.0 -7.0" fill="url(#gradient4)" fill-rule="evenodd" stroke="none"/>
    <path d="M6.95 -11.75 Q10.3 -9.65 12.0 -7.0 15.2 -1.95 15.1 5.55 14.95 13.65 11.0 24.0 L0.0 24.0 -11.0 24.0 Q-14.95 13.65 -15.1 5.55 -15.2 -1.95 -12.0 -7.0 -10.3 -9.65 -6.95 -11.75 -3.3 -14.0 0.0 -14.0 3.3 -14.0 6.95 -11.75" fill="url(#gradient5)" fill-rule="evenodd" stroke="none"/>
    <path d="M8.0 28.0 L-8.0 28.0 -8.0 25.0 8.0 25.0 8.0 28.0" fill="url(#gradient6)" fill-rule="evenodd" stroke="none"/>
    <path d="M5.0 25.0 L-5.0 25.0 -5.0 20.0 5.0 20.0 5.0 25.0" fill="url(#gradient7)" fill-rule="evenodd" stroke="none"/>
    <path d="M1.0 22.0 L2.0 22.0 2.0 24.0 1.0 24.0 1.0 22.0 M-2.0 22.0 L-1.0 22.0 -1.0 24.0 -2.0 24.0 -2.0 22.0" fill="#707070" fill-rule="evenodd" stroke="none"/>
    <path d="M7.75 -1.75 Q11.0 1.45 11.0 6.0 11.0 10.55 7.75 13.75 4.55 17.0 0.0 17.0 -4.55 17.0 -7.75 13.75 -11.0 10.55 -11.0 6.0 -11.0 1.45 -7.75 -1.75 -4.55 -5.0 0.0 -5.0 4.55 -5.0 7.75 -1.75" fill="url(#gradient8)" fill-rule="evenodd" stroke="none"/>
    <path d="M7.75 -0.75 Q5.25 -3.3 1.95 -3.85 L1.0 0.0 -1.0 0.0 -1.95 -3.85 Q-5.25 -3.3 -7.75 -0.75 -11.0 2.45 -11.0 7.0 -11.0 11.55 -7.75 14.75 -4.55 18.0 0.0 18.0 4.55 18.0 7.75 14.75 11.0 11.55 11.0 7.0 11.0 2.45 7.75 -0.75 M10.6 -3.6 Q15.0 0.8 15.0 7.0 15.0 13.2 10.6 17.6 6.2 22.0 0.0 22.0 -6.2 22.0 -10.6 17.6 -15.0 13.2 -15.0 7.0 -15.0 0.8 -10.6 -3.6 -6.2 -8.0 0.0 -8.0 6.2 -8.0 10.6 -3.6" fill="#000000" fill-opacity="0.2" fill-rule="evenodd" stroke="none"/>
    <path d="M1.0 -1.0 L-1.0 -1.0 -2.0 -5.0 2.0 -5.0 1.0 -1.0" fill="url(#gradient9)" fill-rule="evenodd" stroke="none"/>
    <path d="M8.55 13.25 L5.6 10.35 6.6 8.65 10.55 9.75 8.55 13.25" fill="url(#gradient10)" fill-rule="evenodd" stroke="none"/>
    <path d="M-10.55 9.75 L-6.6 8.65 -5.6 10.35 -8.55 13.25 -10.55 9.75" fill="url(#gradient11)" fill-rule="evenodd" stroke="none"/>
    <path d="M7.75 -1.75 Q4.55 -5.0 0.0 -5.0 -4.55 -5.0 -7.75 -1.75 -11.0 1.45 -11.0 6.0 -11.0 10.55 -7.75 13.75 -4.55 17.0 0.0 17.0 4.55 17.0 7.75 13.75 11.0 10.55 11.0 6.0 11.0 1.45 7.75 -1.75 M10.6 -4.6 Q15.0 -0.2 15.0 6.0 15.0 12.2 10.6 16.6 6.2 21.0 0.0 21.0 -6.2 21.0 -10.6 16.6 -15.0 12.2 -15.0 6.0 -15.0 -0.2 -10.6 -4.6 -6.2 -9.0 0.0 -9.0 6.2 -9.0 10.6 -4.6" fill="url(#gradient12)" fill-rule="evenodd" stroke="none"/>
    <path d="M5.0 6.0 Q5.0 8.05 3.5 9.5 2.05 11.0 0.0 11.0 -2.05 11.0 -3.5 9.5 -5.0 8.05 -5.0 6.0 -5.0 3.9 -3.5 2.45 -2.05 1.0 0.0 1.0 2.05 1.0 3.5 2.45 5.0 3.9 5.0 6.0" fill="url(#gradient13)" fill-rule="evenodd" stroke="none"/>
    <path d="M4.0 6.0 Q4.0 7.65 2.8 8.8 1.65 10.0 0.0 10.0 -1.65 10.0 -2.8 8.8 -4.0 7.65 -4.0 6.0 -4.0 4.35 -2.8 3.15 -1.65 2.0 0.0 2.0 1.65 2.0 2.8 3.15 4.0 4.35 4.0 6.0" fill="url(#gradient14)" fill-rule="evenodd" stroke="none"/>
    <path d="M2.1 7.15 Q1.2 8.05 -0.05 8.05 -1.3 8.05 -2.2 7.15 -3.1 6.25 -3.1 5.0 -3.1 3.75 -2.2 2.85 -1.3 1.95 -0.05 1.95 1.2 1.95 2.1 2.85 3.0 3.75 3.0 5.0 3.0 6.25 2.1 7.15" fill="#1c1c1c" fill-rule="evenodd" stroke="none"/>
    <path d="M9.2 -4.2 L9.5 -3.5 9.2 -2.8 8.55 -2.5 8.5 -2.5 Q8.1 -2.5 7.8 -2.8 7.5 -3.1 7.5 -3.5 7.5 -3.9 7.8 -4.2 8.1 -4.5 8.5 -4.5 L9.2 -4.2 M9.2 14.8 L9.5 15.5 9.2 16.2 8.55 16.5 8.5 16.5 Q8.1 16.5 7.8 16.2 7.5 15.9 7.5 15.5 7.5 15.1 7.8 14.8 8.1 14.5 8.5 14.5 8.9 14.5 9.2 14.8 M-8.5 -4.5 Q-8.1 -4.5 -7.8 -4.2 -7.5 -3.9 -7.5 -3.5 -7.5 -3.1 -7.8 -2.8 -8.1 -2.5 -8.45 -2.5 L-8.5 -2.5 Q-8.9 -2.5 -9.2 -2.8 L-9.5 -3.5 -9.2 -4.2 -8.5 -4.5 M-7.8 14.8 Q-7.5 15.1 -7.5 15.5 -7.5 15.9 -7.8 16.2 L-8.45 16.5 -8.5 16.5 -9.2 16.2 -9.5 15.5 -9.2 14.8 Q-8.9 14.5 -8.5 14.5 -8.1 14.5 -7.8 14.8" fill="#000000" fill-opacity="0.2" fill-rule="evenodd" stroke="none"/>
    <path d="M9.0 -3.5 L8.85 -3.15 Q8.7 -3.0 8.55 -3.0 L8.5 -3.0 Q8.3 -3.0 8.15 -3.15 L8.0 -3.5 8.15 -3.85 8.5 -4.0 8.85 -3.85 9.0 -3.5" fill="url(#gradient15)" fill-rule="evenodd" stroke="none"/>
    <path d="M8.5 15.0 L8.85 15.15 9.0 15.5 8.85 15.85 8.55 16.0 8.5 16.0 8.15 15.85 8.0 15.5 8.15 15.15 Q8.3 15.0 8.5 15.0" fill="url(#gradient16)" fill-rule="evenodd" stroke="none"/>
    <path d="M-8.15 15.15 L-8.0 15.5 -8.15 15.85 -8.45 16.0 -8.5 16.0 -8.85 15.85 -9.0 15.5 -8.85 15.15 -8.5 15.0 Q-8.3 15.0 -8.15 15.15" fill="url(#gradient17)" fill-rule="evenodd" stroke="none"/>
    <path d="M-8.15 -3.15 Q-8.3 -3.0 -8.45 -3.0 L-8.5 -3.0 -8.85 -3.15 -9.0 -3.5 -8.85 -3.85 -8.5 -4.0 -8.15 -3.85 -8.0 -3.5 -8.15 -3.15" fill="url(#gradient18)" fill-rule="evenodd" stroke="none"/>
    <path d="M2.5 -2.0 L2.15 -2.15 2.0 -2.5 2.15 -2.85 2.5 -3.0 2.85 -2.85 3.0 -2.5 2.85 -2.15 2.5 -2.0" fill="url(#gradient19)" fill-rule="evenodd" stroke="none"/>
    <path d="M4.0 -2.5 L4.15 -2.85 Q4.3 -3.0 4.5 -3.0 L4.85 -2.85 5.0 -2.5 4.85 -2.15 4.5 -2.0 Q4.3 -2.0 4.15 -2.15 L4.0 -2.5" fill="url(#gradient20)" fill-rule="evenodd" stroke="none"/>
    <path d="M3.15 -0.15 Q3.0 -0.3 3.0 -0.5 L3.15 -0.85 3.5 -1.0 3.85 -0.85 4.0 -0.5 3.85 -0.15 Q3.7 0.0 3.5 0.0 3.3 0.0 3.15 -0.15" fill="url(#gradient21)" fill-rule="evenodd" stroke="none"/>
    <path d="M7.15 -0.15 Q7.0 -0.3 7.0 -0.5 L7.15 -0.85 7.5 -1.0 7.85 -0.85 8.0 -0.5 7.85 -0.15 Q7.7 0.0 7.5 0.0 7.3 0.0 7.15 -0.15" fill="url(#gradient22)" fill-rule="evenodd" stroke="none"/>
    <path d="M5.15 -0.85 L5.5 -1.0 5.85 -0.85 6.0 -0.5 5.85 -0.15 5.5 0.0 5.15 -0.15 5.0 -0.5 5.15 -0.85" fill="url(#gradient23)" fill-rule="evenodd" stroke="none"/>
    <path d="M8.15 1.85 L8.0 1.5 8.15 1.15 Q8.3 1.0 8.5 1.0 L8.85 1.15 9.0 1.5 8.85 1.85 8.5 2.0 8.15 1.85" fill="url(#gradient24)" fill-rule="evenodd" stroke="none"/>
    <path d="M6.0 1.5 L6.15 1.15 Q6.3 1.0 6.5 1.0 L6.85 1.15 7.0 1.5 6.85 1.85 6.5 2.0 6.15 1.85 6.0 1.5" fill="url(#gradient25)" fill-rule="evenodd" stroke="none"/>
    <path d="M7.0 3.5 Q7.0 3.3 7.15 3.15 7.3 3.0 7.5 3.0 7.7 3.0 7.85 3.15 L8.0 3.5 7.85 3.85 7.5 4.0 7.15 3.85 7.0 3.5" fill="url(#gradient26)" fill-rule="evenodd" stroke="none"/>
    <path d="M5.85 3.15 L6.0 3.5 5.85 3.85 5.5 4.0 5.15 3.85 5.0 3.5 5.15 3.15 5.5 3.0 5.85 3.15" fill="url(#gradient27)" fill-rule="evenodd" stroke="none"/>
    <path d="M7.15 5.15 Q7.3 5.0 7.5 5.0 7.7 5.0 7.85 5.15 L8.0 5.5 7.85 5.85 7.5 6.0 7.15 5.85 7.0 5.5 Q7.0 5.3 7.15 5.15" fill="url(#gradient28)" fill-rule="evenodd" stroke="none"/>
    <path d="M9.15 3.85 L9.0 3.5 9.15 3.15 9.5 3.0 Q9.7 3.0 9.85 3.15 L10.0 3.5 9.85 3.85 9.5 4.0 9.15 3.85" fill="url(#gradient29)" fill-rule="evenodd" stroke="none"/>
    <path d="M10.0 5.5 L9.85 5.85 9.5 6.0 9.15 5.85 9.0 5.5 9.15 5.15 9.5 5.0 Q9.7 5.0 9.85 5.15 L10.0 5.5" fill="url(#gradient30)" fill-rule="evenodd" stroke="none"/>
    <path d="M4.0 1.5 L4.15 1.15 Q4.3 1.0 4.5 1.0 L4.85 1.15 5.0 1.5 4.85 1.85 4.5 2.0 Q4.3 2.0 4.15 1.85 L4.0 1.5" fill="url(#gradient31)" fill-rule="evenodd" stroke="none"/>
    <path d="M4.0 12.0 L4.35 12.15 4.5 12.5 4.35 12.85 4.0 13.0 3.65 12.85 3.5 12.5 3.65 12.15 4.0 12.0" fill="url(#gradient32)" fill-rule="evenodd" stroke="none"/>
    <path d="M9.0 7.5 L9.15 7.15 9.5 7.0 Q9.7 7.0 9.85 7.15 L10.0 7.5 9.85 7.85 9.5 8.0 9.15 7.85 9.0 7.5" fill="url(#gradient33)" fill-rule="evenodd" stroke="none"/>
    <path d="M7.85 7.15 L8.0 7.5 7.85 7.85 7.5 8.0 7.15 7.85 7.0 7.5 Q7.0 7.3 7.15 7.15 7.3 7.0 7.5 7.0 7.7 7.0 7.85 7.15" fill="url(#gradient34)" fill-rule="evenodd" stroke="none"/>
    <path d="M6.35 13.15 L6.5 13.5 6.35 13.85 6.0 14.0 5.65 13.85 5.5 13.5 Q5.5 13.3 5.65 13.15 5.8 13.0 6.0 13.0 6.2 13.0 6.35 13.15" fill="url(#gradient35)" fill-rule="evenodd" stroke="none"/>
    <path d="M3.5 14.5 L3.65 14.15 4.0 14.0 4.35 14.15 4.5 14.5 4.35 14.85 4.0 15.0 3.65 14.85 3.5 14.5" fill="url(#gradient36)" fill-rule="evenodd" stroke="none"/>
    <path d="M2.0 13.0 Q2.2 13.0 2.35 13.15 L2.5 13.5 2.35 13.85 2.0 14.0 1.65 13.85 1.5 13.5 Q1.5 13.3 1.65 13.15 1.8 13.0 2.0 13.0" fill="url(#gradient37)" fill-rule="evenodd" stroke="none"/>
    <path d="M0.5 13.5 L0.35 13.85 0.0 14.0 -0.35 13.85 -0.5 13.5 -0.35 13.15 0.0 13.0 0.35 13.15 0.5 13.5" fill="url(#gradient38)" fill-rule="evenodd" stroke="none"/>
    <path d="M0.0 15.0 L0.35 15.15 0.5 15.5 0.35 15.85 0.0 16.0 -0.35 15.85 -0.5 15.5 -0.35 15.15 0.0 15.0" fill="url(#gradient39)" fill-rule="evenodd" stroke="none"/>
    <path d="M2.0 15.0 Q2.2 15.0 2.35 15.15 L2.5 15.5 2.35 15.85 2.0 16.0 1.65 15.85 1.5 15.5 Q1.5 15.3 1.65 15.15 1.8 15.0 2.0 15.0" fill="url(#gradient40)" fill-rule="evenodd" stroke="none"/>
    <path d="M-7.85 -0.85 L-7.5 -1.0 -7.15 -0.85 -7.0 -0.5 Q-7.0 -0.3 -7.15 -0.15 -7.3 0.0 -7.5 0.0 -7.7 0.0 -7.85 -0.15 L-8.0 -0.5 -7.85 -0.85" fill="url(#gradient41)" fill-rule="evenodd" stroke="none"/>
    <path d="M-5.15 -0.85 L-5.0 -0.5 -5.15 -0.15 -5.5 0.0 -5.85 -0.15 -6.0 -0.5 -5.85 -0.85 -5.5 -1.0 -5.15 -0.85" fill="url(#gradient42)" fill-rule="evenodd" stroke="none"/>
    <path d="M-3.0 -2.5 L-2.85 -2.85 -2.5 -3.0 -2.15 -2.85 -2.0 -2.5 -2.15 -2.15 -2.5 -2.0 -2.85 -2.15 -3.0 -2.5" fill="url(#gradient43)" fill-rule="evenodd" stroke="none"/>
    <path d="M-4.0 -2.5 L-4.15 -2.15 Q-4.3 -2.0 -4.5 -2.0 L-4.85 -2.15 -5.0 -2.5 -4.85 -2.85 -4.5 -3.0 Q-4.3 -3.0 -4.15 -2.85 L-4.0 -2.5" fill="url(#gradient44)" fill-rule="evenodd" stroke="none"/>
    <path d="M-3.85 -0.85 L-3.5 -1.0 -3.15 -0.85 -3.0 -0.5 Q-3.0 -0.3 -3.15 -0.15 -3.3 0.0 -3.5 0.0 -3.7 0.0 -3.85 -0.15 L-4.0 -0.5 -3.85 -0.85" fill="url(#gradient45)" fill-rule="evenodd" stroke="none"/>
    <path d="M-5.0 1.5 L-4.85 1.15 -4.5 1.0 Q-4.3 1.0 -4.15 1.15 L-4.0 1.5 -4.15 1.85 Q-4.3 2.0 -4.5 2.0 L-4.85 1.85 -5.0 1.5" fill="url(#gradient46)" fill-rule="evenodd" stroke="none"/>
    <path d="M-7.0 1.5 L-6.85 1.15 -6.5 1.0 Q-6.3 1.0 -6.15 1.15 L-6.0 1.5 -6.15 1.85 -6.5 2.0 -6.85 1.85 -7.0 1.5" fill="url(#gradient47)" fill-rule="evenodd" stroke="none"/>
    <path d="M-8.15 1.85 L-8.5 2.0 -8.85 1.85 -9.0 1.5 -8.85 1.15 -8.5 1.0 Q-8.3 1.0 -8.15 1.15 L-8.0 1.5 -8.15 1.85" fill="url(#gradient48)" fill-rule="evenodd" stroke="none"/>
    <path d="M-7.85 3.15 Q-7.7 3.0 -7.5 3.0 -7.3 3.0 -7.15 3.15 -7.0 3.3 -7.0 3.5 L-7.15 3.85 -7.5 4.0 -7.85 3.85 -8.0 3.5 -7.85 3.15" fill="url(#gradient49)" fill-rule="evenodd" stroke="none"/>
    <path d="M-10.0 3.5 L-9.85 3.15 Q-9.7 3.0 -9.5 3.0 L-9.15 3.15 -9.0 3.5 -9.15 3.85 -9.5 4.0 -9.85 3.85 -10.0 3.5" fill="url(#gradient50)" fill-rule="evenodd" stroke="none"/>
    <path d="M-9.0 5.5 L-9.15 5.85 -9.5 6.0 -9.85 5.85 -10.0 5.5 -9.85 5.15 Q-9.7 5.0 -9.5 5.0 L-9.15 5.15 -9.0 5.5" fill="url(#gradient51)" fill-rule="evenodd" stroke="none"/>
    <path d="M-8.0 5.5 L-7.85 5.15 Q-7.7 5.0 -7.5 5.0 -7.3 5.0 -7.15 5.15 -7.0 5.3 -7.0 5.5 L-7.15 5.85 -7.5 6.0 -7.85 5.85 -8.0 5.5" fill="url(#gradient52)" fill-rule="evenodd" stroke="none"/>
    <path d="M-5.85 3.15 L-5.5 3.0 -5.15 3.15 -5.0 3.5 -5.15 3.85 -5.5 4.0 -5.85 3.85 -6.0 3.5 -5.85 3.15" fill="url(#gradient53)" fill-rule="evenodd" stroke="none"/>
    <path d="M-7.0 7.5 L-7.15 7.85 -7.5 8.0 -7.85 7.85 -8.0 7.5 -7.85 7.15 Q-7.7 7.0 -7.5 7.0 -7.3 7.0 -7.15 7.15 -7.0 7.3 -7.0 7.5" fill="url(#gradient54)" fill-rule="evenodd" stroke="none"/>
    <path d="M-9.15 7.15 L-9.0 7.5 -9.15 7.85 -9.5 8.0 -9.85 7.85 -10.0 7.5 -9.85 7.15 Q-9.7 7.0 -9.5 7.0 L-9.15 7.15" fill="url(#gradient55)" fill-rule="evenodd" stroke="none"/>
    <path d="M-4.35 12.15 L-4.0 12.0 -3.65 12.15 -3.5 12.5 -3.65 12.85 -4.0 13.0 -4.35 12.85 -4.5 12.5 -4.35 12.15" fill="url(#gradient56)" fill-rule="evenodd" stroke="none"/>
    <path d="M-1.65 13.15 Q-1.5 13.3 -1.5 13.5 L-1.65 13.85 -2.0 14.0 -2.35 13.85 -2.5 13.5 -2.35 13.15 Q-2.2 13.0 -2.0 13.0 -1.8 13.0 -1.65 13.15" fill="url(#gradient57)" fill-rule="evenodd" stroke="none"/>
    <path d="M-2.35 15.15 Q-2.2 15.0 -2.0 15.0 -1.8 15.0 -1.65 15.15 -1.5 15.3 -1.5 15.5 L-1.65 15.85 -2.0 16.0 -2.35 15.85 -2.5 15.5 -2.35 15.15" fill="url(#gradient58)" fill-rule="evenodd" stroke="none"/>
    <path d="M-4.35 14.15 L-4.0 14.0 -3.65 14.15 -3.5 14.5 -3.65 14.85 -4.0 15.0 -4.35 14.85 -4.5 14.5 -4.35 14.15" fill="url(#gradient59)" fill-rule="evenodd" stroke="none"/>
    <path d="M-5.65 13.15 Q-5.5 13.3 -5.5 13.5 L-5.65 13.85 -6.0 14.0 -6.35 13.85 -6.5 13.5 -6.35 13.15 Q-6.2 13.0 -6.0 13.0 -5.8 13.0 -5.65 13.15" fill="url(#gradient60)" fill-rule="evenodd" stroke="none"/>
    <path d="M8.0 26.0 L-8.0 26.0 -8.0 25.0 8.0 25.0 8.0 26.0" fill="#000000" fill-opacity="0.2" fill-rule="evenodd" stroke="none"/>
  </g>
  <defs>
    <linearGradient gradientTransform="matrix(0.0018, 0.0019, -0.003, 0.003, -11.45, -10.5)" gradientUnits="userSpaceOnUse" id="gradient0" spreadMethod="pad" x1="-819.2" x2="819.2">
      <stop offset="0.03529411764705882" stop-color="#a09f9e"/>
      <stop offset="0.047058823529411764" stop-color="#64635b"/>
      <stop offset="1.0" stop-color="#83837c"/>
    </linearGradient>
    <linearGradient gradientTransform="matrix(-0.0018, 0.0018, -0.0031, -0.003, 11.5, -10.5)" gradientUnits="userSpaceOnUse" id="gradient1" spreadMethod="pad" x1="-819.2" x2="819.2">
      <stop offset="0.03529411764705882" stop-color="#a09f9e"/>
      <stop offset="0.047058823529411764" stop-color="#64635b"/>
      <stop offset="1.0" stop-color="#85837a"/>
    </linearGradient>
    <linearGradient gradientTransform="matrix(0.0048, 0.0055, -0.0041, 0.0036, -17.0, -14.5)" gradientUnits="userSpaceOnUse" id="gradient2" spreadMethod="pad" x1="-819.2" x2="819.2">
      <stop offset="0.0" stop-color="#988145"/>
      <stop offset="0.1411764705882353" stop-color="#987d2e"/>
      <stop offset="0.6980392156862745" stop-color="#6b5620"/>
      <stop offset="1.0" stop-color="#b6975f"/>
    </linearGradient>
    <linearGradient gradientTransform="matrix(-0.0048, 0.0055, 0.0041, 0.0036, 17.0, -14.5)" gradientUnits="userSpaceOnUse" id="gradient3" spreadMethod="pad" x1="-819.2" x2="819.2">
      <stop offset="0.0" stop-color="#988145"/>
      <stop offset="0.1411764705882353" stop-color="#987d2e"/>
      <stop offset="0.6980392156862745" stop-color="#6b5620"/>
      <stop offset="1.0" stop-color="#b6975f"/>
    </linearGradient>
    <radialGradient cx="0" cy="0" gradientTransform="matrix(0.036, 0.0, 0.0, 0.0468, 0.0, -14.0)" gradientUnits="userSpaceOnUse" id="gradient4" r="819.2" spreadMethod="pad">
      <stop offset="0.0" stop-color="#d9daca"/>
      <stop offset="0.1450980392156863" stop-color="#c7c6af"/>
      <stop offset="0.27450980392156865" stop-color="#7a7a70"/>
      <stop offset="0.7372549019607844" stop-color="#64635b"/>
      <stop offset="1.0" stop-color="#d9daca"/>
    </radialGradient>
    <linearGradient gradientTransform="matrix(-3.0E-4, -0.0232, 0.0232, -3.0E-4, 0.0, 5.0)" gradientUnits="userSpaceOnUse" id="gradient5" spreadMethod="pad" x1="-819.2" x2="819.2">
      <stop offset="0.0" stop-color="#88897e"/>
      <stop offset="0.6352941176470588" stop-color="#4d4d48"/>
      <stop offset="1.0" stop-color="#707168"/>
    </linearGradient>
    <linearGradient gradientTransform="matrix(0.0098, 0.0, 0.0, 0.0018, 0.0, 26.5)" gradientUnits="userSpaceOnUse" id="gradient6" spreadMethod="pad" x1="-819.2" x2="819.2">
      <stop offset="0.0" stop-color="#717171"/>
      <stop offset="0.10588235294117647" stop-color="#5b5b5b"/>
      <stop offset="0.30196078431372547" stop-color="#b0b0b0"/>
      <stop offset="0.4235294117647059" stop-color="#cacaca"/>
      <stop offset="0.4392156862745098" stop-color="#d5d5d5"/>
      <stop offset="0.5686274509803921" stop-color="#d5d5d5"/>
      <stop offset="0.5843137254901961" stop-color="#cacaca"/>
      <stop offset="0.7176470588235294" stop-color="#b0b0b0"/>
      <stop offset="0.8941176470588236" stop-color="#5b5b5b"/>
      <stop offset="1.0" stop-color="#717171"/>
    </linearGradient>
    <linearGradient gradientTransform="matrix(0.0, -0.0031, 0.0031, 0.0, 0.0, 22.5)" gradientUnits="userSpaceOnUse" id="gradient7" spreadMethod="pad" x1="-819.2" x2="819.2">
      <stop offset="0.03529411764705882" stop-color="#eeeeec"/>
      <stop offset="0.054901960784313725" stop-color="#ced1ca"/>
      <stop offset="0.5686274509803921" stop-color="#bec0bb"/>
      <stop offset="0.8901960784313725" stop-color="#686a62"/>
    </linearGradient>
    <linearGradient gradientTransform="matrix(-1.0E-4, -0.0135, 0.0134, -1.0E-4, 0.0, 6.0)" gradientUnits="userSpaceOnUse" id="gradient8" spreadMethod="pad" x1="-819.2" x2="819.2">
      <stop offset="0.07058823529411765" stop-color="#82837b"/>
      <stop offset="0.5333333333333333" stop-color="#5e5e59"/>
      <stop offset="0.9098039215686274" stop-color="#20201e"/>
    </linearGradient>
    <linearGradient gradientTransform="matrix(1.0E-4, -0.0024, 0.0024, 1.0E-4, 0.0, -3.0)" gradientUnits="userSpaceOnUse" id="gradient9" spreadMethod="pad" x1="-819.2" x2="819.2">
      <stop offset="0.0" stop-color="#95958c"/>
      <stop offset="0.08627450980392157" stop-color="#71716a"/>
      <stop offset="0.9882352941176471" stop-color="#82827d"/>
    </linearGradient>
    <linearGradient gradientTransform="matrix(0.0024, 0.0015, -0.0014, 0.0024, 8.05, 10.7)" gradientUnits="userSpaceOnUse" id="gradient10" spreadMethod="pad" x1="-819.2" x2="819.2">
      <stop offset="0.0" stop-color="#afafab"/>
      <stop offset="0.050980392156862744" stop-color="#777871"/>
      <stop offset="0.9882352941176471" stop-color="#a6a79e"/>
    </linearGradient>
    <linearGradient gradientTransform="matrix(-0.0023, 0.0013, -0.0014, -0.0024, -8.15, 10.3)" gradientUnits="userSpaceOnUse" id="gradient11" spreadMethod="pad" x1="-819.2" x2="819.2">
      <stop offset="0.0" stop-color="#bdbdb9"/>
      <stop offset="0.050980392156862744" stop-color="#9d9d99"/>
      <stop offset="0.9764705882352941" stop-color="#d9dad6"/>
    </linearGradient>
    <linearGradient gradientTransform="matrix(-0.0069, -0.0171, 0.017, -0.0069, 0.0, 6.0)" gradientUnits="userSpaceOnUse" id="gradient12" spreadMethod="pad" x1="-819.2" x2="819.2">
      <stop offset="0.0" stop-color="#6d6f6b"/>
      <stop offset="0.027450980392156862" stop-color="#73746d"/>
      <stop offset="0.3686274509803922" stop-color="#d7d9d3"/>
      <stop offset="0.396078431372549" stop-color="#e2e4e0"/>
      <stop offset="0.5254901960784314" stop-color="#e8e9e6"/>
      <stop offset="0.5529411764705883" stop-color="#d6d8d2"/>
      <stop offset="0.7764705882352941" stop-color="#82827d"/>
      <stop offset="0.9254901960784314" stop-color="#898b81"/>
      <stop offset="0.9882352941176471" stop-color="#989b86"/>
    </linearGradient>
    <linearGradient gradientTransform="matrix(0.0, -0.0061, 0.0061, 0.0, 0.0, 6.0)" gradientUnits="userSpaceOnUse" id="gradient13" spreadMethod="pad" x1="-819.2" x2="819.2">
      <stop offset="0.0" stop-color="#e0e0de"/>
      <stop offset="0.06666666666666667" stop-color="#b7b9b2"/>
      <stop offset="0.5764705882352941" stop-color="#72746f"/>
      <stop offset="1.0" stop-color="#c5c8bf"/>
    </linearGradient>
    <linearGradient gradientTransform="matrix(0.0, -0.0049, 0.0049, 0.0, 0.0, 6.0)" gradientUnits="userSpaceOnUse" id="gradient14" spreadMethod="pad" x1="-819.2" x2="819.2">
      <stop offset="0.01568627450980392" stop-color="#5f615d"/>
      <stop offset="1.0" stop-color="#1c1c1c"/>
    </linearGradient>
    <radialGradient cx="0" cy="0" gradientTransform="matrix(8.0E-4, 0.0, 0.0, 8.0E-4, 8.5, -3.5)" gradientUnits="userSpaceOnUse" id="gradient15" r="819.2" spreadMethod="pad">
      <stop offset="0.12941176470588237" stop-color="#ffffff"/>
      <stop offset="0.20784313725490197" stop-color="#e4e3e0"/>
      <stop offset="0.4470588235294118" stop-color="#7a7a67"/>
      <stop offset="0.8823529411764706" stop-color="#d5d5cc"/>
    </radialGradient>
    <radialGradient cx="0" cy="0" gradientTransform="matrix(8.0E-4, 0.0, 0.0, 8.0E-4, 8.5, 15.5)" gradientUnits="userSpaceOnUse" id="gradient16" r="819.2" spreadMethod="pad">
      <stop offset="0.12941176470588237" stop-color="#ffffff"/>
      <stop offset="0.20784313725490197" stop-color="#e4e3e0"/>
      <stop offset="0.4470588235294118" stop-color="#7a7a67"/>
      <stop offset="0.8823529411764706" stop-color="#d5d5cc"/>
    </radialGradient>
    <radialGradient cx="0" cy="0" gradientTransform="matrix(8.0E-4, 0.0, 0.0, 8.0E-4, -8.5, 15.5)" gradientUnits="userSpaceOnUse" id="gradient17" r="819.2" spreadMethod="pad">
      <stop offset="0.12941176470588237" stop-color="#ffffff"/>
      <stop offset="0.20784313725490197" stop-color="#e4e3e0"/>
      <stop offset="0.4470588235294118" stop-color="#7a7a67"/>
      <stop offset="0.8823529411764706" stop-color="#d5d5cc"/>
    </radialGradient>
    <radialGradient cx="0" cy="0" gradientTransform="matrix(8.0E-4, 0.0, 0.0, 8.0E-4, -8.5, -3.5)" gradientUnits="userSpaceOnUse" id="gradient18" r="819.2" spreadMethod="pad">
      <stop offset="0.12941176470588237" stop-color="#ffffff"/>
      <stop offset="0.20784313725490197" stop-color="#e4e3e0"/>
      <stop offset="0.4470588235294118" stop-color="#7a7a67"/>
      <stop offset="0.8823529411764706" stop-color="#d5d5cc"/>
    </radialGradient>
    <radialGradient cx="0" cy="0" gradientTransform="matrix(8.0E-4, 0.0, 0.0, 8.0E-4, 2.5, -2.5)" gradientUnits="userSpaceOnUse" id="gradient19" r="819.2" spreadMethod="pad">
      <stop offset="0.6235294117647059" stop-color="#dbdcd1"/>
      <stop offset="0.6588235294117647" stop-color="#ffffff"/>
    </radialGradient>
    <radialGradient cx="0" cy="0" gradientTransform="matrix(8.0E-4, 0.0, 0.0, 8.0E-4, 4.5, -2.5)" gradientUnits="userSpaceOnUse" id="gradient20" r="819.2" spreadMethod="pad">
      <stop offset="0.6235294117647059" stop-color="#dbdcd1"/>
      <stop offset="0.6588235294117647" stop-color="#ffffff"/>
    </radialGradient>
    <radialGradient cx="0" cy="0" gradientTransform="matrix(8.0E-4, 0.0, 0.0, 8.0E-4, 3.5, -0.5)" gradientUnits="userSpaceOnUse" id="gradient21" r="819.2" spreadMethod="pad">
      <stop offset="0.6235294117647059" stop-color="#dbdcd1"/>
      <stop offset="0.6588235294117647" stop-color="#ffffff"/>
    </radialGradient>
    <radialGradient cx="0" cy="0" gradientTransform="matrix(8.0E-4, 0.0, 0.0, 8.0E-4, 7.5, -0.5)" gradientUnits="userSpaceOnUse" id="gradient22" r="819.2" spreadMethod="pad">
      <stop offset="0.6235294117647059" stop-color="#dbdcd1"/>
      <stop offset="0.6588235294117647" stop-color="#ffffff"/>
    </radialGradient>
    <radialGradient cx="0" cy="0" gradientTransform="matrix(8.0E-4, 0.0, 0.0, 8.0E-4, 5.5, -0.5)" gradientUnits="userSpaceOnUse" id="gradient23" r="819.2" spreadMethod="pad">
      <stop offset="0.6235294117647059" stop-color="#dbdcd1"/>
      <stop offset="0.6588235294117647" stop-color="#ffffff"/>
    </radialGradient>
    <radialGradient cx="0" cy="0" gradientTransform="matrix(8.0E-4, 0.0, 0.0, 8.0E-4, 8.5, 1.5)" gradientUnits="userSpaceOnUse" id="gradient24" r="819.2" spreadMethod="pad">
      <stop offset="0.6235294117647059" stop-color="#dbdcd1"/>
      <stop offset="0.6588235294117647" stop-color="#ffffff"/>
    </radialGradient>
    <radialGradient cx="0" cy="0" gradientTransform="matrix(8.0E-4, 0.0, 0.0, 8.0E-4, 6.5, 1.5)" gradientUnits="userSpaceOnUse" id="gradient25" r="819.2" spreadMethod="pad">
      <stop offset="0.6235294117647059" stop-color="#dbdcd1"/>
      <stop offset="0.6588235294117647" stop-color="#ffffff"/>
    </radialGradient>
    <radialGradient cx="0" cy="0" gradientTransform="matrix(8.0E-4, 0.0, 0.0, 8.0E-4, 7.5, 3.5)" gradientUnits="userSpaceOnUse" id="gradient26" r="819.2" spreadMethod="pad">
      <stop offset="0.6235294117647059" stop-color="#dbdcd1"/>
      <stop offset="0.6588235294117647" stop-color="#ffffff"/>
    </radialGradient>
    <radialGradient cx="0" cy="0" gradientTransform="matrix(8.0E-4, 0.0, 0.0, 8.0E-4, 5.5, 3.5)" gradientUnits="userSpaceOnUse" id="gradient27" r="819.2" spreadMethod="pad">
      <stop offset="0.6235294117647059" stop-color="#dbdcd1"/>
      <stop offset="0.6588235294117647" stop-color="#ffffff"/>
    </radialGradient>
    <radialGradient cx="0" cy="0" gradientTransform="matrix(8.0E-4, 0.0, 0.0, 8.0E-4, 7.5, 5.5)" gradientUnits="userSpaceOnUse" id="gradient28" r="819.2" spreadMethod="pad">
      <stop offset="0.6235294117647059" stop-color="#dbdcd1"/>
      <stop offset="0.6588235294117647" stop-color="#ffffff"/>
    </radialGradient>
    <radialGradient cx="0" cy="0" gradientTransform="matrix(8.0E-4, 0.0, 0.0, 8.0E-4, 9.5, 3.5)" gradientUnits="userSpaceOnUse" id="gradient29" r="819.2" spreadMethod="pad">
      <stop offset="0.6235294117647059" stop-color="#dbdcd1"/>
      <stop offset="0.6588235294117647" stop-color="#ffffff"/>
    </radialGradient>
    <radialGradient cx="0" cy="0" gradientTransform="matrix(8.0E-4, 0.0, 0.0, 8.0E-4, 9.5, 5.5)" gradientUnits="userSpaceOnUse" id="gradient30" r="819.2" spreadMethod="pad">
      <stop offset="0.6235294117647059" stop-color="#dbdcd1"/>
      <stop offset="0.6588235294117647" stop-color="#ffffff"/>
    </radialGradient>
    <radialGradient cx="0" cy="0" gradientTransform="matrix(8.0E-4, 0.0, 0.0, 8.0E-4, 4.5, 1.5)" gradientUnits="userSpaceOnUse" id="gradient31" r="819.2" spreadMethod="pad">
      <stop offset="0.6235294117647059" stop-color="#dbdcd1"/>
      <stop offset="0.6588235294117647" stop-color="#ffffff"/>
    </radialGradient>
    <radialGradient cx="0" cy="0" gradientTransform="matrix(8.0E-4, 0.0, 0.0, 8.0E-4, 4.0, 12.5)" gradientUnits="userSpaceOnUse" id="gradient32" r="819.2" spreadMethod="pad">
      <stop offset="0.6235294117647059" stop-color="#dbdcd1"/>
      <stop offset="0.6588235294117647" stop-color="#ffffff"/>
    </radialGradient>
    <radialGradient cx="0" cy="0" gradientTransform="matrix(8.0E-4, 0.0, 0.0, 8.0E-4, 9.5, 7.5)" gradientUnits="userSpaceOnUse" id="gradient33" r="819.2" spreadMethod="pad">
      <stop offset="0.6235294117647059" stop-color="#dbdcd1"/>
      <stop offset="0.6588235294117647" stop-color="#ffffff"/>
    </radialGradient>
    <radialGradient cx="0" cy="0" gradientTransform="matrix(8.0E-4, 0.0, 0.0, 8.0E-4, 7.5, 7.5)" gradientUnits="userSpaceOnUse" id="gradient34" r="819.2" spreadMethod="pad">
      <stop offset="0.6235294117647059" stop-color="#dbdcd1"/>
      <stop offset="0.6588235294117647" stop-color="#ffffff"/>
    </radialGradient>
    <radialGradient cx="0" cy="0" gradientTransform="matrix(8.0E-4, 0.0, 0.0, 8.0E-4, 6.0, 13.5)" gradientUnits="userSpaceOnUse" id="gradient35" r="819.2" spreadMethod="pad">
      <stop offset="0.6235294117647059" stop-color="#dbdcd1"/>
      <stop offset="0.6588235294117647" stop-color="#ffffff"/>
    </radialGradient>
    <radialGradient cx="0" cy="0" gradientTransform="matrix(8.0E-4, 0.0, 0.0, 8.0E-4, 4.0, 14.5)" gradientUnits="userSpaceOnUse" id="gradient36" r="819.2" spreadMethod="pad">
      <stop offset="0.6235294117647059" stop-color="#dbdcd1"/>
      <stop offset="0.6588235294117647" stop-color="#ffffff"/>
    </radialGradient>
    <radialGradient cx="0" cy="0" gradientTransform="matrix(8.0E-4, 0.0, 0.0, 8.0E-4, 2.0, 13.5)" gradientUnits="userSpaceOnUse" id="gradient37" r="819.2" spreadMethod="pad">
      <stop offset="0.6235294117647059" stop-color="#dbdcd1"/>
      <stop offset="0.6588235294117647" stop-color="#ffffff"/>
    </radialGradient>
    <radialGradient cx="0" cy="0" gradientTransform="matrix(8.0E-4, 0.0, 0.0, 8.0E-4, 0.0, 13.5)" gradientUnits="userSpaceOnUse" id="gradient38" r="819.2" spreadMethod="pad">
      <stop offset="0.6235294117647059" stop-color="#dbdcd1"/>
      <stop offset="0.6588235294117647" stop-color="#ffffff"/>
    </radialGradient>
    <radialGradient cx="0" cy="0" gradientTransform="matrix(8.0E-4, 0.0, 0.0, 8.0E-4, 0.0, 15.5)" gradientUnits="userSpaceOnUse" id="gradient39" r="819.2" spreadMethod="pad">
      <stop offset="0.6235294117647059" stop-color="#dbdcd1"/>
      <stop offset="0.6588235294117647" stop-color="#ffffff"/>
    </radialGradient>
    <radialGradient cx="0" cy="0" gradientTransform="matrix(8.0E-4, 0.0, 0.0, 8.0E-4, 2.0, 15.5)" gradientUnits="userSpaceOnUse" id="gradient40" r="819.2" spreadMethod="pad">
      <stop offset="0.6235294117647059" stop-color="#dbdcd1"/>
      <stop offset="0.6588235294117647" stop-color="#ffffff"/>
    </radialGradient>
    <radialGradient cx="0" cy="0" gradientTransform="matrix(8.0E-4, 0.0, 0.0, 8.0E-4, -7.5, -0.5)" gradientUnits="userSpaceOnUse" id="gradient41" r="819.2" spreadMethod="pad">
      <stop offset="0.6235294117647059" stop-color="#dbdcd1"/>
      <stop offset="0.6588235294117647" stop-color="#ffffff"/>
    </radialGradient>
    <radialGradient cx="0" cy="0" gradientTransform="matrix(8.0E-4, 0.0, 0.0, 8.0E-4, -5.5, -0.5)" gradientUnits="userSpaceOnUse" id="gradient42" r="819.2" spreadMethod="pad">
      <stop offset="0.6235294117647059" stop-color="#dbdcd1"/>
      <stop offset="0.6588235294117647" stop-color="#ffffff"/>
    </radialGradient>
    <radialGradient cx="0" cy="0" gradientTransform="matrix(8.0E-4, 0.0, 0.0, 8.0E-4, -2.5, -2.5)" gradientUnits="userSpaceOnUse" id="gradient43" r="819.2" spreadMethod="pad">
      <stop offset="0.6235294117647059" stop-color="#dbdcd1"/>
      <stop offset="0.6588235294117647" stop-color="#ffffff"/>
    </radialGradient>
    <radialGradient cx="0" cy="0" gradientTransform="matrix(8.0E-4, 0.0, 0.0, 8.0E-4, -4.5, -2.5)" gradientUnits="userSpaceOnUse" id="gradient44" r="819.2" spreadMethod="pad">
      <stop offset="0.6235294117647059" stop-color="#dbdcd1"/>
      <stop offset="0.6588235294117647" stop-color="#ffffff"/>
    </radialGradient>
    <radialGradient cx="0" cy="0" gradientTransform="matrix(8.0E-4, 0.0, 0.0, 8.0E-4, -3.5, -0.5)" gradientUnits="userSpaceOnUse" id="gradient45" r="819.2" spreadMethod="pad">
      <stop offset="0.6235294117647059" stop-color="#dbdcd1"/>
      <stop offset="0.6588235294117647" stop-color="#ffffff"/>
    </radialGradient>
    <radialGradient cx="0" cy="0" gradientTransform="matrix(8.0E-4, 0.0, 0.0, 8.0E-4, -4.5, 1.5)" gradientUnits="userSpaceOnUse" id="gradient46" r="819.2" spreadMethod="pad">
      <stop offset="0.6235294117647059" stop-color="#dbdcd1"/>
      <stop offset="0.6588235294117647" stop-color="#ffffff"/>
    </radialGradient>
    <radialGradient cx="0" cy="0" gradientTransform="matrix(8.0E-4, 0.0, 0.0, 8.0E-4, -6.5, 1.5)" gradientUnits="userSpaceOnUse" id="gradient47" r="819.2" spreadMethod="pad">
      <stop offset="0.6235294117647059" stop-color="#dbdcd1"/>
      <stop offset="0.6588235294117647" stop-color="#ffffff"/>
    </radialGradient>
    <radialGradient cx="0" cy="0" gradientTransform="matrix(8.0E-4, 0.0, 0.0, 8.0E-4, -8.5, 1.5)" gradientUnits="userSpaceOnUse" id="gradient48" r="819.2" spreadMethod="pad">
      <stop offset="0.6235294117647059" stop-color="#dbdcd1"/>
      <stop offset="0.6588235294117647" stop-color="#ffffff"/>
    </radialGradient>
    <radialGradient cx="0" cy="0" gradientTransform="matrix(8.0E-4, 0.0, 0.0, 8.0E-4, -7.5, 3.5)" gradientUnits="userSpaceOnUse" id="gradient49" r="819.2" spreadMethod="pad">
      <stop offset="0.6235294117647059" stop-color="#dbdcd1"/>
      <stop offset="0.6588235294117647" stop-color="#ffffff"/>
    </radialGradient>
    <radialGradient cx="0" cy="0" gradientTransform="matrix(8.0E-4, 0.0, 0.0, 8.0E-4, -9.5, 3.5)" gradientUnits="userSpaceOnUse" id="gradient50" r="819.2" spreadMethod="pad">
      <stop offset="0.6235294117647059" stop-color="#dbdcd1"/>
      <stop offset="0.6588235294117647" stop-color="#ffffff"/>
    </radialGradient>
    <radialGradient cx="0" cy="0" gradientTransform="matrix(8.0E-4, 0.0, 0.0, 8.0E-4, -9.5, 5.5)" gradientUnits="userSpaceOnUse" id="gradient51" r="819.2" spreadMethod="pad">
      <stop offset="0.6235294117647059" stop-color="#dbdcd1"/>
      <stop offset="0.6588235294117647" stop-color="#ffffff"/>
    </radialGradient>
    <radialGradient cx="0" cy="0" gradientTransform="matrix(8.0E-4, 0.0, 0.0, 8.0E-4, -7.5, 5.5)" gradientUnits="userSpaceOnUse" id="gradient52" r="819.2" spreadMethod="pad">
      <stop offset="0.6235294117647059" stop-color="#dbdcd1"/>
      <stop offset="0.6588235294117647" stop-color="#ffffff"/>
    </radialGradient>
    <radialGradient cx="0" cy="0" gradientTransform="matrix(8.0E-4, 0.0, 0.0, 8.0E-4, -5.5, 3.5)" gradientUnits="userSpaceOnUse" id="gradient53" r="819.2" spreadMethod="pad">
      <stop offset="0.6235294117647059" stop-color="#dbdcd1"/>
      <stop offset="0.6588235294117647" stop-color="#ffffff"/>
    </radialGradient>
    <radialGradient cx="0" cy="0" gradientTransform="matrix(8.0E-4, 0.0, 0.0, 8.0E-4, -7.5, 7.5)" gradientUnits="userSpaceOnUse" id="gradient54" r="819.2" spreadMethod="pad">
      <stop offset="0.6235294117647059" stop-color="#dbdcd1"/>
      <stop offset="0.6588235294117647" stop-color="#ffffff"/>
    </radialGradient>
    <radialGradient cx="0" cy="0" gradientTransform="matrix(8.0E-4, 0.0, 0.0, 8.0E-4, -9.5, 7.5)" gradientUnits="userSpaceOnUse" id="gradient55" r="819.2" spreadMethod="pad">
      <stop offset="0.6235294117647059" stop-color="#dbdcd1"/>
      <stop offset="0.6588235294117647" stop-color="#ffffff"/>
    </radialGradient>
    <radialGradient cx="0" cy="0" gradientTransform="matrix(8.0E-4, 0.0, 0.0, 8.0E-4, -4.0, 12.5)" gradientUnits="userSpaceOnUse" id="gradient56" r="819.2" spreadMethod="pad">
      <stop offset="0.6235294117647059" stop-color="#dbdcd1"/>
      <stop offset="0.6588235294117647" stop-color="#ffffff"/>
    </radialGradient>
    <radialGradient cx="0" cy="0" gradientTransform="matrix(8.0E-4, 0.0, 0.0, 8.0E-4, -2.0, 13.5)" gradientUnits="userSpaceOnUse" id="gradient57" r="819.2" spreadMethod="pad">
      <stop offset="0.6235294117647059" stop-color="#dbdcd1"/>
      <stop offset="0.6588235294117647" stop-color="#ffffff"/>
    </radialGradient>
    <radialGradient cx="0" cy="0" gradientTransform="matrix(8.0E-4, 0.0, 0.0, 8.0E-4, -2.0, 15.5)" gradientUnits="userSpaceOnUse" id="gradient58" r="819.2" spreadMethod="pad">
      <stop offset="0.6235294117647059" stop-color="#dbdcd1"/>
      <stop offset="0.6588235294117647" stop-color="#ffffff"/>
    </radialGradient>
    <radialGradient cx="0" cy="0" gradientTransform="matrix(8.0E-4, 0.0, 0.0, 8.0E-4, -4.0, 14.5)" gradientUnits="userSpaceOnUse" id="gradient59" r="819.2" spreadMethod="pad">
      <stop offset="0.6235294117647059" stop-color="#dbdcd1"/>
      <stop offset="0.6588235294117647" stop-color="#ffffff"/>
    </radialGradient>
    <radialGradient cx="0" cy="0" gradientTransform="matrix(8.0E-4, 0.0, 0.0, 8.0E-4, -6.0, 13.5)" gradientUnits="userSpaceOnUse" id="gradient60" r="819.2" spreadMethod="pad">
      <stop offset="0.6235294117647059" stop-color="#dbdcd1"/>
      <stop offset="0.6588235294117647" stop-color="#ffffff"/>
    </radialGradient>
  </defs>
</svg>
