<?xml version="1.0" encoding="UTF-8" standalone="no"?>
<svg xmlns:xlink="http://www.w3.org/1999/xlink" height="271.25px" width="433.5px" xmlns="http://www.w3.org/2000/svg">
  <g transform="matrix(1.0, 0.0, 0.0, 1.0, 234.0, 92.0)">
    <path d="M76.5 -89.25 L47.5 -75.5 Q38.5 -72.75 37.5 -74.25 45.0 -83.0 78.5 -92.0 79.0 -91.25 76.5 -89.25 M77.0 -37.75 L73.5 -27.5 Q72.25 -23.75 66.0 -22.25 51.75 -24.0 53.25 -46.0 53.5 -59.25 69.5 -62.75 L75.5 -49.0 77.0 -37.75 M140.25 -52.25 L141.75 -52.25 145.25 -49.25 145.5 -48.75 147.0 -43.75 147.25 -43.25 147.25 -43.0 145.75 -34.25 Q139.0 -21.25 130.0 -17.25 L129.75 -17.25 122.5 -14.0 120.0 -13.75 115.5 -13.75 111.75 -16.5 Q109.75 -19.75 115.5 -32.0 L124.0 -41.0 140.25 -52.25 M159.75 -25.5 L164.25 -31.0 164.75 -31.25 165.5 -31.5 166.5 -32.0 167.25 -32.25 171.25 -34.0 181.75 -34.0 182.25 -33.75 189.25 -31.25 189.75 -31.0 193.25 -28.0 193.75 -27.75 197.25 -24.5 197.25 -23.75 197.75 -21.75 198.0 -21.25 198.0 -20.5 199.0 -16.5 199.25 -16.0 199.25 -15.25 199.5 -14.25 196.0 -5.25 191.25 -1.25 191.25 1.5 189.0 9.75 183.0 19.5 181.5 19.25 177.75 14.25 175.25 9.25 174.0 3.0 173.75 2.25 173.75 1.5 164.25 -5.25 157.75 -14.5 159.75 -25.5 M1.0 140.25 Q-5.25 143.5 -12.5 140.5 L-19.0 134.0 -21.25 120.75 -21.0 120.0 -20.75 118.5 -20.5 117.75 -20.0 115.25 -19.75 114.5 -19.5 113.0 -18.0 108.5 -17.5 107.75 -17.0 106.75 -16.5 106.0 -15.75 104.5 -15.25 103.75 -14.5 102.25 -14.0 101.5 -13.5 100.5 -13.0 99.75 -8.0 94.0 -6.0 93.0 -1.75 95.5 6.0 102.25 11.25 112.5 10.25 125.25 7.5 133.75 1.0 140.25 M-43.25 65.25 Q-24.0 54.25 -3.25 61.0 2.75 71.25 -21.25 77.0 -17.75 97.5 -32.25 109.0 L-40.5 111.75 -47.5 108.25 -52.25 101.0 Q-55.0 93.0 -53.75 92.0 L-51.75 89.0 -51.5 88.5 -49.5 85.5 -49.25 85.0 -42.25 75.5 -41.5 75.0 -41.0 74.25 -42.5 70.5 -43.25 65.25 M-104.0 45.75 L-101.0 42.75 -100.0 41.25 -99.5 41.5 Q-85.0 66.0 -101.75 86.25 L-101.25 86.75 -101.0 86.75 -100.0 87.25 -99.25 87.5 -98.75 87.75 -98.0 88.0 -97.0 88.5 -96.25 88.75 -95.75 89.0 -95.0 89.25 -94.5 89.5 -94.25 89.25 -94.25 89.0 -94.75 87.0 -94.75 86.0 -95.0 84.5 -95.0 82.0 -95.25 80.5 -95.25 79.0 -94.75 76.5 -94.75 75.75 -94.5 75.0 -94.5 74.25 -94.25 73.5 -91.25 71.5 Q-89.5 71.25 -84.0 80.25 L-80.5 91.0 -77.75 106.25 -77.75 110.0 -80.25 111.5 -84.0 110.75 -88.5 105.5 -89.75 102.75 -90.25 102.25 Q-88.0 116.0 -119.25 114.25 -121.0 114.5 -126.5 108.0 L-128.25 102.75 -125.75 96.25 -122.75 93.5 -122.0 93.0 -119.25 90.5 -111.5 87.0 -111.0 87.0 -110.75 86.75 -111.0 86.0 -113.5 82.5 -113.75 81.75 -113.75 81.0 -114.0 80.25 -114.0 79.5 -114.25 78.75 -114.5 77.25 -114.5 73.25 -114.25 71.25 -114.0 63.25 -109.5 52.75 -109.0 52.25 -104.25 46.25 -104.0 45.75 M-196.5 117.75 L-196.5 117.5 -196.0 117.25 -196.5 117.75" fill="#ffffff" fill-rule="evenodd" stroke="none"/>
    <path d="M-229.75 179.25 L-233.5 176.5 Q-235.5 173.25 -229.75 161.0 L-221.25 152.0 -205.0 140.75 -203.5 140.75 -200.0 143.75 -199.75 144.25 -198.25 149.25 -198.0 149.75 -198.0 150.0 -199.5 158.75 Q-206.25 171.75 -215.25 175.75 L-215.5 175.75 -222.75 179.0 -225.25 179.25 -229.75 179.25" fill="#ffffff" fill-rule="evenodd" stroke="none"/>
  </g>
</svg>
