<?xml version="1.0" encoding="UTF-8" standalone="no"?>
<svg xmlns:xlink="http://www.w3.org/1999/xlink" height="308.1px" width="509.65px" xmlns="http://www.w3.org/2000/svg">
  <g transform="matrix(1.0, 0.0, 0.0, 1.0, 196.9, 119.5)">
    <path d="M136.5 -104.0 L141.75 -89.0 142.5 -79.75 Q138.0 -56.25 126.5 -67.75 L124.0 -71.75 122.75 -75.0 121.25 -81.25 121.5 -82.0 121.5 -83.75 121.75 -84.5 122.25 -91.5 124.5 -96.0 125.0 -96.75 Q124.0 -98.75 131.0 -103.25 L136.5 -104.0 M14.75 -28.5 L16.0 -27.75 17.75 -22.25 19.0 -12.75 18.25 0.0 Q13.75 23.25 3.0 16.0 L1.0 11.0 0.75 9.25 0.75 6.25 0.5 4.0 0.75 2.75 0.75 1.75 1.0 0.5 1.0 -0.5 1.25 -1.75 1.25 -2.75 1.5 -4.0 1.5 -5.0 1.75 -6.25 1.75 -7.25 2.0 -8.5 2.0 -9.5 6.25 -19.25 14.0 -27.5 14.75 -28.5 M276.25 -104.75 L276.25 -104.5 Q260.75 -80.0 241.25 -82.5 L236.0 -85.5 Q233.75 -87.5 238.75 -99.25 L248.0 -108.0 266.75 -119.5 Q273.75 -118.5 274.75 -114.75 L276.75 -111.5 276.25 -104.75 M310.75 -77.75 L312.75 -65.75 308.5 -57.5 299.75 -50.0 Q292.5 -46.25 290.0 -46.5 L274.75 -57.25 269.0 -66.5 271.5 -77.75 Q275.75 -85.75 278.25 -84.75 L278.75 -85.0 281.25 -86.0 281.75 -86.25 284.25 -87.25 284.75 -87.5 293.0 -87.5 295.5 -87.25 297.75 -86.5 298.25 -86.25 299.75 -85.75 300.25 -85.5 302.5 -84.75 303.0 -84.5 305.75 -82.5 307.75 -80.5 308.75 -79.75 310.75 -77.75 M255.25 -42.5 L255.5 -46.5 255.75 -47.25 Q264.0 -64.0 272.0 -45.0 275.0 -25.0 263.0 -17.0 L262.0 -18.0 259.25 -21.5 259.0 -22.25 258.5 -23.25 258.25 -24.0 257.5 -25.5 257.25 -26.25 256.25 -28.5 256.0 -29.25 255.75 -31.25 255.5 -32.0 255.25 -34.0 255.0 -34.75 254.75 -36.75 254.75 -39.5 255.0 -40.25 255.0 -41.75 255.25 -42.5 M195.25 31.25 L197.75 24.5 200.75 20.0 Q204.5 38.75 194.0 58.25 191.75 59.0 191.5 55.5 L192.25 43.75 195.25 31.25 M88.75 7.0 L97.0 10.75 97.5 13.0 Q109.75 20.75 101.0 44.0 L94.5 53.0 86.0 54.5 Q80.0 50.0 80.25 48.75 L80.0 48.0 79.25 46.5 79.0 45.75 78.5 44.75 78.25 44.0 77.5 42.5 76.75 40.25 76.5 39.0 76.5 38.25 76.25 37.5 76.0 36.25 76.0 35.5 75.75 34.75 75.5 33.5 75.5 33.0 76.0 30.25 62.5 29.75 58.0 25.5 57.75 14.5 59.5 13.25 59.75 13.25 66.25 10.25 78.25 7.25 88.75 7.0 M115.5 48.25 L126.25 59.5 130.5 70.25 129.5 81.0 Q124.5 104.75 108.5 96.5 L108.0 95.75 106.0 93.25 105.5 92.5 103.25 89.75 103.0 89.0 103.0 88.0 102.75 87.25 102.75 86.5 102.5 85.75 102.5 84.75 102.25 84.0 102.25 83.25 102.0 82.25 102.0 81.5 101.75 80.75 101.75 79.75 101.5 79.0 101.5 78.25 101.25 77.5 101.25 75.5 103.5 64.75 108.75 54.25 110.75 52.25 111.5 51.25 112.75 50.0 113.5 49.0 115.5 48.25 M3.75 25.75 L9.0 36.25 Q11.25 35.5 13.25 43.0 L12.25 51.0 13.75 61.75 Q14.5 64.75 11.25 64.75 L9.0 63.5 8.75 63.25 7.5 62.75 5.0 59.0 -7.0 61.0 -17.25 59.25 -21.75 53.0 -23.0 47.75 -22.75 46.25 Q-20.25 40.0 -18.75 40.0 L-18.25 39.75 -17.5 39.0 -17.0 38.75 -16.25 38.0 -15.75 37.75 -15.0 37.0 -14.5 36.75 -13.75 36.0 -8.5 33.75 -8.25 33.75 -6.5 32.75 -1.5 32.75 -1.5 30.0 -1.25 29.25 -0.5 25.5 Q1.75 22.75 3.75 25.75 M-130.15 88.4 L-128.05 79.05 Q-124.55 72.45 -122.45 73.25 L-122.05 73.05 -117.05 71.0 -110.2 71.0 -108.15 71.2 -106.3 71.8 -105.85 72.05 -104.65 72.45 -104.2 72.65 -102.35 73.25 -99.65 75.15 -98.0 76.8 -97.15 77.4 -95.5 79.05 -93.85 89.05 -97.35 95.85 -104.65 102.1 Q-110.65 105.2 -112.7 105.0 L-125.35 96.05 -130.15 88.4 M-145.5 72.0 L-144.75 72.75 Q-130.5 89.75 -139.5 104.5 L-141.25 107.25 -147.0 110.25 -153.75 109.25 -154.75 108.5 -154.0 111.5 -155.25 117.25 -156.75 116.5 -167.0 105.5 Q-181.5 88.0 -176.25 83.5 L-172.25 85.0 -167.0 90.0 -167.0 90.25 -163.0 94.5 -163.5 86.25 -160.75 78.0 Q-151.25 62.25 -145.5 72.0 M-93.0 111.25 Q-92.0 112.0 -94.75 116.75 L-102.0 126.5 -112.25 137.5 Q-114.25 140.25 -119.25 141.0 L-119.25 140.0 -115.25 134.75 -115.0 134.5 -108.0 125.5 -107.75 125.25 Q-96.5 110.5 -93.0 111.25 M-158.75 184.0 L-159.5 184.75 -160.0 185.5 -161.0 186.5 -162.75 187.25 -163.0 187.25 Q-175.75 191.0 -186.75 184.5 L-187.0 184.5 -193.0 180.0 -196.5 174.75 Q-199.25 166.75 -182.0 166.5 L-172.75 169.0 -157.75 176.75 -156.5 178.25 -157.25 182.25 -158.0 183.0 -158.75 184.0" fill="#ffffff" fill-rule="evenodd" stroke="none"/>
  </g>
</svg>
