<?xml version="1.0" encoding="UTF-8" standalone="no"?>
<svg xmlns:xlink="http://www.w3.org/1999/xlink" height="270.5px" width="413.65px" xmlns="http://www.w3.org/2000/svg">
  <g transform="matrix(1.0, 0.0, 0.0, 1.0, 152.65, 179.4)">
    <path d="M46.35 -55.0 L48.6 -55.9 49.1 -55.9 59.85 -44.5 63.1 -35.4 61.25 -28.15 68.5 -22.65 73.25 -16.5 73.85 -12.4 71.1 -7.0 69.5 -6.65 62.75 -6.4 44.85 -11.5 43.35 -13.0 40.1 -17.65 Q37.75 -17.15 32.85 -25.25 L32.0 -36.5 35.5 -45.0 41.75 -52.0 46.35 -55.0 M258.25 -178.75 L261.0 -163.15 261.0 -152.4 Q258.35 -141.0 254.6 -140.65 L252.25 -140.75 252.1 -140.9 249.25 -144.5 249.25 -144.65 247.1 -150.15 247.0 -152.5 246.85 -153.15 246.85 -153.5 246.75 -154.15 246.75 -154.5 246.6 -155.15 246.6 -155.5 246.25 -158.25 246.25 -158.65 246.0 -158.75 246.25 -159.4 246.25 -159.65 246.35 -160.25 246.35 -160.65 246.5 -161.25 246.5 -161.65 246.6 -162.25 246.6 -162.65 246.75 -163.15 246.75 -163.5 246.85 -164.15 246.85 -164.5 247.0 -165.15 247.0 -165.5 247.1 -166.0 247.1 -166.4 247.25 -167.0 247.25 -167.4 247.35 -168.0 247.35 -168.5 247.5 -170.0 248.25 -171.25 250.5 -176.0 253.35 -178.4 253.75 -178.5 254.0 -178.9 254.35 -179.15 257.35 -179.4 258.25 -178.75 M230.1 -150.9 Q233.6 -164.25 240.5 -165.15 L241.0 -164.75 240.85 -156.25 239.75 -144.5 237.75 -133.9 233.85 -122.25 230.85 -118.65 228.6 -119.15 Q223.85 -129.25 230.1 -150.9 M69.75 20.85 L74.1 27.1 76.25 35.1 76.5 43.85 74.1 52.75 68.1 58.25 67.0 58.85 66.35 58.75 63.75 58.75 63.1 58.6 60.25 58.5 59.75 58.1 59.35 58.0 57.6 56.75 57.25 56.6 55.5 55.35 55.1 55.25 53.35 54.1 52.85 53.35 52.5 53.0 52.25 52.6 51.85 52.25 51.6 51.85 51.25 51.5 51.1 51.25 50.6 50.75 50.5 50.5 50.1 50.1 49.25 49.0 48.85 48.25 48.35 47.0 48.5 46.6 48.5 46.25 48.6 45.85 48.75 44.6 48.85 44.25 48.85 43.85 49.0 43.5 49.25 41.5 49.35 41.1 49.35 40.5 49.85 38.1 50.0 37.75 50.1 37.0 50.25 36.6 50.35 35.85 50.5 35.5 52.0 28.5 56.75 20.5 65.1 19.0 69.75 20.85 M9.85 15.35 L10.35 15.5 16.0 21.5 Q19.85 30.5 19.25 38.75 L18.85 40.75 13.35 45.85 4.75 52.85 -4.4 55.75 -12.65 50.6 -16.0 45.1 -16.0 36.5 -15.65 35.0 -15.25 34.0 -15.15 33.6 -14.4 31.6 -14.25 31.35 -13.5 29.35 -13.4 29.0 -13.25 28.75 -12.65 27.0 -12.5 26.75 -12.5 26.25 -10.9 24.5 -10.9 24.35 -8.5 21.35 -8.5 21.25 -7.4 19.5 -1.9 15.85 -8.4 7.85 -14.0 -1.25 -17.65 -10.65 -17.5 -15.0 -15.65 -16.4 Q-12.15 -18.0 -3.4 -5.5 L2.35 5.25 Q4.35 13.25 3.1 14.6 L3.5 14.75 4.0 14.75 4.6 14.85 5.1 14.85 5.85 15.0 6.35 15.0 7.0 15.1 7.5 15.1 8.25 15.25 8.75 15.25 9.35 15.35 9.85 15.35 M-63.15 -21.65 L-52.65 -26.9 -44.4 -30.15 Q-42.9 -30.5 -36.75 -23.5 L-30.65 -12.75 -29.15 -1.9 -34.25 10.75 -42.4 16.0 -51.5 17.6 -61.4 15.25 -68.75 8.85 -71.4 1.6 -71.0 -12.5 -63.15 -21.65 M-128.5 52.6 L-128.15 52.5 -125.25 52.1 -117.15 56.25 -112.5 62.1 -110.15 70.35 -111.65 79.35 -115.65 84.5 -126.25 91.1 -137.15 89.75 -146.15 84.25 -152.4 79.6 Q-153.4 78.5 -150.75 70.35 L-145.25 60.5 -137.25 53.85 -135.25 53.6 -134.9 53.5 -131.9 53.1 -131.5 53.0 -128.5 52.6" fill="#ffffff" fill-rule="evenodd" stroke="none"/>
    <path d="M193.4 -69.5 L193.5 -69.5 199.5 -64.35 Q200.25 -49.0 178.5 -39.75 L171.15 -38.85 161.5 -40.6 158.5 -47.5 160.0 -56.0 160.0 -56.35 161.65 -62.0 Q162.0 -63.5 171.15 -67.1 L182.75 -70.25 192.9 -70.0 193.4 -69.5" fill="#ffffff" fill-rule="evenodd" stroke="none"/>
  </g>
</svg>
