<?xml version="1.0" encoding="UTF-8" standalone="no"?>
<svg xmlns:xlink="http://www.w3.org/1999/xlink" height="60.0px" width="123.0px" xmlns="http://www.w3.org/2000/svg">
  <g transform="matrix(1.0, 0.0, 0.0, 1.0, 61.5, 29.5)">
    <path d="M16.8 -25.75 Q17.5 -25.05 17.5 -24.0 L17.5 -20.0 17.45 -19.45 18.65 -18.9 19.4 -17.8 Q21.45 -11.6 27.0 -8.3 43.75 -3.25 53.25 3.0 61.7 8.55 61.0 12.4 L61.25 12.9 Q61.55 13.5 61.5 14.25 61.45 14.95 61.0 15.5 L55.5 22.85 55.5 24.0 Q55.5 25.05 54.8 25.8 L50.8 29.8 Q50.15 30.4 49.25 30.5 48.35 30.55 47.6 30.1 L46.4 29.3 44.85 29.5 43.75 29.15 42.9 28.35 Q38.65 21.65 32.2 17.55 L32.15 17.55 Q26.05 13.65 18.7 12.6 17.6 13.3 16.65 14.25 L16.7 14.25 Q14.85 15.95 14.5 17.4 14.35 18.3 13.65 18.9 12.9 19.5 12.0 19.5 L-2.0 19.5 Q-2.85 19.5 -3.5 19.0 -4.2 18.45 -4.4 17.65 L-7.65 5.5 -51.0 5.5 Q-52.05 5.5 -52.75 4.8 -53.5 4.05 -53.5 3.0 L-53.5 1.05 Q-53.5 0.5 -54.05 0.5 L-59.0 0.5 Q-60.05 0.5 -60.75 -0.2 -61.5 -0.95 -61.5 -2.0 L-61.5 -26.0 Q-61.5 -27.05 -60.75 -27.75 -60.05 -28.5 -59.0 -28.5 L-57.0 -28.5 -56.75 -28.75 Q-56.05 -29.5 -55.0 -29.5 L-49.0 -29.5 Q-47.95 -29.5 -47.2 -28.75 L-46.95 -28.5 -4.0 -28.5 -2.75 -28.15 -1.8 -27.2 -1.35 -26.6 -1.3 -26.6 2.0 -26.5 15.0 -26.5 Q16.05 -26.5 16.8 -25.75 M13.6 7.2 L13.05 6.55 13.1 6.65 12.25 5.7 11.9 8.65 13.6 7.2 M4.4 7.05 Q4.25 5.15 3.35 3.55 L-0.4 3.75 1.95 12.5 2.6 12.5 3.1 11.6 Q4.6 9.75 4.4 7.05" fill="#000000" fill-rule="evenodd" stroke="none"/>
    <path d="M20.0 9.0 Q17.3 10.2 14.95 12.4 12.35 14.85 12.0 17.0 L-2.0 17.0 -6.0 2.0 -4.0 0.0 0.0 15.0 10.0 15.0 Q11.75 11.35 18.0 7.0 L20.0 9.0" fill="url(#gradient0)" fill-rule="evenodd" stroke="none"/>
    <path d="M6.9 6.85 Q6.6 3.05 4.0 0.2 L9.0 0.2 Q10.3 5.55 9.25 8.9 8.2 12.2 5.0 13.2 7.2 10.65 6.9 6.85" fill="url(#gradient1)" fill-rule="evenodd" stroke="none"/>
    <path d="M59.0 14.0 L53.0 22.0 53.0 24.0 49.0 28.0 46.0 26.0 58.0 12.0 59.0 14.0" fill="url(#gradient2)" fill-rule="evenodd" stroke="none"/>
    <path d="M44.7 25.1 L57.85 9.05 Q60.15 11.5 59.0 13.0 48.25 27.1 46.0 27.0 L44.7 25.1" fill="#000000" fill-opacity="0.2" fill-rule="evenodd" stroke="none"/>
    <path d="M5.8 2.95 L-0.5 3.45 Q-3.35 4.15 -4.0 5.0 L-8.0 5.0 -8.0 1.0 12.0 0.0 20.0 11.0 16.0 12.0 Q14.6 3.7 5.8 2.95" fill="#000000" fill-opacity="0.2509804" fill-rule="evenodd" stroke="none"/>
    <path d="M26.0 -6.0 Q42.55 -1.0 51.85 5.1 60.0 10.45 58.0 13.0 47.25 27.1 45.0 27.0 40.45 19.85 33.5 15.45 26.5 11.0 18.0 10.0 17.95 8.9 17.05 7.6 L15.0 5.0 18.8 1.2 18.15 0.5 21.45 -2.8 22.15 -2.15 26.0 -6.0" fill="url(#gradient3)" fill-rule="evenodd" stroke="none"/>
    <path d="M15.2 5.2 L19.0 1.4 18.15 0.55 21.45 -2.75 22.35 -1.95 26.2 -5.8" fill="none" stroke="#505050" stroke-linecap="round" stroke-linejoin="round" stroke-width="0.25"/>
    <path d="M18.0 10.0 L24.0 7.0 Q40.0 11.25 49.0 24.0" fill="none" stroke="#000000" stroke-linecap="round" stroke-linejoin="round" stroke-width="0.25"/>
    <path d="M-59.0 -4.0 L-21.0 -4.0 -21.0 3.0 -51.0 3.0 -51.0 1.05 Q-51.0 -2.0 -54.05 -2.0 L-59.0 -2.0 -59.0 -4.0" fill="url(#gradient4)" fill-rule="evenodd" stroke="none"/>
    <path d="M15.0 -24.0 L15.0 -20.0 2.0 -20.0 2.0 -22.0 -59.0 -22.0 -59.0 -26.0 -4.0 -26.0 Q-3.15 -24.5 -1.95 -24.2 L2.0 -24.0 15.0 -24.0" fill="url(#gradient5)" fill-rule="evenodd" stroke="none"/>
    <path d="M3.0 -24.0 L3.0 -22.0" fill="none" stroke="#202020" stroke-linecap="square" stroke-linejoin="round" stroke-width="0.25"/>
    <path d="M14.7 -24.0 L-1.0 -24.0 Q-1.85 -24.0 -2.8 -24.7 L-4.0 -26.0 -58.8 -26.0" fill="none" stroke="#813f3f" stroke-linecap="square" stroke-linejoin="round" stroke-width="0.5"/>
    <path d="M17.0 -17.0 Q19.45 -9.75 26.0 -6.0 L22.7 -2.65 22.4 -2.95 Q21.3 -3.9 20.35 -2.95 L18.05 -0.65 Q17.05 0.45 18.1 1.4 L18.35 1.65 15.0 5.0 Q13.05 2.7 11.5 1.95 9.45 1.0 5.0 1.0 L-2.1 1.45 Q-3.6 1.8 -5.0 3.0 L-22.0 3.0 Q-23.85 1.75 -23.9 -0.5 -23.9 -2.8 -22.0 -4.0 L-5.0 -4.0 -5.0 -8.0 3.0 -8.0 3.0 -22.0 10.0 -22.0 Q11.9 -17.9 17.0 -17.0" fill="url(#gradient6)" fill-rule="evenodd" stroke="none"/>
    <path d="M-5.0 -8.0 L3.0 -8.0" fill="none" stroke="#ca0202" stroke-linecap="square" stroke-linejoin="round" stroke-width="0.5"/>
    <path d="M26.0 -6.0 L22.7 -2.65 22.4 -2.95 Q21.3 -3.9 20.35 -2.95 L18.05 -0.65 Q17.05 0.45 18.1 1.4 L18.35 1.65 15.0 5.0" fill="none" stroke="#000000" stroke-linecap="round" stroke-linejoin="round" stroke-width="0.25"/>
    <path d="M19.9 -5.05 L20.65 -4.35 M15.65 -0.85 L16.4 -0.15" fill="none" stroke="#000000" stroke-linecap="round" stroke-linejoin="round" stroke-width="0.5"/>
    <path d="M-20.45 -2.05 L-19.35 -1.6 Q-18.85 -1.1 -18.85 -0.45 -18.85 0.2 -19.35 0.65 -19.8 1.15 -20.45 1.15 -21.1 1.15 -21.6 0.65 -22.05 0.2 -22.05 -0.45 -22.05 -1.1 -21.6 -1.6 -21.1 -2.05 -20.45 -2.05" fill="url(#gradient7)" fill-rule="evenodd" stroke="none"/>
    <path d="M11.9 -15.0 L12.65 -14.7 13.0 -13.9 13.0 -13.1 Q13.0 -12.65 12.65 -12.35 12.35 -12.0 11.9 -12.0 L9.1 -12.0 Q8.65 -12.0 8.3 -12.35 8.0 -12.65 8.0 -13.1 L8.0 -13.9 Q8.0 -14.35 8.3 -14.7 L9.1 -15.0 11.9 -15.0" fill="#000000" fill-rule="evenodd" stroke="none"/>
    <path d="M3.0 -21.95 Q6.25 -21.85 8.55 -19.55 11.0 -17.05 11.0 -13.5 11.0 -9.95 8.55 -7.5 6.25 -5.2 3.0 -5.0 L3.0 -21.95" fill="url(#gradient8)" fill-rule="evenodd" stroke="none"/>
    <path d="M6.4 -17.4 Q8.0 -15.8 8.0 -13.5 8.0 -11.2 6.4 -9.6 5.0 -8.2 3.0 -8.0 L3.0 -18.95 Q5.0 -18.8 6.4 -17.4" fill="url(#gradient9)" fill-rule="evenodd" stroke="none"/>
    <path d="M3.0 -4.0 L-59.0 -4.0 -59.0 -22.0 3.0 -22.0 3.0 -4.0" fill="url(#gradient10)" fill-rule="evenodd" stroke="none"/>
    <path d="M3.0 -22.0 L-59.0 -22.0 -59.0 -23.0 3.0 -23.0 3.0 -22.0 M-22.0 -4.0 L3.0 -4.0 3.0 -3.0 -23.1 -3.0 -22.0 -4.0 M-24.2 -3.0 L-59.0 -3.0 -59.0 -4.0 -23.1 -4.0 -24.2 -3.0" fill="#000000" fill-opacity="0.2509804" fill-rule="evenodd" stroke="none"/>
    <path d="M-23.1 -3.0 Q-23.9 -2.0 -23.9 -0.5 -23.85 1.75 -22.0 3.0 L-23.1 3.0 Q-24.95 1.75 -25.0 -0.5 -25.0 -2.0 -24.2 -3.0 L-23.1 -4.0 -22.0 -4.0 -23.1 -3.0" fill="#000000" fill-opacity="0.2" fill-rule="evenodd" stroke="none"/>
    <path d="M-9.9 -8.0 L2.85 -8.0" fill="none" stroke="#717171" stroke-linecap="square" stroke-linejoin="round" stroke-width="0.25"/>
    <path d="M1.0 -18.0 L1.0 -9.0 -10.0 -9.0 -10.0 -18.0 1.0 -18.0" fill="url(#gradient11)" fill-rule="evenodd" stroke="none"/>
    <path d="M1.0 -9.0 L1.0 -18.0 3.0 -19.0 3.0 -8.0 1.0 -9.0" fill="url(#gradient12)" fill-rule="evenodd" stroke="none"/>
    <path d="M1.0 -18.0 L1.0 -9.0 0.0 -9.0 0.0 -18.0 1.0 -18.0 M-9.0 -18.0 L-9.0 -9.0 -10.0 -9.0 -10.0 -18.0 -9.0 -18.0" fill="#000000" fill-opacity="0.2509804" fill-rule="evenodd" stroke="none"/>
    <path d="M1.0 -9.0 L3.0 -8.0 -10.0 -8.0 -10.0 -9.0 1.0 -9.0 M3.0 -19.0 L1.0 -18.0 -10.0 -18.0 -10.0 -19.0 3.0 -19.0" fill="url(#gradient13)" fill-rule="evenodd" stroke="none"/>
    <path d="M3.0 -12.0 L-10.0 -12.0 -10.0 -19.0 3.0 -19.0 3.0 -12.0" fill="url(#gradient14)" fill-rule="evenodd" stroke="none"/>
    <path d="M-17.0 -20.0 L-17.0 -19.0 -19.0 -19.0 -19.0 -20.0 -17.0 -20.0 M-19.0 -6.0 L-19.0 -7.0 -17.0 -7.0 -17.0 -6.0 -19.0 -6.0" fill="#000000" fill-rule="evenodd" stroke="none"/>
    <path d="M-17.0 -22.0 L-17.0 -4.0" fill="none" stroke="#000000" stroke-linecap="round" stroke-linejoin="round" stroke-width="0.25"/>
    <path d="M-55.0 -27.0 L-49.0 -27.0 -49.0 -20.0 -55.0 -20.0 -55.0 -27.0" fill="url(#gradient15)" fill-rule="evenodd" stroke="none"/>
  </g>
  <defs>
    <linearGradient gradientTransform="matrix(0.0, -0.0104, 0.0104, 0.0, 7.0, 8.5)" gradientUnits="userSpaceOnUse" id="gradient0" spreadMethod="pad" x1="-819.2" x2="819.2">
      <stop offset="0.0" stop-color="#9f9f9f"/>
      <stop offset="0.023529411764705882" stop-color="#515151"/>
      <stop offset="1.0" stop-color="#404040"/>
    </linearGradient>
    <linearGradient gradientTransform="matrix(0.0041, 0.0088, -0.0072, 0.0034, 5.35, 6.3)" gradientUnits="userSpaceOnUse" id="gradient1" spreadMethod="pad" x1="-819.2" x2="819.2">
      <stop offset="0.0" stop-color="#666666"/>
      <stop offset="1.0" stop-color="#2b2b2b"/>
    </linearGradient>
    <linearGradient gradientTransform="matrix(0.0074, -0.0085, 0.0074, 0.0064, 52.8, 19.5)" gradientUnits="userSpaceOnUse" id="gradient2" spreadMethod="pad" x1="-819.2" x2="819.2">
      <stop offset="0.050980392156862744" stop-color="#4a4a4a"/>
      <stop offset="0.4666666666666667" stop-color="#313131"/>
      <stop offset="0.7803921568627451" stop-color="#3c3c3c"/>
      <stop offset="1.0" stop-color="#787878"/>
    </linearGradient>
    <radialGradient cx="0" cy="0" gradientTransform="matrix(0.0459, 0.0152, -0.0078, 0.0235, 27.6, 14.1)" gradientUnits="userSpaceOnUse" id="gradient3" r="819.2" spreadMethod="pad">
      <stop offset="0.0" stop-color="#2b2b2b"/>
      <stop offset="0.26666666666666666" stop-color="#353535"/>
      <stop offset="0.792156862745098" stop-color="#1c1c1c"/>
      <stop offset="0.8941176470588236" stop-color="#2e2e2e"/>
    </radialGradient>
    <linearGradient gradientTransform="matrix(0.0, -0.0043, 0.0043, 0.0, -40.0, -0.5)" gradientUnits="userSpaceOnUse" id="gradient4" spreadMethod="pad" x1="-819.2" x2="819.2">
      <stop offset="0.027450980392156862" stop-color="#353535"/>
      <stop offset="0.08235294117647059" stop-color="#555555"/>
      <stop offset="1.0" stop-color="#383838"/>
    </linearGradient>
    <linearGradient gradientTransform="matrix(0.0, -0.0037, 0.0037, 0.0, -22.0, -23.0)" gradientUnits="userSpaceOnUse" id="gradient5" spreadMethod="pad" x1="-819.2" x2="819.2">
      <stop offset="0.0" stop-color="#202020"/>
      <stop offset="0.027450980392156862" stop-color="#3c3c3c"/>
      <stop offset="0.050980392156862744" stop-color="#464646"/>
      <stop offset="1.0" stop-color="#2e2e2e"/>
    </linearGradient>
    <linearGradient gradientTransform="matrix(0.0037, -0.0218, 0.0163, 0.0027, 1.05, -8.5)" gradientUnits="userSpaceOnUse" id="gradient6" spreadMethod="pad" x1="-819.2" x2="819.2">
      <stop offset="0.0" stop-color="#666666"/>
      <stop offset="0.8196078431372549" stop-color="#2b2b2b"/>
    </linearGradient>
    <radialGradient cx="0" cy="0" gradientTransform="matrix(0.0026, 0.0, 0.0, 0.0026, -20.5, -0.5)" gradientUnits="userSpaceOnUse" id="gradient7" r="819.2" spreadMethod="pad">
      <stop offset="0.0" stop-color="#636363"/>
      <stop offset="0.6549019607843137" stop-color="#6a6a6a"/>
      <stop offset="0.6823529411764706" stop-color="#000000"/>
    </radialGradient>
    <linearGradient gradientTransform="matrix(3.0E-4, -0.0109, 0.0103, 3.0E-4, 6.2, -14.0)" gradientUnits="userSpaceOnUse" id="gradient8" spreadMethod="pad" x1="-819.2" x2="819.2">
      <stop offset="0.07450980392156863" stop-color="#383838"/>
      <stop offset="0.25882352941176473" stop-color="#262626"/>
      <stop offset="0.43137254901960786" stop-color="#3c3c3c"/>
      <stop offset="0.7803921568627451" stop-color="#5b5b5b"/>
    </linearGradient>
    <linearGradient gradientTransform="matrix(2.0E-4, 0.0076, -0.0067, 2.0E-4, 6.0, -13.8)" gradientUnits="userSpaceOnUse" id="gradient9" spreadMethod="pad" x1="-819.2" x2="819.2">
      <stop offset="0.0" stop-color="#3c3c3c"/>
      <stop offset="1.0" stop-color="#787878"/>
    </linearGradient>
    <linearGradient gradientTransform="matrix(0.0, -0.011, 0.011, 0.0, -28.0, -13.0)" gradientUnits="userSpaceOnUse" id="gradient10" spreadMethod="pad" x1="-819.2" x2="819.2">
      <stop offset="0.0" stop-color="#434343"/>
      <stop offset="0.33725490196078434" stop-color="#232323"/>
      <stop offset="0.4470588235294118" stop-color="#353535"/>
      <stop offset="0.5568627450980392" stop-color="#555555"/>
      <stop offset="0.7098039215686275" stop-color="#838383"/>
      <stop offset="0.7686274509803922" stop-color="#8d8d8d"/>
      <stop offset="0.8274509803921568" stop-color="#838383"/>
      <stop offset="1.0" stop-color="#3c3c3c"/>
    </linearGradient>
    <linearGradient gradientTransform="matrix(0.0, -0.0055, 0.0055, 0.0, -4.5, -13.5)" gradientUnits="userSpaceOnUse" id="gradient11" spreadMethod="pad" x1="-819.2" x2="819.2">
      <stop offset="0.0" stop-color="#8c1932"/>
      <stop offset="0.22745098039215686" stop-color="#58122c"/>
      <stop offset="0.4392156862745098" stop-color="#941d3c"/>
      <stop offset="0.6666666666666666" stop-color="#d94268"/>
      <stop offset="0.7294117647058823" stop-color="#d9486c"/>
      <stop offset="0.807843137254902" stop-color="#d94268"/>
      <stop offset="1.0" stop-color="#b72449"/>
    </linearGradient>
    <linearGradient gradientTransform="matrix(0.0, -0.0065, 0.0067, 0.0, 2.0, -13.5)" gradientUnits="userSpaceOnUse" id="gradient12" spreadMethod="pad" x1="-819.2" x2="819.2">
      <stop offset="0.0" stop-color="#991e3e"/>
      <stop offset="0.23529411764705882" stop-color="#741840"/>
      <stop offset="0.4392156862745098" stop-color="#b12347"/>
      <stop offset="0.6666666666666666" stop-color="#da5073"/>
      <stop offset="0.7294117647058823" stop-color="#d9486c"/>
      <stop offset="0.807843137254902" stop-color="#db5577"/>
      <stop offset="1.0" stop-color="#bc254b"/>
    </linearGradient>
    <linearGradient gradientTransform="matrix(0.0, -0.0068, 0.0067, 0.0, -3.5, -13.5)" gradientUnits="userSpaceOnUse" id="gradient13" spreadMethod="pad" x1="-819.2" x2="819.2">
      <stop offset="0.0" stop-color="#585858"/>
      <stop offset="0.058823529411764705" stop-color="#482223"/>
      <stop offset="0.11764705882352941" stop-color="#000000"/>
    </linearGradient>
    <linearGradient gradientTransform="matrix(0.0, -0.0043, 0.0043, 0.0, -3.5, -15.5)" gradientUnits="userSpaceOnUse" id="gradient14" spreadMethod="pad" x1="-819.2" x2="819.2">
      <stop offset="0.6862745098039216" stop-color="#000000" stop-opacity="0.101960786"/>
      <stop offset="0.807843137254902" stop-color="#000000" stop-opacity="0.7019608"/>
    </linearGradient>
    <linearGradient gradientTransform="matrix(0.0, -0.0042, 0.0031, 0.0, -51.95, -23.6)" gradientUnits="userSpaceOnUse" id="gradient15" spreadMethod="pad" x1="-819.2" x2="819.2">
      <stop offset="0.0" stop-color="#383838"/>
      <stop offset="0.01568627450980392" stop-color="#5b5b5b"/>
      <stop offset="0.054901960784313725" stop-color="#636363"/>
      <stop offset="0.9529411764705882" stop-color="#2e2e2e"/>
      <stop offset="1.0" stop-color="#8a8a8a"/>
    </linearGradient>
  </defs>
</svg>
