<?xml version="1.0" encoding="UTF-8" standalone="no"?>
<svg xmlns:xlink="http://www.w3.org/1999/xlink" height="528.0px" width="432.0px" xmlns="http://www.w3.org/2000/svg">
  <g transform="matrix(1.0, 0.0, 0.0, 1.0, -32.0, -48.0)">
    <path d="M384.0 368.0 Q417.15 368.0 440.55 391.4 464.0 414.85 464.0 448.0 464.0 481.15 440.55 504.55 417.15 528.0 384.0 528.0 350.85 528.0 327.4 504.55 304.0 481.15 304.0 448.0 304.0 414.85 327.4 391.4 350.85 368.0 384.0 368.0 M128.0 96.0 Q128.0 115.9 113.95 129.95 99.9 144.0 80.0 144.0 60.1 144.0 46.05 129.95 39.5 123.4 36.0 115.6 32.0 106.6 32.0 96.0 32.0 85.4 36.0 76.45 39.5 68.6 46.05 62.05 60.1 48.0 80.0 48.0 99.9 48.0 113.95 62.05 128.0 76.1 128.0 96.0" fill="#000000" fill-rule="evenodd" stroke="none"/>
    <path d="M145.95 494.05 Q160.0 508.1 160.0 528.0 160.0 547.9 145.95 561.95 131.9 576.0 112.0 576.0 92.1 576.0 78.05 561.95 64.0 547.9 64.0 528.0 64.0 508.1 78.05 494.05 92.1 480.0 112.0 480.0 131.9 480.0 145.95 494.05" fill="#000000" fill-rule="evenodd" stroke="none"/>
  </g>
</svg>
