<?xml version="1.0" encoding="UTF-8" standalone="no"?>
<svg xmlns:xlink="http://www.w3.org/1999/xlink" height="47.0px" width="140.0px" xmlns="http://www.w3.org/2000/svg">
  <g transform="matrix(1.0, 0.0, 0.0, 1.0, 3.0, 15.0)">
    <path d="M56.0 -12.0 L56.0 -3.0 134.0 -3.0 Q137.0 -3.0 137.0 0.0 L137.0 29.0 Q137.0 32.0 134.0 32.0 L0.0 32.0 Q-3.0 32.0 -3.0 29.0 L-3.0 -12.0 Q-3.0 -15.0 0.0 -15.0 L53.0 -15.0 Q56.0 -15.0 56.0 -12.0 M132.0 1.0 L2.0 1.0 Q1.0 1.0 1.0 2.0 L1.0 27.0 Q1.0 28.0 2.0 28.0 L132.0 28.0 Q133.0 28.0 133.0 27.0 L133.0 2.0 Q133.0 1.0 132.0 1.0" fill="#000000" fill-rule="evenodd" stroke="none"/>
    <path d="M55.0 -12.0 L55.0 -2.0 134.0 -2.0 Q136.0 -2.0 136.0 0.0 L136.0 29.0 Q136.0 31.0 134.0 31.0 L0.0 31.0 Q-2.0 31.0 -2.0 29.0 L-2.0 -12.0 Q-2.0 -14.0 0.0 -14.0 L53.0 -14.0 Q55.0 -14.0 55.0 -12.0 M134.0 2.0 Q134.0 0.0 132.0 0.0 L2.0 0.0 Q0.0 0.0 0.0 2.0 L0.0 27.0 Q0.0 29.0 2.0 29.0 L132.0 29.0 Q134.0 29.0 134.0 27.0 L134.0 2.0" fill="#00ff00" fill-rule="evenodd" stroke="none"/>
  </g>
</svg>
