<?xml version="1.0" encoding="UTF-8" standalone="no"?>
<svg xmlns:xlink="http://www.w3.org/1999/xlink" height="137.15px" width="44.15px" xmlns="http://www.w3.org/2000/svg">
  <g transform="matrix(1.0, 0.0, 0.0, 1.0, 10.65, 66.6)">
    <path d="M33.45 -65.9 Q33.8 -65.1 31.4 -62.35 21.7 -51.65 19.45 -41.45 19.25 -40.5 18.45 -39.95 16.95 -38.9 15.7 -37.5 L15.7 -37.45 Q12.8 -34.25 10.95 -29.1 8.4 -22.25 7.55 -12.2 L7.55 -12.15 Q7.0 -6.05 7.0 2.5 L7.2 2.8 Q7.55 3.4 7.5 4.1 L7.4 12.8 Q7.45 21.9 8.2 26.2 L8.45 27.55 8.4 28.7 6.95 30.75 5.5 32.4 5.5 34.25 Q6.5 35.15 6.5 37.0 L6.5 41.0 Q6.5 41.9 5.95 42.6 5.5 43.15 5.5 44.0 L5.5 59.0 5.15 61.75 Q4.65 64.25 3.85 65.6 2.45 68.05 1.05 69.2 -0.3 70.25 -2.0 70.5 -3.9 70.8 -7.05 67.9 L-7.1 67.9 Q-9.1 66.0 -9.65 64.75 -10.1 63.6 -9.65 62.35 -9.25 61.3 -8.15 60.5 L-6.95 59.75 Q-5.75 58.7 -5.5 57.8 -4.9 51.65 -5.5 44.2 L-5.5 44.0 Q-5.5 43.15 -5.9 42.6 -6.5 41.9 -6.5 41.0 L-6.5 40.0 Q-6.5 38.95 -5.75 38.25 L-5.4 37.95 -5.4 36.1 -5.75 35.8 Q-6.5 35.05 -6.5 34.0 L-6.5 32.0 Q-6.5 31.15 -5.95 30.45 L-5.8 30.35 -6.35 29.55 -6.85 29.0 Q-7.2 28.95 -8.15 29.4 L-9.6 29.95 Q-10.25 30.05 -10.5 27.1 -13.2 -55.9 29.4 -66.4 L32.05 -66.5 Q33.25 -66.35 33.45 -65.9" fill="#000000" fill-rule="evenodd" stroke="none"/>
    <path d="M6.0 -30.0 Q-3.65 -5.15 2.0 27.0 L-7.0 26.0 -8.0 27.0 Q-10.6 -53.5 30.0 -64.0 17.5 -52.85 10.2 -39.15 7.8 -34.7 6.0 -30.0" fill="url(#gradient0)" fill-rule="evenodd" stroke="none"/>
    <path d="M10.0 -42.0 Q18.75 -56.35 30.0 -64.0 19.3 -52.9 17.0 -42.0 L10.0 -42.0" fill="url(#gradient1)" fill-rule="evenodd" stroke="none"/>
    <path d="M13.85 -39.15 Q10.65 -35.6 8.6 -30.0 5.95 -22.85 5.05 -12.4 4.35 -4.3 4.55 7.9 L5.0 28.0 3.0 26.5 3.0 30.0 -3.0 30.0 -3.0 22.0 Q-2.65 20.35 -2.55 12.8 -2.45 3.7 -1.85 -2.5 -0.45 -17.6 4.3 -30.0 6.1 -34.75 8.45 -39.15 L10.0 -42.0 Q11.1 -42.85 13.6 -42.8 16.0 -42.75 17.0 -42.0 L13.85 -39.15" fill="url(#gradient2)" fill-rule="evenodd" stroke="none"/>
    <path d="M-4.6 27.8 Q-6.35 26.05 -8.0 27.0 L-3.0 22.0 Q0.5 25.1 0.0 32.0 L-3.0 32.0 Q-2.9 29.55 -4.6 27.8" fill="url(#gradient3)" fill-rule="evenodd" stroke="none"/>
    <path d="M3.0 10.0 L3.0 11.0 1.0 11.0 1.0 10.0 3.0 10.0 M3.0 13.0 L3.0 14.0 1.0 14.0 1.0 13.0 3.0 13.0 M3.0 16.0 L3.0 17.0 1.0 17.0 1.0 16.0 3.0 16.0 M3.0 19.0 L3.0 20.0 1.0 20.0 1.0 19.0 3.0 19.0" fill="#6d6d6d" fill-rule="evenodd" stroke="none"/>
    <path d="M2.8 60.9 Q2.5 60.9 1.9 61.4 1.45 63.4 -0.4 65.6 -1.35 65.65 -2.5 64.85 -5.2 62.95 -5.55 61.8 -3.15 59.9 -3.0 58.0 -2.4 51.7 -3.0 44.0 L3.0 44.0 3.0 59.0 2.8 60.9" fill="url(#gradient4)" fill-rule="evenodd" stroke="none"/>
    <path d="M-5.55 61.8 Q-5.2 62.95 -2.5 64.85 -1.35 65.65 -0.4 65.6 1.45 63.4 1.9 61.4 2.5 60.9 2.8 60.9 L1.85 63.9 0.8 65.8 Q-0.45 67.45 -2.0 68.0 -3.25 68.0 -5.4 66.05 -7.6 64.0 -7.0 63.0 L-6.5 62.4 -5.55 61.8" fill="url(#gradient5)" fill-rule="evenodd" stroke="none"/>
    <path d="M0.0 58.0 Q-1.15 58.0 -2.0 53.9 -2.8 49.8 -2.8 44.0 L2.8 44.0 Q2.8 49.8 1.95 53.9 1.15 58.0 0.0 58.0" fill="url(#gradient6)" fill-rule="evenodd" stroke="none"/>
    <path d="M1.55 44.5 L1.15 46.15 Q0.85 46.7 0.0 46.8 -0.85 46.7 -1.2 46.1 L-1.55 44.5 -2.95 44.5 -2.95 44.0 3.05 44.0 3.05 44.5 1.55 44.5" fill="#000000" fill-opacity="0.34117648" fill-rule="evenodd" stroke="none"/>
    <path d="M-3.0 40.0 Q-2.1 39.75 -2.0 38.0 L3.0 38.0 3.0 40.0 -3.0 40.0" fill="url(#gradient7)" fill-rule="evenodd" stroke="none"/>
    <path d="M3.0 40.0 L4.0 40.0 4.0 41.0 -4.0 41.0 -4.0 40.0 -3.0 40.0 3.0 40.0" fill="url(#gradient8)" fill-rule="evenodd" stroke="none"/>
    <path d="M3.0 44.0 L1.2 44.0 0.9 45.85 Q0.65 46.4 0.0 46.5 -0.65 46.4 -0.9 45.85 L-1.2 44.0 -3.0 44.0 Q-3.0 42.2 -4.0 41.0 L4.0 41.0 Q3.0 42.2 3.0 44.0" fill="url(#gradient9)" fill-rule="evenodd" stroke="none"/>
    <path d="M1.2 36.65 L-2.0 37.0 -2.15 35.1 Q-2.4 34.05 -3.0 34.0 L-4.0 34.0 -4.0 32.0 Q-0.4 31.15 0.65 29.1 2.0 26.45 2.15 18.05 2.45 11.65 2.0 7.75 3.15 6.55 4.45 4.0 L5.0 4.0 4.9 12.8 Q4.95 22.2 5.75 26.65 L6.0 28.0 5.85 28.25 Q2.6 29.65 1.95 30.55 1.45 31.15 1.3 33.15 L1.2 36.65" fill="url(#gradient10)" fill-rule="evenodd" stroke="none"/>
    <path d="M5.85 28.25 L4.45 29.75 Q3.0 31.4 3.0 32.0 L3.0 37.0 1.2 36.65 1.3 33.15 Q1.45 31.15 1.95 30.55 2.6 29.65 5.85 28.25" fill="url(#gradient11)" fill-rule="evenodd" stroke="none"/>
    <path d="M3.0 36.0 Q4.0 36.0 4.0 37.0 4.0 38.0 3.0 38.0 L-2.0 38.0 Q-3.0 38.0 -3.0 37.0 -3.0 36.0 -2.0 36.0 L3.0 36.0" fill="url(#gradient12)" fill-rule="evenodd" stroke="none"/>
  </g>
  <defs>
    <linearGradient gradientTransform="matrix(0.0274, -0.0546, 0.0495, 0.0248, 10.65, -18.35)" gradientUnits="userSpaceOnUse" id="gradient0" spreadMethod="pad" x1="-819.2" x2="819.2">
      <stop offset="0.0" stop-color="#4e4e4e"/>
      <stop offset="0.2" stop-color="#2f2f2f"/>
      <stop offset="0.49411764705882355" stop-color="#232323"/>
      <stop offset="0.7137254901960784" stop-color="#6d6d6d"/>
      <stop offset="1.0" stop-color="#111111"/>
    </linearGradient>
    <linearGradient gradientTransform="matrix(-0.0058, -0.0117, 0.012, -0.0059, 17.7, -53.6)" gradientUnits="userSpaceOnUse" id="gradient1" spreadMethod="pad" x1="-819.2" x2="819.2">
      <stop offset="0.050980392156862744" stop-color="#aaaaaa"/>
      <stop offset="0.1803921568627451" stop-color="#848484"/>
      <stop offset="0.49019607843137253" stop-color="#4e4e4e"/>
      <stop offset="0.8784313725490196" stop-color="#404040"/>
    </linearGradient>
    <linearGradient gradientTransform="matrix(0.0181, -0.0423, 0.0407, 0.0174, 6.9, -6.35)" gradientUnits="userSpaceOnUse" id="gradient2" spreadMethod="pad" x1="-819.2" x2="819.2">
      <stop offset="0.0" stop-color="#232323"/>
      <stop offset="0.3137254901960784" stop-color="#181818"/>
      <stop offset="0.6470588235294118" stop-color="#4e4e4e"/>
      <stop offset="1.0" stop-color="#232323"/>
    </linearGradient>
    <linearGradient gradientTransform="matrix(-0.0045, -0.0043, 0.0042, -0.0044, -4.3, 28.85)" gradientUnits="userSpaceOnUse" id="gradient3" spreadMethod="pad" x1="-819.2" x2="819.2">
      <stop offset="0.0" stop-color="#585858"/>
      <stop offset="1.0" stop-color="#1c1c1c"/>
    </linearGradient>
    <radialGradient cx="0" cy="0" gradientTransform="matrix(0.0033, 0.0027, -0.0063, 0.0077, -3.3, 64.05)" gradientUnits="userSpaceOnUse" id="gradient4" r="819.2" spreadMethod="pad">
      <stop offset="0.07058823529411765" stop-color="#7d2d2d"/>
      <stop offset="0.5058823529411764" stop-color="#661a1a"/>
      <stop offset="0.7803921568627451" stop-color="#4e1414"/>
    </radialGradient>
    <radialGradient cx="0" cy="0" fx="-1372.8000000000002" fy="0" gradientTransform="matrix(0.0053, -0.0039, 0.005, 0.0068, -2.25, 62.7)" gradientUnits="userSpaceOnUse" id="gradient5" r="819.2" spreadMethod="pad">
      <stop offset="0.08627450980392157" stop-color="#bcb4b4"/>
      <stop offset="0.16470588235294117" stop-color="#bcb4b4"/>
      <stop offset="0.3058823529411765" stop-color="#a99696"/>
      <stop offset="1.0" stop-color="#422f2f"/>
    </radialGradient>
    <radialGradient cx="0" cy="0" gradientTransform="matrix(0.0039, 0.0, 0.0, 0.0227, 0.0, 44.0)" gradientUnits="userSpaceOnUse" id="gradient6" r="819.2" spreadMethod="pad">
      <stop offset="0.07058823529411765" stop-color="#a91d1d"/>
      <stop offset="0.8274509803921568" stop-color="#551915" stop-opacity="0.0"/>
    </radialGradient>
    <linearGradient gradientTransform="matrix(0.0037, 0.0, 0.0, 0.0012, 0.0, 39.0)" gradientUnits="userSpaceOnUse" id="gradient7" spreadMethod="pad" x1="-819.2" x2="819.2">
      <stop offset="0.18823529411764706" stop-color="#464646"/>
      <stop offset="0.5725490196078431" stop-color="#757575"/>
      <stop offset="0.8509803921568627" stop-color="#404040"/>
    </linearGradient>
    <linearGradient gradientTransform="matrix(0.0049, 0.0, 0.0, 6.0E-4, 0.0, 40.5)" gradientUnits="userSpaceOnUse" id="gradient8" spreadMethod="pad" x1="-819.2" x2="819.2">
      <stop offset="0.0" stop-color="#624f4f"/>
      <stop offset="0.5098039215686274" stop-color="#cac1c1"/>
      <stop offset="1.0" stop-color="#615050"/>
    </linearGradient>
    <linearGradient gradientTransform="matrix(-0.0049, 0.0, 0.0, 0.0024, 0.0, 46.0)" gradientUnits="userSpaceOnUse" id="gradient9" spreadMethod="pad" x1="-819.2" x2="819.2">
      <stop offset="0.043137254901960784" stop-color="#271f1f"/>
      <stop offset="0.44313725490196076" stop-color="#948787"/>
      <stop offset="0.5333333333333333" stop-color="#948787"/>
      <stop offset="0.9529411764705882" stop-color="#3a3030"/>
    </linearGradient>
    <linearGradient gradientTransform="matrix(0.0047, -0.0193, 0.0196, 0.0047, 1.05, 19.9)" gradientUnits="userSpaceOnUse" id="gradient10" spreadMethod="pad" x1="-819.2" x2="819.2">
      <stop offset="0.0" stop-color="#66522f"/>
      <stop offset="0.22745098039215686" stop-color="#987c58"/>
      <stop offset="0.49019607843137253" stop-color="#bca86d"/>
      <stop offset="0.7568627450980392" stop-color="#a5925a"/>
      <stop offset="1.0" stop-color="#78643f"/>
    </linearGradient>
    <linearGradient gradientTransform="matrix(0.0018, -0.0059, 0.0051, 0.0015, 3.4, 32.7)" gradientUnits="userSpaceOnUse" id="gradient11" spreadMethod="pad" x1="-819.2" x2="819.2">
      <stop offset="0.39215686274509803" stop-color="#ab9b70"/>
      <stop offset="1.0" stop-color="#4d3824"/>
    </linearGradient>
    <linearGradient gradientTransform="matrix(0.0045, 0.0, 0.0, 0.0024, 0.5, 37.0)" gradientUnits="userSpaceOnUse" id="gradient12" spreadMethod="pad" x1="-819.2" x2="819.2">
      <stop offset="0.10588235294117647" stop-color="#755935"/>
      <stop offset="0.29411764705882354" stop-color="#9f8842"/>
      <stop offset="0.5019607843137255" stop-color="#bea96b"/>
      <stop offset="0.6823529411764706" stop-color="#9f8842"/>
      <stop offset="0.8980392156862745" stop-color="#755935"/>
    </linearGradient>
  </defs>
</svg>
