<?xml version="1.0" encoding="UTF-8" standalone="no"?>
<svg xmlns:xlink="http://www.w3.org/1999/xlink" height="89.0px" width="89.0px" xmlns="http://www.w3.org/2000/svg">
  <g transform="matrix(1.0, 0.0, 0.0, 1.0, 44.5, 44.5)">
    <path d="M31.5 -31.45 Q44.5 -18.45 44.5 0.0 44.5 18.45 31.5 31.5 18.45 44.5 0.0 44.5 -18.45 44.5 -31.45 31.5 -44.5 18.45 -44.5 0.0 -44.5 -18.45 -31.45 -31.45 -18.45 -44.5 0.0 -44.5 18.45 -44.5 31.5 -31.45" fill="#000000" fill-rule="evenodd" stroke="none"/>
    <path d="M22.6 -22.65 Q32.0 -13.25 32.0 0.0 32.0 13.25 22.6 22.6 13.25 32.0 0.0 32.0 -13.25 32.0 -22.65 22.6 -32.0 13.25 -32.0 0.0 -32.0 -13.25 -22.65 -22.65 -13.25 -32.0 0.0 -32.0 13.25 -32.0 22.6 -22.65" fill="url(#gradient0)" fill-rule="evenodd" stroke="none"/>
    <path d="M21.2 -21.2 L0.0 0.0" fill="none" stroke="url(#gradient1)" stroke-linecap="round" stroke-linejoin="round" stroke-width="2.0"/>
    <path d="M0.0 0.0 L-21.2 -21.2" fill="none" stroke="url(#gradient2)" stroke-linecap="round" stroke-linejoin="round" stroke-width="2.0"/>
    <path d="M0.0 0.0 L21.2 21.2" fill="none" stroke="url(#gradient3)" stroke-linecap="round" stroke-linejoin="round" stroke-width="2.0"/>
    <path d="M-21.2 21.2 L0.0 0.0" fill="none" stroke="url(#gradient4)" stroke-linecap="round" stroke-linejoin="round" stroke-width="2.0"/>
    <path d="M16.25 -16.3 Q23.0 -9.55 23.0 0.0 23.0 9.55 16.25 16.25 9.55 23.0 0.0 23.0 -9.55 23.0 -16.3 16.25 -23.0 9.55 -23.0 0.0 -23.0 -9.55 -16.3 -16.3 -9.55 -23.0 0.0 -23.0 9.55 -23.0 16.25 -16.3" fill="url(#gradient5)" fill-rule="evenodd" stroke="none"/>
    <path d="M14.85 -14.85 Q21.0 -8.7 21.0 0.0 21.0 8.7 14.85 14.85 8.7 21.0 0.0 21.0 -8.7 21.0 -14.85 14.85 -21.0 8.7 -21.0 0.0 -21.0 -8.7 -14.85 -14.85 -8.7 -21.0 0.0 -21.0 8.7 -21.0 14.85 -14.85" fill="url(#gradient6)" fill-rule="evenodd" stroke="none"/>
    <path d="M21.2 -21.25 Q12.45 -30.0 0.0 -30.0 -12.45 -30.0 -21.25 -21.25 -30.0 -12.45 -30.0 0.0 -30.0 12.45 -21.25 21.2 -12.45 30.0 0.0 30.0 12.45 30.0 21.2 21.2 30.0 12.45 30.0 0.0 30.0 -12.45 21.2 -21.25 M29.7 -29.7 Q42.0 -17.4 42.0 0.0 42.0 17.4 29.7 29.7 17.4 42.0 0.0 42.0 -17.4 42.0 -29.7 29.7 -42.0 17.4 -42.0 0.0 -42.0 -17.4 -29.7 -29.7 -17.4 -42.0 0.0 -42.0 17.4 -42.0 29.7 -29.7" fill="url(#gradient7)" fill-rule="evenodd" stroke="none"/>
    <path d="M14.95 -28.4 L19.7 -37.2 Q25.05 -34.35 29.7 -29.7 34.35 -25.05 37.25 -19.65 L28.45 -14.9 Q26.2 -19.05 22.6 -22.65 19.05 -26.2 14.95 -28.4" fill="url(#gradient8)" fill-rule="evenodd" stroke="none"/>
    <path d="M28.4 14.9 L37.25 19.7 Q34.35 25.05 29.7 29.7 25.05 34.35 19.7 37.25 L14.95 28.4 Q19.05 26.15 22.6 22.6 26.2 19.05 28.4 14.9" fill="url(#gradient9)" fill-rule="evenodd" stroke="none"/>
    <path d="M-14.9 -28.4 Q-19.05 -26.25 -22.65 -22.65 -26.2 -19.1 -28.4 -14.95 L-37.2 -19.7 Q-34.35 -25.05 -29.7 -29.7 -25.05 -34.35 -19.65 -37.2 L-14.9 -28.4" fill="url(#gradient10)" fill-rule="evenodd" stroke="none"/>
    <path d="M-28.4 14.95 Q-26.2 19.05 -22.65 22.6 -19.05 26.2 -14.9 28.45 L-19.65 37.25 Q-25.05 34.35 -29.7 29.7 -34.35 25.05 -37.2 19.7 L-28.4 14.95" fill="url(#gradient11)" fill-rule="evenodd" stroke="none"/>
    <path d="M29.0 -29.0 Q17.0 -41.0 0.0 -41.0 -17.0 -41.0 -29.0 -29.0 -41.0 -17.0 -41.0 0.0 -41.0 17.0 -29.0 29.0 -17.0 41.0 0.0 41.0 17.0 41.0 29.0 29.0 41.0 17.0 41.0 0.0 41.0 -17.0 29.0 -29.0 M29.7 -29.7 Q42.0 -17.4 42.0 0.0 42.0 17.4 29.7 29.7 17.4 42.0 0.0 42.0 -17.4 42.0 -29.7 29.7 -42.0 17.4 -42.0 0.0 -42.0 -17.4 -29.7 -29.7 -17.4 -42.0 0.0 -42.0 17.4 -42.0 29.7 -29.7" fill="url(#gradient12)" fill-rule="evenodd" stroke="none"/>
    <path d="M-14.9 -28.4 L-19.65 -37.2 Q-17.4 -38.45 -15.0 -39.35 L-11.8 -29.85 -14.9 -28.4" fill="url(#gradient13)" fill-rule="evenodd" stroke="none"/>
    <path d="M-29.85 -11.8 L-39.35 -15.0 -37.2 -19.7 -28.4 -14.95 -29.85 -11.8" fill="url(#gradient14)" fill-rule="evenodd" stroke="none"/>
    <path d="M-28.4 14.95 L-37.2 19.7 -39.35 15.0 -29.85 11.85 -28.4 14.95" fill="url(#gradient15)" fill-rule="evenodd" stroke="none"/>
    <path d="M-11.8 29.85 L-15.0 39.35 Q-17.4 38.45 -19.65 37.25 L-14.9 28.45 -11.8 29.85" fill="url(#gradient16)" fill-rule="evenodd" stroke="none"/>
    <path d="M29.85 11.85 L39.4 15.05 37.25 19.7 28.4 14.9 29.85 11.85" fill="url(#gradient17)" fill-rule="evenodd" stroke="none"/>
    <path d="M14.95 28.4 L19.7 37.25 15.05 39.4 11.85 29.85 14.95 28.4" fill="url(#gradient18)" fill-rule="evenodd" stroke="none"/>
    <path d="M28.45 -14.9 L37.25 -19.65 39.35 -15.0 29.85 -11.8 28.45 -14.9" fill="url(#gradient19)" fill-rule="evenodd" stroke="none"/>
    <path d="M11.85 -29.85 L15.0 -39.35 19.7 -37.2 14.95 -28.4 11.85 -29.85" fill="url(#gradient20)" fill-rule="evenodd" stroke="none"/>
    <path d="M17.3 5.7 Q17.3 7.8 15.75 9.35 14.25 10.85 12.15 10.85 L10.6 10.6 10.85 12.15 Q10.85 14.25 9.35 15.75 7.8 17.3 5.7 17.3 3.6 17.3 2.05 15.75 0.5 14.2 0.5 12.1 L0.5 1.0 0.65 0.65 Q0.8 0.5 1.0 0.5 L12.1 0.5 Q14.2 0.5 15.75 2.05 17.3 3.6 17.3 5.7" fill="url(#gradient21)" fill-rule="evenodd" stroke="none"/>
    <path d="M-0.5 12.1 Q-0.5 14.2 -2.05 15.75 -3.6 17.3 -5.7 17.3 -7.8 17.3 -9.35 15.75 -10.85 14.25 -10.85 12.15 L-10.55 10.6 -12.15 10.85 Q-14.25 10.85 -15.75 9.35 -17.3 7.8 -17.3 5.7 -17.3 3.6 -15.75 2.05 -14.2 0.5 -12.1 0.5 L-1.0 0.5 Q-0.8 0.5 -0.65 0.65 L-0.5 1.0 -0.5 12.1" fill="url(#gradient22)" fill-rule="evenodd" stroke="none"/>
    <path d="M5.7 -17.3 Q7.8 -17.3 9.35 -15.75 10.85 -14.25 10.85 -12.15 L10.6 -10.55 12.15 -10.85 Q14.25 -10.85 15.75 -9.35 17.3 -7.8 17.3 -5.7 17.3 -3.6 15.75 -2.05 14.2 -0.5 12.1 -0.5 L1.0 -0.5 Q0.8 -0.5 0.65 -0.65 L0.5 -1.0 0.5 -12.1 Q0.5 -14.2 2.05 -15.75 3.6 -17.3 5.7 -17.3 M-5.7 -17.3 Q-3.6 -17.3 -2.05 -15.75 -0.5 -14.2 -0.5 -12.1 L-0.5 -1.0 -0.65 -0.65 Q-0.8 -0.5 -1.0 -0.5 L-12.1 -0.5 Q-14.2 -0.5 -15.75 -2.05 -17.3 -3.6 -17.3 -5.7 -17.3 -7.8 -15.75 -9.35 -14.25 -10.85 -12.15 -10.85 L-10.55 -10.55 -10.85 -12.15 Q-10.85 -14.25 -9.35 -15.75 -7.8 -17.3 -5.7 -17.3" fill="url(#gradient23)" fill-rule="evenodd" stroke="none"/>
    <path d="M9.0 -15.4 Q10.35 -14.05 10.35 -12.15 10.35 -10.4 8.9 -8.9 10.4 -10.35 12.15 -10.35 14.05 -10.35 15.4 -9.0 16.8 -7.6 16.8 -5.7 16.8 -3.8 15.4 -2.4 14.0 -1.0 12.1 -1.0 L1.0 -1.0 1.0 -12.1 Q1.0 -14.0 2.4 -15.4 3.8 -16.8 5.7 -16.8 7.6 -16.8 9.0 -15.4" fill="url(#gradient24)" fill-rule="evenodd" stroke="none"/>
    <path d="M15.4 2.4 Q16.8 3.8 16.8 5.7 16.8 7.6 15.4 9.0 14.05 10.35 12.15 10.35 10.4 10.35 9.05 9.05 10.35 10.4 10.35 12.15 10.35 14.05 9.0 15.4 7.6 16.8 5.7 16.8 3.8 16.8 2.4 15.4 1.0 14.0 1.0 12.1 L1.0 1.0 12.1 1.0 Q14.0 1.0 15.4 2.4" fill="url(#gradient25)" fill-rule="evenodd" stroke="none"/>
    <path d="M-5.7 -16.8 Q-3.8 -16.8 -2.4 -15.4 -1.0 -14.0 -1.0 -12.1 L-1.0 -1.0 -12.1 -1.0 Q-14.0 -1.0 -15.4 -2.4 -16.8 -3.8 -16.8 -5.7 -16.8 -7.6 -15.4 -9.0 -14.05 -10.35 -12.15 -10.35 -10.4 -10.35 -8.9 -8.9 -10.35 -10.4 -10.35 -12.15 -10.35 -14.05 -9.0 -15.4 -7.6 -16.8 -5.7 -16.8" fill="url(#gradient26)" fill-rule="evenodd" stroke="none"/>
    <path d="M-1.0 12.1 Q-1.0 14.0 -2.4 15.4 -3.8 16.8 -5.7 16.8 -7.6 16.8 -9.0 15.4 -10.35 14.05 -10.35 12.15 -10.35 10.4 -9.0 9.0 -10.4 10.35 -12.15 10.35 -14.05 10.35 -15.4 9.0 -16.8 7.6 -16.8 5.7 -16.8 3.8 -15.4 2.4 -14.0 1.0 -12.1 1.0 L-1.0 1.0 -1.0 12.1" fill="url(#gradient27)" fill-rule="evenodd" stroke="none"/>
  </g>
  <defs>
    <linearGradient gradientTransform="matrix(0.0, 0.0513, -0.0258, 0.0, 15.05, -0.05)" gradientUnits="userSpaceOnUse" id="gradient0" spreadMethod="pad" x1="-819.2" x2="819.2">
      <stop offset="0.06666666666666667" stop-color="#333333"/>
      <stop offset="0.34509803921568627" stop-color="#232323"/>
      <stop offset="1.0" stop-color="#555555"/>
    </linearGradient>
    <linearGradient gradientTransform="matrix(0.0, 0.0271, -0.0271, 0.0, 0.0, 0.0)" gradientUnits="userSpaceOnUse" id="gradient1" spreadMethod="pad" x1="-819.2" x2="819.2">
      <stop offset="0.0" stop-color="#b5b5b5"/>
      <stop offset="0.17647058823529413" stop-color="#585858"/>
      <stop offset="0.22745098039215686" stop-color="#9f9f9f"/>
      <stop offset="0.7764705882352941" stop-color="#bbbbbb"/>
      <stop offset="0.984313725490196" stop-color="#ffffff"/>
    </linearGradient>
    <linearGradient gradientTransform="matrix(0.0, 0.0271, -0.0271, 0.0, 0.0, 0.0)" gradientUnits="userSpaceOnUse" id="gradient2" spreadMethod="pad" x1="-819.2" x2="819.2">
      <stop offset="0.0" stop-color="#b4b4b4"/>
      <stop offset="0.17254901960784313" stop-color="#434343"/>
      <stop offset="0.21568627450980393" stop-color="#6d6d6d"/>
      <stop offset="0.7764705882352941" stop-color="#8d8d8d"/>
      <stop offset="0.984313725490196" stop-color="#959595"/>
    </linearGradient>
    <linearGradient gradientTransform="matrix(0.0, 0.0271, -0.0271, 0.0, 0.0, 0.0)" gradientUnits="userSpaceOnUse" id="gradient3" spreadMethod="pad" x1="-819.2" x2="819.2">
      <stop offset="0.0" stop-color="#e1e1e1"/>
      <stop offset="0.17254901960784313" stop-color="#c4c4c4"/>
      <stop offset="0.21568627450980393" stop-color="#6d6d6d"/>
      <stop offset="0.7764705882352941" stop-color="#8d8d8d"/>
      <stop offset="0.984313725490196" stop-color="#d8d8d8"/>
    </linearGradient>
    <linearGradient gradientTransform="matrix(0.0, 0.0271, -0.0271, 0.0, 0.0, 0.0)" gradientUnits="userSpaceOnUse" id="gradient4" spreadMethod="pad" x1="-819.2" x2="819.2">
      <stop offset="0.0" stop-color="#6d6d6d"/>
      <stop offset="0.17254901960784313" stop-color="#434343"/>
      <stop offset="0.21568627450980393" stop-color="#6d6d6d"/>
      <stop offset="0.7764705882352941" stop-color="#bbbbbb"/>
      <stop offset="0.984313725490196" stop-color="#cdcdcd"/>
    </linearGradient>
    <linearGradient gradientTransform="matrix(0.0, -0.0281, 0.0281, 0.0, 0.0, 0.0)" gradientUnits="userSpaceOnUse" id="gradient5" spreadMethod="pad" x1="-819.2" x2="819.2">
      <stop offset="0.03529411764705882" stop-color="#e6e6e6"/>
      <stop offset="0.10196078431372549" stop-color="#d8d8d8"/>
      <stop offset="0.24705882352941178" stop-color="#adadad"/>
      <stop offset="0.8431372549019608" stop-color="#585858"/>
    </linearGradient>
    <linearGradient gradientTransform="matrix(0.0, -0.0292, 0.0256, 0.0, 0.0, 0.0)" gradientUnits="userSpaceOnUse" id="gradient6" spreadMethod="pad" x1="-819.2" x2="819.2">
      <stop offset="0.0" stop-color="#6d6d6d"/>
      <stop offset="0.7764705882352941" stop-color="#b8b8b8"/>
      <stop offset="0.9882352941176471" stop-color="#e6e6e6"/>
    </linearGradient>
    <radialGradient cx="0" cy="0" gradientTransform="matrix(0.0806, 0.0, 0.0, 0.1019, 0.0, 40.0)" gradientUnits="userSpaceOnUse" id="gradient7" r="819.2" spreadMethod="pad">
      <stop offset="0.027450980392156862" stop-color="#eaeaea"/>
      <stop offset="0.6784313725490196" stop-color="#dbdbdb"/>
      <stop offset="1.0" stop-color="#7b7b7b"/>
    </radialGradient>
    <linearGradient gradientTransform="matrix(-1.0E-4, -0.0514, 0.0136, 0.0, 0.0, 0.0)" gradientUnits="userSpaceOnUse" id="gradient8" spreadMethod="pad" x1="-819.2" x2="819.2">
      <stop offset="0.0" stop-color="#555555"/>
      <stop offset="0.6313725490196078" stop-color="#232323"/>
      <stop offset="0.9450980392156862" stop-color="#333333"/>
    </linearGradient>
    <linearGradient gradientTransform="matrix(2.0E-4, -0.0517, 0.0136, 1.0E-4, 0.0, 0.0)" gradientUnits="userSpaceOnUse" id="gradient9" spreadMethod="pad" x1="-819.2" x2="819.2">
      <stop offset="0.0" stop-color="#555555"/>
      <stop offset="0.6313725490196078" stop-color="#232323"/>
      <stop offset="0.9450980392156862" stop-color="#333333"/>
    </linearGradient>
    <linearGradient gradientTransform="matrix(1.0E-4, -0.0514, 0.0136, 0.0, -0.05, 0.0)" gradientUnits="userSpaceOnUse" id="gradient10" spreadMethod="pad" x1="-819.2" x2="819.2">
      <stop offset="0.0" stop-color="#555555"/>
      <stop offset="0.6313725490196078" stop-color="#232323"/>
      <stop offset="0.9450980392156862" stop-color="#333333"/>
    </linearGradient>
    <linearGradient gradientTransform="matrix(-2.0E-4, -0.0514, 0.0136, -1.0E-4, 0.0, 0.0)" gradientUnits="userSpaceOnUse" id="gradient11" spreadMethod="pad" x1="-819.2" x2="819.2">
      <stop offset="0.0" stop-color="#555555"/>
      <stop offset="0.6313725490196078" stop-color="#232323"/>
      <stop offset="0.9450980392156862" stop-color="#333333"/>
    </linearGradient>
    <linearGradient gradientTransform="matrix(0.0, -0.0513, 0.0513, 0.0, 0.0, 0.0)" gradientUnits="userSpaceOnUse" id="gradient12" spreadMethod="pad" x1="-819.2" x2="819.2">
      <stop offset="0.0" stop-color="#232323" stop-opacity="0.3019608"/>
      <stop offset="0.9568627450980393" stop-color="#9f9f9f" stop-opacity="0.4117647"/>
      <stop offset="0.984313725490196" stop-color="#8d8d8d"/>
    </linearGradient>
    <linearGradient gradientTransform="matrix(-7.0E-4, -0.0518, 0.0067, -1.0E-4, -0.05, 0.0)" gradientUnits="userSpaceOnUse" id="gradient13" spreadMethod="pad" x1="-819.2" x2="819.2">
      <stop offset="0.1411764705882353" stop-color="#b90606"/>
      <stop offset="1.0" stop-color="#ac0b0b"/>
    </linearGradient>
    <linearGradient gradientTransform="matrix(0.0, -0.0516, 0.0048, 0.0, 0.0, 0.0)" gradientUnits="userSpaceOnUse" id="gradient14" spreadMethod="pad" x1="-819.2" x2="819.2">
      <stop offset="0.1411764705882353" stop-color="#b60606"/>
      <stop offset="1.0" stop-color="#ad0a0a"/>
    </linearGradient>
    <linearGradient gradientTransform="matrix(9.0E-4, -0.0506, 0.0048, 1.0E-4, 0.0, 0.0)" gradientUnits="userSpaceOnUse" id="gradient15" spreadMethod="pad" x1="-819.2" x2="819.2">
      <stop offset="0.1411764705882353" stop-color="#b70606"/>
      <stop offset="1.0" stop-color="#810606"/>
    </linearGradient>
    <linearGradient gradientTransform="matrix(0.0, -0.0516, 0.0067, 0.0, 0.0, 0.0)" gradientUnits="userSpaceOnUse" id="gradient16" spreadMethod="pad" x1="-819.2" x2="819.2">
      <stop offset="0.1411764705882353" stop-color="#b90606"/>
      <stop offset="1.0" stop-color="#800606"/>
    </linearGradient>
    <linearGradient gradientTransform="matrix(-5.0E-4, -0.051, 0.0048, 0.0, 0.0, 0.0)" gradientUnits="userSpaceOnUse" id="gradient17" spreadMethod="pad" x1="-819.2" x2="819.2">
      <stop offset="0.1411764705882353" stop-color="#b90606"/>
      <stop offset="1.0" stop-color="#820606"/>
    </linearGradient>
    <linearGradient gradientTransform="matrix(0.0, -0.0516, 0.0067, 0.0, 0.0, 0.0)" gradientUnits="userSpaceOnUse" id="gradient18" spreadMethod="pad" x1="-819.2" x2="819.2">
      <stop offset="0.1411764705882353" stop-color="#b30606"/>
      <stop offset="1.0" stop-color="#800606"/>
    </linearGradient>
    <linearGradient gradientTransform="matrix(0.0, -0.0516, 0.0048, 0.0, -0.05, 0.0)" gradientUnits="userSpaceOnUse" id="gradient19" spreadMethod="pad" x1="-819.2" x2="819.2">
      <stop offset="0.1411764705882353" stop-color="#b70606"/>
      <stop offset="1.0" stop-color="#820606"/>
    </linearGradient>
    <linearGradient gradientTransform="matrix(7.0E-4, -0.0524, 0.0067, 1.0E-4, -0.1, 0.45)" gradientUnits="userSpaceOnUse" id="gradient20" spreadMethod="pad" x1="-819.2" x2="819.2">
      <stop offset="0.1411764705882353" stop-color="#b30606"/>
      <stop offset="1.0" stop-color="#830606"/>
    </linearGradient>
    <linearGradient gradientTransform="matrix(-8.0E-4, 0.011, -0.0096, -7.0E-4, -11.2, 7.7)" gradientUnits="userSpaceOnUse" id="gradient21" spreadMethod="pad" x1="-819.2" x2="819.2">
      <stop offset="0.27450980392156865" stop-color="#a3a3a3"/>
      <stop offset="0.7686274509803922" stop-color="#434343"/>
    </linearGradient>
    <linearGradient gradientTransform="matrix(-8.0E-4, 0.011, -0.0096, -7.0E-4, -11.2, 7.7)" gradientUnits="userSpaceOnUse" id="gradient22" spreadMethod="pad" x1="-819.2" x2="819.2">
      <stop offset="0.27450980392156865" stop-color="#a3a3a3"/>
      <stop offset="0.7647058823529411" stop-color="#434343"/>
    </linearGradient>
    <linearGradient gradientTransform="matrix(-0.0018, 0.0109, -0.0095, -0.0016, -8.9, -11.25)" gradientUnits="userSpaceOnUse" id="gradient23" spreadMethod="pad" x1="-819.2" x2="819.2">
      <stop offset="0.28627450980392155" stop-color="#a3a3a3"/>
      <stop offset="0.7647058823529411" stop-color="#434343"/>
    </linearGradient>
    <linearGradient gradientTransform="matrix(-0.0068, 0.0078, -0.0072, -0.0064, 7.3, -6.15)" gradientUnits="userSpaceOnUse" id="gradient24" spreadMethod="pad" x1="-819.2" x2="819.2">
      <stop offset="0.14901960784313725" stop-color="#b90606"/>
      <stop offset="0.5686274509803921" stop-color="#8c0909"/>
      <stop offset="0.7215686274509804" stop-color="#800606"/>
      <stop offset="1.0" stop-color="#8e0606"/>
    </linearGradient>
    <linearGradient gradientTransform="matrix(0.0119, -0.0119, 0.0068, 0.0068, -4.25, 0.8)" gradientUnits="userSpaceOnUse" id="gradient25" spreadMethod="pad" x1="-819.2" x2="819.2">
      <stop offset="0.0" stop-color="#2b2b2b"/>
      <stop offset="0.3333333333333333" stop-color="#2c2c2c"/>
      <stop offset="0.6313725490196078" stop-color="#3c3c3c"/>
      <stop offset="0.8431372549019608" stop-color="#464646"/>
      <stop offset="1.0" stop-color="#434343"/>
    </linearGradient>
    <linearGradient gradientTransform="matrix(0.0119, -0.0119, 0.0068, 0.0068, -4.25, 0.8)" gradientUnits="userSpaceOnUse" id="gradient26" spreadMethod="pad" x1="-819.2" x2="819.2">
      <stop offset="0.0" stop-color="#0e0e0e"/>
      <stop offset="0.3411764705882353" stop-color="#2e2e2e"/>
      <stop offset="0.6470588235294118" stop-color="#383838"/>
      <stop offset="0.8431372549019608" stop-color="#4a4a4a"/>
      <stop offset="1.0" stop-color="#555555"/>
    </linearGradient>
    <linearGradient gradientTransform="matrix(0.0119, -0.0119, 0.0068, 0.0068, -4.25, 0.8)" gradientUnits="userSpaceOnUse" id="gradient27" spreadMethod="pad" x1="-819.2" x2="819.2">
      <stop offset="0.00784313725490196" stop-color="#2e2e2e"/>
      <stop offset="0.33725490196078434" stop-color="#353535"/>
      <stop offset="0.6392156862745098" stop-color="#464646"/>
      <stop offset="0.8431372549019608" stop-color="#0b0b0b"/>
      <stop offset="1.0" stop-color="#313131"/>
    </linearGradient>
  </defs>
</svg>
