<?xml version="1.0" encoding="UTF-8" standalone="no"?>
<svg xmlns:xlink="http://www.w3.org/1999/xlink" height="544.0px" width="544.0px" xmlns="http://www.w3.org/2000/svg">
  <g transform="matrix(1.0, 0.0, 0.0, 1.0, 272.0, 272.0)">
    <path d="M192.3 -192.35 Q272.0 -112.65 272.0 0.0 272.0 112.65 192.3 192.3 112.65 272.0 0.0 272.0 -112.65 272.0 -192.35 192.3 -272.0 112.65 -272.0 0.0 -272.0 -112.65 -192.35 -192.35 -112.65 -272.0 0.0 -272.0 112.65 -272.0 192.3 -192.35 M181.0 -181.05 Q106.05 -256.0 0.0 -256.0 -106.05 -256.0 -181.05 -181.05 -256.0 -106.05 -256.0 0.0 -256.0 106.05 -181.05 181.0 -106.05 256.0 0.0 256.0 106.05 256.0 181.0 181.0 256.0 106.05 256.0 0.0 256.0 -106.05 181.0 -181.05" fill="#cacaca" fill-rule="evenodd" stroke="none"/>
  </g>
</svg>
