<?xml version="1.0" encoding="UTF-8" standalone="no"?>
<svg xmlns:xlink="http://www.w3.org/1999/xlink" height="448.0px" width="448.0px" xmlns="http://www.w3.org/2000/svg">
  <g transform="matrix(1.0, 0.0, 0.0, 1.0, 224.0, 224.0)">
    <path d="M147.05 -147.1 Q86.15 -208.0 0.0 -208.0 -86.15 -208.0 -147.1 -147.1 -208.0 -86.15 -208.0 0.0 -208.0 86.15 -147.1 147.05 -86.15 208.0 0.0 208.0 86.15 208.0 147.05 147.05 208.0 86.15 208.0 0.0 208.0 -86.15 147.05 -147.1 M158.4 -158.4 Q224.0 -92.8 224.0 0.0 224.0 92.8 158.4 158.4 92.8 224.0 0.0 224.0 -92.8 224.0 -158.4 158.4 -224.0 92.8 -224.0 0.0 -224.0 -92.8 -158.4 -158.4 -92.8 -224.0 0.0 -224.0 92.8 -224.0 158.4 -158.4" fill="#cacaca" fill-rule="evenodd" stroke="none"/>
  </g>
</svg>
