<?xml version="1.0" encoding="UTF-8" standalone="no"?>
<svg xmlns:xlink="http://www.w3.org/1999/xlink" height="352.0px" width="352.0px" xmlns="http://www.w3.org/2000/svg">
  <g transform="matrix(1.0, 0.0, 0.0, 1.0, 176.0, 176.0)">
    <path d="M124.45 -124.45 Q176.0 -72.9 176.0 0.0 176.0 72.9 124.45 124.45 72.9 176.0 0.0 176.0 -72.9 176.0 -124.45 124.45 -176.0 72.9 -176.0 0.0 -176.0 -72.9 -124.45 -124.45 -72.9 -176.0 0.0 -176.0 72.9 -176.0 124.45 -124.45 M113.15 -113.15 Q66.3 -160.0 0.0 -160.0 -66.3 -160.0 -113.15 -113.15 -160.0 -66.3 -160.0 0.0 -160.0 66.3 -113.15 113.15 -66.3 160.0 0.0 160.0 66.3 160.0 113.15 113.15 160.0 66.3 160.0 0.0 160.0 -66.3 113.15 -113.15" fill="#cacaca" fill-rule="evenodd" stroke="none"/>
  </g>
</svg>
