<?xml version="1.0" encoding="UTF-8" standalone="no"?>
<svg xmlns:xlink="http://www.w3.org/1999/xlink" height="160.0px" width="160.0px" xmlns="http://www.w3.org/2000/svg">
  <g transform="matrix(1.0, 0.0, 0.0, 1.0, 80.0, 80.0)">
    <path d="M56.55 -56.6 Q80.0 -33.15 80.0 0.0 80.0 33.15 56.55 56.55 33.15 80.0 0.0 80.0 -33.15 80.0 -56.6 56.55 -80.0 33.15 -80.0 0.0 -80.0 -33.15 -56.6 -56.6 -33.15 -80.0 0.0 -80.0 33.15 -80.0 56.55 -56.6 M45.25 -45.25 Q26.5 -64.0 0.0 -64.0 -26.5 -64.0 -45.25 -45.25 -64.0 -26.5 -64.0 0.0 -64.0 26.5 -45.25 45.25 -26.5 64.0 0.0 64.0 26.5 64.0 45.25 45.25 64.0 26.5 64.0 0.0 64.0 -26.5 45.25 -45.25" fill="#e34b31" fill-rule="evenodd" stroke="none"/>
  </g>
</svg>
