<?xml version="1.0" encoding="UTF-8" standalone="no"?>
<svg xmlns:xlink="http://www.w3.org/1999/xlink" height="122.15px" width="120.15px" xmlns="http://www.w3.org/2000/svg">
  <g transform="matrix(1.0, 0.0, 0.0, 1.0, 59.15, 61.15)">
    <path d="M-48.0 -13.35 L41.7 -45.55 60.0 33.25 -8.0 60.0 -11.4 54.0 -48.0 -13.35" fill="url(#gradient0)" fill-rule="evenodd" stroke="none"/>
    <path d="M-57.2 -18.2 L-49.35 -20.9 -48.0 -13.35 -11.4 54.0 -16.0 56.0 -57.2 -18.2" fill="url(#gradient1)" fill-rule="evenodd" stroke="none"/>
    <path d="M-57.2 -18.2 L-58.15 -32.0 29.85 -60.15 41.7 -45.55 -48.0 -13.35 -49.35 -20.9 -57.2 -18.2 M-48.0 -28.0 L24.5 -52.4 27.9 -47.5 -49.35 -20.9 27.9 -47.5 24.5 -52.4 -48.0 -28.0" fill="url(#gradient2)" fill-rule="evenodd" stroke="none"/>
    <path d="M41.7 -45.55 L29.85 -60.15 -58.15 -32.0 -57.2 -18.2 M-49.35 -20.9 L-48.0 -13.35 -11.4 54.0 -16.0 56.0 -57.2 -18.2 M41.7 -45.55 L60.0 33.25 -8.0 60.0 -11.4 54.0" fill="none" stroke="#000000" stroke-linecap="round" stroke-linejoin="round" stroke-width="2.0"/>
    <path d="M-48.0 -13.35 L41.7 -45.55" fill="none" stroke="#67a9ad" stroke-linecap="round" stroke-linejoin="round" stroke-width="1.0"/>
    <path d="M-49.35 -20.9 L27.9 -47.5 24.5 -52.4 -48.0 -28.0" fill="none" stroke="#435f67" stroke-linecap="round" stroke-linejoin="round" stroke-width="2.0"/>
    <path d="M-35.5 20.9 L-7.25 10.15 Q-6.25 11.0 -3.5 17.35 -0.65 23.85 -0.85 25.35 -13.25 31.85 -28.0 36.0 L-30.35 35.75 Q-31.75 35.15 -32.75 33.85 L-39.25 22.45 Q-39.95 20.9 -40.35 17.45 -40.75 13.8 -40.0 13.05 L-35.5 20.9" fill="url(#gradient3)" fill-rule="evenodd" stroke="none"/>
    <path d="M-35.5 20.9 L-7.25 10.15 Q-6.25 11.0 -3.5 17.35 -0.65 23.85 -0.85 25.35 -13.25 31.85 -28.0 36.0 L-30.35 35.75 Q-31.75 35.15 -32.75 33.85 L-39.25 22.45 Q-39.95 20.9 -40.35 17.45 -40.75 13.8 -40.0 13.05" fill="none" stroke="#000000" stroke-linecap="round" stroke-linejoin="round" stroke-width="2.0"/>
    <path d="M-16.5 25.1 Q-17.35 23.15 -16.35 21.1 -15.45 19.05 -13.25 18.15 L-9.0 18.05 Q-6.9 18.8 -6.05 20.75 -5.25 22.75 -6.2 24.8 -7.15 26.8 -9.3 27.7 L-13.55 27.85 Q-15.7 27.1 -16.5 25.1" fill="url(#gradient4)" fill-rule="evenodd" stroke="none"/>
    <path d="M-16.5 25.1 Q-17.35 23.15 -16.35 21.1 -15.45 19.05 -13.25 18.15 L-9.0 18.05 Q-6.9 18.8 -6.05 20.75 -5.25 22.75 -6.2 24.8 -7.15 26.8 -9.3 27.7 L-13.55 27.85 Q-15.7 27.1 -16.5 25.1 Z" fill="none" stroke="#000000" stroke-linecap="round" stroke-linejoin="round" stroke-width="1.0"/>
  </g>
  <defs>
    <linearGradient gradientTransform="matrix(0.0344, 0.0343, -0.0453, 0.0455, 14.55, 13.45)" gradientUnits="userSpaceOnUse" id="gradient0" spreadMethod="pad" x1="-819.2" x2="819.2">
      <stop offset="0.0" stop-color="#497376"/>
      <stop offset="1.0" stop-color="#344e52"/>
    </linearGradient>
    <linearGradient gradientTransform="matrix(0.028, 0.0, 0.0, 0.047, -34.3, 17.5)" gradientUnits="userSpaceOnUse" id="gradient1" spreadMethod="pad" x1="-819.2" x2="819.2">
      <stop offset="0.0" stop-color="#446d7b"/>
      <stop offset="1.0" stop-color="#2f5557"/>
    </linearGradient>
    <linearGradient gradientTransform="matrix(-0.005, -0.0188, 0.0275, -0.0074, -7.5, -36.7)" gradientUnits="userSpaceOnUse" id="gradient2" spreadMethod="pad" x1="-819.2" x2="819.2">
      <stop offset="0.0" stop-color="#c5cfcf"/>
      <stop offset="1.0" stop-color="#7a8585"/>
    </linearGradient>
    <linearGradient gradientTransform="matrix(0.0043, 0.0111, -0.0148, 0.0057, -22.0, 26.8)" gradientUnits="userSpaceOnUse" id="gradient3" spreadMethod="pad" x1="-819.2" x2="819.2">
      <stop offset="0.10588235294117647" stop-color="#5ca4a9"/>
      <stop offset="0.1803921568627451" stop-color="#567c7e"/>
      <stop offset="1.0" stop-color="#57787d"/>
    </linearGradient>
    <radialGradient cx="0" cy="0" gradientTransform="matrix(-0.0027, -0.0059, 0.0063, -0.0028, -12.0, 21.7)" gradientUnits="userSpaceOnUse" id="gradient4" r="819.2" spreadMethod="pad">
      <stop offset="0.0" stop-color="#e9ebeb"/>
      <stop offset="0.26666666666666666" stop-color="#e9ebeb"/>
      <stop offset="0.7254901960784313" stop-color="#73868c"/>
      <stop offset="1.0" stop-color="#9dabae"/>
    </radialGradient>
  </defs>
</svg>
