<?xml version="1.0" encoding="UTF-8" standalone="no"?>
<svg xmlns:xlink="http://www.w3.org/1999/xlink" height="46.0px" width="58.0px" xmlns="http://www.w3.org/2000/svg">
  <g transform="matrix(1.0, 0.0, 0.0, 1.0, -4.0, -16.0)">
    <path d="M60.0 18.0 L58.0 18.0 58.0 60.0 60.0 60.0 60.0 18.0 M56.0 18.0 L54.0 18.0 54.0 60.0 56.0 60.0 56.0 18.0 M52.0 18.0 L50.0 18.0 50.0 60.0 52.0 60.0 52.0 18.0 M48.0 18.0 L46.0 18.0 46.0 60.0 48.0 60.0 48.0 18.0 M44.0 18.0 L42.0 18.0 42.0 60.0 44.0 60.0 44.0 18.0 M36.0 24.0 L36.0 18.0 6.0 18.0 6.0 60.0 10.0 60.0 36.0 60.0 36.0 56.0 36.0 24.0 M40.0 18.0 L38.0 18.0 38.0 60.0 40.0 60.0 40.0 18.0 M4.0 62.0 L4.0 16.0 62.0 16.0 62.0 62.0 4.0 62.0" fill="#000000" fill-rule="evenodd" stroke="none"/>
    <path d="M44.0 18.0 L44.0 60.0 42.0 60.0 42.0 18.0 44.0 18.0 M48.0 18.0 L48.0 60.0 46.0 60.0 46.0 18.0 48.0 18.0 M52.0 18.0 L52.0 60.0 50.0 60.0 50.0 18.0 52.0 18.0 M56.0 18.0 L56.0 60.0 54.0 60.0 54.0 18.0 56.0 18.0 M60.0 18.0 L60.0 60.0 58.0 60.0 58.0 18.0 60.0 18.0 M36.0 24.0 L36.0 56.0 10.0 56.0 10.0 24.0 36.0 24.0 M40.0 18.0 L40.0 60.0 38.0 60.0 38.0 18.0 40.0 18.0" fill="#adadad" fill-rule="evenodd" stroke="none"/>
    <path d="M36.0 56.0 L36.0 60.0 10.0 60.0 10.0 56.0 36.0 56.0" fill="#666666" fill-rule="evenodd" stroke="none"/>
    <path d="M10.0 60.0 L6.0 60.0 6.0 18.0 36.0 18.0 36.0 24.0 10.0 24.0 10.0 56.0 10.0 60.0" fill="url(#gradient0)" fill-rule="evenodd" stroke="none"/>
    <path d="M17.0 24.0 Q17.0 26.05 15.5 27.5 14.05 29.0 12.0 29.0 9.95 29.0 8.45 27.5 7.0 26.05 7.0 24.0 7.0 21.95 8.45 20.45 9.95 19.0 12.0 19.0 14.05 19.0 15.5 20.45 17.0 21.95 17.0 24.0" fill="url(#gradient1)" fill-rule="evenodd" stroke="none"/>
    <path d="M18.55 40.25 Q16.8 38.5 16.8 36.0 16.8 33.5 18.55 31.75 20.3 30.0 22.8 30.0 25.3 30.0 27.05 31.75 28.8 33.5 28.8 36.0 28.8 38.5 27.05 40.25 L26.85 40.45 28.45 43.25 Q30.8 48.55 30.8 56.0 L14.8 56.0 Q14.8 48.55 17.15 43.25 17.9 41.6 18.75 40.45 L18.55 40.25" fill="#7b7b7b" fill-rule="evenodd" stroke="none"/>
  </g>
  <defs>
    <radialGradient cx="0" cy="0" gradientTransform="matrix(0.0391, 0.0, 0.0, 0.0504, 10.0, 24.0)" gradientUnits="userSpaceOnUse" id="gradient0" r="819.2" spreadMethod="pad">
      <stop offset="0.28627450980392155" stop-color="#d8d8d8"/>
      <stop offset="1.0" stop-color="#9f9f9f"/>
    </radialGradient>
    <linearGradient gradientTransform="matrix(8.0E-4, 0.0072, -0.0061, 6.0E-4, 12.0, 24.0)" gradientUnits="userSpaceOnUse" id="gradient1" spreadMethod="pad" x1="-819.2" x2="819.2">
      <stop offset="0.28627450980392155" stop-color="#f10e0e"/>
      <stop offset="1.0" stop-color="#892727"/>
    </linearGradient>
  </defs>
</svg>
