<?xml version="1.0" encoding="UTF-8" standalone="no"?>
<svg xmlns:xlink="http://www.w3.org/1999/xlink" height="10.3px" width="11.3px" xmlns="http://www.w3.org/2000/svg">
  <g transform="matrix(1.0, 0.0, 0.0, 1.0, 5.15, 5.15)">
    <path d="M6.0 -2.0 L4.0 3.0 -1.0 2.0 0.0 -5.0 6.0 -2.0" fill="url(#gradient0)" fill-rule="evenodd" stroke="none"/>
    <path d="M0.0 5.0 L-5.0 5.0 -1.0 2.0 4.0 3.0 0.0 5.0" fill="url(#gradient1)" fill-rule="evenodd" stroke="none"/>
    <path d="M-5.0 5.0 L-5.0 -4.0 0.0 -5.0 -1.0 2.0 -5.0 5.0" fill="url(#gradient2)" fill-rule="evenodd" stroke="none"/>
    <path d="M0.05 -5.1 L6.05 -2.1 6.15 -2.05 6.15 -1.95 4.15 3.05 4.05 3.1 0.05 5.1 0.0 5.15 -5.0 5.15 -5.1 5.1 -5.1 5.0 -5.1 -4.0 -5.1 -4.05 -5.0 -4.1 0.0 -5.1 0.05 -5.1 M5.85 -1.95 L0.0 -4.85 -4.85 -3.9 -4.85 4.9 0.0 4.9 3.9 2.95 5.85 -1.95" fill="#e7e75f" fill-rule="evenodd" stroke="none"/>
  </g>
  <defs>
    <radialGradient cx="0" cy="0" gradientTransform="matrix(0.0088, 0.0, 0.0, 0.0088, -0.95, 1.6)" gradientUnits="userSpaceOnUse" id="gradient0" r="819.2" spreadMethod="pad">
      <stop offset="0.0" stop-color="#e4e31b"/>
      <stop offset="0.4627450980392157" stop-color="#e9e86b"/>
      <stop offset="1.0" stop-color="#f5f4ba"/>
    </radialGradient>
    <radialGradient cx="0" cy="0" gradientTransform="matrix(0.007, 0.0, 0.0, 0.007, -1.2, 1.65)" gradientUnits="userSpaceOnUse" id="gradient1" r="819.2" spreadMethod="pad">
      <stop offset="0.0" stop-color="#4d4509"/>
      <stop offset="1.0" stop-color="#8b7e0a"/>
    </radialGradient>
    <radialGradient cx="0" cy="0" fx="12.8" fy="0" gradientTransform="matrix(0.0082, 0.0, 0.0, 0.0082, -1.15, 1.6)" gradientUnits="userSpaceOnUse" id="gradient2" r="819.2" spreadMethod="pad">
      <stop offset="0.0" stop-color="#ba9d1b"/>
      <stop offset="0.8941176470588236" stop-color="#ecda3e"/>
    </radialGradient>
  </defs>
</svg>
