<?xml version="1.0" encoding="UTF-8" standalone="no"?>
<svg xmlns:xlink="http://www.w3.org/1999/xlink" height="17.3px" width="12.3px" xmlns="http://www.w3.org/2000/svg">
  <g transform="matrix(1.0, 0.0, 0.0, 1.0, 7.15, 8.15)">
    <path d="M5.0 -7.0 L0.0 0.0 -7.0 0.0 -2.0 -8.0 5.0 -7.0" fill="url(#gradient0)" fill-rule="evenodd" stroke="none"/>
    <path d="M2.0 8.0 L-4.0 9.0 -7.0 0.0 0.0 0.0 2.0 8.0" fill="url(#gradient1)" fill-rule="evenodd" stroke="none"/>
    <path d="M0.0 0.0 L5.0 -7.0 5.0 5.0 2.0 8.0 0.0 0.0" fill="url(#gradient2)" fill-rule="evenodd" stroke="none"/>
    <path d="M-6.85 0.0 L-3.9 8.85 1.95 7.9 4.9 4.95 4.9 -6.9 -1.95 -7.85 -6.85 0.0 M5.05 -7.1 L5.1 -7.05 5.15 -7.0 5.15 5.0 5.1 5.1 2.1 8.1 2.05 8.15 -3.95 9.15 -4.05 9.1 -4.1 9.05 -7.1 0.05 -7.1 0.0 -7.1 -0.05 -2.1 -8.05 -2.05 -8.1 -1.95 -8.1 5.05 -7.1" fill="#e2e163" fill-rule="evenodd" stroke="none"/>
  </g>
  <defs>
    <radialGradient cx="0" cy="0" gradientTransform="matrix(0.0088, 0.0, 0.0, 0.0088, 0.0, 0.0)" gradientUnits="userSpaceOnUse" id="gradient0" r="819.2" spreadMethod="pad">
      <stop offset="0.0" stop-color="#dddd4d"/>
      <stop offset="0.4745098039215686" stop-color="#e8dd82"/>
      <stop offset="0.9764705882352941" stop-color="#f7f1ce"/>
      <stop offset="1.0" stop-color="#f9f9db"/>
    </radialGradient>
    <radialGradient cx="0" cy="0" gradientTransform="matrix(0.0093, 0.0, 0.0, 0.0093, 0.0, 1.2)" gradientUnits="userSpaceOnUse" id="gradient1" r="819.2" spreadMethod="pad">
      <stop offset="0.0" stop-color="#b39922"/>
      <stop offset="0.8941176470588236" stop-color="#e4d345"/>
    </radialGradient>
    <radialGradient cx="0" cy="0" gradientTransform="matrix(0.0096, 0.0, 0.0, 0.0096, 0.0, 0.0)" gradientUnits="userSpaceOnUse" id="gradient2" r="819.2" spreadMethod="pad">
      <stop offset="0.0" stop-color="#49430c"/>
      <stop offset="1.0" stop-color="#998b11"/>
    </radialGradient>
  </defs>
</svg>
