<?xml version="1.0" encoding="UTF-8" standalone="no"?>
<svg xmlns:xlink="http://www.w3.org/1999/xlink" height="10.3px" width="11.3px" xmlns="http://www.w3.org/2000/svg">
  <g transform="matrix(1.0, 0.0, 0.0, 1.0, 5.15, 5.15)">
    <path d="M6.0 -2.0 L4.0 3.0 -1.0 2.0 0.0 -5.0 6.0 -2.0" fill="url(#gradient0)" fill-rule="evenodd" stroke="none"/>
    <path d="M0.0 5.0 L-5.0 5.0 -1.0 2.0 4.0 3.0 0.0 5.0" fill="url(#gradient1)" fill-rule="evenodd" stroke="none"/>
    <path d="M-5.0 5.0 L-5.0 -4.0 0.0 -5.0 -1.0 2.0 -5.0 5.0" fill="url(#gradient2)" fill-rule="evenodd" stroke="none"/>
    <path d="M5.85 -1.95 L0.0 -4.85 -4.85 -3.9 -4.85 4.9 0.0 4.9 3.9 2.95 5.85 -1.95 M0.05 -5.1 L6.05 -2.1 6.15 -2.05 6.15 -1.95 4.15 3.05 4.05 3.1 0.05 5.1 0.0 5.15 -5.0 5.15 -5.1 5.1 -5.1 5.0 -5.1 -4.0 -5.1 -4.05 -5.0 -4.1 0.0 -5.1 0.05 -5.1" fill="#f07979" fill-rule="evenodd" stroke="none"/>
  </g>
  <defs>
    <radialGradient cx="0" cy="0" gradientTransform="matrix(0.0094, 0.0, 0.0, 0.0094, -0.9, 1.8)" gradientUnits="userSpaceOnUse" id="gradient0" r="819.2" spreadMethod="pad">
      <stop offset="0.00392156862745098" stop-color="#f33636"/>
      <stop offset="0.7647058823529411" stop-color="#fa7070"/>
    </radialGradient>
    <radialGradient cx="0" cy="0" gradientTransform="matrix(0.0058, 0.0, 0.0, 0.0058, -0.85, 2.25)" gradientUnits="userSpaceOnUse" id="gradient1" r="819.2" spreadMethod="pad">
      <stop offset="0.0" stop-color="#4b0a0a"/>
      <stop offset="1.0" stop-color="#aa0000"/>
    </radialGradient>
    <radialGradient cx="0" cy="0" gradientTransform="matrix(0.0068, 0.0, 0.0, 0.0068, -0.95, 1.25)" gradientUnits="userSpaceOnUse" id="gradient2" r="819.2" spreadMethod="pad">
      <stop offset="0.0" stop-color="#b10e0e"/>
      <stop offset="1.0" stop-color="#f33636"/>
    </radialGradient>
  </defs>
</svg>
