<?xml version="1.0" encoding="UTF-8" standalone="no"?>
<svg xmlns:xlink="http://www.w3.org/1999/xlink" height="17.3px" width="12.3px" xmlns="http://www.w3.org/2000/svg">
  <g transform="matrix(1.0, 0.0, 0.0, 1.0, 7.15, 8.15)">
    <path d="M0.0 0.0 L-7.0 0.0 -2.0 -8.0 5.0 -7.0 0.0 0.0" fill="url(#gradient0)" fill-rule="evenodd" stroke="none"/>
    <path d="M2.0 8.0 L0.0 0.0 5.0 -7.0 5.0 5.0 2.0 8.0" fill="url(#gradient1)" fill-rule="evenodd" stroke="none"/>
    <path d="M0.0 0.0 L2.0 8.0 -4.0 9.0 -7.0 0.0 0.0 0.0" fill="url(#gradient2)" fill-rule="evenodd" stroke="none"/>
    <path d="M-6.85 0.0 L-3.9 8.85 1.95 7.9 4.9 4.95 4.9 -6.9 -1.95 -7.85 -6.85 0.0 M5.05 -7.1 L5.1 -7.05 5.15 -7.0 5.15 5.0 5.1 5.1 2.1 8.1 2.05 8.15 -3.95 9.15 -4.05 9.1 -4.1 9.05 -7.1 0.05 -7.1 0.0 -7.1 -0.05 -2.1 -8.05 -2.05 -8.1 -1.95 -8.1 5.05 -7.1" fill="#eb7e7e" fill-rule="evenodd" stroke="none"/>
  </g>
  <defs>
    <radialGradient cx="0" cy="0" gradientTransform="matrix(0.0105, 0.0, 0.0, 0.0105, 0.0, 0.0)" gradientUnits="userSpaceOnUse" id="gradient0" r="819.2" spreadMethod="pad">
      <stop offset="0.00392156862745098" stop-color="#f13838"/>
      <stop offset="0.7686274509803922" stop-color="#f37676"/>
      <stop offset="1.0" stop-color="#f78888"/>
    </radialGradient>
    <radialGradient cx="0" cy="0" gradientTransform="matrix(0.0096, 0.0, 0.0, 0.0096, 0.0, 0.0)" gradientUnits="userSpaceOnUse" id="gradient1" r="819.2" spreadMethod="pad">
      <stop offset="0.0" stop-color="#4b0a0a"/>
      <stop offset="1.0" stop-color="#a20f0f"/>
    </radialGradient>
    <radialGradient cx="0" cy="0" gradientTransform="matrix(0.0078, 0.0, 0.0, 0.0078, -0.05, 0.3)" gradientUnits="userSpaceOnUse" id="gradient2" r="819.2" spreadMethod="pad">
      <stop offset="0.0392156862745098" stop-color="#bf1c1c"/>
      <stop offset="1.0" stop-color="#f93131"/>
    </radialGradient>
  </defs>
</svg>
