<?xml version="1.0" encoding="UTF-8" standalone="no"?>
<svg xmlns:xlink="http://www.w3.org/1999/xlink" height="10.25px" width="7.25px" xmlns="http://www.w3.org/2000/svg">
  <g transform="matrix(1.0, 0.0, 0.0, 1.0, 4.1, 5.1)">
    <path d="M3.0 -2.0 L0.0 0.0 0.0 -5.0 1.0 -5.0 3.0 -2.0" fill="url(#gradient0)" fill-rule="evenodd" stroke="none"/>
    <path d="M-4.0 2.0 L0.0 -5.0 0.0 0.0 -2.0 5.0 -4.0 2.0" fill="url(#gradient1)" fill-rule="evenodd" stroke="none"/>
    <path d="M-2.0 5.0 L0.0 0.0 3.0 -2.0 3.0 5.0 -2.0 5.0" fill="url(#gradient2)" fill-rule="evenodd" stroke="none"/>
    <path d="M2.9 -1.95 L0.95 -4.85 0.05 -4.85 -3.85 2.0 -1.9 4.9 2.9 4.9 2.9 -1.95 M3.1 -2.05 L3.15 -2.0 3.15 5.0 3.1 5.1 3.0 5.15 -2.0 5.15 -2.05 5.1 -2.1 5.1 -4.1 2.1 -4.1 2.0 -4.1 1.95 -0.1 -5.05 -0.05 -5.1 1.05 -5.1 1.1 -5.05 3.1 -2.05" fill="#e96b6b" fill-rule="evenodd" stroke="none"/>
  </g>
  <defs>
    <radialGradient cx="0" cy="0" gradientTransform="matrix(0.0064, 0.0, 0.0, 0.0064, -0.05, 0.05)" gradientUnits="userSpaceOnUse" id="gradient0" r="819.2" spreadMethod="pad">
      <stop offset="0.0" stop-color="#e64a4a"/>
      <stop offset="0.4745098039215686" stop-color="#ea8080"/>
      <stop offset="1.0" stop-color="#fadada"/>
    </radialGradient>
    <radialGradient cx="0" cy="0" gradientTransform="matrix(0.0057, 0.0, 0.0, 0.0057, -0.5, 1.25)" gradientUnits="userSpaceOnUse" id="gradient1" r="819.2" spreadMethod="pad">
      <stop offset="0.0" stop-color="#cd1d1d"/>
      <stop offset="0.8941176470588236" stop-color="#e64444"/>
    </radialGradient>
    <radialGradient cx="0" cy="0" gradientTransform="matrix(0.007, 0.0, 0.0, 0.007, -0.05, 1.75)" gradientUnits="userSpaceOnUse" id="gradient2" r="819.2" spreadMethod="pad">
      <stop offset="0.0" stop-color="#4d0909"/>
      <stop offset="1.0" stop-color="#a30e0e"/>
    </radialGradient>
  </defs>
</svg>
