<?xml version="1.0" encoding="UTF-8" standalone="no"?>
<svg xmlns:xlink="http://www.w3.org/1999/xlink" height="115.0px" width="47.0px" xmlns="http://www.w3.org/2000/svg">
  <g transform="matrix(1.0, 0.0, 0.0, 1.0, 23.5, 57.5)">
    <path d="M3.7 -55.55 Q6.8 -52.6 12.45 -42.3 18.6 -31.1 20.55 -22.85 22.45 -20.6 22.5 -17.05 L22.5 -11.0 22.5 -10.8 Q21.8 -1.75 18.9 14.25 17.25 26.9 20.0 37.7 L20.15 37.8 22.15 38.8 Q22.95 39.2 23.3 40.05 23.65 40.9 23.4 41.8 L22.4 44.8 21.5 46.0 22.2 46.85 Q22.55 47.5 22.5 48.3 22.4 49.1 21.85 49.7 19.6 52.15 19.5 55.05 19.5 56.05 18.75 56.8 18.0 57.5 17.0 57.5 L-17.0 57.5 Q-18.0 57.5 -18.75 56.8 -19.5 56.05 -19.5 55.05 -19.6 52.15 -21.85 49.7 -22.4 49.1 -22.45 48.3 -22.55 47.5 -22.2 46.85 L-21.5 46.0 -22.35 44.8 -23.35 41.8 Q-23.65 40.9 -23.3 40.05 -22.95 39.2 -22.1 38.8 L-20.1 37.8 -19.95 37.7 Q-17.25 26.9 -18.85 14.25 -21.8 -1.75 -22.5 -10.8 L-22.5 -11.0 -22.5 -17.05 Q-22.4 -20.6 -20.55 -22.9 -18.55 -31.1 -12.45 -42.3 -6.5 -53.15 -3.35 -55.9 L-3.05 -56.15 Q-1.35 -57.6 -0.1 -57.5 L0.1 -57.5 Q1.6 -57.65 3.75 -55.55 L3.7 -55.55" fill="#000000" fill-rule="evenodd" stroke="none"/>
    <path d="M17.0 55.0 L0.0 55.0 -17.0 55.0 Q-17.05 51.25 -20.0 48.0 L20.0 48.0 Q17.05 51.25 17.0 55.0" fill="url(#gradient0)" fill-rule="evenodd" stroke="none"/>
    <path d="M17.0 44.0 Q16.75 46.35 20.0 48.0 L-20.0 48.0 Q-16.75 46.35 -17.0 44.0 L0.0 44.0 17.0 44.0" fill="url(#gradient1)" fill-rule="evenodd" stroke="none"/>
    <path d="M20.0 44.0 L-20.0 44.0 -21.0 41.0 21.0 41.0 20.0 44.0" fill="url(#gradient2)" fill-rule="evenodd" stroke="none"/>
    <path d="M21.0 41.0 L-21.0 41.0 -19.0 40.0 19.0 40.0 21.0 41.0" fill="url(#gradient3)" fill-rule="evenodd" stroke="none"/>
    <path d="M-15.2 14.65 L-17.0 -11.0 17.0 -11.0 Q16.7 -2.5 15.4 14.5 14.6 29.6 16.0 40.0 L-16.0 40.0 Q-14.45 29.4 -15.2 14.65" fill="url(#gradient4)" fill-rule="evenodd" stroke="none"/>
    <path d="M14.2 23.9 Q19.35 30.7 20.0 40.0 L-20.0 40.0 Q-19.35 30.7 -14.3 23.9 -8.4 16.0 0.0 16.0 8.4 16.0 14.2 23.9" fill="url(#gradient5)" fill-rule="evenodd" stroke="none"/>
    <path d="M12.0 -9.0 Q13.1 -7.05 13.0 -4.0 12.9 -1.85 9.0 5.0 L9.0 -2.0 12.0 -9.0" fill="url(#gradient6)" fill-rule="evenodd" stroke="none"/>
    <path d="M-12.0 -9.0 L-9.0 -2.0 -9.0 5.0 Q-12.9 -1.85 -13.0 -4.0 -13.1 -7.05 -12.0 -9.0" fill="url(#gradient7)" fill-rule="evenodd" stroke="none"/>
    <path d="M16.0 -11.0 L20.0 -11.0 Q19.3 -2.0 16.4 13.9 14.6 28.1 18.0 40.0 L14.25 40.0 Q10.55 27.25 12.9 11.1 L15.05 -2.4 16.0 -11.0" fill="url(#gradient8)" fill-rule="evenodd" stroke="none"/>
    <path d="M-16.0 -11.0 L-15.05 -2.4 -12.9 11.1 Q-10.6 27.25 -14.25 40.0 L-18.0 40.0 Q-14.6 28.1 -16.4 13.9 -19.3 -2.0 -20.0 -11.0 L-16.0 -11.0" fill="url(#gradient9)" fill-rule="evenodd" stroke="none"/>
    <path d="M10.1 30.55 Q8.15 27.7 8.0 26.0 L9.0 25.0 12.9 30.9 Q15.6 34.55 17.0 36.0 L12.9 33.7 Q11.8 33.0 10.1 30.55 M-9.0 25.0 L-8.0 26.0 Q-8.15 27.7 -10.1 30.55 -11.8 33.0 -12.9 33.7 L-17.0 36.0 Q-15.6 34.55 -12.9 30.9 L-9.0 25.0" fill="#540707" fill-rule="evenodd" stroke="none"/>
    <path d="M-11.0 17.0 L-9.0 10.0 Q-7.85 12.45 -6.0 14.0 -7.65 20.25 -7.35 23.1 -6.95 28.0 -2.0 30.0 L-2.0 34.0 Q-4.35 32.7 -5.95 31.2 -7.6 29.55 -9.0 27.0 -9.9 29.45 -12.55 32.35 -15.0 35.0 -17.0 36.0 L-16.35 32.1 Q-12.8 29.6 -11.05 24.4 -9.35 19.3 -11.0 17.0" fill="url(#gradient10)" fill-rule="evenodd" stroke="none"/>
    <path d="M11.0 17.0 Q9.35 19.3 11.05 24.4 12.8 29.6 16.35 32.1 L17.0 36.0 Q15.0 35.0 12.55 32.35 9.9 29.45 9.0 27.0 7.6 29.55 5.95 31.2 4.35 32.7 2.0 34.0 L2.0 30.0 Q6.95 28.0 7.35 23.1 7.65 20.25 6.0 14.0 7.85 12.45 9.0 10.0 L11.0 17.0" fill="url(#gradient11)" fill-rule="evenodd" stroke="none"/>
    <path d="M8.1 28.55 L6.0 31.2 Q4.4 32.7 2.0 34.0 L2.0 30.0 Q5.8 28.5 6.9 25.35 L8.1 28.55" fill="url(#gradient12)" fill-rule="evenodd" stroke="none"/>
    <path d="M-8.05 28.55 L-6.85 25.35 Q-5.75 28.5 -2.0 30.0 L-2.0 34.0 Q-4.35 32.7 -5.95 31.2 L-8.05 28.55" fill="url(#gradient13)" fill-rule="evenodd" stroke="none"/>
    <path d="M9.05 -2.0 L12.05 -9.0 Q12.8 -7.6 10.05 -2.0 L9.05 -2.0 M-9.0 -2.0 L-10.0 -2.0 Q-12.75 -7.6 -12.0 -9.0 L-9.0 -2.0" fill="#d77d7d" fill-rule="evenodd" stroke="none"/>
    <path d="M9.0 -2.0 L10.0 -2.0 9.8 2.15 Q9.6 3.95 9.0 5.0 L9.0 -2.0 M-9.0 -2.0 L-9.0 5.0 Q-9.6 3.95 -9.8 2.15 L-10.0 -2.0 -9.0 -2.0" fill="#7d3333" fill-rule="evenodd" stroke="none"/>
    <path d="M9.0 10.0 Q8.8 12.8 7.0 14.0 L6.0 14.0 Q7.9 12.45 9.0 10.0 M-6.0 14.0 L-7.0 14.0 Q-8.8 12.8 -9.0 10.0 -7.9 12.45 -6.0 14.0" fill="#ce8686" fill-rule="evenodd" stroke="none"/>
    <path d="M6.0 14.0 L7.0 14.0 Q8.65 21.1 7.55 24.8 6.4 28.6 2.0 30.0 6.75 28.25 7.3 23.35 7.7 20.05 6.0 14.0 M-7.3 23.35 Q-6.75 28.25 -2.0 30.0 -6.4 28.6 -7.55 24.8 -8.65 21.1 -7.0 14.0 L-6.0 14.0 Q-7.7 20.05 -7.3 23.35" fill="#b34d4d" fill-rule="evenodd" stroke="none"/>
    <path d="M0.0 -11.0 L4.0 -11.0 Q1.7 -7.55 1.9 14.9 2.05 37.05 4.0 40.0 L0.0 40.0 -4.0 40.0 Q-2.05 37.05 -1.9 14.9 -1.7 -7.55 -4.0 -11.0 L0.0 -11.0" fill="url(#gradient14)" fill-rule="evenodd" stroke="none"/>
    <path d="M1.9 14.0 L1.9 14.9 Q2.05 37.05 4.0 40.0 L0.0 40.0 -4.0 40.0 Q-2.05 37.05 -1.9 14.9 L-1.9 14.0 1.9 14.0" fill="url(#gradient15)" fill-rule="evenodd" stroke="none"/>
    <path d="M20.0 -17.0 L20.0 -11.0 -20.0 -11.0 -20.0 -17.0 0.0 -17.0 20.0 -17.0" fill="url(#gradient16)" fill-rule="evenodd" stroke="none"/>
    <path d="M15.0 -22.0 L-15.0 -22.0 Q-12.0 -37.8 -2.0 -50.0 L2.0 -50.0 Q11.55 -38.05 15.0 -22.0" fill="url(#gradient17)" fill-rule="evenodd" stroke="none"/>
    <path d="M-1.8 -49.75 L-4.75 -45.1 Q-11.7 -33.5 -14.0 -24.0 L-13.0 -22.0 -18.2 -22.0 Q-16.3 -30.05 -10.25 -41.1 -4.4 -51.8 -1.45 -54.25 L-1.95 -53.8 Q-1.5 -51.9 -1.8 -49.75" fill="url(#gradient18)" fill-rule="evenodd" stroke="none"/>
    <path d="M1.8 -49.75 Q1.4 -51.9 1.95 -53.8 4.85 -50.95 10.25 -41.1 16.3 -30.05 18.2 -22.0 L13.0 -22.0 14.0 -24.0 Q11.7 -33.5 4.75 -45.1 L1.8 -49.75" fill="url(#gradient19)" fill-rule="evenodd" stroke="none"/>
    <path d="M19.0 -17.0 L0.0 -17.0 -19.0 -17.0 Q-18.85 -19.35 -18.2 -22.0 L18.2 -22.0 Q18.85 -19.35 19.0 -17.0" fill="url(#gradient20)" fill-rule="evenodd" stroke="none"/>
    <path d="M19.0 -17.0 L-19.0 -17.0 -19.0 -18.0 19.0 -18.0 19.0 -17.0" fill="#000000" fill-opacity="0.5019608" fill-rule="evenodd" stroke="none"/>
    <path d="M20.0 46.0 L-20.0 46.0 -20.0 44.0 20.0 44.0 20.0 46.0" fill="#000000" fill-opacity="0.2" fill-rule="evenodd" stroke="none"/>
    <path d="M0.0 -55.0 Q0.8 -54.95 1.95 -53.8 1.4 -40.45 1.95 -33.15 2.6 -24.35 5.0 -22.0 L0.0 -22.0 -5.0 -22.0 Q-2.6 -24.35 -1.95 -33.15 -1.4 -40.45 -1.95 -53.8 -0.8 -54.95 0.0 -55.0" fill="url(#gradient21)" fill-rule="evenodd" stroke="none"/>
    <path d="M0.0 -22.0 Q2.7 -19.9 4.0 -17.0 L-4.0 -17.0 Q-2.7 -19.9 0.0 -22.0" fill="url(#gradient22)" fill-rule="evenodd" stroke="none"/>
    <path d="M18.25 -21.7 Q19.95 -19.95 20.0 -17.0 L19.0 -17.0 18.25 -21.7" fill="#693f3f" fill-rule="evenodd" stroke="none"/>
    <path d="M-19.0 -17.0 L-20.0 -17.0 Q-19.95 -19.95 -18.25 -21.7 L-19.0 -17.0" fill="#683e3e" fill-rule="evenodd" stroke="none"/>
  </g>
  <defs>
    <linearGradient gradientTransform="matrix(0.0244, 0.0, 0.0, 0.0043, 0.0, 51.5)" gradientUnits="userSpaceOnUse" id="gradient0" spreadMethod="pad" x1="-819.2" x2="819.2">
      <stop offset="0.0" stop-color="#6a4040"/>
      <stop offset="0.12941176470588237" stop-color="#542c2c"/>
      <stop offset="0.3058823529411765" stop-color="#a55a5a"/>
      <stop offset="0.38823529411764707" stop-color="#d1adad"/>
      <stop offset="0.4745098039215686" stop-color="#eee6e6"/>
      <stop offset="0.5372549019607843" stop-color="#f1e2e2"/>
      <stop offset="0.6196078431372549" stop-color="#d1adad"/>
      <stop offset="0.7372549019607844" stop-color="#a55a5a"/>
      <stop offset="0.8862745098039215" stop-color="#542c2c"/>
      <stop offset="1.0" stop-color="#6a4040"/>
    </linearGradient>
    <radialGradient cx="0" cy="0" gradientTransform="matrix(0.0245, 0.0, 0.0, 0.0245, 0.0, 44.0)" gradientUnits="userSpaceOnUse" id="gradient1" r="819.2" spreadMethod="pad">
      <stop offset="0.12941176470588237" stop-color="#cb7474"/>
      <stop offset="0.7803921568627451" stop-color="#3e1717"/>
      <stop offset="0.9921568627450981" stop-color="#4b1f1f"/>
    </radialGradient>
    <linearGradient gradientTransform="matrix(0.0256, 0.0, 0.0, 0.0018, 0.0, 42.5)" gradientUnits="userSpaceOnUse" id="gradient2" spreadMethod="pad" x1="-819.2" x2="819.2">
      <stop offset="0.0" stop-color="#6a4040"/>
      <stop offset="0.12941176470588237" stop-color="#542c2c"/>
      <stop offset="0.3058823529411765" stop-color="#a55a5a"/>
      <stop offset="0.38823529411764707" stop-color="#d1adad"/>
      <stop offset="0.4745098039215686" stop-color="#eee6e6"/>
      <stop offset="0.5372549019607843" stop-color="#f1e2e2"/>
      <stop offset="0.6196078431372549" stop-color="#d1adad"/>
      <stop offset="0.7372549019607844" stop-color="#a55a5a"/>
      <stop offset="0.8862745098039215" stop-color="#542c2c"/>
      <stop offset="1.0" stop-color="#6a4040"/>
    </linearGradient>
    <linearGradient gradientTransform="matrix(0.0256, 0.0, 0.0, 6.0E-4, 0.0, 40.5)" gradientUnits="userSpaceOnUse" id="gradient3" spreadMethod="pad" x1="-819.2" x2="819.2">
      <stop offset="0.0" stop-color="#984343"/>
      <stop offset="0.12941176470588237" stop-color="#723838"/>
      <stop offset="0.3058823529411765" stop-color="#af5050"/>
      <stop offset="0.38823529411764707" stop-color="#ca9191"/>
      <stop offset="0.4745098039215686" stop-color="#e7c2c2"/>
      <stop offset="0.5372549019607843" stop-color="#e7c2c2"/>
      <stop offset="0.6196078431372549" stop-color="#ca9191"/>
      <stop offset="0.7372549019607844" stop-color="#af5050"/>
      <stop offset="0.8862745098039215" stop-color="#723838"/>
      <stop offset="1.0" stop-color="#984343"/>
    </linearGradient>
    <radialGradient cx="0" cy="0" fx="329.6" fy="0" gradientTransform="matrix(0.0, -0.1006, 0.0303, 0.0, 0.0, 16.0)" gradientUnits="userSpaceOnUse" id="gradient4" r="819.2" spreadMethod="pad">
      <stop offset="0.07058823529411765" stop-color="#dfb5b5"/>
      <stop offset="0.15294117647058825" stop-color="#be5656"/>
      <stop offset="0.4117647058823529" stop-color="#4b1f1f"/>
      <stop offset="0.6196078431372549" stop-color="#2e1212"/>
      <stop offset="0.7333333333333333" stop-color="#321414"/>
    </radialGradient>
    <radialGradient cx="0" cy="0" gradientTransform="matrix(0.0293, 0.0, 0.0, 0.0331, 0.0, 40.0)" gradientUnits="userSpaceOnUse" id="gradient5" r="819.2" spreadMethod="pad">
      <stop offset="0.050980392156862744" stop-color="#d12e2e" stop-opacity="0.5019608"/>
      <stop offset="0.807843137254902" stop-color="#d64545" stop-opacity="0.0"/>
    </radialGradient>
    <radialGradient cx="0" cy="0" gradientTransform="matrix(-0.0244, 0.0, 0.0, 0.1047, 0.0, -12.0)" gradientUnits="userSpaceOnUse" id="gradient6" r="819.2" spreadMethod="pad">
      <stop offset="0.011764705882352941" stop-color="#ffffff"/>
      <stop offset="0.403921568627451" stop-color="#a85757"/>
      <stop offset="0.7686274509803922" stop-color="#582727"/>
      <stop offset="1.0" stop-color="#462424"/>
    </radialGradient>
    <radialGradient cx="0" cy="0" gradientTransform="matrix(0.0244, 0.0, 0.0, 0.1047, 0.0, -12.0)" gradientUnits="userSpaceOnUse" id="gradient7" r="819.2" spreadMethod="pad">
      <stop offset="0.011764705882352941" stop-color="#ffffff"/>
      <stop offset="0.403921568627451" stop-color="#a85757"/>
      <stop offset="0.7686274509803922" stop-color="#582727"/>
      <stop offset="1.0" stop-color="#482222"/>
    </radialGradient>
    <linearGradient gradientTransform="matrix(0.0195, 0.0, 0.0, 0.0311, 0.0, 16.0)" gradientUnits="userSpaceOnUse" id="gradient8" spreadMethod="pad" x1="-819.2" x2="819.2">
      <stop offset="0.0" stop-color="#812929"/>
      <stop offset="0.12941176470588237" stop-color="#651b1b"/>
      <stop offset="0.3058823529411765" stop-color="#ca3535"/>
      <stop offset="0.38823529411764707" stop-color="#f09595"/>
      <stop offset="0.4745098039215686" stop-color="#ffdbdb"/>
      <stop offset="0.5372549019607843" stop-color="#ffdbdb"/>
      <stop offset="0.6196078431372549" stop-color="#f09595"/>
      <stop offset="0.7372549019607844" stop-color="#a55a5a"/>
      <stop offset="0.8862745098039215" stop-color="#542c2c"/>
      <stop offset="1.0" stop-color="#683e3e"/>
    </linearGradient>
    <linearGradient gradientTransform="matrix(0.0195, 0.0, 0.0, 0.0311, 0.0, 14.0)" gradientUnits="userSpaceOnUse" id="gradient9" spreadMethod="pad" x1="-819.2" x2="819.2">
      <stop offset="0.0" stop-color="#683e3e"/>
      <stop offset="0.12941176470588237" stop-color="#552b2b"/>
      <stop offset="0.3058823529411765" stop-color="#ca3535"/>
      <stop offset="0.38823529411764707" stop-color="#f09595"/>
      <stop offset="0.4745098039215686" stop-color="#ffdbdb"/>
      <stop offset="0.5372549019607843" stop-color="#ffdbdb"/>
      <stop offset="0.6196078431372549" stop-color="#f09595"/>
      <stop offset="0.7372549019607844" stop-color="#ca3535"/>
      <stop offset="0.8862745098039215" stop-color="#651b1b"/>
      <stop offset="1.0" stop-color="#812929"/>
    </linearGradient>
    <radialGradient cx="0" cy="0" gradientTransform="matrix(0.0293, 0.0, 0.0, 0.1055, 0.0, -12.0)" gradientUnits="userSpaceOnUse" id="gradient10" r="819.2" spreadMethod="pad">
      <stop offset="0.011764705882352941" stop-color="#ffffff"/>
      <stop offset="0.32941176470588235" stop-color="#8f4545"/>
      <stop offset="0.7254901960784313" stop-color="#653030"/>
      <stop offset="0.8666666666666667" stop-color="#743636"/>
    </radialGradient>
    <radialGradient cx="0" cy="0" gradientTransform="matrix(-0.0293, 0.0, 0.0, 0.1055, 0.0, -12.0)" gradientUnits="userSpaceOnUse" id="gradient11" r="819.2" spreadMethod="pad">
      <stop offset="0.011764705882352941" stop-color="#e69999"/>
      <stop offset="0.32941176470588235" stop-color="#914444"/>
      <stop offset="0.7254901960784313" stop-color="#653030"/>
      <stop offset="0.8666666666666667" stop-color="#6b3030"/>
    </radialGradient>
    <radialGradient cx="0" cy="0" gradientTransform="matrix(-0.0077, 0.0, 0.0, 0.0166, 0.0, 34.0)" gradientUnits="userSpaceOnUse" id="gradient12" r="819.2" spreadMethod="pad">
      <stop offset="0.4196078431372549" stop-color="#b15a5a"/>
      <stop offset="0.8627450980392157" stop-color="#b65f5f" stop-opacity="0.0"/>
      <stop offset="1.0" stop-color="#deb6b6" stop-opacity="0.0"/>
    </radialGradient>
    <radialGradient cx="0" cy="0" gradientTransform="matrix(0.0077, 0.0, 0.0, 0.0166, 0.0, 34.0)" gradientUnits="userSpaceOnUse" id="gradient13" r="819.2" spreadMethod="pad">
      <stop offset="0.4196078431372549" stop-color="#b74848"/>
      <stop offset="0.8588235294117647" stop-color="#753535" stop-opacity="0.0"/>
      <stop offset="1.0" stop-color="#ddb7b7" stop-opacity="0.0"/>
    </radialGradient>
    <radialGradient cx="0" cy="0" gradientTransform="matrix(0.0317, 0.0, 0.0, 0.1086, 0.0, -12.0)" gradientUnits="userSpaceOnUse" id="gradient14" r="819.2" spreadMethod="pad">
      <stop offset="0.011764705882352941" stop-color="#fccfcf"/>
      <stop offset="0.32941176470588235" stop-color="#9a3932"/>
      <stop offset="0.5725490196078431" stop-color="#482222"/>
      <stop offset="0.796078431372549" stop-color="#2d1313"/>
      <stop offset="1.0" stop-color="#492121"/>
    </radialGradient>
    <linearGradient gradientTransform="matrix(-2.0E-4, -0.0244, 0.0311, -3.0E-4, -3.75, 40.05)" gradientUnits="userSpaceOnUse" id="gradient15" spreadMethod="pad" x1="-819.2" x2="819.2">
      <stop offset="0.5529411764705883" stop-color="#d6a9a9"/>
      <stop offset="1.0" stop-color="#924949" stop-opacity="0.0"/>
    </linearGradient>
    <linearGradient gradientTransform="matrix(0.0244, 0.0, 0.0, 0.0037, 0.0, -14.0)" gradientUnits="userSpaceOnUse" id="gradient16" spreadMethod="pad" x1="-819.2" x2="819.2">
      <stop offset="0.0" stop-color="#6a4040"/>
      <stop offset="0.12941176470588237" stop-color="#542c2c"/>
      <stop offset="0.2980392156862745" stop-color="#a55a5a"/>
      <stop offset="0.4588235294117647" stop-color="#facbcb"/>
      <stop offset="0.5019607843137255" stop-color="#fcdede"/>
      <stop offset="0.5529411764705883" stop-color="#facbcb"/>
      <stop offset="0.7372549019607844" stop-color="#a55a5a"/>
      <stop offset="0.8862745098039215" stop-color="#542c2c"/>
      <stop offset="1.0" stop-color="#6a4040"/>
    </linearGradient>
    <radialGradient cx="0" cy="0" gradientTransform="matrix(0.0152, 0.0, 0.0, 0.036, 0.0, -22.0)" gradientUnits="userSpaceOnUse" id="gradient17" r="819.2" spreadMethod="pad">
      <stop offset="0.14901960784313725" stop-color="#b5b5b5"/>
      <stop offset="0.39215686274509803" stop-color="#787878"/>
      <stop offset="0.5490196078431373" stop-color="#575353"/>
      <stop offset="0.7176470588235294" stop-color="#383838"/>
      <stop offset="0.8470588235294118" stop-color="#232323"/>
      <stop offset="0.9607843137254902" stop-color="#181818"/>
    </radialGradient>
    <linearGradient gradientTransform="matrix(0.022, 0.0, 0.0, 0.0197, 0.0, -38.05)" gradientUnits="userSpaceOnUse" id="gradient18" spreadMethod="pad" x1="-819.2" x2="819.2">
      <stop offset="0.0" stop-color="#232323"/>
      <stop offset="0.25098039215686274" stop-color="#313131"/>
      <stop offset="0.6313725490196078" stop-color="#666666"/>
      <stop offset="0.8823529411764706" stop-color="#4a4a4a"/>
    </linearGradient>
    <linearGradient gradientTransform="matrix(-0.022, 0.0, 0.0, -0.0194, -0.05, -38.65)" gradientUnits="userSpaceOnUse" id="gradient19" spreadMethod="pad" x1="-819.2" x2="819.2">
      <stop offset="0.0" stop-color="#232323"/>
      <stop offset="0.25098039215686274" stop-color="#313131"/>
      <stop offset="0.6313725490196078" stop-color="#666666"/>
      <stop offset="0.8823529411764706" stop-color="#4a4a4a"/>
    </linearGradient>
    <linearGradient gradientTransform="matrix(0.0232, 0.0, 0.0, 0.0031, 0.0, -19.5)" gradientUnits="userSpaceOnUse" id="gradient20" spreadMethod="pad" x1="-819.2" x2="819.2">
      <stop offset="0.0392156862745098" stop-color="#232323"/>
      <stop offset="0.1450980392156863" stop-color="#2e2e2e"/>
      <stop offset="0.23529411764705882" stop-color="#574a4a"/>
      <stop offset="0.3254901960784314" stop-color="#8a8a8a"/>
      <stop offset="0.38823529411764707" stop-color="#b8b8b8"/>
      <stop offset="0.5058823529411764" stop-color="#e2e2e2"/>
      <stop offset="0.6196078431372549" stop-color="#b8b8b8"/>
      <stop offset="0.6823529411764706" stop-color="#8a8a8a"/>
      <stop offset="0.7647058823529411" stop-color="#574a4a"/>
      <stop offset="0.8549019607843137" stop-color="#2e2e2e"/>
      <stop offset="0.9725490196078431" stop-color="#232323"/>
    </linearGradient>
    <radialGradient cx="0" cy="0" gradientTransform="matrix(0.038, 0.0, 0.0, 0.0556, 0.0, -22.0)" gradientUnits="userSpaceOnUse" id="gradient21" r="819.2" spreadMethod="pad">
      <stop offset="0.058823529411764705" stop-color="#cacaca"/>
      <stop offset="0.27058823529411763" stop-color="#8a8a8a"/>
      <stop offset="0.44313725490196076" stop-color="#685e5e"/>
      <stop offset="0.596078431372549" stop-color="#464646"/>
      <stop offset="0.6941176470588235" stop-color="#2e2e2e"/>
      <stop offset="0.8" stop-color="#2e2e2e"/>
    </radialGradient>
    <radialGradient cx="0" cy="0" gradientTransform="matrix(0.0135, 0.0, 0.0, 0.0299, 0.0, -16.0)" gradientUnits="userSpaceOnUse" id="gradient22" r="819.2" spreadMethod="pad">
      <stop offset="0.12156862745098039" stop-color="#fbdfdf"/>
      <stop offset="0.22745098039215686" stop-color="#facbcb"/>
      <stop offset="0.3607843137254902" stop-color="#c88989"/>
      <stop offset="0.596078431372549" stop-color="#883737"/>
      <stop offset="0.8509803921568627" stop-color="#592626"/>
      <stop offset="1.0" stop-color="#4b1f1f"/>
    </radialGradient>
  </defs>
</svg>
