<?xml version="1.0" encoding="UTF-8" standalone="no"?>
<svg xmlns:xlink="http://www.w3.org/1999/xlink" height="14.85px" width="40.0px" xmlns="http://www.w3.org/2000/svg">
  <g transform="matrix(1.0, 0.0, 0.0, 1.0, 20.0, 7.4)">
    <path d="M20.0 -1.05 Q20.0 2.3 17.9 4.8 15.55 7.5 11.95 7.45 7.6 7.4 5.35 5.25 3.35 3.4 3.3 0.35 3.25 -3.3 6.3 -5.6 8.8 -7.45 11.35 -7.4 14.3 -7.35 17.2 -5.15 20.0 -3.0 20.0 -1.05 M-6.3 -5.6 Q-3.25 -3.3 -3.3 0.35 -3.35 3.4 -5.35 5.25 -7.6 7.4 -11.95 7.45 -15.55 7.5 -17.9 4.8 -20.0 2.3 -20.0 -1.05 -20.0 -3.0 -17.2 -5.15 -14.3 -7.35 -11.35 -7.4 -8.8 -7.45 -6.3 -5.6" fill="#ff0000" fill-rule="evenodd" stroke="none"/>
  </g>
</svg>
