<?xml version="1.0" encoding="UTF-8" standalone="no"?>
<svg xmlns:xlink="http://www.w3.org/1999/xlink" height="58.15px" width="32.05px" xmlns="http://www.w3.org/2000/svg">
  <g transform="matrix(1.0, 0.0, 0.0, 1.0, -377.6, -375.2)">
    <path d="M382.7 380.3 Q381.85 381.2 380.6 381.2 379.35 381.2 378.45 380.3 377.6 379.45 377.6 378.2 377.6 376.95 378.45 376.05 379.35 375.2 380.6 375.2 381.85 375.2 382.7 376.05 383.6 376.95 383.6 378.2 383.6 379.45 382.7 380.3 M408.65 432.35 Q407.7 433.35 406.3 433.35 404.9 433.35 403.9 432.35 402.95 431.4 402.95 430.0 402.95 428.65 403.9 427.6 404.9 426.65 406.3 426.65 407.7 426.65 408.65 427.6 409.65 428.65 409.65 430.0 409.65 431.4 408.65 432.35 M402.25 400.9 Q401.3 401.9 399.9 401.9 398.5 401.9 397.5 400.9 396.55 399.95 396.55 398.55 396.55 397.2 397.5 396.15 398.5 395.2 399.9 395.2 401.3 395.2 402.25 396.15 403.25 397.2 403.25 398.55 403.25 399.95 402.25 400.9" fill="#c1bb02" fill-rule="evenodd" stroke="none"/>
  </g>
</svg>
