<?xml version="1.0" encoding="UTF-8" standalone="no"?>
<svg xmlns:xlink="http://www.w3.org/1999/xlink" height="88.55px" width="109.45px" xmlns="http://www.w3.org/2000/svg">
  <g transform="matrix(1.0, 0.0, 0.0, 1.0, 54.3, 44.5)">
    <path d="M27.0 -43.65 Q33.85 -43.05 36.95 -41.8 L38.15 -41.45 Q40.4 -40.25 40.5 -37.05 40.6 -34.6 39.8 -27.65 L38.35 -14.4 Q37.25 -1.95 38.2 7.35 42.4 7.5 46.6 8.6 56.2 11.0 55.05 18.3 54.55 24.75 44.35 31.15 43.55 31.65 42.6 31.5 30.3 29.5 6.5 36.15 L-11.6 41.2 Q-18.95 43.05 -23.95 43.45 -40.45 45.65 -48.4 40.1 -52.65 37.2 -53.7 32.25 -55.9 23.9 -50.35 15.35 -45.0 7.05 -33.8 1.6 -33.65 -3.9 -34.05 -10.15 L-34.05 -10.2 Q-34.4 -15.7 -35.55 -25.95 -36.6 -34.5 -36.5 -37.05 -36.4 -40.25 -34.1 -41.45 L-32.9 -41.8 Q-29.85 -43.05 -22.95 -43.65 L2.0 -44.5 26.95 -43.65 27.0 -43.65" fill="#000000" fill-rule="evenodd" stroke="none"/>
    <path d="M-34.0 6.0 L27.0 24.0 Q-0.2 36.4 -19.15 40.1 -38.4 43.8 -47.0 38.0 -50.6 35.55 -51.35 31.2 -52.15 26.5 -49.0 22.0 -45.95 17.65 -39.65 11.4 L-34.0 6.0" fill="url(#gradient0)" fill-rule="evenodd" stroke="none"/>
    <path d="M-32.85 6.05 Q-30.5 5.45 -27.0 8.0 L-27.0 22.0 -36.2 23.8 -38.3 15.5 Q-42.8 18.25 -47.0 22.0 L-47.0 18.0 Q-42.3 12.35 -37.2 9.6 -34.75 6.6 -32.85 6.05" fill="url(#gradient1)" fill-rule="evenodd" stroke="none"/>
    <path d="M-29.0 7.0 Q-37.7 9.75 -42.6 15.75 -47.95 22.25 -47.0 30.75 L-51.05 32.4 Q-53.4 24.65 -48.25 16.7 -42.8 8.3 -31.0 3.0 L-29.0 7.0" fill="url(#gradient2)" fill-rule="evenodd" stroke="none"/>
    <path d="M38.0 -37.0 Q38.1 -34.65 37.3 -27.95 L35.85 -14.65 Q34.2 4.3 37.15 16.05 37.7 18.2 25.95 22.45 14.0 26.8 1.0 29.0 -11.4 29.95 -21.35 28.45 -30.5 27.1 -36.0 24.0 -30.1 11.85 -31.55 -10.35 -31.9 -15.9 -33.1 -26.25 -34.1 -34.55 -34.0 -37.0 -33.95 -38.65 -32.85 -39.3 L1.0 -39.0 36.85 -39.3 Q37.95 -38.65 38.0 -37.0" fill="url(#gradient3)" fill-rule="evenodd" stroke="none"/>
    <path d="M2.0 -36.0 L-22.75 -36.9 Q-33.0 -37.75 -33.0 -39.0 -33.0 -40.25 -22.75 -41.15 L2.0 -42.0 26.75 -41.15 Q37.0 -40.25 37.0 -39.0 37.0 -37.75 26.75 -36.9 L2.0 -36.0" fill="url(#gradient4)" fill-rule="evenodd" stroke="none"/>
    <path d="M12.0 12.0 L12.0 14.0 8.0 14.0 8.0 12.0 12.0 12.0" fill="#000000" fill-rule="evenodd" stroke="none"/>
    <path d="M22.85 12.3 L9.7 13.65 8.0 13.0 8.0 13.75 8.0 23.0 5.0 23.0 5.0 14.0 4.0 12.0 7.0 9.0 Q9.7 11.05 13.7 11.05 17.7 11.05 21.0 9.0 22.4 10.5 23.0 12.0 L22.85 12.3" fill="#000000" fill-opacity="0.2509804" fill-rule="evenodd" stroke="none"/>
    <path d="M6.0 28.0 Q-6.1 30.75 -20.85 28.7 -34.45 26.85 -36.35 23.6 L-35.1 19.2 Q-33.8 14.7 -33.0 11.0 -32.6 10.0 -32.05 10.25 -23.7 13.6 -9.85 14.15 5.25 14.75 26.0 12.0 L6.0 28.0" fill="url(#gradient5)" fill-rule="evenodd" stroke="none"/>
    <path d="M-33.8 17.5 Q-26.15 21.15 -13.0 21.85 -0.85 22.45 15.4 20.5 L27.0 19.0 M-34.75 21.05 Q-22.85 27.75 9.6 25.15 L27.0 23.0 M-32.95 13.75 Q-25.1 17.2 -11.15 17.8 3.2 18.45 21.4 16.0" fill="none" stroke="url(#gradient6)" stroke-linecap="round" stroke-linejoin="round" stroke-width="1.5"/>
    <path d="M23.0 16.0 L21.0 16.0 23.0 14.4 23.0 16.0" fill="#993300" fill-rule="evenodd" stroke="none"/>
    <path d="M22.95 12.4 L10.7 13.65 9.0 13.0 9.0 13.75 9.0 23.0 6.0 23.0 6.0 14.0 5.0 12.0 8.0 11.65 Q10.3 12.65 14.75 12.55 19.5 12.4 22.0 11.0 L22.95 12.4" fill="url(#gradient7)" fill-rule="evenodd" stroke="none"/>
    <path d="M22.0 11.0 Q19.5 12.4 14.75 12.55 10.3 12.65 8.0 11.65 L8.0 9.0 Q10.7 11.05 14.7 11.05 18.7 11.05 22.0 9.0 L22.0 11.0" fill="url(#gradient8)" fill-rule="evenodd" stroke="none"/>
    <path d="M22.0 11.0 L22.0 9.0 Q23.4 10.5 24.0 12.0 L23.85 12.3 22.95 12.4 22.0 11.0" fill="url(#gradient9)" fill-rule="evenodd" stroke="none"/>
    <path d="M8.0 11.65 L5.0 12.0 8.0 9.0 8.0 11.65" fill="#ffffff" fill-rule="evenodd" stroke="none"/>
    <path d="M-11.0 32.0 Q-22.0 36.55 -28.0 38.0" fill="none" stroke="url(#gradient10)" stroke-linecap="round" stroke-linejoin="round" stroke-width="0.5"/>
    <path d="M43.0 29.0 Q30.35 26.9 5.8 33.75 L-12.2 38.75 Q-21.65 41.15 -27.0 41.0 L-26.0 36.0 Q-17.6 35.25 -8.1 30.0 L8.25 19.75 Q18.1 13.5 25.45 11.35 35.55 8.4 46.0 11.0 53.15 12.8 52.55 18.0 51.9 23.45 43.0 29.0" fill="url(#gradient11)" fill-rule="evenodd" stroke="none"/>
    <path d="M51.1 19.7 Q50.7 21.65 48.9 23.5 47.45 24.9 43.8 27.4 37.7 26.05 25.35 28.05 14.0 29.85 0.6 33.9 L-10.85 37.45 -22.3 40.6 Q-15.6 38.4 -6.25 33.55 2.15 29.2 10.6 23.85 20.1 17.85 27.15 15.75 36.6 13.0 46.4 15.45 51.1 16.6 51.1 19.7" fill="url(#gradient12)" fill-rule="evenodd" stroke="none"/>
    <path d="M13.95 -28.85 L17.55 -26.7 Q19.7 -25.8 22.25 -26.75 L25.15 -19.35 25.8 -15.7 25.65 -14.05 6.55 -6.3 0.9 -21.2 1.15 -21.95 2.0 -23.0 Q3.25 -25.5 7.75 -27.7 12.2 -29.9 13.95 -28.85" fill="#000000" fill-opacity="0.2509804" fill-rule="evenodd" stroke="none"/>
  </g>
  <defs>
    <radialGradient cx="0" cy="0" gradientTransform="matrix(0.061, 0.0, 0.0, 0.0387, -7.0, 20.0)" gradientUnits="userSpaceOnUse" id="gradient0" r="819.2" spreadMethod="pad">
      <stop offset="0.23137254901960785" stop-color="#362b27"/>
      <stop offset="0.5411764705882353" stop-color="#45322c"/>
      <stop offset="1.0" stop-color="#745447"/>
    </radialGradient>
    <linearGradient gradientTransform="matrix(0.0102, -0.004, 0.0033, 0.0085, -38.0, 14.5)" gradientUnits="userSpaceOnUse" id="gradient1" spreadMethod="pad" x1="-819.2" x2="819.2">
      <stop offset="0.15294117647058825" stop-color="#2c1f1b" stop-opacity="0.4"/>
      <stop offset="0.43137254901960786" stop-color="#231d1a"/>
      <stop offset="0.6627450980392157" stop-color="#201a17"/>
    </linearGradient>
    <linearGradient gradientTransform="matrix(-0.0149, 0.0184, -0.0143, -0.0115, -40.95, 18.4)" gradientUnits="userSpaceOnUse" id="gradient2" spreadMethod="pad" x1="-819.2" x2="819.2">
      <stop offset="0.1568627450980392" stop-color="#231d1a"/>
      <stop offset="0.1843137254901961" stop-color="#332925"/>
      <stop offset="0.44313725490196076" stop-color="#332925"/>
      <stop offset="0.6470588235294118" stop-color="#563e36"/>
      <stop offset="0.9568627450980393" stop-color="#6e5043"/>
      <stop offset="1.0" stop-color="#6e5043" stop-opacity="0.0"/>
    </linearGradient>
    <radialGradient cx="0" cy="0" gradientTransform="matrix(0.05, 0.0, 0.0, 0.1332, 3.0, -36.0)" gradientUnits="userSpaceOnUse" id="gradient3" r="819.2" spreadMethod="pad">
      <stop offset="0.0196078431372549" stop-color="#665249"/>
      <stop offset="0.5568627450980392" stop-color="#453731"/>
      <stop offset="0.807843137254902" stop-color="#322824"/>
      <stop offset="0.9725490196078431" stop-color="#342a25"/>
    </radialGradient>
    <linearGradient gradientTransform="matrix(1.0E-4, -0.0085, 0.0037, 0.0, 2.0, -39.0)" gradientUnits="userSpaceOnUse" id="gradient4" spreadMethod="pad" x1="-819.2" x2="819.2">
      <stop offset="0.0" stop-color="#835e52"/>
      <stop offset="1.0" stop-color="#5e4a42"/>
    </linearGradient>
    <radialGradient cx="0" cy="0" gradientTransform="matrix(0.0462, 0.0095, -0.0131, 0.0639, 1.0, 14.0)" gradientUnits="userSpaceOnUse" id="gradient5" r="819.2" spreadMethod="pad">
      <stop offset="0.047058823529411764" stop-color="#ea921c"/>
      <stop offset="0.3411764705882353" stop-color="#dc8630"/>
      <stop offset="0.8784313725490196" stop-color="#824c16"/>
      <stop offset="1.0" stop-color="#ae651e"/>
    </radialGradient>
    <radialGradient cx="0" cy="0" gradientTransform="matrix(0.0464, 0.0, 0.0, 0.0305, 0.55, 17.6)" gradientUnits="userSpaceOnUse" id="gradient6" r="819.2" spreadMethod="pad">
      <stop offset="0.0196078431372549" stop-color="#a56321"/>
      <stop offset="0.8117647058823529" stop-color="#482f0d"/>
      <stop offset="0.9490196078431372" stop-color="#894518"/>
    </radialGradient>
    <radialGradient cx="0" cy="0" gradientTransform="matrix(9.0E-4, -0.0163, 0.023, 0.0014, 8.55, 12.3)" gradientUnits="userSpaceOnUse" id="gradient7" r="819.2" spreadMethod="pad">
      <stop offset="0.2196078431372549" stop-color="#577d84"/>
      <stop offset="0.33725490196078434" stop-color="#51757b"/>
      <stop offset="0.4588235294117647" stop-color="#37585e"/>
      <stop offset="0.7098039215686275" stop-color="#304e50"/>
      <stop offset="0.8509803921568627" stop-color="#54808d"/>
      <stop offset="0.9450980392156862" stop-color="#6493a2"/>
      <stop offset="1.0" stop-color="#4a7375"/>
    </radialGradient>
    <linearGradient gradientTransform="matrix(0.0085, 0.0, 0.0, 0.0022, 15.0, 10.75)" gradientUnits="userSpaceOnUse" id="gradient8" spreadMethod="pad" x1="-819.2" x2="819.2">
      <stop offset="0.011764705882352941" stop-color="#769ba6"/>
      <stop offset="0.3254901960784314" stop-color="#53818e"/>
      <stop offset="0.5764705882352941" stop-color="#6d94a0"/>
      <stop offset="0.788235294117647" stop-color="#beced4"/>
      <stop offset="1.0" stop-color="#beced4"/>
    </linearGradient>
    <radialGradient cx="0" cy="0" gradientTransform="matrix(0.0107, -0.0123, 0.0173, 0.0152, 8.55, 12.3)" gradientUnits="userSpaceOnUse" id="gradient9" r="819.2" spreadMethod="pad">
      <stop offset="0.058823529411764705" stop-color="#ffffff"/>
      <stop offset="0.08627450980392157" stop-color="#d3e0e2"/>
      <stop offset="0.2196078431372549" stop-color="#769ba6"/>
      <stop offset="0.3254901960784314" stop-color="#53818e"/>
      <stop offset="0.4588235294117647" stop-color="#37585e"/>
      <stop offset="0.5647058823529412" stop-color="#304e50"/>
      <stop offset="0.796078431372549" stop-color="#54808d"/>
      <stop offset="0.8784313725490196" stop-color="#6493a2"/>
      <stop offset="1.0" stop-color="#4a7375"/>
    </radialGradient>
    <linearGradient gradientTransform="matrix(0.0115, -0.0028, 9.0E-4, 0.0039, -19.5, 35.0)" gradientUnits="userSpaceOnUse" id="gradient10" spreadMethod="pad" x1="-819.2" x2="819.2">
      <stop offset="0.1450980392156863" stop-color="#44322b" stop-opacity="0.5803922"/>
      <stop offset="0.37254901960784315" stop-color="#42312a"/>
      <stop offset="1.0" stop-color="#2b1f1c"/>
    </linearGradient>
    <radialGradient cx="0" cy="0" gradientTransform="matrix(0.0685, -0.0056, 0.0029, 0.0352, 18.0, 14.0)" gradientUnits="userSpaceOnUse" id="gradient11" r="819.2" spreadMethod="pad">
      <stop offset="0.0" stop-color="#6c4d42"/>
      <stop offset="0.6392156862745098" stop-color="#3c2c26"/>
      <stop offset="0.7686274509803922" stop-color="#352826"/>
      <stop offset="1.0" stop-color="#2c2121" stop-opacity="0.0"/>
    </radialGradient>
    <linearGradient gradientTransform="matrix(-0.0023, -0.0115, 0.0157, -0.0031, 15.9, 24.15)" gradientUnits="userSpaceOnUse" id="gradient12" spreadMethod="pad" x1="-819.2" x2="819.2">
      <stop offset="0.11372549019607843" stop-color="#000000" stop-opacity="0.0"/>
      <stop offset="0.30980392156862746" stop-color="#000000" stop-opacity="0.43137255"/>
      <stop offset="1.0" stop-color="#000000" stop-opacity="0.4"/>
    </linearGradient>
  </defs>
</svg>
