<?xml version="1.0" encoding="UTF-8" standalone="no"?>
<svg xmlns:xlink="http://www.w3.org/1999/xlink" height="18.75px" width="21.0px" xmlns="http://www.w3.org/2000/svg">
  <g transform="matrix(1.0, 0.0, 0.0, 1.0, 12.0, 10.75)">
    <path d="M-10.0 -9.0 L-10.0 8.0 -12.0 8.0 -12.0 -7.0 Q-11.65 -7.8 -10.0 -9.0" fill="url(#gradient0)" fill-rule="evenodd" stroke="none"/>
    <path d="M9.0 -4.0 L9.0 4.0 -10.0 4.0 -10.0 -9.0 Q-8.0 -10.8 -3.6 -10.75 0.7 -10.65 2.0 -9.0 3.6 -6.65 4.55 -5.65 6.25 -4.05 9.0 -4.0" fill="url(#gradient1)" fill-rule="evenodd" stroke="none"/>
    <path d="M9.0 8.0 L-11.0 8.0 -11.0 4.0 9.0 4.0 9.0 8.0" fill="url(#gradient2)" fill-rule="evenodd" stroke="none"/>
    <path d="M7.0 6.0 L6.0 6.0 6.0 4.0 7.0 4.0 7.0 6.0 M0.0 6.0 L0.0 4.0 1.0 4.0 1.0 6.0 0.0 6.0 M3.0 4.0 L4.0 4.0 4.0 6.0 3.0 6.0 3.0 4.0 M-5.0 6.0 L-6.0 6.0 -6.0 4.0 -5.0 4.0 -5.0 6.0 M-2.0 4.0 L-2.0 6.0 -3.0 6.0 -3.0 4.0 -2.0 4.0 M-9.0 4.0 L-8.0 4.0 -8.0 6.0 -9.0 6.0 -9.0 4.0" fill="#000000" fill-rule="evenodd" stroke="none"/>
    <path d="M9.0 5.0 L-11.0 5.0 -11.0 4.0 9.0 4.0 9.0 5.0" fill="#000000" fill-opacity="0.2" fill-rule="evenodd" stroke="none"/>
    <path d="M1.45 -5.4 Q0.05 -6.8 -2.0 -6.7 L-2.0 -4.0 -2.0 -0.85 Q-1.95 0.3 -3.35 0.9 -4.8 1.45 -5.3 0.65 -5.9 -0.35 -4.9 -1.1 -3.95 -1.9 -2.7 -1.65 L-2.7 -4.0 -2.7 -8.0 Q-0.95 -8.05 0.15 -7.4 1.25 -6.7 1.45 -5.4" fill="url(#gradient3)" fill-rule="evenodd" stroke="none"/>
  </g>
  <defs>
    <radialGradient cx="0" cy="0" gradientTransform="matrix(0.0488, 0.0171, -0.0169, 0.0483, -8.0, -20.0)" gradientUnits="userSpaceOnUse" id="gradient0" r="819.2" spreadMethod="pad">
      <stop offset="0.0196078431372549" stop-color="#ce0606"/>
      <stop offset="0.5568627450980392" stop-color="#980e03"/>
      <stop offset="0.8470588235294118" stop-color="#751401"/>
    </radialGradient>
    <radialGradient cx="0" cy="0" gradientTransform="matrix(0.0514, 0.0192, -0.0236, 0.0629, -16.0, 2.0)" gradientUnits="userSpaceOnUse" id="gradient1" r="819.2" spreadMethod="pad">
      <stop offset="0.0196078431372549" stop-color="#f31403"/>
      <stop offset="0.49411764705882355" stop-color="#9f0e02"/>
      <stop offset="0.807843137254902" stop-color="#6f0a02"/>
    </radialGradient>
    <radialGradient cx="0" cy="0" gradientTransform="matrix(0.0514, 0.0192, -0.0236, 0.0629, -16.0, 2.0)" gradientUnits="userSpaceOnUse" id="gradient2" r="819.2" spreadMethod="pad">
      <stop offset="0.0196078431372549" stop-color="#ffffff"/>
      <stop offset="0.3411764705882353" stop-color="#d0d0d0"/>
      <stop offset="0.807843137254902" stop-color="#9b9b9b"/>
      <stop offset="1.0" stop-color="#404040"/>
    </radialGradient>
    <radialGradient cx="0" cy="0" gradientTransform="matrix(0.0438, 0.0174, -0.0261, 0.0656, -8.0, -20.0)" gradientUnits="userSpaceOnUse" id="gradient3" r="819.2" spreadMethod="pad">
      <stop offset="0.10980392156862745" stop-color="#382607"/>
      <stop offset="0.5568627450980392" stop-color="#3b2d09"/>
      <stop offset="0.807843137254902" stop-color="#3b2d09"/>
      <stop offset="1.0" stop-color="#3b2d09"/>
    </radialGradient>
  </defs>
</svg>
