<?xml version="1.0" encoding="UTF-8" standalone="no"?>
<svg xmlns:xlink="http://www.w3.org/1999/xlink" height="81.0px" width="61.0px" xmlns="http://www.w3.org/2000/svg">
  <g transform="matrix(1.0, 0.0, 0.0, 1.0, 30.5, 40.5)">
    <path d="M21.8 -28.35 L21.75 -28.35 Q30.5 -16.6 30.5 0.0 30.5 16.6 21.8 28.35 L21.75 28.35 Q12.8 40.6 0.0 40.5 -12.8 40.6 -21.8 28.35 -30.5 16.6 -30.5 0.0 -30.5 -16.6 -21.8 -28.35 -12.8 -40.6 0.0 -40.5 12.8 -40.6 21.8 -28.35" fill="#000000" fill-rule="evenodd" stroke="none"/>
    <path d="M19.75 -26.9 Q28.0 -15.75 28.0 0.0 28.0 15.75 19.75 26.85 11.6 38.0 0.0 38.0 -11.6 38.0 -19.8 26.85 -28.0 15.75 -28.0 0.0 -28.0 -15.75 -19.8 -26.9 -11.6 -38.0 0.0 -38.0 11.6 -38.0 19.75 -26.9" fill="url(#gradient0)" fill-rule="evenodd" stroke="none"/>
    <path d="M19.75 -26.9 Q28.0 -15.75 28.0 0.0 28.0 15.75 19.75 26.85 11.6 38.0 0.0 38.0 -11.6 38.0 -19.8 26.85 -28.0 15.75 -28.0 0.0 -28.0 -15.75 -19.8 -26.9 -11.6 -38.0 0.0 -38.0 11.6 -38.0 19.75 -26.9" fill="url(#gradient1)" fill-rule="evenodd" stroke="none"/>
    <path d="M19.75 -26.9 Q28.0 -15.75 28.0 0.0 L28.0 0.05 -0.05 0.05 0.0 -38.0 Q11.6 -38.0 19.75 -26.9" fill="url(#gradient2)" fill-rule="evenodd" stroke="none"/>
    <path d="M0.0 38.0 Q-11.6 38.0 -19.8 26.85 -28.0 15.75 -28.0 0.0 -28.0 -9.0 -25.3 -16.5 L25.3 -16.5 Q28.0 -9.0 28.0 0.0 28.0 15.75 19.75 26.85 11.6 38.0 0.0 38.0" fill="url(#gradient3)" fill-rule="evenodd" stroke="none"/>
    <path d="M20.5 -25.85 L20.5 25.8 19.75 26.85 Q11.6 38.0 0.0 38.0 -11.6 38.0 -19.8 26.85 -28.0 15.75 -28.0 0.0 -28.0 -15.75 -19.8 -26.9 -14.85 -33.6 -8.65 -36.25 L8.7 -36.25 Q14.85 -33.6 19.75 -26.9 L20.5 -25.85" fill="url(#gradient4)" fill-rule="evenodd" stroke="none"/>
  </g>
  <defs>
    <radialGradient cx="0" cy="0" fx="188.8" fy="0" gradientTransform="matrix(0.0, -0.0468, 0.0332, 0.0, -0.05, -1.3)" gradientUnits="userSpaceOnUse" id="gradient0" r="819.2" spreadMethod="pad">
      <stop offset="0.12941176470588237" stop-color="#d5f9ff"/>
      <stop offset="0.3607843137254902" stop-color="#8bfaf9"/>
      <stop offset="0.7098039215686275" stop-color="#69a6f8"/>
      <stop offset="0.8274509803921568" stop-color="#375ece"/>
      <stop offset="0.9254901960784314" stop-color="#322d53"/>
      <stop offset="0.9803921568627451" stop-color="#a6abb5"/>
    </radialGradient>
    <radialGradient cx="0" cy="0" fx="-1187.2" fy="0" gradientTransform="matrix(0.0, 0.0478, -0.0339, 0.0, -0.2, -1.65)" gradientUnits="userSpaceOnUse" id="gradient1" r="819.2" spreadMethod="pad">
      <stop offset="0.8549019607843137" stop-color="#457a67" stop-opacity="0.0"/>
      <stop offset="0.9372549019607843" stop-color="#94b3c0" stop-opacity="0.6"/>
      <stop offset="0.984313725490196" stop-color="#dbdbdb" stop-opacity="0.0"/>
    </radialGradient>
    <radialGradient cx="0" cy="0" fx="9.600000000000001" fy="0" gradientTransform="matrix(0.0207, -0.0096, 0.0166, 0.0364, 12.2, -19.05)" gradientUnits="userSpaceOnUse" id="gradient2" r="819.2" spreadMethod="pad">
      <stop offset="0.2784313725490196" stop-color="#ffffff"/>
      <stop offset="0.32941176470588235" stop-color="#ffffff" stop-opacity="0.0"/>
    </radialGradient>
    <radialGradient cx="0" cy="0" gradientTransform="matrix(2.0E-4, -0.045, 0.0636, 3.0E-4, 0.3, 28.6)" gradientUnits="userSpaceOnUse" id="gradient3" r="819.2" spreadMethod="pad">
      <stop offset="0.5333333333333333" stop-color="#ffffff" stop-opacity="0.4"/>
      <stop offset="1.0" stop-color="#ffffff" stop-opacity="0.0"/>
    </radialGradient>
    <radialGradient cx="0" cy="0" fx="-1174.4" fy="0" gradientTransform="matrix(0.0121, -0.0048, 0.0113, 0.0287, -15.05, 13.05)" gradientUnits="userSpaceOnUse" id="gradient4" r="819.2" spreadMethod="pad">
      <stop offset="0.5568627450980392" stop-color="#f0ffff" stop-opacity="0.0"/>
      <stop offset="0.8549019607843137" stop-color="#dcfcfe" stop-opacity="0.3019608"/>
      <stop offset="0.8784313725490196" stop-color="#c7f1fe" stop-opacity="0.0"/>
    </radialGradient>
  </defs>
</svg>
