<?xml version="1.0" encoding="UTF-8" standalone="no"?>
<svg xmlns:xlink="http://www.w3.org/1999/xlink" height="99.0px" width="28.0px" xmlns="http://www.w3.org/2000/svg">
  <g transform="matrix(1.0, 0.0, 0.0, 1.0, 14.0, 49.0)">
    <path d="M3.0 -22.0 L3.0 37.0 -3.0 37.0 -3.0 -22.0 3.0 -22.0" fill="url(#gradient0)" fill-rule="evenodd" stroke="none"/>
    <path d="M4.0 -39.0 L2.0 -39.0 2.0 -49.0 4.0 -49.0 4.0 -39.0 M-4.0 -49.0 L-2.0 -49.0 -2.0 -39.0 -4.0 -39.0 -4.0 -49.0" fill="#8a8166" fill-rule="evenodd" stroke="none"/>
    <path d="M10.0 -49.0 L10.0 -39.0 8.5 -39.0 8.5 -49.0 10.0 -49.0 M-8.5 -49.0 L-8.5 -39.0 -10.0 -39.0 -10.0 -49.0 -8.5 -49.0" fill="#716955" fill-rule="evenodd" stroke="none"/>
    <path d="M12.0 -26.0 L10.0 -24.0 -10.0 -24.0 -12.0 -26.0 12.0 -26.0" fill="url(#gradient1)" fill-rule="evenodd" stroke="none"/>
    <path d="M10.0 -22.0 L10.0 43.0 -10.0 43.0 -10.0 -22.0 -7.0 -22.0 -7.0 30.65 Q-7.0 33.25 -5.15 35.1 -3.25 37.0 -0.65 37.0 L0.65 37.0 Q3.25 37.0 5.1 35.1 7.0 33.25 7.0 30.65 L7.0 -22.0 10.0 -22.0" fill="url(#gradient2)" fill-rule="evenodd" stroke="none"/>
    <path d="M13.0 46.0 L13.0 50.0 -13.0 50.0 -13.0 46.0 13.0 46.0" fill="url(#gradient3)" fill-rule="evenodd" stroke="none"/>
    <path d="M10.0 -24.0 L10.0 -22.0 7.0 -22.0 -7.0 -22.0 -10.0 -22.0 -10.0 -24.0 10.0 -24.0" fill="url(#gradient4)" fill-rule="evenodd" stroke="none"/>
    <path d="M12.0 -31.0 L12.0 -26.0 -12.0 -26.0 -12.0 -31.0 12.0 -31.0" fill="url(#gradient5)" fill-rule="evenodd" stroke="none"/>
    <path d="M-12.0 -31.0 L-14.0 -31.0 -14.0 -35.0 14.0 -35.0 14.0 -31.0 12.0 -31.0 -12.0 -31.0" fill="url(#gradient6)" fill-rule="evenodd" stroke="none"/>
    <path d="M10.0 43.0 L13.0 46.0 -13.0 46.0 -10.0 43.0 10.0 43.0" fill="url(#gradient7)" fill-rule="evenodd" stroke="none"/>
    <path d="M7.0 -21.0 L-7.0 -21.0 -7.0 -22.0 7.0 -22.0 7.0 -21.0" fill="#000000" fill-opacity="0.2509804" fill-rule="evenodd" stroke="none"/>
    <path d="M12.0 -35.0 L-12.0 -35.0 -12.0 -36.0 12.0 -36.0 12.0 -35.0 M12.0 -30.0 L-12.0 -30.0 -12.0 -31.0 12.0 -31.0 12.0 -30.0" fill="#000000" fill-opacity="0.15294118" fill-rule="evenodd" stroke="none"/>
    <path d="M6.5 -22.0 L7.5 -22.0 7.5 30.65 Q7.5 33.45 5.45 35.45 3.45 37.5 0.65 37.5 L-0.65 37.5 Q-3.45 37.5 -5.5 35.45 -7.5 33.45 -7.5 30.65 L-7.5 -22.0 -6.5 -22.0 -6.5 30.65 Q-6.5 33.05 -4.8 34.75 -3.05 36.5 -0.65 36.5 L0.65 36.5 Q3.05 36.5 4.75 34.75 6.5 33.05 6.5 30.65 L6.5 -22.0" fill="url(#gradient8)" fill-rule="evenodd" stroke="none"/>
    <path d="M8.0 -8.0 L8.0 -6.0 7.0 -6.0 7.0 -8.0 8.0 -8.0 M6.0 -8.0 L6.0 -6.0 5.0 -6.0 5.0 -8.0 6.0 -8.0" fill="#000000" fill-rule="evenodd" stroke="none"/>
    <path d="M2.0 -8.0 L2.0 -6.0 1.0 -6.0 1.0 -8.0 2.0 -8.0" fill="#3c3c3c" fill-rule="evenodd" stroke="none"/>
    <path d="M0.0 -6.0 L-1.0 -6.0 -1.0 -8.0 0.0 -8.0 0.0 -6.0" fill="#4a4a4a" fill-rule="evenodd" stroke="none"/>
    <path d="M4.0 -8.0 L4.0 -6.0 3.0 -6.0 3.0 -8.0 4.0 -8.0" fill="#202020" fill-rule="evenodd" stroke="none"/>
    <path d="M8.0 -8.0 L7.0 -8.0 7.0 -6.0 8.0 -6.0 8.0 -8.0 M4.0 -8.0 L3.0 -8.0 3.0 -6.0 4.0 -6.0 4.0 -8.0 M2.0 -8.0 L1.0 -8.0 1.0 -6.0 2.0 -6.0 2.0 -8.0 M0.0 -6.0 L0.0 -8.0 -1.0 -8.0 -1.0 -6.0 0.0 -6.0 M6.0 -8.0 L5.0 -8.0 5.0 -6.0 6.0 -6.0 6.0 -8.0 M10.0 -14.0 L10.0 -3.0 -1.25 -3.0 Q-3.0 -3.0 -3.0 -4.75 L-3.0 -12.25 Q-3.0 -14.0 -1.25 -14.0 L10.0 -14.0" fill="url(#gradient9)" fill-rule="evenodd" stroke="none"/>
  </g>
  <defs>
    <linearGradient gradientTransform="matrix(0.0069, 0.0, 0.0, 0.0415, 0.0, -5.0)" gradientUnits="userSpaceOnUse" id="gradient0" spreadMethod="pad" x1="-819.2" x2="819.2">
      <stop offset="0.17647058823529413" stop-color="#ffffff" stop-opacity="0.0"/>
      <stop offset="0.21176470588235294" stop-color="#ffffff" stop-opacity="0.21176471"/>
      <stop offset="0.5176470588235295" stop-color="#ffffff" stop-opacity="0.3019608"/>
      <stop offset="0.7529411764705882" stop-color="#ffffff" stop-opacity="0.2"/>
      <stop offset="0.8196078431372549" stop-color="#ffffff" stop-opacity="0.0"/>
    </linearGradient>
    <linearGradient gradientTransform="matrix(0.0146, 0.0, 0.0, 0.0024, 0.0, -24.0)" gradientUnits="userSpaceOnUse" id="gradient1" spreadMethod="pad" x1="-819.2" x2="819.2">
      <stop offset="0.0" stop-color="#3c3c3c"/>
      <stop offset="0.20392156862745098" stop-color="#787878"/>
      <stop offset="0.3333333333333333" stop-color="#959595"/>
      <stop offset="0.4745098039215686" stop-color="#aaaaaa"/>
      <stop offset="0.6274509803921569" stop-color="#959595"/>
      <stop offset="0.796078431372549" stop-color="#787878"/>
      <stop offset="1.0" stop-color="#3c3c3c"/>
    </linearGradient>
    <linearGradient gradientTransform="matrix(0.0122, 0.0, 0.0, 0.0397, 0.0, 10.5)" gradientUnits="userSpaceOnUse" id="gradient2" spreadMethod="pad" x1="-819.2" x2="819.2">
      <stop offset="0.0" stop-color="#9b9b9b"/>
      <stop offset="0.16470588235294117" stop-color="#787878"/>
      <stop offset="0.47058823529411764" stop-color="#dfdfdf"/>
      <stop offset="0.5607843137254902" stop-color="#e2e2e2"/>
      <stop offset="0.8196078431372549" stop-color="#868686"/>
      <stop offset="1.0" stop-color="#b0b0b0"/>
    </linearGradient>
    <linearGradient gradientTransform="matrix(0.0159, 0.0, 0.0, 0.0024, 0.0, 48.0)" gradientUnits="userSpaceOnUse" id="gradient3" spreadMethod="pad" x1="-819.2" x2="819.2">
      <stop offset="0.0" stop-color="#9b9b9b"/>
      <stop offset="0.16470588235294117" stop-color="#787878"/>
      <stop offset="0.47058823529411764" stop-color="#dfdfdf"/>
      <stop offset="0.5607843137254902" stop-color="#e2e2e2"/>
      <stop offset="0.8196078431372549" stop-color="#868686"/>
      <stop offset="1.0" stop-color="#b0b0b0"/>
    </linearGradient>
    <linearGradient gradientTransform="matrix(0.0122, 0.0, 0.0, 0.0012, 0.0, -23.0)" gradientUnits="userSpaceOnUse" id="gradient4" spreadMethod="pad" x1="-819.2" x2="819.2">
      <stop offset="0.0" stop-color="#9b9b9b"/>
      <stop offset="0.16470588235294117" stop-color="#787878"/>
      <stop offset="0.47058823529411764" stop-color="#dfdfdf"/>
      <stop offset="0.5607843137254902" stop-color="#e2e2e2"/>
      <stop offset="0.8196078431372549" stop-color="#868686"/>
      <stop offset="1.0" stop-color="#b0b0b0"/>
    </linearGradient>
    <linearGradient gradientTransform="matrix(0.0146, 0.0, 0.0, 0.0031, 0.0, -28.5)" gradientUnits="userSpaceOnUse" id="gradient5" spreadMethod="pad" x1="-819.2" x2="819.2">
      <stop offset="0.0" stop-color="#9b9b9b"/>
      <stop offset="0.16470588235294117" stop-color="#787878"/>
      <stop offset="0.47058823529411764" stop-color="#dfdfdf"/>
      <stop offset="0.5607843137254902" stop-color="#e2e2e2"/>
      <stop offset="0.8196078431372549" stop-color="#868686"/>
      <stop offset="1.0" stop-color="#b0b0b0"/>
    </linearGradient>
    <linearGradient gradientTransform="matrix(0.0171, 0.0, 0.0, 0.0024, 0.0, -33.0)" gradientUnits="userSpaceOnUse" id="gradient6" spreadMethod="pad" x1="-819.2" x2="819.2">
      <stop offset="0.0" stop-color="#9b9b9b"/>
      <stop offset="0.16470588235294117" stop-color="#787878"/>
      <stop offset="0.4666666666666667" stop-color="#dfdfdf"/>
      <stop offset="0.5607843137254902" stop-color="#e2e2e2"/>
      <stop offset="0.8196078431372549" stop-color="#868686"/>
      <stop offset="1.0" stop-color="#b0b0b0"/>
    </linearGradient>
    <linearGradient gradientTransform="matrix(0.0159, 0.0, 0.0, 0.0018, 0.0, 44.5)" gradientUnits="userSpaceOnUse" id="gradient7" spreadMethod="pad" x1="-819.2" x2="819.2">
      <stop offset="0.00784313725490196" stop-color="#c2c2c2"/>
      <stop offset="0.2196078431372549" stop-color="#9f9f9f"/>
      <stop offset="0.44313725490196076" stop-color="#fbfbfb"/>
      <stop offset="0.5764705882352941" stop-color="#fbfbfb"/>
      <stop offset="0.792156862745098" stop-color="#a3a3a3"/>
      <stop offset="1.0" stop-color="#d5d5d5"/>
    </linearGradient>
    <linearGradient gradientTransform="matrix(0.0087, 0.0, 0.0, 0.0361, 0.0, 7.5)" gradientUnits="userSpaceOnUse" id="gradient8" spreadMethod="pad" x1="-819.2" x2="819.2">
      <stop offset="0.0" stop-color="#ffffff"/>
      <stop offset="1.0" stop-color="#666666"/>
    </linearGradient>
    <linearGradient gradientTransform="matrix(0.0082, 0.0, 0.0, 0.0067, 3.6, -8.5)" gradientUnits="userSpaceOnUse" id="gradient9" spreadMethod="pad" x1="-819.2" x2="819.2">
      <stop offset="0.4392156862745098" stop-color="#ededed"/>
      <stop offset="0.8235294117647058" stop-color="#b0b0b0"/>
      <stop offset="1.0" stop-color="#dbdbdb"/>
    </linearGradient>
  </defs>
</svg>
