<?xml version="1.0" encoding="UTF-8" standalone="no"?>
<svg xmlns:xlink="http://www.w3.org/1999/xlink" height="104.0px" width="33.0px" xmlns="http://www.w3.org/2000/svg">
  <g transform="matrix(1.0, 0.0, 0.0, 1.0, 16.5, 51.5)">
    <path d="M13.8 -50.75 Q14.5 -50.05 14.5 -49.0 L14.5 -37.45 Q15.2 -37.3 15.8 -36.75 16.5 -36.05 16.5 -35.0 L16.5 -31.0 Q16.5 -29.95 15.8 -29.2 15.2 -28.7 14.5 -28.55 L14.5 -26.0 Q14.5 -24.95 13.8 -24.2 L12.5 -22.95 12.5 41.95 14.8 44.25 Q15.5 44.95 15.5 46.0 L15.5 50.0 Q15.5 51.05 14.8 51.8 14.05 52.5 13.0 52.5 L-13.0 52.5 Q-14.05 52.5 -14.75 51.8 -15.5 51.05 -15.5 50.0 L-15.5 46.0 Q-15.5 44.95 -14.75 44.25 L-12.5 41.95 -12.5 -22.95 -13.75 -24.2 Q-14.5 -24.95 -14.5 -26.0 L-14.5 -28.55 Q-15.2 -28.7 -15.75 -29.2 -16.5 -29.95 -16.5 -31.0 L-16.5 -35.0 Q-16.5 -36.05 -15.75 -36.75 -15.2 -37.3 -14.5 -37.45 L-14.5 -49.0 Q-14.5 -50.05 -13.75 -50.75 -13.05 -51.5 -12.0 -51.5 L12.0 -51.5 Q13.05 -51.5 13.8 -50.75" fill="#000000" fill-rule="evenodd" stroke="none"/>
    <path d="M7.0 -18.0 L7.0 30.65 Q7.0 33.25 5.1 35.1 3.25 37.0 0.65 37.0 L-0.65 37.0 Q-3.25 37.0 -5.15 35.1 -7.0 33.25 -7.0 30.65 L-7.0 -18.0 7.0 -18.0" fill="url(#gradient0)" fill-rule="evenodd" stroke="none"/>
    <path d="M12.0 -35.0 L-12.0 -35.0 -12.0 -49.0 12.0 -49.0 12.0 -35.0" fill="url(#gradient1)" fill-rule="evenodd" stroke="none"/>
    <path d="M-7.0 -18.0 L-7.0 -22.0 7.0 -22.0 7.0 -18.0 -7.0 -18.0" fill="url(#gradient2)" fill-rule="evenodd" stroke="none"/>
    <path d="M0.0 37.0 L-9.0 37.0 -9.0 28.0 0.0 30.0 0.0 37.0" fill="url(#gradient3)" fill-rule="evenodd" stroke="none"/>
  </g>
  <defs>
    <linearGradient gradientTransform="matrix(0.0, -0.036, 0.036, 0.0, 0.0, 7.5)" gradientUnits="userSpaceOnUse" id="gradient0" spreadMethod="pad" x1="-819.2" x2="819.2">
      <stop offset="0.0" stop-color="#636363"/>
      <stop offset="0.7686274509803922" stop-color="#b8b8b8"/>
    </linearGradient>
    <linearGradient gradientTransform="matrix(0.0146, 0.0, 0.0, 0.0085, 0.0, -42.0)" gradientUnits="userSpaceOnUse" id="gradient1" spreadMethod="pad" x1="-819.2" x2="819.2">
      <stop offset="0.0" stop-color="#a7a383"/>
      <stop offset="0.17647058823529413" stop-color="#978f6f"/>
      <stop offset="0.4196078431372549" stop-color="#cec7b0"/>
      <stop offset="0.5647058823529412" stop-color="#cec7b0"/>
      <stop offset="0.8235294117647058" stop-color="#978f6f"/>
      <stop offset="1.0" stop-color="#a7a383"/>
    </linearGradient>
    <linearGradient gradientTransform="matrix(0.0085, 0.0, 0.0, 0.0024, 0.0, -20.0)" gradientUnits="userSpaceOnUse" id="gradient2" spreadMethod="pad" x1="-819.2" x2="819.2">
      <stop offset="0.0" stop-color="#615849"/>
      <stop offset="0.39215686274509803" stop-color="#958a6a"/>
      <stop offset="0.6" stop-color="#958a6a"/>
      <stop offset="1.0" stop-color="#615849"/>
    </linearGradient>
    <linearGradient gradientTransform="matrix(-0.0055, -1.0E-4, 1.0E-4, -0.0055, -4.5, 32.5)" gradientUnits="userSpaceOnUse" id="gradient3" spreadMethod="pad" x1="-819.2" x2="819.2">
      <stop offset="0.18823529411764706" stop-color="#27be16"/>
      <stop offset="1.0" stop-color="#225e0d"/>
    </linearGradient>
  </defs>
</svg>
