<?xml version="1.0" encoding="UTF-8" standalone="no"?>
<svg xmlns:xlink="http://www.w3.org/1999/xlink" height="69.65px" width="47.5px" xmlns="http://www.w3.org/2000/svg">
  <g transform="matrix(1.0, 0.0, 0.0, 1.0, 25.5, 34.4)">
    <path d="M15.55 -31.5 L13.5 -31.2 13.6 -32.15 13.85 -32.8 15.25 -32.8 15.55 -31.5 M12.9 -9.75 L11.75 -9.6 11.45 -10.6 11.3 -11.15 11.95 -11.45 12.75 -11.85 13.6 -9.9 12.9 -9.75 M21.35 13.95 Q21.85 14.5 21.95 15.1 L22.0 15.65 20.8 16.15 19.95 14.3 20.45 13.95 21.35 13.95 M18.15 21.0 L16.55 21.7 15.95 20.2 16.55 19.75 17.3 19.9 17.9 20.35 18.15 21.0 M-13.25 -33.95 L-12.35 -32.9 Q-13.25 -32.3 -14.2 -32.3 L-14.45 -32.75 -14.55 -33.3 -14.5 -33.95 -14.5 -34.3 -14.05 -34.4 -13.25 -33.95 M-18.35 -27.3 L-19.5 -27.05 -20.35 -28.35 -17.75 -29.35 -17.8 -28.05 -17.95 -27.45 -18.35 -27.3 M-24.6 -13.4 L-23.25 -12.45 -23.45 -11.4 -25.2 -11.4 -25.45 -12.05 Q-25.6 -12.45 -25.35 -12.8 L-25.05 -13.2 -24.6 -13.4 M-23.3 -4.85 L-24.8 -4.7 -25.15 -6.45 -23.15 -6.65 -23.3 -4.85 M-6.55 8.2 L-7.8 8.45 -9.15 8.65 -9.0 7.45 -8.75 6.6 -6.9 6.6 -6.55 8.2 M-15.95 35.25 L-16.15 34.95 -16.35 34.35 -15.65 33.8 -14.7 33.05 -14.25 33.95 -14.1 34.6 -15.05 35.1 -15.95 35.25 M-21.0 30.1 L-21.7 28.25 -20.9 28.1 -20.05 27.95 -19.0 29.35 -20.15 29.75 -21.0 30.1" fill="#d8d5d1" fill-rule="evenodd" stroke="none"/>
  </g>
</svg>
