<?xml version="1.0" encoding="UTF-8" standalone="no"?>
<svg xmlns:xlink="http://www.w3.org/1999/xlink" height="402.0px" width="402.0px" xmlns="http://www.w3.org/2000/svg">
  <g transform="matrix(1.0, 0.0, 0.0, 1.0, 201.0, 201.0)">
    <path d="M0.0 -135.0 Q-55.9 -135.0 -95.45 -95.45 -135.0 -55.9 -135.0 0.0 -135.0 55.9 -95.45 95.45 -55.9 135.0 0.0 135.0 55.9 135.0 95.45 95.45 135.0 55.9 135.0 0.0 135.0 -55.9 95.45 -95.45 55.9 -135.0 0.0 -135.0 M96.9 -96.9 Q137.0 -56.8 137.0 0.0 137.0 56.8 96.9 96.9 56.8 137.0 0.0 137.0 -56.8 137.0 -96.9 96.9 -137.0 56.8 -137.0 0.0 -137.0 -56.8 -96.9 -96.9 -56.8 -137.0 0.0 -137.0 56.8 -137.0 96.9 -96.9 M0.0 -167.0 Q-69.15 -167.0 -118.05 -118.05 -167.0 -69.15 -167.0 0.0 -167.0 69.15 -118.05 118.1 -69.15 167.0 0.0 167.0 69.15 167.0 118.1 118.1 167.0 69.15 167.0 0.0 167.0 -69.15 118.1 -118.05 69.15 -167.0 0.0 -167.0 M119.55 -119.5 Q169.0 -70.05 169.0 0.0 169.0 70.05 119.55 119.55 70.05 169.0 0.0 169.0 -70.05 169.0 -119.5 119.55 -169.0 70.05 -169.0 0.0 -169.0 -70.05 -119.5 -119.5 -70.05 -169.0 0.0 -169.0 70.05 -169.0 119.55 -119.5 M0.0 -199.0 Q-82.45 -199.0 -140.7 -140.7 -199.0 -82.45 -199.0 0.0 -199.0 82.45 -140.7 140.7 -82.45 199.0 0.0 199.0 82.45 199.0 140.7 140.7 199.0 82.45 199.0 0.0 199.0 -82.45 140.7 -140.7 82.45 -199.0 0.0 -199.0 M142.15 -142.15 Q201.0 -83.25 201.0 0.0 201.0 83.25 142.15 142.15 83.25 201.0 0.0 201.0 -83.25 201.0 -142.15 142.15 -201.0 83.25 -201.0 0.0 -201.0 -83.25 -142.15 -142.15 -83.25 -201.0 0.0 -201.0 83.25 -201.0 142.15 -142.15" fill="#000000" fill-rule="evenodd" stroke="none"/>
  </g>
</svg>
