<?xml version="1.0" encoding="UTF-8" standalone="no"?>
<svg xmlns:xlink="http://www.w3.org/1999/xlink" height="276.0px" width="276.0px" xmlns="http://www.w3.org/2000/svg">
  <g transform="matrix(1.0, 0.0, 0.0, 1.0, 138.0, 138.0)">
    <path d="M94.75 -94.75 Q55.5 -134.0 0.0 -134.0 -55.5 -134.0 -94.75 -94.75 -134.0 -55.5 -134.0 0.0 -134.0 55.5 -94.75 94.75 -55.5 134.0 0.0 134.0 55.5 134.0 94.75 94.75 134.0 55.5 134.0 0.0 134.0 -55.5 94.75 -94.75 M0.0 -138.0 Q57.2 -138.0 97.6 -97.6 138.0 -57.2 138.0 0.0 138.0 57.2 97.6 97.6 57.2 138.0 0.0 138.0 -57.2 138.0 -97.6 97.6 -138.0 57.2 -138.0 0.0 -138.0 -57.2 -97.6 -97.6 -57.2 -138.0 0.0 -138.0" fill="#000000" fill-rule="evenodd" stroke="none"/>
  </g>
</svg>
