<?xml version="1.0" encoding="UTF-8" standalone="no"?>
<svg xmlns:xlink="http://www.w3.org/1999/xlink" height="340.0px" width="340.0px" xmlns="http://www.w3.org/2000/svg">
  <g transform="matrix(1.0, 0.0, 0.0, 1.0, 170.0, 170.0)">
    <path d="M0.0 -170.0 Q70.45 -170.0 120.25 -120.2 170.0 -70.45 170.0 0.0 170.0 70.45 120.25 120.25 70.45 170.0 0.0 170.0 -70.45 170.0 -120.2 120.25 -170.0 70.45 -170.0 0.0 -170.0 -70.45 -120.2 -120.2 -70.45 -170.0 0.0 -170.0 M117.4 -117.35 Q68.75 -166.0 0.0 -166.0 -68.75 -166.0 -117.35 -117.35 -166.0 -68.75 -166.0 0.0 -166.0 68.75 -117.35 117.4 -68.75 166.0 0.0 166.0 68.75 166.0 117.4 117.4 166.0 68.75 166.0 0.0 166.0 -68.75 117.4 -117.35" fill="#000000" fill-rule="evenodd" stroke="none"/>
  </g>
</svg>
