<?xml version="1.0" encoding="UTF-8" standalone="no"?>
<svg xmlns:xlink="http://www.w3.org/1999/xlink" height="15.1px" width="87.9px" xmlns="http://www.w3.org/2000/svg">
  <g transform="matrix(1.0, 0.0, 0.0, 1.0, 146.95, 55.75)">
    <path d="M-143.2 -45.4 L-142.4 -45.8 -141.8 -46.0 -141.4 -46.2 -141.2 -46.2 -136.8 -47.4 -136.4 -47.6 -134.8 -48.0 -120.0 -50.6 -65.0 -55.4 -60.8 -55.4 -59.8 -54.6 -59.4 -53.2 -121.6 -45.6 Q-123.0 -43.2 -137.8 -43.0 L-138.2 -41.8 -144.0 -42.2 -144.6 -41.8 -146.0 -42.2 -146.6 -43.0 -146.4 -43.2 -143.2 -45.4" fill="#151515" fill-rule="evenodd" stroke="none"/>
    <path d="M-59.4 -53.2 L-60.0 -51.4 -61.4 -50.8 -115.0 -42.4 -131.2 -41.0 -140.4 -41.0 -144.6 -41.8 -144.0 -42.2 -138.2 -41.8 -137.8 -43.0 Q-123.0 -43.2 -121.6 -45.6 L-59.4 -53.2" fill="#050505" fill-rule="evenodd" stroke="none"/>
    <path d="M-146.6 -43.0 L-146.0 -44.4 -143.2 -45.4 -146.4 -43.2 -146.6 -43.0" fill="#5c5c5c" fill-rule="evenodd" stroke="none"/>
    <path d="M-141.4 -46.2 L-141.8 -46.0 -142.4 -45.8 -143.2 -45.4 -146.0 -44.4 -146.5 -43.25 -146.6 -43.0 -146.0 -42.2 -144.6 -41.8 -140.4 -41.0 -131.2 -41.0 -115.0 -42.4 -61.4 -50.8 -60.0 -51.4 -59.4 -53.2 -59.8 -54.6 -60.8 -55.4 -65.0 -55.4 -120.0 -50.6 -134.8 -48.0 -136.4 -47.6 -136.8 -47.4 -141.2 -46.2 -141.4 -46.2 Z" fill="none" stroke="#000000" stroke-linecap="round" stroke-linejoin="round" stroke-width="0.7000000000000001"/>
  </g>
</svg>
