<?xml version="1.0" encoding="UTF-8" standalone="no"?>
<svg xmlns:xlink="http://www.w3.org/1999/xlink" height="76.3px" width="516.45px" xmlns="http://www.w3.org/2000/svg">
  <g transform="matrix(1.0, 0.0, 0.0, 1.0, 512.35, 55.85)">
    <path d="M-333.9 -32.35 L-107.5 -51.75 -107.4 -51.75 -103.5 -52.0 Q-100.65 -52.25 -99.75 -48.15 L-512.0 3.35 -512.0 -15.65 -333.9 -32.35" fill="#0e0e0e" fill-rule="evenodd" stroke="none"/>
    <path d="M-333.9 -32.35 L-512.0 -15.65 -512.0 -17.65 -511.5 -17.9 -409.5 -26.9 -333.9 -32.35" fill="#383838" fill-rule="evenodd" stroke="none"/>
    <path d="M-118.15 -39.0 L-118.0 -39.0 -106.15 -42.4 -105.65 -42.5 -105.25 -42.65 -104.65 -42.75 -97.9 -44.4 -97.25 -44.5 -96.9 -44.5 -96.65 -44.65 -96.25 -44.65 -95.25 -44.9 -94.9 -44.9 -94.65 -45.0 -94.25 -45.0 -94.0 -45.15 -93.5 -45.15 -93.25 -45.25 -92.4 -45.4 -92.15 -45.5 -91.0 -45.65 -90.75 -45.75 -90.4 -45.75 -90.15 -45.9 -89.75 -45.9 -89.5 -46.0 -89.0 -46.0 -88.75 -46.15 -88.4 -46.15 -88.15 -46.25 -86.9 -46.4 -86.65 -46.5 -86.15 -46.5 -85.9 -46.65 -76.25 -48.15 -76.0 -48.25 -75.5 -48.25 -75.25 -48.4 -74.75 -48.4 -74.5 -48.5 -39.75 -54.25 Q-36.15 -54.5 -36.0 -51.4 L-74.0 -41.4 -100.5 -34.9 -101.0 -32.9 -126.0 -27.9 -127.0 -25.75 -137.15 -25.25 -138.4 -24.5 -139.75 -24.65 -141.65 -26.0 -142.15 -26.5 -141.0 -27.4 Q-141.0 -29.4 -132.0 -34.0 L-118.15 -39.0" fill="#161616" fill-rule="evenodd" stroke="none"/>
    <path d="M-512.0 3.35 L-99.75 -48.15 Q-100.4 -43.75 -105.65 -43.9 L-383.65 0.35 -511.9 20.1 -512.0 18.85 -512.0 3.35 M-36.0 -51.4 L-36.5 -49.65 -37.65 -48.75 -82.75 -34.15 -94.65 -30.65 -105.4 -28.0 -117.65 -25.75 -130.5 -24.25 -138.4 -24.5 -137.15 -25.25 -127.0 -25.75 -126.0 -27.9 -101.0 -32.9 -100.5 -34.9 -74.0 -41.4 -36.0 -51.4" fill="#050505" fill-rule="evenodd" stroke="none"/>
    <path d="M-142.15 -26.5 L-141.65 -28.5 -140.9 -29.4 -133.75 -33.4 -122.25 -37.9 -118.15 -39.0 -132.0 -34.0 Q-141.0 -29.4 -141.0 -27.4 L-142.15 -26.5 M-0.75 -55.5 L-1.15 -53.65 -1.15 -49.65 Q-1.15 -45.0 -0.25 -44.65 L-0.5 -43.15 -0.9 -43.0 -3.0 -44.0 -4.15 -45.4 -4.75 -46.0 -4.75 -46.5 Q-3.5 -55.75 -0.75 -55.5" fill="#5b5b5b" fill-rule="evenodd" stroke="none"/>
    <path d="M-4.75 -46.0 L-4.15 -45.4 -3.0 -44.0 -0.9 -43.0 -0.5 -43.15 -0.25 -44.65 Q-1.15 -45.0 -1.15 -49.65 L-1.15 -53.65 -0.75 -55.5 Q2.6 -56.0 3.75 -45.9 L3.6 -45.5 3.35 -44.15 2.0 -43.15 1.85 -42.4 1.25 -41.9 Q-2.25 -42.4 -2.65 -41.9 L-3.0 -42.9 -4.15 -43.65 -4.75 -46.0" fill="#1c1c1c" fill-rule="evenodd" stroke="none"/>
    <path d="M-3.0 -42.9 L-2.65 -41.9 Q-2.25 -42.4 1.25 -41.9 L1.85 -42.4 2.0 -43.15 3.35 -44.15 Q0.35 -39.4 -2.65 -41.9 L-3.9 -43.25 -3.0 -42.9" fill="#070707" fill-rule="evenodd" stroke="none"/>
    <path d="M-4.15 -43.65 L-3.0 -42.9 -3.9 -43.25 -4.15 -43.65" fill="#2c2c2c" fill-rule="evenodd" stroke="none"/>
    <path d="M3.35 -44.15 L1.95 -42.3 1.35 -41.75 Q-0.65 -40.25 -2.65 -41.9 L-3.9 -43.25 -4.15 -43.65 -4.75 -46.0 -4.75 -46.5 Q-3.5 -55.75 -0.75 -55.5 2.1 -55.9 3.35 -48.75 L3.4 -48.4 3.75 -45.9 3.6 -45.5 3.35 -44.15 M-512.0 -17.65 L-512.0 18.85 -511.9 20.1 -383.65 0.35 -105.65 -43.9 Q-100.4 -43.75 -99.75 -48.15 -100.65 -52.25 -103.5 -52.0 L-107.4 -51.75 -107.5 -51.75 -409.5 -26.9 -511.5 -17.9 -512.0 -17.65 M-140.9 -29.4 L-141.65 -28.5 -142.15 -26.5 -142.05 -26.55 -141.95 -26.3 -141.65 -26.0 -139.75 -24.65 -138.4 -24.5 -130.5 -24.25 -117.65 -25.75 -105.4 -28.0 -94.65 -30.65 -82.75 -34.15 -37.65 -48.75 -36.5 -49.65 -36.0 -51.4 Q-36.15 -54.5 -39.75 -54.25 L-74.5 -48.5 -74.75 -48.4 -75.25 -48.4 -75.5 -48.25 -76.0 -48.25 -76.25 -48.15 -85.9 -46.65 -86.15 -46.5 -86.65 -46.5 -86.9 -46.4 -88.15 -46.25 -88.4 -46.15 -88.75 -46.15 -89.0 -46.0 -89.5 -46.0 -89.75 -45.9 -90.15 -45.9 -90.4 -45.75 -90.75 -45.75 -91.0 -45.65 -92.15 -45.5 -92.4 -45.4 -93.25 -45.25 -93.5 -45.15 -94.0 -45.15 -94.25 -45.0 -94.65 -45.0 -94.9 -44.9 -95.25 -44.9 -96.25 -44.65 -96.65 -44.65 -96.9 -44.5 -97.25 -44.5 -97.9 -44.4 -104.65 -42.75 -105.25 -42.65 -105.65 -42.5 -118.0 -39.0 -118.15 -39.0 -122.25 -37.9 -133.75 -33.4 -140.9 -29.4 M-142.15 -26.5 L-141.95 -26.3" fill="none" stroke="#000000" stroke-linecap="round" stroke-linejoin="round" stroke-width="0.7000000000000001"/>
  </g>
</svg>
