<?xml version="1.0" encoding="UTF-8" standalone="no"?>
<svg xmlns:xlink="http://www.w3.org/1999/xlink" height="130.6px" width="22.15px" xmlns="http://www.w3.org/2000/svg">
  <g transform="matrix(1.0, 0.0, 0.0, 1.0, 10.65, 66.5)">
    <path d="M11.15 -65.3 Q11.6 -64.6 11.5 -63.75 7.95 -26.25 8.5 10.95 L8.5 15.0 8.75 15.25 8.8 15.25 Q9.5 16.0 9.5 17.0 L9.5 19.95 9.65 20.8 9.65 21.35 10.05 21.95 10.6 23.8 Q10.9 24.9 9.3 26.9 9.05 31.7 9.4 38.25 9.7 44.5 10.7 53.15 L11.0 54.75 11.0 54.8 10.95 55.4 11.15 56.65 11.35 58.05 11.35 58.45 11.5 59.65 11.5 59.75 11.25 61.15 10.2 62.2 Q8.5 63.15 4.6 63.8 L4.45 63.85 Q-0.8 64.6 -3.15 63.2 L-3.15 63.25 -3.8 62.7 -3.9 62.65 -4.35 61.8 -4.4 61.7 -4.9 59.95 -5.4 58.55 -5.7 56.75 -5.7 56.7 -5.7 56.55 -5.75 56.45 -5.95 55.55 -6.45 54.0 -6.6 52.75 -7.25 49.6 -7.25 49.5 -7.3 49.4 -7.25 49.45 -7.4 49.0 -7.4 48.85 -8.0 48.0 -8.05 47.85 -8.5 46.3 Q-9.1 45.45 -9.1 44.35 -9.1 43.3 -8.55 42.5 L-8.6 42.3 -8.6 42.25 -8.6 42.2 -8.6 42.1 Q-9.85 34.35 -10.35 26.55 L-10.45 25.85 -10.55 24.6 -10.55 24.45 -10.5 23.8 -10.5 23.15 -10.65 21.8 -10.5 20.5 -10.5 17.0 Q-10.5 16.0 -9.75 15.25 L-9.5 15.0 -9.5 10.95 Q-8.6 -22.2 -4.5 -55.3 L-4.45 -55.4 -4.2 -56.2 -4.15 -56.25 Q-0.15 -63.65 8.15 -66.35 L8.25 -66.35 Q9.05 -66.65 9.85 -66.35 L9.9 -66.35 9.95 -66.3 Q10.7 -66.0 11.15 -65.3" fill="#000000" fill-rule="evenodd" stroke="none"/>
    <path d="M7.0 24.0 Q6.45 29.65 6.9 38.35 7.3 47.05 9.0 60.0 7.5 60.8 4.05 61.35 -0.1 61.95 -2.0 61.0 -7.0 42.7 -8.0 24.0 L-8.0 21.0 7.0 21.0 7.0 24.0" fill="url(#gradient0)" fill-rule="evenodd" stroke="none"/>
    <path d="M0.75 20.95 L0.75 22.5 0.7 22.6 0.6 22.65 -6.0 22.65 -6.3 22.75 -6.45 23.1 Q-6.55 23.7 -6.95 24.05 L-7.0 24.05 -7.0 24.1 -7.8 24.5 -7.75 25.5 Q-7.05 25.35 -6.45 24.85 -5.85 24.45 -5.6 23.7 L-5.55 23.6 -5.5 23.6 6.9 23.7 6.9 20.95 0.75 20.95 M0.5 22.4 L0.5 20.8 0.5 20.7 0.6 20.7 7.0 20.7 7.1 20.7 7.15 20.8 7.15 23.8 7.1 23.9 7.0 23.95 -5.4 23.85 Q-5.7 24.6 -6.3 25.05 -7.0 25.6 -7.8 25.8 L-7.9 25.8 -7.95 25.75 -7.95 25.65 -8.05 24.4 -8.05 24.35 -7.95 24.3 -7.2 23.95 -7.2 23.9 -7.15 23.85 Q-6.75 23.6 -6.7 23.05 L-6.5 22.55 -6.0 22.4 0.5 22.4" fill="#5f492e" fill-rule="evenodd" stroke="none"/>
    <path d="M0.75 20.95 L6.9 20.95 6.9 23.7 -5.5 23.6 -5.55 23.6 -5.6 23.7 Q-5.85 24.45 -6.45 24.85 -7.05 25.35 -7.75 25.5 L-7.8 24.5 -7.0 24.1 -7.0 24.05 -6.95 24.05 Q-6.55 23.7 -6.45 23.1 L-6.3 22.75 -6.0 22.65 0.6 22.65 0.7 22.6 0.75 22.5 0.75 20.95" fill="url(#gradient1)" fill-rule="evenodd" stroke="none"/>
    <path d="M0.45 28.45 Q0.05 28.85 -0.5 28.9 -1.05 28.85 -1.45 28.45 -1.85 28.05 -1.85 27.5 -1.85 26.95 -1.45 26.55 -1.05 26.15 -0.5 26.15 0.05 26.15 0.45 26.55 0.85 26.95 0.9 27.5 L0.45 28.45" fill="url(#gradient2)" fill-rule="evenodd" stroke="none"/>
    <path d="M4.5 23.75 Q5.1 24.95 4.55 27.9 L3.95 30.1 2.8 32.9 Q1.45 36.15 1.15 38.7 0.85 41.4 1.75 44.35 2.65 44.85 3.95 46.9 L4.3 47.45 4.95 47.8 5.9 48.1 6.15 48.25 6.35 48.4 6.4 48.4 7.35 49.25 7.45 49.05 7.55 48.65 7.45 48.25 7.2 47.8 Q6.85 47.45 6.15 47.15 5.1 46.8 4.7 46.3 L3.1 44.05 Q2.35 42.8 2.35 41.35 2.35 39.0 3.05 36.35 3.15 35.85 4.0 33.5 L5.3 29.6 5.75 28.05 5.8 27.4 Q5.8 26.65 6.85 25.45 L7.75 24.0 7.55 23.3 7.3 23.0 7.25 23.0 6.55 23.9 5.85 24.75 5.75 24.8 5.65 24.8 5.6 24.75 5.55 24.65 Q5.55 23.7 5.15 22.75 L4.25 21.35 -7.85 21.35 -7.8 22.4 3.2 22.35 Q3.9 22.45 4.5 23.75 M2.15 48.95 L2.0 49.05 2.9 48.95 3.0 48.95 2.7 48.5 2.65 48.5 2.15 48.95 M0.2 45.7 L0.1 45.65 0.1 45.7 -0.05 45.95 -0.1 45.95 -0.25 46.25 -0.3 46.3 0.4 47.1 Q1.15 48.2 1.2 49.2 L1.25 49.2 1.25 49.15 1.35 49.05 1.95 48.7 2.4 48.3 2.5 48.25 2.55 48.25 2.5 48.05 2.5 48.1 2.05 46.85 2.05 46.9 Q1.6 45.95 0.2 45.7 M4.35 21.0 L4.45 21.05 4.5 21.1 Q5.05 21.65 5.45 22.65 L5.85 24.2 6.3 23.7 6.3 23.65 7.0 22.8 7.35 22.75 7.85 23.15 8.1 24.0 Q8.1 24.5 7.1 25.65 6.15 26.75 6.15 27.4 L6.1 28.1 5.65 29.7 4.3 33.6 3.35 36.45 Q2.7 39.05 2.7 41.35 2.7 42.7 3.4 43.85 L4.95 46.1 Q5.35 46.5 6.25 46.85 7.1 47.15 7.45 47.65 L7.5 47.7 7.55 47.8 7.7 49.45 8.15 53.55 8.1 53.6 8.3 53.95 8.5 54.75 8.25 55.45 8.15 55.5 8.2 55.5 8.45 56.1 8.35 56.65 8.25 56.8 8.7 57.35 8.85 58.05 Q8.85 59.1 8.0 59.1 7.2 59.1 6.05 58.2 L4.95 57.05 4.15 57.4 Q3.2 57.8 2.65 57.8 1.65 57.8 0.8 57.35 0.6 58.0 -0.2 58.5 -0.9 58.95 -2.4 58.95 -2.75 58.95 -3.0 57.9 L-3.2 56.65 -3.2 56.6 -3.55 54.6 -4.0 53.5 -4.1 52.5 -3.85 51.95 -4.4 50.9 -4.5 50.05 -4.5 50.1 -4.45 49.75 -4.95 48.5 -5.05 47.35 Q-5.5 47.35 -5.75 46.85 L-6.0 45.95 -5.9 45.3 -6.3 45.05 -6.6 44.35 -6.3 43.7 -5.8 43.4 -5.9 43.0 -6.1 42.15 Q-6.25 41.85 -5.45 41.85 L-3.7 42.1 -2.6 42.35 -1.6 43.15 -0.85 43.8 1.35 44.45 1.4 44.45 Q0.45 41.8 0.8 38.65 1.15 35.95 2.5 32.75 L3.65 29.95 4.25 27.85 Q4.75 25.05 4.2 23.9 3.7 22.8 3.15 22.65 L-7.95 22.65 -8.15 21.8 -8.0 21.05 -7.5 21.0 4.35 21.0 M0.5 57.25 L0.5 57.2 -0.7 56.35 -1.15 56.75 -1.95 57.0 -2.9 56.75 -2.7 57.75 -2.25 58.6 Q-1.0 58.6 -0.4 58.2 L0.5 57.25 M6.1 55.15 L6.2 54.4 Q6.2 52.65 5.3 51.6 4.35 50.45 2.65 50.45 L1.2 50.7 Q0.5 50.9 0.15 51.25 L-0.15 51.15 Q-0.2 49.5 -1.65 47.5 -3.25 45.25 -4.9 45.2 L-5.5 45.3 -5.5 45.35 -5.7 45.95 -5.5 46.7 -5.0 47.05 -4.8 47.0 -4.35 47.0 Q-3.8 47.0 -2.9 47.75 -1.95 48.55 -1.6 49.3 L-1.0 51.0 Q-0.7 52.05 -0.7 52.8 -0.7 53.7 -1.2 54.3 -1.7 55.0 -2.5 55.0 L-3.3 54.85 Q-3.15 56.6 -2.35 56.65 L-1.35 56.5 -0.85 56.05 -0.75 55.95 -0.6 56.0 0.85 57.0 2.65 57.45 4.0 57.1 5.0 56.7 5.1 56.7 5.2 56.8 6.25 57.95 Q7.3 58.75 8.0 58.75 8.5 58.75 8.5 58.05 L8.4 57.45 8.1 57.05 8.0 57.0 7.8 57.0 6.9 56.6 6.0 55.95 5.95 55.9 5.95 55.85 6.1 55.15 M3.95 47.5 L3.6 47.0 2.9 45.95 Q2.4 45.25 1.25 44.8 L-0.95 44.1 -1.8 43.4 -2.7 42.7 -3.85 42.4 -5.6 42.2 -5.55 43.0 -5.45 43.25 -4.95 43.35 -3.6 43.6 Q-2.85 43.7 -2.45 43.95 -2.1 44.15 -1.6 44.7 L-0.8 45.15 0.3 45.35 Q1.85 45.7 2.35 46.75 L2.8 47.95 3.35 48.8 4.3 49.2 5.4 49.55 Q6.2 49.9 6.75 51.55 7.25 53.0 7.75 53.35 L7.85 53.35 7.7 51.9 7.4 50.3 7.1 49.45 6.55 49.0 6.0 48.55 5.1 48.2 4.8 48.1 Q4.2 47.95 3.95 47.5 M0.85 49.4 Q0.9 48.35 0.1 47.3 L-1.4 45.25 -2.65 44.2 -3.65 43.9 -5.0 43.65 -5.65 43.7 -6.1 43.9 -6.3 44.35 -6.05 44.8 -5.7 45.0 -4.9 44.9 Q-3.1 44.9 -1.4 47.3 0.0 49.25 0.15 50.8 L1.1 50.35 2.65 50.1 Q4.5 50.1 5.55 51.35 6.55 52.55 6.55 54.4 L6.4 55.25 6.3 55.75 7.1 56.35 7.8 56.7 8.05 56.5 8.15 56.1 7.95 55.75 7.55 55.65 7.45 55.65 7.4 55.55 7.35 55.5 7.35 55.4 7.4 55.3 7.5 55.25 7.6 55.25 8.0 55.2 8.2 54.75 8.05 54.1 7.65 53.7 7.55 53.6 Q6.95 53.2 6.45 51.65 5.95 50.2 5.25 49.85 L3.75 49.4 2.9 49.3 1.2 49.55 1.05 49.55 0.95 49.5 0.85 49.4 M-0.5 46.0 L-0.35 45.8 -0.2 45.6 -0.9 45.45 -0.5 46.0 M-4.65 47.4 L-4.7 47.45 -4.8 48.1 Q-4.8 49.2 -3.95 49.65 L-1.7 50.05 -1.9 49.45 Q-2.25 48.75 -3.1 48.0 -4.0 47.25 -4.55 47.25 L-4.65 47.25 -4.65 47.3 -4.65 47.4 M-1.55 50.35 L-1.6 50.3 -1.6 50.35 -1.7 50.35 -4.1 49.95 -4.15 49.95 -4.2 50.2 -4.25 50.25 -4.3 50.5 Q-4.3 51.25 -3.5 51.8 -2.7 52.3 -1.75 52.3 L-1.45 52.2 -1.1 52.05 -1.35 51.1 -1.55 50.35 M-1.1 52.35 L-1.3 52.5 -1.75 52.6 Q-2.75 52.6 -3.55 52.1 L-3.8 52.6 -3.85 53.2 Q-3.85 53.75 -3.15 54.5 L-3.15 54.55 -2.5 54.65 -1.45 54.1 Q-1.05 53.6 -1.05 52.8 L-1.1 52.35" fill="url(#gradient3)" fill-rule="evenodd" stroke="none"/>
    <path d="M4.5 23.75 Q3.9 22.45 3.2 22.35 L-7.8 22.4 -7.85 21.35 4.25 21.35 5.15 22.75 Q5.55 23.7 5.55 24.65 L5.6 24.75 5.65 24.8 5.75 24.8 5.85 24.75 6.55 23.9 7.25 23.0 7.3 23.0 7.55 23.3 7.75 24.0 6.85 25.45 Q5.8 26.65 5.8 27.4 L5.75 28.05 5.3 29.6 4.0 33.5 Q3.15 35.85 3.05 36.35 2.35 39.0 2.35 41.35 2.35 42.8 3.1 44.05 L4.7 46.3 Q5.1 46.8 6.15 47.15 6.85 47.45 7.2 47.8 L7.45 48.25 7.55 48.65 7.45 49.05 7.35 49.25 6.4 48.4 6.35 48.4 6.15 48.25 5.9 48.1 4.95 47.8 4.3 47.45 3.95 46.9 Q2.65 44.85 1.75 44.35 0.85 41.4 1.15 38.7 1.45 36.15 2.8 32.9 L3.95 30.1 4.55 27.9 Q5.1 24.95 4.5 23.75" fill="url(#gradient4)" fill-rule="evenodd" stroke="none"/>
    <path d="M0.85 49.4 L0.95 49.5 1.05 49.55 1.2 49.55 2.9 49.3 3.75 49.4 5.25 49.85 Q5.95 50.2 6.45 51.65 6.95 53.2 7.55 53.6 L7.65 53.7 8.05 54.1 8.2 54.75 8.0 55.2 7.6 55.25 7.5 55.25 7.4 55.3 7.35 55.4 7.35 55.5 7.4 55.55 7.45 55.65 7.55 55.65 7.95 55.75 8.15 56.1 8.05 56.5 7.8 56.7 7.1 56.35 6.3 55.75 6.4 55.25 6.55 54.4 Q6.55 52.55 5.55 51.35 4.5 50.1 2.65 50.1 L1.1 50.35 0.15 50.8 Q0.0 49.25 -1.4 47.3 -3.1 44.9 -4.9 44.9 L-5.7 45.0 -6.05 44.8 -6.3 44.35 -6.1 43.9 -5.65 43.7 -5.0 43.65 -3.65 43.9 -2.65 44.2 -1.4 45.25 0.1 47.3 Q0.9 48.35 0.85 49.4 M3.95 47.5 Q4.2 47.95 4.8 48.1 L5.1 48.2 6.0 48.55 6.55 49.0 7.1 49.45 7.4 50.3 7.7 51.9 7.85 53.35 7.75 53.35 Q7.25 53.0 6.75 51.55 6.2 49.9 5.4 49.55 L4.3 49.2 3.35 48.8 2.8 47.95 2.35 46.75 Q1.85 45.7 0.3 45.35 L-0.8 45.15 -1.6 44.7 Q-2.1 44.15 -2.45 43.95 -2.85 43.7 -3.6 43.6 L-4.95 43.35 -5.45 43.25 -5.55 43.0 -5.6 42.2 -3.85 42.4 -2.7 42.7 -1.8 43.4 -0.95 44.1 1.25 44.8 Q2.4 45.25 2.9 45.95 L3.6 47.0 3.95 47.5 M6.1 55.15 L5.95 55.85 5.95 55.9 6.0 55.95 6.9 56.6 7.8 57.0 8.0 57.0 8.1 57.05 8.4 57.45 8.5 58.05 Q8.5 58.75 8.0 58.75 7.3 58.75 6.25 57.95 L5.2 56.8 5.1 56.7 5.0 56.7 4.0 57.1 2.65 57.45 0.85 57.0 -0.6 56.0 -0.75 55.95 -0.85 56.05 -1.35 56.5 -2.35 56.65 Q-3.15 56.6 -3.3 54.85 L-2.5 55.0 Q-1.7 55.0 -1.2 54.3 -0.7 53.7 -0.7 52.8 -0.7 52.05 -1.0 51.0 L-1.6 49.3 Q-1.95 48.55 -2.9 47.75 -3.8 47.0 -4.35 47.0 L-4.8 47.0 -5.0 47.05 -5.5 46.7 -5.7 45.95 -5.5 45.35 -5.5 45.3 -4.9 45.2 Q-3.25 45.25 -1.65 47.5 -0.2 49.5 -0.15 51.15 L0.15 51.25 Q0.5 50.9 1.2 50.7 L2.65 50.45 Q4.35 50.45 5.3 51.6 6.2 52.65 6.2 54.4 L6.1 55.15 M0.5 57.25 L-0.4 58.2 Q-1.0 58.6 -2.25 58.6 L-2.7 57.75 -2.9 56.75 -1.95 57.0 -1.15 56.75 -0.7 56.35 0.5 57.2 0.5 57.25 M-4.65 47.4 L-4.65 47.3 -4.65 47.25 -4.55 47.25 Q-4.0 47.25 -3.1 48.0 -2.25 48.75 -1.9 49.45 L-1.7 50.05 -3.95 49.65 Q-4.8 49.2 -4.8 48.1 L-4.7 47.45 -4.65 47.4 M-1.55 50.35 L-1.35 51.1 -1.1 52.05 -1.45 52.2 -1.75 52.3 Q-2.7 52.3 -3.5 51.8 -4.3 51.25 -4.3 50.5 L-4.25 50.25 -4.2 50.2 -4.15 49.95 -4.1 49.95 -1.7 50.35 -1.6 50.35 -1.55 50.35 M-1.1 52.35 L-1.05 52.8 Q-1.05 53.6 -1.45 54.1 L-2.5 54.65 -3.15 54.55 -3.15 54.5 Q-3.85 53.75 -3.85 53.2 L-3.8 52.6 -3.55 52.1 Q-2.75 52.6 -1.75 52.6 L-1.3 52.5 -1.1 52.35" fill="url(#gradient5)" fill-rule="evenodd" stroke="none"/>
    <path d="M4.3 52.2 Q5.0 52.9 5.05 53.9 5.05 54.9 4.35 55.55 L4.3 55.6 Q3.65 56.3 2.65 56.3 1.65 56.25 0.95 55.55 0.3 54.9 0.3 53.9 0.3 52.9 0.95 52.2 1.65 51.55 2.65 51.55 3.65 51.55 4.3 52.2" fill="url(#gradient6)" fill-rule="evenodd" stroke="none"/>
    <path d="M2.65 51.3 Q3.75 51.25 4.5 52.0 5.3 52.8 5.3 53.9 5.25 55.0 4.5 55.75 3.75 56.5 2.65 56.55 1.55 56.55 0.75 55.75 0.0 55.0 0.05 53.9 0.0 52.8 0.75 52.05 L0.8 52.0 Q1.55 51.25 2.65 51.3 M4.3 52.2 Q3.65 51.55 2.65 51.55 1.65 51.55 0.95 52.2 0.3 52.9 0.3 53.9 0.3 54.9 0.95 55.55 1.65 56.25 2.65 56.3 3.65 56.3 4.3 55.6 L4.35 55.55 Q5.05 54.9 5.05 53.9 5.0 52.9 4.3 52.2" fill="url(#gradient7)" fill-rule="evenodd" stroke="none"/>
    <path d="M2.2 53.65 Q1.9 53.35 1.9 52.95 1.9 52.55 2.2 52.25 2.5 51.95 2.9 51.95 3.3 51.95 3.6 52.25 L3.9 52.95 3.6 53.65 2.9 53.95 Q2.5 53.95 2.2 53.65" fill="url(#gradient8)" fill-rule="evenodd" stroke="none"/>
    <path d="M6.0 18.0 L-7.0 18.0 -7.0 11.0 6.0 11.0 6.0 18.0" fill="url(#gradient9)" fill-rule="evenodd" stroke="none"/>
    <path d="M7.0 21.0 L-8.0 21.0 -8.0 17.0 7.0 17.0 7.0 21.0" fill="url(#gradient10)" fill-rule="evenodd" stroke="none"/>
    <path d="M6.0 11.0 L-7.0 11.0 Q-5.9 -21.7 -2.0 -55.0 1.55 -61.65 9.0 -64.0 5.45 -26.35 6.0 11.0" fill="url(#gradient11)" fill-rule="evenodd" stroke="none"/>
    <path d="M-2.0 -55.0 L3.0 -50.0 Q0.3 -19.3 0.0 11.0 L-7.0 11.0 Q-6.05 -22.15 -2.0 -55.0" fill="url(#gradient12)" fill-rule="evenodd" stroke="none"/>
    <path d="M3.0 -50.0 L-2.0 -55.0 Q1.45 -61.75 9.0 -64.0 L3.0 -50.0" fill="#ffffff" fill-rule="evenodd" stroke="none"/>
  </g>
  <defs>
    <linearGradient gradientTransform="matrix(0.0103, -0.0012, 0.0028, 0.0246, 1.85, 41.1)" gradientUnits="userSpaceOnUse" id="gradient0" spreadMethod="pad" x1="-819.2" x2="819.2">
      <stop offset="0.0" stop-color="#462d15"/>
      <stop offset="0.39215686274509803" stop-color="#9e754b"/>
      <stop offset="0.6549019607843137" stop-color="#9b7146"/>
      <stop offset="1.0" stop-color="#4f3722"/>
    </linearGradient>
    <linearGradient gradientTransform="matrix(0.0091, 0.0, 0.0, 0.003, -0.5, 23.2)" gradientUnits="userSpaceOnUse" id="gradient1" spreadMethod="pad" x1="-819.2" x2="819.2">
      <stop offset="0.0" stop-color="#3f240c"/>
      <stop offset="0.47058823529411764" stop-color="#a27d4f"/>
      <stop offset="1.0" stop-color="#674434"/>
    </linearGradient>
    <radialGradient cx="0" cy="0" gradientTransform="matrix(0.0019, 0.0, 0.0, 0.0019, -0.5, 27.5)" gradientUnits="userSpaceOnUse" id="gradient2" r="819.2" spreadMethod="pad">
      <stop offset="0.5686274509803921" stop-color="#555843"/>
      <stop offset="0.6509803921568628" stop-color="#919191"/>
      <stop offset="0.7137254901960784" stop-color="#8a8a8a"/>
      <stop offset="0.7686274509803922" stop-color="#333a21"/>
    </radialGradient>
    <linearGradient gradientTransform="matrix(0.0153, 0.0023, -0.0034, 0.0229, 0.1, 42.25)" gradientUnits="userSpaceOnUse" id="gradient3" spreadMethod="pad" x1="-819.2" x2="819.2">
      <stop offset="0.0" stop-color="#5b3715"/>
      <stop offset="0.4" stop-color="#5f4936"/>
      <stop offset="0.7137254901960784" stop-color="#6b583f"/>
      <stop offset="1.0" stop-color="#71451c"/>
    </linearGradient>
    <linearGradient gradientTransform="matrix(0.0116, -0.0011, 0.0016, 0.017, 1.5, 35.2)" gradientUnits="userSpaceOnUse" id="gradient4" spreadMethod="pad" x1="-819.2" x2="819.2">
      <stop offset="0.0" stop-color="#704b3a"/>
      <stop offset="0.4196078431372549" stop-color="#b69365"/>
      <stop offset="0.5568627450980392" stop-color="#a3805c"/>
      <stop offset="1.0" stop-color="#61441f"/>
    </linearGradient>
    <linearGradient gradientTransform="matrix(0.0085, -0.0013, 0.001, 0.0067, 0.8, 47.8)" gradientUnits="userSpaceOnUse" id="gradient5" spreadMethod="pad" x1="-819.2" x2="819.2">
      <stop offset="0.0" stop-color="#382b1d"/>
      <stop offset="0.3568627450980392" stop-color="#9a845c"/>
      <stop offset="0.6901960784313725" stop-color="#a48c62"/>
      <stop offset="1.0" stop-color="#634d38"/>
    </linearGradient>
    <radialGradient cx="0" cy="0" gradientTransform="matrix(0.0031, 0.0, 0.0, 0.0031, 2.15, 54.55)" gradientUnits="userSpaceOnUse" id="gradient6" r="819.2" spreadMethod="pad">
      <stop offset="0.20784313725490197" stop-color="#0e89b1"/>
      <stop offset="0.39215686274509803" stop-color="#54acd6"/>
      <stop offset="1.0" stop-color="#61def3"/>
    </radialGradient>
    <linearGradient gradientTransform="matrix(0.0, 0.0041, -0.0032, 0.0, 2.55, 54.55)" gradientUnits="userSpaceOnUse" id="gradient7" spreadMethod="pad" x1="-819.2" x2="819.2">
      <stop offset="0.0" stop-color="#513720"/>
      <stop offset="0.0" stop-color="#42250b"/>
      <stop offset="1.0" stop-color="#b38953"/>
    </linearGradient>
    <radialGradient cx="0" cy="0" gradientTransform="matrix(0.0013, 0.0, 0.0, 0.0013, 2.9, 52.95)" gradientUnits="userSpaceOnUse" id="gradient8" r="819.2" spreadMethod="pad">
      <stop offset="0.615686274509804" stop-color="#ffffff"/>
      <stop offset="1.0" stop-color="#b0f3f9" stop-opacity="0.0"/>
    </radialGradient>
    <linearGradient gradientTransform="matrix(0.0079, 0.0, 0.0, 0.0043, -0.5, 14.5)" gradientUnits="userSpaceOnUse" id="gradient9" spreadMethod="pad" x1="-819.2" x2="819.2">
      <stop offset="0.0" stop-color="#96834b"/>
      <stop offset="0.32941176470588235" stop-color="#baa545"/>
      <stop offset="0.7607843137254902" stop-color="#ddcd44"/>
      <stop offset="1.0" stop-color="#9d8437"/>
    </linearGradient>
    <linearGradient gradientTransform="matrix(0.0092, 0.0, 0.0, 0.0024, -0.5, 19.0)" gradientUnits="userSpaceOnUse" id="gradient10" spreadMethod="pad" x1="-819.2" x2="819.2">
      <stop offset="0.0" stop-color="#472523"/>
      <stop offset="0.48627450980392156" stop-color="#934242"/>
      <stop offset="1.0" stop-color="#3f1d1d"/>
    </linearGradient>
    <linearGradient gradientTransform="matrix(0.0265, -0.0137, 0.021, 0.0406, 1.0, -26.5)" gradientUnits="userSpaceOnUse" id="gradient11" spreadMethod="pad" x1="-819.2" x2="819.2">
      <stop offset="0.0" stop-color="#bfbfbf"/>
      <stop offset="0.6901960784313725" stop-color="#959595"/>
      <stop offset="1.0" stop-color="#606060"/>
    </linearGradient>
    <linearGradient gradientTransform="matrix(0.0083, -0.0407, 0.0393, 0.008, -1.8, -21.45)" gradientUnits="userSpaceOnUse" id="gradient12" spreadMethod="pad" x1="-819.2" x2="819.2">
      <stop offset="0.01568627450980392" stop-color="#d8d8d8"/>
      <stop offset="1.0" stop-color="#9f9f9f"/>
    </linearGradient>
  </defs>
</svg>
