<?xml version="1.0" encoding="UTF-8" standalone="no"?>
<svg xmlns:xlink="http://www.w3.org/1999/xlink" height="225.0px" width="385.0px" xmlns="http://www.w3.org/2000/svg">
  <g transform="matrix(1.0, 0.0, 0.0, 1.0, 192.5, 192.5)">
    <path d="M135.75 -135.8 Q191.95 -79.6 192.0 -0.15 L192.0 0.0 Q192.0 13.25 135.75 22.6 79.55 32.0 0.0 32.0 -79.55 32.0 -135.8 22.6 -192.0 13.25 -192.0 0.0 L-192.0 -0.15 Q-191.95 -79.6 -135.8 -135.8 -79.55 -192.0 0.0 -192.0 79.55 -192.0 135.75 -135.8" fill="url(#gradient0)" fill-rule="evenodd" stroke="none"/>
    <path d="M135.75 -135.8 Q191.95 -79.6 192.0 -0.15 L192.0 0.0 Q192.0 13.25 135.75 22.6 79.55 32.0 0.0 32.0 -79.55 32.0 -135.8 22.6 -192.0 13.25 -192.0 0.0 L-192.0 -0.15 Q-191.95 -79.6 -135.8 -135.8 -79.55 -192.0 0.0 -192.0 79.55 -192.0 135.75 -135.8 Z" fill="none" stroke="#ffcc00" stroke-linecap="round" stroke-linejoin="round" stroke-width="1.0"/>
  </g>
  <defs>
    <radialGradient cx="0" cy="0" gradientTransform="matrix(0.2416, 0.0, 0.0, 0.2416, 0.0, 0.0)" gradientUnits="userSpaceOnUse" id="gradient0" r="819.2" spreadMethod="pad">
      <stop offset="0.0" stop-color="#ffffff"/>
      <stop offset="0.8901960784313725" stop-color="#fffef7"/>
      <stop offset="1.0" stop-color="#faea61"/>
    </radialGradient>
  </defs>
</svg>
