<?xml version="1.0" encoding="UTF-8" standalone="no"?>
<svg xmlns:xlink="http://www.w3.org/1999/xlink" height="22.75px" width="401.65px" xmlns="http://www.w3.org/2000/svg">
  <g transform="matrix(1.0, 0.0, 0.0, 1.0, 200.85, 24.0)">
    <path d="M0.0 -20.25 Q-84.5 -20.2 -141.45 -14.1 -166.85 -11.35 -182.6 -7.9 -198.25 -4.5 -200.8 -1.25 L-200.75 -3.45 Q-200.35 -5.95 -198.5 -7.4 -183.95 -12.75 -147.1 -17.0 -86.15 -24.0 0.0 -24.0 86.15 -24.0 147.1 -17.0 183.95 -12.75 198.5 -7.4 199.9 -6.35 200.5 -3.7 L200.8 -1.25 Q198.25 -4.5 182.6 -7.9 166.85 -11.35 141.45 -14.1 84.5 -20.2 0.0 -20.25" fill="#ccae55" fill-rule="evenodd" stroke="none"/>
  </g>
</svg>
