<?xml version="1.0" encoding="UTF-8" standalone="no"?>
<svg xmlns:xlink="http://www.w3.org/1999/xlink" height="157.35px" width="30.2px" xmlns="http://www.w3.org/2000/svg">
  <g transform="matrix(1.0, 0.0, 0.0, 1.0, 15.1, 79.85)">
    <path d="M1.5 -79.0 Q8.5 -74.15 9.15 -40.65 L9.75 -19.1 Q10.35 -13.35 10.95 -10.95 11.55 -8.45 12.85 -7.2 11.1 -6.3 10.05 -4.1 9.15 -2.1 9.2 0.05 L9.2 0.1 Q9.25 4.45 11.9 8.6 L13.1 10.65 11.5 12.0 Q9.95 13.7 10.85 20.15 11.2 22.8 13.05 29.55 14.65 35.6 15.1 36.65 L13.2 37.2 Q13.45 38.5 12.75 39.5 12.05 40.55 10.65 40.7 10.8 41.95 10.05 43.05 9.2 44.25 7.55 44.3 7.05 44.35 5.45 43.55 L4.6 44.95 Q5.5 45.8 5.5 47.0 L5.5 48.4 Q4.55 54.6 4.5 61.0 L4.55 62.55 Q6.45 63.95 5.2 66.2 L5.25 66.15 4.5 67.6 4.5 68.85 Q7.15 70.1 6.45 72.75 5.85 75.05 3.65 76.35 2.2 77.25 0.0 77.5 -2.2 77.25 -3.65 76.35 -5.85 75.05 -6.45 72.75 -7.15 70.1 -4.5 68.85 L-4.5 67.6 -5.25 66.15 -5.2 66.2 Q-6.45 63.95 -4.55 62.55 L-4.5 61.0 Q-4.55 54.6 -5.5 48.4 L-5.5 47.0 Q-5.5 45.8 -4.6 44.95 L-5.45 43.55 Q-7.05 44.35 -7.55 44.3 -9.2 44.25 -10.05 43.05 -10.8 41.95 -10.65 40.7 -12.05 40.55 -12.75 39.5 -13.45 38.5 -13.2 37.2 L-15.1 36.65 Q-14.65 35.6 -13.05 29.55 -11.2 22.8 -10.85 20.15 -9.95 13.7 -11.5 12.0 L-13.1 10.65 -11.9 8.6 Q-9.25 4.45 -9.2 0.1 L-9.2 0.05 Q-9.15 -2.1 -10.05 -4.1 -11.1 -6.3 -12.85 -7.2 -11.55 -8.45 -10.95 -10.95 -10.35 -13.35 -9.75 -19.1 L-9.15 -40.65 Q-8.5 -74.15 -1.5 -79.0 L0.0 -79.85 1.5 -79.0" fill="#000000" fill-rule="evenodd" stroke="none"/>
    <path d="M0.0 -13.0 L0.0 7.0 -10.0 10.0 Q-6.75 5.3 -6.7 0.1 -6.6 -5.25 -10.0 -8.0 L0.0 -13.0" fill="url(#gradient0)" fill-rule="evenodd" stroke="none"/>
    <path d="M-10.0 -8.0 Q-7.9 -9.3 -7.25 -19.35 L-6.65 -40.95 Q-6.0 -72.5 0.0 -77.0 L0.0 -13.0 -10.0 -8.0" fill="url(#gradient1)" fill-rule="evenodd" stroke="none"/>
    <path d="M-12.0 35.0 Q-9.25 26.8 -8.35 20.5 -7.2 12.1 -10.0 10.0 L0.0 7.0 0.0 24.3 Q-1.3 23.2 -5.75 27.85 L-6.95 29.05 -12.0 35.0" fill="url(#gradient2)" fill-rule="evenodd" stroke="none"/>
    <path d="M0.0 7.0 L10.0 10.0 Q7.2 12.1 8.35 20.5 9.25 26.8 12.0 35.0 2.05 22.6 0.0 24.3 L0.0 7.0" fill="url(#gradient3)" fill-rule="evenodd" stroke="none"/>
    <path d="M9.5 -8.25 L10.0 -8.0 Q6.6 -5.25 6.7 0.1 6.75 5.3 10.0 10.0 L0.0 7.0 0.0 -13.0 9.5 -8.25" fill="url(#gradient4)" fill-rule="evenodd" stroke="none"/>
    <path d="M9.5 -8.25 L0.0 -13.0 0.0 -77.0 Q6.0 -72.45 6.65 -40.6 L7.25 -18.95 Q7.9 -9.15 10.0 -8.0 L9.5 -8.25" fill="url(#gradient5)" fill-rule="evenodd" stroke="none"/>
    <path d="M12.0 35.0 Q6.6 32.05 5.65 31.75 2.7 30.85 0.0 33.0 L0.0 24.3 Q2.05 22.6 12.0 35.0" fill="url(#gradient6)" fill-rule="evenodd" stroke="none"/>
    <path d="M0.0 33.0 L-0.1 32.95 Q-2.75 30.85 -5.65 31.75 -6.6 32.05 -12.0 35.0 L-6.95 29.05 -5.75 27.85 Q-1.3 23.2 0.0 24.3 L0.0 33.0" fill="url(#gradient7)" fill-rule="evenodd" stroke="none"/>
    <path d="M0.0 -70.35 Q2.65 -62.5 3.05 -41.25 3.35 -23.55 3.55 -20.1 L3.55 -20.05 Q4.05 -13.55 5.4 -10.2 3.1 -6.8 3.2 -1.35 3.25 4.0 5.7 8.65 3.85 12.35 4.9 20.45 5.4 24.45 6.4 28.45 3.15 26.75 0.0 28.85 L0.0 -70.35" fill="url(#gradient8)" fill-rule="evenodd" stroke="none"/>
    <path d="M0.0 -70.35 L0.0 28.85 Q-3.15 26.75 -6.4 28.45 -5.4 24.45 -4.9 20.45 -3.85 12.35 -5.7 8.65 -3.25 4.0 -3.2 -1.35 -3.1 -6.8 -5.4 -10.2 -4.05 -13.55 -3.55 -20.05 L-3.55 -20.1 Q-3.35 -23.55 -3.05 -41.25 -2.65 -62.5 0.0 -70.35" fill="url(#gradient9)" fill-rule="evenodd" stroke="none"/>
    <path d="M-3.0 43.0 L-3.0 42.0 3.0 42.0 3.0 43.0 -3.0 43.0" fill="url(#gradient10)" fill-rule="evenodd" stroke="none"/>
    <path d="M3.0 47.0 L3.0 48.0 -3.0 48.0 -3.0 47.0 3.0 47.0" fill="url(#gradient11)" fill-rule="evenodd" stroke="none"/>
    <path d="M2.0 45.0 L2.4 46.1 3.0 47.0 -3.0 47.0 -2.4 46.1 -2.0 45.0 2.0 45.0" fill="url(#gradient12)" fill-rule="evenodd" stroke="none"/>
    <path d="M-2.0 45.0 Q-2.0 44.0 -3.0 43.0 L3.0 43.0 Q2.05 43.9 2.0 45.0 L-2.0 45.0" fill="url(#gradient13)" fill-rule="evenodd" stroke="none"/>
    <path d="M2.0 61.0 L2.0 64.0 -2.0 64.0 -2.0 61.0 2.0 61.0" fill="url(#gradient14)" fill-rule="evenodd" stroke="none"/>
    <path d="M-2.0 67.0 L-3.0 65.0 3.0 65.0 2.0 67.0 -2.0 67.0" fill="url(#gradient15)" fill-rule="evenodd" stroke="none"/>
    <path d="M2.0 67.0 L2.0 69.0 -2.0 69.0 -2.0 67.0 2.0 67.0" fill="url(#gradient16)" fill-rule="evenodd" stroke="none"/>
    <path d="M3.0 48.0 Q2.05 54.4 2.0 61.0 L-2.0 61.0 Q-2.05 54.4 -3.0 48.0 L3.0 48.0" fill="url(#gradient17)" fill-rule="evenodd" stroke="none"/>
    <path d="M0.0 64.0 L1.95 64.0 Q3.55 64.0 3.0 65.0 L0.0 65.0 -3.0 65.0 Q-3.55 64.0 -2.0 64.0 L0.0 64.0" fill="url(#gradient18)" fill-rule="evenodd" stroke="none"/>
    <path d="M3.1 71.1 Q4.15 71.15 4.0 72.0 3.8 73.25 2.3 74.2 0.95 75.05 0.0 75.0 -1.0 74.95 -2.25 74.2 -3.8 73.25 -4.0 72.0 -4.15 71.15 -3.1 71.1 -1.95 71.0 -2.0 69.0 L0.0 69.0 2.0 69.0 Q1.95 71.0 3.1 71.1" fill="url(#gradient19)" fill-rule="evenodd" stroke="none"/>
    <path d="M0.0 6.0 Q0.3 6.0 0.6 7.1 2.2 13.25 3.15 23.0 3.9 31.25 4.0 39.1 L3.0 40.0 0.0 40.0 0.0 6.0" fill="url(#gradient20)" fill-rule="evenodd" stroke="none"/>
    <path d="M0.0 6.0 L0.0 40.0 -3.0 40.0 -4.0 39.1 Q-3.9 31.25 -3.15 23.0 -2.2 13.25 -0.6 7.1 -0.3 6.0 0.0 6.0" fill="url(#gradient21)" fill-rule="evenodd" stroke="none"/>
    <path d="M3.0 40.0 Q2.35 41.0 3.0 42.0 L-3.0 42.0 Q-2.35 41.0 -3.0 40.0 0.0 38.9 3.0 40.0" fill="url(#gradient22)" fill-rule="evenodd" stroke="none"/>
    <path d="M2.05 36.7 L0.4 36.7 0.4 35.45 2.05 35.45 2.05 36.7 M0.4 33.05 L2.05 33.05 2.05 34.3 0.4 34.3 0.4 33.05 M0.4 30.65 L2.05 30.65 2.05 31.85 0.4 31.85 0.4 30.65 M0.4 29.45 L0.4 28.25 2.05 28.25 2.05 29.45 0.4 29.45 M-0.4 29.45 L-2.05 29.45 -2.05 28.25 -0.4 28.25 -0.4 29.45 M-0.4 30.65 L-0.4 31.85 -2.05 31.85 -2.05 30.65 -0.4 30.65 M-0.4 33.05 L-0.4 34.3 -2.05 34.3 -2.05 33.05 -0.4 33.05 M-2.05 36.7 L-2.05 35.45 -0.4 35.45 -0.4 36.7 -2.05 36.7" fill="url(#gradient23)" fill-rule="evenodd" stroke="none"/>
    <path d="M-0.4 24.55 L-1.6 24.55 -1.6 23.35 -0.4 23.35 -0.4 24.55" fill="url(#gradient24)" fill-rule="evenodd" stroke="none"/>
    <path d="M0.4 23.35 L1.6 23.35 1.6 24.55 0.4 24.55 0.4 23.35" fill="url(#gradient25)" fill-rule="evenodd" stroke="none"/>
    <path d="M-0.4 25.8 L-0.4 27.0 -1.85 27.0 -1.85 25.8 -0.4 25.8" fill="url(#gradient26)" fill-rule="evenodd" stroke="none"/>
    <path d="M1.85 25.8 L1.85 27.0 0.4 27.0 0.4 25.8 1.85 25.8" fill="url(#gradient27)" fill-rule="evenodd" stroke="none"/>
    <path d="M5.45 34.35 Q9.65 37.0 10.8 37.9 L10.8 38.45 10.3 38.75 Q6.45 37.15 4.55 36.05 L5.45 34.35" fill="url(#gradient28)" fill-rule="evenodd" stroke="none"/>
    <path d="M4.55 36.05 Q4.35 35.65 3.0 34.8 L3.0 34.75 Q2.85 33.95 3.5 33.75 L3.5 33.8 Q4.95 34.45 5.45 34.35 L4.55 36.05" fill="url(#gradient29)" fill-rule="evenodd" stroke="none"/>
    <path d="M-5.45 34.35 L-3.8 33.95 -3.5 33.8 -3.5 33.75 Q-2.85 33.95 -3.0 34.75 L-3.0 34.8 -3.85 35.4 -4.55 36.05 -5.45 34.35" fill="url(#gradient30)" fill-rule="evenodd" stroke="none"/>
    <path d="M-5.45 38.55 L-3.95 38.1 -3.55 37.9 -3.55 37.85 Q-2.85 38.0 -3.0 38.8 L-3.0 38.85 -3.65 39.35 -4.45 40.2 -5.45 38.55" fill="url(#gradient31)" fill-rule="evenodd" stroke="none"/>
    <path d="M4.45 40.2 L3.0 38.85 3.0 38.8 Q2.85 38.0 3.55 37.85 L3.55 37.9 Q4.95 38.6 5.45 38.55 L4.45 40.2" fill="url(#gradient32)" fill-rule="evenodd" stroke="none"/>
    <path d="M-5.45 34.35 L-4.55 36.05 Q-6.45 37.15 -10.3 38.75 L-10.8 38.45 -10.8 37.9 Q-9.65 37.0 -5.45 34.35" fill="url(#gradient33)" fill-rule="evenodd" stroke="none"/>
    <path d="M-5.45 38.55 L-4.45 40.2 -8.4 42.2 -8.9 41.9 -8.95 41.35 -5.45 38.55" fill="url(#gradient34)" fill-rule="evenodd" stroke="none"/>
    <path d="M5.45 38.55 L8.95 41.35 8.9 41.9 8.4 42.2 4.45 40.2 5.45 38.55" fill="url(#gradient35)" fill-rule="evenodd" stroke="none"/>
  </g>
  <defs>
    <linearGradient gradientTransform="matrix(0.0033, -0.0154, 0.0113, 0.0024, -1.75, -1.15)" gradientUnits="userSpaceOnUse" id="gradient0" spreadMethod="pad" x1="-819.2" x2="819.2">
      <stop offset="0.0" stop-color="#515875"/>
      <stop offset="0.4666666666666667" stop-color="#393d53"/>
      <stop offset="0.8823529411764706" stop-color="#232632"/>
    </linearGradient>
    <linearGradient gradientTransform="matrix(-0.0069, -0.0403, 0.0401, -0.0069, -0.4, -43.4)" gradientUnits="userSpaceOnUse" id="gradient1" spreadMethod="pad" x1="-819.2" x2="819.2">
      <stop offset="0.0" stop-color="#4b526b"/>
      <stop offset="0.23529411764705882" stop-color="#393d53"/>
      <stop offset="0.5254901960784314" stop-color="#627088"/>
      <stop offset="1.0" stop-color="#45515c"/>
    </linearGradient>
    <linearGradient gradientTransform="matrix(-0.0034, -0.0145, 0.0154, -0.0036, 3.75, 18.9)" gradientUnits="userSpaceOnUse" id="gradient2" spreadMethod="pad" x1="-819.2" x2="819.2">
      <stop offset="0.0" stop-color="#636b8d"/>
      <stop offset="0.47843137254901963" stop-color="#393d53"/>
      <stop offset="1.0" stop-color="#232632"/>
    </linearGradient>
    <linearGradient gradientTransform="matrix(0.0047, -0.0142, 0.015, 0.005, 3.9, 19.85)" gradientUnits="userSpaceOnUse" id="gradient3" spreadMethod="pad" x1="-819.2" x2="819.2">
      <stop offset="0.0" stop-color="#7984a2"/>
      <stop offset="0.47843137254901963" stop-color="#535c79"/>
      <stop offset="1.0" stop-color="#252b36"/>
    </linearGradient>
    <linearGradient gradientTransform="matrix(0.0036, -0.0118, 0.011, 0.0033, -1.3, -3.15)" gradientUnits="userSpaceOnUse" id="gradient4" spreadMethod="pad" x1="-819.2" x2="819.2">
      <stop offset="0.0" stop-color="#71809b"/>
      <stop offset="0.4627450980392157" stop-color="#535c79"/>
      <stop offset="1.0" stop-color="#282e39"/>
    </linearGradient>
    <linearGradient gradientTransform="matrix(0.0149, -0.0352, 0.0376, 0.0159, -0.5, -44.55)" gradientUnits="userSpaceOnUse" id="gradient5" spreadMethod="pad" x1="-819.2" x2="819.2">
      <stop offset="0.0" stop-color="#657192"/>
      <stop offset="0.2627450980392157" stop-color="#32394e"/>
      <stop offset="0.4627450980392157" stop-color="#434d67"/>
      <stop offset="0.6980392156862745" stop-color="#546081"/>
      <stop offset="1.0" stop-color="#aab1c6"/>
    </linearGradient>
    <linearGradient gradientTransform="matrix(0.0058, 0.0045, -0.0041, 0.0053, 13.05, 24.15)" gradientUnits="userSpaceOnUse" id="gradient6" spreadMethod="pad" x1="-819.2" x2="819.2">
      <stop offset="0.0" stop-color="#57627d"/>
      <stop offset="1.0" stop-color="#232732"/>
    </linearGradient>
    <linearGradient gradientTransform="matrix(-0.0058, 0.0045, 0.0041, 0.0053, -13.05, 24.15)" gradientUnits="userSpaceOnUse" id="gradient7" spreadMethod="pad" x1="-819.2" x2="819.2">
      <stop offset="0.0" stop-color="#57627d"/>
      <stop offset="1.0" stop-color="#232732"/>
    </linearGradient>
    <linearGradient gradientTransform="matrix(0.0343, -0.0241, 0.0348, 0.0495, 0.0, -20.75)" gradientUnits="userSpaceOnUse" id="gradient8" spreadMethod="pad" x1="-819.2" x2="819.2">
      <stop offset="0.08627450980392157" stop-color="#9c9ca9"/>
      <stop offset="0.4" stop-color="#878695"/>
      <stop offset="0.6784313725490196" stop-color="#a0a3b4"/>
      <stop offset="0.8862745098039215" stop-color="#d0d2d9"/>
    </linearGradient>
    <linearGradient gradientTransform="matrix(-0.0343, -0.0241, -0.0348, 0.0495, 0.0, -20.75)" gradientUnits="userSpaceOnUse" id="gradient9" spreadMethod="pad" x1="-819.2" x2="819.2">
      <stop offset="0.08627450980392157" stop-color="#9c9ca9"/>
      <stop offset="0.4" stop-color="#878695"/>
      <stop offset="0.6784313725490196" stop-color="#a0a3b4"/>
      <stop offset="0.8862745098039215" stop-color="#d0d2d9"/>
    </linearGradient>
    <linearGradient gradientTransform="matrix(0.0037, 0.0, 0.0, 6.0E-4, 0.0, 42.5)" gradientUnits="userSpaceOnUse" id="gradient10" spreadMethod="pad" x1="-819.2" x2="819.2">
      <stop offset="0.0" stop-color="#2c333f"/>
      <stop offset="0.5333333333333333" stop-color="#7984a2"/>
      <stop offset="1.0" stop-color="#2c333f"/>
    </linearGradient>
    <linearGradient gradientTransform="matrix(0.0037, 0.0, 0.0, 6.0E-4, 0.0, 47.5)" gradientUnits="userSpaceOnUse" id="gradient11" spreadMethod="pad" x1="-819.2" x2="819.2">
      <stop offset="0.0" stop-color="#594b33"/>
      <stop offset="0.5019607843137255" stop-color="#aea788"/>
      <stop offset="1.0" stop-color="#594b33"/>
    </linearGradient>
    <linearGradient gradientTransform="matrix(0.0037, 0.0, 0.0, 0.0012, 0.0, 46.0)" gradientUnits="userSpaceOnUse" id="gradient12" spreadMethod="pad" x1="-819.2" x2="819.2">
      <stop offset="0.0" stop-color="#1c1c1c"/>
      <stop offset="0.5098039215686274" stop-color="#666666"/>
      <stop offset="1.0" stop-color="#1c1c1c"/>
    </linearGradient>
    <linearGradient gradientTransform="matrix(0.0037, 0.0, 0.0, 0.0012, 0.0, 44.0)" gradientUnits="userSpaceOnUse" id="gradient13" spreadMethod="pad" x1="-819.2" x2="819.2">
      <stop offset="0.0" stop-color="#181818"/>
      <stop offset="0.5098039215686274" stop-color="#464646"/>
      <stop offset="1.0" stop-color="#111111"/>
    </linearGradient>
    <linearGradient gradientTransform="matrix(0.0024, 0.0, 0.0, 0.0018, 0.0, 62.5)" gradientUnits="userSpaceOnUse" id="gradient14" spreadMethod="pad" x1="-819.2" x2="819.2">
      <stop offset="0.0" stop-color="#302c2c"/>
      <stop offset="0.5098039215686274" stop-color="#575553"/>
      <stop offset="1.0" stop-color="#302c2c"/>
    </linearGradient>
    <linearGradient gradientTransform="matrix(0.0037, 0.0, 0.0, 0.0012, 0.0, 44.0)" gradientUnits="userSpaceOnUse" id="gradient15" spreadMethod="pad" x1="-819.2" x2="819.2">
      <stop offset="0.0" stop-color="#272625"/>
      <stop offset="0.5098039215686274" stop-color="#504e4b"/>
      <stop offset="1.0" stop-color="#272625"/>
    </linearGradient>
    <linearGradient gradientTransform="matrix(0.0037, 0.0, 0.0, 0.0012, 0.0, 46.0)" gradientUnits="userSpaceOnUse" id="gradient16" spreadMethod="pad" x1="-819.2" x2="819.2">
      <stop offset="0.0" stop-color="#1a1817"/>
      <stop offset="0.5098039215686274" stop-color="#656461"/>
      <stop offset="1.0" stop-color="#1c1c1c"/>
    </linearGradient>
    <linearGradient gradientTransform="matrix(0.0037, 0.0, 0.0, 0.0079, 0.0, 54.5)" gradientUnits="userSpaceOnUse" id="gradient17" spreadMethod="pad" x1="-819.2" x2="819.2">
      <stop offset="0.0" stop-color="#442d35"/>
      <stop offset="0.4549019607843137" stop-color="#783233"/>
      <stop offset="0.5529411764705883" stop-color="#783233"/>
      <stop offset="1.0" stop-color="#442d35"/>
    </linearGradient>
    <linearGradient gradientTransform="matrix(0.0038, 0.0, 0.0, 6.0E-4, 0.0, 64.5)" gradientUnits="userSpaceOnUse" id="gradient18" spreadMethod="pad" x1="-819.2" x2="819.2">
      <stop offset="0.0" stop-color="#594b33"/>
      <stop offset="0.5019607843137255" stop-color="#aea788"/>
      <stop offset="1.0" stop-color="#594b33"/>
    </linearGradient>
    <linearGradient gradientTransform="matrix(0.0027, -0.0031, -0.0027, -0.0024, -0.15, 71.7)" gradientUnits="userSpaceOnUse" id="gradient19" spreadMethod="pad" x1="-819.2" x2="819.2">
      <stop offset="0.0" stop-color="#594b33"/>
      <stop offset="1.0" stop-color="#aea788"/>
    </linearGradient>
    <radialGradient cx="0" cy="0" gradientTransform="matrix(-0.004, 0.0, 0.0, 0.0431, 0.0, 40.0)" gradientUnits="userSpaceOnUse" id="gradient20" r="819.2" spreadMethod="pad">
      <stop offset="0.0" stop-color="#7984a2"/>
      <stop offset="0.9882352941176471" stop-color="#363d4c"/>
    </radialGradient>
    <radialGradient cx="0" cy="0" gradientTransform="matrix(0.004, 0.0, 0.0, 0.0431, 0.0, 40.0)" gradientUnits="userSpaceOnUse" id="gradient21" r="819.2" spreadMethod="pad">
      <stop offset="0.0" stop-color="#7984a2"/>
      <stop offset="0.9882352941176471" stop-color="#363d4c"/>
    </radialGradient>
    <linearGradient gradientTransform="matrix(0.0037, 0.0, 0.0, 0.0016, 0.0, 40.7)" gradientUnits="userSpaceOnUse" id="gradient22" spreadMethod="pad" x1="-819.2" x2="819.2">
      <stop offset="0.0" stop-color="#2c333f"/>
      <stop offset="0.5098039215686274" stop-color="#505870"/>
      <stop offset="1.0" stop-color="#232b32"/>
    </linearGradient>
    <linearGradient gradientTransform="matrix(0.0031, 0.0, 0.0, 7.0E-4, 0.0, 29.1)" gradientUnits="userSpaceOnUse" id="gradient23" spreadMethod="pad" x1="-819.2" x2="819.2">
      <stop offset="0.07450980392156863" stop-color="#1a1c1e" stop-opacity="0.0"/>
      <stop offset="0.3568627450980392" stop-color="#21242c" stop-opacity="0.7607843"/>
      <stop offset="0.4549019607843137" stop-color="#1d2229"/>
      <stop offset="0.5529411764705883" stop-color="#1d2229"/>
      <stop offset="0.6235294117647059" stop-color="#21242c" stop-opacity="0.77254903"/>
      <stop offset="0.8941176470588236" stop-color="#1a1c1e" stop-opacity="0.0"/>
    </linearGradient>
    <linearGradient gradientTransform="matrix(0.0031, 0.0, 0.0, 7.0E-4, 0.0, 29.1)" gradientUnits="userSpaceOnUse" id="gradient24" spreadMethod="pad" x1="-819.2" x2="819.2">
      <stop offset="0.15294117647058825" stop-color="#1a1c1e" stop-opacity="0.0"/>
      <stop offset="0.3568627450980392" stop-color="#21242c" stop-opacity="0.7607843"/>
      <stop offset="0.4549019607843137" stop-color="#1d2229"/>
      <stop offset="0.5529411764705883" stop-color="#1d2229"/>
      <stop offset="0.6235294117647059" stop-color="#21242c" stop-opacity="0.77254903"/>
      <stop offset="0.8941176470588236" stop-color="#1a1c1e" stop-opacity="0.0"/>
    </linearGradient>
    <linearGradient gradientTransform="matrix(0.0031, 0.0, 0.0, 7.0E-4, 0.0, 29.1)" gradientUnits="userSpaceOnUse" id="gradient25" spreadMethod="pad" x1="-819.2" x2="819.2">
      <stop offset="0.07450980392156863" stop-color="#1a1c1e" stop-opacity="0.0"/>
      <stop offset="0.3568627450980392" stop-color="#21242c" stop-opacity="0.7607843"/>
      <stop offset="0.4549019607843137" stop-color="#1d2229"/>
      <stop offset="0.5529411764705883" stop-color="#1d2229"/>
      <stop offset="0.6235294117647059" stop-color="#21242c" stop-opacity="0.77254903"/>
      <stop offset="0.8274509803921568" stop-color="#1a1c1e" stop-opacity="0.0"/>
    </linearGradient>
    <linearGradient gradientTransform="matrix(0.0031, 0.0, 0.0, 7.0E-4, 0.0, 29.1)" gradientUnits="userSpaceOnUse" id="gradient26" spreadMethod="pad" x1="-819.2" x2="819.2">
      <stop offset="0.10196078431372549" stop-color="#1a1c1e" stop-opacity="0.0"/>
      <stop offset="0.3568627450980392" stop-color="#21242c" stop-opacity="0.7607843"/>
      <stop offset="0.4549019607843137" stop-color="#1d2229"/>
      <stop offset="0.5529411764705883" stop-color="#1d2229"/>
      <stop offset="0.6235294117647059" stop-color="#21242c" stop-opacity="0.77254903"/>
      <stop offset="0.8941176470588236" stop-color="#1a1c1e" stop-opacity="0.0"/>
    </linearGradient>
    <linearGradient gradientTransform="matrix(0.0031, 0.0, 0.0, 7.0E-4, 0.0, 29.1)" gradientUnits="userSpaceOnUse" id="gradient27" spreadMethod="pad" x1="-819.2" x2="819.2">
      <stop offset="0.07450980392156863" stop-color="#1a1c1e" stop-opacity="0.0"/>
      <stop offset="0.3568627450980392" stop-color="#21242c" stop-opacity="0.7607843"/>
      <stop offset="0.4549019607843137" stop-color="#1d2229"/>
      <stop offset="0.5529411764705883" stop-color="#1d2229"/>
      <stop offset="0.6235294117647059" stop-color="#21242c" stop-opacity="0.77254903"/>
      <stop offset="0.8627450980392157" stop-color="#1a1c1e" stop-opacity="0.0"/>
    </linearGradient>
    <radialGradient cx="0" cy="0" gradientTransform="matrix(7.0E-4, -0.0012, 0.0076, 0.0042, 5.0, 35.2)" gradientUnits="userSpaceOnUse" id="gradient28" r="819.2" spreadMethod="pad">
      <stop offset="0.0" stop-color="#7984a2"/>
      <stop offset="1.0" stop-color="#30323a"/>
    </radialGradient>
    <radialGradient cx="0" cy="0" gradientTransform="matrix(6.0E-4, -0.0011, 0.003, 0.0016, 5.1, 35.25)" gradientUnits="userSpaceOnUse" id="gradient29" r="819.2" spreadMethod="pad">
      <stop offset="0.0" stop-color="#637387"/>
      <stop offset="0.9803921568627451" stop-color="#1c2024"/>
      <stop offset="1.0" stop-color="#1d2023"/>
    </radialGradient>
    <radialGradient cx="0" cy="0" gradientTransform="matrix(-6.0E-4, -0.0011, -0.003, 0.0016, -5.1, 35.25)" gradientUnits="userSpaceOnUse" id="gradient30" r="819.2" spreadMethod="pad">
      <stop offset="0.0" stop-color="#637387"/>
      <stop offset="1.0" stop-color="#1d2023"/>
    </radialGradient>
    <radialGradient cx="0" cy="0" fx="92.80000000000001" fy="0" gradientTransform="matrix(-7.0E-4, -0.0011, -0.0026, 0.0016, -4.95, 39.35)" gradientUnits="userSpaceOnUse" id="gradient31" r="819.2" spreadMethod="pad">
      <stop offset="0.0" stop-color="#637387"/>
      <stop offset="1.0" stop-color="#1d2023"/>
    </radialGradient>
    <radialGradient cx="0" cy="0" fx="92.80000000000001" fy="0" gradientTransform="matrix(7.0E-4, -0.0011, 0.0026, 0.0016, 4.95, 39.35)" gradientUnits="userSpaceOnUse" id="gradient32" r="819.2" spreadMethod="pad">
      <stop offset="0.0" stop-color="#637387"/>
      <stop offset="1.0" stop-color="#1d2023"/>
    </radialGradient>
    <radialGradient cx="0" cy="0" gradientTransform="matrix(-7.0E-4, -0.0012, -0.0076, 0.0042, -5.0, 35.2)" gradientUnits="userSpaceOnUse" id="gradient33" r="819.2" spreadMethod="pad">
      <stop offset="0.0" stop-color="#7984a2"/>
      <stop offset="1.0" stop-color="#30323a"/>
    </radialGradient>
    <radialGradient cx="0" cy="0" gradientTransform="matrix(-7.0E-4, -0.001, -0.0059, 0.0039, -5.0, 39.25)" gradientUnits="userSpaceOnUse" id="gradient34" r="819.2" spreadMethod="pad">
      <stop offset="0.0" stop-color="#7984a2"/>
      <stop offset="1.0" stop-color="#30323a"/>
    </radialGradient>
    <radialGradient cx="0" cy="0" gradientTransform="matrix(7.0E-4, -0.001, 0.0059, 0.0039, 5.0, 39.25)" gradientUnits="userSpaceOnUse" id="gradient35" r="819.2" spreadMethod="pad">
      <stop offset="0.0" stop-color="#7984a2"/>
      <stop offset="1.0" stop-color="#30323a"/>
    </radialGradient>
  </defs>
</svg>
