<?xml version="1.0" encoding="UTF-8" standalone="no"?>
<svg xmlns:xlink="http://www.w3.org/1999/xlink" height="36.0px" width="256.0px" xmlns="http://www.w3.org/2000/svg">
  <g transform="matrix(1.0, 0.0, 0.0, 1.0, 3.0, 15.0)">
    <path d="M56.0 -12.0 L56.0 -3.0 250.0 -3.0 Q253.0 -3.0 253.0 0.0 L253.0 18.0 Q253.0 21.0 250.0 21.0 L0.0 21.0 Q-3.0 21.0 -3.0 18.0 L-3.0 -12.0 Q-3.0 -15.0 0.0 -15.0 L53.0 -15.0 Q56.0 -15.0 56.0 -12.0 M248.0 1.0 L2.0 1.0 Q1.0 1.0 1.0 2.0 L1.0 16.0 Q1.0 17.0 2.0 17.0 L248.0 17.0 Q249.0 17.0 249.0 16.0 L249.0 2.0 Q249.0 1.0 248.0 1.0" fill="#000000" fill-rule="evenodd" stroke="none"/>
    <path d="M250.0 2.0 Q250.0 0.0 248.0 0.0 L2.0 0.0 Q0.0 0.0 0.0 2.0 L0.0 16.0 Q0.0 18.0 2.0 18.0 L248.0 18.0 Q250.0 18.0 250.0 16.0 L250.0 2.0 M55.0 -12.0 L55.0 -2.0 250.0 -2.0 Q252.0 -2.0 252.0 0.0 L252.0 18.0 Q252.0 20.0 250.0 20.0 L0.0 20.0 Q-2.0 20.0 -2.0 18.0 L-2.0 -12.0 Q-2.0 -14.0 0.0 -14.0 L53.0 -14.0 Q55.0 -14.0 55.0 -12.0" fill="#00ff00" fill-rule="evenodd" stroke="none"/>
  </g>
</svg>
