<?xml version="1.0" encoding="UTF-8" standalone="no"?>
<svg xmlns:xlink="http://www.w3.org/1999/xlink" height="73.0px" width="164.0px" xmlns="http://www.w3.org/2000/svg">
  <g transform="matrix(1.0, 0.0, 0.0, 1.0, 3.0, 15.0)">
    <path d="M49.0 -12.0 L49.0 -3.0 158.0 -3.0 Q161.0 -3.0 161.0 0.0 L161.0 55.0 Q161.0 58.0 158.0 58.0 L0.0 58.0 Q-3.0 58.0 -3.0 55.0 L-3.0 -12.0 Q-3.0 -15.0 0.0 -15.0 L46.0 -15.0 Q49.0 -15.0 49.0 -12.0 M156.0 1.0 L2.0 1.0 Q1.0 1.0 1.0 2.0 L1.0 53.0 Q1.0 54.0 2.0 54.0 L156.0 54.0 Q157.0 54.0 157.0 53.0 L157.0 2.0 Q157.0 1.0 156.0 1.0" fill="#000000" fill-rule="evenodd" stroke="none"/>
    <path d="M158.0 2.0 Q158.0 0.0 156.0 0.0 L2.0 0.0 Q0.0 0.0 0.0 2.0 L0.0 53.0 Q0.0 55.0 2.0 55.0 L156.0 55.0 Q158.0 55.0 158.0 53.0 L158.0 2.0 M48.0 -12.0 L48.0 -2.0 158.0 -2.0 Q160.0 -2.0 160.0 0.0 L160.0 55.0 Q160.0 57.0 158.0 57.0 L0.0 57.0 Q-2.0 57.0 -2.0 55.0 L-2.0 -12.0 Q-2.0 -14.0 0.0 -14.0 L46.0 -14.0 Q48.0 -14.0 48.0 -12.0" fill="#00ff00" fill-rule="evenodd" stroke="none"/>
  </g>
</svg>
