<?xml version="1.0" encoding="UTF-8" standalone="no"?>
<svg xmlns:xlink="http://www.w3.org/1999/xlink" height="86.8px" width="89.2px" xmlns="http://www.w3.org/2000/svg">
  <g transform="matrix(1.0, 0.0, 0.0, 1.0, 44.6, 29.8)">
    <path d="M30.95 -1.6 Q43.75 8.55 43.75 22.7 43.75 36.85 30.95 46.9 18.15 57.0 0.0 57.0 -18.15 57.0 -30.95 46.9 -43.75 36.85 -43.75 22.7 -43.75 8.55 -30.95 -1.6 -18.15 -11.6 0.0 -11.6 18.15 -11.6 30.95 -1.6" fill="url(#gradient0)" fill-rule="evenodd" stroke="none"/>
    <path d="M30.95 -4.6 Q43.75 5.55 43.75 19.7 43.75 33.85 30.95 43.9 18.15 54.0 0.0 54.0 -18.15 54.0 -30.95 43.9 -43.75 33.85 -43.75 19.7 -43.75 5.55 -30.95 -4.6 -18.15 -14.6 0.0 -14.6 18.15 -14.6 30.95 -4.6" fill="url(#gradient1)" fill-rule="evenodd" stroke="none"/>
    <path d="M27.85 -2.05 Q39.35 7.05 39.35 19.8 39.35 32.55 27.85 41.6 16.35 50.65 0.0 50.65 -16.35 50.65 -27.85 41.6 -39.35 32.55 -39.35 19.8 -39.35 7.05 -27.85 -2.05 -16.35 -11.05 0.0 -11.05 16.35 -11.05 27.85 -2.05" fill="url(#gradient2)" fill-rule="evenodd" stroke="none"/>
    <path d="M27.55 40.4 Q34.25 35.1 37.0 28.55 34.05 34.15 28.15 38.8 16.55 47.95 0.0 47.95 -16.55 47.95 -28.15 38.8 -34.15 34.1 -37.05 28.4 -34.35 35.05 -27.55 40.4 -16.15 49.35 0.0 49.35 16.15 49.35 27.55 40.4 M27.55 38.0 Q34.4 32.65 37.1 25.95 34.15 31.65 28.15 36.4 16.55 45.55 0.0 45.55 -16.55 45.55 -28.15 36.4 -34.05 31.75 -36.95 26.15 -34.25 32.75 -27.55 38.0 -16.15 46.95 0.0 46.95 16.15 46.95 27.55 38.0 M37.2 23.2 L39.55 23.2 Q37.9 33.5 28.15 41.2 16.55 50.35 0.0 50.35 -16.55 50.35 -28.15 41.2 -37.9 33.5 -39.5 23.2 L-37.2 23.2 Q-34.55 30.1 -27.55 35.6 -16.15 44.55 0.0 44.55 16.15 44.55 27.55 35.6 34.55 30.1 37.2 23.2" fill="url(#gradient3)" fill-rule="evenodd" stroke="none"/>
    <path d="M-30.15 43.3 Q-31.75 42.7 -31.9 41.3 L-32.25 32.1 -26.6 36.15 -26.55 42.7 Q-28.45 43.95 -30.15 43.3" fill="url(#gradient4)" fill-rule="evenodd" stroke="none"/>
    <path d="M32.4 32.1 L32.05 41.3 Q31.9 42.7 30.3 43.3 28.6 43.95 26.7 42.7 L26.75 36.15 32.4 32.1" fill="url(#gradient5)" fill-rule="evenodd" stroke="none"/>
    <path d="M26.75 38.35 L26.8 34.85 32.45 30.8 32.25 35.2 Q29.8 37.5 26.75 38.35 M-26.6 38.35 Q-29.65 37.5 -32.1 35.2 L-32.3 30.8 -26.65 34.85 -26.6 38.35" fill="#000000" fill-opacity="0.2" fill-rule="evenodd" stroke="none"/>
    <path d="M31.55 -17.55 Q44.6 -6.95 44.6 7.75 44.6 22.45 31.55 32.9 18.5 43.45 0.0 43.45 -18.5 43.45 -31.55 32.9 -44.6 22.45 -44.6 7.75 -44.6 -6.95 -31.55 -17.55 -18.5 -27.95 0.0 -27.95 18.5 -27.95 31.55 -17.55" fill="url(#gradient6)" fill-rule="evenodd" stroke="none"/>
    <path d="M30.95 -19.8 Q43.75 -9.65 43.75 4.5 43.75 18.65 30.95 28.7 18.15 38.8 0.0 38.8 -18.15 38.8 -30.95 28.7 -43.75 18.65 -43.75 4.5 -43.75 -9.65 -30.95 -19.8 -18.15 -29.8 0.0 -29.8 18.15 -29.8 30.95 -19.8" fill="url(#gradient7)" fill-rule="evenodd" stroke="none"/>
    <path d="M10.15 39.25 L0.0 40.0 -10.2 39.25 Q-14.4 38.6 -14.4 37.6 -14.4 36.55 -10.2 35.85 L0.0 35.2 10.15 35.85 Q14.4 36.55 14.4 37.6 14.4 38.6 10.15 39.25" fill="url(#gradient8)" fill-rule="evenodd" stroke="none"/>
    <path d="M30.95 -19.8 Q43.75 -9.65 43.75 4.5 43.75 18.65 30.95 28.7 18.15 38.8 0.0 38.8 -18.15 38.8 -30.95 28.7 -43.75 18.65 -43.75 4.5 -43.75 -9.65 -30.95 -19.8 -18.15 -29.8 0.0 -29.8 18.15 -29.8 30.95 -19.8" fill="url(#gradient9)" fill-rule="evenodd" stroke="none"/>
    <path d="M22.1 -16.1 Q31.25 -8.85 31.25 1.25 31.25 11.35 22.1 18.55 12.95 25.75 0.0 25.75 -12.95 25.75 -22.1 18.55 -31.25 11.35 -31.25 1.25 -31.25 -8.85 -22.1 -16.1 -12.95 -23.25 0.0 -23.25 12.95 -23.25 22.1 -16.1" fill="url(#gradient10)" fill-rule="evenodd" stroke="none"/>
    <path d="M-13.3 -6.1 L-13.35 -6.2 -13.25 -6.2 -13.2 -6.15 -13.25 -6.15 -13.3 -6.1 M-29.35 0.95 L-29.3 1.0 -29.35 1.05 -29.35 1.0 -29.35 0.95" fill="#500505" fill-rule="evenodd" stroke="none"/>
    <path d="M-13.35 -6.2 L-13.3 -6.1 -25.5 -0.4 -25.55 -0.45 -29.3 1.0 -29.35 0.95 Q-23.1 -6.2 -13.35 -6.2" fill="#434343" fill-rule="evenodd" stroke="none"/>
    <path d="M-13.3 8.15 L-13.3 8.2 -13.4 8.25 -13.3 8.15" fill="#6a0606" fill-rule="evenodd" stroke="none"/>
    <path d="M-13.4 8.25 Q-23.35 8.3 -29.35 1.1 L-29.35 1.05 -25.55 -0.45 -16.45 4.1 -16.5 4.1 -13.3 8.15 -13.4 8.25" fill="#4e4e4e" fill-rule="evenodd" stroke="none"/>
    <path d="M-13.25 8.15 L-13.3 8.2 -13.3 8.15 -13.25 8.15 M-9.05 11.55 L-9.15 11.5 -9.05 11.45 -9.05 11.55" fill="#280202" fill-rule="evenodd" stroke="none"/>
    <path d="M-9.05 11.45 Q-7.0 11.2 -5.75 9.95 -4.65 8.85 -4.8 7.75 -5.9 4.4 -10.05 4.9 -12.85 5.6 -13.25 8.15 L-13.3 8.15 -16.5 4.1 -11.05 0.1 -0.75 3.9 -4.6 13.55 -5.15 12.7 -9.05 11.55 -9.05 11.45" fill="#434343" fill-rule="evenodd" stroke="none"/>
    <path d="M-0.05 24.55 L-0.05 24.6 -0.1 24.55 -0.05 24.55" fill="#6a0606" fill-rule="evenodd" stroke="none"/>
    <path d="M-0.1 24.55 Q-8.75 19.9 -9.15 11.55 L-9.15 11.5 -5.15 12.7 0.05 20.5 -0.05 20.65 -0.05 24.55 -0.1 24.55" fill="#4e4e4e" fill-rule="evenodd" stroke="none"/>
    <path d="M29.6 1.15 Q23.6 8.35 13.6 8.3 L13.5 8.25 13.45 8.2 16.5 3.85 24.55 -0.7 29.65 1.05 29.6 1.05 29.6 1.15" fill="#4e4e4e" fill-rule="evenodd" stroke="none"/>
    <path d="M0.1 24.45 L0.05 24.55 0.0 24.6 -0.05 24.6 -0.05 24.45 0.1 24.45" fill="#c02121" fill-rule="evenodd" stroke="none"/>
    <path d="M-0.05 24.45 L-0.05 20.65 3.65 12.8 9.35 11.55 9.35 11.6 Q8.95 19.95 0.3 24.55 L0.2 24.6 0.15 24.55 0.1 24.45 0.1 23.4 0.1 24.45 -0.05 24.45" fill="#757575" fill-rule="evenodd" stroke="none"/>
    <path d="M10.25 4.95 Q6.1 4.45 5.0 7.8 4.85 8.9 5.95 10.0 7.2 11.25 9.25 11.5 L9.35 11.55 3.65 12.8 1.25 4.7 9.05 -0.1 16.6 3.8 16.5 3.85 13.45 8.2 Q13.05 5.65 10.25 4.95" fill="#434343" fill-rule="evenodd" stroke="none"/>
    <path d="M24.35 -0.8 L13.55 -6.15 Q23.35 -6.15 29.6 1.0 L29.65 1.05 24.35 -0.8" fill="#434343" fill-rule="evenodd" stroke="none"/>
    <path d="M13.4 -6.05 L13.45 -6.15 13.5 -6.15 13.55 -6.15 13.4 -6.05" fill="#280202" fill-rule="evenodd" stroke="none"/>
    <path d="M13.55 -6.15 L16.7 -4.6 5.65 0.55 1.3 -6.7 5.1 -14.35 9.25 -9.2 9.15 -9.15 Q5.2 -8.95 4.9 -5.95 5.05 -4.5 6.4 -3.6 7.8 -2.75 9.7 -2.75 12.95 -3.4 13.4 -6.05 L13.55 -6.15" fill="#434343" fill-rule="evenodd" stroke="none"/>
    <path d="M-8.95 -9.2 L-9.05 -9.25 -9.0 -9.3 -8.95 -9.2" fill="#280202" fill-rule="evenodd" stroke="none"/>
    <path d="M-9.0 -9.3 L-3.15 -16.6 -1.0 -6.65 -7.3 0.25 -16.9 -4.4 -13.2 -6.15 -13.2 -6.1 Q-12.75 -3.45 -9.5 -2.8 -7.6 -2.8 -6.2 -3.65 -4.85 -4.55 -4.7 -6.0 -5.0 -9.0 -8.95 -9.2 L-9.0 -9.3" fill="#434343" fill-rule="evenodd" stroke="none"/>
    <path d="M0.05 -21.9 L0.05 -20.6 -9.05 -9.25 -9.05 -9.35 Q-8.85 -17.15 0.0 -21.9 L0.05 -21.9" fill="#4e4e4e" fill-rule="evenodd" stroke="none"/>
    <path d="M0.1 -21.9 L0.15 -21.85 0.2 -21.85 Q9.05 -17.1 9.25 -9.3 L9.25 -9.2 0.05 -20.55 0.05 -20.6 0.05 -21.9 0.1 -21.9" fill="#606060" fill-rule="evenodd" stroke="none"/>
    <path d="M0.1 -20.55 Q5.35 -17.9 6.75 -12.35 L6.75 -12.3 6.7 -12.2 Q3.1 -10.95 2.5 -8.35 2.05 -6.1 3.9 -4.15 L3.95 -4.1 Q6.0 -2.2 8.95 -2.15 12.45 -2.2 15.5 -5.15 L15.6 -5.15 Q22.05 -4.65 26.3 -0.25 L26.3 -0.2 26.3 -0.1 Q22.05 4.2 15.8 5.0 L15.75 5.0 15.7 4.95 Q13.75 2.0 10.3 1.6 7.35 1.25 4.75 2.9 2.35 4.6 2.4 7.05 2.65 9.85 6.6 12.1 L6.65 12.15 6.65 12.25 Q5.85 17.05 0.3 20.75 0.15 20.85 -0.05 20.9 L-0.1 20.95 -0.45 20.75 Q-5.85 17.1 -6.7 12.3 L-6.7 12.2 -6.65 12.15 Q-2.7 9.9 -2.45 7.1 -2.35 4.65 -4.8 2.95 -7.4 1.3 -10.35 1.65 -13.8 2.05 -15.75 5.0 L-15.8 5.05 -15.85 5.05 Q-22.05 4.25 -26.35 -0.05 L-26.35 -0.15 -26.35 -0.2 Q-22.1 -4.6 -15.65 -5.1 L-15.6 -5.1 -15.55 -5.1 Q-12.45 -2.15 -9.0 -2.1 -6.0 -2.15 -4.0 -4.05 L-3.95 -4.1 Q-2.1 -6.05 -2.55 -8.3 -3.15 -10.9 -6.75 -12.15 L-6.8 -12.25 -6.8 -12.3 Q-5.35 -17.85 -0.15 -20.5 L-0.05 -20.5 0.0 -20.55 0.1 -20.55" fill="url(#gradient11)" fill-rule="evenodd" stroke="none"/>
    <path d="M0.1 -20.55 Q5.35 -17.9 6.75 -12.35 L6.75 -12.3 6.7 -12.2 Q3.1 -10.95 2.5 -8.35 2.05 -6.1 3.9 -4.15 L3.95 -4.1 Q6.0 -2.2 8.95 -2.15 12.45 -2.2 15.5 -5.15 L15.6 -5.15 Q22.05 -4.65 26.3 -0.25 L26.3 -0.2 26.3 -0.1 Q22.05 4.2 15.8 5.0 L15.75 5.0 15.7 4.95 Q13.75 2.0 10.3 1.6 7.35 1.25 4.75 2.9 2.35 4.6 2.4 7.05 2.65 9.85 6.6 12.1 L6.65 12.15 6.65 12.25 Q5.85 17.05 0.3 20.75 0.15 20.85 -0.05 20.9 L-0.1 20.95 -0.45 20.75 Q-5.85 17.1 -6.7 12.3 L-6.7 12.2 -6.65 12.15 Q-2.7 9.9 -2.45 7.1 -2.35 4.65 -4.8 2.95 -7.4 1.3 -10.35 1.65 -13.8 2.05 -15.75 5.0 L-15.8 5.05 -15.85 5.05 Q-22.05 4.25 -26.35 -0.05 L-26.35 -0.15 -26.35 -0.2 Q-22.1 -4.6 -15.65 -5.1 L-15.6 -5.1 -15.55 -5.1 Q-12.45 -2.15 -9.0 -2.1 -6.0 -2.15 -4.0 -4.05 L-3.95 -4.1 Q-2.1 -6.05 -2.55 -8.3 -3.15 -10.9 -6.75 -12.15 L-6.8 -12.25 -6.8 -12.3 Q-5.35 -17.85 -0.15 -20.5 L-0.05 -20.5 0.0 -20.55 0.1 -20.55" fill="url(#gradient12)" fill-rule="evenodd" stroke="none"/>
    <path d="M-17.2 19.1 Q-17.3 20.75 -18.15 21.8 -20.15 24.3 -22.9 24.3 -25.05 24.3 -26.55 23.05 -27.95 21.9 -28.15 20.15 -28.5 16.7 -25.15 14.85 -23.15 14.05 -21.2 14.45 -19.3 14.85 -18.0 16.35 -17.15 17.35 -17.2 19.1" fill="url(#gradient13)" fill-rule="evenodd" stroke="none"/>
    <path d="M20.1 -12.25 Q18.05 -13.1 17.2 -14.7 16.75 -15.45 16.7 -16.1 16.4 -18.0 17.85 -19.15 19.1 -20.15 21.05 -20.0 L21.1 -20.0 Q23.25 -19.75 24.7 -19.05 25.95 -18.5 26.75 -17.35 27.45 -16.3 27.45 -15.3 27.45 -14.4 26.95 -13.65 26.35 -12.8 25.4 -12.4 24.25 -11.95 22.9 -11.85 L20.1 -12.25" fill="url(#gradient14)" fill-rule="evenodd" stroke="none"/>
    <path d="M-17.95 16.65 Q-16.9 18.15 -17.3 19.7 -18.4 17.8 -19.65 17.0 -20.9 16.25 -22.75 16.3 -24.9 16.45 -26.1 17.35 -27.3 18.2 -28.05 20.15 -28.2 16.65 -25.1 14.95 -21.15 13.35 -17.95 16.65 M21.05 -19.9 Q23.2 -19.6 24.65 -18.95 21.75 -19.1 19.55 -18.35 18.7 -18.05 18.05 -17.15 17.35 -16.2 17.25 -15.2 L17.2 -15.25 16.8 -16.15 Q16.55 -18.0 17.9 -19.05 19.15 -20.0 21.05 -19.9" fill="#81643f" fill-rule="evenodd" stroke="none"/>
    <path d="M-22.6 23.2 Q-24.1 23.2 -25.2 22.3 -26.25 21.4 -26.25 20.1 -26.25 18.8 -25.2 17.9 -24.1 17.0 -22.6 17.0 -21.1 17.0 -20.05 17.9 -18.95 18.8 -18.95 20.1 -18.95 21.4 -20.05 22.3 -21.1 23.2 -22.6 23.2" fill="url(#gradient15)" fill-rule="evenodd" stroke="none"/>
    <path d="M19.65 -17.35 Q20.7 -18.2 22.15 -18.2 23.6 -18.2 24.65 -17.35 25.7 -16.45 25.7 -15.2 25.7 -13.95 24.65 -13.1 23.6 -12.2 22.15 -12.2 20.7 -12.2 19.65 -13.1 18.6 -13.95 18.6 -15.2 18.6 -16.45 19.65 -17.35" fill="url(#gradient16)" fill-rule="evenodd" stroke="none"/>
  </g>
  <defs>
    <radialGradient cx="0" cy="0" fx="-1113.6000000000001" fy="0" gradientTransform="matrix(0.0, -0.0454, 0.0583, 0.0, 0.0, 22.0)" gradientUnits="userSpaceOnUse" id="gradient0" r="819.2" spreadMethod="pad">
      <stop offset="0.592156862745098" stop-color="#597b91"/>
      <stop offset="0.9058823529411765" stop-color="#202f35"/>
    </radialGradient>
    <radialGradient cx="0" cy="0" fx="25.6" fy="0" gradientTransform="matrix(0.0, -0.0683, 0.0797, 0.0, 0.0, 46.0)" gradientUnits="userSpaceOnUse" id="gradient1" r="819.2" spreadMethod="pad">
      <stop offset="0.0" stop-color="#3d4b58"/>
      <stop offset="0.8196078431372549" stop-color="#1c3440"/>
      <stop offset="1.0" stop-color="#2b4055"/>
    </radialGradient>
    <linearGradient gradientTransform="matrix(0.0488, 0.0, 0.0, 0.0377, 0.0, 19.8)" gradientUnits="userSpaceOnUse" id="gradient2" spreadMethod="pad" x1="-819.2" x2="819.2">
      <stop offset="0.11372549019607843" stop-color="#694516"/>
      <stop offset="0.49019607843137253" stop-color="#eed795"/>
      <stop offset="0.8823529411764706" stop-color="#694516"/>
    </linearGradient>
    <linearGradient gradientTransform="matrix(0.0488, 0.0, 0.0, 0.0166, 0.0, 36.75)" gradientUnits="userSpaceOnUse" id="gradient3" spreadMethod="pad" x1="-819.2" x2="819.2">
      <stop offset="0.11372549019607843" stop-color="#694516"/>
      <stop offset="0.5058823529411764" stop-color="#9c6d20"/>
      <stop offset="0.8823529411764706" stop-color="#694516"/>
    </linearGradient>
    <linearGradient gradientTransform="matrix(-0.0036, 1.0E-4, -3.0E-4, -0.0073, -29.3, 38.8)" gradientUnits="userSpaceOnUse" id="gradient4" spreadMethod="pad" x1="-819.2" x2="819.2">
      <stop offset="0.0" stop-color="#555555"/>
      <stop offset="0.6862745098039216" stop-color="#6d6d6d"/>
      <stop offset="1.0" stop-color="#404040"/>
    </linearGradient>
    <linearGradient gradientTransform="matrix(0.0037, 0.0, 1.0E-4, -0.0073, 29.5, 38.8)" gradientUnits="userSpaceOnUse" id="gradient5" spreadMethod="pad" x1="-819.2" x2="819.2">
      <stop offset="0.0" stop-color="#555555"/>
      <stop offset="0.6862745098039216" stop-color="#6d6d6d"/>
      <stop offset="1.0" stop-color="#404040"/>
    </linearGradient>
    <radialGradient cx="0" cy="0" fx="-1049.6000000000001" fy="0" gradientTransform="matrix(0.0, -0.0439, 0.0629, 0.0, 0.0, 8.0)" gradientUnits="userSpaceOnUse" id="gradient6" r="819.2" spreadMethod="pad">
      <stop offset="0.596078431372549" stop-color="#526a83"/>
      <stop offset="0.9058823529411765" stop-color="#1b252c"/>
    </radialGradient>
    <radialGradient cx="0" cy="0" fx="25.6" fy="0" gradientTransform="matrix(0.0, -0.0683, 0.0797, 0.0, 0.0, 25.75)" gradientUnits="userSpaceOnUse" id="gradient7" r="819.2" spreadMethod="pad">
      <stop offset="0.0" stop-color="#60869f"/>
      <stop offset="0.0196078431372549" stop-color="#5f849d"/>
      <stop offset="0.8313725490196079" stop-color="#1d2b38"/>
      <stop offset="1.0" stop-color="#4f6b86"/>
    </radialGradient>
    <radialGradient cx="0" cy="0" fx="-1267.2" fy="0" gradientTransform="matrix(0.0, -0.0029, 0.0167, 0.0, 0.0, 37.6)" gradientUnits="userSpaceOnUse" id="gradient8" r="819.2" spreadMethod="pad">
      <stop offset="0.0" stop-color="#ffffff" stop-opacity="0.3137255"/>
      <stop offset="1.0" stop-color="#ffffff" stop-opacity="0.0"/>
    </radialGradient>
    <radialGradient cx="0" cy="0" gradientTransform="matrix(0.029, 0.0, 0.0, 0.0243, 1.0, -27.5)" gradientUnits="userSpaceOnUse" id="gradient9" r="819.2" spreadMethod="pad">
      <stop offset="0.0" stop-color="#ffffff" stop-opacity="0.5019608"/>
      <stop offset="1.0" stop-color="#ffffff" stop-opacity="0.0"/>
    </radialGradient>
    <linearGradient gradientTransform="matrix(0.0, -0.0314, 0.0299, 0.0, 0.0, 1.25)" gradientUnits="userSpaceOnUse" id="gradient10" spreadMethod="pad" x1="-819.2" x2="819.2">
      <stop offset="0.0" stop-color="#88a8b7"/>
      <stop offset="0.7803921568627451" stop-color="#45606b"/>
      <stop offset="1.0" stop-color="#597591"/>
    </linearGradient>
    <linearGradient gradientTransform="matrix(-1.0E-4, -0.0272, 0.0254, -1.0E-4, -0.1, 0.2)" gradientUnits="userSpaceOnUse" id="gradient11" spreadMethod="pad" x1="-819.2" x2="819.2">
      <stop offset="0.0" stop-color="#cacaca"/>
      <stop offset="0.09803921568627451" stop-color="#b5b5b5"/>
      <stop offset="0.7215686274509804" stop-color="#6a6a6a"/>
      <stop offset="1.0" stop-color="#989898"/>
    </linearGradient>
    <radialGradient cx="0" cy="0" gradientTransform="matrix(0.0107, 0.0, 0.0, 0.0121, -0.25, 19.7)" gradientUnits="userSpaceOnUse" id="gradient12" r="819.2" spreadMethod="pad">
      <stop offset="0.0" stop-color="#ffffff" stop-opacity="0.3019608"/>
      <stop offset="1.0" stop-color="#ffffff" stop-opacity="0.0"/>
    </radialGradient>
    <linearGradient gradientTransform="matrix(0.0067, 0.0, 0.0, 0.0061, -22.7, 19.3)" gradientUnits="userSpaceOnUse" id="gradient13" spreadMethod="pad" x1="-819.2" x2="819.2">
      <stop offset="0.0" stop-color="#b49661"/>
      <stop offset="1.0" stop-color="#c0a47e"/>
    </linearGradient>
    <linearGradient gradientTransform="matrix(-0.0066, 0.0018, -0.0013, -0.0047, 21.95, -16.15)" gradientUnits="userSpaceOnUse" id="gradient14" spreadMethod="pad" x1="-819.2" x2="819.2">
      <stop offset="0.0" stop-color="#b59763"/>
      <stop offset="1.0" stop-color="#81643f"/>
    </linearGradient>
    <radialGradient cx="0" cy="0" gradientTransform="matrix(0.0045, 0.0, 0.0, 0.0045, -22.05, 20.0)" gradientUnits="userSpaceOnUse" id="gradient15" r="819.2" spreadMethod="pad">
      <stop offset="0.0" stop-color="#ded3b6"/>
      <stop offset="0.1843137254901961" stop-color="#c9b98b"/>
      <stop offset="0.7803921568627451" stop-color="#85773a"/>
      <stop offset="0.9686274509803922" stop-color="#766534"/>
    </radialGradient>
    <radialGradient cx="0" cy="0" gradientTransform="matrix(0.0045, 0.0, 0.0, 0.0045, 22.55, -15.6)" gradientUnits="userSpaceOnUse" id="gradient16" r="819.2" spreadMethod="pad">
      <stop offset="0.0" stop-color="#dcd0b2"/>
      <stop offset="0.18823529411764706" stop-color="#baab79"/>
      <stop offset="0.7803921568627451" stop-color="#82713e"/>
      <stop offset="0.9686274509803922" stop-color="#66582f"/>
    </radialGradient>
  </defs>
</svg>
