<?xml version="1.0" encoding="UTF-8" standalone="no"?>
<svg xmlns:xlink="http://www.w3.org/1999/xlink" height="169.0px" width="25.0px" xmlns="http://www.w3.org/2000/svg">
  <g transform="matrix(1.0, 0.0, 0.0, 1.0, 12.5, 85.5)">
    <path d="M10.45 -73.95 Q8.45 -71.5 8.35 -35.15 8.3 4.85 12.45 24.5 12.6 25.25 12.35 25.95 L12.35 25.9 11.5 27.05 11.45 27.05 Q10.85 27.5 10.1 27.5 L8.9 27.75 8.9 28.5 10.9 30.35 10.9 30.4 Q11.4 30.95 11.5 31.7 L11.5 31.75 Q11.55 32.5 11.2 33.2 L11.2 33.25 11.1 33.4 11.2 33.7 11.2 33.75 Q11.55 34.6 11.3 35.5 L11.3 35.45 Q11.0 36.35 10.25 36.85 L10.2 36.85 8.5 37.15 7.5 37.0 6.8 37.4 6.5 37.45 6.2 37.5 6.05 37.85 Q5.7 38.75 5.6 40.05 L5.6 40.15 5.5 45.6 Q6.5 46.6 6.5 48.0 6.5 49.4 5.5 50.45 L5.5 64.6 Q6.5 65.6 6.5 67.0 6.5 68.3 5.65 69.25 L5.95 71.4 6.5 72.6 6.5 72.65 6.35 73.85 8.6 76.1 8.6 76.05 Q9.25 76.75 9.35 77.7 9.4 78.65 8.8 79.4 L8.15 80.1 8.1 80.15 8.15 80.15 Q4.8 83.5 0.0 83.5 -4.8 83.5 -8.15 80.1 L-8.15 80.15 -8.75 79.45 Q-9.4 78.7 -9.35 77.75 L-9.35 77.7 Q-9.3 76.75 -8.6 76.1 L-6.35 73.9 -6.45 72.65 -6.45 72.6 Q-6.35 71.9 -5.9 71.4 L-5.65 69.25 Q-6.5 68.3 -6.5 67.0 -6.5 65.6 -5.5 64.6 L-5.5 50.45 Q-6.5 49.4 -6.5 48.0 -6.5 46.6 -5.5 45.6 L-5.6 40.15 -5.6 40.05 -6.0 37.9 -6.3 37.7 -6.55 37.45 -6.75 37.4 -7.5 37.0 -8.45 37.15 -10.15 36.85 -10.2 36.85 Q-11.0 36.35 -11.25 35.45 L-11.25 35.5 Q-11.55 34.6 -11.2 33.75 L-11.2 33.7 -11.05 33.4 -11.15 33.25 -11.2 33.2 Q-11.55 32.5 -11.5 31.75 L-11.5 31.7 Q-11.4 30.95 -10.9 30.4 L-10.85 30.35 -8.9 28.5 -8.85 27.7 -10.05 27.5 -11.45 27.05 -12.3 25.9 -12.3 25.95 -12.45 24.5 Q-8.3 4.85 -8.35 -35.15 -8.45 -71.5 -10.45 -73.95 -11.1 -74.4 -11.35 -75.15 L-11.35 -75.2 Q-11.6 -75.95 -11.4 -76.65 L-11.35 -76.75 Q-10.3 -80.4 -7.1 -82.9 L-7.05 -82.9 Q-3.85 -85.45 -0.05 -85.5 L0.05 -85.5 Q3.85 -85.45 7.1 -82.9 10.3 -80.4 11.4 -76.75 L11.4 -76.65 Q11.6 -75.95 11.4 -75.2 L11.4 -75.15 Q11.1 -74.4 10.45 -73.95" fill="#000000" fill-rule="evenodd" stroke="none"/>
    <path d="M6.35 78.35 Q3.75 81.0 0.0 81.0 -3.75 81.0 -6.4 78.35 L-6.85 77.85 -4.0 75.05 -3.55 75.55 Q-2.45 76.65 -1.0 76.9 L-1.0 77.0 -0.7 77.7 0.0 78.0 0.7 77.7 1.0 77.0 1.0 76.9 Q2.4 76.65 3.5 75.55 L4.0 75.0 6.85 77.85 6.35 78.35" fill="url(#gradient0)" fill-rule="evenodd" stroke="none"/>
    <path d="M2.0 75.0 Q1.95 76.75 1.4 77.85 0.8 79.0 0.0 79.0 -0.8 79.0 -1.4 77.85 -1.95 76.75 -2.0 75.0 L0.0 75.0 2.0 75.0" fill="url(#gradient1)" fill-rule="evenodd" stroke="none"/>
    <path d="M3.0 75.0 L-3.0 75.0 -4.0 73.0 4.0 73.0 3.0 75.0" fill="url(#gradient2)" fill-rule="evenodd" stroke="none"/>
    <path d="M0.0 49.0 L3.0 49.0 3.0 65.95 3.05 67.0 -3.0 67.0 -3.0 65.95 -3.0 49.0 0.0 49.0" fill="url(#gradient3)" fill-rule="evenodd" stroke="none"/>
    <path d="M3.05 67.0 L3.15 69.0 -3.1 69.0 -3.0 67.0 3.05 67.0" fill="url(#gradient4)" fill-rule="evenodd" stroke="none"/>
    <path d="M4.0 73.0 L0.0 73.0 -4.0 73.0 Q-3.35 72.3 -3.1 69.0 L3.15 69.0 Q3.35 72.3 4.0 73.0" fill="url(#gradient5)" fill-rule="evenodd" stroke="none"/>
    <path d="M3.0 66.0 Q3.4 66.0 3.7 66.3 L4.0 67.0 3.7 67.7 3.0 68.0 -3.0 68.0 -3.7 67.7 -4.0 67.0 -3.7 66.3 Q-3.4 66.0 -3.0 66.0 L3.0 66.0" fill="url(#gradient6)" fill-rule="evenodd" stroke="none"/>
    <path d="M3.0 47.0 Q3.4 47.0 3.7 47.3 L4.0 48.0 3.7 48.7 3.0 49.0 -3.0 49.0 -3.7 48.7 -4.0 48.0 -3.7 47.3 Q-3.4 47.0 -3.0 47.0 L3.0 47.0" fill="url(#gradient7)" fill-rule="evenodd" stroke="none"/>
    <path d="M5.55 -80.95 Q8.15 -78.95 9.0 -76.0 6.8 -75.7 5.0 -75.0 L-5.0 -75.0 Q-6.8 -75.7 -9.0 -76.0 -8.15 -78.95 -5.55 -80.95 -3.0 -82.95 0.0 -83.0 3.0 -82.95 5.55 -80.95" fill="url(#gradient8)" fill-rule="evenodd" stroke="none"/>
    <path d="M-5.0 -75.0 L0.0 -75.0 0.0 23.0 -6.0 23.0 Q-8.55 23.0 -10.0 25.0 -5.8 5.2 -5.85 -35.15 -5.95 -73.9 -9.0 -76.0 -6.8 -75.7 -5.0 -75.0" fill="url(#gradient9)" fill-rule="evenodd" stroke="none"/>
    <path d="M0.0 -75.0 L5.0 -75.0 Q6.8 -75.7 9.0 -76.0 5.95 -73.9 5.85 -35.15 5.8 5.2 10.0 25.0 8.55 23.0 6.0 23.0 L0.0 23.0 0.0 -75.0" fill="url(#gradient10)" fill-rule="evenodd" stroke="none"/>
    <path d="M0.0 31.0 L-7.0 31.0 Q-5.85 27.8 -6.7 26.35 -7.45 25.1 -10.0 25.0 -8.55 23.0 -6.0 23.0 L0.0 23.0 0.0 31.0" fill="url(#gradient11)" fill-rule="evenodd" stroke="none"/>
    <path d="M0.0 23.0 L6.0 23.0 Q8.55 23.0 10.0 25.0 7.45 25.1 6.7 26.35 5.85 27.8 7.0 31.0 L0.0 31.0 0.0 23.0" fill="url(#gradient12)" fill-rule="evenodd" stroke="none"/>
    <path d="M0.0 -79.0 Q1.1 -78.9 2.6 -77.9 4.5 -76.65 5.0 -75.0 3.85 -71.55 3.4 -61.5 3.05 -53.25 3.0 -35.0 2.9 5.5 6.0 23.0 4.35 23.3 3.65 24.55 3.2 25.25 2.95 26.45 2.7 27.8 3.0 29.0 L0.0 29.0 -3.0 29.0 Q-2.7 27.8 -2.95 26.45 -3.2 25.25 -3.65 24.55 -4.35 23.3 -6.0 23.0 -2.9 5.5 -3.0 -35.0 -3.05 -53.25 -3.4 -61.5 -3.85 -71.55 -5.0 -75.0 -4.5 -76.65 -2.6 -77.9 -1.1 -78.9 0.0 -79.0" fill="url(#gradient13)" fill-rule="evenodd" stroke="none"/>
    <path d="M2.05 -77.05 Q3.45 -76.15 3.95 -74.95 2.85 -71.3 2.4 -61.55 2.05 -53.3 2.0 -35.0 1.9 4.6 4.85 22.3 3.5 22.8 2.8 24.0 2.25 24.85 1.95 26.25 1.75 27.4 2.0 30.0 L-2.0 30.0 Q-1.75 27.4 -1.95 26.25 -2.25 24.8 -2.85 24.0 L-2.8 24.05 Q-3.45 22.8 -4.85 22.3 -1.9 4.6 -2.0 -35.0 -2.05 -53.3 -2.4 -61.55 -2.85 -71.3 -3.95 -74.95 -3.45 -76.15 -2.05 -77.05 L0.0 -78.0 Q0.9 -77.85 2.05 -77.05" fill="url(#gradient14)" fill-rule="evenodd" stroke="none"/>
    <path d="M0.0 30.0 L-4.0 30.0 Q-1.5 26.8 -1.2 24.55 -1.0 22.95 -2.0 21.0 L0.0 20.0 0.0 30.0" fill="url(#gradient15)" fill-rule="evenodd" stroke="none"/>
    <path d="M0.0 20.0 L-2.0 21.0 0.0 11.0 0.0 20.0" fill="url(#gradient16)" fill-rule="evenodd" stroke="none"/>
    <path d="M1.2 24.55 Q1.5 26.8 4.0 30.0 L0.0 30.0 0.0 20.0 2.0 21.0 Q1.0 22.95 1.2 24.55" fill="url(#gradient17)" fill-rule="evenodd" stroke="none"/>
    <path d="M0.0 11.0 L2.0 21.0 0.0 20.0 0.0 11.0" fill="url(#gradient18)" fill-rule="evenodd" stroke="none"/>
    <path d="M5.95 34.2 L7.65 31.85 8.9 34.7 5.95 34.2" fill="url(#gradient19)" fill-rule="evenodd" stroke="none"/>
    <path d="M-5.95 34.2 L-8.9 34.7 -7.65 31.85 -5.95 34.2" fill="url(#gradient20)" fill-rule="evenodd" stroke="none"/>
    <path d="M5.0 35.0 Q3.4 36.35 3.1 39.85 L3.0 47.0 0.0 47.0 -3.0 47.0 -3.1 39.85 Q-3.4 36.35 -5.0 35.0 L0.0 33.0 5.0 35.0" fill="url(#gradient21)" fill-rule="evenodd" stroke="none"/>
    <path d="M5.8 34.75 L4.6 35.8 Q2.45 34.1 0.0 34.0 -2.4 34.05 -4.6 35.85 L-5.8 34.75 Q-5.0 32.8 -3.4 31.5 -1.8 30.25 0.0 30.0 1.8 30.25 3.4 31.55 5.0 32.85 5.8 34.75" fill="url(#gradient22)" fill-rule="evenodd" stroke="none"/>
    <path d="M0.0 31.45 Q-2.2 31.45 -3.3 33.0 L-4.0 31.0 4.0 31.0 3.35 33.0 Q2.2 31.45 0.0 31.45" fill="#000000" fill-opacity="0.8" fill-rule="evenodd" stroke="none"/>
    <path d="M5.3 29.2 Q7.5 30.25 9.0 32.0 8.1 32.45 7.35 33.3 L6.0 35.0 Q5.4 34.15 3.7 33.2 L3.35 33.0 2.0 31.0 0.0 31.0 -2.0 31.0 -3.3 33.0 -3.7 33.2 Q-5.4 34.15 -6.0 35.0 L-7.35 33.3 Q-8.1 32.45 -9.0 32.0 -7.5 30.25 -5.3 29.2 -2.85 28.0 0.0 28.0 2.85 28.0 5.3 29.2" fill="url(#gradient23)" fill-rule="evenodd" stroke="none"/>
    <path d="M1.0 34.0 L0.75 38.1 Q0.55 39.5 0.0 40.0 -0.55 39.5 -0.75 38.1 L-1.0 34.0 -0.7 33.3 Q-0.45 33.0 0.0 33.0 0.45 33.0 0.75 33.3 L1.0 34.0" fill="url(#gradient24)" fill-rule="evenodd" stroke="none"/>
    <path d="M2.0 76.0 L-2.0 76.0 -2.0 75.0 2.0 75.0 2.0 76.0 M3.0 50.0 L-3.0 50.0 -3.0 49.0 3.0 49.0 3.0 50.0" fill="#000000" fill-opacity="0.2509804" fill-rule="evenodd" stroke="none"/>
    <path d="M4.0 69.0 L-4.0 69.0 -4.0 68.0 4.0 68.0 4.0 69.0" fill="#000000" fill-opacity="0.101960786" fill-rule="evenodd" stroke="none"/>
  </g>
  <defs>
    <radialGradient cx="0" cy="0" gradientTransform="matrix(0.0097, 0.0, 0.0, 0.0097, -0.05, 80.95)" gradientUnits="userSpaceOnUse" id="gradient0" r="819.2" spreadMethod="pad">
      <stop offset="0.01568627450980392" stop-color="#f4f4f4"/>
      <stop offset="0.49019607843137253" stop-color="#a9b2bf"/>
      <stop offset="0.7843137254901961" stop-color="#595f66"/>
      <stop offset="1.0" stop-color="#4f545d"/>
    </radialGradient>
    <radialGradient cx="0" cy="0" fx="-1430.4" fy="0" gradientTransform="matrix(0.0, -0.0087, 0.0027, 0.0, -0.05, 74.95)" gradientUnits="userSpaceOnUse" id="gradient1" r="819.2" spreadMethod="pad">
      <stop offset="0.08627450980392157" stop-color="#edeff2"/>
      <stop offset="0.49019607843137253" stop-color="#b4bbc7"/>
      <stop offset="0.796078431372549" stop-color="#60666c"/>
      <stop offset="0.9529411764705882" stop-color="#788187"/>
    </radialGradient>
    <linearGradient gradientTransform="matrix(0.0049, 0.0, 0.0, 0.0012, 0.0, 74.0)" gradientUnits="userSpaceOnUse" id="gradient2" spreadMethod="pad" x1="-819.2" x2="819.2">
      <stop offset="0.0" stop-color="#1b2025"/>
      <stop offset="0.1843137254901961" stop-color="#1b2026"/>
      <stop offset="0.3568627450980392" stop-color="#353d4a"/>
      <stop offset="0.4549019607843137" stop-color="#414c5d"/>
      <stop offset="0.5411764705882353" stop-color="#414c5d"/>
      <stop offset="0.6509803921568628" stop-color="#353d4a"/>
      <stop offset="0.8313725490196079" stop-color="#1b2026"/>
      <stop offset="1.0" stop-color="#1b2025"/>
    </linearGradient>
    <linearGradient gradientTransform="matrix(0.0039, 0.0, 0.0, 0.011, 0.0, 58.0)" gradientUnits="userSpaceOnUse" id="gradient3" spreadMethod="pad" x1="-819.2" x2="819.2">
      <stop offset="0.0" stop-color="#61434b"/>
      <stop offset="0.11764705882352941" stop-color="#322326"/>
      <stop offset="0.27058823529411763" stop-color="#4e363c"/>
      <stop offset="0.4588235294117647" stop-color="#734f58"/>
      <stop offset="0.5568627450980392" stop-color="#734f58"/>
      <stop offset="0.7176470588235294" stop-color="#4e363c"/>
      <stop offset="0.8784313725490196" stop-color="#322326"/>
      <stop offset="1.0" stop-color="#61434b"/>
    </linearGradient>
    <linearGradient gradientTransform="matrix(0.0038, 0.0, 0.0, 0.0012, 0.0, 68.0)" gradientUnits="userSpaceOnUse" id="gradient4" spreadMethod="pad" x1="-819.2" x2="819.2">
      <stop offset="0.0" stop-color="#8f8052"/>
      <stop offset="0.11372549019607843" stop-color="#5f5535"/>
      <stop offset="0.23529411764705882" stop-color="#7e7147"/>
      <stop offset="0.3176470588235294" stop-color="#ad9e74"/>
      <stop offset="0.4549019607843137" stop-color="#f4e7c1"/>
      <stop offset="0.5607843137254902" stop-color="#f4e7c1"/>
      <stop offset="0.6823529411764706" stop-color="#ad9e74"/>
      <stop offset="0.7647058823529411" stop-color="#7e7147"/>
      <stop offset="0.8823529411764706" stop-color="#5f5535"/>
      <stop offset="1.0" stop-color="#8f8052"/>
    </linearGradient>
    <linearGradient gradientTransform="matrix(0.0049, 0.0, 0.0, 0.0024, 0.0, 71.0)" gradientUnits="userSpaceOnUse" id="gradient5" spreadMethod="pad" x1="-819.2" x2="819.2">
      <stop offset="0.0" stop-color="#2f3642"/>
      <stop offset="0.1843137254901961" stop-color="#272d38"/>
      <stop offset="0.28627450980392155" stop-color="#394553"/>
      <stop offset="0.4235294117647059" stop-color="#677993"/>
      <stop offset="0.5882352941176471" stop-color="#677993"/>
      <stop offset="0.7176470588235294" stop-color="#394553"/>
      <stop offset="0.8313725490196079" stop-color="#272d38"/>
      <stop offset="1.0" stop-color="#2f3642"/>
    </linearGradient>
    <radialGradient cx="0" cy="0" gradientTransform="matrix(0.0068, 0.0, 0.0, 0.0027, 0.0, 67.0)" gradientUnits="userSpaceOnUse" id="gradient6" r="819.2" spreadMethod="pad">
      <stop offset="0.10980392156862745" stop-color="#fdfbf4"/>
      <stop offset="0.3137254901960784" stop-color="#e9d18d"/>
      <stop offset="0.43137254901960786" stop-color="#a3915c"/>
      <stop offset="0.6392156862745098" stop-color="#544b2f"/>
      <stop offset="0.9058823529411765" stop-color="#605636"/>
    </radialGradient>
    <radialGradient cx="0" cy="0" gradientTransform="matrix(0.0065, 0.0, 0.0, 0.0032, 0.0, 48.0)" gradientUnits="userSpaceOnUse" id="gradient7" r="819.2" spreadMethod="pad">
      <stop offset="0.10980392156862745" stop-color="#fdfbf4"/>
      <stop offset="0.3137254901960784" stop-color="#e9d18d"/>
      <stop offset="0.43137254901960786" stop-color="#a3915c"/>
      <stop offset="0.6392156862745098" stop-color="#544b2f"/>
      <stop offset="0.9058823529411765" stop-color="#605636"/>
    </radialGradient>
    <radialGradient cx="0" cy="0" fx="665.6" fy="0" gradientTransform="matrix(0.0132, 0.0, 0.0, 0.0128, 0.0, -76.0)" gradientUnits="userSpaceOnUse" id="gradient8" r="819.2" spreadMethod="pad">
      <stop offset="0.3176470588235294" stop-color="#808080"/>
      <stop offset="0.4235294117647059" stop-color="#717171"/>
      <stop offset="0.7098039215686275" stop-color="#434343"/>
      <stop offset="1.0" stop-color="#202020"/>
    </radialGradient>
    <linearGradient gradientTransform="matrix(0.0128, -0.0612, 0.0603, 0.0126, -5.0, -25.5)" gradientUnits="userSpaceOnUse" id="gradient9" spreadMethod="pad" x1="-819.2" x2="819.2">
      <stop offset="0.00784313725490196" stop-color="#434343"/>
      <stop offset="0.3137254901960784" stop-color="#232323"/>
      <stop offset="0.396078431372549" stop-color="#2b2b2b"/>
      <stop offset="0.6352941176470588" stop-color="#383838"/>
      <stop offset="0.7843137254901961" stop-color="#2e2e2e"/>
      <stop offset="1.0" stop-color="#1c1c1c"/>
    </linearGradient>
    <linearGradient gradientTransform="matrix(0.02, -0.0541, 0.0578, 0.0213, 5.0, -25.5)" gradientUnits="userSpaceOnUse" id="gradient10" spreadMethod="pad" x1="-819.2" x2="819.2">
      <stop offset="0.0" stop-color="#636363"/>
      <stop offset="0.25882352941176473" stop-color="#353535"/>
      <stop offset="0.396078431372549" stop-color="#2b2b2b"/>
      <stop offset="0.6235294117647059" stop-color="#4a4a4a"/>
      <stop offset="0.7568627450980392" stop-color="#4a4a4a"/>
      <stop offset="1.0" stop-color="#2b2b2b"/>
    </linearGradient>
    <linearGradient gradientTransform="matrix(-0.0061, 0.0, 0.0, -0.0049, -5.0, 27.0)" gradientUnits="userSpaceOnUse" id="gradient11" spreadMethod="pad" x1="-819.2" x2="819.2">
      <stop offset="0.0" stop-color="#313131"/>
      <stop offset="0.7803921568627451" stop-color="#2b2b2b"/>
      <stop offset="0.9882352941176471" stop-color="#1c1c1c"/>
    </linearGradient>
    <linearGradient gradientTransform="matrix(0.0049, 0.0, 0.0, 0.0049, 6.0, 26.85)" gradientUnits="userSpaceOnUse" id="gradient12" spreadMethod="pad" x1="-819.2" x2="819.2">
      <stop offset="0.0" stop-color="#585858"/>
      <stop offset="0.7019607843137254" stop-color="#202020"/>
      <stop offset="1.0" stop-color="#1c1c1c"/>
    </linearGradient>
    <linearGradient gradientTransform="matrix(-3.0E-4, -0.0647, 0.0659, -3.0E-4, 0.0, -25.0)" gradientUnits="userSpaceOnUse" id="gradient13" spreadMethod="pad" x1="-819.2" x2="819.2">
      <stop offset="0.00392156862745098" stop-color="#01b688"/>
      <stop offset="0.3686274509803922" stop-color="#018563"/>
      <stop offset="0.8117647058823529" stop-color="#00ce9e"/>
      <stop offset="1.0" stop-color="#01a97e"/>
    </linearGradient>
    <linearGradient gradientTransform="matrix(0.0249, -0.0565, 0.0602, 0.0266, 0.0, -24.0)" gradientUnits="userSpaceOnUse" id="gradient14" spreadMethod="pad" x1="-819.2" x2="819.2">
      <stop offset="0.07450980392156863" stop-color="#353642"/>
      <stop offset="0.2784313725490196" stop-color="#232329"/>
      <stop offset="0.6901960784313725" stop-color="#434352"/>
      <stop offset="0.9215686274509803" stop-color="#282833"/>
      <stop offset="1.0" stop-color="#2c2d36"/>
    </linearGradient>
    <linearGradient gradientTransform="matrix(0.0, -0.0049, 0.0115, 0.0, -1.9, 24.0)" gradientUnits="userSpaceOnUse" id="gradient15" spreadMethod="pad" x1="-819.2" x2="819.2">
      <stop offset="0.0" stop-color="#26384b"/>
      <stop offset="0.49019607843137253" stop-color="#18202c"/>
      <stop offset="1.0" stop-color="#161e29"/>
    </linearGradient>
    <linearGradient gradientTransform="matrix(0.0, -0.006, 0.0115, 0.0, -1.75, 16.0)" gradientUnits="userSpaceOnUse" id="gradient16" spreadMethod="pad" x1="-819.2" x2="819.2">
      <stop offset="0.0" stop-color="#1f2a39"/>
      <stop offset="0.9294117647058824" stop-color="#2e3d53"/>
    </linearGradient>
    <linearGradient gradientTransform="matrix(-0.0039, -0.0049, 0.009, -0.0072, -1.05, 27.55)" gradientUnits="userSpaceOnUse" id="gradient17" spreadMethod="pad" x1="-819.2" x2="819.2">
      <stop offset="0.0" stop-color="#bdc7d5"/>
      <stop offset="0.47843137254901963" stop-color="#6f89ac"/>
      <stop offset="0.8588235294117647" stop-color="#2a384d"/>
    </linearGradient>
    <linearGradient gradientTransform="matrix(0.0013, -0.0049, 0.0111, 0.0029, -2.0, 15.2)" gradientUnits="userSpaceOnUse" id="gradient18" spreadMethod="pad" x1="-819.2" x2="819.2">
      <stop offset="0.023529411764705882" stop-color="#97a5bb"/>
      <stop offset="1.0" stop-color="#cbd3de"/>
    </linearGradient>
    <radialGradient cx="0" cy="0" gradientTransform="matrix(8.0E-4, -0.001, 0.0019, 0.0016, 7.15, 33.3)" gradientUnits="userSpaceOnUse" id="gradient19" r="819.2" spreadMethod="pad">
      <stop offset="0.0" stop-color="#fdfbf4"/>
      <stop offset="0.1803921568627451" stop-color="#ead596"/>
      <stop offset="0.6941176470588235" stop-color="#716440"/>
      <stop offset="1.0" stop-color="#484028"/>
    </radialGradient>
    <radialGradient cx="0" cy="0" gradientTransform="matrix(9.0E-4, 0.001, -0.0018, 0.0017, -7.3, 33.35)" gradientUnits="userSpaceOnUse" id="gradient20" r="819.2" spreadMethod="pad">
      <stop offset="0.0" stop-color="#fdfbf4"/>
      <stop offset="0.1803921568627451" stop-color="#ead596"/>
      <stop offset="0.6941176470588235" stop-color="#716440"/>
      <stop offset="1.0" stop-color="#484028"/>
    </radialGradient>
    <linearGradient gradientTransform="matrix(0.0061, 0.0, 0.0, 0.0085, 0.0, 40.0)" gradientUnits="userSpaceOnUse" id="gradient21" spreadMethod="pad" x1="-819.2" x2="819.2">
      <stop offset="0.0" stop-color="#252c30"/>
      <stop offset="0.11764705882352941" stop-color="#181c1f"/>
      <stop offset="0.28627450980392155" stop-color="#353f4a"/>
      <stop offset="0.4588235294117647" stop-color="#5e6b81"/>
      <stop offset="0.5568627450980392" stop-color="#5e6b81"/>
      <stop offset="0.7176470588235294" stop-color="#353f4a"/>
      <stop offset="0.8784313725490196" stop-color="#181c1f"/>
      <stop offset="1.0" stop-color="#252c30"/>
    </linearGradient>
    <radialGradient cx="0" cy="0" gradientTransform="matrix(0.0119, 0.0, 0.0, 0.0103, 0.0, 31.05)" gradientUnits="userSpaceOnUse" id="gradient22" r="819.2" spreadMethod="pad">
      <stop offset="0.0" stop-color="#fdfbf4"/>
      <stop offset="0.2" stop-color="#f2e4bc"/>
      <stop offset="0.3686274509803922" stop-color="#b8a05c"/>
      <stop offset="0.6470588235294118" stop-color="#4e462c"/>
      <stop offset="0.9098039215686274" stop-color="#7e7147"/>
    </radialGradient>
    <radialGradient cx="0" cy="0" gradientTransform="matrix(0.0126, 0.0, 0.0, 0.0103, 0.0, 28.0)" gradientUnits="userSpaceOnUse" id="gradient23" r="819.2" spreadMethod="pad">
      <stop offset="0.08627450980392157" stop-color="#4d5766"/>
      <stop offset="0.615686274509804" stop-color="#323c4c"/>
      <stop offset="0.8666666666666667" stop-color="#262e3a"/>
      <stop offset="0.9529411764705882" stop-color="#2f3a48"/>
    </radialGradient>
    <radialGradient cx="0" cy="0" fx="406.40000000000003" fy="0" gradientTransform="matrix(-1.0E-4, -0.0045, 0.0018, 0.0, 0.0, 36.3)" gradientUnits="userSpaceOnUse" id="gradient24" r="819.2" spreadMethod="pad">
      <stop offset="0.10588235294117647" stop-color="#ffffff"/>
      <stop offset="0.16470588235294117" stop-color="#02e696"/>
      <stop offset="0.39215686274509803" stop-color="#029355"/>
      <stop offset="0.6627450980392157" stop-color="#015e3d"/>
      <stop offset="0.8941176470588236" stop-color="#016e48"/>
      <stop offset="1.0" stop-color="#029958"/>
    </radialGradient>
  </defs>
</svg>
