<?xml version="1.0" encoding="UTF-8" standalone="no"?>
<svg xmlns:xlink="http://www.w3.org/1999/xlink" height="105.9px" width="98.15px" xmlns="http://www.w3.org/2000/svg">
  <g transform="matrix(1.0, 0.0, 0.0, 1.0, 63.65, 50.5)">
    <path d="M34.5 -32.0 L34.5 -23.0 Q34.7 -16.5 27.5 -11.65 L27.5 3.7 Q34.7 8.55 34.5 15.0 L34.5 25.4 34.5 25.5 Q34.4 33.25 23.7 38.55 L23.75 38.55 Q13.9 43.5 0.0 43.5 -13.9 43.5 -23.75 38.55 -34.45 33.25 -34.5 25.5 L-34.5 25.4 -34.5 15.0 Q-34.7 8.55 -27.5 3.65 L-27.5 -5.0 Q-33.95 -8.8 -40.25 -9.6 -47.05 -10.45 -51.65 -7.75 -56.3 -4.85 -56.6 1.45 -57.3 18.15 -40.45 33.4 -33.55 39.65 -25.4 43.9 -18.2 47.7 -12.9 48.45 L-12.85 48.45 Q-11.45 48.65 -10.55 49.8 L-10.55 49.75 Q-9.65 50.9 -9.85 52.35 L-9.85 52.4 Q-10.1 53.8 -11.2 54.7 -12.35 55.55 -13.8 55.4 -20.1 54.6 -28.7 50.1 L-28.65 50.1 Q-37.55 45.45 -45.15 38.6 -64.8 20.85 -63.6 1.1 -63.1 -9.1 -55.3 -13.7 -48.95 -17.75 -39.4 -16.55 -35.2 -16.05 -30.85 -14.4 -33.85 -17.5 -34.35 -21.15 L-34.5 -22.0 -34.5 -32.0 Q-34.8 -40.0 -23.75 -45.5 -13.9 -50.5 0.0 -50.5 13.9 -50.5 23.75 -45.5 34.8 -40.0 34.5 -32.0" fill="#000000" fill-rule="evenodd" stroke="none"/>
    <path d="M-21.1 -6.2 L-20.7 -5.55 Q-20.65 -5.15 -20.9 -4.8 L-21.5 -4.4 -22.25 -4.55 Q-31.25 -11.0 -39.95 -12.1 -47.75 -13.05 -52.95 -9.9 -58.75 -6.35 -59.1 1.3 -59.95 19.1 -42.1 35.25 -34.95 41.7 -26.55 46.15 -18.85 50.15 -13.2 50.9 -12.8 50.95 -12.55 51.3 -12.3 51.6 -12.35 52.05 L-12.75 52.7 Q-13.05 52.95 -13.45 52.9 -19.45 52.15 -27.5 47.9 -36.15 43.4 -43.45 36.75 -62.15 19.9 -61.1 1.2 -60.65 -7.55 -54.0 -11.6 -48.25 -15.15 -39.7 -14.1 -30.55 -13.0 -21.1 -6.2" fill="url(#gradient0)" fill-rule="evenodd" stroke="none"/>
    <path d="M24.3 -21.6 L22.6 -20.7 Q13.25 -16.0 0.0 -16.0 -13.25 -16.0 -22.65 -20.7 L-24.35 -21.6 -32.0 -22.0 -32.0 -32.0 Q-32.0 -38.6 -22.65 -43.3 -13.25 -48.0 0.0 -48.0 13.25 -48.0 22.6 -43.3 32.0 -38.6 32.0 -32.0 L32.0 -23.0 24.3 -21.6" fill="url(#gradient1)" fill-rule="evenodd" stroke="none"/>
    <path d="M22.6 -11.7 Q13.25 -7.0 0.0 -7.0 -13.25 -7.0 -22.65 -11.7 -32.0 -16.35 -32.0 -23.0 -32.0 -29.6 -22.65 -34.3 -13.25 -39.0 0.0 -39.0 13.25 -39.0 22.6 -34.3 32.0 -29.6 32.0 -23.0 32.0 -16.35 22.6 -11.7" fill="url(#gradient2)" fill-rule="evenodd" stroke="none"/>
    <path d="M25.0 -17.5 L24.95 -17.5 24.6 -17.7 Q21.15 -22.25 13.8 -24.5 7.15 -26.6 -1.05 -26.35 -9.05 -26.1 -15.45 -23.75 -22.1 -21.45 -24.55 -17.7 L-24.9 -17.5 -25.0 -17.5 -25.25 -17.55 -25.5 -17.9 -25.4 -18.25 -25.0 -18.85 Q-22.3 -22.45 -15.8 -24.7 -9.25 -27.1 -1.1 -27.35 7.25 -27.6 14.1 -25.45 21.35 -23.2 25.0 -18.8 L25.4 -18.3 25.5 -17.9 25.3 -17.6 25.0 -17.5 M25.0 -13.5 L24.95 -13.5 24.6 -13.7 Q21.15 -18.25 13.8 -20.5 7.15 -22.6 -1.05 -22.35 -9.05 -22.1 -15.45 -19.75 -22.1 -17.45 -24.55 -13.7 L-24.9 -13.5 -25.0 -13.5 -25.25 -13.55 -25.5 -13.9 -25.4 -14.25 -25.0 -14.85 Q-22.3 -18.45 -15.8 -20.7 -9.25 -23.1 -1.1 -23.35 7.25 -23.6 14.1 -21.45 21.35 -19.2 25.0 -14.8 L25.4 -14.3 25.5 -13.9 25.3 -13.6 25.0 -13.5 M25.4 -22.3 L25.5 -21.9 25.3 -21.6 25.0 -21.5 24.95 -21.5 24.6 -21.7 Q21.15 -26.25 13.8 -28.5 7.15 -30.6 -1.05 -30.35 -9.05 -30.1 -15.45 -27.75 -22.1 -25.45 -24.55 -21.7 L-24.9 -21.5 -25.0 -21.5 -25.25 -21.55 -25.5 -21.9 -25.4 -22.25 -25.0 -22.85 Q-22.3 -26.45 -15.8 -28.7 -9.25 -31.1 -1.1 -31.35 7.25 -31.6 14.1 -29.45 21.35 -27.2 25.0 -22.8 L25.4 -22.3 M25.5 -9.9 L25.3 -9.6 25.0 -9.5 24.95 -9.5 24.6 -9.7 Q21.15 -14.25 13.8 -16.5 7.15 -18.6 -1.05 -18.35 -9.05 -18.1 -15.45 -15.75 -22.1 -13.45 -24.55 -9.7 L-24.9 -9.5 -25.0 -9.5 -25.25 -9.55 -25.5 -9.9 -25.4 -10.25 -25.0 -10.85 Q-22.3 -14.45 -15.8 -16.7 -9.25 -19.1 -1.1 -19.35 7.25 -19.6 14.1 -17.45 21.35 -15.2 25.0 -10.8 L25.4 -10.3 25.5 -9.9 M25.0 -5.5 L24.95 -5.5 24.6 -5.7 Q21.15 -10.25 13.8 -12.5 7.15 -14.6 -1.05 -14.35 -9.05 -14.1 -15.45 -11.75 -22.1 -9.45 -24.55 -5.7 L-24.9 -5.5 -25.0 -5.5 -25.25 -5.55 -25.5 -5.9 -25.4 -6.25 -25.0 -6.85 Q-22.3 -10.45 -15.8 -12.7 -9.25 -15.1 -1.1 -15.35 7.25 -15.6 14.1 -13.45 21.35 -11.2 25.0 -6.8 L25.4 -6.3 25.5 -5.9 25.3 -5.6 25.0 -5.5 M25.0 -1.5 L24.95 -1.5 24.6 -1.7 Q21.15 -6.25 13.8 -8.5 7.15 -10.6 -1.05 -10.35 -9.05 -10.1 -15.45 -7.75 -22.1 -5.45 -24.55 -1.7 L-24.9 -1.5 -25.0 -1.5 -25.25 -1.55 -25.5 -1.9 -25.4 -2.25 -25.0 -2.85 Q-22.3 -6.45 -15.8 -8.7 -9.25 -11.1 -1.1 -11.35 7.25 -11.6 14.1 -9.45 21.35 -7.2 25.0 -2.8 L25.4 -2.3 25.5 -1.9 25.3 -1.6 25.0 -1.5 M25.5 6.1 L25.3 6.4 25.0 6.5 24.95 6.5 24.6 6.3 Q21.15 1.75 13.8 -0.5 7.15 -2.6 -1.05 -2.35 -9.05 -2.1 -15.45 0.25 -22.1 2.55 -24.55 6.3 L-24.9 6.5 -25.0 6.5 -25.25 6.45 -25.5 6.1 -25.4 5.75 -25.0 5.15 Q-22.3 1.55 -15.8 -0.7 -9.25 -3.1 -1.1 -3.35 7.25 -3.6 14.1 -1.45 21.35 0.8 25.0 5.2 L25.4 5.7 25.5 6.1 M25.5 2.1 L25.3 2.4 25.0 2.5 24.95 2.5 24.6 2.3 Q21.15 -2.25 13.8 -4.5 7.15 -6.6 -1.05 -6.35 -9.05 -6.1 -15.45 -3.75 -22.1 -1.45 -24.55 2.3 L-24.9 2.5 -25.0 2.5 -25.25 2.45 -25.5 2.1 -25.4 1.75 -25.0 1.15 Q-22.3 -2.45 -15.8 -4.7 -9.25 -7.1 -1.1 -7.35 7.25 -7.6 14.1 -5.45 21.35 -3.2 25.0 1.2 L25.4 1.7 25.5 2.1" fill="url(#gradient3)" fill-rule="evenodd" stroke="none"/>
    <path d="M24.95 -13.5 L25.0 -13.5 25.0 -10.8 Q21.35 -15.2 14.1 -17.45 7.25 -19.6 -1.1 -19.35 -9.25 -19.1 -15.8 -16.7 -22.3 -14.45 -25.0 -10.85 L-25.0 -13.5 -24.9 -13.5 -24.55 -13.7 Q-22.1 -17.45 -15.45 -19.75 -9.05 -22.1 -1.05 -22.35 7.15 -22.6 13.8 -20.5 21.15 -18.25 24.6 -13.7 L24.95 -13.5 M25.0 -17.5 L25.0 -14.8 Q21.35 -19.2 14.1 -21.45 7.25 -23.6 -1.1 -23.35 -9.25 -23.1 -15.8 -20.7 -22.3 -18.45 -25.0 -14.85 L-25.0 -17.5 -24.9 -17.5 -24.55 -17.7 Q-22.1 -21.45 -15.45 -23.75 -9.05 -26.1 -1.05 -26.35 7.15 -26.6 13.8 -24.5 21.15 -22.25 24.6 -17.7 L24.95 -17.5 25.0 -17.5 M25.0 -18.8 Q21.35 -23.2 14.1 -25.45 7.25 -27.6 -1.1 -27.35 -9.25 -27.1 -15.8 -24.7 -22.3 -22.45 -25.0 -18.85 L-25.0 -21.5 -24.9 -21.5 -24.55 -21.7 Q-22.1 -25.45 -15.45 -27.75 -9.05 -30.1 -1.05 -30.35 7.15 -30.6 13.8 -28.5 21.15 -26.25 24.6 -21.7 L24.95 -21.5 25.0 -21.5 25.0 -18.8 M25.0 -9.5 L25.0 -6.8 Q21.35 -11.2 14.1 -13.45 7.25 -15.6 -1.1 -15.35 -9.25 -15.1 -15.8 -12.7 -22.3 -10.45 -25.0 -6.85 L-25.0 -9.5 -24.9 -9.5 -24.55 -9.7 Q-22.1 -13.45 -15.45 -15.75 -9.05 -18.1 -1.05 -18.35 7.15 -18.6 13.8 -16.5 21.15 -14.25 24.6 -9.7 L24.95 -9.5 25.0 -9.5 M24.95 -1.5 L25.0 -1.5 25.0 1.2 Q21.35 -3.2 14.1 -5.45 7.25 -7.6 -1.1 -7.35 -9.25 -7.1 -15.8 -4.7 -22.3 -2.45 -25.0 1.15 L-25.0 -1.5 -24.9 -1.5 -24.55 -1.7 Q-22.1 -5.45 -15.45 -7.75 -9.05 -10.1 -1.05 -10.35 7.15 -10.6 13.8 -8.5 21.15 -6.25 24.6 -1.7 L24.95 -1.5 M25.0 -2.8 Q21.35 -7.2 14.1 -9.45 7.25 -11.6 -1.1 -11.35 -9.25 -11.1 -15.8 -8.7 -22.3 -6.45 -25.0 -2.85 L-25.0 -5.5 -24.9 -5.5 -24.55 -5.7 Q-22.1 -9.45 -15.45 -11.75 -9.05 -14.1 -1.05 -14.35 7.15 -14.6 13.8 -12.5 21.15 -10.25 24.6 -5.7 L24.95 -5.5 25.0 -5.5 25.0 -2.8 M25.0 -25.0 L25.0 -22.8 Q21.35 -27.2 14.1 -29.45 7.25 -31.6 -1.1 -31.35 -9.25 -31.1 -15.8 -28.7 -22.3 -26.45 -25.0 -22.85 L-25.0 -25.0 Q-22.45 -28.85 -15.65 -31.25 -9.15 -33.6 -1.1 -33.85 7.2 -34.1 13.95 -32.0 21.45 -29.65 25.0 -25.0 M25.0 5.2 Q21.35 0.8 14.1 -1.45 7.25 -3.6 -1.1 -3.35 -9.25 -3.1 -15.8 -0.7 -22.3 1.55 -25.0 5.15 L-25.0 2.5 -24.9 2.5 -24.55 2.3 Q-22.1 -1.45 -15.45 -3.75 -9.05 -6.1 -1.05 -6.35 7.15 -6.6 13.8 -4.5 21.15 -2.25 24.6 2.3 L24.95 2.5 25.0 2.5 25.0 5.2 M25.0 16.0 L-25.0 16.0 -25.0 6.5 -24.9 6.5 -24.55 6.3 Q-22.1 2.55 -15.45 0.25 -9.05 -2.1 -1.05 -2.35 7.15 -2.6 13.8 -0.5 21.15 1.75 24.6 6.3 L24.95 6.5 25.0 6.5 25.0 16.0" fill="url(#gradient4)" fill-rule="evenodd" stroke="none"/>
    <path d="M32.0 15.0 L32.0 25.4 24.3 25.4 22.6 26.3 Q13.25 31.0 0.0 31.0 -13.25 31.0 -22.65 26.3 L-24.35 25.4 -32.0 25.4 -32.0 15.0 Q-32.0 8.4 -22.65 3.7 -13.25 -1.0 0.0 -1.0 13.25 -1.0 22.6 3.7 32.0 8.4 32.0 15.0" fill="url(#gradient5)" fill-rule="evenodd" stroke="none"/>
    <path d="M32.0 25.0 Q32.0 31.65 22.6 36.3 13.25 41.0 0.0 41.0 -13.25 41.0 -22.65 36.3 -32.0 31.65 -32.0 25.0 -32.0 18.4 -22.65 13.7 -13.25 9.0 0.0 9.0 13.25 9.0 22.6 13.7 32.0 18.4 32.0 25.0" fill="url(#gradient6)" fill-rule="evenodd" stroke="none"/>
    <path d="M24.0 25.0 Q24.0 30.0 16.95 33.5 9.95 37.0 0.0 37.0 -9.95 37.0 -17.0 33.5 -24.0 30.0 -24.0 25.0 -24.0 20.05 -17.0 16.55 -9.95 13.0 0.0 13.0 9.95 13.0 16.95 16.55 24.0 20.05 24.0 25.0" fill="url(#gradient7)" fill-rule="evenodd" stroke="none"/>
    <path d="M9.0 21.5 Q9.0 23.4 6.35 24.7 3.75 26.0 0.0 26.0 -3.75 26.0 -6.35 24.7 -9.0 23.4 -9.0 21.5 -9.0 19.65 -6.35 18.35 -3.75 17.0 0.0 17.0 3.75 17.0 6.35 18.35 9.0 19.65 9.0 21.5" fill="#000000" fill-rule="evenodd" stroke="none"/>
    <path d="M21.0 24.0 L-20.0 24.0 -8.0 20.0 8.0 20.0 21.0 24.0" fill="url(#gradient8)" fill-rule="evenodd" stroke="none"/>
    <path d="M21.0 28.0 L-20.0 28.0 -20.0 24.0 21.0 24.0 21.0 28.0" fill="url(#gradient9)" fill-rule="evenodd" stroke="none"/>
    <path d="M25.0 25.0 L28.0 25.0 28.0 26.0 25.0 26.0 25.0 25.0 M-28.0 25.0 L-25.0 25.0 -25.0 26.0 -28.0 26.0 -28.0 25.0" fill="#000000" fill-rule="evenodd" stroke="none"/>
  </g>
  <defs>
    <linearGradient gradientTransform="matrix(0.0145, -0.0302, 0.0381, 0.0183, -34.6, 17.35)" gradientUnits="userSpaceOnUse" id="gradient0" spreadMethod="pad" x1="-819.2" x2="819.2">
      <stop offset="0.0" stop-color="#795397"/>
      <stop offset="0.09019607843137255" stop-color="#9d78b1"/>
      <stop offset="0.1803921568627451" stop-color="#d2a6d9"/>
      <stop offset="0.23529411764705882" stop-color="#d2a6d9"/>
      <stop offset="0.34509803921568627" stop-color="#9673ac"/>
      <stop offset="0.4745098039215686" stop-color="#84659d"/>
      <stop offset="0.9490196078431372" stop-color="#805f98"/>
      <stop offset="1.0" stop-color="#4b3155"/>
    </linearGradient>
    <linearGradient gradientTransform="matrix(0.0391, 0.0, 0.0, 0.0195, 0.0, -32.0)" gradientUnits="userSpaceOnUse" id="gradient1" spreadMethod="pad" x1="-819.2" x2="819.2">
      <stop offset="0.0" stop-color="#434343"/>
      <stop offset="0.5294117647058824" stop-color="#ffffff"/>
      <stop offset="1.0" stop-color="#4a4a4a"/>
    </linearGradient>
    <linearGradient gradientTransform="matrix(0.0391, 0.0, 0.0, 0.0195, 0.0, -23.0)" gradientUnits="userSpaceOnUse" id="gradient2" spreadMethod="pad" x1="-819.2" x2="819.2">
      <stop offset="0.0" stop-color="#666666"/>
      <stop offset="1.0" stop-color="#5b5b5b"/>
    </linearGradient>
    <linearGradient gradientTransform="matrix(0.0313, 0.0, 0.0, 0.006, 0.0, -14.45)" gradientUnits="userSpaceOnUse" id="gradient3" spreadMethod="pad" x1="-819.2" x2="819.2">
      <stop offset="0.0" stop-color="#514556"/>
      <stop offset="0.12941176470588237" stop-color="#382d3e"/>
      <stop offset="0.5333333333333333" stop-color="#b77bc4"/>
      <stop offset="0.9568627450980393" stop-color="#50325a"/>
    </linearGradient>
    <linearGradient gradientTransform="matrix(0.0305, 0.0, 0.0, 0.0305, 0.0, -8.95)" gradientUnits="userSpaceOnUse" id="gradient4" spreadMethod="pad" x1="-819.2" x2="819.2">
      <stop offset="0.0" stop-color="#3c323f"/>
      <stop offset="0.16470588235294117" stop-color="#383838"/>
      <stop offset="0.4980392156862745" stop-color="#717171"/>
      <stop offset="0.8" stop-color="#5d5d5d"/>
      <stop offset="1.0" stop-color="#2e2e2e"/>
    </linearGradient>
    <linearGradient gradientTransform="matrix(0.0391, 0.0, 0.0, 0.0195, 0.0, 15.0)" gradientUnits="userSpaceOnUse" id="gradient5" spreadMethod="pad" x1="-819.2" x2="819.2">
      <stop offset="0.0" stop-color="#434343"/>
      <stop offset="0.2980392156862745" stop-color="#bfbfbf"/>
      <stop offset="0.5843137254901961" stop-color="#ffffff"/>
      <stop offset="0.796078431372549" stop-color="#afafaf"/>
      <stop offset="1.0" stop-color="#4a4a4a"/>
    </linearGradient>
    <linearGradient gradientTransform="matrix(0.0233, -0.0226, 0.0136, 0.014, 0.0, 25.0)" gradientUnits="userSpaceOnUse" id="gradient6" spreadMethod="pad" x1="-819.2" x2="819.2">
      <stop offset="0.0" stop-color="#6d6d6d"/>
      <stop offset="1.0" stop-color="#555555"/>
    </linearGradient>
    <radialGradient cx="0" cy="0" fx="-1632.0" fy="0" gradientTransform="matrix(-0.0079, -0.0267, 0.0454, -0.0135, -13.5, 25.6)" gradientUnits="userSpaceOnUse" id="gradient7" r="819.2" spreadMethod="pad">
      <stop offset="0.0" stop-color="#6d6d6d"/>
      <stop offset="0.596078431372549" stop-color="#404040"/>
      <stop offset="1.0" stop-color="#353535"/>
    </radialGradient>
    <linearGradient gradientTransform="matrix(0.025, 0.0, 0.0, 0.0024, 0.5, 22.0)" gradientUnits="userSpaceOnUse" id="gradient8" spreadMethod="pad" x1="-819.2" x2="819.2">
      <stop offset="0.0" stop-color="#0e0e0e"/>
      <stop offset="0.4980392156862745" stop-color="#4e4e4e"/>
      <stop offset="1.0" stop-color="#202020"/>
    </linearGradient>
    <linearGradient gradientTransform="matrix(0.025, 0.0, 0.0, 0.0024, 0.5, 26.0)" gradientUnits="userSpaceOnUse" id="gradient9" spreadMethod="pad" x1="-819.2" x2="819.2">
      <stop offset="0.0" stop-color="#6d6d6d"/>
      <stop offset="1.0" stop-color="#8d8d8d"/>
    </linearGradient>
  </defs>
</svg>
