<?xml version="1.0" encoding="UTF-8" standalone="no"?>
<svg xmlns:xlink="http://www.w3.org/1999/xlink" height="701.35px" width="682.75px" xmlns="http://www.w3.org/2000/svg">
  <g transform="matrix(1.0, 0.0, 0.0, 1.0, 339.65, 384.0)">
    <path d="M31.4 -351.65 L194.55 -351.65 194.55 -349.45 54.65 -349.45 -223.65 -349.45 -223.65 -351.65 -212.05 -351.65 31.4 -351.65" fill="url(#gradient0)" fill-rule="evenodd" stroke="none"/>
    <path d="M194.55 -278.2 L-160.25 -278.2 -160.25 -283.6 194.55 -283.6 194.55 -278.2" fill="url(#gradient1)" fill-rule="evenodd" stroke="none"/>
    <path d="M189.2 -223.25 L189.2 -199.5 131.05 -199.5 -166.85 -199.5 -166.85 -223.25 189.2 -223.25" fill="url(#gradient2)" fill-rule="evenodd" stroke="none"/>
    <path d="M-166.85 -223.25 L-170.55 -223.25 -170.55 -237.25 140.15 -237.25 217.8 -237.25 217.8 -223.25 189.2 -223.25 -166.85 -223.25" fill="url(#gradient3)" fill-rule="evenodd" stroke="none"/>
    <path d="M-195.15 -372.2 L-195.15 -384.0 145.35 -384.0 145.35 -372.15 19.75 -372.15 19.75 -372.2 -195.15 -372.2" fill="url(#gradient4)" fill-rule="evenodd" stroke="none"/>
    <path d="M-184.85 -352.7 L-184.85 -364.65 19.75 -364.65 127.2 -364.65 127.2 -352.7 31.4 -352.7 -184.85 -352.7" fill="url(#gradient5)" fill-rule="evenodd" stroke="none"/>
    <path d="M105.2 -313.85 L105.2 -306.3 -95.5 -306.3 -188.75 -306.3 -188.75 -313.85 105.2 -313.85" fill="url(#gradient6)" fill-rule="evenodd" stroke="none"/>
    <path d="M54.65 -323.6 L126.5 -323.6 126.5 -313.85 105.2 -313.85 -188.75 -313.85 -339.65 -313.85 -339.65 -323.6 -307.85 -323.6 54.65 -323.6" fill="url(#gradient7)" fill-rule="evenodd" stroke="none"/>
    <path d="M105.2 -306.3 L145.35 -306.3 145.35 -283.65 -95.5 -283.65 -95.5 -306.3 105.2 -306.3" fill="url(#gradient8)" fill-rule="evenodd" stroke="none"/>
    <path d="M-184.85 -364.65 L-205.55 -364.65 -205.55 -372.2 -195.15 -372.2 19.75 -372.2 19.75 -372.15 19.75 -364.65 -184.85 -364.65" fill="url(#gradient9)" fill-rule="evenodd" stroke="none"/>
    <path d="M-212.05 -351.65 L-212.05 -352.7 -184.85 -352.7 31.4 -352.7 31.4 -351.65 -212.05 -351.65" fill="url(#gradient10)" fill-rule="evenodd" stroke="none"/>
    <path d="M54.65 -349.45 L54.65 -323.6 -307.85 -323.6 -307.85 -349.45 -223.65 -349.45 54.65 -349.45" fill="url(#gradient11)" fill-rule="evenodd" stroke="none"/>
    <path d="M-215.95 -272.85 L-215.95 -277.2 56.0 -277.2 56.0 -272.85 43.7 -272.85 -215.95 -272.85" fill="url(#gradient12)" fill-rule="evenodd" stroke="none"/>
    <path d="M-270.3 -258.85 L-299.85 -258.85 -299.85 -268.55 43.7 -268.55 56.15 -268.55 56.15 -259.9 -223.5 -259.9 -223.5 -258.85 -270.3 -258.85" fill="url(#gradient13)" fill-rule="evenodd" stroke="none"/>
    <path d="M-299.85 -268.55 L-314.35 -268.55 -314.35 -272.85 -215.95 -272.85 43.7 -272.85 43.7 -268.55 -299.85 -268.55" fill="url(#gradient14)" fill-rule="evenodd" stroke="none"/>
    <path d="M-170.55 -237.25 L-195.15 -237.25 -195.15 -244.8 114.25 -244.8 140.15 -244.8 140.15 -237.25 -170.55 -237.25" fill="url(#gradient15)" fill-rule="evenodd" stroke="none"/>
    <path d="M-195.15 -244.8 L-270.3 -244.8 -270.3 -258.85 -223.5 -258.85 -223.5 -259.9 56.15 -259.9 114.25 -259.9 114.25 -244.8 -195.15 -244.8" fill="url(#gradient16)" fill-rule="evenodd" stroke="none"/>
    <path d="M-65.5 -35.8 L151.45 -35.8 151.45 -35.5 193.45 -35.5 193.45 -30.4 -65.5 -30.4 -65.5 -35.8" fill="url(#gradient17)" fill-rule="evenodd" stroke="none"/>
    <path d="M193.45 -35.5 L151.45 -35.5 151.45 -35.8 -65.5 -35.8 -73.85 -35.8 -73.85 -51.7 -34.85 -51.7 236.9 -51.7 236.9 -35.5 193.45 -35.5" fill="url(#gradient18)" fill-rule="evenodd" stroke="none"/>
    <path d="M228.8 -143.4 L316.2 -143.4 316.2 -141.25 -102.0 -141.25 -102.0 -143.4 228.8 -143.4" fill="url(#gradient19)" fill-rule="evenodd" stroke="none"/>
    <path d="M316.2 -141.25 L321.95 -141.25 321.95 -130.5 -173.95 -130.5 -173.95 -141.25 -102.0 -141.25 316.2 -141.25" fill="url(#gradient20)" fill-rule="evenodd" stroke="none"/>
    <path d="M-115.3 -112.85 L-125.8 -112.85 -125.8 -130.15 295.05 -130.15 295.05 -112.85 291.25 -112.85 -115.3 -112.85" fill="url(#gradient21)" fill-rule="evenodd" stroke="none"/>
    <path d="M291.25 -112.85 L291.25 -99.9 -82.8 -99.9 -115.3 -99.9 -115.3 -112.85 291.25 -112.85" fill="url(#gradient22)" fill-rule="evenodd" stroke="none"/>
    <path d="M168.6 -173.6 L220.4 -173.6 220.4 -163.9 207.5 -163.9 -94.2 -163.9 -94.2 -173.6 168.6 -173.6" fill="url(#gradient23)" fill-rule="evenodd" stroke="none"/>
    <path d="M207.5 -163.9 L207.5 -160.65 -109.15 -160.65 -109.15 -159.55 -133.05 -159.55 -133.05 -163.9 -94.2 -163.9 207.5 -163.9" fill="url(#gradient24)" fill-rule="evenodd" stroke="none"/>
    <path d="M207.5 -160.65 L228.8 -160.65 228.8 -143.4 -102.0 -143.4 -109.15 -143.4 -109.15 -159.55 -109.15 -160.65 207.5 -160.65" fill="url(#gradient25)" fill-rule="evenodd" stroke="none"/>
    <path d="M131.05 -194.1 L168.6 -194.1 168.6 -173.6 -94.2 -173.6 -190.0 -173.6 -190.0 -194.1 131.05 -194.1" fill="url(#gradient26)" fill-rule="evenodd" stroke="none"/>
    <path d="M314.35 -92.35 L314.35 -78.35 -64.95 -78.35 -64.95 -92.1 208.5 -92.1 208.5 -92.35 314.35 -92.35" fill="url(#gradient27)" fill-rule="evenodd" stroke="none"/>
    <path d="M253.7 -0.95 L-125.7 -0.95 -125.7 -30.1 253.7 -30.1 253.7 -0.95" fill="url(#gradient28)" fill-rule="evenodd" stroke="none"/>
    <path d="M291.25 -99.9 L327.6 -99.9 327.6 -92.35 314.35 -92.35 208.5 -92.35 -82.8 -92.35 -82.8 -99.9 291.25 -99.9" fill="url(#gradient29)" fill-rule="evenodd" stroke="none"/>
    <path d="M131.05 -199.5 L131.05 -194.1 -190.0 -194.1 -221.1 -194.1 -221.1 -199.5 -166.85 -199.5 131.05 -199.5" fill="url(#gradient30)" fill-rule="evenodd" stroke="none"/>
    <path d="M343.1 -64.95 L-33.65 -64.95 -33.65 -76.85 343.1 -76.85 343.1 -64.95" fill="url(#gradient31)" fill-rule="evenodd" stroke="none"/>
    <path d="M236.9 -51.7 L-34.85 -51.7 -34.85 -62.45 331.55 -62.45 331.55 -51.7 236.9 -51.7" fill="url(#gradient32)" fill-rule="evenodd" stroke="none"/>
    <path d="M-108.4 74.55 L-135.45 74.55 -135.45 62.7 -64.95 62.7 293.65 62.7 300.85 62.7 300.85 74.55 -108.4 74.55" fill="url(#gradient33)" fill-rule="evenodd" stroke="none"/>
    <path d="M300.85 74.55 L303.3 74.55 303.3 86.45 262.95 86.45 41.55 86.45 -108.4 86.45 -108.4 74.55 300.85 74.55" fill="url(#gradient34)" fill-rule="evenodd" stroke="none"/>
    <path d="M-64.95 62.7 L-64.95 58.4 230.75 58.4 293.65 58.4 293.65 62.7 -64.95 62.7" fill="url(#gradient35)" fill-rule="evenodd" stroke="none"/>
    <path d="M205.2 41.9 L-194.85 41.9 -194.85 16.0 205.2 16.0 205.2 41.9" fill="url(#gradient36)" fill-rule="evenodd" stroke="none"/>
    <path d="M93.3 10.3 L236.35 10.3 236.35 15.7 -220.65 15.7 -220.65 10.3 -187.65 10.3 93.3 10.3" fill="url(#gradient37)" fill-rule="evenodd" stroke="none"/>
    <path d="M-64.95 58.4 L-133.05 58.4 -133.05 42.2 230.75 42.2 230.75 58.4 -64.95 58.4" fill="url(#gradient38)" fill-rule="evenodd" stroke="none"/>
    <path d="M171.35 174.9 L-200.25 174.9 -200.25 157.65 171.35 157.65 171.35 174.9" fill="url(#gradient39)" fill-rule="evenodd" stroke="none"/>
    <path d="M237.25 181.3 L-155.1 181.3 -155.1 175.9 237.25 175.9 237.25 181.3" fill="url(#gradient40)" fill-rule="evenodd" stroke="none"/>
    <path d="M262.95 99.4 L316.2 99.4 316.2 114.5 -81.3 114.5 -81.3 99.4 41.55 99.4 262.95 99.4" fill="url(#gradient41)" fill-rule="evenodd" stroke="none"/>
    <path d="M-91.15 123.25 L-91.15 114.65 296.0 114.65 296.0 123.25 275.1 123.25 -91.15 123.25" fill="url(#gradient42)" fill-rule="evenodd" stroke="none"/>
    <path d="M275.1 123.25 L275.1 136.2 245.45 136.2 -181.9 136.2 -181.9 123.25 -91.15 123.25 275.1 123.25" fill="url(#gradient43)" fill-rule="evenodd" stroke="none"/>
    <path d="M265.75 195.4 L-90.35 195.4 -90.35 182.45 265.75 182.45 265.75 195.4" fill="url(#gradient44)" fill-rule="evenodd" stroke="none"/>
    <path d="M245.45 136.2 L245.45 155.65 -188.25 155.65 -188.25 136.2 -181.9 136.2 245.45 136.2" fill="url(#gradient45)" fill-rule="evenodd" stroke="none"/>
    <path d="M262.95 86.45 L262.95 99.4 41.55 99.4 41.55 86.45 262.95 86.45" fill="url(#gradient46)" fill-rule="evenodd" stroke="none"/>
    <path d="M-187.65 10.3 L-187.65 0.05 93.3 0.05 93.3 10.3 -187.65 10.3" fill="url(#gradient47)" fill-rule="evenodd" stroke="none"/>
    <path d="M-38.8 233.15 L-38.8 220.2 270.65 220.2 270.65 233.15 190.65 233.15 -38.8 233.15" fill="url(#gradient48)" fill-rule="evenodd" stroke="none"/>
    <path d="M190.65 233.15 L190.65 242.9 -178.35 242.9 -178.35 233.15 -38.8 233.15 190.65 233.15" fill="url(#gradient49)" fill-rule="evenodd" stroke="none"/>
    <path d="M-206.7 289.25 L-218.55 289.25 -218.55 273.1 197.0 273.1 197.0 289.25 -206.7 289.25" fill="url(#gradient50)" fill-rule="evenodd" stroke="none"/>
    <path d="M194.45 270.25 L-204.3 270.2 -204.3 244.9 194.45 244.9 194.45 270.25" fill="url(#gradient51)" fill-rule="evenodd" stroke="none"/>
    <path d="M199.7 309.75 L199.7 317.35 -259.9 317.35 -259.9 309.75 -206.7 309.75 199.7 309.75" fill="url(#gradient52)" fill-rule="evenodd" stroke="none"/>
    <path d="M197.0 289.25 L317.7 289.25 317.7 309.75 199.7 309.75 -206.7 309.75 -206.7 289.25 197.0 289.25" fill="url(#gradient53)" fill-rule="evenodd" stroke="none"/>
    <path d="M281.3 218.05 L-25.6 218.05 -25.6 196.5 281.3 196.5 281.3 218.05" fill="url(#gradient54)" fill-rule="evenodd" stroke="none"/>
  </g>
  <defs>
    <radialGradient cx="0" cy="0" gradientTransform="matrix(0.2552, 0.0, 0.0, 0.2127, -14.55, -350.55)" gradientUnits="userSpaceOnUse" id="gradient0" r="819.2" spreadMethod="pad">
      <stop offset="0.0" stop-color="#ffd50d"/>
      <stop offset="1.0" stop-color="#ffd50d" stop-opacity="0.0"/>
    </radialGradient>
    <radialGradient cx="0" cy="0" gradientTransform="matrix(0.2166, 0.0, 0.0, 0.1805, 17.1, -280.9)" gradientUnits="userSpaceOnUse" id="gradient1" r="819.2" spreadMethod="pad">
      <stop offset="0.0" stop-color="#ffd50d"/>
      <stop offset="1.0" stop-color="#ffd50d" stop-opacity="0.0"/>
    </radialGradient>
    <radialGradient cx="0" cy="0" gradientTransform="matrix(0.218, 0.0, 0.0, 0.1817, 11.15, -211.4)" gradientUnits="userSpaceOnUse" id="gradient2" r="819.2" spreadMethod="pad">
      <stop offset="0.0" stop-color="#ffd50d"/>
      <stop offset="1.0" stop-color="#ffd50d" stop-opacity="0.0"/>
    </radialGradient>
    <radialGradient cx="0" cy="0" gradientTransform="matrix(0.2373, 0.0, 0.0, 0.1978, 23.6, -230.25)" gradientUnits="userSpaceOnUse" id="gradient3" r="819.2" spreadMethod="pad">
      <stop offset="0.0" stop-color="#ffd50d"/>
      <stop offset="1.0" stop-color="#ffd50d" stop-opacity="0.0"/>
    </radialGradient>
    <radialGradient cx="0" cy="0" gradientTransform="matrix(0.2081, 0.0, 0.0, 0.1734, -24.95, -378.1)" gradientUnits="userSpaceOnUse" id="gradient4" r="819.2" spreadMethod="pad">
      <stop offset="0.0" stop-color="#ffd50d"/>
      <stop offset="1.0" stop-color="#ffd50d" stop-opacity="0.0"/>
    </radialGradient>
    <radialGradient cx="0" cy="0" gradientTransform="matrix(0.1907, 0.0, 0.0, 0.1589, -28.85, -358.7)" gradientUnits="userSpaceOnUse" id="gradient5" r="819.2" spreadMethod="pad">
      <stop offset="0.0" stop-color="#ffd50d"/>
      <stop offset="1.0" stop-color="#ffd50d" stop-opacity="0.0"/>
    </radialGradient>
    <radialGradient cx="0" cy="0" gradientTransform="matrix(0.1795, 0.0, 0.0, 0.1496, -41.8, -310.1)" gradientUnits="userSpaceOnUse" id="gradient6" r="819.2" spreadMethod="pad">
      <stop offset="0.0" stop-color="#ffd50d"/>
      <stop offset="1.0" stop-color="#ffd50d" stop-opacity="0.0"/>
    </radialGradient>
    <radialGradient cx="0" cy="0" gradientTransform="matrix(0.2846, 0.0, 0.0, 0.2372, -106.6, -318.75)" gradientUnits="userSpaceOnUse" id="gradient7" r="819.2" spreadMethod="pad">
      <stop offset="0.0" stop-color="#ffd50d"/>
      <stop offset="1.0" stop-color="#ffd50d" stop-opacity="0.0"/>
    </radialGradient>
    <radialGradient cx="0" cy="0" gradientTransform="matrix(0.1479, 0.0, 0.0, 0.1233, 24.9, -295.0)" gradientUnits="userSpaceOnUse" id="gradient8" r="819.2" spreadMethod="pad">
      <stop offset="0.0" stop-color="#ffd50d"/>
      <stop offset="1.0" stop-color="#ffd50d" stop-opacity="0.0"/>
    </radialGradient>
    <radialGradient cx="0" cy="0" gradientTransform="matrix(0.1377, 0.0, 0.0, 0.1147, -92.95, -368.45)" gradientUnits="userSpaceOnUse" id="gradient9" r="819.2" spreadMethod="pad">
      <stop offset="0.0" stop-color="#ffd50d"/>
      <stop offset="1.0" stop-color="#ffd50d" stop-opacity="0.0"/>
    </radialGradient>
    <radialGradient cx="0" cy="0" gradientTransform="matrix(0.1486, 0.0, 0.0, 0.1238, -90.35, -352.2)" gradientUnits="userSpaceOnUse" id="gradient10" r="819.2" spreadMethod="pad">
      <stop offset="0.0" stop-color="#ffd50d"/>
      <stop offset="1.0" stop-color="#ffd50d" stop-opacity="0.0"/>
    </radialGradient>
    <radialGradient cx="0" cy="0" gradientTransform="matrix(0.2221, 0.0, 0.0, 0.1851, -126.6, -336.55)" gradientUnits="userSpaceOnUse" id="gradient11" r="819.2" spreadMethod="pad">
      <stop offset="0.0" stop-color="#ffd50d"/>
      <stop offset="1.0" stop-color="#ffd50d" stop-opacity="0.0"/>
    </radialGradient>
    <radialGradient cx="0" cy="0" gradientTransform="matrix(0.166, 0.0, 0.0, 0.1383, -79.95, -275.05)" gradientUnits="userSpaceOnUse" id="gradient12" r="819.2" spreadMethod="pad">
      <stop offset="0.0" stop-color="#ffd50d"/>
      <stop offset="1.0" stop-color="#ffd50d" stop-opacity="0.0"/>
    </radialGradient>
    <radialGradient cx="0" cy="0" gradientTransform="matrix(0.2175, 0.0, 0.0, 0.1812, -121.85, -263.7)" gradientUnits="userSpaceOnUse" id="gradient13" r="819.2" spreadMethod="pad">
      <stop offset="0.0" stop-color="#ffd50d"/>
      <stop offset="1.0" stop-color="#ffd50d" stop-opacity="0.0"/>
    </radialGradient>
    <radialGradient cx="0" cy="0" gradientTransform="matrix(0.2186, 0.0, 0.0, 0.1822, -135.35, -270.15)" gradientUnits="userSpaceOnUse" id="gradient14" r="819.2" spreadMethod="pad">
      <stop offset="0.0" stop-color="#ffd50d"/>
      <stop offset="1.0" stop-color="#ffd50d" stop-opacity="0.0"/>
    </radialGradient>
    <radialGradient cx="0" cy="0" gradientTransform="matrix(0.2048, 0.0, 0.0, 0.1707, -27.55, -241.05)" gradientUnits="userSpaceOnUse" id="gradient15" r="819.2" spreadMethod="pad">
      <stop offset="0.0" stop-color="#ffd50d"/>
      <stop offset="1.0" stop-color="#ffd50d" stop-opacity="0.0"/>
    </radialGradient>
    <radialGradient cx="0" cy="0" gradientTransform="matrix(0.235, 0.0, 0.0, 0.1959, -78.05, -252.35)" gradientUnits="userSpaceOnUse" id="gradient16" r="819.2" spreadMethod="pad">
      <stop offset="0.0" stop-color="#ffd50d"/>
      <stop offset="1.0" stop-color="#ffd50d" stop-opacity="0.0"/>
    </radialGradient>
    <radialGradient cx="0" cy="0" gradientTransform="matrix(0.1582, 0.0, 0.0, 0.1318, 63.95, -30.95)" gradientUnits="userSpaceOnUse" id="gradient17" r="819.2" spreadMethod="pad">
      <stop offset="0.0" stop-color="#ffd50d"/>
      <stop offset="1.0" stop-color="#ffd50d" stop-opacity="0.0"/>
    </radialGradient>
    <radialGradient cx="0" cy="0" gradientTransform="matrix(0.1901, 0.0, 0.0, 0.1584, 81.5, -43.6)" gradientUnits="userSpaceOnUse" id="gradient18" r="819.2" spreadMethod="pad">
      <stop offset="0.0" stop-color="#ffd50d"/>
      <stop offset="1.0" stop-color="#ffd50d" stop-opacity="0.0"/>
    </radialGradient>
    <radialGradient cx="0" cy="0" gradientTransform="matrix(0.2552, 0.0, 0.0, 0.2127, 107.1, -142.35)" gradientUnits="userSpaceOnUse" id="gradient19" r="819.2" spreadMethod="pad">
      <stop offset="0.0" stop-color="#ffd50d"/>
      <stop offset="1.0" stop-color="#ffd50d" stop-opacity="0.0"/>
    </radialGradient>
    <radialGradient cx="0" cy="0" gradientTransform="matrix(0.3029, 0.0, 0.0, 0.2524, 74.0, -135.9)" gradientUnits="userSpaceOnUse" id="gradient20" r="819.2" spreadMethod="pad">
      <stop offset="0.0" stop-color="#ffd50d"/>
      <stop offset="1.0" stop-color="#ffd50d" stop-opacity="0.0"/>
    </radialGradient>
    <radialGradient cx="0" cy="0" gradientTransform="matrix(0.2572, 0.0, 0.0, 0.2143, 84.6, -121.5)" gradientUnits="userSpaceOnUse" id="gradient21" r="819.2" spreadMethod="pad">
      <stop offset="0.0" stop-color="#ffd50d"/>
      <stop offset="1.0" stop-color="#ffd50d" stop-opacity="0.0"/>
    </radialGradient>
    <radialGradient cx="0" cy="0" gradientTransform="matrix(0.2484, 0.0, 0.0, 0.207, 87.95, -106.4)" gradientUnits="userSpaceOnUse" id="gradient22" r="819.2" spreadMethod="pad">
      <stop offset="0.0" stop-color="#ffd50d"/>
      <stop offset="1.0" stop-color="#ffd50d" stop-opacity="0.0"/>
    </radialGradient>
    <radialGradient cx="0" cy="0" gradientTransform="matrix(0.1922, 0.0, 0.0, 0.1602, 63.05, -168.75)" gradientUnits="userSpaceOnUse" id="gradient23" r="819.2" spreadMethod="pad">
      <stop offset="0.0" stop-color="#ffd50d"/>
      <stop offset="1.0" stop-color="#ffd50d" stop-opacity="0.0"/>
    </radialGradient>
    <radialGradient cx="0" cy="0" gradientTransform="matrix(0.2079, 0.0, 0.0, 0.1732, 37.2, -161.75)" gradientUnits="userSpaceOnUse" id="gradient24" r="819.2" spreadMethod="pad">
      <stop offset="0.0" stop-color="#ffd50d"/>
      <stop offset="1.0" stop-color="#ffd50d" stop-opacity="0.0"/>
    </radialGradient>
    <radialGradient cx="0" cy="0" gradientTransform="matrix(0.2066, 0.0, 0.0, 0.1722, 59.85, -152.05)" gradientUnits="userSpaceOnUse" id="gradient25" r="819.2" spreadMethod="pad">
      <stop offset="0.0" stop-color="#ffd50d"/>
      <stop offset="1.0" stop-color="#ffd50d" stop-opacity="0.0"/>
    </radialGradient>
    <radialGradient cx="0" cy="0" gradientTransform="matrix(0.2194, 0.0, 0.0, 0.1829, -10.75, -183.85)" gradientUnits="userSpaceOnUse" id="gradient26" r="819.2" spreadMethod="pad">
      <stop offset="0.0" stop-color="#ffd50d"/>
      <stop offset="1.0" stop-color="#ffd50d" stop-opacity="0.0"/>
    </radialGradient>
    <radialGradient cx="0" cy="0" gradientTransform="matrix(0.2317, 0.0, 0.0, 0.1931, 124.7, -85.35)" gradientUnits="userSpaceOnUse" id="gradient27" r="819.2" spreadMethod="pad">
      <stop offset="0.0" stop-color="#ffd50d"/>
      <stop offset="1.0" stop-color="#ffd50d" stop-opacity="0.0"/>
    </radialGradient>
    <radialGradient cx="0" cy="0" gradientTransform="matrix(0.2325, 0.0, 0.0, 0.1938, 63.95, -15.55)" gradientUnits="userSpaceOnUse" id="gradient28" r="819.2" spreadMethod="pad">
      <stop offset="0.0" stop-color="#ffd50d"/>
      <stop offset="1.0" stop-color="#ffd50d" stop-opacity="0.0"/>
    </radialGradient>
    <radialGradient cx="0" cy="0" gradientTransform="matrix(0.2506, 0.0, 0.0, 0.2088, 122.4, -96.15)" gradientUnits="userSpaceOnUse" id="gradient29" r="819.2" spreadMethod="pad">
      <stop offset="0.0" stop-color="#ffd50d"/>
      <stop offset="1.0" stop-color="#ffd50d" stop-opacity="0.0"/>
    </radialGradient>
    <radialGradient cx="0" cy="0" gradientTransform="matrix(0.215, 0.0, 0.0, 0.1792, -45.05, -196.8)" gradientUnits="userSpaceOnUse" id="gradient30" r="819.2" spreadMethod="pad">
      <stop offset="0.0" stop-color="#ffd50d"/>
      <stop offset="1.0" stop-color="#ffd50d" stop-opacity="0.0"/>
    </radialGradient>
    <radialGradient cx="0" cy="0" gradientTransform="matrix(0.2301, 0.0, 0.0, 0.1918, 154.7, -70.9)" gradientUnits="userSpaceOnUse" id="gradient31" r="819.2" spreadMethod="pad">
      <stop offset="0.0" stop-color="#ffd50d"/>
      <stop offset="1.0" stop-color="#ffd50d" stop-opacity="0.0"/>
    </radialGradient>
    <radialGradient cx="0" cy="0" gradientTransform="matrix(0.2238, 0.0, 0.0, 0.1865, 148.35, -57.1)" gradientUnits="userSpaceOnUse" id="gradient32" r="819.2" spreadMethod="pad">
      <stop offset="0.0" stop-color="#ffd50d"/>
      <stop offset="1.0" stop-color="#ffd50d" stop-opacity="0.0"/>
    </radialGradient>
    <radialGradient cx="0" cy="0" gradientTransform="matrix(0.2664, 0.0, 0.0, 0.222, 82.7, 68.6)" gradientUnits="userSpaceOnUse" id="gradient33" r="819.2" spreadMethod="pad">
      <stop offset="0.0" stop-color="#ffd50d"/>
      <stop offset="1.0" stop-color="#ffd50d" stop-opacity="0.0"/>
    </radialGradient>
    <radialGradient cx="0" cy="0" gradientTransform="matrix(0.2514, 0.0, 0.0, 0.2095, 97.45, 80.5)" gradientUnits="userSpaceOnUse" id="gradient34" r="819.2" spreadMethod="pad">
      <stop offset="0.0" stop-color="#ffd50d"/>
      <stop offset="1.0" stop-color="#ffd50d" stop-opacity="0.0"/>
    </radialGradient>
    <radialGradient cx="0" cy="0" gradientTransform="matrix(0.2189, 0.0, 0.0, 0.1824, 114.3, 60.55)" gradientUnits="userSpaceOnUse" id="gradient35" r="819.2" spreadMethod="pad">
      <stop offset="0.0" stop-color="#ffd50d"/>
      <stop offset="1.0" stop-color="#ffd50d" stop-opacity="0.0"/>
    </radialGradient>
    <radialGradient cx="0" cy="0" gradientTransform="matrix(0.2449, 0.0, 0.0, 0.2041, 5.15, 28.95)" gradientUnits="userSpaceOnUse" id="gradient36" r="819.2" spreadMethod="pad">
      <stop offset="0.0" stop-color="#ffd50d"/>
      <stop offset="1.0" stop-color="#ffd50d" stop-opacity="0.0"/>
    </radialGradient>
    <radialGradient cx="0" cy="0" gradientTransform="matrix(0.279, 0.0, 0.0, 0.2325, 7.8, 13.0)" gradientUnits="userSpaceOnUse" id="gradient37" r="819.2" spreadMethod="pad">
      <stop offset="0.0" stop-color="#ffd50d"/>
      <stop offset="1.0" stop-color="#ffd50d" stop-opacity="0.0"/>
    </radialGradient>
    <radialGradient cx="0" cy="0" gradientTransform="matrix(0.2224, 0.0, 0.0, 0.1853, 48.85, 50.3)" gradientUnits="userSpaceOnUse" id="gradient38" r="819.2" spreadMethod="pad">
      <stop offset="0.0" stop-color="#ffd50d"/>
      <stop offset="1.0" stop-color="#ffd50d" stop-opacity="0.0"/>
    </radialGradient>
    <radialGradient cx="0" cy="0" gradientTransform="matrix(0.2272, 0.0, 0.0, 0.1893, -14.45, 166.25)" gradientUnits="userSpaceOnUse" id="gradient39" r="819.2" spreadMethod="pad">
      <stop offset="0.0" stop-color="#ffd50d"/>
      <stop offset="1.0" stop-color="#ffd50d" stop-opacity="0.0"/>
    </radialGradient>
    <radialGradient cx="0" cy="0" gradientTransform="matrix(0.2395, 0.0, 0.0, 0.1996, 41.05, 178.6)" gradientUnits="userSpaceOnUse" id="gradient40" r="819.2" spreadMethod="pad">
      <stop offset="0.0" stop-color="#ffd50d"/>
      <stop offset="1.0" stop-color="#ffd50d" stop-opacity="0.0"/>
    </radialGradient>
    <radialGradient cx="0" cy="0" gradientTransform="matrix(0.2429, 0.0, 0.0, 0.2024, 117.45, 106.95)" gradientUnits="userSpaceOnUse" id="gradient41" r="819.2" spreadMethod="pad">
      <stop offset="0.0" stop-color="#ffd50d"/>
      <stop offset="1.0" stop-color="#ffd50d" stop-opacity="0.0"/>
    </radialGradient>
    <radialGradient cx="0" cy="0" gradientTransform="matrix(0.2364, 0.0, 0.0, 0.197, 102.45, 118.95)" gradientUnits="userSpaceOnUse" id="gradient42" r="819.2" spreadMethod="pad">
      <stop offset="0.0" stop-color="#ffd50d"/>
      <stop offset="1.0" stop-color="#ffd50d" stop-opacity="0.0"/>
    </radialGradient>
    <radialGradient cx="0" cy="0" gradientTransform="matrix(0.2791, 0.0, 0.0, 0.2326, 46.55, 129.7)" gradientUnits="userSpaceOnUse" id="gradient43" r="819.2" spreadMethod="pad">
      <stop offset="0.0" stop-color="#ffd50d"/>
      <stop offset="1.0" stop-color="#ffd50d" stop-opacity="0.0"/>
    </radialGradient>
    <radialGradient cx="0" cy="0" gradientTransform="matrix(0.2176, 0.0, 0.0, 0.1813, 87.65, 188.9)" gradientUnits="userSpaceOnUse" id="gradient44" r="819.2" spreadMethod="pad">
      <stop offset="0.0" stop-color="#ffd50d"/>
      <stop offset="1.0" stop-color="#ffd50d" stop-opacity="0.0"/>
    </radialGradient>
    <radialGradient cx="0" cy="0" gradientTransform="matrix(0.2651, 0.0, 0.0, 0.2209, 28.55, 145.9)" gradientUnits="userSpaceOnUse" id="gradient45" r="819.2" spreadMethod="pad">
      <stop offset="0.0" stop-color="#ffd50d"/>
      <stop offset="1.0" stop-color="#ffd50d" stop-opacity="0.0"/>
    </radialGradient>
    <radialGradient cx="0" cy="0" gradientTransform="matrix(0.1355, 0.0, 0.0, 0.1129, 152.25, 92.9)" gradientUnits="userSpaceOnUse" id="gradient46" r="819.2" spreadMethod="pad">
      <stop offset="0.0" stop-color="#ffd50d"/>
      <stop offset="1.0" stop-color="#ffd50d" stop-opacity="0.0"/>
    </radialGradient>
    <radialGradient cx="0" cy="0" gradientTransform="matrix(0.1717, 0.0, 0.0, 0.1431, -47.2, 5.4)" gradientUnits="userSpaceOnUse" id="gradient47" r="819.2" spreadMethod="pad">
      <stop offset="0.0" stop-color="#ffd50d"/>
      <stop offset="1.0" stop-color="#ffd50d" stop-opacity="0.0"/>
    </radialGradient>
    <radialGradient cx="0" cy="0" gradientTransform="matrix(0.1891, 0.0, 0.0, 0.1576, 115.95, 226.65)" gradientUnits="userSpaceOnUse" id="gradient48" r="819.2" spreadMethod="pad">
      <stop offset="0.0" stop-color="#ffd50d"/>
      <stop offset="1.0" stop-color="#ffd50d" stop-opacity="0.0"/>
    </radialGradient>
    <radialGradient cx="0" cy="0" gradientTransform="matrix(0.2254, 0.0, 0.0, 0.1878, 6.15, 238.0)" gradientUnits="userSpaceOnUse" id="gradient49" r="819.2" spreadMethod="pad">
      <stop offset="0.0" stop-color="#ffd50d"/>
      <stop offset="1.0" stop-color="#ffd50d" stop-opacity="0.0"/>
    </radialGradient>
    <radialGradient cx="0" cy="0" gradientTransform="matrix(0.2539, 0.0, 0.0, 0.2116, -10.8, 281.15)" gradientUnits="userSpaceOnUse" id="gradient50" r="819.2" spreadMethod="pad">
      <stop offset="0.0" stop-color="#ffd50d"/>
      <stop offset="1.0" stop-color="#ffd50d" stop-opacity="0.0"/>
    </radialGradient>
    <radialGradient cx="0" cy="0" gradientTransform="matrix(0.2442, 0.0, 0.0, 0.2035, -4.9, 258.35)" gradientUnits="userSpaceOnUse" id="gradient51" r="819.2" spreadMethod="pad">
      <stop offset="0.0" stop-color="#ffd50d"/>
      <stop offset="1.0" stop-color="#ffd50d" stop-opacity="0.0"/>
    </radialGradient>
    <radialGradient cx="0" cy="0" gradientTransform="matrix(0.2806, 0.0, 0.0, 0.2338, -30.1, 313.55)" gradientUnits="userSpaceOnUse" id="gradient52" r="819.2" spreadMethod="pad">
      <stop offset="0.0" stop-color="#ffd50d"/>
      <stop offset="1.0" stop-color="#ffd50d" stop-opacity="0.0"/>
    </radialGradient>
    <radialGradient cx="0" cy="0" gradientTransform="matrix(0.3205, 0.0, 0.0, 0.2671, 55.5, 300.6)" gradientUnits="userSpaceOnUse" id="gradient53" r="819.2" spreadMethod="pad">
      <stop offset="0.0" stop-color="#ffd50d"/>
      <stop offset="1.0" stop-color="#ffd50d" stop-opacity="0.0"/>
    </radialGradient>
    <radialGradient cx="0" cy="0" gradientTransform="matrix(0.188, 0.0, 0.0, 0.1567, 127.8, 207.25)" gradientUnits="userSpaceOnUse" id="gradient54" r="819.2" spreadMethod="pad">
      <stop offset="0.0" stop-color="#ffd50d"/>
      <stop offset="1.0" stop-color="#ffd50d" stop-opacity="0.0"/>
    </radialGradient>
  </defs>
</svg>
