<?xml version="1.0" encoding="UTF-8" standalone="no"?>
<svg xmlns:xlink="http://www.w3.org/1999/xlink" height="70.0px" width="102.0px" xmlns="http://www.w3.org/2000/svg">
  <g transform="matrix(1.0, 0.0, 0.0, 1.0, 51.0, 35.0)">
    <path d="M51.0 -30.0 L51.0 30.0 Q51.0 35.0 46.0 35.0 L-46.0 35.0 Q-51.0 35.0 -51.0 30.0 L-51.0 -30.0 Q-51.0 -35.0 -46.0 -35.0 L46.0 -35.0 Q51.0 -35.0 51.0 -30.0" fill="#000000" fill-rule="evenodd" stroke="none"/>
    <path d="M46.0 -32.0 Q48.0 -32.0 48.0 -30.0 L48.0 30.0 Q48.0 32.0 46.0 32.0 L-46.0 32.0 Q-48.0 32.0 -48.0 30.0 L-48.0 -30.0 Q-48.0 -32.0 -46.0 -32.0 L46.0 -32.0" fill="url(#gradient0)" fill-rule="evenodd" stroke="none"/>
    <path d="M-48.45 -5.5 L-4.0 -32.0 11.55 -32.0 -48.45 3.8 -48.45 -5.5" fill="#ffffff" fill-rule="evenodd" stroke="none"/>
    <path d="M3.6 -10.45 Q5.35 -12.2 7.85 -12.2 10.5 -12.2 12.1 -10.45 12.85 -9.65 13.1 -8.45 L13.35 -6.2 Q13.4 -8.25 15.6 -10.45 17.35 -12.2 19.85 -12.2 22.35 -12.2 24.1 -10.45 25.6 -8.95 25.85 -6.2 26.15 -2.6 20.75 2.2 15.1 7.2 14.85 10.4 9.5 7.65 5.5 2.5 1.5 -2.6 1.85 -6.2 2.1 -8.95 3.6 -10.45 M31.95 5.1 Q33.3 4.9 34.45 5.5 34.9 5.75 35.35 6.1 36.6 7.15 37.0 9.25 37.4 11.7 34.45 15.2 L33.75 16.0 Q29.85 20.2 29.9 22.6 25.65 21.0 22.2 17.35 18.7 13.8 18.7 11.05 18.7 8.95 19.7 7.7 20.95 6.25 22.85 6.0 24.8 5.8 26.2 7.1 26.8 7.55 27.05 8.4 L27.5 10.2 Q27.35 8.6 28.9 6.75 30.0 5.3 31.95 5.1" fill="#ffffff" fill-rule="evenodd" stroke="none"/>
    <path d="M-40.7 -15.75 L-34.2 -16.85 -33.15 -17.85 -33.1 -17.9 -31.7 -18.25 -27.5 -23.35 Q-26.35 -24.8 -25.1 -24.35 -24.1 -24.15 -23.1 -22.5 L-20.15 -17.35 -20.2 -17.35 Q-19.35 -16.0 -19.6 -14.85 -19.8 -13.6 -21.15 -13.2 L-16.5 -11.8 -16.0 -11.45 -15.8 -10.8 -16.0 -10.2 -20.45 -4.55 -20.9 -4.25 -21.5 -4.2 -21.95 -4.5 -28.5 -11.5 -29.2 -10.95 -29.25 -10.95 -29.8 -10.7 -27.1 -1.6 -27.1 -1.05 -27.4 -0.6 Q-27.6 -0.4 -27.9 -0.35 L-35.0 0.75 -35.6 0.65 -36.05 0.2 -36.1 -0.45 -35.05 -5.25 Q-36.0 -4.25 -37.3 -4.7 L-37.35 -4.7 Q-38.45 -5.1 -39.2 -6.4 L-42.15 -11.55 Q-42.95 -12.9 -42.65 -13.95 -42.5 -15.25 -40.8 -15.75 L-40.7 -15.75" fill="#8c7373" fill-rule="evenodd" stroke="none"/>
    <path d="M-41.3 -12.05 Q-41.85 -13.0 -41.7 -13.75 -41.55 -14.5 -40.55 -14.8 L-33.5 -16.0 Q-33.25 -16.7 -32.65 -17.0 L-31.25 -17.25 -26.75 -22.75 Q-25.4 -24.4 -24.0 -22.0 L-21.05 -16.85 Q-20.45 -15.85 -20.6 -15.05 -20.75 -14.25 -21.8 -14.1 L-25.45 -13.45 -16.8 -10.85 -21.25 -5.2 -28.55 -12.95 -28.8 -12.9 Q-29.1 -12.2 -29.7 -11.85 L-31.05 -11.65 -31.1 -11.55 -28.05 -1.35 -35.15 -0.25 -33.15 -9.1 -35.6 -6.15 Q-36.2 -5.4 -37.0 -5.65 -37.8 -5.95 -38.35 -6.9 L-41.3 -12.05" fill="#ffffff" fill-rule="evenodd" stroke="none"/>
  </g>
  <defs>
    <linearGradient gradientTransform="matrix(-0.0294, -0.0559, 0.0345, -0.0182, 0.0, 0.0)" gradientUnits="userSpaceOnUse" id="gradient0" spreadMethod="pad" x1="-819.2" x2="819.2">
      <stop offset="0.0" stop-color="#6c1a1a"/>
      <stop offset="1.0" stop-color="#ac1313"/>
    </linearGradient>
  </defs>
</svg>
