<?xml version="1.0" encoding="UTF-8" standalone="no"?>
<svg xmlns:xlink="http://www.w3.org/1999/xlink" height="72.0px" width="6.0px" xmlns="http://www.w3.org/2000/svg">
  <g transform="matrix(1.0, 0.0, 0.0, 1.0, 3.0, 36.0)">
    <path d="M3.0 -36.0 L3.0 36.0 0.0 36.0 -3.0 36.0 -3.0 -36.0 0.0 -36.0 3.0 -36.0" fill="url(#gradient0)" fill-rule="evenodd" stroke="none"/>
    <path d="M1.0 -30.3 L-1.0 -30.3 -1.0 -33.3 1.0 -33.3 1.0 -30.3 M1.0 -22.3 L-1.0 -22.3 -1.0 -25.3 1.0 -25.3 1.0 -22.3 M1.0 -14.3 L-1.0 -14.3 -1.0 -17.3 1.0 -17.3 1.0 -14.3 M1.0 -6.3 L-1.0 -6.3 -1.0 -9.3 1.0 -9.3 1.0 -6.3 M-1.0 6.7 L1.0 6.7 1.0 9.7 -1.0 9.7 -1.0 6.7 M-1.0 14.7 L1.0 14.7 1.0 17.7 -1.0 17.7 -1.0 14.7 M-1.0 22.7 L1.0 22.7 1.0 25.7 -1.0 25.7 -1.0 22.7 M-1.0 30.7 L1.0 30.7 1.0 33.7 -1.0 33.7 -1.0 30.7 M1.0 1.7 L-1.0 1.7 -1.0 -1.3 1.0 -1.3 1.0 1.7" fill="#000000" fill-opacity="0.101960786" fill-rule="evenodd" stroke="none"/>
  </g>
  <defs>
    <linearGradient gradientTransform="matrix(0.0033, 0.0, 0.0, 0.0439, 0.0, 0.0)" gradientUnits="userSpaceOnUse" id="gradient0" spreadMethod="pad" x1="-819.2" x2="819.2">
      <stop offset="0.0" stop-color="#2d3e3c"/>
      <stop offset="0.4980392156862745" stop-color="#5e847c"/>
      <stop offset="1.0" stop-color="#2c3f3d"/>
    </linearGradient>
  </defs>
</svg>
