<?xml version="1.0" encoding="UTF-8" standalone="no"?>
<svg xmlns:xlink="http://www.w3.org/1999/xlink" height="97.0px" width="111.0px" xmlns="http://www.w3.org/2000/svg">
  <g transform="matrix(1.0, 0.0, 0.0, 1.0, 55.5, 48.5)">
    <path d="M6.55 -48.45 L7.3 -48.15 8.2 -47.15 55.1 33.65 55.15 33.75 55.5 34.9 Q55.55 35.6 55.2 36.2 L49.2 47.2 48.5 48.05 47.2 48.5 47.0 48.5 46.85 48.5 -46.85 48.5 -47.0 48.5 -47.3 48.5 -48.45 48.05 -49.15 47.3 -49.2 47.2 -55.2 36.2 Q-55.55 35.6 -55.5 34.9 L-55.15 33.75 -55.05 33.65 -8.2 -47.15 -7.3 -48.15 -6.95 -48.3 -6.8 -48.35 -6.65 -48.4 -6.15 -48.5 -6.0 -48.5 6.0 -48.5 6.1 -48.5 6.15 -48.5 6.55 -48.45" fill="#000000" fill-rule="evenodd" stroke="none"/>
    <path d="M6.0 -46.0 L5.0 -28.0 0.0 -28.0 -5.0 -28.0 -6.0 -46.0 0.0 -46.0 6.0 -46.0" fill="url(#gradient0)" fill-rule="evenodd" stroke="none"/>
    <path d="M-33.0 36.0 L-47.0 46.0 -53.0 35.0 -38.0 28.0 -33.0 36.0" fill="url(#gradient1)" fill-rule="evenodd" stroke="none"/>
    <path d="M53.0 35.0 L47.0 46.0 33.0 36.0 38.0 28.0 53.0 35.0" fill="url(#gradient2)" fill-rule="evenodd" stroke="none"/>
    <path d="M-6.0 -46.0 L-5.0 -28.0 -38.0 28.0 -53.0 35.0 -6.0 -46.0" fill="url(#gradient3)" fill-rule="evenodd" stroke="none"/>
    <path d="M6.0 -46.0 L53.0 35.0 38.0 28.0 5.0 -28.0 6.0 -46.0" fill="url(#gradient4)" fill-rule="evenodd" stroke="none"/>
    <path d="M33.0 36.0 L47.0 46.0 0.0 46.0 -47.0 46.0 -33.0 36.0 0.0 36.0 33.0 36.0" fill="url(#gradient5)" fill-rule="evenodd" stroke="none"/>
    <path d="M-35.65 28.0 L-31.9 34.0 31.9 34.0 35.65 28.0 3.85 -26.0 -3.85 -26.0 -35.65 28.0 M0.0 -28.0 L5.0 -28.0 38.0 28.0 33.0 36.0 0.0 36.0 -33.0 36.0 -38.0 28.0 -5.0 -28.0 0.0 -28.0" fill="url(#gradient6)" fill-rule="evenodd" stroke="none"/>
    <path d="M18.6 -4.8 L20.85 -5.0 24.9 1.95 23.7 3.85 18.6 -4.8 M4.0 38.0 L-4.0 38.0 -5.0 36.0 5.0 36.0 4.0 38.0 M-18.65 -4.85 L-23.75 3.75 -24.95 1.85 -20.9 -5.05 -18.65 -4.85" fill="#000000" fill-rule="evenodd" stroke="none"/>
    <path d="M0.0 -13.8 L3.25 -13.8 24.7 22.6 21.45 27.8 0.0 27.8 -21.45 27.8 -24.7 22.6 -3.25 -13.8 0.0 -13.8" fill="url(#gradient7)" fill-rule="evenodd" stroke="none"/>
    <path d="M8.4 -12.0 L8.4 6.6 23.65 15.55 15.15 30.05 -0.1 21.15 -15.15 30.05 -23.65 15.55 -8.4 6.55 -8.4 -12.0 8.4 -12.0 M-0.1 17.95 L5.7 8.2 -5.85 8.2 -0.1 17.95" fill="url(#gradient8)" fill-rule="evenodd" stroke="none"/>
    <path d="M5.9 8.2 L8.4 6.6 M0.0 18.25 L0.0 21.25 M-8.4 6.55 L-5.9 8.2" fill="none" stroke="#000000" stroke-linecap="round" stroke-linejoin="round" stroke-width="0.5"/>
    <path d="M0.4 17.55 L-0.4 17.55 -22.0 30.0 -27.05 21.3 -5.45 8.9 -5.05 8.2 -5.1 -15.0 5.0 -15.0 5.05 8.2 5.45 8.85 27.05 21.3 22.0 30.0 0.4 17.55" fill="url(#gradient9)" fill-rule="evenodd" stroke="none"/>
    <path d="M2.1 15.5 L23.2 27.85 M3.25 13.2 L25.4 26.2 M4.6 11.1 L25.7 23.45 M0.0 7.95 L0.0 -15.0 M2.5 8.2 L2.5 -13.95 M-2.1 15.5 L-23.25 27.8 M-3.25 13.2 L-25.4 26.15 M-4.6 11.1 L-25.75 23.4 M-2.5 8.2 L-2.5 -13.95" fill="none" stroke="url(#gradient10)" stroke-linecap="round" stroke-linejoin="round" stroke-width="0.5"/>
    <path d="M23.8 24.05 L23.65 24.0 1.0 -14.0 -1.0 -14.0 -23.6 24.0 -23.75 24.05 -22.65 25.9 -22.6 25.85 22.7 25.85 23.8 24.05 Z" fill="none" stroke="#000000" stroke-linecap="round" stroke-linejoin="round" stroke-opacity="0.4" stroke-width="2.0"/>
    <path d="M24.7 22.6 L35.65 28.0 31.9 34.0 21.45 27.8 24.7 22.6" fill="url(#gradient11)" fill-rule="evenodd" stroke="none"/>
    <path d="M-24.7 22.6 L-21.55 27.6 -31.9 34.0 -35.65 28.0 -24.7 22.6" fill="url(#gradient12)" fill-rule="evenodd" stroke="none"/>
    <path d="M1.0 -14.0 L-1.0 -14.0 -3.85 -26.0 3.85 -26.0 1.0 -14.0" fill="url(#gradient13)" fill-rule="evenodd" stroke="none"/>
    <path d="M1.0 -14.0 L3.85 -26.0 35.65 28.0 23.65 24.0 1.0 -14.0" fill="url(#gradient14)" fill-rule="evenodd" stroke="none"/>
    <path d="M-3.85 -26.0 L-1.0 -14.0 -23.6 24.0 -35.65 28.0 -3.85 -26.0" fill="url(#gradient15)" fill-rule="evenodd" stroke="none"/>
    <path d="M31.9 34.0 L-31.9 34.0 -22.6 25.85 22.7 25.85 31.9 34.0" fill="url(#gradient16)" fill-rule="evenodd" stroke="none"/>
    <path d="M0.0 18.25 L-5.9 8.2 5.9 8.2 0.0 18.25 Z" fill="none" stroke="#64f2fd" stroke-linecap="round" stroke-linejoin="round" stroke-width="1.0"/>
    <path d="M0.0 18.25 L-5.9 8.2 5.9 8.2 0.0 18.25" fill="url(#gradient17)" fill-rule="evenodd" stroke="none"/>
    <path d="M4.35 -26.85 L4.7 -26.5 36.45 27.4 36.5 27.45 36.55 27.55 36.65 28.0 36.5 28.55 32.85 34.4 32.8 34.45 32.45 34.85 31.9 35.0 -31.9 35.0 -32.4 34.85 -32.8 34.45 -32.8 34.4 -36.5 28.55 -36.65 28.0 -36.55 27.55 -36.5 27.45 -36.45 27.4 -4.7 -26.5 -4.35 -26.85 -3.85 -27.0 3.85 -27.0 4.35 -26.85 M35.65 28.0 L35.6 27.9 3.85 -26.0 -3.85 -26.0 -35.6 27.9 -35.65 28.0 -31.9 33.95 -31.9 34.0 31.9 34.0 31.95 33.95 35.65 28.0" fill="#000000" fill-opacity="0.3019608" fill-rule="evenodd" stroke="none"/>
    <path d="M35.65 28.0 L31.95 33.95 19.1 22.5 35.6 27.9 35.65 28.0" fill="#b3dae9" fill-opacity="0.6" fill-rule="evenodd" stroke="none"/>
    <path d="M0.0 -10.0 L-3.95 -25.8 -3.85 -26.0 3.85 -26.0 3.95 -25.8 0.0 -10.0" fill="url(#gradient18)" fill-rule="evenodd" stroke="none"/>
    <path d="M-31.9 33.95 L-35.65 28.0 -35.6 27.9 -18.95 22.5 -31.9 33.95" fill="url(#gradient19)" fill-rule="evenodd" stroke="none"/>
    <path d="M0.0 -10.0 L3.95 -25.8 35.6 27.9 19.1 22.5 0.0 -10.0" fill="url(#gradient20)" fill-rule="evenodd" stroke="none"/>
    <path d="M0.0 -10.0 L-18.95 22.5 -35.6 27.9 -3.95 -25.8 0.0 -10.0" fill="url(#gradient21)" fill-rule="evenodd" stroke="none"/>
    <path d="M31.95 33.95 L31.9 34.0 -31.9 34.0 -31.9 33.95 -18.95 22.5 19.1 22.5 31.95 33.95" fill="url(#gradient22)" fill-rule="evenodd" stroke="none"/>
    <path d="M-18.95 22.5 L0.0 -10.0 19.1 22.5 -18.95 22.5" fill="url(#gradient23)" fill-rule="evenodd" stroke="none"/>
  </g>
  <defs>
    <linearGradient gradientTransform="matrix(0.0, -0.011, 0.011, 0.0, 0.0, -37.0)" gradientUnits="userSpaceOnUse" id="gradient0" spreadMethod="pad" x1="-819.2" x2="819.2">
      <stop offset="0.0" stop-color="#dbcd98"/>
      <stop offset="0.8509803921568627" stop-color="#c3b47c"/>
    </linearGradient>
    <linearGradient gradientTransform="matrix(-0.0108, 0.0066, -0.0057, -0.0093, -43.4, 36.55)" gradientUnits="userSpaceOnUse" id="gradient1" spreadMethod="pad" x1="-819.2" x2="819.2">
      <stop offset="0.0" stop-color="#6a6146"/>
      <stop offset="1.0" stop-color="#897c58"/>
    </linearGradient>
    <linearGradient gradientTransform="matrix(-0.0101, -0.0062, 0.0057, -0.0094, 43.0, 37.05)" gradientUnits="userSpaceOnUse" id="gradient2" spreadMethod="pad" x1="-819.2" x2="819.2">
      <stop offset="0.0" stop-color="#beaf79"/>
      <stop offset="0.8392156862745098" stop-color="#978960"/>
    </linearGradient>
    <linearGradient gradientTransform="matrix(0.0066, 0.0038, -0.0247, 0.0427, -25.9, -2.25)" gradientUnits="userSpaceOnUse" id="gradient3" spreadMethod="pad" x1="-819.2" x2="819.2">
      <stop offset="0.0" stop-color="#827853"/>
      <stop offset="1.0" stop-color="#9d9164"/>
    </linearGradient>
    <linearGradient gradientTransform="matrix(0.0058, -0.0034, 0.0249, 0.0426, 25.85, -2.2)" gradientUnits="userSpaceOnUse" id="gradient4" spreadMethod="pad" x1="-819.2" x2="819.2">
      <stop offset="0.0" stop-color="#ddcea2"/>
      <stop offset="1.0" stop-color="#d7c78c"/>
    </linearGradient>
    <linearGradient gradientTransform="matrix(0.0, -0.0061, 0.0061, 0.0, 0.0, 41.0)" gradientUnits="userSpaceOnUse" id="gradient5" spreadMethod="pad" x1="-819.2" x2="819.2">
      <stop offset="0.0" stop-color="#8b7d56"/>
      <stop offset="0.8509803921568627" stop-color="#796d4d"/>
    </linearGradient>
    <linearGradient gradientTransform="matrix(-2.0E-4, -0.0391, 0.0391, -2.0E-4, 0.0, 4.0)" gradientUnits="userSpaceOnUse" id="gradient6" spreadMethod="pad" x1="-819.2" x2="819.2">
      <stop offset="0.30980392156862746" stop-color="#dcce9b"/>
      <stop offset="1.0" stop-color="#5f583c"/>
    </linearGradient>
    <linearGradient gradientTransform="matrix(0.0, -0.0256, 0.0254, 0.0, 0.0, 6.0)" gradientUnits="userSpaceOnUse" id="gradient7" spreadMethod="pad" x1="-819.2" x2="819.2">
      <stop offset="0.0" stop-color="#434343"/>
      <stop offset="0.6" stop-color="#000000"/>
    </linearGradient>
    <linearGradient gradientTransform="matrix(0.0, -0.0269, 0.0257, 0.0, -0.05, 6.0)" gradientUnits="userSpaceOnUse" id="gradient8" spreadMethod="pad" x1="-819.2" x2="819.2">
      <stop offset="0.03529411764705882" stop-color="#69c7bd"/>
      <stop offset="0.47058823529411764" stop-color="#418585"/>
      <stop offset="1.0" stop-color="#234547"/>
    </linearGradient>
    <linearGradient gradientTransform="matrix(1.0E-4, -0.0262, 0.0275, 1.0E-4, 0.0, 7.5)" gradientUnits="userSpaceOnUse" id="gradient9" spreadMethod="pad" x1="-819.2" x2="819.2">
      <stop offset="0.0" stop-color="#c9c1ad"/>
      <stop offset="0.6549019607843137" stop-color="#897c58"/>
    </linearGradient>
    <radialGradient cx="0" cy="0" gradientTransform="matrix(0.0396, 0.0, 0.0, 0.0396, 0.0, 12.0)" gradientUnits="userSpaceOnUse" id="gradient10" r="819.2" spreadMethod="pad">
      <stop offset="0.3058823529411765" stop-color="#61fad2"/>
      <stop offset="0.6509803921568628" stop-color="#05a588"/>
    </radialGradient>
    <linearGradient gradientTransform="matrix(0.0062, 0.0043, -0.0039, 0.0058, 28.55, 28.4)" gradientUnits="userSpaceOnUse" id="gradient11" spreadMethod="pad" x1="-819.2" x2="819.2">
      <stop offset="0.01568627450980392" stop-color="#5a696b"/>
      <stop offset="0.9882352941176471" stop-color="#b1bebd"/>
    </linearGradient>
    <linearGradient gradientTransform="matrix(0.0069, -0.0052, 0.0042, 0.0055, -28.6, 28.3)" gradientUnits="userSpaceOnUse" id="gradient12" spreadMethod="pad" x1="-819.2" x2="819.2">
      <stop offset="0.0" stop-color="#d8dede"/>
      <stop offset="1.0" stop-color="#b1bebe"/>
    </linearGradient>
    <linearGradient gradientTransform="matrix(-8.0E-4, 0.0073, -0.0073, -8.0E-4, 0.4, -19.95)" gradientUnits="userSpaceOnUse" id="gradient13" spreadMethod="pad" x1="-819.2" x2="819.2">
      <stop offset="0.0" stop-color="#475254"/>
      <stop offset="1.0" stop-color="#4b5655"/>
    </linearGradient>
    <linearGradient gradientTransform="matrix(0.0047, -0.0028, 0.0169, 0.0282, 16.2, 4.35)" gradientUnits="userSpaceOnUse" id="gradient14" spreadMethod="pad" x1="-819.2" x2="819.2">
      <stop offset="0.0" stop-color="#4e595c"/>
      <stop offset="0.8509803921568627" stop-color="#6f8082"/>
    </linearGradient>
    <linearGradient gradientTransform="matrix(-0.0211, 0.0, 0.0, -0.033, -18.35, 1.0)" gradientUnits="userSpaceOnUse" id="gradient15" spreadMethod="pad" x1="-819.2" x2="819.2">
      <stop offset="0.0" stop-color="#5a656b"/>
      <stop offset="0.8392156862745098" stop-color="#86969b"/>
    </linearGradient>
    <linearGradient gradientTransform="matrix(0.0, 0.0048, -0.005, 0.0, 0.05, 29.95)" gradientUnits="userSpaceOnUse" id="gradient16" spreadMethod="pad" x1="-819.2" x2="819.2">
      <stop offset="0.0196078431372549" stop-color="#80898c"/>
      <stop offset="1.0" stop-color="#ccd3d5"/>
    </linearGradient>
    <linearGradient gradientTransform="matrix(0.0, -0.0063, 0.0061, 0.0, 0.0, 13.2)" gradientUnits="userSpaceOnUse" id="gradient17" spreadMethod="pad" x1="-819.2" x2="819.2">
      <stop offset="0.0" stop-color="#b8edfe"/>
      <stop offset="0.5333333333333333" stop-color="#31eaf9"/>
      <stop offset="0.9529411764705882" stop-color="#059695"/>
      <stop offset="0.9764705882352941" stop-color="#ffffff"/>
    </linearGradient>
    <linearGradient gradientTransform="matrix(1.0E-4, -0.0098, 0.0098, 0.0, 0.0, -18.0)" gradientUnits="userSpaceOnUse" id="gradient18" spreadMethod="pad" x1="-819.2" x2="819.2">
      <stop offset="0.011764705882352941" stop-color="#b6dcec" stop-opacity="0.6"/>
      <stop offset="1.0" stop-color="#c4e3ef" stop-opacity="0.6"/>
    </linearGradient>
    <linearGradient gradientTransform="matrix(0.0085, -0.0055, 0.0038, 0.0058, -27.5, 28.25)" gradientUnits="userSpaceOnUse" id="gradient19" spreadMethod="pad" x1="-819.2" x2="819.2">
      <stop offset="0.0" stop-color="#298bab" stop-opacity="0.5019608"/>
      <stop offset="1.0" stop-color="#1c576a" stop-opacity="0.5019608"/>
    </linearGradient>
    <linearGradient gradientTransform="matrix(0.0251, 0.0066, -0.0083, 0.0317, 17.8, 1.05)" gradientUnits="userSpaceOnUse" id="gradient20" spreadMethod="pad" x1="-819.2" x2="819.2">
      <stop offset="0.17254901960784313" stop-color="#ffffff"/>
      <stop offset="0.792156862745098" stop-color="#e9f1f0"/>
    </linearGradient>
    <linearGradient gradientTransform="matrix(0.0217, 0.0, 0.0, 0.0328, -17.8, 1.05)" gradientUnits="userSpaceOnUse" id="gradient21" spreadMethod="pad" x1="-819.2" x2="819.2">
      <stop offset="0.0" stop-color="#cee6f0" stop-opacity="0.4"/>
      <stop offset="1.0" stop-color="#cee6f0" stop-opacity="0.7019608"/>
    </linearGradient>
    <linearGradient gradientTransform="matrix(0.0, -0.007, 0.007, 0.0, 0.1, 28.25)" gradientUnits="userSpaceOnUse" id="gradient22" spreadMethod="pad" x1="-819.2" x2="819.2">
      <stop offset="0.0" stop-color="#1c6780" stop-opacity="0.5019608"/>
      <stop offset="1.0" stop-color="#10323d" stop-opacity="0.5019608"/>
    </linearGradient>
    <linearGradient gradientTransform="matrix(0.0, -0.0198, 0.0198, 0.0, 0.05, 6.25)" gradientUnits="userSpaceOnUse" id="gradient23" spreadMethod="pad" x1="-819.2" x2="819.2">
      <stop offset="0.0" stop-color="#3197b9" stop-opacity="0.3019608"/>
      <stop offset="0.9882352941176471" stop-color="#b0d7e3" stop-opacity="0.3019608"/>
    </linearGradient>
  </defs>
</svg>
