<?xml version="1.0" encoding="UTF-8" standalone="no"?>
<svg xmlns:xlink="http://www.w3.org/1999/xlink" height="555.0px" width="401.15px" xmlns="http://www.w3.org/2000/svg">
  <g transform="matrix(1.0, 0.0, 0.0, 1.0, 0.5, 0.5)">
    <path d="M183.0 23.65 Q198.85 19.25 216.0 0.0 209.9 25.45 221.45 64.8 228.6 89.2 240.0 112.0 234.35 140.95 238.65 171.0 242.9 201.2 256.0 224.0 248.35 262.2 247.0 299.0 245.25 346.5 256.0 368.0 261.05 378.1 266.9 396.9 L277.0 431.0 Q283.2 451.4 288.65 463.65 295.8 479.8 304.0 488.0 320.35 504.35 353.3 522.55 381.4 538.1 400.0 544.0 405.0 554.0 223.0 554.0 132.0 554.0 40.0 552.0 29.25 546.6 13.8 484.45 7.85 460.45 3.8 437.75 -0.2 415.6 0.0 408.0 1.0 370.7 18.8 343.85 25.7 333.45 36.5 322.5 40.6 318.3 56.0 304.0 77.05 284.35 99.7 231.05 121.9 178.65 128.0 136.0 138.4 134.75 144.3 121.3 149.4 109.65 150.65 90.15 151.7 73.0 149.65 53.9 147.75 36.0 144.0 24.0 L165.5 25.6 Q175.5 25.7 183.0 23.65" fill="url(#gradient0)" fill-rule="evenodd" stroke="none"/>
    <path d="M183.0 23.65 Q198.85 19.25 216.0 0.0 209.9 25.45 221.45 64.8 228.6 89.2 240.0 112.0 234.35 140.95 238.65 171.0 242.9 201.2 256.0 224.0 248.35 262.2 247.0 299.0 245.25 346.5 256.0 368.0 261.05 378.1 266.9 396.9 L277.0 431.0 Q283.2 451.4 288.65 463.65 295.8 479.8 304.0 488.0 320.35 504.35 353.3 522.55 381.4 538.1 400.0 544.0 405.0 554.0 223.0 554.0 132.0 554.0 40.0 552.0 29.25 546.6 13.8 484.45 7.85 460.45 3.8 437.75 -0.2 415.6 0.0 408.0 1.0 370.7 18.8 343.85 25.7 333.45 36.5 322.5 40.6 318.3 56.0 304.0 77.05 284.35 99.7 231.05 121.9 178.65 128.0 136.0 138.4 134.75 144.3 121.3 149.4 109.65 150.65 90.15 151.7 73.0 149.65 53.9 147.75 36.0 144.0 24.0 L165.5 25.6 Q175.5 25.7 183.0 23.65 Z" fill="none" stroke="#f48517" stroke-linecap="round" stroke-linejoin="round" stroke-width="1.0"/>
  </g>
  <defs>
    <linearGradient gradientTransform="matrix(2.0E-4, -0.3473, 0.3381, 2.0E-4, 200.05, 277.0)" gradientUnits="userSpaceOnUse" id="gradient0" spreadMethod="pad" x1="-819.2" x2="819.2">
      <stop offset="0.0" stop-color="#f32121"/>
      <stop offset="0.5333333333333333" stop-color="#ef9b2c"/>
      <stop offset="1.0" stop-color="#f8e338"/>
    </linearGradient>
  </defs>
</svg>
