<?xml version="1.0" encoding="UTF-8" standalone="no"?>
<svg xmlns:xlink="http://www.w3.org/1999/xlink" height="61.0px" width="61.0px" xmlns="http://www.w3.org/2000/svg">
  <g transform="matrix(1.0, 0.0, 0.0, 1.0, 30.5, 30.5)">
    <path d="M21.6 -21.55 Q30.5 -12.65 30.5 0.0 30.5 12.65 21.6 21.6 12.65 30.5 0.0 30.5 -12.65 30.5 -21.55 21.6 -30.5 12.65 -30.5 0.0 -30.5 -12.65 -21.55 -21.55 -12.65 -30.5 0.0 -30.5 12.65 -30.5 21.6 -21.55" fill="#000000" fill-rule="evenodd" stroke="none"/>
    <path d="M19.8 -19.8 Q28.0 -11.6 28.0 0.0 28.0 11.6 19.8 19.8 11.6 28.0 0.0 28.0 -11.6 28.0 -19.8 19.8 -28.0 11.6 -28.0 0.0 -28.0 -11.6 -19.8 -19.8 -11.6 -28.0 0.0 -28.0 11.6 -28.0 19.8 -19.8" fill="url(#gradient0)" fill-rule="evenodd" stroke="none"/>
    <path d="M0.0 -19.0 Q-7.85 -19.0 -13.45 -13.45 -19.0 -7.85 -19.0 0.0 -19.0 7.85 -13.45 13.4 -7.85 19.0 0.0 19.0 7.85 19.0 13.4 13.4 19.0 7.85 19.0 0.0 19.0 -7.85 13.4 -13.45 7.85 -19.0 0.0 -19.0 M19.1 -19.1 Q27.0 -11.2 27.0 0.0 27.0 11.2 19.1 19.1 11.2 27.0 0.0 27.0 -11.2 27.0 -19.1 19.1 -27.0 11.2 -27.0 0.0 -27.0 -11.2 -19.1 -19.1 -11.2 -27.0 0.0 -27.0 11.2 -27.0 19.1 -19.1" fill="url(#gradient1)" fill-rule="evenodd" stroke="none"/>
    <path d="M0.0 -28.0 Q11.6 -28.0 19.8 -19.8 28.0 -11.6 28.0 0.0 28.0 0.3 26.35 -2.3 23.8 -6.2 21.1 -9.15 11.4 -19.7 -1.25 -19.75 -15.15 -19.85 -23.05 -9.25 -26.95 -4.05 -28.0 0.0 -28.0 -11.6 -19.8 -19.8 -11.6 -28.0 0.0 -28.0" fill="url(#gradient2)" fill-rule="evenodd" stroke="none"/>
    <path d="M23.65 11.8 Q26.1 10.0 26.0 10.3 21.75 21.1 11.15 25.65 0.5 30.25 -10.3 26.0 -21.1 21.75 -25.65 11.15 -30.25 0.5 -26.0 -10.3 -26.55 -6.15 -24.8 0.15 -21.35 12.9 -8.4 17.9 3.35 22.5 16.25 16.25 19.8 14.5 23.65 11.8" fill="url(#gradient3)" fill-rule="evenodd" stroke="none"/>
  </g>
  <defs>
    <radialGradient cx="0" cy="0" gradientTransform="matrix(0.0463, 0.0089, -0.0083, 0.0432, 4.15, -9.75)" gradientUnits="userSpaceOnUse" id="gradient0" r="819.2" spreadMethod="pad">
      <stop offset="0.13333333333333333" stop-color="#ffffff"/>
      <stop offset="0.20392156862745098" stop-color="#6a6a6a"/>
      <stop offset="0.2784313725490196" stop-color="#4a4a4a"/>
      <stop offset="0.47843137254901963" stop-color="#202020"/>
      <stop offset="0.6470588235294118" stop-color="#000000"/>
      <stop offset="0.7568627450980392" stop-color="#111a15"/>
      <stop offset="0.8274509803921568" stop-color="#243128"/>
      <stop offset="0.8823529411764706" stop-color="#3c4a3c"/>
      <stop offset="0.9254901960784314" stop-color="#4a5447"/>
      <stop offset="1.0" stop-color="#4b5a5f"/>
    </radialGradient>
    <linearGradient gradientTransform="matrix(-5.0E-4, 0.0342, -0.0342, -5.0E-4, 0.0, 0.0)" gradientUnits="userSpaceOnUse" id="gradient1" spreadMethod="pad" x1="-819.2" x2="819.2">
      <stop offset="0.5843137254901961" stop-color="#5b5b5b" stop-opacity="0.0"/>
      <stop offset="1.0" stop-color="#204551" stop-opacity="0.57254905"/>
    </linearGradient>
    <radialGradient cx="0" cy="0" gradientTransform="matrix(0.0433, 0.0, 0.0, 0.0428, 0.0, 4.0)" gradientUnits="userSpaceOnUse" id="gradient2" r="819.2" spreadMethod="pad">
      <stop offset="0.788235294117647" stop-color="#6da4bc" stop-opacity="0.0"/>
      <stop offset="1.0" stop-color="#50568b" stop-opacity="0.6"/>
    </radialGradient>
    <linearGradient gradientTransform="matrix(-0.0204, 0.0278, -0.027, -0.0197, -18.65, -4.9)" gradientUnits="userSpaceOnUse" id="gradient3" spreadMethod="pad" x1="-819.2" x2="819.2">
      <stop offset="0.6" stop-color="#ffffff" stop-opacity="0.0"/>
      <stop offset="0.6549019607843137" stop-color="#ffffff" stop-opacity="0.0"/>
      <stop offset="1.0" stop-color="#ffffff" stop-opacity="0.2"/>
    </linearGradient>
  </defs>
</svg>
