<?xml version="1.0" encoding="UTF-8" standalone="no"?>
<svg xmlns:xlink="http://www.w3.org/1999/xlink" height="101.0px" width="101.0px" xmlns="http://www.w3.org/2000/svg">
  <g transform="matrix(1.0, 0.0, 0.0, 1.0, 50.5, 50.5)">
    <path d="M49.8 -49.75 Q50.5 -49.05 50.5 -48.0 L50.5 48.0 Q50.5 49.05 49.8 49.8 49.05 50.5 48.0 50.5 L-48.0 50.5 Q-49.05 50.5 -49.75 49.8 -50.5 49.05 -50.5 48.0 L-50.5 -48.0 Q-50.5 -49.05 -49.75 -49.75 -49.05 -50.5 -48.0 -50.5 L48.0 -50.5 Q49.05 -50.5 49.8 -49.75" fill="#000000" fill-rule="evenodd" stroke="none"/>
    <path d="M-46.0 -46.0 L46.0 -46.0 46.0 46.0 -46.0 46.0 -46.0 -46.0" fill="#717171" fill-rule="evenodd" stroke="none"/>
  </g>
</svg>
