<?xml version="1.0" encoding="UTF-8" standalone="no"?>
<svg xmlns:xlink="http://www.w3.org/1999/xlink" height="161.5px" width="178.4px" xmlns="http://www.w3.org/2000/svg">
  <g transform="matrix(1.0, 0.0, 0.0, 1.0, -275.1, -290.0)">
    <path d="M328.35 305.0 Q329.75 305.0 330.65 307.0 L330.75 307.15 331.6 310.0 336.85 307.15 343.1 303.4 346.8 301.1 Q358.05 294.0 362.5 290.0 361.9 292.55 360.5 295.0 L360.5 309.0 Q360.8 309.3 361.2 309.2 L362.5 309.0 364.85 309.75 368.5 310.5 Q371.1 310.5 374.3 309.5 L379.0 308.0 378.5 312.75 378.0 317.5 Q380.7 316.4 386.05 314.85 L390.0 313.7 401.7 310.6 392.0 330.0 422.55 332.9 447.0 335.0 Q442.05 337.8 428.9 346.2 L410.5 358.0 410.5 358.5 Q412.5 358.4 417.55 359.45 L424.0 360.5 420.55 363.95 416.0 368.0 Q416.0 368.5 415.5 368.5 420.45 369.55 436.15 373.85 449.45 377.5 453.5 378.0 423.15 384.55 386.5 391.0 389.35 393.6 397.75 398.5 406.75 403.75 409.0 405.5 401.35 407.0 386.0 407.0 386.0 407.5 385.5 407.5 L395.0 422.5 393.0 422.5 386.8 421.85 379.5 420.5 379.15 420.7 380.8 424.15 384.0 430.0 Q377.6 426.7 375.15 425.75 L389.9 451.3 389.5 451.5 Q386.2 448.2 376.2 444.2 361.9 438.5 359.0 437.0 356.75 439.65 354.5 444.5 L352.85 444.0 Q351.65 443.5 351.0 443.5 350.7 443.5 345.6 439.25 340.5 435.0 339.1 435.0 337.9 435.0 335.35 437.5 332.85 440.0 331.6 440.0 329.9 440.0 323.55 437.5 316.65 434.75 315.6 433.0 L314.85 430.1 Q314.35 428.0 313.1 427.5 308.15 425.5 306.6 425.5 306.1 425.5 303.7 427.15 301.25 428.8 300.1 430.0 L299.85 429.55 299.6 429.5 299.1 425.3 Q298.6 421.7 298.6 420.5 293.65 418.2 290.8 416.15 285.75 412.45 285.1 408.5 283.9 401.4 279.2 399.15 277.0 398.1 276.35 397.2 275.7 396.35 275.4 395.0 275.1 393.75 275.1 392.0 275.1 388.6 276.25 385.2 277.2 382.35 278.5 380.95 277.9 379.5 277.7 377.05 L277.6 371.0 Q277.6 359.0 278.25 355.55 279.75 347.85 285.6 345.5 L287.35 348.3 Q288.8 350.5 289.35 350.5 289.95 350.5 303.1 344.0 303.1 341.75 300.0 336.4 296.65 330.6 294.1 330.0 294.3 325.3 297.95 321.8 300.0 319.8 304.1 317.0 305.3 318.3 305.85 320.4 306.15 321.5 307.85 321.5 310.2 321.5 312.5 316.45 314.6 311.75 314.6 308.0 L317.2 311.35 319.6 315.0 323.95 309.1 325.45 307.15 Q327.25 305.0 328.35 305.0 M375.15 425.75 L375.0 425.5 374.5 425.5 375.15 425.75" fill="#ffffff" fill-rule="evenodd" stroke="none"/>
  </g>
</svg>
