<?xml version="1.0" encoding="UTF-8" standalone="no"?>
<svg xmlns:xlink="http://www.w3.org/1999/xlink" height="161.5px" width="178.4px" xmlns="http://www.w3.org/2000/svg">
  <g transform="matrix(1.0, 0.0, 0.0, 1.0, -269.6, -286.5)">
    <path d="M355.0 291.5 L355.0 305.5 Q355.3 305.8 355.7 305.7 L357.0 305.5 359.35 306.25 363.0 307.0 Q365.6 307.0 368.8 306.0 L373.5 304.5 373.0 309.25 372.5 314.0 Q375.2 312.9 380.55 311.35 L384.5 310.2 396.2 307.1 386.5 326.5 417.05 329.4 441.5 331.5 423.4 342.7 405.0 354.5 405.0 355.0 Q407.0 354.9 412.05 355.95 L418.5 357.0 415.05 360.45 410.5 364.5 Q410.5 365.0 410.0 365.0 414.95 366.05 430.65 370.35 443.95 374.0 448.0 374.5 417.65 381.05 381.0 387.5 383.85 390.1 392.25 395.0 401.25 400.25 403.5 402.0 395.85 403.5 380.5 403.5 380.5 404.0 380.0 404.0 L389.5 419.0 387.5 419.0 381.3 418.35 374.0 417.0 373.65 417.2 375.3 420.65 378.5 426.5 Q372.1 423.2 369.65 422.25 L384.4 447.8 384.0 448.0 Q380.7 444.7 370.7 440.7 356.4 435.0 353.5 433.5 351.25 436.15 349.0 441.0 L347.35 440.5 Q346.15 440.0 345.5 440.0 L340.1 435.75 Q335.0 431.5 333.6 431.5 332.4 431.5 329.85 434.0 327.35 436.5 326.1 436.5 324.4 436.5 318.05 434.0 311.15 431.25 310.1 429.5 L309.35 426.6 Q308.85 424.5 307.6 424.0 302.65 422.0 301.1 422.0 300.6 422.0 298.2 423.65 295.75 425.3 294.6 426.5 L294.35 426.05 294.1 426.0 293.6 421.8 Q293.1 418.2 293.1 417.0 288.15 414.7 285.3 412.65 280.25 408.95 279.6 405.0 278.4 397.9 273.7 395.65 271.5 394.6 270.85 393.7 270.2 392.85 269.9 391.5 269.6 390.25 269.6 388.5 269.6 385.1 270.75 381.7 271.7 378.85 273.0 377.45 272.4 376.0 272.2 373.55 L272.1 367.5 Q272.1 355.5 272.75 352.05 274.25 344.35 280.1 342.0 L281.85 344.8 Q283.3 347.0 283.85 347.0 L297.6 340.5 Q297.6 338.25 294.5 332.9 291.15 327.1 288.6 326.5 288.8 321.8 292.45 318.3 294.5 316.3 298.6 313.5 299.8 314.8 300.35 316.9 300.65 318.0 302.35 318.0 304.7 318.0 307.0 312.95 309.1 308.25 309.1 304.5 L311.7 307.85 314.1 311.5 318.45 305.6 Q321.35 301.5 322.85 301.5 324.25 301.5 325.15 303.5 L326.1 306.5 331.55 303.55 336.55 300.55 341.3 297.6 Q352.55 290.5 357.0 286.5 356.4 289.05 355.0 291.5 M369.65 422.25 L369.5 422.0 369.0 422.0 369.65 422.25" fill="#ffffff" fill-rule="evenodd" stroke="none"/>
  </g>
</svg>
