<?xml version="1.0" encoding="UTF-8" standalone="no"?>
<svg xmlns:xlink="http://www.w3.org/1999/xlink" height="724.1px" width="220.6px" xmlns="http://www.w3.org/2000/svg">
  <g transform="matrix(1.0, 0.0, 0.0, 1.0, -404.1, 5.9)">
    <path d="M531.1 196.9 Q518.8 162.3 499.75 125.35 479.25 85.45 455.8 52.65 429.8 16.2 404.1 -5.9 L495.5 0.1 Q568.6 5.25 604.8 6.0 605.7 19.45 615.4 361.2 625.1 704.9 624.7 715.55 L593.95 716.8 571.95 718.2 573.4 703.9 Q576.1 674.7 576.1 650.6 576.1 586.0 559.15 525.4 549.45 490.75 535.3 462.7 542.05 436.35 545.05 355.95 547.8 281.75 545.1 252.0 543.2 230.85 531.1 196.9" fill="url(#gradient0)" fill-rule="evenodd" stroke="none"/>
  </g>
  <defs>
    <linearGradient gradientTransform="matrix(2.0E-4, -0.3473, 0.3381, 2.0E-4, 289.55, 436.5)" gradientUnits="userSpaceOnUse" id="gradient0" spreadMethod="pad" x1="-819.2" x2="819.2">
      <stop offset="0.0" stop-color="#f1fefa"/>
      <stop offset="0.07450980392156863" stop-color="#cefdf3"/>
      <stop offset="0.3254901960784314" stop-color="#21f3f3"/>
      <stop offset="0.6666666666666666" stop-color="#21d5f3"/>
      <stop offset="1.0" stop-color="#0772b8"/>
    </linearGradient>
  </defs>
</svg>
