<?xml version="1.0" encoding="UTF-8" standalone="no"?>
<svg xmlns:xlink="http://www.w3.org/1999/xlink" height="749.1px" width="304.05px" xmlns="http://www.w3.org/2000/svg">
  <g transform="matrix(1.0, 0.0, 0.0, 1.0, -304.05, 9.0)">
    <path d="M304.05 -7.85 L305.9 -8.0 336.0 -9.0 470.6 -4.5 595.8 -0.4 Q598.6 28.3 601.95 92.8 608.1 212.45 608.1 325.0 608.1 504.6 603.5 605.45 600.4 674.0 594.4 722.15 L561.5 723.3 Q495.1 725.8 463.0 730.1 L409.3 736.95 381.0 740.1 Q377.7 740.1 371.75 738.25 364.05 735.6 359.1 734.1 340.6 728.5 320.35 728.15 331.3 718.2 340.85 703.9 364.55 668.15 365.0 630.05 371.75 617.9 377.55 604.05 401.0 547.9 401.0 483.5 401.0 402.5 373.25 320.85 366.3 300.35 358.5 282.7 367.8 267.25 378.0 243.25 L380.2 238.0 Q379.45 227.65 378.15 215.55 373.8 175.55 364.9 136.5 342.95 40.3 304.05 -7.85" fill="url(#gradient0)" fill-rule="evenodd" stroke="none"/>
  </g>
  <defs>
    <linearGradient gradientTransform="matrix(2.0E-4, -0.3473, 0.3381, 2.0E-4, 289.55, 436.5)" gradientUnits="userSpaceOnUse" id="gradient0" spreadMethod="pad" x1="-819.2" x2="819.2">
      <stop offset="0.0" stop-color="#f1fefa"/>
      <stop offset="0.07450980392156863" stop-color="#cefdf3"/>
      <stop offset="0.3254901960784314" stop-color="#21f3f3"/>
      <stop offset="0.6666666666666666" stop-color="#21d5f3"/>
      <stop offset="1.0" stop-color="#0772b8"/>
    </linearGradient>
  </defs>
</svg>
