<?xml version="1.0" encoding="UTF-8" standalone="no"?>
<svg xmlns:xlink="http://www.w3.org/1999/xlink" height="113.0px" width="177.0px" xmlns="http://www.w3.org/2000/svg">
  <g transform="matrix(1.0, 0.0, 0.0, 1.0, -437.0, -583.0)">
    <path d="M516.3 592.55 Q521.65 594.65 525.5 591.5 530.9 605.85 551.7 626.15 571.25 645.2 589.5 655.5 588.85 668.05 597.75 679.65 600.9 683.7 605.8 688.4 L613.5 695.5 437.5 695.5 Q448.85 685.5 453.05 676.9 459.1 664.65 461.5 639.5 482.2 634.65 491.8 618.8 499.35 606.35 501.5 583.5 512.35 591.05 516.3 592.55" fill="url(#gradient0)" fill-rule="evenodd" stroke="none"/>
    <path d="M516.3 592.55 Q521.65 594.65 525.5 591.5 530.9 605.85 551.7 626.15 571.25 645.2 589.5 655.5 588.85 668.05 597.75 679.65 600.9 683.7 605.8 688.4 L613.5 695.5 437.5 695.5 Q448.85 685.5 453.05 676.9 459.1 664.65 461.5 639.5 482.2 634.65 491.8 618.8 499.35 606.35 501.5 583.5 512.35 591.05 516.3 592.55 Z" fill="none" stroke="#13e2f2" stroke-linecap="round" stroke-linejoin="round" stroke-width="1.0"/>
  </g>
  <defs>
    <linearGradient gradientTransform="matrix(2.0E-4, -0.3473, 0.3381, 2.0E-4, 289.55, 436.5)" gradientUnits="userSpaceOnUse" id="gradient0" spreadMethod="pad" x1="-819.2" x2="819.2">
      <stop offset="0.0" stop-color="#f1fefa"/>
      <stop offset="0.07450980392156863" stop-color="#cefdf3"/>
      <stop offset="0.3254901960784314" stop-color="#21f3f3"/>
      <stop offset="0.6666666666666666" stop-color="#21d5f3"/>
      <stop offset="1.0" stop-color="#0772b8"/>
    </linearGradient>
  </defs>
</svg>
