<?xml version="1.0" encoding="UTF-8" standalone="no"?>
<svg xmlns:xlink="http://www.w3.org/1999/xlink" height="716.1px" width="442.3px" xmlns="http://www.w3.org/2000/svg">
  <g transform="matrix(1.0, 0.0, 0.0, 1.0, -75.95, -24.3)">
    <path d="M348.05 24.3 L348.25 26.8 Q348.4 28.25 348.0 29.0 338.65 46.45 335.15 55.0 330.05 67.45 329.1 78.65 328.0 90.95 331.5 106.2 335.0 121.65 344.0 144.0 339.25 173.45 344.05 214.35 348.65 253.8 361.1 295.55 373.7 337.95 391.6 373.0 410.6 410.2 432.0 432.0 422.65 491.1 422.8 551.0 422.95 612.85 433.45 631.2 454.0 667.05 471.0 686.15 492.45 710.2 518.25 720.4 L437.85 727.85 329.0 736.1 Q272.05 740.6 188.95 740.4 L138.1 739.95 138.0 739.85 137.95 739.8 137.8 739.6 137.75 739.55 Q110.7 710.8 92.3 659.25 84.2 636.55 79.9 614.5 75.65 592.6 76.0 576.0 76.7 545.05 87.4 521.65 92.0 511.65 97.55 505.35 102.95 499.25 108.0 498.0 129.65 492.45 144.85 469.05 162.0 442.65 162.0 405.0 162.0 368.7 143.05 337.8 137.65 328.9 128.9 318.0 121.15 308.3 120.0 306.0 131.65 307.0 148.15 294.1 166.3 280.0 181.9 255.05 199.9 226.15 210.15 189.2 216.05 167.8 219.05 144.75 227.6 130.2 240.95 101.45 L252.6 75.6 252.65 75.6 252.75 75.55 252.8 75.55 273.55 66.9 Q318.2 47.3 348.05 24.3" fill="url(#gradient0)" fill-rule="evenodd" stroke="none"/>
  </g>
  <defs>
    <linearGradient gradientTransform="matrix(2.0E-4, -0.3473, 0.3381, 2.0E-4, 289.55, 436.5)" gradientUnits="userSpaceOnUse" id="gradient0" spreadMethod="pad" x1="-819.2" x2="819.2">
      <stop offset="0.0" stop-color="#f1fefa"/>
      <stop offset="0.07450980392156863" stop-color="#cefdf3"/>
      <stop offset="0.3254901960784314" stop-color="#21f3f3"/>
      <stop offset="0.6666666666666666" stop-color="#21d5f3"/>
      <stop offset="1.0" stop-color="#0772b8"/>
    </linearGradient>
  </defs>
</svg>
