<?xml version="1.0" encoding="UTF-8" standalone="no"?>
<svg xmlns:xlink="http://www.w3.org/1999/xlink" height="158.95px" width="55.0px" xmlns="http://www.w3.org/2000/svg">
  <g transform="matrix(1.0, 0.0, 0.0, 1.0, 27.5, 79.5)">
    <path d="M12.8 -78.75 Q13.5 -78.05 13.5 -77.0 L13.5 -74.0 Q13.5 -73.3 13.15 -72.7 L10.5 -68.3 10.5 -65.5 16.8 -65.5 20.05 -69.55 20.95 -70.25 22.0 -70.5 25.0 -70.5 Q26.05 -70.5 26.8 -69.75 27.5 -69.05 27.5 -68.0 L27.5 -38.0 Q27.5 -36.95 26.8 -36.2 26.05 -35.5 25.0 -35.5 L22.0 -35.5 20.95 -35.75 20.05 -36.45 16.8 -40.5 10.5 -40.5 10.5 -37.7 13.15 -33.25 Q13.5 -32.7 13.5 -32.0 L13.5 -29.0 Q13.5 -27.95 12.8 -27.2 12.05 -26.5 11.0 -26.5 L8.7 -26.5 6.45 -21.55 6.5 -21.0 6.5 -18.0 Q6.5 -16.95 5.8 -16.2 5.4 -15.85 5.0 -15.7 4.45 -12.75 4.5 -8.1 L4.5 44.25 5.15 45.05 Q5.85 45.7 5.45 47.55 L4.75 49.2 5.25 49.9 5.6 50.6 6.25 50.85 7.2 51.8 7.5 53.05 7.5 53.85 8.35 54.5 Q9.0 55.0 9.25 55.75 9.45 56.5 9.25 57.25 9.0 58.0 8.35 58.5 L8.0 58.8 8.3 59.0 Q8.95 59.5 9.2 60.25 9.4 61.0 9.2 61.75 8.95 62.5 8.3 63.0 L8.0 63.25 8.3 63.5 Q8.95 64.0 9.2 64.75 9.4 65.5 9.2 66.25 8.95 67.0 8.3 67.5 L7.8 67.9 Q8.0 70.05 8.4 71.25 8.65 72.0 8.4 72.8 8.15 73.55 7.5 74.05 L6.05 74.5 1.9 78.65 0.55 79.45 -0.5 79.45 Q-1.25 79.3 -1.75 78.8 L-6.05 74.5 Q-6.85 74.5 -7.45 74.05 -8.15 73.55 -8.35 72.8 -8.65 72.0 -8.35 71.25 -8.0 70.05 -7.8 67.9 L-8.3 67.5 -9.15 66.25 Q-9.4 65.5 -9.15 64.75 -8.95 64.0 -8.3 63.5 L-7.95 63.25 -8.3 63.0 -9.15 61.75 Q-9.4 61.0 -9.15 60.25 -8.95 59.5 -8.3 59.0 L-8.0 58.8 -8.35 58.5 -9.2 57.25 Q-9.45 56.5 -9.2 55.75 -9.0 55.0 -8.35 54.5 L-7.45 53.85 -7.5 53.05 Q-7.5 52.35 -7.15 51.8 L-6.25 50.85 -5.55 50.6 -5.2 49.9 -4.65 49.2 -5.45 47.55 Q-5.85 45.65 -5.05 45.05 L-4.85 44.7 -4.5 44.3 -4.5 -8.1 -4.5 -11.25 -6.1 -10.45 -8.9 -10.25 -9.1 -10.35 -9.95 -10.85 Q-10.7 -10.65 -11.55 -10.85 L-13.0 -11.0 -13.25 -11.05 Q-14.45 -11.3 -15.35 -12.3 L-16.4 -12.55 -17.05 -12.8 -18.55 -13.7 Q-19.8 -14.3 -20.25 -15.8 L-20.35 -16.55 Q-21.1 -17.05 -21.5 -17.9 L-22.3 -19.65 -22.6 -20.8 -23.5 -21.95 -24.3 -23.7 -24.45 -24.25 -24.6 -25.25 -25.3 -26.55 -25.7 -28.25 Q-26.1 -29.4 -25.7 -30.5 L-25.95 -31.55 -26.15 -33.25 -26.0 -34.85 -26.4 -35.9 -26.75 -36.2 Q-27.5 -36.95 -27.5 -38.0 L-27.5 -68.0 Q-27.5 -69.05 -26.75 -69.75 -26.05 -70.5 -25.0 -70.5 L-22.0 -70.5 -20.9 -70.25 Q-20.4 -70.0 -20.05 -69.55 L-16.8 -65.5 -10.5 -65.5 -10.5 -68.3 -13.15 -72.7 Q-13.5 -73.3 -13.5 -74.0 L-13.5 -77.0 Q-13.5 -78.05 -12.75 -78.75 -12.05 -79.5 -11.0 -79.5 L11.0 -79.5 Q12.05 -79.5 12.8 -78.75 M-10.5 -40.5 L-16.8 -40.5 -17.95 -39.05 Q-17.5 -38.1 -17.5 -37.0 -17.5 -35.7 -18.1 -34.7 L-18.05 -34.4 -18.0 -33.95 -18.0 -33.85 -17.8 -32.45 -17.8 -32.4 Q-17.75 -31.6 -17.95 -30.9 L-17.85 -30.65 -17.8 -30.4 -17.45 -28.95 -17.25 -27.75 -16.85 -27.1 -16.8 -27.0 -16.1 -25.4 -16.15 -25.5 -15.8 -24.25 -15.1 -23.5 -14.1 -21.35 -13.8 -20.45 -12.9 -19.9 -12.0 -19.2 -8.7 -18.35 -8.45 -18.5 Q-8.35 -20.0 -7.3 -21.15 L-7.15 -21.3 -6.55 -21.75 -8.7 -26.5 -11.0 -26.5 Q-12.05 -26.5 -12.75 -27.2 -13.5 -27.95 -13.5 -29.0 L-13.5 -32.0 Q-13.5 -32.7 -13.15 -33.25 L-10.5 -37.7 -10.5 -40.5" fill="#000000" fill-rule="evenodd" stroke="none"/>
    <path d="M0.0 77.0 L-5.0 72.0 -2.9 72.0 0.0 77.0" fill="url(#gradient0)" fill-rule="evenodd" stroke="none"/>
    <path d="M0.0 77.0 L2.9 72.0 5.0 72.0 0.0 77.0" fill="url(#gradient1)" fill-rule="evenodd" stroke="none"/>
    <path d="M2.9 72.0 L0.0 77.0 -2.9 72.0 2.9 72.0" fill="url(#gradient2)" fill-rule="evenodd" stroke="none"/>
    <path d="M2.85 63.4 L2.8 53.0 5.0 53.0 Q4.7 68.05 6.0 72.0 L3.45 72.0 Q3.0 67.8 2.85 63.4" fill="url(#gradient3)" fill-rule="evenodd" stroke="none"/>
    <path d="M-3.4 72.0 L-6.0 72.0 Q-4.7 68.05 -5.0 53.0 L-2.75 53.0 -2.8 63.35 Q-2.95 67.8 -3.4 72.0" fill="url(#gradient4)" fill-rule="evenodd" stroke="none"/>
    <path d="M2.8 53.0 L2.85 63.4 Q3.0 67.8 3.45 72.0 L0.0 72.0 -3.4 72.0 Q-2.95 67.8 -2.8 63.35 L-2.75 53.0 2.8 53.0" fill="url(#gradient5)" fill-rule="evenodd" stroke="none"/>
    <path d="M1.05 66.0 L-0.1 67.55 -1.8 68.7 -2.95 68.6 Q-3.25 68.25 -2.95 67.5 L-1.75 65.85 Q-0.95 65.05 -0.1 64.8 0.75 64.5 1.05 64.8 1.35 65.15 1.05 66.0" fill="url(#gradient6)" fill-rule="evenodd" stroke="none"/>
    <path d="M1.05 61.3 L-0.1 62.85 -1.8 64.0 -2.95 63.9 Q-3.25 63.55 -2.95 62.8 L-1.75 61.15 Q-0.95 60.35 -0.1 60.1 0.75 59.8 1.05 60.1 1.35 60.45 1.05 61.3" fill="url(#gradient7)" fill-rule="evenodd" stroke="none"/>
    <path d="M1.05 56.9 L-0.1 58.45 -1.8 59.6 -2.95 59.5 Q-3.25 59.15 -2.95 58.4 L-1.75 56.75 Q-0.95 55.95 -0.1 55.7 0.75 55.4 1.05 55.7 1.35 56.05 1.05 56.9" fill="url(#gradient8)" fill-rule="evenodd" stroke="none"/>
  </g>
  <defs>
    <linearGradient gradientTransform="matrix(0.0, 0.0031, -0.0031, 0.0, -2.5, 74.5)" gradientUnits="userSpaceOnUse" id="gradient0" spreadMethod="pad" x1="-819.2" x2="819.2">
      <stop offset="0.0" stop-color="#464547"/>
      <stop offset="0.30980392156862746" stop-color="#37363a"/>
      <stop offset="0.8313725490196079" stop-color="#4a4a4a"/>
      <stop offset="0.9372549019607843" stop-color="#555456"/>
      <stop offset="1.0" stop-color="#606060"/>
    </linearGradient>
    <linearGradient gradientTransform="matrix(0.0, 0.0031, -0.0031, 0.0, 2.5, 74.5)" gradientUnits="userSpaceOnUse" id="gradient1" spreadMethod="pad" x1="-819.2" x2="819.2">
      <stop offset="0.0" stop-color="#464547"/>
      <stop offset="0.30980392156862746" stop-color="#37363a"/>
      <stop offset="0.8313725490196079" stop-color="#4a4a4a"/>
      <stop offset="0.9372549019607843" stop-color="#555456"/>
      <stop offset="1.0" stop-color="#606060"/>
    </linearGradient>
    <linearGradient gradientTransform="matrix(0.0, 0.0031, -0.0031, 0.0, 0.0, 74.5)" gradientUnits="userSpaceOnUse" id="gradient2" spreadMethod="pad" x1="-819.2" x2="819.2">
      <stop offset="0.0" stop-color="#565357"/>
      <stop offset="0.30980392156862746" stop-color="#4e4a51"/>
      <stop offset="0.8313725490196079" stop-color="#605e62"/>
      <stop offset="0.9372549019607843" stop-color="#6d6a71"/>
      <stop offset="1.0" stop-color="#838284"/>
    </linearGradient>
    <linearGradient gradientTransform="matrix(0.0, 0.0116, -0.0116, 0.0, 4.4, 62.5)" gradientUnits="userSpaceOnUse" id="gradient3" spreadMethod="pad" x1="-819.2" x2="819.2">
      <stop offset="0.0" stop-color="#464547"/>
      <stop offset="0.30980392156862746" stop-color="#29292c"/>
      <stop offset="0.8313725490196079" stop-color="#4a4a4a"/>
      <stop offset="0.9372549019607843" stop-color="#555456"/>
    </linearGradient>
    <linearGradient gradientTransform="matrix(-1.0E-4, 0.0116, -0.0116, -1.0E-4, -4.4, 62.5)" gradientUnits="userSpaceOnUse" id="gradient4" spreadMethod="pad" x1="-819.2" x2="819.2">
      <stop offset="0.0" stop-color="#464547"/>
      <stop offset="0.30980392156862746" stop-color="#29292c"/>
      <stop offset="0.8313725490196079" stop-color="#4a4a4a"/>
      <stop offset="0.9372549019607843" stop-color="#555456"/>
    </linearGradient>
    <linearGradient gradientTransform="matrix(1.0E-4, 0.0117, -0.0116, 1.0E-4, 0.1, 62.5)" gradientUnits="userSpaceOnUse" id="gradient5" spreadMethod="pad" x1="-819.2" x2="819.2">
      <stop offset="0.0" stop-color="#565357"/>
      <stop offset="0.2784313725490196" stop-color="#464349"/>
      <stop offset="0.7803921568627451" stop-color="#605e62"/>
      <stop offset="1.0" stop-color="#757278"/>
    </linearGradient>
    <linearGradient gradientTransform="matrix(0.0022, -0.0014, 0.0013, 0.0022, -1.0, 66.7)" gradientUnits="userSpaceOnUse" id="gradient6" spreadMethod="pad" x1="-819.2" x2="819.2">
      <stop offset="0.0" stop-color="#000000" stop-opacity="0.0"/>
      <stop offset="0.5294117647058824" stop-color="#464646" stop-opacity="0.24313726"/>
    </linearGradient>
    <linearGradient gradientTransform="matrix(0.0022, -0.0014, 0.0013, 0.0022, -1.0, 62.0)" gradientUnits="userSpaceOnUse" id="gradient7" spreadMethod="pad" x1="-819.2" x2="819.2">
      <stop offset="0.0" stop-color="#000000" stop-opacity="0.0"/>
      <stop offset="0.5294117647058824" stop-color="#464646" stop-opacity="0.24313726"/>
    </linearGradient>
    <linearGradient gradientTransform="matrix(0.0022, -0.0014, 0.0013, 0.0022, -1.0, 57.6)" gradientUnits="userSpaceOnUse" id="gradient8" spreadMethod="pad" x1="-819.2" x2="819.2">
      <stop offset="0.0" stop-color="#000000" stop-opacity="0.0"/>
      <stop offset="0.5294117647058824" stop-color="#464646" stop-opacity="0.24313726"/>
    </linearGradient>
  </defs>
</svg>
