<?xml version="1.0" encoding="UTF-8" standalone="no"?>
<svg xmlns:xlink="http://www.w3.org/1999/xlink" height="113.2px" width="33.0px" xmlns="http://www.w3.org/2000/svg">
  <g transform="matrix(1.0, 0.0, 0.0, 1.0, 25.0, 40.2)">
    <path d="M2.0 -8.0 L-2.0 -8.0 -2.0 -9.0 2.0 -9.0 2.0 -8.0 M7.0 -27.0 Q0.1 -28.1 -7.0 -27.0 L-8.0 -29.0 8.0 -29.0 7.0 -27.0 M4.0 -17.0 L-4.0 -17.0 -4.0 -18.0 4.0 -18.0 4.0 -17.0 M-19.0 -38.0 L-19.0 -37.0 -25.0 -37.0 -25.0 -38.0 -22.0 -38.0 -20.25 -40.2 -20.0 -38.0 -19.0 -38.0 M-2.0 48.0 L2.0 48.0 2.0 49.0 -2.0 49.0 -2.0 48.0 M-6.0 72.0 L6.0 72.0 6.0 73.0 -6.0 73.0 -6.0 72.0" fill="#000000" fill-opacity="0.2509804" fill-rule="evenodd" stroke="none"/>
    <path d="M2.0 -4.0 L-2.0 -4.0 -2.0 -5.0 2.0 -5.0 2.0 -4.0" fill="#000000" fill-opacity="0.4" fill-rule="evenodd" stroke="none"/>
  </g>
</svg>
