<?xml version="1.0" encoding="UTF-8" standalone="no"?>
<svg xmlns:xlink="http://www.w3.org/1999/xlink" height="6.0px" width="6.0px" xmlns="http://www.w3.org/2000/svg">
  <g transform="matrix(1.0, 0.0, 0.0, 1.0, 3.0, 3.0)">
    <path d="M2.1 -2.15 Q3.0 -1.25 3.0 0.0 3.0 1.25 2.1 2.1 1.25 3.0 0.0 3.0 -1.25 3.0 -2.15 2.1 -3.0 1.25 -3.0 0.0 -3.0 -1.25 -2.15 -2.15 -1.25 -3.0 0.0 -3.0 1.25 -3.0 2.1 -2.15" fill="url(#gradient0)" fill-rule="evenodd" stroke="none"/>
    <path d="M2.1 -2.15 Q3.0 -1.25 3.0 0.0 3.0 1.25 2.1 2.1 1.25 3.0 0.0 3.0 -1.25 3.0 -2.15 2.1 -3.0 1.25 -3.0 0.0 -3.0 -1.25 -2.15 -2.15 -1.25 -3.0 0.0 -3.0 1.25 -3.0 2.1 -2.15" fill="url(#gradient1)" fill-rule="evenodd" stroke="none"/>
  </g>
  <defs>
    <radialGradient cx="0" cy="0" fx="816.0" fy="0" gradientTransform="matrix(0.0, -0.0123, 0.0059, 0.0, 0.05, 9.2)" gradientUnits="userSpaceOnUse" id="gradient0" r="819.2" spreadMethod="pad">
      <stop offset="0.06666666666666667" stop-color="#eae6cd"/>
      <stop offset="0.2196078431372549" stop-color="#a69327"/>
      <stop offset="0.43529411764705883" stop-color="#7d6e19"/>
      <stop offset="0.5647058823529412" stop-color="#4b4324"/>
      <stop offset="1.0" stop-color="#746318"/>
    </radialGradient>
    <radialGradient cx="0" cy="0" fx="816.0" fy="0" gradientTransform="matrix(-0.0023, 0.0092, -0.0046, -0.0011, 2.0, -8.55)" gradientUnits="userSpaceOnUse" id="gradient1" r="819.2" spreadMethod="pad">
      <stop offset="0.06666666666666667" stop-color="#eae6cd" stop-opacity="0.4627451"/>
      <stop offset="0.2196078431372549" stop-color="#a69327" stop-opacity="0.67058825"/>
      <stop offset="0.43529411764705883" stop-color="#7d6e19" stop-opacity="0.6627451"/>
      <stop offset="0.5647058823529412" stop-color="#4b4324" stop-opacity="0.47058824"/>
      <stop offset="1.0" stop-color="#4b4324" stop-opacity="0.0"/>
    </radialGradient>
  </defs>
</svg>
