<?xml version="1.0" encoding="UTF-8" standalone="no"?>
<svg xmlns:xlink="http://www.w3.org/1999/xlink" height="5.1px" width="4.0px" xmlns="http://www.w3.org/2000/svg">
  <g transform="matrix(1.0, 0.0, 0.0, 1.0, 2.0, 2.55)">
    <path d="M0.6 -2.5 Q1.15 -2.5 1.55 -2.1 L2.0 -1.1 2.0 1.1 1.55 2.05 Q1.15 2.5 0.6 2.5 L-0.6 2.5 Q-1.15 2.5 -1.6 2.05 -2.0 1.65 -2.0 1.1 L-2.0 -1.1 Q-2.0 -1.65 -1.6 -2.1 -1.15 -2.5 -0.6 -2.5 L0.6 -2.5 M0.0 -1.5 L-0.6 -1.3 -0.8 -0.7 -0.8 0.7 -0.6 1.25 0.0 1.5 0.55 1.25 0.8 0.7 0.8 -0.7 0.55 -1.3 0.0 -1.5" fill="url(#gradient0)" fill-rule="evenodd" stroke="none"/>
    <path d="M1.65 -0.45 Q1.25 -0.45 1.1 -1.1 0.95 -1.75 0.15 -1.75 L-0.15 -1.65 Q-0.65 -1.65 -0.65 -2.1 -0.65 -2.55 0.05 -2.55 1.15 -2.55 1.7 -1.85 L2.0 -1.0 Q2.0 -0.45 1.65 -0.45" fill="url(#gradient1)" fill-rule="evenodd" stroke="none"/>
    <path d="M0.0 2.55 Q-1.1 2.55 -1.65 1.85 L-1.95 1.0 Q-1.95 0.45 -1.6 0.45 -1.2 0.45 -1.05 1.1 -0.9 1.75 -0.1 1.75 L0.2 1.65 Q0.7 1.65 0.7 2.1 0.7 2.55 0.0 2.55" fill="url(#gradient2)" fill-rule="evenodd" stroke="none"/>
  </g>
  <defs>
    <linearGradient gradientTransform="matrix(0.0033, -8.0E-4, 7.0E-4, 0.0029, 0.0, 0.0)" gradientUnits="userSpaceOnUse" id="gradient0" spreadMethod="pad" x1="-819.2" x2="819.2">
      <stop offset="0.0" stop-color="#4e4e4e"/>
      <stop offset="0.5176470588235295" stop-color="#757575"/>
      <stop offset="0.8470588235294118" stop-color="#aaaaaa"/>
    </linearGradient>
    <radialGradient cx="0" cy="0" gradientTransform="matrix(0.0014, 1.0E-4, -1.0E-4, 0.0014, 1.15, -1.8)" gradientUnits="userSpaceOnUse" id="gradient1" r="819.2" spreadMethod="pad">
      <stop offset="0.12156862745098039" stop-color="#bfbfbf"/>
      <stop offset="0.30196078431372547" stop-color="#d5d5d5" stop-opacity="0.0"/>
    </radialGradient>
    <radialGradient cx="0" cy="0" gradientTransform="matrix(-0.002, 0.0, 0.0, -0.0015, -1.1, 2.05)" gradientUnits="userSpaceOnUse" id="gradient2" r="819.2" spreadMethod="pad">
      <stop offset="0.10588235294117647" stop-color="#4e4e4e"/>
      <stop offset="0.8313725490196079" stop-color="#585858" stop-opacity="0.0"/>
    </radialGradient>
  </defs>
</svg>
