<?xml version="1.0" encoding="UTF-8" standalone="no"?>
<svg xmlns:xlink="http://www.w3.org/1999/xlink" height="95.5px" width="86.85px" xmlns="http://www.w3.org/2000/svg">
  <g transform="matrix(1.0, 0.0, 0.0, 1.0, 6.9, -33.05)">
    <path d="M61.95 40.9 Q67.2 43.2 70.95 46.95 74.6 50.7 76.5 55.3 78.5 59.85 78.5 64.55 78.5 69.75 75.65 75.9 72.8 82.05 68.9 88.2 65.05 94.35 60.8 100.0 56.6 105.65 53.9 109.65 L79.95 109.65 71.9 128.55 34.55 128.55 Q37.85 122.1 42.3 115.0 L50.9 100.65 Q54.9 93.45 57.7 86.45 60.5 79.35 60.5 72.9 60.5 67.45 58.05 64.4 55.7 61.4 52.15 59.85 48.45 58.4 44.35 57.95 L36.85 57.6 50.0 38.55 Q56.6 38.55 61.95 40.9 M8.45 41.3 L14.85 40.45 Q17.85 39.95 18.9 39.25 L18.9 128.55 0.0 128.55 0.0 56.1 Q0.0 52.25 -0.9 48.4 -1.85 44.7 -3.15 42.1 L1.75 41.9 8.45 41.3" fill="#666666" fill-rule="evenodd" stroke="none"/>
    <path d="M67.2 41.45 Q70.85 45.2 72.75 49.8 74.75 54.35 74.75 59.05 74.75 64.25 71.9 70.4 69.05 76.55 65.15 82.7 61.3 88.85 57.05 94.5 52.85 100.15 50.15 104.15 L76.2 104.15 68.15 123.05 30.8 123.05 Q34.1 116.6 38.55 109.5 L47.15 95.15 Q51.15 87.95 53.95 80.95 56.75 73.85 56.75 67.4 56.75 61.95 54.3 58.9 51.95 55.9 48.4 54.35 44.7 52.9 40.6 52.45 L33.1 52.1 46.25 33.05 Q52.85 33.05 58.2 35.4 63.45 37.7 67.2 41.45" fill="url(#gradient0)" fill-rule="evenodd" stroke="none"/>
    <path d="M11.1 34.95 Q14.1 34.45 15.15 33.75 L15.15 123.05 -3.75 123.05 -3.75 50.6 Q-3.75 46.75 -4.65 42.9 -5.6 39.2 -6.9 36.6 L-2.0 36.4 4.7 35.8 11.1 34.95" fill="url(#gradient1)" fill-rule="evenodd" stroke="none"/>
  </g>
  <defs>
    <linearGradient gradientTransform="matrix(2.0E-4, -0.0545, 0.0549, 2.0E-4, 53.5, 78.05)" gradientUnits="userSpaceOnUse" id="gradient0" spreadMethod="pad" x1="-819.2" x2="819.2">
      <stop offset="0.0" stop-color="#55000f"/>
      <stop offset="1.0" stop-color="#ff005a"/>
    </linearGradient>
    <linearGradient gradientTransform="matrix(2.0E-4, -0.0545, 0.0549, 2.0E-4, 46.25, 78.05)" gradientUnits="userSpaceOnUse" id="gradient1" spreadMethod="pad" x1="-819.2" x2="819.2">
      <stop offset="0.0" stop-color="#55000f"/>
      <stop offset="1.0" stop-color="#ff005a"/>
    </linearGradient>
  </defs>
</svg>
