<?xml version="1.0" encoding="UTF-8" standalone="no"?>
<svg xmlns:xlink="http://www.w3.org/1999/xlink" height="95.5px" width="49.15px" xmlns="http://www.w3.org/2000/svg">
  <g transform="matrix(1.0, 0.0, 0.0, 1.0, -10.35, -33.05)">
    <path d="M50.5 46.95 Q54.15 50.7 56.05 55.3 58.05 59.85 58.05 64.55 58.05 69.75 55.2 75.9 52.35 82.05 48.45 88.2 44.6 94.35 40.35 100.0 36.15 105.65 33.45 109.65 L59.5 109.65 51.45 128.55 14.1 128.55 Q17.4 122.1 21.85 115.0 L30.45 100.65 Q34.45 93.45 37.25 86.45 40.05 79.35 40.05 72.9 40.05 67.45 37.6 64.4 35.25 61.4 31.7 59.85 28.0 58.4 23.9 57.95 L16.4 57.6 29.55 38.55 Q36.15 38.55 41.5 40.9 46.75 43.2 50.5 46.95" fill="#666666" fill-rule="evenodd" stroke="none"/>
    <path d="M37.75 35.4 Q43.0 37.7 46.75 41.45 50.4 45.2 52.3 49.8 54.3 54.35 54.3 59.05 54.3 64.25 51.45 70.4 48.6 76.55 44.7 82.7 40.85 88.85 36.6 94.5 32.4 100.15 29.7 104.15 L55.75 104.15 47.7 123.05 10.35 123.05 Q13.65 116.6 18.1 109.5 L26.7 95.15 Q30.7 87.95 33.5 80.95 36.3 73.85 36.3 67.4 36.3 61.95 33.85 58.9 31.5 55.9 27.95 54.35 24.25 52.9 20.15 52.45 L12.65 52.1 25.8 33.05 Q32.4 33.05 37.75 35.4" fill="url(#gradient0)" fill-rule="evenodd" stroke="none"/>
  </g>
  <defs>
    <linearGradient gradientTransform="matrix(2.0E-4, -0.0545, 0.0549, 2.0E-4, 629.0, 78.05)" gradientUnits="userSpaceOnUse" id="gradient0" spreadMethod="pad" x1="-819.2" x2="819.2">
      <stop offset="0.0" stop-color="#55000f"/>
      <stop offset="1.0" stop-color="#ff005a"/>
    </linearGradient>
  </defs>
</svg>
