<?xml version="1.0" encoding="UTF-8" standalone="no"?>
<svg xmlns:xlink="http://www.w3.org/1999/xlink" height="35.05px" width="17.45px" xmlns="http://www.w3.org/2000/svg">
  <g transform="matrix(1.0, 0.0, 0.0, 1.0, -2.35, -0.5)">
    <path d="M16.9 0.85 L18.3 0.85 Q18.9 0.85 19.35 1.3 19.8 1.75 19.8 2.35 19.8 6.1 18.85 9.7 L16.7 16.4 16.75 16.4 14.75 22.6 Q13.85 25.4 13.85 28.0 L14.0 30.75 14.15 34.05 Q14.15 34.65 13.7 35.1 13.25 35.55 12.65 35.55 L7.0 35.55 Q6.4 35.55 5.95 35.1 5.5 34.65 5.5 34.05 5.5 30.7 6.15 27.85 6.7 25.0 7.65 22.55 8.6 20.1 9.7 18.0 L9.7 18.05 11.65 14.25 13.05 11.05 13.35 10.15 7.0 10.15 5.65 10.4 4.65 10.9 3.6 11.1 2.65 10.5 Q2.3 10.0 2.35 9.45 L3.25 1.85 Q3.3 1.25 3.8 0.85 4.2 0.45 4.8 0.5 5.4 0.55 5.8 0.95 5.5 0.6 5.85 0.6 L8.1 0.65 8.15 0.65 11.2 0.75 14.3 0.8 14.35 0.8 16.9 0.85" fill="#000000" fill-rule="evenodd" stroke="none"/>
    <path d="M16.9 2.35 L18.3 2.35 Q18.3 5.9 17.4 9.3 L15.3 15.9 13.3 22.15 Q12.35 25.2 12.35 28.0 L12.5 30.9 12.65 34.05 7.0 34.05 Q7.0 30.85 7.6 28.15 8.15 25.4 9.05 23.05 9.95 20.7 11.0 18.7 L12.95 14.9 14.45 11.6 Q15.05 10.05 15.05 8.65 L7.0 8.65 5.05 9.0 3.85 9.6 4.75 2.0 5.75 2.1 8.1 2.15 11.15 2.25 14.3 2.3 16.9 2.35" fill="url(#gradient0)" fill-rule="evenodd" stroke="none"/>
  </g>
  <defs>
    <linearGradient gradientTransform="matrix(0.0, 0.0206, -0.0222, 0.0, -54.85, 15.65)" gradientUnits="userSpaceOnUse" id="gradient0" spreadMethod="pad" x1="-819.2" x2="819.2">
      <stop offset="0.0" stop-color="#ffffff"/>
      <stop offset="1.0" stop-color="#757575"/>
    </linearGradient>
  </defs>
</svg>
