<?xml version="1.0" encoding="UTF-8" standalone="no"?>
<svg xmlns:xlink="http://www.w3.org/1999/xlink" height="49.0px" width="100.8px" xmlns="http://www.w3.org/2000/svg">
  <g transform="matrix(1.0, 0.0, 0.0, 1.0, 50.4, 24.5)">
    <path d="M23.25 -7.95 Q25.85 -10.15 30.45 -12.7 38.75 -17.25 45.5 -18.5 L45.9 -18.55 Q48.8 -19.25 49.85 -14.25 50.4 -11.75 50.4 -6.7 L50.4 -6.65 Q50.35 2.2 49.35 5.65 49.15 6.4 48.55 6.9 L48.15 7.15 Q48.75 9.0 48.85 12.3 48.95 16.3 48.4 18.45 48.15 19.3 47.4 19.85 46.65 20.4 45.75 20.3 37.15 19.5 31.1 15.85 26.05 12.85 23.15 8.25 L22.85 9.1 Q21.05 13.6 17.35 17.35 10.15 24.5 0.0 24.5 -7.7 24.5 -13.65 20.35 L-13.65 20.4 -17.3 17.35 Q-21.5 13.15 -23.25 8.0 -25.85 10.15 -30.45 12.7 -38.75 17.25 -45.5 18.5 L-45.85 18.55 Q-48.8 19.25 -49.85 14.25 -50.4 11.75 -50.4 6.7 -50.35 -2.2 -49.35 -5.6 -49.15 -6.4 -48.5 -6.85 L-48.15 -7.15 Q-48.75 -9.0 -48.85 -12.25 -48.95 -16.3 -48.35 -18.4 -48.15 -19.3 -47.35 -19.85 -46.65 -20.4 -45.7 -20.3 -37.15 -19.5 -31.05 -15.85 -26.05 -12.85 -23.15 -8.25 -21.4 -13.25 -17.3 -17.3 L-13.65 -20.35 Q-7.7 -24.5 0.0 -24.5 10.15 -24.5 17.35 -17.3 21.05 -13.6 22.85 -9.05 L23.25 -7.95" fill="#000000" fill-rule="evenodd" stroke="none"/>
    <path d="M20.5 -8.15 Q22.0 -4.4 22.0 0.0 22.0 4.4 20.5 8.15 18.9 12.2 15.55 15.55 9.1 22.0 0.0 22.0 -6.9 22.0 -12.25 18.3 L-15.55 15.55 Q-22.0 9.1 -22.0 0.0 -22.0 -9.1 -15.55 -15.55 L-12.25 -18.3 Q-6.9 -22.0 0.0 -22.0 9.1 -22.0 15.55 -15.55 18.9 -12.2 20.5 -8.15" fill="url(#gradient0)" fill-rule="evenodd" stroke="none"/>
    <path d="M8.3 -16.35 Q7.0 -17.65 7.0 -19.5 L7.2 -20.85 Q11.3 -19.45 14.7 -16.35 L14.65 -16.35 Q13.35 -15.0 11.5 -15.0 9.65 -15.0 8.3 -16.35" fill="url(#gradient1)" fill-rule="evenodd" stroke="none"/>
    <path d="M1.65 -5.35 Q0.35 -4.0 -1.5 -4.0 -3.35 -4.0 -4.7 -5.35 -6.0 -6.65 -6.0 -8.5 -6.0 -10.35 -4.7 -11.7 -3.35 -13.0 -1.5 -13.0 0.35 -13.0 1.65 -11.7 3.0 -10.35 3.0 -8.5 3.0 -6.65 1.65 -5.35" fill="url(#gradient2)" fill-rule="evenodd" stroke="none"/>
    <path d="M16.0 4.5 Q16.0 6.35 14.65 7.65 13.35 9.0 11.5 9.0 9.65 9.0 8.3 7.65 7.0 6.35 7.0 4.5 7.0 2.65 8.3 1.3 9.65 0.0 11.5 0.0 13.35 0.0 14.65 1.3 16.0 2.65 16.0 4.5" fill="url(#gradient3)" fill-rule="evenodd" stroke="none"/>
    <path d="M7.5 15.0 Q9.35 15.0 10.65 16.3 11.65 17.3 11.9 18.55 8.1 21.05 3.6 21.75 3.0 20.75 3.0 19.5 3.0 17.65 4.3 16.3 5.65 15.0 7.5 15.0" fill="url(#gradient4)" fill-rule="evenodd" stroke="none"/>
    <path d="M-10.5 -17.0 Q-11.9 -17.0 -13.0 -17.75 -9.8 -20.2 -6.0 -21.2 -6.1 -19.55 -7.35 -18.35 -8.65 -17.0 -10.5 -17.0" fill="url(#gradient5)" fill-rule="evenodd" stroke="none"/>
    <path d="M-8.0 8.5 Q-8.0 10.35 -9.35 11.65 -10.65 13.0 -12.5 13.0 -14.35 13.0 -15.7 11.65 -17.0 10.35 -17.0 8.5 -17.0 6.65 -15.7 5.3 -14.35 4.0 -12.5 4.0 -10.65 4.0 -9.35 5.3 -8.0 6.65 -8.0 8.5" fill="url(#gradient6)" fill-rule="evenodd" stroke="none"/>
  </g>
  <defs>
    <radialGradient cx="0" cy="0" gradientTransform="matrix(0.0354, 0.0, 0.0, 0.0354, 5.5, -9.0)" gradientUnits="userSpaceOnUse" id="gradient0" r="819.2" spreadMethod="pad">
      <stop offset="0.0" stop-color="#ffe815"/>
      <stop offset="0.27450980392156865" stop-color="#f7d539"/>
      <stop offset="0.8274509803921568" stop-color="#c8990d"/>
      <stop offset="1.0" stop-color="#c5b525"/>
    </radialGradient>
    <linearGradient gradientTransform="matrix(0.0047, 0.0, 0.0, 0.0036, 10.85, -17.95)" gradientUnits="userSpaceOnUse" id="gradient1" spreadMethod="pad" x1="-819.2" x2="819.2">
      <stop offset="0.0" stop-color="#ffffff"/>
      <stop offset="1.0" stop-color="#e2e2e2"/>
    </linearGradient>
    <linearGradient gradientTransform="matrix(0.0055, 0.0, 0.0, 0.0055, -1.5, -8.5)" gradientUnits="userSpaceOnUse" id="gradient2" spreadMethod="pad" x1="-819.2" x2="819.2">
      <stop offset="0.0" stop-color="#ededed"/>
      <stop offset="1.0" stop-color="#ffffff"/>
    </linearGradient>
    <linearGradient gradientTransform="matrix(0.0055, 0.0, 0.0, 0.0055, 11.5, 4.5)" gradientUnits="userSpaceOnUse" id="gradient3" spreadMethod="pad" x1="-819.2" x2="819.2">
      <stop offset="0.0" stop-color="#ffffff"/>
      <stop offset="1.0" stop-color="#dbdbdb"/>
    </linearGradient>
    <linearGradient gradientTransform="matrix(0.0054, 0.0, 0.0, 0.0041, 7.45, 18.35)" gradientUnits="userSpaceOnUse" id="gradient4" spreadMethod="pad" x1="-819.2" x2="819.2">
      <stop offset="0.0" stop-color="#ffffff"/>
      <stop offset="1.0" stop-color="#d5d5d5"/>
    </linearGradient>
    <linearGradient gradientTransform="matrix(0.0043, 0.0, 0.0, 0.0026, -9.5, -19.1)" gradientUnits="userSpaceOnUse" id="gradient5" spreadMethod="pad" x1="-819.2" x2="819.2">
      <stop offset="0.0" stop-color="#ffffff"/>
      <stop offset="1.0" stop-color="#e2e2e2"/>
    </linearGradient>
    <linearGradient gradientTransform="matrix(0.0055, 0.0, 0.0, 0.0055, -12.5, 8.5)" gradientUnits="userSpaceOnUse" id="gradient6" spreadMethod="pad" x1="-819.2" x2="819.2">
      <stop offset="0.0" stop-color="#eaeaea"/>
      <stop offset="1.0" stop-color="#e6e6e6"/>
    </linearGradient>
  </defs>
</svg>
