<?xml version="1.0" encoding="UTF-8" standalone="no"?>
<svg xmlns:xlink="http://www.w3.org/1999/xlink" height="33.85px" width="29.55px" xmlns="http://www.w3.org/2000/svg">
  <g transform="matrix(1.0, 0.0, 0.0, 1.0, -18.4, 16.0)">
    <path d="M46.0 -16.0 Q47.95 -16.05 47.95 -6.65 47.9 1.75 47.0 5.0 L31.65 6.15 Q32.5 0.0 36.8 -7.0 41.4 -14.5 46.0 -16.0" fill="#183792" fill-rule="evenodd" stroke="none"/>
    <path d="M31.7 -10.45 Q39.6 -14.8 46.0 -16.0 42.55 -12.4 44.05 -3.85 46.0 7.2 45.0 12.0 38.15 11.75 33.0 9.5 28.1 7.35 24.0 3.0 L22.4 -3.3 Q24.1 -6.25 31.7 -10.45" fill="url(#gradient0)" fill-rule="evenodd" stroke="none"/>
    <path d="M46.4 12.4 Q46.5 15.95 46.0 17.85 38.05 17.1 32.4 13.75 26.2 10.05 23.6 3.55 22.6 0.9 22.45 -1.05 27.5 2.75 33.9 4.95 39.75 6.95 45.35 7.1 46.3 8.45 46.4 12.4" fill="url(#gradient1)" fill-rule="evenodd" stroke="none"/>
    <path d="M29.15 -4.35 L41.1 -6.6 Q35.8 -3.8 31.35 -2.05 24.85 0.5 22.3 0.1 L21.55 -0.8 Q21.9 -2.6 29.15 -4.35" fill="url(#gradient2)" fill-rule="evenodd" stroke="none"/>
    <path d="M18.8 -0.1 Q18.15 -2.25 18.55 -3.75 21.5 -5.1 22.55 -3.3 L23.7 3.65 Q22.0 4.45 20.1 2.55 19.35 1.8 18.8 -0.1" fill="url(#gradient3)" fill-rule="evenodd" stroke="none"/>
  </g>
  <defs>
    <linearGradient gradientTransform="matrix(0.0165, -0.0082, 0.0076, 0.0153, 34.55, -1.95)" gradientUnits="userSpaceOnUse" id="gradient0" spreadMethod="pad" x1="-819.2" x2="819.2">
      <stop offset="0.18823529411764706" stop-color="#042b9d"/>
      <stop offset="1.0" stop-color="#2672fb"/>
    </linearGradient>
    <linearGradient gradientTransform="matrix(0.0179, -0.0053, 0.0038, 0.0128, 34.15, 7.1)" gradientUnits="userSpaceOnUse" id="gradient1" spreadMethod="pad" x1="-819.2" x2="819.2">
      <stop offset="0.19607843137254902" stop-color="#0f21b7"/>
      <stop offset="0.8" stop-color="#2459f7"/>
    </linearGradient>
    <linearGradient gradientTransform="matrix(0.0119, 0.0, 0.0, 0.0041, 31.3, -3.25)" gradientUnits="userSpaceOnUse" id="gradient2" spreadMethod="pad" x1="-819.2" x2="819.2">
      <stop offset="0.0" stop-color="#0a2883"/>
      <stop offset="0.9098039215686274" stop-color="#0f42db" stop-opacity="0.0"/>
    </linearGradient>
    <linearGradient gradientTransform="matrix(0.0, 0.0054, -0.0049, 0.0, 20.3, 0.05)" gradientUnits="userSpaceOnUse" id="gradient3" spreadMethod="pad" x1="-819.2" x2="819.2">
      <stop offset="0.0" stop-color="#1c42f0"/>
      <stop offset="0.2627450980392157" stop-color="#1c7af9"/>
      <stop offset="0.3764705882352941" stop-color="#1f7af5"/>
      <stop offset="0.9411764705882353" stop-color="#0c36b4"/>
    </linearGradient>
  </defs>
</svg>
