<?xml version="1.0" encoding="UTF-8" standalone="no"?>
<svg xmlns:xlink="http://www.w3.org/1999/xlink" height="141.45px" width="59.3px" xmlns="http://www.w3.org/2000/svg">
  <g transform="matrix(1.0, 0.0, 0.0, 1.0, 30.5, 70.5)">
    <path d="M12.5 -64.0 L12.5 -54.95 Q12.5 -53.8 11.65 -53.15 11.15 -52.7 10.5 -52.55 L10.5 -17.5 11.05 -17.5 12.5 -17.05 Q13.5 -16.35 13.5 -15.0 L13.5 -7.95 Q13.5 -6.6 12.5 -5.95 11.85 -5.5 11.05 -5.5 L10.5 -5.5 10.5 8.0 10.8 8.25 Q11.5 8.95 11.5 10.0 L11.8 10.25 Q12.5 10.95 12.5 12.0 L12.5 14.35 22.0 8.85 Q23.2 8.15 24.75 8.3 26.9 8.5 28.1 10.5 29.3 12.55 28.4 14.55 27.7 16.0 26.5 16.7 L13.5 24.2 13.5 31.0 13.8 31.25 Q14.5 31.95 14.5 33.0 L14.5 35.25 15.7 36.3 Q18.5 39.05 18.5 43.0 18.5 45.5 17.35 47.55 L18.1 48.65 Q18.6 49.4 18.5 50.3 L19.55 51.65 Q21.3 53.45 22.0 56.25 L22.3 58.65 Q22.5 62.0 20.4 65.4 17.3 70.45 10.5 70.9 3.7 71.35 -0.15 67.55 -2.7 65.05 -3.1 62.35 -4.35 62.1 -5.15 60.55 -6.2 58.55 -4.5 56.5 L-4.5 55.5 -10.0 55.5 -11.55 55.0 Q-12.5 54.35 -12.5 53.05 L-12.5 48.5 Q-15.1 48.15 -15.45 45.6 L-16.6 44.9 Q-17.75 43.9 -17.5 42.5 L-28.0 42.5 -29.5 42.0 Q-30.5 41.35 -30.5 40.05 L-30.5 15.0 Q-30.5 13.95 -29.75 13.25 L-23.75 7.25 Q-23.05 6.5 -22.0 6.5 L-10.5 6.5 -10.5 -5.5 -11.0 -5.5 Q-11.8 -5.5 -12.5 -6.0 -13.5 -6.65 -13.5 -7.95 L-13.5 -15.0 Q-13.5 -16.4 -12.5 -17.05 L-11.0 -17.5 -10.5 -17.5 -10.5 -52.55 -11.65 -53.15 Q-12.5 -53.9 -12.5 -54.95 L-12.5 -64.0 Q-12.5 -65.15 -11.65 -65.85 L-10.5 -66.45 -10.5 -68.0 Q-10.5 -68.8 -10.0 -69.5 -9.3 -70.5 -8.0 -70.5 L8.05 -70.5 Q9.35 -70.5 10.0 -69.5 10.5 -68.8 10.5 -68.0 L10.5 -66.45 11.65 -65.85 Q12.5 -65.15 12.5 -64.0 M14.8 58.8 Q14.8 57.6 14.05 56.75 L12.15 54.35 Q11.65 55.25 10.25 55.45 L8.5 55.5 Q8.7 56.75 7.8 57.7 7.1 58.4 6.5 58.45 6.9 60.45 4.9 62.0 L5.75 62.6 Q7.6 63.6 9.9 63.4 11.7 63.25 12.95 62.45 14.8 61.2 14.8 58.8" fill="#000000" fill-rule="evenodd" stroke="none"/>
    <path d="M8.0 -68.0 L8.0 10.0 4.0 10.0 4.0 -68.0 8.0 -68.0" fill="url(#gradient0)" fill-rule="evenodd" stroke="none"/>
    <path d="M2.0 10.0 L-2.0 10.0 -2.0 -68.0 2.0 -68.0 2.0 10.0" fill="url(#gradient1)" fill-rule="evenodd" stroke="none"/>
    <path d="M-8.0 9.0 L-8.0 -68.0 -4.0 -68.0 -4.0 10.0 -8.0 10.0 -8.0 9.0" fill="url(#gradient2)" fill-rule="evenodd" stroke="none"/>
    <path d="M-8.0 10.0 L-8.0 40.0 -28.0 40.0 -28.0 15.0 -22.0 9.0 -8.0 9.0 -8.0 10.0" fill="url(#gradient3)" fill-rule="evenodd" stroke="none"/>
    <path d="M-12.95 15.3 Q-12.45 15.6 -12.3 16.2 -12.1 16.8 -12.35 17.35 L-16.8 26.0 -12.35 34.65 Q-12.1 35.15 -12.3 35.75 -12.5 36.35 -13.05 36.6 L-14.15 36.7 -15.0 36.0 -18.5 29.25 -22.0 36.0 Q-22.25 36.5 -22.85 36.7 L-23.95 36.6 -24.7 35.75 Q-24.9 35.15 -24.65 34.65 L-20.15 26.0 -24.65 17.35 -24.7 16.2 Q-24.55 15.6 -24.05 15.3 L-22.85 15.25 Q-22.25 15.45 -22.0 16.0 L-18.5 22.8 -15.0 16.0 Q-14.75 15.45 -14.15 15.25 L-12.95 15.3" fill="#000000" fill-opacity="0.2" fill-rule="evenodd" stroke="none"/>
    <path d="M-24.65 17.35 L-24.7 16.2 Q-24.55 15.6 -24.05 15.3 L-22.85 15.25 Q-22.25 15.45 -22.0 16.0 L-18.5 22.8 M-18.5 29.25 L-22.0 36.0 Q-22.25 36.5 -22.85 36.7 L-23.95 36.6 -24.7 35.75 Q-24.9 35.15 -24.65 34.65" fill="none" stroke="url(#gradient4)" stroke-linecap="square" stroke-linejoin="round" stroke-width="0.25"/>
    <path d="M-24.65 34.65 L-20.15 26.0 -24.65 17.35 Z" fill="none" stroke="url(#gradient5)" stroke-linecap="square" stroke-linejoin="round" stroke-width="0.25"/>
    <path d="M0.5 60.95 Q0.7 64.1 3.9 65.85 6.75 67.45 10.2 67.15 14.0 66.85 16.3 64.55 18.65 62.2 18.55 58.7 18.5 56.05 16.75 54.15 14.65 51.75 14.2 50.3" fill="none" stroke="url(#gradient6)" stroke-linecap="round" stroke-linejoin="round" stroke-width="2.5"/>
    <path d="M-2.0 58.0 L-2.0 53.0 3.0 53.0 3.0 58.0 -2.0 58.0" fill="url(#gradient7)" fill-rule="evenodd" stroke="none"/>
    <path d="M2.0 60.0 L2.0 61.0 -1.0 61.0 -1.0 60.0 2.0 60.0" fill="url(#gradient8)" fill-rule="evenodd" stroke="none"/>
    <path d="M14.0 47.0 L16.0 50.0 13.0 52.0 11.0 49.0 14.0 47.0" fill="url(#gradient9)" fill-rule="evenodd" stroke="none"/>
    <path d="M3.0 58.0 L3.15 58.0 3.75 58.25 4.0 58.85 4.0 59.15 3.75 59.75 3.15 60.0 2.0 60.0 -1.0 60.0 -2.15 60.0 -2.75 59.75 -3.0 59.15 -3.0 58.85 -2.75 58.25 -2.15 58.0 -2.0 58.0 3.0 58.0" fill="url(#gradient10)" fill-rule="evenodd" stroke="none"/>
    <path d="M-2.0 53.0 L-10.0 53.0 -10.0 44.0 10.0 44.0 10.0 53.0 3.0 53.0 -2.0 53.0" fill="url(#gradient11)" fill-rule="evenodd" stroke="none"/>
    <path d="M0.0 47.0 L-5.0 47.0 -5.0 45.0 -9.0 45.0 -9.0 47.0 -11.8 47.0 Q-13.0 47.0 -13.0 45.8 L-13.0 21.2 Q-13.0 20.0 -11.8 20.0 L5.0 20.0 5.0 34.0 12.0 34.0 12.0 53.0 9.0 53.45 Q5.1 53.45 2.3 50.7 0.7 49.05 0.05 47.1 L0.0 47.0" fill="#000000" fill-opacity="0.2" fill-rule="evenodd" stroke="none"/>
    <path d="M2.0 49.0 L-2.0 49.0 -2.0 48.0 2.0 48.0 2.0 49.0 M1.0 47.0 L-2.0 47.0 -2.0 46.0 1.0 46.0 1.0 47.0 M2.0 51.0 L-2.0 51.0 -2.0 50.0 2.0 50.0 2.0 51.0 M3.0 50.0 L4.0 50.0 4.0 51.0 3.0 51.0 3.0 50.0 M-7.0 46.0 L-3.0 46.0 -3.0 47.0 -7.0 47.0 -7.0 46.0 M-7.0 48.0 L-3.0 48.0 -3.0 49.0 -7.0 49.0 -7.0 48.0 M-5.0 44.0 L-9.0 44.0 -9.0 40.0 -5.0 40.0 -5.0 44.0 M-7.0 51.0 L-7.0 50.0 -3.0 50.0 -3.0 51.0 -7.0 51.0" fill="#000000" fill-rule="evenodd" stroke="none"/>
    <path d="M0.0 56.0 L0.0 53.0 6.0 53.0 6.0 56.0 0.0 56.0" fill="url(#gradient12)" fill-rule="evenodd" stroke="none"/>
    <path d="M-9.0 12.0 L-9.0 10.0 9.0 10.0 9.0 12.0 -9.0 12.0" fill="url(#gradient13)" fill-rule="evenodd" stroke="none"/>
    <path d="M11.0 -8.0 L-11.0 -8.0 -11.0 -15.0 11.0 -15.0 11.0 -8.0" fill="url(#gradient14)" fill-rule="evenodd" stroke="none"/>
    <path d="M10.0 -61.0 L-10.0 -61.0 -10.0 -64.0 10.0 -64.0 10.0 -61.0" fill="url(#gradient15)" fill-rule="evenodd" stroke="none"/>
    <path d="M10.0 -55.0 L-10.0 -55.0 -10.0 -58.0 10.0 -58.0 10.0 -55.0" fill="url(#gradient16)" fill-rule="evenodd" stroke="none"/>
    <path d="M-10.0 19.0 L-10.0 12.0 -9.0 12.0 9.0 12.0 10.0 12.0 10.0 19.0 5.0 19.0 -10.0 19.0" fill="url(#gradient17)" fill-rule="evenodd" stroke="none"/>
    <path d="M-13.0 22.0 L-13.0 19.0 -10.0 19.0 5.0 19.0 5.0 33.0 11.0 33.0 12.0 33.0 12.0 52.0 9.0 52.45 Q5.1 52.45 2.3 49.7 0.7 48.05 0.05 46.1 L0.0 46.0 -5.0 46.0 -5.0 40.0 -9.0 40.0 -9.0 46.0 -13.0 46.0 -13.0 44.0 -13.0 22.0" fill="url(#gradient18)" fill-rule="evenodd" stroke="none"/>
    <path d="M10.0 19.0 L11.0 19.0 11.0 33.0 5.0 33.0 5.0 19.0 10.0 19.0" fill="url(#gradient19)" fill-rule="evenodd" stroke="none"/>
    <path d="M-15.0 34.0 L-15.0 23.0 -13.0 22.0 -13.0 44.0 -15.0 44.0 -15.0 42.0 -15.0 34.0" fill="url(#gradient20)" fill-rule="evenodd" stroke="none"/>
    <path d="M-15.0 42.0 L-17.0 40.0 -17.0 34.0 -15.0 34.0 -15.0 42.0" fill="url(#gradient21)" fill-rule="evenodd" stroke="none"/>
    <path d="M14.65 48.65 Q12.3 51.0 9.0 51.0 5.7 51.0 3.35 48.65 1.0 46.3 1.0 43.0 1.0 39.7 3.35 37.35 5.7 35.0 9.0 35.0 12.3 35.0 14.65 37.35 17.0 39.7 17.0 43.0 17.0 46.3 14.65 48.65" fill="#000000" fill-opacity="0.2509804" fill-rule="evenodd" stroke="none"/>
    <path d="M5.0 17.0 L7.0 17.0 7.0 19.0 5.0 19.0 5.0 17.0 M-8.2 24.2 Q-7.85 24.6 -7.85 25.15 -7.85 25.7 -8.2 26.1 -8.6 26.5 -9.15 26.5 -9.7 26.5 -10.1 26.1 -10.5 25.7 -10.5 25.15 -10.5 24.6 -10.1 24.2 -9.7 23.85 -9.15 23.85 -8.6 23.85 -8.2 24.2 M-5.85 21.6 Q-5.3 21.6 -4.9 22.0 -4.5 22.4 -4.5 22.95 -4.5 23.5 -4.9 23.9 -5.3 24.25 -5.85 24.25 L-6.8 23.9 Q-7.15 23.5 -7.15 22.95 -7.15 22.4 -6.8 22.0 -6.4 21.6 -5.85 21.6 M-7.0 19.0 L-7.0 17.0 -5.0 17.0 -5.0 19.0 -7.0 19.0 M-4.5 26.8 Q-4.5 27.35 -4.9 27.75 -5.3 28.15 -5.85 28.15 -6.4 28.15 -6.8 27.75 -7.15 27.35 -7.15 26.8 -7.15 26.25 -6.8 25.85 -6.4 25.5 -5.85 25.5 -5.3 25.5 -4.9 25.85 -4.5 26.25 -4.5 26.8 M-4.5 30.7 Q-4.5 31.25 -4.9 31.6 -5.3 32.0 -5.85 32.0 -6.4 32.0 -6.8 31.6 L-7.15 30.7 Q-7.15 30.15 -6.8 29.75 -6.4 29.35 -5.85 29.35 -5.3 29.35 -4.9 29.75 -4.5 30.15 -4.5 30.7 M-7.85 29.0 Q-7.85 29.6 -8.2 29.95 -8.6 30.35 -9.15 30.35 -9.7 30.35 -10.1 29.95 -10.5 29.6 -10.5 29.0 -10.5 28.45 -10.1 28.1 -9.7 27.7 -9.15 27.7 -8.6 27.7 -8.2 28.1 -7.85 28.45 -7.85 29.0" fill="#000000" fill-rule="evenodd" stroke="none"/>
    <path d="M7.0 -13.0 L8.0 -13.0 8.0 -10.0 7.0 -10.0 7.0 -13.0" fill="#486ddd" fill-rule="evenodd" stroke="none"/>
    <path d="M7.0 -10.0 L3.0 -10.0 3.0 -13.0 7.0 -13.0 7.0 -10.0" fill="url(#gradient22)" fill-rule="evenodd" stroke="none"/>
    <path d="M4.05 38.05 Q6.1 36.0 9.0 36.0 11.9 36.0 13.95 38.05 16.0 40.1 16.0 43.0 16.0 45.9 13.95 47.95 11.9 50.0 9.0 50.0 6.1 50.0 4.05 47.95 2.0 45.9 2.0 43.0 2.0 40.1 4.05 38.05" fill="url(#gradient23)" fill-rule="evenodd" stroke="none"/>
    <path d="M26.2 13.3 Q25.95 14.1 25.25 14.5 L9.0 23.9 9.0 30.0 Q9.0 30.85 8.4 31.4 7.85 32.0 7.0 32.0 6.15 32.0 5.55 31.4 5.0 30.85 5.0 30.05 L5.0 21.55 Q14.15 16.3 23.25 11.0 L24.75 10.85 Q25.55 11.0 25.95 11.75 26.4 12.5 26.2 13.3" fill="url(#gradient24)" fill-rule="evenodd" stroke="none"/>
    <path d="M24.6 11.85 L25.1 12.25 25.1 12.3 25.25 13.05 25.25 13.0 24.75 13.65 8.5 23.05 Q8.25 23.15 8.15 23.4 L8.0 23.9 8.0 30.0 7.75 30.7 7.7 30.75 7.0 31.0 Q6.55 31.0 6.25 30.7 6.0 30.45 6.0 30.05 L6.0 22.15 23.75 11.9 24.45 11.8 24.6 11.85" fill="url(#gradient25)" fill-rule="evenodd" stroke="none"/>
    <path d="M8.0 -58.0 L-8.0 -58.0 -8.0 -59.0 8.0 -59.0 8.0 -58.0 M8.0 -64.0 L-8.0 -64.0 -8.0 -65.0 8.0 -65.0 8.0 -64.0 M-6.0 -8.0 L-6.0 -15.0 -8.0 -15.0 -8.0 -16.0 8.0 -16.0 8.0 -15.0 -5.0 -15.0 -5.0 -8.0 -6.0 -8.0 M-10.0 18.0 L10.0 18.0 10.0 19.0 -10.0 19.0 -10.0 18.0 M-9.0 11.0 L9.0 11.0 9.0 12.0 -9.0 12.0 -9.0 11.0 M-8.0 9.0 L8.0 9.0 8.0 10.0 -8.0 10.0 -8.0 9.0 M-2.0 53.0 L6.0 53.0 6.0 54.0 -2.0 54.0 -2.0 53.0" fill="#000000" fill-opacity="0.16078432" fill-rule="evenodd" stroke="none"/>
    <path d="M8.0 -54.0 L-8.0 -54.0 -8.0 -55.0 8.0 -55.0 8.0 -54.0 M8.0 -60.0 L-8.0 -60.0 -8.0 -61.0 8.0 -61.0 8.0 -60.0 M-5.0 -8.0 L8.0 -8.0 8.0 -7.0 -8.0 -7.0 -8.0 -8.0 -6.0 -8.0 -5.0 -8.0" fill="#000000" fill-opacity="0.3019608" fill-rule="evenodd" stroke="none"/>
    <path d="M7.5 47.8 L5.45 46.5 Q4.55 45.6 4.25 44.5 M4.25 41.5 Q4.55 40.35 5.45 39.45 6.35 38.55 7.5 38.25 M13.8 44.5 Q13.4 45.6 12.5 46.5 11.6 47.4 10.5 47.8 M10.5 38.25 Q11.6 38.55 12.5 39.45 13.4 40.35 13.8 41.5" fill="none" stroke="#000000" stroke-linecap="square" stroke-linejoin="round" stroke-opacity="0.36078432" stroke-width="0.5"/>
  </g>
  <defs>
    <linearGradient gradientTransform="matrix(0.0024, 0.0, 0.0, 0.0476, 6.0, -29.0)" gradientUnits="userSpaceOnUse" id="gradient0" spreadMethod="pad" x1="-819.2" x2="819.2">
      <stop offset="0.0" stop-color="#636363"/>
      <stop offset="0.19607843137254902" stop-color="#434343"/>
      <stop offset="0.29411764705882354" stop-color="#4b4b4b"/>
      <stop offset="0.5215686274509804" stop-color="#8d8d8d"/>
      <stop offset="0.6705882352941176" stop-color="#989898"/>
      <stop offset="0.9294117647058824" stop-color="#555555"/>
    </linearGradient>
    <linearGradient gradientTransform="matrix(0.0024, 0.0, 0.0, 0.0476, 0.0, -29.0)" gradientUnits="userSpaceOnUse" id="gradient1" spreadMethod="pad" x1="-819.2" x2="819.2">
      <stop offset="0.0" stop-color="#636363"/>
      <stop offset="0.19607843137254902" stop-color="#434343"/>
      <stop offset="0.29411764705882354" stop-color="#4b4b4b"/>
      <stop offset="0.5215686274509804" stop-color="#8d8d8d"/>
      <stop offset="0.6705882352941176" stop-color="#989898"/>
      <stop offset="0.9294117647058824" stop-color="#555555"/>
    </linearGradient>
    <linearGradient gradientTransform="matrix(0.0024, 0.0, 0.0, 0.0476, -6.0, -29.0)" gradientUnits="userSpaceOnUse" id="gradient2" spreadMethod="pad" x1="-819.2" x2="819.2">
      <stop offset="0.0" stop-color="#636363"/>
      <stop offset="0.19607843137254902" stop-color="#434343"/>
      <stop offset="0.29411764705882354" stop-color="#4b4b4b"/>
      <stop offset="0.5215686274509804" stop-color="#8d8d8d"/>
      <stop offset="0.6705882352941176" stop-color="#989898"/>
      <stop offset="0.9294117647058824" stop-color="#555555"/>
    </linearGradient>
    <linearGradient gradientTransform="matrix(0.0122, 0.0, 0.0, 0.0189, -18.0, 24.5)" gradientUnits="userSpaceOnUse" id="gradient3" spreadMethod="pad" x1="-819.2" x2="819.2">
      <stop offset="0.0" stop-color="#575353"/>
      <stop offset="0.44313725490196076" stop-color="#413e3e"/>
      <stop offset="0.5294117647058824" stop-color="#323030"/>
      <stop offset="1.0" stop-color="#232323"/>
    </linearGradient>
    <linearGradient gradientTransform="matrix(0.0078, 0.0, 0.0, 0.0133, -18.5, 25.95)" gradientUnits="userSpaceOnUse" id="gradient4" spreadMethod="pad" x1="-819.2" x2="819.2">
      <stop offset="0.050980392156862744" stop-color="#606060"/>
      <stop offset="0.21176470588235294" stop-color="#232323"/>
    </linearGradient>
    <linearGradient gradientTransform="matrix(0.0078, 0.0, 0.0, 0.0133, -18.5, 25.95)" gradientUnits="userSpaceOnUse" id="gradient5" spreadMethod="pad" x1="-819.2" x2="819.2">
      <stop offset="0.12156862745098039" stop-color="#606060"/>
      <stop offset="0.6941176470588235" stop-color="#515151"/>
    </linearGradient>
    <radialGradient cx="0" cy="0" fx="406.40000000000003" fy="0" gradientTransform="matrix(0.0084, 0.0105, -0.0115, 0.0092, 12.2, 62.2)" gradientUnits="userSpaceOnUse" id="gradient6" r="819.2" spreadMethod="pad">
      <stop offset="0.050980392156862744" stop-color="#666666"/>
      <stop offset="0.3254901960784314" stop-color="#515151"/>
      <stop offset="0.7019607843137254" stop-color="#383838"/>
      <stop offset="0.8156862745098039" stop-color="#232323"/>
      <stop offset="0.8784313725490196" stop-color="#282828"/>
      <stop offset="0.9764705882352941" stop-color="#383838"/>
    </radialGradient>
    <linearGradient gradientTransform="matrix(0.0031, 0.0, 0.0, 0.0031, 0.5, 55.5)" gradientUnits="userSpaceOnUse" id="gradient7" spreadMethod="pad" x1="-819.2" x2="819.2">
      <stop offset="0.011764705882352941" stop-color="#999291"/>
      <stop offset="0.1450980392156863" stop-color="#787372"/>
      <stop offset="0.30196078431372547" stop-color="#7f7b7a"/>
      <stop offset="0.5529411764705883" stop-color="#c0bebe"/>
      <stop offset="0.6705882352941176" stop-color="#c0bebe"/>
      <stop offset="0.9294117647058824" stop-color="#7b7675"/>
    </linearGradient>
    <linearGradient gradientTransform="matrix(0.0018, 0.0, 0.0, 6.0E-4, 0.5, 60.5)" gradientUnits="userSpaceOnUse" id="gradient8" spreadMethod="pad" x1="-819.2" x2="819.2">
      <stop offset="0.011764705882352941" stop-color="#999291"/>
      <stop offset="0.1450980392156863" stop-color="#787372"/>
      <stop offset="0.30196078431372547" stop-color="#7f7b7a"/>
      <stop offset="0.5529411764705883" stop-color="#c0bebe"/>
      <stop offset="0.6705882352941176" stop-color="#c0bebe"/>
      <stop offset="0.9294117647058824" stop-color="#7b7675"/>
    </linearGradient>
    <linearGradient gradientTransform="matrix(0.0019, -0.0012, 0.0016, 0.0026, 13.5, 49.5)" gradientUnits="userSpaceOnUse" id="gradient9" spreadMethod="pad" x1="-819.2" x2="819.2">
      <stop offset="0.011764705882352941" stop-color="#999291"/>
      <stop offset="0.1450980392156863" stop-color="#787372"/>
      <stop offset="0.30196078431372547" stop-color="#7f7b7a"/>
      <stop offset="0.5529411764705883" stop-color="#c0bebe"/>
      <stop offset="0.6705882352941176" stop-color="#c0bebe"/>
      <stop offset="0.9294117647058824" stop-color="#7b7675"/>
    </linearGradient>
    <radialGradient cx="0" cy="0" gradientTransform="matrix(0.0, -0.0021, 0.005, 0.0, 0.5, 59.0)" gradientUnits="userSpaceOnUse" id="gradient10" r="819.2" spreadMethod="pad">
      <stop offset="0.12156862745098039" stop-color="#cbc9c9"/>
      <stop offset="0.6274509803921569" stop-color="#787372"/>
      <stop offset="1.0" stop-color="#7b7675"/>
    </radialGradient>
    <linearGradient gradientTransform="matrix(0.0122, 0.0, 0.0, 0.0055, 0.0, 48.5)" gradientUnits="userSpaceOnUse" id="gradient11" spreadMethod="pad" x1="-819.2" x2="819.2">
      <stop offset="0.011764705882352941" stop-color="#999291"/>
      <stop offset="0.10980392156862745" stop-color="#6d6767"/>
      <stop offset="0.2627450980392157" stop-color="#767474"/>
      <stop offset="0.4745098039215686" stop-color="#d2cfce"/>
      <stop offset="0.5411764705882353" stop-color="#e0dede"/>
      <stop offset="0.7529411764705882" stop-color="#aca7a4"/>
      <stop offset="0.9254901960784314" stop-color="#857c7a"/>
    </linearGradient>
    <linearGradient gradientTransform="matrix(0.0037, 0.0, 0.0, 0.0018, 3.0, 54.5)" gradientUnits="userSpaceOnUse" id="gradient12" spreadMethod="pad" x1="-819.2" x2="819.2">
      <stop offset="0.047058823529411764" stop-color="#7b7575"/>
      <stop offset="0.3607843137254902" stop-color="#8f8585"/>
      <stop offset="0.47843137254901963" stop-color="#8b8281"/>
      <stop offset="0.8980392156862745" stop-color="#605857"/>
    </linearGradient>
    <linearGradient gradientTransform="matrix(0.011, 0.0, 0.0, 0.0012, 0.0, 11.0)" gradientUnits="userSpaceOnUse" id="gradient13" spreadMethod="pad" x1="-819.2" x2="819.2">
      <stop offset="0.00392156862745098" stop-color="#515151"/>
      <stop offset="0.15294117647058825" stop-color="#8a8a8a"/>
      <stop offset="0.4666666666666667" stop-color="#cacaca"/>
      <stop offset="0.6823529411764706" stop-color="#cacaca"/>
      <stop offset="0.8823529411764706" stop-color="#9f9f9f"/>
      <stop offset="1.0" stop-color="#8d8d8d"/>
    </linearGradient>
    <linearGradient gradientTransform="matrix(0.0134, 0.0, 0.0, 0.0043, 0.0, -11.5)" gradientUnits="userSpaceOnUse" id="gradient14" spreadMethod="pad" x1="-819.2" x2="819.2">
      <stop offset="0.0" stop-color="#445082"/>
      <stop offset="0.12941176470588237" stop-color="#2e375f"/>
      <stop offset="0.24705882352941178" stop-color="#29375c"/>
      <stop offset="0.43137254901960786" stop-color="#3450a0"/>
      <stop offset="0.6196078431372549" stop-color="#486ddd"/>
      <stop offset="0.7490196078431373" stop-color="#486ddd"/>
      <stop offset="0.9411764705882353" stop-color="#2c417e"/>
    </linearGradient>
    <linearGradient gradientTransform="matrix(0.0122, 0.0, 0.0, 0.0018, 0.0, -62.5)" gradientUnits="userSpaceOnUse" id="gradient15" spreadMethod="pad" x1="-819.2" x2="819.2">
      <stop offset="0.0" stop-color="#445082"/>
      <stop offset="0.12941176470588237" stop-color="#2e375f"/>
      <stop offset="0.24705882352941178" stop-color="#29375c"/>
      <stop offset="0.43137254901960786" stop-color="#3450a0"/>
      <stop offset="0.6196078431372549" stop-color="#486ddd"/>
      <stop offset="0.7490196078431373" stop-color="#486ddd"/>
      <stop offset="0.9411764705882353" stop-color="#2c417e"/>
    </linearGradient>
    <linearGradient gradientTransform="matrix(0.0122, 0.0, 0.0, 0.0018, 0.0, -56.5)" gradientUnits="userSpaceOnUse" id="gradient16" spreadMethod="pad" x1="-819.2" x2="819.2">
      <stop offset="0.0" stop-color="#445082"/>
      <stop offset="0.12941176470588237" stop-color="#2e375f"/>
      <stop offset="0.24705882352941178" stop-color="#29375c"/>
      <stop offset="0.43137254901960786" stop-color="#3450a0"/>
      <stop offset="0.6196078431372549" stop-color="#486ddd"/>
      <stop offset="0.7490196078431373" stop-color="#486ddd"/>
      <stop offset="0.9411764705882353" stop-color="#2c417e"/>
    </linearGradient>
    <linearGradient gradientTransform="matrix(0.0122, 0.0, 0.0, 0.0043, 0.0, 15.5)" gradientUnits="userSpaceOnUse" id="gradient17" spreadMethod="pad" x1="-819.2" x2="819.2">
      <stop offset="0.0" stop-color="#445082"/>
      <stop offset="0.12941176470588237" stop-color="#2e375f"/>
      <stop offset="0.24705882352941178" stop-color="#29375c"/>
      <stop offset="0.43137254901960786" stop-color="#3450a0"/>
      <stop offset="0.6196078431372549" stop-color="#486ddd"/>
      <stop offset="0.7490196078431373" stop-color="#486ddd"/>
      <stop offset="0.9411764705882353" stop-color="#2c417e"/>
    </linearGradient>
    <linearGradient gradientTransform="matrix(0.0153, 0.0, 0.0, 0.0204, -0.4, 36.2)" gradientUnits="userSpaceOnUse" id="gradient18" spreadMethod="pad" x1="-819.2" x2="819.2">
      <stop offset="0.0" stop-color="#445082"/>
      <stop offset="0.19607843137254902" stop-color="#2e375f"/>
      <stop offset="0.4" stop-color="#29375c"/>
      <stop offset="0.4549019607843137" stop-color="#3557bb"/>
      <stop offset="0.6588235294117647" stop-color="#3355b7"/>
      <stop offset="0.9215686274509803" stop-color="#4a74ec"/>
      <stop offset="0.9490196078431372" stop-color="#6289ff"/>
    </linearGradient>
    <linearGradient gradientTransform="matrix(0.0037, 0.0, 0.0, 0.0085, 8.0, 26.0)" gradientUnits="userSpaceOnUse" id="gradient19" spreadMethod="pad" x1="-819.2" x2="819.2">
      <stop offset="0.00392156862745098" stop-color="#293981"/>
      <stop offset="1.0" stop-color="#3d57a5"/>
    </linearGradient>
    <linearGradient gradientTransform="matrix(0.0012, 0.0, 0.0, 0.0134, -14.0, 33.0)" gradientUnits="userSpaceOnUse" id="gradient20" spreadMethod="pad" x1="-819.2" x2="819.2">
      <stop offset="0.0" stop-color="#6a6362"/>
      <stop offset="0.7764705882352941" stop-color="#696261"/>
      <stop offset="0.8509803921568627" stop-color="#4b4949"/>
    </linearGradient>
    <linearGradient gradientTransform="matrix(0.0018, 0.0, 0.0, 0.0049, -16.5, 38.0)" gradientUnits="userSpaceOnUse" id="gradient21" spreadMethod="pad" x1="-819.2" x2="819.2">
      <stop offset="0.0" stop-color="#6a6362"/>
      <stop offset="0.7764705882352941" stop-color="#696261"/>
      <stop offset="0.8509803921568627" stop-color="#4b4949"/>
    </linearGradient>
    <linearGradient gradientTransform="matrix(0.0024, 0.0, 0.0, 0.0018, 5.0, -11.5)" gradientUnits="userSpaceOnUse" id="gradient22" spreadMethod="pad" x1="-819.2" x2="819.2">
      <stop offset="0.0" stop-color="#2d57d2"/>
      <stop offset="0.9411764705882353" stop-color="#233d87"/>
    </linearGradient>
    <linearGradient gradientTransform="matrix(0.0085, 0.0, 0.0, 0.0085, 9.0, 43.0)" gradientUnits="userSpaceOnUse" id="gradient23" spreadMethod="pad" x1="-819.2" x2="819.2">
      <stop offset="0.043137254901960784" stop-color="#4a74ec"/>
      <stop offset="0.9098039215686274" stop-color="#415bd3"/>
    </linearGradient>
    <radialGradient cx="0" cy="0" gradientTransform="matrix(0.0181, 0.0, 0.0, 0.0181, 15.65, 21.4)" gradientUnits="userSpaceOnUse" id="gradient24" r="819.2" spreadMethod="pad">
      <stop offset="0.6705882352941176" stop-color="#671f1f"/>
      <stop offset="1.0" stop-color="#962929"/>
    </radialGradient>
    <radialGradient cx="0" cy="0" fx="3.2" fy="0" gradientTransform="matrix(0.0144, -0.0089, 0.0082, 0.0135, 13.7, 19.5)" gradientUnits="userSpaceOnUse" id="gradient25" r="819.2" spreadMethod="pad">
      <stop offset="0.6862745098039216" stop-color="#8a2d2e"/>
      <stop offset="1.0" stop-color="#982727"/>
    </radialGradient>
  </defs>
</svg>
