<?xml version="1.0" encoding="UTF-8" standalone="no"?>
<svg xmlns:xlink="http://www.w3.org/1999/xlink" height="51.95px" width="51.95px" xmlns="http://www.w3.org/2000/svg">
  <g transform="matrix(1.0, 0.0, 0.0, 1.0, 1.0, 1.0)">
    <path d="M1.6 -0.05 Q3.8 1.35 7.85 4.8 L8.05 4.95 8.2 5.05 8.35 5.15 10.15 6.8 10.25 6.9 10.5 7.05 16.6 12.55 16.8 12.75 16.9 12.85 24.4 20.0 24.55 20.15 24.6 20.2 24.65 20.2 24.85 20.35 24.85 20.4 24.9 20.4 25.0 20.3 32.55 13.05 32.75 12.85 33.3 12.4 38.8 7.45 39.15 7.15 39.55 6.8 41.15 5.4 41.45 5.15 41.8 4.8 42.15 4.5 42.5 4.2 Q45.65 1.6 47.65 0.3 L48.45 -0.25 48.95 -0.5 50.25 -1.0 50.4 -0.95 50.5 -0.95 Q50.8 -0.9 50.7 -0.4 L50.7 -0.3 50.7 -0.25 50.65 -0.05 50.3 0.9 49.6 2.05 49.25 2.6 45.65 7.25 45.15 7.85 44.85 8.15 44.45 8.7 44.15 9.0 43.35 9.95 42.6 10.8 42.15 11.25 37.65 16.35 36.95 17.05 36.4 17.65 29.95 24.35 29.8 24.55 29.65 24.75 29.65 24.95 29.75 25.15 29.85 25.4 29.9 25.5 30.0 25.6 37.0 32.9 37.6 33.55 37.85 33.85 42.6 39.1 42.8 39.3 43.3 39.85 44.4 41.15 44.5 41.3 44.85 41.75 44.95 41.85 45.05 41.95 49.6 47.7 49.9 48.15 50.45 49.05 50.9 50.05 50.9 50.2 50.9 50.75 50.8 50.85 50.4 50.95 49.8 50.8 48.55 50.2 48.35 50.05 47.35 49.45 42.6 45.7 42.05 45.25 42.0 45.2 41.75 45.0 41.5 44.8 40.05 43.55 39.35 42.85 39.2 42.75 34.1 38.25 33.45 37.65 32.9 37.15 26.15 30.7 26.0 30.6 25.7 30.3 25.55 30.2 25.4 30.15 24.95 30.05 24.7 29.95 24.4 29.9 17.8 36.25 17.1 36.9 16.75 37.2 11.65 41.85 11.15 42.3 10.55 42.8 8.85 44.25 8.5 44.6 7.9 45.05 2.45 49.35 2.05 49.65 1.5 50.0 -0.3 50.75 -0.5 50.75 -0.9 50.45 Q-1.0 50.0 -0.45 48.9 L-0.3 48.65 0.15 47.9 Q1.55 45.75 4.6 42.15 L4.8 41.95 5.05 41.65 5.25 41.4 5.5 41.1 6.8 39.55 7.3 39.0 7.55 38.7 12.0 33.75 12.35 33.4 12.8 32.9 19.2 26.2 19.75 25.7 19.95 25.45 20.05 25.3 20.15 25.2 20.15 25.05 20.25 24.75 20.1 24.6 13.6 17.75 13.4 17.55 13.0 17.15 7.8 11.35 7.45 11.0 7.25 10.8 5.25 8.45 5.05 8.25 4.95 8.15 4.8 7.95 0.6 2.6 0.4 2.3 Q-0.8 0.6 -0.95 -0.25 L-1.0 -0.45 -0.85 -0.85 -0.8 -0.9 Q-0.35 -1.25 1.5 -0.1 L1.6 -0.05" fill="#cc0000" fill-rule="evenodd" stroke="none"/>
  </g>
</svg>
