<?xml version="1.0" encoding="UTF-8" standalone="no"?>
<svg xmlns:xlink="http://www.w3.org/1999/xlink" height="29.9px" width="283.1px" xmlns="http://www.w3.org/2000/svg">
  <g transform="matrix(1.0, 0.0, 0.0, 1.0, 141.55, 14.95)">
    <path d="M37.95 -3.85 L41.9 -14.95 45.8 -3.85 55.9 -3.6 65.95 -3.85 69.9 -14.95 73.8 -3.85 83.9 -3.6 93.95 -3.85 97.9 -14.95 101.8 -3.85 111.9 -3.6 121.95 -3.85 125.9 -14.95 129.8 -3.85 141.55 -3.55 132.2 3.65 135.6 14.95 125.9 8.25 116.15 14.95 119.55 3.65 111.9 -2.25 104.2 3.65 107.6 14.95 97.9 8.25 88.15 14.95 91.55 3.65 83.9 -2.25 76.2 3.65 79.6 14.95 69.9 8.25 60.15 14.95 63.55 3.65 55.9 -2.25 48.2 3.65 51.6 14.95 41.9 8.25 32.15 14.95 35.55 3.65 27.9 -2.25 20.2 3.65 23.6 14.95 13.9 8.25 4.15 14.95 7.55 3.65 -0.1 -2.25 -7.8 3.65 -4.4 14.95 -14.1 8.25 -23.85 14.95 -20.45 3.65 -28.1 -2.25 -35.8 3.65 -32.4 14.95 -42.1 8.25 -51.85 14.95 -48.45 3.65 -56.1 -2.25 -63.8 3.65 -60.4 14.95 -70.1 8.25 -79.85 14.95 -76.45 3.65 -84.1 -2.25 -91.8 3.65 -88.4 14.95 -98.1 8.25 -107.85 14.95 -104.45 3.65 -112.1 -2.25 -119.8 3.65 -116.4 14.95 -126.1 8.25 -135.85 14.95 -132.45 3.65 -141.55 -3.35 -141.55 -3.55 -130.05 -3.85 -126.1 -14.95 -122.2 -3.85 -112.1 -3.6 -102.05 -3.85 -98.1 -14.95 -94.2 -3.85 -84.1 -3.6 -74.05 -3.85 -70.1 -14.95 -66.2 -3.85 -56.1 -3.6 -46.05 -3.85 -42.1 -14.95 -38.2 -3.85 -28.1 -3.6 -18.05 -3.85 -14.1 -14.95 -10.2 -3.85 -0.1 -3.6 9.95 -3.85 13.9 -14.95 17.8 -3.85 27.9 -3.6 37.95 -3.85" fill="url(#gradient0)" fill-rule="evenodd" stroke="none"/>
  </g>
  <defs>
    <linearGradient gradientTransform="matrix(0.0, 0.0195, -0.0182, 0.0, 0.0, 0.05)" gradientUnits="userSpaceOnUse" id="gradient0" spreadMethod="pad" x1="-819.2" x2="819.2">
      <stop offset="0.0" stop-color="#f0c600"/>
      <stop offset="1.0" stop-color="#fef078"/>
    </linearGradient>
  </defs>
</svg>
