<?xml version="1.0" encoding="UTF-8" standalone="no"?>
<svg xmlns:xlink="http://www.w3.org/1999/xlink" height="116.0px" width="104.0px" xmlns="http://www.w3.org/2000/svg">
  <g transform="matrix(1.0, 0.0, 0.0, 1.0, 3.0, 29.0)">
    <path d="M1.0 -12.0 L1.0 82.0 Q1.0 83.0 2.0 83.0 L96.0 83.0 Q97.0 83.0 97.0 82.0 L97.0 -12.0 Q97.0 -13.0 96.0 -13.0 L2.0 -13.0 Q1.0 -13.0 1.0 -12.0 M56.0 -26.0 L56.0 -17.0 98.0 -17.0 Q101.0 -17.0 101.0 -14.0 L101.0 84.0 Q101.0 87.0 98.0 87.0 L0.0 87.0 Q-3.0 87.0 -3.0 84.0 L-3.0 -26.0 Q-3.0 -29.0 0.0 -29.0 L53.0 -29.0 Q56.0 -29.0 56.0 -26.0" fill="#000000" fill-rule="evenodd" stroke="none"/>
    <path d="M0.0 -12.0 L0.0 82.0 Q0.0 84.0 2.0 84.0 L96.0 84.0 Q98.0 84.0 98.0 82.0 L98.0 -12.0 Q98.0 -14.0 96.0 -14.0 L2.0 -14.0 Q0.0 -14.0 0.0 -12.0 M53.0 -28.0 Q55.0 -28.0 55.0 -26.0 L55.0 -16.0 98.0 -16.0 Q100.0 -16.0 100.0 -14.0 L100.0 84.0 Q100.0 86.0 98.0 86.0 L0.0 86.0 Q-2.0 86.0 -2.0 84.0 L-2.0 -26.0 Q-2.0 -28.0 0.0 -28.0 L53.0 -28.0" fill="#00ff00" fill-rule="evenodd" stroke="none"/>
  </g>
</svg>
