<?xml version="1.0" encoding="UTF-8" standalone="no"?>
<svg xmlns:xlink="http://www.w3.org/1999/xlink" height="733.7px" width="130.45px" xmlns="http://www.w3.org/2000/svg">
  <g transform="matrix(1.0, 0.0, 0.0, 1.0, -110.65, 0.95)">
    <path d="M183.0 94.0 Q183.0 130.1 197.05 166.35 L200.45 174.7 Q195.9 202.85 191.55 243.55 182.0 332.75 182.0 394.0 182.0 444.2 188.0 503.15 193.95 561.2 204.2 613.5 214.85 667.85 227.75 703.1 234.4 721.25 241.1 732.75 L156.45 728.8 145.7 728.25 Q144.35 665.95 137.15 574.75 130.5 490.6 129.6 477.75 125.3 418.6 123.0 367.0 120.1 302.25 118.7 234.45 116.9 148.0 119.0 111.0 121.0 74.25 114.2 26.3 L110.65 2.95 138.45 1.5 214.3 -0.95 Q203.75 7.0 195.7 24.9 183.0 53.25 183.0 94.0" fill="url(#gradient0)" fill-rule="evenodd" stroke="none"/>
  </g>
  <defs>
    <linearGradient gradientTransform="matrix(2.0E-4, -0.3473, 0.3381, 2.0E-4, 289.55, 436.5)" gradientUnits="userSpaceOnUse" id="gradient0" spreadMethod="pad" x1="-819.2" x2="819.2">
      <stop offset="0.0" stop-color="#ffffff"/>
      <stop offset="0.30196078431372547" stop-color="#28deec"/>
      <stop offset="0.7568627450980392" stop-color="#1f8af5"/>
      <stop offset="1.0" stop-color="#0561ba" stop-opacity="0.5803922"/>
    </linearGradient>
  </defs>
</svg>
