<?xml version="1.0" encoding="UTF-8" standalone="no"?>
<svg xmlns:xlink="http://www.w3.org/1999/xlink" height="11.25px" width="6.1px" xmlns="http://www.w3.org/2000/svg">
  <g transform="matrix(1.0, 0.0, 0.0, 1.0, 3.05, 0.0)">
    <path d="M-2.0 2.0 Q-2.0 1.15 -1.45 0.55 -0.85 0.0 0.0 0.0 0.85 0.0 1.45 0.55 2.0 1.15 2.0 2.0 L-2.0 2.0" fill="#bc2525" fill-rule="evenodd" stroke="none"/>
    <path d="M2.0 2.0 L2.0 3.0 -2.0 3.0 -2.0 2.0 2.0 2.0" fill="#a82424" fill-rule="evenodd" stroke="none"/>
    <path d="M2.0 3.0 Q3.2 7.85 3.0 11.0 L2.2 11.0 1.9 11.0 0.0 11.0 -1.75 11.0 -2.0 11.0 -3.0 11.0 Q-3.2 7.85 -2.0 3.0 L2.0 3.0 M1.9 11.0 L1.6 6.95 1.1 3.7 1.6 6.95 1.9 11.0" fill="url(#gradient0)" fill-rule="evenodd" stroke="none"/>
    <path d="M1.1 3.7 L1.6 6.95 1.9 11.0" fill="none" stroke="#832727" stroke-linecap="round" stroke-linejoin="round" stroke-width="0.5"/>
  </g>
  <defs>
    <radialGradient cx="0" cy="0" gradientTransform="matrix(0.0045, 0.0, 0.0, 0.0097, 0.05, 3.05)" gradientUnits="userSpaceOnUse" id="gradient0" r="819.2" spreadMethod="pad">
      <stop offset="0.0" stop-color="#d22424"/>
      <stop offset="1.0" stop-color="#a33838"/>
    </radialGradient>
  </defs>
</svg>
