<?xml version="1.0" encoding="UTF-8" standalone="no"?>
<svg xmlns:xlink="http://www.w3.org/1999/xlink" height="155.4px" width="25.0px" xmlns="http://www.w3.org/2000/svg">
  <g transform="matrix(1.0, 0.0, 0.0, 1.0, 12.5, 75.5)">
    <path d="M8.2 -61.0 L8.5 15.95 Q8.65 22.3 9.55 25.65 10.2 27.9 11.55 29.05 12.2 29.55 12.4 30.35 12.65 31.1 12.35 31.9 12.05 32.65 11.4 33.1 L8.4 35.1 7.9 35.35 Q8.35 35.85 8.5 36.6 8.6 37.5 8.15 38.3 6.4 41.25 5.65 44.6 L5.45 45.55 Q4.9 49.3 5.15 54.1 L6.0 63.5 6.45 64.5 7.45 69.5 Q7.6 70.25 7.3 70.95 L6.4 72.1 5.0 72.5 -5.0 72.5 -6.35 72.1 -7.3 70.95 Q-7.6 70.25 -7.45 69.5 L-6.45 64.5 -5.95 63.5 -5.15 54.1 Q-4.9 49.3 -5.45 45.55 L-5.65 44.6 Q-6.4 41.35 -8.15 38.25 -8.65 37.45 -8.45 36.6 -8.35 35.85 -7.85 35.35 L-8.35 35.1 -11.35 33.1 Q-12.05 32.65 -12.35 31.9 -12.65 31.1 -12.4 30.35 -12.2 29.55 -11.55 29.05 -10.2 27.9 -9.55 25.65 -8.65 22.3 -8.5 16.0 L-8.15 -61.0 -7.9 -62.05 -2.25 -74.05 Q-1.85 -74.95 -0.9 -75.3 0.0 -75.7 0.95 -75.3 1.85 -74.95 2.25 -74.05 L7.95 -62.05 8.2 -61.0" fill="#000000" fill-rule="evenodd" stroke="none"/>
    <path d="M5.5 72.45 Q5.5 74.7 3.95 76.3 L3.85 76.4 Q2.25 77.95 0.0 77.95 -2.3 77.95 -3.9 76.35 -5.5 74.75 -5.5 72.45 L-5.4 71.5 Q-5.2 70.65 -4.5 70.1 -3.85 69.5 -2.95 69.5 L-1.4 69.5 Q-0.6 69.5 0.05 69.95 L0.1 69.95 Q0.7 69.5 1.45 69.5 L3.0 69.5 Q4.05 69.5 4.8 70.25 5.5 70.95 5.5 72.0 L5.5 72.45" fill="#000000" fill-rule="evenodd" stroke="none"/>
    <path d="M2.9 73.6 Q2.95 75.0 1.9 76.1 L-0.9 78.9 Q-2.0 79.95 -3.4 79.9 -4.8 79.95 -5.85 78.9 -6.95 77.8 -6.9 76.4 -6.95 75.0 -5.85 73.95 L-3.05 71.15 Q-2.0 70.05 -0.6 70.1 0.9 70.0 1.95 71.1 3.0 72.1 2.9 73.6" fill="#000000" fill-rule="evenodd" stroke="none"/>
    <path d="M0.0 73.95 L1.05 73.5 1.5 72.45 1.45 72.0 3.0 72.0 3.0 72.45 Q3.0 73.7 2.1 74.55 1.25 75.45 0.0 75.45 -1.25 75.45 -2.15 74.55 -3.0 73.7 -3.0 72.45 L-2.95 72.0 -1.4 72.0 -1.5 72.45 -1.05 73.5 0.0 73.95" fill="url(#gradient0)" fill-rule="evenodd" stroke="none"/>
  </g>
  <defs>
    <radialGradient cx="0" cy="0" gradientTransform="matrix(0.0038, 0.0, 0.0, 0.0038, 0.0, 72.45)" gradientUnits="userSpaceOnUse" id="gradient0" r="819.2" spreadMethod="pad">
      <stop offset="0.5568627450980392" stop-color="#585858"/>
      <stop offset="0.7647058823529411" stop-color="#8d8d8d"/>
      <stop offset="1.0" stop-color="#606060"/>
    </radialGradient>
  </defs>
</svg>
