<?xml version="1.0" encoding="UTF-8" standalone="no"?>
<svg xmlns:xlink="http://www.w3.org/1999/xlink" height="145.0px" width="20.0px" xmlns="http://www.w3.org/2000/svg">
  <g transform="matrix(1.0, 0.0, 0.0, 1.0, 10.0, 73.0)">
    <path d="M0.0 37.0 L6.0 37.0 Q4.05 40.3 3.2 44.05 L0.0 44.0 0.0 37.0" fill="url(#gradient0)" fill-rule="evenodd" stroke="none"/>
    <path d="M0.0 37.0 L0.0 44.0 -3.2 44.05 Q-4.0 40.45 -6.0 37.0 L0.0 37.0" fill="url(#gradient1)" fill-rule="evenodd" stroke="none"/>
    <path d="M5.0 70.0 L-5.0 70.0 -4.0 65.0 4.0 65.0 5.0 70.0" fill="url(#gradient2)" fill-rule="evenodd" stroke="none"/>
    <path d="M-3.0 35.0 L-3.0 33.0 3.0 33.0 3.0 35.0 -3.0 35.0" fill="url(#gradient3)" fill-rule="evenodd" stroke="none"/>
    <path d="M3.0 35.0 L4.0 35.0 5.0 37.0 -5.0 37.0 -4.0 35.0 -3.0 35.0 3.0 35.0" fill="url(#gradient4)" fill-rule="evenodd" stroke="none"/>
    <path d="M3.2 44.05 L3.0 45.0 -3.0 45.0 -3.2 44.05 3.2 44.05" fill="url(#gradient5)" fill-rule="evenodd" stroke="none"/>
    <path d="M3.0 72.0 L-3.0 72.0 -4.0 70.0 4.0 70.0 3.0 72.0" fill="url(#gradient6)" fill-rule="evenodd" stroke="none"/>
    <path d="M3.5 64.0 L3.5 65.0 0.0 65.0 -3.5 65.0 -3.5 64.0 0.0 64.0 3.5 64.0" fill="url(#gradient7)" fill-rule="evenodd" stroke="none"/>
    <path d="M3.5 64.0 L0.0 64.0 -3.5 64.0 -2.65 54.25 Q-2.35 49.05 -3.0 45.0 L3.0 45.0 Q2.35 49.05 2.65 54.25 L3.5 64.0" fill="url(#gradient8)" fill-rule="evenodd" stroke="none"/>
    <path d="M0.85 53.45 Q1.2 53.9 1.2 54.5 L1.2 61.5 Q1.2 62.1 0.85 62.55 L0.85 62.6 Q0.5 63.0 0.0 63.0 -0.5 63.0 -0.85 62.6 L-0.85 62.55 Q-1.2 62.1 -1.2 61.5 L-1.2 54.5 Q-1.2 53.9 -0.85 53.45 -0.5 53.0 0.0 53.0 0.5 53.0 0.85 53.45" fill="#000000" fill-opacity="0.2" fill-rule="evenodd" stroke="none"/>
    <path d="M0.65 54.5 L0.65 61.5 0.45 61.85 0.0 62.0 -0.45 61.85 -0.65 61.5 -0.65 54.5 -0.45 54.15 0.0 54.0 0.45 54.15 0.65 54.5" fill="url(#gradient9)" fill-rule="evenodd" stroke="none"/>
    <path d="M4.0 -61.0 L6.0 31.0 4.8 31.15 Q3.5 31.6 3.0 33.0 L0.0 33.0 -3.0 33.0 Q-3.5 31.6 -4.8 31.15 L-6.0 31.0 -4.0 -61.0 0.0 -67.0 4.0 -61.0" fill="url(#gradient10)" fill-rule="evenodd" stroke="none"/>
    <path d="M1.5 32.0 L2.0 33.0 0.0 33.0 -2.0 33.0 -1.5 32.0 Q-1.0 30.35 -1.0 27.0 -1.0 24.0 0.0 24.0 1.0 24.0 1.0 27.0 1.0 30.35 1.5 32.0" fill="url(#gradient11)" fill-rule="evenodd" stroke="none"/>
    <path d="M2.65 -61.0 L5.7 -61.0 6.0 16.0 Q6.15 22.75 7.15 26.3 8.05 29.45 10.0 31.0 L7.0 33.0 Q5.05 31.1 4.15 27.6 3.05 23.35 3.05 16.0 L2.65 -61.0" fill="url(#gradient12)" fill-rule="evenodd" stroke="none"/>
    <path d="M-2.65 -61.0 L-3.0 16.0 Q-3.0 23.35 -4.15 27.6 -5.05 31.1 -7.0 33.0 L-10.0 31.0 Q-8.05 29.45 -7.15 26.3 -6.15 22.75 -6.0 16.0 L-5.65 -61.0 -2.65 -61.0" fill="url(#gradient13)" fill-rule="evenodd" stroke="none"/>
    <path d="M5.7 -61.0 L2.65 -61.0 0.0 -66.0 -2.65 -59.7 -5.65 -61.0 0.0 -73.0 5.7 -61.0" fill="#b8b8b8" fill-rule="evenodd" stroke="none"/>
    <path d="M5.7 -61.0 L2.65 -59.75 0.0 -66.0 0.0 -73.0 5.7 -61.0" fill="#ffffff" fill-rule="evenodd" stroke="none"/>
    <path d="M5.0 37.0 L-5.0 37.0 -5.0 36.0 5.0 36.0 5.0 37.0 M4.0 33.0 L-4.0 33.0 -4.0 32.0 4.0 32.0 4.0 33.0 M4.0 71.0 L-4.0 71.0 -4.0 70.0 4.0 70.0 4.0 71.0" fill="#000000" fill-opacity="0.2" fill-rule="evenodd" stroke="none"/>
  </g>
  <defs>
    <linearGradient gradientTransform="matrix(0.0037, 0.0, 0.0, 0.0043, 3.0, 40.5)" gradientUnits="userSpaceOnUse" id="gradient0" spreadMethod="pad" x1="-819.2" x2="819.2">
      <stop offset="0.1568627450980392" stop-color="#f4f4f4"/>
      <stop offset="1.0" stop-color="#adadad"/>
    </linearGradient>
    <linearGradient gradientTransform="matrix(0.0037, 0.0, 0.0, 0.0043, -3.0, 40.5)" gradientUnits="userSpaceOnUse" id="gradient1" spreadMethod="pad" x1="-819.2" x2="819.2">
      <stop offset="0.0" stop-color="#aaaaaa"/>
      <stop offset="0.7176470588235294" stop-color="#c6c6c6"/>
    </linearGradient>
    <linearGradient gradientTransform="matrix(0.0061, 0.0, 0.0, 0.0031, 0.0, 67.5)" gradientUnits="userSpaceOnUse" id="gradient2" spreadMethod="pad" x1="-819.2" x2="819.2">
      <stop offset="0.0" stop-color="#787878"/>
      <stop offset="0.4470588235294118" stop-color="#ededed"/>
      <stop offset="0.5686274509803921" stop-color="#ededed"/>
      <stop offset="1.0" stop-color="#8d8d8d"/>
    </linearGradient>
    <linearGradient gradientTransform="matrix(0.0037, 0.0, 0.0, 0.0067, 0.0, 29.5)" gradientUnits="userSpaceOnUse" id="gradient3" spreadMethod="pad" x1="-819.2" x2="819.2">
      <stop offset="0.0" stop-color="#6a6a6a"/>
      <stop offset="0.43137254901960786" stop-color="#c2c2c2"/>
      <stop offset="0.596078431372549" stop-color="#c2c2c2"/>
      <stop offset="1.0" stop-color="#6a6a6a"/>
    </linearGradient>
    <linearGradient gradientTransform="matrix(0.0061, 0.0, 0.0, 6.0E-4, 0.0, 36.5)" gradientUnits="userSpaceOnUse" id="gradient4" spreadMethod="pad" x1="-819.2" x2="819.2">
      <stop offset="0.0" stop-color="#6a6a6a"/>
      <stop offset="0.43137254901960786" stop-color="#c2c2c2"/>
      <stop offset="0.596078431372549" stop-color="#c2c2c2"/>
      <stop offset="1.0" stop-color="#6a6a6a"/>
    </linearGradient>
    <linearGradient gradientTransform="matrix(0.0039, 0.0, 0.0, 6.0E-4, 0.0, 44.5)" gradientUnits="userSpaceOnUse" id="gradient5" spreadMethod="pad" x1="-819.2" x2="819.2">
      <stop offset="0.0" stop-color="#686157"/>
      <stop offset="0.5176470588235295" stop-color="#a8a5a4"/>
      <stop offset="1.0" stop-color="#685e57"/>
    </linearGradient>
    <linearGradient gradientTransform="matrix(0.0049, 0.0, 0.0, 6.0E-4, 0.0, 70.5)" gradientUnits="userSpaceOnUse" id="gradient6" spreadMethod="pad" x1="-819.2" x2="819.2">
      <stop offset="0.0" stop-color="#6a6a6a"/>
      <stop offset="0.43137254901960786" stop-color="#c2c2c2"/>
      <stop offset="0.596078431372549" stop-color="#c2c2c2"/>
      <stop offset="1.0" stop-color="#6a6a6a"/>
    </linearGradient>
    <linearGradient gradientTransform="matrix(0.0043, 0.0, 0.0, 6.0E-4, 0.0, 64.5)" gradientUnits="userSpaceOnUse" id="gradient7" spreadMethod="pad" x1="-819.2" x2="819.2">
      <stop offset="0.0" stop-color="#686157"/>
      <stop offset="0.5176470588235295" stop-color="#a8a5a4"/>
      <stop offset="1.0" stop-color="#685e57"/>
    </linearGradient>
    <linearGradient gradientTransform="matrix(0.0043, 0.0, 0.0, 0.0128, 0.0, 53.5)" gradientUnits="userSpaceOnUse" id="gradient8" spreadMethod="pad" x1="-819.2" x2="819.2">
      <stop offset="0.0" stop-color="#2b2248"/>
      <stop offset="0.5215686274509804" stop-color="#4a55ac"/>
      <stop offset="1.0" stop-color="#2b2248"/>
    </linearGradient>
    <linearGradient gradientTransform="matrix(0.0, -0.0049, 0.0063, 0.0, 3.75, 58.0)" gradientUnits="userSpaceOnUse" id="gradient9" spreadMethod="pad" x1="-819.2" x2="819.2">
      <stop offset="0.0" stop-color="#c6c6c6"/>
      <stop offset="0.25882352941176473" stop-color="#8d8d8d"/>
      <stop offset="1.0" stop-color="#d5d5d5"/>
    </linearGradient>
    <linearGradient gradientTransform="matrix(2.0E-4, -0.0609, 0.0571, 2.0E-4, 1.55, -16.1)" gradientUnits="userSpaceOnUse" id="gradient10" spreadMethod="pad" x1="-819.2" x2="819.2">
      <stop offset="0.047058823529411764" stop-color="#585669"/>
      <stop offset="0.36470588235294116" stop-color="#57546b"/>
      <stop offset="0.7019607843137254" stop-color="#7a778e"/>
      <stop offset="1.0" stop-color="#7a7ea0"/>
    </linearGradient>
    <radialGradient cx="0" cy="0" gradientTransform="matrix(0.0024, 0.0, 0.0, 0.0177, 0.0, 33.0)" gradientUnits="userSpaceOnUse" id="gradient11" r="819.2" spreadMethod="pad">
      <stop offset="0.09019607843137255" stop-color="#dbdbdb"/>
      <stop offset="0.23921568627450981" stop-color="#c2c2c2"/>
      <stop offset="1.0" stop-color="#6a6a6a"/>
    </radialGradient>
    <linearGradient gradientTransform="matrix(0.028, -0.0227, 0.0361, 0.0444, 6.3, -14.0)" gradientUnits="userSpaceOnUse" id="gradient12" spreadMethod="pad" x1="-819.2" x2="819.2">
      <stop offset="0.0" stop-color="#e2e2e2"/>
      <stop offset="0.17254901960784313" stop-color="#cacaca"/>
      <stop offset="0.7450980392156863" stop-color="#ffffff"/>
      <stop offset="1.0" stop-color="#cdcdcd"/>
    </linearGradient>
    <linearGradient gradientTransform="matrix(0.0126, -0.0555, 0.0558, 0.0127, -6.35, -14.0)" gradientUnits="userSpaceOnUse" id="gradient13" spreadMethod="pad" x1="-819.2" x2="819.2">
      <stop offset="0.0" stop-color="#eaeaea"/>
      <stop offset="0.23529411764705882" stop-color="#adadad"/>
      <stop offset="1.0" stop-color="#d8d8d8"/>
    </linearGradient>
  </defs>
</svg>
