<?xml version="1.0" encoding="UTF-8" standalone="no"?>
<svg xmlns:xlink="http://www.w3.org/1999/xlink" height="109.0px" width="58.05px" xmlns="http://www.w3.org/2000/svg">
  <g transform="matrix(1.0, 0.0, 0.0, 1.0, 27.55, 54.5)">
    <path d="M26.15 -52.95 Q27.55 -51.55 27.55 -49.5 L27.6 -20.5 28.0 -20.5 Q29.05 -20.5 29.8 -19.75 30.5 -19.05 30.5 -18.0 28.95 -12.5 30.5 -7.0 30.5 -5.95 29.8 -5.2 29.05 -4.5 28.0 -4.5 L27.5 -4.5 Q26.95 -2.75 23.45 4.85 22.7 8.75 24.2 23.7 L26.5 43.85 Q26.65 45.15 26.15 46.4 25.7 47.55 24.65 48.45 21.15 51.35 13.55 53.05 7.15 54.5 0.55 54.5 L0.0 54.5 -0.55 54.5 Q-7.15 54.5 -13.5 53.05 -21.1 51.35 -24.55 48.45 -25.65 47.55 -26.1 46.4 -26.6 45.15 -26.4 43.85 L-24.15 23.7 Q-22.65 8.75 -23.35 4.85 -27.75 -4.55 -27.55 -5.0 L-27.5 -49.5 Q-27.5 -51.55 -26.05 -52.95 -24.5 -54.5 -22.5 -54.5 L22.55 -54.5 Q24.6 -54.5 26.15 -52.95" fill="#000000" fill-rule="evenodd" stroke="none"/>
    <path d="M24.3 -51.25 Q25.05 -50.55 25.05 -49.5 L25.1 -5.0 21.05 4.0 Q20.1 7.85 21.7 23.95 L24.0 44.2 23.85 45.45 23.05 46.5 Q19.9 49.05 13.0 50.6 6.85 52.0 0.55 52.0 L0.0 52.0 -0.55 52.0 Q-6.85 52.0 -12.95 50.6 -19.85 49.05 -23.0 46.5 L-23.8 45.45 -23.95 44.2 -21.65 23.95 Q-20.05 7.85 -21.0 4.0 L-25.05 -5.0 -25.0 -49.5 Q-25.0 -50.55 -24.25 -51.25 -23.55 -52.0 -22.5 -52.0 L22.55 -52.0 Q23.6 -52.0 24.3 -51.25" fill="url(#gradient0)" fill-rule="evenodd" stroke="none"/>
    <path d="M22.15 -44.75 L22.4 -44.6 22.5 -44.3 22.5 -9.0 22.45 -8.8 18.5 0.1 Q17.3 6.15 19.2 24.65 L21.5 44.95 21.45 45.2 21.3 45.4 18.65 47.0 18.3 47.05 18.0 46.85 17.9 46.55 17.9 46.4 17.5 45.25 15.7 45.9 16.15 47.15 16.35 47.45 16.3 47.8 16.0 48.05 12.0 49.15 Q6.05 50.5 0.0 50.5 -6.05 50.5 -12.0 49.15 L-15.9 48.1 -16.15 47.9 -16.25 47.6 -16.15 47.3 -16.1 47.3 -15.7 45.95 -17.5 45.3 -17.9 46.45 -17.9 46.55 -18.0 46.85 -18.3 47.05 -18.65 47.0 -21.3 45.4 -21.45 45.2 -21.5 44.95 -19.2 24.65 Q-17.3 6.15 -18.5 0.1 L-22.45 -8.8 -22.5 -9.0 -22.5 -44.3 -22.4 -44.6 -22.1 -44.8 -21.75 -44.75 -20.5 -44.5 Q-19.3 -44.5 -18.35 -45.35 -17.5 -46.3 -17.5 -47.5 -17.5 -48.2 -17.75 -48.75 L-17.8 -49.1 -17.6 -49.4 -17.3 -49.5 -7.0 -49.5 -6.65 -49.35 -6.5 -49.0 -6.5 -47.2 6.5 -47.2 6.5 -49.0 6.65 -49.35 7.0 -49.5 17.3 -49.5 17.6 -49.4 17.8 -49.1 17.75 -48.8 17.5 -47.5 Q17.5 -46.3 18.35 -45.35 L18.4 -45.3 Q19.3 -44.5 20.5 -44.5 L21.8 -44.75 22.15 -44.75" fill="#000000" fill-opacity="0.2627451" fill-rule="evenodd" stroke="none"/>
    <path d="M28.0 -7.0 L25.0 -7.0 25.0 -18.0 28.0 -18.0 Q26.85 -12.9 28.0 -7.0" fill="url(#gradient1)" fill-rule="evenodd" stroke="none"/>
    <path d="M21.9 -46.1 Q21.3 -45.5 20.5 -45.5 19.7 -45.5 19.1 -46.1 18.5 -46.7 18.5 -47.5 18.5 -48.3 19.1 -48.9 19.7 -49.5 20.5 -49.5 21.3 -49.5 21.9 -48.9 22.5 -48.3 22.5 -47.5 22.5 -46.7 21.9 -46.1" fill="url(#gradient2)" fill-rule="evenodd" stroke="none"/>
    <path d="M-19.1 -46.1 Q-19.7 -45.5 -20.5 -45.5 -21.3 -45.5 -21.9 -46.1 -22.5 -46.7 -22.5 -47.5 -22.5 -48.3 -21.9 -48.9 -21.3 -49.5 -20.5 -49.5 -19.7 -49.5 -19.1 -48.9 -18.5 -48.3 -18.5 -47.5 -18.5 -46.7 -19.1 -46.1" fill="url(#gradient3)" fill-rule="evenodd" stroke="none"/>
    <path d="M22.0 -9.0 L18.0 0.0 Q16.8 6.1 18.7 24.7 L21.0 45.0 18.4 46.55 18.4 46.3 17.8 44.6 15.05 45.6 15.7 47.45 15.85 47.55 11.9 48.65 Q6.0 50.0 0.0 50.0 -6.0 50.0 -11.9 48.65 L-15.75 47.6 -15.7 47.55 -15.05 45.65 -17.8 44.65 -18.4 46.4 -18.4 46.55 -21.0 45.0 -18.7 24.7 Q-16.8 6.1 -18.0 0.0 L-22.0 -9.0 -22.0 -44.3 -20.5 -44.0 Q-19.1 -44.0 -18.0 -45.0 -17.0 -46.1 -17.0 -47.5 -17.0 -48.3 -17.3 -49.0 L-7.0 -49.0 -7.0 -46.7 7.0 -46.7 7.0 -49.0 17.3 -49.0 Q17.0 -48.3 17.0 -47.5 17.0 -46.1 18.0 -45.0 19.1 -44.0 20.5 -44.0 L22.0 -44.3 22.0 -9.0" fill="url(#gradient4)" fill-rule="evenodd" stroke="none"/>
    <path d="M7.0 -45.0 L-7.0 -45.0 -7.0 -47.0 7.0 -47.0 7.0 -45.0 M-17.8 44.65 L-17.35 43.25 -14.6 44.3 -15.05 45.65 -17.8 44.65 M17.8 44.65 L15.05 45.6 14.6 44.3 17.35 43.25 17.8 44.65" fill="#000000" fill-rule="evenodd" stroke="none"/>
    <path d="M16.0 -39.0 L16.0 -19.0 -16.0 -19.0 -16.0 -39.0 16.0 -39.0" fill="url(#gradient5)" fill-rule="evenodd" stroke="none"/>
    <path d="M17.0 -40.0 L17.0 -18.0 -17.0 -18.0 -17.0 -40.0 17.0 -40.0 M16.0 -39.0 L-16.0 -39.0 -16.0 -19.0 16.0 -19.0 16.0 -39.0" fill="url(#gradient6)" fill-rule="evenodd" stroke="none"/>
    <path d="M22.0 -47.5 Q22.0 -46.9 21.55 -46.45 21.1 -46.0 20.5 -46.0 19.9 -46.0 19.45 -46.45 19.0 -46.9 19.0 -47.5 19.0 -48.1 19.45 -48.55 19.9 -49.0 20.5 -49.0 21.1 -49.0 21.55 -48.55 L22.0 -47.5" fill="url(#gradient7)" fill-rule="evenodd" stroke="none"/>
    <path d="M-19.0 -47.5 Q-19.0 -46.9 -19.45 -46.45 -19.9 -46.0 -20.5 -46.0 -21.1 -46.0 -21.55 -46.45 -22.0 -46.9 -22.0 -47.5 L-21.55 -48.55 Q-21.1 -49.0 -20.5 -49.0 -19.9 -49.0 -19.45 -48.55 -19.0 -48.1 -19.0 -47.5" fill="url(#gradient8)" fill-rule="evenodd" stroke="none"/>
    <path d="M-11.9 -23.7 L-10.5 -24.85 Q-6.15 -28.0 0.0 -28.0 6.15 -28.0 10.5 -24.85 L11.9 -23.7" fill="none" stroke="#000000" stroke-linecap="square" stroke-linejoin="round" stroke-width="0.25"/>
    <path d="M3.0 -30.4 L2.6 -27.95 M8.7 -28.85 L7.6 -26.65 M13.8 -25.75 L11.95 -23.95 M-13.8 -25.8 L-11.95 -23.95 M-8.7 -28.9 L-7.6 -26.7 M-3.0 -30.45 L-2.6 -28.0" fill="none" stroke="#000000" stroke-linecap="square" stroke-linejoin="round" stroke-width="0.5"/>
    <path d="M2.45 -20.0 L3.2 -19.0 -3.15 -19.0 -2.5 -20.0 -1.65 -20.6 -9.05 -33.25 Q-8.8 -33.35 -8.6 -33.5 L-1.2 -20.8 0.0 -21.0 Q1.45 -21.0 2.45 -20.0" fill="url(#gradient9)" fill-rule="evenodd" stroke="none"/>
    <path d="M17.0 -40.0 L17.0 -19.0 -16.0 -19.0 -16.0 -32.0 -17.0 -32.0 -17.0 -40.0 17.0 -40.0" fill="url(#gradient10)" fill-rule="evenodd" stroke="none"/>
  </g>
  <defs>
    <linearGradient gradientTransform="matrix(0.0327, -0.0605, 0.0558, 0.0301, 1.4, -1.25)" gradientUnits="userSpaceOnUse" id="gradient0" spreadMethod="pad" x1="-819.2" x2="819.2">
      <stop offset="0.12941176470588237" stop-color="#ca9c17"/>
      <stop offset="0.792156862745098" stop-color="#b77d15"/>
    </linearGradient>
    <linearGradient gradientTransform="matrix(-1.0E-4, -0.0072, 0.0067, -1.0E-4, 26.5, -12.5)" gradientUnits="userSpaceOnUse" id="gradient1" spreadMethod="pad" x1="-819.2" x2="819.2">
      <stop offset="0.12941176470588237" stop-color="#be7616"/>
      <stop offset="0.8431372549019608" stop-color="#be6a16"/>
    </linearGradient>
    <linearGradient gradientTransform="matrix(0.001, -0.0022, 0.0022, 0.001, 20.5, -47.5)" gradientUnits="userSpaceOnUse" id="gradient2" spreadMethod="pad" x1="-819.2" x2="819.2">
      <stop offset="0.0" stop-color="#ebbd36"/>
      <stop offset="0.1803921568627451" stop-color="#e19e24"/>
      <stop offset="1.0" stop-color="#693a0e"/>
    </linearGradient>
    <linearGradient gradientTransform="matrix(0.0, -0.0027, 0.0018, 0.0, -20.5, -47.5)" gradientUnits="userSpaceOnUse" id="gradient3" spreadMethod="pad" x1="-819.2" x2="819.2">
      <stop offset="0.0" stop-color="#ebbd36"/>
      <stop offset="0.1803921568627451" stop-color="#e19e24"/>
      <stop offset="1.0" stop-color="#693a0e"/>
    </linearGradient>
    <linearGradient gradientTransform="matrix(0.0335, -0.0545, 0.0514, 0.0316, 0.0, 0.5)" gradientUnits="userSpaceOnUse" id="gradient4" spreadMethod="pad" x1="-819.2" x2="819.2">
      <stop offset="0.0" stop-color="#adadad"/>
      <stop offset="0.15294117647058825" stop-color="#929292"/>
      <stop offset="0.30980392156862746" stop-color="#8d8d8d"/>
      <stop offset="0.8862745098039215" stop-color="#887d77"/>
    </linearGradient>
    <linearGradient gradientTransform="matrix(1.0E-4, -0.0134, 0.0134, 0.0, 0.0, -29.0)" gradientUnits="userSpaceOnUse" id="gradient5" spreadMethod="pad" x1="-819.2" x2="819.2">
      <stop offset="0.19607843137254902" stop-color="#d0d0d0"/>
      <stop offset="0.6901960784313725" stop-color="#a6a6a6"/>
      <stop offset="1.0" stop-color="#6a6a6a"/>
    </linearGradient>
    <linearGradient gradientTransform="matrix(0.0027, -0.0186, 0.0136, 0.002, 0.0, -29.0)" gradientUnits="userSpaceOnUse" id="gradient6" spreadMethod="pad" x1="-819.2" x2="819.2">
      <stop offset="0.10196078431372549" stop-color="#b0b0b0"/>
      <stop offset="0.20392156862745098" stop-color="#aaaaaa"/>
      <stop offset="0.807843137254902" stop-color="#443c3c"/>
    </linearGradient>
    <linearGradient gradientTransform="matrix(-0.0013, 0.0013, -0.0013, -0.0013, 20.5, -47.5)" gradientUnits="userSpaceOnUse" id="gradient7" spreadMethod="pad" x1="-819.2" x2="819.2">
      <stop offset="0.011764705882352941" stop-color="#453225"/>
      <stop offset="0.9882352941176471" stop-color="#6d472e"/>
    </linearGradient>
    <linearGradient gradientTransform="matrix(-0.0012, 0.0014, -0.0014, -0.0012, -20.5, -47.5)" gradientUnits="userSpaceOnUse" id="gradient8" spreadMethod="pad" x1="-819.2" x2="819.2">
      <stop offset="0.011764705882352941" stop-color="#453225"/>
      <stop offset="0.9882352941176471" stop-color="#6d472e"/>
    </linearGradient>
    <linearGradient gradientTransform="matrix(0.0072, 0.0097, -0.001, 7.0E-4, -5.6, -24.8)" gradientUnits="userSpaceOnUse" id="gradient9" spreadMethod="pad" x1="-819.2" x2="819.2">
      <stop offset="0.16862745098039217" stop-color="#c82222"/>
      <stop offset="0.19607843137254902" stop-color="#1c1515"/>
      <stop offset="0.8196078431372549" stop-color="#383232"/>
      <stop offset="1.0" stop-color="#606060"/>
    </linearGradient>
    <linearGradient gradientTransform="matrix(0.0093, -0.0146, 0.0113, 0.0071, -6.5, -25.85)" gradientUnits="userSpaceOnUse" id="gradient10" spreadMethod="pad" x1="-819.2" x2="819.2">
      <stop offset="0.403921568627451" stop-color="#ffffff" stop-opacity="0.44313726"/>
      <stop offset="0.4117647058823529" stop-color="#ffffff" stop-opacity="0.0"/>
    </linearGradient>
  </defs>
</svg>
