<?xml version="1.0" encoding="UTF-8" standalone="no"?>
<svg xmlns:xlink="http://www.w3.org/1999/xlink" height="8.0px" width="8.0px" xmlns="http://www.w3.org/2000/svg">
  <g transform="matrix(1.0, 0.0, 0.0, 1.0, 4.0, 4.0)">
    <path d="M2.8 -2.9 Q4.0 -1.7 4.0 0.0 4.0 1.65 2.8 2.8 1.65 4.0 0.0 4.0 -1.7 4.0 -2.9 2.8 -4.0 1.65 -4.0 0.0 -4.0 -1.7 -2.9 -2.85 L-2.85 -2.9 Q-1.7 -4.0 0.0 -4.0 1.65 -4.0 2.8 -2.9" fill="url(#gradient0)" fill-rule="evenodd" stroke="none"/>
    <path d="M2.45 -2.55 Q3.5 -1.5 3.5 0.0 3.5 1.45 2.45 2.45 1.45 3.5 0.0 3.5 -1.5 3.5 -2.55 2.45 -3.5 1.45 -3.5 0.0 -3.5 -1.5 -2.55 -2.55 -1.5 -3.5 0.0 -3.5 1.45 -3.5 2.45 -2.55" fill="#636363" fill-rule="evenodd" stroke="none"/>
    <path d="M2.05 -2.1 Q2.9 -1.25 2.9 0.0 2.9 1.2 2.05 2.05 1.2 2.9 0.0 2.9 -1.25 2.9 -2.1 2.05 -2.9 1.2 -2.9 0.0 -2.9 -1.25 -2.1 -2.1 -1.25 -2.9 0.0 -2.9 1.2 -2.9 2.05 -2.1" fill="url(#gradient1)" fill-rule="evenodd" stroke="none"/>
  </g>
  <defs>
    <linearGradient gradientTransform="matrix(0.0027, -0.0041, 0.0041, 0.0027, 0.0, 0.0)" gradientUnits="userSpaceOnUse" id="gradient0" spreadMethod="pad" x1="-819.2" x2="819.2">
      <stop offset="0.0" stop-color="#c6c6c6"/>
      <stop offset="1.0" stop-color="#473938"/>
    </linearGradient>
    <radialGradient cx="0" cy="0" gradientTransform="matrix(0.0045, 0.0, 0.0, 0.0045, 0.5, -0.7)" gradientUnits="userSpaceOnUse" id="gradient1" r="819.2" spreadMethod="pad">
      <stop offset="0.07450980392156863" stop-color="#d3d2c7"/>
      <stop offset="0.11372549019607843" stop-color="#cecd9b"/>
      <stop offset="0.22745098039215686" stop-color="#bcb07a"/>
      <stop offset="0.40784313725490196" stop-color="#a79c6d"/>
      <stop offset="0.8745098039215686" stop-color="#7d714f"/>
      <stop offset="1.0" stop-color="#b0a480"/>
    </radialGradient>
  </defs>
</svg>
