<?xml version="1.0" encoding="UTF-8" standalone="no"?>
<svg xmlns:xlink="http://www.w3.org/1999/xlink" height="98.4px" width="42.0px" xmlns="http://www.w3.org/2000/svg">
  <g transform="matrix(1.0, 0.0, 0.0, 1.0, 16.0, 49.0)">
    <path d="M16.0 -38.0 L-16.0 -38.0 -16.0 -39.0 16.0 -39.0 16.0 -38.0 M7.0 -45.0 L6.0 -45.0 6.0 -49.0 7.0 -49.0 7.0 -45.0 M26.0 -7.0 L25.0 -7.0 25.0 -18.0 26.0 -18.0 26.0 -7.0 M-6.0 -49.0 L-6.0 -45.0 -7.0 -45.0 -7.0 -49.0 -6.0 -49.0 M-6.0 42.0 L6.0 42.0 6.0 40.0 7.0 40.0 7.0 42.0 9.0 42.0 9.0 49.25 8.0 49.4 8.0 43.0 -8.0 43.0 -8.0 49.4 -9.0 49.25 -9.0 42.0 -7.0 42.0 -7.0 40.0 -6.0 40.0 -6.0 42.0" fill="#000000" fill-opacity="0.3019608" fill-rule="evenodd" stroke="none"/>
    <path d="M8.0 44.0 L-8.0 44.0 -8.0 43.0 8.0 43.0 8.0 44.0" fill="#b0abaa" fill-rule="evenodd" stroke="none"/>
  </g>
</svg>
