<?xml version="1.0" encoding="UTF-8" standalone="no"?>
<svg xmlns:xlink="http://www.w3.org/1999/xlink" height="40.6px" width="48.2px" xmlns="http://www.w3.org/2000/svg">
  <g transform="matrix(1.0, 0.0, 0.0, 1.0, 24.1, 14.4)">
    <path d="M24.1 -1.15 Q24.05 4.35 21.8 7.35 19.55 10.25 11.0 16.25 3.65 21.35 1.55 24.45 L0.75 25.85 Q0.55 26.2 0.0 26.2 -0.55 26.2 -0.75 25.85 L-1.55 24.45 Q-3.65 21.35 -11.0 16.25 -19.55 10.25 -21.8 7.35 -24.05 4.35 -24.1 -1.15 -24.15 -7.1 -20.85 -10.7 -17.5 -14.4 -12.0 -14.4 -7.15 -14.45 -3.8 -11.3 L-1.7 -9.2 Q-0.7 -8.2 0.0 -8.25 0.7 -8.2 1.7 -9.2 L3.8 -11.3 Q7.15 -14.45 12.0 -14.4 17.5 -14.4 20.85 -10.7 24.15 -7.1 24.1 -1.15" fill="#787878" fill-rule="evenodd" stroke="none"/>
  </g>
</svg>
