<?xml version="1.0" encoding="UTF-8" standalone="no"?>
<svg xmlns:xlink="http://www.w3.org/1999/xlink" height="33.8px" width="19.6px" xmlns="http://www.w3.org/2000/svg">
  <g transform="matrix(1.0, 0.0, 0.0, 1.0, -112.05, -90.0)">
    <path d="M131.65 92.85 Q128.5 94.8 125.25 100.8 L121.8 108.05 Q119.55 112.85 118.8 118.25 118.45 121.05 118.35 123.8 L115.0 123.6 112.8 123.15 Q112.05 122.9 112.05 122.5 L112.1 120.95 112.15 120.8 112.2 120.5 Q113.3 112.3 115.0 108.5 L117.3 103.05 119.6 98.6 123.35 93.1 Q125.7 90.0 126.3 90.0 126.8 90.0 128.5 90.75 L130.5 91.6 131.15 91.9 131.5 92.25 Q131.25 92.5 131.65 92.85" fill="url(#gradient0)" fill-rule="evenodd" stroke="none"/>
  </g>
  <defs>
    <linearGradient gradientTransform="matrix(0.0201, 0.0073, -0.0072, 0.0197, 123.65, 107.75)" gradientUnits="userSpaceOnUse" id="gradient0" spreadMethod="pad" x1="-819.2" x2="819.2">
      <stop offset="0.0" stop-color="#e2fdfe" stop-opacity="0.8"/>
      <stop offset="1.0" stop-color="#ffffff" stop-opacity="0.0"/>
    </linearGradient>
  </defs>
</svg>
