<?xml version="1.0" encoding="UTF-8" standalone="no"?>
<svg xmlns:xlink="http://www.w3.org/1999/xlink" height="150.15px" width="35.15px" xmlns="http://www.w3.org/2000/svg">
  <g transform="matrix(1.0, 0.0, 0.0, 1.0, 19.5, 72.65)">
    <path d="M11.2 -63.95 Q11.9 -62.95 12.9 -58.35 L14.4 -50.35 15.5 -42.65 Q15.65 -40.7 15.15 -36.25 14.65 -31.25 13.85 -28.5 L13.8 -28.4 Q12.55 -24.3 10.7 -21.8 11.35 -21.55 12.0 -21.25 L13.15 -20.25 13.5 -18.75 12.5 -8.75 Q12.4 -7.95 11.85 -7.3 11.3 -6.7 10.5 -6.55 L10.5 -2.45 10.6 -2.45 12.1 -2.25 13.2 -1.2 Q13.55 -0.55 13.5 0.25 L12.5 10.25 11.85 11.7 Q11.3 12.3 10.5 12.45 L10.5 16.55 10.6 16.55 12.1 16.75 Q12.8 17.1 13.2 17.8 13.55 18.45 13.5 19.25 L12.5 29.25 11.85 30.7 Q11.3 31.3 10.5 31.45 L10.5 35.55 10.6 35.55 12.0 35.75 Q12.7 36.0 13.1 36.65 13.5 37.25 13.5 38.0 L13.5 45.45 14.5 46.55 15.5 47.9 Q16.0 60.7 14.55 71.35 14.4 72.25 13.7 72.9 L13.5 73.05 Q13.5 74.05 12.8 74.8 12.2 75.35 11.45 75.5 L10.8 76.8 Q10.05 77.5 9.0 77.5 L-9.0 77.5 Q-10.05 77.5 -10.75 76.8 -11.35 76.2 -11.45 75.5 -12.2 75.35 -12.75 74.8 -13.5 74.05 -13.5 73.0 L-13.6 72.9 Q-14.35 72.25 -14.45 71.35 -16.05 60.15 -15.55 47.9 L-14.55 46.5 -13.5 45.55 -13.5 38.0 Q-13.5 37.25 -13.1 36.65 -12.7 36.0 -12.0 35.75 L-10.6 35.55 -10.55 35.55 -10.5 35.55 -10.5 31.45 Q-11.3 31.3 -11.85 30.7 L-12.5 29.25 -13.5 19.25 Q-13.55 18.45 -13.15 17.8 -12.8 17.1 -12.1 16.75 L-10.6 16.55 -10.55 16.55 -10.5 16.55 -10.5 12.45 Q-11.3 12.3 -11.85 11.7 L-12.5 10.25 -13.5 0.25 -13.15 -1.2 -12.1 -2.25 -10.6 -2.45 -10.55 -2.45 -10.5 -2.45 -10.5 -6.55 Q-11.3 -6.7 -11.85 -7.3 -12.4 -7.95 -12.5 -8.75 L-13.5 -18.75 -13.15 -20.25 -12.0 -21.25 -11.05 -21.65 Q-17.35 -26.8 -19.35 -33.2 L-19.5 -34.0 -19.45 -43.8 Q-19.4 -44.7 -17.15 -48.0 -15.65 -50.2 -14.95 -53.25 L-14.45 -54.25 -13.6 -55.0 -11.65 -55.55 -10.8 -60.7 Q-9.8 -65.3 -8.8 -66.6 -7.55 -68.65 -5.4 -68.85 -4.55 -72.7 -0.65 -72.65 2.25 -72.75 3.4 -70.6 L4.4 -70.35 Q5.25 -70.15 6.1 -69.3 L7.3 -67.6 7.95 -66.05 8.25 -66.0 Q10.05 -65.8 11.2 -63.95" fill="#000000" fill-rule="evenodd" stroke="none"/>
    <path d="M9.0 73.0 L9.0 75.0 -9.0 75.0 -9.0 73.0 9.0 73.0" fill="url(#gradient0)" fill-rule="evenodd" stroke="none"/>
    <path d="M7.0 48.0 L6.0 48.0 5.0 50.0 0.0 50.0 -5.0 50.0 -6.0 48.0 -7.0 48.0 -13.0 48.0 -11.0 46.0 0.0 46.0 11.0 46.0 13.0 48.0 7.0 48.0" fill="url(#gradient1)" fill-rule="evenodd" stroke="none"/>
    <path d="M-9.0 73.0 L-11.0 73.0 -11.0 67.0 11.0 67.0 11.0 73.0 9.0 73.0 -9.0 73.0" fill="url(#gradient2)" fill-rule="evenodd" stroke="none"/>
    <path d="M8.0 -11.0 L8.0 45.0 -8.0 45.0 -8.0 -11.0 0.0 -11.0 8.0 -11.0" fill="url(#gradient3)" fill-rule="evenodd" stroke="none"/>
    <path d="M6.1 66.9 L6.15 66.95 Q7.0 67.85 7.0 69.1 L7.0 70.0 12.05 70.0 Q12.45 70.0 12.75 70.3 L13.05 71.0 12.75 71.7 12.05 72.0 6.0 72.0 5.3 71.7 5.0 71.0 5.0 70.9 5.0 69.1 4.75 68.35 4.7 68.3 Q4.35 68.0 3.9 68.0 L-3.9 68.0 Q-4.35 68.0 -4.65 68.3 L-4.7 68.35 -5.0 69.1 -5.0 70.9 -5.0 71.0 -5.3 71.7 -6.0 72.0 -12.0 72.0 -12.7 71.7 -13.0 71.0 -12.7 70.3 Q-12.4 70.0 -12.0 70.0 L-7.0 70.0 -7.0 69.1 Q-7.0 67.85 -6.1 66.95 L-6.05 66.9 Q-5.15 66.0 -3.9 66.0 L3.9 66.0 Q5.15 66.0 6.1 66.9 M10.85 29.55 L10.2 30.0 5.85 30.85 5.75 31.25 5.7 31.35 Q4.8 34.35 3.45 36.1 1.9 38.0 0.15 38.0 L-0.05 38.0 Q-1.9 38.0 -3.4 36.1 L-3.45 36.1 Q-4.8 34.35 -5.7 31.2 L-5.7 31.15 -5.8 30.85 -10.2 30.0 -10.8 29.55 -10.95 28.8 -10.55 28.2 -9.8 28.05 -4.8 29.05 Q-4.5 29.1 -4.3 29.3 L-4.0 29.8 -3.75 30.7 -3.8 30.65 Q-3.0 33.35 -1.85 34.85 -1.0 35.9 0.0 36.0 L0.1 36.0 Q1.0 35.9 1.9 34.85 L1.85 34.85 Q3.0 33.35 3.8 30.75 L4.05 29.85 Q4.1 29.5 4.3 29.3 4.5 29.1 4.8 29.05 L9.8 28.05 10.55 28.2 11.0 28.8 10.85 29.55 M10.55 9.2 L11.0 9.8 10.85 10.55 10.2 11.0 5.85 11.85 5.75 12.25 5.7 12.35 Q4.8 15.35 3.45 17.1 1.9 19.0 0.15 19.0 L-0.05 19.0 Q-1.9 19.0 -3.4 17.1 L-3.45 17.1 Q-4.8 15.35 -5.7 12.2 L-5.7 12.15 -5.8 11.85 -10.2 11.0 -10.8 10.55 -10.95 9.8 -10.55 9.2 -9.8 9.05 -4.8 10.05 Q-4.5 10.1 -4.3 10.3 L-4.0 10.8 -3.75 11.7 -3.8 11.65 Q-3.0 14.35 -1.85 15.85 -1.0 16.9 0.0 17.0 L0.1 17.0 Q1.0 16.9 1.9 15.85 L1.85 15.85 Q3.0 14.35 3.8 11.75 L4.05 10.85 Q4.1 10.5 4.3 10.3 4.5 10.1 4.8 10.05 L9.8 9.05 10.55 9.2 M5.75 -6.75 L5.7 -6.65 Q4.8 -3.65 3.45 -1.9 1.9 0.0 0.15 0.0 L-0.05 0.0 Q-1.9 0.0 -3.4 -1.9 L-3.45 -1.9 Q-4.8 -3.65 -5.7 -6.8 L-5.7 -6.85 -5.8 -7.15 -10.2 -8.0 -10.8 -8.45 -10.95 -9.2 -10.55 -9.8 -9.8 -9.95 -4.8 -8.95 -4.3 -8.7 -4.0 -8.2 -3.75 -7.3 -3.8 -7.35 Q-3.0 -4.65 -1.85 -3.15 -1.0 -2.1 0.0 -2.0 L0.1 -2.0 Q1.0 -2.1 1.9 -3.15 L1.85 -3.15 Q3.0 -4.65 3.8 -7.25 L4.05 -8.15 4.3 -8.7 4.8 -8.95 9.8 -9.95 10.55 -9.8 11.0 -9.2 10.85 -8.45 Q10.6 -8.1 10.2 -8.0 L5.85 -7.15 5.75 -6.75" fill="#000000" fill-opacity="0.2" fill-rule="evenodd" stroke="none"/>
    <path d="M-5.0 -6.0 L-5.0 -8.0 M-5.0 -3.0 L-5.0 -5.0 M5.0 -6.0 L5.0 -8.0 M5.0 -3.0 L5.0 -5.0 M5.0 12.0 L5.0 10.0 M5.0 9.0 L5.0 7.0 M5.0 6.0 L5.0 4.0 M5.0 3.0 L5.0 1.0 M5.0 21.0 L5.0 19.0 M5.0 24.0 L5.0 22.0 M5.0 18.0 L5.0 16.0 M5.0 15.0 L5.0 13.0 M5.0 27.0 L5.0 25.0 M5.0 30.0 L5.0 28.0 M5.0 33.0 L5.0 31.0 M5.0 36.0 L5.0 34.0 M5.0 42.0 L5.0 40.0 M5.0 45.0 L5.0 43.0 M5.0 39.0 L5.0 37.0 M-5.0 12.0 L-5.0 10.0 M-5.0 9.0 L-5.0 7.0 M-5.0 6.0 L-5.0 4.0 M-5.0 3.0 L-5.0 1.0 M-5.0 21.0 L-5.0 19.0 M-5.0 24.0 L-5.0 22.0 M-5.0 18.0 L-5.0 16.0 M-5.0 15.0 L-5.0 13.0 M-5.0 27.0 L-5.0 25.0 M-5.0 30.0 L-5.0 28.0 M-5.0 33.0 L-5.0 31.0 M-5.0 36.0 L-5.0 34.0 M-5.0 42.0 L-5.0 40.0 M-5.0 45.0 L-5.0 43.0 M-5.0 39.0 L-5.0 37.0 M5.0 0.0 L5.0 -2.0 M-5.0 0.0 L-5.0 -2.0" fill="none" stroke="#9d4444" stroke-linecap="round" stroke-linejoin="round" stroke-width="0.25"/>
    <path d="M-2.0 -3.0 L-2.0 -4.0 M2.0 -3.0 L2.0 -4.0 M2.0 3.0 L2.0 1.0 M2.0 6.0 L2.0 4.0 M2.0 9.0 L2.0 7.0 M2.0 12.0 L2.0 10.0 M2.0 15.0 L2.0 13.0 M2.0 18.0 L2.0 16.0 M2.0 21.0 L2.0 19.0 M2.0 24.0 L2.0 22.0 M2.0 27.0 L2.0 25.0 M2.0 30.0 L2.0 28.0 M2.0 33.0 L2.0 31.0 M2.0 36.0 L2.0 34.0 M2.0 45.0 L2.0 43.0 M2.0 42.0 L2.0 40.0 M2.0 39.0 L2.0 37.0 M-2.0 3.0 L-2.0 1.0 M-2.0 6.0 L-2.0 4.0 M-2.0 9.0 L-2.0 7.0 M-2.0 12.0 L-2.0 10.0 M-2.0 15.0 L-2.0 13.0 M-2.0 18.0 L-2.0 16.0 M-2.0 21.0 L-2.0 19.0 M-2.0 24.0 L-2.0 22.0 M-2.0 27.0 L-2.0 25.0 M-2.0 30.0 L-2.0 28.0 M-2.0 33.0 L-2.0 31.0 M-2.0 36.0 L-2.0 34.0 M-2.0 45.0 L-2.0 43.0 M-2.0 42.0 L-2.0 40.0 M-2.0 39.0 L-2.0 37.0 M2.0 0.0 L2.0 -2.0 M-2.0 0.0 L-2.0 -2.0" fill="none" stroke="#a84848" stroke-linecap="round" stroke-linejoin="round" stroke-width="0.25"/>
    <path d="M-13.05 48.0 L-6.0 48.0 -5.0 50.0 0.0 50.0 5.0 50.0 6.0 48.0 13.0 48.0 Q13.5 60.55 12.05 71.0 L6.0 71.0 6.0 70.9 6.0 69.1 Q6.0 68.25 5.4 67.6 4.75 67.0 3.9 67.0 L-3.9 67.0 Q-4.75 67.0 -5.4 67.6 -6.0 68.25 -6.0 69.1 L-6.0 70.9 -6.0 71.0 -12.0 71.0 Q-13.55 60.0 -13.05 48.0" fill="url(#gradient4)" fill-rule="evenodd" stroke="none"/>
    <path d="M-2.5 43.3 Q-1.05 44.9 0.0 45.0 1.05 44.9 2.5 43.3 4.05 41.5 5.0 39.0 L11.0 38.0 11.0 46.0 5.0 46.0 4.0 48.0 -4.0 48.0 -5.0 46.0 -11.0 46.0 -11.0 38.0 -5.0 39.0 Q-4.05 41.5 -2.5 43.3" fill="url(#gradient5)" fill-rule="evenodd" stroke="none"/>
    <path d="M-5.0 20.0 Q-4.05 22.5 -2.5 24.3 -1.05 25.9 0.0 26.0 1.05 25.9 2.5 24.3 4.05 22.5 5.0 20.0 L11.0 19.0 10.0 29.0 5.0 30.0 Q4.1 33.6 2.65 35.45 1.4 37.0 0.0 37.0 -1.4 37.0 -2.65 35.45 -4.1 33.6 -5.0 30.0 L-10.0 29.0 -11.0 19.0 -5.0 20.0" fill="url(#gradient6)" fill-rule="evenodd" stroke="none"/>
    <path d="M-2.5 5.3 Q-1.05 6.9 0.0 7.0 1.05 6.9 2.5 5.3 4.05 3.5 5.0 1.0 L11.0 0.0 10.0 10.0 5.0 11.0 Q4.1 14.6 2.65 16.45 1.4 18.0 0.0 18.0 -1.4 18.0 -2.65 16.45 -4.1 14.6 -5.0 11.0 L-10.0 10.0 -11.0 0.0 -5.0 1.0 Q-4.05 3.5 -2.5 5.3" fill="url(#gradient7)" fill-rule="evenodd" stroke="none"/>
    <path d="M0.1 -1.0 L-0.05 -1.0 Q-1.45 -1.05 -2.65 -2.55 -3.9 -4.15 -4.75 -7.1 L-5.0 -8.0 -10.0 -9.0 -11.0 -19.0 Q-5.5 -21.4 0.0 -21.4 5.5 -21.4 11.0 -19.0 L10.0 -9.0 5.0 -8.0 4.75 -6.95 Q3.9 -4.15 2.65 -2.55 1.45 -1.05 0.1 -1.0" fill="url(#gradient8)" fill-rule="evenodd" stroke="none"/>
    <path d="M0.8 60.3 Q1.1 60.0 1.5 60.0 1.9 60.0 2.2 60.3 L2.5 61.0 2.2 61.7 1.5 62.0 0.8 61.7 Q0.5 61.4 0.5 61.0 0.5 60.6 0.8 60.3 M3.0 64.5 Q2.6 64.5 2.3 64.2 2.0 63.9 2.0 63.5 2.0 63.1 2.3 62.8 2.6 62.5 3.0 62.5 3.4 62.5 3.7 62.8 L4.0 63.5 3.7 64.2 3.0 64.5 M0.0 64.5 L-0.7 64.2 -1.0 63.5 -0.7 62.8 Q-0.4 62.5 0.0 62.5 0.4 62.5 0.7 62.8 L1.0 63.5 0.7 64.2 0.0 64.5 M-2.2 60.3 Q-1.9 60.0 -1.5 60.0 -1.1 60.0 -0.8 60.3 -0.5 60.6 -0.5 61.0 -0.5 61.4 -0.8 61.7 L-1.5 62.0 -2.2 61.7 -2.5 61.0 -2.2 60.3 M-2.3 64.2 Q-2.6 64.5 -3.0 64.5 L-3.7 64.2 -4.0 63.5 -3.7 62.8 Q-3.4 62.5 -3.0 62.5 -2.6 62.5 -2.3 62.8 -2.0 63.1 -2.0 63.5 -2.0 63.9 -2.3 64.2" fill="#000000" fill-rule="evenodd" stroke="none"/>
    <path d="M0.7 -7.7 L1.0 -7.0 1.0 -5.0 0.7 -4.3 Q0.4 -4.0 0.0 -4.0 -0.4 -4.0 -0.7 -4.3 L-1.0 -5.0 -1.0 -7.0 -0.7 -7.7 0.0 -8.0 0.7 -7.7" fill="url(#gradient9)" fill-rule="evenodd" stroke="none"/>
    <path d="M0.0 11.0 Q0.4 11.0 0.7 11.3 L1.0 12.0 1.0 14.0 0.7 14.7 0.0 15.0 -0.7 14.7 -1.0 14.0 -1.0 12.0 -0.7 11.3 Q-0.4 11.0 0.0 11.0" fill="url(#gradient10)" fill-rule="evenodd" stroke="none"/>
    <path d="M0.0 30.0 Q0.4 30.0 0.7 30.3 L1.0 31.0 1.0 33.0 0.7 33.7 0.0 34.0 -0.7 33.7 -1.0 33.0 -1.0 31.0 -0.7 30.3 Q-0.4 30.0 0.0 30.0" fill="url(#gradient11)" fill-rule="evenodd" stroke="none"/>
    <path d="M5.0 50.0 L6.0 52.0 M-5.0 50.0 L-6.0 52.0" fill="none" stroke="#2d3532" stroke-linecap="round" stroke-linejoin="round" stroke-width="0.5"/>
    <path d="M-17.0 -43.3 Q-16.85 -44.05 -15.1 -46.6 -13.25 -49.25 -12.5 -52.75 L-10.2 -52.95 -8.4 -52.05 -9.05 -42.15 Q-14.05 -44.1 -17.0 -43.3" fill="url(#gradient12)" fill-rule="evenodd" stroke="none"/>
    <path d="M-9.05 -42.15 L-11.0 -34.0 -17.0 -34.0 -17.0 -43.3 Q-14.05 -44.1 -9.05 -42.15" fill="url(#gradient13)" fill-rule="evenodd" stroke="none"/>
    <path d="M-3.15 -61.3 Q-6.75 -61.4 -8.35 -60.2 -7.5 -64.1 -6.75 -65.2 -5.55 -67.0 -2.95 -65.85 L-3.15 -61.3" fill="url(#gradient14)" fill-rule="evenodd" stroke="none"/>
    <path d="M-8.35 -60.2 Q-6.75 -61.4 -3.15 -61.3 L-3.45 -54.1 Q-7.15 -54.25 -9.55 -53.0 L-8.35 -60.2" fill="url(#gradient15)" fill-rule="evenodd" stroke="none"/>
    <path d="M-9.55 -53.0 Q-7.15 -54.25 -3.45 -54.1 L-4.0 -46.0 -11.0 -46.0 -9.55 -53.0" fill="url(#gradient16)" fill-rule="evenodd" stroke="none"/>
    <path d="M10.45 -57.85 Q9.15 -59.3 6.05 -59.0 L6.0 -63.0 Q8.1 -64.2 9.05 -62.65 9.6 -61.75 10.45 -57.85" fill="url(#gradient17)" fill-rule="evenodd" stroke="none"/>
    <path d="M6.05 -59.0 Q9.15 -59.3 10.45 -57.85 L12.05 -50.6 Q11.4 -51.5 9.35 -52.0 L6.15 -52.45 6.05 -59.0" fill="url(#gradient18)" fill-rule="evenodd" stroke="none"/>
    <path d="M6.15 -52.45 L9.35 -52.0 Q11.4 -51.5 12.05 -50.6 L13.0 -43.0 6.05 -43.4 6.15 -52.45" fill="url(#gradient19)" fill-rule="evenodd" stroke="none"/>
    <path d="M1.9 -61.6 L1.25 -67.4 Q3.75 -69.1 5.1 -66.45 5.85 -64.9 6.6 -60.3 4.75 -61.9 1.9 -61.6" fill="url(#gradient20)" fill-rule="evenodd" stroke="none"/>
    <path d="M6.6 -60.3 L7.75 -52.7 Q7.2 -53.6 5.5 -54.0 L2.45 -54.2 1.9 -61.6 Q4.75 -61.9 6.6 -60.3" fill="url(#gradient21)" fill-rule="evenodd" stroke="none"/>
    <path d="M7.75 -52.7 L8.0 -45.0 2.0 -45.0 2.45 -54.2 5.5 -54.0 Q7.2 -53.6 7.75 -52.7" fill="url(#gradient22)" fill-rule="evenodd" stroke="none"/>
    <path d="M-3.35 -63.3 L-3.0 -68.2 Q-2.6 -70.2 -0.6 -70.15 1.2 -70.2 1.55 -68.3 L2.05 -63.25 Q-0.95 -64.65 -3.35 -63.3" fill="url(#gradient23)" fill-rule="evenodd" stroke="none"/>
    <path d="M2.05 -63.25 L2.45 -56.0 Q-0.65 -57.75 -3.85 -55.95 L-3.35 -63.3 Q-0.95 -64.65 2.05 -63.25" fill="url(#gradient24)" fill-rule="evenodd" stroke="none"/>
    <path d="M2.45 -56.0 L3.0 -47.0 -4.0 -48.0 -3.85 -55.95 Q-0.65 -57.75 2.45 -56.0" fill="url(#gradient25)" fill-rule="evenodd" stroke="none"/>
    <path d="M7.25 -21.8 L-5.25 -28.05 -7.15 -21.8 Q-14.75 -27.1 -17.0 -34.0 L-12.0 -38.0 -11.0 -46.0 Q-4.85 -49.05 1.05 -48.2 6.55 -47.4 13.0 -43.0 13.05 -34.85 11.4 -29.15 9.85 -24.0 7.25 -21.8" fill="url(#gradient26)" fill-rule="evenodd" stroke="none"/>
    <path d="M6.0 -31.35 Q8.45 -28.8 8.45 -25.4 8.45 -24.2 7.25 -21.8 L0.15 -21.8 Q1.55 -21.85 2.5 -22.9 L2.55 -22.95 Q3.65 -23.95 3.65 -25.4 3.65 -26.9 2.55 -27.9 1.5 -29.0 0.05 -29.0 -1.4 -29.0 -2.45 -28.0 L-2.55 -27.9 Q-3.55 -26.85 -3.55 -25.4 -3.55 -23.95 -2.45 -22.9 -1.45 -21.85 0.0 -21.8 L-7.3 -21.8 Q-8.35 -23.9 -8.35 -25.4 -8.35 -28.8 -5.95 -31.35 L-5.9 -31.4 Q-3.35 -33.8 0.05 -33.8 3.55 -33.8 6.0 -31.35" fill="url(#gradient27)" fill-rule="evenodd" stroke="none"/>
    <path d="M4.25 -28.45 Q6.05 -26.65 6.05 -24.2 6.05 -21.75 4.25 -20.0 2.5 -18.2 0.05 -18.2 -2.4 -18.2 -4.2 -20.0 -5.95 -21.75 -5.95 -24.2 -5.95 -26.65 -4.2 -28.45 -2.4 -30.2 0.05 -30.2 2.5 -30.2 4.25 -28.45" fill="url(#gradient28)" fill-rule="evenodd" stroke="none"/>
    <path d="M0.65 -27.8 L-0.55 -27.8 -0.55 -30.2 0.65 -30.2 0.65 -27.8" fill="#393939" fill-rule="evenodd" stroke="none"/>
    <path d="M9.2 -19.75 Q7.15 -17.6 0.0 -17.6 -7.15 -17.6 -9.2 -19.75 L-5.1 -21.2 Q-4.35 -20.3 0.05 -20.3 4.45 -20.3 5.2 -21.2 L9.2 -19.75" fill="url(#gradient29)" fill-rule="evenodd" stroke="none"/>
    <path d="M-8.9 -46.95 Q-8.15 -47.7 -7.25 -47.7 -6.35 -47.7 -5.7 -46.95 -5.0 -46.1 -5.0 -44.95 -5.0 -43.8 -5.7 -43.05 -6.35 -42.2 -7.25 -42.2 -8.15 -42.2 -8.9 -43.05 -9.55 -43.8 -9.55 -44.95 -9.55 -46.1 -8.9 -46.95" fill="url(#gradient30)" fill-rule="evenodd" stroke="none"/>
    <path d="M1.95 -46.0 Q1.95 -44.7 1.2 -43.8 0.45 -42.9 -0.55 -42.9 -1.55 -42.9 -2.35 -43.8 -3.05 -44.7 -3.05 -46.0 -3.05 -47.25 -2.35 -48.15 -1.55 -49.05 -0.55 -49.05 0.45 -49.05 1.2 -48.15 1.95 -47.25 1.95 -46.0" fill="url(#gradient31)" fill-rule="evenodd" stroke="none"/>
    <path d="M7.2 -47.2 Q7.9 -46.35 7.9 -45.2 7.9 -44.05 7.2 -43.3 6.55 -42.45 5.65 -42.45 4.75 -42.45 4.0 -43.3 3.35 -44.05 3.35 -45.2 3.35 -46.35 4.0 -47.2 4.75 -47.95 5.65 -47.95 6.55 -47.95 7.2 -47.2" fill="url(#gradient32)" fill-rule="evenodd" stroke="none"/>
    <path d="M10.8 -41.2 Q10.0 -41.2 9.35 -41.9 8.8 -42.6 8.8 -43.6 8.8 -44.6 9.35 -45.3 10.0 -46.05 10.8 -46.05 11.55 -46.05 12.15 -45.3 12.75 -44.6 12.75 -43.6 12.75 -42.6 12.15 -41.9 11.55 -41.2 10.8 -41.2" fill="url(#gradient33)" fill-rule="evenodd" stroke="none"/>
  </g>
  <defs>
    <linearGradient gradientTransform="matrix(0.011, 0.0, 0.0, 0.0012, 0.0, 74.0)" gradientUnits="userSpaceOnUse" id="gradient0" spreadMethod="pad" x1="-819.2" x2="819.2">
      <stop offset="0.0" stop-color="#757575"/>
      <stop offset="0.11764705882352941" stop-color="#515151"/>
      <stop offset="0.47843137254901963" stop-color="#dfdfdf"/>
      <stop offset="0.5725490196078431" stop-color="#dfdfdf"/>
      <stop offset="0.8941176470588236" stop-color="#515151"/>
      <stop offset="0.9921568627450981" stop-color="#6a6a6a"/>
    </linearGradient>
    <linearGradient gradientTransform="matrix(0.0159, 0.0, 0.0, 0.0024, 0.0, 48.0)" gradientUnits="userSpaceOnUse" id="gradient1" spreadMethod="pad" x1="-819.2" x2="819.2">
      <stop offset="0.0" stop-color="#4e4a32"/>
      <stop offset="0.40784313725490196" stop-color="#b8b09c"/>
      <stop offset="0.596078431372549" stop-color="#b8b09c"/>
      <stop offset="0.9568627450980393" stop-color="#4e4a32"/>
    </linearGradient>
    <linearGradient gradientTransform="matrix(0.0134, 0.0, 0.0, 0.0037, 0.0, 70.0)" gradientUnits="userSpaceOnUse" id="gradient2" spreadMethod="pad" x1="-819.2" x2="819.2">
      <stop offset="0.00784313725490196" stop-color="#691616"/>
      <stop offset="0.10980392156862745" stop-color="#6d1212"/>
      <stop offset="0.396078431372549" stop-color="#b10e0e"/>
      <stop offset="0.49411764705882355" stop-color="#c92121"/>
      <stop offset="0.5411764705882353" stop-color="#c92121"/>
      <stop offset="0.6392156862745098" stop-color="#b10e0e"/>
      <stop offset="0.8862745098039215" stop-color="#6d1212"/>
      <stop offset="1.0" stop-color="#691616"/>
    </linearGradient>
    <linearGradient gradientTransform="matrix(0.0098, 0.0, 0.0, 0.0342, 0.0, 17.0)" gradientUnits="userSpaceOnUse" id="gradient3" spreadMethod="pad" x1="-819.2" x2="819.2">
      <stop offset="0.0" stop-color="#554a40"/>
      <stop offset="0.0784313725490196" stop-color="#4f3737"/>
      <stop offset="0.4549019607843137" stop-color="#654945"/>
      <stop offset="0.5372549019607843" stop-color="#654945"/>
      <stop offset="0.8980392156862745" stop-color="#4f3737"/>
      <stop offset="1.0" stop-color="#554a40"/>
    </linearGradient>
    <linearGradient gradientTransform="matrix(0.0161, 0.0, 0.0, 0.014, 0.0, 59.5)" gradientUnits="userSpaceOnUse" id="gradient4" spreadMethod="pad" x1="-819.2" x2="819.2">
      <stop offset="0.0" stop-color="#666b45"/>
      <stop offset="0.08627450980392157" stop-color="#4e4a32"/>
      <stop offset="0.4235294117647059" stop-color="#a9a387"/>
      <stop offset="0.5764705882352941" stop-color="#a9a387"/>
      <stop offset="0.8901960784313725" stop-color="#4e4a32"/>
      <stop offset="1.0" stop-color="#666b45"/>
    </linearGradient>
    <linearGradient gradientTransform="matrix(0.0134, 0.0, 0.0, 0.0061, 0.0, 43.0)" gradientUnits="userSpaceOnUse" id="gradient5" spreadMethod="pad" x1="-819.2" x2="819.2">
      <stop offset="0.0" stop-color="#666b45"/>
      <stop offset="0.08627450980392157" stop-color="#4e4a32"/>
      <stop offset="0.4235294117647059" stop-color="#a9a387"/>
      <stop offset="0.5764705882352941" stop-color="#a9a387"/>
      <stop offset="0.8901960784313725" stop-color="#4e4a32"/>
      <stop offset="1.0" stop-color="#666b45"/>
    </linearGradient>
    <linearGradient gradientTransform="matrix(0.0134, 0.0, 0.0, 0.011, 0.0, 28.0)" gradientUnits="userSpaceOnUse" id="gradient6" spreadMethod="pad" x1="-819.2" x2="819.2">
      <stop offset="0.0" stop-color="#666b45"/>
      <stop offset="0.08627450980392157" stop-color="#4e4a32"/>
      <stop offset="0.4235294117647059" stop-color="#a9a387"/>
      <stop offset="0.5764705882352941" stop-color="#a9a387"/>
      <stop offset="0.8901960784313725" stop-color="#4e4a32"/>
      <stop offset="1.0" stop-color="#666b45"/>
    </linearGradient>
    <linearGradient gradientTransform="matrix(0.0134, 0.0, 0.0, 0.011, 0.0, 9.0)" gradientUnits="userSpaceOnUse" id="gradient7" spreadMethod="pad" x1="-819.2" x2="819.2">
      <stop offset="0.0" stop-color="#666b45"/>
      <stop offset="0.08627450980392157" stop-color="#4e4a32"/>
      <stop offset="0.4235294117647059" stop-color="#a9a387"/>
      <stop offset="0.5764705882352941" stop-color="#a9a387"/>
      <stop offset="0.8901960784313725" stop-color="#4e4a32"/>
      <stop offset="1.0" stop-color="#666b45"/>
    </linearGradient>
    <linearGradient gradientTransform="matrix(0.0134, 0.0, 0.0, 0.0125, 0.0, -11.2)" gradientUnits="userSpaceOnUse" id="gradient8" spreadMethod="pad" x1="-819.2" x2="819.2">
      <stop offset="0.0" stop-color="#666b45"/>
      <stop offset="0.08627450980392157" stop-color="#4e4a32"/>
      <stop offset="0.4235294117647059" stop-color="#a9a387"/>
      <stop offset="0.5764705882352941" stop-color="#a9a387"/>
      <stop offset="0.8901960784313725" stop-color="#4e4a32"/>
      <stop offset="1.0" stop-color="#666b45"/>
    </linearGradient>
    <radialGradient cx="0" cy="0" gradientTransform="matrix(0.0015, 0.0, 0.0, 0.0028, 0.0, -6.0)" gradientUnits="userSpaceOnUse" id="gradient9" r="819.2" spreadMethod="pad">
      <stop offset="0.11372549019607843" stop-color="#ff5b5b"/>
      <stop offset="0.23137254901960785" stop-color="#ff1515"/>
      <stop offset="0.6588235294117647" stop-color="#bf0000"/>
      <stop offset="0.8235294117647058" stop-color="#800000"/>
    </radialGradient>
    <radialGradient cx="0" cy="0" gradientTransform="matrix(0.0014, 0.0, 0.0, 0.0028, 0.0, 13.0)" gradientUnits="userSpaceOnUse" id="gradient10" r="819.2" spreadMethod="pad">
      <stop offset="0.11372549019607843" stop-color="#ff5b5b"/>
      <stop offset="0.23137254901960785" stop-color="#ff1515"/>
      <stop offset="0.6588235294117647" stop-color="#bf0000"/>
      <stop offset="0.8235294117647058" stop-color="#800000"/>
    </radialGradient>
    <radialGradient cx="0" cy="0" gradientTransform="matrix(0.0015, 0.0, 0.0, 0.0028, 0.0, 32.0)" gradientUnits="userSpaceOnUse" id="gradient11" r="819.2" spreadMethod="pad">
      <stop offset="0.11372549019607843" stop-color="#ff5b5b"/>
      <stop offset="0.23137254901960785" stop-color="#ff1515"/>
      <stop offset="0.6588235294117647" stop-color="#bf0000"/>
      <stop offset="0.8235294117647058" stop-color="#800000"/>
    </radialGradient>
    <linearGradient gradientTransform="matrix(0.0057, 0.0021, -0.0018, 0.0048, -12.55, -47.65)" gradientUnits="userSpaceOnUse" id="gradient12" spreadMethod="pad" x1="-819.2" x2="819.2">
      <stop offset="0.0" stop-color="#6a6a6a"/>
      <stop offset="0.5607843137254902" stop-color="#9f9f9f"/>
      <stop offset="1.0" stop-color="#6a6a6a"/>
    </linearGradient>
    <linearGradient gradientTransform="matrix(0.0037, 0.0, 0.0, 0.0067, -13.75, -39.3)" gradientUnits="userSpaceOnUse" id="gradient13" spreadMethod="pad" x1="-819.2" x2="819.2">
      <stop offset="0.0" stop-color="#515151"/>
      <stop offset="0.49411764705882355" stop-color="#7b7b7b"/>
      <stop offset="0.9921568627450981" stop-color="#606060"/>
    </linearGradient>
    <linearGradient gradientTransform="matrix(0.0029, 7.0E-4, -0.0014, 0.0057, -5.95, -62.6)" gradientUnits="userSpaceOnUse" id="gradient14" spreadMethod="pad" x1="-819.2" x2="819.2">
      <stop offset="0.0" stop-color="#6a6a6a"/>
      <stop offset="0.5843137254901961" stop-color="#989898"/>
      <stop offset="1.0" stop-color="#9b9b9b"/>
    </linearGradient>
    <linearGradient gradientTransform="matrix(0.0036, 5.0E-4, -7.0E-4, 0.0058, -6.55, -56.6)" gradientUnits="userSpaceOnUse" id="gradient15" spreadMethod="pad" x1="-819.2" x2="819.2">
      <stop offset="0.0" stop-color="#515151"/>
      <stop offset="0.49411764705882355" stop-color="#7b7b7b"/>
      <stop offset="0.9921568627450981" stop-color="#606060"/>
    </linearGradient>
    <linearGradient gradientTransform="matrix(0.0044, 4.0E-4, -6.0E-4, 0.0058, -7.15, -49.4)" gradientUnits="userSpaceOnUse" id="gradient16" spreadMethod="pad" x1="-819.2" x2="819.2">
      <stop offset="0.0" stop-color="#515151"/>
      <stop offset="0.5058823529411764" stop-color="#7b7b7b"/>
      <stop offset="1.0" stop-color="#515151"/>
    </linearGradient>
    <linearGradient gradientTransform="matrix(0.0029, -6.0E-4, 0.0013, 0.0065, 7.8, -58.35)" gradientUnits="userSpaceOnUse" id="gradient17" spreadMethod="pad" x1="-819.2" x2="819.2">
      <stop offset="0.0" stop-color="#5b5b5b"/>
      <stop offset="0.6078431372549019" stop-color="#b8b8b8"/>
      <stop offset="1.0" stop-color="#9b9b9b"/>
    </linearGradient>
    <linearGradient gradientTransform="matrix(0.0036, -6.0E-4, 8.0E-4, 0.0051, 9.05, -54.8)" gradientUnits="userSpaceOnUse" id="gradient18" spreadMethod="pad" x1="-819.2" x2="819.2">
      <stop offset="0.0" stop-color="#515151"/>
      <stop offset="0.49411764705882355" stop-color="#7b7b7b"/>
      <stop offset="0.9921568627450981" stop-color="#606060"/>
    </linearGradient>
    <linearGradient gradientTransform="matrix(0.0043, -7.0E-4, 8.0E-4, 0.0051, 9.65, -47.6)" gradientUnits="userSpaceOnUse" id="gradient19" spreadMethod="pad" x1="-819.2" x2="819.2">
      <stop offset="0.0" stop-color="#515151"/>
      <stop offset="0.5058823529411764" stop-color="#7b7b7b"/>
      <stop offset="1.0" stop-color="#515151"/>
    </linearGradient>
    <linearGradient gradientTransform="matrix(0.0029, -3.0E-4, 6.0E-4, 0.0058, 4.15, -62.55)" gradientUnits="userSpaceOnUse" id="gradient20" spreadMethod="pad" x1="-819.2" x2="819.2">
      <stop offset="0.0" stop-color="#838383"/>
      <stop offset="0.49411764705882355" stop-color="#a3a3a3"/>
      <stop offset="1.0" stop-color="#9b9b9b"/>
    </linearGradient>
    <linearGradient gradientTransform="matrix(0.0043, -5.0E-4, 7.0E-4, 0.0058, 4.95, -56.6)" gradientUnits="userSpaceOnUse" id="gradient21" spreadMethod="pad" x1="-819.2" x2="819.2">
      <stop offset="0.0" stop-color="#515151"/>
      <stop offset="0.49411764705882355" stop-color="#7b7b7b"/>
      <stop offset="0.9921568627450981" stop-color="#606060"/>
    </linearGradient>
    <linearGradient gradientTransform="matrix(0.005, -5.0E-4, 5.0E-4, 0.0058, 5.75, -49.6)" gradientUnits="userSpaceOnUse" id="gradient22" spreadMethod="pad" x1="-819.2" x2="819.2">
      <stop offset="0.0" stop-color="#515151"/>
      <stop offset="0.5058823529411764" stop-color="#7b7b7b"/>
      <stop offset="1.0" stop-color="#515151"/>
    </linearGradient>
    <linearGradient gradientTransform="matrix(0.0042, 0.0, 0.0, 0.0052, -0.6, -65.7)" gradientUnits="userSpaceOnUse" id="gradient23" spreadMethod="pad" x1="-819.2" x2="819.2">
      <stop offset="0.0" stop-color="#868686"/>
      <stop offset="0.49411764705882355" stop-color="#a6a6a6"/>
      <stop offset="1.0" stop-color="#838383"/>
    </linearGradient>
    <linearGradient gradientTransform="matrix(0.0053, 0.0, 0.0, 0.0047, -0.85, -58.05)" gradientUnits="userSpaceOnUse" id="gradient24" spreadMethod="pad" x1="-819.2" x2="819.2">
      <stop offset="0.0" stop-color="#606060"/>
      <stop offset="0.5098039215686274" stop-color="#7b7b7b"/>
      <stop offset="0.9921568627450981" stop-color="#606060"/>
    </linearGradient>
    <linearGradient gradientTransform="matrix(0.0055, 0.0, 0.0, 0.0039, -0.75, -51.45)" gradientUnits="userSpaceOnUse" id="gradient25" spreadMethod="pad" x1="-819.2" x2="819.2">
      <stop offset="0.0" stop-color="#515151"/>
      <stop offset="0.5215686274509804" stop-color="#7b7b7b"/>
      <stop offset="1.0" stop-color="#636363"/>
    </linearGradient>
    <radialGradient cx="0" cy="0" fx="99.2" fy="0" gradientTransform="matrix(0.02, 0.0, 0.0, 0.0308, -2.0, -42.0)" gradientUnits="userSpaceOnUse" id="gradient26" r="819.2" spreadMethod="pad">
      <stop offset="0.12156862745098039" stop-color="#a9a387"/>
      <stop offset="0.807843137254902" stop-color="#514e34"/>
      <stop offset="0.9764705882352941" stop-color="#626642"/>
    </radialGradient>
    <radialGradient cx="0" cy="0" gradientTransform="matrix(0.0129, 0.0, 0.0, 0.0146, 0.05, -33.15)" gradientUnits="userSpaceOnUse" id="gradient27" r="819.2" spreadMethod="pad">
      <stop offset="0.0" stop-color="#faf0e0"/>
      <stop offset="1.0" stop-color="#515151"/>
    </radialGradient>
    <radialGradient cx="0" cy="0" gradientTransform="matrix(0.0095, 0.0, 0.0, 0.0095, 0.6, -26.0)" gradientUnits="userSpaceOnUse" id="gradient28" r="819.2" spreadMethod="pad">
      <stop offset="0.08235294117647059" stop-color="#f44a4a"/>
      <stop offset="0.16470588235294117" stop-color="#c92121"/>
      <stop offset="0.7137254901960784" stop-color="#6d1212"/>
      <stop offset="0.984313725490196" stop-color="#962121"/>
    </radialGradient>
    <radialGradient cx="0" cy="0" gradientTransform="matrix(0.0118, 0.0, 0.0, 0.0118, 0.0, -20.5)" gradientUnits="userSpaceOnUse" id="gradient29" r="819.2" spreadMethod="pad">
      <stop offset="0.0" stop-color="#faf0e0"/>
      <stop offset="1.0" stop-color="#515151"/>
    </radialGradient>
    <radialGradient cx="0" cy="0" gradientTransform="matrix(0.0032, 0.0, 0.0, 0.0044, -7.3, -46.0)" gradientUnits="userSpaceOnUse" id="gradient30" r="819.2" spreadMethod="pad">
      <stop offset="0.13333333333333333" stop-color="#b5b5b5"/>
      <stop offset="0.36470588235294116" stop-color="#959595"/>
      <stop offset="0.792156862745098" stop-color="#606060"/>
      <stop offset="1.0" stop-color="#6d6d6d"/>
    </radialGradient>
    <radialGradient cx="0" cy="0" gradientTransform="matrix(0.0035, 0.0, 0.0, 0.0048, -0.6, -47.0)" gradientUnits="userSpaceOnUse" id="gradient31" r="819.2" spreadMethod="pad">
      <stop offset="0.13333333333333333" stop-color="#b5b5b5"/>
      <stop offset="0.36470588235294116" stop-color="#959595"/>
      <stop offset="0.792156862745098" stop-color="#606060"/>
      <stop offset="1.0" stop-color="#6d6d6d"/>
    </radialGradient>
    <radialGradient cx="0" cy="0" gradientTransform="matrix(0.0032, 0.0, 0.0, 0.0044, 5.55, -46.1)" gradientUnits="userSpaceOnUse" id="gradient32" r="819.2" spreadMethod="pad">
      <stop offset="0.13333333333333333" stop-color="#b5b5b5"/>
      <stop offset="0.36470588235294116" stop-color="#959595"/>
      <stop offset="0.792156862745098" stop-color="#606060"/>
      <stop offset="1.0" stop-color="#6d6d6d"/>
    </radialGradient>
    <radialGradient cx="0" cy="0" gradientTransform="matrix(0.0028, 0.0, 0.0, 0.0038, 10.75, -44.35)" gradientUnits="userSpaceOnUse" id="gradient33" r="819.2" spreadMethod="pad">
      <stop offset="0.13333333333333333" stop-color="#b5b5b5"/>
      <stop offset="0.36470588235294116" stop-color="#959595"/>
      <stop offset="0.792156862745098" stop-color="#606060"/>
      <stop offset="1.0" stop-color="#6d6d6d"/>
    </radialGradient>
  </defs>
</svg>
