<?xml version="1.0" encoding="UTF-8" standalone="no"?>
<svg xmlns:xlink="http://www.w3.org/1999/xlink" height="76.0px" width="47.0px" xmlns="http://www.w3.org/2000/svg">
  <g transform="matrix(1.0, 0.0, 0.0, 1.0, 23.5, 38.5)">
    <path d="M13.35 -38.1 L14.25 -37.05 14.5 -35.7 13.9 -30.5 14.0 -30.5 Q16.3 -30.5 17.9 -28.9 19.5 -27.3 19.5 -25.0 19.5 -22.75 17.95 -21.15 L17.85 -21.05 Q16.9 -20.15 15.7 -19.75 L15.7 -19.25 15.55 -15.75 Q18.1 -14.75 19.2 -13.95 21.65 -12.35 22.55 -9.3 23.5 -6.4 23.5 10.0 L23.5 33.1 23.5 33.2 Q23.4 37.4 19.15 37.5 L19.05 37.5 -19.1 37.5 Q-23.4 37.4 -23.5 33.15 L-23.5 10.0 Q-23.5 -6.4 -22.55 -9.3 -21.65 -12.35 -19.2 -13.95 -18.1 -14.75 -15.5 -15.75 L-15.7 -19.25 -15.65 -19.25 -15.7 -19.75 Q-16.95 -20.15 -17.9 -21.1 -19.5 -22.7 -19.5 -25.0 -19.5 -27.25 -17.95 -28.85 L-17.85 -28.95 Q-16.25 -30.5 -14.0 -30.5 L-13.9 -30.5 -14.45 -35.7 Q-14.55 -36.45 -14.25 -37.05 L-13.3 -38.1 Q-12.7 -38.5 -12.0 -38.5 L12.0 -38.5 Q12.7 -38.5 13.35 -38.1" fill="#000000" fill-rule="evenodd" stroke="none"/>
    <path d="M-13.0 -14.0 L0.0 -14.0 13.0 -14.0 Q16.5 -12.8 17.8 -11.9 19.5 -10.75 20.15 -8.6 21.0 -5.8 21.0 10.0 L21.0 33.1 Q20.95 34.95 19.05 35.0 L-19.05 35.0 Q-20.95 34.95 -21.0 33.1 L-21.0 10.0 Q-21.0 -5.8 -20.15 -8.6 -19.5 -10.75 -17.8 -11.9 -16.5 -12.8 -13.0 -14.0" fill="url(#gradient0)" fill-rule="evenodd" stroke="none"/>
    <path d="M-13.0 -14.0 L-13.2 -19.5 Q-13.4 -21.5 -14.0 -22.0 L0.0 -22.0 14.0 -22.0 Q13.4 -21.5 13.2 -19.5 L13.0 -14.0 0.0 -14.0 -13.0 -14.0" fill="url(#gradient1)" fill-rule="evenodd" stroke="none"/>
    <path d="M10.0 -14.05 Q10.0 -13.1 10.55 -12.25 11.1 -11.45 12.0 -11.15 15.0 -10.15 16.1 -9.4 16.95 -8.8 17.25 -7.7 18.0 -5.05 18.0 10.0 L18.0 27.0 Q17.85 29.95 15.2 30.0 L15.0 30.0 0.0 30.0 -15.0 30.0 -15.2 30.0 Q-17.85 29.95 -18.0 27.0 L-18.0 10.0 Q-18.0 -5.05 -17.25 -7.7 -16.95 -8.8 -16.1 -9.4 -15.0 -10.15 -12.0 -11.15 -11.1 -11.45 -10.55 -12.25 -10.0 -13.1 -10.0 -14.05 L-10.0 -22.0 0.0 -22.0 10.0 -22.0 10.0 -14.05" fill="url(#gradient2)" fill-rule="evenodd" stroke="none"/>
    <path d="M2.0 12.0 L-18.0 12.0 -18.0 2.1 Q-14.2 1.2 -8.5 1.95 L2.3 4.2 2.0 12.0" fill="url(#gradient3)" fill-rule="evenodd" stroke="none"/>
    <path d="M18.0 5.45 L18.0 27.0 Q17.85 29.95 15.2 30.0 L15.0 30.0 0.0 30.0 -15.0 30.0 -15.2 30.0 Q-17.85 29.95 -18.0 27.0 L-18.0 5.5 -17.95 4.05 Q-11.65 6.85 -2.0 4.65 10.0 1.95 17.95 3.0 L18.0 5.45" fill="url(#gradient4)" fill-rule="evenodd" stroke="none"/>
    <path d="M10.0 -22.0 L10.0 -14.05 Q10.0 -13.1 10.55 -12.25 11.1 -11.45 12.0 -11.15 15.0 -10.15 16.1 -9.4 16.95 -8.8 17.25 -7.7 18.0 -5.05 18.0 10.0 L18.0 27.0 Q17.85 29.95 15.2 30.0 L15.0 30.0 0.0 30.0 -15.0 30.0 -15.2 30.0 Q-17.85 29.95 -18.0 27.0 L-18.0 10.0 Q-18.0 -5.05 -17.25 -7.7 -16.95 -8.8 -16.1 -9.4 -15.0 -10.15 -12.0 -11.15 -11.1 -11.45 -10.55 -12.25 -10.0 -13.1 -10.0 -14.05 L-10.0 -22.0" fill="none" stroke="url(#gradient5)" stroke-linecap="round" stroke-linejoin="round" stroke-width="0.75"/>
    <path d="M9.65 -18.0 L0.0 -18.0 -9.6 -18.0 -12.0 -36.0 0.0 -36.0 12.0 -36.0 9.65 -18.0" fill="url(#gradient6)" fill-rule="evenodd" stroke="none"/>
    <path d="M15.0 -18.0 L-15.0 -18.0 -15.0 -22.0 15.0 -22.0 15.0 -18.0" fill="#000000" fill-opacity="0.15294118" fill-rule="evenodd" stroke="none"/>
    <path d="M12.0 -36.0 L11.85 -34.5 -11.8 -34.5 -12.0 -36.0 0.0 -36.0 12.0 -36.0" fill="#ffffff" fill-opacity="0.15294118" fill-rule="evenodd" stroke="none"/>
    <path d="M17.0 -25.0 Q17.0 -23.75 16.1 -22.9 15.25 -22.0 14.0 -22.0 L-14.0 -22.0 Q-15.25 -22.0 -16.15 -22.9 -17.0 -23.75 -17.0 -25.0 -17.0 -26.25 -16.15 -27.15 -15.25 -28.0 -14.0 -28.0 L14.0 -28.0 Q15.25 -28.0 16.1 -27.15 17.0 -26.25 17.0 -25.0" fill="url(#gradient7)" fill-rule="evenodd" stroke="none"/>
    <path d="M10.95 -28.0 L10.2 -22.0 -10.15 -22.0 -10.95 -28.0 10.95 -28.0" fill="#000000" fill-opacity="0.15294118" fill-rule="evenodd" stroke="none"/>
    <path d="M18.0 -25.1 Q18.0 -23.45 12.7 -22.3 L11.25 -22.0 4.6 -21.2 0.0 -21.1 Q-7.45 -21.1 -12.8 -22.3 -18.0 -23.45 -18.0 -25.1 -18.0 -26.75 -12.8 -27.95 -7.45 -29.1 0.0 -29.1 7.45 -29.1 12.7 -27.95 18.0 -26.75 18.0 -25.1" fill="url(#gradient8)" fill-rule="evenodd" stroke="none"/>
    <path d="M14.0 -10.0 L14.0 35.0 6.0 35.0 6.0 -10.0 14.0 -10.0" fill="url(#gradient9)" fill-rule="evenodd" stroke="none"/>
  </g>
  <defs>
    <linearGradient gradientTransform="matrix(1.0E-4, -0.03, 0.0299, 1.0E-4, 0.0, 10.5)" gradientUnits="userSpaceOnUse" id="gradient0" spreadMethod="pad" x1="-819.2" x2="819.2">
      <stop offset="0.027450980392156862" stop-color="#828483"/>
      <stop offset="0.058823529411764705" stop-color="#626462"/>
      <stop offset="0.1803921568627451" stop-color="#7a8584"/>
      <stop offset="0.2823529411764706" stop-color="#869295"/>
      <stop offset="0.8745098039215686" stop-color="#ffffff"/>
      <stop offset="0.9372549019607843" stop-color="#d9dadd"/>
      <stop offset="1.0" stop-color="#cccfd5"/>
    </linearGradient>
    <linearGradient gradientTransform="matrix(0.0, -0.0049, 0.0049, 0.0, 0.0, -18.0)" gradientUnits="userSpaceOnUse" id="gradient1" spreadMethod="pad" x1="-819.2" x2="819.2">
      <stop offset="0.0" stop-color="#cccfd5"/>
      <stop offset="0.5843137254901961" stop-color="#a3a8a9"/>
      <stop offset="1.0" stop-color="#868d95"/>
    </linearGradient>
    <linearGradient gradientTransform="matrix(0.0, -0.0317, 0.0317, 0.0, 0.0, 4.0)" gradientUnits="userSpaceOnUse" id="gradient2" spreadMethod="pad" x1="-819.2" x2="819.2">
      <stop offset="0.33725490196078434" stop-color="#e6e6e6"/>
      <stop offset="1.0" stop-color="#687997"/>
    </linearGradient>
    <linearGradient gradientTransform="matrix(0.0116, 0.0, 0.0, 0.0048, -8.5, 5.2)" gradientUnits="userSpaceOnUse" id="gradient3" spreadMethod="pad" x1="-819.2" x2="819.2">
      <stop offset="0.0" stop-color="#25da32"/>
      <stop offset="0.7294117647058823" stop-color="#7ced84"/>
    </linearGradient>
    <linearGradient gradientTransform="matrix(0.0, -0.0175, 0.0167, 0.0, 0.0, 16.35)" gradientUnits="userSpaceOnUse" id="gradient4" spreadMethod="pad" x1="-819.2" x2="819.2">
      <stop offset="0.0392156862745098" stop-color="#13a437"/>
      <stop offset="0.10588235294117647" stop-color="#1b7a39"/>
      <stop offset="0.5607843137254902" stop-color="#1ad735"/>
      <stop offset="1.0" stop-color="#1db84f"/>
    </linearGradient>
    <linearGradient gradientTransform="matrix(0.0, 0.0322, -0.0322, 0.0, 0.0, 4.0)" gradientUnits="userSpaceOnUse" id="gradient5" spreadMethod="pad" x1="-819.2" x2="819.2">
      <stop offset="0.0" stop-color="#919998"/>
      <stop offset="0.2823529411764706" stop-color="#e9ebeb"/>
      <stop offset="0.7098039215686275" stop-color="#707c81"/>
      <stop offset="0.9411764705882353" stop-color="#6f7a7b"/>
      <stop offset="1.0" stop-color="#919998"/>
    </linearGradient>
    <linearGradient gradientTransform="matrix(0.0146, 0.0, 0.0, 0.011, 0.0, -27.0)" gradientUnits="userSpaceOnUse" id="gradient6" spreadMethod="pad" x1="-819.2" x2="819.2">
      <stop offset="0.0" stop-color="#8d5b29"/>
      <stop offset="0.20784313725490197" stop-color="#b97737"/>
      <stop offset="0.5294117647058824" stop-color="#c68d55"/>
      <stop offset="0.8156862745098039" stop-color="#b97737"/>
      <stop offset="1.0" stop-color="#8d5b29"/>
    </linearGradient>
    <linearGradient gradientTransform="matrix(0.0208, 0.0, 0.0, 0.0037, 0.0, -25.0)" gradientUnits="userSpaceOnUse" id="gradient7" spreadMethod="pad" x1="-819.2" x2="819.2">
      <stop offset="0.0" stop-color="#8a9497"/>
      <stop offset="0.20784313725490197" stop-color="#dbdbdb"/>
      <stop offset="0.8235294117647058" stop-color="#d0d0d0"/>
      <stop offset="1.0" stop-color="#8a9497"/>
    </linearGradient>
    <radialGradient cx="0" cy="0" fx="281.6" fy="0" gradientTransform="matrix(0.0, -0.005, 0.0219, 1.0E-4, 0.0, -25.1)" gradientUnits="userSpaceOnUse" id="gradient8" r="819.2" spreadMethod="pad">
      <stop offset="0.12941176470588237" stop-color="#ffffff"/>
      <stop offset="0.34509803921568627" stop-color="#ffffff" stop-opacity="0.5137255"/>
      <stop offset="0.7607843137254902" stop-color="#ffffff" stop-opacity="0.0"/>
    </radialGradient>
    <radialGradient cx="0" cy="0" fx="640.0" fy="0" gradientTransform="matrix(0.0, -0.0399, 0.007, 0.0, 9.9, 21.5)" gradientUnits="userSpaceOnUse" id="gradient9" r="819.2" spreadMethod="pad">
      <stop offset="0.20392156862745098" stop-color="#ffffff"/>
      <stop offset="0.4" stop-color="#ffffff" stop-opacity="0.37254903"/>
      <stop offset="0.8823529411764706" stop-color="#ffffff" stop-opacity="0.0"/>
    </radialGradient>
  </defs>
</svg>
