<?xml version="1.0" encoding="UTF-8" standalone="no"?>
<svg xmlns:xlink="http://www.w3.org/1999/xlink" height="100.0px" width="100.0px" xmlns="http://www.w3.org/2000/svg">
  <g transform="matrix(1.0, 0.0, 0.0, 1.0, 50.0, 50.0)">
    <path d="M23.5 -25.5 Q23.5 -23.95 22.3 -23.1 21.4 -22.5 20.5 -22.5 L17.5 -22.5 20.1 -20.15 Q28.5 -11.75 28.5 0.0 28.5 11.8 20.1 20.1 L17.45 22.5 20.5 22.5 Q21.4 22.5 22.3 23.1 23.5 23.95 23.5 25.5 23.5 27.05 22.3 27.9 21.4 28.5 20.5 28.5 L15.65 28.5 17.1 30.65 Q17.6 31.45 17.45 32.45 17.3 33.4 16.5 34.0 9.2 39.5 0.0 39.5 -9.2 39.5 -16.5 34.0 -17.3 33.4 -17.45 32.45 -17.6 31.45 -17.05 30.65 L-15.65 28.5 -20.5 28.5 Q-21.4 28.5 -22.3 27.9 -23.5 27.05 -23.5 25.5 -23.5 23.95 -22.3 23.1 -21.4 22.5 -20.5 22.5 L-17.5 22.5 -20.15 20.1 Q-28.5 11.8 -28.5 0.0 -28.5 -11.75 -20.15 -20.15 L-17.55 -22.5 -20.5 -22.5 Q-21.4 -22.5 -22.3 -23.1 -23.5 -23.95 -23.5 -25.5 -23.5 -27.05 -22.3 -27.9 -21.4 -28.5 -20.5 -28.5 L-15.65 -28.5 -17.05 -30.6 Q-17.6 -31.45 -17.45 -32.4 -17.3 -33.4 -16.5 -34.0 -9.2 -39.5 0.0 -39.5 9.2 -39.5 16.5 -34.0 17.3 -33.4 17.45 -32.4 17.6 -31.45 17.1 -30.6 L15.65 -28.5 20.5 -28.5 Q21.4 -28.5 22.3 -27.9 23.5 -27.05 23.5 -25.5" fill="#000000" fill-rule="evenodd" stroke="none"/>
    <path d="M18.35 -18.4 Q26.0 -10.75 26.0 0.0 26.0 10.75 18.35 18.35 L15.35 21.0 -15.35 21.0 -18.4 18.35 Q-26.0 10.75 -26.0 0.0 -26.0 -10.75 -18.4 -18.4 L-15.4 -21.0 15.4 -21.0 18.35 -18.4" fill="url(#gradient0)" fill-rule="evenodd" stroke="none"/>
    <path d="M-23.55 -11.0 L-16.0 -11.0 -11.0 -7.0 -9.2 -9.2 Q-5.4 -13.0 0.0 -13.0 5.4 -13.0 9.2 -9.2 L11.0 -7.0 Q13.15 -9.05 16.0 -11.0 L23.45 -11.0 M11.0 -7.0 Q12.25 -5.05 12.75 -2.75 L15.0 -2.0 15.0 2.0 12.75 2.75 Q12.25 5.05 11.0 7.0 13.15 9.05 16.0 11.0 L23.45 11.0 M11.0 7.0 L9.2 9.2 Q5.4 13.0 0.0 13.0 -5.4 13.0 -9.2 9.2 L-11.0 7.0 Q-13.15 9.05 -16.0 11.0 L-23.45 11.0 M-11.0 7.0 Q-12.25 5.05 -12.7 2.75 L-15.0 2.0 -15.0 -2.0 -12.7 -2.75 Q-12.25 -5.05 -11.0 -7.0" fill="none" stroke="url(#gradient1)" stroke-linecap="round" stroke-linejoin="round" stroke-width="0.25"/>
    <path d="M-19.55 -17.0 L19.5 -17.0" fill="none" stroke="url(#gradient2)" stroke-linecap="round" stroke-linejoin="round" stroke-width="0.25"/>
    <path d="M-19.5 17.0 L19.45 17.0" fill="none" stroke="url(#gradient3)" stroke-linecap="round" stroke-linejoin="round" stroke-width="0.25"/>
    <path d="M14.0 -17.0 L15.15 -15.7 Q15.5 -15.2 15.15 -15.05 14.8 -14.9 14.45 -15.25 L13.0 -17.0 14.0 -17.0 M14.0 17.0 L13.0 17.0 14.45 15.25 Q14.8 14.9 15.15 15.05 15.45 15.2 15.15 15.7 L14.0 17.0 M-13.0 -17.0 L-14.45 -15.25 Q-14.8 -14.9 -15.15 -15.05 -15.5 -15.2 -15.15 -15.7 L-14.0 -17.0 -13.0 -17.0 M-14.0 17.0 L-15.15 15.7 Q-15.45 15.2 -15.15 15.05 -14.8 14.9 -14.45 15.25 L-13.0 17.0 -14.0 17.0" fill="#555555" fill-rule="evenodd" stroke="none"/>
    <path d="M14.0 -2.3 L15.0 -2.0 15.0 2.0 14.0 2.35 14.0 -2.3 M18.0 -3.0 L18.0 -2.0 16.0 -2.0 16.0 -3.0 18.0 -3.0 M18.0 2.0 L18.0 3.0 16.0 3.0 16.0 2.0 18.0 2.0 M-14.0 -2.3 L-14.0 2.35 -15.0 2.0 -15.0 -2.0 -14.0 -2.3 M-16.0 -3.0 L-16.0 -2.0 -18.0 -2.0 -18.0 -3.0 -16.0 -3.0 M-16.0 2.0 L-16.0 3.0 -18.0 3.0 -18.0 2.0 -16.0 2.0" fill="#434343" fill-rule="evenodd" stroke="none"/>
    <path d="M5.0 -21.0 L-5.0 -21.0 -5.0 -27.0 5.0 -27.0 5.0 -21.0" fill="url(#gradient4)" fill-rule="evenodd" stroke="none"/>
    <path d="M-5.0 21.0 L5.0 21.0 5.0 27.0 -5.0 27.0 -5.0 21.0" fill="url(#gradient5)" fill-rule="evenodd" stroke="none"/>
    <path d="M4.9 -23.95 L0.0 -21.1 M4.85 21.1 L0.0 24.0 M0.0 21.1 L-4.9 23.9 M0.0 -24.0 L-4.85 -21.1" fill="none" stroke="url(#gradient6)" stroke-linecap="round" stroke-linejoin="round" stroke-width="0.25"/>
    <path d="M5.0 -24.0 L-5.0 -24.0 -5.0 -27.0 5.0 -27.0 5.0 -24.0" fill="url(#gradient7)" fill-rule="evenodd" stroke="none"/>
    <path d="M-5.0 24.0 L5.0 24.0 5.0 27.0 -5.0 27.0 -5.0 24.0" fill="url(#gradient8)" fill-rule="evenodd" stroke="none"/>
    <path d="M6.0 -27.0 L-6.0 -27.0 -7.0 -29.0 7.0 -29.0 6.0 -27.0" fill="url(#gradient9)" fill-rule="evenodd" stroke="none"/>
    <path d="M-7.0 29.0 L-6.0 27.0 6.0 27.0 7.0 29.0 -7.0 29.0" fill="url(#gradient10)" fill-rule="evenodd" stroke="none"/>
    <path d="M-4.0 -25.5 L-4.15 -25.15 Q-4.3 -25.0 -4.5 -25.0 L-20.5 -25.0 -20.85 -25.15 -21.0 -25.5 -20.85 -25.85 -20.5 -26.0 -4.5 -26.0 Q-4.3 -26.0 -4.15 -25.85 L-4.0 -25.5" fill="url(#gradient11)" fill-rule="evenodd" stroke="none"/>
    <path d="M-20.85 25.15 L-20.5 25.0 -4.5 25.0 Q-4.3 25.0 -4.15 25.15 L-4.0 25.5 -4.15 25.85 Q-4.3 26.0 -4.5 26.0 L-20.5 26.0 -20.85 25.85 -21.0 25.5 -20.85 25.15" fill="url(#gradient12)" fill-rule="evenodd" stroke="none"/>
    <path d="M20.5 -25.0 L4.5 -25.0 Q4.3 -25.0 4.15 -25.15 L4.0 -25.5 4.15 -25.85 Q4.3 -26.0 4.5 -26.0 L20.5 -26.0 20.85 -25.85 21.0 -25.5 20.85 -25.15 20.5 -25.0" fill="url(#gradient13)" fill-rule="evenodd" stroke="none"/>
    <path d="M4.15 25.85 L4.0 25.5 4.15 25.15 Q4.3 25.0 4.5 25.0 L20.5 25.0 20.85 25.15 21.0 25.5 20.85 25.85 20.5 26.0 4.5 26.0 Q4.3 26.0 4.15 25.85" fill="url(#gradient14)" fill-rule="evenodd" stroke="none"/>
    <path d="M15.0 -32.0 L13.0 -29.0 1.8 -29.0 -1.8 -29.0 -13.0 -29.0 -15.0 -32.0 15.0 -32.0" fill="url(#gradient15)" fill-rule="evenodd" stroke="none"/>
    <path d="M-15.0 32.0 L-13.0 29.0 -1.8 29.0 1.8 29.0 13.0 29.0 15.0 32.0 -15.0 32.0" fill="url(#gradient16)" fill-rule="evenodd" stroke="none"/>
    <path d="M-15.0 -32.0 Q-8.35 -37.0 0.0 -37.0 8.35 -37.0 15.0 -32.0 L-15.0 -32.0" fill="url(#gradient17)" fill-rule="evenodd" stroke="none"/>
    <path d="M15.0 32.0 Q8.35 37.0 0.0 37.0 -8.35 37.0 -15.0 32.0 L15.0 32.0" fill="url(#gradient18)" fill-rule="evenodd" stroke="none"/>
    <path d="M1.4 -30.85 Q0.85 -30.35 0.0 -30.35 -0.85 -30.35 -1.45 -30.85 -2.0 -31.3 -2.0 -32.0 -2.0 -32.7 -1.45 -33.2 -0.85 -33.65 0.0 -33.65 L1.4 -33.2 Q2.0 -32.7 2.0 -32.0 2.0 -31.3 1.4 -30.85" fill="url(#gradient19)" fill-rule="evenodd" stroke="none"/>
    <path d="M1.4 30.85 Q2.0 31.3 2.0 31.95 L2.0 32.0 Q2.0 32.65 1.4 33.15 L0.0 33.6 Q-0.85 33.6 -1.45 33.15 -2.0 32.65 -2.0 32.0 L-2.0 31.95 Q-2.0 31.3 -1.45 30.85 -0.85 30.35 0.0 30.35 0.85 30.35 1.4 30.85" fill="url(#gradient20)" fill-rule="evenodd" stroke="none"/>
    <path d="M1.0 -32.0 L0.7 -31.4 Q0.45 -31.15 0.0 -31.15 L-0.7 -31.4 -1.0 -32.0 -0.7 -32.6 0.0 -32.8 0.7 -32.6 1.0 -32.0 M1.0 32.0 L0.7 32.6 0.0 32.8 -0.7 32.6 -1.0 32.0 -0.7 31.4 0.0 31.15 Q0.45 31.15 0.7 31.4 L1.0 32.0" fill="#000000" fill-rule="evenodd" stroke="none"/>
    <path d="M5.0 -26.0 L-5.0 -26.0 -5.0 -27.0 5.0 -27.0 5.0 -26.0 M-5.0 26.0 L5.0 26.0 5.0 27.0 -5.0 27.0 -5.0 26.0" fill="#000000" fill-opacity="0.15294118" fill-rule="evenodd" stroke="none"/>
    <path d="M35.35 -35.35 Q50.0 -20.7 50.0 0.0 50.0 20.7 35.35 35.35 20.7 50.0 0.0 50.0 -20.7 50.0 -35.35 35.35 -50.0 20.7 -50.0 0.0 -50.0 -20.7 -35.35 -35.35 -20.7 -50.0 0.0 -50.0 20.7 -50.0 35.35 -35.35" fill="url(#gradient21)" fill-rule="evenodd" stroke="none"/>
  </g>
  <defs>
    <radialGradient cx="0" cy="0" fx="348.8" fy="0" gradientTransform="matrix(2.0E-4, -0.0433, 0.0433, 2.0E-4, 0.0, 0.0)" gradientUnits="userSpaceOnUse" id="gradient0" r="819.2" spreadMethod="pad">
      <stop offset="0.1411764705882353" stop-color="#f4f4f4"/>
      <stop offset="0.3607843137254902" stop-color="#bfbfbf"/>
      <stop offset="0.4666666666666667" stop-color="#989ca7"/>
      <stop offset="0.6627450980392157" stop-color="#434343"/>
      <stop offset="0.7254901960784313" stop-color="#4a4a4a"/>
      <stop offset="0.8509803921568627" stop-color="#7d8f97"/>
    </radialGradient>
    <radialGradient cx="0" cy="0" fx="512.0" fy="0" gradientTransform="matrix(6.0E-4, -0.0425, 0.0425, 6.0E-4, 0.0, 0.0)" gradientUnits="userSpaceOnUse" id="gradient1" r="819.2" spreadMethod="pad">
      <stop offset="0.13333333333333333" stop-color="#f4f4f4"/>
      <stop offset="0.6196078431372549" stop-color="#555555"/>
      <stop offset="1.0" stop-color="#636363"/>
    </radialGradient>
    <radialGradient cx="0" cy="0" fx="512.0" fy="0" gradientTransform="matrix(6.0E-4, -0.0425, 0.0425, 6.0E-4, 0.0, 0.0)" gradientUnits="userSpaceOnUse" id="gradient2" r="819.2" spreadMethod="pad">
      <stop offset="0.13333333333333333" stop-color="#f4f4f4"/>
      <stop offset="0.5372549019607843" stop-color="#5b5b5b"/>
      <stop offset="0.6941176470588235" stop-color="#6a6a6a"/>
    </radialGradient>
    <radialGradient cx="0" cy="0" fx="512.0" fy="0" gradientTransform="matrix(6.0E-4, -0.0425, 0.0425, 6.0E-4, 0.0, 0.0)" gradientUnits="userSpaceOnUse" id="gradient3" r="819.2" spreadMethod="pad">
      <stop offset="0.7333333333333333" stop-color="#5b5b5b"/>
      <stop offset="0.8392156862745098" stop-color="#3c3c3c"/>
      <stop offset="1.0" stop-color="#636363"/>
    </radialGradient>
    <linearGradient gradientTransform="matrix(0.0061, 0.0, 0.0, 0.0037, 0.0, -24.0)" gradientUnits="userSpaceOnUse" id="gradient4" spreadMethod="pad" x1="-819.2" x2="819.2">
      <stop offset="0.0" stop-color="#4a4a4a"/>
      <stop offset="0.1411764705882353" stop-color="#232323"/>
      <stop offset="0.4196078431372549" stop-color="#55585b"/>
      <stop offset="0.592156862745098" stop-color="#55585b"/>
      <stop offset="0.8470588235294118" stop-color="#232323"/>
      <stop offset="1.0" stop-color="#4a4a4a"/>
    </linearGradient>
    <linearGradient gradientTransform="matrix(0.0061, 0.0, 0.0, 0.0037, 0.0, 24.0)" gradientUnits="userSpaceOnUse" id="gradient5" spreadMethod="pad" x1="-819.2" x2="819.2">
      <stop offset="0.0" stop-color="#4a4a4a"/>
      <stop offset="0.1411764705882353" stop-color="#232323"/>
      <stop offset="0.4196078431372549" stop-color="#55585b"/>
      <stop offset="0.592156862745098" stop-color="#55585b"/>
      <stop offset="0.8470588235294118" stop-color="#232323"/>
      <stop offset="1.0" stop-color="#4a4a4a"/>
    </linearGradient>
    <linearGradient gradientTransform="matrix(0.0061, 0.0, 0.0, 0.0294, 0.0, 0.0)" gradientUnits="userSpaceOnUse" id="gradient6" spreadMethod="pad" x1="-819.2" x2="819.2">
      <stop offset="0.0" stop-color="#555555"/>
      <stop offset="0.11764705882352941" stop-color="#000000"/>
      <stop offset="0.47843137254901963" stop-color="#838383"/>
      <stop offset="0.5882352941176471" stop-color="#838383"/>
      <stop offset="0.8823529411764706" stop-color="#000000"/>
      <stop offset="1.0" stop-color="#555555"/>
    </linearGradient>
    <linearGradient gradientTransform="matrix(0.0061, 0.0, 0.0, 0.0018, 0.0, -25.5)" gradientUnits="userSpaceOnUse" id="gradient7" spreadMethod="pad" x1="-819.2" x2="819.2">
      <stop offset="0.0" stop-color="#8d5723"/>
      <stop offset="0.11372549019607843" stop-color="#744312"/>
      <stop offset="0.43137254901960786" stop-color="#d58c2b"/>
      <stop offset="0.5686274509803921" stop-color="#d58c2b"/>
      <stop offset="0.8823529411764706" stop-color="#744312"/>
      <stop offset="1.0" stop-color="#8d5723"/>
    </linearGradient>
    <linearGradient gradientTransform="matrix(0.0061, 0.0, 0.0, 0.0018, 0.0, 25.5)" gradientUnits="userSpaceOnUse" id="gradient8" spreadMethod="pad" x1="-819.2" x2="819.2">
      <stop offset="0.0" stop-color="#8d5723"/>
      <stop offset="0.11372549019607843" stop-color="#744312"/>
      <stop offset="0.43137254901960786" stop-color="#d58c2b"/>
      <stop offset="0.5686274509803921" stop-color="#d58c2b"/>
      <stop offset="0.8823529411764706" stop-color="#744312"/>
      <stop offset="1.0" stop-color="#8d5723"/>
    </linearGradient>
    <linearGradient gradientTransform="matrix(0.0085, 0.0, 0.0, 0.0012, 0.0, -28.0)" gradientUnits="userSpaceOnUse" id="gradient9" spreadMethod="pad" x1="-819.2" x2="819.2">
      <stop offset="0.0" stop-color="#8d5723"/>
      <stop offset="0.11372549019607843" stop-color="#744312"/>
      <stop offset="0.43137254901960786" stop-color="#d58c2b"/>
      <stop offset="0.5686274509803921" stop-color="#d58c2b"/>
      <stop offset="0.8823529411764706" stop-color="#744312"/>
      <stop offset="1.0" stop-color="#8d5723"/>
    </linearGradient>
    <linearGradient gradientTransform="matrix(0.0085, 0.0, 0.0, 0.0012, 0.0, 28.0)" gradientUnits="userSpaceOnUse" id="gradient10" spreadMethod="pad" x1="-819.2" x2="819.2">
      <stop offset="0.0" stop-color="#8d5723"/>
      <stop offset="0.11372549019607843" stop-color="#744312"/>
      <stop offset="0.43137254901960786" stop-color="#d58c2b"/>
      <stop offset="0.5686274509803921" stop-color="#d58c2b"/>
      <stop offset="0.8823529411764706" stop-color="#744312"/>
      <stop offset="1.0" stop-color="#8d5723"/>
    </linearGradient>
    <linearGradient gradientTransform="matrix(0.0104, 0.0, 0.0, 6.0E-4, -12.5, -25.5)" gradientUnits="userSpaceOnUse" id="gradient11" spreadMethod="pad" x1="-819.2" x2="819.2">
      <stop offset="0.0" stop-color="#f4f4f4"/>
      <stop offset="0.8392156862745098" stop-color="#5ee0f7"/>
    </linearGradient>
    <linearGradient gradientTransform="matrix(0.0104, 0.0, 0.0, 6.0E-4, -12.5, 25.5)" gradientUnits="userSpaceOnUse" id="gradient12" spreadMethod="pad" x1="-819.2" x2="819.2">
      <stop offset="0.0" stop-color="#f4f4f4"/>
      <stop offset="0.8392156862745098" stop-color="#5ee0f7"/>
    </linearGradient>
    <linearGradient gradientTransform="matrix(0.0104, 0.0, 0.0, 6.0E-4, 12.5, -25.5)" gradientUnits="userSpaceOnUse" id="gradient13" spreadMethod="pad" x1="-819.2" x2="819.2">
      <stop offset="0.1568627450980392" stop-color="#5ee0f7"/>
      <stop offset="1.0" stop-color="#f4f4f4"/>
    </linearGradient>
    <linearGradient gradientTransform="matrix(0.0104, 0.0, 0.0, 6.0E-4, 12.5, 25.5)" gradientUnits="userSpaceOnUse" id="gradient14" spreadMethod="pad" x1="-819.2" x2="819.2">
      <stop offset="0.1568627450980392" stop-color="#5ee0f7"/>
      <stop offset="1.0" stop-color="#f4f4f4"/>
    </linearGradient>
    <linearGradient gradientTransform="matrix(0.0183, 0.0, 0.0, 0.0024, 0.0, -31.0)" gradientUnits="userSpaceOnUse" id="gradient15" spreadMethod="pad" x1="-819.2" x2="819.2">
      <stop offset="0.0" stop-color="#606060"/>
      <stop offset="0.11372549019607843" stop-color="#5b5b5b"/>
      <stop offset="0.4235294117647059" stop-color="#b4b5b8"/>
      <stop offset="0.5176470588235295" stop-color="#c9cacb"/>
      <stop offset="0.6" stop-color="#b4b5b8"/>
      <stop offset="0.8823529411764706" stop-color="#5b5b5b"/>
      <stop offset="1.0" stop-color="#606060"/>
    </linearGradient>
    <linearGradient gradientTransform="matrix(0.0183, 0.0, 0.0, 0.0024, 0.0, 31.0)" gradientUnits="userSpaceOnUse" id="gradient16" spreadMethod="pad" x1="-819.2" x2="819.2">
      <stop offset="0.0" stop-color="#606060"/>
      <stop offset="0.11372549019607843" stop-color="#5b5b5b"/>
      <stop offset="0.23529411764705882" stop-color="#92959e"/>
      <stop offset="0.3254901960784314" stop-color="#c2c2c2"/>
      <stop offset="0.4549019607843137" stop-color="#f4f4f4"/>
      <stop offset="0.5607843137254902" stop-color="#f4f4f4"/>
      <stop offset="0.6823529411764706" stop-color="#c2c2c2"/>
      <stop offset="0.7647058823529411" stop-color="#92959e"/>
      <stop offset="0.8823529411764706" stop-color="#5b5b5b"/>
      <stop offset="1.0" stop-color="#606060"/>
    </linearGradient>
    <radialGradient cx="0" cy="0" gradientTransform="matrix(0.0293, 0.0, 0.0, 0.0112, 0.0, -32.0)" gradientUnits="userSpaceOnUse" id="gradient17" r="819.2" spreadMethod="pad">
      <stop offset="0.20784313725490197" stop-color="#f4f4f4"/>
      <stop offset="0.34901960784313724" stop-color="#bfbfbf"/>
      <stop offset="0.47843137254901963" stop-color="#989ca7"/>
      <stop offset="0.7098039215686275" stop-color="#434343"/>
      <stop offset="0.8745098039215686" stop-color="#8a8a8a"/>
    </radialGradient>
    <radialGradient cx="0" cy="0" gradientTransform="matrix(0.0205, 0.0, 0.0, 0.0079, 0.0, 32.0)" gradientUnits="userSpaceOnUse" id="gradient18" r="819.2" spreadMethod="pad">
      <stop offset="0.08627450980392157" stop-color="#757575"/>
      <stop offset="0.5215686274509804" stop-color="#585858"/>
      <stop offset="0.9058823529411765" stop-color="#7d8f97"/>
    </radialGradient>
    <linearGradient gradientTransform="matrix(0.0, 0.0024, -0.001, 0.0, 0.0, -32.0)" gradientUnits="userSpaceOnUse" id="gradient19" spreadMethod="pad" x1="-819.2" x2="819.2">
      <stop offset="0.0" stop-color="#9f9f9f"/>
      <stop offset="0.0" stop-color="#555555"/>
      <stop offset="0.39215686274509803" stop-color="#a1a1a1"/>
      <stop offset="0.8" stop-color="#f4f4f4"/>
    </linearGradient>
    <linearGradient gradientTransform="matrix(0.0, 0.0024, -0.001, 0.0, 1.2, 32.0)" gradientUnits="userSpaceOnUse" id="gradient20" spreadMethod="pad" x1="-819.2" x2="819.2">
      <stop offset="0.0" stop-color="#9f9f9f"/>
      <stop offset="0.0" stop-color="#555555"/>
      <stop offset="0.38823529411764707" stop-color="#a1a1a1"/>
      <stop offset="0.8" stop-color="#f4f4f4"/>
    </linearGradient>
    <radialGradient cx="0" cy="0" gradientTransform="matrix(0.0, -0.059, 0.059, 0.0, 0.0, 0.0)" gradientUnits="userSpaceOnUse" id="gradient21" r="819.2" spreadMethod="pad">
      <stop offset="0.16862745098039217" stop-color="#66eaf4" stop-opacity="0.0"/>
      <stop offset="0.9450980392156862" stop-color="#66eaf4" stop-opacity="0.4862745"/>
      <stop offset="1.0" stop-color="#66eaf4" stop-opacity="0.62352943"/>
    </radialGradient>
  </defs>
</svg>
