<?xml version="1.0" encoding="UTF-8" standalone="no"?>
<svg xmlns:xlink="http://www.w3.org/1999/xlink" height="164.2px" width="29.7px" xmlns="http://www.w3.org/2000/svg">
  <g transform="matrix(1.0, 0.0, 0.0, 1.0, 14.85, 89.7)">
    <path d="M1.2 -88.55 L2.3 -86.95 7.2 -75.15 7.5 -74.0 8.5 9.8 8.9 14.2 Q9.15 17.0 10.3 19.6 L11.35 21.65 13.2 22.35 Q14.0 22.6 14.45 23.35 14.9 24.05 14.85 24.9 14.8 25.7 14.25 26.35 L12.5 28.3 Q12.45 30.8 11.55 32.95 L12.25 35.5 Q12.5 36.3 12.2 37.1 L11.15 38.3 Q10.4 38.75 9.6 38.65 L7.05 38.35 6.1 38.95 6.3 40.25 6.35 41.9 5.8 42.8 Q6.15 45.15 5.9 49.15 L5.9 49.2 4.6 63.3 5.6 63.45 Q6.4 63.6 6.55 63.9 L6.6 64.65 6.5 65.35 5.3 73.45 Q5.15 74.5 4.2 74.5 L0.0 74.5 -4.2 74.5 Q-5.15 74.5 -5.3 73.45 L-6.5 65.35 -6.6 64.65 -6.55 63.9 Q-6.4 63.6 -5.6 63.45 L-4.6 63.3 -5.9 49.2 -5.9 49.15 Q-6.15 45.15 -5.8 42.8 L-6.35 41.9 -6.3 40.25 -6.1 38.95 -7.05 38.35 -9.6 38.65 Q-10.4 38.75 -11.15 38.3 L-12.2 37.1 Q-12.5 36.3 -12.25 35.5 L-11.55 32.95 Q-12.45 30.8 -12.5 28.3 L-14.25 26.35 Q-14.8 25.7 -14.85 24.9 -14.9 24.05 -14.45 23.35 -14.0 22.6 -13.2 22.35 L-11.35 21.65 -10.3 19.6 Q-9.15 17.0 -8.9 14.2 L-8.5 9.8 -7.5 -74.0 -7.2 -75.15 -2.3 -86.95 -1.2 -88.55 0.0 -89.7 1.2 -88.55 M3.5 28.0 L3.45 27.45 Q1.9 25.95 0.0 25.4 -1.9 25.95 -3.45 27.45 L-3.5 28.0 Q-3.5 29.3 -2.7 30.25 -1.35 29.3 0.0 29.4 1.35 29.3 2.7 30.25 3.5 29.3 3.5 28.0" fill="#000000" fill-rule="evenodd" stroke="none"/>
    <path d="M2.0 64.0 L2.65 65.0 -2.65 65.0 -2.0 64.0 0.0 64.0 2.0 64.0" fill="url(#gradient0)" fill-rule="evenodd" stroke="none"/>
    <path d="M-3.0 42.0 L-3.0 41.0 3.0 41.0 3.0 42.0 0.0 42.0 -3.0 42.0" fill="url(#gradient1)" fill-rule="evenodd" stroke="none"/>
    <path d="M2.65 65.0 L4.0 65.0 3.0 72.0 0.0 72.0 -3.0 72.0 -4.0 65.0 -2.65 65.0 2.65 65.0" fill="url(#gradient2)" fill-rule="evenodd" stroke="none"/>
    <path d="M-3.0 42.0 L0.0 42.0 3.0 42.0 Q3.7 44.1 3.4 49.0 L2.0 64.0 0.0 64.0 -2.0 64.0 -3.4 49.0 Q-3.7 44.1 -3.0 42.0" fill="url(#gradient3)" fill-rule="evenodd" stroke="none"/>
    <path d="M2.2 62.0 L2.1 63.0 2.0 64.0 0.0 64.0 -2.0 64.0 -2.1 63.0 -2.15 62.0 2.2 62.0" fill="url(#gradient4)" fill-rule="evenodd" stroke="none"/>
    <path d="M4.0 41.0 L-4.0 41.0 -2.0 33.0 Q0.0 30.8 2.0 33.0 L4.0 41.0" fill="url(#gradient5)" fill-rule="evenodd" stroke="none"/>
    <path d="M1.45 37.6 Q0.9 38.65 0.0 38.65 -0.8 38.65 -1.4 37.6 -2.0 36.7 -2.0 35.3 -2.0 33.9 -1.4 32.95 -0.8 31.95 0.0 31.95 0.9 31.95 1.45 32.95 2.05 33.9 2.05 35.3 2.05 36.7 1.45 37.6" fill="url(#gradient6)" fill-rule="evenodd" stroke="none"/>
    <path d="M2.1 35.75 Q4.5 34.8 5.65 33.65 8.0 31.3 8.0 28.0 8.0 24.7 5.65 22.35 3.3 20.0 0.0 20.0 -3.3 20.0 -5.65 22.35 -8.0 24.7 -8.0 28.0 -8.0 31.3 -5.65 33.65 -4.5 34.8 -2.1 35.75 L-3.15 37.55 Q-5.3 36.8 -7.05 35.05 -10.0 32.15 -10.0 28.0 -10.0 23.85 -7.05 20.9 -4.15 18.0 0.0 18.0 4.15 18.0 7.05 20.9 10.0 23.85 10.0 28.0 10.0 32.15 7.05 35.05 5.3 36.8 3.15 37.55 L2.1 35.75" fill="url(#gradient7)" fill-rule="evenodd" stroke="none"/>
    <path d="M2.1 35.75 L2.15 33.65 4.25 32.25 Q6.0 30.5 6.0 28.0 6.0 25.5 4.25 23.75 2.5 22.0 0.0 22.0 -2.5 22.0 -4.25 23.75 -6.0 25.5 -6.0 28.0 -6.0 30.5 -4.25 32.25 L-2.15 33.65 -2.1 35.75 Q-4.5 34.8 -5.65 33.65 -8.0 31.3 -8.0 28.0 -8.0 24.7 -5.65 22.35 -3.3 20.0 0.0 20.0 3.3 20.0 5.65 22.35 8.0 24.7 8.0 28.0 8.0 31.3 5.65 33.65 4.5 34.8 2.1 35.75" fill="url(#gradient8)" fill-rule="evenodd" stroke="none"/>
    <path d="M-8.95 23.5 L-8.5 25.7 -10.0 27.35 -12.35 24.7 -8.95 23.5" fill="url(#gradient9)" fill-rule="evenodd" stroke="none"/>
    <path d="M8.95 23.5 L12.35 24.7 10.0 27.35 8.5 25.7 8.95 23.5" fill="url(#gradient10)" fill-rule="evenodd" stroke="none"/>
    <path d="M-8.85 32.65 L-6.8 33.55 -6.3 35.75 -9.85 36.15 -8.85 32.65" fill="url(#gradient11)" fill-rule="evenodd" stroke="none"/>
    <path d="M8.85 32.65 L9.85 36.15 6.3 35.75 6.8 33.55 8.85 32.65" fill="url(#gradient12)" fill-rule="evenodd" stroke="none"/>
    <path d="M4.0 67.0 L-4.0 67.0 -4.0 66.0 4.0 66.0 4.0 67.0" fill="#000000" fill-opacity="0.2" fill-rule="evenodd" stroke="none"/>
    <path d="M3.5 44.0 L3.5 45.0 -3.5 45.0 -3.5 44.0 3.5 44.0 M3.45 47.0 L3.4 47.5 3.4 48.0 -3.35 48.0 -3.4 47.5 -3.4 47.0 3.45 47.0 M3.0 53.0 L2.9 54.0 -2.85 54.0 -2.95 53.0 3.0 53.0 M3.25 50.0 L3.15 51.0 -3.15 51.0 -3.2 50.0 3.25 50.0 M2.35 60.0 L-2.35 60.0 -2.45 59.0 2.45 59.0 2.35 60.0 M2.7 56.0 L2.65 57.0 -2.6 57.0 -2.7 56.0 2.7 56.0" fill="#000000" fill-opacity="0.3019608" fill-rule="evenodd" stroke="none"/>
    <path d="M7.0 20.2 L8.4 21.6 4.85 25.15 3.45 23.75 7.0 20.2 M-7.0 20.2 L-3.45 23.75 -4.85 25.15 -8.4 21.6 -7.0 20.2" fill="#000000" fill-opacity="0.2509804" fill-rule="evenodd" stroke="none"/>
    <path d="M1.0 23.0 L-1.0 23.0 -1.0 13.0 1.0 13.0 1.0 23.0" fill="#000000" fill-rule="evenodd" stroke="none"/>
    <path d="M-6.15 22.9 L-8.25 20.75 -8.2 20.65 Q-7.0 19.3 -6.4 14.5 L-6.0 10.0 -5.0 -74.0 0.0 -74.0 0.0 13.3 Q-0.2 13.3 -0.6 14.05 L-1.0 15.0 -1.0 20.05 Q-3.65 20.35 -5.65 22.35 L-6.15 22.9" fill="url(#gradient13)" fill-rule="evenodd" stroke="none"/>
    <path d="M-1.0 20.05 L-1.0 23.1 Q-2.4 23.35 -3.5 24.45 L-4.0 25.0 -6.15 22.9 -5.65 22.35 Q-3.65 20.35 -1.0 20.05" fill="url(#gradient14)" fill-rule="evenodd" stroke="none"/>
    <path d="M1.0 20.05 L1.0 15.0 0.6 14.05 Q0.2 13.3 0.0 13.3 L0.0 -74.0 5.0 -74.0 6.0 10.0 6.4 14.5 Q7.0 19.3 8.2 20.65 L8.25 20.75 6.15 22.9 5.65 22.35 Q3.65 20.35 1.0 20.05" fill="url(#gradient15)" fill-rule="evenodd" stroke="none"/>
    <path d="M1.0 20.05 Q3.65 20.35 5.65 22.35 L6.15 22.9 4.0 25.0 3.5 24.45 Q2.4 23.35 1.0 23.1 L1.0 20.05" fill="url(#gradient16)" fill-rule="evenodd" stroke="none"/>
    <path d="M0.0 -86.0 L5.0 -74.0 0.0 -69.0 -5.0 -74.0 0.0 -86.0" fill="url(#gradient17)" fill-rule="evenodd" stroke="none"/>
  </g>
  <defs>
    <linearGradient gradientTransform="matrix(0.0024, 0.0, 0.0, 6.0E-4, 0.0, 64.5)" gradientUnits="userSpaceOnUse" id="gradient0" spreadMethod="pad" x1="-819.2" x2="819.2">
      <stop offset="0.0" stop-color="#323030"/>
      <stop offset="0.5176470588235295" stop-color="#676565"/>
      <stop offset="1.0" stop-color="#363434"/>
    </linearGradient>
    <linearGradient gradientTransform="matrix(0.004, 0.0, 0.0, 6.0E-4, 0.0, 39.5)" gradientUnits="userSpaceOnUse" id="gradient1" spreadMethod="pad" x1="-819.2" x2="819.2">
      <stop offset="0.0" stop-color="#323030"/>
      <stop offset="0.5176470588235295" stop-color="#676565"/>
      <stop offset="1.0" stop-color="#363434"/>
    </linearGradient>
    <linearGradient gradientTransform="matrix(0.0049, 0.0, 0.0, 0.0043, 0.0, 68.5)" gradientUnits="userSpaceOnUse" id="gradient2" spreadMethod="pad" x1="-819.2" x2="819.2">
      <stop offset="0.0" stop-color="#53492d"/>
      <stop offset="0.5098039215686274" stop-color="#9f8d57"/>
      <stop offset="1.0" stop-color="#53492d"/>
    </linearGradient>
    <linearGradient gradientTransform="matrix(-0.0044, 0.0, 0.0, 0.0159, 0.0, 51.0)" gradientUnits="userSpaceOnUse" id="gradient3" spreadMethod="pad" x1="-819.2" x2="819.2">
      <stop offset="0.0" stop-color="#340c0c"/>
      <stop offset="0.44313725490196076" stop-color="#923434"/>
      <stop offset="0.5725490196078431" stop-color="#963030"/>
      <stop offset="1.0" stop-color="#340c0c"/>
    </linearGradient>
    <linearGradient gradientTransform="matrix(-0.0024, 0.0, 0.0, 0.0159, 0.0, 51.0)" gradientUnits="userSpaceOnUse" id="gradient4" spreadMethod="pad" x1="-819.2" x2="819.2">
      <stop offset="0.0" stop-color="#3c3126"/>
      <stop offset="0.4666666666666667" stop-color="#8b8581"/>
      <stop offset="0.5647058823529412" stop-color="#8b8581"/>
      <stop offset="1.0" stop-color="#362d25"/>
    </linearGradient>
    <linearGradient gradientTransform="matrix(0.0049, 0.0, 0.0, 0.0056, 0.0, 36.45)" gradientUnits="userSpaceOnUse" id="gradient5" spreadMethod="pad" x1="-819.2" x2="819.2">
      <stop offset="0.0" stop-color="#5b4e2b"/>
      <stop offset="0.4549019607843137" stop-color="#998b61"/>
      <stop offset="0.5411764705882353" stop-color="#998b61"/>
      <stop offset="1.0" stop-color="#5b4e2b"/>
    </linearGradient>
    <radialGradient cx="0" cy="0" fx="492.8" fy="0" gradientTransform="matrix(0.0, -0.006, 0.0031, 0.0, 0.0, 36.7)" gradientUnits="userSpaceOnUse" id="gradient6" r="819.2" spreadMethod="pad">
      <stop offset="0.0" stop-color="#c1b284"/>
      <stop offset="0.5176470588235295" stop-color="#c0bebe" stop-opacity="0.0"/>
    </radialGradient>
    <linearGradient gradientTransform="matrix(-0.0061, 0.0106, -0.0106, -0.0061, 15.15, 36.6)" gradientUnits="userSpaceOnUse" id="gradient7" spreadMethod="pad" x1="-819.2" x2="819.2">
      <stop offset="0.0" stop-color="#d5c595"/>
      <stop offset="1.0" stop-color="#534624"/>
    </linearGradient>
    <radialGradient cx="0" cy="0" gradientTransform="matrix(0.0134, -0.0134, 0.0196, 0.0196, -4.6, 31.85)" gradientUnits="userSpaceOnUse" id="gradient8" r="819.2" spreadMethod="pad">
      <stop offset="0.07450980392156863" stop-color="#e2dab8"/>
      <stop offset="0.1411764705882353" stop-color="#c9af83"/>
      <stop offset="1.0" stop-color="#524625"/>
    </radialGradient>
    <linearGradient gradientTransform="matrix(-7.0E-4, 0.0024, 0.0024, 7.0E-4, -10.35, 25.15)" gradientUnits="userSpaceOnUse" id="gradient9" spreadMethod="pad" x1="-819.2" x2="819.2">
      <stop offset="0.0" stop-color="#8d7f56"/>
      <stop offset="0.49411764705882355" stop-color="#a48e68"/>
      <stop offset="0.5372549019607843" stop-color="#7e704a"/>
      <stop offset="1.0" stop-color="#554831"/>
    </linearGradient>
    <linearGradient gradientTransform="matrix(7.0E-4, 0.0024, -0.0024, 7.0E-4, 10.35, 25.15)" gradientUnits="userSpaceOnUse" id="gradient10" spreadMethod="pad" x1="-819.2" x2="819.2">
      <stop offset="0.0" stop-color="#c5b687"/>
      <stop offset="0.49411764705882355" stop-color="#bcad7f"/>
      <stop offset="0.5372549019607843" stop-color="#7d6f49"/>
      <stop offset="1.0" stop-color="#5e5136"/>
    </linearGradient>
    <linearGradient gradientTransform="matrix(0.0016, 0.002, 0.0019, -0.0016, -8.3, 34.75)" gradientUnits="userSpaceOnUse" id="gradient11" spreadMethod="pad" x1="-819.2" x2="819.2">
      <stop offset="0.0" stop-color="#59492d"/>
      <stop offset="0.49411764705882355" stop-color="#5f522f"/>
      <stop offset="0.5372549019607843" stop-color="#2c2314"/>
      <stop offset="1.0" stop-color="#493a21"/>
    </linearGradient>
    <linearGradient gradientTransform="matrix(-0.0016, 0.002, -0.0019, -0.0016, 8.3, 34.75)" gradientUnits="userSpaceOnUse" id="gradient12" spreadMethod="pad" x1="-819.2" x2="819.2">
      <stop offset="0.0" stop-color="#a49271"/>
      <stop offset="0.49411764705882355" stop-color="#8d7e56"/>
      <stop offset="0.5372549019607843" stop-color="#81734c"/>
      <stop offset="1.0" stop-color="#5e5037"/>
    </linearGradient>
    <linearGradient gradientTransform="matrix(-0.0305, -0.0306, -0.0367, 0.0365, -56.05, 25.75)" gradientUnits="userSpaceOnUse" id="gradient13" spreadMethod="pad" x1="-819.2" x2="819.2">
      <stop offset="0.0" stop-color="#404040"/>
      <stop offset="0.08235294117647059" stop-color="#202020"/>
      <stop offset="0.48627450980392156" stop-color="#2e2e2e"/>
      <stop offset="0.8156862745098039" stop-color="#151515"/>
      <stop offset="0.8470588235294118" stop-color="#202020"/>
    </linearGradient>
    <linearGradient gradientTransform="matrix(-0.0012, -0.0019, -0.0437, 0.0278, -36.05, 43.6)" gradientUnits="userSpaceOnUse" id="gradient14" spreadMethod="pad" x1="-819.2" x2="819.2">
      <stop offset="0.0" stop-color="#434343"/>
      <stop offset="1.0" stop-color="#353535"/>
    </linearGradient>
    <linearGradient gradientTransform="matrix(0.0218, -0.0508, 0.0475, 0.0204, 85.85, 9.1)" gradientUnits="userSpaceOnUse" id="gradient15" spreadMethod="pad" x1="-819.2" x2="819.2">
      <stop offset="0.07058823529411765" stop-color="#4a4a4a"/>
      <stop offset="0.1568627450980392" stop-color="#383838"/>
      <stop offset="0.6313725490196078" stop-color="#4e4e4e"/>
      <stop offset="1.0" stop-color="#434343"/>
    </linearGradient>
    <linearGradient gradientTransform="matrix(0.0012, -0.0019, 0.0437, 0.0278, 36.05, 43.6)" gradientUnits="userSpaceOnUse" id="gradient16" spreadMethod="pad" x1="-819.2" x2="819.2">
      <stop offset="0.0" stop-color="#404040"/>
      <stop offset="1.0" stop-color="#4a4a4a"/>
    </linearGradient>
    <linearGradient gradientTransform="matrix(-0.0076, 0.002, -0.0027, -0.01, -2.0, -78.0)" gradientUnits="userSpaceOnUse" id="gradient17" spreadMethod="pad" x1="-819.2" x2="819.2">
      <stop offset="0.0" stop-color="#606060"/>
      <stop offset="1.0" stop-color="#232323"/>
    </linearGradient>
  </defs>
</svg>
