<?xml version="1.0" encoding="UTF-8" standalone="no"?>
<svg xmlns:xlink="http://www.w3.org/1999/xlink" height="91.0px" width="88.5px" xmlns="http://www.w3.org/2000/svg">
  <g transform="matrix(1.0, 0.0, 0.0, 1.0, 42.5, 45.5)">
    <path d="M42.5 -19.45 L42.5 43.0 Q42.5 44.05 41.8 44.8 41.05 45.5 40.0 45.5 L-40.0 45.5 Q-41.05 45.5 -41.75 44.8 -42.5 44.05 -42.5 43.0 L-42.5 -43.0 Q-42.5 -44.05 -41.75 -44.75 -41.05 -45.5 -40.0 -45.5 L40.0 -45.5 Q41.05 -45.5 41.8 -44.75 42.5 -44.05 42.5 -43.0 L42.5 -34.25 Q45.85 -32.85 46.0 -29.25 L45.9 -28.3 43.9 -21.95 Q43.95 -20.25 42.5 -19.45" fill="#000000" fill-rule="evenodd" stroke="none"/>
    <path d="M40.0 43.0 L-40.0 43.0 -40.0 37.0 40.0 37.0 40.0 43.0" fill="url(#gradient0)" fill-rule="evenodd" stroke="none"/>
    <path d="M16.0 43.0 L8.0 43.0 8.0 37.0 16.0 37.0 16.0 43.0 M0.0 43.0 L-8.0 43.0 -8.0 37.0 0.0 37.0 0.0 43.0 M32.0 43.0 L24.0 43.0 24.0 37.0 32.0 37.0 32.0 43.0 M-40.0 37.0 L-32.0 37.0 -32.0 43.0 -40.0 43.0 -40.0 37.0 M-24.0 37.0 L-16.0 37.0 -16.0 43.0 -24.0 43.0 -24.0 37.0" fill="url(#gradient1)" fill-rule="evenodd" stroke="none"/>
    <path d="M30.0 37.0 L30.0 43.0 20.0 43.0 20.0 37.0 30.0 37.0" fill="#381d14" fill-rule="evenodd" stroke="none"/>
    <path d="M-40.0 -43.0 L40.0 -43.0 40.0 37.0 -40.0 37.0 -40.0 -43.0" fill="url(#gradient2)" fill-rule="evenodd" stroke="none"/>
    <path d="M24.0 -27.0 L24.0 -35.0 32.0 -35.0 32.0 -27.0 24.0 -27.0 24.0 -19.0 32.0 -19.0 32.0 -27.0 40.0 -27.0 40.0 -19.0 32.0 -19.0 32.0 -11.0 40.0 -11.0 40.0 -3.0 32.0 -3.0 32.0 5.0 40.0 5.0 40.0 13.0 32.0 13.0 32.0 21.0 40.0 21.0 40.0 29.0 32.0 29.0 32.0 37.0 24.0 37.0 24.0 29.0 16.0 29.0 16.0 37.0 8.0 37.0 8.0 29.0 0.0 29.0 0.0 37.0 -8.0 37.0 -8.0 29.0 -16.0 29.0 -16.0 37.0 -24.0 37.0 -24.0 29.0 -32.0 29.0 -32.0 37.0 -40.0 37.0 -40.0 29.0 -32.0 29.0 -32.0 21.0 -40.0 21.0 -40.0 13.0 -32.0 13.0 -32.0 5.0 -40.0 5.0 -40.0 -3.0 -32.0 -3.0 -32.0 -11.0 -40.0 -11.0 -40.0 -19.0 -32.0 -19.0 -32.0 -27.0 -40.0 -27.0 -40.0 -35.0 -32.0 -35.0 -32.0 -43.0 -24.0 -43.0 -24.0 -35.0 -16.0 -35.0 -16.0 -43.0 -8.0 -43.0 -8.0 -35.0 0.0 -35.0 0.0 -43.0 8.0 -43.0 8.0 -35.0 16.0 -35.0 16.0 -43.0 24.0 -43.0 24.0 -35.0 16.0 -35.0 16.0 -27.0 24.0 -27.0 M32.0 -43.0 L40.0 -43.0 40.0 -35.0 32.0 -35.0 32.0 -43.0 M8.0 -3.0 L0.0 -3.0 0.0 -11.0 8.0 -11.0 8.0 -3.0 16.0 -3.0 16.0 -11.0 8.0 -11.0 8.0 -19.0 16.0 -19.0 16.0 -11.0 24.0 -11.0 24.0 -3.0 16.0 -3.0 16.0 5.0 24.0 5.0 24.0 13.0 16.0 13.0 16.0 21.0 8.0 21.0 8.0 13.0 0.0 13.0 0.0 21.0 -8.0 21.0 -8.0 13.0 -16.0 13.0 -16.0 21.0 -24.0 21.0 -24.0 13.0 -16.0 13.0 -16.0 5.0 -24.0 5.0 -24.0 -3.0 -16.0 -3.0 -16.0 -11.0 -24.0 -11.0 -24.0 -19.0 -16.0 -19.0 -16.0 -27.0 -8.0 -27.0 -8.0 -19.0 0.0 -19.0 0.0 -11.0 -8.0 -11.0 -8.0 -3.0 0.0 -3.0 0.0 5.0 8.0 5.0 8.0 -3.0 M0.0 -27.0 L8.0 -27.0 8.0 -19.0 0.0 -19.0 0.0 -27.0 -8.0 -27.0 -8.0 -35.0 -16.0 -35.0 -16.0 -27.0 -24.0 -27.0 -24.0 -35.0 -32.0 -35.0 -32.0 -27.0 -24.0 -27.0 -24.0 -19.0 -32.0 -19.0 -32.0 -11.0 -24.0 -11.0 -24.0 -3.0 -32.0 -3.0 -32.0 5.0 -24.0 5.0 -24.0 13.0 -32.0 13.0 -32.0 21.0 -24.0 21.0 -24.0 29.0 -16.0 29.0 -16.0 21.0 -8.0 21.0 -8.0 29.0 0.0 29.0 0.0 21.0 8.0 21.0 8.0 29.0 16.0 29.0 16.0 21.0 24.0 21.0 24.0 29.0 32.0 29.0 32.0 21.0 24.0 21.0 24.0 13.0 32.0 13.0 32.0 5.0 24.0 5.0 24.0 -3.0 32.0 -3.0 32.0 -11.0 24.0 -11.0 24.0 -19.0 16.0 -19.0 16.0 -27.0 8.0 -27.0 8.0 -35.0 0.0 -35.0 0.0 -27.0 M-8.0 -11.0 L-8.0 -19.0 -16.0 -19.0 -16.0 -11.0 -8.0 -11.0 M0.0 5.0 L-8.0 5.0 -8.0 -3.0 -16.0 -3.0 -16.0 5.0 -8.0 5.0 -8.0 13.0 0.0 13.0 0.0 5.0 M16.0 13.0 L16.0 5.0 8.0 5.0 8.0 13.0 16.0 13.0" fill="url(#gradient3)" fill-rule="evenodd" stroke="none"/>
    <path d="M40.0 -23.0 L-40.0 -23.0 -40.0 -33.0 40.0 -33.0 40.0 -23.0" fill="url(#gradient4)" fill-rule="evenodd" stroke="none"/>
    <path d="M30.0 -43.0 L30.0 37.0 20.0 37.0 20.0 -43.0 30.0 -43.0" fill="url(#gradient5)" fill-rule="evenodd" stroke="none"/>
    <path d="M35.1 -25.2 L31.65 -25.4 Q34.25 -24.15 36.75 -23.7 L39.2 -23.6 Q37.65 -24.75 35.1 -25.2 M24.0 -29.65 L24.05 -29.7 25.05 -29.95 26.35 -29.75 Q26.9 -29.65 27.25 -29.2 L27.3 -29.15 Q31.25 -31.4 36.75 -31.15 43.2 -30.95 43.5 -27.05 L41.4 -20.3 Q41.3 -18.75 36.15 -19.8 L33.0 -20.6 Q35.2 -15.0 39.55 -8.45 38.5 -8.95 36.8 -10.15 L34.05 -12.35 33.45 -8.45 Q30.75 -11.7 28.45 -16.4 L25.35 -23.85 24.25 -24.0 18.95 -17.9 Q15.35 -14.1 11.75 -11.85 L12.35 -15.75 Q11.15 -15.2 9.1 -14.55 L5.95 -13.75 Q12.1 -18.7 15.95 -23.25 L12.65 -23.5 Q7.5 -24.05 7.8 -25.6 L7.9 -32.65 Q9.4 -36.25 15.65 -34.45 21.0 -32.95 24.0 -29.65 M15.3 -28.3 L10.95 -28.05 13.35 -27.4 Q15.9 -27.0 18.8 -27.45 17.15 -28.1 15.3 -28.3" fill="#000000" fill-opacity="0.2" fill-rule="evenodd" stroke="none"/>
  </g>
  <defs>
    <linearGradient gradientTransform="matrix(0.0, -0.0037, 0.0037, 0.0, 0.0, 40.0)" gradientUnits="userSpaceOnUse" id="gradient0" spreadMethod="pad" x1="-819.2" x2="819.2">
      <stop offset="0.0" stop-color="#6c5b28"/>
      <stop offset="1.0" stop-color="#857032"/>
    </linearGradient>
    <linearGradient gradientTransform="matrix(0.0, -0.0037, 0.0037, 0.0, 0.0, 40.0)" gradientUnits="userSpaceOnUse" id="gradient1" spreadMethod="pad" x1="-819.2" x2="819.2">
      <stop offset="0.0" stop-color="#594a1e"/>
      <stop offset="1.0" stop-color="#705c25"/>
    </linearGradient>
    <linearGradient gradientTransform="matrix(0.0, 0.0488, -0.0488, 0.0, 0.0, -3.0)" gradientUnits="userSpaceOnUse" id="gradient2" spreadMethod="pad" x1="-819.2" x2="819.2">
      <stop offset="0.0" stop-color="#8f7730"/>
      <stop offset="1.0" stop-color="#b9a362"/>
    </linearGradient>
    <linearGradient gradientTransform="matrix(0.0, 0.0488, -0.0488, 0.0, 0.0, -3.0)" gradientUnits="userSpaceOnUse" id="gradient3" spreadMethod="pad" x1="-819.2" x2="819.2">
      <stop offset="0.0" stop-color="#a38a3a"/>
      <stop offset="1.0" stop-color="#c1a858"/>
    </linearGradient>
    <linearGradient gradientTransform="matrix(-0.0488, -7.0E-4, 1.0E-4, -0.0061, 0.0, -28.0)" gradientUnits="userSpaceOnUse" id="gradient4" spreadMethod="pad" x1="-819.2" x2="819.2">
      <stop offset="0.00784313725490196" stop-color="#562e21"/>
      <stop offset="0.9176470588235294" stop-color="#331d13"/>
      <stop offset="1.0" stop-color="#3e2117"/>
    </linearGradient>
    <linearGradient gradientTransform="matrix(0.0, -0.0491, 0.0488, 0.0, 25.0, -3.0)" gradientUnits="userSpaceOnUse" id="gradient5" spreadMethod="pad" x1="-819.2" x2="819.2">
      <stop offset="0.0" stop-color="#673525"/>
      <stop offset="0.8313725490196079" stop-color="#331d13"/>
      <stop offset="1.0" stop-color="#522c1f"/>
    </linearGradient>
  </defs>
</svg>
