<?xml version="1.0" encoding="UTF-8" standalone="no"?>
<svg xmlns:xlink="http://www.w3.org/1999/xlink" height="20.0px" width="22.0px" xmlns="http://www.w3.org/2000/svg">
  <g transform="matrix(1.0, 0.0, 0.0, 1.0, 11.0, 10.0)">
    <path d="M10.5 -5.5 L10.5 5.5 Q10.5 6.0 9.75 6.75 9.0 7.5 8.5 7.5 L1.7 7.5 0.5 9.5 -0.5 9.5 -1.7 7.5 -8.5 7.5 Q-9.0 7.5 -9.75 6.75 -10.5 6.0 -10.5 5.5 L-10.5 -5.5 Q-10.5 -6.0 -9.75 -6.75 -9.0 -7.5 -8.5 -7.5 L-1.7 -7.5 -0.5 -9.5 0.5 -9.5 1.7 -7.5 8.5 -7.5 Q9.0 -7.5 9.75 -6.75 10.5 -6.0 10.5 -5.5 M-5.5 -3.5 Q-6.0 -3.5 -6.75 -2.75 -7.5 -2.0 -7.5 -1.5 L-7.5 1.5 Q-7.5 2.0 -6.75 2.75 -6.0 3.5 -5.5 3.5 L-1.7 3.5 -0.5 1.5 0.5 1.5 1.7 3.5 5.5 3.5 Q6.0 3.5 6.75 2.75 7.5 2.0 7.5 1.5 L7.5 -1.5 Q7.5 -2.0 6.75 -2.75 6.0 -3.5 5.5 -3.5 L1.7 -3.5 0.5 -1.5 -0.5 -1.5 -1.7 -3.5 -5.5 -3.5 M-5.75 -5.5 L-8.5 -5.5 -9.5 -4.5 -9.5 -2.55 -9.5 -4.5 -8.5 -5.5 -5.75 -5.5 -0.5 -5.5 -0.5 -6.5 -0.5 -5.5 -5.75 -5.5 M-9.5 4.5 L-9.5 -2.55 -9.5 4.5 M8.5 2.5 L6.5 4.5 -4.5 4.5 6.5 4.5 8.5 2.5 M7.5 -5.5 L-0.5 -5.5 7.5 -5.5" fill="#333333" fill-rule="evenodd" stroke="none"/>
    <path d="M10.5 -5.5 Q10.5 -6.0 9.75 -6.75 9.0 -7.5 8.5 -7.5 L1.7 -7.5 0.5 -9.5 -0.5 -9.5 -1.7 -7.5 -8.5 -7.5 Q-9.0 -7.5 -9.75 -6.75 -10.5 -6.0 -10.5 -5.5 L-10.5 5.5 Q-10.5 6.0 -9.75 6.75 -9.0 7.5 -8.5 7.5 L-1.7 7.5 -0.5 9.5 0.5 9.5 1.7 7.5 8.5 7.5 Q9.0 7.5 9.75 6.75 10.5 6.0 10.5 5.5 L10.5 -5.5 M-5.5 -3.5 Q-6.0 -3.5 -6.75 -2.75 -7.5 -2.0 -7.5 -1.5 L-7.5 1.5 Q-7.5 2.0 -6.75 2.75 -6.0 3.5 -5.5 3.5 L-1.7 3.5 -0.5 1.5 0.5 1.5 1.7 3.5 5.5 3.5 Q6.0 3.5 6.75 2.75 7.5 2.0 7.5 1.5 L7.5 -1.5 Q7.5 -2.0 6.75 -2.75 6.0 -3.5 5.5 -3.5 L1.7 -3.5 0.5 -1.5 -0.5 -1.5 -1.7 -3.5 -5.5 -3.5" fill="none" stroke="#000000" stroke-linecap="round" stroke-linejoin="round" stroke-width="1.0"/>
    <path d="M-9.5 -2.55 L-9.5 -4.5 -8.5 -5.5 -5.75 -5.5" fill="none" stroke="#838383" stroke-linecap="round" stroke-linejoin="round" stroke-width="1.0"/>
    <path d="M-5.75 -5.5 L-0.5 -5.5 -0.5 -6.5 M-0.5 -5.5 L7.5 -5.5 M-4.5 4.5 L6.5 4.5 8.5 2.5 M-9.5 -2.55 L-9.5 4.5" fill="none" stroke="#515151" stroke-linecap="round" stroke-linejoin="round" stroke-width="1.0"/>
  </g>
</svg>
