<?xml version="1.0" encoding="UTF-8" standalone="no"?>
<svg xmlns:xlink="http://www.w3.org/1999/xlink" height="10.0px" width="22.0px" xmlns="http://www.w3.org/2000/svg">
  <g transform="matrix(1.0, 0.0, 0.0, 1.0, 11.0, 5.0)">
    <path d="M1.5 -2.5 L8.5 -2.5 Q9.0 -2.5 9.75 -1.75 10.5 -1.0 10.5 -0.5 L10.5 0.5 Q10.5 1.0 9.75 1.75 9.0 2.5 8.5 2.5 L1.7 2.5 0.5 4.5 -0.5 4.5 -1.7 2.5 -8.5 2.5 Q-9.0 2.5 -9.75 1.75 -10.5 1.0 -10.5 0.5 L-10.5 -0.5 Q-10.5 -1.0 -9.75 -1.75 -9.0 -2.5 -8.5 -2.5 L-1.5 -2.5 -0.5 -4.5 0.5 -4.5 1.5 -2.5 M-8.0 -0.5 L-9.5 -0.5 -8.0 -0.5 -4.25 -0.5 -8.0 -0.5 M8.5 -0.5 L-0.5 -0.5 -4.25 -0.5 -0.5 -0.5 -0.5 -1.5 -0.5 -0.5 8.5 -0.5" fill="#333333" fill-rule="evenodd" stroke="none"/>
    <path d="M1.5 -2.5 L8.5 -2.5 Q9.0 -2.5 9.75 -1.75 10.5 -1.0 10.5 -0.5 L10.5 0.5 Q10.5 1.0 9.75 1.75 9.0 2.5 8.5 2.5 L1.7 2.5 0.5 4.5 -0.5 4.5 -1.7 2.5 -8.5 2.5 Q-9.0 2.5 -9.75 1.75 -10.5 1.0 -10.5 0.5 L-10.5 -0.5 Q-10.5 -1.0 -9.75 -1.75 -9.0 -2.5 -8.5 -2.5 L-1.5 -2.5 -0.5 -4.5 0.5 -4.5 1.5 -2.5" fill="none" stroke="#000000" stroke-linecap="round" stroke-linejoin="round" stroke-width="1.0"/>
    <path d="M-9.5 -0.5 L-8.0 -0.5 M-4.25 -0.5 L-0.5 -0.5 -0.5 -1.5 M-0.5 -0.5 L8.5 -0.5" fill="none" stroke="#515151" stroke-linecap="round" stroke-linejoin="round" stroke-width="1.0"/>
    <path d="M-8.0 -0.5 L-4.25 -0.5" fill="none" stroke="#838383" stroke-linecap="round" stroke-linejoin="round" stroke-width="1.0"/>
  </g>
</svg>
