<?xml version="1.0" encoding="UTF-8" standalone="no"?>
<svg xmlns:xlink="http://www.w3.org/1999/xlink" height="28.9px" width="69.4px" xmlns="http://www.w3.org/2000/svg">
  <g transform="matrix(1.0, 0.0, 0.0, 1.0, 19.9, 5.0)">
    <path d="M12.6 -1.6 L12.6 -2.6 14.6 -2.6 14.6 6.4 12.6 6.4 12.6 1.4 12.6 -1.6 M-14.4 -2.6 L-12.4 -2.6 -12.4 6.4 -14.4 6.4 -14.4 -2.6" fill="#6a6a46" fill-rule="evenodd" stroke="none"/>
    <path d="M14.6 -2.6 L14.6 -3.6 17.6 -3.6 17.6 -1.5 17.6 1.4 17.6 1.5 17.6 22.4 Q17.6 23.25 16.85 23.4 L16.6 23.4 -16.4 23.4 -16.65 23.4 Q-17.4 23.25 -17.4 22.4 L-17.4 9.7 -17.4 2.4 -17.4 -2.6 -17.4 -3.6 -14.4 -3.6 -14.4 -2.6 -14.4 6.4 -12.4 6.4 12.6 6.4 14.6 6.4 14.6 -2.6 M6.9 11.4 L8.1 11.4 8.6 11.35 9.15 11.1 9.6 10.4 Q9.6 10.0 9.15 9.7 L8.6 9.45 8.1 9.4 3.3 9.45 Q1.85 8.5 0.05 8.5 -1.75 8.5 -3.2 9.45 L-8.0 9.4 -8.5 9.45 -9.05 9.7 -9.5 10.4 -9.05 11.1 -8.5 11.35 -8.0 11.4 -6.8 11.4 -7.75 11.7 Q-8.2 11.95 -8.2 12.4 -8.2 12.9 -7.75 13.1 L-6.5 13.4 -5.85 13.4 -5.95 14.5 Q-5.95 17.0 -4.2 18.75 -2.45 20.5 0.05 20.5 2.55 20.5 4.3 18.75 6.05 17.0 6.05 14.5 L5.95 13.4 6.6 13.4 7.85 13.1 Q8.3 12.9 8.3 12.4 8.3 11.95 7.85 11.7 L6.9 11.4" fill="#333333" fill-rule="evenodd" stroke="none"/>
    <path d="M12.6 1.4 L7.3 1.4 Q6.3 1.4 6.3 0.4 L6.3 -0.6 Q6.3 -1.6 7.3 -1.6 L12.6 -1.6 12.6 1.4 M17.6 -1.5 L42.0 -1.5 42.0 -2.5 44.0 -2.5 44.0 -4.5 45.0 -4.5 49.0 -0.5 49.0 0.5 45.0 4.5 44.0 4.5 44.0 2.5 42.0 2.5 42.0 1.5 19.6 1.5 19.6 19.4 20.6 19.4 20.6 21.4 19.6 21.4 19.6 23.4 16.85 23.4 Q17.6 23.25 17.6 22.4 L17.6 1.5 17.6 1.4 17.6 -1.5 M-17.4 2.4 L-19.4 2.4 -19.4 -2.6 -17.4 -2.6 -17.4 2.4 M17.6 1.5 L19.6 1.5 17.6 1.5 M44.0 1.5 L45.0 1.5 44.0 1.5 44.0 2.5 44.0 1.5 44.0 -1.5 44.0 1.5 M45.0 -1.5 L44.0 -1.5 44.0 -2.5 44.0 -1.5 45.0 -1.5" fill="#666666" fill-rule="evenodd" stroke="none"/>
    <path d="M1.25 11.65 Q0.75 11.15 0.05 11.15 -0.65 11.15 -1.15 11.65 -1.65 12.15 -1.65 12.85 -1.65 13.55 -1.15 14.05 L-0.65 14.4 -0.65 17.15 -0.45 17.65 0.05 17.85 0.55 17.65 0.8 17.15 0.8 14.4 1.25 14.05 Q1.75 13.55 1.75 12.85 1.75 12.15 1.25 11.65 M-6.8 11.4 L-8.0 11.4 -8.5 11.35 -9.05 11.1 -9.5 10.4 -9.05 9.7 -8.5 9.45 -8.0 9.4 -3.2 9.45 Q-1.75 8.5 0.05 8.5 1.85 8.5 3.3 9.45 L8.1 9.4 8.6 9.45 9.15 9.7 Q9.6 10.0 9.6 10.4 L9.15 11.1 8.6 11.35 8.1 11.4 6.9 11.4 6.6 11.4 5.25 11.45 6.6 11.4 6.9 11.4 7.85 11.7 Q8.3 11.95 8.3 12.4 8.3 12.9 7.85 13.1 L6.6 13.4 5.95 13.4 6.05 14.5 Q6.05 17.0 4.3 18.75 2.55 20.5 0.05 20.5 -2.45 20.5 -4.2 18.75 -5.95 17.0 -5.95 14.5 L-5.85 13.4 -6.5 13.4 -7.75 13.1 Q-8.2 12.9 -8.2 12.4 -8.2 11.95 -7.75 11.7 L-6.8 11.4 -5.15 11.4 -6.8 11.4" fill="#abab94" fill-rule="evenodd" stroke="none"/>
    <path d="M1.25 11.65 Q1.75 12.15 1.75 12.85 1.75 13.55 1.25 14.05 L0.8 14.4 0.8 17.15 0.55 17.65 0.05 17.85 -0.45 17.65 -0.65 17.15 -0.65 14.4 -1.15 14.05 Q-1.65 13.55 -1.65 12.85 -1.65 12.15 -1.15 11.65 -0.65 11.15 0.05 11.15 0.75 11.15 1.25 11.65" fill="#000000" fill-rule="evenodd" stroke="none"/>
    <path d="M12.6 1.4 L7.3 1.4 Q6.3 1.4 6.3 0.4 L6.3 -0.6 Q6.3 -1.6 7.3 -1.6 L12.6 -1.6 12.6 -2.6 14.6 -2.6 14.6 -3.6 17.6 -3.6 17.6 -1.5 42.0 -1.5 42.0 -2.5 44.0 -2.5 44.0 -4.5 45.0 -4.5 49.0 -0.5 49.0 0.5 45.0 4.5 44.0 4.5 44.0 2.5 42.0 2.5 42.0 1.5 19.6 1.5 19.6 19.4 20.6 19.4 20.6 21.4 19.6 21.4 19.6 23.4 16.85 23.4 16.6 23.4 -16.4 23.4 -16.65 23.4 Q-17.4 23.25 -17.4 22.4 L-17.4 9.7 -17.4 2.4 -19.4 2.4 -19.4 -2.6 -17.4 -2.6 -17.4 -3.6 -14.4 -3.6 -14.4 -2.6 -12.4 -2.6 -12.4 6.4 12.6 6.4 12.6 1.4 12.6 -1.6 M44.0 -2.5 L44.0 -1.5 45.0 -1.5 M44.0 2.5 L44.0 1.5 44.0 -1.5 M45.0 1.5 L44.0 1.5 M19.6 1.5 L17.6 1.5 17.6 22.4 Q17.6 23.25 16.85 23.4 M12.6 6.4 L14.6 6.4 14.6 -2.6 M17.6 -1.5 L17.6 1.4 17.6 1.5 M-14.4 -2.6 L-14.4 6.4 -12.4 6.4 M-17.4 2.4 L-17.4 -2.6" fill="none" stroke="#1c1c1c" stroke-linecap="round" stroke-linejoin="round" stroke-width="1.0"/>
    <path d="M1.25 11.65 Q1.75 12.15 1.75 12.85 1.75 13.55 1.25 14.05 L0.8 14.4 0.8 17.15 0.55 17.65 0.05 17.85 -0.45 17.65 -0.65 17.15 -0.65 14.4 -1.15 14.05 Q-1.65 13.55 -1.65 12.85 -1.65 12.15 -1.15 11.65 -0.65 11.15 0.05 11.15 0.75 11.15 1.25 11.65" fill="none" stroke="#000000" stroke-linecap="round" stroke-linejoin="round" stroke-width="1.0"/>
    <path d="M6.9 11.4 L8.1 11.4 8.6 11.35 9.15 11.1 9.6 10.4 Q9.6 10.0 9.15 9.7 L8.6 9.45 8.1 9.4 3.3 9.45 Q1.85 8.5 0.05 8.5 -1.75 8.5 -3.2 9.45 L-8.0 9.4 -8.5 9.45 -9.05 9.7 -9.5 10.4 -9.05 11.1 -8.5 11.35 -8.0 11.4 -6.8 11.4 -7.75 11.7 Q-8.2 11.95 -8.2 12.4 -8.2 12.9 -7.75 13.1 L-6.5 13.4 -5.85 13.4 -5.95 14.5 Q-5.95 17.0 -4.2 18.75 -2.45 20.5 0.05 20.5 2.55 20.5 4.3 18.75 6.05 17.0 6.05 14.5 L5.95 13.4 6.6 13.4 7.85 13.1 Q8.3 12.9 8.3 12.4 8.3 11.95 7.85 11.7 L6.9 11.4" fill="none" stroke="#68634f" stroke-linecap="round" stroke-linejoin="round" stroke-width="1.0"/>
    <path d="M-6.8 11.4 L-5.15 11.4 M6.9 11.4 L6.6 11.4 5.25 11.45" fill="none" stroke="#878069" stroke-linecap="round" stroke-linejoin="round" stroke-width="1.0"/>
    <path d="M8.5 -0.6 L11.6 -0.6 M28.25 -0.5 L43.0 -0.5 M18.6 -0.5 L20.7 -0.5 M45.65 -0.5 L48.0 -0.5 M-18.6 -0.6 L-18.3 -0.6" fill="none" stroke="#999999" stroke-linecap="round" stroke-linejoin="round" stroke-width="1.0"/>
    <path d="M7.35 -0.6 L8.5 -0.6 M20.7 -0.5 L28.25 -0.5 M44.95 -0.5 L45.65 -0.5" fill="none" stroke="#cccccc" stroke-linecap="round" stroke-linejoin="round" stroke-width="1.0"/>
    <path d="M13.6 -0.6 L13.6 -0.35 M-13.4 -0.6 L-13.4 -0.35" fill="none" stroke="#cccc99" stroke-linecap="round" stroke-linejoin="round" stroke-width="1.0"/>
    <path d="M7.6 22.4 L6.6 22.4 5.6 22.4 M6.6 22.4 L6.6 21.4 M8.6 22.4 L9.6 22.4 9.6 21.4 M16.6 14.4 L16.6 15.4 16.6 18.4 16.6 19.4 16.6 22.4 13.6 22.4 12.6 22.4 9.6 22.4 M16.6 13.4 L16.6 12.4 15.6 12.4 M15.6 15.4 L16.6 15.4 M16.6 18.4 L15.6 18.4 15.6 19.4 16.6 19.4 M13.6 17.4 L14.6 17.4 14.6 16.4 M14.6 17.4 L14.6 19.4 13.6 20.4 11.6 20.4 10.6 20.4 M13.6 20.4 L13.6 19.4 14.6 19.4 M11.6 19.4 L11.6 20.4 M13.6 22.4 L13.6 21.4 12.6 21.4 12.6 22.4 M16.6 12.4 L16.6 11.4 M-14.4 16.4 L-14.4 17.4 -13.4 17.4 M-15.4 15.4 L-16.4 15.4 -16.4 18.4 -15.4 18.4 -15.4 19.4 -16.4 19.4 -16.4 22.4 -13.4 22.4 -13.4 21.4 -12.4 21.4 -12.4 22.4 -9.4 22.4 -9.4 21.4 M-15.4 12.4 L-16.4 12.4 -16.4 13.4 M-16.4 14.4 L-16.4 15.4 M-11.4 19.4 L-11.4 20.4 -10.4 20.4 M-14.4 19.4 L-13.4 20.4 -13.4 19.4 -14.4 19.4 -14.4 17.4 M-13.4 22.4 L-12.4 22.4 M-11.4 20.4 L-13.4 20.4 M-16.4 18.4 L-16.4 19.4 M-5.4 22.4 L-6.4 22.4 -7.4 22.4 M-6.4 22.4 L-6.4 21.4 M-9.4 22.4 L-8.4 22.4 M-16.4 11.4 L-16.4 12.4" fill="none" stroke="#878069" stroke-linecap="round" stroke-linejoin="round" stroke-width="1.0"/>
  </g>
</svg>
