<?xml version="1.0" encoding="UTF-8" standalone="no"?>
<svg xmlns:xlink="http://www.w3.org/1999/xlink" height="115.35px" width="115.35px" xmlns="http://www.w3.org/2000/svg">
  <g transform="matrix(1.0, 0.0, 0.0, 1.0, 49.65, 65.65)">
    <path d="M57.5 -15.2 Q57.5 -35.7 43.0 -50.15 28.55 -64.65 8.05 -64.65 -12.45 -64.65 -26.95 -50.15 -41.4 -35.7 -41.4 -15.2 -41.4 5.3 -26.95 19.75 -12.45 34.25 8.05 34.25 28.55 34.25 43.0 19.75 57.5 5.3 57.5 -15.2 M65.7 -8.0 Q65.7 15.9 48.85 32.8 31.95 49.7 8.05 49.7 -15.85 49.7 -32.75 32.8 -49.65 15.9 -49.65 -8.0 -49.65 -31.9 -32.75 -48.8 -15.85 -65.65 8.05 -65.65 31.95 -65.65 48.85 -48.8 65.7 -31.9 65.7 -8.0" fill="url(#gradient0)" fill-rule="evenodd" stroke="none"/>
  </g>
  <defs>
    <radialGradient cx="0" cy="0" fx="-1411.2" fy="0" gradientTransform="matrix(0.0, 0.0721, -0.0735, 0.0, 8.05, -8.0)" gradientUnits="userSpaceOnUse" id="gradient0" r="819.2" spreadMethod="pad">
      <stop offset="0.8784313725490196" stop-color="#d0fbfb" stop-opacity="0.0"/>
      <stop offset="1.0" stop-color="#ffffff"/>
    </radialGradient>
  </defs>
</svg>
