<?xml version="1.0" encoding="UTF-8" standalone="no"?>
<svg xmlns:xlink="http://www.w3.org/1999/xlink" height="210.0px" width="210.0px" xmlns="http://www.w3.org/2000/svg">
  <g transform="matrix(1.0, 0.0, 0.0, 1.0, 105.0, 105.0)">
    <path d="M6.85 -58.75 L7.35 -45.65 Q21.85 -43.55 32.65 -32.7 43.55 -21.85 45.7 -7.3 L58.75 -6.8 71.55 -6.3 94.15 -3.4 Q105.0 -1.65 105.0 0.0 105.0 1.65 94.15 3.4 L71.55 6.3 58.75 6.85 45.7 7.35 Q43.55 21.85 32.65 32.65 21.85 43.55 7.35 45.7 L6.85 58.75 6.3 71.55 Q4.55 87.2 3.4 94.15 1.65 105.0 0.0 105.0 -1.65 105.0 -3.4 94.15 -4.55 87.2 -6.3 71.55 L-6.8 58.75 -7.3 45.7 Q-21.85 43.55 -32.7 32.65 -43.55 21.85 -45.65 7.35 L-58.75 6.85 -71.55 6.3 -94.15 3.4 Q-105.0 1.65 -105.0 0.0 -105.0 -1.65 -94.15 -3.4 L-71.55 -6.3 -58.75 -6.8 -45.65 -7.3 Q-43.55 -21.85 -32.7 -32.7 -21.85 -43.55 -7.3 -45.65 L-6.8 -58.75 -6.3 -71.55 Q-4.55 -87.2 -3.4 -94.15 -1.65 -105.0 0.0 -105.0 1.65 -105.0 3.4 -94.15 4.55 -87.2 6.3 -71.55 L6.85 -58.75" fill="url(#gradient0)" fill-rule="evenodd" stroke="none"/>
  </g>
  <defs>
    <radialGradient cx="0" cy="0" gradientTransform="matrix(0.1328, 0.0, 0.0, 0.1328, 0.0, 0.0)" gradientUnits="userSpaceOnUse" id="gradient0" r="819.2" spreadMethod="pad">
      <stop offset="0.1843137254901961" stop-color="#ffffff"/>
      <stop offset="0.4627450980392157" stop-color="#fbee84"/>
      <stop offset="1.0" stop-color="#f9c731"/>
    </radialGradient>
  </defs>
</svg>
