<?xml version="1.0" encoding="UTF-8" standalone="no"?>
<svg xmlns:xlink="http://www.w3.org/1999/xlink" height="193.5px" width="193.5px" xmlns="http://www.w3.org/2000/svg">
  <g transform="matrix(1.0, 0.0, 0.0, 1.0, 96.75, 96.75)">
    <path d="M0.15 -96.75 Q1.75 -96.35 3.4 -87.0 4.55 -80.5 6.15 -66.45 L6.15 -66.35 6.75 -54.75 6.85 -52.5 Q8.0 -45.65 8.95 -44.1 21.85 -41.8 31.6 -32.1 L31.9 -31.85 Q41.8 -21.9 44.15 -8.8 45.65 -7.85 52.8 -6.8 L54.7 -6.7 66.1 -6.15 66.45 -6.15 87.0 -3.4 Q96.55 -1.75 96.75 -0.05 L96.75 0.05 Q96.75 1.7 87.0 3.4 L66.7 6.15 66.35 6.15 54.75 6.75 52.7 6.85 Q45.7 8.0 44.15 8.95 41.75 21.9 32.05 31.7 L31.8 31.9 Q21.95 41.8 8.85 44.15 7.95 45.7 6.85 52.8 L6.75 54.7 Q6.45 63.3 6.15 66.1 L6.15 66.5 Q4.55 80.55 3.4 87.05 1.75 96.25 0.15 96.7 L0.0 96.75 Q-1.7 96.7 -3.4 86.95 -4.55 80.5 -6.15 66.7 L-6.15 66.35 -6.7 54.75 -6.8 52.85 Q-7.95 45.65 -8.9 44.15 -21.85 41.8 -31.65 32.05 L-31.95 31.8 Q-41.8 21.9 -44.1 8.85 -45.65 7.9 -52.55 6.85 L-54.7 6.75 -66.0 6.2 -66.5 6.15 -87.05 3.4 Q-96.15 1.8 -96.7 0.2 L-96.75 0.0 Q-96.75 -1.7 -87.0 -3.4 L-66.55 -6.15 -66.35 -6.15 -54.7 -6.7 -52.7 -6.8 Q-45.55 -7.95 -44.05 -8.9 -41.8 -21.8 -32.2 -31.6 L-31.85 -31.95 Q-21.9 -41.8 -8.8 -44.1 -7.85 -45.6 -6.8 -52.75 L-6.7 -54.65 -6.15 -66.25 -6.15 -66.4 Q-4.55 -80.45 -3.4 -86.95 -1.7 -96.75 0.0 -96.75 L0.15 -96.75" fill="url(#gradient0)" fill-rule="evenodd" stroke="none"/>
  </g>
  <defs>
    <radialGradient cx="0" cy="0" gradientTransform="matrix(0.1219, 0.0, 0.0, 0.1219, 0.0, 0.0)" gradientUnits="userSpaceOnUse" id="gradient0" r="819.2" spreadMethod="pad">
      <stop offset="0.1843137254901961" stop-color="#ffffff"/>
      <stop offset="0.4627450980392157" stop-color="#fbee84"/>
      <stop offset="1.0" stop-color="#f9c731"/>
    </radialGradient>
  </defs>
</svg>
