<?xml version="1.0" encoding="UTF-8" standalone="no"?>
<svg xmlns:xlink="http://www.w3.org/1999/xlink" height="100.95px" width="136.95px" xmlns="http://www.w3.org/2000/svg">
  <g transform="matrix(1.0, 0.0, 0.0, 1.0, -46.9, -68.15)">
    <path d="M77.75 132.5 L75.75 134.0 47.25 114.0 84.75 68.5 116.25 82.5 87.75 119.5 77.75 132.5" fill="#c6c6c6" fill-rule="evenodd" stroke="none"/>
    <path d="M77.75 132.5 L87.75 119.5 103.25 127.25 105.5 168.75 79.5 153.25 77.75 132.5 M163.5 112.5 L149.75 149.5 148.75 149.0 138.5 134.5 151.25 99.75 163.5 112.5" fill="#979797" fill-rule="evenodd" stroke="none"/>
    <path d="M183.5 107.25 L178.25 140.0 165.0 127.5 169.75 96.5 183.5 107.25" fill="#8e8e8e" fill-rule="evenodd" stroke="none"/>
    <path d="M165.0 127.5 L169.75 96.5 183.5 107.25 178.25 140.0 165.0 127.5 M84.75 68.5 L47.25 114.0 75.75 134.0 77.75 132.5 87.75 119.5 116.25 82.5 84.75 68.5 M77.75 132.5 L79.5 153.25 105.5 168.75 103.25 127.25 87.75 119.5 M151.25 99.75 L163.5 112.5 149.75 149.5 148.75 149.0 138.5 134.5 151.25 99.75" fill="none" stroke="#ffcc00" stroke-linecap="round" stroke-linejoin="round" stroke-width="0.7000000000000001"/>
  </g>
</svg>
