<?xml version="1.0" encoding="UTF-8" standalone="no"?>
<svg xmlns:xlink="http://www.w3.org/1999/xlink" height="76.7px" width="92.95px" xmlns="http://www.w3.org/2000/svg">
  <g transform="matrix(1.0, 0.0, 0.0, 1.0, -102.15, -82.15)">
    <path d="M117.5 134.75 L102.5 122.0 128.25 82.5 151.5 95.75 135.75 120.0 123.25 139.25 117.5 134.75" fill="#c4c4c4" fill-rule="evenodd" stroke="none"/>
    <path d="M135.75 120.0 L137.75 121.25 136.0 158.5 117.5 144.25 Q116.5 143.25 117.5 134.75 L123.25 139.25 135.75 120.0" fill="#9e9e9e" fill-rule="evenodd" stroke="none"/>
    <path d="M194.75 114.5 L182.25 145.75 171.0 133.0 182.5 103.75 183.25 103.5 194.75 114.5" fill="#959595" fill-rule="evenodd" stroke="none"/>
    <path d="M171.0 133.0 L182.5 103.75 183.25 103.5 194.75 114.5 182.25 145.75 171.0 133.0 M151.5 95.75 L135.75 120.0 137.75 121.25 136.0 158.5 117.5 144.25 Q116.5 143.25 117.5 134.75 L102.5 122.0 128.25 82.5 151.5 95.75 M135.75 120.0 L123.25 139.25 117.5 134.75" fill="none" stroke="#ffcc00" stroke-linecap="round" stroke-linejoin="round" stroke-width="0.7000000000000001"/>
  </g>
</svg>
