<?xml version="1.0" encoding="UTF-8" standalone="no"?>
<svg xmlns:xlink="http://www.w3.org/1999/xlink" height="123.05px" width="469.2px" xmlns="http://www.w3.org/2000/svg">
  <g transform="matrix(1.0, 0.0, 0.0, 1.0, -66.5, -618.35)">
    <path d="M430.85 647.95 L444.8 644.45 Q469.7 638.6 481.05 637.75 L483.5 639.35 487.5 641.95 511.6 637.3 524.55 634.9 524.7 634.85 Q531.25 670.75 534.0 694.1 L535.2 704.9 481.05 707.15 Q470.35 707.5 448.5 707.65 L436.3 707.85 Q436.2 694.75 433.65 671.45 L430.8 647.95 430.85 647.95" fill="#000000" fill-rule="evenodd" stroke="none"/>
    <path d="M524.55 634.9 L511.6 637.3 487.5 641.95 483.5 639.35 481.05 637.75 Q469.7 638.6 444.8 644.45 L430.85 647.95 430.75 647.6 433.45 640.25 Q446.85 637.7 483.3 629.0 L525.9 618.85 525.3 625.95 524.6 634.3 524.55 634.9" fill="#72603f" fill-rule="evenodd" stroke="none"/>
    <path d="M430.85 647.95 L444.8 644.45 Q469.7 638.6 481.05 637.75 L483.5 639.35 487.5 641.95 511.6 637.3 524.55 634.9 524.6 634.3 525.3 625.95 525.9 618.85 483.3 629.0 Q446.85 637.7 433.45 640.25 L430.75 647.6 430.6 648.0 430.8 647.95 430.75 647.6 M430.85 647.95 L430.8 647.95 433.65 671.45 Q436.2 694.75 436.3 707.85 L448.5 707.65 Q470.35 707.5 481.05 707.15 L535.2 704.9 534.0 694.1 Q531.25 670.75 524.7 634.85 L524.55 634.9 M524.6 634.3 L524.7 634.85" fill="none" stroke="#000000" stroke-linecap="round" stroke-linejoin="round" stroke-width="1.0"/>
    <path d="M234.5 651.55 Q234.4 671.3 233.8 687.05 233.35 698.95 232.8 705.15 L69.0 704.65 Q69.1 695.45 70.5 685.6 L70.5 673.3 76.05 671.1 Q76.3 666.3 78.5 649.0 L80.35 633.95 124.65 641.35 Q150.4 645.45 161.25 647.75 L162.3 651.85 Q179.55 655.75 229.0 665.5 L233.15 655.0 234.5 651.55" fill="#000000" fill-rule="evenodd" stroke="none"/>
    <path d="M80.4 633.65 L89.3 629.85 93.4 628.2 135.7 631.9 168.95 635.05 170.4 635.25 195.9 641.7 226.0 649.1 234.5 650.7 234.5 651.55 233.15 655.0 229.0 665.5 Q179.55 655.75 162.3 651.85 L161.25 647.75 Q150.4 645.45 124.65 641.35 L80.35 633.95 80.4 633.65" fill="#72603f" fill-rule="evenodd" stroke="none"/>
    <path d="M80.4 633.65 L89.3 629.85 93.4 628.2 135.7 631.9 168.95 635.05 169.45 635.0 170.4 635.25 195.9 641.7 226.0 649.1 234.5 650.7 234.85 650.75 234.5 651.55 Q234.4 671.3 233.8 687.05 233.35 698.95 232.8 705.15 L236.55 705.15 M234.5 651.55 L233.15 655.0 229.0 665.5 Q179.55 655.75 162.3 651.85 L161.25 647.75 Q150.4 645.45 124.65 641.35 L80.35 633.95 78.5 649.0 Q76.3 666.3 76.05 671.1 L70.5 673.3 70.5 685.6 Q69.1 695.45 69.0 704.65 L232.8 705.15 232.5 707.6 M80.4 633.65 L80.35 633.95 79.9 633.9 80.4 633.65 M67.0 704.65 L69.0 704.65 69.0 705.1 69.0 706.1 M168.95 635.05 L170.4 635.25 M234.5 650.7 L234.5 651.55" fill="none" stroke="#000000" stroke-linecap="round" stroke-linejoin="round" stroke-width="1.0"/>
    <path d="M218.65 718.35 Q218.35 711.8 218.5 689.85 L218.65 654.2 Q225.55 651.8 240.35 649.2 L242.2 648.85 240.75 636.1 Q267.9 632.3 317.65 628.7 387.85 623.55 411.0 628.15 L411.25 632.85 411.3 634.2 Q417.75 633.85 427.2 633.9 L445.35 634.45 Q452.5 706.9 452.55 719.65 452.6 723.5 451.75 727.95 451.0 732.25 450.85 739.55 L218.65 718.35" fill="#000000" fill-rule="evenodd" stroke="none"/>
    <path d="M218.65 718.35 Q218.35 711.8 218.5 689.85 L218.65 654.2 Q225.55 651.8 240.35 649.2 L242.2 648.85 240.75 636.1 Q267.9 632.3 317.65 628.7 387.85 623.55 411.0 628.15 L411.25 632.85 411.3 634.2 Q417.75 633.85 427.2 633.9 L445.35 634.45 Q452.5 706.9 452.55 719.65 452.6 723.5 451.75 727.95 451.0 732.25 450.85 739.55 L460.95 740.45 M218.75 720.35 L218.7 719.35 218.65 718.35 214.5 717.95 M450.85 739.55 L450.8 740.9 M450.85 739.55 L218.65 718.35 Z" fill="none" stroke="#000000" stroke-linecap="round" stroke-linejoin="round" stroke-width="1.0"/>
  </g>
</svg>
