<?xml version="1.0" encoding="UTF-8" standalone="no"?>
<svg xmlns:xlink="http://www.w3.org/1999/xlink" height="106.0px" width="407.0px" xmlns="http://www.w3.org/2000/svg">
  <g transform="matrix(1.0, 0.0, 0.0, 1.0, 3.0, 15.0)">
    <path d="M56.0 -12.0 L56.0 -3.0 401.0 -3.0 Q404.0 -3.0 404.0 0.0 L404.0 88.0 Q404.0 91.0 401.0 91.0 L0.0 91.0 Q-3.0 91.0 -3.0 88.0 L-3.0 -12.0 Q-3.0 -15.0 0.0 -15.0 L53.0 -15.0 Q56.0 -15.0 56.0 -12.0 M399.0 1.0 L2.0 1.0 Q1.0 1.0 1.0 2.0 L1.0 86.0 Q1.0 87.0 2.0 87.0 L399.0 87.0 Q400.0 87.0 400.0 86.0 L400.0 2.0 Q400.0 1.0 399.0 1.0" fill="#000000" fill-rule="evenodd" stroke="none"/>
    <path d="M55.0 -12.0 L55.0 -2.0 401.0 -2.0 Q403.0 -2.0 403.0 0.0 L403.0 88.0 Q403.0 90.0 401.0 90.0 L0.0 90.0 Q-2.0 90.0 -2.0 88.0 L-2.0 -12.0 Q-2.0 -14.0 0.0 -14.0 L53.0 -14.0 Q55.0 -14.0 55.0 -12.0 M399.0 0.0 L2.0 0.0 Q0.0 0.0 0.0 2.0 L0.0 86.0 Q0.0 88.0 2.0 88.0 L399.0 88.0 Q401.0 88.0 401.0 86.0 L401.0 2.0 Q401.0 0.0 399.0 0.0" fill="#00ff00" fill-rule="evenodd" stroke="none"/>
  </g>
</svg>
