<?xml version="1.0" encoding="UTF-8" standalone="no"?>
<svg xmlns:xlink="http://www.w3.org/1999/xlink" height="120.9px" width="123.35px" xmlns="http://www.w3.org/2000/svg">
  <g transform="matrix(1.0, 0.0, 0.0, 1.0, 61.25, 61.4)">
    <path d="M34.35 -23.55 L41.35 -23.55 41.35 -17.5 34.35 -17.5 34.35 -23.55 M7.85 18.65 L12.7 18.65 12.7 22.35 7.85 22.35 7.85 18.65 M-5.75 21.1 L-5.75 25.3 -9.95 25.3 -9.95 21.1 -5.75 21.1" fill="#000000" fill-rule="evenodd" stroke="none"/>
    <path d="M42.15 -51.8 Q42.4 -48.0 42.75 -45.85 L42.8 -45.8 Q43.1 -44.65 43.95 -43.8 L44.0 -43.75 41.05 -37.55 38.5 -42.95 Q35.65 -47.8 33.35 -48.45 32.9 -47.4 33.2 -45.5 33.45 -43.4 34.5 -40.85 36.1 -36.85 37.4 -34.85 37.95 -34.0 38.85 -33.4 L38.3 -32.45 Q37.95 -34.1 36.8 -35.7 34.4 -39.05 30.4 -39.75 L27.9 -39.65 26.95 -39.2 26.9 -39.15 26.45 -38.8 26.4 -38.8 Q26.15 -38.8 25.45 -39.1 24.4 -39.6 24.0 -39.5 22.4 -39.6 22.0 -37.45 L22.05 -37.2 22.55 -35.9 22.55 -35.25 Q22.4 -34.6 21.7 -34.3 20.9 -34.1 20.2 -33.15 L19.75 -32.1 19.8 -31.25 19.85 -31.2 Q20.15 -30.1 20.85 -29.55 21.4 -29.0 21.35 -28.3 L21.1 -27.75 20.25 -26.7 20.1 -26.45 Q19.75 -24.4 21.25 -23.85 L22.7 -23.75 22.75 -23.75 23.75 -23.75 24.1 -23.25 24.05 -23.25 Q24.5 -22.5 24.9 -22.35 L27.05 -21.45 Q26.05 -17.1 25.85 -14.5 L25.85 -14.45 Q25.85 -13.9 26.0 -13.4 L23.0 -9.4 22.85 -10.5 Q22.45 -13.25 20.05 -18.55 17.2 -24.65 15.05 -25.45 L14.7 -25.45 14.4 -25.2 Q13.3 -23.05 15.25 -16.9 L12.85 -17.0 12.8 -17.0 11.8 -16.55 11.75 -16.55 11.3 -16.25 Q11.0 -16.25 10.35 -16.6 L8.95 -17.15 Q7.35 -17.35 6.85 -15.3 L6.85 -15.05 7.2 -13.75 7.15 -13.05 7.2 -13.1 Q7.0 -12.4 6.15 -12.2 L6.1 -12.2 Q5.45 -11.95 4.6 -11.15 L4.55 -11.1 4.1 -10.35 4.05 -10.2 Q4.0 -9.6 4.1 -9.25 L4.05 -9.3 Q4.25 -8.05 4.9 -7.5 L4.9 -7.45 Q5.5 -6.9 5.35 -6.25 L5.05 -5.75 5.05 -5.7 4.6 -5.3 Q3.4 -6.8 2.5 -7.15 L2.15 -7.15 1.85 -6.9 Q0.75 -4.65 2.85 1.75 4.25 6.35 5.55 9.0 L5.6 9.0 6.3 10.05 4.25 12.1 Q3.8 10.1 2.35 8.2 -0.3 4.95 -4.25 4.5 L-5.2 4.5 Q-5.95 3.1 -6.5 2.65 L-6.9 2.5 Q-7.15 2.5 -7.2 2.7 -8.05 3.65 -8.35 5.7 L-9.2 5.4 -9.25 5.4 Q-10.3 4.95 -10.65 5.1 -12.3 5.2 -12.5 7.25 L-12.45 7.5 -11.9 8.8 Q-11.8 9.15 -11.85 9.45 -12.0 10.05 -12.65 10.35 L-12.7 10.35 Q-13.5 10.75 -14.05 11.7 L-14.1 11.75 -14.4 12.5 -14.45 12.7 -14.35 13.55 -14.3 13.6 Q-13.9 14.8 -13.3 15.2 -12.65 15.7 -12.65 16.35 L-12.85 16.9 -12.85 16.95 -12.9 17.0 -13.7 18.15 -13.8 18.35 Q-13.95 19.75 -13.3 20.4 L-14.5 27.3 -14.5 27.35 -14.35 28.45 -17.0 30.4 Q-16.9 29.65 -17.15 28.45 -17.55 25.7 -19.95 20.4 -22.8 14.3 -24.95 13.5 L-25.3 13.5 -25.6 13.75 Q-26.7 16.0 -24.6 22.4 -23.2 27.0 -21.9 29.65 L-21.85 29.65 Q-21.2 30.85 -19.9 31.7 L-19.3 32.0 -27.35 37.15 Q-27.3 34.55 -28.05 29.9 L-28.05 29.85 Q-29.45 22.1 -31.45 21.75 -33.45 22.55 -33.1 30.6 -32.85 35.55 -32.3 38.25 L-31.8 39.6 -37.4 42.35 Q-37.25 41.5 -37.55 40.05 L-37.55 40.0 Q-37.9 37.25 -40.35 32.05 -43.1 25.95 -45.3 25.1 L-45.65 25.1 -45.95 25.35 Q-47.05 27.55 -44.95 34.05 -43.5 38.65 -42.25 41.25 L-42.2 41.25 Q-41.5 42.45 -40.3 43.25 L-39.95 43.45 Q-48.7 47.1 -58.05 49.0 L-58.3 49.15 -58.4 49.4 Q-60.05 55.3 -54.2 57.0 L-53.9 57.0 Q-43.2 54.3 -32.55 49.25 L-30.8 50.3 Q-28.4 51.7 -22.75 52.75 -16.15 53.95 -14.2 52.75 L-13.95 52.45 -14.0 52.05 Q-15.2 49.85 -21.6 47.75 L-26.75 46.25 Q-21.35 43.3 -16.55 40.05 L-15.6 40.45 Q-13.3 41.3 -9.35 41.85 L-9.3 41.85 Q-9.1 42.15 -8.15 42.3 L-7.65 42.4 -7.6 42.45 -7.2 43.4 Q-6.95 44.55 -6.6 44.75 -5.65 45.95 -3.85 44.9 L-3.65 44.75 -2.95 43.6 -2.45 43.1 -1.2 43.2 0.75 43.55 0.8 43.55 1.6 43.35 1.8 43.25 2.4 42.6 2.45 42.6 Q3.05 41.65 3.05 40.75 3.05 39.95 3.55 39.6 L4.25 39.4 5.65 39.35 5.85 39.3 6.3 39.0 Q9.0 39.55 10.2 39.0 L10.45 38.75 10.5 38.4 Q9.85 36.45 5.8 34.15 L5.95 33.05 5.15 30.7 5.15 30.65 Q3.45 27.75 0.5 26.55 L2.9 24.3 10.2 25.5 14.9 25.65 15.25 26.35 Q16.15 27.7 18.0 26.8 L18.2 26.65 19.1 25.45 19.55 25.05 Q20.15 24.85 20.8 25.35 L20.85 25.4 22.65 25.85 22.75 25.85 23.55 25.7 23.75 25.6 24.35 25.15 24.45 25.05 Q25.1 24.1 25.2 23.3 25.25 22.55 25.95 22.15 L25.9 22.15 26.5 22.05 27.95 22.15 28.2 22.1 Q30.1 21.2 29.6 19.7 29.6 19.3 28.85 18.45 L28.35 17.65 28.35 17.55 28.55 17.0 28.55 17.05 28.85 15.9 28.25 13.4 27.95 12.8 Q33.2 14.5 35.2 13.65 L35.45 13.4 35.5 13.05 Q34.6 10.7 28.65 7.6 24.25 5.35 21.55 4.45 L20.95 4.3 25.3 -1.35 25.65 -1.2 28.45 -1.1 Q30.85 -1.5 34.15 -2.85 L34.9 -2.35 34.95 -2.35 Q35.85 -1.9 37.3 -1.55 L38.5 -1.75 38.5 -1.7 39.05 -1.9 39.85 -1.25 39.85 -1.3 40.95 -0.4 Q42.4 0.3 43.55 -1.65 L43.6 -1.85 43.65 -3.25 43.85 -3.95 Q44.2 -4.45 45.0 -4.45 45.9 -4.45 46.85 -5.05 L46.85 -5.1 47.5 -5.7 47.6 -5.9 47.8 -6.7 47.8 -6.75 Q47.85 -7.95 47.45 -8.7 47.05 -9.4 47.35 -9.95 L47.8 -10.45 49.0 -11.15 49.15 -11.35 Q50.2 -13.15 49.0 -14.1 L47.65 -14.7 Q46.85 -14.95 46.7 -15.1 L46.65 -15.15 46.55 -15.65 46.15 -16.75 46.1 -16.8 44.2 -18.45 44.2 -18.4 41.85 -19.45 49.4 -20.15 Q55.95 -21.35 57.4 -23.25 L57.5 -23.6 57.35 -23.9 Q55.4 -25.6 48.7 -25.25 L40.95 -24.45 40.95 -24.4 40.2 -24.15 42.65 -28.75 44.3 -29.1 44.25 -29.1 Q46.45 -29.75 50.55 -32.3 55.85 -35.8 55.65 -37.55 L52.95 -37.75 Q50.85 -37.35 48.3 -36.05 L45.6 -34.7 47.5 -38.95 47.7 -38.95 Q48.3 -38.8 49.9 -39.5 52.0 -40.35 55.45 -43.2 59.4 -46.6 59.6 -48.9 L56.85 -48.6 Q54.95 -48.0 52.85 -46.55 50.65 -45.2 48.75 -43.65 48.15 -45.0 46.75 -45.15 L46.85 -45.7 46.85 -45.75 Q47.1 -48.1 46.4 -52.4 L46.4 -52.45 Q45.45 -57.45 43.55 -58.9 41.85 -57.1 42.15 -51.8 M7.35 -1.5 L7.4 -1.5 7.6 -0.95 Q7.95 -0.15 8.4 0.0 9.7 0.9 10.55 1.1 L12.65 1.45 12.75 2.25 12.8 2.3 12.95 2.85 10.0 6.15 Q9.25 3.55 7.5 -0.25 L6.85 -1.6 7.35 -1.5 M30.35 -8.4 L30.35 -8.35 Q30.45 -7.8 30.7 -7.3 L29.15 -6.7 30.35 -8.4" fill="none" stroke="#000000" stroke-linecap="round" stroke-linejoin="round" stroke-width="5.0"/>
    <path d="M-9.45 12.1 Q-8.15 13.85 -8.7 20.25 -9.2 25.8 -10.25 28.45 -10.9 30.2 -11.55 30.6 L-12.2 31.05 Q-12.85 30.75 -13.35 29.85 -13.95 28.7 -14.0 27.35 -13.75 24.55 -12.7 19.8 -11.4 13.45 -9.45 12.1 M10.0 38.55 Q8.05 39.35 1.95 37.15 -3.25 35.25 -5.6 33.55 -7.05 32.45 -7.3 31.75 L-7.6 30.95 Q-7.1 30.4 -6.15 30.2 -4.8 29.9 -3.5 30.2 -0.85 31.15 3.45 33.4 9.2 36.3 10.0 38.55 M10.7 21.0 Q17.05 22.3 18.4 24.25 16.65 25.55 10.25 25.0 4.7 24.5 2.05 23.45 0.3 22.8 -0.1 22.15 L-0.55 21.5 Q-0.25 20.85 0.65 20.35 1.8 19.75 3.15 19.7 L10.7 21.0 M50.25 -32.75 Q46.35 -30.25 44.1 -29.6 42.6 -29.1 42.0 -29.35 L41.35 -29.55 Q41.25 -30.15 41.55 -30.9 42.0 -31.9 42.9 -32.6 44.85 -33.9 48.5 -35.6 53.3 -38.0 55.2 -37.35 54.7 -35.65 50.25 -32.75 M12.55 -5.5 Q12.15 -11.95 13.7 -13.75 15.4 -12.4 16.6 -6.1 17.5 -0.6 17.2 2.25 17.0 4.1 16.5 4.65 L16.0 5.3 Q15.25 5.15 14.55 4.4 13.65 3.45 13.25 2.15 12.8 -0.6 12.55 -5.5 M30.35 -30.6 Q29.95 -37.05 31.5 -38.85 33.2 -37.5 34.4 -31.2 35.3 -25.7 35.0 -22.85 34.8 -21.0 34.3 -20.45 L33.8 -19.85 Q33.05 -19.95 32.35 -20.7 31.45 -21.65 31.05 -22.95 30.6 -25.7 30.35 -30.6" fill="#236923" fill-rule="evenodd" stroke="none"/>
    <path d="M30.35 -30.6 Q30.6 -25.7 31.05 -22.95 31.45 -21.65 32.35 -20.7 33.05 -19.95 33.8 -19.85 L34.3 -20.45 Q34.8 -21.0 35.0 -22.85 35.3 -25.7 34.4 -31.2 33.2 -37.5 31.5 -38.85 29.95 -37.05 30.35 -30.6 M12.55 -5.5 Q12.8 -0.6 13.25 2.15 13.65 3.45 14.55 4.4 15.25 5.15 16.0 5.3 L16.5 4.65 Q17.0 4.1 17.2 2.25 17.5 -0.6 16.6 -6.1 15.4 -12.4 13.7 -13.75 12.15 -11.95 12.55 -5.5 M50.25 -32.75 Q54.7 -35.65 55.2 -37.35 53.3 -38.0 48.5 -35.6 44.85 -33.9 42.9 -32.6 42.0 -31.9 41.55 -30.9 41.25 -30.15 41.35 -29.55 L42.0 -29.35 Q42.6 -29.1 44.1 -29.6 46.35 -30.25 50.25 -32.75 M10.7 21.0 L3.15 19.7 Q1.8 19.75 0.65 20.35 -0.25 20.85 -0.55 21.5 L-0.1 22.15 Q0.3 22.8 2.05 23.45 4.7 24.5 10.25 25.0 16.65 25.55 18.4 24.25 17.05 22.3 10.7 21.0 M10.0 38.55 Q9.2 36.3 3.45 33.4 -0.85 31.15 -3.5 30.2 -4.8 29.9 -6.15 30.2 -7.1 30.4 -7.6 30.95 L-7.3 31.75 Q-7.05 32.45 -5.6 33.55 -3.25 35.25 1.95 37.15 8.05 39.35 10.0 38.55 M-9.45 12.1 Q-11.4 13.45 -12.7 19.8 -13.75 24.55 -14.0 27.35 -13.95 28.7 -13.35 29.85 -12.85 30.75 -12.2 31.05 L-11.55 30.6 Q-10.9 30.2 -10.25 28.45 -9.2 25.8 -8.7 20.25 -8.15 13.85 -9.45 12.1" fill="none" stroke="#254b25" stroke-linecap="round" stroke-linejoin="round" stroke-width="1.0"/>
    <path d="M36.85 -19.0 Q40.6 -19.95 43.95 -18.0 L45.75 -16.45 46.05 -15.6 46.3 -14.8 Q46.55 -14.5 47.5 -14.25 L48.6 -13.8 Q49.55 -13.05 48.7 -11.6 L47.5 -10.85 46.9 -10.25 Q46.5 -9.35 47.0 -8.45 47.35 -7.85 47.3 -6.8 L47.1 -6.05 46.55 -5.5 Q45.7 -4.95 45.0 -4.95 43.95 -4.95 43.4 -4.15 L43.15 -3.35 43.1 -1.9 Q42.25 -0.45 41.15 -0.9 40.95 -0.9 40.2 -1.65 L39.15 -2.4 38.3 -2.2 37.45 -2.05 35.15 -2.8 Q31.8 -4.75 30.8 -8.5 29.95 -11.55 31.2 -14.4 L31.45 -15.1 31.95 -15.7 Q33.75 -18.15 36.85 -19.0" fill="url(#gradient0)" fill-rule="evenodd" stroke="none"/>
    <path d="M3.9 14.05 L3.9 14.85 3.7 15.55 Q3.05 18.5 0.55 20.5 -2.6 22.85 -6.4 22.4 L-8.7 21.7 -9.25 21.05 -9.8 20.35 -11.1 20.35 -12.3 20.4 Q-13.5 20.1 -13.3 18.4 L-12.45 17.2 -12.15 16.4 Q-12.1 15.5 -13.0 14.8 -13.55 14.4 -13.85 13.45 L-13.95 12.65 -13.65 11.95 Q-13.15 11.1 -12.5 10.8 -11.5 10.4 -11.35 9.5 L-11.45 8.6 -12.0 7.3 Q-11.8 5.6 -10.5 5.6 L-9.4 5.85 -8.1 6.15 -7.35 5.65 -6.7 5.2 -4.3 5.0 Q-0.5 5.45 1.95 8.5 3.95 11.0 3.9 14.05" fill="url(#gradient1)" fill-rule="evenodd" stroke="none"/>
    <path d="M36.85 -19.0 Q40.6 -19.95 43.95 -18.0 L45.75 -16.45 46.05 -15.6 46.3 -14.8 Q46.55 -14.5 47.5 -14.25 L48.6 -13.8 Q49.55 -13.05 48.7 -11.6 L47.5 -10.85 46.9 -10.25 Q46.5 -9.35 47.0 -8.45 47.35 -7.85 47.3 -6.8 L47.1 -6.05 46.55 -5.5 Q45.7 -4.95 45.0 -4.95 43.95 -4.95 43.4 -4.15 L43.15 -3.35 43.1 -1.9 Q42.25 -0.45 41.15 -0.9 40.95 -0.9 40.2 -1.65 L39.15 -2.4 38.3 -2.2 37.45 -2.05 35.15 -2.8 Q31.8 -4.75 30.8 -8.5 29.95 -11.55 31.2 -14.4 L31.45 -15.1 31.95 -15.7 Q33.75 -18.15 36.85 -19.0 M3.9 14.05 L3.9 14.85 3.7 15.55 Q3.05 18.5 0.55 20.5 -2.6 22.85 -6.4 22.4 L-8.7 21.7 -9.25 21.05 -9.8 20.35 -11.1 20.35 -12.3 20.4 Q-13.5 20.1 -13.3 18.4 L-12.45 17.2 -12.15 16.4 Q-12.1 15.5 -13.0 14.8 -13.55 14.4 -13.85 13.45 L-13.95 12.65 -13.65 11.95 Q-13.15 11.1 -12.5 10.8 -11.5 10.4 -11.35 9.5 L-11.45 8.6 -12.0 7.3 Q-11.8 5.6 -10.5 5.6 L-9.4 5.85 -8.1 6.15 -7.35 5.65 -6.7 5.2 -4.3 5.0 Q-0.5 5.45 1.95 8.5 3.95 11.0 3.9 14.05" fill="none" stroke="#cac4dd" stroke-linecap="round" stroke-linejoin="round" stroke-width="1.0"/>
    <path d="M48.45 -42.75 Q42.4 -27.0 30.25 -9.2 17.9 8.9 3.45 23.0 -11.05 37.15 -27.5 46.05 -40.65 53.2 -54.05 56.5 -59.45 54.95 -57.95 49.5 -44.9 46.85 -32.85 40.7 -17.95 33.15 -2.75 19.4 12.25 5.9 25.3 -11.65 38.15 -29.0 44.85 -44.5 47.95 -45.4 48.45 -42.75" fill="#cc9966" fill-rule="evenodd" stroke="none"/>
    <path d="M48.45 -42.75 Q42.4 -27.0 30.25 -9.2 17.9 8.9 3.45 23.0 -11.05 37.15 -27.5 46.05 -40.65 53.2 -54.05 56.5 -59.45 54.95 -57.95 49.5 -44.9 46.85 -32.85 40.7 -17.95 33.15 -2.75 19.4 12.25 5.9 25.3 -11.65 38.15 -29.0 44.85 -44.5 47.95 -45.4 48.45 -42.75 Z" fill="none" stroke="#996633" stroke-linecap="round" stroke-linejoin="round" stroke-width="1.0"/>
    <path d="M24.1 -39.0 L25.2 -38.65 Q26.05 -38.25 26.45 -38.3 L27.2 -38.8 Q27.7 -39.15 27.95 -39.15 L30.3 -39.25 Q34.1 -38.6 36.4 -35.4 38.2 -32.8 38.05 -29.75 L38.0 -29.0 37.75 -28.25 Q36.9 -25.3 34.3 -23.5 31.1 -21.3 27.3 -21.95 26.45 -22.1 25.05 -22.85 24.8 -22.95 24.5 -23.5 L23.95 -24.2 22.7 -24.25 21.5 -24.3 Q20.3 -24.7 20.6 -26.4 L21.5 -27.45 21.85 -28.25 Q21.95 -29.25 21.15 -29.95 20.6 -30.4 20.3 -31.35 L20.25 -32.1 20.6 -32.85 21.85 -33.85 Q22.85 -34.25 23.05 -35.15 L23.0 -36.05 22.5 -37.4 Q22.8 -39.1 24.1 -39.0" fill="url(#gradient2)" fill-rule="evenodd" stroke="none"/>
    <path d="M28.1 16.8 Q27.8 17.45 27.85 17.65 L28.45 18.75 29.1 19.75 Q29.5 20.95 28.0 21.65 L26.55 21.55 25.7 21.7 Q24.8 22.15 24.7 23.25 24.65 23.9 24.05 24.75 L23.45 25.2 22.65 25.35 Q21.65 25.3 21.1 24.95 20.2 24.25 19.3 24.6 L18.65 25.15 17.8 26.35 Q16.3 27.05 15.6 25.95 15.45 25.85 15.25 24.85 L14.85 23.65 Q14.7 23.45 14.0 23.3 13.4 23.15 13.25 22.95 12.15 21.8 11.8 21.0 10.2 17.5 11.5 13.85 12.6 10.85 15.2 9.2 L15.9 8.85 16.6 8.6 22.5 8.75 Q26.2 10.1 27.8 13.6 L28.35 15.95 28.1 16.8" fill="url(#gradient3)" fill-rule="evenodd" stroke="none"/>
    <path d="M24.1 -39.0 L25.2 -38.65 Q26.05 -38.25 26.45 -38.3 L27.2 -38.8 Q27.7 -39.15 27.95 -39.15 L30.3 -39.25 Q34.1 -38.6 36.4 -35.4 38.2 -32.8 38.05 -29.75 L38.0 -29.0 37.75 -28.25 Q36.9 -25.3 34.3 -23.5 31.1 -21.3 27.3 -21.95 26.45 -22.1 25.05 -22.85 24.8 -22.95 24.5 -23.5 L23.95 -24.2 22.7 -24.25 21.5 -24.3 Q20.3 -24.7 20.6 -26.4 L21.5 -27.45 21.85 -28.25 Q21.95 -29.25 21.15 -29.95 20.6 -30.4 20.3 -31.35 L20.25 -32.1 20.6 -32.85 21.85 -33.85 Q22.85 -34.25 23.05 -35.15 L23.0 -36.05 22.5 -37.4 Q22.8 -39.1 24.1 -39.0 M28.1 16.8 Q27.8 17.45 27.85 17.65 L28.45 18.75 29.1 19.75 Q29.5 20.95 28.0 21.65 L26.55 21.55 25.7 21.7 Q24.8 22.15 24.7 23.25 24.65 23.9 24.05 24.75 L23.45 25.2 22.65 25.35 Q21.65 25.3 21.1 24.95 20.2 24.25 19.3 24.6 L18.65 25.15 17.8 26.35 Q16.3 27.05 15.6 25.95 15.45 25.85 15.25 24.85 L14.85 23.65 Q14.7 23.45 14.0 23.3 13.4 23.15 13.25 22.95 12.15 21.8 11.8 21.0 10.2 17.5 11.5 13.85 12.6 10.85 15.2 9.2 L15.9 8.85 16.6 8.6 22.5 8.75 Q26.2 10.1 27.8 13.6 L28.35 15.95 28.1 16.8" fill="none" stroke="#cac4dd" stroke-linecap="round" stroke-linejoin="round" stroke-width="1.0"/>
    <path d="M-24.15 22.25 Q-26.15 16.1 -25.15 13.95 -23.15 14.8 -20.4 20.6 -18.1 25.65 -17.65 28.5 -17.35 30.35 -17.7 31.0 L-18.05 31.7 -19.65 31.25 Q-20.8 30.55 -21.45 29.4 -22.7 26.85 -24.15 22.25 M-6.85 3.0 Q-5.15 4.4 -3.95 10.7 -3.1 16.15 -3.35 19.0 -3.6 20.9 -4.05 21.45 L-4.6 22.0 Q-5.3 21.95 -6.05 21.2 -6.95 20.2 -7.3 18.95 -7.85 16.15 -8.05 11.35 -8.4 4.85 -6.85 3.0 M1.75 18.1 Q4.3 16.85 8.9 15.4 15.05 13.4 17.2 14.4 16.35 16.4 10.55 19.15 5.5 21.45 2.65 21.9 L0.15 21.85 -0.55 21.5 Q-0.65 20.8 -0.1 19.9 0.6 18.75 1.75 18.1 M21.4 4.9 Q24.1 5.8 28.4 8.05 34.15 10.95 35.0 13.2 32.95 14.05 26.9 11.9 21.7 9.9 19.4 8.2 17.85 7.15 17.6 6.4 L17.4 5.7 Q17.8 5.1 18.85 4.85 L21.4 4.9 M59.2 -48.6 Q59.0 -46.9 55.1 -43.6 51.8 -40.85 49.7 -39.95 48.35 -39.35 47.75 -39.45 L47.2 -39.55 Q47.0 -40.1 47.2 -40.85 47.5 -41.9 48.25 -42.65 L53.1 -46.15 Q57.35 -48.95 59.2 -48.6 M28.35 -1.6 L25.85 -1.65 Q25.4 -1.85 25.15 -2.0 25.05 -2.7 25.6 -3.6 26.3 -4.75 27.45 -5.4 30.0 -6.65 34.6 -8.1 40.75 -10.1 42.9 -9.1 42.05 -7.1 36.25 -4.35 31.2 -2.05 28.35 -1.6 M26.35 -14.45 Q26.6 -17.25 27.65 -22.0 28.95 -28.3 30.9 -29.7 32.2 -27.95 31.7 -21.5 31.15 -16.0 30.1 -13.35 29.45 -11.6 28.8 -11.15 L28.15 -10.75 Q27.5 -11.0 27.05 -11.95 26.4 -13.1 26.35 -14.45 M38.55 -20.7 L38.0 -21.25 Q38.05 -21.9 38.8 -22.7 39.8 -23.6 41.05 -23.95 L48.7 -24.75 Q55.15 -25.1 57.0 -23.55 55.6 -21.8 49.3 -20.65 L41.0 -20.0 Q39.1 -20.2 38.55 -20.7 M18.55 -9.55 Q17.3 -12.1 15.85 -16.7 13.85 -22.85 14.85 -25.0 16.85 -24.15 19.6 -18.35 21.9 -13.3 22.35 -10.45 22.65 -8.6 22.3 -7.95 L21.95 -7.25 Q21.25 -7.15 20.35 -7.7 19.2 -8.4 18.55 -9.55 M2.3 -6.7 Q4.3 -5.85 7.05 -0.05 9.35 5.0 9.8 7.85 10.1 9.7 9.75 10.35 L9.4 11.05 Q8.7 11.15 7.8 10.6 6.65 9.9 6.0 8.75 4.75 6.2 3.3 1.6 1.3 -4.55 2.3 -6.7 M37.8 -35.15 Q36.5 -37.2 34.95 -41.05 32.85 -46.15 33.55 -48.0 35.3 -47.4 38.05 -42.7 40.35 -38.5 41.0 -36.15 41.35 -34.6 41.1 -34.0 L40.85 -33.35 Q40.25 -33.25 39.45 -33.65 38.4 -34.2 37.8 -35.15 M43.6 -58.4 Q44.95 -57.35 45.9 -52.35 46.6 -48.1 46.35 -45.8 46.15 -44.4 45.75 -43.85 L45.45 -43.45 44.3 -44.15 Q43.55 -44.9 43.25 -45.95 42.9 -48.1 42.65 -51.85 42.35 -56.95 43.6 -58.4 M-38.4 43.3 Q-39.15 43.4 -40.05 42.8 -41.1 42.15 -41.8 41.0 -43.1 38.45 -44.5 33.9 -46.5 27.7 -45.5 25.55 -43.5 26.35 -40.8 32.25 -38.45 37.3 -38.05 40.1 -37.7 41.9 -38.05 42.65 L-38.4 43.3 M-16.85 36.9 Q-15.65 36.25 -14.35 36.2 L-6.8 37.5 Q-0.5 38.8 0.9 40.75 -0.85 42.05 -7.25 41.55 -12.75 41.0 -15.45 39.95 -17.2 39.3 -17.6 38.65 L-18.05 38.0 Q-17.8 37.35 -16.85 36.9 M-30.6 40.4 Q-31.5 39.45 -31.8 38.15 -32.4 35.35 -32.6 30.55 -32.9 24.05 -31.4 22.25 -29.7 23.6 -28.55 29.95 -27.6 35.4 -27.95 38.25 -28.1 40.1 -28.6 40.7 L-29.15 41.25 -30.6 40.4 M-32.7 48.35 L-33.0 47.65 Q-32.65 47.05 -31.7 46.6 L-29.15 46.25 Q-26.35 46.7 -21.75 48.2 -15.6 50.25 -14.45 52.3 -16.3 53.4 -22.65 52.25 -28.1 51.2 -30.6 49.85 -32.3 49.0 -32.7 48.35" fill="#339933" fill-rule="evenodd" stroke="none"/>
    <path d="M43.6 -58.4 Q42.35 -56.95 42.65 -51.85 42.9 -48.1 43.25 -45.95 43.55 -44.9 44.3 -44.15 L45.45 -43.45 45.75 -43.85 Q46.15 -44.4 46.35 -45.8 46.6 -48.1 45.9 -52.35 44.95 -57.35 43.6 -58.4 M37.8 -35.15 Q38.4 -34.2 39.45 -33.65 40.25 -33.25 40.85 -33.35 L41.1 -34.0 Q41.35 -34.6 41.0 -36.15 40.35 -38.5 38.05 -42.7 35.3 -47.4 33.55 -48.0 32.85 -46.15 34.95 -41.05 36.5 -37.2 37.8 -35.15 M2.3 -6.7 Q1.3 -4.55 3.3 1.6 4.75 6.2 6.0 8.75 6.65 9.9 7.8 10.6 8.7 11.15 9.4 11.05 L9.75 10.35 Q10.1 9.7 9.8 7.85 9.35 5.0 7.05 -0.05 4.3 -5.85 2.3 -6.7 M18.55 -9.55 Q19.2 -8.4 20.35 -7.7 21.25 -7.15 21.95 -7.25 L22.3 -7.95 Q22.65 -8.6 22.35 -10.45 21.9 -13.3 19.6 -18.35 16.85 -24.15 14.85 -25.0 13.85 -22.85 15.85 -16.7 17.3 -12.1 18.55 -9.55 M38.55 -20.7 Q39.1 -20.2 41.0 -20.0 L49.3 -20.65 Q55.6 -21.8 57.0 -23.55 55.15 -25.1 48.7 -24.75 L41.05 -23.95 Q39.8 -23.6 38.8 -22.7 38.05 -21.9 38.0 -21.25 L38.55 -20.7 M26.35 -14.45 Q26.4 -13.1 27.05 -11.95 27.5 -11.0 28.15 -10.75 L28.8 -11.15 Q29.45 -11.6 30.1 -13.35 31.15 -16.0 31.7 -21.5 32.2 -27.95 30.9 -29.7 28.95 -28.3 27.65 -22.0 26.6 -17.25 26.35 -14.45 M28.35 -1.6 Q31.2 -2.05 36.25 -4.35 42.05 -7.1 42.9 -9.1 40.75 -10.1 34.6 -8.1 30.0 -6.65 27.45 -5.4 26.3 -4.75 25.6 -3.6 25.05 -2.7 25.15 -2.0 25.4 -1.85 25.85 -1.65 L28.35 -1.6 M59.2 -48.6 Q57.35 -48.95 53.1 -46.15 L48.25 -42.65 Q47.5 -41.9 47.2 -40.85 47.0 -40.1 47.2 -39.55 L47.75 -39.45 Q48.35 -39.35 49.7 -39.95 51.8 -40.85 55.1 -43.6 59.0 -46.9 59.2 -48.6 M21.4 4.9 L18.85 4.85 Q17.8 5.1 17.4 5.7 L17.6 6.4 Q17.85 7.15 19.4 8.2 21.7 9.9 26.9 11.9 32.95 14.05 35.0 13.2 34.15 10.95 28.4 8.05 24.1 5.8 21.4 4.9 M1.75 18.1 Q0.6 18.75 -0.1 19.9 -0.65 20.8 -0.55 21.5 L0.15 21.85 2.65 21.9 Q5.5 21.45 10.55 19.15 16.35 16.4 17.2 14.4 15.05 13.4 8.9 15.4 4.3 16.85 1.75 18.1 M-6.85 3.0 Q-8.4 4.85 -8.05 11.35 -7.85 16.15 -7.3 18.95 -6.95 20.2 -6.05 21.2 -5.3 21.95 -4.6 22.0 L-4.05 21.45 Q-3.6 20.9 -3.35 19.0 -3.1 16.15 -3.95 10.7 -5.15 4.4 -6.85 3.0 M-24.15 22.25 Q-22.7 26.85 -21.45 29.4 -20.8 30.55 -19.65 31.25 L-18.05 31.7 -17.7 31.0 Q-17.35 30.35 -17.65 28.5 -18.1 25.65 -20.4 20.6 -23.15 14.8 -25.15 13.95 -26.15 16.1 -24.15 22.25 M-38.4 43.3 Q-39.15 43.4 -40.05 42.8 -41.1 42.15 -41.8 41.0 -43.1 38.45 -44.5 33.9 -46.5 27.7 -45.5 25.55 -43.5 26.35 -40.8 32.25 -38.45 37.3 -38.05 40.1 -37.7 41.9 -38.05 42.65 L-38.4 43.3 M-32.7 48.35 Q-32.3 49.0 -30.6 49.85 -28.1 51.2 -22.65 52.25 -16.3 53.4 -14.45 52.3 -15.6 50.25 -21.75 48.2 -26.35 46.7 -29.15 46.25 L-31.7 46.6 Q-32.65 47.05 -33.0 47.65 L-32.7 48.35 M-30.6 40.4 L-29.15 41.25 -28.6 40.7 Q-28.1 40.1 -27.95 38.25 -27.6 35.4 -28.55 29.95 -29.7 23.6 -31.4 22.25 -32.9 24.05 -32.6 30.55 -32.4 35.35 -31.8 38.15 -31.5 39.45 -30.6 40.4 M-16.85 36.9 Q-17.8 37.35 -18.05 38.0 L-17.6 38.65 Q-17.2 39.3 -15.45 39.95 -12.75 41.0 -7.25 41.55 -0.85 42.05 0.9 40.75 -0.5 38.8 -6.8 37.5 L-14.35 36.2 Q-15.65 36.25 -16.85 36.9" fill="none" stroke="#336633" stroke-linecap="round" stroke-linejoin="round" stroke-width="1.0"/>
    <path d="M12.05 -16.15 L12.85 -16.5 15.25 -16.4 Q19.0 -15.4 20.95 -12.0 22.55 -9.25 22.1 -6.2 L22.0 -5.45 21.7 -4.8 Q20.55 -1.95 17.85 -0.3 14.4 1.6 10.65 0.6 9.85 0.4 8.55 -0.5 L8.05 -1.15 7.6 -1.95 6.3 -2.1 5.1 -2.25 Q3.95 -2.75 4.4 -4.4 L5.4 -5.4 5.85 -6.15 Q6.05 -7.1 5.25 -7.85 4.75 -8.35 4.55 -9.4 L4.55 -10.15 4.95 -10.8 Q5.65 -11.55 6.25 -11.75 7.35 -12.0 7.65 -12.95 L7.7 -13.8 7.3 -15.2 Q7.75 -16.85 9.0 -16.65 L10.1 -16.2 Q10.9 -15.75 11.3 -15.75 L12.05 -16.15" fill="url(#gradient4)" fill-rule="evenodd" stroke="none"/>
    <path d="M6.6 36.9 Q7.05 38.0 5.6 38.85 L4.15 38.9 3.35 39.15 Q2.55 39.7 2.55 40.75 2.55 41.45 2.0 42.3 L1.45 42.85 0.7 43.05 -0.95 42.75 -2.75 42.65 -3.35 43.25 -4.1 44.45 -6.3 44.35 -6.75 43.25 Q-7.0 42.3 -7.3 42.05 L-8.1 41.8 -8.95 41.5 -10.5 39.7 Q-12.45 36.35 -11.5 32.6 -10.65 29.5 -8.2 27.7 L-7.6 27.2 Q-7.25 27.0 -6.9 26.95 -4.05 25.7 -1.0 26.55 2.75 27.55 4.7 30.9 L5.45 33.2 5.3 34.05 5.1 34.9 5.85 35.95 6.6 36.9" fill="url(#gradient5)" fill-rule="evenodd" stroke="none"/>
    <path d="M12.05 -16.15 L12.85 -16.5 15.25 -16.4 Q19.0 -15.4 20.95 -12.0 22.55 -9.25 22.1 -6.2 L22.0 -5.45 21.7 -4.8 Q20.55 -1.95 17.85 -0.3 14.4 1.6 10.65 0.6 9.85 0.4 8.55 -0.5 L8.05 -1.15 7.6 -1.95 6.3 -2.1 5.1 -2.25 Q3.95 -2.75 4.4 -4.4 L5.4 -5.4 5.85 -6.15 Q6.05 -7.1 5.25 -7.85 4.75 -8.35 4.55 -9.4 L4.55 -10.15 4.95 -10.8 Q5.65 -11.55 6.25 -11.75 7.35 -12.0 7.65 -12.95 L7.7 -13.8 7.3 -15.2 Q7.75 -16.85 9.0 -16.65 L10.1 -16.2 Q10.9 -15.75 11.3 -15.75 L12.05 -16.15 M6.6 36.9 Q7.05 38.0 5.6 38.85 L4.15 38.9 3.35 39.15 Q2.55 39.7 2.55 40.75 2.55 41.45 2.0 42.3 L1.45 42.85 0.7 43.05 -0.95 42.75 -2.75 42.65 -3.35 43.25 -4.1 44.45 -6.3 44.35 -6.75 43.25 Q-7.0 42.3 -7.3 42.05 L-8.1 41.8 -8.95 41.5 -10.5 39.7 Q-12.45 36.35 -11.5 32.6 -10.65 29.5 -8.2 27.7 L-7.6 27.2 Q-7.25 27.0 -6.9 26.95 -4.05 25.7 -1.0 26.55 2.75 27.55 4.7 30.9 L5.45 33.2 5.3 34.05 5.1 34.9 5.85 35.95 6.6 36.9" fill="none" stroke="#cac4dd" stroke-linecap="round" stroke-linejoin="round" stroke-width="1.0"/>
    <path d="M48.1 42.0 Q48.85 42.0 49.45 42.6 50.0 43.15 50.0 44.0 L50.0 52.0 Q50.0 52.85 49.45 53.45 48.85 54.0 48.1 54.0 L54.0 54.0 54.0 42.0 48.1 42.0 M42.6 30.6 Q43.15 30.0 43.95 30.0 L38.0 30.0 38.0 42.0 43.95 42.0 Q43.15 42.0 42.6 41.45 42.0 40.85 42.0 40.0 L42.0 32.0 Q42.0 31.15 42.6 30.6 M56.0 26.0 Q56.85 26.0 57.45 26.6 58.0 27.15 58.0 28.0 L58.0 32.0 Q58.0 32.85 57.45 33.45 56.85 34.0 56.0 34.0 L46.0 34.0 46.0 38.0 56.0 38.0 Q56.85 38.0 57.45 38.6 58.0 39.15 58.0 40.0 L58.0 56.0 Q58.0 56.85 57.45 57.45 56.85 58.0 56.0 58.0 L36.0 58.0 Q35.15 58.0 34.6 57.45 34.0 56.85 34.0 56.0 L34.0 52.0 Q34.0 51.15 34.6 50.6 35.15 50.0 36.0 50.0 L46.0 50.0 46.0 46.0 36.0 46.0 Q35.15 46.0 34.6 45.45 34.0 44.85 34.0 44.0 L34.0 28.0 Q34.0 27.15 34.6 26.6 35.15 26.0 36.0 26.0 L56.0 26.0" fill="#000000" fill-rule="evenodd" stroke="none"/>
    <path d="M44.0 40.0 L56.0 40.0 56.0 56.0 36.0 56.0 36.0 52.0 48.0 52.0 48.0 44.0 36.0 44.0 36.0 28.0 56.0 28.0 56.0 32.0 44.0 32.0 44.0 40.0" fill="#ffffff" fill-rule="evenodd" stroke="none"/>
  </g>
  <defs>
    <radialGradient cx="0" cy="0" gradientTransform="matrix(0.0121, 0.007, -0.0055, 0.0095, 40.4, -9.95)" gradientUnits="userSpaceOnUse" id="gradient0" r="819.2" spreadMethod="pad">
      <stop offset="0.0" stop-color="#ffffff"/>
      <stop offset="0.5333333333333333" stop-color="#fdfdfe"/>
      <stop offset="0.6588235294117647" stop-color="#edf0f3"/>
      <stop offset="1.0" stop-color="#e6eaee"/>
    </radialGradient>
    <radialGradient cx="0" cy="0" gradientTransform="matrix(-0.0139, -0.0017, 0.0013, -0.0108, -6.3, 13.6)" gradientUnits="userSpaceOnUse" id="gradient1" r="819.2" spreadMethod="pad">
      <stop offset="0.0" stop-color="#ffffff"/>
      <stop offset="0.5333333333333333" stop-color="#fdfdfe"/>
      <stop offset="0.6588235294117647" stop-color="#edf0f3"/>
      <stop offset="1.0" stop-color="#e6eaee"/>
    </radialGradient>
    <radialGradient cx="0" cy="0" gradientTransform="matrix(-0.0137, -0.0024, 0.0019, -0.0107, 27.85, -30.75)" gradientUnits="userSpaceOnUse" id="gradient2" r="819.2" spreadMethod="pad">
      <stop offset="0.0" stop-color="#ffffff"/>
      <stop offset="0.5333333333333333" stop-color="#fdfdfe"/>
      <stop offset="0.6588235294117647" stop-color="#edf0f3"/>
      <stop offset="1.0" stop-color="#e6eaee"/>
    </radialGradient>
    <radialGradient cx="0" cy="0" gradientTransform="matrix(0.0059, 0.0127, -0.0099, 0.0046, 20.2, 18.2)" gradientUnits="userSpaceOnUse" id="gradient3" r="819.2" spreadMethod="pad">
      <stop offset="0.0" stop-color="#ffffff"/>
      <stop offset="0.5333333333333333" stop-color="#fdfdfe"/>
      <stop offset="0.6588235294117647" stop-color="#edf0f3"/>
      <stop offset="1.0" stop-color="#e6eaee"/>
    </radialGradient>
    <radialGradient cx="0" cy="0" gradientTransform="matrix(-0.0135, -0.0036, 0.0028, -0.0106, 12.05, -8.15)" gradientUnits="userSpaceOnUse" id="gradient4" r="819.2" spreadMethod="pad">
      <stop offset="0.0" stop-color="#ffffff"/>
      <stop offset="0.5333333333333333" stop-color="#fdfdfe"/>
      <stop offset="0.6588235294117647" stop-color="#edf0f3"/>
      <stop offset="1.0" stop-color="#e6eaee"/>
    </radialGradient>
    <radialGradient cx="0" cy="0" gradientTransform="matrix(0.007, 0.0121, -0.0095, 0.0055, -2.45, 36.15)" gradientUnits="userSpaceOnUse" id="gradient5" r="819.2" spreadMethod="pad">
      <stop offset="0.0" stop-color="#ffffff"/>
      <stop offset="0.5333333333333333" stop-color="#fdfdfe"/>
      <stop offset="0.6588235294117647" stop-color="#edf0f3"/>
      <stop offset="1.0" stop-color="#e6eaee"/>
    </radialGradient>
  </defs>
</svg>
