<?xml version="1.0" encoding="UTF-8" standalone="no"?>
<svg xmlns:xlink="http://www.w3.org/1999/xlink" height="112.0px" width="112.0px" xmlns="http://www.w3.org/2000/svg">
  <g transform="matrix(1.0, 0.0, 0.0, 1.0, 56.0, 56.0)">
    <path d="M33.95 -40.95 Q19.9 -55.0 0.0 -55.0 -19.9 -55.0 -33.95 -40.95 -48.0 -26.9 -48.0 -7.0 -48.0 12.9 -33.95 26.95 -19.9 41.0 0.0 41.0 19.9 41.0 33.95 26.95 48.0 12.9 48.0 -7.0 48.0 -26.9 33.95 -40.95 M39.6 -39.6 Q56.0 -23.2 56.0 0.0 56.0 23.2 39.6 39.6 23.2 56.0 0.0 56.0 -23.2 56.0 -39.6 39.6 -56.0 23.2 -56.0 0.0 -56.0 -23.2 -39.6 -39.6 -23.2 -56.0 0.0 -56.0 23.2 -56.0 39.6 -39.6" fill="url(#gradient0)" fill-rule="evenodd" stroke="none"/>
  </g>
  <defs>
    <radialGradient cx="0" cy="0" gradientTransform="matrix(0.0696, 0.0, 0.0, 0.0696, 0.0, -4.0)" gradientUnits="userSpaceOnUse" id="gradient0" r="819.2" spreadMethod="pad">
      <stop offset="0.8549019607843137" stop-color="#ffffff" stop-opacity="0.0"/>
      <stop offset="1.0" stop-color="#f0f0f0"/>
    </radialGradient>
  </defs>
</svg>
