<?xml version="1.0" encoding="UTF-8" standalone="no"?>
<svg xmlns:xlink="http://www.w3.org/1999/xlink" height="121.0px" width="263.0px" xmlns="http://www.w3.org/2000/svg">
  <g transform="matrix(1.0, 0.0, 0.0, 1.0, -27.0, -19.0)">
    <path d="M288.0 19.0 Q290.0 19.0 290.0 21.0 L290.0 138.0 Q290.0 140.0 288.0 140.0 L207.0 140.0 Q205.0 140.0 205.0 138.0 L205.0 21.0 Q205.0 19.0 207.0 19.0 L288.0 19.0 M199.0 19.0 Q201.0 19.0 201.0 21.0 L201.0 138.0 Q201.0 140.0 199.0 140.0 L118.0 140.0 Q116.0 140.0 116.0 138.0 L116.0 21.0 Q116.0 19.0 118.0 19.0 L199.0 19.0 M110.0 19.0 Q112.0 19.0 112.0 21.0 L112.0 138.0 Q112.0 140.0 110.0 140.0 L29.0 140.0 Q27.0 140.0 27.0 138.0 L27.0 21.0 Q27.0 19.0 29.0 19.0 L110.0 19.0" fill="#2e2c18" fill-opacity="0.15294118" fill-rule="evenodd" stroke="none"/>
  </g>
</svg>
