<?xml version="1.0" encoding="UTF-8" standalone="no"?>
<svg xmlns:xlink="http://www.w3.org/1999/xlink" height="172.0px" width="265.0px" xmlns="http://www.w3.org/2000/svg">
  <g transform="matrix(1.0, 0.0, 0.0, 1.0, 0.0, 0.0)">
    <path d="M265.0 2.85 L265.0 169.1 Q265.05 172.0 262.0 172.0 L181.0 172.0 Q178.0 172.0 178.0 169.1 L178.0 2.85 Q177.95 0.0 181.0 0.0 L262.0 0.0 Q265.05 0.0 265.0 2.85 M262.0 1.0 L181.0 1.0 Q179.0 1.0 179.0 2.85 L179.0 169.1 Q179.0 171.0 181.0 171.0 L262.0 171.0 Q264.0 171.0 264.0 169.1 L264.0 2.85 Q264.0 1.0 262.0 1.0 M173.0 1.0 L92.0 1.0 Q90.0 1.0 90.0 2.85 L90.0 169.1 Q90.0 171.0 92.0 171.0 L173.0 171.0 Q175.0 171.0 175.0 169.1 L175.0 2.85 Q175.0 1.0 173.0 1.0 M176.0 2.85 L176.0 169.1 Q176.05 172.0 173.0 172.0 L92.0 172.0 Q89.0 172.0 89.0 169.1 L89.0 2.85 Q88.95 0.0 92.0 0.0 L173.0 0.0 Q176.05 0.0 176.0 2.85 M87.0 2.85 L87.0 169.1 Q87.05 172.0 84.0 172.0 L3.0 172.0 Q0.0 172.0 0.0 169.1 L0.0 2.85 Q-0.05 0.0 3.0 0.0 L84.0 0.0 Q87.05 0.0 87.0 2.85 M84.0 1.0 L3.0 1.0 Q1.0 1.0 1.0 2.85 L1.0 169.1 Q1.0 171.0 3.0 171.0 L84.0 171.0 Q86.0 171.0 86.0 169.1 L86.0 2.85 Q86.0 1.0 84.0 1.0" fill="#83a9aa" fill-rule="evenodd" stroke="none"/>
  </g>
</svg>
