<?xml version="1.0" encoding="UTF-8" standalone="no"?>
<svg xmlns:xlink="http://www.w3.org/1999/xlink" height="230.0px" width="229.95px" xmlns="http://www.w3.org/2000/svg">
  <g transform="matrix(1.0, 0.0, 0.0, 1.0, 113.55, 116.0)">
    <path d="M5.0 -112.0 Q12.2 -110.85 18.0 -111.85 L25.0 -112.5 28.35 -110.4 Q30.7 -108.8 35.35 -107.85 51.8 -102.7 65.55 -92.55 69.35 -90.3 77.05 -88.05 83.3 -86.25 86.0 -83.5 86.75 -73.3 90.9 -65.95 95.05 -58.5 101.0 -57.0 103.05 -54.1 102.2 -53.0 101.15 -51.7 102.2 -49.55 106.05 -47.8 109.35 -44.3 116.4 -37.1 116.4 -26.95 116.4 -19.25 112.35 -13.1 112.9 -6.95 112.9 -0.65 112.9 10.45 111.1 20.65 109.7 28.45 107.25 35.8 107.6 37.6 107.6 39.7 107.6 46.15 102.9 50.75 101.15 52.5 99.2 53.7 95.85 58.75 94.3 62.75 92.95 66.15 91.5 68.0 90.0 69.95 87.4 71.95 83.8 74.7 79.9 78.6 70.9 87.75 60.85 94.35 L51.85 100.8 Q45.95 105.05 42.5 106.5 40.3 107.45 37.15 107.25 L31.6 107.55 21.4 110.3 Q17.65 111.45 12.5 114.0 L2.2 112.75 -8.1 111.3 -20.9 109.9 -33.5 108.0 Q-39.25 106.8 -42.9 104.5 L-51.8 98.95 -56.35 99.3 Q-62.5 99.3 -67.9 97.1 -73.45 94.85 -78.1 90.2 -82.05 86.15 -84.2 81.75 -86.9 76.3 -87.05 69.85 -91.8 63.45 -95.4 60.9 -98.45 58.7 -99.5 57.0 -100.85 54.75 -101.1 50.65 -101.4 46.0 -105.1 38.45 -111.6 20.25 -111.6 -0.65 -111.6 -3.05 -112.75 -7.45 -113.8 -11.35 -113.5 -14.0 -107.15 -29.1 -107.45 -35.5 -107.5 -36.5 -108.1 -39.15 -108.5 -40.85 -108.0 -42.5 -107.8 -43.55 -104.55 -46.45 -100.75 -49.85 -98.9 -53.3 -94.3 -61.95 -88.1 -69.75 -85.25 -84.0 -36.5 -106.9 -29.35 -109.4 -25.35 -110.2 L-13.5 -111.5 Q-12.25 -111.55 -8.0 -113.8 -3.85 -116.0 -2.5 -116.0 -0.7 -116.0 1.3 -114.1 3.4 -112.1 5.0 -112.0" fill="#aa010e" fill-rule="evenodd" stroke="none"/>
  </g>
</svg>
