<?xml version="1.0" encoding="UTF-8" standalone="no"?>
<svg xmlns:xlink="http://www.w3.org/1999/xlink" height="318.75px" width="323.3px" xmlns="http://www.w3.org/2000/svg">
  <g transform="matrix(1.0, 0.0, 0.0, 1.0, 160.6, 163.75)">
    <path d="M119.5 -113.0 Q122.25 -114.5 123.0 -113.8 124.05 -112.7 121.65 -111.15 L116.0 -107.65 Q107.85 -101.85 113.15 -93.6 116.05 -88.2 117.4 -82.4 122.35 -73.2 125.7 -72.85 L127.75 -73.1 Q128.7 -73.2 129.35 -72.15 129.9 -71.2 129.25 -70.6 L127.85 -69.1 Q126.15 -65.95 131.3 -55.95 133.2 -55.15 134.45 -52.35 136.05 -48.8 137.2 -47.65 142.6 -34.3 153.4 -35.4 L160.0 -36.5 Q162.7 -36.65 162.7 -33.9 162.7 -31.95 159.65 -32.15 L152.9 -32.6 Q143.0 -32.0 142.45 -15.9 141.65 -8.45 144.45 -3.5 L146.5 -0.1 Q147.5 1.65 147.5 3.35 147.5 5.95 146.7 7.6 L144.9 10.45 Q142.1 14.55 141.5 23.0 139.95 27.5 149.8 29.9 L156.65 31.45 Q159.75 32.3 159.5 33.25 159.3 33.95 156.25 33.2 L149.6 31.55 Q139.85 29.55 138.75 35.25 137.15 37.3 136.55 40.7 L136.05 45.15 Q135.6 50.45 136.4 51.4 137.45 56.9 143.4 60.4 L147.1 62.4 Q148.55 63.3 148.2 64.1 L146.2 64.0 Q142.8 62.5 142.15 62.35 135.5 60.25 130.4 65.45 128.05 67.8 125.0 72.15 120.75 78.15 120.5 81.45 121.35 82.85 123.0 84.45 L125.9 87.35 129.05 89.2 Q133.5 91.65 136.0 94.2 138.55 96.8 137.8 98.25 137.05 99.45 131.35 96.5 126.05 93.7 123.0 90.9 L120.55 88.5 120.55 88.6 Q117.7 86.65 111.95 91.9 103.55 99.7 101.1 101.0 98.4 102.4 97.4 104.95 96.7 106.75 96.75 109.8 96.75 112.25 98.55 115.65 100.95 120.35 105.6 123.9 106.45 125.55 105.15 126.3 103.85 127.1 102.15 126.05 99.65 120.95 94.35 118.95 91.55 117.95 88.2 117.95 83.3 117.95 73.05 123.4 L60.3 130.2 Q55.8 132.85 54.15 135.4 53.0 137.45 53.6 141.3 54.1 145.15 53.15 146.65 51.35 145.65 48.85 141.6 46.25 137.35 45.55 136.85 42.35 134.55 34.7 135.75 27.25 136.85 24.75 139.55 18.05 144.4 17.5 150.4 17.4 151.8 17.45 153.7 17.3 155.0 16.15 155.0 15.1 155.05 14.85 152.95 L14.05 148.35 Q11.85 141.95 0.15 143.05 -10.75 143.05 -20.8 141.65 -32.7 137.6 -37.25 140.5 L-40.0 142.7 Q-41.45 143.6 -43.6 143.0 -45.8 142.3 -46.1 141.2 L-46.0 138.8 Q-45.85 135.05 -54.05 131.35 -60.6 128.75 -62.6 137.2 L-63.95 143.1 Q-64.85 145.7 -66.65 145.2 -67.15 145.25 -65.8 141.95 -63.85 137.15 -63.2 134.55 -60.45 123.8 -69.8 124.15 -73.35 124.25 -75.2 127.95 L-77.1 131.55 Q-77.75 131.5 -77.65 130.15 L-77.2 127.25 Q-76.65 123.0 -79.85 122.9 -84.2 121.85 -88.7 119.35 -91.75 117.0 -94.55 119.5 L-96.4 121.3 Q-97.25 122.1 -97.8 121.65 -98.15 121.35 -97.6 120.3 L-96.3 118.05 Q-94.65 114.6 -97.55 112.55 -101.25 106.7 -103.85 107.35 L-105.5 108.1 Q-106.2 108.5 -106.6 107.95 -107.1 107.25 -106.45 106.65 L-104.95 105.5 Q-103.05 103.65 -106.25 99.75 -107.2 95.45 -115.3 99.75 L-120.85 102.9 Q-123.35 104.35 -123.5 103.75 -123.65 103.05 -121.8 101.35 -119.1 98.9 -118.1 97.65 -113.4 91.6 -118.25 84.0 -125.6 70.8 -129.15 73.2 -130.15 73.9 -131.95 76.15 -133.65 77.95 -135.5 77.3 -136.8 75.05 -134.45 73.5 -131.0 71.8 -129.4 70.4 -123.05 64.95 -134.5 49.95 -137.85 30.65 -144.2 32.0 L-148.3 33.95 Q-150.15 34.85 -150.45 32.5 -149.35 31.4 -145.05 29.4 -140.95 27.55 -139.35 25.6 -134.05 19.05 -144.05 1.35 -146.2 0.6 -153.8 -0.65 -160.1 -1.65 -160.45 -2.55 -161.25 -4.25 -158.25 -4.95 L-151.15 -6.3 Q-140.3 -9.15 -141.55 -20.65 -137.2 -35.85 -142.1 -43.2 L-145.75 -47.45 Q-147.45 -49.3 -147.0 -51.05 -146.15 -53.85 -142.9 -55.65 -141.6 -56.35 -136.35 -58.25 -132.15 -59.85 -130.35 -61.45 -127.7 -63.8 -127.75 -67.65 -127.75 -68.5 -132.4 -73.3 -137.3 -78.3 -137.7 -79.5 L-129.8 -76.95 Q-123.5 -74.85 -122.35 -75.85 -120.25 -77.65 -116.6 -82.9 -115.5 -84.3 -117.65 -86.75 -118.85 -88.1 -123.0 -91.45 -131.1 -98.05 -129.35 -100.55 -127.7 -102.05 -119.8 -95.15 -111.95 -88.35 -110.15 -90.5 -102.95 -97.2 -96.35 -109.6 -92.35 -117.0 -89.4 -121.15 L-96.1 -128.25 Q-98.8 -131.2 -100.3 -134.9 -101.8 -138.55 -100.85 -139.5 -99.8 -140.4 -97.1 -138.4 -94.05 -136.25 -90.8 -131.75 -87.65 -128.0 -85.95 -125.05 -81.2 -125.2 -70.7 -127.65 L-67.85 -128.3 Q-68.65 -129.9 -69.8 -133.85 -71.0 -136.95 -71.0 -139.05 -71.0 -141.0 -69.95 -141.45 -67.35 -142.4 -65.1 -135.05 L-63.95 -129.3 Q-57.15 -131.15 -52.1 -133.15 -46.1 -134.8 -48.85 -142.4 L-50.9 -147.85 Q-51.7 -150.5 -50.45 -151.25 -48.7 -151.65 -47.75 -149.3 L-46.45 -143.9 Q-44.85 -136.15 -40.45 -137.5 -31.75 -140.0 -22.75 -141.3 -17.7 -141.65 -15.25 -142.55 -12.75 -143.65 -10.3 -144.4 -6.5 -144.35 -4.95 -146.95 -3.8 -148.8 -3.6 -152.9 L-3.15 -159.45 Q-2.55 -162.8 -0.5 -163.75 1.9 -163.65 2.2 -160.85 L1.9 -154.7 Q1.6 -150.55 2.5 -148.5 3.8 -145.6 7.9 -145.35 11.5 -144.4 13.45 -143.15 14.8 -142.25 17.35 -142.1 27.05 -139.4 29.6 -144.25 30.25 -145.5 30.9 -147.8 31.6 -149.35 33.05 -149.05 34.35 -148.8 34.1 -147.35 L33.6 -144.05 Q33.7 -139.05 44.45 -136.55 47.95 -134.95 51.25 -134.75 53.05 -134.6 55.75 -134.75 63.1 -134.4 66.55 -140.2 L68.9 -144.45 Q70.3 -146.55 72.25 -146.85 73.65 -144.75 72.8 -142.6 L70.8 -138.75 Q68.55 -133.6 77.2 -126.9 L79.8 -124.8 84.3 -121.95 Q87.15 -121.35 90.9 -117.2 95.55 -112.1 96.95 -111.15 103.9 -105.1 113.4 -109.6 L119.5 -113.0 M34.0 -156.3 L35.35 -155.95 36.5 -155.2 36.75 -154.6 36.85 -153.45 Q36.85 -152.3 36.0 -151.45 35.2 -150.65 34.0 -150.65 32.85 -150.65 31.95 -151.45 31.15 -152.3 31.15 -153.45 31.15 -154.65 31.95 -155.5 32.85 -156.3 34.0 -156.3 M-143.8 74.85 Q-142.4 74.85 -140.45 75.75 -138.6 76.65 -137.5 77.7 -137.1 77.85 -136.9 79.2 L-136.7 81.95 Q-136.7 84.95 -138.75 87.0 -140.85 89.1 -143.8 89.1 -146.75 89.1 -148.85 87.0 -150.9 84.95 -150.9 81.95 -150.9 79.05 -148.85 76.95 -146.75 74.85 -143.8 74.85" fill="#aa010e" fill-rule="evenodd" stroke="none"/>
  </g>
</svg>
