<?xml version="1.0" encoding="UTF-8" standalone="no"?>
<svg xmlns:xlink="http://www.w3.org/1999/xlink" height="138.8px" width="57.1px" xmlns="http://www.w3.org/2000/svg">
  <g transform="matrix(1.0, 0.0, 0.0, 1.0, 28.6, 69.9)">
    <path d="M16.0 -68.95 Q22.05 -67.4 27.3 -63.1 29.15 -61.55 28.1 -59.45 27.05 -57.4 25.2 -57.85 L24.8 -57.85 Q13.55 -59.5 4.3 -52.05 -2.5 -46.55 -5.25 -39.55 -7.25 -34.45 -6.75 -29.75 -5.85 -22.45 1.1 -18.25 9.9 -14.75 17.15 -6.65 25.15 2.45 26.5 12.7 26.95 22.5 26.5 26.05 L25.8 30.3 Q25.25 32.4 24.0 34.9 21.3 40.4 16.2 43.6 L15.85 43.85 16.3 46.85 18.45 48.55 Q21.9 52.1 21.9 57.0 21.9 61.95 18.45 65.35 L18.4 65.4 Q14.9 68.9 10.0 68.9 5.1 68.9 1.6 65.4 L1.6 65.35 Q-1.9 61.95 -1.9 57.0 -1.9 52.1 1.6 48.55 2.95 47.2 4.6 46.35 0.25 45.7 -1.1 43.75 -2.2 42.2 -1.7 39.0 -12.5 29.85 -11.45 26.65 L-11.1 25.65 Q-8.15 21.15 -7.45 16.65 L-7.05 15.55 Q-6.65 12.9 -7.1 10.65 -8.4 5.1 -14.55 0.0 -23.45 -7.0 -26.75 -16.45 -30.1 -25.95 -27.4 -36.6 -25.1 -45.65 -20.7 -52.25 -17.95 -56.35 -15.5 -58.75 -12.6 -61.6 -7.3 -65.1 -4.35 -67.05 -0.55 -68.35 L3.35 -69.4 10.0 -69.9 Q12.8 -69.8 16.0 -68.95 M13.75 58.7 L12.1 58.85 Q10.8 58.8 9.8 57.8 L8.75 56.5 Q8.5 56.05 8.4 55.2 L8.1 53.35 7.15 54.1 Q5.75 55.4 5.9 57.0 6.0 58.7 7.1 59.85 8.25 61.0 10.0 61.1 11.2 61.15 12.35 60.4 13.4 59.65 13.75 58.7" fill="#000000" fill-rule="evenodd" stroke="none"/>
    <path d="M2.75 -54.05 Q-1.85 -50.5 -5.1 -45.35 -10.15 -37.3 -9.25 -29.5 -8.25 -20.85 0.0 -16.0 -7.25 -18.6 -11.45 -24.1 -15.45 -29.3 -16.0 -36.0 -17.4 -52.3 -6.15 -62.85 -1.85 -65.75 3.5 -66.9 L3.65 -66.9 Q1.95 -61.25 2.75 -54.05" fill="url(#gradient0)" fill-rule="evenodd" stroke="none"/>
    <path d="M15.25 -5.0 Q22.75 3.5 24.0 13.0 8.8 21.5 -5.0 18.0 -3.9 13.65 -4.65 10.1 -6.05 3.8 -13.0 -2.0 -21.3 -8.5 -24.4 -17.3 -27.5 -26.1 -25.0 -36.0 -22.8 -44.65 -18.65 -50.85 -13.85 -58.15 -6.0 -63.0 -17.4 -52.4 -16.0 -36.0 -15.45 -29.4 -11.4 -24.2 -7.2 -18.8 0.0 -16.0 8.4 -12.7 15.25 -5.0" fill="url(#gradient1)" fill-rule="evenodd" stroke="none"/>
    <path d="M12.35 12.4 Q17.85 6.55 18.85 -0.35 23.1 6.05 24.0 13.0 12.6 19.35 2.0 19.0 7.35 17.7 12.35 12.4" fill="url(#gradient2)" fill-rule="evenodd" stroke="none"/>
    <path d="M15.25 -5.0 L18.85 -0.35 Q17.85 6.55 12.35 12.4 7.35 17.7 2.0 19.0 L-1.35 18.25 -5.0 17.0 -4.5 15.35 Q-4.3 14.3 -4.35 12.65 0.75 8.9 5.4 2.3 10.3 -4.65 10.75 -9.45 L15.25 -5.0" fill="url(#gradient3)" fill-rule="evenodd" stroke="none"/>
    <path d="M10.75 -9.45 Q10.3 -4.65 5.4 2.3 0.75 8.9 -4.35 12.65 L-4.65 10.1 Q-5.35 6.9 -7.45 3.9 -5.2 0.4 -2.9 -5.3 -0.15 -12.05 -0.1 -16.0 L0.0 -16.0 Q5.7 -13.75 10.75 -9.45" fill="url(#gradient4)" fill-rule="evenodd" stroke="none"/>
    <path d="M-0.1 -16.0 Q-0.15 -12.05 -2.9 -5.3 -5.2 0.4 -7.45 3.9 -9.55 0.85 -13.0 -2.0 L-14.45 -3.2 Q-14.5 -7.65 -12.65 -13.4 -11.2 -18.05 -9.1 -21.65 -5.45 -18.15 -0.1 -16.0" fill="url(#gradient5)" fill-rule="evenodd" stroke="none"/>
    <path d="M-0.1 -16.0 Q-0.15 -12.05 -2.9 -5.3 -5.2 0.4 -7.45 3.85" fill="none" stroke="url(#gradient6)" stroke-linecap="round" stroke-linejoin="round" stroke-width="0.25"/>
    <path d="M-10.0 -58.55 Q-12.55 -57.6 -14.25 -56.35" fill="none" stroke="url(#gradient7)" stroke-linecap="round" stroke-linejoin="round" stroke-width="0.25"/>
    <path d="M-14.2 -28.8 Q-20.55 -23.2 -21.8 -11.1" fill="none" stroke="url(#gradient8)" stroke-linecap="round" stroke-linejoin="round" stroke-width="0.25"/>
    <path d="M-15.15 -47.8 Q-20.3 -46.2 -23.6 -40.65" fill="none" stroke="url(#gradient9)" stroke-linecap="round" stroke-linejoin="round" stroke-width="0.25"/>
    <path d="M-16.05 -36.55 Q-23.35 -32.85 -25.85 -23.4" fill="none" stroke="url(#gradient10)" stroke-linecap="round" stroke-linejoin="round" stroke-width="0.25"/>
    <path d="M-9.2 -21.55 Q-11.2 -18.05 -12.65 -13.4 -14.5 -7.65 -14.45 -3.2" fill="none" stroke="url(#gradient11)" stroke-linecap="round" stroke-linejoin="round" stroke-width="0.25"/>
    <path d="M-4.35 12.65 Q0.2 9.9 5.15 2.75 10.3 -4.6 10.7 -9.45" fill="none" stroke="url(#gradient12)" stroke-linecap="round" stroke-linejoin="round" stroke-width="0.25"/>
    <path d="M2.0 19.0 Q7.35 17.7 12.35 12.4 17.95 6.45 18.85 -0.6" fill="none" stroke="url(#gradient13)" stroke-linecap="round" stroke-linejoin="round" stroke-width="0.25"/>
    <path d="M-5.0 17.0 Q11.3 19.25 24.0 13.0" fill="none" stroke="#000000" stroke-linecap="round" stroke-linejoin="round" stroke-opacity="0.2" stroke-width="2.0"/>
    <path d="M20.4 35.75 L-9.0 27.0 Q-5.75 21.9 -5.0 17.0 11.3 19.25 24.0 13.0 24.5 21.1 24.0 25.6 23.3 32.35 20.4 35.75" fill="url(#gradient14)" fill-rule="evenodd" stroke="none"/>
    <path d="M-6.0 21.0 Q1.4 22.6 10.3 21.65 18.7 20.75 24.05 18.1" fill="none" stroke="#000000" stroke-linecap="round" stroke-linejoin="round" stroke-opacity="0.2" stroke-width="1.0"/>
    <path d="M-3.3 -64.55 Q-4.1 -60.35 -3.6 -56.15 -3.25 -53.15 -2.1 -49.4" fill="none" stroke="url(#gradient15)" stroke-linecap="round" stroke-linejoin="round" stroke-width="0.25"/>
    <path d="M-10.0 -58.55 Q-10.25 -52.65 -8.5 -48.5 -7.9 -47.15 -5.8 -44.15" fill="none" stroke="url(#gradient16)" stroke-linecap="round" stroke-linejoin="round" stroke-width="0.25"/>
    <path d="M-15.15 -47.8 Q-14.5 -45.8 -13.25 -43.75 -11.05 -40.1 -8.4 -38.25" fill="none" stroke="url(#gradient17)" stroke-linecap="round" stroke-linejoin="round" stroke-width="0.25"/>
    <path d="M-16.05 -36.55 Q-14.85 -34.95 -13.15 -33.65 -11.35 -32.25 -9.35 -31.45" fill="none" stroke="url(#gradient18)" stroke-linecap="round" stroke-linejoin="round" stroke-width="0.25"/>
    <path d="M-14.2 -28.8 Q-11.25 -25.7 -8.15 -25.0" fill="none" stroke="url(#gradient19)" stroke-linecap="round" stroke-linejoin="round" stroke-width="0.25"/>
    <path d="M2.75 -54.05 Q1.95 -61.25 3.65 -66.9" fill="none" stroke="#000000" stroke-linecap="round" stroke-linejoin="round" stroke-opacity="0.2" stroke-width="2.0"/>
    <path d="M25.9 -60.8 L25.75 -60.45 25.2 -60.35 Q16.65 -61.7 8.35 -57.6 5.3 -56.1 2.75 -54.05 1.95 -61.25 3.65 -66.9 L15.35 -66.55 Q21.05 -65.05 25.7 -61.2 L25.9 -60.8" fill="url(#gradient20)" fill-rule="evenodd" stroke="none"/>
    <path d="M1.0 38.0 Q-9.35 29.4 -9.0 27.0 L3.2 28.8 Q16.75 30.2 23.65 28.2 21.75 37.1 14.85 41.5 8.25 45.7 2.0 43.0 0.1 42.2 1.0 38.0" fill="url(#gradient21)" fill-rule="evenodd" stroke="none"/>
    <path d="M12.15 40.95 Q11.45 41.65 10.4 41.65 9.4 41.65 8.6 40.95 7.9 40.15 7.9 39.15 7.9 38.15 8.6 37.35 9.4 36.65 10.4 36.65 11.45 36.65 12.15 37.35 12.9 38.15 12.9 39.15 12.9 40.15 12.15 40.95" fill="#000000" fill-rule="evenodd" stroke="none"/>
    <path d="M19.4 57.0 Q19.4 60.9 16.65 63.6 13.9 66.4 10.0 66.4 6.1 66.4 3.35 63.6 0.6 60.9 0.6 57.0 0.6 53.1 3.35 50.3 6.1 47.6 10.0 47.6 13.9 47.6 16.65 50.3 19.4 53.1 19.4 57.0 M16.6 57.0 Q16.6 54.25 14.65 52.3 12.75 50.4 10.0 50.4 7.25 50.4 5.35 52.3 3.4 54.25 3.4 57.0 3.4 59.75 5.35 61.6 7.25 63.6 10.0 63.6 12.75 63.6 14.65 61.6 16.6 59.75 16.6 57.0" fill="url(#gradient22)" fill-rule="evenodd" stroke="none"/>
    <path d="M11.25 46.15 L11.95 51.7 8.2 52.15 7.5 46.6 11.25 46.15" fill="#000000" fill-opacity="0.3019608" fill-rule="evenodd" stroke="none"/>
    <path d="M8.9 38.2 Q9.35 37.65 10.1 37.55 L10.55 37.45 Q11.3 37.35 11.85 37.75 12.45 38.25 12.55 39.0 L14.85 54.3 Q14.95 55.05 14.5 55.55 14.05 56.15 13.25 56.25 L12.75 56.35 Q12.0 56.45 11.55 56.0 10.95 55.6 10.85 54.85 L8.6 39.55 Q8.5 38.8 8.9 38.2" fill="url(#gradient23)" fill-rule="evenodd" stroke="none"/>
  </g>
  <defs>
    <radialGradient cx="0" cy="0" gradientTransform="matrix(0.0594, 0.0, 0.0, 0.0594, -4.2, -18.0)" gradientUnits="userSpaceOnUse" id="gradient0" r="819.2" spreadMethod="pad">
      <stop offset="0.13333333333333333" stop-color="#515151"/>
      <stop offset="0.5294117647058824" stop-color="#433e3d"/>
      <stop offset="0.8274509803921568" stop-color="#3e3c39"/>
      <stop offset="1.0" stop-color="#322e29"/>
    </radialGradient>
    <linearGradient gradientTransform="matrix(-0.0289, -0.0394, 0.0402, -0.0296, -0.45, -19.15)" gradientUnits="userSpaceOnUse" id="gradient1" spreadMethod="pad" x1="-819.2" x2="819.2">
      <stop offset="0.0" stop-color="#595151"/>
      <stop offset="0.0784313725490196" stop-color="#494443"/>
      <stop offset="0.28627450980392155" stop-color="#544f4e"/>
      <stop offset="0.5254901960784314" stop-color="#514744"/>
      <stop offset="0.6941176470588235" stop-color="#3d3a3a"/>
      <stop offset="0.8980392156862745" stop-color="#2e2927"/>
      <stop offset="1.0" stop-color="#303231"/>
    </linearGradient>
    <linearGradient gradientTransform="matrix(-0.007, -0.0107, 0.0413, -0.0272, 21.05, 9.2)" gradientUnits="userSpaceOnUse" id="gradient2" spreadMethod="pad" x1="-819.2" x2="819.2">
      <stop offset="0.22745098039215686" stop-color="#928989" stop-opacity="0.11372549"/>
      <stop offset="0.4196078431372549" stop-color="#686262" stop-opacity="0.25490198"/>
      <stop offset="0.8784313725490196" stop-color="#030303" stop-opacity="0.5921569"/>
    </linearGradient>
    <linearGradient gradientTransform="matrix(-0.0064, -0.0111, 0.0426, -0.0247, 22.8, -3.95)" gradientUnits="userSpaceOnUse" id="gradient3" spreadMethod="pad" x1="-819.2" x2="819.2">
      <stop offset="0.4588235294117647" stop-color="#585252" stop-opacity="0.09019608"/>
      <stop offset="1.0" stop-color="#030303" stop-opacity="0.7607843"/>
    </linearGradient>
    <linearGradient gradientTransform="matrix(-0.0078, -0.0136, 0.0427, -0.0246, 17.35, -11.7)" gradientUnits="userSpaceOnUse" id="gradient4" spreadMethod="pad" x1="-819.2" x2="819.2">
      <stop offset="0.44313725490196076" stop-color="#746867" stop-opacity="0.09019608"/>
      <stop offset="1.0" stop-color="#202020" stop-opacity="0.8235294"/>
    </linearGradient>
    <linearGradient gradientTransform="matrix(-0.008, -0.0102, 0.0388, -0.0302, 9.0, -22.2)" gradientUnits="userSpaceOnUse" id="gradient5" spreadMethod="pad" x1="-819.2" x2="819.2">
      <stop offset="0.4549019607843137" stop-color="#736662" stop-opacity="0.0"/>
      <stop offset="1.0" stop-color="#0c0a0a" stop-opacity="0.33333334"/>
    </linearGradient>
    <linearGradient gradientTransform="matrix(0.0099, -0.0119, 0.0366, 0.0303, -14.65, -14.6)" gradientUnits="userSpaceOnUse" id="gradient6" spreadMethod="pad" x1="-819.2" x2="819.2">
      <stop offset="0.0392156862745098" stop-color="#2d2828"/>
      <stop offset="0.18823529411764706" stop-color="#323030"/>
      <stop offset="1.0" stop-color="#625b5b"/>
    </linearGradient>
    <linearGradient gradientTransform="matrix(0.0049, 0.0, 0.0, 0.0475, -12.0, -20.75)" gradientUnits="userSpaceOnUse" id="gradient7" spreadMethod="pad" x1="-819.2" x2="819.2">
      <stop offset="0.011764705882352941" stop-color="#000000"/>
      <stop offset="0.4" stop-color="#2c2929"/>
      <stop offset="0.9607843137254902" stop-color="#524c4c"/>
    </linearGradient>
    <linearGradient gradientTransform="matrix(-0.0095, 0.0095, -0.0335, -0.0336, -21.25, -23.15)" gradientUnits="userSpaceOnUse" id="gradient8" spreadMethod="pad" x1="-819.2" x2="819.2">
      <stop offset="0.011764705882352941" stop-color="#262626"/>
      <stop offset="1.0" stop-color="#3d3a3a"/>
    </linearGradient>
    <linearGradient gradientTransform="matrix(-0.0073, 0.002, -0.0122, -0.0459, -26.45, -68.3)" gradientUnits="userSpaceOnUse" id="gradient9" spreadMethod="pad" x1="-819.2" x2="819.2">
      <stop offset="0.011764705882352941" stop-color="#060606"/>
      <stop offset="0.5294117647058824" stop-color="#2c2929"/>
      <stop offset="0.9607843137254902" stop-color="#393737"/>
    </linearGradient>
    <linearGradient gradientTransform="matrix(-0.0077, 0.0077, -0.0335, -0.0336, -29.5, -37.25)" gradientUnits="userSpaceOnUse" id="gradient10" spreadMethod="pad" x1="-819.2" x2="819.2">
      <stop offset="0.00784313725490196" stop-color="#202020"/>
      <stop offset="0.9607843137254902" stop-color="#4d4848"/>
    </linearGradient>
    <linearGradient gradientTransform="matrix(-0.0061, 0.0105, -0.0411, -0.0238, -10.35, -12.65)" gradientUnits="userSpaceOnUse" id="gradient11" spreadMethod="pad" x1="-819.2" x2="819.2">
      <stop offset="0.0" stop-color="#353535"/>
      <stop offset="0.9803921568627451" stop-color="#3d3a3a"/>
    </linearGradient>
    <linearGradient gradientTransform="matrix(0.0142, -0.0182, 0.0374, 0.0291, -19.5, -12.75)" gradientUnits="userSpaceOnUse" id="gradient12" spreadMethod="pad" x1="-819.2" x2="819.2">
      <stop offset="0.11764705882352941" stop-color="#202020"/>
      <stop offset="0.39215686274509803" stop-color="#464040"/>
      <stop offset="1.0" stop-color="#675f5f" stop-opacity="0.0"/>
    </linearGradient>
    <linearGradient gradientTransform="matrix(0.0168, -0.0103, 0.0249, 0.0404, -11.35, -21.45)" gradientUnits="userSpaceOnUse" id="gradient13" spreadMethod="pad" x1="-819.2" x2="819.2">
      <stop offset="0.09019607843137255" stop-color="#0e0e0e"/>
      <stop offset="1.0" stop-color="#655a5a" stop-opacity="0.0"/>
    </linearGradient>
    <radialGradient cx="0" cy="0" fx="-1401.6000000000001" fy="0" gradientTransform="matrix(0.0278, -0.0031, 0.0037, 0.0324, 6.8, 17.95)" gradientUnits="userSpaceOnUse" id="gradient14" r="819.2" spreadMethod="pad">
      <stop offset="0.0" stop-color="#ffffff"/>
      <stop offset="0.09803921568627451" stop-color="#e7dfc9"/>
      <stop offset="0.13333333333333333" stop-color="#d6bf7e"/>
      <stop offset="0.20784313725490197" stop-color="#b19f5b"/>
      <stop offset="0.3254901960784314" stop-color="#9b8c46"/>
      <stop offset="0.8" stop-color="#7d6b39"/>
    </radialGradient>
    <linearGradient gradientTransform="matrix(0.0072, 0.008, -0.018, 0.0163, -14.95, -46.1)" gradientUnits="userSpaceOnUse" id="gradient15" spreadMethod="pad" x1="-819.2" x2="819.2">
      <stop offset="0.0" stop-color="#342e2e"/>
      <stop offset="1.0" stop-color="#262626"/>
    </linearGradient>
    <linearGradient gradientTransform="matrix(0.0083, 0.0052, -0.013, 0.0205, -12.85, -45.85)" gradientUnits="userSpaceOnUse" id="gradient16" spreadMethod="pad" x1="-819.2" x2="819.2">
      <stop offset="0.054901960784313725" stop-color="#3c3535"/>
      <stop offset="1.0" stop-color="#2b2b2b"/>
    </linearGradient>
    <linearGradient gradientTransform="matrix(0.0073, 0.0039, -0.0115, 0.0213, -10.6, -44.55)" gradientUnits="userSpaceOnUse" id="gradient17" spreadMethod="pad" x1="-819.2" x2="819.2">
      <stop offset="0.0" stop-color="#3d3434"/>
      <stop offset="1.0" stop-color="#2b2b2b"/>
    </linearGradient>
    <linearGradient gradientTransform="matrix(0.0051, 0.0023, -0.0102, 0.022, -6.85, -45.15)" gradientUnits="userSpaceOnUse" id="gradient18" spreadMethod="pad" x1="-819.2" x2="819.2">
      <stop offset="0.0" stop-color="#363434"/>
      <stop offset="1.0" stop-color="#2b2b2b"/>
    </linearGradient>
    <linearGradient gradientTransform="matrix(0.0064, 0.0017, -0.0063, 0.0234, -5.25, -43.6)" gradientUnits="userSpaceOnUse" id="gradient19" spreadMethod="pad" x1="-819.2" x2="819.2">
      <stop offset="0.0" stop-color="#3d3a3a"/>
      <stop offset="1.0" stop-color="#2b2b2b"/>
    </linearGradient>
    <radialGradient cx="0" cy="0" gradientTransform="matrix(0.0303, 0.0029, -0.0025, 0.0254, 3.45, -55.05)" gradientUnits="userSpaceOnUse" id="gradient20" r="819.2" spreadMethod="pad">
      <stop offset="0.023529411764705882" stop-color="#caae60"/>
      <stop offset="0.3254901960784314" stop-color="#88753e"/>
      <stop offset="0.5294117647058824" stop-color="#7b6f37"/>
      <stop offset="0.7333333333333333" stop-color="#584b27"/>
      <stop offset="0.9490196078431372" stop-color="#66582f"/>
    </radialGradient>
    <linearGradient gradientTransform="matrix(0.0084, -0.0132, 0.0087, 0.0056, 10.9, 34.0)" gradientUnits="userSpaceOnUse" id="gradient21" spreadMethod="pad" x1="-819.2" x2="819.2">
      <stop offset="0.0392156862745098" stop-color="#958b40"/>
      <stop offset="0.24705882352941178" stop-color="#7b6f37"/>
      <stop offset="1.0" stop-color="#554a2b"/>
    </linearGradient>
    <radialGradient cx="0" cy="0" gradientTransform="matrix(0.0116, 0.0, 0.0, 0.0116, 10.0, 57.0)" gradientUnits="userSpaceOnUse" id="gradient22" r="819.2" spreadMethod="pad">
      <stop offset="0.0" stop-color="#bab167"/>
      <stop offset="0.3058823529411765" stop-color="#7b6f37"/>
      <stop offset="0.7294117647058823" stop-color="#756935"/>
      <stop offset="0.8313725490196079" stop-color="#b1a054"/>
      <stop offset="0.8862745098039215" stop-color="#b1a054"/>
      <stop offset="1.0" stop-color="#66582f"/>
    </radialGradient>
    <radialGradient cx="0" cy="0" fx="-1456.0" fy="0" gradientTransform="matrix(-0.0021, -0.0152, 0.0042, -6.0E-4, 11.7, 46.9)" gradientUnits="userSpaceOnUse" id="gradient23" r="819.2" spreadMethod="pad">
      <stop offset="0.054901960784313725" stop-color="#eae3b0"/>
      <stop offset="0.23921568627450981" stop-color="#d5c477"/>
      <stop offset="0.3568627450980392" stop-color="#bda55e"/>
      <stop offset="0.6549019607843137" stop-color="#706532"/>
      <stop offset="0.7843137254901961" stop-color="#4e4323"/>
      <stop offset="0.8666666666666667" stop-color="#4d3e24"/>
    </radialGradient>
  </defs>
</svg>
