<?xml version="1.0" encoding="UTF-8" standalone="no"?>
<svg xmlns:xlink="http://www.w3.org/1999/xlink" height="100.0px" width="77.0px" xmlns="http://www.w3.org/2000/svg">
  <g transform="matrix(1.0, 0.0, 0.0, 1.0, 38.5, 49.5)">
    <path d="M26.7 -29.0 Q27.75 -25.65 27.5 -21.55 L27.5 -21.45 Q27.0 -14.85 23.5 -14.55 L21.35 -14.5 Q22.8 -11.8 23.35 -8.7 L25.4 -3.8 25.45 -3.55 25.45 -2.4 25.4 -2.25 24.55 -1.05 24.5 -1.0 24.15 -0.75 Q25.2 8.95 26.55 14.3 L26.8 15.25 27.3 16.0 27.35 16.1 27.35 16.15 Q29.55 21.9 30.6 23.75 L30.65 23.95 30.9 25.25 31.2 25.85 Q31.65 26.6 31.45 27.5 L31.3 28.0 31.65 28.7 Q34.85 29.45 35.3 34.25 L35.65 36.8 37.15 37.85 Q38.5 39.2 38.5 41.0 38.5 42.8 37.15 44.15 35.8 45.5 34.0 45.5 L-4.0 45.5 -5.15 46.8 -5.2 46.85 Q-8.8 50.5 -14.0 50.5 -19.15 50.5 -22.85 46.8 L-24.0 45.5 -34.0 45.5 Q-35.8 45.5 -37.15 44.15 -38.5 42.8 -38.5 41.0 -38.5 39.2 -37.15 37.85 L-35.65 36.8 -35.3 34.25 Q-34.85 29.45 -31.65 28.7 L-31.3 28.0 -31.45 27.5 Q-31.65 26.6 -31.2 25.85 L-30.9 25.25 -30.65 23.95 -30.55 23.75 Q-29.55 21.9 -27.3 16.15 L-27.3 16.05 -27.25 16.0 -26.75 15.25 -26.5 14.3 Q-25.2 8.95 -24.15 -0.75 L-24.5 -1.0 -24.55 -1.05 Q-25.15 -1.5 -25.35 -2.25 L-25.4 -2.4 -25.4 -3.6 -25.35 -3.8 -23.3 -8.8 Q-22.75 -11.85 -21.3 -14.5 L-23.45 -14.55 Q-27.0 -14.85 -27.5 -21.45 L-27.5 -21.55 Q-27.75 -25.65 -26.65 -29.0 -27.75 -32.35 -27.5 -36.4 L-27.5 -36.45 -27.5 -36.5 Q-27.0 -43.15 -23.45 -43.45 -21.2 -44.05 -13.95 -41.35 L-10.1 -39.85 Q-10.35 -41.55 -9.1 -43.35 -7.95 -45.8 -5.5 -47.55 L-5.4 -47.6 Q-2.7 -49.5 -0.05 -49.5 L0.05 -49.5 Q2.7 -49.5 5.45 -47.6 8.15 -45.65 9.3 -43.0 L9.4 -42.75 Q10.25 -41.25 10.05 -39.8 L14.0 -41.35 Q21.2 -44.05 23.45 -43.45 27.0 -43.15 27.5 -36.5 L27.5 -36.4 Q27.75 -32.35 26.7 -29.0" fill="#000000" fill-rule="evenodd" stroke="none"/>
    <path d="M-21.1 45.05 Q-24.0 42.15 -24.0 38.0 -24.0 33.85 -21.1 30.9 -18.15 28.0 -14.0 28.0 -9.85 28.0 -6.95 30.9 -4.0 33.85 -4.0 38.0 -4.0 42.15 -6.95 45.05 -9.85 48.0 -14.0 48.0 -18.15 48.0 -21.1 45.05" fill="url(#gradient0)" fill-rule="evenodd" stroke="none"/>
    <path d="M34.0 39.0 Q34.8 39.0 35.4 39.6 36.0 40.2 36.0 41.0 36.0 41.8 35.4 42.4 34.8 43.0 34.0 43.0 L-34.0 43.0 Q-34.8 43.0 -35.4 42.4 -36.0 41.8 -36.0 41.0 -36.0 40.2 -35.4 39.6 -34.8 39.0 -34.0 39.0 L34.0 39.0" fill="url(#gradient1)" fill-rule="evenodd" stroke="none"/>
    <path d="M0.0 31.0 L30.0 31.0 Q32.5 31.05 32.8 34.5 33.2 38.5 34.0 39.0 L0.0 39.0 -34.0 39.0 Q-33.2 38.5 -32.8 34.5 -32.5 31.05 -30.0 31.0 L0.0 31.0" fill="url(#gradient2)" fill-rule="evenodd" stroke="none"/>
    <path d="M28.0 27.0 L30.0 31.0 -30.0 31.0 -28.0 27.0 0.0 27.0 28.0 27.0" fill="url(#gradient3)" fill-rule="evenodd" stroke="none"/>
    <path d="M7.0 -39.0 Q3.55 -36.15 4.0 -30.3 4.45 -24.25 9.0 -22.0 L0.0 -22.0 -9.0 -22.0 Q-4.45 -24.25 -4.0 -30.3 -3.55 -36.15 -7.0 -39.0 L0.0 -39.0 7.0 -39.0" fill="url(#gradient4)" fill-rule="evenodd" stroke="none"/>
    <path d="M6.95 -42.0 Q8.1 -40.4 6.95 -39.0 L-7.0 -39.0 Q-8.15 -40.4 -7.0 -42.0 L0.0 -42.0 6.95 -42.0" fill="url(#gradient5)" fill-rule="evenodd" stroke="none"/>
    <path d="M4.0 -45.55 Q6.1 -44.05 7.0 -42.0 L-7.0 -42.0 Q-6.1 -44.05 -4.0 -45.55 -1.95 -46.95 0.0 -47.0 1.95 -46.95 4.0 -45.55" fill="url(#gradient6)" fill-rule="evenodd" stroke="none"/>
    <path d="M9.3 -22.0 L11.25 -21.0 -11.2 -21.0 -9.25 -22.0 Q-4.9 -24.0 0.0 -24.0 4.9 -24.0 9.3 -22.0" fill="url(#gradient7)" fill-rule="evenodd" stroke="none"/>
    <path d="M21.0 -7.0 Q22.3 7.8 24.1 14.9 25.3 19.6 28.0 25.0 L-27.95 25.0 Q-25.3 19.6 -24.1 14.9 -22.3 7.8 -21.0 -7.0 -20.65 -10.85 -18.75 -14.0 L18.8 -14.0 Q20.65 -10.85 21.0 -7.0" fill="url(#gradient8)" fill-rule="evenodd" stroke="none"/>
    <path d="M0.0 27.0 L-29.0 27.0 -27.95 25.0 28.0 25.0 29.0 27.0 0.0 27.0" fill="url(#gradient9)" fill-rule="evenodd" stroke="none"/>
    <path d="M1.05 -13.05 L1.5 -12.0 1.25 -11.15 1.25 -11.0 1.25 -7.95 2.0 -8.25 2.8 -7.9 2.85 -7.85 2.9 -7.8 3.25 -7.0 Q3.25 -6.5 2.85 -6.1 L1.25 -4.5 1.25 -3.15 1.95 -4.3 1.9 -4.25 Q2.15 -4.8 2.75 -4.9 L3.6 -4.75 3.6 -4.8 Q4.1 -4.55 4.2 -3.95 4.35 -3.5 4.1 -3.05 L3.4 -1.9 4.6 -2.55 5.15 -4.8 5.15 -4.85 5.7 -5.55 5.75 -5.6 6.65 -5.7 7.45 -5.05 7.45 -5.1 7.55 -4.25 10.2 -5.8 10.4 -5.9 10.95 -6.5 12.1 -6.65 13.0 -6.0 13.15 -4.85 Q13.0 -4.25 12.45 -3.95 L11.65 -3.75 11.5 -3.65 11.45 -3.65 8.8 -2.15 9.45 -1.55 9.45 -1.6 Q9.7 -1.2 9.55 -0.7 9.45 -0.15 8.95 0.1 L8.1 0.25 8.0 0.25 5.8 -0.4 4.65 0.25 6.0 0.25 Q6.45 0.25 6.8 0.6 L6.85 0.65 6.9 0.7 Q7.25 1.05 7.25 1.5 L6.9 2.3 6.85 2.35 6.8 2.4 Q6.45 2.75 6.0 2.75 L4.65 2.75 5.8 3.45 8.0 2.8 8.1 2.75 8.95 2.95 8.95 2.9 Q9.45 3.15 9.55 3.75 9.7 4.2 9.45 4.6 L8.8 5.15 11.45 6.7 11.5 6.7 11.65 6.8 Q12.05 6.75 12.45 7.0 13.0 7.25 13.15 7.9 L13.0 9.0 12.1 9.7 10.95 9.55 10.4 8.95 10.2 8.85 7.55 7.3 7.45 8.1 6.65 8.7 5.75 8.6 5.7 8.6 5.15 7.85 4.6 5.6 3.4 4.9 4.1 6.05 4.1 6.1 Q4.35 6.5 4.2 7.0 4.1 7.55 3.6 7.8 L2.75 7.9 Q2.15 7.8 1.9 7.3 L1.95 7.3 1.25 6.15 1.25 7.5 2.85 9.1 Q3.25 9.5 3.25 10.0 L2.9 10.8 2.85 10.85 2.8 10.9 Q2.45 11.25 2.0 11.25 L1.25 11.0 1.25 14.0 1.25 14.2 1.5 15.0 1.05 16.05 0.0 16.5 -1.05 16.05 -1.5 15.0 -1.25 14.2 -1.25 14.0 -1.25 11.0 -2.0 11.25 Q-2.45 11.25 -2.8 10.9 L-2.85 10.85 -2.9 10.8 -3.25 10.0 Q-3.25 9.5 -2.85 9.1 L-1.25 7.5 -1.25 6.15 -1.9 7.3 Q-2.15 7.8 -2.7 7.9 L-3.6 7.8 -3.55 7.8 Q-4.1 7.55 -4.2 7.0 -4.35 6.5 -4.1 6.1 L-4.05 6.05 -3.4 4.9 -4.55 5.6 -5.1 7.85 -5.7 8.6 -6.6 8.7 Q-7.2 8.6 -7.45 8.1 L-7.4 8.1 Q-7.65 7.7 -7.55 7.3 L-10.2 8.85 -10.15 8.85 -10.35 8.95 -10.95 9.55 -12.05 9.7 Q-12.7 9.55 -12.95 9.0 L-13.1 7.9 Q-13.0 7.25 -12.45 7.0 L-11.6 6.8 -11.45 6.7 -8.8 5.15 -9.45 4.6 -9.4 4.6 -9.55 3.75 Q-9.45 3.15 -8.9 2.9 L-8.95 2.95 -8.05 2.75 -8.0 2.8 -5.8 3.45 -4.65 2.75 -6.0 2.75 Q-6.45 2.75 -6.8 2.4 L-6.85 2.35 -6.9 2.3 -7.25 1.5 Q-7.25 1.0 -6.85 0.65 -6.5 0.25 -6.0 0.25 L-4.65 0.25 -5.8 -0.4 -8.0 0.2 -8.95 0.1 -9.55 -0.65 Q-9.7 -1.2 -9.4 -1.6 L-8.8 -2.15 -11.45 -3.65 -11.6 -3.75 -12.45 -3.95 Q-13.0 -4.25 -13.1 -4.85 L-12.95 -6.0 -12.05 -6.65 -10.95 -6.5 -10.35 -5.9 -10.2 -5.8 -7.55 -4.25 -7.4 -5.1 -6.65 -5.7 -5.7 -5.55 -5.15 -4.8 -4.55 -2.55 -3.4 -1.9 -4.05 -3.05 Q-4.35 -3.55 -4.2 -4.0 L-3.6 -4.75 -2.65 -4.9 -1.9 -4.3 -1.25 -3.15 -1.25 -4.5 -2.85 -6.1 Q-3.25 -6.5 -3.25 -7.0 -3.25 -7.5 -2.85 -7.85 -2.5 -8.25 -2.0 -8.25 L-1.25 -8.0 -1.25 -11.0 -1.25 -11.15 -1.5 -12.0 -1.05 -13.05 0.0 -13.5 1.05 -13.05" fill="url(#gradient10)" fill-rule="evenodd" stroke="none"/>
    <path d="M0.0 -12.0 L0.0 -5.0 2.0 -7.0 M6.35 -4.5 L5.65 -1.75 11.7 -5.25 M5.65 -1.75 L8.35 -1.0 M0.0 -5.0 L0.0 -1.45 2.0 -1.95 3.0 -3.7 M8.35 4.0 L5.65 4.75 11.7 8.25 M2.55 0.05 L0.0 1.5 2.55 3.0 2.55 2.95 4.0 1.5 2.55 0.05 5.65 -1.75 M0.0 1.5 L0.0 4.45 2.0 4.95 2.55 3.0 5.65 4.75 6.35 7.5 M0.0 4.45 L0.0 8.0 2.0 10.0 M3.0 6.7 L2.0 4.95 M4.0 1.5 L6.0 1.5 M0.0 8.0 L0.0 15.0 M0.0 -1.45 L0.0 1.5 -2.55 0.05 -4.0 1.5 -2.55 2.95 -2.55 3.0 0.0 1.5 M2.0 -1.95 L2.55 0.05 M-3.0 -3.7 L-2.0 -1.95 0.0 -1.45 M-8.35 -1.0 L-5.65 -1.75 -11.7 -5.25 M-5.65 -1.75 L-6.35 -4.5 M-2.55 3.0 L-2.0 4.95 0.0 4.45 M-8.35 4.0 L-5.65 4.75 -2.55 3.0 M-6.35 7.5 L-5.65 4.75 -11.7 8.25 M-6.0 1.5 L-4.0 1.5 M-3.0 6.7 L-2.0 4.95 M-5.65 -1.75 L-2.55 0.05 -2.0 -1.95 M-2.0 10.0 L0.0 8.0 M-2.0 -7.0 L0.0 -5.0" fill="none" stroke="url(#gradient11)" stroke-linecap="round" stroke-linejoin="round" stroke-width="1.5"/>
    <path d="M0.7 -12.7 L1.0 -12.0 0.7 -11.3 Q0.4 -11.0 0.0 -11.0 -0.4 -11.0 -0.7 -11.3 L-1.0 -12.0 -0.7 -12.7 0.0 -13.0 0.7 -12.7 M10.75 -5.5 L11.2 -6.1 11.95 -6.2 12.55 -5.75 12.65 -5.0 12.2 -4.4 11.45 -4.3 10.85 -4.75 Q10.65 -5.1 10.75 -5.5 M12.65 8.0 L12.55 8.75 11.95 9.2 11.15 9.1 10.7 8.5 Q10.6 8.1 10.8 7.75 L11.4 7.3 12.15 7.35 12.65 8.0 M0.0 16.0 L-0.7 15.7 -1.0 15.0 -0.7 14.3 Q-0.4 14.0 0.0 14.0 0.4 14.0 0.7 14.3 L1.0 15.0 0.7 15.7 0.0 16.0 M-11.45 -4.3 L-12.2 -4.4 -12.65 -5.0 -12.55 -5.75 -11.95 -6.2 -11.2 -6.1 -10.75 -5.5 Q-10.65 -5.1 -10.85 -4.75 L-11.45 -4.3 M-11.95 9.2 L-12.55 8.75 -12.65 8.0 -12.15 7.4 -11.4 7.3 -10.8 7.75 Q-10.6 8.1 -10.7 8.5 L-11.15 9.15 -11.95 9.2" fill="#ffffff" fill-rule="evenodd" stroke="none"/>
    <path d="M11.25 -21.0 L13.3 -19.7 Q16.85 -17.2 18.8 -14.0 L-18.75 -14.0 Q-16.8 -17.2 -13.25 -19.7 L-11.2 -21.0 11.25 -21.0" fill="url(#gradient12)" fill-rule="evenodd" stroke="none"/>
    <path d="M0.0 17.0 L25.0 17.0 Q27.3 23.05 28.4 25.0 L0.0 25.0 -28.4 25.0 Q-27.3 23.05 -25.0 17.0 L0.0 17.0" fill="url(#gradient13)" fill-rule="evenodd" stroke="none"/>
    <path d="M9.0 -24.0 Q13.65 -19.55 17.25 -14.15 21.05 -8.55 23.0 -3.0 18.85 -5.6 14.0 -7.0 L7.0 3.0 Q6.15 -14.0 0.0 -24.0 L9.0 -24.0" fill="url(#gradient14)" fill-rule="evenodd" stroke="none"/>
    <path d="M0.0 -24.0 Q-6.15 -14.0 -7.0 3.0 L-14.0 -7.0 Q-18.85 -5.6 -23.0 -3.0 -21.05 -8.55 -17.25 -14.15 -13.65 -19.55 -9.0 -24.0 L0.0 -24.0" fill="url(#gradient15)" fill-rule="evenodd" stroke="none"/>
    <path d="M23.0 -41.0 Q24.7 -40.55 25.0 -36.35 25.25 -32.25 24.0 -29.0 25.25 -25.75 25.0 -21.65 24.7 -17.45 23.0 -17.0 21.3 -16.55 14.85 -18.95 8.65 -21.25 4.0 -24.0 L4.0 -34.0 Q8.65 -36.75 14.85 -39.05 21.3 -41.45 23.0 -41.0" fill="url(#gradient16)" fill-rule="evenodd" stroke="none"/>
    <path d="M-4.0 -34.0 L-4.0 -24.0 Q-8.65 -21.25 -14.85 -18.95 -21.3 -16.55 -23.0 -17.0 -24.7 -17.45 -25.0 -21.65 -25.25 -25.75 -24.0 -29.0 -25.25 -32.25 -25.0 -36.35 -24.7 -40.55 -23.0 -41.0 -21.3 -41.45 -14.85 -39.05 -8.65 -36.75 -4.0 -34.0" fill="url(#gradient17)" fill-rule="evenodd" stroke="none"/>
    <path d="M0.0 -24.0 L-2.7 -23.1 -5.0 -23.0 Q-6.2 -24.15 -6.25 -29.0 -6.3 -33.9 -5.0 -35.0 L-2.55 -34.85 0.0 -34.0 Q0.4 -34.0 2.6 -34.9 L5.05 -35.05 Q6.35 -33.95 6.3 -29.05 6.25 -24.2 5.05 -23.05 L2.8 -23.15 Q0.75 -24.05 0.0 -24.0" fill="url(#gradient18)" fill-rule="evenodd" stroke="none"/>
    <path d="M25.05 -34.0 Q25.15 -30.75 24.35 -28.0 L24.0 -29.0 Q24.9 -31.3 25.05 -34.0 M5.25 -21.25 L5.1 -21.1 5.05 -21.05 Q4.3 -20.3 2.75 -20.75 L1.55 -21.2 Q6.25 -11.75 7.0 3.0 L14.0 -7.0 Q17.5 -6.0 20.65 -4.35 L22.0 -1.0 Q17.85 -3.6 13.0 -5.0 L6.0 5.0 Q5.6 -3.2 4.15 -10.6 2.9 -17.1 1.2 -21.4 L0.0 -22.0 -1.2 -21.4 Q-2.9 -17.2 -4.15 -10.75 -5.6 -3.25 -6.0 5.0 L-13.0 -5.0 Q-17.85 -3.6 -22.0 -1.0 L-20.65 -4.35 Q-17.5 -6.0 -14.0 -7.0 L-7.0 3.0 Q-6.25 -11.75 -1.5 -21.25 L-2.7 -20.75 Q-4.2 -20.3 -4.95 -20.95 L-5.0 -21.0 -5.25 -21.3 Q-9.45 -18.95 -14.85 -16.95 -21.3 -14.55 -23.0 -15.0 -24.7 -15.45 -25.0 -19.65 L-25.0 -21.95 -25.0 -21.65 Q-24.7 -17.45 -23.0 -17.0 -21.3 -16.55 -14.85 -18.95 -9.45 -20.95 -5.25 -23.3 L-5.0 -23.0 -4.95 -22.95 -2.7 -23.1 0.0 -24.0 Q0.75 -24.05 2.8 -23.15 L5.05 -23.05 5.25 -23.25 Q9.45 -20.95 14.85 -18.95 21.3 -16.55 23.0 -17.0 24.7 -17.45 25.0 -21.65 L25.05 -21.95 25.0 -19.65 Q24.7 -15.45 23.0 -15.0 21.3 -14.55 14.85 -16.95 L6.35 -20.7 Q5.75 -20.95 5.25 -21.25 M30.0 29.0 L-30.0 29.0 -30.0 27.0 30.0 27.0 30.0 29.0 M-24.35 -28.0 Q-25.15 -30.75 -25.0 -34.0 -24.9 -31.3 -24.0 -29.0 L-24.35 -28.0 M-4.0 43.0 L-4.0 44.0 -24.0 44.0 -24.0 43.0 -4.0 43.0" fill="#000000" fill-opacity="0.2" fill-rule="evenodd" stroke="none"/>
  </g>
  <defs>
    <radialGradient cx="0" cy="0" gradientTransform="matrix(0.0109, 0.0, 0.0, 0.0058, -14.0, 43.15)" gradientUnits="userSpaceOnUse" id="gradient0" r="819.2" spreadMethod="pad">
      <stop offset="0.0392156862745098" stop-color="#ffffff"/>
      <stop offset="0.2196078431372549" stop-color="#e3f1f7"/>
      <stop offset="0.32941176470588235" stop-color="#ddeaf5"/>
      <stop offset="0.4117647058823529" stop-color="#c7dfef"/>
      <stop offset="0.8274509803921568" stop-color="#83a9c2"/>
      <stop offset="0.9882352941176471" stop-color="#a6bfd0"/>
    </radialGradient>
    <radialGradient cx="0" cy="0" gradientTransform="matrix(0.0488, 0.0, 0.0, 0.0051, 0.0, 41.0)" gradientUnits="userSpaceOnUse" id="gradient1" r="819.2" spreadMethod="pad">
      <stop offset="0.1568627450980392" stop-color="#ffffff"/>
      <stop offset="0.20784313725490197" stop-color="#eef8fb"/>
      <stop offset="0.2627450980392157" stop-color="#e1f0f9"/>
      <stop offset="0.4470588235294118" stop-color="#b7d5f0"/>
      <stop offset="0.6470588235294118" stop-color="#76a0c9"/>
      <stop offset="0.8470588235294118" stop-color="#4978a7"/>
      <stop offset="1.0" stop-color="#769bc0"/>
    </radialGradient>
    <radialGradient cx="0" cy="0" fx="358.40000000000003" fy="0" gradientTransform="matrix(0.0, -0.0806, 0.0403, 0.0, 0.0, 60.0)" gradientUnits="userSpaceOnUse" id="gradient2" r="819.2" spreadMethod="pad">
      <stop offset="0.0784313725490196" stop-color="#ffffff"/>
      <stop offset="0.10588235294117647" stop-color="#eef8fb"/>
      <stop offset="0.3333333333333333" stop-color="#b1d7ef"/>
      <stop offset="0.8235294117647058" stop-color="#497298"/>
      <stop offset="0.8862745098039215" stop-color="#416a94"/>
      <stop offset="1.0" stop-color="#4775a3"/>
    </radialGradient>
    <radialGradient cx="0" cy="0" gradientTransform="matrix(0.0, -0.0444, 0.0444, 0.0, 0.0, 29.0)" gradientUnits="userSpaceOnUse" id="gradient3" r="819.2" spreadMethod="pad">
      <stop offset="0.1450980392156863" stop-color="#bddaec"/>
      <stop offset="0.3333333333333333" stop-color="#a0cfe4"/>
      <stop offset="0.6588235294117647" stop-color="#4b88a5"/>
      <stop offset="1.0" stop-color="#4e88a3"/>
    </radialGradient>
    <radialGradient cx="0" cy="0" gradientTransform="matrix(0.0098, 0.0, 0.0, 0.0121, 0.0, -39.0)" gradientUnits="userSpaceOnUse" id="gradient4" r="819.2" spreadMethod="pad">
      <stop offset="0.2196078431372549" stop-color="#e3f1f7"/>
      <stop offset="0.32941176470588235" stop-color="#ddeaf5"/>
      <stop offset="0.4117647058823529" stop-color="#c7dfef"/>
      <stop offset="0.6196078431372549" stop-color="#94bbcd"/>
      <stop offset="0.9176470588235294" stop-color="#82a6bd"/>
    </radialGradient>
    <radialGradient cx="0" cy="0" gradientTransform="matrix(0.0109, 0.0, 0.0, 0.004, 0.0, -40.5)" gradientUnits="userSpaceOnUse" id="gradient5" r="819.2" spreadMethod="pad">
      <stop offset="0.13725490196078433" stop-color="#ffffff"/>
      <stop offset="0.29411764705882354" stop-color="#e3f1f7"/>
      <stop offset="0.3568627450980392" stop-color="#ddeaf5"/>
      <stop offset="0.5490196078431373" stop-color="#c7dfef"/>
      <stop offset="0.8117647058823529" stop-color="#94bbcd"/>
      <stop offset="0.9568627450980393" stop-color="#bad2da"/>
    </radialGradient>
    <radialGradient cx="0" cy="0" gradientTransform="matrix(0.0103, 0.0, 0.0, 0.0077, 0.0, -42.0)" gradientUnits="userSpaceOnUse" id="gradient6" r="819.2" spreadMethod="pad">
      <stop offset="0.0392156862745098" stop-color="#ffffff"/>
      <stop offset="0.2196078431372549" stop-color="#e3f1f7"/>
      <stop offset="0.32941176470588235" stop-color="#ddeaf5"/>
      <stop offset="0.4117647058823529" stop-color="#c7dfef"/>
      <stop offset="0.6196078431372549" stop-color="#94bbcd"/>
      <stop offset="0.9176470588235294" stop-color="#a7c2cf"/>
    </radialGradient>
    <radialGradient cx="0" cy="0" fx="563.2" fy="0" gradientTransform="matrix(0.0, -0.0672, 0.0374, 0.0, 0.0, 28.0)" gradientUnits="userSpaceOnUse" id="gradient7" r="819.2" spreadMethod="pad">
      <stop offset="0.16470588235294117" stop-color="#4f92a8"/>
      <stop offset="0.8470588235294118" stop-color="#82a6bd"/>
    </radialGradient>
    <radialGradient cx="0" cy="0" fx="121.60000000000001" fy="0" gradientTransform="matrix(0.0, -0.0879, 0.0374, 0.0, 0.0, 28.0)" gradientUnits="userSpaceOnUse" id="gradient8" r="819.2" spreadMethod="pad">
      <stop offset="0.09019607843137255" stop-color="#ffffff"/>
      <stop offset="0.2" stop-color="#e3f1f7"/>
      <stop offset="0.25882352941176473" stop-color="#ddeaf5"/>
      <stop offset="0.3607843137254902" stop-color="#c7dfef"/>
      <stop offset="0.5607843137254902" stop-color="#94bbcd"/>
      <stop offset="0.6509803921568628" stop-color="#88aec7"/>
      <stop offset="0.8274509803921568" stop-color="#cfdee7"/>
    </radialGradient>
    <radialGradient cx="0" cy="0" fx="44.800000000000004" fy="0" gradientTransform="matrix(0.0, -0.0672, 0.0374, 0.0, 0.0, 28.0)" gradientUnits="userSpaceOnUse" id="gradient9" r="819.2" spreadMethod="pad">
      <stop offset="0.0" stop-color="#ffffff"/>
      <stop offset="0.1843137254901961" stop-color="#e3f1f7"/>
      <stop offset="0.28627450980392155" stop-color="#ddeaf5"/>
      <stop offset="0.4" stop-color="#c7dfef"/>
      <stop offset="0.7176470588235294" stop-color="#689ec1"/>
      <stop offset="0.9058823529411765" stop-color="#a7c6cf"/>
    </radialGradient>
    <radialGradient cx="0" cy="0" gradientTransform="matrix(0.0, -0.0189, 0.0189, 0.0, 0.0, 1.5)" gradientUnits="userSpaceOnUse" id="gradient10" r="819.2" spreadMethod="pad">
      <stop offset="0.00784313725490196" stop-color="#94bbcd"/>
      <stop offset="1.0" stop-color="#5788a8"/>
    </radialGradient>
    <radialGradient cx="0" cy="0" gradientTransform="matrix(0.0174, 0.0, 0.0, 0.0174, 0.0, 1.5)" gradientUnits="userSpaceOnUse" id="gradient11" r="819.2" spreadMethod="pad">
      <stop offset="0.0" stop-color="#ffffff"/>
      <stop offset="0.39215686274509803" stop-color="#ffffff"/>
    </radialGradient>
    <radialGradient cx="0" cy="0" fx="380.8" fy="0" gradientTransform="matrix(0.0, -0.0261, 0.0261, 0.0, 0.0, -4.0)" gradientUnits="userSpaceOnUse" id="gradient12" r="819.2" spreadMethod="pad">
      <stop offset="0.13333333333333333" stop-color="#9dbdd2"/>
      <stop offset="0.6666666666666666" stop-color="#44729d"/>
      <stop offset="0.8627450980392157" stop-color="#7098c0"/>
    </radialGradient>
    <radialGradient cx="0" cy="0" fx="486.40000000000003" fy="0" gradientTransform="matrix(0.0, -0.0488, 0.0379, 0.0, 0.0, 38.0)" gradientUnits="userSpaceOnUse" id="gradient13" r="819.2" spreadMethod="pad">
      <stop offset="0.09803921568627451" stop-color="#ffffff"/>
      <stop offset="0.12941176470588237" stop-color="#f3fbfc"/>
      <stop offset="0.30196078431372547" stop-color="#ddeaf5"/>
      <stop offset="0.615686274509804" stop-color="#85adc7"/>
      <stop offset="0.7803921568627451" stop-color="#8cb0c8"/>
      <stop offset="0.8823529411764706" stop-color="#b9cee1"/>
    </radialGradient>
    <linearGradient gradientTransform="matrix(-0.0034, -0.0161, -0.0161, 0.0034, 11.4, -11.85)" gradientUnits="userSpaceOnUse" id="gradient14" spreadMethod="pad" x1="-819.2" x2="819.2">
      <stop offset="0.0" stop-color="#235587"/>
      <stop offset="0.20784313725490197" stop-color="#2355b1"/>
      <stop offset="0.5607843137254902" stop-color="#2072df"/>
      <stop offset="0.6980392156862745" stop-color="#2365be"/>
      <stop offset="0.8235294117647058" stop-color="#213d8f"/>
    </linearGradient>
    <linearGradient gradientTransform="matrix(0.0034, -0.0161, 0.0161, 0.0034, -11.4, -11.85)" gradientUnits="userSpaceOnUse" id="gradient15" spreadMethod="pad" x1="-819.2" x2="819.2">
      <stop offset="0.0" stop-color="#235587"/>
      <stop offset="0.20784313725490197" stop-color="#2355b1"/>
      <stop offset="0.5607843137254902" stop-color="#2072df"/>
      <stop offset="0.6980392156862745" stop-color="#2365be"/>
      <stop offset="0.8235294117647058" stop-color="#213d8f"/>
    </linearGradient>
    <radialGradient cx="0" cy="0" fx="585.6" fy="0" gradientTransform="matrix(-0.0248, 2.0E-4, 1.0E-4, 0.0138, 16.0, -29.0)" gradientUnits="userSpaceOnUse" id="gradient16" r="819.2" spreadMethod="pad">
      <stop offset="0.10196078431372549" stop-color="#20569f"/>
      <stop offset="0.18823529411764706" stop-color="#17437d"/>
      <stop offset="0.3411764705882353" stop-color="#2160b4"/>
      <stop offset="0.5098039215686274" stop-color="#2059a6"/>
      <stop offset="0.7215686274509804" stop-color="#134b97"/>
      <stop offset="0.9372549019607843" stop-color="#183c7c"/>
    </radialGradient>
    <radialGradient cx="0" cy="0" fx="585.6" fy="0" gradientTransform="matrix(0.0248, 2.0E-4, -1.0E-4, 0.0138, -16.0, -29.0)" gradientUnits="userSpaceOnUse" id="gradient17" r="819.2" spreadMethod="pad">
      <stop offset="0.10196078431372549" stop-color="#20569f"/>
      <stop offset="0.18823529411764706" stop-color="#17437d"/>
      <stop offset="0.3411764705882353" stop-color="#2160b4"/>
      <stop offset="0.5098039215686274" stop-color="#2059a6"/>
      <stop offset="0.7215686274509804" stop-color="#134b97"/>
      <stop offset="0.9372549019607843" stop-color="#183c7c"/>
    </radialGradient>
    <radialGradient cx="0" cy="0" gradientTransform="matrix(0.0073, 0.0, 0.0, 0.0082, 0.0, -29.0)" gradientUnits="userSpaceOnUse" id="gradient18" r="819.2" spreadMethod="pad">
      <stop offset="0.11372549019607843" stop-color="#2c70cb"/>
      <stop offset="0.5058823529411764" stop-color="#2963cd"/>
      <stop offset="0.7294117647058823" stop-color="#255abc"/>
      <stop offset="1.0" stop-color="#2150a5"/>
    </radialGradient>
  </defs>
</svg>
