<?xml version="1.0" encoding="UTF-8" standalone="no"?>
<svg xmlns:xlink="http://www.w3.org/1999/xlink" height="113.3px" width="116.5px" xmlns="http://www.w3.org/2000/svg">
  <g transform="matrix(1.0, 0.0, 0.0, 1.0, 59.35, 59.0)">
    <path d="M49.75 -58.85 L49.9 -58.85 Q52.95 -58.4 53.7 -54.65 L53.7 -54.6 53.7 -54.55 53.75 -54.35 Q54.1 -52.15 53.45 -49.6 L53.1 -48.35 53.4 -48.2 53.7 -48.15 Q56.85 -46.85 57.05 -44.75 L57.1 -44.6 57.1 -44.55 Q57.25 -43.5 57.05 -42.7 L57.05 -42.55 Q56.95 -41.7 56.35 -40.7 L56.35 -40.85 56.3 -40.7 56.3 -40.65 56.3 -40.6 56.15 -40.4 56.05 -40.3 56.0 -40.25 56.0 -40.2 55.8 -39.9 55.75 -39.85 55.7 -39.85 55.3 -39.5 Q55.9 -38.4 55.85 -37.15 L55.85 -37.1 Q56.05 -34.45 52.95 -32.6 52.1 -32.1 51.15 -31.75 L51.85 -30.75 51.85 -30.7 51.9 -30.65 51.9 -30.6 51.95 -30.5 51.95 -30.45 52.0 -30.4 52.0 -30.35 52.1 -30.2 52.05 -30.25 52.4 -28.5 52.4 -28.4 52.4 -28.25 52.4 -28.15 52.4 -28.05 52.4 -27.95 52.4 -27.85 51.65 -25.8 51.6 -25.75 51.55 -25.7 51.5 -25.6 51.45 -25.5 51.25 -25.2 51.2 -25.15 51.1 -25.05 51.05 -25.0 51.0 -24.9 50.95 -24.85 50.65 -24.6 50.65 -24.55 49.85 -23.95 49.75 -23.85 49.6 -23.8 49.65 -23.8 49.45 -23.7 49.25 -23.6 49.15 -23.55 49.0 -23.5 Q46.65 -22.5 43.45 -22.8 L42.15 -22.95 42.05 -22.95 41.55 -23.15 40.5 -23.45 Q41.65 -22.6 41.9 -21.25 L41.9 -21.2 41.9 -21.05 41.9 -21.0 41.9 -20.95 Q42.0 -19.75 41.3 -18.65 L41.2 -18.5 41.0 -18.3 40.9 -18.15 Q41.95 -16.8 41.85 -15.15 L41.85 -15.1 Q41.85 -14.05 41.35 -13.0 L41.35 -12.95 41.35 -12.7 Q41.4 -11.35 41.0 -10.4 L41.0 -10.45 41.0 -10.4 40.95 -10.3 40.95 -10.25 Q40.7 -9.4 39.9 -8.45 L39.8 -8.3 39.45 -7.95 39.35 -7.9 39.2 -7.8 Q37.05 -6.25 33.7 -5.85 L28.6 -6.2 24.95 -1.35 Q25.75 -0.65 26.0 0.45 L26.6 3.65 27.85 6.3 Q28.45 7.6 28.05 8.95 27.55 10.3 26.3 11.0 L23.55 12.45 21.45 14.5 Q20.85 15.1 20.1 15.35 L20.0 15.55 20.0 15.6 19.95 15.7 19.95 15.75 18.9 17.55 18.8 17.7 18.45 18.05 18.35 18.1 18.2 18.2 Q16.85 19.1 15.15 19.6 L13.95 20.4 Q11.9 21.7 9.0 21.7 6.8 21.7 5.05 20.95 -9.35 34.85 -25.6 43.7 -38.75 50.8 -52.2 54.15 L-52.15 54.15 Q-53.15 54.45 -54.15 54.15 -60.15 52.1 -59.25 46.15 L-59.25 46.05 -59.25 46.0 Q-59.1 45.2 -58.55 44.55 L-58.5 44.45 -58.45 44.45 -58.3 44.2 Q-57.65 43.5 -56.75 43.3 L-56.45 43.15 Q-44.2 40.55 -32.85 34.75 L-32.75 34.7 -32.55 34.6 Q-18.85 27.6 -4.9 15.3 L-5.55 12.75 Q-5.9 10.3 -5.15 8.25 L-5.2 8.3 -5.05 7.95 -5.05 8.0 -4.8 7.55 -4.75 7.5 -4.75 7.45 Q-3.5 4.95 -1.3 4.7 L-1.2 4.7 -1.15 4.7 -1.05 4.7 -0.75 4.7 0.7 3.65 Q1.1 2.6 1.65 1.75 1.25 0.5 1.9 -0.65 2.5 -1.95 3.8 -2.4 L3.85 -2.4 4.0 -2.45 5.9 -3.1 7.8 -4.35 Q8.9 -5.1 10.25 -4.85 L10.35 -4.85 10.55 -4.8 10.55 -5.0 Q10.55 -7.75 11.9 -9.7 L11.95 -9.75 11.95 -9.8 12.0 -9.85 12.05 -9.9 12.05 -9.95 Q14.05 -12.55 16.75 -12.45 L16.8 -12.45 Q18.7 -12.5 20.2 -11.25 L20.85 -12.05 Q20.05 -13.6 19.8 -15.6 19.45 -18.05 20.2 -20.1 L20.15 -20.05 20.3 -20.35 20.25 -20.35 20.6 -20.85 Q21.35 -22.45 22.55 -23.05 L23.35 -24.7 23.4 -24.75 23.4 -24.8 23.45 -24.85 23.5 -24.9 23.5 -24.95 Q25.5 -27.55 28.2 -27.45 L28.25 -27.45 Q29.9 -27.5 31.3 -26.55 L31.7 -27.2 Q30.1 -28.35 28.85 -30.15 L28.85 -30.1 28.7 -30.3 Q26.7 -32.95 26.3 -35.7 L26.3 -35.75 26.3 -35.8 26.3 -36.05 26.3 -36.1 Q26.0 -39.75 28.35 -41.25 30.2 -42.9 32.9 -41.95 32.6 -43.55 32.7 -45.0 L32.7 -45.05 32.7 -45.15 32.7 -45.25 32.7 -45.3 32.7 -45.4 Q33.25 -48.85 35.6 -49.9 L35.7 -49.95 35.75 -50.0 35.8 -50.0 35.9 -50.1 35.95 -50.1 36.0 -50.1 36.2 -50.2 37.8 -50.5 38.05 -51.15 Q38.65 -52.45 39.95 -52.9 L40.0 -52.9 40.05 -52.95 40.1 -52.95 40.25 -53.0 42.15 -53.65 43.25 -54.35 Q43.85 -55.85 44.85 -56.95 L45.0 -57.1 Q47.4 -59.5 49.75 -58.85" fill="#000000" fill-rule="evenodd" stroke="none"/>
    <path d="M39.3 -46.95 L39.3 -47.0 Q40.45 -48.5 42.0 -48.5 43.6 -48.5 44.7 -47.0 45.75 -45.6 45.75 -43.55 45.75 -41.5 44.7 -40.1 L44.2 -39.5 44.3 -39.55 Q45.85 -40.5 48.0 -40.5 50.15 -40.5 51.7 -39.55 53.4 -38.55 53.35 -37.15 53.4 -35.75 51.7 -34.7 50.15 -33.8 48.0 -33.8 45.85 -33.8 44.3 -34.7 42.6 -35.75 42.65 -37.15 42.6 -38.15 43.5 -38.95 42.8 -38.6 42.0 -38.6 40.45 -38.6 39.3 -40.1 38.3 -41.55 38.3 -43.55 38.3 -45.55 39.3 -46.95 M14.05 -1.55 Q13.05 -3.0 13.05 -5.0 13.05 -7.0 14.05 -8.4 L14.05 -8.45 Q15.2 -9.95 16.75 -9.95 18.35 -9.95 19.45 -8.45 20.5 -7.05 20.5 -5.0 20.5 -2.95 19.45 -1.55 18.35 -0.05 16.75 -0.05 15.2 -0.05 14.05 -1.55 M31.95 -20.0 L31.7 -18.2 34.0 -18.5 Q36.15 -18.5 37.7 -17.55 39.4 -16.55 39.35 -15.15 39.4 -13.75 37.7 -12.7 36.15 -11.8 34.0 -11.8 31.85 -11.8 30.3 -12.7 28.65 -13.7 28.65 -15.05 L28.2 -15.05 Q26.65 -15.05 25.5 -16.55 24.5 -18.0 24.5 -20.0 24.5 -22.0 25.5 -23.4 L25.5 -23.45 Q26.65 -24.95 28.2 -24.95 29.8 -24.95 30.9 -23.45 31.95 -22.05 31.95 -20.0 M5.9 7.0 Q6.95 8.4 6.95 10.45 L6.5 12.9 9.0 12.5 Q11.15 12.5 12.7 13.45 14.4 14.45 14.35 15.85 14.4 17.25 12.7 18.3 11.15 19.2 9.0 19.2 6.85 19.2 5.3 18.3 3.6 17.25 3.65 15.85 L3.7 15.4 3.2 15.4 Q1.65 15.4 0.5 13.9 -0.5 12.45 -0.5 10.45 -0.5 8.45 0.5 7.05 L0.5 7.0 Q1.65 5.5 3.2 5.5 4.8 5.5 5.9 7.0" fill="#39237e" fill-rule="evenodd" stroke="none"/>
    <path d="M30.8 -17.25 Q32.15 -18.0 34.0 -18.0 36.0 -18.0 37.45 -17.15 38.85 -16.3 38.85 -15.15 38.85 -14.0 37.45 -13.15 36.0 -12.3 34.0 -12.3 32.0 -12.3 30.55 -13.15 29.15 -14.0 29.15 -15.15 L29.3 -15.75 Q29.55 -16.55 30.55 -17.15 L30.8 -17.25 M52.85 -37.15 Q52.85 -36.0 51.45 -35.15 50.0 -34.3 48.0 -34.3 46.0 -34.3 44.55 -35.15 43.15 -36.0 43.15 -37.15 43.15 -38.3 44.55 -39.15 46.0 -40.0 48.0 -40.0 50.0 -40.0 51.45 -39.15 52.85 -38.3 52.85 -37.15 M5.55 13.85 Q7.0 13.0 9.0 13.0 11.0 13.0 12.45 13.85 13.85 14.7 13.85 15.85 13.85 17.0 12.45 17.85 11.0 18.7 9.0 18.7 7.0 18.7 5.55 17.85 4.15 17.0 4.15 15.85 4.15 14.7 5.55 13.85" fill="#4a2baa" fill-rule="evenodd" stroke="none"/>
    <path d="M39.7 -46.7 Q40.7 -48.0 42.0 -48.0 43.35 -48.0 44.3 -46.7 45.25 -45.4 45.25 -43.55 45.25 -41.7 44.3 -40.4 43.35 -39.1 42.0 -39.1 40.7 -39.1 39.7 -40.4 38.8 -41.7 38.8 -43.55 38.8 -45.4 39.7 -46.7 M14.45 -8.15 Q15.45 -9.45 16.75 -9.45 18.1 -9.45 19.05 -8.15 20.0 -6.85 20.0 -5.0 20.0 -3.15 19.05 -1.85 18.1 -0.55 16.75 -0.55 15.45 -0.55 14.45 -1.85 13.55 -3.15 13.55 -5.0 13.55 -6.85 14.45 -8.15 M29.3 -15.75 L28.2 -15.55 Q26.9 -15.55 25.9 -16.85 25.0 -18.15 25.0 -20.0 25.0 -21.85 25.9 -23.15 26.9 -24.45 28.2 -24.45 29.55 -24.45 30.5 -23.15 31.45 -21.85 31.45 -20.0 31.45 -18.45 30.8 -17.25 L30.55 -17.15 Q29.55 -16.55 29.3 -15.75 M3.2 6.0 Q4.55 6.0 5.5 7.3 6.45 8.6 6.45 10.45 6.45 12.3 5.5 13.6 4.55 14.9 3.2 14.9 1.9 14.9 0.9 13.6 0.0 12.3 0.0 10.45 0.0 8.6 0.9 7.3 1.9 6.0 3.2 6.0" fill="#4a2da8" fill-rule="evenodd" stroke="none"/>
    <path d="M48.7 -46.6 Q42.65 -31.1 30.75 -13.6 18.4 4.45 4.0 18.5 -10.45 32.6 -26.85 41.45 -39.7 48.45 -52.8 51.8 L-53.4 51.75 Q-57.35 50.4 -56.75 46.5 L-56.5 45.95 -55.95 45.65 Q-43.4 42.95 -31.7 37.0 L-31.5 36.9 Q-16.7 29.3 -1.5 15.6 L-1.35 15.5 Q13.6 2.0 26.6 -15.5 39.2 -32.5 45.9 -47.75 L46.25 -48.15 46.7 -48.35 47.85 -48.3 48.25 -48.05 48.7 -47.4 48.7 -46.6" fill="#486f51" fill-rule="evenodd" stroke="none"/>
    <path d="M47.8 -47.0 Q41.75 -31.6 29.9 -14.2 17.65 3.75 3.3 17.8 -11.05 31.75 -27.3 40.6 -40.1 47.5 -53.05 50.8 -56.25 49.75 -55.75 46.65 -43.05 43.9 -31.25 37.9 -16.2 30.25 -0.85 16.35 L-0.85 16.4 Q14.25 2.8 27.4 -14.9 40.1 -32.0 46.85 -47.35 L47.55 -47.3 47.8 -47.0" fill="#5e936a" fill-rule="evenodd" stroke="none"/>
    <path d="M46.75 -55.3 L46.75 -55.35 Q48.15 -56.75 49.45 -56.35 50.8 -56.05 51.2 -54.15 51.6 -52.35 51.1 -50.2 50.5 -48.0 49.3 -46.7 L49.25 -46.7 Q48.7 -46.05 48.2 -45.75 L49.05 -46.0 52.85 -45.75 Q54.35 -45.15 54.6 -44.3 L54.6 -44.2 54.55 -42.9 54.05 -41.8 54.0 -41.7 Q52.7 -40.55 50.55 -40.05 L50.6 -40.05 46.8 -39.95 Q45.05 -40.4 44.6 -41.65 L44.55 -41.75 Q44.25 -42.95 45.65 -44.35 L45.7 -44.4 Q46.6 -45.1 47.6 -45.5 L46.65 -45.55 46.6 -45.55 Q45.35 -45.9 44.85 -47.9 L44.8 -47.95 Q44.45 -49.7 45.0 -51.75 45.5 -53.9 46.75 -55.3 M36.95 -47.8 L37.0 -47.8 Q38.5 -48.45 40.2 -46.85 41.8 -45.45 42.75 -43.05 43.7 -40.6 43.45 -38.5 43.35 -36.2 41.8 -35.6 40.35 -35.05 38.45 -36.6 L38.4 -36.6 Q36.85 -38.05 36.0 -40.35 35.0 -42.8 35.2 -45.0 35.55 -47.2 36.95 -47.8 M33.15 -39.15 Q35.0 -38.2 36.55 -36.15 L36.55 -36.1 Q38.1 -33.9 38.35 -31.8 L38.35 -31.85 38.45 -31.2 39.85 -32.1 39.9 -32.1 44.0 -32.65 44.05 -32.65 44.35 -32.6 Q46.9 -32.35 48.6 -30.8 L49.65 -29.5 49.65 -29.45 49.9 -28.4 49.9 -28.35 Q49.7 -27.45 49.3 -26.85 L49.35 -26.85 49.15 -26.55 49.05 -26.45 48.35 -25.95 48.25 -25.9 Q46.35 -25.05 43.65 -25.3 L42.5 -25.45 Q40.65 -25.85 39.3 -26.75 37.95 -27.6 37.6 -28.7 L37.5 -28.65 37.5 -28.6 Q36.2 -27.7 34.0 -28.8 L33.95 -28.8 Q32.1 -29.8 30.7 -31.8 29.1 -33.9 28.8 -36.05 L28.8 -36.1 Q28.55 -38.35 29.8 -39.25 L33.15 -39.1 33.15 -39.15 M37.05 -14.75 Q38.7 -13.8 38.85 -12.75 L38.85 -12.7 38.65 -11.15 37.9 -9.95 37.8 -9.9 Q36.1 -8.65 33.45 -8.35 30.8 -8.05 28.85 -8.8 L28.9 -8.8 Q26.85 -9.55 26.5 -11.15 L26.5 -11.2 26.55 -11.85 25.7 -11.5 25.65 -11.5 Q24.45 -11.35 23.35 -12.8 22.5 -14.1 22.3 -15.9 L22.3 -15.95 Q22.05 -17.8 22.6 -19.35 L22.6 -19.4 Q23.25 -20.95 24.4 -21.15 L24.45 -21.15 Q25.7 -21.35 26.65 -19.8 27.55 -18.55 27.8 -16.65 27.95 -14.85 27.55 -13.55 L28.2 -14.15 28.25 -14.15 Q30.2 -15.4 32.5 -15.65 35.1 -15.9 37.05 -14.75 M16.05 11.25 Q17.7 12.2 17.85 13.25 L17.85 13.3 17.65 14.85 16.9 16.05 16.8 16.1 Q15.1 17.35 12.45 17.65 L7.85 17.2 7.9 17.2 Q5.85 16.45 5.5 14.85 L5.5 14.8 Q5.4 14.1 5.85 13.35 L4.4 13.45 4.35 13.45 Q2.9 13.05 2.3 10.7 L2.25 10.65 Q1.95 9.1 2.2 7.45 L2.5 6.2 Q3.1 3.65 4.55 2.0 L4.55 1.95 Q6.1 0.35 7.6 0.7 L7.65 0.75 Q9.3 1.1 9.7 3.35 10.15 5.45 9.55 7.95 9.0 10.0 8.0 11.4 9.65 10.55 11.5 10.35 14.1 10.1 16.05 11.25 M2.45 11.7 Q2.6 13.7 2.1 15.1 1.5 16.7 0.35 16.85 L0.3 16.85 Q-0.9 17.0 -2.0 15.55 -2.85 14.25 -3.05 12.45 L-3.05 12.4 Q-3.3 10.55 -2.75 9.0 L-2.75 8.95 Q-2.1 7.4 -0.95 7.2 L-0.9 7.2 Q0.35 7.0 1.3 8.55 2.2 9.8 2.45 11.7" fill="#45289d" fill-rule="evenodd" stroke="none"/>
    <path d="M50.6 -50.35 Q50.05 -48.25 48.9 -47.05 47.85 -45.8 46.75 -46.05 45.75 -46.35 45.3 -48.05 44.95 -49.7 45.45 -51.65 45.95 -53.65 47.1 -55.0 48.25 -56.15 49.3 -55.9 50.4 -55.6 50.7 -54.05 51.1 -52.35 50.6 -50.35 M37.15 -47.35 Q38.45 -47.85 39.85 -46.5 41.35 -45.15 42.25 -42.9 43.2 -40.55 42.95 -38.55 42.85 -36.6 41.6 -36.1 40.4 -35.65 38.75 -37.0 37.3 -38.35 36.45 -40.55 35.5 -42.85 35.7 -44.95 36.0 -46.8 37.15 -47.35 M31.1 -32.1 Q29.6 -34.1 29.3 -36.15 29.1 -38.05 30.1 -38.85 L32.9 -38.7 Q34.7 -37.8 36.15 -35.85 37.6 -33.75 37.85 -31.75 38.2 -29.85 37.2 -29.05 36.1 -28.3 34.2 -29.25 32.45 -30.2 31.1 -32.1 M40.05 -31.65 L44.0 -32.15 44.3 -32.1 Q46.7 -31.85 48.25 -30.45 L49.2 -29.25 49.4 -28.45 Q49.25 -27.65 48.9 -27.15 L48.7 -26.85 48.05 -26.35 Q46.25 -25.55 43.7 -25.8 L42.6 -25.95 Q40.85 -26.35 39.55 -27.2 38.0 -28.15 38.0 -29.55 38.15 -30.75 40.05 -31.65 M36.8 -14.35 Q38.2 -13.55 38.35 -12.7 L38.15 -11.3 37.5 -10.3 Q35.9 -9.15 33.4 -8.85 30.9 -8.55 29.05 -9.3 27.3 -9.9 27.0 -11.25 26.9 -12.45 28.5 -13.75 30.35 -14.9 32.55 -15.15 35.0 -15.4 36.8 -14.35 M24.5 -20.65 Q25.45 -20.75 26.2 -19.55 27.05 -18.35 27.3 -16.6 27.45 -14.75 26.95 -13.45 26.5 -12.15 25.6 -12.0 24.65 -11.9 23.75 -13.1 23.0 -14.3 22.8 -16.0 22.55 -17.75 23.05 -19.2 23.6 -20.45 24.5 -20.65 M53.65 -42.1 Q52.45 -41.0 50.45 -40.55 L46.9 -40.45 Q45.45 -40.8 45.05 -41.85 44.85 -42.85 46.0 -44.0 47.4 -45.1 49.15 -45.55 L52.65 -45.3 Q53.9 -44.8 54.1 -44.15 L54.05 -43.0 53.65 -42.1 M15.8 11.65 Q17.2 12.45 17.35 13.3 L17.15 14.7 16.5 15.7 Q14.9 16.85 12.4 17.15 9.9 17.45 8.05 16.7 6.3 16.1 6.0 14.75 5.9 13.55 7.5 12.25 9.35 11.1 11.55 10.85 14.0 10.6 15.8 11.65 M9.2 3.45 Q9.65 5.45 9.05 7.8 8.4 10.3 7.05 11.75 L6.7 12.15 Q5.6 13.2 4.5 12.95 3.3 12.6 2.75 10.55 2.45 9.1 2.7 7.5 L2.95 6.3 Q3.55 3.9 4.9 2.3 6.25 0.95 7.5 1.2 8.85 1.55 9.2 3.45 M1.95 11.75 Q2.1 13.6 1.6 14.9 1.15 16.2 0.25 16.35 -0.7 16.45 -1.6 15.25 -2.35 14.05 -2.55 12.35 -2.8 10.6 -2.3 9.15 -1.75 7.9 -0.85 7.7 0.1 7.6 0.85 8.8 1.7 10.0 1.95 11.75" fill="#6633cc" fill-rule="evenodd" stroke="none"/>
    <path d="M35.5 -25.0 L37.05 -22.95 39.0 -21.45 39.4 -20.8 39.25 -20.05 37.75 -17.95 36.95 -15.6 36.45 -15.05 35.7 -15.0 33.3 -15.75 30.75 -15.85 Q30.35 -15.85 30.1 -16.15 29.8 -16.45 29.8 -16.8 L29.75 -19.4 29.05 -21.75 Q28.95 -22.15 29.15 -22.5 L29.7 -23.0 32.05 -23.8 34.15 -25.2 34.9 -25.35 35.5 -25.0 M7.1 -0.85 L9.15 -2.2 9.9 -2.35 10.5 -2.0 12.05 0.0 14.0 1.5 14.3 1.85 14.5 0.95 Q14.55 0.55 14.9 0.3 15.2 0.05 15.6 0.1 L19.0 0.6 22.35 0.1 23.1 0.3 23.5 0.95 24.1 4.3 25.6 7.45 Q25.8 7.8 25.65 8.2 L25.2 8.75 22.2 10.3 19.7 12.75 19.0 13.0 18.3 12.75 15.8 10.3 12.8 8.75 12.3 8.2 Q12.15 7.8 12.35 7.45 L13.85 4.35 14.1 3.1 12.75 5.0 11.95 7.35 11.45 7.9 10.7 7.95 8.3 7.2 5.75 7.1 Q5.35 7.1 5.1 6.8 4.8 6.5 4.8 6.15 L4.75 3.55 4.05 1.2 Q3.95 0.8 4.15 0.45 L4.7 -0.05 7.1 -0.85" fill="#4035d0" fill-rule="evenodd" stroke="none"/>
    <path d="M38.4 -20.65 L36.85 -18.45 36.0 -15.95 33.45 -16.75 30.8 -16.85 30.75 -19.5 30.0 -22.05 32.5 -22.9 34.7 -24.4 36.3 -22.25 38.4 -20.65 M24.7 7.85 L21.55 9.5 19.0 12.0 16.4 9.5 13.25 7.85 14.8 4.65 15.45 1.1 19.0 1.6 22.5 1.1 23.15 4.6 24.7 7.85 M13.4 2.3 L11.85 4.5 11.0 7.0 8.45 6.2 5.8 6.1 5.75 3.45 5.0 0.9 7.5 0.05 9.7 -1.4 11.3 0.7 13.4 2.3" fill="#6a57d9" fill-rule="evenodd" stroke="none"/>
    <path d="M45.3 -52.75 L46.05 -52.9 46.65 -52.55 48.2 -50.5 50.15 -49.0 50.55 -48.35 50.4 -47.6 48.9 -45.5 48.1 -43.15 47.6 -42.6 46.85 -42.55 44.45 -43.3 41.9 -43.4 Q41.5 -43.4 41.25 -43.7 40.95 -44.0 40.95 -44.35 L40.9 -46.95 40.2 -49.3 Q40.1 -49.7 40.3 -50.05 L40.85 -50.55 43.2 -51.35 45.3 -52.75" fill="#4035d0" fill-rule="evenodd" stroke="none"/>
    <path d="M45.85 -51.95 L47.45 -49.8 49.55 -48.2 48.0 -46.0 47.15 -43.5 44.6 -44.3 41.95 -44.4 41.9 -47.05 41.15 -49.6 43.65 -50.45 45.85 -51.95" fill="#6a57d9" fill-rule="evenodd" stroke="none"/>
    <path d="M22.0 10.0 L50.0 10.0 50.0 50.0 22.0 50.0 22.0 42.0 40.0 42.0 40.0 34.0 26.0 34.0 26.0 26.0 40.0 26.0 40.0 18.0 22.0 18.0 22.0 10.0" fill="#ffffff" fill-rule="evenodd" stroke="none"/>
    <path d="M22.0 10.0 L50.0 10.0 50.0 50.0 22.0 50.0 22.0 42.0 40.0 42.0 40.0 34.0 26.0 34.0 26.0 26.0 40.0 26.0 40.0 18.0 22.0 18.0 22.0 10.0 Z" fill="none" stroke="#000000" stroke-linecap="round" stroke-linejoin="round" stroke-width="3.0"/>
  </g>
</svg>
