<?xml version="1.0" encoding="UTF-8" standalone="no"?>
<svg xmlns:xlink="http://www.w3.org/1999/xlink" height="75.0px" width="16.15px" xmlns="http://www.w3.org/2000/svg">
  <g transform="matrix(1.0, 0.0, 0.0, 1.0, 10.15, 34.0)">
    <path d="M-10.15 35.0 L-8.15 33.0 -7.15 24.0 -4.15 24.0 -4.15 41.0 -10.15 41.0 -10.15 35.0" fill="url(#gradient0)" fill-rule="evenodd" stroke="none"/>
    <path d="M-8.15 -30.0 L-7.15 -34.0 -4.15 -34.0 -4.15 -12.0 -5.15 -12.0 -6.15 -14.0 -6.15 -29.0 -8.15 -30.0" fill="url(#gradient1)" fill-rule="evenodd" stroke="none"/>
    <path d="M5.25 34.0 L-5.25 34.0 -4.15 -34.0 3.85 -34.0 5.25 34.0" fill="url(#gradient2)" fill-rule="evenodd" stroke="none"/>
    <path d="M5.85 41.0 L-6.15 41.0 -5.9 34.0 5.85 34.0 5.85 41.0" fill="url(#gradient3)" fill-rule="evenodd" stroke="none"/>
    <path d="M-1.15 5.0 L-1.15 34.0 -5.25 34.0 -4.75 4.1 -1.15 5.0" fill="url(#gradient4)" fill-rule="evenodd" stroke="none"/>
    <path d="M0.85 5.0 L4.65 4.05 5.25 34.0 0.85 34.0 0.85 5.0" fill="url(#gradient5)" fill-rule="evenodd" stroke="none"/>
    <path d="M-2.15 5.8 L-2.15 34.0 -5.25 34.0 -4.75 5.05 -2.15 5.8" fill="url(#gradient6)" fill-rule="evenodd" stroke="none"/>
    <path d="M4.65 5.05 L5.25 34.0 1.85 34.0 1.85 5.8 4.65 5.05" fill="url(#gradient7)" fill-rule="evenodd" stroke="none"/>
    <path d="M1.85 -3.0 L2.85 -3.0 M1.85 0.0 L2.85 0.0 M-3.15 -3.0 L-2.15 -3.0 M-3.15 0.0 L-2.15 0.0" fill="none" stroke="#000000" stroke-linecap="square" stroke-linejoin="round" stroke-width="1.0"/>
    <path d="M6.0 34.0 L-6.0 34.0 -6.0 33.0 6.0 33.0 6.0 34.0" fill="#000000" fill-opacity="0.3019608" fill-rule="evenodd" stroke="none"/>
  </g>
  <defs>
    <linearGradient gradientTransform="matrix(0.0037, 0.0, 0.0, 0.0104, -7.15, 32.5)" gradientUnits="userSpaceOnUse" id="gradient0" spreadMethod="pad" x1="-819.2" x2="819.2">
      <stop offset="0.011764705882352941" stop-color="#919191"/>
      <stop offset="0.6901960784313725" stop-color="#717171"/>
      <stop offset="0.7529411764705882" stop-color="#4e4e4e"/>
    </linearGradient>
    <linearGradient gradientTransform="matrix(0.0024, 0.0, -2.0E-4, 0.0134, -6.15, -23.0)" gradientUnits="userSpaceOnUse" id="gradient1" spreadMethod="pad" x1="-819.2" x2="819.2">
      <stop offset="0.09803921568627451" stop-color="#919191"/>
      <stop offset="0.3058823529411765" stop-color="#6f6f6f"/>
      <stop offset="0.7803921568627451" stop-color="#4a4a4a"/>
      <stop offset="0.8274509803921568" stop-color="#313131"/>
    </linearGradient>
    <linearGradient gradientTransform="matrix(0.0059, 1.0E-4, -4.0E-4, 0.0415, 0.0, 0.0)" gradientUnits="userSpaceOnUse" id="gradient2" spreadMethod="pad" x1="-819.2" x2="819.2">
      <stop offset="0.12941176470588237" stop-color="#717171"/>
      <stop offset="0.17254901960784313" stop-color="#434343"/>
      <stop offset="0.9215686274509803" stop-color="#6a6a6a"/>
    </linearGradient>
    <linearGradient gradientTransform="matrix(0.0073, 0.0, 0.0, 0.0043, -0.15, 37.5)" gradientUnits="userSpaceOnUse" id="gradient3" spreadMethod="pad" x1="-819.2" x2="819.2">
      <stop offset="0.11372549019607843" stop-color="#6b95be"/>
      <stop offset="0.14901960784313725" stop-color="#536782"/>
      <stop offset="1.0" stop-color="#557595"/>
    </linearGradient>
    <linearGradient gradientTransform="matrix(0.0, 0.0182, -0.0182, 0.0, -3.2, 19.05)" gradientUnits="userSpaceOnUse" id="gradient4" spreadMethod="pad" x1="-819.2" x2="819.2">
      <stop offset="0.011764705882352941" stop-color="#000000" stop-opacity="0.4117647"/>
      <stop offset="1.0" stop-color="#000000" stop-opacity="0.18039216"/>
    </linearGradient>
    <linearGradient gradientTransform="matrix(0.0, 0.0182, -0.0182, 0.0, -3.2, 19.05)" gradientUnits="userSpaceOnUse" id="gradient5" spreadMethod="pad" x1="-819.2" x2="819.2">
      <stop offset="0.011764705882352941" stop-color="#000000" stop-opacity="0.4117647"/>
      <stop offset="1.0" stop-color="#000000" stop-opacity="0.27058825"/>
    </linearGradient>
    <linearGradient gradientTransform="matrix(0.0073, 0.0, 0.0, 0.0182, 0.0, 20.0)" gradientUnits="userSpaceOnUse" id="gradient6" spreadMethod="pad" x1="-819.2" x2="819.2">
      <stop offset="0.12941176470588237" stop-color="#717171"/>
      <stop offset="0.17254901960784313" stop-color="#434343"/>
      <stop offset="0.9215686274509803" stop-color="#6a6a6a"/>
    </linearGradient>
    <linearGradient gradientTransform="matrix(0.0073, 0.0, 0.0, 0.0183, 0.0, 20.0)" gradientUnits="userSpaceOnUse" id="gradient7" spreadMethod="pad" x1="-819.2" x2="819.2">
      <stop offset="0.12941176470588237" stop-color="#717171"/>
      <stop offset="0.3411764705882353" stop-color="#1c1c1c"/>
      <stop offset="0.9215686274509803" stop-color="#6a6a6a"/>
    </linearGradient>
  </defs>
</svg>
