<?xml version="1.0" encoding="UTF-8" standalone="no"?>
<svg xmlns:xlink="http://www.w3.org/1999/xlink" height="132.0px" width="40.0px" xmlns="http://www.w3.org/2000/svg">
  <g transform="matrix(1.0, 0.0, 0.0, 1.0, 23.0, 66.0)">
    <path d="M7.0 -60.0 L7.0 -63.0 7.0 -66.0 9.0 -66.0 Q10.25 -66.0 11.1 -65.15 12.0 -64.25 12.0 -63.0 12.0 -61.75 11.1 -60.9 10.25 -60.0 9.0 -60.0 L7.0 -60.0" fill="url(#gradient0)" fill-rule="evenodd" stroke="none"/>
    <path d="M13.0 36.0 L17.0 38.0 17.0 62.0 9.0 66.0 9.0 20.0 3.0 14.0 3.0 -56.0 -5.0 -61.0 -5.0 -63.0 7.0 -63.0 8.0 10.0 13.0 16.0 13.0 36.0" fill="url(#gradient1)" fill-rule="evenodd" stroke="none"/>
    <path d="M8.1 -62.15 Q7.75 -62.5 7.75 -63.0 7.75 -63.5 8.1 -63.9 8.45 -64.25 8.95 -64.25 L9.8 -63.9 Q10.2 -63.5 10.2 -63.0 10.2 -62.5 9.8 -62.15 9.5 -61.8 8.95 -61.8 8.45 -61.8 8.1 -62.15" fill="url(#gradient2)" fill-rule="evenodd" stroke="none"/>
    <path d="M3.0 -10.0 L3.0 -9.0 1.0 -9.0 1.0 -10.0 3.0 -10.0 M3.0 9.0 L3.0 10.0 1.0 10.0 1.0 9.0 3.0 9.0 M3.0 49.0 L3.0 50.0 0.0 50.0 0.0 49.0 3.0 49.0 M16.0 39.0 L16.0 40.0 14.0 40.0 14.0 39.0 16.0 39.0 M16.0 60.0 L16.0 61.0 14.0 61.0 14.0 60.0 16.0 60.0 M0.0 60.0 L0.0 59.0 3.0 59.0 3.0 60.0 0.0 60.0 M-6.0 -2.0 L-6.0 17.0 -7.0 16.0 -7.0 -2.0 -6.0 -2.0 M-8.0 10.0 L-8.0 23.0 -9.0 23.0 -9.0 10.0 -8.0 10.0 M-13.0 19.0 L-14.0 19.0 -14.0 17.0 -13.0 16.6 -13.0 19.0 M-22.0 19.65 L-22.0 22.0 -23.0 22.0 -23.0 20.0 -22.0 19.65" fill="#000000" fill-rule="evenodd" stroke="none"/>
  </g>
  <defs>
    <linearGradient gradientTransform="matrix(0.0031, 0.0, 0.0, 0.0037, 9.5, -63.0)" gradientUnits="userSpaceOnUse" id="gradient0" spreadMethod="pad" x1="-819.2" x2="819.2">
      <stop offset="0.10980392156862745" stop-color="#3f556b"/>
      <stop offset="0.1411764705882353" stop-color="#557595"/>
      <stop offset="0.6941176470588235" stop-color="#536782"/>
      <stop offset="0.8666666666666667" stop-color="#6b95be"/>
    </linearGradient>
    <linearGradient gradientTransform="matrix(0.0152, -0.001, 3.0E-4, 0.0043, 6.3, 36.4)" gradientUnits="userSpaceOnUse" id="gradient1" spreadMethod="pad" x1="-819.2" x2="819.2">
      <stop offset="0.39215686274509803" stop-color="#7095ba"/>
      <stop offset="1.0" stop-color="#536782"/>
    </linearGradient>
    <radialGradient cx="0" cy="0" gradientTransform="matrix(0.002, 0.0, 0.0, 0.002, 8.95, -63.05)" gradientUnits="userSpaceOnUse" id="gradient2" r="819.2" spreadMethod="pad">
      <stop offset="0.5254901960784314" stop-color="#000000"/>
      <stop offset="0.6" stop-color="#46586a"/>
      <stop offset="1.0" stop-color="#557595"/>
    </radialGradient>
  </defs>
</svg>
