<?xml version="1.0" encoding="UTF-8" standalone="no"?>
<svg xmlns:xlink="http://www.w3.org/1999/xlink" height="68.0px" width="119.3px" xmlns="http://www.w3.org/2000/svg">
  <g transform="matrix(1.0, 0.0, 0.0, 1.0, 59.65, 33.5)">
    <path d="M5.2 -26.65 Q7.15 -23.85 9.55 -21.95 L9.8 -21.75 10.35 -21.75 11.3 -21.55 Q13.1 -21.35 13.1 -19.05 L13.05 -18.5 13.65 -19.0 Q14.4 -19.75 15.45 -19.75 L15.65 -19.75 15.85 -19.75 Q18.7 -19.7 20.75 -18.4 22.5 -19.1 24.35 -19.05 26.4 -19.1 28.6 -18.25 34.1 -16.3 35.6 -10.05 L35.6 -9.95 38.2 -10.25 Q40.6 -10.4 42.95 -8.95 L43.0 -8.95 Q46.35 -7.0 47.6 -3.05 48.9 -3.05 50.3 -1.75 L52.15 -2.0 53.1 -2.0 Q57.15 -2.15 58.65 3.3 L58.6 3.3 Q59.5 6.55 59.0 9.95 L59.0 10.0 58.85 10.7 Q59.45 11.5 59.6 13.35 L59.6 13.4 Q59.85 15.9 58.5 18.55 L58.5 20.0 Q58.5 21.05 57.75 21.8 51.55 28.0 38.8 31.1 24.5 34.5 0.0 34.5 -24.5 34.5 -38.75 31.1 L-38.8 31.1 Q-51.55 28.0 -57.75 21.8 -58.5 21.05 -58.5 20.0 L-58.5 18.6 Q-59.85 15.9 -59.6 13.4 -59.45 11.5 -58.8 10.7 L-58.95 10.0 -58.95 9.95 Q-59.5 6.55 -58.6 3.3 -57.15 -2.15 -53.1 -2.0 L-53.05 -2.0 -52.1 -2.0 -50.25 -1.7 Q-48.9 -3.0 -47.6 -3.0 -46.35 -6.95 -43.0 -8.9 L-42.95 -8.9 Q-40.6 -10.35 -38.1 -10.2 L-35.55 -9.9 -35.5 -10.05 Q-34.05 -16.3 -28.55 -18.25 -26.3 -19.1 -24.15 -19.05 -22.4 -19.05 -20.7 -18.4 -18.7 -19.7 -15.8 -19.75 L-15.6 -19.75 -15.45 -19.75 Q-14.4 -19.75 -13.6 -19.0 L-13.05 -18.5 -13.1 -19.05 Q-13.1 -21.35 -11.25 -21.55 L-10.35 -21.75 -9.75 -21.75 -9.55 -21.95 Q-7.15 -23.85 -5.2 -26.65 L-5.2 -26.6 Q-3.4 -29.2 -2.3 -31.9 L-1.4 -33.05 0.0 -33.5 1.4 -33.05 2.35 -31.9 Q3.4 -29.2 5.2 -26.6 L5.2 -26.65 M46.85 11.0 L46.35 10.4 45.85 10.15 45.75 10.1 45.65 10.25 45.75 10.3 45.8 10.35 Q48.05 11.9 48.0 14.4 L49.3 12.4 Q47.85 12.15 46.9 11.05 L46.85 11.0 M38.95 5.9 L39.9 3.15 39.85 3.15 Q38.15 5.5 35.45 5.4 L33.0 5.05 Q32.15 4.85 31.55 4.35 L31.2 4.7 Q32.65 5.75 33.75 7.55 34.85 9.25 35.05 11.15 37.25 9.2 38.9 5.9 L38.95 5.9 M10.65 1.8 Q10.35 1.0 9.85 0.75 L9.75 0.7 Q9.35 0.65 8.95 0.95 8.55 1.2 8.45 1.65 8.6 2.35 9.5 3.0 10.1 3.45 10.35 4.2 L10.5 4.75 Q11.4 4.3 12.45 3.9 L12.5 3.85 13.0 3.5 12.95 3.5 11.55 3.05 10.65 1.8 M0.3 4.35 Q0.0 2.85 0.05 1.5 L0.0 1.5 -0.25 4.4 0.0 4.85 0.3 4.35 M7.35 18.3 Q8.2 19.4 9.9 19.7 L9.95 19.7 11.05 19.8 11.25 19.8 9.8 18.8 8.8 17.35 8.6 17.4 7.1 17.75 7.35 18.3 M-9.75 0.7 L-9.85 0.75 Q-10.35 1.0 -10.6 1.8 L-11.5 3.05 -12.95 3.5 -13.0 3.5 -12.5 3.85 -12.45 3.9 -10.45 4.75 -10.35 4.2 Q-10.1 3.45 -9.5 3.0 -8.6 2.35 -8.45 1.65 -8.55 1.2 -8.9 0.95 -9.35 0.65 -9.75 0.7 M-11.0 19.8 L-9.9 19.7 Q-8.2 19.4 -7.35 18.3 L-7.1 17.75 -8.55 17.4 -8.75 17.35 Q-9.1 18.15 -9.75 18.85 L-11.1 19.8 -11.0 19.8 M-32.95 5.1 L-35.4 5.45 Q-38.15 5.55 -39.8 3.25 L-38.85 5.95 Q-37.25 9.2 -35.0 11.15 -34.8 9.3 -33.7 7.6 -32.6 5.75 -31.1 4.7 L-31.4 4.4 Q-32.1 4.9 -32.9 5.1 L-32.95 5.1 M-46.85 11.1 L-47.0 11.25 Q-47.95 12.2 -49.15 12.45 L-49.1 12.45 -49.15 12.45 -47.95 14.35 Q-48.0 11.9 -45.75 10.4 L-45.7 10.35 -45.6 10.3 -45.7 10.1 -45.8 10.15 -46.25 10.4 -46.85 11.1" fill="#000000" fill-rule="evenodd" stroke="none"/>
    <path d="M56.0 17.4 L56.0 19.4 Q50.15 25.15 38.2 28.05 24.15 31.4 0.0 31.4 -24.15 31.4 -38.2 28.05 -50.15 25.15 -56.0 19.4 L-56.0 17.4 Q-48.5 22.95 -34.45 24.85 L-3.0 26.4 Q-2.15 26.25 -1.2 26.95 -0.25 27.55 0.0 28.4 0.25 27.55 1.2 26.95 2.15 26.25 3.0 26.4 L34.45 24.85 Q48.5 22.95 56.0 17.4" fill="#485b62" fill-rule="evenodd" stroke="none"/>
    <path d="M2.7 -19.75 L1.05 -21.35 0.0 -22.7 -1.05 -21.35 -2.65 -19.75 Q1.35 -13.35 -1.25 -9.25 -3.95 -4.55 -12.85 -6.9 L-14.2 -6.0 -12.75 -5.05 Q-7.8 -5.9 -4.9 -3.3 -1.65 -0.55 -2.9 4.85 -1.0 7.9 0.0 11.1 1.0 7.9 2.95 4.85 1.65 -0.55 4.9 -3.3 7.8 -5.9 12.8 -5.05 L14.2 -6.0 12.85 -6.9 Q3.95 -4.55 1.25 -9.25 -1.35 -13.35 2.7 -19.75 M4.0 -20.0 Q-0.25 -13.7 2.1 -9.8 4.65 -5.65 13.0 -8.0 L16.0 -6.0 13.0 -4.0 Q8.25 -4.9 5.55 -2.55 2.65 0.0 4.0 5.0 0.3 10.75 0.0 16.65 -0.3 10.75 -4.0 5.0 -2.65 0.0 -5.55 -2.55 -8.25 -4.9 -13.0 -4.0 L-16.0 -6.0 -13.0 -8.0 Q-4.65 -5.65 -2.1 -9.8 0.25 -13.7 -4.0 -20.0 L-1.8 -22.05 Q-0.2 -23.85 0.0 -25.0 0.2 -23.85 1.8 -22.05 L4.0 -20.0" fill="#51656f" fill-rule="evenodd" stroke="none"/>
    <path d="M15.15 -14.35 Q13.75 -13.25 12.65 -13.0 10.45 -12.5 8.9 -13.45 7.3 -14.35 7.55 -16.05 7.7 -17.3 8.95 -18.45 10.2 -19.55 10.2 -19.05 L9.75 -18.25 Q9.4 -17.5 9.6 -16.5 10.2 -15.3 11.9 -15.45 13.7 -15.55 15.4 -17.25 18.4 -17.2 20.1 -15.3 23.45 -17.4 27.35 -15.9 31.6 -14.35 32.75 -9.5 33.95 -2.0 29.4 2.55 24.45 7.4 12.15 9.3 8.25 9.9 7.05 12.1 6.0 14.05 7.45 15.0 L5.55 15.2 Q4.65 14.95 4.75 13.9 3.25 17.3 4.9 19.7 6.3 21.7 9.1 22.15 15.0 23.15 16.3 18.7 16.85 16.9 15.9 15.35 14.9 13.6 12.6 13.0 16.25 12.4 18.3 14.55 20.1 16.45 19.55 19.35 19.05 22.35 16.35 24.05 15.0 24.9 13.3 25.2 14.1 25.45 14.3 26.0 14.4 26.4 14.1 26.9 L12.4 26.95 Q12.45 26.4 12.15 25.95 11.85 25.4 11.15 25.35 8.75 25.1 6.5 23.95 2.5 21.9 2.2 18.1 1.8 13.4 5.95 9.95 7.6 8.6 13.7 6.05 L15.35 4.8 16.8 3.15 Q17.15 2.45 17.45 3.85 17.7 5.2 16.6 6.6 23.0 5.4 26.55 1.9 30.55 -2.05 29.55 -7.8 28.65 -12.9 24.65 -13.75 20.75 -14.6 19.3 -11.3 18.65 -9.75 19.85 -9.9 20.95 -10.05 21.6 -10.85 22.55 -12.0 23.25 -10.05 23.9 -8.1 22.65 -7.0 18.1 -5.65 17.05 -8.7 16.0 -11.6 19.05 -14.6 18.7 -15.4 17.2 -15.35 16.4 -15.3 15.15 -14.35 M-27.3 -15.9 Q-23.4 -17.4 -20.05 -15.3 -18.35 -17.2 -15.4 -17.25 -13.7 -15.55 -11.9 -15.45 -10.2 -15.3 -9.6 -16.5 -9.4 -17.5 -9.75 -18.25 L-10.2 -19.05 Q-10.2 -19.55 -8.95 -18.45 -7.7 -17.3 -7.55 -16.05 -7.3 -14.35 -8.9 -13.45 -10.45 -12.5 -12.65 -13.0 -13.75 -13.25 -15.15 -14.35 -16.4 -15.3 -17.15 -15.35 -18.65 -15.4 -19.0 -14.6 -16.0 -11.6 -17.0 -8.7 -18.05 -5.65 -22.6 -7.0 -23.85 -8.1 -23.2 -10.05 -22.5 -12.0 -21.55 -10.85 -20.9 -10.05 -19.8 -9.9 -18.6 -9.75 -19.25 -11.3 -20.7 -14.6 -24.6 -13.75 -28.6 -12.9 -29.5 -7.8 -30.5 -2.05 -26.5 1.9 -22.95 5.4 -16.55 6.6 -17.65 5.2 -17.4 3.85 -17.1 2.45 -16.75 3.15 L-15.35 4.8 -13.7 6.05 Q-7.6 8.6 -5.95 9.95 -1.8 13.4 -2.2 18.1 -2.5 21.9 -6.5 23.9 -8.75 25.05 -11.15 25.3 -11.85 25.35 -12.15 25.9 -12.45 26.35 -12.4 26.9 L-14.1 26.85 Q-14.4 26.35 -14.3 25.95 -14.1 25.4 -13.3 25.15 -15.0 24.85 -16.35 24.0 -19.0 22.35 -19.5 19.35 -20.05 16.45 -18.25 14.55 -16.25 12.4 -12.6 13.0 -14.9 13.6 -15.9 15.35 -16.8 16.9 -16.3 18.7 -15.0 23.1 -9.1 22.15 -6.3 21.7 -4.9 19.7 -3.25 17.3 -4.75 13.9 -4.65 14.95 -5.55 15.2 L-7.45 15.0 Q-6.0 14.05 -7.05 12.1 -8.25 9.9 -12.15 9.3 -24.4 7.4 -29.35 2.55 -33.9 -2.0 -32.7 -9.5 -31.55 -14.35 -27.3 -15.9" fill="#51656f" fill-rule="evenodd" stroke="none"/>
    <path d="M0.0 18.85 Q-0.2 22.85 -2.0 27.0 L-6.0 27.0 Q2.0 13.95 -8.0 5.0 L-4.0 5.0 Q-0.3 10.75 0.0 16.65 L0.0 18.85" fill="url(#gradient0)" fill-rule="evenodd" stroke="none"/>
    <path d="M8.0 5.0 Q-2.0 13.95 6.0 27.0 L2.0 27.0 Q0.2 22.85 0.0 18.85 L0.0 16.65 Q0.3 10.75 4.0 5.0 L8.0 5.0" fill="url(#gradient1)" fill-rule="evenodd" stroke="none"/>
    <path d="M13.0 1.0 Q12.25 -1.25 10.45 -1.7 8.9 -2.15 7.45 -1.1 6.0 -0.05 5.95 1.6 5.95 3.45 8.0 5.0 L4.0 5.0 Q2.65 0.0 5.55 -2.55 8.25 -4.9 13.0 -4.0 L13.0 1.0" fill="url(#gradient2)" fill-rule="evenodd" stroke="none"/>
    <path d="M-8.0 5.0 Q-5.95 3.45 -5.95 1.6 -6.0 -0.05 -7.45 -1.1 -8.9 -2.15 -10.45 -1.7 -12.25 -1.25 -13.0 1.0 L-13.0 -4.0 Q-8.25 -4.9 -5.55 -2.55 -2.65 0.0 -4.0 5.0 L-8.0 5.0" fill="url(#gradient3)" fill-rule="evenodd" stroke="none"/>
    <path d="M13.0 -4.0 L16.0 -6.0 21.0 -6.0 Q18.6 -5.3 16.15 -3.15 13.75 -1.05 13.0 1.0 L13.0 -4.0" fill="url(#gradient4)" fill-rule="evenodd" stroke="none"/>
    <path d="M-13.0 1.0 Q-13.75 -1.05 -16.15 -3.15 -18.6 -5.3 -21.0 -6.0 L-16.0 -6.0 -13.0 -4.0 -13.0 1.0" fill="url(#gradient5)" fill-rule="evenodd" stroke="none"/>
    <path d="M16.0 -6.0 L13.0 -8.0 13.0 -13.0 Q13.75 -10.95 16.15 -8.85 18.6 -6.7 21.0 -6.0 L16.0 -6.0" fill="url(#gradient6)" fill-rule="evenodd" stroke="none"/>
    <path d="M-21.0 -6.0 Q-18.6 -6.7 -16.15 -8.85 -13.75 -10.95 -13.0 -13.0 L-13.0 -8.0 -16.0 -6.0 -21.0 -6.0" fill="url(#gradient7)" fill-rule="evenodd" stroke="none"/>
    <path d="M4.0 -20.0 L8.0 -20.0 Q2.7 -15.05 3.75 -11.85 4.8 -8.7 11.0 -10.0 12.6 -10.3 13.0 -13.0 L13.0 -8.0 Q4.65 -5.65 2.1 -9.8 -0.25 -13.7 4.0 -20.0" fill="url(#gradient8)" fill-rule="evenodd" stroke="none"/>
    <path d="M-8.0 -20.0 L-4.0 -20.0 Q0.25 -13.7 -2.1 -9.8 -4.65 -5.65 -13.0 -8.0 L-13.0 -13.0 Q-12.6 -10.3 -11.0 -10.0 -4.8 -8.7 -3.75 -11.85 -2.7 -15.05 -8.0 -20.0" fill="url(#gradient9)" fill-rule="evenodd" stroke="none"/>
    <path d="M0.0 -31.0 L0.0 -25.0 Q-0.2 -23.85 -1.8 -22.05 L-4.0 -20.0 -8.0 -20.0 Q-5.35 -22.1 -3.15 -25.2 -1.15 -28.05 0.0 -31.0" fill="url(#gradient10)" fill-rule="evenodd" stroke="none"/>
    <path d="M0.0 -25.0 L0.0 -31.0 Q1.15 -28.05 3.15 -25.2 5.35 -22.1 8.0 -20.0 L4.0 -20.0 1.8 -22.05 Q0.2 -23.85 0.0 -25.0" fill="#ffffff" fill-rule="evenodd" stroke="none"/>
    <path d="M2.0 27.0 L2.4 27.0 Q1.8 27.1 1.2 27.55 0.25 28.15 0.0 29.0 -0.25 28.15 -1.2 27.55 -1.8 27.1 -2.4 27.0 L-2.0 27.0 Q-0.2 22.85 0.0 18.85 0.2 22.85 2.0 27.0 M0.7 26.7 L0.75 26.65 0.0 24.5 -0.75 26.65 -0.65 26.7 -0.6 26.75 0.0 27.25 0.6 26.75 0.7 26.7" fill="#51656f" fill-rule="evenodd" stroke="none"/>
    <path d="M55.35 3.95 Q56.1 6.7 55.65 9.55 L54.9 12.4 Q56.1 11.35 56.25 13.55 56.45 15.7 55.1 18.05 L55.1 18.95 54.0 18.95 54.25 17.85 Q54.75 15.15 53.45 15.45 52.25 17.3 50.55 18.95 46.2 23.05 39.25 24.9 L34.3 24.75 Q31.75 23.85 32.0 22.2 32.5 19.0 35.6 18.55 L37.45 18.6 Q38.2 18.85 37.7 19.0 36.7 19.3 35.9 20.3 35.05 21.4 35.9 21.7 41.05 23.55 46.55 19.3 51.75 15.25 52.95 9.5 53.8 5.3 51.5 4.5 50.0 3.95 48.55 5.65 L48.3 8.0 47.15 8.0 Q47.3 5.45 48.9 3.0 50.55 0.45 52.15 0.5 54.45 0.6 55.35 3.95 M-37.65 19.0 Q-38.15 18.85 -37.4 18.6 L-35.55 18.55 Q-32.45 19.0 -31.95 22.2 -31.7 23.85 -34.25 24.75 L-39.2 24.9 Q-46.15 23.05 -50.5 18.95 L-53.4 15.45 Q-54.7 15.15 -54.2 17.85 L-53.95 18.95 -55.05 18.95 -55.05 18.05 Q-56.4 15.7 -56.2 13.55 -56.05 11.35 -54.85 12.4 L-55.6 9.55 Q-56.05 6.7 -55.3 3.95 -54.4 0.6 -52.1 0.5 -50.5 0.45 -48.85 3.0 -47.25 5.45 -47.1 8.0 L-48.25 8.0 -48.5 5.65 Q-49.95 3.95 -51.45 4.5 -53.75 5.3 -52.9 9.5 -51.7 15.25 -46.5 19.3 -41.0 23.55 -35.85 21.7 -35.0 21.4 -35.85 20.3 -36.65 19.3 -37.65 19.0" fill="#51656f" fill-rule="evenodd" stroke="none"/>
    <path d="M32.4 -4.05 Q33.6 -6.8 36.2 -7.55 38.7 -8.25 41.1 -6.8 43.7 -5.3 44.65 -2.2 45.1 -0.8 45.15 0.8 46.45 -1.45 48.1 0.2 49.8 1.85 47.95 5.25 47.7 3.05 46.85 2.3 46.3 1.8 45.15 1.8 45.1 3.9 44.15 6.4 42.8 9.85 40.15 12.1 42.05 11.2 43.7 12.35 45.35 13.55 44.55 15.7 44.0 17.05 42.45 17.75 L39.55 17.9 Q41.7 16.55 41.55 15.0 41.35 13.35 37.9 14.35 L27.25 21.85 Q23.2 24.65 23.35 27.0 L17.35 27.0 Q20.45 22.9 26.5 19.15 29.65 15.45 29.4 12.5 29.15 10.05 26.85 9.25 24.55 8.45 22.7 10.05 21.05 11.5 20.95 14.3 L21.65 15.65 21.3 15.6 21.0 15.65 Q18.7 12.85 20.05 9.4 21.5 5.8 25.8 5.8 29.15 5.8 31.0 8.85 33.1 12.3 30.45 16.8 L36.05 13.55 Q39.05 11.25 41.15 7.0 42.8 3.7 42.45 0.6 42.15 -2.0 40.6 -3.55 39.1 -5.0 37.55 -4.45 35.9 -3.8 35.4 -1.05 35.2 0.2 36.1 0.2 L37.5 -0.1 Q38.7 -0.3 37.25 1.65 36.0 3.35 33.75 2.65 32.35 2.2 31.95 0.1 31.55 -2.0 32.4 -4.05 M-41.05 -6.75 Q-38.65 -8.2 -36.15 -7.5 -33.55 -6.75 -32.35 -4.0 -31.5 -1.95 -31.9 0.15 -32.3 2.25 -33.7 2.7 -35.95 3.4 -37.2 1.7 -38.65 -0.25 -37.45 -0.05 L-36.05 0.25 Q-35.15 0.25 -35.35 -1.0 -35.85 -3.75 -37.5 -4.4 -39.05 -4.95 -40.55 -3.5 -42.1 -1.95 -42.4 0.65 -42.75 3.75 -41.1 7.05 -39.0 11.3 -36.0 13.6 -34.8 14.55 -30.4 16.85 -33.05 12.35 -30.95 8.9 -29.1 5.85 -25.75 5.85 -21.5 5.85 -20.05 9.45 -18.7 12.9 -21.0 15.7 L-21.3 15.65 -21.65 15.7 -20.95 14.35 Q-21.05 11.55 -22.7 10.1 -24.5 8.5 -26.8 9.3 -29.1 10.1 -29.35 12.55 -29.6 15.5 -26.45 19.15 -20.45 22.9 -17.35 27.0 L-23.35 27.0 Q-23.2 24.65 -27.2 21.85 L-37.85 14.4 Q-41.3 13.4 -41.5 15.05 -41.65 16.6 -39.5 17.9 L-42.4 17.75 Q-43.95 17.1 -44.5 15.75 -45.3 13.6 -43.65 12.4 -42.0 11.25 -40.1 12.15 -42.75 9.9 -44.1 6.45 -45.05 3.95 -45.1 1.85 -46.25 1.85 -46.8 2.35 -47.65 3.1 -47.9 5.3 -49.75 1.9 -48.05 0.25 -46.4 -1.4 -45.1 0.85 -45.05 -0.75 -44.6 -2.15 -43.65 -5.25 -41.05 -6.75" fill="#51656f" fill-rule="evenodd" stroke="none"/>
    <path d="M-36.75 20.3 Q-37.55 19.3 -38.55 19.0 -39.05 18.85 -38.3 18.6 L-36.45 18.55 Q-33.35 19.0 -32.85 22.2 -32.6 23.85 -35.15 24.75 L-40.1 24.9 Q-47.05 23.05 -51.4 18.95 -53.1 17.3 -54.3 15.45 -55.85 15.1 -54.85 18.95 L-55.9 18.1 Q-57.3 15.75 -57.1 13.55 -56.95 11.35 -55.75 12.4 L-56.5 9.55 Q-56.95 6.7 -56.2 3.95 -55.3 0.6 -53.0 0.5 -51.4 0.45 -49.75 3.0 -48.15 5.45 -48.0 8.0 -50.05 3.65 -52.35 4.5 -54.65 5.3 -53.8 9.5 -52.6 15.25 -47.4 19.3 -41.9 23.55 -36.75 21.7 -35.9 21.4 -36.75 20.3" fill="url(#gradient11)" fill-rule="evenodd" stroke="none"/>
    <path d="M53.8 9.5 Q54.65 5.3 52.35 4.5 50.05 3.65 48.0 8.0 48.15 5.45 49.75 3.0 51.4 0.45 53.0 0.5 55.3 0.6 56.2 3.95 56.95 6.7 56.5 9.55 L55.75 12.4 Q56.95 11.35 57.1 13.55 57.3 15.75 55.9 18.1 L54.85 18.95 Q55.85 15.1 54.3 15.45 53.1 17.3 51.4 18.95 47.05 23.05 40.1 24.9 L35.15 24.75 Q32.6 23.85 32.85 22.2 33.35 19.0 36.45 18.55 L38.3 18.6 Q39.05 18.85 38.55 19.0 37.55 19.3 36.75 20.3 35.9 21.4 36.75 21.7 41.9 23.55 47.4 19.3 52.6 15.25 53.8 9.5" fill="url(#gradient12)" fill-rule="evenodd" stroke="none"/>
    <path d="M-41.7 -6.75 Q-39.3 -8.2 -36.8 -7.5 -34.2 -6.75 -33.0 -4.0 -32.15 -1.95 -32.55 0.15 -32.95 2.25 -34.35 2.7 -36.6 3.4 -37.85 1.7 -39.3 -0.25 -38.1 -0.05 L-36.7 0.25 Q-35.8 0.25 -36.0 -1.0 -36.5 -3.75 -38.15 -4.4 -39.7 -4.95 -41.2 -3.5 -42.75 -1.95 -43.05 0.65 -43.4 3.75 -41.75 7.05 -39.65 11.3 -36.65 13.6 -35.45 14.55 -31.05 16.85 -33.7 12.35 -31.6 8.9 -29.75 5.85 -26.4 5.85 -22.15 5.85 -20.7 9.45 -19.35 12.9 -21.65 15.7 -21.3 11.9 -23.35 10.1 -25.15 8.5 -27.45 9.3 -29.75 10.1 -30.0 12.55 -30.25 15.5 -27.1 19.15 -21.1 22.9 -18.0 27.0 L-24.0 27.0 Q-23.85 24.65 -27.85 21.85 L-38.5 14.4 Q-41.95 13.4 -42.15 15.05 -42.3 16.6 -40.15 17.9 L-43.05 17.75 Q-44.6 17.1 -45.15 15.75 -45.95 13.6 -44.3 12.4 -42.65 11.25 -40.75 12.15 -43.4 9.9 -44.75 6.45 -45.7 3.95 -45.75 1.85 -46.9 1.85 -47.45 2.35 -48.3 3.1 -48.55 5.3 -50.4 1.9 -48.7 0.25 -47.05 -1.4 -45.75 0.85 -45.7 -0.75 -45.25 -2.15 -44.3 -5.25 -41.7 -6.75" fill="url(#gradient13)" fill-rule="evenodd" stroke="none"/>
    <path d="M38.15 -4.45 Q36.5 -3.8 36.0 -1.05 35.8 0.2 36.7 0.2 L38.1 -0.1 Q39.3 -0.3 37.85 1.65 36.6 3.35 34.35 2.65 32.95 2.2 32.55 0.1 32.15 -2.0 33.0 -4.05 34.2 -6.8 36.8 -7.55 39.3 -8.25 41.7 -6.8 44.3 -5.3 45.25 -2.2 45.7 -0.8 45.75 0.8 47.05 -1.45 48.7 0.2 50.4 1.85 48.55 5.25 48.3 3.05 47.45 2.3 46.9 1.8 45.75 1.8 45.7 3.9 44.75 6.4 43.4 9.85 40.75 12.1 42.65 11.2 44.3 12.35 45.95 13.55 45.15 15.7 44.6 17.05 43.05 17.75 L40.15 17.9 Q42.3 16.55 42.15 15.0 41.95 13.35 38.5 14.35 L27.85 21.85 Q23.85 24.65 24.0 27.0 L18.0 27.0 Q21.1 22.9 27.1 19.15 30.25 15.45 30.0 12.5 29.75 10.05 27.45 9.25 25.15 8.45 23.35 10.05 21.3 11.85 21.65 15.65 19.35 12.85 20.7 9.4 22.15 5.8 26.4 5.8 29.75 5.8 31.6 8.85 33.7 12.3 31.05 16.8 35.45 14.5 36.65 13.55 39.65 11.25 41.75 7.0 43.4 3.7 43.05 0.6 42.75 -2.0 41.2 -3.55 39.7 -5.0 38.15 -4.45" fill="url(#gradient14)" fill-rule="evenodd" stroke="none"/>
    <path d="M-27.7 -15.9 Q-23.8 -17.4 -20.45 -15.3 -18.75 -17.2 -15.8 -17.25 -14.1 -15.55 -12.3 -15.45 -10.6 -15.3 -10.0 -16.5 -9.8 -17.5 -10.15 -18.25 L-10.6 -19.05 Q-10.6 -19.55 -9.35 -18.45 -8.1 -17.3 -7.95 -16.05 -7.7 -14.35 -9.3 -13.45 -10.85 -12.5 -13.05 -13.0 -14.15 -13.25 -15.55 -14.35 -16.8 -15.3 -17.55 -15.35 -19.05 -15.4 -19.4 -14.6 -16.4 -11.6 -17.4 -8.7 -18.45 -5.65 -23.0 -7.0 -24.25 -8.1 -23.6 -10.05 -22.9 -12.0 -21.95 -10.85 -21.3 -10.05 -20.2 -9.9 -19.0 -9.75 -19.65 -11.3 -21.1 -14.6 -25.0 -13.75 -29.0 -12.9 -29.9 -7.8 -30.9 -2.05 -26.9 1.9 -23.35 5.4 -16.95 6.6 -18.05 5.2 -17.8 3.85 -17.5 2.45 -17.15 3.15 L-15.75 4.8 -14.1 6.05 Q-8.0 8.6 -6.35 9.95 -2.2 13.4 -2.6 18.1 -2.9 21.9 -6.9 23.9 -9.15 25.05 -11.55 25.3 -12.25 25.35 -12.55 25.9 -12.85 26.35 -12.8 26.9 L-14.5 26.85 Q-14.8 26.35 -14.7 25.95 -14.5 25.4 -13.7 25.15 -15.4 24.85 -16.75 24.0 -19.4 22.35 -19.9 19.35 -20.45 16.45 -18.65 14.55 -16.65 12.4 -13.0 13.0 -15.3 13.6 -16.3 15.35 -17.2 16.9 -16.7 18.7 -15.4 23.1 -9.5 22.15 -6.7 21.7 -5.3 19.7 -3.65 17.3 -5.15 13.9 -5.05 14.95 -5.95 15.2 L-7.85 15.0 Q-6.4 14.05 -7.45 12.1 -8.65 9.9 -12.55 9.3 -24.8 7.4 -29.75 2.55 -34.3 -2.0 -33.1 -9.5 -31.95 -14.35 -27.7 -15.9" fill="url(#gradient15)" fill-rule="evenodd" stroke="none"/>
    <path d="M19.45 -14.6 Q19.1 -15.4 17.6 -15.35 16.85 -15.3 15.55 -14.35 14.15 -13.25 13.05 -13.0 10.85 -12.5 9.3 -13.45 7.7 -14.35 7.95 -16.05 8.1 -17.3 9.35 -18.45 10.6 -19.55 10.6 -19.05 L10.15 -18.25 Q9.8 -17.5 10.0 -16.5 10.6 -15.3 12.3 -15.45 14.1 -15.55 15.8 -17.25 18.8 -17.2 20.5 -15.3 23.85 -17.4 27.75 -15.9 32.0 -14.35 33.15 -9.5 34.35 -2.0 29.8 2.55 24.85 7.4 12.55 9.3 8.65 9.9 7.45 12.1 6.4 14.05 7.85 15.0 L5.95 15.2 Q5.05 14.95 5.15 13.9 3.65 17.3 5.3 19.7 6.7 21.7 9.5 22.15 15.4 23.15 16.7 18.7 17.25 16.9 16.3 15.35 15.3 13.6 13.0 13.0 16.65 12.4 18.7 14.55 20.5 16.45 19.95 19.35 19.45 22.35 16.8 24.05 15.4 24.9 13.7 25.2 14.5 25.45 14.7 26.0 14.8 26.4 14.5 26.9 L12.8 26.95 Q12.85 26.4 12.55 25.95 12.25 25.4 11.55 25.35 9.15 25.1 6.9 23.95 2.9 21.9 2.6 18.1 2.2 13.4 6.35 9.95 8.0 8.6 14.1 6.05 L15.75 4.8 17.2 3.15 Q17.55 2.45 17.85 3.85 18.1 5.2 17.0 6.6 23.4 5.4 26.95 1.9 30.95 -2.05 29.95 -7.8 29.05 -12.9 25.05 -13.75 21.15 -14.6 19.7 -11.3 19.05 -9.75 20.25 -9.9 21.35 -10.05 22.0 -10.85 22.95 -12.0 23.65 -10.05 24.3 -8.1 23.05 -7.0 18.5 -5.65 17.45 -8.7 16.4 -11.6 19.45 -14.6" fill="url(#gradient16)" fill-rule="evenodd" stroke="none"/>
    <path d="M56.0 18.0 L56.0 20.0 Q50.15 25.75 38.2 28.65 24.15 32.0 0.0 32.0 -24.15 32.0 -38.2 28.65 -50.15 25.75 -56.0 20.0 L-56.0 18.0 Q-48.5 23.55 -34.45 25.45 L-3.0 27.0 Q-2.15 26.85 -1.2 27.55 -0.25 28.15 0.0 29.0 0.25 28.15 1.2 27.55 2.15 26.85 3.0 27.0 L34.45 25.45 Q48.5 23.55 56.0 18.0" fill="url(#gradient17)" fill-rule="evenodd" stroke="none"/>
  </g>
  <defs>
    <linearGradient gradientTransform="matrix(0.0, -0.0134, 0.0134, 0.0, -4.0, 16.0)" gradientUnits="userSpaceOnUse" id="gradient0" spreadMethod="pad" x1="-819.2" x2="819.2">
      <stop offset="0.011764705882352941" stop-color="#ededed"/>
      <stop offset="0.403921568627451" stop-color="#85888f"/>
      <stop offset="1.0" stop-color="#9f9f9f"/>
    </linearGradient>
    <linearGradient gradientTransform="matrix(0.0, -0.0134, 0.0134, 0.0, 3.95, 16.0)" gradientUnits="userSpaceOnUse" id="gradient1" spreadMethod="pad" x1="-819.2" x2="819.2">
      <stop offset="0.0" stop-color="#ffffff"/>
      <stop offset="0.9254901960784314" stop-color="#9a9ea5"/>
      <stop offset="1.0" stop-color="#989898"/>
    </linearGradient>
    <linearGradient gradientTransform="matrix(-0.0043, 0.0076, -0.0049, -0.0028, 8.2, 0.25)" gradientUnits="userSpaceOnUse" id="gradient2" spreadMethod="pad" x1="-819.2" x2="819.2">
      <stop offset="0.0" stop-color="#b5b5b5"/>
      <stop offset="0.24705882352941178" stop-color="#919599"/>
      <stop offset="1.0" stop-color="#e2e2e2"/>
    </linearGradient>
    <linearGradient gradientTransform="matrix(-0.0064, -0.0064, 0.004, -0.004, -8.15, 0.25)" gradientUnits="userSpaceOnUse" id="gradient3" spreadMethod="pad" x1="-819.2" x2="819.2">
      <stop offset="0.0" stop-color="#d5d5d5"/>
      <stop offset="0.5607843137254902" stop-color="#959595"/>
      <stop offset="1.0" stop-color="#5e6568"/>
    </linearGradient>
    <linearGradient gradientTransform="matrix(0.0046, -0.004, 0.0028, 0.0032, 17.15, -2.6)" gradientUnits="userSpaceOnUse" id="gradient4" spreadMethod="pad" x1="-819.2" x2="819.2">
      <stop offset="0.09803921568627451" stop-color="#c1c2c4"/>
      <stop offset="0.8627450980392157" stop-color="#a6a6a6"/>
    </linearGradient>
    <linearGradient gradientTransform="matrix(0.004, 0.0051, -0.0034, 0.0026, -17.0, -2.5)" gradientUnits="userSpaceOnUse" id="gradient5" spreadMethod="pad" x1="-819.2" x2="819.2">
      <stop offset="0.0" stop-color="#868686"/>
      <stop offset="0.8196078431372549" stop-color="#b6b8ba"/>
    </linearGradient>
    <linearGradient gradientTransform="matrix(0.0044, 0.0061, -0.0035, 0.0025, 17.0, -9.5)" gradientUnits="userSpaceOnUse" id="gradient6" spreadMethod="pad" x1="-819.2" x2="819.2">
      <stop offset="0.0" stop-color="#ffffff"/>
      <stop offset="0.8196078431372549" stop-color="#dbdbdb"/>
    </linearGradient>
    <linearGradient gradientTransform="matrix(0.0046, -0.0046, 0.003, 0.003, -17.0, -9.5)" gradientUnits="userSpaceOnUse" id="gradient7" spreadMethod="pad" x1="-819.2" x2="819.2">
      <stop offset="0.0" stop-color="#dfdfdf"/>
      <stop offset="0.8196078431372549" stop-color="#c2c2c2"/>
    </linearGradient>
    <linearGradient gradientTransform="matrix(-0.0075, -0.0071, 0.0054, -0.0057, 8.25, -12.3)" gradientUnits="userSpaceOnUse" id="gradient8" spreadMethod="pad" x1="-819.2" x2="819.2">
      <stop offset="0.0" stop-color="#9d9fa2"/>
      <stop offset="0.6" stop-color="#ededed"/>
      <stop offset="1.0" stop-color="#9f9f9f"/>
    </linearGradient>
    <linearGradient gradientTransform="matrix(0.0084, -0.0081, 0.0054, 0.0056, -7.15, -13.6)" gradientUnits="userSpaceOnUse" id="gradient9" spreadMethod="pad" x1="-819.2" x2="819.2">
      <stop offset="0.0" stop-color="#b8b8b8"/>
      <stop offset="0.3137254901960784" stop-color="#727578"/>
      <stop offset="0.5725490196078431" stop-color="#8a8a8a"/>
      <stop offset="1.0" stop-color="#787878"/>
    </linearGradient>
    <linearGradient gradientTransform="matrix(0.0063, -0.0065, 0.0048, 0.0047, -4.0, -25.5)" gradientUnits="userSpaceOnUse" id="gradient10" spreadMethod="pad" x1="-819.2" x2="819.2">
      <stop offset="0.0" stop-color="#ffffff"/>
      <stop offset="1.0" stop-color="#aaadb0"/>
    </linearGradient>
    <radialGradient cx="0" cy="0" fx="-1084.8" fy="0" gradientTransform="matrix(0.018, -0.0177, 0.0211, 0.0216, -45.0, 12.85)" gradientUnits="userSpaceOnUse" id="gradient11" r="819.2" spreadMethod="pad">
      <stop offset="0.06666666666666667" stop-color="#717171"/>
      <stop offset="0.25882352941176473" stop-color="#4a4a4a"/>
      <stop offset="0.3411764705882353" stop-color="#717171"/>
      <stop offset="0.5372549019607843" stop-color="#b5b5b5"/>
      <stop offset="0.7333333333333333" stop-color="#6a6a6a"/>
    </radialGradient>
    <radialGradient cx="0" cy="0" fx="-1084.8" fy="0" gradientTransform="matrix(-0.018, -0.0177, -0.0211, 0.0216, 45.0, 12.85)" gradientUnits="userSpaceOnUse" id="gradient12" r="819.2" spreadMethod="pad">
      <stop offset="0.06666666666666667" stop-color="#717171"/>
      <stop offset="0.25882352941176473" stop-color="#4a4a4a"/>
      <stop offset="0.3411764705882353" stop-color="#717171"/>
      <stop offset="0.5372549019607843" stop-color="#b5b5b5"/>
      <stop offset="0.7333333333333333" stop-color="#6a6a6a"/>
    </radialGradient>
    <radialGradient cx="0" cy="0" fx="-1046.4" fy="0" gradientTransform="matrix(0.0146, 0.0278, -0.0168, 0.0088, -34.0, 10.0)" gradientUnits="userSpaceOnUse" id="gradient13" r="819.2" spreadMethod="pad">
      <stop offset="0.0196078431372549" stop-color="#ffffff"/>
      <stop offset="0.4980392156862745" stop-color="#878a8d"/>
      <stop offset="0.5647058823529412" stop-color="#cacaca"/>
      <stop offset="0.6392156862745098" stop-color="#cdcdcd"/>
      <stop offset="0.8" stop-color="#959595"/>
      <stop offset="0.8745098039215686" stop-color="#c0c1c5"/>
      <stop offset="0.9568627450980393" stop-color="#d5d5d9"/>
    </radialGradient>
    <radialGradient cx="0" cy="0" fx="-1046.4" fy="0" gradientTransform="matrix(-0.0146, 0.0278, 0.0168, 0.0089, 34.0, 9.95)" gradientUnits="userSpaceOnUse" id="gradient14" r="819.2" spreadMethod="pad">
      <stop offset="0.0196078431372549" stop-color="#ffffff"/>
      <stop offset="0.4980392156862745" stop-color="#878a8d"/>
      <stop offset="0.5647058823529412" stop-color="#cacaca"/>
      <stop offset="0.6392156862745098" stop-color="#cdcdcd"/>
      <stop offset="0.8" stop-color="#959595"/>
      <stop offset="0.8745098039215686" stop-color="#c0c1c5"/>
      <stop offset="0.9568627450980393" stop-color="#d5d5d9"/>
    </radialGradient>
    <radialGradient cx="0" cy="0" fx="-1123.2" fy="0" gradientTransform="matrix(0.0264, 0.0263, -0.0213, 0.0213, -15.55, -2.55)" gradientUnits="userSpaceOnUse" id="gradient15" r="819.2" spreadMethod="pad">
      <stop offset="0.0" stop-color="#fbfbfb"/>
      <stop offset="0.20784313725490197" stop-color="#9d9fa2"/>
      <stop offset="0.4196078431372549" stop-color="#b8b8b8"/>
      <stop offset="0.5215686274509804" stop-color="#7b7b7b"/>
      <stop offset="0.6627450980392157" stop-color="#d0d0d0"/>
      <stop offset="0.9137254901960784" stop-color="#959595"/>
      <stop offset="0.9686274509803922" stop-color="#dbdbdb"/>
      <stop offset="1.0" stop-color="#e6e6e6"/>
    </radialGradient>
    <radialGradient cx="0" cy="0" fx="-1123.2" fy="0" gradientTransform="matrix(-0.0264, 0.0263, 0.0213, 0.0214, 15.55, -2.55)" gradientUnits="userSpaceOnUse" id="gradient16" r="819.2" spreadMethod="pad">
      <stop offset="0.0" stop-color="#fbfbfb"/>
      <stop offset="0.20784313725490197" stop-color="#9d9fa2"/>
      <stop offset="0.4196078431372549" stop-color="#b8b8b8"/>
      <stop offset="0.5215686274509804" stop-color="#7b7b7b"/>
      <stop offset="0.6627450980392157" stop-color="#d0d0d0"/>
      <stop offset="0.9137254901960784" stop-color="#959595"/>
      <stop offset="0.9686274509803922" stop-color="#dbdbdb"/>
      <stop offset="1.0" stop-color="#e6e6e6"/>
    </radialGradient>
    <radialGradient cx="0" cy="0" gradientTransform="matrix(0.0692, 0.0, 0.0, 0.0692, 0.0, 30.0)" gradientUnits="userSpaceOnUse" id="gradient17" r="819.2" spreadMethod="pad">
      <stop offset="0.043137254901960784" stop-color="#f8f8f8"/>
      <stop offset="0.12941176470588237" stop-color="#eaeaea"/>
      <stop offset="0.5098039215686274" stop-color="#cacbd0"/>
      <stop offset="0.8901960784313725" stop-color="#606060"/>
      <stop offset="1.0" stop-color="#717171"/>
    </radialGradient>
  </defs>
</svg>
