<?xml version="1.0" encoding="UTF-8" standalone="no"?>
<svg xmlns:xlink="http://www.w3.org/1999/xlink" height="480.0px" width="480.0px" xmlns="http://www.w3.org/2000/svg">
  <g transform="matrix(1.0, 0.0, 0.0, 1.0, 240.0, 240.0)">
    <path d="M166.2 -166.2 Q97.35 -235.05 0.0 -235.05 -97.35 -235.05 -166.2 -166.2 -235.05 -97.35 -235.05 0.0 -235.05 97.35 -166.2 166.2 -97.35 235.05 0.0 235.05 97.35 235.05 166.2 166.2 235.05 97.35 235.05 0.0 235.05 -97.35 166.2 -166.2 M169.45 -169.85 Q240.0 -99.35 240.0 0.0 240.0 99.4 169.45 169.45 99.4 240.0 0.0 240.0 -99.35 240.0 -169.85 169.45 -240.0 99.4 -240.0 0.0 -240.0 -99.35 -169.85 -169.85 -99.35 -240.0 0.0 -240.0 99.4 -240.0 169.45 -169.85" fill="url(#gradient0)" fill-rule="evenodd" stroke="none"/>
    <path d="M156.6 -156.65 Q91.75 -221.5 0.0 -221.5 -91.75 -221.5 -156.65 -156.65 -221.5 -91.75 -221.5 0.0 -221.5 91.75 -156.65 156.6 -91.75 221.5 0.0 221.5 91.75 221.5 156.6 156.6 221.5 91.75 221.5 0.0 221.5 -91.75 156.6 -156.65 M166.2 -166.2 Q235.05 -97.35 235.05 0.0 235.05 97.35 166.2 166.2 97.35 235.05 0.0 235.05 -97.35 235.05 -166.2 166.2 -235.05 97.35 -235.05 0.0 -235.05 -97.35 -166.2 -166.2 -97.35 -235.05 0.0 -235.05 97.35 -235.05 166.2 -166.2" fill="url(#gradient1)" fill-rule="evenodd" stroke="none"/>
    <path d="M31.6 -31.6 Q89.05 -25.4 128.4 -20.15 202.55 -10.25 224.0 0.0 202.55 10.25 128.4 20.15 89.05 25.4 31.6 31.6 25.4 89.05 20.15 128.4 10.25 202.55 0.0 224.0 -10.25 202.55 -20.15 128.4 -25.4 89.05 -31.6 31.6 -89.05 25.4 -128.4 20.15 -202.55 10.25 -224.0 0.0 -202.55 -10.25 -128.4 -20.15 -89.05 -25.4 -31.6 -31.6 -25.4 -89.05 -20.15 -128.4 -10.25 -202.55 0.0 -224.0 10.25 -202.55 20.15 -128.4 25.4 -89.05 31.6 -31.6" fill="url(#gradient2)" fill-rule="evenodd" stroke="none"/>
  </g>
  <defs>
    <radialGradient cx="0" cy="0" gradientTransform="matrix(0.2971, 0.0, 0.0, 0.2971, 0.0, 0.0)" gradientUnits="userSpaceOnUse" id="gradient0" r="819.2" spreadMethod="pad">
      <stop offset="0.7686274509803922" stop-color="#ffffff"/>
      <stop offset="1.0" stop-color="#ffffff"/>
    </radialGradient>
    <radialGradient cx="0" cy="0" gradientTransform="matrix(0.3047, 0.0, 0.0, 0.3047, 0.0, 0.0)" gradientUnits="userSpaceOnUse" id="gradient1" r="819.2" spreadMethod="pad">
      <stop offset="0.8627450980392157" stop-color="#ffffff" stop-opacity="0.0"/>
      <stop offset="0.9254901960784314" stop-color="#ffffff" stop-opacity="0.8"/>
      <stop offset="1.0" stop-color="#ffffff"/>
    </radialGradient>
    <radialGradient cx="0" cy="0" gradientTransform="matrix(0.2753, 0.0, 0.0, 0.2753, 0.0, 0.0)" gradientUnits="userSpaceOnUse" id="gradient2" r="819.2" spreadMethod="pad">
      <stop offset="0.49019607843137253" stop-color="#ffffff"/>
      <stop offset="0.7019607843137254" stop-color="#fff4c6"/>
      <stop offset="0.9137254901960784" stop-color="#fff8e1"/>
      <stop offset="0.9882352941176471" stop-color="#feefc7"/>
    </radialGradient>
  </defs>
</svg>
