<?xml version="1.0" encoding="UTF-8" standalone="no"?>
<svg xmlns:xlink="http://www.w3.org/1999/xlink" height="105.5px" width="102.0px" xmlns="http://www.w3.org/2000/svg">
  <g transform="matrix(1.0, 0.0, 0.0, 1.0, 51.0, 50.5)">
    <path d="M29.7 -48.35 Q37.9 -45.55 44.75 -40.05 L45.2 -39.6 Q49.0 -35.8 43.5 -25.55 38.85 -16.95 34.2 -14.65 L32.2 -14.35 29.25 -15.25 34.3 -9.95 Q41.65 -1.35 46.35 11.2 L46.35 11.25 Q50.95 23.9 51.0 35.8 L51.0 36.2 51.0 36.3 Q51.35 44.7 34.9 50.15 20.45 55.0 0.0 55.0 -20.45 55.0 -34.9 50.15 -51.35 44.7 -51.0 36.3 L-51.0 36.2 -51.0 35.8 Q-50.95 23.9 -46.3 11.25 L-46.3 11.2 Q-41.65 -1.35 -34.25 -9.95 -31.35 -13.4 -25.15 -18.2 L-19.7 -22.25 -19.6 -22.3 Q-14.7 -25.95 -12.15 -28.25 L-12.1 -29.45 -12.1 -29.5 Q-11.85 -31.85 -9.8 -33.3 L-9.6 -33.45 -9.3 -33.6 Q-9.6 -35.05 -8.8 -36.6 L-8.8 -36.55 Q-8.05 -38.65 -5.8 -39.65 L-5.5 -39.8 -4.95 -39.95 Q-2.5 -44.25 2.35 -46.95 7.35 -49.8 14.4 -50.4 21.6 -51.0 29.7 -48.35" fill="#000000" fill-rule="evenodd" stroke="none"/>
    <path d="M20.35 -18.45 Q26.2 -14.7 32.0 -8.0 39.05 0.25 43.5 12.25 47.95 24.4 48.0 35.8 L48.0 36.2 Q47.8 42.7 33.95 47.3 19.9 52.0 0.0 52.0 -19.9 52.0 -33.95 47.3 -47.8 42.7 -48.0 36.2 L-48.0 35.8 Q-47.95 24.4 -43.5 12.25 -39.05 0.25 -32.0 -8.0 -29.2 -11.25 -23.3 -15.85 L-17.9 -19.85 Q-12.25 -24.05 -9.6 -26.55 -4.9 -31.0 -3.9 -34.7 L10.8 -27.8 10.5 -27.1 Q10.15 -25.6 13.5 -23.0 L20.35 -18.45" fill="url(#gradient0)" fill-rule="evenodd" stroke="none"/>
    <path d="M32.8 -17.3 Q28.2 -18.25 22.1 -23.45 15.8 -28.75 14.55 -29.1 L11.95 -28.9 Q11.15 -28.5 10.8 -27.8 L-3.9 -34.7 Q-2.2 -41.0 3.8 -44.35 8.3 -46.85 14.65 -47.4 21.3 -47.95 28.75 -45.5 36.45 -42.9 42.85 -37.75 45.05 -35.0 40.0 -25.9 35.1 -17.05 32.8 -17.3" fill="url(#gradient1)" fill-rule="evenodd" stroke="none"/>
    <path d="M5.3 -34.45 Q8.75 -33.1 12.75 -32.5 L13.1 -32.45 Q14.55 -31.95 16.05 -28.25 L14.55 -29.1 11.95 -28.9 10.9 -28.0 10.8 -27.8 10.7 -27.6 10.5 -27.1 Q10.15 -25.6 13.5 -23.0 L13.85 -22.7 Q12.85 -21.95 11.25 -21.45 L6.2 -21.0 1.6 -21.4 1.5 -21.4 Q-2.1 -22.0 -7.5 -24.2 L-7.4 -24.15 Q-9.35 -24.8 -10.3 -25.9 L-9.6 -26.55 Q-5.95 -30.0 -4.55 -32.95 -4.15 -33.85 -3.9 -34.7 L-3.55 -35.8 Q-3.0 -37.45 -2.1 -38.9 L-1.75 -38.75 -1.2 -38.45 Q1.85 -36.0 5.25 -34.5 L5.3 -34.45" fill="#383532" fill-opacity="0.6" fill-rule="evenodd" stroke="none"/>
    <path d="M32.8 -17.3 L31.15 -17.75 Q30.75 -19.0 31.05 -21.15 31.6 -24.95 33.9 -29.2 36.25 -33.55 39.1 -36.0 41.3 -37.95 42.8 -37.8 L42.85 -37.75 Q45.05 -35.0 40.0 -25.9 35.1 -17.05 32.8 -17.3" fill="#383532" fill-opacity="0.6" fill-rule="evenodd" stroke="none"/>
    <path d="M13.65 -26.75 L13.65 -26.15 Q13.35 -24.2 10.65 -23.4 L6.25 -23.0 1.8 -23.4 Q-1.6 -23.95 -6.75 -26.05 -9.4 -26.95 -9.15 -29.1 -9.0 -30.2 -8.05 -30.9 -7.05 -31.5 -6.0 -31.4 -3.75 -30.45 -1.5 -29.8 0.4 -28.65 2.4 -27.8 6.2 -26.25 10.35 -25.65 12.75 -25.3 13.65 -26.75" fill="#8a6f3c" fill-rule="evenodd" stroke="none"/>
    <path d="M-1.5 -29.8 L-4.55 -31.95 Q-6.85 -33.55 -6.05 -35.45 -5.65 -36.45 -4.55 -36.95 L-2.45 -36.9 Q0.85 -34.25 4.5 -32.65 8.2 -31.15 12.45 -30.55 13.45 -30.2 13.85 -29.25 14.2 -28.15 13.8 -27.1 L13.65 -26.75 Q12.75 -25.3 10.35 -25.65 6.2 -26.25 2.4 -27.8 0.4 -28.65 -1.5 -29.8" fill="url(#gradient2)" fill-rule="evenodd" stroke="none"/>
    <path d="M-1.5 -29.8 Q0.4 -28.65 2.4 -27.8 6.2 -26.25 10.35 -25.65 12.75 -25.3 13.65 -26.75" fill="none" stroke="#705532" stroke-linecap="round" stroke-linejoin="round" stroke-width="1.0"/>
  </g>
  <defs>
    <radialGradient cx="0" cy="0" gradientTransform="matrix(0.0959, 0.0, 0.0, 0.0634, 0.75, 8.75)" gradientUnits="userSpaceOnUse" id="gradient0" r="819.2" spreadMethod="pad">
      <stop offset="0.1803921568627451" stop-color="#b7b3b3"/>
      <stop offset="0.39215686274509803" stop-color="#aeacac"/>
      <stop offset="1.0" stop-color="#817270"/>
    </radialGradient>
    <radialGradient cx="0" cy="0" gradientTransform="matrix(0.0037, -0.0138, 0.0177, 0.0047, 17.25, -42.5)" gradientUnits="userSpaceOnUse" id="gradient1" r="819.2" spreadMethod="pad">
      <stop offset="0.21568627450980393" stop-color="#adadad"/>
      <stop offset="1.0" stop-color="#928c89"/>
    </radialGradient>
    <radialGradient cx="0" cy="0" fx="-1632.0" fy="0" gradientTransform="matrix(0.0024, -0.0061, 0.013, 0.0051, 3.4, -30.8)" gradientUnits="userSpaceOnUse" id="gradient2" r="819.2" spreadMethod="pad">
      <stop offset="0.0" stop-color="#ac8b60"/>
      <stop offset="1.0" stop-color="#89683d"/>
    </radialGradient>
  </defs>
</svg>
