<?xml version="1.0" encoding="UTF-8" standalone="no"?>
<svg xmlns:xlink="http://www.w3.org/1999/xlink" height="79.0px" width="99.0px" xmlns="http://www.w3.org/2000/svg">
  <g transform="matrix(1.0, 0.0, 0.0, 1.0, 49.5, 39.5)">
    <path d="M16.0 -22.0 L0.0 -38.0 32.0 -38.0 16.0 -22.0" fill="#ffffff" fill-rule="evenodd" stroke="none"/>
    <path d="M16.0 -22.0 L16.0 -18.0 -16.0 -18.0 -16.0 -22.0 16.0 -22.0" fill="#1bd677" fill-rule="evenodd" stroke="none"/>
    <path d="M48.0 -22.0 L16.0 -22.0 32.0 -38.0 48.0 -22.0 M0.0 -38.0 L-16.0 -22.0 -32.0 -38.0 0.0 -38.0" fill="#22e382" fill-rule="evenodd" stroke="none"/>
    <path d="M-32.0 -38.0 L-16.0 -22.0 -48.0 -22.0 -32.0 -38.0" fill="#18c26d" fill-rule="evenodd" stroke="none"/>
    <path d="M16.0 -18.0 L48.0 -18.0 0.0 38.0 16.0 -18.0 M-16.0 -22.0 L-16.0 -18.0 -48.0 -18.0 -48.0 -22.0 -16.0 -22.0" fill="#14a35a" fill-rule="evenodd" stroke="none"/>
    <path d="M-16.0 -18.0 L16.0 -18.0 0.0 38.0 -16.0 -18.0" fill="url(#gradient0)" fill-rule="evenodd" stroke="none"/>
    <path d="M-48.0 -18.0 L-16.0 -18.0 0.0 38.0 -48.0 -18.0" fill="#107c45" fill-rule="evenodd" stroke="none"/>
    <path d="M0.0 -38.0 L16.0 -22.0 -16.0 -22.0 0.0 -38.0" fill="#89f5ac" fill-rule="evenodd" stroke="none"/>
    <path d="M16.0 -18.0 L16.0 -22.0 48.0 -22.0 48.0 -18.0 16.0 -18.0" fill="#58e786" fill-rule="evenodd" stroke="none"/>
    <path d="M48.0 -18.0 L48.0 -22.0 M32.0 -38.0 L0.0 -38.0 -32.0 -38.0 M0.0 38.0 L48.0 -18.0 M32.0 -38.0 L48.0 -22.0 M-48.0 -18.0 L-48.0 -22.0 -32.0 -38.0 M-48.0 -18.0 L0.0 38.0" fill="none" stroke="#000000" stroke-linecap="round" stroke-linejoin="round" stroke-width="3.0"/>
  </g>
  <defs>
    <linearGradient gradientTransform="matrix(0.0, 0.0439, -0.0342, 0.0, 0.0, 10.0)" gradientUnits="userSpaceOnUse" id="gradient0" spreadMethod="pad" x1="-819.2" x2="819.2">
      <stop offset="0.0" stop-color="#5ce994"/>
      <stop offset="1.0" stop-color="#259a5f"/>
    </linearGradient>
  </defs>
</svg>
