<?xml version="1.0" encoding="UTF-8" standalone="no"?>
<svg xmlns:xlink="http://www.w3.org/1999/xlink" height="84.25px" width="96.85px" xmlns="http://www.w3.org/2000/svg">
  <g transform="matrix(1.0, 0.0, 0.0, 1.0, 45.15, 44.6)">
    <path d="M18.0 -12.7 Q21.05 -4.9 20.25 -0.1 19.7 3.75 16.8 6.8 L18.7 6.55 22.95 6.2 23.0 6.2 Q25.95 6.45 27.95 8.55 28.65 9.25 28.65 10.25 28.65 11.15 28.9 11.7 29.4 12.4 30.8 13.35 L31.65 14.45 Q31.95 15.1 31.85 15.85 L31.2 17.1 31.15 17.25 Q31.6 18.15 33.2 19.35 37.0 22.1 41.45 22.8 L46.7 23.8 46.65 23.8 48.0 24.25 Q52.95 26.15 51.3 29.4 L51.25 29.45 Q50.55 32.55 46.35 32.0 L46.4 32.0 45.55 31.85 41.1 30.5 Q34.2 27.95 30.7 27.65 28.55 27.45 27.6 28.05 27.2 28.7 27.5 30.1 27.7 31.05 27.2 31.85 26.7 32.7 25.8 33.0 24.55 33.4 24.0 34.1 L24.0 34.55 24.25 35.9 23.75 37.2 Q22.8 39.3 17.35 38.5 L17.4 38.5 Q13.75 38.0 11.0 36.8 L10.65 36.6 Q6.5 33.95 1.8 31.6 L0.95 31.2 2.05 32.85 2.05 32.8 Q3.3 34.9 3.25 36.1 3.35 38.95 0.45 39.5 L0.4 39.5 Q-4.1 40.45 -11.15 35.65 L-11.15 35.6 Q-14.95 33.05 -16.8 31.1 -20.6 32.3 -24.05 29.9 -26.9 27.95 -27.5 25.9 -30.4 24.75 -31.25 22.25 -37.95 20.85 -42.75 15.25 L-42.8 15.15 -42.85 15.1 -44.3 13.35 -44.45 13.15 Q-45.75 11.2 -44.55 9.9 -43.65 8.1 -41.95 8.7 -41.2 8.55 -40.3 9.55 -39.05 10.7 -38.35 12.3 -36.6 14.25 -34.45 15.45 -36.85 12.75 -38.8 9.7 L-39.05 9.4 -40.4 7.4 -40.55 7.15 Q-41.55 5.15 -40.4 4.25 -40.0 2.95 -37.8 3.2 -36.35 3.05 -35.1 5.15 L-34.9 5.6 -34.6 6.6 -34.55 6.6 Q-31.9 10.85 -28.3 14.25 L-27.5 14.95 -28.05 14.15 Q-34.9 3.15 -38.65 -11.25 -41.0 -20.1 -40.95 -26.65 -40.95 -34.65 -37.6 -36.9 -36.15 -38.15 -33.95 -38.25 -30.75 -38.35 -29.8 -36.2 -25.65 -28.45 -21.75 -23.6 -18.55 -19.6 -14.95 -17.0 -11.6 -27.25 -5.25 -34.85 1.6 -43.15 8.5 -44.45 L8.55 -44.45 Q11.1 -44.95 12.65 -43.65 14.9 -42.3 15.5 -37.25 L15.5 -37.05 15.75 -26.0 Q16.1 -17.7 18.0 -12.7" fill="#000000" fill-rule="evenodd" stroke="none"/>
    <path d="M-23.7 -22.05 Q-19.4 -16.7 -14.55 -13.7 -16.55 -5.85 -16.8 0.2 -17.1 7.6 -15.0 15.0 L-20.0 21.0 Q-31.05 7.9 -36.25 -11.9 -38.5 -20.4 -38.45 -26.65 -38.45 -33.1 -36.0 -35.0 -35.15 -35.7 -33.85 -35.75 -32.45 -35.8 -32.0 -35.0 -27.7 -27.05 -23.7 -22.05" fill="#ffffff" fill-rule="evenodd" stroke="none"/>
    <path d="M15.65 -11.8 Q18.4 -4.75 17.75 -0.45 17.2 3.4 13.65 6.3 10.4 8.95 3.9 11.75 -2.95 14.75 -6.0 17.0 L-15.0 15.0 Q-16.8 6.6 -16.0 -1.35 -15.4 -7.15 -13.0 -15.0 -9.75 -25.55 -3.35 -33.25 2.85 -40.75 9.0 -42.0 10.35 -42.25 11.15 -41.65 12.6 -40.6 13.0 -37.0 L13.25 -25.9 Q13.6 -17.1 15.65 -11.8" fill="#ffffff" fill-rule="evenodd" stroke="none"/>
    <path d="M46.65 29.5 L41.95 28.15 Q34.65 25.45 30.9 25.15 23.8 24.5 25.05 30.6 22.85 31.3 21.9 32.7 21.0 34.1 21.75 35.65 21.1 36.5 17.7 36.0 14.45 35.6 12.0 34.5 7.75 31.75 2.9 29.35 -6.8 24.65 -9.85 26.75 L-20.0 21.0 -17.0 14.0 -6.0 17.0 Q-4.8 13.95 -1.2 12.8 0.3 12.3 11.95 10.1 L19.0 9.0 22.8 8.7 Q24.8 8.85 26.15 10.25 26.15 12.0 26.75 13.0 27.4 14.05 29.35 15.4 27.1 17.9 31.7 21.35 36.0 24.5 41.1 25.25 45.3 25.85 47.1 26.55 49.3 27.4 48.9 28.6 48.5 29.75 46.65 29.5" fill="#ffffff" fill-rule="evenodd" stroke="none"/>
    <path d="M-28.0 18.0 Q-34.15 12.95 -38.0 6.0 M-28.0 20.0 Q-36.55 19.5 -42.0 12.0" fill="none" stroke="#ffffff" stroke-linecap="round" stroke-linejoin="round" stroke-width="0.25"/>
    <path d="M-37.0 8.0 L-38.35 6.0 Q-38.55 5.6 -38.1 5.65 L-37.3 6.4 -36.75 8.0 -37.0 8.0 M-40.9 13.55 L-42.4 11.75 -42.45 11.25 -42.1 11.3 Q-41.05 12.25 -40.55 13.55 L-40.9 13.55" fill="#ffffff" fill-rule="evenodd" stroke="none"/>
    <path d="M-21.0 18.0 L-15.8 21.9 Q-10.45 26.0 -9.85 27.0 -8.7 26.85 -6.75 28.05 -5.7 28.75 -4.0 30.0 -1.65 31.5 -0.1 34.1 1.5 36.75 0.0 37.0 -3.75 37.65 -9.75 33.55 -14.7 30.15 -16.0 28.0 -19.55 29.95 -22.65 27.8 -25.45 25.9 -25.0 24.0 -28.65 23.3 -29.05 20.45 -29.4 18.0 -28.0 17.0 -26.45 15.9 -25.15 16.3 -24.15 16.6 -23.0 18.0 L-22.0 17.0 -21.0 18.0" fill="#ffffff" fill-rule="evenodd" stroke="none"/>
  </g>
</svg>
