<?xml version="1.0" encoding="UTF-8" standalone="no"?>
<svg xmlns:xlink="http://www.w3.org/1999/xlink" height="47.5px" width="32.65px" xmlns="http://www.w3.org/2000/svg">
  <g transform="matrix(1.0, 0.0, 0.0, 1.0, -231.0, 30.65)">
    <path d="M238.8 -6.1 Q234.7 -7.1 233.6 -6.75 232.95 -9.6 232.65 -11.75 231.75 -17.3 231.25 -23.5 230.7 -30.5 231.35 -30.65 231.9 -30.8 233.55 -27.45 235.9 -22.6 236.35 -21.9 L238.95 -17.05 Q240.45 -14.35 241.55 -13.5 242.55 -12.75 243.75 -12.3 L245.0 -12.0 250.65 -12.75 263.65 14.25 245.3 16.85 Q245.2 16.6 244.65 6.3 244.1 -3.85 243.8 -4.15 242.9 -5.05 238.8 -6.1" fill="#ededed" fill-rule="evenodd" stroke="none"/>
  </g>
</svg>
