<?xml version="1.0" encoding="UTF-8" standalone="no"?>
<svg xmlns:xlink="http://www.w3.org/1999/xlink" height="117.0px" width="102.0px" xmlns="http://www.w3.org/2000/svg">
  <g transform="matrix(1.0, 0.0, 0.0, 1.0, 49.5, 57.5)">
    <path d="M44.9 -40.65 Q45.45 -40.05 45.5 -39.2 L52.5 38.8 Q52.6 39.7 52.05 40.5 51.45 41.25 50.55 41.45 L-31.45 59.45 -33.1 59.25 -45.1 53.25 -46.1 52.35 -46.5 51.1 -49.5 -39.9 Q-49.55 -40.8 -49.0 -41.45 L-38.0 -56.45 Q-37.6 -57.05 -36.9 -57.3 L-35.5 -57.45 43.5 -41.45 Q44.3 -41.3 44.9 -40.65" fill="#000000" fill-rule="evenodd" stroke="none"/>
    <path d="M-34.9 -24.0 L45.05 -16.25 46.8 3.2 50.0 39.0 16.15 46.45 -34.05 -0.15 -34.65 -17.65 -34.9 -24.0" fill="url(#gradient0)" fill-rule="evenodd" stroke="none"/>
    <path d="M-35.0 -24.0 L-34.9 -24.0 -32.0 57.0 -44.0 51.0 -46.15 -14.7 -35.0 -24.0" fill="url(#gradient1)" fill-rule="evenodd" stroke="none"/>
    <path d="M22.7 -18.4 Q22.85 -13.6 20.3 -10.15 17.5 -6.25 13.0 -6.3 8.55 -6.35 5.05 -10.25 1.5 -14.15 1.0 -19.65 L0.95 -20.5 M45.05 -16.25 L23.35 -18.35 M0.1 -20.6 L-34.9 -24.0 -46.15 -14.7" fill="none" stroke="#000000" stroke-linecap="round" stroke-linejoin="round" stroke-opacity="0.5019608" stroke-width="2.0"/>
    <path d="M45.05 -16.25 L-34.9 -24.0 -35.05 -29.15 -36.0 -55.0 43.0 -39.0 44.6 -21.25 45.05 -16.25" fill="url(#gradient2)" fill-rule="evenodd" stroke="none"/>
    <path d="M-47.0 -40.0 L-36.0 -55.0 -35.05 -29.15 -35.15 -29.15 -46.3 -19.45 -47.0 -40.0" fill="url(#gradient3)" fill-rule="evenodd" stroke="none"/>
    <path d="M-46.3 -19.45 L-35.15 -29.15 -35.05 -29.15 -34.9 -24.0 -35.0 -24.0 -46.15 -14.7 -46.3 -19.45" fill="url(#gradient4)" fill-rule="evenodd" stroke="none"/>
    <path d="M10.6 -32.8 Q15.1 -32.75 18.6 -28.9 22.1 -24.95 22.6 -19.45 23.1 -13.95 20.3 -10.15 17.5 -6.25 13.0 -6.3 8.55 -6.35 5.05 -10.25 1.5 -14.15 1.0 -19.65 0.5 -25.15 3.35 -29.0 6.15 -32.85 10.6 -32.8" fill="url(#gradient5)" fill-rule="evenodd" stroke="none"/>
    <path d="M14.8 -23.4 Q16.25 -21.75 16.45 -19.5 16.6 -17.25 15.5 -15.7 14.3 -14.1 12.45 -14.1 10.65 -14.15 9.25 -15.75 7.75 -17.35 7.6 -19.6 7.35 -21.85 8.55 -23.45 9.65 -25.0 11.5 -25.0 13.35 -25.0 14.8 -23.4" fill="url(#gradient6)" fill-rule="evenodd" stroke="none"/>
    <path d="M14.8 -23.4 Q16.25 -21.75 16.45 -19.5 16.6 -17.25 15.5 -15.7 14.3 -14.1 12.45 -14.1 10.65 -14.15 9.25 -15.75 7.75 -17.35 7.6 -19.6 7.35 -21.85 8.55 -23.45 9.65 -25.0 11.5 -25.0 13.35 -25.0 14.8 -23.4 Z" fill="none" stroke="url(#gradient7)" stroke-linecap="round" stroke-linejoin="round" stroke-width="1.0"/>
    <path d="M6.0 -26.2 Q7.95 -28.9 11.1 -28.9 14.35 -28.9 16.8 -26.15 19.25 -23.3 19.6 -19.5 19.95 -15.55 18.0 -12.85 15.95 -10.1 12.7 -10.1 9.65 -10.2 7.2 -12.95 4.65 -15.7 4.35 -19.65 3.85 -23.5 6.0 -26.2 Z" fill="none" stroke="url(#gradient8)" stroke-linecap="round" stroke-linejoin="round" stroke-width="1.0"/>
    <path d="M-32.0 57.0 L-34.05 -0.15 16.15 46.45 -32.0 57.0" fill="url(#gradient9)" fill-rule="evenodd" stroke="none"/>
    <path d="M8.2 48.2 L-33.65 10.35 -33.85 5.55 12.2 47.3 8.2 48.2" fill="url(#gradient10)" fill-rule="evenodd" stroke="none"/>
    <path d="M-26.7 21.6 Q-25.85 22.5 -25.75 23.7 -25.7 24.9 -26.4 25.75 -27.2 26.65 -28.3 26.65 -29.4 26.65 -30.25 25.75 -31.05 24.9 -31.1 23.7 -31.2 22.5 -30.5 21.6 -29.75 20.75 -28.55 20.75 -27.5 20.75 -26.7 21.6 M-22.1 29.5 Q-21.35 28.65 -20.15 28.65 -19.1 28.65 -18.3 29.5 -17.45 30.4 -17.35 31.65 -17.3 32.8 -18.0 33.65 -18.8 34.55 -19.9 34.55 -21.0 34.55 -21.85 33.65 -22.65 32.8 -22.7 31.65 -22.8 30.4 -22.1 29.5 M-12.0 35.9 Q-10.9 35.9 -10.1 36.75 -9.25 37.6 -9.15 38.85 -9.1 40.05 -9.85 40.9 -10.6 41.75 -11.7 41.75 -12.85 41.75 -13.7 40.9 -14.5 40.05 -14.55 38.85 -14.6 37.6 -13.9 36.75 -13.15 35.9 -12.0 35.9 M-7.15 45.65 Q-7.25 44.4 -6.55 43.5 -5.75 42.65 -4.65 42.65 -3.55 42.65 -2.75 43.5 -1.9 44.4 -1.8 45.65 -1.75 46.8 -2.45 47.65 -3.2 48.55 -4.35 48.55 -5.45 48.55 -6.3 47.65 -7.1 46.8 -7.15 45.65" fill="url(#gradient11)" fill-rule="evenodd" stroke="none"/>
  </g>
  <defs>
    <linearGradient gradientTransform="matrix(0.0352, -0.0667, 0.0604, 0.0319, -49.9, -21.55)" gradientUnits="userSpaceOnUse" id="gradient0" spreadMethod="pad" x1="-819.2" x2="819.2">
      <stop offset="0.0" stop-color="#e7e7e4"/>
      <stop offset="0.788235294117647" stop-color="#dcdcda"/>
      <stop offset="1.0" stop-color="#dedfdc"/>
    </linearGradient>
    <linearGradient gradientTransform="matrix(0.0352, -0.0667, 0.0604, 0.0319, -49.9, -21.55)" gradientUnits="userSpaceOnUse" id="gradient1" spreadMethod="pad" x1="-819.2" x2="819.2">
      <stop offset="0.0" stop-color="#2b2b2b"/>
      <stop offset="0.788235294117647" stop-color="#262626"/>
      <stop offset="1.0" stop-color="#2a2929"/>
    </linearGradient>
    <linearGradient gradientTransform="matrix(0.0352, -0.0667, 0.0604, 0.0319, -49.9, -21.55)" gradientUnits="userSpaceOnUse" id="gradient2" spreadMethod="pad" x1="-819.2" x2="819.2">
      <stop offset="0.0" stop-color="#b32f3d"/>
      <stop offset="0.788235294117647" stop-color="#68242c"/>
      <stop offset="1.0" stop-color="#6a2426"/>
    </linearGradient>
    <linearGradient gradientTransform="matrix(0.0352, -0.0667, 0.0604, 0.0319, -49.9, -21.55)" gradientUnits="userSpaceOnUse" id="gradient3" spreadMethod="pad" x1="-819.2" x2="819.2">
      <stop offset="0.0" stop-color="#2b2b2b"/>
      <stop offset="0.788235294117647" stop-color="#262626"/>
      <stop offset="1.0" stop-color="#2a2929"/>
    </linearGradient>
    <linearGradient gradientTransform="matrix(0.0352, -0.0667, 0.0604, 0.0319, -49.9, -21.55)" gradientUnits="userSpaceOnUse" id="gradient4" spreadMethod="pad" x1="-819.2" x2="819.2">
      <stop offset="0.0" stop-color="#87233d"/>
      <stop offset="0.788235294117647" stop-color="#3f1621"/>
      <stop offset="1.0" stop-color="#481a1f"/>
    </linearGradient>
    <linearGradient gradientTransform="matrix(0.0076, -0.0145, 0.0604, 0.0319, -37.95, -46.4)" gradientUnits="userSpaceOnUse" id="gradient5" spreadMethod="pad" x1="-819.2" x2="819.2">
      <stop offset="0.0" stop-color="#d2cab3"/>
      <stop offset="0.27058823529411763" stop-color="#c9bea0"/>
      <stop offset="1.0" stop-color="#76613a"/>
    </linearGradient>
    <linearGradient gradientTransform="matrix(0.0048, -0.009, 0.0377, 0.0199, -19.1, -36.3)" gradientUnits="userSpaceOnUse" id="gradient6" spreadMethod="pad" x1="-819.2" x2="819.2">
      <stop offset="0.18823529411764706" stop-color="#3f70ba"/>
      <stop offset="0.8549019607843137" stop-color="#31598e"/>
      <stop offset="1.0" stop-color="#3e70b3"/>
    </linearGradient>
    <linearGradient gradientTransform="matrix(-0.0029, 0.0051, -0.0061, -0.0035, 12.0, -19.5)" gradientUnits="userSpaceOnUse" id="gradient7" spreadMethod="pad" x1="-819.2" x2="819.2">
      <stop offset="0.3058823529411765" stop-color="#202020"/>
      <stop offset="0.9411764705882353" stop-color="#55512b"/>
    </linearGradient>
    <linearGradient gradientTransform="matrix(-0.0057, 0.0099, -0.0105, -0.0061, 12.0, -19.5)" gradientUnits="userSpaceOnUse" id="gradient8" spreadMethod="pad" x1="-819.2" x2="819.2">
      <stop offset="0.30980392156862746" stop-color="#746243"/>
      <stop offset="0.9411764705882353" stop-color="#a89c79"/>
    </linearGradient>
    <linearGradient gradientTransform="matrix(0.0352, -0.0667, 0.0604, 0.0319, -49.9, -21.55)" gradientUnits="userSpaceOnUse" id="gradient9" spreadMethod="pad" x1="-819.2" x2="819.2">
      <stop offset="0.0" stop-color="#434343"/>
      <stop offset="0.6705882352941176" stop-color="#1c1c1c"/>
      <stop offset="1.0" stop-color="#2b2a2a"/>
    </linearGradient>
    <linearGradient gradientTransform="matrix(0.0352, -0.0667, 0.0604, 0.0319, -49.05, -22.4)" gradientUnits="userSpaceOnUse" id="gradient10" spreadMethod="pad" x1="-819.2" x2="819.2">
      <stop offset="0.0" stop-color="#b32f3d"/>
      <stop offset="0.788235294117647" stop-color="#68242c"/>
      <stop offset="1.0" stop-color="#6a2426"/>
    </linearGradient>
    <linearGradient gradientTransform="matrix(0.0332, -0.0628, 0.0569, 0.0301, -47.95, -18.3)" gradientUnits="userSpaceOnUse" id="gradient11" spreadMethod="pad" x1="-819.2" x2="819.2">
      <stop offset="0.0" stop-color="#c6c6c6"/>
      <stop offset="0.6705882352941176" stop-color="#717171"/>
      <stop offset="1.0" stop-color="#838383"/>
    </linearGradient>
  </defs>
</svg>
