<?xml version="1.0" encoding="UTF-8" standalone="no"?>
<svg xmlns:xlink="http://www.w3.org/1999/xlink" height="48.0px" width="172.0px" xmlns="http://www.w3.org/2000/svg">
  <g transform="matrix(1.0, 0.0, 0.0, 1.0, 3.0, 15.0)">
    <path d="M56.0 -12.0 L56.0 -3.0 166.0 -3.0 Q169.0 -3.0 169.0 0.0 L169.0 30.0 Q169.0 33.0 166.0 33.0 L0.0 33.0 Q-3.0 33.0 -3.0 30.0 L-3.0 -12.0 Q-3.0 -15.0 0.0 -15.0 L53.0 -15.0 Q56.0 -15.0 56.0 -12.0 M164.0 1.0 L2.0 1.0 Q1.0 1.0 1.0 2.0 L1.0 28.0 Q1.0 29.0 2.0 29.0 L164.0 29.0 Q165.0 29.0 165.0 28.0 L165.0 2.0 Q165.0 1.0 164.0 1.0" fill="#000000" fill-rule="evenodd" stroke="none"/>
    <path d="M55.0 -12.0 L55.0 -2.0 166.0 -2.0 Q168.0 -2.0 168.0 0.0 L168.0 30.0 Q168.0 32.0 166.0 32.0 L0.0 32.0 Q-2.0 32.0 -2.0 30.0 L-2.0 -12.0 Q-2.0 -14.0 0.0 -14.0 L53.0 -14.0 Q55.0 -14.0 55.0 -12.0 M164.0 0.0 L2.0 0.0 Q0.0 0.0 0.0 2.0 L0.0 28.0 Q0.0 30.0 2.0 30.0 L164.0 30.0 Q166.0 30.0 166.0 28.0 L166.0 2.0 Q166.0 0.0 164.0 0.0" fill="#00ff00" fill-rule="evenodd" stroke="none"/>
  </g>
</svg>
