<?xml version="1.0" encoding="UTF-8" standalone="no"?>
<svg xmlns:xlink="http://www.w3.org/1999/xlink" height="44.0px" width="160.0px" xmlns="http://www.w3.org/2000/svg">
  <g transform="matrix(1.0, 0.0, 0.0, 1.0, 3.0, 15.0)">
    <path d="M56.0 -12.0 L56.0 -3.0 154.0 -3.0 Q157.0 -3.0 157.0 0.0 L157.0 26.0 Q157.0 29.0 154.0 29.0 L0.0 29.0 Q-3.0 29.0 -3.0 26.0 L-3.0 -12.0 Q-3.0 -15.0 0.0 -15.0 L53.0 -15.0 Q56.0 -15.0 56.0 -12.0 M153.0 2.0 Q153.0 1.0 152.0 1.0 L2.0 1.0 Q1.0 1.0 1.0 2.0 L1.0 24.0 Q1.0 25.0 2.0 25.0 L152.0 25.0 Q153.0 25.0 153.0 24.0 L153.0 2.0" fill="#000000" fill-rule="evenodd" stroke="none"/>
    <path d="M55.0 -12.0 L55.0 -2.0 154.0 -2.0 Q156.0 -2.0 156.0 0.0 L156.0 26.0 Q156.0 28.0 154.0 28.0 L0.0 28.0 Q-2.0 28.0 -2.0 26.0 L-2.0 -12.0 Q-2.0 -14.0 0.0 -14.0 L53.0 -14.0 Q55.0 -14.0 55.0 -12.0 M152.0 0.0 L2.0 0.0 Q0.0 0.0 0.0 2.0 L0.0 24.0 Q0.0 26.0 2.0 26.0 L152.0 26.0 Q154.0 26.0 154.0 24.0 L154.0 2.0 Q154.0 0.0 152.0 0.0" fill="#00ff00" fill-rule="evenodd" stroke="none"/>
  </g>
</svg>
