<?xml version="1.0" encoding="UTF-8" standalone="no"?>
<svg xmlns:xlink="http://www.w3.org/1999/xlink" height="57.0px" width="52.0px" xmlns="http://www.w3.org/2000/svg">
  <g transform="matrix(1.0, 0.0, 0.0, 1.0, 3.0, 15.0)">
    <path d="M49.0 -12.0 L49.0 39.0 Q49.0 42.0 46.0 42.0 L0.0 42.0 Q-3.0 42.0 -3.0 39.0 L-3.0 -12.0 Q-3.0 -15.0 0.0 -15.0 L46.0 -15.0 Q49.0 -15.0 49.0 -12.0 M45.0 37.0 L45.0 2.0 Q45.0 1.0 44.0 1.0 L2.0 1.0 Q1.0 1.0 1.0 2.0 L1.0 37.0 Q1.0 38.0 2.0 38.0 L44.0 38.0 Q45.0 38.0 45.0 37.0" fill="#000000" fill-rule="evenodd" stroke="none"/>
    <path d="M46.0 -14.0 Q48.0 -14.0 48.0 -12.0 L48.0 39.0 Q48.0 41.0 46.0 41.0 L0.0 41.0 Q-2.0 41.0 -2.0 39.0 L-2.0 -12.0 Q-2.0 -14.0 0.0 -14.0 L46.0 -14.0 M46.0 2.0 Q46.0 0.0 44.0 0.0 L2.0 0.0 Q0.0 0.0 0.0 2.0 L0.0 37.0 Q0.0 39.0 2.0 39.0 L44.0 39.0 Q46.0 39.0 46.0 37.0 L46.0 2.0" fill="#00ff00" fill-rule="evenodd" stroke="none"/>
  </g>
</svg>
