<?xml version="1.0" encoding="UTF-8" standalone="no"?>
<svg xmlns:xlink="http://www.w3.org/1999/xlink" height="152.05px" width="92.25px" xmlns="http://www.w3.org/2000/svg">
  <g transform="matrix(1.0, 0.0, 0.0, 1.0, 47.75, 75.55)">
    <path d="M44.5 -50.2 Q44.6 -49.35 44.1 -48.6 43.55 -47.85 42.7 -47.6 L41.05 -47.7 Q40.25 -48.05 39.8 -48.8 L39.2 -49.85 Q38.85 -48.5 36.2 -47.1 L35.2 -46.85 34.2 -47.0 35.15 -46.55 Q38.05 -45.0 38.1 -42.9 38.15 -40.5 33.8 -39.9 32.75 -39.75 31.8 -40.55 L31.4 -39.8 Q32.15 -39.0 33.25 -38.55 L34.4 -37.5 Q36.45 -34.0 34.5 -32.5 32.7 -31.1 30.0 -32.45 29.2 -32.8 28.75 -33.55 L27.95 -34.6 27.25 -33.8 Q26.7 -33.4 26.05 -33.3 24.35 -33.1 23.5 -33.85 L21.35 -30.95 Q22.6 -27.8 22.05 -27.15 L23.25 -24.1 Q23.7 -22.9 23.2 -21.6 23.75 -21.4 24.1 -18.8 24.4 -16.2 23.9 -15.5 24.35 -14.6 24.25 -13.6 L24.15 -11.35 23.75 -9.85 Q24.05 -9.1 23.95 -8.25 L23.85 -6.0 Q23.8 -4.95 23.15 -4.1 L23.2 -2.45 22.8 -0.25 Q22.65 0.95 21.65 1.8 L20.95 2.3 21.3 3.0 21.15 4.05 19.9 6.2 19.3 6.85 Q19.35 7.95 18.75 8.9 L17.5 10.8 16.75 11.65 16.4 12.95 15.55 15.05 14.5 16.4 Q14.55 17.2 14.2 17.9 L13.3 19.95 12.45 21.2 12.55 21.8 Q13.0 23.15 10.1 25.65 L9.2 26.35 9.95 33.85 10.95 40.1 12.45 46.5 Q16.6 47.25 16.35 49.7 16.2 50.95 15.15 52.15 17.8 52.55 18.25 54.2 18.5 55.2 18.0 56.1 L16.85 58.15 17.75 61.55 Q19.45 69.1 19.5 74.0 19.5 74.85 18.95 75.6 18.35 76.25 17.5 76.45 L15.85 76.2 Q9.95 73.1 5.7 67.95 3.1 64.45 3.4 63.75 -0.9 62.25 -0.25 59.9 -0.05 59.2 1.6 57.4 -0.4 56.8 -1.3 55.7 -3.1 53.55 1.1 50.4 -1.55 32.2 -0.85 16.1 0.0 -5.5 7.25 -31.45 L7.9 -33.55 7.95 -34.4 Q7.05 -38.05 8.0 -39.55 8.5 -40.25 9.65 -40.5 9.1 -43.15 9.1 -44.1 9.15 -45.9 10.5 -47.05 10.35 -47.5 10.5 -48.2 L11.0 -49.45 Q10.35 -50.25 10.55 -51.55 11.15 -53.9 9.85 -54.95 9.2 -55.55 7.5 -55.85 2.1 -56.8 -3.6 -52.9 -4.3 -52.45 -5.1 -52.5 -5.9 -52.55 -6.55 -53.05 -7.2 -53.55 -7.4 -54.35 -7.6 -55.0 -7.4 -55.65 L-8.85 -55.7 Q-13.65 -55.5 -20.2 -52.1 -28.05 -48.1 -33.7 -41.65 -40.5 -33.95 -42.55 -24.45 -42.75 -23.55 -43.5 -23.0 -44.25 -22.45 -45.15 -22.5 -46.05 -22.55 -46.7 -23.2 -47.4 -23.85 -47.5 -24.75 -50.15 -52.1 -26.15 -65.9 -17.0 -71.15 -4.95 -73.65 5.3 -75.75 15.1 -75.5 16.0 -75.5 16.65 -74.85 17.35 -74.25 17.5 -73.35 L17.45 -72.45 19.1 -72.25 20.0 -71.5 20.9 -72.25 22.5 -72.45 Q23.35 -72.3 23.9 -71.6 24.45 -70.95 24.5 -70.1 24.7 -65.65 27.85 -62.9 30.3 -60.75 32.6 -62.05 32.25 -64.45 33.75 -65.2 L35.8 -65.35 Q38.75 -64.45 41.05 -61.15 43.95 -57.15 44.5 -50.2 M15.55 -15.4 L15.15 -17.4 14.95 -19.0 Q13.0 -14.7 11.25 -6.25 9.5 2.0 9.25 7.95 9.4 6.4 11.05 4.1 L11.75 3.25 12.3 2.85 12.1 2.4 Q12.0 1.95 12.2 1.6 L13.55 -0.75 13.95 -1.25 14.0 -1.95 14.4 -4.15 Q14.5 -4.9 14.95 -5.5 L14.85 -6.55 14.95 -8.85 Q15.0 -9.7 15.4 -10.4 15.1 -11.1 15.15 -11.9 L15.25 -14.2 15.55 -15.4 M15.25 -68.6 L15.55 -70.55 Q12.15 -69.35 10.6 -67.35 L10.35 -66.8 Q10.15 -66.2 10.65 -65.9 L12.25 -65.85 13.25 -66.1 Q14.7 -66.7 15.25 -68.6" fill="#000000" fill-rule="evenodd" stroke="none"/>
  </g>
</svg>
