<?xml version="1.0" encoding="UTF-8" standalone="no"?>
<svg xmlns:xlink="http://www.w3.org/1999/xlink" height="5.0px" width="4.0px" xmlns="http://www.w3.org/2000/svg">
  <g transform="matrix(1.0, 0.0, 0.0, 1.0, 2.0, 2.5)">
    <path d="M1.65 -2.15 L2.0 -1.5 2.0 1.5 1.65 2.15 1.0 2.5 -1.0 2.5 -1.65 2.15 -2.0 1.5 -2.0 -1.5 -1.65 -2.15 -1.0 -2.5 1.0 -2.5 1.65 -2.15 M1.0 -0.5 L0.95 -1.1 Q0.75 -1.5 0.0 -1.5 -0.75 -1.5 -0.95 -1.1 L-1.0 -0.5 -1.0 0.5 Q-1.0 1.5 0.0 1.5 1.0 1.5 1.0 0.5 L1.0 -0.5" fill="url(#gradient0)" fill-rule="evenodd" stroke="none"/>
  </g>
  <defs>
    <radialGradient cx="0" cy="0" gradientTransform="matrix(0.004, 0.0, 0.0, 0.0072, 0.7, -1.35)" gradientUnits="userSpaceOnUse" id="gradient0" r="819.2" spreadMethod="pad">
      <stop offset="0.07058823529411765" stop-color="#f33636"/>
      <stop offset="0.1843137254901961" stop-color="#d81f1f"/>
      <stop offset="0.6235294117647059" stop-color="#842627"/>
      <stop offset="0.7372549019607844" stop-color="#853233"/>
      <stop offset="1.0" stop-color="#b16399"/>
    </radialGradient>
  </defs>
</svg>
