<?xml version="1.0" encoding="UTF-8" standalone="no"?>
<svg xmlns:xlink="http://www.w3.org/1999/xlink" height="165.6px" width="23.5px" xmlns="http://www.w3.org/2000/svg">
  <g transform="matrix(1.0, 0.0, 0.0, 1.0, 16.5, 85.6)">
    <path d="M0.0 -85.6 Q0.35 -85.6 4.7 -79.35 L5.0 -78.0 5.0 38.75 5.15 38.9 Q6.0 39.75 6.0 41.0 L6.0 41.75 6.15 41.9 Q7.0 42.75 7.0 44.0 L7.0 46.0 Q7.0 47.25 6.15 48.15 L6.0 48.25 5.6 49.5 Q5.15 56.3 5.05 60.95 L5.0 64.9 Q5.05 67.6 5.35 69.1 6.0 69.9 6.0 71.0 L6.0 75.0 Q6.0 76.25 5.15 77.15 L4.75 77.45 3.65 78.7 Q2.15 79.95 0.0 80.0 -2.15 80.0 -3.65 78.7 L-4.75 77.45 -5.1 77.15 -5.8 76.1 -8.5 74.2 Q-11.45 71.85 -13.0 69.6 L-13.05 69.6 Q-16.5 64.75 -16.5 57.95 -16.5 51.3 -13.2 46.6 L-13.15 46.5 -13.05 46.35 -13.05 46.3 -12.85 45.45 Q-12.65 44.6 -12.0 44.0 -10.55 42.55 -7.95 41.7 L-6.0 41.2 -6.0 41.0 Q-6.0 39.75 -5.1 38.9 L-5.0 38.75 -5.0 -78.0 -4.65 -79.35 Q-0.35 -85.55 0.0 -85.6 M-5.65 49.9 L-6.65 51.15 -6.7 51.2 -6.75 51.35 Q-8.5 54.1 -8.5 57.95 -8.5 61.9 -6.65 64.75 L-6.6 64.8 -5.05 66.7 -5.0 65.0 -5.0 60.8 -5.55 49.85 -5.65 49.9" fill="#000000" fill-rule="evenodd" stroke="none"/>
    <path d="M0.0 71.0 L0.0 -73.5 0.0 -76.0 2.0 -78.0 2.0 -73.5 2.0 71.0 0.0 71.0" fill="url(#gradient0)" fill-rule="evenodd" stroke="none"/>
    <path d="M0.0 -76.0 L0.0 -73.5 0.0 71.0 -2.0 71.0 -2.0 -73.5 -2.0 -78.0 0.0 -76.0" fill="#c8c4c4" fill-rule="evenodd" stroke="none"/>
    <path d="M2.0 -78.0 L0.0 -76.0 -2.0 -78.0 0.0 -82.0 2.0 -78.0" fill="#ece8e8" fill-rule="evenodd" stroke="none"/>
    <path d="M3.0 44.0 L4.0 44.0 4.0 46.0 3.0 46.0 3.0 48.0 -3.0 48.0 -3.0 46.0 -4.0 46.0 Q-6.05 46.15 -7.7 47.7 L-9.15 49.45 -9.3 49.7 Q-11.5 53.15 -11.5 57.95 -11.5 62.9 -9.15 66.4 -8.05 68.1 -6.0 69.95 -4.0 71.75 -3.0 72.0 L-3.0 71.0 3.0 71.0 3.0 75.0 -3.0 75.0 -3.0 74.0 Q-4.2 73.8 -6.65 71.85 -9.2 69.8 -10.6 67.85 -13.5 63.75 -13.5 57.95 -13.5 52.3 -10.75 48.25 L-10.6 48.05 -10.15 47.1 -9.95 46.15 Q-8.9 45.15 -7.05 44.55 L-4.0 44.0 -3.0 44.0 -3.0 41.0 3.0 41.0 3.0 44.0" fill="url(#gradient1)" fill-rule="evenodd" stroke="none"/>
    <path d="M0.0 77.0 Q-1.0 77.0 -1.7 76.4 -2.4 75.85 -2.4 75.0 L2.4 75.0 Q2.4 75.85 1.7 76.4 1.0 77.0 0.0 77.0" fill="url(#gradient2)" fill-rule="evenodd" stroke="none"/>
    <path d="M2.7 48.0 Q1.3 67.2 2.7 71.0 L0.0 71.0 -2.7 71.0 Q-1.3 67.2 -2.7 48.0 L0.0 48.0 2.7 48.0" fill="url(#gradient3)" fill-rule="evenodd" stroke="none"/>
    <path d="M2.6 50.0 L2.6 51.0 -2.6 51.0 -2.6 50.0 2.6 50.0" fill="#ffffff" fill-opacity="0.21176471" fill-rule="evenodd" stroke="none"/>
    <path d="M2.55 70.0 L-2.55 70.0 -2.55 69.0 2.55 69.0 2.55 70.0 M-2.6 50.0 L-3.0 50.0 -3.0 49.0 3.0 49.0 3.0 50.0 2.6 50.0 -2.6 50.0" fill="#3f2c2c" fill-opacity="0.4" fill-rule="evenodd" stroke="none"/>
    <path d="M0.8 71.0 L-0.8 71.0 -0.8 70.05 -0.6 66.15 Q-0.35 64.55 0.0 64.55 0.35 64.55 0.55 66.15 L0.8 70.05 0.8 71.0" fill="url(#gradient4)" fill-rule="evenodd" stroke="none"/>
    <path d="M3.0 42.0 L-3.0 42.0 -3.0 41.0 3.0 41.0 3.0 42.0 M3.0 72.0 L-3.0 72.0 -3.0 71.0 3.0 71.0 3.0 72.0" fill="#ffffff" fill-opacity="0.21176471" fill-rule="evenodd" stroke="none"/>
    <path d="M3.0 47.0 L-3.0 47.0 -3.0 46.0 3.0 46.0 3.0 47.0 M3.0 44.0 L-3.0 44.0 -3.0 43.0 3.0 43.0 3.0 44.0 M3.0 74.0 L-3.0 74.0 -3.0 73.0 3.0 73.0 3.0 74.0" fill="#7a5a30" fill-opacity="0.6" fill-rule="evenodd" stroke="none"/>
  </g>
  <defs>
    <linearGradient gradientTransform="matrix(0.0, 0.0714, -0.0909, 0.0, -2.0, -21.0)" gradientUnits="userSpaceOnUse" id="gradient0" spreadMethod="pad" x1="-819.2" x2="819.2">
      <stop offset="0.0" stop-color="#d9d7d7"/>
      <stop offset="0.34901960784313724" stop-color="#dad9d9"/>
      <stop offset="0.5529411764705883" stop-color="#eaeaea"/>
      <stop offset="0.7490196078431373" stop-color="#dcdada"/>
      <stop offset="1.0" stop-color="#d9d7d7"/>
    </linearGradient>
    <linearGradient gradientTransform="matrix(0.0107, 0.0, 0.0, 0.0208, -4.75, 58.0)" gradientUnits="userSpaceOnUse" id="gradient1" spreadMethod="pad" x1="-819.2" x2="819.2">
      <stop offset="0.0" stop-color="#bb9935"/>
      <stop offset="0.1843137254901961" stop-color="#a07631"/>
      <stop offset="0.5411764705882353" stop-color="#976a2f"/>
      <stop offset="0.7254901960784313" stop-color="#bb9935"/>
      <stop offset="0.8156862745098039" stop-color="#bb9935"/>
      <stop offset="1.0" stop-color="#976a2f"/>
    </linearGradient>
    <radialGradient cx="0" cy="0" gradientTransform="matrix(0.0, -0.0025, 0.0032, -1.0E-4, 0.0, 75.0)" gradientUnits="userSpaceOnUse" id="gradient2" r="819.2" spreadMethod="pad">
      <stop offset="0.0" stop-color="#1e4ed9"/>
      <stop offset="0.7843137254901961" stop-color="#84d8f2"/>
      <stop offset="0.8470588235294118" stop-color="#d1f4fa"/>
    </radialGradient>
    <linearGradient gradientTransform="matrix(0.0033, 0.0, 0.0, 0.014, 0.0, 59.5)" gradientUnits="userSpaceOnUse" id="gradient3" spreadMethod="pad" x1="-819.2" x2="819.2">
      <stop offset="0.0" stop-color="#4f2222"/>
      <stop offset="0.5490196078431373" stop-color="#6c2f2f"/>
      <stop offset="1.0" stop-color="#4f2222"/>
    </linearGradient>
    <radialGradient cx="0" cy="0" gradientTransform="matrix(9.0E-4, 0.0, -2.0E-4, 0.0062, 0.0, 70.55)" gradientUnits="userSpaceOnUse" id="gradient4" r="819.2" spreadMethod="pad">
      <stop offset="0.0" stop-color="#ffffff" stop-opacity="0.44313726"/>
      <stop offset="1.0" stop-color="#ffffff" stop-opacity="0.0"/>
    </radialGradient>
  </defs>
</svg>
