<?xml version="1.0" encoding="UTF-8" standalone="no"?>
<svg xmlns:xlink="http://www.w3.org/1999/xlink" height="488.7px" width="285.55px" xmlns="http://www.w3.org/2000/svg">
  <g transform="matrix(1.0, 0.0, 0.0, 1.0, 142.75, 0.0)">
    <path d="M24.05 68.25 Q26.45 93.2 35.25 116.3 32.8 133.0 32.6 150.2 32.2 189.45 48.35 225.05 55.25 240.3 64.95 253.2 59.45 274.0 55.3 295.5 47.7 334.95 60.35 372.4 72.55 408.6 95.75 439.1 115.9 465.65 142.8 484.65 L-142.75 488.7 Q-125.05 472.7 -110.25 442.1 -90.25 400.8 -83.1 348.45 -77.5 342.95 -66.9 323.55 -54.45 300.7 -46.3 277.6 -36.15 248.5 -35.9 226.75 -35.65 200.4 -50.2 187.2 -29.8 149.1 -36.7 108.1 -42.1 75.7 -62.05 49.85 L28.6 0.0 Q20.6 32.65 24.05 68.25 M48.9 280.25 Q51.05 278.25 52.9 272.85 54.8 267.3 54.35 263.7 52.7 250.1 39.9 242.65 39.45 243.75 38.65 248.2 37.75 253.2 37.75 255.6 37.75 269.1 48.9 280.25" fill="url(#gradient0)" fill-rule="evenodd" stroke="none"/>
  </g>
  <defs>
    <linearGradient gradientTransform="matrix(-2.0E-4, -0.2981, 0.2982, -2.0E-4, 0.0, 244.35)" gradientUnits="userSpaceOnUse" id="gradient0" spreadMethod="pad" x1="-819.2" x2="819.2">
      <stop offset="0.0" stop-color="#662f91"/>
      <stop offset="1.0" stop-color="#c912ae"/>
    </linearGradient>
  </defs>
</svg>
