<?xml version="1.0" encoding="UTF-8" standalone="no"?>
<svg xmlns:xlink="http://www.w3.org/1999/xlink" height="28.6px" width="25.85px" xmlns="http://www.w3.org/2000/svg">
  <g transform="matrix(1.0, 0.0, 0.0, 1.0, 40.85, 50.25)">
    <path d="M-34.65 -37.0 L-25.05 -31.65 -30.45 -22.1 -39.95 -27.45 -34.65 -37.0" fill="url(#gradient0)" fill-rule="evenodd" stroke="none"/>
    <path d="M-38.45 -26.6 Q-38.75 -26.55 -39.35 -28.0 L-40.15 -30.5 -37.7 -30.6 Q-37.85 -26.65 -38.45 -26.6" fill="url(#gradient1)" fill-rule="evenodd" stroke="none"/>
    <path d="M-27.65 -22.15 Q-30.9 -23.7 -30.8 -24.0 -30.7 -24.3 -27.35 -24.0 -27.4 -22.5 -27.65 -22.15" fill="url(#gradient2)" fill-rule="evenodd" stroke="none"/>
    <path d="M-15.0 -32.2 Q-15.1 -31.9 -17.6 -31.7 L-20.1 -31.55 -20.55 -30.9 Q-21.7 -30.75 -22.7 -30.15 -23.9 -29.4 -24.45 -28.1 -26.1 -24.55 -24.85 -22.7 -25.4 -22.0 -26.55 -21.75 -27.7 -21.5 -28.15 -22.05 -27.4 -25.05 -27.85 -29.75 L-28.2 -31.85 Q-28.35 -32.8 -28.15 -33.1 L-24.7 -40.1 Q-23.35 -36.95 -19.2 -34.85 L-18.8 -33.8 Q-18.6 -33.45 -16.65 -32.9 -14.9 -32.4 -15.0 -32.2" fill="url(#gradient3)" fill-rule="evenodd" stroke="none"/>
    <path d="M-22.75 -42.7 L-23.15 -39.3 Q-23.3 -37.15 -22.9 -34.95 -22.7 -33.8 -23.35 -33.1 -25.3 -30.95 -29.6 -30.9 L-40.35 -30.05" fill="none" stroke="#000000" stroke-linecap="round" stroke-linejoin="miter" stroke-miterlimit="3.0" stroke-opacity="0.3019608" stroke-width="1.0"/>
    <path d="M-26.55 -42.9 L-24.0 -47.2 Q-22.2 -50.4 -21.8 -50.25 -21.45 -50.1 -22.15 -46.35 -23.05 -41.5 -23.15 -39.3 -23.3 -37.15 -22.9 -34.95 -22.7 -33.8 -23.35 -33.1 -25.3 -30.95 -29.6 -30.9 L-40.35 -30.05 Q-41.0 -32.05 -40.3 -34.7 -39.55 -34.85 -34.6 -37.5 L-26.85 -41.95 -26.7 -42.4 -26.55 -42.9" fill="url(#gradient4)" fill-rule="evenodd" stroke="none"/>
    <path d="M-28.3 -36.4 L-32.4 -32.95 Q-32.95 -33.5 -33.2 -34.6 -33.5 -35.7 -33.25 -36.55 L-29.8 -36.75 -28.3 -36.4" fill="url(#gradient5)" fill-rule="evenodd" stroke="none"/>
    <path d="M-32.6 -36.0 L-28.95 -35.85 -31.95 -33.25 -32.6 -34.45 Q-32.8 -35.3 -32.6 -36.0" fill="url(#gradient6)" fill-rule="evenodd" stroke="none"/>
  </g>
  <defs>
    <linearGradient gradientTransform="matrix(0.0043, -0.0078, 0.0078, 0.0043, -32.55, -29.55)" gradientUnits="userSpaceOnUse" id="gradient0" spreadMethod="pad" x1="-819.2" x2="819.2">
      <stop offset="0.23529411764705882" stop-color="#000000" stop-opacity="0.0"/>
      <stop offset="0.6352941176470588" stop-color="#000000"/>
    </linearGradient>
    <radialGradient cx="0" cy="0" fx="-1593.6000000000001" fy="0" gradientTransform="matrix(0.0086, 0.0139, -0.0344, 0.0219, -26.0, -34.0)" gradientUnits="userSpaceOnUse" id="gradient1" r="819.2" spreadMethod="pad">
      <stop offset="0.19607843137254902" stop-color="#ecbc2f"/>
      <stop offset="1.0" stop-color="#94672c"/>
    </radialGradient>
    <radialGradient cx="0" cy="0" gradientTransform="matrix(0.0113, 0.0064, -0.0395, 0.0711, -26.75, -34.15)" gradientUnits="userSpaceOnUse" id="gradient2" r="819.2" spreadMethod="pad">
      <stop offset="0.0196078431372549" stop-color="#a7a398"/>
      <stop offset="0.7372549019607844" stop-color="#62615e"/>
    </radialGradient>
    <radialGradient cx="0" cy="0" gradientTransform="matrix(0.0101, 0.0057, -0.0072, 0.0129, -24.75, -33.15)" gradientUnits="userSpaceOnUse" id="gradient3" r="819.2" spreadMethod="pad">
      <stop offset="0.2196078431372549" stop-color="#bebdab"/>
      <stop offset="0.4549019607843137" stop-color="#7a796e"/>
      <stop offset="0.788235294117647" stop-color="#88867d"/>
      <stop offset="0.9254901960784314" stop-color="#9c9994"/>
    </radialGradient>
    <radialGradient cx="0" cy="0" fx="-1593.6000000000001" fy="0" gradientTransform="matrix(0.0086, 0.0145, -0.0169, 0.0103, -25.3, -34.35)" gradientUnits="userSpaceOnUse" id="gradient4" r="819.2" spreadMethod="pad">
      <stop offset="0.1450980392156863" stop-color="#e9c52f"/>
      <stop offset="0.27450980392156865" stop-color="#d2a82d"/>
      <stop offset="0.7529411764705882" stop-color="#91772f"/>
      <stop offset="0.9372549019607843" stop-color="#a4811c"/>
    </radialGradient>
    <linearGradient gradientTransform="matrix(4.0E-4, -0.0029, 0.0026, 4.0E-4, -31.4, -34.85)" gradientUnits="userSpaceOnUse" id="gradient5" spreadMethod="pad" x1="-819.2" x2="819.2">
      <stop offset="0.0" stop-color="#670a0a" stop-opacity="0.28235295"/>
      <stop offset="0.7254901960784313" stop-color="#290c0c" stop-opacity="0.43137255"/>
      <stop offset="0.8274509803921568" stop-color="#000000" stop-opacity="0.5019608"/>
    </linearGradient>
    <linearGradient gradientTransform="matrix(0.0027, 0.0, 0.0, 0.002, -31.05, -35.45)" gradientUnits="userSpaceOnUse" id="gradient6" spreadMethod="pad" x1="-819.2" x2="819.2">
      <stop offset="0.0" stop-color="#9e6c12"/>
      <stop offset="0.5333333333333333" stop-color="#f1ce29"/>
      <stop offset="0.7529411764705882" stop-color="#f1ce29"/>
      <stop offset="0.8980392156862745" stop-color="#b0880f"/>
    </linearGradient>
  </defs>
</svg>
