<?xml version="1.0" encoding="UTF-8" standalone="no"?>
<svg xmlns:xlink="http://www.w3.org/1999/xlink" height="53.3px" width="53.3px" xmlns="http://www.w3.org/2000/svg">
  <g transform="matrix(1.0, 0.0, 0.0, 1.0, 26.65, 26.65)">
    <path d="M0.0 -20.15 L-3.2 -12.5 0.0 -11.15 3.2 -12.45 0.0 -20.15 M0.0 -8.4 L-5.9 -5.9 -8.4 0.0 -5.9 5.95 0.0 8.4 5.95 5.95 8.4 0.0 5.95 -5.9 0.0 -8.4 M4.2 -10.1 L3.3 -9.75 4.55 -9.2 4.2 -10.1 M7.9 -7.85 L11.1 -6.5 14.4 -14.35 6.5 -11.1 7.9 -7.85 M9.8 -3.3 L10.15 -4.15 9.25 -4.55 9.8 -3.3 M18.85 -18.85 L13.45 -5.5 26.65 0.0 13.45 5.55 18.85 18.85 5.55 13.45 0.0 26.65 -5.5 13.45 -15.75 17.75 -15.8 17.8 -18.85 18.85 -13.45 5.55 -26.65 0.0 -13.45 -5.5 -18.85 -18.85 -5.5 -13.45 0.0 -26.65 5.55 -13.45 18.85 -18.85 M12.5 3.2 L20.15 0.0 12.5 -3.2 11.15 0.0 12.5 3.2 M4.55 9.3 L3.3 9.8 4.15 10.15 4.55 9.3 M6.5 11.15 L14.4 14.4 11.15 6.5 7.85 7.9 6.5 11.15 M9.25 4.55 L10.15 4.2 9.8 3.3 9.25 4.55 M3.2 12.5 L0.0 11.15 -3.15 12.5 0.0 20.15 3.2 12.5 M-4.5 9.3 L-4.15 10.15 -3.3 9.8 -4.5 9.3 M-9.75 -3.3 L-9.25 -4.55 -10.15 -4.15 -9.75 -3.3 M-7.85 -7.85 L-6.5 -11.1 -14.35 -14.35 -11.1 -6.5 -7.85 -7.85 M-4.15 -10.1 L-4.55 -9.2 -3.3 -9.75 -4.15 -10.1 M-7.85 7.9 L-11.1 6.5 -14.35 14.4 -6.5 11.15 -7.85 7.9 M-9.75 3.3 L-10.15 4.2 -9.25 4.55 -9.75 3.3 M-20.15 0.0 L-12.45 3.2 -11.15 0.0 -12.45 -3.2 -20.15 0.0" fill="url(#gradient0)" fill-rule="evenodd" stroke="none"/>
  </g>
  <defs>
    <radialGradient cx="0" cy="0" gradientTransform="matrix(0.0325, 0.0, 0.0, 0.0325, 0.0, 0.0)" gradientUnits="userSpaceOnUse" id="gradient0" r="819.2" spreadMethod="pad">
      <stop offset="0.19607843137254902" stop-color="#ecbc2f"/>
      <stop offset="1.0" stop-color="#94672c"/>
    </radialGradient>
  </defs>
</svg>
