<?xml version="1.0" encoding="UTF-8" standalone="no"?>
<svg xmlns:xlink="http://www.w3.org/1999/xlink" height="711.7px" width="373.85px" xmlns="http://www.w3.org/2000/svg">
  <g transform="matrix(1.0, 0.0, 0.0, 1.0, -69.95, 3.95)">
    <path d="M204.4 -3.95 L265.35 154.15 139.2 349.4 69.95 239.9 69.95 -3.95 204.4 -3.95 M443.8 -3.95 L443.8 442.2 Q419.85 454.95 395.85 467.75 L275.35 155.15 378.15 -3.95 443.8 -3.95 M367.45 -3.95 L271.4 144.8 214.05 -3.95 367.45 -3.95 M205.2 470.6 L251.95 544.55 69.95 641.65 69.95 473.1 91.25 440.1 205.2 470.6 M259.9 540.3 L218.05 474.05 328.55 503.65 259.9 540.3 M144.5 357.75 L269.3 164.5 387.85 472.05 340.15 497.45 210.95 462.8 144.5 357.75 M69.95 256.7 L133.85 357.7 87.3 429.7 69.95 425.05 69.95 256.7 M69.95 434.4 L82.2 437.65 69.95 456.55 69.95 434.4 M69.95 651.85 L256.8 552.2 355.15 707.75 69.95 707.75 69.95 651.85 M341.3 507.1 L408.3 525.05 443.8 617.25 443.8 707.75 365.8 707.75 264.75 547.95 341.3 507.1 M419.05 527.95 L443.8 534.55 443.8 592.2 419.05 527.95 M443.8 525.2 L415.05 517.5 399.15 476.25 443.8 452.4 443.8 525.2 M404.25 514.65 L352.95 500.9 391.1 480.5 404.25 514.65 M198.1 459.4 L96.4 432.15 139.1 366.05 198.1 459.4" fill="#000000" fill-rule="evenodd" stroke="none"/>
  </g>
</svg>
