<?xml version="1.0" encoding="UTF-8" standalone="no"?>
<svg xmlns:xlink="http://www.w3.org/1999/xlink" height="261.0px" width="176.0px" xmlns="http://www.w3.org/2000/svg">
  <g transform="matrix(1.0, 0.0, 0.0, 1.0, 0.0, 0.0)">
    <path d="M174.0 0.0 Q176.0 0.0 176.0 2.0 L176.0 259.0 Q176.0 261.0 174.0 261.0 L2.0 261.0 Q0.0 261.0 0.0 259.0 L0.0 2.0 Q0.0 0.0 2.0 0.0 L174.0 0.0 M172.0 15.0 L4.0 15.0 Q2.0 15.0 2.0 17.0 L2.0 257.0 Q2.0 259.0 4.0 259.0 L172.0 259.0 Q174.0 259.0 174.0 257.0 L174.0 17.0 Q174.0 15.0 172.0 15.0" fill="#8b8b92" fill-rule="evenodd" stroke="none"/>
  </g>
</svg>
