<?xml version="1.0" encoding="UTF-8" standalone="no"?>
<svg xmlns:xlink="http://www.w3.org/1999/xlink" height="261.0px" width="176.0px" xmlns="http://www.w3.org/2000/svg">
  <g transform="matrix(1.0, 0.0, 0.0, 1.0, -292.0, -318.0)">
    <path d="M464.0 333.0 L296.0 333.0 Q294.0 333.0 294.0 335.0 L294.0 575.0 Q294.0 577.0 296.0 577.0 L464.0 577.0 Q466.0 577.0 466.0 575.0 L466.0 335.0 Q466.0 333.0 464.0 333.0 M466.0 318.0 Q468.0 318.0 468.0 320.0 L468.0 577.0 Q468.0 579.0 466.0 579.0 L294.0 579.0 Q292.0 579.0 292.0 577.0 L292.0 320.0 Q292.0 318.0 294.0 318.0 L466.0 318.0" fill="#ffffff" fill-opacity="0.08235294" fill-rule="evenodd" stroke="none"/>
  </g>
</svg>
