<?xml version="1.0" encoding="UTF-8" standalone="no"?>
<svg xmlns:xlink="http://www.w3.org/1999/xlink" height="17.3px" width="17.5px" xmlns="http://www.w3.org/2000/svg">
  <g transform="matrix(1.0, 0.0, 0.0, 1.0, -61.1, -215.45)">
    <path d="M74.85 215.85 L77.35 216.65 77.45 216.85 Q77.15 217.85 76.95 220.45 L76.8 220.55 76.1 220.55 76.0 220.45 75.95 219.5 75.8 218.55 Q75.3 217.8 74.05 217.35 72.7 216.8 71.2 216.8 67.05 216.8 65.45 220.15 64.7 221.7 64.7 223.75 64.7 227.0 66.45 229.15 68.25 231.4 71.15 231.4 72.7 231.4 74.1 230.75 L74.2 228.5 74.1 227.05 Q74.05 226.9 73.65 226.8 L71.7 226.65 71.55 226.5 71.55 225.75 71.7 225.65 75.25 225.7 78.5 225.65 78.6 225.75 78.6 226.35 78.5 226.45 Q77.75 226.65 77.65 226.95 77.5 227.25 77.5 229.3 L77.6 231.3 Q73.7 232.75 70.5 232.75 66.3 232.75 63.7 230.4 61.1 228.05 61.1 224.0 61.1 218.75 65.7 216.5 67.8 215.45 71.05 215.45 L74.85 215.85" fill="#ffffff" fill-rule="evenodd" stroke="none"/>
  </g>
</svg>
