<?xml version="1.0" encoding="UTF-8" standalone="no"?>
<svg xmlns:xlink="http://www.w3.org/1999/xlink" height="140.5px" width="56.0px" xmlns="http://www.w3.org/2000/svg">
  <g transform="matrix(1.0, 0.0, 0.0, 1.0, 28.0, 72.0)">
    <path d="M5.75 -27.75 L5.8 -27.75 Q6.5 -27.0 6.5 -26.0 L6.5 -24.0 Q6.5 -23.0 5.8 -22.25 L5.75 -22.2 5.2 -21.8 5.75 -20.8 5.8 -20.75 5.9 -20.65 6.0 -20.45 6.05 -20.45 6.25 -20.1 6.25 -20.05 6.45 -19.55 6.5 -18.7 6.5 -18.55 Q6.05 -14.95 5.05 -11.45 5.5 -10.8 5.5 -10.0 L5.5 -8.0 Q5.5 -7.0 4.8 -6.25 L4.75 -6.2 4.5 -6.0 4.5 27.0 4.75 27.25 4.8 27.25 Q5.5 28.0 5.5 29.0 L5.5 31.0 5.45 31.5 5.5 31.75 Q5.85 34.8 4.8 45.05 L4.8 45.1 Q4.5 51.6 6.15 52.8 6.9 53.15 7.25 53.9 7.6 54.55 7.5 55.3 L7.5 57.0 Q7.5 57.8 7.1 58.4 7.4 59.45 7.3 60.6 L7.3 60.7 7.3 60.75 Q7.0 63.5 4.45 65.1 L4.3 65.2 2.55 66.15 2.45 66.55 1.6 67.95 Q0.9 68.5 0.0 68.5 -0.85 68.5 -1.55 67.95 -2.25 67.4 -2.45 66.6 L-2.45 66.55 -2.5 66.15 -4.3 65.15 Q-6.95 63.5 -7.25 60.75 L-7.25 60.7 Q-7.35 59.5 -7.05 58.45 L-7.5 57.0 -7.5 55.3 Q-7.6 54.55 -7.25 53.9 -6.9 53.15 -6.15 52.8 -4.5 51.6 -4.8 45.1 -5.85 34.8 -5.5 31.75 L-5.45 31.5 -5.5 31.0 -5.5 29.0 Q-5.5 28.0 -4.75 27.25 L-4.5 27.0 -4.5 -6.0 -4.75 -6.2 -4.75 -6.25 Q-5.5 -7.0 -5.5 -8.0 L-5.5 -10.0 Q-5.5 -10.8 -5.05 -11.4 -6.05 -14.95 -6.45 -18.55 L-6.5 -18.7 -6.45 -19.55 -5.9 -20.6 -5.85 -20.65 -5.7 -20.8 Q-5.35 -21.2 -5.15 -21.8 L-5.75 -22.2 -5.75 -22.25 Q-6.5 -23.0 -6.5 -24.0 L-6.5 -26.0 Q-6.5 -27.0 -5.75 -27.75 -5.0 -28.5 -4.0 -28.5 L4.0 -28.5 Q5.0 -28.5 5.75 -27.75" fill="#000000" fill-rule="evenodd" stroke="none"/>
    <path d="M8.05 -63.25 L14.05 -68.25 12.7 -60.5 Q16.15 -62.3 19.8 -63.8 L16.5 -56.7 24.3 -58.05 19.25 -51.95 27.05 -51.25 20.7 -46.7 28.0 -44.0 Q24.4 -42.5 20.7 -41.3 L27.1 -36.75 19.3 -36.0 24.3 -30.0 16.5 -31.3 19.8 -24.2 Q16.2 -25.7 12.75 -27.45 L14.05 -19.8 8.0 -24.8 7.25 -16.95 Q4.85 -20.05 2.75 -23.35 L0.0 -16.0 -2.7 -23.25 Q-4.8 -20.05 -7.2 -16.95 L-7.9 -24.85 Q-10.85 -22.2 -14.0 -19.8 L-12.65 -27.5 Q-16.15 -25.75 -19.8 -24.2 L-16.5 -31.35 -24.25 -30.0 -19.2 -36.0 -27.05 -36.75 Q-23.9 -39.15 -20.6 -41.25 L-28.0 -44.0 -20.6 -46.7 -27.0 -51.25 -19.2 -51.95 -24.25 -58.05 -16.55 -56.7 -19.8 -63.8 -12.7 -60.55 -14.0 -68.25 Q-10.9 -65.9 -7.95 -63.3 L-7.25 -71.05 Q-4.85 -67.95 -2.7 -64.65 L0.0 -72.0 2.75 -64.6 Q4.85 -67.9 7.3 -71.05 L8.05 -63.25" fill="#000000" fill-rule="evenodd" stroke="none"/>
    <path d="M2.0 -8.0 L2.0 -5.0 1.0 -5.0 -2.0 -5.0 -2.0 -8.0 2.0 -8.0" fill="url(#gradient0)" fill-rule="evenodd" stroke="none"/>
    <path d="M2.0 -10.0 L3.0 -10.0 3.0 -8.0 2.0 -8.0 -2.0 -8.0 -3.0 -8.0 -3.0 -10.0 -2.0 -10.0 2.0 -10.0" fill="url(#gradient1)" fill-rule="evenodd" stroke="none"/>
    <path d="M4.0 -19.0 Q3.45 -14.4 2.0 -10.0 L-2.0 -10.0 Q-3.45 -14.4 -4.0 -19.0 L0.0 -19.0 4.0 -19.0" fill="url(#gradient2)" fill-rule="evenodd" stroke="none"/>
    <path d="M3.0 -24.0 Q2.35 -22.7 2.75 -21.2 3.1 -19.85 4.0 -19.0 L0.0 -19.0 -4.0 -19.0 Q-3.1 -19.85 -2.75 -21.2 -2.35 -22.7 -3.0 -24.0 L3.0 -24.0" fill="url(#gradient3)" fill-rule="evenodd" stroke="none"/>
    <path d="M-3.0 -26.0 L3.0 -26.0 4.0 -26.0 4.0 -24.0 3.0 -24.0 -3.0 -24.0 -4.0 -24.0 -4.0 -26.0 -3.0 -26.0" fill="url(#gradient4)" fill-rule="evenodd" stroke="none"/>
    <path d="M-2.0 -2.0 L-2.0 -5.0 1.0 -5.0 -2.0 -2.0" fill="url(#gradient5)" fill-rule="evenodd" stroke="none"/>
    <path d="M2.0 -5.0 L2.0 -2.0 -2.0 2.0 -2.0 -2.0 1.0 -5.0 2.0 -5.0" fill="url(#gradient6)" fill-rule="evenodd" stroke="none"/>
    <path d="M2.0 -2.0 L2.0 2.0 -2.0 6.0 -2.0 2.0 2.0 -2.0" fill="url(#gradient7)" fill-rule="evenodd" stroke="none"/>
    <path d="M2.0 2.0 L2.0 6.0 -2.0 10.0 -2.0 6.0 2.0 2.0" fill="url(#gradient8)" fill-rule="evenodd" stroke="none"/>
    <path d="M2.0 6.0 L2.0 10.0 -2.0 14.0 -2.0 10.0 2.0 6.0" fill="url(#gradient9)" fill-rule="evenodd" stroke="none"/>
    <path d="M2.0 10.0 L2.0 14.0 -2.0 18.0 -2.0 14.0 2.0 10.0" fill="url(#gradient10)" fill-rule="evenodd" stroke="none"/>
    <path d="M2.0 14.0 L2.0 18.0 -2.0 22.0 -2.0 18.0 2.0 14.0" fill="url(#gradient11)" fill-rule="evenodd" stroke="none"/>
    <path d="M2.0 18.0 L2.0 22.0 -2.0 26.0 -2.0 22.0 2.0 18.0" fill="url(#gradient12)" fill-rule="evenodd" stroke="none"/>
    <path d="M2.0 22.0 L2.0 26.0 -1.0 29.0 -2.0 29.0 -2.0 26.0 2.0 22.0" fill="url(#gradient13)" fill-rule="evenodd" stroke="none"/>
    <path d="M2.0 26.0 L2.0 29.0 -1.0 29.0 2.0 26.0" fill="url(#gradient14)" fill-rule="evenodd" stroke="none"/>
    <path d="M4.0 57.0 L4.0 58.0 -4.0 58.0 -4.0 57.0 4.0 57.0" fill="url(#gradient15)" fill-rule="evenodd" stroke="none"/>
    <path d="M5.0 55.0 L5.0 57.0 4.0 57.0 -4.0 57.0 -5.0 57.0 -5.0 55.0 5.0 55.0" fill="url(#gradient16)" fill-rule="evenodd" stroke="none"/>
    <path d="M2.0 31.0 L2.0 32.0 -2.0 32.0 -2.0 31.0 2.0 31.0" fill="url(#gradient17)" fill-rule="evenodd" stroke="none"/>
    <path d="M2.0 29.0 L3.0 29.0 3.0 31.0 2.0 31.0 -2.0 31.0 -3.0 31.0 -3.0 29.0 -2.0 29.0 -1.0 29.0 2.0 29.0" fill="url(#gradient18)" fill-rule="evenodd" stroke="none"/>
    <path d="M4.0 58.0 L4.05 58.0 Q4.95 59.05 4.8 60.45 4.6 62.05 3.05 63.0 L0.8 64.25 Q0.3 64.65 0.0 66.0 -0.3 64.65 -0.8 64.25 L-3.0 63.0 Q-4.55 62.05 -4.75 60.45 -4.9 59.05 -4.0 58.0 L4.0 58.0" fill="url(#gradient19)" fill-rule="evenodd" stroke="none"/>
    <path d="M-3.0 -26.0 Q-3.3 -29.1 -5.0 -32.0 L0.0 -32.0 5.0 -32.0 Q3.3 -29.1 3.0 -26.0 L-3.0 -26.0" fill="url(#gradient20)" fill-rule="evenodd" stroke="none"/>
    <path d="M2.0 32.0 L3.0 32.0 Q3.3 34.95 2.3 44.85 1.9 53.6 5.0 55.0 L-5.0 55.0 Q-1.9 53.6 -2.3 44.85 -3.3 34.95 -3.0 32.0 L-2.0 32.0 2.0 32.0" fill="url(#gradient21)" fill-rule="evenodd" stroke="none"/>
    <path d="M2.0 -2.0 L-2.0 2.0 M2.0 2.0 L-2.0 6.0 M2.0 6.0 L-2.0 10.0 M2.0 10.0 L-2.0 14.0 M2.0 14.0 L-2.0 18.0 M2.0 18.0 L-2.0 22.0 M2.0 22.0 L-2.0 26.0 M2.0 26.0 L-1.0 29.0 M1.0 -5.0 L-2.0 -2.0" fill="none" stroke="url(#gradient22)" stroke-linecap="round" stroke-linejoin="round" stroke-width="0.25"/>
    <path d="M4.0 -23.0 L-4.0 -23.0 -4.0 -24.0 4.0 -24.0 4.0 -23.0 M3.0 -7.0 L-3.0 -7.0 -3.0 -8.0 3.0 -8.0 3.0 -7.0 M-2.0 31.0 L2.0 31.0 2.0 32.0 -2.0 32.0 -2.0 31.0 M-4.0 57.0 L4.0 57.0 4.0 58.0 -4.0 58.0 -4.0 57.0" fill="#000000" fill-opacity="0.2" fill-rule="evenodd" stroke="none"/>
    <path d="M4.05 58.0 Q4.95 59.05 4.8 60.45 4.6 62.05 3.05 63.0 L0.8 64.25 Q0.3 64.65 0.0 66.0 -0.3 64.65 -0.8 64.25 L-3.0 63.0 Q-4.55 62.05 -4.75 60.45 -4.9 59.05 -4.0 58.0 L4.05 58.0" fill="url(#gradient23)" fill-rule="evenodd" stroke="none"/>
    <path d="M2.0 29.0 L-2.0 29.0 -2.0 -5.0 2.0 -5.0 2.0 29.0" fill="url(#gradient24)" fill-rule="evenodd" stroke="none"/>
    <path d="M3.5 -33.0 L7.45 -24.45 5.55 -26.5 5.85 -18.1 1.9 -25.5 0.0 -17.3 -1.9 -25.5 -5.85 -18.1 -5.55 -26.5 -6.85 -25.1 -2.0 -33.0 3.5 -33.0" fill="#000000" fill-opacity="0.2" fill-rule="evenodd" stroke="none"/>
    <path d="M19.6 -55.3 L13.45 -49.55 21.85 -49.85 14.45 -45.9 22.65 -43.95 14.45 -42.05 21.85 -38.1 13.45 -38.4 19.6 -32.65 11.55 -35.1 16.0 -27.95 8.85 -32.4 11.3 -24.35 5.55 -30.5 5.85 -22.1 1.9 -29.5 0.0 -21.3 -1.9 -29.5 -5.85 -22.1 -5.55 -30.5 -11.3 -24.35 -8.85 -32.4 -16.0 -27.95 -11.55 -35.1 -19.6 -32.65 -13.45 -38.4 -21.85 -38.1 -14.45 -42.05 -22.65 -43.95 -14.45 -45.9 -21.85 -49.85 -13.45 -49.55 -19.6 -55.3 -11.55 -52.85 -16.0 -60.0 -8.85 -55.55 -11.3 -63.6 -5.55 -57.45 -5.85 -65.85 -1.9 -58.45 0.0 -66.65 1.9 -58.45 5.85 -65.85 5.55 -57.45 11.3 -63.6 8.85 -55.55 16.0 -60.0 11.55 -52.85 19.6 -55.3" fill="url(#gradient25)" fill-rule="evenodd" stroke="none"/>
    <path d="M1.55 -52.85 L5.2 -58.3 4.5 -51.8 9.8 -55.65 6.9 -49.75 13.2 -51.6 8.45 -47.05 15.0 -46.6 Q12.0 -45.25 9.0 -43.95 L15.0 -41.3 8.45 -40.9 13.2 -36.35 6.9 -38.2 9.8 -32.3 4.5 -36.15 5.2 -29.65 1.55 -35.1 0.0 -28.7 -1.55 -35.1 -5.2 -29.65 -4.5 -36.15 -9.8 -32.3 -6.9 -38.2 -13.2 -36.35 -8.45 -40.9 -15.0 -41.3 -9.0 -43.95 Q-12.0 -45.25 -15.0 -46.6 L-8.45 -47.05 -13.2 -51.6 -6.9 -49.75 -9.8 -55.65 -4.5 -51.8 -5.2 -58.3 -1.55 -52.85 0.0 -59.25 1.55 -52.85" fill="url(#gradient26)" fill-rule="evenodd" stroke="none"/>
    <path d="M7.65 -46.45 L3.8 -43.95 7.65 -41.5 3.1 -41.7 4.7 -37.45 1.15 -40.35 0.0 -35.9 -1.15 -40.35 -4.7 -37.45 -3.1 -41.7 -7.65 -41.5 -3.8 -43.95 -7.65 -46.45 -3.1 -46.25 -4.7 -50.5 -1.15 -47.6 0.0 -52.05 1.15 -47.6 4.7 -50.5 3.1 -46.25 7.65 -46.45" fill="url(#gradient27)" fill-rule="evenodd" stroke="none"/>
    <path d="M0.75 -44.7 L3.0 -43.95 0.75 -43.2 0.0 -40.95 -0.75 -43.2 -3.0 -43.95 -0.75 -44.7 0.0 -46.95 0.75 -44.7" fill="url(#gradient28)" fill-rule="evenodd" stroke="none"/>
  </g>
  <defs>
    <linearGradient gradientTransform="matrix(0.0024, 0.0, 0.0, 0.0018, 0.0, -6.5)" gradientUnits="userSpaceOnUse" id="gradient0" spreadMethod="pad" x1="-819.2" x2="819.2">
      <stop offset="0.0" stop-color="#873c23"/>
      <stop offset="0.047058823529411764" stop-color="#3f1616"/>
      <stop offset="0.27450980392156865" stop-color="#632323"/>
      <stop offset="0.47843137254901963" stop-color="#bf502b"/>
      <stop offset="0.5647058823529412" stop-color="#bf502b"/>
      <stop offset="0.7764705882352941" stop-color="#632323"/>
      <stop offset="0.9450980392156862" stop-color="#3f1616"/>
      <stop offset="1.0" stop-color="#873c23"/>
    </linearGradient>
    <linearGradient gradientTransform="matrix(0.0037, 0.0, 0.0, 0.0012, 0.0, -9.0)" gradientUnits="userSpaceOnUse" id="gradient1" spreadMethod="pad" x1="-819.2" x2="819.2">
      <stop offset="0.0" stop-color="#a58e85"/>
      <stop offset="0.047058823529411764" stop-color="#977c75"/>
      <stop offset="0.27450980392156865" stop-color="#bcada0"/>
      <stop offset="0.47843137254901963" stop-color="#e0d9d6"/>
      <stop offset="0.5647058823529412" stop-color="#e0d9d6"/>
      <stop offset="0.7764705882352941" stop-color="#bcada0"/>
      <stop offset="0.9450980392156862" stop-color="#977c75"/>
      <stop offset="1.0" stop-color="#a58e85"/>
    </linearGradient>
    <radialGradient cx="0" cy="0" fx="3.2" fy="0" gradientTransform="matrix(0.006, 0.0, 0.0, 0.0207, 0.1, -19.05)" gradientUnits="userSpaceOnUse" id="gradient2" r="819.2" spreadMethod="pad">
      <stop offset="0.12941176470588237" stop-color="#e0d9d6"/>
      <stop offset="0.4549019607843137" stop-color="#bcada0"/>
      <stop offset="0.8117647058823529" stop-color="#6c5653"/>
      <stop offset="1.0" stop-color="#a58e85"/>
    </radialGradient>
    <radialGradient cx="0" cy="0" gradientTransform="matrix(0.0056, 0.0, 0.0, 0.0124, 0.1, -19.0)" gradientUnits="userSpaceOnUse" id="gradient3" r="819.2" spreadMethod="pad">
      <stop offset="0.11372549019607843" stop-color="#c8bab7"/>
      <stop offset="0.2823529411764706" stop-color="#b5a397"/>
      <stop offset="0.6862745098039216" stop-color="#64504d"/>
      <stop offset="0.9529411764705882" stop-color="#50413d"/>
    </radialGradient>
    <linearGradient gradientTransform="matrix(0.0049, 0.0, 0.0, 0.0012, 0.0, -25.0)" gradientUnits="userSpaceOnUse" id="gradient4" spreadMethod="pad" x1="-819.2" x2="819.2">
      <stop offset="0.0" stop-color="#873c23"/>
      <stop offset="0.047058823529411764" stop-color="#3f1616"/>
      <stop offset="0.27450980392156865" stop-color="#632323"/>
      <stop offset="0.47843137254901963" stop-color="#bf502b"/>
      <stop offset="0.5647058823529412" stop-color="#bf502b"/>
      <stop offset="0.7764705882352941" stop-color="#632323"/>
      <stop offset="0.9450980392156862" stop-color="#3f1616"/>
      <stop offset="1.0" stop-color="#873c23"/>
    </linearGradient>
    <linearGradient gradientTransform="matrix(0.0014, 0.0012, -0.014, 0.0152, -12.1, 6.95)" gradientUnits="userSpaceOnUse" id="gradient5" spreadMethod="pad" x1="-819.2" x2="819.2">
      <stop offset="0.0" stop-color="#b3977d"/>
      <stop offset="0.10196078431372549" stop-color="#b19578"/>
      <stop offset="0.42745098039215684" stop-color="#d6bc9a"/>
      <stop offset="0.596078431372549" stop-color="#dabfa5"/>
      <stop offset="0.8470588235294118" stop-color="#b19578"/>
      <stop offset="0.9882352941176471" stop-color="#b39b7d"/>
    </linearGradient>
    <linearGradient gradientTransform="matrix(0.0016, 0.0016, -0.0146, 0.0147, -9.45, 7.6)" gradientUnits="userSpaceOnUse" id="gradient6" spreadMethod="pad" x1="-819.2" x2="819.2">
      <stop offset="0.0" stop-color="#b3977d"/>
      <stop offset="0.10196078431372549" stop-color="#b19578"/>
      <stop offset="0.42745098039215684" stop-color="#d6bc9a"/>
      <stop offset="0.596078431372549" stop-color="#dabfa5"/>
      <stop offset="0.8470588235294118" stop-color="#b19578"/>
      <stop offset="0.9882352941176471" stop-color="#b39b7d"/>
    </linearGradient>
    <linearGradient gradientTransform="matrix(0.0018, 0.0017, -0.0142, 0.0151, -6.85, 9.3)" gradientUnits="userSpaceOnUse" id="gradient7" spreadMethod="pad" x1="-819.2" x2="819.2">
      <stop offset="0.0" stop-color="#b3977d"/>
      <stop offset="0.10196078431372549" stop-color="#b19578"/>
      <stop offset="0.42745098039215684" stop-color="#d6bc9a"/>
      <stop offset="0.596078431372549" stop-color="#dabfa5"/>
      <stop offset="0.8470588235294118" stop-color="#b19578"/>
      <stop offset="0.9882352941176471" stop-color="#b39b7d"/>
    </linearGradient>
    <linearGradient gradientTransform="matrix(0.0017, 0.0017, -0.0146, 0.0147, -4.2, 10.25)" gradientUnits="userSpaceOnUse" id="gradient8" spreadMethod="pad" x1="-819.2" x2="819.2">
      <stop offset="0.0" stop-color="#b3977d"/>
      <stop offset="0.10196078431372549" stop-color="#b19578"/>
      <stop offset="0.42745098039215684" stop-color="#d6bc9a"/>
      <stop offset="0.596078431372549" stop-color="#dabfa5"/>
      <stop offset="0.8470588235294118" stop-color="#b19578"/>
      <stop offset="0.9882352941176471" stop-color="#b39b7d"/>
    </linearGradient>
    <linearGradient gradientTransform="matrix(0.0018, 0.0017, -0.0143, 0.015, -1.4, 11.45)" gradientUnits="userSpaceOnUse" id="gradient9" spreadMethod="pad" x1="-819.2" x2="819.2">
      <stop offset="0.0" stop-color="#b3977d"/>
      <stop offset="0.10196078431372549" stop-color="#b19578"/>
      <stop offset="0.42745098039215684" stop-color="#d6bc9a"/>
      <stop offset="0.596078431372549" stop-color="#dabfa5"/>
      <stop offset="0.8470588235294118" stop-color="#b19578"/>
      <stop offset="0.9882352941176471" stop-color="#b39b7d"/>
    </linearGradient>
    <linearGradient gradientTransform="matrix(0.0017, 0.0017, -0.0147, 0.0146, 1.4, 12.55)" gradientUnits="userSpaceOnUse" id="gradient10" spreadMethod="pad" x1="-819.2" x2="819.2">
      <stop offset="0.0" stop-color="#b3977d"/>
      <stop offset="0.10196078431372549" stop-color="#b19578"/>
      <stop offset="0.42745098039215684" stop-color="#d6bc9a"/>
      <stop offset="0.596078431372549" stop-color="#dabfa5"/>
      <stop offset="0.8470588235294118" stop-color="#b19578"/>
      <stop offset="0.9882352941176471" stop-color="#b39b7d"/>
    </linearGradient>
    <linearGradient gradientTransform="matrix(0.0019, 0.002, -0.0149, 0.0144, 4.3, 13.75)" gradientUnits="userSpaceOnUse" id="gradient11" spreadMethod="pad" x1="-819.2" x2="819.2">
      <stop offset="0.0" stop-color="#b3977d"/>
      <stop offset="0.10196078431372549" stop-color="#b19578"/>
      <stop offset="0.42745098039215684" stop-color="#d6bc9a"/>
      <stop offset="0.596078431372549" stop-color="#dabfa5"/>
      <stop offset="0.8470588235294118" stop-color="#b19578"/>
      <stop offset="0.9882352941176471" stop-color="#b39b7d"/>
    </linearGradient>
    <linearGradient gradientTransform="matrix(0.0015, 0.0016, -0.015, 0.0143, 7.2, 15.1)" gradientUnits="userSpaceOnUse" id="gradient12" spreadMethod="pad" x1="-819.2" x2="819.2">
      <stop offset="0.0" stop-color="#b3977d"/>
      <stop offset="0.10196078431372549" stop-color="#b19578"/>
      <stop offset="0.42745098039215684" stop-color="#d6bc9a"/>
      <stop offset="0.596078431372549" stop-color="#dabfa5"/>
      <stop offset="0.8470588235294118" stop-color="#b19578"/>
      <stop offset="0.9882352941176471" stop-color="#b39b7d"/>
    </linearGradient>
    <linearGradient gradientTransform="matrix(0.0014, 0.0014, -0.0145, 0.0147, 9.65, 15.9)" gradientUnits="userSpaceOnUse" id="gradient13" spreadMethod="pad" x1="-819.2" x2="819.2">
      <stop offset="0.0" stop-color="#b3977d"/>
      <stop offset="0.10196078431372549" stop-color="#b19578"/>
      <stop offset="0.42745098039215684" stop-color="#d6bc9a"/>
      <stop offset="0.596078431372549" stop-color="#dabfa5"/>
      <stop offset="0.8470588235294118" stop-color="#b19578"/>
      <stop offset="0.9882352941176471" stop-color="#b39b7d"/>
    </linearGradient>
    <linearGradient gradientTransform="matrix(0.0015, 0.0015, -0.0146, 0.0147, 11.5, 17.4)" gradientUnits="userSpaceOnUse" id="gradient14" spreadMethod="pad" x1="-819.2" x2="819.2">
      <stop offset="0.0" stop-color="#b3977d"/>
      <stop offset="0.10196078431372549" stop-color="#b19578"/>
      <stop offset="0.42745098039215684" stop-color="#d6bc9a"/>
      <stop offset="0.596078431372549" stop-color="#dabfa5"/>
      <stop offset="0.8470588235294118" stop-color="#b19578"/>
      <stop offset="0.9882352941176471" stop-color="#b39b7d"/>
    </linearGradient>
    <linearGradient gradientTransform="matrix(0.0049, 0.0, 0.0, 6.0E-4, 0.0, 57.5)" gradientUnits="userSpaceOnUse" id="gradient15" spreadMethod="pad" x1="-819.2" x2="819.2">
      <stop offset="0.0" stop-color="#a58e85"/>
      <stop offset="0.047058823529411764" stop-color="#977c75"/>
      <stop offset="0.27450980392156865" stop-color="#bcada0"/>
      <stop offset="0.47843137254901963" stop-color="#e0d9d6"/>
      <stop offset="0.5647058823529412" stop-color="#e0d9d6"/>
      <stop offset="0.7764705882352941" stop-color="#bcada0"/>
      <stop offset="0.9450980392156862" stop-color="#977c75"/>
      <stop offset="1.0" stop-color="#a58e85"/>
    </linearGradient>
    <linearGradient gradientTransform="matrix(0.0061, 0.0, 0.0, 0.0012, 0.0, 56.0)" gradientUnits="userSpaceOnUse" id="gradient16" spreadMethod="pad" x1="-819.2" x2="819.2">
      <stop offset="0.0" stop-color="#873c23"/>
      <stop offset="0.047058823529411764" stop-color="#3f1616"/>
      <stop offset="0.27450980392156865" stop-color="#632323"/>
      <stop offset="0.47843137254901963" stop-color="#bf502b"/>
      <stop offset="0.5647058823529412" stop-color="#bf502b"/>
      <stop offset="0.7764705882352941" stop-color="#632323"/>
      <stop offset="0.9450980392156862" stop-color="#3f1616"/>
      <stop offset="1.0" stop-color="#873c23"/>
    </linearGradient>
    <linearGradient gradientTransform="matrix(0.0024, 0.0, 0.0, 6.0E-4, 0.0, 31.5)" gradientUnits="userSpaceOnUse" id="gradient17" spreadMethod="pad" x1="-819.2" x2="819.2">
      <stop offset="0.0" stop-color="#a58e85"/>
      <stop offset="0.047058823529411764" stop-color="#977c75"/>
      <stop offset="0.27450980392156865" stop-color="#bcada0"/>
      <stop offset="0.47843137254901963" stop-color="#e0d9d6"/>
      <stop offset="0.5647058823529412" stop-color="#e0d9d6"/>
      <stop offset="0.7764705882352941" stop-color="#bcada0"/>
      <stop offset="0.9450980392156862" stop-color="#977c75"/>
      <stop offset="1.0" stop-color="#a58e85"/>
    </linearGradient>
    <linearGradient gradientTransform="matrix(0.0037, 0.0, 0.0, 0.0012, 0.0, 30.0)" gradientUnits="userSpaceOnUse" id="gradient18" spreadMethod="pad" x1="-819.2" x2="819.2">
      <stop offset="0.0" stop-color="#873c23"/>
      <stop offset="0.047058823529411764" stop-color="#3f1616"/>
      <stop offset="0.27450980392156865" stop-color="#632323"/>
      <stop offset="0.47843137254901963" stop-color="#bf502b"/>
      <stop offset="0.5647058823529412" stop-color="#bf502b"/>
      <stop offset="0.7764705882352941" stop-color="#632323"/>
      <stop offset="0.9450980392156862" stop-color="#3f1616"/>
      <stop offset="1.0" stop-color="#873c23"/>
    </linearGradient>
    <radialGradient cx="0" cy="0" fx="147.20000000000002" fy="0" gradientTransform="matrix(0.0076, 0.0033, -0.0036, 0.0081, 1.6, 60.35)" gradientUnits="userSpaceOnUse" id="gradient19" r="819.2" spreadMethod="pad">
      <stop offset="0.0" stop-color="#df8e75"/>
      <stop offset="0.23137254901960785" stop-color="#9a572c"/>
      <stop offset="0.596078431372549" stop-color="#632323"/>
      <stop offset="0.792156862745098" stop-color="#3c1e1a"/>
      <stop offset="1.0" stop-color="#481a1a"/>
    </radialGradient>
    <radialGradient cx="0" cy="0" gradientTransform="matrix(0.0061, 0.0, 0.0, 0.0124, 0.1, -31.9)" gradientUnits="userSpaceOnUse" id="gradient20" r="819.2" spreadMethod="pad">
      <stop offset="0.11372549019607843" stop-color="#c8bab7"/>
      <stop offset="0.2823529411764706" stop-color="#b5a397"/>
      <stop offset="0.6862745098039216" stop-color="#64504d"/>
      <stop offset="0.9529411764705882" stop-color="#50413d"/>
    </radialGradient>
    <linearGradient gradientTransform="matrix(0.0049, 0.0, 0.0, 0.014, 0.0, 43.5)" gradientUnits="userSpaceOnUse" id="gradient21" spreadMethod="pad" x1="-819.2" x2="819.2">
      <stop offset="0.13725490196078433" stop-color="#715b55"/>
      <stop offset="0.30196078431372547" stop-color="#bcada0"/>
      <stop offset="0.4666666666666667" stop-color="#e0d9d6"/>
      <stop offset="0.5333333333333333" stop-color="#e0d9d6"/>
      <stop offset="0.6823529411764706" stop-color="#bcada0"/>
      <stop offset="0.8509803921568627" stop-color="#715b55"/>
    </linearGradient>
    <linearGradient gradientTransform="matrix(0.0026, 0.0, 0.0, 0.0209, 0.0, 12.0)" gradientUnits="userSpaceOnUse" id="gradient22" spreadMethod="pad" x1="-819.2" x2="819.2">
      <stop offset="0.0" stop-color="#ac876f"/>
      <stop offset="0.1568627450980392" stop-color="#ac876f"/>
      <stop offset="0.40784313725490196" stop-color="#ac876f"/>
      <stop offset="0.6352941176470588" stop-color="#ac876f"/>
      <stop offset="0.8509803921568627" stop-color="#ac876f"/>
      <stop offset="1.0" stop-color="#ac876f"/>
    </linearGradient>
    <radialGradient cx="0" cy="0" gradientTransform="matrix(0.0027, -0.0021, 0.0014, 0.0019, 2.65, 60.95)" gradientUnits="userSpaceOnUse" id="gradient23" r="819.2" spreadMethod="pad">
      <stop offset="0.1803921568627451" stop-color="#ebd5cb"/>
      <stop offset="0.5725490196078431" stop-color="#a45f37" stop-opacity="0.0"/>
    </radialGradient>
    <linearGradient gradientTransform="matrix(0.0024, 0.0, 0.0, 0.0208, 0.0, 12.0)" gradientUnits="userSpaceOnUse" id="gradient24" spreadMethod="pad" x1="-819.2" x2="819.2">
      <stop offset="0.0" stop-color="#3f3232" stop-opacity="0.6"/>
      <stop offset="0.4470588235294118" stop-color="#c8bab7" stop-opacity="0.7529412"/>
      <stop offset="0.5490196078431373" stop-color="#c8bab7" stop-opacity="0.7529412"/>
      <stop offset="1.0" stop-color="#3f3232" stop-opacity="0.6"/>
    </linearGradient>
    <radialGradient cx="0" cy="0" gradientTransform="matrix(0.0277, 0.0, 0.0, 0.0277, 0.0, -44.0)" gradientUnits="userSpaceOnUse" id="gradient25" r="819.2" spreadMethod="pad">
      <stop offset="0.4117647058823529" stop-color="#211210"/>
      <stop offset="1.0" stop-color="#753926"/>
    </radialGradient>
    <radialGradient cx="0" cy="0" gradientTransform="matrix(0.0187, 0.0, 0.0, 0.0187, 0.0, -44.0)" gradientUnits="userSpaceOnUse" id="gradient26" r="819.2" spreadMethod="pad">
      <stop offset="0.1568627450980392" stop-color="#3c1e11"/>
      <stop offset="0.9764705882352941" stop-color="#754d26"/>
    </radialGradient>
    <radialGradient cx="0" cy="0" gradientTransform="matrix(0.0099, 0.0, 0.0, 0.0099, 0.0, -44.0)" gradientUnits="userSpaceOnUse" id="gradient27" r="819.2" spreadMethod="pad">
      <stop offset="0.1568627450980392" stop-color="#63370e"/>
      <stop offset="1.0" stop-color="#7e5e23"/>
    </radialGradient>
    <radialGradient cx="0" cy="0" gradientTransform="matrix(0.0037, 0.0, 0.0, 0.0037, 0.0, -43.95)" gradientUnits="userSpaceOnUse" id="gradient28" r="819.2" spreadMethod="pad">
      <stop offset="0.0" stop-color="#936324"/>
      <stop offset="0.9882352941176471" stop-color="#8e661c"/>
    </radialGradient>
  </defs>
</svg>
