<?xml version="1.0" encoding="UTF-8" standalone="no"?>
<svg xmlns:xlink="http://www.w3.org/1999/xlink" height="107.0px" width="28.0px" xmlns="http://www.w3.org/2000/svg">
  <g transform="matrix(1.0, 0.0, 0.0, 1.0, 14.0, 54.0)">
    <path d="M2.9 -51.7 L13.85 -7.95 14.0 -6.85 Q13.95 -5.9 13.35 -5.1 L9.45 -0.2 Q7.55 2.85 6.95 5.8 6.7 6.9 6.75 7.6 L6.75 8.0 6.75 24.65 7.0 38.9 7.25 42.65 7.0 44.3 6.65 44.8 6.65 44.85 6.0 45.7 6.0 46.0 6.0 50.0 Q6.0 51.25 5.15 52.15 4.25 53.0 3.0 53.0 L-3.0 53.0 Q-4.25 53.0 -5.1 52.15 -6.0 51.25 -6.0 50.0 L-6.0 46.0 -5.95 45.7 -6.6 44.85 -6.65 44.8 -6.95 44.3 Q-7.35 43.5 -7.2 42.65 L-7.0 38.9 -6.75 23.95 -6.75 8.2 -6.7 7.55 -6.9 5.85 -6.9 5.8 Q-7.45 3.0 -9.35 -0.1 L-13.35 -5.1 Q-13.95 -5.9 -14.0 -6.85 L-13.85 -7.95 -2.9 -51.7 Q-2.65 -52.75 -1.85 -53.35 -1.05 -54.0 0.0 -54.0 1.05 -54.0 1.85 -53.35 2.65 -52.75 2.9 -51.7" fill="#000000" fill-rule="evenodd" stroke="none"/>
    <path d="M4.25 43.0 L-4.25 43.0 -4.0 41.0 4.0 41.0 4.25 43.0" fill="url(#gradient0)" fill-rule="evenodd" stroke="none"/>
    <path d="M4.0 41.0 L-4.0 41.0 -3.75 35.0 -3.75 14.0 -3.75 8.0 0.0 4.0 3.75 8.0 3.75 14.0 3.75 35.0 4.0 41.0" fill="url(#gradient1)" fill-rule="evenodd" stroke="none"/>
    <path d="M0.0 -4.0 L3.0 -10.0 11.0 -7.0 7.0 -2.0 Q4.7 1.7 4.0 5.2 3.65 7.0 3.75 8.0 L0.0 4.15 Q1.0 -0.95 2.0 -2.0 L0.0 -4.0" fill="url(#gradient2)" fill-rule="evenodd" stroke="none"/>
    <path d="M-11.0 -7.0 L-3.0 -10.0 0.0 -4.0 -2.0 -2.0 Q-1.0 -1.0 0.0 4.15 L-3.75 8.0 Q-3.6 7.0 -3.95 5.25 -4.6 1.8 -7.0 -2.0 L-11.0 -7.0" fill="url(#gradient3)" fill-rule="evenodd" stroke="none"/>
    <path d="M4.0 41.0 L-4.0 41.0 Q-4.0 22.05 -2.9 8.7 -1.7 -4.65 0.0 -4.65 1.7 -4.65 2.8 8.7 4.0 22.05 4.0 41.0" fill="url(#gradient4)" fill-rule="evenodd" stroke="none"/>
    <path d="M4.0 11.5 L-4.0 11.5 -4.0 10.5 4.0 10.5 4.0 11.5" fill="url(#gradient5)" fill-rule="evenodd" stroke="none"/>
    <path d="M0.0 -51.0 L11.0 -7.0 3.0 -10.0 0.0 -21.0 0.0 -51.0" fill="url(#gradient6)" fill-rule="evenodd" stroke="none"/>
    <path d="M0.0 -21.0 L-3.0 -10.0 -11.0 -7.0 0.0 -51.0 0.0 -21.0" fill="url(#gradient7)" fill-rule="evenodd" stroke="none"/>
    <path d="M2.0 46.0 L3.0 46.0 3.0 50.0 -3.0 50.0 -3.0 46.0 -2.0 46.0 -2.0 49.0 2.0 49.0 2.0 46.0" fill="url(#gradient8)" fill-rule="evenodd" stroke="none"/>
    <path d="M1.0 48.0 L-1.0 48.0 -1.0 46.0 -2.0 46.0 -4.25 43.0 4.25 43.0 2.0 46.0 1.0 46.0 1.0 48.0" fill="url(#gradient9)" fill-rule="evenodd" stroke="none"/>
    <path d="M1.1 37.5 L0.95 37.85 0.6 38.0 -0.6 38.0 -0.95 37.85 -1.1 37.5 -1.1 22.5 -0.95 22.15 Q-0.8 22.0 -0.6 22.0 L0.6 22.0 Q0.8 22.0 0.95 22.15 L1.1 22.5 1.1 37.5" fill="url(#gradient10)" fill-rule="evenodd" stroke="none"/>
    <path d="M0.7 37.5 L-0.7 37.5 -0.7 22.5 0.7 22.5 0.7 37.5" fill="#262626" fill-rule="evenodd" stroke="none"/>
  </g>
  <defs>
    <linearGradient gradientTransform="matrix(0.0064, 0.0, 0.0, 0.0012, 0.0, 42.0)" gradientUnits="userSpaceOnUse" id="gradient0" spreadMethod="reflect" x1="-819.2" x2="819.2">
      <stop offset="0.0" stop-color="#2b2b2b"/>
      <stop offset="0.44313725490196076" stop-color="#adadad"/>
      <stop offset="0.596078431372549" stop-color="#adadad"/>
      <stop offset="1.0" stop-color="#2b2b2b"/>
    </linearGradient>
    <linearGradient gradientTransform="matrix(0.0046, 0.0, 0.0, 0.0189, 0.0, 19.5)" gradientUnits="userSpaceOnUse" id="gradient1" spreadMethod="reflect" x1="-819.2" x2="819.2">
      <stop offset="0.0" stop-color="#68312d"/>
      <stop offset="1.0" stop-color="#6b2929"/>
    </linearGradient>
    <radialGradient cx="0" cy="0" fx="38.400000000000006" fy="0" gradientTransform="matrix(0.0123, 0.0, 0.0, 0.0123, 2.0, 6.0)" gradientUnits="userSpaceOnUse" id="gradient2" r="819.2" spreadMethod="pad">
      <stop offset="0.13725490196078433" stop-color="#68312d"/>
      <stop offset="0.5254901960784314" stop-color="#6a1c1c"/>
    </radialGradient>
    <radialGradient cx="0" cy="0" gradientTransform="matrix(0.0114, 0.0, 0.0, 0.0114, -2.0, 5.0)" gradientUnits="userSpaceOnUse" id="gradient3" r="819.2" spreadMethod="pad">
      <stop offset="0.13725490196078433" stop-color="#68312d"/>
      <stop offset="0.5254901960784314" stop-color="#771e1e"/>
    </radialGradient>
    <radialGradient cx="0" cy="0" gradientTransform="matrix(0.0052, 0.0, 0.0, 0.0686, 0.0, 41.0)" gradientUnits="userSpaceOnUse" id="gradient4" r="819.2" spreadMethod="pad">
      <stop offset="0.09019607843137255" stop-color="#fd4242" stop-opacity="0.7529412"/>
      <stop offset="0.6274509803921569" stop-color="#fe4747" stop-opacity="0.0"/>
    </radialGradient>
    <linearGradient gradientTransform="matrix(0.0049, 0.0, 0.0, 6.0E-4, 0.0, 11.0)" gradientUnits="userSpaceOnUse" id="gradient5" spreadMethod="pad" x1="-819.2" x2="819.2">
      <stop offset="0.0" stop-color="#2b2b2b"/>
      <stop offset="0.4980392156862745" stop-color="#636363"/>
      <stop offset="1.0" stop-color="#2b2b2b"/>
    </linearGradient>
    <linearGradient gradientTransform="matrix(0.0043, -0.0255, 0.0265, 0.0045, 5.5, -29.0)" gradientUnits="userSpaceOnUse" id="gradient6" spreadMethod="pad" x1="-819.2" x2="819.2">
      <stop offset="0.0" stop-color="#b93737"/>
      <stop offset="0.4666666666666667" stop-color="#f12929"/>
      <stop offset="1.0" stop-color="#e82424"/>
    </linearGradient>
    <linearGradient gradientTransform="matrix(-0.0065, -0.0243, 0.0259, -0.007, -5.5, -29.0)" gradientUnits="userSpaceOnUse" id="gradient7" spreadMethod="pad" x1="-819.2" x2="819.2">
      <stop offset="0.0" stop-color="#9a2525"/>
      <stop offset="1.0" stop-color="#b40c0c"/>
    </linearGradient>
    <linearGradient gradientTransform="matrix(0.0034, 0.0034, -0.0017, 0.0017, 0.0, 48.0)" gradientUnits="userSpaceOnUse" id="gradient8" spreadMethod="pad" x1="-819.2" x2="819.2">
      <stop offset="0.11372549019607843" stop-color="#313131"/>
      <stop offset="0.6509803921568628" stop-color="#5b5b5b"/>
      <stop offset="0.7607843137254902" stop-color="#585858"/>
    </linearGradient>
    <radialGradient cx="0" cy="0" gradientTransform="matrix(0.0054, 0.0, 0.0, 0.0063, 0.0, 43.0)" gradientUnits="userSpaceOnUse" id="gradient9" r="819.2" spreadMethod="reflect">
      <stop offset="0.1411764705882353" stop-color="#838383"/>
      <stop offset="0.2980392156862745" stop-color="#717171"/>
      <stop offset="0.9882352941176471" stop-color="#262626"/>
    </radialGradient>
    <linearGradient gradientTransform="matrix(0.0, -0.0101, 0.0098, 0.0, 0.0, 30.0)" gradientUnits="userSpaceOnUse" id="gradient10" spreadMethod="pad" x1="-819.2" x2="819.2">
      <stop offset="0.0" stop-color="#fe5c5c"/>
      <stop offset="1.0" stop-color="#df0202"/>
    </linearGradient>
  </defs>
</svg>
