<?xml version="1.0" encoding="UTF-8" standalone="no"?>
<svg xmlns:xlink="http://www.w3.org/1999/xlink" height="114.0px" width="93.0px" xmlns="http://www.w3.org/2000/svg">
  <g transform="matrix(1.0, 0.0, 0.0, 1.0, 46.5, 67.5)">
    <path d="M3.0 -50.0 L3.0 -47.8 7.0 -47.0 7.0 -43.5 Q10.75 -42.95 14.25 -41.75 L14.0 -40.0 15.95 -39.05 16.55 -39.55 16.1 -43.05 18.75 -43.95 24.15 -41.35 25.1 -38.65 22.0 -36.85 22.05 -36.0 24.0 -35.0 25.2 -36.15 Q28.25 -34.0 31.1 -31.15 44.0 -18.25 44.0 0.0 44.0 18.25 31.1 31.1 18.25 44.0 0.0 44.0 -18.25 44.0 -31.15 31.1 -44.0 18.25 -44.0 0.0 -44.0 -18.25 -31.15 -31.15 -20.8 -41.45 -7.0 -43.5 L-7.0 -47.0 -3.0 -47.8 -3.0 -50.0 -5.0 -50.0 -5.0 -51.0 -10.4 -51.0 Q-15.0 -51.0 -15.0 -55.6 L-15.0 -60.4 Q-15.0 -65.0 -10.4 -65.0 L10.4 -65.0 Q15.0 -65.0 15.0 -60.4 L15.0 -55.6 Q15.0 -51.0 10.4 -51.0 L5.0 -51.0 5.0 -50.0 3.0 -50.0 M5.0 -54.0 L10.4 -54.0 Q12.0 -54.0 12.0 -55.6 L12.0 -60.4 Q12.0 -62.0 10.4 -62.0 L-10.4 -62.0 Q-12.0 -62.0 -12.0 -60.4 L-12.0 -55.6 Q-12.0 -54.0 -10.4 -54.0 L-5.0 -54.0 -5.0 -55.0 5.0 -55.0 5.0 -54.0" fill="#000000" fill-rule="evenodd" stroke="none"/>
    <path d="M3.0 -50.0 L3.0 -47.8 7.0 -47.0 7.0 -43.5 Q10.75 -42.95 14.25 -41.75 L14.0 -40.0 15.95 -39.05 16.55 -39.55 16.1 -43.05 18.75 -43.95 24.15 -41.35 25.1 -38.65 22.0 -36.85 22.05 -36.0 24.0 -35.0 25.2 -36.15 Q28.25 -34.0 31.1 -31.15 44.0 -18.25 44.0 0.0 44.0 18.25 31.1 31.1 18.25 44.0 0.0 44.0 -18.25 44.0 -31.15 31.1 -44.0 18.25 -44.0 0.0 -44.0 -18.25 -31.15 -31.15 -20.8 -41.45 -7.0 -43.5 L-7.0 -47.0 -3.0 -47.8 -3.0 -50.0 -5.0 -50.0 -5.0 -51.0 -10.4 -51.0 Q-15.0 -51.0 -15.0 -55.6 L-15.0 -60.4 Q-15.0 -65.0 -10.4 -65.0 L10.4 -65.0 Q15.0 -65.0 15.0 -60.4 L15.0 -55.6 Q15.0 -51.0 10.4 -51.0 L5.0 -51.0 5.0 -50.0 3.0 -50.0 M5.0 -54.0 L10.4 -54.0 Q12.0 -54.0 12.0 -55.6 L12.0 -60.4 Q12.0 -62.0 10.4 -62.0 L-10.4 -62.0 Q-12.0 -62.0 -12.0 -60.4 L-12.0 -55.6 Q-12.0 -54.0 -10.4 -54.0 L-5.0 -54.0 -5.0 -55.0 5.0 -55.0 5.0 -54.0" fill="none" stroke="#000000" stroke-linecap="round" stroke-linejoin="round" stroke-width="5.0"/>
    <path d="M21.9 -21.95 Q31.0 -12.85 31.0 0.0 31.0 12.85 21.9 21.9 12.85 31.0 0.0 31.0 -12.85 31.0 -21.95 21.9 -31.0 12.85 -31.0 0.0 -31.0 -12.85 -21.95 -21.95 -12.85 -31.0 0.0 -31.0 12.85 -31.0 21.9 -21.95" fill="url(#gradient0)" fill-rule="evenodd" stroke="none"/>
    <path d="M-11.1 -10.85 L-21.85 -10.85 -21.85 10.9 -11.1 10.9 -11.1 -10.85 M10.9 10.9 L10.9 -10.85 -10.85 -10.85 -10.85 10.9 10.9 10.9 M10.9 21.9 L10.9 11.15 -10.85 11.15 -10.85 21.9 10.9 21.9 M21.9 21.9 L21.9 11.15 11.15 11.15 11.15 21.9 21.9 21.9 M21.9 -10.85 L11.15 -10.85 11.15 10.9 21.9 10.9 21.9 -10.85 M10.9 -11.1 L10.9 -21.85 -10.85 -21.85 -10.85 -11.1 10.9 -11.1 M10.9 -31.0 L10.9 -31.1 11.0 -31.1 11.1 -31.1 11.15 -31.0 11.15 -22.1 21.0 -22.1 21.1 -22.1 21.15 -22.0 21.1 -21.9 21.0 -21.85 11.15 -21.85 11.15 -11.1 21.9 -11.1 21.9 -23.0 21.9 -23.1 22.0 -23.1 22.1 -23.1 22.15 -23.0 22.15 -11.1 31.0 -11.1 31.1 -11.1 31.15 -11.0 31.1 -10.9 31.0 -10.85 22.15 -10.85 22.15 10.9 31.0 10.9 31.1 10.9 31.15 11.0 31.1 11.1 31.0 11.15 22.15 11.15 22.15 22.0 22.1 22.1 22.0 22.15 11.15 22.15 11.15 30.0 11.1 30.1 11.0 30.15 10.9 30.1 10.9 30.0 10.9 22.15 -10.85 22.15 -10.85 30.0 -10.9 30.1 -11.0 30.15 -11.1 30.1 -11.1 30.0 -11.1 22.15 -24.0 22.15 -24.1 22.1 -24.1 22.0 -24.1 21.9 -24.0 21.9 -11.1 21.9 -11.1 11.15 -21.85 11.15 -21.85 21.0 -21.9 21.1 -22.0 21.15 -22.1 21.1 -22.1 21.0 -22.1 11.15 -31.0 11.15 -31.1 11.1 -31.1 11.0 -31.1 10.9 -31.0 10.9 -22.1 10.9 -22.1 -10.85 -31.0 -10.85 -31.1 -10.9 -31.1 -11.0 -31.1 -11.1 -31.0 -11.1 -22.1 -11.1 -22.1 -23.0 -22.1 -23.1 -22.0 -23.1 -21.9 -23.1 -21.85 -23.0 -21.85 -11.1 -11.1 -11.1 -11.1 -21.85 -21.0 -21.85 -21.1 -21.9 -21.1 -22.0 -21.1 -22.1 -21.0 -22.1 -11.1 -22.1 -11.1 -30.0 -11.1 -30.1 -11.0 -30.1 -10.9 -30.1 -10.85 -30.0 -10.85 -22.1 10.9 -22.1 10.9 -31.0" fill="url(#gradient1)" fill-rule="evenodd" stroke="none"/>
    <path d="M31.0 0.0 L0.0 0.0 0.0 31.0 M0.0 -31.0 L0.0 0.0 -31.0 0.0" fill="none" stroke="url(#gradient2)" stroke-linecap="round" stroke-linejoin="round" stroke-width="0.75"/>
    <path d="M3.5 -3.55 Q5.0 -2.05 5.0 0.0 5.0 2.05 3.5 3.5 2.05 5.0 0.0 5.0 -2.05 5.0 -3.55 3.5 -5.0 2.05 -5.0 0.0 -5.0 -2.05 -3.55 -3.55 -2.05 -5.0 0.0 -5.0 2.05 -5.0 3.5 -3.55 M9.9 -9.9 Q14.0 -5.8 14.0 0.0 14.0 5.8 9.9 9.9 5.8 14.0 0.0 14.0 -5.8 14.0 -9.9 9.9 -14.0 5.8 -14.0 0.0 -14.0 -5.8 -9.9 -9.9 -5.8 -14.0 0.0 -14.0 5.8 -14.0 9.9 -9.9 M17.65 -17.7 Q25.0 -10.35 25.0 0.0 25.0 10.35 17.65 17.65 10.35 25.0 0.0 25.0 -10.35 25.0 -17.7 17.65 -25.0 10.35 -25.0 0.0 -25.0 -10.35 -17.7 -17.7 -10.35 -25.0 0.0 -25.0 10.35 -25.0 17.65 -17.7" fill="none" stroke="url(#gradient3)" stroke-linecap="round" stroke-linejoin="round" stroke-width="0.5"/>
    <path d="M-31.0 0.0 Q-31.0 -12.35 -22.65 -21.2 L0.0 0.0 -31.0 0.0" fill="url(#gradient4)" fill-rule="evenodd" stroke="none"/>
    <path d="M16.9 -26.1 Q9.45 -31.0 0.0 -31.0 -9.45 -31.0 -16.85 -26.1 L-16.7 -23.45 -16.75 -23.05 -17.0 -22.7 -22.7 -17.0 -23.05 -16.75 -23.45 -16.7 -26.05 -16.9 Q-31.0 -9.5 -31.0 0.0 -31.0 9.4 -26.15 16.8 L-23.45 16.6 -23.05 16.7 -22.7 16.9 -17.0 22.6 -16.75 22.95 -16.7 23.4 -16.9 26.05 Q-9.5 31.0 0.0 31.0 9.5 31.0 16.9 26.05 L16.7 23.4 16.75 22.95 17.0 22.6 22.7 16.9 23.05 16.7 23.45 16.6 26.15 16.8 Q31.0 9.4 31.0 0.0 31.0 -9.45 26.05 -16.9 L23.45 -16.7 23.05 -16.75 22.7 -17.0 17.0 -22.7 16.75 -23.05 16.7 -23.45 16.9 -26.1 M0.0 -33.95 Q10.35 -33.95 18.55 -28.5 L28.45 -18.6 Q33.95 -10.4 33.95 0.0 33.95 10.35 28.55 18.45 L18.6 28.5 Q10.4 33.95 0.0 33.95 -10.4 33.95 -18.6 28.5 L-28.55 18.45 Q-33.95 10.35 -33.95 0.0 -33.95 -10.4 -28.45 -18.6 L-18.55 -28.5 Q-10.35 -33.95 0.0 -33.95" fill="#000000" fill-rule="evenodd" stroke="none"/>
    <path d="M12.0 -56.0 L12.0 -60.0 Q12.0 -60.8 11.4 -61.4 10.8 -62.0 10.0 -62.0 L-10.0 -62.0 Q-10.8 -62.0 -11.4 -61.4 -12.0 -60.8 -12.0 -60.0 L-12.0 -56.0 Q-12.0 -55.2 -11.4 -54.6 -10.8 -54.0 -10.0 -54.0 L10.0 -54.0 Q10.8 -54.0 11.4 -54.6 12.0 -55.2 12.0 -56.0 M11.0 -65.0 Q12.65 -65.0 13.85 -63.85 15.0 -62.65 15.0 -61.0 L15.0 -55.0 Q15.0 -53.35 13.85 -52.15 12.65 -51.0 11.0 -51.0 L-11.0 -51.0 Q-12.65 -51.0 -13.85 -52.15 -15.0 -53.35 -15.0 -55.0 L-15.0 -61.0 Q-15.0 -62.65 -13.85 -63.85 -12.65 -65.0 -11.0 -65.0 L11.0 -65.0" fill="url(#gradient5)" fill-rule="evenodd" stroke="none"/>
    <path d="M8.5 -64.55 Q12.0 -64.1 12.0 -63.5 12.0 -62.9 8.5 -62.45 L0.0 -62.0 -8.5 -62.45 Q-12.0 -62.9 -12.0 -63.5 -12.0 -64.1 -8.5 -64.55 L0.0 -65.0 8.5 -64.55" fill="url(#gradient6)" fill-rule="evenodd" stroke="none"/>
    <path d="M0.25 -51.0 L-8.05 -51.45 Q-11.5 -51.9 -11.5 -52.5 -11.5 -53.1 -8.05 -53.55 L0.25 -54.0 8.55 -53.55 Q12.0 -53.1 12.0 -52.5 12.0 -51.9 8.55 -51.45 L0.25 -51.0" fill="url(#gradient7)" fill-rule="evenodd" stroke="none"/>
    <path d="M14.65 -54.45 Q14.2 -53.1 13.6 -53.1 13.0 -53.1 12.55 -54.45 12.1 -55.75 12.1 -57.6 12.1 -59.45 12.55 -60.8 13.0 -62.1 13.6 -62.1 14.2 -62.1 14.65 -60.8 15.1 -59.45 15.1 -57.6 15.1 -55.75 14.65 -54.45" fill="url(#gradient8)" fill-rule="evenodd" stroke="none"/>
    <path d="M-14.55 -60.7 Q-14.1 -62.0 -13.5 -62.0 -12.9 -62.0 -12.45 -60.7 -12.0 -59.35 -12.0 -57.5 -12.0 -55.65 -12.45 -54.35 -12.9 -53.0 -13.5 -53.0 -14.1 -53.0 -14.55 -54.35 -15.0 -55.65 -15.0 -57.5 -15.0 -59.35 -14.55 -60.7" fill="url(#gradient9)" fill-rule="evenodd" stroke="none"/>
    <path d="M5.0 -50.0 L-5.0 -50.0 -5.0 -55.0 5.0 -55.0 5.0 -50.0" fill="url(#gradient10)" fill-rule="evenodd" stroke="none"/>
    <path d="M-3.0 -47.0 L-3.0 -50.0 Q-2.9 -51.6 0.05 -51.6 2.9 -51.6 3.0 -50.0 L3.0 -47.0 -3.0 -47.0" fill="url(#gradient11)" fill-rule="evenodd" stroke="none"/>
    <path d="M-3.0 -47.0 L3.0 -47.0 7.0 -47.0 7.0 -43.0 -7.0 -43.0 -7.0 -47.0 -3.0 -47.0" fill="url(#gradient12)" fill-rule="evenodd" stroke="none"/>
    <path d="M23.3 -23.35 Q13.65 -32.95 0.0 -32.95 -13.65 -32.95 -23.35 -23.35 -32.95 -13.65 -32.95 0.0 -32.95 13.65 -23.35 23.3 -13.65 32.95 0.0 32.95 13.65 32.95 23.3 23.3 32.95 13.65 32.95 0.0 32.95 -13.65 23.3 -23.35 M0.0 -39.0 L5.0 -39.0 5.7 -36.6 Q17.4 -34.95 26.15 -26.2 37.0 -15.35 37.0 0.0 37.0 15.35 26.15 26.15 15.35 37.0 0.0 37.0 -15.35 37.0 -26.2 26.15 -37.0 15.35 -37.0 0.0 -37.0 -15.35 -26.2 -26.2 -17.4 -34.95 -5.7 -36.6 L-5.0 -39.0 0.0 -39.0" fill="url(#gradient13)" fill-rule="evenodd" stroke="none"/>
    <path d="M22.4 29.3 L17.95 27.65 17.6 23.3 22.4 29.3 M23.3 -17.7 L29.3 -22.5 27.65 -18.05 23.3 -17.7 M-23.4 -17.7 L-27.75 -18.05 -29.4 -22.5 -23.4 -17.7 M-22.5 29.3 L-17.7 23.3 -18.05 27.65 -22.5 29.3" fill="#666666" fill-rule="evenodd" stroke="none"/>
    <path d="M17.9 -27.8 L22.35 -29.45 17.6 -23.4 17.9 -27.8" fill="url(#gradient14)" fill-rule="evenodd" stroke="none"/>
    <path d="M27.7 17.9 L29.35 22.35 23.3 17.6 27.7 17.9" fill="url(#gradient15)" fill-rule="evenodd" stroke="none"/>
    <path d="M-22.45 -29.45 L-18.0 -27.8 -17.7 -23.4 -22.45 -29.45" fill="url(#gradient16)" fill-rule="evenodd" stroke="none"/>
    <path d="M-27.8 17.9 L-23.4 17.6 -29.45 22.35 -27.8 17.9" fill="url(#gradient17)" fill-rule="evenodd" stroke="none"/>
    <path d="M20.45 -20.55 L17.6 -23.4 22.55 -29.75 Q26.65 -26.45 29.65 -22.65 L23.3 -17.7 20.45 -20.55" fill="url(#gradient18)" fill-rule="evenodd" stroke="none"/>
    <path d="M20.45 20.45 L23.3 17.6 29.65 22.55 Q26.8 26.5 22.55 29.65 L17.6 23.3 20.45 20.45" fill="url(#gradient19)" fill-rule="evenodd" stroke="none"/>
    <path d="M-29.75 -22.65 Q-26.8 -26.8 -22.65 -29.75 L-17.7 -23.4 -20.55 -20.55 -23.4 -17.7 -29.75 -22.65" fill="url(#gradient20)" fill-rule="evenodd" stroke="none"/>
    <path d="M-22.65 29.65 Q-26.9 26.8 -29.75 22.55 L-23.4 17.6 -20.55 20.45 -17.7 23.3 -22.65 29.65" fill="url(#gradient21)" fill-rule="evenodd" stroke="none"/>
    <path d="M16.6 -39.6 L22.0 -36.95 22.05 -34.7 14.9 -38.2 16.6 -39.6" fill="url(#gradient22)" fill-rule="evenodd" stroke="none"/>
  </g>
  <defs>
    <linearGradient gradientTransform="matrix(0.0, -0.0378, 0.0378, 0.0, 0.0, 0.0)" gradientUnits="userSpaceOnUse" id="gradient0" spreadMethod="pad" x1="-819.2" x2="819.2">
      <stop offset="0.0" stop-color="#555555"/>
      <stop offset="0.1568627450980392" stop-color="#4e4e4e"/>
      <stop offset="0.25882352941176473" stop-color="#464646"/>
      <stop offset="0.5058823529411764" stop-color="#555555"/>
      <stop offset="1.0" stop-color="#808080"/>
    </linearGradient>
    <linearGradient gradientTransform="matrix(0.0, -0.038, 0.0374, 0.0, 0.0, -0.5)" gradientUnits="userSpaceOnUse" id="gradient1" spreadMethod="pad" x1="-819.2" x2="819.2">
      <stop offset="0.07058823529411765" stop-color="#2e2e2e"/>
      <stop offset="1.0" stop-color="#555555"/>
    </linearGradient>
    <linearGradient gradientTransform="matrix(0.0, -0.0383, 0.0383, 0.0, 0.0, 0.0)" gradientUnits="userSpaceOnUse" id="gradient2" spreadMethod="pad" x1="-819.2" x2="819.2">
      <stop offset="0.11764705882352941" stop-color="#606060"/>
      <stop offset="0.8549019607843137" stop-color="#8a8a8a"/>
      <stop offset="1.0" stop-color="#9f9f9f"/>
    </linearGradient>
    <linearGradient gradientTransform="matrix(-2.0E-4, -0.0378, 0.0309, -1.0E-4, 0.0, 0.0)" gradientUnits="userSpaceOnUse" id="gradient3" spreadMethod="pad" x1="-819.2" x2="819.2">
      <stop offset="0.11764705882352941" stop-color="#606060"/>
      <stop offset="0.9215686274509803" stop-color="#8a8a8a"/>
    </linearGradient>
    <linearGradient gradientTransform="matrix(0.0061, -0.0102, 0.021, 0.0127, 10.15, 12.8)" gradientUnits="userSpaceOnUse" id="gradient4" spreadMethod="pad" x1="-819.2" x2="819.2">
      <stop offset="0.37254901960784315" stop-color="#8a8a8a" stop-opacity="0.0"/>
      <stop offset="0.9254901960784314" stop-color="#7b7b7b" stop-opacity="0.62352943"/>
      <stop offset="0.984313725490196" stop-color="#8a8a8a"/>
      <stop offset="1.0" stop-color="#8a8a8a"/>
    </linearGradient>
    <linearGradient gradientTransform="matrix(0.0, -0.0085, 0.0085, 0.0, -1.05, -58.05)" gradientUnits="userSpaceOnUse" id="gradient5" spreadMethod="pad" x1="-819.2" x2="819.2">
      <stop offset="0.0" stop-color="#959595"/>
      <stop offset="0.07058823529411765" stop-color="#b0b0b0"/>
      <stop offset="1.0" stop-color="#cdcdcd"/>
    </linearGradient>
    <radialGradient cx="0" cy="0" gradientTransform="matrix(0.0, -0.002, 0.0179, -1.0E-4, 0.0, -63.5)" gradientUnits="userSpaceOnUse" id="gradient6" r="819.2" spreadMethod="pad">
      <stop offset="0.15294117647058825" stop-color="#ffffff" stop-opacity="0.9019608"/>
      <stop offset="0.4470588235294118" stop-color="#ffffff" stop-opacity="0.3137255"/>
      <stop offset="0.8901960784313725" stop-color="#808080" stop-opacity="0.0"/>
    </radialGradient>
    <radialGradient cx="0" cy="0" gradientTransform="matrix(0.0, -0.0019, 0.0169, -1.0E-4, 0.25, -52.5)" gradientUnits="userSpaceOnUse" id="gradient7" r="819.2" spreadMethod="pad">
      <stop offset="0.0" stop-color="#ffffff" stop-opacity="0.77254903"/>
      <stop offset="0.8156862745098039" stop-color="#ffffff" stop-opacity="0.0"/>
    </radialGradient>
    <radialGradient cx="0" cy="0" gradientTransform="matrix(0.0016, 0.0, 0.0, 0.0066, 13.6, -57.6)" gradientUnits="userSpaceOnUse" id="gradient8" r="819.2" spreadMethod="pad">
      <stop offset="0.0" stop-color="#ffffff" stop-opacity="0.68235296"/>
      <stop offset="0.32941176470588235" stop-color="#ffffff" stop-opacity="0.38039216"/>
      <stop offset="0.8627450980392157" stop-color="#c6c6c6" stop-opacity="0.0"/>
    </radialGradient>
    <radialGradient cx="0" cy="0" gradientTransform="matrix(0.0016, 0.0, 0.0, 0.0066, -13.5, -57.5)" gradientUnits="userSpaceOnUse" id="gradient9" r="819.2" spreadMethod="pad">
      <stop offset="0.0" stop-color="#ffffff" stop-opacity="0.6509804"/>
      <stop offset="0.3137254901960784" stop-color="#ffffff" stop-opacity="0.38039216"/>
      <stop offset="0.8666666666666667" stop-color="#959595" stop-opacity="0.0"/>
    </radialGradient>
    <linearGradient gradientTransform="matrix(0.0, 0.0031, -0.0031, 0.0, 0.0, -52.5)" gradientUnits="userSpaceOnUse" id="gradient10" spreadMethod="pad" x1="-819.2" x2="819.2">
      <stop offset="0.0" stop-color="#a6a6a6"/>
      <stop offset="0.3058823529411765" stop-color="#e2e2e2"/>
      <stop offset="0.4117647058823529" stop-color="#e2e2e2"/>
      <stop offset="0.6039215686274509" stop-color="#c2c2c2"/>
      <stop offset="0.8901960784313725" stop-color="#868686"/>
    </linearGradient>
    <linearGradient gradientTransform="matrix(0.0037, 0.0, 0.0, 0.0037, 0.0, -49.0)" gradientUnits="userSpaceOnUse" id="gradient11" spreadMethod="pad" x1="-819.2" x2="819.2">
      <stop offset="0.050980392156862744" stop-color="#989898"/>
      <stop offset="0.33725490196078434" stop-color="#cacaca"/>
      <stop offset="0.4980392156862745" stop-color="#d5d5d5"/>
      <stop offset="0.6666666666666666" stop-color="#cacaca"/>
      <stop offset="0.9450980392156862" stop-color="#959595"/>
    </linearGradient>
    <linearGradient gradientTransform="matrix(0.0085, 0.0, 0.0, 0.0031, 0.0, -45.5)" gradientUnits="userSpaceOnUse" id="gradient12" spreadMethod="pad" x1="-819.2" x2="819.2">
      <stop offset="0.06666666666666667" stop-color="#aaaaaa"/>
      <stop offset="0.4470588235294118" stop-color="#f0f0f0"/>
      <stop offset="0.6039215686274509" stop-color="#f0f0f0"/>
      <stop offset="0.9450980392156862" stop-color="#b8b8b8"/>
    </linearGradient>
    <linearGradient gradientTransform="matrix(0.0, 0.0452, -0.0458, 0.0, 0.0, -0.5)" gradientUnits="userSpaceOnUse" id="gradient13" spreadMethod="pad" x1="-819.2" x2="819.2">
      <stop offset="0.0" stop-color="#9f9f9f"/>
      <stop offset="0.2980392156862745" stop-color="#7b7b7b"/>
      <stop offset="0.6705882352941176" stop-color="#919191"/>
      <stop offset="0.9215686274509803" stop-color="#d5d5d5"/>
      <stop offset="1.0" stop-color="#f4f4f4"/>
    </linearGradient>
    <linearGradient gradientTransform="matrix(-1.0E-4, -0.0032, 0.0037, -1.0E-4, 20.25, -26.55)" gradientUnits="userSpaceOnUse" id="gradient14" spreadMethod="pad" x1="-819.2" x2="819.2">
      <stop offset="0.0" stop-color="#9f9f9f"/>
      <stop offset="1.0" stop-color="#757575"/>
    </linearGradient>
    <linearGradient gradientTransform="matrix(-7.0E-4, 0.0026, -0.0028, -7.0E-4, 26.55, 19.4)" gradientUnits="userSpaceOnUse" id="gradient15" spreadMethod="pad" x1="-819.2" x2="819.2">
      <stop offset="0.00784313725490196" stop-color="#a3a3a3"/>
      <stop offset="0.0196078431372549" stop-color="#8d8d8d"/>
      <stop offset="1.0" stop-color="#8d8d8d"/>
    </linearGradient>
    <linearGradient gradientTransform="matrix(4.0E-4, -0.0037, 0.0037, 4.0E-4, -19.2, -26.2)" gradientUnits="userSpaceOnUse" id="gradient16" spreadMethod="pad" x1="-819.2" x2="819.2">
      <stop offset="0.0196078431372549" stop-color="#969696"/>
      <stop offset="1.0" stop-color="#787878"/>
    </linearGradient>
    <linearGradient gradientTransform="matrix(-0.0017, 0.0019, -0.0022, -0.0019, -26.5, 19.4)" gradientUnits="userSpaceOnUse" id="gradient17" spreadMethod="pad" x1="-819.2" x2="819.2">
      <stop offset="0.0" stop-color="#989898"/>
      <stop offset="1.0" stop-color="#808080"/>
    </linearGradient>
    <linearGradient gradientTransform="matrix(-0.0033, 0.0034, -0.0052, -0.0051, 23.35, -23.2)" gradientUnits="userSpaceOnUse" id="gradient18" spreadMethod="pad" x1="-819.2" x2="819.2">
      <stop offset="0.10588235294117647" stop-color="#c4c4c4"/>
      <stop offset="0.6784313725490196" stop-color="#b0b0b0"/>
      <stop offset="1.0" stop-color="#9f9f9f"/>
    </linearGradient>
    <linearGradient gradientTransform="matrix(-0.0034, -0.0036, 0.0053, -0.0051, 23.1, 23.4)" gradientUnits="userSpaceOnUse" id="gradient19" spreadMethod="pad" x1="-819.2" x2="819.2">
      <stop offset="0.0" stop-color="#838383"/>
      <stop offset="1.0" stop-color="#bbbbbb"/>
    </linearGradient>
    <linearGradient gradientTransform="matrix(0.0037, 0.0037, -0.0052, 0.0052, -23.25, -23.5)" gradientUnits="userSpaceOnUse" id="gradient20" spreadMethod="pad" x1="-819.2" x2="819.2">
      <stop offset="0.0784313725490196" stop-color="#c2c2c2"/>
      <stop offset="0.4392156862745098" stop-color="#bbbbbb"/>
      <stop offset="0.7333333333333333" stop-color="#aaaaaa"/>
      <stop offset="1.0" stop-color="#989898"/>
    </linearGradient>
    <linearGradient gradientTransform="matrix(0.0033, -0.0035, 0.0053, 0.005, -22.9, 23.85)" gradientUnits="userSpaceOnUse" id="gradient21" spreadMethod="pad" x1="-819.2" x2="819.2">
      <stop offset="0.0" stop-color="#838383"/>
      <stop offset="1.0" stop-color="#bbbbbb"/>
    </linearGradient>
    <linearGradient gradientTransform="matrix(0.0039, 0.0019, -0.0013, 0.0027, 18.5, -37.15)" gradientUnits="userSpaceOnUse" id="gradient22" spreadMethod="pad" x1="-819.2" x2="819.2">
      <stop offset="0.12941176470588237" stop-color="#959595"/>
      <stop offset="0.28627450980392155" stop-color="#dfdfdf"/>
      <stop offset="0.44313725490196076" stop-color="#fbfbfb"/>
      <stop offset="0.7098039215686275" stop-color="#c2c2c2"/>
      <stop offset="1.0" stop-color="#868686"/>
    </linearGradient>
  </defs>
</svg>
