<?xml version="1.0" encoding="UTF-8" standalone="no"?>
<svg xmlns:xlink="http://www.w3.org/1999/xlink" height="190.0px" width="242.0px" xmlns="http://www.w3.org/2000/svg">
  <g transform="matrix(1.0, 0.0, 0.0, 1.0, 121.0, 95.0)">
    <path d="M37.05 -65.65 Q47.45 -66.45 61.0 -65.0 56.2 -55.35 59.9 -49.2 63.75 -42.8 78.0 -38.0 77.4 -22.2 88.0 -16.0 85.6 -11.15 81.0 -9.0 L113.0 15.0 121.0 38.0 103.0 69.0 55.0 93.0 39.0 86.0 -4.0 94.0 -25.0 88.0 -73.0 95.0 -97.0 75.0 -121.0 35.0 -115.0 22.0 -101.0 23.0 -105.0 11.0 -97.0 3.0 -97.0 -23.0 -89.0 -29.0 -89.0 -53.0 -73.0 -61.0 -59.0 -61.0 -69.0 -76.0 -21.0 -95.0 -11.0 -69.0 15.0 -61.0 Q25.65 -64.75 37.05 -65.65" fill="#ffffff" fill-opacity="0.0" fill-rule="evenodd" stroke="none"/>
  </g>
</svg>
