<?xml version="1.0" encoding="UTF-8" standalone="no"?>
<svg xmlns:xlink="http://www.w3.org/1999/xlink" height="43.5px" width="146.0px" xmlns="http://www.w3.org/2000/svg">
  <g transform="matrix(1.0, 0.0, 0.0, 1.0, 73.0, 21.75)">
    <path d="M23.0 -19.25 L28.0 -16.25 55.0 -17.25 57.0 -11.25 73.0 -6.25 62.0 -2.25 59.0 0.75 59.0 5.75 41.0 14.75 17.0 18.75 7.0 21.75 -5.0 19.75 -12.0 15.75 -15.0 11.75 -34.0 7.75 -47.0 5.75 -59.0 2.75 -73.0 -8.25 Q-63.45 -10.35 -52.0 -10.25 -42.4 -6.75 -35.0 -11.25 -34.9 -14.55 -32.65 -17.2 -30.6 -19.55 -26.5 -21.75 L17.5 -21.75 23.0 -19.25" fill="#ffffff" fill-opacity="0.0" fill-rule="evenodd" stroke="none"/>
  </g>
</svg>
