<?xml version="1.0" encoding="UTF-8" standalone="no"?>
<svg xmlns:xlink="http://www.w3.org/1999/xlink" height="118.4px" width="170.7px" xmlns="http://www.w3.org/2000/svg">
  <g transform="matrix(1.0, 0.0, 0.0, 1.0, 85.35, 59.2)">
    <path d="M57.35 -49.8 Q55.75 -39.0 60.15 -32.65 64.55 -26.35 73.35 -24.8 L57.35 -10.8 85.35 -5.8 83.35 17.2 47.35 -0.8 35.35 11.2 27.35 12.2 25.35 6.2 -1.65 18.2 -20.65 31.2 -16.65 43.2 -16.65 58.2 -30.65 59.2 -62.65 35.2 Q-58.05 33.05 -55.65 28.2 -66.25 22.0 -65.65 6.2 -79.9 1.4 -83.75 -5.0 -87.45 -11.15 -82.65 -20.8 -79.8 -24.2 -75.65 -26.8 -72.6 -28.7 -67.65 -30.8 -63.15 -32.7 -56.5 -40.1 -49.5 -47.8 -45.65 -49.8 -36.85 -50.6 -27.65 -56.8 -25.7 -54.6 -14.5 -53.05 -2.1 -51.4 2.35 -48.8 17.65 -64.15 35.35 -56.8 40.4 -54.3 46.1 -52.45 52.3 -50.4 57.35 -49.8" fill="#ffffff" fill-opacity="0.0" fill-rule="evenodd" stroke="none"/>
  </g>
</svg>
