<?xml version="1.0" encoding="UTF-8" standalone="no"?>
<svg xmlns:xlink="http://www.w3.org/1999/xlink" height="96.0px" width="169.0px" xmlns="http://www.w3.org/2000/svg">
  <g transform="matrix(1.0, 0.0, 0.0, 1.0, 84.5, 48.0)">
    <path d="M13.5 -40.0 L17.5 -45.0 51.5 -48.0 56.5 -42.0 Q52.45 -37.95 53.5 -33.0 45.5 -30.1 51.5 -24.0 51.65 -20.15 53.5 -17.0 50.65 -14.6 51.5 -2.0 66.55 6.0 78.5 18.0 83.65 20.15 84.5 25.0 L81.5 27.0 Q75.8 25.7 70.4 27.95 65.35 30.0 58.5 36.0 51.05 34.85 44.5 39.0 L43.5 40.0 30.5 48.0 Q28.1 39.15 18.55 37.55 13.05 36.65 -9.5 38.0 -17.6 32.95 -28.5 35.0 -31.95 33.0 -38.5 34.0 -47.6 31.7 -54.5 27.0 L-48.5 22.0 -57.5 15.0 -59.5 8.0 -52.5 6.0 -54.5 -1.0 -64.5 -4.0 -72.5 -13.0 -73.5 -15.0 -59.5 -16.0 -59.5 -18.0 -70.5 -19.0 -73.5 -21.0 -78.5 -19.0 -84.5 -23.0 -80.5 -32.0 -32.5 -35.0 -30.5 -39.0 -13.5 -39.0 -9.5 -37.0 1.5 -37.0 4.5 -40.0 13.5 -40.0" fill="#ffffff" fill-opacity="0.0" fill-rule="evenodd" stroke="none"/>
  </g>
</svg>
