<?xml version="1.0" encoding="UTF-8" standalone="no"?>
<svg xmlns:xlink="http://www.w3.org/1999/xlink" height="60.7px" width="106.0px" xmlns="http://www.w3.org/2000/svg">
  <g transform="matrix(1.0, 0.0, 0.0, 1.0, 53.0, 30.35)">
    <path d="M16.0 -17.9 Q23.0 -15.7 31.0 -17.9 41.1 -13.6 53.0 -12.9 47.65 -9.95 43.4 -5.1 38.6 0.25 40.0 3.1 47.55 18.5 39.3 25.1 31.6 31.2 11.0 29.1 L7.0 29.1 Q-9.65 33.8 -22.0 21.1 -31.4 17.8 -40.0 19.1 -41.0 17.25 -46.1 12.15 -50.1 8.15 -51.0 3.1 L-48.0 -16.9 -53.0 -25.9 -40.0 -24.9 Q-39.65 -24.9 -37.05 -27.0 -34.2 -29.3 -31.45 -30.0 -22.05 -32.3 -9.0 -18.9 L16.0 -17.9" fill="#ffffff" fill-opacity="0.0" fill-rule="evenodd" stroke="none"/>
  </g>
</svg>
