<?xml version="1.0" encoding="UTF-8" standalone="no"?>
<svg xmlns:xlink="http://www.w3.org/1999/xlink" height="122.5px" width="53.0px" xmlns="http://www.w3.org/2000/svg">
  <g transform="matrix(1.0, 0.0, 0.0, 1.0, 26.5, 26.5)">
    <path d="M12.3 0.0 L12.3 96.0 9.85 96.0 9.85 0.0 12.3 0.0 M8.0 96.0 L-8.0 96.0 -8.0 0.0 8.0 0.0 8.0 96.0 M-9.8 0.0 L-9.8 96.0 -12.25 96.0 -12.25 0.0 -9.8 0.0" fill="#5b5b5b" fill-rule="evenodd" stroke="none"/>
    <path d="M7.6 -7.6 Q4.45 -10.75 0.0 -10.75 -4.45 -10.75 -7.6 -7.6 -10.75 -4.45 -10.75 0.0 -10.75 4.45 -7.6 7.6 -4.45 10.75 0.0 10.75 4.45 10.75 7.6 7.6 10.75 4.45 10.75 0.0 10.75 -4.45 7.6 -7.6 M13.95 -14.0 Q19.75 -8.2 19.75 0.0 19.75 8.2 13.95 13.95 8.2 19.75 0.0 19.75 -8.2 19.75 -14.0 13.95 -19.75 8.2 -19.75 0.0 -19.75 -8.2 -14.0 -14.0 -8.2 -19.75 0.0 -19.75 8.2 -19.75 13.95 -14.0 M16.95 -17.0 Q9.95 -24.0 0.0 -24.0 -9.95 -24.0 -17.0 -17.0 -24.0 -9.95 -24.0 0.0 -24.0 9.95 -17.0 16.95 -10.2 23.75 -0.7 24.0 L0.75 24.0 Q10.2 23.75 16.95 16.95 24.0 9.95 24.0 0.0 24.0 -9.95 16.95 -17.0 M18.75 -18.75 Q26.5 -11.0 26.5 0.0 26.5 11.0 18.75 18.75 15.4 22.1 11.45 24.0 6.25 26.5 0.0 26.5 -6.25 26.5 -11.45 24.0 -15.4 22.1 -18.75 18.75 -26.5 11.0 -26.5 0.0 -26.5 -11.0 -18.75 -18.75 -11.0 -26.5 0.0 -26.5 11.0 -26.5 18.75 -18.75" fill="#5b5b5b" fill-rule="evenodd" stroke="none"/>
    <path d="M7.6 -7.6 Q10.75 -4.45 10.75 0.0 10.75 4.45 7.6 7.6 4.45 10.75 0.0 10.75 -4.45 10.75 -7.6 7.6 -10.75 4.45 -10.75 0.0 -10.75 -4.45 -7.6 -7.6 -4.45 -10.75 0.0 -10.75 4.45 -10.75 7.6 -7.6" fill="#262626" fill-rule="evenodd" stroke="none"/>
  </g>
</svg>
