<?xml version="1.0" encoding="UTF-8" standalone="no"?>
<svg xmlns:xlink="http://www.w3.org/1999/xlink" height="146.15px" width="30.05px" xmlns="http://www.w3.org/2000/svg">
  <g transform="matrix(1.0, 0.0, 0.0, 1.0, 16.55, 71.65)">
    <path d="M11.85 -55.8 L13.4 -47.3 13.5 -43.85 Q13.25 -38.5 12.15 -34.7 11.2 -31.35 9.3 -28.45 10.1 -28.4 10.7 -27.85 11.4 -27.2 11.5 -26.25 L12.5 -16.25 12.5 -7.25 12.15 -4.4 Q10.9 3.75 10.55 14.55 10.45 17.15 10.5 24.05 L11.5 35.6 Q12.7 42.9 12.95 48.05 L13.0 52.1 12.85 55.5 12.5 60.3 Q12.4 61.2 11.7 61.85 L11.2 62.2 10.5 66.4 9.65 67.9 9.5 68.0 9.5 69.0 Q9.5 70.05 8.8 70.8 8.2 71.3 7.5 71.45 L7.5 72.0 Q7.5 73.05 6.8 73.8 6.05 74.5 5.0 74.5 L-5.0 74.5 Q-6.05 74.5 -6.75 73.8 -7.5 73.05 -7.5 72.0 L-7.5 71.45 -8.75 70.8 Q-9.5 70.05 -9.5 69.0 L-9.5 64.6 -10.25 64.5 Q-11.15 64.4 -11.75 63.8 -12.4 63.15 -12.45 62.3 -13.8 49.7 -11.45 35.6 -10.6 30.6 -10.45 23.55 L-10.55 14.55 Q-10.9 3.85 -12.1 -4.25 L-12.5 -7.25 -12.45 -16.25 -11.45 -26.25 Q-11.4 -27.2 -10.65 -27.85 -10.05 -28.4 -9.25 -28.45 -11.6 -30.55 -13.05 -32.35 -14.7 -34.45 -15.9 -37.0 L-16.5 -39.25 Q-16.7 -44.4 -16.2 -48.4 L-14.1 -52.15 Q-12.45 -54.6 -12.2 -55.95 -11.85 -57.4 -10.35 -57.55 L-8.05 -66.25 Q-7.1 -68.35 -4.9 -69.1 -3.75 -71.6 -0.45 -71.65 L-0.4 -71.65 Q3.05 -71.7 4.1 -69.05 6.15 -68.25 7.1 -66.25 L7.2 -66.0 Q9.15 -65.2 10.1 -63.25 L11.85 -55.8" fill="#000000" fill-rule="evenodd" stroke="none"/>
    <path d="M5.0 69.0 L5.0 72.0 -5.0 72.0 -5.0 69.0 5.0 69.0" fill="url(#gradient0)" fill-rule="evenodd" stroke="none"/>
    <path d="M8.5 -13.0 L-8.5 -13.0 -8.5 -16.0 8.5 -16.0 8.5 -13.0" fill="url(#gradient1)" fill-rule="evenodd" stroke="none"/>
    <path d="M-5.0 69.0 L-7.0 69.0 -7.0 61.0 7.0 60.6 7.0 69.0 5.0 69.0 -5.0 69.0" fill="url(#gradient2)" fill-rule="evenodd" stroke="none"/>
    <path d="M7.0 61.0 L7.0 67.0 -4.0 67.0 -4.55 63.5 -7.0 63.4 -7.0 61.0 7.0 61.0" fill="#000000" fill-opacity="0.4" fill-rule="evenodd" stroke="none"/>
    <path d="M-6.45 21.95 L-6.1 42.85 Q-5.65 54.8 -4.45 62.5 L-10.0 62.0 Q-11.3 49.75 -9.0 36.0 -8.65 34.1 -8.15 28.35 L-7.65 21.95 -6.45 21.95" fill="url(#gradient3)" fill-rule="evenodd" stroke="none"/>
    <path d="M-7.95 24.5 L-7.95 23.5 -7.95 23.8 -7.95 24.5" fill="url(#gradient4)" fill-rule="evenodd" stroke="none"/>
    <path d="M10.0 -16.0 L-10.0 -16.0 -9.0 -26.0 9.0 -26.0 10.0 -16.0" fill="url(#gradient5)" fill-rule="evenodd" stroke="none"/>
    <path d="M10.0 -7.0 Q8.45 2.0 8.05 14.45 7.6 27.95 9.0 36.0 10.2 43.15 10.45 48.15 10.7 53.6 10.0 60.0 L9.0 66.0 -3.85 66.0 -4.8 60.0 -4.85 59.9 -4.95 59.9 -5.0 59.9 Q-6.05 53.45 -6.95 42.55 -7.95 29.9 -7.85 23.3 L-7.95 20.8 -8.05 14.45 Q-8.45 2.0 -10.0 -7.0 L10.0 -7.0" fill="url(#gradient6)" fill-rule="evenodd" stroke="none"/>
    <path d="M-10.0 -7.0 L-10.0 -13.0 10.0 -13.0 10.0 -7.0 -10.0 -7.0" fill="url(#gradient7)" fill-rule="evenodd" stroke="none"/>
    <path d="M9.85 61.0 L-4.8 61.0 -4.95 60.0 10.0 60.0 9.85 61.0" fill="url(#gradient8)" fill-rule="evenodd" stroke="none"/>
    <path d="M-7.8 24.7 Q-7.45 43.2 -4.85 59.9 L-4.4 62.5 -4.65 62.5 -5.1 60.0 Q-7.55 43.85 -8.0 26.9 L-7.8 24.7" fill="url(#gradient9)" fill-rule="evenodd" stroke="none"/>
    <path d="M6.8 49.0 L6.8 50.0 5.8 50.0 5.8 49.0 6.8 49.0" fill="url(#gradient10)" fill-rule="evenodd" stroke="none"/>
    <path d="M5.3 27.0 L4.3 27.0 4.3 26.0 5.3 26.0 5.3 27.0" fill="#393939" fill-rule="evenodd" stroke="none"/>
    <path d="M7.9 22.2 L5.1 23.15 7.25 52.95 10.5 53.1 10.5 53.35 7.1 53.2 7.05 53.15 7.0 53.05 4.85 23.05 4.85 23.0 4.9 22.95 7.95 21.9 7.9 22.2" fill="#393939" fill-rule="evenodd" stroke="none"/>
    <path d="M4.0 -5.0 L0.0 -5.0 -4.0 -5.0 -4.0 -3.0 -4.7 -3.0 -5.0 -5.0 -9.7 -5.0 -10.0 -7.0 0.0 -7.0 10.0 -7.0 9.7 -5.0 5.0 -5.0 4.7 -3.0 4.0 -3.0 4.0 -5.0" fill="url(#gradient11)" fill-rule="evenodd" stroke="none"/>
    <path d="M9.55 -19.85 L3.9 -19.85 3.8 -19.9 3.75 -20.0 3.75 -20.85 -0.1 -20.85 -0.15 -20.85 -3.85 -20.85 -3.85 -20.0 -3.9 -19.9 -4.0 -19.85 -9.6 -19.85 -9.6 -20.1 -4.1 -20.1 -4.1 -21.0 -4.1 -21.1 -4.0 -21.1 0.0 -21.1 0.1 -21.1 3.9 -21.1 4.0 -21.1 4.0 -21.0 4.0 -20.1 9.55 -20.1 9.55 -19.85" fill="url(#gradient12)" fill-rule="evenodd" stroke="none"/>
    <path d="M-14.0 -47.0 L-12.5 -49.7 Q-11.1 -51.85 -10.45 -54.8 L-8.55 -54.95 -7.05 -54.2 -7.45 -46.1 Q-11.55 -47.65 -14.0 -47.0" fill="url(#gradient13)" fill-rule="evenodd" stroke="none"/>
    <path d="M-7.45 -46.1 L-9.0 -39.0 -14.0 -39.0 -14.0 -47.0 Q-11.55 -47.65 -7.45 -46.1" fill="url(#gradient14)" fill-rule="evenodd" stroke="none"/>
    <path d="M8.65 -59.05 L10.0 -53.0 Q9.45 -53.75 7.75 -54.15 L5.1 -54.55 5.0 -60.0 Q7.6 -60.25 8.65 -59.05" fill="url(#gradient15)" fill-rule="evenodd" stroke="none"/>
    <path d="M5.0 -60.0 L4.85 -63.55 Q6.55 -64.55 7.45 -63.15 7.95 -62.3 8.65 -59.05 7.6 -60.25 5.0 -60.0" fill="url(#gradient16)" fill-rule="evenodd" stroke="none"/>
    <path d="M10.0 -53.0 L11.0 -47.0 5.0 -47.0 5.1 -54.55 7.75 -54.15 Q9.45 -53.75 10.0 -53.0" fill="url(#gradient17)" fill-rule="evenodd" stroke="none"/>
    <path d="M1.55 -62.15 L1.0 -67.0 Q3.1 -68.4 4.2 -66.2 4.85 -64.9 5.45 -61.1 3.9 -62.4 1.55 -62.15" fill="url(#gradient18)" fill-rule="evenodd" stroke="none"/>
    <path d="M5.45 -61.1 L6.4 -54.75 Q5.95 -55.5 4.55 -55.85 L2.0 -56.0 1.55 -62.15 Q3.9 -62.4 5.45 -61.1" fill="url(#gradient19)" fill-rule="evenodd" stroke="none"/>
    <path d="M6.4 -54.75 L7.0 -48.1 2.0 -48.0 2.0 -56.0 4.55 -55.85 Q5.95 -55.5 6.4 -54.75" fill="url(#gradient20)" fill-rule="evenodd" stroke="none"/>
    <path d="M-2.65 -61.9 Q-5.65 -62.0 -7.0 -61.0 -6.3 -64.25 -5.65 -65.15 -4.65 -66.65 -2.5 -65.7 L-2.65 -61.9" fill="url(#gradient21)" fill-rule="evenodd" stroke="none"/>
    <path d="M-7.0 -61.0 Q-5.65 -62.0 -2.65 -61.9 L-2.9 -55.9 Q-6.0 -56.05 -8.0 -55.0 L-7.0 -61.0" fill="url(#gradient22)" fill-rule="evenodd" stroke="none"/>
    <path d="M-8.0 -55.0 Q-6.0 -56.05 -2.9 -55.9 L-3.0 -48.0 -9.0 -48.0 -8.0 -55.0" fill="url(#gradient23)" fill-rule="evenodd" stroke="none"/>
    <path d="M-2.85 -63.6 L-2.55 -67.65 Q-2.2 -69.35 -0.55 -69.3 0.95 -69.35 1.25 -67.75 L1.65 -63.55 Q-0.85 -64.7 -2.85 -63.6" fill="url(#gradient24)" fill-rule="evenodd" stroke="none"/>
    <path d="M2.0 -57.5 L2.35 -50.45 -3.55 -50.4 -3.25 -57.45 Q-0.6 -58.95 2.0 -57.5" fill="url(#gradient25)" fill-rule="evenodd" stroke="none"/>
    <path d="M-3.25 -57.45 L-2.85 -63.6 Q-0.85 -64.7 1.65 -63.55 L2.0 -57.5 Q-0.6 -58.95 -3.25 -57.45" fill="url(#gradient26)" fill-rule="evenodd" stroke="none"/>
    <path d="M6.0 -29.0 L-4.4 -34.2 -6.0 -29.0 Q-12.1 -33.3 -14.0 -39.0 L-10.0 -43.0 -9.0 -49.0 Q-3.75 -51.6 1.05 -51.1 5.8 -50.6 11.0 -47.0 11.05 -40.25 9.55 -35.3 8.2 -30.85 6.0 -29.0" fill="url(#gradient27)" fill-rule="evenodd" stroke="none"/>
    <path d="M2.1 -34.1 Q1.2 -35.0 0.0 -35.0 -1.2 -35.0 -2.1 -34.15 L-2.15 -34.1 Q-3.0 -33.2 -3.0 -32.0 -3.0 -30.8 -2.1 -29.9 -1.25 -29.05 -0.05 -29.0 L-6.35 -29.0 Q-7.0 -30.35 -7.0 -32.0 -7.0 -34.85 -5.0 -36.95 L-4.95 -37.0 Q-2.85 -39.0 0.0 -39.0 2.9 -39.0 4.95 -36.95 7.0 -34.85 7.0 -32.0 7.0 -30.35 6.35 -29.0 L0.1 -29.0 Q1.25 -29.05 2.05 -29.9 L2.1 -29.95 Q3.0 -30.8 3.0 -32.0 3.0 -33.25 2.1 -34.1" fill="url(#gradient28)" fill-rule="evenodd" stroke="none"/>
    <path d="M5.0 -31.0 Q5.0 -28.95 3.5 -27.5 2.05 -26.0 0.0 -26.0 -2.05 -26.0 -3.55 -27.5 -5.0 -28.95 -5.0 -31.0 -5.0 -33.05 -3.55 -34.55 -2.05 -36.0 0.0 -36.0 2.05 -36.0 3.5 -34.55 5.0 -33.05 5.0 -31.0" fill="url(#gradient29)" fill-rule="evenodd" stroke="none"/>
    <path d="M0.5 -34.0 L-0.5 -34.0 -0.5 -36.0 0.5 -36.0 0.5 -34.0" fill="#393939" fill-rule="evenodd" stroke="none"/>
    <path d="M7.0 -26.0 L0.0 -26.0 -7.0 -26.0 -6.7 -29.0 0.0 -29.0 6.7 -29.0 7.0 -26.0" fill="url(#gradient30)" fill-rule="evenodd" stroke="none"/>
    <path d="M0.95 -47.35 Q0.35 -46.6 -0.5 -46.6 -1.35 -46.6 -2.0 -47.35 -2.6 -48.1 -2.6 -49.15 -2.6 -50.2 -2.0 -50.95 -1.35 -51.7 -0.5 -51.7 0.35 -51.7 0.95 -50.95 1.6 -50.2 1.6 -49.15 1.6 -48.1 0.95 -47.35" fill="url(#gradient31)" fill-rule="evenodd" stroke="none"/>
    <path d="M-4.8 -49.95 Q-4.2 -49.25 -4.2 -48.3 -4.2 -47.35 -4.8 -46.7 -5.35 -46.0 -6.1 -46.0 -6.85 -46.0 -7.45 -46.7 -8.0 -47.35 -8.0 -48.3 -8.0 -49.25 -7.45 -49.95 -6.85 -50.6 -6.1 -50.6 -5.35 -50.6 -4.8 -49.95" fill="url(#gradient32)" fill-rule="evenodd" stroke="none"/>
    <path d="M5.95 -50.15 Q6.55 -49.45 6.55 -48.5 6.55 -47.55 5.95 -46.9 5.4 -46.2 4.65 -46.2 3.9 -46.2 3.3 -46.9 2.75 -47.55 2.75 -48.5 2.75 -49.45 3.3 -50.15 3.9 -50.8 4.65 -50.8 5.4 -50.8 5.95 -50.15" fill="url(#gradient33)" fill-rule="evenodd" stroke="none"/>
    <path d="M8.95 -49.2 Q9.6 -49.2 10.1 -48.6 10.6 -48.0 10.6 -47.15 10.6 -46.35 10.1 -45.75 9.6 -45.15 8.95 -45.15 8.3 -45.15 7.75 -45.75 7.3 -46.35 7.3 -47.15 7.3 -48.0 7.75 -48.6 8.3 -49.2 8.95 -49.2" fill="url(#gradient34)" fill-rule="evenodd" stroke="none"/>
  </g>
  <defs>
    <linearGradient gradientTransform="matrix(0.0061, 0.0, 0.0, 0.0018, 0.0, 70.5)" gradientUnits="userSpaceOnUse" id="gradient0" spreadMethod="pad" x1="-819.2" x2="819.2">
      <stop offset="0.0" stop-color="#3c3c3c"/>
      <stop offset="0.47058823529411764" stop-color="#6a6a6a"/>
      <stop offset="1.0" stop-color="#383838"/>
    </linearGradient>
    <linearGradient gradientTransform="matrix(0.0104, 0.0, 0.0, 0.0018, 0.0, -14.5)" gradientUnits="userSpaceOnUse" id="gradient1" spreadMethod="pad" x1="-819.2" x2="819.2">
      <stop offset="0.0" stop-color="#2e2e2e"/>
      <stop offset="0.49411764705882355" stop-color="#6a6a6a"/>
      <stop offset="1.0" stop-color="#353535"/>
    </linearGradient>
    <linearGradient gradientTransform="matrix(0.0085, 0.0, 0.0, 0.0049, 0.0, 65.0)" gradientUnits="userSpaceOnUse" id="gradient2" spreadMethod="pad" x1="-819.2" x2="819.2">
      <stop offset="0.0" stop-color="#645946"/>
      <stop offset="0.43137254901960786" stop-color="#ac9f68"/>
      <stop offset="0.5647058823529412" stop-color="#ac9f68"/>
      <stop offset="1.0" stop-color="#645946"/>
    </linearGradient>
    <radialGradient cx="0" cy="0" gradientTransform="matrix(0.0079, -3.0E-4, 0.0015, 0.0437, -4.45, 61.25)" gradientUnits="userSpaceOnUse" id="gradient3" r="819.2" spreadMethod="pad">
      <stop offset="0.19607843137254902" stop-color="#9b9b9b"/>
      <stop offset="0.3411764705882353" stop-color="#8a8a8a"/>
      <stop offset="0.6862745098039216" stop-color="#5b5b5b"/>
      <stop offset="0.8823529411764706" stop-color="#666666"/>
    </radialGradient>
    <linearGradient gradientTransform="matrix(0.0128, 0.0, 0.0, 0.0427, 0.0, 28.0)" gradientUnits="userSpaceOnUse" id="gradient4" spreadMethod="pad" x1="-819.2" x2="819.2">
      <stop offset="0.0" stop-color="#8d8d8d"/>
      <stop offset="0.49411764705882355" stop-color="#cdcdcd"/>
      <stop offset="1.0" stop-color="#9b9b9b"/>
    </linearGradient>
    <linearGradient gradientTransform="matrix(0.0122, 0.0, 0.0, 0.0061, 0.0, -21.0)" gradientUnits="userSpaceOnUse" id="gradient5" spreadMethod="pad" x1="-819.2" x2="819.2">
      <stop offset="0.0" stop-color="#4e4e4e"/>
      <stop offset="0.396078431372549" stop-color="#8d8d8d"/>
      <stop offset="0.6" stop-color="#8d8d8d"/>
      <stop offset="1.0" stop-color="#555555"/>
    </linearGradient>
    <linearGradient gradientTransform="matrix(0.0128, 0.0, 0.0, 0.0427, 0.0, 28.0)" gradientUnits="userSpaceOnUse" id="gradient6" spreadMethod="pad" x1="-819.2" x2="819.2">
      <stop offset="0.0" stop-color="#515151"/>
      <stop offset="0.49411764705882355" stop-color="#919191"/>
      <stop offset="1.0" stop-color="#515151"/>
    </linearGradient>
    <linearGradient gradientTransform="matrix(0.0122, 0.0, 0.0, 0.0037, 0.0, -10.0)" gradientUnits="userSpaceOnUse" id="gradient7" spreadMethod="pad" x1="-819.2" x2="819.2">
      <stop offset="0.0" stop-color="#4e4e4e"/>
      <stop offset="0.396078431372549" stop-color="#8d8d8d"/>
      <stop offset="0.6" stop-color="#8d8d8d"/>
      <stop offset="1.0" stop-color="#555555"/>
    </linearGradient>
    <linearGradient gradientTransform="matrix(0.0085, 0.0, 0.0, 0.0037, 2.0, 63.0)" gradientUnits="userSpaceOnUse" id="gradient8" spreadMethod="pad" x1="-819.2" x2="819.2">
      <stop offset="0.0" stop-color="#8d8d8d"/>
      <stop offset="0.36470588235294116" stop-color="#bbbbbb"/>
      <stop offset="1.0" stop-color="#838383"/>
    </linearGradient>
    <linearGradient gradientTransform="matrix(-0.0018, -0.0244, 0.0232, -0.0017, -6.35, 41.0)" gradientUnits="userSpaceOnUse" id="gradient9" spreadMethod="pad" x1="-819.2" x2="819.2">
      <stop offset="0.0" stop-color="#9a948f"/>
      <stop offset="0.9921568627450981" stop-color="#4e4e4e"/>
    </linearGradient>
    <linearGradient gradientTransform="matrix(6.0E-4, 0.0, 0.0, 6.0E-4, 6.3, 49.5)" gradientUnits="userSpaceOnUse" id="gradient10" spreadMethod="pad" x1="-819.2" x2="819.2">
      <stop offset="0.0" stop-color="#3c3c3c"/>
      <stop offset="1.0" stop-color="#383838"/>
    </linearGradient>
    <linearGradient gradientTransform="matrix(0.0122, 0.0, 0.0, 0.0024, 0.0, -5.0)" gradientUnits="userSpaceOnUse" id="gradient11" spreadMethod="pad" x1="-819.2" x2="819.2">
      <stop offset="0.0" stop-color="#5b0606"/>
      <stop offset="0.13333333333333333" stop-color="#990e0e"/>
      <stop offset="0.4980392156862745" stop-color="#ee4848"/>
      <stop offset="0.8588235294117647" stop-color="#9a1010"/>
      <stop offset="1.0" stop-color="#640606"/>
    </linearGradient>
    <linearGradient gradientTransform="matrix(0.0117, 0.0, 0.0, 8.0E-4, -0.05, -20.5)" gradientUnits="userSpaceOnUse" id="gradient12" spreadMethod="pad" x1="-819.2" x2="819.2">
      <stop offset="0.0" stop-color="#920a0a"/>
      <stop offset="0.4980392156862745" stop-color="#ee4848"/>
      <stop offset="1.0" stop-color="#920a0a"/>
    </linearGradient>
    <linearGradient gradientTransform="matrix(0.0047, 0.0018, -0.0015, 0.004, -10.5, -50.55)" gradientUnits="userSpaceOnUse" id="gradient13" spreadMethod="pad" x1="-819.2" x2="819.2">
      <stop offset="0.0" stop-color="#6a6a6a"/>
      <stop offset="0.5607843137254902" stop-color="#9f9f9f"/>
      <stop offset="1.0" stop-color="#6a6a6a"/>
    </linearGradient>
    <linearGradient gradientTransform="matrix(0.0031, 0.0, 0.0, 0.0056, -11.5, -43.6)" gradientUnits="userSpaceOnUse" id="gradient14" spreadMethod="pad" x1="-819.2" x2="819.2">
      <stop offset="0.0" stop-color="#515151"/>
      <stop offset="0.49411764705882355" stop-color="#7b7b7b"/>
      <stop offset="0.9921568627450981" stop-color="#606060"/>
    </linearGradient>
    <linearGradient gradientTransform="matrix(0.003, -5.0E-4, 7.0E-4, 0.0042, 7.5, -56.5)" gradientUnits="userSpaceOnUse" id="gradient15" spreadMethod="pad" x1="-819.2" x2="819.2">
      <stop offset="0.0" stop-color="#515151"/>
      <stop offset="0.49411764705882355" stop-color="#7b7b7b"/>
      <stop offset="0.9921568627450981" stop-color="#606060"/>
    </linearGradient>
    <linearGradient gradientTransform="matrix(0.0024, -5.0E-4, 0.0011, 0.0054, 6.45, -59.45)" gradientUnits="userSpaceOnUse" id="gradient16" spreadMethod="pad" x1="-819.2" x2="819.2">
      <stop offset="0.0" stop-color="#5b5b5b"/>
      <stop offset="0.6078431372549019" stop-color="#b8b8b8"/>
      <stop offset="1.0" stop-color="#9b9b9b"/>
    </linearGradient>
    <linearGradient gradientTransform="matrix(0.0036, -6.0E-4, 7.0E-4, 0.0042, 8.0, -50.5)" gradientUnits="userSpaceOnUse" id="gradient17" spreadMethod="pad" x1="-819.2" x2="819.2">
      <stop offset="0.0" stop-color="#515151"/>
      <stop offset="0.5058823529411764" stop-color="#7b7b7b"/>
      <stop offset="1.0" stop-color="#515151"/>
    </linearGradient>
    <linearGradient gradientTransform="matrix(0.0024, -3.0E-4, 5.0E-4, 0.0049, 3.4, -62.95)" gradientUnits="userSpaceOnUse" id="gradient18" spreadMethod="pad" x1="-819.2" x2="819.2">
      <stop offset="0.0" stop-color="#838383"/>
      <stop offset="0.49411764705882355" stop-color="#a3a3a3"/>
      <stop offset="1.0" stop-color="#9b9b9b"/>
    </linearGradient>
    <linearGradient gradientTransform="matrix(0.0036, -4.0E-4, 6.0E-4, 0.0049, 4.1, -58.0)" gradientUnits="userSpaceOnUse" id="gradient19" spreadMethod="pad" x1="-819.2" x2="819.2">
      <stop offset="0.0" stop-color="#515151"/>
      <stop offset="0.49411764705882355" stop-color="#7b7b7b"/>
      <stop offset="0.9921568627450981" stop-color="#606060"/>
    </linearGradient>
    <linearGradient gradientTransform="matrix(0.0041, -4.0E-4, 5.0E-4, 0.0049, 4.75, -52.15)" gradientUnits="userSpaceOnUse" id="gradient20" spreadMethod="pad" x1="-819.2" x2="819.2">
      <stop offset="0.0" stop-color="#515151"/>
      <stop offset="0.5058823529411764" stop-color="#7b7b7b"/>
      <stop offset="1.0" stop-color="#515151"/>
    </linearGradient>
    <linearGradient gradientTransform="matrix(0.0024, 6.0E-4, -0.0011, 0.0047, -5.0, -63.0)" gradientUnits="userSpaceOnUse" id="gradient21" spreadMethod="pad" x1="-819.2" x2="819.2">
      <stop offset="0.0" stop-color="#6a6a6a"/>
      <stop offset="0.5843137254901961" stop-color="#989898"/>
      <stop offset="1.0" stop-color="#9b9b9b"/>
    </linearGradient>
    <linearGradient gradientTransform="matrix(0.003, 4.0E-4, -6.0E-4, 0.0048, -5.5, -58.0)" gradientUnits="userSpaceOnUse" id="gradient22" spreadMethod="pad" x1="-819.2" x2="819.2">
      <stop offset="0.0" stop-color="#515151"/>
      <stop offset="0.49411764705882355" stop-color="#7b7b7b"/>
      <stop offset="0.9921568627450981" stop-color="#606060"/>
    </linearGradient>
    <linearGradient gradientTransform="matrix(0.0036, 4.0E-4, -5.0E-4, 0.0049, -6.0, -52.0)" gradientUnits="userSpaceOnUse" id="gradient23" spreadMethod="pad" x1="-819.2" x2="819.2">
      <stop offset="0.0" stop-color="#515151"/>
      <stop offset="0.5058823529411764" stop-color="#7b7b7b"/>
      <stop offset="1.0" stop-color="#515151"/>
    </linearGradient>
    <linearGradient gradientTransform="matrix(0.0035, 0.0, 0.0, 0.0044, -0.55, -65.6)" gradientUnits="userSpaceOnUse" id="gradient24" spreadMethod="pad" x1="-819.2" x2="819.2">
      <stop offset="0.0" stop-color="#868686"/>
      <stop offset="0.49411764705882355" stop-color="#a6a6a6"/>
      <stop offset="1.0" stop-color="#838383"/>
    </linearGradient>
    <linearGradient gradientTransform="matrix(0.0046, 0.0, 0.0, 0.0033, -0.65, -53.7)" gradientUnits="userSpaceOnUse" id="gradient25" spreadMethod="pad" x1="-819.2" x2="819.2">
      <stop offset="0.0" stop-color="#515151"/>
      <stop offset="0.5215686274509804" stop-color="#7b7b7b"/>
      <stop offset="1.0" stop-color="#636363"/>
    </linearGradient>
    <linearGradient gradientTransform="matrix(0.0044, 0.0, 0.0, 0.0039, -0.75, -59.2)" gradientUnits="userSpaceOnUse" id="gradient26" spreadMethod="pad" x1="-819.2" x2="819.2">
      <stop offset="0.0" stop-color="#606060"/>
      <stop offset="0.5098039215686274" stop-color="#7b7b7b"/>
      <stop offset="0.9921568627450981" stop-color="#606060"/>
    </linearGradient>
    <linearGradient gradientTransform="matrix(0.0167, 0.0, 0.0, 0.0135, -0.1, -40.25)" gradientUnits="userSpaceOnUse" id="gradient27" spreadMethod="pad" x1="-819.2" x2="819.2">
      <stop offset="0.0" stop-color="#2e2e2e"/>
      <stop offset="0.49411764705882355" stop-color="#6a6a6a"/>
      <stop offset="0.9137254901960784" stop-color="#353535"/>
    </linearGradient>
    <radialGradient cx="0" cy="0" gradientTransform="matrix(0.0108, 0.0, 0.0, 0.0122, 0.0, -38.45)" gradientUnits="userSpaceOnUse" id="gradient28" r="819.2" spreadMethod="pad">
      <stop offset="0.08235294117647059" stop-color="#a3a3a3"/>
      <stop offset="0.7607843137254902" stop-color="#636363"/>
      <stop offset="1.0" stop-color="#555555"/>
    </radialGradient>
    <radialGradient cx="0" cy="0" gradientTransform="matrix(0.0079, 0.0, 0.0, 0.0079, 0.45, -32.5)" gradientUnits="userSpaceOnUse" id="gradient29" r="819.2" spreadMethod="pad">
      <stop offset="0.07450980392156863" stop-color="#efde8f"/>
      <stop offset="0.16470588235294117" stop-color="#c4b382"/>
      <stop offset="0.4588235294117647" stop-color="#ac9f68"/>
      <stop offset="0.6470588235294118" stop-color="#837652"/>
      <stop offset="0.8784313725490196" stop-color="#564e3f"/>
      <stop offset="1.0" stop-color="#6d6d6d"/>
    </radialGradient>
    <linearGradient gradientTransform="matrix(0.0085, 0.0, 0.0, 0.0018, 0.0, -27.5)" gradientUnits="userSpaceOnUse" id="gradient30" spreadMethod="pad" x1="-819.2" x2="819.2">
      <stop offset="0.0" stop-color="#2e2e2e"/>
      <stop offset="0.40784313725490196" stop-color="#717171"/>
      <stop offset="0.592156862745098" stop-color="#717171"/>
      <stop offset="1.0" stop-color="#353535"/>
    </linearGradient>
    <radialGradient cx="0" cy="0" gradientTransform="matrix(0.0029, 0.0, 0.0, 0.004, -0.55, -51.2)" gradientUnits="userSpaceOnUse" id="gradient31" r="819.2" spreadMethod="pad">
      <stop offset="0.0" stop-color="#a3a3a3"/>
      <stop offset="0.4980392156862745" stop-color="#959595"/>
      <stop offset="1.0" stop-color="#6d6d6d"/>
    </radialGradient>
    <radialGradient cx="0" cy="0" gradientTransform="matrix(0.0027, 0.0, 0.0, 0.0036, -6.15, -50.15)" gradientUnits="userSpaceOnUse" id="gradient32" r="819.2" spreadMethod="pad">
      <stop offset="0.0" stop-color="#a3a3a3"/>
      <stop offset="0.4980392156862745" stop-color="#959595"/>
      <stop offset="1.0" stop-color="#6d6d6d"/>
    </radialGradient>
    <radialGradient cx="0" cy="0" gradientTransform="matrix(0.0027, 0.0, 0.0, 0.0036, 4.6, -50.35)" gradientUnits="userSpaceOnUse" id="gradient33" r="819.2" spreadMethod="pad">
      <stop offset="0.0" stop-color="#a3a3a3"/>
      <stop offset="0.4980392156862745" stop-color="#959595"/>
      <stop offset="1.0" stop-color="#6d6d6d"/>
    </radialGradient>
    <radialGradient cx="0" cy="0" gradientTransform="matrix(0.0023, 0.0, 0.0, 0.0032, 8.9, -48.8)" gradientUnits="userSpaceOnUse" id="gradient34" r="819.2" spreadMethod="pad">
      <stop offset="0.0" stop-color="#a3a3a3"/>
      <stop offset="0.4980392156862745" stop-color="#959595"/>
      <stop offset="1.0" stop-color="#6d6d6d"/>
    </radialGradient>
  </defs>
</svg>
