<?xml version="1.0" encoding="UTF-8" standalone="no"?>
<svg xmlns:xlink="http://www.w3.org/1999/xlink" height="16.05px" width="1151.85px" xmlns="http://www.w3.org/2000/svg">
  <g transform="matrix(1.0, 0.0, 0.0, 1.0, 575.85, 8.05)">
    <path d="M24.0 -8.0 L32.0 0.0 24.05 7.95 16.05 -0.05 24.0 -8.0 M39.95 -8.0 L47.95 0.0 40.0 7.95 32.0 -0.05 39.95 -8.0 M8.0 -8.0 L16.0 0.0 8.05 7.95 0.05 -0.05 8.0 -8.0 M55.95 -8.0 L63.95 0.0 56.0 7.95 48.0 -0.05 55.95 -8.0 M80.0 -0.05 L72.05 7.9 64.05 -0.1 72.0 -8.05 80.0 -0.05 M119.95 -8.05 L127.95 -0.05 120.0 7.9 112.0 -0.1 119.95 -8.05 M111.95 -0.05 L104.0 7.9 96.0 -0.1 103.95 -8.05 111.95 -0.05 M96.0 -0.05 L88.05 7.9 80.05 -0.1 88.0 -8.05 96.0 -0.05 M144.0 -0.05 L136.05 7.9 128.05 -0.1 136.0 -8.05 144.0 -0.05 M160.0 -0.05 L152.05 7.9 144.05 -0.1 152.0 -8.05 160.0 -0.05 M191.95 -0.05 L184.0 7.9 176.0 -0.1 183.95 -8.05 191.95 -0.05 M175.95 -0.05 L168.0 7.9 160.0 -0.1 167.95 -8.05 175.95 -0.05 M200.1 -8.0 L208.1 0.0 200.15 7.95 192.15 -0.05 200.1 -8.0 M216.1 -8.0 L224.1 0.0 216.15 7.95 208.15 -0.05 216.1 -8.0 M232.05 -8.0 L240.05 0.0 232.1 7.95 224.1 -0.05 232.05 -8.0 M280.1 -8.0 L288.1 0.0 280.15 7.95 272.15 -0.05 280.1 -8.0 M264.1 -8.0 L272.1 0.0 264.15 7.95 256.15 -0.05 264.1 -8.0 M296.05 -8.0 L304.05 0.0 296.1 7.95 288.1 -0.05 296.05 -8.0 M312.05 -8.0 L320.05 0.0 312.1 7.95 304.1 -0.05 312.05 -8.0 M248.05 -8.0 L256.05 0.0 248.1 7.95 240.1 -0.05 248.05 -8.0 M456.05 -8.0 L464.05 0.0 456.1 7.95 448.1 -0.05 456.05 -8.0 M472.05 -8.0 L480.05 0.0 472.1 7.95 464.1 -0.05 472.05 -8.0 M504.0 -8.0 L512.0 0.0 504.05 7.95 496.05 -0.05 504.0 -8.0 M520.05 -8.0 L528.05 0.0 520.1 7.95 512.1 -0.05 520.05 -8.0 M536.05 -8.0 L544.05 0.0 536.1 7.95 528.1 -0.05 536.05 -8.0 M552.0 -8.0 L560.0 0.0 552.05 7.95 544.05 -0.05 552.0 -8.0 M568.0 -8.0 L576.0 0.0 568.05 7.95 560.05 -0.05 568.0 -8.0 M488.0 -8.0 L496.0 0.0 488.05 7.95 480.05 -0.05 488.0 -8.0 M408.1 8.0 L400.1 0.0 408.05 -7.95 416.05 0.05 408.1 8.0 M432.05 0.0 L440.0 -7.95 448.0 0.05 440.05 8.0 432.05 0.0 M416.05 0.0 L424.0 -7.95 432.0 0.05 424.05 8.0 416.05 0.0 M384.1 0.0 L392.05 -7.95 400.05 0.05 392.1 8.0 384.1 0.0 M368.05 0.0 L376.0 -7.95 384.0 0.05 376.05 8.0 368.05 0.0 M328.1 8.0 L320.1 0.0 328.05 -7.95 336.05 0.05 328.1 8.0 M336.1 0.0 L344.05 -7.95 352.05 0.05 344.1 8.0 336.1 0.0 M352.05 0.0 L360.0 -7.95 368.0 0.05 360.05 8.0 352.05 0.0 M-567.9 -8.0 L-559.9 0.0 -567.85 7.95 -575.85 -0.05 -567.9 -8.0 M-551.9 -8.0 L-543.9 0.0 -551.85 7.95 -559.85 -0.05 -551.9 -8.0 M-535.95 -8.0 L-527.95 0.0 -535.9 7.95 -543.9 -0.05 -535.95 -8.0 M-487.9 -8.0 L-479.9 0.0 -487.85 7.95 -495.85 -0.05 -487.9 -8.0 M-503.9 -8.0 L-495.9 0.0 -503.85 7.95 -511.85 -0.05 -503.9 -8.0 M-519.95 -8.0 L-511.95 0.0 -519.9 7.95 -527.9 -0.05 -519.95 -8.0 M-471.95 -8.0 L-463.95 0.0 -471.9 7.95 -479.9 -0.05 -471.95 -8.0 M-455.95 -8.0 L-447.95 0.0 -455.9 7.95 -463.9 -0.05 -455.95 -8.0 M-311.95 -8.0 L-303.95 0.0 -311.9 7.95 -319.9 -0.05 -311.95 -8.0 M-295.95 -8.0 L-287.95 0.0 -295.9 7.95 -303.9 -0.05 -295.95 -8.0 M-264.0 -8.0 L-256.0 0.0 -263.95 7.95 -271.95 -0.05 -264.0 -8.0 M-247.95 -8.0 L-239.95 0.0 -247.9 7.95 -255.9 -0.05 -247.95 -8.0 M-280.0 -8.0 L-272.0 0.0 -279.95 7.95 -287.95 -0.05 -280.0 -8.0 M-231.95 -8.0 L-223.95 0.0 -231.9 7.95 -239.9 -0.05 -231.95 -8.0 M-216.0 -8.0 L-208.0 0.0 -215.95 7.95 -223.95 -0.05 -216.0 -8.0 M-167.95 -8.05 L-159.95 -0.05 -167.9 7.9 -175.9 -0.1 -167.95 -8.05 M-175.95 -0.05 L-183.9 7.9 -191.9 -0.1 -183.95 -8.05 -175.95 -0.05 M-200.0 -8.0 L-192.0 0.0 -199.95 7.95 -207.95 -0.05 -200.0 -8.0 M-144.0 -0.05 L-151.95 7.9 -159.95 -0.1 -152.0 -8.05 -144.0 -0.05 M-128.0 -0.05 L-135.95 7.9 -143.95 -0.1 -136.0 -8.05 -128.0 -0.05 M-88.0 -8.05 L-80.0 -0.05 -87.95 7.9 -95.95 -0.1 -88.0 -8.05 M-95.95 -0.05 L-103.9 7.9 -111.9 -0.1 -103.95 -8.05 -95.95 -0.05 M-111.95 -0.05 L-119.9 7.9 -127.9 -0.1 -119.95 -8.05 -111.95 -0.05 M-56.0 -8.0 L-48.0 0.0 -55.95 7.95 -63.95 -0.05 -56.0 -8.0 M-64.0 -0.05 L-71.95 7.9 -79.95 -0.1 -72.0 -8.05 -64.0 -0.05 M-24.05 -8.0 L-16.05 0.0 -24.0 7.95 -32.0 -0.05 -24.05 -8.0 M-8.05 -8.0 L-0.05 0.0 -8.0 7.95 -16.0 -0.05 -8.05 -8.0 M-40.0 -8.0 L-32.0 0.0 -39.95 7.95 -47.95 -0.05 -40.0 -8.0 M-359.9 8.0 L-367.9 0.0 -359.95 -7.95 -351.95 0.05 -359.9 8.0 M-335.95 0.0 L-328.0 -7.95 -320.0 0.05 -327.95 8.0 -335.95 0.0 M-351.95 0.0 L-344.0 -7.95 -336.0 0.05 -343.95 8.0 -351.95 0.0 M-383.9 0.0 L-375.95 -7.95 -367.95 0.05 -375.9 8.0 -383.9 0.0 M-399.95 0.0 L-392.0 -7.95 -384.0 0.05 -391.95 8.0 -399.95 0.0 M-439.9 8.0 L-447.9 0.0 -439.95 -7.95 -431.95 0.05 -439.9 8.0 M-431.9 0.0 L-423.95 -7.95 -415.95 0.05 -423.9 8.0 -431.9 0.0 M-415.95 0.0 L-408.0 -7.95 -400.0 0.05 -407.95 8.0 -415.95 0.0" fill="#ffffff" fill-rule="evenodd" stroke="none"/>
  </g>
</svg>
