<?xml version="1.0" encoding="UTF-8" standalone="no"?>
<svg xmlns:xlink="http://www.w3.org/1999/xlink" height="116.0px" width="51.0px" xmlns="http://www.w3.org/2000/svg">
  <g transform="matrix(1.0, 0.0, 0.0, 1.0, 25.5, 58.5)">
    <path d="M18.05 -51.05 Q25.5 -43.6 25.5 -33.0 L25.5 55.0 Q25.5 56.05 24.8 56.8 24.05 57.5 23.0 57.5 L-23.0 57.5 Q-24.05 57.5 -24.75 56.8 -25.5 56.05 -25.5 55.0 L-25.5 -33.0 Q-25.5 -43.6 -18.05 -51.05 -10.6 -58.5 0.0 -58.5 10.6 -58.5 18.05 -51.05 M2.0 -4.0 L2.0 -6.0 -2.0 -6.0 -2.0 -4.0 -23.0 -4.0 -23.0 55.0 23.0 55.0 23.0 -4.0 2.0 -4.0" fill="#000000" fill-rule="evenodd" stroke="none"/>
    <path d="M23.0 -4.0 L2.0 -4.0 2.0 -6.0 -2.0 -6.0 -2.0 -4.0 -23.0 -4.0 -23.0 -33.0 Q-23.0 -42.55 -16.3 -49.3 -9.55 -56.0 0.0 -56.0 9.55 -56.0 16.25 -49.3 23.0 -42.55 23.0 -33.0 L23.0 -4.0" fill="url(#gradient0)" fill-rule="evenodd" stroke="none"/>
    <path d="M-23.0 -4.0 L-2.0 -4.0 -2.0 -6.0 2.0 -6.0 2.0 -4.0 23.0 -4.0 23.0 55.0 -23.0 55.0 -23.0 -4.0" fill="url(#gradient1)" fill-rule="evenodd" stroke="none"/>
    <path d="M2.0 -6.0 L-2.0 -6.0 -2.0 -8.0 2.0 -8.0 2.0 -6.0 M20.0 -10.0 Q20.0 -9.15 19.4 -8.6 18.85 -8.0 18.0 -8.0 17.15 -8.0 16.55 -8.6 16.0 -9.15 16.0 -10.0 16.0 -10.85 16.55 -11.45 17.15 -12.0 18.0 -12.0 18.85 -12.0 19.4 -11.45 20.0 -10.85 20.0 -10.0 M-16.0 -10.0 Q-16.0 -9.15 -16.6 -8.6 -17.15 -8.0 -18.0 -8.0 -18.85 -8.0 -19.45 -8.6 -20.0 -9.15 -20.0 -10.0 -20.0 -10.85 -19.45 -11.45 -18.85 -12.0 -18.0 -12.0 -17.15 -12.0 -16.6 -11.45 -16.0 -10.85 -16.0 -10.0" fill="#000000" fill-rule="evenodd" stroke="none"/>
    <path d="M20.0 -10.0 Q20.0 -10.85 19.4 -11.45 18.85 -12.0 18.0 -12.0 17.15 -12.0 16.55 -11.45 16.0 -10.85 16.0 -10.0 16.0 -9.15 16.55 -8.6 17.15 -8.0 18.0 -8.0 18.85 -8.0 19.4 -8.6 20.0 -9.15 20.0 -10.0 M15.9 -12.15 Q16.75 -13.0 18.0 -13.0 19.3 -13.0 20.1 -12.15 21.0 -11.25 21.0 -10.0 21.0 -8.75 20.15 -7.9 L20.1 -7.85 Q19.25 -7.0 18.0 -7.0 16.75 -7.0 15.85 -7.9 15.0 -8.7 15.0 -10.0 15.0 -11.25 15.85 -12.1 L15.9 -12.15" fill="url(#gradient2)" fill-rule="evenodd" stroke="none"/>
    <path d="M-16.0 -10.0 Q-16.0 -10.85 -16.6 -11.45 -17.15 -12.0 -18.0 -12.0 -18.85 -12.0 -19.45 -11.45 -20.0 -10.85 -20.0 -10.0 -20.0 -9.15 -19.45 -8.6 -18.85 -8.0 -18.0 -8.0 -17.15 -8.0 -16.6 -8.6 -16.0 -9.15 -16.0 -10.0 M-20.1 -12.15 Q-19.25 -13.0 -18.0 -13.0 -16.7 -13.0 -15.9 -12.15 -15.0 -11.25 -15.0 -10.0 -15.0 -8.75 -15.85 -7.9 L-15.9 -7.85 Q-16.75 -7.0 -18.0 -7.0 -19.25 -7.0 -20.15 -7.9 -21.0 -8.7 -21.0 -10.0 -21.0 -11.25 -20.15 -12.1 L-20.1 -12.15" fill="url(#gradient3)" fill-rule="evenodd" stroke="none"/>
    <path d="M11.8 -30.0 L16.9 -30.0 Q16.3 -24.25 12.05 -20.0 7.05 -15.0 0.0 -15.0 -7.05 -15.0 -12.0 -20.0 -16.3 -24.25 -16.9 -30.0 L-11.85 -30.0 Q-11.25 -26.3 -8.5 -23.55 -5.0 -20.0 -0.05 -20.0 4.95 -20.0 8.45 -23.55 11.2 -26.3 11.8 -30.0 M11.8 -34.0 Q11.2 -37.7 8.45 -40.5 4.95 -44.0 -0.05 -44.0 -5.0 -44.0 -8.5 -40.5 -11.25 -37.7 -11.85 -34.0 L-16.9 -34.0 Q-16.3 -39.75 -12.0 -44.05 -7.05 -49.0 0.0 -49.0 7.05 -49.0 12.05 -44.05 16.3 -39.75 16.9 -34.0 L11.8 -34.0" fill="url(#gradient4)" fill-rule="evenodd" stroke="none"/>
    <path d="M1.25 -27.3 Q2.35 -28.05 3.0 -28.05 4.25 -28.05 5.15 -27.45 L5.85 -26.75 8.35 -29.9 7.9 -28.65 7.15 -27.35 5.8 -25.5 Q4.55 -24.1 3.0 -24.05 1.75 -24.05 0.9 -24.6 -0.15 -25.3 0.0 -26.05 0.1 -26.55 1.25 -27.3 M5.85 -31.75 L8.35 -34.9 7.9 -33.65 7.15 -32.35 5.8 -30.5 Q4.55 -29.1 3.0 -29.05 1.75 -29.05 0.9 -29.6 -0.15 -30.3 0.0 -31.05 0.1 -31.55 1.25 -32.3 2.35 -33.05 3.0 -33.05 4.25 -33.05 5.15 -32.45 L5.85 -31.75" fill="url(#gradient5)" fill-rule="evenodd" stroke="none"/>
    <path d="M-1.25 -32.3 Q-0.1 -31.55 0.0 -31.05 0.15 -30.3 -0.9 -29.6 -1.75 -29.05 -3.0 -29.05 -4.55 -29.1 -5.8 -30.5 L-7.15 -32.35 -7.9 -33.65 -8.35 -34.9 -5.85 -31.75 -5.15 -32.45 Q-4.25 -33.05 -3.0 -33.05 -2.35 -33.05 -1.25 -32.3 M-7.15 -27.35 L-7.9 -28.65 -8.35 -29.9 -5.85 -26.75 -5.15 -27.45 Q-4.25 -28.05 -3.0 -28.05 -2.35 -28.05 -1.25 -27.3 -0.1 -26.55 0.0 -26.05 0.15 -25.3 -0.9 -24.6 -1.75 -24.05 -3.0 -24.05 -4.55 -24.1 -5.8 -25.5 L-7.15 -27.35" fill="url(#gradient6)" fill-rule="evenodd" stroke="none"/>
    <path d="M1.4 -33.9 Q0.85 -33.0 0.0 -33.0 -0.85 -33.0 -1.45 -33.9 -2.0 -34.75 -2.0 -36.0 L-1.55 -37.65 Q-1.1 -38.75 -0.4 -38.9 L-0.25 -41.05 0.0 -42.6 0.3 -41.05 0.4 -38.9 Q1.15 -38.6 1.6 -37.55 L2.0 -36.0 Q2.0 -34.75 1.4 -33.9" fill="url(#gradient7)" fill-rule="evenodd" stroke="none"/>
    <path d="M20.0 -4.0 L20.0 44.0 18.0 44.0 18.0 -4.0 20.0 -4.0 M16.0 -4.0 L16.0 44.0 14.0 44.0 14.0 -4.0 16.0 -4.0 M12.0 -4.0 L12.0 44.0 10.0 44.0 10.0 -4.0 12.0 -4.0 M8.0 -4.0 L8.0 44.0 6.0 44.0 6.0 -4.0 8.0 -4.0 M4.0 -4.0 L4.0 44.0 2.0 44.0 2.0 -4.0 4.0 -4.0 M-18.0 -4.0 L-18.0 44.0 -20.0 44.0 -20.0 -4.0 -18.0 -4.0 M-14.0 -4.0 L-14.0 44.0 -16.0 44.0 -16.0 -4.0 -14.0 -4.0 M-10.0 -4.0 L-10.0 44.0 -12.0 44.0 -12.0 -4.0 -10.0 -4.0 M-6.0 -4.0 L-6.0 44.0 -8.0 44.0 -8.0 -4.0 -6.0 -4.0 M-2.0 -4.0 L-2.0 44.0 -4.0 44.0 -4.0 -4.0 -2.0 -4.0" fill="#bbc7ca" fill-opacity="0.34117648" fill-rule="evenodd" stroke="none"/>
    <path d="M22.0 -4.0 L22.0 54.0 -22.0 54.0 -22.0 -4.0 -2.0 -4.0 -2.0 -6.0 2.0 -6.0 2.0 -4.0 22.0 -4.0" fill="#818f94" fill-opacity="0.4" fill-rule="evenodd" stroke="none"/>
    <path d="M10.0 46.0 L12.0 46.0 12.0 55.0 10.0 55.0 10.0 46.0" fill="url(#gradient8)" fill-rule="evenodd" stroke="none"/>
    <path d="M-20.0 46.0 L-18.0 46.0 -18.0 55.0 -20.0 55.0 -20.0 46.0" fill="url(#gradient9)" fill-rule="evenodd" stroke="none"/>
    <path d="M-8.0 46.0 L-6.0 46.0 -6.0 55.0 -8.0 55.0 -8.0 46.0" fill="url(#gradient10)" fill-rule="evenodd" stroke="none"/>
    <path d="M-16.0 46.0 L-14.0 46.0 -14.0 55.0 -16.0 55.0 -16.0 46.0" fill="url(#gradient11)" fill-rule="evenodd" stroke="none"/>
    <path d="M-12.0 46.0 L-10.0 46.0 -10.0 55.0 -12.0 55.0 -12.0 46.0" fill="url(#gradient12)" fill-rule="evenodd" stroke="none"/>
    <path d="M-4.0 46.0 L-2.0 46.0 -2.0 55.0 -4.0 55.0 -4.0 46.0" fill="url(#gradient13)" fill-rule="evenodd" stroke="none"/>
    <path d="M6.0 46.0 L8.0 46.0 8.0 55.0 6.0 55.0 6.0 46.0" fill="url(#gradient14)" fill-rule="evenodd" stroke="none"/>
    <path d="M2.0 46.0 L4.0 46.0 4.0 55.0 2.0 55.0 2.0 46.0" fill="url(#gradient15)" fill-rule="evenodd" stroke="none"/>
    <path d="M18.0 46.0 L20.0 46.0 20.0 55.0 18.0 55.0 18.0 46.0" fill="url(#gradient16)" fill-rule="evenodd" stroke="none"/>
    <path d="M14.0 46.0 L16.0 46.0 16.0 55.0 14.0 55.0 14.0 46.0" fill="url(#gradient17)" fill-rule="evenodd" stroke="none"/>
    <path d="M2.0 46.0 L2.0 44.0 4.0 44.0 4.0 46.0 2.0 46.0 M10.0 46.0 L10.0 44.0 12.0 44.0 12.0 46.0 10.0 46.0 M6.0 46.0 L6.0 44.0 8.0 44.0 8.0 46.0 6.0 46.0 M14.0 46.0 L14.0 44.0 16.0 44.0 16.0 46.0 14.0 46.0 M18.0 46.0 L18.0 44.0 20.0 44.0 20.0 46.0 18.0 46.0 M-20.0 46.0 L-20.0 44.0 -18.0 44.0 -18.0 46.0 -20.0 46.0 M-16.0 46.0 L-16.0 44.0 -14.0 44.0 -14.0 46.0 -16.0 46.0 M-12.0 46.0 L-12.0 44.0 -10.0 44.0 -10.0 46.0 -12.0 46.0 M-8.0 46.0 L-8.0 44.0 -6.0 44.0 -6.0 46.0 -8.0 46.0 M-4.0 46.0 L-4.0 44.0 -2.0 44.0 -2.0 46.0 -4.0 46.0" fill="#5e6f6f" fill-rule="evenodd" stroke="none"/>
    <path d="M-22.95 -2.0 L-23.0 -4.0 -2.0 -4.0 -1.95 -2.0 -22.95 -2.0 M23.05 -2.0 L2.05 -2.0 2.0 -4.0 23.0 -4.0 23.05 -2.0" fill="#000000" fill-opacity="0.4" fill-rule="evenodd" stroke="none"/>
  </g>
  <defs>
    <linearGradient gradientTransform="matrix(0.0271, -0.0217, 0.0198, 0.0248, -5.75, -31.2)" gradientUnits="userSpaceOnUse" id="gradient0" spreadMethod="pad" x1="-819.2" x2="819.2">
      <stop offset="0.00784313725490196" stop-color="#838383"/>
      <stop offset="1.0" stop-color="#6a6a6a"/>
    </linearGradient>
    <linearGradient gradientTransform="matrix(0.0, -0.0372, 0.0372, 0.0, 0.0, 24.5)" gradientUnits="userSpaceOnUse" id="gradient1" spreadMethod="pad" x1="-819.2" x2="819.2">
      <stop offset="0.0" stop-color="#88a0a2"/>
      <stop offset="0.9882352941176471" stop-color="#abbebd"/>
    </linearGradient>
    <linearGradient gradientTransform="matrix(-0.0029, 0.0022, -0.0022, -0.0029, 18.0, -10.0)" gradientUnits="userSpaceOnUse" id="gradient2" spreadMethod="pad" x1="-819.2" x2="819.2">
      <stop offset="0.0" stop-color="#464646"/>
      <stop offset="0.6549019607843137" stop-color="#666666"/>
      <stop offset="0.8313725490196079" stop-color="#9f9f9f"/>
    </linearGradient>
    <linearGradient gradientTransform="matrix(-0.0021, 0.003, -0.003, -0.0021, -18.0, -10.0)" gradientUnits="userSpaceOnUse" id="gradient3" spreadMethod="pad" x1="-819.2" x2="819.2">
      <stop offset="0.0" stop-color="#464646"/>
      <stop offset="0.6549019607843137" stop-color="#666666"/>
      <stop offset="0.8313725490196079" stop-color="#9f9f9f"/>
    </linearGradient>
    <radialGradient cx="0" cy="0" gradientTransform="matrix(0.0403, 0.0, 0.0, 0.0403, -10.0, -22.0)" gradientUnits="userSpaceOnUse" id="gradient4" r="819.2" spreadMethod="pad">
      <stop offset="0.07450980392156863" stop-color="#c2c2c2"/>
      <stop offset="0.14901960784313725" stop-color="#b8b8b8"/>
      <stop offset="1.0" stop-color="#959595"/>
    </radialGradient>
    <linearGradient gradientTransform="matrix(0.008, -0.0064, 0.0048, 0.006, 12.45, -16.45)" gradientUnits="userSpaceOnUse" id="gradient5" spreadMethod="pad" x1="-819.2" x2="819.2">
      <stop offset="0.0" stop-color="#e6e6e6"/>
      <stop offset="1.0" stop-color="#c2c2c2"/>
    </linearGradient>
    <linearGradient gradientTransform="matrix(0.008, -0.0064, 0.0048, 0.006, 12.45, -16.45)" gradientUnits="userSpaceOnUse" id="gradient6" spreadMethod="pad" x1="-819.2" x2="819.2">
      <stop offset="0.0" stop-color="#e6e6e6"/>
      <stop offset="1.0" stop-color="#c2c2c2"/>
    </linearGradient>
    <linearGradient gradientTransform="matrix(0.008, -0.0064, 0.0048, 0.006, 12.45, -16.45)" gradientUnits="userSpaceOnUse" id="gradient7" spreadMethod="pad" x1="-819.2" x2="819.2">
      <stop offset="0.0" stop-color="#e6e6e6"/>
      <stop offset="1.0" stop-color="#c2c2c2"/>
    </linearGradient>
    <linearGradient gradientTransform="matrix(0.0, -0.0092, 0.0091, 0.0, 12.0, 47.5)" gradientUnits="userSpaceOnUse" id="gradient8" spreadMethod="pad" x1="-819.2" x2="819.2">
      <stop offset="0.0" stop-color="#a8882d"/>
      <stop offset="0.43529411764705883" stop-color="#e0bc16"/>
      <stop offset="0.8274509803921568" stop-color="#ebd936"/>
      <stop offset="1.0" stop-color="#ebd936"/>
    </linearGradient>
    <linearGradient gradientTransform="matrix(0.0, -0.0092, 0.0091, 0.0, -18.0, 47.5)" gradientUnits="userSpaceOnUse" id="gradient9" spreadMethod="pad" x1="-819.2" x2="819.2">
      <stop offset="0.0" stop-color="#a8882d"/>
      <stop offset="0.43529411764705883" stop-color="#e0bc16"/>
      <stop offset="0.8274509803921568" stop-color="#ebd936"/>
      <stop offset="1.0" stop-color="#ebd936"/>
    </linearGradient>
    <linearGradient gradientTransform="matrix(0.0, -0.0092, 0.0091, 0.0, -6.0, 47.5)" gradientUnits="userSpaceOnUse" id="gradient10" spreadMethod="pad" x1="-819.2" x2="819.2">
      <stop offset="0.0" stop-color="#a8882d"/>
      <stop offset="0.43529411764705883" stop-color="#e0bc16"/>
      <stop offset="0.8274509803921568" stop-color="#ebd936"/>
      <stop offset="1.0" stop-color="#ebd936"/>
    </linearGradient>
    <linearGradient gradientTransform="matrix(0.0, -0.0092, 0.0091, 0.0, -14.0, 47.5)" gradientUnits="userSpaceOnUse" id="gradient11" spreadMethod="pad" x1="-819.2" x2="819.2">
      <stop offset="0.0" stop-color="#a8882d"/>
      <stop offset="0.43529411764705883" stop-color="#e0bc16"/>
      <stop offset="0.8274509803921568" stop-color="#ebd936"/>
      <stop offset="1.0" stop-color="#ebd936"/>
    </linearGradient>
    <linearGradient gradientTransform="matrix(0.0, -0.0092, 0.0091, 0.0, -10.0, 47.5)" gradientUnits="userSpaceOnUse" id="gradient12" spreadMethod="pad" x1="-819.2" x2="819.2">
      <stop offset="0.0" stop-color="#a8882d"/>
      <stop offset="0.43529411764705883" stop-color="#e0bc16"/>
      <stop offset="0.8274509803921568" stop-color="#ebd936"/>
      <stop offset="1.0" stop-color="#ebd936"/>
    </linearGradient>
    <linearGradient gradientTransform="matrix(0.0, -0.0092, 0.0091, 0.0, -2.0, 47.5)" gradientUnits="userSpaceOnUse" id="gradient13" spreadMethod="pad" x1="-819.2" x2="819.2">
      <stop offset="0.0" stop-color="#a8882d"/>
      <stop offset="0.43529411764705883" stop-color="#e0bc16"/>
      <stop offset="0.8274509803921568" stop-color="#ebd936"/>
      <stop offset="1.0" stop-color="#ebd936"/>
    </linearGradient>
    <linearGradient gradientTransform="matrix(0.0, -0.0092, 0.0091, 0.0, 8.0, 47.5)" gradientUnits="userSpaceOnUse" id="gradient14" spreadMethod="pad" x1="-819.2" x2="819.2">
      <stop offset="0.0" stop-color="#a8882d"/>
      <stop offset="0.43529411764705883" stop-color="#e0bc16"/>
      <stop offset="0.8274509803921568" stop-color="#ebd936"/>
      <stop offset="1.0" stop-color="#ebd936"/>
    </linearGradient>
    <linearGradient gradientTransform="matrix(0.0, -0.0092, 0.0091, 0.0, 4.0, 47.5)" gradientUnits="userSpaceOnUse" id="gradient15" spreadMethod="pad" x1="-819.2" x2="819.2">
      <stop offset="0.0" stop-color="#a8882d"/>
      <stop offset="0.43529411764705883" stop-color="#e0bc16"/>
      <stop offset="0.8274509803921568" stop-color="#ebd936"/>
      <stop offset="1.0" stop-color="#ebd936"/>
    </linearGradient>
    <linearGradient gradientTransform="matrix(0.0, -0.0092, 0.0091, 0.0, 20.0, 47.5)" gradientUnits="userSpaceOnUse" id="gradient16" spreadMethod="pad" x1="-819.2" x2="819.2">
      <stop offset="0.0" stop-color="#a8882d"/>
      <stop offset="0.43529411764705883" stop-color="#e0bc16"/>
      <stop offset="0.8274509803921568" stop-color="#ebd936"/>
      <stop offset="1.0" stop-color="#ebd936"/>
    </linearGradient>
    <linearGradient gradientTransform="matrix(0.0, -0.0092, 0.0091, 0.0, 16.0, 47.5)" gradientUnits="userSpaceOnUse" id="gradient17" spreadMethod="pad" x1="-819.2" x2="819.2">
      <stop offset="0.0" stop-color="#a8882d"/>
      <stop offset="0.43529411764705883" stop-color="#e0bc16"/>
      <stop offset="0.8274509803921568" stop-color="#ebd936"/>
      <stop offset="1.0" stop-color="#ebd936"/>
    </linearGradient>
  </defs>
</svg>
