<?xml version="1.0" encoding="UTF-8" standalone="no"?>
<svg xmlns:xlink="http://www.w3.org/1999/xlink" height="332.75px" width="1023.25px" xmlns="http://www.w3.org/2000/svg">
  <g transform="matrix(1.0, 0.0, 0.0, 1.0, 512.0, 67.25)">
    <path d="M-458.75 -48.25 L-449.0 -50.0 -410.0 -54.25 -357.25 -58.25 -291.25 -61.75 -215.25 -64.5 -137.5 -66.25 -49.75 -67.25 46.5 -67.25 163.0 -65.75 251.5 -63.25 325.5 -60.0 380.75 -56.5 425.25 -52.25 466.25 -46.0 476.0 -43.0 475.75 -11.75 466.5 -10.5 434.0 -9.0 -26.0 -10.75 -269.75 -10.0 -458.75 -7.75 -458.75 -48.25" fill="#c9c9c9" fill-rule="evenodd" stroke="none"/>
    <path d="M476.0 -43.0 Q499.0 -37.75 505.0 -25.0 505.0 -14.75 475.75 -11.75 L476.0 -43.0 M-458.75 -7.75 L-493.5 -6.25 -493.5 -39.0 -487.25 -42.5 -471.5 -46.5 -458.75 -48.25 -458.75 -7.75" fill="#b8b8b8" fill-rule="evenodd" stroke="none"/>
    <path d="M436.25 149.0 L436.25 221.0 396.75 230.25 286.0 247.25 153.75 259.5 7.75 265.5 -144.25 264.25 -286.25 256.25 -406.0 242.5 -485.25 228.25 -512.0 222.75 -512.0 152.75 -403.5 163.75 -289.0 172.5 -143.25 178.25 11.0 179.0 154.25 175.0 283.0 167.0 395.0 155.5 436.25 149.0" fill="#cdcdcd" fill-rule="evenodd" stroke="none"/>
    <path d="M436.25 221.0 L436.25 149.0 478.5 142.5 511.25 135.0 511.25 200.25 479.0 211.25 436.25 221.0" fill="#c7c7c7" fill-rule="evenodd" stroke="none"/>
  </g>
</svg>
