<?xml version="1.0" encoding="UTF-8" standalone="no"?>
<svg xmlns:xlink="http://www.w3.org/1999/xlink" height="404.0px" width="404.0px" xmlns="http://www.w3.org/2000/svg">
  <g transform="matrix(1.0, 0.0, 0.0, 1.0, 202.0, 202.0)">
    <path d="M0.0 -202.0 Q83.7 -202.0 142.85 -142.85 202.0 -83.7 202.0 0.0 202.0 83.7 142.85 142.85 83.7 202.0 0.0 202.0 -83.7 202.0 -142.85 142.85 -202.0 83.7 -202.0 0.0 -202.0 -83.7 -142.85 -142.85 -83.7 -202.0 0.0 -202.0 M0.0 -138.0 Q57.2 -138.0 97.6 -97.6 138.0 -57.2 138.0 0.0 138.0 57.2 97.6 97.6 57.2 138.0 0.0 138.0 -57.2 138.0 -97.6 97.6 -138.0 57.2 -138.0 0.0 -138.0 -57.2 -97.6 -97.6 -57.2 -138.0 0.0 -138.0 M94.75 -94.75 Q55.5 -134.0 0.0 -134.0 -55.5 -134.0 -94.75 -94.75 -134.0 -55.5 -134.0 0.0 -134.0 55.5 -94.75 94.75 -55.5 134.0 0.0 134.0 55.5 134.0 94.75 94.75 134.0 55.5 134.0 0.0 134.0 -55.5 94.75 -94.75 M117.4 -117.35 Q68.75 -166.0 0.0 -166.0 -68.75 -166.0 -117.35 -117.35 -166.0 -68.75 -166.0 0.0 -166.0 68.75 -117.35 117.4 -68.75 166.0 0.0 166.0 68.75 166.0 117.4 117.4 166.0 68.75 166.0 0.0 166.0 -68.75 117.4 -117.35 M0.0 -170.0 Q70.45 -170.0 120.25 -120.2 170.0 -70.45 170.0 0.0 170.0 70.45 120.25 120.25 70.45 170.0 0.0 170.0 -70.45 170.0 -120.2 120.25 -170.0 70.45 -170.0 0.0 -170.0 -70.45 -120.2 -120.2 -70.45 -170.0 0.0 -170.0 M140.0 -140.0 Q82.0 -198.0 0.0 -198.0 -82.0 -198.0 -140.0 -140.0 -198.0 -82.0 -198.0 0.0 -198.0 82.0 -140.0 140.0 -82.0 198.0 0.0 198.0 82.0 198.0 140.0 140.0 198.0 82.0 198.0 0.0 198.0 -82.0 140.0 -140.0" fill="#000000" fill-rule="evenodd" stroke="none"/>
  </g>
</svg>
