<?xml version="1.0" encoding="UTF-8" standalone="no"?>
<svg xmlns:xlink="http://www.w3.org/1999/xlink" height="401.0px" width="401.0px" xmlns="http://www.w3.org/2000/svg">
  <g transform="matrix(1.0, 0.0, 0.0, 1.0, 200.5, 200.5)">
    <path d="M0.0 -135.5 Q-56.1 -135.5 -95.8 -95.8 -135.5 -56.1 -135.5 0.0 -135.5 56.1 -95.8 95.8 -56.1 135.5 0.0 135.5 56.1 135.5 95.8 95.8 135.5 56.1 135.5 0.0 135.5 -56.1 95.8 -95.8 56.1 -135.5 0.0 -135.5 M96.55 -96.55 Q136.5 -56.6 136.5 0.0 136.5 56.6 96.55 96.55 56.6 136.5 0.0 136.5 -56.6 136.5 -96.55 96.55 -136.5 56.6 -136.5 0.0 -136.5 -56.6 -96.55 -96.55 -56.6 -136.5 0.0 -136.5 56.6 -136.5 96.55 -96.55 M0.0 -167.5 Q-69.35 -167.5 -118.4 -118.4 -167.5 -69.35 -167.5 0.0 -167.5 69.35 -118.4 118.45 -69.35 167.5 0.0 167.5 69.35 167.5 118.45 118.45 167.5 69.35 167.5 0.0 167.5 -69.35 118.45 -118.4 69.35 -167.5 0.0 -167.5 M119.2 -119.15 Q168.5 -69.85 168.5 0.0 168.5 69.85 119.2 119.2 69.85 168.5 0.0 168.5 -69.85 168.5 -119.15 119.2 -168.5 69.85 -168.5 0.0 -168.5 -69.85 -119.15 -119.15 -69.85 -168.5 0.0 -168.5 69.85 -168.5 119.2 -119.15 M0.0 -199.5 Q-82.65 -199.5 -141.05 -141.05 -199.5 -82.65 -199.5 0.0 -199.5 82.65 -141.05 141.05 -82.65 199.5 0.0 199.5 82.65 199.5 141.05 141.05 199.5 82.65 199.5 0.0 199.5 -82.65 141.05 -141.05 82.65 -199.5 0.0 -199.5 M141.8 -141.8 Q200.5 -83.05 200.5 0.0 200.5 83.05 141.8 141.8 83.05 200.5 0.0 200.5 -83.05 200.5 -141.8 141.8 -200.5 83.05 -200.5 0.0 -200.5 -83.05 -141.8 -141.8 -83.05 -200.5 0.0 -200.5 83.05 -200.5 141.8 -141.8" fill="#000000" fill-rule="evenodd" stroke="none"/>
  </g>
</svg>
