<?xml version="1.0" encoding="UTF-8" standalone="no"?>
<svg xmlns:xlink="http://www.w3.org/1999/xlink" height="416.0px" width="416.0px" xmlns="http://www.w3.org/2000/svg">
  <g transform="matrix(1.0, 0.0, 0.0, 1.0, 208.0, 208.0)">
    <path d="M0.0 -128.0 Q-53.0 -128.0 -90.5 -90.5 -128.0 -53.0 -128.0 0.0 -128.0 53.0 -90.5 90.5 -53.0 128.0 0.0 128.0 53.0 128.0 90.5 90.5 128.0 53.0 128.0 0.0 128.0 -53.0 90.5 -90.5 53.0 -128.0 0.0 -128.0 M101.85 -101.85 Q144.0 -59.7 144.0 0.0 144.0 59.7 101.85 101.85 59.7 144.0 0.0 144.0 -59.7 144.0 -101.85 101.85 -144.0 59.7 -144.0 0.0 -144.0 -59.7 -101.85 -101.85 -59.7 -144.0 0.0 -144.0 59.7 -144.0 101.85 -101.85 M0.0 -160.0 Q-66.25 -160.0 -113.1 -113.1 -160.0 -66.25 -160.0 0.0 -160.0 66.25 -113.1 113.15 -66.25 160.0 0.0 160.0 66.25 160.0 113.15 113.15 160.0 66.25 160.0 0.0 160.0 -66.25 113.15 -113.1 66.25 -160.0 0.0 -160.0 M124.5 -124.45 Q176.0 -72.95 176.0 0.0 176.0 72.95 124.5 124.5 72.95 176.0 0.0 176.0 -72.95 176.0 -124.45 124.5 -176.0 72.95 -176.0 0.0 -176.0 -72.95 -124.45 -124.45 -72.95 -176.0 0.0 -176.0 72.95 -176.0 124.5 -124.45 M0.0 -192.0 Q-79.55 -192.0 -135.75 -135.75 -192.0 -79.55 -192.0 0.0 -192.0 79.55 -135.75 135.75 -79.55 192.0 0.0 192.0 79.55 192.0 135.75 135.75 192.0 79.55 192.0 0.0 192.0 -79.55 135.75 -135.75 79.55 -192.0 0.0 -192.0 M147.1 -147.1 Q208.0 -86.15 208.0 0.0 208.0 86.15 147.1 147.1 86.15 208.0 0.0 208.0 -86.15 208.0 -147.1 147.1 -208.0 86.15 -208.0 0.0 -208.0 -86.15 -147.1 -147.1 -86.15 -208.0 0.0 -208.0 86.15 -208.0 147.1 -147.1" fill="#000000" fill-rule="evenodd" stroke="none"/>
  </g>
</svg>
