<?xml version="1.0" encoding="UTF-8" standalone="no"?>
<svg xmlns:xlink="http://www.w3.org/1999/xlink" height="80.0px" width="32.0px" xmlns="http://www.w3.org/2000/svg">
  <g transform="matrix(1.0, 0.0, 0.0, 1.0, 16.0, 40.0)">
    <path d="M0.95 -35.45 Q0.6 -35.8 0.05 -35.8 -0.55 -35.8 -0.9 -35.45 L-0.95 -35.45 Q-3.6 -32.65 -5.9 -28.7 -13.0 -16.45 -13.0 0.0 -13.0 16.45 -5.9 28.7 -3.6 32.65 -0.95 35.45 L-0.9 35.5 Q-0.55 35.85 0.05 35.85 0.6 35.85 0.95 35.5 L0.95 35.45 Q3.6 32.65 5.9 28.7 13.0 16.45 13.0 0.0 13.0 -16.45 5.9 -28.7 3.6 -32.65 0.95 -35.45 M3.1 -37.55 Q6.0 -34.5 8.5 -30.2 16.0 -17.3 16.0 0.0 16.0 17.3 8.5 30.2 6.0 34.5 3.1 37.55 0.75 39.95 0.0 40.0 -0.75 39.95 -3.1 37.55 -6.0 34.5 -8.5 30.2 -16.0 17.3 -16.0 0.0 -16.0 -17.3 -8.5 -30.2 -6.0 -34.5 -3.1 -37.55 -0.75 -39.95 0.0 -40.0 0.75 -39.95 3.1 -37.55" fill="url(#gradient0)" fill-rule="evenodd" stroke="none"/>
  </g>
  <defs>
    <radialGradient cx="0" cy="0" gradientTransform="matrix(0.0535, 0.0, 0.0, 0.048, 0.0, 0.0)" gradientUnits="userSpaceOnUse" id="gradient0" r="819.2" spreadMethod="pad">
      <stop offset="0.2823529411764706" stop-color="#ff1c1c"/>
      <stop offset="0.984313725490196" stop-color="#910404"/>
    </radialGradient>
  </defs>
</svg>
