<?xml version="1.0" encoding="UTF-8" standalone="no"?>
<svg xmlns:xlink="http://www.w3.org/1999/xlink" height="57.0px" width="95.75px" xmlns="http://www.w3.org/2000/svg">
  <g transform="matrix(1.0, 0.0, 0.0, 1.0, 47.85, 28.5)">
    <path d="M22.65 -25.85 L23.4 -24.7 Q23.6 -24.0 23.4 -23.3 22.8 -21.25 23.8 -19.65 24.75 -18.2 26.65 -17.65 L30.25 -17.8 Q32.0 -18.65 32.65 -20.75 L33.45 -21.95 Q34.05 -22.45 34.85 -22.5 L36.3 -22.15 46.3 -16.15 47.1 -15.35 47.5 -14.25 Q49.45 4.3 41.65 10.9 41.2 11.3 40.6 11.45 36.1 12.55 30.75 11.7 29.75 12.55 29.1 13.5 L36.0 13.5 Q36.95 13.5 37.65 14.15 38.35 14.75 38.5 15.7 38.6 16.6 38.1 17.4 L36.1 20.4 35.05 21.3 Q19.6 28.5 0.0 28.5 -19.6 28.5 -35.05 21.3 L-36.05 20.4 -38.05 17.4 Q-38.6 16.6 -38.45 15.7 -38.35 14.75 -37.65 14.15 -36.95 13.5 -36.0 13.5 L-29.05 13.5 -30.7 11.7 Q-36.1 12.55 -40.6 11.45 -41.2 11.3 -41.65 10.9 -49.45 4.35 -47.45 -14.25 L-47.1 -15.35 -46.25 -16.15 -36.25 -22.15 -34.85 -22.5 Q-34.05 -22.45 -33.45 -21.95 -32.85 -21.5 -32.6 -20.75 -31.95 -18.65 -30.2 -17.8 L-26.6 -17.65 Q-24.75 -18.2 -23.8 -19.65 -22.8 -21.25 -23.4 -23.3 -23.6 -24.0 -23.4 -24.7 L-22.65 -25.85 Q-22.1 -26.35 -21.4 -26.45 L-9.4 -28.45 -8.1 -28.3 -7.05 -27.55 Q-6.6 -27.0 -6.5 -26.35 -6.25 -24.1 -4.45 -22.8 -2.55 -21.45 0.0 -21.5 2.55 -21.5 4.45 -22.8 6.25 -24.1 6.55 -26.35 6.6 -27.0 7.05 -27.55 L8.1 -28.3 9.4 -28.45 21.4 -26.45 Q22.1 -26.35 22.65 -25.85 M7.1 -4.1 Q8.7 -2.5 11.0 -2.5 13.25 -2.5 14.9 -4.1 16.5 -5.75 16.5 -8.0 16.5 -10.3 14.9 -11.9 13.3 -13.5 11.0 -13.5 8.7 -13.5 7.1 -11.9 L7.15 -11.9 7.1 -11.85 7.1 -11.9 Q5.5 -10.3 5.5 -8.0 5.5 -5.7 7.1 -4.1 M29.15 -6.9 L29.1 -6.85 29.1 -6.9 Q27.5 -5.3 27.5 -3.0 27.5 -0.7 29.1 0.9 30.7 2.5 33.0 2.5 35.25 2.5 36.9 0.9 38.5 -0.75 38.5 -3.0 38.5 -5.3 36.9 -6.9 35.3 -8.5 33.0 -8.5 30.7 -8.5 29.1 -6.9 L29.15 -6.9 M13.8 10.25 Q8.05 8.0 0.0 8.0 -8.05 8.0 -13.8 10.25 L-14.0 10.35 Q-17.3 11.65 -17.9 13.0 -17.3 14.35 -14.05 15.65 L-14.0 15.65 -13.95 15.7 Q-11.05 16.85 -7.55 17.45 L-7.3 17.5 -7.4 17.5 Q-5.85 17.65 -4.15 17.0 -2.75 16.45 -2.1 15.65 -1.6 14.9 -0.8 14.65 0.0 14.35 0.8 14.65 1.6 14.9 2.1 15.65 2.75 16.45 4.15 17.0 5.85 17.65 7.45 17.5 L7.3 17.5 7.6 17.45 Q11.05 16.85 13.95 15.7 L14.05 15.65 14.1 15.65 Q17.3 14.35 17.95 13.0 17.3 11.65 14.05 10.35 L13.8 10.25 M-36.85 -6.9 L-36.9 -6.85 -36.9 -6.9 Q-38.5 -5.3 -38.5 -3.0 -38.5 -0.7 -36.9 0.9 -35.3 2.5 -33.0 2.5 -30.75 2.5 -29.1 0.9 -27.5 -0.75 -27.5 -3.0 -27.5 -5.3 -29.1 -6.9 -30.7 -8.5 -33.0 -8.5 -35.3 -8.5 -36.9 -6.9 L-36.85 -6.9 M-16.5 -8.0 Q-16.5 -5.7 -14.9 -4.1 -13.3 -2.5 -11.0 -2.5 -8.75 -2.5 -7.15 -4.1 L-7.1 -4.15 Q-5.5 -5.75 -5.5 -8.0 -5.5 -10.3 -7.1 -11.9 -8.7 -13.5 -11.0 -13.5 -13.3 -13.5 -14.9 -11.9 -16.5 -10.3 -16.5 -8.0" fill="#000000" fill-rule="evenodd" stroke="none"/>
    <path d="M19.0 -8.0 Q19.0 -11.35 16.65 -13.7 14.35 -16.0 11.0 -16.0 7.7 -16.0 5.35 -13.7 L5.3 -13.65 Q3.0 -11.3 3.0 -8.0 3.0 -4.65 5.3 -2.35 7.65 0.0 11.0 0.0 14.3 0.0 16.65 -2.35 19.0 -4.7 19.0 -8.0 M5.9 -20.8 Q8.55 -22.7 9.0 -26.0 L21.0 -24.0 Q20.1 -20.8 21.7 -18.3 23.15 -16.05 25.95 -15.25 28.8 -14.45 31.25 -15.55 34.0 -16.8 35.0 -20.0 L45.0 -14.0 Q46.8 2.95 40.0 9.0 35.5 10.1 30.0 9.0 27.25 11.15 26.15 13.55 25.0 15.95 26.95 16.0 L36.0 16.0 34.0 19.0 Q19.0 26.0 0.0 26.0 -19.0 26.0 -34.0 19.0 L-36.0 16.0 -26.95 16.0 Q-25.0 15.95 -26.15 13.55 -27.25 11.15 -30.0 9.0 -35.5 10.1 -40.0 9.0 -46.8 2.95 -45.0 -14.0 L-35.0 -20.0 Q-34.0 -16.8 -31.25 -15.55 -28.8 -14.45 -25.95 -15.25 -23.15 -16.05 -21.7 -18.3 -20.1 -20.8 -21.0 -24.0 L-9.0 -26.0 Q-8.55 -22.7 -5.9 -20.8 -3.4 -19.0 0.0 -19.0 3.4 -19.0 5.9 -20.8 M-16.65 -13.7 L-16.7 -13.65 Q-19.0 -11.3 -19.0 -8.0 -19.0 -4.65 -16.7 -2.35 -14.35 0.0 -11.0 0.0 -7.7 0.0 -5.35 -2.35 -3.0 -4.7 -3.0 -8.0 -3.0 -11.35 -5.35 -13.7 -7.65 -16.0 -11.0 -16.0 -14.3 -16.0 -16.65 -13.7 M-38.65 -8.7 L-38.7 -8.65 Q-41.0 -6.3 -41.0 -3.0 -41.0 0.35 -38.7 2.65 -36.35 5.0 -33.0 5.0 -29.7 5.0 -27.35 2.65 -25.0 0.3 -25.0 -3.0 -25.0 -6.35 -27.35 -8.7 -29.65 -11.0 -33.0 -11.0 -36.3 -11.0 -38.65 -8.7 M15.0 8.0 Q8.8 5.5 0.0 5.5 -8.8 5.5 -15.0 8.0 L-14.95 8.0 Q-20.25 10.15 -20.5 13.0 -20.3 15.8 -15.0 17.95 L-14.95 18.0 Q-11.8 19.25 -8.0 19.9 L-7.7 19.95 Q-5.6 20.2 -3.3 19.35 -0.95 18.45 0.0 17.0 0.95 18.45 3.3 19.35 5.6 20.2 7.7 19.95 L8.0 19.9 Q11.8 19.25 15.0 18.0 L15.0 17.95 Q20.3 15.8 20.5 13.0 20.25 10.15 15.0 8.0 M27.3 -8.65 Q25.0 -6.3 25.0 -3.0 25.0 0.35 27.3 2.65 29.65 5.0 33.0 5.0 36.3 5.0 38.65 2.65 41.0 0.3 41.0 -3.0 41.0 -6.35 38.65 -8.7 36.35 -11.0 33.0 -11.0 29.7 -11.0 27.35 -8.7 L27.3 -8.65" fill="url(#gradient0)" fill-rule="evenodd" stroke="none"/>
    <path d="M26.95 16.0 L36.0 16.0 34.0 19.0 Q19.0 26.0 0.0 26.0 -19.0 26.0 -34.0 19.0 L-36.0 16.0 -26.95 16.0 Q-25.0 15.95 -26.15 13.55 -27.0 11.7 -28.8 10.0 L-18.6 10.0 Q-20.35 11.4 -20.5 13.0 -20.3 15.8 -15.0 17.95 L-14.95 18.0 Q-11.8 19.25 -8.0 19.9 L-7.7 19.95 Q-5.6 20.2 -3.3 19.35 -0.95 18.45 0.0 17.0 0.95 18.45 3.3 19.35 5.6 20.2 7.7 19.95 L8.0 19.9 Q11.8 19.25 15.0 18.0 L15.0 17.95 Q20.3 15.8 20.5 13.0 20.35 11.4 18.6 10.0 L28.85 10.0 Q27.0 11.7 26.15 13.55 25.0 15.95 26.95 16.0" fill="url(#gradient1)" fill-rule="evenodd" stroke="none"/>
    <path d="M35.35 17.0 L35.3 17.0 26.0 17.0 25.8 15.5 Q26.1 16.0 26.95 16.0 L36.0 16.0 35.35 17.0 M-35.35 17.0 L-36.0 16.0 -26.95 16.0 Q-26.1 16.0 -25.8 15.5 L-26.0 17.0 -35.3 17.0 -35.35 17.0" fill="#bd0f0f" fill-rule="evenodd" stroke="none"/>
    <path d="M34.65 -19.05 L35.0 -20.0 45.0 -14.0 45.1 -12.85 34.65 -19.05 M21.0 -24.0 L20.85 -23.05 8.85 -25.1 9.0 -26.0 21.0 -24.0 M-45.0 -14.0 L-35.0 -20.0 -34.65 -19.05 -45.1 -12.85 -45.0 -14.0 M-8.85 -25.1 L-20.85 -23.05 -21.0 -24.0 -9.0 -26.0 -8.85 -25.1" fill="#bd0f0f" fill-rule="evenodd" stroke="none"/>
    <path d="M3.0 5.0 L-3.0 5.0 -2.0 1.0 2.0 1.0 3.0 5.0" fill="#000000" fill-rule="evenodd" stroke="none"/>
    <path d="M2.8 3.7 L3.1 3.75 Q10.6 4.1 16.25 6.35 23.0 9.1 23.0 13.05 23.0 16.95 16.25 19.7 9.5 22.45 0.0 22.45 -9.5 22.45 -16.25 19.7 -23.0 16.95 -23.0 13.05 -23.0 9.1 -16.25 6.35 -10.5 4.05 -2.75 3.7 L-2.55 3.7 -2.0 2.0 2.0 2.0 2.55 3.7 2.8 3.7 M15.0 8.0 Q8.8 5.5 0.0 5.5 -8.8 5.5 -15.0 8.0 L-14.95 8.0 Q-20.25 10.15 -20.5 13.0 -20.3 15.8 -15.0 17.95 L-14.95 18.0 Q-11.8 19.25 -8.0 19.9 L-7.7 19.95 Q-5.6 20.2 -3.3 19.35 -0.95 18.45 0.0 17.0 0.95 18.45 3.3 19.35 5.6 20.2 7.7 19.95 L8.0 19.9 Q11.8 19.25 15.0 18.0 L15.0 17.95 Q20.3 15.8 20.5 13.0 20.25 10.15 15.0 8.0" fill="url(#gradient2)" fill-rule="evenodd" stroke="none"/>
    <path d="M0.0 22.45 L0.0 17.0 Q0.95 18.45 3.3 19.35 5.6 20.2 7.7 19.95 L8.0 19.9 12.6 18.85 13.8 20.6 Q7.85 22.45 0.0 22.45" fill="url(#gradient3)" fill-rule="evenodd" stroke="none"/>
    <path d="M2.0 1.75 L2.6 3.75 -2.6 3.75 -2.0 1.75 2.0 1.75" fill="url(#gradient4)" fill-rule="evenodd" stroke="none"/>
    <path d="M33.0 -11.0 Q29.7 -11.0 27.35 -8.7 L27.3 -8.65 Q25.0 -6.3 25.0 -3.0 25.0 0.35 27.3 2.65 29.65 5.0 33.0 5.0 36.3 5.0 38.65 2.65 41.0 0.3 41.0 -3.0 41.0 -6.35 38.65 -8.7 36.35 -11.0 33.0 -11.0 M33.0 -12.0 Q36.75 -12.0 39.4 -9.4 42.0 -6.75 42.0 -3.0 42.0 0.75 39.4 3.35 36.75 6.0 33.0 6.0 29.25 6.0 26.65 3.35 24.0 0.75 24.0 -3.0 24.0 -6.75 26.65 -9.4 29.25 -12.0 33.0 -12.0" fill="url(#gradient5)" fill-rule="evenodd" stroke="none"/>
    <path d="M11.0 -17.0 Q14.75 -17.0 17.4 -14.4 20.0 -11.75 20.0 -8.0 20.0 -4.25 17.4 -1.65 14.75 1.0 11.0 1.0 7.25 1.0 4.65 -1.65 2.0 -4.25 2.0 -8.0 2.0 -11.75 4.65 -14.4 7.25 -17.0 11.0 -17.0 M16.65 -13.7 Q14.35 -16.0 11.0 -16.0 7.7 -16.0 5.35 -13.7 L5.3 -13.65 Q3.0 -11.3 3.0 -8.0 3.0 -4.65 5.3 -2.35 7.65 0.0 11.0 0.0 14.3 0.0 16.65 -2.35 19.0 -4.7 19.0 -8.0 19.0 -11.35 16.65 -13.7" fill="url(#gradient6)" fill-rule="evenodd" stroke="none"/>
    <path d="M-17.35 -14.4 Q-14.75 -17.0 -11.0 -17.0 -7.25 -17.0 -4.6 -14.4 -2.0 -11.75 -2.0 -8.0 -2.0 -4.25 -4.6 -1.65 -7.25 1.0 -11.0 1.0 -14.75 1.0 -17.35 -1.65 -20.0 -4.25 -20.0 -8.0 -20.0 -11.75 -17.35 -14.4 M-16.65 -13.7 L-16.7 -13.65 Q-19.0 -11.3 -19.0 -8.0 -19.0 -4.65 -16.7 -2.35 -14.35 0.0 -11.0 0.0 -7.7 0.0 -5.35 -2.35 -3.0 -4.7 -3.0 -8.0 -3.0 -11.35 -5.35 -13.7 -7.65 -16.0 -11.0 -16.0 -14.3 -16.0 -16.65 -13.7" fill="url(#gradient7)" fill-rule="evenodd" stroke="none"/>
    <path d="M-39.35 -9.4 Q-36.75 -12.0 -33.0 -12.0 -29.25 -12.0 -26.6 -9.4 -24.0 -6.75 -24.0 -3.0 -24.0 0.75 -26.6 3.35 -29.25 6.0 -33.0 6.0 -36.75 6.0 -39.35 3.35 -42.0 0.75 -42.0 -3.0 -42.0 -6.75 -39.35 -9.4 M-38.65 -8.7 L-38.7 -8.65 Q-41.0 -6.3 -41.0 -3.0 -41.0 0.35 -38.7 2.65 -36.35 5.0 -33.0 5.0 -29.7 5.0 -27.35 2.65 -25.0 0.3 -25.0 -3.0 -25.0 -6.35 -27.35 -8.7 -29.65 -11.0 -33.0 -11.0 -36.3 -11.0 -38.65 -8.7" fill="url(#gradient8)" fill-rule="evenodd" stroke="none"/>
    <path d="M20.9 2.5 Q22.05 3.0 23.0 3.9 21.75 4.1 20.5 3.9 20.0 5.05 19.1 6.0 18.9 4.75 19.1 3.5 17.9 3.0 17.0 2.1 18.25 1.9 19.5 2.1 20.0 0.9 20.9 0.0 21.1 1.25 20.9 2.5" fill="url(#gradient9)" fill-rule="evenodd" stroke="none"/>
    <path d="M-19.1 3.5 Q-18.9 4.75 -19.1 6.0 -20.0 5.05 -20.5 3.9 -21.75 4.1 -23.0 3.9 -22.05 3.0 -20.9 2.5 -21.1 1.25 -20.9 0.0 -20.0 0.9 -19.5 2.1 -18.25 1.9 -17.0 2.1 -17.9 3.0 -19.1 3.5" fill="url(#gradient10)" fill-rule="evenodd" stroke="none"/>
    <path d="M14.6 -23.0 L16.2 -20.7 12.25 -21.35 14.6 -23.0" fill="#5a686b" fill-rule="evenodd" stroke="none"/>
    <path d="M37.1 -14.35 L39.85 -15.0 40.5 -12.25 37.1 -14.35" fill="#6f7b7b" fill-rule="evenodd" stroke="none"/>
    <path d="M-37.05 -14.35 L-40.45 -12.25 -39.8 -15.0 -37.05 -14.35 M-12.25 -21.35 L-16.2 -20.7 -14.6 -23.0 -12.25 -21.35" fill="#464f4f" fill-rule="evenodd" stroke="none"/>
  </g>
  <defs>
    <linearGradient gradientTransform="matrix(-0.0412, 0.0312, -0.0191, -0.0253, -0.5, -3.9)" gradientUnits="userSpaceOnUse" id="gradient0" spreadMethod="pad" x1="-819.2" x2="819.2">
      <stop offset="0.027450980392156862" stop-color="#525857"/>
      <stop offset="0.11764705882352941" stop-color="#404646"/>
      <stop offset="0.30196078431372547" stop-color="#404646"/>
      <stop offset="0.4117647058823529" stop-color="#3d4649"/>
      <stop offset="0.5294117647058824" stop-color="#222423"/>
      <stop offset="0.7215686274509804" stop-color="#1b1d1c"/>
      <stop offset="0.9450980392156862" stop-color="#343d3d"/>
      <stop offset="0.9764705882352941" stop-color="#343d3d"/>
    </linearGradient>
    <radialGradient cx="0" cy="0" gradientTransform="matrix(0.1099, 0.0, 0.0, 0.0585, 0.0, 26.0)" gradientUnits="userSpaceOnUse" id="gradient1" r="819.2" spreadMethod="pad">
      <stop offset="0.027450980392156862" stop-color="#ffffff" stop-opacity="0.2627451"/>
      <stop offset="0.4117647058823529" stop-color="#000000" stop-opacity="0.0"/>
    </radialGradient>
    <radialGradient cx="0" cy="0" gradientTransform="matrix(0.0074, 0.0399, -0.0679, 0.0126, -22.0, 16.0)" gradientUnits="userSpaceOnUse" id="gradient2" r="819.2" spreadMethod="pad">
      <stop offset="0.1450980392156863" stop-color="#fc2e2e"/>
      <stop offset="0.4666666666666667" stop-color="#4e0e0e"/>
      <stop offset="0.8823529411764706" stop-color="#600b0b"/>
    </radialGradient>
    <linearGradient gradientTransform="matrix(0.0106, 0.0038, -0.0011, 0.0031, 8.3, 21.25)" gradientUnits="userSpaceOnUse" id="gradient3" spreadMethod="pad" x1="-819.2" x2="819.2">
      <stop offset="0.21568627450980393" stop-color="#dc2828"/>
      <stop offset="0.615686274509804" stop-color="#560c0c"/>
    </linearGradient>
    <linearGradient gradientTransform="matrix(0.0, -0.0012, 0.0122, 2.0E-4, 8.85, 2.85)" gradientUnits="userSpaceOnUse" id="gradient4" spreadMethod="pad" x1="-819.2" x2="819.2">
      <stop offset="0.0" stop-color="#373f40"/>
      <stop offset="0.9294117647058824" stop-color="#272e2d"/>
      <stop offset="0.9686274509803922" stop-color="#323837"/>
    </linearGradient>
    <radialGradient cx="0" cy="0" gradientTransform="matrix(0.0148, 0.0166, -0.0173, 0.0153, 25.85, 3.25)" gradientUnits="userSpaceOnUse" id="gradient5" r="819.2" spreadMethod="pad">
      <stop offset="0.1450980392156863" stop-color="#fc2e2e"/>
      <stop offset="0.4666666666666667" stop-color="#4e0e0e"/>
      <stop offset="0.8823529411764706" stop-color="#8b1010"/>
    </radialGradient>
    <radialGradient cx="0" cy="0" gradientTransform="matrix(0.0148, 0.0166, -0.0173, 0.0153, 3.85, -1.75)" gradientUnits="userSpaceOnUse" id="gradient6" r="819.2" spreadMethod="pad">
      <stop offset="0.1450980392156863" stop-color="#fc2e2e"/>
      <stop offset="0.4666666666666667" stop-color="#4e0e0e"/>
      <stop offset="0.8823529411764706" stop-color="#8b1010"/>
    </radialGradient>
    <radialGradient cx="0" cy="0" gradientTransform="matrix(0.0148, 0.0166, -0.0173, 0.0153, -18.15, -1.75)" gradientUnits="userSpaceOnUse" id="gradient7" r="819.2" spreadMethod="pad">
      <stop offset="0.1450980392156863" stop-color="#fc2e2e"/>
      <stop offset="0.4666666666666667" stop-color="#410c0c"/>
      <stop offset="0.8823529411764706" stop-color="#600b0b"/>
    </radialGradient>
    <radialGradient cx="0" cy="0" gradientTransform="matrix(0.0148, 0.0166, -0.0173, 0.0153, -40.15, 3.25)" gradientUnits="userSpaceOnUse" id="gradient8" r="819.2" spreadMethod="pad">
      <stop offset="0.1450980392156863" stop-color="#fc2e2e"/>
      <stop offset="0.4666666666666667" stop-color="#410c0c"/>
      <stop offset="0.8823529411764706" stop-color="#600b0b"/>
    </radialGradient>
    <linearGradient gradientTransform="matrix(0.0034, -0.0012, 0.0012, 0.0034, 20.0, 3.0)" gradientUnits="userSpaceOnUse" id="gradient9" spreadMethod="pad" x1="-819.2" x2="819.2">
      <stop offset="0.0" stop-color="#ae0202"/>
      <stop offset="1.0" stop-color="#ca0202"/>
    </linearGradient>
    <linearGradient gradientTransform="matrix(0.0037, 0.0, 0.0, 0.0037, -20.0, 3.0)" gradientUnits="userSpaceOnUse" id="gradient10" spreadMethod="pad" x1="-819.2" x2="819.2">
      <stop offset="0.0" stop-color="#ae0202"/>
      <stop offset="1.0" stop-color="#ca0202"/>
    </linearGradient>
  </defs>
</svg>
