<?xml version="1.0" encoding="UTF-8" standalone="no"?>
<svg xmlns:xlink="http://www.w3.org/1999/xlink" height="768.0px" width="768.0px" xmlns="http://www.w3.org/2000/svg">
  <g transform="matrix(1.0, 0.0, 0.0, 1.0, 384.0, 384.0)">
    <path d="M20.15 -208.4 L26.95 -96.95 Q30.25 -41.9 31.6 -31.6 L96.95 -26.95 208.4 -20.15 Q363.3 -9.85 384.0 0.0 363.3 9.85 208.4 20.15 L96.95 26.95 31.6 31.6 Q30.25 41.9 26.95 96.95 L20.15 208.4 Q9.85 363.3 0.0 384.0 -9.85 363.3 -20.15 208.4 L-26.95 96.95 Q-30.25 41.9 -31.6 31.6 L-96.95 26.95 -208.4 20.15 Q-363.3 9.85 -384.0 0.0 -363.3 -9.85 -208.4 -20.15 L-96.95 -26.95 -31.6 -31.6 Q-30.25 -41.9 -26.95 -96.95 L-20.15 -208.4 Q-9.85 -363.3 0.0 -384.0 9.85 -363.3 20.15 -208.4" fill="url(#gradient0)" fill-rule="evenodd" stroke="none"/>
  </g>
  <defs>
    <radialGradient cx="0" cy="0" gradientTransform="matrix(0.4736, 0.0, 0.0, 0.4736, 0.0, 0.0)" gradientUnits="userSpaceOnUse" id="gradient0" r="819.2" spreadMethod="pad">
      <stop offset="0.16470588235294117" stop-color="#ffffe1"/>
      <stop offset="0.43137254901960786" stop-color="#ffee55"/>
      <stop offset="0.6588235294117647" stop-color="#fff75b"/>
      <stop offset="0.9921568627450981" stop-color="#f98e5b"/>
    </radialGradient>
  </defs>
</svg>
