<?xml version="1.0" encoding="UTF-8" standalone="no"?>
<svg xmlns:xlink="http://www.w3.org/1999/xlink" height="976.0px" width="976.0px" xmlns="http://www.w3.org/2000/svg">
  <g transform="matrix(1.0, 0.0, 0.0, 1.0, 487.0, 488.05)">
    <path d="M2.85 -348.55 Q2.5 -240.95 0.85 -95.05 -0.75 -233.05 -0.95 -348.6 -1.15 -488.05 1.15 -488.05 3.3 -488.0 2.85 -348.55" fill="url(#gradient0)" fill-rule="evenodd" stroke="none"/>
    <path d="M489.0 -0.2 Q489.0 2.1 349.55 1.9 234.0 1.7 96.0 0.1 241.9 -1.55 349.5 -1.9 488.95 -2.35 489.0 -0.2" fill="url(#gradient1)" fill-rule="evenodd" stroke="none"/>
    <path d="M2.85 348.45 Q3.3 487.9 1.15 487.95 -1.15 487.95 -0.95 348.5 -0.75 232.95 0.85 94.95 2.5 240.85 2.85 348.45" fill="url(#gradient2)" fill-rule="evenodd" stroke="none"/>
    <path d="M-487.0 -0.2 Q-486.95 -2.35 -347.5 -1.9 -239.9 -1.55 -94.0 0.1 -232.0 1.7 -347.55 1.9 -487.0 2.1 -487.0 -0.2" fill="url(#gradient3)" fill-rule="evenodd" stroke="none"/>
  </g>
  <defs>
    <radialGradient cx="0" cy="0" gradientTransform="matrix(0.2441, 0.0, 0.0, 0.2441, 0.0, -584.0)" gradientUnits="userSpaceOnUse" id="gradient0" r="819.2" spreadMethod="pad">
      <stop offset="0.7843137254901961" stop-color="#fb764a"/>
      <stop offset="0.8745098039215686" stop-color="#ff6a6a"/>
      <stop offset="0.9607843137254902" stop-color="#ff2b2b"/>
    </radialGradient>
    <radialGradient cx="0" cy="0" gradientTransform="matrix(0.2503, 0.0, 0.0, 0.2503, 592.0, 0.0)" gradientUnits="userSpaceOnUse" id="gradient1" r="819.2" spreadMethod="pad">
      <stop offset="0.7843137254901961" stop-color="#fb764a"/>
      <stop offset="0.8745098039215686" stop-color="#ff6a6a"/>
      <stop offset="0.9607843137254902" stop-color="#ff2b2b"/>
    </radialGradient>
    <radialGradient cx="0" cy="0" gradientTransform="matrix(0.2441, 0.0, 0.0, 0.2441, 0.0, 584.0)" gradientUnits="userSpaceOnUse" id="gradient2" r="819.2" spreadMethod="pad">
      <stop offset="0.7843137254901961" stop-color="#fb764a"/>
      <stop offset="0.8745098039215686" stop-color="#ff6a6a"/>
      <stop offset="0.9607843137254902" stop-color="#ff2b2b"/>
    </radialGradient>
    <radialGradient cx="0" cy="0" gradientTransform="matrix(0.2511, 0.0, 0.0, 0.2511, -592.0, 0.0)" gradientUnits="userSpaceOnUse" id="gradient3" r="819.2" spreadMethod="pad">
      <stop offset="0.7843137254901961" stop-color="#fb764a"/>
      <stop offset="0.8745098039215686" stop-color="#ff6a6a"/>
      <stop offset="0.9607843137254902" stop-color="#ff2b2b"/>
    </radialGradient>
  </defs>
</svg>
