<?xml version="1.0" encoding="UTF-8" standalone="no"?>
<svg xmlns:xlink="http://www.w3.org/1999/xlink" height="146.0px" width="53.0px" xmlns="http://www.w3.org/2000/svg">
  <g transform="matrix(1.0, 0.0, 0.0, 1.0, 26.5, 63.5)">
    <path d="M3.3 -62.75 Q4.0 -62.05 4.0 -61.0 L4.0 -54.5 5.0 -54.5 5.9 -54.35 9.8 -62.1 Q10.1 -62.75 10.7 -63.1 11.3 -63.5 12.0 -63.5 L24.0 -63.5 Q25.05 -63.5 25.8 -62.75 26.5 -62.05 26.5 -61.0 L26.5 -40.0 26.3 -39.0 25.7 -38.15 14.95 -28.3 21.2 -12.2 21.5 -11.3 21.5 -11.05 21.5 20.55 Q22.2 20.7 22.8 21.25 23.5 21.95 23.5 23.0 L23.5 24.05 Q24.2 24.2 24.8 24.75 25.5 25.45 25.5 26.5 L25.5 28.5 Q25.5 29.55 24.8 30.3 24.2 30.8 23.5 30.95 L23.5 32.0 Q23.5 33.05 22.8 33.8 22.2 34.3 21.5 34.45 L21.5 57.0 21.5 57.4 Q20.65 62.95 17.3 69.05 L17.2 69.25 Q13.45 75.75 10.7 78.35 L10.65 78.4 Q6.2 82.5 0.0 82.5 -6.25 82.5 -10.65 78.4 -13.4 75.85 -17.1 69.3 L-17.15 69.25 -17.2 69.2 Q-20.65 63.0 -21.45 57.4 L-21.5 57.0 -21.5 34.45 Q-22.2 34.3 -22.75 33.8 -23.5 33.05 -23.5 32.0 L-23.5 30.95 Q-24.2 30.8 -24.75 30.3 -25.5 29.55 -25.5 28.5 L-25.5 26.5 Q-25.5 25.45 -24.75 24.75 -24.2 24.2 -23.5 24.05 L-23.5 23.0 Q-23.5 21.95 -22.75 21.25 -22.2 20.7 -21.5 20.55 L-21.5 -11.05 -21.45 -11.3 -21.2 -12.2 -14.95 -28.3 -25.7 -38.15 -26.25 -39.0 -26.5 -40.0 -26.5 -61.0 Q-26.5 -62.05 -25.75 -62.75 -25.05 -63.5 -24.0 -63.5 L-12.0 -63.5 Q-11.3 -63.5 -10.7 -63.1 L-9.75 -62.1 -5.85 -54.35 -5.0 -54.5 -4.0 -54.5 -4.0 -61.0 Q-4.0 -62.05 -3.25 -62.75 -2.55 -63.5 -1.5 -63.5 L1.5 -63.5 Q2.55 -63.5 3.3 -62.75" fill="#000000" fill-rule="evenodd" stroke="none"/>
    <path d="M15.0 68.0 Q11.5 74.1 8.95 76.55 5.2 80.0 0.0 80.0 -5.25 80.0 -8.95 76.55 -11.5 74.15 -15.0 68.0 L0.0 68.0 15.0 68.0" fill="url(#gradient0)" fill-rule="evenodd" stroke="none"/>
    <path d="M19.0 57.0 L-19.0 57.0 -19.0 34.0 19.0 34.0 19.0 57.0" fill="url(#gradient1)" fill-rule="evenodd" stroke="none"/>
    <path d="M15.0 68.0 L0.0 68.0 -15.0 68.0 Q-18.2 62.25 -19.0 57.0 L19.0 57.0 Q18.2 62.25 15.0 68.0" fill="url(#gradient2)" fill-rule="evenodd" stroke="none"/>
    <path d="M15.0 68.0 L-15.0 68.0 -15.55 67.0 15.55 67.0 15.0 68.0" fill="url(#gradient3)" fill-rule="evenodd" stroke="none"/>
    <path d="M21.0 32.0 L18.0 32.0 18.0 23.0 21.0 23.0 21.0 32.0" fill="#a02802" fill-rule="evenodd" stroke="none"/>
    <path d="M-18.0 32.0 L-21.0 32.0 -21.0 23.0 -18.0 23.0 -18.0 32.0" fill="#9d2701" fill-rule="evenodd" stroke="none"/>
    <path d="M23.0 26.5 L23.0 28.5 21.0 28.5 21.0 26.5 23.0 26.5 M-21.0 26.5 L-21.0 28.5 -23.0 28.5 -23.0 26.5 -21.0 26.5" fill="#003333" fill-rule="evenodd" stroke="none"/>
    <path d="M19.0 -5.0 L19.0 34.0 -19.0 34.0 -19.0 -5.0 19.0 -5.0" fill="url(#gradient4)" fill-rule="evenodd" stroke="none"/>
    <path d="M9.9 -5.0 L9.9 -5.1 10.0 -5.1 10.1 -5.1 10.15 -5.0 10.15 -3.0 10.1 -2.9 10.0 -2.85 -10.0 -2.85 -10.1 -2.9 -10.1 -3.0 -10.1 -5.0 -10.1 -5.1 -10.0 -5.1 -9.9 -5.1 -9.85 -5.0 -9.85 -3.1 9.9 -3.1 9.9 -5.0" fill="url(#gradient5)" fill-rule="evenodd" stroke="none"/>
    <path d="M-12.0 -61.0 L-5.0 -47.0 -5.0 -29.0 -12.0 -29.0 -24.0 -40.0 -24.0 -61.0 -12.0 -61.0" fill="url(#gradient6)" fill-rule="evenodd" stroke="none"/>
    <path d="M12.0 -61.0 L24.0 -61.0 24.0 -40.0 12.0 -29.0 5.0 -29.0 5.0 -47.0 12.0 -61.0" fill="url(#gradient7)" fill-rule="evenodd" stroke="none"/>
    <path d="M19.0 -5.0 L-19.0 -5.0 -19.0 -11.0 19.0 -11.0 19.0 -5.0" fill="url(#gradient8)" fill-rule="evenodd" stroke="none"/>
    <path d="M0.0 -47.0 L5.0 -47.0 19.0 -11.0 -19.0 -11.0 -5.0 -47.0 0.0 -47.0" fill="url(#gradient9)" fill-rule="evenodd" stroke="none"/>
    <path d="M5.0 -47.0 L-5.0 -47.0 -5.0 -48.0 5.0 -48.0 5.0 -47.0" fill="#384633" fill-rule="evenodd" stroke="none"/>
    <path d="M5.0 -48.0 L-5.0 -48.0 -5.0 -52.0 5.0 -52.0 5.0 -48.0" fill="url(#gradient10)" fill-rule="evenodd" stroke="none"/>
    <path d="M1.5 -29.0 L-1.5 -29.0 -1.5 -40.0 1.5 -40.0 1.5 -29.0" fill="#384633" fill-rule="evenodd" stroke="none"/>
    <path d="M1.5 -40.0 L-1.5 -40.0 -1.5 -61.0 1.5 -61.0 1.5 -40.0" fill="#728f67" fill-rule="evenodd" stroke="none"/>
  </g>
  <defs>
    <linearGradient gradientTransform="matrix(0.0183, 0.0, 0.0, 0.0073, 0.0, 74.0)" gradientUnits="userSpaceOnUse" id="gradient0" spreadMethod="pad" x1="-819.2" x2="819.2">
      <stop offset="0.0" stop-color="#2f3829"/>
      <stop offset="0.49411764705882355" stop-color="#5e7755"/>
      <stop offset="1.0" stop-color="#333e2d"/>
    </linearGradient>
    <linearGradient gradientTransform="matrix(0.0232, 0.0, 0.0, 0.0208, 0.0, 51.0)" gradientUnits="userSpaceOnUse" id="gradient1" spreadMethod="pad" x1="-819.2" x2="819.2">
      <stop offset="0.0" stop-color="#6d6d6d"/>
      <stop offset="0.49411764705882355" stop-color="#b8b8b8"/>
      <stop offset="1.0" stop-color="#717171"/>
    </linearGradient>
    <linearGradient gradientTransform="matrix(0.0232, 0.0, 0.0, 0.0208, 0.0, 51.0)" gradientUnits="userSpaceOnUse" id="gradient2" spreadMethod="pad" x1="-819.2" x2="819.2">
      <stop offset="0.0" stop-color="#636363"/>
      <stop offset="0.49411764705882355" stop-color="#989898"/>
      <stop offset="1.0" stop-color="#5b5b5b"/>
    </linearGradient>
    <linearGradient gradientTransform="matrix(0.0195, 0.0, 0.0, 6.0E-4, 0.0, 67.5)" gradientUnits="userSpaceOnUse" id="gradient3" spreadMethod="pad" x1="-819.2" x2="819.2">
      <stop offset="0.0" stop-color="#0e0e0e"/>
      <stop offset="0.47058823529411764" stop-color="#151515"/>
      <stop offset="1.0" stop-color="#1c1c1c"/>
    </linearGradient>
    <linearGradient gradientTransform="matrix(0.0232, 0.0, 0.0, 0.0238, 0.0, 14.5)" gradientUnits="userSpaceOnUse" id="gradient4" spreadMethod="pad" x1="-819.2" x2="819.2">
      <stop offset="0.0" stop-color="#374532"/>
      <stop offset="0.49411764705882355" stop-color="#67855c"/>
      <stop offset="1.0" stop-color="#34422f"/>
    </linearGradient>
    <linearGradient gradientTransform="matrix(0.0124, 0.0, 0.0, 0.0014, 0.0, -4.0)" gradientUnits="userSpaceOnUse" id="gradient5" spreadMethod="pad" x1="-819.2" x2="819.2">
      <stop offset="0.0" stop-color="#1b232c"/>
      <stop offset="0.49019607843137253" stop-color="#000000"/>
      <stop offset="1.0" stop-color="#10151b"/>
    </linearGradient>
    <linearGradient gradientTransform="matrix(0.0116, 0.0, 0.0, 0.0195, -14.5, -45.0)" gradientUnits="userSpaceOnUse" id="gradient6" spreadMethod="pad" x1="-819.2" x2="819.2">
      <stop offset="0.0" stop-color="#374532"/>
      <stop offset="1.0" stop-color="#47573e"/>
    </linearGradient>
    <linearGradient gradientTransform="matrix(0.0116, 0.0, 0.0, 0.0195, 14.5, -45.0)" gradientUnits="userSpaceOnUse" id="gradient7" spreadMethod="pad" x1="-819.2" x2="819.2">
      <stop offset="0.0" stop-color="#374532"/>
      <stop offset="1.0" stop-color="#47573e"/>
    </linearGradient>
    <linearGradient gradientTransform="matrix(0.0232, 0.0, 0.0, 0.0037, 0.0, -8.0)" gradientUnits="userSpaceOnUse" id="gradient8" spreadMethod="pad" x1="-819.2" x2="819.2">
      <stop offset="0.0" stop-color="#8b2301"/>
      <stop offset="0.49411764705882355" stop-color="#fc460a"/>
      <stop offset="1.0" stop-color="#701d01"/>
    </linearGradient>
    <linearGradient gradientTransform="matrix(0.0232, 0.0, 0.0, 0.022, 0.0, -29.0)" gradientUnits="userSpaceOnUse" id="gradient9" spreadMethod="pad" x1="-819.2" x2="819.2">
      <stop offset="0.0" stop-color="#374532"/>
      <stop offset="0.49411764705882355" stop-color="#67855c"/>
      <stop offset="1.0" stop-color="#34422f"/>
    </linearGradient>
    <linearGradient gradientTransform="matrix(0.0061, 0.0, 0.0, 0.0024, 0.0, -50.0)" gradientUnits="userSpaceOnUse" id="gradient10" spreadMethod="pad" x1="-819.2" x2="819.2">
      <stop offset="0.0" stop-color="#3a4433"/>
      <stop offset="0.49411764705882355" stop-color="#587050"/>
      <stop offset="1.0" stop-color="#343e2d"/>
    </linearGradient>
  </defs>
</svg>
