<?xml version="1.0" encoding="UTF-8" standalone="no"?>
<svg xmlns:xlink="http://www.w3.org/1999/xlink" height="129.0px" width="163.5px" xmlns="http://www.w3.org/2000/svg">
  <g transform="matrix(1.0, 0.0, 0.0, 1.0, -3.0, 136.5)">
    <path d="M158.6 -128.7 Q166.0 -122.65 166.0 -120.0 166.0 -118.1 160.5 -116.25 158.35 -115.4 152.0 -111.0 L143.2 -104.6 Q138.15 -101.0 136.5 -100.5 132.05 -100.65 126.95 -99.4 123.2 -98.45 120.75 -97.25 110.8 -92.2 106.75 -87.75 L100.7 -81.55 96.0 -76.5 Q93.9 -75.7 89.85 -73.2 L84.25 -69.5 71.0 -59.25 Q65.45 -54.6 61.5 -49.25 57.85 -48.55 51.1 -42.25 42.9 -34.6 41.5 -33.75 L35.4 -29.45 Q32.65 -27.4 30.5 -26.75 28.6 -26.15 25.95 -24.1 L21.9 -20.7 18.75 -19.5 18.75 -22.0 Q18.85 -23.65 25.65 -27.15 33.5 -31.15 35.0 -32.75 40.1 -36.65 43.6 -40.6 L47.05 -44.75 Q48.6 -46.85 49.5 -49.0 L53.65 -50.05 Q56.35 -50.9 58.0 -52.25 L62.1 -55.55 Q64.05 -57.1 65.0 -58.25 69.9 -64.2 70.5 -65.5 73.0 -66.8 74.0 -68.05 75.05 -69.35 75.5 -71.75 81.55 -71.25 86.45 -75.65 89.2 -78.1 93.0 -83.0 95.5 -84.6 101.0 -89.15 L111.25 -97.75 Q114.15 -100.15 116.1 -102.3 L118.85 -105.3 Q121.2 -105.95 124.4 -108.15 128.75 -111.15 131.5 -115.25 135.0 -120.5 140.55 -126.75 L149.0 -136.0 158.6 -128.7 M14.75 -18.3 L14.65 -17.55 Q14.0 -13.65 10.8 -11.65 5.95 -9.55 3.5 -8.0 5.45 -12.3 6.4 -13.0 L8.6 -14.05 Q10.55 -14.95 11.35 -15.6 L14.75 -18.3" fill="url(#gradient0)" fill-rule="evenodd" stroke="none"/>
    <path d="M158.6 -128.7 Q166.0 -122.65 166.0 -120.0 166.0 -118.1 160.5 -116.25 158.35 -115.4 152.0 -111.0 L143.2 -104.6 Q138.15 -101.0 136.5 -100.5 132.05 -100.65 126.95 -99.4 123.2 -98.45 120.75 -97.25 110.8 -92.2 106.75 -87.75 L100.7 -81.55 96.0 -76.5 Q93.9 -75.7 89.85 -73.2 L84.25 -69.5 71.0 -59.25 Q65.45 -54.6 61.5 -49.25 57.85 -48.55 51.1 -42.25 42.9 -34.6 41.5 -33.75 L35.4 -29.45 Q32.65 -27.4 30.5 -26.75 28.6 -26.15 25.95 -24.1 L21.9 -20.7 18.75 -19.5 18.75 -22.0 Q18.85 -23.65 25.65 -27.15 33.5 -31.15 35.0 -32.75 40.1 -36.65 43.6 -40.6 L47.05 -44.75 Q48.6 -46.85 49.5 -49.0 L53.65 -50.05 Q56.35 -50.9 58.0 -52.25 L62.1 -55.55 Q64.05 -57.1 65.0 -58.25 69.9 -64.2 70.5 -65.5 73.0 -66.8 74.0 -68.05 75.05 -69.35 75.5 -71.75 81.55 -71.25 86.45 -75.65 89.2 -78.1 93.0 -83.0 95.5 -84.6 101.0 -89.15 L111.25 -97.75 Q114.15 -100.15 116.1 -102.3 L118.85 -105.3 Q121.2 -105.95 124.4 -108.15 128.75 -111.15 131.5 -115.25 135.0 -120.5 140.55 -126.75 L149.0 -136.0 158.6 -128.7 M14.75 -18.3 L11.35 -15.6 Q10.55 -14.95 8.6 -14.05 L6.4 -13.0 Q5.45 -12.3 3.5 -8.0 5.95 -9.55 10.8 -11.65 14.0 -13.65 14.65 -17.55 L14.75 -18.3" fill="none" stroke="#ffcc33" stroke-linecap="round" stroke-linejoin="round" stroke-width="1.0"/>
  </g>
  <defs>
    <radialGradient cx="0" cy="0" gradientTransform="matrix(0.0602, 0.0666, -0.19, 0.1717, 137.45, -109.2)" gradientUnits="userSpaceOnUse" id="gradient0" r="819.2" spreadMethod="pad">
      <stop offset="0.0" stop-color="#fefddc"/>
      <stop offset="0.37254901960784315" stop-color="#f9f868"/>
      <stop offset="0.7803921568627451" stop-color="#f5bb50"/>
      <stop offset="1.0" stop-color="#f5bb50" stop-opacity="0.0"/>
    </radialGradient>
  </defs>
</svg>
