<?xml version="1.0" encoding="UTF-8" standalone="no"?>
<svg xmlns:xlink="http://www.w3.org/1999/xlink" height="12.0px" width="11.0px" xmlns="http://www.w3.org/2000/svg">
  <g transform="matrix(1.0, 0.0, 0.0, 1.0, 6.0, 6.0)">
    <path d="M5.0 -6.0 L5.0 6.0 -6.0 6.0 -6.0 -6.0 5.0 -6.0" fill="url(#gradient0)" fill-rule="evenodd" stroke="none"/>
    <path d="M2.0 6.0 L1.0 6.0 1.0 -6.0 2.0 -6.0 2.0 6.0 M3.0 -6.0 L4.0 -6.0 4.0 6.0 3.0 6.0 3.0 -6.0 M-4.0 6.0 L-5.0 6.0 -5.0 -6.0 -4.0 -6.0 -4.0 6.0 M-3.0 -6.0 L-2.0 -6.0 -2.0 6.0 -3.0 6.0 -3.0 -6.0" fill="#000000" fill-opacity="0.2" fill-rule="evenodd" stroke="none"/>
    <path d="M2.0 -6.0 L3.0 -6.0 3.0 6.0 2.0 6.0 2.0 -6.0 M-4.0 -6.0 L-3.0 -6.0 -3.0 6.0 -4.0 6.0 -4.0 -6.0" fill="#8d8d8d" fill-opacity="0.16078432" fill-rule="evenodd" stroke="none"/>
  </g>
  <defs>
    <linearGradient gradientTransform="matrix(-3.0E-4, 0.0079, -0.0073, -3.0E-4, -1.95, -0.05)" gradientUnits="userSpaceOnUse" id="gradient0" spreadMethod="pad" x1="-819.2" x2="819.2">
      <stop offset="0.0" stop-color="#4a4a4a"/>
      <stop offset="0.9411764705882353" stop-color="#2e2e2e"/>
    </linearGradient>
  </defs>
</svg>
