<?xml version="1.0" encoding="UTF-8" standalone="no"?>
<svg xmlns:xlink="http://www.w3.org/1999/xlink" height="24.65px" width="24.55px" xmlns="http://www.w3.org/2000/svg">
  <g transform="matrix(1.0, 0.0, 0.0, 1.0, 12.25, 12.3)">
    <path d="M6.7 -3.75 L3.2 0.0 6.7 3.8 9.0 6.8 Q11.4 9.55 12.0 10.8 12.45 11.75 12.05 12.15 L10.7 12.1 Q9.45 11.5 6.65 9.1 L3.7 6.75 -0.05 3.3 -3.75 6.7 -6.7 9.0 Q-9.5 11.4 -10.75 12.0 L-12.05 12.05 Q-12.45 11.65 -12.0 10.7 -11.4 9.45 -9.0 6.65 L-6.7 3.7 -3.25 0.0 -6.65 -3.65 -9.0 -6.65 Q-11.35 -9.4 -12.0 -10.65 -12.4 -11.6 -12.0 -12.0 L-10.65 -11.95 Q-9.45 -11.35 -6.7 -8.95 L-3.75 -6.6 -0.05 -3.25 3.7 -6.75 6.75 -9.1 Q9.5 -11.45 10.75 -12.05 L12.1 -12.1 Q12.5 -11.7 12.0 -10.8 11.4 -9.55 9.05 -6.75 L6.7 -3.75" fill="#cc0000" fill-rule="evenodd" stroke="none"/>
  </g>
</svg>
