<?xml version="1.0" encoding="UTF-8" standalone="no"?>
<svg xmlns:xlink="http://www.w3.org/1999/xlink" height="46.85px" width="46.85px" xmlns="http://www.w3.org/2000/svg">
  <g transform="matrix(1.0, 0.0, 0.0, 1.0, 23.4, 23.45)">
    <path d="M20.8 -22.5 Q22.8 -23.8 23.3 -23.3 23.7 -22.85 22.55 -21.0 L18.05 -15.1 16.3 -13.1 11.05 -7.15 4.2 0.0 4.35 0.15 11.5 7.65 16.5 13.35 18.05 15.1 Q21.5 19.2 22.75 21.25 23.7 22.85 23.35 23.25 L22.8 23.4 Q22.05 23.35 20.45 22.3 L15.05 18.15 12.75 16.15 7.2 11.2 0.15 4.5 -0.1 4.3 -7.25 11.15 -12.75 16.0 -15.05 18.0 -20.75 22.45 Q-22.8 23.7 -23.25 23.25 -23.75 22.75 -22.55 20.85 -21.3 18.8 -18.0 14.95 L-16.2 12.85 -11.55 7.55 -5.0 0.75 -4.35 -0.05 -10.7 -6.7 -15.85 -12.5 -18.05 -15.05 -22.1 -20.2 Q-23.35 -22.1 -23.3 -22.85 L-23.15 -23.25 Q-22.65 -23.6 -20.85 -22.45 L-15.0 -17.95 -13.0 -16.2 -7.3 -11.15 -0.3 -4.5 -0.05 -4.3 7.25 -11.3 12.9 -16.3 15.05 -18.1 Q18.75 -21.2 20.8 -22.5" fill="#cc0000" fill-rule="evenodd" stroke="none"/>
  </g>
</svg>
