<?xml version="1.0" encoding="UTF-8" standalone="no"?>
<svg xmlns:xlink="http://www.w3.org/1999/xlink" height="51.95px" width="51.95px" xmlns="http://www.w3.org/2000/svg">
  <g transform="matrix(1.0, 0.0, 0.0, 1.0, 25.95, 25.95)">
    <path d="M24.0 -25.45 Q24.85 -25.9 25.3 -25.95 L25.45 -25.9 25.55 -25.9 Q25.85 -25.85 25.75 -25.35 L25.75 -25.25 25.75 -25.2 25.7 -25.0 25.35 -24.05 24.65 -22.9 24.3 -22.35 20.7 -17.7 20.2 -17.1 19.9 -16.8 19.5 -16.25 19.2 -15.95 18.4 -15.0 17.65 -14.15 17.2 -13.7 12.7 -8.6 12.0 -7.9 11.45 -7.3 5.0 -0.6 4.85 -0.4 4.7 -0.2 4.7 0.35 4.95 0.55 5.05 0.65 12.05 7.95 12.65 8.6 12.9 8.9 17.65 14.15 17.85 14.35 18.35 14.9 19.45 16.2 19.55 16.35 19.9 16.8 20.0 16.9 20.1 17.0 24.65 22.75 24.95 23.2 25.5 24.1 25.95 25.1 25.95 25.25 25.95 25.8 25.85 25.9 25.45 26.0 24.85 25.85 23.6 25.25 23.4 25.1 22.4 24.5 17.65 20.75 17.1 20.3 17.05 20.25 16.8 20.05 16.55 19.85 15.1 18.6 14.4 17.9 14.25 17.8 9.15 13.3 8.5 12.7 7.95 12.2 1.2 5.75 1.05 5.65 0.2 4.85 -0.45 4.85 -7.15 11.3 -7.85 11.95 -8.2 12.25 -13.3 16.9 -13.8 17.35 -14.4 17.85 -16.1 19.3 -16.45 19.65 -17.05 20.1 Q-20.4 22.95 -22.5 24.4 L-22.9 24.7 -23.45 25.05 -25.25 25.8 -25.45 25.8 -25.85 25.5 -25.4 23.95 -25.25 23.7 -24.8 22.95 Q-23.4 20.8 -20.35 17.2 L-20.15 17.0 -19.9 16.7 -19.7 16.45 -19.45 16.15 -18.15 14.6 -17.65 14.05 -17.4 13.75 -12.95 8.8 -12.6 8.45 -12.15 7.95 -5.75 1.25 -5.2 0.75 -5.0 0.5 -4.9 0.35 -4.8 0.25 -4.8 0.1 -4.7 -0.2 -4.85 -0.35 -11.35 -7.2 -11.55 -7.4 -11.95 -7.8 -17.15 -13.6 -17.5 -13.95 -17.7 -14.15 -19.7 -16.5 -19.9 -16.7 -20.0 -16.8 -20.15 -17.0 -24.35 -22.35 -24.55 -22.65 Q-25.75 -24.35 -25.9 -25.2 L-25.95 -25.4 -25.8 -25.8 -25.75 -25.85 Q-25.3 -26.2 -23.45 -25.05 L-23.35 -25.0 Q-21.15 -23.6 -17.1 -20.15 L-16.9 -20.0 -16.75 -19.9 -16.6 -19.8 -14.8 -18.15 -14.7 -18.05 -14.45 -17.9 -8.35 -12.4 -8.15 -12.2 -8.05 -12.1 -0.55 -4.95 -0.4 -4.8 -0.35 -4.75 -0.3 -4.75 -0.1 -4.6 -0.1 -4.55 -0.05 -4.55 0.05 -4.65 7.6 -11.9 7.8 -12.1 8.35 -12.55 13.85 -17.5 14.2 -17.8 14.6 -18.15 16.2 -19.55 16.5 -19.8 16.85 -20.15 17.2 -20.45 17.55 -20.75 22.7 -24.65 23.5 -25.2 24.0 -25.45" fill="#cc0000" fill-rule="evenodd" stroke="none"/>
  </g>
</svg>
