<?xml version="1.0" encoding="UTF-8" standalone="no"?>
<svg xmlns:xlink="http://www.w3.org/1999/xlink" height="53.45px" width="53.35px" xmlns="http://www.w3.org/2000/svg">
  <g transform="matrix(1.0, 0.0, 0.0, 1.0, 26.65, 26.75)">
    <path d="M26.5 -26.6 L26.55 -26.6 Q26.95 -26.15 25.7 -24.2 24.3 -21.9 20.75 -17.65 L20.4 -17.2 18.5 -15.0 12.65 -8.5 4.8 -0.35 4.65 -0.15 4.5 0.05 12.55 8.4 18.15 14.6 20.0 16.7 20.45 17.3 Q24.0 21.45 25.55 23.75 26.5 25.2 26.65 25.9 26.75 26.45 26.5 26.6 26.05 27.05 23.85 25.65 L17.6 20.8 17.1 20.45 14.9 18.5 8.6 12.85 0.45 5.1 0.15 4.85 -0.15 4.6 -8.05 12.2 -14.4 17.95 -17.15 20.3 Q-21.4 23.95 -23.75 25.45 -26.0 26.9 -26.55 26.5 -27.0 26.0 -25.6 23.85 -24.1 21.5 -20.4 17.1 L-20.15 16.8 -17.95 14.25 -12.65 8.35 -5.1 0.55 -4.6 0.0 -4.75 -0.2 -12.0 -7.8 -18.0 -14.4 -20.35 -17.1 -20.55 -17.35 -25.05 -23.1 Q-26.6 -25.2 -26.6 -26.05 L-26.45 -26.5 Q-26.0 -26.9 -24.0 -25.65 L-17.4 -20.55 -17.1 -20.3 -15.1 -18.55 -8.5 -12.6 -0.55 -5.0 -0.35 -4.8 -0.05 -4.6 7.85 -12.2 14.3 -18.0 16.9 -20.25 17.2 -20.55 Q21.3 -24.0 23.65 -25.5 25.7 -26.9 26.4 -26.7 L26.5 -26.6" fill="#cc0000" fill-rule="evenodd" stroke="none"/>
  </g>
</svg>
