<?xml version="1.0" encoding="UTF-8" standalone="no"?>
<svg xmlns:xlink="http://www.w3.org/1999/xlink" height="158.5px" width="108.85px" xmlns="http://www.w3.org/2000/svg">
  <g transform="matrix(1.0, 0.0, 0.0, 1.0, -24.4, 8.75)">
    <path d="M130.05 24.05 Q137.25 55.55 128.2 88.6 120.75 108.8 126.1 116.0 L126.9 117.55 Q128.75 121.05 122.6 125.3 116.35 129.75 105.85 133.35 95.2 137.25 88.3 140.5 81.6 144.7 82.45 139.7 83.25 133.45 89.45 120.75 95.35 108.5 103.45 106.05 111.7 104.7 118.35 109.75 L122.0 112.3 Q117.95 105.05 124.5 84.8 133.05 54.5 126.4 25.6 106.6 1.4 86.95 2.4 77.4 3.15 70.0 11.45 64.8 22.6 55.95 16.5 65.35 45.0 73.35 73.05 L72.3 133.3 72.45 136.3 Q72.4 143.8 68.1 148.1 63.75 151.8 54.35 147.25 44.1 142.55 34.0 140.2 23.75 139.35 24.45 132.85 25.45 124.05 34.85 110.8 43.65 98.6 53.6 103.4 63.3 109.7 68.2 120.55 69.55 123.25 70.5 125.9 71.45 95.95 68.8 64.15 57.2 37.35 50.0 6.75 L49.75 2.05 Q62.0 11.5 66.65 2.1 74.1 -7.8 84.9 -8.7 107.2 -9.7 129.65 20.7 L130.05 24.05" fill="#c6c6c6" fill-rule="evenodd" stroke="none"/>
  </g>
</svg>
