<?xml version="1.0" encoding="UTF-8" standalone="no"?>
<svg xmlns:xlink="http://www.w3.org/1999/xlink" height="152.1px" width="128.25px" xmlns="http://www.w3.org/2000/svg">
  <g transform="matrix(1.0, 0.0, 0.0, 1.0, -4.25, 8.25)">
    <path d="M49.3 -8.25 Q51.8 -5.75 57.3 -4.25 60.6 -3.6 69.3 0.85 91.65 16.4 112.8 40.35 129.25 57.75 132.1 71.75 134.2 80.1 125.65 89.85 116.8 97.45 108.3 101.25 90.85 107.2 68.6 110.9 98.4 105.1 117.0 92.2 130.8 80.25 123.95 63.7 117.3 49.25 106.85 39.15 93.65 24.6 78.0 18.0 66.8 14.5 58.75 20.75 81.1 48.35 58.2 86.7 43.25 109.0 48.05 123.9 48.8 124.45 49.15 125.35 50.25 130.55 44.95 139.35 39.9 147.4 32.05 141.05 24.3 133.25 16.95 124.0 9.3 116.4 5.8 112.2 2.3 106.85 6.6 105.3 11.25 104.6 21.45 111.85 31.55 118.9 39.4 121.55 L43.45 122.55 Q37.75 109.85 64.4 65.75 66.8 45.0 56.8 28.2 46.8 11.45 45.75 -4.7 47.15 -5.6 49.3 -8.25" fill="#c6c6c6" fill-rule="evenodd" stroke="none"/>
  </g>
</svg>
