<?xml version="1.0" encoding="UTF-8" standalone="no"?>
<svg xmlns:xlink="http://www.w3.org/1999/xlink" height="153.1px" width="101.0px" xmlns="http://www.w3.org/2000/svg">
  <g transform="matrix(1.0, 0.0, 0.0, 1.0, 57.55, -0.1)">
    <path d="M41.15 19.0 Q36.15 28.15 25.3 33.1 15.7 38.2 2.7 37.05 -11.25 35.55 -22.75 29.6 -25.7 27.7 -26.85 25.75 -40.2 42.9 -47.7 59.45 -58.9 75.5 -49.1 83.15 -36.35 96.25 -24.75 115.7 -13.0 135.05 -35.65 153.2 L-44.8 153.2 Q-19.0 133.75 -32.15 113.05 -45.3 92.3 -57.25 79.7 -60.6 59.3 -26.9 18.7 -26.15 17.1 -24.8 15.65 -19.05 8.7 -4.05 5.35 10.85 1.45 23.1 0.3 39.0 -0.75 41.7 3.8 45.45 9.2 41.15 19.0" fill="#c6c6c6" fill-rule="evenodd" stroke="none"/>
  </g>
</svg>
