<?xml version="1.0" encoding="UTF-8" standalone="no"?>
<svg xmlns:xlink="http://www.w3.org/1999/xlink" height="148.0px" width="88.0px" xmlns="http://www.w3.org/2000/svg">
  <g transform="matrix(1.0, 0.0, 0.0, 1.0, 44.0, 74.0)">
    <path d="M1.3 -73.55 L16.9 -60.65 17.75 -59.9 Q18.45 -59.1 18.5 -58.2 L19.95 -57.9 20.75 -57.5 30.75 -49.2 Q31.35 -48.65 31.45 -47.8 31.55 -47.0 31.0 -46.35 L24.8 -38.85 28.1 -36.35 28.85 -35.2 Q29.0 -34.55 28.75 -33.9 L28.55 -33.5 31.15 -31.1 Q44.0 -18.25 44.0 0.0 44.0 18.25 31.15 31.15 L28.55 33.55 28.75 33.95 Q29.0 34.55 28.85 35.25 28.65 35.9 28.1 36.35 L24.8 38.9 31.0 46.4 Q31.55 47.0 31.45 47.85 31.35 48.65 30.75 49.2 L20.75 57.5 Q20.35 57.8 19.95 57.9 L18.5 58.25 Q18.45 59.25 17.65 60.1 L17.5 60.2 17.15 60.5 1.3 73.55 0.0 74.0 Q-0.7 74.0 -1.25 73.55 L-17.0 60.55 -17.8 59.8 -17.65 60.0 Q-18.45 59.2 -18.5 58.25 L-19.9 57.9 -20.7 57.5 -30.7 49.2 Q-31.35 48.65 -31.45 47.85 -31.55 47.0 -31.0 46.4 L-24.75 38.9 -28.1 36.35 Q-28.65 35.9 -28.85 35.25 -29.0 34.55 -28.7 33.95 L-28.55 33.55 -31.1 31.15 Q-44.0 18.25 -44.0 0.0 -44.0 -18.25 -31.1 -31.1 L-28.55 -33.5 -28.75 -33.9 Q-29.05 -34.55 -28.85 -35.2 -28.7 -35.9 -28.15 -36.3 L-28.1 -36.35 -24.8 -38.85 -31.0 -46.35 Q-31.55 -47.0 -31.45 -47.8 -31.35 -48.65 -30.7 -49.15 L-20.7 -57.5 -19.9 -57.9 -18.5 -58.25 Q-18.45 -59.2 -17.65 -60.0 L-17.5 -60.15 -17.15 -60.45 -17.1 -60.5 -1.25 -73.55 Q-0.7 -74.0 0.0 -74.0 L1.3 -73.55" fill="#000000" fill-rule="evenodd" stroke="none"/>
    <path d="M12.8 -40.1 Q22.2 -37.2 29.7 -29.7 42.0 -17.4 42.0 0.0 42.0 17.4 29.7 29.7 17.4 42.0 0.0 42.0 -17.4 42.0 -29.7 29.7 -42.0 17.4 -42.0 0.0 -42.0 -17.4 -29.7 -29.7 -21.45 -37.95 -10.9 -40.65 -5.75 -42.0 0.0 -42.0 6.8 -42.0 12.8 -40.1" fill="#697238" fill-rule="evenodd" stroke="none"/>
    <path d="M28.25 -28.3 Q40.0 -16.55 40.0 0.0 40.0 16.55 28.25 28.25 16.55 40.0 0.0 40.0 -16.55 40.0 -28.3 28.25 -40.0 16.55 -40.0 0.0 -40.0 -16.55 -28.3 -28.3 -16.55 -40.0 0.0 -40.0 16.55 -40.0 28.25 -28.3" fill="url(#gradient0)" fill-rule="evenodd" stroke="none"/>
    <path d="M25.45 -25.45 Q36.0 -14.9 36.0 0.0 36.0 14.9 25.45 25.45 14.9 36.0 0.0 36.0 -14.9 36.0 -25.45 25.45 -36.0 14.9 -36.0 0.0 -36.0 -14.9 -25.45 -25.45 -14.9 -36.0 0.0 -36.0 14.9 -36.0 25.45 -25.45" fill="url(#gradient1)" fill-rule="evenodd" stroke="none"/>
    <path d="M7.05 -37.15 L7.05 37.05 2.35 37.05 2.35 -37.15 7.05 -37.15" fill="#23ab05" fill-rule="evenodd" stroke="none"/>
    <path d="M-14.35 -6.35 Q-16.7 -4.0 -20.0 -4.0 -23.3 -4.0 -25.65 -6.35 -28.0 -8.7 -28.0 -12.0 -28.0 -15.3 -25.65 -17.65 -23.3 -20.0 -20.0 -20.0 -16.7 -20.0 -14.35 -17.65 -12.0 -15.3 -12.0 -12.0 -12.0 -8.7 -14.35 -6.35" fill="url(#gradient2)" fill-rule="evenodd" stroke="none"/>
    <path d="M-15.85 -58.95 Q-14.8 -59.75 -11.7 -60.35 L0.0 -61.3 11.65 -60.35 Q14.55 -59.75 15.75 -59.0 L16.25 -58.55 16.5 -58.0 Q16.5 -56.65 11.65 -55.7 L0.0 -54.7 -11.7 -55.7 Q-16.5 -56.65 -16.5 -58.0 L-16.2 -58.65 -15.85 -58.95 M-15.85 58.95 L-16.2 58.65 -16.5 58.0 Q-16.5 56.65 -11.7 55.7 L0.0 54.7 11.65 55.7 Q16.5 56.65 16.5 58.0 L16.25 58.55 15.75 59.0 Q14.55 59.75 11.65 60.35 L0.0 61.3 -11.7 60.35 Q-14.8 59.75 -15.85 58.95" fill="#2b2b15" fill-rule="evenodd" stroke="none"/>
    <path d="M15.75 -59.0 Q14.55 -59.75 11.65 -60.35 L0.0 -61.3 -11.7 -60.35 Q-14.8 -59.75 -15.85 -58.95 L0.0 -72.0 15.75 -59.0" fill="url(#gradient3)" fill-rule="evenodd" stroke="none"/>
    <path d="M15.75 59.0 L0.0 72.0 -15.85 58.95 Q-14.8 59.75 -11.7 60.35 L0.0 61.3 11.65 60.35 Q14.55 59.75 15.75 59.0" fill="url(#gradient4)" fill-rule="evenodd" stroke="none"/>
    <path d="M4.0 -35.1 L4.0 0.0 -4.0 0.0 -4.0 -35.1 -4.0 -36.0 4.0 -36.0 4.0 -35.1" fill="url(#gradient5)" fill-rule="evenodd" stroke="none"/>
    <path d="M26.9 -34.75 L26.05 -32.9 25.45 -33.05 Q16.35 -34.85 4.0 -35.1 L4.0 -36.0 -4.0 -36.0 -4.0 -35.1 Q-16.35 -34.85 -25.45 -33.05 L-26.05 -32.9 -26.9 -34.75 -25.45 -35.05 Q-14.9 -37.15 0.0 -37.15 14.9 -37.15 25.45 -35.05 L26.9 -34.75 M4.0 35.1 Q16.35 34.85 25.45 33.05 L26.05 32.9 26.9 34.75 25.45 35.05 Q14.9 37.15 0.0 37.15 -14.9 37.15 -25.45 35.05 L-26.9 34.75 -26.05 32.9 -25.45 33.05 Q-16.35 34.85 -4.0 35.1 L-4.0 36.0 4.0 36.0 4.0 35.1" fill="#697238" fill-rule="evenodd" stroke="none"/>
    <path d="M21.9 -38.55 L26.9 -34.75 25.45 -35.05 Q14.9 -37.15 0.0 -37.15 -14.9 -37.15 -25.45 -35.05 L-26.9 -34.75 -21.9 -38.55 -19.8 -39.1 Q-11.6 -41.0 0.0 -41.0 11.6 -41.0 19.8 -39.1 L21.9 -38.55" fill="url(#gradient6)" fill-rule="evenodd" stroke="none"/>
    <path d="M-29.45 -47.65 Q-22.45 -49.1 -14.0 -49.75 L0.0 -50.25 14.0 -49.75 Q22.45 -49.1 29.45 -47.65 L21.9 -38.55 19.8 -39.1 Q11.6 -41.0 0.0 -41.0 -11.6 -41.0 -19.8 -39.1 L-21.9 -38.55 -29.45 -47.65" fill="url(#gradient7)" fill-rule="evenodd" stroke="none"/>
    <path d="M-29.45 -47.65 L-19.45 -55.95 Q-11.05 -58.0 0.0 -58.0 11.05 -58.0 19.45 -55.95 L29.45 -47.65 Q22.45 -49.1 14.0 -49.75 L0.0 -50.25 -14.0 -49.75 Q-22.45 -49.1 -29.45 -47.65" fill="url(#gradient8)" fill-rule="evenodd" stroke="none"/>
    <path d="M4.0 0.0 L4.0 35.1 4.0 36.0 -4.0 36.0 -4.0 35.1 -4.0 0.0 4.0 0.0" fill="url(#gradient9)" fill-rule="evenodd" stroke="none"/>
    <path d="M21.9 38.55 L29.45 47.65 Q22.45 49.1 14.0 49.75 L0.0 50.25 -14.0 49.75 Q-22.45 49.1 -29.45 47.65 L-21.9 38.55 -19.8 39.1 Q-11.6 41.0 0.0 41.0 11.6 41.0 19.8 39.1 L21.9 38.55" fill="url(#gradient10)" fill-rule="evenodd" stroke="none"/>
    <path d="M26.9 34.75 L21.9 38.55 19.8 39.1 Q11.6 41.0 0.0 41.0 -11.6 41.0 -19.8 39.1 L-21.9 38.55 -26.9 34.75 -25.45 35.05 Q-14.9 37.15 0.0 37.15 14.9 37.15 25.45 35.05 L26.9 34.75" fill="url(#gradient11)" fill-rule="evenodd" stroke="none"/>
    <path d="M29.45 47.65 L19.45 55.95 Q11.05 58.0 0.0 58.0 -11.05 58.0 -19.45 55.95 L-29.45 47.65 Q-22.45 49.1 -14.0 49.75 L0.0 50.25 14.0 49.75 Q22.45 49.1 29.45 47.65" fill="url(#gradient12)" fill-rule="evenodd" stroke="none"/>
  </g>
  <defs>
    <linearGradient gradientTransform="matrix(0.0488, 0.0, 0.0, 0.0488, 0.0, 0.0)" gradientUnits="userSpaceOnUse" id="gradient0" spreadMethod="pad" x1="-819.2" x2="819.2">
      <stop offset="0.00392156862745098" stop-color="#aafe8d"/>
      <stop offset="0.592156862745098" stop-color="#6cfd3b"/>
      <stop offset="0.6980392156862745" stop-color="#41f105"/>
    </linearGradient>
    <radialGradient cx="0" cy="0" gradientTransform="matrix(0.0603, 0.0, 0.0, 0.0603, 20.0, 0.0)" gradientUnits="userSpaceOnUse" id="gradient1" r="819.2" spreadMethod="pad">
      <stop offset="0.1568627450980392" stop-color="#0b8a0b"/>
      <stop offset="0.6" stop-color="#03e714"/>
      <stop offset="0.796078431372549" stop-color="#0df21e"/>
      <stop offset="1.0" stop-color="#56fc1f"/>
    </radialGradient>
    <radialGradient cx="0" cy="0" gradientTransform="matrix(0.0107, 0.0, 0.0, 0.0107, -20.0, -12.0)" gradientUnits="userSpaceOnUse" id="gradient2" r="819.2" spreadMethod="pad">
      <stop offset="0.18823529411764706" stop-color="#ffffff"/>
      <stop offset="0.49019607843137253" stop-color="#d6fc83"/>
      <stop offset="1.0" stop-color="#66f318" stop-opacity="0.0"/>
    </radialGradient>
    <radialGradient cx="0" cy="0" gradientTransform="matrix(0.0, -0.0148, 0.0189, 0.0, 0.0, -61.4)" gradientUnits="userSpaceOnUse" id="gradient3" r="819.2" spreadMethod="pad">
      <stop offset="0.0" stop-color="#a1a460"/>
      <stop offset="0.32941176470588235" stop-color="#676a36"/>
      <stop offset="0.796078431372549" stop-color="#454723"/>
    </radialGradient>
    <radialGradient cx="0" cy="0" gradientTransform="matrix(0.0, 0.0148, 0.0189, 0.0, 0.0, 61.4)" gradientUnits="userSpaceOnUse" id="gradient4" r="819.2" spreadMethod="pad">
      <stop offset="0.0" stop-color="#a1a460"/>
      <stop offset="0.32941176470588235" stop-color="#676a36"/>
      <stop offset="0.796078431372549" stop-color="#454723"/>
    </radialGradient>
    <linearGradient gradientTransform="matrix(0.0, 0.0439, -0.0439, 0.0, 0.0, 0.0)" gradientUnits="userSpaceOnUse" id="gradient5" spreadMethod="pad" x1="-819.2" x2="819.2">
      <stop offset="0.0" stop-color="#697238"/>
      <stop offset="0.5254901960784314" stop-color="#a9ae5e"/>
      <stop offset="1.0" stop-color="#697238"/>
    </linearGradient>
    <radialGradient cx="0" cy="0" gradientTransform="matrix(0.0, -0.0207, 0.0289, 0.0, 0.0, -44.0)" gradientUnits="userSpaceOnUse" id="gradient6" r="819.2" spreadMethod="pad">
      <stop offset="0.0" stop-color="#bcbb83"/>
      <stop offset="0.3803921568627451" stop-color="#959a50"/>
      <stop offset="1.0" stop-color="#454723"/>
    </radialGradient>
    <radialGradient cx="0" cy="0" gradientTransform="matrix(0.0362, 0.0, 0.0, 0.0362, 0.0, -44.4)" gradientUnits="userSpaceOnUse" id="gradient7" r="819.2" spreadMethod="pad">
      <stop offset="0.0" stop-color="#81804b"/>
      <stop offset="0.44313725490196076" stop-color="#666635"/>
      <stop offset="0.8509803921568627" stop-color="#2b2b15"/>
    </radialGradient>
    <radialGradient cx="0" cy="0" gradientTransform="matrix(0.0, -0.0207, 0.0289, 0.0, 0.0, -50.65)" gradientUnits="userSpaceOnUse" id="gradient8" r="819.2" spreadMethod="pad">
      <stop offset="0.0" stop-color="#a0a35e"/>
      <stop offset="0.39215686274509803" stop-color="#6e723a"/>
      <stop offset="1.0" stop-color="#454723"/>
    </radialGradient>
    <linearGradient gradientTransform="matrix(0.0, -0.0439, -0.0439, 0.0, 0.0, 0.0)" gradientUnits="userSpaceOnUse" id="gradient9" spreadMethod="pad" x1="-819.2" x2="819.2">
      <stop offset="0.0" stop-color="#697238"/>
      <stop offset="0.5254901960784314" stop-color="#a9ae5e"/>
      <stop offset="1.0" stop-color="#697238"/>
    </linearGradient>
    <radialGradient cx="0" cy="0" gradientTransform="matrix(0.0362, 0.0, 0.0, -0.0362, 0.0, 44.4)" gradientUnits="userSpaceOnUse" id="gradient10" r="819.2" spreadMethod="pad">
      <stop offset="0.0" stop-color="#81804b"/>
      <stop offset="0.44313725490196076" stop-color="#666635"/>
      <stop offset="0.8509803921568627" stop-color="#2b2b15"/>
    </radialGradient>
    <radialGradient cx="0" cy="0" gradientTransform="matrix(0.0, 0.0207, 0.0289, 0.0, 0.0, 44.0)" gradientUnits="userSpaceOnUse" id="gradient11" r="819.2" spreadMethod="pad">
      <stop offset="0.0" stop-color="#bcbb83"/>
      <stop offset="0.3803921568627451" stop-color="#959a50"/>
      <stop offset="1.0" stop-color="#454723"/>
    </radialGradient>
    <radialGradient cx="0" cy="0" gradientTransform="matrix(0.0, 0.0207, 0.0289, 0.0, 0.0, 50.65)" gradientUnits="userSpaceOnUse" id="gradient12" r="819.2" spreadMethod="pad">
      <stop offset="0.0" stop-color="#a0a35e"/>
      <stop offset="0.39215686274509803" stop-color="#6e723a"/>
      <stop offset="1.0" stop-color="#454723"/>
    </radialGradient>
  </defs>
</svg>
