<?xml version="1.0" encoding="UTF-8" standalone="no"?>
<svg xmlns:xlink="http://www.w3.org/1999/xlink" height="16.0px" width="264.0px" xmlns="http://www.w3.org/2000/svg">
  <g transform="matrix(1.0, 0.0, 0.0, 1.0, 0.0, 0.0)">
    <path d="M46.0 14.0 Q46.0 16.0 44.0 16.0 L2.0 16.0 Q0.0 16.0 0.0 14.0 L0.0 2.0 Q0.0 0.0 2.0 0.0 L44.0 0.0 Q46.0 0.0 46.0 2.0 L46.0 14.0 M200.0 14.0 Q200.0 16.0 198.0 16.0 L50.0 16.0 Q48.0 16.0 48.0 14.0 L48.0 2.0 Q48.0 0.0 50.0 0.0 L198.0 0.0 Q200.0 0.0 200.0 2.0 L200.0 14.0 M228.0 0.0 Q230.0 0.0 230.0 2.0 L230.0 14.0 Q230.0 16.0 228.0 16.0 L204.0 16.0 Q202.0 16.0 202.0 14.0 L202.0 2.0 Q202.0 0.0 204.0 0.0 L228.0 0.0 M264.0 14.0 Q264.0 16.0 262.0 16.0 L234.0 16.0 Q232.0 16.0 232.0 14.0 L232.0 2.0 Q232.0 0.0 234.0 0.0 L262.0 0.0 Q264.0 0.0 264.0 2.0 L264.0 14.0" fill="#696c6e" fill-opacity="0.13333334" fill-rule="evenodd" stroke="none"/>
  </g>
</svg>
