<?xml version="1.0" encoding="UTF-8" standalone="no"?>
<svg xmlns:xlink="http://www.w3.org/1999/xlink" height="2.0px" width="264.0px" xmlns="http://www.w3.org/2000/svg">
  <g transform="matrix(1.0, 0.0, 0.0, 1.0, 0.0, 0.0)">
    <path d="M248.0 2.0 L216.0 2.0 216.0 0.0 248.0 0.0 248.0 2.0 M46.0 0.0 L46.0 2.0 0.0 2.0 0.0 0.0 46.0 0.0 M184.0 0.0 L184.0 2.0 48.0 2.0 48.0 0.0 184.0 0.0 M214.0 0.0 L214.0 2.0 186.0 2.0 186.0 0.0 214.0 0.0" fill="#e2e2e2" fill-rule="evenodd" stroke="none"/>
    <path d="M0.0 1.0 L0.0 0.0 264.0 0.0 264.0 1.0 0.0 1.0" fill="#181819" fill-rule="evenodd" stroke="none"/>
    <path d="M264.0 1.0 L264.0 2.0 0.0 2.0 0.0 1.0 264.0 1.0" fill="#3d3d40" fill-rule="evenodd" stroke="none"/>
  </g>
</svg>
