<?xml version="1.0" encoding="UTF-8" standalone="no"?>
<svg xmlns:xlink="http://www.w3.org/1999/xlink" height="457.1px" width="457.15px" xmlns="http://www.w3.org/2000/svg">
  <g transform="matrix(1.0, 0.0, 0.0, 1.0, 228.55, 228.55)">
    <path d="M96.6 -125.9 L161.65 -161.65 125.9 -96.6 198.0 -114.3 146.6 -60.75 220.8 -59.2 157.3 -20.75 228.6 0.0 157.3 20.7 220.8 59.15 146.6 60.7 198.0 114.25 125.9 96.55 161.65 161.6 96.6 125.85 114.3 197.95 60.75 146.55 59.2 220.75 20.75 157.25 0.05 228.55 -20.7 157.25 -59.15 220.75 -60.7 146.55 -114.25 197.95 -96.55 125.85 -161.6 161.6 -125.85 96.55 -197.95 114.25 -146.55 60.7 -220.75 59.15 -157.25 20.7 -228.55 0.0 -157.25 -20.75 -220.75 -59.2 -146.55 -60.75 -197.95 -114.3 -125.85 -96.6 -161.6 -161.65 -96.55 -125.9 -114.25 -198.0 -60.7 -146.6 -59.15 -220.75 -20.7 -157.3 0.0 -228.55 20.75 -157.3 59.2 -220.75 60.75 -146.6 114.3 -198.0 96.6 -125.9 M109.0 -45.15 L147.2 -85.0 93.6 -71.8 120.2 -120.2 71.8 -93.6 85.0 -147.2 45.15 -109.0 44.0 -164.15 15.4 -116.95 0.0 -169.95 -15.35 -116.95 -43.95 -164.15 -45.1 -109.0 -84.95 -147.2 -71.75 -93.6 -120.15 -120.2 -93.55 -71.8 -147.15 -85.0 -108.95 -45.15 -164.1 -44.0 -116.9 -15.4 -169.9 0.0 -116.9 15.35 -164.1 43.95 -108.95 45.1 -147.15 84.95 -93.55 71.75 -120.15 120.15 -71.75 93.55 -84.95 147.15 -45.1 108.95 -43.95 164.1 -15.35 116.9 0.05 169.9 15.4 116.9 44.0 164.1 45.15 108.95 85.0 147.15 71.8 93.55 120.2 120.15 93.6 71.75 147.2 84.95 109.0 45.1 164.15 43.95 116.95 15.35 169.95 0.0 116.95 -15.4 164.15 -44.0 109.0 -45.15" fill="url(#gradient0)" fill-rule="evenodd" stroke="none"/>
  </g>
  <defs>
    <radialGradient cx="0" cy="0" gradientTransform="matrix(0.2791, 0.0, 0.0, 0.2791, 0.05, 0.0)" gradientUnits="userSpaceOnUse" id="gradient0" r="819.2" spreadMethod="pad">
      <stop offset="0.4235294117647059" stop-color="#071d38"/>
      <stop offset="0.6549019607843137" stop-color="#439ec9"/>
      <stop offset="0.7333333333333333" stop-color="#33bbe8"/>
      <stop offset="1.0" stop-color="#0d3948"/>
    </radialGradient>
  </defs>
</svg>
