<?xml version="1.0" encoding="UTF-8" standalone="no"?>
<svg xmlns:xlink="http://www.w3.org/1999/xlink" height="76.0px" width="47.5px" xmlns="http://www.w3.org/2000/svg">
  <g transform="matrix(1.0, 0.0, 0.0, 1.0, 23.75, 38.0)">
    <path d="M5.9 -4.85 Q8.0 -2.75 16.25 -1.75 23.75 -0.85 23.75 0.0 23.75 0.8 16.25 1.75 8.05 2.75 5.9 4.9 3.7 7.05 2.15 22.9 0.65 38.0 0.0 38.0 -0.65 38.0 -2.15 22.9 -3.7 7.05 -5.85 4.9 -8.0 2.75 -16.25 1.75 -23.75 0.8 -23.75 0.0 -23.75 -0.85 -16.25 -1.75 -8.0 -2.75 -5.85 -4.85 -3.7 -7.05 -2.15 -22.9 -0.65 -38.0 0.0 -38.0 0.65 -38.0 2.15 -22.9 3.7 -7.05 5.9 -4.85" fill="url(#gradient0)" fill-rule="evenodd" stroke="none"/>
  </g>
  <defs>
    <radialGradient cx="0" cy="0" gradientTransform="matrix(0.0317, 0.0, 0.0, 0.0467, 0.0, 0.0)" gradientUnits="userSpaceOnUse" id="gradient0" r="819.2" spreadMethod="pad">
      <stop offset="0.615686274509804" stop-color="#ffffff"/>
      <stop offset="1.0" stop-color="#92d9fa"/>
    </radialGradient>
  </defs>
</svg>
