<?xml version="1.0" encoding="UTF-8" standalone="no"?>
<svg xmlns:xlink="http://www.w3.org/1999/xlink" height="66.0px" width="66.0px" xmlns="http://www.w3.org/2000/svg">
  <g transform="matrix(1.0, 0.0, 0.0, 1.0, 33.0, 33.0)">
    <path d="M22.6 -22.65 Q32.0 -13.25 32.0 0.0 32.0 13.25 22.6 22.6 13.25 32.0 0.0 32.0 -13.25 32.0 -22.65 22.6 -32.0 13.25 -32.0 0.0 -32.0 -13.25 -22.65 -22.65 -13.25 -32.0 0.0 -32.0 13.25 -32.0 22.6 -22.65" fill="#f9e071" fill-rule="evenodd" stroke="none"/>
    <path d="M22.6 -22.65 Q32.0 -13.25 32.0 0.0 32.0 13.25 22.6 22.6 13.25 32.0 0.0 32.0 -13.25 32.0 -22.65 22.6 -32.0 13.25 -32.0 0.0 -32.0 -13.25 -22.65 -22.65 -13.25 -32.0 0.0 -32.0 13.25 -32.0 22.6 -22.65 Z" fill="none" stroke="#ffffff" stroke-linecap="round" stroke-linejoin="round" stroke-width="2.0"/>
  </g>
</svg>
