<?xml version="1.0" encoding="UTF-8" standalone="no"?>
<svg xmlns:xlink="http://www.w3.org/1999/xlink" height="103.0px" width="93.0px" xmlns="http://www.w3.org/2000/svg">
  <g transform="matrix(1.0, 0.0, 0.0, 1.0, 46.5, 51.5)">
    <path d="M1.55 -50.95 L11.55 -42.95 12.15 -42.25 Q22.8 -24.45 37.65 -11.9 L37.95 -11.55 45.95 -1.55 Q46.5 -0.85 46.5 0.0 46.5 0.85 45.95 1.55 L37.95 11.55 37.65 11.9 Q22.8 24.45 12.15 42.3 L11.55 42.95 1.55 50.95 Q0.85 51.5 0.0 51.5 -0.85 51.5 -1.55 50.95 L-11.55 42.95 -12.15 42.3 Q-22.8 24.45 -37.6 11.9 L-37.95 11.55 -45.95 1.55 Q-46.5 0.85 -46.5 0.0 -46.5 -0.85 -45.95 -1.55 L-37.95 -11.55 -37.6 -11.9 Q-22.8 -24.45 -12.15 -42.25 L-11.55 -42.95 -1.55 -50.95 Q-0.85 -51.5 0.0 -51.5 0.85 -51.5 1.55 -50.95 M0.0 -29.4 Q-1.8 -29.4 -13.95 -15.6 -26.05 -1.9 -26.05 0.0 -26.05 1.9 -13.95 15.6 -1.8 29.4 0.0 29.4 1.8 29.4 13.95 15.6 26.05 1.85 26.05 0.0 26.05 -1.85 13.95 -15.6 1.8 -29.4 0.0 -29.4" fill="#000000" fill-rule="evenodd" stroke="none"/>
    <path d="M0.0 -29.4 Q1.8 -29.4 13.95 -15.6 26.05 -1.85 26.05 0.0 26.05 1.85 13.95 15.6 1.8 29.4 0.0 29.4 -1.8 29.4 -13.95 15.6 -26.05 1.9 -26.05 0.0 -26.05 -1.9 -13.95 -15.6 -1.8 -29.4 0.0 -29.4" fill="url(#gradient0)" fill-rule="evenodd" stroke="none"/>
  </g>
  <defs>
    <radialGradient cx="0" cy="0" gradientTransform="matrix(0.039, 0.0, 0.0, 0.0422, 0.0, 0.0)" gradientUnits="userSpaceOnUse" id="gradient0" r="819.2" spreadMethod="pad">
      <stop offset="0.1568627450980392" stop-color="#ffffff" stop-opacity="0.8901961"/>
      <stop offset="1.0" stop-color="#585858"/>
    </radialGradient>
  </defs>
</svg>
