<?xml version="1.0" encoding="UTF-8" standalone="no"?>
<svg xmlns:xlink="http://www.w3.org/1999/xlink" height="152.0px" width="106.25px" xmlns="http://www.w3.org/2000/svg">
  <g transform="matrix(1.0, 0.0, 0.0, 1.0, 53.15, 68.5)">
    <path d="M6.7 -65.8 L5.8 -57.75 4.95 -53.35 5.15 -53.15 Q7.3 -51.05 7.3 -48.0 7.3 -45.0 5.2 -42.95 L5.15 -42.9 5.1 -42.85 5.05 -42.8 4.3 -42.15 5.1 -38.1 5.15 -37.85 6.55 -28.35 Q7.2 -24.1 5.85 -21.9 L5.75 -21.75 5.05 -21.15 4.6 -21.05 4.85 -20.6 Q5.5 -19.4 5.5 -18.0 5.5 -16.75 5.05 -15.75 8.7 -14.6 11.65 -11.65 14.0 -9.3 15.25 -6.45 L17.2 -7.0 Q15.85 -10.35 13.1 -13.1 L13.15 -13.05 12.7 -13.45 12.65 -13.45 Q11.85 -14.1 11.75 -15.1 11.65 -16.05 12.25 -16.85 L17.0 -23.45 18.05 -24.3 18.0 -24.3 19.4 -24.45 19.45 -24.45 Q20.15 -24.35 20.65 -23.85 L20.6 -23.95 Q21.5 -23.3 21.95 -21.65 L22.0 -21.45 22.0 -21.4 22.05 -21.1 Q26.1 -17.3 28.3 -11.85 L28.3 -11.9 29.1 -9.55 29.5 -8.25 29.5 -8.2 29.6 -7.9 29.6 -7.8 29.6 -7.85 29.65 -7.75 36.0 -9.1 48.3 -12.45 48.6 -12.5 Q51.45 -13.05 52.6 -10.6 L52.6 -10.55 Q54.0 -7.95 51.45 -6.05 L51.45 -6.0 Q45.65 -1.8 38.75 1.9 L38.6 2.0 Q32.8 4.85 29.95 6.4 28.45 13.65 23.5 19.5 24.65 19.95 25.6 20.85 L25.65 20.95 Q27.5 22.85 27.5 25.5 27.5 27.2 26.75 28.55 28.5 30.45 28.5 33.0 28.5 35.05 27.45 36.6 L27.8 37.1 Q30.05 38.85 31.75 48.7 33.45 58.6 33.7 67.95 33.75 68.9 33.1 69.7 L33.05 69.7 Q32.4 70.4 31.4 70.5 L18.4 71.5 Q17.35 71.6 16.55 70.9 L16.6 70.9 Q15.8 70.2 15.7 69.15 15.2 60.7 15.55 51.2 L15.55 51.1 Q15.95 41.75 17.25 39.3 L17.65 37.8 17.45 37.6 Q15.5 35.7 15.5 33.0 15.5 31.3 16.3 29.95 14.95 28.6 14.65 26.85 11.75 28.45 8.65 29.35 8.2 31.3 7.9 36.25 L7.1 54.75 Q5.95 81.05 1.4 83.1 0.8 83.5 0.05 83.5 -5.85 83.9 -7.1 54.85 L-7.9 36.4 Q-8.2 31.3 -8.65 29.35 -11.8 28.4 -14.6 26.85 -14.95 28.6 -16.25 29.95 -15.5 31.3 -15.5 33.0 -15.5 35.7 -17.4 37.6 L-17.7 37.85 -17.3 39.2 Q-15.95 41.65 -15.55 51.1 -15.15 60.75 -15.65 69.15 -15.75 70.2 -16.5 70.9 -17.3 71.6 -18.3 71.5 L-18.35 71.5 -31.3 70.5 Q-32.3 70.45 -33.0 69.7 -33.7 68.9 -33.65 67.95 -33.4 58.6 -31.7 48.7 -30.05 39.0 -27.85 37.2 L-27.45 36.6 Q-28.5 35.0 -28.5 33.0 -28.5 30.45 -26.75 28.55 -27.5 27.2 -27.5 25.5 -27.5 22.85 -25.65 20.95 L-25.55 20.85 Q-24.6 19.95 -23.5 19.5 -28.4 13.65 -29.85 6.45 L-38.6 2.05 -38.8 1.95 Q-45.7 -1.75 -51.45 -5.95 L-51.5 -6.0 Q-54.1 -7.95 -52.6 -10.55 L-52.65 -10.45 Q-51.55 -13.0 -48.6 -12.45 L-48.3 -12.4 -36.0 -9.05 -29.6 -7.7 -29.05 -9.6 -28.25 -11.9 -28.25 -11.85 Q-26.1 -17.3 -22.05 -21.1 L-22.0 -21.4 -22.0 -21.45 -21.95 -21.7 -21.95 -21.65 Q-21.5 -23.3 -20.55 -23.95 L-20.65 -23.85 Q-20.15 -24.35 -19.45 -24.45 L-19.35 -24.45 -18.0 -24.3 -18.05 -24.3 -16.95 -23.45 -12.2 -16.85 Q-11.65 -16.05 -11.75 -15.1 -11.9 -14.2 -12.55 -13.55 L-12.6 -13.5 -13.1 -13.05 -13.05 -13.1 Q-15.8 -10.35 -17.15 -7.05 L-15.2 -6.5 Q-14.0 -9.3 -11.65 -11.65 -8.7 -14.6 -5.05 -15.75 -5.5 -16.8 -5.5 -18.0 -5.5 -19.45 -4.85 -20.6 L-4.6 -21.05 -4.95 -21.15 -5.7 -21.75 -5.75 -21.9 Q-7.15 -24.1 -6.45 -28.35 L-5.05 -37.85 -5.0 -38.1 -4.3 -42.1 -5.15 -42.85 Q-7.3 -44.95 -7.3 -48.0 -7.3 -50.35 -6.0 -52.15 -6.65 -54.35 -7.15 -57.65 -7.75 -61.2 -8.15 -65.75 L-7.9 -67.1 -7.85 -67.15 -6.95 -68.1 -5.65 -68.5 -3.55 -68.5 Q-2.6 -68.5 -1.9 -67.8 -1.2 -67.15 -1.1 -66.2 L-0.7 -62.35 -0.35 -66.2 Q-0.25 -67.15 0.5 -67.8 L0.45 -67.8 Q1.15 -68.5 2.15 -68.5 L4.2 -68.5 Q4.9 -68.5 5.5 -68.1 L6.4 -67.15 6.45 -67.1 6.7 -65.8 M5.15 -53.15 L5.1 -53.15 5.15 -53.15 M13.9 9.0 L15.35 10.45 Q18.5 5.85 18.5 0.0 L18.5 -0.15 16.5 0.4 Q16.4 5.2 13.9 9.0 M0.0 16.5 Q-4.7 16.5 -8.45 14.2 L-8.95 13.9 -10.4 15.35 Q-5.85 18.5 0.0 18.5 5.85 18.5 10.45 15.35 L9.0 13.9 8.45 14.2 Q4.7 16.5 0.0 16.5 M11.6 14.45 L11.55 14.5 11.6 14.45 M16.45 30.05 L16.45 30.1 16.45 30.05 M17.45 37.55 L17.45 37.6 17.45 37.55 M-5.15 -42.85 L-5.15 -42.9 -5.15 -42.85 M-15.3 10.4 L-13.85 9.0 Q-16.4 5.2 -16.5 0.4 L-18.5 -0.15 -18.5 0.0 Q-18.5 5.85 -15.3 10.4 M-27.35 36.7 L-27.25 36.5 -27.1 36.2 -27.45 36.6 -27.35 36.7 M-16.45 30.1 L-16.4 30.1 -16.4 30.05 -16.45 30.1 M-17.4 37.55 L-17.45 37.6 -17.4 37.6 -17.4 37.55" fill="#000000" fill-rule="evenodd" stroke="none"/>
    <path d="M1.0 -13.0 L-1.0 -13.0 -1.0 -16.0 1.0 -16.0 1.0 -13.0 M14.1 -1.5 Q13.9 -1.45 13.65 -2.4 13.35 -3.35 13.55 -3.4 L21.3 -5.65 Q21.5 -5.7 21.75 -4.75 L21.85 -3.75 14.1 -1.5 M18.2 19.55 L19.8 17.95 21.05 21.75 19.15 22.4 18.2 19.55 M10.6 9.2 L16.25 14.85 15.7 15.7 Q15.0 16.4 14.85 16.25 L9.2 10.6 Q9.05 10.45 9.75 9.75 10.45 9.05 10.6 9.2 M-21.2 -5.65 L-13.5 -3.4 Q-13.3 -3.35 -13.6 -2.4 -13.85 -1.45 -14.05 -1.5 L-21.75 -3.75 -21.65 -4.75 Q-21.4 -5.7 -21.2 -5.65 M-10.6 9.2 Q-10.45 9.05 -9.75 9.75 -9.05 10.45 -9.2 10.65 L-14.85 16.3 -15.7 15.7 -16.25 14.85 -10.6 9.2 M-18.2 19.55 L-19.15 22.4 -21.05 21.75 -19.8 17.95 -18.2 19.55" fill="#64513e" fill-rule="evenodd" stroke="none"/>
    <path d="M10.6 -10.65 Q15.05 -6.25 15.05 0.0 15.05 6.25 10.6 10.6 6.25 15.05 0.0 15.05 -6.25 15.05 -10.65 10.6 -15.05 6.25 -15.05 0.0 -15.05 -6.25 -10.65 -10.65 -6.25 -15.05 0.0 -15.05 6.25 -15.05 10.6 -10.65 M9.9 -9.9 Q5.8 -14.0 0.0 -14.0 -5.8 -14.0 -9.9 -9.9 -14.0 -5.8 -14.0 0.0 -14.0 5.8 -9.9 9.9 -5.8 14.0 0.0 14.0 5.8 14.0 9.9 9.9 14.0 5.8 14.0 0.0 14.0 -5.8 9.9 -9.9" fill="#000000" fill-opacity="0.4" fill-rule="evenodd" stroke="none"/>
    <path d="M19.8 -19.8 Q23.85 -16.2 25.95 -10.95 28.0 -5.95 28.0 0.0 28.0 11.6 19.8 19.8 11.6 28.0 0.0 28.0 -11.6 28.0 -19.8 19.8 -28.0 11.6 -28.0 0.0 -28.0 -5.95 -25.95 -10.95 -23.85 -16.2 -19.8 -19.8 L-19.55 -21.0 -19.0 -22.0 -14.25 -15.4 -14.85 -14.85 Q-21.0 -8.7 -21.0 0.0 -21.0 8.7 -14.85 14.85 -8.7 21.0 0.0 21.0 8.7 21.0 14.85 14.85 21.0 8.7 21.0 0.0 21.0 -8.7 14.85 -14.85 L14.25 -15.4 19.0 -22.0 19.55 -21.0 19.8 -19.8" fill="url(#gradient0)" fill-rule="evenodd" stroke="none"/>
    <path d="M-50.35 -9.25 Q-49.95 -10.05 -48.95 -9.85 L-36.6 -6.5 Q-29.65 -4.75 -27.55 -4.9 -25.75 -4.85 -25.8 0.05 -25.8 5.0 -27.5 5.0 -30.3 3.5 -37.45 -0.05 -44.25 -3.7 -49.95 -7.85 -50.75 -8.45 -50.35 -9.25" fill="url(#gradient1)" fill-rule="evenodd" stroke="none"/>
    <path d="M27.55 -4.9 Q29.65 -4.75 36.6 -6.5 L48.95 -9.85 Q49.95 -10.05 50.35 -9.25 50.75 -8.45 49.95 -7.85 44.25 -3.7 37.45 -0.05 30.3 3.5 27.5 5.0 25.8 5.0 25.8 0.05 25.75 -4.85 27.55 -4.9" fill="url(#gradient2)" fill-rule="evenodd" stroke="none"/>
    <path d="M-5.4 36.2 Q-5.95 27.6 -7.0 27.0 -5.65 25.65 -0.05 25.65 5.65 25.65 7.0 27.0 5.95 27.6 5.4 36.2 L4.6 54.7 Q3.45 80.8 0.05 81.0 L-0.05 81.0 Q-3.45 80.8 -4.6 54.7 L-5.4 36.2" fill="url(#gradient3)" fill-rule="evenodd" stroke="none"/>
    <path d="M5.4 36.2 L5.35 37.5 3.0 39.0 5.25 40.4 4.95 46.5 -4.95 46.5 -5.2 40.45 -2.9 39.0 -5.3 37.5 -5.4 36.2 -5.8 31.5 5.8 31.5 5.4 36.2 M0.05 40.85 L-2.55 42.5 2.65 42.5 0.05 40.85 M2.7 35.5 L-2.6 35.5 0.05 37.15 2.7 35.5" fill="#000000" fill-opacity="0.2627451" fill-rule="evenodd" stroke="none"/>
    <path d="M5.2 41.0 L5.1 43.45 -5.35 36.9 -5.4 36.2 -5.5 34.3 5.2 41.0" fill="url(#gradient4)" fill-rule="evenodd" stroke="none"/>
    <path d="M5.4 36.1 L5.35 36.9 -4.3 43.0 5.1 43.0 5.0 46.0 -4.95 46.0 -5.1 43.0 -5.05 43.0 -5.15 41.0 4.45 35.0 -5.45 35.0 -5.75 32.0 5.75 32.0 5.55 34.3 5.55 34.4 5.5 35.0 5.4 36.1" fill="url(#gradient5)" fill-rule="evenodd" stroke="none"/>
    <path d="M-19.75 40.1 L-26.15 40.1 Q-26.15 38.75 -25.2 37.8 -24.25 36.9 -22.95 36.9 -21.6 36.9 -20.7 37.8 -19.75 38.75 -19.75 40.1" fill="url(#gradient6)" fill-rule="evenodd" stroke="none"/>
    <path d="M19.7 40.1 Q19.7 38.75 20.65 37.8 21.6 36.9 22.9 36.9 24.25 36.9 25.15 37.8 26.1 38.75 26.1 40.1 L19.7 40.1" fill="url(#gradient7)" fill-rule="evenodd" stroke="none"/>
    <path d="M26.0 39.0 Q27.55 39.05 29.3 49.1 30.95 58.85 31.2 68.0 L18.2 69.0 Q17.7 60.65 18.05 51.2 18.5 40.15 20.0 40.0 L26.0 39.0" fill="url(#gradient8)" fill-rule="evenodd" stroke="none"/>
    <path d="M-26.0 39.0 L-20.0 40.0 Q-18.5 40.15 -18.05 51.2 -17.7 60.65 -18.2 69.0 L-31.2 68.0 Q-30.95 58.85 -29.3 49.1 -27.55 39.05 -26.0 39.0" fill="url(#gradient9)" fill-rule="evenodd" stroke="none"/>
    <path d="M18.0 33.0 Q18.0 31.35 19.2 30.15 20.35 29.0 22.0 29.0 23.65 29.0 24.85 30.15 26.0 31.35 26.0 33.0 26.0 34.65 24.85 35.8 23.65 37.0 22.0 37.0 20.35 37.0 19.2 35.8 18.0 34.65 18.0 33.0" fill="url(#gradient10)" fill-rule="evenodd" stroke="none"/>
    <path d="M-22.0 29.0 Q-20.35 29.0 -19.2 30.15 -18.0 31.35 -18.0 33.0 -18.0 34.65 -19.2 35.8 -20.35 37.0 -22.0 37.0 -23.65 37.0 -24.85 35.8 -26.0 34.65 -26.0 33.0 -26.0 31.35 -24.85 30.15 -23.65 29.0 -22.0 29.0" fill="url(#gradient11)" fill-rule="evenodd" stroke="none"/>
    <path d="M0.0 -15.0 Q-1.25 -15.0 -2.15 -15.9 -3.0 -16.75 -3.0 -18.0 -3.0 -19.25 -2.15 -20.15 -1.25 -21.0 0.0 -21.0 1.25 -21.0 2.1 -20.15 3.0 -19.25 3.0 -18.0 3.0 -16.75 2.1 -15.9 1.25 -15.0 0.0 -15.0" fill="url(#gradient12)" fill-rule="evenodd" stroke="none"/>
    <path d="M2.0 -50.05 Q1.2 -50.9 0.0 -50.9 -1.2 -50.9 -2.05 -50.05 -2.9 -49.2 -2.9 -48.0 -2.9 -46.8 -2.05 -46.0 -1.2 -45.1 0.0 -45.1 1.2 -45.1 2.0 -46.0 2.9 -46.8 2.9 -48.0 2.9 -49.2 2.0 -50.05 M3.35 -51.4 Q4.8 -50.0 4.8 -48.0 4.8 -46.0 3.35 -44.65 2.0 -43.2 0.0 -43.2 -2.0 -43.2 -3.4 -44.65 -4.8 -46.0 -4.8 -48.0 -4.8 -50.0 -3.4 -51.4 -2.0 -52.8 0.0 -52.8 2.0 -52.8 3.35 -51.4" fill="url(#gradient13)" fill-rule="evenodd" stroke="none"/>
    <path d="M-3.6 -66.0 Q-3.25 -61.7 -2.7 -58.35 -2.1 -54.45 -1.55 -52.55 L-3.2 -51.55 Q-4.05 -53.9 -4.7 -58.05 L-5.65 -66.0 -3.6 -66.0" fill="#5f523d" fill-rule="evenodd" stroke="none"/>
    <path d="M3.3 -58.15 Q1.85 -48.5 -0.7 -48.75 -1.55 -48.65 -2.3 -49.75 L-2.05 -50.05 -0.8 -50.8 -0.7 -50.75 Q0.15 -50.95 1.3 -58.45 L2.15 -66.0 4.2 -66.0 3.3 -58.15" fill="#785629" fill-rule="evenodd" stroke="none"/>
    <path d="M4.6 -26.0 Q4.0 -24.85 2.6 -23.1 0.9 -21.0 0.0 -21.0 -0.9 -21.0 -2.6 -23.1 -4.0 -24.85 -4.6 -26.0 L4.6 -26.0" fill="url(#gradient14)" fill-rule="evenodd" stroke="none"/>
    <path d="M4.6 -26.0 L-4.6 -26.0 Q-5.15 -26.95 -3.15 -36.95 -1.1 -47.0 0.0 -47.0 1.1 -47.0 3.15 -36.95 5.15 -26.95 4.6 -26.0" fill="url(#gradient15)" fill-rule="evenodd" stroke="none"/>
    <path d="M21.0 21.5 Q22.65 21.5 23.85 22.65 25.0 23.85 25.0 25.5 25.0 27.15 23.85 28.3 22.65 29.5 21.0 29.5 19.35 29.5 18.2 28.3 17.0 27.15 17.0 25.5 17.0 23.85 18.2 22.65 19.35 21.5 21.0 21.5" fill="url(#gradient16)" fill-rule="evenodd" stroke="none"/>
    <path d="M-21.0 21.5 Q-19.35 21.5 -18.2 22.65 -17.0 23.85 -17.0 25.5 -17.0 27.15 -18.2 28.3 -19.35 29.5 -21.0 29.5 -22.65 29.5 -23.85 28.3 -25.0 27.15 -25.0 25.5 -25.0 23.85 -23.85 22.65 -22.65 21.5 -21.0 21.5" fill="url(#gradient17)" fill-rule="evenodd" stroke="none"/>
    <path d="M9.9 -9.9 Q14.0 -5.8 14.0 0.0 14.0 5.8 9.9 9.9 5.8 14.0 0.0 14.0 -5.8 14.0 -9.9 9.9 -14.0 5.8 -14.0 0.0 -14.0 -5.8 -9.9 -9.9 -5.8 -14.0 0.0 -14.0 5.8 -14.0 9.9 -9.9 M2.1 -2.15 Q1.25 -3.0 0.0 -3.0 -1.25 -3.0 -2.15 -2.15 -3.0 -1.25 -3.0 0.0 -3.0 1.25 -2.15 2.1 -1.25 3.0 0.0 3.0 1.25 3.0 2.1 2.1 3.0 1.25 3.0 0.0 3.0 -1.25 2.1 -2.15" fill="url(#gradient18)" fill-rule="evenodd" stroke="none"/>
    <path d="M2.1 -2.15 Q1.25 -3.0 0.0 -3.0 -1.25 -3.0 -2.15 -2.15 -3.0 -1.25 -3.0 0.0 -3.0 1.25 -2.15 2.1 -1.25 3.0 0.0 3.0 1.25 3.0 2.1 2.1 3.0 1.25 3.0 0.0 3.0 -1.25 2.1 -2.15 M9.9 -9.9 Q14.0 -5.8 14.0 0.0 14.0 5.8 9.9 9.9 5.8 14.0 0.0 14.0 -5.8 14.0 -9.9 9.9 -14.0 5.8 -14.0 0.0 -14.0 -5.8 -9.9 -9.9 -5.8 -14.0 0.0 -14.0 5.8 -14.0 9.9 -9.9" fill="url(#gradient19)" fill-rule="evenodd" stroke="none"/>
    <path d="M-2.1 -2.25 L-2.05 -2.2 -2.15 -2.15 -2.1 -2.25" fill="url(#gradient20)" fill-rule="evenodd" stroke="none"/>
    <path d="M27.65 -4.85 Q24.3 -3.7 20.8 -3.1 20.55 -5.0 19.95 -6.7 L26.75 -8.8 27.65 -4.85 M-20.75 -3.15 Q-24.3 -3.8 -27.6 -4.9 L-26.7 -8.85 -19.95 -6.75 Q-20.55 -5.05 -20.75 -3.15 M13.2 16.4 L14.85 14.85 15.85 13.85 20.95 18.65 19.8 19.8 18.0 21.5 Q15.4 19.15 13.2 16.4 M-13.2 16.35 Q-15.4 19.1 -18.0 21.45 L-19.8 19.8 -20.95 18.6 -15.8 13.8 -14.85 14.85 -13.2 16.35" fill="url(#gradient21)" fill-rule="evenodd" stroke="none"/>
    <path d="M2.05 -2.2 Q7.65 -3.45 13.0 -5.3 14.0 -2.85 14.0 0.0 L14.0 0.2 Q8.6 0.5 3.0 0.1 L3.0 0.0 Q3.0 -1.25 2.1 -2.15 L2.05 -2.2 M2.95 -13.7 Q2.3 -10.65 1.15 -2.8 L0.0 -3.0 -1.1 -2.8 Q-2.3 -10.65 -2.95 -13.7 L-0.35 -14.0 0.4 -14.0 2.95 -13.7 M7.15 12.1 Q3.5 7.9 0.55 2.95 1.45 2.8 2.1 2.1 L2.75 1.3 Q7.2 4.6 11.3 8.35 L9.9 9.9 7.15 12.1 M-2.15 -2.15 Q-3.0 -1.25 -3.0 0.0 L-3.0 0.1 Q-8.6 0.5 -14.0 0.2 L-14.0 0.0 Q-14.0 -2.85 -13.0 -5.3 -7.7 -3.5 -2.1 -2.25 L-2.15 -2.15 M-0.55 2.95 Q-3.5 7.95 -7.15 12.1 L-9.9 9.9 -11.25 8.35 Q-7.15 4.65 -2.7 1.3 L-2.15 2.1 Q-1.45 2.8 -0.55 2.95" fill="url(#gradient22)" fill-rule="evenodd" stroke="none"/>
    <path d="M23.7 59.65 Q24.1 65.55 24.45 68.55" fill="none" stroke="url(#gradient23)" stroke-linecap="round" stroke-linejoin="round" stroke-width="0.5"/>
    <path d="M21.0 52.0 Q21.1 60.35 21.65 68.75" fill="none" stroke="url(#gradient24)" stroke-linecap="round" stroke-linejoin="round" stroke-width="0.5"/>
    <path d="M-21.0 52.0 Q-21.1 60.35 -21.65 68.75" fill="none" stroke="url(#gradient25)" stroke-linecap="round" stroke-linejoin="round" stroke-width="0.5"/>
    <path d="M-23.7 59.65 Q-24.1 65.55 -24.45 68.55" fill="none" stroke="url(#gradient26)" stroke-linecap="round" stroke-linejoin="round" stroke-width="0.5"/>
    <path d="M0.0 -14.0 L0.0 -3.0 M13.8 -2.5 L2.85 -1.0 M27.3 -6.75 L20.5 -4.85 M1.85 2.35 L9.35 10.45 M19.55 20.1 L16.35 17.1 14.5 15.2 M-13.8 -2.5 L-2.85 -1.0 M-27.25 -6.8 Q-23.85 -5.75 -20.45 -4.85 M-1.85 2.4 L-9.35 10.4 M-19.5 20.1 L-16.35 17.1 -14.45 15.2" fill="none" stroke="#1e1813" stroke-linecap="round" stroke-linejoin="round" stroke-opacity="0.2" stroke-width="0.25"/>
  </g>
  <defs>
    <radialGradient cx="0" cy="0" gradientTransform="matrix(0.0332, 0.0, 0.0, 0.0332, 0.0, 0.0)" gradientUnits="userSpaceOnUse" id="gradient0" r="819.2" spreadMethod="pad">
      <stop offset="0.7647058823529411" stop-color="#3a3030"/>
      <stop offset="0.8392156862745098" stop-color="#8d7272"/>
      <stop offset="0.8901960784313725" stop-color="#b99d9b"/>
      <stop offset="0.9607843137254902" stop-color="#8d7272"/>
      <stop offset="1.0" stop-color="#645353"/>
    </radialGradient>
    <radialGradient cx="0" cy="0" gradientTransform="matrix(-0.0467, -0.0169, -0.0023, 0.0063, -25.0, 0.2)" gradientUnits="userSpaceOnUse" id="gradient1" r="819.2" spreadMethod="pad">
      <stop offset="0.08235294117647059" stop-color="#b99d9b"/>
      <stop offset="0.47843137254901963" stop-color="#8d7272"/>
      <stop offset="0.8156862745098039" stop-color="#563f3f"/>
      <stop offset="0.9882352941176471" stop-color="#87716a"/>
    </radialGradient>
    <radialGradient cx="0" cy="0" gradientTransform="matrix(0.0467, -0.0169, 0.0023, 0.0063, 25.0, 0.2)" gradientUnits="userSpaceOnUse" id="gradient2" r="819.2" spreadMethod="pad">
      <stop offset="0.09019607843137255" stop-color="#b99d9b"/>
      <stop offset="0.47843137254901963" stop-color="#8d7272"/>
      <stop offset="0.8156862745098039" stop-color="#563f3f"/>
      <stop offset="0.9882352941176471" stop-color="#87716a"/>
    </radialGradient>
    <radialGradient cx="0" cy="0" gradientTransform="matrix(-1.0E-4, 0.0832, 0.0105, 0.0, 0.0, 26.0)" gradientUnits="userSpaceOnUse" id="gradient3" r="819.2" spreadMethod="pad">
      <stop offset="0.023529411764705882" stop-color="#b99d9b"/>
      <stop offset="0.4980392156862745" stop-color="#8d7272"/>
      <stop offset="0.7294117647058823" stop-color="#574a4a"/>
      <stop offset="0.8627450980392157" stop-color="#87716a"/>
    </radialGradient>
    <linearGradient gradientTransform="matrix(0.0073, 0.0, 0.0, 0.0061, 0.0, 38.15)" gradientUnits="userSpaceOnUse" id="gradient4" spreadMethod="pad" x1="-819.2" x2="819.2">
      <stop offset="0.0" stop-color="#a77a65"/>
      <stop offset="0.13333333333333333" stop-color="#856965"/>
      <stop offset="0.4588235294117647" stop-color="#dbbeb0"/>
      <stop offset="0.5411764705882353" stop-color="#dbbeb0"/>
      <stop offset="0.8627450980392157" stop-color="#876863"/>
      <stop offset="0.9882352941176471" stop-color="#a77a65"/>
    </linearGradient>
    <linearGradient gradientTransform="matrix(0.0073, 0.0, 0.0, 0.0018, 0.0, 33.5)" gradientUnits="userSpaceOnUse" id="gradient5" spreadMethod="pad" x1="-819.2" x2="819.2">
      <stop offset="0.0" stop-color="#a77a65"/>
      <stop offset="0.13333333333333333" stop-color="#856965"/>
      <stop offset="0.4588235294117647" stop-color="#efe3dc"/>
      <stop offset="0.5411764705882353" stop-color="#efe3dc"/>
      <stop offset="0.8627450980392157" stop-color="#876863"/>
      <stop offset="0.9882352941176471" stop-color="#a77a65"/>
    </linearGradient>
    <radialGradient cx="0" cy="0" fx="99.2" fy="0" gradientTransform="matrix(0.0, -0.004, 0.004, 0.0, -22.95, 40.1)" gradientUnits="userSpaceOnUse" id="gradient6" r="819.2" spreadMethod="pad">
      <stop offset="0.058823529411764705" stop-color="#ffffff"/>
      <stop offset="0.25882352941176473" stop-color="#aaaeb0"/>
      <stop offset="0.6313725490196078" stop-color="#6d7374"/>
      <stop offset="1.0" stop-color="#525858"/>
    </radialGradient>
    <radialGradient cx="0" cy="0" fx="99.2" fy="0" gradientTransform="matrix(0.0, -0.004, 0.004, 0.0, 22.9, 40.1)" gradientUnits="userSpaceOnUse" id="gradient7" r="819.2" spreadMethod="pad">
      <stop offset="0.058823529411764705" stop-color="#ffffff"/>
      <stop offset="0.25882352941176473" stop-color="#aaaeb0"/>
      <stop offset="0.6313725490196078" stop-color="#6d7374"/>
      <stop offset="0.8313725490196079" stop-color="#525858"/>
      <stop offset="0.9294117647058824" stop-color="#838988"/>
    </radialGradient>
    <radialGradient cx="0" cy="0" gradientTransform="matrix(0.0086, -5.0E-4, 0.0031, 0.0554, 24.7, 68.0)" gradientUnits="userSpaceOnUse" id="gradient8" r="819.2" spreadMethod="pad">
      <stop offset="0.1411764705882353" stop-color="#bf4665"/>
      <stop offset="0.4588235294117647" stop-color="#8d374d"/>
      <stop offset="0.7529411764705882" stop-color="#521f2c"/>
      <stop offset="0.8901960784313725" stop-color="#9d3e56"/>
    </radialGradient>
    <radialGradient cx="0" cy="0" gradientTransform="matrix(-0.0086, -5.0E-4, -0.0031, 0.0554, -24.7, 68.0)" gradientUnits="userSpaceOnUse" id="gradient9" r="819.2" spreadMethod="pad">
      <stop offset="0.1411764705882353" stop-color="#bf4665"/>
      <stop offset="0.4588235294117647" stop-color="#8d374d"/>
      <stop offset="0.7529411764705882" stop-color="#521f2c"/>
      <stop offset="0.8901960784313725" stop-color="#9d3e56"/>
    </radialGradient>
    <radialGradient cx="0" cy="0" gradientTransform="matrix(0.0059, 0.0, 0.0, 0.0059, 22.8, 31.7)" gradientUnits="userSpaceOnUse" id="gradient10" r="819.2" spreadMethod="pad">
      <stop offset="0.12941176470588237" stop-color="#ffffff"/>
      <stop offset="0.16470588235294117" stop-color="#ee57a4"/>
      <stop offset="0.3568627450980392" stop-color="#9b3953"/>
      <stop offset="0.7607843137254902" stop-color="#421a24"/>
      <stop offset="0.9137254901960784" stop-color="#8c1e45"/>
    </radialGradient>
    <radialGradient cx="0" cy="0" gradientTransform="matrix(0.0058, 0.0, 0.0, 0.0058, -20.9, 32.0)" gradientUnits="userSpaceOnUse" id="gradient11" r="819.2" spreadMethod="pad">
      <stop offset="0.12941176470588237" stop-color="#ffffff"/>
      <stop offset="0.16470588235294117" stop-color="#ee57a4"/>
      <stop offset="0.3568627450980392" stop-color="#9b3953"/>
      <stop offset="0.7607843137254902" stop-color="#421a24"/>
      <stop offset="0.9137254901960784" stop-color="#8c1e45"/>
    </radialGradient>
    <radialGradient cx="0" cy="0" gradientTransform="matrix(0.0043, 0.0, 0.0, 0.0043, 0.5, -18.3)" gradientUnits="userSpaceOnUse" id="gradient12" r="819.2" spreadMethod="pad">
      <stop offset="0.12941176470588237" stop-color="#ffffff"/>
      <stop offset="0.16470588235294117" stop-color="#ee57a4"/>
      <stop offset="0.3568627450980392" stop-color="#9b3953"/>
      <stop offset="0.7607843137254902" stop-color="#421a24"/>
      <stop offset="0.9137254901960784" stop-color="#8c1e45"/>
    </radialGradient>
    <radialGradient cx="0" cy="0" gradientTransform="matrix(0.0063, 0.0, 0.0, 0.0063, 0.0, -48.0)" gradientUnits="userSpaceOnUse" id="gradient13" r="819.2" spreadMethod="pad">
      <stop offset="0.6352941176470588" stop-color="#307b81"/>
      <stop offset="0.7529411764705882" stop-color="#54d6d6"/>
      <stop offset="0.8588235294117647" stop-color="#35859f"/>
      <stop offset="1.0" stop-color="#205066"/>
    </radialGradient>
    <radialGradient cx="0" cy="0" gradientTransform="matrix(0.0, -0.0073, -0.0067, 0.0, 0.0, -26.0)" gradientUnits="userSpaceOnUse" id="gradient14" r="819.2" spreadMethod="pad">
      <stop offset="0.1843137254901961" stop-color="#958e8c"/>
      <stop offset="0.6549019607843137" stop-color="#5c5654"/>
      <stop offset="0.7647058823529411" stop-color="#887c77"/>
    </radialGradient>
    <radialGradient cx="0" cy="0" gradientTransform="matrix(0.0, -0.0269, -0.0067, 0.0, 0.0, -26.0)" gradientUnits="userSpaceOnUse" id="gradient15" r="819.2" spreadMethod="pad">
      <stop offset="0.03529411764705882" stop-color="#ffffff"/>
      <stop offset="0.12941176470588237" stop-color="#e3e1e1"/>
      <stop offset="0.47843137254901963" stop-color="#877d78"/>
      <stop offset="0.6627450980392157" stop-color="#5c5554"/>
      <stop offset="0.7568627450980392" stop-color="#786d69"/>
    </radialGradient>
    <radialGradient cx="0" cy="0" gradientTransform="matrix(0.0065, 0.0, 0.0, 0.0065, 22.0, 24.65)" gradientUnits="userSpaceOnUse" id="gradient16" r="819.2" spreadMethod="pad">
      <stop offset="0.12941176470588237" stop-color="#ffffff"/>
      <stop offset="0.15294117647058825" stop-color="#6bc0e9"/>
      <stop offset="0.4" stop-color="#465f80"/>
      <stop offset="0.7098039215686275" stop-color="#263544"/>
      <stop offset="0.9607843137254902" stop-color="#26607b"/>
    </radialGradient>
    <radialGradient cx="0" cy="0" gradientTransform="matrix(0.006, 0.0, 0.0, 0.006, -20.3, 24.6)" gradientUnits="userSpaceOnUse" id="gradient17" r="819.2" spreadMethod="pad">
      <stop offset="0.12941176470588237" stop-color="#ffffff"/>
      <stop offset="0.15294117647058825" stop-color="#6bc0e9"/>
      <stop offset="0.4" stop-color="#465f80"/>
      <stop offset="0.7098039215686275" stop-color="#263544"/>
      <stop offset="0.9607843137254902" stop-color="#26607b"/>
    </radialGradient>
    <radialGradient cx="0" cy="0" gradientTransform="matrix(0.0172, 0.0, 0.0, 0.0172, 0.0, 0.0)" gradientUnits="userSpaceOnUse" id="gradient18" r="819.2" spreadMethod="pad">
      <stop offset="0.20392156862745098" stop-color="#0b6b7b"/>
      <stop offset="0.2627450980392157" stop-color="#074954"/>
      <stop offset="0.615686274509804" stop-color="#27cfce"/>
      <stop offset="0.7019607843137254" stop-color="#27cfce"/>
      <stop offset="0.9215686274509803" stop-color="#228c95"/>
      <stop offset="1.0" stop-color="#31d7e3"/>
    </radialGradient>
    <radialGradient cx="0" cy="0" gradientTransform="matrix(0.024, 0.0248, -0.0109, 0.0106, 8.0, -6.0)" gradientUnits="userSpaceOnUse" id="gradient19" r="819.2" spreadMethod="pad">
      <stop offset="0.08627450980392157" stop-color="#ffffff"/>
      <stop offset="0.12156862745098039" stop-color="#b9e1e0" stop-opacity="0.4627451"/>
      <stop offset="0.2196078431372549" stop-color="#ffffff" stop-opacity="0.0"/>
    </radialGradient>
    <radialGradient cx="0" cy="0" gradientTransform="matrix(0.0178, 0.0, 0.0, 0.0178, 0.0, 0.0)" gradientUnits="userSpaceOnUse" id="gradient20" r="819.2" spreadMethod="pad">
      <stop offset="0.4470588235294118" stop-color="#32221b"/>
      <stop offset="0.6627450980392157" stop-color="#604335"/>
      <stop offset="0.9607843137254902" stop-color="#2e1f18"/>
      <stop offset="1.0" stop-color="#37251e"/>
    </radialGradient>
    <radialGradient cx="0" cy="0" gradientTransform="matrix(0.036, 0.0, 0.0, 0.036, 0.0, 0.0)" gradientUnits="userSpaceOnUse" id="gradient21" r="819.2" spreadMethod="pad">
      <stop offset="0.7372549019607844" stop-color="#876b63"/>
      <stop offset="0.7843137254901961" stop-color="#b7a295"/>
      <stop offset="0.8274509803921568" stop-color="#d8cabc"/>
      <stop offset="0.9254901960784314" stop-color="#977c75"/>
    </radialGradient>
    <radialGradient cx="0" cy="0" gradientTransform="matrix(0.0178, 0.0, 0.0, 0.0178, 0.0, 0.0)" gradientUnits="userSpaceOnUse" id="gradient22" r="819.2" spreadMethod="pad">
      <stop offset="0.22745098039215686" stop-color="#987974"/>
      <stop offset="0.2823529411764706" stop-color="#7a5f5a"/>
      <stop offset="0.4666666666666667" stop-color="#b7a295"/>
      <stop offset="0.6078431372549019" stop-color="#d8cabc"/>
      <stop offset="0.6666666666666666" stop-color="#d8cabc"/>
      <stop offset="0.8784313725490196" stop-color="#977c75"/>
      <stop offset="1.0" stop-color="#b87863"/>
    </radialGradient>
    <linearGradient gradientTransform="matrix(5.0E-4, 0.0047, -0.0105, 0.0011, 11.7, 66.35)" gradientUnits="userSpaceOnUse" id="gradient23" spreadMethod="pad" x1="-819.2" x2="819.2">
      <stop offset="0.0" stop-color="#ca4a6a"/>
      <stop offset="1.0" stop-color="#d96697"/>
    </linearGradient>
    <linearGradient gradientTransform="matrix(8.0E-4, 0.0108, -0.0105, 8.0E-4, 0.5, 61.85)" gradientUnits="userSpaceOnUse" id="gradient24" spreadMethod="pad" x1="-819.2" x2="819.2">
      <stop offset="0.0196078431372549" stop-color="#9d3e56"/>
      <stop offset="1.0" stop-color="#bf4665"/>
    </linearGradient>
    <linearGradient gradientTransform="matrix(-8.0E-4, 0.0108, 0.0105, 8.0E-4, -0.5, 61.85)" gradientUnits="userSpaceOnUse" id="gradient25" spreadMethod="pad" x1="-819.2" x2="819.2">
      <stop offset="0.0196078431372549" stop-color="#9d3e56"/>
      <stop offset="1.0" stop-color="#bf4665"/>
    </linearGradient>
    <linearGradient gradientTransform="matrix(-5.0E-4, 0.0047, 0.0105, 0.0011, -11.7, 66.35)" gradientUnits="userSpaceOnUse" id="gradient26" spreadMethod="pad" x1="-819.2" x2="819.2">
      <stop offset="0.0" stop-color="#ca4a6a"/>
      <stop offset="1.0" stop-color="#d96697"/>
    </linearGradient>
  </defs>
</svg>
