<?xml version="1.0" encoding="UTF-8" standalone="no"?>
<svg xmlns:xlink="http://www.w3.org/1999/xlink" height="39.85px" width="288.1px" xmlns="http://www.w3.org/2000/svg">
  <g transform="matrix(1.0, 0.0, 0.0, 1.0, 144.95, 16.4)">
    <path d="M-144.7 23.25 L-144.7 23.45 -144.95 23.25 -144.7 23.25" fill="#323041" fill-rule="evenodd" stroke="none"/>
    <path d="M14.0 -14.9 L17.9 -3.8 28.0 -3.55 38.05 -3.8 42.0 -14.9 45.9 -3.8 56.0 -3.55 66.05 -3.8 70.0 -14.9 73.9 -3.8 84.0 -3.55 94.05 -3.8 98.0 -14.9 101.9 -3.8 112.0 -3.55 122.05 -3.8 126.0 -14.9 129.9 -3.8 141.65 -3.5 132.3 3.7 135.7 15.0 126.0 8.3 116.25 15.0 119.65 3.7 112.0 -2.2 104.3 3.7 107.7 15.0 98.0 8.3 88.25 15.0 91.65 3.7 84.0 -2.2 76.3 3.7 79.7 15.0 70.0 8.3 60.25 15.0 63.65 3.7 56.0 -2.2 48.3 3.7 51.7 15.0 42.0 8.3 32.25 15.0 35.65 3.7 28.0 -2.2 20.3 3.7 23.7 15.0 14.0 8.3 4.25 15.0 7.65 3.7 0.0 -2.2 -7.7 3.7 -4.3 15.0 -14.0 8.3 -23.75 15.0 -20.35 3.7 -28.0 -2.2 -35.7 3.7 -32.3 15.0 -42.0 8.3 -51.75 15.0 -48.35 3.7 -56.0 -2.2 -63.7 3.7 -60.3 15.0 -70.0 8.3 -79.75 15.0 -76.35 3.7 -84.0 -2.2 -91.7 3.7 -88.3 15.0 -98.0 8.3 -107.75 15.0 -104.35 3.7 -112.0 -2.2 -119.7 3.7 -116.3 15.0 -126.0 8.3 -135.75 15.0 -132.35 3.7 -141.45 -3.3 -141.45 -3.5 -129.95 -3.8 -126.0 -14.9 -122.1 -3.8 -112.0 -3.55 -101.95 -3.8 -98.0 -14.9 -94.1 -3.8 -84.0 -3.55 -73.95 -3.8 -70.0 -14.9 -66.1 -3.8 -56.0 -3.55 -45.95 -3.8 -42.0 -14.9 -38.1 -3.8 -28.0 -3.55 -17.95 -3.8 -14.0 -14.9 -10.1 -3.8 0.0 -3.55 10.05 -3.8 14.0 -14.9 Z" fill="none" stroke="#ffffff" stroke-linecap="round" stroke-linejoin="round" stroke-opacity="0.2509804" stroke-width="3.0"/>
    <path d="M27.9 -3.6 L37.95 -3.85 41.9 -14.95 45.8 -3.85 55.9 -3.6 65.95 -3.85 69.9 -14.95 73.8 -3.85 83.9 -3.6 93.95 -3.85 97.9 -14.95 101.8 -3.85 111.9 -3.6 121.95 -3.85 125.9 -14.95 129.8 -3.85 141.55 -3.55 132.2 3.65 135.6 14.95 125.9 8.25 116.15 14.95 119.55 3.65 111.9 -2.25 104.2 3.65 107.6 14.95 97.9 8.25 88.15 14.95 91.55 3.65 83.9 -2.25 76.2 3.65 79.6 14.95 69.9 8.25 60.15 14.95 63.55 3.65 55.9 -2.25 48.2 3.65 51.6 14.95 41.9 8.25 32.15 14.95 35.55 3.65 27.9 -2.25 20.2 3.65 23.6 14.95 13.9 8.25 4.15 14.95 7.55 3.65 -0.1 -2.25 -7.8 3.65 -4.4 14.95 -14.1 8.25 -23.85 14.95 -20.45 3.65 -28.1 -2.25 -35.8 3.65 -32.4 14.95 -42.1 8.25 -51.85 14.95 -48.45 3.65 -56.1 -2.25 -63.8 3.65 -60.4 14.95 -70.1 8.25 -79.85 14.95 -76.45 3.65 -84.1 -2.25 -91.8 3.65 -88.4 14.95 -98.1 8.25 -107.85 14.95 -104.45 3.65 -112.1 -2.25 -119.8 3.65 -116.4 14.95 -126.1 8.25 -135.85 14.95 -132.45 3.65 -141.55 -3.35 -141.55 -3.55 -130.05 -3.85 -126.1 -14.95 -122.2 -3.85 -112.1 -3.6 -102.05 -3.85 -98.1 -14.95 -94.2 -3.85 -84.1 -3.6 -74.05 -3.85 -70.1 -14.95 -66.2 -3.85 -56.1 -3.6 -46.05 -3.85 -42.1 -14.95 -38.2 -3.85 -28.1 -3.6 -18.05 -3.85 -14.1 -14.95 -10.2 -3.85 -0.1 -3.6 9.95 -3.85 13.9 -14.95 17.8 -3.85 27.9 -3.6" fill="#323041" fill-rule="evenodd" stroke="none"/>
  </g>
</svg>
