<?xml version="1.0" encoding="UTF-8" standalone="no"?>
<svg xmlns:xlink="http://www.w3.org/1999/xlink" height="84.0px" width="104.0px" xmlns="http://www.w3.org/2000/svg">
  <g transform="matrix(1.0, 0.0, 0.0, 1.0, 3.0, 15.0)">
    <path d="M56.0 -3.0 L98.0 -3.0 Q101.0 -3.0 101.0 0.0 L101.0 66.0 Q101.0 69.0 98.0 69.0 L0.0 69.0 Q-3.0 69.0 -3.0 66.0 L-3.0 -12.0 Q-3.0 -15.0 0.0 -15.0 L53.0 -15.0 Q56.0 -15.0 56.0 -12.0 L56.0 -3.0 M96.0 1.0 L2.0 1.0 Q1.0 1.0 1.0 2.0 L1.0 64.0 Q1.0 65.0 2.0 65.0 L96.0 65.0 Q97.0 65.0 97.0 64.0 L97.0 2.0 Q97.0 1.0 96.0 1.0" fill="#000000" fill-rule="evenodd" stroke="none"/>
    <path d="M55.0 -2.0 L98.0 -2.0 Q100.0 -2.0 100.0 0.0 L100.0 66.0 Q100.0 68.0 98.0 68.0 L0.0 68.0 Q-2.0 68.0 -2.0 66.0 L-2.0 -12.0 Q-2.0 -14.0 0.0 -14.0 L53.0 -14.0 Q55.0 -14.0 55.0 -12.0 L55.0 -2.0 M98.0 2.0 Q98.0 0.0 96.0 0.0 L2.0 0.0 Q0.0 0.0 0.0 2.0 L0.0 64.0 Q0.0 66.0 2.0 66.0 L96.0 66.0 Q98.0 66.0 98.0 64.0 L98.0 2.0" fill="#00ff00" fill-rule="evenodd" stroke="none"/>
  </g>
</svg>
