<?xml version="1.0" encoding="UTF-8" standalone="no"?>
<svg xmlns:xlink="http://www.w3.org/1999/xlink" height="99.25px" width="87.25px" xmlns="http://www.w3.org/2000/svg">
  <g transform="matrix(1.0, 0.0, 0.0, 1.0, -117.05, -497.75)">
    <path d="M199.9 527.5 Q202.45 533.9 203.35 539.25 204.3 544.6 204.3 546.9 204.3 549.5 203.6 554.6 203.05 559.65 200.7 566.55 198.4 573.35 193.8 581.2 189.25 589.1 181.15 597.0 169.4 585.35 164.0 573.85 158.5 562.35 158.5 553.2 158.5 546.75 159.4 540.85 160.25 535.0 162.75 529.05 165.25 523.1 169.65 516.9 174.1 510.65 181.15 503.65 188.3 508.25 192.85 514.7 197.3 521.15 199.9 527.5 M179.6 527.35 Q176.4 523.4 174.1 522.15 172.4 523.7 170.95 527.3 169.4 530.9 169.4 534.6 169.4 545.9 174.4 556.5 179.4 567.2 188.3 574.7 190.0 573.05 191.3 569.75 192.7 566.5 192.7 560.9 192.7 555.05 190.65 548.7 188.7 542.3 185.75 536.8 182.8 531.3 179.6 527.35 M123.05 512.4 Q122.1 508.7 120.8 506.1 L125.7 505.9 132.4 505.3 138.8 504.45 Q141.8 503.95 142.85 503.25 L142.85 592.55 123.95 592.55 123.95 520.1 Q123.95 516.25 123.05 512.4" fill="#666666" fill-rule="evenodd" stroke="none"/>
    <path d="M177.4 498.15 Q184.55 502.75 189.1 509.2 193.55 515.65 196.15 522.0 198.7 528.4 199.6 533.75 200.55 539.1 200.55 541.4 200.55 544.0 199.85 549.1 199.3 554.15 196.95 561.05 194.65 567.85 190.05 575.7 185.5 583.6 177.4 591.5 165.65 579.85 160.25 568.35 154.75 556.85 154.75 547.7 154.75 541.25 155.65 535.35 156.5 529.5 159.0 523.55 161.5 517.6 165.9 511.4 170.35 505.15 177.4 498.15 M165.65 529.1 Q165.65 540.4 170.65 551.0 175.65 561.7 184.55 569.2 186.25 567.55 187.55 564.25 188.95 561.0 188.95 555.4 188.95 549.55 186.9 543.2 184.95 536.8 182.0 531.3 179.05 525.8 175.85 521.85 172.65 517.9 170.35 516.65 168.65 518.2 167.2 521.8 165.65 525.4 165.65 529.1" fill="url(#gradient0)" fill-rule="evenodd" stroke="none"/>
    <path d="M135.05 498.95 Q138.05 498.45 139.1 497.75 L139.1 587.05 120.2 587.05 120.2 514.6 Q120.2 510.75 119.3 506.9 118.35 503.2 117.05 500.6 L121.95 500.4 128.65 499.8 135.05 498.95" fill="url(#gradient1)" fill-rule="evenodd" stroke="none"/>
  </g>
  <defs>
    <linearGradient gradientTransform="matrix(2.0E-4, -0.0545, 0.0549, 2.0E-4, 320.7, 542.05)" gradientUnits="userSpaceOnUse" id="gradient0" spreadMethod="pad" x1="-819.2" x2="819.2">
      <stop offset="0.0" stop-color="#55000f"/>
      <stop offset="1.0" stop-color="#ff005a"/>
    </linearGradient>
    <linearGradient gradientTransform="matrix(2.0E-4, -0.0545, 0.0549, 2.0E-4, 313.45, 542.05)" gradientUnits="userSpaceOnUse" id="gradient1" spreadMethod="pad" x1="-819.2" x2="819.2">
      <stop offset="0.0" stop-color="#55000f"/>
      <stop offset="1.0" stop-color="#ff005a"/>
    </linearGradient>
  </defs>
</svg>
