<?xml version="1.0" encoding="UTF-8" standalone="no"?>
<svg xmlns:xlink="http://www.w3.org/1999/xlink" height="290.25px" width="224.0px" xmlns="http://www.w3.org/2000/svg">
  <g transform="matrix(1.0, 0.0, 0.0, 1.0, 0.5, 289.75)">
    <path d="M206.2 -257.4 L205.4 -233.8 212.4 -242.5 212.4 -240.9 212.45 -236.6 Q212.45 -223.65 211.9 -214.95 211.45 -208.15 210.2 -198.1 L217.2 -210.45 223.0 -220.4 Q218.1 -146.05 211.8 -97.7 204.2 -39.35 192.6 0.0 L0.0 0.0 Q21.3 -23.85 41.8 -51.55 61.95 -78.8 79.05 -106.65 78.9 -99.0 77.6 -88.75 L75.7 -74.15 89.4 -93.15 Q101.8 -110.4 109.05 -123.0 L126.95 -153.75 Q135.7 -169.25 140.6 -181.1 L141.05 -164.6 141.5 -148.4 Q144.3 -151.3 152.95 -168.7 160.5 -183.8 165.05 -194.5 170.55 -207.5 175.55 -221.9 180.6 -236.55 183.7 -248.55 L186.6 -233.2 Q194.55 -258.15 206.5 -289.25 206.65 -272.7 206.2 -257.4" fill="#ffffff" fill-rule="evenodd" stroke="none"/>
    <path d="M206.2 -257.4 L205.4 -233.8 212.4 -242.5 212.4 -240.9 212.45 -236.6 Q212.45 -223.65 211.9 -214.95 211.45 -208.15 210.2 -198.1 L217.2 -210.45 223.0 -220.4 Q218.1 -146.05 211.8 -97.7 204.2 -39.35 192.6 0.0 L0.0 0.0 Q21.3 -23.85 41.8 -51.55 61.95 -78.8 79.05 -106.65 78.9 -99.0 77.6 -88.75 L75.7 -74.15 89.4 -93.15 Q101.8 -110.4 109.05 -123.0 L126.95 -153.75 Q135.7 -169.25 140.6 -181.1 L141.05 -164.6 141.5 -148.4 Q144.3 -151.3 152.95 -168.7 160.5 -183.8 165.05 -194.5 170.55 -207.5 175.55 -221.9 180.6 -236.55 183.7 -248.55 L186.6 -233.2 Q194.55 -258.15 206.5 -289.25 206.65 -272.7 206.2 -257.4 Z" fill="none" stroke="#660000" stroke-linecap="round" stroke-linejoin="round" stroke-width="1.0"/>
  </g>
</svg>
