<?xml version="1.0" encoding="UTF-8" standalone="no"?>
<svg xmlns:xlink="http://www.w3.org/1999/xlink" height="54.0px" width="48.0px" xmlns="http://www.w3.org/2000/svg">
  <g transform="matrix(1.0, 0.0, 0.0, 1.0, 0.0, 0.0)">
    <path d="M47.0 1.65 Q46.9 1.0 46.0 1.0 L2.0 1.0 Q1.1 1.0 1.0 1.65 L1.0 52.3 Q1.05 53.0 2.0 53.0 L46.0 53.0 Q46.95 53.0 47.0 52.3 L47.0 1.65 M46.0 0.0 Q48.0 0.0 48.0 1.65 L48.0 52.3 Q48.0 54.0 46.0 54.0 L2.0 54.0 Q0.0 54.0 0.0 52.3 L0.0 1.65 Q0.0 0.0 2.0 0.0 L46.0 0.0" fill="#ca3cbd" fill-rule="evenodd" stroke="none"/>
  </g>
</svg>
