<?xml version="1.0" encoding="UTF-8" standalone="no"?>
<svg xmlns:xlink="http://www.w3.org/1999/xlink" height="41.15px" width="77.85px" xmlns="http://www.w3.org/2000/svg">
  <g transform="matrix(1.0, 0.0, 0.0, 1.0, 38.9, 20.55)">
    <path d="M-2.4 -18.15 L-2.85 -18.45 Q-2.8 -18.95 -1.95 -19.05 -1.1 -19.25 -0.85 -18.8 -0.75 -18.2 -1.7 -18.1 L-2.4 -18.15 M-9.0 -17.3 L-8.1 -18.05 -7.35 -18.2 -6.6 -18.25 Q-6.05 -18.2 -5.35 -17.65 L-4.4 -17.05 -3.5 -17.0 -2.6 -17.05 -0.55 -16.8 Q0.5 -16.75 1.35 -17.25 L1.95 -17.65 2.65 -17.9 Q3.15 -17.9 3.85 -17.55 4.7 -17.1 5.1 -17.05 L5.65 -17.0 6.2 -17.05 Q6.75 -17.05 7.05 -16.7 7.25 -15.3 5.95 -15.15 L5.2 -14.4 4.5 -13.55 Q3.8 -12.65 4.3 -11.2 4.75 -10.0 5.65 -9.5 6.3 -9.1 8.05 -8.8 L10.35 -8.35 12.8 -8.45 13.35 -8.85 13.75 -9.25 16.3 -9.3 19.05 -9.55 20.25 -9.35 20.9 -8.8 Q21.1 -8.25 20.7 -7.8 L19.95 -7.15 16.8 -7.3 13.65 -7.35 11.85 -6.85 Q10.75 -6.5 10.6 -6.05 10.35 -5.4 10.85 -4.5 L11.3 -3.8 11.45 -3.05 11.0 -1.85 Q10.55 -1.1 10.6 -0.65 10.7 0.0 11.55 0.25 L12.35 0.4 13.1 0.65 13.9 1.45 14.55 2.1 16.05 2.1 17.5 1.95 Q19.25 1.85 20.05 2.3 L20.25 3.1 20.25 3.65 19.4 4.5 Q18.65 4.9 18.6 5.4 18.55 6.3 19.45 6.55 L20.2 6.7 20.9 6.95 21.45 7.55 22.0 8.15 22.5 8.3 23.1 8.5 23.75 8.85 24.35 9.25 25.8 9.55 27.3 9.8 28.05 10.25 28.75 10.55 30.7 10.65 32.7 10.7 33.75 11.0 34.8 11.35 36.2 11.6 37.4 11.9 Q38.65 12.35 38.95 13.45 38.5 14.05 37.5 14.0 L35.65 13.55 34.45 12.85 Q33.7 12.3 33.15 12.1 L31.75 11.9 30.15 11.65 28.2 11.1 25.85 10.7 25.05 10.7 24.2 10.7 23.0 10.4 21.8 10.0 19.9 9.8 17.95 9.9 Q17.6 10.0 17.2 10.25 L16.4 10.75 14.55 11.25 14.0 11.75 13.45 12.2 13.2 13.25 12.55 14.2 11.95 15.15 Q11.7 15.65 11.8 16.05 12.05 17.05 14.3 17.3 L15.5 18.4 Q16.1 19.1 15.75 19.8 L14.95 20.45 Q14.25 20.65 13.55 20.45 12.9 20.3 12.0 19.15 L10.9 17.05 8.55 17.65 5.95 17.95 5.2 17.8 4.4 17.7 Q4.1 17.9 4.1 18.8 L4.0 20.15 Q3.25 20.8 2.3 20.55 L0.7 19.6 -0.3 18.65 Q-0.75 18.05 -0.75 17.15 L-0.45 16.3 -0.1 15.4 -0.9 14.6 -2.0 13.8 -2.8 12.9 -2.75 11.45 -3.4 10.35 -4.25 9.35 -6.45 9.4 Q-7.35 9.75 -8.1 10.55 L-8.9 11.4 -9.35 12.1 -8.35 13.1 Q-7.25 13.7 -7.15 13.85 -6.7 14.55 -6.75 15.45 -6.75 16.35 -7.15 16.85 L-8.15 17.6 -9.55 17.85 Q-10.25 17.8 -11.2 17.05 -12.2 16.35 -12.3 15.5 -12.35 15.15 -12.0 14.55 L-11.75 13.3 Q-12.75 13.1 -13.65 13.95 L-14.45 14.55 -15.4 14.85 -16.85 14.6 -18.15 14.2 -18.7 14.25 -19.35 14.55 -20.0 15.4 Q-20.4 16.0 -20.75 16.2 L-22.1 16.35 Q-22.95 16.3 -23.4 15.85 L-23.95 14.7 Q-24.25 13.85 -24.6 13.65 L-25.75 13.25 -26.95 13.1 -27.9 12.85 Q-28.65 12.7 -29.15 13.1 L-28.25 14.3 Q-27.75 15.1 -28.25 15.85 L-29.85 16.25 Q-30.85 16.25 -31.2 15.75 -31.65 15.15 -31.2 14.2 L-30.9 13.45 Q-30.7 13.0 -30.8 12.65 -30.8 12.2 -31.25 11.95 L-32.2 11.1 -32.35 10.65 -32.55 10.15 -33.25 9.0 -34.1 7.7 -34.4 6.35 Q-34.65 5.6 -35.05 5.3 -35.4 5.0 -36.05 5.0 L-37.05 4.95 -38.2 4.15 Q-38.85 3.5 -38.9 2.85 L-38.35 1.75 Q-37.85 1.1 -37.8 0.65 -37.65 -0.35 -37.95 -1.3 L-38.4 -2.3 Q-38.8 -2.85 -38.8 -3.4 L-38.4 -4.35 -37.8 -5.25 -37.6 -6.1 -37.4 -7.15 -37.0 -7.8 Q-36.75 -8.25 -36.85 -8.45 L-37.3 -9.35 -37.95 -10.2 Q-38.05 -10.95 -37.65 -11.65 -37.2 -12.4 -36.5 -12.55 L-35.8 -12.35 -35.05 -12.3 -34.3 -12.8 -33.65 -13.5 -32.75 -13.9 -31.95 -14.2 Q-31.1 -14.5 -31.1 -15.05 L-31.2 -15.5 -31.55 -15.85 Q-32.05 -16.15 -32.0 -16.7 -31.9 -17.35 -31.25 -17.4 L-30.1 -17.15 -29.25 -16.4 Q-28.75 -15.9 -28.45 -15.85 L-26.75 -16.0 -25.05 -16.5 -23.95 -16.6 Q-23.4 -16.7 -22.95 -16.95 L-22.4 -17.25 -21.85 -17.7 -21.2 -17.95 -20.65 -18.25 Q-20.2 -18.5 -19.45 -19.3 L-18.35 -20.25 -16.9 -20.55 Q-16.0 -20.55 -15.5 -20.0 -15.4 -19.45 -15.65 -19.05 L-16.25 -18.45 -16.8 -17.9 -17.7 -17.6 -18.7 -17.7 -19.65 -17.8 -20.6 -17.2 -21.3 -16.4 -21.1 -15.65 -20.55 -15.15 -15.15 -16.05 -10.0 -16.8 Q-9.55 -16.8 -9.0 -17.3 M-35.55 -3.45 L-34.95 -3.05 Q-34.25 -2.95 -33.85 -3.45 -33.6 -3.9 -33.65 -4.55 -33.75 -5.2 -34.2 -5.55 L-35.3 -5.7 -35.8 -5.1 -35.9 -4.3 -35.55 -3.45 M-34.85 2.5 L-34.55 3.15 -33.75 3.3 -33.65 2.55 -33.85 1.9 -34.55 1.95 -34.85 2.5 M-9.2 8.7 L-9.15 7.75 Q-9.25 7.2 -9.65 7.0 L-10.65 7.05 -11.1 7.65 -11.05 8.45 -10.6 9.1 -9.9 9.25 Q-9.4 9.2 -9.2 8.7 M17.2 -18.6 Q16.95 -17.65 15.5 -17.5 L12.9 -17.6 Q12.95 -18.15 13.45 -18.5 13.9 -18.85 14.65 -19.0 L16.1 -19.0 17.2 -18.6 M23.0 -11.1 Q22.5 -10.8 21.9 -11.1 L21.8 -11.3 Q21.85 -11.85 22.5 -12.1 L23.55 -12.0 Q23.6 -11.35 23.0 -11.1 M2.2 -14.2 L1.45 -14.55 0.35 -14.5 Q0.5 -14.0 1.25 -13.9 1.95 -13.8 2.2 -14.2 M13.9 -12.35 Q14.45 -12.55 15.05 -12.35 15.65 -12.2 16.05 -11.75 16.4 -11.3 16.2 -10.65 L15.1 -10.45 13.75 -10.45 13.4 -11.1 Q13.15 -11.5 13.2 -11.75 L13.9 -12.35 M8.5 0.05 L7.85 -0.3 7.1 -0.2 6.6 0.25 7.25 0.9 8.25 1.1 8.6 0.8 8.5 0.05 M19.7 18.4 L18.9 17.85 Q18.6 17.45 18.85 16.95 20.3 16.75 21.55 17.3 22.75 17.85 23.1 18.95 21.95 19.5 19.7 18.4 M26.75 3.0 L25.55 3.0 Q24.85 2.6 24.75 2.0 24.65 1.45 25.05 0.95 25.5 0.45 26.1 0.4 26.75 0.35 27.3 0.9 L27.7 1.6 27.65 2.65 26.75 3.0" fill="url(#gradient0)" fill-rule="evenodd" stroke="none"/>
  </g>
  <defs>
    <linearGradient gradientTransform="matrix(0.0, -0.0255, 0.0251, 0.0, -0.05, 0.05)" gradientUnits="userSpaceOnUse" id="gradient0" spreadMethod="pad" x1="-819.2" x2="819.2">
      <stop offset="0.39215686274509803" stop-color="#ee2626"/>
      <stop offset="0.9568627450980393" stop-color="#611010"/>
    </linearGradient>
  </defs>
</svg>
