<?xml version="1.0" encoding="UTF-8" standalone="no"?>
<svg xmlns:xlink="http://www.w3.org/1999/xlink" height="22.05px" width="331.25px" xmlns="http://www.w3.org/2000/svg">
  <g transform="matrix(1.0, 0.0, 0.0, 1.0, 165.65, 21.05)">
    <path d="M163.1 -4.15 Q87.35 -19.05 0.2 -19.05 -86.95 -19.05 -162.75 -4.15 -164.45 -2.6 -162.85 -1.0 -87.0 -16.05 0.2 -16.05 87.35 -16.05 163.1 -1.05 164.15 -2.6 163.1 -4.15 Z" fill="none" stroke="#000000" stroke-linecap="round" stroke-linejoin="round" stroke-width="4.0"/>
    <path d="M163.05 -4.1 Q164.25 -2.45 163.05 -1.0 87.3 -16.0 0.15 -16.0 -87.05 -16.0 -162.8 -1.0 -164.4 -2.55 -162.8 -4.1 -87.0 -19.0 0.15 -19.0 87.3 -19.0 163.05 -4.1" fill="url(#gradient0)" fill-rule="evenodd" stroke="none"/>
  </g>
  <defs>
    <linearGradient gradientTransform="matrix(0.1989, 0.0, 0.0, 0.011, 0.1, -10.0)" gradientUnits="userSpaceOnUse" id="gradient0" spreadMethod="pad" x1="-819.2" x2="819.2">
      <stop offset="0.0" stop-color="#959595"/>
      <stop offset="0.19607843137254902" stop-color="#ffffff"/>
      <stop offset="0.5058823529411764" stop-color="#ffffff"/>
      <stop offset="0.8274509803921568" stop-color="#ffffff"/>
      <stop offset="1.0" stop-color="#959595"/>
    </linearGradient>
  </defs>
</svg>
