<?xml version="1.0" encoding="UTF-8" standalone="no"?>
<svg xmlns:xlink="http://www.w3.org/1999/xlink" height="78.9px" width="91.35px" xmlns="http://www.w3.org/2000/svg">
  <g transform="matrix(1.0, 0.0, 0.0, 1.0, 45.85, 39.9)">
    <path d="M40.25 -32.15 L42.55 -32.45 42.6 -32.45 Q43.5 -32.6 44.35 -32.1 44.35 -32.1 44.45 -32.05 45.2 -31.55 45.45 -30.55 L45.4 -30.7 Q45.65 -29.8 45.25 -28.9 L45.25 -28.85 44.25 -26.85 43.5 -26.0 43.5 -25.95 Q43.0 -25.65 42.45 -25.5 L42.4 -25.5 34.8 -25.2 33.45 -25.3 33.15 -24.7 33.15 -24.65 32.1 -23.75 32.05 -23.7 30.75 -23.5 15.05 -24.45 12.3 -21.65 Q11.55 -20.9 10.5 -20.9 L-3.5 -20.9 Q-4.55 -20.9 -5.25 -21.6 L-6.85 -23.2 -7.45 -21.8 -7.5 -21.7 Q-7.9 -20.8 -8.9 -20.4 L-8.8 -20.45 -21.65 -15.05 -21.7 -15.05 -22.65 -14.8 -22.8 -14.2 -28.1 -1.3 -28.15 -1.2 -28.65 -0.5 -28.1 0.35 -28.05 0.4 -22.7 13.2 -22.7 13.25 -22.45 14.15 -21.5 14.4 -8.7 19.65 Q-7.75 20.0 -7.35 21.05 L-7.35 21.0 -6.6 22.75 -4.55 20.75 Q-3.85 20.0 -2.8 20.0 L11.25 20.0 Q12.25 20.0 13.0 20.75 L15.75 23.5 16.45 23.5 Q24.0 23.0 29.25 21.35 L30.65 21.3 30.75 21.35 31.85 22.0 31.85 22.05 32.0 22.15 34.3 20.2 34.3 20.15 Q34.9 19.6 35.7 19.55 L35.65 19.55 Q36.45 19.4 37.15 19.8 L37.2 19.8 38.25 20.85 38.25 20.9 39.25 22.9 Q39.6 23.6 39.5 24.45 L39.45 24.6 Q39.25 25.35 38.6 25.9 L38.7 25.85 33.45 30.1 33.5 30.45 33.5 30.5 Q33.6 31.35 33.15 32.15 L33.1 32.2 Q32.6 32.95 31.7 33.2 L31.75 33.2 Q24.55 35.45 16.85 35.5 L15.75 35.5 13.0 38.3 13.0 38.25 Q12.25 39.0 11.25 39.0 L-2.8 39.0 Q-3.85 39.0 -4.55 38.25 L-4.55 38.3 -7.35 35.5 -8.0 35.5 -9.8 35.5 -9.95 35.55 -10.05 35.6 -14.0 37.2 Q-14.95 37.55 -15.85 37.2 L-15.9 37.2 -28.8 31.9 -28.85 31.85 Q-29.75 31.45 -30.15 30.55 L-31.75 26.7 -31.85 26.45 -33.4 25.0 -34.7 23.65 -34.85 23.6 -34.95 23.55 -38.85 21.95 -38.9 21.9 Q-39.85 21.5 -40.2 20.5 L-40.2 20.6 -45.6 7.7 -45.6 7.65 Q-46.0 6.7 -45.6 5.75 L-44.0 1.85 -43.95 1.7 -44.0 -0.5 -43.95 -2.35 -44.0 -2.45 -44.05 -2.65 -45.65 -6.6 -45.7 -6.7 Q-46.05 -7.65 -45.6 -8.55 L-40.35 -21.4 -40.35 -21.35 Q-40.0 -22.35 -39.0 -22.75 L-38.95 -22.75 -35.1 -24.4 -34.75 -24.5 -33.4 -25.9 -32.0 -27.25 -32.0 -27.3 -30.4 -31.2 -30.4 -31.15 Q-30.05 -32.15 -29.05 -32.55 L-29.0 -32.55 -16.15 -37.95 Q-15.2 -38.35 -14.25 -37.95 L-10.5 -36.4 -8.0 -36.5 -7.85 -36.5 -5.25 -39.15 Q-4.55 -39.9 -3.5 -39.9 L10.55 -39.9 Q11.55 -39.9 12.25 -39.15 L15.0 -36.45 31.25 -35.5 31.35 -35.45 Q32.25 -35.35 32.85 -34.65 L32.9 -34.6 33.3 -34.65 Q36.6 -34.85 39.35 -33.1 L40.25 -32.15" fill="#000000" fill-rule="evenodd" stroke="none"/>
    <path d="M35.5 -29.65 L43.0 -30.0 42.0 -28.0 34.95 -27.7 Q31.45 -27.95 29.0 -29.0 L29.0 -31.0 Q31.8 -29.95 35.5 -29.65" fill="url(#gradient0)" fill-rule="evenodd" stroke="none"/>
    <path d="M26.0 31.0 L26.0 29.0 Q32.15 25.65 36.0 22.0 L37.0 24.0 Q30.8 29.6 26.0 31.0" fill="url(#gradient1)" fill-rule="evenodd" stroke="none"/>
    <path d="M30.0 -30.0 L30.0 -31.0 Q31.25 -32.0 33.45 -32.15 35.95 -32.3 38.0 -31.0 L37.2 -30.0 Q36.2 -31.05 33.85 -31.05 31.55 -31.05 30.0 -30.0" fill="url(#gradient2)" fill-rule="evenodd" stroke="none"/>
    <path d="M12.0 -27.0 L-8.0 -27.0 Q-18.95 -27.0 -26.7 -19.2 -34.5 -11.45 -34.5 -0.5 -34.5 10.45 -26.7 18.25 -18.95 26.0 -8.0 26.0 L12.0 26.0 12.0 33.0 -8.0 33.0 Q-21.85 33.0 -31.65 23.2 -41.5 13.35 -41.5 -0.5 -41.5 -14.35 -31.65 -24.15 -21.85 -34.0 -8.0 -34.0 L12.0 -34.0 12.0 -27.0" fill="url(#gradient3)" fill-rule="evenodd" stroke="none"/>
    <path d="M31.0 -26.0 L12.0 -27.0 12.0 -34.0 31.0 -33.0 31.0 -26.0" fill="url(#gradient4)" fill-rule="evenodd" stroke="none"/>
    <path d="M12.0 26.0 L16.6 26.0 Q24.5 25.45 30.0 23.7 L31.0 30.8 Q24.15 32.95 16.8 33.0 L12.0 33.0 12.0 26.0" fill="url(#gradient5)" fill-rule="evenodd" stroke="none"/>
  </g>
  <defs>
    <radialGradient cx="0" cy="0" gradientTransform="matrix(0.0172, 0.0, 0.0, 0.0065, 37.3, -32.0)" gradientUnits="userSpaceOnUse" id="gradient0" r="819.2" spreadMethod="pad">
      <stop offset="0.0" stop-color="#cb6341"/>
      <stop offset="0.4588235294117647" stop-color="#913c27"/>
      <stop offset="0.6352941176470588" stop-color="#f2d5d2"/>
      <stop offset="0.7803921568627451" stop-color="#663120"/>
    </radialGradient>
    <radialGradient cx="0" cy="0" gradientTransform="matrix(0.0134, -0.0105, 0.002, 0.0026, 31.4, 24.7)" gradientUnits="userSpaceOnUse" id="gradient1" r="819.2" spreadMethod="pad">
      <stop offset="0.0" stop-color="#cb6341"/>
      <stop offset="0.4588235294117647" stop-color="#cd9b91"/>
      <stop offset="0.6352941176470588" stop-color="#f2d5d2"/>
      <stop offset="0.9058823529411765" stop-color="#976a5e"/>
      <stop offset="1.0" stop-color="#713624"/>
    </radialGradient>
    <linearGradient gradientTransform="matrix(0.0049, 0.0, 0.0, 0.0013, 34.0, -31.1)" gradientUnits="userSpaceOnUse" id="gradient2" spreadMethod="pad" x1="-819.2" x2="819.2">
      <stop offset="0.0" stop-color="#162670"/>
      <stop offset="1.0" stop-color="#2475e1"/>
    </linearGradient>
    <radialGradient cx="0" cy="0" gradientTransform="matrix(0.0415, 0.0, 0.0, 0.0415, -8.0, 0.0)" gradientUnits="userSpaceOnUse" id="gradient3" r="819.2" spreadMethod="pad">
      <stop offset="0.7607843137254902" stop-color="#681717"/>
      <stop offset="0.8784313725490196" stop-color="#dd2222"/>
      <stop offset="0.9529411764705882" stop-color="#781414"/>
    </radialGradient>
    <radialGradient cx="0" cy="0" fx="137.6" fy="0" gradientTransform="matrix(0.0268, 0.0011, -2.0E-4, 0.0055, 28.0, -30.0)" gradientUnits="userSpaceOnUse" id="gradient4" r="819.2" spreadMethod="pad">
      <stop offset="0.12156862745098039" stop-color="#e90e0e"/>
      <stop offset="0.7843137254901961" stop-color="#661111"/>
      <stop offset="1.0" stop-color="#661111"/>
    </radialGradient>
    <radialGradient cx="0" cy="0" fx="153.60000000000002" fy="0" gradientTransform="matrix(0.0341, -0.0055, 9.0E-4, 0.0054, 26.0, 28.0)" gradientUnits="userSpaceOnUse" id="gradient5" r="819.2" spreadMethod="pad">
      <stop offset="0.11372549019607843" stop-color="#e90e0e"/>
      <stop offset="0.7686274509803922" stop-color="#661111"/>
      <stop offset="0.9764705882352941" stop-color="#851616"/>
    </radialGradient>
  </defs>
</svg>
