<?xml version="1.0" encoding="UTF-8" standalone="no"?>
<svg xmlns:xlink="http://www.w3.org/1999/xlink" height="17.0px" width="23.0px" xmlns="http://www.w3.org/2000/svg">
  <g transform="matrix(1.0, 0.0, 0.0, 1.0, 11.5, 8.5)">
    <path d="M11.5 -4.0 L11.5 4.0 11.05 5.05 8.05 8.05 Q7.6 8.5 7.0 8.5 L-7.0 8.5 Q-7.6 8.5 -8.05 8.05 L-11.05 5.05 -11.5 4.0 -11.5 -4.0 -11.05 -5.05 -8.1 -8.0 -8.05 -8.05 Q-7.6 -8.5 -7.0 -8.5 L7.0 -8.5 Q7.6 -8.5 8.05 -8.05 L11.05 -5.05 11.5 -4.0" fill="#000000" fill-opacity="0.15294118" fill-rule="evenodd" stroke="none"/>
    <path d="M7.0 7.0 L-7.0 7.0 -7.0 -7.0 7.0 -7.0 7.0 7.0" fill="url(#gradient0)" fill-rule="evenodd" stroke="none"/>
    <path d="M10.0 -4.0 L10.0 4.0 7.0 7.0 7.0 -7.0 10.0 -4.0" fill="url(#gradient1)" fill-rule="evenodd" stroke="none"/>
    <path d="M-10.0 -4.0 L-7.0 -7.0 -7.0 7.0 -10.0 4.0 -10.0 -4.0" fill="url(#gradient2)" fill-rule="evenodd" stroke="none"/>
    <path d="M-6.0 -1.0 L-6.0 1.0 -7.0 1.0 -7.0 -1.0 -6.0 -1.0" fill="url(#gradient3)" fill-rule="evenodd" stroke="none"/>
    <path d="M7.0 -1.0 L7.0 1.0 6.0 1.0 6.0 -1.0 7.0 -1.0" fill="url(#gradient4)" fill-rule="evenodd" stroke="none"/>
  </g>
  <defs>
    <linearGradient gradientTransform="matrix(0.0, -0.0085, 0.0085, 0.0, 0.5, 0.0)" gradientUnits="userSpaceOnUse" id="gradient0" spreadMethod="pad" x1="-819.2" x2="819.2">
      <stop offset="0.0" stop-color="#4e4e5c"/>
      <stop offset="0.08627450980392157" stop-color="#353535"/>
      <stop offset="0.21176470588235294" stop-color="#4a4a4a"/>
      <stop offset="0.43137254901960786" stop-color="#808080"/>
      <stop offset="0.5686274509803921" stop-color="#808080"/>
      <stop offset="0.792156862745098" stop-color="#4a4a4a"/>
      <stop offset="0.9137254901960784" stop-color="#353535"/>
      <stop offset="1.0" stop-color="#4e4e5c"/>
    </linearGradient>
    <radialGradient cx="0" cy="0" gradientTransform="matrix(0.0146, 0.0, 0.0, 0.009, 7.05, 0.0)" gradientUnits="userSpaceOnUse" id="gradient1" r="819.2" spreadMethod="pad">
      <stop offset="0.1450980392156863" stop-color="#b8b8b8"/>
      <stop offset="0.49019607843137253" stop-color="#6a6a6a"/>
      <stop offset="0.7607843137254902" stop-color="#515151"/>
      <stop offset="0.984313725490196" stop-color="#919191"/>
    </radialGradient>
    <radialGradient cx="0" cy="0" gradientTransform="matrix(0.0087, 0.0, 0.0, 0.0087, -7.2, 0.0)" gradientUnits="userSpaceOnUse" id="gradient2" r="819.2" spreadMethod="pad">
      <stop offset="0.1450980392156863" stop-color="#b8b8b8"/>
      <stop offset="0.49019607843137253" stop-color="#6a6a6a"/>
      <stop offset="0.7607843137254902" stop-color="#515151"/>
      <stop offset="0.984313725490196" stop-color="#919191"/>
    </radialGradient>
    <linearGradient gradientTransform="matrix(0.0, -0.0012, 0.0012, 0.0, -6.5, 0.0)" gradientUnits="userSpaceOnUse" id="gradient3" spreadMethod="pad" x1="-819.2" x2="819.2">
      <stop offset="0.12156862745098039" stop-color="#959595"/>
      <stop offset="0.1411764705882353" stop-color="#6d6d6d"/>
      <stop offset="0.8666666666666667" stop-color="#2b2b2b"/>
      <stop offset="0.8901960784313725" stop-color="#202020"/>
    </linearGradient>
    <linearGradient gradientTransform="matrix(0.0, -0.0012, 0.0012, 0.0, 6.5, 0.0)" gradientUnits="userSpaceOnUse" id="gradient4" spreadMethod="pad" x1="-819.2" x2="819.2">
      <stop offset="0.12156862745098039" stop-color="#959595"/>
      <stop offset="0.1411764705882353" stop-color="#6d6d6d"/>
      <stop offset="0.8666666666666667" stop-color="#2b2b2b"/>
      <stop offset="0.8901960784313725" stop-color="#202020"/>
    </linearGradient>
  </defs>
</svg>
