<?xml version="1.0" encoding="UTF-8" standalone="no"?>
<svg xmlns:xlink="http://www.w3.org/1999/xlink" height="359.4px" width="171.0px" xmlns="http://www.w3.org/2000/svg">
  <g transform="matrix(1.0, 0.0, 0.0, 1.0, -368.0, 7.0)">
    <path d="M538.7 144.15 Q531.65 164.75 523.6 185.85 508.5 225.35 496.2 248.4 481.6 249.9 465.4 258.15 449.8 266.1 435.3 278.9 420.8 291.7 410.2 306.9 399.1 322.8 394.25 338.6 388.7 338.2 380.75 343.25 376.25 346.15 368.0 352.4 375.2 338.2 377.05 324.95 379.55 307.15 368.85 303.55 L368.6 303.4 375.0 292.25 382.0 279.5 Q400.85 268.15 414.25 246.35 426.45 226.55 433.0 200.05 439.1 175.5 439.45 149.05 439.85 123.6 434.95 102.0 443.6 98.55 456.45 87.5 470.05 75.8 482.0 60.9 512.3 23.05 510.95 -7.0 523.4 8.15 532.65 68.35 536.2 91.8 537.95 113.95 539.6 135.2 538.7 144.15" fill="url(#gradient0)" fill-rule="evenodd" stroke="none"/>
  </g>
  <defs>
    <linearGradient gradientTransform="matrix(3.0E-4, -0.3259, 0.3271, 2.0E-4, 445.4, 274.0)" gradientUnits="userSpaceOnUse" id="gradient0" spreadMethod="pad" x1="-819.2" x2="819.2">
      <stop offset="0.0" stop-color="#9ae2fa"/>
      <stop offset="0.8156862745098039" stop-color="#1581ea"/>
    </linearGradient>
  </defs>
</svg>
