<?xml version="1.0" encoding="UTF-8" standalone="no"?>
<svg xmlns:xlink="http://www.w3.org/1999/xlink" height="84.0px" width="84.0px" xmlns="http://www.w3.org/2000/svg">
  <g transform="matrix(1.0, 0.0, 0.0, 1.0, 42.0, 42.0)">
    <path d="M4.0 41.0 L4.0 36.8 4.0 35.0 8.0 36.0 8.0 40.0 4.0 41.0" fill="url(#gradient0)" fill-rule="evenodd" stroke="none"/>
    <path d="M4.0 41.0 L4.0 42.0 0.0 42.0 Q-17.4 42.0 -29.7 29.7 -42.0 17.4 -42.0 0.0 -42.0 -8.05 -39.35 -15.0 L-33.95 -15.0 Q-31.3 -21.1 -26.2 -26.2 -21.1 -31.3 -15.0 -33.95 L-15.0 -39.35 Q-8.05 -42.0 0.0 -42.0 17.4 -42.0 29.7 -29.7 42.0 -17.4 42.0 0.0 L41.85 4.0 36.8 4.0 34.0 4.0 34.05 2.0 34.0 0.0 Q34.0 -8.95 30.0 -16.25 L31.45 -19.65 Q29.25 -23.1 26.15 -26.2 23.1 -29.25 19.7 -31.45 L16.25 -29.95 Q8.95 -34.0 0.0 -34.0 -14.1 -34.0 -24.05 -24.05 -34.0 -14.1 -34.0 0.0 -34.0 8.95 -29.95 16.25 L-31.45 19.7 Q-29.25 23.1 -26.2 26.15 -23.1 29.25 -19.65 31.45 L-16.25 30.0 Q-8.95 34.0 0.0 34.0 L4.0 34.0 4.0 35.0 4.0 36.8 4.0 41.0" fill="url(#gradient1)" fill-rule="evenodd" stroke="none"/>
    <path d="M3.0 -34.0 L-3.0 -34.0 -3.0 -42.0 3.0 -42.0 3.0 -34.0" fill="url(#gradient2)" fill-rule="evenodd" stroke="none"/>
    <path d="M-3.0 34.0 L3.0 34.0 3.0 42.0 -3.0 42.0 -3.0 34.0" fill="url(#gradient3)" fill-rule="evenodd" stroke="none"/>
    <path d="M42.0 -3.0 L42.0 3.0 34.0 3.0 34.0 -3.0 42.0 -3.0" fill="url(#gradient4)" fill-rule="evenodd" stroke="none"/>
    <path d="M-34.0 -3.0 L-34.0 3.0 -42.0 3.0 -42.0 -3.0 -34.0 -3.0" fill="url(#gradient5)" fill-rule="evenodd" stroke="none"/>
    <path d="M17.0 -32.0 Q16.6 -32.0 16.3 -32.3 16.0 -32.6 16.0 -33.0 16.0 -33.4 16.3 -33.7 16.6 -34.0 17.0 -34.0 L17.7 -33.7 18.0 -33.0 17.7 -32.3 17.0 -32.0 M33.7 -16.3 Q33.4 -16.0 33.0 -16.0 32.6 -16.0 32.3 -16.3 32.0 -16.6 32.0 -17.0 32.0 -17.4 32.3 -17.7 L33.0 -18.0 33.7 -17.7 34.0 -17.0 33.7 -16.3 M6.0 39.0 L5.3 38.7 5.0 38.0 Q5.0 37.6 5.3 37.3 5.6 37.0 6.0 37.0 6.4 37.0 6.7 37.3 L7.0 38.0 6.7 38.7 Q6.4 39.0 6.0 39.0 M-32.0 17.0 Q-32.0 17.4 -32.3 17.7 L-33.0 18.0 -33.7 17.7 -34.0 17.0 -33.7 16.3 Q-33.4 16.0 -33.0 16.0 -32.6 16.0 -32.3 16.3 -32.0 16.6 -32.0 17.0 M-16.0 33.0 Q-16.0 33.4 -16.3 33.7 -16.6 34.0 -17.0 34.0 L-17.7 33.7 -18.0 33.0 -17.7 32.3 -17.0 32.0 Q-16.6 32.0 -16.3 32.3 -16.0 32.6 -16.0 33.0" fill="#000000" fill-rule="evenodd" stroke="none"/>
    <path d="M-34.0 -15.0 L-33.0 -13.0 M-15.0 -34.0 L-13.0 -33.0" fill="none" stroke="#000000" stroke-linecap="round" stroke-linejoin="round" stroke-width="0.5"/>
    <path d="M33.8 -4.0 L41.8 -4.0 41.8 -3.0 33.8 -3.0 33.8 -4.0 M4.0 -41.8 L4.0 -33.8 3.0 -33.8 3.0 -41.8 4.0 -41.8 M42.0 4.0 L34.0 4.0 34.0 3.0 42.0 3.0 42.0 4.0 M3.0 42.0 L3.0 34.0 4.0 34.0 4.0 42.0 3.0 42.0 M-42.0 -4.0 L-34.0 -4.0 -34.0 -3.0 -42.0 -3.0 -42.0 -4.0 M-3.0 -41.8 L-3.0 -33.8 -4.0 -33.8 -4.0 -41.8 -3.0 -41.8 M-3.0 41.8 L-4.0 41.8 -4.0 33.8 -3.0 33.8 -3.0 41.8 M-34.0 4.0 L-42.0 4.0 -42.0 3.0 -34.0 3.0 -34.0 4.0" fill="#000000" fill-opacity="0.101960786" fill-rule="evenodd" stroke="none"/>
    <path d="M15.55 -15.55 Q22.0 -9.1 22.0 0.0 22.0 9.1 15.55 15.55 9.1 22.0 0.0 22.0 -9.1 22.0 -15.55 15.55 -22.0 9.1 -22.0 0.0 -22.0 -9.1 -15.55 -15.55 -9.1 -22.0 0.0 -22.0 9.1 -22.0 15.55 -15.55" fill="url(#gradient6)" fill-rule="evenodd" stroke="none"/>
    <path d="M5.75 -6.8 Q5.8 -7.4 6.4 -7.7 L7.8 -7.95 8.25 -8.5 8.6 -8.35 8.75 -7.9 8.65 -7.6 9.05 -7.05 10.2 -3.9 10.25 -4.65 9.65 -7.65 Q14.1 -8.5 15.45 -5.65 16.4 -4.8 16.8 -3.75 17.25 -3.35 17.25 -2.4 L17.2 -2.0 17.25 -1.25 17.0 0.3 16.75 1.25 Q16.75 2.0 15.05 3.8 L13.1 5.4 12.55 6.0 12.2 6.2 12.15 6.25 11.85 6.55 11.75 6.05 11.65 6.35 Q11.5 6.75 11.0 6.75 L10.8 6.7 10.85 7.0 10.6 7.0 10.2 7.0 9.1 7.75 8.7 8.0 8.75 7.75 8.85 7.4 8.1 5.5 7.95 7.1 8.0 7.25 7.9 7.4 7.9 7.5 7.55 7.75 Q7.95 8.1 8.25 8.1 L8.6 8.05 Q7.0 8.95 5.05 9.2 L4.6 9.25 Q4.05 9.25 3.65 8.65 L3.75 9.25 2.35 9.05 0.8 9.55 0.6 9.25 0.0 9.75 -0.25 9.4 -1.15 10.0 -1.1 10.05 -1.35 10.25 Q-3.7 12.25 -5.6 12.25 -6.65 12.25 -8.15 7.9 L-9.45 5.25 -9.5 5.15 Q-10.6 3.85 -11.85 0.65 L-13.5 -4.5 Q-13.5 -5.15 -12.95 -5.55 L-13.25 -7.55 Q-13.25 -10.2 -12.45 -10.5 L-12.5 -11.05 Q-12.5 -12.65 -9.85 -14.15 L-9.6 -14.25 -9.6 -14.2 -9.35 -14.6 -8.55 -15.0 -8.55 -15.15 -8.55 -15.5 -7.9 -15.65 -6.5 -16.4 -5.45 -16.3 -5.35 -16.35 Q-4.25 -16.75 -2.75 -15.85 1.0 -13.6 1.0 -9.5 L0.9 -8.25 1.1 -5.55 2.25 -5.95 3.25 -6.15 4.25 -6.9 Q4.7 -7.25 5.25 -7.25 L5.7 -6.8 5.75 -6.8 M3.7 -3.6 L3.6 -2.65 3.6 -2.6 3.55 -1.75 3.85 -1.3 Q3.95 -1.95 4.25 -2.25 L5.0 -1.2 5.15 -2.25 4.5 -2.3 4.05 -3.3 3.75 -3.5 3.8 -3.55 3.7 -3.6 M11.15 1.85 L10.95 0.25 10.95 0.05 10.9 0.25 11.15 1.85 M11.4 4.1 L11.3 4.35 11.55 4.65 11.45 3.95 11.4 4.1 M6.15 0.8 L5.75 0.05 5.85 0.95 6.15 0.8 M6.6 1.8 L6.55 1.65 6.95 3.4 7.1 4.15 7.25 3.4 6.6 1.8 M3.55 0.1 L3.45 -0.05 3.4 1.7 Q3.85 2.45 3.9 3.95 L4.1 6.65 4.25 6.65 4.25 4.4 3.8 0.45 3.55 0.1 M5.05 9.2 L5.05 9.05 5.0 9.15 5.05 9.2 M2.35 12.05 Q2.9 11.15 3.5 11.45 4.15 11.7 3.75 12.6 L4.05 12.75 Q4.85 13.4 5.0 16.0 L6.45 15.3 8.1 15.15 8.65 15.0 Q9.4 15.05 10.35 15.95 L10.2 16.35 9.8 16.85 9.65 16.8 9.5 17.2 8.0 18.4 Q6.55 19.35 6.0 19.35 L5.85 19.3 5.35 19.45 4.2 20.35 3.1 20.65 Q2.75 20.45 2.0 18.9 L1.3 17.1 1.15 16.5 Q1.0 15.8 1.1 14.75 L1.45 12.65 Q1.8 12.05 2.2 12.0 L2.35 12.05 M-8.3 -13.5 L-8.4 -14.05 -8.75 -13.4 -8.6 -12.95 -8.3 -13.5 M-8.9 -11.8 L-8.8 -12.25 -9.3 -12.4 -8.95 -10.75 -8.9 -11.8 M-7.4 -7.9 L-7.45 -8.15 -7.2 -8.75 -7.95 -11.9 -8.0 -11.8 -7.4 -7.9 M-6.35 -3.25 L-6.5 -3.25 -5.85 -0.3 -5.3 0.55 Q-5.45 -1.65 -5.95 -3.25 L-6.35 -3.25 M-2.0 5.85 L-1.5 6.8 -1.25 6.55 -1.55 6.1 -2.0 5.4 -2.0 5.85 M-4.05 5.9 Q-3.0 8.15 -1.85 9.35 L-1.75 8.35 -2.0 7.8 -2.1 7.6 -2.15 7.65 -2.6 7.75 Q-3.3 7.75 -3.9 5.75 L-4.05 5.9 M-2.75 4.6 L-2.5 4.5 -3.85 2.05 -3.55 3.25 -2.75 4.6 M-0.75 7.3 L-0.75 7.45 -0.75 7.75 -0.7 7.35 -0.75 7.3 M-0.75 7.85 L-0.75 8.25 -0.7 8.35 -0.7 8.3 -0.75 7.85" fill="#ffffff" fill-rule="evenodd" stroke="none"/>
  </g>
  <defs>
    <linearGradient gradientTransform="matrix(0.0, -0.0049, 0.0037, 0.0, 6.5, 38.0)" gradientUnits="userSpaceOnUse" id="gradient0" spreadMethod="pad" x1="-819.2" x2="819.2">
      <stop offset="0.03529411764705882" stop-color="#3f3c4a"/>
      <stop offset="1.0" stop-color="#5a566c"/>
    </linearGradient>
    <linearGradient gradientTransform="matrix(0.0393, -0.0362, 0.0347, 0.0377, 0.0, 0.0)" gradientUnits="userSpaceOnUse" id="gradient1" spreadMethod="pad" x1="-819.2" x2="819.2">
      <stop offset="0.023529411764705882" stop-color="#b5b1b8"/>
      <stop offset="0.07058823529411765" stop-color="#968f9a"/>
      <stop offset="0.3333333333333333" stop-color="#696372"/>
      <stop offset="0.8862745098039215" stop-color="#675c70"/>
      <stop offset="1.0" stop-color="#644f71"/>
    </linearGradient>
    <linearGradient gradientTransform="matrix(0.0038, 0.0, 0.0, 0.0049, -0.15, -38.4)" gradientUnits="userSpaceOnUse" id="gradient2" spreadMethod="pad" x1="-819.2" x2="819.2">
      <stop offset="0.0" stop-color="#ffffff" stop-opacity="0.0"/>
      <stop offset="0.4980392156862745" stop-color="#ffffff" stop-opacity="0.2509804"/>
      <stop offset="0.6039215686274509" stop-color="#ffffff" stop-opacity="0.2509804"/>
      <stop offset="1.0" stop-color="#ffffff" stop-opacity="0.0"/>
    </linearGradient>
    <linearGradient gradientTransform="matrix(0.0038, 0.0, 0.0, 0.0049, -0.15, 37.6)" gradientUnits="userSpaceOnUse" id="gradient3" spreadMethod="pad" x1="-819.2" x2="819.2">
      <stop offset="0.0" stop-color="#ffffff" stop-opacity="0.0"/>
      <stop offset="0.4980392156862745" stop-color="#ffffff" stop-opacity="0.2509804"/>
      <stop offset="0.6039215686274509" stop-color="#ffffff" stop-opacity="0.2509804"/>
      <stop offset="1.0" stop-color="#ffffff" stop-opacity="0.0"/>
    </linearGradient>
    <linearGradient gradientTransform="matrix(0.0, -0.0037, 0.0049, 0.0, 37.85, -0.25)" gradientUnits="userSpaceOnUse" id="gradient4" spreadMethod="pad" x1="-819.2" x2="819.2">
      <stop offset="0.0" stop-color="#ffffff" stop-opacity="0.0"/>
      <stop offset="0.4980392156862745" stop-color="#ffffff" stop-opacity="0.2509804"/>
      <stop offset="0.6039215686274509" stop-color="#ffffff" stop-opacity="0.2509804"/>
      <stop offset="1.0" stop-color="#ffffff" stop-opacity="0.0"/>
    </linearGradient>
    <linearGradient gradientTransform="matrix(0.0, -0.0037, 0.0049, 0.0, -38.15, -0.25)" gradientUnits="userSpaceOnUse" id="gradient5" spreadMethod="pad" x1="-819.2" x2="819.2">
      <stop offset="0.0" stop-color="#ffffff" stop-opacity="0.0"/>
      <stop offset="0.4980392156862745" stop-color="#ffffff" stop-opacity="0.2509804"/>
      <stop offset="0.6039215686274509" stop-color="#ffffff" stop-opacity="0.2509804"/>
      <stop offset="1.0" stop-color="#ffffff" stop-opacity="0.0"/>
    </linearGradient>
    <radialGradient cx="0" cy="0" fx="678.4000000000001" fy="0" gradientTransform="matrix(0.0216, -0.0217, 0.0224, 0.0223, 2.1, -2.1)" gradientUnits="userSpaceOnUse" id="gradient6" r="819.2" spreadMethod="pad">
      <stop offset="0.8117647058823529" stop-color="#ffffff" stop-opacity="0.0"/>
      <stop offset="0.8235294117647058" stop-color="#ffffff" stop-opacity="0.08235294"/>
      <stop offset="1.0" stop-color="#ffffff" stop-opacity="0.0"/>
    </radialGradient>
  </defs>
</svg>
