<?xml version="1.0" encoding="UTF-8" standalone="no"?>
<svg xmlns:xlink="http://www.w3.org/1999/xlink" height="24.65px" width="24.55px" xmlns="http://www.w3.org/2000/svg">
  <g transform="matrix(1.0, 0.0, 0.0, 1.0, -12.7, -12.65)">
    <path d="M36.95 14.15 L34.0 18.2 31.65 21.2 28.15 24.95 31.65 28.75 33.95 31.75 Q36.35 34.5 36.95 35.75 37.4 36.7 37.0 37.1 L35.65 37.05 Q34.4 36.45 31.6 34.05 L28.65 31.7 24.9 28.25 21.2 31.65 18.25 33.95 Q15.45 36.35 14.2 36.95 L12.9 37.0 Q12.5 36.6 12.95 35.65 13.55 34.4 15.95 31.6 L18.25 28.65 21.7 24.95 18.3 21.3 15.95 18.3 Q13.6 15.55 12.95 14.3 12.55 13.35 12.95 12.95 L14.3 13.0 Q15.5 13.6 18.25 16.0 L21.2 18.35 Q22.25 19.05 24.9 21.7 L28.65 18.2 31.7 15.85 Q34.45 13.5 35.7 12.9 L37.05 12.85 Q37.45 13.25 36.95 14.15" fill="#cc0000" fill-rule="evenodd" stroke="none"/>
  </g>
</svg>
