<?xml version="1.0" encoding="UTF-8" standalone="no"?>
<svg xmlns:xlink="http://www.w3.org/1999/xlink" height="91.0px" width="38.05px" xmlns="http://www.w3.org/2000/svg">
  <g transform="matrix(1.0, 0.0, 0.0, 1.0, 19.05, 61.0)">
    <path d="M10.0 -29.0 L-10.0 -29.0 -10.0 -32.0 10.0 -32.0 10.0 -29.0" fill="url(#gradient0)" fill-rule="evenodd" stroke="none"/>
    <path d="M9.0 -33.0 L9.0 -28.0 7.0 -28.0 7.0 -33.0 9.0 -33.0 M5.0 -28.0 L-5.0 -28.0 -5.0 -32.0 5.0 -32.0 5.0 -28.0 M-7.0 -33.0 L-7.0 -28.0 -9.0 -28.0 -9.0 -33.0 -7.0 -33.0" fill="#000000" fill-opacity="0.2" fill-rule="evenodd" stroke="none"/>
    <path d="M19.0 -40.0 Q14.7 -38.7 12.55 -35.7 10.3 -32.45 13.0 -30.0 L10.3 -27.85 8.0 -28.0 Q7.35 -32.55 8.55 -36.4 9.75 -40.3 12.35 -42.0 L19.0 -40.0" fill="url(#gradient1)" fill-rule="evenodd" stroke="none"/>
    <path d="M-13.05 -30.0 Q-10.35 -32.45 -12.6 -35.7 -14.75 -38.7 -19.05 -40.0 L-12.4 -42.0 Q-9.8 -40.3 -8.6 -36.4 -7.4 -32.55 -8.05 -28.0 L-10.35 -27.85 -13.05 -30.0" fill="url(#gradient2)" fill-rule="evenodd" stroke="none"/>
    <path d="M19.0 -40.0 L12.35 -42.0 Q12.0 -43.8 10.3 -46.3 8.65 -48.7 7.3 -49.45 L11.3 -54.75 Q14.05 -52.35 16.45 -47.5 18.5 -43.25 19.0 -40.0" fill="url(#gradient3)" fill-rule="evenodd" stroke="none"/>
    <path d="M-10.35 -46.3 Q-12.05 -43.8 -12.4 -42.0 L-19.05 -40.0 Q-18.55 -43.25 -16.5 -47.5 -14.1 -52.35 -11.35 -54.75 L-7.35 -49.45 Q-8.7 -48.7 -10.35 -46.3" fill="url(#gradient4)" fill-rule="evenodd" stroke="none"/>
    <path d="M11.3 -54.75 L13.65 -52.15 9.4 -47.25 7.3 -49.45 11.3 -54.75 M-11.35 -54.75 L-7.35 -49.45 Q-8.1 -49.0 -9.45 -47.25 L-13.7 -52.15 -11.35 -54.75" fill="#000000" fill-opacity="0.2" fill-rule="evenodd" stroke="none"/>
    <path d="M0.0 -61.0 Q0.75 -61.0 1.55 -60.2 L2.4 -59.35 Q4.45 -59.15 7.3 -57.75 10.0 -56.45 11.2 -55.25 L6.75 -49.45 Q6.15 -50.15 4.6 -50.55 L2.1 -50.85 Q1.15 -50.0 0.0 -50.0 L0.0 -61.0" fill="url(#gradient5)" fill-rule="evenodd" stroke="none"/>
    <path d="M0.0 -61.0 L0.0 -50.0 Q-1.15 -50.0 -2.1 -50.85 L-4.6 -50.55 Q-6.15 -50.15 -6.75 -49.45 L-11.2 -55.25 Q-10.0 -56.45 -7.3 -57.75 -4.45 -59.15 -2.4 -59.35 L-1.55 -60.2 Q-0.75 -61.0 0.0 -61.0" fill="url(#gradient6)" fill-rule="evenodd" stroke="none"/>
    <path d="M3.4 -55.45 Q3.4 -53.2 2.4 -51.6 1.4 -50.0 0.0 -50.0 -1.4 -50.0 -2.4 -51.6 -3.4 -53.2 -3.4 -55.45 -3.4 -57.7 -2.4 -59.3 -1.4 -60.9 0.0 -60.9 1.4 -60.9 2.4 -59.3 3.4 -57.7 3.4 -55.45" fill="url(#gradient7)" fill-rule="evenodd" stroke="none"/>
    <path d="M6.5 -49.75 L11.1 -55.25 12.95 -55.15 Q13.25 -54.85 13.1 -54.4 L12.85 -54.0 8.3 -48.65 7.9 -48.35 7.15 -48.25 Q6.3 -48.8 6.5 -49.75" fill="url(#gradient8)" fill-rule="evenodd" stroke="none"/>
    <path d="M-13.0 -55.15 L-11.15 -55.25 -6.55 -49.75 Q-6.35 -48.8 -7.2 -48.25 L-7.95 -48.35 -8.35 -48.65 -12.9 -54.0 -13.15 -54.4 -13.0 -55.15" fill="url(#gradient9)" fill-rule="evenodd" stroke="none"/>
    <path d="M3.3 -28.55 Q3.7 -25.1 7.0 -22.5 0.1 -18.9 -7.0 -22.5 -3.7 -25.1 -3.3 -28.55 -2.9 -31.75 -5.0 -34.0 L0.0 -34.0 5.0 -34.0 Q2.9 -31.75 3.3 -28.55" fill="url(#gradient10)" fill-rule="evenodd" stroke="none"/>
    <path d="M0.0 -38.0 L7.0 -38.0 Q6.15 -35.85 6.0 -35.0 L6.0 -34.0 0.0 -34.0 -6.0 -34.0 -6.0 -35.0 Q-6.15 -35.85 -7.0 -38.0 L0.0 -38.0" fill="url(#gradient11)" fill-rule="evenodd" stroke="none"/>
    <path d="M3.0 -41.0 Q3.45 -39.2 4.35 -38.55 4.9 -38.15 6.0 -38.0 L0.0 -38.0 -6.0 -38.0 Q-4.9 -38.15 -4.35 -38.55 -3.45 -39.2 -3.0 -41.0 L0.0 -41.0 3.0 -41.0" fill="url(#gradient12)" fill-rule="evenodd" stroke="none"/>
    <path d="M6.0 -33.0 L-6.0 -33.0 -6.0 -34.0 6.0 -34.0 6.0 -33.0 M4.0 -39.0 L-4.0 -39.0 -4.0 -40.0 4.0 -40.0 4.0 -39.0" fill="#000000" fill-opacity="0.2" fill-rule="evenodd" stroke="none"/>
    <path d="M0.0 -45.0 L2.75 -42.6 5.0 -40.0 -5.0 -40.0 -2.75 -42.6 0.0 -45.0" fill="url(#gradient13)" fill-rule="evenodd" stroke="none"/>
    <path d="M7.75 26.75 Q4.55 30.0 0.0 30.0 -4.55 30.0 -7.8 26.75 -11.0 23.55 -11.0 19.0 -11.0 14.5 -7.8 11.25 -4.55 8.0 0.0 8.0 4.55 8.0 7.75 11.25 11.0 14.5 11.0 19.0 11.0 23.55 7.75 26.75" fill="url(#gradient14)" fill-rule="evenodd" stroke="none"/>
  </g>
  <defs>
    <linearGradient gradientTransform="matrix(0.0, -0.0018, 0.0018, 0.0, 0.0, -30.5)" gradientUnits="userSpaceOnUse" id="gradient0" spreadMethod="pad" x1="-819.2" x2="819.2">
      <stop offset="0.050980392156862744" stop-color="#674e24"/>
      <stop offset="0.30196078431372547" stop-color="#a38838"/>
      <stop offset="0.43529411764705883" stop-color="#c8ac59"/>
      <stop offset="0.5019607843137255" stop-color="#c8ac59"/>
      <stop offset="0.5647058823529412" stop-color="#c8ac59"/>
      <stop offset="0.6823529411764706" stop-color="#a38838"/>
      <stop offset="0.9176470588235294" stop-color="#674e24"/>
    </linearGradient>
    <radialGradient cx="0" cy="0" fx="-979.2" fy="0" gradientTransform="matrix(0.0037, -0.01, 0.0199, 0.0075, 14.75, -37.35)" gradientUnits="userSpaceOnUse" id="gradient1" r="819.2" spreadMethod="pad">
      <stop offset="0.2196078431372549" stop-color="#f8d363"/>
      <stop offset="0.4196078431372549" stop-color="#b09144"/>
      <stop offset="0.7764705882352941" stop-color="#856732"/>
      <stop offset="1.0" stop-color="#8b6c34"/>
    </radialGradient>
    <radialGradient cx="0" cy="0" fx="-979.2" fy="0" gradientTransform="matrix(-0.0037, -0.01, -0.0199, 0.0075, -14.8, -37.35)" gradientUnits="userSpaceOnUse" id="gradient2" r="819.2" spreadMethod="pad">
      <stop offset="0.2196078431372549" stop-color="#f8d363"/>
      <stop offset="0.4196078431372549" stop-color="#b09144"/>
      <stop offset="0.7764705882352941" stop-color="#856732"/>
      <stop offset="1.0" stop-color="#8b6c34"/>
    </radialGradient>
    <linearGradient gradientTransform="matrix(3.0E-4, 0.0139, -0.014, 3.0E-4, 14.3, -39.1)" gradientUnits="userSpaceOnUse" id="gradient3" spreadMethod="pad" x1="-819.2" x2="819.2">
      <stop offset="0.00784313725490196" stop-color="#e9d06c"/>
      <stop offset="0.4666666666666667" stop-color="#c2a243"/>
    </linearGradient>
    <linearGradient gradientTransform="matrix(-3.0E-4, 0.0139, 0.014, 3.0E-4, -14.35, -39.1)" gradientUnits="userSpaceOnUse" id="gradient4" spreadMethod="pad" x1="-819.2" x2="819.2">
      <stop offset="0.00784313725490196" stop-color="#e9d06c"/>
      <stop offset="0.4666666666666667" stop-color="#c2a243"/>
    </linearGradient>
    <radialGradient cx="0" cy="0" gradientTransform="matrix(0.0038, -0.0073, 0.016, 0.0083, 9.9, -54.25)" gradientUnits="userSpaceOnUse" id="gradient5" r="819.2" spreadMethod="pad">
      <stop offset="0.08627450980392157" stop-color="#e6d175"/>
      <stop offset="0.5215686274509804" stop-color="#947641"/>
      <stop offset="0.9607843137254902" stop-color="#684f24"/>
    </radialGradient>
    <radialGradient cx="0" cy="0" gradientTransform="matrix(-0.0038, -0.0073, -0.016, 0.0083, -9.9, -54.25)" gradientUnits="userSpaceOnUse" id="gradient6" r="819.2" spreadMethod="pad">
      <stop offset="0.08627450980392157" stop-color="#e6d175"/>
      <stop offset="0.5215686274509804" stop-color="#947641"/>
      <stop offset="0.9607843137254902" stop-color="#684f24"/>
    </radialGradient>
    <radialGradient cx="0" cy="0" gradientTransform="matrix(0.005, 0.0, 0.0, 0.0089, 0.0, -56.8)" gradientUnits="userSpaceOnUse" id="gradient7" r="819.2" spreadMethod="pad">
      <stop offset="0.0" stop-color="#ffffff"/>
      <stop offset="0.3137254901960784" stop-color="#e2c672" stop-opacity="0.67058825"/>
      <stop offset="0.8117647058823529" stop-color="#342512" stop-opacity="0.0"/>
    </radialGradient>
    <radialGradient cx="0" cy="0" gradientTransform="matrix(-0.0074, 0.0082, 0.006, 0.0053, 12.05, -53.4)" gradientUnits="userSpaceOnUse" id="gradient8" r="819.2" spreadMethod="pad">
      <stop offset="0.16862745098039217" stop-color="#e3ce73"/>
      <stop offset="0.47843137254901963" stop-color="#977d3e"/>
      <stop offset="0.7137254901960784" stop-color="#6a5025"/>
      <stop offset="0.9411764705882353" stop-color="#684f24"/>
    </radialGradient>
    <radialGradient cx="0" cy="0" gradientTransform="matrix(0.0074, 0.0082, -0.006, 0.0053, -12.1, -53.4)" gradientUnits="userSpaceOnUse" id="gradient9" r="819.2" spreadMethod="pad">
      <stop offset="0.16862745098039217" stop-color="#e3ce73"/>
      <stop offset="0.47843137254901963" stop-color="#977d3e"/>
      <stop offset="0.7137254901960784" stop-color="#6a5025"/>
      <stop offset="0.9411764705882353" stop-color="#684f24"/>
    </radialGradient>
    <radialGradient cx="0" cy="0" gradientTransform="matrix(0.0098, 1.0E-4, -2.0E-4, 0.0201, -0.05, -20.65)" gradientUnits="userSpaceOnUse" id="gradient10" r="819.2" spreadMethod="pad">
      <stop offset="0.0392156862745098" stop-color="#ffda66"/>
      <stop offset="0.3058823529411765" stop-color="#d7b555"/>
      <stop offset="0.5882352941176471" stop-color="#9d803c"/>
      <stop offset="0.792156862745098" stop-color="#7a6030"/>
      <stop offset="1.0" stop-color="#645231"/>
    </radialGradient>
    <linearGradient gradientTransform="matrix(0.0085, 0.0, 0.0, 0.0024, 0.0, -36.0)" gradientUnits="userSpaceOnUse" id="gradient11" spreadMethod="pad" x1="-819.2" x2="819.2">
      <stop offset="0.13725490196078433" stop-color="#674e24"/>
      <stop offset="0.27058823529411763" stop-color="#a38838"/>
      <stop offset="0.4588235294117647" stop-color="#ffda66"/>
      <stop offset="0.5372549019607843" stop-color="#ffda66"/>
      <stop offset="0.7215686274509804" stop-color="#a38838"/>
      <stop offset="0.8784313725490196" stop-color="#674e24"/>
    </linearGradient>
    <radialGradient cx="0" cy="0" gradientTransform="matrix(0.0076, 0.0, 0.0, 0.0076, 0.05, -38.0)" gradientUnits="userSpaceOnUse" id="gradient12" r="819.2" spreadMethod="pad">
      <stop offset="0.0392156862745098" stop-color="#d7ac2f"/>
      <stop offset="0.3058823529411765" stop-color="#ab8a29"/>
      <stop offset="0.5882352941176471" stop-color="#70572c"/>
      <stop offset="0.8627450980392157" stop-color="#6a4f2b"/>
      <stop offset="1.0" stop-color="#503e27"/>
    </radialGradient>
    <radialGradient cx="0" cy="0" gradientTransform="matrix(0.0059, 0.0, 0.0, 0.0063, 0.05, -40.05)" gradientUnits="userSpaceOnUse" id="gradient13" r="819.2" spreadMethod="pad">
      <stop offset="0.0392156862745098" stop-color="#ffda66"/>
      <stop offset="0.3058823529411765" stop-color="#d7b555"/>
      <stop offset="0.5882352941176471" stop-color="#9d803c"/>
      <stop offset="0.8627450980392157" stop-color="#7a6030"/>
      <stop offset="1.0" stop-color="#645231"/>
    </radialGradient>
    <linearGradient gradientTransform="matrix(-0.0067, -0.0116, 0.0116, -0.0067, 0.0, 19.0)" gradientUnits="userSpaceOnUse" id="gradient14" spreadMethod="pad" x1="-819.2" x2="819.2">
      <stop offset="0.42745098039215684" stop-color="#dffafb"/>
      <stop offset="0.9882352941176471" stop-color="#baecfc"/>
    </linearGradient>
  </defs>
</svg>
