<?xml version="1.0" encoding="UTF-8" standalone="no"?>
<svg xmlns:xlink="http://www.w3.org/1999/xlink" height="519.65px" width="285.0px" xmlns="http://www.w3.org/2000/svg">
  <g transform="matrix(1.0, 0.0, 0.0, 1.0, -33.0, -160.35)">
    <path d="M263.9 488.1 L256.15 480.35 256.15 503.95 Q263.2 524.5 263.15 547.95 L266.9 551.7 Q266.85 545.65 268.9 539.95 L268.95 539.9 Q273.45 537.25 276.95 536.9 281.05 532.35 281.25 526.85 L280.95 522.15 279.9 517.05 Q276.6 507.55 271.9 499.05 L271.9 499.1 Q267.9 492.7 263.9 488.1 M218.05 269.35 L216.15 274.05 216.15 301.3 Q218.75 285.75 218.05 269.35 M236.95 288.9 L239.45 288.9 Q237.1 287.65 235.1 285.4 233.05 283.1 232.1 280.65 231.5 287.85 229.15 296.05 225.55 309.5 220.2 319.9 225.3 319.65 230.05 320.9 L230.1 320.9 Q238.1 325.7 244.1 333.95 L248.1 341.95 248.1 341.9 256.1 349.9 261.05 349.9 261.1 349.95 271.9 361.7 271.9 354.0 Q271.95 352.9 273.05 352.25 273.95 351.65 274.9 351.85 L273.9 329.05 269.9 312.05 268.9 306.05 251.0 296.15 237.0 296.15 236.95 296.1 235.1 294.8 Q234.25 294.05 233.9 293.05 L233.9 293.0 Q233.8 290.25 236.95 288.9 M115.0 289.25 L114.1 285.65 Q113.45 299.3 115.9 309.15 116.1 302.5 115.9 296.0 L115.0 289.25 M200.15 174.0 L200.1 174.1 Q204.6 177.5 208.0 182.0 L212.0 185.0 Q218.0 188.55 223.0 194.0 227.95 199.05 232.0 206.0 234.9 213.15 236.0 221.0 238.9 239.8 236.0 258.0 238.8 258.45 239.0 261.0 245.5 260.35 254.0 262.0 L256.0 259.0 Q250.95 260.8 246.0 260.0 244.25 259.1 243.9 257.8 243.55 256.5 245.0 256.0 L249.55 254.05 256.0 251.0 Q258.35 251.25 260.0 252.7 261.6 254.05 262.0 256.0 L264.0 256.0 Q267.65 257.5 269.0 260.0 L271.0 261.0 Q275.3 262.9 277.0 266.0 L280.0 267.0 Q283.25 268.75 286.0 272.0 288.2 275.6 288.0 280.0 296.45 282.2 294.0 294.0 293.05 299.3 291.0 302.0 L294.0 322.0 302.0 353.0 317.0 353.0 318.0 383.0 308.0 383.0 309.0 398.0 Q308.6 403.8 309.0 408.0 309.5 411.9 306.0 414.0 L306.0 418.0 Q303.1 420.15 298.4 420.95 293.4 421.85 292.0 420.0 289.65 416.95 285.25 416.5 280.65 416.05 278.0 413.0 269.0 413.1 267.0 405.0 262.2 405.85 258.0 400.0 L257.0 422.0 256.0 435.0 256.0 450.0 Q256.85 450.45 256.95 451.3 L257.0 453.0 265.0 453.0 Q265.95 454.1 266.1 456.75 L266.0 462.0 266.0 468.65 Q265.85 471.5 265.0 474.0 L274.0 481.0 Q281.25 487.8 287.0 498.0 290.85 505.1 291.0 514.0 290.95 523.3 288.0 532.0 285.25 540.3 280.0 548.0 275.9 553.75 270.0 557.0 273.8 559.85 278.25 566.55 282.75 573.35 284.0 578.0 L285.0 580.0 Q287.85 581.05 290.1 582.9 291.85 584.35 294.0 587.0 295.15 590.0 294.0 593.0 L292.0 596.0 Q295.75 596.75 299.0 600.0 296.7 605.4 292.0 608.0 L286.0 609.0 288.0 612.0 Q284.15 617.65 278.0 619.0 L272.0 620.0 Q268.85 614.65 268.0 608.0 262.3 603.35 259.0 595.0 258.95 610.6 256.0 623.0 L257.0 643.0 254.0 643.0 Q254.65 650.15 253.0 656.0 251.15 662.25 249.0 662.0 L248.95 657.9 Q248.75 655.45 248.0 654.0 246.25 658.7 242.0 661.0 L240.0 669.0 237.0 680.0 216.0 680.0 211.0 680.0 203.0 680.0 196.0 680.0 190.0 680.0 136.0 680.0 123.0 680.0 120.0 672.0 116.0 659.0 108.0 632.0 107.0 632.0 107.0 636.0 Q102.4 642.45 96.0 644.0 92.35 639.15 91.0 632.0 L91.0 630.0 Q90.05 628.3 88.0 630.0 L88.0 632.0 Q83.45 638.45 75.0 640.0 71.45 635.1 71.0 629.0 L72.0 627.0 Q70.95 624.95 69.0 626.0 L68.0 628.0 Q61.8 633.95 56.0 634.0 53.75 628.65 55.0 622.0 L56.0 620.0 Q55.05 618.75 53.0 620.0 L53.0 622.0 Q47.95 628.05 40.0 629.0 L39.7 628.15 Q39.45 626.9 40.0 625.0 40.15 623.95 42.1 620.85 L44.0 618.0 33.0 624.0 Q33.2 622.75 34.1 621.0 34.95 619.35 36.0 618.0 37.75 616.7 41.0 615.0 42.55 610.9 48.2 606.85 52.8 603.55 59.0 601.0 L62.0 595.0 Q68.8 582.1 71.0 579.0 L80.0 566.0 Q84.65 557.75 91.0 551.0 95.85 544.75 102.6 538.0 109.35 531.2 116.0 526.0 L120.0 520.0 127.0 512.0 120.0 512.0 115.0 510.0 116.0 494.0 122.0 467.0 128.0 454.0 136.0 442.0 Q142.55 441.45 149.5 442.2 156.6 442.95 163.0 445.0 160.4 432.5 159.0 419.0 156.1 414.8 154.0 408.0 L153.1 403.7 Q152.6 401.15 152.0 400.0 149.1 394.2 144.0 389.0 L139.0 388.0 Q135.1 386.4 132.0 382.0 L132.45 383.1 133.0 386.0 Q133.1 387.9 131.5 390.65 129.85 393.55 128.0 394.0 128.85 391.25 128.0 388.0 127.2 385.55 125.0 385.0 122.0 385.25 119.0 379.0 L122.0 386.0 Q118.95 385.25 116.85 383.8 113.95 381.8 112.0 378.0 108.6 372.65 108.0 360.0 108.3 350.2 111.0 342.0 L107.85 328.3 Q105.7 318.7 105.0 310.0 104.65 297.35 105.0 290.0 106.6 277.4 110.0 271.0 110.4 268.75 112.0 268.0 112.0 262.4 113.0 261.0 L115.0 230.0 Q115.4 221.65 117.0 215.0 L104.0 203.0 Q119.3 167.35 154.0 161.0 164.75 159.1 177.7 162.85 190.45 166.5 199.9 173.95 L200.0 173.9 200.1 173.9 200.15 174.0" fill="#ffffff" fill-rule="evenodd" stroke="none"/>
  </g>
</svg>
