<?xml version="1.0" encoding="UTF-8" standalone="no"?>
<svg xmlns:xlink="http://www.w3.org/1999/xlink" height="400.0px" width="187.4px" xmlns="http://www.w3.org/2000/svg">
  <g transform="matrix(1.0, 0.0, 0.0, 1.0, -101.35, -271.9)">
    <path d="M141.95 274.4 L145.25 273.45 145.55 273.4 Q154.6 271.25 163.8 272.2 L164.0 272.2 164.2 272.2 164.3 272.2 164.45 272.2 170.1 273.2 172.15 273.7 175.65 274.6 Q180.8 275.85 185.7 278.1 L186.3 278.4 186.5 278.5 186.7 278.6 186.75 278.65 186.85 278.65 Q191.15 280.7 195.15 283.6 L195.65 284.0 196.8 286.85 Q198.35 290.5 199.6 294.4 L200.0 295.75 201.85 301.9 203.85 303.95 Q207.2 307.35 209.7 311.15 211.65 313.9 213.15 316.85 214.45 318.0 215.25 319.55 L218.0 322.5 221.7 327.55 222.5 328.6 222.85 328.85 223.2 330.7 224.3 334.25 224.8 335.55 225.3 336.15 225.7 336.6 226.05 337.05 226.4 339.0 226.45 339.65 226.5 340.6 Q226.55 341.1 226.75 341.4 L227.2 342.15 227.3 342.5 228.4 343.95 228.9 344.95 229.85 347.0 230.1 347.85 230.7 349.1 231.4 351.4 231.8 352.4 232.15 353.8 232.65 355.3 232.9 356.15 233.2 357.05 233.25 357.1 Q233.9 359.0 234.0 360.85 L234.15 361.55 234.45 362.65 234.55 362.95 234.6 366.1 235.45 366.45 236.45 366.95 Q238.25 367.85 239.5 369.1 L241.4 370.35 242.2 370.75 Q245.5 372.45 247.2 375.7 248.4 377.75 249.15 380.0 L249.3 380.45 250.0 382.35 Q251.55 382.35 252.65 383.7 L252.95 383.95 Q254.2 385.3 254.3 387.0 255.1 387.25 255.7 387.75 257.65 389.0 258.45 392.2 260.25 392.75 261.15 394.2 262.65 396.45 262.25 400.55 264.4 401.3 265.3 402.85 267.0 404.45 266.2 407.55 L268.75 410.05 271.1 413.95 274.15 416.8 Q275.15 419.45 275.6 422.1 L275.1 426.0 272.35 431.05 Q271.15 434.95 269.25 438.85 L268.7 439.9 267.25 442.65 265.05 444.45 Q263.4 445.85 261.2 446.7 L259.85 448.4 Q257.95 449.85 255.85 450.7 L253.65 451.4 253.55 451.7 253.35 452.35 Q252.85 454.25 251.3 455.5 L249.2 456.85 247.3 457.1 244.4 457.05 242.4 456.6 240.2 455.45 240.1 455.9 238.95 458.3 237.65 459.85 236.55 461.75 236.65 461.95 Q237.65 463.3 237.4 465.6 L237.1 467.65 236.55 469.3 236.35 469.85 233.15 474.95 233.2 475.05 234.5 476.35 Q235.25 478.6 235.0 480.55 L235.1 481.25 235.5 481.25 235.65 481.4 Q237.8 482.15 239.75 483.05 L241.3 484.6 Q242.3 485.5 243.1 486.85 L245.45 490.35 245.85 491.2 246.5 492.85 246.65 492.85 Q248.65 492.4 251.65 492.95 L252.15 493.1 254.35 493.75 Q258.2 494.95 260.4 497.4 L261.4 498.3 261.5 498.5 261.9 499.1 Q262.95 499.95 263.6 501.1 265.0 501.6 266.35 502.4 L268.2 504.6 268.7 505.35 270.05 507.8 Q271.15 510.55 272.3 512.6 L272.55 513.4 273.3 515.6 273.4 516.1 Q275.5 519.75 277.1 523.55 L277.8 525.3 279.35 530.15 280.85 532.05 281.6 532.7 281.25 533.75 282.2 538.0 282.55 539.5 282.75 540.4 Q285.5 542.1 287.25 545.15 L287.05 545.65 286.6 546.7 286.3 547.7 286.4 548.05 286.6 549.8 287.0 553.05 287.15 553.15 Q288.35 554.7 288.65 556.5 L288.75 558.15 288.45 558.7 Q287.95 560.05 287.1 561.1 L286.4 561.75 285.65 566.85 Q285.85 569.1 285.4 571.75 L284.55 572.15 283.2 572.5 281.55 572.65 279.65 575.2 279.1 576.45 279.1 578.6 278.9 579.65 279.45 582.15 276.15 583.4 275.5 584.75 274.75 586.3 274.85 586.95 275.3 592.65 275.35 593.5 274.9 593.5 273.85 593.65 271.1 593.65 270.0 595.15 270.0 596.2 269.9 596.8 269.15 599.8 267.9 600.05 265.7 599.9 264.65 598.8 263.45 598.85 263.9 600.0 263.9 601.15 263.8 604.2 263.2 607.5 262.45 609.7 260.7 610.1 258.95 610.75 257.05 610.75 Q254.3 613.25 251.25 615.3 L251.2 615.55 250.25 619.3 250.0 619.9 249.0 621.95 Q246.8 621.55 245.15 620.35 243.75 619.7 242.6 618.65 L236.2 618.25 235.1 617.95 235.05 618.2 234.95 619.5 234.75 622.6 Q234.4 625.2 233.35 627.2 L229.1 627.6 227.15 627.2 225.5 627.8 225.25 629.65 225.2 630.85 225.2 634.15 225.15 637.05 224.65 645.0 224.3 645.85 224.4 646.2 224.45 646.8 Q225.9 650.85 224.65 654.25 L224.35 654.9 223.6 656.25 Q221.85 659.05 218.9 659.6 L216.55 659.15 216.1 659.05 Q215.05 658.75 214.35 658.0 L214.3 657.95 Q212.5 657.35 211.8 654.3 L211.55 653.75 Q211.15 652.85 211.15 650.15 L211.25 646.8 211.2 644.8 211.15 644.45 209.5 644.4 209.05 644.4 Q205.45 643.1 202.95 640.5 L202.85 640.4 197.15 640.4 196.4 640.4 195.75 640.9 194.0 642.05 Q191.95 643.15 189.55 643.6 L188.5 643.15 Q186.2 642.1 184.35 640.5 L183.1 639.3 180.3 639.3 175.4 639.3 174.2 640.0 167.15 654.4 164.2 660.55 164.0 660.95 Q163.5 661.3 165.65 663.55 L166.4 664.95 166.45 665.05 167.2 665.9 Q168.4 667.4 167.75 669.0 167.35 670.15 166.05 671.35 L165.95 671.4 Q163.6 672.45 161.1 671.3 L160.75 671.2 160.6 671.05 Q157.9 669.25 154.3 665.25 L153.85 663.8 153.25 662.0 149.0 656.8 Q148.0 654.3 147.75 651.95 L147.6 651.2 147.6 650.95 Q147.65 649.8 148.0 648.9 L148.6 647.65 147.1 645.35 146.6 644.85 145.25 643.55 144.15 642.6 Q142.1 640.35 140.3 637.4 L139.3 634.45 138.85 632.7 137.9 630.15 137.65 628.95 137.35 627.9 137.0 626.4 Q136.5 625.0 135.85 624.15 L135.8 623.9 134.9 624.4 Q133.05 625.1 131.85 624.9 L131.1 624.15 Q129.8 622.3 129.2 619.95 L128.4 619.4 126.35 616.65 126.25 616.55 125.15 616.5 123.05 615.9 122.55 615.75 121.85 615.55 121.2 615.4 120.7 615.05 120.6 614.95 Q119.9 613.85 119.55 612.8 L119.45 611.85 119.5 610.35 117.75 609.05 116.75 607.85 112.8 607.95 110.65 606.5 110.5 605.3 110.4 603.25 110.4 602.65 110.5 601.0 110.9 600.25 111.15 599.9 111.2 599.8 110.75 598.85 109.1 597.4 108.9 597.15 107.9 597.55 106.1 597.65 Q104.55 597.5 103.9 597.0 L103.45 595.8 103.4 595.25 103.65 593.2 103.75 592.65 103.6 592.4 103.6 591.8 103.8 589.85 103.9 589.2 103.95 588.5 103.2 587.65 102.25 586.85 101.35 585.5 101.6 584.9 Q102.05 583.2 103.2 582.8 L103.05 581.8 102.95 580.7 103.1 579.45 102.85 579.25 Q102.5 578.8 102.45 578.15 102.3 577.3 102.4 576.25 L102.65 575.1 102.95 574.8 104.05 573.6 Q105.15 571.9 107.1 570.1 L108.05 568.95 109.5 567.4 109.65 567.15 Q110.15 565.15 111.15 563.55 111.85 561.65 112.95 560.15 L114.0 558.9 114.0 558.85 119.25 552.95 120.2 551.9 123.95 547.6 124.85 545.3 125.1 544.65 Q126.5 540.7 128.9 537.1 L130.35 535.1 Q132.4 532.1 135.15 529.3 L135.75 528.65 136.7 527.6 137.85 526.4 Q139.85 524.35 142.0 522.65 L143.1 521.4 144.05 520.35 144.15 520.2 147.1 517.3 149.35 515.55 149.35 515.45 150.75 512.85 150.7 510.3 150.7 508.0 152.2 503.6 152.4 503.0 153.85 499.45 155.35 496.5 159.0 489.9 160.45 488.2 161.15 486.0 161.55 484.95 163.25 480.45 163.3 478.25 163.45 475.35 163.7 471.65 163.35 470.55 162.8 466.7 162.65 465.8 Q162.35 463.95 162.2 461.85 L162.25 461.35 161.55 459.45 160.7 456.85 159.8 454.25 Q158.6 450.95 157.55 447.45 L157.55 447.35 156.0 444.5 154.75 441.25 154.05 438.85 153.9 438.3 153.85 437.9 153.65 436.7 153.05 434.95 152.1 432.9 152.0 432.45 151.55 429.35 151.45 428.85 150.85 427.1 150.7 426.6 150.2 423.4 150.15 422.1 150.3 421.95 150.5 421.95 150.8 421.85 150.85 421.8 150.2 421.85 149.3 421.8 148.15 421.7 146.1 421.2 145.85 421.15 144.5 419.5 143.95 418.9 142.5 417.65 142.2 417.55 Q140.1 416.65 138.15 414.75 L137.25 414.55 137.55 417.2 137.35 417.4 136.9 417.85 135.6 418.75 134.25 419.35 133.6 417.05 133.0 414.85 130.5 407.1 130.2 406.15 129.8 405.15 127.15 397.65 124.8 393.7 124.25 392.9 122.95 390.85 Q120.15 386.35 118.2 382.05 L118.0 381.7 Q116.0 375.75 114.85 370.8 L114.6 369.35 114.4 366.85 114.05 364.5 113.9 362.2 113.85 359.75 Q113.75 358.65 113.9 357.8 L113.7 353.75 Q113.35 347.1 113.65 340.15 L113.9 335.9 114.7 329.45 114.7 329.1 113.6 327.95 104.7 323.0 Q107.05 303.5 118.2 290.25 123.1 284.45 129.4 280.35 135.1 276.5 141.95 274.4 M246.4 506.2 L244.55 506.1 244.8 510.45 Q246.2 514.3 246.4 518.6 L247.65 519.85 249.4 518.5 250.85 518.15 251.9 517.95 Q253.15 517.0 253.45 515.3 L253.6 513.95 253.55 512.65 249.6 508.45 247.85 507.05 Q247.05 506.45 246.4 506.2 M216.0 364.4 L215.0 363.15 214.5 363.35 214.7 363.45 214.85 363.8 214.15 364.0 213.35 364.35 212.8 365.65 210.8 368.5 217.9 378.8 219.65 379.55 219.8 379.6 220.5 380.1 221.2 380.9 222.65 384.5 222.65 384.55 224.05 386.45 226.4 388.6 227.05 388.85 227.1 388.7 227.05 388.6 227.2 388.55 227.3 388.55 228.1 388.5 227.7 386.2 227.7 385.8 227.8 385.6 228.2 385.35 228.2 384.55 Q228.2 381.6 227.8 378.85 L227.8 378.65 226.45 373.95 226.35 373.8 225.9 372.35 224.3 370.9 221.25 369.05 221.15 369.0 217.8 367.7 217.25 367.2 216.85 366.75 216.8 366.6 Q216.6 366.1 216.8 365.75 L216.85 365.75 217.3 365.75 216.0 364.4 M208.8 352.75 L208.35 352.2 Q208.05 352.8 207.9 353.45 207.9 354.85 208.2 355.8 208.25 356.45 208.95 357.35 L209.9 358.65 210.15 357.0 210.05 355.0 208.8 352.75 M138.3 384.55 L137.95 384.6 Q137.95 386.0 138.4 387.6 138.9 389.15 139.45 389.8 140.7 389.9 141.2 389.1 141.2 386.95 139.7 385.35 138.7 384.55 138.3 384.55" fill="#ffffff" fill-rule="evenodd" stroke="none"/>
  </g>
</svg>
