<?xml version="1.0" encoding="UTF-8" standalone="no"?>
<svg xmlns:xlink="http://www.w3.org/1999/xlink" height="422.15px" width="200.1px" xmlns="http://www.w3.org/2000/svg">
  <g transform="matrix(1.0, 0.0, 0.0, 1.0, -88.75, -251.0)">
    <path d="M134.3 256.45 Q140.6 253.1 148.15 251.85 L151.7 251.3 151.95 251.3 Q161.75 250.3 171.05 252.55 L171.2 252.55 171.35 252.55 171.45 252.55 171.55 252.6 Q174.5 253.35 177.3 254.5 L179.35 255.35 182.95 256.65 Q188.25 258.4 193.15 261.3 L193.75 261.65 193.95 261.8 194.15 261.9 194.25 261.95 194.35 262.0 Q198.6 264.55 202.55 268.1 L202.95 268.55 204.15 271.6 Q205.7 275.55 206.85 279.75 L207.25 281.15 208.95 287.85 210.55 290.35 Q213.25 294.35 215.15 298.7 216.65 301.8 217.75 305.05 219.35 306.1 220.0 307.85 L223.4 310.2 228.15 314.45 229.1 314.85 229.45 314.85 229.15 316.5 228.65 319.4 Q228.4 319.75 228.65 320.0 L229.1 320.2 229.55 320.5 230.0 320.8 Q230.35 321.5 231.0 322.0 L231.3 322.4 231.7 323.0 232.25 323.5 232.95 323.9 233.05 324.2 234.5 325.5 235.1 326.5 236.2 328.6 236.45 329.5 237.35 330.5 238.5 332.65 239.0 333.6 239.55 335.05 240.3 336.45 240.75 337.25 241.25 338.1 241.3 338.15 Q242.3 340.0 242.6 341.85 L242.95 342.55 243.55 343.55 243.7 343.8 244.5 346.9 245.35 347.35 246.35 347.95 Q248.05 349.15 249.15 350.65 L250.75 352.3 251.6 352.7 Q255.15 354.35 256.65 358.1 257.65 360.25 258.1 362.8 L258.2 363.35 258.6 365.4 Q259.7 365.95 260.35 367.35 L260.55 367.65 Q261.65 369.2 261.8 371.05 L263.0 372.15 Q264.65 373.85 265.4 377.15 266.9 378.1 267.75 379.75 269.1 382.4 269.0 386.5 270.85 387.6 271.75 389.35 273.25 391.3 272.75 394.45 L275.05 397.4 277.25 401.75 280.9 404.05 283.85 408.25 283.5 412.5 281.35 418.1 Q280.45 422.35 278.95 426.6 L278.55 427.65 277.4 430.75 274.85 432.15 Q272.9 433.3 270.55 433.95 L270.55 434.0 269.5 436.05 266.4 439.3 264.7 440.65 264.65 440.95 264.45 441.7 Q264.0 443.75 262.8 445.2 L261.15 447.05 Q260.5 447.65 259.55 447.9 L256.7 448.45 255.1 448.85 252.75 448.3 252.5 448.7 250.85 450.8 249.2 452.15 247.7 453.45 247.75 453.55 Q248.05 454.0 247.0 455.75 L246.0 457.25 245.05 458.25 244.65 458.45 Q242.35 460.6 240.3 461.8 L240.35 461.85 241.0 462.05 Q240.8 464.05 239.9 464.8 L239.8 465.15 240.0 465.0 240.15 465.2 243.35 467.9 244.55 469.85 245.95 472.5 247.75 476.45 248.05 477.35 248.6 479.25 248.7 479.3 Q250.25 479.7 252.55 481.15 L252.9 481.5 254.65 482.8 Q257.75 484.85 259.55 487.95 L260.5 488.9 260.6 489.2 260.95 489.9 Q262.15 490.55 263.05 491.45 264.55 491.85 266.1 492.55 267.1 493.45 267.8 495.05 L268.2 495.9 269.25 498.65 Q270.15 502.15 271.05 503.8 L271.25 504.7 271.7 507.1 271.75 507.7 Q274.3 511.3 276.5 515.05 L277.4 516.8 279.55 521.75 281.2 523.8 281.9 524.5 281.8 525.65 283.15 530.0 283.6 531.6 283.9 532.55 Q286.45 534.75 287.95 538.2 L287.8 538.75 287.5 539.85 287.25 540.95 287.3 541.25 287.5 543.1 287.7 546.5 287.85 546.7 Q288.7 548.4 288.85 550.4 L288.85 552.15 288.55 552.7 287.25 555.25 286.65 556.05 285.5 561.4 Q285.35 563.75 284.7 566.45 L283.85 566.95 282.55 567.6 280.95 568.1 278.8 570.8 278.05 572.0 277.55 574.15 277.15 575.15 278.15 577.65 Q277.2 578.5 276.35 579.7 L276.05 581.1 275.7 582.8 275.9 583.45 276.95 589.4 277.05 590.3 276.75 590.4 276.05 590.95 274.9 591.5 274.5 593.2 274.7 594.25 274.7 594.85 274.25 598.05 273.15 598.65 270.95 599.15 270.85 598.5 270.3 598.85 270.95 600.0 270.8 601.2 270.2 604.35 268.95 607.6 267.65 609.5 265.75 609.9 264.75 611.0 262.9 611.45 Q260.0 614.2 256.65 616.05 L256.55 616.25 254.6 619.45 254.25 619.65 253.05 620.45 Q251.15 619.5 249.7 617.85 248.25 617.1 247.05 615.95 243.85 615.2 240.95 614.05 L239.9 613.5 239.85 613.55 239.75 614.95 239.6 618.25 Q239.25 621.0 238.35 623.15 236.5 624.45 234.8 624.9 L233.1 625.4 231.7 626.4 231.4 628.35 231.35 629.6 231.45 633.05 231.4 636.15 231.1 644.6 230.55 645.25 230.55 645.55 230.35 646.05 Q231.6 650.35 230.45 654.0 L230.15 654.7 229.45 656.2 Q227.7 659.7 224.9 660.05 224.05 659.2 223.0 658.9 L222.7 658.75 221.1 657.3 221.05 657.15 Q219.3 657.5 218.05 655.5 L217.65 655.2 Q217.1 655.25 216.9 653.95 L216.6 652.6 216.35 651.85 216.2 651.55 214.45 651.55 214.0 651.55 Q210.1 650.45 207.15 648.4 L206.95 648.3 200.95 648.3 200.15 648.3 199.35 648.7 197.4 649.65 Q195.15 650.55 192.55 650.85 L191.4 650.5 Q188.85 649.65 186.65 648.4 L185.2 647.45 182.25 647.45 177.0 647.45 175.75 648.0 165.15 659.55 160.75 664.45 160.4 664.75 Q159.4 665.05 160.5 666.85 L160.35 667.95 160.3 668.05 160.45 668.7 Q160.75 669.95 159.65 671.2 L157.5 673.05 157.35 673.15 Q155.2 673.25 152.95 671.6 L152.65 671.4 152.45 671.25 Q150.0 668.7 146.75 664.4 L146.3 662.85 145.65 660.95 141.75 655.1 Q140.8 652.45 140.35 649.9 L140.2 649.15 140.15 648.85 140.35 646.7 Q140.45 645.95 140.7 645.25 L139.3 642.7 138.7 642.3 137.6 642.05 136.4 641.7 Q133.95 640.8 131.45 638.75 L130.2 635.65 129.65 633.8 128.65 631.15 128.35 629.9 128.05 628.7 127.8 627.1 Q127.2 625.65 126.3 625.35 L126.25 625.25 125.55 625.9 Q123.8 626.85 122.5 627.0 L121.6 626.6 Q119.95 625.55 118.65 623.9 L117.75 623.55 115.65 620.55 115.55 620.45 114.5 620.1 112.7 618.9 112.3 618.65 111.7 618.25 111.25 617.9 110.95 617.45 110.9 617.35 109.45 615.45 109.15 615.05 108.85 614.25 106.8 613.6 105.6 612.85 101.45 613.15 Q100.4 612.4 99.5 611.3 L99.35 610.1 99.25 607.85 99.25 607.2 99.35 605.45 99.75 604.6 99.95 604.25 100.05 604.1 99.8 603.05 Q99.05 602.1 97.85 601.9 L97.75 601.75 96.95 602.45 95.15 602.9 92.8 602.8 92.1 602.05 91.85 601.7 Q91.45 601.1 91.3 600.3 L91.15 599.9 90.9 599.75 90.85 599.05 91.0 597.05 91.15 596.35 91.25 595.6 Q90.95 595.25 90.8 594.65 L90.25 593.65 89.75 592.15 90.05 591.55 Q89.85 590.5 90.25 590.45 L89.8 589.85 89.35 589.15 89.05 588.35 88.9 588.05 Q88.7 587.5 88.75 586.7 88.8 585.7 89.15 584.6 89.35 584.05 89.7 583.45 L90.05 583.15 91.45 581.85 Q92.55 579.85 94.9 577.8 L96.1 576.5 97.9 574.9 98.15 574.6 Q99.2 572.6 100.75 571.05 101.55 568.9 102.75 567.1 L103.85 565.65 109.35 558.6 110.35 557.35 114.55 552.2 115.75 549.65 116.1 548.9 Q117.9 544.5 120.75 540.5 L122.45 538.25 Q124.9 534.95 128.05 531.65 L128.75 530.9 129.85 529.65 131.25 528.3 Q133.55 525.95 136.0 523.95 136.6 523.2 137.3 522.6 L138.35 521.5 138.55 521.35 141.7 517.85 144.15 515.65 144.2 515.55 146.0 512.7 144.55 510.65 143.55 508.4 144.85 503.3 145.05 502.6 146.3 498.35 147.75 494.85 151.25 486.9 152.6 484.75 153.35 482.2 153.85 480.95 155.85 475.9 156.25 473.4 156.95 470.25 157.85 466.15 157.9 464.85 Q158.65 463.2 159.55 461.75 L160.05 461.1 162.05 458.4 162.4 458.05 161.7 455.85 160.85 452.8 159.95 449.75 157.85 441.75 157.8 441.65 156.0 438.4 154.6 434.6 153.85 431.85 153.7 431.25 153.65 430.75 153.35 429.35 152.5 427.4 151.35 425.15 151.2 424.65 150.05 421.3 149.75 420.85 148.45 419.25 148.2 418.8 Q147.4 417.5 146.85 415.45 L146.65 414.7 145.95 415.1 144.85 415.5 142.65 415.7 142.25 415.75 141.25 413.55 140.75 412.75 Q140.1 411.7 139.1 411.15 L138.75 411.05 Q136.5 410.4 134.35 407.6 L133.85 408.0 134.45 410.95 134.15 411.1 133.45 411.35 131.85 411.75 130.3 411.85 129.25 409.25 128.45 406.8 Q127.2 402.75 126.0 397.7 L125.75 396.6 125.5 395.45 Q124.55 390.6 123.95 386.55 L121.7 381.8 121.15 380.85 119.9 378.35 Q117.3 372.9 115.55 367.8 L115.4 367.35 Q113.7 360.1 112.85 354.65 L112.75 352.95 112.75 350.05 112.65 347.4 112.8 344.75 113.05 342.0 Q113.1 340.7 113.55 339.85 113.35 336.85 113.55 335.2 113.4 327.55 113.85 319.6 L114.15 314.75 Q114.4 310.9 115.0 307.35 L115.05 306.9 114.25 305.35 104.55 299.0 Q108.55 278.4 121.5 265.7 127.2 260.15 134.3 256.45 M249.9 502.6 Q248.15 501.5 246.9 500.95 L247.1 509.15 Q249.6 516.35 249.75 524.5 L251.5 526.25 Q252.0 524.6 253.3 522.75 L255.4 522.05 256.9 521.75 Q258.7 520.05 259.0 517.6 L259.1 515.6 258.8 513.5 254.05 506.55 251.85 504.2 249.9 502.6 M237.05 368.9 L236.95 368.6 235.15 361.6 235.05 361.35 234.5 359.1 231.95 357.2 227.3 354.55 227.1 354.45 221.6 353.35 220.8 352.75 220.25 352.0 220.2 351.8 Q220.1 350.95 220.8 350.4 L220.9 350.35 221.7 350.35 219.8 348.6 218.45 346.65 217.95 347.55 217.95 348.55 217.9 349.5 217.1 350.65 216.0 352.5 215.2 354.35 Q214.1 356.75 212.65 358.8 L218.35 367.05 221.0 367.7 221.25 367.75 222.4 368.25 223.65 369.3 Q225.5 371.45 226.95 374.4 L226.95 374.5 228.85 377.55 232.35 380.85 233.25 381.05 233.55 380.95 233.65 380.85 233.95 380.8 234.25 381.05 236.85 383.15 236.55 379.75 236.65 379.2 236.85 378.9 237.55 378.65 237.5 377.5 237.05 368.9 M210.3 335.6 Q209.85 336.55 209.55 337.6 209.55 339.5 209.8 341.1 209.8 342.4 210.4 343.9 L211.15 347.15 211.5 344.7 211.6 341.5 210.7 337.15 210.3 335.6 M133.65 365.5 L133.2 364.8 Q133.15 366.8 133.55 368.85 133.95 370.75 134.45 371.9 135.5 372.95 136.15 372.75 136.2 369.9 134.95 367.25 L133.65 365.5" fill="#ffffff" fill-rule="evenodd" stroke="none"/>
  </g>
</svg>
