<?xml version="1.0" encoding="UTF-8" standalone="no"?>
<svg xmlns:xlink="http://www.w3.org/1999/xlink" height="445.65px" width="217.2px" xmlns="http://www.w3.org/2000/svg">
  <g transform="matrix(1.0, 0.0, 0.0, 1.0, -74.95, -229.2)">
    <path d="M139.25 232.6 Q146.15 229.7 154.35 229.3 L158.15 229.2 158.4 229.2 Q168.95 229.35 178.25 232.9 L178.4 232.9 178.55 232.9 178.65 232.95 178.7 233.0 Q181.75 234.2 184.5 235.8 L186.5 237.05 190.2 238.75 Q195.7 240.95 200.65 244.5 L201.25 244.9 201.45 245.05 201.65 245.2 201.7 245.25 201.8 245.3 Q206.1 248.4 209.9 252.6 L210.3 253.15 211.55 256.35 Q213.1 260.55 214.15 265.05 L214.55 266.6 216.0 273.75 217.3 276.75 Q219.35 281.4 220.65 286.25 L222.3 293.3 Q224.2 294.2 224.75 296.15 226.75 296.85 228.8 297.85 231.65 299.35 234.65 301.35 L235.7 301.05 236.1 300.9 235.1 302.35 233.25 304.35 233.45 304.4 234.0 304.55 Q234.55 304.95 235.65 305.05 L236.2 305.2 236.95 305.45 237.8 305.55 238.7 305.7 238.8 305.9 240.55 307.1 241.35 308.05 242.6 310.2 242.85 311.15 244.05 311.9 245.6 313.9 246.25 314.85 246.9 316.3 248.0 317.6 248.65 318.35 249.3 319.15 249.4 319.25 Q250.7 321.0 251.2 322.9 L251.8 323.5 252.7 324.4 252.9 324.65 254.45 327.7 255.3 328.3 256.3 329.0 Q257.9 330.45 258.85 332.2 L260.05 334.25 261.0 334.6 Q264.85 336.3 266.15 340.45 266.95 342.8 267.1 345.6 L267.15 346.2 267.25 348.4 Q267.85 349.55 268.0 351.05 L268.2 351.4 Q269.1 353.1 269.3 355.05 L270.3 356.55 Q271.7 358.75 272.4 362.15 273.6 363.5 274.3 365.35 275.6 368.35 275.8 372.45 277.35 373.95 278.15 375.9 279.5 378.15 279.35 381.3 L281.4 384.75 283.45 389.6 287.7 391.3 Q290.1 392.9 292.15 394.45 L291.95 399.0 290.4 405.15 Q289.75 409.75 288.7 414.35 L288.35 415.45 287.55 418.8 284.65 419.9 Q282.45 420.75 279.95 421.25 L279.95 421.3 279.2 423.65 277.0 427.9 275.8 429.95 275.75 430.25 275.6 431.05 Q275.2 433.25 274.3 434.9 L273.15 437.3 271.85 438.7 Q270.75 439.55 269.05 439.85 L267.85 441.15 265.3 441.15 264.95 441.55 262.75 443.35 Q261.75 444.05 260.8 444.45 L258.85 445.2 258.8 445.2 Q258.45 444.75 256.55 445.95 L254.9 446.85 253.5 447.15 253.0 447.1 Q249.7 448.7 247.45 448.65 L247.45 448.7 247.5 447.8 Q246.35 449.45 244.75 449.05 L244.65 449.05 246.95 452.75 247.8 455.05 248.8 458.15 250.1 462.55 250.3 463.55 250.65 465.65 250.75 465.8 253.45 469.4 253.7 469.9 255.0 471.85 Q257.35 474.75 258.65 478.45 259.35 478.85 259.65 479.5 L259.7 479.95 259.95 480.7 262.5 481.85 265.85 482.65 Q266.8 483.65 267.4 485.5 L267.7 486.45 268.45 489.5 Q269.1 493.7 269.8 495.05 L269.9 496.05 270.1 498.65 270.05 499.3 275.9 506.55 277.0 508.3 279.8 513.35 281.5 515.6 282.25 516.35 282.35 517.5 284.15 522.0 284.7 523.7 285.05 524.7 Q287.4 527.45 288.65 531.2 L288.6 531.85 288.35 533.05 288.2 534.2 288.25 534.45 288.35 536.45 288.45 540.0 288.55 540.2 Q289.1 542.15 289.1 544.3 L288.95 546.1 288.65 546.75 287.45 549.45 286.9 550.35 285.35 555.95 284.0 561.15 283.2 561.8 281.95 562.7 280.35 563.55 277.95 566.4 277.05 567.6 276.0 569.7 275.35 570.6 276.8 573.1 276.55 576.0 276.6 577.5 276.7 579.3 276.95 580.0 Q278.05 583.3 278.6 586.15 L278.75 587.1 278.55 587.3 278.3 588.2 Q278.65 588.6 278.7 589.35 L279.05 591.25 279.45 592.3 279.55 592.9 279.3 596.3 278.35 597.25 276.25 598.35 277.05 598.25 277.15 598.85 277.95 600.0 277.65 601.3 276.6 604.55 274.75 607.7 272.85 609.3 270.85 609.7 270.6 611.25 268.8 612.1 Q265.75 615.1 262.05 616.8 L261.95 616.95 258.95 619.6 258.5 619.45 257.15 618.9 Q255.45 617.45 254.3 615.4 252.8 614.5 251.55 613.25 248.45 611.85 245.7 609.85 L244.75 609.05 244.65 608.95 244.6 610.4 244.4 613.9 Q244.15 616.75 243.4 619.15 L240.55 622.25 239.1 623.65 237.9 625.05 237.55 627.0 237.55 628.35 237.65 632.0 237.7 635.25 237.6 644.2 236.85 644.7 236.7 644.95 236.3 645.3 Q237.35 649.85 236.3 653.75 L236.0 654.55 235.35 656.15 Q233.6 660.35 230.95 660.55 230.3 659.1 229.5 658.65 L229.25 658.45 227.9 656.55 227.8 656.4 Q226.1 657.7 224.25 656.75 L223.75 656.65 222.7 657.7 222.0 658.45 221.55 658.9 221.3 658.7 219.45 658.65 218.95 658.65 Q214.8 657.85 211.3 656.3 L211.1 656.25 204.7 656.25 203.85 656.25 203.0 656.55 200.8 657.25 195.6 658.15 194.3 657.9 189.0 656.3 187.35 655.6 184.2 655.6 178.65 655.6 177.35 656.0 163.15 664.65 157.25 668.35 156.8 668.6 Q155.3 668.8 155.35 670.15 L154.25 671.0 154.15 671.05 153.65 671.55 Q153.15 672.45 151.6 673.4 L148.95 674.8 148.8 674.85 Q146.85 674.05 144.8 671.9 L144.5 671.65 144.35 671.45 139.25 663.55 138.75 661.9 138.1 659.9 134.55 653.4 Q133.55 650.6 133.0 647.85 L132.8 647.05 132.75 646.75 132.7 644.5 132.8 642.9 131.5 640.05 130.8 639.75 129.95 640.55 128.7 640.8 Q125.8 641.3 122.6 640.05 L121.15 636.9 120.45 634.95 119.45 632.15 119.1 630.8 118.8 629.55 118.6 627.85 Q117.95 626.35 116.75 626.5 L116.7 626.6 116.15 627.45 Q114.5 628.65 113.1 629.1 L112.15 629.05 Q110.15 628.85 108.15 627.85 L107.05 627.65 104.9 624.4 104.8 624.3 103.9 623.7 102.35 621.95 102.0 621.55 101.55 620.95 101.35 620.45 101.25 619.85 101.2 619.8 Q100.35 618.3 99.35 618.1 L98.9 618.3 98.15 618.1 95.85 618.2 94.45 617.9 Q92.25 618.6 90.1 618.4 L88.4 616.15 88.2 614.85 88.1 612.5 88.1 611.8 Q88.1 610.85 88.25 609.9 L88.55 608.95 88.8 608.55 88.85 608.45 88.85 607.3 Q88.05 606.25 86.65 606.45 L86.55 606.4 85.95 607.35 84.15 608.15 81.75 608.6 80.75 608.3 80.3 608.15 Q79.55 607.9 78.95 607.4 L78.55 607.15 78.2 607.05 78.05 606.35 78.2 604.25 78.35 603.55 78.5 602.75 78.4 601.6 78.2 600.45 78.2 598.8 78.55 598.15 Q77.7 597.75 77.3 598.15 L76.55 597.9 75.75 597.65 75.05 597.3 75.0 596.9 Q74.9 596.25 75.1 595.3 L75.85 592.95 76.75 591.8 77.2 591.45 78.85 590.15 Q80.0 587.85 82.7 585.5 L84.15 584.1 86.3 582.35 86.65 582.05 Q88.25 580.1 90.3 578.55 91.3 576.2 92.6 574.1 L93.7 572.45 93.7 572.4 99.45 564.2 100.55 562.75 105.1 556.85 106.65 554.0 107.1 553.2 Q109.35 548.3 112.6 543.95 L114.6 541.45 Q117.35 537.75 120.95 534.05 L121.75 533.15 123.05 531.75 124.65 530.2 130.0 525.3 131.5 523.85 132.7 522.7 132.9 522.55 136.3 518.4 139.0 515.8 139.05 515.7 141.25 512.55 138.45 511.0 136.45 508.8 137.55 503.0 137.7 502.2 138.75 497.3 140.15 493.25 143.5 483.9 144.75 481.25 145.5 478.4 146.1 477.0 148.5 471.35 149.2 468.55 150.45 465.1 152.05 460.65 152.45 459.15 Q154.3 457.8 156.35 456.8 L157.4 456.4 Q159.7 455.5 161.9 454.95 L162.55 454.8 161.85 452.3 161.0 448.8 160.15 445.25 158.15 436.1 158.1 435.95 Q157.0 434.3 156.05 432.25 155.2 430.3 154.45 427.95 154.1 426.95 153.7 424.8 L153.5 424.2 153.4 423.65 153.0 422.05 152.0 419.85 150.6 417.4 150.4 416.85 148.55 413.25 148.05 412.85 146.1 411.45 145.7 411.05 Q144.5 409.75 143.5 407.55 L143.45 407.35 143.35 407.5 142.65 408.4 141.5 409.3 Q140.35 410.15 139.15 410.25 L138.7 410.3 138.05 407.6 137.6 406.55 Q136.9 405.25 135.75 404.7 L135.35 404.55 Q132.9 404.1 130.5 400.45 L130.4 401.45 131.35 404.75 130.95 404.8 130.05 404.85 128.1 404.8 126.35 404.35 124.95 401.45 123.95 398.7 Q122.5 394.35 121.5 388.3 L121.35 387.05 121.2 385.7 Q120.6 380.15 120.7 375.4 L118.6 369.9 118.1 368.85 116.9 365.85 Q114.45 359.45 112.95 353.55 L112.8 353.05 Q111.45 344.4 110.9 338.5 L110.95 336.55 Q110.95 334.85 111.1 333.3 L111.3 330.3 111.7 327.35 112.3 324.25 Q112.45 322.7 113.15 321.9 113.05 318.25 113.45 316.65 113.5 307.95 114.0 299.05 L114.35 293.55 Q114.65 289.2 115.3 285.25 L115.35 284.75 114.95 282.8 104.45 275.0 Q110.1 253.35 124.8 241.2 131.25 235.85 139.25 232.6 M264.55 517.25 L264.1 514.4 Q261.45 509.2 258.55 504.7 L255.8 501.4 253.4 499.0 249.2 495.8 249.35 507.85 Q253.0 518.4 253.1 530.35 L255.35 532.6 Q255.7 529.85 257.25 527.05 L260.0 525.95 261.95 525.55 Q264.3 523.15 264.6 519.95 L264.55 517.25 M221.4 331.75 L221.2 333.6 221.0 335.15 220.05 337.3 218.6 340.65 217.65 343.1 Q216.3 346.3 214.55 349.1 L218.85 355.25 222.35 355.8 222.7 355.9 224.35 356.45 226.1 357.75 Q229.0 360.45 231.25 364.3 L231.3 364.45 233.7 368.65 238.3 373.15 239.45 373.3 240.0 373.2 240.25 373.15 240.75 373.1 241.25 373.6 245.65 377.8 245.4 373.35 Q245.4 372.9 245.65 372.55 L245.9 372.25 Q246.4 371.9 246.9 371.95 L246.85 370.4 246.25 358.95 246.15 358.55 243.85 349.2 243.75 348.9 243.1 345.85 239.55 343.55 233.4 340.05 233.1 339.9 225.45 339.05 224.4 338.25 223.7 337.25 223.65 337.0 Q223.6 335.8 224.75 335.05 L224.9 335.0 226.15 335.0 223.65 332.8 Q222.7 331.75 221.85 330.15 L221.4 331.75 M212.25 319.05 L211.2 321.7 211.4 326.45 Q211.4 328.4 211.85 330.5 L212.4 335.7 212.9 332.4 213.15 328.05 212.55 321.55 212.25 319.05 M129.0 346.45 L128.45 345.05 Q128.35 347.6 128.65 350.1 129.0 352.35 129.45 353.95 130.35 355.95 131.1 356.4 131.15 352.8 130.15 349.2 L129.0 346.45" fill="#ffffff" fill-rule="evenodd" stroke="none"/>
  </g>
</svg>
