<?xml version="1.0" encoding="UTF-8" standalone="no"?>
<svg xmlns:xlink="http://www.w3.org/1999/xlink" height="469.9px" width="239.45px" xmlns="http://www.w3.org/2000/svg">
  <g transform="matrix(1.0, 0.0, 0.0, 1.0, -61.0, -206.65)">
    <path d="M144.15 208.75 Q151.7 206.25 160.55 206.75 L164.6 207.05 164.85 207.05 Q176.1 208.4 185.45 213.25 L185.6 213.2 185.75 213.2 185.8 213.3 185.85 213.35 191.7 217.1 193.65 218.7 197.45 220.85 Q203.1 223.45 208.1 227.65 L208.7 228.15 208.9 228.3 209.1 228.45 209.15 228.55 209.25 228.6 Q213.55 232.25 217.25 237.05 L217.65 237.7 218.9 241.05 Q220.5 245.55 221.45 250.35 L221.8 252.05 223.05 259.65 224.0 263.1 Q225.45 268.4 226.15 273.75 226.7 277.65 226.85 281.55 229.05 282.25 229.5 284.4 L234.15 285.5 Q237.3 286.55 240.65 288.0 L241.1 287.95 241.45 287.95 241.9 287.6 242.3 287.25 242.75 286.95 241.9 287.6 241.5 287.95 242.15 287.85 243.35 287.6 244.4 287.5 244.5 287.6 246.6 288.7 247.55 289.6 Q248.45 290.6 248.95 291.8 L249.25 292.75 250.7 293.25 252.65 295.1 253.45 296.1 254.25 297.5 255.65 298.7 256.5 299.4 257.35 300.2 257.45 300.3 Q259.1 301.95 259.8 303.95 L260.6 304.45 261.8 305.25 262.05 305.5 264.4 308.5 265.25 309.2 266.2 310.0 Q267.7 311.7 268.5 313.7 269.1 314.85 269.35 316.15 L270.35 316.5 Q274.55 318.25 275.6 322.8 276.25 325.3 276.05 328.4 L276.05 329.05 275.9 331.4 275.65 334.7 275.85 335.1 Q276.55 337.0 276.8 339.05 L277.6 340.9 Q278.7 343.65 279.35 347.15 280.3 348.85 280.85 350.9 282.1 354.25 282.55 358.4 283.8 360.25 284.55 362.4 285.75 364.95 285.95 368.15 L287.75 372.1 289.65 377.4 294.45 378.5 300.45 380.65 300.35 385.45 299.45 392.15 298.4 402.05 298.15 403.25 297.7 406.85 294.4 407.6 289.3 408.5 289.3 408.55 288.85 411.25 287.55 416.5 286.85 419.2 286.8 419.5 286.7 420.35 285.8 424.55 285.1 427.55 Q284.85 428.65 284.15 429.45 283.15 430.6 281.35 431.2 L280.55 433.45 277.85 434.0 277.4 434.35 Q276.2 435.25 274.6 435.9 L272.4 436.7 269.95 436.9 269.85 436.8 Q268.85 435.5 266.1 436.15 L263.75 436.4 261.95 436.05 261.35 435.75 254.6 435.5 254.55 435.5 Q254.15 434.7 254.0 433.55 251.85 434.85 249.6 433.25 L249.15 432.95 249.05 432.65 249.05 432.8 250.5 437.55 251.0 440.25 251.6 443.8 252.45 448.6 252.55 449.7 252.7 452.05 252.75 452.25 254.3 457.6 254.45 458.25 255.35 460.85 Q256.9 464.65 257.75 468.95 258.5 469.4 258.75 470.1 L258.8 470.65 258.95 471.45 261.9 472.25 265.55 472.75 Q266.5 473.8 266.95 475.9 L267.15 477.0 267.6 480.3 Q268.05 485.25 268.5 486.25 L268.55 487.4 268.45 490.2 268.35 490.85 275.25 498.0 276.6 499.75 Q278.4 502.2 280.0 504.9 L281.8 507.35 282.55 508.2 282.9 509.35 285.1 514.0 285.8 515.75 286.15 516.85 Q288.3 520.1 289.35 524.2 L289.35 524.95 289.2 526.25 289.1 527.4 289.15 527.6 289.2 529.75 289.15 533.5 289.2 533.7 Q289.5 535.9 289.3 538.15 L289.0 540.05 288.75 540.8 287.65 543.65 287.1 544.6 285.2 550.5 283.25 555.8 282.5 556.65 281.3 557.8 279.75 559.0 277.1 562.0 276.05 563.2 274.4 565.2 273.55 566.05 275.45 568.55 276.7 572.25 277.15 573.85 277.7 575.75 278.0 576.5 Q279.5 579.95 280.2 582.9 L280.45 583.9 280.35 584.2 280.55 585.45 Q281.7 586.1 282.5 587.2 L283.55 589.25 284.15 590.35 284.35 590.9 Q284.7 592.7 284.35 594.5 L283.55 595.8 281.5 597.55 283.2 597.95 283.95 598.8 284.95 600.0 284.5 601.4 Q283.9 603.25 282.95 604.75 281.9 606.45 280.5 607.8 L278.0 609.05 275.9 609.45 276.4 611.5 274.65 612.75 Q271.5 616.0 267.4 617.5 L267.3 617.6 263.3 619.7 262.75 619.2 261.25 617.35 Q259.75 615.4 258.85 612.95 L256.05 610.55 Q253.0 608.5 250.45 605.6 L249.6 604.55 249.4 604.3 249.4 605.85 249.2 609.55 Q249.0 612.5 248.45 615.15 L246.25 619.6 245.05 621.9 244.1 623.65 243.7 625.65 243.75 627.05 243.85 630.95 243.95 634.3 244.05 643.8 243.1 644.15 242.8 644.3 242.2 644.5 Q243.05 649.35 242.1 653.45 L241.85 654.35 241.25 656.1 Q239.45 660.95 236.95 661.05 236.5 659.0 236.0 658.4 L235.8 658.1 234.65 655.8 234.5 655.6 Q232.85 657.85 230.45 658.0 L229.8 658.1 228.45 661.45 227.35 664.25 226.7 665.9 226.35 665.8 224.45 665.75 223.9 665.75 215.45 664.2 215.25 664.15 208.45 664.15 207.55 664.15 206.6 664.35 204.2 664.8 198.6 665.45 197.2 665.25 191.35 664.2 189.45 663.7 186.1 663.7 180.25 663.7 178.9 664.0 161.1 669.75 153.75 672.2 153.2 672.4 Q151.15 672.5 150.15 673.4 L148.15 674.0 148.0 674.0 146.85 674.35 143.5 675.6 140.35 676.55 140.2 676.55 Q138.45 674.8 136.6 672.2 L136.35 671.85 136.25 671.6 131.7 662.65 131.15 660.9 130.5 658.8 127.3 651.65 Q126.3 648.7 125.65 645.8 L125.4 644.95 125.35 644.6 125.0 642.25 124.9 640.55 123.65 637.35 122.85 637.15 122.3 639.0 120.95 639.85 Q117.65 641.75 113.7 641.35 L112.05 638.1 111.25 636.1 110.2 633.1 109.85 631.7 109.55 630.35 109.4 628.55 Q108.65 627.0 107.15 627.65 L107.1 627.9 106.75 628.95 103.7 631.2 102.7 631.45 97.65 631.75 96.35 631.75 Q95.1 630.1 94.15 628.25 L94.05 628.15 93.3 627.3 91.95 624.95 91.7 624.4 91.35 623.6 91.4 622.95 91.5 622.2 91.45 622.2 Q90.55 620.5 89.2 620.7 L88.6 621.55 87.45 621.95 84.85 622.75 83.25 622.9 Q80.95 623.7 78.7 623.6 L77.25 621.0 77.0 619.6 76.9 617.1 76.9 616.35 77.1 614.3 77.35 613.3 77.6 612.85 77.65 612.75 77.9 611.55 Q77.05 610.4 75.45 610.95 L75.35 611.0 74.95 612.2 73.15 613.35 70.7 614.35 69.35 614.55 68.7 614.6 66.55 614.5 65.9 614.4 65.45 614.35 65.25 613.6 Q65.15 612.65 65.35 611.45 L65.55 610.7 65.75 609.85 65.95 608.55 66.15 607.25 66.65 605.45 67.05 604.75 Q65.55 605.0 64.3 605.8 L63.3 605.9 62.1 606.1 61.05 606.2 61.05 605.75 Q61.05 604.95 61.45 603.85 L62.55 601.3 63.75 600.1 64.3 599.75 66.2 598.45 Q67.4 595.8 70.45 593.15 L72.15 591.7 Q73.35 590.7 74.65 589.8 L75.15 589.45 Q77.25 587.6 79.85 586.0 81.05 583.45 82.4 581.05 L83.5 579.2 83.5 579.15 89.5 569.8 90.7 568.15 95.65 561.45 97.5 558.3 98.05 557.45 Q100.75 552.1 104.4 547.4 L106.75 544.65 Q109.8 540.55 113.8 536.4 L114.7 535.4 116.25 533.85 118.0 532.05 124.0 526.65 125.7 525.05 127.05 523.85 127.25 523.7 130.85 518.9 133.8 515.9 133.85 515.8 136.5 512.35 132.3 511.3 129.3 509.2 130.2 502.7 130.3 501.75 131.15 496.2 132.5 491.6 135.7 480.9 136.85 477.75 137.65 474.6 138.35 473.05 141.1 466.75 142.1 463.7 143.9 459.95 146.25 455.1 146.95 453.4 Q149.9 452.35 153.1 451.85 L154.75 451.65 161.7 451.45 162.7 451.55 162.0 448.7 161.15 444.75 160.3 440.75 158.4 430.4 158.35 430.25 Q157.15 428.45 156.1 426.1 155.15 423.9 154.3 421.3 L153.5 417.75 153.3 417.1 153.15 416.5 152.65 414.7 151.5 412.25 149.85 409.6 149.55 409.05 147.0 405.15 146.3 404.8 143.75 403.65 143.2 403.25 Q141.55 401.95 140.1 399.65 L140.0 399.45 139.9 400.35 139.3 401.7 138.15 403.05 Q136.95 404.45 135.65 404.75 L135.15 404.85 Q135.25 403.3 134.8 401.6 L134.4 400.35 Q133.7 398.8 132.4 398.2 L131.9 398.0 Q129.25 397.8 126.65 393.3 L126.95 394.85 128.2 398.5 127.75 398.45 126.6 398.3 124.35 397.8 Q123.35 397.4 122.4 396.8 121.4 395.4 120.65 393.6 119.95 392.3 119.4 390.6 117.8 385.9 117.0 378.85 L116.95 377.45 116.85 375.95 Q116.65 369.65 117.45 364.25 L115.45 357.95 115.05 356.8 113.9 353.3 Q111.55 346.0 110.35 339.25 L110.2 338.7 Q109.2 328.7 108.95 322.3 L109.1 320.1 Q109.2 318.2 109.45 316.5 L109.9 313.15 110.55 309.9 111.55 306.5 Q111.75 304.7 112.75 303.9 112.7 299.6 113.3 298.1 113.6 288.35 114.15 278.5 L114.55 272.35 Q114.85 267.45 115.6 263.1 L115.65 262.6 115.65 260.2 104.3 251.0 Q111.6 228.3 128.1 216.65 135.3 211.55 144.15 208.75 M270.0 518.85 L269.35 515.3 Q266.5 508.65 263.0 502.85 L259.75 498.6 256.9 495.35 251.5 490.65 251.6 506.55 Q256.4 520.4 256.45 536.2 L259.2 538.95 Q259.4 535.1 261.15 531.35 262.95 530.35 264.6 529.85 L266.95 529.3 Q269.9 526.2 270.15 522.25 L270.0 518.85 M214.15 302.5 L212.85 305.8 212.95 311.8 213.25 317.1 213.65 324.25 214.25 320.05 214.65 314.55 214.4 305.95 214.15 302.5 M228.7 319.7 L228.9 319.65 230.6 319.65 Q228.9 318.65 227.45 317.0 226.3 315.7 225.25 313.65 L224.8 315.95 224.4 318.65 224.05 320.8 222.95 323.95 221.2 328.75 220.1 331.8 Q218.45 335.85 216.45 339.35 L219.3 343.45 223.65 343.9 224.15 344.0 226.25 344.6 228.5 346.2 Q232.45 349.45 235.5 354.15 L235.6 354.35 238.5 359.7 244.2 365.4 245.65 365.5 246.45 365.4 246.85 365.4 247.55 365.4 248.25 366.1 254.4 372.4 254.2 366.9 Q254.25 366.3 254.6 365.9 L254.95 365.6 Q255.55 365.15 256.2 365.25 L256.15 363.3 255.45 348.95 255.35 348.45 252.5 336.8 252.4 336.45 251.7 332.55 247.15 329.85 239.45 325.5 239.05 325.3 229.3 324.75 227.95 323.75 Q227.35 323.25 227.1 322.5 L227.05 322.2 Q227.05 320.6 228.7 319.7 M124.3 327.35 L123.65 325.25 Q123.5 328.35 123.75 331.35 124.0 333.95 124.4 336.0 125.2 338.95 126.05 340.0 126.1 335.7 125.35 331.15 L124.3 327.35" fill="#ffffff" fill-rule="evenodd" stroke="none"/>
  </g>
</svg>
