<?xml version="1.0" encoding="UTF-8" standalone="no"?>
<svg xmlns:xlink="http://www.w3.org/1999/xlink" height="18.15px" width="170.85px" xmlns="http://www.w3.org/2000/svg">
  <g transform="matrix(1.0, 0.0, 0.0, 1.0, 85.45, 39.0)">
    <path d="M0.0 -34.0 Q-46.7 -33.95 -79.8 -23.5 L-79.85 -23.5 -81.4 -23.0 Q-81.95 -22.75 -82.55 -23.0 -83.1 -23.3 -83.3 -23.85 -83.55 -24.45 -83.3 -25.0 L-82.45 -25.8 -80.7 -26.4 -80.7 -26.35 Q-47.2 -36.95 0.0 -37.0 L0.0 -36.95 Q47.2 -36.9 80.7 -26.3 L82.45 -25.75 83.3 -24.95 Q83.55 -24.4 83.3 -23.8 83.1 -23.25 82.55 -22.95 81.95 -22.7 81.4 -22.95 L79.85 -23.45 79.8 -23.45 Q46.7 -33.9 0.0 -33.95 L0.0 -34.0 Z" fill="none" stroke="#000000" stroke-linecap="round" stroke-linejoin="round" stroke-width="4.0"/>
    <path d="M0.0 -33.95 L0.0 -34.0 Q-46.7 -33.95 -79.8 -23.5 L-79.85 -23.5 -81.4 -23.0 Q-81.95 -22.75 -82.55 -23.0 -83.1 -23.3 -83.3 -23.85 -83.55 -24.45 -83.3 -25.0 L-82.45 -25.8 -80.7 -26.4 -80.7 -26.35 Q-47.2 -36.95 0.0 -37.0 L0.0 -36.95 Q47.2 -36.9 80.7 -26.3 L80.7 -26.35 80.75 -26.35 82.45 -25.75 83.3 -24.95 Q83.55 -24.4 83.3 -23.8 83.1 -23.25 82.55 -22.95 81.95 -22.7 81.4 -22.95 L79.85 -23.45 79.8 -23.45 Q46.7 -33.9 0.0 -33.95" fill="url(#gradient0)" fill-rule="evenodd" stroke="none"/>
  </g>
  <defs>
    <linearGradient gradientTransform="matrix(0.099, 0.0, 0.0, 0.0077, 0.0, -30.7)" gradientUnits="userSpaceOnUse" id="gradient0" spreadMethod="pad" x1="-819.2" x2="819.2">
      <stop offset="0.0" stop-color="#959595"/>
      <stop offset="0.19607843137254902" stop-color="#ffffff"/>
      <stop offset="0.5058823529411764" stop-color="#ffffff"/>
      <stop offset="0.8274509803921568" stop-color="#ffffff"/>
      <stop offset="1.0" stop-color="#959595"/>
    </linearGradient>
  </defs>
</svg>
