<?xml version="1.0" encoding="UTF-8" standalone="no"?>
<svg xmlns:xlink="http://www.w3.org/1999/xlink" height="26.5px" width="521.0px" xmlns="http://www.w3.org/2000/svg">
  <g transform="matrix(1.0, 0.0, 0.0, 1.0, 260.5, 31.55)">
    <path d="M203.45 -16.0 Q236.5 -11.85 256.65 -7.1 L257.8 -7.25 Q258.3 -7.6 258.45 -8.2 L258.3 -9.3 Q257.95 -9.85 257.35 -10.0 237.1 -14.85 203.8 -19.0 119.3 -29.55 0.0 -29.55 -119.3 -29.55 -203.8 -19.0 -237.1 -14.85 -257.35 -10.0 -257.95 -9.85 -258.3 -9.3 L-258.45 -8.2 Q-258.3 -7.6 -257.8 -7.25 L-256.65 -7.1 Q-236.5 -11.85 -203.45 -16.0 -119.05 -26.5 0.0 -26.55 119.05 -26.5 203.45 -16.0 Z" fill="none" stroke="#000000" stroke-linecap="round" stroke-linejoin="round" stroke-width="4.0"/>
    <path d="M203.45 -16.0 Q119.05 -26.5 0.0 -26.55 -119.05 -26.5 -203.45 -16.0 -236.5 -11.85 -256.65 -7.1 L-257.8 -7.25 Q-258.3 -7.6 -258.45 -8.2 L-258.3 -9.3 Q-257.95 -9.85 -257.35 -10.0 -237.1 -14.85 -203.8 -19.0 -119.3 -29.55 0.0 -29.55 119.3 -29.55 203.8 -19.0 237.1 -14.85 257.35 -10.0 257.95 -9.85 258.3 -9.3 L258.45 -8.2 Q258.3 -7.6 257.8 -7.25 L256.65 -7.1 Q236.5 -11.85 203.45 -16.0" fill="url(#gradient0)" fill-rule="evenodd" stroke="none"/>
  </g>
  <defs>
    <linearGradient gradientTransform="matrix(0.3162, 0.0, 0.0, 0.011, -1.0, -6.05)" gradientUnits="userSpaceOnUse" id="gradient0" spreadMethod="pad" x1="-819.2" x2="819.2">
      <stop offset="0.0" stop-color="#959595"/>
      <stop offset="0.19607843137254902" stop-color="#ffffff"/>
      <stop offset="0.5058823529411764" stop-color="#ffffff"/>
      <stop offset="0.8274509803921568" stop-color="#ffffff"/>
      <stop offset="1.0" stop-color="#959595"/>
    </linearGradient>
  </defs>
</svg>
