<?xml version="1.0" encoding="UTF-8" standalone="no"?>
<svg xmlns:xlink="http://www.w3.org/1999/xlink" height="58.0px" width="760.0px" xmlns="http://www.w3.org/2000/svg">
  <g transform="matrix(1.0, 0.0, 0.0, 1.0, 0.0, 0.0)">
    <path d="M385.8 0.0 L760.0 0.0 760.0 58.0 385.8 58.0 414.8 29.0 385.8 0.0 M377.2 58.0 L327.0 58.0 355.0 30.0 356.0 29.0 355.0 28.0 327.0 0.0 377.2 0.0 405.6 29.05 377.2 58.0" fill="#000000" fill-rule="evenodd" stroke="none"/>
    <path d="M385.8 58.0 L377.2 58.0 405.6 29.05 377.2 0.0 385.8 0.0 414.8 29.0 385.8 58.0 M327.0 58.0 L0.0 58.0 0.0 0.0 327.0 0.0 355.0 28.0 356.0 29.0 355.0 30.0 327.0 58.0" fill="#6f6f6f" fill-rule="evenodd" stroke="none"/>
  </g>
</svg>
