<?xml version="1.0" encoding="UTF-8" standalone="no"?>
<svg xmlns:xlink="http://www.w3.org/1999/xlink" height="54.5px" width="29.1px" xmlns="http://www.w3.org/2000/svg">
  <g transform="matrix(1.0, 0.0, 0.0, 1.0, 15.6, 28.05)">
    <path d="M13.5 12.9 L11.65 13.85 9.5 14.65 Q8.9 13.7 8.05 11.1 9.25 9.9 11.85 8.95 13.15 10.55 13.5 12.9 M6.85 -4.95 L4.05 -4.65 3.55 -5.6 2.95 -7.1 4.2 -7.75 5.7 -8.45 Q6.5 -7.75 6.7 -6.9 L6.85 -4.95 M6.55 -25.4 Q6.25 -25.65 6.35 -26.75 L6.6 -28.05 9.55 -28.0 10.1 -25.4 8.1 -25.1 Q6.9 -25.1 6.55 -25.4 M-7.45 -25.05 Q-6.8 -24.45 -6.55 -23.45 -8.9 -22.1 -11.6 -22.25 L-12.4 -23.05 -12.9 -24.65 Q-12.2 -25.6 -11.25 -25.9 L-9.45 -26.25 -7.45 -25.05 M-12.25 26.45 Q-13.2 24.8 -13.3 22.55 L-11.85 21.85 -10.55 21.55 -8.95 23.7 Q-8.2 24.8 -8.0 25.65 L-10.1 26.2 -12.25 26.45 M-11.6 -6.65 Q-12.2 -6.2 -13.35 -6.1 -14.6 -5.95 -15.0 -6.4 -15.45 -6.85 -15.55 -7.7 -15.7 -8.55 -15.45 -9.45 -15.2 -10.35 -14.1 -11.05 -13.05 -11.8 -12.2 -11.6 -11.0 -11.35 -10.1 -10.2 -10.5 -7.45 -11.6 -6.65" fill="#ffffff" fill-rule="evenodd" stroke="none"/>
  </g>
</svg>
