<?xml version="1.0" encoding="UTF-8" standalone="no"?>
<svg xmlns:xlink="http://www.w3.org/1999/xlink" height="22.2px" width="12.65px" xmlns="http://www.w3.org/2000/svg">
  <g transform="matrix(1.0, 0.0, 0.0, 1.0, 21.35, 32.3)">
    <path d="M-10.8 -27.0 L-16.15 -27.0 -16.5 -25.6 Q-13.6 -24.75 -11.65 -23.25 -9.7 -21.75 -9.7 -19.6 -9.7 -18.8 -10.1 -18.1 L-12.4 -14.85 -15.15 -11.1 -20.35 -14.6 -17.9 -18.1 -14.25 -15.7 -13.7 -16.55 Q-13.3 -17.1 -13.3 -17.9 -13.3 -18.4 -13.8 -18.9 -14.3 -19.4 -15.2 -19.9 L-17.25 -20.75 -20.0 -21.45 -17.6 -31.3 -9.8 -31.3 -10.8 -27.0 Z" fill="none" stroke="#000000" stroke-linecap="round" stroke-linejoin="round" stroke-width="2.0"/>
    <path d="M-10.8 -27.0 L-16.15 -27.0 -16.5 -25.6 Q-13.6 -24.75 -11.65 -23.25 -9.7 -21.75 -9.7 -19.6 -9.7 -18.8 -10.1 -18.1 L-12.4 -14.85 -15.15 -11.1 -20.35 -14.6 -17.9 -18.1 -14.25 -15.7 -13.7 -16.55 Q-13.3 -17.1 -13.3 -17.9 -13.3 -18.4 -13.8 -18.9 -14.3 -19.4 -15.2 -19.9 L-17.25 -20.75 -20.0 -21.45 -17.6 -31.3 -9.8 -31.3 -10.8 -27.0" fill="#ffffff" fill-rule="evenodd" stroke="none"/>
  </g>
</svg>
