<?xml version="1.0" encoding="UTF-8" standalone="no"?>
<svg xmlns:xlink="http://www.w3.org/1999/xlink" height="25.45px" width="25.5px" xmlns="http://www.w3.org/2000/svg">
  <g transform="matrix(1.0, 0.0, 0.0, 1.0, 12.75, 12.7)">
    <path d="M4.95 -2.15 L2.8 -1.4 1.4 0.0 2.85 1.45 4.95 2.15 6.35 0.75 12.75 12.75 0.7 6.4 2.15 4.95 1.45 2.85 0.0 1.4 -1.45 2.85 -2.15 4.95 -0.7 6.4 -12.75 12.75 -6.35 0.75 -4.95 2.15 -2.85 1.45 -1.4 0.0 -2.8 -1.4 -4.95 -2.15 -6.4 -0.7 -12.7 -12.7 -0.75 -6.35 -2.15 -4.95 -1.4 -2.8 0.0 -1.4 1.4 -2.8 2.15 -4.95 0.75 -6.35 12.7 -12.7 6.4 -0.7 4.95 -2.15" fill="#000000" fill-rule="evenodd" stroke="none"/>
  </g>
</svg>
