<?xml version="1.0" encoding="UTF-8" standalone="no"?>
<svg xmlns:xlink="http://www.w3.org/1999/xlink" height="16.0px" width="7.2px" xmlns="http://www.w3.org/2000/svg">
  <g transform="matrix(1.0, 0.0, 0.0, 1.0, 3.6, 8.0)">
    <path d="M0.0 -8.0 Q0.3 -8.0 0.6 -7.1 1.05 -5.85 2.0 -5.0 3.75 -3.5 3.6 1.6 3.4 7.1 0.0 8.0 -3.4 7.1 -3.6 1.6 -3.75 -3.5 -2.0 -5.0 -1.05 -5.85 -0.6 -7.1 -0.3 -8.0 0.0 -8.0" fill="url(#gradient0)" fill-rule="evenodd" stroke="none"/>
    <path d="M1.7 -4.6 Q3.25 -3.2 3.1 1.6 2.9 6.55 0.0 7.5 -2.9 6.55 -3.1 1.6 -3.25 -3.2 -1.65 -4.6 -0.65 -5.55 -0.1 -6.9 L-0.1 -6.95 0.0 -7.4 0.15 -6.95 0.15 -6.9 Q0.65 -5.55 1.7 -4.6" fill="url(#gradient1)" fill-rule="evenodd" stroke="none"/>
    <path d="M0.0 -8.0 Q0.3 -8.0 0.6 -7.1 1.05 -5.85 2.0 -5.0 3.75 -3.5 3.6 1.6 3.4 7.1 0.0 8.0 -3.4 7.1 -3.6 1.6 -3.75 -3.5 -2.0 -5.0 -1.05 -5.85 -0.6 -7.1 -0.3 -8.0 0.0 -8.0" fill="url(#gradient2)" fill-rule="evenodd" stroke="none"/>
  </g>
  <defs>
    <radialGradient cx="0" cy="0" fx="-867.2" fy="0" gradientTransform="matrix(0.0, -0.0103, 0.0075, 0.0, 0.0, 0.0)" gradientUnits="userSpaceOnUse" id="gradient0" r="819.2" spreadMethod="pad">
      <stop offset="0.12156862745098039" stop-color="#5e5322"/>
      <stop offset="0.4980392156862745" stop-color="#97873e"/>
      <stop offset="0.6862745098039216" stop-color="#8a8a3c"/>
      <stop offset="0.8274509803921568" stop-color="#81812f"/>
      <stop offset="1.0" stop-color="#9f8842"/>
    </radialGradient>
    <radialGradient cx="0" cy="0" fx="-915.2" fy="0" gradientTransform="matrix(0.0, -0.0103, 0.0075, 0.0, 0.0, 0.0)" gradientUnits="userSpaceOnUse" id="gradient1" r="819.2" spreadMethod="pad">
      <stop offset="0.1568627450980392" stop-color="#5e5e22"/>
      <stop offset="0.5725490196078431" stop-color="#848333"/>
      <stop offset="0.7176470588235294" stop-color="#8b8a34"/>
      <stop offset="0.8627450980392157" stop-color="#7d7d2d"/>
      <stop offset="1.0" stop-color="#897436"/>
    </radialGradient>
    <radialGradient cx="0" cy="0" fx="6.4" fy="0" gradientTransform="matrix(0.0067, 0.0, 1.0E-4, 0.0125, -2.2, -4.0)" gradientUnits="userSpaceOnUse" id="gradient2" r="819.2" spreadMethod="pad">
      <stop offset="0.0" stop-color="#ffffff" stop-opacity="0.101960786"/>
      <stop offset="1.0" stop-color="#000000" stop-opacity="0.2"/>
    </radialGradient>
  </defs>
</svg>
