<?xml version="1.0" encoding="UTF-8" standalone="no"?>
<svg xmlns:xlink="http://www.w3.org/1999/xlink" height="106.0px" width="97.0px" xmlns="http://www.w3.org/2000/svg">
  <g transform="matrix(1.0, 0.0, 0.0, 1.0, 48.5, 61.5)">
    <path d="M9.1 -54.65 Q7.2 -51.55 7.35 -47.1 7.45 -44.9 8.0 -42.75 L11.2 -42.75 Q15.45 -42.45 20.1 -40.6 L23.15 -39.2 Q29.05 -36.25 34.2 -31.55 48.5 -18.5 48.5 0.0 48.5 18.5 34.2 31.55 20.05 44.5 0.0 44.5 -20.05 44.5 -34.2 31.55 -48.5 18.5 -48.5 0.0 -48.5 -18.5 -34.2 -31.55 -29.05 -36.25 -23.1 -39.25 L-22.75 -39.4 Q-16.65 -42.4 -11.15 -42.75 L-9.75 -42.8 Q-9.05 -46.4 -7.6 -50.55 -5.15 -57.65 -3.0 -60.45 L-2.1 -61.2 -1.0 -61.5 2.15 -61.15 2.2 -61.15 Q5.95 -60.3 8.65 -57.85 9.35 -57.25 9.5 -56.35 9.6 -55.45 9.1 -54.65" fill="#000000" fill-rule="evenodd" stroke="none"/>
    <path d="M22.0 -37.0 Q27.6 -34.15 32.5 -29.7 46.0 -17.4 46.0 0.0 46.0 17.4 32.5 29.7 19.05 42.0 0.0 42.0 -19.05 42.0 -32.55 29.7 -46.0 17.4 -46.0 0.0 -46.0 -17.4 -32.55 -29.7 -27.65 -34.15 -22.0 -37.0 -16.2 -39.9 -11.0 -40.25 -5.3 -40.65 0.0 -38.0 5.3 -40.65 11.0 -40.25 14.9 -40.0 19.15 -38.3 L22.0 -37.0" fill="url(#gradient0)" fill-rule="evenodd" stroke="none"/>
    <path d="M-6.65 -36.95 L-6.25 -36.95 -6.0 -36.65 -6.05 -36.25 -6.3 -36.0 Q-20.7 -30.9 -27.6 -19.8 -33.85 -9.9 -33.0 2.75 -32.2 14.7 -25.45 25.25 -18.65 35.95 -8.25 41.05 L-8.0 41.35 -8.0 41.45 -10.6 40.95 Q-20.0 35.75 -26.3 25.8 -33.2 15.0 -34.0 2.8 -34.85 -10.2 -28.45 -20.35 -21.4 -31.7 -6.65 -36.95" fill="url(#gradient1)" fill-rule="evenodd" stroke="none"/>
    <path d="M6.0 -36.65 L6.25 -36.95 6.65 -36.95 Q21.4 -31.7 28.45 -20.35 34.85 -10.2 34.0 2.8 33.2 15.0 26.3 25.8 20.0 35.75 10.6 41.0 L8.0 41.5 8.0 41.4 8.25 41.1 Q18.65 35.95 25.45 25.25 32.2 14.7 33.0 2.75 33.85 -9.9 27.6 -19.8 20.7 -30.9 6.3 -36.0 L6.05 -36.25 6.0 -36.65" fill="url(#gradient2)" fill-rule="evenodd" stroke="none"/>
    <path d="M-10.6 -36.95 L-10.2 -36.9 -10.0 -36.6 -10.05 -36.2 Q-10.2 -36.05 -10.4 -36.0 -26.9 -32.25 -35.1 -21.15 -42.4 -11.25 -41.5 2.05 -40.7 14.8 -32.9 25.5 -26.15 34.85 -16.35 39.4 -20.6 37.95 -24.5 35.65 -29.65 31.75 -33.7 26.1 -41.7 15.1 -42.5 2.1 -43.4 -11.55 -35.9 -21.75 -27.5 -33.15 -10.6 -36.95" fill="url(#gradient3)" fill-rule="evenodd" stroke="none"/>
    <path d="M10.0 -36.6 L10.2 -36.9 10.6 -36.95 Q27.5 -33.15 35.9 -21.75 43.4 -11.55 42.5 2.1 41.7 15.1 33.7 26.1 29.65 31.75 24.5 35.65 20.6 37.95 16.35 39.45 26.15 34.85 32.9 25.5 40.7 14.8 41.5 2.05 42.4 -11.25 35.1 -21.15 26.9 -32.25 10.4 -36.0 10.2 -36.05 10.05 -36.2 L10.0 -36.6" fill="url(#gradient4)" fill-rule="evenodd" stroke="none"/>
    <path d="M-2.6 -35.65 L-1.6 -35.65 Q-13.2 -21.55 -13.55 -2.35 -13.95 18.1 -1.55 41.8 L-1.5 42.0 -2.5 41.95 -2.55 41.8 Q-27.5 -7.15 -2.6 -35.65" fill="url(#gradient5)" fill-rule="evenodd" stroke="none"/>
    <path d="M2.6 -35.65 Q27.5 -7.15 2.55 41.8 L2.5 41.95 1.5 42.0 1.55 41.8 Q13.95 18.1 13.55 -2.35 13.2 -21.55 1.6 -35.65 L2.6 -35.65" fill="url(#gradient6)" fill-rule="evenodd" stroke="none"/>
    <path d="M22.0 -37.0 Q27.6 -34.15 32.5 -29.7 46.0 -17.4 46.0 0.0 46.0 17.4 32.5 29.7 19.05 42.0 0.0 42.0 -19.05 42.0 -32.55 29.7 -46.0 17.4 -46.0 0.0 -46.0 -17.4 -32.55 -29.7 -27.65 -34.15 -22.0 -37.0 -16.2 -39.9 -11.0 -40.25 -5.3 -40.65 0.0 -38.0 5.3 -40.65 11.0 -40.25 14.9 -40.0 19.15 -38.3 L22.0 -37.0" fill="url(#gradient7)" fill-rule="evenodd" stroke="none"/>
    <path d="M5.65 -29.35 Q8.0 -24.65 8.0 -18.0 8.0 -11.35 5.65 -6.7 3.3 -2.0 0.0 -2.0 -3.3 -2.0 -5.65 -6.7 -8.0 -11.35 -8.0 -18.0 -8.0 -24.65 -5.65 -29.35 -3.3 -34.0 0.0 -34.0 3.3 -34.0 5.65 -29.35" fill="url(#gradient8)" fill-rule="evenodd" stroke="none"/>
    <path d="M8.0 -36.0 Q15.8 -34.25 23.35 -25.25 30.7 -16.5 32.0 -8.0 L15.0 -6.0 Q14.9 -14.3 11.15 -22.8 7.5 -31.2 2.0 -36.0 L8.0 -36.0" fill="url(#gradient9)" fill-rule="evenodd" stroke="none"/>
    <path d="M-8.0 -36.0 L-2.0 -36.0 Q-7.5 -31.2 -11.15 -22.8 -14.9 -14.3 -15.0 -6.0 L-32.0 -8.0 Q-30.7 -16.5 -23.35 -25.25 -15.8 -34.25 -8.0 -36.0" fill="url(#gradient10)" fill-rule="evenodd" stroke="none"/>
    <path d="M4.0 8.0 L-4.0 8.0 0.0 2.0 4.0 8.0" fill="url(#gradient11)" fill-rule="evenodd" stroke="none"/>
    <path d="M20.85 17.2 L32.45 15.65 Q26.25 23.25 14.35 27.05 9.45 28.6 5.25 29.15 L5.25 26.1 -5.25 26.1 -5.25 29.15 Q-9.45 28.6 -14.35 27.05 -26.25 23.25 -32.45 15.65 L-20.85 17.2 -21.25 20.3 -10.85 21.45 -10.4 17.8 0.0 18.0 10.4 17.8 10.85 21.45 21.25 20.3 20.85 17.2" fill="url(#gradient12)" fill-rule="evenodd" stroke="none"/>
    <path d="M-29.0 7.0 L-21.0 -8.0 -13.0 5.0 -29.0 7.0" fill="url(#gradient13)" fill-rule="evenodd" stroke="none"/>
    <path d="M29.0 7.0 L13.0 5.0 21.0 -8.0 29.0 7.0" fill="url(#gradient14)" fill-rule="evenodd" stroke="none"/>
    <path d="M4.0 8.0 L-4.0 8.0 -2.0 5.0 2.0 5.0 4.0 8.0" fill="url(#gradient15)" fill-rule="evenodd" stroke="none"/>
    <path d="M5.25 25.55 L5.2 25.55 5.2 26.1 -5.2 26.1 -5.2 25.55 -5.25 25.55 -5.25 21.75 5.25 21.75 5.25 25.55" fill="url(#gradient16)" fill-rule="evenodd" stroke="none"/>
    <path d="M5.25 25.55 Q11.45 25.55 17.5 23.2 24.05 20.7 27.95 16.3 L34.0 15.4 Q28.65 22.3 21.85 25.75 15.05 29.2 5.2 30.0 L5.2 26.1 5.2 25.55 5.25 25.55" fill="url(#gradient17)" fill-rule="evenodd" stroke="none"/>
    <path d="M26.45 2.25 L29.0 7.0 13.0 5.0 15.6 0.7 26.45 2.25" fill="url(#gradient18)" fill-rule="evenodd" stroke="none"/>
    <path d="M-13.0 5.0 L-29.0 7.0 -26.45 2.25 -15.6 0.7 -13.0 5.0" fill="url(#gradient19)" fill-rule="evenodd" stroke="none"/>
    <path d="M-5.2 26.1 L-5.2 30.0 Q-15.05 29.2 -21.85 25.75 -28.65 22.3 -34.0 15.4 L-27.95 16.3 Q-24.05 20.7 -17.5 23.2 -11.45 25.55 -5.25 25.55 L-5.2 25.55 -5.2 26.1" fill="url(#gradient20)" fill-rule="evenodd" stroke="none"/>
    <path d="M11.0 -41.0 L16.0 -40.0 Q8.5 -39.15 8.0 -36.0 L-2.0 -36.0 Q-0.4 -37.45 3.9 -39.0 7.9 -40.5 11.0 -41.0" fill="#000000" fill-opacity="0.3019608" fill-rule="evenodd" stroke="none"/>
    <path d="M7.0 -56.0 Q4.65 -52.3 4.85 -47.0 5.05 -41.45 8.0 -36.0 5.9 -34.45 0.75 -34.3 -4.8 -34.15 -8.0 -36.0 -8.05 -41.75 -5.25 -49.75 -2.95 -56.35 -1.0 -59.0 L1.65 -58.7 Q4.75 -58.0 7.0 -56.0" fill="url(#gradient21)" fill-rule="evenodd" stroke="none"/>
    <path d="M3.5 -58.15 Q-1.65 -45.8 -1.75 -34.3 L-2.25 -34.35 Q-2.15 -45.9 3.05 -58.3 L3.5 -58.15" fill="url(#gradient22)" fill-rule="evenodd" stroke="none"/>
    <path d="M-0.15 -58.95 Q-5.45 -46.6 -5.7 -35.1 L-6.2 -35.25 Q-5.9 -46.7 -0.7 -59.0 L-0.15 -58.95" fill="url(#gradient23)" fill-rule="evenodd" stroke="none"/>
    <path d="M6.5 -56.4 Q3.9 -52.2 3.55 -45.4 3.2 -38.7 6.5 -35.4 L5.95 -35.25 Q2.7 -38.7 3.05 -45.45 3.4 -52.6 6.05 -56.75 L6.5 -56.4" fill="url(#gradient24)" fill-rule="evenodd" stroke="none"/>
  </g>
  <defs>
    <radialGradient cx="0" cy="0" fx="332.8" fy="0" gradientTransform="matrix(0.0, -0.0657, 0.0753, 0.0, 0.0, 0.0)" gradientUnits="userSpaceOnUse" id="gradient0" r="819.2" spreadMethod="pad">
      <stop offset="0.21568627450980393" stop-color="#efa236"/>
      <stop offset="0.3764705882352941" stop-color="#ee9b2d"/>
      <stop offset="0.6588235294117647" stop-color="#ce5e13"/>
      <stop offset="0.807843137254902" stop-color="#915111"/>
      <stop offset="0.9137254901960784" stop-color="#a45b13"/>
    </radialGradient>
    <linearGradient gradientTransform="matrix(0.0, -0.0466, 0.0479, 0.0, -20.05, 2.2)" gradientUnits="userSpaceOnUse" id="gradient1" spreadMethod="pad" x1="-819.2" x2="819.2">
      <stop offset="0.0" stop-color="#764310"/>
      <stop offset="0.17254901960784313" stop-color="#ac5013"/>
      <stop offset="0.5333333333333333" stop-color="#e18324"/>
      <stop offset="0.807843137254902" stop-color="#ee9133"/>
      <stop offset="1.0" stop-color="#e37b13"/>
    </linearGradient>
    <linearGradient gradientTransform="matrix(0.0, -0.0466, -0.0479, 0.0, 20.05, 2.2)" gradientUnits="userSpaceOnUse" id="gradient2" spreadMethod="pad" x1="-819.2" x2="819.2">
      <stop offset="0.0" stop-color="#764310"/>
      <stop offset="0.17254901960784313" stop-color="#ac5013"/>
      <stop offset="0.5333333333333333" stop-color="#e18324"/>
      <stop offset="0.807843137254902" stop-color="#ee9133"/>
      <stop offset="1.0" stop-color="#e37b13"/>
    </linearGradient>
    <linearGradient gradientTransform="matrix(-4.0E-4, -0.0478, 0.0466, -4.0E-4, -26.3, 1.2)" gradientUnits="userSpaceOnUse" id="gradient3" spreadMethod="pad" x1="-819.2" x2="819.2">
      <stop offset="0.0" stop-color="#764310"/>
      <stop offset="0.07450980392156863" stop-color="#6a2b0d"/>
      <stop offset="0.43137254901960786" stop-color="#c66f1b"/>
      <stop offset="0.7647058823529411" stop-color="#d76f1a"/>
      <stop offset="1.0" stop-color="#ce7113"/>
    </linearGradient>
    <linearGradient gradientTransform="matrix(0.0, -0.0479, 0.0467, 0.0, 26.25, 1.25)" gradientUnits="userSpaceOnUse" id="gradient4" spreadMethod="pad" x1="-819.2" x2="819.2">
      <stop offset="0.0" stop-color="#764310"/>
      <stop offset="0.07450980392156863" stop-color="#6a2b0d"/>
      <stop offset="0.43137254901960786" stop-color="#c66f1b"/>
      <stop offset="0.7647058823529411" stop-color="#d56f18"/>
      <stop offset="1.0" stop-color="#ce7113"/>
    </linearGradient>
    <linearGradient gradientTransform="matrix(0.0, -0.0473, 0.0479, 0.0, -8.3, 2.75)" gradientUnits="userSpaceOnUse" id="gradient5" spreadMethod="pad" x1="-819.2" x2="819.2">
      <stop offset="0.0" stop-color="#764310"/>
      <stop offset="0.10196078431372549" stop-color="#995411"/>
      <stop offset="0.1803921568627451" stop-color="#d57720"/>
      <stop offset="0.5647058823529412" stop-color="#e9892a"/>
      <stop offset="0.8549019607843137" stop-color="#ecae3e"/>
      <stop offset="1.0" stop-color="#d97717"/>
    </linearGradient>
    <linearGradient gradientTransform="matrix(0.0, -0.0473, -0.0479, 0.0, 8.3, 2.75)" gradientUnits="userSpaceOnUse" id="gradient6" spreadMethod="pad" x1="-819.2" x2="819.2">
      <stop offset="0.0" stop-color="#764310"/>
      <stop offset="0.10196078431372549" stop-color="#995411"/>
      <stop offset="0.1803921568627451" stop-color="#d57720"/>
      <stop offset="0.5647058823529412" stop-color="#e9892a"/>
      <stop offset="0.8549019607843137" stop-color="#ecae3e"/>
      <stop offset="1.0" stop-color="#d97717"/>
    </linearGradient>
    <linearGradient gradientTransform="matrix(0.0, -0.0513, 0.0513, 0.0, 0.0, 0.0)" gradientUnits="userSpaceOnUse" id="gradient7" spreadMethod="pad" x1="-819.2" x2="819.2">
      <stop offset="0.8745098039215686" stop-color="#959595" stop-opacity="0.0"/>
      <stop offset="1.0" stop-color="#232323" stop-opacity="0.3019608"/>
    </linearGradient>
    <radialGradient cx="0" cy="0" gradientTransform="matrix(0.0263, 4.0E-4, -4.0E-4, 0.0334, 0.0, -18.0)" gradientUnits="userSpaceOnUse" id="gradient8" r="819.2" spreadMethod="pad">
      <stop offset="0.0" stop-color="#f0c646" stop-opacity="0.7921569"/>
      <stop offset="0.3764705882352941" stop-color="#f0c646" stop-opacity="0.0"/>
    </radialGradient>
    <radialGradient cx="0" cy="0" fx="-1520.0" fy="0" gradientTransform="matrix(0.0094, -0.0082, 0.0184, 0.0211, 18.0, -22.0)" gradientUnits="userSpaceOnUse" id="gradient9" r="819.2" spreadMethod="pad">
      <stop offset="0.00784313725490196" stop-color="#f0c646" stop-opacity="0.3137255"/>
      <stop offset="0.23137254901960785" stop-color="#f0c646" stop-opacity="0.19215687"/>
      <stop offset="0.4392156862745098" stop-color="#f0c646" stop-opacity="0.0"/>
    </radialGradient>
    <radialGradient cx="0" cy="0" fx="-1520.0" fy="0" gradientTransform="matrix(-0.0094, -0.0082, -0.0184, 0.0211, -18.0, -22.0)" gradientUnits="userSpaceOnUse" id="gradient10" r="819.2" spreadMethod="pad">
      <stop offset="0.00784313725490196" stop-color="#f0c646" stop-opacity="0.3137255"/>
      <stop offset="0.23137254901960785" stop-color="#f0c646" stop-opacity="0.19215687"/>
      <stop offset="0.4392156862745098" stop-color="#f0c646" stop-opacity="0.0"/>
    </radialGradient>
    <radialGradient cx="0" cy="0" gradientTransform="matrix(0.0077, 0.0, 0.0, 0.0077, 0.0, 7.0)" gradientUnits="userSpaceOnUse" id="gradient11" r="819.2" spreadMethod="pad">
      <stop offset="0.26666666666666666" stop-color="#000000"/>
      <stop offset="0.5098039215686274" stop-color="#371500"/>
    </radialGradient>
    <radialGradient cx="0" cy="0" fx="169.60000000000002" fy="0" gradientTransform="matrix(0.0, -0.0328, 0.0515, 0.0, 0.0, 17.15)" gradientUnits="userSpaceOnUse" id="gradient12" r="819.2" spreadMethod="pad">
      <stop offset="0.26666666666666666" stop-color="#000000"/>
      <stop offset="0.8235294117647058" stop-color="#371500"/>
    </radialGradient>
    <radialGradient cx="0" cy="0" gradientTransform="matrix(0.0164, 0.0, 0.0, 0.0164, -16.0, 5.0)" gradientUnits="userSpaceOnUse" id="gradient13" r="819.2" spreadMethod="pad">
      <stop offset="0.08235294117647059" stop-color="#000000"/>
      <stop offset="1.0" stop-color="#150000"/>
    </radialGradient>
    <radialGradient cx="0" cy="0" gradientTransform="matrix(0.0178, 0.0, 0.0, 0.0178, 16.0, 5.0)" gradientUnits="userSpaceOnUse" id="gradient14" r="819.2" spreadMethod="pad">
      <stop offset="0.08235294117647059" stop-color="#000000"/>
      <stop offset="1.0" stop-color="#150000"/>
    </radialGradient>
    <linearGradient gradientTransform="matrix(0.0134, 0.0, 0.0, 0.0037, -1.0, 8.0)" gradientUnits="userSpaceOnUse" id="gradient15" spreadMethod="pad" x1="-819.2" x2="819.2">
      <stop offset="0.0" stop-color="#df932d"/>
      <stop offset="0.5294117647058824" stop-color="#edd66d"/>
      <stop offset="1.0" stop-color="#d68821"/>
    </linearGradient>
    <linearGradient gradientTransform="matrix(0.0128, 0.0, 0.0, 0.0035, 0.95, 26.15)" gradientUnits="userSpaceOnUse" id="gradient16" spreadMethod="pad" x1="-819.2" x2="819.2">
      <stop offset="0.01568627450980392" stop-color="#e8bb6a"/>
      <stop offset="1.0" stop-color="#e8bb6a"/>
    </linearGradient>
    <linearGradient gradientTransform="matrix(-0.0176, 1.0E-4, 0.0, -0.0089, 19.6, 22.7)" gradientUnits="userSpaceOnUse" id="gradient17" spreadMethod="pad" x1="-819.2" x2="819.2">
      <stop offset="0.0" stop-color="#cb821f"/>
      <stop offset="0.9921568627450981" stop-color="#e9bc6b"/>
    </linearGradient>
    <linearGradient gradientTransform="matrix(-0.0134, 0.0, 0.0, 0.0037, 21.0, 7.0)" gradientUnits="userSpaceOnUse" id="gradient18" spreadMethod="pad" x1="-819.2" x2="819.2">
      <stop offset="0.0" stop-color="#cb821f"/>
      <stop offset="0.4980392156862745" stop-color="#e8c96c"/>
    </linearGradient>
    <linearGradient gradientTransform="matrix(0.0134, 0.0, 0.0, 0.0037, -21.0, 7.0)" gradientUnits="userSpaceOnUse" id="gradient19" spreadMethod="pad" x1="-819.2" x2="819.2">
      <stop offset="0.0" stop-color="#cb821f"/>
      <stop offset="0.4980392156862745" stop-color="#e8c96c"/>
    </linearGradient>
    <linearGradient gradientTransform="matrix(0.0176, 1.0E-4, 0.0, -0.0089, -19.6, 22.7)" gradientUnits="userSpaceOnUse" id="gradient20" spreadMethod="pad" x1="-819.2" x2="819.2">
      <stop offset="0.0" stop-color="#cb821f"/>
      <stop offset="0.9921568627450981" stop-color="#e9bc6b"/>
    </linearGradient>
    <radialGradient cx="0" cy="0" gradientTransform="matrix(0.012, 0.0015, -0.0085, 0.0663, -2.0, -38.0)" gradientUnits="userSpaceOnUse" id="gradient21" r="819.2" spreadMethod="pad">
      <stop offset="0.00392156862745098" stop-color="#625415"/>
      <stop offset="0.3176470588235294" stop-color="#4b4510"/>
      <stop offset="0.984313725490196" stop-color="#282209"/>
    </radialGradient>
    <linearGradient gradientTransform="matrix(3.0E-4, -0.0144, 0.0146, 3.0E-4, 0.6, -46.3)" gradientUnits="userSpaceOnUse" id="gradient22" spreadMethod="pad" x1="-819.2" x2="819.2">
      <stop offset="0.043137254901960784" stop-color="#40360d"/>
      <stop offset="0.48627450980392156" stop-color="#614e16"/>
      <stop offset="0.8980392156862745" stop-color="#564514"/>
    </linearGradient>
    <linearGradient gradientTransform="matrix(0.0014, -0.016, 0.0145, 0.0013, -3.2, -47.05)" gradientUnits="userSpaceOnUse" id="gradient23" spreadMethod="pad" x1="-819.2" x2="819.2">
      <stop offset="0.043137254901960784" stop-color="#40360d"/>
      <stop offset="0.48627450980392156" stop-color="#614e16"/>
    </linearGradient>
    <linearGradient gradientTransform="matrix(0.0, -0.0146, 0.0131, 0.0, 4.85, -46.0)" gradientUnits="userSpaceOnUse" id="gradient24" spreadMethod="pad" x1="-819.2" x2="819.2">
      <stop offset="0.023529411764705882" stop-color="#171204"/>
      <stop offset="0.30980392156862746" stop-color="#3f320e"/>
      <stop offset="0.7803921568627451" stop-color="#554515"/>
    </linearGradient>
  </defs>
</svg>
