<?xml version="1.0" encoding="UTF-8" standalone="no"?>
<svg xmlns:xlink="http://www.w3.org/1999/xlink" height="17.0px" width="17.0px" xmlns="http://www.w3.org/2000/svg">
  <g transform="matrix(1.0, 0.0, 0.0, 1.0, 8.5, 8.5)">
    <path d="M5.65 -5.65 Q8.0 -3.3 8.0 0.0 8.0 3.3 5.65 5.65 3.3 8.0 0.0 8.0 -3.3 8.0 -5.65 5.65 -8.0 3.3 -8.0 0.0 -8.0 -3.3 -5.65 -5.65 -3.3 -8.0 0.0 -8.0 3.3 -8.0 5.65 -5.65" fill="url(#gradient0)" fill-rule="evenodd" stroke="none"/>
    <path d="M5.65 -5.65 Q8.0 -3.3 8.0 0.0 8.0 3.3 5.65 5.65 3.3 8.0 0.0 8.0 -3.3 8.0 -5.65 5.65 -8.0 3.3 -8.0 0.0 -8.0 -3.3 -5.65 -5.65 -3.3 -8.0 0.0 -8.0 3.3 -8.0 5.65 -5.65 Z" fill="none" stroke="#82559b" stroke-linecap="round" stroke-linejoin="round" stroke-width="1.0"/>
  </g>
  <defs>
    <radialGradient cx="0" cy="0" gradientTransform="matrix(0.0107, 0.0, 0.0, 0.0107, -0.65, -1.5)" gradientUnits="userSpaceOnUse" id="gradient0" r="819.2" spreadMethod="pad">
      <stop offset="0.0" stop-color="#745c8d"/>
      <stop offset="0.796078431372549" stop-color="#000000"/>
      <stop offset="0.9921568627450981" stop-color="#434752"/>
    </radialGradient>
  </defs>
</svg>
