<?xml version="1.0" encoding="UTF-8" standalone="no"?>
<svg xmlns:xlink="http://www.w3.org/1999/xlink" height="88.0px" width="88.0px" xmlns="http://www.w3.org/2000/svg">
  <g transform="matrix(1.0, 0.0, 0.0, 1.0, 0.0, 0.0)">
    <path d="M86.0 0.0 Q88.0 0.0 88.0 2.0 L88.0 86.0 Q88.0 88.0 86.0 88.0 L2.0 88.0 Q0.0 88.0 0.0 86.0 L0.0 2.0 Q0.0 0.0 2.0 0.0 L86.0 0.0" fill="#57c4df" fill-rule="evenodd" stroke="none"/>
    <path d="M84.0 2.0 Q86.0 2.0 86.0 4.0 L86.0 84.0 Q86.0 86.0 84.0 86.0 L4.0 86.0 Q2.0 86.0 2.0 84.0 L2.0 4.0 Q2.0 2.0 4.0 2.0 L84.0 2.0" fill="#e8e8e8" fill-rule="evenodd" stroke="none"/>
    <path d="M74.0 12.0 Q76.0 12.0 76.0 14.0 L76.0 74.0 Q76.0 76.0 74.0 76.0 L14.0 76.0 Q12.0 76.0 12.0 74.0 L12.0 14.0 Q12.0 12.0 14.0 12.0 L74.0 12.0" fill="#ffffff" fill-rule="evenodd" stroke="none"/>
  </g>
</svg>
