<?xml version="1.0" encoding="UTF-8" standalone="no"?>
<svg xmlns:xlink="http://www.w3.org/1999/xlink" height="53.45px" width="53.35px" xmlns="http://www.w3.org/2000/svg">
  <g transform="matrix(1.0, 0.0, 0.0, 1.0, 1.7, 1.8)">
    <path d="M48.6 -0.55 Q50.65 -1.95 51.35 -1.75 L51.45 -1.65 51.5 -1.65 Q51.9 -1.2 50.65 0.75 49.25 3.05 45.7 7.3 L45.35 7.75 43.45 9.95 37.6 16.45 29.75 24.6 29.6 24.8 29.45 25.0 37.5 33.35 43.1 39.55 44.95 41.65 45.4 42.25 Q48.95 46.4 50.5 48.7 51.45 50.15 51.6 50.85 51.7 51.4 51.45 51.55 51.0 52.0 48.8 50.6 L42.55 45.75 42.05 45.4 39.85 43.45 33.55 37.8 25.4 30.05 25.1 29.8 24.8 29.55 16.9 37.15 10.55 42.9 7.8 45.25 Q3.55 48.9 1.2 50.4 -1.05 51.85 -1.6 51.45 -2.05 50.95 -0.65 48.8 0.85 46.45 4.55 42.05 L4.8 41.75 7.0 39.2 12.3 33.3 19.85 25.5 20.35 24.95 20.2 24.75 12.95 17.15 6.95 10.55 4.6 7.85 4.4 7.6 -0.1 1.85 Q-1.65 -0.25 -1.65 -1.1 L-1.5 -1.55 Q-1.05 -1.95 0.95 -0.7 L7.55 4.4 7.85 4.65 9.85 6.4 16.45 12.35 24.4 19.95 24.6 20.15 24.9 20.35 32.8 12.75 39.25 6.95 41.85 4.7 42.15 4.4 Q46.25 0.95 48.6 -0.55" fill="#cc0000" fill-rule="evenodd" stroke="none"/>
  </g>
</svg>
