<?xml version="1.0" encoding="UTF-8" standalone="no"?>
<svg xmlns:xlink="http://www.w3.org/1999/xlink" height="97.25px" width="97.25px" xmlns="http://www.w3.org/2000/svg">
  <g transform="matrix(1.0, 0.0, 0.0, 1.0, 45.5, 45.5)">
    <path d="M19.05 -3.75 Q20.25 -3.75 21.15 -2.85 L23.95 -0.05 Q24.6 0.6 24.8 1.5 L25.55 5.05 25.45 6.45 24.7 7.7 23.25 9.15 23.95 9.85 Q35.8 21.7 44.8 33.0 47.2 34.5 50.85 38.15 51.75 39.05 51.75 40.25 51.75 41.45 50.85 42.35 L42.35 50.85 Q41.45 51.75 40.25 51.75 39.05 51.75 38.15 50.85 34.5 47.2 33.0 44.8 22.15 36.25 9.85 23.95 L9.15 23.25 7.7 24.7 6.45 25.45 5.05 25.55 1.5 24.8 Q0.6 24.6 -0.05 23.95 L-2.85 21.15 Q-3.75 20.25 -3.75 19.05 -3.75 18.25 -3.4 17.7 L-20.65 -1.25 -20.55 -1.15 Q-31.85 -13.65 -36.2 -20.1 -39.95 -25.55 -42.45 -31.25 -45.85 -38.65 -45.45 -42.65 -45.4 -43.8 -44.6 -44.6 -43.8 -45.4 -42.65 -45.45 -38.65 -45.85 -31.25 -42.45 -25.55 -39.95 -20.1 -36.2 -13.65 -31.85 -1.15 -20.55 L-1.25 -20.65 17.65 -3.35 Q18.25 -3.75 19.05 -3.75" fill="#000000" fill-rule="evenodd" stroke="none"/>
  </g>
</svg>
