<?xml version="1.0" encoding="UTF-8" standalone="no"?>
<svg xmlns:xlink="http://www.w3.org/1999/xlink" height="91.25px" width="91.25px" xmlns="http://www.w3.org/2000/svg">
  <g transform="matrix(1.0, 0.0, 0.0, 1.0, 42.5, 42.5)">
    <path d="M9.15 19.05 L19.05 9.15 21.85 11.95 Q33.7 23.8 42.65 35.05 L35.05 42.65 Q24.25 34.15 11.95 21.85 L9.15 19.05" fill="url(#gradient0)" fill-rule="evenodd" stroke="none"/>
    <path d="M29.3 27.2 Q28.55 27.95 23.9 24.3 19.25 20.65 13.4 14.8 7.5 8.9 3.9 4.3 0.25 -0.35 1.0 -1.1 1.75 -1.85 6.45 1.75 11.05 5.35 16.95 11.25 22.8 17.1 26.45 21.75 30.05 26.45 29.3 27.2" fill="url(#gradient1)" fill-rule="evenodd" stroke="none"/>
    <path d="M9.2 9.2 L0.7 17.7 -18.35 -3.15 Q-29.4 -15.5 -33.75 -21.75 -37.3 -27.0 -39.75 -32.45 -42.65 -38.95 -42.5 -42.5 L9.2 9.2" fill="url(#gradient2)" fill-rule="evenodd" stroke="none"/>
    <path d="M9.2 9.2 L-42.5 -42.5 Q-38.95 -42.65 -32.45 -39.75 -27.0 -37.3 -21.75 -33.75 -15.5 -29.4 -3.15 -18.35 L17.7 0.7 9.2 9.2" fill="url(#gradient3)" fill-rule="evenodd" stroke="none"/>
    <path d="M7.05 21.15 L5.6 22.6 2.05 21.85 -0.75 19.05 2.1 16.2 7.05 21.15" fill="#9a8881" fill-rule="evenodd" stroke="none"/>
    <path d="M48.75 40.25 L44.5 44.5 40.25 48.75 Q36.4 44.9 35.15 42.55 L38.85 38.85 42.55 35.15 Q44.9 36.4 48.75 40.25" fill="url(#gradient4)" fill-rule="evenodd" stroke="none"/>
    <path d="M16.2 2.1 L19.05 -0.75 21.85 2.05 22.6 5.6 21.15 7.05 16.2 2.1" fill="url(#gradient5)" fill-rule="evenodd" stroke="none"/>
    <path d="M16.2 2.1 L21.15 7.05 14.1 14.1 7.05 21.15 2.1 16.2 9.15 9.15 16.2 2.1" fill="url(#gradient6)" fill-rule="evenodd" stroke="none"/>
  </g>
  <defs>
    <linearGradient gradientTransform="matrix(-0.006, 0.006, 0.0151, 0.0151, 26.45, 26.45)" gradientUnits="userSpaceOnUse" id="gradient0" spreadMethod="pad" x1="-819.2" x2="819.2">
      <stop offset="0.0" stop-color="#786d7c"/>
      <stop offset="0.36470588235294116" stop-color="#8e8491"/>
      <stop offset="1.0" stop-color="#655e68"/>
    </linearGradient>
    <radialGradient cx="0" cy="0" gradientTransform="matrix(-0.0019, 0.0019, 0.0159, 0.0159, 13.75, 11.65)" gradientUnits="userSpaceOnUse" id="gradient1" r="819.2" spreadMethod="pad">
      <stop offset="0.0" stop-color="#dfdfdf" stop-opacity="0.5019608"/>
      <stop offset="1.0" stop-color="#cacaca" stop-opacity="0.0"/>
    </radialGradient>
    <linearGradient gradientTransform="matrix(-0.0333, -0.0333, -0.0316, 0.0316, -19.85, -11.35)" gradientUnits="userSpaceOnUse" id="gradient2" spreadMethod="pad" x1="-819.2" x2="819.2">
      <stop offset="0.0" stop-color="#9f9f9f"/>
      <stop offset="1.0" stop-color="#dbdbdb"/>
    </linearGradient>
    <linearGradient gradientTransform="matrix(-0.0316, -0.0316, -0.0316, 0.0316, -12.4, -20.9)" gradientUnits="userSpaceOnUse" id="gradient3" spreadMethod="pad" x1="-819.2" x2="819.2">
      <stop offset="0.0" stop-color="#c6c6c6"/>
      <stop offset="0.5176470588235295" stop-color="#ffffff"/>
      <stop offset="1.0" stop-color="#d0d0d0"/>
    </linearGradient>
    <linearGradient gradientTransform="matrix(-0.0052, 0.0052, 0.0034, 0.0034, 41.65, 41.65)" gradientUnits="userSpaceOnUse" id="gradient4" spreadMethod="pad" x1="-819.2" x2="819.2">
      <stop offset="0.0" stop-color="#928483"/>
      <stop offset="0.3058823529411765" stop-color="#d1cac9"/>
      <stop offset="1.0" stop-color="#877770"/>
    </linearGradient>
    <linearGradient gradientTransform="matrix(-0.0106, 0.0028, 0.0011, 0.0041, 25.05, -1.85)" gradientUnits="userSpaceOnUse" id="gradient5" spreadMethod="pad" x1="-819.2" x2="819.2">
      <stop offset="0.0" stop-color="#aba39a"/>
      <stop offset="1.0" stop-color="#948881"/>
    </linearGradient>
    <linearGradient gradientTransform="matrix(-0.009, -0.0024, -0.0011, 0.0041, 11.6, 11.6)" gradientUnits="userSpaceOnUse" id="gradient6" spreadMethod="pad" x1="-819.2" x2="819.2">
      <stop offset="0.0" stop-color="#9d938c"/>
      <stop offset="1.0" stop-color="#bcb0ad"/>
    </linearGradient>
  </defs>
</svg>
