<?xml version="1.0" encoding="UTF-8" standalone="no"?>
<svg xmlns:xlink="http://www.w3.org/1999/xlink" height="121.65px" width="118.7px" xmlns="http://www.w3.org/2000/svg">
  <g transform="matrix(1.0, 0.0, 0.0, 1.0, 59.3, 59.5)">
    <path d="M22.3 -50.35 L24.85 -39.25 Q25.0 -38.6 24.8 -38.0 L19.8 -20.7 25.05 -33.45 Q25.3 -34.1 25.85 -34.5 L34.45 -40.9 Q35.2 -41.45 36.2 -41.4 37.1 -41.3 37.75 -40.6 38.4 -39.95 38.45 -39.0 L38.85 -28.3 38.55 -26.95 35.85 -22.15 36.55 -23.15 Q36.95 -23.8 37.65 -24.05 L46.9 -27.8 48.65 -27.85 Q49.5 -27.6 50.0 -26.8 50.45 -26.05 50.35 -25.15 L49.0 -15.3 48.4 -14.0 42.85 -7.7 45.9 -10.55 Q46.5 -11.15 47.35 -11.2 L56.65 -12.25 58.25 -11.9 Q58.95 -11.45 59.25 -10.6 59.55 -9.8 59.3 -9.0 L56.3 -0.15 55.35 1.1 20.0 25.7 Q15.3 29.9 11.85 33.7 L11.95 33.6 Q8.1 38.35 7.9 42.55 7.85 44.9 9.0 46.5 L9.0 46.45 Q10.25 48.0 12.45 47.9 L12.5 47.9 Q14.75 47.85 16.15 46.35 16.6 45.8 17.3 45.6 17.95 45.4 18.6 45.6 19.3 45.75 19.8 46.25 L23.8 50.25 Q24.5 50.95 24.5 51.95 24.5 52.95 23.85 53.7 15.05 63.05 6.8 62.05 -1.5 61.25 -7.1 52.35 -9.45 48.7 -11.2 42.1 L-11.25 42.0 -12.95 34.85 Q-13.55 33.0 -15.35 30.55 -17.5 27.6 -19.95 25.7 L-55.2 1.15 -56.15 -0.1 -59.15 -8.95 Q-59.45 -9.75 -59.15 -10.55 -58.85 -11.4 -58.1 -11.85 -57.4 -12.35 -56.5 -12.2 L-47.2 -11.15 Q-46.4 -11.1 -45.8 -10.5 L-42.75 -7.65 -48.25 -13.95 Q-48.75 -14.5 -48.85 -15.25 L-50.2 -25.1 Q-50.35 -26.0 -49.85 -26.75 -49.4 -27.55 -48.5 -27.8 L-46.8 -27.75 -37.55 -24.0 Q-36.85 -23.75 -36.4 -23.1 L-35.75 -22.1 -38.4 -26.9 Q-38.75 -27.55 -38.75 -28.25 L-38.35 -38.9 Q-38.3 -39.85 -37.65 -40.5 -37.0 -41.2 -36.05 -41.3 -35.15 -41.35 -34.35 -40.8 L-25.75 -34.45 -24.9 -33.4 -19.9 -21.2 -24.75 -37.9 Q-24.95 -38.5 -24.75 -39.15 L-22.2 -50.25 Q-22.0 -51.2 -21.2 -51.75 -20.4 -52.3 -19.45 -52.15 -18.5 -52.05 -17.85 -51.25 L-10.7 -42.45 Q-10.3 -41.95 -10.2 -41.3 L-6.1 -18.15 -7.5 -45.85 Q-7.55 -46.5 -7.25 -47.0 L-2.25 -58.0 Q-1.85 -58.95 -0.9 -59.3 0.0 -59.7 0.95 -59.3 1.85 -58.95 2.3 -58.0 L7.3 -47.0 7.5 -45.85 6.1 -17.85 10.25 -41.4 Q10.35 -42.05 10.75 -42.55 L17.9 -51.35 Q18.55 -52.15 19.5 -52.25 20.45 -52.4 21.25 -51.85 22.05 -51.3 22.3 -50.35" fill="#000000" fill-rule="evenodd" stroke="none"/>
    <path d="M36.35 -28.2 L11.25 16.95 9.45 16.1 7.7 15.25 27.35 -32.5 35.95 -38.9 36.35 -28.2 M46.5 -15.65 L15.1 19.85 13.5 18.65 11.9 17.4 38.6 -21.75 47.85 -25.5 46.5 -15.65 M53.9 -0.95 L18.45 23.7 17.2 22.15 15.95 20.6 47.6 -8.75 56.9 -9.8 53.9 -0.95 M0.0 -57.0 L5.0 -46.0 2.0 14.0 0.0 14.0 -2.0 14.0 -5.0 -46.0 0.0 -57.0 M22.4 -38.7 L6.9 14.95 4.95 14.5 3.0 14.05 12.7 -41.0 19.85 -49.8 22.4 -38.7 M-19.8 -49.7 L-12.65 -40.9 -2.95 14.1 -4.9 14.55 -6.85 15.0 -22.35 -38.6 -19.8 -49.7 M-35.85 -38.8 L-27.25 -32.45 -7.65 15.3 -9.4 16.15 -11.2 17.0 -36.25 -28.15 -35.85 -38.8 M-46.4 -15.6 L-47.75 -25.45 -38.5 -21.7 -11.85 17.45 -13.45 18.7 -15.05 19.9 -46.4 -15.6 M-53.8 -0.9 L-56.8 -9.75 -47.5 -8.7 -15.9 20.65 -17.15 22.2 -18.4 23.75 -53.8 -0.9" fill="url(#gradient0)" fill-rule="evenodd" stroke="none"/>
    <path d="M18.45 23.7 Q13.55 28.1 10.0 32.0 5.55 37.55 5.4 42.45 5.3 45.75 7.0 48.0 9.0 50.55 12.55 50.4 15.9 50.3 18.0 48.0 L22.0 52.0 Q14.25 60.25 7.05 59.55 -0.1 58.8 -5.0 51.0 -7.15 47.6 -8.8 41.45 L-10.55 34.1 Q-11.2 31.95 -13.35 29.05 -15.75 25.75 -18.6 23.6 -10.85 13.3 0.9 13.65 12.3 14.0 18.45 23.7" fill="url(#gradient1)" fill-rule="evenodd" stroke="none"/>
    <path d="M6.75 47.65 L6.75 47.85 Q6.55 50.65 8.3 53.9 10.2 57.45 12.95 58.4 L12.9 58.4 13.15 58.5 13.3 58.5 12.2 58.95 12.05 58.85 Q9.5 57.65 7.65 54.25 5.55 50.35 6.05 47.05 L6.1 46.75 6.15 46.55 6.75 47.65 M10.3 31.6 L10.45 31.55 10.0 32.0 8.65 33.8 8.35 34.1 Q3.6 38.35 2.2 45.2 0.45 53.55 5.9 59.1 L6.1 59.3 6.25 59.45 4.9 59.15 4.75 59.0 Q-0.25 53.35 1.45 45.05 3.1 36.95 9.35 32.3 L10.05 31.75 10.3 31.6 M15.85 20.4 L15.8 20.4 Q9.85 24.35 6.25 27.85 1.75 32.25 -0.65 37.35 -5.25 47.3 -1.95 54.45 L-1.6 55.15 -1.4 55.5 -3.1 53.65 -3.2 53.35 Q-5.7 46.35 -1.35 37.05 1.1 31.8 5.55 27.45 9.2 23.85 15.3 19.85 L15.4 19.8 15.9 20.35 15.85 20.4 M18.85 55.05 L18.7 55.05 Q16.8 54.9 14.65 53.8 12.05 52.45 10.95 50.55 L10.85 50.45 10.8 50.3 11.75 50.4 11.85 50.55 Q12.9 52.0 15.0 53.15 17.3 54.3 19.3 54.3 L19.55 54.25 19.75 54.25 18.85 55.05 M-14.5 21.5 L-14.25 21.35 -13.95 21.4 Q-9.8 24.65 -8.75 33.4 L-8.15 42.4 -8.15 43.35 -8.1 43.75 -8.8 41.45 -8.95 40.65 -9.0 39.9 -9.5 33.5 Q-10.5 25.15 -14.4 22.0 L-14.55 21.75 -14.5 21.5 M-10.6 18.7 L-10.35 18.65 Q-10.2 18.65 -10.1 18.8 -5.55 24.35 -6.3 35.2 L-6.9 43.05 Q-6.95 45.1 -6.65 46.8 L-6.35 48.15 -5.9 49.35 -5.85 49.4 -5.85 49.45 -5.8 49.5 -5.75 49.7 -7.6 45.3 -7.65 44.85 -7.65 43.0 -7.05 35.15 Q-6.35 24.65 -10.7 19.25 L-10.75 18.95 -10.6 18.7" fill="url(#gradient2)" fill-rule="evenodd" stroke="none"/>
    <path d="M20.25 53.8 L16.05 49.5 17.95 47.7 22.15 52.0 20.25 53.8" fill="#000000" fill-opacity="0.3019608" fill-rule="evenodd" stroke="none"/>
  </g>
  <defs>
    <radialGradient cx="0" cy="0" gradientTransform="matrix(0.0754, 0.0, 0.0, 0.0937, 0.0, 19.75)" gradientUnits="userSpaceOnUse" id="gradient0" r="819.2" spreadMethod="pad">
      <stop offset="0.0" stop-color="#edd667"/>
      <stop offset="0.6588235294117647" stop-color="#a58c1b"/>
      <stop offset="0.8862745098039215" stop-color="#e6d751"/>
    </radialGradient>
    <linearGradient gradientTransform="matrix(-0.001, -0.0256, 0.0283, -0.0011, 3.5, 40.15)" gradientUnits="userSpaceOnUse" id="gradient1" spreadMethod="pad" x1="-819.2" x2="819.2">
      <stop offset="0.0" stop-color="#987d2e"/>
      <stop offset="0.3411764705882353" stop-color="#b79d2b"/>
      <stop offset="0.8862745098039215" stop-color="#d5b937"/>
    </linearGradient>
    <linearGradient gradientTransform="matrix(-0.0079, -0.0275, 0.0262, -0.0075, 3.2, 37.95)" gradientUnits="userSpaceOnUse" id="gradient2" spreadMethod="pad" x1="-819.2" x2="819.2">
      <stop offset="0.0" stop-color="#5c401b" stop-opacity="0.44313726"/>
      <stop offset="1.0" stop-color="#000000" stop-opacity="0.0"/>
    </linearGradient>
  </defs>
</svg>
