<?xml version="1.0" encoding="UTF-8" standalone="no"?>
<svg xmlns:xlink="http://www.w3.org/1999/xlink" height="62.0px" width="15.0px" xmlns="http://www.w3.org/2000/svg">
  <g transform="matrix(1.0, 0.0, 0.0, 1.0, 7.5, 32.5)">
    <path d="M6.3 -31.0 Q6.6 -30.3 6.5 -29.6 L5.5 -23.75 5.5 -22.5 5.7 -22.3 Q6.5 -21.3 6.5 -20.0 6.5 -18.7 5.7 -17.7 L5.5 -17.5 5.5 12.6 7.4 18.2 Q7.6 18.9 7.45 19.6 7.25 20.3 6.75 20.8 5.8 21.75 5.55 22.75 L6.4 25.2 6.5 26.0 6.5 27.0 Q6.5 28.05 5.8 28.8 5.05 29.5 4.0 29.5 L4.0 27.0 -4.0 27.0 -4.0 29.5 Q-5.05 29.5 -5.75 28.8 -6.5 28.05 -6.5 27.0 L-6.5 26.0 -6.35 25.2 -5.55 22.75 Q-5.75 21.75 -6.75 20.8 -7.25 20.3 -7.4 19.6 -7.6 18.9 -7.35 18.2 L-5.5 12.6 -5.5 -17.5 -5.65 -17.7 Q-6.5 -18.7 -6.5 -20.0 -6.5 -21.3 -5.65 -22.3 L-5.5 -22.5 -5.5 -23.75 -6.45 -29.6 -6.3 -31.0 -5.35 -32.1 Q-4.75 -32.5 -4.0 -32.5 L4.0 -32.5 5.4 -32.1 6.3 -31.0" fill="#000000" fill-rule="evenodd" stroke="none"/>
    <path d="M-4.0 26.0 L-3.0 23.0 3.0 23.0 4.0 26.0 -4.0 26.0" fill="url(#gradient0)" fill-rule="evenodd" stroke="none"/>
    <path d="M4.0 26.0 L4.0 27.0 -4.0 27.0 -4.0 26.0 4.0 26.0" fill="url(#gradient1)" fill-rule="evenodd" stroke="none"/>
    <path d="M3.0 -16.0 L3.0 10.0 -3.0 10.0 -3.0 -16.0 3.0 -16.0" fill="url(#gradient2)" fill-rule="evenodd" stroke="none"/>
    <path d="M3.0 -19.0 L3.0 -16.0 -3.0 -16.0 -3.0 -19.0 3.0 -19.0 M-3.0 -21.0 L-3.0 -23.0 3.0 -23.0 3.0 -21.0 -3.0 -21.0 M-3.0 13.0 L-3.0 10.0 3.0 10.0 3.0 13.0 -3.0 13.0" fill="url(#gradient3)" fill-rule="evenodd" stroke="none"/>
    <path d="M-3.0 -19.0 L-3.2 -19.0 -3.75 -19.3 -4.0 -20.0 -3.75 -20.7 -3.2 -21.0 -3.0 -21.0 3.0 -21.0 3.2 -21.0 3.75 -20.7 4.0 -20.0 3.75 -19.3 3.2 -19.0 3.0 -19.0 -3.0 -19.0" fill="url(#gradient4)" fill-rule="evenodd" stroke="none"/>
    <path d="M-3.0 -23.0 L-4.0 -30.0 4.0 -30.0 3.0 -23.0 -3.0 -23.0 M5.0 19.0 Q3.05 20.9 3.0 23.0 L0.0 23.0 -3.0 23.0 Q-3.05 20.9 -5.0 19.0 L5.0 19.0" fill="url(#gradient5)" fill-rule="evenodd" stroke="none"/>
    <path d="M-5.0 19.0 L-4.0 16.0 -3.0 13.0 3.0 13.0 4.0 16.0 5.0 19.0 -5.0 19.0" fill="url(#gradient6)" fill-rule="evenodd" stroke="none"/>
    <path d="M3.0 -23.0 L-3.0 -23.0 -3.0 -24.0 3.0 -24.0 3.0 -23.0 M3.0 -21.0 L-3.0 -21.0 -3.0 -22.0 3.0 -22.0 3.0 -21.0 M3.0 -18.0 L-3.0 -18.0 -3.0 -19.0 3.0 -19.0 3.0 -18.0 M3.0 -15.0 L-3.0 -15.0 -3.0 -16.0 3.0 -16.0 3.0 -15.0 M-3.0 9.0 L3.0 9.0 3.0 10.0 -3.0 10.0 -3.0 9.0 M-4.0 14.0 L4.0 14.0 4.0 15.0 -4.0 15.0 -4.0 14.0" fill="#000000" fill-opacity="0.2" fill-rule="evenodd" stroke="none"/>
    <path d="M-5.0 19.0 L5.0 19.0 4.0 21.0 -4.0 21.0 -5.0 19.0" fill="url(#gradient7)" fill-rule="evenodd" stroke="none"/>
  </g>
  <defs>
    <linearGradient gradientTransform="matrix(0.0049, 0.0, 0.0, 0.0018, 0.0, 24.5)" gradientUnits="userSpaceOnUse" id="gradient0" spreadMethod="pad" x1="-819.2" x2="819.2">
      <stop offset="0.0" stop-color="#8a7a4a"/>
      <stop offset="0.4980392156862745" stop-color="#ccbf88"/>
      <stop offset="1.0" stop-color="#8a7a4a"/>
    </linearGradient>
    <linearGradient gradientTransform="matrix(0.0049, 0.0, 0.0, 6.0E-4, 0.0, 26.5)" gradientUnits="userSpaceOnUse" id="gradient1" spreadMethod="pad" x1="-819.2" x2="819.2">
      <stop offset="0.0" stop-color="#a58f52"/>
      <stop offset="0.5019607843137255" stop-color="#dacd96"/>
      <stop offset="1.0" stop-color="#a58f52"/>
    </linearGradient>
    <linearGradient gradientTransform="matrix(0.0037, 0.0, 0.0, 0.0177, 0.0, -1.5)" gradientUnits="userSpaceOnUse" id="gradient2" spreadMethod="pad" x1="-819.2" x2="819.2">
      <stop offset="0.0" stop-color="#790d0d"/>
      <stop offset="0.5411764705882353" stop-color="#f10e0e"/>
      <stop offset="1.0" stop-color="#790d0d"/>
    </linearGradient>
    <linearGradient gradientTransform="matrix(0.0037, 0.0, 0.0, 0.0177, 0.0, -1.5)" gradientUnits="userSpaceOnUse" id="gradient3" spreadMethod="pad" x1="-819.2" x2="819.2">
      <stop offset="0.0" stop-color="#595151"/>
      <stop offset="0.5098039215686274" stop-color="#9a8f8f"/>
      <stop offset="1.0" stop-color="#595151"/>
    </linearGradient>
    <linearGradient gradientTransform="matrix(0.0049, 0.0, 0.0, 0.0012, 0.0, -20.0)" gradientUnits="userSpaceOnUse" id="gradient4" spreadMethod="pad" x1="-819.2" x2="819.2">
      <stop offset="0.0" stop-color="#595151"/>
      <stop offset="0.4196078431372549" stop-color="#a79e9e"/>
      <stop offset="0.6274509803921569" stop-color="#a79e9e"/>
      <stop offset="1.0" stop-color="#595151"/>
    </linearGradient>
    <linearGradient gradientTransform="matrix(0.0049, 0.0, 0.0, 0.0037, 0.0, -27.0)" gradientUnits="userSpaceOnUse" id="gradient5" spreadMethod="pad" x1="-819.2" x2="819.2">
      <stop offset="0.0" stop-color="#595151"/>
      <stop offset="0.43529411764705883" stop-color="#a49b9b"/>
      <stop offset="0.5647058823529412" stop-color="#a49b9b"/>
      <stop offset="1.0" stop-color="#595151"/>
    </linearGradient>
    <linearGradient gradientTransform="matrix(0.0056, 0.0, 0.0, 0.0037, 0.0, -27.0)" gradientUnits="userSpaceOnUse" id="gradient6" spreadMethod="pad" x1="-819.2" x2="819.2">
      <stop offset="0.0" stop-color="#595151"/>
      <stop offset="0.43529411764705883" stop-color="#a49b9b"/>
      <stop offset="0.5647058823529412" stop-color="#a49b9b"/>
      <stop offset="1.0" stop-color="#595151"/>
    </linearGradient>
    <linearGradient gradientTransform="matrix(0.0, 0.0012, -0.0012, 0.0, 0.0, 20.0)" gradientUnits="userSpaceOnUse" id="gradient7" spreadMethod="pad" x1="-819.2" x2="819.2">
      <stop offset="0.0" stop-color="#000000" stop-opacity="0.3019608"/>
      <stop offset="0.9607843137254902" stop-color="#000000" stop-opacity="0.0"/>
    </linearGradient>
  </defs>
</svg>
