<?xml version="1.0" encoding="UTF-8" standalone="no"?>
<svg xmlns:xlink="http://www.w3.org/1999/xlink" height="26.5px" width="521.0px" xmlns="http://www.w3.org/2000/svg">
  <g transform="matrix(1.0, 0.0, 0.0, 1.0, 260.5, 20.55)">
    <path d="M0.0 -18.55 Q-119.3 -18.55 -203.8 -8.0 -237.1 -3.85 -257.35 1.0 -257.95 1.15 -258.3 1.7 -258.6 2.2 -258.45 2.8 L-257.8 3.75 -256.65 3.9 Q-236.5 -0.85 -203.45 -5.0 -119.05 -15.5 0.0 -15.55 119.05 -15.5 203.45 -5.0 236.5 -0.85 256.65 3.9 L257.8 3.75 258.45 2.8 Q258.6 2.2 258.3 1.7 257.95 1.15 257.35 1.0 237.1 -3.85 203.8 -8.0 119.3 -18.55 0.0 -18.55 Z" fill="none" stroke="#000000" stroke-linecap="round" stroke-linejoin="round" stroke-width="4.0"/>
    <path d="M0.0 -18.55 Q119.3 -18.55 203.8 -8.0 237.1 -3.85 257.35 1.0 257.95 1.15 258.3 1.7 258.6 2.2 258.45 2.8 L257.8 3.75 256.65 3.9 Q236.5 -0.85 203.45 -5.0 119.05 -15.5 0.0 -15.55 -119.05 -15.5 -203.45 -5.0 -236.5 -0.85 -256.65 3.9 L-257.8 3.75 -258.45 2.8 Q-258.6 2.2 -258.3 1.7 -257.95 1.15 -257.35 1.0 -237.1 -3.85 -203.8 -8.0 -119.3 -18.55 0.0 -18.55" fill="url(#gradient0)" fill-rule="evenodd" stroke="none"/>
  </g>
  <defs>
    <linearGradient gradientTransform="matrix(0.3162, 0.0, 0.0, 0.011, -1.0, 4.95)" gradientUnits="userSpaceOnUse" id="gradient0" spreadMethod="pad" x1="-819.2" x2="819.2">
      <stop offset="0.0" stop-color="#959595"/>
      <stop offset="0.19607843137254902" stop-color="#ffffff"/>
      <stop offset="0.5058823529411764" stop-color="#ffffff"/>
      <stop offset="0.8274509803921568" stop-color="#ffffff"/>
      <stop offset="1.0" stop-color="#959595"/>
    </linearGradient>
  </defs>
</svg>
