<?xml version="1.0" encoding="UTF-8" standalone="no"?>
<svg xmlns:xlink="http://www.w3.org/1999/xlink" height="50.05px" width="50.05px" xmlns="http://www.w3.org/2000/svg">
  <g transform="matrix(1.0, 0.0, 0.0, 1.0, 0.05, 0.1)">
    <path d="M49.75 -0.05 L49.85 -0.05 49.95 0.15 Q50.15 0.65 49.2 2.15 L48.9 2.65 Q47.6 4.7 44.7 8.2 L44.25 8.75 44.05 8.95 42.5 10.75 42.15 11.1 37.05 16.85 36.5 17.5 29.7 24.55 29.55 24.75 29.35 24.95 29.35 25.05 29.5 25.15 36.85 32.85 37.15 33.2 42.05 38.65 42.6 39.3 43.75 40.6 44.15 41.1 44.35 41.3 Q47.35 44.85 48.75 46.95 L49.5 48.1 49.85 48.95 49.9 49.65 49.55 49.9 48.9 49.8 47.75 49.3 46.45 48.5 41.75 44.85 41.2 44.4 40.85 44.05 39.15 42.6 38.45 41.95 33.15 37.25 32.5 36.7 25.5 30.0 25.25 29.8 25.0 29.55 24.85 29.6 24.65 29.6 17.65 36.35 16.9 37.0 11.6 41.8 11.2 42.1 8.95 44.0 8.7 44.2 2.85 48.8 2.55 49.0 Q0.75 50.1 0.2 49.9 L0.0 49.7 Q-0.25 49.15 0.85 47.4 L0.95 47.2 Q2.35 45.05 5.7 41.05 L5.8 40.95 6.1 40.65 7.75 38.7 8.05 38.3 12.7 33.1 13.0 32.75 19.7 25.8 20.15 25.35 20.4 25.1 20.4 24.85 20.25 24.7 13.7 17.8 13.5 17.6 8.2 11.65 7.95 11.4 5.75 8.9 5.6 8.7 1.4 3.3 Q0.0 1.3 0.0 0.5 0.0 0.25 0.15 0.1 0.65 -0.3 2.5 0.85 L2.6 0.95 Q4.75 2.3 8.65 5.6 L8.9 5.85 10.8 7.5 11.05 7.75 17.0 13.05 17.1 13.15 24.5 20.15 24.6 20.25 24.75 20.4 24.8 20.45 25.0 20.4 32.35 13.35 32.8 12.95 38.4 7.95 38.75 7.6 40.7 6.0 41.0 5.75 41.25 5.5 47.0 1.05 47.4 0.8 Q49.0 -0.2 49.65 -0.1 L49.75 -0.05" fill="#cc0000" fill-rule="evenodd" stroke="none"/>
  </g>
</svg>
