<?xml version="1.0" encoding="UTF-8" standalone="no"?>
<svg xmlns:xlink="http://www.w3.org/1999/xlink" height="49.0px" width="17.0px" xmlns="http://www.w3.org/2000/svg">
  <g transform="matrix(1.0, 0.0, 0.0, 1.0, 8.5, 24.5)">
    <path d="M4.8 -13.6 Q8.0 -4.6 8.0 0.0 8.0 4.6 4.8 13.6 1.8 21.95 0.0 24.0 -1.7 22.1 -4.7 13.7 -8.0 4.55 -8.0 0.0 -8.0 -4.55 -4.7 -13.7 -1.7 -22.1 0.0 -24.0 1.8 -21.95 4.8 -13.6" fill="#ffffff" fill-rule="evenodd" stroke="none"/>
    <path d="M4.8 -13.6 Q8.0 -4.6 8.0 0.0 8.0 4.6 4.8 13.6 1.8 21.95 0.0 24.0 -1.7 22.1 -4.7 13.7 -8.0 4.55 -8.0 0.0 -8.0 -4.55 -4.7 -13.7 -1.7 -22.1 0.0 -24.0 1.8 -21.95 4.8 -13.6 Z" fill="none" stroke="#fdddb3" stroke-linecap="round" stroke-linejoin="round" stroke-width="1.0"/>
  </g>
</svg>
