<?xml version="1.0" encoding="UTF-8" standalone="no"?>
<svg xmlns:xlink="http://www.w3.org/1999/xlink" height="401.0px" width="3.2px" xmlns="http://www.w3.org/2000/svg">
  <g transform="matrix(1.0, 0.0, 0.0, 1.0, 1.6, 200.5)">
    <path d="M0.8 -141.45 L1.1 0.0 0.8 141.4 Q0.45 200.0 0.0 200.0 -0.45 200.0 -0.8 141.4 L-1.1 0.0 -0.8 -141.45 Q-0.45 -200.0 0.0 -200.0 0.45 -200.0 0.8 -141.45" fill="url(#gradient0)" fill-rule="evenodd" stroke="none"/>
    <path d="M0.8 -141.45 L1.1 0.0 0.8 141.4 Q0.45 200.0 0.0 200.0 -0.45 200.0 -0.8 141.4 L-1.1 0.0 -0.8 -141.45 Q-0.45 -200.0 0.0 -200.0 0.45 -200.0 0.8 -141.45 Z" fill="none" stroke="url(#gradient1)" stroke-linecap="round" stroke-linejoin="round" stroke-width="1.0"/>
  </g>
  <defs>
    <radialGradient cx="0" cy="0" gradientTransform="matrix(0.2585, 0.0, 0.0, 0.2585, 0.0, -10.5)" gradientUnits="userSpaceOnUse" id="gradient0" r="819.2" spreadMethod="pad">
      <stop offset="0.0" stop-color="#fdc1c1"/>
      <stop offset="0.44313725490196076" stop-color="#fa6161"/>
      <stop offset="1.0" stop-color="#c50707"/>
    </radialGradient>
    <radialGradient cx="0" cy="0" gradientTransform="matrix(0.2463, 0.0, 0.0, 0.2463, 0.0, 0.0)" gradientUnits="userSpaceOnUse" id="gradient1" r="819.2" spreadMethod="pad">
      <stop offset="0.0" stop-color="#fbb1a6"/>
      <stop offset="0.44313725490196076" stop-color="#f9835b"/>
      <stop offset="1.0" stop-color="#c50707"/>
    </radialGradient>
  </defs>
</svg>
