<?xml version="1.0" encoding="UTF-8" standalone="no"?>
<svg xmlns:xlink="http://www.w3.org/1999/xlink" height="144.0px" width="42.0px" xmlns="http://www.w3.org/2000/svg">
  <g transform="matrix(1.0, 0.0, 0.0, 1.0, 21.0, 69.0)">
    <path d="M2.0 58.0 L2.0 59.0 -2.0 59.0 -2.0 58.0 2.0 58.0" fill="url(#gradient0)" fill-rule="evenodd" stroke="none"/>
    <path d="M2.55 48.0 L2.3 49.1 Q2.0 51.2 2.0 58.0 L-2.0 58.0 Q-2.0 51.2 -2.3 49.1 L-2.5 48.0 2.55 48.0 M2.0 59.0 L2.0 62.0 -2.0 62.0 -2.0 59.0 2.0 59.0 M2.0 64.0 L2.0 66.0 -2.0 66.0 -2.0 64.0 2.0 64.0" fill="url(#gradient1)" fill-rule="evenodd" stroke="none"/>
    <path d="M-2.5 48.0 Q-3.0 46.45 -4.0 46.0 L4.0 46.0 Q3.0 46.45 2.55 48.0 L-2.5 48.0" fill="url(#gradient2)" fill-rule="evenodd" stroke="none"/>
    <path d="M-4.0 46.0 L-4.0 45.0 4.0 45.0 4.0 46.0 -4.0 46.0" fill="url(#gradient3)" fill-rule="evenodd" stroke="none"/>
    <path d="M2.0 66.0 Q2.45 69.6 4.0 72.0 L-4.0 72.0 Q-2.45 69.6 -2.0 66.0 L2.0 66.0" fill="url(#gradient4)" fill-rule="evenodd" stroke="none"/>
    <path d="M4.0 72.0 L3.0 73.0 2.0 73.0 -2.0 73.0 -3.0 73.0 -4.0 72.0 4.0 72.0" fill="url(#gradient5)" fill-rule="evenodd" stroke="none"/>
    <path d="M2.0 62.0 Q2.4 62.0 2.7 62.3 L3.0 63.0 2.7 63.7 2.0 64.0 -2.0 64.0 -2.7 63.7 -3.0 63.0 -2.7 62.3 Q-2.4 62.0 -2.0 62.0 L2.0 62.0" fill="url(#gradient6)" fill-rule="evenodd" stroke="none"/>
    <path d="M2.0 73.0 L2.0 74.0 1.4 74.7 0.0 75.0 -1.45 74.7 Q-2.0 74.4 -2.0 74.0 L-2.0 73.0 2.0 73.0" fill="url(#gradient7)" fill-rule="evenodd" stroke="none"/>
    <path d="M2.0 -23.0 L2.0 45.0 -2.0 45.0 -2.0 -23.0 2.0 -23.0" fill="url(#gradient8)" fill-rule="evenodd" stroke="none"/>
    <path d="M-5.0 -37.0 L5.0 -37.0 6.0 -37.0 Q6.45 -36.65 5.8 -36.3 L4.0 -35.0 0.0 -35.0 -4.0 -35.0 -5.8 -36.3 Q-6.45 -36.65 -6.0 -37.0 L-5.0 -37.0" fill="url(#gradient9)" fill-rule="evenodd" stroke="none"/>
    <path d="M4.0 -35.0 Q2.7 -33.35 3.0 -28.0 L-3.0 -28.0 Q-2.7 -33.35 -4.0 -35.0 L0.0 -35.0 4.0 -35.0" fill="url(#gradient10)" fill-rule="evenodd" stroke="none"/>
    <path d="M2.0 -27.0 L2.0 -23.0 -2.0 -23.0 -2.0 -27.0 2.0 -27.0" fill="url(#gradient11)" fill-rule="evenodd" stroke="none"/>
    <path d="M3.0 -28.0 L2.4 -27.55 2.0 -27.0 -2.0 -27.0 -2.4 -27.55 -3.0 -28.0 3.0 -28.0" fill="url(#gradient12)" fill-rule="evenodd" stroke="none"/>
    <path d="M-5.0 -37.0 Q-3.3 -38.3 -3.0 -40.0 -2.95 -41.45 -4.0 -42.0 L0.0 -42.0 4.0 -42.0 Q2.95 -41.45 3.0 -40.0 3.3 -38.3 5.0 -37.0 L-5.0 -37.0" fill="url(#gradient13)" fill-rule="evenodd" stroke="none"/>
    <path d="M4.95 -52.95 Q7.0 -50.9 7.0 -48.0 L7.0 -43.0 -7.0 -43.0 -7.0 -48.0 Q-7.0 -50.9 -4.95 -52.95 -2.9 -55.0 0.0 -55.0 2.9 -55.0 4.95 -52.95" fill="url(#gradient14)" fill-rule="evenodd" stroke="none"/>
    <path d="M4.0 -35.0 L4.0 -34.0 -4.0 -34.0 -4.0 -35.0 4.0 -35.0 M5.0 -38.0 L5.0 -37.0 -5.0 -37.0 -5.0 -38.0 5.0 -38.0 M2.0 -23.0 L2.0 -22.0 -2.0 -22.0 -2.0 -23.0 2.0 -23.0 M0.0 -55.5 Q3.1 -55.5 5.3 -53.3 7.5 -51.1 7.5 -48.0 L7.5 -44.0 7.45 -43.0 6.5 -43.0 6.5 -48.0 Q6.5 -50.7 4.6 -52.6 2.7 -54.5 0.0 -54.5 -2.7 -54.5 -4.6 -52.6 -6.5 -50.7 -6.5 -48.0 L-6.5 -43.0 -7.45 -43.0 -7.5 -44.0 -7.5 -48.0 Q-7.5 -51.1 -5.3 -53.3 -3.1 -55.5 0.0 -55.5 M-2.0 74.0 L-2.0 73.0 2.0 73.0 2.0 74.0 -2.0 74.0 M-2.0 65.0 L-2.0 64.0 2.0 64.0 2.0 65.0 -2.0 65.0 M-2.0 62.0 L-2.0 61.0 2.0 61.0 2.0 62.0 -2.0 62.0 M-2.0 60.0 L-2.0 59.0 2.0 59.0 2.0 60.0 -2.0 60.0 M-2.0 58.0 L-2.0 57.0 2.0 57.0 2.0 58.0 -2.0 58.0" fill="#000000" fill-opacity="0.15294118" fill-rule="evenodd" stroke="none"/>
    <path d="M4.0 -42.0 L4.0 -41.0 -4.0 -41.0 -4.0 -42.0 4.0 -42.0" fill="#000000" fill-opacity="0.2509804" fill-rule="evenodd" stroke="none"/>
    <path d="M5.0 -48.0 L5.0 -42.0 -5.0 -42.0 -5.0 -48.0 5.0 -48.0" fill="url(#gradient15)" fill-rule="evenodd" stroke="none"/>
    <path d="M-5.0 -48.0 Q-5.0 -50.0 -3.55 -51.55 -2.0 -53.0 0.0 -53.0 2.05 -53.0 3.5 -51.55 5.0 -50.05 5.0 -48.0 L-5.0 -48.0" fill="url(#gradient16)" fill-rule="evenodd" stroke="none"/>
    <path d="M0.0 -62.45 L12.0 -62.0 12.0 -40.0 7.0 -43.0 7.0 -48.0 Q7.0 -50.9 4.95 -52.95 2.9 -55.0 0.0 -55.0 -2.9 -55.0 -4.95 -52.95 -7.0 -50.9 -7.0 -48.0 L-7.0 -43.0 -12.0 -40.0 -12.0 -62.0 0.0 -62.45" fill="url(#gradient17)" fill-rule="evenodd" stroke="none"/>
    <path d="M0.0 -60.0 Q-5.0 -60.0 -8.5 -56.5 -12.0 -53.0 -12.0 -48.0 L-12.0 -40.0 -21.0 -40.0 -21.0 -49.0 -20.95 -49.0 Q-20.65 -57.05 -14.85 -62.85 -8.7 -69.0 0.0 -69.0 8.7 -69.0 14.85 -62.85 20.6 -57.1 21.0 -49.0 L21.0 -40.0 12.0 -40.0 12.0 -48.0 Q12.0 -53.0 8.5 -56.5 5.0 -60.0 0.0 -60.0" fill="url(#gradient18)" fill-rule="evenodd" stroke="none"/>
  </g>
  <defs>
    <linearGradient gradientTransform="matrix(0.0024, 0.0, 0.0, 6.0E-4, 0.0, 58.5)" gradientUnits="userSpaceOnUse" id="gradient0" spreadMethod="pad" x1="-819.2" x2="819.2">
      <stop offset="0.0" stop-color="#838383"/>
      <stop offset="0.38823529411764707" stop-color="#c2c2c2"/>
      <stop offset="0.6078431372549019" stop-color="#c2c2c2"/>
      <stop offset="1.0" stop-color="#7b7b7b"/>
    </linearGradient>
    <linearGradient gradientTransform="matrix(0.0024, 0.0, 0.0, 0.0024, 0.0, -25.0)" gradientUnits="userSpaceOnUse" id="gradient1" spreadMethod="pad" x1="-819.2" x2="819.2">
      <stop offset="0.0" stop-color="#4a4a4a"/>
      <stop offset="0.43529411764705883" stop-color="#9f9f9f"/>
      <stop offset="0.592156862745098" stop-color="#9f9f9f"/>
      <stop offset="1.0" stop-color="#4a4a4a"/>
    </linearGradient>
    <linearGradient gradientTransform="matrix(0.0024, 0.0, 0.0, 0.0024, 0.0, -25.0)" gradientUnits="userSpaceOnUse" id="gradient2" spreadMethod="pad" x1="-819.2" x2="819.2">
      <stop offset="0.023529411764705882" stop-color="#434343"/>
      <stop offset="0.43529411764705883" stop-color="#868686"/>
      <stop offset="0.592156862745098" stop-color="#868686"/>
      <stop offset="0.9686274509803922" stop-color="#434343"/>
    </linearGradient>
    <linearGradient gradientTransform="matrix(0.0049, 0.0, 0.0, 6.0E-4, 0.0, 45.5)" gradientUnits="userSpaceOnUse" id="gradient3" spreadMethod="pad" x1="-819.2" x2="819.2">
      <stop offset="0.08627450980392157" stop-color="#838383"/>
      <stop offset="0.403921568627451" stop-color="#d5d5d5"/>
      <stop offset="0.6078431372549019" stop-color="#d5d5d5"/>
      <stop offset="0.9098039215686274" stop-color="#838383"/>
    </linearGradient>
    <radialGradient cx="0" cy="0" gradientTransform="matrix(0.0051, 0.0, 0.0, 0.0259, 0.0, 72.0)" gradientUnits="userSpaceOnUse" id="gradient4" r="819.2" spreadMethod="pad">
      <stop offset="0.047058823529411764" stop-color="#c2c2c2"/>
      <stop offset="0.23921568627450981" stop-color="#9d9d9d"/>
      <stop offset="0.8392156862745098" stop-color="#515151"/>
      <stop offset="0.8627450980392157" stop-color="#515151"/>
    </radialGradient>
    <linearGradient gradientTransform="matrix(0.0048, 0.0, 0.0, 6.0E-4, 0.0, 73.1)" gradientUnits="userSpaceOnUse" id="gradient5" spreadMethod="pad" x1="-819.2" x2="819.2">
      <stop offset="0.09803921568627451" stop-color="#383838"/>
      <stop offset="0.5254901960784314" stop-color="#838383"/>
      <stop offset="0.8901960784313725" stop-color="#383838"/>
    </linearGradient>
    <linearGradient gradientTransform="matrix(0.0037, 0.0, 0.0, 0.0012, 0.0, 63.0)" gradientUnits="userSpaceOnUse" id="gradient6" spreadMethod="pad" x1="-819.2" x2="819.2">
      <stop offset="0.0" stop-color="#555555"/>
      <stop offset="0.43137254901960786" stop-color="#b8b8b8"/>
      <stop offset="0.5686274509803921" stop-color="#b8b8b8"/>
      <stop offset="1.0" stop-color="#555555"/>
    </linearGradient>
    <radialGradient cx="0" cy="0" gradientTransform="matrix(0.0034, 0.0, 0.0, 0.0026, 0.0, 74.0)" gradientUnits="userSpaceOnUse" id="gradient7" r="819.2" spreadMethod="pad">
      <stop offset="0.1843137254901961" stop-color="#80b3f7"/>
      <stop offset="0.6196078431372549" stop-color="#2978e2"/>
      <stop offset="0.9607843137254902" stop-color="#1d53b8"/>
    </radialGradient>
    <linearGradient gradientTransform="matrix(0.0024, 0.0, 0.0, 0.0415, 0.0, 11.0)" gradientUnits="userSpaceOnUse" id="gradient8" spreadMethod="pad" x1="-819.2" x2="819.2">
      <stop offset="0.06666666666666667" stop-color="#443467"/>
      <stop offset="0.4392156862745098" stop-color="#794fd2"/>
      <stop offset="0.5647058823529412" stop-color="#794fd2"/>
      <stop offset="0.9372549019607843" stop-color="#443467"/>
    </linearGradient>
    <linearGradient gradientTransform="matrix(0.0076, 0.0, 0.0, 0.0012, 0.0, -36.0)" gradientUnits="userSpaceOnUse" id="gradient9" spreadMethod="pad" x1="-819.2" x2="819.2">
      <stop offset="0.0" stop-color="#464646"/>
      <stop offset="0.2" stop-color="#636363"/>
      <stop offset="0.43137254901960786" stop-color="#a3a3a3"/>
      <stop offset="0.6078431372549019" stop-color="#a3a3a3"/>
      <stop offset="0.8235294117647058" stop-color="#636363"/>
      <stop offset="1.0" stop-color="#464646"/>
    </linearGradient>
    <linearGradient gradientTransform="matrix(0.0049, 0.0, 0.0, 0.0037, 0.0, -32.0)" gradientUnits="userSpaceOnUse" id="gradient10" spreadMethod="pad" x1="-819.2" x2="819.2">
      <stop offset="0.13333333333333333" stop-color="#4a4a4a"/>
      <stop offset="0.43529411764705883" stop-color="#9f9f9f"/>
      <stop offset="0.592156862745098" stop-color="#9f9f9f"/>
      <stop offset="0.8627450980392157" stop-color="#4a4a4a"/>
    </linearGradient>
    <linearGradient gradientTransform="matrix(0.0024, 0.0, 0.0, 0.0024, 0.0, -25.0)" gradientUnits="userSpaceOnUse" id="gradient11" spreadMethod="pad" x1="-819.2" x2="819.2">
      <stop offset="0.0" stop-color="#4a4a4a"/>
      <stop offset="0.43529411764705883" stop-color="#9f9f9f"/>
      <stop offset="0.592156862745098" stop-color="#9f9f9f"/>
      <stop offset="1.0" stop-color="#4a4a4a"/>
    </linearGradient>
    <linearGradient gradientTransform="matrix(0.0037, 0.0, 0.0, 0.0012, 0.0, -28.0)" gradientUnits="userSpaceOnUse" id="gradient12" spreadMethod="pad" x1="-819.2" x2="819.2">
      <stop offset="0.1843137254901961" stop-color="#353535"/>
      <stop offset="0.4235294117647059" stop-color="#7b7b7b"/>
      <stop offset="0.592156862745098" stop-color="#7b7b7b"/>
      <stop offset="0.8392156862745098" stop-color="#353535"/>
    </linearGradient>
    <linearGradient gradientTransform="matrix(0.0061, 0.0, 0.0, 0.0018, 0.0, -38.5)" gradientUnits="userSpaceOnUse" id="gradient13" spreadMethod="pad" x1="-819.2" x2="819.2">
      <stop offset="0.0" stop-color="#61587c"/>
      <stop offset="0.19607843137254902" stop-color="#5b546b"/>
      <stop offset="0.4588235294117647" stop-color="#bfbbca"/>
      <stop offset="0.5529411764705883" stop-color="#bebbca"/>
      <stop offset="0.796078431372549" stop-color="#5a556a"/>
      <stop offset="1.0" stop-color="#63577d"/>
    </linearGradient>
    <linearGradient gradientTransform="matrix(0.0094, -0.0015, 0.0011, 0.0066, -0.5, -49.15)" gradientUnits="userSpaceOnUse" id="gradient14" spreadMethod="pad" x1="-819.2" x2="819.2">
      <stop offset="0.07450980392156863" stop-color="#e2e2e2"/>
      <stop offset="0.8666666666666667" stop-color="#a3a3a3"/>
    </linearGradient>
    <linearGradient gradientTransform="matrix(0.0061, 0.0, 0.0, 0.0037, 0.0, -45.0)" gradientUnits="userSpaceOnUse" id="gradient15" spreadMethod="pad" x1="-819.2" x2="819.2">
      <stop offset="0.0" stop-color="#313131"/>
      <stop offset="0.25882352941176473" stop-color="#4e4e4e"/>
      <stop offset="0.43529411764705883" stop-color="#717171"/>
      <stop offset="0.5686274509803921" stop-color="#717171"/>
      <stop offset="0.7568627450980392" stop-color="#4e4e4e"/>
      <stop offset="1.0" stop-color="#313131"/>
    </linearGradient>
    <radialGradient cx="0" cy="0" gradientTransform="matrix(0.0, -0.0061, 0.0062, 0.0, 0.0, -48.0)" gradientUnits="userSpaceOnUse" id="gradient16" r="819.2" spreadMethod="pad">
      <stop offset="0.14901960784313725" stop-color="#717171"/>
      <stop offset="0.4666666666666667" stop-color="#4e4e4e"/>
      <stop offset="0.984313725490196" stop-color="#313131"/>
    </radialGradient>
    <radialGradient cx="0" cy="0" gradientTransform="matrix(0.0269, 0.0, 0.0, 0.0395, -10.0, -42.0)" gradientUnits="userSpaceOnUse" id="gradient17" r="819.2" spreadMethod="pad">
      <stop offset="0.027450980392156862" stop-color="#abafb6"/>
      <stop offset="0.1450980392156863" stop-color="#a7acb4"/>
      <stop offset="0.3607843137254902" stop-color="#6c6d75"/>
      <stop offset="0.596078431372549" stop-color="#3d3d43"/>
      <stop offset="1.0" stop-color="#252527"/>
    </radialGradient>
    <linearGradient gradientTransform="matrix(-0.0265, 0.0052, -0.0033, -0.0167, -2.9, -56.7)" gradientUnits="userSpaceOnUse" id="gradient18" spreadMethod="pad" x1="-819.2" x2="819.2">
      <stop offset="0.11764705882352941" stop-color="#3e3f42"/>
      <stop offset="0.7803921568627451" stop-color="#62646a"/>
      <stop offset="1.0" stop-color="#767981"/>
    </linearGradient>
  </defs>
</svg>
