<?xml version="1.0" encoding="UTF-8" standalone="no"?>
<svg xmlns:xlink="http://www.w3.org/1999/xlink" height="137.0px" width="49.0px" xmlns="http://www.w3.org/2000/svg">
  <g transform="matrix(1.0, 0.0, 0.0, 1.0, 24.5, 68.5)">
    <path d="M15.0 -67.5 L16.3 -68.35 17.5 -68.45 22.5 -67.45 Q23.3 -67.3 23.9 -66.65 24.45 -66.05 24.5 -65.2 24.55 -64.35 24.15 -63.65 L22.9 -62.65 18.5 -60.9 17.25 -57.2 17.25 57.2 18.5 60.9 22.9 62.65 Q23.65 62.95 24.15 63.65 24.55 64.35 24.5 65.2 24.45 66.05 23.9 66.65 23.3 67.3 22.5 67.45 L17.5 68.45 16.3 68.35 15.0 67.5 14.0 67.5 Q10.65 67.5 10.5 64.3 -3.85 58.35 -12.85 46.35 -21.2 35.35 -20.5 27.8 L-20.1 26.25 Q-19.35 24.8 -17.65 24.65 -22.8 19.8 -24.35 14.75 -24.65 13.95 -24.3 12.95 -23.85 11.5 -22.0 11.5 L-20.45 11.45 Q-21.5 10.45 -21.5 9.0 -21.5 7.6 -20.45 6.55 -20.15 6.25 -20.0 5.5 -19.45 2.7 -19.45 0.0 -19.45 -2.7 -20.0 -5.5 -20.15 -6.25 -20.45 -6.55 -21.5 -7.6 -21.5 -9.0 -21.5 -10.45 -20.45 -11.45 L-22.0 -11.5 Q-23.85 -11.5 -24.3 -12.95 -24.65 -13.95 -24.35 -14.75 -22.8 -19.8 -17.65 -24.65 -19.35 -24.8 -20.1 -26.25 L-20.5 -27.8 Q-21.2 -35.35 -12.85 -46.35 -3.85 -58.35 10.5 -64.3 10.65 -67.5 14.0 -67.5 L15.0 -67.5 M11.75 -57.25 L11.6 -57.4 Q7.2 -54.9 3.5 -51.8 3.7 -49.85 2.5 -49.0 -4.15 -44.3 -7.45 -36.5 L-4.0 -36.5 Q-2.7 -36.5 -2.0 -35.5 -1.5 -34.8 -1.5 -34.05 -1.35 -25.55 -8.1 -19.25 L-9.7 -17.5 -8.3 -15.85 Q-7.25 -14.8 -7.6 -13.35 -8.0 -11.9 -9.6 -11.5 -9.15 -11.25 -8.8 -10.45 -8.5 -9.7 -8.5 -9.0 -8.5 -7.6 -9.55 -6.55 L-10.0 -5.5 Q-10.55 -2.7 -10.55 0.0 -10.55 2.7 -10.0 5.5 L-9.55 6.55 Q-8.5 7.6 -8.5 9.0 -8.5 9.7 -8.8 10.45 -9.15 11.25 -9.6 11.5 -8.0 11.9 -7.6 13.35 -7.25 14.8 -8.3 15.85 L-9.7 17.5 -8.1 19.25 Q-1.35 25.55 -1.5 34.05 -1.5 34.8 -2.0 35.5 -2.7 36.5 -4.0 36.5 L-7.45 36.5 Q-4.15 44.3 2.5 49.0 3.7 49.85 3.5 51.8 7.2 54.9 11.6 57.4 L11.75 57.25 11.75 -57.25" fill="#000000" fill-rule="evenodd" stroke="none"/>
    <path d="M-12.45 6.0 L-12.0 8.0 -18.0 8.0 -17.5 6.0 -12.45 6.0" fill="url(#gradient0)" fill-rule="evenodd" stroke="none"/>
    <path d="M-13.0 -10.0 L-12.0 -10.0 -11.3 -9.7 Q-11.0 -9.4 -11.0 -9.0 -11.0 -8.6 -11.3 -8.3 -11.6 -8.0 -12.0 -8.0 L-18.0 -8.0 Q-18.4 -8.0 -18.7 -8.3 L-19.0 -9.0 -18.7 -9.7 Q-18.4 -10.0 -18.0 -10.0 L-17.0 -10.0 -13.0 -10.0" fill="url(#gradient1)" fill-rule="evenodd" stroke="none"/>
    <path d="M-12.45 -6.0 Q-13.65 0.2 -12.45 6.0 L-17.5 6.0 Q-16.35 0.2 -17.55 -6.0 L-12.45 -6.0" fill="url(#gradient2)" fill-rule="evenodd" stroke="none"/>
    <path d="M-12.0 -8.0 L-12.45 -6.0 -17.55 -6.0 -18.0 -8.0 -12.0 -8.0" fill="url(#gradient3)" fill-rule="evenodd" stroke="none"/>
    <path d="M-17.0 -10.0 Q-17.15 -12.8 -20.0 -14.0 L-11.0 -14.0 Q-11.8 -13.4 -12.35 -12.2 L-13.0 -10.0 -17.0 -10.0" fill="url(#gradient4)" fill-rule="evenodd" stroke="none"/>
    <path d="M-12.0 8.0 Q-11.6 8.0 -11.3 8.3 -11.0 8.6 -11.0 9.0 -11.0 9.4 -11.3 9.7 L-12.0 10.0 -13.0 10.0 -17.0 10.0 -18.0 10.0 Q-18.4 10.0 -18.7 9.7 L-19.0 9.0 -18.7 8.3 Q-18.4 8.0 -18.0 8.0 L-12.0 8.0" fill="url(#gradient5)" fill-rule="evenodd" stroke="none"/>
    <path d="M-13.0 10.0 L-12.35 12.2 Q-11.8 13.4 -11.0 14.0 L-20.0 14.0 Q-17.15 12.8 -17.0 10.0 L-13.0 10.0" fill="url(#gradient6)" fill-rule="evenodd" stroke="none"/>
    <path d="M15.0 -59.0 L15.0 0.0 14.0 0.0 14.0 -59.0 15.0 -59.0" fill="url(#gradient7)" fill-rule="evenodd" stroke="none"/>
    <path d="M13.5 -61.0 L13.0 -61.0 13.0 -64.0 Q13.0 -65.0 14.0 -65.0 L15.0 -65.0 Q16.0 -65.0 16.0 -64.0 L16.0 -61.0 15.5 -61.0 13.5 -61.0" fill="url(#gradient8)" fill-rule="evenodd" stroke="none"/>
    <path d="M13.5 -61.0 L15.5 -61.0 15.5 -59.0 15.0 -59.0 14.0 -59.0 13.5 -59.0 13.5 -61.0" fill="url(#gradient9)" fill-rule="evenodd" stroke="none"/>
    <path d="M15.0 0.0 L15.0 59.0 14.0 59.0 14.0 0.0 15.0 0.0" fill="url(#gradient10)" fill-rule="evenodd" stroke="none"/>
    <path d="M15.0 59.0 L15.5 59.0 15.5 61.0 13.5 61.0 13.5 59.0 14.0 59.0 15.0 59.0" fill="url(#gradient11)" fill-rule="evenodd" stroke="none"/>
    <path d="M15.5 61.0 L16.0 61.0 16.0 64.0 Q16.0 65.0 15.0 65.0 L14.0 65.0 Q13.0 65.0 13.0 64.0 L13.0 61.0 13.5 61.0 15.5 61.0" fill="url(#gradient12)" fill-rule="evenodd" stroke="none"/>
    <path d="M-10.0 11.0 L-20.0 11.0 -20.0 10.0 -10.0 10.0 -10.0 11.0" fill="#000000" fill-opacity="0.2" fill-rule="evenodd" stroke="none"/>
    <path d="M16.0 -61.0 L16.0 -60.0 13.0 -60.0 13.0 -61.0 16.0 -61.0 M15.0 -59.0 L15.0 -58.0 14.0 -58.0 14.0 -59.0 15.0 -59.0 M13.0 60.0 L16.0 60.0 16.0 61.0 13.0 61.0 13.0 60.0 M14.0 58.0 L15.0 58.0 15.0 59.0 14.0 59.0 14.0 58.0 M-12.0 -10.0 L-18.0 -10.0 -18.0 -11.0 -12.0 -11.0 -12.0 -10.0 M-21.0 -14.0 L-10.0 -14.0 -10.0 -13.0 -21.0 -13.0 -21.0 -14.0 M-11.0 14.0 L-20.0 14.0 -20.0 13.0 -11.0 13.0 -11.0 14.0" fill="#000000" fill-opacity="0.15294118" fill-rule="evenodd" stroke="none"/>
    <path d="M-13.0 31.0 Q-10.9 41.5 -1.65 50.55 7.75 59.75 22.0 65.0 L17.0 66.0 14.0 63.0 Q-1.45 57.35 -10.85 44.85 -18.45 34.8 -18.0 28.0 -17.65 26.9 -15.7 27.2 L-13.0 28.0 Q-12.0 28.4 -12.55 26.7 -13.1 25.05 -14.0 24.0 L-9.0 24.0 -9.0 31.0 -13.0 31.0" fill="url(#gradient13)" fill-rule="evenodd" stroke="none"/>
    <path d="M-14.0 -24.0 Q-13.1 -25.05 -12.55 -26.7 -12.0 -28.4 -13.0 -28.0 L-15.7 -27.2 Q-17.65 -26.9 -18.0 -28.0 -18.45 -34.8 -10.85 -44.85 -1.45 -57.35 14.0 -63.0 L17.0 -66.0 22.0 -65.0 Q7.75 -59.75 -1.65 -50.55 -10.9 -41.5 -13.0 -31.0 L-9.0 -31.0 -9.0 -24.0 -14.0 -24.0" fill="url(#gradient14)" fill-rule="evenodd" stroke="none"/>
    <path d="M-13.0 -31.0 L-9.0 -31.0 -9.0 -24.0 -14.0 -24.0" fill="none" stroke="url(#gradient15)" stroke-linecap="round" stroke-linejoin="round" stroke-width="0.25"/>
    <path d="M-13.0 31.0 L-9.0 31.0 -9.0 24.0 -14.0 24.0" fill="none" stroke="url(#gradient16)" stroke-linecap="round" stroke-linejoin="round" stroke-width="0.25"/>
    <path d="M14.1 -63.1 L17.0 -66.0 17.05 -63.95 14.1 -63.1 M17.05 63.95 L17.0 66.0 14.1 63.1 17.05 63.95" fill="#62dddd" fill-opacity="0.3019608" fill-rule="evenodd" stroke="none"/>
    <path d="M-11.7 -32.95 Q-10.8 -32.55 -6.0 -33.0 L-7.0 -28.0 Q-8.65 -24.85 -12.35 -20.65 -15.15 -17.5 -16.0 -14.0 L-22.0 -14.0 Q-20.35 -19.1 -14.65 -24.05 -12.15 -26.2 -11.55 -27.05 -10.4 -28.55 -11.0 -30.0 L-12.45 -29.9 -14.0 -30.0 Q-14.4 -30.3 -12.0 -37.0 -13.15 -33.6 -11.7 -32.95" fill="url(#gradient17)" fill-rule="evenodd" stroke="none"/>
    <path d="M-16.0 14.0 Q-15.15 17.5 -12.35 20.65 -8.65 24.85 -7.0 28.0 L-6.0 33.0 Q-10.8 32.55 -11.7 32.95 -13.15 33.6 -12.0 37.0 -14.4 30.3 -14.0 30.0 L-12.45 29.9 -11.0 30.0 Q-10.4 28.55 -11.55 27.05 -12.15 26.2 -14.65 24.05 -20.35 19.1 -22.0 14.0 L-16.0 14.0" fill="url(#gradient18)" fill-rule="evenodd" stroke="none"/>
    <path d="M1.0 -51.0 Q-7.25 -44.85 -10.5 -35.45 L-10.65 -35.0 -10.7 -34.6 -10.6 -34.25 -9.9 -34.0 -4.0 -34.0 -6.8 -31.95 -6.8 -32.0 -12.0 -32.0 Q-12.7 -32.05 -12.95 -32.5 L-13.05 -32.65 -13.0 -34.0 Q-11.25 -39.85 -7.9 -44.35 -4.65 -48.75 1.0 -53.0 L1.0 -51.0" fill="url(#gradient19)" fill-rule="evenodd" stroke="none"/>
    <path d="M-6.8 32.0 L-6.8 31.95 -4.0 34.0 -9.85 34.0 Q-10.3 34.0 -10.55 34.25 L-10.65 34.6 -10.6 35.0 -10.45 35.45 Q-7.25 44.85 1.0 51.0 L1.0 53.0 Q-4.65 48.75 -7.9 44.35 -11.2 39.85 -12.95 34.0 L-13.0 32.65 -12.9 32.5 Q-12.65 32.05 -11.95 32.0 L-6.8 32.0" fill="url(#gradient20)" fill-rule="evenodd" stroke="none"/>
    <path d="M-4.0 -34.0 Q-3.9 -26.6 -9.8 -21.1 -12.05 -19.0 -12.25 -18.0 -12.6 -16.35 -10.0 -14.0 L-16.0 -14.0 Q-15.95 -18.4 -10.8 -23.4 -6.05 -28.0 -6.8 -31.95 L-4.0 -34.0" fill="url(#gradient21)" fill-rule="evenodd" stroke="none"/>
    <path d="M-12.25 18.0 Q-12.05 19.0 -9.8 21.1 -3.9 26.6 -4.0 34.0 L-6.8 31.95 Q-6.05 28.0 -10.8 23.4 -15.95 18.4 -16.0 14.0 L-10.0 14.0 Q-12.6 16.35 -12.25 18.0" fill="url(#gradient22)" fill-rule="evenodd" stroke="none"/>
    <path d="M-6.8 -32.0 L-12.0 -32.0 Q-12.8 -32.05 -13.05 -32.65 L-13.0 -34.0 Q-11.25 -39.85 -7.9 -44.35 -4.65 -48.75 1.0 -53.0" fill="none" stroke="url(#gradient23)" stroke-linecap="round" stroke-linejoin="round" stroke-width="0.25"/>
    <path d="M-6.8 32.0 L-12.0 32.0 Q-12.8 32.05 -13.05 32.65 L-13.0 34.0 Q-11.25 39.85 -8.0 44.25 -4.8 48.5 0.85 52.75" fill="none" stroke="url(#gradient24)" stroke-linecap="round" stroke-linejoin="round" stroke-width="0.25"/>
    <path d="M-16.0 14.0 Q-15.95 18.4 -10.8 23.4 -6.05 28.0 -6.8 32.0" fill="none" stroke="url(#gradient25)" stroke-linecap="round" stroke-linejoin="round" stroke-width="0.25"/>
    <path d="M-16.0 -14.0 Q-15.95 -18.4 -10.8 -23.4 -6.05 -28.0 -6.8 -32.0 Z" fill="none" stroke="url(#gradient26)" stroke-linecap="round" stroke-linejoin="round" stroke-width="0.25"/>
  </g>
  <defs>
    <linearGradient gradientTransform="matrix(0.0037, 0.0, 0.0, 0.0012, -15.0, 7.0)" gradientUnits="userSpaceOnUse" id="gradient0" spreadMethod="pad" x1="-819.2" x2="819.2">
      <stop offset="0.0" stop-color="#4a4a4a"/>
      <stop offset="0.403921568627451" stop-color="#9f9f9f"/>
      <stop offset="0.5058823529411764" stop-color="#b5b5b5"/>
      <stop offset="0.6235294117647059" stop-color="#9f9f9f"/>
      <stop offset="1.0" stop-color="#4a4a4a"/>
    </linearGradient>
    <radialGradient cx="0" cy="0" gradientTransform="matrix(0.0, -0.0022, 0.0052, -1.0E-4, -15.0, -9.0)" gradientUnits="userSpaceOnUse" id="gradient1" r="819.2" spreadMethod="pad">
      <stop offset="0.12156862745098039" stop-color="#e6e6e6"/>
      <stop offset="0.26666666666666666" stop-color="#dfdfdf"/>
      <stop offset="0.7607843137254902" stop-color="#838383"/>
      <stop offset="0.7686274509803922" stop-color="#7f7f7f"/>
      <stop offset="1.0" stop-color="#515151"/>
    </radialGradient>
    <linearGradient gradientTransform="matrix(0.0031, 0.0, 0.0, 0.0073, -15.0, 0.0)" gradientUnits="userSpaceOnUse" id="gradient2" spreadMethod="pad" x1="-819.2" x2="819.2">
      <stop offset="0.0" stop-color="#465c79"/>
      <stop offset="0.12156862745098039" stop-color="#2f3c51"/>
      <stop offset="0.43137254901960786" stop-color="#6c8093"/>
      <stop offset="0.5882352941176471" stop-color="#697b87"/>
      <stop offset="0.8313725490196079" stop-color="#2f3c51"/>
      <stop offset="1.0" stop-color="#4b6381"/>
    </linearGradient>
    <linearGradient gradientTransform="matrix(0.0037, 0.0, 0.0, 0.0012, -15.0, -7.0)" gradientUnits="userSpaceOnUse" id="gradient3" spreadMethod="pad" x1="-819.2" x2="819.2">
      <stop offset="0.0" stop-color="#636363"/>
      <stop offset="0.10588235294117647" stop-color="#4a4a4a"/>
      <stop offset="0.42745098039215684" stop-color="#b5b5b5"/>
      <stop offset="0.596078431372549" stop-color="#b5b5b5"/>
      <stop offset="0.8784313725490196" stop-color="#4a4a4a"/>
      <stop offset="1.0" stop-color="#606060"/>
    </linearGradient>
    <radialGradient cx="0" cy="0" gradientTransform="matrix(0.0052, 0.0, 0.0, 0.0155, -15.1, -14.0)" gradientUnits="userSpaceOnUse" id="gradient4" r="819.2" spreadMethod="pad">
      <stop offset="0.07450980392156863" stop-color="#e6e6e6"/>
      <stop offset="0.23921568627450981" stop-color="#bbbbbb"/>
      <stop offset="0.5333333333333333" stop-color="#6d6d6d"/>
      <stop offset="0.9686274509803922" stop-color="#4a4a4a"/>
    </radialGradient>
    <radialGradient cx="0" cy="0" gradientTransform="matrix(0.0, 0.0022, 0.0052, 1.0E-4, -15.0, 9.0)" gradientUnits="userSpaceOnUse" id="gradient5" r="819.2" spreadMethod="pad">
      <stop offset="0.12156862745098039" stop-color="#e6e6e6"/>
      <stop offset="0.26666666666666666" stop-color="#dfdfdf"/>
      <stop offset="0.7607843137254902" stop-color="#838383"/>
      <stop offset="0.7686274509803922" stop-color="#7f7f7f"/>
      <stop offset="1.0" stop-color="#515151"/>
    </radialGradient>
    <radialGradient cx="0" cy="0" gradientTransform="matrix(0.0052, 0.0, 0.0, -0.0155, -15.1, 14.0)" gradientUnits="userSpaceOnUse" id="gradient6" r="819.2" spreadMethod="pad">
      <stop offset="0.07450980392156863" stop-color="#e6e6e6"/>
      <stop offset="0.23921568627450981" stop-color="#bbbbbb"/>
      <stop offset="0.5333333333333333" stop-color="#6d6d6d"/>
      <stop offset="0.9686274509803922" stop-color="#4a4a4a"/>
    </radialGradient>
    <linearGradient gradientTransform="matrix(0.0, 0.0726, -0.047, 0.0, 35.25, -0.75)" gradientUnits="userSpaceOnUse" id="gradient7" spreadMethod="pad" x1="-819.2" x2="819.2">
      <stop offset="0.0" stop-color="#685c48"/>
      <stop offset="0.47058823529411764" stop-color="#bbac9f"/>
      <stop offset="0.6" stop-color="#bbac9f"/>
      <stop offset="1.0" stop-color="#685c48"/>
    </linearGradient>
    <linearGradient gradientTransform="matrix(0.0018, 0.0, 0.0, 0.0018, 14.5, -62.0)" gradientUnits="userSpaceOnUse" id="gradient8" spreadMethod="pad" x1="-819.2" x2="819.2">
      <stop offset="0.0" stop-color="#555555"/>
      <stop offset="0.396078431372549" stop-color="#b8b8b8"/>
      <stop offset="0.5764705882352941" stop-color="#b8b8b8"/>
      <stop offset="1.0" stop-color="#555555"/>
    </linearGradient>
    <linearGradient gradientTransform="matrix(0.0013, 0.0, 0.0, 0.0012, 14.5, -60.0)" gradientUnits="userSpaceOnUse" id="gradient9" spreadMethod="pad" x1="-819.2" x2="819.2">
      <stop offset="0.050980392156862744" stop-color="#606060"/>
      <stop offset="0.5058823529411764" stop-color="#a6a6a6"/>
      <stop offset="0.9764705882352941" stop-color="#606060"/>
    </linearGradient>
    <linearGradient gradientTransform="matrix(0.0, -0.0726, -0.047, 0.0, 35.25, 0.75)" gradientUnits="userSpaceOnUse" id="gradient10" spreadMethod="pad" x1="-819.2" x2="819.2">
      <stop offset="0.0" stop-color="#685c48"/>
      <stop offset="0.47058823529411764" stop-color="#bbac9f"/>
      <stop offset="0.6" stop-color="#bbac9f"/>
      <stop offset="1.0" stop-color="#685c48"/>
    </linearGradient>
    <linearGradient gradientTransform="matrix(0.0013, 0.0, 0.0, -0.0012, 14.5, 60.0)" gradientUnits="userSpaceOnUse" id="gradient11" spreadMethod="pad" x1="-819.2" x2="819.2">
      <stop offset="0.050980392156862744" stop-color="#606060"/>
      <stop offset="0.5058823529411764" stop-color="#a6a6a6"/>
      <stop offset="0.9764705882352941" stop-color="#606060"/>
    </linearGradient>
    <linearGradient gradientTransform="matrix(0.0018, 0.0, 0.0, -0.0018, 14.5, 62.0)" gradientUnits="userSpaceOnUse" id="gradient12" spreadMethod="pad" x1="-819.2" x2="819.2">
      <stop offset="0.0" stop-color="#555555"/>
      <stop offset="0.396078431372549" stop-color="#b8b8b8"/>
      <stop offset="0.5764705882352941" stop-color="#b8b8b8"/>
      <stop offset="1.0" stop-color="#555555"/>
    </linearGradient>
    <linearGradient gradientTransform="matrix(0.0069, -0.0088, 0.0201, 0.0158, 0.9, 45.45)" gradientUnits="userSpaceOnUse" id="gradient13" spreadMethod="pad" x1="-819.2" x2="819.2">
      <stop offset="0.0" stop-color="#3998b7"/>
      <stop offset="0.24313725490196078" stop-color="#244f62"/>
      <stop offset="0.3803921568627451" stop-color="#39759b"/>
      <stop offset="0.6352941176470588" stop-color="#3096c7"/>
      <stop offset="0.6862745098039216" stop-color="#22465e"/>
      <stop offset="0.7607843137254902" stop-color="#22465e"/>
      <stop offset="0.796078431372549" stop-color="#377095"/>
      <stop offset="0.8431372549019608" stop-color="#22465e"/>
    </linearGradient>
    <linearGradient gradientTransform="matrix(0.0069, 0.0088, 0.0201, -0.0158, 0.9, -45.45)" gradientUnits="userSpaceOnUse" id="gradient14" spreadMethod="pad" x1="-819.2" x2="819.2">
      <stop offset="0.0" stop-color="#3998b7"/>
      <stop offset="0.24313725490196078" stop-color="#244f62"/>
      <stop offset="0.3803921568627451" stop-color="#39759b"/>
      <stop offset="0.6352941176470588" stop-color="#3096c7"/>
      <stop offset="0.6862745098039216" stop-color="#22465e"/>
      <stop offset="0.7607843137254902" stop-color="#22465e"/>
      <stop offset="0.796078431372549" stop-color="#377095"/>
      <stop offset="0.8431372549019608" stop-color="#22465e"/>
    </linearGradient>
    <linearGradient gradientTransform="matrix(0.0246, 0.0, 0.0, 0.0258, 1.95, -45.0)" gradientUnits="userSpaceOnUse" id="gradient15" spreadMethod="pad" x1="-819.2" x2="819.2">
      <stop offset="0.21568627450980393" stop-color="#3c3551"/>
      <stop offset="0.5686274509803921" stop-color="#bbb5d0"/>
      <stop offset="0.8901960784313725" stop-color="#c2bfd5"/>
    </linearGradient>
    <linearGradient gradientTransform="matrix(0.0246, 0.0, 0.0, -0.0258, 1.95, 45.0)" gradientUnits="userSpaceOnUse" id="gradient16" spreadMethod="pad" x1="-819.2" x2="819.2">
      <stop offset="0.21568627450980393" stop-color="#3c3551"/>
      <stop offset="0.5686274509803921" stop-color="#bbb5d0"/>
      <stop offset="0.8901960784313725" stop-color="#c2bfd5"/>
    </linearGradient>
    <radialGradient cx="0" cy="0" gradientTransform="matrix(0.0194, -0.0224, 0.0129, 0.0112, -16.0, -14.0)" gradientUnits="userSpaceOnUse" id="gradient17" r="819.2" spreadMethod="pad">
      <stop offset="0.10980392156862745" stop-color="#e6e6e6"/>
      <stop offset="0.47058823529411764" stop-color="#717171"/>
      <stop offset="0.6666666666666666" stop-color="#515151"/>
      <stop offset="0.8549019607843137" stop-color="#404040"/>
    </radialGradient>
    <radialGradient cx="0" cy="0" gradientTransform="matrix(0.0194, 0.0224, 0.0129, -0.0112, -16.0, 14.0)" gradientUnits="userSpaceOnUse" id="gradient18" r="819.2" spreadMethod="pad">
      <stop offset="0.10980392156862745" stop-color="#e6e6e6"/>
      <stop offset="0.47058823529411764" stop-color="#717171"/>
      <stop offset="0.6666666666666666" stop-color="#515151"/>
      <stop offset="0.8549019607843137" stop-color="#404040"/>
    </radialGradient>
    <linearGradient gradientTransform="matrix(0.0088, -0.0125, 0.0105, 0.0074, -6.1, -42.5)" gradientUnits="userSpaceOnUse" id="gradient19" spreadMethod="pad" x1="-819.2" x2="819.2">
      <stop offset="0.10196078431372549" stop-color="#e6e6e6"/>
      <stop offset="0.24313725490196078" stop-color="#6a6a6a"/>
      <stop offset="0.3803921568627451" stop-color="#6a6a6a"/>
      <stop offset="0.6549019607843137" stop-color="#d0d0d0"/>
      <stop offset="1.0" stop-color="#b0b0b0"/>
    </linearGradient>
    <linearGradient gradientTransform="matrix(0.0088, 0.0125, 0.0105, -0.0074, -6.1, 42.5)" gradientUnits="userSpaceOnUse" id="gradient20" spreadMethod="pad" x1="-819.2" x2="819.2">
      <stop offset="0.2784313725490196" stop-color="#4a4a4a"/>
      <stop offset="0.3764705882352941" stop-color="#4a4a4a"/>
      <stop offset="0.6784313725490196" stop-color="#838383"/>
      <stop offset="1.0" stop-color="#9f9f9f"/>
    </linearGradient>
    <linearGradient gradientTransform="matrix(-1.0E-4, -0.0138, 0.0237, -1.0E-4, -16.05, -23.1)" gradientUnits="userSpaceOnUse" id="gradient21" spreadMethod="pad" x1="-819.2" x2="819.2">
      <stop offset="0.0" stop-color="#434343"/>
      <stop offset="0.1568627450980392" stop-color="#585858"/>
      <stop offset="0.27450980392156865" stop-color="#808080"/>
      <stop offset="0.4627450980392157" stop-color="#545454"/>
      <stop offset="0.7372549019607844" stop-color="#353535"/>
      <stop offset="0.9607843137254902" stop-color="#6a6a6a"/>
    </linearGradient>
    <linearGradient gradientTransform="matrix(-1.0E-4, 0.0138, 0.0237, 1.0E-4, -16.05, 23.1)" gradientUnits="userSpaceOnUse" id="gradient22" spreadMethod="pad" x1="-819.2" x2="819.2">
      <stop offset="0.0" stop-color="#434343"/>
      <stop offset="0.1568627450980392" stop-color="#585858"/>
      <stop offset="0.27450980392156865" stop-color="#808080"/>
      <stop offset="0.4627450980392157" stop-color="#545454"/>
      <stop offset="0.7372549019607844" stop-color="#353535"/>
      <stop offset="0.9607843137254902" stop-color="#6a6a6a"/>
    </linearGradient>
    <linearGradient gradientTransform="matrix(0.018, -0.0149, 0.0152, 0.0184, -7.5, -33.5)" gradientUnits="userSpaceOnUse" id="gradient23" spreadMethod="pad" x1="-819.2" x2="819.2">
      <stop offset="0.0" stop-color="#959595"/>
      <stop offset="0.2196078431372549" stop-color="#959595"/>
      <stop offset="0.34509803921568627" stop-color="#515151"/>
      <stop offset="0.5568627450980392" stop-color="#8a8a8a"/>
      <stop offset="1.0" stop-color="#e2e2e2"/>
    </linearGradient>
    <linearGradient gradientTransform="matrix(0.018, 0.0149, 0.0152, -0.0184, -7.5, 33.5)" gradientUnits="userSpaceOnUse" id="gradient24" spreadMethod="pad" x1="-819.2" x2="819.2">
      <stop offset="0.0" stop-color="#959595"/>
      <stop offset="0.2196078431372549" stop-color="#959595"/>
      <stop offset="0.34509803921568627" stop-color="#515151"/>
      <stop offset="0.5568627450980392" stop-color="#8a8a8a"/>
      <stop offset="1.0" stop-color="#e2e2e2"/>
    </linearGradient>
    <linearGradient gradientTransform="matrix(0.018, 0.0149, 0.0152, -0.0184, -7.5, 33.5)" gradientUnits="userSpaceOnUse" id="gradient25" spreadMethod="pad" x1="-819.2" x2="819.2">
      <stop offset="0.0" stop-color="#d0d0d0"/>
      <stop offset="0.2196078431372549" stop-color="#b8b8b8"/>
      <stop offset="0.34509803921568627" stop-color="#adadad"/>
      <stop offset="0.5568627450980392" stop-color="#838383"/>
      <stop offset="1.0" stop-color="#e2e2e2"/>
    </linearGradient>
    <linearGradient gradientTransform="matrix(0.018, -0.0149, 0.0152, 0.0184, -7.5, -33.5)" gradientUnits="userSpaceOnUse" id="gradient26" spreadMethod="pad" x1="-819.2" x2="819.2">
      <stop offset="0.0" stop-color="#bfbfbf"/>
      <stop offset="0.2196078431372549" stop-color="#cdcdcd"/>
      <stop offset="0.34509803921568627" stop-color="#9f9f9f"/>
      <stop offset="0.5568627450980392" stop-color="#787878"/>
      <stop offset="1.0" stop-color="#e2e2e2"/>
    </linearGradient>
  </defs>
</svg>
