<?xml version="1.0" encoding="UTF-8" standalone="no"?>
<svg xmlns:xlink="http://www.w3.org/1999/xlink" height="376.0px" width="328.0px" xmlns="http://www.w3.org/2000/svg">
  <g transform="matrix(1.0, 0.0, 0.0, 1.0, 0.0, 0.0)">
    <path d="M326.0 0.0 Q328.0 0.0 328.0 2.0 L328.0 374.0 Q328.0 376.0 326.0 376.0 L2.0 376.0 Q0.0 376.0 0.0 374.0 L0.0 2.0 Q0.0 0.0 2.0 0.0 L326.0 0.0 M146.5 8.5 L6.5 8.5 Q4.5 8.5 4.5 10.5 L4.5 366.5 Q4.5 368.5 6.5 368.5 L290.5 368.5 Q292.5 368.5 292.5 366.5 L292.5 242.5 Q292.5 240.5 290.5 240.5 L148.5 240.5 148.5 10.5 Q148.5 8.5 146.5 8.5" fill="#000000" fill-rule="evenodd" stroke="none"/>
  </g>
</svg>
