<?xml version="1.0" encoding="UTF-8" standalone="no"?>
<svg xmlns:xlink="http://www.w3.org/1999/xlink" height="105.0px" width="105.0px" xmlns="http://www.w3.org/2000/svg">
  <g transform="matrix(1.0, 0.0, 0.0, 1.0, 52.5, 52.5)">
    <path d="M34.9 -40.45 Q36.75 -41.45 39.0 -42.0 L40.7 -41.85 Q41.5 -41.5 41.85 -40.65 42.25 -39.85 42.05 -39.0 41.45 -36.75 40.5 -34.85 L40.65 -33.95 40.6 -33.35 Q52.5 -19.15 52.5 0.0 52.5 19.15 40.6 33.35 L40.65 34.0 40.5 34.9 Q41.45 36.75 42.05 39.0 42.25 39.85 41.85 40.7 L40.7 41.85 39.0 42.05 Q36.75 41.45 34.9 40.5 L34.0 40.65 33.35 40.6 Q19.15 52.5 0.0 52.5 -19.15 52.5 -33.35 40.6 L-33.95 40.65 -34.85 40.5 Q-36.75 41.45 -39.0 42.05 L-40.65 41.85 Q-41.5 41.5 -41.85 40.7 -42.25 39.85 -42.0 39.0 -41.45 36.75 -40.45 34.9 L-40.65 34.0 -40.55 33.35 Q-52.5 19.15 -52.5 0.0 -52.5 -19.15 -40.55 -33.35 L-40.65 -33.95 -40.45 -34.85 Q-41.45 -36.75 -42.0 -39.0 -42.25 -39.85 -41.85 -40.65 -41.5 -41.5 -40.65 -41.85 L-39.0 -42.0 Q-36.75 -41.45 -34.85 -40.45 L-33.95 -40.65 -33.35 -40.55 Q-19.15 -52.5 0.0 -52.5 19.15 -52.5 33.35 -40.55 L34.0 -40.65 34.9 -40.45 M21.95 -40.0 Q12.1 -45.5 0.0 -45.5 -12.1 -45.5 -21.9 -40.0 L-21.0 -39.8 Q-20.45 -39.65 -20.0 -39.3 -10.95 -44.0 0.0 -44.0 10.95 -44.0 20.0 -39.3 20.45 -39.65 21.0 -39.8 L21.95 -40.0 M16.2 -35.65 Q15.9 -36.2 15.9 -36.8 8.6 -40.0 0.0 -40.0 -8.6 -40.0 -15.9 -36.8 -15.9 -36.2 -16.15 -35.65 -17.35 -33.3 -20.15 -30.15 L-20.15 -30.2 -25.05 -25.05 -30.2 -20.15 -30.15 -20.15 Q-33.3 -17.35 -35.65 -16.15 L-36.8 -15.9 Q-40.0 -8.6 -40.0 0.0 -40.0 8.6 -36.8 15.9 L-35.65 16.2 Q-33.3 17.35 -30.15 20.2 L-30.2 20.2 Q-28.45 21.7 -25.05 25.1 L-20.15 30.2 Q-17.35 33.3 -16.15 35.65 L-15.9 36.85 Q-8.6 40.0 0.0 40.0 8.6 40.0 15.9 36.85 15.9 36.2 16.2 35.65 17.35 33.3 20.2 30.2 L25.1 25.1 30.2 20.2 Q33.3 17.35 35.65 16.2 L36.85 15.9 Q40.0 8.6 40.0 0.0 40.0 -8.6 36.85 -15.9 L35.65 -16.15 Q33.3 -17.35 30.2 -20.15 L25.1 -25.05 20.2 -30.2 20.2 -30.15 Q17.35 -33.3 16.2 -35.65 M39.35 -20.0 Q44.0 -10.95 44.0 0.0 44.0 10.95 39.35 20.0 L39.8 21.0 40.0 21.95 Q45.5 12.1 45.5 0.0 45.5 -12.1 40.0 -21.9 L39.8 -21.0 39.35 -20.0 M0.0 44.0 Q-10.95 44.0 -20.0 39.35 L-21.0 39.8 -21.9 40.0 Q-12.1 45.5 0.0 45.5 12.1 45.5 21.95 40.0 L21.0 39.8 20.0 39.35 Q10.95 44.0 0.0 44.0 M-39.8 -21.0 L-40.0 -21.9 Q-45.5 -12.1 -45.5 0.0 -45.5 12.1 -40.0 21.95 L-39.8 21.0 -39.3 20.0 Q-44.0 10.95 -44.0 0.0 -44.0 -10.95 -39.3 -20.0 L-39.8 -21.0" fill="#000000" fill-rule="evenodd" stroke="none"/>
    <path d="M29.0 -28.95 Q41.0 -16.95 41.0 0.0 41.0 16.95 29.0 29.0 16.95 41.0 0.0 41.0 -16.95 41.0 -28.95 29.0 -41.0 16.95 -41.0 0.0 -41.0 -16.95 -28.95 -28.95 -16.95 -41.0 0.0 -41.0 16.95 -41.0 29.0 -28.95" fill="url(#gradient0)" fill-rule="evenodd" stroke="none"/>
    <path d="M27.6 -27.55 Q39.0 -16.15 39.0 0.0 39.0 16.15 27.6 27.6 16.15 39.0 0.0 39.0 -16.15 39.0 -27.55 27.6 -39.0 16.15 -39.0 0.0 -39.0 -16.15 -27.55 -27.55 -16.15 -39.0 0.0 -39.0 16.15 -39.0 27.6 -27.55" fill="url(#gradient1)" fill-rule="evenodd" stroke="none"/>
    <path d="M12.5 -8.5 L17.5 -8.5 21.5 -12.5 29.5 -12.5 M12.5 -4.5 L19.5 -4.5 21.5 -6.5 29.5 -6.5 M12.5 -6.5 L18.5 -6.5 21.5 -9.5 31.5 -9.5 33.45 -12.75 M12.5 -2.5 L31.5 -2.5 33.3 -5.95 M12.5 -0.5 L23.5 -0.5 26.5 0.5 29.5 0.5 M12.5 5.5 L20.5 5.5 26.5 9.5 31.5 9.5 33.5 6.5 M12.5 1.5 L22.5 1.5 26.5 3.5 31.5 3.5 33.5 0.5 M12.5 3.5 L21.5 3.5 26.5 6.5 29.5 6.5 M12.5 7.5 L19.5 7.5 26.5 12.5 29.5 12.5" fill="none" stroke="url(#gradient2)" stroke-linecap="round" stroke-linejoin="round" stroke-width="1.0"/>
  </g>
  <defs>
    <linearGradient gradientTransform="matrix(0.0, -0.0494, 0.0494, 0.0, 0.0, 0.0)" gradientUnits="userSpaceOnUse" id="gradient0" spreadMethod="pad" x1="-819.2" x2="819.2">
      <stop offset="0.023529411764705882" stop-color="#554062"/>
      <stop offset="0.2196078431372549" stop-color="#333a59"/>
      <stop offset="0.6823529411764706" stop-color="#3a3a5a"/>
      <stop offset="1.0" stop-color="#4e4b74"/>
    </linearGradient>
    <radialGradient cx="0" cy="0" fx="-1043.2" fy="0" gradientTransform="matrix(-5.0E-4, -0.0549, 0.0717, -6.0E-4, 0.0, 0.0)" gradientUnits="userSpaceOnUse" id="gradient1" r="819.2" spreadMethod="pad">
      <stop offset="0.13333333333333333" stop-color="#232363"/>
      <stop offset="0.49019607843137253" stop-color="#23212c"/>
      <stop offset="0.7803921568627451" stop-color="#43394d"/>
      <stop offset="0.984313725490196" stop-color="#231f27"/>
    </radialGradient>
    <radialGradient cx="0" cy="0" gradientTransform="matrix(0.0433, 0.0, 0.0, 0.0433, 0.0, 0.0)" gradientUnits="userSpaceOnUse" id="gradient2" r="819.2" spreadMethod="pad">
      <stop offset="0.25098039215686274" stop-color="#625f76"/>
      <stop offset="0.9686274509803922" stop-color="#4d4b65"/>
    </radialGradient>
  </defs>
</svg>
