<?xml version="1.0" encoding="UTF-8" standalone="no"?>
<svg xmlns:xlink="http://www.w3.org/1999/xlink" height="47.2px" width="48.0px" xmlns="http://www.w3.org/2000/svg">
  <g transform="matrix(1.0, 0.0, 0.0, 1.0, 34.0, 13.0)">
    <path d="M-12.5 -7.5 L-19.5 -7.5 -26.5 -12.5 -29.5 -12.5 M-12.5 -1.5 L-22.5 -1.5 -26.5 -3.5 -31.5 -3.5 -33.5 -0.5 M-12.5 -5.5 L-20.5 -5.5 -26.5 -9.5 -31.5 -9.5 -33.5 -6.5 M-12.5 0.5 L-23.5 0.5 -26.5 -0.5 -29.5 -0.5 M-12.5 -3.5 L-21.5 -3.5 -26.5 -6.5 -29.5 -6.5 M-6.5 13.0 L-6.5 23.0 -8.5 25.0 -8.5 32.0 -11.35 33.35 M-8.5 13.0 L-8.5 21.0 -11.5 24.0 -11.5 28.5 M-0.5 11.5 L-0.5 24.0 1.5 26.0 1.5 28.5 M-12.5 6.5 L-18.5 6.5 -21.5 9.5 -31.5 9.5 -33.45 12.75 M-12.5 4.5 L-19.5 4.5 -21.5 6.5 -29.5 6.5 M-12.5 8.5 L-17.5 8.5 -21.5 12.5 -29.5 12.5 M-12.5 2.5 L-31.5 2.5 -33.3 5.95 M-4.5 13.0 L-4.5 25.0 -5.5 26.0 -5.5 28.5 M-2.5 11.5 L-2.5 32.0 -5.5 33.55 M1.5 11.5 L1.5 22.0 4.5 25.0 4.5 32.0 1.35 33.6 M3.5 11.5 L3.5 20.0 7.5 24.0 7.5 28.5 M7.5 12.5 L7.5 16.0 13.5 22.0 13.5 29.0 M5.5 13.0 L5.5 18.0 10.5 23.0 10.5 32.0 7.25 33.7" fill="none" stroke="url(#gradient0)" stroke-linecap="round" stroke-linejoin="round" stroke-width="1.0"/>
  </g>
  <defs>
    <radialGradient cx="0" cy="0" gradientTransform="matrix(0.0433, 0.0, 0.0, 0.0433, 0.0, 0.0)" gradientUnits="userSpaceOnUse" id="gradient0" r="819.2" spreadMethod="pad">
      <stop offset="0.25098039215686274" stop-color="#625f76"/>
      <stop offset="0.9686274509803922" stop-color="#4d4b65"/>
    </radialGradient>
  </defs>
</svg>
