<?xml version="1.0" encoding="UTF-8" standalone="no"?>
<svg xmlns:xlink="http://www.w3.org/1999/xlink" height="272.0px" width="228.0px" xmlns="http://www.w3.org/2000/svg">
  <g transform="matrix(1.0, 0.0, 0.0, 1.0, 0.0, 0.0)">
    <path d="M226.0 0.0 Q228.0 0.0 228.0 2.0 L228.0 270.0 Q228.0 272.0 226.0 272.0 L2.0 272.0 Q0.0 272.0 0.0 270.0 L0.0 2.0 Q0.0 0.0 2.0 0.0 L226.0 0.0" fill="#000000" fill-rule="evenodd" stroke="none"/>
    <path d="M226.0 3.0 L226.0 269.0 Q226.0 270.0 225.0 270.0 L3.0 270.0 Q2.0 270.0 2.0 269.0 L2.0 3.0 Q2.0 2.0 3.0 2.0 L225.0 2.0 Q226.0 2.0 226.0 3.0" fill="url(#gradient0)" fill-rule="evenodd" stroke="none"/>
    <path d="M221.0 24.0 Q223.0 24.0 223.0 26.0 L223.0 245.0 5.0 245.0 5.0 26.0 Q5.0 24.0 7.0 24.0 L221.0 24.0" fill="#000000" fill-rule="evenodd" stroke="none"/>
    <path d="M6.0 26.0 L222.0 26.0 222.0 244.0 6.0 244.0 6.0 26.0" fill="#888888" fill-rule="evenodd" stroke="none"/>
    <path d="M218.0 80.0 L50.0 80.0 50.0 96.0 218.0 96.0 218.0 112.0 50.0 112.0 50.0 128.0 218.0 128.0 218.0 144.0 50.0 144.0 50.0 160.0 218.0 160.0 218.0 176.0 50.0 176.0 50.0 192.0 218.0 192.0 218.0 208.0 50.0 208.0 50.0 224.0 34.0 224.0 34.0 208.0 10.0 208.0 10.0 192.0 34.0 192.0 34.0 176.0 10.0 176.0 10.0 160.0 34.0 160.0 34.0 144.0 10.0 144.0 10.0 128.0 34.0 128.0 34.0 112.0 10.0 112.0 10.0 96.0 34.0 96.0 34.0 80.0 10.0 80.0 10.0 64.0 34.0 64.0 34.0 80.0 50.0 80.0 50.0 64.0 218.0 64.0 218.0 80.0 M34.0 96.0 L34.0 112.0 50.0 112.0 50.0 96.0 34.0 96.0 M50.0 128.0 L34.0 128.0 34.0 144.0 50.0 144.0 50.0 128.0 M34.0 176.0 L50.0 176.0 50.0 160.0 34.0 160.0 34.0 176.0 M34.0 192.0 L34.0 208.0 50.0 208.0 50.0 192.0 34.0 192.0" fill="#757575" fill-rule="evenodd" stroke="none"/>
  </g>
  <defs>
    <linearGradient gradientTransform="matrix(0.0, 0.0977, -0.155, 0.0, 44.5, 82.0)" gradientUnits="userSpaceOnUse" id="gradient0" spreadMethod="pad" x1="-819.2" x2="819.2">
      <stop offset="0.0" stop-color="#4b5055"/>
      <stop offset="1.0" stop-color="#6f767d"/>
    </linearGradient>
  </defs>
</svg>
