<?xml version="1.0" encoding="UTF-8" standalone="no"?>
<svg xmlns:xlink="http://www.w3.org/1999/xlink" height="76.2px" width="52.2px" xmlns="http://www.w3.org/2000/svg">
  <g transform="matrix(1.0, 0.0, 0.0, 1.0, 0.1, 0.1)">
    <path d="M48.0 0.0 Q52.0 0.0 52.0 4.0 L52.0 72.0 Q52.0 76.0 48.0 76.0 L4.0 76.0 Q0.0 76.0 0.0 72.0 L0.0 4.0 Q0.0 0.0 4.0 0.0 L48.0 0.0" fill="url(#gradient0)" fill-rule="evenodd" stroke="none"/>
    <path d="M50.0 4.0 L50.0 72.0 Q50.0 74.0 48.0 74.0 L4.0 74.0 Q2.0 74.0 2.0 72.0 L2.0 4.0 Q2.0 2.0 4.0 2.0 L48.0 2.0 Q50.0 2.0 50.0 4.0" fill="url(#gradient1)" fill-rule="evenodd" stroke="none"/>
    <path d="M49.0 4.0 L49.0 72.0 Q49.0 73.0 48.0 73.0 L4.0 73.0 Q3.0 73.0 3.0 72.0 L3.0 4.0 Q3.0 3.0 4.0 3.0 L48.0 3.0 Q49.0 3.0 49.0 4.0" fill="url(#gradient2)" fill-rule="evenodd" stroke="none"/>
    <path d="M2.9 66.1 L49.1 66.1 49.1 73.0 2.9 73.0 2.9 66.1" fill="#515151" fill-rule="evenodd" stroke="none"/>
    <path d="M49.1 17.2 L8.0 17.2 8.0 66.0 8.0 66.5 8.0 76.1 4.9 76.1 4.9 66.5 4.9 66.0 4.9 17.2 2.9 17.2 2.9 15.8 4.9 15.8 8.0 15.8 49.1 15.8 49.1 17.2 M4.9 0.5 L4.9 0.0 8.0 0.0 8.0 0.5 8.0 10.1 4.9 10.1 4.9 0.5" fill="#2b2b2b" fill-rule="evenodd" stroke="none"/>
    <path d="M49.1 15.9 L2.9 15.9 2.9 11.1 49.1 11.1 49.1 15.9" fill="url(#gradient3)" fill-rule="evenodd" stroke="none"/>
    <path d="M7.0 -0.1 L7.0 4.0 52.1 4.0 52.1 12.0 7.0 12.0 7.0 76.1 3.0 76.1 3.0 12.0 -0.1 12.0 -0.1 4.0 3.0 4.0 3.0 -0.1 7.0 -0.1" fill="url(#gradient4)" fill-rule="evenodd" stroke="none"/>
    <path d="M11.3 7.0 L13.05 7.75 11.9 9.25 13.05 10.75 11.3 11.5 11.55 13.4 9.65 13.15 8.9 14.85 7.45 13.75 5.9 14.85 5.15 13.15 3.3 13.4 3.5 11.5 1.8 10.75 2.9 9.25 1.8 7.75 3.5 7.0 3.25 5.15 5.15 5.35 5.9 3.65 7.4 4.75 8.9 3.65 9.65 5.35 11.5 5.1 11.3 7.0" fill="url(#gradient5)" fill-rule="evenodd" stroke="none"/>
  </g>
  <defs>
    <linearGradient gradientTransform="matrix(0.0231, 0.0495, -0.042, 0.0196, 26.0, 38.0)" gradientUnits="userSpaceOnUse" id="gradient0" spreadMethod="pad" x1="-819.2" x2="819.2">
      <stop offset="0.0" stop-color="#a79e98"/>
      <stop offset="1.0" stop-color="#7e7872"/>
    </linearGradient>
    <linearGradient gradientTransform="matrix(0.0, -0.0464, 0.0464, 0.0, 26.0, 38.0)" gradientUnits="userSpaceOnUse" id="gradient1" spreadMethod="pad" x1="-819.2" x2="819.2">
      <stop offset="0.0" stop-color="#000000"/>
      <stop offset="1.0" stop-color="#49433d"/>
    </linearGradient>
    <linearGradient gradientTransform="matrix(0.0, -0.0439, 0.0464, 0.0, 26.0, 38.0)" gradientUnits="userSpaceOnUse" id="gradient2" spreadMethod="pad" x1="-819.2" x2="819.2">
      <stop offset="0.0" stop-color="#cbc9c9"/>
      <stop offset="1.0" stop-color="#83807c"/>
    </linearGradient>
    <linearGradient gradientTransform="matrix(0.0282, 0.0, 0.0, 0.002, 26.0, 12.75)" gradientUnits="userSpaceOnUse" id="gradient3" spreadMethod="pad" x1="-819.2" x2="819.2">
      <stop offset="0.0" stop-color="#3c3c3c"/>
      <stop offset="1.0" stop-color="#10458b"/>
    </linearGradient>
    <linearGradient gradientTransform="matrix(0.0, 0.0061, -0.0049, 0.0, 26.0, 8.0)" gradientUnits="userSpaceOnUse" id="gradient4" spreadMethod="pad" x1="-819.2" x2="819.2">
      <stop offset="0.0" stop-color="#c4c1c1"/>
      <stop offset="1.0" stop-color="#b8b8b8"/>
    </linearGradient>
    <linearGradient gradientTransform="matrix(-0.0018, -0.0066, 0.0066, -0.0018, 7.4, 9.25)" gradientUnits="userSpaceOnUse" id="gradient5" spreadMethod="pad" x1="-819.2" x2="819.2">
      <stop offset="0.0" stop-color="#581818"/>
      <stop offset="1.0" stop-color="#b11414"/>
    </linearGradient>
  </defs>
</svg>
