<?xml version="1.0" encoding="UTF-8" standalone="no"?>
<svg xmlns:xlink="http://www.w3.org/1999/xlink" height="89.0px" width="89.0px" xmlns="http://www.w3.org/2000/svg">
  <g transform="matrix(1.0, 0.0, 0.0, 1.0, 44.5, 44.5)">
    <path d="M31.5 -31.45 Q44.5 -18.45 44.5 0.0 44.5 18.45 31.5 31.5 18.45 44.5 0.0 44.5 -18.45 44.5 -31.45 31.5 -44.5 18.45 -44.5 0.0 -44.5 -18.45 -31.45 -31.45 -18.45 -44.5 0.0 -44.5 18.45 -44.5 31.5 -31.45" fill="#000000" fill-rule="evenodd" stroke="none"/>
    <path d="M29.7 -29.7 Q42.0 -17.4 42.0 0.0 42.0 17.4 29.7 29.7 17.4 42.0 0.0 42.0 -17.4 42.0 -29.7 29.7 -42.0 17.4 -42.0 0.0 -42.0 -17.4 -29.7 -29.7 -17.4 -42.0 0.0 -42.0 17.4 -42.0 29.7 -29.7" fill="url(#gradient0)" fill-rule="evenodd" stroke="none"/>
    <path d="M21.0 -21.0 Q29.7 -12.3 29.7 0.0 29.7 12.3 21.0 21.0 12.3 29.7 0.0 29.7 -12.3 29.7 -21.0 21.0 -29.7 12.3 -29.7 0.0 -29.7 -12.3 -21.0 -21.0 -12.3 -29.7 0.0 -29.7 12.3 -29.7 21.0 -21.0" fill="url(#gradient1)" fill-rule="evenodd" stroke="none"/>
    <path d="M20.0 -20.0 Q28.3 -11.7 28.3 0.0 28.3 11.7 20.0 20.0 11.7 28.3 0.0 28.3 -11.7 28.3 -20.0 20.0 -28.3 11.7 -28.3 0.0 -28.3 -11.7 -20.0 -20.0 -11.7 -28.3 0.0 -28.3 11.7 -28.3 20.0 -20.0" fill="url(#gradient2)" fill-rule="evenodd" stroke="none"/>
    <path d="M16.25 -16.3 Q23.0 -9.55 23.0 0.0 23.0 9.55 16.25 16.25 9.55 23.0 0.0 23.0 -9.55 23.0 -16.3 16.25 -23.0 9.55 -23.0 0.0 -23.0 -9.55 -16.3 -16.3 -9.55 -23.0 0.0 -23.0 9.55 -23.0 16.25 -16.3" fill="url(#gradient3)" fill-rule="evenodd" stroke="none"/>
    <path d="M16.25 -16.3 Q9.55 -23.0 0.0 -23.0 -9.55 -23.0 -16.3 -16.3 -23.0 -9.55 -23.0 0.0 -23.0 9.55 -16.3 16.25 -9.55 23.0 0.0 23.0 9.55 23.0 16.25 16.25 23.0 9.55 23.0 0.0 23.0 -9.55 16.25 -16.3 M17.3 -17.35 Q24.5 -10.15 24.5 0.0 24.5 10.15 17.3 17.3 10.15 24.5 0.0 24.5 -10.15 24.5 -17.35 17.3 -24.5 10.15 -24.5 0.0 -24.5 -10.15 -17.35 -17.35 -10.15 -24.5 0.0 -24.5 10.15 -24.5 17.3 -17.35" fill="url(#gradient4)" fill-rule="evenodd" stroke="none"/>
    <path d="M3.5 -35.5 L0.0 -32.0 -3.5 -35.5 0.0 -39.0 3.5 -35.5" fill="url(#gradient5)" fill-rule="evenodd" stroke="none"/>
    <path d="M3.5 35.5 L0.0 39.0 -3.5 35.5 0.0 32.0 3.5 35.5" fill="url(#gradient6)" fill-rule="evenodd" stroke="none"/>
    <path d="M29.0 -20.8 L33.75 -19.5 32.5 -14.7 27.7 -16.0 29.0 -20.8" fill="url(#gradient7)" fill-rule="evenodd" stroke="none"/>
    <path d="M-32.5 14.7 L-27.7 16.0 -29.0 20.8 -33.75 19.5 -32.5 14.7" fill="url(#gradient8)" fill-rule="evenodd" stroke="none"/>
    <path d="M-33.75 -19.5 L-29.0 -20.8 -27.7 -16.0 -32.5 -14.7 -33.75 -19.5" fill="url(#gradient9)" fill-rule="evenodd" stroke="none"/>
    <path d="M27.7 16.0 L32.5 14.7 33.75 19.5 29.0 20.8 27.7 16.0" fill="url(#gradient10)" fill-rule="evenodd" stroke="none"/>
    <path d="M10.45 -32.15 L14.7 -39.45 Q21.2 -37.1 26.75 -32.4 L22.55 -25.15 10.45 -32.15" fill="url(#gradient11)" fill-rule="evenodd" stroke="none"/>
    <path d="M41.5 -7.0 Q42.0 -3.6 42.0 0.0 42.0 3.6 41.5 7.0 L33.0 7.0 33.0 -7.0 41.5 -7.0" fill="url(#gradient12)" fill-rule="evenodd" stroke="none"/>
    <path d="M22.55 25.1 L26.8 32.4 Q21.25 37.05 14.75 39.5 L10.45 32.1 22.55 25.1" fill="url(#gradient13)" fill-rule="evenodd" stroke="none"/>
    <path d="M-22.55 -25.1 L-26.75 -32.4 Q-21.2 -37.1 -14.7 -39.45 L-10.45 -32.1 -22.55 -25.1" fill="url(#gradient14)" fill-rule="evenodd" stroke="none"/>
    <path d="M-33.0 -7.0 L-33.0 7.0 -41.45 7.0 Q-42.0 3.6 -42.0 0.0 -42.0 -3.6 -41.45 -7.0 L-33.0 -7.0" fill="url(#gradient15)" fill-rule="evenodd" stroke="none"/>
    <path d="M-10.45 32.05 L-14.7 39.5 Q-21.2 37.1 -26.75 32.4 L-22.55 25.05 -10.45 32.05" fill="url(#gradient16)" fill-rule="evenodd" stroke="none"/>
    <path d="M29.0 -29.0 Q17.0 -41.0 0.0 -41.0 -17.0 -41.0 -29.0 -29.0 -41.0 -17.0 -41.0 0.0 -41.0 17.0 -29.0 29.0 -17.0 41.0 0.0 41.0 17.0 41.0 29.0 29.0 41.0 17.0 41.0 0.0 41.0 -17.0 29.0 -29.0 M29.7 -29.7 Q42.0 -17.4 42.0 0.0 42.0 17.4 29.7 29.7 17.4 42.0 0.0 42.0 -17.4 42.0 -29.7 29.7 -42.0 17.4 -42.0 0.0 -42.0 -17.4 -29.7 -29.7 -17.4 -42.0 0.0 -42.0 17.4 -42.0 29.7 -29.7" fill="url(#gradient17)" fill-rule="evenodd" stroke="none"/>
    <path d="M-7.6 7.55 Q-6.55 7.55 -5.8 6.8 -5.05 6.05 -5.05 5.0 -5.05 3.95 -5.8 3.2 -6.55 2.45 -7.6 2.45 -8.7 2.45 -9.45 3.2 -10.2 3.95 -10.2 5.0 -10.2 6.05 -9.45 6.8 -8.7 7.55 -7.6 7.55 M-6.5 12.3 Q-6.9 12.1 -7.25 12.3 L-7.8 12.8 Q-8.0 13.2 -7.8 13.6 L-7.3 14.15 Q-3.7 15.65 0.0 15.55 3.7 15.65 7.3 14.15 L7.8 13.6 Q8.0 13.2 7.8 12.8 L7.25 12.3 Q6.9 12.1 6.5 12.3 3.3 13.65 0.0 13.55 -3.3 13.65 -6.5 12.3 M0.4 -4.0 Q6.2 -4.0 10.5 -1.15 9.9 -5.25 11.7 -8.2 12.4 -9.3 13.55 -10.15 14.8 -11.1 16.1 -11.4 17.5 -7.3 16.5 -4.0 15.5 -0.75 12.6 0.5 15.45 3.35 15.45 7.0 15.45 11.55 11.05 14.75 6.6 18.0 0.4 18.0 L-0.4 18.0 Q-6.6 18.0 -11.05 14.75 -15.45 11.55 -15.45 7.0 -15.45 3.35 -12.6 0.5 -15.5 -0.75 -16.5 -4.0 -17.5 -7.3 -16.1 -11.4 -14.8 -11.1 -13.55 -10.15 -12.4 -9.3 -11.7 -8.2 -9.9 -5.25 -10.5 -1.15 -6.2 -4.0 -0.4 -4.0 L0.4 -4.0 M7.6 7.55 Q8.7 7.55 9.45 6.8 10.2 6.05 10.2 5.0 10.2 3.95 9.45 3.2 8.7 2.45 7.6 2.45 6.55 2.45 5.8 3.2 5.05 3.95 5.05 5.0 5.05 6.05 5.8 6.8 6.55 7.55 7.6 7.55" fill="url(#gradient18)" fill-rule="evenodd" stroke="none"/>
  </g>
  <defs>
    <linearGradient gradientTransform="matrix(0.0, -0.0513, 0.0513, 0.0, 0.0, 0.0)" gradientUnits="userSpaceOnUse" id="gradient0" spreadMethod="pad" x1="-819.2" x2="819.2">
      <stop offset="0.0" stop-color="#ab0505"/>
      <stop offset="0.43529411764705883" stop-color="#970404"/>
      <stop offset="1.0" stop-color="#c60606"/>
    </linearGradient>
    <linearGradient gradientTransform="matrix(0.0, -0.0363, 0.0363, 0.0, 0.0, 0.0)" gradientUnits="userSpaceOnUse" id="gradient1" spreadMethod="pad" x1="-819.2" x2="819.2">
      <stop offset="0.0" stop-color="#c74338"/>
      <stop offset="0.30196078431372547" stop-color="#c23d3d"/>
      <stop offset="0.807843137254902" stop-color="#7b0b0b"/>
    </linearGradient>
    <linearGradient gradientTransform="matrix(0.0, -0.0518, 0.0345, 0.0, 0.0, 0.0)" gradientUnits="userSpaceOnUse" id="gradient2" spreadMethod="pad" x1="-819.2" x2="819.2">
      <stop offset="0.0" stop-color="#ba0505"/>
      <stop offset="0.43529411764705883" stop-color="#970404"/>
      <stop offset="1.0" stop-color="#c60606"/>
    </linearGradient>
    <linearGradient gradientTransform="matrix(0.0, -0.0311, 0.0281, 0.0, 0.0, 0.0)" gradientUnits="userSpaceOnUse" id="gradient3" spreadMethod="pad" x1="-819.2" x2="819.2">
      <stop offset="0.0" stop-color="#d5d5d5"/>
      <stop offset="1.0" stop-color="#ededed"/>
    </linearGradient>
    <linearGradient gradientTransform="matrix(0.0, -0.0299, 0.0299, 0.0, 0.0, 0.0)" gradientUnits="userSpaceOnUse" id="gradient4" spreadMethod="pad" x1="-819.2" x2="819.2">
      <stop offset="0.0" stop-color="#cdcdcd"/>
      <stop offset="0.5254901960784314" stop-color="#c2c2c2"/>
      <stop offset="1.0" stop-color="#787878"/>
    </linearGradient>
    <linearGradient gradientTransform="matrix(8.0E-4, -0.0516, 0.0043, 1.0E-4, 0.0, -1.0)" gradientUnits="userSpaceOnUse" id="gradient5" spreadMethod="pad" x1="-819.2" x2="819.2">
      <stop offset="0.0" stop-color="#606060"/>
      <stop offset="0.3803921568627451" stop-color="#4a4a4a"/>
      <stop offset="1.0" stop-color="#a6a6a6"/>
    </linearGradient>
    <linearGradient gradientTransform="matrix(3.0E-4, -0.0513, 0.0043, 0.0, -0.35, 1.0)" gradientUnits="userSpaceOnUse" id="gradient6" spreadMethod="pad" x1="-819.2" x2="819.2">
      <stop offset="0.0" stop-color="#606060"/>
      <stop offset="0.3803921568627451" stop-color="#8d8d8d"/>
      <stop offset="1.0" stop-color="#636363"/>
    </linearGradient>
    <linearGradient gradientTransform="matrix(0.045, -0.0251, 0.0021, 0.0037, 0.85, -0.5)" gradientUnits="userSpaceOnUse" id="gradient7" spreadMethod="pad" x1="-819.2" x2="819.2">
      <stop offset="0.0" stop-color="#606060"/>
      <stop offset="0.3803921568627451" stop-color="#4a4a4a"/>
      <stop offset="1.0" stop-color="#a6a6a6"/>
    </linearGradient>
    <linearGradient gradientTransform="matrix(0.0446, -0.0254, 0.0021, 0.0037, -1.0, 0.2)" gradientUnits="userSpaceOnUse" id="gradient8" spreadMethod="pad" x1="-819.2" x2="819.2">
      <stop offset="0.0" stop-color="#606060"/>
      <stop offset="0.3803921568627451" stop-color="#8d8d8d"/>
      <stop offset="1.0" stop-color="#636363"/>
    </linearGradient>
    <linearGradient gradientTransform="matrix(-0.0443, -0.0264, 0.0022, -0.0037, -0.85, -0.5)" gradientUnits="userSpaceOnUse" id="gradient9" spreadMethod="pad" x1="-819.2" x2="819.2">
      <stop offset="0.0" stop-color="#606060"/>
      <stop offset="0.3803921568627451" stop-color="#4a4a4a"/>
      <stop offset="1.0" stop-color="#a6a6a6"/>
    </linearGradient>
    <linearGradient gradientTransform="matrix(-0.0443, -0.0259, 0.0022, -0.0037, 0.7, 0.8)" gradientUnits="userSpaceOnUse" id="gradient10" spreadMethod="pad" x1="-819.2" x2="819.2">
      <stop offset="0.0" stop-color="#606060"/>
      <stop offset="0.3803921568627451" stop-color="#8d8d8d"/>
      <stop offset="1.0" stop-color="#636363"/>
    </linearGradient>
    <linearGradient gradientTransform="matrix(2.0E-4, -0.0514, 0.0085, 0.0, -55.2, -0.2)" gradientUnits="userSpaceOnUse" id="gradient11" spreadMethod="pad" x1="-819.2" x2="819.2">
      <stop offset="0.0" stop-color="#ffffff"/>
      <stop offset="1.0" stop-color="#dfdfdf"/>
    </linearGradient>
    <linearGradient gradientTransform="matrix(-7.0E-4, -0.0515, 0.0085, -1.0E-4, 38.5, 0.0)" gradientUnits="userSpaceOnUse" id="gradient12" spreadMethod="pad" x1="-819.2" x2="819.2">
      <stop offset="0.0" stop-color="#ffffff"/>
      <stop offset="1.0" stop-color="#dfdfdf"/>
    </linearGradient>
    <linearGradient gradientTransform="matrix(-2.0E-4, -0.0514, 0.0085, 0.0, 1.05, 0.0)" gradientUnits="userSpaceOnUse" id="gradient13" spreadMethod="pad" x1="-819.2" x2="819.2">
      <stop offset="0.0" stop-color="#ffffff"/>
      <stop offset="1.0" stop-color="#dfdfdf"/>
    </linearGradient>
    <linearGradient gradientTransform="matrix(-4.0E-4, -0.0512, 0.0085, 0.0, 89.5, -0.05)" gradientUnits="userSpaceOnUse" id="gradient14" spreadMethod="pad" x1="-819.2" x2="819.2">
      <stop offset="0.0" stop-color="#ffffff"/>
      <stop offset="1.0" stop-color="#dfdfdf"/>
    </linearGradient>
    <linearGradient gradientTransform="matrix(2.0E-4, -0.0513, 0.0085, 0.0, 34.5, 0.2)" gradientUnits="userSpaceOnUse" id="gradient15" spreadMethod="pad" x1="-819.2" x2="819.2">
      <stop offset="0.0" stop-color="#ffffff"/>
      <stop offset="1.0" stop-color="#dfdfdf"/>
    </linearGradient>
    <linearGradient gradientTransform="matrix(-3.0E-4, -0.0513, 0.0085, 0.0, 71.6, -0.4)" gradientUnits="userSpaceOnUse" id="gradient16" spreadMethod="pad" x1="-819.2" x2="819.2">
      <stop offset="0.0" stop-color="#ffffff"/>
      <stop offset="1.0" stop-color="#dfdfdf"/>
    </linearGradient>
    <linearGradient gradientTransform="matrix(0.0, -0.0513, 0.0513, 0.0, 0.0, 0.0)" gradientUnits="userSpaceOnUse" id="gradient17" spreadMethod="pad" x1="-819.2" x2="819.2">
      <stop offset="0.0" stop-color="#383838" stop-opacity="0.4509804"/>
      <stop offset="1.0" stop-color="#ffffff" stop-opacity="0.4"/>
    </linearGradient>
    <linearGradient gradientTransform="matrix(0.0, -0.0195, 0.0183, 0.0, 0.0, 4.0)" gradientUnits="userSpaceOnUse" id="gradient18" spreadMethod="pad" x1="-819.2" x2="819.2">
      <stop offset="0.10980392156862745" stop-color="#970404"/>
      <stop offset="1.0" stop-color="#c60606"/>
    </linearGradient>
  </defs>
</svg>
