<?xml version="1.0" encoding="UTF-8" standalone="no"?>
<svg xmlns:xlink="http://www.w3.org/1999/xlink" height="174.25px" width="30.0px" xmlns="http://www.w3.org/2000/svg">
  <g transform="matrix(1.0, 0.0, 0.0, 1.0, 15.0, 86.0)">
    <path d="M8.95 -74.8 L9.0 -74.4 9.0 -74.05 9.0 33.8 9.55 35.1 10.05 36.1 8.95 38.4 8.9 40.2 13.6 40.8 Q14.2 41.1 14.6 42.2 L15.0 43.85 Q15.1 45.35 14.5 46.9 L14.5 46.85 Q13.95 48.4 13.15 49.15 L10.8 51.3 8.0 53.7 8.0 54.0 Q8.0 55.25 7.15 56.15 L6.05 56.85 Q5.75 57.9 5.55 60.75 L5.55 60.8 Q5.15 66.65 5.95 75.15 L6.55 76.3 7.1 77.95 Q7.0 78.6 5.7 80.55 L5.3 82.05 Q4.35 84.6 2.65 86.5 1.1 88.25 0.0 88.25 -1.1 88.25 -2.65 86.5 -4.35 84.6 -5.3 82.05 L-5.7 80.55 Q-7.0 78.6 -7.1 77.95 L-6.55 76.3 -5.95 75.15 Q-5.15 66.65 -5.55 60.8 L-5.55 60.75 Q-5.75 57.9 -6.05 56.85 L-7.15 56.15 Q-8.0 55.25 -8.0 54.0 L-8.0 53.7 -10.8 51.3 -13.15 49.15 Q-13.95 48.4 -14.5 46.85 L-14.5 46.9 Q-15.1 45.35 -15.0 43.85 L-14.6 42.2 Q-14.2 41.1 -13.6 40.8 L-8.9 40.2 -8.95 38.4 -10.05 36.1 -9.55 35.1 -9.0 33.8 -9.0 -74.05 -9.0 -74.4 -8.95 -74.8 -8.85 -75.3 -8.7 -75.8 -8.6 -76.05 Q-7.9 -77.9 -5.05 -81.65 L-5.05 -81.6 Q-1.95 -85.85 0.0 -86.0 1.95 -85.85 5.05 -81.6 L5.05 -81.65 Q7.9 -77.9 8.6 -76.05 L8.7 -75.8 8.85 -75.3 8.95 -74.8" fill="#000000" fill-rule="evenodd" stroke="none"/>
    <path d="M8.45 49.45 Q4.95 53.0 0.0 53.0 -4.95 53.0 -8.5 49.45 -9.8 48.15 -10.3 46.55 L-11.0 43.0 11.3 43.0 Q11.3 46.6 8.45 49.45" fill="#707dba" fill-rule="evenodd" stroke="none"/>
    <path d="M3.0 79.0 L-3.0 79.0 -4.0 78.0 4.0 78.0 3.0 79.0" fill="url(#gradient0)" fill-rule="evenodd" stroke="none"/>
    <path d="M-2.45 81.0 L-3.0 79.0 3.0 79.0 2.5 81.0 -2.45 81.0" fill="url(#gradient1)" fill-rule="evenodd" stroke="none"/>
    <path d="M-2.45 81.0 L2.5 81.0 Q1.1 84.7 -0.05 85.25 -0.8 84.9 -1.65 83.15 L-2.5 81.0 -2.45 81.0" fill="url(#gradient2)" fill-rule="evenodd" stroke="none"/>
    <path d="M4.0 78.0 L-4.0 78.0 -3.0 76.0 3.0 76.0 4.0 78.0" fill="url(#gradient3)" fill-rule="evenodd" stroke="none"/>
    <path d="M2.8 58.0 L-2.8 58.0 Q-3.25 54.9 -4.0 54.0 L0.0 54.0 4.0 54.0 Q3.25 54.9 2.8 58.0" fill="url(#gradient4)" fill-rule="evenodd" stroke="none"/>
    <path d="M-2.6 60.0 L2.6 60.0 2.55 60.55 Q2.15 66.85 3.0 76.0 L0.0 76.0 -3.0 76.0 Q-2.15 66.85 -2.55 60.55 L-2.6 60.0" fill="url(#gradient5)" fill-rule="evenodd" stroke="none"/>
    <path d="M2.8 58.0 L2.6 60.0 -2.6 60.0 -2.8 58.0 2.8 58.0" fill="url(#gradient6)" fill-rule="evenodd" stroke="none"/>
    <path d="M5.95 -74.45 L6.0 -74.05 6.0 34.0 Q6.15 35.2 7.0 36.0 4.85 39.45 6.0 42.0 L-6.0 42.0 Q-5.0 38.8 -7.0 36.0 -6.05 35.0 -6.0 34.0 L-6.0 -73.8 -5.9 -74.6 -5.9 -74.65 -5.85 -74.7 -5.85 -74.8 Q-5.3 -76.2 -2.75 -79.65 L0.0 -83.0 2.65 -79.85 Q5.15 -76.55 5.8 -74.95 L5.95 -74.45" fill="url(#gradient7)" fill-rule="evenodd" stroke="none"/>
    <path d="M8.25 46.35 L7.0 48.0 0.0 48.0 -7.0 48.0 -8.25 46.35 Q-9.5 44.25 -9.5 42.0 L9.5 42.0 Q9.5 44.25 8.25 46.35" fill="url(#gradient8)" fill-rule="evenodd" stroke="none"/>
    <path d="M6.0 49.0 L-6.0 49.0 -2.0 44.0 2.0 44.0 6.0 49.0" fill="#000000" fill-rule="evenodd" stroke="none"/>
    <path d="M-4.0 52.0 L-4.0 51.0 Q-7.45 49.65 -8.75 47.0 L-11.0 47.0 -11.7 45.8 Q-12.05 44.9 -12.0 44.0 L-5.3 44.0 Q-5.1 45.55 -3.95 46.65 -2.75 47.75 -1.0 47.9 L-1.0 48.8 1.0 48.8 1.0 47.9 Q2.75 47.75 3.95 46.65 5.1 45.55 5.3 44.0 L12.0 44.0 Q12.05 44.9 11.7 45.8 L11.0 47.0 8.75 47.0 Q7.45 49.65 4.0 51.0 L4.0 52.0" fill="none" stroke="#45361d" stroke-linecap="round" stroke-linejoin="round" stroke-width="1.0"/>
    <path d="M5.0 54.0 L-5.0 54.0 -5.0 52.0 5.0 52.0 5.0 54.0" fill="url(#gradient9)" fill-rule="evenodd" stroke="none"/>
    <path d="M11.0 47.0 L8.75 47.0 Q7.45 49.65 4.0 51.0 L4.0 52.0 -4.0 52.0 -4.0 51.0 Q-7.45 49.65 -8.75 47.0 L-11.0 47.0 -11.7 45.8 Q-12.05 44.9 -12.0 44.0 L-5.3 44.0 Q-5.1 45.55 -3.95 46.65 -2.75 47.75 -1.0 47.9 L-1.0 49.15 1.0 49.15 1.0 47.9 Q2.75 47.75 3.95 46.65 5.1 45.55 5.3 44.0 L12.0 44.0 Q12.05 44.9 11.7 45.8 L11.0 47.0" fill="url(#gradient10)" fill-rule="evenodd" stroke="none"/>
    <path d="M4.0 81.0 L-4.0 81.0 -4.0 80.0 4.0 80.0 4.0 81.0" fill="#000000" fill-opacity="0.49019608" fill-rule="evenodd" stroke="none"/>
    <path d="M4.0 52.0 L-4.0 52.0 -4.0 51.0 4.0 51.0 4.0 52.0" fill="#000000" fill-opacity="0.17254902" fill-rule="evenodd" stroke="none"/>
    <path d="M0.75 48.4 L-0.75 48.4 -0.75 46.6 0.75 46.6 0.75 48.4" fill="#1663ef" fill-rule="evenodd" stroke="none"/>
    <path d="M3.15 46.2 L2.3 46.7 1.65 45.75 2.45 45.25 3.15 46.2 M-2.45 45.25 L-1.65 45.75 -2.3 46.7 -3.15 46.2 -2.45 45.25" fill="#808080" fill-rule="evenodd" stroke="none"/>
    <path d="M3.65 46.5 L6.45 49.95 6.3 50.2 5.95 50.3 3.15 46.85 3.35 46.6 3.65 46.5 M-3.25 46.6 L-3.05 46.85 -5.85 50.3 -6.2 50.2 -6.35 49.95 -3.55 46.5 -3.25 46.6" fill="#45361d" fill-rule="evenodd" stroke="none"/>
    <path d="M4.0 -74.0 L4.0 34.0 Q4.1 35.4 5.0 36.0 4.3 36.6 3.9 38.3 3.5 40.1 3.95 41.0 L-4.0 41.0 Q-3.7 40.4 -3.8 39.0 -3.9 37.55 -5.0 36.0 -4.1 35.4 -4.0 34.0 L-4.0 -74.0 Q-2.85 -77.0 0.0 -80.0 2.65 -77.25 4.0 -74.0" fill="url(#gradient11)" fill-rule="evenodd" stroke="none"/>
    <path d="M1.0 29.0 L1.0 27.0 2.0 27.0 2.0 29.0 1.0 29.0 M2.0 33.0 L1.0 33.0 1.0 31.0 2.0 31.0 2.0 33.0 M1.0 35.0 L2.0 35.0 2.0 37.0 1.0 37.0 1.0 35.0 M-1.0 29.0 L-2.0 29.0 -2.0 27.0 -1.0 27.0 -1.0 29.0 M-1.0 33.0 L-2.0 33.0 -2.0 31.0 -1.0 31.0 -1.0 33.0 M-2.0 35.0 L-1.0 35.0 -1.0 37.0 -2.0 37.0 -2.0 35.0" fill="#4a4a4a" fill-rule="evenodd" stroke="none"/>
    <path d="M2.85 44.4 Q1.65 45.85 0.0 46.0 -1.65 45.85 -2.8 44.4 -4.05 42.95 -4.0 41.0 L0.0 41.0 4.0 41.0 Q4.05 42.95 2.85 44.4" fill="url(#gradient12)" fill-rule="evenodd" stroke="none"/>
    <path d="M0.55 45.0 L-0.45 45.0 -0.45 43.0 0.55 43.0 0.55 45.0" fill="#45322c" fill-rule="evenodd" stroke="none"/>
  </g>
  <defs>
    <linearGradient gradientTransform="matrix(0.0061, 0.0, 0.0, 6.0E-4, -0.05, 78.55)" gradientUnits="userSpaceOnUse" id="gradient0" spreadMethod="pad" x1="-819.2" x2="819.2">
      <stop offset="0.0" stop-color="#80630d"/>
      <stop offset="0.5019607843137255" stop-color="#d2a317"/>
      <stop offset="1.0" stop-color="#7e620e"/>
    </linearGradient>
    <radialGradient cx="0" cy="0" gradientTransform="matrix(0.0044, 0.0, 0.0, 0.0094, 0.0, 79.0)" gradientUnits="userSpaceOnUse" id="gradient1" r="819.2" spreadMethod="pad">
      <stop offset="0.13725490196078433" stop-color="#f1cd63"/>
      <stop offset="1.0" stop-color="#a68011"/>
    </radialGradient>
    <radialGradient cx="0" cy="0" gradientTransform="matrix(0.0044, 0.0, 0.0, 0.0094, -0.05, 79.0)" gradientUnits="userSpaceOnUse" id="gradient2" r="819.2" spreadMethod="pad">
      <stop offset="0.13725490196078433" stop-color="#e4ddda"/>
      <stop offset="1.0" stop-color="#695447"/>
    </radialGradient>
    <radialGradient cx="0" cy="0" gradientTransform="matrix(0.0, -0.0052, 0.0056, 0.0, 0.0, 78.0)" gradientUnits="userSpaceOnUse" id="gradient3" r="819.2" spreadMethod="pad">
      <stop offset="0.13725490196078433" stop-color="#f1cd63"/>
      <stop offset="1.0" stop-color="#a68011"/>
    </radialGradient>
    <linearGradient color-interpolation="linearRGB" gradientTransform="matrix(0.0049, 0.0, 0.0, 0.0134, 0.0, 65.0)" gradientUnits="userSpaceOnUse" id="gradient4" spreadMethod="pad" x1="-819.2" x2="819.2">
      <stop offset="0.00784313725490196" stop-color="#74590c"/>
      <stop offset="0.43137254901960786" stop-color="#cd9e14"/>
      <stop offset="0.592156862745098" stop-color="#cd9e14"/>
      <stop offset="1.0" stop-color="#80630d"/>
    </linearGradient>
    <linearGradient color-interpolation="linearRGB" gradientTransform="matrix(0.0037, 0.0, 0.0, 0.0134, 0.0, 65.0)" gradientUnits="userSpaceOnUse" id="gradient5" spreadMethod="pad" x1="-819.2" x2="819.2">
      <stop offset="0.06666666666666667" stop-color="#505c67"/>
      <stop offset="0.44313725490196076" stop-color="#959ea2"/>
      <stop offset="0.5843137254901961" stop-color="#959ea2"/>
      <stop offset="0.9372549019607843" stop-color="#4e5863"/>
    </linearGradient>
    <linearGradient color-interpolation="linearRGB" gradientTransform="matrix(0.0038, 0.0, 0.0, 0.0013, 0.0, 68.0)" gradientUnits="userSpaceOnUse" id="gradient6" spreadMethod="pad" x1="-819.2" x2="819.2">
      <stop offset="0.058823529411764705" stop-color="#4a4a4a"/>
      <stop offset="0.48627450980392156" stop-color="#877b78"/>
      <stop offset="0.9294117647058824" stop-color="#4a4a4a"/>
    </linearGradient>
    <linearGradient color-interpolation="linearRGB" gradientTransform="matrix(0.0, -0.0787, 0.0763, 0.0, 0.0, -20.5)" gradientUnits="userSpaceOnUse" id="gradient7" spreadMethod="pad" x1="-819.2" x2="819.2">
      <stop offset="0.0" stop-color="#1bfaf9"/>
      <stop offset="0.7607843137254902" stop-color="#9bffed"/>
      <stop offset="1.0" stop-color="#3afcfb"/>
    </linearGradient>
    <linearGradient gradientTransform="matrix(0.0157, 0.0, 0.0, 0.003, 1.05, 36.0)" gradientUnits="userSpaceOnUse" id="gradient8" spreadMethod="pad" x1="-819.2" x2="819.2">
      <stop offset="0.0" stop-color="#4d3a09"/>
      <stop offset="0.34901960784313724" stop-color="#997611"/>
      <stop offset="1.0" stop-color="#b18a14"/>
    </linearGradient>
    <linearGradient gradientTransform="matrix(0.0061, 0.0, 0.0, 0.0012, 0.0, 53.0)" gradientUnits="userSpaceOnUse" id="gradient9" spreadMethod="pad" x1="-819.2" x2="819.2">
      <stop offset="0.0" stop-color="#93720f"/>
      <stop offset="0.4980392156862745" stop-color="#ecc653"/>
      <stop offset="1.0" stop-color="#ae8711"/>
    </linearGradient>
    <linearGradient gradientTransform="matrix(0.0101, -0.0101, 0.0034, 0.0034, -0.3, 48.55)" gradientUnits="userSpaceOnUse" id="gradient10" spreadMethod="pad" x1="-819.2" x2="819.2">
      <stop offset="0.0" stop-color="#614a0a"/>
      <stop offset="0.25882352941176473" stop-color="#ba8f16"/>
      <stop offset="0.5568627450980392" stop-color="#daac25"/>
      <stop offset="0.7843137254901961" stop-color="#eaca6a"/>
      <stop offset="1.0" stop-color="#eabb31"/>
    </linearGradient>
    <linearGradient gradientTransform="matrix(0.0, -0.0804, 0.0738, 0.0, 0.0, -19.4)" gradientUnits="userSpaceOnUse" id="gradient11" spreadMethod="pad" x1="-819.2" x2="819.2">
      <stop offset="0.0" stop-color="#989898"/>
      <stop offset="0.23137254901960785" stop-color="#838383"/>
      <stop offset="0.5607843137254902" stop-color="#c2c2c2"/>
      <stop offset="0.6901960784313725" stop-color="#d0d0d0"/>
      <stop offset="0.8235294117647058" stop-color="#c2c2c2"/>
      <stop offset="1.0" stop-color="#8a8a8a"/>
    </linearGradient>
    <radialGradient color-interpolation="linearRGB" cx="0" cy="0" gradientTransform="matrix(0.005, 0.0, 0.0, 0.0063, 0.0, 41.0)" gradientUnits="userSpaceOnUse" id="gradient12" r="819.2" spreadMethod="pad">
      <stop offset="0.0" stop-color="#e9d996"/>
      <stop offset="0.5686274509803921" stop-color="#ccb033"/>
      <stop offset="1.0" stop-color="#a68420"/>
    </radialGradient>
  </defs>
</svg>
