<?xml version="1.0" encoding="UTF-8" standalone="no"?>
<svg xmlns:xlink="http://www.w3.org/1999/xlink" height="120.75px" width="102.45px" xmlns="http://www.w3.org/2000/svg">
  <g transform="matrix(1.0, 0.0, 0.0, 1.0, 55.35, 61.25)">
    <path d="M32.5 -21.75 Q43.0 -13.4 45.5 -2.5 L45.5 -2.4 Q47.1 2.4 47.1 7.75 47.1 12.1 46.05 16.1 L46.25 19.7 46.25 21.15 46.25 21.3 46.25 22.7 Q46.3 38.0 32.5 48.9 19.05 59.5 0.0 59.5 -19.05 59.5 -32.5 48.9 -46.3 38.0 -46.25 22.7 L-46.2 21.3 -46.2 21.15 -46.25 19.7 -46.05 16.1 Q-47.1 12.1 -47.1 7.75 -47.1 2.4 -45.5 -2.45 L-45.45 -2.5 -45.45 -2.55 Q-43.05 -13.4 -32.5 -21.75 -19.05 -32.3 0.0 -32.3 19.05 -32.3 32.5 -21.75" fill="#000000" fill-rule="evenodd" stroke="none"/>
    <path d="M17.2 -60.35 Q18.2 -60.25 18.85 -59.45 19.45 -58.7 19.4 -57.65 19.3 -56.65 18.55 -56.0 13.15 -51.45 7.05 -47.45 6.15 -46.9 5.2 -47.1 4.2 -47.3 3.65 -48.1 L2.7 -49.1 2.15 -48.85 0.9 -48.45 0.15 -46.65 0.2 -46.75 Q-1.45 -43.6 -4.9 -42.6 -8.3 -41.6 -11.35 -43.3 L-11.3 -43.25 -13.35 -44.8 -13.7 -45.15 -13.95 -45.05 Q-16.7 -44.15 -20.3 -42.4 -27.15 -39.15 -32.9 -34.85 -48.1 -23.5 -48.35 -10.15 -48.35 -3.2 -45.1 3.8 -42.8 8.9 -41.15 9.8 -39.9 10.25 -39.25 11.5 -38.6 12.75 -39.0 14.15 -39.4 15.5 -40.7 16.2 -41.95 16.85 -43.25 16.5 -47.35 15.8 -51.45 6.75 -55.35 -1.7 -55.35 -10.15 -55.6 -26.7 -37.1 -40.45 -30.85 -45.15 -23.3 -48.7 -19.25 -50.7 -16.1 -51.7 L-16.1 -51.75 -16.05 -51.8 -15.6 -52.5 Q-15.35 -53.7 -14.7 -54.8 L-14.75 -54.75 Q-13.15 -57.9 -9.7 -58.9 -6.3 -59.9 -3.2 -58.15 L-3.3 -58.2 Q-2.35 -57.75 -1.6 -57.1 L-0.4 -57.45 0.25 -57.55 0.45 -58.9 Q0.5 -59.9 1.25 -60.55 1.95 -61.25 2.95 -61.25 L17.2 -60.35 M-7.85 -52.3 L-7.5 -51.75 -7.5 -52.4 -7.75 -52.35 -7.85 -52.3 M-6.55 -49.25 L-6.9 -49.8 -6.85 -49.1 -6.8 -49.15 -6.55 -49.25 M-27.35 -14.05 Q-28.25 -14.55 -28.55 -15.5 -28.85 -16.45 -28.35 -17.35 L-27.7 -18.05 Q-27.6 -19.25 -27.0 -20.35 -25.85 -22.55 -23.45 -23.25 -21.05 -23.95 -18.9 -22.75 -17.8 -22.2 -17.05 -21.3 L-15.9 -21.05 -15.65 -20.9 -15.8 -21.3 -14.15 -21.8 -13.9 -21.05 Q-11.7 -21.9 -11.5 -25.5 L2.45 -24.65 Q-2.8 -20.2 -8.8 -16.3 -10.9 -19.25 -13.25 -18.75 L-13.05 -18.0 -14.7 -17.5 -14.8 -17.9 -14.9 -17.75 Q-15.25 -17.15 -15.75 -16.8 -15.9 -15.7 -16.5 -14.65 -17.65 -12.45 -20.05 -11.75 -22.45 -11.05 -24.6 -12.25 -25.75 -12.85 -26.45 -13.75 L-27.35 -14.05 M-23.95 -16.85 Q-23.65 -15.9 -24.05 -15.0 L-24.55 -14.4 -23.7 -13.85 Q-22.2 -13.0 -20.55 -13.5 -18.9 -14.0 -18.1 -15.55 L-17.65 -16.55 Q-17.95 -16.6 -18.2 -16.75 -19.05 -17.25 -19.35 -18.2 -19.65 -19.15 -19.2 -20.05 L-18.85 -20.5 -19.8 -21.15 Q-21.3 -22.0 -22.95 -21.5 -24.6 -21.0 -25.4 -19.45 L-25.8 -18.5 -25.05 -18.3 Q-24.25 -17.8 -23.95 -16.85" fill="#000000" fill-rule="evenodd" stroke="none"/>
    <path d="M-12.55 -50.1 L-11.8 -50.0 -11.35 -49.35 -11.5 -48.6 Q-11.7 -48.25 -12.1 -48.15 -15.7 -47.4 -21.35 -44.65 -28.5 -41.3 -34.4 -36.85 -50.8 -24.65 -50.85 -10.15 -50.85 -2.65 -47.4 4.85 -44.45 11.25 -42.05 12.15 -41.65 12.25 -41.45 12.65 -41.3 13.0 -41.4 13.4 L-41.85 14.0 -42.65 14.05 Q-45.75 13.25 -49.2 5.7 -52.85 -2.25 -52.85 -10.15 -52.9 -25.55 -35.6 -38.45 -29.5 -43.0 -22.2 -46.45 -16.3 -49.3 -12.55 -50.1" fill="url(#gradient0)" fill-rule="evenodd" stroke="none"/>
  </g>
  <defs>
    <linearGradient gradientTransform="matrix(0.0199, -0.0402, 0.0351, 0.0174, -32.15, -18.0)" gradientUnits="userSpaceOnUse" id="gradient0" spreadMethod="pad" x1="-819.2" x2="819.2">
      <stop offset="0.00784313725490196" stop-color="#666666"/>
      <stop offset="0.7333333333333333" stop-color="#acaaa8"/>
      <stop offset="0.9607843137254902" stop-color="#666666"/>
      <stop offset="0.9607843137254902" stop-color="#404040"/>
    </linearGradient>
  </defs>
</svg>
