<?xml version="1.0" encoding="UTF-8" standalone="no"?>
<svg xmlns:xlink="http://www.w3.org/1999/xlink" height="130.15px" width="111.9px" xmlns="http://www.w3.org/2000/svg">
  <g transform="matrix(1.0, 0.0, 0.0, 1.0, 0.5, 129.65)">
    <path d="M106.05 -107.05 L106.05 -106.5 Q106.05 -94.85 103.55 -86.75 L106.6 -89.7 108.55 -92.25 Q110.9 -96.1 110.9 -95.55 111.0 -88.65 107.95 -73.95 L104.55 -58.5 Q103.35 -50.7 99.8 -41.3 L95.65 -30.4 99.75 -32.85 Q102.65 -34.75 104.45 -36.4 100.4 -13.05 95.65 0.0 L0.0 0.0 34.1 -50.0 34.1 -34.15 Q46.25 -45.3 66.0 -75.5 86.65 -107.15 95.7 -129.15 96.55 -123.45 96.55 -118.0 96.55 -110.35 94.1 -92.9 L99.45 -99.1 106.05 -107.05" fill="#ffffff" fill-rule="evenodd" stroke="none"/>
    <path d="M106.05 -107.05 L106.05 -106.5 Q106.05 -94.85 103.55 -86.75 L106.6 -89.7 108.55 -92.25 Q110.9 -96.1 110.9 -95.55 111.0 -88.65 107.95 -73.95 L104.55 -58.5 Q103.35 -50.7 99.8 -41.3 L95.65 -30.4 99.75 -32.85 Q102.65 -34.75 104.45 -36.4 100.4 -13.05 95.65 0.0 L0.0 0.0 34.1 -50.0 34.1 -34.15 Q46.25 -45.3 66.0 -75.5 86.65 -107.15 95.7 -129.15 96.55 -123.45 96.55 -118.0 96.55 -110.35 94.1 -92.9 L99.45 -99.1 106.05 -107.05 Z" fill="none" stroke="#660000" stroke-linecap="round" stroke-linejoin="round" stroke-width="1.0"/>
  </g>
</svg>
