<?xml version="1.0" encoding="UTF-8" standalone="no"?>
<svg xmlns:xlink="http://www.w3.org/1999/xlink" height="92.0px" width="94.15px" xmlns="http://www.w3.org/2000/svg">
  <g transform="matrix(1.0, 0.0, 0.0, 1.0, 47.5, 43.5)">
    <path d="M39.35 -7.4 Q42.6 1.45 42.5 8.0 L42.5 8.05 Q42.45 18.65 37.15 26.15 44.05 28.35 46.1 31.25 46.65 31.9 46.65 32.8 46.65 33.7 46.1 34.4 45.75 34.8 45.3 35.0 L46.1 35.65 Q46.65 36.3 46.65 37.2 46.65 38.1 46.1 38.8 43.4 42.5 32.4 45.2 19.0 48.5 0.0 48.5 -19.0 48.5 -32.45 45.2 -48.1 41.35 -47.5 35.0 -48.0 29.7 -37.15 26.15 -42.45 18.65 -42.5 8.05 L-42.5 8.0 Q-42.6 1.45 -39.35 -7.4 -36.25 -15.85 -30.75 -24.6 -32.5 -27.45 -32.5 -31.0 -32.5 -36.15 -28.85 -39.85 -25.15 -43.5 -20.0 -43.5 -14.8 -43.5 -11.15 -39.85 L-9.55 -37.9 Q-5.4 -39.5 0.0 -39.5 5.4 -39.5 9.55 -37.9 L11.2 -39.85 Q14.8 -43.5 20.0 -43.5 25.15 -43.5 28.85 -39.85 L28.9 -39.85 Q32.5 -36.15 32.5 -31.0 32.5 -27.45 30.8 -24.55 36.25 -15.85 39.35 -7.4" fill="#000000" fill-rule="evenodd" stroke="none"/>
    <path d="M31.8 27.2 Q41.65 29.6 44.15 32.8 L33.0 35.0 44.15 37.25 Q41.65 40.35 31.8 42.75 18.65 46.0 0.0 46.0 -18.65 46.0 -31.85 42.75 -45.0 39.55 -45.0 35.0 -45.0 30.45 -31.85 27.2 -18.65 24.0 0.0 24.0 18.65 24.0 31.8 27.2" fill="url(#gradient0)" fill-rule="evenodd" stroke="none"/>
    <path d="M38.0 34.0 Q38.0 35.6 35.2 37.2 32.1 39.0 26.85 39.95 15.6 42.0 0.0 42.0 -15.6 42.0 -26.9 39.95 -32.15 39.0 -35.2 37.2 -38.0 35.6 -38.0 34.0 -38.0 31.1 -26.9 29.05 -15.75 27.0 0.0 27.0 15.75 27.0 26.85 29.05 38.0 31.1 38.0 34.0" fill="url(#gradient1)" fill-rule="evenodd" stroke="none"/>
    <path d="M27.1 -38.1 Q30.0 -35.15 30.0 -31.0 30.0 -27.35 27.75 -24.65 33.75 -15.45 37.0 -6.55 40.05 1.8 40.0 8.0 39.95 23.35 28.0 31.6 17.35 38.95 0.0 39.0 -17.35 38.95 -28.0 31.6 -39.95 23.35 -40.0 8.0 -40.05 1.8 -37.0 -6.55 -33.75 -15.45 -27.75 -24.65 -30.0 -27.35 -30.0 -31.0 -30.0 -35.15 -27.1 -38.1 -24.15 -41.0 -20.0 -41.0 -15.85 -41.0 -12.95 -38.1 -11.5 -36.65 -10.75 -34.9 L-10.0 -35.0 Q-5.8 -37.0 0.0 -37.0 5.8 -37.0 10.0 -35.0 L10.75 -34.9 Q11.5 -36.65 12.95 -38.1 15.85 -41.0 20.0 -41.0 24.15 -41.0 27.1 -38.1" fill="url(#gradient2)" fill-rule="evenodd" stroke="none"/>
    <path d="M0.05 -23.95 L-14.5 -24.05 -10.55 -34.9 -10.0 -35.0 Q-5.8 -37.0 0.0 -37.0 5.8 -37.0 10.0 -35.0 L10.6 -34.9 13.75 -24.0 0.05 -23.95" fill="url(#gradient3)" fill-rule="evenodd" stroke="none"/>
    <path d="M0.0 -14.0 Q17.65 -14.0 26.8 -0.1 35.6 13.2 30.45 29.75 L28.0 31.6 Q23.85 34.5 18.65 36.3 9.45 39.1 0.2 39.0 L0.0 38.95 0.0 39.0 -9.25 38.4 -16.9 36.8 Q-23.15 34.95 -28.0 31.6 L-30.35 29.8 Q-35.5 13.25 -26.75 -0.1 -17.65 -14.0 0.0 -14.0" fill="url(#gradient4)" fill-rule="evenodd" stroke="none"/>
    <path d="M22.0 -7.0 Q17.5 -11.3 11.95 -13.15 7.15 -14.75 0.0 -15.0 -7.15 -14.75 -11.95 -13.15 -17.5 -11.3 -22.0 -7.0" fill="none" stroke="#000000" stroke-linecap="round" stroke-linejoin="round" stroke-width="2.0"/>
    <path d="M17.6 -21.1 Q18.1 -22.3 19.85 -22.4 21.55 -22.5 23.3 -21.6 25.2 -20.75 26.15 -19.3 27.05 -18.0 26.5 -16.85 25.95 -15.7 24.2 -15.6 22.45 -15.4 20.75 -16.3 18.9 -17.3 17.95 -18.65 17.05 -20.0 17.6 -21.1 M-20.75 -16.35 Q-22.45 -15.45 -24.2 -15.65 -25.95 -15.75 -26.5 -16.9 -27.05 -18.05 -26.15 -19.35 -25.2 -20.8 -23.3 -21.65 -21.55 -22.55 -19.85 -22.45 -18.1 -22.35 -17.6 -21.15 -17.05 -20.05 -17.95 -18.7 -18.9 -17.35 -20.75 -16.35" fill="#f4a48a" fill-opacity="0.8509804" fill-rule="evenodd" stroke="none"/>
    <path d="M25.0 -28.0 Q23.15 -25.5 19.15 -26.3 14.95 -27.15 14.0 -31.0 14.55 -34.55 16.95 -35.9 L21.7 -36.1 Q24.2 -35.2 25.3 -33.05 26.5 -30.6 25.0 -28.0 M-25.0 -28.0 Q-26.5 -30.6 -25.3 -33.0 -24.2 -35.2 -21.65 -36.1 L-16.95 -35.85 Q-14.5 -34.55 -14.0 -31.0 -14.95 -27.15 -19.15 -26.3 -23.15 -25.5 -25.0 -28.0" fill="#000000" fill-rule="evenodd" stroke="none"/>
    <path d="M18.3 -32.3 Q18.0 -32.6 18.0 -33.0 18.0 -33.4 18.3 -33.7 18.6 -34.0 19.0 -34.0 L19.7 -33.7 20.0 -33.0 19.7 -32.3 Q19.4 -32.0 19.0 -32.0 18.6 -32.0 18.3 -32.3 M-18.3 -32.3 Q-18.6 -32.0 -19.0 -32.0 -19.4 -32.0 -19.7 -32.3 L-20.0 -33.0 -19.7 -33.7 -19.0 -34.0 Q-18.6 -34.0 -18.3 -33.7 -18.0 -33.4 -18.0 -33.0 -18.0 -32.6 -18.3 -32.3" fill="#ffffff" fill-rule="evenodd" stroke="none"/>
    <path d="M2.3 7.05 Q3.4 8.3 3.0 10.0 L1.4 18.1 8.55 14.05 Q10.05 13.1 11.6 13.8 12.95 14.4 13.3 15.65 13.75 16.9 13.0 18.2 12.15 19.6 10.45 19.75 L2.25 20.75 8.3 26.35 Q9.6 27.5 9.45 29.15 9.3 30.65 8.2 31.35 7.2 32.15 5.75 31.85 4.1 31.5 3.4 29.85 L0.0 22.35 -3.4 29.85 Q-4.1 31.5 -5.75 31.85 -7.2 32.15 -8.2 31.35 -9.3 30.65 -9.45 29.15 -9.6 27.5 -8.3 26.35 L-2.2 20.75 -10.45 19.75 Q-12.15 19.6 -13.0 18.2 -13.75 16.9 -13.3 15.65 -12.95 14.4 -11.6 13.8 -10.05 13.1 -8.55 14.05 L-1.35 18.1 -3.0 10.0 Q-3.4 8.3 -2.3 7.05 -1.3 5.95 0.0 6.0 1.3 5.95 2.3 7.05" fill="url(#gradient5)" fill-rule="evenodd" stroke="none"/>
  </g>
  <defs>
    <linearGradient gradientTransform="matrix(0.0, -0.0134, 0.0134, 0.0, -0.45, 35.0)" gradientUnits="userSpaceOnUse" id="gradient0" spreadMethod="pad" x1="-819.2" x2="819.2">
      <stop offset="0.0" stop-color="#35ac35"/>
      <stop offset="0.5019607843137255" stop-color="#1c551c"/>
      <stop offset="1.0" stop-color="#103010"/>
    </linearGradient>
    <radialGradient cx="0" cy="0" gradientTransform="matrix(0.0439, 0.0, 0.0, 0.0099, 0.0, 34.0)" gradientUnits="userSpaceOnUse" id="gradient1" r="819.2" spreadMethod="pad">
      <stop offset="0.6196078431372549" stop-color="#000000" stop-opacity="0.6"/>
      <stop offset="1.0" stop-color="#000000" stop-opacity="0.050980393"/>
    </radialGradient>
    <radialGradient cx="0" cy="0" fx="240.0" fy="0" gradientTransform="matrix(0.0, -0.0684, 0.0925, 0.0, 0.0, -14.0)" gradientUnits="userSpaceOnUse" id="gradient2" r="819.2" spreadMethod="pad">
      <stop offset="0.07450980392156863" stop-color="#cdfaa0"/>
      <stop offset="0.26666666666666666" stop-color="#7eda3a"/>
      <stop offset="0.5294117647058824" stop-color="#68ce1c"/>
      <stop offset="0.7843137254901961" stop-color="#387715"/>
      <stop offset="0.8823529411764706" stop-color="#60a21e"/>
    </radialGradient>
    <radialGradient cx="0" cy="0" gradientTransform="matrix(-1.0E-4, -0.0122, 0.0178, -1.0E-4, 0.0, -32.0)" gradientUnits="userSpaceOnUse" id="gradient3" r="819.2" spreadMethod="pad">
      <stop offset="0.17647058823529413" stop-color="#ffffff"/>
      <stop offset="0.5176470588235295" stop-color="#c5f361" stop-opacity="0.0"/>
    </radialGradient>
    <radialGradient cx="0" cy="0" fx="611.2" fy="0" gradientTransform="matrix(0.0, -0.0537, 0.0657, 0.0, 0.0, 4.0)" gradientUnits="userSpaceOnUse" id="gradient4" r="819.2" spreadMethod="pad">
      <stop offset="0.15294117647058825" stop-color="#ffffff"/>
      <stop offset="0.5333333333333333" stop-color="#c8d8ad"/>
      <stop offset="0.8274509803921568" stop-color="#80aa40"/>
      <stop offset="0.9568627450980393" stop-color="#b0c0a0"/>
    </radialGradient>
    <radialGradient cx="0" cy="0" fx="262.40000000000003" fy="0" gradientTransform="matrix(0.0, -0.0604, 0.0604, 0.0, 0.0, 4.0)" gradientUnits="userSpaceOnUse" id="gradient5" r="819.2" spreadMethod="pad">
      <stop offset="0.2196078431372549" stop-color="#ea77cd"/>
      <stop offset="0.4745098039215686" stop-color="#b63476"/>
      <stop offset="0.6823529411764706" stop-color="#712466"/>
      <stop offset="0.8117647058823529" stop-color="#b93eb0"/>
    </radialGradient>
  </defs>
</svg>
