<?xml version="1.0" encoding="UTF-8" standalone="no"?>
<svg xmlns:xlink="http://www.w3.org/1999/xlink" height="105.25px" width="105.25px" xmlns="http://www.w3.org/2000/svg">
  <g transform="matrix(1.0, 0.0, 0.0, 1.0, 52.6, 52.6)">
    <path d="M0.05 -52.6 L5.05 -25.3 20.15 -48.6 14.35 -21.45 37.25 -37.2 21.5 -14.3 48.65 -20.1 25.35 -5.0 52.65 0.05 25.35 5.05 48.65 20.15 21.5 14.35 37.25 37.25 14.35 21.5 20.15 48.65 5.05 25.35 0.05 52.65 -5.0 25.35 -20.1 48.65 -14.3 21.5 -37.2 37.25 -21.45 14.35 -48.6 20.15 -25.3 5.05 -52.6 0.05 -25.3 -5.0 -48.6 -20.1 -21.45 -14.3 -37.2 -37.2 -14.3 -21.45 -20.1 -48.6 -5.0 -25.3 0.05 -52.6" fill="#ffffff" fill-rule="evenodd" stroke="none"/>
  </g>
</svg>
