<?xml version="1.0" encoding="UTF-8" standalone="no"?>
<svg xmlns:xlink="http://www.w3.org/1999/xlink" height="151.05px" width="27.0px" xmlns="http://www.w3.org/2000/svg">
  <g transform="matrix(1.0, 0.0, 0.0, 1.0, 8.5, 75.5)">
    <path d="M13.65 -75.4 Q14.55 -75.15 15.1 -74.35 15.6 -73.6 15.5 -72.65 L14.4 -65.25 Q8.5 -41.75 6.7 -4.25 6.3 3.95 6.4 16.05 L6.5 34.5 6.55 34.55 Q7.25 34.7 7.8 35.25 8.5 35.95 8.5 37.0 L8.5 39.0 Q8.5 40.05 7.8 40.8 7.2 41.35 6.5 41.45 L6.5 43.05 Q6.65 50.4 7.0 54.8 L7.2 56.7 8.8 62.05 10.35 62.45 10.6 62.0 Q9.5 60.8 9.5 59.0 9.5 58.0 9.9 57.15 L9.3 56.1 Q8.9 55.4 8.95 54.7 9.0 53.95 9.45 53.35 9.9 52.75 10.65 52.5 12.75 51.75 14.35 51.7 15.05 51.7 15.65 52.05 16.25 52.35 16.65 53.0 L16.95 54.3 16.95 55.55 17.2 55.8 Q18.5 57.1 18.5 59.0 18.5 60.85 17.3 62.1 16.75 67.35 12.8 68.55 L12.75 68.55 10.5 69.15 10.45 70.15 Q10.15 71.1 9.3 71.65 6.35 73.4 1.25 75.4 L-0.1 75.5 Q-0.8 75.4 -1.3 74.95 L-2.05 73.8 -4.0 66.7 -4.3 65.95 -4.95 63.15 Q-5.2 62.15 -4.85 61.25 -5.8 54.35 -6.3 44.0 L-6.5 43.0 -6.5 41.45 Q-7.2 41.3 -7.75 40.8 -8.5 40.05 -8.5 39.0 L-8.5 37.0 Q-8.5 35.95 -7.75 35.25 L-6.5 34.55 -6.5 32.95 Q-6.5 -35.85 4.6 -68.65 L5.05 -69.55 Q7.7 -73.2 11.9 -75.25 L13.65 -75.4" fill="#262626" fill-rule="evenodd" stroke="none"/>
    <path d="M13.35 59.7 L13.55 59.15 Q13.75 58.9 14.1 58.9 L14.6 59.1 14.85 59.65 Q15.05 65.0 11.9 66.2 8.95 67.5 4.85 63.75 L4.6 63.25 4.8 62.7 Q5.0 62.45 5.35 62.45 L5.85 62.65 Q9.05 65.6 11.35 64.8 13.5 63.8 13.35 59.7" fill="url(#gradient0)" fill-rule="evenodd" stroke="none"/>
    <path d="M13.35 58.2 L11.45 54.85 Q13.15 54.25 14.45 54.2 L14.35 58.05 13.35 58.2" fill="url(#gradient1)" fill-rule="evenodd" stroke="none"/>
    <path d="M0.35 73.05 L-0.5 70.25 Q5.1 68.05 6.6 67.1 L8.0 69.5 Q5.2 71.15 0.35 73.05" fill="url(#gradient2)" fill-rule="evenodd" stroke="none"/>
    <path d="M6.3 66.15 Q3.55 67.8 -0.8 69.35 -2.95 61.9 -3.85 43.0 L4.0 43.0 Q4.15 50.5 4.5 55.0 5.05 61.9 6.3 66.15" fill="url(#gradient3)" fill-rule="evenodd" stroke="none"/>
    <path d="M-2.2 49.0 Q-2.8 49.5 -3.4 49.7 L-3.75 44.55 -2.35 45.05 Q-1.0 45.8 -1.0 46.95 -1.0 48.1 -2.2 49.0" fill="url(#gradient4)" fill-rule="evenodd" stroke="none"/>
    <path d="M-3.3 50.7 L-1.95 51.1 Q-0.6 51.75 -0.45 53.0 -0.3 54.25 -1.5 55.15 -2.1 55.6 -2.75 55.8 -3.3 52.7 -3.3 50.7" fill="url(#gradient5)" fill-rule="evenodd" stroke="none"/>
    <path d="M-1.25 57.2 Q0.15 57.9 0.4 59.2 0.65 60.5 -0.6 61.4 L-1.9 62.05 -2.65 56.75 -1.25 57.2" fill="url(#gradient6)" fill-rule="evenodd" stroke="none"/>
    <path d="M-1.8 63.3 Q1.8 62.3 5.2 60.3" fill="none" stroke="#000000" stroke-linecap="round" stroke-linejoin="round" stroke-opacity="0.2" stroke-width="1.5"/>
    <path d="M3.65 59.15 L4.55 58.65 5.1 58.6 Q5.4 58.65 5.55 58.95 L5.65 59.5 5.3 59.95 3.65 60.85 -0.65 62.65 -1.9 63.05 -2.45 62.95 -2.75 62.65 -2.8 62.5 -2.75 61.95 Q-2.6 61.65 -2.3 61.6 0.75 60.75 3.65 59.15" fill="url(#gradient7)" fill-rule="evenodd" stroke="none"/>
    <path d="M6.15 63.05 L6.45 63.55 6.3 64.1 5.8 64.4 2.35 65.05 2.3 65.05 -1.25 65.95 -1.8 65.85 -2.15 65.4 -2.1 64.85 -1.65 64.5 2.0 63.6 5.6 62.9 6.15 63.05" fill="url(#gradient8)" fill-rule="evenodd" stroke="none"/>
    <path d="M12.0 59.0 Q12.0 58.15 12.55 57.55 13.15 57.0 14.0 57.0 14.85 57.0 15.4 57.55 16.0 58.15 16.0 59.0 16.0 59.85 15.4 60.4 14.85 61.0 14.0 61.0 13.15 61.0 12.55 60.4 12.0 59.85 12.0 59.0" fill="url(#gradient9)" fill-rule="evenodd" stroke="none"/>
    <path d="M3.6 61.75 L5.4 61.4 Q5.7 61.35 5.95 61.55 L6.25 62.05 6.1 62.6 5.65 62.9 -1.7 64.45 -2.3 64.35 -2.6 63.9 -2.5 63.3 Q-2.35 63.05 -2.05 63.0 L-0.65 62.65 3.6 61.75" fill="url(#gradient10)" fill-rule="evenodd" stroke="none"/>
    <path d="M4.0 41.0 L4.0 43.0 -4.0 43.0 -4.0 41.0 4.0 41.0" fill="url(#gradient11)" fill-rule="evenodd" stroke="none"/>
    <path d="M5.0 39.0 L4.0 41.0 -4.0 41.0 -5.0 39.0 5.0 39.0" fill="url(#gradient12)" fill-rule="evenodd" stroke="none"/>
    <path d="M-4.0 37.0 L-4.0 33.0 4.0 33.0 4.0 37.0 -4.0 37.0" fill="url(#gradient13)" fill-rule="evenodd" stroke="none"/>
    <path d="M6.6 67.1 L3.1 68.85 -0.5 70.25 -0.8 69.35 Q3.5 67.85 6.3 66.15 L6.6 67.1" fill="url(#gradient14)" fill-rule="evenodd" stroke="none"/>
    <path d="M4.0 37.0 L6.0 37.0 6.0 39.0 5.0 39.0 -5.0 39.0 -6.0 39.0 -6.0 37.0 -4.0 37.0 4.0 37.0" fill="url(#gradient15)" fill-rule="evenodd" stroke="none"/>
    <path d="M7.0 -68.0 L8.0 -63.0 Q3.25 -43.3 1.6 -18.75 -0.1 6.25 0.0 33.0 L-4.0 33.0 Q-4.0 -35.45 7.0 -68.0" fill="url(#gradient16)" fill-rule="evenodd" stroke="none"/>
    <path d="M8.0 -63.0 L12.0 -66.0 Q6.4 -43.55 4.3 -3.45 L0.5 -7.5 1.15 -17.6 Q3.2 -43.3 8.0 -63.0" fill="url(#gradient17)" fill-rule="evenodd" stroke="none"/>
    <path d="M4.4 -5.0 Q3.85 1.8 3.8 15.65 3.75 27.9 4.0 33.0 L0.0 33.0 Q-0.4 11.85 0.5 -7.5 2.85 -5.35 4.4 -5.0" fill="url(#gradient18)" fill-rule="evenodd" stroke="none"/>
    <path d="M13.0 -73.0 L12.0 -66.0 8.0 -63.0 7.0 -68.0 Q9.3 -71.2 13.0 -73.0" fill="#919191" fill-rule="evenodd" stroke="none"/>
    <path d="M4.0 44.0 L-4.0 44.0 -4.0 43.0 4.0 43.0 4.0 44.0 M4.0 37.0 L-4.0 37.0 -4.0 36.0 4.0 36.0 4.0 37.0" fill="#000000" fill-opacity="0.15294118" fill-rule="evenodd" stroke="none"/>
  </g>
  <defs>
    <radialGradient cx="0" cy="0" gradientTransform="matrix(0.0029, -0.0051, 0.006, 0.0034, 10.8, 64.45)" gradientUnits="userSpaceOnUse" id="gradient0" r="819.2" spreadMethod="pad">
      <stop offset="0.21176470588235294" stop-color="#89423d"/>
      <stop offset="0.6588235294117647" stop-color="#733738"/>
      <stop offset="0.7764705882352941" stop-color="#583634"/>
    </radialGradient>
    <radialGradient cx="0" cy="0" gradientTransform="matrix(-0.001, -0.0049, 0.0024, -5.0E-4, 13.55, 56.95)" gradientUnits="userSpaceOnUse" id="gradient1" r="819.2" spreadMethod="pad">
      <stop offset="0.23137254901960785" stop-color="#954040"/>
      <stop offset="1.0" stop-color="#38201d"/>
    </radialGradient>
    <radialGradient cx="0" cy="0" fx="-1388.8000000000002" fy="0" gradientTransform="matrix(0.0033, 0.0078, -0.0051, 0.0021, 3.9, 70.6)" gradientUnits="userSpaceOnUse" id="gradient2" r="819.2" spreadMethod="pad">
      <stop offset="0.08627450980392157" stop-color="#dbdbdb"/>
      <stop offset="0.3058823529411765" stop-color="#c2c2c2"/>
      <stop offset="0.6392156862745098" stop-color="#9d9393"/>
      <stop offset="0.796078431372549" stop-color="#787878"/>
      <stop offset="0.9294117647058824" stop-color="#919191"/>
    </radialGradient>
    <radialGradient cx="0" cy="0" gradientTransform="matrix(0.0077, -7.0E-4, 0.0056, 0.0578, 0.0, 42.0)" gradientUnits="userSpaceOnUse" id="gradient3" r="819.2" spreadMethod="pad">
      <stop offset="0.00392156862745098" stop-color="#727ea3"/>
      <stop offset="0.596078431372549" stop-color="#373a48"/>
      <stop offset="0.7686274509803922" stop-color="#4d5964"/>
    </radialGradient>
    <linearGradient gradientTransform="matrix(0.0017, 0.0, 0.0, 0.0031, -2.4, 47.1)" gradientUnits="userSpaceOnUse" id="gradient4" spreadMethod="pad" x1="-819.2" x2="819.2">
      <stop offset="0.0" stop-color="#3e4764" stop-opacity="0.0"/>
      <stop offset="1.0" stop-color="#282f48"/>
    </linearGradient>
    <linearGradient gradientTransform="matrix(0.0017, -4.0E-4, 7.0E-4, 0.0031, -1.9, 53.25)" gradientUnits="userSpaceOnUse" id="gradient5" spreadMethod="pad" x1="-819.2" x2="819.2">
      <stop offset="0.0" stop-color="#3e4764" stop-opacity="0.0"/>
      <stop offset="1.0" stop-color="#282f48"/>
    </linearGradient>
    <linearGradient gradientTransform="matrix(0.0018, -4.0E-4, 7.0E-4, 0.0032, -1.15, 59.4)" gradientUnits="userSpaceOnUse" id="gradient6" spreadMethod="pad" x1="-819.2" x2="819.2">
      <stop offset="0.0" stop-color="#3e4764" stop-opacity="0.0"/>
      <stop offset="1.0" stop-color="#282f48"/>
    </linearGradient>
    <radialGradient cx="0" cy="0" gradientTransform="matrix(0.0067, -0.0031, 9.0E-4, 0.0021, 1.4, 60.85)" gradientUnits="userSpaceOnUse" id="gradient7" r="819.2" spreadMethod="pad">
      <stop offset="0.01568627450980392" stop-color="#ad5f52"/>
      <stop offset="0.6705882352941176" stop-color="#5f3636"/>
      <stop offset="0.8745098039215686" stop-color="#6d6767"/>
    </radialGradient>
    <radialGradient cx="0" cy="0" gradientTransform="matrix(0.0067, -0.0012, 6.0E-4, 0.0032, 2.1, 64.3)" gradientUnits="userSpaceOnUse" id="gradient8" r="819.2" spreadMethod="pad">
      <stop offset="0.01568627450980392" stop-color="#ad5f52"/>
      <stop offset="0.6705882352941176" stop-color="#5f3636"/>
      <stop offset="0.8745098039215686" stop-color="#6d6767"/>
    </radialGradient>
    <radialGradient cx="0" cy="0" gradientTransform="matrix(0.0043, 0.0, 0.0, 0.0043, 14.4, 58.25)" gradientUnits="userSpaceOnUse" id="gradient9" r="819.2" spreadMethod="pad">
      <stop offset="0.0" stop-color="#f4f4f4"/>
      <stop offset="0.20784313725490197" stop-color="#bfbfbf"/>
      <stop offset="0.32941176470588235" stop-color="#a79b98"/>
      <stop offset="0.6235294117647059" stop-color="#434343"/>
      <stop offset="0.796078431372549" stop-color="#636363"/>
    </radialGradient>
    <radialGradient cx="0" cy="0" gradientTransform="matrix(0.0069, -0.0014, 4.0E-4, 0.0021, 1.8, 62.95)" gradientUnits="userSpaceOnUse" id="gradient10" r="819.2" spreadMethod="pad">
      <stop offset="0.01568627450980392" stop-color="#ad5f52"/>
      <stop offset="0.6705882352941176" stop-color="#5f3636"/>
      <stop offset="0.8745098039215686" stop-color="#6d6767"/>
    </radialGradient>
    <linearGradient gradientTransform="matrix(0.0049, 0.0, 0.0, 0.0024, 0.0, 43.0)" gradientUnits="userSpaceOnUse" id="gradient11" spreadMethod="pad" x1="-819.2" x2="819.2">
      <stop offset="0.0" stop-color="#919191"/>
      <stop offset="0.09019607843137255" stop-color="#787878"/>
      <stop offset="0.23529411764705882" stop-color="#a49393"/>
      <stop offset="0.3686274509803922" stop-color="#c2c2c2"/>
      <stop offset="0.4666666666666667" stop-color="#dbdbdb"/>
      <stop offset="0.5607843137254902" stop-color="#dbdbdb"/>
      <stop offset="0.6509803921568628" stop-color="#c2c2c2"/>
      <stop offset="0.7647058823529411" stop-color="#a49393"/>
      <stop offset="0.9137254901960784" stop-color="#787878"/>
      <stop offset="1.0" stop-color="#919191"/>
    </linearGradient>
    <radialGradient cx="0" cy="0" gradientTransform="matrix(0.0, -0.0048, 0.0079, 0.0, -0.05, 38.95)" gradientUnits="userSpaceOnUse" id="gradient12" r="819.2" spreadMethod="pad">
      <stop offset="0.15294117647058825" stop-color="#808080"/>
      <stop offset="0.596078431372549" stop-color="#4a4a4a"/>
      <stop offset="0.796078431372549" stop-color="#636363"/>
    </radialGradient>
    <linearGradient gradientTransform="matrix(0.0049, 0.0, 0.0, 0.0024, 0.0, 35.0)" gradientUnits="userSpaceOnUse" id="gradient13" spreadMethod="pad" x1="-819.2" x2="819.2">
      <stop offset="0.0392156862745098" stop-color="#7b7775"/>
      <stop offset="0.25882352941176473" stop-color="#c2c2c2"/>
      <stop offset="0.6901960784313725" stop-color="#d5d5d5"/>
      <stop offset="0.8" stop-color="#c2c2c2"/>
      <stop offset="0.9529411764705882" stop-color="#7b7775"/>
    </linearGradient>
    <linearGradient gradientTransform="matrix(0.0043, -0.0013, 8.0E-4, 0.0027, 2.85, 67.9)" gradientUnits="userSpaceOnUse" id="gradient14" spreadMethod="pad" x1="-819.2" x2="819.2">
      <stop offset="0.0" stop-color="#857250"/>
      <stop offset="0.14901960784313725" stop-color="#716440"/>
      <stop offset="0.27058823529411763" stop-color="#a79b65"/>
      <stop offset="0.4549019607843137" stop-color="#d8d2a7"/>
      <stop offset="0.5647058823529412" stop-color="#d8d2a7"/>
      <stop offset="0.7176470588235294" stop-color="#a9a263"/>
      <stop offset="0.8235294117647058" stop-color="#6c613e"/>
      <stop offset="0.9764705882352941" stop-color="#857250"/>
    </linearGradient>
    <linearGradient gradientTransform="matrix(0.0085, 0.0, 0.0, 0.0012, 0.0, 38.0)" gradientUnits="userSpaceOnUse" id="gradient15" spreadMethod="pad" x1="-819.2" x2="819.2">
      <stop offset="0.0" stop-color="#919191"/>
      <stop offset="0.09019607843137255" stop-color="#787878"/>
      <stop offset="0.23529411764705882" stop-color="#a49393"/>
      <stop offset="0.3686274509803922" stop-color="#c2c2c2"/>
      <stop offset="0.4666666666666667" stop-color="#dbdbdb"/>
      <stop offset="0.5607843137254902" stop-color="#dbdbdb"/>
      <stop offset="0.6509803921568628" stop-color="#c2c2c2"/>
      <stop offset="0.7647058823529411" stop-color="#a49393"/>
      <stop offset="0.9137254901960784" stop-color="#787878"/>
      <stop offset="1.0" stop-color="#919191"/>
    </linearGradient>
    <linearGradient gradientTransform="matrix(0.0368, -0.0323, 0.0394, 0.0448, 2.0, -19.0)" gradientUnits="userSpaceOnUse" id="gradient16" spreadMethod="pad" x1="-819.2" x2="819.2">
      <stop offset="0.0" stop-color="#636363"/>
      <stop offset="0.16470588235294117" stop-color="#404040"/>
      <stop offset="0.4196078431372549" stop-color="#434343"/>
      <stop offset="0.6549019607843137" stop-color="#4e4e4e"/>
      <stop offset="0.7803921568627451" stop-color="#515151"/>
      <stop offset="0.9607843137254902" stop-color="#434343"/>
    </linearGradient>
    <linearGradient gradientTransform="matrix(0.0221, -0.0237, 0.0275, 0.0258, 17.3, -24.45)" gradientUnits="userSpaceOnUse" id="gradient17" spreadMethod="pad" x1="-819.2" x2="819.2">
      <stop offset="0.08627450980392157" stop-color="#808080"/>
      <stop offset="0.9176470588235294" stop-color="#6d6d6d"/>
    </linearGradient>
    <linearGradient gradientTransform="matrix(0.0, 0.0247, -0.0247, -1.0E-4, 2.5, 12.8)" gradientUnits="userSpaceOnUse" id="gradient18" spreadMethod="pad" x1="-819.2" x2="819.2">
      <stop offset="0.0" stop-color="#515151"/>
      <stop offset="0.08235294117647059" stop-color="#606060"/>
      <stop offset="1.0" stop-color="#787878"/>
    </linearGradient>
  </defs>
</svg>
