<?xml version="1.0" encoding="UTF-8" standalone="no"?>
<svg xmlns:xlink="http://www.w3.org/1999/xlink" height="104.95px" width="102.4px" xmlns="http://www.w3.org/2000/svg">
  <g transform="matrix(1.0, 0.0, 0.0, 1.0, 51.2, 51.5)">
    <path d="M47.8 -51.5 Q50.1 -51.55 50.95 -49.55 51.8 -47.5 49.5 -46.0 46.6 -44.1 44.55 -40.6 L41.65 -34.3 Q37.7 -25.95 26.5 -19.1 27.9 -18.2 28.15 -16.75 L30.2 -16.7 33.45 -17.05 Q34.85 -16.95 35.75 -16.0 36.75 -14.9 36.55 -13.8 36.35 -12.5 34.35 -9.9 32.25 -7.35 29.45 -6.15 29.3 -5.25 27.9 -2.75 L24.95 2.05 24.15 5.05 22.6 8.65 Q23.0 10.55 22.55 13.75 22.1 16.75 21.4 17.95 22.15 20.2 21.2 23.2 20.5 25.5 19.35 26.9 19.2 30.0 16.1 34.2 16.15 36.7 15.6 39.55 14.3 46.65 9.85 51.7 9.15 52.5 8.0 52.55 6.55 52.6 5.8 51.2 L4.55 51.3 Q3.8 52.25 2.7 52.9 1.1 53.85 0.0 53.2 -1.1 53.85 -2.7 52.9 -3.8 52.25 -4.55 51.3 L-5.8 51.2 Q-6.55 52.6 -8.0 52.55 -9.15 52.5 -9.85 51.7 -14.3 46.65 -15.6 39.55 -16.15 36.7 -16.1 34.2 -19.2 30.0 -19.35 26.9 -20.5 25.5 -21.2 23.2 -22.15 20.2 -21.4 17.95 -22.1 16.75 -22.55 13.75 -23.0 10.55 -22.6 8.65 L-24.15 5.05 -24.95 2.05 -27.9 -2.75 Q-29.3 -5.25 -29.45 -6.15 -32.25 -7.35 -34.35 -9.9 -36.35 -12.5 -36.55 -13.8 -36.75 -14.9 -35.75 -16.0 -34.85 -16.95 -33.45 -17.05 L-30.2 -16.7 -28.15 -16.75 Q-27.9 -18.2 -26.5 -19.1 -37.7 -25.95 -41.65 -34.3 L-44.55 -40.6 Q-46.6 -44.1 -49.5 -46.0 -51.8 -47.5 -50.95 -49.55 -50.1 -51.55 -47.8 -51.5 -41.35 -51.4 -33.65 -43.8 -26.45 -36.65 -22.0 -34.6 L-19.65 -34.15 -17.25 -33.25 -15.6 -33.55 Q-15.3 -37.8 -13.2 -41.25 -12.5 -42.4 -11.2 -42.55 -9.7 -42.7 -8.85 -41.1 -6.95 -37.55 -5.05 -35.6 -3.45 -35.55 -2.85 -34.3 L-1.55 -32.3 0.0 -32.5 1.55 -32.3 2.85 -34.3 Q3.45 -35.55 5.05 -35.6 6.95 -37.55 8.85 -41.1 9.7 -42.7 11.2 -42.55 12.5 -42.4 13.2 -41.25 15.3 -37.8 15.6 -33.55 L17.25 -33.25 19.65 -34.15 22.0 -34.6 Q26.45 -36.65 33.65 -43.8 41.35 -51.4 47.8 -51.5" fill="#000000" fill-rule="evenodd" stroke="none"/>
    <path d="M6.0 -33.0 Q9.05 -36.05 11.05 -40.0 13.7 -35.5 13.05 -29.0 L6.0 -29.0 6.0 -33.0" fill="url(#gradient0)" fill-rule="evenodd" stroke="none"/>
    <path d="M-6.0 -29.0 L-13.0 -29.0 Q-13.65 -35.5 -11.0 -40.0 -9.05 -36.05 -6.0 -33.0 L-6.0 -29.0" fill="url(#gradient1)" fill-rule="evenodd" stroke="none"/>
    <path d="M24.45 -8.3 L22.7 -9.3 23.7 -11.45 25.45 -15.0 Q26.75 -14.05 30.35 -14.2 L33.8 -14.4 Q34.3 -13.8 32.4 -11.5 30.2 -8.8 27.0 -8.0 25.8 -7.7 24.45 -8.3" fill="url(#gradient2)" fill-rule="evenodd" stroke="none"/>
    <path d="M-24.45 -8.3 Q-25.8 -7.7 -27.0 -8.0 -30.2 -8.8 -32.4 -11.5 -34.3 -13.8 -33.8 -14.4 L-30.35 -14.2 Q-26.75 -14.05 -25.45 -15.0 L-23.7 -11.45 -22.7 -9.3 -24.45 -8.3" fill="url(#gradient3)" fill-rule="evenodd" stroke="none"/>
    <path d="M12.5 -35.0 Q12.25 -32.4 11.1 -29.05 L10.05 -25.85 Q9.45 -23.95 8.85 -23.1 8.05 -22.1 6.45 -22.8 4.85 -23.55 4.9 -24.85 5.2 -27.5 6.4 -30.8 7.6 -34.15 9.1 -36.2 10.75 -38.3 11.75 -38.0 12.7 -37.6 12.5 -35.0" fill="url(#gradient4)" fill-rule="evenodd" stroke="none"/>
    <path d="M-12.4 -35.0 Q-12.6 -37.6 -11.65 -38.0 -10.65 -38.3 -9.0 -36.2 -7.5 -34.15 -6.3 -30.8 -5.1 -27.5 -4.8 -24.85 -4.75 -23.55 -6.35 -22.8 -7.95 -22.1 -8.75 -23.1 -9.35 -23.95 -9.95 -25.85 L-11.0 -29.05 Q-12.15 -32.4 -12.4 -35.0" fill="url(#gradient5)" fill-rule="evenodd" stroke="none"/>
    <path d="M20.0 -20.0 Q24.45 -17.9 25.6 -16.5 26.1 -15.9 25.9 -9.4 L27.0 -8.0 Q27.3 -7.0 26.3 -5.05 L22.0 2.0 20.0 -20.0" fill="url(#gradient6)" fill-rule="evenodd" stroke="none"/>
    <path d="M-20.0 -20.0 L-22.0 2.0 -26.3 -5.05 Q-27.3 -7.0 -27.0 -8.0 L-25.9 -9.4 Q-26.1 -15.9 -25.6 -16.5 -24.45 -17.9 -20.0 -20.0" fill="url(#gradient7)" fill-rule="evenodd" stroke="none"/>
    <path d="M4.1 -31.45 L4.85 -32.8 Q5.15 -33.2 6.0 -33.0 6.15 -32.15 8.4 -30.7 9.6 -29.95 11.05 -29.75 12.15 -29.6 12.85 -29.75 L14.1 -30.6 Q14.85 -31.2 15.95 -31.05 16.75 -30.9 19.6 -26.05 L23.0 -20.0 Q24.35 -14.75 24.0 -13.9 L22.55 -11.5 Q23.05 -10.0 21.75 -5.75 22.85 -5.0 22.75 -1.45 22.65 1.85 21.8 4.15 20.7 7.1 20.0 8.05 20.4 11.25 20.1 13.05 L19.4 16.1 Q18.75 18.1 18.0 19.0 L10.0 41.0 8.0 42.0 0.0 42.0 -8.0 42.0 -10.0 41.0 -18.0 19.0 Q-18.75 18.1 -19.4 16.1 L-20.1 13.05 Q-20.4 11.25 -20.0 8.05 -20.7 7.1 -21.8 4.15 -22.65 1.85 -22.75 -1.45 -22.85 -5.0 -21.75 -5.75 -23.05 -10.0 -22.55 -11.5 L-24.0 -13.9 Q-24.35 -14.75 -23.0 -20.0 L-19.6 -26.05 Q-16.75 -30.9 -15.95 -31.05 -14.85 -31.2 -14.1 -30.6 L-12.85 -29.75 Q-12.15 -29.6 -11.05 -29.75 -9.6 -29.95 -8.4 -30.7 -6.15 -32.15 -6.0 -33.0 -5.15 -33.2 -4.85 -32.8 L-4.1 -31.45 Q-3.35 -30.4 -2.15 -29.8 -1.9 -29.65 -1.35 -29.8 L0.0 -30.0 1.35 -29.8 Q1.9 -29.65 2.15 -29.8 3.35 -30.4 4.1 -31.45" fill="url(#gradient8)" fill-rule="evenodd" stroke="none"/>
    <path d="M-17.35 10.6 Q-14.95 12.3 -13.7 13.95 -13.1 17.7 -14.5 19.05 -15.95 20.45 -18.45 18.35 L-19.4 16.1 -20.1 13.05 Q-20.4 11.25 -20.0 8.1 -19.4 9.2 -17.35 10.6" fill="url(#gradient9)" fill-rule="evenodd" stroke="none"/>
    <path d="M20.0 8.1 Q20.4 11.25 20.1 13.05 L19.4 16.1 18.45 18.35 Q15.95 20.45 14.5 19.05 13.1 17.7 13.7 13.95 14.95 12.3 17.35 10.6 19.4 9.2 20.0 8.1" fill="url(#gradient10)" fill-rule="evenodd" stroke="none"/>
    <path d="M9.45 -9.7 Q13.25 -2.35 13.25 8.0 13.25 18.35 9.45 25.65 5.65 33.0 0.25 33.0 -5.15 33.0 -8.95 25.65 -12.75 18.35 -12.75 8.0 -12.75 -2.35 -8.95 -9.7 -5.15 -17.05 0.25 -17.05 5.65 -17.05 9.45 -9.7" fill="url(#gradient11)" fill-rule="evenodd" stroke="none"/>
    <path d="M4.55 -28.5 Q5.75 -27.6 3.75 -25.1 1.75 -22.6 0.0 -22.6 -1.65 -22.6 -3.65 -25.0 -5.7 -27.5 -4.55 -28.5 -4.1 -28.85 -2.95 -27.45 -1.55 -25.8 0.0 -25.7 1.55 -25.8 2.95 -27.45 4.1 -28.8 4.55 -28.5" fill="url(#gradient12)" fill-rule="evenodd" stroke="none"/>
    <path d="M4.85 -32.8 Q5.15 -33.2 6.0 -33.0 6.15 -32.15 8.4 -30.7 9.6 -29.95 11.05 -29.75 12.15 -29.6 12.85 -29.75 L14.1 -30.6 Q14.85 -31.2 15.95 -31.05 16.75 -30.9 19.6 -26.05 L23.0 -20.0 Q24.35 -14.75 24.0 -13.9 L22.55 -11.5 Q23.05 -10.0 21.75 -5.75 22.85 -5.0 22.75 -1.45 22.65 1.85 21.8 4.15 20.7 7.1 20.0 8.05 20.4 11.25 20.1 13.05 L19.4 16.1 Q18.75 18.1 18.0 19.0 L10.0 41.0 8.0 42.0 0.0 42.0 -8.0 42.0 -10.0 41.0 -18.0 19.0 Q-18.75 18.1 -19.4 16.1 L-20.1 13.05 Q-20.4 11.25 -20.0 8.05 -20.7 7.1 -21.8 4.15 -22.65 1.85 -22.75 -1.45 -22.85 -5.0 -21.75 -5.75 -23.05 -10.0 -22.55 -11.5 L-24.0 -13.9 Q-24.35 -14.75 -23.0 -20.0 L-19.6 -26.05 Q-16.75 -30.9 -15.95 -31.05 -14.85 -31.2 -14.1 -30.6 L-12.85 -29.75 Q-12.15 -29.6 -11.05 -29.75 -9.6 -29.95 -8.4 -30.7 -6.15 -32.15 -6.0 -33.0 -5.15 -33.2 -4.85 -32.8 L-4.1 -31.45 Q-3.35 -30.4 -2.15 -29.8 -1.9 -29.65 -1.35 -29.8 L0.0 -30.0 1.35 -29.8 Q1.9 -29.65 2.15 -29.8 3.35 -30.4 4.1 -31.45 L4.85 -32.8" fill="url(#gradient13)" fill-rule="evenodd" stroke="none"/>
    <path d="M-9.8 2.95 Q-19.15 -13.15 -19.1 -14.95 -19.0 -18.7 -16.35 -19.5 -14.1 -20.2 -12.85 -18.9 -6.55 -12.35 -5.6 -5.7 -4.7 0.6 -8.95 3.2 L-9.8 2.95" fill="url(#gradient14)" fill-rule="evenodd" stroke="none"/>
    <path d="M8.95 3.2 Q4.7 0.6 5.6 -5.7 6.55 -12.35 12.85 -18.9 14.1 -20.2 16.35 -19.5 19.0 -18.7 19.1 -14.95 19.15 -13.15 9.8 2.95 L8.95 3.2" fill="url(#gradient15)" fill-rule="evenodd" stroke="none"/>
    <path d="M8.95 3.2 L9.8 2.95 M-8.95 3.2 L-9.8 2.95" fill="none" stroke="#4e4759" stroke-linecap="butt" stroke-linejoin="round" stroke-width="0.25"/>
    <path d="M9.8 2.95 Q19.15 -13.15 19.1 -14.95 19.0 -18.7 16.35 -19.5 14.1 -20.2 12.85 -18.9 6.55 -12.35 5.6 -5.7 4.7 0.6 8.95 3.2" fill="none" stroke="url(#gradient16)" stroke-linecap="butt" stroke-linejoin="round" stroke-width="0.25"/>
    <path d="M-9.8 2.95 Q-19.15 -13.15 -19.1 -14.95 -19.0 -18.7 -16.35 -19.5 -14.1 -20.2 -12.85 -18.9 -6.55 -12.35 -5.6 -5.7 -4.7 0.6 -8.95 3.2" fill="none" stroke="url(#gradient17)" stroke-linecap="butt" stroke-linejoin="round" stroke-width="0.25"/>
    <path d="M14.1 -30.6 Q14.85 -31.2 15.95 -31.05 L17.9 -28.8 21.6 -22.65 23.0 -20.0 23.6 -17.6 Q19.65 -16.4 15.95 -20.1 11.9 -24.2 13.4 -30.0 L13.45 -30.05 14.1 -30.6" fill="url(#gradient18)" fill-rule="evenodd" stroke="none"/>
    <path d="M-14.1 -30.6 L-13.45 -30.05 -13.4 -30.0 Q-11.9 -24.2 -15.95 -20.1 -19.65 -16.4 -23.6 -17.6 L-23.0 -20.0 -21.6 -22.65 -17.9 -28.8 -15.95 -31.05 Q-14.85 -31.2 -14.1 -30.6" fill="url(#gradient19)" fill-rule="evenodd" stroke="none"/>
    <path d="M17.0 -6.0 Q16.45 -8.7 16.9 -9.6 17.2 -10.25 19.0 -11.0 19.7 -10.2 20.0 -9.0 L19.0 -7.0 18.25 -6.25 17.0 -6.0 M-20.0 -9.0 Q-19.7 -10.2 -19.0 -11.0 -17.2 -10.25 -16.9 -9.6 -16.45 -8.7 -17.0 -6.0 L-18.25 -6.25 -19.0 -7.0 -20.0 -9.0" fill="#000000" fill-opacity="0.3019608" fill-rule="evenodd" stroke="none"/>
    <path d="M18.0 -14.0 Q18.75 -14.25 19.0 -14.0 20.15 -12.7 20.2 -10.25 20.2 -7.75 19.0 -5.0 20.05 -3.6 19.85 -0.5 19.7 2.1 19.0 4.0 18.4 5.55 16.3 7.8 L14.0 10.0 12.95 10.25 Q12.2 10.1 12.15 9.25 12.8 6.35 13.7 4.8 L14.9 2.65 Q15.2 1.9 14.7 1.25 14.2 0.55 13.4 0.85 L11.55 2.2 Q10.35 3.2 10.0 3.0 8.9 -2.55 11.1 -7.25 13.35 -12.0 18.0 -14.0 M17.0 -6.0 L18.25 -6.25 19.0 -7.0 20.0 -9.0 Q19.7 -10.2 19.0 -11.0 17.2 -10.25 16.9 -9.6 16.45 -8.7 17.0 -6.0" fill="url(#gradient20)" fill-rule="evenodd" stroke="none"/>
    <path d="M-18.0 -14.0 Q-13.35 -12.0 -11.1 -7.25 -8.9 -2.55 -10.0 3.0 -10.35 3.2 -11.55 2.2 L-13.4 0.85 Q-14.2 0.55 -14.7 1.25 -15.2 1.9 -14.9 2.65 L-13.7 4.8 Q-12.8 6.35 -12.15 9.25 -12.2 10.1 -12.95 10.25 L-14.0 10.0 -16.3 7.8 Q-18.4 5.55 -19.0 4.0 -19.7 2.1 -19.85 -0.5 -20.05 -3.6 -19.0 -5.0 -20.2 -7.75 -20.2 -10.25 -20.15 -12.7 -19.0 -14.0 -18.75 -14.25 -18.0 -14.0 M-20.0 -9.0 L-19.0 -7.0 -18.25 -6.25 -17.0 -6.0 Q-16.45 -8.7 -16.9 -9.6 -17.2 -10.25 -19.0 -11.0 -19.7 -10.2 -20.0 -9.0" fill="url(#gradient21)" fill-rule="evenodd" stroke="none"/>
    <path d="M6.55 16.5 Q6.15 17.85 6.35 22.05 6.5 25.9 5.9 26.95 5.25 28.05 4.2 28.55 L2.5 29.55 Q2.2 29.9 1.4 31.7 0.85 33.0 0.0 33.0 -0.85 33.0 -1.4 31.7 -2.2 29.9 -2.5 29.55 L-4.2 28.55 Q-5.25 28.05 -5.9 26.95 -6.5 25.9 -6.35 22.05 -6.15 17.85 -6.55 16.5 L-6.95 15.65 -7.0 15.0 Q-6.6 14.75 -6.0 16.0 L-3.35 23.25 Q-2.55 24.65 -1.85 24.55 -1.15 24.45 -1.0 23.0 -0.9 21.75 -0.6 21.4 L-0.35 21.0 -0.3 19.5 Q-0.25 19.0 0.0 19.0 0.25 19.0 0.3 19.5 L0.35 21.0 0.6 21.4 Q0.9 21.75 1.0 23.0 1.15 24.45 1.85 24.55 2.55 24.65 3.35 23.25 L6.0 16.0 Q6.6 14.75 7.0 15.0 L6.95 15.65 6.55 16.5" fill="url(#gradient22)" fill-rule="evenodd" stroke="none"/>
    <path d="M1.05 -6.0 L0.8 -4.75 Q0.55 -4.1 0.0 -4.1 -0.55 -4.1 -0.8 -4.75 L-1.05 -6.0 Q-1.2 -7.85 -2.2 -10.1 -3.0 -12.1 -3.05 -15.8 L-3.0 -17.0 Q-2.5 -17.4 -1.4 -19.35 -0.45 -21.0 0.0 -21.0 0.45 -21.0 1.4 -19.35 2.5 -17.4 3.0 -17.0 L3.05 -15.8 Q3.0 -12.1 2.2 -10.1 1.2 -7.85 1.05 -6.0" fill="url(#gradient23)" fill-rule="evenodd" stroke="none"/>
    <path d="M1.1 -15.45 Q0.65 -14.7 0.0 -14.7 -0.65 -14.7 -1.15 -15.45 -1.6 -16.1 -1.6 -17.1 -1.6 -18.15 -1.15 -18.85 -0.65 -19.5 0.0 -19.5 L1.1 -18.85 Q1.6 -18.15 1.6 -17.1 1.6 -16.1 1.1 -15.45" fill="url(#gradient24)" fill-rule="evenodd" stroke="none"/>
    <path d="M15.7 27.4 L16.0 23.0 16.75 20.85 Q17.7 18.6 18.8 17.95 19.55 20.2 18.75 22.65 17.9 25.1 15.7 27.4" fill="url(#gradient25)" fill-rule="evenodd" stroke="none"/>
    <path d="M-16.0 23.0 L-15.7 27.4 Q-17.9 25.1 -18.75 22.65 -19.55 20.2 -18.8 17.95 -17.7 18.6 -16.75 20.85 L-16.0 23.0" fill="url(#gradient26)" fill-rule="evenodd" stroke="none"/>
    <path d="M13.0 34.0 Q12.3 32.15 12.55 30.45 12.8 28.75 13.6 26.7 14.65 23.85 16.0 23.0 17.35 25.55 16.55 28.25 15.8 30.75 13.0 34.0" fill="url(#gradient27)" fill-rule="evenodd" stroke="none"/>
    <path d="M-16.55 28.25 Q-17.35 25.55 -16.0 23.0 -14.65 23.85 -13.6 26.7 -12.8 28.75 -12.55 30.45 -12.3 32.15 -13.0 34.0 -15.8 30.75 -16.55 28.25" fill="url(#gradient28)" fill-rule="evenodd" stroke="none"/>
    <path d="M5.6 40.25 Q5.75 39.75 6.55 38.95 L8.05 37.8 Q9.95 40.4 8.6 44.45 7.3 48.3 4.95 48.8 L4.5 46.3 Q4.15 44.65 5.6 40.25" fill="url(#gradient29)" fill-rule="evenodd" stroke="none"/>
    <path d="M-8.05 37.8 L-6.55 38.95 Q-5.75 39.75 -5.6 40.25 -4.15 44.65 -4.5 46.3 L-4.95 48.8 Q-7.3 48.3 -8.6 44.45 -9.95 40.4 -8.05 37.8" fill="url(#gradient30)" fill-rule="evenodd" stroke="none"/>
    <path d="M5.0 42.0 Q4.9 45.0 3.9 47.4 2.85 49.95 1.15 50.95 0.45 49.45 0.2 46.05 L0.1 42.0 1.8 40.2 Q2.4 39.45 3.25 39.35 3.65 39.3 4.05 40.0 L5.0 42.0" fill="url(#gradient31)" fill-rule="evenodd" stroke="none"/>
    <path d="M-3.25 39.35 Q-2.4 39.45 -1.8 40.2 L-0.1 42.0 -0.2 46.05 Q-0.45 49.45 -1.15 50.95 -2.85 49.95 -3.9 47.4 -4.9 45.0 -5.0 42.0 L-4.05 40.0 Q-3.65 39.3 -3.25 39.35" fill="url(#gradient32)" fill-rule="evenodd" stroke="none"/>
    <path d="M12.0 28.0 Q14.4 32.5 13.15 39.1 11.95 45.65 8.0 50.0 10.1 42.75 9.0 37.0 9.5 34.3 10.15 31.85 11.4 26.9 12.0 28.0" fill="url(#gradient33)" fill-rule="evenodd" stroke="none"/>
    <path d="M-10.15 31.85 Q-9.5 34.3 -9.0 37.0 -10.1 42.75 -8.0 50.0 -11.95 45.65 -13.15 39.1 -14.4 32.5 -12.0 28.0 -11.4 26.9 -10.15 31.85" fill="url(#gradient34)" fill-rule="evenodd" stroke="none"/>
    <path d="M16.8 -30.35 L20.05 -31.6 22.6 -32.15 Q27.15 -34.0 35.4 -42.0 42.3 -48.75 48.0 -49.0 48.65 -49.05 48.65 -48.7 L48.0 -48.0 Q44.4 -45.3 42.35 -41.8 L39.4 -35.4 Q35.3 -26.85 23.0 -20.0 21.0 -20.15 18.7 -23.8 16.4 -27.55 16.8 -30.35" fill="url(#gradient35)" fill-rule="evenodd" stroke="none"/>
    <path d="M-48.0 -49.0 Q-42.3 -48.75 -35.4 -42.0 -27.15 -34.0 -22.6 -32.15 L-20.05 -31.6 -16.8 -30.35 Q-16.4 -27.55 -18.7 -23.8 -21.0 -20.15 -23.0 -20.0 -35.3 -26.85 -39.4 -35.4 L-42.35 -41.8 Q-44.4 -45.3 -48.0 -48.0 L-48.65 -48.7 Q-48.65 -49.05 -48.0 -49.0" fill="url(#gradient36)" fill-rule="evenodd" stroke="none"/>
    <path d="M21.55 -29.3 Q24.75 -31.45 27.5 -32.25 30.35 -33.15 31.1 -32.25 31.8 -31.25 30.05 -28.95 28.35 -26.85 25.1 -24.75 22.4 -23.0 19.95 -22.0 L18.7 -23.8 Q17.75 -25.35 17.25 -26.75 L18.3 -27.45 21.55 -29.3" fill="url(#gradient37)" fill-rule="evenodd" stroke="none"/>
    <path d="M-17.25 -26.75 Q-17.75 -25.35 -18.7 -23.8 L-19.95 -22.0 Q-22.4 -23.0 -25.1 -24.75 -28.35 -26.85 -30.05 -28.95 -31.8 -31.25 -31.1 -32.25 -30.35 -33.15 -27.5 -32.25 -24.75 -31.45 -21.55 -29.3 L-18.3 -27.45 -17.25 -26.75" fill="url(#gradient38)" fill-rule="evenodd" stroke="none"/>
    <path d="M-22.6 -32.0 L-22.3 -32.2 -20.6 -31.05 Q-19.8 -29.6 -20.35 -27.1 L-17.9 -25.35 -18.15 -24.75 -20.85 -26.85 Q-20.25 -29.35 -20.95 -30.85 L-22.6 -32.0" fill="url(#gradient39)" fill-rule="evenodd" stroke="none"/>
    <path d="M22.3 -32.2 L22.6 -32.0 20.95 -30.85 Q20.25 -29.35 20.85 -26.85 L18.15 -24.75 17.9 -25.35 20.35 -27.1 Q19.8 -29.6 20.6 -31.05 L22.3 -32.2" fill="url(#gradient40)" fill-rule="evenodd" stroke="none"/>
    <path d="M4.45 -25.85 L3.45 -25.05 M5.0 -28.45 Q4.5 -28.0 3.85 -27.85 M2.8 -23.85 L2.3 -23.55 1.8 -23.35 M10.85 4.85 L8.95 7.7 M8.75 12.0 L6.9 13.65 M14.65 12.95 Q13.05 14.45 11.55 14.3 M10.0 8.8 L8.15 10.85 M-5.0 -28.45 Q-4.5 -28.0 -3.85 -27.85 M-4.45 -25.85 L-3.45 -25.05 M-2.8 -23.85 L-2.3 -23.55 -1.8 -23.35 M-10.0 8.8 L-8.15 10.85 M-14.65 12.95 Q-13.05 14.45 -11.55 14.3 M-8.75 12.0 L-6.9 13.65 M-10.85 4.85 L-8.95 7.7" fill="none" stroke="#4e4759" stroke-linecap="butt" stroke-linejoin="round" stroke-width="0.25"/>
    <path d="M10.7 18.65 L9.65 20.2 8.3 21.6 M9.5 22.35 Q8.65 23.6 7.35 24.45 M-10.7 18.65 L-9.65 20.2 -8.3 21.6" fill="none" stroke="#3d3847" stroke-linecap="butt" stroke-linejoin="round" stroke-width="0.25"/>
    <path d="M-9.5 22.35 Q-8.65 23.6 -7.35 24.45" fill="none" stroke="#3f3a49" stroke-linecap="butt" stroke-linejoin="round" stroke-width="0.25"/>
    <path d="M6.55 36.15 Q5.85 38.05 5.4 38.4 M1.9 37.65 L1.2 39.3 M-1.9 37.65 L-1.2 39.3 M-6.55 36.15 Q-5.85 38.05 -5.4 38.4" fill="none" stroke="#29262f" stroke-linecap="butt" stroke-linejoin="round" stroke-width="0.25"/>
  </g>
  <defs>
    <linearGradient gradientTransform="matrix(0.0048, 0.0023, -0.0029, 0.006, 10.65, -34.4)" gradientUnits="userSpaceOnUse" id="gradient0" spreadMethod="pad" x1="-819.2" x2="819.2">
      <stop offset="0.0" stop-color="#443c33"/>
      <stop offset="1.0" stop-color="#2f2926"/>
    </linearGradient>
    <linearGradient gradientTransform="matrix(0.0054, -0.0016, 0.0019, 0.0064, -9.9, -35.4)" gradientUnits="userSpaceOnUse" id="gradient1" spreadMethod="pad" x1="-819.2" x2="819.2">
      <stop offset="0.0" stop-color="#302a27"/>
      <stop offset="1.0" stop-color="#413931"/>
    </linearGradient>
    <radialGradient cx="0" cy="0" fx="48.0" fy="0" gradientTransform="matrix(-8.0E-4, -0.0044, -0.0105, 0.0018, 25.85, -11.95)" gradientUnits="userSpaceOnUse" id="gradient2" r="819.2" spreadMethod="pad">
      <stop offset="0.09019607843137255" stop-color="#584834"/>
      <stop offset="0.8431372549019608" stop-color="#322b23"/>
      <stop offset="1.0" stop-color="#1a1511"/>
    </radialGradient>
    <radialGradient cx="0" cy="0" fx="48.0" fy="0" gradientTransform="matrix(8.0E-4, -0.0044, 0.0105, 0.0018, -25.85, -11.95)" gradientUnits="userSpaceOnUse" id="gradient3" r="819.2" spreadMethod="pad">
      <stop offset="0.09019607843137255" stop-color="#5a4d3a"/>
      <stop offset="0.8431372549019608" stop-color="#29231d"/>
      <stop offset="1.0" stop-color="#211b16"/>
    </radialGradient>
    <radialGradient cx="0" cy="0" fx="19.200000000000003" fy="0" gradientTransform="matrix(-0.0042, -0.0012, 0.0035, -0.0123, 9.8, -31.75)" gradientUnits="userSpaceOnUse" id="gradient4" r="819.2" spreadMethod="pad">
      <stop offset="0.0" stop-color="#f4f4f4" stop-opacity="0.4"/>
      <stop offset="0.13333333333333333" stop-color="#e0dcd6" stop-opacity="0.4"/>
      <stop offset="0.6823529411764706" stop-color="#b3a784" stop-opacity="0.0"/>
    </radialGradient>
    <radialGradient cx="0" cy="0" fx="19.200000000000003" fy="0" gradientTransform="matrix(0.0042, -0.0012, -0.0035, -0.0123, -9.7, -31.75)" gradientUnits="userSpaceOnUse" id="gradient5" r="819.2" spreadMethod="pad">
      <stop offset="0.0" stop-color="#f4f4f4" stop-opacity="0.4"/>
      <stop offset="0.13333333333333333" stop-color="#e0dcd6" stop-opacity="0.4"/>
      <stop offset="0.6823529411764706" stop-color="#b3a784" stop-opacity="0.0"/>
    </radialGradient>
    <radialGradient cx="0" cy="0" fx="-1548.8000000000002" fy="0" gradientTransform="matrix(-0.0072, 0.0, 0.0, 0.0136, 21.35, -9.15)" gradientUnits="userSpaceOnUse" id="gradient6" r="819.2" spreadMethod="pad">
      <stop offset="0.25882352941176473" stop-color="#584e5c"/>
      <stop offset="0.6392156862745098" stop-color="#4e4055"/>
      <stop offset="0.9686274509803922" stop-color="#35333e"/>
    </radialGradient>
    <radialGradient cx="0" cy="0" fx="-1548.8000000000002" fy="0" gradientTransform="matrix(0.0072, 0.0, 0.0, 0.0136, -21.35, -9.15)" gradientUnits="userSpaceOnUse" id="gradient7" r="819.2" spreadMethod="pad">
      <stop offset="0.25882352941176473" stop-color="#57505a"/>
      <stop offset="0.6392156862745098" stop-color="#45394d"/>
      <stop offset="0.9686274509803922" stop-color="#2e2932"/>
    </radialGradient>
    <radialGradient cx="0" cy="0" fx="345.6" fy="0" gradientTransform="matrix(0.0, -0.0577, 0.0317, 0.0, 0.0, 0.0)" gradientUnits="userSpaceOnUse" id="gradient8" r="819.2" spreadMethod="pad">
      <stop offset="0.0392156862745098" stop-color="#9a9aab"/>
      <stop offset="0.3568627450980392" stop-color="#9691a6"/>
      <stop offset="0.5333333333333333" stop-color="#675f76"/>
      <stop offset="0.7764705882352941" stop-color="#554b5f"/>
      <stop offset="1.0" stop-color="#28272e"/>
    </radialGradient>
    <linearGradient gradientTransform="matrix(-8.0E-4, 0.002, 0.0034, 0.0014, -15.7, 11.65)" gradientUnits="userSpaceOnUse" id="gradient9" spreadMethod="pad" x1="-819.2" x2="819.2">
      <stop offset="0.0" stop-color="#362743" stop-opacity="0.6627451"/>
      <stop offset="1.0" stop-color="#8e75b5" stop-opacity="0.0"/>
    </linearGradient>
    <linearGradient gradientTransform="matrix(8.0E-4, 0.002, -0.0034, 0.0014, 15.7, 11.65)" gradientUnits="userSpaceOnUse" id="gradient10" spreadMethod="pad" x1="-819.2" x2="819.2">
      <stop offset="0.0" stop-color="#362743" stop-opacity="0.6627451"/>
      <stop offset="1.0" stop-color="#9d78b1" stop-opacity="0.0"/>
    </linearGradient>
    <radialGradient cx="0" cy="0" fx="-1120.0" fy="0" gradientTransform="matrix(0.0, -0.0269, 0.0133, 0.0, 0.0, 11.0)" gradientUnits="userSpaceOnUse" id="gradient11" r="819.2" spreadMethod="pad">
      <stop offset="0.0" stop-color="#ffffff" stop-opacity="0.28235295"/>
      <stop offset="0.7764705882352941" stop-color="#ffffff" stop-opacity="0.0"/>
    </radialGradient>
    <linearGradient gradientTransform="matrix(0.0, -0.0073, 0.0067, 0.0, 0.0, -27.1)" gradientUnits="userSpaceOnUse" id="gradient12" spreadMethod="pad" x1="-819.2" x2="819.2">
      <stop offset="0.0" stop-color="#8e8c9d"/>
      <stop offset="0.6666666666666666" stop-color="#9589a0" stop-opacity="0.0"/>
    </linearGradient>
    <linearGradient gradientTransform="matrix(0.0305, 0.0, 0.0, 0.046, 0.0, 4.35)" gradientUnits="userSpaceOnUse" id="gradient13" spreadMethod="pad" x1="-819.2" x2="819.2">
      <stop offset="0.0" stop-color="#000000" stop-opacity="0.3019608"/>
      <stop offset="0.49411764705882355" stop-color="#000000" stop-opacity="0.0"/>
      <stop offset="1.0" stop-color="#000000" stop-opacity="0.3019608"/>
    </linearGradient>
    <radialGradient cx="0" cy="0" gradientTransform="matrix(0.007, -0.0029, 0.0057, 0.0138, -10.65, -10.35)" gradientUnits="userSpaceOnUse" id="gradient14" r="819.2" spreadMethod="pad">
      <stop offset="0.0" stop-color="#ffffff" stop-opacity="0.7019608"/>
      <stop offset="1.0" stop-color="#ffffff" stop-opacity="0.0"/>
    </radialGradient>
    <radialGradient cx="0" cy="0" gradientTransform="matrix(-0.007, -0.0029, -0.0057, 0.0138, 10.65, -10.35)" gradientUnits="userSpaceOnUse" id="gradient15" r="819.2" spreadMethod="pad">
      <stop offset="0.0" stop-color="#ffffff" stop-opacity="0.7019608"/>
      <stop offset="1.0" stop-color="#ffffff" stop-opacity="0.0"/>
    </radialGradient>
    <radialGradient cx="0" cy="0" fx="-1206.4" fy="0" gradientTransform="matrix(0.0097, 0.0029, -0.0048, 0.0162, 12.05, -7.9)" gradientUnits="userSpaceOnUse" id="gradient16" r="819.2" spreadMethod="pad">
      <stop offset="0.403921568627451" stop-color="#7b6d92"/>
      <stop offset="0.792156862745098" stop-color="#463a4b"/>
      <stop offset="1.0" stop-color="#201b25"/>
    </radialGradient>
    <radialGradient cx="0" cy="0" fx="457.6" fy="0" gradientTransform="matrix(0.0115, -0.0037, 0.005, 0.0155, -11.7, -7.85)" gradientUnits="userSpaceOnUse" id="gradient17" r="819.2" spreadMethod="pad">
      <stop offset="0.403921568627451" stop-color="#897591"/>
      <stop offset="0.792156862745098" stop-color="#56465b"/>
      <stop offset="1.0" stop-color="#302932"/>
    </radialGradient>
    <radialGradient cx="0" cy="0" fx="390.40000000000003" fy="0" gradientTransform="matrix(-0.0029, 0.0012, 0.0036, 0.009, 16.75, -24.0)" gradientUnits="userSpaceOnUse" id="gradient18" r="819.2" spreadMethod="pad">
      <stop offset="0.0" stop-color="#e0dcd3" stop-opacity="0.4627451"/>
      <stop offset="0.2" stop-color="#ddd9cf" stop-opacity="0.3529412"/>
      <stop offset="1.0" stop-color="#b3ac98" stop-opacity="0.0"/>
    </radialGradient>
    <radialGradient cx="0" cy="0" fx="390.40000000000003" fy="0" gradientTransform="matrix(0.0029, 0.0012, -0.0036, 0.009, -16.75, -24.0)" gradientUnits="userSpaceOnUse" id="gradient19" r="819.2" spreadMethod="pad">
      <stop offset="0.0" stop-color="#e0dcd3" stop-opacity="0.4627451"/>
      <stop offset="0.2" stop-color="#ddd9cf" stop-opacity="0.3529412"/>
      <stop offset="1.0" stop-color="#b3ac98" stop-opacity="0.0"/>
    </radialGradient>
    <linearGradient gradientTransform="matrix(0.0, 0.0168, -0.0148, 0.0, 14.95, -2.1)" gradientUnits="userSpaceOnUse" id="gradient20" spreadMethod="pad" x1="-819.2" x2="819.2">
      <stop offset="0.0" stop-color="#000000"/>
      <stop offset="0.596078431372549" stop-color="#141218"/>
      <stop offset="1.0" stop-color="#4d4352"/>
    </linearGradient>
    <linearGradient gradientTransform="matrix(0.0, 0.0168, 0.0148, 0.0, -14.95, -2.1)" gradientUnits="userSpaceOnUse" id="gradient21" spreadMethod="pad" x1="-819.2" x2="819.2">
      <stop offset="0.0" stop-color="#000000"/>
      <stop offset="0.596078431372549" stop-color="#1a0f1c"/>
      <stop offset="1.0" stop-color="#4b4352"/>
    </linearGradient>
    <linearGradient gradientTransform="matrix(-1.0E-4, 0.0121, 0.011, 1.0E-4, 0.1, 23.95)" gradientUnits="userSpaceOnUse" id="gradient22" spreadMethod="pad" x1="-819.2" x2="819.2">
      <stop offset="0.0" stop-color="#0f0b11"/>
      <stop offset="0.4392156862745098" stop-color="#221629"/>
      <stop offset="0.7333333333333333" stop-color="#362e3d"/>
      <stop offset="0.9764705882352941" stop-color="#61546b"/>
    </linearGradient>
    <radialGradient cx="0" cy="0" gradientTransform="matrix(0.004, 0.0, 0.0, 0.0104, 0.0, -12.0)" gradientUnits="userSpaceOnUse" id="gradient23" r="819.2" spreadMethod="pad">
      <stop offset="0.3176470588235294" stop-color="#005680"/>
      <stop offset="0.4549019607843137" stop-color="#0073aa"/>
      <stop offset="0.6666666666666666" stop-color="#00cdf0"/>
      <stop offset="0.9372549019607843" stop-color="#0080aa"/>
    </radialGradient>
    <radialGradient cx="0" cy="0" gradientTransform="matrix(0.0019, 0.0, 0.0, 0.0025, 0.0, -17.1)" gradientUnits="userSpaceOnUse" id="gradient24" r="819.2" spreadMethod="pad">
      <stop offset="0.36470588235294116" stop-color="#ffffff"/>
      <stop offset="0.8980392156862745" stop-color="#ffffff" stop-opacity="0.0"/>
    </radialGradient>
    <radialGradient cx="0" cy="0" gradientTransform="matrix(-0.0031, -9.0E-4, -0.0028, 0.0103, 17.65, 20.85)" gradientUnits="userSpaceOnUse" id="gradient25" r="819.2" spreadMethod="pad">
      <stop offset="0.09803921568627451" stop-color="#6b6354"/>
      <stop offset="1.0" stop-color="#272218"/>
    </radialGradient>
    <radialGradient cx="0" cy="0" gradientTransform="matrix(0.0031, -9.0E-4, 0.0028, 0.0103, -17.65, 20.85)" gradientUnits="userSpaceOnUse" id="gradient26" r="819.2" spreadMethod="pad">
      <stop offset="0.09803921568627451" stop-color="#5b5446"/>
      <stop offset="1.0" stop-color="#373024"/>
    </radialGradient>
    <radialGradient cx="0" cy="0" fx="44.800000000000004" fy="0" gradientTransform="matrix(-0.003, -8.0E-4, -0.0024, 0.0091, 14.85, 27.05)" gradientUnits="userSpaceOnUse" id="gradient27" r="819.2" spreadMethod="pad">
      <stop offset="0.10588235294117647" stop-color="#706450"/>
      <stop offset="1.0" stop-color="#1e1a13"/>
    </radialGradient>
    <radialGradient cx="0" cy="0" fx="44.800000000000004" fy="0" gradientTransform="matrix(0.003, -8.0E-4, 0.0024, 0.0091, -14.85, 27.05)" gradientUnits="userSpaceOnUse" id="gradient28" r="819.2" spreadMethod="pad">
      <stop offset="0.10588235294117647" stop-color="#675a49"/>
      <stop offset="1.0" stop-color="#413829"/>
    </radialGradient>
    <radialGradient cx="0" cy="0" gradientTransform="matrix(-0.0029, -7.0E-4, -0.0021, 0.009, 7.2, 41.0)" gradientUnits="userSpaceOnUse" id="gradient29" r="819.2" spreadMethod="pad">
      <stop offset="0.09803921568627451" stop-color="#786a63"/>
      <stop offset="0.34509803921568627" stop-color="#5b5146"/>
      <stop offset="0.6235294117647059" stop-color="#413a36"/>
      <stop offset="1.0" stop-color="#27221f"/>
    </radialGradient>
    <radialGradient cx="0" cy="0" gradientTransform="matrix(0.0029, -7.0E-4, 0.0021, 0.009, -7.2, 41.0)" gradientUnits="userSpaceOnUse" id="gradient30" r="819.2" spreadMethod="pad">
      <stop offset="0.08235294117647059" stop-color="#786a63"/>
      <stop offset="0.34509803921568627" stop-color="#554c42"/>
      <stop offset="0.6078431372549019" stop-color="#39332f"/>
      <stop offset="1.0" stop-color="#2b2522"/>
    </radialGradient>
    <radialGradient cx="0" cy="0" gradientTransform="matrix(-0.0035, -6.0E-4, -0.0014, 0.0099, 2.75, 42.0)" gradientUnits="userSpaceOnUse" id="gradient31" r="819.2" spreadMethod="pad">
      <stop offset="0.08235294117647059" stop-color="#6b5c54"/>
      <stop offset="0.38823529411764707" stop-color="#4b423a"/>
      <stop offset="1.0" stop-color="#2b2522"/>
    </radialGradient>
    <radialGradient cx="0" cy="0" gradientTransform="matrix(0.0035, -6.0E-4, 0.0014, 0.0099, -2.75, 42.0)" gradientUnits="userSpaceOnUse" id="gradient32" r="819.2" spreadMethod="pad">
      <stop offset="0.08235294117647059" stop-color="#877869"/>
      <stop offset="0.38823529411764707" stop-color="#574f44"/>
      <stop offset="1.0" stop-color="#2b2522"/>
    </radialGradient>
    <radialGradient cx="0" cy="0" gradientTransform="matrix(-0.0065, -4.0E-4, -0.0018, 0.029, 11.75, 33.4)" gradientUnits="userSpaceOnUse" id="gradient33" r="819.2" spreadMethod="pad">
      <stop offset="0.06666666666666667" stop-color="#645753"/>
      <stop offset="0.15294117647058825" stop-color="#4d4339"/>
      <stop offset="1.0" stop-color="#181612"/>
    </radialGradient>
    <radialGradient cx="0" cy="0" gradientTransform="matrix(0.0065, -4.0E-4, 0.0018, 0.029, -11.75, 33.4)" gradientUnits="userSpaceOnUse" id="gradient34" r="819.2" spreadMethod="pad">
      <stop offset="0.06666666666666667" stop-color="#645753"/>
      <stop offset="0.15294117647058825" stop-color="#4d4339"/>
      <stop offset="1.0" stop-color="#1f1b18"/>
    </radialGradient>
    <radialGradient cx="0" cy="0" fx="540.8000000000001" fy="0" gradientTransform="matrix(-0.023, 0.0202, 0.0078, 0.0089, 31.3, -34.1)" gradientUnits="userSpaceOnUse" id="gradient35" r="819.2" spreadMethod="pad">
      <stop offset="0.1411764705882353" stop-color="#635447"/>
      <stop offset="0.396078431372549" stop-color="#393028"/>
      <stop offset="0.7803921568627451" stop-color="#1e1713"/>
      <stop offset="1.0" stop-color="#000000"/>
    </radialGradient>
    <radialGradient cx="0" cy="0" fx="540.8000000000001" fy="0" gradientTransform="matrix(0.023, 0.0202, -0.0078, 0.0089, -31.3, -34.1)" gradientUnits="userSpaceOnUse" id="gradient36" r="819.2" spreadMethod="pad">
      <stop offset="0.1411764705882353" stop-color="#54473c"/>
      <stop offset="0.3764705882352941" stop-color="#3c332a"/>
      <stop offset="0.7803921568627451" stop-color="#211a16"/>
      <stop offset="1.0" stop-color="#000000"/>
    </radialGradient>
    <radialGradient cx="0" cy="0" fx="188.8" fy="0" gradientTransform="matrix(0.0028, 0.0042, 0.0123, -0.0067, 18.1, -24.85)" gradientUnits="userSpaceOnUse" id="gradient37" r="819.2" spreadMethod="pad">
      <stop offset="0.10196078431372549" stop-color="#ffffff" stop-opacity="0.4"/>
      <stop offset="0.39215686274509803" stop-color="#c2b69e" stop-opacity="0.4"/>
      <stop offset="0.7137254901960784" stop-color="#b3a784" stop-opacity="0.0"/>
    </radialGradient>
    <radialGradient cx="0" cy="0" fx="188.8" fy="0" gradientTransform="matrix(-0.0028, 0.0042, -0.0123, -0.0067, -18.1, -24.85)" gradientUnits="userSpaceOnUse" id="gradient38" r="819.2" spreadMethod="pad">
      <stop offset="0.10196078431372549" stop-color="#ffffff" stop-opacity="0.4"/>
      <stop offset="0.39215686274509803" stop-color="#c2b69e" stop-opacity="0.4"/>
      <stop offset="0.7137254901960784" stop-color="#b3a784" stop-opacity="0.0"/>
    </radialGradient>
    <radialGradient cx="0" cy="0" gradientTransform="matrix(0.0069, 0.0, 0.0, 0.0069, -20.2, -27.35)" gradientUnits="userSpaceOnUse" id="gradient39" r="819.2" spreadMethod="pad">
      <stop offset="0.0" stop-color="#8a7866"/>
      <stop offset="0.5058823529411764" stop-color="#483f37"/>
      <stop offset="1.0" stop-color="#2f251e"/>
    </radialGradient>
    <radialGradient cx="0" cy="0" gradientTransform="matrix(-0.0069, 0.0, 0.0, 0.0069, 20.2, -27.35)" gradientUnits="userSpaceOnUse" id="gradient40" r="819.2" spreadMethod="pad">
      <stop offset="0.0" stop-color="#8a7866"/>
      <stop offset="0.5058823529411764" stop-color="#483f37"/>
      <stop offset="1.0" stop-color="#2f251e"/>
    </radialGradient>
  </defs>
</svg>
