<?xml version="1.0" encoding="UTF-8" standalone="no"?>
<svg xmlns:xlink="http://www.w3.org/1999/xlink" height="680.0px" width="480.0px" xmlns="http://www.w3.org/2000/svg">
  <g transform="matrix(1.0, 0.0, 0.0, 1.0, 240.0, 344.0)">
    <path d="M23.75 167.25 Q29.75 165.25 28.5 158.0 L25.75 154.5 21.5 153.5 Q14.25 155.5 16.0 162.5 L19.0 166.5 23.75 167.25 M29.75 146.0 L36.75 145.75 40.75 142.0 Q45.75 151.75 50.5 149.25 50.0 137.25 42.25 137.0 41.5 125.0 32.75 125.5 L33.0 132.0 Q35.5 136.5 37.0 136.75 33.5 137.0 31.0 141.0 L29.75 146.0 M11.5 139.25 L6.5 139.0 Q0.25 143.0 3.0 148.75 5.5 152.0 7.0 152.0 L10.5 152.0 Q15.25 149.25 15.0 147.5 L14.75 142.75 11.5 139.25 M0.25 139.25 Q12.25 135.0 9.25 125.75 5.0 117.25 -1.5 118.5 -11.5 121.0 -10.5 130.5 -8.0 137.5 -5.5 138.0 L0.25 139.25 M15.0 134.75 L19.25 135.25 Q22.5 134.0 23.5 131.5 L23.75 126.5 20.25 122.75 15.5 122.5 Q11.5 124.75 11.5 126.75 L11.75 131.25 15.0 134.75 M6.0 106.75 Q3.75 107.0 2.25 111.0 L2.5 114.75 5.25 118.25 9.25 119.0 Q16.0 117.25 14.5 110.5 11.5 105.75 10.25 106.5 L6.0 106.75 M144.25 96.75 L140.25 96.5 Q135.0 99.0 135.5 101.25 L135.75 106.25 139.5 110.25 143.25 110.75 Q146.5 110.25 148.5 105.75 L148.25 100.75 Q145.75 96.5 144.25 96.75 M189.75 191.25 L187.5 192.0 185.25 193.75 184.25 197.25 185.0 202.5 187.75 206.0 189.75 207.5 192.25 208.5 195.75 208.75 197.75 207.75 Q199.75 207.0 200.75 203.25 L200.0 197.75 198.75 195.5 195.5 192.25 192.5 191.25 189.75 191.25 M168.75 190.75 L166.75 190.75 164.75 191.75 Q157.75 202.75 169.75 207.5 L172.5 207.5 Q182.75 202.25 172.0 191.75 L170.25 191.0 168.75 190.75 M163.0 182.0 L163.0 176.0 160.0 171.5 156.5 170.0 153.75 170.0 Q147.5 171.25 149.0 179.25 150.5 183.25 152.75 184.75 L155.75 185.75 158.5 185.75 Q162.25 184.5 163.0 182.0 M177.0 164.75 L173.0 165.0 Q162.75 170.0 165.5 178.75 165.5 181.75 170.25 187.5 L176.75 191.0 177.75 191.0 179.75 191.5 181.75 191.0 Q190.0 190.75 190.0 177.25 186.0 164.75 177.0 164.75 M167.5 150.75 L164.25 149.5 161.75 149.5 Q157.5 150.5 157.25 152.25 L156.25 157.5 158.0 161.75 161.0 164.25 161.5 164.5 161.75 164.5 163.25 165.0 165.75 165.0 Q170.25 163.75 170.75 161.25 L171.0 156.25 Q169.75 151.75 167.5 150.75 M195.25 170.25 L194.0 171.5 192.75 173.5 192.25 175.5 193.0 180.0 194.0 182.0 195.5 184.0 197.75 185.25 200.5 186.25 203.5 186.25 205.75 185.5 207.5 184.0 209.0 178.25 207.0 173.25 203.0 170.25 202.75 170.0 200.0 169.25 197.0 169.25 195.25 170.25 M191.75 152.0 L188.0 149.0 186.0 148.5 182.0 148.5 181.0 149.25 180.5 149.5 179.25 150.75 177.5 154.25 178.25 158.75 179.25 161.0 182.75 163.75 185.0 164.5 187.75 164.5 190.5 163.5 192.25 162.0 193.5 158.25 Q193.25 153.75 191.75 152.0 M177.0 128.25 Q174.25 128.25 171.25 133.0 L170.0 138.25 170.0 139.75 173.0 140.25 178.75 138.75 182.5 134.25 Q187.0 143.75 195.25 143.0 195.5 132.25 186.75 129.0 L185.0 128.25 183.0 128.0 Q180.0 113.5 170.5 115.5 169.25 123.0 177.0 128.25 M35.25 156.75 L34.5 161.5 Q36.25 166.25 38.0 166.5 L42.5 167.25 Q46.25 166.0 47.0 163.5 L47.25 158.25 44.0 154.25 40.0 153.5 Q36.75 153.75 35.25 156.75 M138.75 112.0 L133.0 111.25 Q123.0 114.5 124.75 124.75 130.5 136.75 137.25 134.25 147.75 129.25 145.0 120.0 143.0 113.75 138.75 112.0 M122.75 99.0 L122.0 99.25 Q120.0 98.75 117.75 103.25 L118.0 109.0 Q120.25 112.5 122.5 112.75 L126.5 112.25 Q134.75 101.75 122.75 99.0 M156.75 114.0 L152.0 113.5 Q149.25 113.75 147.5 117.75 L147.5 123.25 Q148.5 125.75 151.5 127.75 L156.25 128.25 Q163.0 124.5 160.75 118.5 159.75 115.5 156.75 114.0 M53.75 171.5 L49.25 171.0 Q45.0 172.5 44.5 176.0 L45.0 180.75 Q47.5 184.5 49.0 184.75 L53.0 185.0 Q56.75 183.75 57.5 180.5 L57.25 175.5 Q56.0 172.25 53.75 171.5 M39.25 189.5 Q36.0 191.5 35.75 193.5 L36.0 198.75 Q37.25 201.5 39.5 202.75 L43.0 203.5 Q51.25 200.0 48.5 193.5 44.0 186.25 39.25 189.5 M22.25 181.75 Q25.25 189.75 34.0 189.25 45.0 185.75 42.0 174.25 38.25 165.0 28.5 167.25 19.0 173.0 22.25 181.75 M17.0 192.25 L16.25 197.0 Q16.5 200.0 19.5 202.5 L23.5 203.5 Q27.0 203.5 29.25 199.25 L29.5 194.0 26.75 190.0 22.25 188.75 Q18.75 189.0 17.0 192.25 M14.5 171.0 L10.25 171.5 Q6.5 173.75 6.5 177.0 L7.25 181.5 Q7.75 183.25 11.0 184.75 L14.75 185.0 Q17.25 184.75 19.5 180.5 L19.25 175.0 Q18.0 171.75 14.5 171.0 M139.75 141.0 L142.5 146.5 145.75 148.0 148.5 148.0 Q151.5 148.25 153.5 143.5 L153.25 138.25 Q153.0 136.25 149.5 133.75 L145.25 133.0 Q140.75 134.5 140.25 137.0 L139.75 141.0 M130.0 135.0 L125.0 134.75 Q121.75 136.25 121.25 139.75 L121.75 144.5 Q122.75 147.25 125.5 148.75 L129.25 149.25 Q136.5 145.5 133.5 138.75 L130.0 135.0 M121.75 120.25 L118.0 117.5 114.0 117.75 Q105.75 125.75 116.25 131.25 L118.25 131.25 119.0 131.0 120.25 130.25 Q122.25 129.0 123.0 125.75 L121.75 120.25 M88.75 142.25 L89.25 148.75 Q93.0 148.5 94.75 146.0 L96.75 140.5 Q99.0 143.5 102.0 144.25 L107.25 143.75 Q107.75 141.25 104.0 136.5 L99.75 134.5 Q104.75 128.0 101.5 122.25 92.75 125.75 95.0 135.25 L93.75 135.5 93.0 136.5 Q89.75 137.75 88.75 142.25 M88.5 171.75 L87.5 172.75 86.75 174.25 86.25 179.0 87.25 181.5 89.75 184.25 91.5 185.0 93.75 185.0 Q94.65 184.65 95.5 184.25 L96.5 183.25 97.25 181.75 97.75 179.75 97.5 176.0 96.75 174.25 95.5 172.25 92.75 170.75 92.0 171.0 90.0 171.0 88.5 171.75 M109.25 166.25 L106.0 166.5 Q98.25 170.0 99.5 178.5 102.25 188.75 108.0 189.5 L111.5 189.75 Q119.0 189.25 119.25 177.5 116.25 166.0 109.25 166.25 M102.0 165.75 L103.5 164.75 103.75 163.0 Q106.0 154.75 100.75 153.0 L98.75 152.5 97.75 152.5 95.75 153.25 94.5 154.5 93.0 158.25 93.5 161.5 94.25 163.25 96.5 165.75 98.75 166.5 100.5 166.5 102.0 165.75 M117.25 151.75 L114.75 151.75 Q110.0 151.75 110.0 159.5 111.0 163.5 113.0 165.0 L115.5 166.0 118.25 166.0 120.0 165.25 Q125.75 154.25 117.25 151.75 M96.5 193.0 Q95.75 193.7 96.0 194.75 L96.25 198.75 98.25 202.25 99.75 203.5 102.25 204.75 103.5 204.5 105.75 203.75 108.0 200.75 108.0 195.25 106.0 191.5 104.0 190.25 101.75 189.5 100.25 189.5 97.25 191.25 96.5 193.0 M132.75 268.0 L133.25 280.5 137.0 314.25 181.25 324.25 175.25 279.5 Q174.75 274.0 170.0 266.0 155.25 246.25 140.25 254.0 135.75 257.25 134.25 261.5 L132.75 268.0 M104.5 246.5 L100.0 246.75 Q89.5 250.25 88.75 261.5 L88.75 270.5 91.25 304.0 128.0 312.25 129.0 312.25 129.0 311.5 125.0 271.75 123.75 265.75 Q118.5 252.0 109.0 248.0 L108.5 247.75 108.25 247.75 104.5 246.5 M91.75 210.25 L92.5 209.75 93.0 209.0 93.0 208.25 93.25 207.25 92.5 206.25 92.75 205.5 92.25 204.75 91.75 204.25 89.75 204.0 89.75 202.25 89.0 200.75 88.0 200.0 87.25 199.75 86.25 199.75 85.75 200.0 85.0 200.5 84.5 202.0 84.5 203.75 84.75 204.5 85.25 205.25 86.25 206.0 87.0 206.25 87.75 207.0 87.75 207.5 86.5 207.75 85.75 208.25 85.25 209.0 85.0 210.0 85.0 210.75 85.5 212.5 86.0 213.25 87.0 214.0 87.75 214.25 88.5 214.25 89.25 214.0 89.75 213.5 90.25 212.75 90.5 212.0 90.5 211.0 90.25 210.5 91.75 210.25 M105.5 214.0 L103.5 213.0 102.5 212.75 99.75 212.75 98.0 213.5 Q91.75 218.0 95.5 227.25 86.5 228.25 88.5 239.25 L120.0 242.75 Q120.25 232.25 112.5 229.25 L110.0 229.0 Q112.75 220.0 105.5 214.0 M130.0 242.25 L131.25 244.0 169.5 248.25 170.0 245.75 Q167.25 225.5 153.5 226.75 156.5 224.5 157.5 219.0 L156.75 212.0 Q150.25 199.75 143.75 201.25 127.0 206.5 141.0 225.75 127.0 223.0 130.0 242.25 M116.25 190.75 L114.0 193.5 114.25 200.0 117.25 204.25 120.0 205.25 122.5 205.25 Q125.0 204.75 126.25 202.25 L126.75 197.0 124.5 192.25 122.5 190.75 120.75 190.0 117.75 190.0 116.25 190.75 M121.25 174.25 L121.25 180.0 124.75 184.75 127.75 185.5 129.0 185.5 Q132.25 185.25 133.25 183.0 L134.25 177.5 Q132.25 171.5 130.25 171.0 L126.5 170.25 125.0 170.5 Q121.25 172.0 121.25 174.25 M62.5 207.5 L59.5 206.75 59.5 205.75 Q65.75 203.75 61.75 199.5 56.5 198.25 57.0 203.0 L54.0 204.0 53.5 207.25 55.5 209.5 57.25 209.75 Q58.75 215.75 63.0 212.5 64.25 207.75 62.5 207.5 M27.5 260.25 L27.0 267.25 27.75 301.5 68.75 301.5 66.5 262.5 Q66.0 258.25 63.25 253.5 52.75 238.0 36.25 246.25 31.75 249.0 29.25 254.5 L27.5 260.25 M19.5 265.5 Q19.75 259.75 15.75 252.75 5.0 239.0 -8.0 245.0 -16.25 248.0 -19.75 259.75 L-20.5 268.0 -21.0 301.5 20.0 301.5 19.5 265.5 M5.1 220.75 Q7.55 220.15 10.0 213.75 L9.75 206.75 Q4.75 197.0 -1.5 198.75 -18.25 205.75 -6.25 220.75 -20.75 219.75 -19.25 236.75 L-18.75 238.0 17.5 238.0 18.5 236.0 Q17.75 218.05 5.1 220.75 M53.5 225.75 Q54.75 209.0 43.0 211.0 32.75 217.0 37.5 225.75 28.0 225.5 28.5 238.0 L63.25 237.5 Q62.5 225.25 53.5 225.75 M69.0 304.5 L28.0 304.5 28.7 336.0 20.45 336.0 20.0 304.5 -21.0 304.5 -21.45 336.0 -29.65 336.0 -29.0 304.5 -70.0 304.5 -71.55 336.0 -94.55 336.0 -92.75 307.0 -130.25 315.5 -132.2 336.0 -140.15 336.0 -138.25 318.0 -139.25 317.5 -182.25 327.5 Q-183.5 328.15 -184.25 336.0 L-193.0 336.0 Q-192.0 330.8 -193.0 330.0 L-218.3 336.0 -233.85 336.0 -191.75 326.25 -185.5 283.0 -185.5 273.75 Q-188.0 260.0 -200.5 258.75 L-206.75 258.75 -210.5 260.0 -210.75 260.0 -211.5 260.25 Q-228.25 267.25 -234.25 283.25 L-236.75 292.5 -240.0 310.55 -240.0 -344.0 240.0 -344.0 240.0 316.05 235.25 290.0 232.25 281.0 Q224.5 265.25 210.5 260.25 L209.75 260.0 209.5 260.0 204.5 258.5 199.5 258.75 Q184.5 262.0 184.25 275.25 L185.5 290.25 190.75 326.5 233.0 336.0 216.65 336.0 191.25 330.25 Q191.35 333.85 191.75 336.0 L183.1 336.0 182.0 328.0 181.0 327.5 138.25 317.5 137.25 318.0 139.4 336.0 131.2 336.0 129.25 315.5 91.5 306.75 93.55 336.0 70.6 336.0 69.0 304.5 M-141.25 96.75 L-142.0 96.5 Q-145.75 96.0 -147.5 98.25 L-149.5 102.0 Q-150.75 103.75 -148.25 108.25 L-144.25 110.75 Q-137.25 110.5 -136.25 104.0 L-137.5 99.0 Q-140.5 96.0 -141.25 96.75 M211.0 237.5 Q213.0 226.0 203.75 220.25 L200.25 218.75 195.75 218.5 192.75 219.5 Q185.5 224.75 191.0 235.75 L188.5 235.75 Q178.5 238.75 182.25 249.5 L225.75 254.25 Q222.0 237.5 211.0 237.5 M213.75 204.5 L213.25 205.0 212.5 205.5 212.0 206.5 211.75 207.5 211.75 208.5 212.25 209.5 211.75 209.25 210.5 209.25 209.75 209.5 208.75 210.25 208.25 211.0 208.0 212.0 208.0 213.0 208.25 214.25 209.75 216.25 210.75 217.0 213.5 217.5 213.5 218.25 214.5 220.5 215.5 221.5 216.75 222.25 220.0 222.5 221.0 221.75 221.5 221.0 221.75 219.75 221.75 218.75 220.75 216.5 219.75 215.5 218.75 214.75 218.5 214.75 218.0 214.5 217.25 214.25 216.0 214.25 216.0 212.75 217.25 212.75 218.25 212.5 219.25 211.75 219.75 211.0 220.0 210.0 220.0 208.75 219.0 206.75 218.0 205.75 217.0 205.0 213.75 204.5 M-114.25 118.25 L-117.5 117.25 Q-120.75 117.0 -123.0 120.75 L-124.0 125.75 Q-122.25 130.5 -120.5 131.0 L-117.25 131.5 Q-113.75 130.5 -112.5 128.25 L-111.5 123.0 Q-112.75 118.75 -114.25 118.25 M-125.5 121.25 Q-128.0 109.5 -137.5 111.25 -142.5 112.25 -145.5 118.25 L-146.25 125.5 Q-144.25 135.0 -134.5 134.25 -124.5 129.75 -125.5 121.25 M-106.75 138.75 L-108.25 143.75 Q-102.25 144.5 -101.5 143.75 L-98.0 140.5 Q-96.5 146.25 -94.25 147.5 L-90.25 148.75 Q-88.5 138.25 -94.0 136.5 L-95.0 135.5 -96.0 135.0 Q-95.75 122.25 -103.0 122.25 -104.25 123.25 -103.5 130.0 L-100.75 134.5 Q-103.75 134.25 -106.75 138.75 M-119.0 109.0 L-118.75 103.0 -122.25 99.25 -126.25 99.0 Q-128.75 99.5 -130.5 103.0 L-131.0 107.0 Q-129.25 113.5 -123.5 112.75 -120.25 111.5 -119.0 109.0 M-160.75 116.5 Q-162.5 119.0 -162.25 122.25 -161.75 125.5 -159.5 127.25 L-157.25 128.0 -155.75 128.25 -153.0 127.75 Q-148.25 125.0 -148.5 123.25 L-148.25 118.5 -150.75 114.5 Q-153.0 112.75 -156.5 113.5 L-160.75 116.5 M-150.75 148.0 L-146.75 148.25 Q-142.75 146.5 -142.0 144.5 L-140.75 139.0 Q-141.0 136.25 -143.25 134.25 L-146.5 133.0 Q-156.0 134.75 -154.75 142.5 -154.25 146.0 -150.75 148.0 M-134.0 137.75 L-135.25 143.5 Q-134.5 147.0 -132.75 148.25 L-130.25 149.0 -128.0 149.0 Q-124.0 147.5 -123.25 145.75 L-122.25 139.75 Q-123.5 135.5 -126.0 134.75 L-129.75 134.5 -134.0 137.75 M-98.0 152.5 L-100.25 152.25 -101.75 153.0 -103.5 154.25 -105.75 158.0 -105.75 161.25 -104.5 164.5 -103.0 165.75 -101.0 166.5 -99.5 166.5 -97.5 165.75 -95.25 163.25 -94.5 161.5 Q-93.75 156.25 -94.5 155.75 L-96.75 153.25 -98.0 152.5 M-123.5 190.75 L-127.0 194.5 -127.75 200.5 -125.25 204.75 -123.5 205.25 -121.0 205.25 Q-110.5 198.5 -117.25 190.75 L-118.75 190.0 -121.75 190.0 -123.5 190.75 M-154.75 170.0 L-157.5 170.0 Q-160.25 170.25 -162.0 172.5 L-164.25 177.0 Q-164.75 185.5 -159.5 185.75 L-156.75 185.75 Q-153.25 185.25 -151.75 182.75 L-149.75 178.25 Q-149.0 175.25 -151.25 171.75 L-154.75 170.0 M-122.75 173.0 Q-124.75 170.0 -126.0 170.5 L-127.5 170.25 Q-134.25 170.25 -135.25 178.25 -135.75 181.25 -133.5 184.0 L-130.0 185.5 -128.75 185.5 Q-126.25 185.75 -123.75 182.75 L-122.0 178.25 -122.75 173.0 M-96.75 172.75 L-97.75 174.25 -98.5 176.0 -98.75 179.75 -98.25 181.75 -96.5 184.25 -94.75 185.0 -92.5 185.0 -91.25 184.5 -89.5 183.25 -87.25 179.0 -88.0 174.25 -88.5 172.5 -90.0 171.5 -91.0 171.0 -93.0 171.0 -93.75 170.75 -96.75 172.75 M-118.25 151.75 Q-128.0 158.5 -121.0 165.25 L-119.25 166.0 -116.5 166.0 Q-114.75 166.0 -112.25 163.0 L-111.0 159.5 Q-111.25 151.75 -115.75 151.75 L-118.25 151.75 M-49.5 171.25 L-53.5 171.0 Q-56.75 172.0 -58.0 174.75 L-58.75 179.75 Q-57.25 183.75 -55.75 184.25 L-50.75 185.0 Q-44.25 181.75 -45.75 175.25 -47.5 171.5 -49.5 171.25 M-3.75 142.5 L-6.5 139.5 -11.0 138.75 Q-15.0 139.75 -16.0 143.5 L-15.75 148.25 Q-15.0 150.25 -12.25 151.75 L-8.0 152.0 Q-6.25 152.25 -3.5 147.25 L-3.75 142.5 M-33.75 125.5 L-35.25 125.5 Q-45.25 130.25 -43.25 137.0 -52.75 139.25 -51.5 149.5 -47.5 150.0 -44.75 147.25 L-41.75 142.0 -37.75 145.75 -30.75 146.0 Q-31.0 141.75 -33.5 139.0 L-38.0 136.75 -34.5 133.0 -33.5 130.0 -33.75 125.5 M-15.5 123.0 L-19.25 122.25 Q-22.75 122.5 -24.25 125.5 L-25.0 130.5 -22.5 134.25 Q-20.5 135.5 -17.5 135.25 -14.0 134.5 -12.5 130.75 L-12.5 126.75 -15.5 123.0 M-6.25 107.0 L-10.0 106.25 Q-13.5 106.5 -15.0 109.5 L-15.75 113.75 Q-14.25 117.75 -12.75 118.25 L-8.75 119.0 Q-6.25 119.25 -3.75 115.5 L-3.25 111.0 -6.25 107.0 M-105.0 190.25 L-107.75 192.5 -109.0 195.25 -109.0 200.75 -108.0 202.5 -106.75 203.75 -104.5 204.5 -103.25 204.75 -101.25 203.75 Q-100.0 203.75 -98.0 200.5 L-97.0 194.75 -97.5 193.0 -99.25 190.25 -101.25 189.5 -102.75 189.5 -105.0 190.25 M-107.0 166.5 L-110.25 166.25 Q-118.25 166.75 -120.25 178.25 -119.75 189.25 -112.5 189.75 L-109.0 189.5 Q-101.75 187.25 -100.5 177.75 -101.75 166.25 -107.0 166.5 M-48.5 162.25 Q-47.0 166.0 -45.5 166.5 L-41.0 167.25 Q-36.5 165.5 -36.25 163.75 L-35.5 158.5 Q-37.5 154.0 -38.75 154.25 L-42.25 153.5 Q-46.5 154.0 -47.75 157.25 L-48.5 162.25 M-29.75 192.25 L-30.75 197.25 Q-30.25 200.5 -27.75 202.5 L-24.0 203.5 Q-17.0 202.25 -17.25 194.75 -17.25 192.0 -20.25 189.75 L-24.5 188.75 Q-28.0 189.0 -29.75 192.25 M-27.5 168.25 L-32.5 166.75 Q-43.0 166.0 -43.5 181.0 -39.25 190.75 -32.0 189.25 -21.25 185.5 -22.75 175.5 -24.0 170.5 -27.5 168.25 M-11.25 171.5 L-15.75 171.0 Q-19.5 172.5 -20.25 175.0 L-20.5 180.5 Q-20.0 182.75 -16.5 184.75 L-12.75 185.0 Q-8.25 183.25 -7.75 180.25 L-8.0 175.0 -11.25 171.5 M-17.75 164.25 L-16.75 159.25 Q-18.75 154.0 -20.0 154.25 L-23.25 153.5 Q-27.5 153.75 -29.0 157.0 L-29.75 162.25 Q-27.25 166.75 -25.75 167.0 L-22.0 167.25 Q-20.25 167.25 -17.75 164.25 M-43.25 188.75 Q-50.5 189.75 -50.0 197.75 L-48.25 201.5 Q-45.5 203.75 -43.0 203.5 -38.0 202.0 -37.25 199.5 L-36.5 194.75 Q-36.5 192.0 -39.5 189.75 L-43.25 188.75 M-174.75 115.5 Q-184.0 118.25 -184.5 128.0 L-186.0 128.25 -187.75 129.0 Q-197.0 133.5 -196.25 143.0 -184.75 141.25 -183.5 134.25 L-179.75 138.75 -174.25 140.25 -171.0 139.75 -171.0 138.25 Q-171.25 133.0 -173.5 131.25 L-178.0 128.25 -173.5 124.25 -171.5 119.25 -171.5 115.5 -174.75 115.5 M-55.75 203.25 L-58.25 203.0 Q-58.25 196.75 -63.5 200.25 -65.5 205.75 -60.75 205.75 L-60.75 206.75 Q-63.0 206.0 -64.5 209.0 L-64.25 212.25 Q-63.25 214.25 -59.5 213.0 L-58.25 209.75 -54.75 208.0 -54.5 205.0 -55.75 203.25 M-38.5 225.75 Q-36.5 221.0 -37.5 218.0 L-39.75 213.5 -44.0 211.0 -47.75 211.0 Q-58.5 216.5 -54.5 225.75 -65.25 227.5 -64.25 238.0 L-29.75 238.0 Q-29.5 225.0 -38.5 225.75 M-172.25 268.25 Q-175.0 271.75 -176.75 282.25 L-182.0 324.25 -137.75 314.0 -133.75 274.5 -133.75 267.0 Q-134.25 261.75 -137.75 257.25 L-141.25 254.0 Q-159.25 246.75 -172.25 268.25 M-209.75 210.25 L-210.75 209.5 -211.5 209.25 -212.75 209.25 -213.25 209.5 -212.75 208.5 -212.75 207.5 -213.0 206.5 -213.5 205.5 -214.25 205.0 -217.5 204.5 -218.0 205.0 -219.0 205.75 -220.0 206.75 -221.0 208.75 -221.0 210.0 -220.75 211.0 -220.25 211.75 -219.25 212.5 -218.25 212.75 -217.0 212.75 -217.0 214.25 -218.25 214.25 -219.0 214.5 -220.75 215.5 -221.75 216.5 -222.75 218.75 -222.75 219.75 -222.5 221.0 -222.0 221.75 -221.0 222.5 -217.75 222.25 -216.5 221.5 -215.5 220.5 -214.5 218.25 -214.5 217.5 -212.0 217.0 -210.75 216.25 -209.25 214.25 -209.25 213.25 -209.75 211.0 -209.75 210.25 M-164.0 229.5 L-165.25 231.0 Q-172.75 237.75 -170.5 248.25 L-131.75 244.0 -131.0 242.25 Q-128.5 222.25 -142.0 225.75 -127.75 205.75 -145.5 201.25 -165.5 210.0 -154.5 226.75 L-158.0 226.75 -164.0 229.5 M-196.75 218.5 L-201.25 218.75 -204.75 220.25 Q-214.75 227.0 -212.0 237.5 -224.25 238.0 -226.75 254.25 L-183.0 249.25 Q-179.75 238.75 -189.5 235.75 L-192.25 236.0 Q-187.25 221.25 -193.75 219.5 L-196.75 218.5 M-169.75 190.5 L-171.25 191.0 Q-173.25 190.75 -176.25 194.25 L-178.25 198.75 Q-178.25 207.75 -173.5 207.5 L-170.75 207.5 Q-166.75 206.75 -165.75 205.0 L-163.0 199.25 Q-162.5 195.0 -164.0 193.25 L-166.25 191.5 -169.75 190.5 M-199.75 195.5 L-201.0 197.75 -201.75 203.25 -200.0 206.5 -198.75 207.75 -196.25 208.75 -193.25 208.5 -191.25 207.5 Q-188.75 207.25 -185.75 202.0 L-185.25 197.25 -186.5 193.25 -188.5 192.0 -190.75 191.25 -193.5 191.25 -197.5 193.0 -199.75 195.5 M-174.0 165.0 L-178.0 164.75 Q-188.5 166.25 -191.0 177.5 -191.25 190.5 -182.75 191.0 L-180.25 191.5 -178.75 191.0 -177.75 191.0 -177.25 190.75 Q-166.25 186.0 -166.25 176.25 -167.5 165.25 -174.0 165.0 M-178.75 153.0 L-181.5 149.5 -183.5 148.5 -187.0 148.5 -189.0 149.0 -190.75 150.25 Q-193.25 151.5 -194.0 154.5 L-194.5 158.25 -193.25 162.0 -191.5 163.5 -191.0 163.75 -189.0 164.5 -186.0 164.5 -183.75 163.75 -180.25 160.75 Q-177.5 156.5 -178.75 153.0 M-165.25 149.5 Q-167.25 148.75 -170.5 152.75 L-172.0 157.25 Q-171.75 165.25 -166.75 165.0 L-164.25 165.0 -162.75 164.5 -162.5 164.5 -162.0 164.25 Q-152.25 154.0 -162.75 149.5 L-165.25 149.5 M-206.75 185.5 L-204.5 186.25 -201.5 186.25 -198.75 185.25 -197.0 184.0 -195.25 182.0 -194.0 180.0 -193.25 175.5 -194.25 172.0 -196.25 170.25 -198.0 169.25 -201.0 169.25 -204.0 170.0 -204.5 170.25 -206.25 171.5 -208.0 173.25 -210.0 178.0 -209.5 182.25 -208.5 184.25 -206.75 185.5 M-68.25 271.0 L-69.75 301.5 -28.75 301.5 -28.0 265.0 Q-27.75 259.5 -30.75 253.5 -42.5 239.0 -52.5 244.0 -63.25 247.5 -67.0 259.75 L-68.25 271.0 M-101.25 246.75 L-106.5 246.75 -109.25 247.75 -109.5 247.75 -110.0 248.0 Q-122.0 254.5 -125.0 266.75 L-126.5 275.75 -130.0 312.25 -127.75 312.0 -92.25 304.0 -89.5 266.5 -90.0 259.75 Q-92.0 249.0 -101.25 246.75 M-99.0 213.5 Q-99.85 213.15 -100.75 212.75 L-103.75 212.75 -104.5 213.0 -106.5 214.0 Q-113.75 220.0 -111.0 228.75 L-113.5 229.25 Q-122.25 235.0 -121.0 242.75 L-89.75 239.25 Q-87.5 228.0 -96.5 227.25 -92.75 218.0 -99.0 213.5 M-85.5 202.0 L-86.0 200.5 -86.75 200.0 -87.25 199.75 -88.25 199.75 -89.0 200.0 -90.0 200.75 -90.75 202.25 -90.75 203.75 -92.75 204.25 -93.25 204.75 -93.75 205.5 -94.25 207.25 -94.25 208.25 -94.0 209.0 -93.5 209.75 -92.75 210.25 -91.25 210.5 -91.5 211.0 -91.5 212.0 -91.25 212.75 -90.75 213.5 -90.25 214.0 -89.5 214.25 -88.75 214.25 -88.0 214.0 -87.25 213.25 -86.25 211.75 -86.0 210.75 -86.0 210.0 -86.25 209.0 -87.5 207.75 -88.75 207.5 -88.75 207.0 -88.0 206.25 -87.25 206.0 -86.5 205.25 -85.5 203.75 -85.75 203.0 -85.5 202.0" fill="#000000" fill-rule="evenodd" stroke="none"/>
    <path d="M240.0 -344.0 L240.0 316.05 235.25 290.0 232.25 281.0 Q224.5 265.25 210.5 260.25 L209.75 260.0 209.5 260.0 204.5 258.5 199.5 258.75 Q184.5 262.0 184.25 275.25 L185.5 290.25 190.75 326.5 233.0 336.0 216.65 336.0 191.25 330.25 Q191.35 333.85 191.75 336.0 L183.1 336.0 182.0 328.0 181.0 327.5 138.25 317.5 137.25 318.0 139.4 336.0 131.2 336.0 129.25 315.5 91.5 306.75 93.55 336.0 70.6 336.0 69.0 304.5 28.0 304.5 28.7 336.0 20.45 336.0 20.0 304.5 -21.0 304.5 -21.45 336.0 -29.65 336.0 -29.0 304.5 -70.0 304.5 -71.55 336.0 -94.55 336.0 -92.75 307.0 -130.25 315.5 -132.2 336.0 -140.15 336.0 -138.25 318.0 -139.25 317.5 -182.25 327.5 Q-183.5 328.15 -184.25 336.0 L-193.0 336.0 Q-192.0 330.8 -193.0 330.0 L-218.3 336.0 -233.85 336.0 -191.75 326.25 -185.5 283.0 -185.5 273.75 Q-188.0 260.0 -200.5 258.75 L-206.75 258.75 -210.5 260.0 -210.75 260.0 -211.5 260.25 Q-228.25 267.25 -234.25 283.25 L-236.75 292.5 -240.0 310.55 -240.0 -344.0 240.0 -344.0 M32.75 125.5 L33.0 132.0 Q35.5 136.5 37.0 136.75 33.5 137.0 31.0 141.0 L29.75 146.0 36.75 145.75 40.75 142.0 Q45.75 151.75 50.5 149.25 50.0 137.25 42.25 137.0 41.5 125.0 32.75 125.5 M14.75 142.75 L11.5 139.25 6.5 139.0 Q0.25 143.0 3.0 148.75 5.5 152.0 7.0 152.0 L10.5 152.0 Q15.25 149.25 15.0 147.5 L14.75 142.75 M0.25 139.25 Q12.25 135.0 9.25 125.75 5.0 117.25 -1.5 118.5 -11.5 121.0 -10.5 130.5 -8.0 137.5 -5.5 138.0 L0.25 139.25 M11.75 131.25 L15.0 134.75 19.25 135.25 Q22.5 134.0 23.5 131.5 L23.75 126.5 20.25 122.75 15.5 122.5 Q11.5 124.75 11.5 126.75 L11.75 131.25 M10.25 106.5 L6.0 106.75 Q3.75 107.0 2.25 111.0 L2.5 114.75 5.25 118.25 9.25 119.0 Q16.0 117.25 14.5 110.5 11.5 105.75 10.25 106.5 M144.25 96.75 L140.25 96.5 Q135.0 99.0 135.5 101.25 L135.75 106.25 139.5 110.25 143.25 110.75 Q146.5 110.25 148.5 105.75 L148.25 100.75 Q145.75 96.5 144.25 96.75 M189.75 191.25 L187.5 192.0 185.25 193.75 184.25 197.25 185.0 202.5 187.75 206.0 189.75 207.5 192.25 208.5 195.75 208.75 197.75 207.75 Q199.75 207.0 200.75 203.25 L200.0 197.75 198.75 195.5 195.5 192.25 192.5 191.25 189.75 191.25 M168.75 190.75 L166.75 190.75 164.75 191.75 Q157.75 202.75 169.75 207.5 L172.5 207.5 Q182.75 202.25 172.0 191.75 L170.25 191.0 168.75 190.75 M163.0 182.0 L163.0 176.0 160.0 171.5 156.5 170.0 153.75 170.0 Q147.5 171.25 149.0 179.25 150.5 183.25 152.75 184.75 L155.75 185.75 158.5 185.75 Q162.25 184.5 163.0 182.0 M177.0 164.75 L173.0 165.0 Q162.75 170.0 165.5 178.75 165.5 181.75 170.25 187.5 L176.75 191.0 177.75 191.0 179.75 191.5 181.75 191.0 Q190.0 190.75 190.0 177.25 186.0 164.75 177.0 164.75 M167.5 150.75 L164.25 149.5 161.75 149.5 Q157.5 150.5 157.25 152.25 L156.25 157.5 158.0 161.75 161.0 164.25 161.5 164.5 161.75 164.5 163.25 165.0 165.75 165.0 Q170.25 163.75 170.75 161.25 L171.0 156.25 Q169.75 151.75 167.5 150.75 M200.0 169.25 L197.0 169.25 195.25 170.25 194.0 171.5 192.75 173.5 192.25 175.5 193.0 180.0 194.0 182.0 195.5 184.0 197.75 185.25 200.5 186.25 203.5 186.25 205.75 185.5 207.5 184.0 209.0 178.25 207.0 173.25 203.0 170.25 202.75 170.0 200.0 169.25 M191.75 152.0 L188.0 149.0 186.0 148.5 182.0 148.5 181.0 149.25 180.5 149.5 179.25 150.75 177.5 154.25 178.25 158.75 179.25 161.0 182.75 163.75 185.0 164.5 187.75 164.5 190.5 163.5 192.25 162.0 193.5 158.25 Q193.25 153.75 191.75 152.0 M177.0 128.25 Q174.25 128.25 171.25 133.0 L170.0 138.25 170.0 139.75 173.0 140.25 178.75 138.75 182.5 134.25 Q187.0 143.75 195.25 143.0 195.5 132.25 186.75 129.0 L185.0 128.25 183.0 128.0 Q180.0 113.5 170.5 115.5 169.25 123.0 177.0 128.25 M35.25 156.75 L34.5 161.5 Q36.25 166.25 38.0 166.5 L42.5 167.25 Q46.25 166.0 47.0 163.5 L47.25 158.25 44.0 154.25 40.0 153.5 Q36.75 153.75 35.25 156.75 M126.5 112.25 Q134.75 101.75 122.75 99.0 L122.0 99.25 Q120.0 98.75 117.75 103.25 L118.0 109.0 Q120.25 112.5 122.5 112.75 L126.5 112.25 M138.75 112.0 L133.0 111.25 Q123.0 114.5 124.75 124.75 130.5 136.75 137.25 134.25 147.75 129.25 145.0 120.0 143.0 113.75 138.75 112.0 M156.75 114.0 L152.0 113.5 Q149.25 113.75 147.5 117.75 L147.5 123.25 Q148.5 125.75 151.5 127.75 L156.25 128.25 Q163.0 124.5 160.75 118.5 159.75 115.5 156.75 114.0 M53.75 171.5 L49.25 171.0 Q45.0 172.5 44.5 176.0 L45.0 180.75 Q47.5 184.5 49.0 184.75 L53.0 185.0 Q56.75 183.75 57.5 180.5 L57.25 175.5 Q56.0 172.25 53.75 171.5 M39.25 189.5 Q36.0 191.5 35.75 193.5 L36.0 198.75 Q37.25 201.5 39.5 202.75 L43.0 203.5 Q51.25 200.0 48.5 193.5 44.0 186.25 39.25 189.5 M22.25 181.75 Q25.25 189.75 34.0 189.25 45.0 185.75 42.0 174.25 38.25 165.0 28.5 167.25 19.0 173.0 22.25 181.75 M17.0 192.25 L16.25 197.0 Q16.5 200.0 19.5 202.5 L23.5 203.5 Q27.0 203.5 29.25 199.25 L29.5 194.0 26.75 190.0 22.25 188.75 Q18.75 189.0 17.0 192.25 M14.5 171.0 L10.25 171.5 Q6.5 173.75 6.5 177.0 L7.25 181.5 Q7.75 183.25 11.0 184.75 L14.75 185.0 Q17.25 184.75 19.5 180.5 L19.25 175.0 Q18.0 171.75 14.5 171.0 M25.75 154.5 L21.5 153.5 Q14.25 155.5 16.0 162.5 L19.0 166.5 23.75 167.25 Q29.75 165.25 28.5 158.0 L25.75 154.5 M139.75 141.0 L142.5 146.5 145.75 148.0 148.5 148.0 Q151.5 148.25 153.5 143.5 L153.25 138.25 Q153.0 136.25 149.5 133.75 L145.25 133.0 Q140.75 134.5 140.25 137.0 L139.75 141.0 M133.5 138.75 L130.0 135.0 125.0 134.75 Q121.75 136.25 121.25 139.75 L121.75 144.5 Q122.75 147.25 125.5 148.75 L129.25 149.25 Q136.5 145.5 133.5 138.75 M121.75 120.25 L118.0 117.5 114.0 117.75 Q105.75 125.75 116.25 131.25 L118.25 131.25 119.0 131.0 120.25 130.25 Q122.25 129.0 123.0 125.75 L121.75 120.25 M88.75 142.25 L89.25 148.75 Q93.0 148.5 94.75 146.0 L96.75 140.5 Q99.0 143.5 102.0 144.25 L107.25 143.75 Q107.75 141.25 104.0 136.5 L99.75 134.5 Q104.75 128.0 101.5 122.25 92.75 125.75 95.0 135.25 L93.75 135.5 93.0 136.5 Q89.75 137.75 88.75 142.25 M88.5 171.75 L87.5 172.75 86.75 174.25 86.25 179.0 87.25 181.5 89.75 184.25 91.5 185.0 93.75 185.0 Q94.65 184.65 95.5 184.25 L96.5 183.25 97.25 181.75 97.75 179.75 97.5 176.0 96.75 174.25 95.5 172.25 92.75 170.75 92.0 171.0 90.0 171.0 88.5 171.75 M102.0 165.75 L103.5 164.75 103.75 163.0 Q106.0 154.75 100.75 153.0 L98.75 152.5 97.75 152.5 95.75 153.25 94.5 154.5 93.0 158.25 93.5 161.5 94.25 163.25 96.5 165.75 98.75 166.5 100.5 166.5 102.0 165.75 M109.25 166.25 L106.0 166.5 Q98.25 170.0 99.5 178.5 102.25 188.75 108.0 189.5 L111.5 189.75 Q119.0 189.25 119.25 177.5 116.25 166.0 109.25 166.25 M117.25 151.75 L114.75 151.75 Q110.0 151.75 110.0 159.5 111.0 163.5 113.0 165.0 L115.5 166.0 118.25 166.0 120.0 165.25 Q125.75 154.25 117.25 151.75 M97.25 191.25 L96.5 193.0 Q95.75 193.7 96.0 194.75 L96.25 198.75 98.25 202.25 99.75 203.5 102.25 204.75 103.5 204.5 105.75 203.75 108.0 200.75 108.0 195.25 106.0 191.5 104.0 190.25 101.75 189.5 100.25 189.5 97.25 191.25 M140.25 254.0 Q135.75 257.25 134.25 261.5 L132.75 268.0 133.25 280.5 137.0 314.25 181.25 324.25 175.25 279.5 Q174.75 274.0 170.0 266.0 155.25 246.25 140.25 254.0 M104.5 246.5 L100.0 246.75 Q89.5 250.25 88.75 261.5 L88.75 270.5 91.25 304.0 128.0 312.25 129.0 312.25 129.0 311.5 125.0 271.75 123.75 265.75 Q118.5 252.0 109.0 248.0 L108.5 247.75 108.25 247.75 104.5 246.5 M92.25 204.75 L91.75 204.25 89.75 204.0 89.75 202.25 89.0 200.75 88.0 200.0 87.25 199.75 86.25 199.75 85.75 200.0 85.0 200.5 84.5 202.0 84.5 203.75 84.75 204.5 85.25 205.25 86.25 206.0 87.0 206.25 87.75 207.0 87.75 207.5 86.5 207.75 85.75 208.25 85.25 209.0 85.0 210.0 85.0 210.75 85.5 212.5 86.0 213.25 87.0 214.0 87.75 214.25 88.5 214.25 89.25 214.0 89.75 213.5 90.25 212.75 90.5 212.0 90.5 211.0 90.25 210.5 91.75 210.25 92.5 209.75 93.0 209.0 93.0 208.25 93.25 207.25 92.5 206.25 92.75 205.5 92.25 204.75 M105.5 214.0 L103.5 213.0 102.5 212.75 99.75 212.75 98.0 213.5 Q91.75 218.0 95.5 227.25 86.5 228.25 88.5 239.25 L120.0 242.75 Q120.25 232.25 112.5 229.25 L110.0 229.0 Q112.75 220.0 105.5 214.0 M153.5 226.75 Q156.5 224.5 157.5 219.0 L156.75 212.0 Q150.25 199.75 143.75 201.25 127.0 206.5 141.0 225.75 127.0 223.0 130.0 242.25 L131.25 244.0 169.5 248.25 170.0 245.75 Q167.25 225.5 153.5 226.75 M117.75 190.0 L116.25 190.75 114.0 193.5 114.25 200.0 117.25 204.25 120.0 205.25 122.5 205.25 Q125.0 204.75 126.25 202.25 L126.75 197.0 124.5 192.25 122.5 190.75 120.75 190.0 117.75 190.0 M121.25 174.25 L121.25 180.0 124.75 184.75 127.75 185.5 129.0 185.5 Q132.25 185.25 133.25 183.0 L134.25 177.5 Q132.25 171.5 130.25 171.0 L126.5 170.25 125.0 170.5 Q121.25 172.0 121.25 174.25 M62.5 207.5 L59.5 206.75 59.5 205.75 Q65.75 203.75 61.75 199.5 56.5 198.25 57.0 203.0 L54.0 204.0 53.5 207.25 55.5 209.5 57.25 209.75 Q58.75 215.75 63.0 212.5 64.25 207.75 62.5 207.5 M-142.0 96.5 Q-145.75 96.0 -147.5 98.25 L-149.5 102.0 Q-150.75 103.75 -148.25 108.25 L-144.25 110.75 Q-137.25 110.5 -136.25 104.0 L-137.5 99.0 Q-140.5 96.0 -141.25 96.75 L-142.0 96.5 M211.0 237.5 Q213.0 226.0 203.75 220.25 L200.25 218.75 195.75 218.5 192.75 219.5 Q185.5 224.75 191.0 235.75 L188.5 235.75 Q178.5 238.75 182.25 249.5 L225.75 254.25 Q222.0 237.5 211.0 237.5 M220.0 210.0 L220.0 208.75 219.0 206.75 218.0 205.75 217.0 205.0 213.75 204.5 213.25 205.0 212.5 205.5 212.0 206.5 211.75 207.5 211.75 208.5 212.25 209.5 211.75 209.25 210.5 209.25 209.75 209.5 208.75 210.25 208.25 211.0 208.0 212.0 208.0 213.0 208.25 214.25 209.75 216.25 210.75 217.0 213.5 217.5 213.5 218.25 214.5 220.5 215.5 221.5 216.75 222.25 220.0 222.5 221.0 221.75 221.5 221.0 221.75 219.75 221.75 218.75 220.75 216.5 219.75 215.5 218.75 214.75 218.5 214.75 218.0 214.5 217.25 214.25 216.0 214.25 216.0 212.75 217.25 212.75 218.25 212.5 219.25 211.75 219.75 211.0 220.0 210.0 M29.25 254.5 L27.5 260.25 27.0 267.25 27.75 301.5 68.75 301.5 66.5 262.5 Q66.0 258.25 63.25 253.5 52.75 238.0 36.25 246.25 31.75 249.0 29.25 254.5 M19.5 265.5 Q19.75 259.75 15.75 252.75 5.0 239.0 -8.0 245.0 -16.25 248.0 -19.75 259.75 L-20.5 268.0 -21.0 301.5 20.0 301.5 19.5 265.5 M10.0 213.75 L9.75 206.75 Q4.75 197.0 -1.5 198.75 -18.25 205.75 -6.25 220.75 -20.75 219.75 -19.25 236.75 L-18.75 238.0 17.5 238.0 18.5 236.0 Q17.75 218.05 5.1 220.75 7.55 220.15 10.0 213.75 M53.5 225.75 Q54.75 209.0 43.0 211.0 32.75 217.0 37.5 225.75 28.0 225.5 28.5 238.0 L63.25 237.5 Q62.5 225.25 53.5 225.75 M-117.5 117.25 Q-120.75 117.0 -123.0 120.75 L-124.0 125.75 Q-122.25 130.5 -120.5 131.0 L-117.25 131.5 Q-113.75 130.5 -112.5 128.25 L-111.5 123.0 Q-112.75 118.75 -114.25 118.25 L-117.5 117.25 M-125.5 121.25 Q-128.0 109.5 -137.5 111.25 -142.5 112.25 -145.5 118.25 L-146.25 125.5 Q-144.25 135.0 -134.5 134.25 -124.5 129.75 -125.5 121.25 M-106.75 138.75 L-108.25 143.75 Q-102.25 144.5 -101.5 143.75 L-98.0 140.5 Q-96.5 146.25 -94.25 147.5 L-90.25 148.75 Q-88.5 138.25 -94.0 136.5 L-95.0 135.5 -96.0 135.0 Q-95.75 122.25 -103.0 122.25 -104.25 123.25 -103.5 130.0 L-100.75 134.5 Q-103.75 134.25 -106.75 138.75 M-119.0 109.0 L-118.75 103.0 -122.25 99.25 -126.25 99.0 Q-128.75 99.5 -130.5 103.0 L-131.0 107.0 Q-129.25 113.5 -123.5 112.75 -120.25 111.5 -119.0 109.0 M-148.25 118.5 L-150.75 114.5 Q-153.0 112.75 -156.5 113.5 L-160.75 116.5 Q-162.5 119.0 -162.25 122.25 -161.75 125.5 -159.5 127.25 L-157.25 128.0 -155.75 128.25 -153.0 127.75 Q-148.25 125.0 -148.5 123.25 L-148.25 118.5 M-146.75 148.25 Q-142.75 146.5 -142.0 144.5 L-140.75 139.0 Q-141.0 136.25 -143.25 134.25 L-146.5 133.0 Q-156.0 134.75 -154.75 142.5 -154.25 146.0 -150.75 148.0 L-146.75 148.25 M-129.75 134.5 L-134.0 137.75 -135.25 143.5 Q-134.5 147.0 -132.75 148.25 L-130.25 149.0 -128.0 149.0 Q-124.0 147.5 -123.25 145.75 L-122.25 139.75 Q-123.5 135.5 -126.0 134.75 L-129.75 134.5 M-98.0 152.5 L-100.25 152.25 -101.75 153.0 -103.5 154.25 -105.75 158.0 -105.75 161.25 -104.5 164.5 -103.0 165.75 -101.0 166.5 -99.5 166.5 -97.5 165.75 -95.25 163.25 -94.5 161.5 Q-93.75 156.25 -94.5 155.75 L-96.75 153.25 -98.0 152.5 M-121.75 190.0 L-123.5 190.75 -127.0 194.5 -127.75 200.5 -125.25 204.75 -123.5 205.25 -121.0 205.25 Q-110.5 198.5 -117.25 190.75 L-118.75 190.0 -121.75 190.0 M-154.75 170.0 L-157.5 170.0 Q-160.25 170.25 -162.0 172.5 L-164.25 177.0 Q-164.75 185.5 -159.5 185.75 L-156.75 185.75 Q-153.25 185.25 -151.75 182.75 L-149.75 178.25 Q-149.0 175.25 -151.25 171.75 L-154.75 170.0 M-122.75 173.0 Q-124.75 170.0 -126.0 170.5 L-127.5 170.25 Q-134.25 170.25 -135.25 178.25 -135.75 181.25 -133.5 184.0 L-130.0 185.5 -128.75 185.5 Q-126.25 185.75 -123.75 182.75 L-122.0 178.25 -122.75 173.0 M-93.75 170.75 L-96.75 172.75 -97.75 174.25 -98.5 176.0 -98.75 179.75 -98.25 181.75 -96.5 184.25 -94.75 185.0 -92.5 185.0 -91.25 184.5 -89.5 183.25 -87.25 179.0 -88.0 174.25 -88.5 172.5 -90.0 171.5 -91.0 171.0 -93.0 171.0 -93.75 170.75 M-118.25 151.75 Q-128.0 158.5 -121.0 165.25 L-119.25 166.0 -116.5 166.0 Q-114.75 166.0 -112.25 163.0 L-111.0 159.5 Q-111.25 151.75 -115.75 151.75 L-118.25 151.75 M-6.5 139.5 L-11.0 138.75 Q-15.0 139.75 -16.0 143.5 L-15.75 148.25 Q-15.0 150.25 -12.25 151.75 L-8.0 152.0 Q-6.25 152.25 -3.5 147.25 L-3.75 142.5 -6.5 139.5 M-33.5 130.0 L-33.75 125.5 -35.25 125.5 Q-45.25 130.25 -43.25 137.0 -52.75 139.25 -51.5 149.5 -47.5 150.0 -44.75 147.25 L-41.75 142.0 -37.75 145.75 -30.75 146.0 Q-31.0 141.75 -33.5 139.0 L-38.0 136.75 -34.5 133.0 -33.5 130.0 M-15.5 123.0 L-19.25 122.25 Q-22.75 122.5 -24.25 125.5 L-25.0 130.5 -22.5 134.25 Q-20.5 135.5 -17.5 135.25 -14.0 134.5 -12.5 130.75 L-12.5 126.75 -15.5 123.0 M-6.25 107.0 L-10.0 106.25 Q-13.5 106.5 -15.0 109.5 L-15.75 113.75 Q-14.25 117.75 -12.75 118.25 L-8.75 119.0 Q-6.25 119.25 -3.75 115.5 L-3.25 111.0 -6.25 107.0 M-107.75 192.5 L-109.0 195.25 -109.0 200.75 -108.0 202.5 -106.75 203.75 -104.5 204.5 -103.25 204.75 -101.25 203.75 Q-100.0 203.75 -98.0 200.5 L-97.0 194.75 -97.5 193.0 -99.25 190.25 -101.25 189.5 -102.75 189.5 -105.0 190.25 -107.75 192.5 M-107.0 166.5 L-110.25 166.25 Q-118.25 166.75 -120.25 178.25 -119.75 189.25 -112.5 189.75 L-109.0 189.5 Q-101.75 187.25 -100.5 177.75 -101.75 166.25 -107.0 166.5 M-48.5 162.25 Q-47.0 166.0 -45.5 166.5 L-41.0 167.25 Q-36.5 165.5 -36.25 163.75 L-35.5 158.5 Q-37.5 154.0 -38.75 154.25 L-42.25 153.5 Q-46.5 154.0 -47.75 157.25 L-48.5 162.25 M-24.5 188.75 Q-28.0 189.0 -29.75 192.25 L-30.75 197.25 Q-30.25 200.5 -27.75 202.5 L-24.0 203.5 Q-17.0 202.25 -17.25 194.75 -17.25 192.0 -20.25 189.75 L-24.5 188.75 M-27.5 168.25 L-32.5 166.75 Q-43.0 166.0 -43.5 181.0 -39.25 190.75 -32.0 189.25 -21.25 185.5 -22.75 175.5 -24.0 170.5 -27.5 168.25 M-17.75 164.25 L-16.75 159.25 Q-18.75 154.0 -20.0 154.25 L-23.25 153.5 Q-27.5 153.75 -29.0 157.0 L-29.75 162.25 Q-27.25 166.75 -25.75 167.0 L-22.0 167.25 Q-20.25 167.25 -17.75 164.25 M-11.25 171.5 L-15.75 171.0 Q-19.5 172.5 -20.25 175.0 L-20.5 180.5 Q-20.0 182.75 -16.5 184.75 L-12.75 185.0 Q-8.25 183.25 -7.75 180.25 L-8.0 175.0 -11.25 171.5 M-43.25 188.75 Q-50.5 189.75 -50.0 197.75 L-48.25 201.5 Q-45.5 203.75 -43.0 203.5 -38.0 202.0 -37.25 199.5 L-36.5 194.75 Q-36.5 192.0 -39.5 189.75 L-43.25 188.75 M-49.5 171.25 L-53.5 171.0 Q-56.75 172.0 -58.0 174.75 L-58.75 179.75 Q-57.25 183.75 -55.75 184.25 L-50.75 185.0 Q-44.25 181.75 -45.75 175.25 -47.5 171.5 -49.5 171.25 M-174.75 115.5 Q-184.0 118.25 -184.5 128.0 L-186.0 128.25 -187.75 129.0 Q-197.0 133.5 -196.25 143.0 -184.75 141.25 -183.5 134.25 L-179.75 138.75 -174.25 140.25 -171.0 139.75 -171.0 138.25 Q-171.25 133.0 -173.5 131.25 L-178.0 128.25 -173.5 124.25 -171.5 119.25 -171.5 115.5 -174.75 115.5 M-55.75 203.25 L-58.25 203.0 Q-58.25 196.75 -63.5 200.25 -65.5 205.75 -60.75 205.75 L-60.75 206.75 Q-63.0 206.0 -64.5 209.0 L-64.25 212.25 Q-63.25 214.25 -59.5 213.0 L-58.25 209.75 -54.75 208.0 -54.5 205.0 -55.75 203.25 M-37.5 218.0 L-39.75 213.5 -44.0 211.0 -47.75 211.0 Q-58.5 216.5 -54.5 225.75 -65.25 227.5 -64.25 238.0 L-29.75 238.0 Q-29.5 225.0 -38.5 225.75 -36.5 221.0 -37.5 218.0 M-172.25 268.25 Q-175.0 271.75 -176.75 282.25 L-182.0 324.25 -137.75 314.0 -133.75 274.5 -133.75 267.0 Q-134.25 261.75 -137.75 257.25 L-141.25 254.0 Q-159.25 246.75 -172.25 268.25 M-210.75 209.5 L-211.5 209.25 -212.75 209.25 -213.25 209.5 -212.75 208.5 -212.75 207.5 -213.0 206.5 -213.5 205.5 -214.25 205.0 -217.5 204.5 -218.0 205.0 -219.0 205.75 -220.0 206.75 -221.0 208.75 -221.0 210.0 -220.75 211.0 -220.25 211.75 -219.25 212.5 -218.25 212.75 -217.0 212.75 -217.0 214.25 -218.25 214.25 -219.0 214.5 -220.75 215.5 -221.75 216.5 -222.75 218.75 -222.75 219.75 -222.5 221.0 -222.0 221.75 -221.0 222.5 -217.75 222.25 -216.5 221.5 -215.5 220.5 -214.5 218.25 -214.5 217.5 -212.0 217.0 -210.75 216.25 -209.25 214.25 -209.25 213.25 -209.75 211.0 -209.75 210.25 -210.75 209.5 M-164.0 229.5 L-165.25 231.0 Q-172.75 237.75 -170.5 248.25 L-131.75 244.0 -131.0 242.25 Q-128.5 222.25 -142.0 225.75 -127.75 205.75 -145.5 201.25 -165.5 210.0 -154.5 226.75 L-158.0 226.75 -164.0 229.5 M-193.75 219.5 L-196.75 218.5 -201.25 218.75 -204.75 220.25 Q-214.75 227.0 -212.0 237.5 -224.25 238.0 -226.75 254.25 L-183.0 249.25 Q-179.75 238.75 -189.5 235.75 L-192.25 236.0 Q-187.25 221.25 -193.75 219.5 M-171.25 191.0 Q-173.25 190.75 -176.25 194.25 L-178.25 198.75 Q-178.25 207.75 -173.5 207.5 L-170.75 207.5 Q-166.75 206.75 -165.75 205.0 L-163.0 199.25 Q-162.5 195.0 -164.0 193.25 L-166.25 191.5 -169.75 190.5 -171.25 191.0 M-199.75 195.5 L-201.0 197.75 -201.75 203.25 -200.0 206.5 -198.75 207.75 -196.25 208.75 -193.25 208.5 -191.25 207.5 Q-188.75 207.25 -185.75 202.0 L-185.25 197.25 -186.5 193.25 -188.5 192.0 -190.75 191.25 -193.5 191.25 -197.5 193.0 -199.75 195.5 M-174.0 165.0 L-178.0 164.75 Q-188.5 166.25 -191.0 177.5 -191.25 190.5 -182.75 191.0 L-180.25 191.5 -178.75 191.0 -177.75 191.0 -177.25 190.75 Q-166.25 186.0 -166.25 176.25 -167.5 165.25 -174.0 165.0 M-178.75 153.0 L-181.5 149.5 -183.5 148.5 -187.0 148.5 -189.0 149.0 -190.75 150.25 Q-193.25 151.5 -194.0 154.5 L-194.5 158.25 -193.25 162.0 -191.5 163.5 -191.0 163.75 -189.0 164.5 -186.0 164.5 -183.75 163.75 -180.25 160.75 Q-177.5 156.5 -178.75 153.0 M-170.5 152.75 L-172.0 157.25 Q-171.75 165.25 -166.75 165.0 L-164.25 165.0 -162.75 164.5 -162.5 164.5 -162.0 164.25 Q-152.25 154.0 -162.75 149.5 L-165.25 149.5 Q-167.25 148.75 -170.5 152.75 M-204.0 170.0 L-204.5 170.25 -206.25 171.5 -208.0 173.25 -210.0 178.0 -209.5 182.25 -208.5 184.25 -206.75 185.5 -204.5 186.25 -201.5 186.25 -198.75 185.25 -197.0 184.0 -195.25 182.0 -194.0 180.0 -193.25 175.5 -194.25 172.0 -196.25 170.25 -198.0 169.25 -201.0 169.25 -204.0 170.0 M-68.25 271.0 L-69.75 301.5 -28.75 301.5 -28.0 265.0 Q-27.75 259.5 -30.75 253.5 -42.5 239.0 -52.5 244.0 -63.25 247.5 -67.0 259.75 L-68.25 271.0 M-101.25 246.75 L-106.5 246.75 -109.25 247.75 -109.5 247.75 -110.0 248.0 Q-122.0 254.5 -125.0 266.75 L-126.5 275.75 -130.0 312.25 -127.75 312.0 -92.25 304.0 -89.5 266.5 -90.0 259.75 Q-92.0 249.0 -101.25 246.75 M-99.0 213.5 Q-99.85 213.15 -100.75 212.75 L-103.75 212.75 -104.5 213.0 -106.5 214.0 Q-113.75 220.0 -111.0 228.75 L-113.5 229.25 Q-122.25 235.0 -121.0 242.75 L-89.75 239.25 Q-87.5 228.0 -96.5 227.25 -92.75 218.0 -99.0 213.5 M-85.5 202.0 L-86.0 200.5 -86.75 200.0 -87.25 199.75 -88.25 199.75 -89.0 200.0 -90.0 200.75 -90.75 202.25 -90.75 203.75 -92.75 204.25 -93.25 204.75 -93.75 205.5 -94.25 207.25 -94.25 208.25 -94.0 209.0 -93.5 209.75 -92.75 210.25 -91.25 210.5 -91.5 211.0 -91.5 212.0 -91.25 212.75 -90.75 213.5 -90.25 214.0 -89.5 214.25 -88.75 214.25 -88.0 214.0 -87.25 213.25 -86.25 211.75 -86.0 210.75 -86.0 210.0 -86.25 209.0 -87.5 207.75 -88.75 207.5 -88.75 207.0 -88.0 206.25 -87.25 206.0 -86.5 205.25 -85.5 203.75 -85.75 203.0 -85.5 202.0" fill="#000000" fill-rule="evenodd" stroke="none"/>
  </g>
</svg>
