<?xml version="1.0" encoding="UTF-8" standalone="no"?>
<svg xmlns:xlink="http://www.w3.org/1999/xlink" height="680.0px" width="480.0px" xmlns="http://www.w3.org/2000/svg">
  <g transform="matrix(1.0, 0.0, 0.0, 1.0, 240.0, 344.0)">
    <path d="M80.5 -22.25 L78.5 -23.5 76.25 -23.25 74.5 -22.0 74.0 -21.75 73.25 -20.75 72.5 -19.25 72.0 -15.5 72.75 -14.25 74.5 -13.0 76.0 -12.75 76.5 -13.0 76.75 -13.0 77.5 -13.25 79.25 -14.5 80.0 -15.75 81.0 -17.0 81.5 -18.5 81.0 -21.25 80.5 -22.25 M47.75 -9.75 Q49.25 -13.25 47.5 -15.25 L43.75 -17.5 39.75 -17.0 Q33.5 -8.5 44.0 -7.5 L47.75 -9.75 M78.0 -30.5 L78.5 -29.5 79.25 -28.5 80.75 -28.25 82.0 -28.25 83.25 -28.75 84.75 -30.0 86.0 -30.75 86.75 -32.5 Q87.75 -37.0 86.5 -37.75 L84.0 -38.75 82.0 -38.5 80.25 -37.25 79.75 -37.0 79.0 -36.0 77.75 -33.5 78.0 -30.5 M35.5 -5.0 L32.0 -4.25 Q29.25 -2.0 29.5 0.25 L30.75 3.25 34.0 5.25 36.75 5.25 Q43.0 2.25 40.0 -2.75 37.75 -5.25 35.5 -5.0 M18.75 -16.0 L18.25 -10.5 Q19.5 -7.25 22.5 -5.5 L27.75 -4.5 Q38.0 -7.25 35.25 -15.0 33.5 -19.25 29.75 -20.0 L24.25 -20.25 Q19.5 -18.5 18.75 -16.0 M19.5 -5.0 L16.0 -4.25 Q13.25 -2.25 13.5 -0.5 L14.5 3.25 18.0 5.25 20.75 5.25 Q26.5 3.0 24.0 -2.5 21.25 -5.5 19.5 -5.0 M16.25 -14.25 L13.0 -17.25 9.75 -17.5 6.0 -15.0 5.5 -11.0 8.25 -8.0 12.0 -7.5 15.75 -9.75 16.25 -14.25 M15.75 -29.25 Q13.0 -27.5 13.25 -26.0 L13.75 -22.5 17.0 -20.25 19.5 -20.0 23.5 -22.25 Q24.25 -27.0 23.5 -27.5 21.5 -30.0 19.5 -29.75 L15.75 -29.25 M1.0 -40.0 Q10.0 -43.25 7.75 -49.5 6.0 -53.75 2.0 -54.5 L-3.75 -54.25 Q-11.5 -49.5 -8.25 -44.0 L-4.0 -40.5 1.0 -40.0 M12.5 -37.25 Q12.0 -39.5 8.5 -40.25 L5.0 -40.0 Q-2.75 -32.75 8.25 -30.75 13.5 -32.0 12.5 -37.25 M35.75 -29.75 L32.0 -29.5 Q24.25 -22.5 35.25 -20.0 38.5 -20.5 39.75 -23.25 L39.75 -26.25 Q38.75 -29.25 35.75 -29.75 M26.25 -39.0 L25.0 -35.25 31.5 -35.5 34.5 -38.0 Q39.0 -30.75 42.5 -33.0 42.25 -41.0 35.5 -41.5 34.25 -50.5 27.5 -49.75 26.75 -46.5 28.0 -44.5 L31.0 -41.75 Q27.75 -41.25 26.25 -39.0 M8.75 -54.5 Q11.5 -55.5 12.25 -57.75 L11.75 -61.25 Q10.0 -63.75 7.25 -63.5 L3.5 -62.5 Q-1.75 -55.25 8.75 -54.5 M16.25 -52.0 L12.0 -51.5 Q5.25 -44.5 16.25 -42.75 18.75 -43.0 20.25 -46.25 L20.0 -49.0 Q19.25 -51.25 16.25 -52.0 M79.5 -54.75 Q79.85 -52.35 79.25 -50.0 L78.5 -49.25 77.5 -48.5 Q72.25 -41.5 75.0 -38.5 77.0 -39.0 79.75 -42.75 L81.0 -46.5 Q83.0 -45.25 86.0 -45.5 L89.5 -47.25 Q88.25 -51.25 86.75 -51.5 L83.25 -51.75 85.75 -56.0 86.0 -58.0 85.5 -61.25 84.0 -60.75 Q80.25 -57.75 79.5 -54.75 M79.75 -7.25 L80.25 -3.75 81.5 -2.75 82.5 -2.25 84.75 -2.0 85.75 -2.75 87.5 -3.75 89.5 -6.75 89.25 -10.5 88.0 -12.5 86.25 -13.0 84.25 -12.5 83.75 -12.5 83.25 -12.25 80.75 -10.25 79.75 -7.25 M124.75 -81.25 L121.75 -77.5 122.0 -72.75 Q123.25 -71.25 126.25 -71.25 136.0 -76.25 130.5 -82.25 127.25 -83.25 124.75 -81.25 M152.0 -80.0 L150.75 -80.0 149.75 -79.75 Q148.5 -86.0 146.0 -85.75 L140.0 -85.5 Q139.5 -78.0 144.75 -78.0 L140.5 -73.75 139.0 -69.0 139.25 -67.75 140.0 -68.0 141.5 -68.25 145.0 -70.0 148.75 -74.75 Q152.25 -70.25 158.5 -72.25 158.75 -80.5 152.0 -80.0 M74.25 -0.5 L73.75 -1.0 73.25 -1.25 71.75 -0.75 70.5 0.5 70.25 1.25 70.25 2.0 70.75 3.0 71.5 3.75 72.25 3.75 72.5 3.5 72.75 3.5 73.0 3.75 72.75 4.5 72.5 4.5 72.0 4.75 71.25 5.5 71.0 6.0 70.75 7.25 70.75 8.0 71.0 8.5 71.5 9.0 72.0 9.25 72.75 9.25 73.0 9.0 73.75 8.75 74.25 8.0 74.75 7.5 75.0 6.75 75.0 5.75 76.75 4.5 77.25 3.75 77.5 3.25 77.5 2.5 77.0 1.25 76.5 1.0 75.75 0.75 74.75 0.75 74.5 0.0 74.25 -0.5 M123.25 -66.25 L120.25 -66.0 Q116.75 -64.5 116.0 -62.0 L115.5 -57.75 117.75 -55.25 120.0 -55.0 120.5 -55.25 122.5 -56.0 Q125.5 -57.75 126.25 -60.5 L126.0 -64.25 123.25 -66.25 M113.0 -81.75 L116.25 -80.5 Q126.75 -86.25 121.0 -91.25 118.75 -92.5 115.25 -90.0 L112.5 -86.0 Q111.75 -83.25 113.0 -81.75 M102.75 -84.25 L102.25 -84.0 98.5 -80.5 98.0 -76.25 Q98.75 -74.0 101.25 -74.0 L105.0 -75.25 Q112.0 -84.5 102.75 -84.25 M144.0 -52.0 L141.5 -51.0 Q136.5 -48.25 135.5 -44.5 L135.0 -38.75 Q135.5 -35.75 138.75 -34.0 L143.5 -33.5 147.75 -35.0 Q151.25 -36.75 153.5 -41.5 L153.75 -47.25 Q151.5 -54.0 144.0 -52.0 M158.0 -53.25 L157.0 -52.0 155.5 -48.75 156.25 -45.75 157.0 -44.5 159.75 -43.25 161.25 -43.25 161.75 -43.5 162.25 -43.5 164.0 -44.25 164.25 -44.25 167.25 -47.0 168.0 -48.5 Q168.75 -51.0 168.0 -53.0 L165.75 -55.25 163.5 -55.5 161.5 -55.25 158.0 -53.25 M155.75 -65.0 L152.25 -66.0 150.5 -65.75 150.25 -65.75 148.0 -64.5 147.75 -64.25 147.25 -64.0 146.25 -62.75 144.75 -60.25 145.25 -56.5 147.0 -54.75 148.75 -54.25 150.25 -54.25 150.75 -54.5 151.0 -54.5 153.25 -55.5 154.5 -56.5 156.5 -59.5 156.75 -61.0 Q157.25 -63.75 155.75 -65.0 M129.25 -56.0 L128.25 -53.75 129.0 -49.25 131.75 -47.75 133.75 -48.0 135.75 -48.75 Q139.25 -51.25 139.5 -53.0 L139.5 -56.75 136.75 -59.25 133.25 -59.0 132.75 -58.75 129.25 -56.0 M99.75 -60.5 Q105.5 -71.75 95.25 -68.25 88.5 -58.75 96.75 -58.75 L97.0 -59.0 97.5 -59.0 98.5 -59.5 99.75 -60.5 M91.0 7.0 Q88.75 3.0 87.5 3.75 L85.0 3.5 84.0 3.75 83.5 4.0 81.25 5.5 Q79.25 5.75 78.0 11.0 L79.0 16.25 Q71.25 20.5 73.25 26.75 L98.5 19.5 Q99.5 13.0 92.25 12.25 L91.75 12.5 90.75 12.5 91.0 7.0 M169.5 178.5 L214.75 178.5 202.75 112.25 160.75 116.5 169.5 178.5 M215.5 181.5 L170.0 181.5 180.0 251.25 229.0 256.75 215.5 181.5 M162.75 113.75 L202.25 109.25 191.25 50.5 152.25 58.0 160.25 113.75 162.75 113.75 M167.0 5.0 L162.5 5.75 160.0 7.0 159.75 7.0 159.25 7.25 Q153.5 10.0 150.75 14.75 L147.75 22.75 149.0 36.5 152.0 55.75 191.25 48.0 185.75 18.0 184.25 13.5 Q177.75 3.5 167.0 5.0 M171.25 -34.25 L170.5 -33.5 170.0 -32.75 169.75 -32.0 169.75 -31.25 170.0 -30.5 168.5 -30.0 168.0 -29.75 167.5 -29.25 166.75 -27.0 167.25 -26.25 167.5 -25.75 168.25 -25.25 169.0 -25.0 170.0 -25.0 170.75 -25.25 171.5 -23.75 172.25 -23.25 173.5 -23.0 174.25 -23.0 174.75 -23.25 175.25 -23.25 176.5 -24.5 177.0 -25.25 177.25 -26.0 177.25 -26.75 177.0 -27.5 176.5 -28.0 175.5 -28.5 174.75 -28.75 173.0 -28.5 173.0 -28.75 173.5 -29.75 174.75 -30.25 175.5 -31.0 176.0 -31.75 176.0 -33.25 175.75 -33.75 174.75 -34.75 173.5 -35.0 171.25 -34.25 M160.5 -20.75 L158.25 -20.0 155.5 -18.25 Q149.25 -11.25 153.75 -6.25 L152.25 -5.75 Q145.5 -3.75 146.5 5.0 L147.5 5.75 162.25 1.25 162.75 1.25 163.25 1.0 179.5 -3.75 Q177.75 -13.75 168.75 -11.0 170.0 -20.25 163.0 -20.75 L160.5 -20.75 M125.0 -1.75 Q130.75 -8.75 126.5 -15.0 L121.75 -17.25 117.5 -16.75 Q104.0 -7.25 115.5 1.25 103.25 3.75 106.75 17.0 L137.0 8.75 137.5 7.0 Q137.25 -5.75 125.0 -1.75 M141.5 -31.25 L139.75 -31.5 137.5 -31.5 136.0 -30.75 134.5 -29.75 Q132.75 -29.25 132.0 -26.0 L132.5 -21.75 135.25 -19.75 137.75 -19.75 139.75 -20.5 Q142.75 -22.0 143.5 -24.5 L143.75 -28.25 141.5 -31.25 M130.5 -42.5 L127.0 -42.25 126.5 -42.0 Q124.5 -42.0 122.25 -38.0 L122.0 -34.0 123.5 -31.75 127.0 -31.0 129.0 -31.75 Q131.75 -32.5 133.25 -36.5 L133.0 -40.25 130.5 -42.5 M157.75 -37.75 L155.0 -37.5 154.5 -37.25 153.5 -37.0 152.0 -36.0 149.5 -33.25 149.0 -31.25 Q148.25 -29.75 150.25 -26.75 L151.75 -26.0 153.25 -25.5 154.75 -25.5 156.5 -25.75 159.0 -27.5 Q160.5 -27.75 161.75 -32.25 L161.0 -35.25 160.0 -36.5 157.75 -37.75 M98.75 -17.75 L98.5 -17.75 98.0 -17.5 96.5 -16.5 Q94.25 -15.0 94.0 -12.5 L94.25 -9.0 95.75 -7.25 98.5 -6.75 100.5 -7.5 Q108.25 -15.75 100.75 -18.0 L98.75 -17.75 M88.5 -30.75 Q84.0 -28.0 83.5 -25.25 L82.75 -19.75 Q84.0 -15.75 86.0 -15.0 L89.5 -14.5 93.0 -15.75 Q96.0 -17.0 98.0 -21.5 L98.25 -28.0 Q95.5 -32.25 94.5 -31.75 L90.75 -31.75 88.5 -30.75 M96.5 -44.25 L96.0 -44.0 Q94.0 -44.0 91.75 -40.0 L91.5 -36.25 94.0 -33.5 95.75 -33.5 98.25 -34.5 99.5 -35.5 Q104.5 -44.75 96.5 -44.25 M105.0 -34.0 L104.5 -33.75 Q103.0 -34.25 100.25 -29.75 L100.0 -25.75 Q100.5 -23.75 102.75 -23.0 L104.5 -23.0 106.5 -23.75 Q115.25 -33.25 105.0 -34.0 M108.5 -59.75 Q102.5 -61.0 100.5 -53.5 100.25 -51.25 102.0 -49.5 L105.75 -49.0 Q114.75 -56.25 108.5 -59.75 M104.0 -71.0 Q102.25 -61.0 110.25 -61.5 125.5 -69.0 116.5 -78.5 106.75 -79.25 104.0 -71.0 M88.25 26.75 L85.5 27.0 83.25 28.25 Q75.25 31.75 73.25 42.0 L75.0 71.25 104.75 65.5 102.25 39.0 101.0 34.25 Q95.75 25.25 88.25 26.75 M145.25 59.5 L111.0 66.5 116.5 118.5 117.25 118.5 152.75 114.5 145.25 59.5 M109.0 29.25 L108.0 34.5 108.25 40.5 110.75 64.0 112.0 64.0 144.75 57.0 Q142.5 20.25 134.5 18.5 114.25 13.0 109.0 29.25 M51.5 2.5 L48.25 2.75 47.5 5.0 44.75 6.0 44.5 7.75 46.5 9.75 47.75 9.75 Q48.0 12.25 50.0 12.5 L52.5 11.75 52.75 8.75 49.75 7.75 49.5 7.0 52.25 6.25 Q53.0 3.0 51.5 2.5 M-119.0 -66.5 L-114.0 -62.25 -109.5 -61.5 Q-101.25 -65.25 -106.0 -73.25 -111.5 -81.0 -118.25 -78.25 -123.5 -74.25 -119.0 -66.5 M-101.5 -69.0 Q-103.75 -67.75 -103.25 -64.75 L-101.75 -61.25 -98.25 -58.75 -95.25 -58.75 -93.25 -61.5 Q-93.0 -65.0 -94.75 -66.75 L-99.0 -69.25 -101.5 -69.0 M-114.5 -81.25 L-113.25 -84.0 -115.0 -88.75 -117.75 -90.75 -118.25 -91.0 Q-129.25 -91.0 -119.25 -81.0 -115.75 -80.0 -114.5 -81.25 M-164.0 -20.75 Q-172.75 -17.75 -169.75 -11.0 -179.5 -13.25 -180.5 -3.5 L-148.0 5.75 Q-145.5 -2.25 -153.25 -5.75 L-154.75 -6.25 Q-150.25 -13.0 -156.75 -18.25 L-159.25 -20.0 -161.75 -20.75 -164.0 -20.75 M-177.0 -33.25 L-177.0 -31.75 -176.5 -31.0 -175.75 -30.25 -175.0 -29.75 -174.0 -29.25 -174.25 -28.5 -175.75 -28.75 -176.5 -28.5 -177.5 -28.0 -178.0 -27.5 -178.25 -26.75 -178.25 -26.0 -178.0 -25.25 -177.5 -24.5 -176.75 -23.75 -175.25 -23.0 -174.75 -23.0 -173.25 -23.25 -172.25 -24.25 -172.0 -25.0 -171.5 -25.25 -171.0 -25.0 -170.5 -25.0 -169.25 -25.25 -168.5 -25.75 -168.25 -26.25 -167.75 -27.0 -168.5 -29.25 -169.0 -29.75 -170.75 -30.5 -171.0 -30.5 -170.75 -31.25 -170.75 -32.0 -171.0 -32.75 -171.75 -33.5 -172.25 -34.25 -174.5 -35.0 -176.0 -34.5 -176.75 -33.75 -177.0 -33.25 M-166.75 -55.0 L-167.75 -54.25 Q-169.5 -53.5 -169.5 -50.75 L-169.0 -48.5 -166.75 -45.5 -166.5 -45.25 -165.0 -44.25 -162.5 -43.25 -160.75 -43.25 -158.0 -44.5 -157.25 -45.75 -156.5 -48.75 -157.25 -50.5 -159.0 -53.25 -161.5 -54.75 -161.75 -54.75 -162.0 -55.0 -162.5 -55.25 -164.75 -55.5 -166.75 -55.0 M19.0 239.5 L18.0 181.0 -19.0 181.0 -20.0 239.5 19.0 239.5 M130.0 248.5 L137.75 320.75 182.25 331.0 171.5 253.25 130.0 248.5 M20.0 307.25 L19.0 242.25 -20.0 242.25 -21.0 307.25 20.0 307.25 M70.6 336.0 L69.25 310.25 28.0 310.25 28.7 336.0 20.45 336.0 20.0 310.25 -21.0 310.25 -21.45 336.0 -29.65 336.0 -29.0 310.25 -70.25 310.25 -71.55 336.0 -94.5 336.0 -93.0 312.75 -130.75 321.75 -131.0 322.5 -132.2 336.0 -140.15 336.0 -139.0 324.0 -140.0 324.0 -183.5 334.5 -183.8 336.0 -203.15 336.0 -192.75 333.5 -181.5 254.5 -230.75 260.25 -240.0 311.55 -240.0 -344.0 240.0 -344.0 240.0 317.1 229.75 260.25 180.5 254.5 191.75 333.5 199.3 336.0 183.15 336.0 Q182.8 334.5 182.25 334.5 L138.0 324.0 139.4 336.0 131.2 336.0 129.75 321.75 91.75 312.75 93.5 336.0 70.6 336.0 M65.75 242.5 L26.5 242.25 28.0 307.25 69.0 307.25 65.75 242.5 M122.5 247.5 L87.0 243.5 91.5 309.75 129.5 318.5 122.5 247.5 M17.25 123.25 L16.25 75.0 -17.5 75.0 -18.25 123.25 17.25 123.25 M122.75 178.5 L161.5 178.5 153.0 117.25 116.75 120.75 122.75 178.5 M161.75 181.5 L123.0 181.25 129.75 245.5 171.25 250.25 161.75 181.5 M82.5 178.5 L115.75 178.5 110.25 121.5 78.75 124.5 82.5 178.5 M116.0 181.25 L82.5 181.0 86.75 240.75 122.25 244.75 116.0 181.25 M18.0 178.75 L17.25 125.5 -18.25 125.5 -19.0 178.75 18.0 178.75 M62.25 181.0 L25.25 181.0 26.5 239.5 65.5 239.5 62.25 181.0 M59.5 125.5 L24.0 125.5 25.25 178.75 62.25 178.75 59.5 125.5 M78.25 121.0 L79.0 122.5 110.0 119.0 105.0 67.5 75.0 73.5 78.25 121.0 M56.75 75.0 L23.0 75.0 24.0 123.25 59.25 123.25 56.75 75.0 M15.5 44.25 L12.75 39.25 Q5.25 29.5 -9.5 35.5 -20.0 37.75 -17.5 73.0 L16.5 73.0 15.5 44.25 M4.25 17.5 Q10.5 13.5 7.5 6.25 L4.0 3.0 -1.25 2.0 Q-15.75 8.75 -5.25 17.5 -18.0 16.5 -15.75 29.25 L14.5 29.25 15.25 28.25 Q15.75 16.0 4.25 17.5 M55.25 47.0 Q54.75 43.0 52.25 39.75 35.5 27.5 27.25 37.0 19.25 39.5 23.0 73.0 L56.75 73.0 55.25 47.0 M44.5 20.75 Q45.75 18.75 45.0 15.5 L42.75 12.25 38.5 10.5 36.5 10.5 Q27.75 12.75 31.0 20.75 23.0 21.0 23.75 29.25 L52.75 29.0 Q51.25 20.0 44.5 20.75 M-109.75 -59.75 Q-112.25 -58.5 -112.0 -56.5 L-110.75 -52.0 -108.5 -50.0 -106.25 -49.0 Q-102.75 -49.0 -102.25 -50.25 L-101.5 -53.75 -103.5 -57.75 -105.75 -59.5 -109.75 -59.75 M-119.5 -55.0 Q-114.5 -56.5 -117.75 -63.25 -122.5 -68.5 -126.25 -65.25 -128.75 -55.5 -119.5 -55.0 M-84.25 -51.75 Q-85.5 -52.75 -88.75 -50.75 L-90.5 -47.25 -87.0 -45.5 Q-83.5 -45.0 -82.0 -46.5 L-79.75 -41.25 Q-77.75 -38.75 -75.75 -38.5 L-75.5 -43.75 -78.5 -48.5 -79.75 -49.25 -80.5 -50.0 Q-79.75 -54.25 -81.5 -57.0 L-86.0 -61.25 Q-87.5 -60.25 -87.0 -57.25 L-84.25 -51.75 M-141.25 -81.0 L-140.75 -85.25 -142.75 -86.0 Q-150.75 -86.75 -150.75 -79.75 L-151.75 -80.0 -153.0 -80.0 Q-156.25 -80.5 -158.75 -77.25 L-159.5 -72.25 Q-152.75 -70.0 -150.0 -74.75 L-146.0 -70.0 -142.5 -68.25 -141.0 -68.0 -140.25 -67.75 -140.0 -69.0 -141.5 -73.75 -145.75 -78.0 -142.5 -79.25 -141.25 -81.0 M-108.0 -83.75 Q-110.75 -75.25 -101.5 -74.0 -97.0 -75.0 -100.5 -82.0 -105.25 -86.25 -108.0 -83.75 M-128.5 -82.5 Q-138.0 -80.0 -129.75 -72.5 L-129.0 -72.0 -127.75 -71.5 -126.0 -71.25 -123.0 -72.75 -122.75 -77.5 -125.75 -81.25 -128.5 -82.5 M-126.25 -1.75 L-131.0 -2.75 -134.25 -1.75 Q-140.0 1.0 -138.0 8.75 L-108.75 17.0 -107.75 17.0 -107.0 15.25 Q-107.25 1.0 -116.5 1.5 -104.5 -7.5 -119.5 -17.0 -134.75 -15.75 -126.25 -1.75 M-156.5 -37.75 L-159.0 -37.75 -161.0 -36.5 -162.0 -35.25 -162.75 -32.0 -161.5 -29.0 -158.75 -26.25 -156.75 -25.75 -156.5 -25.75 -156.0 -25.5 -154.25 -25.5 -151.25 -26.75 Q-149.5 -29.5 -150.0 -31.25 L-150.75 -33.75 -153.0 -36.0 -154.5 -37.0 -156.0 -37.5 -156.5 -37.75 M-136.0 -30.5 L-138.75 -31.5 Q-149.75 -30.5 -140.75 -20.5 L-138.75 -19.75 Q-128.75 -21.75 -135.75 -29.75 L-136.0 -30.5 M-123.5 -38.5 Q-126.0 -42.5 -127.5 -42.0 L-128.0 -42.25 -132.25 -42.25 -134.25 -39.5 Q-134.75 -36.25 -133.25 -34.25 L-130.0 -31.75 -128.0 -31.0 -126.0 -31.0 -124.25 -32.0 -123.0 -34.0 -123.5 -38.5 M-140.75 -55.5 L-139.5 -51.0 -136.75 -48.75 -134.75 -48.0 -132.75 -47.75 -130.25 -49.0 Q-128.75 -50.25 -129.25 -53.75 L-131.0 -57.0 -133.75 -58.75 -134.5 -59.0 -139.0 -58.75 -140.75 -55.5 M-142.5 -51.0 L-145.0 -52.0 Q-152.5 -54.25 -155.0 -46.5 -155.5 -42.5 -153.25 -39.0 L-148.75 -35.0 -144.75 -33.5 Q-141.0 -32.75 -138.25 -35.0 L-136.0 -39.0 -136.5 -44.75 Q-138.0 -48.75 -142.5 -51.0 M-150.75 -65.5 L-151.25 -65.75 -153.25 -66.0 -155.0 -65.75 -157.5 -64.0 -157.75 -61.0 -157.5 -59.5 -155.5 -56.5 -154.25 -55.5 -152.0 -54.5 -151.75 -54.5 -151.25 -54.25 -149.75 -54.25 -147.0 -55.5 Q-145.25 -56.75 -145.75 -60.25 L-148.25 -63.75 -150.25 -65.25 -150.5 -65.25 -150.75 -65.5 M-83.0 -38.25 L-85.0 -38.75 -86.5 -38.25 -88.25 -36.0 -88.25 -34.0 -87.25 -31.25 -85.75 -29.75 -84.25 -28.75 -83.0 -28.25 -82.0 -28.5 -80.25 -28.5 -79.5 -29.5 -79.0 -30.5 -79.0 -34.5 -80.75 -37.0 -82.75 -38.25 -83.0 -38.25 M-82.0 -21.25 L-82.5 -18.5 -82.0 -17.0 -80.25 -14.5 -78.5 -13.25 -77.75 -13.0 -77.5 -13.0 -77.0 -12.75 -75.5 -13.0 -73.75 -14.25 -73.0 -15.75 -73.5 -19.25 -75.25 -21.75 -75.75 -22.0 -77.5 -23.25 -79.5 -23.5 -80.5 -23.0 -81.5 -22.25 -82.0 -21.25 M-101.75 -18.0 Q-109.5 -15.5 -101.5 -7.5 L-99.5 -6.75 Q-91.5 -8.0 -97.75 -16.5 L-99.25 -17.5 -100.25 -18.0 -101.75 -18.0 M-105.5 -33.75 L-106.0 -34.0 Q-116.25 -32.75 -107.5 -23.75 L-106.5 -23.25 -105.75 -23.0 Q-103.75 -22.5 -101.75 -24.25 L-101.0 -28.75 -102.25 -31.5 -105.5 -33.75 M-91.75 -31.75 Q-98.5 -33.0 -99.5 -26.25 -99.5 -20.75 -97.5 -18.75 L-94.0 -15.75 -90.5 -14.5 Q-85.5 -14.75 -84.75 -17.0 L-83.75 -21.25 Q-84.25 -26.0 -86.0 -28.0 L-89.25 -30.5 -91.75 -31.75 M-96.5 -43.75 L-97.5 -44.25 Q-106.0 -43.25 -100.5 -35.5 L-99.25 -34.5 -97.75 -34.0 -96.75 -33.5 -94.0 -34.0 -92.5 -36.25 -93.25 -41.0 -96.5 -43.75 M-85.25 -12.5 L-87.5 -13.0 -89.75 -11.75 -90.25 -10.5 Q-91.25 -8.75 -90.25 -6.0 L-88.5 -3.75 -87.0 -2.75 -85.5 -2.0 -83.75 -2.25 -81.75 -3.25 Q-80.25 -4.75 -80.75 -7.25 L-81.25 -8.75 -83.75 -12.25 -84.5 -12.25 -85.0 -12.5 -85.25 -12.5 M-14.25 -52.0 L-18.5 -51.5 Q-21.25 -50.25 -21.25 -48.25 L-20.75 -45.0 -17.25 -42.75 -14.75 -42.75 Q-10.75 -44.25 -10.75 -45.75 L-11.0 -49.75 -14.25 -52.0 M-28.5 -49.75 L-30.0 -49.75 Q-36.0 -47.25 -36.0 -45.75 L-36.75 -41.5 Q-41.75 -40.5 -42.75 -37.75 L-43.5 -32.75 Q-36.0 -33.25 -35.5 -38.0 -33.75 -35.75 -31.0 -35.0 L-26.0 -35.25 Q-26.25 -39.0 -28.5 -40.25 L-32.0 -41.75 -29.0 -44.5 -28.25 -47.25 -28.5 -49.75 M-12.0 -62.25 Q-15.25 -53.75 -6.5 -54.5 L-3.0 -57.25 Q-2.75 -61.5 -3.75 -61.75 -5.75 -64.0 -9.0 -63.5 L-12.0 -62.25 M-74.75 -1.0 L-75.25 -0.5 -75.5 0.0 -76.0 0.75 -76.75 0.75 -77.5 1.0 -78.0 1.25 -78.5 2.5 -78.5 3.25 -78.25 3.75 -77.75 4.5 -77.25 5.0 -76.5 5.5 -76.0 6.0 -76.0 6.75 -75.75 7.5 -75.5 8.0 -74.75 8.75 -73.0 9.0 -72.0 8.5 -71.75 8.0 -72.0 7.5 -71.75 6.75 -72.0 6.25 -72.25 5.5 -74.0 4.25 -74.0 3.5 -72.75 3.75 -72.25 3.5 -71.75 3.0 -71.25 2.0 -71.25 1.25 -71.5 0.75 -72.0 0.0 -72.75 -0.75 -74.25 -1.25 -74.75 -1.0 M-79.5 122.5 L-76.0 73.25 -106.0 67.5 -111.0 119.25 -79.5 122.5 M-26.25 181.0 L-63.5 181.0 -66.5 239.5 -27.5 239.5 -26.25 181.0 M-25.0 125.5 L-60.5 125.5 -63.25 178.75 -26.25 178.75 -25.0 125.5 M-117.75 120.75 L-154.0 117.25 -162.5 178.5 -123.75 178.5 -117.75 120.75 M-116.75 178.5 L-83.5 178.5 -79.75 124.5 -111.25 121.5 -116.75 178.5 M-83.5 181.0 L-117.25 181.5 -123.25 243.0 -123.25 244.75 -122.25 244.75 -87.75 240.75 -83.5 181.0 M-161.75 118.25 L-162.0 116.25 -201.75 112.25 -204.0 112.5 -204.0 113.5 -215.75 178.5 -170.75 178.5 -161.75 118.25 M-145.5 57.5 L-111.75 64.0 Q-101.0 8.0 -135.5 18.5 -144.0 20.5 -145.5 57.5 M-112.0 66.25 L-146.25 59.5 -153.75 114.75 -117.5 118.5 -112.0 66.25 M-148.75 27.25 L-148.75 23.0 Q-152.0 10.25 -160.25 7.25 L-160.75 7.0 -161.0 7.0 -165.25 5.25 -168.25 5.0 -169.0 4.75 Q-181.5 5.25 -185.25 13.5 L-188.0 24.5 -192.25 48.0 -191.5 48.25 -154.25 55.75 -152.75 55.5 -148.75 27.25 M-24.0 75.0 L-57.75 75.0 -60.25 123.25 -25.25 123.25 -24.0 75.0 M-76.75 71.25 L-75.75 70.75 Q-69.0 31.75 -84.25 28.25 L-86.5 27.0 -89.25 26.75 Q-100.25 27.25 -102.25 34.75 L-103.75 44.0 -105.5 65.5 -76.75 71.25 M-80.0 16.0 Q-78.25 13.0 -79.5 9.0 L-82.25 5.5 -84.5 4.0 -86.0 3.5 -88.5 3.75 Q-90.75 4.0 -92.0 7.0 L-92.25 12.5 -92.75 12.5 -93.25 12.25 Q-100.25 12.5 -99.25 19.75 L-74.5 26.75 Q-73.25 18.5 -80.0 16.0 M-46.75 5.25 L-48.75 5.0 Q-49.5 0.0 -53.5 3.5 L-53.5 6.0 -50.75 7.0 -50.75 7.75 -53.25 8.25 -54.0 9.25 -53.25 12.0 Q-49.0 13.0 -48.75 9.75 L-46.5 9.25 -45.5 6.75 -46.75 5.25 M-23.25 48.25 Q-23.25 43.5 -25.25 40.5 -33.0 28.75 -48.75 35.75 -59.0 37.25 -57.75 73.0 L-24.0 73.0 -23.25 48.25 M-32.0 20.75 Q-30.25 9.25 -39.5 10.5 -49.5 15.25 -45.5 20.75 -54.5 22.0 -53.5 29.25 L-24.5 29.0 Q-24.75 20.5 -32.0 20.75 M-11.0 -7.5 Q-9.5 -7.25 -7.0 -10.0 L-6.5 -14.0 Q-8.0 -17.0 -9.75 -17.25 L-14.75 -17.0 Q-21.25 -8.0 -11.0 -7.5 M-22.0 -4.75 Q-25.25 -3.75 -25.75 -1.0 L-25.25 2.75 -21.75 5.25 -18.75 5.25 Q-16.25 4.75 -14.75 2.0 L-15.0 -2.25 -18.25 -4.75 -22.0 -4.75 M-31.0 -2.0 Q-34.25 -5.75 -35.75 -5.0 L-39.5 -4.0 Q-45.5 5.25 -34.75 5.25 -31.75 4.0 -30.75 1.5 L-31.0 -2.0 M-36.75 -11.75 Q-35.75 -7.0 -33.0 -5.75 L-27.25 -4.5 Q-18.5 -6.75 -19.0 -13.25 -20.25 -20.25 -27.5 -20.5 -37.0 -19.5 -36.75 -11.75 M-33.75 -29.75 L-38.0 -29.25 Q-45.25 -22.0 -34.75 -20.0 L-30.75 -22.25 Q-29.75 -22.75 -30.0 -26.5 -32.25 -30.0 -33.75 -29.75 M-14.5 -27.0 L-17.5 -29.5 -21.0 -29.75 Q-23.5 -29.5 -25.0 -26.5 L-25.0 -23.25 -22.25 -20.5 -19.0 -20.0 Q-15.75 -20.75 -14.75 -22.5 L-14.5 -27.0 M-6.0 -40.0 L-9.5 -40.25 Q-19.0 -34.25 -7.5 -30.75 -3.5 -32.0 -3.5 -33.25 L-2.75 -36.0 Q-4.25 -40.25 -6.0 -40.0 M-45.75 -17.25 Q-54.25 -9.75 -43.0 -7.5 -40.75 -7.5 -38.75 -10.5 L-38.5 -14.5 -41.5 -17.25 -45.75 -17.25 M-153.25 58.0 L-192.75 50.5 -203.25 109.5 -161.25 113.75 -153.25 58.0 M-88.0 243.5 L-123.75 247.75 -130.5 316.75 -130.5 318.5 -129.25 318.5 -92.5 309.75 -88.0 243.5 M-27.5 242.25 L-66.5 242.25 -70.0 307.25 -29.0 307.25 -27.5 242.25 M-183.25 329.75 L-183.25 331.0 -182.0 331.0 -138.5 320.5 -131.0 248.5 -172.75 253.5 -183.25 329.75 M-172.25 250.25 L-171.0 250.25 -130.75 245.5 -124.25 181.25 -163.0 181.75 -172.25 250.25 M-171.0 181.5 L-216.5 181.5 -230.0 255.75 -230.0 256.75 -228.5 256.75 -181.0 251.25 -171.0 181.5" fill="#000000" fill-rule="evenodd" stroke="none"/>
  </g>
</svg>
