<?xml version="1.0" encoding="UTF-8" standalone="no"?>
<svg xmlns:xlink="http://www.w3.org/1999/xlink" height="680.0px" width="480.0px" xmlns="http://www.w3.org/2000/svg">
  <g transform="matrix(1.0, 0.0, 0.0, 1.0, 240.0, 344.0)">
    <path d="M70.75 -204.5 L68.75 -204.25 66.75 -202.75 65.75 -201.25 64.25 -198.25 64.5 -196.75 65.0 -196.25 66.75 -196.0 67.75 -196.25 70.0 -198.25 71.75 -200.75 72.0 -203.75 70.75 -204.5 M71.25 -218.5 L71.25 -220.5 70.5 -221.0 Q68.25 -219.75 66.0 -214.75 L65.75 -211.0 65.0 -210.25 61.75 -205.0 62.0 -201.5 65.0 -204.0 67.25 -209.25 Q69.0 -208.5 71.75 -210.0 L74.0 -212.25 73.0 -214.0 72.0 -214.25 69.5 -213.75 71.25 -218.5 M27.0 -204.0 L23.0 -204.75 23.0 -201.75 25.5 -199.25 21.75 -197.25 21.0 -194.5 26.0 -194.75 28.75 -196.5 31.5 -193.5 35.5 -193.0 Q35.5 -196.5 34.25 -197.25 L29.75 -199.0 Q30.0 -202.75 27.0 -204.0 M6.0 -208.0 Q14.0 -210.75 6.75 -214.5 -3.5 -211.75 6.0 -208.0 M15.75 -205.5 L11.75 -206.5 9.0 -205.5 Q5.5 -200.0 14.0 -200.0 16.0 -200.0 17.0 -203.0 L15.75 -205.5 M6.5 -201.75 L6.0 -205.5 1.5 -208.25 Q-3.0 -209.0 -5.5 -207.0 -12.0 -199.25 1.25 -198.0 6.0 -199.75 6.5 -201.75 M75.5 -204.75 L77.75 -203.75 79.25 -204.5 81.5 -206.5 Q86.25 -215.25 78.75 -211.75 L75.5 -207.0 75.5 -204.75 M73.75 -201.0 Q70.25 -198.25 68.75 -194.5 L68.25 -190.75 69.0 -189.0 70.25 -188.25 73.75 -189.0 75.75 -190.25 Q79.25 -192.75 80.5 -196.25 L80.75 -201.0 Q79.0 -203.5 77.0 -202.5 L73.75 -201.0 M80.25 -222.75 L82.0 -224.5 Q87.5 -235.0 78.0 -228.0 73.5 -220.5 80.25 -222.75 M108.5 -225.25 L110.0 -226.5 113.0 -229.75 113.5 -233.25 112.25 -234.25 110.75 -234.25 108.25 -233.0 Q101.0 -226.5 107.5 -225.0 L108.5 -225.25 M119.0 -239.75 L117.5 -236.75 117.75 -234.75 119.25 -234.0 120.75 -234.25 122.0 -234.75 124.75 -237.25 126.5 -240.0 126.75 -241.0 126.25 -243.5 123.0 -243.25 121.25 -242.25 119.0 -239.75 M99.75 -252.5 Q97.75 -253.0 95.5 -250.75 L92.75 -246.75 92.75 -244.0 94.75 -243.25 Q103.75 -249.25 99.75 -252.5 M107.75 -248.5 L104.5 -248.25 100.75 -244.75 Q99.25 -242.75 99.75 -240.0 L101.75 -239.25 Q110.25 -243.75 107.75 -248.5 M125.25 -247.75 L128.25 -249.25 Q129.0 -252.75 126.75 -253.5 L123.25 -253.0 121.75 -252.5 Q121.5 -255.75 119.0 -255.5 L114.25 -253.75 Q113.25 -251.75 115.0 -250.0 L117.75 -249.75 114.0 -244.75 113.25 -241.75 113.75 -241.0 114.25 -241.5 115.0 -242.0 118.75 -245.0 121.0 -248.5 Q122.75 -247.0 125.25 -247.75 M103.25 -234.5 L101.25 -235.5 98.25 -234.25 94.75 -229.25 94.75 -227.0 96.25 -226.25 98.25 -226.5 99.75 -227.75 102.75 -231.0 103.25 -234.5 M116.0 -231.0 L111.0 -225.5 Q108.75 -221.0 109.5 -219.75 L111.75 -217.25 116.25 -218.25 119.0 -220.0 Q122.0 -221.75 124.0 -226.5 L124.25 -230.75 Q122.0 -233.5 120.5 -232.75 L116.0 -231.0 M89.75 -226.5 L85.75 -225.0 83.25 -221.5 82.75 -219.0 83.25 -218.0 85.75 -217.5 Q94.0 -223.75 89.75 -226.5 M86.25 -234.5 L85.5 -229.25 Q86.0 -227.75 89.5 -227.75 101.5 -235.25 97.25 -242.0 93.25 -242.75 90.25 -239.75 L86.25 -234.5 M88.5 -243.25 L84.75 -242.5 81.25 -238.0 81.5 -234.75 83.75 -234.5 Q91.5 -240.5 88.5 -243.25 M99.5 -212.25 L101.5 -211.25 103.5 -211.75 104.75 -212.5 Q107.5 -214.25 108.25 -217.0 L108.25 -219.75 107.25 -220.5 105.0 -220.5 103.5 -219.75 99.75 -215.25 99.5 -212.25 M88.5 -208.0 L85.75 -207.25 82.5 -203.25 82.0 -200.5 83.0 -199.0 85.75 -199.5 87.0 -200.25 90.25 -204.25 90.5 -206.75 89.5 -208.0 88.5 -208.0 M126.5 -122.5 L157.25 -138.5 150.75 -174.5 121.25 -157.5 126.5 -122.5 M157.5 -136.75 L126.5 -121.0 132.25 -82.75 164.75 -97.25 157.5 -136.75 M120.75 -118.0 L93.25 -104.25 97.0 -67.5 97.75 -67.5 126.0 -80.0 120.75 -118.0 M89.5 -139.25 L93.5 -105.5 120.75 -119.5 116.0 -154.5 89.5 -139.25 M88.25 -103.0 L85.0 -136.5 61.25 -123.0 63.5 -90.5 64.25 -90.5 88.25 -103.0 M88.5 -101.0 L87.75 -101.25 63.75 -88.75 66.5 -53.75 92.0 -65.0 88.5 -101.0 M110.5 -178.5 Q98.25 -182.25 88.75 -165.0 86.0 -159.25 90.25 -141.0 L115.75 -156.0 Q114.25 -177.25 110.5 -178.5 M83.0 -156.0 L82.0 -158.5 78.75 -160.75 Q73.25 -161.0 71.75 -159.25 L69.75 -158.0 69.25 -157.75 Q55.25 -148.5 61.25 -124.25 L84.75 -137.75 83.0 -156.0 M82.0 -187.0 Q88.5 -193.75 82.5 -194.75 L80.25 -193.5 79.5 -192.75 Q74.0 -185.75 80.75 -186.25 L82.0 -187.0 M111.0 -188.75 Q110.5 -196.25 102.0 -191.25 106.5 -205.5 95.75 -199.0 85.25 -188.25 93.5 -185.5 83.5 -177.5 86.5 -172.5 L87.5 -172.0 97.5 -178.75 98.0 -179.25 98.25 -179.25 99.75 -180.0 109.75 -186.25 111.0 -188.75 M132.0 -197.5 L129.25 -195.75 128.75 -195.5 Q127.0 -195.75 121.25 -187.75 L118.5 -181.0 119.0 -172.25 121.0 -159.25 150.5 -176.0 147.0 -195.0 145.5 -197.75 Q139.75 -202.5 132.0 -197.5 M126.5 -212.75 L125.5 -211.5 Q120.0 -205.25 123.25 -202.25 116.75 -198.5 118.0 -191.75 L130.0 -199.5 130.0 -199.75 142.75 -207.5 Q143.0 -214.0 135.0 -210.0 136.0 -213.75 134.0 -214.75 L130.5 -214.75 126.5 -212.75 M136.25 -224.75 L136.25 -224.0 136.0 -223.5 135.5 -223.25 134.5 -222.25 134.0 -221.5 133.75 -220.25 134.0 -220.0 134.25 -219.5 135.0 -219.5 136.5 -220.0 137.25 -219.5 138.0 -219.25 139.0 -219.5 140.25 -220.25 140.25 -220.75 141.0 -221.25 141.5 -222.0 141.5 -222.5 141.25 -223.5 140.25 -223.75 138.75 -223.25 138.25 -223.25 138.25 -223.75 139.75 -224.75 140.5 -225.5 140.75 -226.0 140.75 -226.5 140.5 -227.5 140.0 -227.75 139.0 -227.5 138.5 -227.5 137.75 -227.0 136.75 -226.0 136.25 -224.75 M135.0 -235.5 L135.25 -238.5 134.0 -239.25 131.5 -239.0 130.25 -238.5 129.75 -237.5 128.25 -236.75 127.25 -235.5 126.25 -233.75 125.75 -232.5 126.0 -230.5 126.75 -229.75 128.5 -229.5 130.0 -230.0 132.5 -231.75 134.5 -234.25 135.0 -235.5 M120.25 -218.25 L120.5 -216.0 122.25 -215.25 123.25 -215.25 124.5 -215.75 128.0 -218.5 130.0 -221.75 129.5 -224.25 128.75 -225.0 125.0 -224.5 123.75 -223.25 123.0 -222.75 120.25 -218.25 M112.5 -215.5 L111.75 -215.0 110.75 -214.5 109.75 -213.5 Q103.25 -205.25 111.75 -207.0 L112.5 -207.75 113.5 -208.25 Q119.75 -216.0 112.5 -215.5 M72.25 -187.0 L70.75 -186.75 70.0 -186.5 69.75 -186.25 69.0 -185.75 66.25 -182.25 65.75 -181.0 66.0 -178.75 67.25 -178.0 68.0 -178.0 70.25 -178.75 70.5 -179.5 71.5 -180.5 73.5 -183.0 73.5 -186.0 72.25 -187.0 M64.5 -191.75 L62.0 -190.0 60.0 -187.25 59.5 -184.75 60.25 -183.75 61.75 -183.25 62.75 -183.5 65.5 -185.75 66.25 -187.0 67.25 -189.25 67.0 -191.0 66.75 -191.5 64.5 -191.75 M61.25 -174.25 L60.75 -174.25 59.5 -174.0 58.75 -173.25 58.0 -171.5 58.5 -170.75 58.75 -170.5 59.0 -170.5 59.5 -170.75 59.5 -171.0 60.25 -170.75 59.0 -169.5 58.25 -167.75 58.75 -167.0 59.0 -166.75 60.5 -167.5 61.5 -168.5 62.0 -169.5 62.0 -170.75 62.5 -170.75 63.0 -171.25 62.75 -171.5 63.5 -172.0 63.75 -172.75 64.0 -173.25 63.5 -173.75 63.0 -174.0 62.0 -173.75 61.5 -173.5 61.5 -174.0 61.25 -174.25 M74.0 -175.0 L71.0 -175.25 67.25 -172.75 Q64.75 -171.0 64.25 -167.5 L65.0 -164.25 Q59.25 -160.5 60.25 -155.0 L80.5 -168.0 Q80.5 -173.5 74.5 -170.5 75.25 -174.75 74.0 -175.0 M42.75 -168.5 L39.5 -168.0 39.25 -166.75 Q34.0 -165.0 39.5 -163.5 L40.5 -161.75 43.25 -162.0 43.75 -164.0 41.0 -165.0 41.25 -165.5 43.0 -165.75 43.75 -166.75 42.75 -168.5 M7.5 -182.25 L5.25 -181.0 Q3.0 -179.0 5.75 -176.25 L10.75 -175.5 Q15.5 -178.5 12.25 -181.5 L7.5 -182.25 M6.75 -191.5 L10.0 -193.25 Q11.25 -196.5 9.5 -197.25 L5.0 -198.25 2.25 -197.0 Q-0.5 -192.5 6.75 -191.5 M16.25 -190.75 L12.5 -190.25 Q8.75 -184.5 16.0 -184.0 20.0 -184.75 20.0 -186.5 L19.25 -189.5 16.25 -190.75 M37.0 -175.5 Q40.75 -177.0 40.25 -178.75 L38.75 -181.5 33.75 -182.25 32.25 -181.5 Q29.25 -174.75 37.0 -175.5 M29.25 -180.75 L25.75 -183.75 20.0 -184.25 Q15.75 -182.75 15.5 -181.25 L15.25 -177.0 19.25 -173.75 22.5 -173.25 Q32.0 -175.5 29.25 -180.75 M33.0 -186.25 L33.0 -188.75 Q29.25 -192.5 25.0 -189.75 22.0 -184.75 29.0 -184.0 33.0 -185.0 33.0 -186.25 M6.0 -166.0 L2.25 -168.5 -2.25 -168.75 Q-12.5 -164.0 -4.75 -158.25 -14.0 -159.25 -13.25 -150.25 L11.75 -150.0 12.75 -151.5 Q12.25 -159.25 3.75 -158.25 6.5 -159.75 7.0 -162.5 L6.0 -166.0 M16.75 -166.5 L20.25 -168.5 Q21.0 -172.0 19.75 -172.0 16.0 -175.0 12.25 -172.5 9.5 -166.75 16.75 -166.5 M132.0 -35.0 L101.75 -24.25 106.0 19.0 106.75 19.5 138.5 10.25 132.0 -35.0 M138.0 -40.0 L138.75 -39.25 173.0 -52.0 165.25 -95.0 164.5 -95.25 132.25 -81.0 138.0 -40.0 M126.5 -78.0 L125.75 -78.25 97.25 -65.5 101.25 -26.5 102.25 -26.0 132.0 -37.25 126.5 -78.0 M66.25 -52.25 L69.25 -14.0 96.0 -23.75 92.25 -62.75 91.5 -63.25 66.25 -52.25 M52.25 -9.5 L21.0 -9.5 22.0 31.25 54.5 31.25 52.25 -9.5 M15.0 -11.25 L14.5 -49.0 -15.5 -49.0 -16.0 -11.25 15.0 -11.25 M20.25 -49.0 L21.0 -11.25 52.25 -11.25 50.25 -49.0 20.25 -49.0 M14.5 -50.5 L14.0 -85.5 -15.0 -85.5 -15.5 -50.5 14.5 -50.5 M50.0 -50.5 L48.0 -85.5 19.5 -85.5 20.25 -50.5 50.0 -50.5 M46.5 -119.25 L18.75 -119.25 19.5 -86.75 48.25 -86.75 46.5 -119.25 M19.75 -142.25 Q17.0 -140.25 18.75 -120.5 L46.5 -120.5 45.0 -140.0 40.75 -145.0 Q25.25 -151.0 19.75 -142.25 M13.25 -120.5 L12.75 -139.75 9.0 -144.75 Q-6.75 -151.0 -12.5 -142.25 -15.25 -140.5 -14.25 -120.5 L13.25 -120.5 M25.0 -159.75 L25.5 -156.0 Q17.5 -154.0 19.5 -150.0 L43.5 -150.25 Q43.75 -155.5 36.75 -156.0 38.75 -158.25 35.5 -161.75 L30.0 -163.0 Q26.5 -162.75 25.0 -159.75 M33.75 -168.75 L33.5 -171.75 30.5 -173.5 Q27.0 -174.0 25.5 -172.5 22.5 -166.75 30.25 -166.5 33.5 -167.5 33.75 -168.75 M69.0 -12.5 L71.75 28.25 72.0 29.0 73.0 29.0 100.25 21.25 96.0 -22.0 69.0 -12.5 M13.5 -119.25 L-14.5 -119.25 -15.0 -86.75 14.0 -86.75 13.5 -119.25 M15.75 31.25 L15.0 -9.5 -16.0 -9.5 -16.75 31.25 15.75 31.25 M16.5 77.75 L15.75 33.25 -16.75 33.25 -17.5 77.75 16.5 77.75 M54.5 33.25 L22.0 33.25 23.0 77.75 57.0 77.75 54.5 33.25 M105.25 70.5 L100.5 23.25 72.0 31.25 75.0 74.5 75.75 76.25 105.25 70.5 M111.25 69.25 L112.25 69.25 145.5 62.5 138.75 12.5 106.5 21.75 111.25 69.25 M192.25 53.75 L182.5 0.5 145.5 10.5 152.5 60.75 154.25 61.25 192.25 53.75 M182.0 -2.0 L173.0 -50.0 138.5 -37.5 145.0 8.5 146.0 8.5 182.0 -2.0 M240.0 336.0 L-240.0 336.0 -240.0 -344.0 240.0 -344.0 240.0 336.0 M-98.5 -241.75 Q-100.25 -241.5 -99.25 -236.75 L-96.25 -231.75 -90.5 -227.75 -88.25 -227.75 Q-85.25 -230.0 -86.5 -232.5 L-89.75 -238.25 -93.75 -241.5 Q-97.5 -243.0 -98.5 -241.75 M-83.5 -240.25 L-86.5 -243.0 Q-89.75 -244.25 -90.0 -242.5 -88.0 -233.75 -83.0 -234.5 L-82.25 -235.0 -82.0 -237.0 -83.5 -240.25 M-128.0 -212.75 L-128.5 -213.0 -129.0 -213.5 -129.75 -214.0 -131.5 -214.75 Q-134.75 -215.75 -136.0 -213.75 L-136.25 -210.0 Q-145.25 -213.5 -143.5 -207.25 L-131.5 -199.75 -131.0 -199.5 -118.75 -192.0 Q-118.0 -198.5 -124.5 -202.25 -121.5 -208.0 -126.5 -211.25 L-128.0 -212.75 M-125.25 -230.5 Q-125.75 -226.25 -123.25 -223.25 L-120.0 -220.0 -117.25 -218.25 Q-115.0 -216.75 -112.0 -217.5 L-110.5 -220.25 Q-110.25 -223.25 -113.25 -227.5 L-116.0 -229.75 -116.5 -230.25 -117.0 -230.5 Q-124.5 -235.0 -125.25 -230.5 M-129.75 -225.0 L-130.5 -224.25 -131.0 -221.75 -130.0 -219.75 -128.75 -218.25 -125.5 -215.75 -124.25 -215.25 -122.0 -215.5 -121.25 -218.25 -122.5 -221.25 -125.25 -223.5 -128.25 -225.25 -129.75 -225.0 M-138.0 -226.0 L-138.75 -226.5 -139.75 -227.5 -140.0 -227.5 -141.0 -227.75 -141.5 -227.5 -141.75 -226.5 -141.75 -226.0 -141.25 -225.25 -139.5 -223.5 -139.5 -223.25 -140.0 -223.25 -140.5 -223.5 -141.75 -223.75 -142.25 -223.5 -142.5 -222.5 -142.25 -221.75 -141.75 -220.75 -139.5 -219.25 -139.0 -219.25 -138.0 -219.75 -137.75 -220.0 -136.0 -219.5 -135.0 -220.0 -134.75 -220.25 -135.0 -221.5 -135.5 -222.25 -136.5 -223.0 -136.75 -223.25 -137.0 -223.25 -137.5 -223.5 -137.25 -223.75 -137.25 -224.75 -138.0 -226.0 M-129.25 -236.5 L-131.5 -238.5 -132.5 -239.0 -134.25 -239.5 -135.0 -239.25 -136.5 -238.0 -136.0 -235.5 -133.5 -231.75 -133.0 -231.5 -132.5 -231.0 -132.0 -230.75 -131.25 -230.25 -129.5 -229.5 -128.75 -229.5 Q-128.4 -230.15 -127.75 -229.75 L-126.5 -231.0 -127.0 -232.5 -127.25 -233.75 -128.25 -236.0 -129.25 -236.5 M-122.0 -241.75 L-122.25 -241.75 -122.5 -242.25 -122.75 -242.25 -124.0 -243.25 -125.75 -243.75 -127.5 -243.25 -127.75 -241.0 -127.5 -240.0 -125.75 -237.25 -124.0 -235.5 -123.25 -235.0 -121.75 -234.25 -119.5 -234.25 Q-118.0 -234.5 -118.75 -238.0 L-121.0 -240.75 -122.0 -241.75 M-94.75 -248.75 L-97.25 -251.0 Q-100.0 -253.5 -101.0 -252.5 L-102.0 -251.0 -101.0 -247.25 -98.5 -244.5 -94.75 -243.25 -93.5 -244.75 -94.75 -248.75 M-116.25 -254.5 Q-119.75 -256.25 -121.5 -255.25 L-123.25 -252.5 -124.25 -253.0 -128.25 -253.25 Q-130.25 -251.25 -129.25 -249.25 L-124.0 -247.5 -122.0 -248.5 -120.0 -245.25 -116.0 -242.0 -115.25 -241.5 -114.25 -241.0 -114.75 -241.75 -115.5 -245.75 -118.75 -249.75 Q-113.0 -250.0 -116.25 -254.5 M-100.75 -242.5 L-103.5 -246.75 -105.5 -248.25 Q-113.0 -248.5 -106.25 -241.25 L-106.0 -241.0 -104.5 -240.0 -102.0 -239.25 -100.75 -240.0 -100.75 -242.5 M-92.25 -224.0 L-90.25 -220.0 -88.25 -218.5 -87.75 -218.25 -84.75 -217.5 -83.75 -219.5 -86.0 -224.25 -88.25 -226.0 -91.5 -226.25 -92.25 -224.0 M-82.75 -230.75 L-85.0 -230.25 Q-86.25 -224.25 -78.5 -221.75 L-77.25 -223.0 -77.25 -224.25 -78.5 -227.25 -82.75 -230.75 M-114.5 -232.25 L-113.5 -228.75 -111.0 -226.25 -108.75 -225.0 -106.75 -224.75 -105.75 -225.5 -105.75 -228.5 -108.25 -232.25 -110.5 -233.75 -113.75 -234.0 -114.5 -232.25 M-96.5 -226.25 Q-94.5 -234.0 -103.75 -235.0 -105.5 -228.0 -96.5 -226.25 M-87.25 -207.25 L-90.5 -208.0 -91.5 -206.5 -90.5 -202.75 -88.0 -200.25 -86.75 -199.5 -83.75 -199.25 -83.0 -201.75 -85.5 -206.25 -87.25 -207.25 M-82.5 -206.5 L-81.75 -205.5 -81.25 -205.25 -80.75 -204.75 -80.25 -204.5 -77.75 -203.75 -76.75 -204.25 -76.5 -207.0 -78.0 -210.0 -81.0 -212.25 Q-87.5 -213.5 -82.5 -206.5 M-109.5 -212.5 L-111.0 -213.5 -112.0 -214.5 -112.5 -214.75 Q-121.5 -217.0 -114.5 -208.25 L-114.0 -208.0 -113.5 -207.5 -111.25 -206.25 -109.25 -206.25 -108.0 -208.0 -109.5 -212.5 M-102.0 -217.5 L-105.75 -220.25 -108.75 -220.25 -109.5 -217.75 -108.0 -214.5 -105.75 -212.5 -105.0 -212.0 -104.5 -211.75 -101.5 -211.25 -100.75 -211.75 -100.5 -214.5 -102.0 -217.5 M-68.25 -217.25 L-71.5 -221.0 Q-73.0 -220.75 -72.0 -216.75 L-70.5 -213.75 -73.25 -214.25 -74.25 -213.75 -74.75 -211.75 -71.0 -209.25 -68.25 -209.25 -66.0 -204.0 -63.0 -201.5 -63.25 -206.25 -66.25 -210.25 -67.25 -211.0 Q-66.5 -215.5 -68.25 -217.25 M-8.5 -175.5 Q-0.75 -182.75 -13.25 -181.5 -17.25 -175.75 -8.5 -175.5 M-16.0 -180.25 Q-16.5 -182.5 -20.25 -184.0 L-25.25 -184.25 Q-29.0 -183.25 -30.0 -181.25 L-30.5 -177.25 -27.25 -174.0 -23.0 -173.25 Q-19.25 -173.25 -16.75 -176.25 L-16.0 -180.25 M-12.0 -188.5 L-14.75 -190.75 -17.75 -190.75 Q-25.0 -185.75 -16.25 -184.0 L-12.5 -185.75 -12.0 -188.5 M-6.25 -191.5 Q0.25 -194.5 -4.5 -197.75 -8.75 -199.0 -10.5 -197.25 L-11.5 -194.25 -9.5 -192.0 -6.25 -191.5 M-174.25 -50.0 L-183.0 -1.75 -146.25 8.5 -139.5 -37.5 -174.25 -50.0 M-165.5 -95.25 L-166.25 -95.0 -166.25 -94.0 -174.0 -51.75 -139.25 -39.25 -133.25 -81.25 -165.5 -95.25 M-15.25 -206.25 L-17.25 -205.0 Q-19.0 -203.25 -16.75 -200.75 L-11.75 -200.0 Q-8.75 -201.0 -8.75 -203.0 L-10.25 -205.75 -15.25 -206.25 M-3.0 -213.0 Q-4.75 -215.0 -6.75 -214.5 L-10.0 -213.75 Q-13.25 -208.25 -6.5 -208.0 -4.5 -208.0 -2.5 -210.25 L-3.0 -213.0 M-30.25 -202.0 L-30.75 -199.0 -35.25 -197.25 Q-37.25 -195.0 -36.5 -193.0 -33.0 -192.5 -31.5 -194.0 L-29.75 -196.5 -27.0 -194.75 -22.0 -194.5 -22.75 -197.25 -26.5 -199.25 -24.0 -201.75 -23.75 -203.25 -24.0 -204.75 -25.75 -204.75 Q-28.0 -204.75 -30.25 -202.0 M-73.0 -202.0 L-72.0 -199.5 -69.75 -197.0 -69.0 -196.5 -67.75 -196.0 -66.0 -196.25 Q-66.15 -196.9 -65.5 -196.75 L-66.0 -200.5 -68.0 -202.5 -69.0 -203.25 -70.0 -204.25 -71.25 -204.5 -73.0 -203.75 -73.0 -202.0 M-72.0 -198.25 L-75.0 -200.75 Q-81.75 -204.75 -82.0 -200.0 -82.5 -197.25 -80.25 -193.75 L-76.75 -190.25 -74.75 -189.0 Q-70.5 -187.75 -70.0 -189.0 L-69.25 -192.75 -72.0 -198.25 M-28.25 -190.75 L-32.5 -190.25 Q-36.75 -184.5 -29.25 -184.0 L-25.5 -185.75 -25.25 -189.0 -28.25 -190.75 M-35.0 -175.5 L-32.5 -177.0 Q-31.25 -179.25 -32.5 -180.75 L-35.5 -182.25 -39.75 -181.5 Q-42.75 -179.25 -40.0 -176.25 L-35.0 -175.5 M-60.25 -173.5 L-60.75 -174.0 -61.0 -174.0 -61.25 -174.25 -61.75 -174.5 -62.5 -174.0 -63.0 -173.75 -63.5 -173.75 -64.0 -174.0 -64.75 -173.5 -65.0 -173.25 -64.75 -172.75 -64.75 -172.25 -64.0 -171.25 -63.0 -170.25 -63.0 -169.5 -62.5 -168.5 -62.0 -167.75 -61.5 -167.25 -61.0 -167.0 -60.75 -166.75 -60.0 -167.0 -59.25 -167.75 -60.25 -169.5 -60.75 -169.75 -61.5 -170.5 -61.5 -170.75 -59.75 -170.75 -59.5 -171.0 -59.25 -171.5 -59.25 -172.5 -60.25 -173.25 -60.25 -173.5 M-12.25 -169.0 L-12.5 -171.75 -15.5 -173.5 -19.75 -173.0 Q-24.25 -167.0 -16.0 -166.5 -13.0 -167.25 -12.25 -169.0 M-38.0 -166.0 L-40.5 -166.75 -40.25 -167.5 -41.25 -168.5 -44.0 -168.25 -44.75 -166.5 -44.25 -165.75 -42.25 -165.0 -44.75 -164.0 -45.0 -162.75 -44.0 -161.75 -41.0 -162.25 -40.75 -163.5 Q-38.25 -163.25 -38.0 -166.0 M-38.25 -159.5 L-37.75 -156.0 Q-45.5 -155.0 -44.5 -150.0 L-32.25 -150.0 -20.25 -150.5 Q-21.25 -156.5 -26.5 -156.0 -25.25 -163.75 -33.0 -163.0 -37.5 -162.25 -38.25 -159.5 M-25.5 -169.5 L-26.5 -172.5 Q-29.0 -174.25 -31.75 -173.5 L-33.5 -172.75 Q-37.0 -166.5 -29.5 -166.5 -25.0 -168.0 -25.5 -169.5 M-70.5 -185.75 L-71.0 -186.25 -71.25 -186.25 -72.0 -186.75 -74.0 -186.75 -74.5 -186.0 -74.5 -183.0 -73.75 -181.75 -71.75 -179.5 -69.0 -178.0 -67.75 -178.25 -67.0 -178.75 -66.75 -181.0 -67.25 -182.25 -68.5 -184.5 -70.25 -185.75 -70.5 -185.75 M-94.25 -105.5 L-90.5 -139.5 -117.0 -154.5 -121.75 -119.5 -94.25 -105.5 M-86.0 -136.5 L-89.0 -102.75 -64.5 -90.5 -62.5 -123.25 -86.0 -136.5 M-127.75 -121.25 L-158.5 -136.75 -165.5 -97.0 -133.0 -82.75 -127.75 -121.25 M-122.25 -157.75 L-151.75 -174.5 -158.25 -138.25 -127.5 -122.75 -122.25 -157.75 M-88.75 -161.75 L-91.25 -168.0 Q-104.75 -184.0 -111.5 -178.5 -115.5 -177.25 -116.75 -155.75 L-90.5 -140.75 -88.75 -161.75 M-119.5 -176.25 L-119.5 -181.0 Q-122.25 -189.0 -124.25 -190.5 L-129.75 -195.5 -134.0 -198.0 Q-144.5 -202.5 -147.25 -197.0 L-151.5 -176.0 -122.5 -159.25 -121.75 -160.0 -119.5 -176.25 M-81.5 -193.5 L-81.75 -193.5 -82.0 -193.75 -83.5 -194.75 Q-89.75 -193.25 -83.0 -187.0 L-81.75 -186.25 Q-75.0 -185.75 -80.5 -192.5 L-81.5 -193.5 M-100.5 -180.0 Q-99.85 -180.2 -99.75 -179.5 L-88.5 -172.0 -87.5 -172.5 Q-86.0 -180.75 -94.5 -185.5 -86.0 -190.5 -98.5 -200.0 -109.25 -201.0 -103.0 -191.0 L-106.5 -192.75 -107.5 -193.0 Q-113.5 -193.75 -111.5 -186.75 L-100.5 -180.0 M-19.75 -119.25 L-47.5 -119.25 -49.25 -86.75 -20.5 -86.75 -19.75 -119.25 M-44.75 -142.25 Q-47.5 -140.5 -47.5 -120.5 L-19.75 -120.5 Q-17.0 -144.0 -24.0 -145.25 -38.25 -150.75 -44.75 -142.25 M-70.25 -157.75 L-70.75 -158.0 -73.25 -159.5 Q-81.75 -163.0 -83.5 -157.75 L-85.75 -137.75 -62.5 -124.25 Q-56.25 -149.25 -70.25 -157.75 M-72.0 -175.25 L-74.0 -175.5 -75.25 -174.75 -75.75 -170.5 Q-81.5 -173.5 -81.5 -167.75 L-61.5 -155.0 Q-61.75 -162.5 -66.25 -164.25 -63.75 -169.25 -68.25 -172.5 L-69.75 -174.0 -70.5 -174.5 -72.0 -175.25 M-67.75 -191.5 L-68.0 -191.0 -68.25 -189.25 -67.75 -188.0 -66.5 -185.75 -65.5 -184.75 -64.0 -183.75 -63.0 -183.25 -62.0 -183.25 -61.25 -183.75 -60.5 -184.75 -61.0 -187.25 -63.0 -189.75 -64.0 -190.75 -65.5 -191.75 -66.75 -192.0 -67.75 -191.5 M-122.0 -118.0 L-127.0 -80.0 -98.0 -67.5 -94.25 -104.25 -122.0 -118.0 M-153.75 61.25 L-146.5 10.5 -183.5 0.5 -193.0 54.0 -153.75 61.25 M-107.75 21.25 L-139.75 12.5 -146.5 62.75 -112.25 69.25 -107.75 21.25 M-76.25 76.25 L-73.0 31.0 -101.5 23.25 -106.25 70.5 -76.25 76.25 M-23.0 33.25 L-55.5 33.25 -58.0 77.75 -24.0 77.75 -23.0 33.25 M-70.0 -12.5 L-97.25 -22.0 -101.25 21.25 -73.0 29.0 -70.0 -12.5 M-22.0 -9.5 L-53.25 -9.5 -55.5 31.25 -23.0 31.25 -22.0 -9.5 M-51.25 -49.0 L-53.25 -11.25 -22.25 -11.25 -21.25 -49.0 -51.25 -49.0 M-67.0 -53.75 L-65.0 -89.25 -89.25 -101.5 -93.0 -65.0 -67.0 -53.75 M-21.25 -50.5 L-20.5 -85.5 -49.25 -85.5 -51.0 -50.5 -21.25 -50.5 M-93.0 -63.5 L-97.0 -23.75 -70.0 -14.0 -67.25 -52.25 -93.0 -63.5 M-102.75 -24.25 L-133.25 -35.0 -139.5 10.5 -107.25 19.5 -102.75 -24.25 M-98.5 -66.0 L-127.25 -78.5 -132.75 -36.75 -102.5 -26.0 -98.5 -66.0" fill="#000000" fill-rule="evenodd" stroke="none"/>
  </g>
</svg>
