<?xml version="1.0" encoding="UTF-8" standalone="no"?>
<svg xmlns:xlink="http://www.w3.org/1999/xlink" height="680.0px" width="480.0px" xmlns="http://www.w3.org/2000/svg">
  <g transform="matrix(1.0, 0.0, 0.0, 1.0, 240.0, 344.0)">
    <path d="M78.75 -263.75 L78.5 -260.75 80.75 -260.25 Q87.75 -264.5 85.5 -268.75 83.5 -269.5 81.25 -267.25 L78.75 -263.75 M78.25 -249.75 L79.5 -250.75 Q84.25 -259.0 77.0 -255.25 L73.75 -250.5 73.75 -248.75 74.75 -248.0 77.0 -248.5 77.75 -249.25 78.0 -249.25 78.25 -249.75 M27.0 -200.75 L24.75 -199.75 Q22.75 -193.25 29.75 -194.25 35.0 -196.5 31.25 -200.0 L27.0 -200.75 M32.25 -214.0 L31.0 -216.0 Q27.0 -217.75 25.75 -216.75 L23.5 -215.25 Q22.5 -212.25 24.25 -211.5 L28.75 -210.5 Q32.5 -211.75 32.25 -214.0 M8.5 -209.0 L4.75 -207.5 Q3.25 -204.25 5.5 -203.25 L10.25 -202.5 Q13.75 -204.0 13.25 -205.5 L12.0 -208.0 8.5 -209.0 M18.25 -216.0 L14.75 -217.0 11.0 -215.5 Q9.0 -210.75 16.0 -210.5 19.75 -211.75 19.5 -213.25 L18.25 -216.0 M15.5 -230.25 L12.5 -231.5 8.75 -230.75 Q5.5 -226.25 12.25 -225.25 L16.0 -227.0 16.25 -229.25 15.5 -230.25 M0.5 -223.5 Q9.5 -226.75 5.25 -231.25 3.25 -233.5 0.0 -233.25 L-5.5 -232.0 Q-8.0 -229.5 -7.5 -228.0 L-6.0 -225.25 -3.0 -223.75 0.5 -223.5 M9.0 -223.0 L4.5 -223.75 2.25 -222.75 Q0.0 -220.75 2.75 -218.25 L6.75 -217.5 9.75 -219.25 Q10.5 -222.5 9.0 -223.0 M10.0 -235.75 L8.75 -238.25 4.25 -239.0 1.75 -237.5 Q0.5 -236.0 2.25 -234.0 L6.75 -233.0 Q10.0 -234.25 10.0 -235.75 M33.0 -223.0 L28.75 -224.5 Q29.25 -227.5 26.5 -229.0 L22.25 -230.0 22.5 -226.75 24.75 -224.75 20.75 -222.5 20.5 -220.25 25.75 -220.75 27.75 -222.25 Q29.5 -219.0 31.0 -219.0 L34.25 -218.5 Q34.75 -222.0 33.0 -223.0 M27.75 -208.25 Q23.25 -213.0 16.25 -209.25 11.25 -200.75 23.25 -200.5 31.5 -204.25 27.75 -208.25 M36.0 -208.75 L31.25 -208.25 Q27.5 -202.75 35.75 -202.5 L38.5 -204.0 38.75 -206.75 36.0 -208.75 M69.75 -230.0 L69.25 -231.0 66.75 -230.75 64.75 -229.25 63.75 -228.0 62.25 -225.25 62.25 -223.5 62.75 -223.0 64.5 -222.75 65.25 -223.0 67.75 -225.25 69.25 -227.75 69.75 -230.0 M67.5 -246.0 L64.25 -241.5 63.75 -237.0 63.0 -236.25 60.25 -232.5 59.75 -227.75 63.0 -230.5 65.0 -235.25 69.25 -236.25 71.5 -238.5 70.0 -240.25 67.0 -239.75 69.0 -244.0 68.75 -246.5 67.5 -246.0 M78.75 -233.75 Q83.0 -243.5 75.25 -237.75 69.5 -231.25 76.25 -231.5 L78.75 -233.75 M79.25 -227.75 L80.5 -226.75 82.5 -227.25 83.25 -227.75 84.25 -228.75 87.0 -232.0 87.0 -235.25 85.0 -235.75 82.0 -234.0 79.5 -230.5 79.25 -227.75 M71.5 -228.25 L66.75 -222.25 66.0 -217.75 67.75 -216.0 71.25 -216.75 73.75 -218.5 Q77.0 -221.5 78.0 -224.75 L78.0 -228.5 76.25 -229.75 74.75 -229.75 71.5 -228.25 M82.75 -255.0 L85.25 -254.0 Q98.25 -261.5 94.0 -268.0 89.25 -270.0 83.25 -260.25 82.0 -258.0 82.75 -255.0 M96.75 -270.0 L96.25 -266.5 98.75 -266.0 Q106.75 -271.5 103.75 -275.0 101.25 -275.25 99.5 -273.5 L96.75 -270.0 M93.75 -277.5 L89.75 -272.75 89.5 -269.75 91.75 -269.25 Q99.5 -274.5 97.0 -278.0 L93.75 -277.5 M129.0 -251.25 L128.75 -250.25 128.75 -249.75 129.5 -249.25 130.5 -249.75 131.25 -250.0 132.0 -249.5 132.5 -249.25 133.25 -249.5 134.75 -250.5 135.25 -251.0 135.75 -252.0 136.0 -252.75 135.75 -253.5 134.75 -253.75 133.0 -253.25 132.75 -253.5 134.5 -254.75 135.0 -255.25 135.25 -256.0 135.5 -256.5 135.25 -257.0 134.5 -257.5 133.75 -257.5 132.25 -256.5 131.75 -256.0 131.25 -255.0 130.75 -253.25 130.0 -252.75 129.5 -252.25 129.0 -251.25 M124.0 -254.0 L122.0 -254.25 119.5 -252.75 119.0 -252.25 116.5 -249.25 116.0 -247.5 116.0 -245.25 117.5 -244.75 118.75 -244.75 120.0 -245.25 123.25 -248.0 125.0 -251.0 124.75 -253.5 124.0 -254.0 M122.25 -269.25 L121.75 -271.25 121.0 -271.5 118.75 -271.0 118.25 -270.75 118.0 -270.5 116.0 -269.0 114.75 -267.5 113.25 -265.0 113.5 -262.75 115.0 -262.0 116.0 -262.25 116.5 -262.5 118.25 -263.75 118.5 -263.75 120.0 -265.25 121.75 -268.0 122.25 -269.25 M130.25 -267.0 L129.25 -267.75 126.5 -267.5 126.0 -267.0 125.25 -266.75 123.25 -265.0 121.5 -262.25 121.0 -261.0 121.25 -259.0 122.0 -258.5 124.0 -258.5 125.0 -259.0 127.0 -260.5 127.25 -260.5 129.5 -263.25 130.0 -264.5 130.25 -267.0 M123.25 -280.0 L122.25 -280.75 118.5 -280.0 117.75 -279.75 117.25 -279.5 117.0 -281.25 115.25 -282.25 110.75 -280.75 110.0 -280.0 110.5 -277.25 113.25 -276.5 110.0 -272.0 109.25 -269.0 109.75 -268.25 110.25 -268.75 111.0 -269.25 114.5 -272.25 116.5 -276.0 Q118.75 -273.25 123.75 -277.5 L123.25 -280.0 M80.75 -248.75 L80.25 -244.75 82.75 -244.25 Q90.25 -250.25 86.75 -253.0 L83.25 -251.75 80.75 -248.75 M68.5 -203.5 L66.5 -202.75 65.0 -201.0 Q62.0 -198.25 62.0 -195.75 L62.75 -192.75 59.0 -188.75 58.0 -184.0 59.0 -184.0 67.25 -190.25 77.75 -197.5 Q78.0 -202.25 72.0 -199.5 72.75 -205.75 68.5 -203.5 M71.0 -211.0 L71.0 -213.75 69.25 -214.75 67.75 -214.0 67.0 -213.75 66.75 -213.5 65.0 -212.0 64.0 -209.75 63.75 -208.75 63.5 -207.0 65.0 -206.0 66.0 -206.25 67.0 -207.0 67.5 -207.0 68.0 -207.5 69.5 -208.75 71.0 -211.0 M77.5 -221.25 L77.0 -221.0 76.5 -220.5 Q71.5 -213.75 78.0 -214.75 L78.25 -215.0 79.25 -215.5 81.75 -218.25 82.5 -221.75 80.75 -223.0 79.25 -222.5 77.5 -221.25 M60.25 -201.75 L59.75 -201.25 59.25 -201.25 59.5 -201.75 59.25 -202.0 58.0 -202.0 56.5 -200.5 56.25 -199.75 56.25 -199.0 56.5 -198.5 57.25 -198.5 57.5 -198.75 58.0 -198.75 58.25 -198.5 56.75 -197.0 56.5 -196.25 56.5 -195.5 56.75 -195.0 57.0 -194.75 57.5 -195.0 58.25 -195.5 59.0 -196.5 59.75 -197.0 59.75 -198.0 59.5 -198.5 60.75 -199.25 61.5 -200.25 61.75 -200.75 61.5 -201.5 61.0 -201.75 60.25 -201.75 M58.25 -210.75 L59.75 -210.5 61.0 -211.0 63.5 -213.25 65.0 -216.5 64.75 -218.25 64.0 -218.75 62.5 -218.75 62.0 -218.5 61.75 -218.5 60.0 -217.0 58.0 -214.25 57.5 -211.75 58.25 -210.75 M94.0 -253.25 L96.0 -254.75 97.0 -255.25 Q103.5 -263.5 95.0 -261.0 L92.0 -257.5 91.5 -253.75 94.0 -253.25 M105.5 -248.25 Q106.75 -245.25 108.75 -245.75 L112.25 -247.25 114.75 -249.0 Q118.75 -252.25 119.75 -256.5 L119.5 -259.75 Q117.25 -262.0 115.0 -260.75 L111.75 -259.0 107.0 -253.5 105.5 -248.25 M106.5 -254.5 Q113.5 -262.75 104.75 -260.75 97.75 -254.5 103.25 -252.5 L104.5 -253.0 105.5 -254.0 105.75 -254.0 106.5 -254.5 M100.5 -248.0 L97.75 -245.75 Q92.75 -238.0 100.0 -240.25 L101.0 -241.25 Q104.75 -244.0 104.5 -246.0 L103.75 -248.5 100.5 -248.0 M117.5 -235.0 L118.75 -232.5 114.25 -228.0 Q112.75 -225.75 113.25 -222.5 L114.5 -222.75 124.75 -230.5 125.0 -230.5 125.0 -230.75 137.25 -238.75 Q137.75 -244.75 129.75 -240.5 130.75 -244.5 128.75 -245.0 L125.25 -244.5 122.25 -243.0 121.0 -241.5 Q117.75 -238.75 117.5 -235.0 M111.75 -240.75 L112.0 -243.5 110.5 -244.75 108.5 -244.25 108.0 -244.0 107.5 -243.5 107.25 -243.5 105.5 -242.0 Q99.75 -234.75 107.0 -235.75 L108.0 -236.75 108.75 -237.25 111.75 -240.75 M88.25 -223.0 L86.75 -219.0 86.75 -217.0 87.75 -215.25 90.5 -215.0 Q81.25 -209.25 83.75 -201.75 L106.5 -217.25 106.75 -218.5 Q105.75 -226.5 98.5 -221.0 102.5 -234.25 92.5 -227.75 L88.25 -223.0 M126.75 -121.75 L157.5 -137.75 150.75 -173.75 121.25 -157.0 126.75 -121.75 M88.25 -102.0 L85.0 -135.75 61.25 -122.0 63.5 -89.75 64.25 -89.75 88.25 -102.0 M121.0 -117.25 L93.5 -103.5 97.0 -67.25 98.0 -66.75 126.25 -79.25 121.0 -117.25 M116.25 -153.0 L115.5 -153.5 89.75 -138.75 93.5 -104.75 120.75 -119.0 116.25 -153.0 M111.5 -187.25 L86.25 -171.5 89.75 -140.0 115.75 -155.0 111.5 -187.25 M144.5 -208.5 L144.0 -208.25 116.5 -190.5 121.25 -158.25 150.5 -175.25 144.5 -208.5 M106.75 -209.25 Q95.5 -211.75 87.0 -198.25 82.0 -189.0 86.75 -172.75 L111.25 -188.5 Q109.75 -208.0 106.75 -209.25 M116.75 -219.0 L114.0 -212.25 114.25 -205.25 116.25 -192.0 144.25 -209.75 141.25 -227.0 138.75 -230.75 Q137.0 -232.25 132.0 -231.25 L127.0 -228.75 124.5 -227.0 124.0 -226.75 Q118.5 -222.75 116.75 -219.0 M126.5 -120.0 L132.0 -82.0 132.75 -82.0 165.0 -96.5 157.75 -136.0 126.5 -120.0 M52.25 -8.75 L21.0 -8.75 22.0 32.25 54.5 32.25 52.25 -8.75 M69.0 -13.25 L69.75 -13.25 96.0 -23.25 92.0 -62.5 66.25 -51.25 68.75 -14.5 69.0 -13.25 M20.25 -48.25 L21.0 -10.5 52.25 -10.5 50.25 -48.25 20.25 -48.25 M15.0 -10.5 L14.25 -48.25 -15.5 -48.25 -16.0 -10.5 15.0 -10.5 M14.5 -49.75 L14.0 -84.75 -15.0 -84.75 -15.5 -49.75 14.5 -49.75 M50.25 -49.75 L48.0 -84.75 19.5 -84.75 20.25 -49.75 50.25 -49.75 M66.0 -53.75 L66.75 -53.0 92.0 -64.5 88.5 -100.75 63.75 -88.25 66.0 -53.75 M46.5 -119.75 L45.0 -149.75 18.0 -149.75 18.75 -119.75 46.5 -119.75 M46.5 -118.5 L18.75 -118.5 19.5 -86.25 48.25 -86.25 46.5 -118.5 M13.5 -119.75 L13.0 -149.75 -14.0 -149.75 -14.5 -119.75 13.5 -119.75 M13.0 -151.0 L12.25 -169.25 9.5 -173.0 Q-4.25 -180.25 -12.0 -171.5 -14.75 -169.75 -14.0 -151.0 L13.0 -151.0 M19.25 -171.75 Q16.5 -170.0 18.0 -151.0 L44.75 -151.0 Q46.5 -186.75 19.25 -171.75 M6.5 -189.25 Q7.25 -192.25 5.75 -193.75 L2.0 -196.0 -1.5 -196.25 Q-12.5 -191.75 -4.75 -186.5 -14.25 -187.0 -12.75 -178.75 L11.5 -178.75 12.25 -180.25 Q12.5 -186.75 3.75 -186.5 L6.5 -189.25 M28.5 -190.75 Q24.75 -190.0 24.0 -187.25 L24.75 -184.25 Q17.75 -183.5 18.75 -178.75 L42.0 -179.0 Q43.25 -183.0 35.5 -184.25 37.0 -191.75 28.5 -190.75 M42.25 -190.5 L41.5 -192.5 39.75 -192.5 Q43.5 -193.5 41.25 -196.0 L38.5 -195.75 38.0 -194.25 35.75 -193.5 35.75 -192.25 38.25 -191.25 39.0 -189.75 40.25 -189.5 42.25 -190.5 M80.0 -186.5 L79.0 -188.75 Q77.0 -191.5 73.0 -190.5 L69.0 -188.5 67.5 -187.5 67.0 -187.25 Q62.75 -184.25 60.5 -180.25 L58.0 -173.75 59.0 -155.25 64.25 -158.25 81.75 -169.75 80.0 -186.5 M84.75 -137.25 L81.75 -168.25 59.0 -154.0 61.0 -125.0 61.75 -123.75 84.75 -137.25 M102.0 -25.0 L132.0 -36.25 126.25 -77.5 97.5 -65.0 101.25 -26.5 102.0 -25.0 M96.0 -21.25 L69.0 -11.5 72.0 30.0 72.75 30.0 100.5 22.25 96.0 -21.25 M14.0 -86.25 L13.5 -118.5 -14.5 -118.5 -15.0 -86.25 14.0 -86.25 M132.5 -34.0 L101.75 -23.25 106.0 19.0 106.75 20.5 138.5 11.25 132.5 -34.0 M132.25 -80.0 L138.75 -38.25 173.25 -51.0 165.25 -94.5 132.25 -80.0 M173.25 -48.75 L138.75 -36.25 145.25 9.5 146.25 9.5 182.25 -1.0 173.25 -48.75 M15.25 -194.0 Q23.75 -196.25 16.0 -200.75 5.75 -198.25 15.25 -194.0 M240.0 336.0 L-240.0 336.0 -240.0 -344.0 240.0 -344.0 240.0 336.0 M-113.0 -281.5 L-117.25 -282.0 -118.25 -279.25 -119.0 -279.75 -120.0 -280.25 Q-124.0 -281.5 -124.25 -280.0 L-124.5 -277.0 Q-122.5 -275.25 -119.75 -275.0 L-117.5 -276.0 -115.5 -272.25 -112.0 -269.25 -111.25 -268.75 -110.25 -268.25 -110.5 -269.0 -111.0 -271.75 -114.5 -276.5 Q-108.25 -277.0 -113.0 -281.5 M-92.0 -274.75 L-95.25 -277.5 -98.0 -278.0 -98.5 -275.5 -96.25 -271.5 -94.5 -270.0 -91.0 -269.25 -90.5 -270.75 -92.0 -274.75 M15.75 32.25 L15.0 -8.75 -16.0 -8.75 -16.75 32.25 15.75 32.25 M-105.5 -273.75 L-104.5 -270.0 -102.75 -268.0 -102.25 -267.75 -101.5 -267.0 -101.0 -266.75 -100.75 -266.5 -100.0 -266.25 -97.25 -266.5 -97.25 -268.75 -98.5 -271.25 -101.5 -274.25 -104.75 -275.0 -105.5 -273.75 M-92.0 -268.0 Q-94.75 -269.0 -95.75 -267.25 -96.5 -257.5 -85.5 -254.0 -82.5 -255.0 -83.75 -259.0 L-87.25 -264.5 -92.0 -268.0 M-113.0 -258.75 L-113.75 -259.25 -118.25 -261.0 -120.5 -259.75 -120.75 -258.75 Q-121.5 -256.5 -118.5 -251.75 L-115.75 -249.0 -113.25 -247.25 Q-111.5 -245.5 -108.0 -246.0 L-106.5 -248.75 Q-106.25 -251.0 -109.25 -255.5 L-112.5 -258.25 -113.0 -258.75 M-120.75 -252.75 L-121.25 -253.0 -123.25 -254.25 -125.0 -254.0 -125.75 -253.5 -125.75 -250.25 -124.25 -248.0 -121.25 -245.5 -119.75 -244.75 -118.25 -244.75 -117.0 -245.25 -117.25 -247.5 -118.25 -250.5 -119.25 -251.25 -120.75 -252.75 M-118.5 -270.0 L-119.25 -270.75 -121.0 -271.5 -123.0 -271.0 -123.25 -269.25 -122.75 -268.0 -121.0 -265.25 -120.0 -264.0 -119.5 -263.75 -119.0 -263.25 -117.0 -262.25 -115.0 -262.25 Q-113.25 -265.75 -116.75 -268.5 L-118.0 -269.5 -118.0 -269.75 -118.5 -270.0 M-109.5 -261.75 L-110.5 -260.5 -109.25 -256.25 Q-108.05 -255.75 -107.5 -254.5 L-106.75 -254.0 -106.25 -253.5 -104.25 -252.5 -102.0 -253.0 -102.0 -255.75 -103.5 -258.5 -106.0 -260.5 -108.0 -261.75 -109.5 -261.75 M-86.75 -253.0 Q-90.25 -253.25 -88.75 -249.5 L-85.5 -245.5 -85.0 -245.25 Q-80.5 -242.25 -81.25 -247.5 L-83.75 -251.25 -86.75 -253.0 M-98.25 -245.0 L-100.5 -247.0 Q-103.0 -249.5 -104.75 -248.5 L-105.5 -246.75 -104.25 -243.0 -101.5 -240.5 -101.0 -240.25 -100.0 -239.5 -97.75 -239.5 -97.0 -241.25 -98.25 -245.0 M-131.0 -240.5 Q-139.0 -244.75 -138.0 -238.5 L-114.5 -222.5 Q-113.5 -228.75 -119.75 -232.5 -116.75 -236.5 -121.75 -241.0 L-124.0 -243.25 -126.25 -244.5 Q-130.5 -245.75 -130.75 -244.25 L-131.0 -240.5 M-125.0 -226.75 L-125.5 -227.0 -128.5 -229.0 Q-140.0 -234.0 -141.25 -229.25 L-142.5 -225.75 -145.25 -209.75 -117.75 -192.0 Q-109.25 -217.25 -125.0 -226.75 M-135.0 -257.5 L-135.5 -257.5 -136.25 -257.0 -136.5 -256.5 -136.25 -256.0 -136.0 -255.25 -134.25 -253.5 -134.0 -253.5 -134.5 -253.25 -135.5 -253.25 -136.25 -253.75 -137.0 -253.25 -137.0 -252.75 -136.75 -252.0 -136.5 -251.5 -136.0 -250.75 -135.25 -250.0 -134.75 -249.75 -134.5 -249.5 -133.5 -249.25 -133.0 -249.5 -132.75 -249.75 -131.75 -249.75 -131.25 -249.5 -131.0 -249.5 -129.75 -249.75 -129.75 -250.25 -130.0 -251.25 -130.75 -252.25 -131.25 -252.75 -131.5 -252.75 -132.0 -253.25 -132.0 -254.0 -132.25 -255.0 -133.0 -255.75 -133.0 -256.0 -133.5 -256.5 -133.75 -256.5 -134.5 -257.0 -135.0 -257.5 M-126.0 -266.25 L-126.25 -266.25 -126.5 -266.75 -126.75 -266.75 -127.25 -267.25 -129.0 -268.0 -130.25 -267.75 -131.25 -267.0 -130.75 -264.25 -129.0 -261.5 -127.25 -259.75 -126.75 -259.5 -126.5 -259.25 -125.0 -258.5 -123.75 -258.25 -123.0 -258.5 -122.25 -259.0 -122.25 -261.0 -122.5 -262.25 -124.25 -264.75 -126.0 -266.25 M-100.5 -261.75 Q-99.25 -252.75 -93.0 -253.25 -91.25 -260.75 -100.5 -261.75 M-94.75 -228.5 Q-105.0 -231.5 -99.25 -220.5 L-103.5 -222.75 -104.25 -222.75 -104.75 -223.0 Q-109.0 -223.0 -107.25 -217.0 L-96.75 -210.0 -96.5 -209.75 -96.0 -209.5 -95.75 -209.25 -85.25 -201.75 Q-80.75 -206.25 -91.5 -215.0 -88.0 -215.0 -88.0 -216.25 L-88.0 -220.0 -91.75 -226.25 -94.75 -228.5 M-84.75 -228.0 L-84.25 -227.75 Q-81.75 -226.25 -80.5 -227.25 L-80.25 -229.75 -81.75 -232.75 -84.25 -234.75 -87.0 -235.75 -88.25 -234.5 Q-88.5 -232.0 -86.75 -229.75 L-84.75 -228.0 M-88.0 -198.25 Q-100.75 -214.0 -107.75 -209.25 -111.0 -208.0 -112.25 -188.5 L-87.0 -172.75 -85.5 -191.75 -88.0 -198.25 M-82.75 -222.75 L-83.5 -220.25 -81.75 -216.75 -78.0 -214.0 Q-73.25 -214.5 -77.75 -220.5 L-78.75 -221.25 -79.5 -222.0 -80.25 -222.5 -82.75 -222.75 M-107.75 -243.0 L-108.5 -243.5 -109.0 -244.25 -111.5 -244.75 -113.0 -243.25 -112.25 -239.75 -109.75 -237.0 -109.0 -236.5 -108.5 -236.25 Q-100.75 -234.5 -106.75 -242.0 L-107.75 -243.0 M-64.25 -236.25 L-64.75 -237.0 Q-64.0 -238.5 -65.5 -242.0 L-69.25 -246.5 -70.0 -245.75 -70.0 -244.0 -68.0 -239.75 -71.75 -240.0 -72.5 -238.25 -68.75 -235.5 -66.0 -235.25 -63.0 -229.25 -60.75 -227.75 Q-60.0 -229.25 -61.5 -233.0 L-63.5 -235.5 -64.25 -236.25 M-69.25 -231.25 L-70.75 -230.0 -70.5 -228.75 -69.75 -226.5 -68.75 -225.25 -67.25 -223.75 -65.5 -222.75 -63.75 -223.0 -63.25 -223.5 -64.0 -227.25 -67.75 -230.75 -68.75 -231.0 -69.25 -231.25 M-72.75 -228.0 L-73.5 -228.5 Q-76.25 -230.75 -78.0 -229.5 L-79.25 -227.0 Q-79.5 -224.25 -77.0 -220.75 L-74.75 -218.5 -72.75 -217.0 -72.25 -216.75 Q-72.0 -215.5 -67.75 -216.5 L-67.0 -219.75 -69.25 -224.75 -72.75 -228.0 M-76.25 -237.75 L-78.0 -238.75 Q-84.75 -240.25 -79.75 -233.75 L-78.75 -232.5 -78.25 -232.25 -77.75 -231.75 -77.25 -231.5 -74.5 -231.0 -73.75 -233.0 -76.25 -237.75 M-62.75 -218.25 L-63.0 -218.5 -63.5 -218.75 -64.5 -219.0 -65.0 -218.75 -65.75 -218.25 -66.0 -216.5 -64.5 -213.25 -63.25 -212.0 -61.5 -210.75 -61.25 -210.75 -60.75 -210.5 -60.0 -210.5 -59.25 -210.75 -58.5 -211.75 -59.0 -214.0 -60.75 -216.5 -61.75 -217.5 -62.0 -217.5 -62.75 -218.0 -62.75 -218.25 M-62.25 -123.75 L-60.25 -154.25 -82.75 -168.25 -85.75 -137.0 -62.25 -123.75 M-68.0 -187.25 L-68.5 -187.5 -70.5 -188.75 Q-79.5 -192.75 -80.5 -188.0 L-82.75 -169.5 -60.5 -155.25 -59.75 -157.5 -59.0 -170.0 -59.75 -176.5 -64.75 -184.5 -68.0 -187.25 M-19.0 -151.0 L-19.0 -169.5 -21.75 -173.25 Q-35.25 -180.0 -43.0 -171.75 -46.0 -170.25 -45.75 -151.0 L-19.0 -151.0 M-32.5 -190.75 Q-36.25 -190.0 -37.0 -187.5 L-36.75 -184.25 Q-44.75 -182.0 -43.0 -178.75 L-19.75 -179.0 Q-19.75 -184.5 -25.75 -184.25 -24.0 -191.75 -32.5 -190.75 M-39.0 -195.25 L-40.25 -196.0 -43.0 -195.5 -43.0 -193.5 -41.0 -192.5 Q-45.5 -192.0 -42.25 -189.5 L-40.25 -189.75 -39.25 -191.25 Q-34.5 -194.0 -39.25 -194.25 L-39.0 -195.25 M-174.5 -48.75 L-183.0 -0.5 -146.25 9.5 -139.75 -34.75 -140.0 -36.75 -174.5 -48.75 M-166.25 -94.5 L-174.25 -50.75 -139.25 -38.25 -133.25 -80.25 -166.25 -94.5 M-75.25 -248.0 Q-74.0 -255.0 -82.0 -256.25 -82.5 -248.5 -75.25 -248.0 M-80.0 -260.25 Q-80.0 -269.5 -87.0 -268.0 -87.5 -262.0 -80.0 -260.25 M-15.25 -200.75 L-19.75 -199.75 -20.75 -198.25 -20.75 -196.25 -19.75 -195.0 -16.25 -194.0 Q-7.75 -197.25 -15.25 -200.75 M-11.5 -208.75 L-13.75 -207.25 Q-15.5 -204.75 -12.25 -202.75 L-8.25 -202.5 Q-3.0 -204.75 -6.75 -208.25 L-11.5 -208.75 M-15.0 -210.5 Q-12.75 -210.75 -11.5 -213.0 L-12.0 -215.5 -16.0 -217.0 -19.5 -215.75 Q-21.5 -213.0 -19.5 -211.5 L-15.0 -210.5 M-24.0 -200.5 L-21.0 -200.5 Q-13.5 -202.75 -16.0 -208.0 -18.5 -210.75 -21.0 -210.75 L-27.0 -209.75 Q-29.25 -208.75 -29.75 -206.0 L-28.5 -202.5 -24.0 -200.5 M-25.75 -199.75 L-30.25 -200.75 -32.5 -199.75 Q-35.0 -198.25 -32.75 -195.0 L-27.5 -194.25 -24.75 -196.5 -24.75 -198.5 -25.75 -199.75 M-38.25 -208.25 L-39.75 -206.0 Q-40.25 -203.75 -38.0 -202.75 L-34.25 -202.5 Q-32.0 -202.25 -30.75 -206.0 L-32.75 -208.5 Q-35.75 -209.75 -38.25 -208.25 M-24.25 -212.75 Q-23.5 -215.25 -25.75 -216.25 -29.25 -217.75 -31.0 -216.5 L-33.0 -214.5 Q-33.25 -211.25 -31.75 -211.25 L-27.75 -210.5 -24.25 -212.75 M-24.5 -230.0 Q-28.25 -229.25 -29.25 -227.5 L-29.75 -224.5 Q-36.5 -223.5 -35.25 -218.5 L-30.5 -219.75 -28.75 -222.25 -24.75 -220.25 -21.25 -220.75 Q-21.75 -223.25 -23.5 -224.0 L-26.0 -224.75 Q-20.75 -228.25 -24.5 -230.0 M-3.5 -223.0 L-8.25 -223.75 -10.25 -222.75 Q-12.25 -219.5 -10.25 -218.5 L-5.75 -217.5 Q-3.0 -218.0 -2.25 -220.75 L-3.5 -223.0 M-16.0 -230.75 Q-19.75 -226.25 -12.75 -225.25 -9.25 -225.75 -8.75 -227.25 L-9.25 -230.25 -12.25 -231.5 -16.0 -230.75 M-2.75 -237.5 L-5.5 -239.0 -9.75 -238.25 Q-13.25 -233.5 -5.75 -233.0 L-2.5 -235.0 -2.75 -237.5 M-62.5 -201.5 L-62.75 -200.75 -62.0 -199.25 -60.75 -198.0 -60.75 -197.0 -60.5 -196.5 -59.25 -195.25 -58.25 -194.75 -57.75 -195.25 -57.75 -196.5 -58.25 -197.0 -58.5 -197.5 -59.5 -198.5 -59.25 -198.75 -58.75 -198.75 -58.25 -198.5 -57.5 -198.75 -57.5 -200.0 -58.0 -200.5 -58.25 -201.0 -59.25 -202.0 -59.75 -202.25 -60.5 -201.75 -60.5 -201.5 -62.5 -201.5 M-73.0 -203.0 L-73.25 -199.5 Q-79.5 -202.25 -78.75 -197.25 L-59.75 -184.0 Q-57.25 -187.25 -63.75 -192.75 -62.5 -194.5 -63.5 -197.5 L-66.0 -200.75 -66.25 -201.75 -67.5 -202.25 -68.0 -202.75 -69.5 -203.5 Q-71.75 -204.75 -73.0 -203.0 M-68.0 -213.5 L-68.25 -213.5 -69.25 -214.25 -71.0 -214.75 -72.0 -213.75 -72.0 -211.0 -70.5 -208.75 -69.25 -207.5 -67.5 -206.25 -65.0 -206.25 -64.75 -208.75 -65.0 -209.75 -67.75 -213.25 -68.0 -213.5 M-47.5 -118.5 L-49.25 -86.25 -20.5 -86.25 -19.75 -118.5 -47.5 -118.5 M-70.0 -11.5 L-97.25 -21.25 -101.5 22.25 -73.0 30.0 -70.0 -11.5 M-22.0 -8.75 L-53.25 -8.75 -55.5 32.25 -23.0 32.25 -22.0 -8.75 M-51.25 -48.25 L-53.25 -10.5 -22.0 -10.5 -21.25 -48.25 -51.25 -48.25 M-67.25 -53.0 L-65.0 -88.5 -89.5 -100.75 -92.75 -64.0 -67.25 -53.0 M-21.25 -49.75 L-20.5 -84.75 -49.25 -84.75 -51.25 -49.75 -21.25 -49.75 M-102.75 -23.25 L-133.5 -34.0 -139.25 11.75 -107.25 20.5 -102.75 -23.25 M-93.25 -62.5 L-96.75 -22.75 -70.0 -13.25 -67.25 -51.5 -93.25 -62.5 M-98.5 -62.5 L-98.75 -65.25 -127.5 -77.5 -132.75 -35.75 -102.5 -25.0 -98.5 -62.5 M-94.5 -103.5 L-122.0 -117.25 -127.25 -79.25 -98.25 -66.75 -94.5 -103.5 M-86.0 -135.75 L-89.25 -102.0 -64.5 -89.75 -62.25 -122.25 -86.0 -135.75 M-94.25 -104.75 L-91.0 -139.0 -117.0 -153.75 -121.75 -118.75 -94.25 -104.75 M-127.5 -120.25 L-158.75 -136.0 -166.0 -96.25 -133.25 -82.0 -127.5 -120.25 M-122.25 -157.0 L-151.25 -173.75 -152.0 -173.5 -152.0 -172.25 -158.5 -137.5 -127.5 -121.75 -122.25 -157.0 M-151.25 -175.0 L-122.25 -158.5 -117.75 -191.0 -145.5 -208.5 -151.25 -175.0 M-87.25 -171.5 L-112.5 -187.25 -116.75 -155.0 -90.5 -140.0 -87.25 -171.5 M-19.75 -119.75 L-19.0 -149.75 -46.0 -149.75 -47.5 -119.75 -19.75 -119.75" fill="#000000" fill-rule="evenodd" stroke="none"/>
  </g>
</svg>
