<?xml version="1.0" encoding="UTF-8" standalone="no"?>
<svg xmlns:xlink="http://www.w3.org/1999/xlink" height="65.8px" width="242.05px" xmlns="http://www.w3.org/2000/svg">
  <g transform="matrix(1.0, 0.0, 0.0, 1.0, -11.25, -228.05)">
    <path d="M113.55 254.85 L124.4 250.15 Q130.9 247.0 132.05 244.75 L131.55 248.7 Q131.55 257.25 138.85 261.05 145.35 264.45 155.8 263.35 162.45 262.65 167.1 260.05 171.2 257.7 175.55 252.8 177.9 250.15 181.85 243.6 L187.05 234.8 Q187.55 238.2 190.6 238.9 L197.05 239.05 Q202.25 239.05 209.65 235.35 216.3 232.0 220.3 228.05 224.0 240.45 231.0 246.05 239.25 252.7 253.3 251.05 239.4 259.25 227.3 265.5 214.95 271.85 199.0 279.0 L192.55 280.75 185.8 282.35 Q184.2 279.5 180.3 277.65 176.35 275.8 171.3 275.6 166.5 275.45 164.05 276.5 160.85 277.85 159.3 281.85 158.95 282.8 158.55 285.75 158.15 288.65 158.3 289.35 L153.7 290.3 149.05 291.1 144.6 291.8 135.05 292.1 Q136.25 289.7 136.25 287.5 136.25 280.85 131.4 275.2 125.75 268.6 116.8 268.6 109.3 268.6 102.95 272.7 96.3 277.0 96.3 282.6 96.3 285.05 97.8 288.3 99.4 291.8 101.8 293.85 L89.85 293.6 78.3 293.35 Q72.15 279.45 68.55 274.85 61.7 266.1 51.25 266.1 43.1 266.1 34.6 271.5 29.8 274.55 24.1 280.1 L17.55 277.55 11.25 275.1 Q13.6 273.45 20.6 269.9 26.25 267.05 28.25 264.85 32.4 260.25 33.55 258.2 L36.5 251.05 52.55 243.7 68.55 236.05 Q64.1 241.25 63.95 244.1 63.8 246.9 67.8 249.8 74.6 254.8 78.35 256.25 83.75 258.35 92.8 258.35 L102.65 257.95 Q107.7 257.3 113.55 254.85 M201.0 255.5 Q201.0 247.5 193.0 247.5 189.85 247.5 186.75 249.3 183.05 251.4 183.05 254.6 183.05 258.2 184.8 260.6 185.75 261.95 187.65 263.0 189.4 263.95 191.3 264.35 194.65 265.1 198.05 263.35 201.0 261.8 201.0 255.5" fill="url(#gradient0)" fill-rule="evenodd" stroke="none"/>
  </g>
  <defs>
    <linearGradient gradientTransform="matrix(0.0053, -0.0455, 0.0398, 0.0047, 109.35, 283.8)" gradientUnits="userSpaceOnUse" id="gradient0" spreadMethod="pad" x1="-819.2" x2="819.2">
      <stop offset="0.0" stop-color="#9c20df"/>
      <stop offset="1.0" stop-color="#9d24df" stop-opacity="0.2901961"/>
    </linearGradient>
  </defs>
</svg>
