<?xml version="1.0" encoding="UTF-8" standalone="no"?>
<svg xmlns:xlink="http://www.w3.org/1999/xlink" height="13.85px" width="15.4px" xmlns="http://www.w3.org/2000/svg">
  <g transform="matrix(1.0, 0.0, 0.0, 1.0, -3.9, -17.7)">
    <path d="M10.0 18.55 L8.85 18.65 8.5 19.05 8.4 22.05 8.4 23.65 11.25 23.7 14.8 23.65 14.8 22.05 14.65 19.05 14.3 18.65 13.2 18.55 13.05 18.45 13.05 17.8 13.15 17.7 16.2 17.8 19.2 17.7 19.3 17.8 19.3 18.5 19.2 18.55 18.05 18.65 17.7 19.05 17.6 22.05 17.6 27.2 17.7 30.25 18.05 30.6 19.2 30.7 19.3 30.8 19.3 31.45 19.2 31.55 16.2 31.5 13.15 31.55 13.05 31.45 13.05 30.8 13.2 30.7 14.3 30.6 14.65 30.25 14.8 27.2 14.8 24.85 11.6 24.8 8.4 24.85 8.4 27.2 8.5 30.25 8.85 30.6 10.0 30.7 10.1 30.8 10.1 31.45 10.0 31.55 7.0 31.5 3.95 31.55 3.9 31.45 3.9 30.8 3.95 30.7 5.1 30.6 5.45 30.25 5.55 27.2 5.55 22.05 5.45 19.05 5.1 18.65 3.95 18.55 3.9 18.45 3.9 17.8 3.95 17.7 7.0 17.8 10.0 17.7 10.1 17.8 10.1 18.5 10.0 18.55" fill="#ffffff" fill-rule="evenodd" stroke="none"/>
  </g>
</svg>
