<?xml version="1.0" encoding="UTF-8" standalone="no"?>
<svg xmlns:xlink="http://www.w3.org/1999/xlink" height="505.0px" width="398.05px" xmlns="http://www.w3.org/2000/svg">
  <g transform="matrix(1.0, 0.0, 0.0, 1.0, 36.05, -207.0)">
    <path d="M145.25 233.2 Q145.8 252.75 147.95 270.55 153.9 319.9 169.5 335.5 153.05 352.25 140.15 380.75 128.75 405.85 122.05 435.3 115.9 462.45 115.7 483.9 115.55 505.55 121.5 511.5 116.0 531.5 124.55 552.75 132.1 571.5 149.25 588.45 164.95 603.95 184.1 613.7 202.9 623.3 217.5 623.5 224.05 634.4 246.55 646.2 261.2 653.95 292.35 666.45 325.9 679.9 336.7 685.15 357.55 695.35 361.5 703.5 L-6.5 711.5 Q-11.85 706.15 -14.75 662.15 -16.5 635.95 -18.5 568.5 -20.5 501.95 -22.25 476.4 -25.15 434.15 -30.5 431.5 -36.15 428.7 -35.5 407.3 -34.95 388.55 -29.85 360.3 -25.05 333.85 -18.5 310.9 -11.7 287.15 -6.5 279.5 5.35 289.95 20.2 291.65 33.25 293.15 46.9 287.75 59.2 282.85 68.9 273.75 78.25 264.85 81.5 255.5 104.9 247.4 117.65 238.65 134.05 227.3 145.5 207.5 144.8 217.4 145.25 233.2" fill="url(#gradient0)" fill-rule="evenodd" stroke="none"/>
    <path d="M145.25 233.2 Q145.8 252.75 147.95 270.55 153.9 319.9 169.5 335.5 153.05 352.25 140.15 380.75 128.75 405.85 122.05 435.3 115.9 462.45 115.7 483.9 115.55 505.55 121.5 511.5 116.0 531.5 124.55 552.75 132.1 571.5 149.25 588.45 164.95 603.95 184.1 613.7 202.9 623.3 217.5 623.5 224.05 634.4 246.55 646.2 261.2 653.95 292.35 666.45 325.9 679.9 336.7 685.15 357.55 695.35 361.5 703.5 L-6.5 711.5 Q-11.85 706.15 -14.75 662.15 -16.5 635.95 -18.5 568.5 -20.5 501.95 -22.25 476.4 -25.15 434.15 -30.5 431.5 -36.15 428.7 -35.5 407.3 -34.95 388.55 -29.85 360.3 -25.05 333.85 -18.5 310.9 -11.7 287.15 -6.5 279.5 5.35 289.95 20.2 291.65 33.25 293.15 46.9 287.75 59.2 282.85 68.9 273.75 78.25 264.85 81.5 255.5 104.9 247.4 117.65 238.65 134.05 227.3 145.5 207.5 144.8 217.4 145.25 233.2 Z" fill="none" stroke="#5bd1f9" stroke-linecap="round" stroke-linejoin="round" stroke-width="1.0"/>
  </g>
  <defs>
    <linearGradient gradientTransform="matrix(2.0E-4, -0.3473, 0.3381, 2.0E-4, 289.55, 436.5)" gradientUnits="userSpaceOnUse" id="gradient0" spreadMethod="pad" x1="-819.2" x2="819.2">
      <stop offset="0.0" stop-color="#ffffff"/>
      <stop offset="0.5333333333333333" stop-color="#17dbfd"/>
      <stop offset="1.0" stop-color="#178afd"/>
    </linearGradient>
  </defs>
</svg>
