<?xml version="1.0" encoding="UTF-8" standalone="no"?>
<svg xmlns:xlink="http://www.w3.org/1999/xlink" height="114.0px" width="104.0px" xmlns="http://www.w3.org/2000/svg">
  <g transform="matrix(1.0, 0.0, 0.0, 1.0, 52.0, 54.0)">
    <path d="M39.3 -36.3 Q40.35 -36.7 40.85 -37.2 42.0 -38.35 42.0 -40.0 42.0 -41.6 40.85 -42.85 39.6 -44.0 38.0 -44.0 L29.1 -44.0 30.0 -52.0 -30.0 -52.0 -29.05 -44.0 -38.0 -44.0 Q-39.6 -44.0 -40.85 -42.85 -42.0 -41.6 -42.0 -40.0 -42.0 -38.35 -40.85 -37.2 -40.35 -36.7 -39.3 -36.3 L-38.35 -36.0 -36.55 -34.5 Q-34.9 -32.85 -34.0 -30.85 -33.0 -28.6 -33.0 -26.0 -33.0 -21.05 -36.55 -17.55 -39.95 -14.1 -44.7 -14.0 L-44.35 -14.0 Q-50.0 -13.8 -50.0 -8.0 L-50.0 52.0 Q-50.0 58.0 -44.0 58.0 L44.0 58.0 Q50.0 58.0 50.0 52.0 L50.0 -8.0 Q50.0 -13.8 44.35 -14.0 L44.7 -14.0 Q39.95 -14.1 36.55 -17.55 33.0 -21.05 33.0 -26.0 33.0 -28.6 34.0 -30.85 34.9 -32.85 36.55 -34.5 L38.35 -36.0 39.3 -36.3 Z" fill="none" stroke="#000000" stroke-linecap="round" stroke-linejoin="round" stroke-width="4.0"/>
    <path d="M34.0 -30.85 Q33.0 -28.6 33.0 -26.0 33.0 -21.05 36.55 -17.55 39.95 -14.1 44.7 -14.0 L44.35 -14.0 Q50.0 -13.8 50.0 -8.0 L50.0 52.0 Q50.0 58.0 44.0 58.0 L-44.0 58.0 Q-50.0 58.0 -50.0 52.0 L-50.0 -8.0 Q-50.0 -13.8 -44.35 -14.0 L-44.7 -14.0 Q-39.95 -14.1 -36.55 -17.55 -33.0 -21.05 -33.0 -26.0 -33.0 -28.6 -34.0 -30.85 -34.9 -32.85 -36.55 -34.5 L-38.35 -36.0 -38.05 -36.0 Q-39.7 -36.05 -40.85 -37.2 -42.0 -38.35 -42.0 -40.0 -42.0 -41.6 -40.85 -42.85 -39.6 -44.0 -38.0 -44.0 L0.0 -44.0 38.0 -44.0 Q39.6 -44.0 40.85 -42.85 42.0 -41.6 42.0 -40.0 42.0 -38.35 40.85 -37.2 39.7 -36.05 38.05 -36.0 L38.35 -36.0 36.55 -34.5 Q34.9 -32.85 34.0 -30.85" fill="url(#gradient0)" fill-rule="evenodd" stroke="none"/>
    <path d="M33.0 -14.05 L33.05 -14.0 Q37.55 -9.45 43.7 -9.05 L44.2 -9.0 Q45.0 -8.9 45.0 -8.0 L45.0 52.0 Q45.0 53.0 44.0 53.0 L-44.0 53.0 Q-45.0 53.0 -45.0 52.0 L-45.0 -8.0 Q-45.0 -8.9 -44.2 -9.0 L-43.7 -9.05 Q-37.55 -9.45 -33.05 -14.0 L-33.0 -14.05 Q-28.0 -19.0 -28.0 -26.0 -28.0 -33.0 -33.05 -38.0 L-34.0 -38.95 -34.1 -39.0 34.1 -39.0 34.0 -38.95 33.05 -38.0 Q28.0 -33.0 28.0 -26.0 28.0 -19.0 33.0 -14.05" fill="url(#gradient1)" fill-rule="evenodd" stroke="none"/>
    <path d="M33.0 -14.05 L33.05 -14.0 Q37.55 -9.45 43.7 -9.05 L44.2 -9.0 Q45.0 -8.9 45.0 -8.0 L45.0 52.0 Q45.0 53.0 44.0 53.0 L-44.0 53.0 Q-45.0 53.0 -45.0 52.0 L-45.0 -8.0 Q-45.0 -8.9 -44.2 -9.0 L-43.7 -9.05 Q-37.55 -9.45 -33.05 -14.0 L-33.0 -14.05 Q-28.0 -19.0 -28.0 -26.0 -28.0 -33.0 -33.05 -38.0 L-34.0 -38.95 -34.1 -39.0 34.1 -39.0 34.0 -38.95 33.05 -38.0 Q28.0 -33.0 28.0 -26.0 28.0 -19.0 33.0 -14.05 Z" fill="none" stroke="#70748f" stroke-linecap="round" stroke-linejoin="round" stroke-width="2.0"/>
  </g>
  <defs>
    <linearGradient gradientTransform="matrix(0.0, -0.0647, 0.0623, 0.0, 0.0, 7.0)" gradientUnits="userSpaceOnUse" id="gradient0" spreadMethod="pad" x1="-819.2" x2="819.2">
      <stop offset="0.0" stop-color="#d5cfda"/>
      <stop offset="0.24313725490196078" stop-color="#898ca0"/>
      <stop offset="0.5333333333333333" stop-color="#a8aab9"/>
      <stop offset="0.7254901960784313" stop-color="#d8d5db"/>
      <stop offset="0.9137254901960784" stop-color="#898ca0"/>
    </linearGradient>
    <linearGradient gradientTransform="matrix(0.0, -0.0549, 0.0562, 0.0, 0.0, 7.0)" gradientUnits="userSpaceOnUse" id="gradient1" spreadMethod="pad" x1="-819.2" x2="819.2">
      <stop offset="0.0" stop-color="#9e9dae"/>
      <stop offset="0.7529411764705882" stop-color="#d8d5db"/>
    </linearGradient>
  </defs>
</svg>
