<?xml version="1.0" encoding="UTF-8" standalone="no"?>
<svg xmlns:xlink="http://www.w3.org/1999/xlink" height="128.0px" width="128.0px" xmlns="http://www.w3.org/2000/svg">
  <g transform="matrix(1.0, 0.0, 0.0, 1.0, 64.0, 64.0)">
    <path d="M64.0 64.0 L-64.0 64.0 -64.0 -64.0 64.0 -64.0 64.0 64.0" fill="#38cd4e" fill-opacity="0.0" fill-rule="evenodd" stroke="none"/>
    <path d="M37.0 -46.0 L37.0 46.0 Q37.0 53.0 30.0 53.0 L-30.0 53.0 Q-37.0 53.0 -37.0 46.0 L-37.0 -46.0 Q-37.0 -53.0 -30.0 -53.0 L30.0 -53.0 Q37.0 -53.0 37.0 -46.0" fill="#010101" fill-rule="evenodd" stroke="none"/>
    <path d="M30.0 -50.0 Q34.0 -50.0 34.0 -46.0 L34.0 46.0 Q34.0 50.0 30.0 50.0 L-30.0 50.0 Q-34.0 50.0 -34.0 46.0 L-34.0 -46.0 Q-34.0 -50.0 -30.0 -50.0 L30.0 -50.0" fill="url(#gradient0)" fill-rule="evenodd" stroke="none"/>
    <path d="M28.0 -46.0 Q30.0 -46.0 30.0 -44.0 L30.0 44.0 Q30.0 46.0 28.0 46.0 L-28.0 46.0 Q-30.0 46.0 -30.0 44.0 L-30.0 -44.0 Q-30.0 -46.0 -28.0 -46.0 L28.0 -46.0" fill="url(#gradient1)" fill-rule="evenodd" stroke="none"/>
    <path d="M26.0 -44.0 Q28.0 -44.0 28.0 -42.0 L28.0 42.0 Q28.0 44.0 26.0 44.0 L-26.0 44.0 Q-28.0 44.0 -28.0 42.0 L-28.0 -42.0 Q-28.0 -44.0 -26.0 -44.0 L26.0 -44.0" fill="url(#gradient2)" fill-rule="evenodd" stroke="none"/>
    <path d="M10.7 9.3 Q11.85 10.45 12.45 11.55 13.1 12.5 12.8 12.8 12.5 13.1 11.55 12.45 10.5 11.8 9.35 10.65 L7.6 8.5 Q6.9 7.5 7.2 7.2 7.5 6.9 8.5 7.6 9.6 8.2 10.7 9.3 M-12.8 -12.8 Q-12.5 -13.1 -11.55 -12.45 -10.5 -11.8 -9.35 -10.65 L-7.6 -8.5 Q-6.9 -7.5 -7.2 -7.2 -7.5 -6.9 -8.5 -7.6 -9.6 -8.2 -10.7 -9.3 -11.85 -10.45 -12.45 -11.55 -13.1 -12.5 -12.8 -12.8 M-9.35 11.25 Q-10.5 12.4 -11.55 13.05 -12.5 13.7 -12.8 13.4 -13.1 13.1 -12.45 12.15 -11.85 11.05 -10.7 9.9 -9.6 8.8 -8.5 8.2 -7.5 7.5 -7.2 7.8 -6.9 8.1 -7.6 9.1 L-9.35 11.25" fill="#635f3f" fill-rule="evenodd" stroke="none"/>
    <path d="M12.8 -12.85 Q13.1 -12.55 12.45 -11.6 11.85 -10.5 10.7 -9.35 9.6 -8.25 8.5 -7.65 7.5 -6.95 7.2 -7.25 6.9 -7.55 7.6 -8.55 L9.35 -10.7 Q10.5 -11.85 11.55 -12.5 12.5 -13.15 12.8 -12.85" fill="#009900" fill-rule="evenodd" stroke="none"/>
    <path d="M12.8 -12.85 Q12.5 -13.15 11.55 -12.5 10.5 -11.85 9.35 -10.7 L7.6 -8.55 Q6.9 -7.55 7.2 -7.25 7.5 -6.95 8.5 -7.65 9.6 -8.25 10.7 -9.35 11.85 -10.5 12.45 -11.6 13.1 -12.55 12.8 -12.85 M12.95 -13.0 Q15.5 -12.95 17.15 -11.3 18.95 -9.5 19.0 -7.05 18.95 -4.2 17.2 -2.85 15.4 -1.35 11.25 -0.8 6.45 -0.1 1.0 -1.05 0.05 -6.5 0.75 -11.3 1.3 -15.45 2.8 -17.25 4.15 -19.0 7.05 -19.0 9.45 -19.0 11.25 -17.2 12.95 -15.5 12.95 -13.0" fill="url(#gradient3)" fill-rule="evenodd" stroke="none"/>
    <path d="M11.25 0.75 Q15.4 1.3 17.2 2.8 18.95 4.15 19.0 7.0 18.95 9.45 17.15 11.25 15.5 12.9 12.95 12.95 12.95 15.45 11.25 17.15 9.45 18.95 7.05 18.95 4.15 18.95 2.8 17.2 1.3 15.4 0.75 11.25 0.05 6.45 1.0 1.0 6.45 0.05 11.25 0.75 M10.7 9.3 Q9.6 8.2 8.5 7.6 7.5 6.9 7.2 7.2 6.9 7.5 7.6 8.5 L9.35 10.65 Q10.5 11.8 11.55 12.45 12.5 13.1 12.8 12.8 13.1 12.5 12.45 11.55 11.85 10.45 10.7 9.3 M-7.05 -18.95 Q-4.15 -18.95 -2.8 -17.2 -1.3 -15.4 -0.75 -11.25 -0.05 -6.45 -1.0 -1.0 -6.45 -0.05 -11.25 -0.75 -15.4 -1.3 -17.2 -2.8 -18.95 -4.15 -19.0 -7.0 -18.95 -9.45 -17.15 -11.25 -15.5 -12.9 -12.95 -12.95 -12.95 -15.45 -11.25 -17.15 -9.45 -18.95 -7.05 -18.95 M-12.8 -12.8 Q-13.1 -12.5 -12.45 -11.55 -11.85 -10.45 -10.7 -9.3 -9.6 -8.2 -8.5 -7.6 -7.5 -6.9 -7.2 -7.2 -6.9 -7.5 -7.6 -8.5 L-9.35 -10.65 Q-10.5 -11.8 -11.55 -12.45 -12.5 -13.1 -12.8 -12.8 M-0.75 11.85 Q-1.3 16.0 -2.8 17.8 -4.15 19.55 -7.05 19.55 -9.45 19.55 -11.25 17.75 -12.95 16.05 -12.95 13.55 -15.5 13.5 -17.15 11.85 -18.95 10.05 -19.0 7.6 -18.95 4.75 -17.2 3.4 -15.4 1.9 -11.25 1.35 -6.45 0.65 -1.0 1.6 -0.05 7.05 -0.75 11.85 M-9.35 11.25 L-7.6 9.1 Q-6.9 8.1 -7.2 7.8 -7.5 7.5 -8.5 8.2 -9.6 8.8 -10.7 9.9 -11.85 11.05 -12.45 12.15 -13.1 13.1 -12.8 13.4 -12.5 13.7 -11.55 13.05 -10.5 12.4 -9.35 11.25" fill="url(#gradient4)" fill-rule="evenodd" stroke="none"/>
    <path d="M-18.0 -40.0 Q-18.0 -39.0 -19.0 -39.0 L-21.0 -39.0 Q-22.0 -39.0 -22.0 -40.0 L-22.0 -42.0 Q-22.0 -43.0 -21.0 -43.0 L-19.0 -43.0 Q-18.0 -43.0 -18.0 -42.0 L-18.0 -40.0" fill="url(#gradient5)" fill-rule="evenodd" stroke="none"/>
    <path d="M-19.0 -38.0 Q-18.0 -38.0 -18.0 -37.0 L-18.0 -35.0 Q-18.0 -34.0 -19.0 -34.0 L-21.0 -34.0 Q-22.0 -34.0 -22.0 -35.0 L-22.0 -37.0 Q-22.0 -38.0 -21.0 -38.0 L-19.0 -38.0" fill="url(#gradient6)" fill-rule="evenodd" stroke="none"/>
    <path d="M-26.0 -39.0 Q-27.0 -39.0 -27.0 -40.0 L-27.0 -42.0 Q-27.0 -43.0 -26.0 -43.0 L-24.0 -43.0 Q-23.0 -43.0 -23.0 -42.0 L-23.0 -40.0 Q-23.0 -39.0 -24.0 -39.0 L-26.0 -39.0" fill="url(#gradient7)" fill-rule="evenodd" stroke="none"/>
    <path d="M-26.0 -38.0 L-24.0 -38.0 Q-23.0 -38.0 -23.0 -37.0 L-23.0 -35.0 Q-23.0 -34.0 -24.0 -34.0 L-26.0 -34.0 Q-27.0 -34.0 -27.0 -35.0 L-27.0 -37.0 Q-27.0 -38.0 -26.0 -38.0" fill="url(#gradient8)" fill-rule="evenodd" stroke="none"/>
    <path d="M18.0 36.0 L18.0 34.0 Q18.0 33.0 19.0 33.0 L21.0 33.0 Q22.0 33.0 22.0 34.0 L22.0 36.0 Q22.0 37.0 21.0 37.0 L19.0 37.0 Q18.0 37.0 18.0 36.0" fill="url(#gradient9)" fill-rule="evenodd" stroke="none"/>
    <path d="M18.0 39.0 Q18.0 38.0 19.0 38.0 L21.0 38.0 Q22.0 38.0 22.0 39.0 L22.0 41.0 Q22.0 42.0 21.0 42.0 L19.0 42.0 Q18.0 42.0 18.0 41.0 L18.0 39.0" fill="url(#gradient10)" fill-rule="evenodd" stroke="none"/>
    <path d="M23.0 34.0 Q23.0 33.0 24.0 33.0 L26.0 33.0 Q27.0 33.0 27.0 34.0 L27.0 36.0 Q27.0 37.0 26.0 37.0 L24.0 37.0 Q23.0 37.0 23.0 36.0 L23.0 34.0" fill="url(#gradient11)" fill-rule="evenodd" stroke="none"/>
    <path d="M27.0 39.0 L27.0 41.0 Q27.0 42.0 26.0 42.0 L24.0 42.0 Q23.0 42.0 23.0 41.0 L23.0 39.0 Q23.0 38.0 24.0 38.0 L26.0 38.0 Q27.0 38.0 27.0 39.0" fill="url(#gradient12)" fill-rule="evenodd" stroke="none"/>
  </g>
  <defs>
    <linearGradient gradientTransform="matrix(0.0345, 0.0682, -0.0566, 0.0286, 0.0, 0.0)" gradientUnits="userSpaceOnUse" id="gradient0" spreadMethod="pad" x1="-819.2" x2="819.2">
      <stop offset="0.0" stop-color="#c6c1bf"/>
      <stop offset="0.36470588235294116" stop-color="#e0dede"/>
      <stop offset="0.6313725490196078" stop-color="#e0dede"/>
      <stop offset="1.0" stop-color="#c6c1bf"/>
    </linearGradient>
    <linearGradient gradientTransform="matrix(0.0298, -0.063, 0.0507, 0.024, 0.0, 0.0)" gradientUnits="userSpaceOnUse" id="gradient1" spreadMethod="pad" x1="-819.2" x2="819.2">
      <stop offset="0.0" stop-color="#b0aaaa"/>
      <stop offset="0.4980392156862745" stop-color="#cecccc"/>
      <stop offset="1.0" stop-color="#b3aeae"/>
    </linearGradient>
    <linearGradient gradientTransform="matrix(0.0345, 0.0682, -0.0566, 0.0286, 0.0, 0.0)" gradientUnits="userSpaceOnUse" id="gradient2" spreadMethod="pad" x1="-819.2" x2="819.2">
      <stop offset="0.0" stop-color="#c6c1bf"/>
      <stop offset="0.36470588235294116" stop-color="#e0dede"/>
      <stop offset="0.6313725490196078" stop-color="#e0dede"/>
      <stop offset="1.0" stop-color="#c6c1bf"/>
    </linearGradient>
    <linearGradient gradientTransform="matrix(-0.0095, 0.0087, -0.0076, -0.0083, 8.2, -8.0)" gradientUnits="userSpaceOnUse" id="gradient3" spreadMethod="pad" x1="-819.2" x2="819.2">
      <stop offset="0.4392156862745098" stop-color="#3ab412"/>
      <stop offset="1.0" stop-color="#2f8c0f"/>
    </linearGradient>
    <linearGradient gradientTransform="matrix(0.0128, -0.0215, 0.0097, 0.0058, 2.95, 1.8)" gradientUnits="userSpaceOnUse" id="gradient4" spreadMethod="pad" x1="-819.2" x2="819.2">
      <stop offset="0.0" stop-color="#161414"/>
      <stop offset="1.0" stop-color="#555a32"/>
    </linearGradient>
    <linearGradient gradientTransform="matrix(0.0024, 0.0, 0.0, 0.0024, -20.0, -41.0)" gradientUnits="userSpaceOnUse" id="gradient5" spreadMethod="pad" x1="-819.2" x2="819.2">
      <stop offset="0.0" stop-color="#928c89"/>
      <stop offset="1.0" stop-color="#a7a69e"/>
    </linearGradient>
    <linearGradient gradientTransform="matrix(0.0024, 0.0, 0.0, 0.0024, -20.0, -36.0)" gradientUnits="userSpaceOnUse" id="gradient6" spreadMethod="pad" x1="-819.2" x2="819.2">
      <stop offset="0.0" stop-color="#928c89"/>
      <stop offset="1.0" stop-color="#a7a69e"/>
    </linearGradient>
    <linearGradient gradientTransform="matrix(0.0024, 0.0, 0.0, 0.0024, -25.0, -41.0)" gradientUnits="userSpaceOnUse" id="gradient7" spreadMethod="pad" x1="-819.2" x2="819.2">
      <stop offset="0.0" stop-color="#928c89"/>
      <stop offset="1.0" stop-color="#a7a69e"/>
    </linearGradient>
    <linearGradient gradientTransform="matrix(0.0024, 0.0, 0.0, 0.0024, -25.0, -36.0)" gradientUnits="userSpaceOnUse" id="gradient8" spreadMethod="pad" x1="-819.2" x2="819.2">
      <stop offset="0.0" stop-color="#928c89"/>
      <stop offset="1.0" stop-color="#a7a69e"/>
    </linearGradient>
    <linearGradient gradientTransform="matrix(0.0024, 0.0, 0.0, 0.0024, 20.0, 35.0)" gradientUnits="userSpaceOnUse" id="gradient9" spreadMethod="pad" x1="-819.2" x2="819.2">
      <stop offset="0.0" stop-color="#928c89"/>
      <stop offset="1.0" stop-color="#a7a69e"/>
    </linearGradient>
    <linearGradient gradientTransform="matrix(0.0024, 0.0, 0.0, 0.0024, 20.0, 40.0)" gradientUnits="userSpaceOnUse" id="gradient10" spreadMethod="pad" x1="-819.2" x2="819.2">
      <stop offset="0.0" stop-color="#928c89"/>
      <stop offset="1.0" stop-color="#a7a69e"/>
    </linearGradient>
    <linearGradient gradientTransform="matrix(0.0024, 0.0, 0.0, 0.0024, 25.0, 35.0)" gradientUnits="userSpaceOnUse" id="gradient11" spreadMethod="pad" x1="-819.2" x2="819.2">
      <stop offset="0.0" stop-color="#928c89"/>
      <stop offset="1.0" stop-color="#a7a69e"/>
    </linearGradient>
    <linearGradient gradientTransform="matrix(0.0024, 0.0, 0.0, 0.0024, 25.0, 40.0)" gradientUnits="userSpaceOnUse" id="gradient12" spreadMethod="pad" x1="-819.2" x2="819.2">
      <stop offset="0.0" stop-color="#928c89"/>
      <stop offset="1.0" stop-color="#a7a69e"/>
    </linearGradient>
  </defs>
</svg>
