<?xml version="1.0" encoding="UTF-8" standalone="no"?>
<svg xmlns:xlink="http://www.w3.org/1999/xlink" height="80.4px" width="80.4px" xmlns="http://www.w3.org/2000/svg">
  <g transform="matrix(1.0, 0.0, 0.0, 1.0, 40.2, 40.2)">
    <path d="M38.0 -1.9 L1.9 -38.1 Q0.0 -39.9 -1.85 -38.05 L-38.1 -1.9 Q-39.9 0.0 -38.1 1.8 L-1.9 37.95 Q0.0 39.85 1.9 38.1 L38.05 1.85 Q39.9 0.0 38.0 -1.9 M0.0 -40.2 Q1.5 -40.2 2.75 -38.95 L38.9 -2.8 Q40.2 -1.5 40.2 0.0 40.2 1.4 38.9 2.7 L2.75 38.95 Q1.45 40.2 0.0 40.2 -1.45 40.2 -2.75 38.9 L-38.95 2.65 Q-40.2 1.4 -40.2 0.0 -40.15 -1.45 -38.95 -2.75 L-2.7 -38.9 Q-1.4 -40.2 0.0 -40.2 M36.85 -1.15 Q38.0 0.0 36.85 1.15 L1.1 36.9 -1.15 36.8 -36.9 1.0 Q-37.95 -0.05 -36.9 -1.1 L-1.15 -36.85 1.15 -36.95 36.85 -1.15" fill="#808080" fill-rule="evenodd" stroke="none"/>
  </g>
</svg>
