<?xml version="1.0" encoding="UTF-8" standalone="no"?>
<svg xmlns:xlink="http://www.w3.org/1999/xlink" height="85.0px" width="228.0px" xmlns="http://www.w3.org/2000/svg">
  <g transform="matrix(1.0, 0.0, 0.0, 1.0, 0.0, 30.0)">
    <path d="M212.0 -27.0 L216.0 0.0 224.0 0.0 Q228.0 0.0 228.0 4.0 L228.0 51.0 Q228.0 55.0 224.0 55.0 L72.5 55.0 4.0 55.0 Q0.0 55.0 0.0 51.0 L0.0 4.0 Q0.0 0.0 4.0 0.0 L72.5 0.0 204.1 0.0 208.0 -27.0 210.0 -30.0 212.0 -27.0" fill="#000000" fill-rule="evenodd" stroke="none"/>
    <path d="M210.0 -25.0 L210.8 -23.5 Q211.8 -13.6 214.0 2.0 L224.0 2.0 Q226.0 2.0 226.0 4.0 L226.0 51.0 Q226.0 53.0 224.0 53.0 L4.0 53.0 Q2.0 53.0 2.0 51.0 L2.0 4.0 Q2.0 2.0 4.0 2.0 L206.0 2.0 209.2 -23.5 210.0 -25.0" fill="#bababa" fill-rule="evenodd" stroke="none"/>
  </g>
</svg>
