<?xml version="1.0" encoding="UTF-8" standalone="no"?>
<svg xmlns:xlink="http://www.w3.org/1999/xlink" height="129.0px" width="62.0px" xmlns="http://www.w3.org/2000/svg">
  <g transform="matrix(1.0, 0.0, 0.0, 1.0, 31.0, 63.0)">
    <path d="M7.95 -52.05 Q10.2 -46.25 11.4 -39.75 12.85 -32.1 13.75 -15.25 L13.75 -15.4 14.9 10.0 26.0 10.0 Q27.25 10.0 28.15 10.9 L30.15 12.9 Q31.0 13.75 31.0 15.0 31.0 16.25 30.15 17.15 L28.15 19.15 Q27.25 20.0 26.0 20.0 L20.45 20.0 10.85 22.9 10.0 23.0 10.0 24.0 Q10.0 41.35 8.35 55.05 9.0 57.85 9.0 63.0 9.0 64.25 8.15 65.15 7.25 66.0 6.0 66.0 L-6.0 66.0 Q-7.25 66.0 -8.1 65.15 -9.0 64.25 -9.0 63.0 -9.0 57.85 -8.35 55.05 -10.0 40.75 -10.0 24.0 L-10.0 23.0 -10.85 22.9 -20.4 20.0 -26.0 20.0 Q-27.25 20.0 -28.1 19.15 L-30.1 17.15 Q-31.0 16.25 -31.0 15.0 -31.0 13.75 -30.1 12.9 L-28.1 10.9 Q-27.25 10.0 -26.0 10.0 L-14.85 10.0 -13.7 -15.4 -13.75 -15.25 Q-12.85 -32.1 -11.4 -39.75 -10.2 -46.25 -7.95 -52.05 -5.1 -59.65 -2.0 -62.25 -1.15 -63.0 0.0 -63.0 1.15 -63.0 2.0 -62.25 5.1 -59.65 7.95 -52.05" fill="#000000" fill-rule="evenodd" stroke="none"/>
    <path d="M-5.25 55.0 L-5.35 55.0 Q-7.0 40.75 -7.0 24.0 L-7.0 20.0 7.0 20.0 7.0 24.0 Q7.0 41.35 5.35 55.0 L5.25 55.0 -5.25 55.0" fill="url(#gradient0)" fill-rule="evenodd" stroke="none"/>
    <path d="M5.25 55.0 Q6.0 57.55 6.0 63.0 L0.0 63.0 -6.0 63.0 Q-6.0 57.55 -5.25 55.0 L5.25 55.0" fill="url(#gradient1)" fill-rule="evenodd" stroke="none"/>
    <path d="M1.0 20.0 Q1.0 28.3 0.25 34.15 -0.45 40.0 -1.5 40.0 -2.55 40.0 -3.3 34.15 -4.0 28.3 -4.0 20.0 -4.0 11.7 -3.3 5.85 -2.55 0.0 -1.5 0.0 -0.45 0.0 0.25 5.85 1.0 11.7 1.0 20.0" fill="url(#gradient2)" fill-rule="evenodd" stroke="none"/>
    <path d="M0.0 -60.0 Q-2.65 -57.65 -5.15 -51.0 -7.3 -45.4 -8.45 -39.2 -9.85 -31.65 -10.75 -15.1 L-12.0 13.1 0.0 13.1 0.0 -60.0" fill="url(#gradient3)" fill-rule="evenodd" stroke="none"/>
    <path d="M0.0 13.1 L12.0 13.1 10.75 -15.1 Q9.85 -31.65 8.45 -39.2 7.3 -45.4 5.15 -51.0 2.65 -57.65 0.0 -60.0 L0.0 13.1" fill="url(#gradient4)" fill-rule="evenodd" stroke="none"/>
    <path d="M10.0 13.0 L10.0 20.0 0.0 20.0 -10.0 20.0 -10.0 13.0 0.0 13.0 10.0 13.0" fill="url(#gradient5)" fill-rule="evenodd" stroke="none"/>
    <path d="M28.0 15.0 L26.0 17.0 20.0 17.0 10.0 20.0 10.0 13.0 26.0 13.0 28.0 15.0" fill="url(#gradient6)" fill-rule="evenodd" stroke="none"/>
    <path d="M-26.0 17.0 L-28.0 15.0 -26.0 13.0 -10.0 13.0 -10.0 20.0 -20.0 17.0 -26.0 17.0" fill="url(#gradient7)" fill-rule="evenodd" stroke="none"/>
    <path d="M5.35 55.0 L-5.35 55.0 -5.55 53.0 5.6 53.0 5.35 55.0" fill="url(#gradient8)" fill-rule="evenodd" stroke="none"/>
  </g>
  <defs>
    <linearGradient gradientTransform="matrix(0.0085, 0.0, 0.0, 0.0214, 0.0, 37.5)" gradientUnits="userSpaceOnUse" id="gradient0" spreadMethod="pad" x1="-819.2" x2="819.2">
      <stop offset="0.043137254901960784" stop-color="#3c3c3c"/>
      <stop offset="0.34509803921568627" stop-color="#808080"/>
      <stop offset="0.7803921568627451" stop-color="#262626"/>
      <stop offset="1.0" stop-color="#4e4e4e"/>
    </linearGradient>
    <linearGradient gradientTransform="matrix(0.0073, 0.0, 0.0, 0.0049, 0.0, 59.0)" gradientUnits="userSpaceOnUse" id="gradient1" spreadMethod="pad" x1="-819.2" x2="819.2">
      <stop offset="0.0" stop-color="#a98a33"/>
      <stop offset="0.3058823529411765" stop-color="#cdaa41"/>
      <stop offset="1.0" stop-color="#7b5e26"/>
    </linearGradient>
    <radialGradient cx="0" cy="0" gradientTransform="matrix(0.0026, 0.0, 0.0, 0.0225, -1.5, 18.0)" gradientUnits="userSpaceOnUse" id="gradient2" r="819.2" spreadMethod="pad">
      <stop offset="0.2" stop-color="#f5f7f7" stop-opacity="0.68235296"/>
      <stop offset="1.0" stop-color="#606060" stop-opacity="0.0"/>
    </radialGradient>
    <linearGradient gradientTransform="matrix(-1.0E-4, -0.0446, -0.0446, 0.0, -6.0, -23.45)" gradientUnits="userSpaceOnUse" id="gradient3" spreadMethod="pad" x1="-819.2" x2="819.2">
      <stop offset="0.0" stop-color="#a99754"/>
      <stop offset="1.0" stop-color="#836634"/>
    </linearGradient>
    <linearGradient gradientTransform="matrix(0.0, -0.0446, -0.0446, 0.0, 6.0, -23.45)" gradientUnits="userSpaceOnUse" id="gradient4" spreadMethod="pad" x1="-819.2" x2="819.2">
      <stop offset="0.0" stop-color="#a59251"/>
      <stop offset="0.5176470588235295" stop-color="#ffffff"/>
      <stop offset="1.0" stop-color="#866a36"/>
    </linearGradient>
    <linearGradient gradientTransform="matrix(0.0232, 0.0, 0.0, 0.0043, 9.0, 16.5)" gradientUnits="userSpaceOnUse" id="gradient5" spreadMethod="pad" x1="-819.2" x2="819.2">
      <stop offset="0.0" stop-color="#caa740"/>
      <stop offset="1.0" stop-color="#94722d"/>
    </linearGradient>
    <linearGradient gradientTransform="matrix(0.0232, 0.0, 0.0, 0.0043, 9.0, 16.5)" gradientUnits="userSpaceOnUse" id="gradient6" spreadMethod="pad" x1="-819.2" x2="819.2">
      <stop offset="0.0" stop-color="#946f2c"/>
      <stop offset="1.0" stop-color="#94722d"/>
    </linearGradient>
    <linearGradient gradientTransform="matrix(0.0095, -0.0055, 0.0021, 0.0037, -19.0, 16.5)" gradientUnits="userSpaceOnUse" id="gradient7" spreadMethod="pad" x1="-819.2" x2="819.2">
      <stop offset="0.0" stop-color="#9b7c24"/>
      <stop offset="1.0" stop-color="#99772e"/>
    </linearGradient>
    <linearGradient gradientTransform="matrix(-0.0073, -1.0E-4, 0.0, -0.0012, 0.0, 54.0)" gradientUnits="userSpaceOnUse" id="gradient8" spreadMethod="pad" x1="-819.2" x2="819.2">
      <stop offset="0.0" stop-color="#8d2323"/>
      <stop offset="0.1803921568627451" stop-color="#621515"/>
      <stop offset="0.5254901960784314" stop-color="#e43030"/>
      <stop offset="0.6705882352941176" stop-color="#fa7c7c"/>
      <stop offset="0.7686274509803922" stop-color="#f44141"/>
      <stop offset="0.9411764705882353" stop-color="#9e1212"/>
    </linearGradient>
  </defs>
</svg>
