<?xml version="1.0" encoding="UTF-8" standalone="no"?>
<svg xmlns:xlink="http://www.w3.org/1999/xlink" height="140.5px" width="31.0px" xmlns="http://www.w3.org/2000/svg">
  <g transform="matrix(1.0, 0.0, 0.0, 1.0, 15.5, 69.5)">
    <path d="M2.8 -68.75 Q3.5 -68.05 3.5 -67.0 L3.5 -37.05 4.75 -35.75 Q5.3 -35.25 5.45 -34.55 5.6 -33.85 5.35 -33.15 L4.55 -32.05 5.1 -30.5 6.3 -30.1 7.25 -29.1 Q7.75 -28.25 8.75 -27.5 L9.0 -27.5 10.4 -27.05 11.35 -25.85 11.4 -24.4 10.5 -20.7 10.5 22.9 10.95 23.8 11.45 24.5 12.0 24.5 Q13.4 24.45 14.45 25.55 15.55 26.6 15.5 28.0 15.55 29.4 14.45 30.5 13.4 31.55 12.0 31.5 L8.55 31.5 7.1 32.25 5.8 32.5 5.35 33.8 4.5 35.0 4.5 51.0 4.7 52.4 5.4 53.15 6.2 54.3 6.7 54.8 Q9.5 57.55 9.5 61.5 9.5 65.45 6.7 68.25 3.95 71.0 0.0 71.0 -3.95 71.0 -6.7 68.25 -9.5 65.45 -9.5 61.5 -9.5 57.55 -6.7 54.8 L-6.2 54.3 -5.4 53.15 -4.7 52.4 -4.5 51.0 -4.5 35.0 -5.35 33.8 -5.8 32.5 -7.1 32.25 -8.55 31.5 -12.0 31.5 Q-13.4 31.55 -14.45 30.5 -15.55 29.4 -15.5 28.0 -15.55 26.6 -14.45 25.55 -13.4 24.45 -12.0 24.5 L-11.45 24.5 -10.95 23.8 -10.5 22.9 -10.5 -20.7 -11.4 -24.4 -11.35 -25.85 -10.4 -27.05 -9.0 -27.5 -8.75 -27.5 Q-7.75 -28.25 -7.25 -29.1 L-6.3 -30.1 -5.1 -30.5 -4.55 -32.05 -5.35 -33.15 Q-5.6 -33.85 -5.45 -34.55 -5.3 -35.25 -4.75 -35.75 L-3.5 -37.05 -3.5 -65.0 Q-3.5 -66.05 -2.75 -66.75 L-0.75 -68.75 Q-0.05 -69.5 1.0 -69.5 2.05 -69.5 2.8 -68.75 M2.0 61.5 L1.7 60.4 Q1.25 60.0 1.0 60.0 L-1.0 60.0 Q-1.25 60.0 -1.7 60.4 L-2.0 61.5 Q-2.0 62.3 -1.4 62.9 -0.8 63.5 0.0 63.5 0.8 63.5 1.4 62.9 2.0 62.3 2.0 61.5" fill="#000000" fill-rule="evenodd" stroke="none"/>
    <path d="M7.0 -21.0 L8.0 -21.0 8.0 23.0 7.0 23.0 7.0 2.0 7.0 -19.0 7.0 -21.0 M-7.0 23.0 L-8.0 23.0 -8.0 -21.0 -7.0 -21.0 -7.0 -19.0 -7.0 2.0 -7.0 23.0" fill="#c7c7ce" fill-rule="evenodd" stroke="none"/>
    <path d="M7.0 2.0 L7.0 23.0 6.0 23.0 -7.0 23.0 -7.0 2.0 7.0 2.0" fill="url(#gradient0)" fill-rule="evenodd" stroke="none"/>
    <path d="M7.0 -21.0 L7.0 -19.0 -7.0 -19.0 -7.0 -21.0 7.0 -21.0" fill="url(#gradient1)" fill-rule="evenodd" stroke="none"/>
    <path d="M7.0 -19.0 L7.0 2.0 -7.0 2.0 -7.0 -19.0 7.0 -19.0" fill="url(#gradient2)" fill-rule="evenodd" stroke="none"/>
    <path d="M1.0 56.9 Q0.0 57.4 -1.0 56.9 L-1.0 54.9 1.0 54.9 1.0 56.9" fill="url(#gradient3)" fill-rule="evenodd" stroke="none"/>
    <path d="M4.95 56.05 Q7.0 58.1 7.0 61.0 7.0 63.9 4.95 65.95 2.9 68.0 0.0 68.0 -2.9 68.0 -4.95 65.95 -7.0 63.9 -7.0 61.0 -7.0 58.1 -4.95 56.05 -2.9 54.0 0.0 54.0 2.9 54.0 4.95 56.05 M4.5 61.0 Q4.5 59.15 3.15 57.8 1.85 56.5 0.0 56.5 -1.85 56.5 -3.2 57.8 -4.5 59.15 -4.5 61.0 -4.5 62.85 -3.2 64.15 -1.85 65.5 0.0 65.5 1.85 65.5 3.15 64.15 4.5 62.85 4.5 61.0" fill="url(#gradient4)" fill-rule="evenodd" stroke="none"/>
    <path d="M2.0 33.0 L2.0 51.0 0.0 51.0 -2.0 51.0 -2.0 33.0 2.0 33.0 M2.0 7.0 L2.0 23.0 -2.0 23.0 -2.0 7.0 2.0 7.0" fill="url(#gradient5)" fill-rule="evenodd" stroke="none"/>
    <path d="M-2.0 33.0 L-3.0 33.0 -4.0 30.0 4.0 30.0 3.0 33.0 2.0 33.0 -2.0 33.0" fill="url(#gradient6)" fill-rule="evenodd" stroke="none"/>
    <path d="M2.0 51.0 Q2.05 53.15 3.05 53.85 3.8 54.4 3.65 55.0 L0.0 55.0 -3.65 55.0 Q-3.8 54.4 -3.05 53.85 -2.05 53.15 -2.0 51.0 L0.0 51.0 2.0 51.0" fill="url(#gradient7)" fill-rule="evenodd" stroke="none"/>
    <path d="M-7.0 3.0 L-7.0 1.0 7.0 1.0 7.0 3.0 -7.0 3.0" fill="url(#gradient8)" fill-rule="evenodd" stroke="none"/>
    <path d="M7.0 3.0 L7.0 5.0 -7.0 5.0 -7.0 3.0 7.0 3.0" fill="url(#gradient9)" fill-rule="evenodd" stroke="none"/>
    <path d="M7.0 5.0 L5.0 7.0 2.0 7.0 -2.0 7.0 -5.0 7.0 -7.0 5.0 7.0 5.0" fill="url(#gradient10)" fill-rule="evenodd" stroke="none"/>
    <path d="M8.0 29.0 L6.0 30.0 -6.0 30.0 -8.0 29.0 8.0 29.0" fill="url(#gradient11)" fill-rule="evenodd" stroke="none"/>
    <path d="M-11.0 27.0 L11.0 27.0 12.0 27.0 Q12.4 27.0 12.7 27.3 L13.0 28.0 12.7 28.7 12.0 29.0 8.0 29.0 -8.0 29.0 -12.0 29.0 -12.7 28.7 -13.0 28.0 -12.7 27.3 Q-12.4 27.0 -12.0 27.0 L-11.0 27.0" fill="url(#gradient12)" fill-rule="evenodd" stroke="none"/>
    <path d="M-11.0 27.0 Q-9.75 26.65 -8.9 25.45 -8.05 24.25 -8.0 23.0 L0.0 23.0 8.0 23.0 Q8.05 24.25 8.9 25.45 9.75 26.65 11.0 27.0 L-11.0 27.0" fill="url(#gradient13)" fill-rule="evenodd" stroke="none"/>
    <path d="M-4.0 -28.0 L0.0 -28.0 4.0 -28.0 5.0 -28.0 Q5.85 -26.3 8.0 -25.0 L-8.0 -25.0 Q-5.85 -26.3 -5.0 -28.0 L-4.0 -28.0" fill="url(#gradient14)" fill-rule="evenodd" stroke="none"/>
    <path d="M3.0 -34.0 L-3.0 -34.0 -1.0 -36.0 1.0 -36.0 3.0 -34.0" fill="url(#gradient15)" fill-rule="evenodd" stroke="none"/>
    <path d="M-8.0 -25.0 L8.0 -25.0 9.0 -25.0 8.0 -21.0 -8.0 -21.0 -9.0 -25.0 -8.0 -25.0" fill="url(#gradient16)" fill-rule="evenodd" stroke="none"/>
    <path d="M-1.0 -36.0 L-1.0 -65.0 1.0 -67.0 1.0 -36.0 -1.0 -36.0" fill="url(#gradient17)" fill-rule="evenodd" stroke="none"/>
    <path d="M4.0 -28.0 L0.0 -28.0 -4.0 -28.0 Q-2.8 -28.75 -2.4 -31.0 -2.05 -33.25 -3.0 -34.0 L3.0 -34.0 Q2.05 -33.25 2.4 -31.0 2.8 -28.75 4.0 -28.0" fill="url(#gradient18)" fill-rule="evenodd" stroke="none"/>
    <path d="M7.0 -20.0 L-7.0 -20.0 -7.0 -21.0 7.0 -21.0 7.0 -20.0 M3.0 -32.0 L-3.0 -32.0 -3.0 -34.0 3.0 -34.0 3.0 -32.0 M5.0 -28.0 L-5.0 -28.0 -5.0 -29.0 5.0 -29.0 5.0 -28.0 M-2.0 33.0 L2.0 33.0 2.0 34.0 -2.0 34.0 -2.0 33.0 M-2.0 7.0 L2.0 7.0 2.0 9.0 -2.0 9.0 -2.0 7.0 M-4.0 30.0 L4.0 30.0 4.0 31.0 -4.0 31.0 -4.0 30.0" fill="#000000" fill-opacity="0.2" fill-rule="evenodd" stroke="none"/>
    <path d="M-3.0 -21.0 L-2.0 -21.0 -2.0 23.0 -3.0 23.0 -3.0 -21.0" fill="url(#gradient19)" fill-rule="evenodd" stroke="none"/>
    <path d="M-3.0 23.0 L-8.0 23.0 -8.0 -21.0 -3.0 -21.0 -3.0 23.0" fill="url(#gradient20)" fill-rule="evenodd" stroke="none"/>
    <path d="M4.0 -21.0 L4.0 23.0 1.0 23.0 1.0 -21.0 4.0 -21.0" fill="url(#gradient21)" fill-rule="evenodd" stroke="none"/>
  </g>
  <defs>
    <linearGradient gradientTransform="matrix(0.0098, 0.0, 0.0, 0.0269, 0.0, 1.0)" gradientUnits="userSpaceOnUse" id="gradient0" spreadMethod="pad" x1="-819.2" x2="819.2">
      <stop offset="0.0" stop-color="#757a8a"/>
      <stop offset="0.3686274509803922" stop-color="#9da2ae"/>
      <stop offset="0.6470588235294118" stop-color="#9a9dab"/>
      <stop offset="1.0" stop-color="#787e8d"/>
    </linearGradient>
    <radialGradient cx="0" cy="0" gradientTransform="matrix(0.0086, 0.0, 0.0, 0.0086, 0.0, -20.0)" gradientUnits="userSpaceOnUse" id="gradient1" r="819.2" spreadMethod="pad">
      <stop offset="0.14901960784313725" stop-color="#4d8873"/>
      <stop offset="0.6666666666666666" stop-color="#3b4c46"/>
      <stop offset="0.8509803921568627" stop-color="#3c4e47"/>
      <stop offset="1.0" stop-color="#4e6359"/>
    </radialGradient>
    <linearGradient gradientTransform="matrix(0.0085, 0.0, 0.0, 0.0128, 0.0, -8.5)" gradientUnits="userSpaceOnUse" id="gradient2" spreadMethod="pad" x1="-819.2" x2="819.2">
      <stop offset="0.0" stop-color="#7254b1"/>
      <stop offset="0.40784313725490196" stop-color="#b49ff4"/>
      <stop offset="0.6392156862745098" stop-color="#b49ff4"/>
      <stop offset="1.0" stop-color="#7254b1"/>
    </linearGradient>
    <radialGradient cx="0" cy="0" gradientTransform="matrix(0.0, -0.001, 0.0018, 0.0, 0.0, 56.4)" gradientUnits="userSpaceOnUse" id="gradient3" r="819.2" spreadMethod="pad">
      <stop offset="0.36470588235294116" stop-color="#85c7aa"/>
      <stop offset="0.6784313725490196" stop-color="#516f67"/>
      <stop offset="0.9882352941176471" stop-color="#809b92"/>
    </radialGradient>
    <radialGradient cx="0" cy="0" gradientTransform="matrix(0.0092, 0.0, 0.0, 0.0092, 0.0, 61.0)" gradientUnits="userSpaceOnUse" id="gradient4" r="819.2" spreadMethod="pad">
      <stop offset="0.6352941176470588" stop-color="#374843"/>
      <stop offset="0.6862745098039216" stop-color="#4d8873"/>
      <stop offset="0.7686274509803922" stop-color="#85c7aa"/>
      <stop offset="0.8392156862745098" stop-color="#4d8873"/>
      <stop offset="0.8941176470588236" stop-color="#2c4539"/>
      <stop offset="0.9764705882352941" stop-color="#41544d"/>
    </radialGradient>
    <linearGradient gradientTransform="matrix(0.0024, 0.0, 0.0, 0.011, 0.0, 42.0)" gradientUnits="userSpaceOnUse" id="gradient5" spreadMethod="pad" x1="-819.2" x2="819.2">
      <stop offset="0.0196078431372549" stop-color="#8a8451"/>
      <stop offset="0.10980392156862745" stop-color="#5b5b40"/>
      <stop offset="0.4588235294117647" stop-color="#99997b"/>
      <stop offset="0.5490196078431373" stop-color="#99997b"/>
      <stop offset="0.8588235294117647" stop-color="#5b5b40"/>
      <stop offset="0.9568627450980393" stop-color="#8a8451"/>
    </linearGradient>
    <linearGradient gradientTransform="matrix(0.0049, 0.0, 0.0, 0.0018, 0.0, 31.5)" gradientUnits="userSpaceOnUse" id="gradient6" spreadMethod="pad" x1="-819.2" x2="819.2">
      <stop offset="0.0" stop-color="#8f7912"/>
      <stop offset="0.1450980392156863" stop-color="#63561d"/>
      <stop offset="0.44313725490196076" stop-color="#b79d24"/>
      <stop offset="0.5568627450980392" stop-color="#b79d24"/>
      <stop offset="0.8431372549019608" stop-color="#63561d"/>
      <stop offset="1.0" stop-color="#8f7912"/>
    </linearGradient>
    <radialGradient cx="0" cy="0" fx="176.0" fy="0" gradientTransform="matrix(0.0, -0.01, 0.005, 0.0, -0.1, 56.0)" gradientUnits="userSpaceOnUse" id="gradient7" r="819.2" spreadMethod="pad">
      <stop offset="0.18823529411764706" stop-color="#85c7aa"/>
      <stop offset="0.4392156862745098" stop-color="#4d8873"/>
      <stop offset="0.7843137254901961" stop-color="#374843"/>
      <stop offset="1.0" stop-color="#4e6359"/>
    </radialGradient>
    <linearGradient gradientTransform="matrix(0.0085, 0.0, 0.0, 0.0012, 0.0, 2.0)" gradientUnits="userSpaceOnUse" id="gradient8" spreadMethod="pad" x1="-819.2" x2="819.2">
      <stop offset="0.0" stop-color="#524b49"/>
      <stop offset="0.1411764705882353" stop-color="#1a1717"/>
      <stop offset="0.4470588235294118" stop-color="#52463a"/>
      <stop offset="0.6" stop-color="#52463a"/>
      <stop offset="0.8823529411764706" stop-color="#1a1717"/>
      <stop offset="1.0" stop-color="#524b49"/>
    </linearGradient>
    <linearGradient gradientTransform="matrix(0.0084, 0.0, 0.0, 0.0018, 0.0, 3.5)" gradientUnits="userSpaceOnUse" id="gradient9" spreadMethod="pad" x1="-819.2" x2="819.2">
      <stop offset="0.0" stop-color="#8f7912"/>
      <stop offset="0.09803921568627451" stop-color="#63561d"/>
      <stop offset="0.44313725490196076" stop-color="#b79d24"/>
      <stop offset="0.5568627450980392" stop-color="#b79d24"/>
      <stop offset="0.9215686274509803" stop-color="#63561d"/>
      <stop offset="1.0" stop-color="#8f7912"/>
    </linearGradient>
    <linearGradient gradientTransform="matrix(0.0073, 0.0, 0.0, 0.0012, 0.0, 6.0)" gradientUnits="userSpaceOnUse" id="gradient10" spreadMethod="pad" x1="-819.2" x2="819.2">
      <stop offset="0.09803921568627451" stop-color="#4b3e16"/>
      <stop offset="0.44313725490196076" stop-color="#917c20"/>
      <stop offset="0.5568627450980392" stop-color="#917c20"/>
      <stop offset="0.9137254901960784" stop-color="#4b3e16"/>
    </linearGradient>
    <radialGradient cx="0" cy="0" gradientTransform="matrix(0.0098, 0.0, 0.0, 0.0098, 0.0, 29.5)" gradientUnits="userSpaceOnUse" id="gradient11" r="819.2" spreadMethod="pad">
      <stop offset="0.07058823529411765" stop-color="#6aaa94"/>
      <stop offset="0.2980392156862745" stop-color="#4d8873"/>
      <stop offset="0.5725490196078431" stop-color="#3b4c46"/>
      <stop offset="0.8509803921568627" stop-color="#3c4e47"/>
      <stop offset="1.0" stop-color="#4e6359"/>
    </radialGradient>
    <radialGradient cx="0" cy="0" gradientTransform="matrix(0.0, -0.004, 0.0166, -1.0E-4, 0.0, 28.0)" gradientUnits="userSpaceOnUse" id="gradient12" r="819.2" spreadMethod="pad">
      <stop offset="0.16470588235294117" stop-color="#85c7aa"/>
      <stop offset="0.49019607843137253" stop-color="#4d8873"/>
      <stop offset="0.8509803921568627" stop-color="#374843"/>
      <stop offset="1.0" stop-color="#668479"/>
    </radialGradient>
    <radialGradient cx="0" cy="0" gradientTransform="matrix(0.0, -0.0133, 0.0133, 0.0, 0.0, 22.8)" gradientUnits="userSpaceOnUse" id="gradient13" r="819.2" spreadMethod="pad">
      <stop offset="0.18823529411764706" stop-color="#85c7aa"/>
      <stop offset="0.43137254901960786" stop-color="#4d8873"/>
      <stop offset="0.7137254901960784" stop-color="#374843"/>
      <stop offset="1.0" stop-color="#4e6359"/>
    </radialGradient>
    <radialGradient cx="0" cy="0" gradientTransform="matrix(0.0103, 0.0, 0.0, 0.0103, 0.0, -27.9)" gradientUnits="userSpaceOnUse" id="gradient14" r="819.2" spreadMethod="pad">
      <stop offset="0.18823529411764706" stop-color="#85c7aa"/>
      <stop offset="0.43529411764705883" stop-color="#4d8873"/>
      <stop offset="0.7137254901960784" stop-color="#374843"/>
      <stop offset="1.0" stop-color="#4e6359"/>
    </radialGradient>
    <radialGradient cx="0" cy="0" gradientTransform="matrix(0.0042, 0.0, 0.0, 0.0096, 0.0, -35.9)" gradientUnits="userSpaceOnUse" id="gradient15" r="819.2" spreadMethod="pad">
      <stop offset="0.18823529411764706" stop-color="#85c7aa"/>
      <stop offset="0.43529411764705883" stop-color="#4d8873"/>
      <stop offset="0.7137254901960784" stop-color="#374843"/>
      <stop offset="1.0" stop-color="#4e6359"/>
    </radialGradient>
    <radialGradient cx="0" cy="0" gradientTransform="matrix(0.0114, 0.0, 0.0, 0.0165, 0.0, -24.9)" gradientUnits="userSpaceOnUse" id="gradient16" r="819.2" spreadMethod="pad">
      <stop offset="0.18823529411764706" stop-color="#85c7aa"/>
      <stop offset="0.44313725490196076" stop-color="#4d8873"/>
      <stop offset="0.7137254901960784" stop-color="#374843"/>
      <stop offset="1.0" stop-color="#4e6359"/>
    </radialGradient>
    <linearGradient gradientTransform="matrix(0.0012, 0.0, 0.0, 0.0189, 0.0, -51.5)" gradientUnits="userSpaceOnUse" id="gradient17" spreadMethod="pad" x1="-819.2" x2="819.2">
      <stop offset="0.0" stop-color="#555555"/>
      <stop offset="0.4117647058823529" stop-color="#b8b8b8"/>
      <stop offset="0.5764705882352941" stop-color="#b8b8b8"/>
      <stop offset="1.0" stop-color="#555555"/>
    </linearGradient>
    <radialGradient cx="0" cy="0" gradientTransform="matrix(0.0052, 0.0, 0.0, 0.014, 0.0, -28.3)" gradientUnits="userSpaceOnUse" id="gradient18" r="819.2" spreadMethod="pad">
      <stop offset="0.18823529411764706" stop-color="#85c7aa"/>
      <stop offset="0.4392156862745098" stop-color="#4d8873"/>
      <stop offset="0.7137254901960784" stop-color="#374843"/>
      <stop offset="1.0" stop-color="#4e6359"/>
    </radialGradient>
    <linearGradient gradientTransform="matrix(0.0073, 0.0, 0.0, 0.0269, 3.0, 1.0)" gradientUnits="userSpaceOnUse" id="gradient19" spreadMethod="pad" x1="-819.2" x2="819.2">
      <stop offset="0.39215686274509803" stop-color="#ffffff" stop-opacity="0.0"/>
      <stop offset="0.44313725490196076" stop-color="#ffffff" stop-opacity="0.8117647"/>
      <stop offset="0.615686274509804" stop-color="#ffffff" stop-opacity="0.7137255"/>
      <stop offset="0.6627450980392157" stop-color="#ffffff" stop-opacity="0.0"/>
    </linearGradient>
    <linearGradient gradientTransform="matrix(0.0031, 0.0, 0.0, 0.0269, -5.5, 1.0)" gradientUnits="userSpaceOnUse" id="gradient20" spreadMethod="pad" x1="-819.2" x2="819.2">
      <stop offset="0.00392156862745098" stop-color="#ffffff" stop-opacity="0.12156863"/>
      <stop offset="0.6235294117647059" stop-color="#ffffff" stop-opacity="0.2"/>
      <stop offset="0.6627450980392157" stop-color="#ffffff" stop-opacity="0.0"/>
    </linearGradient>
    <linearGradient gradientTransform="matrix(0.0, -0.0269, 0.0269, 0.0, 2.5, 1.0)" gradientUnits="userSpaceOnUse" id="gradient21" spreadMethod="pad" x1="-819.2" x2="819.2">
      <stop offset="0.00392156862745098" stop-color="#ffffff" stop-opacity="0.24313726"/>
      <stop offset="1.0" stop-color="#ffffff" stop-opacity="0.53333336"/>
    </linearGradient>
  </defs>
</svg>
