<?xml version="1.0" encoding="UTF-8" standalone="no"?>
<svg xmlns:xlink="http://www.w3.org/1999/xlink" height="240.0px" width="168.0px" xmlns="http://www.w3.org/2000/svg">
  <g transform="matrix(1.0, 0.0, 0.0, 1.0, 0.0, 0.0)">
    <path d="M165.5 0.5 Q167.5 0.5 167.5 2.5 L167.5 237.5 Q167.5 239.5 165.5 239.5 L2.5 239.5 Q0.5 239.5 0.5 237.5 L0.5 2.5 Q0.5 0.5 2.5 0.5 L165.5 0.5" fill="#c4c4c4" fill-rule="evenodd" stroke="none"/>
    <path d="M165.5 0.5 L2.5 0.5 Q0.5 0.5 0.5 2.5 L0.5 237.5 Q0.5 239.5 2.5 239.5 L165.5 239.5 Q167.5 239.5 167.5 237.5 L167.5 2.5 Q167.5 0.5 165.5 0.5 Z" fill="none" stroke="#000000" stroke-linecap="round" stroke-linejoin="round" stroke-width="1.0"/>
  </g>
</svg>
