<?xml version="1.0" encoding="UTF-8" standalone="no"?>
<svg xmlns:xlink="http://www.w3.org/1999/xlink" height="160.0px" width="23.0px" xmlns="http://www.w3.org/2000/svg">
  <g transform="matrix(1.0, 0.0, 0.0, 1.0, 11.5, 79.5)">
    <path d="M2.2 -78.7 Q2.9 -79.45 3.9 -79.5 4.9 -79.55 5.65 -78.85 10.05 -75.05 11.45 -68.5 L11.3 -67.0 Q11.0 -66.3 10.3 -65.85 9.65 -65.45 8.85 -65.5 L8.5 -65.55 Q8.6 -58.5 9.55 -51.4 10.65 -42.9 10.5 -40.85 L10.5 -40.8 Q10.3 -38.6 8.85 -37.1 L7.5 -36.1 7.5 -35.0 Q7.5 -33.95 6.8 -33.2 L6.5 -32.95 6.5 -30.0 Q6.5 -28.95 5.8 -28.2 5.25 -27.7 4.6 -27.55 4.9 -27.1 5.0 -25.85 L5.0 -25.8 Q5.2 -22.8 6.0 -21.55 L6.25 -21.1 6.45 -20.65 6.5 -19.8 6.5 -19.6 5.8 -18.2 4.5 -16.95 4.5 44.0 4.8 44.25 Q5.5 44.95 5.5 46.0 L5.5 49.05 5.5 49.35 Q5.4 50.15 4.8 50.8 L4.15 51.25 4.45 60.65 Q4.55 64.9 4.9 67.65 L4.9 67.8 5.3 70.85 5.8 71.25 6.4 72.35 6.5 73.0 6.5 76.0 Q6.5 77.05 5.8 77.8 5.05 78.5 4.0 78.5 L3.75 78.5 1.4 80.1 Q0.75 80.5 0.0 80.5 -0.75 80.5 -1.35 80.1 L-3.7 78.5 -4.0 78.5 Q-5.05 78.5 -5.75 77.8 -6.5 77.05 -6.5 76.0 L-6.5 73.0 -6.4 72.35 -5.75 71.25 -5.3 70.85 -4.85 67.8 -4.85 67.65 -4.45 60.65 -4.15 51.25 -4.75 50.8 Q-5.35 50.15 -5.45 49.35 L-5.5 49.05 -5.5 46.0 Q-5.5 44.95 -4.75 44.25 L-4.5 44.0 -4.5 -16.95 -5.75 -18.2 Q-6.45 -18.9 -6.5 -19.8 L-6.4 -20.7 -6.25 -21.1 -5.95 -21.55 Q-5.2 -22.8 -5.0 -25.8 L-5.0 -25.85 Q-4.9 -27.1 -4.6 -27.55 -5.25 -27.7 -5.75 -28.2 -6.5 -28.95 -6.5 -30.0 L-6.5 -32.95 -6.75 -33.2 Q-7.4 -33.85 -7.45 -34.7 L-7.5 -35.0 -7.5 -36.1 -8.8 -37.1 Q-10.3 -38.6 -10.5 -40.8 L-10.5 -40.85 Q-10.65 -42.9 -9.5 -51.4 -8.6 -58.5 -8.5 -65.55 L-8.85 -65.5 Q-9.65 -65.45 -10.3 -65.85 -11.0 -66.3 -11.3 -67.0 L-11.45 -68.5 Q-10.05 -75.05 -5.65 -78.85 -4.9 -79.55 -3.9 -79.5 -2.9 -79.45 -2.2 -78.7 -1.5 -78.0 -1.5 -77.0 L-1.5 -46.35 Q-0.95 -46.85 0.05 -46.85 1.05 -46.85 1.5 -46.35 L1.5 -77.0 Q1.5 -78.0 2.2 -78.7" fill="#000000" fill-rule="evenodd" stroke="none"/>
    <path d="M4.0 76.0 L-4.0 76.0 -4.0 73.0 4.0 73.0 4.0 76.0" fill="url(#gradient0)" fill-rule="evenodd" stroke="none"/>
    <path d="M0.0 78.0 L-3.0 76.0 3.0 76.0 0.0 78.0" fill="url(#gradient1)" fill-rule="evenodd" stroke="none"/>
    <path d="M3.0 49.0 Q1.75 49.65 1.95 60.7 2.05 65.15 2.4 68.0 L-2.4 68.0 Q-2.05 65.15 -1.95 60.7 -1.75 49.65 -3.0 49.0 L0.0 49.0 3.0 49.0" fill="url(#gradient2)" fill-rule="evenodd" stroke="none"/>
    <path d="M4.0 73.0 L0.0 73.0 -4.0 73.0 Q-2.9 72.35 -2.4 68.0 L2.4 68.0 Q2.9 72.35 4.0 73.0" fill="url(#gradient3)" fill-rule="evenodd" stroke="none"/>
    <path d="M3.0 49.0 L-3.0 49.0 -3.0 46.0 3.0 46.0 3.0 49.0" fill="url(#gradient4)" fill-rule="evenodd" stroke="none"/>
    <path d="M2.0 43.0 L-2.0 43.0 -2.0 -16.0 2.0 -16.0 2.0 43.0" fill="url(#gradient5)" fill-rule="evenodd" stroke="none"/>
    <path d="M2.0 -16.0 L-2.0 -16.0 -2.0 -18.0 2.0 -18.0 2.0 -16.0" fill="url(#gradient6)" fill-rule="evenodd" stroke="none"/>
    <path d="M2.0 46.0 L-2.0 46.0 -2.0 44.0 -2.0 43.0 2.0 43.0 2.0 44.0 2.0 46.0" fill="url(#gradient7)" fill-rule="evenodd" stroke="none"/>
    <path d="M2.0 -18.0 L-2.0 -18.0 -4.0 -20.0 4.0 -20.0 2.0 -18.0" fill="url(#gradient8)" fill-rule="evenodd" stroke="none"/>
    <path d="M4.0 -20.0 L0.0 -20.0 -4.0 -20.0 Q-2.75 -21.6 -2.5 -25.65 -2.2 -29.55 -3.0 -30.0 L0.0 -30.0 3.0 -30.0 Q2.2 -29.55 2.5 -25.65 2.75 -21.6 4.0 -20.0" fill="url(#gradient9)" fill-rule="evenodd" stroke="none"/>
    <path d="M4.0 -30.0 L-4.0 -30.0 -4.0 -33.0 4.0 -33.0 4.0 -30.0" fill="url(#gradient10)" fill-rule="evenodd" stroke="none"/>
    <path d="M3.0 -33.0 L-3.0 -33.0 -3.0 -34.0 3.0 -34.0 3.0 -33.0" fill="url(#gradient11)" fill-rule="evenodd" stroke="none"/>
    <path d="M5.0 -35.0 L3.0 -34.0 -3.0 -34.0 -5.0 -35.0 5.0 -35.0" fill="url(#gradient12)" fill-rule="evenodd" stroke="none"/>
    <path d="M5.0 -35.0 L-5.0 -35.0 -5.0 -37.0 5.0 -37.0 5.0 -35.0" fill="url(#gradient13)" fill-rule="evenodd" stroke="none"/>
    <path d="M0.0 -37.0 L-1.0 -37.0 Q-1.35 -38.35 -2.15 -39.35 -3.0 -40.35 -3.75 -40.3 -4.5 -40.25 -5.0 -38.0 -6.15 -38.0 -7.05 -38.9 -7.9 -39.75 -8.0 -41.0 -8.1 -42.95 -7.05 -51.1 -5.9 -60.05 -6.0 -69.0 -8.0 -68.8 -9.0 -68.0 -7.8 -73.65 -4.0 -77.0 L-4.0 -46.0 Q-3.9 -44.25 -2.85 -43.2 -1.75 -42.1 -0.1 -42.0 L0.0 -42.0 0.0 -37.0" fill="url(#gradient14)" fill-rule="evenodd" stroke="none"/>
    <path d="M6.0 -69.0 Q5.9 -60.05 7.05 -51.1 8.1 -42.95 8.0 -41.0 7.9 -39.75 7.05 -38.9 6.15 -38.0 5.0 -38.0 4.5 -40.25 3.75 -40.3 3.0 -40.35 2.15 -39.35 1.35 -38.35 1.0 -37.0 L0.0 -37.0 0.0 -42.0 0.1 -42.0 Q1.75 -42.1 2.85 -43.2 3.9 -44.25 4.0 -46.0 L4.0 -77.0 Q7.8 -73.65 9.0 -68.0 8.0 -68.8 6.0 -69.0" fill="url(#gradient15)" fill-rule="evenodd" stroke="none"/>
    <path d="M-3.75 -40.3 Q-4.5 -40.25 -5.0 -38.0 -5.6 -39.1 -5.2 -40.55 -4.85 -42.0 -4.1 -41.8 -3.45 -41.6 -1.0 -40.0 L-1.0 -37.0 Q-1.35 -38.35 -2.15 -39.35 -3.0 -40.35 -3.75 -40.3" fill="url(#gradient16)" fill-rule="evenodd" stroke="none"/>
    <path d="M5.15 -40.55 Q5.55 -39.1 4.95 -38.0 4.45 -40.25 3.7 -40.3 2.95 -40.35 2.15 -39.35 1.35 -38.35 1.0 -37.0 L1.0 -40.0 Q3.4 -41.6 4.05 -41.8 4.8 -42.0 5.15 -40.55" fill="url(#gradient17)" fill-rule="evenodd" stroke="none"/>
    <path d="M-4.75 -58.85 L-5.25 -42.35 Q-5.4 -41.45 -5.9 -41.65 -6.4 -41.85 -6.25 -43.25 L-5.15 -58.9 -4.75 -58.85" fill="url(#gradient18)" fill-rule="evenodd" stroke="none"/>
    <path d="M4.75 -58.85 L5.15 -58.9 6.25 -43.25 Q6.4 -41.85 5.9 -41.65 5.4 -41.45 5.25 -42.35 L4.75 -58.85" fill="url(#gradient19)" fill-rule="evenodd" stroke="none"/>
    <path d="M0.0 -44.5 Q1.2 -44.6 1.9 -41.75 2.4 -39.75 2.5 -37.0 L1.5 -37.0 Q1.4 -39.6 0.95 -41.5 0.5 -43.4 0.0 -43.5 -0.5 -43.4 -0.95 -41.5 L-0.95 -41.55 Q-1.4 -39.6 -1.45 -37.0 L-2.45 -37.0 Q-2.4 -39.7 -1.95 -41.75 L-1.9 -41.75 Q-1.2 -44.6 0.0 -44.5" fill="#000000" fill-opacity="0.2" fill-rule="evenodd" stroke="none"/>
    <path d="M1.4 -41.65 Q1.9 -39.65 2.0 -37.0 L-1.95 -37.0 Q-1.9 -39.65 -1.45 -41.65 -0.85 -44.0 0.0 -44.0 0.85 -44.0 1.4 -41.65" fill="url(#gradient20)" fill-rule="evenodd" stroke="none"/>
    <path d="M2.0 -15.0 L-2.0 -15.0 -2.0 -16.0 2.0 -16.0 2.0 -15.0 M4.0 -29.0 L-4.0 -29.0 -4.0 -30.0 4.0 -30.0 4.0 -29.0 M3.0 -33.0 L-3.0 -33.0 -5.0 -35.0 5.0 -35.0 3.0 -33.0 M2.0 -17.0 L-2.0 -17.0 -2.0 -18.0 2.0 -18.0 2.0 -17.0 M-2.0 45.0 L2.0 45.0 2.0 46.0 -2.0 46.0 -2.0 45.0 M-2.0 42.0 L2.0 42.0 2.0 43.0 -2.0 43.0 -2.0 42.0 M-4.0 76.0 L4.0 76.0 4.0 77.0 -4.0 77.0 -4.0 76.0" fill="#000000" fill-opacity="0.2" fill-rule="evenodd" stroke="none"/>
  </g>
  <defs>
    <linearGradient gradientTransform="matrix(0.0049, 0.0, 0.0, 0.0018, 0.0, 74.5)" gradientUnits="userSpaceOnUse" id="gradient0" spreadMethod="pad" x1="-819.2" x2="819.2">
      <stop offset="0.0" stop-color="#86774f"/>
      <stop offset="0.06666666666666667" stop-color="#716440"/>
      <stop offset="0.27058823529411763" stop-color="#a79b65"/>
      <stop offset="0.4470588235294118" stop-color="#d8d2a7"/>
      <stop offset="0.47058823529411764" stop-color="#d8d2a7"/>
      <stop offset="0.5372549019607843" stop-color="#d8d2a7"/>
      <stop offset="0.7176470588235294" stop-color="#a9a263"/>
      <stop offset="0.9372549019607843" stop-color="#6c613e"/>
      <stop offset="1.0" stop-color="#86774f"/>
    </linearGradient>
    <radialGradient cx="0" cy="0" gradientTransform="matrix(0.0034, 0.0, 0.0, 0.008, 0.0, 78.0)" gradientUnits="userSpaceOnUse" id="gradient1" r="819.2" spreadMethod="pad">
      <stop offset="0.023529411764705882" stop-color="#efebdc"/>
      <stop offset="0.23921568627450981" stop-color="#d8d2a7"/>
      <stop offset="0.43529411764705883" stop-color="#a9a263"/>
      <stop offset="0.7098039215686275" stop-color="#6c613e"/>
      <stop offset="0.9725490196078431" stop-color="#3e3424"/>
    </radialGradient>
    <linearGradient gradientTransform="matrix(0.0037, 0.0, 0.0, 0.0116, 0.0, 58.5)" gradientUnits="userSpaceOnUse" id="gradient2" spreadMethod="pad" x1="-819.2" x2="819.2">
      <stop offset="0.0" stop-color="#584b34"/>
      <stop offset="0.20392156862745098" stop-color="#716440"/>
      <stop offset="0.33725490196078434" stop-color="#a79b65"/>
      <stop offset="0.4666666666666667" stop-color="#d8d2a7"/>
      <stop offset="0.5411764705882353" stop-color="#d8d2a7"/>
      <stop offset="0.6666666666666666" stop-color="#a9a263"/>
      <stop offset="0.796078431372549" stop-color="#6c613e"/>
      <stop offset="1.0" stop-color="#584b34"/>
    </linearGradient>
    <linearGradient gradientTransform="matrix(0.0049, 0.0, 0.0, 0.0031, 0.0, 70.5)" gradientUnits="userSpaceOnUse" id="gradient3" spreadMethod="pad" x1="-819.2" x2="819.2">
      <stop offset="0.16862745098039217" stop-color="#442e17"/>
      <stop offset="0.3058823529411765" stop-color="#6d4a27"/>
      <stop offset="0.4588235294117647" stop-color="#9d7237"/>
      <stop offset="0.5568627450980392" stop-color="#9d7237"/>
      <stop offset="0.7137254901960784" stop-color="#6d4a27"/>
      <stop offset="0.8274509803921568" stop-color="#442e17"/>
    </linearGradient>
    <linearGradient gradientTransform="matrix(0.0037, 0.0, 0.0, 0.0018, 0.0, 47.5)" gradientUnits="userSpaceOnUse" id="gradient4" spreadMethod="pad" x1="-819.2" x2="819.2">
      <stop offset="0.0" stop-color="#86774f"/>
      <stop offset="0.06666666666666667" stop-color="#716440"/>
      <stop offset="0.27058823529411763" stop-color="#a79b65"/>
      <stop offset="0.4117647058823529" stop-color="#d8d2a7"/>
      <stop offset="0.6" stop-color="#d8d2a7"/>
      <stop offset="0.7176470588235294" stop-color="#a9a263"/>
      <stop offset="0.9372549019607843" stop-color="#6c613e"/>
      <stop offset="1.0" stop-color="#86774f"/>
    </linearGradient>
    <linearGradient gradientTransform="matrix(0.0024, 0.0, 0.0, 0.0372, 0.0, 12.5)" gradientUnits="userSpaceOnUse" id="gradient5" spreadMethod="pad" x1="-819.2" x2="819.2">
      <stop offset="0.0" stop-color="#5a4367"/>
      <stop offset="0.08627450980392157" stop-color="#372d3e"/>
      <stop offset="0.27058823529411763" stop-color="#5f4565"/>
      <stop offset="0.44313725490196076" stop-color="#74567e"/>
      <stop offset="0.5372549019607843" stop-color="#74567e"/>
      <stop offset="0.7176470588235294" stop-color="#5f4565"/>
      <stop offset="0.8588235294117647" stop-color="#372d3e"/>
      <stop offset="1.0" stop-color="#5a4367"/>
    </linearGradient>
    <linearGradient gradientTransform="matrix(0.0024, 0.0, 0.0, 0.0012, 0.0, -17.0)" gradientUnits="userSpaceOnUse" id="gradient6" spreadMethod="pad" x1="-819.2" x2="819.2">
      <stop offset="0.0" stop-color="#86774f"/>
      <stop offset="0.06666666666666667" stop-color="#716440"/>
      <stop offset="0.27058823529411763" stop-color="#a79b65"/>
      <stop offset="0.4196078431372549" stop-color="#d0c799"/>
      <stop offset="0.5607843137254902" stop-color="#d0c799"/>
      <stop offset="0.7176470588235294" stop-color="#a9a263"/>
      <stop offset="0.9372549019607843" stop-color="#6c613e"/>
      <stop offset="1.0" stop-color="#86774f"/>
    </linearGradient>
    <linearGradient gradientTransform="matrix(0.0024, 0.0, 0.0, 0.0018, 0.0, 44.5)" gradientUnits="userSpaceOnUse" id="gradient7" spreadMethod="pad" x1="-819.2" x2="819.2">
      <stop offset="0.0" stop-color="#86774f"/>
      <stop offset="0.06666666666666667" stop-color="#716440"/>
      <stop offset="0.27058823529411763" stop-color="#a79b65"/>
      <stop offset="0.4470588235294118" stop-color="#d8d2a7"/>
      <stop offset="0.47058823529411764" stop-color="#d8d2a7"/>
      <stop offset="0.5372549019607843" stop-color="#d8d2a7"/>
      <stop offset="0.7176470588235294" stop-color="#a9a263"/>
      <stop offset="0.9372549019607843" stop-color="#6c613e"/>
      <stop offset="1.0" stop-color="#86774f"/>
    </linearGradient>
    <radialGradient cx="0" cy="0" gradientTransform="matrix(0.0049, 0.0, 0.0, 0.005, 0.0, -20.0)" gradientUnits="userSpaceOnUse" id="gradient8" r="819.2" spreadMethod="pad">
      <stop offset="0.11372549019607843" stop-color="#cecaa8"/>
      <stop offset="0.23921568627450981" stop-color="#beb887"/>
      <stop offset="0.36470588235294116" stop-color="#a9a263"/>
      <stop offset="0.6470588235294118" stop-color="#6c613e"/>
      <stop offset="0.8588235294117647" stop-color="#3e3424"/>
    </radialGradient>
    <radialGradient cx="0" cy="0" gradientTransform="matrix(0.0063, 0.0, 0.0, 0.022, 0.0, -20.0)" gradientUnits="userSpaceOnUse" id="gradient9" r="819.2" spreadMethod="pad">
      <stop offset="0.10588235294117647" stop-color="#efebdc"/>
      <stop offset="0.22745098039215686" stop-color="#d8d2a7"/>
      <stop offset="0.36470588235294116" stop-color="#a9a263"/>
      <stop offset="0.6" stop-color="#6c613e"/>
      <stop offset="0.8588235294117647" stop-color="#3e3424"/>
    </radialGradient>
    <linearGradient gradientTransform="matrix(0.0049, 0.0, 0.0, 0.0018, 0.0, -31.5)" gradientUnits="userSpaceOnUse" id="gradient10" spreadMethod="pad" x1="-819.2" x2="819.2">
      <stop offset="0.0" stop-color="#86774f"/>
      <stop offset="0.06666666666666667" stop-color="#716440"/>
      <stop offset="0.27058823529411763" stop-color="#a79b65"/>
      <stop offset="0.403921568627451" stop-color="#d8d2a7"/>
      <stop offset="0.5764705882352941" stop-color="#d8d2a7"/>
      <stop offset="0.7176470588235294" stop-color="#a9a263"/>
      <stop offset="0.9372549019607843" stop-color="#6c613e"/>
      <stop offset="1.0" stop-color="#86774f"/>
    </linearGradient>
    <linearGradient gradientTransform="matrix(0.0037, 0.0, 0.0, 6.0E-4, 0.0, -33.5)" gradientUnits="userSpaceOnUse" id="gradient11" spreadMethod="pad" x1="-819.2" x2="819.2">
      <stop offset="0.0" stop-color="#86774f"/>
      <stop offset="0.06666666666666667" stop-color="#716440"/>
      <stop offset="0.27058823529411763" stop-color="#a79b65"/>
      <stop offset="0.4666666666666667" stop-color="#d8d2a7"/>
      <stop offset="0.5254901960784314" stop-color="#d8d2a7"/>
      <stop offset="0.7176470588235294" stop-color="#a9a263"/>
      <stop offset="0.9372549019607843" stop-color="#6c613e"/>
      <stop offset="1.0" stop-color="#86774f"/>
    </linearGradient>
    <linearGradient gradientTransform="matrix(0.0049, 0.0, 0.0, 0.0018, 0.0, -35.5)" gradientUnits="userSpaceOnUse" id="gradient12" spreadMethod="pad" x1="-819.2" x2="819.2">
      <stop offset="0.0" stop-color="#716440"/>
      <stop offset="0.23921568627450981" stop-color="#a79b65"/>
      <stop offset="0.3803921568627451" stop-color="#d8d2a7"/>
      <stop offset="0.6039215686274509" stop-color="#d8d2a7"/>
      <stop offset="0.7568627450980392" stop-color="#a9a263"/>
      <stop offset="1.0" stop-color="#6c613e"/>
    </linearGradient>
    <linearGradient gradientTransform="matrix(0.0061, 0.0, 0.0, 0.0018, 0.0, -35.5)" gradientUnits="userSpaceOnUse" id="gradient13" spreadMethod="pad" x1="-819.2" x2="819.2">
      <stop offset="0.0" stop-color="#86774f"/>
      <stop offset="0.06666666666666667" stop-color="#716440"/>
      <stop offset="0.23921568627450981" stop-color="#a79b65"/>
      <stop offset="0.3803921568627451" stop-color="#d8d2a7"/>
      <stop offset="0.6039215686274509" stop-color="#d8d2a7"/>
      <stop offset="0.7568627450980392" stop-color="#a9a263"/>
      <stop offset="0.9372549019607843" stop-color="#6c613e"/>
      <stop offset="1.0" stop-color="#86774f"/>
    </linearGradient>
    <radialGradient cx="0" cy="0" fx="-1561.6000000000001" fy="0" gradientTransform="matrix(0.0209, -0.0034, 0.0062, 0.0383, -8.4, -69.2)" gradientUnits="userSpaceOnUse" id="gradient14" r="819.2" spreadMethod="pad">
      <stop offset="0.1568627450980392" stop-color="#ffffff"/>
      <stop offset="0.23529411764705882" stop-color="#d9d9d9"/>
      <stop offset="0.3058823529411765" stop-color="#b0b0b0"/>
      <stop offset="0.8784313725490196" stop-color="#dfdfdf"/>
      <stop offset="0.9725490196078431" stop-color="#a6a6a6"/>
    </radialGradient>
    <radialGradient cx="0" cy="0" fx="-1561.6000000000001" fy="0" gradientTransform="matrix(-0.0209, -0.0034, -0.0062, 0.0383, 8.4, -69.2)" gradientUnits="userSpaceOnUse" id="gradient15" r="819.2" spreadMethod="pad">
      <stop offset="0.1568627450980392" stop-color="#ffffff"/>
      <stop offset="0.23529411764705882" stop-color="#d9d9d9"/>
      <stop offset="0.3058823529411765" stop-color="#b0b0b0"/>
      <stop offset="0.8784313725490196" stop-color="#dfdfdf"/>
      <stop offset="0.9725490196078431" stop-color="#a6a6a6"/>
    </radialGradient>
    <linearGradient gradientTransform="matrix(0.0025, -0.0013, 0.0013, 0.0026, -3.25, -39.25)" gradientUnits="userSpaceOnUse" id="gradient16" spreadMethod="pad" x1="-819.2" x2="819.2">
      <stop offset="0.023529411764705882" stop-color="#787878" stop-opacity="0.22352941"/>
      <stop offset="0.4588235294117647" stop-color="#9f9f9f"/>
      <stop offset="0.5294117647058824" stop-color="#808080"/>
      <stop offset="0.6627450980392157" stop-color="#868686"/>
      <stop offset="0.9254901960784314" stop-color="#bbbbbb"/>
    </linearGradient>
    <linearGradient gradientTransform="matrix(-0.0024, -0.0013, -0.0013, 0.0026, 3.2, -39.25)" gradientUnits="userSpaceOnUse" id="gradient17" spreadMethod="pad" x1="-819.2" x2="819.2">
      <stop offset="0.023529411764705882" stop-color="#787878" stop-opacity="0.22352941"/>
      <stop offset="0.4588235294117647" stop-color="#9f9f9f"/>
      <stop offset="0.5294117647058824" stop-color="#808080"/>
      <stop offset="0.6627450980392157" stop-color="#868686"/>
      <stop offset="0.9254901960784314" stop-color="#bbbbbb"/>
    </linearGradient>
    <linearGradient gradientTransform="matrix(0.0, -0.0095, 0.0106, 0.0, -5.6, -50.2)" gradientUnits="userSpaceOnUse" id="gradient18" spreadMethod="pad" x1="-819.2" x2="819.2">
      <stop offset="0.37254901960784315" stop-color="#ffffff"/>
      <stop offset="0.9921568627450981" stop-color="#b9b9b9" stop-opacity="0.0"/>
    </linearGradient>
    <linearGradient gradientTransform="matrix(0.0, -0.0095, -0.0106, 0.0, 5.6, -50.2)" gradientUnits="userSpaceOnUse" id="gradient19" spreadMethod="pad" x1="-819.2" x2="819.2">
      <stop offset="0.37254901960784315" stop-color="#ffffff"/>
      <stop offset="0.9921568627450981" stop-color="#b9b9b9" stop-opacity="0.0"/>
    </linearGradient>
    <radialGradient cx="0" cy="0" gradientTransform="matrix(0.0034, 0.0, 0.0, 0.0112, 0.0, -37.0)" gradientUnits="userSpaceOnUse" id="gradient20" r="819.2" spreadMethod="pad">
      <stop offset="0.1803921568627451" stop-color="#efebdc"/>
      <stop offset="0.2823529411764706" stop-color="#d8d2a7"/>
      <stop offset="0.43529411764705883" stop-color="#b5aa7b"/>
      <stop offset="0.7333333333333333" stop-color="#66573c"/>
    </radialGradient>
  </defs>
</svg>
