<?xml version="1.0" encoding="UTF-8" standalone="no"?>
<svg xmlns:xlink="http://www.w3.org/1999/xlink" height="69.0px" width="69.0px" xmlns="http://www.w3.org/2000/svg">
  <g transform="matrix(1.0, 0.0, 0.0, 1.0, 34.5, 34.5)">
    <path d="M28.1 -30.55 Q34.65 -26.2 34.5 -20.0 L34.5 20.0 Q34.65 26.2 28.1 30.55 22.3 34.5 14.1 34.5 L-24.0 34.5 -24.85 34.35 Q-28.4 33.5 -31.6 32.0 L-32.95 31.35 -33.7 30.8 -33.85 30.65 -34.05 30.45 -34.1 30.35 -34.15 30.3 -34.35 29.85 -34.35 29.8 -34.45 29.5 -34.5 28.8 -34.5 -8.0 Q-34.5 -9.05 -33.75 -9.75 -33.05 -10.5 -32.0 -10.5 L-6.5 -10.5 -6.5 -20.0 Q-6.65 -26.2 -0.15 -30.55 L-0.1 -30.55 Q5.75 -34.5 14.0 -34.5 22.25 -34.5 28.1 -30.55" fill="#000000" fill-rule="evenodd" stroke="none"/>
    <path d="M-32.0 29.0 L-32.0 -8.0 14.0 -8.0 14.0 32.0 6.2 32.0 -24.0 32.0 -32.0 29.0" fill="url(#gradient0)" fill-rule="evenodd" stroke="none"/>
    <path d="M23.7 -30.15 L26.7 -28.5 Q32.0 -24.95 32.0 -20.0 L32.0 20.0 -4.0 20.0 -4.0 -20.0 Q-4.0 -24.95 1.25 -28.5 6.55 -32.0 14.0 -32.0 19.3 -32.0 23.5 -30.2 L23.7 -30.15" fill="url(#gradient1)" fill-rule="evenodd" stroke="none"/>
    <path d="M32.0 20.0 Q32.0 24.95 26.7 28.45 21.45 32.0 14.0 32.0 6.55 32.0 1.25 28.45 -4.0 24.95 -4.0 20.0 -4.0 15.05 1.25 11.5 6.55 8.0 14.0 8.0 21.45 8.0 26.7 11.5 32.0 15.05 32.0 20.0" fill="url(#gradient2)" fill-rule="evenodd" stroke="none"/>
    <path d="M14.0 22.2 L12.75 21.85 Q12.2 21.5 12.2 21.0 12.2 20.5 12.75 20.15 13.25 19.8 14.0 19.8 14.75 19.8 15.25 20.15 15.8 20.5 15.8 21.0 15.8 21.5 15.25 21.85 14.75 22.2 14.0 22.2 Z" fill="none" stroke="url(#gradient3)" stroke-linecap="round" stroke-linejoin="round" stroke-width="0.25"/>
    <path d="M24.0 14.2 Q28.4 17.0 28.4 21.0 28.4 25.0 24.0 27.8" fill="none" stroke="url(#gradient4)" stroke-linecap="round" stroke-linejoin="round" stroke-width="0.25"/>
    <path d="M24.0 27.8 Q20.0 30.6 14.0 30.6 8.0 30.6 4.0 27.8" fill="none" stroke="url(#gradient5)" stroke-linecap="round" stroke-linejoin="round" stroke-width="0.25"/>
    <path d="M4.0 27.8 Q-0.4 25.0 -0.4 21.0 -0.4 17.0 4.0 14.2" fill="none" stroke="url(#gradient6)" stroke-linecap="round" stroke-linejoin="round" stroke-width="0.25"/>
    <path d="M4.0 14.2 Q8.0 11.4 14.0 11.4 20.0 11.4 24.0 14.2" fill="none" stroke="url(#gradient7)" stroke-linecap="round" stroke-linejoin="round" stroke-width="0.25"/>
    <path d="M23.0 21.0 Q23.0 23.5 20.25 25.25 17.75 27.0 14.0 27.0 10.25 27.0 7.75 25.25 5.0 23.5 5.0 21.0 5.0 18.5 7.75 16.75 10.25 15.0 14.0 15.0 17.75 15.0 20.25 16.75 23.0 18.5 23.0 21.0" fill="none" stroke="url(#gradient8)" stroke-linecap="round" stroke-linejoin="round" stroke-width="0.25"/>
    <path d="M-33.55 28.3 L-29.0 26.0 -27.0 32.0 Q-28.7 31.6 -30.4 30.4 L-33.55 28.3" fill="#333333" fill-opacity="0.15294118" fill-rule="evenodd" stroke="none"/>
    <path d="M-24.0 32.0 Q-28.3 31.0 -32.0 29.0 L-26.0 26.0 -24.0 32.0" fill="url(#gradient9)" fill-rule="evenodd" stroke="none"/>
    <path d="M-31.0 -7.0 L-30.0 -7.0 -30.0 -6.0 -31.0 -6.0 -31.0 -7.0 M-22.0 -7.0 L-22.0 -6.0 -23.0 -6.0 -23.0 -7.0 -22.0 -7.0 M-24.0 -7.0 L-24.0 -6.0 -25.0 -6.0 -25.0 -7.0 -24.0 -7.0 M-28.0 -7.0 L-28.0 -6.0 -29.0 -6.0 -29.0 -7.0 -28.0 -7.0 M-26.0 -7.0 L-26.0 -6.0 -27.0 -6.0 -27.0 -7.0 -26.0 -7.0 M-29.0 -4.0 L-29.0 -3.0 -30.0 -3.0 -30.0 -4.0 -29.0 -4.0 M-28.0 -1.0 L-28.0 0.0 -29.0 0.0 -29.0 -1.0 -28.0 -1.0 M-26.0 -1.0 L-26.0 0.0 -27.0 0.0 -27.0 -1.0 -26.0 -1.0 M-26.0 -4.0 L-25.0 -4.0 -25.0 -3.0 -26.0 -3.0 -26.0 -4.0 M-27.0 -3.0 L-28.0 -3.0 -28.0 -4.0 -27.0 -4.0 -27.0 -3.0 M-21.0 -4.0 L-21.0 -3.0 -22.0 -3.0 -22.0 -4.0 -21.0 -4.0 M-23.0 -4.0 L-23.0 -3.0 -24.0 -3.0 -24.0 -4.0 -23.0 -4.0 M-24.0 -1.0 L-24.0 0.0 -25.0 0.0 -25.0 -1.0 -24.0 -1.0 M-22.0 -1.0 L-22.0 0.0 -23.0 0.0 -23.0 -1.0 -22.0 -1.0 M-21.0 -7.0 L-20.0 -7.0 -20.0 -6.0 -21.0 -6.0 -21.0 -7.0 M-30.0 -1.0 L-30.0 0.0 -31.0 0.0 -31.0 -1.0 -30.0 -1.0 M-14.0 -7.0 L-14.0 -6.0 -15.0 -6.0 -15.0 -7.0 -14.0 -7.0 M-12.0 -7.0 L-12.0 -6.0 -13.0 -6.0 -13.0 -7.0 -12.0 -7.0 M-16.0 -7.0 L-16.0 -6.0 -17.0 -6.0 -17.0 -7.0 -16.0 -7.0 M-18.0 -7.0 L-18.0 -6.0 -19.0 -6.0 -19.0 -7.0 -18.0 -7.0 M-19.0 -4.0 L-19.0 -3.0 -20.0 -3.0 -20.0 -4.0 -19.0 -4.0 M-18.0 -1.0 L-18.0 0.0 -19.0 0.0 -19.0 -1.0 -18.0 -1.0 M-16.0 -1.0 L-16.0 0.0 -17.0 0.0 -17.0 -1.0 -16.0 -1.0 M-16.0 -4.0 L-15.0 -4.0 -15.0 -3.0 -16.0 -3.0 -16.0 -4.0 M-17.0 -4.0 L-17.0 -3.0 -18.0 -3.0 -18.0 -4.0 -17.0 -4.0 M-11.0 -4.0 L-11.0 -3.0 -12.0 -3.0 -12.0 -4.0 -11.0 -4.0 M-13.0 -4.0 L-13.0 -3.0 -14.0 -3.0 -14.0 -4.0 -13.0 -4.0 M-14.0 -1.0 L-14.0 0.0 -15.0 0.0 -15.0 -1.0 -14.0 -1.0 M-12.0 -1.0 L-12.0 0.0 -13.0 0.0 -13.0 -1.0 -12.0 -1.0 M-11.0 -7.0 L-10.0 -7.0 -10.0 -6.0 -11.0 -6.0 -11.0 -7.0 M-4.0 -7.0 L-4.0 -6.0 -5.0 -6.0 -5.0 -7.0 -4.0 -7.0 M-8.0 -7.0 L-8.0 -6.0 -9.0 -6.0 -9.0 -7.0 -8.0 -7.0 M-6.0 -7.0 L-6.0 -6.0 -7.0 -6.0 -7.0 -7.0 -6.0 -7.0 M-9.0 -4.0 L-9.0 -3.0 -10.0 -3.0 -10.0 -4.0 -9.0 -4.0 M-8.0 -1.0 L-8.0 0.0 -9.0 0.0 -9.0 -1.0 -8.0 -1.0 M-6.0 -1.0 L-6.0 0.0 -7.0 0.0 -7.0 -1.0 -6.0 -1.0 M-8.0 -4.0 L-7.0 -4.0 -7.0 -3.0 -8.0 -3.0 -8.0 -4.0 M-6.0 -4.0 L-5.0 -4.0 -5.0 -3.0 -6.0 -3.0 -6.0 -4.0 M-4.0 -1.0 L-4.0 0.0 -5.0 0.0 -5.0 -1.0 -4.0 -1.0 M-10.0 -1.0 L-10.0 0.0 -11.0 0.0 -11.0 -1.0 -10.0 -1.0 M-20.0 -1.0 L-20.0 0.0 -21.0 0.0 -21.0 -1.0 -20.0 -1.0 M-5.0 3.0 L-6.0 3.0 -6.0 2.0 -5.0 2.0 -5.0 3.0 M-4.0 6.0 L-5.0 6.0 -5.0 5.0 -4.0 5.0 -4.0 6.0 M-7.0 3.0 L-8.0 3.0 -8.0 2.0 -7.0 2.0 -7.0 3.0 M-9.0 2.0 L-9.0 3.0 -10.0 3.0 -10.0 2.0 -9.0 2.0 M-10.0 6.0 L-11.0 6.0 -11.0 5.0 -10.0 5.0 -10.0 6.0 M-9.0 5.0 L-8.0 5.0 -8.0 6.0 -9.0 6.0 -9.0 5.0 M-6.0 5.0 L-6.0 6.0 -7.0 6.0 -7.0 5.0 -6.0 5.0 M-7.0 9.0 L-8.0 9.0 -8.0 8.0 -7.0 8.0 -7.0 9.0 M-6.0 8.0 L-5.0 8.0 -5.0 9.0 -6.0 9.0 -6.0 8.0 M-10.0 9.0 L-10.0 8.0 -9.0 8.0 -9.0 9.0 -10.0 9.0 M-10.0 12.0 L-11.0 12.0 -11.0 11.0 -10.0 11.0 -10.0 12.0 M-9.0 11.0 L-8.0 11.0 -8.0 12.0 -9.0 12.0 -9.0 11.0 M-6.0 11.0 L-6.0 12.0 -7.0 12.0 -7.0 11.0 -6.0 11.0 M-4.0 11.0 L-4.0 12.0 -5.0 12.0 -5.0 11.0 -4.0 11.0 M-12.0 3.0 L-12.0 2.0 -11.0 2.0 -11.0 3.0 -12.0 3.0 M-15.0 3.0 L-16.0 3.0 -16.0 2.0 -15.0 2.0 -15.0 3.0 M-14.0 2.0 L-13.0 2.0 -13.0 3.0 -14.0 3.0 -14.0 2.0 M-13.0 5.0 L-12.0 5.0 -12.0 6.0 -13.0 6.0 -13.0 5.0 M-14.0 6.0 L-15.0 6.0 -15.0 5.0 -14.0 5.0 -14.0 6.0 M-17.0 3.0 L-18.0 3.0 -18.0 2.0 -17.0 2.0 -17.0 3.0 M-19.0 3.0 L-20.0 3.0 -20.0 2.0 -19.0 2.0 -19.0 3.0 M-20.0 6.0 L-21.0 6.0 -21.0 5.0 -20.0 5.0 -20.0 6.0 M-18.0 6.0 L-19.0 6.0 -19.0 5.0 -18.0 5.0 -18.0 6.0 M-16.0 5.0 L-16.0 6.0 -17.0 6.0 -17.0 5.0 -16.0 5.0 M-16.0 8.0 L-15.0 8.0 -15.0 9.0 -16.0 9.0 -16.0 8.0 M-17.0 9.0 L-18.0 9.0 -18.0 8.0 -17.0 8.0 -17.0 9.0 M-20.0 8.0 L-19.0 8.0 -19.0 9.0 -20.0 9.0 -20.0 8.0 M-20.0 12.0 L-21.0 12.0 -21.0 11.0 -20.0 11.0 -20.0 12.0 M-19.0 12.0 L-19.0 11.0 -18.0 11.0 -18.0 12.0 -19.0 12.0 M-17.0 12.0 L-17.0 11.0 -16.0 11.0 -16.0 12.0 -17.0 12.0 M-12.0 9.0 L-12.0 8.0 -11.0 8.0 -11.0 9.0 -12.0 9.0 M-14.0 9.0 L-14.0 8.0 -13.0 8.0 -13.0 9.0 -14.0 9.0 M-15.0 11.0 L-14.0 11.0 -14.0 12.0 -15.0 12.0 -15.0 11.0 M-13.0 11.0 L-12.0 11.0 -12.0 12.0 -13.0 12.0 -13.0 11.0 M-11.0 15.0 L-12.0 15.0 -12.0 14.0 -11.0 14.0 -11.0 15.0 M-13.0 14.0 L-13.0 15.0 -14.0 15.0 -14.0 14.0 -13.0 14.0 M-15.0 15.0 L-16.0 15.0 -16.0 14.0 -15.0 14.0 -15.0 15.0 M-13.0 17.0 L-12.0 17.0 -12.0 18.0 -13.0 18.0 -13.0 17.0 M-14.0 18.0 L-15.0 18.0 -15.0 17.0 -14.0 17.0 -14.0 18.0 M-11.0 17.0 L-10.0 17.0 -10.0 18.0 -11.0 18.0 -11.0 17.0 M-17.0 15.0 L-18.0 15.0 -18.0 14.0 -17.0 14.0 -17.0 15.0 M-19.0 15.0 L-20.0 15.0 -20.0 14.0 -19.0 14.0 -19.0 15.0 M-20.0 18.0 L-21.0 18.0 -21.0 17.0 -20.0 17.0 -20.0 18.0 M-19.0 18.0 L-19.0 17.0 -18.0 17.0 -18.0 18.0 -19.0 18.0 M-16.0 17.0 L-16.0 18.0 -17.0 18.0 -17.0 17.0 -16.0 17.0 M-16.0 20.0 L-15.0 20.0 -15.0 21.0 -16.0 21.0 -16.0 20.0 M-17.0 21.0 L-18.0 21.0 -18.0 20.0 -17.0 20.0 -17.0 21.0 M-20.0 21.0 L-20.0 20.0 -19.0 20.0 -19.0 21.0 -20.0 21.0 M-19.0 24.0 L-19.0 23.0 -18.0 23.0 -18.0 24.0 -19.0 24.0 M-20.0 24.0 L-21.0 24.0 -21.0 23.0 -20.0 23.0 -20.0 24.0 M-17.0 24.0 L-17.0 23.0 -16.0 23.0 -16.0 24.0 -17.0 24.0 M-12.0 21.0 L-12.0 20.0 -11.0 20.0 -11.0 21.0 -12.0 21.0 M-14.0 21.0 L-14.0 20.0 -13.0 20.0 -13.0 21.0 -14.0 21.0 M-15.0 24.0 L-15.0 23.0 -14.0 23.0 -14.0 24.0 -15.0 24.0 M-13.0 23.0 L-12.0 23.0 -12.0 24.0 -13.0 24.0 -13.0 23.0 M-11.0 23.0 L-10.0 23.0 -10.0 24.0 -11.0 24.0 -11.0 23.0 M-5.0 15.0 L-6.0 15.0 -6.0 14.0 -5.0 14.0 -5.0 15.0 M-5.0 17.0 L-4.0 17.0 -4.0 18.0 -5.0 18.0 -5.0 17.0 M-7.0 15.0 L-8.0 15.0 -8.0 14.0 -7.0 14.0 -7.0 15.0 M-9.0 15.0 L-10.0 15.0 -10.0 14.0 -9.0 14.0 -9.0 15.0 M-8.0 18.0 L-9.0 18.0 -9.0 17.0 -8.0 17.0 -8.0 18.0 M-7.0 17.0 L-6.0 17.0 -6.0 18.0 -7.0 18.0 -7.0 17.0 M-6.0 20.0 L-5.0 20.0 -5.0 21.0 -6.0 21.0 -6.0 20.0 M-7.0 21.0 L-8.0 21.0 -8.0 20.0 -7.0 20.0 -7.0 21.0 M-9.0 20.0 L-9.0 21.0 -10.0 21.0 -10.0 20.0 -9.0 20.0 M-9.0 24.0 L-9.0 23.0 -8.0 23.0 -8.0 24.0 -9.0 24.0 M-7.0 24.0 L-7.0 23.0 -6.0 23.0 -6.0 24.0 -7.0 24.0 M-5.0 24.0 L-5.0 23.0 -4.0 23.0 -4.0 24.0 -5.0 24.0 M-21.0 2.0 L-21.0 3.0 -22.0 3.0 -22.0 2.0 -21.0 2.0 M-25.0 3.0 L-26.0 3.0 -26.0 2.0 -25.0 2.0 -25.0 3.0 M-23.0 2.0 L-23.0 3.0 -24.0 3.0 -24.0 2.0 -23.0 2.0 M-25.0 6.0 L-25.0 5.0 -24.0 5.0 -24.0 6.0 -25.0 6.0 M-23.0 5.0 L-22.0 5.0 -22.0 6.0 -23.0 6.0 -23.0 5.0 M-27.0 3.0 L-28.0 3.0 -28.0 2.0 -27.0 2.0 -27.0 3.0 M-30.0 2.0 L-29.0 2.0 -29.0 3.0 -30.0 3.0 -30.0 2.0 M-28.0 6.0 L-29.0 6.0 -29.0 5.0 -28.0 5.0 -28.0 6.0 M-30.0 6.0 L-31.0 6.0 -31.0 5.0 -30.0 5.0 -30.0 6.0 M-27.0 6.0 L-27.0 5.0 -26.0 5.0 -26.0 6.0 -27.0 6.0 M-26.0 8.0 L-25.0 8.0 -25.0 9.0 -26.0 9.0 -26.0 8.0 M-27.0 9.0 L-28.0 9.0 -28.0 8.0 -27.0 8.0 -27.0 9.0 M-30.0 8.0 L-29.0 8.0 -29.0 9.0 -30.0 9.0 -30.0 8.0 M-30.0 12.0 L-31.0 12.0 -31.0 11.0 -30.0 11.0 -30.0 12.0 M-29.0 12.0 L-29.0 11.0 -28.0 11.0 -28.0 12.0 -29.0 12.0 M-27.0 12.0 L-27.0 11.0 -26.0 11.0 -26.0 12.0 -27.0 12.0 M-22.0 8.0 L-21.0 8.0 -21.0 9.0 -22.0 9.0 -22.0 8.0 M-23.0 8.0 L-23.0 9.0 -24.0 9.0 -24.0 8.0 -23.0 8.0 M-23.0 11.0 L-22.0 11.0 -22.0 12.0 -23.0 12.0 -23.0 11.0 M-25.0 12.0 L-25.0 11.0 -24.0 11.0 -24.0 12.0 -25.0 12.0 M-31.0 23.0 L-30.0 23.0 -30.0 24.0 -31.0 24.0 -31.0 23.0 M-31.0 17.0 L-30.0 17.0 -30.0 18.0 -31.0 18.0 -31.0 17.0 M-22.0 15.0 L-22.0 14.0 -21.0 14.0 -21.0 15.0 -22.0 15.0 M-25.0 15.0 L-26.0 15.0 -26.0 14.0 -25.0 14.0 -25.0 15.0 M-24.0 15.0 L-24.0 14.0 -23.0 14.0 -23.0 15.0 -24.0 15.0 M-25.0 17.0 L-24.0 17.0 -24.0 18.0 -25.0 18.0 -25.0 17.0 M-23.0 17.0 L-22.0 17.0 -22.0 18.0 -23.0 18.0 -23.0 17.0 M-27.0 15.0 L-28.0 15.0 -28.0 14.0 -27.0 14.0 -27.0 15.0 M-30.0 14.0 L-29.0 14.0 -29.0 15.0 -30.0 15.0 -30.0 14.0 M-29.0 17.0 L-28.0 17.0 -28.0 18.0 -29.0 18.0 -29.0 17.0 M-26.0 18.0 L-27.0 18.0 -27.0 17.0 -26.0 17.0 -26.0 18.0 M-26.0 20.0 L-25.0 20.0 -25.0 21.0 -26.0 21.0 -26.0 20.0 M-27.0 21.0 L-28.0 21.0 -28.0 20.0 -27.0 20.0 -27.0 21.0 M-29.0 20.0 L-29.0 21.0 -30.0 21.0 -30.0 20.0 -29.0 20.0 M-29.0 24.0 L-29.0 23.0 -28.0 23.0 -28.0 24.0 -29.0 24.0 M-27.0 24.0 L-27.0 23.0 -26.0 23.0 -26.0 24.0 -27.0 24.0 M-22.0 21.0 L-22.0 20.0 -21.0 20.0 -21.0 21.0 -22.0 21.0 M-23.0 20.0 L-23.0 21.0 -24.0 21.0 -24.0 20.0 -23.0 20.0 M-25.0 24.0 L-25.0 23.0 -24.0 23.0 -24.0 24.0 -25.0 24.0 M-23.0 23.0 L-22.0 23.0 -22.0 24.0 -23.0 24.0 -23.0 23.0 M-22.0 26.0 L-21.0 26.0 -21.0 27.0 -22.0 27.0 -22.0 26.0 M-25.0 27.0 L-25.65 27.0 -26.0 26.0 -25.0 26.0 -25.0 27.0 M-24.0 26.0 L-23.0 26.0 -23.0 27.0 -24.0 27.0 -24.0 26.0 M-24.65 30.0 L-25.0 29.0 -24.0 29.0 -24.0 30.0 -24.65 30.0 M-23.0 29.0 L-22.0 29.0 -22.0 30.0 -23.0 30.0 -23.0 29.0 M-21.0 29.0 L-20.0 29.0 -20.0 30.0 -21.0 30.0 -21.0 29.0 M-27.0 26.5 L-28.0 27.0 -28.0 26.0 -27.0 26.0 -27.0 26.5 M-29.0 27.0 L-30.0 27.0 -30.0 26.0 -29.0 26.0 -29.0 27.0 M-2.0 27.0 L-2.0 26.0 -1.0 26.0 -1.0 27.0 -2.0 27.0 M-3.0 26.0 L-3.0 27.0 -4.0 27.0 -4.0 26.0 -3.0 26.0 M-5.0 27.0 L-6.0 27.0 -6.0 26.0 -5.0 26.0 -5.0 27.0 M-3.0 29.0 L-2.0 29.0 -2.0 30.0 -3.0 30.0 -3.0 29.0 M-4.0 30.0 L-5.0 30.0 -5.0 29.0 -4.0 29.0 -4.0 30.0 M-1.0 29.0 L0.0 29.0 0.0 30.0 -1.0 30.0 -1.0 29.0 M-7.0 27.0 L-8.0 27.0 -8.0 26.0 -7.0 26.0 -7.0 27.0 M-10.0 26.0 L-9.0 26.0 -9.0 27.0 -10.0 27.0 -10.0 26.0 M-9.0 30.0 L-9.0 29.0 -8.0 29.0 -8.0 30.0 -9.0 30.0 M-10.0 30.0 L-11.0 30.0 -11.0 29.0 -10.0 29.0 -10.0 30.0 M-6.0 29.0 L-6.0 30.0 -7.0 30.0 -7.0 29.0 -6.0 29.0 M-12.0 27.0 L-12.0 26.0 -11.0 26.0 -11.0 27.0 -12.0 27.0 M-14.0 27.0 L-14.0 26.0 -13.0 26.0 -13.0 27.0 -14.0 27.0 M-15.0 27.0 L-16.0 27.0 -16.0 26.0 -15.0 26.0 -15.0 27.0 M-13.0 29.0 L-12.0 29.0 -12.0 30.0 -13.0 30.0 -13.0 29.0 M-15.0 30.0 L-15.0 29.0 -14.0 29.0 -14.0 30.0 -15.0 30.0 M-17.0 27.0 L-18.0 27.0 -18.0 26.0 -17.0 26.0 -17.0 27.0 M-19.0 27.0 L-20.0 27.0 -20.0 26.0 -19.0 26.0 -19.0 27.0 M-18.0 30.0 L-19.0 30.0 -19.0 29.0 -18.0 29.0 -18.0 30.0 M-16.0 30.0 L-17.0 30.0 -17.0 29.0 -16.0 29.0 -16.0 30.0" fill="#a3a3a3" fill-opacity="0.5019608" fill-rule="evenodd" stroke="none"/>
    <path d="M22.85 -29.0 L22.85 -29.9 24.0 -29.4 24.0 -28.5 22.85 -29.0 M25.1 -28.9 Q25.65 -28.5 26.2 -28.25 L26.2 -27.35 Q25.65 -27.6 25.1 -28.0 L25.1 -28.9 M20.55 -29.8 L20.6 -30.7 Q21.1 -30.45 21.75 -30.35 L21.7 -29.45 20.55 -29.8 M21.7 -25.2 L21.7 -24.25 20.55 -24.65 20.55 -25.55 21.7 -25.2 M22.85 -26.55 L21.7 -26.95 21.7 -27.85 22.85 -27.45 22.85 -26.55 M25.05 -25.5 L24.0 -26.05 24.0 -26.95 Q24.55 -26.6 25.1 -26.4 25.0 -25.95 25.05 -25.5 M20.55 -27.3 L19.4 -27.6 Q19.35 -28.05 19.45 -28.5 L20.55 -28.25 20.55 -27.3 M27.2 -27.55 L28.2 -26.8 28.2 -25.9 27.2 -26.65 27.2 -27.55 M26.15 -25.8 L27.15 -25.1 27.15 -24.2 26.15 -24.9 26.15 -25.8 M29.9 -25.05 L29.9 -24.15 29.1 -25.05 29.1 -25.95 29.9 -25.05 M4.75 -29.85 L5.95 -30.3 5.95 -29.4 4.75 -29.0 4.75 -29.85 M3.65 -28.5 L2.5 -27.95 2.45 -28.8 3.6 -29.35 Q3.55 -28.85 3.65 -28.5 M0.35 -26.65 L0.35 -27.5 Q0.8 -27.85 1.4 -28.2 L1.4 -27.3 0.35 -26.65 M1.45 -25.75 L2.5 -26.4 2.55 -25.5 1.45 -24.85 1.45 -25.75 M4.8 -26.5 L3.65 -26.0 3.65 -26.95 4.8 -27.4 4.8 -26.5 M9.55 -28.75 L9.55 -27.85 8.35 -27.6 8.35 -28.5 9.55 -28.75 M7.15 -30.7 L8.35 -30.95 8.35 -30.1 7.15 -29.8 7.15 -30.7 M7.2 -28.2 L7.2 -27.3 5.95 -26.95 5.95 -27.85 7.2 -28.2 M8.4 -24.9 L7.2 -24.6 7.2 -25.55 8.4 -25.8 8.4 -24.9 M9.55 -26.05 L10.7 -26.25 10.7 -25.3 9.55 -25.15 9.55 -26.05 M9.5 -31.2 L10.7 -31.4 10.7 -30.5 9.55 -30.35 Q9.45 -30.7 9.5 -31.2 M19.45 -31.0 L19.45 -30.1 18.25 -30.35 18.25 -31.25 19.45 -31.0 M17.15 -31.45 L17.15 -30.55 16.05 -30.65 16.05 -31.55 17.15 -31.45 M12.95 -31.65 L12.95 -30.75 11.85 -30.65 11.85 -31.55 12.95 -31.65 M15.0 -31.65 L15.0 -30.75 14.0 -30.8 14.0 -31.7 15.0 -31.65 M12.95 -28.25 L12.95 -29.15 14.0 -29.2 14.0 -28.3 12.95 -28.25 M15.0 -29.15 L16.05 -29.1 16.05 -28.15 15.0 -28.25 15.0 -29.15 M11.85 -29.1 L11.85 -28.15 10.7 -28.0 10.7 -28.95 11.85 -29.1 M11.85 -26.35 L12.95 -26.45 12.95 -25.55 11.85 -25.45 11.85 -26.35 M14.0 -26.5 L15.0 -26.45 15.0 -25.55 14.0 -25.55 14.0 -26.5 M18.25 -27.85 L17.15 -28.05 17.15 -28.95 18.25 -28.75 18.25 -27.85 M16.05 -25.45 L16.05 -26.4 17.15 -26.25 17.15 -25.35 16.05 -25.45 M18.25 -26.05 L19.4 -25.85 19.4 -24.9 18.25 -25.15 18.25 -26.05 M18.25 -22.4 L17.15 -22.55 17.15 -23.5 18.25 -23.3 18.25 -22.4 M19.4 -23.1 L20.55 -22.8 20.55 -21.9 19.4 -22.15 19.4 -23.1 M16.05 -22.7 L15.0 -22.8 15.0 -23.7 16.05 -23.6 16.05 -22.7 M16.05 -19.8 L16.05 -20.8 17.15 -20.65 17.15 -19.7 16.05 -19.8 M19.4 -19.3 L18.25 -19.5 18.25 -20.5 19.4 -20.25 19.4 -19.3 M14.0 -23.75 L14.0 -22.8 12.95 -22.8 12.95 -23.7 14.0 -23.75 M10.75 -23.5 L11.85 -23.6 11.85 -22.7 10.75 -22.55 10.75 -23.5 M10.75 -19.7 L9.6 -19.5 9.6 -20.5 10.75 -20.65 10.75 -19.7 M11.85 -20.8 L12.95 -20.85 12.95 -19.9 11.85 -19.8 11.85 -20.8 M15.0 -20.85 L15.0 -19.9 14.0 -19.95 14.0 -20.9 15.0 -20.85 M12.95 -17.9 L14.0 -17.95 14.0 -16.95 12.95 -16.95 12.95 -17.9 M15.0 -17.9 L16.05 -17.85 16.05 -16.85 15.0 -16.95 15.0 -17.9 M10.75 -17.7 L11.85 -17.85 11.85 -16.85 10.75 -16.75 10.75 -17.7 M11.85 -14.85 L12.95 -14.9 12.95 -13.9 11.85 -13.8 11.85 -14.85 M10.75 -13.7 L9.6 -13.5 9.6 -14.55 10.75 -14.7 10.75 -13.7 M15.0 -14.9 L15.0 -13.9 14.0 -13.9 14.0 -14.9 15.0 -14.9 M19.4 -17.3 L20.5 -17.05 20.5 -16.05 19.35 -16.35 19.4 -17.3 M18.2 -16.55 L17.1 -16.75 17.15 -17.7 18.25 -17.55 Q18.15 -17.15 18.2 -16.55 M17.1 -13.7 L16.05 -13.8 16.05 -14.85 17.1 -14.7 17.1 -13.7 M18.2 -13.5 L18.2 -14.55 19.35 -14.3 19.35 -13.3 18.2 -13.5 M8.4 -23.05 L9.55 -23.3 9.55 -22.4 8.4 -22.15 8.4 -23.05 M7.25 -21.85 L6.05 -21.5 6.05 -22.4 7.25 -22.8 7.25 -21.85 M7.25 -19.95 L8.45 -20.25 8.45 -19.3 7.3 -19.0 Q7.2 -19.5 7.25 -19.95 M6.05 -18.65 L4.9 -18.25 4.9 -19.2 6.05 -19.6 6.05 -18.65 M4.8 -24.75 L6.0 -25.15 6.0 -24.25 4.85 -23.85 4.8 -24.75 M3.7 -23.35 Q3.15 -23.0 2.6 -22.8 L2.55 -23.7 3.7 -24.25 3.7 -23.35 M1.5 -23.1 L1.5 -22.2 0.45 -21.5 0.45 -22.4 1.5 -23.1 M1.55 -20.35 L2.6 -21.0 2.65 -20.1 1.55 -19.45 1.55 -20.35 M0.5 -18.8 L-0.35 -18.0 -0.4 -18.95 0.5 -19.7 0.5 -18.8 M3.75 -21.5 L4.85 -22.0 4.9 -21.1 Q4.25 -20.85 3.75 -20.6 L3.75 -21.5 M2.65 -18.2 L3.8 -18.75 3.8 -17.75 2.7 -17.25 2.65 -18.2 M4.95 -16.3 L4.95 -15.3 Q4.4 -15.0 3.85 -14.85 L3.85 -15.8 4.95 -16.3 M1.6 -17.6 L1.6 -16.65 0.6 -15.95 Q0.5 -16.45 0.55 -16.9 L1.6 -17.6 M1.65 -14.7 L2.7 -15.3 2.75 -14.3 1.65 -13.7 1.65 -14.7 M0.65 -13.05 L-0.25 -12.3 -0.3 -13.25 0.6 -14.0 Q0.55 -13.55 0.65 -13.05 M8.45 -16.35 L8.45 -17.3 9.6 -17.55 9.6 -16.55 8.45 -16.35 M6.1 -15.7 L6.1 -16.7 7.3 -17.05 7.3 -16.05 6.1 -15.7 M6.15 -12.7 L5.0 -12.3 5.0 -13.3 6.15 -13.7 6.15 -12.7 M7.3 -14.05 L8.45 -14.3 8.5 -13.3 7.35 -13.05 7.3 -14.05 M8.5 -11.25 L9.65 -11.5 9.65 -10.45 8.5 -10.25 8.5 -11.25 M6.15 -10.65 L7.35 -11.0 7.35 -10.0 Q6.85 -9.75 6.15 -9.65 L6.15 -10.65 M6.2 -6.65 Q5.65 -6.4 5.1 -6.3 L5.05 -7.3 6.2 -7.65 6.2 -6.65 M7.4 -8.0 L8.5 -8.25 8.5 -7.25 7.4 -7.0 7.4 -8.0 M9.65 -8.5 L10.8 -8.65 10.8 -7.65 9.65 -7.45 9.65 -8.5 M5.0 -10.25 L5.05 -9.25 3.95 -8.8 3.95 -9.8 5.0 -10.25 M2.75 -12.3 L3.9 -12.85 3.9 -11.8 2.8 -11.3 Q2.7 -11.8 2.75 -12.3 M0.7 -10.05 L0.65 -11.05 1.7 -11.7 1.7 -10.7 0.7 -10.05 M1.75 -8.7 L2.8 -9.3 Q2.75 -8.8 2.85 -8.25 L1.75 -7.7 1.75 -8.7 M0.75 -7.0 Q0.2 -6.75 -0.15 -6.3 L-0.2 -7.3 Q0.2 -7.75 0.75 -8.0 L0.75 -7.0 M4.0 -6.8 L4.0 -5.8 2.9 -5.3 Q2.8 -5.8 2.85 -6.3 L4.0 -6.8 M1.8 -5.7 L1.8 -4.7 0.8 -4.05 0.8 -5.05 1.8 -5.7 M1.85 -2.7 L2.9 -3.3 Q2.85 -2.8 2.95 -2.25 L1.85 -1.7 1.85 -2.7 M0.85 -1.05 L-0.05 -0.35 -0.1 -1.3 0.85 -2.05 0.85 -1.05 M4.05 -0.75 L4.1 0.2 3.0 0.7 Q2.9 0.2 2.95 -0.3 L4.05 -0.75 M4.05 -3.8 L5.1 -4.25 5.1 -3.25 4.05 -2.8 4.05 -3.8 M8.55 -4.2 L8.55 -5.2 9.65 -5.45 9.65 -4.4 8.55 -4.2 M6.25 -3.6 L6.25 -4.65 7.4 -4.95 7.4 -3.95 6.25 -3.6 M5.15 -1.25 L6.25 -1.6 6.25 -0.6 5.15 -0.25 5.15 -1.25 M7.45 -1.9 L8.55 -2.2 8.55 -1.15 7.45 -0.9 7.45 -1.9 M9.65 -2.4 L10.8 -2.55 10.8 -1.55 9.7 -1.35 9.65 -2.4 M18.2 -10.45 L17.1 -10.65 17.1 -11.65 18.2 -11.5 18.2 -10.45 M19.35 -11.25 L20.45 -11.0 20.45 -10.0 19.35 -10.25 19.35 -11.25 M16.05 -10.75 L15.0 -10.8 15.0 -11.85 16.05 -11.75 16.05 -10.75 M16.05 -7.75 L16.05 -8.75 17.1 -8.65 17.1 -7.65 16.05 -7.75 M18.2 -8.5 L19.35 -8.25 19.35 -7.25 18.2 -7.45 18.2 -8.5 M14.0 -10.85 L12.95 -10.8 12.95 -11.85 14.0 -11.85 14.0 -10.85 M11.85 -10.75 L10.75 -10.65 10.75 -11.65 11.85 -11.75 11.85 -10.75 M11.85 -8.75 L12.95 -8.85 12.95 -7.8 11.85 -7.75 11.85 -8.75 M15.0 -8.85 L15.0 -7.8 14.0 -7.85 14.0 -8.85 15.0 -8.85 M15.0 -5.8 L16.05 -5.7 16.05 -4.7 15.0 -4.75 15.0 -5.8 M12.95 -5.8 L14.0 -5.8 14.0 -4.75 12.95 -4.75 12.95 -5.8 M11.85 -4.7 L10.8 -4.6 10.8 -5.6 11.85 -5.7 11.85 -4.7 M11.85 -2.65 L12.95 -2.7 12.95 -1.7 11.85 -1.65 11.85 -2.65 M15.0 -2.7 L15.0 -1.7 14.0 -1.7 14.0 -2.75 15.0 -2.7 M19.35 -5.2 L20.45 -4.95 20.45 -3.95 19.3 -4.2 19.35 -5.2 M18.2 -4.4 L17.1 -4.6 17.1 -5.6 18.2 -5.45 18.2 -4.4 M16.05 -2.65 L17.1 -2.55 17.1 -1.55 16.05 -1.65 16.05 -2.65 M18.2 -2.4 L19.3 -2.2 19.3 -1.15 18.2 -1.35 18.2 -2.4 M31.35 -22.15 L30.65 -23.2 30.7 -24.1 31.35 -23.05 31.35 -22.15 M32.0 -19.5 L32.0 -18.55 31.35 -19.7 31.35 -20.6 32.0 -19.5 M30.65 -20.75 L29.9 -21.7 29.9 -22.6 30.65 -21.65 30.65 -20.75 M30.65 -18.1 L30.65 -19.0 31.35 -17.95 31.35 -17.05 30.65 -18.1 M31.3 -15.25 L32.0 -14.15 32.0 -13.25 31.3 -14.35 31.3 -15.25 M31.3 -12.45 L31.3 -11.5 30.6 -12.55 30.6 -13.5 31.3 -12.45 M30.65 -15.4 L29.85 -16.35 29.85 -17.25 30.65 -16.3 30.65 -15.4 M28.15 -24.35 L29.1 -23.5 29.05 -22.6 28.15 -23.45 28.15 -24.35 M26.15 -22.2 L25.05 -22.85 25.05 -23.75 26.15 -23.1 26.15 -22.2 M27.1 -18.8 L26.1 -19.5 26.1 -20.4 27.1 -19.7 27.1 -18.8 M29.85 -19.05 L29.05 -19.95 29.05 -20.85 29.85 -19.95 29.85 -19.05 M28.15 -20.75 L27.15 -21.55 27.15 -22.45 28.15 -21.65 28.15 -20.75 M23.95 -24.25 L23.95 -23.35 22.85 -23.85 22.85 -24.75 23.95 -24.25 M20.5 -19.95 L21.65 -19.6 21.65 -18.65 20.5 -19.0 20.5 -19.95 M23.95 -18.75 Q23.85 -18.35 23.9 -17.75 L22.8 -18.25 22.8 -19.2 23.95 -18.75 M23.95 -21.55 Q24.5 -21.2 25.05 -21.0 24.95 -20.55 25.0 -20.1 24.4 -20.3 23.95 -20.65 L23.95 -21.55 M22.8 -22.05 L22.8 -21.1 21.7 -21.55 21.7 -22.45 22.8 -22.05 M25.0 -18.2 L26.1 -17.6 26.05 -16.65 25.0 -17.25 25.0 -18.2 M21.65 -16.7 L22.8 -16.3 22.75 -15.3 21.65 -15.7 21.65 -16.7 M21.65 -13.7 L21.65 -12.7 Q21.0 -12.8 20.5 -13.05 L20.5 -14.05 Q21.0 -13.8 21.65 -13.7 M24.95 -14.3 Q24.35 -14.5 23.9 -14.85 L23.9 -15.8 25.0 -15.3 24.95 -14.3 M23.9 -12.85 L23.9 -11.8 22.75 -12.3 22.75 -13.3 Q23.35 -13.0 23.9 -12.85 M28.1 -18.05 L28.1 -18.95 29.05 -18.15 29.0 -17.25 28.1 -18.05 M27.1 -16.9 L28.1 -16.15 28.05 -15.2 27.05 -15.95 27.1 -16.9 M26.05 -14.7 L27.05 -14.0 27.05 -13.05 26.05 -13.7 26.05 -14.7 M29.0 -12.45 L28.95 -11.5 28.05 -12.3 28.05 -13.25 29.0 -12.45 M29.0 -15.35 L29.8 -14.45 29.8 -13.5 29.0 -14.4 29.0 -15.35 M28.0 -9.3 L27.0 -10.05 27.05 -11.05 28.05 -10.3 28.0 -9.3 M29.8 -11.55 L30.6 -10.6 30.6 -9.65 29.8 -10.6 29.8 -11.55 M26.0 -10.7 L24.95 -11.3 24.95 -12.3 26.05 -11.7 26.0 -10.7 M26.0 -8.7 L27.0 -8.0 27.0 -7.0 26.0 -7.7 26.0 -8.7 M28.0 -7.3 L28.95 -6.5 28.9 -5.5 28.0 -6.3 28.0 -7.3 M28.95 -8.5 L28.95 -9.5 29.8 -8.6 29.75 -7.6 28.95 -8.5 M24.95 -9.3 L24.9 -8.25 Q24.3 -8.45 23.85 -8.8 L23.85 -9.8 24.95 -9.3 M22.75 -10.25 L22.75 -9.25 21.6 -9.65 21.6 -10.65 22.75 -10.25 M21.6 -6.65 L20.45 -7.0 20.45 -8.0 21.6 -7.65 21.6 -6.65 M22.7 -7.3 L23.85 -6.8 23.85 -5.8 22.7 -6.3 22.7 -7.3 M24.9 -3.3 L24.85 -2.25 Q24.25 -2.45 23.8 -2.8 L23.8 -3.8 24.9 -3.3 M21.6 -3.6 L21.6 -4.65 22.7 -4.25 22.7 -3.25 21.6 -3.6 M22.7 -1.25 L23.8 -0.75 23.8 0.2 22.7 -0.25 22.7 -1.25 M21.55 -0.6 L20.4 -0.9 20.45 -1.9 21.6 -1.6 Q21.5 -1.1 21.55 -0.6 M29.75 -5.6 L30.55 -4.65 30.55 -3.65 29.75 -4.6 29.75 -5.6 M27.95 -3.3 L26.95 -4.05 26.95 -5.05 27.95 -4.3 27.95 -3.3 M25.95 -4.7 L24.9 -5.3 24.9 -6.3 25.95 -5.7 25.95 -4.7 M25.95 -1.7 L25.95 -2.7 26.95 -2.05 26.95 -1.05 25.95 -1.7 M27.95 -1.3 L28.9 -0.55 28.85 0.4 27.95 -0.35 27.95 -1.3 M29.75 -1.65 L28.9 -2.55 28.9 -3.55 29.75 -2.65 29.75 -1.65 M32.0 -8.45 L32.0 -7.5 31.3 -8.6 31.3 -9.55 32.0 -8.45 M30.6 -7.65 L31.3 -6.6 31.3 -5.6 30.6 -6.65 30.6 -7.65 M31.3 -3.6 L32.0 -2.5 32.0 -1.5 31.3 -2.6 31.3 -3.6 M30.55 -1.7 L31.25 -0.65 31.25 0.3 30.55 -0.7 30.55 -1.7 M0.4 -24.15 L-0.45 -23.4 -0.5 -24.3 0.4 -25.05 0.4 -24.15 M32.0 3.4 L32.0 4.45 31.25 3.3 31.25 2.3 32.0 3.4 M31.25 5.3 L31.25 6.3 30.5 5.25 30.55 4.25 31.25 5.3 M30.55 2.25 L29.7 1.3 29.7 0.3 30.55 1.25 30.55 2.25 M30.5 8.25 L29.65 7.3 29.65 6.3 30.5 7.25 30.5 8.25 M30.5 10.25 L31.25 11.3 31.25 12.3 30.5 11.25 30.5 10.25 M31.25 9.3 L31.25 8.3 32.0 9.45 32.0 10.4 31.25 9.3 M27.9 2.65 L26.9 1.95 26.9 0.9 27.9 1.65 27.9 2.65 M25.9 1.25 Q25.4 0.9 24.85 0.7 L24.85 -0.3 25.9 0.25 25.9 1.25 M25.9 3.3 L26.9 3.95 26.9 4.95 25.9 4.3 25.9 3.3 M28.85 3.4 L28.85 2.4 29.7 3.3 29.7 4.3 28.85 3.4 M27.9 4.65 L28.85 5.4 28.8 6.4 27.9 5.65 27.9 4.65 M24.85 2.7 L24.8 3.75 23.75 3.2 Q23.7 2.7 23.8 2.2 24.25 2.45 24.85 2.7 M20.4 2.1 L19.3 1.85 19.3 0.8 20.4 1.1 20.4 2.1 M22.65 2.75 L21.55 2.4 21.55 1.4 22.65 1.75 22.65 2.75 M22.65 4.8 L23.75 5.25 23.75 6.25 22.65 5.8 22.65 4.8 M21.55 5.45 L20.4 5.15 20.4 4.1 21.55 4.45 21.55 5.45 M24.8 8.75 L24.8 9.85 23.75 9.35 23.75 8.25 24.8 8.75 M20.4 8.25 L19.3 8.0 19.3 6.9 20.4 7.15 20.4 8.25 M21.55 8.55 L21.55 7.45 22.65 7.8 22.65 8.9 21.55 8.55 M27.85 8.65 L26.85 7.95 26.85 6.95 27.85 7.65 27.85 8.65 M25.85 7.3 L24.8 6.75 24.8 5.75 25.85 6.3 25.85 7.3 M25.85 10.4 L25.85 9.3 Q26.35 9.55 26.85 9.95 L26.85 11.05 Q26.35 10.65 25.85 10.4 M29.65 10.3 L28.8 9.4 28.8 8.4 29.65 9.3 29.65 10.3 M27.85 10.65 L28.8 11.4 28.8 12.5 27.85 11.75 27.85 10.65 M30.5 14.3 L29.6 13.4 29.65 12.3 30.5 13.25 30.5 14.3 M32.0 15.45 L32.0 16.5 31.25 15.35 31.25 14.3 32.0 15.45 M18.2 1.65 L17.1 1.45 17.1 0.45 18.2 0.6 18.2 1.65 M16.05 1.35 L15.0 1.3 15.0 0.3 16.05 0.35 16.05 1.35 M16.05 3.4 L17.1 3.5 17.1 4.5 16.05 4.4 16.05 3.4 M19.3 4.9 L18.2 4.7 18.2 3.65 19.3 3.85 19.3 4.9 M14.0 0.3 L14.0 1.3 12.95 1.3 12.95 0.3 14.0 0.3 M11.85 1.35 L10.8 1.45 10.8 0.45 11.85 0.35 11.85 1.35 M10.8 4.5 L9.7 4.7 9.7 3.65 10.8 3.5 10.8 4.5 M11.85 3.4 L12.95 3.35 12.95 4.35 11.85 4.4 11.85 3.4 M15.0 3.35 L15.0 4.35 14.0 4.35 14.0 3.35 15.0 3.35 M15.0 6.4 L16.05 6.45 16.05 7.55 15.0 7.5 15.0 6.4 M12.95 6.4 L14.0 6.4 14.0 7.5 12.95 7.5 12.95 6.4 M10.8 6.55 L11.85 6.45 11.9 7.55 10.85 7.65 10.8 6.55 M17.1 7.65 L17.1 6.55 18.2 6.7 18.15 7.8 17.1 7.65 M8.6 0.8 L9.7 0.6 9.7 1.65 8.6 1.85 8.6 0.8 M5.2 2.75 Q4.6 3.0 4.15 3.2 L4.1 2.2 5.2 1.75 5.2 2.75 M6.3 2.4 L6.3 1.4 7.45 1.1 7.45 2.1 6.3 2.4 M5.2 4.8 L6.35 4.45 6.35 5.45 5.25 5.8 5.2 4.8 M7.5 4.1 L8.6 3.85 8.6 4.9 7.5 5.15 7.5 4.1 M1.9 0.25 L1.9 1.25 0.9 1.95 0.9 0.9 Q1.4 0.5 1.9 0.25 M1.95 3.3 L3.0 2.7 3.05 3.75 Q2.4 3.95 1.95 4.3 L1.95 3.3 M0.95 4.95 L0.0 5.65 0.0 4.65 0.95 3.95 0.95 4.95 M4.15 5.25 L4.2 6.25 3.1 6.75 3.05 5.75 4.15 5.25 M2.0 6.3 L2.0 7.3 Q1.5 7.55 1.0 7.95 L1.0 6.95 Q1.5 6.55 2.0 6.3 M0.05 8.65 L-0.8 9.4 -0.85 8.4 0.0 7.65 0.05 8.65 M0.1 11.75 L0.05 10.65 1.05 9.95 1.05 11.05 0.1 11.75 M2.05 9.3 Q2.5 8.95 3.1 8.75 L3.15 9.85 Q2.55 10.05 2.1 10.4 L2.05 9.3 M4.2 8.25 L5.25 7.8 5.3 8.9 4.25 9.35 4.2 8.25 M8.65 8.0 L8.6 6.9 9.7 6.7 9.75 7.8 8.65 8.0 M6.35 8.55 L6.35 7.45 7.5 7.15 7.55 8.25 6.35 8.55 M-1.4 -25.0 Q-1.35 -25.45 -1.45 -25.9 L-0.55 -26.7 -0.5 -25.85 -1.4 -25.0 M-1.4 -23.45 L-1.35 -22.55 -2.15 -21.65 -2.15 -22.55 -1.4 -23.45 M-3.45 -22.1 L-4.0 -21.0 -4.0 -21.8 -3.45 -22.95 -3.45 -22.1 M-2.9 -24.0 L-2.2 -24.95 -2.2 -24.1 -2.9 -23.15 -2.9 -24.0 M-2.9 -21.6 L-2.9 -20.7 -3.45 -19.65 -3.45 -20.55 -2.9 -21.6 M-2.1 -19.0 L-2.85 -18.05 -2.85 -18.95 -2.1 -19.9 -2.1 -19.0 M-1.35 -20.8 L-0.45 -21.65 -0.4 -20.75 -1.3 -19.9 -1.35 -20.8 M-1.3 -18.1 L-1.25 -17.2 -2.05 -16.3 -2.05 -17.2 -1.3 -18.1 M-4.0 -16.75 L-3.45 -17.9 -3.45 -17.0 -4.0 -15.85 -4.0 -16.75 M-2.8 -13.5 Q-2.35 -13.9 -2.05 -14.45 L-2.0 -13.5 -2.8 -12.55 -2.8 -13.5 M-3.4 -15.2 L-2.8 -16.25 -2.8 -15.35 -3.4 -14.3 -3.4 -15.2 M-1.2 -14.4 L-1.25 -15.35 -0.35 -16.15 -0.3 -15.2 -1.2 -14.4 M-0.25 -10.3 L-0.2 -9.3 -1.1 -8.5 -1.15 -9.5 -0.25 -10.3 M-2.0 -11.55 L-1.2 -12.45 -1.15 -11.5 -1.95 -10.6 -2.0 -11.55 M-2.75 -9.65 L-3.35 -8.6 -3.4 -9.55 -2.75 -10.6 -2.75 -9.65 M-4.0 -10.4 L-4.0 -11.3 -3.4 -12.45 -3.4 -11.5 -4.0 -10.4 M-2.7 -7.65 L-1.95 -8.6 -1.95 -7.6 -2.7 -6.65 -2.7 -7.65 M-1.9 -4.6 L-1.9 -5.6 -1.1 -6.5 -1.05 -5.5 -1.9 -4.6 M-0.1 -3.3 L-1.0 -2.55 -1.05 -3.55 -0.15 -4.3 -0.1 -3.3 M-4.0 -4.5 L-4.0 -5.45 -3.35 -6.6 -3.35 -5.6 -4.0 -4.5 M-2.7 -4.65 L-2.7 -3.65 -3.35 -2.6 -3.35 -3.6 -2.7 -4.65 M-2.65 -1.7 L-1.85 -2.65 -1.85 -1.65 -2.65 -0.7 -2.65 -1.7 M-0.05 1.65 L0.0 2.65 -0.9 3.4 -0.95 2.4 -0.05 1.65 M-1.8 0.3 L-1.0 -0.55 -0.95 0.4 -1.8 1.3 -1.8 0.3 M-4.0 0.4 L-3.3 -0.65 -3.3 0.3 -4.0 1.45 -4.0 0.4 M-2.6 2.25 L-3.3 3.3 -3.3 2.3 -2.6 1.25 -2.6 2.25 M-2.6 4.25 L-1.75 3.3 -1.75 4.3 -2.6 5.25 -2.6 4.25 M-1.7 7.3 Q-1.65 6.8 -1.75 6.3 L-0.9 5.4 -0.85 6.4 -1.7 7.3 M-2.55 7.25 L-2.55 8.25 -3.25 9.3 -3.25 8.3 -2.55 7.25 M-4.0 6.45 L-3.3 5.3 -3.3 6.3 -4.0 7.45 -4.0 6.45 M-3.25 12.3 L-4.0 13.45 -4.0 12.4 -3.25 11.3 -3.25 12.3 M-0.8 11.4 L-0.8 12.5 -1.65 13.4 -1.65 12.3 -0.8 11.4 M-1.7 9.3 L-1.65 10.3 -2.5 11.25 -2.5 10.25 -1.7 9.3 M-3.25 14.3 L-2.5 13.25 -2.5 14.3 -3.25 15.35 -3.25 14.3" fill="#a3a3a3" fill-opacity="0.5019608" fill-rule="evenodd" stroke="none"/>
  </g>
  <defs>
    <linearGradient gradientTransform="matrix(0.0281, 0.0, 0.0, 0.0244, -9.0, 12.0)" gradientUnits="userSpaceOnUse" id="gradient0" spreadMethod="pad" x1="-819.2" x2="819.2">
      <stop offset="0.4392156862745098" stop-color="#dbdbdb"/>
      <stop offset="0.49019607843137253" stop-color="#c8c7bd"/>
      <stop offset="0.792156862745098" stop-color="#cac6b5"/>
      <stop offset="0.8823529411764706" stop-color="#a29e88"/>
    </linearGradient>
    <linearGradient gradientTransform="matrix(0.022, 0.0, 0.0, 0.0317, 14.0, -6.0)" gradientUnits="userSpaceOnUse" id="gradient1" spreadMethod="pad" x1="-819.2" x2="819.2">
      <stop offset="0.0" stop-color="#d9d5d0"/>
      <stop offset="0.15294117647058825" stop-color="#d1cec2"/>
      <stop offset="0.5647058823529412" stop-color="#e6e6e6"/>
      <stop offset="0.7450980392156863" stop-color="#e6e6e6"/>
      <stop offset="0.9803921568627451" stop-color="#d8d6d1"/>
    </linearGradient>
    <linearGradient gradientTransform="matrix(0.0038, -0.0159, 0.0142, 0.0034, 14.0, 20.0)" gradientUnits="userSpaceOnUse" id="gradient2" spreadMethod="pad" x1="-819.2" x2="819.2">
      <stop offset="0.12156862745098039" stop-color="#c8c6b7"/>
      <stop offset="0.8509803921568627" stop-color="#cbc8ba"/>
    </linearGradient>
    <linearGradient gradientTransform="matrix(0.0019, -0.0016, 0.0011, 0.0013, 14.0, 21.0)" gradientUnits="userSpaceOnUse" id="gradient3" spreadMethod="pad" x1="-819.2" x2="819.2">
      <stop offset="0.12156862745098039" stop-color="#bab49a"/>
      <stop offset="0.4470588235294118" stop-color="#cdc9b8"/>
    </linearGradient>
    <linearGradient gradientTransform="matrix(0.0135, -0.0117, 0.0079, 0.0091, 14.0, 21.0)" gradientUnits="userSpaceOnUse" id="gradient4" spreadMethod="pad" x1="-819.2" x2="819.2">
      <stop offset="0.12156862745098039" stop-color="#c9c5b6"/>
      <stop offset="0.4470588235294118" stop-color="#d0cec4"/>
    </linearGradient>
    <linearGradient gradientTransform="matrix(0.0135, -0.0117, 0.0079, 0.0091, 14.0, 21.0)" gradientUnits="userSpaceOnUse" id="gradient5" spreadMethod="pad" x1="-819.2" x2="819.2">
      <stop offset="0.12156862745098039" stop-color="#b7b19d"/>
      <stop offset="0.4470588235294118" stop-color="#d7d2c4"/>
    </linearGradient>
    <linearGradient gradientTransform="matrix(0.0135, -0.0117, 0.0079, 0.0091, 14.0, 21.0)" gradientUnits="userSpaceOnUse" id="gradient6" spreadMethod="pad" x1="-819.2" x2="819.2">
      <stop offset="0.12156862745098039" stop-color="#b7af9d"/>
      <stop offset="0.4470588235294118" stop-color="#dbd3bf"/>
    </linearGradient>
    <linearGradient gradientTransform="matrix(0.0135, -0.0117, 0.0079, 0.0091, 14.0, 21.0)" gradientUnits="userSpaceOnUse" id="gradient7" spreadMethod="pad" x1="-819.2" x2="819.2">
      <stop offset="0.12156862745098039" stop-color="#c7c5b8"/>
      <stop offset="0.4470588235294118" stop-color="#c7c2b8"/>
    </linearGradient>
    <linearGradient gradientTransform="matrix(0.0155, -0.0089, 0.006, 0.0104, 14.0, 21.0)" gradientUnits="userSpaceOnUse" id="gradient8" spreadMethod="pad" x1="-819.2" x2="819.2">
      <stop offset="0.12156862745098039" stop-color="#b1ab8d"/>
      <stop offset="0.4470588235294118" stop-color="#cbc7b4"/>
      <stop offset="0.7843137254901961" stop-color="#d3cec0"/>
    </linearGradient>
    <linearGradient gradientTransform="matrix(0.0049, 0.0, 0.0, 0.0037, -28.0, 29.0)" gradientUnits="userSpaceOnUse" id="gradient9" spreadMethod="pad" x1="-819.2" x2="819.2">
      <stop offset="0.0" stop-color="#ffffff"/>
      <stop offset="1.0" stop-color="#e6e6e6"/>
    </linearGradient>
  </defs>
</svg>
