<?xml version="1.0" encoding="UTF-8" standalone="no"?>
<svg xmlns:xlink="http://www.w3.org/1999/xlink" height="92.0px" width="53.0px" xmlns="http://www.w3.org/2000/svg">
  <g transform="matrix(1.0, 0.0, 0.0, 1.0, 26.5, 45.5)">
    <path d="M2.25 -44.1 Q3.45 -41.65 4.0 -41.0 L4.05 -40.95 5.4 -40.45 5.75 -40.4 6.45 -40.05 6.6 -39.95 7.4 -38.8 7.45 -38.5 7.5 -37.8 7.35 -37.1 8.0 -36.5 10.65 -32.95 Q15.05 -31.05 18.75 -27.35 26.5 -19.6 26.5 -8.6 26.5 1.05 20.5 8.2 L20.35 8.95 18.35 13.95 17.4 15.1 Q16.75 15.5 16.0 15.5 L13.6 15.5 12.1 17.4 12.0 17.5 11.1 18.25 10.7 18.4 10.5 18.45 10.4 18.5 8.45 19.0 9.35 19.7 Q10.55 20.9 10.5 22.5 10.55 24.1 9.35 25.35 8.15 26.5 6.6 26.5 4.05 28.4 3.5 43.1 L3.45 43.55 Q2.85 46.3 0.3 46.5 L-0.3 46.5 Q-2.9 46.25 -3.45 43.5 L-3.5 43.1 Q-4.05 28.45 -6.6 26.5 -8.15 26.5 -9.3 25.35 -10.55 24.1 -10.5 22.5 -10.55 20.9 -9.3 19.7 L-8.45 19.0 -10.4 18.5 -10.45 18.45 -10.5 18.45 Q-11.45 18.25 -12.0 17.5 L-12.05 17.4 -13.6 15.5 -16.0 15.5 Q-16.75 15.5 -17.4 15.1 L-18.3 13.95 -20.3 8.95 -20.5 8.25 Q-26.5 1.1 -26.5 -8.6 -26.5 -19.6 -18.75 -27.35 -15.05 -31.05 -10.65 -32.95 L-8.0 -36.5 -7.35 -37.1 -7.5 -37.8 -7.45 -38.5 -7.45 -38.55 -7.4 -38.65 Q-7.2 -39.45 -6.55 -39.95 L-5.4 -40.45 Q-4.5 -40.6 -4.0 -40.95 L-3.95 -41.0 Q-3.45 -41.65 -2.25 -44.1 -1.8 -44.95 -0.9 -45.3 0.0 -45.7 0.9 -45.3 1.8 -44.95 2.25 -44.1" fill="#000000" fill-rule="evenodd" stroke="none"/>
    <path d="M16.0 13.0 L12.0 13.0 Q13.8 10.0 17.0 8.0 L18.0 8.0 16.0 13.0" fill="url(#gradient0)" fill-rule="evenodd" stroke="none"/>
    <path d="M-12.0 13.0 L-16.0 13.0 -18.0 8.0 -17.0 8.0 Q-13.8 10.0 -12.0 13.0" fill="url(#gradient1)" fill-rule="evenodd" stroke="none"/>
    <path d="M16.95 -25.6 Q24.0 -18.55 24.0 -8.6 24.0 1.35 16.95 8.35 9.95 15.4 0.0 15.4 -9.95 15.4 -17.0 8.35 -24.0 1.35 -24.0 -8.6 -24.0 -18.55 -17.0 -25.6 -9.95 -32.6 0.0 -32.6 9.95 -32.6 16.95 -25.6" fill="url(#gradient2)" fill-rule="evenodd" stroke="none"/>
    <path d="M23.05 -8.6 Q23.05 0.95 16.25 7.65 9.55 14.45 0.0 14.45 -9.55 14.45 -16.3 7.65 -23.05 0.95 -23.05 -8.6 -23.05 -18.15 -16.3 -24.95 -9.55 -31.65 0.0 -31.65 9.55 -31.65 16.25 -24.95 23.05 -18.15 23.05 -8.6" fill="url(#gradient3)" fill-rule="evenodd" stroke="none"/>
    <path d="M10.0 16.0 L0.0 16.0 -10.0 16.0 -14.0 11.0 0.0 11.0 14.0 11.0 10.0 16.0" fill="url(#gradient4)" fill-rule="evenodd" stroke="none"/>
    <path d="M10.0 16.0 Q6.6 16.65 5.3 18.05 3.95 19.6 6.0 21.0 L0.0 21.0 -6.0 21.0 Q-3.95 19.6 -5.3 18.05 -6.6 16.65 -10.0 16.0 L0.0 16.0 10.0 16.0" fill="url(#gradient5)" fill-rule="evenodd" stroke="none"/>
    <path d="M6.5 21.0 Q7.1 21.0 7.55 21.45 8.0 21.9 8.0 22.5 8.0 23.1 7.55 23.55 7.1 24.0 6.5 24.0 L-6.5 24.0 Q-7.1 24.0 -7.55 23.55 -8.0 23.1 -8.0 22.5 -8.0 21.9 -7.55 21.45 -7.1 21.0 -6.5 21.0 L6.5 21.0" fill="url(#gradient6)" fill-rule="evenodd" stroke="none"/>
    <path d="M1.0 43.0 Q0.8 43.9 0.0 44.0 -0.8 43.9 -1.0 43.0 -1.65 25.45 -6.0 24.0 L6.0 24.0 Q1.65 25.45 1.0 43.0" fill="url(#gradient7)" fill-rule="evenodd" stroke="none"/>
    <path d="M6.0 24.0 Q1.65 25.45 1.0 43.0 0.8 43.9 0.0 44.0 -0.8 43.9 -1.0 43.0 -1.65 25.45 -6.0 24.0 L6.0 24.0" fill="url(#gradient8)" fill-rule="evenodd" stroke="none"/>
    <path d="M3.0 13.0 L-3.0 13.0 -3.0 8.0 3.0 8.0 3.0 13.0" fill="url(#gradient9)" fill-rule="evenodd" stroke="none"/>
    <path d="M0.0 -35.0 L6.0 -35.0 9.0 -31.0 -9.0 -31.0 -6.0 -35.0 0.0 -35.0" fill="url(#gradient10)" fill-rule="evenodd" stroke="none"/>
    <path d="M0.0 -36.0 L4.0 -36.0 Q4.1 -35.25 5.0 -35.0 L-5.0 -35.0 Q-4.1 -35.25 -4.0 -36.0 L0.0 -36.0" fill="url(#gradient11)" fill-rule="evenodd" stroke="none"/>
    <path d="M4.0 -36.0 L0.0 -36.0 -4.0 -36.0 -5.0 -38.0 0.0 -38.0 5.0 -38.0 4.0 -36.0" fill="url(#gradient12)" fill-rule="evenodd" stroke="none"/>
    <path d="M0.0 -43.0 Q1.45 -40.0 2.2 -39.25 3.1 -38.3 5.0 -38.0 L0.0 -38.0 -5.0 -38.0 Q-3.1 -38.3 -2.2 -39.25 -1.45 -40.0 0.0 -43.0" fill="url(#gradient13)" fill-rule="evenodd" stroke="none"/>
    <path d="M5.0 -35.0 L-5.0 -35.0 -5.0 -36.0 5.0 -36.0 5.0 -35.0 M-6.0 24.0 L6.0 24.0 6.0 25.0 -6.0 25.0 -6.0 24.0 M-10.0 16.0 L10.0 16.0 10.0 17.0 -10.0 17.0 -10.0 16.0" fill="#000000" fill-opacity="0.2" fill-rule="evenodd" stroke="none"/>
    <path d="M3.0 11.0 L3.0 8.0 6.0 11.0 3.0 11.0 M-6.0 11.0 L-3.0 8.0 -3.0 11.0 -6.0 11.0" fill="#000000" fill-opacity="0.2" fill-rule="evenodd" stroke="none"/>
  </g>
  <defs>
    <linearGradient gradientTransform="matrix(0.0094, 0.0054, -0.0015, 0.0026, 6.2, 13.2)" gradientUnits="userSpaceOnUse" id="gradient0" spreadMethod="pad" x1="-819.2" x2="819.2">
      <stop offset="0.0" stop-color="#7a6a3d"/>
      <stop offset="0.10980392156862745" stop-color="#70623a"/>
      <stop offset="0.3137254901960784" stop-color="#bfaf80"/>
      <stop offset="0.4745098039215686" stop-color="#f1ebe2"/>
      <stop offset="0.5333333333333333" stop-color="#f1ebe2"/>
      <stop offset="0.6784313725490196" stop-color="#bfaf80"/>
      <stop offset="0.7607843137254902" stop-color="#12100a"/>
      <stop offset="0.8470588235294118" stop-color="#6b5e36"/>
      <stop offset="1.0" stop-color="#aa9555"/>
    </linearGradient>
    <linearGradient gradientTransform="matrix(-0.0067, 0.0048, -0.0018, -0.0025, -10.75, 7.7)" gradientUnits="userSpaceOnUse" id="gradient1" spreadMethod="pad" x1="-819.2" x2="819.2">
      <stop offset="0.0" stop-color="#7a6a3d"/>
      <stop offset="0.10980392156862745" stop-color="#70623a"/>
      <stop offset="0.3137254901960784" stop-color="#bfaf80"/>
      <stop offset="0.4745098039215686" stop-color="#f1ebe2"/>
      <stop offset="0.5333333333333333" stop-color="#f1ebe2"/>
      <stop offset="0.6784313725490196" stop-color="#bfaf80"/>
      <stop offset="0.7607843137254902" stop-color="#12100a"/>
      <stop offset="0.8470588235294118" stop-color="#6b5e36"/>
      <stop offset="1.0" stop-color="#aa9555"/>
    </linearGradient>
    <linearGradient gradientTransform="matrix(-0.0206, 0.0207, -0.0207, -0.0206, 0.0, -8.6)" gradientUnits="userSpaceOnUse" id="gradient2" spreadMethod="pad" x1="-819.2" x2="819.2">
      <stop offset="0.0" stop-color="#218af3"/>
      <stop offset="0.5058823529411764" stop-color="#4e9ff1"/>
      <stop offset="0.9294117647058824" stop-color="#8cc2f9"/>
    </linearGradient>
    <radialGradient cx="0" cy="0" fx="492.8" fy="0" gradientTransform="matrix(0.0195, -0.0235, 0.0235, 0.0195, 0.0, -8.6)" gradientUnits="userSpaceOnUse" id="gradient3" r="819.2" spreadMethod="pad">
      <stop offset="0.06666666666666667" stop-color="#ffffff"/>
      <stop offset="0.1568627450980392" stop-color="#0956a2"/>
      <stop offset="0.25098039215686274" stop-color="#12416d"/>
      <stop offset="0.5019607843137255" stop-color="#0b447b"/>
      <stop offset="0.7176470588235294" stop-color="#0756a3"/>
      <stop offset="0.8509803921568627" stop-color="#0f75db"/>
      <stop offset="0.9176470588235294" stop-color="#3391ee"/>
    </radialGradient>
    <linearGradient gradientTransform="matrix(0.0171, 0.0, 0.0, 0.0031, 0.0, 13.5)" gradientUnits="userSpaceOnUse" id="gradient4" spreadMethod="pad" x1="-819.2" x2="819.2">
      <stop offset="0.0" stop-color="#7a6a3d"/>
      <stop offset="0.10980392156862745" stop-color="#70623a"/>
      <stop offset="0.3137254901960784" stop-color="#bfaf80"/>
      <stop offset="0.4745098039215686" stop-color="#f1ebe2"/>
      <stop offset="0.5333333333333333" stop-color="#f1ebe2"/>
      <stop offset="0.6784313725490196" stop-color="#bfaf80"/>
      <stop offset="0.8862745098039215" stop-color="#70623a"/>
      <stop offset="1.0" stop-color="#7a6a3d"/>
    </linearGradient>
    <radialGradient cx="0" cy="0" gradientTransform="matrix(0.0131, 0.0, 0.0, 0.0135, 0.0, 21.1)" gradientUnits="userSpaceOnUse" id="gradient5" r="819.2" spreadMethod="pad">
      <stop offset="0.011764705882352941" stop-color="#f1ebe2"/>
      <stop offset="0.24313725490196078" stop-color="#bfaf80"/>
      <stop offset="0.5019607843137255" stop-color="#70623a"/>
      <stop offset="0.7372549019607844" stop-color="#4b4225"/>
      <stop offset="0.9490196078431372" stop-color="#332d1a"/>
    </radialGradient>
    <radialGradient cx="0" cy="0" gradientTransform="matrix(0.0181, 0.0, 0.0, 0.0032, 0.0, 22.5)" gradientUnits="userSpaceOnUse" id="gradient6" r="819.2" spreadMethod="pad">
      <stop offset="0.07450980392156863" stop-color="#f1ebe2"/>
      <stop offset="0.2784313725490196" stop-color="#bfaf80"/>
      <stop offset="0.5411764705882353" stop-color="#776840"/>
      <stop offset="0.7372549019607844" stop-color="#4b4225"/>
    </radialGradient>
    <radialGradient cx="0" cy="0" gradientTransform="matrix(0.0073, 0.0, -2.0E-4, 0.0335, 0.0, 44.0)" gradientUnits="userSpaceOnUse" id="gradient7" r="819.2" spreadMethod="pad">
      <stop offset="0.09803921568627451" stop-color="#94865c"/>
      <stop offset="0.47843137254901963" stop-color="#938357"/>
      <stop offset="0.6941176470588235" stop-color="#534b2d"/>
      <stop offset="0.984313725490196" stop-color="#201d11"/>
    </radialGradient>
    <radialGradient cx="0" cy="0" gradientTransform="matrix(2.0E-4, -0.0241, 0.0025, 0.0, -0.1, 42.1)" gradientUnits="userSpaceOnUse" id="gradient8" r="819.2" spreadMethod="pad">
      <stop offset="0.23921568627450981" stop-color="#cec59b" stop-opacity="0.9137255"/>
      <stop offset="1.0" stop-color="#706441" stop-opacity="0.0"/>
    </radialGradient>
    <linearGradient gradientTransform="matrix(0.0, -0.0031, 0.0031, 0.0, 0.0, 10.5)" gradientUnits="userSpaceOnUse" id="gradient9" spreadMethod="pad" x1="-819.2" x2="819.2">
      <stop offset="0.0" stop-color="#bfaf80"/>
      <stop offset="0.13333333333333333" stop-color="#b49f67"/>
      <stop offset="0.8745098039215686" stop-color="#b8a672"/>
      <stop offset="0.9568627450980393" stop-color="#d0c799"/>
    </linearGradient>
    <linearGradient gradientTransform="matrix(0.011, 0.0, 0.0, 0.0024, 0.0, -33.0)" gradientUnits="userSpaceOnUse" id="gradient10" spreadMethod="pad" x1="-819.2" x2="819.2">
      <stop offset="0.0" stop-color="#7a6a3d"/>
      <stop offset="0.10980392156862745" stop-color="#70623a"/>
      <stop offset="0.3137254901960784" stop-color="#bfaf80"/>
      <stop offset="0.4745098039215686" stop-color="#f1ebe2"/>
      <stop offset="0.5333333333333333" stop-color="#f1ebe2"/>
      <stop offset="0.6784313725490196" stop-color="#bfaf80"/>
      <stop offset="0.8862745098039215" stop-color="#70623a"/>
      <stop offset="1.0" stop-color="#7a6a3d"/>
    </linearGradient>
    <linearGradient gradientTransform="matrix(0.0049, 0.0, 0.0, 6.0E-4, 0.0, -35.5)" gradientUnits="userSpaceOnUse" id="gradient11" spreadMethod="pad" x1="-819.2" x2="819.2">
      <stop offset="0.0" stop-color="#4b4225"/>
      <stop offset="0.10980392156862745" stop-color="#70623a"/>
      <stop offset="0.3137254901960784" stop-color="#ae995e"/>
      <stop offset="0.4745098039215686" stop-color="#bfaf80"/>
      <stop offset="0.5333333333333333" stop-color="#bfaf80"/>
      <stop offset="0.6784313725490196" stop-color="#ae995e"/>
      <stop offset="0.8862745098039215" stop-color="#70623a"/>
      <stop offset="1.0" stop-color="#4b4225"/>
    </linearGradient>
    <linearGradient gradientTransform="matrix(0.0061, 0.0, 0.0, 0.0012, 0.0, -37.0)" gradientUnits="userSpaceOnUse" id="gradient12" spreadMethod="pad" x1="-819.2" x2="819.2">
      <stop offset="0.0" stop-color="#7a6a3d"/>
      <stop offset="0.10980392156862745" stop-color="#70623a"/>
      <stop offset="0.3137254901960784" stop-color="#bfaf80"/>
      <stop offset="0.4745098039215686" stop-color="#f1ebe2"/>
      <stop offset="0.5333333333333333" stop-color="#f1ebe2"/>
      <stop offset="0.6784313725490196" stop-color="#bfaf80"/>
      <stop offset="0.8862745098039215" stop-color="#70623a"/>
      <stop offset="1.0" stop-color="#7a6a3d"/>
    </linearGradient>
    <radialGradient cx="0" cy="0" gradientTransform="matrix(0.0049, 0.0, 0.0, 0.0139, 0.0, -38.0)" gradientUnits="userSpaceOnUse" id="gradient13" r="819.2" spreadMethod="pad">
      <stop offset="0.0" stop-color="#f1ebe2"/>
      <stop offset="0.2823529411764706" stop-color="#bfaf80"/>
      <stop offset="0.596078431372549" stop-color="#70623a"/>
      <stop offset="0.7607843137254902" stop-color="#4b4225"/>
      <stop offset="1.0" stop-color="#332d1a"/>
    </radialGradient>
  </defs>
</svg>
