<?xml version="1.0" encoding="UTF-8" standalone="no"?>
<svg xmlns:xlink="http://www.w3.org/1999/xlink" height="680.0px" width="760.0px" xmlns="http://www.w3.org/2000/svg">
  <g transform="matrix(1.0, 0.0, 0.0, 1.0, 0.0, 0.0)">
    <path d="M760.0 32.0 L0.0 32.0 0.0 0.0 760.0 0.0 760.0 32.0 M760.0 680.0 L0.0 680.0 0.0 648.0 760.0 648.0 760.0 680.0" fill="#000000" fill-rule="evenodd" stroke="none"/>
    <path d="M760.0 128.0 L144.0 128.0 144.0 48.0 760.0 48.0 760.0 128.0 M760.0 632.0 L144.0 632.0 144.0 592.0 760.0 592.0 760.0 632.0" fill="#000000" fill-opacity="0.5019608" fill-rule="evenodd" stroke="none"/>
    <path d="M0.0 128.0 L0.0 48.0 144.0 48.0 144.0 128.0 0.0 128.0 M144.0 592.0 L144.0 632.0 0.0 632.0 0.0 592.0 144.0 592.0" fill="#6d685c" fill-opacity="0.8" fill-rule="evenodd" stroke="none"/>
  </g>
</svg>
