<?xml version="1.0" encoding="UTF-8" standalone="no"?>
<svg xmlns:xlink="http://www.w3.org/1999/xlink" height="9.4px" width="41.35px" xmlns="http://www.w3.org/2000/svg">
  <g transform="matrix(1.0, 0.0, 0.0, 1.0, -128.55, -25.55)">
    <path d="M169.9 29.1 L167.4 31.5 168.05 34.95 165.0 33.25 161.9 34.95 162.55 31.5 160.05 29.1 163.5 28.7 165.0 25.55 166.45 28.7 169.9 29.1 M139.05 29.1 L142.5 28.7 144.0 25.55 145.45 28.7 148.9 29.1 146.4 31.5 147.05 34.95 144.0 33.25 140.9 34.95 141.55 31.5 139.05 29.1 M134.95 28.7 L138.4 29.1 135.9 31.5 136.55 34.95 133.5 33.25 130.4 34.95 131.05 31.5 128.55 29.1 132.0 28.7 133.5 25.55 134.95 28.7 M156.0 28.7 L159.45 29.1 156.95 31.5 157.6 34.95 154.55 33.25 151.45 34.95 152.1 31.5 149.6 29.1 153.05 28.7 154.55 25.55 156.0 28.7" fill="url(#gradient0)" fill-rule="evenodd" stroke="none"/>
  </g>
  <defs>
    <linearGradient gradientTransform="matrix(0.0, -0.0062, 0.0057, 0.0, 144.0, 29.85)" gradientUnits="userSpaceOnUse" id="gradient0" spreadMethod="pad" x1="-819.2" x2="819.2">
      <stop offset="0.0" stop-color="#d8d8d8"/>
      <stop offset="0.14901960784313725" stop-color="#c8c1b7"/>
      <stop offset="0.49411764705882355" stop-color="#fffef7"/>
      <stop offset="1.0" stop-color="#ffffff"/>
    </linearGradient>
  </defs>
</svg>
