<?xml version="1.0" encoding="UTF-8" standalone="no"?>
<svg xmlns:xlink="http://www.w3.org/1999/xlink" height="23.25px" width="7.05px" xmlns="http://www.w3.org/2000/svg">
  <g transform="matrix(1.0, 0.0, 0.0, 1.0, 3.5, 19.25)">
    <path d="M2.55 -15.75 L2.55 0.55 Q2.5 1.55 1.8 2.25 1.05 3.0 0.0 3.0 -1.05 3.0 -1.8 2.25 -2.5 1.55 -2.5 0.55 L-2.5 -15.75 -2.5 -15.9 Q-2.45 -16.85 -1.8 -17.5 L-1.75 -17.5 Q-1.05 -18.25 0.0 -18.25 1.05 -18.25 1.8 -17.5 2.45 -16.85 2.55 -15.9 L2.55 -15.75" fill="#fbfffd" fill-rule="evenodd" stroke="none"/>
    <path d="M2.55 -15.75 L2.55 0.55 Q2.5 1.55 1.8 2.25 1.05 3.0 0.0 3.0 -1.05 3.0 -1.8 2.25 -2.5 1.55 -2.5 0.55 L-2.5 -15.75 -2.5 -15.9 Q-2.45 -16.85 -1.8 -17.5 L-1.75 -17.5 Q-1.05 -18.25 0.0 -18.25 1.05 -18.25 1.8 -17.5 2.45 -16.85 2.55 -15.9 L2.55 -15.75 Z" fill="none" stroke="#95e4ff" stroke-linecap="round" stroke-linejoin="round" stroke-opacity="0.5019608" stroke-width="2.0"/>
  </g>
</svg>
