<?xml version="1.0" encoding="UTF-8" standalone="no"?>
<svg xmlns:xlink="http://www.w3.org/1999/xlink" height="87.6px" width="109.5px" xmlns="http://www.w3.org/2000/svg">
  <g transform="matrix(1.0, 0.0, 0.0, 1.0, 57.5, 39.0)">
    <path d="M52.0 -9.25 Q52.0 0.75 44.9 7.85 L44.85 7.9 Q42.5 10.25 39.8 11.85 40.85 14.75 41.15 18.05 42.05 28.05 35.6 35.75 L32.1 39.95 Q25.6 47.65 15.65 48.5 L15.6 48.5 Q5.65 49.4 -2.0 43.0 L-33.0 17.0 Q-40.65 10.55 -41.55 0.55 -41.9 -3.45 -41.05 -7.1 -42.9 -7.65 -43.95 -9.25 L-43.9 -9.15 Q-45.1 -10.7 -44.95 -13.0 L-44.95 -13.05 Q-44.8 -15.6 -42.9 -16.9 L-43.0 -16.85 Q-41.85 -17.85 -39.7 -18.15 L-39.65 -18.15 -37.3 -18.45 -36.7 -18.55 Q-35.6 -26.15 -29.9 -31.9 -22.75 -39.0 -12.75 -39.0 L27.75 -39.0 Q37.8 -39.0 44.9 -31.9 52.0 -24.8 52.0 -14.75 L52.0 -9.25" fill="#010101" fill-rule="evenodd" stroke="none"/>
    <path d="M-42.4 -26.65 Q-40.55 -26.65 -39.3 -25.35 L-38.6 -24.45 Q-37.15 -24.25 -36.15 -23.2 -34.85 -21.9 -34.85 -20.0 -34.85 -18.15 -36.1 -16.9 L-36.25 -16.75 Q-37.5 -15.5 -39.35 -15.5 -41.25 -15.5 -42.55 -16.8 L-43.25 -17.7 Q-44.65 -17.9 -45.7 -18.95 L-45.95 -19.25 Q-47.8 -19.3 -49.1 -20.55 -50.4 -21.8 -50.4 -23.75 -50.4 -25.6 -49.2 -26.9 L-49.05 -27.05 Q-47.75 -28.25 -45.9 -28.25 -43.95 -28.25 -42.7 -26.95 L-42.4 -26.65 M-49.2 -17.45 Q-47.8 -17.2 -46.8 -16.2 -45.8 -15.2 -45.55 -13.8 L-44.8 -13.2 Q-43.8 -12.2 -43.55 -10.8 L-42.8 -10.2 -42.4 -9.75 Q-40.6 -9.65 -39.45 -8.45 -38.15 -7.15 -38.15 -5.25 -38.15 -3.4 -39.4 -2.15 L-39.55 -2.0 Q-40.8 -0.75 -42.65 -0.75 -44.55 -0.75 -45.85 -2.05 L-46.25 -2.5 Q-48.0 -2.6 -49.2 -3.8 -50.2 -4.8 -50.45 -6.15 L-51.2 -6.8 Q-52.2 -7.8 -52.45 -9.15 L-53.2 -9.8 -53.8 -10.55 Q-55.2 -10.8 -56.2 -11.8 -57.5 -13.05 -57.5 -15.0 -57.5 -16.85 -56.3 -18.15 L-56.15 -18.3 Q-54.85 -19.5 -53.0 -19.5 -51.05 -19.5 -49.8 -18.2 L-49.2 -17.45" fill="#010101" fill-rule="evenodd" stroke="none"/>
  </g>
</svg>
