<?xml version="1.0" encoding="UTF-8" standalone="no"?>
<svg xmlns:xlink="http://www.w3.org/1999/xlink" height="25.25px" width="15.15px" xmlns="http://www.w3.org/2000/svg">
  <g transform="matrix(1.0, 0.0, 0.0, 1.0, -2.8, -2.55)">
    <path d="M15.2 5.6 Q16.4 7.15 17.2 9.55 17.95 11.95 17.95 15.25 17.95 18.05 17.5 20.05 L16.25 23.45 Q15.55 24.85 14.65 25.7 L12.9 27.05 11.35 27.65 10.35 27.8 9.35 27.7 8.25 27.4 7.25 27.1 6.5 27.0 5.85 27.1 5.25 27.3 4.6 27.55 3.8 27.65 3.45 27.6 3.15 27.55 2.8 27.35 3.3 26.8 3.8 25.95 4.3 24.9 4.3 5.15 Q3.45 4.8 3.15 4.3 2.85 3.8 2.85 3.35 2.85 2.95 3.1 2.85 L3.8 3.05 4.8 3.15 5.65 3.05 6.8 2.85 8.15 2.65 9.4 2.55 Q10.9 2.55 12.45 3.3 13.95 4.05 15.2 5.6 M10.65 4.45 L10.05 4.35 Q9.7 4.35 9.35 4.85 9.0 5.4 9.0 6.2 L9.0 24.25 Q9.0 24.9 9.25 25.25 L9.8 25.8 10.55 26.05 Q11.3 26.05 11.85 25.05 12.4 24.05 12.4 22.5 L12.4 8.45 12.1 6.1 11.45 4.9 Q11.05 4.5 10.65 4.45" fill="url(#gradient0)" fill-rule="evenodd" stroke="none"/>
    <path d="M17.2 9.95 Q17.9 12.3 17.9 15.5 17.9 18.25 17.45 20.2 L17.5 20.2 16.25 23.5 Q15.6 24.8 14.75 25.6 L13.1 26.9 13.15 26.85 11.7 27.4 10.8 27.55 9.9 27.45 9.95 27.5 8.85 27.2 7.85 26.9 7.8 26.85 6.95 26.75 6.15 26.9 5.55 27.1 5.5 27.1 4.95 27.35 4.25 27.4 4.15 27.4 4.2 27.35 4.7 26.45 5.2 25.35 5.25 25.15 5.25 5.4 5.2 5.15 4.95 4.95 4.05 4.3 3.8 3.75 4.15 3.8 5.25 3.9 6.2 3.8 7.35 3.6 8.7 3.4 9.85 3.3 Q11.25 3.3 12.7 4.0 14.1 4.7 15.25 6.2 L15.25 6.15 Q16.4 7.65 17.2 9.95 M10.5 4.1 Q9.95 4.05 9.4 4.85 8.95 5.5 8.95 6.45 L8.95 24.5 Q8.95 25.3 9.3 25.8 9.6 26.3 10.05 26.5 L10.0 26.5 10.95 26.8 11.0 26.8 Q12.0 26.85 12.75 25.55 13.35 24.45 13.35 22.75 L13.35 8.7 13.05 6.2 Q12.75 5.25 12.25 4.8 11.7 4.25 11.15 4.2 L10.5 4.1" fill="url(#gradient1)" fill-rule="evenodd" stroke="none"/>
  </g>
  <defs>
    <linearGradient gradientTransform="matrix(-0.0035, -0.0162, 0.0148, -0.0032, 12.45, 15.35)" gradientUnits="userSpaceOnUse" id="gradient0" spreadMethod="pad" x1="-819.2" x2="819.2">
      <stop offset="0.0" stop-color="#717171"/>
      <stop offset="1.0" stop-color="#404040"/>
    </linearGradient>
    <linearGradient gradientTransform="matrix(-0.0035, -0.0162, 0.0148, -0.0032, 12.9, 15.6)" gradientUnits="userSpaceOnUse" id="gradient1" spreadMethod="pad" x1="-819.2" x2="819.2">
      <stop offset="0.0" stop-color="#919191"/>
      <stop offset="1.0" stop-color="#717171"/>
    </linearGradient>
  </defs>
</svg>
