<?xml version="1.0" encoding="UTF-8" standalone="no"?>
<svg xmlns:xlink="http://www.w3.org/1999/xlink" height="24.75px" width="14.15px" xmlns="http://www.w3.org/2000/svg">
  <g transform="matrix(1.0, 0.0, 0.0, 1.0, -3.55, -2.9)">
    <path d="M17.05 6.35 L16.15 5.65 14.95 5.0 13.7 4.45 12.7 4.25 Q11.9 4.25 11.15 4.85 10.3 5.5 9.8 6.5 9.3 7.5 9.15 9.1 9.0 10.75 9.0 13.25 L17.2 13.25 15.55 16.9 14.8 16.25 14.05 16.05 9.0 16.05 9.1 19.65 Q9.15 21.4 9.5 22.75 9.9 24.15 10.65 25.0 11.4 25.8 12.85 25.8 L14.4 25.55 15.75 24.8 16.9 23.9 17.7 23.05 17.7 27.65 13.35 27.65 Q10.25 27.65 8.35 26.55 6.4 25.45 5.35 23.55 4.25 21.7 3.9 19.25 3.55 16.8 3.55 14.1 L3.65 12.3 4.05 9.95 4.95 7.5 Q5.6 6.2 6.65 5.2 7.65 4.2 9.2 3.55 10.75 2.9 12.9 2.9 L17.05 2.9 17.05 6.35" fill="url(#gradient0)" fill-rule="evenodd" stroke="none"/>
    <path d="M16.9 5.85 L16.8 5.75 16.75 5.75 15.55 5.05 15.5 5.05 14.25 4.5 14.2 4.5 13.05 4.25 Q12.1 4.25 11.2 4.95 10.25 5.65 9.7 6.8 9.15 7.85 9.0 9.55 8.85 11.2 8.85 13.75 L9.0 14.1 9.35 14.25 16.8 14.25 15.75 16.5 15.4 16.3 14.4 16.05 9.35 16.05 Q9.15 16.05 9.0 16.2 8.85 16.35 8.85 16.55 L8.95 20.2 Q9.0 22.0 9.4 23.4 9.8 24.9 10.65 25.85 11.5 26.8 13.2 26.8 L14.9 26.55 14.95 26.55 16.4 25.7 17.55 24.8 17.55 27.65 13.7 27.65 Q10.75 27.65 8.95 26.65 7.15 25.6 6.15 23.8 5.1 22.0 4.75 19.7 4.4 17.25 4.4 14.6 L4.5 12.85 4.9 10.6 5.75 8.2 5.75 8.25 Q6.35 7.0 7.35 6.05 8.3 5.1 9.75 4.5 L13.25 3.9 16.9 3.9 16.9 5.85" fill="url(#gradient1)" fill-rule="evenodd" stroke="none"/>
  </g>
  <defs>
    <linearGradient gradientTransform="matrix(-0.0035, -0.0162, 0.0148, -0.0032, 12.45, 15.35)" gradientUnits="userSpaceOnUse" id="gradient0" spreadMethod="pad" x1="-819.2" x2="819.2">
      <stop offset="0.0" stop-color="#717171"/>
      <stop offset="1.0" stop-color="#404040"/>
    </linearGradient>
    <linearGradient gradientTransform="matrix(-0.0035, -0.0162, 0.0148, -0.0032, 12.8, 15.85)" gradientUnits="userSpaceOnUse" id="gradient1" spreadMethod="pad" x1="-819.2" x2="819.2">
      <stop offset="0.0" stop-color="#919191"/>
      <stop offset="1.0" stop-color="#717171"/>
    </linearGradient>
  </defs>
</svg>
