<?xml version="1.0" encoding="UTF-8" standalone="no"?>
<svg xmlns:xlink="http://www.w3.org/1999/xlink" height="25.9px" width="14.05px" xmlns="http://www.w3.org/2000/svg">
  <g transform="matrix(1.0, 0.0, 0.0, 1.0, -2.5, -3.1)">
    <path d="M16.55 3.1 L16.25 4.7 15.45 6.4 14.1 7.8 Q13.25 8.35 12.15 8.35 L10.95 8.3 9.5 8.05 9.4 8.5 9.35 8.85 9.35 9.2 9.45 10.55 9.8 11.85 16.25 11.85 15.5 14.05 15.4 14.65 15.3 15.25 14.1 14.45 10.8 14.45 12.1 17.7 Q12.7 19.35 12.7 21.2 12.7 22.85 12.05 24.3 11.4 25.7 10.25 26.75 L7.75 28.4 4.8 29.0 6.55 27.05 7.6 25.55 8.05 24.2 8.15 22.9 7.75 20.8 6.85 18.2 5.9 15.4 Q5.5 13.95 5.5 12.65 L5.75 11.25 6.35 9.95 7.15 8.8 8.05 7.8 6.9 7.55 6.2 7.5 Q5.05 7.5 4.2 8.1 3.4 8.75 2.5 9.65 2.5 8.55 2.8 7.4 3.15 6.25 3.85 5.3 4.55 4.3 5.65 3.7 6.7 3.1 8.15 3.1 L10.1 3.25 11.7 3.6 13.05 3.9 14.15 4.05 15.4 3.85 16.55 3.1" fill="url(#gradient0)" fill-rule="evenodd" stroke="none"/>
    <path d="M15.95 4.7 L16.3 4.55 16.2 4.9 16.2 4.95 15.45 6.5 14.25 7.75 Q13.5 8.2 12.55 8.2 L11.45 8.15 10.0 7.9 9.65 8.0 9.4 8.3 9.35 8.75 9.3 8.85 9.3 9.05 9.25 9.2 9.25 9.55 9.35 11.0 9.75 12.4 9.95 12.6 10.2 12.7 15.95 12.7 15.45 14.25 15.45 14.3 15.35 14.75 14.8 14.4 14.5 14.3 11.2 14.3 10.9 14.4 10.75 14.7 10.75 15.0 12.05 18.25 Q12.6 19.8 12.6 21.55 12.6 23.1 12.0 24.45 L10.35 26.75 10.3 26.75 7.95 28.3 6.5 28.75 7.35 27.7 7.35 27.75 8.45 26.15 8.95 24.65 9.05 23.25 Q9.05 22.35 8.65 21.0 L7.75 18.4 7.75 18.35 Q7.2 17.05 6.8 15.65 6.4 14.25 6.4 13.0 L6.65 11.8 6.65 11.75 7.2 10.55 7.95 9.5 8.8 8.5 8.95 8.2 8.85 7.85 Q8.75 7.7 8.6 7.7 L7.4 7.4 7.35 7.4 6.6 7.35 Q5.3 7.35 4.3 8.05 L3.5 8.75 3.7 7.9 Q4.0 6.85 4.65 5.95 5.3 5.05 6.3 4.5 7.25 3.95 8.55 3.95 L10.45 4.1 12.0 4.45 13.4 4.75 13.35 4.75 14.55 4.9 16.0 4.7 15.95 4.7" fill="url(#gradient1)" fill-rule="evenodd" stroke="none"/>
  </g>
  <defs>
    <linearGradient gradientTransform="matrix(-0.0035, -0.0162, 0.0148, -0.0032, 12.45, 15.35)" gradientUnits="userSpaceOnUse" id="gradient0" spreadMethod="pad" x1="-819.2" x2="819.2">
      <stop offset="0.0" stop-color="#717171"/>
      <stop offset="1.0" stop-color="#404040"/>
    </linearGradient>
    <linearGradient gradientTransform="matrix(-0.0035, -0.0162, 0.0148, -0.0032, 12.85, 15.7)" gradientUnits="userSpaceOnUse" id="gradient1" spreadMethod="pad" x1="-819.2" x2="819.2">
      <stop offset="0.0" stop-color="#919191"/>
      <stop offset="1.0" stop-color="#717171"/>
    </linearGradient>
  </defs>
</svg>
