<?xml version="1.0" encoding="UTF-8" standalone="no"?>
<svg xmlns:xlink="http://www.w3.org/1999/xlink" height="7.15px" width="17.45px" xmlns="http://www.w3.org/2000/svg">
  <g transform="matrix(1.0, 0.0, 0.0, 1.0, 42.45, 16.2)">
    <path d="M-39.25 -9.05 L-39.25 -11.75 -35.0 -11.75 -35.0 -9.05 Q-37.2 -9.75 -39.25 -9.05" fill="#000000" fill-opacity="0.19215687" fill-rule="evenodd" stroke="none"/>
    <path d="M-41.9 -10.65 Q-42.55 -11.55 -42.45 -12.9 -42.4 -14.2 -41.45 -14.9 -40.7 -15.5 -39.35 -15.7 L-37.0 -16.0 -32.9 -16.2 -28.0 -16.0 -26.7 -15.7 -25.85 -15.1 Q-25.0 -14.25 -25.0 -13.0 -25.0 -11.75 -25.85 -10.85 -26.75 -10.0 -28.0 -10.0 -33.1 -10.95 -38.2 -10.1 -38.95 -9.95 -39.0 -9.25 L-39.95 -9.4 Q-41.2 -9.6 -41.9 -10.65" fill="url(#gradient0)" fill-rule="evenodd" stroke="none"/>
    <path d="M-39.8 -14.2 Q-37.65 -15.8 -33.6 -15.8 -28.65 -15.5 -28.1 -14.15 -28.5 -12.3 -29.15 -12.15 L-34.0 -12.0 Q-37.35 -11.75 -38.45 -11.95 -40.65 -12.3 -39.8 -14.2" fill="url(#gradient1)" fill-rule="evenodd" stroke="none"/>
    <path d="M-39.0 -9.25 L-39.95 -9.4 -40.05 -9.4 -40.85 -9.65 Q-39.65 -9.45 -38.6 -9.95 -39.0 -9.75 -39.0 -9.25" fill="#000000" fill-opacity="0.2627451" fill-rule="evenodd" stroke="none"/>
  </g>
  <defs>
    <linearGradient gradientTransform="matrix(0.0, 0.0046, -0.0042, 1.0E-4, -33.7, -12.8)" gradientUnits="userSpaceOnUse" id="gradient0" spreadMethod="pad" x1="-819.2" x2="819.2">
      <stop offset="0.17647058823529413" stop-color="#a6a6a6"/>
      <stop offset="0.38823529411764707" stop-color="#b8b8b8"/>
      <stop offset="0.8588235294117647" stop-color="#2b2b2b"/>
      <stop offset="1.0" stop-color="#2e2e2e"/>
    </linearGradient>
    <radialGradient cx="0" cy="0" gradientTransform="matrix(6.0E-4, -0.0031, 0.011, 2.0E-4, -33.9, -14.1)" gradientUnits="userSpaceOnUse" id="gradient1" r="819.2" spreadMethod="pad">
      <stop offset="0.11764705882352941" stop-color="#ffffff" stop-opacity="0.77254903"/>
      <stop offset="0.3568627450980392" stop-color="#cacaca" stop-opacity="0.7529412"/>
      <stop offset="0.6352941176470588" stop-color="#a6a6a6" stop-opacity="0.0"/>
    </radialGradient>
  </defs>
</svg>
