<?xml version="1.0" encoding="UTF-8" standalone="no"?>
<svg xmlns:xlink="http://www.w3.org/1999/xlink" height="24.9px" width="19.7px" xmlns="http://www.w3.org/2000/svg">
  <g transform="matrix(1.0, 0.0, 0.0, 1.0, -2.6, -2.9)">
    <path d="M21.65 3.55 L21.15 4.35 20.8 5.2 20.7 5.9 20.7 27.65 15.8 27.65 15.8 15.6 11.5 15.6 11.2 18.1 10.4 20.8 9.25 23.45 7.8 25.65 6.05 27.2 Q5.15 27.8 4.15 27.8 3.5 27.8 3.05 27.4 2.6 27.0 2.6 26.3 2.6 25.85 2.85 25.65 L3.45 25.45 3.9 25.55 4.2 25.7 4.55 25.9 5.1 26.0 Q5.7 26.0 6.05 25.4 L6.6 23.8 6.95 21.45 7.15 18.65 7.3 15.65 7.55 12.75 Q7.75 11.05 8.15 9.7 L8.95 7.25 Q9.4 6.2 9.9 5.5 L10.65 4.3 9.95 4.3 8.8 4.45 7.9 4.85 7.2 5.25 6.65 5.4 Q6.15 5.4 5.9 5.05 5.6 4.65 5.6 4.15 5.6 3.7 6.1 3.3 6.6 2.9 7.5 2.9 L22.3 2.9 21.65 3.55 M15.8 12.25 L15.8 4.3 12.0 4.3 11.9 8.55 11.75 12.25 15.8 12.25" fill="url(#gradient0)" fill-rule="evenodd" stroke="none"/>
    <path d="M20.8 5.4 L20.8 5.45 20.65 6.25 20.65 27.5 16.75 27.5 16.75 15.95 16.6 15.6 Q16.45 15.45 16.25 15.45 L11.95 15.45 11.6 15.6 11.45 15.95 11.15 18.35 10.4 21.0 9.25 23.6 7.9 25.7 6.25 27.15 Q5.45 27.65 4.6 27.65 L3.85 27.4 Q3.55 27.1 3.55 26.65 L3.6 26.45 Q3.75 26.3 3.9 26.3 L4.1 26.35 4.25 26.4 4.3 26.4 4.45 26.5 4.75 26.7 4.8 26.7 5.55 26.85 Q6.4 26.85 6.95 26.0 L7.55 24.25 7.55 24.3 7.9 21.85 8.1 19.05 8.25 16.05 8.5 13.15 Q8.7 11.5 9.1 10.2 L9.9 7.8 9.85 7.8 10.75 6.15 10.8 6.1 11.5 4.95 11.6 4.6 11.45 4.3 Q11.3 4.15 11.1 4.15 L10.4 4.15 9.15 4.35 9.1 4.35 8.15 4.75 7.4 5.2 7.1 5.25 Q6.85 5.25 6.75 5.1 L6.55 4.5 6.85 4.05 7.95 3.75 21.6 3.75 21.15 4.5 20.8 5.4 M16.25 4.15 L12.45 4.15 Q12.25 4.15 12.1 4.3 L11.95 4.65 11.85 8.9 11.7 12.6 11.75 12.85 11.95 13.05 12.2 13.1 16.25 13.1 16.6 12.95 16.75 12.6 16.75 4.65 16.6 4.3 Q16.45 4.15 16.25 4.15" fill="url(#gradient1)" fill-rule="evenodd" stroke="none"/>
  </g>
  <defs>
    <linearGradient gradientTransform="matrix(-0.0035, -0.0162, 0.0148, -0.0032, 12.45, 15.35)" gradientUnits="userSpaceOnUse" id="gradient0" spreadMethod="pad" x1="-819.2" x2="819.2">
      <stop offset="0.0" stop-color="#717171"/>
      <stop offset="1.0" stop-color="#404040"/>
    </linearGradient>
    <linearGradient gradientTransform="matrix(-0.0038, -0.0159, 0.0142, -0.0034, 12.55, 15.7)" gradientUnits="userSpaceOnUse" id="gradient1" spreadMethod="pad" x1="-819.2" x2="819.2">
      <stop offset="0.0" stop-color="#919191"/>
      <stop offset="1.0" stop-color="#717171"/>
    </linearGradient>
  </defs>
</svg>
