<?xml version="1.0" encoding="UTF-8" standalone="no"?>
<svg xmlns:xlink="http://www.w3.org/1999/xlink" height="25.15px" width="14.7px" xmlns="http://www.w3.org/2000/svg">
  <g transform="matrix(1.0, 0.0, 0.0, 1.0, -2.85, -2.65)">
    <path d="M11.3 5.1 L10.65 4.6 10.15 4.45 Q9.8 4.45 9.5 4.8 9.25 5.1 9.25 5.45 L9.25 12.25 10.3 11.25 11.25 10.2 11.9 8.95 12.1 7.45 11.9 6.05 11.3 5.1 M12.95 2.95 Q14.05 3.2 15.0 3.8 15.95 4.35 16.65 5.2 17.3 6.05 17.3 7.2 L13.8 9.9 17.55 12.85 17.55 23.5 16.4 25.3 14.85 26.65 13.05 27.5 11.05 27.8 9.95 27.65 8.65 27.35 7.4 27.05 6.5 26.9 5.9 27.05 5.3 27.3 4.65 27.55 3.8 27.65 3.45 27.65 3.15 27.6 2.85 27.5 3.5 26.55 4.0 25.85 4.3 25.2 4.4 24.3 4.4 5.25 3.4 4.35 Q2.95 3.8 2.95 3.4 2.95 2.95 3.1 2.85 L3.4 2.7 5.0 3.15 6.45 3.3 7.65 3.2 8.7 3.0 9.8 2.75 11.15 2.65 12.95 2.95 M9.25 23.35 L9.25 24.25 9.35 24.75 9.5 25.05 9.75 25.3 10.4 25.7 11.15 25.8 Q11.55 25.8 12.05 25.25 12.55 24.7 12.55 23.55 L12.55 14.7 10.85 13.6 9.25 15.5 9.25 23.35" fill="url(#gradient0)" fill-rule="evenodd" stroke="none"/>
    <path d="M16.7 5.85 L16.75 5.9 Q17.2 6.5 17.25 7.3 L13.95 9.85 13.8 10.1 13.8 10.4 13.95 10.65 17.5 13.45 17.5 23.75 16.5 25.35 16.45 25.35 15.05 26.6 13.35 27.4 11.5 27.65 10.55 27.55 10.5 27.5 9.25 27.25 8.0 26.95 6.95 26.75 6.15 26.95 5.55 27.2 5.0 27.45 4.25 27.5 4.1 27.5 4.3 27.25 4.35 27.25 4.9 26.4 4.9 26.5 5.25 25.7 5.35 24.65 5.35 5.6 5.3 5.4 5.15 5.2 4.25 4.4 Q3.9 4.0 3.9 3.75 L3.85 3.65 3.9 3.6 5.35 4.0 6.9 4.15 8.2 4.05 9.25 3.85 9.3 3.85 10.35 3.6 11.6 3.5 13.3 3.8 Q14.3 4.05 15.2 4.6 L16.7 5.85 M12.1 5.1 L11.3 4.5 10.6 4.3 Q10.05 4.3 9.6 4.85 9.2 5.25 9.2 5.8 L9.2 12.6 9.35 12.95 9.7 13.1 10.05 13.0 11.1 12.0 11.1 11.95 12.15 10.85 12.85 9.5 12.85 9.45 13.05 7.8 12.85 6.25 12.8 6.2 12.15 5.15 12.1 5.1 M9.2 24.7 L9.35 25.25 9.55 25.7 9.95 26.1 9.9 26.05 10.65 26.5 10.75 26.55 11.6 26.65 Q12.2 26.7 12.9 25.95 13.5 25.3 13.5 23.9 L13.5 15.05 13.45 14.8 13.3 14.65 11.6 13.55 11.25 13.45 Q11.05 13.5 10.95 13.65 L9.35 15.55 Q9.2 15.65 9.2 15.85 L9.2 23.7 9.2 24.6 9.2 24.7" fill="url(#gradient1)" fill-rule="evenodd" stroke="none"/>
  </g>
  <defs>
    <linearGradient gradientTransform="matrix(-0.0035, -0.0162, 0.0148, -0.0032, 12.45, 15.35)" gradientUnits="userSpaceOnUse" id="gradient0" spreadMethod="pad" x1="-819.2" x2="819.2">
      <stop offset="0.0" stop-color="#717171"/>
      <stop offset="1.0" stop-color="#404040"/>
    </linearGradient>
    <linearGradient gradientTransform="matrix(-0.0035, -0.0162, 0.0148, -0.0032, 12.9, 15.7)" gradientUnits="userSpaceOnUse" id="gradient1" spreadMethod="pad" x1="-819.2" x2="819.2">
      <stop offset="0.0" stop-color="#919191"/>
      <stop offset="1.0" stop-color="#717171"/>
    </linearGradient>
  </defs>
</svg>
