<?xml version="1.0" encoding="UTF-8" standalone="no"?>
<svg xmlns:xlink="http://www.w3.org/1999/xlink" height="216.0px" width="192.0px" xmlns="http://www.w3.org/2000/svg">
  <g transform="matrix(1.0, 0.0, 0.0, 1.0, 0.0, -16.0)">
    <path d="M0.0 218.0 Q0.0 216.0 2.0 216.0 L190.0 216.0 Q192.0 216.0 192.0 218.0 L192.0 230.0 Q192.0 232.0 190.0 232.0 L2.0 232.0 Q0.0 232.0 0.0 230.0 L0.0 218.0 M190.0 184.0 Q192.0 184.0 192.0 186.0 L192.0 198.0 Q192.0 200.0 190.0 200.0 L2.0 200.0 Q0.0 200.0 0.0 198.0 L0.0 186.0 Q0.0 184.0 2.0 184.0 L190.0 184.0 M192.0 142.0 Q192.0 144.0 190.0 144.0 L2.0 144.0 Q0.0 144.0 0.0 142.0 L0.0 130.0 Q0.0 128.0 2.0 128.0 L190.0 128.0 Q192.0 128.0 192.0 130.0 L192.0 142.0 M192.0 62.0 Q192.0 64.0 190.0 64.0 L2.0 64.0 Q0.0 64.0 0.0 62.0 L0.0 50.0 Q0.0 48.0 2.0 48.0 L190.0 48.0 Q192.0 48.0 192.0 50.0 L192.0 62.0 M190.0 88.0 Q192.0 88.0 192.0 90.0 L192.0 102.0 Q192.0 104.0 190.0 104.0 L2.0 104.0 Q0.0 104.0 0.0 102.0 L0.0 90.0 Q0.0 88.0 2.0 88.0 L190.0 88.0 M192.0 30.0 Q192.0 32.0 190.0 32.0 L2.0 32.0 Q0.0 32.0 0.0 30.0 L0.0 18.0 Q0.0 16.0 2.0 16.0 L190.0 16.0 Q192.0 16.0 192.0 18.0 L192.0 30.0" fill="#6f6f6e" fill-opacity="0.101960786" fill-rule="evenodd" stroke="none"/>
  </g>
</svg>
