<?xml version="1.0" encoding="UTF-8" standalone="no"?>
<svg xmlns:xlink="http://www.w3.org/1999/xlink" height="152.95px" width="31.6px" xmlns="http://www.w3.org/2000/svg">
  <g transform="matrix(1.0, 0.0, 0.0, 1.0, 23.05, 76.45)">
    <path d="M8.5 -62.7 L8.25 -60.75 8.25 -60.55 8.0 -58.7 Q7.85 -57.9 7.3 -57.3 6.7 -56.7 5.9 -56.55 5.3 -56.5 5.0 -56.1 4.65 -55.45 4.55 -54.4 L4.6 -54.35 4.85 -54.0 5.0 -54.0 Q5.95 -54.0 6.65 -53.35 7.35 -52.75 7.5 -51.8 7.6 -50.9 7.1 -50.1 L6.1 -48.6 5.95 -48.4 Q6.85 -48.3 7.75 -47.4 9.05 -46.2 8.3 -44.2 L7.85 -42.4 Q7.6 -41.55 6.95 -41.0 L6.8 -40.9 Q7.5 -40.1 7.5 -39.0 7.5 -37.8 6.65 -36.85 L6.25 -36.55 Q5.6 -29.05 5.05 -1.95 4.4 28.7 4.5 52.95 L4.5 53.05 4.55 55.05 4.6 55.05 Q5.25 55.6 5.45 56.5 5.65 57.35 5.25 58.15 L4.35 59.9 3.9 62.75 3.9 63.0 3.85 63.25 Q3.5 67.1 3.5 74.0 3.5 75.05 2.8 75.8 2.05 76.5 1.0 76.5 L-1.0 76.5 Q-2.0 76.5 -2.75 75.8 -3.5 75.05 -3.5 74.0 -3.5 67.1 -3.85 63.25 L-3.85 63.0 -3.9 62.75 -4.35 59.9 -5.2 58.15 Q-5.65 57.35 -5.45 56.5 -5.25 55.6 -4.55 55.05 L-4.5 53.05 -4.5 52.95 Q-4.4 28.7 -5.05 -1.95 -5.6 -29.05 -6.25 -36.55 L-6.6 -36.85 Q-7.5 -37.8 -7.5 -39.0 -7.5 -40.1 -6.8 -40.95 L-6.9 -41.0 Q-7.6 -41.55 -7.8 -42.4 L-8.25 -44.2 Q-8.65 -45.3 -8.55 -46.0 -8.4 -46.7 -7.7 -47.4 -6.8 -48.3 -5.9 -48.4 L-6.05 -48.6 -7.05 -50.1 Q-7.6 -50.9 -7.45 -51.8 -7.35 -52.75 -6.65 -53.35 L-6.5 -53.45 -6.55 -53.5 Q-7.0 -54.1 -7.05 -54.75 -7.15 -55.45 -6.85 -56.1 -6.05 -57.9 -6.2 -59.2 L-7.25 -59.1 Q-8.05 -59.25 -8.6 -59.8 L-8.9 -60.15 -8.95 -60.15 Q-8.75 -59.95 -8.95 -59.45 -9.25 -58.7 -9.95 -58.25 -10.65 -57.8 -11.45 -57.85 L-12.3 -57.6 -12.55 -57.3 -12.15 -56.8 Q-11.75 -56.2 -11.75 -55.45 -11.75 -54.7 -12.15 -54.1 -13.3 -52.3 -15.35 -52.2 -16.15 -52.15 -16.8 -52.55 -18.55 -52.3 -20.45 -53.55 L-21.25 -54.35 -21.6 -55.45 -21.85 -59.15 Q-22.3 -59.95 -22.35 -61.4 L-22.3 -61.3 -22.35 -62.7 -22.55 -63.1 -22.55 -63.15 Q-22.95 -64.05 -23.05 -65.5 L-23.05 -65.65 -22.75 -67.95 -22.7 -68.05 Q-22.4 -69.2 -20.2 -71.75 -19.1 -73.05 -18.8 -74.4 -18.6 -75.4 -17.75 -76.0 -16.9 -76.6 -15.9 -76.4 -14.85 -76.2 -14.25 -75.35 -12.85 -73.75 -13.8 -70.6 L-13.85 -70.3 -13.6 -70.45 Q-9.65 -72.5 -5.5 -71.85 0.55 -71.1 4.1 -65.25 L5.8 -65.5 7.2 -65.2 8.25 -64.15 8.5 -62.7" fill="#000000" fill-rule="evenodd" stroke="none"/>
    <path d="M2.0 59.0 L-2.0 59.0 -3.0 57.0 3.0 57.0 2.0 59.0" fill="url(#gradient0)" fill-rule="evenodd" stroke="none"/>
    <path d="M0.0 74.0 L-1.0 74.0 Q-1.0 66.95 -1.35 63.0 L-1.4 62.5 1.4 62.5 1.35 63.0 Q1.0 66.95 1.0 74.0 L0.0 74.0" fill="url(#gradient1)" fill-rule="evenodd" stroke="none"/>
    <path d="M1.4 62.5 L-1.4 62.5 Q-1.65 60.15 -2.0 59.0 L2.0 59.0 Q1.65 60.1 1.4 62.5" fill="url(#gradient2)" fill-rule="evenodd" stroke="none"/>
    <path d="M2.0 60.0 L-2.0 60.0 -2.0 59.0 2.0 59.0 2.0 60.0" fill="#2c210d" fill-opacity="0.5019608" fill-rule="evenodd" stroke="none"/>
    <path d="M2.1 55.9 Q2.15 56.8 2.6 57.0 L0.0 57.0 -2.65 57.0 Q-2.2 56.8 -2.1 55.9 L-2.0 53.0 0.0 53.0 2.0 53.0 2.1 55.9" fill="url(#gradient3)" fill-rule="evenodd" stroke="none"/>
    <path d="M2.55 -2.0 Q1.9 28.75 2.0 53.0 L0.0 53.0 -2.0 53.0 Q-1.9 28.75 -2.55 -2.0 -3.2 -34.2 -4.0 -39.0 L4.0 -39.0 Q3.2 -34.2 2.55 -2.0" fill="url(#gradient4)" fill-rule="evenodd" stroke="none"/>
    <path d="M4.35 -41.55 L4.0 -39.0 -4.0 -39.0 -4.35 -41.55 Q-4.6 -42.8 -5.0 -43.0 L0.0 -43.0 5.0 -43.0 Q4.6 -42.8 4.35 -41.55" fill="url(#gradient5)" fill-rule="evenodd" stroke="none"/>
    <path d="M3.3 -28.3 L3.0 -32.6 3.75 -37.0 -3.75 -37.0 -3.0 -32.6 -3.25 -28.3 -3.75 -36.2 -4.0 -39.0 4.0 -39.0 3.8 -37.05 3.8 -37.0 Q3.5 -34.1 3.3 -28.3" fill="url(#gradient6)" fill-rule="evenodd" stroke="none"/>
    <path d="M3.0 -32.6 Q2.0 -29.7 0.0 -27.6 -2.0 -29.7 -3.0 -32.6 -2.15 -35.35 -2.0 -37.0 L0.0 -37.0 2.0 -37.0 Q2.15 -35.35 3.0 -32.6 M0.0 -37.0 Q-0.15 -35.0 -1.0 -32.6 L0.0 -30.5 1.0 -32.6 Q0.15 -35.0 0.0 -37.0" fill="url(#gradient7)" fill-rule="evenodd" stroke="none"/>
    <path d="M0.0 -37.0 Q0.15 -35.0 1.0 -32.6 L0.0 -30.5 -1.0 -32.6 Q-0.15 -35.0 0.0 -37.0" fill="url(#gradient8)" fill-rule="evenodd" stroke="none"/>
    <path d="M0.0 -39.0 L-1.75 -39.0 -1.5 -39.5 -4.1 -39.5 -3.1 -43.0 -1.5 -39.55 0.0 -43.0 1.5 -39.55 3.1 -43.0 4.1 -39.5 1.5 -39.5 1.75 -39.0 0.0 -39.0" fill="url(#gradient9)" fill-rule="evenodd" stroke="none"/>
    <path d="M4.5 -39.5 L4.85 -39.35 5.0 -39.0 4.85 -38.65 4.5 -38.5 -4.5 -38.5 -4.85 -38.65 -5.0 -39.0 -4.85 -39.35 -4.5 -39.5 4.5 -39.5" fill="url(#gradient10)" fill-rule="evenodd" stroke="none"/>
    <path d="M5.9 -45.0 L5.4 -43.0 -5.4 -43.0 -5.9 -45.0 Q-6.3 -46.0 -5.0 -46.0 L5.0 -46.0 Q6.3 -46.0 5.9 -45.0" fill="url(#gradient11)" fill-rule="evenodd" stroke="none"/>
    <path d="M2.5 -48.0 Q2.6 -47.1 3.5 -46.0 L0.0 -46.0 -3.5 -46.0 Q-2.6 -47.1 -2.5 -48.0 L0.0 -48.0 2.5 -48.0" fill="url(#gradient12)" fill-rule="evenodd" stroke="none"/>
    <path d="M3.5 -50.0 Q2.7 -49.1 2.5 -48.0 L-2.5 -48.0 Q-2.7 -49.1 -3.5 -50.0 L0.0 -50.0 3.5 -50.0" fill="url(#gradient13)" fill-rule="evenodd" stroke="none"/>
    <path d="M4.0 -50.0 L-4.0 -50.0 -5.0 -51.5 5.0 -51.5 4.0 -50.0" fill="url(#gradient14)" fill-rule="evenodd" stroke="none"/>
    <path d="M2.5 -53.0 L3.5 -51.5 -3.5 -51.5 -2.5 -53.0 0.0 -53.0 2.5 -53.0" fill="url(#gradient15)" fill-rule="evenodd" stroke="none"/>
    <path d="M0.3 -53.0 Q0.4 -57.25 1.95 -59.15 3.2 -60.65 5.75 -60.9 L5.5 -59.05 Q3.65 -58.75 2.85 -57.4 2.0 -56.0 2.0 -53.0 L0.3 -53.0" fill="url(#gradient16)" fill-rule="evenodd" stroke="none"/>
    <path d="M0.6 -60.1 Q1.2 -61.05 3.0 -62.0 L2.85 -62.3 6.0 -63.0 5.75 -60.9 Q3.2 -60.65 1.95 -59.15 0.4 -57.25 0.3 -53.0 L-2.0 -53.0 Q-1.95 -54.0 -2.45 -54.55 L-3.15 -55.0 0.0 -57.0 Q-0.15 -59.0 0.6 -60.1" fill="url(#gradient17)" fill-rule="evenodd" stroke="none"/>
    <path d="M3.25 -61.45 Q1.5 -60.5 1.0 -59.65 0.35 -58.65 0.5 -56.65 L-3.85 -53.85 -4.35 -54.5 Q-3.65 -56.1 -3.4 -57.4 L2.8 -62.4 3.25 -61.45" fill="#000000" fill-opacity="0.4" fill-rule="evenodd" stroke="none"/>
    <path d="M0.6 -60.1 Q-0.15 -59.0 0.0 -57.0 L-4.1 -54.4 -4.6 -55.05 Q-2.2 -60.3 -5.5 -62.95 -8.9 -65.65 -14.0 -61.0 L-17.3 -64.5 Q-11.85 -70.25 -5.85 -69.4 0.0 -68.55 3.0 -62.0 1.2 -61.05 0.6 -60.1" fill="url(#gradient18)" fill-rule="evenodd" stroke="none"/>
    <path d="M-17.35 -62.4 L-17.15 -65.2 Q-16.9 -65.0 -16.45 -65.35 -15.95 -65.75 -15.9 -66.3 L-15.45 -67.75 Q-15.1 -68.55 -14.75 -68.3 -14.0 -67.7 -13.45 -66.05 -12.95 -64.45 -13.45 -64.15 L-14.05 -63.8 -14.2 -63.2 -13.8 -61.6 -15.55 -61.95 -17.35 -62.4" fill="#000000" fill-opacity="0.4" fill-rule="evenodd" stroke="none"/>
    <path d="M-14.85 -61.9 Q-14.15 -63.0 -12.65 -63.6 L-9.6 -63.7 Q-12.1 -62.75 -14.0 -61.0 L-14.85 -61.9" fill="url(#gradient19)" fill-rule="evenodd" stroke="none"/>
    <path d="M-7.95 -63.3 Q-7.05 -62.75 -6.9 -61.6 -8.05 -62.7 -9.05 -62.65 -10.45 -62.6 -11.3 -60.35 -12.9 -60.45 -14.5 -59.15 L-14.85 -60.65 -14.0 -61.0 Q-12.25 -62.95 -10.1 -63.55 -8.85 -63.9 -7.95 -63.3" fill="url(#gradient20)" fill-rule="evenodd" stroke="none"/>
    <path d="M-20.35 -67.25 L-18.3 -70.15 Q-16.7 -72.0 -16.35 -73.95 -15.4 -72.55 -17.1 -69.1 -18.7 -66.0 -16.35 -64.1 -16.2 -64.8 -16.3 -66.5 L-15.85 -67.95 Q-15.5 -68.75 -15.15 -68.5 -14.4 -67.9 -13.85 -66.25 -13.35 -64.65 -13.85 -64.35 -14.95 -63.75 -14.9 -63.1 L-13.2 -61.65 Q-13.0 -60.6 -14.5 -58.9 -15.95 -57.25 -15.7 -56.1 L-14.25 -55.45 Q-14.7 -54.75 -15.5 -54.7 L-16.4 -55.35 Q-17.65 -54.7 -19.1 -55.65 L-19.45 -60.15 Q-19.8 -60.45 -19.85 -61.55 L-19.8 -63.05 -20.25 -64.1 -20.55 -65.65 -20.35 -67.25" fill="url(#gradient21)" fill-rule="evenodd" stroke="none"/>
    <path d="M-18.8 -60.1 L-17.9 -61.25 -17.8 -59.95 -18.8 -60.1" fill="#000000" fill-rule="evenodd" stroke="none"/>
    <path d="M5.0 -49.0 L-5.0 -49.0 -5.0 -50.0 5.0 -50.0 5.0 -49.0" fill="#46331c" fill-opacity="0.2509804" fill-rule="evenodd" stroke="none"/>
  </g>
  <defs>
    <radialGradient cx="0" cy="0" gradientTransform="matrix(0.0037, 0.0, 0.0, 0.0067, 0.0, 58.9)" gradientUnits="userSpaceOnUse" id="gradient0" r="819.2" spreadMethod="pad">
      <stop offset="0.1450980392156863" stop-color="#a88834"/>
      <stop offset="0.39215686274509803" stop-color="#5b491a"/>
      <stop offset="0.6470588235294118" stop-color="#2b200d"/>
      <stop offset="0.9529411764705882" stop-color="#4a3417"/>
    </radialGradient>
    <radialGradient cx="0" cy="0" gradientTransform="matrix(0.0026, 0.0, 0.0, 0.0465, 0.0, 62.85)" gradientUnits="userSpaceOnUse" id="gradient1" r="819.2" spreadMethod="pad">
      <stop offset="0.06666666666666667" stop-color="#b99f28"/>
      <stop offset="0.14901960784313725" stop-color="#a88834"/>
      <stop offset="0.4196078431372549" stop-color="#5c451b"/>
      <stop offset="0.7764705882352941" stop-color="#554a1c"/>
    </radialGradient>
    <radialGradient cx="0" cy="0" gradientTransform="matrix(0.0034, 0.0, 0.0, 0.0318, 0.0, 57.75)" gradientUnits="userSpaceOnUse" id="gradient2" r="819.2" spreadMethod="pad">
      <stop offset="0.06666666666666667" stop-color="#b89d23"/>
      <stop offset="0.1450980392156863" stop-color="#a88834"/>
      <stop offset="0.3568627450980392" stop-color="#594011"/>
      <stop offset="0.6" stop-color="#64521c"/>
    </radialGradient>
    <radialGradient cx="0" cy="0" gradientTransform="matrix(0.0037, 0.0, 0.0, 0.016, 0.0, 56.95)" gradientUnits="userSpaceOnUse" id="gradient3" r="819.2" spreadMethod="pad">
      <stop offset="0.0784313725490196" stop-color="#e6d175"/>
      <stop offset="0.27058823529411763" stop-color="#a88834"/>
      <stop offset="0.5647058823529412" stop-color="#5b491a"/>
      <stop offset="0.9529411764705882" stop-color="#a78934"/>
    </radialGradient>
    <radialGradient cx="0" cy="0" gradientTransform="matrix(0.0051, 0.0, 0.0, 0.9461, 0.0, -70.0)" gradientUnits="userSpaceOnUse" id="gradient4" r="819.2" spreadMethod="pad">
      <stop offset="0.11372549019607843" stop-color="#f0f0f0"/>
      <stop offset="0.34509803921568627" stop-color="#cdcdcd"/>
      <stop offset="0.596078431372549" stop-color="#adadad"/>
      <stop offset="0.7372549019607844" stop-color="#b4b4b4"/>
      <stop offset="0.8862745098039215" stop-color="#d5d5d5"/>
    </radialGradient>
    <radialGradient cx="0" cy="0" gradientTransform="matrix(0.0073, 0.0, 0.0, 0.7261, 0.0, -43.0)" gradientUnits="userSpaceOnUse" id="gradient5" r="819.2" spreadMethod="pad">
      <stop offset="0.047058823529411764" stop-color="#59a6f2"/>
      <stop offset="0.3137254901960784" stop-color="#3048ab"/>
      <stop offset="0.5098039215686274" stop-color="#172753"/>
      <stop offset="0.6274509803921569" stop-color="#142147"/>
      <stop offset="0.8196078431372549" stop-color="#263f84"/>
    </radialGradient>
    <radialGradient cx="0" cy="0" gradientTransform="matrix(0.0073, 0.0, 0.0, 0.187, 0.0, -43.0)" gradientUnits="userSpaceOnUse" id="gradient6" r="819.2" spreadMethod="pad">
      <stop offset="0.07058823529411765" stop-color="#e3cb5b"/>
      <stop offset="0.17647058823529413" stop-color="#c5a23a"/>
      <stop offset="0.2823529411764706" stop-color="#b09440"/>
      <stop offset="0.5529411764705883" stop-color="#473514"/>
      <stop offset="0.6705882352941176" stop-color="#775933"/>
    </radialGradient>
    <radialGradient cx="0" cy="0" gradientTransform="matrix(0.0073, 0.0, 0.0, 0.187, 0.0, -43.0)" gradientUnits="userSpaceOnUse" id="gradient7" r="819.2" spreadMethod="pad">
      <stop offset="0.07058823529411765" stop-color="#e3cb5b"/>
      <stop offset="0.17647058823529413" stop-color="#c5a23a"/>
      <stop offset="0.2823529411764706" stop-color="#b09440"/>
      <stop offset="0.5882352941176471" stop-color="#473514"/>
      <stop offset="0.9450980392156862" stop-color="#846326"/>
    </radialGradient>
    <radialGradient cx="0" cy="0" gradientTransform="matrix(0.0073, 0.0, 0.0, 0.7261, 0.0, -43.0)" gradientUnits="userSpaceOnUse" id="gradient8" r="819.2" spreadMethod="pad">
      <stop offset="0.0" stop-color="#1b6ad6"/>
      <stop offset="0.1411764705882353" stop-color="#3048ab"/>
      <stop offset="0.5098039215686274" stop-color="#172753"/>
      <stop offset="0.6274509803921569" stop-color="#142147"/>
      <stop offset="0.8196078431372549" stop-color="#263f84"/>
    </radialGradient>
    <radialGradient cx="0" cy="0" gradientTransform="matrix(0.0073, 0.0, 0.0, 0.7261, 0.0, -43.0)" gradientUnits="userSpaceOnUse" id="gradient9" r="819.2" spreadMethod="pad">
      <stop offset="0.1411764705882353" stop-color="#f0f0f0"/>
      <stop offset="0.2627450980392157" stop-color="#cdcdcd"/>
      <stop offset="0.5490196078431373" stop-color="#808080"/>
      <stop offset="0.8627450980392157" stop-color="#717171"/>
      <stop offset="1.0" stop-color="#a6a6a6"/>
    </radialGradient>
    <radialGradient cx="0" cy="0" gradientTransform="matrix(0.0073, 0.0, 0.0, 0.0015, 0.0, -39.0)" gradientUnits="userSpaceOnUse" id="gradient10" r="819.2" spreadMethod="pad">
      <stop offset="0.08627450980392157" stop-color="#faee8b"/>
      <stop offset="0.1843137254901961" stop-color="#d3c06b"/>
      <stop offset="0.3254901960784314" stop-color="#a3893f"/>
      <stop offset="0.7372549019607844" stop-color="#3c2f0b"/>
      <stop offset="0.8549019607843137" stop-color="#50421b"/>
      <stop offset="1.0" stop-color="#67582e"/>
    </radialGradient>
    <radialGradient cx="0" cy="0" gradientTransform="matrix(0.0079, 0.0, 0.0, 0.0213, 0.0, -43.05)" gradientUnits="userSpaceOnUse" id="gradient11" r="819.2" spreadMethod="pad">
      <stop offset="0.07450980392156863" stop-color="#fcf3ad"/>
      <stop offset="0.24313725490196078" stop-color="#dfbe60"/>
      <stop offset="0.39215686274509803" stop-color="#97813e"/>
      <stop offset="0.6823529411764706" stop-color="#382c07"/>
      <stop offset="0.8549019607843137" stop-color="#50421b"/>
      <stop offset="1.0" stop-color="#68582d"/>
    </radialGradient>
    <radialGradient cx="0" cy="0" gradientTransform="matrix(0.0061, 0.0, 0.0, 0.0108, 0.0, -48.0)" gradientUnits="userSpaceOnUse" id="gradient12" r="819.2" spreadMethod="pad">
      <stop offset="0.0784313725490196" stop-color="#ecd775"/>
      <stop offset="0.18823529411764706" stop-color="#d7bd68"/>
      <stop offset="0.3568627450980392" stop-color="#97813e"/>
      <stop offset="0.6313725490196078" stop-color="#382c07"/>
      <stop offset="0.8196078431372549" stop-color="#50421b"/>
      <stop offset="1.0" stop-color="#68582d"/>
    </radialGradient>
    <radialGradient cx="0" cy="0" gradientTransform="matrix(0.0052, 0.0, 0.0, 0.0114, 0.0, -50.0)" gradientUnits="userSpaceOnUse" id="gradient13" r="819.2" spreadMethod="pad">
      <stop offset="0.11764705882352941" stop-color="#d7bd68"/>
      <stop offset="0.3411764705882353" stop-color="#97813e"/>
      <stop offset="0.6313725490196078" stop-color="#382c07"/>
      <stop offset="0.8196078431372549" stop-color="#50421b"/>
      <stop offset="1.0" stop-color="#68582d"/>
    </radialGradient>
    <radialGradient cx="0" cy="0" gradientTransform="matrix(0.0064, 0.0, 0.0, 0.0132, 0.0, -51.15)" gradientUnits="userSpaceOnUse" id="gradient14" r="819.2" spreadMethod="pad">
      <stop offset="0.06666666666666667" stop-color="#b8b8b8"/>
      <stop offset="0.13725490196078433" stop-color="#9f9f9f"/>
      <stop offset="0.3686274509803922" stop-color="#606060"/>
      <stop offset="0.6627450980392157" stop-color="#232323"/>
      <stop offset="0.788235294117647" stop-color="#272727"/>
      <stop offset="0.8784313725490196" stop-color="#353535"/>
    </radialGradient>
    <radialGradient cx="0" cy="0" gradientTransform="matrix(0.0056, 0.0, 0.0, 0.0087, 0.0, -53.0)" gradientUnits="userSpaceOnUse" id="gradient15" r="819.2" spreadMethod="pad">
      <stop offset="0.047058823529411764" stop-color="#dfdfdf"/>
      <stop offset="0.15294117647058825" stop-color="#9f9f9f"/>
      <stop offset="0.27058823529411763" stop-color="#717171"/>
      <stop offset="0.5764705882352941" stop-color="#232323"/>
      <stop offset="0.8823529411764706" stop-color="#4a4a4a"/>
    </radialGradient>
    <linearGradient gradientTransform="matrix(0.0053, -0.0034, 0.0026, 0.004, 3.05, -56.9)" gradientUnits="userSpaceOnUse" id="gradient16" spreadMethod="pad" x1="-819.2" x2="819.2">
      <stop offset="0.0" stop-color="#717171"/>
      <stop offset="0.2980392156862745" stop-color="#4a4a4a"/>
      <stop offset="0.43137254901960786" stop-color="#313131"/>
      <stop offset="0.6196078431372549" stop-color="#2b2b2b"/>
      <stop offset="0.7215686274509804" stop-color="#2c2c2c"/>
      <stop offset="0.8588235294117647" stop-color="#353535"/>
    </linearGradient>
    <linearGradient gradientTransform="matrix(0.0072, -0.0033, 0.0025, 0.0055, 1.1, -58.95)" gradientUnits="userSpaceOnUse" id="gradient17" spreadMethod="pad" x1="-819.2" x2="819.2">
      <stop offset="0.12941176470588237" stop-color="#4a4a4a"/>
      <stop offset="0.3764705882352941" stop-color="#353535"/>
      <stop offset="0.6588235294117647" stop-color="#6b6b6b"/>
      <stop offset="0.7450980392156863" stop-color="#717171"/>
      <stop offset="0.9176470588235294" stop-color="#4e4e4e"/>
    </linearGradient>
    <radialGradient cx="0" cy="0" gradientTransform="matrix(0.0128, 0.0036, -0.0036, 0.0131, -7.6, -58.6)" gradientUnits="userSpaceOnUse" id="gradient18" r="819.2" spreadMethod="pad">
      <stop offset="0.28627450980392155" stop-color="#353535"/>
      <stop offset="0.396078431372549" stop-color="#4e4e4e"/>
      <stop offset="0.5333333333333333" stop-color="#232323"/>
      <stop offset="0.6352941176470588" stop-color="#232323"/>
      <stop offset="0.788235294117647" stop-color="#636363"/>
      <stop offset="0.8235294117647058" stop-color="#808080"/>
      <stop offset="0.8588235294117647" stop-color="#808080"/>
      <stop offset="0.8980392156862745" stop-color="#555555"/>
    </radialGradient>
    <radialGradient cx="0" cy="0" fx="-1612.8000000000002" fy="0" gradientTransform="matrix(0.0053, -0.0023, 0.0013, 0.0031, -12.65, -62.2)" gradientUnits="userSpaceOnUse" id="gradient19" r="819.2" spreadMethod="pad">
      <stop offset="0.00784313725490196" stop-color="#808080"/>
      <stop offset="0.3607843137254902" stop-color="#555555"/>
      <stop offset="0.8784313725490196" stop-color="#353535"/>
    </radialGradient>
    <radialGradient cx="0" cy="0" fx="16.0" fy="0" gradientTransform="matrix(-0.0013, -0.0051, 0.0084, -0.0022, -11.4, -60.95)" gradientUnits="userSpaceOnUse" id="gradient20" r="819.2" spreadMethod="pad">
      <stop offset="0.13725490196078433" stop-color="#7b7b7b"/>
      <stop offset="0.3137254901960784" stop-color="#555555"/>
      <stop offset="0.6980392156862745" stop-color="#181818"/>
    </radialGradient>
    <radialGradient cx="0" cy="0" fx="227.20000000000002" fy="0" gradientTransform="matrix(0.0015, -0.0154, 0.009, 9.0E-4, -18.75, -59.3)" gradientUnits="userSpaceOnUse" id="gradient21" r="819.2" spreadMethod="pad">
      <stop offset="0.027450980392156862" stop-color="#c2c2c2"/>
      <stop offset="0.0784313725490196" stop-color="#8a8a8a"/>
      <stop offset="0.2823529411764706" stop-color="#666666"/>
      <stop offset="0.40784313725490196" stop-color="#3c3c3c"/>
      <stop offset="0.5176470588235295" stop-color="#4a4a4a"/>
      <stop offset="0.6823529411764706" stop-color="#606060"/>
      <stop offset="0.8313725490196079" stop-color="#6d6d6d"/>
      <stop offset="0.8980392156862745" stop-color="#6d6d6d"/>
      <stop offset="0.984313725490196" stop-color="#636363"/>
    </radialGradient>
  </defs>
</svg>
