<?xml version="1.0" encoding="UTF-8" standalone="no"?>
<svg xmlns:xlink="http://www.w3.org/1999/xlink" height="43.95px" width="44.0px" xmlns="http://www.w3.org/2000/svg">
  <g transform="matrix(1.0, 0.0, 0.0, 1.0, 22.0, 21.95)">
    <path d="M2.45 -2.7 Q4.15 -1.0 11.55 -0.75 L21.05 -0.45 Q22.95 -0.2 21.05 0.25 L11.4 0.6 Q4.1 0.75 2.45 2.4 0.7 4.15 0.5 11.55 L0.3 21.0 Q0.1 22.05 -0.1 22.0 L-0.4 21.0 -0.7 11.4 Q-0.95 4.1 -2.65 2.4 -4.2 0.85 -11.5 0.6 L-21.2 0.25 Q-22.75 -0.15 -21.2 -0.45 L-11.55 -0.8 Q-4.25 -1.05 -2.65 -2.7 -1.0 -4.3 -0.75 -11.6 L-0.4 -21.25 Q-0.15 -22.65 0.3 -21.25 L0.7 -11.5 Q0.9 -4.25 2.45 -2.7" fill="url(#gradient0)" fill-rule="evenodd" stroke="none"/>
  </g>
  <defs>
    <radialGradient cx="0" cy="0" gradientTransform="matrix(0.0065, 0.0, 0.0, 0.0065, 0.05, 0.05)" gradientUnits="userSpaceOnUse" id="gradient0" r="819.2" spreadMethod="pad">
      <stop offset="0.0" stop-color="#ffffff"/>
      <stop offset="0.4980392156862745" stop-color="#d8fce6"/>
      <stop offset="1.0" stop-color="#9df7ca"/>
    </radialGradient>
  </defs>
</svg>
