<?xml version="1.0" encoding="UTF-8" standalone="no"?>
<svg xmlns:xlink="http://www.w3.org/1999/xlink" height="153.9px" width="35.65px" xmlns="http://www.w3.org/2000/svg">
  <g transform="matrix(1.0, 0.0, 0.0, 1.0, 17.9, -258.55)">
    <path d="M2.3 284.05 Q2.85 288.85 3.55 292.25 4.35 296.1 5.55 299.65 L9.1 308.45 12.55 317.35 Q16.1 327.5 16.25 335.5 16.1 343.5 12.55 353.65 L9.1 362.55 5.55 371.35 Q4.35 374.9 3.55 378.75 2.85 382.2 2.3 386.95 L1.3 397.25 0.0 410.95 -2.35 386.95 Q-2.95 382.2 -3.7 378.75 -4.5 374.95 -5.7 371.35 L-9.25 362.55 -12.7 353.65 Q-16.25 343.5 -16.4 335.5 -16.25 327.5 -12.7 317.35 L-9.25 308.45 -5.7 299.65 Q-4.5 296.05 -3.7 292.25 -2.95 288.8 -2.35 284.05 L-1.3 273.75 0.0 260.05 1.3 273.75 2.3 284.05" fill="url(#gradient0)" fill-rule="evenodd" stroke="none"/>
    <path d="M2.3 284.05 L1.3 273.75 0.0 260.05 -1.3 273.75 -2.35 284.05 Q-2.95 288.8 -3.7 292.25 -4.5 296.05 -5.7 299.65 L-9.25 308.45 -12.7 317.35 Q-16.25 327.5 -16.4 335.5 -16.25 343.5 -12.7 353.65 L-9.25 362.55 -5.7 371.35 Q-4.5 374.95 -3.7 378.75 -2.95 382.2 -2.35 386.95 L0.0 410.95 1.3 397.25 2.3 386.95 Q2.85 382.2 3.55 378.75 4.35 374.9 5.55 371.35 L9.1 362.55 12.55 353.65 Q16.1 343.5 16.25 335.5 16.1 327.5 12.55 317.35 L9.1 308.45 5.55 299.65 Q4.35 296.1 3.55 292.25 2.85 288.85 2.3 284.05 Z" fill="none" stroke="#000000" stroke-linecap="round" stroke-linejoin="round" stroke-width="3.0"/>
  </g>
  <defs>
    <linearGradient gradientTransform="matrix(0.0, 0.0976, -0.092, 0.0, 0.0, 335.55)" gradientUnits="userSpaceOnUse" id="gradient0" spreadMethod="pad" x1="-819.2" x2="819.2">
      <stop offset="0.0" stop-color="#b056c5"/>
      <stop offset="1.0" stop-color="#000000"/>
    </linearGradient>
  </defs>
</svg>
