<?xml version="1.0" encoding="UTF-8" standalone="no"?>
<svg xmlns:xlink="http://www.w3.org/1999/xlink" height="153.9px" width="23.25px" xmlns="http://www.w3.org/2000/svg">
  <g transform="matrix(1.0, 0.0, 0.0, 1.0, 11.7, -258.55)">
    <path d="M1.15 288.4 Q1.25 295.65 1.65 299.6 2.1 304.95 3.3 308.35 L6.75 318.85 8.7 325.15 9.6 329.9 10.05 335.5 9.6 341.1 8.7 345.85 6.75 352.15 3.3 362.65 Q2.1 366.05 1.65 371.4 1.25 375.35 1.15 382.6 L0.95 395.9 Q0.7 404.15 0.0 410.95 -0.7 404.15 -0.95 395.9 L-1.25 382.6 Q-1.35 375.35 -1.75 371.4 -2.25 366.05 -3.45 362.65 L-6.9 352.15 -8.8 345.85 -9.75 341.1 -10.2 335.5 -9.75 329.9 Q-9.45 327.55 -8.8 325.15 L-6.9 318.85 -3.45 308.35 Q-2.25 304.95 -1.75 299.6 -1.35 295.65 -1.25 288.4 L-0.95 275.1 Q-0.7 266.85 0.0 260.05 0.7 266.85 0.95 275.1 L1.15 288.4" fill="url(#gradient0)" fill-rule="evenodd" stroke="none"/>
    <path d="M1.15 288.4 Q1.25 295.65 1.65 299.6 2.1 304.95 3.3 308.35 L6.75 318.85 8.7 325.15 9.6 329.9 10.05 335.5 9.6 341.1 8.7 345.85 6.75 352.15 3.3 362.65 Q2.1 366.05 1.65 371.4 1.25 375.35 1.15 382.6 L0.95 395.9 Q0.7 404.15 0.0 410.95 -0.7 404.15 -0.95 395.9 L-1.25 382.6 Q-1.35 375.35 -1.75 371.4 -2.25 366.05 -3.45 362.65 L-6.9 352.15 -8.8 345.85 -9.75 341.1 -10.2 335.5 -9.75 329.9 Q-9.45 327.55 -8.8 325.15 L-6.9 318.85 -3.45 308.35 Q-2.25 304.95 -1.75 299.6 -1.35 295.65 -1.25 288.4 L-0.95 275.1 Q-0.7 266.85 0.0 260.05 0.7 266.85 0.95 275.1 L1.15 288.4 Z" fill="none" stroke="#000000" stroke-linecap="round" stroke-linejoin="round" stroke-width="3.0"/>
  </g>
  <defs>
    <linearGradient gradientTransform="matrix(0.0, 0.0976, -0.092, 0.0, 0.0, 335.55)" gradientUnits="userSpaceOnUse" id="gradient0" spreadMethod="pad" x1="-819.2" x2="819.2">
      <stop offset="0.0" stop-color="#b056c5"/>
      <stop offset="1.0" stop-color="#000000"/>
    </linearGradient>
  </defs>
</svg>
