<?xml version="1.0" encoding="UTF-8" standalone="no"?>
<svg xmlns:xlink="http://www.w3.org/1999/xlink" height="153.65px" width="9.25px" xmlns="http://www.w3.org/2000/svg">
  <g transform="matrix(1.0, 0.0, 0.0, 1.0, 4.7, -258.65)">
    <path d="M0.6 278.15 L0.65 298.5 Q0.65 310.6 0.9 316.95 1.25 325.75 2.15 329.45 L2.7 332.15 3.05 335.5 2.7 338.85 2.15 341.55 Q1.25 345.25 0.9 354.05 0.65 360.4 0.65 372.5 L0.6 392.85 Q0.5 404.05 0.0 410.8 -0.5 404.1 -0.6 392.85 L-0.7 372.5 -1.0 354.05 Q-1.4 345.25 -2.3 341.55 L-2.85 338.85 -3.2 335.5 -2.85 332.15 -2.3 329.45 Q-1.4 325.75 -1.0 316.95 L-0.7 298.5 -0.6 278.15 Q-0.5 266.85 0.0 260.15 0.5 266.9 0.6 278.15" fill="url(#gradient0)" fill-rule="evenodd" stroke="none"/>
    <path d="M0.6 278.15 L0.65 298.5 Q0.65 310.6 0.9 316.95 1.25 325.75 2.15 329.45 L2.7 332.15 3.05 335.5 2.7 338.85 2.15 341.55 Q1.25 345.25 0.9 354.05 0.65 360.4 0.65 372.5 L0.6 392.85 Q0.5 404.05 0.0 410.8 -0.5 404.1 -0.6 392.85 L-0.7 372.5 -1.0 354.05 Q-1.4 345.25 -2.3 341.55 L-2.85 338.85 -3.2 335.5 -2.85 332.15 -2.3 329.45 Q-1.4 325.75 -1.0 316.95 L-0.7 298.5 -0.6 278.15 Q-0.5 266.85 0.0 260.15 0.5 266.9 0.6 278.15 Z" fill="none" stroke="#000000" stroke-linecap="round" stroke-linejoin="round" stroke-width="3.0"/>
  </g>
  <defs>
    <linearGradient gradientTransform="matrix(0.0, 0.0976, -0.092, 0.0, 0.0, 335.55)" gradientUnits="userSpaceOnUse" id="gradient0" spreadMethod="pad" x1="-819.2" x2="819.2">
      <stop offset="0.0" stop-color="#b056c5"/>
      <stop offset="1.0" stop-color="#000000"/>
    </linearGradient>
  </defs>
</svg>
