<?xml version="1.0" encoding="UTF-8" standalone="no"?>
<svg xmlns:xlink="http://www.w3.org/1999/xlink" height="12.9px" width="42.25px" xmlns="http://www.w3.org/2000/svg">
  <g transform="matrix(1.0, 0.0, 0.0, 1.0, -11.4, -17.15)">
    <path d="M48.8 21.65 L53.05 22.2 49.9 25.15 50.7 29.45 46.95 27.35 43.1 29.45 43.95 25.15 40.8 22.2 45.05 21.65 46.95 17.75 48.8 21.65 M38.65 22.2 L35.5 25.15 36.3 29.45 32.55 27.35 28.7 29.45 29.55 25.15 26.4 22.2 30.65 21.65 32.55 17.75 34.4 21.65 38.65 22.2 M16.25 21.65 L18.15 17.75 20.0 21.65 24.25 22.2 21.1 25.15 21.9 29.45 18.15 27.35 14.3 29.45 15.15 25.15 12.0 22.2 16.25 21.65" fill="url(#gradient0)" fill-rule="evenodd" stroke="none"/>
    <path d="M48.8 21.65 L53.05 22.2 49.9 25.15 50.7 29.45 46.95 27.35 43.1 29.45 43.95 25.15 40.8 22.2 45.05 21.65 46.95 17.75 48.8 21.65 M38.65 22.2 L35.5 25.15 36.3 29.45 32.55 27.35 28.7 29.45 29.55 25.15 26.4 22.2 30.65 21.65 32.55 17.75 34.4 21.65 38.65 22.2 M16.25 21.65 L18.15 17.75 20.0 21.65 24.25 22.2 21.1 25.15 21.9 29.45 18.15 27.35 14.3 29.45 15.15 25.15 12.0 22.2 16.25 21.65" fill="none" stroke="#000000" stroke-linecap="round" stroke-linejoin="round" stroke-width="1.2000000000000002"/>
  </g>
  <defs>
    <linearGradient gradientTransform="matrix(0.0, -0.0065, 0.0071, 0.0, 18.1, 23.6)" gradientUnits="userSpaceOnUse" id="gradient0" spreadMethod="pad" x1="-819.2" x2="819.2">
      <stop offset="0.08235294117647059" stop-color="#d3ca9c"/>
      <stop offset="0.3176470588235294" stop-color="#e7b318"/>
      <stop offset="0.48627450980392156" stop-color="#ffcd06"/>
      <stop offset="1.0" stop-color="#f9ebc6"/>
    </linearGradient>
  </defs>
</svg>
