<?xml version="1.0" encoding="UTF-8" standalone="no"?>
<svg xmlns:xlink="http://www.w3.org/1999/xlink" height="85.65px" width="229.15px" xmlns="http://www.w3.org/2000/svg">
  <g transform="matrix(1.0, 0.0, 0.0, 1.0, 47.55, 44.55)">
    <path d="M45.2 -26.8 Q51.4 5.3 41.1 26.6 38.15 32.7 33.85 37.7 31.0 41.0 31.25 41.0 36.75 41.25 25.7 40.95 18.9 40.95 5.55 38.0 -6.65 35.3 -11.25 33.3 -18.1 30.35 -24.15 25.6 -27.8 22.75 -32.8 17.75 -37.05 13.45 -42.2 2.8 -47.55 -8.4 -47.55 -14.05 -47.55 -17.5 -39.6 -21.65 -31.25 -25.4 -30.4 -26.35 -28.5 -28.4 -21.95 -32.35 -14.35 -36.95 -9.5 -38.05 14.85 -43.55 30.35 -39.15 43.55 -35.45 45.2 -26.8 M181.1 -37.1 Q181.7 -30.35 181.55 -20.5 181.45 -11.95 180.75 -3.9 179.35 12.2 176.5 12.5 172.8 7.1 170.6 2.6 168.05 -2.6 168.05 -5.5 168.05 -7.1 170.65 -18.25 173.65 -31.25 176.55 -40.0 180.0 -50.35 181.1 -37.1" fill="#cc6600" fill-rule="evenodd" stroke="none"/>
  </g>
</svg>
