<?xml version="1.0" encoding="UTF-8" standalone="no"?>
<svg xmlns:xlink="http://www.w3.org/1999/xlink" height="161.35px" width="31.1px" xmlns="http://www.w3.org/2000/svg">
  <g transform="matrix(1.0, 0.0, 0.0, 1.0, 15.55, 81.35)">
    <path d="M4.05 -75.95 L7.5 -70.65 7.5 0.9 Q7.6 2.4 8.0 3.45 L8.75 4.6 9.45 5.4 8.15 10.3 Q6.3 17.05 8.4 24.2 L9.25 26.85 Q15.25 30.2 15.5 35.7 15.7 38.1 14.7 40.55 13.75 42.95 12.15 44.2 11.05 45.05 9.6 45.45 L7.9 45.6 Q8.15 44.9 8.05 43.5 7.95 42.05 7.7 42.15 L6.3 42.4 5.45 46.5 Q4.2 54.9 4.5 64.75 4.7 65.85 5.4 66.95 L5.4 67.0 6.45 68.65 Q7.0 69.45 6.8 70.45 6.45 72.35 5.8 72.8 L5.55 73.0 Q4.55 74.85 4.15 75.1 L3.8 75.3 Q3.45 76.8 2.3 78.25 0.65 80.0 0.0 80.0 L-1.3 79.25 -2.3 78.25 Q-3.45 76.8 -3.8 75.3 L-4.15 75.1 Q-4.55 74.85 -5.55 73.0 L-5.8 72.8 Q-6.45 72.35 -6.8 70.45 -7.0 69.45 -6.45 68.65 L-5.4 67.0 -5.4 66.95 Q-4.7 65.85 -4.5 64.75 -4.2 54.9 -5.45 46.5 L-6.3 42.4 -7.7 42.15 Q-7.95 42.05 -8.05 43.5 -8.15 44.9 -7.9 45.6 L-9.6 45.45 Q-11.05 45.05 -12.15 44.2 -13.75 42.95 -14.7 40.55 -15.7 38.1 -15.5 35.7 -15.25 30.2 -9.25 26.85 L-8.4 24.2 Q-6.3 17.05 -8.15 10.3 L-9.45 5.4 -8.75 4.6 -8.0 3.45 Q-7.6 2.4 -7.5 0.9 L-7.5 -70.65 -4.05 -75.95 Q-0.6 -80.95 0.0 -81.35 0.6 -80.95 4.05 -75.95 M-5.45 30.45 L-5.75 30.4 -5.65 31.2 -5.65 31.25 -5.6 31.35 -5.45 30.45 M5.45 30.45 L5.6 31.35 5.65 31.25 5.65 31.2 5.75 30.4 5.45 30.45" fill="#000000" fill-rule="evenodd" stroke="none"/>
    <path d="M-7.0 6.0 Q-6.25 5.7 -5.65 4.3 -5.1 2.85 -5.0 1.0 L-5.0 -70.0 5.0 -70.0 5.0 1.0 Q5.1 2.85 5.65 4.3 6.05 5.25 7.0 6.0 L0.0 8.0 -7.0 6.0" fill="url(#gradient0)" fill-rule="evenodd" stroke="none"/>
    <path d="M7.0 6.0 Q6.25 7.8 5.75 9.65 3.7 17.1 6.0 25.0 L7.0 28.0 Q4.55 27.3 3.0 29.0 L0.0 25.0 -3.0 29.0 Q-4.55 27.3 -7.0 28.0 L-6.0 25.0 Q-3.7 17.1 -5.75 9.65 -6.25 7.8 -7.0 6.0 L0.0 8.0 7.0 6.0" fill="url(#gradient1)" fill-rule="evenodd" stroke="none"/>
    <path d="M0.0 -68.0 L0.0 -78.0 5.0 -70.0 0.0 -68.0" fill="url(#gradient2)" fill-rule="evenodd" stroke="none"/>
    <path d="M0.0 -78.0 L0.0 -68.0 -5.0 -70.0 0.0 -78.0" fill="url(#gradient3)" fill-rule="evenodd" stroke="none"/>
    <path d="M3.0 -69.25 L3.0 1.1 Q3.15 3.7 3.8 5.25 L4.6 6.65 Q3.15 10.0 2.9 14.8 2.65 19.7 3.7 24.1 L5.0 27.0 1.95 28.6 -1.95 28.6 -5.0 27.0 -3.7 24.1 Q-2.65 19.7 -2.9 14.8 -3.15 10.0 -4.6 6.65 L-3.8 5.25 Q-3.15 3.7 -3.0 1.1 L-3.0 -69.25 0.0 -74.0 3.0 -69.25" fill="url(#gradient4)" fill-rule="evenodd" stroke="none"/>
    <path d="M1.0 11.0 Q0.7 11.35 0.35 14.3 L0.0 19.0 -0.35 14.3 Q-0.7 11.35 -1.0 11.0 L0.0 10.0 1.0 11.0 M2.0 7.0 Q0.8 8.05 0.0 10.0 -0.8 8.05 -2.0 7.0 -0.6 6.0 0.0 4.0 0.6 6.0 2.0 7.0" fill="url(#gradient5)" fill-rule="evenodd" stroke="none"/>
    <path d="M3.0 27.1 L3.0 29.0 0.0 29.0 -3.0 29.0 -3.0 27.1 Q-1.3 22.55 0.0 21.0 1.3 22.55 3.0 27.1" fill="url(#gradient6)" fill-rule="evenodd" stroke="none"/>
    <path d="M3.0 27.1 Q3.95 26.4 4.85 26.6 L7.1 28.05 Q4.45 27.4 3.0 29.0 L3.0 27.1" fill="url(#gradient7)" fill-rule="evenodd" stroke="none"/>
    <path d="M-3.0 29.0 Q-4.45 27.4 -7.1 28.05 L-4.85 26.6 Q-3.95 26.4 -3.0 27.1 L-3.0 29.0" fill="url(#gradient8)" fill-rule="evenodd" stroke="none"/>
    <path d="M6.45 39.9 L6.0 36.0 6.0 35.0 12.0 36.0 Q12.45 39.65 10.0 43.0 11.1 39.4 9.35 38.25 7.65 37.05 6.45 39.9" fill="url(#gradient9)" fill-rule="evenodd" stroke="none"/>
    <path d="M6.45 39.9 Q5.6 38.35 3.8 38.3 2.65 38.3 1.5 38.85 L2.0 36.0 6.0 36.0 6.45 39.9" fill="url(#gradient10)" fill-rule="evenodd" stroke="none"/>
    <path d="M-6.0 36.0 L-2.0 36.0 -1.5 38.85 Q-2.65 38.3 -3.8 38.3 -5.6 38.35 -6.45 39.9 L-6.0 36.0" fill="url(#gradient11)" fill-rule="evenodd" stroke="none"/>
    <path d="M-6.45 39.9 Q-7.65 37.05 -9.35 38.25 -11.1 39.4 -10.0 43.0 -12.45 39.65 -12.0 36.0 L-6.0 35.0 -6.0 36.0 -6.45 39.9" fill="url(#gradient12)" fill-rule="evenodd" stroke="none"/>
    <path d="M8.0 29.0 Q12.7 31.6 13.0 35.85 13.25 39.7 10.0 43.0 11.4 40.6 11.05 38.55 10.75 36.55 9.0 36.0 10.2 32.05 8.0 29.0" fill="url(#gradient13)" fill-rule="evenodd" stroke="none"/>
    <path d="M-8.0 29.0 Q-10.2 32.05 -9.0 36.0 -10.75 36.55 -11.05 38.55 -11.4 40.6 -10.0 43.0 -13.25 39.7 -13.0 35.85 -12.7 31.6 -8.0 29.0" fill="url(#gradient14)" fill-rule="evenodd" stroke="none"/>
    <path d="M0.0 23.0 Q0.5 23.55 3.0 29.0 2.65 31.65 3.6 32.95 4.45 34.15 5.8 33.95 7.15 33.75 7.85 32.4 8.65 30.95 8.0 29.0 9.1 30.1 9.65 31.7 10.5 34.1 9.0 36.0 7.65 35.65 6.1 37.0 3.9 35.85 2.0 37.0 L0.6 35.15 0.0 34.0 0.0 23.0" fill="url(#gradient15)" fill-rule="evenodd" stroke="none"/>
    <path d="M0.0 23.0 L0.0 34.0 -0.6 35.15 -2.0 37.0 Q-3.9 35.85 -6.1 37.0 -7.65 35.65 -9.0 36.0 -10.5 34.1 -9.65 31.7 -9.1 30.1 -8.0 29.0 -8.65 30.95 -7.85 32.4 -7.15 33.75 -5.8 33.95 -4.45 34.15 -3.6 32.95 -2.65 31.65 -3.0 29.0 -0.5 23.55 0.0 23.0" fill="url(#gradient16)" fill-rule="evenodd" stroke="none"/>
    <path d="M4.0 41.0 L3.2 45.0 -3.2 45.0 -4.0 41.0 4.0 41.0" fill="url(#gradient17)" fill-rule="evenodd" stroke="none"/>
    <path d="M0.0 46.0 L3.0 46.0 Q1.55 55.6 2.0 67.0 1.95 67.55 0.0 67.55 -1.9 67.55 -2.0 67.0 -1.55 55.6 -3.0 46.0 L0.0 46.0" fill="url(#gradient18)" fill-rule="evenodd" stroke="none"/>
    <path d="M1.7 73.0 Q1.1 76.55 0.0 78.0 -1.1 76.55 -1.7 73.0 L1.7 73.0" fill="url(#gradient19)" fill-rule="evenodd" stroke="none"/>
    <path d="M-1.7 73.0 L-2.0 73.0 -2.8 73.0 -3.7 71.0 3.7 71.0 2.8 73.0 1.7 73.0 -1.7 73.0" fill="url(#gradient20)" fill-rule="evenodd" stroke="none"/>
    <path d="M2.0 70.35 L-2.0 70.35 -2.0 66.35 2.0 66.35 2.0 70.35" fill="#000000" fill-opacity="0.38039216" fill-rule="evenodd" stroke="none"/>
    <path d="M0.0 65.0 Q0.35 64.95 0.5 67.0 L1.9 67.0 1.85 65.75 Q1.8 65.0 2.0 65.0 2.25 66.95 3.95 69.35 L4.35 70.0 0.0 70.0 0.0 65.0" fill="url(#gradient21)" fill-rule="evenodd" stroke="none"/>
    <path d="M4.35 70.0 L4.0 71.0 0.0 71.0 0.0 70.0 4.35 70.0" fill="url(#gradient22)" fill-rule="evenodd" stroke="none"/>
    <path d="M0.0 71.0 L-4.0 71.0 -4.35 70.0 0.0 70.0 0.0 71.0" fill="url(#gradient23)" fill-rule="evenodd" stroke="none"/>
    <path d="M-4.35 70.0 L-3.95 69.35 Q-2.25 66.95 -2.0 65.0 -1.8 65.0 -1.85 65.75 L-1.9 67.0 -0.5 67.0 Q-0.35 64.95 0.0 65.0 L0.0 70.0 -4.35 70.0" fill="url(#gradient24)" fill-rule="evenodd" stroke="none"/>
    <path d="M0.35 48.8 L0.0 50.0 -0.35 48.8 -0.5 46.0 -3.0 46.0 -3.2 45.0 3.2 45.0 3.0 46.0 0.5 46.0 0.35 48.8" fill="url(#gradient25)" fill-rule="evenodd" stroke="none"/>
    <path d="M3.25 36.5 L0.05 35.25 0.0 35.25 -3.25 36.5 Q-2.35 35.3 -1.95 32.85 -1.6 30.55 -2.0 30.0 L0.0 27.0 2.0 30.0 Q1.6 30.55 1.95 32.85 2.35 35.3 3.25 36.5" fill="url(#gradient26)" fill-rule="evenodd" stroke="none"/>
    <path d="M3.25 36.5 Q2.05 37.45 1.75 38.55 1.4 39.85 3.0 40.0 L-3.0 40.0 Q-1.4 39.85 -1.75 38.55 -2.05 37.45 -3.25 36.5 L0.0 35.25 0.05 35.25 3.25 36.5" fill="url(#gradient27)" fill-rule="evenodd" stroke="none"/>
    <path d="M-3.0 40.0 L3.0 40.0 3.0 41.0 -3.0 41.0 -3.0 40.0" fill="url(#gradient28)" fill-rule="evenodd" stroke="none"/>
    <path d="M2.0 36.0 Q1.25 36.4 0.85 37.95 0.4 39.5 0.9 40.0 L0.0 40.0 -0.9 40.0 Q-0.4 39.5 -0.85 37.95 -1.25 36.4 -2.0 36.0 -1.5 35.0 -1.15 33.15 -0.75 31.25 -0.85 30.4 L0.0 29.0 0.85 30.4 Q0.75 31.25 1.15 33.15 1.5 35.0 2.0 36.0" fill="url(#gradient29)" fill-rule="evenodd" stroke="none"/>
  </g>
  <defs>
    <linearGradient gradientTransform="matrix(0.0, -0.0469, 0.0604, 0.0, 0.15, -31.8)" gradientUnits="userSpaceOnUse" id="gradient0" spreadMethod="pad" x1="-819.2" x2="819.2">
      <stop offset="0.0" stop-color="#c2c2c2"/>
      <stop offset="0.30196078431372547" stop-color="#636363"/>
      <stop offset="0.6588235294117647" stop-color="#dfdfdf"/>
      <stop offset="1.0" stop-color="#7b7b7b"/>
    </linearGradient>
    <linearGradient gradientTransform="matrix(0.0, -0.0135, 0.0604, 0.0, 0.15, 16.85)" gradientUnits="userSpaceOnUse" id="gradient1" spreadMethod="pad" x1="-819.2" x2="819.2">
      <stop offset="0.12941176470588237" stop-color="#d5d5d5"/>
      <stop offset="0.23137254901960785" stop-color="#b5b5b5"/>
      <stop offset="1.0" stop-color="#6d6d6d"/>
    </linearGradient>
    <linearGradient gradientTransform="matrix(0.0038, 0.0048, -0.0038, 0.003, 7.8, -76.9)" gradientUnits="userSpaceOnUse" id="gradient2" spreadMethod="pad" x1="-819.2" x2="819.2">
      <stop offset="0.0" stop-color="#ffffff"/>
      <stop offset="1.0" stop-color="#a6a6a6"/>
    </linearGradient>
    <linearGradient gradientTransform="matrix(0.0015, -0.0056, 0.0047, 0.0013, -6.45, -74.9)" gradientUnits="userSpaceOnUse" id="gradient3" spreadMethod="pad" x1="-819.2" x2="819.2">
      <stop offset="0.0" stop-color="#cdcdcd"/>
      <stop offset="1.0" stop-color="#8a8a8a"/>
    </linearGradient>
    <linearGradient gradientTransform="matrix(0.0013, -0.0621, 0.0619, 0.0013, 0.05, -22.9)" gradientUnits="userSpaceOnUse" id="gradient4" spreadMethod="pad" x1="-819.2" x2="819.2">
      <stop offset="0.0" stop-color="#915ca3"/>
      <stop offset="0.4" stop-color="#673467"/>
      <stop offset="0.7137254901960784" stop-color="#aa46aa"/>
      <stop offset="0.9098039215686274" stop-color="#7c2b86"/>
      <stop offset="1.0" stop-color="#4a1d5a"/>
    </linearGradient>
    <linearGradient gradientTransform="matrix(0.0, -0.0089, 0.0037, 0.0, -0.3, 11.0)" gradientUnits="userSpaceOnUse" id="gradient5" spreadMethod="pad" x1="-819.2" x2="819.2">
      <stop offset="0.0" stop-color="#d5bfbf"/>
      <stop offset="1.0" stop-color="#a07a88"/>
    </linearGradient>
    <linearGradient gradientTransform="matrix(0.0042, 0.0, 0.0, 0.0049, 0.05, 25.0)" gradientUnits="userSpaceOnUse" id="gradient6" spreadMethod="pad" x1="-819.2" x2="819.2">
      <stop offset="0.0" stop-color="#683674"/>
      <stop offset="0.4666666666666667" stop-color="#521f45"/>
      <stop offset="0.49411764705882355" stop-color="#2c172f"/>
      <stop offset="1.0" stop-color="#481a42"/>
    </linearGradient>
    <linearGradient gradientTransform="matrix(0.0086, 0.0, 0.0, 0.0049, 0.05, 25.0)" gradientUnits="userSpaceOnUse" id="gradient7" spreadMethod="pad" x1="-819.2" x2="819.2">
      <stop offset="0.01568627450980392" stop-color="#8d8d8d"/>
      <stop offset="0.5019607843137255" stop-color="#b8b8b8"/>
      <stop offset="1.0" stop-color="#3c3c3c"/>
    </linearGradient>
    <linearGradient gradientTransform="matrix(-0.0086, 0.0, 0.0, 0.0049, -0.05, 25.0)" gradientUnits="userSpaceOnUse" id="gradient8" spreadMethod="pad" x1="-819.2" x2="819.2">
      <stop offset="0.01568627450980392" stop-color="#8d8d8d"/>
      <stop offset="0.5019607843137255" stop-color="#b8b8b8"/>
      <stop offset="1.0" stop-color="#3c3c3c"/>
    </linearGradient>
    <linearGradient gradientTransform="matrix(0.0036, 0.0029, 0.003, -0.0038, 9.0, 39.0)" gradientUnits="userSpaceOnUse" id="gradient9" spreadMethod="pad" x1="-819.2" x2="819.2">
      <stop offset="0.0" stop-color="#383838"/>
      <stop offset="0.43137254901960786" stop-color="#b0b0b0"/>
      <stop offset="1.0" stop-color="#dbdbdb"/>
    </linearGradient>
    <linearGradient gradientTransform="matrix(-0.0032, -0.0018, -0.0012, 0.0021, 4.05, 38.2)" gradientUnits="userSpaceOnUse" id="gradient10" spreadMethod="pad" x1="-819.2" x2="819.2">
      <stop offset="0.0" stop-color="#b5b5b5"/>
      <stop offset="1.0" stop-color="#434343"/>
    </linearGradient>
    <linearGradient gradientTransform="matrix(0.0032, -0.0018, 0.0012, 0.0021, -4.05, 38.2)" gradientUnits="userSpaceOnUse" id="gradient11" spreadMethod="pad" x1="-819.2" x2="819.2">
      <stop offset="0.0" stop-color="#b5b5b5"/>
      <stop offset="1.0" stop-color="#434343"/>
    </linearGradient>
    <linearGradient gradientTransform="matrix(-0.0036, 0.0029, -0.003, -0.0038, -9.0, 39.0)" gradientUnits="userSpaceOnUse" id="gradient12" spreadMethod="pad" x1="-819.2" x2="819.2">
      <stop offset="0.0" stop-color="#383838"/>
      <stop offset="0.43137254901960786" stop-color="#b0b0b0"/>
      <stop offset="1.0" stop-color="#dbdbdb"/>
    </linearGradient>
    <radialGradient cx="0" cy="0" gradientTransform="matrix(-0.0099, 0.0, 0.0, 0.0099, 5.0, 36.5)" gradientUnits="userSpaceOnUse" id="gradient13" r="819.2" spreadMethod="pad">
      <stop offset="0.6784313725490196" stop-color="#a2649d"/>
      <stop offset="0.796078431372549" stop-color="#915f92"/>
      <stop offset="1.0" stop-color="#543854"/>
    </radialGradient>
    <radialGradient cx="0" cy="0" gradientTransform="matrix(0.0099, 0.0, 0.0, 0.0099, -5.0, 36.5)" gradientUnits="userSpaceOnUse" id="gradient14" r="819.2" spreadMethod="pad">
      <stop offset="0.6784313725490196" stop-color="#a2649d"/>
      <stop offset="0.796078431372549" stop-color="#915f92"/>
      <stop offset="1.0" stop-color="#543854"/>
    </radialGradient>
    <linearGradient gradientTransform="matrix(-0.0086, -0.0047, -0.0035, 0.0064, 2.15, 32.75)" gradientUnits="userSpaceOnUse" id="gradient15" spreadMethod="pad" x1="-819.2" x2="819.2">
      <stop offset="0.20392156862745098" stop-color="#432347"/>
      <stop offset="1.0" stop-color="#ac60ac"/>
    </linearGradient>
    <linearGradient gradientTransform="matrix(0.0086, -0.0047, 0.0035, 0.0064, -2.15, 32.75)" gradientUnits="userSpaceOnUse" id="gradient16" spreadMethod="pad" x1="-819.2" x2="819.2">
      <stop offset="0.20392156862745098" stop-color="#432347"/>
      <stop offset="1.0" stop-color="#914a8c"/>
    </linearGradient>
    <linearGradient gradientTransform="matrix(0.0049, 0.0, 0.0, 0.0024, 0.0, 43.0)" gradientUnits="userSpaceOnUse" id="gradient17" spreadMethod="pad" x1="-819.2" x2="819.2">
      <stop offset="0.0" stop-color="#362d3e"/>
      <stop offset="0.5019607843137255" stop-color="#a49aab"/>
      <stop offset="1.0" stop-color="#362d3e"/>
    </linearGradient>
    <linearGradient gradientTransform="matrix(0.0037, 0.0, 0.0, 0.0128, 0.0, 56.5)" gradientUnits="userSpaceOnUse" id="gradient18" spreadMethod="pad" x1="-819.2" x2="819.2">
      <stop offset="0.0" stop-color="#312941"/>
      <stop offset="0.403921568627451" stop-color="#6b5973"/>
      <stop offset="0.5372549019607843" stop-color="#6b5973"/>
      <stop offset="1.0" stop-color="#312941"/>
    </linearGradient>
    <radialGradient cx="0" cy="0" gradientTransform="matrix(0.0021, 0.0, 0.0, 0.0065, 0.0, 73.0)" gradientUnits="userSpaceOnUse" id="gradient19" r="819.2" spreadMethod="pad">
      <stop offset="0.11372549019607843" stop-color="#fb6fc4"/>
      <stop offset="0.3411764705882353" stop-color="#e4058c"/>
      <stop offset="0.8823529411764706" stop-color="#6d034b"/>
    </radialGradient>
    <linearGradient gradientTransform="matrix(0.0045, 0.0, 0.0, 0.0012, 0.0, 72.0)" gradientUnits="userSpaceOnUse" id="gradient20" spreadMethod="pad" x1="-819.2" x2="819.2">
      <stop offset="0.0" stop-color="#322923"/>
      <stop offset="0.42745098039215684" stop-color="#8d7a72"/>
      <stop offset="0.5411764705882353" stop-color="#8d7a72"/>
      <stop offset="1.0" stop-color="#322923"/>
    </linearGradient>
    <linearGradient gradientTransform="matrix(0.0055, 0.0, 0.0, 0.0037, 0.0, 68.0)" gradientUnits="userSpaceOnUse" id="gradient21" spreadMethod="pad" x1="-819.2" x2="819.2">
      <stop offset="0.0" stop-color="#656521"/>
      <stop offset="0.5254901960784314" stop-color="#cfc567"/>
      <stop offset="1.0" stop-color="#4b4516"/>
    </linearGradient>
    <linearGradient gradientTransform="matrix(0.0055, 0.0, 0.0, 0.0037, 0.0, 68.0)" gradientUnits="userSpaceOnUse" id="gradient22" spreadMethod="pad" x1="-819.2" x2="819.2">
      <stop offset="0.0" stop-color="#656521"/>
      <stop offset="0.5254901960784314" stop-color="#b09b39"/>
      <stop offset="1.0" stop-color="#4b4516"/>
    </linearGradient>
    <linearGradient gradientTransform="matrix(-0.0055, 0.0, 0.0, 0.0037, 0.0, 68.0)" gradientUnits="userSpaceOnUse" id="gradient23" spreadMethod="pad" x1="-819.2" x2="819.2">
      <stop offset="0.0" stop-color="#656521"/>
      <stop offset="0.5254901960784314" stop-color="#b09b39"/>
      <stop offset="1.0" stop-color="#4b4516"/>
    </linearGradient>
    <linearGradient gradientTransform="matrix(-0.0055, 0.0, 0.0, 0.0037, 0.0, 68.0)" gradientUnits="userSpaceOnUse" id="gradient24" spreadMethod="pad" x1="-819.2" x2="819.2">
      <stop offset="0.0" stop-color="#656521"/>
      <stop offset="0.5254901960784314" stop-color="#cfc567"/>
      <stop offset="1.0" stop-color="#4b4516"/>
    </linearGradient>
    <linearGradient gradientTransform="matrix(0.0049, 0.0, 0.0, 0.0024, 0.0, 43.0)" gradientUnits="userSpaceOnUse" id="gradient25" spreadMethod="pad" x1="-819.2" x2="819.2">
      <stop offset="0.0" stop-color="#5e4f0d"/>
      <stop offset="0.4980392156862745" stop-color="#d2a724"/>
      <stop offset="1.0" stop-color="#5e4f0d"/>
    </linearGradient>
    <linearGradient gradientTransform="matrix(0.0049, 0.0, 0.0, 0.0037, 0.0, 33.0)" gradientUnits="userSpaceOnUse" id="gradient26" spreadMethod="pad" x1="-819.2" x2="819.2">
      <stop offset="0.0" stop-color="#656521"/>
      <stop offset="0.5254901960784314" stop-color="#cfc567"/>
      <stop offset="1.0" stop-color="#4b4516"/>
    </linearGradient>
    <linearGradient gradientTransform="matrix(0.0049, 0.0, 0.0, 0.0024, 0.0, 38.0)" gradientUnits="userSpaceOnUse" id="gradient27" spreadMethod="pad" x1="-819.2" x2="819.2">
      <stop offset="0.07450980392156863" stop-color="#413c14"/>
      <stop offset="0.5294117647058824" stop-color="#9a8732"/>
      <stop offset="0.8666666666666667" stop-color="#524b18"/>
    </linearGradient>
    <linearGradient gradientTransform="matrix(0.0037, 0.0, 0.0, 6.0E-4, 0.0, 40.5)" gradientUnits="userSpaceOnUse" id="gradient28" spreadMethod="pad" x1="-819.2" x2="819.2">
      <stop offset="0.0" stop-color="#6c6b20"/>
      <stop offset="0.5294117647058824" stop-color="#d3c972"/>
      <stop offset="1.0" stop-color="#5b5a1c"/>
    </linearGradient>
    <linearGradient gradientTransform="matrix(1.0E-4, -0.007, 0.0031, 0.0, -0.1, 34.35)" gradientUnits="userSpaceOnUse" id="gradient29" spreadMethod="pad" x1="-819.2" x2="819.2">
      <stop offset="0.0" stop-color="#bbad35"/>
      <stop offset="1.0" stop-color="#8c781e"/>
    </linearGradient>
  </defs>
</svg>
