<?xml version="1.0" encoding="UTF-8" standalone="no"?>
<svg xmlns:xlink="http://www.w3.org/1999/xlink" height="76.0px" width="99.0px" xmlns="http://www.w3.org/2000/svg">
  <g transform="matrix(1.0, 0.0, 0.0, 1.0, 53.5, 30.5)">
    <path d="M34.75 -27.8 Q41.9 -29.2 42.65 -27.9 44.25 -27.4 42.9 -21.35 L42.9 -21.4 42.0 -17.4 Q45.75 -13.75 45.5 -10.0 L45.5 -9.0 Q45.65 -3.1 39.15 1.95 35.3 4.9 30.55 6.55 34.0 13.9 37.3 23.35 41.85 36.35 40.15 38.25 L38.5 40.15 38.5 43.0 Q38.5 44.05 37.8 44.8 37.05 45.5 36.0 45.5 L11.0 45.5 Q10.1 45.5 9.4 44.9 8.7 44.3 8.55 43.45 L8.05 39.95 Q8.05 37.25 9.45 36.7 8.3 28.15 5.55 20.5 L1.0 20.5 Q0.0 23.1 -1.5 24.1 L-2.45 24.55 -3.55 24.6 -3.7 25.0 -4.6 26.1 Q-5.2 26.5 -5.95 26.5 -15.75 26.7 -19.7 21.1 -23.25 16.6 -21.95 8.25 -27.5 6.9 -33.15 4.95 L-33.15 4.9 Q-39.7 2.6 -45.1 0.05 -50.25 -2.45 -50.9 -3.35 L-51.45 -4.5 Q-52.2 -4.65 -52.75 -5.2 -53.5 -5.95 -53.5 -7.0 L-53.5 -12.0 Q-53.5 -13.05 -52.75 -13.75 -52.2 -14.35 -51.45 -14.45 L-50.9 -15.6 Q-50.25 -16.55 -45.1 -19.05 -39.7 -21.6 -33.15 -23.9 -13.9 -30.55 0.0 -30.5 L12.85 -29.8 Q20.05 -28.8 27.35 -25.85 30.0 -26.9 34.75 -27.8 M-9.3 10.65 L-12.3 10.2 Q-13.15 13.75 -12.0 16.05 -10.45 18.5 -6.2 19.45 -5.4 17.05 -5.45 12.5 L-5.5 11.1 -9.3 10.65" fill="#000000" fill-rule="evenodd" stroke="none"/>
    <path d="M1.5 9.0 L-5.0 8.65 -5.0 2.0 3.0 2.0 3.0 9.0 1.5 9.0" fill="#6a87a2" fill-opacity="0.6" fill-rule="evenodd" stroke="none"/>
    <path d="M12.2 -25.35 Q18.5 -24.45 26.2 -21.3 32.95 -18.55 36.95 -15.4 40.85 -12.4 41.1 -9.9 L41.1 -8.9 Q41.5 -5.7 36.9 -2.0 32.35 1.65 26.7 2.7 L24.85 3.1 Q23.7 3.45 23.9 4.1 30.55 17.45 33.4 25.65 36.25 33.85 36.3 36.5 L14.4 37.1 Q13.25 29.7 10.95 22.2 8.45 13.95 5.3 8.2 L5.3 -0.1 -6.6 0.0 -7.4 5.9 Q-13.0 6.2 -27.25 2.35 -43.15 -2.0 -46.7 -6.35 L-46.7 -12.3 Q-40.1 -17.6 -22.45 -22.1 -7.4 -25.95 0.1 -26.0 L12.2 -25.35" fill="#c4d9e6" fill-rule="evenodd" stroke="none"/>
    <path d="M10.0 -9.3 Q9.9 -8.5 9.3 -7.95 8.65 -7.4 7.85 -7.5 1.6 -8.05 -4.4 -6.2 -10.15 -4.5 -15.8 -6.2 -20.65 -7.7 -28.2 -7.8 -32.7 -7.85 -40.9 -7.5 -41.75 -7.5 -42.35 -8.05 -42.95 -8.6 -43.0 -9.4 -43.0 -10.25 -42.45 -10.85 -41.9 -11.45 -41.05 -11.5 -32.7 -11.85 -28.15 -11.8 -19.95 -11.7 -14.65 -10.05 -10.15 -8.7 -5.55 -10.05 1.2 -12.15 8.2 -11.5 L9.55 -10.75 Q10.1 -10.15 10.0 -9.3" fill="#ffffff" fill-opacity="0.6" fill-rule="evenodd" stroke="none"/>
    <path d="M10.0 -9.3 Q9.9 -8.5 9.3 -7.95 8.65 -7.4 7.85 -7.5 1.6 -8.05 -4.4 -6.2 -10.15 -4.5 -15.8 -6.2 -20.65 -7.7 -28.2 -7.8 -32.7 -7.85 -40.9 -7.5 -41.75 -7.5 -42.35 -8.05 -42.95 -8.6 -43.0 -9.4 -43.0 -10.25 -42.45 -10.85 -41.9 -11.45 -41.05 -11.5 -32.7 -11.85 -28.15 -11.8 -19.95 -11.7 -14.65 -10.05 -10.15 -8.7 -5.55 -10.05 1.2 -12.15 8.2 -11.5 L9.55 -10.75 Q10.1 -10.15 10.0 -9.3 Z" fill="none" stroke="#ffffff" stroke-linecap="round" stroke-linejoin="round" stroke-width="1.0"/>
    <path d="M-42.7 -13.7 L-42.0 -14.0 -41.3 -13.7 Q-41.0 -13.4 -41.0 -13.0 L-41.0 -6.0 Q-41.0 -5.6 -41.3 -5.3 -41.6 -5.0 -42.0 -5.0 -42.4 -5.0 -42.7 -5.3 L-43.0 -6.0 -43.0 -6.8 -43.0 -7.0 -43.0 -12.0 -43.0 -13.0 -42.7 -13.7" fill="url(#gradient0)" fill-rule="evenodd" stroke="none"/>
    <path d="M13.0 -4.0 L19.0 -4.0 19.0 -3.0 13.0 -3.0 13.0 -4.0" fill="url(#gradient1)" fill-rule="evenodd" stroke="none"/>
    <path d="M13.0 -13.0 L19.0 -13.0 19.0 -4.0 13.0 -4.0 13.0 -13.0" fill="url(#gradient2)" fill-rule="evenodd" stroke="none"/>
    <path d="M13.0 -3.0 L19.0 -3.0 19.0 7.0 13.0 7.0 13.0 -3.0" fill="url(#gradient3)" fill-rule="evenodd" stroke="none"/>
    <path d="M19.0 -13.0 L13.0 -13.0 Q13.0 -14.25 13.85 -15.15 14.75 -16.0 16.0 -16.0 17.25 -16.0 18.1 -15.15 19.0 -14.25 19.0 -13.0" fill="url(#gradient4)" fill-rule="evenodd" stroke="none"/>
    <path d="M19.0 7.0 L22.0 7.0 Q24.0 7.0 24.0 9.0 L24.0 20.0 Q24.0 21.95 22.15 22.0 L22.0 22.0 13.0 22.0 12.0 22.0 Q10.0 22.0 10.0 20.0 L10.0 11.0 10.0 9.0 Q10.0 7.0 12.0 7.0 L13.0 7.0 19.0 7.0" fill="url(#gradient5)" fill-rule="evenodd" stroke="none"/>
    <path d="M21.0 23.0 L21.0 33.0 16.0 33.0 16.0 23.0 21.0 23.0" fill="url(#gradient6)" fill-rule="evenodd" stroke="none"/>
    <path d="M22.0 22.0 L22.0 23.0 21.0 23.0 16.0 23.0 13.0 23.0 13.0 22.0 22.0 22.0" fill="url(#gradient7)" fill-rule="evenodd" stroke="none"/>
    <path d="M10.0 20.0 L6.0 20.0 6.0 11.0 10.0 11.0 10.0 20.0" fill="url(#gradient8)" fill-rule="evenodd" stroke="none"/>
    <path d="M-43.0 -12.0 L-43.0 -7.0 -51.0 -7.0 -51.0 -12.0 -43.0 -12.0" fill="url(#gradient9)" fill-rule="evenodd" stroke="none"/>
    <path d="M-1.0 13.0 L6.0 13.0 6.0 18.0 -1.0 18.0 -1.0 13.0" fill="url(#gradient10)" fill-rule="evenodd" stroke="none"/>
    <path d="M13.0 -6.0 L8.0 -6.0 8.0 -13.0 13.0 -13.0 Q13.6 -9.8 13.0 -6.0" fill="url(#gradient11)" fill-rule="evenodd" stroke="none"/>
    <path d="M0.0 3.0 Q0.3 7.0 0.05 11.35 -0.45 20.1 -3.05 22.1 -3.35 22.05 -4.25 21.25 -2.85 18.55 -2.95 12.45 -3.05 7.25 -4.0 3.0 L0.0 3.0" fill="url(#gradient12)" fill-rule="evenodd" stroke="none"/>
    <path d="M8.0 -7.0 L7.0 -7.0 7.0 -12.0 8.0 -12.0 8.0 -7.0 M21.0 24.0 L16.0 24.0 16.0 23.0 21.0 23.0 21.0 24.0 M19.0 6.0 L19.0 7.0 13.0 7.0 13.0 6.0 19.0 6.0 M10.0 11.0 L10.0 20.0 9.0 20.0 9.0 11.0 10.0 11.0 M5.0 13.0 L6.0 13.0 6.0 18.0 5.0 18.0 5.0 13.0 M-44.0 -12.0 L-43.0 -12.0 -43.0 -7.0 -44.0 -7.0 -44.0 -12.0 M-41.0 -12.0 L-40.0 -12.0 -40.0 -7.0 -41.0 -7.0 -41.0 -12.0" fill="#000000" fill-opacity="0.15294118" fill-rule="evenodd" stroke="none"/>
    <path d="M3.0 9.0 L1.5 9.0 -5.0 8.65 -5.0 2.0 3.0 2.0 3.0 9.0" fill="#6a87a2" fill-opacity="0.6" fill-rule="evenodd" stroke="none"/>
    <path d="M5.55 8.7 L10.0 7.9 Q9.4 3.05 13.95 2.2 15.8 1.85 17.25 2.8 18.9 3.85 19.25 6.05 L24.4 5.15 Q30.65 17.75 33.4 25.65 36.25 33.85 36.3 36.5 L14.4 37.1 Q13.25 29.7 10.95 22.2 8.55 14.3 5.55 8.7" fill="url(#gradient13)" fill-rule="evenodd" stroke="none"/>
    <path d="M5.55 8.7 L5.3 8.2 5.3 -0.1 -6.6 0.0 -7.4 5.9 Q-13.0 6.2 -27.25 2.35 -43.15 -2.0 -46.7 -6.35 L-46.7 -12.3 Q-40.1 -17.6 -22.45 -22.1 -7.4 -25.95 0.1 -26.0 L12.2 -25.35 Q18.5 -24.45 26.2 -21.3 32.95 -18.55 36.95 -15.4 40.85 -12.4 41.1 -9.9 L41.1 -8.9 Q41.5 -5.7 36.9 -2.0 32.35 1.65 26.7 2.7 L24.85 3.1 Q23.7 3.45 23.9 4.1 L24.4 5.15 19.25 6.05 Q18.9 3.85 17.25 2.8 15.8 1.85 13.95 2.2 9.4 3.05 10.0 7.9 L5.55 8.7" fill="url(#gradient14)" fill-rule="evenodd" stroke="none"/>
    <path d="M24.4 5.15 L24.75 5.05 M5.55 8.7 L10.0 7.9 Q9.4 3.05 13.95 2.2 15.8 1.85 17.25 2.8 18.9 3.85 19.25 6.05 L24.4 5.15 M5.55 8.7 L4.55 8.85" fill="none" stroke="url(#gradient15)" stroke-linecap="butt" stroke-linejoin="round" stroke-width="1.0"/>
    <path d="M35.2 -25.35 L41.0 -26.0 Q41.3 -25.75 40.45 -21.9 L39.2 -16.6 Q37.1 -16.95 32.5 -19.55 27.9 -22.1 27.4 -23.15 29.9 -24.35 35.2 -25.35" fill="url(#gradient16)" fill-rule="evenodd" stroke="none"/>
    <path d="M39.7 -23.45 Q39.45 -21.25 37.4 -19.55 35.4 -18.0 32.8 -17.9 30.25 -17.8 28.7 -19.25 27.05 -20.7 27.25 -22.9 27.55 -25.15 29.6 -26.75 31.7 -28.35 34.2 -28.45 36.8 -28.55 38.4 -27.05 40.1 -25.55 39.7 -23.45" fill="url(#gradient17)" fill-rule="evenodd" stroke="none"/>
    <path d="M23.0 18.0 Q23.0 19.25 22.1 20.1 21.25 21.0 20.0 21.0 18.75 21.0 17.85 20.1 17.0 19.25 17.0 18.0 17.0 16.75 17.85 15.85 18.75 15.0 20.0 15.0 21.25 15.0 22.1 15.85 23.0 16.75 23.0 18.0" fill="url(#gradient18)" fill-rule="evenodd" stroke="none"/>
    <path d="M14.35 7.65 Q13.65 7.65 13.2 7.15 12.75 6.75 12.75 6.05 12.75 5.35 13.2 4.9 13.65 4.45 14.35 4.45 15.05 4.45 15.45 4.9 15.95 5.35 15.95 6.05 15.95 6.75 15.45 7.15 15.05 7.65 14.35 7.65" fill="#39b4db" fill-rule="evenodd" stroke="none"/>
    <path d="M-6.0 24.0 Q-14.3 24.15 -17.7 19.6 -21.05 15.15 -19.05 6.35 L-14.1 7.4 Q-18.35 19.8 -6.0 22.0 -5.55 22.9 -6.0 24.0" fill="url(#gradient19)" fill-rule="evenodd" stroke="none"/>
    <path d="M4.55 8.85 L10.0 7.9 Q9.4 3.05 13.95 2.2 15.8 1.85 17.25 2.8 18.9 3.85 19.25 6.05 L24.05 5.15" fill="none" stroke="url(#gradient20)" stroke-linecap="butt" stroke-linejoin="round" stroke-width="1.0"/>
    <path d="M20.95 16.25 L21.4 16.6 21.7 17.0 18.95 19.75 18.2 19.0 20.95 16.25" fill="#333333" fill-rule="evenodd" stroke="none"/>
    <path d="M20.95 16.25 L18.2 19.0 17.9 18.0 Q17.95 17.15 18.55 16.55 19.15 15.95 19.95 15.95 L20.95 16.25 M18.95 19.75 L21.7 17.0 21.95 17.95 Q22.0 18.8 21.4 19.4 20.8 20.0 19.9 20.0 L18.95 19.75" fill="url(#gradient21)" fill-rule="evenodd" stroke="none"/>
    <path d="M12.1 -24.35 L0.0 -25.0 Q-11.55 -24.95 -27.0 -20.15 L-27.0 -13.0 -29.0 -13.0 -29.0 -19.5 -31.4 -18.7 -31.35 -18.7 -31.45 -18.65 Q-37.55 -16.55 -42.6 -14.15 L-42.75 -14.1 -42.7 -14.1 -46.0 -12.45 -46.0 -6.5 -42.7 -4.9 -42.6 -4.85 Q-37.55 -2.45 -31.45 -0.3 L-31.35 -0.3 -29.0 0.5 -29.0 -6.0 -27.0 -6.0 -27.0 1.1 Q-17.25 4.1 -8.0 5.3 L-8.0 -1.0 6.0 -1.0 6.0 8.25 Q9.05 13.85 11.45 21.15 13.85 28.55 15.0 36.0 L35.0 36.0 Q34.95 33.35 32.1 25.15 28.8 15.65 23.0 4.0 22.75 3.3 23.35 3.0 23.8 2.75 26.3 2.2 31.5 0.9 35.8 -2.4 39.85 -5.55 40.0 -9.05 L40.0 -10.05 Q39.5 -14.95 25.8 -20.55 18.85 -23.4 12.1 -24.35 M12.5 -27.35 Q19.65 -26.35 26.95 -23.35 43.2 -16.7 43.0 -10.0 L43.0 -9.0 Q43.0 -4.2 37.6 -0.05 33.0 3.5 27.0 5.0 31.1 13.1 34.95 24.15 38.9 35.45 38.0 37.0 L36.0 39.0 36.0 43.0 11.0 43.0 10.55 39.95 Q10.55 39.05 11.0 39.0 L12.0 39.0 12.0 37.0 Q10.05 21.55 3.0 9.0 L3.0 2.0 -5.0 2.0 -5.0 8.65 -9.0 8.2 Q-20.3 6.7 -32.35 2.55 -38.75 0.3 -44.05 -2.2 -48.4 -4.3 -49.0 -5.0 L-49.0 -9.0 -49.0 -14.0 Q-48.4 -14.7 -44.05 -16.8 -38.75 -19.3 -32.35 -21.55 -13.55 -28.0 0.0 -28.0 L12.5 -27.35" fill="url(#gradient22)" fill-rule="evenodd" stroke="none"/>
    <path d="M37.0 38.0 L37.0 39.0 12.0 39.0 12.0 38.0 37.0 38.0" fill="#000000" fill-opacity="0.15294118" fill-rule="evenodd" stroke="none"/>
    <path d="M27.55 -0.55 Q22.75 1.75 14.45 3.8 6.15 5.85 -1.5 5.4 -9.2 4.9 -15.65 3.5 -22.15 2.1 -28.55 -1.4 -35.0 -4.9 -36.9 -7.65 0.6 -0.3 35.85 -7.8 34.35 -3.9 27.55 -0.55" fill="url(#gradient23)" fill-rule="evenodd" stroke="none"/>
    <path d="M34.1 -16.55 L5.4 -10.75 -11.0 -24.0 0.0 -25.0 12.1 -24.35 Q18.85 -23.4 25.8 -20.55 30.85 -18.5 34.1 -16.55" fill="url(#gradient24)" fill-rule="evenodd" stroke="none"/>
  </g>
  <defs>
    <radialGradient cx="0" cy="0" gradientTransform="matrix(0.0016, 0.0, 0.0, 0.0058, -42.0, -9.5)" gradientUnits="userSpaceOnUse" id="gradient0" r="819.2" spreadMethod="pad">
      <stop offset="0.3333333333333333" stop-color="#fbfbfb"/>
      <stop offset="0.9294117647058824" stop-color="#d0d0d0"/>
    </radialGradient>
    <linearGradient gradientTransform="matrix(0.0037, 0.0, 0.0, 0.0079, 16.0, -9.5)" gradientUnits="userSpaceOnUse" id="gradient1" spreadMethod="pad" x1="-819.2" x2="819.2">
      <stop offset="0.0" stop-color="#adadad"/>
      <stop offset="0.34509803921568627" stop-color="#d5d5d5"/>
      <stop offset="0.6235294117647059" stop-color="#d8d8d8"/>
      <stop offset="1.0" stop-color="#adadad"/>
    </linearGradient>
    <linearGradient gradientTransform="matrix(0.0037, 0.0, 0.0, 0.0079, 16.0, -9.5)" gradientUnits="userSpaceOnUse" id="gradient2" spreadMethod="pad" x1="-819.2" x2="819.2">
      <stop offset="0.0" stop-color="#c2c2c2"/>
      <stop offset="0.34509803921568627" stop-color="#ffffff"/>
      <stop offset="0.6235294117647059" stop-color="#ffffff"/>
      <stop offset="1.0" stop-color="#c2c2c2"/>
    </linearGradient>
    <linearGradient gradientTransform="matrix(0.0037, 0.0, 0.0, 0.0079, 16.0, -9.5)" gradientUnits="userSpaceOnUse" id="gradient3" spreadMethod="pad" x1="-819.2" x2="819.2">
      <stop offset="0.0" stop-color="#c2c2c2"/>
      <stop offset="0.34509803921568627" stop-color="#ffffff"/>
      <stop offset="0.6235294117647059" stop-color="#ffffff"/>
      <stop offset="1.0" stop-color="#c2c2c2"/>
    </linearGradient>
    <radialGradient cx="0" cy="0" gradientTransform="matrix(0.0039, 0.0, 0.0, 0.0039, 16.0, -13.0)" gradientUnits="userSpaceOnUse" id="gradient4" r="819.2" spreadMethod="pad">
      <stop offset="0.22745098039215686" stop-color="#ffffff"/>
      <stop offset="0.9529411764705882" stop-color="#c2c2c2"/>
    </radialGradient>
    <linearGradient gradientTransform="matrix(0.0, -0.0092, 0.0092, 0.0, 16.5, 14.5)" gradientUnits="userSpaceOnUse" id="gradient5" spreadMethod="pad" x1="-819.2" x2="819.2">
      <stop offset="0.0" stop-color="#d5d5d5"/>
      <stop offset="0.8509803921568627" stop-color="#ffffff"/>
    </linearGradient>
    <linearGradient gradientTransform="matrix(0.0031, 0.0, 0.0, 0.0061, 18.5, 28.0)" gradientUnits="userSpaceOnUse" id="gradient6" spreadMethod="pad" x1="-819.2" x2="819.2">
      <stop offset="0.0" stop-color="#c2c2c2"/>
      <stop offset="0.34509803921568627" stop-color="#ededed"/>
      <stop offset="0.6235294117647059" stop-color="#ededed"/>
      <stop offset="1.0" stop-color="#c2c2c2"/>
    </linearGradient>
    <linearGradient gradientTransform="matrix(0.0055, 0.0, 0.0, 6.0E-4, 17.45, 23.0)" gradientUnits="userSpaceOnUse" id="gradient7" spreadMethod="pad" x1="-819.2" x2="819.2">
      <stop offset="0.0" stop-color="#c6c6c6"/>
      <stop offset="0.24313725490196078" stop-color="#e6e6e6"/>
      <stop offset="0.7098039215686275" stop-color="#e6e6e6"/>
      <stop offset="1.0" stop-color="#cacaca"/>
    </linearGradient>
    <linearGradient gradientTransform="matrix(0.0, 0.0055, -0.0067, 0.0, 8.0, 15.5)" gradientUnits="userSpaceOnUse" id="gradient8" spreadMethod="pad" x1="-819.2" x2="819.2">
      <stop offset="0.25098039215686274" stop-color="#eaeaea"/>
      <stop offset="1.0" stop-color="#d8d8d8"/>
    </linearGradient>
    <linearGradient gradientTransform="matrix(0.0, -0.0037, 0.0037, 0.0, -47.0, -9.5)" gradientUnits="userSpaceOnUse" id="gradient9" spreadMethod="pad" x1="-819.2" x2="819.2">
      <stop offset="0.0" stop-color="#d8d8d8"/>
      <stop offset="0.4980392156862745" stop-color="#eaeaea"/>
      <stop offset="0.592156862745098" stop-color="#ffffff"/>
      <stop offset="0.7137254901960784" stop-color="#ffffff"/>
      <stop offset="0.7843137254901961" stop-color="#e6e6e6"/>
      <stop offset="1.0" stop-color="#dfdfdf"/>
    </linearGradient>
    <linearGradient gradientTransform="matrix(1.0E-4, -0.0035, 0.0031, 0.0, 3.0, 15.5)" gradientUnits="userSpaceOnUse" id="gradient10" spreadMethod="pad" x1="-819.2" x2="819.2">
      <stop offset="0.0" stop-color="#cdcdcd"/>
      <stop offset="0.32941176470588235" stop-color="#e4e4e4"/>
      <stop offset="0.5764705882352941" stop-color="#f4f4f4"/>
      <stop offset="0.7098039215686275" stop-color="#f0f0f0"/>
      <stop offset="0.8745098039215686" stop-color="#dbdbdb"/>
    </linearGradient>
    <linearGradient gradientTransform="matrix(0.0, -0.0046, 0.0043, 0.0, 10.65, -9.5)" gradientUnits="userSpaceOnUse" id="gradient11" spreadMethod="pad" x1="-819.2" x2="819.2">
      <stop offset="0.0" stop-color="#b8b8b8"/>
      <stop offset="0.5019607843137255" stop-color="#ffffff"/>
      <stop offset="0.7254901960784313" stop-color="#ffffff"/>
      <stop offset="1.0" stop-color="#c6c6c6"/>
    </linearGradient>
    <linearGradient gradientTransform="matrix(0.0, -0.0116, 0.0116, 0.0, -2.15, 12.5)" gradientUnits="userSpaceOnUse" id="gradient12" spreadMethod="pad" x1="-819.2" x2="819.2">
      <stop offset="0.0" stop-color="#dbdbdb"/>
      <stop offset="1.0" stop-color="#ededed"/>
    </linearGradient>
    <linearGradient gradientTransform="matrix(0.0, -0.0392, 0.0372, 0.0, -3.0, 5.5)" gradientUnits="userSpaceOnUse" id="gradient13" spreadMethod="pad" x1="-819.2" x2="819.2">
      <stop offset="0.0" stop-color="#1b83a5" stop-opacity="0.6"/>
      <stop offset="0.34509803921568627" stop-color="#55d3ea" stop-opacity="0.4"/>
      <stop offset="0.8274509803921568" stop-color="#2ed9e7" stop-opacity="0.43137255"/>
      <stop offset="1.0" stop-color="#159faa" stop-opacity="0.6"/>
    </linearGradient>
    <linearGradient gradientTransform="matrix(0.0, -0.0211, 0.0372, 0.0, -1.2, -8.1)" gradientUnits="userSpaceOnUse" id="gradient14" spreadMethod="pad" x1="-819.2" x2="819.2">
      <stop offset="0.01568627450980392" stop-color="#1784a8" stop-opacity="0.6"/>
      <stop offset="0.48627450980392156" stop-color="#4bdbf3" stop-opacity="0.36078432"/>
      <stop offset="0.7686274509803922" stop-color="#22d3f2" stop-opacity="0.37254903"/>
      <stop offset="1.0" stop-color="#1088af" stop-opacity="0.5411765"/>
    </linearGradient>
    <linearGradient gradientTransform="matrix(-5.0E-4, -0.0434, 0.0124, -1.0E-4, 21.45, 7.4)" gradientUnits="userSpaceOnUse" id="gradient15" spreadMethod="pad" x1="-819.2" x2="819.2">
      <stop offset="0.0" stop-color="#2c9abe"/>
      <stop offset="0.592156862745098" stop-color="#39b4db"/>
      <stop offset="0.7568627450980392" stop-color="#50c6da"/>
      <stop offset="1.0" stop-color="#80e2ea"/>
    </linearGradient>
    <linearGradient gradientTransform="matrix(0.0051, 0.0066, -0.0046, 0.0035, 33.8, -21.9)" gradientUnits="userSpaceOnUse" id="gradient16" spreadMethod="pad" x1="-819.2" x2="819.2">
      <stop offset="0.0" stop-color="#8be4f3"/>
      <stop offset="1.0" stop-color="#50c6da"/>
    </linearGradient>
    <radialGradient cx="0" cy="0" gradientTransform="matrix(0.0191, -0.0068, 0.0018, 0.0029, 30.2, -22.05)" gradientUnits="userSpaceOnUse" id="gradient17" r="819.2" spreadMethod="pad">
      <stop offset="0.15294117647058825" stop-color="#f0ffff" stop-opacity="0.78039217"/>
      <stop offset="0.5725490196078431" stop-color="#2fddfb" stop-opacity="0.0"/>
    </radialGradient>
    <linearGradient gradientTransform="matrix(-0.001, -0.0035, 0.0035, -0.001, 20.0, 18.0)" gradientUnits="userSpaceOnUse" id="gradient18" spreadMethod="pad" x1="-819.2" x2="819.2">
      <stop offset="0.0" stop-color="#71def0"/>
      <stop offset="1.0" stop-color="#2fadd7"/>
    </linearGradient>
    <linearGradient gradientTransform="matrix(0.0017, -0.0094, 0.0401, 0.0075, -4.6, 17.0)" gradientUnits="userSpaceOnUse" id="gradient19" spreadMethod="pad" x1="-819.2" x2="819.2">
      <stop offset="0.0" stop-color="#6fcdec"/>
      <stop offset="0.6470588235294118" stop-color="#47bbe0"/>
      <stop offset="0.8627450980392157" stop-color="#39b4db"/>
      <stop offset="0.8901960784313725" stop-color="#228fb3"/>
    </linearGradient>
    <linearGradient gradientTransform="matrix(-5.0E-4, -0.0434, 0.0124, -1.0E-4, 21.45, 7.4)" gradientUnits="userSpaceOnUse" id="gradient20" spreadMethod="pad" x1="-819.2" x2="819.2">
      <stop offset="0.0" stop-color="#2c9abe"/>
      <stop offset="0.592156862745098" stop-color="#39b4db"/>
      <stop offset="0.7568627450980392" stop-color="#50c6da"/>
      <stop offset="1.0" stop-color="#80e2ea"/>
    </linearGradient>
    <linearGradient gradientTransform="matrix(-0.0012, -0.0022, 0.0016, -9.0E-4, 31.7, 11.25)" gradientUnits="userSpaceOnUse" id="gradient21" spreadMethod="pad" x1="-819.2" x2="819.2">
      <stop offset="0.0" stop-color="#757575"/>
      <stop offset="1.0" stop-color="#d0d0d0"/>
    </linearGradient>
    <linearGradient gradientTransform="matrix(-2.0E-4, -0.0452, 0.0408, -2.0E-4, -5.2, 9.0)" gradientUnits="userSpaceOnUse" id="gradient22" spreadMethod="pad" x1="-819.2" x2="819.2">
      <stop offset="0.0" stop-color="#2c9abe"/>
      <stop offset="0.592156862745098" stop-color="#39b4db"/>
      <stop offset="0.7568627450980392" stop-color="#50c6da"/>
      <stop offset="1.0" stop-color="#80e2ea"/>
    </linearGradient>
    <radialGradient cx="0" cy="0" gradientTransform="matrix(1.0E-4, -0.0166, 0.0489, 2.0E-4, -2.0, -8.5)" gradientUnits="userSpaceOnUse" id="gradient23" r="819.2" spreadMethod="pad">
      <stop offset="0.18823529411764706" stop-color="#e2fbfe" stop-opacity="0.6117647"/>
      <stop offset="0.9529411764705882" stop-color="#f1f9fe" stop-opacity="0.0"/>
    </radialGradient>
    <radialGradient cx="0" cy="0" gradientTransform="matrix(0.0288, 0.0025, -7.0E-4, 0.0079, 10.1, -19.85)" gradientUnits="userSpaceOnUse" id="gradient24" r="819.2" spreadMethod="pad">
      <stop offset="0.3137254901960784" stop-color="#ffffff"/>
      <stop offset="0.5411764705882353" stop-color="#7acaef" stop-opacity="0.0"/>
    </radialGradient>
  </defs>
</svg>
