<?xml version="1.0" encoding="UTF-8" standalone="no"?>
<svg xmlns:xlink="http://www.w3.org/1999/xlink" height="788.2px" width="407.8px" xmlns="http://www.w3.org/2000/svg">
  <g transform="matrix(1.0, 0.0, 0.0, 1.0, -92.3, 3.0)">
    <path d="M301.15 351.55 Q322.75 331.85 342.1 302.2 363.8 268.8 368.3 243.3 370.45 231.1 371.3 212.0 L372.8 180.25 Q374.2 162.1 377.9 148.6 381.55 135.4 388.0 124.0 392.9 129.0 398.15 135.9 L403.7 143.2 Q403.25 132.7 409.45 112.5 415.7 92.3 426.95 67.4 438.0 42.9 450.35 21.75 458.5 7.8 465.65 -2.0 L466.25 -2.0 481.8 -1.95 493.85 -2.0 499.1 -1.95 Q481.85 15.65 465.8 36.8 443.85 65.75 435.3 87.8 426.1 111.4 421.8 133.15 419.5 144.45 417.55 162.8 409.55 160.0 404.95 158.05 398.3 155.25 393.75 151.4 390.3 161.75 388.1 184.45 386.85 197.5 385.8 215.3 385.05 224.1 382.1 239.3 378.85 255.65 377.6 263.85 L377.05 265.0 376.8 264.9 Q368.3 292.3 341.6 325.65 324.3 347.25 294.1 377.05 293.3 372.65 291.7 368.1 289.75 362.5 287.05 357.95 268.6 368.35 256.4 389.75 243.95 411.55 244.3 433.8 244.55 453.15 230.85 476.75 219.7 495.85 207.75 505.35 L205.95 509.4 201.3 519.3 201.3 513.3 Q201.3 511.8 201.8 508.85 L202.3 505.35 Q200.05 509.1 195.25 516.1 L187.3 527.8 Q187.55 525.55 186.75 520.9 185.8 515.55 185.8 512.3 L186.05 509.75 Q177.6 518.3 169.3 529.7 158.05 545.1 149.7 562.1 140.75 580.35 136.9 597.1 133.15 613.55 134.5 627.3 134.55 628.15 135.75 632.0 130.45 631.5 123.6 629.65 L113.3 626.55 Q112.85 631.15 112.1 654.3 L111.3 680.45 Q111.3 732.05 131.8 780.3 L118.6 780.3 Q111.95 768.2 103.5 729.55 93.3 682.8 93.3 655.7 93.3 621.75 102.7 600.65 104.75 604.25 108.85 607.75 113.7 611.9 118.15 613.65 118.75 579.95 130.2 544.85 143.65 503.7 167.9 475.85 169.9 487.45 173.8 493.3 174.55 491.9 180.95 486.55 L187.7 481.15 Q199.8 471.45 204.3 467.2 212.1 459.85 217.8 451.2 220.15 447.7 222.4 442.0 L226.4 430.75 233.3 408.8 Q239.05 389.7 240.2 386.75 245.05 374.2 253.3 364.8 265.1 351.35 272.65 345.45 278.6 340.75 287.3 336.65 L287.3 337.3 287.55 341.2 287.8 346.8 294.1 343.5 296.5 342.55 298.6 341.75 300.35 352.3 300.8 352.0 301.15 351.55 M287.05 357.95 L287.3 357.8 287.05 357.95 M202.3 504.9 L202.3 505.35 202.3 504.9 M206.95 506.0 L207.75 505.35 206.95 506.0" fill="#ffffff" fill-rule="evenodd" stroke="none"/>
    <path d="M301.15 351.55 Q322.75 331.85 342.1 302.2 363.8 268.8 368.3 243.3 370.45 231.1 371.3 212.0 L372.8 180.25 Q374.2 162.1 377.9 148.6 381.55 135.4 388.0 124.0 392.9 129.0 398.15 135.9 L403.7 143.2 Q403.25 132.7 409.45 112.5 415.7 92.3 426.95 67.4 438.0 42.9 450.35 21.75 458.5 7.8 465.65 -2.0 L466.25 -2.0 481.8 -1.95 493.85 -2.0 499.1 -1.95 Q481.85 15.65 465.8 36.8 443.85 65.75 435.3 87.8 426.1 111.4 421.8 133.15 419.5 144.45 417.55 162.8 409.55 160.0 404.95 158.05 398.3 155.25 393.75 151.4 390.3 161.75 388.1 184.45 386.85 197.5 385.8 215.3 385.05 224.1 382.1 239.3 378.85 255.65 377.6 263.85 L377.3 265.8 376.8 265.8 377.05 265.0 377.6 263.85 M376.8 264.9 Q368.3 292.3 341.6 325.65 324.3 347.25 294.1 377.05 293.3 372.65 291.7 368.1 289.75 362.5 287.05 357.95 268.6 368.35 256.4 389.75 243.95 411.55 244.3 433.8 244.55 453.15 230.85 476.75 219.7 495.85 207.75 505.35 L205.95 509.4 201.3 519.3 201.3 513.3 Q201.3 511.8 201.8 508.85 L202.3 505.35 Q200.05 509.1 195.25 516.1 L187.3 527.8 Q187.55 525.55 186.75 520.9 185.8 515.55 185.8 512.3 L186.05 509.75 Q177.6 518.3 169.3 529.7 158.05 545.1 149.7 562.1 140.75 580.35 136.9 597.1 133.15 613.55 134.5 627.3 134.55 628.15 135.75 632.0 130.45 631.5 123.6 629.65 L113.3 626.55 Q112.85 631.15 112.1 654.3 L111.3 680.45 Q111.3 732.05 131.8 780.3 L135.8 780.3 M301.15 351.55 L300.8 352.0 300.35 352.3 298.6 341.75 296.5 342.55 294.1 343.5 287.8 346.8 287.55 341.2 287.3 337.3 287.3 336.65 Q278.6 340.75 272.65 345.45 265.1 351.35 253.3 364.8 245.05 374.2 240.2 386.75 239.05 389.7 233.3 408.8 L226.4 430.75 222.4 442.0 Q220.15 447.7 217.8 451.2 212.1 459.85 204.3 467.2 199.8 471.45 187.7 481.15 L180.95 486.55 Q174.55 491.9 173.8 493.3 169.9 487.45 167.9 475.85 143.65 503.7 130.2 544.85 118.75 579.95 118.15 613.65 113.7 611.9 108.85 607.75 104.75 604.25 102.7 600.65 93.3 621.75 93.3 655.7 93.3 682.8 103.5 729.55 111.95 768.2 118.6 780.3 L131.8 780.3 132.8 782.7 133.3 782.7 Q133.3 781.2 132.8 780.7 M287.3 357.8 L287.05 357.95 M301.15 351.55 L300.35 352.3 M207.75 505.35 L206.95 506.0 M202.3 505.35 L202.3 504.9 M118.6 780.3 Q120.0 782.85 121.3 784.2 L121.3 782.7 M114.3 780.3 L118.6 780.3" fill="none" stroke="#ffff00" stroke-linecap="round" stroke-linejoin="round" stroke-width="2.0"/>
  </g>
</svg>
