<?xml version="1.0" encoding="UTF-8" standalone="no"?>
<svg xmlns:xlink="http://www.w3.org/1999/xlink" height="779.4px" width="533.4px" xmlns="http://www.w3.org/2000/svg">
  <g transform="matrix(1.0, 0.0, 0.0, 1.0, -16.8, 3.7)">
    <path d="M476.55 611.3 Q473.35 612.15 469.6 615.6 L465.05 619.6 Q466.75 623.6 469.4 627.75 L476.8 638.2 476.8 638.7 Q468.55 638.15 461.45 638.4 L462.45 643.5 Q463.75 649.35 465.8 652.7 L455.7 650.8 Q451.65 650.0 449.15 649.2 442.65 665.5 429.15 680.35 417.65 693.0 403.0 702.75 400.85 725.1 391.7 743.65 385.8 755.55 371.8 774.7 L22.5 774.7 Q20.95 766.1 19.8 757.1 17.8 740.9 17.8 728.45 17.8 707.1 19.6 687.6 21.75 663.95 26.3 645.7 32.95 619.2 36.25 608.3 40.0 595.95 43.4 588.75 37.4 578.1 34.45 568.35 L60.95 579.35 Q68.2 582.75 73.45 586.3 74.7 549.1 86.9 516.25 L86.8 507.55 Q86.8 484.15 92.2 457.2 99.1 422.45 113.3 392.8 119.55 379.7 131.95 361.8 L149.3 336.3 Q152.35 331.2 166.85 315.4 178.9 302.25 183.1 298.75 184.7 311.05 186.7 329.7 187.5 336.35 188.4 341.55 208.8 302.75 245.8 277.3 L270.55 260.6 Q285.95 250.05 295.75 242.15 321.35 221.5 326.15 204.95 L325.0 202.7 324.0 200.65 Q327.55 199.55 333.05 198.3 332.6 195.1 332.4 191.05 L332.3 177.8 Q332.3 162.75 334.15 150.15 336.2 136.05 340.8 123.3 344.05 114.15 345.95 109.7 348.8 102.9 352.3 97.3 L358.95 86.45 Q362.1 81.7 365.55 78.6 L362.4 75.6 359.85 73.2 366.85 70.0 370.55 68.3 367.75 64.7 364.55 60.75 371.7 59.05 377.6 57.6 376.85 54.75 375.5 50.05 379.65 51.55 387.3 54.25 Q392.3 51.1 405.35 43.35 418.3 35.6 425.3 29.8 430.55 25.45 435.95 20.0 441.15 14.8 444.8 10.3 447.2 7.35 451.55 0.2 L453.35 -2.7 549.2 -2.7 Q543.55 21.0 529.95 43.0 521.9 56.0 500.8 81.95 482.05 104.95 474.65 119.15 463.3 140.9 463.3 164.8 463.3 168.95 464.55 179.55 465.55 187.9 465.75 191.3 L465.8 191.6 474.6 191.8 470.8 202.0 467.9 209.5 478.25 208.55 487.45 207.95 Q482.35 215.3 474.15 222.65 467.0 228.6 462.05 233.05 463.25 241.6 463.5 247.9 L463.65 270.3 Q463.65 333.4 449.85 379.15 438.45 416.75 413.05 457.65 L425.6 505.65 Q432.45 530.05 440.3 542.7 457.8 571.0 459.2 602.6 L476.3 610.7 476.35 610.95 476.55 611.3 M372.6 538.5 Q364.3 553.0 347.7 576.15 363.2 611.25 369.3 649.3 372.95 671.95 372.7 689.6 376.2 685.9 378.25 681.05 381.15 672.05 383.3 667.7 386.05 662.7 391.3 657.6 L397.95 650.9 394.2 646.45 Q392.2 644.3 391.1 642.3 L397.25 641.25 402.65 640.45 405.25 635.75 408.8 628.3 Q410.35 625.2 412.1 620.9 414.3 615.55 414.8 612.8 L417.85 596.15 Q419.8 584.6 419.8 578.05 419.8 554.75 412.15 532.05 410.0 525.8 403.3 508.3 398.15 494.85 394.3 484.0 389.25 509.4 372.6 538.5" fill="#ffffff" fill-rule="evenodd" stroke="none"/>
    <path d="M476.55 611.3 Q473.35 612.15 469.6 615.6 L465.05 619.6 Q466.75 623.6 469.4 627.75 L476.8 638.2 476.8 638.7 Q468.55 638.15 461.45 638.4 L462.45 643.5 Q463.75 649.35 465.8 652.7 L455.7 650.8 Q451.65 650.0 449.15 649.2 442.65 665.5 429.15 680.35 417.65 693.0 403.0 702.75 400.85 725.1 391.7 743.65 385.8 755.55 371.8 774.7 L22.5 774.7 Q20.95 766.1 19.8 757.1 17.8 740.9 17.8 728.45 17.8 707.1 19.6 687.6 21.75 663.95 26.3 645.7 32.95 619.2 36.25 608.3 40.0 595.95 43.4 588.75 37.4 578.1 34.45 568.35 L60.95 579.35 Q68.2 582.75 73.45 586.3 74.7 549.1 86.9 516.25 L86.8 507.55 Q86.8 484.15 92.2 457.2 99.1 422.45 113.3 392.8 119.55 379.7 131.95 361.8 L149.3 336.3 Q152.35 331.2 166.85 315.4 178.9 302.25 183.1 298.75 184.7 311.05 186.7 329.7 187.5 336.35 188.4 341.55 208.8 302.75 245.8 277.3 L270.55 260.6 Q285.95 250.05 295.75 242.15 321.35 221.5 326.15 204.95 L325.0 202.7 324.0 200.65 Q327.55 199.55 333.05 198.3 332.6 195.1 332.4 191.05 L332.3 177.8 Q332.3 162.75 334.15 150.15 336.2 136.05 340.8 123.3 344.05 114.15 345.95 109.7 348.8 102.9 352.3 97.3 L358.95 86.45 Q362.1 81.7 365.55 78.6 L362.4 75.6 359.85 73.2 366.85 70.0 370.55 68.3 367.75 64.7 364.55 60.75 371.7 59.05 377.6 57.6 376.85 54.75 375.5 50.05 379.65 51.55 387.3 54.25 Q392.3 51.1 405.35 43.35 418.3 35.6 425.3 29.8 430.55 25.45 435.95 20.0 441.15 14.8 444.8 10.3 447.2 7.35 451.55 0.2 L453.35 -2.7 549.2 -2.7 Q543.55 21.0 529.95 43.0 521.9 56.0 500.8 81.95 482.05 104.95 474.65 119.15 463.3 140.9 463.3 164.8 463.3 168.95 464.55 179.55 465.55 187.9 465.75 191.3 L465.8 191.6 474.6 191.8 470.8 202.0 467.9 209.5 478.25 208.55 487.45 207.95 Q482.35 215.3 474.15 222.65 467.0 228.6 462.05 233.05 463.25 241.6 463.5 247.9 L463.65 270.3 Q463.65 333.4 449.85 379.15 438.45 416.75 413.05 457.65 L425.6 505.65 Q432.45 530.05 440.3 542.7 457.8 571.0 459.2 602.6 L476.3 610.7 476.35 610.95 Q476.5 611.2 476.8 611.2 L476.55 611.3 M372.6 538.5 Q389.25 509.4 394.3 484.0 398.15 494.85 403.3 508.3 410.0 525.8 412.15 532.05 419.8 554.75 419.8 578.05 419.8 584.6 417.85 596.15 L414.8 612.8 Q414.3 615.55 412.1 620.9 410.35 625.2 408.8 628.3 L405.25 635.75 402.65 640.45 397.25 641.25 391.1 642.3 Q392.2 644.3 394.2 646.45 L397.95 650.9 391.3 657.6 Q386.05 662.7 383.3 667.7 381.15 672.05 378.25 681.05 376.2 685.9 372.7 689.6 372.95 671.95 369.3 649.3 363.2 611.25 347.7 576.15 364.3 553.0 372.6 538.5" fill="none" stroke="#ffff00" stroke-linecap="round" stroke-linejoin="round" stroke-width="2.0"/>
  </g>
</svg>
