<?xml version="1.0" encoding="UTF-8" standalone="no"?>
<svg xmlns:xlink="http://www.w3.org/1999/xlink" height="240.0px" width="248.0px" xmlns="http://www.w3.org/2000/svg">
  <g transform="matrix(1.0, 0.0, 0.0, 1.0, 3.0, 15.0)">
    <path d="M56.0 -12.0 L56.0 -3.0 242.0 -3.0 Q245.0 -3.0 245.0 0.0 L245.0 222.0 Q245.0 225.0 242.0 225.0 L0.0 225.0 Q-3.0 225.0 -3.0 222.0 L-3.0 -12.0 Q-3.0 -15.0 0.0 -15.0 L53.0 -15.0 Q56.0 -15.0 56.0 -12.0 M240.0 1.0 L2.0 1.0 Q1.0 1.0 1.0 2.0 L1.0 220.0 Q1.0 221.0 2.0 221.0 L240.0 221.0 Q241.0 221.0 241.0 220.0 L241.0 2.0 Q241.0 1.0 240.0 1.0" fill="#000000" fill-rule="evenodd" stroke="none"/>
    <path d="M55.0 -12.0 L55.0 -2.0 242.0 -2.0 Q244.0 -2.0 244.0 0.0 L244.0 222.0 Q244.0 224.0 242.0 224.0 L0.0 224.0 Q-2.0 224.0 -2.0 222.0 L-2.0 -12.0 Q-2.0 -14.0 0.0 -14.0 L53.0 -14.0 Q55.0 -14.0 55.0 -12.0 M240.0 0.0 L2.0 0.0 Q0.0 0.0 0.0 2.0 L0.0 220.0 Q0.0 222.0 2.0 222.0 L240.0 222.0 Q242.0 222.0 242.0 220.0 L242.0 2.0 Q242.0 0.0 240.0 0.0" fill="#00ff00" fill-rule="evenodd" stroke="none"/>
  </g>
</svg>
