<?xml version="1.0" encoding="UTF-8" standalone="no"?>
<svg xmlns:xlink="http://www.w3.org/1999/xlink" height="384.5px" width="7.5px" xmlns="http://www.w3.org/2000/svg">
  <g transform="matrix(1.0, 0.0, 0.0, 1.0, 3.75, 192.0)">
    <path d="M2.3 -135.3 Q3.25 -79.15 3.25 0.25 3.25 79.65 2.3 135.85 1.35 192.0 0.0 192.0 -1.35 192.0 -2.3 135.85 -3.25 79.65 -3.25 0.25 -3.25 -79.15 -2.3 -135.3 -1.35 -191.5 0.0 -191.5 1.35 -191.5 2.3 -135.3" fill="url(#gradient0)" fill-rule="evenodd" stroke="none"/>
    <path d="M2.3 -135.3 Q3.25 -79.15 3.25 0.25 3.25 79.65 2.3 135.85 1.35 192.0 0.0 192.0 -1.35 192.0 -2.3 135.85 -3.25 79.65 -3.25 0.25 -3.25 -79.15 -2.3 -135.3 -1.35 -191.5 0.0 -191.5 1.35 -191.5 2.3 -135.3 Z" fill="none" stroke="url(#gradient1)" stroke-linecap="round" stroke-linejoin="round" stroke-width="1.0"/>
  </g>
  <defs>
    <radialGradient cx="0" cy="0" gradientTransform="matrix(0.2365, 0.0, 0.0, 0.2365, 0.0, 0.25)" gradientUnits="userSpaceOnUse" id="gradient0" r="819.2" spreadMethod="pad">
      <stop offset="0.0" stop-color="#ffffff"/>
      <stop offset="0.47843137254901963" stop-color="#ffeaea"/>
      <stop offset="1.0" stop-color="#fa6161"/>
    </radialGradient>
    <radialGradient cx="0" cy="0" gradientTransform="matrix(0.0098, 0.0, 0.0, 0.2347, 0.0, 0.25)" gradientUnits="userSpaceOnUse" id="gradient1" r="819.2" spreadMethod="pad">
      <stop offset="0.0" stop-color="#ffffff"/>
      <stop offset="0.47843137254901963" stop-color="#fcd7a5"/>
      <stop offset="1.0" stop-color="#fa6161"/>
    </radialGradient>
  </defs>
</svg>
