<?xml version="1.0" encoding="UTF-8" standalone="no"?>
<svg xmlns:xlink="http://www.w3.org/1999/xlink" height="51.0px" width="64.0px" xmlns="http://www.w3.org/2000/svg">
  <g transform="matrix(1.0, 0.0, 0.0, 1.0, 0.0, 0.0)">
    <path d="M60.0 0.0 Q64.0 0.0 64.0 4.0 L64.0 40.0 Q64.0 44.0 60.0 44.0 L37.0 44.0 32.0 51.0 27.0 44.0 4.0 44.0 Q0.0 44.0 0.0 40.0 L0.0 4.0 Q0.0 0.0 4.0 0.0 L60.0 0.0" fill="#5b5b5b" fill-rule="evenodd" stroke="none"/>
    <path d="M63.0 4.0 L63.0 40.0 Q63.0 43.0 60.0 43.0 L37.0 43.0 36.55 43.1 36.2 43.45 32.0 49.3 27.85 43.45 27.45 43.1 27.0 43.0 4.0 43.0 Q1.0 43.0 1.0 40.0 L1.0 4.0 Q1.0 1.0 4.0 1.0 L60.0 1.0 Q63.0 1.0 63.0 4.0" fill="#000000" fill-rule="evenodd" stroke="none"/>
  </g>
</svg>
