<?xml version="1.0" encoding="UTF-8" standalone="no"?>
<svg xmlns:xlink="http://www.w3.org/1999/xlink" height="114.0px" width="78.0px" xmlns="http://www.w3.org/2000/svg">
  <g transform="matrix(1.0, 0.0, 0.0, 1.0, 43.5, 56.5)">
    <path d="M33.5 -50.0 L33.5 -16.9 Q34.55 -15.35 34.5 -13.0 L34.5 1.0 34.15 2.3 33.5 3.4 33.5 40.7 Q33.5 46.5 27.7 46.5 L-21.5 46.5 -21.55 47.85 Q-21.85 56.95 -28.6 57.5 L-30.35 57.5 Q-34.7 57.3 -38.45 54.5 -42.5 51.5 -43.4 47.65 -43.6 47.0 -43.4 46.35 L-42.75 45.25 -40.75 43.25 Q-40.15 42.6 -39.2 42.5 -38.3 42.45 -37.55 42.95 -36.85 43.45 -36.6 44.35 -35.65 47.6 -33.45 49.95 -31.15 51.85 -29.9 52.25 -28.25 51.05 -28.35 46.85 L-28.35 46.15 Q-30.0 45.6 -31.3 44.3 -32.95 42.65 -33.35 40.5 L-33.5 37.0 -33.5 -49.0 Q-33.5 -55.5 -27.0 -55.5 L0.75 -55.5 Q1.9 -56.5 4.0 -56.5 L27.0 -56.5 Q33.5 -56.5 33.5 -50.0" fill="#000000" fill-rule="evenodd" stroke="none"/>
    <path d="M-30.95 38.0 L31.0 38.0 31.0 40.0 Q31.0 44.0 27.0 44.0 L-24.0 44.0 Q-27.95 43.95 -29.45 42.5 -30.8 41.2 -30.95 38.0" fill="url(#gradient0)" fill-rule="evenodd" stroke="none"/>
    <path d="M-30.95 38.0 L-31.0 37.0 -31.0 -49.0 Q-31.0 -53.0 -27.0 -53.0 L27.0 -53.0 Q31.0 -53.0 31.0 -49.0 L31.0 38.0 -30.95 38.0" fill="url(#gradient1)" fill-rule="evenodd" stroke="none"/>
    <path d="M27.0 35.2 L27.0 39.0 27.0 40.8 26.8 41.0 -27.0 41.0 Q-28.25 41.0 -29.15 40.1 -30.0 39.25 -30.0 38.0 -30.0 36.75 -29.15 35.85 -28.25 35.0 -27.0 35.0 L26.8 35.0 27.0 35.2" fill="url(#gradient2)" fill-rule="evenodd" stroke="none"/>
    <path d="M27.0 39.0 L27.0 35.2 27.0 34.0 30.0 35.0 30.0 41.0 27.0 39.0" fill="#000000" fill-rule="evenodd" stroke="none"/>
    <path d="M28.0 37.0 L-30.0 37.0 Q-29.75 36.0 -28.8 35.2 L-27.0 34.0 28.0 34.0 28.0 37.0" fill="#000000" fill-opacity="0.2" fill-rule="evenodd" stroke="none"/>
    <path d="M4.0 -54.0 L27.0 -54.0 Q31.0 -54.0 31.0 -50.0 L31.0 36.0 29.0 34.0 4.0 34.0 Q2.0 34.0 2.0 32.0 L2.0 -52.0 Q2.0 -54.0 4.0 -54.0" fill="url(#gradient3)" fill-rule="evenodd" stroke="none"/>
    <path d="M5.3 -51.0 L4.0 -51.0 M8.3 -51.0 L6.8 -51.0 M0.6 -50.0 L2.0 -50.0 M17.3 -51.0 L15.8 -51.0 M14.3 -51.0 L12.8 -51.0 M11.3 -51.0 L9.8 -51.0 M29.35 -50.75 L28.0 -51.0 M26.3 -51.0 L24.8 -51.0 M23.3 -51.0 L21.8 -51.0 M20.3 -51.0 L18.8 -51.0 M4.0 -49.4 L4.0 -47.9 M4.0 -46.4 L4.0 -44.9 M4.0 -43.4 L4.0 -41.9 M4.0 -40.4 L4.0 -38.9 M4.0 -37.4 L4.0 -35.9 M4.0 -34.4 L4.0 -32.9 M4.0 -31.4 L4.0 -29.9 M4.0 -28.4 L4.0 -26.9 M4.0 -4.4 L4.0 -2.9 M4.0 -7.4 L4.0 -5.9 M4.0 -10.4 L4.0 -8.9 M4.0 -13.4 L4.0 -11.9 M4.0 -16.4 L4.0 -14.9 M4.0 -19.4 L4.0 -17.9 M4.0 -22.4 L4.0 -20.9 M4.0 -25.4 L4.0 -23.9 M30.9 -48.1 L30.5 -49.6 M-26.4 -50.0 L-24.9 -50.0 M-23.4 -50.0 L-21.9 -50.0 M-17.4 -50.0 L-15.9 -50.0 M-14.4 -50.0 L-12.9 -50.0 M-11.4 -50.0 L-9.9 -50.0 M-8.4 -50.0 L-6.9 -50.0 M-5.4 -50.0 L-3.9 -50.0 M-2.4 -50.0 L-0.9 -50.0 M-20.4 -50.0 L-18.9 -50.0 M-30.9 -46.9 L-30.3 -48.2 M-29.3 -49.3 Q-28.7 -49.75 -27.85 -49.9 M-30.9 34.8 L-30.55 33.4 M-29.75 32.15 L-28.65 31.2 M-27.2 30.55 L-25.65 30.15 M-24.15 30.0 L-22.7 30.0 M-3.1 30.0 L-1.6 30.0 M-6.1 30.0 L-4.6 30.0 M-9.1 30.0 L-7.6 30.0 M-18.1 30.0 L-16.6 30.0 M-15.1 30.0 L-13.6 30.0 M-12.1 30.0 L-10.6 30.0 M-21.1 30.0 L-19.6 30.0 M4.0 1.6 L4.0 3.1 M4.0 4.6 L4.0 6.1 M4.0 7.6 L4.0 9.1 M4.0 10.6 L4.0 12.1 M4.0 13.6 L4.0 15.1 M4.0 16.6 L4.0 18.1 M4.0 19.6 L4.0 21.1 M4.0 22.6 L4.0 24.1 M17.7 30.0 L19.2 30.0 M14.7 30.0 L16.2 30.0 M11.7 30.0 L13.2 30.0 M8.7 30.0 L10.2 30.0 M5.7 30.0 L7.2 30.0 M4.0 28.6 L4.0 30.0 M4.0 25.6 L4.0 27.1 M29.6 30.25 L30.35 30.65 30.65 31.3 M26.7 30.0 L28.2 30.0 M23.7 30.0 L25.2 30.0 M20.7 30.0 L22.2 30.0 M4.0 -1.4 L4.0 0.1 M-0.1 30.0 L1.4 30.0" fill="none" stroke="url(#gradient4)" stroke-linecap="round" stroke-linejoin="round" stroke-width="0.5"/>
    <path d="M1.0 -52.0 Q1.0 -53.4 2.0 -53.8 L2.0 33.85 Q1.0 33.4 1.0 32.0 L1.0 -52.0" fill="#000000" fill-opacity="0.2" fill-rule="evenodd" stroke="none"/>
    <path d="M2.0 35.0 L2.0 34.0 27.7 34.0 29.0 34.15 29.0 35.0 2.0 35.0" fill="#442a25" fill-rule="evenodd" stroke="none"/>
    <path d="M2.0 34.0 L2.0 33.0 27.7 33.0 Q31.0 33.0 31.0 36.3 L31.0 40.7 Q31.0 44.0 27.7 44.0 L-26.0 44.0 Q-28.05 44.0 -29.55 42.5 -30.65 41.4 -30.9 40.0 L-31.0 39.0 Q-31.0 36.95 -29.55 35.45 -28.05 34.0 -26.0 34.0 L2.0 34.0 2.0 35.0 -25.5 35.0 Q-27.35 35.0 -28.7 36.3 -29.8 37.45 -29.95 39.0 L-29.75 39.95 Q-29.45 40.9 -28.7 41.65 -27.35 43.0 -25.5 43.0 L27.0 43.0 Q29.6 43.0 29.6 40.4 L29.6 36.6 Q29.6 34.0 27.0 34.0 L2.0 34.0" fill="url(#gradient5)" fill-rule="evenodd" stroke="none"/>
    <path d="M-23.0 -50.0 L-23.0 30.0 -24.0 30.0 -24.0 -50.0 -23.0 -50.0" fill="#000000" fill-opacity="0.15294118" fill-rule="evenodd" stroke="none"/>
    <path d="M1.8 -15.65 L4.0 -16.0 29.0 -16.0 Q30.15 -15.95 31.0 -15.05 32.05 -13.95 32.0 -12.0 L32.0 2.0 Q31.7 2.9 31.0 3.0 L31.0 -4.0 Q31.15 -5.65 29.0 -6.0 L4.0 -6.0 2.1 -5.3 0.0 -5.0 -5.1 -5.0 Q-7.15 -3.0 -10.0 -3.0 -12.85 -3.0 -14.9 -5.0 L-20.0 -5.0 Q-23.05 -6.4 -23.05 -10.05 -23.0 -13.65 -20.0 -15.0 L-14.9 -15.0 Q-12.85 -17.0 -10.0 -17.0 -7.15 -17.0 -5.1 -15.0 L0.0 -15.0 1.8 -15.65" fill="#000000" fill-opacity="0.4" fill-rule="evenodd" stroke="none"/>
    <path d="M4.0 -17.0 L29.0 -17.0 Q30.15 -16.95 31.0 -16.05 32.05 -14.95 32.0 -13.0 L32.0 1.0 Q31.7 1.9 31.0 2.0 L31.0 -5.0 Q31.15 -6.65 29.0 -7.0 L4.0 -7.0 2.1 -6.3 0.0 -6.0 -5.1 -6.0 Q-7.15 -4.0 -10.0 -4.0 -12.85 -4.0 -14.9 -6.0 L-20.0 -6.0 Q-23.05 -7.4 -23.05 -11.05 -23.0 -14.65 -20.0 -16.0 L-14.9 -16.0 Q-12.85 -18.0 -10.0 -18.0 -7.15 -18.0 -5.1 -16.0 L0.0 -16.0 1.8 -16.65 4.0 -17.0" fill="url(#gradient6)" fill-rule="evenodd" stroke="none"/>
    <path d="M0.4 -14.55 L2.4 -15.25 2.3 -15.2 3.95 -15.5 4.0 -15.5 29.05 -15.35 Q30.35 -15.35 31.2 -14.1 32.0 -12.85 32.0 -11.05 L32.0 -6.5 31.55 -7.4 Q31.05 -8.15 29.45 -8.4 L4.0 -8.5 3.65 -8.45 1.65 -7.7 0.1 -7.5 0.0 -7.5 -5.1 -7.5 -6.15 -7.05 Q-7.75 -5.5 -10.0 -5.5 -12.25 -5.5 -13.85 -7.05 -14.3 -7.5 -14.9 -7.5 L-19.6 -7.5 Q-21.6 -8.55 -21.55 -11.0 L-21.55 -11.05 Q-21.55 -13.5 -19.6 -14.5 L-14.9 -14.5 Q-14.3 -14.5 -13.85 -14.9 -12.25 -16.5 -10.0 -16.5 -7.75 -16.5 -6.15 -14.9 -5.7 -14.5 -5.1 -14.5 L0.0 -14.5 0.4 -14.55" fill="url(#gradient7)" fill-rule="evenodd" stroke="none"/>
    <path d="M-7.2 -13.85 Q-6.0 -12.65 -6.0 -11.0 -6.0 -9.35 -7.2 -8.2 -8.35 -7.0 -10.0 -7.0 -11.65 -7.0 -12.85 -8.2 -14.0 -9.35 -14.0 -11.0 -14.0 -12.65 -12.85 -13.85 -11.65 -15.0 -10.0 -15.0 -8.35 -15.0 -7.2 -13.85" fill="url(#gradient8)" fill-rule="evenodd" stroke="none"/>
    <path d="M-7.35 -11.0 Q-7.35 -9.9 -8.15 -9.15 -8.9 -8.35 -10.0 -8.35 -11.1 -8.35 -11.9 -9.15 -12.65 -9.9 -12.65 -11.0 -12.65 -12.1 -11.9 -12.9 -11.1 -13.65 -10.0 -13.65 -8.9 -13.65 -8.15 -12.9 -7.35 -12.1 -7.35 -11.0 Z" fill="none" stroke="url(#gradient9)" stroke-linecap="round" stroke-linejoin="round" stroke-width="0.25"/>
    <path d="M-29.6 54.9 Q-25.65 53.7 -25.85 46.55 -25.95 42.25 -26.95 39.0 L-27.0 38.0 -25.0 38.0 -25.0 39.0 -24.45 42.3 Q-23.95 45.45 -24.05 47.75 -24.3 54.55 -29.2 55.0 L-29.6 54.9" fill="url(#gradient10)" fill-rule="evenodd" stroke="none"/>
    <path d="M-29.2 55.0 L-29.95 55.0 Q-33.8 54.85 -37.0 52.45 -40.2 50.1 -41.0 47.0 L-39.0 45.0 Q-37.9 48.9 -35.25 51.65 -32.7 54.35 -29.6 54.9 L-29.2 55.0" fill="url(#gradient11)" fill-rule="evenodd" stroke="none"/>
    <path d="M24.85 -49.6 Q25.3 -48.65 24.95 -47.7 L24.95 -47.65 25.4 -47.5 25.7 -47.25 25.7 -46.85 25.45 -46.6 25.05 -46.55 25.35 -46.3 25.4 -45.9 25.3 -45.75 Q26.05 -43.95 28.15 -43.3 L21.35 -24.55 19.95 -20.8 Q19.1 -21.65 19.2 -22.7 17.4 -16.65 15.6 -11.75 L14.65 -12.1 10.4 -0.45 10.45 -0.35 10.5 0.75 Q10.3 1.35 9.75 1.6 L8.6 1.65 7.9 3.5 7.15 3.25 7.85 3.5 Q4.3 13.9 -0.3 22.85 L-1.7 22.35 -0.25 22.9 -0.3 26.05 -2.15 25.4 Q-3.3 28.65 -3.3 31.35 -4.2 31.45 -5.35 32.55 -6.4 33.6 -6.5 34.4 L-8.4 33.7 Q-8.0 33.0 -8.15 31.55 -8.3 29.95 -8.9 29.25 -7.2 27.25 -5.95 24.05 L-7.8 23.35 -5.85 20.8 Q-3.55 11.05 0.4 0.8 L1.1 -1.05 Q0.55 -1.25 0.25 -1.9 0.0 -2.45 0.2 -3.05 L0.95 -3.85 1.0 -3.85 5.25 -15.5 4.3 -15.85 Q7.15 -23.9 12.15 -34.5 17.0 -44.75 19.1 -47.7 L18.8 -47.95 18.8 -48.3 19.05 -48.6 19.45 -48.65 19.15 -48.9 19.1 -49.25 19.4 -49.55 19.8 -49.6 20.25 -49.4 Q20.6 -50.35 21.5 -50.8 L23.45 -50.9 Q24.45 -50.55 24.85 -49.6 M24.65 -44.95 Q24.25 -41.15 21.55 -31.1 L19.45 -23.5 20.2 -24.4 26.55 -41.8 24.35 -42.6 24.65 -44.95" fill="#000000" fill-opacity="0.2" fill-rule="evenodd" stroke="none"/>
  </g>
  <defs>
    <linearGradient gradientTransform="matrix(0.0369, 0.0, 0.0, 0.0032, 0.05, 31.8)" gradientUnits="userSpaceOnUse" id="gradient0" spreadMethod="pad" x1="-819.2" x2="819.2">
      <stop offset="0.01568627450980392" stop-color="#3e2c24"/>
      <stop offset="0.23137254901960785" stop-color="#6b5145"/>
      <stop offset="0.5333333333333333" stop-color="#65493d"/>
      <stop offset="1.0" stop-color="#3e2924"/>
    </linearGradient>
    <linearGradient gradientTransform="matrix(-0.0372, 0.0, 0.0, -0.0591, -0.7, -4.3)" gradientUnits="userSpaceOnUse" id="gradient1" spreadMethod="pad" x1="-819.2" x2="819.2">
      <stop offset="0.0" stop-color="#744f36"/>
      <stop offset="0.8941176470588236" stop-color="#7c5c3f"/>
      <stop offset="0.9686274509803922" stop-color="#443026"/>
      <stop offset="1.0" stop-color="#6f5342"/>
    </linearGradient>
    <linearGradient gradientTransform="matrix(0.0, -0.0037, 0.0037, 0.0, -1.5, 38.0)" gradientUnits="userSpaceOnUse" id="gradient2" spreadMethod="pad" x1="-819.2" x2="819.2">
      <stop offset="0.00784313725490196" stop-color="#dad5cf"/>
      <stop offset="0.7450980392156863" stop-color="#9b8d80"/>
    </linearGradient>
    <linearGradient gradientTransform="matrix(-0.0178, 0.0, 0.0, -0.0548, 16.2, -8.2)" gradientUnits="userSpaceOnUse" id="gradient3" spreadMethod="pad" x1="-819.2" x2="819.2">
      <stop offset="0.0" stop-color="#6f5342"/>
      <stop offset="0.050980392156862744" stop-color="#52362e"/>
      <stop offset="0.1568627450980392" stop-color="#7c5c3f"/>
      <stop offset="0.8862745098039215" stop-color="#77553a"/>
      <stop offset="1.0" stop-color="#886037"/>
    </linearGradient>
    <linearGradient gradientTransform="matrix(0.0381, 0.0, 0.0, 0.0525, 0.0, -7.5)" gradientUnits="userSpaceOnUse" id="gradient4" spreadMethod="pad" x1="-819.2" x2="819.2">
      <stop offset="0.0" stop-color="#77624f"/>
      <stop offset="0.08235294117647059" stop-color="#8d705c"/>
      <stop offset="0.20784313725490197" stop-color="#ac8e68"/>
      <stop offset="0.8156862745098039" stop-color="#ac8e68"/>
      <stop offset="0.9215686274509803" stop-color="#8d705c"/>
      <stop offset="1.0" stop-color="#77624f"/>
    </linearGradient>
    <linearGradient gradientTransform="matrix(0.0, -0.0069, 0.0067, 0.0, 0.0, 38.5)" gradientUnits="userSpaceOnUse" id="gradient5" spreadMethod="pad" x1="-819.2" x2="819.2">
      <stop offset="0.10588235294117647" stop-color="#3f2323"/>
      <stop offset="0.8274509803921568" stop-color="#3f2323"/>
      <stop offset="1.0" stop-color="#57422f"/>
    </linearGradient>
    <linearGradient gradientTransform="matrix(-0.0355, 2.0E-4, 0.0, -0.0122, 5.8, -7.25)" gradientUnits="userSpaceOnUse" id="gradient6" spreadMethod="pad" x1="-819.2" x2="819.2">
      <stop offset="0.0" stop-color="#a58c76"/>
      <stop offset="0.08627450980392157" stop-color="#6f503c"/>
      <stop offset="0.15294117647058825" stop-color="#a98e6b"/>
      <stop offset="0.4235294117647059" stop-color="#a8926a"/>
      <stop offset="0.5215686274509804" stop-color="#8e7553"/>
      <stop offset="0.5764705882352941" stop-color="#8e7553"/>
      <stop offset="0.6549019607843137" stop-color="#a8926a"/>
      <stop offset="0.9686274509803922" stop-color="#ae976c"/>
    </linearGradient>
    <linearGradient gradientTransform="matrix(-0.0327, 0.0, 0.0, -0.0067, 5.2, -11.0)" gradientUnits="userSpaceOnUse" id="gradient7" spreadMethod="pad" x1="-819.2" x2="819.2">
      <stop offset="0.0" stop-color="#744e3d"/>
      <stop offset="0.050980392156862744" stop-color="#483122"/>
      <stop offset="0.12156862745098039" stop-color="#695138"/>
      <stop offset="0.4588235294117647" stop-color="#725740"/>
      <stop offset="0.5490196078431373" stop-color="#412f29"/>
      <stop offset="0.615686274509804" stop-color="#5b4433"/>
      <stop offset="1.0" stop-color="#5a4232"/>
    </linearGradient>
    <radialGradient cx="0" cy="0" fx="246.4" fy="0" gradientTransform="matrix(0.0013, -0.0049, 0.0049, 0.0013, -10.05, -11.15)" gradientUnits="userSpaceOnUse" id="gradient8" r="819.2" spreadMethod="pad">
      <stop offset="0.09803921568627451" stop-color="#ffffff"/>
      <stop offset="0.30196078431372547" stop-color="#d1d0c2"/>
      <stop offset="0.49411764705882355" stop-color="#9f9f9f"/>
      <stop offset="0.8745098039215686" stop-color="#606060"/>
      <stop offset="0.9921568627450981" stop-color="#797777"/>
    </radialGradient>
    <linearGradient gradientTransform="matrix(0.0, -0.0034, 0.0034, 0.0, -10.0, -11.0)" gradientUnits="userSpaceOnUse" id="gradient9" spreadMethod="pad" x1="-819.2" x2="819.2">
      <stop offset="0.0" stop-color="#959595"/>
      <stop offset="0.5843137254901961" stop-color="#636363"/>
    </linearGradient>
    <linearGradient gradientTransform="matrix(-1.0E-4, -0.0104, 0.0104, -1.0E-4, -27.05, 46.5)" gradientUnits="userSpaceOnUse" id="gradient10" spreadMethod="pad" x1="-819.2" x2="819.2">
      <stop offset="0.0" stop-color="#750202"/>
      <stop offset="0.5490196078431373" stop-color="#db2b2b"/>
      <stop offset="0.9764705882352941" stop-color="#c12828"/>
    </linearGradient>
    <linearGradient gradientTransform="matrix(-0.0073, -0.0063, 0.004, -0.0046, -35.0, 50.0)" gradientUnits="userSpaceOnUse" id="gradient11" spreadMethod="pad" x1="-819.2" x2="819.2">
      <stop offset="0.0" stop-color="#550000"/>
      <stop offset="0.4392156862745098" stop-color="#cc0000"/>
      <stop offset="0.9882352941176471" stop-color="#530202"/>
    </linearGradient>
  </defs>
</svg>
