<?xml version="1.0" encoding="UTF-8" standalone="no"?>
<svg xmlns:xlink="http://www.w3.org/1999/xlink" height="90.55px" width="13.0px" xmlns="http://www.w3.org/2000/svg">
  <g transform="matrix(1.0, 0.0, 0.0, 1.0, 6.0, 39.5)">
    <path d="M4.0 17.0 Q3.8 30.85 2.95 38.0 L-3.0 38.0 Q-4.0 29.7 -4.0 17.0 L4.0 17.0" fill="url(#gradient0)" fill-rule="evenodd" stroke="none"/>
    <path d="M2.95 38.0 L3.0 38.0 4.0 41.0 2.0 41.0 -2.0 41.0 -4.0 41.0 -3.0 38.0 2.95 38.0" fill="url(#gradient1)" fill-rule="evenodd" stroke="none"/>
    <path d="M2.0 41.0 Q2.05 44.45 3.0 47.0 2.2 47.4 1.5 48.85 0.85 50.2 1.0 51.0 L-1.0 51.0 Q-0.85 50.2 -1.5 48.85 -2.2 47.4 -3.0 47.0 -2.05 44.45 -2.0 41.0 L2.0 41.0" fill="url(#gradient2)" fill-rule="evenodd" stroke="none"/>
    <path d="M-5.0 0.0 L5.0 0.0 5.0 12.0 -5.0 12.0 -5.0 0.0" fill="url(#gradient3)" fill-rule="evenodd" stroke="none"/>
    <path d="M5.0 12.0 Q5.45 12.5 5.45 13.5 5.45 14.5 5.0 15.0 L4.0 15.0 -4.0 15.0 -5.0 15.0 Q-5.6 14.4 -5.55 13.4 -5.5 12.4 -5.0 12.0 L5.0 12.0" fill="url(#gradient4)" fill-rule="evenodd" stroke="none"/>
    <path d="M-5.0 0.0 L-6.0 0.0 Q-6.05 -8.55 -5.0 -20.25 -4.0 -31.55 -3.0 -35.0 L3.0 -35.0 Q4.0 -31.55 5.0 -20.25 6.05 -8.55 6.0 0.0 L5.0 0.0 -5.0 0.0" fill="url(#gradient5)" fill-rule="evenodd" stroke="none"/>
    <path d="M0.0 -39.5 Q1.7 -39.5 2.5 -37.0 L-2.5 -37.0 Q-1.65 -39.5 0.0 -39.5" fill="url(#gradient6)" fill-rule="evenodd" stroke="none"/>
    <path d="M4.0 15.0 L4.0 17.0 -4.0 17.0 -4.0 15.0 4.0 15.0" fill="url(#gradient7)" fill-rule="evenodd" stroke="none"/>
    <path d="M0.35 47.35 L0.0 47.5 -0.35 47.35 -0.5 47.0 -0.35 46.65 0.0 46.5 0.35 46.65 0.5 47.0 0.35 47.35" fill="#000000" fill-rule="evenodd" stroke="none"/>
    <path d="M3.0 -35.0 L3.0 -36.0 Q4.35 -33.9 7.0 -34.0 L7.0 -14.0 7.0 -10.0 Q5.9 -10.5 5.65 -11.55 L5.6 -12.2 Q5.65 -12.95 6.0 -13.45 L6.0 -32.0 3.65 -32.0 3.0 -35.0" fill="url(#gradient8)" fill-rule="evenodd" stroke="none"/>
    <path d="M3.0 -36.0 L3.35 -35.85 3.5 -35.5 3.35 -35.15 3.0 -35.0 -3.0 -35.0 -3.35 -35.15 -3.5 -35.5 -3.35 -35.85 -3.0 -36.0 3.0 -36.0" fill="url(#gradient9)" fill-rule="evenodd" stroke="none"/>
    <path d="M2.95 -36.5 L3.0 -36.0 -3.0 -36.0 -2.95 -36.5 -2.7 -37.0 2.7 -37.0 2.95 -36.5" fill="url(#gradient10)" fill-rule="evenodd" stroke="none"/>
    <path d="M2.0 42.0 L-2.0 42.0 -2.0 41.0 2.0 41.0 2.0 42.0 M5.0 1.0 L-5.0 1.0 -5.0 0.0 5.0 0.0 5.0 1.0" fill="#000000" fill-opacity="0.2" fill-rule="evenodd" stroke="none"/>
  </g>
  <defs>
    <radialGradient cx="0" cy="0" gradientTransform="matrix(0.0062, 0.0, 0.0, 0.0365, 0.0, 16.85)" gradientUnits="userSpaceOnUse" id="gradient0" r="819.2" spreadMethod="pad">
      <stop offset="0.043137254901960784" stop-color="#ffffff"/>
      <stop offset="0.1568627450980392" stop-color="#a3a3a3"/>
      <stop offset="0.2627450980392157" stop-color="#6d6d6d"/>
      <stop offset="0.3137254901960784" stop-color="#555555"/>
      <stop offset="0.596078431372549" stop-color="#262626"/>
      <stop offset="0.7607843137254902" stop-color="#000000"/>
      <stop offset="0.9490196078431372" stop-color="#606060"/>
    </radialGradient>
    <radialGradient cx="0" cy="0" gradientTransform="matrix(0.0049, 0.0, 0.0, 0.0057, 0.0, 41.0)" gradientUnits="userSpaceOnUse" id="gradient1" r="819.2" spreadMethod="pad">
      <stop offset="0.0" stop-color="#6d6d6d"/>
      <stop offset="0.3764705882352941" stop-color="#262626"/>
      <stop offset="0.7215686274509804" stop-color="#000000"/>
      <stop offset="0.9372549019607843" stop-color="#515151"/>
    </radialGradient>
    <linearGradient gradientTransform="matrix(0.0038, 0.0, 0.0, 0.0061, 0.0, 46.0)" gradientUnits="userSpaceOnUse" id="gradient2" spreadMethod="pad" x1="-819.2" x2="819.2">
      <stop offset="0.0" stop-color="#caae60"/>
      <stop offset="0.08627450980392157" stop-color="#b68c41"/>
      <stop offset="0.28627450980392155" stop-color="#c6a646"/>
      <stop offset="0.44313725490196076" stop-color="#ffffff"/>
      <stop offset="0.5333333333333333" stop-color="#ffffff"/>
      <stop offset="0.6509803921568628" stop-color="#c19b28"/>
      <stop offset="0.7490196078431373" stop-color="#5a441d"/>
      <stop offset="0.8901960784313725" stop-color="#caae60"/>
      <stop offset="0.9882352941176471" stop-color="#a38838"/>
    </linearGradient>
    <linearGradient gradientTransform="matrix(0.0061, 0.0, 0.0, 0.0079, 0.0, 6.5)" gradientUnits="userSpaceOnUse" id="gradient3" spreadMethod="pad" x1="-819.2" x2="819.2">
      <stop offset="0.0" stop-color="#384978"/>
      <stop offset="0.10588235294117647" stop-color="#061246"/>
      <stop offset="0.30980392156862746" stop-color="#3c5291"/>
      <stop offset="0.39215686274509803" stop-color="#4277bd"/>
      <stop offset="0.4588235294117647" stop-color="#5591cc"/>
      <stop offset="0.5647058823529412" stop-color="#5591cc"/>
      <stop offset="0.6313725490196078" stop-color="#4277bd"/>
      <stop offset="0.7098039215686275" stop-color="#3c5291"/>
      <stop offset="0.8980392156862745" stop-color="#061246"/>
      <stop offset="1.0" stop-color="#384978"/>
    </linearGradient>
    <radialGradient cx="0" cy="0" gradientTransform="matrix(0.008, 0.0, 0.0, 0.0039, -0.05, 13.5)" gradientUnits="userSpaceOnUse" id="gradient4" r="819.2" spreadMethod="pad">
      <stop offset="0.20784313725490197" stop-color="#ffffff"/>
      <stop offset="0.2784313725490196" stop-color="#c6b671"/>
      <stop offset="0.7137254901960784" stop-color="#5a441d"/>
      <stop offset="0.8392156862745098" stop-color="#815529"/>
      <stop offset="0.9254901960784314" stop-color="#cdb469"/>
    </radialGradient>
    <radialGradient cx="0" cy="0" gradientTransform="matrix(0.0073, 0.0, 0.0, 0.0513, 0.0, 0.0)" gradientUnits="userSpaceOnUse" id="gradient5" r="819.2" spreadMethod="pad">
      <stop offset="0.13333333333333333" stop-color="#5591cc"/>
      <stop offset="0.2980392156862745" stop-color="#406cb0"/>
      <stop offset="0.5686274509803921" stop-color="#32467e"/>
      <stop offset="0.8509803921568627" stop-color="#09154a"/>
      <stop offset="1.0" stop-color="#2c4154"/>
    </radialGradient>
    <radialGradient cx="0" cy="0" gradientTransform="matrix(0.0028, 0.0, 0.0, 0.0025, 0.0, -37.0)" gradientUnits="userSpaceOnUse" id="gradient6" r="819.2" spreadMethod="pad">
      <stop offset="0.0" stop-color="#a2c2e3"/>
      <stop offset="0.24313725490196078" stop-color="#526cba"/>
      <stop offset="0.48627450980392156" stop-color="#374b88"/>
      <stop offset="0.8509803921568627" stop-color="#1d2745"/>
      <stop offset="1.0" stop-color="#2c4154"/>
    </radialGradient>
    <linearGradient gradientTransform="matrix(0.0049, 0.0, 0.0, 0.0012, 0.0, 16.0)" gradientUnits="userSpaceOnUse" id="gradient7" spreadMethod="pad" x1="-819.2" x2="819.2">
      <stop offset="0.0" stop-color="#cdb469"/>
      <stop offset="0.047058823529411764" stop-color="#8b5b2c"/>
      <stop offset="0.09803921568627451" stop-color="#5a441d"/>
      <stop offset="0.24313725490196078" stop-color="#b09b39"/>
      <stop offset="0.43137254901960786" stop-color="#ffffff"/>
      <stop offset="0.5568627450980392" stop-color="#ffffff"/>
      <stop offset="0.7333333333333333" stop-color="#b09b39"/>
      <stop offset="0.9176470588235294" stop-color="#5a441d"/>
      <stop offset="0.9607843137254902" stop-color="#8b5b2c"/>
      <stop offset="1.0" stop-color="#cdb469"/>
    </linearGradient>
    <linearGradient gradientTransform="matrix(0.0097, 0.0021, -0.0034, 0.0154, 3.9, -23.15)" gradientUnits="userSpaceOnUse" id="gradient8" spreadMethod="pad" x1="-819.2" x2="819.2">
      <stop offset="0.16862745098039217" stop-color="#5a441d"/>
      <stop offset="0.4470588235294118" stop-color="#b09b39"/>
      <stop offset="0.5215686274509804" stop-color="#ffffff"/>
      <stop offset="0.6862745098039216" stop-color="#b09b39"/>
      <stop offset="0.8823529411764706" stop-color="#5a441d"/>
      <stop offset="0.9372549019607843" stop-color="#73523e"/>
      <stop offset="1.0" stop-color="#b09b39"/>
    </linearGradient>
    <radialGradient cx="0" cy="0" gradientTransform="matrix(0.005, 0.0, 0.0, 0.0018, 0.0, -35.5)" gradientUnits="userSpaceOnUse" id="gradient9" r="819.2" spreadMethod="pad">
      <stop offset="0.20784313725490197" stop-color="#ffffff"/>
      <stop offset="0.2784313725490196" stop-color="#c6b671"/>
      <stop offset="0.7333333333333333" stop-color="#5a441d"/>
      <stop offset="0.8509803921568627" stop-color="#815529"/>
      <stop offset="1.0" stop-color="#cdb469"/>
    </radialGradient>
    <linearGradient gradientTransform="matrix(0.0037, 0.0, 0.0, 6.0E-4, 0.0, -36.5)" gradientUnits="userSpaceOnUse" id="gradient10" spreadMethod="pad" x1="-819.2" x2="819.2">
      <stop offset="0.00392156862745098" stop-color="#cdb469"/>
      <stop offset="0.050980392156862744" stop-color="#815529"/>
      <stop offset="0.11764705882352941" stop-color="#5a441d"/>
      <stop offset="0.3137254901960784" stop-color="#c6b671"/>
      <stop offset="0.4627450980392157" stop-color="#ffffff"/>
      <stop offset="0.5215686274509804" stop-color="#ffffff"/>
      <stop offset="0.7254901960784313" stop-color="#c6b671"/>
      <stop offset="0.8941176470588236" stop-color="#5a441d"/>
      <stop offset="0.9490196078431372" stop-color="#815529"/>
      <stop offset="1.0" stop-color="#cdb469"/>
    </linearGradient>
  </defs>
</svg>
