<?xml version="1.0" encoding="UTF-8" standalone="no"?>
<svg xmlns:xlink="http://www.w3.org/1999/xlink" height="65.1px" width="43.5px" xmlns="http://www.w3.org/2000/svg">
  <g transform="matrix(1.0, 0.0, 0.0, 1.0, 21.75, 32.55)">
    <path d="M-18.1 -27.15 L-19.45 -27.35 -17.25 -31.55 Q-15.65 -31.3 -14.75 -30.85 -13.8 -30.45 -13.25 -29.9 -12.7 -29.35 -12.5 -28.7 L-12.25 -27.5 Q-12.25 -26.4 -12.8 -25.4 -13.3 -24.4 -14.15 -23.7 L-13.4 -23.1 -12.4 -22.05 -11.5 -20.75 Q-11.15 -20.05 -11.15 -19.3 -11.15 -18.55 -11.4 -17.9 L-12.0 -16.65 -16.75 -11.4 -20.75 -15.15 -18.1 -18.25 -15.3 -15.7 -15.15 -16.15 Q-15.0 -16.4 -15.0 -16.9 -15.0 -17.7 -15.5 -18.4 L-16.6 -19.7 -17.9 -20.65 -19.0 -21.4 -18.1 -22.3 -17.2 -23.2 -16.35 -24.25 Q-16.0 -24.8 -16.0 -25.2 -16.0 -25.65 -16.3 -26.0 L-17.05 -26.7 -18.1 -27.15 Z" fill="none" stroke="#000000" stroke-linecap="round" stroke-linejoin="round" stroke-width="2.0"/>
    <path d="M-18.1 -27.15 L-19.45 -27.35 -17.25 -31.55 Q-15.65 -31.3 -14.75 -30.85 -13.8 -30.45 -13.25 -29.9 -12.7 -29.35 -12.5 -28.7 L-12.25 -27.5 Q-12.25 -26.4 -12.8 -25.4 -13.3 -24.4 -14.15 -23.7 L-13.4 -23.1 -12.4 -22.05 -11.5 -20.75 Q-11.15 -20.05 -11.15 -19.3 -11.15 -18.55 -11.4 -17.9 L-12.0 -16.65 -16.75 -11.4 -20.75 -15.15 -18.1 -18.25 -15.3 -15.7 -15.15 -16.15 Q-15.0 -16.4 -15.0 -16.9 -15.0 -17.7 -15.5 -18.4 L-16.6 -19.7 -17.9 -20.65 -19.0 -21.4 -18.1 -22.3 -17.2 -23.2 -16.35 -24.25 Q-16.0 -24.8 -16.0 -25.2 -16.0 -25.65 -16.3 -26.0 L-17.05 -26.7 -18.1 -27.15" fill="#ffffff" fill-rule="evenodd" stroke="none"/>
    <path d="M18.1 27.15 L19.45 27.35 17.25 31.55 Q15.65 31.3 14.75 30.85 13.8 30.45 13.25 29.9 12.7 29.35 12.5 28.7 L12.25 27.5 Q12.25 26.4 12.8 25.4 13.3 24.4 14.15 23.7 L13.4 23.1 12.4 22.05 11.5 20.75 Q11.15 20.05 11.15 19.3 11.15 18.55 11.4 17.9 L12.0 16.65 16.75 11.4 20.75 15.15 18.1 18.25 15.3 15.7 15.15 16.15 Q15.0 16.4 15.0 16.9 15.0 17.7 15.5 18.4 L16.6 19.7 17.9 20.65 19.0 21.4 18.1 22.3 17.2 23.2 16.35 24.25 Q16.0 24.8 16.0 25.2 16.0 25.65 16.3 26.0 L17.05 26.7 18.1 27.15 Z" fill="none" stroke="#000000" stroke-linecap="round" stroke-linejoin="round" stroke-width="2.0"/>
    <path d="M18.1 27.15 L19.45 27.35 17.25 31.55 Q15.65 31.3 14.75 30.85 13.8 30.45 13.25 29.9 12.7 29.35 12.5 28.7 L12.25 27.5 Q12.25 26.4 12.8 25.4 13.3 24.4 14.15 23.7 L13.4 23.1 12.4 22.05 11.5 20.75 Q11.15 20.05 11.15 19.3 11.15 18.55 11.4 17.9 L12.0 16.65 16.75 11.4 20.75 15.15 18.1 18.25 15.3 15.7 15.15 16.15 Q15.0 16.4 15.0 16.9 15.0 17.7 15.5 18.4 L16.6 19.7 17.9 20.65 19.0 21.4 18.1 22.3 17.2 23.2 16.35 24.25 Q16.0 24.8 16.0 25.2 16.0 25.65 16.3 26.0 L17.05 26.7 18.1 27.15" fill="#ffffff" fill-rule="evenodd" stroke="none"/>
  </g>
</svg>
