<?xml version="1.0" encoding="UTF-8" standalone="no"?>
<svg xmlns:xlink="http://www.w3.org/1999/xlink" height="64.6px" width="45.6px" xmlns="http://www.w3.org/2000/svg">
  <g transform="matrix(1.0, 0.0, 0.0, 1.0, 22.8, 32.3)">
    <path d="M-13.0 -26.6 L-11.85 -27.35 -11.85 -19.75 -10.7 -19.75 -10.7 -16.05 -11.85 -16.05 -11.85 -12.05 -16.25 -12.05 -16.25 -16.05 -21.8 -16.05 -19.6 -20.45 Q-18.6 -22.45 -17.9 -24.3 -17.2 -26.15 -16.8 -27.9 -16.35 -29.65 -16.35 -31.3 L-10.8 -31.3 -10.8 -29.7 -13.05 -26.9 -15.1 -23.9 -15.1 -23.85 -14.05 -25.3 -13.0 -26.6 M-16.3 -19.8 L-17.7 -19.8 -16.3 -22.05 -16.3 -19.8" fill="none" stroke="#000000" stroke-linecap="round" stroke-linejoin="round" stroke-width="2.0"/>
    <path d="M-13.0 -26.6 L-11.85 -27.35 -11.85 -19.75 -10.7 -19.75 -10.7 -16.05 -11.85 -16.05 -11.85 -12.05 -16.25 -12.05 -16.25 -16.05 -21.8 -16.05 -19.6 -20.45 Q-18.6 -22.45 -17.9 -24.3 -17.2 -26.15 -16.8 -27.9 -16.35 -29.65 -16.35 -31.3 L-10.8 -31.3 -10.8 -29.7 -13.05 -26.9 -15.1 -23.9 -15.1 -23.85 -14.05 -25.3 -13.0 -26.6 M-16.3 -19.8 L-16.3 -22.05 -17.7 -19.8 -16.3 -19.8" fill="#ffffff" fill-rule="evenodd" stroke="none"/>
    <path d="M13.0 26.6 L11.85 27.35 11.85 19.75 10.7 19.75 10.7 16.05 11.85 16.05 11.85 12.05 16.25 12.05 16.25 16.05 21.8 16.05 19.6 20.45 Q18.6 22.45 17.9 24.3 17.2 26.15 16.8 27.9 16.35 29.65 16.35 31.3 L10.8 31.3 10.8 29.7 13.05 26.9 15.1 23.9 15.1 23.85 14.05 25.3 13.0 26.6 M16.3 19.8 L17.7 19.8 16.3 22.05 16.3 19.8" fill="none" stroke="#000000" stroke-linecap="round" stroke-linejoin="round" stroke-width="2.0"/>
    <path d="M13.0 26.6 L11.85 27.35 11.85 19.75 10.7 19.75 10.7 16.05 11.85 16.05 11.85 12.05 16.25 12.05 16.25 16.05 21.8 16.05 19.6 20.45 Q18.6 22.45 17.9 24.3 17.2 26.15 16.8 27.9 16.35 29.65 16.35 31.3 L10.8 31.3 10.8 29.7 13.05 26.9 15.1 23.9 15.1 23.85 14.05 25.3 13.0 26.6 M16.3 19.8 L16.3 22.05 17.7 19.8 16.3 19.8" fill="#ffffff" fill-rule="evenodd" stroke="none"/>
  </g>
</svg>
