<?xml version="1.0" encoding="UTF-8" standalone="no"?>
<svg xmlns:xlink="http://www.w3.org/1999/xlink" height="117.0px" width="102.0px" xmlns="http://www.w3.org/2000/svg">
  <g transform="matrix(1.0, 0.0, 0.0, 1.0, 49.5, 57.5)">
    <path d="M44.9 -40.65 Q45.45 -40.05 45.5 -39.2 L52.5 38.8 Q52.6 39.7 52.05 40.5 51.45 41.25 50.55 41.45 L-31.45 59.45 -33.1 59.25 -45.1 53.25 -46.1 52.35 -46.5 51.1 -49.5 -39.9 Q-49.55 -40.8 -49.0 -41.45 L-38.0 -56.45 Q-37.6 -57.05 -36.9 -57.3 L-35.5 -57.45 43.5 -41.45 Q44.3 -41.3 44.9 -40.65" fill="#000000" fill-rule="evenodd" stroke="none"/>
    <path d="M-36.0 -55.0 L43.0 -39.0 46.8 3.2 50.0 39.0 -32.0 57.0 -34.65 -17.65 -36.0 -55.0" fill="url(#gradient0)" fill-rule="evenodd" stroke="none"/>
    <path d="M-36.0 -55.0 L-32.0 57.0 -44.0 51.0 -47.0 -40.0 -36.0 -55.0" fill="url(#gradient1)" fill-rule="evenodd" stroke="none"/>
    <path d="M-16.8 -51.1 L-11.65 52.55 -19.95 54.35 -25.25 -52.8 -16.8 -51.1" fill="url(#gradient2)" fill-rule="evenodd" stroke="none"/>
    <path d="M-1.85 -48.05 L4.4 49.05 2.6 49.45 -3.7 -48.45 -1.85 -48.05" fill="url(#gradient3)" fill-rule="evenodd" stroke="none"/>
    <path d="M-3.7 -48.45 L2.6 49.4 -11.65 52.55 -16.8 -51.1 -3.7 -48.45" fill="url(#gradient4)" fill-rule="evenodd" stroke="none"/>
    <path d="M-9.25 -36.2 L-12.0 -39.2 -9.6 -41.5 -7.1 -38.6 -9.25 -36.2" fill="#90875f" fill-rule="evenodd" stroke="none"/>
    <path d="M-9.25 -36.2 L-6.25 -33.6 -8.6 -19.6 -12.0 -34.0 -9.25 -36.2" fill="url(#gradient5)" fill-rule="evenodd" stroke="none"/>
  </g>
  <defs>
    <linearGradient gradientTransform="matrix(0.0368, -0.0696, 0.0604, 0.0319, -11.15, 1.2)" gradientUnits="userSpaceOnUse" id="gradient0" spreadMethod="pad" x1="-819.2" x2="819.2">
      <stop offset="0.0" stop-color="#494a4b"/>
      <stop offset="0.8392156862745098" stop-color="#262626"/>
      <stop offset="1.0" stop-color="#202020"/>
    </linearGradient>
    <linearGradient gradientTransform="matrix(0.0368, -0.0696, 0.0604, 0.0319, -11.15, 1.2)" gradientUnits="userSpaceOnUse" id="gradient1" spreadMethod="pad" x1="-819.2" x2="819.2">
      <stop offset="0.0" stop-color="#633254"/>
      <stop offset="0.8392156862745098" stop-color="#472335"/>
      <stop offset="1.0" stop-color="#2f1723"/>
    </linearGradient>
    <linearGradient gradientTransform="matrix(0.0368, -0.0696, 0.0604, 0.0319, -11.15, 1.2)" gradientUnits="userSpaceOnUse" id="gradient2" spreadMethod="pad" x1="-819.2" x2="819.2">
      <stop offset="0.0" stop-color="#918984"/>
      <stop offset="0.9372549019607843" stop-color="#5a5550"/>
    </linearGradient>
    <linearGradient gradientTransform="matrix(0.0368, -0.0696, 0.0604, 0.0319, -11.15, 1.2)" gradientUnits="userSpaceOnUse" id="gradient3" spreadMethod="pad" x1="-819.2" x2="819.2">
      <stop offset="0.0" stop-color="#b0a686"/>
      <stop offset="0.9215686274509803" stop-color="#7e7356"/>
    </linearGradient>
    <linearGradient gradientTransform="matrix(0.0368, -0.0696, 0.0604, 0.0319, -11.15, 1.2)" gradientUnits="userSpaceOnUse" id="gradient4" spreadMethod="pad" x1="-819.2" x2="819.2">
      <stop offset="0.0" stop-color="#434343"/>
      <stop offset="0.8392156862745098" stop-color="#202020"/>
      <stop offset="1.0" stop-color="#282828"/>
    </linearGradient>
    <linearGradient gradientTransform="matrix(0.0368, -0.0696, 0.0604, 0.0319, -11.15, 1.2)" gradientUnits="userSpaceOnUse" id="gradient5" spreadMethod="pad" x1="-819.2" x2="819.2">
      <stop offset="0.0" stop-color="#b0a686"/>
      <stop offset="1.0" stop-color="#90875f"/>
    </linearGradient>
  </defs>
</svg>
