<?xml version="1.0" encoding="UTF-8" standalone="no"?>
<svg xmlns:xlink="http://www.w3.org/1999/xlink" height="100.4px" width="57.75px" xmlns="http://www.w3.org/2000/svg">
  <g transform="matrix(1.0, 0.0, 0.0, 1.0, -2.55, -32.45)">
    <path d="M24.8 56.55 L38.55 72.0 40.6 70.25 Q41.4 69.3 41.4 68.25 41.4 67.3 39.6 65.0 37.8 62.55 35.45 60.05 L31.0 55.65 Q28.8 53.7 28.1 53.7 27.25 53.7 26.7 54.15 L25.65 55.25 Q25.05 55.8 24.8 56.55 M14.1 55.8 L36.0 37.95 58.75 61.95 43.15 77.3 54.75 90.0 58.35 94.05 Q60.3 96.45 60.3 100.05 60.3 103.5 58.2 106.2 56.15 108.9 53.0 112.05 L31.25 132.85 25.35 126.8 17.95 118.75 11.0 110.4 Q7.8 106.35 6.3 103.5 7.2 101.8 9.1 99.6 L13.5 94.7 18.85 89.3 24.25 84.0 12.6 69.75 Q11.4 68.25 10.3 66.05 9.2 63.9 9.2 62.25 9.2 60.6 10.8 58.95 L14.1 55.8 M25.9 92.9 Q24.25 94.8 24.25 96.6 24.25 98.65 26.05 101.75 27.8 104.8 30.2 107.75 32.7 110.7 35.35 112.8 37.95 114.95 39.6 114.95 41.25 114.95 42.6 113.1 43.95 111.25 43.95 109.2 43.95 105.35 41.55 103.05 L29.1 89.2 Q27.4 90.9 25.9 92.9" fill="#666666" fill-rule="evenodd" stroke="none"/>
    <path d="M22.95 48.65 Q22.35 49.1 21.9 49.75 21.3 50.3 21.05 51.05 L34.8 66.5 36.85 64.75 Q37.65 63.8 37.65 62.75 37.65 61.8 35.85 59.5 34.05 57.05 31.7 54.55 L27.25 50.15 Q25.05 48.2 24.35 48.2 23.5 48.2 22.95 48.65 M6.55 60.55 Q5.45 58.4 5.45 56.75 5.45 55.1 7.05 53.45 L10.35 50.3 32.25 32.45 55.0 56.45 39.4 71.8 51.0 84.5 54.6 88.55 Q56.55 90.95 56.55 94.55 56.55 98.0 54.45 100.7 52.4 103.4 49.25 106.55 L27.5 127.35 21.6 121.3 14.2 113.25 7.25 104.9 Q4.05 100.85 2.55 98.0 3.45 96.3 5.35 94.1 L9.75 89.2 15.1 83.8 20.5 78.5 8.85 64.25 Q7.65 62.75 6.55 60.55 M25.35 83.7 L22.15 87.4 Q20.5 89.3 20.5 91.1 20.5 93.15 22.3 96.25 24.05 99.3 26.45 102.25 28.95 105.2 31.6 107.3 34.2 109.45 35.85 109.45 37.5 109.45 38.85 107.6 40.2 105.75 40.2 103.7 40.2 99.85 37.8 97.55 L25.35 83.7" fill="url(#gradient0)" fill-rule="evenodd" stroke="none"/>
  </g>
  <defs>
    <linearGradient gradientTransform="matrix(2.0E-4, -0.0545, 0.0549, 2.0E-4, 308.75, 78.05)" gradientUnits="userSpaceOnUse" id="gradient0" spreadMethod="pad" x1="-819.2" x2="819.2">
      <stop offset="0.0" stop-color="#55000f"/>
      <stop offset="1.0" stop-color="#ff005a"/>
    </linearGradient>
  </defs>
</svg>
