<?xml version="1.0" encoding="UTF-8" standalone="no"?>
<svg xmlns:xlink="http://www.w3.org/1999/xlink" height="109.55px" width="49.45px" xmlns="http://www.w3.org/2000/svg">
  <g transform="matrix(1.0, 0.0, 0.0, 1.0, -9.05, -34.15)">
    <path d="M23.45 69.45 Q23.45 74.3 24.85 78.6 26.15 82.9 28.35 86.3 30.45 89.75 33.1 91.7 35.75 93.75 38.3 93.75 39.2 93.75 40.95 93.05 L44.6 91.05 Q44.15 85.65 42.5 80.8 40.85 75.9 38.55 71.85 36.2 67.85 33.55 64.55 31.0 61.15 28.7 58.95 26.3 61.4 24.9 63.45 23.45 65.55 23.45 69.45 M12.8 81.9 Q12.8 72.15 17.95 61.95 23.15 51.7 35.75 39.65 41.3 43.5 45.55 48.8 49.9 54.15 52.8 60.0 55.65 65.85 57.15 71.8 58.5 77.7 58.5 82.65 58.5 89.75 56.6 98.1 54.65 106.5 50.6 114.95 46.6 123.3 40.3 130.9 33.9 138.45 25.25 143.7 L30.6 134.85 36.4 124.4 Q39.2 118.8 41.3 112.75 43.45 106.65 44.3 100.5 L30.2 115.5 Q24.45 110.7 21.0 107.0 17.6 103.35 15.8 99.75 14.0 96.2 13.4 91.95 12.8 87.75 12.8 81.9" fill="#666666" fill-rule="evenodd" stroke="none"/>
    <path d="M29.8 59.05 Q27.25 55.65 24.95 53.45 22.55 55.9 21.15 57.95 19.7 60.05 19.7 63.95 19.7 68.8 21.1 73.1 22.4 77.4 24.6 80.8 26.7 84.25 29.35 86.2 32.0 88.25 34.55 88.25 L37.2 87.55 40.85 85.55 Q40.4 80.15 38.75 75.3 37.1 70.4 34.8 66.35 32.45 62.35 29.8 59.05 M9.05 76.4 Q9.05 66.65 14.2 56.45 19.4 46.2 32.0 34.15 37.55 38.0 41.8 43.3 46.15 48.65 49.05 54.5 51.9 60.35 53.4 66.3 54.75 72.2 54.75 77.15 54.75 84.25 52.85 92.6 50.9 101.0 46.85 109.45 42.85 117.8 36.55 125.4 30.15 132.95 21.5 138.2 L26.85 129.35 32.65 118.9 Q35.45 113.3 37.55 107.25 39.7 101.15 40.55 95.0 L26.45 110.0 Q20.7 105.2 17.25 101.5 13.85 97.85 12.05 94.25 10.25 90.7 9.65 86.45 9.05 82.25 9.05 76.4" fill="url(#gradient0)" fill-rule="evenodd" stroke="none"/>
  </g>
  <defs>
    <linearGradient gradientTransform="matrix(2.0E-4, -0.0545, 0.0549, 2.0E-4, 256.75, 78.05)" gradientUnits="userSpaceOnUse" id="gradient0" spreadMethod="pad" x1="-819.2" x2="819.2">
      <stop offset="0.0" stop-color="#55000f"/>
      <stop offset="1.0" stop-color="#ff005a"/>
    </linearGradient>
  </defs>
</svg>
