<?xml version="1.0" encoding="UTF-8" standalone="no"?>
<svg xmlns:xlink="http://www.w3.org/1999/xlink" height="33.4px" width="20.25px" xmlns="http://www.w3.org/2000/svg">
  <g transform="matrix(1.0, 0.0, 0.0, 1.0, 0.45, 0.05)">
    <path d="M18.9 8.15 Q19.3 8.55 19.3 9.2 L18.85 10.25 14.9 14.15 17.55 17.05 17.6 17.1 18.85 18.5 18.85 18.45 Q19.8 19.65 19.8 21.35 19.8 23.0 18.75 24.25 L18.8 24.2 17.05 26.25 17.0 26.3 10.05 32.95 Q9.6 33.35 9.0 33.35 8.4 33.35 8.0 32.95 L6.0 30.95 6.0 30.9 3.65 28.35 3.65 28.3 1.4 25.6 1.35 25.6 -0.3 23.15 -0.45 22.5 -0.3 21.85 Q0.0 21.1 0.75 20.25 L0.75 20.3 2.3 18.55 4.0 16.85 4.75 16.15 1.9 12.6 0.95 11.15 Q0.4 10.05 0.45 9.25 0.4 8.15 1.4 7.15 L2.5 6.1 2.55 6.05 9.55 0.3 Q10.0 -0.1 10.6 -0.05 11.2 0.0 11.6 0.45 L18.9 8.15 M8.25 20.25 L8.65 21.05 8.7 21.15 9.85 22.9 11.2 24.2 11.25 24.25 11.55 24.5 11.6 24.25 11.3 23.45 11.2 23.3 8.35 20.15 8.25 20.25" fill="#000000" fill-rule="evenodd" stroke="none"/>
    <path d="M10.35 8.55 L8.95 7.15 8.0 6.5 7.55 6.65 7.2 7.0 6.95 7.4 11.35 12.35 12.0 11.8 12.25 11.15 Q12.25 10.85 11.65 10.1 L10.35 8.55 M17.8 9.15 L12.8 14.05 16.5 18.1 17.65 19.4 Q18.3 20.2 18.3 21.35 18.3 22.45 17.6 23.3 L15.95 25.2 9.0 31.85 7.1 29.9 4.75 27.3 2.55 24.65 1.05 22.45 1.9 21.2 3.35 19.6 5.05 17.9 6.75 16.2 3.05 11.65 2.3 10.45 Q1.95 9.75 1.95 9.25 1.95 8.7 2.45 8.2 L3.5 7.2 10.5 1.45 17.8 9.15 M7.35 21.85 L8.65 23.8 10.3 25.4 Q11.15 26.1 11.65 26.1 12.2 26.1 12.65 25.5 L13.1 24.25 Q13.1 23.0 12.3 22.3 L8.3 17.85 7.3 19.05 Q6.75 19.65 6.75 20.25 6.75 20.9 7.35 21.85" fill="url(#gradient0)" fill-rule="evenodd" stroke="none"/>
  </g>
  <defs>
    <linearGradient gradientTransform="matrix(0.0, 0.0206, -0.0222, 0.0, -84.6, 15.65)" gradientUnits="userSpaceOnUse" id="gradient0" spreadMethod="pad" x1="-819.2" x2="819.2">
      <stop offset="0.0" stop-color="#ffffff"/>
      <stop offset="1.0" stop-color="#757575"/>
    </linearGradient>
  </defs>
</svg>
