<?xml version="1.0" encoding="UTF-8" standalone="no"?>
<svg xmlns:xlink="http://www.w3.org/1999/xlink" height="8.0px" width="6.0px" xmlns="http://www.w3.org/2000/svg">
  <g transform="matrix(1.0, 0.0, 0.0, 1.0, 3.0, 4.0)">
    <path d="M1.2 -1.0 L0.95 -2.0 Q0.65 -2.4 0.25 -2.4 L-0.25 -2.4 Q-0.65 -2.4 -0.95 -2.0 L-1.2 -1.0 -1.2 1.0 -0.95 2.0 Q-0.65 2.4 -0.25 2.4 L0.25 2.4 Q0.65 2.4 0.95 2.0 L1.2 1.0 1.2 -1.0 M2.3 -3.35 Q3.0 -2.65 3.0 -1.65 L3.0 1.65 Q3.0 2.65 2.3 3.3 1.65 4.0 0.65 4.0 L-0.65 4.0 Q-1.65 4.0 -2.35 3.3 -3.0 2.65 -3.0 1.65 L-3.0 -1.65 Q-3.0 -2.65 -2.35 -3.35 -1.65 -4.0 -0.65 -4.0 L0.65 -4.0 Q1.65 -4.0 2.3 -3.35" fill="url(#gradient0)" fill-rule="evenodd" stroke="none"/>
    <path d="M1.2 -4.0 L1.2 4.0 0.0 4.0 -1.2 4.0 -1.2 -4.0 0.0 -4.0 1.2 -4.0" fill="#000000" fill-opacity="0.5019608" fill-rule="evenodd" stroke="none"/>
  </g>
  <defs>
    <radialGradient cx="0" cy="0" gradientTransform="matrix(0.0045, 0.0, 0.0, 0.0059, 0.0, 0.0)" gradientUnits="userSpaceOnUse" id="gradient0" r="819.2" spreadMethod="pad">
      <stop offset="0.2627450980392157" stop-color="#c8b353"/>
      <stop offset="0.8470588235294118" stop-color="#66522f"/>
      <stop offset="1.0" stop-color="#9b9a31"/>
    </radialGradient>
  </defs>
</svg>
