<?xml version="1.0" encoding="UTF-8" standalone="no"?>
<svg xmlns:xlink="http://www.w3.org/1999/xlink" height="109.2px" width="75.0px" xmlns="http://www.w3.org/2000/svg">
  <g transform="matrix(1.0, 0.0, 0.0, 1.0, 37.5, 55.7)">
    <path d="M10.6 -55.55 L12.9 -55.7 Q13.75 -55.6 14.6 -55.1 15.85 -54.35 15.95 -52.45 16.1 -50.6 15.2 -46.3 14.15 -41.25 13.25 -39.75 L11.85 -37.95 Q13.85 -36.15 13.9 -34.05 13.95 -33.1 13.2 -30.9 L14.8 -29.85 22.15 -30.15 Q29.25 -28.65 33.3 -18.9 34.95 -15.1 35.05 -7.65 35.2 2.6 30.4 2.55 32.65 3.6 33.0 6.95 L33.0 7.0 Q33.2 8.85 32.75 9.9 32.35 10.9 31.3 11.55 L35.8 16.25 Q37.5 17.95 37.5 20.0 37.5 22.1 35.8 23.8 L13.1 46.5 13.5 47.0 14.1 48.1 Q14.5 49.2 14.5 51.0 14.5 52.05 13.8 52.8 13.05 53.5 12.0 53.5 L-12.0 53.5 Q-13.05 53.5 -13.8 52.8 -14.5 52.05 -14.5 51.0 -14.5 49.2 -14.1 48.1 L-13.5 47.0 -13.1 46.5 -35.8 23.8 Q-37.5 22.1 -37.5 20.0 -37.5 17.95 -35.8 16.25 L-31.3 11.55 Q-32.35 10.9 -32.75 9.9 -33.2 8.85 -33.0 7.0 L-33.0 6.95 Q-32.65 3.6 -30.4 2.55 -35.2 2.6 -35.05 -7.65 -34.95 -15.1 -33.3 -18.9 -29.25 -28.65 -22.15 -30.15 L-14.8 -29.85 -13.2 -30.9 Q-13.95 -33.1 -13.9 -34.05 -13.85 -36.15 -11.85 -37.95 L-13.25 -39.75 Q-14.15 -41.25 -15.2 -46.3 -16.1 -50.6 -15.95 -52.45 -15.85 -54.35 -14.6 -55.1 -13.75 -55.6 -12.9 -55.7 L-10.6 -55.55 Q-8.45 -55.3 -6.0 -53.9 -2.0 -51.65 0.0 -47.3 2.0 -51.65 6.0 -53.9 8.45 -55.3 10.6 -55.55 M12.4 -17.55 Q11.1 -16.0 9.35 -15.55 9.45 -13.85 9.95 -12.5 11.45 -12.55 12.25 -11.1 L13.5 -8.15 14.1 -7.05 14.6 -5.85 19.9 -0.3 Q20.9 -1.7 25.2 -3.45 27.45 -4.7 27.5 -9.35 27.55 -13.4 26.65 -16.1 L26.65 -16.15 Q24.7 -21.8 19.8 -23.35 15.35 -24.5 13.35 -19.05 L12.4 -17.55 M-27.5 -9.35 Q-27.45 -4.7 -25.2 -3.45 -20.9 -1.7 -19.9 -0.3 L-14.6 -5.85 -14.1 -7.05 -13.5 -8.15 -12.25 -11.1 Q-11.45 -12.55 -9.95 -12.5 -9.45 -13.85 -9.35 -15.55 -11.1 -16.0 -12.4 -17.55 L-13.35 -19.05 Q-15.35 -24.5 -19.8 -23.35 -24.7 -21.8 -26.65 -16.15 L-26.65 -16.1 Q-27.55 -13.4 -27.5 -9.35" fill="#000000" fill-rule="evenodd" stroke="none"/>
    <path d="M4.0 -18.0 L4.0 -24.0 11.0 -24.95 Q16.4 -29.05 21.55 -27.75 27.5 -26.3 31.0 -17.95 32.45 -14.45 32.55 -7.65 32.65 -0.1 30.0 0.05 23.5 0.45 23.95 4.25 24.15 5.6 25.15 6.85 26.15 8.0 27.0 8.05 26.45 6.2 27.8 5.4 29.0 4.65 29.65 5.1 30.35 5.6 30.5 7.2 30.65 8.7 30.15 9.2 29.1 10.2 27.2 9.5 25.6 8.95 24.35 7.7 20.25 3.6 21.8 1.35 22.5 0.35 26.15 -1.15 29.9 -2.7 30.0 -9.35 30.05 -13.9 29.0 -16.95 26.65 -23.9 20.5 -25.75 13.9 -27.75 11.0 -19.95 10.15 -18.25 8.1 -17.8 L4.0 -18.0" fill="url(#gradient0)" fill-rule="evenodd" stroke="none"/>
    <path d="M-30.0 -9.35 Q-29.9 -2.7 -26.15 -1.15 -22.5 0.35 -21.8 1.35 -20.25 3.6 -24.35 7.7 -25.6 8.95 -27.2 9.5 -29.1 10.2 -30.15 9.2 -30.65 8.7 -30.5 7.2 -30.35 5.6 -29.65 5.1 -29.0 4.65 -27.8 5.4 -26.45 6.2 -27.0 8.05 -26.15 8.0 -25.15 6.85 -24.15 5.6 -23.95 4.25 -23.5 0.45 -30.0 0.05 -32.65 -0.1 -32.55 -7.65 -32.45 -14.45 -31.0 -17.95 -27.5 -26.3 -21.55 -27.75 -16.4 -29.05 -11.0 -24.95 L-4.0 -24.0 -4.0 -18.0 -8.1 -17.8 Q-10.15 -18.25 -11.0 -19.95 -13.9 -27.75 -20.5 -25.75 -26.65 -23.9 -29.0 -16.95 -30.05 -13.9 -30.0 -9.35" fill="url(#gradient1)" fill-rule="evenodd" stroke="none"/>
    <path d="M-1.0 -8.0 L-1.0 45.0 -11.0 45.0 -34.0 22.0 Q-35.0 21.0 -35.0 20.0 -35.0 19.0 -34.0 18.0 L-9.1 -8.0 -1.0 -8.0" fill="url(#gradient2)" fill-rule="evenodd" stroke="none"/>
    <path d="M1.0 -8.0 L9.1 -8.0 34.0 18.0 Q35.0 19.0 35.0 20.0 35.0 21.0 34.0 22.0 L11.0 45.0 1.0 45.0 1.0 -8.0" fill="url(#gradient3)" fill-rule="evenodd" stroke="none"/>
    <path d="M19.25 8.5 L1.0 8.5 1.0 -2.0 -1.0 -2.0 -1.0 8.5 -19.2 8.5 -16.1 5.3 Q-8.65 -2.5 -6.0 -8.0 L6.0 -8.0 Q8.65 -2.5 16.1 5.3 L19.25 8.5" fill="url(#gradient4)" fill-rule="evenodd" stroke="none"/>
    <path d="M19.25 8.5 Q24.4 13.6 30.0 18.0 31.2 18.9 31.2 20.0 31.2 21.2 30.0 22.0 26.0 24.6 19.5 30.9 12.35 37.8 10.0 42.0 L1.0 42.0 1.0 8.5 19.25 8.5" fill="url(#gradient5)" fill-rule="evenodd" stroke="none"/>
    <path d="M-1.0 8.5 L-1.0 42.0 -10.0 42.0 Q-12.35 37.8 -19.5 30.9 -26.0 24.6 -30.0 22.0 -31.2 21.2 -31.2 20.0 -31.2 18.9 -30.0 18.0 -24.4 13.6 -19.2 8.5 L-1.0 8.5" fill="url(#gradient6)" fill-rule="evenodd" stroke="none"/>
    <path d="M2.0 20.35 L2.0 -2.65 29.0 20.35 2.0 20.35" fill="url(#gradient7)" fill-rule="evenodd" stroke="none"/>
    <path d="M-2.7 20.35 L-31.2 20.35 Q-31.2 19.25 -30.0 18.35 -24.4 13.95 -19.2 8.85 L-16.1 5.65 -10.65 -0.55 -2.7 20.35" fill="url(#gradient8)" fill-rule="evenodd" stroke="none"/>
    <path d="M1.0 42.0 L10.0 42.0 Q12.35 37.8 19.5 30.9 26.0 24.6 30.0 22.0 31.2 21.2 31.2 20.0 31.2 18.9 30.0 18.0 24.4 13.6 19.25 8.5 L16.1 5.3 Q8.65 -2.5 6.0 -8.0 M-1.0 42.0 L-10.0 42.0 Q-12.35 37.8 -19.5 30.9 -26.0 24.6 -30.0 22.0 -31.2 21.2 -31.2 20.0 -31.2 18.9 -30.0 18.0 -24.4 13.6 -19.2 8.5 L-16.1 5.3 Q-8.65 -2.5 -6.0 -8.0" fill="none" stroke="url(#gradient9)" stroke-linecap="round" stroke-linejoin="round" stroke-width="1.0"/>
    <path d="M0.0 47.0 L0.0 45.0 11.0 45.0 Q11.1 45.5 10.8 46.15 10.5 46.85 10.0 47.0 L0.0 47.0" fill="url(#gradient10)" fill-rule="evenodd" stroke="none"/>
    <path d="M0.0 47.0 L10.0 47.0 10.0 48.0 0.0 48.0 0.0 47.0" fill="url(#gradient11)" fill-rule="evenodd" stroke="none"/>
    <path d="M0.0 51.0 L0.0 49.0 0.0 48.0 10.0 48.0 Q11.35 48.0 11.75 49.0 L12.0 51.0 0.0 51.0" fill="url(#gradient12)" fill-rule="evenodd" stroke="none"/>
    <path d="M0.0 45.0 L0.0 47.0 -10.0 47.0 Q-10.5 46.85 -10.8 46.15 -11.1 45.5 -11.0 45.0 L0.0 45.0" fill="url(#gradient13)" fill-rule="evenodd" stroke="none"/>
    <path d="M-10.0 47.0 L0.0 47.0 0.0 48.0 -10.0 48.0 -10.0 47.0" fill="url(#gradient14)" fill-rule="evenodd" stroke="none"/>
    <path d="M0.0 48.0 L0.0 49.0 0.0 51.0 -12.0 51.0 -11.75 49.0 Q-11.35 48.0 -10.0 48.0 L0.0 48.0" fill="url(#gradient15)" fill-rule="evenodd" stroke="none"/>
    <path d="M0.85 -6.0 L-0.8 -6.0 0.0 -5.0 0.85 -6.0 M4.2 -2.95 Q3.7 -2.05 3.8 -0.9 3.85 -0.05 4.2 0.45 5.5 0.0 6.0 0.8 6.4 1.3 6.2 2.2 L6.2 2.15 Q6.05 2.8 5.55 3.3 4.35 4.55 3.3 4.1 L3.35 4.1 2.5 3.7 2.5 47.0 -2.5 47.0 -2.5 3.7 -3.3 4.1 -3.25 4.1 Q-4.35 4.55 -5.55 3.3 -6.05 2.8 -6.2 2.15 L-6.15 2.2 Q-6.4 1.3 -6.0 0.8 -5.5 0.0 -4.2 0.45 -3.85 -0.05 -3.8 -0.9 -3.7 -2.05 -4.2 -2.95 -5.0 -4.5 -7.0 -4.5 L-12.0 -4.5 -12.35 -4.65 Q-12.9 -5.05 -12.3 -6.25 -11.8 -7.3 -11.15 -7.45 L-11.0 -7.5 -6.0 -7.5 -6.0 -8.0 6.0 -8.0 6.0 -7.5 11.0 -7.5 11.15 -7.45 Q11.8 -7.3 12.3 -6.25 12.9 -5.05 12.35 -4.65 L12.0 -4.5 7.0 -4.5 Q5.0 -4.5 4.2 -2.95" fill="#000000" fill-opacity="0.3529412" fill-rule="evenodd" stroke="none"/>
    <path d="M0.0 -3.2 Q0.05 -4.7 1.35 -5.8 2.6 -6.9 4.0 -7.0 L11.0 -7.0 11.85 -6.05 Q12.25 -5.25 12.0 -5.0 L7.0 -5.0 Q4.7 -5.0 3.75 -3.2 3.2 -2.15 3.3 -0.85 3.4 0.4 4.0 1.05 L5.6 1.1 Q5.85 1.45 5.7 2.05 L5.2 2.95 Q4.25 3.9 3.45 3.6 2.4 3.3 2.0 2.0 L2.0 4.0 0.0 4.0 0.0 0.0 0.0 -3.0 0.0 -3.2" fill="url(#gradient16)" fill-rule="evenodd" stroke="none"/>
    <path d="M0.0 4.0 L2.0 4.0 2.0 20.0 0.0 20.0 0.0 4.0" fill="url(#gradient17)" fill-rule="evenodd" stroke="none"/>
    <path d="M2.0 20.0 L2.0 45.0 1.2 45.6 0.0 45.65 0.0 20.0 2.0 20.0" fill="url(#gradient18)" fill-rule="evenodd" stroke="none"/>
    <path d="M-2.0 20.0 L-2.0 4.0 0.0 4.0 0.0 20.0 -2.0 20.0" fill="url(#gradient19)" fill-rule="evenodd" stroke="none"/>
    <path d="M0.0 45.65 L-1.2 45.6 -2.0 45.0 -2.0 20.0 0.0 20.0 0.0 45.65" fill="url(#gradient20)" fill-rule="evenodd" stroke="none"/>
    <path d="M0.0 -3.2 L0.0 -3.0 0.0 0.0 0.0 4.0 -2.0 4.0 -2.0 2.0 Q-2.4 3.3 -3.45 3.6 -4.25 3.9 -5.2 2.95 L-5.7 2.05 Q-5.85 1.45 -5.6 1.1 L-4.0 1.05 Q-3.4 0.4 -3.3 -0.85 -3.2 -2.15 -3.75 -3.2 -4.7 -5.0 -7.0 -5.0 L-12.0 -5.0 Q-12.25 -5.25 -11.85 -6.05 L-11.0 -7.0 -4.0 -7.0 Q-2.6 -6.9 -1.35 -5.8 -0.05 -4.7 0.0 -3.2" fill="url(#gradient21)" fill-rule="evenodd" stroke="none"/>
    <path d="M2.0 2.0 L2.0 -1.0 Q2.0 -4.05 4.0 -5.0" fill="none" stroke="url(#gradient22)" stroke-linecap="round" stroke-linejoin="round" stroke-width="0.5"/>
    <path d="M-2.0 2.0 L-2.0 -1.0 Q-2.0 -4.05 -4.0 -5.0" fill="none" stroke="url(#gradient23)" stroke-linecap="round" stroke-linejoin="round" stroke-width="0.5"/>
    <path d="M0.0 -41.0 L0.55 -41.1 0.85 -41.4 Q2.05 -48.7 7.25 -51.75 9.05 -52.85 10.95 -53.1 L13.05 -53.0 Q14.0 -52.3 12.75 -46.85 11.65 -42.05 11.05 -41.0 10.05 -39.3 7.75 -38.5 L5.0 -38.0 Q9.4 -37.55 11.05 -35.0 11.65 -34.1 11.05 -32.4 10.6 -31.0 9.8 -30.0 10.3 -29.35 11.65 -28.8 12.85 -28.35 13.0 -27.95 13.2 -27.5 12.85 -27.15 L12.05 -27.0 Q10.45 -27.55 9.05 -29.7 L7.05 -30.0 Q6.5 -30.3 5.65 -31.75 L4.0 -34.0 0.0 -37.0 0.0 -41.0" fill="url(#gradient24)" fill-rule="evenodd" stroke="none"/>
    <path d="M0.0 -41.0 L0.0 -37.0 -4.0 -34.0 -5.65 -31.75 Q-6.5 -30.3 -7.05 -30.0 L-9.05 -29.7 Q-10.45 -27.55 -12.05 -27.0 L-12.85 -27.15 Q-13.2 -27.5 -13.0 -27.95 -12.85 -28.35 -11.65 -28.8 -10.3 -29.35 -9.8 -30.0 -10.6 -31.0 -11.05 -32.4 -11.65 -34.1 -11.05 -35.0 -9.4 -37.55 -5.0 -38.0 L-7.75 -38.5 Q-10.05 -39.3 -11.05 -41.0 -11.65 -42.05 -12.75 -46.85 -14.0 -52.3 -13.05 -53.0 L-10.95 -53.1 Q-9.05 -52.85 -7.25 -51.75 -2.05 -48.7 -0.85 -41.4 L-0.55 -41.1 0.0 -41.0" fill="url(#gradient25)" fill-rule="evenodd" stroke="none"/>
    <path d="M0.0 -38.0 Q2.45 -38.0 3.45 -36.3 4.2 -35.1 4.0 -34.0 3.65 -32.05 4.2 -29.8 4.8 -27.5 6.0 -26.0 L0.0 -26.0 0.0 -38.0" fill="url(#gradient26)" fill-rule="evenodd" stroke="none"/>
    <path d="M0.0 -9.0 L0.0 -11.1 0.0 -22.0 9.0 -22.0 Q6.95 -20.65 6.85 -16.55 6.7 -12.2 9.0 -9.0 L0.0 -9.0" fill="url(#gradient27)" fill-rule="evenodd" stroke="none"/>
    <path d="M0.0 -38.0 L0.0 -26.0 -6.0 -26.0 Q-4.8 -27.5 -4.2 -29.8 -3.65 -32.05 -4.0 -34.0 -4.2 -35.1 -3.45 -36.3 -2.45 -38.0 0.0 -38.0" fill="url(#gradient28)" fill-rule="evenodd" stroke="none"/>
    <path d="M0.0 -22.0 L0.0 -11.1 0.0 -9.0 -9.0 -9.0 Q-6.7 -12.2 -6.85 -16.55 -6.95 -20.65 -9.0 -22.0 L0.0 -22.0" fill="url(#gradient29)" fill-rule="evenodd" stroke="none"/>
    <path d="M-5.0 -21.0 Q-5.4 -21.0 -5.7 -21.3 L-6.0 -22.0 -5.7 -22.7 -5.0 -23.0 Q-4.6 -23.0 -4.3 -22.7 -4.0 -22.4 -4.0 -22.0 -4.0 -21.6 -4.3 -21.3 -4.6 -21.0 -5.0 -21.0" fill="url(#gradient30)" fill-rule="evenodd" stroke="none"/>
    <path d="M4.3 -21.3 Q4.0 -21.6 4.0 -22.0 4.0 -22.4 4.3 -22.7 4.6 -23.0 5.0 -23.0 L5.7 -22.7 6.0 -22.0 5.7 -21.3 Q5.4 -21.0 5.0 -21.0 4.6 -21.0 4.3 -21.3" fill="url(#gradient31)" fill-rule="evenodd" stroke="none"/>
    <path d="M0.0 -26.0 L10.0 -26.0 Q11.0 -26.0 11.0 -25.0 11.0 -24.3 10.65 -23.6 L10.0 -23.0 0.0 -23.0 0.0 -26.0" fill="url(#gradient32)" fill-rule="evenodd" stroke="none"/>
    <path d="M0.0 -23.0 L10.0 -23.0 9.5 -22.0 0.0 -22.0 0.0 -23.0" fill="url(#gradient33)" fill-rule="evenodd" stroke="none"/>
    <path d="M11.0 -8.0 L0.0 -8.0 0.0 -10.0 10.0 -10.0 11.0 -8.0" fill="url(#gradient34)" fill-rule="evenodd" stroke="none"/>
    <path d="M0.0 -7.0 L0.0 -8.0 11.0 -8.0 11.0 -7.0 0.0 -7.0" fill="url(#gradient35)" fill-rule="evenodd" stroke="none"/>
    <path d="M0.0 -26.0 L0.0 -23.0 -10.0 -23.0 -10.65 -23.6 Q-11.0 -24.3 -11.0 -25.0 -11.0 -26.0 -10.0 -26.0 L0.0 -26.0" fill="url(#gradient36)" fill-rule="evenodd" stroke="none"/>
    <path d="M0.0 -22.0 L-9.4 -22.0 -10.0 -23.0 0.0 -23.0 0.0 -22.0" fill="url(#gradient37)" fill-rule="evenodd" stroke="none"/>
    <path d="M0.0 -8.0 L0.0 -7.0 -11.0 -7.0 -11.0 -8.0 0.0 -8.0" fill="url(#gradient38)" fill-rule="evenodd" stroke="none"/>
    <path d="M0.0 -8.0 L-11.0 -8.0 -10.0 -10.0 0.0 -10.0 0.0 -8.0" fill="url(#gradient39)" fill-rule="evenodd" stroke="none"/>
    <path d="M0.5 -32.65 Q-0.75 -32.65 -1.6 -33.55 -2.35 -34.45 -2.35 -35.75 -2.35 -37.1 -1.6 -37.95 -0.75 -38.8 0.5 -38.8 1.7 -38.8 2.5 -37.95 3.35 -37.1 3.35 -35.75 3.35 -34.45 2.5 -33.55 1.7 -32.65 0.5 -32.65" fill="url(#gradient40)" fill-rule="evenodd" stroke="none"/>
    <path d="M9.0 -25.0 L-9.0 -25.0 -9.0 -26.0 9.0 -26.0 9.0 -25.0" fill="url(#gradient41)" fill-rule="evenodd" stroke="none"/>
    <path d="M-9.0 48.0 L9.0 48.0 9.0 49.0 -9.0 49.0 -9.0 48.0" fill="url(#gradient42)" fill-rule="evenodd" stroke="none"/>
    <path d="M5.0 -28.0 L-5.0 -28.0 -5.0 -29.0 5.0 -29.0 5.0 -28.0" fill="#000000" fill-opacity="0.2509804" fill-rule="evenodd" stroke="none"/>
  </g>
  <defs>
    <radialGradient cx="0" cy="0" gradientTransform="matrix(0.0377, -0.0057, 0.0057, 0.0381, 27.5, -21.6)" gradientUnits="userSpaceOnUse" id="gradient0" r="819.2" spreadMethod="pad">
      <stop offset="0.09803921568627451" stop-color="#cdcdcd"/>
      <stop offset="0.2" stop-color="#868686"/>
      <stop offset="0.38823529411764707" stop-color="#464646"/>
      <stop offset="0.7098039215686275" stop-color="#2e2e2e"/>
      <stop offset="0.9568627450980393" stop-color="#585858"/>
    </radialGradient>
    <radialGradient cx="0" cy="0" gradientTransform="matrix(0.0437, 0.0, 0.0, 0.0437, -24.4, -24.75)" gradientUnits="userSpaceOnUse" id="gradient1" r="819.2" spreadMethod="pad">
      <stop offset="0.10588235294117647" stop-color="#e73a3a"/>
      <stop offset="0.23921568627450981" stop-color="#8d241d"/>
      <stop offset="0.403921568627451" stop-color="#681717"/>
      <stop offset="0.6901960784313725" stop-color="#691616"/>
      <stop offset="1.0" stop-color="#b12323"/>
    </radialGradient>
    <linearGradient gradientTransform="matrix(0.0215, 0.0, 0.0, 0.0375, -17.6, 14.2)" gradientUnits="userSpaceOnUse" id="gradient2" spreadMethod="pad" x1="-819.2" x2="819.2">
      <stop offset="0.0" stop-color="#d5cfda"/>
      <stop offset="0.24313725490196078" stop-color="#898ca0"/>
      <stop offset="0.5333333333333333" stop-color="#a8aab9"/>
      <stop offset="0.7607843137254902" stop-color="#d8d5db"/>
      <stop offset="0.9137254901960784" stop-color="#898ca0"/>
    </linearGradient>
    <linearGradient gradientTransform="matrix(-0.0215, 0.0, 0.0, 0.0375, 17.6, 14.2)" gradientUnits="userSpaceOnUse" id="gradient3" spreadMethod="pad" x1="-819.2" x2="819.2">
      <stop offset="0.0" stop-color="#d5cfda"/>
      <stop offset="0.24313725490196078" stop-color="#898ca0"/>
      <stop offset="0.5333333333333333" stop-color="#a8aab9"/>
      <stop offset="0.7568627450980392" stop-color="#cbcdd6"/>
      <stop offset="1.0" stop-color="#898ca0"/>
    </linearGradient>
    <linearGradient gradientTransform="matrix(0.0, -0.0095, 0.0287, 0.0, -14.3, 0.75)" gradientUnits="userSpaceOnUse" id="gradient4" spreadMethod="pad" x1="-819.2" x2="819.2">
      <stop offset="0.0" stop-color="#afb5c7"/>
      <stop offset="1.0" stop-color="#838398"/>
    </linearGradient>
    <linearGradient gradientTransform="matrix(0.0, -0.0193, 0.0198, 0.0, 79.8, 24.25)" gradientUnits="userSpaceOnUse" id="gradient5" spreadMethod="pad" x1="-819.2" x2="819.2">
      <stop offset="0.0" stop-color="#829b31"/>
      <stop offset="0.6235294117647059" stop-color="#65772b"/>
      <stop offset="0.6352941176470588" stop-color="#7a9720"/>
      <stop offset="1.0" stop-color="#d5e03a"/>
    </linearGradient>
    <linearGradient gradientTransform="matrix(0.0, -0.0197, 0.0198, 0.0, 48.2, 23.8)" gradientUnits="userSpaceOnUse" id="gradient6" spreadMethod="pad" x1="-819.2" x2="819.2">
      <stop offset="0.00784313725490196" stop-color="#a9bf2b"/>
      <stop offset="0.6078431372549019" stop-color="#97961a"/>
      <stop offset="0.6235294117647059" stop-color="#d9e817"/>
      <stop offset="1.0" stop-color="#d9fb6f"/>
    </linearGradient>
    <linearGradient gradientTransform="matrix(0.0073, -0.0078, 0.0102, 0.0096, 9.75, 15.0)" gradientUnits="userSpaceOnUse" id="gradient7" spreadMethod="pad" x1="-819.2" x2="819.2">
      <stop offset="0.09019607843137255" stop-color="#ffffff"/>
      <stop offset="0.17254901960784313" stop-color="#ffffff" stop-opacity="0.7882353"/>
      <stop offset="0.8117647058823529" stop-color="#ffffff" stop-opacity="0.0"/>
    </linearGradient>
    <linearGradient gradientTransform="matrix(-0.0172, 7.0E-4, -0.0012, -0.0287, -17.2, 7.6)" gradientUnits="userSpaceOnUse" id="gradient8" spreadMethod="pad" x1="-819.2" x2="819.2">
      <stop offset="0.5372549019607843" stop-color="#ffffff" stop-opacity="0.0"/>
      <stop offset="1.0" stop-color="#ffffff" stop-opacity="0.38039216"/>
    </linearGradient>
    <linearGradient gradientTransform="matrix(0.0, -0.0301, 0.0311, 0.0, 0.1, 17.6)" gradientUnits="userSpaceOnUse" id="gradient9" spreadMethod="pad" x1="-819.2" x2="819.2">
      <stop offset="0.6784313725490196" stop-color="#4a5360"/>
      <stop offset="0.6901960784313725" stop-color="#677c98"/>
    </linearGradient>
    <linearGradient gradientTransform="matrix(0.0073, 0.0, 0.0, 0.0012, 6.0, 46.0)" gradientUnits="userSpaceOnUse" id="gradient10" spreadMethod="pad" x1="-819.2" x2="819.2">
      <stop offset="0.33725490196078434" stop-color="#4a4a4a"/>
      <stop offset="1.0" stop-color="#262626"/>
    </linearGradient>
    <linearGradient gradientTransform="matrix(0.0061, 0.0, 0.0, 6.0E-4, 5.0, 47.5)" gradientUnits="userSpaceOnUse" id="gradient11" spreadMethod="pad" x1="-819.2" x2="819.2">
      <stop offset="0.3254901960784314" stop-color="#4e4e4e"/>
      <stop offset="0.9176470588235294" stop-color="#1c1c1c"/>
    </linearGradient>
    <linearGradient gradientTransform="matrix(0.0073, 0.0, 0.0, -0.0012, 6.0, 49.0)" gradientUnits="userSpaceOnUse" id="gradient12" spreadMethod="pad" x1="-819.2" x2="819.2">
      <stop offset="0.37254901960784315" stop-color="#515151"/>
      <stop offset="1.0" stop-color="#2b2b2b"/>
    </linearGradient>
    <linearGradient gradientTransform="matrix(0.0068, 0.0, 0.0, 0.0012, -5.65, 46.3)" gradientUnits="userSpaceOnUse" id="gradient13" spreadMethod="pad" x1="-819.2" x2="819.2">
      <stop offset="0.01568627450980392" stop-color="#5b0f0f"/>
      <stop offset="0.6862745098039216" stop-color="#931717"/>
    </linearGradient>
    <linearGradient gradientTransform="matrix(0.0061, 0.0, 0.0, 6.0E-4, -5.0, 47.5)" gradientUnits="userSpaceOnUse" id="gradient14" spreadMethod="pad" x1="-819.2" x2="819.2">
      <stop offset="0.01568627450980392" stop-color="#470e0e"/>
      <stop offset="0.6862745098039216" stop-color="#6d1212"/>
    </linearGradient>
    <linearGradient gradientTransform="matrix(0.0073, 0.0, 0.0, -0.0012, -6.15, 48.95)" gradientUnits="userSpaceOnUse" id="gradient15" spreadMethod="pad" x1="-819.2" x2="819.2">
      <stop offset="0.01568627450980392" stop-color="#5a1010"/>
      <stop offset="0.6862745098039216" stop-color="#a01f1f"/>
    </linearGradient>
    <radialGradient cx="0" cy="0" fx="12.8" fy="0" gradientTransform="matrix(0.0124, 0.0, 0.0, 0.014, 2.6, -5.7)" gradientUnits="userSpaceOnUse" id="gradient16" r="819.2" spreadMethod="pad">
      <stop offset="0.12941176470588237" stop-color="#a3a3a3"/>
      <stop offset="0.23137254901960785" stop-color="#868686"/>
      <stop offset="0.6784313725490196" stop-color="#6d6d6d"/>
      <stop offset="1.0" stop-color="#404040"/>
    </radialGradient>
    <linearGradient gradientTransform="matrix(0.0, -0.0098, 0.0311, 0.0, 4.5, 12.0)" gradientUnits="userSpaceOnUse" id="gradient17" spreadMethod="pad" x1="-819.2" x2="819.2">
      <stop offset="0.0" stop-color="#9f9f9f"/>
      <stop offset="1.0" stop-color="#4e4e4e"/>
    </linearGradient>
    <linearGradient gradientTransform="matrix(0.0, -0.0156, 0.015, 1.0E-4, 8.0, 32.85)" gradientUnits="userSpaceOnUse" id="gradient18" spreadMethod="pad" x1="-819.2" x2="819.2">
      <stop offset="0.0" stop-color="#504b4b"/>
      <stop offset="0.18823529411764706" stop-color="#262626"/>
      <stop offset="0.403921568627451" stop-color="#2e2e2e"/>
      <stop offset="1.0" stop-color="#555555"/>
    </linearGradient>
    <linearGradient gradientTransform="matrix(0.0, -0.0098, 0.0323, -1.0E-4, -10.45, 12.0)" gradientUnits="userSpaceOnUse" id="gradient19" spreadMethod="pad" x1="-819.2" x2="819.2">
      <stop offset="0.07058823529411765" stop-color="#e25247"/>
      <stop offset="1.0" stop-color="#8f1b1b"/>
    </linearGradient>
    <linearGradient gradientTransform="matrix(0.0, -0.0157, 0.015, 0.0, -4.0, 32.85)" gradientUnits="userSpaceOnUse" id="gradient20" spreadMethod="pad" x1="-819.2" x2="819.2">
      <stop offset="0.0" stop-color="#8d241d"/>
      <stop offset="0.18823529411764706" stop-color="#5a1010"/>
      <stop offset="0.4117647058823529" stop-color="#470e0e"/>
      <stop offset="1.0" stop-color="#8e1c1c"/>
    </linearGradient>
    <radialGradient cx="0" cy="0" gradientTransform="matrix(0.0121, 0.0028, -0.0041, 0.0176, -2.4, -4.9)" gradientUnits="userSpaceOnUse" id="gradient21" r="819.2" spreadMethod="pad">
      <stop offset="0.09019607843137255" stop-color="#e03434"/>
      <stop offset="0.1568627450980392" stop-color="#da3a3a"/>
      <stop offset="0.592156862745098" stop-color="#a41c1c"/>
      <stop offset="0.8549019607843137" stop-color="#6c1313"/>
      <stop offset="1.0" stop-color="#da2525"/>
    </radialGradient>
    <linearGradient gradientTransform="matrix(0.0013, -0.0047, 0.0044, 0.0013, 3.05, -1.55)" gradientUnits="userSpaceOnUse" id="gradient22" spreadMethod="pad" x1="-819.2" x2="819.2">
      <stop offset="0.0392156862745098" stop-color="#868686" stop-opacity="0.0"/>
      <stop offset="0.14901960784313725" stop-color="#919191"/>
      <stop offset="0.43137254901960786" stop-color="#c2c2c2"/>
      <stop offset="0.8549019607843137" stop-color="#c6c6c6"/>
      <stop offset="1.0" stop-color="#8d8d8d"/>
    </linearGradient>
    <linearGradient gradientTransform="matrix(-0.0013, -0.0047, -0.0044, 0.0013, -3.05, -1.55)" gradientUnits="userSpaceOnUse" id="gradient23" spreadMethod="pad" x1="-819.2" x2="819.2">
      <stop offset="0.0392156862745098" stop-color="#655f45" stop-opacity="0.0"/>
      <stop offset="0.15294117647058825" stop-color="#811414"/>
      <stop offset="0.43137254901960786" stop-color="#c62424"/>
      <stop offset="0.8313725490196079" stop-color="#b61f1f"/>
      <stop offset="1.0" stop-color="#831212"/>
    </linearGradient>
    <linearGradient gradientTransform="matrix(-0.007, 0.0127, -0.0139, -0.0075, 7.7, -42.15)" gradientUnits="userSpaceOnUse" id="gradient24" spreadMethod="pad" x1="-819.2" x2="819.2">
      <stop offset="0.00784313725490196" stop-color="#757575"/>
      <stop offset="0.13333333333333333" stop-color="#bbbbbb"/>
      <stop offset="0.3607843137254902" stop-color="#aaaaaa"/>
      <stop offset="0.8392156862745098" stop-color="#383838"/>
      <stop offset="0.9215686274509803" stop-color="#585858"/>
    </linearGradient>
    <linearGradient gradientTransform="matrix(-0.0098, 0.0102, 0.0113, 0.011, -7.55, -37.3)" gradientUnits="userSpaceOnUse" id="gradient25" spreadMethod="pad" x1="-819.2" x2="819.2">
      <stop offset="0.11764705882352941" stop-color="#df2d2d"/>
      <stop offset="0.7647058823529411" stop-color="#501212"/>
      <stop offset="0.8823529411764706" stop-color="#7e1d1d"/>
    </linearGradient>
    <radialGradient cx="0" cy="0" gradientTransform="matrix(0.0059, -4.0E-4, 0.0015, 0.0238, 1.6, -26.0)" gradientUnits="userSpaceOnUse" id="gradient26" r="819.2" spreadMethod="pad">
      <stop offset="0.043137254901960784" stop-color="#8d8d8d"/>
      <stop offset="0.5098039215686274" stop-color="#4e4e4e"/>
    </radialGradient>
    <radialGradient cx="0" cy="0" gradientTransform="matrix(0.0159, 0.0, 0.0, 0.0283, 10.0, -16.0)" gradientUnits="userSpaceOnUse" id="gradient27" r="819.2" spreadMethod="pad">
      <stop offset="0.3058823529411765" stop-color="#757575"/>
      <stop offset="0.3607843137254902" stop-color="#606060"/>
      <stop offset="0.5882352941176471" stop-color="#989898"/>
      <stop offset="0.6588235294117647" stop-color="#989898"/>
      <stop offset="1.0" stop-color="#7b7b7b"/>
    </radialGradient>
    <radialGradient cx="0" cy="0" gradientTransform="matrix(0.0074, 9.0E-4, -0.0028, 0.0242, -5.9, -29.35)" gradientUnits="userSpaceOnUse" id="gradient28" r="819.2" spreadMethod="pad">
      <stop offset="0.22745098039215686" stop-color="#822828"/>
      <stop offset="0.3058823529411765" stop-color="#541616"/>
      <stop offset="0.3686274509803922" stop-color="#581212"/>
      <stop offset="0.8666666666666667" stop-color="#e82d2d"/>
    </radialGradient>
    <radialGradient cx="0" cy="0" gradientTransform="matrix(0.0146, 0.0, 0.0, 0.0285, -10.0, -16.0)" gradientUnits="userSpaceOnUse" id="gradient29" r="819.2" spreadMethod="pad">
      <stop offset="0.3333333333333333" stop-color="#9e2121"/>
      <stop offset="0.3764705882352941" stop-color="#531717"/>
      <stop offset="0.47058823529411764" stop-color="#551a15"/>
      <stop offset="0.8" stop-color="#df4242"/>
    </radialGradient>
    <radialGradient cx="0" cy="0" gradientTransform="matrix(0.0016, 0.0, 0.0, 0.0016, -4.75, -22.0)" gradientUnits="userSpaceOnUse" id="gradient30" r="819.2" spreadMethod="pad">
      <stop offset="0.0" stop-color="#b32222"/>
      <stop offset="0.9098039215686274" stop-color="#561414"/>
      <stop offset="1.0" stop-color="#581212"/>
    </radialGradient>
    <radialGradient cx="0" cy="0" gradientTransform="matrix(0.0016, 0.0, 0.0, 0.0016, 5.2, -22.0)" gradientUnits="userSpaceOnUse" id="gradient31" r="819.2" spreadMethod="pad">
      <stop offset="0.08235294117647059" stop-color="#cdcdcd"/>
      <stop offset="1.0" stop-color="#7b7b7b"/>
    </radialGradient>
    <linearGradient gradientTransform="matrix(0.0066, 0.0011, -3.0E-4, 0.0018, 5.5, -24.5)" gradientUnits="userSpaceOnUse" id="gradient32" spreadMethod="pad" x1="-819.2" x2="819.2">
      <stop offset="0.0" stop-color="#838383"/>
      <stop offset="0.30980392156862746" stop-color="#9f9f9f"/>
      <stop offset="0.8235294117647058" stop-color="#404040"/>
      <stop offset="0.9764705882352941" stop-color="#636363"/>
    </linearGradient>
    <linearGradient gradientTransform="matrix(0.0061, 0.0, 0.0, 6.0E-4, 5.0, -22.5)" gradientUnits="userSpaceOnUse" id="gradient33" spreadMethod="pad" x1="-819.2" x2="819.2">
      <stop offset="0.0" stop-color="#717171"/>
      <stop offset="0.36470588235294116" stop-color="#8d8d8d"/>
      <stop offset="0.8196078431372549" stop-color="#383838"/>
      <stop offset="0.8941176470588236" stop-color="#464646"/>
    </linearGradient>
    <linearGradient gradientTransform="matrix(0.0061, 0.0, 0.0, 0.0012, 5.0, -9.0)" gradientUnits="userSpaceOnUse" id="gradient34" spreadMethod="pad" x1="-819.2" x2="819.2">
      <stop offset="0.0" stop-color="#a3a3a3"/>
      <stop offset="0.2823529411764706" stop-color="#bbbbbb"/>
      <stop offset="0.6509803921568628" stop-color="#b5b5b5"/>
      <stop offset="1.0" stop-color="#464646"/>
    </linearGradient>
    <linearGradient gradientTransform="matrix(0.0061, 0.0, 0.0, 6.0E-4, 5.0, -7.5)" gradientUnits="userSpaceOnUse" id="gradient35" spreadMethod="pad" x1="-819.2" x2="819.2">
      <stop offset="0.0" stop-color="#9b9b9b"/>
      <stop offset="0.38823529411764707" stop-color="#b0b0b0"/>
      <stop offset="0.5254901960784314" stop-color="#a6a6a6"/>
      <stop offset="1.0" stop-color="#555555"/>
    </linearGradient>
    <radialGradient cx="0" cy="0" gradientTransform="matrix(0.0136, 0.0, 0.0, 0.0171, -0.1, -26.1)" gradientUnits="userSpaceOnUse" id="gradient36" r="819.2" spreadMethod="pad">
      <stop offset="0.1450980392156863" stop-color="#e24747"/>
      <stop offset="0.4235294117647059" stop-color="#c92121"/>
      <stop offset="0.7294117647058823" stop-color="#581212"/>
      <stop offset="0.8431372549019608" stop-color="#591111"/>
      <stop offset="0.9254901960784314" stop-color="#7a1b1b"/>
    </radialGradient>
    <linearGradient gradientTransform="matrix(0.0061, 0.0, 0.0, 6.0E-4, -5.0, -22.5)" gradientUnits="userSpaceOnUse" id="gradient37" spreadMethod="pad" x1="-819.2" x2="819.2">
      <stop offset="0.01568627450980392" stop-color="#330d0d"/>
      <stop offset="1.0" stop-color="#a31414"/>
    </linearGradient>
    <linearGradient gradientTransform="matrix(0.0068, 0.0, 0.0, 6.0E-4, -5.5, -7.5)" gradientUnits="userSpaceOnUse" id="gradient38" spreadMethod="pad" x1="-819.2" x2="819.2">
      <stop offset="0.011764705882352941" stop-color="#7d1717"/>
      <stop offset="0.08235294117647059" stop-color="#5a1010"/>
      <stop offset="0.20392156862745098" stop-color="#581212"/>
      <stop offset="0.5058823529411764" stop-color="#cb1f1f"/>
      <stop offset="0.8470588235294118" stop-color="#e13333"/>
    </linearGradient>
    <linearGradient gradientTransform="matrix(0.0055, 0.0025, -5.0E-4, 0.0011, -6.05, -7.85)" gradientUnits="userSpaceOnUse" id="gradient39" spreadMethod="pad" x1="-819.2" x2="819.2">
      <stop offset="0.0" stop-color="#931717"/>
      <stop offset="0.11372549019607843" stop-color="#591111"/>
      <stop offset="0.17647058823529413" stop-color="#6c1313"/>
      <stop offset="0.4470588235294118" stop-color="#c22727"/>
      <stop offset="0.8117647058823529" stop-color="#f35252"/>
    </linearGradient>
    <radialGradient cx="0" cy="0" gradientTransform="matrix(0.0028, 0.0, 0.0, 0.003, 0.5, -35.85)" gradientUnits="userSpaceOnUse" id="gradient40" r="819.2" spreadMethod="pad">
      <stop offset="0.18823529411764706" stop-color="#ffffff" stop-opacity="0.5529412"/>
      <stop offset="0.7647058823529411" stop-color="#ffffff" stop-opacity="0.0"/>
    </radialGradient>
    <linearGradient gradientTransform="matrix(0.011, 0.0, 0.0, 6.0E-4, 0.0, -25.5)" gradientUnits="userSpaceOnUse" id="gradient41" spreadMethod="pad" x1="-819.2" x2="819.2">
      <stop offset="0.0" stop-color="#a61a1a" stop-opacity="0.0"/>
      <stop offset="0.4196078431372549" stop-color="#e96b6b"/>
      <stop offset="0.49411764705882355" stop-color="#fa5a5a"/>
      <stop offset="0.5058823529411764" stop-color="#a6a6a6"/>
      <stop offset="0.6784313725490196" stop-color="#bfbfbf"/>
      <stop offset="0.807843137254902" stop-color="#9f9f9f"/>
      <stop offset="1.0" stop-color="#393737" stop-opacity="0.0"/>
    </linearGradient>
    <linearGradient gradientTransform="matrix(0.011, 0.0, 0.0, 6.0E-4, 0.0, 48.5)" gradientUnits="userSpaceOnUse" id="gradient42" spreadMethod="pad" x1="-819.2" x2="819.2">
      <stop offset="0.0" stop-color="#706450" stop-opacity="0.0"/>
      <stop offset="0.2980392156862745" stop-color="#b42121" stop-opacity="0.7137255"/>
      <stop offset="0.49019607843137253" stop-color="#b32222"/>
      <stop offset="0.5019607843137255" stop-color="#6a6a6a"/>
      <stop offset="0.7215686274509804" stop-color="#6d6d6d" stop-opacity="0.8117647"/>
      <stop offset="1.0" stop-color="#363434" stop-opacity="0.0"/>
    </linearGradient>
  </defs>
</svg>
