<?xml version="1.0" encoding="UTF-8" standalone="no"?>
<svg xmlns:xlink="http://www.w3.org/1999/xlink" height="733.9px" width="428.05px" xmlns="http://www.w3.org/2000/svg">
  <g transform="matrix(1.0, 0.0, 0.0, 1.0, -172.05, 2.8)">
    <path d="M596.55 1.85 L600.1 0.7 599.6 78.95 Q599.1 134.0 599.1 247.5 599.1 352.75 593.1 452.05 589.9 505.25 589.0 526.75 587.1 570.95 587.1 620.6 587.1 681.5 588.75 720.2 L576.3 721.05 529.55 725.25 Q463.9 731.3 399.0 731.1 L314.5 730.95 279.85 730.65 Q282.15 728.9 283.7 727.0 286.75 723.25 288.3 717.2 291.0 706.65 291.0 674.6 291.0 643.0 277.15 614.3 271.6 602.85 263.3 590.65 L265.15 581.8 Q275.0 534.05 275.0 514.6 275.0 481.35 267.2 429.55 258.45 371.65 243.1 313.1 225.25 245.2 201.7 189.5 187.6 156.15 172.05 128.75 185.25 113.9 196.65 97.1 212.9 73.2 222.05 50.2 232.0 25.2 232.0 5.0 L231.75 -2.8 336.85 1.0 522.6 7.0 Q569.5 7.0 584.75 4.7 590.8 3.8 596.55 1.85" fill="url(#gradient0)" fill-rule="evenodd" stroke="none"/>
  </g>
  <defs>
    <linearGradient gradientTransform="matrix(2.0E-4, -0.3473, 0.3381, 2.0E-4, 289.55, 436.5)" gradientUnits="userSpaceOnUse" id="gradient0" spreadMethod="pad" x1="-819.2" x2="819.2">
      <stop offset="0.0" stop-color="#f8e338"/>
      <stop offset="0.30196078431372547" stop-color="#ef9b2c"/>
      <stop offset="0.7568627450980392" stop-color="#f32121"/>
      <stop offset="1.0" stop-color="#c40202"/>
    </linearGradient>
  </defs>
</svg>
