<?xml version="1.0" encoding="UTF-8" standalone="no"?>
<svg xmlns:xlink="http://www.w3.org/1999/xlink" height="22.5px" width="13.95px" xmlns="http://www.w3.org/2000/svg">
  <g transform="matrix(1.0, 0.0, 0.0, 1.0, 22.4, 32.65)">
    <path d="M-16.8 -27.5 L-16.85 -27.45 -14.3 -24.5 -14.2 -24.7 -14.05 -24.95 -14.4 -25.5 -15.25 -26.5 -16.1 -27.35 -16.55 -27.7 -16.65 -27.65 -16.8 -27.5 M-9.8 -26.3 L-13.05 -23.1 -10.75 -20.65 -9.95 -19.75 Q-9.45 -19.15 -9.45 -18.35 -9.45 -17.5 -9.95 -16.9 L-11.1 -15.6 -15.9 -11.15 -17.35 -12.5 -18.9 -14.25 -20.35 -15.95 -21.4 -17.6 -20.75 -18.6 -19.75 -19.7 -18.65 -20.8 -17.65 -21.7 -19.9 -24.35 -20.55 -25.3 -20.8 -26.25 -20.45 -27.1 -19.7 -27.8 -14.85 -31.65 -9.8 -26.3 M-16.7 -18.1 L-15.85 -16.9 -14.85 -15.9 Q-14.35 -15.55 -14.15 -15.55 -13.95 -15.55 -13.75 -15.8 L-13.55 -16.4 Q-13.55 -17.1 -13.95 -17.45 L-16.35 -20.25 -16.7 -19.65 -17.0 -19.05 -16.7 -18.1" fill="none" stroke="#000000" stroke-linecap="round" stroke-linejoin="round" stroke-width="2.0"/>
    <path d="M-16.8 -27.5 L-16.85 -27.45 -14.3 -24.5 -14.2 -24.7 -14.05 -24.95 -14.4 -25.5 -15.25 -26.5 -16.1 -27.35 -16.55 -27.7 -16.65 -27.65 -16.8 -27.5 M-9.8 -26.3 L-13.05 -23.1 -10.75 -20.65 -9.95 -19.75 Q-9.45 -19.15 -9.45 -18.35 -9.45 -17.5 -9.95 -16.9 L-11.1 -15.6 -15.9 -11.15 -17.35 -12.5 -18.9 -14.25 -20.35 -15.95 -21.4 -17.6 -20.75 -18.6 -19.75 -19.7 -18.65 -20.8 -17.65 -21.7 -19.9 -24.35 -20.55 -25.3 -20.8 -26.25 -20.45 -27.1 -19.7 -27.8 -14.85 -31.65 -9.8 -26.3 M-16.7 -18.1 L-15.85 -16.9 -14.85 -15.9 Q-14.35 -15.55 -14.15 -15.55 -13.95 -15.55 -13.75 -15.8 L-13.55 -16.4 Q-13.55 -17.1 -13.95 -17.45 L-16.35 -20.25 -16.7 -19.65 -17.0 -19.05 -16.7 -18.1" fill="#ffffff" fill-rule="evenodd" stroke="none"/>
  </g>
</svg>
