<?xml version="1.0" encoding="UTF-8" standalone="no"?>
<svg xmlns:xlink="http://www.w3.org/1999/xlink" height="24.4px" width="12.25px" xmlns="http://www.w3.org/2000/svg">
  <g transform="matrix(1.0, 0.0, 0.0, 1.0, 21.6, 32.3)">
    <path d="M-13.15 -29.2 L-11.6 -26.85 -10.65 -24.3 Q-10.35 -23.0 -10.35 -21.95 -10.35 -20.45 -10.8 -18.65 -11.2 -16.9 -12.05 -15.1 -12.9 -13.3 -14.3 -11.65 -15.6 -10.1 -17.75 -9.0 L-17.95 -8.9 -17.9 -9.0 -16.8 -11.2 -15.6 -13.4 -14.6 -15.75 -14.0 -17.9 -16.6 -14.8 Q-18.05 -15.85 -18.8 -16.65 -19.55 -17.45 -19.9 -18.25 L-20.45 -19.95 -20.6 -22.1 Q-20.6 -24.25 -19.45 -26.4 -18.35 -28.6 -15.5 -31.3 -14.1 -30.4 -13.15 -29.2 M-17.45 -25.85 L-17.7 -24.7 -17.45 -22.9 -16.75 -21.35 -15.85 -20.35 -14.95 -19.95 Q-14.8 -19.95 -14.5 -20.1 L-13.9 -20.35 -14.35 -22.25 -15.15 -24.05 -16.15 -25.55 -16.95 -26.6 -17.45 -25.85" fill="none" stroke="#000000" stroke-linecap="round" stroke-linejoin="round" stroke-width="2.0"/>
    <path d="M-16.95 -26.6 L-17.45 -25.85 -17.7 -24.7 -17.45 -22.9 -16.75 -21.35 -15.85 -20.35 -14.95 -19.95 Q-14.8 -19.95 -14.5 -20.1 L-13.9 -20.35 -14.35 -22.25 -15.15 -24.05 -16.15 -25.55 -16.95 -26.6 M-13.15 -29.2 L-11.6 -26.85 -10.65 -24.3 Q-10.35 -23.0 -10.35 -21.95 -10.35 -20.45 -10.8 -18.65 -11.2 -16.9 -12.05 -15.1 -12.9 -13.3 -14.3 -11.65 -15.6 -10.1 -17.75 -9.0 L-17.95 -8.9 -17.9 -9.0 -16.8 -11.2 -15.6 -13.4 -14.6 -15.75 -14.0 -17.9 -16.6 -14.8 Q-18.05 -15.85 -18.8 -16.65 -19.55 -17.45 -19.9 -18.25 L-20.45 -19.95 -20.6 -22.1 Q-20.6 -24.25 -19.45 -26.4 -18.35 -28.6 -15.5 -31.3 -14.1 -30.4 -13.15 -29.2" fill="#ffffff" fill-rule="evenodd" stroke="none"/>
  </g>
</svg>
