<?xml version="1.0" encoding="UTF-8" standalone="no"?>
<svg xmlns:xlink="http://www.w3.org/1999/xlink" height="22.05px" width="331.25px" xmlns="http://www.w3.org/2000/svg">
  <g transform="matrix(1.0, 0.0, 0.0, 1.0, 165.65, 31.05)">
    <path d="M163.1 -14.15 Q87.35 -29.05 0.2 -29.05 -86.95 -29.05 -162.75 -14.15 -164.45 -12.6 -162.85 -11.0 -87.0 -26.05 0.2 -26.05 87.35 -26.05 163.1 -11.05 164.15 -12.6 163.1 -14.15 Z" fill="none" stroke="#000000" stroke-linecap="round" stroke-linejoin="round" stroke-width="4.0"/>
    <path d="M163.05 -14.1 Q164.25 -12.45 163.05 -11.0 87.3 -26.0 0.15 -26.0 -87.05 -26.0 -162.8 -11.0 -164.4 -12.55 -162.8 -14.1 -87.0 -29.0 0.15 -29.0 87.3 -29.0 163.05 -14.1" fill="url(#gradient0)" fill-rule="evenodd" stroke="none"/>
  </g>
  <defs>
    <linearGradient gradientTransform="matrix(0.1989, 0.0, 0.0, 0.011, 0.1, -20.0)" gradientUnits="userSpaceOnUse" id="gradient0" spreadMethod="pad" x1="-819.2" x2="819.2">
      <stop offset="0.0" stop-color="#959595"/>
      <stop offset="0.19607843137254902" stop-color="#ffffff"/>
      <stop offset="0.5058823529411764" stop-color="#ffffff"/>
      <stop offset="0.8274509803921568" stop-color="#ffffff"/>
      <stop offset="1.0" stop-color="#959595"/>
    </linearGradient>
  </defs>
</svg>
