<?xml version="1.0" encoding="UTF-8" standalone="no"?>
<svg xmlns:xlink="http://www.w3.org/1999/xlink" height="148.3px" width="338.05px" xmlns="http://www.w3.org/2000/svg">
  <g transform="matrix(1.0, 0.0, 0.0, 1.0, -9.95, -49.7)">
    <path d="M348.0 108.0 L348.0 194.0 Q348.0 198.0 344.0 198.0 L60.0 198.0 Q56.0 198.0 56.0 194.0 L56.0 108.0 Q56.0 104.0 60.0 104.0 L184.0 104.0 184.0 89.0 176.0 89.0 181.25 85.5 200.0 73.0 218.75 85.5 224.0 89.0 216.0 89.0 216.0 104.0 344.0 104.0 Q348.0 104.0 348.0 108.0" fill="#e0ddd6" fill-rule="evenodd" stroke="none"/>
    <path d="M40.1 53.6 Q40.1 54.2 39.65 54.65 L39.35 54.9 39.35 64.8 Q39.35 65.4 38.9 65.85 38.45 66.3 37.85 66.3 L36.1 66.3 Q35.5 66.3 35.05 65.85 L34.85 65.6 29.15 65.6 28.95 65.85 Q28.5 66.3 27.9 66.3 L26.15 66.3 Q25.55 66.3 25.1 65.85 L24.7 65.2 24.3 65.85 Q23.85 66.3 23.25 66.3 L21.4 66.3 Q20.8 66.3 20.35 65.85 L20.1 65.5 15.95 65.5 15.65 65.85 Q15.2 66.3 14.6 66.3 L12.75 66.3 Q12.15 66.3 11.7 65.85 11.25 65.4 11.25 64.8 L11.25 58.65 10.85 58.15 10.1 56.55 Q9.85 56.0 10.05 55.45 10.2 54.9 10.7 54.65 13.2 53.1 15.7 50.25 16.0 49.8 16.55 49.75 L17.5 49.9 17.55 49.9 19.3 50.85 19.9 51.5 20.05 51.9 20.25 51.75 Q20.7 51.4 21.25 51.45 21.75 51.5 22.15 51.85 L22.15 51.9 23.9 53.65 23.9 52.05 Q23.9 51.45 24.35 51.0 24.8 50.55 25.4 50.55 L38.6 50.55 Q39.2 50.55 39.65 51.0 40.1 51.45 40.1 52.05 L40.1 53.6" fill="#000000" fill-rule="evenodd" stroke="none"/>
    <path d="M38.6 53.6 L32.75 53.6 32.15 54.95 37.85 54.95 37.85 64.8 36.1 64.8 36.1 64.1 27.9 64.1 27.9 64.8 26.15 64.8 26.15 54.95 29.95 54.95 30.45 53.6 25.4 53.6 25.4 52.05 38.6 52.05 38.6 53.6 M33.1 56.45 L30.8 56.45 30.8 57.6 33.1 57.6 33.1 56.45 M30.8 60.05 L33.1 60.05 33.1 58.95 30.8 58.95 30.8 60.05 M30.8 61.45 L30.8 62.6 33.1 62.6 33.1 61.45 30.8 61.45 M34.85 56.45 L34.85 62.6 36.1 62.6 36.1 56.45 34.85 56.45 M27.9 56.45 L27.9 62.6 29.1 62.6 29.1 56.45 27.9 56.45 M22.4 57.05 L12.2 57.5 11.45 55.9 Q14.15 54.25 16.8 51.2 L18.55 52.15 14.45 55.75 21.05 55.5 19.65 53.95 21.1 52.95 24.95 57.0 23.45 58.3 22.4 57.05 M21.4 64.0 L14.6 64.0 14.6 64.8 12.75 64.8 12.75 58.4 23.25 58.4 23.25 64.8 21.4 64.8 21.4 64.0 M21.4 60.1 L14.6 60.1 14.6 62.3 21.4 62.3 21.4 60.1" fill="#cccccc" fill-rule="evenodd" stroke="none"/>
  </g>
</svg>
