<?xml version="1.0" encoding="UTF-8" standalone="no"?>
<svg xmlns:xlink="http://www.w3.org/1999/xlink" height="54.35px" width="54.25px" xmlns="http://www.w3.org/2000/svg">
  <g transform="matrix(1.0, 0.0, 0.0, 1.0, 2.15, 2.2)">
    <path d="M4.25 7.55 Q-3.0 -0.95 -2.0 -2.0 -1.0 -2.95 7.5 4.3 15.15 10.8 24.85 20.35 34.65 10.65 42.4 4.1 50.95 -3.1 51.95 -2.1 52.9 -1.15 45.7 7.4 39.15 15.15 29.45 24.95 39.2 34.8 45.7 42.5 53.0 51.05 52.0 52.0 51.0 53.05 42.4 45.75 34.7 39.25 24.85 29.55 15.15 39.15 7.5 45.6 -1.1 52.85 -2.05 51.9 -3.05 50.9 4.25 42.3 10.65 34.65 20.35 24.95 10.75 15.2 4.25 7.55" fill="#cc0000" fill-rule="evenodd" stroke="none"/>
  </g>
</svg>
