<?xml version="1.0" encoding="UTF-8" standalone="no"?>
<svg xmlns:xlink="http://www.w3.org/1999/xlink" height="159.8px" width="85.3px" xmlns="http://www.w3.org/2000/svg">
  <g transform="matrix(1.0, 0.0, 0.0, 1.0, 32.4, 80.5)">
    <path d="M5.9 -79.65 L5.95 -79.6 Q6.5 -78.9 6.5 -78.0 L6.5 12.05 6.3 13.0 6.5 14.0 6.5 16.05 6.3 17.0 6.5 18.0 6.5 20.05 6.3 21.0 6.5 22.0 6.5 24.05 6.3 25.0 6.35 25.1 6.85 25.2 7.0 25.2 7.15 25.25 Q15.9 26.95 25.3 31.0 35.55 35.45 42.25 31.2 L42.45 31.05 Q44.85 29.35 45.85 26.65 L45.9 26.35 Q46.7 23.8 46.15 21.05 L46.05 20.9 46.05 20.85 45.7 20.8 Q44.7 20.55 44.15 19.7 L43.05 18.0 Q42.7 17.4 42.65 16.75 42.6 16.1 42.95 15.5 L43.15 15.2 Q42.75 14.45 43.0 13.6 43.2 12.55 44.1 12.05 L44.9 11.55 Q45.75 11.0 46.8 11.25 47.65 11.4 48.15 12.1 L49.1 12.1 49.15 12.15 Q50.1 12.35 50.65 13.2 L51.75 14.9 52.15 16.15 52.0 17.15 Q52.45 17.9 52.35 18.75 53.6 23.75 52.1 28.35 50.45 33.35 46.2 36.4 L45.85 36.6 Q36.7 43.05 22.7 37.0 16.25 34.2 10.1 32.6 L10.45 33.45 10.5 33.55 10.65 35.4 11.2 37.0 11.25 37.3 Q11.9 40.95 9.1 42.75 L9.0 42.8 Q7.8 43.6 7.45 44.35 L7.5 44.2 Q7.25 45.3 6.5 46.0 L6.5 57.5 6.65 57.7 Q7.0 58.3 7.0 59.0 L7.0 70.0 Q7.0 70.9 6.45 71.6 L5.8 72.8 5.5 73.05 Q5.5 74.05 4.8 74.8 L4.35 75.15 Q3.85 76.4 2.65 77.4 L2.8 77.3 2.4 77.65 1.95 77.95 1.35 78.3 1.3 78.35 1.0 78.5 0.95 78.5 Q-0.6 79.15 -2.85 79.25 L-2.9 79.25 Q-12.85 79.85 -22.6 68.6 -31.5 58.4 -32.25 48.3 L-32.25 48.25 Q-33.2 36.9 -27.45 30.9 L-27.4 30.85 Q-22.0 24.7 -10.05 23.95 L-9.95 23.95 -9.9 23.95 -7.6 23.85 -7.55 23.85 -7.5 23.85 -7.5 -68.9 Q-7.9 -72.45 -2.05 -76.95 0.35 -78.85 2.8 -80.2 L2.8 -80.15 Q3.6 -80.65 4.5 -80.45 L4.4 -80.45 Q5.3 -80.3 5.9 -79.65 M-25.75 47.75 Q-25.0 55.95 -17.7 64.3 L-17.65 64.3 Q-12.1 70.75 -6.55 72.3 L-7.25 71.8 Q-8.0 71.05 -8.0 70.0 L-8.0 68.0 -8.25 67.8 Q-9.0 67.05 -9.0 66.0 L-9.0 63.15 -9.0 63.0 -8.95 62.5 -8.7 61.85 -8.25 61.25 -7.95 60.95 -7.9 60.95 Q-7.45 60.6 -6.8 60.55 L-6.7 59.75 -6.7 59.7 Q-6.45 57.4 -6.5 43.45 -6.8 43.0 -7.45 42.5 L-7.45 42.45 Q-8.4 41.65 -9.25 41.5 L-9.3 41.5 -10.4 41.05 -11.35 39.9 -11.5 38.85 -11.35 38.2 -10.4 34.4 Q-10.2 33.55 -9.5 33.05 -9.0 32.6 -8.35 32.55 -8.15 31.6 -7.5 31.1 L-7.5 30.35 -9.65 30.45 Q-18.5 31.0 -22.6 35.25 L-22.65 35.25 Q-26.45 39.65 -25.75 47.75 M-5.65 72.5 L-3.1 72.75 -2.8 72.75 -3.0 72.5 -5.5 72.5 -5.65 72.5" fill="#000000" fill-rule="evenodd" stroke="none"/>
    <path d="M1.5 73.0 Q1.45 74.25 0.4 75.05 -0.8 75.95 -3.0 76.0 -11.6 76.3 -20.15 66.45 -28.25 57.15 -29.0 48.0 -30.65 28.5 -9.85 27.2 5.85 26.2 24.0 34.0 36.35 39.35 44.3 33.7 47.7 31.3 49.0 27.35 50.3 23.35 49.0 19.0" fill="none" stroke="url(#gradient0)" stroke-linecap="round" stroke-linejoin="round" stroke-width="1.5"/>
    <path d="M5.0 29.0 L-7.0 29.0 -7.0 25.0 5.0 25.0 5.0 29.0 M3.0 73.0 L3.0 74.0 0.0 74.0 0.0 73.0 3.0 73.0" fill="#000000" fill-opacity="0.2" fill-rule="evenodd" stroke="none"/>
    <path d="M6.65 35.0 L7.75 37.75 Q8.05 39.2 7.0 39.9 4.45 41.65 4.05 43.5" fill="none" stroke="url(#gradient1)" stroke-linecap="round" stroke-linejoin="round" stroke-width="2.0"/>
    <path d="M7.4 35.35 Q7.85 35.35 8.15 36.05 8.5 36.8 8.5 37.85 8.5 38.9 8.15 39.6 7.85 40.35 7.4 40.35 6.95 40.35 6.6 39.6 6.3 38.9 6.3 37.85 6.3 36.8 6.6 36.05 6.95 35.35 7.4 35.35" fill="url(#gradient2)" fill-rule="evenodd" stroke="none"/>
    <path d="M4.0 63.0 L-6.5 63.0 Q-4.55 62.75 -4.25 60.0 -3.95 57.6 -4.0 43.0 L4.0 43.0 4.0 63.0" fill="url(#gradient3)" fill-rule="evenodd" stroke="none"/>
    <path d="M0.5 42.65 L0.5 55.35 0.35 55.5 -0.35 55.5 -0.5 55.35 -0.5 42.65 -0.35 42.5 0.35 42.5 0.5 42.65" fill="#d2fbbb" fill-rule="evenodd" stroke="none"/>
    <path d="M0.35 42.0 Q1.0 42.0 1.0 42.65 L1.0 55.35 Q1.0 56.0 0.35 56.0 L-0.35 56.0 Q-1.0 56.0 -1.0 55.35 L-1.0 42.65 Q-1.0 42.0 -0.35 42.0 L0.35 42.0 M0.5 42.65 L0.35 42.5 -0.35 42.5 -0.5 42.65 -0.5 55.35 -0.35 55.5 0.35 55.5 0.5 55.35 0.5 42.65" fill="url(#gradient4)" fill-rule="evenodd" stroke="none"/>
    <path d="M1.0 44.0 L-1.0 44.0 -1.0 43.0 1.0 43.0 1.0 44.0" fill="#000000" fill-rule="evenodd" stroke="none"/>
    <path d="M3.5 66.0 L-6.5 66.0 -6.5 63.0 3.5 63.0 3.5 66.0" fill="url(#gradient5)" fill-rule="evenodd" stroke="none"/>
    <path d="M4.0 67.0 L-5.0 67.0 -6.0 66.0 4.0 66.0 4.0 67.0" fill="url(#gradient6)" fill-rule="evenodd" stroke="none"/>
    <path d="M4.0 68.0 L-5.0 68.0 -5.0 67.0 4.0 67.0 4.0 68.0" fill="url(#gradient7)" fill-rule="evenodd" stroke="none"/>
    <path d="M4.05 58.8 L4.0 63.0 2.5 63.0 2.5 61.0 Q3.1 58.85 4.05 58.8" fill="#000000" fill-opacity="0.2" fill-rule="evenodd" stroke="none"/>
    <path d="M3.0 61.0 Q3.55 59.05 4.5 59.0 L4.5 70.0 -5.5 70.0 -5.5 68.0 3.0 68.0 3.0 66.0 3.0 65.95 3.0 61.0" fill="url(#gradient8)" fill-rule="evenodd" stroke="none"/>
    <path d="M3.0 68.0 L2.0 68.0 2.0 67.0 3.0 66.0 3.0 68.0" fill="#4f4f4f" fill-rule="evenodd" stroke="none"/>
    <path d="M4.0 71.0 L-1.0 71.0 -1.0 70.0 4.0 70.0 4.0 71.0" fill="url(#gradient9)" fill-rule="evenodd" stroke="none"/>
    <path d="M0.0 71.0 L3.0 71.0 3.0 73.0 0.0 73.0 0.0 71.0" fill="url(#gradient10)" fill-rule="evenodd" stroke="none"/>
    <path d="M3.0 38.0 L3.0 39.0 7.0 39.0 Q4.25 40.1 4.0 43.0 L-4.0 43.0 Q-4.3 41.75 -5.9 40.5 -7.5 39.2 -9.0 39.0 L0.0 39.0 1.0 39.0 1.0 38.0 3.0 38.0" fill="url(#gradient11)" fill-rule="evenodd" stroke="none"/>
    <path d="M1.0 38.5 L1.0 37.5 3.0 37.5 3.0 38.5 1.0 38.5" fill="#000000" fill-opacity="0.6509804" fill-rule="evenodd" stroke="none"/>
    <path d="M1.0 38.0 L1.0 39.0 -9.0 39.0 -8.0 35.0 6.0 35.0 7.0 39.0 3.0 39.0 3.0 38.0 1.0 38.0" fill="url(#gradient12)" fill-rule="evenodd" stroke="none"/>
    <path d="M6.35 33.0 Q6.7 33.0 7.0 33.4 L7.3 34.15 7.0 34.35 Q7.0 35.0 6.35 35.0 L5.0 35.0 4.0 33.0 6.35 33.0" fill="url(#gradient13)" fill-rule="evenodd" stroke="none"/>
    <path d="M5.0 33.6 L5.0 35.0 -6.0 35.0 -6.0 33.65 Q-6.0 33.0 -5.35 33.0 L4.4 33.0 Q5.0 33.0 5.0 33.6" fill="url(#gradient14)" fill-rule="evenodd" stroke="none"/>
    <path d="M7.85 35.35 L6.4 36.65 6.0 35.0 7.5 33.65 Q7.8 33.4 8.05 34.2 8.25 34.95 7.85 35.35" fill="url(#gradient15)" fill-rule="evenodd" stroke="none"/>
    <path d="M4.0 -75.8 L4.0 12.0 2.0 12.0 2.0 14.0 4.0 14.0 4.0 16.0 2.0 16.0 2.0 18.0 4.0 18.0 4.0 20.0 2.0 20.0 2.0 22.0 4.0 22.0 4.0 24.0 2.0 24.0 2.0 26.0 4.0 26.0 4.0 28.0 2.0 28.0 2.0 30.0 4.0 30.0 4.0 33.0 -3.0 33.0 -3.0 -68.0 Q-3.0 -70.5 1.5 -74.0 L4.0 -75.8" fill="url(#gradient16)" fill-rule="evenodd" stroke="none"/>
    <path d="M4.0 -75.45 Q0.95 -73.4 -0.45 -72.15 -3.0 -69.85 -3.0 -68.0 L-3.0 33.0 -5.0 33.0 -5.0 -69.0 Q-5.0 -71.5 -0.5 -75.0 1.75 -76.75 4.0 -78.0 L4.0 -75.45" fill="url(#gradient17)" fill-rule="evenodd" stroke="none"/>
  </g>
  <defs>
    <linearGradient gradientTransform="matrix(0.0187, -0.0414, 0.0325, 0.0147, 11.4, 44.45)" gradientUnits="userSpaceOnUse" id="gradient0" spreadMethod="pad" x1="-819.2" x2="819.2">
      <stop offset="0.0" stop-color="#823858"/>
      <stop offset="0.10588235294117647" stop-color="#bc4377"/>
      <stop offset="0.20784313725490197" stop-color="#823858"/>
      <stop offset="0.3764705882352941" stop-color="#823858"/>
      <stop offset="0.6392156862745098" stop-color="#a34775"/>
      <stop offset="0.9058823529411765" stop-color="#ef8fb9"/>
      <stop offset="1.0" stop-color="#a5617e"/>
    </linearGradient>
    <linearGradient gradientTransform="matrix(-0.0024, 0.0057, -0.0061, -0.0026, 5.25, 40.15)" gradientUnits="userSpaceOnUse" id="gradient1" spreadMethod="pad" x1="-819.2" x2="819.2">
      <stop offset="0.09803921568627451" stop-color="#823858"/>
      <stop offset="0.4745098039215686" stop-color="#823858"/>
      <stop offset="0.6" stop-color="#632640"/>
      <stop offset="1.0" stop-color="#632640"/>
    </linearGradient>
    <radialGradient cx="0" cy="0" fx="163.20000000000002" fy="0" gradientTransform="matrix(-0.002, -0.0065, 0.002, -6.0E-4, 7.55, 37.0)" gradientUnits="userSpaceOnUse" id="gradient2" r="819.2" spreadMethod="pad">
      <stop offset="0.2" stop-color="#c07098"/>
      <stop offset="0.5372549019607843" stop-color="#823858" stop-opacity="0.0"/>
      <stop offset="0.7019607843137254" stop-color="#813758" stop-opacity="0.0"/>
    </radialGradient>
    <radialGradient cx="0" cy="0" gradientTransform="matrix(0.0092, 0.0, 0.0, 0.0536, 0.0, 43.0)" gradientUnits="userSpaceOnUse" id="gradient3" r="819.2" spreadMethod="pad">
      <stop offset="0.00784313725490196" stop-color="#65e08c"/>
      <stop offset="0.09803921568627451" stop-color="#65e06d"/>
      <stop offset="0.20784313725490197" stop-color="#62b977"/>
      <stop offset="0.4196078431372549" stop-color="#406250"/>
      <stop offset="0.5333333333333333" stop-color="#324e3f"/>
      <stop offset="0.6588235294117647" stop-color="#39554d"/>
      <stop offset="0.7568627450980392" stop-color="#2e423c"/>
      <stop offset="1.0" stop-color="#2e423c"/>
    </radialGradient>
    <linearGradient gradientTransform="matrix(-1.0E-4, 0.0074, -0.0085, -1.0E-4, 0.0, 49.9)" gradientUnits="userSpaceOnUse" id="gradient4" spreadMethod="pad" x1="-819.2" x2="819.2">
      <stop offset="0.11764705882352941" stop-color="#50f318"/>
      <stop offset="0.615686274509804" stop-color="#49ba3d"/>
      <stop offset="0.8862745098039215" stop-color="#266f38"/>
    </linearGradient>
    <linearGradient gradientTransform="matrix(0.0061, 0.0, 0.0, 0.0018, -1.5, 64.5)" gradientUnits="userSpaceOnUse" id="gradient5" spreadMethod="pad" x1="-819.2" x2="819.2">
      <stop offset="0.01568627450980392" stop-color="#3c584f"/>
      <stop offset="0.10196078431372549" stop-color="#31463f"/>
      <stop offset="0.34509803921568627" stop-color="#416957"/>
      <stop offset="0.4980392156862745" stop-color="#86b99a"/>
      <stop offset="0.5843137254901961" stop-color="#aceebc"/>
      <stop offset="0.6784313725490196" stop-color="#aceebc"/>
      <stop offset="0.8509803921568627" stop-color="#477860"/>
      <stop offset="0.9254901960784314" stop-color="#417058"/>
      <stop offset="1.0" stop-color="#3c584f"/>
    </linearGradient>
    <linearGradient gradientTransform="matrix(0.0061, 0.0, 0.0, 6.0E-4, -1.0, 66.5)" gradientUnits="userSpaceOnUse" id="gradient6" spreadMethod="pad" x1="-819.2" x2="819.2">
      <stop offset="0.0392156862745098" stop-color="#776739"/>
      <stop offset="0.1411764705882353" stop-color="#473e23"/>
      <stop offset="0.22745098039215686" stop-color="#594e2d"/>
      <stop offset="0.4196078431372549" stop-color="#9d8c59"/>
      <stop offset="0.5294117647058824" stop-color="#bcad6d"/>
      <stop offset="0.6078431372549019" stop-color="#bcad6d"/>
      <stop offset="0.6941176470588235" stop-color="#9d8c59"/>
      <stop offset="0.8" stop-color="#635632"/>
    </linearGradient>
    <linearGradient gradientTransform="matrix(0.0055, 0.0, 0.0, 6.0E-4, -0.5, 67.5)" gradientUnits="userSpaceOnUse" id="gradient7" spreadMethod="pad" x1="-819.2" x2="819.2">
      <stop offset="0.01568627450980392" stop-color="#594e2d"/>
      <stop offset="0.10588235294117647" stop-color="#32291b"/>
      <stop offset="0.3607843137254902" stop-color="#7c6f49"/>
      <stop offset="0.7294117647058823" stop-color="#6e6038"/>
      <stop offset="0.7647058823529411" stop-color="#38311d"/>
    </linearGradient>
    <linearGradient gradientTransform="matrix(0.0064, 0.0, 0.0, 0.0067, -0.75, 64.5)" gradientUnits="userSpaceOnUse" id="gradient8" spreadMethod="pad" x1="-819.2" x2="819.2">
      <stop offset="0.0" stop-color="#636363"/>
      <stop offset="0.08627450980392157" stop-color="#313131"/>
      <stop offset="0.21568627450980393" stop-color="#555555"/>
      <stop offset="0.33725490196078434" stop-color="#838383"/>
      <stop offset="0.49019607843137253" stop-color="#ffffff"/>
      <stop offset="0.5372549019607843" stop-color="#fbfbfb"/>
      <stop offset="0.5843137254901961" stop-color="#ffffff"/>
      <stop offset="0.6941176470588235" stop-color="#afafaf"/>
      <stop offset="0.8235294117647058" stop-color="#757575"/>
      <stop offset="0.8980392156862745" stop-color="#8a8a8a"/>
      <stop offset="0.9372549019607843" stop-color="#b0b0b0"/>
      <stop offset="0.9529411764705882" stop-color="#c6c6c6"/>
      <stop offset="1.0" stop-color="#8a8a8a"/>
    </linearGradient>
    <linearGradient gradientTransform="matrix(0.0031, 0.0, 0.0, 6.0E-4, 1.5, 70.5)" gradientUnits="userSpaceOnUse" id="gradient9" spreadMethod="pad" x1="-819.2" x2="819.2">
      <stop offset="0.023529411764705882" stop-color="#636363"/>
      <stop offset="0.12941176470588237" stop-color="#313131"/>
      <stop offset="0.21568627450980393" stop-color="#555555"/>
      <stop offset="0.33725490196078434" stop-color="#838383"/>
      <stop offset="0.4588235294117647" stop-color="#e6e6e6"/>
      <stop offset="0.5058823529411764" stop-color="#e2e2e2"/>
      <stop offset="0.5568627450980392" stop-color="#e6e6e6"/>
      <stop offset="0.6980392156862745" stop-color="#838383"/>
      <stop offset="0.788235294117647" stop-color="#555555"/>
      <stop offset="0.8666666666666667" stop-color="#313131"/>
      <stop offset="1.0" stop-color="#636363"/>
    </linearGradient>
    <linearGradient gradientTransform="matrix(0.0018, 0.0, 0.0, 0.0012, 1.5, 72.0)" gradientUnits="userSpaceOnUse" id="gradient10" spreadMethod="pad" x1="-819.2" x2="819.2">
      <stop offset="0.023529411764705882" stop-color="#636363"/>
      <stop offset="0.12941176470588237" stop-color="#313131"/>
      <stop offset="0.21568627450980393" stop-color="#555555"/>
      <stop offset="0.33725490196078434" stop-color="#838383"/>
      <stop offset="0.4588235294117647" stop-color="#e6e6e6"/>
      <stop offset="0.5058823529411764" stop-color="#e2e2e2"/>
      <stop offset="0.5568627450980392" stop-color="#e6e6e6"/>
      <stop offset="0.6980392156862745" stop-color="#838383"/>
      <stop offset="0.788235294117647" stop-color="#555555"/>
      <stop offset="0.8666666666666667" stop-color="#313131"/>
      <stop offset="1.0" stop-color="#636363"/>
    </linearGradient>
    <radialGradient cx="0" cy="0" gradientTransform="matrix(0.0077, 0.0, 0.0, 0.012, 0.0, 43.1)" gradientUnits="userSpaceOnUse" id="gradient11" r="819.2" spreadMethod="pad">
      <stop offset="0.09019607843137255" stop-color="#cddfc8"/>
      <stop offset="0.23529411764705882" stop-color="#8ca792"/>
      <stop offset="0.34901960784313724" stop-color="#717171"/>
      <stop offset="0.49019607843137253" stop-color="#4e4e4e"/>
      <stop offset="0.7647058823529411" stop-color="#313131"/>
      <stop offset="1.0" stop-color="#313131"/>
    </radialGradient>
    <radialGradient cx="0" cy="0" gradientTransform="matrix(0.0, -0.0256, 0.0107, 0.0, 0.0, 39.1)" gradientUnits="userSpaceOnUse" id="gradient12" r="819.2" spreadMethod="pad">
      <stop offset="0.0196078431372549" stop-color="#f2f1f0"/>
      <stop offset="0.2196078431372549" stop-color="#afacab"/>
      <stop offset="0.3803921568627451" stop-color="#9a9796"/>
      <stop offset="0.5058823529411764" stop-color="#7e7a78"/>
      <stop offset="0.6823529411764706" stop-color="#605d59"/>
      <stop offset="0.7607843137254902" stop-color="#595653"/>
      <stop offset="0.9411764705882353" stop-color="#746f6d"/>
    </radialGradient>
    <radialGradient cx="0" cy="0" gradientTransform="matrix(0.0034, 0.0, 0.0, 0.0022, 6.1, 33.5)" gradientUnits="userSpaceOnUse" id="gradient13" r="819.2" spreadMethod="pad">
      <stop offset="0.12941176470588237" stop-color="#c6c6c6"/>
      <stop offset="0.21176470588235294" stop-color="#9b9b9b"/>
      <stop offset="0.3333333333333333" stop-color="#868686"/>
      <stop offset="0.5725490196078431" stop-color="#4e4e4e"/>
      <stop offset="0.8627450980392157" stop-color="#4e4e4e"/>
      <stop offset="1.0" stop-color="#353535"/>
    </radialGradient>
    <linearGradient gradientTransform="matrix(0.0082, 2.0E-4, 0.0, 0.0012, 0.4, 33.95)" gradientUnits="userSpaceOnUse" id="gradient14" spreadMethod="pad" x1="-819.2" x2="819.2">
      <stop offset="0.0" stop-color="#948647"/>
      <stop offset="0.047058823529411764" stop-color="#483e22"/>
      <stop offset="0.14901960784313725" stop-color="#736337"/>
      <stop offset="0.3411764705882353" stop-color="#6b5e36"/>
      <stop offset="0.5568627450980392" stop-color="#b1a364"/>
      <stop offset="0.596078431372549" stop-color="#e2d57d"/>
      <stop offset="0.6549019607843137" stop-color="#e2d57d"/>
      <stop offset="0.7098039215686275" stop-color="#a09259"/>
      <stop offset="0.807843137254902" stop-color="#534727"/>
      <stop offset="1.0" stop-color="#655836"/>
    </linearGradient>
    <radialGradient cx="0" cy="0" fx="284.8" fy="0" gradientTransform="matrix(0.0019, -9.0E-4, 0.0017, 0.0037, 6.5, 34.3)" gradientUnits="userSpaceOnUse" id="gradient15" r="819.2" spreadMethod="pad">
      <stop offset="0.09019607843137255" stop-color="#ffffff"/>
      <stop offset="0.1803921568627451" stop-color="#bbbbbb"/>
      <stop offset="0.2784313725490196" stop-color="#9b9b9b"/>
      <stop offset="0.38823529411764707" stop-color="#7b7b7b"/>
      <stop offset="0.5019607843137255" stop-color="#555555"/>
      <stop offset="0.7803921568627451" stop-color="#636363"/>
      <stop offset="0.9686274509803922" stop-color="#555555"/>
    </radialGradient>
    <linearGradient gradientTransform="matrix(0.0289, -0.054, 0.0585, 0.0312, 0.5, -21.4)" gradientUnits="userSpaceOnUse" id="gradient16" spreadMethod="pad" x1="-819.2" x2="819.2">
      <stop offset="0.0" stop-color="#606060"/>
      <stop offset="0.08235294117647059" stop-color="#5b5b5b"/>
      <stop offset="0.27450980392156865" stop-color="#404040"/>
      <stop offset="0.5529411764705883" stop-color="#606060"/>
      <stop offset="0.6705882352941176" stop-color="#838383"/>
      <stop offset="0.7294117647058823" stop-color="#7f7f7f"/>
      <stop offset="0.8392156862745098" stop-color="#5f5f5f"/>
      <stop offset="1.0" stop-color="#4e4e4e"/>
    </linearGradient>
    <linearGradient gradientTransform="matrix(0.0271, -0.0593, 0.0615, 0.0281, -0.45, -22.6)" gradientUnits="userSpaceOnUse" id="gradient17" spreadMethod="pad" x1="-819.2" x2="819.2">
      <stop offset="0.0" stop-color="#84f56b"/>
      <stop offset="0.5764705882352941" stop-color="#bcfaa7"/>
      <stop offset="0.6941176470588235" stop-color="#bcfaa7"/>
      <stop offset="1.0" stop-color="#84f56b"/>
    </linearGradient>
  </defs>
</svg>
