<?xml version="1.0" encoding="UTF-8" standalone="no"?>
<svg xmlns:xlink="http://www.w3.org/1999/xlink" height="99.25px" width="87.25px" xmlns="http://www.w3.org/2000/svg">
  <g transform="matrix(1.0, 0.0, 0.0, 1.0, 6.9, -33.75)">
    <path d="M8.45 41.3 L14.85 40.45 Q17.85 39.95 18.9 39.25 L18.9 128.55 0.0 128.55 0.0 56.1 Q0.0 52.25 -0.9 48.4 -1.85 44.7 -3.15 42.1 L1.75 41.9 8.45 41.3 M38.8 65.05 Q41.3 59.1 45.7 52.9 50.15 46.65 57.2 39.65 64.35 44.25 68.9 50.7 73.35 57.15 75.95 63.5 78.5 69.9 79.4 75.25 80.35 80.6 80.35 82.9 80.35 85.5 79.65 90.6 79.1 95.65 76.75 102.55 74.45 109.35 69.85 117.2 65.3 125.1 57.2 133.0 45.45 121.35 40.05 109.85 34.55 98.35 34.55 89.2 34.55 82.75 35.45 76.85 36.3 71.0 38.8 65.05 M45.45 70.6 Q45.45 81.9 50.45 92.5 55.45 103.2 64.35 110.7 66.05 109.05 67.35 105.75 68.75 102.5 68.75 96.9 68.75 91.05 66.7 84.7 64.75 78.3 61.8 72.8 58.85 67.3 55.65 63.35 52.45 59.4 50.15 58.15 48.45 59.7 47.0 63.3 45.45 66.9 45.45 70.6" fill="#666666" fill-rule="evenodd" stroke="none"/>
    <path d="M11.1 34.95 Q14.1 34.45 15.15 33.75 L15.15 123.05 -3.75 123.05 -3.75 50.6 Q-3.75 46.75 -4.65 42.9 -5.6 39.2 -6.9 36.6 L-2.0 36.4 4.7 35.8 11.1 34.95" fill="url(#gradient0)" fill-rule="evenodd" stroke="none"/>
    <path d="M53.45 34.15 Q60.6 38.75 65.15 45.2 69.6 51.65 72.2 58.0 74.75 64.4 75.65 69.75 76.6 75.1 76.6 77.4 76.6 80.0 75.9 85.1 75.35 90.15 73.0 97.05 70.7 103.85 66.1 111.7 61.55 119.6 53.45 127.5 41.7 115.85 36.3 104.35 30.8 92.85 30.8 83.7 30.8 77.25 31.7 71.35 32.55 65.5 35.05 59.55 37.55 53.6 41.95 47.4 46.4 41.15 53.45 34.15 M43.25 57.8 Q41.7 61.4 41.7 65.1 41.7 76.4 46.7 87.0 51.7 97.7 60.6 105.2 62.3 103.55 63.6 100.25 65.0 97.0 65.0 91.4 65.0 85.55 62.95 79.2 61.0 72.8 58.05 67.3 55.1 61.8 51.9 57.85 48.7 53.9 46.4 52.65 44.7 54.2 43.25 57.8" fill="url(#gradient1)" fill-rule="evenodd" stroke="none"/>
  </g>
  <defs>
    <linearGradient gradientTransform="matrix(2.0E-4, -0.0545, 0.0549, 2.0E-4, 189.5, 78.05)" gradientUnits="userSpaceOnUse" id="gradient0" spreadMethod="pad" x1="-819.2" x2="819.2">
      <stop offset="0.0" stop-color="#55000f"/>
      <stop offset="1.0" stop-color="#ff005a"/>
    </linearGradient>
    <linearGradient gradientTransform="matrix(2.0E-4, -0.0545, 0.0549, 2.0E-4, 196.75, 78.05)" gradientUnits="userSpaceOnUse" id="gradient1" spreadMethod="pad" x1="-819.2" x2="819.2">
      <stop offset="0.0" stop-color="#55000f"/>
      <stop offset="1.0" stop-color="#ff005a"/>
    </linearGradient>
  </defs>
</svg>
