<?xml version="1.0" encoding="UTF-8" standalone="no"?>
<svg xmlns:xlink="http://www.w3.org/1999/xlink" height="32.9px" width="18.3px" xmlns="http://www.w3.org/2000/svg">
  <g transform="matrix(1.0, 0.0, 0.0, 1.0, -1.05, -0.5)">
    <path d="M18.55 0.8 L19.1 1.5 19.15 2.4 17.75 7.95 17.25 8.75 16.3 9.05 9.35 9.05 9.25 9.55 Q13.35 10.9 15.95 12.95 19.4 15.6 19.35 19.35 19.35 20.85 18.65 22.2 L18.65 22.25 17.65 24.0 17.25 24.7 17.2 24.7 16.45 25.7 15.4 27.1 14.25 28.6 14.25 28.65 11.1 32.8 10.15 33.4 9.05 33.15 1.7 28.15 Q1.2 27.8 1.1 27.2 0.95 26.55 1.35 26.05 L4.7 21.3 Q5.05 20.8 5.65 20.7 L6.75 20.9 11.2 23.85 11.5 23.4 11.45 23.45 Q11.85 22.85 11.85 22.0 L11.45 21.25 11.35 21.2 Q10.65 20.45 9.5 19.85 8.2 19.15 6.55 18.65 L6.5 18.65 2.8 17.65 Q2.4 17.55 2.1 17.25 L1.65 16.6 1.65 15.8 5.25 1.65 Q5.35 1.15 5.8 0.85 6.2 0.5 6.7 0.5 L17.7 0.5 18.55 0.8" fill="#000000" fill-rule="evenodd" stroke="none"/>
    <path d="M16.3 7.55 L8.1 7.55 7.45 10.55 Q12.2 11.9 15.0 14.1 17.85 16.3 17.85 19.35 17.85 20.5 17.3 21.55 L16.25 23.4 16.0 23.8 15.25 24.8 14.2 26.2 13.05 27.7 9.9 31.9 2.55 26.9 5.9 22.15 11.45 25.8 12.7 24.3 Q13.35 23.35 13.35 22.0 13.35 21.0 12.45 20.15 11.6 19.25 10.2 18.5 L6.95 17.2 3.1 16.15 6.7 2.0 17.7 2.0 16.3 7.55" fill="url(#gradient0)" fill-rule="evenodd" stroke="none"/>
  </g>
  <defs>
    <linearGradient gradientTransform="matrix(0.0, 0.0206, -0.0222, 0.0, 0.4, 15.65)" gradientUnits="userSpaceOnUse" id="gradient0" spreadMethod="pad" x1="-819.2" x2="819.2">
      <stop offset="0.0" stop-color="#ffffff"/>
      <stop offset="1.0" stop-color="#757575"/>
    </linearGradient>
  </defs>
</svg>
