<?xml version="1.0" encoding="UTF-8" standalone="no"?>
<svg xmlns:xlink="http://www.w3.org/1999/xlink" height="94.4px" width="53.85px" xmlns="http://www.w3.org/2000/svg">
  <g transform="matrix(1.0, 0.0, 0.0, 1.0, -0.05, -34.15)">
    <path d="M53.3 45.15 Q48.55 50.4 43.2 57.8 37.85 65.25 33.1 72.6 28.25 79.9 24.65 86.0 21.05 92.1 19.85 94.8 L30.5 94.8 30.5 81.3 Q32.4 78.3 35.2 74.65 L40.7 67.55 Q43.4 64.15 45.6 61.75 L48.55 58.55 48.55 94.8 53.9 94.8 53.9 109.35 48.55 109.35 48.55 128.55 30.5 128.55 30.5 109.35 3.8 109.35 Q9.35 100.2 14.2 90.6 18.95 81.0 22.4 71.95 25.85 62.85 27.9 54.5 29.95 46.25 29.95 39.65 L53.3 39.65 53.3 45.15" fill="#666666" fill-rule="evenodd" stroke="none"/>
    <path d="M49.55 39.65 Q44.8 44.9 39.45 52.3 34.1 59.75 29.35 67.1 24.5 74.4 20.9 80.5 17.3 86.6 16.1 89.3 L26.75 89.3 26.75 75.8 Q28.65 72.8 31.45 69.15 L36.95 62.05 41.85 56.25 44.8 53.05 44.8 89.3 50.15 89.3 50.15 103.85 44.8 103.85 44.8 123.05 26.75 123.05 26.75 103.85 0.05 103.85 Q5.6 94.7 10.45 85.1 15.2 75.5 18.65 66.45 22.1 57.35 24.15 49.0 26.2 40.75 26.2 34.15 L49.55 34.15 49.55 39.65" fill="url(#gradient0)" fill-rule="evenodd" stroke="none"/>
  </g>
  <defs>
    <linearGradient gradientTransform="matrix(2.0E-4, -0.0545, 0.0549, 2.0E-4, 522.25, 78.05)" gradientUnits="userSpaceOnUse" id="gradient0" spreadMethod="pad" x1="-819.2" x2="819.2">
      <stop offset="0.0" stop-color="#55000f"/>
      <stop offset="1.0" stop-color="#ff005a"/>
    </linearGradient>
  </defs>
</svg>
