<?xml version="1.0" encoding="UTF-8" standalone="no"?>
<svg xmlns:xlink="http://www.w3.org/1999/xlink" height="150.0px" width="101.0px" xmlns="http://www.w3.org/2000/svg">
  <g transform="matrix(1.0, 0.0, 0.0, 1.0, 50.5, 70.5)">
    <path d="M7.05 -67.5 Q7.9 -67.5 8.6 -66.95 9.25 -66.4 9.45 -65.5 9.65 -64.65 9.25 -63.85 L8.25 -61.85 7.6 -61.05 7.2 -60.8 Q8.1 -59.8 8.4 -58.55 20.7 -51.45 33.6 -45.2 L35.0 -45.5 Q36.4 -45.55 37.5 -44.45 L38.0 -44.5 38.1 -44.6 Q38.7 -45.35 39.65 -45.45 40.55 -45.6 41.35 -45.1 L49.35 -40.1 Q50.05 -39.65 50.35 -38.8 50.65 -38.0 50.35 -37.15 50.05 -36.35 49.35 -35.85 L41.35 -30.85 Q40.55 -30.4 39.65 -30.5 38.7 -30.65 38.1 -31.35 L38.0 -31.5 Q36.6 -31.45 35.55 -32.5 L34.85 -33.4 33.9 -33.5 33.5 -33.5 33.5 54.0 Q33.5 55.05 32.8 55.8 32.05 56.5 31.0 56.5 L5.5 56.5 5.5 67.0 5.8 67.25 Q6.5 67.95 6.5 69.0 L6.5 70.0 Q6.5 71.05 5.8 71.8 L5.5 72.05 5.5 77.0 Q5.5 78.05 4.8 78.8 4.05 79.5 3.0 79.5 L-3.0 79.5 Q-4.05 79.5 -4.75 78.8 -5.5 78.05 -5.5 77.0 L-5.5 72.05 -5.75 71.8 Q-6.5 71.05 -6.5 70.0 L-6.5 69.0 Q-6.5 67.95 -5.75 67.25 L-5.5 67.0 -5.5 56.5 -31.0 56.5 Q-32.05 56.5 -32.75 55.8 -33.5 55.05 -33.5 54.0 L-33.5 -33.5 -33.8 -33.5 -34.85 -33.4 -35.5 -32.5 Q-36.6 -31.45 -38.0 -31.5 L-38.1 -31.35 Q-38.7 -30.65 -39.6 -30.5 -40.55 -30.4 -41.3 -30.85 L-49.3 -35.85 Q-50.05 -36.35 -50.35 -37.15 -50.65 -38.0 -50.35 -38.8 -50.05 -39.65 -49.3 -40.1 L-41.3 -45.1 Q-40.55 -45.6 -39.6 -45.45 -38.7 -45.35 -38.1 -44.6 L-38.0 -44.5 -37.45 -44.45 Q-36.4 -45.55 -35.0 -45.5 L-33.6 -45.2 Q-20.7 -51.45 -8.35 -58.6 -8.0 -59.8 -7.15 -60.75 L-7.6 -61.05 -8.2 -61.85 -9.2 -63.85 Q-9.65 -64.65 -9.45 -65.5 -9.25 -66.4 -8.55 -66.95 -7.9 -67.5 -7.0 -67.5 L-6.2 -69.1 -5.3 -70.1 Q-4.7 -70.5 -4.0 -70.5 L4.0 -70.5 Q4.7 -70.5 5.3 -70.1 L6.25 -69.1 7.05 -67.5 M6.5 -51.0 Q6.5 -49.6 5.5 -48.55 L5.5 -42.5 19.25 -42.5 Q20.0 -43.35 21.5 -43.45 13.85 -47.4 6.45 -51.65 L6.5 -51.0 M-6.45 -51.65 L-21.45 -43.45 Q-20.0 -43.35 -19.25 -42.5 L-5.5 -42.5 -5.5 -48.55 Q-6.5 -49.6 -6.5 -51.0 L-6.45 -51.65" fill="#000000" fill-rule="evenodd" stroke="none"/>
    <path d="M5.25 -59.2 Q6.1 -58.3 6.1 -57.05 6.1 -55.8 5.25 -54.95 4.35 -54.05 3.1 -54.05 1.85 -54.05 1.0 -54.95 0.1 -55.8 0.1 -57.05 0.1 -58.3 1.0 -59.2 1.85 -60.05 3.1 -60.05 4.35 -60.05 5.25 -59.2 M1.85 -55.8 Q2.35 -55.25 3.1 -55.25 3.85 -55.25 4.4 -55.8 4.9 -56.3 4.9 -57.05 4.9 -57.8 4.4 -58.35 3.85 -58.85 3.1 -58.85 2.35 -58.85 1.85 -58.35 1.3 -57.8 1.3 -57.05 1.3 -56.3 1.85 -55.8" fill="url(#gradient0)" fill-rule="evenodd" stroke="none"/>
    <path d="M-3.05 -58.85 Q-3.8 -58.85 -4.35 -58.35 -4.85 -57.8 -4.85 -57.05 -4.85 -56.3 -4.35 -55.8 -3.8 -55.25 -3.05 -55.25 -2.3 -55.25 -1.8 -55.8 -1.25 -56.3 -1.25 -57.05 -1.25 -57.8 -1.8 -58.35 -2.3 -58.85 -3.05 -58.85 M-0.05 -57.05 Q-0.05 -55.8 -0.95 -54.95 -1.8 -54.05 -3.05 -54.05 -4.3 -54.05 -5.2 -54.95 -6.05 -55.8 -6.05 -57.05 -6.05 -58.3 -5.2 -59.2 -4.3 -60.05 -3.05 -60.05 -1.8 -60.05 -0.95 -59.2 -0.05 -58.3 -0.05 -57.05" fill="url(#gradient1)" fill-rule="evenodd" stroke="none"/>
    <path d="M-4.0 -66.0 L-5.0 -66.0 -4.0 -68.0 4.0 -68.0 5.0 -66.0 4.0 -66.0 -4.0 -66.0 M4.0 -65.0 L7.0 -65.0 6.0 -63.0 -6.0 -63.0 -7.0 -65.0 -4.0 -65.0 4.0 -65.0" fill="url(#gradient2)" fill-rule="evenodd" stroke="none"/>
    <path d="M4.0 -66.0 L4.0 -65.0 -4.0 -65.0 -4.0 -66.0 4.0 -66.0" fill="url(#gradient3)" fill-rule="evenodd" stroke="none"/>
    <path d="M3.0 -52.0 L3.7 -51.7 4.0 -51.0 3.7 -50.3 Q3.4 -50.0 3.0 -50.0 L-3.0 -50.0 Q-3.4 -50.0 -3.7 -50.3 L-4.0 -51.0 -3.7 -51.7 -3.0 -52.0 3.0 -52.0" fill="url(#gradient4)" fill-rule="evenodd" stroke="none"/>
    <path d="M3.75 -60.0 L3.45 -58.9 Q3.0 -56.55 3.0 -52.0 L-3.0 -52.0 Q-3.0 -56.55 -3.45 -58.9 L-3.7 -60.0 3.75 -60.0 M3.0 -50.0 L3.0 -47.0 -3.0 -47.0 -3.0 -50.0 3.0 -50.0 M3.0 67.0 L3.0 69.0 -3.0 69.0 -3.0 67.0 3.0 67.0 M3.0 70.0 L3.0 77.0 -3.0 77.0 -3.0 70.0 3.0 70.0" fill="url(#gradient5)" fill-rule="evenodd" stroke="none"/>
    <path d="M6.0 -63.0 Q4.45 -62.55 3.75 -60.0 L-3.7 -60.0 Q-4.45 -62.55 -6.0 -63.0 L6.0 -63.0" fill="url(#gradient6)" fill-rule="evenodd" stroke="none"/>
    <path d="M3.0 -47.0 L3.0 67.0 -3.0 67.0 -3.0 -47.0 3.0 -47.0" fill="url(#gradient7)" fill-rule="evenodd" stroke="none"/>
    <path d="M3.0 69.0 L4.0 69.0 4.0 70.0 3.0 70.0 -3.0 70.0 -4.0 70.0 -4.0 69.0 -3.0 69.0 3.0 69.0" fill="url(#gradient8)" fill-rule="evenodd" stroke="none"/>
    <path d="M-3.0 70.0 L3.0 70.0 3.0 72.0 -3.0 72.0 -3.0 70.0 M-3.0 68.0 L3.0 68.0 3.0 69.0 -3.0 69.0 -3.0 68.0" fill="#000000" fill-opacity="0.15294118" fill-rule="evenodd" stroke="none"/>
    <path d="M3.0 -46.0 L-3.0 -46.0 -3.0 -47.0 3.0 -47.0 3.0 -46.0 M3.0 -34.0 L-3.0 -34.0 -3.0 -36.0 3.0 -36.0 3.0 -34.0 M3.0 -49.0 L-3.0 -49.0 -3.0 -50.0 3.0 -50.0 3.0 -49.0 M-3.0 54.0 L3.0 54.0 3.0 59.0 -3.0 59.0 -3.0 54.0" fill="#000000" fill-opacity="0.2" fill-rule="evenodd" stroke="none"/>
    <path d="M4.35 -56.9 Q19.15 -48.2 34.75 -40.8" fill="none" stroke="url(#gradient9)" stroke-linecap="round" stroke-linejoin="round" stroke-width="2.0"/>
    <path d="M-4.35 -56.9 Q-19.15 -48.2 -34.75 -40.8" fill="none" stroke="url(#gradient10)" stroke-linecap="round" stroke-linejoin="round" stroke-width="2.0"/>
    <path d="M34.3 -42.7 Q34.6 -43.0 35.0 -43.0 L35.7 -42.7 36.0 -42.0 36.0 -39.0 35.7 -38.3 Q35.4 -38.0 35.0 -38.0 34.6 -38.0 34.3 -38.3 34.0 -38.6 34.0 -39.0 L34.0 -42.0 Q34.0 -42.4 34.3 -42.7" fill="url(#gradient11)" fill-rule="evenodd" stroke="none"/>
    <path d="M-35.7 -38.3 L-36.0 -39.0 -36.0 -42.0 -35.7 -42.7 -35.0 -43.0 Q-34.6 -43.0 -34.3 -42.7 -34.0 -42.4 -34.0 -42.0 L-34.0 -39.0 Q-34.0 -38.6 -34.3 -38.3 -34.6 -38.0 -35.0 -38.0 -35.4 -38.0 -35.7 -38.3" fill="url(#gradient12)" fill-rule="evenodd" stroke="none"/>
    <path d="M33.0 -40.0 L33.0 -36.0 -33.0 -36.0 -33.0 -40.0 33.0 -40.0" fill="url(#gradient13)" fill-rule="evenodd" stroke="none"/>
    <path d="M33.0 -40.0 L33.9 -40.0 35.7 -40.1 Q36.4 -40.2 37.0 -40.45 L37.0 -35.5 Q35.8 -35.95 33.9 -36.0 L33.0 -36.0 33.0 -40.0" fill="url(#gradient14)" fill-rule="evenodd" stroke="none"/>
    <path d="M-37.0 -35.5 L-37.0 -40.45 Q-36.4 -40.2 -35.7 -40.1 L-33.9 -40.0 -33.0 -40.0 -33.0 -36.0 -33.9 -36.0 Q-35.8 -35.95 -37.0 -35.5" fill="url(#gradient15)" fill-rule="evenodd" stroke="none"/>
    <path d="M37.0 -35.5 L37.0 -40.45 37.0 -41.0 Q37.0 -41.4 37.3 -41.7 37.6 -42.0 38.0 -42.0 L38.7 -41.7 39.0 -41.0 39.0 -35.0 38.7 -34.3 38.0 -34.0 Q37.6 -34.0 37.3 -34.3 37.0 -34.6 37.0 -35.0 L37.0 -35.5" fill="url(#gradient16)" fill-rule="evenodd" stroke="none"/>
    <path d="M-39.0 -41.0 L-38.7 -41.7 -38.0 -42.0 Q-37.6 -42.0 -37.3 -41.7 -37.0 -41.4 -37.0 -41.0 L-37.0 -40.45 -37.0 -35.5 -37.0 -35.0 Q-37.0 -34.6 -37.3 -34.3 -37.6 -34.0 -38.0 -34.0 L-38.7 -34.3 -39.0 -35.0 -39.0 -41.0" fill="url(#gradient17)" fill-rule="evenodd" stroke="none"/>
    <path d="M39.0 -41.0 L39.7 -41.35 Q39.95 -41.55 40.0 -42.0 L40.0 -40.4 40.0 -38.0 40.0 -34.0 39.7 -34.65 39.0 -35.0 39.0 -41.0 M-39.0 -41.0 L-39.0 -35.0 -39.7 -34.65 -40.0 -34.0 -40.0 -38.0 -40.0 -42.0 Q-39.95 -41.55 -39.7 -41.35 L-39.0 -41.0" fill="#6a6a6a" fill-rule="evenodd" stroke="none"/>
    <path d="M40.0 -42.0 L40.0 -43.0 48.0 -38.0 40.0 -38.0 40.0 -40.4 40.0 -42.0 M-48.0 -38.0 L-40.0 -43.0 -40.0 -42.0 -40.0 -38.0 -48.0 -38.0" fill="#f4f4f4" fill-rule="evenodd" stroke="none"/>
    <path d="M48.0 -38.0 L40.0 -33.0 40.0 -34.0 40.0 -38.0 48.0 -38.0" fill="url(#gradient18)" fill-rule="evenodd" stroke="none"/>
    <path d="M-48.0 -38.0 L-40.0 -38.0 -40.0 -34.0 -40.0 -33.0 -48.0 -38.0" fill="url(#gradient19)" fill-rule="evenodd" stroke="none"/>
    <path d="M38.75 -41.55 L39.0 -40.6 39.1 -39.4 39.0 -38.15 38.75 -37.25 Q38.45 -36.35 38.0 -36.35 37.55 -36.35 37.2 -37.25 L37.0 -38.05 36.9 -39.4 37.0 -40.7 37.2 -41.55 37.25 -41.6 37.3 -41.7 Q37.6 -42.0 38.0 -42.0 L38.7 -41.7 38.75 -41.55" fill="url(#gradient20)" fill-rule="evenodd" stroke="none"/>
    <path d="M-37.35 -41.55 L-37.1 -40.6 -37.0 -39.4 -37.1 -38.15 -37.35 -37.25 Q-37.65 -36.35 -38.1 -36.35 -38.55 -36.35 -38.9 -37.25 L-39.1 -38.05 -39.2 -39.4 -39.1 -40.7 -38.9 -41.55 -38.85 -41.6 -38.8 -41.7 -38.1 -42.0 Q-37.7 -42.0 -37.4 -41.7 L-37.35 -41.55" fill="url(#gradient21)" fill-rule="evenodd" stroke="none"/>
    <path d="M31.0 54.0 L-31.0 54.0 -31.0 45.0 31.0 45.0 31.0 54.0" fill="url(#gradient22)" fill-rule="evenodd" stroke="none"/>
    <path d="M5.15 45.0 L5.15 54.0 4.9 54.0 4.9 45.0 5.15 45.0 M7.15 45.0 L7.15 54.0 6.9 54.0 6.9 45.0 7.15 45.0 M9.15 45.0 L9.15 54.0 8.9 54.0 8.9 45.0 9.15 45.0 M1.15 45.0 L1.15 54.0 0.9 54.0 0.9 45.0 1.15 45.0 M3.15 45.0 L3.15 54.0 2.9 54.0 2.9 45.0 3.15 45.0 M17.15 45.0 L17.15 54.0 16.9 54.0 16.9 45.0 17.15 45.0 M19.15 45.0 L19.15 54.0 18.9 54.0 18.9 45.0 19.15 45.0 M11.15 45.0 L11.15 54.0 10.9 54.0 10.9 45.0 11.15 45.0 M15.15 45.0 L15.15 54.0 14.9 54.0 14.9 45.0 15.15 45.0 M13.15 45.0 L13.15 54.0 12.9 54.0 12.9 45.0 13.15 45.0 M27.15 45.0 L27.15 54.0 26.9 54.0 26.9 45.0 27.15 45.0 M29.15 45.0 L29.15 54.0 28.9 54.0 28.9 45.0 29.15 45.0 M21.15 45.0 L21.15 54.0 20.9 54.0 20.9 45.0 21.15 45.0 M25.15 45.0 L25.15 54.0 24.9 54.0 24.9 45.0 25.15 45.0 M23.15 45.0 L23.15 54.0 22.9 54.0 22.9 45.0 23.15 45.0 M-26.85 45.0 L-26.85 54.0 -27.1 54.0 -27.1 45.0 -26.85 45.0 M-28.85 45.0 L-28.85 54.0 -29.1 54.0 -29.1 45.0 -28.85 45.0 M-20.85 45.0 L-20.85 54.0 -21.1 54.0 -21.1 45.0 -20.85 45.0 M-24.85 45.0 L-24.85 54.0 -25.1 54.0 -25.1 45.0 -24.85 45.0 M-22.85 45.0 L-22.85 54.0 -23.1 54.0 -23.1 45.0 -22.85 45.0 M-14.85 45.0 L-14.85 54.0 -15.1 54.0 -15.1 45.0 -14.85 45.0 M-10.85 45.0 L-10.85 54.0 -11.1 54.0 -11.1 45.0 -10.85 45.0 M-18.85 45.0 L-18.85 54.0 -19.1 54.0 -19.1 45.0 -18.85 45.0 M-16.85 45.0 L-16.85 54.0 -17.1 54.0 -17.1 45.0 -16.85 45.0 M-12.85 45.0 L-12.85 54.0 -13.1 54.0 -13.1 45.0 -12.85 45.0 M-6.85 45.0 L-6.85 54.0 -7.1 54.0 -7.1 45.0 -6.85 45.0 M-8.85 45.0 L-8.85 54.0 -9.1 54.0 -9.1 45.0 -8.85 45.0 M-0.85 45.0 L-0.85 54.0 -1.1 54.0 -1.1 45.0 -0.85 45.0 M-2.85 45.0 L-2.85 54.0 -3.1 54.0 -3.1 45.0 -2.85 45.0 M-4.85 45.0 L-4.85 54.0 -5.1 54.0 -5.1 45.0 -4.85 45.0" fill="#d90202" fill-rule="evenodd" stroke="none"/>
    <path d="M0.0 45.0 L-31.0 45.0 -31.0 -32.0 31.0 -32.0 31.0 45.0 0.0 45.0" fill="url(#gradient23)" fill-rule="evenodd" stroke="none"/>
    <path d="M21.0 -24.0 L21.0 38.0 -21.0 38.0 -21.0 -24.0 21.0 -24.0" fill="url(#gradient24)" fill-rule="evenodd" stroke="none"/>
    <path d="M-21.0 -24.0 L-21.0 -26.0 21.0 -26.0 21.0 -24.0 -21.0 -24.0" fill="#990000" fill-rule="evenodd" stroke="none"/>
    <path d="M21.0 38.0 L21.0 40.0 -21.0 40.0 -21.0 38.0 21.0 38.0" fill="#850101" fill-rule="evenodd" stroke="none"/>
    <path d="M22.0 -41.0 L30.0 -41.0 Q31.0 -41.0 31.0 -40.0 L31.0 -30.8 Q31.0 -29.65 30.15 -28.85 29.35 -28.0 28.2 -28.0 L23.8 -28.0 Q22.65 -28.0 21.8 -28.85 21.0 -29.65 21.0 -30.8 L21.0 -40.0 Q21.0 -41.0 22.0 -41.0" fill="url(#gradient25)" fill-rule="evenodd" stroke="none"/>
    <path d="M-22.0 -41.0 Q-21.0 -41.0 -21.0 -40.0 L-21.0 -30.8 Q-21.0 -29.65 -21.85 -28.85 -22.65 -28.0 -23.8 -28.0 L-28.2 -28.0 Q-29.35 -28.0 -30.2 -28.85 -31.0 -29.65 -31.0 -30.8 L-31.0 -40.0 Q-31.0 -41.0 -30.0 -41.0 L-22.0 -41.0" fill="url(#gradient26)" fill-rule="evenodd" stroke="none"/>
    <path d="M28.0 -34.0 Q28.0 -33.15 27.4 -32.6 26.85 -32.0 26.0 -32.0 25.15 -32.0 24.55 -32.6 24.0 -33.15 24.0 -34.0 24.0 -34.85 24.55 -35.45 25.15 -36.0 26.0 -36.0 26.85 -36.0 27.4 -35.45 28.0 -34.85 28.0 -34.0" fill="url(#gradient27)" fill-rule="evenodd" stroke="none"/>
    <path d="M-24.0 -34.0 Q-24.0 -33.15 -24.6 -32.6 -25.15 -32.0 -26.0 -32.0 -26.85 -32.0 -27.45 -32.6 -28.0 -33.15 -28.0 -34.0 -28.0 -34.85 -27.45 -35.45 -26.85 -36.0 -26.0 -36.0 -25.15 -36.0 -24.6 -35.45 -24.0 -34.85 -24.0 -34.0" fill="url(#gradient28)" fill-rule="evenodd" stroke="none"/>
    <path d="M-12.1 -2.1 L-12.15 -2.1 -12.1 -2.1 M-12.15 16.1 L-12.1 16.1 -12.1 16.15 -12.15 16.1 M12.15 16.1 L12.15 16.15 12.15 16.1" fill="#999999" fill-rule="evenodd" stroke="none"/>
    <path d="M-12.1 -2.1 Q-9.65 -5.9 -5.7 -7.95 L-4.25 -11.5 Q-3.15 -14.0 -2.35 -14.95 -1.45 -16.0 0.0 -16.0 1.45 -16.0 2.4 -14.95 3.25 -14.0 4.3 -11.5 L5.75 -7.95 Q9.65 -5.9 12.15 -2.1 14.7 1.8 14.85 6.25 L14.85 6.3 14.85 7.0 14.85 7.7 14.85 7.75 Q14.7 12.2 12.15 16.1 9.65 19.9 5.75 21.95 L4.3 25.5 Q3.25 28.0 2.4 28.95 1.45 30.0 0.0 30.0 -1.45 30.0 -2.35 28.95 -3.15 28.0 -4.25 25.5 L-5.7 21.95 Q-9.65 19.9 -12.1 16.1 L-12.15 16.1 Q-14.7 12.2 -14.85 7.75 L-14.85 7.7 -14.85 7.0 -14.85 6.3 -14.85 6.25 Q-14.7 1.8 -12.15 -2.1 L-12.1 -2.1 M8.55 -11.45 Q9.15 -12.0 10.0 -12.0 10.85 -12.0 11.4 -11.45 12.0 -10.85 12.0 -10.0 12.0 -9.15 11.4 -8.6 10.85 -8.0 10.0 -8.0 9.15 -8.0 8.55 -8.6 8.0 -9.15 8.0 -10.0 8.0 -10.85 8.55 -11.45 M1.75 -10.4 L0.9 -12.35 Q0.5 -13.1 0.0 -13.1 -0.5 -13.1 -0.9 -12.35 L-1.7 -10.4 -3.3 -6.45 Q-3.5 -5.95 -4.0 -5.7 -7.6 -3.95 -9.75 -0.6 L-9.75 -0.55 Q-11.9 2.6 -12.05 6.3 L-12.05 6.35 -12.05 7.0 -12.05 7.65 Q-11.9 11.35 -9.75 14.6 -7.6 17.95 -4.0 19.7 -3.5 19.95 -3.3 20.45 L-1.7 24.4 -0.85 26.35 Q-0.5 27.1 0.0 27.1 0.5 27.1 0.9 26.35 L1.75 24.4 3.3 20.45 Q3.5 19.95 4.0 19.7 7.6 17.95 9.8 14.6 11.9 11.4 12.05 7.7 L12.05 7.65 12.05 7.0 12.05 6.35 Q11.9 2.65 9.8 -0.55 L9.8 -0.6 Q7.6 -3.95 4.0 -5.7 3.5 -5.95 3.3 -6.45 L1.75 -10.4 M1.0 -4.0 L2.2 -2.35 Q4.8 -1.8 6.8 0.2 9.6 3.0 9.6 7.0 9.6 11.0 6.8 13.8 4.8 15.8 2.2 16.35 L1.0 18.0 Q0.65 18.5 0.0 18.5 -0.6 18.5 -1.0 18.0 L-2.2 16.35 Q-4.8 15.8 -6.8 13.8 -9.6 11.0 -9.6 7.0 -9.6 3.0 -6.8 0.2 -4.8 -1.8 -2.2 -2.35 -1.85 -2.65 -1.0 -4.0 -0.6 -4.5 0.0 -4.5 0.65 -4.5 1.0 -4.0 M1.1 5.8 Q0.65 5.35 0.0 5.35 -0.65 5.35 -1.1 5.75 L-1.2 5.85 Q-1.6 6.3 -1.6 6.95 -1.6 7.6 -1.15 8.05 -0.65 8.55 0.0 8.55 0.65 8.55 1.1 8.1 L1.15 8.05 Q1.6 7.6 1.6 6.95 1.6 6.3 1.1 5.8 M0.0 2.55 Q1.85 2.55 3.1 3.8 4.4 5.1 4.4 6.95 4.4 8.75 3.15 10.0 L3.05 10.1 Q1.8 11.35 0.0 11.35 -1.85 11.35 -3.15 10.05 -4.4 8.8 -4.4 6.95 -4.4 5.15 -3.15 3.85 L-3.1 3.8 Q-1.8 2.55 0.0 2.55 M4.8 2.2 Q2.8 0.2 0.0 0.2 -2.8 0.2 -4.8 2.2 -6.8 4.2 -6.8 7.0 -6.8 9.8 -4.8 11.8 -2.8 13.8 0.0 13.8 2.8 13.8 4.8 11.8 6.8 9.8 6.8 7.0 6.8 4.2 4.8 2.2 M10.0 22.0 Q10.85 22.0 11.4 22.55 12.0 23.15 12.0 24.0 12.0 24.85 11.4 25.4 10.85 26.0 10.0 26.0 9.15 26.0 8.55 25.4 8.0 24.85 8.0 24.0 8.0 23.15 8.55 22.55 9.15 22.0 10.0 22.0 M-11.45 -11.45 Q-10.85 -12.0 -10.0 -12.0 -9.15 -12.0 -8.6 -11.45 -8.0 -10.85 -8.0 -10.0 -8.0 -9.15 -8.6 -8.6 -9.15 -8.0 -10.0 -8.0 -10.85 -8.0 -11.45 -8.6 -12.0 -9.15 -12.0 -10.0 -12.0 -10.85 -11.45 -11.45 M-11.45 22.55 Q-10.85 22.0 -10.0 22.0 -9.15 22.0 -8.6 22.55 -8.0 23.15 -8.0 24.0 -8.0 24.85 -8.6 25.4 -9.15 26.0 -10.0 26.0 -10.85 26.0 -11.45 25.4 -12.0 24.85 -12.0 24.0 -12.0 23.15 -11.45 22.55" fill="url(#gradient29)" fill-rule="evenodd" stroke="none"/>
    <path d="M14.55 -4.45 Q15.15 -5.0 16.0 -5.0 16.85 -5.0 17.4 -4.45 18.0 -3.85 18.0 -3.0 18.0 -2.15 17.4 -1.6 16.85 -1.0 16.0 -1.0 15.15 -1.0 14.55 -1.6 14.0 -2.15 14.0 -3.0 14.0 -3.85 14.55 -4.45" fill="url(#gradient30)" fill-rule="evenodd" stroke="none"/>
    <path d="M18.0 17.0 Q18.0 17.85 17.4 18.4 16.85 19.0 16.0 19.0 15.15 19.0 14.55 18.4 14.0 17.85 14.0 17.0 14.0 16.15 14.55 15.55 15.15 15.0 16.0 15.0 16.85 15.0 17.4 15.55 18.0 16.15 18.0 17.0" fill="url(#gradient31)" fill-rule="evenodd" stroke="none"/>
    <path d="M19.4 5.55 Q20.0 6.15 20.0 7.0 20.0 7.85 19.4 8.4 18.85 9.0 18.0 9.0 17.15 9.0 16.55 8.4 16.0 7.85 16.0 7.0 16.0 6.15 16.55 5.55 17.15 5.0 18.0 5.0 18.85 5.0 19.4 5.55" fill="url(#gradient32)" fill-rule="evenodd" stroke="none"/>
    <path d="M-17.4 -4.45 Q-16.85 -5.0 -16.0 -5.0 -15.15 -5.0 -14.55 -4.45 -14.0 -3.85 -14.0 -3.0 -14.0 -2.15 -14.55 -1.6 -15.15 -1.0 -16.0 -1.0 -16.85 -1.0 -17.4 -1.6 -18.0 -2.15 -18.0 -3.0 -18.0 -3.85 -17.4 -4.45" fill="url(#gradient33)" fill-rule="evenodd" stroke="none"/>
    <path d="M-18.0 5.0 Q-17.15 5.0 -16.55 5.55 -16.0 6.15 -16.0 7.0 -16.0 7.85 -16.55 8.4 -17.15 9.0 -18.0 9.0 -18.85 9.0 -19.4 8.4 -20.0 7.85 -20.0 7.0 -20.0 6.15 -19.4 5.55 -18.85 5.0 -18.0 5.0" fill="url(#gradient34)" fill-rule="evenodd" stroke="none"/>
    <path d="M-14.55 15.55 Q-14.0 16.15 -14.0 17.0 -14.0 17.85 -14.55 18.4 -15.15 19.0 -16.0 19.0 -16.85 19.0 -17.4 18.4 -18.0 17.85 -18.0 17.0 -18.0 16.15 -17.4 15.55 -16.85 15.0 -16.0 15.0 -15.15 15.0 -14.55 15.55" fill="url(#gradient35)" fill-rule="evenodd" stroke="none"/>
  </g>
  <defs>
    <radialGradient cx="0" cy="0" gradientTransform="matrix(0.0033, 0.0, 0.0, 0.0033, 2.9, -57.05)" gradientUnits="userSpaceOnUse" id="gradient0" r="819.2" spreadMethod="pad">
      <stop offset="0.7490196078431373" stop-color="#5f5f5f"/>
      <stop offset="1.0" stop-color="#838383"/>
    </radialGradient>
    <radialGradient cx="0" cy="0" gradientTransform="matrix(0.0028, 0.0, 0.0, 0.0028, -3.35, -57.05)" gradientUnits="userSpaceOnUse" id="gradient1" r="819.2" spreadMethod="pad">
      <stop offset="0.8509803921568627" stop-color="#6d6d6d"/>
      <stop offset="1.0" stop-color="#606060"/>
    </radialGradient>
    <linearGradient gradientTransform="matrix(0.0085, 0.0, 0.0, 0.0012, 0.0, -64.0)" gradientUnits="userSpaceOnUse" id="gradient2" spreadMethod="pad" x1="-819.2" x2="819.2">
      <stop offset="0.0" stop-color="#515151"/>
      <stop offset="0.49019607843137253" stop-color="#c2c2c2"/>
      <stop offset="1.0" stop-color="#515151"/>
    </linearGradient>
    <linearGradient gradientTransform="matrix(0.0037, 0.0, 0.0, 0.0012, 0.0, 68.0)" gradientUnits="userSpaceOnUse" id="gradient3" spreadMethod="pad" x1="-819.2" x2="819.2">
      <stop offset="0.0" stop-color="#5b5b5b"/>
      <stop offset="0.5372549019607843" stop-color="#868686"/>
      <stop offset="1.0" stop-color="#5b5b5b"/>
    </linearGradient>
    <linearGradient gradientTransform="matrix(0.0049, 0.0, 0.0, 6.0E-4, 0.0, 69.5)" gradientUnits="userSpaceOnUse" id="gradient4" spreadMethod="pad" x1="-819.2" x2="819.2">
      <stop offset="0.0" stop-color="#404040"/>
      <stop offset="0.4588235294117647" stop-color="#838383"/>
      <stop offset="0.5647058823529412" stop-color="#838383"/>
      <stop offset="1.0" stop-color="#404040"/>
    </linearGradient>
    <linearGradient gradientTransform="matrix(0.0037, 0.0, 0.0, 0.0012, 0.0, 68.0)" gradientUnits="userSpaceOnUse" id="gradient5" spreadMethod="pad" x1="-819.2" x2="819.2">
      <stop offset="0.0" stop-color="#404040"/>
      <stop offset="0.43529411764705883" stop-color="#6a6a6a"/>
      <stop offset="0.5647058823529412" stop-color="#6a6a6a"/>
      <stop offset="1.0" stop-color="#404040"/>
    </linearGradient>
    <radialGradient cx="0" cy="0" gradientTransform="matrix(0.0065, 0.0, 0.0, 0.0113, 0.05, -62.85)" gradientUnits="userSpaceOnUse" id="gradient6" r="819.2" spreadMethod="pad">
      <stop offset="0.0" stop-color="#808080"/>
      <stop offset="0.8509803921568627" stop-color="#313131"/>
    </radialGradient>
    <linearGradient gradientTransform="matrix(0.0037, 0.0, 0.0, 0.0653, 0.0, 3.5)" gradientUnits="userSpaceOnUse" id="gradient7" spreadMethod="pad" x1="-819.2" x2="819.2">
      <stop offset="0.0" stop-color="#394546"/>
      <stop offset="0.4627450980392157" stop-color="#55696a"/>
      <stop offset="0.6" stop-color="#55696a"/>
      <stop offset="1.0" stop-color="#394546"/>
    </linearGradient>
    <linearGradient gradientTransform="matrix(0.0049, 0.0, 0.0, 6.0E-4, 0.0, 69.5)" gradientUnits="userSpaceOnUse" id="gradient8" spreadMethod="pad" x1="-819.2" x2="819.2">
      <stop offset="0.0" stop-color="#404040"/>
      <stop offset="0.4588235294117647" stop-color="#919191"/>
      <stop offset="0.5607843137254902" stop-color="#919191"/>
      <stop offset="1.0" stop-color="#404040"/>
    </linearGradient>
    <linearGradient gradientTransform="matrix(0.0194, -0.0042, 0.0023, 0.0108, 19.2, -46.35)" gradientUnits="userSpaceOnUse" id="gradient9" spreadMethod="pad" x1="-819.2" x2="819.2">
      <stop offset="0.1803921568627451" stop-color="#675b3a"/>
      <stop offset="0.39215686274509803" stop-color="#937d57"/>
      <stop offset="1.0" stop-color="#61573a"/>
    </linearGradient>
    <linearGradient gradientTransform="matrix(-0.0194, -0.0042, -0.0023, 0.0108, -19.2, -46.35)" gradientUnits="userSpaceOnUse" id="gradient10" spreadMethod="pad" x1="-819.2" x2="819.2">
      <stop offset="0.1803921568627451" stop-color="#675b3a"/>
      <stop offset="0.39215686274509803" stop-color="#937d57"/>
      <stop offset="1.0" stop-color="#61573a"/>
    </linearGradient>
    <radialGradient cx="0" cy="0" gradientTransform="matrix(0.0013, 0.0, 0.0, 0.0022, 35.1, -42.1)" gradientUnits="userSpaceOnUse" id="gradient11" r="819.2" spreadMethod="pad">
      <stop offset="0.050980392156862744" stop-color="#ffffff"/>
      <stop offset="0.28627450980392155" stop-color="#d5d5d5"/>
      <stop offset="1.0" stop-color="#aaaaaa"/>
    </radialGradient>
    <radialGradient cx="0" cy="0" gradientTransform="matrix(0.0013, 0.0, 0.0, 0.0022, -34.9, -42.1)" gradientUnits="userSpaceOnUse" id="gradient12" r="819.2" spreadMethod="pad">
      <stop offset="0.050980392156862744" stop-color="#ffffff"/>
      <stop offset="0.28627450980392155" stop-color="#d5d5d5"/>
      <stop offset="1.0" stop-color="#aaaaaa"/>
    </radialGradient>
    <linearGradient gradientTransform="matrix(0.0, 0.0027, -0.0031, 0.0, 0.0, -37.9)" gradientUnits="userSpaceOnUse" id="gradient13" spreadMethod="pad" x1="-819.2" x2="819.2">
      <stop offset="0.0" stop-color="#4b332c"/>
      <stop offset="0.26666666666666666" stop-color="#6c493e"/>
      <stop offset="0.44313725490196076" stop-color="#6a483d"/>
      <stop offset="0.7607843137254902" stop-color="#3f2923"/>
    </linearGradient>
    <linearGradient gradientTransform="matrix(0.0, -0.0031, 0.0043, 1.0E-4, 35.5, -37.5)" gradientUnits="userSpaceOnUse" id="gradient14" spreadMethod="pad" x1="-819.2" x2="819.2">
      <stop offset="0.0" stop-color="#4e4e4e"/>
      <stop offset="0.24313725490196078" stop-color="#757575"/>
      <stop offset="0.7215686274509804" stop-color="#ededed"/>
      <stop offset="1.0" stop-color="#a6a6a6"/>
    </linearGradient>
    <linearGradient gradientTransform="matrix(0.0, -0.0031, 0.0043, 0.0, -35.5, -37.5)" gradientUnits="userSpaceOnUse" id="gradient15" spreadMethod="pad" x1="-819.2" x2="819.2">
      <stop offset="0.0" stop-color="#606060"/>
      <stop offset="0.23137254901960785" stop-color="#757575"/>
      <stop offset="0.7215686274509804" stop-color="#dbdbdb"/>
      <stop offset="1.0" stop-color="#a6a6a6"/>
    </linearGradient>
    <linearGradient gradientTransform="matrix(0.0, -0.0052, 0.0055, 0.0, 38.0, -37.5)" gradientUnits="userSpaceOnUse" id="gradient16" spreadMethod="pad" x1="-819.2" x2="819.2">
      <stop offset="0.0" stop-color="#4a4a4a"/>
      <stop offset="0.2" stop-color="#757575"/>
      <stop offset="0.6" stop-color="#a6a6a6"/>
      <stop offset="0.8235294117647058" stop-color="#bbbbbb"/>
    </linearGradient>
    <linearGradient gradientTransform="matrix(1.0E-4, -0.0053, 0.0055, 1.0E-4, -38.0, -37.5)" gradientUnits="userSpaceOnUse" id="gradient17" spreadMethod="pad" x1="-819.2" x2="819.2">
      <stop offset="0.0" stop-color="#4e4e4e"/>
      <stop offset="0.21568627450980393" stop-color="#757575"/>
      <stop offset="0.6" stop-color="#a6a6a6"/>
      <stop offset="0.8235294117647058" stop-color="#bbbbbb"/>
    </linearGradient>
    <linearGradient gradientTransform="matrix(0.0023, -0.0043, 0.003, 0.0016, 44.0, -35.2)" gradientUnits="userSpaceOnUse" id="gradient18" spreadMethod="pad" x1="-819.2" x2="819.2">
      <stop offset="0.0" stop-color="#585858"/>
      <stop offset="0.5882352941176471" stop-color="#9b9b9b"/>
      <stop offset="1.0" stop-color="#bbbbbb"/>
    </linearGradient>
    <linearGradient gradientTransform="matrix(-0.003, -0.0038, 0.0027, -0.0021, -44.0, -35.2)" gradientUnits="userSpaceOnUse" id="gradient19" spreadMethod="pad" x1="-819.2" x2="819.2">
      <stop offset="0.0" stop-color="#555555"/>
      <stop offset="0.5568627450980392" stop-color="#9f9f9f"/>
      <stop offset="1.0" stop-color="#b8b8b8"/>
    </linearGradient>
    <radialGradient cx="0" cy="0" gradientTransform="matrix(0.0014, 0.0, 0.0, 0.0039, 38.05, -40.0)" gradientUnits="userSpaceOnUse" id="gradient20" r="819.2" spreadMethod="pad">
      <stop offset="0.24313725490196078" stop-color="#ffffff"/>
      <stop offset="1.0" stop-color="#9a9a9a" stop-opacity="0.0"/>
    </radialGradient>
    <radialGradient cx="0" cy="0" gradientTransform="matrix(0.0014, 0.0, 0.0, 0.0039, -38.05, -40.0)" gradientUnits="userSpaceOnUse" id="gradient21" r="819.2" spreadMethod="pad">
      <stop offset="0.24313725490196078" stop-color="#ffffff"/>
      <stop offset="1.0" stop-color="#9a9a9a" stop-opacity="0.0"/>
    </radialGradient>
    <linearGradient gradientTransform="matrix(0.0, -0.0055, 0.0055, 0.0, 0.0, 49.5)" gradientUnits="userSpaceOnUse" id="gradient22" spreadMethod="pad" x1="-819.2" x2="819.2">
      <stop offset="0.0" stop-color="#850101"/>
      <stop offset="1.0" stop-color="#7e0101"/>
    </linearGradient>
    <linearGradient gradientTransform="matrix(0.0, -0.047, 0.047, 0.0, 0.0, 6.5)" gradientUnits="userSpaceOnUse" id="gradient23" spreadMethod="pad" x1="-819.2" x2="819.2">
      <stop offset="0.0" stop-color="#353535"/>
      <stop offset="0.054901960784313725" stop-color="#434343"/>
      <stop offset="0.23529411764705882" stop-color="#313131"/>
      <stop offset="0.43529411764705883" stop-color="#434343"/>
      <stop offset="0.6509803921568628" stop-color="#313131"/>
      <stop offset="0.8156862745098039" stop-color="#434343"/>
      <stop offset="1.0" stop-color="#313131"/>
    </linearGradient>
    <linearGradient gradientTransform="matrix(0.0, -0.0364, 0.0366, 0.0, 0.0, 7.0)" gradientUnits="userSpaceOnUse" id="gradient24" spreadMethod="pad" x1="-819.2" x2="819.2">
      <stop offset="0.0" stop-color="#262626"/>
      <stop offset="0.23529411764705882" stop-color="#060606"/>
      <stop offset="0.4235294117647059" stop-color="#1c1c1c"/>
      <stop offset="0.5764705882352941" stop-color="#232323"/>
      <stop offset="0.792156862745098" stop-color="#000000"/>
      <stop offset="0.9215686274509803" stop-color="#262626"/>
    </linearGradient>
    <linearGradient gradientTransform="matrix(0.0, -0.0081, 0.0079, 0.0, 26.0, -34.5)" gradientUnits="userSpaceOnUse" id="gradient25" spreadMethod="pad" x1="-819.2" x2="819.2">
      <stop offset="0.0" stop-color="#5b5b5b"/>
      <stop offset="0.08235294117647059" stop-color="#4e4e4e"/>
      <stop offset="0.48627450980392156" stop-color="#424242"/>
      <stop offset="0.8509803921568627" stop-color="#4a4a4a"/>
      <stop offset="0.9215686274509803" stop-color="#666666"/>
      <stop offset="1.0" stop-color="#313131"/>
    </linearGradient>
    <linearGradient gradientTransform="matrix(0.0, -0.0079, 0.0079, 0.0, -26.0, -34.5)" gradientUnits="userSpaceOnUse" id="gradient26" spreadMethod="pad" x1="-819.2" x2="819.2">
      <stop offset="0.0" stop-color="#5b5b5b"/>
      <stop offset="0.08235294117647059" stop-color="#4e4e4e"/>
      <stop offset="0.48627450980392156" stop-color="#424242"/>
      <stop offset="0.8509803921568627" stop-color="#4a4a4a"/>
      <stop offset="0.9215686274509803" stop-color="#666666"/>
      <stop offset="1.0" stop-color="#313131"/>
    </linearGradient>
    <linearGradient gradientTransform="matrix(1.0E-4, -0.0032, 0.0024, 1.0E-4, 26.0, -34.0)" gradientUnits="userSpaceOnUse" id="gradient27" spreadMethod="pad" x1="-819.2" x2="819.2">
      <stop offset="0.0" stop-color="#6a6a6a"/>
      <stop offset="0.396078431372549" stop-color="#757575"/>
      <stop offset="1.0" stop-color="#a6a6a6"/>
    </linearGradient>
    <linearGradient gradientTransform="matrix(-1.0E-4, -0.0024, 0.0024, -1.0E-4, -26.0, -34.0)" gradientUnits="userSpaceOnUse" id="gradient28" spreadMethod="pad" x1="-819.2" x2="819.2">
      <stop offset="0.0" stop-color="#6a6a6a"/>
      <stop offset="0.396078431372549" stop-color="#757575"/>
      <stop offset="1.0" stop-color="#a6a6a6"/>
    </linearGradient>
    <linearGradient gradientTransform="matrix(0.0, -0.0281, 0.0117, 0.0, 0.0, 7.0)" gradientUnits="userSpaceOnUse" id="gradient29" spreadMethod="pad" x1="-819.2" x2="819.2">
      <stop offset="0.0" stop-color="#760101"/>
      <stop offset="0.5215686274509804" stop-color="#af0101"/>
      <stop offset="1.0" stop-color="#850101"/>
    </linearGradient>
    <linearGradient gradientTransform="matrix(0.0, -0.0281, 0.0117, 0.0, 6.0, 14.0)" gradientUnits="userSpaceOnUse" id="gradient30" spreadMethod="pad" x1="-819.2" x2="819.2">
      <stop offset="0.0" stop-color="#760101"/>
      <stop offset="0.5215686274509804" stop-color="#af0101"/>
      <stop offset="1.0" stop-color="#850101"/>
    </linearGradient>
    <linearGradient gradientTransform="matrix(0.0, -0.0281, 0.0117, 0.0, 6.0, 34.0)" gradientUnits="userSpaceOnUse" id="gradient31" spreadMethod="pad" x1="-819.2" x2="819.2">
      <stop offset="0.0" stop-color="#760101"/>
      <stop offset="0.5215686274509804" stop-color="#af0101"/>
      <stop offset="1.0" stop-color="#850101"/>
    </linearGradient>
    <linearGradient gradientTransform="matrix(0.0, -0.0281, 0.0117, 0.0, 8.0, 24.0)" gradientUnits="userSpaceOnUse" id="gradient32" spreadMethod="pad" x1="-819.2" x2="819.2">
      <stop offset="0.0" stop-color="#760101"/>
      <stop offset="0.5215686274509804" stop-color="#af0101"/>
      <stop offset="1.0" stop-color="#850101"/>
    </linearGradient>
    <linearGradient gradientTransform="matrix(0.0, -0.0281, -0.0117, 0.0, -6.0, 14.0)" gradientUnits="userSpaceOnUse" id="gradient33" spreadMethod="pad" x1="-819.2" x2="819.2">
      <stop offset="0.0" stop-color="#760101"/>
      <stop offset="0.5215686274509804" stop-color="#af0101"/>
      <stop offset="1.0" stop-color="#850101"/>
    </linearGradient>
    <linearGradient gradientTransform="matrix(0.0, -0.0281, -0.0117, 0.0, -8.0, 24.0)" gradientUnits="userSpaceOnUse" id="gradient34" spreadMethod="pad" x1="-819.2" x2="819.2">
      <stop offset="0.0" stop-color="#760101"/>
      <stop offset="0.5215686274509804" stop-color="#af0101"/>
      <stop offset="1.0" stop-color="#850101"/>
    </linearGradient>
    <linearGradient gradientTransform="matrix(0.0, -0.0281, -0.0117, 0.0, -6.0, 34.0)" gradientUnits="userSpaceOnUse" id="gradient35" spreadMethod="pad" x1="-819.2" x2="819.2">
      <stop offset="0.0" stop-color="#760101"/>
      <stop offset="0.5215686274509804" stop-color="#af0101"/>
      <stop offset="1.0" stop-color="#850101"/>
    </linearGradient>
  </defs>
</svg>
