<?xml version="1.0" encoding="UTF-8" standalone="no"?>
<svg xmlns:xlink="http://www.w3.org/1999/xlink" height="560.0px" width="560.0px" xmlns="http://www.w3.org/2000/svg">
  <g transform="matrix(1.0, 0.0, 0.0, 1.0, 280.0, 280.0)">
    <path d="M56.55 -56.6 Q71.2 -41.95 76.75 -23.45 L280.0 0.0 76.75 23.45 Q71.2 41.9 56.55 56.55 41.9 71.2 23.45 76.75 L0.0 280.0 -23.45 76.75 Q-41.95 71.2 -56.6 56.55 -71.25 41.9 -76.7 23.45 L-280.0 0.0 -76.7 -23.45 Q-71.25 -41.95 -56.6 -56.6 -41.95 -71.25 -23.45 -76.7 L0.0 -280.0 23.45 -76.7 Q41.9 -71.25 56.55 -56.6" fill="#d6f98c" fill-rule="evenodd" stroke="none"/>
    <path d="M21.2 -69.0 Q37.75 -64.1 50.9 -50.95 64.05 -37.75 69.1 -21.15 69.8 -18.85 71.65 -17.3 73.45 -15.8 75.85 -15.5 L210.2 0.0 75.85 15.5 Q73.45 15.8 71.65 17.35 69.8 18.85 69.1 21.15 64.1 37.7 50.9 50.9 37.7 64.1 21.15 69.1 18.85 69.8 17.35 71.65 15.8 73.45 15.5 75.85 L0.0 210.2 -15.5 75.85 Q-15.8 73.45 -17.3 71.65 -18.85 69.8 -21.15 69.1 -37.75 64.05 -50.95 50.9 -64.1 37.75 -69.0 21.2 -69.7 18.9 -71.55 17.35 -73.4 15.8 -75.75 15.5 L-210.15 0.0 -75.75 -15.5 Q-73.4 -15.75 -71.55 -17.3 -69.7 -18.9 -69.0 -21.2 -64.1 -37.8 -50.95 -50.95 -37.8 -64.1 -21.2 -69.0 -18.9 -69.7 -17.3 -71.55 -15.75 -73.4 -15.5 -75.75 L0.0 -210.15 15.5 -75.75 Q15.8 -73.4 17.35 -71.55 18.9 -69.7 21.2 -69.0" fill="#ffffff" fill-rule="evenodd" stroke="none"/>
  </g>
</svg>
