<?xml version="1.0" encoding="UTF-8" standalone="no"?>
<svg xmlns:xlink="http://www.w3.org/1999/xlink" height="289.0px" width="302.0px" xmlns="http://www.w3.org/2000/svg">
  <g transform="matrix(1.0, 0.0, 0.0, 1.0, 156.75, 140.0)">
    <path d="M1.5 -129.0 Q0.15 -129.0 -1.5 -130.5 -3.25 -132.1 -3.25 -133.85 -3.25 -135.2 -2.25 -137.5 -1.1 -140.0 -0.1 -140.0 1.3 -140.0 3.0 -137.75 4.5 -135.75 4.5 -134.85 4.5 -133.2 3.25 -131.0 2.05 -129.0 1.5 -129.0 M4.0 -117.75 Q4.0 -116.25 3.25 -113.25 L2.9 -111.1 Q2.75 -110.0 2.25 -110.0 L-4.05 -109.65 Q-5.75 -110.2 -5.75 -116.35 -5.75 -121.65 -5.05 -122.6 L-1.5 -124.5 1.95 -121.05 Q4.0 -118.9 4.0 -117.75 M7.6 -99.35 Q9.25 -95.0 9.25 -92.75 L8.35 -84.05 Q7.4 -76.6 7.0 -76.25 6.15 -75.4 3.5 -73.9 L0.7 -72.5 -2.8 -73.55 -6.85 -74.85 -7.5 -75.65 Q-8.25 -77.3 -8.25 -84.75 -8.25 -95.45 -5.0 -100.25 -3.75 -102.1 -1.35 -104.2 L3.25 -108.25 Q5.85 -103.95 7.6 -99.35 M8.6 -73.0 Q9.5 -73.0 13.45 -68.75 17.95 -63.95 21.0 -59.0 L24.35 -60.25 Q27.0 -61.25 28.0 -61.25 29.25 -61.25 32.75 -54.6 32.75 -53.05 29.7 -50.0 26.95 -47.25 26.6 -47.25 25.6 -47.25 23.85 -49.6 22.1 -52.0 21.1 -52.0 18.95 -50.7 16.4 -49.35 12.45 -47.35 8.75 -46.85 5.7 -49.15 1.55 -54.0 -3.5 -59.95 -3.5 -62.0 -3.5 -63.55 0.5 -68.0 5.0 -73.0 8.6 -73.0 M38.25 -46.5 Q39.2 -43.6 41.7 -40.0 43.75 -37.15 43.75 -35.35 43.75 -33.65 37.55 -30.35 32.3 -27.55 27.1 -25.95 L24.95 -31.35 Q23.0 -36.45 23.0 -36.85 23.0 -38.4 27.75 -41.6 32.85 -45.0 38.25 -46.5 M7.45 -34.55 L12.25 -35.25 14.0 -35.25 15.5 -31.75 Q17.0 -28.2 17.0 -27.25 17.0 -24.95 14.0 -21.0 L12.6 -19.25 18.25 -13.5 Q20.3 -11.55 22.0 -9.0 22.6 -9.5 23.25 -9.5 25.25 -9.5 31.6 -4.95 37.8 -0.55 38.5 1.0 L41.35 9.0 43.75 15.6 Q42.5 21.6 41.5 24.5 L35.2 26.95 Q28.6 29.5 27.0 29.5 26.55 29.5 21.75 20.5 17.0 11.6 17.0 11.1 L12.7 13.3 14.3 18.15 Q16.25 24.4 16.25 28.1 16.25 33.1 14.45 34.85 12.7 36.5 7.5 36.75 L2.85 36.9 Q0.85 37.0 0.0 37.75 L-2.2 39.4 -4.75 40.75 Q-7.35 40.75 -14.05 39.15 L-16.75 36.35 -21.95 30.25 Q-20.4 28.7 -17.4 26.8 -11.15 22.9 -11.0 21.75 L-10.25 16.1 -9.7 13.2 -13.95 11.75 -14.65 15.15 Q-15.6 18.9 -16.75 20.75 -19.4 25.0 -21.75 25.0 -22.45 25.0 -25.55 23.0 L-28.75 21.0 -31.85 23.0 Q-34.65 25.0 -35.35 25.0 L-37.55 24.75 -40.75 24.5 -47.75 24.8 Q-54.75 15.7 -54.75 15.0 -49.5 1.3 -46.25 -2.5 -45.5 -3.4 -36.35 -6.25 -35.75 -6.25 -30.2 -1.45 -24.5 3.45 -23.5 5.0 -21.2 4.25 -17.75 2.7 -17.6 -5.8 -15.5 -12.15 L-19.85 -12.25 Q-20.6 -12.25 -22.5 -15.0 -24.5 -17.9 -24.5 -19.75 -28.75 -25.75 -28.75 -26.5 -28.75 -30.35 -19.25 -38.75 -14.7 -42.7 -10.6 -44.65 L-7.0 -46.0 Q-3.7 -43.35 -0.9 -38.15 -0.1 -36.65 1.65 -35.4 L3.25 -34.5 Q5.65 -34.4 7.45 -34.55 M37.5 -14.75 L45.0 -21.15 Q53.4 -27.5 58.0 -27.5 59.9 -27.5 64.0 -21.65 L67.75 -15.75 67.3 -12.25 Q66.85 -10.0 66.25 -8.5 65.85 -7.5 64.6 -6.6 L60.5 -4.0 52.9 1.0 Q50.55 2.45 48.7 2.85 L47.15 1.35 Q45.7 -0.45 43.5 -4.5 L39.5 -11.25 37.5 -14.75 M114.0 -6.0 Q118.5 -7.5 122.5 -7.5 124.9 -7.5 127.5 -6.0 130.0 -4.55 130.0 -3.35 130.0 -1.8 122.6 1.0 L117.1 2.7 113.75 3.5 Q113.0 3.5 111.0 1.0 109.0 -1.45 109.0 -2.35 109.0 -4.35 114.0 -6.0 M89.25 -11.75 Q89.25 -11.15 90.7 -6.55 92.0 -2.3 92.25 -1.75 L95.95 -3.0 100.35 -4.0 Q101.6 -4.0 103.5 -0.25 105.25 3.25 105.25 4.75 105.25 5.6 102.25 6.25 L98.0 6.75 94.95 6.65 Q93.95 6.5 92.75 5.5 92.55 7.75 91.8 9.15 91.0 10.75 89.75 10.75 L77.75 10.0 Q77.3 9.95 74.55 6.95 L71.45 3.55 71.25 1.5 Q71.25 -6.1 77.3 -9.2 78.65 -9.9 86.75 -11.75 L89.25 -11.75 M140.5 -1.0 Q142.95 -1.0 144.25 -0.25 145.25 0.35 145.25 1.1 145.25 2.8 143.0 4.0 140.8 5.2 137.5 5.25 L135.45 3.15 133.5 1.0 Q133.65 0.7 135.6 -0.05 138.05 -1.0 140.5 -1.0 M62.5 15.0 Q62.5 17.55 60.75 20.35 L55.9 26.75 Q51.95 26.15 48.2 23.75 45.0 21.65 45.0 20.85 45.0 17.0 48.0 10.75 51.25 4.0 54.0 4.0 L60.75 10.75 Q62.1 11.9 62.4 12.85 L62.5 15.0 M49.0 34.35 L42.15 44.8 39.3 43.4 Q35.5 41.45 35.5 40.75 35.5 40.15 39.1 35.65 L43.75 30.25 Q44.55 31.35 47.0 32.65 49.0 33.75 49.0 34.35 M14.7 46.25 L17.75 49.5 Q18.0 49.5 21.65 46.75 L25.75 43.5 29.6 46.35 Q32.1 48.45 32.5 49.35 32.9 50.2 28.15 52.85 23.4 55.55 21.0 55.75 L21.75 62.75 18.25 63.85 14.55 64.8 8.5 65.5 Q8.25 64.1 3.0 50.25 3.0 49.4 6.25 46.25 9.55 43.0 10.75 43.0 11.9 43.0 14.7 46.25 M10.3 83.9 Q10.75 85.3 10.75 86.75 10.75 89.95 9.0 91.85 L3.95 96.25 Q1.65 95.1 -3.5 89.35 -8.5 83.85 -8.5 83.0 -8.5 80.75 -4.0 75.75 0.55 70.75 2.6 70.75 3.1 70.75 8.0 79.25 9.7 82.2 10.3 83.9 M1.5 146.25 Q0.85 149.0 -0.25 149.0 -1.4 149.0 -3.0 146.0 -4.5 143.1 -4.5 141.35 -3.2 134.5 -2.0 133.75 -0.3 134.75 0.9 137.55 2.0 140.15 2.0 142.35 2.0 144.15 1.5 146.25 M0.35 125.25 Q-1.1 125.25 -3.0 124.25 -6.0 122.65 -6.0 119.5 -6.0 119.05 -3.75 114.75 -3.75 114.55 -4.85 113.65 -5.75 112.9 -6.1 112.7 -8.15 108.6 -8.4 106.1 L-8.5 100.75 Q-8.5 99.4 -6.0 98.5 -3.9 97.75 -1.85 97.75 -0.75 97.75 0.0 100.75 0.75 103.5 0.75 106.85 0.75 109.6 -0.25 112.25 1.65 113.5 3.3 114.25 4.0 114.9 4.0 118.6 4.0 123.3 3.5 124.25 2.95 125.25 0.35 125.25 M-147.5 -3.0 L-145.25 -1.25 -141.05 -3.85 Q-136.9 -6.5 -136.1 -6.5 -135.15 -6.5 -132.7 -5.0 L-130.0 -3.25 Q-131.55 -2.25 -136.8 -0.4 -142.0 1.4 -144.25 1.75 -143.8 2.2 -143.6 2.9 L-143.25 4.0 -149.5 4.5 Q-151.8 4.5 -153.45 3.3 L-155.25 1.35 -156.75 -0.5 Q-156.75 -1.2 -153.5 -3.0 -150.35 -4.75 -149.6 -4.75 L-147.5 -3.0 M-122.6 -4.0 Q-121.0 -4.0 -118.25 -1.55 -115.75 0.65 -115.75 1.0 L-119.5 3.55 -123.25 5.8 -130.0 1.5 Q-129.65 0.8 -126.45 -1.6 -123.2 -4.0 -122.6 -4.0 M-105.5 -7.25 L-100.0 -11.75 -98.4 -8.3 Q-97.15 -5.25 -96.5 -5.25 L-84.5 -5.75 -84.5 4.0 Q-83.65 10.5 -96.35 10.5 -99.2 10.5 -100.9 8.3 L-104.25 2.0 -107.3 -0.2 Q-110.0 -2.0 -110.0 -2.5 -110.0 -3.3 -105.5 -7.25 M-28.2 -55.85 Q-25.7 -52.25 -25.25 -52.25 -24.65 -52.25 -22.0 -53.75 L-19.0 -55.5 -16.6 -51.25 -14.75 -47.6 -17.35 -45.2 Q-20.1 -42.9 -21.5 -42.0 -22.2 -42.65 -22.85 -44.45 L-24.0 -47.5 -26.85 -44.15 Q-29.1 -41.25 -29.75 -41.25 -31.15 -41.65 -35.55 -43.6 -40.0 -45.55 -40.0 -45.85 -40.0 -48.65 -36.25 -54.25 -32.65 -59.5 -31.6 -59.5 -30.75 -59.5 -28.2 -55.85 M-42.35 -41.0 Q-40.85 -39.55 -40.25 -36.75 -39.5 -33.45 -37.6 -28.55 -36.0 -24.5 -36.0 -23.6 L-40.95 -17.4 -51.25 -19.75 Q-52.2 -20.0 -52.2 -29.2 -52.2 -38.6 -50.5 -40.0 -49.8 -40.55 -45.1 -42.25 -43.6 -42.25 -42.35 -41.0 M-64.75 -19.75 Q-64.6 -19.4 -60.1 -18.15 -55.75 -16.9 -55.75 -16.0 -55.0 -2.45 -55.0 -0.75 -55.0 2.3 -55.7 2.7 L-58.75 4.5 -62.25 7.2 Q-65.15 9.25 -66.0 9.25 L-73.8 6.05 Q-82.25 -3.15 -82.25 -3.5 -82.25 -4.3 -78.55 -7.5 -74.4 -11.15 -71.0 -12.5 -69.95 -12.9 -68.05 -15.6 -65.8 -18.85 -64.75 -19.75 M-34.25 35.25 Q-32.5 38.8 -32.5 44.5 -32.5 45.25 -35.4 50.2 L-38.45 49.5 Q-42.75 48.45 -46.5 48.25 -47.05 46.4 -48.75 33.5 -47.45 32.85 -43.45 32.25 L-38.6 31.75 Q-35.95 31.75 -34.25 35.25 M-10.0 43.5 Q-8.55 43.5 -4.0 49.75 -1.7 52.9 0.25 56.0 -4.35 67.75 -6.6 69.75 L-6.95 69.7 Q-8.25 69.5 -13.0 67.9 -17.95 66.2 -18.25 65.75 -21.1 61.45 -23.45 56.55 -25.5 52.2 -25.5 51.1 L-20.0 47.25 Q-13.75 43.5 -10.0 43.5" fill="#d6f98c" fill-rule="evenodd" stroke="none"/>
    <path d="M3.85 -97.9 Q5.15 -94.5 5.25 -92.75 L4.4 -84.55 4.15 -80.6 4.2 -79.1 Q2.7 -77.7 0.6 -76.75 L-4.0 -78.05 -4.25 -84.75 Q-4.25 -93.85 -1.7 -98.0 L-1.65 -98.0 2.15 -101.9 3.85 -97.9 M8.6 -69.0 Q8.5 -68.7 13.6 -62.2 18.65 -55.75 19.15 -55.45 11.4 -51.5 9.85 -51.15 7.5 -53.2 4.6 -56.6 1.0 -60.85 0.5 -62.0 L3.5 -65.3 Q6.45 -68.65 8.6 -69.0 M27.55 -53.45 L26.65 -52.55 Q24.9 -54.8 23.4 -55.6 L26.4 -56.7 27.5 -55.35 Q28.4 -54.35 28.65 -54.5 L27.55 -53.45 M30.95 -38.8 L36.1 -41.5 39.75 -35.35 Q39.05 -35.65 35.7 -33.85 32.5 -32.2 29.3 -30.95 L28.65 -32.55 28.7 -32.5 27.0 -36.85 Q27.25 -36.8 30.95 -38.8 M7.75 -30.55 L11.5 -30.95 13.0 -27.25 11.35 -24.4 9.55 -21.85 Q8.55 -20.7 8.6 -19.15 8.65 -17.65 9.65 -16.55 L15.5 -10.6 Q17.2 -8.95 18.7 -6.75 19.35 -5.8 20.4 -5.35 21.4 -4.9 22.55 -5.0 23.15 -5.1 23.65 -5.35 L29.35 -1.45 34.75 2.55 Q35.4 5.05 39.7 15.5 L38.25 21.5 33.75 23.25 29.7 25.0 27.6 25.2 Q26.95 24.85 24.0 18.0 L21.0 11.1 Q21.0 9.6 20.05 8.5 19.1 7.4 17.7 7.15 16.65 7.0 11.05 9.65 9.65 10.3 9.05 11.7 8.4 13.05 8.9 14.55 L10.55 19.45 10.5 19.35 Q12.2 24.85 12.25 28.1 12.25 30.9 11.65 32.0 10.45 32.6 7.3 32.75 L2.55 32.95 Q-4.9 36.5 -4.75 36.75 L-12.05 35.5 -16.3 30.85 Q-6.65 23.95 -7.0 22.3 L-7.0 22.25 -6.3 16.25 Q-5.9 11.8 -6.25 11.2 -7.05 9.8 -8.55 9.35 L-12.5 8.0 -14.95 8.25 Q-16.75 8.75 -17.15 9.3 L-18.35 13.4 Q-19.35 17.35 -20.15 18.65 L-21.75 21.0 Q-21.85 20.65 -23.35 19.65 -28.2 16.45 -28.75 17.0 -29.55 16.45 -34.15 19.75 -35.35 20.6 -35.35 21.0 L-37.05 20.8 -40.75 20.5 -46.25 20.75 -50.55 15.2 Q-46.0 3.5 -43.2 0.1 L-36.3 -2.05 Q-36.05 -1.25 -32.8 1.6 -27.8 5.9 -26.85 7.2 -26.1 8.3 -24.8 8.8 -23.55 9.25 -22.25 8.8 L-16.1 6.35 Q-15.05 5.85 -14.4 4.9 -13.75 3.9 -13.75 2.75 -13.65 -5.05 -11.7 -10.85 -11.5 -11.5 -12.05 -13.2 -12.6 -14.95 -13.1 -15.35 L-19.75 -16.25 -19.65 -16.7 -19.8 -18.1 -20.35 -20.1 -22.5 -23.4 -24.75 -26.5 Q-24.15 -29.05 -16.6 -35.7 L-16.6 -35.75 Q-12.55 -39.3 -8.85 -41.05 L-8.0 -41.45 Q-6.1 -39.4 -4.4 -36.25 L-4.4 -36.2 Q-1.15 -30.3 3.1 -30.5 5.8 -30.4 7.75 -30.55 M42.6 -13.8 L47.6 -18.1 Q54.4 -23.2 58.0 -23.5 58.3 -22.8 60.75 -19.35 L63.7 -14.75 62.3 -9.85 49.8 -1.8 42.6 -13.8 M79.15 -5.65 L86.2 -7.5 86.9 -5.35 88.6 -0.1 Q88.85 0.4 88.75 3.4 L88.5 6.65 78.2 6.05 Q78.55 5.7 75.25 1.4 75.3 -3.55 79.15 -5.65 M113.75 -1.95 L117.4 -2.7 122.5 -3.5 Q123.1 -3.5 121.2 -2.75 L114.15 -0.5 113.95 -1.15 113.75 -1.95 M100.4 2.55 L97.85 2.7 95.85 2.75 94.2 1.75 Q100.2 -0.2 100.35 0.0 L100.4 1.2 100.4 2.55 M53.35 9.0 L58.55 14.05 57.4 18.2 54.35 22.3 Q52.3 21.65 50.4 20.4 49.8 20.05 50.1 17.6 50.45 14.95 51.6 12.5 L53.35 9.0 M9.1 48.8 L10.75 47.1 13.95 51.0 17.1 55.0 Q16.9 55.9 17.55 60.1 L11.35 61.3 7.3 50.3 Q7.6 50.25 9.1 48.8 M6.1 89.15 L6.05 89.15 3.85 91.2 -0.5 86.7 -0.55 86.65 Q-3.9 83.0 -4.5 83.0 L-1.5 79.5 Q1.35 76.65 1.8 76.7 2.2 76.75 2.65 77.7 L4.55 81.25 6.55 85.25 6.55 87.15 Q6.4 88.7 6.1 89.15 M0.1 119.05 L0.0 121.2 -1.1 120.5 Q-1.95 119.85 -2.0 119.5 -1.7 119.4 -0.35 116.9 L0.4 117.3 0.1 119.05 M-1.75 -118.4 L-0.9 -117.85 0.0 -117.75 Q-0.05 -116.65 -0.55 -114.55 L-2.05 -114.65 Q-1.75 -115.25 -1.75 -118.4 M-102.85 -4.2 L-102.85 -4.25 -101.5 -5.4 Q-99.05 -0.2 -96.5 -1.25 L-88.5 -1.75 -88.6 1.75 Q-88.75 5.3 -88.95 5.4 -91.3 6.5 -96.35 6.5 -97.2 6.5 -97.7 5.85 L-100.1 0.35 Q-100.55 -0.6 -104.35 -3.05 L-102.85 -4.2 M-20.45 -50.0 L-19.6 -48.45 -19.9 -48.25 -20.0 -48.2 -20.75 -49.85 -20.45 -50.0 M-45.05 -38.0 Q-44.7 -37.55 -42.2 -30.7 -39.75 -23.8 -40.0 -23.6 L-42.55 -21.75 -48.2 -23.1 -48.85 -36.2 -47.45 -36.95 -45.05 -38.0 M-61.4 -14.55 L-59.7 -14.7 -59.0 -0.75 -62.5 2.3 -66.0 5.25 Q-66.05 5.1 -71.5 2.7 L-75.5 -1.45 -77.6 -3.4 Q-66.7 -10.55 -64.75 -13.3 L-63.55 -15.0 -61.4 -14.55 M-38.6 35.75 Q-38.3 36.1 -37.45 39.1 -36.5 42.55 -36.5 44.5 L-37.05 45.15 -37.5 45.65 -43.15 44.55 -44.3 36.45 -42.85 36.2 -38.6 35.75 M-27.9 -49.25 L-29.35 -47.25 -30.2 -45.55 -35.45 -47.15 -35.6 -47.25 Q-35.15 -48.5 -31.75 -54.0 -28.9 -50.15 -27.9 -49.25 M-4.2 56.45 Q-6.75 62.75 -8.25 65.35 L-11.75 64.4 Q-14.35 63.6 -14.9 63.6 L-14.9 63.55 Q-17.6 59.45 -19.85 54.85 L-19.8 54.85 -20.85 52.6 -17.95 50.7 -17.9 50.65 Q-12.95 47.65 -10.0 47.5 -10.05 48.25 -7.2 52.1 L-4.2 56.45 M-4.4 105.75 L-4.5 102.25 -3.8 102.05 Q-3.25 104.2 -3.25 106.85 L-3.5 109.2 Q-4.2 107.9 -4.4 105.75" fill="#ffffff" fill-rule="evenodd" stroke="none"/>
  </g>
</svg>
