<?xml version="1.0" encoding="UTF-8" standalone="no"?>
<svg xmlns:xlink="http://www.w3.org/1999/xlink" height="107.0px" width="73.0px" xmlns="http://www.w3.org/2000/svg">
  <g transform="matrix(1.0, 0.0, 0.0, 1.0, 36.5, 54.5)">
    <path d="M15.4 -27.8 L30.35 10.1 Q30.65 10.85 30.4 11.7 30.15 12.5 29.5 13.0 28.85 13.5 28.0 13.5 L27.6 13.5 Q32.3 30.85 36.45 48.45 L36.4 49.7 35.8 50.8 34.8 51.8 Q34.05 52.5 33.0 52.5 L-34.0 52.5 -34.9 52.35 -35.1 52.25 -35.35 52.1 -35.65 51.9 -35.95 51.6 -36.15 51.3 -36.4 50.6 -36.45 50.5 -36.45 50.35 -36.5 50.25 -36.45 49.4 Q-31.45 6.5 -18.55 -27.25 L-20.45 -38.6 -20.3 -40.0 -19.35 -41.1 Q-18.75 -41.5 -18.0 -41.5 L-13.25 -41.5 Q-15.9 -44.95 -18.15 -48.7 -18.55 -49.4 -18.5 -50.2 L-17.85 -51.65 Q-17.35 -52.25 -16.55 -52.45 L-7.55 -54.45 Q-6.55 -54.7 -5.65 -54.1 -4.8 -53.55 -4.55 -52.55 L-3.3 -47.15 -2.15 -49.2 Q-1.75 -50.0 -0.9 -50.3 L0.75 -50.35 Q4.4 -49.2 7.5 -47.0 8.1 -46.55 8.35 -45.8 8.6 -45.1 8.45 -44.35 L7.65 -43.1 5.75 -41.5 10.0 -41.5 Q10.85 -41.5 11.55 -40.95 12.2 -40.45 12.45 -39.6 L15.4 -27.8" fill="#000000" fill-rule="evenodd" stroke="none"/>
    <path d="M-34.0 50.0 Q-25.35 47.6 -17.0 44.0 -10.9 47.35 -4.0 50.0 L-34.0 50.0" fill="url(#gradient0)" fill-rule="evenodd" stroke="none"/>
    <path d="M-34.0 50.0 Q-29.0 6.8 -16.0 -27.0 -17.25 8.1 -17.0 44.0 -25.35 47.6 -34.0 50.0" fill="url(#gradient1)" fill-rule="evenodd" stroke="none"/>
    <path d="M-4.0 50.0 Q-10.9 47.35 -17.0 44.0 -17.25 8.1 -16.0 -27.0 -4.9 10.05 -4.0 50.0" fill="url(#gradient2)" fill-rule="evenodd" stroke="none"/>
    <path d="M13.0 -27.0 L-16.0 -27.0 -18.0 -39.0 10.0 -39.0 13.0 -27.0 M6.7 -33.7 Q6.4 -34.0 6.0 -34.0 L-10.0 -34.0 -10.7 -33.7 -11.0 -33.0 -10.7 -32.3 Q-10.4 -32.0 -10.0 -32.0 L6.0 -32.0 Q6.4 -32.0 6.7 -32.3 L7.0 -33.0 6.7 -33.7" fill="url(#gradient3)" fill-rule="evenodd" stroke="none"/>
    <path d="M-7.0 -39.0 L-2.05 -39.0 -1.05 -39.0 -0.5 -34.0 -7.45 -34.0 -8.0 -39.0 -7.0 -39.0" fill="#000000" fill-opacity="0.2" fill-rule="evenodd" stroke="none"/>
    <path d="M-7.55 -39.0 L-1.55 -39.0 -1.0 -34.0 -7.0 -34.0 -7.55 -39.0" fill="#cecbd8" fill-rule="evenodd" stroke="none"/>
    <path d="M6.0 -45.0 L-1.0 -39.0 -5.0 -39.0 0.0 -48.0 Q3.3 -46.95 6.0 -45.0" fill="url(#gradient4)" fill-rule="evenodd" stroke="none"/>
    <path d="M-7.0 -52.0 L-4.0 -39.0 -8.0 -39.0 Q-12.45 -44.05 -16.0 -50.0 L-7.0 -52.0" fill="url(#gradient5)" fill-rule="evenodd" stroke="none"/>
    <path d="M13.0 -27.0 Q24.95 10.4 34.0 49.0 L33.0 50.0 -4.0 50.0 Q-6.55 10.55 -16.0 -27.0 L13.0 -27.0" fill="url(#gradient6)" fill-rule="evenodd" stroke="none"/>
    <path d="M28.0 18.0 L-2.0 18.0 -16.0 -27.0 12.0 -25.0 28.0 18.0" fill="#000000" fill-opacity="0.2" fill-rule="evenodd" stroke="none"/>
    <path d="M-16.0 -27.0 L13.0 -27.0 28.0 11.0 -2.0 11.0 -16.0 -27.0" fill="url(#gradient7)" fill-rule="evenodd" stroke="none"/>
    <path d="M26.85 8.0 L-3.1 8.0 -5.3 2.0 24.45 2.0 26.85 8.0" fill="url(#gradient8)" fill-rule="evenodd" stroke="none"/>
    <path d="M26.8 7.95 L28.0 11.0 -2.0 11.0 -3.1 8.05 26.8 7.95 M-6.4 -0.95 L23.25 -1.05 24.45 2.0 -5.3 2.0 -6.4 -0.95" fill="url(#gradient9)" fill-rule="evenodd" stroke="none"/>
    <path d="M-3.1 8.05 L26.8 7.95" fill="none" stroke="#552222" stroke-linecap="round" stroke-linejoin="round" stroke-width="0.5"/>
    <path d="M23.3 -1.0 L-6.4 -1.0" fill="none" stroke="#000000" stroke-linecap="round" stroke-linejoin="round" stroke-width="0.5"/>
    <path d="M24.45 2.0 L-5.3 2.0" fill="none" stroke="#552222" stroke-linecap="round" stroke-linejoin="round" stroke-width="0.5"/>
    <path d="M-2.5 -11.6 Q-3.85 -11.0 -5.55 -12.2 -7.25 -13.25 -8.2 -15.55 -9.3 -17.85 -9.1 -19.75 -8.9 -21.8 -7.6 -22.45 -6.3 -23.0 -4.6 -21.85 -2.95 -20.7 -1.9 -18.45 -0.85 -16.2 -1.0 -14.2 -1.2 -12.2 -2.5 -11.6" fill="url(#gradient10)" fill-rule="evenodd" stroke="none"/>
    <path d="M-1.0 -14.2 Q-1.2 -12.2 -2.5 -11.6 -3.85 -11.0 -5.55 -12.2 -7.25 -13.25 -8.2 -15.55 -9.3 -17.85 -9.1 -19.75 -8.9 -21.8 -7.6 -22.45 -6.3 -23.0 -4.6 -21.85 -2.95 -20.7 -1.9 -18.45 -0.85 -16.2 -1.0 -14.2 Z" fill="none" stroke="url(#gradient11)" stroke-linecap="round" stroke-linejoin="round" stroke-width="0.25"/>
    <path d="M-2.05 -15.25 Q-2.15 -13.9 -3.0 -13.55 -3.95 -13.15 -5.1 -13.85 -6.2 -14.7 -6.9 -16.1 -7.6 -17.7 -7.5 -19.0 -7.4 -20.35 -6.45 -20.75 -5.6 -21.15 -4.45 -20.35 -3.25 -19.65 -2.6 -18.1 -1.9 -16.6 -2.05 -15.25 Z" fill="none" stroke="url(#gradient12)" stroke-linecap="round" stroke-linejoin="round" stroke-width="0.25"/>
  </g>
  <defs>
    <linearGradient gradientTransform="matrix(0.0105, -0.0113, 0.0027, 0.0025, -19.0, 47.0)" gradientUnits="userSpaceOnUse" id="gradient0" spreadMethod="pad" x1="-819.2" x2="819.2">
      <stop offset="0.011764705882352941" stop-color="#64437c"/>
      <stop offset="0.6" stop-color="#654884"/>
    </linearGradient>
    <linearGradient gradientTransform="matrix(0.0289, -0.015, 0.0216, 0.0417, -25.0, 11.5)" gradientUnits="userSpaceOnUse" id="gradient1" spreadMethod="pad" x1="-819.2" x2="819.2">
      <stop offset="0.0" stop-color="#523463"/>
      <stop offset="1.0" stop-color="#422d53"/>
    </linearGradient>
    <linearGradient gradientTransform="matrix(-0.017, 0.0061, -0.0157, -0.0442, -14.05, 13.8)" gradientUnits="userSpaceOnUse" id="gradient2" spreadMethod="pad" x1="-819.2" x2="819.2">
      <stop offset="0.0" stop-color="#23182e"/>
      <stop offset="1.0" stop-color="#372545"/>
    </linearGradient>
    <linearGradient gradientTransform="matrix(-0.0177, 0.0029, -0.0012, -0.0072, -2.5, -33.0)" gradientUnits="userSpaceOnUse" id="gradient3" spreadMethod="pad" x1="-819.2" x2="819.2">
      <stop offset="0.0" stop-color="#d00126"/>
      <stop offset="0.5725490196078431" stop-color="#a50114"/>
      <stop offset="0.9686274509803922" stop-color="#a0011e"/>
      <stop offset="1.0" stop-color="#d90228"/>
    </linearGradient>
    <linearGradient gradientTransform="matrix(-0.0037, 0.006, -0.0047, -0.0029, 1.4, -41.2)" gradientUnits="userSpaceOnUse" id="gradient4" spreadMethod="pad" x1="-819.2" x2="819.2">
      <stop offset="0.0" stop-color="#9e98b4"/>
      <stop offset="0.6862745098039216" stop-color="#d1cedb"/>
      <stop offset="1.0" stop-color="#ffffff"/>
    </linearGradient>
    <linearGradient gradientTransform="matrix(0.0023, 0.0085, -0.0076, 0.0021, -9.85, -44.0)" gradientUnits="userSpaceOnUse" id="gradient5" spreadMethod="pad" x1="-819.2" x2="819.2">
      <stop offset="0.0" stop-color="#a19bb6"/>
      <stop offset="0.5411764705882353" stop-color="#b2aec4"/>
      <stop offset="0.7843137254901961" stop-color="#e0dee7"/>
      <stop offset="0.9882352941176471" stop-color="#ccc9d8"/>
    </linearGradient>
    <linearGradient gradientTransform="matrix(-1.0E-4, -0.0483, 0.047, -1.0E-4, 9.0, 11.5)" gradientUnits="userSpaceOnUse" id="gradient6" spreadMethod="pad" x1="-819.2" x2="819.2">
      <stop offset="0.0" stop-color="#0d0003"/>
      <stop offset="0.0196078431372549" stop-color="#8b011a"/>
      <stop offset="0.043137254901960784" stop-color="#ab0505"/>
      <stop offset="0.30196078431372547" stop-color="#830303"/>
      <stop offset="1.0" stop-color="#610112"/>
    </linearGradient>
    <linearGradient gradientTransform="matrix(0.0143, -0.0222, 0.0195, 0.0125, 6.0, -8.0)" gradientUnits="userSpaceOnUse" id="gradient7" spreadMethod="pad" x1="-819.2" x2="819.2">
      <stop offset="0.07058823529411765" stop-color="#450707"/>
      <stop offset="0.7803921568627451" stop-color="#760a0a"/>
      <stop offset="1.0" stop-color="#8b1010"/>
    </linearGradient>
    <linearGradient gradientTransform="matrix(-0.0047, 0.0127, -0.0034, -0.0013, 11.0, 4.95)" gradientUnits="userSpaceOnUse" id="gradient8" spreadMethod="pad" x1="-819.2" x2="819.2">
      <stop offset="0.0" stop-color="#a94a49"/>
      <stop offset="0.984313725490196" stop-color="#8d3f3f"/>
    </linearGradient>
    <linearGradient gradientTransform="matrix(-0.009, 0.0121, -0.0015, -0.0011, 8.5, 3.0)" gradientUnits="userSpaceOnUse" id="gradient9" spreadMethod="pad" x1="-819.2" x2="819.2">
      <stop offset="0.0" stop-color="#c8955b"/>
      <stop offset="0.0" stop-color="#d39a4e"/>
      <stop offset="0.984313725490196" stop-color="#a36d38"/>
    </linearGradient>
    <linearGradient gradientTransform="matrix(-0.0022, -0.0083, 0.0068, -0.0018, -5.05, -17.0)" gradientUnits="userSpaceOnUse" id="gradient10" spreadMethod="pad" x1="-819.2" x2="819.2">
      <stop offset="0.0" stop-color="#857032"/>
      <stop offset="0.4" stop-color="#c0ae4d"/>
      <stop offset="0.7529411764705882" stop-color="#7c682e"/>
      <stop offset="1.0" stop-color="#625224"/>
    </linearGradient>
    <linearGradient gradientTransform="matrix(0.0047, -6.0E-4, 9.0E-4, 0.0071, -5.05, -17.0)" gradientUnits="userSpaceOnUse" id="gradient11" spreadMethod="pad" x1="-819.2" x2="819.2">
      <stop offset="0.16470588235294117" stop-color="#e4d8b6"/>
      <stop offset="0.47058823529411764" stop-color="#c2af58"/>
      <stop offset="0.8" stop-color="#77632b"/>
    </linearGradient>
    <linearGradient gradientTransform="matrix(-0.0027, -0.0048, 0.0042, -0.0024, -4.8, -17.05)" gradientUnits="userSpaceOnUse" id="gradient12" spreadMethod="pad" x1="-819.2" x2="819.2">
      <stop offset="0.16470588235294117" stop-color="#f3eba0"/>
      <stop offset="0.5254901960784314" stop-color="#c2af58"/>
      <stop offset="0.8" stop-color="#635323"/>
    </linearGradient>
  </defs>
</svg>
