<?xml version="1.0" encoding="UTF-8" standalone="no"?>
<svg xmlns:xlink="http://www.w3.org/1999/xlink" height="88.0px" width="13.9px" xmlns="http://www.w3.org/2000/svg">
  <g transform="matrix(1.0, 0.0, 0.0, 1.0, 6.95, 44.0)">
    <path d="M4.9 -31.1 Q6.95 -18.25 6.95 0.0 6.95 18.25 4.9 31.1 2.9 44.0 0.0 44.0 -2.9 44.0 -4.9 31.1 -6.95 18.25 -6.95 0.0 -6.95 -18.25 -4.9 -31.1 -2.9 -44.0 0.0 -44.0 2.9 -44.0 4.9 -31.1 M4.7 -27.8 Q3.1 -39.4 0.85 -39.4 -1.4 -39.4 -3.0 -27.8 -4.6 -16.3 -4.6 0.0 -4.6 16.3 -3.0 27.8 -1.4 39.4 0.85 39.4 3.1 39.4 4.7 27.8 6.35 16.3 6.35 0.0 6.35 -16.3 4.7 -27.8" fill="url(#gradient0)" fill-rule="evenodd" stroke="none"/>
    <path d="M2.85 -14.7 Q2.2 -20.75 1.25 -20.75 0.3 -20.75 -0.35 -14.7 -1.0 -8.6 -1.0 0.0 -1.0 8.6 -0.35 14.65 0.3 20.75 1.25 20.75 2.2 20.75 2.85 14.65 3.5 8.6 3.5 0.0 3.5 -8.6 2.85 -14.7 M4.7 -27.8 Q6.35 -16.3 6.35 0.0 6.35 16.3 4.7 27.8 3.1 39.4 0.85 39.4 -1.4 39.4 -3.0 27.8 -4.6 16.3 -4.6 0.0 -4.6 -16.3 -3.0 -27.8 -1.4 -39.4 0.85 -39.4 3.1 -39.4 4.7 -27.8" fill="url(#gradient1)" fill-rule="evenodd" stroke="none"/>
  </g>
  <defs>
    <radialGradient cx="0" cy="0" fx="-1232.0" fy="0" gradientTransform="matrix(0.0339, 0.0, 0.0, 0.2014, 0.0, 0.0)" gradientUnits="userSpaceOnUse" id="gradient0" r="819.2" spreadMethod="pad">
      <stop offset="0.6588235294117647" stop-color="#f02424"/>
      <stop offset="0.7254901960784313" stop-color="#bd1e1e"/>
      <stop offset="0.8235294117647058" stop-color="#781414"/>
    </radialGradient>
    <radialGradient cx="0" cy="0" fx="-1232.0" fy="0" gradientTransform="matrix(1.0, 0.0, 0.0, 1.0, 0.0, 0.0)" gradientUnits="userSpaceOnUse" id="gradient1" r="819.2" spreadMethod="pad">
      <stop offset="0.6588235294117647" stop-color="#f02424"/>
      <stop offset="0.7254901960784313" stop-color="#bd1e1e"/>
      <stop offset="0.8235294117647058" stop-color="#781414"/>
    </radialGradient>
  </defs>
</svg>
