<?xml version="1.0" encoding="UTF-8" standalone="no"?>
<svg xmlns:xlink="http://www.w3.org/1999/xlink" height="10.0px" width="288.0px" xmlns="http://www.w3.org/2000/svg">
  <g transform="matrix(1.0, 0.0, 0.0, 1.0, 4.0, 5.0)">
    <path d="M276.55 -2.85 Q283.0 -1.65 283.0 0.0 283.0 1.65 276.55 2.8 270.1 4.0 261.0 4.0 L260.0 4.0 -3.0 4.0 -3.0 -4.0 260.0 -4.0 261.0 -4.0 276.55 -2.85" fill="url(#gradient0)" fill-rule="evenodd" stroke="none"/>
    <path d="M276.55 -2.85 Q283.0 -1.65 283.0 0.0 283.0 1.65 276.55 2.8 270.1 4.0 261.0 4.0 L260.0 4.0 -3.0 4.0 -3.0 -4.0 260.0 -4.0 261.0 -4.0 276.55 -2.85 Z" fill="none" stroke="#000000" stroke-linecap="round" stroke-linejoin="round" stroke-width="2.0"/>
  </g>
  <defs>
    <linearGradient gradientTransform="matrix(0.0, -0.0061, 0.0049, 0.0, 140.0, 0.0)" gradientUnits="userSpaceOnUse" id="gradient0" spreadMethod="pad" x1="-819.2" x2="819.2">
      <stop offset="0.25882352941176473" stop-color="#434343"/>
      <stop offset="0.403921568627451" stop-color="#6a6a6a"/>
      <stop offset="0.5882352941176471" stop-color="#868686"/>
      <stop offset="0.7686274509803922" stop-color="#585858"/>
      <stop offset="0.9529411764705882" stop-color="#313131"/>
    </linearGradient>
  </defs>
</svg>
