<?xml version="1.0" encoding="UTF-8" standalone="no"?>
<svg xmlns:xlink="http://www.w3.org/1999/xlink" height="176.2px" width="553.7px" xmlns="http://www.w3.org/2000/svg">
  <g transform="matrix(1.0, 0.0, 0.0, 1.0, 275.85, 82.35)">
    <path d="M53.75 -57.5 L74.0 -61.75 66.5 -55.75 46.75 -51.5 45.75 -51.75 53.75 -57.5 M79.0 -58.25 L78.25 -58.5 91.0 -65.25 111.25 -69.25 99.25 -62.25 79.0 -58.25 M16.25 -48.75 L36.5 -53.5 33.5 -48.5 12.75 -43.5 Q11.75 -45.0 16.25 -48.75 M0.0 -40.25 L-20.5 -34.75 -21.25 -34.75 -21.75 -38.75 -2.25 -44.0 Q-1.0 -44.75 0.0 -41.25 L0.0 -40.25 M130.0 -67.0 L111.5 -64.0 110.25 -64.25 128.25 -72.25 147.0 -75.0 130.0 -67.0 M140.25 -68.5 L162.25 -77.0 181.0 -79.25 158.0 -70.0 142.0 -68.25 140.25 -68.5 M228.25 -59.25 L277.5 -69.0 277.25 -63.0 227.75 -53.25 226.5 -53.25 228.25 -59.25 M223.75 -66.25 L267.5 -76.5 Q268.75 -77.75 274.5 -73.25 L228.25 -62.0 227.5 -62.0 Q223.25 -65.25 223.75 -66.25 M210.5 -70.25 L248.75 -80.5 251.0 -80.75 261.0 -79.0 220.0 -67.75 210.5 -70.25 M239.75 -81.75 L205.0 -71.0 191.25 -71.75 225.25 -82.0 239.75 -81.75 M194.5 -80.25 L212.75 -81.75 184.25 -71.75 168.75 -70.75 167.25 -71.0 194.5 -80.25 M191.75 -26.5 L190.75 -26.75 207.0 -36.25 257.0 -41.5 241.5 -31.5 191.75 -26.5 M164.0 -9.5 L154.75 -9.75 178.5 -20.5 223.5 -22.0 199.25 -10.25 164.0 -9.5 M214.75 -41.5 L223.0 -49.0 274.5 -57.25 267.25 -49.25 215.25 -41.25 214.75 -41.5 M173.25 0.75 L141.25 13.0 106.75 9.0 137.5 -2.75 173.0 0.25 173.25 0.75 M109.0 24.0 L70.5 36.75 51.0 27.0 86.5 15.75 109.0 24.0 M34.75 47.25 L-6.25 58.25 Q-8.5 57.0 -9.25 43.75 L29.25 33.5 34.75 47.25 M-131.75 -4.25 L-113.75 -10.5 -97.5 -11.25 -115.25 -4.75 -126.25 -4.0 -131.75 -4.25 M-96.0 -16.5 L-78.0 -22.25 -65.75 -21.75 -85.75 -15.0 -96.0 -16.5 M-59.25 -28.0 L-39.75 -33.75 -33.0 -31.5 -53.5 -25.25 -59.25 -28.0 M-42.5 66.75 L-82.75 75.75 -83.25 75.5 -68.75 57.5 -31.25 49.25 -42.5 66.75 M-122.5 67.0 L-89.0 61.25 -115.5 81.75 -149.5 87.25 -150.75 87.0 -122.5 67.0 M-194.25 29.5 L-225.0 35.75 -225.75 35.5 -212.25 28.75 -181.25 22.5 -194.25 29.5 M-197.0 22.25 L-181.5 15.0 -156.0 11.0 -171.25 18.0 -197.0 22.25 M-165.5 8.5 L-148.75 2.0 -128.0 -0.25 -144.5 6.5 -163.5 8.75 -165.5 8.5 M-204.75 92.25 L-166.75 72.0 -139.75 69.25 -178.0 90.75 -205.0 93.0 -205.5 92.75 -204.75 92.25 M-207.5 71.75 L-256.5 91.0 -267.0 87.5 -220.0 69.5 -207.5 71.75 M-223.5 67.25 L-271.75 84.0 -273.0 84.0 -275.5 79.0 -229.0 63.25 Q-227.75 62.25 -223.5 67.25 M-228.75 60.25 L-274.5 74.25 Q-275.5 73.0 -271.75 68.0 L-227.25 54.75 -228.75 60.25 M-179.5 72.5 L-225.25 93.5 -244.25 92.5 -199.5 72.75 -179.5 72.5 M-224.75 51.25 L-265.5 62.25 Q-266.0 60.5 -259.0 55.75 L-218.25 44.75 -224.75 51.25 M-212.5 40.75 L-248.5 49.25 -249.25 49.0 -237.75 42.0 -202.5 34.0 -212.5 40.75" fill="url(#gradient0)" fill-rule="evenodd" stroke="none"/>
    <path d="M194.5 -80.25 L212.75 -81.75 184.25 -71.75 168.75 -70.75 167.25 -71.0 194.5 -80.25 M191.25 -71.75 L225.25 -82.0 239.75 -81.75 205.0 -71.0 191.25 -71.75 M228.25 -59.25 L277.5 -69.0 277.25 -63.0 227.75 -53.25 226.5 -53.25 228.25 -59.25 M223.75 -66.25 L267.5 -76.5 Q268.75 -77.75 274.5 -73.25 L228.25 -62.0 227.5 -62.0 Q223.25 -65.25 223.75 -66.25 M210.5 -70.25 L248.75 -80.5 251.0 -80.75 261.0 -79.0 220.0 -67.75 210.5 -70.25 M267.25 -49.25 L215.25 -41.25 214.75 -41.5 223.0 -49.0 274.5 -57.25 267.25 -49.25 M16.25 -48.75 L36.5 -53.5 33.5 -48.5 12.75 -43.5 Q11.75 -45.0 16.25 -48.75 M53.75 -57.5 L74.0 -61.75 66.5 -55.75 46.75 -51.5 45.75 -51.75 53.75 -57.5 M79.0 -58.25 L99.25 -62.25 111.25 -69.25 91.0 -65.25 78.25 -58.5 79.0 -58.25 M110.25 -64.25 L128.25 -72.25 147.0 -75.0 130.0 -67.0 111.5 -64.0 110.25 -64.25 M162.25 -77.0 L181.0 -79.25 158.0 -70.0 142.0 -68.25 140.25 -68.5 162.25 -77.0 M154.75 -9.75 L178.5 -20.5 223.5 -22.0 199.25 -10.25 164.0 -9.5 154.75 -9.75 M109.0 24.0 L70.5 36.75 51.0 27.0 86.5 15.75 109.0 24.0 M137.5 -2.75 L173.0 0.25 173.25 0.75 141.25 13.0 106.75 9.0 137.5 -2.75 M34.75 47.25 L-6.25 58.25 Q-8.5 57.0 -9.25 43.75 L29.25 33.5 34.75 47.25 M191.75 -26.5 L241.5 -31.5 257.0 -41.5 207.0 -36.25 190.75 -26.75 191.75 -26.5 M-224.75 51.25 L-265.5 62.25 Q-266.0 60.5 -259.0 55.75 L-218.25 44.75 -224.75 51.25 M-212.5 40.75 L-248.5 49.25 -249.25 49.0 -237.75 42.0 -202.5 34.0 -212.5 40.75 M-212.25 28.75 L-181.25 22.5 -194.25 29.5 -225.0 35.75 -225.75 35.5 -212.25 28.75 M-197.0 22.25 L-181.5 15.0 -156.0 11.0 -171.25 18.0 -197.0 22.25 M-165.5 8.5 L-148.75 2.0 -128.0 -0.25 -144.5 6.5 -163.5 8.75 -165.5 8.5 M-267.0 87.5 L-220.0 69.5 -207.5 71.75 -256.5 91.0 -267.0 87.5 M-275.5 79.0 L-229.0 63.25 Q-227.75 62.25 -223.5 67.25 L-271.75 84.0 -273.0 84.0 -275.5 79.0 M-271.75 68.0 L-227.25 54.75 -228.75 60.25 -274.5 74.25 Q-275.5 73.0 -271.75 68.0 M-204.75 92.25 L-166.75 72.0 -139.75 69.25 -178.0 90.75 -205.0 93.0 -205.5 92.75 -204.75 92.25 M-225.25 93.5 L-244.25 92.5 -199.5 72.75 -179.5 72.5 -225.25 93.5 M-20.5 -34.75 L-21.25 -34.75 -21.75 -38.75 -2.25 -44.0 Q-1.0 -44.75 0.0 -41.25 L0.0 -40.25 -20.5 -34.75 M-39.75 -33.75 L-33.0 -31.5 -53.5 -25.25 -59.25 -28.0 -39.75 -33.75 M-115.25 -4.75 L-126.25 -4.0 -131.75 -4.25 -113.75 -10.5 -97.5 -11.25 -115.25 -4.75 M-78.0 -22.25 L-65.75 -21.75 -85.75 -15.0 -96.0 -16.5 -78.0 -22.25 M-115.5 81.75 L-149.5 87.25 -150.75 87.0 -122.5 67.0 -89.0 61.25 -115.5 81.75 M-83.25 75.5 L-68.75 57.5 -31.25 49.25 -42.5 66.75 -82.75 75.75 -83.25 75.5" fill="none" stroke="#000000" stroke-linecap="round" stroke-linejoin="round" stroke-width="0.7000000000000001"/>
  </g>
  <defs>
    <linearGradient gradientTransform="matrix(0.0195, 0.0728, -0.0146, 0.0039, 81.1, -20.3)" gradientUnits="userSpaceOnUse" id="gradient0" spreadMethod="pad" x1="-819.2" x2="819.2">
      <stop offset="0.0" stop-color="#94b6c0"/>
      <stop offset="1.0" stop-color="#ffffff"/>
    </linearGradient>
  </defs>
</svg>
