<?xml version="1.0" encoding="UTF-8" standalone="no"?>
<svg xmlns:xlink="http://www.w3.org/1999/xlink" height="176.2px" width="554.2px" xmlns="http://www.w3.org/2000/svg">
  <g transform="matrix(1.0, 0.0, 0.0, 1.0, 275.85, 82.35)">
    <path d="M57.0 -53.75 L56.75 -54.25 66.25 -60.25 86.75 -64.5 77.75 -58.25 57.0 -53.75 M44.75 -51.25 L24.0 -46.25 Q23.25 -48.0 28.75 -51.75 L49.0 -56.5 44.75 -51.25 M11.25 -43.25 L-9.5 -37.75 Q-10.75 -38.25 -9.25 -42.0 L11.5 -47.25 11.25 -43.25 M149.5 -69.5 L173.25 -78.25 191.75 -80.25 167.0 -70.75 151.0 -69.25 149.5 -69.5 M158.75 -76.75 L139.75 -68.25 121.25 -65.5 120.25 -65.75 139.75 -74.0 158.75 -76.75 M103.0 -67.5 L123.0 -71.25 109.75 -64.0 89.5 -60.25 103.0 -67.5 M140.0 -3.75 L166.0 -14.75 208.0 -14.75 181.75 -2.75 141.25 -3.5 140.0 -3.75 M222.25 -82.0 L191.75 -71.75 180.75 -71.25 175.75 -71.5 205.75 -81.25 222.25 -82.0 M215.75 -69.25 L255.75 -79.5 Q257.0 -80.75 266.75 -77.5 L224.0 -66.25 215.75 -69.25 M228.25 -59.5 L226.25 -64.25 272.0 -74.5 Q273.25 -75.25 277.0 -70.25 L229.5 -59.5 228.25 -59.5 M180.0 -21.25 L199.0 -31.25 247.75 -35.5 229.25 -24.75 181.0 -21.0 180.0 -21.25 M219.25 -45.25 L270.25 -52.5 260.5 -43.75 209.75 -36.75 208.25 -37.0 219.25 -45.25 M198.25 -71.5 L233.75 -81.75 247.75 -81.25 210.75 -70.25 198.25 -71.5 M227.75 -56.25 L278.0 -65.5 275.75 -59.0 224.25 -49.5 Q223.5 -50.75 227.75 -56.25 M153.5 8.25 L119.0 21.0 89.0 15.0 122.0 3.25 153.5 8.25 M44.25 44.25 L31.0 33.25 31.25 32.75 68.0 21.75 85.0 32.0 45.25 44.25 44.25 44.25 M8.75 54.25 L-32.75 64.75 -29.5 48.75 9.25 39.0 8.75 54.25 M-119.75 -8.5 Q-98.5 -18.0 -87.25 -14.75 L-106.25 -8.0 -119.75 -8.5 M-118.0 -4.0 L-135.0 2.75 -153.0 4.5 -154.5 4.25 -137.25 -2.25 -118.0 -4.0 M-43.75 -28.75 L-46.75 -31.75 -27.25 -37.25 -22.25 -34.75 -42.5 -28.5 -43.75 -28.75 M-55.0 -25.0 L-75.0 -18.5 -83.5 -20.5 -64.25 -26.5 -55.0 -25.0 M-68.25 72.75 L-106.25 80.25 -107.0 80.0 -87.25 61.0 -51.0 53.75 -68.25 72.75 M-106.75 64.5 L-137.75 85.5 -168.75 89.75 -170.5 89.5 -138.5 69.25 -106.75 64.5 M-202.0 24.0 L-173.25 18.75 -187.75 26.0 -216.25 31.25 -202.0 24.0 M-170.5 10.5 L-147.0 7.25 -163.0 14.25 -186.75 17.75 -170.5 10.5 M-241.0 44.75 L-242.0 44.5 -229.5 37.5 -195.5 30.0 -207.5 37.25 -241.0 44.75 M-221.25 47.75 L-260.75 58.0 Q-261.0 56.25 -252.25 51.0 L-213.5 41.25 -221.25 47.75 M-228.5 57.5 L-273.0 70.5 -268.5 64.0 -225.0 51.5 -228.5 57.5 M-226.5 65.0 L-274.0 81.0 -275.0 81.0 -275.5 75.5 -231.0 61.0 Q-228.25 58.5 -226.5 65.0 M-214.0 70.5 L-263.0 89.0 -264.25 89.0 -271.25 85.0 -225.0 68.0 Q-223.5 66.25 -214.0 70.5 M-220.25 93.25 L-178.5 72.5 -153.75 70.75 -194.75 92.0 -218.75 93.5 -220.25 93.25 M-190.5 72.75 L-237.5 93.25 -253.25 91.25 -207.5 72.0 -190.5 72.75" fill="url(#gradient0)" fill-rule="evenodd" stroke="none"/>
    <path d="M167.0 -70.75 L151.0 -69.25 149.5 -69.5 173.25 -78.25 191.75 -80.25 167.0 -70.75 M205.75 -81.25 L222.25 -82.0 191.75 -71.75 180.75 -71.25 175.75 -71.5 205.75 -81.25 M227.75 -56.25 L278.0 -65.5 275.75 -59.0 224.25 -49.5 Q223.5 -50.75 227.75 -56.25 M226.25 -64.25 L272.0 -74.5 Q273.25 -75.25 277.0 -70.25 L229.5 -59.5 228.25 -59.5 226.25 -64.25 M215.75 -69.25 L255.75 -79.5 Q257.0 -80.75 266.75 -77.5 L224.0 -66.25 215.75 -69.25 M233.75 -81.75 L247.75 -81.25 210.75 -70.25 198.25 -71.5 233.75 -81.75 M260.5 -43.75 L209.75 -36.75 208.25 -37.0 219.25 -45.25 270.25 -52.5 260.5 -43.75 M11.25 -43.25 L-9.5 -37.75 Q-10.75 -38.25 -9.25 -42.0 L11.5 -47.25 11.25 -43.25 M28.75 -51.75 L49.0 -56.5 44.75 -51.25 24.0 -46.25 Q23.25 -48.0 28.75 -51.75 M66.25 -60.25 L86.75 -64.5 77.75 -58.25 57.0 -53.75 56.75 -54.25 66.25 -60.25 M89.5 -60.25 L103.0 -67.5 123.0 -71.25 109.75 -64.0 89.5 -60.25 M120.25 -65.75 L139.75 -74.0 158.75 -76.75 139.75 -68.25 121.25 -65.5 120.25 -65.75 M140.0 -3.75 L166.0 -14.75 208.0 -14.75 181.75 -2.75 141.25 -3.5 140.0 -3.75 M89.0 15.0 L122.0 3.25 153.5 8.25 119.0 21.0 89.0 15.0 M8.75 54.25 L-32.75 64.75 -29.5 48.75 9.25 39.0 8.75 54.25 M31.25 32.75 L68.0 21.75 85.0 32.0 45.25 44.25 44.25 44.25 31.0 33.25 31.25 32.75 M199.0 -31.25 L247.75 -35.5 229.25 -24.75 181.0 -21.0 180.0 -21.25 199.0 -31.25 M-221.25 47.75 L-260.75 58.0 Q-261.0 56.25 -252.25 51.0 L-213.5 41.25 -221.25 47.75 M-216.25 31.25 L-187.75 26.0 -173.25 18.75 -202.0 24.0 -216.25 31.25 M-186.75 17.75 L-170.5 10.5 -147.0 7.25 -163.0 14.25 -186.75 17.75 M-207.5 37.25 L-241.0 44.75 -242.0 44.5 -229.5 37.5 -195.5 30.0 -207.5 37.25 M-271.25 85.0 L-225.0 68.0 Q-223.5 66.25 -214.0 70.5 L-263.0 89.0 -264.25 89.0 -271.25 85.0 M-275.5 75.5 L-231.0 61.0 Q-228.25 58.5 -226.5 65.0 L-274.0 81.0 -275.0 81.0 -275.5 75.5 M-268.5 64.0 L-225.0 51.5 -228.5 57.5 -273.0 70.5 -268.5 64.0 M-170.5 89.5 L-138.5 69.25 -106.75 64.5 -137.75 85.5 -168.75 89.75 -170.5 89.5 M-220.25 93.25 L-178.5 72.5 -153.75 70.75 -194.75 92.0 -218.75 93.5 -220.25 93.25 M-237.5 93.25 L-253.25 91.25 -207.5 72.0 -190.5 72.75 -237.5 93.25 M-22.25 -34.75 L-42.5 -28.5 -43.75 -28.75 -46.75 -31.75 -27.25 -37.25 -22.25 -34.75 M-75.0 -18.5 L-83.5 -20.5 -64.25 -26.5 -55.0 -25.0 -75.0 -18.5 M-106.25 -8.0 L-119.75 -8.5 Q-98.5 -18.0 -87.25 -14.75 L-106.25 -8.0 M-137.25 -2.25 L-118.0 -4.0 -135.0 2.75 -153.0 4.5 -154.5 4.25 -137.25 -2.25 M-87.25 61.0 L-51.0 53.75 -68.25 72.75 -106.25 80.25 -107.0 80.0 -87.25 61.0" fill="none" stroke="#000000" stroke-linecap="round" stroke-linejoin="round" stroke-width="0.7000000000000001"/>
  </g>
  <defs>
    <linearGradient gradientTransform="matrix(0.0195, 0.0728, -0.0146, 0.0039, 81.1, -20.3)" gradientUnits="userSpaceOnUse" id="gradient0" spreadMethod="pad" x1="-819.2" x2="819.2">
      <stop offset="0.0" stop-color="#94b6c0"/>
      <stop offset="1.0" stop-color="#ffffff"/>
    </linearGradient>
  </defs>
</svg>
