<?xml version="1.0" encoding="UTF-8" standalone="no"?>
<svg xmlns:xlink="http://www.w3.org/1999/xlink" height="144.95px" width="527.25px" xmlns="http://www.w3.org/2000/svg">
  <g transform="matrix(1.0, 0.0, 0.0, 1.0, 265.9, 82.35)">
    <path d="M66.5 -55.75 L46.75 -51.5 45.75 -51.75 53.75 -57.5 74.0 -61.75 66.5 -55.75 M79.0 -58.25 L78.25 -58.5 91.0 -65.25 111.25 -69.25 99.25 -62.25 79.0 -58.25 M16.25 -48.75 L36.5 -53.5 33.5 -48.5 12.75 -43.5 Q11.75 -45.0 16.25 -48.75 M0.0 -40.25 L-20.5 -34.75 -21.25 -34.75 -21.75 -38.75 -2.25 -44.0 Q-1.0 -44.75 0.0 -41.25 L0.0 -40.25 M130.0 -67.0 L111.5 -64.0 110.25 -64.25 128.25 -72.25 147.0 -75.0 130.0 -67.0 M140.25 -68.5 L162.25 -77.0 181.0 -79.25 158.0 -70.0 142.0 -68.25 140.25 -68.5 M210.5 -70.25 L248.75 -80.5 251.0 -80.75 261.0 -79.0 220.0 -67.75 210.5 -70.25 M239.75 -81.75 L205.0 -71.0 191.25 -71.75 225.25 -82.0 239.75 -81.75 M167.25 -71.0 L194.5 -80.25 212.75 -81.75 184.25 -71.75 168.75 -70.75 167.25 -71.0 M-131.75 -4.25 L-113.75 -10.5 -97.5 -11.25 -115.25 -4.75 -126.25 -4.0 -131.75 -4.25 M-96.0 -16.5 L-78.0 -22.25 -65.75 -21.75 -85.75 -15.0 -96.0 -16.5 M-59.25 -28.0 L-39.75 -33.75 -33.0 -31.5 -53.5 -25.25 -59.25 -28.0 M-194.25 29.5 L-225.0 35.75 -225.75 35.5 -212.25 28.75 -181.25 22.5 -194.25 29.5 M-197.0 22.25 L-181.5 15.0 -156.0 11.0 -171.25 18.0 -197.0 22.25 M-165.5 8.5 L-148.75 2.0 -128.0 -0.25 -144.5 6.5 -163.5 8.75 -165.5 8.5 M-224.75 51.25 L-265.5 62.25 Q-266.0 60.5 -259.0 55.75 L-218.25 44.75 -224.75 51.25 M-212.5 40.75 L-248.5 49.25 -249.25 49.0 -237.75 42.0 -202.5 34.0 -212.5 40.75" fill="url(#gradient0)" fill-rule="evenodd" stroke="none"/>
    <path d="M66.5 -55.75 L46.75 -51.5 45.75 -51.75 53.75 -57.5 74.0 -61.75 66.5 -55.75 M79.0 -58.25 L99.25 -62.25 111.25 -69.25 91.0 -65.25 78.25 -58.5 79.0 -58.25 M16.25 -48.75 L36.5 -53.5 33.5 -48.5 12.75 -43.5 Q11.75 -45.0 16.25 -48.75 M0.0 -40.25 L-20.5 -34.75 -21.25 -34.75 -21.75 -38.75 -2.25 -44.0 Q-1.0 -44.75 0.0 -41.25 L0.0 -40.25 M140.25 -68.5 L162.25 -77.0 181.0 -79.25 158.0 -70.0 142.0 -68.25 140.25 -68.5 M130.0 -67.0 L111.5 -64.0 110.25 -64.25 128.25 -72.25 147.0 -75.0 130.0 -67.0 M210.5 -70.25 L248.75 -80.5 251.0 -80.75 261.0 -79.0 220.0 -67.75 210.5 -70.25 M239.75 -81.75 L205.0 -71.0 191.25 -71.75 225.25 -82.0 239.75 -81.75 M167.25 -71.0 L194.5 -80.25 212.75 -81.75 184.25 -71.75 168.75 -70.75 167.25 -71.0 M-131.75 -4.25 L-113.75 -10.5 -97.5 -11.25 -115.25 -4.75 -126.25 -4.0 -131.75 -4.25 M-96.0 -16.5 L-78.0 -22.25 -65.75 -21.75 -85.75 -15.0 -96.0 -16.5 M-59.25 -28.0 L-39.75 -33.75 -33.0 -31.5 -53.5 -25.25 -59.25 -28.0 M-197.0 22.25 L-181.5 15.0 -156.0 11.0 -171.25 18.0 -197.0 22.25 M-165.5 8.5 L-148.75 2.0 -128.0 -0.25 -144.5 6.5 -163.5 8.75 -165.5 8.5 M-194.25 29.5 L-225.0 35.75 -225.75 35.5 -212.25 28.75 -181.25 22.5 -194.25 29.5 M-224.75 51.25 L-265.5 62.25 Q-266.0 60.5 -259.0 55.75 L-218.25 44.75 -224.75 51.25 M-212.5 40.75 L-248.5 49.25 -249.25 49.0 -237.75 42.0 -202.5 34.0 -212.5 40.75" fill="none" stroke="#000000" stroke-linecap="round" stroke-linejoin="round" stroke-width="0.7000000000000001"/>
  </g>
  <defs>
    <linearGradient gradientTransform="matrix(0.0195, 0.0728, -0.0146, 0.0039, 81.1, -20.3)" gradientUnits="userSpaceOnUse" id="gradient0" spreadMethod="pad" x1="-819.2" x2="819.2">
      <stop offset="0.0" stop-color="#94b6c0"/>
      <stop offset="1.0" stop-color="#ffffff"/>
    </linearGradient>
  </defs>
</svg>
