<?xml version="1.0" encoding="UTF-8" standalone="no"?>
<svg xmlns:xlink="http://www.w3.org/1999/xlink" height="7.1px" width="4.3px" xmlns="http://www.w3.org/2000/svg">
  <g transform="matrix(1.0, 0.0, 0.0, 1.0, 2.1, 6.6)">
    <path d="M0.5 -3.75 L-0.4 -3.55 Q-0.8 -3.55 -1.2 -3.8 -1.6 -4.15 -1.6 -4.55 L-1.1 -5.45 Q-0.55 -6.1 -0.2 -6.1 1.0 -6.1 1.0 -4.75 L0.75 -4.1 0.5 -3.75" fill="#000000" fill-rule="evenodd" stroke="none"/>
    <path d="M0.5 -3.75 L-0.4 -3.55 Q-0.8 -3.55 -1.2 -3.8 -1.6 -4.15 -1.6 -4.55 L-1.1 -5.45 Q-0.55 -6.1 -0.2 -6.1 1.0 -6.1 1.0 -4.75 L0.75 -4.1 0.5 -3.75 M1.25 -0.6 L1.7 -0.45 1.7 0.0 1.05 0.0 0.95 -0.6 1.25 -0.6" fill="none" stroke="#000000" stroke-linecap="round" stroke-linejoin="round" stroke-width="1.0"/>
  </g>
</svg>
