<?xml version="1.0" encoding="UTF-8" standalone="no"?>
<svg xmlns:xlink="http://www.w3.org/1999/xlink" height="174.0px" width="25.0px" xmlns="http://www.w3.org/2000/svg">
  <g transform="matrix(1.0, 0.0, 0.0, 1.0, 12.5, 86.5)">
    <path d="M3.15 -85.25 Q6.65 -79.4 6.5 -77.0 6.5 -65.9 7.7 -62.0 8.55 -59.6 11.65 -56.85 12.25 -56.35 12.45 -55.55 12.6 -54.8 12.3 -54.0 12.0 -53.3 11.3 -52.85 L9.25 -51.2 Q8.6 -49.4 8.55 -44.05 10.05 -43.7 9.55 -38.7 L9.2 -37.7 8.45 -36.9 5.45 -34.9 5.35 -34.85 5.5 -34.0 5.5 -32.0 5.3 -31.0 5.4 -30.8 Q5.6 -30.15 5.45 -29.5 L5.3 -28.65 5.25 -28.5 5.25 -28.45 Q4.75 -26.0 4.6 -22.95 L4.8 -22.75 Q5.5 -22.05 5.5 -21.0 L5.5 -20.0 Q5.5 -18.95 4.8 -18.2 L4.5 -17.95 4.5 55.0 5.3 56.0 Q5.6 56.65 5.5 57.35 5.25 59.0 4.5 60.05 4.55 64.2 5.15 65.85 5.4 66.35 6.05 66.7 L6.8 67.25 Q7.4 67.85 7.5 68.65 L7.5 68.95 7.5 69.0 7.5 69.35 Q7.4 70.1 6.9 70.7 7.15 70.75 7.4 70.95 8.0 71.35 8.3 72.05 8.6 72.75 8.45 73.5 7.75 77.25 6.25 80.55 4.4 84.5 1.85 86.75 L1.2 87.2 0.7 87.4 0.15 87.5 -0.1 87.5 -0.65 87.45 -1.15 87.25 -1.8 86.75 Q-4.4 84.5 -6.2 80.55 -7.75 77.25 -8.45 73.5 -8.6 72.75 -8.3 72.05 -8.0 71.35 -7.35 70.95 L-6.85 70.7 Q-7.4 70.1 -7.45 69.35 L-7.5 69.05 -7.5 68.95 -7.45 68.65 Q-7.35 67.85 -6.75 67.25 -6.45 66.9 -6.0 66.7 L-5.1 65.85 Q-4.55 64.2 -4.5 60.05 -5.25 59.0 -5.45 57.35 -5.6 56.65 -5.25 56.0 L-4.5 55.0 -4.5 -17.95 -4.75 -18.2 Q-5.5 -18.95 -5.5 -20.0 L-5.5 -21.0 Q-5.5 -22.05 -4.75 -22.75 L-4.55 -22.95 Q-4.7 -25.9 -5.15 -28.25 L-5.45 -29.5 Q-5.6 -30.15 -5.35 -30.8 L-5.3 -31.0 -5.5 -32.0 -5.5 -34.0 -5.35 -34.9 -8.35 -36.9 -9.1 -37.7 -9.45 -38.7 Q-10.0 -43.6 -8.5 -44.05 -8.6 -49.4 -9.2 -51.2 -9.65 -51.85 -11.3 -52.85 -12.0 -53.3 -12.3 -54.0 -12.6 -54.8 -12.4 -55.55 L-11.65 -56.85 Q-8.55 -59.6 -7.65 -62.0 -6.5 -65.9 -6.5 -77.0 -6.65 -79.4 -3.15 -85.25 L-1.9 -86.3 -0.3 -86.4 0.0 -86.25 0.35 -86.4 1.95 -86.3 3.15 -85.25" fill="#000000" fill-rule="evenodd" stroke="none"/>
    <path d="M3.0 57.0 Q2.8 58.4 2.0 59.0 L0.0 59.0 -2.0 59.0 Q-2.8 58.4 -3.0 57.0 L3.0 57.0" fill="url(#gradient0)" fill-rule="evenodd" stroke="none"/>
    <path d="M0.0 59.0 L2.0 59.0 Q2.0 64.65 2.8 66.75 3.35 68.15 5.0 69.0 L0.0 69.0 -5.0 69.0 Q-3.35 68.15 -2.8 66.75 -2.0 64.65 -2.0 59.0 L0.0 59.0" fill="url(#gradient1)" fill-rule="evenodd" stroke="none"/>
    <path d="M3.0 71.0 L-3.0 71.0 -5.0 69.0 5.0 69.0 3.0 71.0" fill="url(#gradient2)" fill-rule="evenodd" stroke="none"/>
    <path d="M0.0 73.0 L-3.0 74.0 -4.0 73.0 -3.0 71.0 3.0 71.0 4.0 73.0 3.0 74.0 0.0 73.0" fill="url(#gradient3)" fill-rule="evenodd" stroke="none"/>
    <path d="M0.0 85.0 Q-2.3 83.05 -3.95 79.5 -5.35 76.45 -6.0 73.0 L-4.0 73.0 -3.0 74.0 Q-2.6 76.1 -1.8 77.8 L0.0 81.0 0.0 85.0" fill="url(#gradient4)" fill-rule="evenodd" stroke="none"/>
    <path d="M3.0 74.0 L4.0 73.0 6.0 73.0 Q5.35 76.45 3.95 79.5 2.3 83.05 0.0 85.0 L0.0 81.0 1.75 77.65 3.0 74.0" fill="url(#gradient5)" fill-rule="evenodd" stroke="none"/>
    <path d="M2.0 -7.0 L-2.0 -7.0 -2.0 -19.0 2.0 -19.0 2.0 -7.0" fill="url(#gradient6)" fill-rule="evenodd" stroke="none"/>
    <path d="M-2.0 52.0 L2.0 52.0 2.0 57.0 -2.0 57.0 -2.0 52.0" fill="url(#gradient7)" fill-rule="evenodd" stroke="none"/>
    <path d="M2.0 -7.0 L2.0 52.0 -2.0 52.0 -2.0 -7.0 2.0 -7.0" fill="url(#gradient8)" fill-rule="evenodd" stroke="none"/>
    <path d="M2.0 -6.0 L-2.0 -6.0 -2.0 -7.0 2.0 -7.0 2.0 -6.0" fill="url(#gradient9)" fill-rule="evenodd" stroke="none"/>
    <path d="M-2.0 51.0 L2.0 51.0 2.0 52.0 -2.0 52.0 -2.0 51.0" fill="url(#gradient10)" fill-rule="evenodd" stroke="none"/>
    <path d="M2.0 -18.0 L-2.0 -18.0 -2.0 -20.0 2.0 -20.0 2.0 -18.0" fill="url(#gradient11)" fill-rule="evenodd" stroke="none"/>
    <path d="M3.0 -20.0 L-3.0 -20.0 -3.0 -21.0 3.0 -21.0 3.0 -20.0" fill="url(#gradient12)" fill-rule="evenodd" stroke="none"/>
    <path d="M2.0 -21.0 L-2.0 -21.0 Q-2.05 -25.55 -2.75 -29.0 L2.8 -29.0 Q2.1 -25.55 2.0 -21.0" fill="url(#gradient13)" fill-rule="evenodd" stroke="none"/>
    <path d="M0.0 -30.0 L3.0 -30.0 2.8 -29.0 -2.75 -29.0 -3.0 -30.0 0.0 -30.0" fill="url(#gradient14)" fill-rule="evenodd" stroke="none"/>
    <path d="M2.0 -32.0 Q1.85 -30.8 3.0 -30.0 L-3.0 -30.0 Q-1.85 -30.8 -2.0 -32.0 L0.0 -32.0 2.0 -32.0" fill="url(#gradient15)" fill-rule="evenodd" stroke="none"/>
    <path d="M3.2 -50.25 Q2.6 -51.1 2.0 -51.0 L-2.0 -51.0 Q-2.6 -51.1 -3.2 -50.25 -3.85 -49.4 -4.0 -48.0 L-6.0 -58.0 -2.0 -61.3 -2.0 -63.0 2.0 -63.0 2.0 -61.3 6.0 -58.0 4.0 -48.0 Q3.85 -49.4 3.2 -50.25" fill="url(#gradient16)" fill-rule="evenodd" stroke="none"/>
    <path d="M2.0 -32.0 L-2.0 -32.0 -2.0 -42.0 -2.0 -53.0 2.0 -53.0 2.0 -42.0 2.0 -32.0" fill="url(#gradient17)" fill-rule="evenodd" stroke="none"/>
    <path d="M3.0 -32.0 L-3.0 -32.0 -3.0 -34.0 3.0 -34.0 3.0 -32.0" fill="url(#gradient18)" fill-rule="evenodd" stroke="none"/>
    <path d="M3.0 -36.0 L-3.0 -36.0 -3.0 -38.0 3.0 -38.0 3.0 -36.0" fill="url(#gradient19)" fill-rule="evenodd" stroke="none"/>
    <path d="M3.0 -53.0 L-3.0 -53.0 -3.0 -56.0 3.0 -56.0 3.0 -53.0" fill="url(#gradient20)" fill-rule="evenodd" stroke="none"/>
    <path d="M0.0 -59.0 L1.0 -59.0 Q1.0 -57.5 1.35 -56.85 1.8 -56.05 2.9 -56.0 L-2.9 -56.0 Q-1.8 -56.05 -1.35 -56.85 -1.0 -57.5 -1.0 -59.0 L0.0 -59.0" fill="url(#gradient21)" fill-rule="evenodd" stroke="none"/>
    <path d="M3.05 -52.95 Q2.7 -58.85 0.0 -61.0 L0.0 -63.0 3.9 -63.0 4.3 -61.25 Q5.25 -58.3 9.0 -55.0 6.4 -53.4 5.9 -52.1 4.95 -49.65 5.0 -41.0 L3.0 -41.0 3.05 -52.95" fill="#000000" fill-opacity="0.2" fill-rule="evenodd" stroke="none"/>
    <path d="M-1.0 -61.0 Q-3.7 -58.85 -4.05 -52.95 L-4.0 -41.0 -6.0 -41.0 Q-5.95 -49.65 -6.9 -52.1 -7.4 -53.4 -10.0 -55.0 -6.25 -58.3 -5.3 -61.25 -4.0 -65.35 -4.0 -77.0 -4.0 -79.0 -1.0 -84.0 L-1.0 -61.0" fill="url(#gradient22)" fill-rule="evenodd" stroke="none"/>
    <path d="M1.0 -61.0 L1.0 -84.0 Q4.0 -79.0 4.0 -77.0 4.0 -65.35 5.3 -61.25 6.25 -58.3 10.0 -55.0 7.4 -53.4 6.9 -52.1 5.95 -49.65 6.0 -41.0 L4.0 -41.0 4.05 -52.95 Q3.7 -58.85 1.0 -61.0" fill="url(#gradient23)" fill-rule="evenodd" stroke="none"/>
    <path d="M4.0 -38.5 Q3.8 -39.8 3.0 -40.0 L0.0 -40.0 -3.0 -40.0 Q-3.9 -39.75 -4.0 -38.1 L-4.0 -37.0 -7.0 -39.0 Q-7.3 -41.8 -7.0 -42.0 -5.95 -42.7 -4.0 -43.0 L-3.35 -42.35 Q-2.7 -42.0 -2.0 -42.0 L0.0 -42.0 2.0 -42.0 Q2.7 -42.0 3.35 -42.35 L4.0 -42.8 4.05 -43.0 Q6.0 -42.7 7.05 -42.0 7.35 -41.8 7.05 -39.0 L4.05 -37.0 4.0 -38.5" fill="url(#gradient24)" fill-rule="evenodd" stroke="none"/>
    <path d="M2.0 -52.0 L-2.0 -52.0 -2.0 -53.0 2.0 -53.0 2.0 -52.0 M2.0 -39.0 L-2.0 -39.0 -2.0 -40.0 2.0 -40.0 2.0 -39.0 M2.0 -19.0 L-2.0 -19.0 -2.0 -20.0 2.0 -20.0 2.0 -19.0 M3.0 -31.0 L-3.0 -31.0 -3.0 -32.0 3.0 -32.0 3.0 -31.0 M2.0 -35.0 L-2.0 -35.0 -2.0 -36.0 2.0 -36.0 2.0 -35.0 M-4.0 71.0 L4.0 71.0 4.0 72.0 -4.0 72.0 -4.0 71.0 M-2.0 59.0 L2.0 59.0 2.0 60.0 -2.0 60.0 -2.0 59.0" fill="#000000" fill-opacity="0.2" fill-rule="evenodd" stroke="none"/>
  </g>
  <defs>
    <radialGradient cx="0" cy="0" gradientTransform="matrix(0.0049, 0.0, 0.0, 0.0044, 0.0, 57.1)" gradientUnits="userSpaceOnUse" id="gradient0" r="819.2" spreadMethod="pad">
      <stop offset="0.0" stop-color="#b54a4a"/>
      <stop offset="0.34509803921568627" stop-color="#622424"/>
      <stop offset="0.6313725490196078" stop-color="#3f1616"/>
      <stop offset="0.8980392156862745" stop-color="#531e1e"/>
    </radialGradient>
    <radialGradient cx="0" cy="0" fx="-1299.2" fy="0" gradientTransform="matrix(0.0, -0.0146, 0.0086, 0.0, 0.0, 64.0)" gradientUnits="userSpaceOnUse" id="gradient1" r="819.2" spreadMethod="pad">
      <stop offset="0.0" stop-color="#aa4040"/>
      <stop offset="0.2980392156862745" stop-color="#6c2828"/>
      <stop offset="0.6627450980392157" stop-color="#3f1616"/>
      <stop offset="0.8980392156862745" stop-color="#7d2d2d"/>
    </radialGradient>
    <linearGradient gradientTransform="matrix(0.0061, 0.0, 0.0, 0.0012, 0.0, 70.0)" gradientUnits="userSpaceOnUse" id="gradient2" spreadMethod="pad" x1="-819.2" x2="819.2">
      <stop offset="0.11764705882352941" stop-color="#2f1111"/>
      <stop offset="0.27450980392156865" stop-color="#521f1f"/>
      <stop offset="0.4588235294117647" stop-color="#833434"/>
      <stop offset="0.5607843137254902" stop-color="#833434"/>
      <stop offset="0.7254901960784313" stop-color="#521f1f"/>
      <stop offset="0.8784313725490196" stop-color="#2f1111"/>
    </linearGradient>
    <radialGradient cx="0" cy="0" gradientTransform="matrix(0.0073, 0.0, 0.0, 0.0055, 0.0, 73.0)" gradientUnits="userSpaceOnUse" id="gradient3" r="819.2" spreadMethod="pad">
      <stop offset="0.10980392156862745" stop-color="#f4f4f4"/>
      <stop offset="0.3137254901960784" stop-color="#bfbfbf"/>
      <stop offset="0.43137254901960786" stop-color="#a79b98"/>
      <stop offset="0.6784313725490196" stop-color="#434343"/>
      <stop offset="0.8549019607843137" stop-color="#8a8a8a"/>
    </radialGradient>
    <linearGradient gradientTransform="matrix(0.0048, 0.006, -0.0057, 0.0046, -3.0, 79.0)" gradientUnits="userSpaceOnUse" id="gradient4" spreadMethod="pad" x1="-819.2" x2="819.2">
      <stop offset="0.10588235294117647" stop-color="#757575"/>
      <stop offset="0.6392156862745098" stop-color="#434343"/>
      <stop offset="1.0" stop-color="#585858"/>
    </linearGradient>
    <linearGradient gradientTransform="matrix(-0.0035, 0.007, -0.0065, -0.0033, 1.75, 78.3)" gradientUnits="userSpaceOnUse" id="gradient5" spreadMethod="pad" x1="-819.2" x2="819.2">
      <stop offset="0.0" stop-color="#cdcdcd"/>
      <stop offset="0.6235294117647059" stop-color="#ffffff"/>
    </linearGradient>
    <linearGradient gradientTransform="matrix(0.0024, 0.0, 0.0, 0.0073, 0.0, -13.0)" gradientUnits="userSpaceOnUse" id="gradient6" spreadMethod="pad" x1="-819.2" x2="819.2">
      <stop offset="0.0" stop-color="#44403c"/>
      <stop offset="0.11372549019607843" stop-color="#2d2828"/>
      <stop offset="0.25882352941176473" stop-color="#3a3636"/>
      <stop offset="0.43529411764705883" stop-color="#68615e"/>
      <stop offset="0.5529411764705883" stop-color="#68615e"/>
      <stop offset="0.7254901960784313" stop-color="#3a3636"/>
      <stop offset="0.8862745098039215" stop-color="#2d2828"/>
      <stop offset="1.0" stop-color="#44403c"/>
    </linearGradient>
    <linearGradient gradientTransform="matrix(0.0024, 0.0, 0.0, 0.0031, 0.0, 54.5)" gradientUnits="userSpaceOnUse" id="gradient7" spreadMethod="pad" x1="-819.2" x2="819.2">
      <stop offset="0.0" stop-color="#44403c"/>
      <stop offset="0.11372549019607843" stop-color="#2d2828"/>
      <stop offset="0.25882352941176473" stop-color="#3a3636"/>
      <stop offset="0.43529411764705883" stop-color="#68615e"/>
      <stop offset="0.5529411764705883" stop-color="#68615e"/>
      <stop offset="0.7254901960784313" stop-color="#3a3636"/>
      <stop offset="0.8862745098039215" stop-color="#2d2828"/>
      <stop offset="1.0" stop-color="#44403c"/>
    </linearGradient>
    <linearGradient gradientTransform="matrix(0.0024, 0.0, 0.0, 0.036, 0.0, 22.5)" gradientUnits="userSpaceOnUse" id="gradient8" spreadMethod="pad" x1="-819.2" x2="819.2">
      <stop offset="0.00784313725490196" stop-color="#515151"/>
      <stop offset="0.054901960784313725" stop-color="#383838"/>
      <stop offset="0.18823529411764706" stop-color="#5a5c65"/>
      <stop offset="0.4745098039215686" stop-color="#9f9f9f"/>
      <stop offset="0.5411764705882353" stop-color="#9f9f9f"/>
      <stop offset="0.8156862745098039" stop-color="#5a5c65"/>
      <stop offset="0.9411764705882353" stop-color="#383838"/>
      <stop offset="1.0" stop-color="#515151"/>
    </linearGradient>
    <linearGradient gradientTransform="matrix(0.0024, 0.0, 0.0, 6.0E-4, 0.0, -6.5)" gradientUnits="userSpaceOnUse" id="gradient9" spreadMethod="pad" x1="-819.2" x2="819.2">
      <stop offset="0.0" stop-color="#5a4f41"/>
      <stop offset="0.17254901960784313" stop-color="#675a49"/>
      <stop offset="0.34509803921568627" stop-color="#9b8c71"/>
      <stop offset="0.49019607843137253" stop-color="#d5c79e"/>
      <stop offset="0.5411764705882353" stop-color="#d5c79e"/>
      <stop offset="0.6901960784313725" stop-color="#9b8c71"/>
      <stop offset="0.8431372549019608" stop-color="#675a49"/>
      <stop offset="1.0" stop-color="#5a4f41"/>
    </linearGradient>
    <linearGradient gradientTransform="matrix(0.0024, 0.0, 0.0, 6.0E-4, 0.0, 51.5)" gradientUnits="userSpaceOnUse" id="gradient10" spreadMethod="pad" x1="-819.2" x2="819.2">
      <stop offset="0.0" stop-color="#5a4f41"/>
      <stop offset="0.17254901960784313" stop-color="#675a49"/>
      <stop offset="0.34509803921568627" stop-color="#9b8c71"/>
      <stop offset="0.49019607843137253" stop-color="#d5c79e"/>
      <stop offset="0.5411764705882353" stop-color="#d5c79e"/>
      <stop offset="0.6901960784313725" stop-color="#9b8c71"/>
      <stop offset="0.8431372549019608" stop-color="#675a49"/>
      <stop offset="1.0" stop-color="#5a4f41"/>
    </linearGradient>
    <linearGradient gradientTransform="matrix(0.0024, 0.0, 0.0, 0.0031, 0.0, 54.5)" gradientUnits="userSpaceOnUse" id="gradient11" spreadMethod="pad" x1="-819.2" x2="819.2">
      <stop offset="0.00784313725490196" stop-color="#7d2d2d"/>
      <stop offset="0.11764705882352941" stop-color="#3f1616"/>
      <stop offset="0.27450980392156865" stop-color="#6c2828"/>
      <stop offset="0.4588235294117647" stop-color="#aa4040"/>
      <stop offset="0.5607843137254902" stop-color="#aa4040"/>
      <stop offset="0.7254901960784313" stop-color="#6c2828"/>
      <stop offset="0.8784313725490196" stop-color="#3f1616"/>
      <stop offset="1.0" stop-color="#7d2d2d"/>
    </linearGradient>
    <linearGradient gradientTransform="matrix(0.0037, 0.0, 0.0, 6.0E-4, 0.0, -20.5)" gradientUnits="userSpaceOnUse" id="gradient12" spreadMethod="pad" x1="-819.2" x2="819.2">
      <stop offset="0.00784313725490196" stop-color="#7d2d2d"/>
      <stop offset="0.11764705882352941" stop-color="#3f1616"/>
      <stop offset="0.27450980392156865" stop-color="#6c2828"/>
      <stop offset="0.4588235294117647" stop-color="#aa4040"/>
      <stop offset="0.5607843137254902" stop-color="#aa4040"/>
      <stop offset="0.7254901960784313" stop-color="#6c2828"/>
      <stop offset="0.8784313725490196" stop-color="#3f1616"/>
      <stop offset="1.0" stop-color="#7d2d2d"/>
    </linearGradient>
    <linearGradient gradientTransform="matrix(0.0034, 0.0, 0.0, 0.0055, 0.0, -24.5)" gradientUnits="userSpaceOnUse" id="gradient13" spreadMethod="pad" x1="-819.2" x2="819.2">
      <stop offset="0.00784313725490196" stop-color="#572020"/>
      <stop offset="0.11764705882352941" stop-color="#3f1616"/>
      <stop offset="0.27450980392156865" stop-color="#6c2828"/>
      <stop offset="0.4588235294117647" stop-color="#aa4040"/>
      <stop offset="0.5607843137254902" stop-color="#aa4040"/>
      <stop offset="0.7254901960784313" stop-color="#6c2828"/>
      <stop offset="0.8784313725490196" stop-color="#3f1616"/>
      <stop offset="1.0" stop-color="#572020"/>
    </linearGradient>
    <linearGradient gradientTransform="matrix(0.0037, 0.0, 0.0, 6.0E-4, 0.0, -29.5)" gradientUnits="userSpaceOnUse" id="gradient14" spreadMethod="pad" x1="-819.2" x2="819.2">
      <stop offset="0.0" stop-color="#5a4f41"/>
      <stop offset="0.17254901960784313" stop-color="#675a49"/>
      <stop offset="0.34509803921568627" stop-color="#9b8c71"/>
      <stop offset="0.49019607843137253" stop-color="#d5c79e"/>
      <stop offset="0.5411764705882353" stop-color="#d5c79e"/>
      <stop offset="0.6901960784313725" stop-color="#9b8c71"/>
      <stop offset="0.8431372549019608" stop-color="#675a49"/>
      <stop offset="1.0" stop-color="#5a4f41"/>
    </linearGradient>
    <radialGradient cx="0" cy="0" gradientTransform="matrix(0.0043, 0.0, 0.0, 0.0043, 0.0, -30.0)" gradientUnits="userSpaceOnUse" id="gradient15" r="819.2" spreadMethod="pad">
      <stop offset="0.00784313725490196" stop-color="#d5c79e"/>
      <stop offset="0.37254901960784315" stop-color="#9b8c71"/>
      <stop offset="0.6901960784313725" stop-color="#675a49"/>
      <stop offset="1.0" stop-color="#5a4f41"/>
    </radialGradient>
    <linearGradient gradientTransform="matrix(0.0059, 0.0, 0.0, 0.0092, 0.0, -55.5)" gradientUnits="userSpaceOnUse" id="gradient16" spreadMethod="pad" x1="-819.2" x2="819.2">
      <stop offset="0.08235294117647059" stop-color="#233032"/>
      <stop offset="0.27058823529411763" stop-color="#3d5058"/>
      <stop offset="0.4549019607843137" stop-color="#446c73"/>
      <stop offset="0.5529411764705883" stop-color="#446c73"/>
      <stop offset="0.7176470588235294" stop-color="#3d5058"/>
      <stop offset="0.9176470588235294" stop-color="#233032"/>
    </linearGradient>
    <linearGradient gradientTransform="matrix(0.0024, 0.0, 0.0, 0.0128, 0.0, -42.5)" gradientUnits="userSpaceOnUse" id="gradient17" spreadMethod="pad" x1="-819.2" x2="819.2">
      <stop offset="0.0" stop-color="#5a4f41"/>
      <stop offset="0.17254901960784313" stop-color="#675a49"/>
      <stop offset="0.34509803921568627" stop-color="#9b8c71"/>
      <stop offset="0.49019607843137253" stop-color="#d5c79e"/>
      <stop offset="0.5411764705882353" stop-color="#d5c79e"/>
      <stop offset="0.6901960784313725" stop-color="#9b8c71"/>
      <stop offset="0.8431372549019608" stop-color="#675a49"/>
      <stop offset="1.0" stop-color="#5a4f41"/>
    </linearGradient>
    <linearGradient gradientTransform="matrix(0.0037, 0.0, 0.0, 0.0012, 0.0, -33.0)" gradientUnits="userSpaceOnUse" id="gradient18" spreadMethod="pad" x1="-819.2" x2="819.2">
      <stop offset="0.0" stop-color="#5a4f41"/>
      <stop offset="0.17254901960784313" stop-color="#675a49"/>
      <stop offset="0.34509803921568627" stop-color="#9b8c71"/>
      <stop offset="0.4392156862745098" stop-color="#d5c79e"/>
      <stop offset="0.5882352941176471" stop-color="#d5c79e"/>
      <stop offset="0.6901960784313725" stop-color="#9b8c71"/>
      <stop offset="0.8431372549019608" stop-color="#675a49"/>
      <stop offset="1.0" stop-color="#5a4f41"/>
    </linearGradient>
    <linearGradient gradientTransform="matrix(0.0037, 0.0, 0.0, 0.0012, 0.0, -37.0)" gradientUnits="userSpaceOnUse" id="gradient19" spreadMethod="pad" x1="-819.2" x2="819.2">
      <stop offset="0.0" stop-color="#5a4f41"/>
      <stop offset="0.17254901960784313" stop-color="#675a49"/>
      <stop offset="0.34509803921568627" stop-color="#9b8c71"/>
      <stop offset="0.43529411764705883" stop-color="#d5c79e"/>
      <stop offset="0.5882352941176471" stop-color="#d5c79e"/>
      <stop offset="0.6901960784313725" stop-color="#9b8c71"/>
      <stop offset="0.8431372549019608" stop-color="#675a49"/>
      <stop offset="1.0" stop-color="#5a4f41"/>
    </linearGradient>
    <linearGradient gradientTransform="matrix(0.0037, 0.0, 0.0, 0.0018, 0.0, -54.5)" gradientUnits="userSpaceOnUse" id="gradient20" spreadMethod="pad" x1="-819.2" x2="819.2">
      <stop offset="0.0" stop-color="#5a4f41"/>
      <stop offset="0.17254901960784313" stop-color="#675a49"/>
      <stop offset="0.34509803921568627" stop-color="#9b8c71"/>
      <stop offset="0.44313725490196076" stop-color="#d5c79e"/>
      <stop offset="0.596078431372549" stop-color="#d5c79e"/>
      <stop offset="0.6901960784313725" stop-color="#9b8c71"/>
      <stop offset="0.8431372549019608" stop-color="#675a49"/>
      <stop offset="1.0" stop-color="#5a4f41"/>
    </linearGradient>
    <radialGradient cx="0" cy="0" gradientTransform="matrix(0.0038, 0.0, 0.0, 0.0065, 0.0, -58.85)" gradientUnits="userSpaceOnUse" id="gradient21" r="819.2" spreadMethod="pad">
      <stop offset="0.00784313725490196" stop-color="#d5c79e"/>
      <stop offset="0.37254901960784315" stop-color="#9b8c71"/>
      <stop offset="0.6901960784313725" stop-color="#675a49"/>
      <stop offset="1.0" stop-color="#5a4f41"/>
    </radialGradient>
    <linearGradient gradientTransform="matrix(0.014, -0.0159, 0.0197, 0.0173, -5.5, -62.5)" gradientUnits="userSpaceOnUse" id="gradient22" spreadMethod="pad" x1="-819.2" x2="819.2">
      <stop offset="0.0" stop-color="#555555"/>
      <stop offset="0.21176470588235294" stop-color="#4a4a4a"/>
      <stop offset="0.36470588235294116" stop-color="#808080"/>
      <stop offset="0.5411764705882353" stop-color="#dbdbdb"/>
      <stop offset="0.7176470588235294" stop-color="#a3a3a3"/>
      <stop offset="1.0" stop-color="#c2c2c2"/>
    </linearGradient>
    <linearGradient gradientTransform="matrix(0.0134, -0.0082, 0.0137, 0.0223, 5.5, -62.5)" gradientUnits="userSpaceOnUse" id="gradient23" spreadMethod="pad" x1="-819.2" x2="819.2">
      <stop offset="0.07058823529411765" stop-color="#757575"/>
      <stop offset="0.18823529411764706" stop-color="#8a8a8a"/>
      <stop offset="0.403921568627451" stop-color="#e2e2e2"/>
      <stop offset="0.6666666666666666" stop-color="#ffffff"/>
      <stop offset="0.984313725490196" stop-color="#ffffff"/>
    </linearGradient>
    <linearGradient gradientTransform="matrix(0.0088, 0.0, 0.0, 0.0037, 0.0, -40.0)" gradientUnits="userSpaceOnUse" id="gradient24" spreadMethod="pad" x1="-819.2" x2="819.2">
      <stop offset="0.0" stop-color="#636363"/>
      <stop offset="0.06666666666666667" stop-color="#505050"/>
      <stop offset="0.11372549019607843" stop-color="#4e4e4e"/>
      <stop offset="0.24313725490196078" stop-color="#626a69"/>
      <stop offset="0.4549019607843137" stop-color="#f4f4f4"/>
      <stop offset="0.5607843137254902" stop-color="#f4f4f4"/>
      <stop offset="0.6588235294117647" stop-color="#c2c2c2"/>
      <stop offset="0.7372549019607844" stop-color="#818b89"/>
      <stop offset="0.8392156862745098" stop-color="#777777"/>
      <stop offset="0.9294117647058824" stop-color="#7a7a7a"/>
      <stop offset="1.0" stop-color="#959595"/>
    </linearGradient>
  </defs>
</svg>
