<?xml version="1.0" encoding="UTF-8" standalone="no"?>
<svg xmlns:xlink="http://www.w3.org/1999/xlink" height="22.25px" width="51.0px" xmlns="http://www.w3.org/2000/svg">
  <g transform="matrix(1.0, 0.0, 0.0, 1.0, 37.85, 17.85)">
    <path d="M1.1 -13.05 L4.5 -8.15 -0.05 -3.9 1.45 -2.2 2.7 -1.2 Q3.3 -0.9 3.7 -0.8 L4.35 -0.75 4.55 -0.75 1.2 2.1 0.25 1.45 -1.35 0.0 Q-2.15 -0.9 -2.8 -2.3 -3.45 -3.7 -3.45 -5.55 -3.45 -7.35 -2.8 -8.7 L-1.35 -10.95 0.2 -12.45 1.1 -13.05 M5.9 -10.05 L5.3 -10.6 9.75 -14.35 9.75 -11.4 11.15 -11.4 11.15 -9.95 9.75 -9.95 9.75 -1.05 Q9.75 -0.6 10.15 -0.25 L10.85 0.4 8.2 2.4 6.2 0.6 6.2 -9.35 5.9 -10.05 M0.95 -6.9 L0.8 -7.5 0.5 -7.95 -0.55 -9.4 -0.75 -9.1 -1.0 -8.55 -1.2 -7.9 -1.35 -7.15 -1.25 -6.4 -1.0 -5.75 -0.65 -5.15 0.5 -6.1 0.8 -6.45 0.95 -6.9 M-26.4 -13.35 Q-27.95 -13.35 -28.55 -14.3 L-26.95 -15.6 -26.2 -14.7 Q-25.75 -14.35 -25.35 -14.35 L-24.75 -14.45 -25.05 -13.95 -25.5 -13.6 Q-25.7 -13.45 -25.95 -13.4 L-26.4 -13.35 M-35.25 -10.05 L-35.85 -10.6 -31.4 -14.35 -31.4 -11.4 -30.0 -11.4 -30.0 -9.95 -31.4 -9.95 -31.4 -1.05 Q-31.4 -0.6 -31.0 -0.25 L-30.3 0.4 -32.95 2.4 -34.95 0.6 -34.95 -9.35 Q-34.95 -9.75 -35.25 -10.05 M-20.6 -11.75 Q-19.8 -12.45 -18.95 -12.7 L-18.6 -12.2 -17.9 -11.3 -17.1 -10.4 Q-16.7 -10.05 -16.35 -10.05 L-16.1 -10.05 -15.8 -10.1 -15.95 -9.35 -16.4 -8.5 Q-16.65 -8.05 -17.05 -7.75 -17.45 -7.4 -18.0 -7.4 -18.45 -7.4 -18.9 -7.7 -19.35 -7.95 -19.7 -8.3 L-20.5 -9.25 -20.8 -8.9 -20.95 -8.4 -21.05 -7.7 -20.95 -6.8 -20.65 -5.5 -20.1 -4.0 -19.15 -2.5 -17.75 -1.25 -15.8 -0.4 -19.0 2.25 Q-21.45 0.65 -22.45 -1.2 -23.5 -3.05 -23.5 -5.3 -23.5 -6.7 -23.1 -7.9 L-22.05 -10.1 -20.6 -11.75 M-29.2 -10.95 L-26.8 -12.85 -24.85 -10.9 -24.85 1.6 -28.4 1.6 -28.4 -9.5 Q-28.4 -9.95 -28.7 -10.35 L-29.2 -10.95 M-10.7 -15.85 L-10.7 -6.65 Q-9.9 -7.0 -9.4 -7.4 L-8.6 -8.2 Q-8.35 -8.6 -8.25 -8.95 L-8.15 -9.5 -8.55 -10.45 -9.5 -11.3 -6.25 -12.8 -5.1 -11.7 Q-4.65 -11.1 -4.65 -10.5 L-4.85 -9.85 -5.35 -9.2 -5.95 -8.65 -6.55 -8.2 -7.05 -7.9 -7.35 -7.6 -7.55 -7.3 -6.95 -6.2 -6.4 -4.75 -5.9 -3.15 -5.4 -1.6 -4.9 -0.35 -4.4 0.35 -7.15 2.2 -7.5 1.95 -8.05 1.2 -8.8 -0.15 -9.5 -2.2 -9.9 -3.75 -10.25 -4.7 -10.55 -5.1 -10.7 -5.25 -10.7 1.6 -14.1 1.6 -14.1 -13.8 -14.35 -14.65 -14.75 -15.25 -13.85 -15.3 -12.6 -15.45 -11.45 -15.65 -10.7 -15.85" fill="none" stroke="#ffffff" stroke-linecap="round" stroke-linejoin="round" stroke-width="4.0"/>
    <path d="M4.45 -0.65 L1.2 2.1 0.25 1.45 -1.35 0.0 Q-2.15 -0.9 -2.8 -2.3 -3.45 -3.7 -3.45 -5.55 -3.45 -7.35 -2.8 -8.7 L-1.35 -10.95 0.2 -12.45 1.1 -13.05 4.5 -8.15 -0.05 -3.9 1.45 -2.2 2.7 -1.2 Q3.3 -0.9 3.7 -0.8 L4.35 -0.75 4.45 -0.65 M5.3 -10.6 L9.75 -14.35 9.75 -11.4 11.15 -11.4 11.15 -9.95 9.75 -9.95 9.75 -1.05 Q9.75 -0.6 10.15 -0.25 L10.85 0.4 8.2 2.4 6.2 0.6 6.2 -9.35 5.9 -10.05 5.3 -10.6 M0.95 -6.9 L0.8 -7.5 0.5 -7.95 -0.55 -9.4 -0.75 -9.1 -1.0 -8.55 -1.2 -7.9 -1.35 -7.15 -1.25 -6.4 -1.0 -5.75 -0.65 -5.15 0.5 -6.1 0.8 -6.45 0.95 -6.9 M-26.2 -14.7 Q-25.75 -14.35 -25.35 -14.35 L-24.75 -14.45 -25.05 -13.95 -25.5 -13.6 Q-25.7 -13.45 -25.95 -13.4 L-26.4 -13.35 Q-27.95 -13.35 -28.55 -14.3 L-26.95 -15.6 -26.2 -14.7 M-31.0 -0.25 L-30.3 0.4 -32.95 2.4 -34.95 0.6 -34.95 -9.35 Q-34.95 -9.75 -35.25 -10.05 L-35.85 -10.6 -31.4 -14.35 -31.4 -11.4 -30.0 -11.4 -30.0 -9.95 -31.4 -9.95 -31.4 -1.05 Q-31.4 -0.6 -31.0 -0.25 M-20.6 -11.75 Q-19.8 -12.45 -18.95 -12.7 L-18.6 -12.2 -17.9 -11.3 -17.1 -10.4 Q-16.7 -10.05 -16.35 -10.05 L-16.1 -10.05 -15.8 -10.1 -15.95 -9.35 -16.4 -8.5 Q-16.65 -8.05 -17.05 -7.75 -17.45 -7.4 -18.0 -7.4 -18.45 -7.4 -18.9 -7.7 -19.35 -7.95 -19.7 -8.3 L-20.5 -9.25 -20.8 -8.9 -20.95 -8.4 -21.05 -7.7 -20.95 -6.8 -20.65 -5.5 -20.1 -4.0 -19.15 -2.5 -17.75 -1.25 -15.8 -0.4 -19.0 2.25 Q-21.45 0.65 -22.45 -1.2 -23.5 -3.05 -23.5 -5.3 -23.5 -6.7 -23.1 -7.9 L-22.05 -10.1 -20.6 -11.75 M-29.2 -10.95 L-26.8 -12.85 -24.85 -10.9 -24.85 1.6 -28.4 1.6 -28.4 -9.5 Q-28.4 -9.95 -28.7 -10.35 L-29.2 -10.95 M-10.7 -15.85 L-10.7 -6.65 Q-9.9 -7.0 -9.4 -7.4 L-8.6 -8.2 Q-8.35 -8.6 -8.25 -8.95 L-8.15 -9.5 -8.55 -10.45 -9.5 -11.3 -6.25 -12.8 -5.1 -11.7 Q-4.65 -11.1 -4.65 -10.5 L-4.85 -9.85 -5.35 -9.2 -5.95 -8.65 -6.55 -8.2 -7.05 -7.9 -7.35 -7.6 -7.55 -7.3 -6.95 -6.2 -6.4 -4.75 -5.9 -3.15 -5.4 -1.6 -4.9 -0.35 -4.4 0.35 -7.15 2.2 -7.5 1.95 -8.05 1.2 -8.8 -0.15 -9.5 -2.2 -9.9 -3.75 -10.25 -4.7 -10.55 -5.1 -10.7 -5.25 -10.7 1.6 -14.1 1.6 -14.1 -13.8 -14.35 -14.65 -14.75 -15.25 -13.85 -15.3 -12.6 -15.45 -11.45 -15.65 -10.7 -15.85" fill="url(#gradient0)" fill-rule="evenodd" stroke="none"/>
    <path d="M4.35 -0.75 L4.55 -0.75 4.45 -0.65 4.35 -0.75" fill="url(#gradient1)" fill-rule="evenodd" stroke="none"/>
  </g>
  <defs>
    <linearGradient gradientTransform="matrix(0.0, -0.0123, 0.0102, 0.0, 8.15, -5.95)" gradientUnits="userSpaceOnUse" id="gradient0" spreadMethod="pad" x1="-819.2" x2="819.2">
      <stop offset="0.0" stop-color="#000000"/>
      <stop offset="1.0" stop-color="#ab2929"/>
    </linearGradient>
    <linearGradient gradientTransform="matrix(0.0049, 0.0, 0.0, 0.0092, 0.55, -5.5)" gradientUnits="userSpaceOnUse" id="gradient1" spreadMethod="pad" x1="-819.2" x2="819.2">
      <stop offset="0.0" stop-color="#000000"/>
      <stop offset="1.0" stop-color="#ab2929"/>
    </linearGradient>
  </defs>
</svg>
