<?xml version="1.0" encoding="UTF-8" standalone="no"?>
<svg xmlns:xlink="http://www.w3.org/1999/xlink" height="117.8px" width="106.15px" xmlns="http://www.w3.org/2000/svg">
  <g transform="matrix(1.0, 0.0, 0.0, 1.0, 53.1, 58.8)">
    <path d="M15.45 -57.95 L27.0 -56.5 Q32.4 -55.55 40.45 -53.35 L40.4 -53.35 Q47.65 -51.4 51.1 -50.1 52.0 -49.75 52.5 -49.0 53.05 -48.25 53.05 -47.3 L53.05 -42.8 Q53.05 -41.8 52.45 -41.0 51.85 -40.25 50.95 -39.95 L50.95 15.6 Q52.95 16.7 53.0 19.8 L53.0 19.9 Q53.05 23.05 50.95 24.35 L50.95 43.3 Q53.4 48.55 50.8 56.9 50.55 57.85 49.7 58.45 48.95 59.0 47.95 59.0 L40.95 59.0 39.3 58.55 Q38.6 58.05 38.2 57.25 37.85 56.4 37.95 55.55 38.5 52.05 37.6 50.0 36.65 48.3 34.25 47.0 L-34.3 47.0 Q-36.7 48.3 -37.65 50.0 -38.55 52.05 -38.0 55.55 -37.9 56.4 -38.25 57.25 -38.65 58.05 -39.35 58.55 -40.1 59.0 -41.0 59.0 L-48.0 59.0 Q-49.0 59.0 -49.75 58.45 -50.6 57.85 -50.85 56.9 -53.45 48.55 -51.0 43.3 L-51.0 24.35 Q-53.1 23.05 -53.05 19.9 L-53.05 19.8 Q-53.0 16.7 -51.0 15.6 L-51.0 -39.95 Q-51.9 -40.25 -52.5 -41.0 -53.1 -41.8 -53.1 -42.8 L-53.1 -47.3 Q-53.1 -48.25 -52.55 -49.0 -52.05 -49.75 -51.15 -50.1 -47.7 -51.4 -40.45 -53.35 L-40.5 -53.35 -27.05 -56.5 -15.5 -57.95 -0.05 -58.8 0.0 -58.8 15.45 -57.95" fill="#000000" fill-rule="evenodd" stroke="none"/>
    <path d="M48.0 -48.0 L48.0 18.0 49.0 18.0 Q50.05 18.4 50.05 19.9 50.1 21.45 49.0 22.0 L48.0 22.0 48.0 44.0 Q50.3 48.55 48.0 56.0 L41.0 56.0 Q41.7 51.35 40.35 48.65 39.0 45.9 35.0 44.0 L0.0 44.0 -35.0 44.0 Q-39.0 45.9 -40.35 48.65 -41.7 51.35 -41.0 56.0 L-48.0 56.0 Q-50.3 48.55 -48.0 44.0 L-48.0 22.0 -49.0 22.0 Q-50.1 21.45 -50.05 19.9 -50.05 18.4 -49.0 18.0 L-48.0 18.0 -48.0 -48.0 Q-24.0 -56.0 0.0 -56.0 24.0 -56.0 48.0 -48.0" fill="url(#gradient0)" fill-rule="evenodd" stroke="none"/>
    <path d="M25.35 -51.75 Q37.65 -49.65 48.0 -46.05 L48.0 -41.55 Q37.65 -45.15 25.35 -47.25 12.3 -49.45 0.0 -49.5 -12.3 -49.45 -25.35 -47.25 -37.65 -45.15 -48.0 -41.55 L-48.0 -46.05 Q-37.65 -49.65 -25.35 -51.75 -12.3 -53.95 0.0 -54.0 12.3 -53.95 25.35 -51.75" fill="#6f522d" fill-rule="evenodd" stroke="none"/>
    <path d="M25.35 -53.75 Q38.9 -51.45 50.1 -47.3 L50.1 -42.8 Q38.9 -46.95 25.35 -49.25 12.3 -51.45 0.0 -51.5 -12.3 -51.45 -25.35 -49.25 -38.9 -46.95 -50.1 -42.8 L-50.1 -47.3 Q-38.9 -51.45 -25.35 -53.75 -12.3 -55.95 0.0 -56.0 12.3 -55.95 25.35 -53.75" fill="url(#gradient1)" fill-rule="evenodd" stroke="none"/>
    <path d="M48.0 24.0 L-48.0 24.0 -48.0 21.9 48.0 21.9 48.0 24.0" fill="#6f522d" fill-rule="evenodd" stroke="none"/>
    <path d="M49.0 20.0 L-49.0 20.0 -49.0 18.0 49.0 18.0 49.0 20.0" fill="url(#gradient2)" fill-rule="evenodd" stroke="none"/>
    <path d="M-12.0 40.0 L-44.0 40.0 -44.0 26.0 -12.0 26.0 -12.0 40.0 M-9.0 27.0 L-9.0 39.0 9.0 39.0 9.0 27.0 -9.0 27.0 M-13.0 39.0 L-13.0 27.0 -43.0 27.0 -43.0 39.0 -13.0 39.0 M-10.0 26.0 L10.0 26.0 10.0 40.0 -10.0 40.0 -10.0 26.0 M44.0 40.0 L12.0 40.0 12.0 26.0 44.0 26.0 44.0 40.0 M43.0 39.0 L43.0 27.0 13.0 27.0 13.0 39.0 43.0 39.0" fill="url(#gradient3)" fill-rule="evenodd" stroke="none"/>
    <path d="M3.0 -46.5 L3.0 15.0 43.0 15.0 43.0 -39.25 Q31.45 -43.2 20.0 -45.0 L19.95 -45.0 Q10.75 -46.55 3.0 -46.5 M2.0 -47.5 Q10.25 -47.65 20.15 -46.0 32.0 -44.1 44.0 -40.0 L44.0 16.0 2.0 16.0 2.0 -47.5 M-2.0 -47.5 L-2.0 16.0 -44.0 16.0 -44.0 -40.0 Q-32.0 -44.1 -20.15 -46.0 -10.25 -47.65 -2.0 -47.5 M-3.0 -46.5 Q-10.75 -46.55 -19.95 -45.0 L-20.0 -45.0 Q-31.45 -43.2 -43.0 -39.25 L-43.0 15.0 -3.0 15.0 -3.0 -46.5" fill="url(#gradient4)" fill-rule="evenodd" stroke="none"/>
    <path d="M5.35 -24.35 L8.65 -24.35 8.65 -10.0 5.35 -10.0 5.35 -24.35 M-8.65 -24.35 L-5.35 -24.35 -5.35 -10.0 -8.65 -10.0 -8.65 -24.35 M-24.0 35.15 Q-25.65 35.9 -28.0 35.9 -30.35 35.9 -32.0 35.15 -33.65 34.45 -33.65 33.4 -33.65 32.75 -32.95 32.2 -32.85 32.9 -31.55 33.4 -30.05 34.0 -28.0 34.0 -25.95 34.0 -24.5 33.4 -23.15 32.9 -23.0 32.2 -22.35 32.75 -22.35 33.4 -22.35 34.45 -24.0 35.15 M33.65 33.4 Q33.65 34.45 32.0 35.15 30.35 35.9 28.0 35.9 25.65 35.9 24.0 35.15 22.35 34.45 22.35 33.4 22.35 32.75 23.05 32.2 23.15 32.9 24.45 33.4 25.95 34.0 28.0 34.0 30.05 34.0 31.5 33.4 32.85 32.9 33.0 32.2 33.65 32.75 33.65 33.4 M-4.95 32.2 Q-4.85 32.9 -3.55 33.4 -2.05 34.0 0.0 34.0 2.05 34.0 3.5 33.4 4.85 32.9 5.0 32.2 5.65 32.75 5.65 33.4 5.65 34.45 4.0 35.15 2.35 35.9 0.0 35.9 -2.35 35.9 -4.0 35.15 -5.65 34.45 -5.65 33.4 -5.65 32.75 -4.95 32.2" fill="#674a2e" fill-rule="evenodd" stroke="none"/>
    <path d="M-4.95 31.2 Q-4.85 31.9 -3.55 32.4 -2.05 33.0 0.0 33.0 2.05 33.0 3.5 32.4 4.85 31.9 5.0 31.2 5.65 31.75 5.65 32.4 5.65 33.45 4.0 34.15 2.35 34.9 0.0 34.9 -2.35 34.9 -4.0 34.15 -5.65 33.45 -5.65 32.4 -5.65 31.75 -4.95 31.2" fill="url(#gradient5)" fill-rule="evenodd" stroke="none"/>
    <path d="M33.65 32.4 Q33.65 33.45 32.0 34.15 30.35 34.9 28.0 34.9 25.65 34.9 24.0 34.15 22.35 33.45 22.35 32.4 22.35 31.75 23.05 31.2 23.15 31.9 24.45 32.4 25.95 33.0 28.0 33.0 30.05 33.0 31.5 32.4 32.85 31.9 33.0 31.2 33.65 31.75 33.65 32.4" fill="url(#gradient6)" fill-rule="evenodd" stroke="none"/>
    <path d="M-28.0 34.9 Q-30.35 34.9 -32.0 34.15 -33.65 33.45 -33.65 32.4 -33.65 31.75 -32.95 31.2 -32.85 31.9 -31.55 32.4 -30.05 33.0 -28.0 33.0 -25.95 33.0 -24.5 32.4 -23.15 31.9 -23.0 31.2 -22.35 31.75 -22.35 32.4 -22.35 33.45 -24.0 34.15 -25.65 34.9 -28.0 34.9" fill="url(#gradient7)" fill-rule="evenodd" stroke="none"/>
    <path d="M8.0 -12.0 L5.9 -12.0 5.9 -24.0 8.0 -24.0 8.0 -12.0" fill="url(#gradient8)" fill-rule="evenodd" stroke="none"/>
    <path d="M-5.9 -12.0 L-8.0 -12.0 -8.0 -24.0 -5.9 -24.0 -5.9 -12.0" fill="url(#gradient9)" fill-rule="evenodd" stroke="none"/>
  </g>
  <defs>
    <linearGradient gradientTransform="matrix(-6.0E-4, -0.0684, 0.0684, -6.0E-4, 0.0, 0.0)" gradientUnits="userSpaceOnUse" id="gradient0" spreadMethod="pad" x1="-819.2" x2="819.2">
      <stop offset="0.0" stop-color="#a97138"/>
      <stop offset="1.0" stop-color="#916335"/>
    </linearGradient>
    <radialGradient cx="0" cy="0" gradientTransform="matrix(0.0622, 0.0, 0.0, 0.0622, 0.0, -49.4)" gradientUnits="userSpaceOnUse" id="gradient1" r="819.2" spreadMethod="pad">
      <stop offset="0.0" stop-color="#b97b3e"/>
      <stop offset="1.0" stop-color="#916335"/>
    </radialGradient>
    <radialGradient cx="0" cy="0" gradientTransform="matrix(0.0513, 0.0, 0.0, 0.0513, -2.0, 18.0)" gradientUnits="userSpaceOnUse" id="gradient2" r="819.2" spreadMethod="pad">
      <stop offset="0.0" stop-color="#b77a40"/>
      <stop offset="1.0" stop-color="#a5713d"/>
    </radialGradient>
    <linearGradient gradientTransform="matrix(0.0, -0.0091, 0.0085, 0.0, -28.0, 33.0)" gradientUnits="userSpaceOnUse" id="gradient3" spreadMethod="pad" x1="-819.2" x2="819.2">
      <stop offset="0.0" stop-color="#7d5733"/>
      <stop offset="1.0" stop-color="#5c4630"/>
    </linearGradient>
    <linearGradient gradientTransform="matrix(-1.0E-4, -0.0391, 0.0085, 0.0, -26.1, -16.0)" gradientUnits="userSpaceOnUse" id="gradient4" spreadMethod="pad" x1="-819.2" x2="819.2">
      <stop offset="0.0" stop-color="#7d5733"/>
      <stop offset="1.0" stop-color="#5c4630"/>
    </linearGradient>
    <linearGradient gradientTransform="matrix(0.0072, -1.0E-4, 0.0, 0.0031, -0.05, 32.4)" gradientUnits="userSpaceOnUse" id="gradient5" spreadMethod="pad" x1="-819.2" x2="819.2">
      <stop offset="0.0" stop-color="#7a6f5a"/>
      <stop offset="0.5333333333333333" stop-color="#b4a283"/>
      <stop offset="1.0" stop-color="#7a6f5a"/>
    </linearGradient>
    <linearGradient gradientTransform="matrix(0.0072, -1.0E-4, 0.0, 0.0031, 27.95, 32.4)" gradientUnits="userSpaceOnUse" id="gradient6" spreadMethod="pad" x1="-819.2" x2="819.2">
      <stop offset="0.0" stop-color="#7a6f5a"/>
      <stop offset="0.5333333333333333" stop-color="#b4a283"/>
      <stop offset="1.0" stop-color="#7a6f5a"/>
    </linearGradient>
    <linearGradient gradientTransform="matrix(0.0072, -1.0E-4, 0.0, 0.0031, -28.05, 32.4)" gradientUnits="userSpaceOnUse" id="gradient7" spreadMethod="pad" x1="-819.2" x2="819.2">
      <stop offset="0.0" stop-color="#7a6f5a"/>
      <stop offset="0.5333333333333333" stop-color="#b4a283"/>
      <stop offset="1.0" stop-color="#7a6f5a"/>
    </linearGradient>
    <linearGradient gradientTransform="matrix(0.0, -0.0072, 0.0031, 0.0, 54.9, -18.05)" gradientUnits="userSpaceOnUse" id="gradient8" spreadMethod="pad" x1="-819.2" x2="819.2">
      <stop offset="0.0" stop-color="#7a6f5a"/>
      <stop offset="0.5333333333333333" stop-color="#b4a283"/>
      <stop offset="1.0" stop-color="#7a6f5a"/>
    </linearGradient>
    <linearGradient gradientTransform="matrix(0.0, -0.0072, 0.0031, 0.0, 41.0, -18.05)" gradientUnits="userSpaceOnUse" id="gradient9" spreadMethod="pad" x1="-819.2" x2="819.2">
      <stop offset="0.0" stop-color="#7a6f5a"/>
      <stop offset="0.5333333333333333" stop-color="#b4a283"/>
      <stop offset="1.0" stop-color="#7a6f5a"/>
    </linearGradient>
  </defs>
</svg>
