<?xml version="1.0" encoding="UTF-8" standalone="no"?>
<svg xmlns:xlink="http://www.w3.org/1999/xlink" height="32.0px" width="16.0px" xmlns="http://www.w3.org/2000/svg">
  <g transform="matrix(1.0, 0.0, 0.0, 1.0, -42.0, -26.0)">
    <path d="M49.45 30.6 Q50.0 31.15 50.0 32.0 L50.0 54.0 54.0 54.0 54.0 30.0 48.2 30.0 Q48.85 30.0 49.45 30.6 M56.0 26.0 Q56.85 26.0 57.45 26.6 58.0 27.15 58.0 28.0 L58.0 56.0 Q58.0 56.85 57.45 57.45 56.85 58.0 56.0 58.0 L48.0 58.0 Q47.15 58.0 46.6 57.45 46.0 56.85 46.0 56.0 L46.0 34.0 44.0 34.0 Q43.15 34.0 42.6 33.45 42.0 32.85 42.0 32.0 L42.0 28.0 Q42.0 27.15 42.6 26.6 43.15 26.0 44.0 26.0 L56.0 26.0" fill="#000000" fill-rule="evenodd" stroke="none"/>
    <path d="M44.0 28.0 L56.0 28.0 56.0 56.0 48.0 56.0 48.0 32.0 44.0 32.0 44.0 28.0" fill="#ffffff" fill-rule="evenodd" stroke="none"/>
  </g>
</svg>
