<?xml version="1.0" encoding="UTF-8" standalone="no"?>
<svg xmlns:xlink="http://www.w3.org/1999/xlink" height="32.0px" width="36.0px" xmlns="http://www.w3.org/2000/svg">
  <g transform="matrix(1.0, 0.0, 0.0, 1.0, -22.0, -26.0)">
    <path d="M30.0 30.0 L26.0 30.0 26.0 54.0 30.0 54.0 30.0 30.0 M48.2 30.0 Q48.85 30.0 49.45 30.6 50.0 31.15 50.0 32.0 L50.0 52.0 Q50.0 52.85 49.45 53.45 48.85 54.0 48.2 54.0 L54.0 54.0 54.0 30.0 48.2 30.0 M42.6 30.6 Q43.15 30.0 43.85 30.0 L38.0 30.0 38.0 54.0 43.85 54.0 Q43.15 54.0 42.6 53.45 42.0 52.85 42.0 52.0 L42.0 32.0 Q42.0 31.15 42.6 30.6 M56.0 26.0 Q56.85 26.0 57.45 26.6 58.0 27.15 58.0 28.0 L58.0 56.0 Q58.0 56.85 57.45 57.45 56.85 58.0 56.0 58.0 L36.0 58.0 Q35.15 58.0 34.6 57.45 34.0 56.85 34.0 56.15 34.0 56.85 33.45 57.45 32.85 58.0 32.0 58.0 L24.0 58.0 Q23.15 58.0 22.6 57.45 22.0 56.85 22.0 56.0 L22.0 28.0 Q22.0 27.15 22.6 26.6 23.15 26.0 24.0 26.0 L32.0 26.0 Q32.85 26.0 33.45 26.6 34.0 27.15 34.0 27.95 34.0 27.15 34.6 26.6 35.15 26.0 36.0 26.0 L56.0 26.0" fill="#000000" fill-rule="evenodd" stroke="none"/>
    <path d="M48.0 32.0 L44.0 32.0 44.0 52.0 48.0 52.0 48.0 32.0 M56.0 28.0 L56.0 56.0 36.0 56.0 36.0 28.0 56.0 28.0" fill="#ffffff" fill-rule="evenodd" stroke="none"/>
    <path d="M32.0 28.0 L32.0 56.0 24.0 56.0 24.0 28.0 32.0 28.0" fill="#ffffff" fill-rule="evenodd" stroke="none"/>
  </g>
</svg>
