<?xml version="1.0" encoding="UTF-8" standalone="no"?>
<svg xmlns:xlink="http://www.w3.org/1999/xlink" height="31.55px" width="10.05px" xmlns="http://www.w3.org/2000/svg">
  <g transform="matrix(1.0, 0.0, 0.0, 1.0, -4.7, -0.4)">
    <path d="M14.75 1.9 L14.75 30.45 Q14.75 31.05 14.3 31.5 L13.25 31.95 7.2 31.95 Q6.6 31.95 6.15 31.5 5.7 31.05 5.7 30.45 L5.7 7.25 5.5 5.1 4.9 3.55 Q4.65 3.05 4.75 2.55 4.85 2.0 5.25 1.65 5.65 1.3 6.2 1.3 L7.25 1.25 7.65 1.2 7.75 1.2 9.8 1.05 9.7 1.1 11.8 0.8 12.45 0.65 13.45 0.45 Q14.0 0.5 14.4 0.9 L14.75 1.9" fill="#000000" fill-rule="evenodd" stroke="none"/>
    <path d="M7.8 2.7 L9.9 2.55 12.0 2.25 13.25 1.9 13.25 30.45 7.2 30.45 7.2 7.25 6.95 4.8 6.2 2.8 7.25 2.75 7.8 2.7" fill="url(#gradient0)" fill-rule="evenodd" stroke="none"/>
  </g>
  <defs>
    <linearGradient gradientTransform="matrix(0.0, 0.0206, -0.0222, 0.0, 107.65, 15.65)" gradientUnits="userSpaceOnUse" id="gradient0" spreadMethod="pad" x1="-819.2" x2="819.2">
      <stop offset="0.0" stop-color="#ffffff"/>
      <stop offset="1.0" stop-color="#757575"/>
    </linearGradient>
  </defs>
</svg>
