<?xml version="1.0" encoding="UTF-8" standalone="no"?>
<svg xmlns:xlink="http://www.w3.org/1999/xlink" height="32.9px" width="17.65px" xmlns="http://www.w3.org/2000/svg">
  <g transform="matrix(1.0, 0.0, 0.0, 1.0, -1.65, -0.5)">
    <path d="M11.2 0.75 Q13.75 2.35 15.4 4.7 16.95 6.9 17.8 9.1 18.7 11.3 19.0 13.15 L19.3 15.85 19.1 18.5 Q18.9 20.25 18.1 22.65 17.35 24.9 15.75 27.6 L15.75 27.55 Q14.2 30.25 11.45 33.0 11.0 33.4 10.4 33.4 9.8 33.4 9.35 32.95 5.4 29.0 3.55 25.1 1.65 21.1 1.65 17.85 1.65 15.7 2.0 13.7 L2.0 13.65 Q2.3 11.65 3.1 9.6 L3.15 9.6 Q3.95 7.55 5.55 5.4 7.0 3.3 9.35 0.95 9.7 0.55 10.25 0.5 10.75 0.45 11.2 0.75 M8.15 11.9 Q8.15 15.15 9.6 18.25 L9.6 18.3 Q10.65 20.55 12.35 22.35 L12.6 20.35 Q12.6 18.65 12.05 16.85 L10.6 13.3 10.6 13.35 8.75 10.6 8.75 10.55 8.5 10.25 Q8.15 11.05 8.15 11.9" fill="#000000" fill-rule="evenodd" stroke="none"/>
    <path d="M16.4 9.65 Q17.25 11.7 17.5 13.4 L17.8 15.85 17.6 18.3 16.65 22.15 Q15.95 24.3 14.45 26.8 13.0 29.35 10.4 31.9 6.65 28.15 4.9 24.45 3.15 20.8 3.15 17.85 3.15 15.8 3.45 13.9 3.75 12.05 4.5 10.15 5.3 8.25 6.75 6.25 8.15 4.25 10.4 2.0 12.7 3.45 14.15 5.55 15.6 7.6 16.4 9.65 M6.65 11.9 Q6.65 15.5 8.25 18.9 9.85 22.35 12.7 24.75 L13.65 23.15 Q14.1 22.1 14.1 20.35 14.1 18.45 13.45 16.4 L11.9 12.6 Q10.95 10.85 9.9 9.6 L8.15 7.95 Q7.6 8.4 7.15 9.55 6.65 10.7 6.65 11.9" fill="url(#gradient0)" fill-rule="evenodd" stroke="none"/>
  </g>
  <defs>
    <linearGradient gradientTransform="matrix(0.0, 0.0206, -0.0222, 0.0, 132.15, 15.65)" gradientUnits="userSpaceOnUse" id="gradient0" spreadMethod="pad" x1="-819.2" x2="819.2">
      <stop offset="0.0" stop-color="#ffffff"/>
      <stop offset="1.0" stop-color="#757575"/>
    </linearGradient>
  </defs>
</svg>
