<?xml version="1.0" encoding="UTF-8" standalone="no"?>
<svg xmlns:xlink="http://www.w3.org/1999/xlink" height="233.0px" width="385.0px" xmlns="http://www.w3.org/2000/svg">
  <g transform="matrix(1.0, 0.0, 0.0, 1.0, 3.0, -77.0)">
    <path d="M336.0 263.0 Q340.05 259.0 344.5 259.0 361.25 259.0 373.0 276.0 377.15 282.0 379.8 288.95 382.0 294.75 382.0 297.5 382.0 302.0 375.9 306.2 370.35 310.0 366.0 310.0 348.8 310.0 339.0 297.95 331.0 288.2 331.0 276.0 331.0 267.95 336.0 263.0 M39.0 87.05 Q48.0 96.5 48.0 109.0 48.0 116.9 44.75 123.0 41.45 129.25 36.0 131.0 23.85 131.0 10.0 115.0 4.25 108.4 0.65 101.45 -3.0 94.45 -3.0 90.0 -3.0 83.6 3.0 80.05 8.15 77.0 15.5 77.0 29.5 77.0 39.0 87.05" fill="#cc3300" fill-rule="evenodd" stroke="none"/>
  </g>
</svg>
