<?xml version="1.0" encoding="UTF-8" standalone="no"?>
<svg xmlns:xlink="http://www.w3.org/1999/xlink" height="433.4px" width="483.1px" xmlns="http://www.w3.org/2000/svg">
  <g transform="matrix(1.0, 0.0, 0.0, 1.0, 59.1, 21.95)">
    <path d="M292.3 -2.3 Q328.05 14.7 354.8 45.4 416.0 115.6 424.0 248.0 424.75 260.9 394.1 258.25 382.3 257.2 369.8 254.1 357.9 251.15 352.0 248.0 342.2 242.75 193.35 186.8 40.85 129.4 36.0 131.0 29.8 131.0 21.95 126.15 14.85 121.75 8.35 114.65 2.0 107.75 -1.2 101.1 -4.6 94.0 -3.0 90.0 6.45 66.25 29.05 44.5 51.15 23.15 82.0 7.4 113.5 -8.7 148.5 -16.2 185.45 -24.1 221.05 -21.15 259.45 -17.95 292.3 -2.3 M380.2 288.95 Q382.4 294.95 382.0 297.5 377.1 328.55 353.6 353.35 331.5 376.65 295.9 391.5 261.25 405.95 219.75 410.0 177.65 414.1 136.05 406.75 92.3 399.05 55.7 379.8 16.35 359.05 -10.35 327.0 -39.35 292.2 -51.2 246.45 -64.1 196.6 -56.0 136.0 -54.85 127.4 -41.4 127.15 -31.05 127.0 -11.5 131.95 -0.5 134.75 20.1 140.75 36.1 145.1 40.0 144.0 59.05 138.5 202.15 198.15 240.45 214.1 299.35 239.75 343.45 259.0 344.5 259.0 361.4 259.0 373.35 276.0 377.65 282.15 380.2 288.95" fill="#cc3300" fill-rule="evenodd" stroke="none"/>
  </g>
</svg>
