<?xml version="1.0" encoding="UTF-8" standalone="no"?>
<svg xmlns:xlink="http://www.w3.org/1999/xlink" height="594.9px" width="562.0px" xmlns="http://www.w3.org/2000/svg">
  <g transform="matrix(1.0, 0.0, 0.0, 1.0, 26.0, -104.2)">
    <path d="M536.0 109.85 Q536.0 111.3 527.6 123.85 517.1 139.45 513.0 147.0 510.95 150.85 508.5 156.55 506.3 161.85 505.0 165.75 503.15 171.15 482.05 174.25 459.45 176.65 455.5 177.75 446.25 180.45 421.4 189.55 396.7 198.6 375.75 207.0 372.25 208.4 332.75 227.0 300.75 242.0 296.0 242.0 L291.35 241.5 288.0 241.0 269.75 238.5 266.15 237.9 Q267.0 240.35 267.0 241.35 267.0 243.0 270.6 249.1 275.5 257.35 282.85 264.0 276.25 260.4 266.3 257.35 259.15 255.15 257.3 254.95 L259.5 262.25 Q261.05 267.2 265.25 278.4 269.55 289.95 271.25 295.25 L282.05 327.85 Q288.5 347.35 292.25 360.5 299.4 385.3 311.75 433.9 325.0 485.9 325.0 490.75 L320.0 501.55 Q313.9 514.85 309.0 526.85 293.0 565.85 293.0 581.5 293.0 587.4 300.0 604.95 307.0 622.5 307.0 625.35 307.0 625.9 307.35 627.45 307.7 629.05 308.0 629.6 308.2 631.25 310.0 635.55 312.0 640.25 312.5 642.35 313.5 646.9 321.9 657.35 330.0 667.4 330.0 668.6 320.75 699.1 316.0 699.1 313.55 699.1 312.55 697.15 312.0 696.05 312.0 694.85 312.0 694.1 316.65 682.55 321.25 670.95 321.25 669.35 315.7 662.05 310.15 653.35 305.55 646.15 302.85 640.65 301.4 638.65 300.0 634.1 L298.0 626.25 Q298.0 625.1 298.15 624.25 295.2 618.2 291.5 606.0 L285.0 581.6 Q285.0 562.6 301.0 524.55 305.9 512.9 312.0 500.3 L317.0 490.1 Q317.0 486.7 304.65 438.2 292.35 390.05 285.25 365.5 275.9 333.45 265.75 303.25 263.7 297.05 252.4 267.65 L246.8 252.75 244.85 252.5 237.95 253.75 231.0 255.0 Q229.75 255.0 223.15 259.8 216.75 264.4 216.0 264.0 L221.5 258.05 Q227.0 252.2 227.0 250.75 L229.5 246.45 Q232.0 242.3 232.0 240.0 232.0 238.7 228.55 231.15 L225.25 223.5 203.5 206.85 Q159.0 172.75 159.0 172.35 159.0 169.85 160.5 162.2 L162.0 153.6 Q162.0 141.4 145.55 135.25 139.4 132.95 128.25 130.45 L107.75 126.0 Q85.85 121.0 64.75 117.65 31.15 112.25 6.6 112.25 L-10.0 113.65 -19.5 115.0 Q-24.1 115.0 -25.5 113.0 -26.0 112.3 -26.0 110.75 -26.0 103.1 13.55 105.15 33.4 106.2 53.5 108.75 L80.6 113.0 Q98.15 115.75 105.75 117.5 L134.55 124.25 Q147.8 127.55 154.55 130.6 162.6 134.2 166.2 139.4 170.0 144.9 170.0 153.6 170.0 154.85 169.0 160.55 168.0 166.25 168.0 167.5 168.0 169.3 186.05 182.9 L213.25 203.5 237.35 222.85 Q240.7 224.9 246.1 215.1 247.7 212.15 253.1 200.0 L253.25 204.2 Q253.55 209.15 254.3 213.45 256.75 227.2 262.8 230.0 L272.5 230.5 Q280.65 231.3 286.6 233.05 290.35 234.15 291.95 235.3 302.1 227.15 366.25 202.15 426.8 178.55 451.75 170.5 458.0 168.45 463.1 167.7 L471.3 166.8 Q481.65 165.6 498.75 158.5 501.75 157.25 504.0 150.25 507.2 140.45 508.0 139.0 519.3 118.6 526.8 109.65 536.0 98.65 536.0 109.85" fill="#000000" fill-rule="evenodd" stroke="none"/>
  </g>
</svg>
