<?xml version="1.0" encoding="UTF-8" standalone="no"?>
<svg xmlns:xlink="http://www.w3.org/1999/xlink" height="161.0px" width="20.5px" xmlns="http://www.w3.org/2000/svg">
  <g transform="matrix(1.0, 0.0, 0.0, 1.0, 13.5, 80.5)">
    <path d="M0.85 -80.35 L2.15 -79.3 4.95 -74.6 5.25 -74.2 5.55 -72.95 Q5.35 -63.0 5.45 -58.5 5.6 -51.6 6.65 -49.5 L6.65 -49.45 7.0 -48.15 Q7.0 -47.45 6.6 -46.8 L5.4 -45.05 5.5 -45.0 5.45 -45.0 Q6.1 -44.55 6.4 -43.75 6.65 -43.0 6.4 -42.2 L5.4 -39.2 5.1 -38.65 5.1 -38.6 5.05 -38.55 5.05 -38.45 5.05 -38.4 4.8 -36.95 4.6 -35.1 5.45 -34.45 Q6.5 -33.4 6.5 -32.0 6.5 -30.6 5.45 -29.55 L4.9 -29.05 4.8 -29.0 4.85 -29.0 4.8 -28.8 4.75 -28.65 4.8 -28.6 4.8 -28.55 4.8 -28.6 5.0 -27.5 5.0 -27.0 5.0 -26.5 Q5.0 -25.6 4.55 -24.9 L4.5 -18.0 4.5 54.0 4.75 54.25 4.8 54.25 Q5.5 55.0 5.5 56.0 L5.5 57.0 Q5.5 57.85 5.0 58.5 5.5 59.15 5.5 60.0 L5.5 61.0 Q5.5 62.0 5.0 62.0 L4.75 62.8 4.5 63.0 4.5 69.6 5.4 72.2 5.4 72.25 5.5 73.0 5.5 74.0 Q5.5 74.8 5.05 75.45 L5.25 75.9 Q5.6 76.55 5.5 77.25 5.45 78.0 5.0 78.6 L4.95 78.6 3.8 79.4 0.8 80.4 Q0.0 80.65 -0.8 80.4 L-3.8 79.4 -3.75 79.4 -4.95 78.6 Q-5.45 78.0 -5.5 77.25 -5.6 76.55 -5.25 75.9 L-5.0 75.45 Q-5.5 74.8 -5.5 74.0 L-5.5 73.0 -5.35 72.25 -5.35 72.2 -4.5 69.6 -4.5 63.0 -4.75 62.8 -4.75 62.75 Q-5.5 62.0 -5.5 61.0 L-5.5 60.0 Q-5.5 59.15 -5.0 58.5 -5.5 57.85 -5.5 57.0 L-5.5 56.0 Q-5.5 55.0 -4.75 54.25 L-4.5 54.0 -4.5 -7.4 Q-9.25 -7.4 -12.55 -10.05 -13.15 -10.5 -13.35 -11.25 L-13.35 -11.2 -13.4 -12.7 Q-11.4 -19.35 -8.1 -23.95 L-8.0 -24.5 Q-7.3 -26.35 -5.8 -27.45 L-5.8 -27.4 -5.0 -27.9 -4.9 -28.15 -4.85 -28.2 -4.75 -28.4 -4.8 -28.6 -4.85 -29.05 -5.45 -29.55 Q-6.5 -30.6 -6.5 -32.0 -6.5 -33.4 -5.45 -34.45 L-4.6 -35.1 -4.8 -36.95 -5.0 -38.3 -5.05 -38.45 -5.05 -38.6 -5.35 -39.2 -6.35 -42.2 Q-6.65 -43.0 -6.35 -43.75 -6.1 -44.55 -5.45 -45.0 L-5.35 -45.05 -6.5 -46.8 Q-6.95 -47.45 -6.95 -48.15 L-6.6 -49.45 -6.55 -49.5 Q-5.55 -51.6 -5.4 -58.5 -5.3 -63.0 -5.5 -72.95 -5.5 -73.7 -5.1 -74.3 L-2.1 -79.3 Q-1.65 -80.05 -0.8 -80.35 L-0.85 -80.35 Q0.0 -80.65 0.85 -80.35" fill="#000000" fill-rule="evenodd" stroke="none"/>
    <path d="M2.0 -15.0 L2.0 56.0 -2.0 56.0 -2.0 -15.0 2.0 -15.0" fill="url(#gradient0)" fill-rule="evenodd" stroke="none"/>
    <path d="M2.0 61.0 L2.0 70.0 -2.0 70.0 -2.0 61.0 2.0 61.0" fill="url(#gradient1)" fill-rule="evenodd" stroke="none"/>
    <path d="M2.0 57.0 L2.0 60.0 -2.0 60.0 -2.0 57.0 2.0 57.0" fill="url(#gradient2)" fill-rule="evenodd" stroke="none"/>
    <path d="M2.0 56.0 L3.0 56.0 3.0 57.0 2.0 57.0 -2.0 57.0 -3.0 57.0 -3.0 56.0 -2.0 56.0 2.0 56.0" fill="url(#gradient3)" fill-rule="evenodd" stroke="none"/>
    <path d="M2.0 60.0 L3.0 60.0 3.0 61.0 2.0 61.0 -2.0 61.0 -3.0 61.0 -3.0 60.0 -2.0 60.0 2.0 60.0" fill="url(#gradient4)" fill-rule="evenodd" stroke="none"/>
    <path d="M2.35 -29.0 L2.05 -25.7 2.0 -18.0 2.0 -17.0 -2.0 -17.0 -2.0 -18.0 -2.05 -25.7 Q-2.1 -27.7 -2.3 -29.0 L2.35 -29.0" fill="url(#gradient5)" fill-rule="evenodd" stroke="none"/>
    <path d="M2.0 -43.0 L-2.0 -43.0 -2.0 -44.0 2.0 -44.0 2.0 -43.0" fill="url(#gradient6)" fill-rule="evenodd" stroke="none"/>
    <path d="M3.0 -31.0 Q2.7 -30.7 2.55 -30.0 L-2.5 -30.0 Q-2.7 -30.7 -3.0 -31.0 L3.0 -31.0" fill="url(#gradient7)" fill-rule="evenodd" stroke="none"/>
    <path d="M2.0 70.0 Q2.2 71.95 3.0 73.0 L-3.0 73.0 Q-2.2 71.95 -2.0 70.0 L2.0 70.0" fill="url(#gradient8)" fill-rule="evenodd" stroke="none"/>
    <path d="M3.0 73.0 L3.35 73.15 3.5 73.5 3.35 73.85 3.0 74.0 -3.0 74.0 -3.35 73.85 -3.5 73.5 -3.35 73.15 -3.0 73.0 3.0 73.0" fill="url(#gradient9)" fill-rule="evenodd" stroke="none"/>
    <path d="M3.0 74.0 L2.0 75.0 -2.0 75.0 -3.0 74.0 3.0 74.0" fill="url(#gradient10)" fill-rule="evenodd" stroke="none"/>
    <path d="M2.0 75.0 Q2.15 76.15 3.0 77.0 L-3.0 77.0 Q-2.15 76.2 -2.0 75.0 L2.0 75.0" fill="url(#gradient11)" fill-rule="evenodd" stroke="none"/>
    <path d="M3.0 77.0 L0.0 78.0 -3.0 77.0 3.0 77.0" fill="url(#gradient12)" fill-rule="evenodd" stroke="none"/>
    <path d="M-2.0 -33.0 L2.0 -33.0 3.0 -33.0 3.7 -32.7 4.0 -32.0 3.7 -31.3 Q3.4 -31.0 3.0 -31.0 L-3.0 -31.0 Q-3.4 -31.0 -3.7 -31.3 L-4.0 -32.0 -3.7 -32.7 -3.0 -33.0 -2.0 -33.0" fill="url(#gradient13)" fill-rule="evenodd" stroke="none"/>
    <path d="M3.0 -40.0 L0.0 -40.0 -3.0 -40.0 Q-3.8 -41.5 -4.0 -43.0 L-2.0 -43.0 2.0 -43.0 4.0 -43.0 Q3.8 -41.5 3.0 -40.0" fill="url(#gradient14)" fill-rule="evenodd" stroke="none"/>
    <path d="M2.0 -17.0 L2.0 -15.0 -2.0 -15.0 -2.0 -17.0 2.0 -17.0" fill="url(#gradient15)" fill-rule="evenodd" stroke="none"/>
    <path d="M2.55 -30.0 L2.55 -29.95 2.5 -29.85 2.4 -29.45 2.35 -29.0 -2.3 -29.0 -2.5 -30.0 2.55 -30.0" fill="url(#gradient16)" fill-rule="evenodd" stroke="none"/>
    <path d="M-3.0 -40.0 L0.0 -40.0 3.0 -40.0 Q2.6 -39.65 2.3 -37.25 L2.0 -33.0 -2.0 -33.0 -2.3 -37.25 Q-2.6 -39.65 -3.0 -40.0" fill="url(#gradient17)" fill-rule="evenodd" stroke="none"/>
    <path d="M-2.0 -44.0 L-2.0 -55.0 2.0 -55.0 2.0 -44.0 -2.0 -44.0" fill="url(#gradient18)" fill-rule="evenodd" stroke="none"/>
    <path d="M4.5 -48.2 L3.05 -46.0 0.95 -48.7 1.0 -49.0 1.0 -53.0 0.7 -53.7 0.0 -54.0 -0.7 -53.7 -1.0 -53.0 -1.0 -49.0 -0.95 -48.7 -3.0 -46.0 -4.45 -48.2" fill="none" stroke="#1b1b1d" stroke-linecap="round" stroke-linejoin="round" stroke-opacity="0.2" stroke-width="1.0"/>
    <path d="M0.0 -73.0 L3.05 -73.0 Q2.85 -63.0 2.95 -58.45 3.1 -50.5 4.5 -48.2 L3.05 -46.0 0.95 -48.7 1.0 -49.0 1.0 -53.0 0.7 -53.7 0.0 -54.0 0.0 -73.0" fill="url(#gradient19)" fill-rule="evenodd" stroke="none"/>
    <path d="M0.0 -54.0 L-0.7 -53.7 -1.0 -53.0 -1.0 -49.0 -0.95 -48.7 -3.0 -46.0 -4.45 -48.2 Q-3.05 -50.5 -2.9 -58.45 -2.8 -63.0 -3.0 -73.0 L0.0 -73.0 0.0 -54.0" fill="url(#gradient20)" fill-rule="evenodd" stroke="none"/>
    <path d="M3.0 -73.0 L0.0 -70.0 -3.0 -73.0 0.0 -78.0 3.0 -73.0" fill="#ffffff" fill-rule="evenodd" stroke="none"/>
    <path d="M2.0 -14.0 L-2.0 -14.0 -2.0 -15.0 2.0 -15.0 2.0 -14.0 M3.0 -25.5 L-3.0 -25.5 -3.0 -26.5 3.0 -26.5 3.0 -25.5 M-3.0 74.0 L3.0 74.0 3.0 75.0 -3.0 75.0 -3.0 74.0 M-2.0 55.0 L2.0 55.0 2.0 56.0 -2.0 56.0 -2.0 55.0 M-2.0 61.0 L2.0 61.0 2.0 62.0 -2.0 62.0 -2.0 61.0 M-2.0 57.0 L2.0 57.0 2.0 58.0 -2.0 58.0 -2.0 57.0" fill="#000000" fill-opacity="0.15294118" fill-rule="evenodd" stroke="none"/>
    <path d="M4.0 -38.0 L-4.0 -38.0 -4.0 -39.0 4.0 -39.0 4.0 -38.0" fill="#000000" fill-opacity="0.2509804" fill-rule="evenodd" stroke="none"/>
    <path d="M2.35 -27.85 L2.5 -27.5 2.35 -27.15 Q2.2 -27.0 2.0 -27.0 L-2.0 -27.0 Q-2.2 -27.0 -2.35 -27.15 L-2.5 -27.5 -2.35 -27.85 -2.0 -28.0 2.0 -28.0 2.35 -27.85" fill="url(#gradient21)" fill-rule="evenodd" stroke="none"/>
    <path d="M2.35 -26.15 Q2.2 -26.0 2.0 -26.0 L-2.0 -26.0 Q-2.2 -26.0 -2.35 -26.15 L-2.5 -26.5 -2.35 -26.85 -2.0 -27.0 2.0 -27.0 2.35 -26.85 2.5 -26.5 2.35 -26.15" fill="url(#gradient22)" fill-rule="evenodd" stroke="none"/>
    <path d="M-2.95 -25.7 L-3.0 -26.1 -2.65 -27.05 -2.35 -27.3 -2.0 -27.35 -1.7 -27.1 -1.7 -26.75 -2.05 -25.8 -2.3 -25.5 -2.7 -25.5 -2.95 -25.7" fill="url(#gradient23)" fill-rule="evenodd" stroke="none"/>
    <path d="M-11.0 -12.0 Q-8.85 -19.3 -5.0 -24.0 L-2.0 -23.0 Q-1.9 -16.4 -3.0 -10.0 -7.8 -9.5 -11.0 -12.0" fill="url(#gradient24)" fill-rule="evenodd" stroke="none"/>
    <path d="M-4.0 -10.0 Q-2.85 -15.9 -3.0 -22.0" fill="none" stroke="#949356" stroke-linecap="round" stroke-linejoin="round" stroke-opacity="0.5019608" stroke-width="0.25"/>
    <path d="M-5.1 -9.95 Q-4.65 -11.3 -4.25 -14.9" fill="none" stroke="#858550" stroke-linecap="round" stroke-linejoin="round" stroke-opacity="0.5019608" stroke-width="0.25"/>
    <path d="M-9.95 -11.4 Q-8.75 -16.2 -7.0 -19.0" fill="none" stroke="#9a9565" stroke-linecap="round" stroke-linejoin="round" stroke-opacity="0.5019608" stroke-width="0.25"/>
    <path d="M-5.55 -23.65 Q-5.15 -24.75 -4.25 -25.4 -3.35 -26.05 -2.6 -25.8 -1.85 -25.5 -1.65 -24.45 -1.4 -23.4 -1.8 -22.3 L-5.55 -23.65" fill="url(#gradient25)" fill-rule="evenodd" stroke="none"/>
  </g>
  <defs>
    <linearGradient gradientTransform="matrix(0.0024, 0.0, 0.0, 0.0616, 0.0, 19.5)" gradientUnits="userSpaceOnUse" id="gradient0" spreadMethod="pad" x1="-819.2" x2="819.2">
      <stop offset="0.0" stop-color="#3f4a6b"/>
      <stop offset="0.11764705882352941" stop-color="#1f263d"/>
      <stop offset="0.27058823529411763" stop-color="#344461"/>
      <stop offset="0.4588235294117647" stop-color="#446091"/>
      <stop offset="0.5568627450980392" stop-color="#446091"/>
      <stop offset="0.7176470588235294" stop-color="#344461"/>
      <stop offset="0.8784313725490196" stop-color="#1f263d"/>
      <stop offset="1.0" stop-color="#3f4a6b"/>
    </linearGradient>
    <linearGradient gradientTransform="matrix(0.0024, 0.0, 0.0, 0.0055, 0.0, 65.5)" gradientUnits="userSpaceOnUse" id="gradient1" spreadMethod="pad" x1="-819.2" x2="819.2">
      <stop offset="0.0" stop-color="#705b47"/>
      <stop offset="0.0784313725490196" stop-color="#48362f"/>
      <stop offset="0.15294117647058825" stop-color="#4f4031"/>
      <stop offset="0.26666666666666666" stop-color="#7e6656"/>
      <stop offset="0.43529411764705883" stop-color="#a3897e"/>
      <stop offset="0.5529411764705883" stop-color="#a3897e"/>
      <stop offset="0.7019607843137254" stop-color="#7e6656"/>
      <stop offset="0.8235294117647058" stop-color="#4f4031"/>
      <stop offset="0.8941176470588236" stop-color="#48362f"/>
      <stop offset="1.0" stop-color="#705b47"/>
    </linearGradient>
    <linearGradient gradientTransform="matrix(0.0024, 0.0, 0.0, 0.0018, 0.0, 58.5)" gradientUnits="userSpaceOnUse" id="gradient2" spreadMethod="pad" x1="-819.2" x2="819.2">
      <stop offset="0.0" stop-color="#705b47"/>
      <stop offset="0.0784313725490196" stop-color="#48362f"/>
      <stop offset="0.15294117647058825" stop-color="#4f4031"/>
      <stop offset="0.26666666666666666" stop-color="#7e6656"/>
      <stop offset="0.43529411764705883" stop-color="#a3897e"/>
      <stop offset="0.5529411764705883" stop-color="#a3897e"/>
      <stop offset="0.7019607843137254" stop-color="#7e6656"/>
      <stop offset="0.8235294117647058" stop-color="#4f4031"/>
      <stop offset="0.8941176470588236" stop-color="#48362f"/>
      <stop offset="1.0" stop-color="#705b47"/>
    </linearGradient>
    <linearGradient gradientTransform="matrix(0.0037, 0.0, 0.0, 6.0E-4, 0.0, 56.5)" gradientUnits="userSpaceOnUse" id="gradient3" spreadMethod="pad" x1="-819.2" x2="819.2">
      <stop offset="0.0" stop-color="#705b47"/>
      <stop offset="0.0784313725490196" stop-color="#48362f"/>
      <stop offset="0.15294117647058825" stop-color="#4f4031"/>
      <stop offset="0.26666666666666666" stop-color="#7e6656"/>
      <stop offset="0.43529411764705883" stop-color="#a3897e"/>
      <stop offset="0.5529411764705883" stop-color="#a3897e"/>
      <stop offset="0.7019607843137254" stop-color="#7e6656"/>
      <stop offset="0.8235294117647058" stop-color="#4f4031"/>
      <stop offset="0.8941176470588236" stop-color="#48362f"/>
      <stop offset="1.0" stop-color="#705b47"/>
    </linearGradient>
    <linearGradient gradientTransform="matrix(0.0037, 0.0, 0.0, 6.0E-4, 0.0, 60.5)" gradientUnits="userSpaceOnUse" id="gradient4" spreadMethod="pad" x1="-819.2" x2="819.2">
      <stop offset="0.0" stop-color="#705b47"/>
      <stop offset="0.0784313725490196" stop-color="#48362f"/>
      <stop offset="0.15294117647058825" stop-color="#4f4031"/>
      <stop offset="0.26666666666666666" stop-color="#7e6656"/>
      <stop offset="0.43529411764705883" stop-color="#a3897e"/>
      <stop offset="0.5529411764705883" stop-color="#a3897e"/>
      <stop offset="0.7019607843137254" stop-color="#7e6656"/>
      <stop offset="0.8235294117647058" stop-color="#4f4031"/>
      <stop offset="0.8941176470588236" stop-color="#48362f"/>
      <stop offset="1.0" stop-color="#705b47"/>
    </linearGradient>
    <linearGradient gradientTransform="matrix(0.0028, 0.0, 0.0, 0.0073, 0.0, -23.0)" gradientUnits="userSpaceOnUse" id="gradient5" spreadMethod="pad" x1="-819.2" x2="819.2">
      <stop offset="0.0" stop-color="#705b47"/>
      <stop offset="0.0784313725490196" stop-color="#48362f"/>
      <stop offset="0.15294117647058825" stop-color="#4f4031"/>
      <stop offset="0.26666666666666666" stop-color="#7e6656"/>
      <stop offset="0.43529411764705883" stop-color="#a3897e"/>
      <stop offset="0.5529411764705883" stop-color="#a3897e"/>
      <stop offset="0.7019607843137254" stop-color="#7e6656"/>
      <stop offset="0.8235294117647058" stop-color="#4f4031"/>
      <stop offset="0.8941176470588236" stop-color="#48362f"/>
      <stop offset="1.0" stop-color="#705b47"/>
    </linearGradient>
    <linearGradient gradientTransform="matrix(0.0024, 0.0, 0.0, 6.0E-4, 0.0, -43.5)" gradientUnits="userSpaceOnUse" id="gradient6" spreadMethod="pad" x1="-819.2" x2="819.2">
      <stop offset="0.0" stop-color="#705b47"/>
      <stop offset="0.0784313725490196" stop-color="#48362f"/>
      <stop offset="0.15294117647058825" stop-color="#4f4031"/>
      <stop offset="0.26666666666666666" stop-color="#7e6656"/>
      <stop offset="0.43529411764705883" stop-color="#a3897e"/>
      <stop offset="0.5529411764705883" stop-color="#a3897e"/>
      <stop offset="0.7019607843137254" stop-color="#7e6656"/>
      <stop offset="0.8235294117647058" stop-color="#4f4031"/>
      <stop offset="0.8941176470588236" stop-color="#48362f"/>
      <stop offset="1.0" stop-color="#705b47"/>
    </linearGradient>
    <linearGradient gradientTransform="matrix(0.0037, 0.0, 0.0, 6.0E-4, 0.0, -30.5)" gradientUnits="userSpaceOnUse" id="gradient7" spreadMethod="pad" x1="-819.2" x2="819.2">
      <stop offset="0.0" stop-color="#705b47"/>
      <stop offset="0.0784313725490196" stop-color="#48362f"/>
      <stop offset="0.15294117647058825" stop-color="#4f4031"/>
      <stop offset="0.26666666666666666" stop-color="#7e6656"/>
      <stop offset="0.43529411764705883" stop-color="#a3897e"/>
      <stop offset="0.5529411764705883" stop-color="#a3897e"/>
      <stop offset="0.7019607843137254" stop-color="#7e6656"/>
      <stop offset="0.8235294117647058" stop-color="#4f4031"/>
      <stop offset="0.8941176470588236" stop-color="#48362f"/>
      <stop offset="1.0" stop-color="#705b47"/>
    </linearGradient>
    <radialGradient cx="0" cy="0" gradientTransform="matrix(0.0031, 0.0, 0.0, 0.0141, 0.0, 73.05)" gradientUnits="userSpaceOnUse" id="gradient8" r="819.2" spreadMethod="pad">
      <stop offset="0.0" stop-color="#ccbdb9"/>
      <stop offset="0.30196078431372547" stop-color="#a78e83"/>
      <stop offset="0.39215686274509803" stop-color="#91786b"/>
      <stop offset="0.7098039215686275" stop-color="#402e2b"/>
      <stop offset="0.8156862745098039" stop-color="#624a40"/>
      <stop offset="1.0" stop-color="#342621"/>
    </radialGradient>
    <radialGradient cx="0" cy="0" gradientTransform="matrix(0.0057, 0.0, 0.0, 0.0012, 0.0, 73.5)" gradientUnits="userSpaceOnUse" id="gradient9" r="819.2" spreadMethod="pad">
      <stop offset="0.10980392156862745" stop-color="#ddcfcc"/>
      <stop offset="0.3137254901960784" stop-color="#cebab0"/>
      <stop offset="0.43137254901960786" stop-color="#b69789"/>
      <stop offset="0.6784313725490196" stop-color="#4e3832"/>
      <stop offset="0.9568627450980393" stop-color="#5a423a"/>
    </radialGradient>
    <radialGradient cx="0" cy="0" gradientTransform="matrix(0.0037, 0.0, 0.0, 0.0037, 0.0, 74.0)" gradientUnits="userSpaceOnUse" id="gradient10" r="819.2" spreadMethod="pad">
      <stop offset="0.10980392156862745" stop-color="#ddcfcc"/>
      <stop offset="0.3137254901960784" stop-color="#cebab0"/>
      <stop offset="0.43137254901960786" stop-color="#b69789"/>
      <stop offset="0.6784313725490196" stop-color="#4e3832"/>
      <stop offset="0.9568627450980393" stop-color="#5a423a"/>
    </radialGradient>
    <radialGradient cx="0" cy="0" gradientTransform="matrix(0.0044, 0.0, 0.0, 0.0044, 0.0, 77.0)" gradientUnits="userSpaceOnUse" id="gradient11" r="819.2" spreadMethod="pad">
      <stop offset="0.10980392156862745" stop-color="#ddcfcc"/>
      <stop offset="0.3137254901960784" stop-color="#cebab0"/>
      <stop offset="0.43137254901960786" stop-color="#b69789"/>
      <stop offset="0.6784313725490196" stop-color="#4e3832"/>
      <stop offset="0.9568627450980393" stop-color="#5a423a"/>
    </radialGradient>
    <linearGradient gradientTransform="matrix(0.0037, 0.0, 0.0, 6.0E-4, 0.0, 77.5)" gradientUnits="userSpaceOnUse" id="gradient12" spreadMethod="pad" x1="-819.2" x2="819.2">
      <stop offset="0.0" stop-color="#4e3832"/>
      <stop offset="0.3137254901960784" stop-color="#55413a"/>
      <stop offset="0.4549019607843137" stop-color="#55413a"/>
      <stop offset="0.5607843137254902" stop-color="#55413a"/>
      <stop offset="0.6941176470588235" stop-color="#55413a"/>
      <stop offset="1.0" stop-color="#4e3832"/>
    </linearGradient>
    <radialGradient cx="0" cy="0" gradientTransform="matrix(0.0059, 0.0, 0.0, 0.0026, 0.0, -32.0)" gradientUnits="userSpaceOnUse" id="gradient13" r="819.2" spreadMethod="pad">
      <stop offset="0.10980392156862745" stop-color="#ba9e9a"/>
      <stop offset="0.3137254901960784" stop-color="#a3877e"/>
      <stop offset="0.43137254901960786" stop-color="#876f63"/>
      <stop offset="0.6784313725490196" stop-color="#4e3832"/>
      <stop offset="0.9568627450980393" stop-color="#5a423a"/>
    </radialGradient>
    <radialGradient cx="0" cy="0" gradientTransform="matrix(0.0064, 0.0, 0.0, 0.0064, 0.0, -43.05)" gradientUnits="userSpaceOnUse" id="gradient14" r="819.2" spreadMethod="pad">
      <stop offset="0.10980392156862745" stop-color="#ba9e9a"/>
      <stop offset="0.3137254901960784" stop-color="#a3877e"/>
      <stop offset="0.43137254901960786" stop-color="#876f63"/>
      <stop offset="0.6784313725490196" stop-color="#4e3832"/>
      <stop offset="0.9568627450980393" stop-color="#5a423a"/>
    </radialGradient>
    <linearGradient gradientTransform="matrix(0.0024, 0.0, 0.0, 0.0012, 0.0, -16.0)" gradientUnits="userSpaceOnUse" id="gradient15" spreadMethod="pad" x1="-819.2" x2="819.2">
      <stop offset="0.0" stop-color="#6a6a6a"/>
      <stop offset="0.06666666666666667" stop-color="#555555"/>
      <stop offset="0.27058823529411763" stop-color="#838383"/>
      <stop offset="0.47058823529411764" stop-color="#bfbfbf"/>
      <stop offset="0.5372549019607843" stop-color="#bfbfbf"/>
      <stop offset="0.7176470588235294" stop-color="#838383"/>
      <stop offset="0.9372549019607843" stop-color="#555555"/>
      <stop offset="1.0" stop-color="#6a6a6a"/>
    </linearGradient>
    <linearGradient gradientTransform="matrix(0.0031, 0.0, 0.0, 6.0E-4, 0.0, -29.5)" gradientUnits="userSpaceOnUse" id="gradient16" spreadMethod="pad" x1="-819.2" x2="819.2">
      <stop offset="0.0" stop-color="#6a6a6a"/>
      <stop offset="0.14901960784313725" stop-color="#555555"/>
      <stop offset="0.27058823529411763" stop-color="#838383"/>
      <stop offset="0.4549019607843137" stop-color="#bfbfbf"/>
      <stop offset="0.5647058823529412" stop-color="#bfbfbf"/>
      <stop offset="0.7176470588235294" stop-color="#838383"/>
      <stop offset="0.8235294117647058" stop-color="#555555"/>
      <stop offset="0.9764705882352941" stop-color="#6a6a6a"/>
    </linearGradient>
    <linearGradient gradientTransform="matrix(0.0037, 0.0, 0.0, 0.0043, 0.0, -36.5)" gradientUnits="userSpaceOnUse" id="gradient17" spreadMethod="pad" x1="-819.2" x2="819.2">
      <stop offset="0.0" stop-color="#606060"/>
      <stop offset="0.2" stop-color="#555555"/>
      <stop offset="0.3058823529411765" stop-color="#838383"/>
      <stop offset="0.4549019607843137" stop-color="#d5d5d5"/>
      <stop offset="0.5098039215686274" stop-color="#d5d5d5"/>
      <stop offset="0.5686274509803921" stop-color="#d5d5d5"/>
      <stop offset="0.7372549019607844" stop-color="#838383"/>
      <stop offset="0.8117647058823529" stop-color="#606060"/>
      <stop offset="1.0" stop-color="#6d6d6d"/>
    </linearGradient>
    <linearGradient gradientTransform="matrix(0.0024, 0.0, 0.0, 0.0073, 0.0, -49.0)" gradientUnits="userSpaceOnUse" id="gradient18" spreadMethod="pad" x1="-819.2" x2="819.2">
      <stop offset="0.0" stop-color="#555555"/>
      <stop offset="0.11764705882352941" stop-color="#2b2b2b"/>
      <stop offset="0.4588235294117647" stop-color="#6d6d6d"/>
      <stop offset="0.5568627450980392" stop-color="#6d6d6d"/>
      <stop offset="0.8823529411764706" stop-color="#2b2b2b"/>
      <stop offset="1.0" stop-color="#555555"/>
    </linearGradient>
    <linearGradient gradientTransform="matrix(0.0067, -0.0105, 0.0138, 0.0089, 2.3, -59.55)" gradientUnits="userSpaceOnUse" id="gradient19" spreadMethod="pad" x1="-819.2" x2="819.2">
      <stop offset="0.00784313725490196" stop-color="#eaeaea"/>
      <stop offset="0.1803921568627451" stop-color="#b0b0b0"/>
      <stop offset="0.33725490196078434" stop-color="#b5b5b5"/>
      <stop offset="0.615686274509804" stop-color="#ffffff"/>
      <stop offset="0.7843137254901961" stop-color="#ffffff"/>
      <stop offset="1.0" stop-color="#d2cece"/>
    </linearGradient>
    <linearGradient gradientTransform="matrix(0.0084, -0.0123, 0.0136, 0.0093, -2.15, -60.1)" gradientUnits="userSpaceOnUse" id="gradient20" spreadMethod="pad" x1="-819.2" x2="819.2">
      <stop offset="0.0" stop-color="#919191"/>
      <stop offset="0.14901960784313725" stop-color="#6f6f6f"/>
      <stop offset="0.28627450980392155" stop-color="#666666"/>
      <stop offset="0.5843137254901961" stop-color="#a6a6a6"/>
      <stop offset="0.7176470588235294" stop-color="#a3a3a3"/>
      <stop offset="1.0" stop-color="#a3a3a3"/>
    </linearGradient>
    <radialGradient cx="0" cy="0" gradientTransform="matrix(0.0043, 0.0, 0.0, 0.0016, 0.0, -27.5)" gradientUnits="userSpaceOnUse" id="gradient21" r="819.2" spreadMethod="pad">
      <stop offset="0.054901960784313725" stop-color="#9aa55a"/>
      <stop offset="0.396078431372549" stop-color="#706f3a"/>
      <stop offset="0.5568627450980392" stop-color="#53532d"/>
      <stop offset="0.7333333333333333" stop-color="#37341e"/>
    </radialGradient>
    <radialGradient cx="0" cy="0" gradientTransform="matrix(0.0041, 0.0, 0.0, 0.0016, 0.0, -26.5)" gradientUnits="userSpaceOnUse" id="gradient22" r="819.2" spreadMethod="pad">
      <stop offset="0.054901960784313725" stop-color="#89834b"/>
      <stop offset="0.39215686274509803" stop-color="#605835"/>
      <stop offset="0.5254901960784314" stop-color="#514d2f"/>
      <stop offset="0.7333333333333333" stop-color="#38351d"/>
    </radialGradient>
    <radialGradient cx="0" cy="0" gradientTransform="matrix(0.001, 4.0E-4, -5.0E-4, 0.0014, -2.35, -26.4)" gradientUnits="userSpaceOnUse" id="gradient23" r="819.2" spreadMethod="pad">
      <stop offset="0.054901960784313725" stop-color="#858050"/>
      <stop offset="0.39215686274509803" stop-color="#6b663f"/>
      <stop offset="0.5254901960784314" stop-color="#5e5c37"/>
      <stop offset="0.7333333333333333" stop-color="#423f28"/>
    </radialGradient>
    <radialGradient cx="0" cy="0" gradientTransform="matrix(0.0068, 0.0022, -0.0079, 0.024, -3.75, -23.1)" gradientUnits="userSpaceOnUse" id="gradient24" r="819.2" spreadMethod="pad">
      <stop offset="0.027450980392156862" stop-color="#bbba6f"/>
      <stop offset="0.32941176470588235" stop-color="#979653"/>
      <stop offset="0.5176470588235295" stop-color="#827c53"/>
      <stop offset="0.6666666666666666" stop-color="#6a6340"/>
      <stop offset="1.0" stop-color="#343321"/>
    </radialGradient>
    <radialGradient cx="0" cy="0" gradientTransform="matrix(0.0036, 0.0012, -0.0012, 0.0038, -3.65, -22.95)" gradientUnits="userSpaceOnUse" id="gradient25" r="819.2" spreadMethod="pad">
      <stop offset="0.0" stop-color="#dccd4e"/>
      <stop offset="0.22745098039215686" stop-color="#a69544"/>
      <stop offset="0.4" stop-color="#8b8234"/>
      <stop offset="0.6549019607843137" stop-color="#706225"/>
      <stop offset="0.9176470588235294" stop-color="#5e5e22"/>
    </radialGradient>
  </defs>
</svg>
