<?xml version="1.0" encoding="UTF-8" standalone="no"?>
<svg xmlns:xlink="http://www.w3.org/1999/xlink" height="95.1px" width="118.0px" xmlns="http://www.w3.org/2000/svg">
  <g transform="matrix(1.0, 0.0, 0.0, 1.0, 60.5, 41.6)">
    <path d="M39.85 -30.35 L41.2 -31.85 41.35 -32.0 40.05 -32.3 40.0 -32.3 36.55 -32.2 35.95 -31.1 39.85 -30.35 M39.7 -41.5 L43.55 -41.3 Q45.5 -40.95 47.0 -40.3 L47.75 -39.8 Q54.7 -33.15 52.5 -28.0 L55.5 -27.45 Q56.15 -27.35 56.65 -26.85 L57.4 -25.7 Q57.6 -25.05 57.45 -24.4 L45.6 23.9 45.15 24.85 44.35 25.5 44.2 25.6 42.25 33.3 Q41.95 34.3 41.05 34.85 L9.25 53.2 8.2 53.5 7.1 53.35 -41.75 34.75 -42.65 34.15 -43.2 33.2 -43.25 33.05 -43.3 32.95 -45.15 26.4 -46.0 25.8 -46.6 24.75 -60.4 -24.3 Q-60.6 -25.0 -60.4 -25.65 -60.25 -26.3 -59.75 -26.75 -59.25 -27.25 -58.6 -27.4 L-9.6 -39.4 -8.55 -39.45 24.85 -33.15 Q25.2 -34.5 26.0 -35.5 28.15 -38.4 31.55 -39.8 34.6 -41.15 39.7 -41.5" fill="#000000" fill-rule="evenodd" stroke="none"/>
    <path d="M39.8 32.7 L8.0 51.0 8.25 42.05 Q25.25 32.65 42.2 23.2 L39.8 32.7" fill="url(#gradient0)" fill-rule="evenodd" stroke="none"/>
    <path d="M8.25 42.05 L8.0 51.0 -40.85 32.4 -40.9 32.25 -43.1 24.3 8.25 42.05" fill="url(#gradient1)" fill-rule="evenodd" stroke="none"/>
    <path d="M55.0 -24.0 L43.15 24.3 8.25 43.05 -44.2 25.05 -58.0 -24.0 10.0 -7.0 55.0 -24.0" fill="#000000" fill-opacity="0.3019608" fill-rule="evenodd" stroke="none"/>
    <path d="M-44.2 24.05 L-58.0 -25.0 8.25 42.05 -44.2 24.05" fill="url(#gradient2)" fill-rule="evenodd" stroke="none"/>
    <path d="M8.25 42.05 L-58.0 -25.0 10.0 -8.0 8.25 42.05" fill="url(#gradient3)" fill-rule="evenodd" stroke="none"/>
    <path d="M-58.0 -25.0 L-53.35 -23.8 8.4 38.65 8.25 42.05 2.9 40.2 -56.6 -20.05 -58.0 -25.0" fill="url(#gradient4)" fill-rule="evenodd" stroke="none"/>
    <path d="M55.0 -25.0 L43.15 23.3 8.25 42.05 10.0 -8.0 55.0 -25.0" fill="url(#gradient5)" fill-rule="evenodd" stroke="none"/>
    <path d="M10.0 -8.0 L-58.0 -25.0 -9.0 -37.0 55.0 -25.0 10.0 -8.0" fill="url(#gradient6)" fill-rule="evenodd" stroke="none"/>
    <path d="M25.0 -32.0 L29.15 -32.05 29.15 -26.0 26.0 -25.0 Q25.15 -26.45 24.95 -28.9 24.8 -30.6 25.0 -32.0 M40.0 -29.0 L45.0 -28.0 36.85 -22.95 34.9 -24.7 40.0 -29.0" fill="#000000" fill-opacity="0.2509804" fill-rule="evenodd" stroke="none"/>
    <path d="M18.0 -7.75 L26.0 -20.0 30.0 -20.0 25.0 -6.0 18.0 -7.75" fill="url(#gradient7)" fill-rule="evenodd" stroke="none"/>
    <path d="M40.0 -39.0 L43.1 -38.85 46.0 -38.0 46.0 -32.0 Q43.65 -34.3 40.4 -34.8 37.2 -35.35 34.0 -34.0 36.0 -36.95 40.0 -39.0" fill="url(#gradient8)" fill-rule="evenodd" stroke="none"/>
    <path d="M40.0 -39.0 Q33.0 -34.9 32.0 -26.0 L28.0 -26.0 Q26.15 -31.55 28.0 -34.0 29.75 -36.35 32.5 -37.5 35.3 -38.7 40.0 -39.0" fill="url(#gradient9)" fill-rule="evenodd" stroke="none"/>
    <path d="M46.0 -38.0 Q52.7 -31.6 48.9 -27.2 45.25 -23.05 36.0 -24.0 40.75 -27.35 43.15 -30.3 46.2 -34.1 46.0 -38.0" fill="url(#gradient10)" fill-rule="evenodd" stroke="none"/>
    <path d="M9.0 -18.0 L26.0 -23.0 26.0 -21.0 14.75 -15.25 9.0 -18.0" fill="url(#gradient11)" fill-rule="evenodd" stroke="none"/>
    <path d="M40.0 -23.0 Q40.0 -21.35 37.05 -20.2 34.15 -19.0 30.0 -19.0 25.85 -19.0 22.9 -20.2 20.0 -21.35 20.0 -23.0 20.0 -24.65 22.9 -25.85 25.85 -27.0 30.0 -27.0 34.15 -27.0 37.05 -25.85 40.0 -24.65 40.0 -23.0" fill="url(#gradient12)" fill-rule="evenodd" stroke="none"/>
  </g>
  <defs>
    <linearGradient gradientTransform="matrix(-0.0224, -0.0224, 0.012, -0.012, 35.1, 4.65)" gradientUnits="userSpaceOnUse" id="gradient0" spreadMethod="pad" x1="-819.2" x2="819.2">
      <stop offset="0.11372549019607843" stop-color="#aca9a8"/>
      <stop offset="1.0" stop-color="#69625c"/>
    </linearGradient>
    <linearGradient gradientTransform="matrix(0.0187, -0.0324, 0.0141, 0.0081, -18.55, 11.3)" gradientUnits="userSpaceOnUse" id="gradient1" spreadMethod="pad" x1="-819.2" x2="819.2">
      <stop offset="0.11372549019607843" stop-color="#e7e4e4"/>
      <stop offset="1.0" stop-color="#cac5c1"/>
    </linearGradient>
    <linearGradient gradientTransform="matrix(0.0178, -0.0308, 0.0353, 0.0204, -24.75, 8.55)" gradientUnits="userSpaceOnUse" id="gradient2" spreadMethod="pad" x1="-819.2" x2="819.2">
      <stop offset="0.07058823529411765" stop-color="#5a5656"/>
      <stop offset="1.0" stop-color="#242222"/>
    </linearGradient>
    <linearGradient gradientTransform="matrix(0.0179, -0.0309, 0.0353, 0.0205, -25.5, 8.15)" gradientUnits="userSpaceOnUse" id="gradient3" spreadMethod="pad" x1="-819.2" x2="819.2">
      <stop offset="0.11764705882352941" stop-color="#a7a09e"/>
      <stop offset="0.7764705882352941" stop-color="#817b76"/>
    </linearGradient>
    <linearGradient gradientTransform="matrix(-0.0177, 0.0307, -0.0354, -0.0204, -24.8, 8.5)" gradientUnits="userSpaceOnUse" id="gradient4" spreadMethod="pad" x1="-819.2" x2="819.2">
      <stop offset="0.26666666666666666" stop-color="#d5800d"/>
      <stop offset="1.0" stop-color="#f9ba68"/>
    </linearGradient>
    <linearGradient gradientTransform="matrix(-0.0238, -0.0237, 0.0288, -0.0289, 31.6, 8.5)" gradientUnits="userSpaceOnUse" id="gradient5" spreadMethod="pad" x1="-819.2" x2="819.2">
      <stop offset="0.0784313725490196" stop-color="#373433"/>
      <stop offset="1.0" stop-color="#2d2b28"/>
    </linearGradient>
    <linearGradient gradientTransform="matrix(0.0, 0.0192, -0.0176, 0.0, -1.95, -23.45)" gradientUnits="userSpaceOnUse" id="gradient6" spreadMethod="pad" x1="-819.2" x2="819.2">
      <stop offset="0.0" stop-color="#6388ac"/>
      <stop offset="0.5764705882352941" stop-color="#a3bcd3"/>
      <stop offset="0.9764705882352941" stop-color="#d9eefb"/>
    </linearGradient>
    <linearGradient gradientTransform="matrix(1.0E-4, -0.0082, 0.0085, 1.0E-4, 24.0, -13.0)" gradientUnits="userSpaceOnUse" id="gradient7" spreadMethod="pad" x1="-819.2" x2="819.2">
      <stop offset="0.6039215686274509" stop-color="#eeecec"/>
      <stop offset="0.6039215686274509" stop-color="#eeecec"/>
      <stop offset="1.0" stop-color="#bfbfbf"/>
    </linearGradient>
    <linearGradient gradientTransform="matrix(-0.0073, -4.0E-4, 2.0E-4, -0.0043, 40.0, -35.55)" gradientUnits="userSpaceOnUse" id="gradient8" spreadMethod="pad" x1="-819.2" x2="819.2">
      <stop offset="0.0" stop-color="#a46613"/>
      <stop offset="0.16470588235294117" stop-color="#ca7d17"/>
      <stop offset="1.0" stop-color="#e1a00a"/>
    </linearGradient>
    <linearGradient gradientTransform="matrix(-4.0E-4, 0.0079, -0.0079, -4.0E-4, 34.45, -32.55)" gradientUnits="userSpaceOnUse" id="gradient9" spreadMethod="pad" x1="-819.2" x2="819.2">
      <stop offset="0.1450980392156863" stop-color="#cdc7c7"/>
      <stop offset="0.29411764705882354" stop-color="#eeecec"/>
      <stop offset="0.5490196078431373" stop-color="#eeecec"/>
      <stop offset="0.9568627450980393" stop-color="#b6aeab"/>
    </linearGradient>
    <linearGradient gradientTransform="matrix(-0.006, 0.0064, -0.0063, -0.0059, 46.65, -27.85)" gradientUnits="userSpaceOnUse" id="gradient10" spreadMethod="pad" x1="-819.2" x2="819.2">
      <stop offset="0.16470588235294117" stop-color="#ddd9d9"/>
      <stop offset="0.27450980392156865" stop-color="#ffffff"/>
      <stop offset="0.47058823529411764" stop-color="#ffffff"/>
      <stop offset="0.8823529411764706" stop-color="#bfbfbf"/>
    </linearGradient>
    <linearGradient gradientTransform="matrix(0.0052, -0.006, 0.0037, 0.0032, 17.05, -19.05)" gradientUnits="userSpaceOnUse" id="gradient11" spreadMethod="pad" x1="-819.2" x2="819.2">
      <stop offset="0.32941176470588235" stop-color="#edebeb"/>
      <stop offset="0.8392156862745098" stop-color="#d2d1d1"/>
      <stop offset="0.9215686274509803" stop-color="#bfbfbf"/>
    </linearGradient>
    <linearGradient gradientTransform="matrix(0.0016, 0.0058, -0.0047, 0.0013, 30.0, -23.0)" gradientUnits="userSpaceOnUse" id="gradient12" spreadMethod="pad" x1="-819.2" x2="819.2">
      <stop offset="0.0196078431372549" stop-color="#9f8d57"/>
      <stop offset="0.16470588235294117" stop-color="#7c6d43"/>
      <stop offset="0.8235294117647058" stop-color="#b3a06f"/>
      <stop offset="0.9450980392156862" stop-color="#d7cdb5"/>
    </linearGradient>
  </defs>
</svg>
