<?xml version="1.0" encoding="UTF-8" standalone="no"?>
<svg xmlns:xlink="http://www.w3.org/1999/xlink" height="384.75px" width="1023.25px" xmlns="http://www.w3.org/2000/svg">
  <g transform="matrix(1.0, 0.0, 0.0, 1.0, 512.0, 329.5)">
    <path d="M-464.5 -311.5 L-416.75 -317.0 -127.5 -329.5 176.75 -324.25 314.0 -313.5 446.75 -223.25 479.75 -194.75 480.0 -138.5 425.25 -141.75 178.5 -150.75 -128.5 -153.25 -420.75 -147.25 -464.25 -144.75 -464.5 -311.5" fill="#cfcfcf" fill-rule="evenodd" stroke="none"/>
    <path d="M314.0 -313.5 L443.5 -303.25 511.25 -293.0 511.25 -136.5 480.0 -138.5 479.75 -194.75 446.75 -223.25 314.0 -313.5 M-464.25 -144.75 L-512.0 -142.25 -512.0 -305.75 -464.5 -311.5 -464.25 -144.75" fill="#cdcdcd" fill-rule="evenodd" stroke="none"/>
    <path d="M-287.0 21.75 L-233.75 24.5 -185.75 26.0 -26.5 28.0 110.25 27.5 258.5 24.25 293.25 25.25 Q311.5 27.0 312.5 31.0 302.5 42.5 255.5 46.75 L197.0 51.0 108.75 54.25 -14.25 55.25 -121.5 53.75 -225.5 49.0 -257.75 46.5 -287.0 43.0 -287.0 21.75" fill="#c5c5c5" fill-rule="evenodd" stroke="none"/>
    <path d="M-287.0 21.75 L-287.0 43.0 -308.0 39.75 Q-322.5 36.0 -323.0 33.25 L-323.0 16.75 Q-322.5 17.75 -314.25 19.25 L-287.0 21.75" fill="#b8b8b8" fill-rule="evenodd" stroke="none"/>
  </g>
</svg>
