<?xml version="1.0" encoding="UTF-8" standalone="no"?>
<svg xmlns:xlink="http://www.w3.org/1999/xlink" height="317.75px" width="920.1px" xmlns="http://www.w3.org/2000/svg">
  <g transform="matrix(1.0, 0.0, 0.0, 1.0, 512.0, 247.5)">
    <path d="M-254.75 -136.5 L-512.0 -110.0 -512.0 -229.75 -511.0 -230.0 -347.25 -244.75 -254.5 -246.25 -254.75 -136.5" fill="#cccccc" fill-rule="evenodd" stroke="none"/>
    <path d="M-254.5 -246.25 L-164.5 -247.5 -15.25 -238.0 84.75 -223.5 119.5 -205.25 85.25 -184.75 -10.25 -165.0 -147.25 -148.0 -254.75 -136.5 -254.5 -246.25" fill="#cfcfcf" fill-rule="evenodd" stroke="none"/>
    <path d="M377.5 51.5 L357.0 54.75 316.25 59.25 275.0 62.5 218.25 65.75 112.0 69.25 73.5 70.0 -48.75 70.25 -128.5 69.0 -182.75 67.25 -260.75 63.5 -330.75 58.0 -362.25 54.0 -384.25 49.75 -393.5 46.75 -393.5 24.25 -384.5 23.5 -364.25 23.5 -226.75 27.75 -131.5 29.25 71.0 29.75 259.75 27.0 347.25 23.75 377.5 21.75 377.5 51.5" fill="#c7c7c7" fill-rule="evenodd" stroke="none"/>
    <path d="M-393.5 46.75 Q-437.0 29.0 -393.5 24.25 L-393.5 46.75 M377.5 21.75 L401.25 19.25 Q407.25 18.5 408.0 16.75 L408.0 38.25 Q408.5 40.0 406.75 42.5 L400.25 46.0 390.0 49.0 377.5 51.5 377.5 21.75" fill="#c2c2c2" fill-rule="evenodd" stroke="none"/>
  </g>
</svg>
