<?xml version="1.0" encoding="UTF-8" standalone="no"?>
<svg xmlns:xlink="http://www.w3.org/1999/xlink" height="130.25px" width="902.0px" xmlns="http://www.w3.org/2000/svg">
  <g transform="matrix(1.0, 0.0, 0.0, 1.0, 409.0, 59.75)">
    <path d="M471.5 -7.25 L332.0 -10.25 270.25 -13.5 213.0 -18.0 151.5 -25.0 116.75 -32.25 103.5 -40.25 115.75 -47.75 150.75 -53.75 205.75 -58.25 258.25 -59.75 321.25 -59.25 384.0 -56.25 432.0 -52.0 460.25 -48.25 471.5 -46.0 471.5 -7.25" fill="#c7c7c7" fill-rule="evenodd" stroke="none"/>
    <path d="M379.25 23.0 L379.5 50.5 368.25 53.0 341.75 56.75 264.5 63.25 160.5 68.0 88.75 69.75 12.75 70.5 -67.0 70.0 -128.5 69.0 -189.75 67.0 -244.5 64.5 -294.5 61.25 -330.75 58.0 -358.5 54.75 -373.0 52.25 -373.0 22.25 -300.5 25.75 -250.5 27.25 -71.5 29.75 71.0 29.75 201.75 28.25 379.25 23.0" fill="#c8c8c8" fill-rule="evenodd" stroke="none"/>
    <path d="M471.5 -7.25 L471.5 -46.0 Q492.5 -42.25 493.0 -36.75 L493.0 -6.0 471.5 -7.25 M379.25 23.0 L402.5 24.0 Q412.5 25.0 415.5 30.75 409.5 46.25 379.5 50.5 L379.25 23.0 M-373.0 52.25 Q-404.5 47.75 -409.0 40.75 L-409.0 17.0 Q-407.5 18.5 -400.25 19.5 L-373.0 22.25 -373.0 52.25" fill="#bfbfbf" fill-rule="evenodd" stroke="none"/>
  </g>
</svg>
