<?xml version="1.0" encoding="UTF-8" standalone="no"?>
<svg xmlns:xlink="http://www.w3.org/1999/xlink" height="129.5px" width="995.55px" xmlns="http://www.w3.org/2000/svg">
  <g transform="matrix(1.0, 0.0, 0.0, 1.0, 502.0, 67.5)">
    <path d="M-458.5 -48.25 L-445.75 -50.5 -410.0 -54.25 -357.25 -58.25 -296.0 -61.5 -208.0 -64.75 -125.5 -66.5 -20.25 -67.5 80.0 -67.0 162.0 -65.75 243.75 -63.5 354.25 -58.25 388.25 -56.0 446.75 -50.0 462.25 -27.75 471.5 -7.25 385.25 -9.0 260.0 -10.0 -25.75 -10.75 -365.0 -9.25 -458.75 -7.75 -458.5 -48.25" fill="#c9c9c9" fill-rule="evenodd" stroke="none"/>
    <path d="M-390.5 20.75 L-362.0 23.0 -298.5 26.25 -221.5 33.25 -179.25 39.0 -155.75 44.5 -147.75 49.75 -147.5 50.5 -155.25 55.25 -177.5 59.0 -220.0 61.75 -258.25 62.0 -295.25 60.75 -333.5 57.75 -360.5 54.5 -373.0 52.25 -383.0 37.25 -390.5 20.75" fill="#c4c4c4" fill-rule="evenodd" stroke="none"/>
    <path d="M-373.0 52.25 Q-404.5 47.75 -409.0 40.75 L-409.0 17.0 -406.0 18.5 -390.5 20.75 -383.0 37.25 -373.0 52.25" fill="#bfbfbf" fill-rule="evenodd" stroke="none"/>
    <path d="M446.75 -50.0 L460.25 -48.25 479.25 -44.5 491.0 -40.25 Q494.75 -37.25 493.0 -6.0 L471.5 -7.25 462.25 -27.75 446.75 -50.0 M-458.75 -7.75 L-485.75 -7.5 -498.5 -8.5 -502.0 -10.5 -502.0 -31.0 Q-499.25 -43.5 -458.5 -48.25 L-458.75 -7.75" fill="#c2c2c2" fill-rule="evenodd" stroke="none"/>
  </g>
</svg>
