<?xml version="1.0" encoding="UTF-8" standalone="no"?>
<svg xmlns:xlink="http://www.w3.org/1999/xlink" height="292.5px" width="1023.25px" xmlns="http://www.w3.org/2000/svg">
  <g transform="matrix(1.0, 0.0, 0.0, 1.0, 512.0, 51.5)">
    <path d="M-479.25 -44.5 L-471.5 -46.5 -448.5 -49.75 -420.25 -51.5 -381.75 -51.0 -348.75 -48.25 -326.0 -43.25 -317.75 -37.0 -325.25 -29.75 -349.25 -22.25 -378.5 -17.0 -411.25 -12.5 -444.25 -9.0 -479.25 -7.0 -479.25 -44.5" fill="#c1c1c1" fill-rule="evenodd" stroke="none"/>
    <path d="M-486.25 135.0 L-486.25 200.25 -512.0 194.0 -512.0 130.75 -486.25 135.0 M473.0 187.25 L444.75 164.0 404.75 137.5 446.0 131.75 501.75 120.5 511.25 117.5 511.25 174.25 502.25 178.5 473.0 187.25" fill="#c4c4c4" fill-rule="evenodd" stroke="none"/>
    <path d="M-486.25 135.0 L-458.75 139.75 -368.75 149.75 -257.75 157.5 -125.75 162.0 -2.5 162.5 147.5 159.0 265.75 152.25 365.5 143.0 404.75 137.5 444.75 164.0 473.0 187.25 446.75 195.25 367.0 211.75 269.5 225.25 142.0 236.25 13.75 241.0 -126.5 240.25 -257.5 233.5 -369.5 222.0 -457.25 207.5 -486.25 200.25 -486.25 135.0" fill="#cdcdcd" fill-rule="evenodd" stroke="none"/>
    <path d="M296.5 21.0 L296.5 41.25 290.5 42.5 245.5 47.25 217.5 49.25 160.75 51.0 122.0 50.25 95.75 48.25 78.75 45.5 72.25 42.0 78.25 38.0 93.25 34.75 122.75 31.0 180.5 26.5 270.5 22.75 296.5 21.0" fill="#c3c3c3" fill-rule="evenodd" stroke="none"/>
    <path d="M296.5 41.25 L296.5 21.0 313.0 19.25 Q321.5 18.25 321.75 16.0 L321.75 34.0 Q319.25 37.75 296.5 41.25" fill="#bfbfbf" fill-rule="evenodd" stroke="none"/>
    <path d="M-479.25 -7.0 L-493.5 -6.25 -493.5 -38.75 Q-488.25 -43.5 -479.25 -44.5 L-479.25 -7.0" fill="#bbbbbb" fill-rule="evenodd" stroke="none"/>
  </g>
</svg>
