<?xml version="1.0" encoding="UTF-8" standalone="no"?>
<svg xmlns:xlink="http://www.w3.org/1999/xlink" height="208.75px" width="835.5px" xmlns="http://www.w3.org/2000/svg">
  <g transform="matrix(1.0, 0.0, 0.0, 1.0, 512.0, -17.0)">
    <path d="M298.5 41.5 L253.75 46.75 183.75 51.25 90.25 54.25 -36.5 55.0 -120.75 53.5 -192.0 50.75 -255.5 46.5 -279.75 43.75 -302.5 39.25 -302.5 23.0 -273.75 22.75 -190.25 25.75 -111.0 27.25 65.75 27.75 218.75 25.0 282.5 22.0 293.0 33.75 298.5 41.5 M-451.75 189.0 L-484.5 181.75 -511.5 172.75 -512.0 116.25 -484.75 122.5 -451.5 127.5 -451.75 189.0" fill="#c5c5c5" fill-rule="evenodd" stroke="none"/>
    <path d="M-451.5 127.5 L-413.0 133.25 -325.0 142.25 -28.25 168.25 68.25 178.25 122.25 188.25 140.5 198.5 123.5 208.25 73.0 217.0 -6.0 224.0 -113.25 225.75 -224.25 220.5 -330.5 210.25 -415.75 197.25 -451.75 189.0 -451.5 127.5" fill="#cecece" fill-rule="evenodd" stroke="none"/>
    <path d="M282.5 22.0 L306.75 20.25 316.5 19.0 323.5 17.0 323.5 34.0 Q320.0 38.25 298.5 41.5 L293.0 33.75 282.5 22.0 M-302.5 39.25 Q-340.5 26.75 -302.5 23.0 L-302.5 39.25" fill="#b8b8b8" fill-rule="evenodd" stroke="none"/>
  </g>
</svg>
