<?xml version="1.0" encoding="UTF-8" standalone="no"?>
<svg xmlns:xlink="http://www.w3.org/1999/xlink" height="94.8px" width="78.65px" xmlns="http://www.w3.org/2000/svg">
  <g transform="matrix(1.0, 0.0, 0.0, 1.0, 6.85, -33.75)">
    <path d="M71.8 39.25 L71.8 128.55 52.9 128.55 52.9 56.1 Q52.9 52.25 52.0 48.4 51.05 44.7 49.75 42.1 L54.65 41.9 61.35 41.3 67.75 40.45 Q70.75 39.95 71.8 39.25 M8.5 41.3 L14.9 40.45 Q17.9 39.95 18.95 39.25 L18.95 128.55 0.05 128.55 0.05 56.1 Q0.05 52.25 -0.85 48.4 -1.8 44.7 -3.1 42.1 L1.8 41.9 8.5 41.3" fill="#666666" fill-rule="evenodd" stroke="none"/>
    <path d="M11.15 34.95 Q14.15 34.45 15.2 33.75 L15.2 123.05 -3.7 123.05 -3.7 50.6 Q-3.7 46.75 -4.6 42.9 -5.55 39.2 -6.85 36.6 L-1.95 36.4 4.75 35.8 11.15 34.95" fill="url(#gradient0)" fill-rule="evenodd" stroke="none"/>
    <path d="M68.05 33.75 L68.05 123.05 49.15 123.05 49.15 50.6 Q49.15 46.75 48.25 42.9 47.3 39.2 46.0 36.6 L50.9 36.4 57.6 35.8 64.0 34.95 Q67.0 34.45 68.05 33.75" fill="url(#gradient1)" fill-rule="evenodd" stroke="none"/>
  </g>
  <defs>
    <linearGradient gradientTransform="matrix(2.0E-4, -0.0545, 0.0549, 2.0E-4, 107.5, 78.05)" gradientUnits="userSpaceOnUse" id="gradient0" spreadMethod="pad" x1="-819.2" x2="819.2">
      <stop offset="0.0" stop-color="#55000f"/>
      <stop offset="1.0" stop-color="#ff005a"/>
    </linearGradient>
    <linearGradient gradientTransform="matrix(2.0E-4, -0.0545, 0.0549, 2.0E-4, 129.75, 78.05)" gradientUnits="userSpaceOnUse" id="gradient1" spreadMethod="pad" x1="-819.2" x2="819.2">
      <stop offset="0.0" stop-color="#55000f"/>
      <stop offset="1.0" stop-color="#ff005a"/>
    </linearGradient>
  </defs>
</svg>
