<?xml version="1.0" encoding="UTF-8" standalone="no"?>
<svg xmlns:xlink="http://www.w3.org/1999/xlink" height="98.8px" width="46.45px" xmlns="http://www.w3.org/2000/svg">
  <g transform="matrix(1.0, 0.0, 0.0, 1.0, -13.6, -32.9)">
    <path d="M50.45 45.8 Q52.85 48.15 53.8 50.85 54.85 53.55 54.85 56.1 54.85 61.0 52.4 65.55 50.0 70.05 45.65 74.4 L49.75 78.3 Q52.25 80.6 54.55 83.3 56.75 85.9 58.4 89.0 60.05 92.1 60.05 95.35 60.05 98.65 59.0 101.6 58.0 104.55 56.35 107.15 54.85 109.8 52.9 112.05 L49.4 116.1 34.7 131.7 17.35 115.05 28.55 101.8 41.7 114.1 Q43.25 112.65 44.0 111.05 44.7 109.5 44.7 106.95 44.7 102.6 42.3 98.95 39.8 95.2 36.6 92.35 33.35 89.6 30.2 87.75 27.05 85.9 25.7 85.2 L29.25 82.25 34.05 77.7 Q36.35 75.15 38.15 72.3 39.95 69.45 39.95 67.05 39.95 64.7 38.35 62.5 36.8 60.3 34.3 58.8 31.85 57.3 28.9 56.4 25.95 55.55 23.5 55.55 L33.35 38.4 Q39.65 39.4 43.85 41.4 48.0 43.35 50.45 45.8" fill="#666666" fill-rule="evenodd" stroke="none"/>
    <path d="M50.05 45.35 Q51.1 48.05 51.1 50.6 51.1 55.5 48.65 60.05 46.25 64.55 41.9 68.9 L46.0 72.8 Q48.5 75.1 50.8 77.8 53.0 80.4 54.65 83.5 56.3 86.6 56.3 89.85 56.3 93.15 55.25 96.1 54.25 99.05 52.6 101.65 51.1 104.3 49.15 106.55 L45.65 110.6 30.95 126.2 13.6 109.55 24.8 96.3 37.95 108.6 Q39.5 107.15 40.25 105.55 40.95 104.0 40.95 101.45 40.95 97.1 38.55 93.45 36.05 89.7 32.85 86.85 29.6 84.1 26.45 82.25 23.3 80.4 21.95 79.7 L25.5 76.75 30.3 72.2 Q32.6 69.65 34.4 66.8 36.2 63.95 36.2 61.55 36.2 59.2 34.6 57.0 33.05 54.8 30.55 53.3 28.1 51.8 25.15 50.9 22.2 50.05 19.75 50.05 L29.6 32.9 Q35.9 33.9 40.1 35.9 44.25 37.85 46.7 40.3 49.1 42.65 50.05 45.35" fill="url(#gradient0)" fill-rule="evenodd" stroke="none"/>
  </g>
  <defs>
    <linearGradient gradientTransform="matrix(2.0E-4, -0.0545, 0.0549, 2.0E-4, 581.5, 78.05)" gradientUnits="userSpaceOnUse" id="gradient0" spreadMethod="pad" x1="-819.2" x2="819.2">
      <stop offset="0.0" stop-color="#55000f"/>
      <stop offset="1.0" stop-color="#ff005a"/>
    </linearGradient>
  </defs>
</svg>
