<?xml version="1.0" encoding="UTF-8" standalone="no"?>
<svg xmlns:xlink="http://www.w3.org/1999/xlink" height="31.8px" width="17.55px" xmlns="http://www.w3.org/2000/svg">
  <g transform="matrix(1.0, 0.0, 0.0, 1.0, -2.0, -0.15)">
    <path d="M12.95 1.05 Q14.8 1.9 16.2 3.3 17.6 4.7 18.35 6.45 L18.35 6.4 Q19.1 8.15 19.1 9.95 19.1 11.95 18.0 14.25 L15.8 18.35 13.1 22.2 12.6 22.9 18.05 22.9 Q18.55 22.9 19.0 23.25 L19.5 24.05 19.45 25.0 16.85 31.05 16.3 31.7 15.45 31.95 3.5 31.95 2.55 31.65 Q2.15 31.3 2.05 30.75 1.9 30.25 2.2 29.8 3.25 27.65 4.75 25.3 L7.45 20.75 9.5 16.45 9.5 16.4 Q10.3 14.45 10.3 12.65 10.3 11.5 9.85 10.8 9.35 10.15 8.55 9.85 L6.55 9.35 4.25 9.25 Q3.7 9.25 3.25 8.9 2.8 8.5 2.75 7.95 2.7 7.35 3.05 6.9 L7.25 0.8 7.75 0.35 8.45 0.15 Q10.9 0.15 12.9 1.05 L12.95 1.05" fill="#000000" fill-rule="evenodd" stroke="none"/>
    <path d="M15.15 4.35 Q16.35 5.55 16.95 7.0 17.6 8.45 17.6 9.95 17.6 11.65 16.65 13.6 L14.5 17.55 11.9 21.3 9.7 24.4 18.05 24.4 15.45 30.45 3.5 30.45 6.0 26.1 8.75 21.5 10.9 16.95 Q11.8 14.7 11.8 12.65 11.8 10.9 11.05 9.9 10.3 8.95 9.15 8.45 7.95 8.0 6.65 7.85 L4.25 7.75 8.45 1.65 Q10.55 1.65 12.3 2.4 13.95 3.15 15.15 4.35" fill="url(#gradient0)" fill-rule="evenodd" stroke="none"/>
  </g>
  <defs>
    <linearGradient gradientTransform="matrix(0.0, 0.0206, -0.0222, 0.0, 84.15, 15.65)" gradientUnits="userSpaceOnUse" id="gradient0" spreadMethod="pad" x1="-819.2" x2="819.2">
      <stop offset="0.0" stop-color="#ffffff"/>
      <stop offset="1.0" stop-color="#757575"/>
    </linearGradient>
  </defs>
</svg>
