<?xml version="1.0" encoding="UTF-8" standalone="no"?>
<svg xmlns:xlink="http://www.w3.org/1999/xlink" height="36.3px" width="17.6px" xmlns="http://www.w3.org/2000/svg">
  <g transform="matrix(1.0, 0.0, 0.0, 1.0, -1.55, -0.5)">
    <path d="M14.65 4.0 L14.7 4.05 Q16.2 5.85 17.15 7.85 18.15 9.9 18.65 11.95 19.15 14.05 19.15 15.75 19.15 18.2 18.55 21.05 L18.5 21.05 Q17.8 23.9 16.45 26.75 15.15 29.55 12.95 32.2 L12.95 32.15 Q10.8 34.75 7.8 36.6 L6.85 36.8 Q6.3 36.75 5.95 36.4 5.55 36.0 5.5 35.5 5.45 34.95 5.75 34.55 L7.4 31.7 7.45 31.65 9.2 28.45 9.25 28.45 9.85 27.2 9.7 27.35 Q9.3 27.75 8.7 27.8 8.1 27.85 7.65 27.45 L4.55 24.6 4.6 24.6 Q3.3 23.25 2.7 21.95 L2.65 21.9 Q1.95 20.55 1.75 19.0 L1.7 18.95 Q1.55 17.5 1.55 15.5 1.55 12.1 3.3 8.5 L3.35 8.5 Q5.1 5.0 9.3 0.95 9.7 0.55 10.25 0.5 L11.2 0.8 Q13.15 2.15 14.65 4.0 M8.45 10.85 L8.15 10.45 7.95 11.55 Q7.95 12.85 8.3 14.05 L8.3 14.0 Q8.65 15.2 9.3 16.15 9.8 17.0 10.4 17.45 L11.2 17.8 11.45 17.75 11.6 17.65 11.1 15.65 11.1 15.6 9.95 13.05 8.5 10.9 8.45 10.85" fill="#000000" fill-rule="evenodd" stroke="none"/>
    <path d="M15.8 8.5 Q16.75 10.4 17.2 12.3 L17.65 15.75 Q17.65 18.05 17.05 20.7 16.4 23.4 15.1 26.1 13.85 28.75 11.8 31.2 9.8 33.6 7.0 35.3 L8.7 32.45 10.55 29.1 12.15 25.4 13.1 21.45 8.6 26.3 5.65 23.55 Q4.55 22.4 4.0 21.25 3.4 20.1 3.2 18.75 3.05 17.4 3.05 15.5 3.05 12.4 4.65 9.15 6.35 5.85 10.35 2.0 12.15 3.25 13.5 4.95 14.9 6.65 15.8 8.5 M8.1 8.2 L6.9 9.6 Q6.45 10.3 6.45 11.55 6.45 13.1 6.85 14.45 7.3 15.85 8.0 16.95 8.7 18.05 9.5 18.65 10.35 19.3 11.2 19.3 L12.05 19.1 13.2 18.45 Q13.05 16.7 12.5 15.15 L11.25 12.3 9.65 9.95 8.1 8.2" fill="url(#gradient0)" fill-rule="evenodd" stroke="none"/>
  </g>
  <defs>
    <linearGradient gradientTransform="matrix(0.0, 0.0206, -0.0222, 0.0, -112.35, 15.65)" gradientUnits="userSpaceOnUse" id="gradient0" spreadMethod="pad" x1="-819.2" x2="819.2">
      <stop offset="0.0" stop-color="#ffffff"/>
      <stop offset="1.0" stop-color="#757575"/>
    </linearGradient>
  </defs>
</svg>
