<?xml version="1.0" encoding="UTF-8" standalone="no"?>
<svg xmlns:xlink="http://www.w3.org/1999/xlink" height="49.1px" width="117.5px" xmlns="http://www.w3.org/2000/svg">
  <g transform="matrix(1.0, 0.0, 0.0, 1.0, 58.7, 24.5)">
    <path d="M13.45 -12.9 L14.85 -11.4 17.45 -13.25 18.15 -13.55 18.75 -14.05 Q22.55 -16.65 27.55 -17.75 L28.45 -17.95 28.4 -17.95 38.1 -18.6 38.55 -18.95 39.65 -19.45 40.9 -19.35 46.9 -17.35 Q47.5 -17.2 47.95 -16.7 51.3 -13.1 53.6 -9.2 55.6 -5.8 57.45 -0.85 L57.55 -0.55 Q59.35 6.95 58.55 10.9 L58.2 11.85 57.5 12.55 56.2 13.4 56.1 15.6 55.75 16.85 54.8 17.7 50.45 20.05 49.2 20.35 48.0 20.0 45.95 18.8 43.45 19.95 Q38.1 24.6 30.8 24.6 27.2 24.6 24.1 23.45 17.95 22.95 13.65 18.75 L13.7 18.75 Q9.4 14.7 8.2 8.4 7.65 5.5 7.85 2.7 L5.5 1.0 Q4.95 1.45 4.2 1.5 3.25 1.55 2.5 1.0 L1.65 0.4 1.1 0.45 1.15 0.45 0.0 0.5 -0.15 0.5 -0.2 0.5 -0.8 0.5 -1.65 0.4 -2.5 1.0 Q-3.25 1.55 -4.15 1.5 -4.95 1.45 -5.5 1.0 L-5.55 1.05 -7.7 2.65 Q-7.55 5.45 -8.1 8.4 -9.3 14.7 -13.55 18.75 -17.85 22.95 -23.95 23.45 -27.1 24.6 -30.7 24.6 -38.0 24.6 -43.35 19.95 L-45.85 18.8 -47.85 20.0 Q-48.45 20.35 -49.1 20.35 L-50.35 20.05 -54.7 17.7 -55.6 16.85 Q-56.0 16.25 -56.0 15.6 L-56.1 13.4 -57.35 12.55 -58.05 11.85 -58.45 10.9 Q-59.25 6.95 -57.4 -0.55 L-57.35 -0.85 Q-55.5 -5.8 -53.5 -9.2 -51.2 -13.1 -47.8 -16.7 -47.4 -17.2 -46.8 -17.35 L-40.8 -19.35 -39.55 -19.45 Q-38.95 -19.35 -38.4 -18.95 L-38.0 -18.6 -28.25 -17.95 -28.3 -17.95 -27.4 -17.75 -27.45 -17.75 Q-22.45 -16.65 -18.6 -14.05 L-18.0 -13.55 -17.3 -13.25 -14.75 -11.45 -13.45 -12.9 Q-11.45 -15.65 -9.3 -17.65 L-7.5 -19.3 -7.5 -22.0 Q-7.5 -23.05 -6.75 -23.75 -6.05 -24.5 -5.0 -24.5 L5.0 -24.5 Q6.05 -24.5 6.8 -23.75 7.5 -23.05 7.5 -22.0 L7.5 -19.35 9.35 -17.7 Q11.45 -15.7 13.45 -12.9" fill="#000000" fill-rule="evenodd" stroke="none"/>
    <path d="M13.45 -12.9 L14.85 -11.4 Q24.8 -19.55 38.1 -18.6 L38.55 -18.95 39.65 -19.45 40.9 -19.35 46.9 -17.35 Q47.5 -17.2 47.95 -16.7 51.75 -12.65 54.7 -7.0 59.55 2.35 58.55 10.9 58.4 12.25 56.2 13.4 L56.1 15.6 55.75 16.85 Q55.5 17.35 52.65 18.85 49.8 20.4 49.2 20.35 L48.0 20.0 45.95 18.8 43.45 19.95 Q40.2 22.8 35.8 23.95 30.15 25.4 24.1 23.45 18.7 23.0 14.2 19.2 7.45 13.5 7.85 2.7 L5.5 1.0 Q5.0 1.4 4.2 1.5 L2.8 1.2 Q2.0 0.85 1.65 0.4 L0.0 0.5 -1.65 0.4 Q-2.0 0.85 -2.8 1.2 L-4.2 1.5 Q-5.0 1.4 -5.5 1.0 L-7.85 2.7 Q-7.45 13.5 -14.2 19.2 -18.7 23.0 -24.1 23.45 -30.15 25.4 -35.8 23.95 -40.2 22.8 -43.45 19.95 L-45.95 18.8 -48.0 20.0 -49.2 20.35 Q-49.8 20.4 -52.65 18.85 -55.5 17.35 -55.75 16.85 L-56.1 15.6 -56.2 13.4 Q-58.4 12.25 -58.55 10.9 -59.55 2.35 -54.7 -7.0 -51.75 -12.65 -47.95 -16.7 -47.5 -17.2 -46.9 -17.35 L-40.9 -19.35 -39.65 -19.45 -38.55 -18.95 -38.1 -18.6 Q-24.8 -19.55 -14.85 -11.4 L-13.45 -12.9 Q-11.45 -15.7 -9.35 -17.7 L-7.5 -19.35 -7.5 -22.0 Q-7.5 -23.05 -6.8 -23.75 -6.05 -24.5 -5.0 -24.5 L5.0 -24.5 Q6.05 -24.5 6.8 -23.75 7.5 -23.05 7.5 -22.0 L7.5 -19.35 9.35 -17.7 Q11.45 -15.7 13.45 -12.9" fill="#000000" fill-rule="evenodd" stroke="none"/>
    <path d="M0.0 -12.5 L0.85 -11.85 1.5 -11.4 0.85 -11.9 0.0 -12.55 0.0 -12.5 M0.0 -18.0 L0.0 -18.05 Q3.1 -19.3 4.6 -18.4 L4.9 -18.1 5.0 -18.05 7.6 -15.9 Q9.55 -14.05 11.4 -11.45 13.3 -8.85 16.0 -8.0 L13.9 -2.25 14.0 4.0 7.0 -1.0 5.5 -1.75 Q4.8 -1.8 4.0 -1.0 L0.0 -4.0 -4.0 -1.0 Q-4.8 -1.8 -5.5 -1.75 L-7.0 -1.0 -14.0 4.0 -13.9 -2.25 -16.0 -8.0 Q-13.3 -8.85 -11.4 -11.4 -9.55 -14.0 -7.6 -15.85 L-5.0 -18.0 -4.9 -18.05 -4.6 -18.35 Q-3.1 -19.25 0.0 -18.0" fill="url(#gradient0)" fill-rule="evenodd" stroke="none"/>
    <path d="M4.0 -16.0 L-4.0 -16.0 -5.0 -18.0 5.0 -18.0 4.0 -16.0" fill="#000000" fill-opacity="0.2" fill-rule="evenodd" stroke="none"/>
    <path d="M6.5 -7.5 L14.5 -1.5 M-6.5 -7.5 L-14.5 -1.5" fill="none" stroke="#000000" stroke-linecap="round" stroke-linejoin="round" stroke-opacity="0.19215687" stroke-width="1.0"/>
    <path d="M3.5 -13.55 Q5.0 -12.05 5.0 -10.0 5.0 -7.95 3.5 -6.5 2.6 -5.6 1.5 -5.2 L0.85 -5.05 0.0 -5.0 -0.15 -5.0 -0.65 -5.05 Q-2.3 -5.25 -3.55 -6.5 -5.0 -7.95 -5.0 -10.0 -5.0 -12.05 -3.55 -13.55 -2.05 -15.0 0.0 -15.0 2.05 -15.0 3.5 -13.55 M0.7 -9.3 L0.85 -9.45 1.0 -10.0 0.85 -10.5 0.7 -10.7 0.0 -11.0 -0.15 -11.0 -0.65 -10.75 -0.7 -10.7 -1.0 -10.0 -0.7 -9.3 -0.65 -9.25 Q-0.45 -9.05 -0.15 -9.0 L0.0 -9.0 Q0.4 -9.0 0.7 -9.3" fill="url(#gradient1)" fill-rule="evenodd" stroke="none"/>
    <path d="M0.7 -9.3 Q0.4 -9.0 0.0 -9.0 L-0.15 -9.0 Q-0.45 -9.05 -0.65 -9.25 L-0.7 -9.3 -1.0 -10.0 -0.7 -10.7 -0.65 -10.75 -0.15 -11.0 0.0 -11.0 0.7 -10.7 0.85 -10.5 1.0 -10.0 0.85 -9.45 0.7 -9.3" fill="#000000" fill-rule="evenodd" stroke="none"/>
    <path d="M3.5 -13.55 Q2.05 -15.0 0.0 -15.0 -2.05 -15.0 -3.55 -13.55 -5.0 -12.05 -5.0 -10.0 -5.0 -7.95 -3.55 -6.5 -2.3 -5.25 -0.65 -5.05 L-0.15 -5.0 0.0 -5.0 0.85 -5.05 1.5 -5.2 Q2.6 -5.6 3.5 -6.5 5.0 -7.95 5.0 -10.0 5.0 -12.05 3.5 -13.55 M5.65 -15.65 Q8.0 -13.3 8.0 -10.0 8.0 -6.7 5.65 -4.35 3.85 -2.55 1.5 -2.1 L0.85 -2.05 0.0 -2.0 -0.15 -2.0 -0.65 -2.0 Q-3.55 -2.25 -5.65 -4.35 -8.0 -6.7 -8.0 -10.0 -8.0 -13.3 -5.65 -15.65 -3.3 -18.0 0.0 -18.0 3.3 -18.0 5.65 -15.65" fill="url(#gradient2)" fill-rule="evenodd" stroke="none"/>
    <path d="M2.0 -18.0 L-2.0 -18.0 -2.0 -22.0 2.0 -22.0 2.0 -18.0 M-3.0 -18.0 L-5.0 -18.0 -5.0 -22.0 -3.0 -22.0 -3.0 -18.0 M3.0 -22.0 L5.0 -22.0 5.0 -18.0 3.0 -18.0 3.0 -22.0" fill="url(#gradient3)" fill-rule="evenodd" stroke="none"/>
    <path d="M3.0 -18.0 L2.0 -18.0 2.0 -22.0 3.0 -22.0 3.0 -18.0" fill="#636363" fill-rule="evenodd" stroke="none"/>
    <path d="M-2.0 -18.0 L-3.0 -18.0 -3.0 -22.0 -2.0 -22.0 -2.0 -18.0" fill="#515151" fill-rule="evenodd" stroke="none"/>
    <path d="M18.75 -6.2 Q18.55 -6.1 17.6 -7.7 16.6 -9.3 16.8 -9.4 L21.05 -12.3 22.55 -11.4 23.75 -10.2 18.75 -6.2 M-20.95 -12.3 L-16.7 -9.4 Q-16.5 -9.3 -17.5 -7.7 -18.45 -6.1 -18.6 -6.2 L-23.6 -10.2 -22.45 -11.4 -20.95 -12.3" fill="#aa3737" fill-rule="evenodd" stroke="none"/>
    <path d="M38.75 -15.9 L40.1 -17.0 46.1 -15.0 Q50.45 -10.5 53.25 -4.5 56.9 3.3 56.1 10.45 L53.75 12.0 53.3 15.5 49.05 17.7 46.1 16.0 37.1 20.1 Q38.3 -9.9 38.75 -15.9" fill="url(#gradient4)" fill-rule="evenodd" stroke="none"/>
    <path d="M-46.1 -15.0 L-40.1 -17.0 -38.75 -15.9 Q-38.3 -9.9 -37.1 20.1 L-46.1 16.0 -49.05 17.7 -53.3 15.5 -53.75 12.0 -56.1 10.45 Q-56.9 3.3 -53.25 -4.5 -50.45 -10.5 -46.1 -15.0" fill="url(#gradient5)" fill-rule="evenodd" stroke="none"/>
    <path d="M28.9 -15.5 L39.1 -16.0 45.1 -14.0 Q47.8 -11.0 50.05 -7.15 52.35 -3.25 53.25 -0.05 53.5 0.9 53.05 1.45 L52.1 2.0 52.25 9.25 Q52.2 10.7 51.25 11.7 L50.25 12.35 36.1 19.0 35.1 16.0 25.1 21.0 Q19.35 20.8 15.4 16.95 11.7 13.4 10.65 7.9 9.6 2.4 11.55 -2.65 13.65 -8.1 18.7 -11.1 L24.5 -2.25 31.0 8.9 31.5 8.6 25.7 -3.25 20.1 -12.0 Q23.85 -14.5 28.9 -15.5" fill="url(#gradient6)" fill-rule="evenodd" stroke="none"/>
    <path d="M-49.95 -7.15 Q-47.7 -11.0 -45.0 -14.0 L-39.0 -16.0 -28.8 -15.5 Q-23.75 -14.5 -20.0 -12.0 L-25.6 -3.25 -31.85 9.6 -31.4 9.85 -24.4 -2.25 -18.6 -11.1 Q-13.55 -8.1 -11.45 -2.65 -9.5 2.4 -10.55 7.9 -11.6 13.4 -15.3 16.95 -19.25 20.8 -25.0 21.0 L-35.0 16.0 -36.0 19.0 -50.15 12.35 -51.15 11.7 Q-52.1 10.7 -52.15 9.25 L-52.0 2.0 -52.95 1.45 Q-53.4 0.9 -53.15 -0.05 -52.25 -3.25 -49.95 -7.15" fill="url(#gradient7)" fill-rule="evenodd" stroke="none"/>
    <path d="M51.95 14.1 L48.8 15.65 47.95 15.1 51.95 13.1 51.95 14.1 M50.0 -2.0 L46.9 -0.45 43.95 -5.2 47.0 -7.0 50.0 -2.0 M-47.0 -7.0 L-43.9 -5.25 -46.8 -0.45 Q-48.4 -1.2 -50.0 -2.0 L-47.0 -7.0 M-48.7 15.65 L-51.85 14.1 -51.85 13.1 -47.85 15.1 -48.7 15.65" fill="#000000" fill-rule="evenodd" stroke="none"/>
    <path d="M18.75 -7.1 Q23.7 -12.1 30.8 -12.1 37.9 -12.1 42.9 -7.1 L44.3 -5.45 46.75 -6.85 49.7 -1.9 47.05 -0.5 Q47.9 2.15 47.9 5.0 47.9 12.1 42.9 17.05 37.9 22.1 30.8 22.1 23.7 22.1 18.75 17.05 13.7 12.1 13.7 5.0 13.7 -2.1 18.75 -7.1" fill="url(#gradient8)" fill-rule="evenodd" stroke="none"/>
    <path d="M-42.8 -7.1 Q-37.8 -12.1 -30.7 -12.1 -23.6 -12.1 -18.65 -7.1 -13.6 -2.1 -13.6 5.0 -13.6 12.1 -18.65 17.05 -23.6 22.1 -30.7 22.1 -37.8 22.1 -42.8 17.05 -47.8 12.1 -47.8 5.0 -47.8 2.15 -46.95 -0.5 L-49.65 -1.85 -46.7 -6.8 -44.2 -5.45 -42.8 -7.1" fill="url(#gradient9)" fill-rule="evenodd" stroke="none"/>
    <path d="M19.7 -5.4 Q24.0 -9.7 30.1 -9.7 36.2 -9.7 40.5 -5.4 44.8 -1.1 44.8 5.0 44.8 11.1 40.5 15.4 36.2 19.7 30.1 19.7 24.0 19.7 19.7 15.4 15.4 11.1 15.4 5.0 15.4 -1.1 19.7 -5.4" fill="url(#gradient10)" fill-rule="evenodd" stroke="none"/>
    <path d="M-30.0 -9.7 Q-23.9 -9.7 -19.6 -5.4 -15.3 -1.1 -15.3 5.0 -15.3 11.1 -19.6 15.4 -23.9 19.7 -30.0 19.7 -36.1 19.7 -40.4 15.4 -44.7 11.1 -44.7 5.0 -44.7 -1.1 -40.4 -5.4 -36.1 -9.7 -30.0 -9.7" fill="url(#gradient11)" fill-rule="evenodd" stroke="none"/>
    <path d="M30.05 -8.25 Q35.55 -8.25 39.4 -4.35 43.3 -0.5 43.3 5.0 43.3 10.5 39.4 14.35 35.55 18.25 30.05 18.25 24.55 18.25 20.7 14.35 16.8 10.5 16.8 5.0 16.8 -0.5 20.7 -4.35 24.55 -8.25 30.05 -8.25" fill="url(#gradient12)" fill-rule="evenodd" stroke="none"/>
    <path d="M-30.0 -8.25 Q-24.5 -8.25 -20.65 -4.35 -16.75 -0.5 -16.75 5.0 -16.75 10.5 -20.65 14.35 -24.5 18.25 -30.0 18.25 -35.5 18.25 -39.35 14.35 -43.25 10.5 -43.25 5.0 -43.25 -0.5 -39.35 -4.35 -35.5 -8.25 -30.0 -8.25" fill="url(#gradient13)" fill-rule="evenodd" stroke="none"/>
    <path d="M32.45 -8.25 Q36.0 -8.25 38.55 -5.7 41.1 -3.15 41.1 0.4 41.1 3.95 38.55 6.5 36.0 9.05 32.45 9.05 28.9 9.05 26.35 6.5 23.8 3.95 23.8 0.4 23.8 -3.15 26.35 -5.7 28.9 -8.25 32.45 -8.25" fill="url(#gradient14)" fill-rule="evenodd" stroke="none"/>
    <path d="M-27.5 -8.5 Q-23.95 -8.5 -21.4 -5.95 -18.85 -3.4 -18.85 0.15 -18.85 3.7 -21.4 6.25 -23.95 8.8 -27.5 8.8 -31.05 8.8 -33.6 6.25 -36.15 3.7 -36.15 0.15 -36.15 -3.4 -33.6 -5.95 -31.05 -8.5 -27.5 -8.5" fill="url(#gradient15)" fill-rule="evenodd" stroke="none"/>
  </g>
  <defs>
    <linearGradient gradientTransform="matrix(0.0098, 0.0, 0.0, 0.0139, 8.0, -7.4)" gradientUnits="userSpaceOnUse" id="gradient0" spreadMethod="pad" x1="-819.2" x2="819.2">
      <stop offset="0.0" stop-color="#3e5057"/>
      <stop offset="1.0" stop-color="#798e9b"/>
    </linearGradient>
    <linearGradient gradientTransform="matrix(-0.0031, 0.0053, -0.0053, -0.0031, 0.0, -10.0)" gradientUnits="userSpaceOnUse" id="gradient1" spreadMethod="pad" x1="-819.2" x2="819.2">
      <stop offset="0.0" stop-color="#757575"/>
      <stop offset="0.8156862745098039" stop-color="#9b9b9b"/>
      <stop offset="1.0" stop-color="#aaaaaa"/>
    </linearGradient>
    <radialGradient cx="0" cy="0" gradientTransform="matrix(0.0101, 0.0081, -0.0114, 0.0142, 3.35, -13.55)" gradientUnits="userSpaceOnUse" id="gradient2" r="819.2" spreadMethod="pad">
      <stop offset="0.07450980392156863" stop-color="#cdcdcd"/>
      <stop offset="0.3411764705882353" stop-color="#9e9e9e"/>
      <stop offset="0.7450980392156863" stop-color="#717171"/>
      <stop offset="1.0" stop-color="#757575"/>
    </radialGradient>
    <linearGradient gradientTransform="matrix(0.0061, 0.0, 0.0, 0.0024, 0.0, -20.0)" gradientUnits="userSpaceOnUse" id="gradient3" spreadMethod="pad" x1="-819.2" x2="819.2">
      <stop offset="0.0" stop-color="#555555"/>
      <stop offset="0.47058823529411764" stop-color="#a3a3a3"/>
      <stop offset="0.5764705882352941" stop-color="#a6a6a6"/>
      <stop offset="1.0" stop-color="#808080"/>
    </linearGradient>
    <linearGradient gradientTransform="matrix(-0.0044, -0.0216, 0.0222, -0.0045, 38.2, 1.55)" gradientUnits="userSpaceOnUse" id="gradient4" spreadMethod="pad" x1="-819.2" x2="819.2">
      <stop offset="0.0" stop-color="#808080"/>
      <stop offset="1.0" stop-color="#b0b0b0"/>
    </linearGradient>
    <linearGradient gradientTransform="matrix(0.0044, -0.0216, -0.0222, -0.0045, -38.2, 1.55)" gradientUnits="userSpaceOnUse" id="gradient5" spreadMethod="pad" x1="-819.2" x2="819.2">
      <stop offset="0.0" stop-color="#515151"/>
      <stop offset="1.0" stop-color="#636363"/>
    </linearGradient>
    <linearGradient gradientTransform="matrix(0.0202, -0.0174, 0.0128, 0.0148, 32.4, 3.7)" gradientUnits="userSpaceOnUse" id="gradient6" spreadMethod="pad" x1="-819.2" x2="819.2">
      <stop offset="0.09019607843137255" stop-color="#435358"/>
      <stop offset="0.8117647058823529" stop-color="#647077"/>
      <stop offset="0.9568627450980393" stop-color="#7d8d97"/>
    </linearGradient>
    <linearGradient gradientTransform="matrix(0.026, -0.0059, 0.0043, 0.019, -22.7, 45.45)" gradientUnits="userSpaceOnUse" id="gradient7" spreadMethod="pad" x1="-819.2" x2="819.2">
      <stop offset="0.0" stop-color="#5b7279"/>
      <stop offset="0.2627450980392157" stop-color="#435258"/>
      <stop offset="0.8313725490196079" stop-color="#5b7079"/>
      <stop offset="1.0" stop-color="#7b8f99"/>
    </linearGradient>
    <radialGradient cx="0" cy="0" gradientTransform="matrix(0.0355, -0.017, 0.017, 0.0355, 42.0, -4.0)" gradientUnits="userSpaceOnUse" id="gradient8" r="819.2" spreadMethod="pad">
      <stop offset="0.0" stop-color="#e4e0e0"/>
      <stop offset="0.36470588235294116" stop-color="#b1a9a9"/>
      <stop offset="0.8549019607843137" stop-color="#646262"/>
      <stop offset="1.0" stop-color="#7a7070"/>
    </radialGradient>
    <radialGradient cx="0" cy="0" gradientTransform="matrix(0.0355, -0.017, 0.017, 0.0355, -17.0, -0.8)" gradientUnits="userSpaceOnUse" id="gradient9" r="819.2" spreadMethod="pad">
      <stop offset="0.0" stop-color="#e4e0e0"/>
      <stop offset="0.3686274509803922" stop-color="#b1a9a9"/>
      <stop offset="0.8549019607843137" stop-color="#646262"/>
      <stop offset="1.0" stop-color="#7a7070"/>
    </radialGradient>
    <linearGradient gradientTransform="matrix(-0.014, 0.0112, -0.0112, -0.014, 30.1, 5.0)" gradientUnits="userSpaceOnUse" id="gradient10" spreadMethod="pad" x1="-819.2" x2="819.2">
      <stop offset="0.0" stop-color="#625e5e"/>
      <stop offset="0.8" stop-color="#9c9292"/>
      <stop offset="1.0" stop-color="#c9c2c2"/>
    </linearGradient>
    <linearGradient gradientTransform="matrix(-0.014, 0.0112, -0.0112, -0.014, -5.5, 35.8)" gradientUnits="userSpaceOnUse" id="gradient11" spreadMethod="pad" x1="-819.2" x2="819.2">
      <stop offset="0.0" stop-color="#625e5e"/>
      <stop offset="0.807843137254902" stop-color="#9c9292"/>
      <stop offset="1.0" stop-color="#c9c2c2"/>
    </linearGradient>
    <radialGradient cx="0" cy="0" gradientTransform="matrix(0.0161, 0.0, 0.0, 0.0161, 30.05, 5.0)" gradientUnits="userSpaceOnUse" id="gradient12" r="819.2" spreadMethod="pad">
      <stop offset="0.4588235294117647" stop-color="#1c7922"/>
      <stop offset="0.47843137254901963" stop-color="#2bbf35"/>
      <stop offset="0.6666666666666666" stop-color="#1c7922"/>
      <stop offset="0.6901960784313725" stop-color="#2bbf35"/>
      <stop offset="0.9294117647058824" stop-color="#1c7922"/>
      <stop offset="0.9568627450980393" stop-color="#0a270a"/>
    </radialGradient>
    <radialGradient cx="0" cy="0" gradientTransform="matrix(0.0162, 0.0, 0.0, 0.0162, -30.0, 5.0)" gradientUnits="userSpaceOnUse" id="gradient13" r="819.2" spreadMethod="pad">
      <stop offset="0.4588235294117647" stop-color="#1c7922"/>
      <stop offset="0.47843137254901963" stop-color="#2bbf35"/>
      <stop offset="0.6666666666666666" stop-color="#1c7922"/>
      <stop offset="0.6901960784313725" stop-color="#2bbf35"/>
      <stop offset="0.9294117647058824" stop-color="#1c7922"/>
      <stop offset="0.9568627450980393" stop-color="#0a270a"/>
    </radialGradient>
    <radialGradient cx="0" cy="0" gradientTransform="matrix(0.0106, 0.0, 0.0, 0.0106, 32.45, 0.4)" gradientUnits="userSpaceOnUse" id="gradient14" r="819.2" spreadMethod="pad">
      <stop offset="0.22745098039215686" stop-color="#ffffff" stop-opacity="0.9529412"/>
      <stop offset="0.6392156862745098" stop-color="#ffffff" stop-opacity="0.0"/>
    </radialGradient>
    <radialGradient cx="0" cy="0" gradientTransform="matrix(0.0106, 0.0, 0.0, 0.0106, -27.5, 0.15)" gradientUnits="userSpaceOnUse" id="gradient15" r="819.2" spreadMethod="pad">
      <stop offset="0.22745098039215686" stop-color="#ffffff" stop-opacity="0.9529412"/>
      <stop offset="0.6392156862745098" stop-color="#ffffff" stop-opacity="0.0"/>
    </radialGradient>
  </defs>
</svg>
