<?xml version="1.0" encoding="UTF-8" standalone="no"?>
<svg xmlns:xlink="http://www.w3.org/1999/xlink" height="30.5px" width="34.45px" xmlns="http://www.w3.org/2000/svg">
  <g transform="matrix(1.0, 0.0, 0.0, 1.0, 14.8, 16.85)">
    <path d="M4.2 -16.2 L6.35 -16.85 7.5 -16.15 Q8.85 -15.25 9.25 -14.45 L6.55 -13.85 4.55 -13.4 3.5 -14.6 2.7 -15.6 4.2 -16.2 M16.95 -3.1 L19.2 -3.05 19.65 -1.05 Q18.05 -0.55 16.4 -0.55 L16.6 -2.0 16.95 -3.1 M-13.95 -10.2 L-14.3 -11.0 -14.7 -12.1 -12.5 -13.9 -11.85 -11.25 -11.8 -11.15 -13.95 -10.2 M-11.3 13.55 L-14.0 13.65 -14.8 11.2 -13.1 11.0 -12.3 12.1 -11.3 13.55" fill="#ffffff" fill-rule="evenodd" stroke="none"/>
  </g>
</svg>
