<?xml version="1.0" encoding="UTF-8" standalone="no"?>
<svg xmlns:xlink="http://www.w3.org/1999/xlink" height="29.25px" width="33.1px" xmlns="http://www.w3.org/2000/svg">
  <g transform="matrix(1.0, 0.0, 0.0, 1.0, 14.7, 14.85)">
    <path d="M16.9 0.4 L16.8 -1.5 16.8 -1.55 18.35 -1.3 18.4 0.45 18.0 0.45 16.9 0.4 M7.6 -14.05 L8.55 -14.45 9.2 -12.6 8.55 -12.25 7.7 -11.75 6.7 -13.7 7.6 -14.05 M4.3 -12.9 L2.85 -13.45 3.8 -14.15 4.9 -14.85 5.35 -12.95 5.35 -12.5 4.3 -12.9 M-11.95 -10.1 L-13.45 -9.4 -14.0 -9.75 -14.7 -10.4 -13.1 -11.3 -12.6 -10.8 -11.95 -10.1 M-13.75 14.35 L-13.85 14.4 -14.4 13.45 -13.75 13.1 -13.15 12.8 -12.95 13.2 -12.5 14.0 -13.75 14.35" fill="#ffffff" fill-rule="evenodd" stroke="none"/>
  </g>
</svg>
