<?xml version="1.0" encoding="UTF-8" standalone="no"?>
<svg xmlns:xlink="http://www.w3.org/1999/xlink" height="28.05px" width="32.5px" xmlns="http://www.w3.org/2000/svg">
  <g transform="matrix(1.0, 0.0, 0.0, 1.0, 14.3, 11.9)">
    <path d="M9.3 -10.3 L8.25 -9.95 7.55 -9.65 7.55 -9.9 7.75 -11.4 8.7 -10.75 9.3 -10.3 M4.8 -11.9 L4.85 -10.7 Q3.95 -11.05 3.35 -11.5 L4.8 -11.9 M16.9 1.7 L18.2 1.35 18.05 1.85 17.95 2.7 16.9 1.7 M-13.0 -7.3 L-14.3 -8.55 -13.45 -8.85 -12.9 -9.05 -13.0 -7.75 -13.0 -7.3 M-13.65 15.05 L-13.1 15.25 -12.9 15.3 -13.1 15.5 -13.9 16.15 -14.15 15.3 -14.15 14.95 -13.65 15.05" fill="#ffffff" fill-rule="evenodd" stroke="none"/>
  </g>
</svg>
