<?xml version="1.0" encoding="UTF-8" standalone="no"?>
<svg xmlns:xlink="http://www.w3.org/1999/xlink" height="256.0px" width="172.0px" xmlns="http://www.w3.org/2000/svg">
  <g transform="matrix(1.0, 0.0, 0.0, 1.0, 3.0, 15.0)">
    <path d="M39.0 -15.0 Q42.0 -15.0 42.0 -12.0 L42.0 -3.0 166.0 -3.0 Q169.0 -3.0 169.0 0.0 L169.0 238.0 Q169.0 241.0 166.0 241.0 L0.0 241.0 Q-3.0 241.0 -3.0 238.0 L-3.0 -12.0 Q-3.0 -15.0 0.0 -15.0 L39.0 -15.0 M164.0 1.0 L2.0 1.0 Q1.0 1.0 1.0 2.0 L1.0 236.0 Q1.0 237.0 2.0 237.0 L164.0 237.0 Q165.0 237.0 165.0 236.0 L165.0 2.0 Q165.0 1.0 164.0 1.0" fill="#000000" fill-rule="evenodd" stroke="none"/>
    <path d="M39.0 -14.0 Q41.0 -14.0 41.0 -12.0 L41.0 -2.0 166.0 -2.0 Q168.0 -2.0 168.0 0.0 L168.0 20.0 168.0 238.0 Q168.0 240.0 166.0 240.0 L0.0 240.0 Q-2.0 240.0 -2.0 238.0 L-2.0 -12.0 Q-2.0 -14.0 0.0 -14.0 L29.0 -14.0 39.0 -14.0 M166.0 2.0 Q166.0 0.0 164.0 0.0 L29.0 0.0 2.0 0.0 Q0.0 0.0 0.0 2.0 L0.0 236.0 Q0.0 238.0 2.0 238.0 L164.0 238.0 Q166.0 238.0 166.0 236.0 L166.0 20.0 166.0 2.0" fill="#ff00ff" fill-rule="evenodd" stroke="none"/>
  </g>
</svg>
