<?xml version="1.0" encoding="UTF-8" standalone="no"?>
<svg xmlns:xlink="http://www.w3.org/1999/xlink" height="126.5px" width="95.0px" xmlns="http://www.w3.org/2000/svg">
  <g transform="matrix(1.0, 0.0, 0.0, 1.0, 47.5, 79.0)">
    <path d="M10.7 -64.85 Q7.75 -69.4 0.0 -69.95 -7.7 -69.4 -10.65 -64.85 L-10.6 -64.9 Q-12.25 -61.6 -9.15 -58.05 -8.7 -58.5 -7.2 -59.15 L-7.85 -60.25 Q-8.85 -62.15 -8.9 -63.25 -9.25 -66.2 -6.9 -66.8 L-6.0 -67.0 6.05 -67.0 6.95 -66.8 Q9.3 -66.2 9.0 -63.25 8.9 -62.15 7.9 -60.25 L7.25 -59.15 8.3 -58.6 9.2 -58.0 Q12.3 -61.6 10.7 -64.9 L10.7 -64.85 M14.05 -50.1 Q13.05 -49.25 11.75 -49.0 L10.0 -48.9 Q9.25 -47.95 7.55 -46.95 22.45 -44.75 33.6 -33.6 47.5 -19.7 47.5 0.0 47.5 19.7 33.6 33.6 19.7 47.5 0.0 47.5 -19.7 47.5 -33.6 33.6 -47.5 19.7 -47.5 0.0 -47.5 -19.7 -33.6 -33.6 -22.45 -44.75 -7.55 -46.95 L-8.6 -47.75 -9.95 -48.9 -11.7 -49.0 Q-13.0 -49.25 -14.0 -50.1 L-14.05 -50.15 Q-24.6 -59.9 -18.4 -69.45 -13.7 -78.05 -0.15 -79.0 L0.2 -79.0 Q13.75 -78.05 18.5 -69.45 24.65 -59.9 14.1 -50.15 L14.05 -50.1 M0.0 -37.5 Q-15.5 -37.5 -26.5 -26.5 -37.5 -15.5 -37.5 0.0 -37.5 15.5 -26.5 26.5 -15.5 37.5 0.0 37.5 15.5 37.5 26.5 26.5 37.5 15.5 37.5 0.0 37.5 -15.5 26.5 -26.5 15.5 -37.5 0.0 -37.5" fill="#000000" fill-rule="evenodd" stroke="none"/>
    <path d="M5.65 -48.8 Q3.95 -47.95 4.0 -44.5 L0.0 -44.5 -2.0 -44.5 -4.0 -44.5 Q-3.95 -47.95 -5.65 -48.8 L-7.0 -49.5 -2.0 -49.5 0.0 -49.5 2.0 -49.5 7.0 -49.5 5.65 -48.8" fill="url(#gradient0)" fill-rule="evenodd" stroke="none"/>
    <path d="M7.0 -48.5 L-7.0 -48.5 -7.0 -49.5 7.0 -49.5 7.0 -48.5" fill="#000000" fill-opacity="0.2" fill-rule="evenodd" stroke="none"/>
    <path d="M0.0 -58.0 L3.0 -58.0 3.0 -56.0 0.0 -56.0 -3.0 -56.0 -3.0 -58.0 0.0 -58.0" fill="url(#gradient1)" fill-rule="evenodd" stroke="none"/>
    <path d="M12.4 -52.0 Q11.95 -51.6 11.35 -51.5 10.15 -51.3 7.0 -51.5 L7.0 -55.5 10.15 -55.4 Q15.8 -60.9 12.85 -66.15 9.4 -71.85 0.0 -72.5 -9.35 -71.85 -12.8 -66.15 -15.75 -60.9 -10.1 -55.4 L-7.0 -55.5 -7.0 -51.5 Q-10.1 -51.3 -11.3 -51.5 -11.9 -51.6 -12.35 -52.0 -21.25 -60.2 -16.25 -68.2 -12.0 -75.65 0.0 -76.5 12.05 -75.65 16.3 -68.2 21.3 -60.2 12.4 -52.0" fill="#998342" fill-rule="evenodd" stroke="none"/>
    <path d="M0.1 -75.5 Q11.4 -74.65 15.45 -67.7 L15.45 -67.65 Q19.95 -60.3 11.75 -52.7 L11.75 -52.75 11.2 -52.45 8.0 -52.45 8.0 -54.45 10.15 -54.4 10.5 -54.45 10.85 -54.65 Q17.1 -60.8 13.75 -66.65 L13.7 -66.65 Q10.05 -72.8 0.1 -73.5 L-0.05 -73.5 Q-10.0 -72.8 -13.65 -66.65 -17.05 -60.8 -10.8 -54.65 L-10.45 -54.45 -10.05 -54.4 -8.0 -54.45 -8.0 -52.45 -11.1 -52.45 Q-11.45 -52.55 -11.65 -52.75 L-11.65 -52.7 Q-19.9 -60.3 -15.4 -67.65 L-15.35 -67.7 Q-11.35 -74.65 -0.05 -75.5 L0.0 -75.5 0.1 -75.5" fill="url(#gradient2)" fill-rule="evenodd" stroke="none"/>
    <path d="M0.0 -57.5 Q5.15 -57.5 7.0 -56.5 8.6 -55.55 8.7 -53.3 8.9 -50.85 7.0 -49.5 L-7.0 -49.5 Q-8.9 -50.85 -8.7 -53.3 -8.6 -55.55 -7.0 -56.5 -5.15 -57.5 0.0 -57.5" fill="url(#gradient3)" fill-rule="evenodd" stroke="none"/>
    <path d="M3.0 -58.0 L0.0 -58.0 -3.0 -58.0 Q-4.3 -58.9 -5.65 -61.45 -7.05 -64.1 -6.0 -64.5 L6.05 -64.5 Q7.1 -64.1 5.7 -61.45 4.35 -58.9 3.0 -58.0" fill="url(#gradient4)" fill-rule="evenodd" stroke="none"/>
    <path d="M2.6 -64.25 L1.75 -58.15 1.8 -58.25 Q3.55 -61.25 4.35 -64.5 L5.65 -64.5 5.55 -64.2 Q4.75 -61.05 3.1 -58.05 L3.0 -58.0 1.7 -58.0 0.45 -58.0 0.45 -58.05 1.35 -64.5 2.65 -64.5 2.6 -64.25 M-5.6 -64.5 L-4.35 -64.5 Q-3.55 -61.25 -1.75 -58.3 L-2.6 -64.35 -2.6 -64.45 -2.6 -64.5 -1.35 -64.5 -0.45 -58.05 -0.45 -58.0 -1.65 -58.0 -3.0 -58.0 -3.05 -58.0 Q-4.8 -61.0 -5.55 -64.3 L-5.6 -64.45 -5.6 -64.5" fill="url(#gradient5)" fill-rule="evenodd" stroke="none"/>
    <path d="M28.25 -28.3 Q40.0 -16.55 40.0 0.0 40.0 16.55 28.25 28.25 16.55 40.0 0.0 40.0 -16.55 40.0 -28.3 28.25 -40.0 16.55 -40.0 0.0 -40.0 -16.55 -28.3 -28.3 -16.55 -40.0 0.0 -40.0 16.55 -40.0 28.25 -28.3" fill="url(#gradient6)" fill-rule="evenodd" stroke="none"/>
    <path d="M28.25 -28.3 Q40.0 -16.55 40.0 0.0 40.0 16.55 28.25 28.25 20.5 36.0 10.65 38.65 18.3 35.8 24.55 29.55 36.0 18.15 36.0 2.0 36.0 -14.15 24.55 -25.6 13.15 -37.0 -3.0 -37.0 -19.15 -37.0 -30.6 -25.6 L-31.8 -24.35 -28.3 -28.3 Q-16.55 -40.0 0.0 -40.0 16.55 -40.0 28.25 -28.3" fill="#000000" fill-opacity="0.2509804" fill-rule="evenodd" stroke="none"/>
    <path d="M31.8 -31.85 Q45.0 -18.65 45.0 0.0 45.0 18.65 31.8 31.8 18.65 45.0 0.0 45.0 -18.65 45.0 -31.85 31.8 -45.0 18.65 -45.0 0.0 -45.0 -18.65 -31.85 -31.85 -18.65 -45.0 0.0 -45.0 18.65 -45.0 31.8 -31.85 M28.25 -28.3 Q16.55 -40.0 0.0 -40.0 -16.55 -40.0 -28.3 -28.3 -40.0 -16.55 -40.0 0.0 -40.0 16.55 -28.3 28.25 -16.55 40.0 0.0 40.0 16.55 40.0 28.25 28.25 40.0 16.55 40.0 0.0 40.0 -16.55 28.25 -28.3" fill="url(#gradient7)" fill-rule="evenodd" stroke="none"/>
    <path d="M27.55 -27.6 Q16.15 -39.0 0.0 -39.0 -16.15 -39.0 -27.6 -27.6 -39.0 -16.15 -39.0 0.0 -39.0 16.15 -27.6 27.55 -16.15 39.0 0.0 39.0 16.15 39.0 27.55 27.55 39.0 16.15 39.0 0.0 39.0 -16.15 27.55 -27.6 M29.0 -29.0 Q41.0 -17.0 41.0 0.0 41.0 17.0 29.0 29.0 17.0 41.0 0.0 41.0 -17.0 41.0 -29.0 29.0 -41.0 17.0 -41.0 0.0 -41.0 -17.0 -29.0 -29.0 -17.0 -41.0 0.0 -41.0 17.0 -41.0 29.0 -29.0" fill="url(#gradient8)" fill-rule="evenodd" stroke="none"/>
    <path d="M18.5 -18.55 Q10.85 -26.15 0.0 -26.15 -10.85 -26.15 -18.5 -18.55 -26.15 -10.9 -26.15 -0.05 -26.15 10.85 -18.5 18.45 -10.85 26.1 0.0 26.1 10.85 26.1 18.5 18.45 26.15 10.85 26.15 -0.05 26.15 -10.9 18.5 -18.55 M19.45 -19.5 Q27.55 -11.45 27.55 -0.05 27.55 11.4 19.45 19.4 11.4 27.5 0.0 27.5 -11.4 27.5 -19.5 19.4 -27.55 11.4 -27.55 -0.05 -27.55 -11.45 -19.5 -19.5 -11.4 -27.55 0.0 -27.55 11.4 -27.55 19.45 -19.5" fill="url(#gradient9)" fill-rule="evenodd" stroke="none"/>
    <path d="M11.35 23.5 Q11.35 28.2 8.0 31.55 4.7 34.85 0.0 34.85 -4.7 34.85 -8.0 31.55 -11.35 28.2 -11.35 23.5 -11.35 18.8 -8.0 15.5 -4.7 12.2 0.0 12.2 4.7 12.2 8.0 15.5 11.35 18.8 11.35 23.5" fill="url(#gradient10)" fill-rule="evenodd" stroke="none"/>
    <path d="M10.8 23.5 Q10.8 27.95 7.6 31.15 4.45 34.3 0.0 34.3 -4.45 34.3 -7.6 31.15 -10.8 27.95 -10.8 23.5 -10.8 19.05 -7.6 15.9 -4.45 12.75 0.0 12.75 4.45 12.75 7.6 15.9 10.8 19.05 10.8 23.5" fill="url(#gradient11)" fill-rule="evenodd" stroke="none"/>
  </g>
  <defs>
    <linearGradient gradientTransform="matrix(0.0085, 0.0, 0.0, 0.0031, 0.0, -47.0)" gradientUnits="userSpaceOnUse" id="gradient0" spreadMethod="pad" x1="-819.2" x2="819.2">
      <stop offset="0.13333333333333333" stop-color="#7b6420"/>
      <stop offset="0.5019607843137255" stop-color="#d0b460"/>
      <stop offset="0.8549019607843137" stop-color="#7b6420"/>
    </linearGradient>
    <linearGradient gradientTransform="matrix(0.0037, 0.0, 0.0, 0.0012, 0.0, -57.0)" gradientUnits="userSpaceOnUse" id="gradient1" spreadMethod="pad" x1="-819.2" x2="819.2">
      <stop offset="0.0" stop-color="#594817"/>
      <stop offset="0.5019607843137255" stop-color="#ddb977"/>
      <stop offset="1.0" stop-color="#705a1d"/>
    </linearGradient>
    <radialGradient cx="0" cy="0" fx="553.6" fy="0" gradientTransform="matrix(2.0E-4, -0.0197, 0.0253, 2.0E-4, 0.0, -63.2)" gradientUnits="userSpaceOnUse" id="gradient2" r="819.2" spreadMethod="pad">
      <stop offset="0.08235294117647059" stop-color="#f1e8be"/>
      <stop offset="0.4588235294117647" stop-color="#dabf72"/>
      <stop offset="0.796078431372549" stop-color="#c6ad64" stop-opacity="0.6901961"/>
      <stop offset="1.0" stop-color="#998342" stop-opacity="0.0"/>
    </radialGradient>
    <radialGradient cx="0" cy="0" gradientTransform="matrix(0.0, -0.0074, 0.0121, 0.0, 0.0, -53.5)" gradientUnits="userSpaceOnUse" id="gradient3" r="819.2" spreadMethod="pad">
      <stop offset="0.08235294117647059" stop-color="#fbf7ee"/>
      <stop offset="0.3607843137254902" stop-color="#dabf72"/>
      <stop offset="0.7333333333333333" stop-color="#998342"/>
      <stop offset="0.9529411764705882" stop-color="#755935"/>
    </radialGradient>
    <linearGradient gradientTransform="matrix(0.0079, 0.0, 0.0, 0.004, 0.0, -61.25)" gradientUnits="userSpaceOnUse" id="gradient4" spreadMethod="pad" x1="-819.2" x2="819.2">
      <stop offset="0.0" stop-color="#7b6420"/>
      <stop offset="0.5019607843137255" stop-color="#e1c188"/>
      <stop offset="1.0" stop-color="#886f22"/>
    </linearGradient>
    <radialGradient cx="0" cy="0" gradientTransform="matrix(0.0071, -1.0E-4, 2.0E-4, 0.0087, 0.05, -64.55)" gradientUnits="userSpaceOnUse" id="gradient5" r="819.2" spreadMethod="pad">
      <stop offset="0.0" stop-color="#c8a84d"/>
      <stop offset="1.0" stop-color="#77611e"/>
    </radialGradient>
    <linearGradient gradientTransform="matrix(0.0488, 0.0, 0.0, 0.0488, 0.0, 0.0)" gradientUnits="userSpaceOnUse" id="gradient6" spreadMethod="pad" x1="-819.2" x2="819.2">
      <stop offset="0.08627450980392157" stop-color="#b5b5b5"/>
      <stop offset="1.0" stop-color="#ffffff"/>
    </linearGradient>
    <linearGradient gradientTransform="matrix(0.0387, -0.0388, 0.0388, 0.0387, 0.0, 0.0)" gradientUnits="userSpaceOnUse" id="gradient7" spreadMethod="pad" x1="-819.2" x2="819.2">
      <stop offset="0.0" stop-color="#7e6c56"/>
      <stop offset="0.13333333333333333" stop-color="#7b621a"/>
      <stop offset="0.592156862745098" stop-color="#d9bb66"/>
      <stop offset="0.9098039215686274" stop-color="#e8d788"/>
      <stop offset="0.9529411764705882" stop-color="#f5f1cf"/>
    </linearGradient>
    <linearGradient gradientTransform="matrix(0.0334, -0.0364, 0.0364, 0.0334, 0.0, 0.0)" gradientUnits="userSpaceOnUse" id="gradient8" spreadMethod="pad" x1="-819.2" x2="819.2">
      <stop offset="0.0" stop-color="#c6b980"/>
      <stop offset="0.22745098039215686" stop-color="#baa752"/>
      <stop offset="1.0" stop-color="#8c7224"/>
    </linearGradient>
    <linearGradient gradientTransform="matrix(0.0274, -0.0194, 0.0194, 0.0274, -0.05, -0.05)" gradientUnits="userSpaceOnUse" id="gradient9" spreadMethod="pad" x1="-819.2" x2="819.2">
      <stop offset="0.0" stop-color="#e9e4c0"/>
      <stop offset="0.21568627450980393" stop-color="#e2d6b1"/>
      <stop offset="1.0" stop-color="#c4a773"/>
    </linearGradient>
    <linearGradient gradientTransform="matrix(0.011, -0.0102, 0.0093, 0.0101, -0.05, 23.5)" gradientUnits="userSpaceOnUse" id="gradient10" spreadMethod="pad" x1="-819.2" x2="819.2">
      <stop offset="0.00392156862745098" stop-color="#755b57"/>
      <stop offset="1.0" stop-color="#a59b9a"/>
    </linearGradient>
    <linearGradient gradientTransform="matrix(-0.0102, -0.0112, 0.0097, -0.0088, 0.0, 23.5)" gradientUnits="userSpaceOnUse" id="gradient11" spreadMethod="pad" x1="-819.2" x2="819.2">
      <stop offset="0.0" stop-color="#a6a6a6"/>
      <stop offset="0.42745098039215684" stop-color="#f0f0f0"/>
      <stop offset="0.5843137254901961" stop-color="#f0f0f0"/>
      <stop offset="1.0" stop-color="#a6a6a6"/>
    </linearGradient>
  </defs>
</svg>
