<?xml version="1.0" encoding="UTF-8" standalone="no"?>
<svg xmlns:xlink="http://www.w3.org/1999/xlink" height="7.2px" width="6.75px" xmlns="http://www.w3.org/2000/svg">
  <g transform="matrix(1.0, 0.0, 0.0, 1.0, 3.35, 3.2)">
    <path d="M2.1 -1.15 Q3.0 -0.25 3.0 1.0 3.0 2.25 2.1 3.1 1.25 4.0 0.0 4.0 -1.25 4.0 -2.15 3.1 -3.0 2.25 -3.0 1.0 -3.0 -0.25 -2.15 -1.15 -1.25 -2.0 0.0 -2.0 1.25 -2.0 2.1 -1.15" fill="url(#gradient0)" fill-rule="evenodd" stroke="none"/>
    <path d="M2.9 -0.65 L1.4 0.75 1.8 2.7 0.05 1.75 -1.75 2.7 -1.35 0.75 -2.85 -0.65 -0.85 -0.9 0.05 -2.7 0.9 -0.9 2.9 -0.65 Z" fill="none" stroke="#000000" stroke-linecap="round" stroke-linejoin="round" stroke-opacity="0.2" stroke-width="1.0"/>
    <path d="M0.9 -0.9 L2.9 -0.65 1.4 0.75 1.8 2.7 0.05 1.75 -1.75 2.7 -1.35 0.75 -2.85 -0.65 -0.85 -0.9 0.05 -2.7 0.9 -0.9" fill="url(#gradient1)" fill-rule="evenodd" stroke="none"/>
  </g>
  <defs>
    <radialGradient cx="0" cy="0" gradientTransform="matrix(0.0045, 0.0, 0.0, 0.0045, -0.05, 1.15)" gradientUnits="userSpaceOnUse" id="gradient0" r="819.2" spreadMethod="pad">
      <stop offset="0.11764705882352941" stop-color="#000000"/>
      <stop offset="0.7764705882352941" stop-color="#000000" stop-opacity="0.0"/>
    </radialGradient>
    <radialGradient cx="0" cy="0" gradientTransform="matrix(0.0044, 1.0E-4, 0.0, 0.0043, 0.35, -0.25)" gradientUnits="userSpaceOnUse" id="gradient1" r="819.2" spreadMethod="pad">
      <stop offset="0.10196078431372549" stop-color="#eadfbf"/>
      <stop offset="0.3058823529411765" stop-color="#e0d1a5"/>
      <stop offset="0.6549019607843137" stop-color="#ba9e4b"/>
      <stop offset="0.796078431372549" stop-color="#b3953e"/>
      <stop offset="0.9725490196078431" stop-color="#bbb584"/>
    </radialGradient>
  </defs>
</svg>
