<?xml version="1.0" encoding="UTF-8" standalone="no"?>
<svg xmlns:xlink="http://www.w3.org/1999/xlink" height="339.5px" width="151.75px" xmlns="http://www.w3.org/2000/svg">
  <g transform="matrix(1.0, 0.0, 0.0, 1.0, -209.0, -203.75)">
    <path d="M331.75 224.0 Q336.25 227.6 340.3 239.65 344.75 252.7 341.0 257.5 332.2 256.8 319.4 247.05 314.2 243.05 311.2 239.55 308.1 235.85 309.0 234.5 L309.9 230.45 Q310.75 227.1 312.4 225.15 317.55 218.95 331.75 224.0 M273.25 221.45 Q271.75 227.1 268.75 229.25 266.15 231.1 262.35 230.9 258.0 230.65 254.0 227.5 251.15 225.25 249.6 221.9 248.1 218.7 248.5 216.0 248.8 213.85 250.2 211.0 251.55 208.2 252.75 207.25 254.7 205.7 256.8 204.7 259.05 203.7 260.5 203.75 266.85 204.1 269.25 206.5 273.25 210.5 274.0 214.25 274.5 216.8 273.25 221.45 M216.45 265.9 Q217.9 273.9 222.25 277.5 222.25 279.15 220.75 279.7 L217.5 280.0 213.6 279.8 Q211.35 279.4 210.25 278.25 209.2 277.15 209.0 274.9 L209.0 271.0 Q209.0 268.7 210.85 264.05 212.9 259.0 214.5 259.0 215.25 259.0 215.65 261.0 L216.45 265.9 M242.75 299.25 L256.5 300.75 253.5 312.5 Q253.15 311.35 250.35 311.15 L243.25 311.0 Q239.4 310.85 234.1 311.15 L227.25 311.75 242.75 299.25 M291.0 308.3 Q287.0 310.45 280.5 315.25 L281.25 300.75 Q285.35 300.1 293.05 297.2 301.05 294.15 305.25 291.5 L305.0 304.0 Q298.2 304.5 291.0 308.3 M284.5 481.75 Q287.1 479.95 291.75 482.8 297.45 486.3 299.75 494.75 302.85 505.95 306.0 522.75 306.55 525.75 305.05 530.35 303.6 534.85 302.0 535.75 299.05 537.4 295.95 534.95 294.25 533.6 291.5 529.75 287.45 524.2 283.1 516.2 277.9 506.55 276.25 500.25 275.35 496.85 277.15 491.7 279.3 485.25 284.5 481.75 M351.75 493.0 Q354.85 493.9 356.25 495.35 357.5 496.7 358.5 499.75 359.45 502.55 360.15 509.0 360.75 514.9 360.75 519.5 360.75 523.3 359.65 528.6 358.75 532.9 357.5 536.5 356.6 539.2 353.95 541.35 351.6 543.25 350.0 543.25 348.25 543.25 345.8 541.75 342.9 539.9 342.0 537.25 340.95 534.0 340.0 528.6 339.0 522.7 339.0 518.75 339.0 513.2 339.8 507.1 340.8 499.4 342.5 497.25 344.4 494.85 347.5 493.65 350.2 492.55 351.75 493.0" fill="#ffffff" fill-rule="evenodd" stroke="none"/>
  </g>
</svg>
