<?xml version="1.0" encoding="UTF-8" standalone="no"?>
<svg xmlns:xlink="http://www.w3.org/1999/xlink" height="508.1px" width="259.5px" xmlns="http://www.w3.org/2000/svg">
  <g transform="matrix(1.0, 0.0, 0.0, 1.0, -173.75, -114.95)">
    <path d="M348.0 280.0 Q342.95 280.4 342.2 291.15 341.7 298.2 343.25 315.9 345.0 336.2 345.05 344.1 345.15 359.05 341.5 365.5 339.15 367.25 339.7 370.35 340.4 374.3 346.0 379.0 357.8 388.95 369.5 402.05 386.15 420.6 388.0 431.0 391.5 450.4 387.75 480.2 386.05 493.65 381.65 514.55 380.35 520.95 374.25 542.1 367.8 564.35 366.25 566.75 365.65 567.7 365.05 574.8 364.35 583.3 363.05 588.45 358.3 607.05 341.5 607.5 341.05 607.4 340.2 609.55 338.95 612.7 337.75 614.5 332.8 622.05 322.0 623.0 309.9 624.1 299.8 605.7 297.0 600.6 292.35 590.0 288.05 580.2 286.0 576.75 276.5 565.4 269.75 552.55 263.35 540.45 256.5 521.5 L239.25 516.25 238.5 484.75 Q240.15 450.0 241.0 444.5 241.5 441.25 248.85 412.45 254.8 388.9 253.25 387.75 243.65 380.65 233.35 344.3 230.05 332.75 226.55 317.75 L222.9 301.4 197.25 325.25 Q174.85 331.45 173.75 305.75 L197.25 275.75 Q196.55 274.25 197.45 268.55 L198.5 261.5 Q198.5 260.7 200.2 259.5 L204.4 256.65 207.5 254.15 Q197.35 245.3 196.9 224.5 L196.6 217.7 Q196.4 213.55 196.75 210.75 L205.0 172.25 Q206.85 165.85 213.0 158.3 218.55 151.4 224.75 147.0 230.5 142.85 242.1 139.85 253.05 137.0 260.5 137.25 L264.35 137.7 Q264.2 133.75 261.85 130.35 257.75 124.55 247.75 121.5 L259.2 117.95 Q271.85 114.45 277.75 115.0 282.7 115.45 310.9 144.7 339.1 173.9 368.95 209.55 402.65 249.8 419.55 276.05 439.55 307.15 430.35 310.65 427.3 320.15 420.0 325.35 413.35 330.15 405.75 329.75 L376.95 304.05 Q348.3 278.5 348.0 280.0" fill="#ffffff" fill-rule="evenodd" stroke="none"/>
  </g>
</svg>
