<?xml version="1.0" encoding="UTF-8" standalone="no"?>
<svg xmlns:xlink="http://www.w3.org/1999/xlink" height="584.9px" width="353.0px" xmlns="http://www.w3.org/2000/svg">
  <g transform="matrix(1.0, 0.0, 0.0, 1.0, -116.35, -98.8)">
    <path d="M469.25 331.8 Q469.75 335.3 467.9 340.55 465.85 346.25 462.0 350.8 451.95 362.75 437.5 358.75 430.85 353.75 414.8 336.45 414.05 335.65 405.45 361.9 396.8 388.25 397.0 391.4 L424.0 440.0 Q409.1 513.6 407.25 520.75 405.35 528.2 381.8 596.85 370.85 617.0 349.0 612.5 L340.5 655.0 342.55 683.3 342.55 683.35 342.5 683.4 342.4 683.45 305.9 683.7 305.85 683.65 305.8 683.6 Q297.45 673.95 297.3 655.05 297.2 638.35 303.75 606.0 288.7 585.2 273.8 566.1 244.0 527.85 244.05 535.6 L219.5 547.5 158.25 424.0 Q139.1 416.35 131.05 409.2 118.9 398.4 117.0 383.75 115.05 369.05 119.0 367.15 120.5 366.4 127.45 357.35 132.1 351.35 164.0 316.85 L195.0 283.5 197.45 275.3 198.5 260.5 200.75 258.7 203.25 256.25 Q205.0 253.35 205.2 251.25 205.4 249.7 204.75 245.75 L191.9 219.85 199.5 196.5 Q195.7 193.7 191.9 186.75 187.7 178.95 186.2 170.4 180.4 137.05 193.95 127.0 200.35 122.9 214.75 116.95 231.35 110.15 248.05 105.55 293.7 92.9 312.0 104.0 335.6 118.35 403.9 220.1 438.05 271.0 467.5 319.0 L469.25 331.8" fill="#ffffff" fill-rule="evenodd" stroke="none"/>
  </g>
</svg>
