<?xml version="1.0" encoding="UTF-8" standalone="no"?>
<svg xmlns:xlink="http://www.w3.org/1999/xlink" height="589.75px" width="408.6px" xmlns="http://www.w3.org/2000/svg">
  <g transform="matrix(1.0, 0.0, 0.0, 1.0, -93.9, -94.75)">
    <path d="M475.5 365.5 Q464.65 378.95 442.3 391.15 418.15 404.35 407.5 399.75 407.2 399.55 414.45 421.7 L421.7 443.9 422.15 446.2 Q422.5 449.35 422.3 453.75 421.7 467.8 415.8 488.75 406.35 522.2 383.25 614.5 378.05 626.8 369.0 630.0 358.95 633.6 351.75 621.5 L342.55 683.3 342.55 683.35 342.5 683.4 342.4 683.45 302.45 684.5 302.4 684.45 300.55 680.8 Q296.05 665.9 296.95 648.2 297.55 636.75 302.35 606.25 302.4 605.95 275.55 596.15 245.85 585.35 239.75 582.75 237.05 576.9 186.1 514.8 135.75 453.45 134.25 453.0 131.6 452.35 120.55 435.3 109.5 418.3 105.0 408.0 103.25 404.05 98.3 386.15 93.35 368.1 94.0 368.0 L105.9 353.95 117.5 340.0 Q118.15 340.3 195.0 283.5 L193.25 279.25 197.45 275.3 198.0 260.5 Q198.0 260.85 199.95 259.3 L202.5 256.75 Q204.4 253.6 204.85 251.5 205.3 249.25 204.75 245.75 202.4 246.9 200.0 248.0 197.25 245.35 187.3 240.95 183.55 239.25 167.2 232.6 139.4 221.3 136.0 216.0 152.4 174.85 180.0 146.25 202.6 122.85 231.1 109.25 253.1 98.7 274.5 95.65 L288.8 94.8 Q294.3 95.0 295.7 96.25 L502.5 311.75 Q501.2 317.8 491.9 336.95 481.9 357.55 475.5 365.5" fill="#ffffff" fill-rule="evenodd" stroke="none"/>
  </g>
</svg>
