<?xml version="1.0" encoding="UTF-8" standalone="no"?>
<svg xmlns:xlink="http://www.w3.org/1999/xlink" height="528.55px" width="264.0px" xmlns="http://www.w3.org/2000/svg">
  <g transform="matrix(1.0, 0.0, 0.0, 1.0, -108.0, -159.45)">
    <path d="M369.25 245.85 Q368.7 247.25 367.05 249.0 361.8 254.5 358.25 262.0 357.95 262.65 357.55 266.75 357.15 270.85 355.9 273.45 351.85 282.0 336.0 282.0 L323.2 280.75 320.0 280.4 320.0 281.85 Q320.0 294.55 315.15 312.5 310.85 328.2 304.75 341.5 298.05 356.1 284.2 377.2 269.25 400.0 265.0 400.0 L261.65 399.5 258.75 409.85 Q258.75 411.35 264.5 424.4 L264.7 424.8 270.25 422.5 311.0 408.0 Q312.15 407.6 316.0 404.8 320.35 401.75 323.05 400.4 332.8 395.6 339.0 402.75 L340.65 404.3 Q347.65 410.15 353.5 417.75 L357.95 427.8 Q360.75 433.65 362.8 440.1 365.15 447.5 366.45 455.95 368.9 466.65 369.8 471.7 372.0 484.4 372.0 498.1 372.0 505.05 369.55 515.4 368.1 521.55 366.15 525.35 367.0 534.35 367.0 540.5 L366.95 547.6 Q366.8 553.45 366.0 556.6 364.75 561.7 359.35 565.7 354.85 569.1 352.0 569.1 347.85 569.1 346.0 562.8 L345.0 556.25 Q345.0 555.1 347.25 552.1 349.5 549.1 349.5 547.6 344.15 535.85 338.75 522.85 332.7 508.3 330.05 499.7 L322.6 497.95 309.5 495.35 Q303.7 494.75 299.35 493.2 295.6 491.85 294.0 491.85 L280.75 506.0 Q269.15 517.8 264.2 519.75 L264.05 519.9 Q262.4 522.15 260.1 523.6 258.95 524.55 257.4 524.9 254.2 526.1 250.0 526.1 240.25 526.1 219.55 506.85 211.65 499.5 205.75 492.55 203.0 489.3 201.6 487.2 L195.25 481.4 195.0 482.15 Q193.0 489.1 193.0 491.25 193.0 496.3 194.5 503.8 196.0 511.3 196.0 513.35 196.0 515.0 176.55 527.65 155.1 541.6 152.75 543.85 145.55 550.4 138.25 557.9 125.0 571.6 125.0 575.35 125.0 579.9 129.15 586.05 133.2 592.05 139.5 597.1 143.35 600.25 146.7 604.4 149.9 608.3 151.3 609.4 156.25 613.1 175.0 613.1 L177.85 613.45 181.25 610.35 Q185.4 606.5 204.25 596.55 221.35 587.45 229.5 584.1 234.55 582.0 254.25 572.15 272.75 563.2 278.25 562.6 289.3 561.5 308.85 563.35 333.0 565.6 333.0 571.25 333.0 574.55 330.45 576.05 329.1 576.9 324.3 578.1 313.85 580.7 309.75 587.85 308.5 590.1 305.55 596.1 302.6 601.75 300.0 605.1 296.95 608.95 289.55 623.1 283.5 634.7 282.45 637.9 287.75 641.1 295.0 648.55 303.9 657.7 310.8 667.9 318.0 678.55 318.0 683.1 318.0 686.95 316.9 688.0 L190.65 688.0 189.75 687.1 172.25 668.85 Q169.4 666.0 166.05 653.3 163.0 641.9 163.0 637.75 163.0 631.0 164.65 627.1 L164.5 627.1 Q144.15 627.1 126.55 601.5 121.0 593.45 116.5 583.8 113.0 576.45 113.0 575.6 113.0 565.25 123.2 553.7 130.0 546.05 146.75 532.85 158.15 523.85 170.05 515.4 178.35 509.45 179.8 507.9 181.8 505.85 181.65 502.4 181.0 496.6 181.0 490.85 181.0 485.3 183.5 479.3 L184.85 476.35 Q173.85 473.95 160.5 462.25 153.85 456.45 149.4 450.55 145.0 444.8 145.0 442.0 145.0 440.8 145.45 438.45 L143.85 434.45 Q143.3 432.95 143.0 428.85 142.7 424.9 143.35 421.45 L145.15 410.8 Q137.2 406.25 127.25 397.75 120.05 391.65 113.6 384.95 108.0 379.25 108.0 378.6 108.0 375.35 108.95 370.2 110.55 361.7 113.95 355.25 120.4 343.1 131.95 340.65 132.55 340.2 137.75 338.75 144.2 337.0 148.5 337.0 L156.45 338.25 164.35 339.5 Q167.8 339.5 175.5 337.55 177.0 336.85 178.55 336.75 L180.75 336.15 Q194.8 333.55 213.25 336.5 222.7 339.65 240.55 343.5 243.4 344.1 244.8 344.85 251.0 342.5 253.9 337.0 256.05 332.9 256.35 326.9 L256.25 319.0 Q256.25 315.7 254.9 309.4 253.2 301.4 250.3 294.95 246.15 285.7 240.6 281.75 L239.75 282.75 Q235.5 287.65 229.8 288.7 L229.55 289.0 Q227.8 291.0 224.5 291.0 214.95 291.0 202.55 264.1 198.6 255.55 194.95 245.5 192.0 237.4 192.0 236.85 192.0 228.35 195.0 222.2 197.9 216.25 206.25 207.25 221.95 190.2 230.05 189.4 232.55 189.1 236.95 190.4 241.8 191.75 245.0 191.75 251.3 191.75 262.25 190.2 L272.45 189.1 273.0 187.95 Q278.8 176.15 287.15 168.65 297.55 159.2 309.3 159.45 323.45 159.7 338.25 174.25 344.6 181.45 356.6 204.75 370.0 230.75 370.0 240.25 370.0 243.95 369.25 245.85 M357.75 239.5 Q357.75 238.4 353.25 227.9 347.9 215.4 342.05 204.25 324.25 170.5 313.0 170.5 300.1 170.5 289.3 184.5 285.85 189.0 283.1 194.25 L282.25 196.05 Q286.45 201.3 294.15 213.55 303.15 227.9 305.5 234.5 309.0 244.15 312.7 250.85 316.3 257.35 318.5 258.25 L319.3 267.95 322.0 268.25 334.5 269.5 Q343.15 269.5 346.25 263.15 347.2 261.15 347.75 258.1 L348.5 254.5 Q350.1 250.2 354.15 244.8 357.75 240.0 357.75 239.5 M155.4 353.9 L153.0 353.5 Q140.65 353.5 137.5 353.7 130.85 354.15 127.5 356.0 123.7 358.1 122.1 362.95 120.5 367.75 120.5 377.0 120.5 378.05 143.75 393.5 L147.1 395.75 148.1 388.35 148.0 385.35 Q148.3 374.9 150.75 365.5 152.6 358.3 155.4 353.9 M293.0 280.75 Q292.75 278.5 292.25 278.0 L292.25 278.25 291.75 281.0 293.0 280.75" fill="#ffffff" fill-rule="evenodd" stroke="none"/>
  </g>
</svg>
