<?xml version="1.0" encoding="UTF-8" standalone="no"?>
<svg xmlns:xlink="http://www.w3.org/1999/xlink" height="63.7px" width="1025.25px" xmlns="http://www.w3.org/2000/svg">
  <g transform="matrix(1.0, 0.0, 0.0, 1.0, 0.5, 0.5)">
    <path d="M0.0 11.0 L1.8 9.35 3.75 7.4 7.9 3.65 Q11.1 6.3 14.55 7.45 18.3 8.7 24.25 8.7 L25.55 8.55 Q28.3 12.35 30.35 13.95 33.85 16.7 38.85 16.7 40.4 16.7 42.6 15.95 L43.25 15.75 Q46.4 19.3 49.75 20.9 53.65 22.7 59.75 22.7 66.45 22.7 73.1 18.05 77.5 14.95 81.25 10.4 L83.9 12.1 Q88.05 14.7 89.35 14.7 90.65 14.7 96.25 8.0 100.25 3.2 102.5 0.0 L108.4 6.35 Q115.55 13.2 120.0 13.2 121.95 13.2 124.5 12.15 L126.85 11.05 Q128.95 15.2 132.3 17.4 136.65 20.2 143.85 20.2 155.2 20.2 164.85 17.4 173.05 15.0 181.9 9.95 L186.6 14.05 Q190.1 16.7 193.6 16.7 194.65 16.7 197.8 14.8 L201.45 17.1 Q204.7 18.7 207.85 18.7 210.95 18.7 217.15 17.1 222.85 15.65 225.25 14.45 L234.05 10.15 Q237.4 8.4 238.9 7.15 L243.1 10.7 Q248.35 14.7 251.75 14.7 254.05 14.7 256.4 12.65 L259.25 10.2 261.55 12.65 Q263.95 14.7 266.5 14.7 270.75 14.7 276.2 12.15 279.35 10.65 282.2 8.7 284.8 13.0 293.85 17.2 303.9 21.95 311.1 21.95 316.65 21.95 321.85 18.2 325.45 15.6 327.3 12.35 339.05 12.8 350.55 9.7 359.7 7.2 370.45 1.8 373.1 6.55 377.3 9.65 382.5 13.45 388.5 13.45 392.9 13.45 395.35 12.65 397.1 12.05 398.2 10.95 402.1 16.45 404.9 19.0 410.6 24.2 417.5 24.2 423.1 24.2 428.75 21.55 431.85 20.1 434.75 17.95 L436.5 18.2 Q443.7 18.2 451.95 11.55 458.05 6.6 460.35 1.95 464.9 6.4 470.7 8.55 477.05 10.95 486.25 10.95 L491.25 10.45 493.75 10.0 Q496.45 18.05 503.3 20.5 508.0 22.2 521.35 22.2 531.3 22.2 541.95 19.0 549.3 16.8 554.75 13.8 L557.55 15.6 Q560.6 17.2 564.0 17.2 568.45 17.2 574.3 13.2 L580.05 8.6 Q584.65 12.55 597.0 16.75 612.2 21.95 622.35 21.95 630.55 21.95 639.2 18.2 646.2 15.15 650.8 10.95 655.7 15.6 657.9 16.9 661.8 19.2 668.1 19.2 680.8 19.2 691.5 9.8 L693.2 10.55 Q695.9 11.65 697.75 11.95 L708.0 12.95 Q714.55 12.95 722.05 11.3 727.65 10.1 731.8 8.35 L738.95 14.1 Q744.5 18.1 749.0 20.2 752.2 21.7 759.55 23.45 767.5 25.35 772.2 25.45 780.25 23.25 788.55 18.9 798.35 13.7 803.8 7.85 806.25 12.25 810.4 15.95 814.3 19.35 818.4 21.1 L822.3 20.0 826.65 18.25 Q828.4 19.5 830.35 20.4 834.2 22.2 838.0 22.2 843.45 22.2 852.3 19.15 857.95 17.2 861.0 15.55 863.55 17.3 868.85 18.35 874.45 19.45 881.35 19.45 898.8 19.45 909.7 11.25 L913.6 14.9 Q917.6 18.2 921.1 18.2 924.65 18.2 927.8 16.55 929.3 15.8 930.6 14.7 934.15 17.2 940.45 18.75 947.4 20.45 954.75 20.45 967.0 20.45 976.35 13.25 980.65 17.05 985.3 18.85 990.7 20.95 998.0 20.95 1005.4 20.95 1014.2 17.25 1020.35 14.65 1024.25 11.55 L1024.25 40.0 1021.0 39.05 1014.25 38.45 Q1006.05 38.45 1002.25 40.95 L997.25 44.3 996.35 45.05 991.35 41.85 Q987.6 39.7 984.5 38.45 979.5 36.4 976.55 35.95 L969.5 35.7 Q960.25 35.7 953.75 38.15 947.5 40.45 944.3 44.9 940.55 42.9 935.85 41.65 929.25 39.95 922.0 39.95 917.0 39.95 909.8 42.05 905.6 43.3 903.4 44.55 896.85 39.75 886.1 34.45 870.95 26.95 862.6 26.95 853.05 26.95 840.45 35.25 831.0 41.45 825.95 48.1 L824.9 47.25 Q822.35 45.2 821.5 44.95 820.2 44.55 817.5 43.35 L814.0 41.95 Q810.9 41.0 804.8 40.45 L794.85 39.95 Q786.45 39.95 780.85 41.25 774.75 42.7 770.8 45.9 767.9 42.0 759.15 38.25 750.85 34.65 744.1 34.25 741.6 35.85 738.55 38.85 733.45 43.75 732.35 47.6 716.45 43.2 708.0 43.2 699.7 43.2 693.4 45.5 688.05 47.45 684.75 50.85 L682.3 49.0 Q679.25 46.95 676.35 46.95 672.75 46.95 668.4 49.55 666.55 50.65 663.9 52.75 660.0 49.05 648.8 45.05 635.95 40.45 627.25 40.45 621.2 40.45 615.8 42.2 611.8 43.5 609.6 45.45 606.65 44.45 604.85 44.45 601.15 44.45 597.25 46.05 595.35 46.85 593.95 47.8 585.3 40.7 571.6 40.7 565.45 40.7 562.05 42.5 L559.35 40.75 Q554.6 37.7 553.6 37.7 551.95 37.7 547.8 43.1 L544.9 47.2 537.45 44.8 Q531.2 43.2 524.85 43.2 516.05 43.2 507.85 47.1 501.25 50.2 497.75 54.75 485.4 48.95 481.85 48.95 478.7 48.95 473.75 52.9 471.3 54.85 469.65 56.6 461.75 51.5 450.65 49.65 442.1 48.2 426.0 48.2 L420.35 48.7 419.45 48.85 417.0 46.3 Q413.8 43.05 410.5 41.95 L403.6 39.1 Q397.6 36.7 395.75 36.7 393.2 36.7 386.4 39.95 L380.45 43.05 377.1 42.55 369.35 42.45 Q358.5 42.45 348.55 46.55 338.15 50.8 334.4 57.9 L331.15 55.7 Q325.7 52.2 323.85 52.2 320.4 52.2 315.65 54.3 312.65 55.65 310.2 57.25 305.6 52.65 297.5 48.95 288.15 44.7 280.6 44.7 L274.85 44.8 272.6 45.2 Q271.65 46.9 270.85 49.3 269.75 52.6 269.4 55.75 L264.0 54.55 259.75 53.7 Q258.0 54.15 257.25 54.45 252.1 56.15 250.5 56.95 242.75 60.65 239.25 62.7 L238.75 61.7 233.25 56.7 Q231.9 55.3 227.7 53.75 223.45 52.2 221.0 52.2 L218.1 52.6 Q214.85 47.95 208.45 45.65 201.8 43.2 191.35 43.2 181.85 43.2 173.5 46.55 165.4 49.8 160.9 55.3 155.05 53.45 143.85 50.5 121.05 44.45 110.6 44.45 97.7 44.45 91.75 45.8 86.2 47.1 77.4 51.5 72.95 45.9 69.3 43.55 64.15 40.2 56.75 40.2 51.0 40.2 47.05 41.4 44.15 42.25 41.5 43.95 38.95 41.85 34.7 40.35 29.25 38.45 23.75 38.45 17.15 38.45 12.5 39.65 8.8 40.6 5.65 42.4 L3.0 40.75 Q1.15 39.55 0.0 39.2 L0.0 11.0 M703.9 31.05 L699.1 31.2 697.85 31.15 693.35 34.4 687.25 38.55 690.2 39.45 692.75 40.3 Q695.8 39.35 699.7 38.95 L708.3 38.35 708.65 30.85 703.9 31.05 M460.45 22.1 L465.45 22.65 468.9 19.5 472.7 15.95 460.5 14.05 456.9 17.55 453.4 20.9 460.45 22.1 M15.8 13.75 Q14.45 13.1 11.6 12.55 L8.1 11.75 6.7 13.5 4.35 17.0 6.7 17.75 10.6 18.7 Q12.1 18.7 14.05 16.3 L15.8 13.75" fill="#ffffff" fill-rule="evenodd" stroke="none"/>
    <path d="M0.0 11.0 L1.8 9.35 3.75 7.4 7.9 3.65 Q11.1 6.3 14.55 7.45 18.3 8.7 24.25 8.7 L25.55 8.55 Q28.3 12.35 30.35 13.95 33.85 16.7 38.85 16.7 40.4 16.7 42.6 15.95 L43.25 15.75 Q46.4 19.3 49.75 20.9 53.65 22.7 59.75 22.7 66.45 22.7 73.1 18.05 77.5 14.95 81.25 10.4 L83.9 12.1 Q88.05 14.7 89.35 14.7 90.65 14.7 96.25 8.0 100.25 3.2 102.5 0.0 L108.4 6.35 Q115.55 13.2 120.0 13.2 121.95 13.2 124.5 12.15 L126.85 11.05 Q128.95 15.2 132.3 17.4 136.65 20.2 143.85 20.2 155.2 20.2 164.85 17.4 173.05 15.0 181.9 9.95 L186.6 14.05 Q190.1 16.7 193.6 16.7 194.65 16.7 197.8 14.8 L201.45 17.1 Q204.7 18.7 207.85 18.7 210.95 18.7 217.15 17.1 222.85 15.65 225.25 14.45 L234.05 10.15 Q237.4 8.4 238.9 7.15 L243.1 10.7 Q248.35 14.7 251.75 14.7 254.05 14.7 256.4 12.65 L259.25 10.2 261.55 12.65 Q263.95 14.7 266.5 14.7 270.75 14.7 276.2 12.15 279.35 10.65 282.2 8.7 284.8 13.0 293.85 17.2 303.9 21.95 311.1 21.95 316.65 21.95 321.85 18.2 325.45 15.6 327.3 12.35 339.05 12.8 350.55 9.7 359.7 7.2 370.45 1.8 373.1 6.55 377.3 9.65 382.5 13.45 388.5 13.45 392.9 13.45 395.35 12.65 397.1 12.05 398.2 10.95 402.1 16.45 404.9 19.0 410.6 24.2 417.5 24.2 423.1 24.2 428.75 21.55 431.85 20.1 434.75 17.95 L436.5 18.2 Q443.7 18.2 451.95 11.55 458.05 6.6 460.35 1.95 464.9 6.4 470.7 8.55 477.05 10.95 486.25 10.95 L491.25 10.45 493.75 10.0 Q496.45 18.05 503.3 20.5 508.0 22.2 521.35 22.2 531.3 22.2 541.95 19.0 549.3 16.8 554.75 13.8 L557.55 15.6 Q560.6 17.2 564.0 17.2 568.45 17.2 574.3 13.2 L580.05 8.6 Q584.65 12.55 597.0 16.75 612.2 21.95 622.35 21.95 630.55 21.95 639.2 18.2 646.2 15.15 650.8 10.95 655.7 15.6 657.9 16.9 661.8 19.2 668.1 19.2 680.8 19.2 691.5 9.8 L693.2 10.55 Q695.9 11.65 697.75 11.95 L708.0 12.95 Q714.55 12.95 722.05 11.3 727.65 10.1 731.8 8.35 L738.95 14.1 Q744.5 18.1 749.0 20.2 752.2 21.7 759.55 23.45 767.5 25.35 772.2 25.45 780.25 23.25 788.55 18.9 798.35 13.7 803.8 7.85 806.25 12.25 810.4 15.95 814.3 19.35 818.4 21.1 L822.3 20.0 826.65 18.25 Q828.4 19.5 830.35 20.4 834.2 22.2 838.0 22.2 843.45 22.2 852.3 19.15 857.95 17.2 861.0 15.55 863.55 17.3 868.85 18.35 874.45 19.45 881.35 19.45 898.8 19.45 909.7 11.25 L913.6 14.9 Q917.6 18.2 921.1 18.2 924.65 18.2 927.8 16.55 929.3 15.8 930.6 14.7 934.15 17.2 940.45 18.75 947.4 20.45 954.75 20.45 967.0 20.45 976.35 13.25 980.65 17.05 985.3 18.85 990.7 20.95 998.0 20.95 1005.4 20.95 1014.2 17.25 1020.35 14.65 1024.25 11.55 M1024.25 40.0 L1021.0 39.05 1014.25 38.45 Q1006.05 38.45 1002.25 40.95 L997.25 44.3 996.35 45.05 991.35 41.85 Q987.6 39.7 984.5 38.45 979.5 36.4 976.55 35.95 L969.5 35.7 Q960.25 35.7 953.75 38.15 947.5 40.45 944.3 44.9 940.55 42.9 935.85 41.65 929.25 39.95 922.0 39.95 917.0 39.95 909.8 42.05 905.6 43.3 903.4 44.55 896.85 39.75 886.1 34.45 870.95 26.95 862.6 26.95 853.05 26.95 840.45 35.25 831.0 41.45 825.95 48.1 L824.9 47.25 Q822.35 45.2 821.5 44.95 820.2 44.55 817.5 43.35 L814.0 41.95 Q810.9 41.0 804.8 40.45 L794.85 39.95 Q786.45 39.95 780.85 41.25 774.75 42.7 770.8 45.9 767.9 42.0 759.15 38.25 750.85 34.65 744.1 34.25 741.6 35.85 738.55 38.85 733.45 43.75 732.35 47.6 716.45 43.2 708.0 43.2 699.7 43.2 693.4 45.5 688.05 47.45 684.75 50.85 L682.3 49.0 Q679.25 46.95 676.35 46.95 672.75 46.95 668.4 49.55 666.55 50.65 663.9 52.75 660.0 49.05 648.8 45.05 635.95 40.45 627.25 40.45 621.2 40.45 615.8 42.2 611.8 43.5 609.6 45.45 606.65 44.45 604.85 44.45 601.15 44.45 597.25 46.05 595.35 46.85 593.95 47.8 585.3 40.7 571.6 40.7 565.45 40.7 562.05 42.5 L559.35 40.75 Q554.6 37.7 553.6 37.7 551.95 37.7 547.8 43.1 L544.9 47.2 537.45 44.8 Q531.2 43.2 524.85 43.2 516.05 43.2 507.85 47.1 501.25 50.2 497.75 54.75 485.4 48.95 481.85 48.95 478.7 48.95 473.75 52.9 471.3 54.85 469.65 56.6 461.75 51.5 450.65 49.65 442.1 48.2 426.0 48.2 L420.35 48.7 419.45 48.85 417.0 46.3 Q413.8 43.05 410.5 41.95 L403.6 39.1 Q397.6 36.7 395.75 36.7 393.2 36.7 386.4 39.95 L380.45 43.05 377.1 42.55 369.35 42.45 Q358.5 42.45 348.55 46.55 338.15 50.8 334.4 57.9 L331.15 55.7 Q325.7 52.2 323.85 52.2 320.4 52.2 315.65 54.3 312.65 55.65 310.2 57.25 305.6 52.65 297.5 48.95 288.15 44.7 280.6 44.7 L274.85 44.8 272.6 45.2 Q271.65 46.9 270.85 49.3 269.75 52.6 269.4 55.75 L264.0 54.55 259.75 53.7 Q258.0 54.15 257.25 54.45 252.1 56.15 250.5 56.95 242.75 60.65 239.25 62.7 L238.75 61.7 233.25 56.7 Q231.9 55.3 227.7 53.75 223.45 52.2 221.0 52.2 L218.1 52.6 Q214.85 47.95 208.45 45.65 201.8 43.2 191.35 43.2 181.85 43.2 173.5 46.55 165.4 49.8 160.9 55.3 155.05 53.45 143.85 50.5 121.05 44.45 110.6 44.45 97.7 44.45 91.75 45.8 86.2 47.1 77.4 51.5 72.95 45.9 69.3 43.55 64.15 40.2 56.75 40.2 51.0 40.2 47.05 41.4 44.15 42.25 41.5 43.95 38.95 41.85 34.7 40.35 29.25 38.45 23.75 38.45 17.15 38.45 12.5 39.65 8.8 40.6 5.65 42.4 L3.0 40.75 Q1.15 39.55 0.0 39.2 M15.8 13.75 L14.05 16.3 Q12.1 18.7 10.6 18.7 L6.7 17.75 4.35 17.0 6.7 13.5 8.1 11.75 11.6 12.55 Q14.45 13.1 15.8 13.75 M460.45 22.1 L453.4 20.9 456.9 17.55 460.5 14.05 472.7 15.95 468.9 19.5 465.45 22.65 460.45 22.1 M703.9 31.05 L708.65 30.85 708.3 38.35 699.7 38.95 Q695.8 39.35 692.75 40.3 L690.2 39.45 687.25 38.55 693.35 34.4 697.85 31.15 699.1 31.2 703.9 31.05" fill="none" stroke="#66ffff" stroke-linecap="round" stroke-linejoin="round" stroke-width="1.0"/>
  </g>
</svg>
