<?xml version="1.0" encoding="UTF-8" standalone="no"?>
<svg xmlns:xlink="http://www.w3.org/1999/xlink" height="807.4px" width="2.9px" xmlns="http://www.w3.org/2000/svg">
  <g transform="matrix(1.0, 0.0, 0.0, 1.0, 1.45, 403.7)">
    <path d="M0.65 -285.1 L0.95 0.0 0.65 285.1 Q0.4 403.2 0.0 403.2 -0.4 402.4 -0.7 285.1 L-0.95 0.0 -0.7 -285.1 Q-0.4 -403.2 0.0 -403.2 0.4 -402.4 0.65 -285.1" fill="#000000" fill-rule="evenodd" stroke="none"/>
    <path d="M0.65 -285.1 L0.95 0.0 0.65 285.1 Q0.4 403.2 0.0 403.2 -0.4 402.4 -0.7 285.1 L-0.95 0.0 -0.7 -285.1 Q-0.4 -403.2 0.0 -403.2 0.4 -402.4 0.65 -285.1 Z" fill="none" stroke="#000000" stroke-linecap="round" stroke-linejoin="round" stroke-width="1.0"/>
  </g>
</svg>
