<?xml version="1.0" encoding="UTF-8" standalone="no"?>
<svg xmlns:xlink="http://www.w3.org/1999/xlink" height="176.0px" width="176.0px" xmlns="http://www.w3.org/2000/svg">
  <g transform="matrix(1.0, 0.0, 0.0, 1.0, 88.0, 88.0)">
    <path d="M62.2 -62.25 Q88.0 -36.45 88.0 0.0 88.0 36.45 62.2 62.2 36.45 88.0 0.0 88.0 -36.45 88.0 -62.25 62.2 -88.0 36.45 -88.0 0.0 -88.0 -36.45 -62.25 -62.25 -36.45 -88.0 0.0 -88.0 36.45 -88.0 62.2 -62.25 M50.5 -45.0 Q31.75 -63.75 5.25 -63.75 -21.25 -63.75 -40.0 -45.0 -58.75 -26.25 -58.75 0.25 -58.75 26.75 -40.0 45.5 -21.25 64.25 5.25 64.25 31.75 64.25 50.5 45.5 69.25 26.75 69.25 0.25 69.25 -26.25 50.5 -45.0" fill="#ffffff" fill-rule="evenodd" stroke="none"/>
  </g>
</svg>
