<?xml version="1.0" encoding="UTF-8" standalone="no"?>
<svg xmlns:xlink="http://www.w3.org/1999/xlink" height="133.05px" width="481.15px" xmlns="http://www.w3.org/2000/svg">
  <g transform="matrix(1.0, 0.0, 0.0, 1.0, -59.5, -584.35)">
    <path d="M432.85 613.95 L446.8 610.45 Q471.7 604.6 483.05 603.75 L485.5 605.35 489.5 607.95 513.6 603.3 526.55 600.9 526.7 600.85 Q531.45 626.95 535.95 670.15 538.25 692.3 540.15 714.65 534.95 714.85 484.9 713.7 434.6 712.5 430.6 712.65 430.55 702.0 431.6 662.45 L432.8 613.95 432.85 613.95" fill="#000000" fill-rule="evenodd" stroke="none"/>
    <path d="M432.75 613.6 L435.45 606.25 Q448.85 603.7 485.3 595.0 L527.9 584.85 527.3 591.95 526.6 600.3 526.55 600.9 513.6 603.3 489.5 607.95 485.5 605.35 483.05 603.75 Q471.7 604.6 446.8 610.45 L432.85 613.95 432.75 613.6" fill="#72603f" fill-rule="evenodd" stroke="none"/>
    <path d="M526.55 600.9 L526.6 600.3 527.3 591.95 527.9 584.85 485.3 595.0 Q448.85 603.7 435.45 606.25 L432.75 613.6 432.6 614.0 432.8 613.95 431.6 662.45 Q430.55 702.0 430.6 712.65 434.6 712.5 484.9 713.7 534.95 714.85 540.15 714.65 538.25 692.3 535.95 670.15 531.45 626.95 526.7 600.85 L526.6 600.3 M432.85 613.95 L446.8 610.45 Q471.7 604.6 483.05 603.75 L485.5 605.35 489.5 607.95 513.6 603.3 526.55 600.9 526.7 600.85 M432.8 613.95 L432.85 613.95 M432.8 613.95 L432.75 613.6" fill="none" stroke="#000000" stroke-linecap="round" stroke-linejoin="round" stroke-width="1.0"/>
    <path d="M74.35 599.95 L118.65 607.35 Q144.4 611.45 155.25 613.75 L156.3 617.85 Q173.55 621.75 223.0 631.5 L227.15 621.0 228.5 617.55 Q228.4 639.95 227.7 674.6 227.0 710.4 226.55 715.7 L60.0 709.7 Q60.05 703.55 64.5 639.3 L70.05 637.1 Q70.3 632.3 72.5 615.0 L74.35 599.95" fill="#000000" fill-rule="evenodd" stroke="none"/>
    <path d="M228.5 617.55 L227.15 621.0 223.0 631.5 Q173.55 621.75 156.3 617.85 L155.25 613.75 Q144.4 611.45 118.65 607.35 L74.35 599.95 74.4 599.65 83.3 595.85 87.4 594.2 129.7 597.9 162.95 601.05 164.4 601.25 189.9 607.7 220.0 615.1 228.5 616.7 228.5 617.55" fill="#72603f" fill-rule="evenodd" stroke="none"/>
    <path d="M74.35 599.95 L118.65 607.35 Q144.4 611.45 155.25 613.75 L156.3 617.85 Q173.55 621.75 223.0 631.5 L227.15 621.0 228.5 617.55 228.5 616.7 220.0 615.1 189.9 607.7 164.4 601.25 162.95 601.05 129.7 597.9 87.4 594.2 83.3 595.85 74.4 599.65 74.35 599.95 73.9 599.9 74.4 599.65 M228.5 617.55 Q228.4 639.95 227.7 674.6 227.0 710.4 226.55 715.7 L60.0 709.7 Q60.05 703.55 64.5 639.3 L70.05 637.1 Q70.3 632.3 72.5 615.0 L74.35 599.95 M228.5 616.7 L228.85 616.75 228.5 617.55 M162.95 601.05 L163.45 601.0 164.4 601.25" fill="none" stroke="#000000" stroke-linecap="round" stroke-linejoin="round" stroke-width="1.0"/>
    <path d="M217.65 694.35 Q217.35 687.8 217.5 665.85 L217.65 630.2 Q224.55 627.8 239.35 625.2 L241.2 624.85 239.75 612.1 Q266.9 608.3 316.65 604.7 386.85 599.55 410.0 604.15 L410.25 608.85 410.3 610.2 Q416.75 609.85 426.2 609.9 L444.35 610.45 Q451.5 682.9 451.55 695.65 451.6 699.5 450.75 703.95 450.0 708.25 449.85 715.55 L217.65 694.35" fill="#000000" fill-rule="evenodd" stroke="none"/>
    <path d="M217.65 694.35 Q217.35 687.8 217.5 665.85 L217.65 630.2 Q224.55 627.8 239.35 625.2 L241.2 624.85 239.75 612.1 Q266.9 608.3 316.65 604.7 386.85 599.55 410.0 604.15 L410.25 608.85 410.3 610.2 Q416.75 609.85 426.2 609.9 L444.35 610.45 Q451.5 682.9 451.55 695.65 451.6 699.5 450.75 703.95 450.0 708.25 449.85 715.55 L459.95 716.45 M213.5 693.95 L217.65 694.35 449.85 715.55 449.8 716.9 M217.65 694.35 L217.7 695.35 217.75 696.35" fill="none" stroke="#000000" stroke-linecap="round" stroke-linejoin="round" stroke-width="1.0"/>
  </g>
</svg>
