<?xml version="1.0" encoding="UTF-8" standalone="no"?>
<svg xmlns:xlink="http://www.w3.org/1999/xlink" height="15.0px" width="22.9px" xmlns="http://www.w3.org/2000/svg">
  <g transform="matrix(1.0, 0.0, 0.0, 1.0, -2.0, 17.0)">
    <path d="M14.0 -16.0 L13.0 -16.0 13.0 -17.0 14.0 -17.0 14.0 -16.0 M13.0 -15.0 L13.0 -14.0 12.0 -14.0 12.0 -15.0 13.0 -15.0 M11.0 -14.0 L11.0 -13.0 12.0 -13.0 12.0 -12.0 11.0 -12.0 11.0 -13.0 10.0 -13.0 10.0 -14.0 11.0 -14.0 M16.0 -12.0 L15.0 -12.0 15.0 -13.0 16.0 -13.0 16.0 -14.0 16.9 -14.0 16.9 -13.0 16.0 -13.0 16.0 -12.0 M15.0 -14.0 L14.0 -14.0 14.0 -15.0 15.0 -15.0 15.0 -14.0 M20.0 -14.0 L20.0 -15.0 21.0 -15.0 21.0 -14.0 20.0 -14.0 M21.0 -16.0 L21.0 -17.0 22.0 -17.0 22.0 -16.0 21.0 -16.0 M22.0 -15.0 L23.0 -15.0 23.0 -14.0 22.0 -14.0 22.0 -15.0 M24.0 -14.0 L24.9 -14.0 24.9 -13.0 24.0 -13.0 24.0 -12.0 23.0 -12.0 23.0 -13.0 24.0 -13.0 24.0 -14.0 M19.0 -12.0 L19.0 -13.0 18.0 -13.0 18.0 -14.0 19.0 -14.0 19.0 -13.0 20.0 -13.0 20.0 -12.0 19.0 -12.0 M5.0 -16.0 L5.0 -17.0 6.0 -17.0 6.0 -16.0 5.0 -16.0 M6.0 -15.0 L7.0 -15.0 7.0 -14.0 6.0 -14.0 6.0 -15.0 M8.0 -14.0 L8.9 -14.0 8.9 -13.0 8.0 -13.0 8.0 -12.0 7.0 -12.0 7.0 -13.0 8.0 -13.0 8.0 -14.0 M3.0 -12.0 L3.0 -13.0 2.0 -13.0 2.0 -14.0 3.0 -14.0 3.0 -13.0 4.0 -13.0 4.0 -12.0 3.0 -12.0 M4.0 -14.0 L4.0 -15.0 5.0 -15.0 5.0 -14.0 4.0 -14.0 M9.0 -8.0 L9.0 -9.0 10.0 -9.0 10.0 -8.0 9.0 -8.0 M10.0 -7.0 L11.0 -7.0 11.0 -6.0 10.0 -6.0 10.0 -7.0 M12.0 -6.0 L12.9 -6.0 12.9 -5.0 12.0 -5.0 12.0 -4.0 11.0 -4.0 11.0 -5.0 12.0 -5.0 12.0 -6.0 M7.0 -4.0 L7.0 -5.0 6.0 -5.0 6.0 -6.0 7.0 -6.0 7.0 -5.0 8.0 -5.0 8.0 -4.0 7.0 -4.0 M8.0 -6.0 L8.0 -7.0 9.0 -7.0 9.0 -6.0 8.0 -6.0" fill="#ed0303" fill-opacity="0.5019608" fill-rule="evenodd" stroke="none"/>
    <path d="M13.0 -16.0 L14.0 -16.0 14.0 -15.0 14.0 -14.0 15.0 -14.0 16.0 -14.0 16.0 -13.0 15.0 -13.0 15.0 -12.0 16.0 -12.0 16.0 -10.0 15.0 -10.0 15.0 -11.0 14.0 -11.0 14.0 -12.0 13.0 -12.0 13.0 -11.0 12.0 -11.0 12.0 -10.0 11.0 -10.0 11.0 -12.0 12.0 -12.0 12.0 -13.0 11.0 -13.0 11.0 -14.0 12.0 -14.0 13.0 -14.0 13.0 -15.0 13.0 -16.0 M19.0 -14.0 L20.0 -14.0 21.0 -14.0 21.0 -15.0 21.0 -16.0 22.0 -16.0 22.0 -15.0 22.0 -14.0 23.0 -14.0 24.0 -14.0 24.0 -13.0 23.0 -13.0 23.0 -12.0 24.0 -12.0 24.0 -10.0 23.0 -10.0 23.0 -11.0 22.0 -11.0 22.0 -12.0 21.0 -12.0 21.0 -11.0 20.0 -11.0 20.0 -10.0 19.0 -10.0 19.0 -12.0 20.0 -12.0 20.0 -13.0 19.0 -13.0 19.0 -14.0 M6.0 -16.0 L6.0 -15.0 6.0 -14.0 7.0 -14.0 8.0 -14.0 8.0 -13.0 7.0 -13.0 7.0 -12.0 8.0 -12.0 8.0 -10.0 7.0 -10.0 7.0 -11.0 6.0 -11.0 6.0 -12.0 5.0 -12.0 5.0 -11.0 4.0 -11.0 4.0 -10.0 3.0 -10.0 3.0 -12.0 4.0 -12.0 4.0 -13.0 3.0 -13.0 3.0 -14.0 4.0 -14.0 5.0 -14.0 5.0 -15.0 5.0 -16.0 6.0 -16.0 M9.0 -7.0 L9.0 -8.0 10.0 -8.0 10.0 -7.0 10.0 -6.0 11.0 -6.0 12.0 -6.0 12.0 -5.0 11.0 -5.0 11.0 -4.0 12.0 -4.0 12.0 -2.0 11.0 -2.0 11.0 -3.0 10.0 -3.0 10.0 -4.0 9.0 -4.0 9.0 -3.0 8.0 -3.0 8.0 -2.0 7.0 -2.0 7.0 -4.0 8.0 -4.0 8.0 -5.0 7.0 -5.0 7.0 -6.0 8.0 -6.0 9.0 -6.0 9.0 -7.0" fill="#ea0000" fill-rule="evenodd" stroke="none"/>
    <path d="M16.9 -14.0 L17.0 -14.0 17.0 -13.0 16.9 -13.0 16.9 -14.0 M17.0 -8.0 L17.0 -9.0 17.05 -9.0 17.05 -8.8 18.0 -8.8 18.0 -8.0 17.0 -8.0 M18.0 -7.0 L19.0 -7.0 19.0 -6.0 18.0 -6.0 18.0 -7.0 M20.0 -6.0 L21.0 -6.0 21.0 -5.0 20.0 -5.0 20.0 -4.0 19.0 -4.0 19.0 -5.0 20.0 -5.0 20.0 -6.0 M15.0 -4.0 L15.0 -5.0 14.0 -5.0 14.0 -6.0 15.0 -6.0 15.0 -5.0 16.0 -5.0 16.0 -4.0 15.0 -4.0 M16.0 -6.0 L16.0 -7.0 17.0 -7.0 17.0 -6.0 16.0 -6.0" fill="#ffffff" fill-opacity="0.5019608" fill-rule="evenodd" stroke="none"/>
    <path d="M18.0 -8.0 L18.0 -7.0 18.0 -6.0 19.0 -6.0 20.0 -6.0 20.0 -5.0 19.0 -5.0 19.0 -4.0 20.0 -4.0 20.0 -2.0 19.0 -2.0 19.0 -3.0 18.0 -3.0 18.0 -4.0 17.0 -4.0 17.0 -3.0 16.0 -3.0 16.0 -2.0 15.0 -2.0 15.0 -4.0 16.0 -4.0 16.0 -5.0 15.0 -5.0 15.0 -6.0 16.0 -6.0 17.0 -6.0 17.0 -7.0 17.0 -8.0 18.0 -8.0" fill="#ffffff" fill-rule="evenodd" stroke="none"/>
  </g>
</svg>
