<?xml version="1.0" encoding="UTF-8" standalone="no"?>
<svg xmlns:xlink="http://www.w3.org/1999/xlink" height="155.95px" width="34.8px" xmlns="http://www.w3.org/2000/svg">
  <g transform="matrix(1.0, 0.0, 0.0, 1.0, 17.25, 78.5)">
    <path d="M13.15 -74.9 L13.1 -74.9 Q18.15 -73.9 17.5 -69.75 L17.45 -69.5 Q13.15 -48.6 11.8 -21.9 10.75 -0.35 11.5 29.95 L11.2 31.25 10.25 32.2 9.45 32.5 9.45 33.7 Q7.7 40.1 8.4 48.45 L8.5 48.55 Q9.5 49.6 9.5 51.0 9.5 52.4 8.5 53.45 L8.45 53.5 8.4 53.55 Q7.7 61.9 9.45 68.35 L9.55 69.95 9.45 71.5 9.45 71.4 Q8.9 75.6 3.85 77.4 L2.2 77.4 Q-2.9 75.6 -3.45 71.4 L-3.45 71.5 -3.5 69.95 -3.4 68.35 Q-1.7 61.9 -2.35 53.55 L-2.45 53.5 -2.45 53.45 Q-3.5 52.4 -3.5 51.0 -3.5 49.6 -2.45 48.55 L-2.35 48.45 Q-1.7 40.1 -3.4 33.7 L-3.5 32.9 Q-5.45 33.15 -7.0 33.7 L-7.45 33.9 Q-9.7 34.85 -11.0 36.55 -11.5 37.15 -12.2 37.4 L-12.25 37.4 -13.65 37.4 Q-14.4 37.2 -14.9 36.6 -15.45 35.95 -15.5 35.2 -20.45 -33.75 -11.45 -76.5 L-10.55 -77.95 Q-9.9 -78.5 -9.0 -78.5 -8.1 -78.5 -7.4 -77.95 -5.4 -76.6 -4.0 -76.25 0.2 -75.2 6.25 -75.2 L13.15 -74.9 M12.4 -70.45 Q11.85 -71.0 11.0 -71.0 10.15 -71.0 9.55 -70.45 9.0 -69.85 9.0 -69.0 9.0 -68.15 9.55 -67.6 10.15 -67.0 11.0 -67.0 11.85 -67.0 12.4 -67.6 13.0 -68.15 13.0 -69.0 13.0 -69.85 12.4 -70.45" fill="#000000" fill-rule="evenodd" stroke="none"/>
    <path d="M5.0 71.0 L7.0 71.0 Q6.5 73.8 3.0 75.0 -0.5 73.8 -1.0 71.0 L1.0 71.0 5.0 71.0" fill="url(#gradient0)" fill-rule="evenodd" stroke="none"/>
    <path d="M5.0 70.0 L5.0 71.0 1.0 71.0 1.0 70.0 5.0 70.0" fill="url(#gradient1)" fill-rule="evenodd" stroke="none"/>
    <path d="M6.0 52.0 Q5.0 61.7 7.0 69.0 L6.0 69.0 0.0 69.0 -1.0 69.0 Q1.0 61.7 0.0 52.0 L6.0 52.0" fill="url(#gradient2)" fill-rule="evenodd" stroke="none"/>
    <path d="M0.0 33.0 L6.0 33.0 7.0 33.0 Q5.0 40.3 6.0 50.0 L0.0 50.0 Q1.0 40.3 -1.0 33.0 L0.0 33.0" fill="url(#gradient3)" fill-rule="evenodd" stroke="none"/>
    <path d="M6.0 69.0 L6.0 70.0 5.0 70.0 1.0 70.0 0.0 70.0 0.0 69.0 6.0 69.0" fill="url(#gradient4)" fill-rule="evenodd" stroke="none"/>
    <path d="M0.0 32.0 L6.0 32.0 6.0 33.0 0.0 33.0 0.0 32.0" fill="url(#gradient5)" fill-rule="evenodd" stroke="none"/>
    <path d="M6.0 50.0 Q6.4 50.0 6.7 50.3 L7.0 51.0 6.7 51.7 Q6.4 52.0 6.0 52.0 L0.0 52.0 -0.7 51.7 -1.0 51.0 -0.7 50.3 Q-0.4 50.0 0.0 50.0 L6.0 50.0" fill="url(#gradient6)" fill-rule="evenodd" stroke="none"/>
    <path d="M6.0 32.0 L0.0 32.0 -1.0 32.0 -2.0 30.0 8.0 30.0 7.0 32.0 6.0 32.0" fill="url(#gradient7)" fill-rule="evenodd" stroke="none"/>
    <path d="M15.0 -70.0 Q10.65 -48.95 9.3 -22.05 8.25 -0.4 9.0 30.0 L8.0 30.0 0.65 30.0 -2.45 30.2 Q-5.65 30.5 -8.0 31.45 L-8.25 31.5 Q-12.6 -32.85 -4.45 -73.8 -0.3 -72.65 6.25 -72.7 L12.6 -72.45 Q15.15 -71.95 15.0 -70.0" fill="url(#gradient8)" fill-rule="evenodd" stroke="none"/>
    <path d="M9.55 -70.45 Q10.15 -71.0 11.0 -71.0 11.85 -71.0 12.4 -70.45 13.0 -69.85 13.0 -69.0 13.0 -68.15 12.4 -67.6 11.85 -67.0 11.0 -67.0 10.15 -67.0 9.55 -67.6 9.0 -68.15 9.0 -69.0 9.0 -69.85 9.55 -70.45" fill="#000000" fill-rule="evenodd" stroke="none"/>
    <path d="M-4.45 -73.8 Q-12.6 -32.85 -8.25 31.5 -11.25 32.75 -13.0 35.0 -17.95 -33.5 -9.0 -76.0 -7.35 -74.7 -4.65 -73.85 L-4.45 -73.8" fill="url(#gradient9)" fill-rule="evenodd" stroke="none"/>
    <path d="M3.0 10.0 L3.25 15.0 6.0 15.0 6.0 17.0 3.35 17.0 3.5 20.0 6.0 20.0 6.0 22.0 3.6 22.0 3.75 25.0 6.0 25.0 6.0 27.0 3.85 27.0 4.0 30.0 0.0 30.0 0.15 27.0 -2.0 27.0 -2.0 25.0 0.25 25.0 0.4 22.0 -2.0 22.0 -2.0 20.0 0.5 20.0 0.65 17.0 -2.0 17.0 -2.0 15.0 0.75 15.0 1.0 10.0 3.0 10.0" fill="#000000" fill-opacity="0.3019608" fill-rule="evenodd" stroke="none"/>
    <path d="M4.0 10.0 L4.25 15.0 7.0 15.0 7.0 17.0 4.35 17.0 4.5 20.0 7.0 20.0 7.0 22.0 4.6 22.0 4.75 25.0 7.0 25.0 7.0 27.0 4.85 27.0 5.0 30.0 1.0 30.0 1.15 27.0 -1.0 27.0 -1.0 25.0 1.25 25.0 1.4 22.0 -1.0 22.0 -1.0 20.0 1.5 20.0 1.65 17.0 -1.0 17.0 -1.0 15.0 1.75 15.0 2.0 10.0 4.0 10.0" fill="url(#gradient10)" fill-rule="evenodd" stroke="none"/>
    <path d="M9.0 -15.05 L8.9 -10.0 8.85 -9.35 -14.7 -16.2 -14.6 -22.45 9.05 -15.6 9.0 -15.05" fill="url(#gradient11)" fill-rule="evenodd" stroke="none"/>
    <path d="M8.7 0.35 L-14.65 -0.45 -14.7 -6.45 8.8 -5.65 8.7 0.35" fill="url(#gradient12)" fill-rule="evenodd" stroke="none"/>
    <path d="M8.7 12.05 L-14.3 11.2 -14.5 5.15 8.7 5.95 8.7 12.05" fill="url(#gradient13)" fill-rule="evenodd" stroke="none"/>
    <path d="M8.75 -1.1 L-14.25 14.4 -14.5 7.3 Q-2.8 -0.55 8.85 -8.45 L8.75 -1.1" fill="#000000" fill-opacity="0.2" fill-rule="evenodd" stroke="none"/>
    <path d="M9.8 -30.3 L9.45 -24.5 -14.6 -22.05 -14.4 -28.05 9.8 -30.6 9.8 -30.3" fill="url(#gradient14)" fill-rule="evenodd" stroke="none"/>
    <path d="M8.75 -2.1 L-14.25 13.4 -14.5 6.3 Q-2.8 -1.6 8.85 -9.45 L8.75 -2.1" fill="url(#gradient15)" fill-rule="evenodd" stroke="none"/>
    <path d="M7.0 36.0 L-1.0 36.0 -1.0 35.0 7.0 35.0 7.0 36.0 M7.0 33.0 L-1.0 33.0 -1.0 32.0 7.0 32.0 7.0 33.0 M7.0 71.0 L-1.0 71.0 -1.0 69.0 7.0 69.0 7.0 71.0 M7.0 66.0 L-1.0 66.0 -1.0 65.0 7.0 65.0 7.0 66.0" fill="#000000" fill-opacity="0.2" fill-rule="evenodd" stroke="none"/>
  </g>
  <defs>
    <radialGradient cx="0" cy="0" gradientTransform="matrix(0.007, 0.0, 0.0, 0.007, 3.0, 71.1)" gradientUnits="userSpaceOnUse" id="gradient0" r="819.2" spreadMethod="pad">
      <stop offset="0.0" stop-color="#ffffff"/>
      <stop offset="0.22745098039215686" stop-color="#aaaaaa"/>
      <stop offset="0.3137254901960784" stop-color="#8a8a8a"/>
      <stop offset="0.403921568627451" stop-color="#7b6f6f"/>
      <stop offset="0.6313725490196078" stop-color="#313131"/>
      <stop offset="0.9568627450980393" stop-color="#4e4e4e"/>
    </radialGradient>
    <linearGradient gradientTransform="matrix(0.0024, 0.0, 0.0, 6.0E-4, 3.0, 70.5)" gradientUnits="userSpaceOnUse" id="gradient1" spreadMethod="pad" x1="-819.2" x2="819.2">
      <stop offset="0.0" stop-color="#606060"/>
      <stop offset="0.11372549019607843" stop-color="#5b5b5b"/>
      <stop offset="0.23529411764705882" stop-color="#a49393"/>
      <stop offset="0.3254901960784314" stop-color="#c2c2c2"/>
      <stop offset="0.4549019607843137" stop-color="#dbdbdb"/>
      <stop offset="0.5607843137254902" stop-color="#dbdbdb"/>
      <stop offset="0.6823529411764706" stop-color="#c2c2c2"/>
      <stop offset="0.7647058823529411" stop-color="#a49393"/>
      <stop offset="0.8823529411764706" stop-color="#5b5b5b"/>
      <stop offset="1.0" stop-color="#606060"/>
    </linearGradient>
    <linearGradient gradientTransform="matrix(0.0049, 0.0, 0.0, 0.0104, 3.0, 60.5)" gradientUnits="userSpaceOnUse" id="gradient2" spreadMethod="pad" x1="-819.2" x2="819.2">
      <stop offset="0.08235294117647059" stop-color="#31344f"/>
      <stop offset="0.27450980392156865" stop-color="#2d3044"/>
      <stop offset="0.43529411764705883" stop-color="#515875"/>
      <stop offset="0.5529411764705883" stop-color="#515875"/>
      <stop offset="0.7215686274509804" stop-color="#2d3044"/>
      <stop offset="0.9176470588235294" stop-color="#31344f"/>
    </linearGradient>
    <linearGradient gradientTransform="matrix(0.0049, 0.0, 0.0, 0.0104, 3.0, 41.5)" gradientUnits="userSpaceOnUse" id="gradient3" spreadMethod="pad" x1="-819.2" x2="819.2">
      <stop offset="0.08235294117647059" stop-color="#31344f"/>
      <stop offset="0.27450980392156865" stop-color="#2d3044"/>
      <stop offset="0.43529411764705883" stop-color="#515875"/>
      <stop offset="0.5529411764705883" stop-color="#515875"/>
      <stop offset="0.7215686274509804" stop-color="#2d3044"/>
      <stop offset="0.9176470588235294" stop-color="#31344f"/>
    </linearGradient>
    <linearGradient gradientTransform="matrix(0.0037, 0.0, 0.0, 6.0E-4, 3.0, 69.5)" gradientUnits="userSpaceOnUse" id="gradient4" spreadMethod="pad" x1="-819.2" x2="819.2">
      <stop offset="0.08235294117647059" stop-color="#31344f"/>
      <stop offset="0.27450980392156865" stop-color="#2d3044"/>
      <stop offset="0.4588235294117647" stop-color="#515875"/>
      <stop offset="0.5294117647058824" stop-color="#515875"/>
      <stop offset="0.7215686274509804" stop-color="#2d3044"/>
      <stop offset="0.9176470588235294" stop-color="#31344f"/>
    </linearGradient>
    <linearGradient gradientTransform="matrix(0.0037, 0.0, 0.0, 6.0E-4, 3.0, 32.5)" gradientUnits="userSpaceOnUse" id="gradient5" spreadMethod="pad" x1="-819.2" x2="819.2">
      <stop offset="0.08235294117647059" stop-color="#31344f"/>
      <stop offset="0.27450980392156865" stop-color="#2d3044"/>
      <stop offset="0.4588235294117647" stop-color="#515875"/>
      <stop offset="0.5294117647058824" stop-color="#515875"/>
      <stop offset="0.7215686274509804" stop-color="#2d3044"/>
      <stop offset="0.9176470588235294" stop-color="#31344f"/>
    </linearGradient>
    <radialGradient cx="0" cy="0" gradientTransform="matrix(0.005, 0.0, 0.0, 0.0035, 3.0, 51.0)" gradientUnits="userSpaceOnUse" id="gradient6" r="819.2" spreadMethod="pad">
      <stop offset="0.21176470588235294" stop-color="#505773"/>
      <stop offset="0.5647058823529412" stop-color="#2e3146"/>
      <stop offset="0.8901960784313725" stop-color="#2f3249"/>
    </radialGradient>
    <radialGradient cx="0" cy="0" gradientTransform="matrix(0.0096, 0.0, 0.0, 0.0097, 2.95, 30.0)" gradientUnits="userSpaceOnUse" id="gradient7" r="819.2" spreadMethod="pad">
      <stop offset="0.0" stop-color="#4f5672"/>
      <stop offset="0.1803921568627451" stop-color="#4f5672"/>
      <stop offset="0.403921568627451" stop-color="#2e3146"/>
      <stop offset="0.5372549019607843" stop-color="#30334e"/>
      <stop offset="0.615686274509804" stop-color="#2f324a"/>
    </radialGradient>
    <linearGradient gradientTransform="matrix(0.0339, -0.0541, 0.0573, 0.0359, 0.1, -20.5)" gradientUnits="userSpaceOnUse" id="gradient8" spreadMethod="pad" x1="-819.2" x2="819.2">
      <stop offset="0.0" stop-color="#2e2e2e"/>
      <stop offset="0.30980392156862746" stop-color="#383838"/>
      <stop offset="0.592156862745098" stop-color="#555555"/>
      <stop offset="0.7294117647058823" stop-color="#464646"/>
      <stop offset="0.9490196078431372" stop-color="#383838"/>
    </linearGradient>
    <linearGradient gradientTransform="matrix(0.0425, -0.047, 0.0502, 0.0453, -9.6, -20.5)" gradientUnits="userSpaceOnUse" id="gradient9" spreadMethod="pad" x1="-819.2" x2="819.2">
      <stop offset="0.09019607843137255" stop-color="#661a1a"/>
      <stop offset="0.26666666666666666" stop-color="#962121"/>
      <stop offset="0.48627450980392156" stop-color="#b31a1a"/>
      <stop offset="0.7215686274509804" stop-color="#bb2020"/>
      <stop offset="0.9607843137254902" stop-color="#831818"/>
    </linearGradient>
    <radialGradient cx="0" cy="0" gradientTransform="matrix(0.0035, 0.0, 0.0, 0.0377, 3.0, 30.0)" gradientUnits="userSpaceOnUse" id="gradient10" r="819.2" spreadMethod="pad">
      <stop offset="0.08627450980392157" stop-color="#959595"/>
      <stop offset="0.22745098039215686" stop-color="#757575"/>
      <stop offset="0.7098039215686275" stop-color="#4a4a4a"/>
      <stop offset="0.7843137254901961" stop-color="#606060"/>
    </radialGradient>
    <linearGradient gradientTransform="matrix(0.0145, 0.0, 0.0, 0.008, -2.85, -15.9)" gradientUnits="userSpaceOnUse" id="gradient11" spreadMethod="pad" x1="-819.2" x2="819.2">
      <stop offset="0.0" stop-color="#531e1e"/>
      <stop offset="0.596078431372549" stop-color="#6c2828"/>
      <stop offset="1.0" stop-color="#531e1e"/>
    </linearGradient>
    <linearGradient gradientTransform="matrix(0.0143, 0.0, 0.0, 0.0042, -2.95, -3.05)" gradientUnits="userSpaceOnUse" id="gradient12" spreadMethod="pad" x1="-819.2" x2="819.2">
      <stop offset="0.0" stop-color="#531e1e"/>
      <stop offset="0.596078431372549" stop-color="#6b2929"/>
      <stop offset="1.0" stop-color="#531e1e"/>
    </linearGradient>
    <linearGradient gradientTransform="matrix(0.0142, 0.0, 0.0, 0.0042, -2.9, 8.6)" gradientUnits="userSpaceOnUse" id="gradient13" spreadMethod="pad" x1="-819.2" x2="819.2">
      <stop offset="0.0" stop-color="#531e1e"/>
      <stop offset="0.596078431372549" stop-color="#6d2727"/>
      <stop offset="1.0" stop-color="#531e1e"/>
    </linearGradient>
    <linearGradient gradientTransform="matrix(0.0138, 0.0, 0.0, 0.0051, -1.5, -26.4)" gradientUnits="userSpaceOnUse" id="gradient14" spreadMethod="pad" x1="-819.2" x2="819.2">
      <stop offset="0.0" stop-color="#531e1e"/>
      <stop offset="0.596078431372549" stop-color="#6c2828"/>
      <stop offset="1.0" stop-color="#531e1e"/>
    </linearGradient>
    <linearGradient gradientTransform="matrix(0.0143, 0.0, 0.0, 0.0139, -2.85, 1.95)" gradientUnits="userSpaceOnUse" id="gradient15" spreadMethod="pad" x1="-819.2" x2="819.2">
      <stop offset="0.0" stop-color="#531e1e"/>
      <stop offset="0.596078431372549" stop-color="#6f2626"/>
      <stop offset="1.0" stop-color="#531e1e"/>
    </linearGradient>
  </defs>
</svg>
