<?xml version="1.0" encoding="UTF-8" standalone="no"?>
<svg xmlns:xlink="http://www.w3.org/1999/xlink" height="112.5px" width="203.0px" xmlns="http://www.w3.org/2000/svg">
  <g transform="matrix(1.0, 0.0, 0.0, 1.0, 101.5, 56.25)">
    <path d="M34.5 -29.25 L33.5 -38.25 29.5 -56.25 Q40.35 -53.95 48.5 -46.25 L54.5 -48.25 59.5 -44.25 Q66.45 -25.85 81.5 -11.25 78.65 8.6 85.75 19.5 88.1 23.1 93.2 28.05 L101.5 36.75 101.0 56.25 -82.0 56.25 -82.5 47.75 -84.5 44.75 -91.5 42.75 -91.5 36.75 -98.5 35.75 -101.5 27.75 -94.5 9.75 -95.5 3.75 -79.5 -6.25 -68.5 2.75 -61.5 13.75 -58.5 12.75 -54.5 15.75 -54.5 25.75 -44.5 28.75 -30.5 25.75 -20.5 31.75 -2.5 27.75 -2.5 23.75 3.5 17.75 13.5 17.75 15.5 13.75 9.5 3.75 19.5 -8.25 25.5 -8.25 26.5 -18.25 34.5 -29.25" fill="#ffffff" fill-opacity="0.0" fill-rule="evenodd" stroke="none"/>
  </g>
</svg>
