<?xml version="1.0" encoding="UTF-8" standalone="no"?>
<svg xmlns:xlink="http://www.w3.org/1999/xlink" height="52.0px" width="152.0px" xmlns="http://www.w3.org/2000/svg">
  <g transform="matrix(1.0, 0.0, 0.0, 1.0, 3.0, 15.0)">
    <path d="M49.0 -3.0 L146.0 -3.0 Q149.0 -3.0 149.0 0.0 L149.0 34.0 Q149.0 37.0 146.0 37.0 L0.0 37.0 Q-3.0 37.0 -3.0 34.0 L-3.0 -12.0 Q-3.0 -15.0 0.0 -15.0 L46.0 -15.0 Q49.0 -15.0 49.0 -12.0 L49.0 -3.0 M145.0 2.0 Q145.0 1.0 144.0 1.0 L2.0 1.0 Q1.0 1.0 1.0 2.0 L1.0 32.0 Q1.0 33.0 2.0 33.0 L144.0 33.0 Q145.0 33.0 145.0 32.0 L145.0 2.0" fill="#000000" fill-rule="evenodd" stroke="none"/>
    <path d="M46.0 -14.0 Q48.0 -14.0 48.0 -12.0 L48.0 -2.0 146.0 -2.0 Q148.0 -2.0 148.0 0.0 L148.0 34.0 Q148.0 36.0 146.0 36.0 L0.0 36.0 Q-2.0 36.0 -2.0 34.0 L-2.0 -12.0 Q-2.0 -14.0 0.0 -14.0 L46.0 -14.0 M146.0 2.0 Q146.0 0.0 144.0 0.0 L2.0 0.0 Q0.0 0.0 0.0 2.0 L0.0 32.0 Q0.0 34.0 2.0 34.0 L144.0 34.0 Q146.0 34.0 146.0 32.0 L146.0 2.0" fill="#00ff00" fill-rule="evenodd" stroke="none"/>
  </g>
</svg>
