<?xml version="1.0" encoding="UTF-8" standalone="no"?>
<svg xmlns:xlink="http://www.w3.org/1999/xlink" height="14.0px" width="5.0px" xmlns="http://www.w3.org/2000/svg">
  <g transform="matrix(1.0, 0.0, 0.0, 1.0, -4.0, 0.0)">
    <path d="M9.0 1.5 L9.0 12.5 8.55 13.55 Q8.1 14.0 7.5 14.0 L5.5 14.0 Q4.9 14.0 4.45 13.55 4.0 13.1 4.0 12.5 L4.0 1.5 Q4.0 0.9 4.45 0.45 4.9 0.0 5.5 0.0 L7.5 0.0 Q8.1 0.0 8.55 0.45 9.0 0.9 9.0 1.5" fill="#333333" fill-rule="evenodd" stroke="none"/>
    <path d="M7.0 2.0 L6.0 2.0 6.0 12.0 7.0 12.0 7.0 2.0 M7.5 1.0 Q7.7 1.0 7.85 1.15 L8.0 1.5 8.0 12.5 7.85 12.85 7.5 13.0 5.5 13.0 5.15 12.85 5.0 12.5 5.0 1.5 5.15 1.15 5.5 1.0 7.5 1.0" fill="#ffffff" fill-rule="evenodd" stroke="none"/>
  </g>
</svg>
