<?xml version="1.0" encoding="UTF-8" standalone="no"?>
<svg xmlns:xlink="http://www.w3.org/1999/xlink" height="14.0px" width="4.0px" xmlns="http://www.w3.org/2000/svg">
  <g transform="matrix(1.0, 0.0, 0.0, 1.0, -1.0, 0.0)">
    <path d="M1.3 2.7 Q1.0 2.4 1.0 2.0 L1.0 1.0 Q1.0 0.6 1.3 0.3 1.6 0.0 2.0 0.0 L3.5 0.0 Q4.1 0.0 4.55 0.45 5.0 0.9 5.0 1.5 L5.0 13.0 4.7 13.7 4.0 14.0 3.0 14.0 Q2.6 14.0 2.3 13.7 2.0 13.4 2.0 13.0 L2.0 3.0 Q1.6 3.0 1.3 2.7" fill="#333333" fill-rule="evenodd" stroke="none"/>
    <path d="M3.5 1.0 Q3.7 1.0 3.85 1.15 L4.0 1.5 4.0 13.0 3.0 13.0 3.0 2.0 2.0 2.0 2.0 1.0 3.5 1.0" fill="#ffffff" fill-rule="evenodd" stroke="none"/>
  </g>
</svg>
