<?xml version="1.0" encoding="UTF-8" standalone="no"?>
<svg xmlns:xlink="http://www.w3.org/1999/xlink" height="14.0px" width="5.0px" xmlns="http://www.w3.org/2000/svg">
  <g transform="matrix(1.0, 0.0, 0.0, 1.0, -1.0, 0.0)">
    <path d="M6.0 1.5 L6.0 12.5 5.55 13.55 4.5 14.0 2.0 14.0 Q1.6 14.0 1.3 13.7 1.0 13.4 1.0 13.0 L1.0 12.0 Q1.0 11.6 1.3 11.3 1.6 11.0 2.0 11.0 L3.0 11.0 3.0 10.0 2.0 10.0 Q1.6 10.0 1.3 9.7 1.0 9.4 1.0 9.0 L1.0 8.0 Q1.0 7.6 1.3 7.3 1.6 7.0 2.0 7.0 L3.0 7.0 3.0 3.0 2.0 3.0 Q1.6 3.0 1.3 2.7 1.0 2.4 1.0 2.0 L1.0 1.0 Q1.0 0.6 1.3 0.3 1.6 0.0 2.0 0.0 L4.5 0.0 Q5.1 0.0 5.55 0.45 6.0 0.9 6.0 1.5" fill="#333333" fill-rule="evenodd" stroke="none"/>
    <path d="M4.85 1.15 L5.0 1.5 5.0 12.5 4.85 12.85 4.5 13.0 2.0 13.0 2.0 12.0 4.0 12.0 4.0 9.0 2.0 9.0 2.0 8.0 4.0 8.0 4.0 2.0 2.0 2.0 2.0 1.0 4.5 1.0 4.85 1.15" fill="#ffffff" fill-rule="evenodd" stroke="none"/>
  </g>
</svg>
