<?xml version="1.0" encoding="UTF-8" standalone="no"?>
<svg xmlns:xlink="http://www.w3.org/1999/xlink" height="14.0px" width="5.0px" xmlns="http://www.w3.org/2000/svg">
  <g transform="matrix(1.0, 0.0, 0.0, 1.0, -1.0, 0.0)">
    <path d="M6.0 1.0 L6.0 13.0 5.7 13.7 5.0 14.0 4.0 14.0 3.3 13.7 Q3.0 13.4 3.0 13.0 L3.0 10.0 2.5 10.0 Q1.9 10.0 1.45 9.55 1.0 9.1 1.0 8.5 L1.0 1.0 Q1.0 0.6 1.3 0.3 1.6 0.0 2.0 0.0 L5.0 0.0 Q5.4 0.0 5.7 0.3 L6.0 1.0" fill="#333333" fill-rule="evenodd" stroke="none"/>
    <path d="M2.0 1.0 L3.0 1.0 3.0 8.0 4.0 8.0 4.0 1.0 5.0 1.0 5.0 13.0 4.0 13.0 4.0 9.0 2.5 9.0 2.15 8.85 2.0 8.5 2.0 1.0" fill="#ffffff" fill-rule="evenodd" stroke="none"/>
  </g>
</svg>
