<?xml version="1.0" encoding="UTF-8" standalone="no"?>
<svg xmlns:xlink="http://www.w3.org/1999/xlink" height="14.0px" width="5.0px" xmlns="http://www.w3.org/2000/svg">
  <g transform="matrix(1.0, 0.0, 0.0, 1.0, -1.0, 0.0)">
    <path d="M5.7 2.7 L5.0 3.0 4.0 3.0 4.0 7.0 4.5 7.0 Q5.1 7.0 5.55 7.45 6.0 7.9 6.0 8.5 L6.0 12.5 5.55 13.55 4.5 14.0 2.5 14.0 Q1.9 14.0 1.45 13.55 1.0 13.1 1.0 12.5 L1.0 1.5 Q1.0 0.9 1.45 0.45 1.9 0.0 2.5 0.0 L5.0 0.0 Q5.4 0.0 5.7 0.3 L6.0 1.0 6.0 2.0 5.7 2.7" fill="#333333" fill-rule="evenodd" stroke="none"/>
    <path d="M4.0 12.0 L4.0 9.0 3.0 9.0 3.0 12.0 4.0 12.0 M2.5 1.0 L5.0 1.0 5.0 2.0 3.0 2.0 3.0 8.0 4.5 8.0 4.85 8.15 5.0 8.5 5.0 12.5 4.85 12.85 4.5 13.0 2.5 13.0 2.15 12.85 2.0 12.5 2.0 1.5 2.15 1.15 2.5 1.0" fill="#ffffff" fill-rule="evenodd" stroke="none"/>
  </g>
</svg>
