<?xml version="1.0" encoding="UTF-8" standalone="no"?>
<svg xmlns:xlink="http://www.w3.org/1999/xlink" height="14.0px" width="8.0px" xmlns="http://www.w3.org/2000/svg">
  <g transform="matrix(1.0, 0.0, 0.0, 1.0, -21.0, -4.0)">
    <path d="M28.55 4.45 Q29.0 4.9 29.0 5.5 L29.0 16.5 Q29.0 17.1 28.55 17.55 28.1 18.0 27.5 18.0 L25.5 18.0 24.7 17.75 24.0 18.0 23.0 18.0 Q22.6 18.0 22.3 17.7 22.0 17.4 22.0 17.0 L22.0 7.0 Q21.6 7.0 21.3 6.7 21.0 6.4 21.0 6.0 L21.0 5.0 Q21.0 4.6 21.3 4.3 21.6 4.0 22.0 4.0 L23.5 4.0 Q24.05 4.0 24.5 4.4 24.95 4.0 25.5 4.0 L27.5 4.0 Q28.1 4.0 28.55 4.45" fill="#333333" fill-rule="evenodd" stroke="none"/>
    <path d="M23.85 5.15 L24.0 5.5 24.0 17.0 23.0 17.0 23.0 6.0 22.0 6.0 22.0 5.0 23.5 5.0 23.85 5.15 M27.0 6.0 L26.0 6.0 26.0 16.0 27.0 16.0 27.0 6.0 M25.5 5.0 L27.5 5.0 27.85 5.15 28.0 5.5 28.0 16.5 27.85 16.85 27.5 17.0 25.5 17.0 Q25.3 17.0 25.15 16.85 L25.0 16.5 25.0 5.5 25.15 5.15 Q25.3 5.0 25.5 5.0" fill="#ffffff" fill-rule="evenodd" stroke="none"/>
  </g>
</svg>
