<?xml version="1.0" encoding="UTF-8" standalone="no"?>
<svg xmlns:xlink="http://www.w3.org/1999/xlink" height="21.4px" width="18.4px" xmlns="http://www.w3.org/2000/svg">
  <g transform="matrix(1.0, 0.0, 0.0, 1.0, 9.2, 10.7)">
    <path d="M3.8 -6.2 Q3.1 -6.1 2.55 -5.55 1.9 -4.95 1.9 -4.05 1.9 -3.0 2.4 -2.5 2.85 -2.05 3.6 -1.85 4.55 -1.85 5.1 -2.5 5.6 -2.95 5.7 -3.75 7.05 -2.9 8.7 0.0 7.0 3.0 5.75 3.8 5.6 3.05 5.1 2.55 4.55 1.9 3.6 1.9 3.05 1.9 2.4 2.55 1.9 3.05 1.9 4.1 1.9 4.95 2.55 5.6 3.1 6.1 3.8 6.25 1.55 9.25 0.0 10.2 -1.55 9.25 -3.8 6.25 -3.1 6.1 -2.55 5.6 -1.9 4.95 -1.9 4.1 -1.9 3.05 -2.4 2.55 -3.05 1.9 -3.6 1.9 -4.55 1.9 -5.1 2.55 -5.6 3.05 -5.75 3.8 -7.0 3.0 -8.7 0.0 -7.05 -2.9 -5.7 -3.75 -5.6 -2.95 -5.1 -2.5 -4.55 -1.85 -3.6 -1.85 -2.85 -2.05 -2.4 -2.5 -1.9 -3.0 -1.9 -4.05 -1.9 -4.95 -2.55 -5.55 -3.1 -6.1 -3.8 -6.2 -1.9 -9.0 0.0 -10.2 1.9 -9.0 3.8 -6.2 Z" fill="none" stroke="#ffffff" stroke-linecap="round" stroke-linejoin="round" stroke-width="1.0"/>
  </g>
</svg>
