<?xml version="1.0" encoding="UTF-8" standalone="no"?>
<svg xmlns:xlink="http://www.w3.org/1999/xlink" height="15.3px" width="15.3px" xmlns="http://www.w3.org/2000/svg">
  <g transform="matrix(1.0, 0.0, 0.0, 1.0, 7.65, 7.65)">
    <path d="M0.0 -7.4 Q0.05 -4.35 2.2 -2.15 4.35 -0.05 7.4 0.0 4.35 0.05 2.2 2.2 0.05 4.35 0.0 7.4 -0.05 4.35 -2.15 2.2 -4.35 0.05 -7.4 0.0 -4.35 -0.05 -2.15 -2.15 -0.05 -4.35 0.0 -7.4" fill="url(#gradient0)" fill-rule="evenodd" stroke="none"/>
    <path d="M0.0 -7.4 Q-0.05 -4.35 -2.15 -2.15 -4.35 -0.05 -7.4 0.0 -4.35 0.05 -2.15 2.2 -0.05 4.35 0.0 7.4 0.05 4.35 2.2 2.2 4.35 0.05 7.4 0.0 4.35 -0.05 2.2 -2.15 0.05 -4.35 0.0 -7.4 Z" fill="none" stroke="#ffcc00" stroke-linecap="round" stroke-linejoin="round" stroke-width="0.5"/>
  </g>
  <defs>
    <radialGradient cx="0" cy="0" gradientTransform="matrix(0.0056, 0.0, 0.0, 0.0056, 0.0, 0.0)" gradientUnits="userSpaceOnUse" id="gradient0" r="819.2" spreadMethod="pad">
      <stop offset="0.4588235294117647" stop-color="#ffffff"/>
      <stop offset="1.0" stop-color="#f3d752"/>
    </radialGradient>
  </defs>
</svg>
