<?xml version="1.0" encoding="UTF-8" standalone="no"?>
<svg xmlns:xlink="http://www.w3.org/1999/xlink" height="5.8px" width="5.8px" xmlns="http://www.w3.org/2000/svg">
  <g transform="matrix(1.0, 0.0, 0.0, 1.0, 2.9, 2.9)">
    <path d="M0.0 -2.65 L0.15 -1.55 0.55 -0.55 1.6 -0.15 2.65 0.0 1.6 0.15 0.55 0.55 0.15 1.6 0.0 2.65 -0.15 1.6 -0.55 0.55 -1.55 0.15 -2.65 0.0 -1.55 -0.15 -0.55 -0.55 -0.15 -1.55 0.0 -2.65" fill="url(#gradient0)" fill-rule="evenodd" stroke="none"/>
    <path d="M0.0 -2.65 L-0.15 -1.55 -0.55 -0.55 -1.55 -0.15 -2.65 0.0 -1.55 0.15 -0.55 0.55 -0.15 1.6 0.0 2.65 0.15 1.6 0.55 0.55 1.6 0.15 2.65 0.0 1.6 -0.15 0.55 -0.55 0.15 -1.55 0.0 -2.65 Z" fill="none" stroke="#ff6600" stroke-linecap="round" stroke-linejoin="round" stroke-opacity="0.3019608" stroke-width="0.5"/>
  </g>
  <defs>
    <radialGradient cx="0" cy="0" gradientTransform="matrix(0.001, 0.0, 0.0, 0.001, 0.0, 0.0)" gradientUnits="userSpaceOnUse" id="gradient0" r="819.2" spreadMethod="pad">
      <stop offset="0.40784313725490196" stop-color="#f8f807" stop-opacity="0.3019608"/>
      <stop offset="0.9058823529411765" stop-color="#f59e49" stop-opacity="0.3019608"/>
    </radialGradient>
  </defs>
</svg>
