<?xml version="1.0" encoding="UTF-8" standalone="no"?>
<svg xmlns:xlink="http://www.w3.org/1999/xlink" height="75.0px" width="107.0px" xmlns="http://www.w3.org/2000/svg">
  <g transform="matrix(1.0, 0.0, 0.0, 1.0, 53.5, 37.5)">
    <path d="M26.25 -36.75 Q26.95 -37.5 28.0 -37.5 29.05 -37.5 29.8 -36.75 L33.5 -33.05 33.55 -33.4 Q33.7 -34.3 34.4 -34.9 35.1 -35.5 36.0 -35.5 L48.0 -35.5 Q49.05 -35.5 49.8 -34.75 50.5 -34.05 50.5 -33.0 L50.5 -21.0 50.25 -19.85 49.5 -19.0 48.4 -18.15 52.8 -13.75 Q53.5 -13.05 53.5 -12.0 L53.5 35.0 Q53.5 36.05 52.8 36.8 52.05 37.5 51.0 37.5 L-51.0 37.5 Q-52.05 37.5 -52.75 36.8 -53.5 36.05 -53.5 35.0 L-53.5 -12.0 Q-53.5 -13.05 -52.75 -13.75 L-48.35 -18.15 -49.5 -19.0 -50.2 -19.85 -50.5 -21.0 -50.5 -33.0 Q-50.5 -34.05 -49.75 -34.75 -49.05 -35.5 -48.0 -35.5 L-36.0 -35.5 Q-35.1 -35.5 -34.35 -34.9 -33.7 -34.3 -33.5 -33.4 L-33.45 -33.05 -29.75 -36.75 Q-29.05 -37.5 -28.0 -37.5 -26.95 -37.5 -26.2 -36.75 L-25.2 -35.75 -24.95 -35.5 25.0 -35.5 25.25 -35.75 26.25 -36.75 M20.55 -19.5 L-20.55 -19.5 -19.1 -14.5 19.15 -14.5 20.55 -19.5" fill="#000000" fill-rule="evenodd" stroke="none"/>
    <path d="M-51.0 -12.0 L51.0 -12.0 51.0 35.0 -51.0 35.0 -51.0 -12.0" fill="url(#gradient0)" fill-rule="evenodd" stroke="none"/>
    <path d="M51.0 33.0 L-51.0 33.0 -51.0 27.0 51.0 27.0 51.0 33.0" fill="url(#gradient1)" fill-rule="evenodd" stroke="none"/>
    <path d="M-48.0 -21.0 L-48.0 -33.0 -36.0 -33.0 -35.0 -27.0 -44.0 -17.0 -48.0 -21.0" fill="url(#gradient2)" fill-rule="evenodd" stroke="none"/>
    <path d="M35.0 -27.0 L36.0 -33.0 48.0 -33.0 48.0 -21.0 44.0 -17.0 35.0 -27.0" fill="url(#gradient3)" fill-rule="evenodd" stroke="none"/>
    <path d="M21.0 -22.0 L-21.0 -22.0 -23.0 -19.0 -21.0 -12.0 -50.0 -12.0 -29.0 -33.0 0.0 -33.0 29.0 -33.0 50.0 -12.0 21.0 -12.0 23.0 -19.0 21.0 -22.0" fill="url(#gradient4)" fill-rule="evenodd" stroke="none"/>
    <path d="M44.0 -17.0 L49.0 -12.0 47.0 -12.0 43.0 -16.0 44.0 -17.0 M-44.0 -17.0 L-43.0 -16.0 -47.0 -12.0 -49.0 -12.0 -44.0 -17.0" fill="#000000" fill-rule="evenodd" stroke="none"/>
    <path d="M16.0 -6.0 L-16.0 -6.0 -16.0 -12.0 16.0 -12.0 16.0 -6.0" fill="url(#gradient5)" fill-rule="evenodd" stroke="none"/>
    <path d="M-51.0 -12.0 L-28.0 -35.0 -27.0 -34.0 -49.0 -12.0 -51.0 -12.0" fill="url(#gradient6)" fill-rule="evenodd" stroke="none"/>
    <path d="M27.0 -34.0 L28.0 -35.0 51.0 -12.0 49.0 -12.0 27.0 -34.0" fill="url(#gradient7)" fill-rule="evenodd" stroke="none"/>
    <path d="M45.0 17.0 L45.0 20.0 48.0 20.0 48.0 21.0 45.0 21.0 45.0 24.0 44.0 24.0 44.0 21.0 41.0 21.0 41.0 20.0 44.0 20.0 44.0 17.0 45.0 17.0 M45.0 20.0 L44.0 20.0 44.0 21.0 45.0 21.0 45.0 20.0 M-44.0 17.0 L-44.0 20.0 -41.0 20.0 -41.0 21.0 -44.0 21.0 -44.0 24.0 -45.0 24.0 -45.0 21.0 -48.0 21.0 -48.0 20.0 -45.0 20.0 -45.0 17.0 -44.0 17.0 M-45.0 20.0 L-45.0 21.0 -44.0 21.0 -44.0 20.0 -45.0 20.0" fill="#7c1010" fill-rule="evenodd" stroke="none"/>
    <path d="M45.0 -9.0 L45.0 -6.0 48.0 -6.0 48.0 -5.0 45.0 -5.0 45.0 -2.0 44.0 -2.0 44.0 -5.0 41.0 -5.0 41.0 -6.0 44.0 -6.0 44.0 -9.0 45.0 -9.0 M44.0 -6.0 L44.0 -5.0 45.0 -5.0 45.0 -6.0 44.0 -6.0 M-44.0 -9.0 L-44.0 -6.0 -41.0 -6.0 -41.0 -5.0 -44.0 -5.0 -44.0 -2.0 -45.0 -2.0 -45.0 -5.0 -48.0 -5.0 -48.0 -6.0 -45.0 -6.0 -45.0 -9.0 -44.0 -9.0 M-44.0 -6.0 L-45.0 -6.0 -45.0 -5.0 -44.0 -5.0 -44.0 -6.0" fill="#690e0e" fill-rule="evenodd" stroke="none"/>
    <path d="M-16.0 -2.5 Q-10.0 -2.5 -5.75 1.75 -1.5 6.0 -1.5 12.0 -1.5 18.0 -5.75 22.25 -10.0 26.5 -16.0 26.5 -22.0 26.5 -26.25 22.25 -28.0 20.5 -29.0 18.5 L-30.0 18.5 Q-36.0 18.5 -40.25 14.25 -44.5 10.0 -44.5 4.0 -44.5 -2.0 -40.25 -6.25 -36.0 -10.5 -30.0 -10.5 -24.0 -10.5 -19.75 -6.25 -18.0 -4.5 -16.95 -2.45 L-16.0 -2.5 M-13.55 9.5 Q-14.55 8.5 -16.0 8.5 L-16.15 8.5 Q-17.05 11.3 -19.1 13.6 L-18.5 14.45 Q-17.45 15.5 -16.0 15.5 -14.6 15.5 -13.55 14.45 -12.5 13.4 -12.5 12.0 -12.5 10.55 -13.55 9.5 M-30.0 0.5 Q-31.45 0.5 -32.45 1.5 L-32.5 1.55 Q-33.5 2.55 -33.5 4.0 -33.5 5.45 -32.5 6.45 -31.45 7.5 -30.0 7.5 L-29.8 7.5 Q-28.95 4.7 -26.85 2.4 L-27.55 1.5 Q-28.55 0.5 -30.0 0.5" fill="#000000" fill-opacity="0.15294118" fill-rule="evenodd" stroke="none"/>
    <path d="M-30.0 -9.0 Q-24.6 -9.0 -20.8 -5.2 -17.0 -1.4 -17.0 4.0 -17.0 9.4 -20.8 13.2 -24.6 17.0 -30.0 17.0 -35.4 17.0 -39.2 13.2 -43.0 9.4 -43.0 4.0 -43.0 -1.4 -39.2 -5.2 -35.4 -9.0 -30.0 -9.0 M-30.0 9.0 Q-27.95 9.0 -26.5 7.5 -25.0 6.05 -25.0 4.0 -25.0 1.95 -26.5 0.45 -27.95 -1.0 -30.0 -1.0 -32.05 -1.0 -33.55 0.45 -35.0 1.95 -35.0 4.0 -35.0 6.05 -33.55 7.5 -32.05 9.0 -30.0 9.0" fill="url(#gradient8)" fill-rule="evenodd" stroke="none"/>
    <path d="M-6.8 21.2 Q-10.6 25.0 -16.0 25.0 -21.4 25.0 -25.2 21.2 -29.0 17.4 -29.0 12.0 -29.0 6.6 -25.2 2.8 -21.4 -1.0 -16.0 -1.0 -10.6 -1.0 -6.8 2.8 -3.0 6.6 -3.0 12.0 -3.0 17.4 -6.8 21.2 M-11.0 12.0 Q-11.0 9.95 -12.5 8.45 -13.95 7.0 -16.0 7.0 -18.05 7.0 -19.55 8.45 -21.0 9.95 -21.0 12.0 -21.0 14.05 -19.55 15.5 -18.05 17.0 -16.0 17.0 -13.95 17.0 -12.5 15.5 -11.0 14.05 -11.0 12.0" fill="url(#gradient9)" fill-rule="evenodd" stroke="none"/>
    <path d="M23.0 24.0 L23.0 25.0 22.0 25.0 21.0 24.0 20.0 24.0 20.0 25.0 17.0 25.0 17.0 22.0 19.0 22.0 19.0 24.0 20.0 24.0 20.0 23.0 22.0 23.0 22.0 24.0 23.0 24.0 M25.0 22.0 L26.0 22.0 26.0 24.0 27.0 24.0 27.0 22.0 28.0 22.0 29.0 22.0 29.0 24.0 28.0 24.0 28.0 25.0 25.0 25.0 24.0 24.0 23.0 23.0 25.0 23.0 25.0 22.0 M34.0 23.0 L35.0 23.0 35.0 24.0 34.0 24.0 34.0 23.0 M34.0 24.0 L34.0 25.0 33.0 25.0 33.0 24.0 32.0 24.0 32.0 25.0 30.0 25.0 30.0 23.0 33.0 23.0 33.0 24.0 34.0 24.0 M35.0 24.0 L36.0 24.0 36.0 23.0 37.0 23.0 37.0 22.0 39.0 22.0 39.0 24.0 38.0 24.0 38.0 25.0 37.0 25.0 37.0 24.0 36.0 24.0 36.0 25.0 35.0 25.0 35.0 24.0" fill="#7c1010" fill-rule="evenodd" stroke="none"/>
    <path d="M28.0 -12.0 L28.0 -33.0 49.0 -12.0 28.0 -12.0" fill="url(#gradient10)" fill-rule="evenodd" stroke="none"/>
    <path d="M-28.0 -12.0 L-49.0 -12.0 -28.0 -33.0 -28.0 -12.0" fill="url(#gradient11)" fill-rule="evenodd" stroke="none"/>
    <path d="M-14.4 -0.9 L-14.75 7.15 -16.0 7.0 Q-18.05 7.0 -19.55 8.45 -21.0 9.95 -21.0 12.0 L-20.8 13.4 -28.9 13.65 -29.0 12.0 Q-29.0 6.6 -25.2 2.8 -21.4 -1.0 -16.0 -1.0 L-14.4 -0.9" fill="url(#gradient12)" fill-rule="evenodd" stroke="none"/>
    <path d="M-6.55 11.9 Q-4.75 13.35 -5.2 16.45 -5.65 19.55 -8.0 22.5 -10.4 25.45 -13.35 26.55 -16.3 27.65 -18.1 26.2 -19.85 24.75 -19.4 21.65 L-18.9 19.7 Q-18.3 18.2 -17.25 16.85 L-16.0 17.0 Q-13.95 17.0 -12.5 15.5 -11.1 14.15 -11.0 12.3 -9.1 11.65 -6.9 11.65 L-6.55 11.9" fill="url(#gradient13)" fill-rule="evenodd" stroke="none"/>
  </g>
  <defs>
    <linearGradient gradientTransform="matrix(0.0, 0.0287, -0.0287, 0.0, 0.0, 11.5)" gradientUnits="userSpaceOnUse" id="gradient0" spreadMethod="pad" x1="-819.2" x2="819.2">
      <stop offset="0.0" stop-color="#dfc99f"/>
      <stop offset="0.20784313725490197" stop-color="#d2b581"/>
      <stop offset="0.5686274509803921" stop-color="#d2b581"/>
      <stop offset="1.0" stop-color="#c18c59"/>
    </linearGradient>
    <linearGradient gradientTransform="matrix(0.0, 0.0049, -0.0037, 0.0, 0.0, 30.0)" gradientUnits="userSpaceOnUse" id="gradient1" spreadMethod="pad" x1="-819.2" x2="819.2">
      <stop offset="0.0" stop-color="#8e1313"/>
      <stop offset="0.8588235294117647" stop-color="#7c1010"/>
    </linearGradient>
    <linearGradient gradientTransform="matrix(0.0, -0.01, 0.0098, 0.0, -41.5, -25.0)" gradientUnits="userSpaceOnUse" id="gradient2" spreadMethod="pad" x1="-819.2" x2="819.2">
      <stop offset="0.0" stop-color="#cca673"/>
      <stop offset="0.9568627450980393" stop-color="#c9a36f"/>
      <stop offset="0.9686274509803922" stop-color="#d8b992"/>
    </linearGradient>
    <linearGradient gradientTransform="matrix(0.0, -0.01, 0.0098, 0.0, 41.5, -25.0)" gradientUnits="userSpaceOnUse" id="gradient3" spreadMethod="pad" x1="-819.2" x2="819.2">
      <stop offset="0.0" stop-color="#cca673"/>
      <stop offset="0.9568627450980393" stop-color="#c9a36f"/>
      <stop offset="0.9686274509803922" stop-color="#d8b992"/>
    </linearGradient>
    <linearGradient gradientTransform="matrix(0.0, -0.0244, 0.0128, 0.0, 0.0, -14.0)" gradientUnits="userSpaceOnUse" id="gradient4" spreadMethod="pad" x1="-819.2" x2="819.2">
      <stop offset="0.0" stop-color="#573a20"/>
      <stop offset="0.6078431372549019" stop-color="#c69c64"/>
      <stop offset="0.9568627450980393" stop-color="#cba674"/>
      <stop offset="0.9686274509803922" stop-color="#d8b992"/>
    </linearGradient>
    <linearGradient gradientTransform="matrix(0.0, -0.0037, 0.0037, 0.0, 0.0, -9.0)" gradientUnits="userSpaceOnUse" id="gradient5" spreadMethod="pad" x1="-819.2" x2="819.2">
      <stop offset="0.0" stop-color="#ededed"/>
      <stop offset="1.0" stop-color="#d0d0d0"/>
    </linearGradient>
    <linearGradient gradientTransform="matrix(-0.0146, 1.0E-4, -1.0E-4, -0.014, -39.0, -23.5)" gradientUnits="userSpaceOnUse" id="gradient6" spreadMethod="pad" x1="-819.2" x2="819.2">
      <stop offset="0.0" stop-color="#e3d1b0"/>
      <stop offset="0.4666666666666667" stop-color="#d2b682"/>
      <stop offset="1.0" stop-color="#cca673"/>
    </linearGradient>
    <linearGradient gradientTransform="matrix(0.0146, 0.0, 0.0, 0.014, 39.0, -23.5)" gradientUnits="userSpaceOnUse" id="gradient7" spreadMethod="pad" x1="-819.2" x2="819.2">
      <stop offset="0.0" stop-color="#e3d1b0"/>
      <stop offset="0.4666666666666667" stop-color="#d2b682"/>
      <stop offset="1.0" stop-color="#cca673"/>
    </linearGradient>
    <radialGradient cx="0" cy="0" gradientTransform="matrix(0.0159, 0.0, 0.0, 0.0159, -30.0, 4.0)" gradientUnits="userSpaceOnUse" id="gradient8" r="819.2" spreadMethod="pad">
      <stop offset="0.1411764705882353" stop-color="#dd9768"/>
      <stop offset="0.48627450980392156" stop-color="#ae6926"/>
      <stop offset="0.8745098039215686" stop-color="#d28333"/>
      <stop offset="0.9450980392156862" stop-color="#dd9f62"/>
      <stop offset="0.9686274509803922" stop-color="#ecdfa8"/>
    </radialGradient>
    <radialGradient cx="0" cy="0" gradientTransform="matrix(0.0161, 0.0, 0.0, 0.0161, -16.0, 12.0)" gradientUnits="userSpaceOnUse" id="gradient9" r="819.2" spreadMethod="pad">
      <stop offset="0.1411764705882353" stop-color="#dfa56c"/>
      <stop offset="0.4666666666666667" stop-color="#653221"/>
      <stop offset="0.8313725490196079" stop-color="#592d1e"/>
      <stop offset="0.9137254901960784" stop-color="#7a3c27"/>
      <stop offset="1.0" stop-color="#d99857"/>
    </radialGradient>
    <linearGradient gradientTransform="matrix(-0.0128, -1.0E-4, -1.0E-4, 0.0128, 38.5, -22.5)" gradientUnits="userSpaceOnUse" id="gradient10" spreadMethod="pad" x1="-819.2" x2="819.2">
      <stop offset="0.2784313725490196" stop-color="#000000" stop-opacity="0.2"/>
      <stop offset="1.0" stop-color="#c9a370" stop-opacity="0.0"/>
    </linearGradient>
    <linearGradient gradientTransform="matrix(0.0128, -1.0E-4, 1.0E-4, 0.0128, -38.5, -22.5)" gradientUnits="userSpaceOnUse" id="gradient11" spreadMethod="pad" x1="-819.2" x2="819.2">
      <stop offset="0.2784313725490196" stop-color="#000000" stop-opacity="0.2"/>
      <stop offset="1.0" stop-color="#caa470" stop-opacity="0.0"/>
    </linearGradient>
    <radialGradient cx="0" cy="0" gradientTransform="matrix(0.004, 0.0043, -0.0088, 0.0083, -23.2, 3.8)" gradientUnits="userSpaceOnUse" id="gradient12" r="819.2" spreadMethod="pad">
      <stop offset="0.07058823529411765" stop-color="#ffffff"/>
      <stop offset="0.3058823529411765" stop-color="#d69a7e" stop-opacity="0.7137255"/>
      <stop offset="0.807843137254902" stop-color="#733a28" stop-opacity="0.0"/>
    </radialGradient>
    <radialGradient cx="0" cy="0" fx="-1603.2" fy="0" gradientTransform="matrix(0.0023, 0.0043, -0.0066, 0.0035, -13.8, 16.7)" gradientUnits="userSpaceOnUse" id="gradient13" r="819.2" spreadMethod="pad">
      <stop offset="0.023529411764705882" stop-color="#ffffff" stop-opacity="0.4"/>
      <stop offset="0.7607843137254902" stop-color="#673221" stop-opacity="0.0"/>
    </radialGradient>
  </defs>
</svg>
