<?xml version="1.0" encoding="UTF-8" standalone="no"?>
<svg xmlns:xlink="http://www.w3.org/1999/xlink" height="121.2px" width="68.65px" xmlns="http://www.w3.org/2000/svg">
  <g transform="matrix(1.0, 0.0, 0.0, 1.0, 40.0, 64.2)">
    <path d="M23.65 -51.85 L24.55 -47.45 24.55 -47.55 Q26.0 -40.1 26.65 -34.45 27.85 -23.5 27.5 -11.4 L27.5 -11.35 27.15 -5.15 Q28.65 4.4 28.65 10.2 28.65 16.3 27.0 26.25 26.95 29.2 25.0 30.35 L25.0 33.7 Q27.0 34.85 27.0 38.0 L27.0 48.0 Q27.0 57.0 18.0 57.0 L-9.0 57.0 Q-15.0 57.0 -17.0 53.0 L-17.65 53.0 Q-18.85 55.0 -22.0 55.0 L-30.0 55.0 Q-33.15 55.0 -34.3 53.0 L-35.0 53.0 Q-40.0 53.0 -40.0 48.0 L-40.0 41.0 Q-40.0 36.0 -35.0 36.0 L-34.3 36.0 Q-33.15 34.0 -30.0 34.0 L-22.0 34.0 Q-18.9 34.0 -17.7 35.95 -17.25 34.4 -16.0 33.7 L-16.0 31.0 Q-21.0 31.0 -21.0 26.0 L-21.0 11.0 -35.0 11.0 Q-40.0 11.0 -40.0 6.0 L-40.0 -1.0 Q-40.0 -6.0 -35.0 -6.0 L-21.0 -6.0 Q-21.0 -13.4 -14.9 -14.7 -14.5 -30.95 -15.7 -49.8 -15.85 -52.4 -16.8 -53.8 L-16.85 -53.85 -17.4 -54.3 -17.5 -54.35 -18.85 -55.4 Q-19.55 -56.1 -19.7 -57.0 -19.85 -57.9 -19.45 -58.75 -18.85 -60.25 -17.35 -61.65 L-17.3 -61.7 Q-15.25 -63.8 -13.1 -64.0 -8.75 -64.9 -5.3 -61.7 -3.25 -63.8 -1.1 -64.0 3.25 -64.9 6.7 -61.7 8.75 -63.8 10.9 -64.0 17.05 -65.25 21.35 -58.4 22.55 -56.55 23.7 -51.8 L23.65 -51.85" fill="#000000" fill-rule="evenodd" stroke="none"/>
    <path d="M-20.0 8.0 L-35.0 8.0 Q-37.0 8.0 -37.0 6.0 L-37.0 -1.0 Q-37.0 -3.0 -35.0 -3.0 L-20.0 -3.0 -20.0 8.0 M-34.0 50.0 L-35.0 50.0 Q-37.0 50.0 -37.0 48.0 L-37.0 41.0 Q-37.0 39.0 -35.0 39.0 L-34.0 39.0 -34.0 50.0 M-28.0 39.0 L-17.0 39.0 -17.0 50.0 -28.0 50.0 -28.0 39.0" fill="url(#gradient0)" fill-rule="evenodd" stroke="none"/>
    <path d="M-20.0 -3.0 L-17.0 -3.0 -17.0 8.0 -20.0 8.0 -20.0 -3.0 M-34.0 50.0 L-34.0 39.0 -28.0 39.0 -28.0 50.0 -34.0 50.0 M-17.0 39.0 L-13.0 39.0 -13.0 50.0 -17.0 50.0 -17.0 39.0" fill="#644837" fill-rule="evenodd" stroke="none"/>
    <path d="M-22.0 39.0 L-30.0 39.0 -30.0 50.0 -22.0 50.0 -22.0 39.0 M-22.0 37.0 Q-20.0 37.0 -20.0 39.0 L-20.0 50.0 Q-20.0 52.0 -22.0 52.0 L-30.0 52.0 Q-32.0 52.0 -32.0 50.0 L-32.0 39.0 Q-32.0 37.0 -30.0 37.0 L-22.0 37.0" fill="url(#gradient1)" fill-rule="evenodd" stroke="none"/>
    <path d="M-13.0 28.0 L-16.0 28.0 Q-18.0 28.0 -18.0 26.0 L-18.0 -6.0 Q-18.0 -12.0 -12.0 -12.0 L18.0 -12.0 Q24.0 -12.0 24.0 -6.0 25.65 4.2 25.65 10.2 25.65 16.2 24.0 26.0 24.0 28.0 22.0 28.0 L-13.0 28.0" fill="url(#gradient2)" fill-rule="evenodd" stroke="none"/>
    <path d="M-13.0 28.0 L22.0 28.0 22.0 36.0 -13.0 36.0 -13.0 28.0" fill="url(#gradient3)" fill-rule="evenodd" stroke="none"/>
    <path d="M22.0 36.0 Q24.0 36.0 24.0 38.0 L24.0 48.0 Q24.0 54.0 18.0 54.0 L-9.0 54.0 Q-15.0 54.0 -15.0 48.0 L-15.0 38.0 Q-15.0 36.0 -13.0 36.0 L22.0 36.0" fill="url(#gradient4)" fill-rule="evenodd" stroke="none"/>
    <path d="M22.0 36.0 L-13.0 36.0 -13.0 35.0 22.0 35.0 22.0 36.0" fill="#2f273a" fill-opacity="0.62352943" fill-rule="evenodd" stroke="none"/>
    <path d="M18.0 -12.0 Q24.0 -12.0 24.0 -6.0 25.65 4.2 25.65 10.2 25.65 16.2 24.0 26.0 24.0 28.0 22.0 28.0 L22.0 36.0 -13.0 36.0 -13.0 28.0 -16.0 28.0 Q-18.0 28.0 -18.0 26.0 L-18.0 -6.0 -17.95 -6.55 Q-16.65 -9.15 -14.95 -11.5 L-12.0 -12.0 18.0 -12.0" fill="url(#gradient5)" fill-rule="evenodd" stroke="none"/>
    <path d="M24.0 28.0 L-18.0 28.0 -18.0 26.0 24.0 26.0 24.0 28.0" fill="url(#gradient6)" fill-rule="evenodd" stroke="none"/>
    <path d="M-13.0 24.0 Q-14.25 24.0 -15.15 23.1 -16.0 22.25 -16.0 21.0 -16.0 19.75 -15.15 18.85 -14.25 18.0 -13.0 18.0 -11.75 18.0 -10.9 18.85 -10.0 19.75 -10.0 21.0 -10.0 22.25 -10.9 23.1 -11.75 24.0 -13.0 24.0" fill="url(#gradient7)" fill-rule="evenodd" stroke="none"/>
    <path d="M9.55 -55.65 L8.25 -56.8 7.25 -57.55 Q7.7 -58.55 8.75 -59.55 10.05 -60.85 11.35 -61.05 15.7 -61.75 18.8 -56.8 19.8 -55.2 20.75 -51.15 L21.6 -47.0 Q23.05 -39.65 23.65 -34.15 24.85 -23.4 24.5 -11.5 L24.05 -4.0 Q23.65 0.3 20.15 4.5 L19.25 5.5 19.25 -10.0 Q19.25 -12.0 17.25 -12.0 L12.0 -12.0 Q12.6 -29.45 11.3 -50.0 11.05 -53.7 9.55 -55.65" fill="url(#gradient8)" fill-rule="evenodd" stroke="none"/>
    <path d="M8.75 -51.15 L9.6 -47.0 Q11.05 -39.65 11.65 -34.15 12.85 -23.4 12.5 -11.5 L12.05 -4.0 Q11.65 0.3 8.15 4.5 L7.25 5.5 7.25 -10.0 Q7.25 -12.0 5.25 -12.0 L0.0 -12.0 Q0.6 -29.45 -0.7 -50.0 -0.95 -53.7 -2.45 -55.65 L-3.75 -56.8 -4.75 -57.55 Q-4.3 -58.55 -3.25 -59.55 -1.95 -60.85 -0.65 -61.05 3.7 -61.75 6.8 -56.8 7.8 -55.2 8.75 -51.15" fill="url(#gradient9)" fill-rule="evenodd" stroke="none"/>
    <path d="M0.05 -4.0 Q-0.35 0.3 -3.85 4.5 L-4.75 5.5 -4.75 -10.0 Q-4.75 -12.0 -6.75 -12.0 L-12.0 -12.0 Q-11.4 -29.45 -12.7 -50.0 -12.95 -53.7 -14.45 -55.65 L-15.75 -56.8 -16.75 -57.55 Q-16.3 -58.55 -15.25 -59.55 -13.95 -60.85 -12.65 -61.05 -8.3 -61.75 -5.2 -56.8 -4.2 -55.2 -3.25 -51.15 L-2.4 -47.0 Q-0.95 -39.65 -0.35 -34.15 0.85 -23.4 0.5 -11.5 L0.05 -4.0" fill="url(#gradient10)" fill-rule="evenodd" stroke="none"/>
    <path d="M-4.75 5.5 L-4.75 -10.0 Q-4.75 -12.0 -6.75 -12.0 L-12.0 -12.0" fill="none" stroke="url(#gradient11)" stroke-linecap="round" stroke-linejoin="round" stroke-width="1.0"/>
    <path d="M0.55 -12.0 L0.5 -11.5 0.05 -4.0 Q-0.35 0.3 -3.85 4.5 L-4.75 5.5 M-0.65 -36.85 L-0.35 -34.15 Q0.8 -23.65 0.55 -12.0" fill="none" stroke="url(#gradient12)" stroke-linecap="round" stroke-linejoin="round" stroke-width="1.0"/>
    <path d="M12.55 -12.0 L12.5 -11.5 12.05 -4.0 Q11.65 0.3 8.15 4.5 L7.25 5.5 M12.55 -12.0 Q12.8 -23.65 11.65 -34.15 L11.35 -36.85" fill="none" stroke="url(#gradient13)" stroke-linecap="round" stroke-linejoin="round" stroke-width="1.0"/>
    <path d="M7.25 5.5 L7.25 -10.0 Q7.25 -12.0 5.25 -12.0 L0.55 -12.0" fill="none" stroke="url(#gradient14)" stroke-linecap="round" stroke-linejoin="round" stroke-width="1.0"/>
    <path d="M23.35 -36.85 L23.65 -34.15 Q24.85 -23.4 24.5 -11.5 L24.05 -4.0 Q23.65 0.3 20.15 4.5 L19.25 5.5" fill="none" stroke="url(#gradient15)" stroke-linecap="round" stroke-linejoin="round" stroke-width="1.0"/>
    <path d="M19.25 5.5 L19.25 -10.0 Q19.25 -12.0 17.25 -12.0 L12.55 -12.0" fill="none" stroke="url(#gradient16)" stroke-linecap="round" stroke-linejoin="round" stroke-width="1.0"/>
    <path d="M15.0 11.0 L13.0 11.0 9.0 15.0 13.0 19.0 15.0 19.0 15.0 23.0 11.0 23.0 11.0 21.0 7.0 17.0 3.0 21.0 3.0 23.0 -1.0 23.0 -1.0 19.0 1.0 19.0 5.0 15.0 1.0 11.0 -1.0 11.0 -1.0 7.0 3.0 7.0 3.0 9.0 7.0 13.0 11.0 9.0 11.0 7.0 15.0 7.0 15.0 11.0" fill="#4d4e6a" fill-rule="evenodd" stroke="none"/>
    <path d="M0.0 23.0 L0.0 19.0 2.0 19.0 6.0 15.0 2.0 11.0 0.0 11.0 0.0 7.0 4.0 7.0 4.0 9.0 8.0 13.0 12.0 9.0 12.0 7.0 16.0 7.0 16.0 11.0 14.0 11.0 10.0 15.0 14.0 19.0 16.0 19.0 16.0 23.0 8.0 15.0 0.0 23.0" fill="#ffffff" fill-rule="evenodd" stroke="none"/>
    <path d="M16.0 23.0 L12.0 23.0 12.0 21.0 8.0 17.0 4.0 21.0 4.0 23.0 0.0 23.0 8.0 15.0 16.0 23.0" fill="url(#gradient17)" fill-rule="evenodd" stroke="none"/>
  </g>
  <defs>
    <linearGradient gradientTransform="matrix(0.0104, 0.0, 0.0, 0.0067, -28.5, 2.5)" gradientUnits="userSpaceOnUse" id="gradient0" spreadMethod="pad" x1="-819.2" x2="819.2">
      <stop offset="0.17647058823529413" stop-color="#72533f"/>
      <stop offset="0.3568627450980392" stop-color="#816245"/>
      <stop offset="1.0" stop-color="#856a47"/>
    </linearGradient>
    <linearGradient gradientTransform="matrix(0.0073, 0.0, 0.0, 0.0092, -26.0, 44.5)" gradientUnits="userSpaceOnUse" id="gradient1" spreadMethod="pad" x1="-819.2" x2="819.2">
      <stop offset="0.11764705882352941" stop-color="#948787"/>
      <stop offset="0.36470588235294116" stop-color="#b9b0b0"/>
      <stop offset="0.6039215686274509" stop-color="#d2cece"/>
      <stop offset="0.8196078431372549" stop-color="#b9b0b0"/>
      <stop offset="1.0" stop-color="#b9b0b0"/>
    </linearGradient>
    <linearGradient gradientTransform="matrix(0.0266, 0.0, 0.0, 0.0244, 3.8, 8.0)" gradientUnits="userSpaceOnUse" id="gradient2" spreadMethod="pad" x1="-819.2" x2="819.2">
      <stop offset="0.11372549019607843" stop-color="#544961"/>
      <stop offset="0.23529411764705882" stop-color="#6f6279"/>
      <stop offset="1.0" stop-color="#756082"/>
    </linearGradient>
    <linearGradient gradientTransform="matrix(0.0221, 0.0, 0.0, 1.0, 4.0, 0.0)" gradientUnits="userSpaceOnUse" id="gradient3" spreadMethod="pad" x1="-819.2" x2="819.2">
      <stop offset="0.13333333333333333" stop-color="#4a4556"/>
      <stop offset="0.2627450980392157" stop-color="#6c5b79"/>
      <stop offset="1.0" stop-color="#6c5b79"/>
    </linearGradient>
    <linearGradient gradientTransform="matrix(0.0266, 0.0, 0.0, 0.0244, 3.8, 8.0)" gradientUnits="userSpaceOnUse" id="gradient4" spreadMethod="pad" x1="-819.2" x2="819.2">
      <stop offset="0.16862745098039217" stop-color="#544961"/>
      <stop offset="0.30196078431372547" stop-color="#6f6279"/>
      <stop offset="0.6549019607843137" stop-color="#7e7393"/>
      <stop offset="1.0" stop-color="#6f5f7c"/>
    </linearGradient>
    <radialGradient cx="0" cy="0" gradientTransform="matrix(0.0355, 0.0, 0.0, 0.0491, 6.95, 15.35)" gradientUnits="userSpaceOnUse" id="gradient5" r="819.2" spreadMethod="pad">
      <stop offset="0.19607843137254902" stop-color="#8e86aa" stop-opacity="0.8235294"/>
      <stop offset="1.0" stop-color="#756082" stop-opacity="0.0"/>
    </radialGradient>
    <linearGradient gradientTransform="matrix(0.0256, 0.0, 0.0, 0.0012, 3.0, 27.0)" gradientUnits="userSpaceOnUse" id="gradient6" spreadMethod="pad" x1="-819.2" x2="819.2">
      <stop offset="0.058823529411764705" stop-color="#b9b0b0" stop-opacity="0.13333334"/>
      <stop offset="1.0" stop-color="#f8f8f8" stop-opacity="0.101960786"/>
    </linearGradient>
    <radialGradient cx="0" cy="0" gradientTransform="matrix(0.0038, 0.0, 0.0, 0.0038, -13.0, 21.0)" gradientUnits="userSpaceOnUse" id="gradient7" r="819.2" spreadMethod="pad">
      <stop offset="0.07058823529411765" stop-color="#e1dddd"/>
      <stop offset="0.22745098039215686" stop-color="#c3bbbb"/>
      <stop offset="0.788235294117647" stop-color="#9a8f8f"/>
      <stop offset="0.9137254901960784" stop-color="#484451"/>
    </radialGradient>
    <linearGradient gradientTransform="matrix(0.0224, 0.0387, -0.0419, 0.0242, 17.05, -33.3)" gradientUnits="userSpaceOnUse" id="gradient8" spreadMethod="pad" x1="-819.2" x2="819.2">
      <stop offset="0.0" stop-color="#b9b0b0"/>
      <stop offset="0.19607843137254902" stop-color="#aea6a6"/>
      <stop offset="0.403921568627451" stop-color="#e0dede"/>
      <stop offset="0.596078431372549" stop-color="#aea6a6"/>
      <stop offset="1.0" stop-color="#b9b0b0"/>
    </linearGradient>
    <linearGradient gradientTransform="matrix(0.0224, 0.0387, -0.0419, 0.0242, 5.05, -33.3)" gradientUnits="userSpaceOnUse" id="gradient9" spreadMethod="pad" x1="-819.2" x2="819.2">
      <stop offset="0.0" stop-color="#b9b0b0"/>
      <stop offset="0.19607843137254902" stop-color="#b5acac"/>
      <stop offset="0.403921568627451" stop-color="#e3e1e1"/>
      <stop offset="0.596078431372549" stop-color="#b5acac"/>
      <stop offset="1.0" stop-color="#b9b0b0"/>
    </linearGradient>
    <linearGradient gradientTransform="matrix(0.0224, 0.0387, -0.0419, 0.0242, -6.95, -33.3)" gradientUnits="userSpaceOnUse" id="gradient10" spreadMethod="pad" x1="-819.2" x2="819.2">
      <stop offset="0.0" stop-color="#b9b0b0"/>
      <stop offset="0.19607843137254902" stop-color="#b9b0b0"/>
      <stop offset="0.403921568627451" stop-color="#ebe9e9"/>
      <stop offset="0.596078431372549" stop-color="#b9b0b0"/>
      <stop offset="1.0" stop-color="#b9b0b0"/>
    </linearGradient>
    <linearGradient gradientTransform="matrix(0.0, -0.027, 0.0265, 0.0, -5.75, -15.65)" gradientUnits="userSpaceOnUse" id="gradient11" spreadMethod="pad" x1="-819.2" x2="819.2">
      <stop offset="0.0" stop-color="#403a4b"/>
      <stop offset="0.6666666666666666" stop-color="#403a4b"/>
      <stop offset="1.0" stop-color="#403a4b" stop-opacity="0.0"/>
    </linearGradient>
    <linearGradient gradientTransform="matrix(0.0, -0.027, 0.0265, 0.0, -5.75, -15.65)" gradientUnits="userSpaceOnUse" id="gradient12" spreadMethod="pad" x1="-819.2" x2="819.2">
      <stop offset="0.0" stop-color="#403a4b"/>
      <stop offset="0.6666666666666666" stop-color="#403a4b"/>
      <stop offset="0.8156862745098039" stop-color="#403a4b" stop-opacity="0.0"/>
    </linearGradient>
    <linearGradient gradientTransform="matrix(0.0, -0.027, 0.0265, 0.0, 6.25, -15.65)" gradientUnits="userSpaceOnUse" id="gradient13" spreadMethod="pad" x1="-819.2" x2="819.2">
      <stop offset="0.0" stop-color="#403a4b"/>
      <stop offset="0.6666666666666666" stop-color="#403a4b"/>
      <stop offset="0.8156862745098039" stop-color="#403a4b" stop-opacity="0.0"/>
    </linearGradient>
    <linearGradient gradientTransform="matrix(0.0, -0.027, 0.0265, 0.0, 6.25, -15.65)" gradientUnits="userSpaceOnUse" id="gradient14" spreadMethod="pad" x1="-819.2" x2="819.2">
      <stop offset="0.0" stop-color="#403a4b"/>
      <stop offset="0.6666666666666666" stop-color="#403a4b"/>
      <stop offset="1.0" stop-color="#403a4b" stop-opacity="0.0"/>
    </linearGradient>
    <linearGradient gradientTransform="matrix(0.0, -0.027, 0.0265, 0.0, 18.25, -15.65)" gradientUnits="userSpaceOnUse" id="gradient15" spreadMethod="pad" x1="-819.2" x2="819.2">
      <stop offset="0.0" stop-color="#403a4b"/>
      <stop offset="0.6666666666666666" stop-color="#403a4b"/>
      <stop offset="0.8156862745098039" stop-color="#403a4b" stop-opacity="0.0"/>
    </linearGradient>
    <linearGradient gradientTransform="matrix(0.0, -0.027, 0.0265, 0.0, 18.25, -15.65)" gradientUnits="userSpaceOnUse" id="gradient16" spreadMethod="pad" x1="-819.2" x2="819.2">
      <stop offset="0.0" stop-color="#403a4b"/>
      <stop offset="0.6666666666666666" stop-color="#403a4b"/>
      <stop offset="1.0" stop-color="#403a4b" stop-opacity="0.0"/>
    </linearGradient>
    <linearGradient gradientTransform="matrix(0.0, -0.0098, 0.0049, 0.0, 8.0, 15.0)" gradientUnits="userSpaceOnUse" id="gradient17" spreadMethod="pad" x1="-819.2" x2="819.2">
      <stop offset="0.07058823529411765" stop-color="#f1efef"/>
      <stop offset="1.0" stop-color="#b9b0b0"/>
    </linearGradient>
  </defs>
</svg>
