<?xml version="1.0" encoding="UTF-8" standalone="no"?>
<svg xmlns:xlink="http://www.w3.org/1999/xlink" height="154.3px" width="36.0px" xmlns="http://www.w3.org/2000/svg">
  <g transform="matrix(1.0, 0.0, 0.0, 1.0, 18.5, 76.55)">
    <path d="M16.85 -54.25 Q7.85 -44.6 6.25 -23.9 4.7 -3.85 11.15 7.7 L11.35 8.2 11.5 9.1 11.1 10.4 Q7.25 17.25 11.6 21.05 12.45 21.7 12.5 22.65 12.55 23.6 12.05 24.6 12.7 25.25 12.75 26.2 12.8 27.15 12.2 27.9 9.9 30.7 9.95 34.75 10.0 37.3 10.4 39.15 L10.7 40.35 Q11.35 40.9 11.6 41.7 11.8 42.5 11.45 43.3 11.15 44.0 11.25 44.7 L11.9 45.35 Q12.5 46.2 12.5 47.0 12.5 47.9 11.75 48.8 L10.5 49.9 10.5 51.0 Q10.5 52.05 9.8 52.8 L9.5 53.05 9.3 60.5 Q8.65 69.4 5.95 72.6 2.3 76.95 0.1 76.65 -1.8 78.2 -2.8 77.6 -4.4 76.95 -4.7 76.5 L-6.85 76.25 -8.45 75.7 Q-9.7 74.8 -9.05 71.95 L-9.0 71.35 -10.85 68.65 Q-12.8 65.95 -13.2 65.75 -13.7 65.5 -13.9 64.55 L-14.1 63.6 -16.8 62.55 Q-17.75 62.2 -18.15 61.35 -18.6 60.45 -18.35 59.55 -18.1 58.6 -17.25 58.1 L-16.45 57.55 -17.1 57.25 Q-18.0 56.8 -18.3 55.9 -18.7 55.0 -18.3 54.1 -18.0 53.2 -17.1 52.8 L-16.0 52.2 -17.05 51.45 Q-17.85 50.85 -18.05 49.95 -18.25 49.0 -17.75 48.15 -17.25 47.3 -16.35 47.05 L-13.55 46.15 Q-13.05 44.7 -12.35 43.85 L-15.2 38.15 Q-15.7 37.2 -15.4 36.25 -15.1 35.3 -14.2 34.85 -6.7 30.45 -6.7 18.95 -6.7 14.2 -7.85 6.15 L-10.0 -8.8 Q-12.65 -29.0 -9.3 -42.55 -4.65 -61.85 12.3 -75.8 L12.9 -76.25 Q13.65 -76.65 14.25 -76.5 16.25 -76.05 16.5 -74.15 L17.5 -55.95 17.3 -54.95 16.85 -54.25 M-6.55 43.1 L-6.95 43.5 -5.8 43.45 -5.25 42.95 -6.55 43.1 M-3.5 51.0 L-3.5 49.8 -3.9 49.5 -5.8 49.5 Q-6.85 51.25 -6.95 55.1 -7.05 58.4 -5.65 63.65 L-3.65 62.95 Q-2.5 60.9 -2.5 53.05 L-2.75 52.8 Q-3.5 52.05 -3.5 51.0" fill="#000000" fill-rule="evenodd" stroke="none"/>
    <path d="M10.0 47.0 L-9.0 47.0 -9.0 46.0 -5.45 45.9 Q-3.65 45.65 -3.0 44.0 L7.0 44.0 10.0 47.0" fill="url(#gradient0)" fill-rule="evenodd" stroke="none"/>
    <path d="M-11.35 48.05 L-12.0 52.0 -15.6 49.4 -11.35 48.05" fill="url(#gradient1)" fill-rule="evenodd" stroke="none"/>
    <path d="M-12.2 57.85 L-11.8 61.75 -15.95 60.2 -12.2 57.85" fill="url(#gradient2)" fill-rule="evenodd" stroke="none"/>
    <path d="M-3.3 66.95 L0.55 71.5 -1.75 73.4 -5.6 68.85 -3.3 66.95" fill="url(#gradient3)" fill-rule="evenodd" stroke="none"/>
    <path d="M-6.7 73.75 Q-6.9 73.55 -6.6 72.25 L-5.95 69.95 -2.9 73.6 -5.15 73.95 -6.7 73.75" fill="url(#gradient4)" fill-rule="evenodd" stroke="none"/>
    <path d="M-16.0 55.0 L-12.0 53.0 -12.0 57.0 -16.0 55.0" fill="url(#gradient5)" fill-rule="evenodd" stroke="none"/>
    <path d="M4.0 71.0 Q-2.95 71.75 -2.0 65.0 -0.65 63.4 -0.2 59.25 0.05 56.65 0.0 51.0 L7.0 51.0 6.8 60.3 Q6.2 68.7 4.0 71.0" fill="url(#gradient6)" fill-rule="evenodd" stroke="none"/>
    <path d="M1.85 73.3 Q0.65 74.2 0.0 74.0 L-6.0 67.0 Q-6.1 66.4 -4.8 65.95 L-2.0 65.0 -0.25 66.75 Q-0.6 67.2 -0.6 67.8 -0.6 68.5 -0.15 69.0 0.4 69.5 1.1 69.5 1.7 69.5 2.15 69.15 L4.0 71.0 Q3.0 72.45 1.85 73.3" fill="url(#gradient7)" fill-rule="evenodd" stroke="none"/>
    <path d="M-7.0 47.0 Q-9.25 49.0 -9.45 55.0 -9.6 60.6 -8.1 64.3 -7.35 66.15 -6.0 68.0 L-1.4 73.55 Q-1.1 73.85 -1.15 74.25 L-1.6 74.8 -2.25 75.15 -2.85 74.8 -7.2 69.6 -9.65 66.1 Q-11.15 63.9 -11.45 64.0 -12.55 59.15 -12.2 53.0 -11.8 46.6 -10.0 45.0 L-7.0 47.0" fill="url(#gradient8)" fill-rule="evenodd" stroke="none"/>
    <path d="M2.35 55.35 L2.0 55.5 0.0 55.5 0.0 54.5 2.0 54.5 Q2.2 54.5 2.35 54.65 L2.5 55.0 2.35 55.35" fill="url(#gradient9)" fill-rule="evenodd" stroke="none"/>
    <path d="M2.25 58.75 L2.35 59.1 2.2 59.45 1.85 59.55 -0.15 59.4 -0.1 58.4 1.9 58.55 2.25 58.75" fill="url(#gradient10)" fill-rule="evenodd" stroke="none"/>
    <path d="M1.7 63.4 L1.4 63.7 1.0 63.75 -0.9 63.05 -0.55 62.05 1.35 62.75 1.7 63.0 1.7 63.4" fill="url(#gradient11)" fill-rule="evenodd" stroke="none"/>
    <path d="M-1.0 49.0 L-1.8 47.95 -3.0 47.0 10.0 47.0 8.8 48.05 Q8.25 48.45 8.0 49.0 L-1.0 49.0" fill="url(#gradient12)" fill-rule="evenodd" stroke="none"/>
    <path d="M7.0 44.0 L-2.0 44.0 -2.0 42.0 7.0 42.0 7.0 44.0" fill="url(#gradient13)" fill-rule="evenodd" stroke="none"/>
    <path d="M-1.0 49.0 L8.0 49.0 8.0 51.0 -1.0 51.0 -1.0 49.0" fill="url(#gradient14)" fill-rule="evenodd" stroke="none"/>
    <path d="M7.0 30.0 L7.0 42.0 -2.0 42.0 Q-2.0 41.1 -4.1 40.6 -6.35 40.1 -8.0 41.0 L-4.0 36.0 Q-3.6 37.5 -2.15 38.85 -0.8 40.05 0.0 40.0 1.45 39.9 1.75 35.6 2.0 31.1 0.0 29.0 L0.0 22.0 3.7 26.1 7.0 30.0" fill="url(#gradient15)" fill-rule="evenodd" stroke="none"/>
    <path d="M15.0 -56.0 Q5.45 -45.85 3.75 -24.1 2.15 -3.05 9.0 9.0 1.65 12.35 0.85 21.05 -4.55 -7.15 -3.45 -30.6 -2.35 -54.5 12.0 -66.0 L15.0 -56.0" fill="url(#gradient16)" fill-rule="evenodd" stroke="none"/>
    <path d="M14.0 -74.0 L15.0 -56.0 12.0 -66.0 14.0 -74.0" fill="#706032" fill-rule="evenodd" stroke="none"/>
    <path d="M7.0 30.0 L0.0 22.0 0.45 21.5 0.85 21.05 Q1.65 12.35 9.0 9.0 3.85 18.05 10.0 23.0 9.1 24.35 7.0 30.0" fill="url(#gradient17)" fill-rule="evenodd" stroke="none"/>
    <path d="M7.0 31.75 Q3.3 27.7 0.0 22.0 L0.0 19.0 Q4.45 26.65 7.0 29.0 L7.0 31.75" fill="url(#gradient18)" fill-rule="evenodd" stroke="none"/>
    <path d="M6.0 44.0 L-2.0 44.0 -2.0 43.0 6.0 43.0 6.0 44.0 M6.0 32.0 L6.0 42.0 -3.0 42.0 -3.0 41.0 5.0 41.0 5.0 32.0 6.0 32.0 M0.1 32.9 L-2.6 32.2 -0.65 21.15 1.9 25.05 Q1.85 27.2 1.3 29.2 L0.1 32.9 M7.0 51.0 L7.0 52.0 0.0 52.0 0.0 51.0 7.0 51.0 M-2.0 36.0 L-8.0 43.0 -10.0 41.0 -4.0 34.0 -2.0 36.0" fill="#000000" fill-opacity="0.15294118" fill-rule="evenodd" stroke="none"/>
    <path d="M6.0 44.0 L7.0 46.0 9.0 46.0" fill="none" stroke="#000000" stroke-linecap="round" stroke-linejoin="round" stroke-opacity="0.15294118" stroke-width="0.5"/>
    <path d="M7.0 34.0 L4.0 32.0 7.0 30.0 7.0 34.0" fill="url(#gradient19)" fill-rule="evenodd" stroke="none"/>
    <path d="M7.0 35.0 L7.0 39.0 4.0 37.0 7.0 35.0" fill="url(#gradient20)" fill-rule="evenodd" stroke="none"/>
    <path d="M9.0 25.0 L10.25 26.3 Q7.4 29.75 7.45 34.8 7.5 37.65 7.95 39.7 8.4 41.7 9.15 42.3 8.3 44.25 9.0 46.0 L7.0 46.0 Q6.15 45.2 6.0 44.0 5.8 33.15 6.2 31.3 6.5 30.2 7.75 27.5 L9.0 25.0" fill="url(#gradient21)" fill-rule="evenodd" stroke="none"/>
    <path d="M12.0 -66.0 Q-4.4 -46.75 -3.05 -18.55 -2.75 -11.85 -0.55 3.3 1.35 16.0 1.0 22.0 1.35 29.65 -3.2 35.6 -5.65 38.8 -10.0 43.0 L-13.0 37.0 Q-4.2 32.1 -4.2 18.95 -4.2 14.05 -5.4 5.8 L-7.55 -9.15 Q-10.1 -28.75 -6.9 -41.95 -2.35 -60.55 14.0 -74.0 L12.0 -66.0" fill="url(#gradient22)" fill-rule="evenodd" stroke="none"/>
  </g>
  <defs>
    <linearGradient gradientTransform="matrix(0.0116, 0.0, 0.0, 0.0018, 0.5, 45.5)" gradientUnits="userSpaceOnUse" id="gradient0" spreadMethod="pad" x1="-819.2" x2="819.2">
      <stop offset="0.058823529411764705" stop-color="#757575"/>
      <stop offset="0.3254901960784314" stop-color="#404040"/>
      <stop offset="0.6392156862745098" stop-color="#b0b0b0"/>
      <stop offset="0.6666666666666666" stop-color="#aaaaaa"/>
      <stop offset="0.9058823529411765" stop-color="#464646"/>
      <stop offset="1.0" stop-color="#4e4e4e"/>
    </linearGradient>
    <linearGradient gradientTransform="matrix(5.0E-4, -0.0025, 0.0024, 5.0E-4, -13.5, 50.0)" gradientUnits="userSpaceOnUse" id="gradient1" spreadMethod="pad" x1="-819.2" x2="819.2">
      <stop offset="0.0196078431372549" stop-color="#666666"/>
      <stop offset="0.5215686274509804" stop-color="#989898"/>
      <stop offset="1.0" stop-color="#666666"/>
    </linearGradient>
    <linearGradient gradientTransform="matrix(-2.0E-4, -0.0024, 0.0024, -2.0E-4, -14.0, 60.0)" gradientUnits="userSpaceOnUse" id="gradient2" spreadMethod="pad" x1="-819.2" x2="819.2">
      <stop offset="0.0196078431372549" stop-color="#666666"/>
      <stop offset="0.5215686274509804" stop-color="#989898"/>
      <stop offset="1.0" stop-color="#666666"/>
    </linearGradient>
    <linearGradient gradientTransform="matrix(0.0025, 0.0029, -0.0028, 0.0023, 1.35, 67.2)" gradientUnits="userSpaceOnUse" id="gradient3" spreadMethod="pad" x1="-819.2" x2="819.2">
      <stop offset="0.0" stop-color="#584f27"/>
      <stop offset="0.4470588235294118" stop-color="#bba76f"/>
      <stop offset="0.6" stop-color="#bba76f"/>
      <stop offset="1.0" stop-color="#43391f"/>
    </linearGradient>
    <radialGradient cx="0" cy="0" gradientTransform="matrix(0.0016, 0.0019, -0.005, 0.0041, -4.95, 72.35)" gradientUnits="userSpaceOnUse" id="gradient4" r="819.2" spreadMethod="pad">
      <stop offset="0.08235294117647059" stop-color="#9b9b9b"/>
      <stop offset="0.6705882352941176" stop-color="#494949"/>
      <stop offset="0.9803921568627451" stop-color="#555555"/>
    </radialGradient>
    <linearGradient gradientTransform="matrix(0.0, -0.0024, 0.0024, 0.0, -14.0, 55.0)" gradientUnits="userSpaceOnUse" id="gradient5" spreadMethod="pad" x1="-819.2" x2="819.2">
      <stop offset="0.0196078431372549" stop-color="#666666"/>
      <stop offset="0.5215686274509804" stop-color="#989898"/>
      <stop offset="1.0" stop-color="#666666"/>
    </linearGradient>
    <radialGradient cx="0" cy="0" gradientTransform="matrix(0.0092, 4.0E-4, -0.0013, 0.0321, -0.75, 56.85)" gradientUnits="userSpaceOnUse" id="gradient6" r="819.2" spreadMethod="pad">
      <stop offset="0.25882352941176473" stop-color="#3e2424"/>
      <stop offset="0.4980392156862745" stop-color="#543232"/>
      <stop offset="0.8313725490196079" stop-color="#281e1e"/>
      <stop offset="1.0" stop-color="#4d3939"/>
    </radialGradient>
    <radialGradient cx="0" cy="0" gradientTransform="matrix(0.0044, 0.0059, -0.006, 0.0045, -2.65, 70.35)" gradientUnits="userSpaceOnUse" id="gradient7" r="819.2" spreadMethod="pad">
      <stop offset="0.08627450980392157" stop-color="#d0d0d0"/>
      <stop offset="0.21176470588235294" stop-color="#aaaaaa"/>
      <stop offset="0.8313725490196079" stop-color="#4e4e4e"/>
      <stop offset="1.0" stop-color="#464646"/>
    </radialGradient>
    <linearGradient gradientTransform="matrix(0.0119, 0.0138, -0.0051, 0.0044, -10.6, 64.65)" gradientUnits="userSpaceOnUse" id="gradient8" spreadMethod="pad" x1="-819.2" x2="819.2">
      <stop offset="0.10588235294117647" stop-color="#666666"/>
      <stop offset="0.19607843137254902" stop-color="#717171"/>
      <stop offset="0.4392156862745098" stop-color="#8a8a8a"/>
      <stop offset="0.592156862745098" stop-color="#6d6d6d"/>
      <stop offset="0.7176470588235294" stop-color="#4e4e4e"/>
      <stop offset="0.8196078431372549" stop-color="#a1a1a1"/>
      <stop offset="0.8313725490196079" stop-color="#a1a1a1"/>
      <stop offset="0.9294117647058824" stop-color="#353535"/>
      <stop offset="1.0" stop-color="#585858"/>
    </linearGradient>
    <linearGradient gradientTransform="matrix(0.0012, 0.0, 0.0, 6.0E-4, 0.75, 54.5)" gradientUnits="userSpaceOnUse" id="gradient9" spreadMethod="pad" x1="-819.2" x2="819.2">
      <stop offset="0.0" stop-color="#462b2b"/>
      <stop offset="0.6039215686274509" stop-color="#785454"/>
    </linearGradient>
    <linearGradient gradientTransform="matrix(0.0012, 1.0E-4, 0.0, 6.0E-4, 0.65, 58.45)" gradientUnits="userSpaceOnUse" id="gradient10" spreadMethod="pad" x1="-819.2" x2="819.2">
      <stop offset="0.0" stop-color="#462b2b"/>
      <stop offset="0.6039215686274509" stop-color="#785454"/>
    </linearGradient>
    <linearGradient gradientTransform="matrix(0.0011, 4.0E-4, -2.0E-4, 6.0E-4, 0.15, 62.35)" gradientUnits="userSpaceOnUse" id="gradient11" spreadMethod="pad" x1="-819.2" x2="819.2">
      <stop offset="0.0" stop-color="#462b2b"/>
      <stop offset="0.6039215686274509" stop-color="#785454"/>
    </linearGradient>
    <linearGradient gradientTransform="matrix(0.0081, 0.0, 0.0, 0.0024, 3.4, 49.0)" gradientUnits="userSpaceOnUse" id="gradient12" spreadMethod="pad" x1="-819.2" x2="819.2">
      <stop offset="0.0" stop-color="#383838"/>
      <stop offset="0.14901960784313725" stop-color="#313131"/>
      <stop offset="0.47058823529411764" stop-color="#787878"/>
      <stop offset="0.5568627450980392" stop-color="#7b7b7b"/>
      <stop offset="0.8823529411764706" stop-color="#313131"/>
      <stop offset="1.0" stop-color="#313131"/>
    </linearGradient>
    <linearGradient gradientTransform="matrix(0.0061, 0.0, 0.0, 0.0012, 3.0, 42.9)" gradientUnits="userSpaceOnUse" id="gradient13" spreadMethod="pad" x1="-819.2" x2="819.2">
      <stop offset="0.0" stop-color="#606060"/>
      <stop offset="0.1411764705882353" stop-color="#4e4e4e"/>
      <stop offset="0.5294117647058824" stop-color="#aaaaaa"/>
      <stop offset="0.6" stop-color="#9c9c9c"/>
      <stop offset="0.8235294117647058" stop-color="#404040"/>
    </linearGradient>
    <linearGradient gradientTransform="matrix(0.0057, 0.0, 0.0, 6.0E-4, 3.5, 50.5)" gradientUnits="userSpaceOnUse" id="gradient14" spreadMethod="pad" x1="-819.2" x2="819.2">
      <stop offset="0.0" stop-color="#555555"/>
      <stop offset="0.08235294117647059" stop-color="#3c3c3c"/>
      <stop offset="0.3607843137254902" stop-color="#868686"/>
      <stop offset="0.49411764705882355" stop-color="#a3a3a3"/>
      <stop offset="0.6196078431372549" stop-color="#868686"/>
      <stop offset="0.9098039215686274" stop-color="#404040"/>
      <stop offset="1.0" stop-color="#585858"/>
    </linearGradient>
    <linearGradient gradientTransform="matrix(0.0077, 0.0038, -0.0053, 0.011, 1.85, 34.1)" gradientUnits="userSpaceOnUse" id="gradient15" spreadMethod="pad" x1="-819.2" x2="819.2">
      <stop offset="0.03529411764705882" stop-color="#43391f"/>
      <stop offset="0.20784313725490197" stop-color="#584b29"/>
      <stop offset="0.3764705882352941" stop-color="#7c6b3a"/>
      <stop offset="0.4980392156862745" stop-color="#958146"/>
      <stop offset="0.8313725490196079" stop-color="#9b8239"/>
      <stop offset="1.0" stop-color="#6d5b27"/>
    </linearGradient>
    <linearGradient gradientTransform="matrix(0.0392, -0.0543, 0.0478, 0.0346, 4.55, -13.05)" gradientUnits="userSpaceOnUse" id="gradient16" spreadMethod="pad" x1="-819.2" x2="819.2">
      <stop offset="0.23921568627450981" stop-color="#6a6a6a"/>
      <stop offset="0.4549019607843137" stop-color="#232323"/>
      <stop offset="0.7098039215686275" stop-color="#555555"/>
      <stop offset="0.7450980392156863" stop-color="#555555"/>
      <stop offset="0.8666666666666667" stop-color="#353535"/>
      <stop offset="0.9803921568627451" stop-color="#181818"/>
    </linearGradient>
    <linearGradient gradientTransform="matrix(-0.0051, -0.011, 0.0535, -0.0247, 9.4, 17.4)" gradientUnits="userSpaceOnUse" id="gradient17" spreadMethod="pad" x1="-819.2" x2="819.2">
      <stop offset="0.08235294117647059" stop-color="#404040"/>
      <stop offset="0.9529411764705882" stop-color="#313131"/>
    </linearGradient>
    <linearGradient gradientTransform="matrix(0.0098, 0.0, 0.0, 0.0079, -1.0, 27.0)" gradientUnits="userSpaceOnUse" id="gradient18" spreadMethod="pad" x1="-819.2" x2="819.2">
      <stop offset="0.44313725490196076" stop-color="#591111"/>
      <stop offset="0.7215686274509804" stop-color="#771e1e"/>
      <stop offset="0.8117647058823529" stop-color="#7b2020"/>
      <stop offset="1.0" stop-color="#3e1717"/>
    </linearGradient>
    <linearGradient gradientTransform="matrix(2.0E-4, -0.0018, 0.0024, 2.0E-4, 5.5, 32.0)" gradientUnits="userSpaceOnUse" id="gradient19" spreadMethod="pad" x1="-819.2" x2="819.2">
      <stop offset="0.17647058823529413" stop-color="#8a8a8a"/>
      <stop offset="0.5411764705882353" stop-color="#b5b5b5"/>
      <stop offset="0.8196078431372549" stop-color="#898989"/>
    </linearGradient>
    <linearGradient gradientTransform="matrix(0.0, -0.0018, 0.0024, -1.0E-4, 5.5, 37.0)" gradientUnits="userSpaceOnUse" id="gradient20" spreadMethod="pad" x1="-819.2" x2="819.2">
      <stop offset="0.17647058823529413" stop-color="#8a8a8a"/>
      <stop offset="0.5411764705882353" stop-color="#b5b5b5"/>
      <stop offset="0.8196078431372549" stop-color="#898989"/>
    </linearGradient>
    <linearGradient gradientTransform="matrix(0.0053, 0.0123, -0.0106, 0.0046, 8.95, 35.2)" gradientUnits="userSpaceOnUse" id="gradient21" spreadMethod="pad" x1="-819.2" x2="819.2">
      <stop offset="0.0" stop-color="#868686"/>
      <stop offset="0.39215686274509803" stop-color="#adadad"/>
      <stop offset="0.7686274509803922" stop-color="#808080"/>
      <stop offset="1.0" stop-color="#aaaaaa"/>
    </linearGradient>
    <linearGradient gradientTransform="matrix(0.0423, -0.0502, 0.0545, 0.0459, 0.5, -15.5)" gradientUnits="userSpaceOnUse" id="gradient22" spreadMethod="pad" x1="-819.2" x2="819.2">
      <stop offset="0.0" stop-color="#ede283"/>
      <stop offset="0.1450980392156863" stop-color="#d1ca89"/>
      <stop offset="0.2980392156862745" stop-color="#958746"/>
      <stop offset="0.5529411764705883" stop-color="#695e2c"/>
      <stop offset="0.7098039215686275" stop-color="#f8ed94"/>
      <stop offset="0.7607843137254902" stop-color="#f8ed94"/>
      <stop offset="1.0" stop-color="#85723a"/>
    </linearGradient>
  </defs>
</svg>
