<?xml version="1.0" encoding="UTF-8" standalone="no"?>
<svg xmlns:xlink="http://www.w3.org/1999/xlink" height="768.0px" width="509.2px" xmlns="http://www.w3.org/2000/svg">
  <g transform="matrix(1.0, 0.0, 0.0, 1.0, 0.0, 0.0)">
    <path d="M74.65 0.0 L109.25 19.95 109.25 59.95 74.65 80.0 40.0 60.0 40.0 20.0 74.65 0.0 M154.6 0.0 L189.2 19.95 189.2 59.95 154.6 80.0 119.95 60.0 119.95 20.0 154.6 0.0 M234.6 0.0 L269.2 19.95 269.2 59.95 234.6 80.0 199.95 60.0 199.95 20.0 234.6 0.0 M314.65 0.0 L349.25 19.95 349.25 59.95 314.65 80.0 280.0 60.0 280.0 20.0 314.65 0.0 M394.6 0.0 L429.2 19.95 429.2 59.95 394.6 80.0 359.95 60.0 359.95 20.0 394.6 0.0 M474.6 0.0 L509.2 19.95 509.2 59.95 474.6 80.0 439.95 60.0 439.95 20.0 474.6 0.0 M509.2 195.95 L474.6 216.0 439.95 196.0 439.95 156.0 474.6 136.0 509.2 155.95 509.2 195.95 M469.2 88.95 L469.2 128.95 434.6 149.0 399.95 129.0 399.95 89.0 434.6 69.0 469.2 88.95 M389.2 88.95 L389.2 128.95 354.6 149.0 319.95 129.0 319.95 89.0 354.6 69.0 389.2 88.95 M389.2 224.95 L389.2 264.95 354.6 285.0 319.95 265.0 319.95 225.0 354.6 205.0 389.2 224.95 M359.95 156.0 L394.6 136.0 429.2 155.95 429.2 195.95 394.6 216.0 359.95 196.0 359.95 156.0 M349.25 195.95 L314.65 216.0 280.0 196.0 280.0 156.0 314.65 136.0 349.25 155.95 349.25 195.95 M469.2 224.95 L469.2 264.95 434.6 285.0 399.95 265.0 399.95 225.0 434.6 205.0 469.2 224.95 M439.95 292.0 L474.6 272.0 509.2 291.95 509.2 331.95 474.6 352.0 439.95 332.0 439.95 292.0 M429.2 331.95 L394.6 352.0 359.95 332.0 359.95 292.0 394.6 272.0 429.2 291.95 429.2 331.95 M349.25 331.95 L314.65 352.0 280.0 332.0 280.0 292.0 314.65 272.0 349.25 291.95 349.25 331.95 M399.95 361.0 L434.6 341.0 469.2 360.95 469.2 400.95 434.6 421.0 399.95 401.0 399.95 361.0 M389.2 360.95 L389.2 400.95 354.6 421.0 319.95 401.0 319.95 361.0 354.6 341.0 389.2 360.95 M429.2 435.95 L429.2 475.95 394.6 496.0 359.95 476.0 359.95 436.0 394.6 416.0 429.2 435.95 M509.2 435.95 L509.2 475.95 474.6 496.0 439.95 476.0 439.95 436.0 474.6 416.0 509.2 435.95 M309.25 88.95 L309.25 128.95 274.65 149.0 240.0 129.0 240.0 89.0 274.65 69.0 309.25 88.95 M229.2 88.95 L229.2 128.95 194.6 149.0 159.95 129.0 159.95 89.0 194.6 69.0 229.2 88.95 M229.2 224.95 L229.2 264.95 194.6 285.0 159.95 265.0 159.95 225.0 194.6 205.0 229.2 224.95 M199.95 156.0 L234.6 136.0 269.2 155.95 269.2 195.95 234.6 216.0 199.95 196.0 199.95 156.0 M189.2 195.95 L154.6 216.0 119.95 196.0 119.95 156.0 154.6 136.0 189.2 155.95 189.2 195.95 M309.25 224.95 L309.25 264.95 274.65 285.0 240.0 265.0 240.0 225.0 274.65 205.0 309.25 224.95 M149.2 88.95 L149.2 128.95 114.6 149.0 79.95 129.0 79.95 89.0 114.6 69.0 149.2 88.95 M69.25 88.95 L69.25 128.95 34.65 149.0 0.0 129.0 0.0 89.0 34.65 69.0 69.25 88.95 M69.25 224.95 L69.25 264.95 34.65 285.0 0.0 265.0 0.0 225.0 34.65 205.0 69.25 224.95 M40.0 156.0 L74.65 136.0 109.25 155.95 109.25 195.95 74.65 216.0 40.0 196.0 40.0 156.0 M149.2 224.95 L149.2 264.95 114.6 285.0 79.95 265.0 79.95 225.0 114.6 205.0 149.2 224.95 M119.95 292.0 L154.6 272.0 189.2 291.95 189.2 331.95 154.6 352.0 119.95 332.0 119.95 292.0 M109.25 331.95 L74.65 352.0 40.0 332.0 40.0 292.0 74.65 272.0 109.25 291.95 109.25 331.95 M79.95 361.0 L114.6 341.0 149.2 360.95 149.2 400.95 114.6 421.0 79.95 401.0 79.95 361.0 M69.25 360.95 L69.25 400.95 34.65 421.0 0.0 401.0 0.0 361.0 34.65 341.0 69.25 360.95 M159.95 361.0 L194.6 341.0 229.2 360.95 229.2 400.95 194.6 421.0 159.95 401.0 159.95 361.0 M109.25 435.95 L109.25 475.95 74.65 496.0 40.0 476.0 40.0 436.0 74.65 416.0 109.25 435.95 M269.2 331.95 L234.6 352.0 199.95 332.0 199.95 292.0 234.6 272.0 269.2 291.95 269.2 331.95 M240.0 361.0 L274.65 341.0 309.25 360.95 309.25 400.95 274.65 421.0 240.0 401.0 240.0 361.0 M269.2 435.95 L269.2 475.95 234.6 496.0 199.95 476.0 199.95 436.0 234.6 416.0 269.2 435.95 M189.2 435.95 L189.2 475.95 154.6 496.0 119.95 476.0 119.95 436.0 154.6 416.0 189.2 435.95 M280.0 436.0 L314.65 416.0 349.25 435.95 349.25 475.95 314.65 496.0 280.0 476.0 280.0 436.0 M309.25 504.95 L309.25 544.95 274.65 565.0 240.0 545.0 240.0 505.0 274.65 485.0 309.25 504.95 M229.2 504.95 L229.2 544.95 194.6 565.0 159.95 545.0 159.95 505.0 194.6 485.0 229.2 504.95 M189.2 611.95 L154.6 632.0 119.95 612.0 119.95 572.0 154.6 552.0 189.2 571.95 189.2 611.95 M234.6 552.0 L269.2 571.95 269.2 611.95 234.6 632.0 199.95 612.0 199.95 572.0 234.6 552.0 M314.65 552.0 L349.25 571.95 349.25 611.95 314.65 632.0 280.0 612.0 280.0 572.0 314.65 552.0 M319.95 505.0 L354.6 485.0 389.2 504.95 389.2 544.95 354.6 565.0 319.95 545.0 319.95 505.0 M149.2 504.95 L149.2 544.95 114.6 565.0 79.95 545.0 79.95 505.0 114.6 485.0 149.2 504.95 M69.25 504.95 L69.25 544.95 34.65 565.0 0.0 545.0 0.0 505.0 34.65 485.0 69.25 504.95 M74.65 552.0 L109.25 571.95 109.25 611.95 74.65 632.0 40.0 612.0 40.0 572.0 74.65 552.0 M159.95 641.0 L194.6 621.0 229.2 640.95 229.2 680.95 194.6 701.0 159.95 681.0 159.95 641.0 M149.2 680.95 L114.6 701.0 79.95 681.0 79.95 641.0 114.6 621.0 149.2 640.95 149.2 680.95 M154.6 688.0 L189.2 707.95 189.2 747.95 154.6 768.0 119.95 748.0 119.95 708.0 154.6 688.0 M69.25 680.95 L34.65 701.0 0.0 681.0 0.0 641.0 34.65 621.0 69.25 640.95 69.25 680.95 M74.65 688.0 L109.25 707.95 109.25 747.95 74.65 768.0 40.0 748.0 40.0 708.0 74.65 688.0 M319.95 641.0 L354.6 621.0 389.2 640.95 389.2 680.95 354.6 701.0 319.95 681.0 319.95 641.0 M309.25 680.95 L274.65 701.0 240.0 681.0 240.0 641.0 274.65 621.0 309.25 640.95 309.25 680.95 M314.65 688.0 L349.25 707.95 349.25 747.95 314.65 768.0 280.0 748.0 280.0 708.0 314.65 688.0 M234.6 688.0 L269.2 707.95 269.2 747.95 234.6 768.0 199.95 748.0 199.95 708.0 234.6 688.0 M509.2 611.95 L474.6 632.0 439.95 612.0 439.95 572.0 474.6 552.0 509.2 571.95 509.2 611.95 M469.2 504.95 L469.2 544.95 434.6 565.0 399.95 545.0 399.95 505.0 434.6 485.0 469.2 504.95 M394.6 552.0 L429.2 571.95 429.2 611.95 394.6 632.0 359.95 612.0 359.95 572.0 394.6 552.0 M469.2 680.95 L434.6 701.0 399.95 681.0 399.95 641.0 434.6 621.0 469.2 640.95 469.2 680.95 M474.6 688.0 L509.2 707.95 509.2 747.95 474.6 768.0 439.95 748.0 439.95 708.0 474.6 688.0 M394.6 688.0 L429.2 707.95 429.2 747.95 394.6 768.0 359.95 748.0 359.95 708.0 394.6 688.0" fill="#0a6583" fill-rule="evenodd" stroke="none"/>
  </g>
</svg>
