<?xml version="1.0" encoding="UTF-8" standalone="no"?>
<svg xmlns:xlink="http://www.w3.org/1999/xlink" height="36.7px" width="125.8px" xmlns="http://www.w3.org/2000/svg">
  <g transform="matrix(1.0, 0.0, 0.0, 1.0, -207.5, -478.5)">
    <path d="M255.55 511.15 Q265.95 507.35 273.0 503.5 280.05 499.6 283.1 496.8 L287.5 491.5 287.55 491.5 Q287.7 493.0 289.95 494.4 292.15 495.75 294.0 495.75 298.25 495.75 303.9 490.05 309.7 484.2 310.75 478.5 313.45 483.2 316.15 485.6 320.2 489.25 325.5 489.25 329.4 489.25 333.0 487.25 L333.1 487.35 Q330.25 489.45 327.8 493.2 324.75 497.9 324.75 502.0 324.75 507.35 329.9 512.4 L333.3 515.2 Q300.0 512.0 256.0 512.0 L255.55 511.15" fill="url(#gradient0)" fill-rule="evenodd" stroke="none"/>
    <path d="M256.0 512.0 L255.55 512.0 253.15 512.0 255.55 511.15 256.0 512.0 M208.2 507.3 L207.5 507.85 207.5 506.5 208.2 507.3" fill="url(#gradient1)" fill-rule="evenodd" stroke="none"/>
  </g>
  <defs>
    <linearGradient gradientTransform="matrix(3.0E-4, -0.3259, 0.3271, 2.0E-4, 445.4, 274.0)" gradientUnits="userSpaceOnUse" id="gradient0" spreadMethod="pad" x1="-819.2" x2="819.2">
      <stop offset="0.0" stop-color="#ff9831"/>
      <stop offset="0.21568627450980393" stop-color="#f26522"/>
      <stop offset="0.6392156862745098" stop-color="#f00000"/>
      <stop offset="1.0" stop-color="#960505"/>
    </linearGradient>
    <linearGradient gradientTransform="matrix(-0.0017, -0.3319, 0.332, -0.0016, 484.0, 272.0)" gradientUnits="userSpaceOnUse" id="gradient1" spreadMethod="pad" x1="-819.2" x2="819.2">
      <stop offset="0.0" stop-color="#ff9831"/>
      <stop offset="0.21568627450980393" stop-color="#f26522"/>
      <stop offset="0.6392156862745098" stop-color="#f00000"/>
      <stop offset="1.0" stop-color="#960505"/>
    </linearGradient>
  </defs>
</svg>
