<?xml version="1.0" encoding="UTF-8" standalone="no"?>
<svg xmlns:xlink="http://www.w3.org/1999/xlink" height="158.6px" width="114.7px" xmlns="http://www.w3.org/2000/svg">
  <g transform="matrix(1.0, 0.0, 0.0, 1.0, -76.25, -383.25)">
    <path d="M165.5 539.3 Q141.9 536.35 133.15 532.65 L132.35 532.3 Q124.25 522.7 114.6 505.0 104.7 487.0 96.3 466.1 76.25 416.4 76.25 383.25 88.2 404.2 103.0 412.0 104.0 441.15 122.9 461.1 130.3 468.95 138.45 472.95 146.1 476.7 151.0 475.5 150.6 484.5 154.8 496.55 159.15 508.95 165.65 516.55 L165.5 516.65 165.75 516.65 169.4 520.8 Q179.7 532.15 190.95 541.85 L165.5 539.3" fill="url(#gradient0)" fill-rule="evenodd" stroke="none"/>
  </g>
  <defs>
    <linearGradient gradientTransform="matrix(3.0E-4, -0.3259, 0.3271, 2.0E-4, 445.4, 274.0)" gradientUnits="userSpaceOnUse" id="gradient0" spreadMethod="pad" x1="-819.2" x2="819.2">
      <stop offset="0.0" stop-color="#fee778"/>
      <stop offset="0.12156862745098039" stop-color="#ffec46"/>
      <stop offset="1.0" stop-color="#de0303"/>
    </linearGradient>
  </defs>
</svg>
