<?xml version="1.0" encoding="UTF-8" standalone="no"?>
<svg xmlns:xlink="http://www.w3.org/1999/xlink" height="404.7px" width="153.85px" xmlns="http://www.w3.org/2000/svg">
  <g transform="matrix(1.0, 0.0, 0.0, 1.0, -363.0, 11.6)">
    <path d="M504.95 -2.85 Q513.35 7.35 516.85 13.9 L515.9 30.9 Q514.55 49.6 512.65 66.95 506.8 120.4 498.4 134.9 L496.6 121.4 Q494.35 106.15 491.8 92.2 483.95 49.1 477.6 41.25 L481.0 36.0 Q497.0 10.25 497.0 -11.5 497.0 -12.5 504.95 -2.85 M447.8 237.45 Q442.55 260.6 433.95 273.5 427.0 275.15 421.8 276.8 410.0 280.55 401.3 285.95 409.6 270.1 417.55 249.25 L423.3 233.3 431.75 227.1 Q443.9 218.1 452.15 211.35 450.9 223.55 447.8 237.45 M376.8 376.65 L368.5 386.6 363.0 393.1 Q365.0 386.4 365.45 381.1 366.55 380.65 367.8 380.15 L376.8 376.65" fill="url(#gradient0)" fill-rule="evenodd" stroke="none"/>
  </g>
  <defs>
    <linearGradient gradientTransform="matrix(3.0E-4, -0.3259, 0.3271, 2.0E-4, 445.4, 274.0)" gradientUnits="userSpaceOnUse" id="gradient0" spreadMethod="pad" x1="-819.2" x2="819.2">
      <stop offset="0.0" stop-color="#ff9831"/>
      <stop offset="0.21568627450980393" stop-color="#f26522"/>
      <stop offset="0.6392156862745098" stop-color="#f00000"/>
      <stop offset="1.0" stop-color="#960505"/>
    </linearGradient>
  </defs>
</svg>
