<?xml version="1.0" encoding="UTF-8" standalone="no"?>
<svg xmlns:xlink="http://www.w3.org/1999/xlink" height="52.0px" width="504.0px" xmlns="http://www.w3.org/2000/svg">
  <g transform="matrix(1.0, 0.0, 0.0, 1.0, 3.0, 15.0)">
    <path d="M56.0 -12.0 L56.0 -3.0 498.0 -3.0 Q501.0 -3.0 501.0 0.0 L501.0 34.0 Q501.0 37.0 498.0 37.0 L0.0 37.0 Q-3.0 37.0 -3.0 34.0 L-3.0 -12.0 Q-3.0 -15.0 0.0 -15.0 L53.0 -15.0 Q56.0 -15.0 56.0 -12.0 M496.0 1.0 L2.0 1.0 Q1.0 1.0 1.0 2.0 L1.0 32.0 Q1.0 33.0 2.0 33.0 L496.0 33.0 Q497.0 33.0 497.0 32.0 L497.0 2.0 Q497.0 1.0 496.0 1.0" fill="#000000" fill-rule="evenodd" stroke="none"/>
    <path d="M55.0 -12.0 L55.0 -2.0 498.0 -2.0 Q500.0 -2.0 500.0 0.0 L500.0 34.0 Q500.0 36.0 498.0 36.0 L0.0 36.0 Q-2.0 36.0 -2.0 34.0 L-2.0 -12.0 Q-2.0 -14.0 0.0 -14.0 L53.0 -14.0 Q55.0 -14.0 55.0 -12.0 M498.0 32.0 L498.0 2.0 Q498.0 0.0 496.0 0.0 L2.0 0.0 Q0.0 0.0 0.0 2.0 L0.0 32.0 Q0.0 34.0 2.0 34.0 L496.0 34.0 Q498.0 34.0 498.0 32.0" fill="#00ff00" fill-rule="evenodd" stroke="none"/>
  </g>
</svg>
