<?xml version="1.0" encoding="UTF-8" standalone="no"?>
<svg xmlns:xlink="http://www.w3.org/1999/xlink" height="44.0px" width="448.0px" xmlns="http://www.w3.org/2000/svg">
  <g transform="matrix(1.0, 0.0, 0.0, 1.0, 3.0, 15.0)">
    <path d="M56.0 -3.0 L442.0 -3.0 Q445.0 -3.0 445.0 0.0 L445.0 26.0 Q445.0 29.0 442.0 29.0 L0.0 29.0 Q-3.0 29.0 -3.0 26.0 L-3.0 -12.0 Q-3.0 -15.0 0.0 -15.0 L53.0 -15.0 Q56.0 -15.0 56.0 -12.0 L56.0 -3.0 M441.0 2.0 Q441.0 1.0 440.0 1.0 L2.0 1.0 Q1.0 1.0 1.0 2.0 L1.0 24.0 Q1.0 25.0 2.0 25.0 L440.0 25.0 Q441.0 25.0 441.0 24.0 L441.0 2.0" fill="#000000" fill-rule="evenodd" stroke="none"/>
    <path d="M53.0 -14.0 Q55.0 -14.0 55.0 -12.0 L55.0 -2.0 442.0 -2.0 Q444.0 -2.0 444.0 0.0 L444.0 26.0 Q444.0 28.0 442.0 28.0 L0.0 28.0 Q-2.0 28.0 -2.0 26.0 L-2.0 -12.0 Q-2.0 -14.0 0.0 -14.0 L53.0 -14.0 M442.0 2.0 Q442.0 0.0 440.0 0.0 L2.0 0.0 Q0.0 0.0 0.0 2.0 L0.0 24.0 Q0.0 26.0 2.0 26.0 L440.0 26.0 Q442.0 26.0 442.0 24.0 L442.0 2.0" fill="#00ff00" fill-rule="evenodd" stroke="none"/>
  </g>
</svg>
