<?xml version="1.0" encoding="UTF-8" standalone="no"?>
<svg xmlns:xlink="http://www.w3.org/1999/xlink" height="50.55px" width="108.6px" xmlns="http://www.w3.org/2000/svg">
  <g transform="matrix(1.0, 0.0, 0.0, 1.0, 54.3, 25.6)">
    <path d="M0.9 -8.2 L2.6 -9.05 Q9.45 -15.2 17.95 -17.45 L18.0 -17.45 22.1 -18.3 Q23.1 -20.75 25.65 -21.6 L25.7 -21.6 29.5 -21.9 30.45 -21.5 32.1 -21.35 Q39.95 -28.1 47.2 -24.1 53.55 -20.6 50.85 -10.75 L51.35 -10.25 Q53.5 -8.05 53.5 -5.0 L53.5 -4.8 Q54.55 -1.95 54.25 1.65 53.75 7.5 50.15 13.35 L49.4 14.1 48.45 14.45 Q48.0 14.55 47.8 14.7 47.6 15.15 47.5 16.25 47.4 17.2 46.7 17.85 45.95 18.5 45.0 18.5 L42.4 18.5 Q36.85 23.4 29.15 24.6 20.6 25.85 13.15 21.85 L13.1 21.8 Q9.15 19.7 6.3 16.5 L5.95 16.1 3.35 16.5 2.0 16.3 0.95 15.4 0.5 13.95 Q0.25 12.75 0.0 12.75 -0.25 12.75 -0.5 13.95 L-0.9 15.4 -2.0 16.3 -3.35 16.5 -5.9 16.1 -6.25 16.5 Q-9.15 19.75 -13.1 21.85 -20.6 25.9 -29.1 24.65 -36.85 23.45 -42.35 18.5 L-45.0 18.5 Q-45.95 18.5 -46.65 17.85 -47.4 17.2 -47.45 16.25 L-47.75 14.7 -47.8 14.7 Q-48.0 14.55 -48.45 14.45 L-49.4 14.1 -50.1 13.35 Q-53.75 7.5 -54.25 1.65 -54.55 -1.95 -53.5 -4.8 L-53.5 -5.0 Q-53.5 -8.05 -51.35 -10.25 L-51.25 -10.35 Q-49.35 -12.2 -46.85 -12.45 L-45.05 -13.65 -44.1 -17.65 Q-43.0 -21.25 -40.9 -22.25 -39.05 -23.15 -35.6 -20.55 L-32.7 -18.2 Q-25.3 -19.4 -17.95 -17.45 -9.45 -15.2 -2.55 -9.05 L-0.85 -8.2 0.0 -8.15 0.9 -8.2" fill="#000000" fill-rule="evenodd" stroke="none"/>
    <path d="M29.5 -17.5 L31.7 -17.25 Q33.3 -17.5 34.5 -18.5 40.7 -23.8 45.1 -21.0 49.6 -18.1 46.5 -9.5" fill="none" stroke="url(#gradient0)" stroke-linecap="round" stroke-linejoin="round" stroke-width="3.0"/>
    <path d="M29.5 -17.5 L31.7 -17.25 Q33.3 -17.5 34.5 -18.5 40.7 -23.8 45.1 -21.0 49.6 -18.1 46.5 -9.5" fill="none" stroke="url(#gradient1)" stroke-linecap="round" stroke-linejoin="round" stroke-width="2.5"/>
    <path d="M50.0 -8.0 L44.0 -8.0 44.0 -14.0 50.0 -12.0 50.0 -8.0" fill="url(#gradient2)" fill-rule="evenodd" stroke="none"/>
    <path d="M29.0 -19.45 L29.0 -15.0 24.0 -15.0 Q24.0 -18.35 26.5 -19.25 L29.0 -19.45" fill="url(#gradient3)" fill-rule="evenodd" stroke="none"/>
    <path d="M29.0 -14.0 L29.0 -19.0 31.0 -19.0 31.0 -14.0 29.0 -14.0" fill="url(#gradient4)" fill-rule="evenodd" stroke="none"/>
    <path d="M30.0 -19.0 L30.0 -15.0 29.0 -15.0 29.0 -19.0 30.0 -19.0" fill="#000000" fill-opacity="0.2" fill-rule="evenodd" stroke="none"/>
    <path d="M2.0 -3.5 L-2.0 -3.5 -2.0 -5.5 Q-0.1 -5.2 2.0 -5.5 L2.0 -3.5" fill="#4e7823" fill-rule="evenodd" stroke="none"/>
    <path d="M0.0 -3.6 Q1.9 -3.6 2.0 -6.0 L4.0 -7.0 Q10.5 -12.9 18.6 -15.05 26.0 -17.0 33.55 -15.55 35.3 -17.25 37.1 -18.55 39.3 -20.2 40.0 -19.95 40.9 -19.6 41.75 -16.9 L42.8 -12.1 46.0 -10.0 Q52.35 -6.15 51.75 1.45 51.3 6.75 48.0 12.0 46.35 12.3 45.7 13.3 45.2 14.05 45.0 16.0 L10.0 16.0 10.0 13.0 7.0 13.45 Q5.2 11.0 4.0 8.0 3.45 6.6 1.95 5.7 0.8 5.0 0.0 5.0 -0.8 5.0 -1.95 5.7 -3.45 6.6 -4.0 8.0 -5.2 11.0 -7.0 13.45 L-10.0 13.0 -10.0 16.0 -45.0 16.0 Q-45.2 14.05 -45.7 13.3 -46.35 12.3 -48.0 12.0 -51.3 6.75 -51.75 1.45 -52.35 -6.15 -46.0 -10.0 L-42.8 -12.1 -41.75 -16.9 Q-40.9 -19.6 -40.0 -19.95 -39.3 -20.2 -37.1 -18.55 -35.3 -17.25 -33.55 -15.55 -26.0 -17.0 -18.6 -15.05 -10.5 -12.9 -4.0 -7.0 L-2.0 -6.0 Q-1.9 -3.6 0.0 -3.6" fill="url(#gradient5)" fill-rule="evenodd" stroke="none"/>
    <path d="M1.95 5.7 Q3.45 6.6 4.0 8.0 5.2 11.0 7.0 13.45 L3.0 14.0 Q2.95 12.65 2.1 11.4 1.15 10.0 0.0 10.0 -1.15 10.0 -2.1 11.4 -2.95 12.65 -3.0 14.0 L-7.0 13.45 Q-5.2 11.0 -4.0 8.0 -3.45 6.6 -1.95 5.7 -0.8 5.0 0.0 5.0 0.8 5.0 1.95 5.7" fill="url(#gradient6)" fill-rule="evenodd" stroke="none"/>
    <path d="M-3.4 9.9 Q-3.9 10.15 -4.05 9.5 L-4.2 8.5 -4.0 8.0 -3.15 6.7 -3.0 9.0 Q-2.9 9.7 -3.4 9.9" fill="url(#gradient7)" fill-rule="evenodd" stroke="none"/>
    <path d="M4.05 9.45 Q3.9 10.1 3.4 9.85 2.9 9.65 3.0 8.95 L3.15 6.65 4.0 7.95 4.2 8.45 4.05 9.45" fill="url(#gradient8)" fill-rule="evenodd" stroke="none"/>
    <path d="M4.0 -3.0 Q4.15 -4.25 5.75 -4.05 L6.0 -4.0 4.2 8.5 4.0 8.0 3.15 6.7 3.85 -1.8 4.0 -3.0 M-3.85 -1.8 L-3.15 6.7 -4.0 8.0 -4.2 8.5 -6.0 -4.0 -5.75 -4.05 Q-4.15 -4.25 -4.0 -3.0 L-3.85 -1.8" fill="#3e5a3a" fill-rule="evenodd" stroke="none"/>
    <path d="M49.05 -1.0 L49.8 -1.7 Q50.05 -0.9 49.75 1.45 49.45 3.8 48.9 5.0 L47.05 5.0 49.05 -1.0 M-49.0 -1.0 L-47.0 5.0 -49.0 5.0 -49.75 1.4 Q-50.0 -0.9 -49.75 -1.7 L-49.0 -1.0" fill="#223421" fill-rule="evenodd" stroke="none"/>
    <path d="M49.25 4.0 L48.9 5.0 47.05 5.0 47.05 4.0 49.25 4.0 M-49.25 4.0 L-47.0 4.0 -47.0 5.0 -49.0 5.0 -49.25 4.0" fill="#6daa31" fill-rule="evenodd" stroke="none"/>
    <path d="M4.0 10.0 Q2.4 6.0 0.0 6.0 -1.2 6.0 -2.3 7.2 -3.3 8.25 -4.0 10.0 -5.55 13.95 -8.15 16.85 L-10.0 15.0 -10.0 5.0 10.0 5.0 10.0 15.0 8.15 16.85 Q5.55 13.95 4.0 10.0 M50.5 -8.9 Q52.0 -7.25 52.0 -4.95 52.0 -2.5 50.25 -0.75 L47.95 0.7 Q47.95 10.15 42.9 16.0 L36.9 16.0 36.9 -2.0 42.0 -1.5 50.5 -8.9 M-50.5 -8.95 L-42.05 -1.55 -37.0 -2.0 -37.0 16.0 -43.0 16.0 Q-48.05 10.15 -48.05 0.7 -49.25 0.25 -50.25 -0.75 -52.0 -2.5 -52.0 -5.0 -52.0 -7.3 -50.5 -8.95" fill="#000000" fill-opacity="0.2" fill-rule="evenodd" stroke="none"/>
    <path d="M39.95 -10.0 L33.95 -12.0 Q36.05 -15.0 38.95 -17.0 40.3 -13.05 39.95 -10.0" fill="url(#gradient9)" fill-rule="evenodd" stroke="none"/>
    <path d="M-39.0 -17.0 Q-36.1 -15.0 -34.0 -12.0 L-40.0 -10.0 Q-40.35 -13.05 -39.0 -17.0" fill="url(#gradient10)" fill-rule="evenodd" stroke="none"/>
    <path d="M34.8 -11.6 Q36.3 -13.75 38.35 -15.2 39.3 -12.35 39.05 -10.2 L34.8 -11.6" fill="url(#gradient11)" fill-rule="evenodd" stroke="none"/>
    <path d="M-39.05 -10.15 Q-39.3 -12.3 -38.35 -15.15 -36.3 -13.7 -34.8 -11.55 L-39.05 -10.15" fill="url(#gradient12)" fill-rule="evenodd" stroke="none"/>
    <path d="M10.0 -2.0 L6.85 -5.15 Q13.7 -11.9 22.85 -13.25 33.35 -14.8 43.0 -9.0 44.3 -10.0 46.0 -10.0 48.05 -10.0 49.55 -8.55 51.0 -7.05 51.0 -5.0 51.0 -2.95 49.55 -1.5 L49.0 -1.0 Q48.1 9.0 42.1 15.3 36.7 20.9 28.75 22.1 21.05 23.25 14.3 19.6 10.7 17.75 8.15 14.85 L10.0 13.0 10.0 -2.0" fill="url(#gradient13)" fill-rule="evenodd" stroke="none"/>
    <path d="M-49.55 -1.5 Q-51.0 -2.95 -51.0 -5.0 -51.0 -7.05 -49.55 -8.55 -48.05 -10.0 -46.0 -10.0 -44.3 -10.0 -43.0 -9.0 -33.35 -14.8 -22.85 -13.25 -13.7 -11.9 -6.85 -5.15 L-10.0 -2.0 -10.0 13.0 -8.15 14.85 Q-10.7 17.75 -14.3 19.6 -21.05 23.25 -28.75 22.1 -36.7 20.9 -42.1 15.3 -48.1 9.0 -49.0 -1.0 L-49.55 -1.5" fill="url(#gradient14)" fill-rule="evenodd" stroke="none"/>
    <path d="M0.0 0.0 Q2.7 0.0 4.0 -2.0 L6.85 -5.15 10.0 -2.0 10.0 13.0 8.15 14.85 Q5.55 11.95 4.0 8.0 3.45 6.6 1.95 5.7 0.8 5.0 0.0 5.0 L0.0 0.0" fill="url(#gradient15)" fill-rule="evenodd" stroke="none"/>
    <path d="M0.0 0.0 L0.0 5.0 Q-0.8 5.0 -1.95 5.7 -3.45 6.6 -4.0 8.0 -5.55 11.95 -8.15 14.85 L-10.0 13.0 -10.0 -2.0 -6.85 -5.15 -4.0 -2.0 Q-2.7 0.0 0.0 0.0" fill="url(#gradient16)" fill-rule="evenodd" stroke="none"/>
    <path d="M-10.0 -2.0 L-10.0 13.0 -9.65 13.35 Q-14.95 19.95 -23.7 20.05 -32.6 20.15 -38.35 13.35 -40.55 10.75 -41.5 5.95 -42.25 1.55 -41.45 -1.15 -40.2 -5.55 -35.65 -8.15 -31.4 -10.75 -25.85 -10.85 -20.1 -11.0 -15.1 -8.5 -11.3 -6.55 -8.65 -3.3 L-10.0 -2.0" fill="url(#gradient17)" fill-rule="evenodd" stroke="none"/>
    <path d="M10.0 -2.0 L8.65 -3.3 Q11.3 -6.55 15.1 -8.5 20.1 -11.0 25.9 -10.85 31.45 -10.75 35.7 -8.15 40.25 -5.55 41.5 -1.15 42.3 1.55 41.55 5.95 40.6 10.75 38.4 13.35 32.65 20.15 23.75 20.05 14.95 19.95 9.65 13.35 L10.0 13.0 10.0 -2.0" fill="url(#gradient18)" fill-rule="evenodd" stroke="none"/>
    <path d="M-8.65 -3.3 L-6.55 -0.25 Q-5.2 2.2 -6.2 6.35 -7.15 10.3 -9.6 13.35 L-9.6 13.3 -9.65 13.35 -10.0 13.0 -10.0 -2.0 -8.65 -3.3" fill="url(#gradient19)" fill-rule="evenodd" stroke="none"/>
    <path d="M8.65 -3.3 L10.0 -2.0 10.0 12.95 9.65 13.3 9.6 13.25 9.6 13.3 Q7.15 10.25 6.2 6.35 5.2 2.2 6.55 -0.25 L8.65 -3.3" fill="url(#gradient20)" fill-rule="evenodd" stroke="none"/>
    <path d="M7.0 -5.0 L9.5 -2.5 M10.5 12.5 L8.3 14.75 M-7.1 -4.9 L-9.5 -2.5 M-10.5 12.5 L-8.3 14.75" fill="none" stroke="#3c3c3c" stroke-linecap="square" stroke-linejoin="round" stroke-width="0.5"/>
    <path d="M25.9 -10.35 Q31.3 -10.25 35.45 -7.75 39.8 -5.2 41.05 -1.0 41.8 1.6 41.05 5.85 40.15 10.5 38.05 13.0 32.4 19.65 23.75 19.55 15.15 19.45 10.0 13.0 7.6 10.05 6.7 6.2 5.75 2.3 7.0 0.0 9.95 -5.3 15.35 -8.05 20.2 -10.5 25.9 -10.35" fill="url(#gradient21)" fill-rule="evenodd" stroke="none"/>
    <path d="M-15.35 -8.05 Q-9.95 -5.3 -7.0 0.0 -5.75 2.3 -6.7 6.2 -7.6 10.05 -10.0 13.0 -15.15 19.45 -23.7 19.55 -32.35 19.65 -38.0 13.0 -40.1 10.5 -41.0 5.85 -41.75 1.6 -41.0 -1.0 -39.75 -5.2 -35.4 -7.75 -31.25 -10.25 -25.85 -10.35 -20.2 -10.5 -15.35 -8.05" fill="url(#gradient22)" fill-rule="evenodd" stroke="none"/>
    <path d="M41.3 4.0 L41.05 5.85 Q40.15 10.5 38.05 13.05 32.4 19.7 23.75 19.6 15.15 19.5 10.0 13.05 7.6 10.05 6.7 6.2 L6.3 4.0 Q24.5 -1.95 41.3 4.0" fill="url(#gradient23)" fill-rule="evenodd" stroke="none"/>
    <path d="M-6.7 6.2 Q-7.6 10.05 -10.0 13.0 -15.15 19.45 -23.7 19.55 -32.35 19.65 -38.0 13.0 -40.1 10.5 -41.0 5.85 L-41.25 4.0 Q-24.45 -1.95 -6.3 4.0 L-6.7 6.2" fill="url(#gradient24)" fill-rule="evenodd" stroke="none"/>
    <path d="M19.05 -11.95 Q23.2 -12.8 25.5 -10.5 27.85 -8.15 27.0 -4.0 26.2 0.2 22.7 3.7 19.2 7.2 15.05 7.95 10.9 8.8 8.55 6.45 6.25 4.15 7.1 0.0 7.85 -4.15 11.35 -7.65 14.85 -11.15 19.05 -11.95" fill="url(#gradient25)" fill-rule="evenodd" stroke="none"/>
    <path d="M-29.95 -11.95 Q-25.8 -12.8 -23.5 -10.5 -21.15 -8.15 -22.0 -4.0 -22.8 0.2 -26.3 3.7 -29.8 7.2 -33.95 7.95 -38.1 8.8 -40.45 6.45 -42.75 4.15 -41.9 0.0 -41.15 -4.15 -37.65 -7.65 -34.15 -11.15 -29.95 -11.95" fill="url(#gradient26)" fill-rule="evenodd" stroke="none"/>
    <path d="M47.75 -3.25 Q47.0 -2.5 46.0 -2.5 44.95 -2.5 44.25 -3.25 43.5 -3.95 43.5 -5.0 43.5 -6.0 44.25 -6.75 44.95 -7.5 46.0 -7.5 47.0 -7.5 47.75 -6.75 48.5 -6.0 48.5 -5.0 48.5 -3.95 47.75 -3.25" fill="url(#gradient27)" fill-rule="evenodd" stroke="none"/>
    <path d="M-47.75 -3.25 Q-48.5 -3.95 -48.5 -5.0 -48.5 -6.0 -47.75 -6.75 -47.0 -7.5 -46.0 -7.5 -44.95 -7.5 -44.25 -6.75 -43.5 -6.0 -43.5 -5.0 -43.5 -3.95 -44.25 -3.25 -44.95 -2.5 -46.0 -2.5 -47.0 -2.5 -47.75 -3.25" fill="url(#gradient28)" fill-rule="evenodd" stroke="none"/>
    <path d="M46.35 -6.9 Q47.05 -6.9 47.55 -6.35 48.1 -5.85 48.1 -5.15 48.1 -4.4 47.55 -3.9 47.05 -3.4 46.35 -3.4 45.6 -3.4 45.1 -3.9 44.6 -4.4 44.6 -5.15 44.6 -5.85 45.1 -6.35 45.6 -6.9 46.35 -6.9 M-44.55 -5.15 Q-44.55 -4.4 -45.05 -3.9 -45.55 -3.4 -46.3 -3.4 -47.0 -3.4 -47.5 -3.9 -48.05 -4.4 -48.05 -5.15 -48.05 -5.85 -47.5 -6.35 -47.0 -6.9 -46.3 -6.9 -45.55 -6.9 -45.05 -6.35 -44.55 -5.85 -44.55 -5.15" fill="#d22462" fill-rule="evenodd" stroke="none"/>
  </g>
  <defs>
    <linearGradient gradientTransform="matrix(0.006, -0.0104, 0.0081, 0.0047, 38.6, -15.75)" gradientUnits="userSpaceOnUse" id="gradient0" spreadMethod="pad" x1="-819.2" x2="819.2">
      <stop offset="0.396078431372549" stop-color="#150b35" stop-opacity="0.5019608"/>
      <stop offset="0.9921568627450981" stop-color="#ffffff" stop-opacity="0.5019608"/>
    </linearGradient>
    <radialGradient cx="0" cy="0" fx="-1347.2" fy="0" gradientTransform="matrix(-0.0022, 0.0113, -0.0279, -0.0056, 42.15, -19.35)" gradientUnits="userSpaceOnUse" id="gradient1" r="819.2" spreadMethod="pad">
      <stop offset="0.08235294117647059" stop-color="#1eee95"/>
      <stop offset="0.1803921568627451" stop-color="#0fb762"/>
      <stop offset="0.5607843137254902" stop-color="#118a6b"/>
    </radialGradient>
    <linearGradient gradientTransform="matrix(5.0E-4, -0.0024, 0.0036, 8.0E-4, 47.0, -11.0)" gradientUnits="userSpaceOnUse" id="gradient2" spreadMethod="pad" x1="-819.2" x2="819.2">
      <stop offset="0.6784313725490196" stop-color="#000000" stop-opacity="0.2509804"/>
      <stop offset="1.0" stop-color="#000000" stop-opacity="0.0"/>
    </linearGradient>
    <radialGradient cx="0" cy="0" gradientTransform="matrix(0.0016, 0.003, -0.0044, 0.0023, 27.4, -18.3)" gradientUnits="userSpaceOnUse" id="gradient3" r="819.2" spreadMethod="pad">
      <stop offset="0.00784313725490196" stop-color="#d3c7c7"/>
      <stop offset="0.24705882352941178" stop-color="#ac9999"/>
      <stop offset="0.6392156862745098" stop-color="#7c6d6d"/>
      <stop offset="0.9921568627450981" stop-color="#5f4b4b"/>
    </radialGradient>
    <linearGradient gradientTransform="matrix(0.0, -0.0038, 0.0037, 0.0, 29.5, -17.0)" gradientUnits="userSpaceOnUse" id="gradient4" spreadMethod="pad" x1="-819.2" x2="819.2">
      <stop offset="0.21176470588235294" stop-color="#464340"/>
      <stop offset="0.5529411764705883" stop-color="#877c69"/>
      <stop offset="0.9921568627450981" stop-color="#c2bfbc"/>
    </linearGradient>
    <radialGradient cx="0" cy="0" gradientTransform="matrix(0.0, -0.0381, 0.0706, 0.0, 0.0, 0.0)" gradientUnits="userSpaceOnUse" id="gradient5" r="819.2" spreadMethod="pad">
      <stop offset="0.0" stop-color="#83b733"/>
      <stop offset="0.3411764705882353" stop-color="#699c4e"/>
      <stop offset="0.6549019607843137" stop-color="#4b6530"/>
      <stop offset="0.8274509803921568" stop-color="#346125"/>
      <stop offset="0.9686274509803922" stop-color="#58a33f"/>
    </radialGradient>
    <radialGradient cx="0" cy="0" gradientTransform="matrix(0.0, -0.0146, 0.0162, 0.0, 0.0, 10.0)" gradientUnits="userSpaceOnUse" id="gradient6" r="819.2" spreadMethod="pad">
      <stop offset="0.0" stop-color="#515151"/>
      <stop offset="0.23921568627450981" stop-color="#434343"/>
      <stop offset="0.7137254901960784" stop-color="#262626"/>
      <stop offset="1.0" stop-color="#000000"/>
    </radialGradient>
    <linearGradient gradientTransform="matrix(7.0E-4, 0.0, 0.0, 0.002, -3.6, 8.3)" gradientUnits="userSpaceOnUse" id="gradient7" spreadMethod="pad" x1="-819.2" x2="819.2">
      <stop offset="0.0" stop-color="#515151"/>
      <stop offset="0.3254901960784314" stop-color="#434343"/>
      <stop offset="0.7137254901960784" stop-color="#262626"/>
      <stop offset="1.0" stop-color="#000000"/>
    </linearGradient>
    <linearGradient gradientTransform="matrix(-7.0E-4, 0.0, 0.0, 0.002, 3.6, 8.25)" gradientUnits="userSpaceOnUse" id="gradient8" spreadMethod="pad" x1="-819.2" x2="819.2">
      <stop offset="0.0" stop-color="#515151"/>
      <stop offset="0.3254901960784314" stop-color="#434343"/>
      <stop offset="0.7137254901960784" stop-color="#262626"/>
      <stop offset="1.0" stop-color="#000000"/>
    </linearGradient>
    <linearGradient gradientTransform="matrix(-0.0035, -0.0012, -0.0014, 0.004, 37.6, -13.3)" gradientUnits="userSpaceOnUse" id="gradient9" spreadMethod="pad" x1="-819.2" x2="819.2">
      <stop offset="0.0" stop-color="#6daa31"/>
      <stop offset="0.47058823529411764" stop-color="#4f8525"/>
      <stop offset="0.5019607843137255" stop-color="#1c3313"/>
      <stop offset="0.9294117647058824" stop-color="#213e17"/>
    </linearGradient>
    <linearGradient gradientTransform="matrix(0.0035, -0.0012, 0.0014, 0.004, -37.65, -13.3)" gradientUnits="userSpaceOnUse" id="gradient10" spreadMethod="pad" x1="-819.2" x2="819.2">
      <stop offset="0.00392156862745098" stop-color="#6daa31"/>
      <stop offset="0.49019607843137253" stop-color="#4f8525"/>
      <stop offset="0.4980392156862745" stop-color="#1c3313"/>
      <stop offset="0.9294117647058824" stop-color="#213e17"/>
    </linearGradient>
    <linearGradient gradientTransform="matrix(-0.0053, -0.0014, -8.0E-4, 0.003, 36.95, -12.7)" gradientUnits="userSpaceOnUse" id="gradient11" spreadMethod="pad" x1="-819.2" x2="819.2">
      <stop offset="0.0" stop-color="#000000"/>
      <stop offset="1.0" stop-color="#000000"/>
    </linearGradient>
    <linearGradient gradientTransform="matrix(0.0053, -0.0014, 8.0E-4, 0.0029, -36.95, -12.65)" gradientUnits="userSpaceOnUse" id="gradient12" spreadMethod="pad" x1="-819.2" x2="819.2">
      <stop offset="0.00392156862745098" stop-color="#000000"/>
      <stop offset="1.0" stop-color="#000000"/>
    </linearGradient>
    <radialGradient cx="0" cy="0" gradientTransform="matrix(0.0447, 0.0, 0.0, 0.0447, 20.35, -9.5)" gradientUnits="userSpaceOnUse" id="gradient13" r="819.2" spreadMethod="pad">
      <stop offset="0.09803921568627451" stop-color="#dcdada"/>
      <stop offset="0.16470588235294117" stop-color="#c2bcbc"/>
      <stop offset="0.49019607843137253" stop-color="#a8a0a0"/>
      <stop offset="0.7686274509803922" stop-color="#655a5a"/>
      <stop offset="1.0" stop-color="#8f8585"/>
    </radialGradient>
    <radialGradient cx="0" cy="0" gradientTransform="matrix(-0.0447, 0.0, 0.0, 0.0447, -20.35, -9.5)" gradientUnits="userSpaceOnUse" id="gradient14" r="819.2" spreadMethod="pad">
      <stop offset="0.09803921568627451" stop-color="#dcdada"/>
      <stop offset="0.16470588235294117" stop-color="#c2bcbc"/>
      <stop offset="0.49019607843137253" stop-color="#a8a0a0"/>
      <stop offset="0.7686274509803922" stop-color="#655a5a"/>
      <stop offset="1.0" stop-color="#8f8585"/>
    </radialGradient>
    <radialGradient cx="0" cy="0" gradientTransform="matrix(0.0135, 0.0019, -0.0089, 0.062, 8.5, -1.55)" gradientUnits="userSpaceOnUse" id="gradient15" r="819.2" spreadMethod="pad">
      <stop offset="0.06666666666666667" stop-color="#c6c6c6"/>
      <stop offset="0.14901960784313725" stop-color="#a6a6a6"/>
      <stop offset="0.30980392156862746" stop-color="#6a6a6a"/>
      <stop offset="0.47058823529411764" stop-color="#464646"/>
      <stop offset="0.6470588235294118" stop-color="#666666"/>
    </radialGradient>
    <radialGradient cx="0" cy="0" gradientTransform="matrix(-0.0135, 0.0019, 0.0089, 0.062, -8.5, -1.55)" gradientUnits="userSpaceOnUse" id="gradient16" r="819.2" spreadMethod="pad">
      <stop offset="0.06666666666666667" stop-color="#c6c6c6"/>
      <stop offset="0.14901960784313725" stop-color="#a6a6a6"/>
      <stop offset="0.30980392156862746" stop-color="#6a6a6a"/>
      <stop offset="0.47058823529411764" stop-color="#464646"/>
      <stop offset="0.6470588235294118" stop-color="#666666"/>
    </radialGradient>
    <linearGradient gradientTransform="matrix(-2.0E-4, -0.0178, 0.0182, -2.0E-4, -23.85, 4.6)" gradientUnits="userSpaceOnUse" id="gradient17" spreadMethod="pad" x1="-819.2" x2="819.2">
      <stop offset="0.0" stop-color="#92926d"/>
      <stop offset="0.984313725490196" stop-color="#49463d"/>
    </linearGradient>
    <linearGradient gradientTransform="matrix(2.0E-4, -0.0178, -0.0183, -2.0E-4, 23.9, 4.6)" gradientUnits="userSpaceOnUse" id="gradient18" spreadMethod="pad" x1="-819.2" x2="819.2">
      <stop offset="0.0" stop-color="#92926d"/>
      <stop offset="0.984313725490196" stop-color="#49463d"/>
    </linearGradient>
    <linearGradient gradientTransform="matrix(-2.0E-4, -0.0178, 0.0182, -2.0E-4, -23.85, 4.6)" gradientUnits="userSpaceOnUse" id="gradient19" spreadMethod="pad" x1="-819.2" x2="819.2">
      <stop offset="0.0" stop-color="#636363"/>
      <stop offset="0.9882352941176471" stop-color="#313131"/>
    </linearGradient>
    <linearGradient gradientTransform="matrix(2.0E-4, -0.0178, -0.0182, -2.0E-4, 23.85, 4.6)" gradientUnits="userSpaceOnUse" id="gradient20" spreadMethod="pad" x1="-819.2" x2="819.2">
      <stop offset="0.0" stop-color="#636363"/>
      <stop offset="0.9882352941176471" stop-color="#313131"/>
    </linearGradient>
    <radialGradient cx="0" cy="0" gradientTransform="matrix(0.0533, 0.0, 0.0, 0.0346, 23.85, 19.6)" gradientUnits="userSpaceOnUse" id="gradient21" r="819.2" spreadMethod="pad">
      <stop offset="0.0" stop-color="#c85722"/>
      <stop offset="0.1411764705882353" stop-color="#b3591d"/>
      <stop offset="0.29411764705882354" stop-color="#ab541b"/>
      <stop offset="0.5176470588235295" stop-color="#d28317"/>
      <stop offset="0.7294117647058823" stop-color="#e19e24"/>
      <stop offset="0.9490196078431372" stop-color="#e19e24"/>
      <stop offset="1.0" stop-color="#eaaa6a"/>
    </radialGradient>
    <radialGradient cx="0" cy="0" gradientTransform="matrix(0.053, 0.0, 0.0, 0.0354, -24.0, 20.0)" gradientUnits="userSpaceOnUse" id="gradient22" r="819.2" spreadMethod="pad">
      <stop offset="0.0" stop-color="#c85722"/>
      <stop offset="0.13725490196078433" stop-color="#b3591d"/>
      <stop offset="0.2784313725490196" stop-color="#ab541b"/>
      <stop offset="0.5058823529411764" stop-color="#d28317"/>
      <stop offset="0.7294117647058823" stop-color="#e19e24"/>
      <stop offset="0.9411764705882353" stop-color="#e19e24"/>
      <stop offset="1.0" stop-color="#eaaa6a"/>
    </radialGradient>
    <radialGradient cx="0" cy="0" gradientTransform="matrix(0.0577, 0.0, 0.0, 0.0287, 24.85, 19.5)" gradientUnits="userSpaceOnUse" id="gradient23" r="819.2" spreadMethod="pad">
      <stop offset="0.14901960784313725" stop-color="#f0d88e" stop-opacity="0.0"/>
      <stop offset="0.6039215686274509" stop-color="#ffffff" stop-opacity="0.16078432"/>
      <stop offset="0.6235294117647059" stop-color="#ffffff" stop-opacity="0.0"/>
    </radialGradient>
    <radialGradient cx="0" cy="0" gradientTransform="matrix(0.0563, 0.0, 0.0, 0.0319, -24.0, 19.55)" gradientUnits="userSpaceOnUse" id="gradient24" r="819.2" spreadMethod="pad">
      <stop offset="0.16470588235294117" stop-color="#f0d88e" stop-opacity="0.0"/>
      <stop offset="0.6078431372549019" stop-color="#ffffff" stop-opacity="0.101960786"/>
      <stop offset="0.6274509803921569" stop-color="#ffffff" stop-opacity="0.0"/>
    </radialGradient>
    <radialGradient cx="0" cy="0" gradientTransform="matrix(0.0113, 0.0079, -0.0097, 0.0139, 17.05, -2.0)" gradientUnits="userSpaceOnUse" id="gradient25" r="819.2" spreadMethod="pad">
      <stop offset="0.25882352941176473" stop-color="#ffffff"/>
      <stop offset="0.5176470588235295" stop-color="#e8c55e" stop-opacity="0.0"/>
    </radialGradient>
    <radialGradient cx="0" cy="0" gradientTransform="matrix(0.0113, 0.0079, -0.0097, 0.0139, -31.95, -2.0)" gradientUnits="userSpaceOnUse" id="gradient26" r="819.2" spreadMethod="pad">
      <stop offset="0.25098039215686274" stop-color="#ffffff"/>
      <stop offset="0.5098039215686274" stop-color="#e8c55e" stop-opacity="0.0"/>
    </radialGradient>
    <radialGradient cx="0" cy="0" gradientTransform="matrix(0.0059, 0.0, 0.0, 0.0059, 45.85, -2.7)" gradientUnits="userSpaceOnUse" id="gradient27" r="819.2" spreadMethod="pad">
      <stop offset="0.01568627450980392" stop-color="#bbb5b5"/>
      <stop offset="0.16862745098039217" stop-color="#a79e9e"/>
      <stop offset="0.6627450980392157" stop-color="#2e2727"/>
    </radialGradient>
    <radialGradient cx="0" cy="0" gradientTransform="matrix(0.0059, 0.0, 0.0, 0.0059, -46.0, -2.7)" gradientUnits="userSpaceOnUse" id="gradient28" r="819.2" spreadMethod="pad">
      <stop offset="0.0" stop-color="#bbb5b5"/>
      <stop offset="0.23137254901960785" stop-color="#a79e9e"/>
      <stop offset="0.7137254901960784" stop-color="#2e2727"/>
    </radialGradient>
  </defs>
</svg>
