<?xml version="1.0" encoding="UTF-8" standalone="no"?>
<svg xmlns:xlink="http://www.w3.org/1999/xlink" height="6.0px" width="6.35px" xmlns="http://www.w3.org/2000/svg">
  <g transform="matrix(1.0, 0.0, 0.0, 1.0, 3.2, 3.0)">
    <path d="M0.1 -2.9 L0.95 -1.0 3.05 -0.75 3.1 -0.7 3.15 -0.65 3.1 -0.55 1.6 0.85 2.0 2.8 1.95 2.9 1.9 2.95 1.8 2.9 0.0 2.0 -1.8 2.95 -1.85 3.0 -1.95 2.95 -1.95 2.85 -1.6 0.85 -3.1 -0.55 -3.15 -0.65 -3.15 -0.7 -3.05 -0.75 -1.05 -1.0 -0.15 -2.9 -0.1 -2.95 0.0 -2.95 0.1 -2.9" fill="url(#gradient0)" fill-rule="evenodd" stroke="none"/>
    <path d="M0.85 -0.75 L2.7 -0.55 1.35 0.7 1.35 0.8 1.35 0.85 1.7 2.6 0.05 1.75 0.0 1.75 -0.05 1.75 -1.65 2.65 -1.35 0.85 -1.35 0.75 -1.4 0.7 -2.75 -0.55 -0.95 -0.75 -0.85 -0.8 -0.8 -0.85 -0.05 -2.5 0.75 -0.85 0.8 -0.8 0.85 -0.75" fill="url(#gradient1)" fill-rule="evenodd" stroke="none"/>
  </g>
  <defs>
    <linearGradient gradientTransform="matrix(0.0036, -0.0015, 0.0014, 0.0034, -0.1, -0.3)" gradientUnits="userSpaceOnUse" id="gradient0" spreadMethod="pad" x1="-819.2" x2="819.2">
      <stop offset="0.28627450980392155" stop-color="#dabf72"/>
      <stop offset="0.7686274509803922" stop-color="#6d591f"/>
    </linearGradient>
    <linearGradient gradientTransform="matrix(0.0033, -0.0017, 0.0016, 0.0031, -0.05, 0.0)" gradientUnits="userSpaceOnUse" id="gradient1" spreadMethod="pad" x1="-819.2" x2="819.2">
      <stop offset="0.09019607843137255" stop-color="#7e5201"/>
      <stop offset="0.5647058823529412" stop-color="#b67601"/>
      <stop offset="0.7764705882352941" stop-color="#b67601"/>
      <stop offset="1.0" stop-color="#8b5a01"/>
    </linearGradient>
  </defs>
</svg>
