<?xml version="1.0" encoding="UTF-8" standalone="no"?>
<svg xmlns:xlink="http://www.w3.org/1999/xlink" height="6.05px" width="6.0px" xmlns="http://www.w3.org/2000/svg">
  <g transform="matrix(1.0, 0.0, 0.0, 1.0, 3.0, 3.05)">
    <path d="M0.0 -2.05 Q-0.8 -2.05 -1.4 -1.45 L-1.45 -1.45 Q-2.0 -0.85 -2.0 -0.05 -2.0 0.8 -1.45 1.4 L-1.4 1.45 Q-0.8 2.0 0.0 2.0 0.8 2.0 1.4 1.45 L1.4 1.4 Q2.0 0.8 2.0 -0.05 2.0 -0.85 1.4 -1.45 0.8 -2.05 0.0 -2.05 M-2.15 -2.15 Q-1.25 -3.05 0.0 -3.05 1.25 -3.05 2.1 -2.15 3.0 -1.25 3.0 -0.05 3.0 1.2 2.1 2.1 1.25 3.0 0.0 3.0 -1.25 3.0 -2.15 2.1 -3.0 1.2 -3.0 -0.05 -3.0 -1.25 -2.15 -2.15" fill="#35fbfa" fill-rule="evenodd" stroke="none"/>
    <path d="M0.0 -2.05 Q0.8 -2.05 1.4 -1.45 2.0 -0.85 2.0 -0.05 2.0 0.8 1.4 1.4 L1.4 1.45 Q0.8 2.0 0.0 2.0 -0.8 2.0 -1.4 1.45 L-1.45 1.4 Q-2.0 0.8 -2.0 -0.05 -2.0 -0.85 -1.45 -1.45 L-1.4 -1.45 Q-0.8 -2.05 0.0 -2.05" fill="#ffffff" fill-rule="evenodd" stroke="none"/>
  </g>
</svg>
