<?xml version="1.0" encoding="UTF-8" standalone="no"?>
<svg xmlns:xlink="http://www.w3.org/1999/xlink" height="77.0px" width="61.0px" xmlns="http://www.w3.org/2000/svg">
  <g transform="matrix(1.0, 0.0, 0.0, 1.0, 30.5, 38.5)">
    <path d="M0.8 -38.35 L2.0 -37.5 29.8 -1.75 30.45 -0.65 30.5 -0.2 30.5 0.2 30.45 0.65 30.35 0.85 29.8 1.75 2.0 37.55 0.8 38.4 0.75 38.4 Q0.0 38.6 -0.7 38.4 L-0.8 38.4 -1.95 37.55 -29.8 1.75 -30.4 0.7 -30.5 0.2 -30.5 -0.2 -30.45 -0.55 -30.35 -0.8 -29.8 -1.75 -1.95 -37.5 -0.8 -38.35 -0.7 -38.4 Q0.0 -38.6 0.75 -38.4 L0.8 -38.35" fill="#000000" fill-rule="evenodd" stroke="none"/>
    <path d="M-28.0 0.0 L0.0 -36.0 0.0 0.0 -28.0 0.0" fill="url(#gradient0)" fill-rule="evenodd" stroke="none"/>
    <path d="M0.0 36.0 L-28.0 0.0 0.0 0.0 0.0 36.0" fill="url(#gradient1)" fill-rule="evenodd" stroke="none"/>
    <path d="M28.0 0.0 L0.0 36.0 0.0 0.0 28.0 0.0" fill="url(#gradient2)" fill-rule="evenodd" stroke="none"/>
    <path d="M28.0 0.0 L0.0 0.0 0.0 -36.0 28.0 0.0" fill="url(#gradient3)" fill-rule="evenodd" stroke="none"/>
    <path d="M0.0 -21.0 L0.0 0.0 -16.0 0.0 0.0 -21.0" fill="url(#gradient4)" fill-rule="evenodd" stroke="none"/>
    <path d="M0.0 21.0 L-16.0 0.0 0.0 0.0 0.0 21.0" fill="url(#gradient5)" fill-rule="evenodd" stroke="none"/>
    <path d="M0.0 0.0 L16.0 0.0 0.0 21.0 0.0 0.0" fill="url(#gradient6)" fill-rule="evenodd" stroke="none"/>
    <path d="M16.0 0.0 L0.0 0.0 0.0 -21.0 16.0 0.0" fill="url(#gradient7)" fill-rule="evenodd" stroke="none"/>
    <path d="M0.0 -17.0 L0.0 0.0 -13.0 0.0 0.0 -17.0" fill="url(#gradient8)" fill-rule="evenodd" stroke="none"/>
    <path d="M0.0 17.0 L-13.0 0.0 0.0 0.0 0.0 17.0" fill="url(#gradient9)" fill-rule="evenodd" stroke="none"/>
    <path d="M13.0 0.0 L0.0 17.0 0.0 0.0 13.0 0.0" fill="url(#gradient10)" fill-rule="evenodd" stroke="none"/>
    <path d="M13.0 0.0 L0.0 0.0 0.0 -17.0 13.0 0.0" fill="url(#gradient11)" fill-rule="evenodd" stroke="none"/>
  </g>
  <defs>
    <linearGradient gradientTransform="matrix(0.0192, -0.0198, 0.0157, 0.0153, -14.0, -18.0)" gradientUnits="userSpaceOnUse" id="gradient0" spreadMethod="pad" x1="-819.2" x2="819.2">
      <stop offset="0.0" stop-color="#60ef50"/>
      <stop offset="0.4392156862745098" stop-color="#33b823"/>
      <stop offset="1.0" stop-color="#0e3b04"/>
    </linearGradient>
    <linearGradient gradientTransform="matrix(0.0195, 0.0202, -0.0158, 0.0153, -11.15, 15.9)" gradientUnits="userSpaceOnUse" id="gradient1" spreadMethod="pad" x1="-819.2" x2="819.2">
      <stop offset="0.0" stop-color="#0e3c05"/>
      <stop offset="0.9921568627450981" stop-color="#248d23"/>
    </linearGradient>
    <linearGradient gradientTransform="matrix(0.0198, -0.0189, 0.0151, 0.0159, 14.0, 18.0)" gradientUnits="userSpaceOnUse" id="gradient2" spreadMethod="pad" x1="-819.2" x2="819.2">
      <stop offset="0.0" stop-color="#4bf34b"/>
      <stop offset="0.4627450980392157" stop-color="#38b81d"/>
      <stop offset="1.0" stop-color="#0d3403"/>
    </linearGradient>
    <linearGradient gradientTransform="matrix(0.0206, 0.0202, -0.0153, 0.0157, 16.05, -21.1)" gradientUnits="userSpaceOnUse" id="gradient3" spreadMethod="pad" x1="-819.2" x2="819.2">
      <stop offset="0.21176470588235294" stop-color="#ffffff"/>
      <stop offset="0.9764705882352941" stop-color="#a6e79e"/>
    </linearGradient>
    <linearGradient gradientTransform="matrix(0.0012, 9.0E-4, -0.0078, 0.0102, -7.2, -9.7)" gradientUnits="userSpaceOnUse" id="gradient4" spreadMethod="pad" x1="-819.2" x2="819.2">
      <stop offset="0.07058823529411765" stop-color="#286c28"/>
      <stop offset="1.0" stop-color="#285e22"/>
    </linearGradient>
    <linearGradient gradientTransform="matrix(-0.0105, -0.0127, 0.0099, -0.0081, 0.35, 3.45)" gradientUnits="userSpaceOnUse" id="gradient5" spreadMethod="pad" x1="-819.2" x2="819.2">
      <stop offset="0.11372549019607843" stop-color="#5bf15a"/>
      <stop offset="0.8274509803921568" stop-color="#20b61f"/>
    </linearGradient>
    <linearGradient gradientTransform="matrix(0.0014, 0.0011, -0.0078, 0.0102, 7.25, 9.5)" gradientUnits="userSpaceOnUse" id="gradient6" spreadMethod="pad" x1="-819.2" x2="819.2">
      <stop offset="0.1411764705882353" stop-color="#317229"/>
      <stop offset="1.0" stop-color="#265021"/>
    </linearGradient>
    <linearGradient gradientTransform="matrix(0.0012, -9.0E-4, 0.0077, 0.0102, 7.15, -9.65)" gradientUnits="userSpaceOnUse" id="gradient7" spreadMethod="pad" x1="-819.2" x2="819.2">
      <stop offset="0.0" stop-color="#0f4107"/>
      <stop offset="1.0" stop-color="#1c471b"/>
    </linearGradient>
    <linearGradient gradientTransform="matrix(0.0079, 6.0E-4, -8.0E-4, 0.0103, -6.5, -8.5)" gradientUnits="userSpaceOnUse" id="gradient8" spreadMethod="pad" x1="-819.2" x2="819.2">
      <stop offset="0.0" stop-color="#17a817"/>
      <stop offset="0.3607843137254902" stop-color="#17a817"/>
      <stop offset="0.8862745098039215" stop-color="#295c23"/>
    </linearGradient>
    <linearGradient gradientTransform="matrix(0.0051, -0.0039, 0.0064, 0.0082, -3.55, 4.45)" gradientUnits="userSpaceOnUse" id="gradient9" spreadMethod="pad" x1="-819.2" x2="819.2">
      <stop offset="0.0" stop-color="#26af25"/>
      <stop offset="0.8901960784313725" stop-color="#002b00"/>
    </linearGradient>
    <linearGradient gradientTransform="matrix(2.0E-4, -0.013, 0.0103, 2.0E-4, 7.8, 5.3)" gradientUnits="userSpaceOnUse" id="gradient10" spreadMethod="pad" x1="-819.2" x2="819.2">
      <stop offset="0.20392156862745098" stop-color="#4ee34d"/>
      <stop offset="0.8901960784313725" stop-color="#023c01"/>
    </linearGradient>
    <linearGradient gradientTransform="matrix(0.0052, -0.0042, 0.0064, 0.0081, 3.45, -3.95)" gradientUnits="userSpaceOnUse" id="gradient11" spreadMethod="pad" x1="-819.2" x2="819.2">
      <stop offset="0.0" stop-color="#e9ffe1"/>
      <stop offset="0.8274509803921568" stop-color="#d5ffc6"/>
    </linearGradient>
  </defs>
</svg>
