<?xml version="1.0" encoding="UTF-8" standalone="no"?>
<svg xmlns:xlink="http://www.w3.org/1999/xlink" height="107.0px" width="33.2px" xmlns="http://www.w3.org/2000/svg">
  <g transform="matrix(1.0, 0.0, 0.0, 1.0, 17.6, 52.5)">
    <path d="M15.5 -36.0 L15.5 51.0 Q16.1 53.0 12.9 54.1 L12.95 54.05 10.0 54.5 7.05 54.1 7.05 54.05 Q3.95 52.95 4.5 51.0 L4.5 -36.0 Q4.5 -38.25 2.9 -39.85 1.25 -41.5 -1.0 -41.5 L-1.35 -41.45 Q-3.4 -41.35 -4.85 -39.85 -6.4 -38.35 -6.5 -36.2 L-6.5 -36.15 -6.5 -36.0 -6.5 -24.0 Q-5.9 -22.0 -9.1 -20.9 L-9.05 -20.95 Q-10.25 -20.5 -12.0 -20.5 L-14.95 -20.9 -14.95 -20.95 Q-18.05 -22.05 -17.5 -24.0 L-17.5 -36.0 Q-17.5 -41.2 -14.65 -45.25 L-14.55 -45.4 -12.65 -47.65 Q-8.9 -51.45 -3.85 -52.25 L-3.25 -52.35 -1.0 -52.5 Q5.85 -52.5 10.7 -47.65 15.5 -42.85 15.5 -36.0" fill="#000000" fill-rule="evenodd" stroke="none"/>
    <path d="M-9.9 -23.3 L-12.0 -23.0 -14.15 -23.3 Q-15.0 -23.6 -15.0 -24.0 -15.0 -24.4 -14.15 -24.7 L-12.0 -25.0 -9.9 -24.7 Q-9.0 -24.4 -9.0 -24.0 -9.0 -23.6 -9.9 -23.3" fill="url(#gradient0)" fill-rule="evenodd" stroke="none"/>
    <path d="M12.1 51.7 L10.0 52.0 7.85 51.7 Q7.0 51.4 7.0 51.0 7.0 50.6 7.85 50.3 L10.0 50.0 12.1 50.3 Q13.0 50.6 13.0 51.0 13.0 51.4 12.1 51.7" fill="url(#gradient1)" fill-rule="evenodd" stroke="none"/>
    <path d="M7.0 -35.5 L10.7 -30.0 13.0 -30.0 13.0 51.0 7.0 51.0 7.0 -35.5" fill="url(#gradient2)" fill-rule="evenodd" stroke="none"/>
    <path d="M-9.0 -24.0 L-15.0 -24.0 -15.0 -36.0 Q-15.0 -40.45 -12.5 -43.95 L-9.0 -36.2 -9.0 -36.0 -9.0 -24.0" fill="url(#gradient3)" fill-rule="evenodd" stroke="none"/>
    <path d="M7.0 -35.5 L7.0 -36.0 Q7.0 -39.3 4.65 -41.65 2.3 -44.0 -1.0 -44.0 L-1.5 -43.95 Q-4.5 -43.8 -6.65 -41.65 -8.95 -39.35 -9.0 -36.2 L-12.5 -43.95 -12.5 -44.0 -10.9 -45.9 Q-7.65 -49.15 -3.3 -49.8 L-2.95 -49.85 -1.0 -50.0 Q4.8 -50.0 8.9 -45.9 13.0 -41.8 13.0 -36.0 L13.0 -30.0 10.7 -30.0 7.0 -35.5" fill="url(#gradient4)" fill-rule="evenodd" stroke="none"/>
    <path d="M13.0 43.6 L7.0 26.8 7.0 14.8 13.0 31.6 13.0 43.6" fill="url(#gradient5)" fill-rule="evenodd" stroke="none"/>
    <path d="M7.0 -16.2 L13.0 0.6 13.0 12.6 7.0 -4.2 7.0 -16.2" fill="url(#gradient6)" fill-rule="evenodd" stroke="none"/>
    <path d="M7.0 -33.1 L7.0 -36.0 Q7.0 -39.3 4.65 -41.65 2.3 -44.0 -1.0 -44.0 L-1.5 -43.95 Q0.5 -44.4 2.6 -43.55 6.05 -42.2 8.9 -38.05 11.5 -34.25 13.0 -29.35 L13.0 -17.55 Q11.45 -23.8 8.75 -29.7 L7.0 -33.1" fill="url(#gradient7)" fill-rule="evenodd" stroke="none"/>
    <path d="M-13.0 -24.0 L-15.0 -24.0 -15.0 -28.0 Q-14.65 -25.25 -13.0 -24.0" fill="url(#gradient8)" fill-rule="evenodd" stroke="none"/>
    <path d="M8.9 51.0 L7.0 51.0 7.0 45.8 8.9 51.0" fill="url(#gradient9)" fill-rule="evenodd" stroke="none"/>
    <path d="M-9.0 -28.2 Q-12.1 -32.2 -13.0 -36.45 -13.9 -40.6 -12.5 -44.0 L-10.9 -45.9 Q-7.55 -49.25 -3.3 -49.8 -7.8 -48.25 -9.2 -45.2 -10.65 -42.05 -9.0 -37.0 L-9.0 -28.2" fill="url(#gradient10)" fill-rule="evenodd" stroke="none"/>
    <path d="M-14.15 -23.3 Q-15.0 -23.6 -15.0 -24.0 L-13.1 -24.0 -12.75 -23.0 -14.15 -23.3" fill="url(#gradient11)" fill-rule="evenodd" stroke="none"/>
    <path d="M7.85 51.7 Q7.0 51.4 7.0 51.0 L8.9 51.0 9.25 52.0 7.85 51.7" fill="url(#gradient12)" fill-rule="evenodd" stroke="none"/>
    <path d="M13.0 -36.0 L13.0 -29.35 11.25 -34.0 8.9 -38.05 Q6.05 -42.2 2.6 -43.55 0.5 -44.4 -1.5 -43.95 -4.5 -43.8 -6.65 -41.65 -8.45 -39.85 -8.85 -37.45 L-9.0 -36.0 -9.0 -29.3 Q-10.95 -34.45 -10.35 -39.2 L-10.1 -40.6 Q-8.75 -46.85 -3.3 -49.8 L-2.95 -49.85 -1.0 -50.0 Q4.8 -50.0 8.9 -45.9 13.0 -41.8 13.0 -36.0" fill="url(#gradient13)" fill-rule="evenodd" stroke="none"/>
  </g>
  <defs>
    <radialGradient cx="0" cy="0" gradientTransform="matrix(0.0039, 0.0, 0.0, 0.0015, -11.2, -24.0)" gradientUnits="userSpaceOnUse" id="gradient0" r="819.2" spreadMethod="pad">
      <stop offset="0.09019607843137255" stop-color="#feb8b8"/>
      <stop offset="0.11764705882352941" stop-color="#fe9393"/>
      <stop offset="0.30196078431372547" stop-color="#fd7e7e"/>
      <stop offset="0.43529411764705883" stop-color="#ea0202"/>
      <stop offset="0.7686274509803922" stop-color="#990101"/>
    </radialGradient>
    <radialGradient cx="0" cy="0" gradientTransform="matrix(0.0039, 0.0, 0.0, 0.0015, 10.8, 50.95)" gradientUnits="userSpaceOnUse" id="gradient1" r="819.2" spreadMethod="pad">
      <stop offset="0.09019607843137255" stop-color="#feb8b8"/>
      <stop offset="0.11764705882352941" stop-color="#fe9393"/>
      <stop offset="0.30196078431372547" stop-color="#fd7e7e"/>
      <stop offset="0.43529411764705883" stop-color="#ea0202"/>
      <stop offset="0.7686274509803922" stop-color="#990101"/>
    </radialGradient>
    <linearGradient gradientTransform="matrix(-0.0037, 0.0, 0.0, -0.0528, 10.0, 7.75)" gradientUnits="userSpaceOnUse" id="gradient2" spreadMethod="pad" x1="-819.2" x2="819.2">
      <stop offset="0.0" stop-color="#c60606"/>
      <stop offset="0.12941176470588237" stop-color="#ee0202"/>
      <stop offset="0.19607843137254902" stop-color="#fd6c6c"/>
      <stop offset="0.28627450980392155" stop-color="#fd8888"/>
      <stop offset="0.30196078431372547" stop-color="#feb8b8"/>
      <stop offset="0.4117647058823529" stop-color="#feb8b8"/>
      <stop offset="0.42745098039215684" stop-color="#fd8888"/>
      <stop offset="0.5294117647058824" stop-color="#fd6c6c"/>
      <stop offset="0.6784313725490196" stop-color="#ee0202"/>
      <stop offset="0.8588235294117647" stop-color="#9a0101"/>
      <stop offset="1.0" stop-color="#960505"/>
    </linearGradient>
    <linearGradient gradientTransform="matrix(-0.0036, 0.0, 0.0, -0.0616, -12.0, 0.15)" gradientUnits="userSpaceOnUse" id="gradient3" spreadMethod="pad" x1="-819.2" x2="819.2">
      <stop offset="0.0" stop-color="#c60606"/>
      <stop offset="0.12941176470588237" stop-color="#ee0202"/>
      <stop offset="0.19607843137254902" stop-color="#fd6c6c"/>
      <stop offset="0.28627450980392155" stop-color="#fd8888"/>
      <stop offset="0.30196078431372547" stop-color="#feb8b8"/>
      <stop offset="0.4117647058823529" stop-color="#feb8b8"/>
      <stop offset="0.42745098039215684" stop-color="#fd8888"/>
      <stop offset="0.5294117647058824" stop-color="#fd6c6c"/>
      <stop offset="0.6784313725490196" stop-color="#ee0202"/>
      <stop offset="0.8588235294117647" stop-color="#9a0101"/>
      <stop offset="1.0" stop-color="#960505"/>
    </linearGradient>
    <radialGradient cx="0" cy="0" gradientTransform="matrix(0.0, 0.0189, -0.0173, 0.0, -1.0, -34.5)" gradientUnits="userSpaceOnUse" id="gradient4" r="819.2" spreadMethod="pad">
      <stop offset="0.6039215686274509" stop-color="#700101"/>
      <stop offset="0.7137254901960784" stop-color="#cd0e0e"/>
      <stop offset="0.7490196078431373" stop-color="#f01111"/>
      <stop offset="0.7843137254901961" stop-color="#f35858"/>
      <stop offset="0.8117647058823529" stop-color="#fd8e8e"/>
      <stop offset="0.8274509803921568" stop-color="#fdacac"/>
      <stop offset="0.8627450980392157" stop-color="#fd8e8e"/>
      <stop offset="0.8823529411764706" stop-color="#f01111"/>
      <stop offset="1.0" stop-color="#c60606"/>
    </radialGradient>
    <linearGradient gradientTransform="matrix(0.0037, 0.0, 0.0, 0.0176, 10.0, 29.2)" gradientUnits="userSpaceOnUse" id="gradient5" spreadMethod="pad" x1="-819.2" x2="819.2">
      <stop offset="0.0" stop-color="#b8bcbe"/>
      <stop offset="0.16862745098039217" stop-color="#b3b4b7"/>
      <stop offset="0.403921568627451" stop-color="#d6d7da"/>
      <stop offset="0.5607843137254902" stop-color="#ededed"/>
      <stop offset="0.596078431372549" stop-color="#f4f4f4"/>
      <stop offset="0.615686274509804" stop-color="#ffffff"/>
      <stop offset="0.6941176470588235" stop-color="#ffffff"/>
      <stop offset="0.7215686274509804" stop-color="#f4f4f4"/>
      <stop offset="0.7450980392156863" stop-color="#ededed"/>
      <stop offset="0.8156862745098039" stop-color="#d6d7da"/>
      <stop offset="0.9215686274509803" stop-color="#b3b4b7"/>
      <stop offset="1.0" stop-color="#c8cacc"/>
    </linearGradient>
    <linearGradient gradientTransform="matrix(0.0037, 0.0, 0.0, 0.0176, 10.0, -1.8)" gradientUnits="userSpaceOnUse" id="gradient6" spreadMethod="pad" x1="-819.2" x2="819.2">
      <stop offset="0.0" stop-color="#b8bcbe"/>
      <stop offset="0.16862745098039217" stop-color="#b3b4b7"/>
      <stop offset="0.403921568627451" stop-color="#d6d7da"/>
      <stop offset="0.5607843137254902" stop-color="#ededed"/>
      <stop offset="0.596078431372549" stop-color="#f4f4f4"/>
      <stop offset="0.615686274509804" stop-color="#ffffff"/>
      <stop offset="0.6941176470588235" stop-color="#ffffff"/>
      <stop offset="0.7215686274509804" stop-color="#f4f4f4"/>
      <stop offset="0.7450980392156863" stop-color="#ededed"/>
      <stop offset="0.8156862745098039" stop-color="#d6d7da"/>
      <stop offset="0.9215686274509803" stop-color="#b3b4b7"/>
      <stop offset="1.0" stop-color="#c8cacc"/>
    </linearGradient>
    <linearGradient gradientTransform="matrix(0.0036, 0.0, 0.0, 0.0162, 10.0, -30.0)" gradientUnits="userSpaceOnUse" id="gradient7" spreadMethod="pad" x1="-819.2" x2="819.2">
      <stop offset="0.0" stop-color="#b8bcbe"/>
      <stop offset="0.16862745098039217" stop-color="#b3b4b7"/>
      <stop offset="0.403921568627451" stop-color="#d6d7da"/>
      <stop offset="0.5607843137254902" stop-color="#ededed"/>
      <stop offset="0.596078431372549" stop-color="#f4f4f4"/>
      <stop offset="0.615686274509804" stop-color="#ffffff"/>
      <stop offset="0.6941176470588235" stop-color="#ffffff"/>
      <stop offset="0.7215686274509804" stop-color="#f4f4f4"/>
      <stop offset="0.7450980392156863" stop-color="#ededed"/>
      <stop offset="0.8156862745098039" stop-color="#d6d7da"/>
      <stop offset="0.9215686274509803" stop-color="#b3b4b7"/>
      <stop offset="1.0" stop-color="#c8cacc"/>
    </linearGradient>
    <linearGradient gradientTransform="matrix(0.0012, 0.0, 0.0, 0.0024, -14.0, -26.0)" gradientUnits="userSpaceOnUse" id="gradient8" spreadMethod="pad" x1="-819.2" x2="819.2">
      <stop offset="0.0" stop-color="#c8cacc"/>
      <stop offset="0.054901960784313725" stop-color="#b3b4b7"/>
      <stop offset="0.39215686274509803" stop-color="#d6d7da"/>
      <stop offset="0.7607843137254902" stop-color="#d6d7da"/>
      <stop offset="0.9215686274509803" stop-color="#b3b4b7"/>
      <stop offset="1.0" stop-color="#c8cacc"/>
    </linearGradient>
    <linearGradient gradientTransform="matrix(0.0011, 0.0, 0.0, 0.0032, 7.9, 48.4)" gradientUnits="userSpaceOnUse" id="gradient9" spreadMethod="pad" x1="-819.2" x2="819.2">
      <stop offset="0.0" stop-color="#c8cacc"/>
      <stop offset="0.054901960784313725" stop-color="#b3b4b7"/>
      <stop offset="0.25098039215686274" stop-color="#d6d7da"/>
      <stop offset="0.7607843137254902" stop-color="#d2d3d7"/>
      <stop offset="0.9215686274509803" stop-color="#b3b4b7"/>
      <stop offset="1.0" stop-color="#c8cacc"/>
    </linearGradient>
    <radialGradient cx="0" cy="0" gradientTransform="matrix(2.0E-4, 0.0228, -0.0153, 2.0E-4, -1.95, -34.2)" gradientUnits="userSpaceOnUse" id="gradient10" r="819.2" spreadMethod="pad">
      <stop offset="0.5764705882352941" stop-color="#9d9489"/>
      <stop offset="0.6588235294117647" stop-color="#bfbfbf"/>
      <stop offset="0.7254901960784313" stop-color="#f0f0f0"/>
      <stop offset="0.7647058823529411" stop-color="#f8f8f8"/>
      <stop offset="0.8549019607843137" stop-color="#e0e0e1"/>
      <stop offset="0.9215686274509803" stop-color="#c9c9cb"/>
    </radialGradient>
    <radialGradient cx="0" cy="0" gradientTransform="matrix(0.0015, 0.0, 0.0, 0.0015, -14.0, -23.9)" gradientUnits="userSpaceOnUse" id="gradient11" r="819.2" spreadMethod="pad">
      <stop offset="0.16470588235294117" stop-color="#b0b0b0"/>
      <stop offset="0.48627450980392156" stop-color="#abadaf"/>
      <stop offset="0.9921568627450981" stop-color="#a4a7a8"/>
    </radialGradient>
    <radialGradient cx="0" cy="0" gradientTransform="matrix(0.0015, 0.0, 0.0, 0.0015, 8.0, 51.1)" gradientUnits="userSpaceOnUse" id="gradient12" r="819.2" spreadMethod="pad">
      <stop offset="0.29411764705882354" stop-color="#cdced1"/>
      <stop offset="0.49411764705882355" stop-color="#bdbfc1"/>
      <stop offset="0.7294117647058823" stop-color="#bdbfc1"/>
    </radialGradient>
    <radialGradient cx="0" cy="0" gradientTransform="matrix(0.0112, 0.0065, -0.0026, 0.0044, 4.95, -45.95)" gradientUnits="userSpaceOnUse" id="gradient13" r="819.2" spreadMethod="pad">
      <stop offset="0.13725490196078433" stop-color="#feebeb"/>
      <stop offset="0.5254901960784314" stop-color="#fdc1c1" stop-opacity="0.13333334"/>
      <stop offset="0.6509803921568628" stop-color="#ef3737" stop-opacity="0.0"/>
    </radialGradient>
  </defs>
</svg>
