<?xml version="1.0" encoding="UTF-8" standalone="no"?>
<svg xmlns:xlink="http://www.w3.org/1999/xlink" height="7.0px" width="19.0px" xmlns="http://www.w3.org/2000/svg">
  <g transform="matrix(1.0, 0.0, 0.0, 1.0, 0.0, 0.0)">
    <path d="M14.0 5.0 L14.0 7.0 0.0 7.0 0.0 0.0 19.0 0.0 19.0 5.0 14.0 5.0" fill="#000000" fill-rule="evenodd" stroke="none"/>
    <path d="M13.0 2.0 L13.0 3.0 15.0 3.0 15.0 2.0 13.0 2.0 M17.95 4.0 L13.0 4.0 13.0 6.0 10.0 6.0 10.0 1.0 18.0 1.0 17.95 4.0 M6.0 1.0 L9.0 1.0 9.0 6.0 6.0 6.0 6.0 4.0 4.05 4.0 4.05 6.0 1.0 6.0 1.0 1.0 4.05 1.0 4.05 3.0 6.0 3.0 6.0 1.0" fill="#ffffff" fill-rule="evenodd" stroke="none"/>
  </g>
</svg>
