<?xml version="1.0" encoding="UTF-8" standalone="no"?>
<svg xmlns:xlink="http://www.w3.org/1999/xlink" height="14.1px" width="3.1px" xmlns="http://www.w3.org/2000/svg">
  <g transform="matrix(1.0, 0.0, 0.0, 1.0, -42.35, -17.7)">
    <path d="M42.4 18.6 L44.4 17.7 45.45 17.7 45.45 18.1 45.2 20.3 44.3 27.15 43.55 27.55 43.45 27.5 43.25 25.8 42.85 22.8 42.4 19.0 42.4 18.6 M42.8 29.2 Q43.25 28.75 43.9 28.75 44.5 28.75 44.95 29.2 45.4 29.6 45.4 30.25 45.4 30.9 44.95 31.35 44.5 31.8 43.9 31.8 43.25 31.8 42.8 31.35 42.35 30.9 42.35 30.25 42.35 29.65 42.8 29.2" fill="#ffffff" fill-rule="evenodd" stroke="none"/>
  </g>
</svg>
