<?xml version="1.0" encoding="UTF-8" standalone="no"?>
<svg xmlns:xlink="http://www.w3.org/1999/xlink" height="117.0px" width="102.0px" xmlns="http://www.w3.org/2000/svg">
  <g transform="matrix(1.0, 0.0, 0.0, 1.0, 49.5, 57.5)">
    <path d="M44.9 -40.65 Q45.45 -40.05 45.5 -39.2 L52.5 38.8 Q52.6 39.7 52.05 40.5 51.45 41.25 50.55 41.45 L-31.45 59.45 -33.1 59.25 -45.1 53.25 -46.1 52.35 -46.5 51.1 -49.5 -39.9 Q-49.55 -40.8 -49.0 -41.45 L-38.0 -56.45 Q-37.6 -57.05 -36.9 -57.3 L-35.5 -57.45 43.5 -41.45 Q44.3 -41.3 44.9 -40.65" fill="#000000" fill-rule="evenodd" stroke="none"/>
    <path d="M-34.9 -24.0 L45.05 -16.25 46.8 3.2 50.0 39.0 -32.0 57.0 -34.65 -17.65 -34.9 -24.0" fill="url(#gradient0)" fill-rule="evenodd" stroke="none"/>
    <path d="M44.65 -20.65 L-35.05 -29.15 -36.0 -55.0 43.0 -39.0 44.65 -20.65" fill="url(#gradient1)" fill-rule="evenodd" stroke="none"/>
    <path d="M-35.0 -24.0 L-34.9 -24.0 -32.0 57.0 -44.0 51.0 -46.15 -14.7 -35.0 -24.0" fill="url(#gradient2)" fill-rule="evenodd" stroke="none"/>
    <path d="M22.7 -18.4 L0.95 -20.5 1.0 -19.65 Q1.5 -14.15 5.05 -10.25 8.55 -6.35 13.0 -6.3 17.5 -6.25 20.3 -10.15 22.85 -13.6 22.7 -18.4 L45.05 -16.25 M0.95 -20.5 L-34.9 -24.0 -46.15 -14.7" fill="none" stroke="#000000" stroke-linecap="round" stroke-linejoin="round" stroke-width="2.0"/>
    <path d="M45.05 -16.25 L-34.9 -24.0 -35.05 -29.15 44.65 -20.65 45.05 -16.25" fill="url(#gradient3)" fill-rule="evenodd" stroke="none"/>
    <path d="M-47.0 -40.0 L-36.0 -55.0 -35.05 -29.15 -35.15 -29.15 -46.3 -19.45 -47.0 -40.0" fill="url(#gradient4)" fill-rule="evenodd" stroke="none"/>
    <path d="M-46.3 -19.45 L-35.15 -29.15 -35.05 -29.15 -34.9 -24.0 -35.0 -24.0 -46.15 -14.7 -46.3 -19.45" fill="url(#gradient5)" fill-rule="evenodd" stroke="none"/>
    <path d="M13.0 -6.3 Q8.55 -6.35 5.05 -10.25 1.5 -14.15 1.0 -19.65 0.5 -25.15 3.35 -29.0 6.15 -32.85 10.6 -32.8 15.1 -32.75 18.6 -28.9 22.1 -24.95 22.6 -19.45 23.1 -13.95 20.3 -10.15 17.5 -6.25 13.0 -6.3" fill="url(#gradient6)" fill-rule="evenodd" stroke="none"/>
    <path d="M19.15 -19.5 Q19.45 -15.9 17.6 -13.4 15.75 -10.85 12.8 -10.85 9.9 -10.9 7.65 -13.45 5.25 -16.05 4.95 -19.65 4.6 -23.25 6.5 -25.75 8.3 -28.3 11.25 -28.25 14.2 -28.25 16.5 -25.7 18.8 -23.1 19.15 -19.5" fill="url(#gradient7)" fill-rule="evenodd" stroke="none"/>
    <path d="M19.15 -19.5 Q19.45 -15.9 17.6 -13.4 15.75 -10.85 12.8 -10.85 9.9 -10.9 7.65 -13.45 5.25 -16.05 4.95 -19.65 4.6 -23.25 6.5 -25.75 8.3 -28.3 11.25 -28.25 14.2 -28.25 16.5 -25.7 18.8 -23.1 19.15 -19.5 Z" fill="none" stroke="url(#gradient8)" stroke-linecap="round" stroke-linejoin="round" stroke-width="1.0"/>
    <path d="M9.65 -22.35 Q10.5 -23.5 11.8 -23.45 13.15 -23.45 14.2 -22.3 15.25 -21.15 15.4 -19.5 15.55 -17.85 14.7 -16.7 13.85 -15.55 12.5 -15.6 11.2 -15.6 10.15 -16.75 9.1 -17.9 8.95 -19.55 8.8 -21.2 9.65 -22.35 Z" fill="none" stroke="url(#gradient9)" stroke-linecap="round" stroke-linejoin="round" stroke-width="1.0"/>
    <path d="M41.65 30.5 Q42.45 29.65 43.6 29.65 44.75 29.65 45.6 30.5 46.4 31.45 46.55 32.7 46.6 33.9 45.9 34.8 45.1 35.7 43.95 35.7 42.8 35.7 41.9 34.8 41.1 33.9 41.0 32.7 40.9 31.45 41.65 30.5" fill="url(#gradient10)" fill-rule="evenodd" stroke="none"/>
    <path d="M-19.05 41.2 Q-18.15 42.15 -18.15 43.7 -18.15 45.2 -19.0 46.1 -19.95 47.15 -21.25 47.15 -22.6 47.15 -23.55 46.1 -24.45 45.1 -24.4 43.7 -24.45 42.25 -23.55 41.2 -22.55 40.2 -21.2 40.2 -19.9 40.2 -19.05 41.2" fill="url(#gradient11)" fill-rule="evenodd" stroke="none"/>
  </g>
  <defs>
    <linearGradient gradientTransform="matrix(0.0352, -0.0667, 0.0604, 0.0319, -125.1, -60.2)" gradientUnits="userSpaceOnUse" id="gradient0" spreadMethod="pad" x1="-819.2" x2="819.2">
      <stop offset="0.0" stop-color="#464646"/>
      <stop offset="0.788235294117647" stop-color="#202020"/>
      <stop offset="1.0" stop-color="#313131"/>
    </linearGradient>
    <linearGradient gradientTransform="matrix(0.0352, -0.0667, 0.0604, 0.0319, -125.1, -60.2)" gradientUnits="userSpaceOnUse" id="gradient1" spreadMethod="pad" x1="-819.2" x2="819.2">
      <stop offset="0.0" stop-color="#404040"/>
      <stop offset="0.788235294117647" stop-color="#202020"/>
      <stop offset="1.0" stop-color="#262626"/>
    </linearGradient>
    <linearGradient gradientTransform="matrix(0.0352, -0.0667, 0.0604, 0.0319, -125.1, -60.2)" gradientUnits="userSpaceOnUse" id="gradient2" spreadMethod="pad" x1="-819.2" x2="819.2">
      <stop offset="0.0" stop-color="#80802b"/>
      <stop offset="0.788235294117647" stop-color="#555518"/>
      <stop offset="1.0" stop-color="#3f3a16"/>
    </linearGradient>
    <linearGradient gradientTransform="matrix(0.0352, -0.0667, 0.0604, 0.0319, -125.1, -60.2)" gradientUnits="userSpaceOnUse" id="gradient3" spreadMethod="pad" x1="-819.2" x2="819.2">
      <stop offset="0.054901960784313725" stop-color="#d7a059"/>
      <stop offset="0.8196078431372549" stop-color="#b6751f"/>
      <stop offset="1.0" stop-color="#bc802e"/>
    </linearGradient>
    <linearGradient gradientTransform="matrix(0.0352, -0.0667, 0.0604, 0.0319, -125.1, -60.2)" gradientUnits="userSpaceOnUse" id="gradient4" spreadMethod="pad" x1="-819.2" x2="819.2">
      <stop offset="0.0" stop-color="#4c4c4c"/>
      <stop offset="0.9294117647058824" stop-color="#545454"/>
    </linearGradient>
    <linearGradient gradientTransform="matrix(0.0352, -0.0667, 0.0604, 0.0319, -125.1, -60.2)" gradientUnits="userSpaceOnUse" id="gradient5" spreadMethod="pad" x1="-819.2" x2="819.2">
      <stop offset="0.0" stop-color="#bb7c29"/>
      <stop offset="0.788235294117647" stop-color="#a06225"/>
      <stop offset="1.0" stop-color="#9b5f24"/>
    </linearGradient>
    <linearGradient gradientTransform="matrix(-0.0127, 0.0142, -0.0121, -0.0107, 27.95, -5.8)" gradientUnits="userSpaceOnUse" id="gradient6" spreadMethod="pad" x1="-819.2" x2="819.2">
      <stop offset="0.023529411764705882" stop-color="#757575"/>
      <stop offset="0.8509803921568627" stop-color="#9f9f9f"/>
    </linearGradient>
    <linearGradient gradientTransform="matrix(-0.0127, 0.0142, -0.0121, -0.0107, 28.15, -5.8)" gradientUnits="userSpaceOnUse" id="gradient7" spreadMethod="pad" x1="-819.2" x2="819.2">
      <stop offset="0.023529411764705882" stop-color="#757575"/>
      <stop offset="0.8509803921568627" stop-color="#9f9f9f"/>
    </linearGradient>
    <linearGradient gradientTransform="matrix(-0.0058, 0.0101, -0.0097, -0.0056, 12.1, -19.5)" gradientUnits="userSpaceOnUse" id="gradient8" spreadMethod="pad" x1="-819.2" x2="819.2">
      <stop offset="0.3058823529411765" stop-color="#787878"/>
      <stop offset="1.0" stop-color="#b5b5b5"/>
    </linearGradient>
    <linearGradient gradientTransform="matrix(-0.0023, 0.0039, -0.0047, -0.0027, 12.2, -19.5)" gradientUnits="userSpaceOnUse" id="gradient9" spreadMethod="pad" x1="-819.2" x2="819.2">
      <stop offset="0.3058823529411765" stop-color="#7b7b7b"/>
      <stop offset="1.0" stop-color="#adadad"/>
    </linearGradient>
    <linearGradient gradientTransform="matrix(-0.0011, 0.0042, -0.0036, -9.0E-4, 43.75, 32.65)" gradientUnits="userSpaceOnUse" id="gradient10" spreadMethod="pad" x1="-819.2" x2="819.2">
      <stop offset="0.17647058823529413" stop-color="#6d6d6d"/>
      <stop offset="0.8235294117647058" stop-color="#787878"/>
    </linearGradient>
    <linearGradient gradientTransform="matrix(-0.0018, 0.0051, -0.004, -0.0014, -21.2, 43.7)" gradientUnits="userSpaceOnUse" id="gradient11" spreadMethod="pad" x1="-819.2" x2="819.2">
      <stop offset="0.17647058823529413" stop-color="#848484"/>
      <stop offset="0.8235294117647058" stop-color="#868686"/>
    </linearGradient>
  </defs>
</svg>
