<?xml version="1.0" encoding="UTF-8" standalone="no"?>
<svg xmlns:xlink="http://www.w3.org/1999/xlink" height="102.05px" width="84.65px" xmlns="http://www.w3.org/2000/svg">
  <g transform="matrix(1.0, 0.0, 0.0, 1.0, 47.5, 53.45)">
    <path d="M27.6 -53.4 Q28.4 -53.25 28.95 -52.55 29.45 -51.9 29.5 -51.05 L29.8 -40.45 Q29.8 -33.2 29.5 -30.7 28.85 -24.65 21.5 -17.7 19.75 -16.1 18.0 -14.75 23.8 -12.55 28.95 -6.85 36.95 1.95 37.1 13.5 37.35 17.85 36.05 23.4 35.0 27.8 32.15 32.25 29.5 36.4 26.0 39.5 20.4 44.45 13.4 46.8 6.45 49.1 -0.2 48.5 -11.95 48.05 -19.95 41.8 -23.85 38.75 -26.2 34.95 -28.45 31.35 -29.65 26.6 -31.85 17.75 -28.8 8.35 -27.45 4.2 -25.65 1.2 -24.05 -1.45 -21.4 -4.3 -25.1 -5.4 -29.75 -8.2 -41.6 -19.85 -47.35 -35.1 -47.7 -36.05 -47.3 -36.9 -46.95 -37.85 -46.05 -38.25 L-44.25 -38.4 -23.55 -31.9 Q-11.55 -27.95 -4.4 -21.9 L-4.2 -21.75 Q-1.35 -23.1 2.6 -22.45 3.25 -31.95 8.6 -39.55 14.6 -48.2 26.0 -53.25 L27.6 -53.4 M1.8 -5.15 L-1.75 -5.55 -3.55 -3.7 Q-12.15 8.2 -12.3 20.5 -5.55 24.65 1.9 23.55 9.55 22.35 14.75 16.35 19.75 10.5 19.2 3.9 18.8 0.0 16.4 -3.1 10.95 -6.3 6.65 -6.7 5.15 -5.15 1.8 -5.15" fill="#000000" fill-rule="evenodd" stroke="none"/>
    <path d="M-16.55 24.55 L-16.0 21.0 Q-7.35 27.5 2.25 26.0 10.85 24.7 16.65 17.95 22.4 11.25 21.7 3.65 20.9 -4.8 12.0 -10.0 20.5 -8.65 26.7 -2.45 32.05 2.9 34.0 10.0 35.45 15.2 33.6 22.8 30.3 28.3 23.85 31.75 17.85 35.0 10.5 35.5 2.4 36.05 -4.45 33.3 -11.5 30.5 -16.55 24.55" fill="url(#gradient0)" fill-rule="evenodd" stroke="none"/>
    <path d="M33.6 22.8 Q31.55 31.15 24.3 37.65 19.2 42.2 12.6 44.4 6.15 46.55 0.0 46.0 -18.25 41.4 -16.55 24.55 -11.5 30.5 -4.45 33.3 2.4 36.05 10.5 35.5 17.85 35.0 23.85 31.75 30.3 28.3 33.6 22.8" fill="url(#gradient1)" fill-rule="evenodd" stroke="none"/>
    <path d="M-5.0 -6.0 Q-15.85 8.6 -14.75 23.75 -13.65 39.4 0.0 46.0 -11.05 45.6 -18.4 39.8 -25.1 34.45 -27.25 25.95 -29.3 17.65 -26.45 9.15 -23.5 0.2 -16.0 -6.0 L-5.0 -6.0" fill="url(#gradient2)" fill-rule="evenodd" stroke="none"/>
    <path d="M6.2 -12.4 Q8.3 -13.35 12.25 -13.6 20.25 -12.75 27.1 -5.2 34.65 3.15 34.6 14.1 32.1 4.75 21.15 -3.0 10.6 -10.4 3.2 -9.15 3.9 -11.35 6.2 -12.4" fill="url(#gradient3)" fill-rule="evenodd" stroke="none"/>
    <path d="M2.0 -6.0 L5.0 -16.0 16.0 -14.0 8.0 -11.0 Q6.85 -7.7 2.0 -6.0 M-6.0 -4.0 L-12.6 -3.7 Q-16.5 -3.85 -18.0 -5.0 L-19.0 -7.0 -4.0 -7.0 -6.0 -4.0" fill="#000000" fill-opacity="0.15294118" fill-rule="evenodd" stroke="none"/>
    <path d="M7.0 -12.0 L5.0 -19.0 Q4.8 -29.8 10.65 -38.15 16.3 -46.25 27.0 -51.0 L27.3 -40.4 Q27.45 -34.6 27.0 -31.0 26.35 -25.7 19.8 -19.55 13.35 -13.55 7.0 -12.0" fill="url(#gradient4)" fill-rule="evenodd" stroke="none"/>
    <path d="M7.25 -11.7 Q5.9 -8.95 4.0 -8.0 L0.25 -7.8 Q-2.6 -8.1 -4.0 -9.0 L-5.0 -18.0 Q-2.7 -20.6 1.9 -20.05 6.65 -19.45 8.0 -16.0 8.6 -14.4 7.25 -11.7" fill="url(#gradient5)" fill-rule="evenodd" stroke="none"/>
    <path d="M-6.0 -5.0 Q-17.8 -4.15 -28.0 -10.0 -39.45 -21.25 -45.0 -36.0 L-24.35 -29.55 Q-12.85 -25.75 -6.0 -20.0 -2.35 -15.65 -1.0 -12.0 L-2.0 -10.0 Q-3.35 -6.95 -6.0 -5.0" fill="url(#gradient6)" fill-rule="evenodd" stroke="none"/>
  </g>
  <defs>
    <radialGradient cx="0" cy="0" fx="6.4" fy="0" gradientTransform="matrix(0.0034, -0.0368, 0.0497, 0.0046, 8.0, 22.0)" gradientUnits="userSpaceOnUse" id="gradient0" r="819.2" spreadMethod="pad">
      <stop offset="0.0392156862745098" stop-color="#7e50c5"/>
      <stop offset="0.3254901960784314" stop-color="#6235a6"/>
      <stop offset="0.7254901960784313" stop-color="#3f215f"/>
      <stop offset="1.0" stop-color="#201030"/>
    </radialGradient>
    <radialGradient cx="0" cy="0" fx="6.4" fy="0" gradientTransform="matrix(0.0191, -0.0296, 0.041, 0.0265, 6.0, 30.0)" gradientUnits="userSpaceOnUse" id="gradient1" r="819.2" spreadMethod="pad">
      <stop offset="0.07450980392156863" stop-color="#60389c"/>
      <stop offset="0.21568627450980393" stop-color="#552e92"/>
      <stop offset="0.32941176470588235" stop-color="#523186"/>
      <stop offset="0.7529411764705882" stop-color="#281843"/>
      <stop offset="1.0" stop-color="#110c1f"/>
    </radialGradient>
    <radialGradient cx="0" cy="0" gradientTransform="matrix(0.0397, -0.0044, 0.0044, 0.0397, -24.45, 19.8)" gradientUnits="userSpaceOnUse" id="gradient2" r="819.2" spreadMethod="pad">
      <stop offset="0.07058823529411765" stop-color="#7653c1"/>
      <stop offset="0.26666666666666666" stop-color="#7445ba"/>
      <stop offset="0.42745098039215684" stop-color="#6a40aa"/>
      <stop offset="0.9568627450980393" stop-color="#4d2b80"/>
    </radialGradient>
    <radialGradient cx="0" cy="0" gradientTransform="matrix(0.0354, 0.0151, -0.0106, 0.025, 33.5, -5.6)" gradientUnits="userSpaceOnUse" id="gradient3" r="819.2" spreadMethod="pad">
      <stop offset="0.07058823529411765" stop-color="#7756be"/>
      <stop offset="0.2627450980392157" stop-color="#664eb1"/>
      <stop offset="0.42745098039215684" stop-color="#5e47a3"/>
      <stop offset="0.7607843137254902" stop-color="#442d68"/>
    </radialGradient>
    <radialGradient cx="0" cy="0" fx="-1004.8000000000001" fy="0" gradientTransform="matrix(0.017, -0.0239, 0.0136, 0.0096, 18.4, -32.25)" gradientUnits="userSpaceOnUse" id="gradient4" r="819.2" spreadMethod="pad">
      <stop offset="0.00392156862745098" stop-color="#443476"/>
      <stop offset="0.22745098039215686" stop-color="#754fc6"/>
      <stop offset="0.5294117647058824" stop-color="#5f34a0"/>
      <stop offset="0.8862745098039215" stop-color="#613dad"/>
      <stop offset="1.0" stop-color="#6942bd"/>
    </radialGradient>
    <radialGradient cx="0" cy="0" gradientTransform="matrix(0.0093, 0.002, -0.0017, 0.0079, 2.4, -15.3)" gradientUnits="userSpaceOnUse" id="gradient5" r="819.2" spreadMethod="pad">
      <stop offset="0.20784313725490197" stop-color="#7956c5"/>
      <stop offset="0.5254901960784314" stop-color="#693aaf"/>
      <stop offset="0.7647058823529411" stop-color="#60359f"/>
      <stop offset="0.9882352941176471" stop-color="#4d2c7e"/>
    </radialGradient>
    <radialGradient cx="0" cy="0" fx="729.6" fy="0" gradientTransform="matrix(0.0352, 0.0117, -0.0055, 0.0167, -27.6, -19.75)" gradientUnits="userSpaceOnUse" id="gradient6" r="819.2" spreadMethod="pad">
      <stop offset="0.027450980392156862" stop-color="#57337d"/>
      <stop offset="0.29411764705882354" stop-color="#8468d7"/>
      <stop offset="0.6666666666666666" stop-color="#60399b"/>
      <stop offset="0.984313725490196" stop-color="#7445ba"/>
    </radialGradient>
  </defs>
</svg>
