<?xml version="1.0" encoding="UTF-8" standalone="no"?>
<svg xmlns:xlink="http://www.w3.org/1999/xlink" height="66.55px" width="66.55px" xmlns="http://www.w3.org/2000/svg">
  <g transform="matrix(1.0, 0.0, 0.0, 1.0, 33.25, 33.25)">
    <path d="M8.2 -14.15 L24.0 -24.0 14.2 -8.15 32.8 -8.75 16.4 0.0 32.8 8.8 14.2 8.2 24.05 24.05 8.2 14.2 8.8 32.8 0.05 16.4 -8.75 32.8 -8.15 14.2 -23.95 24.05 -14.15 8.2 -32.75 8.8 Q-24.55 4.45 -16.35 0.05 L-32.75 -8.75 -14.15 -8.15 -24.0 -23.95 -8.15 -14.15 -8.75 -32.75 0.05 -16.35 8.8 -32.75 8.2 -14.15" fill="#ffffff" fill-rule="evenodd" stroke="none"/>
    <path d="M8.2 -14.15 L24.0 -24.0 14.2 -8.15 32.8 -8.75 16.4 0.0 32.8 8.8 14.2 8.2 24.05 24.05 8.2 14.2 8.8 32.8 0.05 16.4 -8.75 32.8 -8.15 14.2 -23.95 24.05 -14.15 8.2 -32.75 8.8 Q-24.55 4.45 -16.35 0.05 L-32.75 -8.75 -14.15 -8.15 -24.0 -23.95 -8.15 -14.15 -8.75 -32.75 0.05 -16.35 8.8 -32.75 8.2 -14.15 Z" fill="none" stroke="#edc712" stroke-linecap="round" stroke-linejoin="round" stroke-width="1.0"/>
  </g>
</svg>
