<?xml version="1.0" encoding="UTF-8" standalone="no"?>
<svg xmlns:xlink="http://www.w3.org/1999/xlink" height="88.0px" width="30.0px" xmlns="http://www.w3.org/2000/svg">
  <g transform="matrix(1.0, 0.0, 0.0, 1.0, 15.0, 41.0)">
    <path d="M15.0 -26.0 L15.0 34.0 14.9 34.45 13.0 38.25 13.0 39.0 14.0 39.0 Q14.4 39.0 14.7 39.3 L15.0 40.0 15.0 46.0 14.7 46.7 14.0 47.0 -14.0 47.0 -14.7 46.7 -15.0 46.0 -15.0 40.0 -14.7 39.3 Q-14.4 39.0 -14.0 39.0 L-13.0 39.0 -13.0 38.25 -14.9 34.45 -15.0 34.0 -15.0 -26.0 Q-15.0 -32.2 -10.6 -36.6 -6.2 -41.0 0.0 -41.0 6.2 -41.0 10.6 -36.6 15.0 -32.2 15.0 -26.0" fill="#000000" fill-rule="evenodd" stroke="none"/>
    <path d="M12.0 42.0 L-12.0 42.0 -12.0 36.0 12.0 36.0 12.0 42.0" fill="#434343" fill-rule="evenodd" stroke="none"/>
    <path d="M-14.0 -20.0 L-14.0 -26.0 Q-14.0 -31.8 -9.9 -35.9 -5.8 -40.0 0.0 -40.0 5.8 -40.0 9.9 -35.9 14.0 -31.8 14.0 -26.0 L14.0 -20.0 -14.0 -20.0" fill="url(#gradient0)" fill-rule="evenodd" stroke="none"/>
    <path d="M14.0 34.0 L12.0 38.0 -12.0 38.0 -14.0 34.0 14.0 34.0" fill="url(#gradient1)" fill-rule="evenodd" stroke="none"/>
    <path d="M-14.0 40.0 L14.0 40.0 14.0 46.0 -14.0 46.0 -14.0 40.0" fill="url(#gradient2)" fill-rule="evenodd" stroke="none"/>
    <path d="M14.0 -20.0 L14.0 34.0 -14.0 34.0 -14.0 -20.0 14.0 -20.0" fill="url(#gradient3)" fill-rule="evenodd" stroke="none"/>
    <path d="M-14.0 -20.0 L14.0 -20.0" fill="none" stroke="#1c1c1c" stroke-linecap="round" stroke-linejoin="round" stroke-width="1.0"/>
    <path d="M4.5 -20.0 L4.5 -21.2 Q4.6 -24.5 5.2 -27.0 5.8 -30.0 6.8 -30.0 7.7 -30.0 8.4 -27.0 9.0 -24.5 9.1 -21.2 L9.1 -20.0 4.5 -20.0" fill="url(#gradient4)" fill-rule="evenodd" stroke="none"/>
    <path d="M4.5 -20.0 L9.1 -20.0 Q9.1 1.8 8.4 18.2 7.7 34.0 6.8 34.0 5.8 34.0 5.2 18.2 4.5 3.0 4.5 -20.0" fill="url(#gradient5)" fill-rule="evenodd" stroke="none"/>
  </g>
  <defs>
    <linearGradient gradientTransform="matrix(0.0171, 0.0, 0.0, 0.0122, 0.0, -30.0)" gradientUnits="userSpaceOnUse" id="gradient0" spreadMethod="pad" x1="-819.2" x2="819.2">
      <stop offset="0.0" stop-color="#404040"/>
      <stop offset="0.19607843137254902" stop-color="#202020"/>
      <stop offset="0.7372549019607844" stop-color="#606060"/>
      <stop offset="1.0" stop-color="#383838"/>
    </linearGradient>
    <linearGradient gradientTransform="matrix(0.0146, 0.0, 0.0, 1.0, 0.0, 0.0)" gradientUnits="userSpaceOnUse" id="gradient1" spreadMethod="pad" x1="-819.2" x2="819.2">
      <stop offset="0.0" stop-color="#606060"/>
      <stop offset="0.19607843137254902" stop-color="#404040"/>
      <stop offset="0.34901960784313724" stop-color="#3c3c3c"/>
      <stop offset="0.5372549019607843" stop-color="#5b5b5b"/>
      <stop offset="0.7607843137254902" stop-color="#6d6d6d"/>
      <stop offset="1.0" stop-color="#404040"/>
    </linearGradient>
    <linearGradient gradientTransform="matrix(0.0171, 0.0, 0.0, 0.0037, 0.0, 43.0)" gradientUnits="userSpaceOnUse" id="gradient2" spreadMethod="pad" x1="-819.2" x2="819.2">
      <stop offset="0.0" stop-color="#606060"/>
      <stop offset="0.19607843137254902" stop-color="#404040"/>
      <stop offset="0.34901960784313724" stop-color="#3c3c3c"/>
      <stop offset="0.5372549019607843" stop-color="#5b5b5b"/>
      <stop offset="0.7607843137254902" stop-color="#6d6d6d"/>
      <stop offset="1.0" stop-color="#404040"/>
    </linearGradient>
    <linearGradient gradientTransform="matrix(0.0171, 0.0, 0.0, 0.033, 0.0, 7.0)" gradientUnits="userSpaceOnUse" id="gradient3" spreadMethod="pad" x1="-819.2" x2="819.2">
      <stop offset="0.0" stop-color="#606060"/>
      <stop offset="0.19607843137254902" stop-color="#404040"/>
      <stop offset="0.34901960784313724" stop-color="#3c3c3c"/>
      <stop offset="0.5372549019607843" stop-color="#5b5b5b"/>
      <stop offset="0.7607843137254902" stop-color="#6d6d6d"/>
      <stop offset="1.0" stop-color="#404040"/>
    </linearGradient>
    <radialGradient cx="0" cy="0" gradientTransform="matrix(0.014, 0.0, 0.0, 0.0123, 6.8, -19.9)" gradientUnits="userSpaceOnUse" id="gradient4" r="819.2" spreadMethod="pad">
      <stop offset="0.0" stop-color="#7b7b7b"/>
      <stop offset="1.0" stop-color="#7b7b7b" stop-opacity="0.0"/>
    </radialGradient>
    <radialGradient cx="0" cy="0" gradientTransform="matrix(0.014, 0.0, 0.0, 0.0663, 6.8, -20.2)" gradientUnits="userSpaceOnUse" id="gradient5" r="819.2" spreadMethod="pad">
      <stop offset="0.0" stop-color="#808080"/>
      <stop offset="1.0" stop-color="#717171" stop-opacity="0.0"/>
    </radialGradient>
  </defs>
</svg>
