<?xml version="1.0" encoding="UTF-8" standalone="no"?>
<svg xmlns:xlink="http://www.w3.org/1999/xlink" height="983.6px" width="603.75px" xmlns="http://www.w3.org/2000/svg">
  <g transform="matrix(1.0, 0.0, 0.0, 1.0, 70.0, 163.9)">
    <path d="M468.1 -163.9 L533.75 -163.9 533.75 282.25 485.8 307.8 365.3 -4.8 468.1 -163.9 M347.45 -135.9 L251.4 12.85 194.05 -135.9 347.45 -135.9 M73.55 357.75 L91.75 329.55 188.0 385.1 116.8 426.15 73.55 357.75 M193.85 142.7 L255.3 47.55 288.3 133.15 193.85 142.7 M316.55 296.4 L281.9 316.4 231.95 287.55 235.65 253.6 298.35 247.3 316.55 296.4 M236.75 243.45 L241.0 204.7 319.0 196.8 333.25 233.7 236.75 243.45 M9.25 243.45 L-60.0 133.95 -60.0 -109.9 74.45 -109.9 135.4 48.2 9.25 243.45 M259.9 632.25 L218.05 566.0 328.55 595.6 259.9 632.25 M65.25 574.55 L112.0 648.5 -70.0 745.6 -70.0 577.05 -48.7 544.05 65.25 574.55 M46.4 490.15 L89.1 424.05 148.1 517.4 46.4 490.15 M196.95 528.8 L179.15 500.65 243.05 463.8 280.15 508.15 253.1 543.85 196.95 528.8 M305.15 475.15 L281.25 441.7 326.6 415.5 334.6 436.2 305.15 475.15 M256.8 664.15 L355.15 819.7 69.95 819.7 69.95 763.8 256.8 664.15 M-30.65 455.7 L-48.0 451.05 -48.0 282.7 15.9 383.7 -30.65 455.7 M344.7 649.9 L421.25 609.05 488.25 627.0 523.75 719.2 523.75 809.7 445.75 809.7 344.7 649.9 M444.9 522.9 L483.05 502.5 496.2 536.65 444.9 522.9 M413.8 399.2 L448.85 490.05 401.15 515.45 338.5 498.65 413.8 399.2" fill="#000000" fill-rule="evenodd" stroke="none"/>
  </g>
</svg>
