<?xml version="1.0" encoding="UTF-8" standalone="no"?>
<svg xmlns:xlink="http://www.w3.org/1999/xlink" height="120.0px" width="45.15px" xmlns="http://www.w3.org/2000/svg">
  <g transform="matrix(1.0, 0.0, 0.0, 1.0, 22.55, 59.5)">
    <path d="M9.9 -56.65 Q14.65 -53.85 17.2 -49.2 17.7 -48.35 17.4 -47.35 17.15 -46.4 16.3 -45.85 L11.15 -42.75 Q10.3 -42.25 9.4 -42.4 8.95 -42.5 8.6 -42.7 L7.4 -41.9 6.9 -41.65 Q7.5 -40.3 7.5 -38.75 L7.5 -37.35 Q10.5 -34.3 10.5 -30.0 10.5 -25.7 7.5 -22.65 L7.5 -20.25 Q7.5 -17.45 5.55 -15.45 L4.95 -14.95 Q12.6 -7.85 16.75 -1.2 22.0 7.4 22.55 16.85 L22.55 16.9 Q23.1 26.75 17.0 34.75 L16.9 34.85 14.8 37.25 15.15 37.7 Q15.5 38.3 15.5 39.05 15.5 39.75 15.1 40.4 L13.1 43.4 11.85 44.4 11.8 44.4 Q11.0 44.65 10.2 44.4 L9.8 44.25 10.25 44.95 Q10.65 45.7 10.45 46.55 L9.6 47.95 Q4.75 51.9 2.4 58.8 L1.5 60.05 0.0 60.5 Q-0.8 60.5 -1.45 60.05 L-1.4 60.05 Q-2.1 59.55 -2.35 58.85 L-2.35 58.8 Q-4.75 51.95 -9.6 47.95 L-10.45 46.55 Q-10.65 45.7 -10.25 44.95 L-9.75 44.25 -10.15 44.4 -10.2 44.4 Q-11.0 44.65 -11.8 44.4 -12.65 44.1 -13.1 43.4 L-15.1 40.4 Q-15.5 39.75 -15.5 39.05 -15.5 38.3 -15.1 37.65 L-14.75 37.25 -16.85 34.85 -16.95 34.75 Q-23.05 26.75 -22.5 16.9 L-22.5 16.85 Q-21.95 7.4 -16.65 -1.2 -12.6 -7.85 -4.95 -14.95 L-5.5 -15.45 Q-7.5 -17.45 -7.5 -20.25 L-7.5 -22.65 Q-10.5 -25.7 -10.5 -30.0 -10.5 -34.3 -7.5 -37.35 L-7.5 -38.75 Q-7.5 -40.3 -6.85 -41.65 L-7.35 -41.9 -8.6 -42.7 Q-8.95 -42.5 -9.35 -42.4 -10.3 -42.25 -11.1 -42.75 L-16.25 -45.85 Q-17.15 -46.4 -17.4 -47.35 -17.7 -48.35 -17.2 -49.2 L-17.15 -49.2 Q-14.6 -53.85 -9.85 -56.65 -5.2 -59.45 0.0 -59.5 L0.05 -59.5 Q5.2 -59.45 9.9 -56.65" fill="#000000" fill-rule="evenodd" stroke="none"/>
    <path d="M0.0 40.0 L0.0 58.0 Q-2.6 50.4 -8.0 46.0 -6.3 45.15 -6.55 43.3 -6.8 41.35 -9.0 40.0 L0.0 40.0" fill="url(#gradient0)" fill-rule="evenodd" stroke="none"/>
    <path d="M9.0 40.0 Q6.8 41.35 6.55 43.3 6.3 45.15 8.0 46.0 2.6 50.4 0.0 58.0 L0.0 40.0 9.0 40.0" fill="url(#gradient1)" fill-rule="evenodd" stroke="none"/>
    <path d="M11.0 43.8 Q4.55 41.6 0.0 48.8 -4.55 41.6 -11.0 43.8 L-13.0 40.8 Q-10.65 39.7 -11.0 36.8 L0.0 36.8 11.0 36.8 Q10.65 39.7 13.0 40.8 L11.0 43.8" fill="#000000" fill-opacity="0.2" fill-rule="evenodd" stroke="none"/>
    <path d="M0.0 47.0 Q-4.55 39.8 -11.0 42.0 L-13.0 39.0 Q-10.65 37.9 -11.0 35.0 L0.0 35.0 0.0 47.0" fill="url(#gradient2)" fill-rule="evenodd" stroke="none"/>
    <path d="M11.0 42.0 Q4.55 39.8 0.0 47.0 L0.0 35.0 11.0 35.0 Q10.65 37.9 13.0 39.0 L11.0 42.0" fill="url(#gradient3)" fill-rule="evenodd" stroke="none"/>
    <path d="M4.0 40.0 L0.0 42.0 -4.0 40.0 -4.0 38.0 4.0 38.0 4.0 40.0" fill="#515760" fill-rule="evenodd" stroke="none"/>
    <path d="M3.75 -41.75 Q5.0 -40.5 5.0 -38.75 L5.0 -20.25 Q5.0 -18.5 3.75 -17.25 2.5 -16.0 0.75 -16.0 L-0.75 -16.0 Q-2.5 -16.0 -3.75 -17.25 -5.0 -18.5 -5.0 -20.25 L-5.0 -38.75 Q-5.0 -40.5 -3.75 -41.75 -2.5 -43.0 -0.75 -43.0 L0.75 -43.0 Q2.5 -43.0 3.75 -41.75 M2.0 -39.95 Q1.45 -40.5 0.75 -40.5 L-0.75 -40.5 Q-1.45 -40.5 -1.95 -39.95 -2.5 -39.45 -2.5 -38.75 L-2.5 -20.25 Q-2.5 -19.55 -1.95 -19.0 -1.45 -18.5 -0.75 -18.5 L0.75 -18.5 Q1.45 -18.5 2.0 -19.0 2.5 -19.55 2.5 -20.25 L2.5 -38.75 Q2.5 -39.45 2.0 -39.95" fill="url(#gradient4)" fill-rule="evenodd" stroke="none"/>
    <path d="M2.0 -39.0 L-2.0 -39.0 -2.0 -44.0 2.0 -44.0 2.0 -39.0 M2.0 -15.0 L-2.0 -15.0 -2.0 -20.0 2.0 -20.0 2.0 -15.0" fill="#000000" fill-opacity="0.2" fill-rule="evenodd" stroke="none"/>
    <path d="M1.05 -20.55 L1.5 -19.5 1.5 -13.5 Q1.5 -12.9 1.05 -12.45 0.6 -12.0 0.0 -12.0 -0.6 -12.0 -1.05 -12.45 -1.5 -12.9 -1.5 -13.5 L-1.5 -19.5 -1.05 -20.55 0.0 -21.0 1.05 -20.55" fill="url(#gradient5)" fill-rule="evenodd" stroke="none"/>
    <path d="M0.0 -57.0 Q4.5 -56.95 8.6 -54.5 12.75 -52.05 15.0 -48.0 L9.85 -44.9 9.0 -46.0 Q4.9 -50.95 0.0 -51.0 -4.9 -50.95 -9.0 -46.0 L-9.85 -44.9 -15.0 -48.0 Q-12.75 -52.05 -8.6 -54.5 -4.5 -56.95 0.0 -57.0" fill="url(#gradient6)" fill-rule="evenodd" stroke="none"/>
    <path d="M2.65 -46.3 Q1.55 -46.4 1.5 -45.15 L1.5 -40.5 Q1.5 -39.9 1.05 -39.45 0.6 -39.0 0.0 -39.0 -0.6 -39.0 -1.05 -39.45 -1.5 -39.9 -1.5 -40.5 L-1.5 -45.15 Q-1.55 -46.4 -2.65 -46.3 -3.95 -46.15 -6.0 -44.0 L-9.0 -46.0 Q-4.9 -50.95 0.0 -51.0 4.9 -50.95 9.0 -46.0 L6.0 -44.0 Q3.95 -46.15 2.65 -46.3" fill="url(#gradient7)" fill-rule="evenodd" stroke="none"/>
    <path d="M9.85 -44.9 L14.1 -47.45 15.0 -46.0 9.85 -42.9 9.0 -44.0 Q4.45 -49.5 -0.1 -49.55 -4.45 -49.5 -9.0 -44.0 L-9.85 -42.9 -15.0 -46.0 -14.1 -47.45 -9.85 -44.9 -9.0 -46.0 Q-4.9 -50.95 0.0 -51.0 4.9 -50.95 9.0 -46.0 L9.85 -44.9" fill="#000000" fill-opacity="0.2" fill-rule="evenodd" stroke="none"/>
    <path d="M1.05 -39.45 Q0.6 -39.0 0.0 -39.0 -0.6 -39.0 -1.05 -39.45 -1.5 -39.9 -1.5 -40.5 L-1.5 -45.15 -1.75 -46.0 1.75 -46.0 1.5 -45.15 1.5 -40.5 Q1.5 -39.9 1.05 -39.45" fill="url(#gradient8)" fill-rule="evenodd" stroke="none"/>
    <path d="M5.65 -23.35 Q3.3 -21.0 0.0 -21.0 -3.3 -21.0 -5.65 -23.35 -8.0 -25.7 -8.0 -29.0 -8.0 -32.3 -5.65 -34.65 -3.3 -37.0 0.0 -37.0 3.3 -37.0 5.65 -34.65 8.0 -32.3 8.0 -29.0 8.0 -25.7 5.65 -23.35" fill="#000000" fill-opacity="0.2" fill-rule="evenodd" stroke="none"/>
    <path d="M5.65 -24.35 Q3.3 -22.0 0.0 -22.0 -3.3 -22.0 -5.65 -24.35 -8.0 -26.7 -8.0 -30.0 -8.0 -33.3 -5.65 -35.65 -3.3 -38.0 0.0 -38.0 3.3 -38.0 5.65 -35.65 8.0 -33.3 8.0 -30.0 8.0 -26.7 5.65 -24.35" fill="url(#gradient9)" fill-rule="evenodd" stroke="none"/>
    <path d="M3.9 -33.85 Q5.5 -32.25 5.5 -30.0 5.5 -27.75 3.9 -26.1 2.25 -24.5 0.0 -24.5 -2.25 -24.5 -3.85 -26.1 -5.5 -27.75 -5.5 -30.0 -5.5 -32.25 -3.85 -33.85 -2.25 -35.5 0.0 -35.5 2.25 -35.5 3.9 -33.85" fill="url(#gradient10)" fill-rule="evenodd" stroke="none"/>
    <path d="M5.5 -30.0 Q5.5 -27.75 3.9 -26.1 2.25 -24.5 0.0 -24.5 -2.25 -24.5 -3.85 -26.1 -5.5 -27.75 -5.5 -30.0 -5.5 -32.25 -3.85 -33.85 -2.25 -35.5 0.0 -35.5 2.25 -35.5 3.9 -33.85 5.5 -32.25 5.5 -30.0" fill="url(#gradient11)" fill-rule="evenodd" stroke="none"/>
    <path d="M0.0 -16.0 L0.0 -7.9 Q-6.1 -2.15 -9.45 3.25 -13.55 9.95 -14.0 17.35 -14.35 24.1 -10.15 29.55 L-9.95 29.85 Q-6.0 34.85 -0.05 35.0 L0.0 35.0 0.0 41.0 Q-9.05 40.95 -14.95 33.2 -20.5 25.95 -20.0 17.0 -19.5 8.15 -14.55 0.1 -9.8 -7.65 0.0 -16.0" fill="url(#gradient12)" fill-rule="evenodd" stroke="none"/>
    <path d="M0.0 -7.9 L0.0 -16.0 Q9.8 -7.65 14.6 0.1 19.55 8.15 20.05 17.0 20.55 25.95 15.0 33.2 9.05 40.95 0.0 41.0 L0.0 35.0 0.05 35.0 Q6.0 34.85 10.05 29.85 L10.25 29.55 Q14.4 24.1 14.05 17.35 13.6 9.95 9.5 3.25 L9.5 3.3 Q6.1 -2.15 0.0 -7.9" fill="url(#gradient13)" fill-rule="evenodd" stroke="none"/>
    <path d="M0.0 -13.35 Q-8.55 -5.85 -12.85 1.15 -17.5 8.75 -18.0 17.15 -18.45 25.35 -13.35 32.0 -8.1 38.95 0.0 39.0 8.1 38.95 13.4 32.0 18.5 25.3 18.05 17.1 17.55 8.7 12.9 1.1 8.55 -5.9 0.0 -13.4 L0.0 -13.35 Z" fill="none" stroke="url(#gradient14)" stroke-linecap="round" stroke-linejoin="round" stroke-width="0.25"/>
    <path d="M14.05 17.35 Q14.4 24.1 10.25 29.55 L10.05 29.85 Q6.0 34.85 0.05 35.0 L-0.05 35.0 Q-6.0 34.85 -9.95 29.85 L-10.15 29.55 Q-14.35 24.1 -14.0 17.35 -13.55 9.95 -9.45 3.25 -6.1 -2.15 0.0 -7.9 6.1 -2.15 9.5 3.3 L9.5 3.25 Q13.6 9.95 14.05 17.35" fill="url(#gradient15)" fill-rule="evenodd" stroke="none"/>
    <path d="M-4.0 -2.0 L-0.1 -7.8 0.0 -7.9 0.15 -7.8 4.0 -2.0 0.0 4.0 -4.0 -2.0" fill="url(#gradient16)" fill-rule="evenodd" stroke="none"/>
    <path d="M4.0 -2.0 L4.7 -3.05 Q7.2 -0.25 9.0 2.5 L8.0 4.0 4.0 -2.0" fill="url(#gradient17)" fill-rule="evenodd" stroke="none"/>
    <path d="M0.0 4.0 L4.0 10.0 0.0 16.0 -4.0 10.0 0.0 4.0" fill="url(#gradient18)" fill-rule="evenodd" stroke="none"/>
    <path d="M8.0 4.0 L12.0 10.0 8.0 16.0 4.0 10.0 8.0 4.0" fill="#ffffff" fill-rule="evenodd" stroke="none"/>
    <path d="M-8.0 4.0 L-8.95 2.55 Q-7.2 -0.25 -4.7 -3.05 L-4.0 -2.0 -8.0 4.0" fill="#ffffff" fill-opacity="0.7529412" fill-rule="evenodd" stroke="none"/>
    <path d="M-8.0 16.0 L-12.0 10.0 -8.0 4.0 -4.0 10.0 -8.0 16.0" fill="url(#gradient19)" fill-rule="evenodd" stroke="none"/>
    <path d="M-12.0 22.0 L-13.2 23.85 Q-13.95 21.5 -14.0 19.0 L-12.0 22.0" fill="#808080" fill-opacity="0.49019608" fill-rule="evenodd" stroke="none"/>
    <path d="M12.0 22.0 L14.1 18.9 14.1 19.1 14.1 19.35 13.55 22.9 13.25 23.9 12.0 22.0" fill="#8a8a8a" fill-opacity="0.67058825" fill-rule="evenodd" stroke="none"/>
    <path d="M8.0 28.0 L9.6 30.4 Q7.25 33.1 4.25 34.2 L8.0 28.0" fill="url(#gradient20)" fill-rule="evenodd" stroke="none"/>
    <path d="M-4.0 22.0 L-8.0 28.0 -12.0 22.0 -8.0 16.0 -4.0 22.0" fill="url(#gradient21)" fill-rule="evenodd" stroke="none"/>
    <path d="M4.0 22.0 L0.0 28.0 -4.0 22.0 0.0 16.0 4.0 22.0" fill="url(#gradient22)" fill-rule="evenodd" stroke="none"/>
    <path d="M-8.0 28.0 L-4.2 34.25 -6.55 33.05 Q-8.05 32.15 -9.2 30.75 L-9.55 30.35 -8.0 28.0" fill="url(#gradient23)" fill-rule="evenodd" stroke="none"/>
    <path d="M8.0 16.0 L12.0 22.0 8.0 28.0 4.0 22.0 8.0 16.0" fill="url(#gradient24)" fill-rule="evenodd" stroke="none"/>
    <path d="M0.0 28.0 L4.2 34.25 4.15 34.25 4.2 34.25 3.75 34.4 0.05 35.0 -0.05 35.0 -0.15 35.0 -0.45 35.0 -0.55 35.0 -2.6 34.7 -3.75 34.4 -4.2 34.25 0.0 28.0" fill="url(#gradient25)" fill-rule="evenodd" stroke="none"/>
    <path d="M8.0 4.0 L9.0 2.5 9.5 3.3 9.5 3.25 Q11.35 6.25 12.45 9.35 L12.0 10.0 8.0 4.0 M12.0 22.0 L13.25 23.9 Q12.3 26.85 10.25 29.55 L10.05 29.85 9.6 30.4 8.0 28.0 12.0 22.0 M-12.0 10.0 L-12.4 9.4 Q-11.3 6.25 -9.45 3.25 L-8.95 2.55 -8.0 4.0 -12.0 10.0" fill="#898989" fill-rule="evenodd" stroke="none"/>
    <path d="M4.0 -2.0 L8.0 4.0 4.0 10.0 0.0 4.0 4.0 -2.0" fill="url(#gradient26)" fill-rule="evenodd" stroke="none"/>
    <path d="M-8.0 4.0 L-4.0 -2.0 0.0 4.0 -4.0 10.0 -8.0 4.0" fill="url(#gradient27)" fill-rule="evenodd" stroke="none"/>
    <path d="M4.0 -2.0 L0.15 -7.8 4.7 -3.05 4.0 -2.0" fill="url(#gradient28)" fill-rule="evenodd" stroke="none"/>
    <path d="M-4.0 -2.0 L-4.7 -3.05 -0.1 -7.8 -4.0 -2.0" fill="url(#gradient29)" fill-rule="evenodd" stroke="none"/>
    <path d="M-12.0 22.0 L-14.0 19.0 -14.0 17.35 Q-13.85 14.45 -13.1 11.65 L-12.0 10.0 -8.0 16.0 -12.0 22.0" fill="url(#gradient30)" fill-rule="evenodd" stroke="none"/>
    <path d="M-4.0 22.0 L-8.0 16.0 -4.0 10.0 0.0 16.0 -4.0 22.0" fill="url(#gradient31)" fill-rule="evenodd" stroke="none"/>
    <path d="M8.0 16.0 L4.0 22.0 0.0 16.0 4.0 10.0 8.0 16.0" fill="url(#gradient32)" fill-rule="evenodd" stroke="none"/>
    <path d="M8.0 28.0 L4.3 34.2 4.15 34.25 0.0 28.0 4.0 22.0 8.0 28.0" fill="url(#gradient33)" fill-rule="evenodd" stroke="none"/>
    <path d="M0.0 28.0 L-4.1 34.25 -4.3 34.2 -8.0 28.0 -4.0 22.0 0.0 28.0" fill="url(#gradient34)" fill-rule="evenodd" stroke="none"/>
    <path d="M-8.0 28.0 L-9.55 30.35 -9.95 29.85 -10.15 29.55 Q-12.25 26.85 -13.2 23.85 L-12.0 22.0 -8.0 28.0" fill="url(#gradient35)" fill-rule="evenodd" stroke="none"/>
    <path d="M12.0 10.0 L13.2 11.75 Q13.9 14.5 14.05 17.35 L14.1 18.9 12.0 22.0 8.0 16.0 12.0 10.0" fill="#cdcdcd" fill-rule="evenodd" stroke="none"/>
  </g>
  <defs>
    <radialGradient cx="0" cy="0" gradientTransform="matrix(0.0144, 0.0, 0.0, 0.0301, 0.85, 58.0)" gradientUnits="userSpaceOnUse" id="gradient0" r="819.2" spreadMethod="pad">
      <stop offset="0.10196078431372549" stop-color="#dfdfdf"/>
      <stop offset="0.2196078431372549" stop-color="#cacaca"/>
      <stop offset="0.34901960784313724" stop-color="#c1c4c4"/>
      <stop offset="0.6352941176470588" stop-color="#717171"/>
      <stop offset="0.6823529411764706" stop-color="#626673"/>
      <stop offset="0.8156862745098039" stop-color="#4e545c"/>
      <stop offset="1.0" stop-color="#67717a"/>
    </radialGradient>
    <radialGradient cx="0" cy="0" gradientTransform="matrix(0.0161, 0.0, 0.0, 0.0235, 0.0, 58.0)" gradientUnits="userSpaceOnUse" id="gradient1" r="819.2" spreadMethod="pad">
      <stop offset="0.24313725490196078" stop-color="#ffffff"/>
      <stop offset="0.3333333333333333" stop-color="#ffffff"/>
      <stop offset="0.5411764705882353" stop-color="#ffffff"/>
      <stop offset="0.6823529411764706" stop-color="#d1d3d8"/>
      <stop offset="0.8156862745098039" stop-color="#4e545c"/>
      <stop offset="1.0" stop-color="#67717a"/>
    </radialGradient>
    <radialGradient cx="0" cy="0" gradientTransform="matrix(0.0303, 0.0, 0.0, 0.0186, -10.8, 36.1)" gradientUnits="userSpaceOnUse" id="gradient2" r="819.2" spreadMethod="pad">
      <stop offset="0.0" stop-color="#bec4c7"/>
      <stop offset="0.25882352941176473" stop-color="#50565e"/>
      <stop offset="0.6078431372549019" stop-color="#626673"/>
      <stop offset="1.0" stop-color="#d1d6d8"/>
    </radialGradient>
    <radialGradient cx="0" cy="0" gradientTransform="matrix(0.0218, 0.0, 0.0, 0.0109, 0.0, 44.0)" gradientUnits="userSpaceOnUse" id="gradient3" r="819.2" spreadMethod="pad">
      <stop offset="0.15294117647058825" stop-color="#ffffff"/>
      <stop offset="0.21568627450980393" stop-color="#ededed"/>
      <stop offset="0.34901960784313724" stop-color="#dadcdc"/>
      <stop offset="0.5411764705882353" stop-color="#868686"/>
      <stop offset="0.6078431372549019" stop-color="#74797f"/>
      <stop offset="0.792156862745098" stop-color="#626a73"/>
      <stop offset="1.0" stop-color="#898e92"/>
    </radialGradient>
    <radialGradient cx="0" cy="0" gradientTransform="matrix(0.0, -0.0201, 0.0099, 0.0, 0.0, -29.5)" gradientUnits="userSpaceOnUse" id="gradient4" r="819.2" spreadMethod="pad">
      <stop offset="0.396078431372549" stop-color="#525761"/>
      <stop offset="0.6235294117647059" stop-color="#606060"/>
      <stop offset="0.7529411764705882" stop-color="#666b6f"/>
      <stop offset="0.8470588235294118" stop-color="#a9aaab"/>
      <stop offset="0.9215686274509803" stop-color="#ffffff"/>
    </radialGradient>
    <radialGradient cx="0" cy="0" gradientTransform="matrix(0.0024, 0.0, 0.0, 0.006, 0.0, -17.2)" gradientUnits="userSpaceOnUse" id="gradient5" r="819.2" spreadMethod="pad">
      <stop offset="0.10588235294117647" stop-color="#ffffff"/>
      <stop offset="0.24313725490196078" stop-color="#dedfe0"/>
      <stop offset="0.34901960784313724" stop-color="#c8cacc"/>
      <stop offset="0.5529411764705883" stop-color="#7a808b"/>
      <stop offset="0.7450980392156863" stop-color="#4d5255"/>
      <stop offset="0.8431372549019608" stop-color="#4d5155"/>
      <stop offset="0.9254901960784314" stop-color="#676c7a"/>
      <stop offset="1.0" stop-color="#bec4c7"/>
    </radialGradient>
    <radialGradient cx="0" cy="0" gradientTransform="matrix(0.0253, 0.0, 0.0, 0.022, 0.0, -56.0)" gradientUnits="userSpaceOnUse" id="gradient6" r="819.2" spreadMethod="pad">
      <stop offset="0.20392156862745098" stop-color="#ffffff"/>
      <stop offset="0.33725490196078434" stop-color="#dedfe0"/>
      <stop offset="0.4470588235294118" stop-color="#c8cacc"/>
      <stop offset="0.5372549019607843" stop-color="#a29d9d"/>
      <stop offset="0.6705882352941176" stop-color="#697072"/>
      <stop offset="0.8392156862745098" stop-color="#676c7a"/>
      <stop offset="0.9882352941176471" stop-color="#b4babc"/>
    </radialGradient>
    <radialGradient cx="0" cy="0" gradientTransform="matrix(0.0219, 0.0, 0.0, 0.0219, 0.0, -56.0)" gradientUnits="userSpaceOnUse" id="gradient7" r="819.2" spreadMethod="pad">
      <stop offset="0.17254901960784313" stop-color="#ffffff"/>
      <stop offset="0.29411764705882354" stop-color="#dedfe0"/>
      <stop offset="0.38823529411764707" stop-color="#c8cacc"/>
      <stop offset="0.5411764705882353" stop-color="#7a808b"/>
      <stop offset="0.6" stop-color="#686464"/>
      <stop offset="0.6705882352941176" stop-color="#4d5255"/>
      <stop offset="0.792156862745098" stop-color="#525658"/>
      <stop offset="0.8784313725490196" stop-color="#676c7a"/>
      <stop offset="0.9882352941176471" stop-color="#b4babc"/>
    </radialGradient>
    <radialGradient cx="0" cy="0" gradientTransform="matrix(0.0036, 0.0, 0.0, 0.0097, 0.0, -46.0)" gradientUnits="userSpaceOnUse" id="gradient8" r="819.2" spreadMethod="pad">
      <stop offset="0.0" stop-color="#717781"/>
      <stop offset="0.17647058823529413" stop-color="#717781"/>
      <stop offset="0.24313725490196078" stop-color="#717781"/>
      <stop offset="0.4470588235294118" stop-color="#717781"/>
      <stop offset="0.6784313725490196" stop-color="#4d5255"/>
      <stop offset="0.7647058823529411" stop-color="#4d5155"/>
      <stop offset="0.8274509803921568" stop-color="#676c7a"/>
      <stop offset="1.0" stop-color="#ffffff"/>
    </radialGradient>
    <radialGradient cx="0" cy="0" gradientTransform="matrix(0.0178, 0.0, 0.0, 0.0178, 0.0, -36.0)" gradientUnits="userSpaceOnUse" id="gradient9" r="819.2" spreadMethod="pad">
      <stop offset="0.15294117647058825" stop-color="#ffffff"/>
      <stop offset="0.21568627450980393" stop-color="#ededed"/>
      <stop offset="0.34901960784313724" stop-color="#dadcdc"/>
      <stop offset="0.47058823529411764" stop-color="#b3a8a8"/>
      <stop offset="0.6392156862745098" stop-color="#626673"/>
      <stop offset="0.7647058823529411" stop-color="#4e545c"/>
      <stop offset="0.9607843137254902" stop-color="#959aa2"/>
    </radialGradient>
    <radialGradient cx="0" cy="0" fx="406.40000000000003" fy="0" gradientTransform="matrix(0.0, -0.0073, 0.0073, 0.0, 0.0, -30.1)" gradientUnits="userSpaceOnUse" id="gradient10" r="819.2" spreadMethod="pad">
      <stop offset="0.10980392156862745" stop-color="#ffffff"/>
      <stop offset="0.12941176470588237" stop-color="#ffffff"/>
      <stop offset="0.14901960784313725" stop-color="#ffffff"/>
      <stop offset="0.7294117647058823" stop-color="#eaeaea" stop-opacity="0.84313726"/>
      <stop offset="0.8156862745098039" stop-color="#e2e2e2" stop-opacity="0.9411765"/>
      <stop offset="0.8823529411764706" stop-color="#ededed" stop-opacity="0.92156863"/>
      <stop offset="1.0" stop-color="#eaeaea"/>
    </radialGradient>
    <radialGradient cx="0" cy="0" gradientTransform="matrix(0.0159, 0.0, 0.0, 0.0163, 0.1, -27.1)" gradientUnits="userSpaceOnUse" id="gradient11" r="819.2" spreadMethod="pad">
      <stop offset="0.07450980392156863" stop-color="#a3a3a3"/>
      <stop offset="0.13725490196078433" stop-color="#c4c4c4"/>
      <stop offset="0.3137254901960784" stop-color="#d7d7d7" stop-opacity="0.21176471"/>
      <stop offset="0.5764705882352941" stop-color="#ffffff" stop-opacity="0.0"/>
    </radialGradient>
    <radialGradient cx="0" cy="0" gradientTransform="matrix(0.0369, 0.0, 0.0, 0.0369, 0.0, 0.0)" gradientUnits="userSpaceOnUse" id="gradient12" r="819.2" spreadMethod="pad">
      <stop offset="0.17647058823529413" stop-color="#ffffff"/>
      <stop offset="0.24313725490196078" stop-color="#dedfe0"/>
      <stop offset="0.34901960784313724" stop-color="#c8cacc"/>
      <stop offset="0.403921568627451" stop-color="#b5b5b5"/>
      <stop offset="0.5529411764705883" stop-color="#7a808b"/>
      <stop offset="0.7215686274509804" stop-color="#4d5255"/>
      <stop offset="0.792156862745098" stop-color="#4d5155"/>
      <stop offset="0.8784313725490196" stop-color="#676c7a"/>
      <stop offset="1.0" stop-color="#bec4c7"/>
    </radialGradient>
    <radialGradient cx="0" cy="0" gradientTransform="matrix(0.0501, 0.0, 0.0, 0.0501, 6.0, -4.0)" gradientUnits="userSpaceOnUse" id="gradient13" r="819.2" spreadMethod="pad">
      <stop offset="0.17647058823529413" stop-color="#ffffff"/>
      <stop offset="0.24313725490196078" stop-color="#dedfe0"/>
      <stop offset="0.34901960784313724" stop-color="#c8cacc"/>
      <stop offset="0.5529411764705883" stop-color="#7a808b"/>
      <stop offset="0.7215686274509804" stop-color="#4d5255"/>
      <stop offset="0.792156862745098" stop-color="#4d5155"/>
      <stop offset="0.8784313725490196" stop-color="#676c7a"/>
      <stop offset="1.0" stop-color="#a5acaf"/>
    </radialGradient>
    <linearGradient gradientTransform="matrix(0.0, -0.0347, 0.0321, 0.0, 0.0, 12.8)" gradientUnits="userSpaceOnUse" id="gradient14" spreadMethod="pad" x1="-819.2" x2="819.2">
      <stop offset="0.0" stop-color="#dfdfdf"/>
      <stop offset="0.34901960784313724" stop-color="#dadcdc"/>
      <stop offset="0.6078431372549019" stop-color="#626673"/>
      <stop offset="1.0" stop-color="#eff1f1"/>
    </linearGradient>
    <linearGradient gradientTransform="matrix(0.0166, -0.017, 0.0187, 0.0183, 0.0, 13.5)" gradientUnits="userSpaceOnUse" id="gradient15" spreadMethod="pad" x1="-819.2" x2="819.2">
      <stop offset="0.00392156862745098" stop-color="#ffffff"/>
      <stop offset="0.050980392156862744" stop-color="#ffffff"/>
      <stop offset="0.20784313725490197" stop-color="#ffffff" stop-opacity="0.93333334"/>
      <stop offset="0.44313725490196076" stop-color="#f8f8f8"/>
      <stop offset="0.6274509803921569" stop-color="#f4f4f4"/>
      <stop offset="0.9137254901960784" stop-color="#c6c6c6" stop-opacity="0.9411765"/>
      <stop offset="0.9725490196078431" stop-color="#9f9f9f" stop-opacity="0.92156863"/>
      <stop offset="1.0" stop-color="#b8b8b8"/>
    </linearGradient>
    <linearGradient gradientTransform="matrix(0.0, -0.007, 0.0073, 0.0, 0.0, -1.95)" gradientUnits="userSpaceOnUse" id="gradient16" spreadMethod="pad" x1="-819.2" x2="819.2">
      <stop offset="0.0" stop-color="#fbfbfb"/>
      <stop offset="1.0" stop-color="#ffffff"/>
    </linearGradient>
    <linearGradient gradientTransform="matrix(0.0031, 0.0, 0.0, 0.0043, 6.5, 0.45)" gradientUnits="userSpaceOnUse" id="gradient17" spreadMethod="pad" x1="-819.2" x2="819.2">
      <stop offset="0.0" stop-color="#f4f4f4"/>
      <stop offset="1.0" stop-color="#ffffff"/>
    </linearGradient>
    <linearGradient gradientTransform="matrix(0.0, -0.007, 0.0073, 0.0, 0.0, 10.0)" gradientUnits="userSpaceOnUse" id="gradient18" spreadMethod="pad" x1="-819.2" x2="819.2">
      <stop offset="0.33725490196078434" stop-color="#ffffff"/>
      <stop offset="1.0" stop-color="#e6e6e6"/>
    </linearGradient>
    <linearGradient gradientTransform="matrix(0.0, -0.007, 0.0073, 0.0, -8.0, 10.0)" gradientUnits="userSpaceOnUse" id="gradient19" spreadMethod="pad" x1="-819.2" x2="819.2">
      <stop offset="0.0" stop-color="#ffffff"/>
      <stop offset="1.0" stop-color="#d0d0d0"/>
    </linearGradient>
    <linearGradient gradientTransform="matrix(0.0033, 0.0, 0.0, 0.0038, 6.9, 31.1)" gradientUnits="userSpaceOnUse" id="gradient20" spreadMethod="pad" x1="-819.2" x2="819.2">
      <stop offset="0.2627450980392157" stop-color="#9b9b9b"/>
      <stop offset="1.0" stop-color="#bfbfbf"/>
    </linearGradient>
    <linearGradient gradientTransform="matrix(0.0, -0.0067, 0.0073, 0.0, -8.0, 22.0)" gradientUnits="userSpaceOnUse" id="gradient21" spreadMethod="pad" x1="-819.2" x2="819.2">
      <stop offset="0.0" stop-color="#919191"/>
      <stop offset="1.0" stop-color="#ffffff"/>
    </linearGradient>
    <linearGradient gradientTransform="matrix(0.0, -0.0077, 0.0073, 0.0, 0.0, 22.0)" gradientUnits="userSpaceOnUse" id="gradient22" spreadMethod="pad" x1="-819.2" x2="819.2">
      <stop offset="0.2627450980392157" stop-color="#8a8a8a"/>
      <stop offset="1.0" stop-color="#e6e6e6"/>
    </linearGradient>
    <linearGradient gradientTransform="matrix(0.0, -0.0033, 0.0038, 0.0, -6.9, 31.1)" gradientUnits="userSpaceOnUse" id="gradient23" spreadMethod="pad" x1="-819.2" x2="819.2">
      <stop offset="0.011764705882352941" stop-color="#636363"/>
      <stop offset="1.0" stop-color="#b0b0b0"/>
    </linearGradient>
    <linearGradient gradientTransform="matrix(0.0, -0.007, 0.0073, 0.0, 8.0, 22.0)" gradientUnits="userSpaceOnUse" id="gradient24" spreadMethod="pad" x1="-819.2" x2="819.2">
      <stop offset="0.25882352941176473" stop-color="#3c3c3c"/>
      <stop offset="1.0" stop-color="#585858"/>
    </linearGradient>
    <linearGradient gradientTransform="matrix(0.0, -0.0051, 0.0043, 0.0, 0.0, 31.5)" gradientUnits="userSpaceOnUse" id="gradient25" spreadMethod="pad" x1="-819.2" x2="819.2">
      <stop offset="0.011764705882352941" stop-color="#636363"/>
      <stop offset="1.0" stop-color="#4e4e4e"/>
    </linearGradient>
    <linearGradient gradientTransform="matrix(0.0, -0.0073, 0.0073, 0.0, 4.0, 4.0)" gradientUnits="userSpaceOnUse" id="gradient26" spreadMethod="pad" x1="-819.2" x2="819.2">
      <stop offset="0.0" stop-color="#e6e6e6"/>
      <stop offset="1.0" stop-color="#ededed"/>
    </linearGradient>
    <linearGradient gradientTransform="matrix(0.0049, 0.0, 0.0, 0.0073, -4.0, 4.0)" gradientUnits="userSpaceOnUse" id="gradient27" spreadMethod="pad" x1="-819.2" x2="819.2">
      <stop offset="0.0" stop-color="#e6e6e6"/>
      <stop offset="1.0" stop-color="#ededed"/>
    </linearGradient>
    <linearGradient gradientTransform="matrix(0.0028, 0.0, 0.0, 0.0035, 2.4, -4.9)" gradientUnits="userSpaceOnUse" id="gradient28" spreadMethod="pad" x1="-819.2" x2="819.2">
      <stop offset="0.0" stop-color="#e6e6e6"/>
      <stop offset="1.0" stop-color="#ededed"/>
    </linearGradient>
    <linearGradient gradientTransform="matrix(0.0028, 0.0, 0.0, 0.0035, -2.4, -4.9)" gradientUnits="userSpaceOnUse" id="gradient29" spreadMethod="pad" x1="-819.2" x2="819.2">
      <stop offset="0.0" stop-color="#e6e6e6"/>
      <stop offset="1.0" stop-color="#ededed"/>
    </linearGradient>
    <linearGradient gradientTransform="matrix(1.0E-4, -0.0073, 0.0073, 1.0E-4, -11.05, 16.0)" gradientUnits="userSpaceOnUse" id="gradient30" spreadMethod="pad" x1="-819.2" x2="819.2">
      <stop offset="0.2627450980392157" stop-color="#8a8a8a"/>
      <stop offset="1.0" stop-color="#e6e6e6"/>
    </linearGradient>
    <linearGradient gradientTransform="matrix(0.0, -0.0073, 0.0073, 0.0, -4.0, 16.0)" gradientUnits="userSpaceOnUse" id="gradient31" spreadMethod="pad" x1="-819.2" x2="819.2">
      <stop offset="0.25882352941176473" stop-color="#383838"/>
      <stop offset="1.0" stop-color="#dbdbdb"/>
    </linearGradient>
    <linearGradient gradientTransform="matrix(-1.0E-4, -0.0073, 0.0073, -1.0E-4, 4.0, 16.0)" gradientUnits="userSpaceOnUse" id="gradient32" spreadMethod="pad" x1="-819.2" x2="819.2">
      <stop offset="0.25882352941176473" stop-color="#838383"/>
      <stop offset="1.0" stop-color="#adadad"/>
    </linearGradient>
    <linearGradient gradientTransform="matrix(0.0, -0.0075, 0.0075, 0.0, 3.95, 28.15)" gradientUnits="userSpaceOnUse" id="gradient33" spreadMethod="pad" x1="-819.2" x2="819.2">
      <stop offset="0.2627450980392157" stop-color="#7b7b7b"/>
      <stop offset="1.0" stop-color="#717171"/>
    </linearGradient>
    <linearGradient gradientTransform="matrix(0.0, -0.0075, 0.0075, 0.0, -4.05, 28.15)" gradientUnits="userSpaceOnUse" id="gradient34" spreadMethod="pad" x1="-819.2" x2="819.2">
      <stop offset="0.00784313725490196" stop-color="#606060"/>
      <stop offset="1.0" stop-color="#dbdbdb"/>
    </linearGradient>
    <linearGradient gradientTransform="matrix(0.0, -0.0051, 0.0051, 0.0, -10.6, 26.15)" gradientUnits="userSpaceOnUse" id="gradient35" spreadMethod="pad" x1="-819.2" x2="819.2">
      <stop offset="0.25882352941176473" stop-color="#838383"/>
      <stop offset="1.0" stop-color="#606060"/>
    </linearGradient>
  </defs>
</svg>
