<?xml version="1.0" encoding="UTF-8" standalone="no"?>
<svg xmlns:xlink="http://www.w3.org/1999/xlink" height="129.0px" width="34.0px" xmlns="http://www.w3.org/2000/svg">
  <g transform="matrix(1.0, 0.0, 0.0, 1.0, 17.0, 63.0)">
    <path d="M7.95 -52.05 Q10.2 -46.25 11.4 -39.75 12.85 -32.1 13.75 -15.25 L13.75 -15.4 14.9 10.15 Q15.55 10.3 16.15 10.9 17.0 11.75 17.0 13.0 L17.0 17.0 Q17.0 17.9 16.5 18.7 L14.5 21.7 13.4 22.65 12.0 23.0 10.0 23.0 10.0 24.0 Q10.0 41.35 8.35 55.05 9.0 57.85 9.0 63.0 9.0 64.25 8.15 65.15 7.25 66.0 6.0 66.0 L-6.0 66.0 Q-7.25 66.0 -8.1 65.15 -9.0 64.25 -9.0 63.0 -9.0 57.85 -8.35 55.05 -10.0 40.75 -10.0 24.0 L-10.0 23.0 -12.0 23.0 -13.4 22.65 -14.5 21.7 -16.5 18.7 Q-17.0 17.9 -17.0 17.0 L-17.0 13.0 Q-17.0 11.75 -16.1 10.9 -15.55 10.3 -14.85 10.15 L-13.7 -15.4 -13.75 -15.25 Q-12.85 -32.1 -11.4 -39.75 -10.2 -46.25 -7.95 -52.05 -5.1 -59.65 -2.0 -62.25 -1.15 -63.0 0.0 -63.0 1.15 -63.0 2.0 -62.25 5.1 -59.65 7.95 -52.05" fill="#000000" fill-rule="evenodd" stroke="none"/>
    <path d="M7.0 24.0 Q7.0 41.35 5.35 55.0 L-5.35 55.0 Q-7.0 40.75 -7.0 24.0 L-7.0 20.0 7.0 20.0 7.0 24.0" fill="url(#gradient0)" fill-rule="evenodd" stroke="none"/>
    <path d="M0.25 34.15 Q-0.45 40.0 -1.5 40.0 -2.55 40.0 -3.3 34.15 -3.9 29.0 -4.0 22.0 L1.0 22.0 Q0.9 29.0 0.25 34.15 M-0.4 2.0 L-2.6 2.0 Q-2.1 0.0 -1.5 0.0 -0.9 0.0 -0.4 2.0" fill="url(#gradient1)" fill-rule="evenodd" stroke="none"/>
    <path d="M0.0 -60.0 Q2.65 -57.65 5.15 -51.0 7.3 -45.4 8.45 -39.2 9.85 -31.65 10.75 -15.1 L12.0 13.1 0.0 13.1 0.0 -60.0" fill="url(#gradient2)" fill-rule="evenodd" stroke="none"/>
    <path d="M0.0 13.1 L-12.0 13.1 -10.75 -15.1 Q-9.85 -31.65 -8.45 -39.2 -7.3 -45.4 -5.15 -51.0 -2.65 -57.65 0.0 -60.0 L0.0 13.1" fill="url(#gradient3)" fill-rule="evenodd" stroke="none"/>
    <path d="M10.0 20.0 L0.0 20.0 -10.0 20.0 -10.0 13.0 0.0 13.0 10.0 13.0 10.0 20.0" fill="url(#gradient4)" fill-rule="evenodd" stroke="none"/>
    <path d="M-10.0 20.0 L-12.0 20.0 -14.0 17.0 -14.0 13.0 -10.0 13.0 -10.0 20.0" fill="url(#gradient5)" fill-rule="evenodd" stroke="none"/>
    <path d="M10.0 13.0 L14.0 13.0 14.0 17.0 12.0 20.0 10.0 20.0 10.0 13.0" fill="#946f2c" fill-rule="evenodd" stroke="none"/>
    <path d="M6.0 63.0 L0.0 63.0 -6.0 63.0 Q-6.0 57.55 -5.25 55.0 L0.0 55.0 5.25 55.0 Q6.0 57.55 6.0 63.0" fill="url(#gradient6)" fill-rule="evenodd" stroke="none"/>
    <path d="M7.0 22.0 L-7.0 22.0 -7.0 20.0 7.0 20.0 7.0 22.0" fill="#202020" fill-opacity="0.34117648" fill-rule="evenodd" stroke="none"/>
  </g>
  <defs>
    <linearGradient gradientTransform="matrix(0.0085, 0.0, 0.0, 0.0214, 0.0, 37.5)" gradientUnits="userSpaceOnUse" id="gradient0" spreadMethod="pad" x1="-819.2" x2="819.2">
      <stop offset="0.043137254901960784" stop-color="#556c77"/>
      <stop offset="0.34509803921568627" stop-color="#95a5af"/>
      <stop offset="0.8117647058823529" stop-color="#374e4f"/>
    </linearGradient>
    <radialGradient cx="0" cy="0" gradientTransform="matrix(0.0027, 0.0, 0.0, 0.0225, -1.5, 18.0)" gradientUnits="userSpaceOnUse" id="gradient1" r="819.2" spreadMethod="pad">
      <stop offset="0.13333333333333333" stop-color="#ffffff"/>
      <stop offset="1.0" stop-color="#8ea0a9" stop-opacity="0.0"/>
    </radialGradient>
    <linearGradient gradientTransform="matrix(0.0, -0.0471, 0.0446, 0.0, 6.0, -22.0)" gradientUnits="userSpaceOnUse" id="gradient2" spreadMethod="pad" x1="-819.2" x2="819.2">
      <stop offset="0.0" stop-color="#a99754"/>
      <stop offset="1.0" stop-color="#836634"/>
    </linearGradient>
    <linearGradient gradientTransform="matrix(0.0, -0.0446, 0.0446, 0.0, -6.0, -23.45)" gradientUnits="userSpaceOnUse" id="gradient3" spreadMethod="pad" x1="-819.2" x2="819.2">
      <stop offset="0.0" stop-color="#a59251"/>
      <stop offset="0.5176470588235295" stop-color="#ffffff"/>
      <stop offset="1.0" stop-color="#866a36"/>
    </linearGradient>
    <linearGradient gradientTransform="matrix(0.0047, -0.0081, 0.0037, 0.0021, 0.0, 16.5)" gradientUnits="userSpaceOnUse" id="gradient4" spreadMethod="pad" x1="-819.2" x2="819.2">
      <stop offset="0.0" stop-color="#caa740"/>
      <stop offset="1.0" stop-color="#94722d"/>
    </linearGradient>
    <linearGradient gradientTransform="matrix(0.0095, -0.0055, 0.0021, 0.0037, -19.0, 16.5)" gradientUnits="userSpaceOnUse" id="gradient5" spreadMethod="pad" x1="-819.2" x2="819.2">
      <stop offset="0.0" stop-color="#785423"/>
      <stop offset="1.0" stop-color="#9b792f"/>
    </linearGradient>
    <linearGradient gradientTransform="matrix(0.0073, 0.0, 0.0, 0.0049, 0.0, 59.0)" gradientUnits="userSpaceOnUse" id="gradient6" spreadMethod="pad" x1="-819.2" x2="819.2">
      <stop offset="0.0" stop-color="#a98a33"/>
      <stop offset="0.3058823529411765" stop-color="#cdaa41"/>
      <stop offset="1.0" stop-color="#7b5e26"/>
    </linearGradient>
  </defs>
</svg>
