<?xml version="1.0" encoding="UTF-8" standalone="no"?>
<svg xmlns:xlink="http://www.w3.org/1999/xlink" height="16.0px" width="498.0px" xmlns="http://www.w3.org/2000/svg">
  <g transform="matrix(1.0, 0.0, 0.0, 1.0, 1.0, 1.0)">
    <path d="M105.0 -1.0 Q108.3 -1.0 110.65 1.35 111.85 2.55 112.45 4.0 L127.6 4.0 Q128.15 2.55 129.35 1.35 131.7 -1.0 135.0 -1.0 L233.0 -1.0 Q236.3 -1.0 238.65 1.35 239.85 2.55 240.45 4.0 L255.6 4.0 Q256.15 2.55 257.35 1.35 259.7 -1.0 263.0 -1.0 L361.0 -1.0 Q364.3 -1.0 366.65 1.35 367.85 2.55 368.45 4.0 L383.6 4.0 Q384.15 2.55 385.35 1.35 387.7 -1.0 391.0 -1.0 L489.0 -1.0 Q492.3 -1.0 494.65 1.35 497.0 3.7 497.0 7.0 497.0 10.3 494.65 12.65 492.3 15.0 489.0 15.0 L391.0 15.0 Q387.7 15.0 385.35 12.65 384.15 11.45 383.6 10.0 L368.45 10.0 Q367.85 11.45 366.65 12.65 364.3 15.0 361.0 15.0 L263.0 15.0 Q259.7 15.0 257.35 12.65 256.15 11.45 255.6 10.0 L240.45 10.0 Q239.85 11.45 238.65 12.65 236.3 15.0 233.0 15.0 L135.0 15.0 Q131.7 15.0 129.35 12.65 128.15 11.45 127.6 10.0 L112.45 10.0 Q111.85 11.45 110.65 12.65 108.3 15.0 105.0 15.0 L7.0 15.0 Q3.7 15.0 1.35 12.65 -1.0 10.3 -1.0 7.0 -1.0 3.7 1.35 1.35 3.7 -1.0 7.0 -1.0 L105.0 -1.0 M496.0 7.0 Q496.0 4.1 493.95 2.05 491.9 0.0 489.0 0.0 L391.0 0.0 Q388.1 0.0 386.05 2.05 384.75 3.35 384.3 5.0 L367.75 5.0 Q367.25 3.35 365.95 2.05 363.9 0.0 361.0 0.0 L263.0 0.0 Q260.1 0.0 258.05 2.05 256.75 3.35 256.3 5.0 L239.75 5.0 Q239.25 3.35 237.95 2.05 235.9 0.0 233.0 0.0 L135.0 0.0 Q132.1 0.0 130.05 2.05 128.75 3.35 128.3 5.0 L111.75 5.0 Q111.25 3.35 109.95 2.05 107.9 0.0 105.0 0.0 L7.0 0.0 Q4.1 0.0 2.05 2.05 0.0 4.1 0.0 7.0 0.0 9.9 2.05 11.95 4.1 14.0 7.0 14.0 L105.0 14.0 Q107.9 14.0 109.95 11.95 111.25 10.65 111.75 9.0 L128.3 9.0 Q128.75 10.65 130.05 11.95 132.1 14.0 135.0 14.0 L233.0 14.0 Q235.9 14.0 237.95 11.95 239.25 10.65 239.75 9.0 L256.3 9.0 Q256.75 10.65 258.05 11.95 260.1 14.0 263.0 14.0 L361.0 14.0 Q363.9 14.0 365.95 11.95 367.25 10.65 367.75 9.0 L384.3 9.0 Q384.75 10.65 386.05 11.95 388.1 14.0 391.0 14.0 L489.0 14.0 Q491.9 14.0 493.95 11.95 496.0 9.9 496.0 7.0" fill="#ffffff" fill-opacity="0.2" fill-rule="evenodd" stroke="none"/>
    <path d="M496.0 7.0 Q496.0 9.9 493.95 11.95 491.9 14.0 489.0 14.0 L391.0 14.0 Q388.1 14.0 386.05 11.95 384.75 10.65 384.3 9.0 L367.75 9.0 Q367.25 10.65 365.95 11.95 363.9 14.0 361.0 14.0 L263.0 14.0 Q260.1 14.0 258.05 11.95 256.75 10.65 256.3 9.0 L239.75 9.0 Q239.25 10.65 237.95 11.95 235.9 14.0 233.0 14.0 L135.0 14.0 Q132.1 14.0 130.05 11.95 128.75 10.65 128.3 9.0 L111.75 9.0 Q111.25 10.65 109.95 11.95 107.9 14.0 105.0 14.0 L7.0 14.0 Q4.1 14.0 2.05 11.95 0.0 9.9 0.0 7.0 0.0 4.1 2.05 2.05 4.1 0.0 7.0 0.0 L105.0 0.0 Q107.9 0.0 109.95 2.05 111.25 3.35 111.75 5.0 L128.3 5.0 Q128.75 3.35 130.05 2.05 132.1 0.0 135.0 0.0 L233.0 0.0 Q235.9 0.0 237.95 2.05 239.25 3.35 239.75 5.0 L256.3 5.0 Q256.75 3.35 258.05 2.05 260.1 0.0 263.0 0.0 L361.0 0.0 Q363.9 0.0 365.95 2.05 367.25 3.35 367.75 5.0 L384.3 5.0 Q384.75 3.35 386.05 2.05 388.1 0.0 391.0 0.0 L489.0 0.0 Q491.9 0.0 493.95 2.05 496.0 4.1 496.0 7.0" fill="#161616" fill-opacity="0.8509804" fill-rule="evenodd" stroke="none"/>
  </g>
</svg>
