<?xml version="1.0" encoding="UTF-8" standalone="no"?>
<svg xmlns:xlink="http://www.w3.org/1999/xlink" height="105.8px" width="118.0px" xmlns="http://www.w3.org/2000/svg">
  <g transform="matrix(1.0, 0.0, 0.0, 1.0, 60.5, 52.3)">
    <path d="M25.1 -51.4 L34.6 -40.2 35.15 -39.1 Q35.3 -38.5 35.1 -37.9 L33.3 -31.65 38.45 -36.75 Q39.1 -37.45 40.05 -37.5 L54.85 -38.4 Q55.8 -38.45 56.6 -37.85 57.35 -37.25 57.5 -36.25 57.6 -35.35 57.1 -34.5 L52.75 -27.95 55.45 -27.45 Q56.15 -27.35 56.65 -26.85 L57.4 -25.7 Q57.6 -25.05 57.45 -24.4 L48.45 12.0 47.95 13.0 47.1 13.7 42.3 33.25 41.85 34.15 41.1 34.85 9.25 53.2 8.2 53.5 7.1 53.35 -41.75 34.75 -42.7 34.1 -43.25 33.1 -48.8 13.4 -49.7 12.8 -50.3 11.75 -60.4 -24.3 Q-60.6 -25.0 -60.4 -25.65 -60.25 -26.3 -59.75 -26.75 -59.25 -27.25 -58.6 -27.4 L-9.6 -39.4 -8.55 -39.45 16.85 -34.65 16.65 -35.3 Q16.55 -35.9 16.7 -36.5 L20.8 -50.5 Q21.05 -51.4 21.85 -51.9 L23.6 -52.25 Q24.5 -52.15 25.1 -51.4" fill="#000000" fill-rule="evenodd" stroke="none"/>
    <path d="M8.6 28.75 L8.0 51.0 -40.85 32.4 -46.75 11.4 8.6 28.75" fill="url(#gradient0)" fill-rule="evenodd" stroke="none"/>
    <path d="M8.6 28.75 L45.0 11.7 39.85 32.65 8.0 51.0 8.6 28.75" fill="url(#gradient1)" fill-rule="evenodd" stroke="none"/>
    <path d="M8.3 39.5 L1.2 48.4 -6.05 34.55 -12.2 43.35 -20.25 29.85 -24.95 38.45 -32.8 25.6 -35.6 34.3 -43.8 21.9 -40.8 13.3 -32.8 25.6 -28.5 17.1 -20.25 29.85 -14.7 21.5 -6.05 34.55 0.75 26.25 8.3 39.5" fill="url(#gradient2)" fill-rule="evenodd" stroke="none"/>
    <path d="M42.55 21.6 L37.45 34.0 35.3 25.3 29.15 38.8 27.0 29.7 21.6 43.15 17.8 34.55 12.5 48.45 8.3 39.5 13.35 26.85 17.8 34.55 23.45 22.0 27.0 29.7 32.6 17.75 35.3 25.3 41.1 13.7 42.55 21.6" fill="url(#gradient3)" fill-rule="evenodd" stroke="none"/>
    <path d="M55.0 -24.0 L46.0 12.4 8.85 29.9 -47.9 12.05 -58.0 -24.0 10.0 -7.0 55.0 -24.0" fill="#000000" fill-opacity="0.3019608" fill-rule="evenodd" stroke="none"/>
    <path d="M10.0 -8.0 L8.85 28.9 -47.9 11.05 -58.0 -25.0 10.0 -8.0" fill="url(#gradient4)" fill-rule="evenodd" stroke="none"/>
    <path d="M55.0 -25.0 L46.0 11.4 8.85 28.9 10.0 -8.0 55.0 -25.0" fill="url(#gradient5)" fill-rule="evenodd" stroke="none"/>
    <path d="M10.0 -8.0 L-58.0 -25.0 -9.0 -37.0 55.0 -25.0 10.0 -8.0" fill="url(#gradient6)" fill-rule="evenodd" stroke="none"/>
    <path d="M40.2 -33.0 L55.0 -33.9 48.9 -23.5 29.5 -24.0 40.2 -33.0 M27.0 -25.0 L14.8 -33.2 28.9 -32.5 28.9 -25.8 27.0 -25.0" fill="#000000" fill-opacity="0.2509804" fill-rule="evenodd" stroke="none"/>
    <path d="M29.0 -15.15 L32.25 6.6 20.65 18.85 22.15 -11.25 29.0 -15.15" fill="url(#gradient7)" fill-rule="evenodd" stroke="none"/>
    <path d="M-30.45 -18.1 L-26.65 35.7 Q-33.05 34.7 -38.7 28.1 L-37.9 -12.1 -30.45 -18.1" fill="url(#gradient8)" fill-rule="evenodd" stroke="none"/>
    <path d="M27.0 -26.0 L19.1 -35.8 23.2 -49.8 32.7 -38.6 29.0 -26.0 27.0 -26.0" fill="url(#gradient9)" fill-rule="evenodd" stroke="none"/>
    <path d="M40.2 -35.0 L55.0 -35.9 48.25 -25.65 29.7 -24.7 40.2 -35.0" fill="url(#gradient10)" fill-rule="evenodd" stroke="none"/>
    <path d="M24.2 -20.3 L29.0 -20.0 29.0 -15.15 31.0 4.0 19.0 14.0 18.8 -11.3 24.2 -20.3" fill="url(#gradient11)" fill-rule="evenodd" stroke="none"/>
    <path d="M25.0 -21.6 L-30.45 -18.1 -41.45 -20.9 20.1 -24.5 25.0 -21.6" fill="url(#gradient12)" fill-rule="evenodd" stroke="none"/>
    <path d="M-30.45 -18.1 L-29.0 32.0 Q-31.7 31.0 -34.75 29.2 -37.85 27.35 -40.3 25.2 -39.9 1.5 -41.45 -20.9 L-30.45 -18.1" fill="url(#gradient13)" fill-rule="evenodd" stroke="none"/>
    <path d="M37.0 -23.0 Q37.0 -21.35 34.05 -20.2 31.15 -19.0 27.0 -19.0 22.85 -19.0 19.9 -20.2 17.0 -21.35 17.0 -23.0 17.0 -24.65 19.9 -25.85 22.85 -27.0 27.0 -27.0 31.15 -27.0 34.05 -25.85 37.0 -24.65 37.0 -23.0" fill="url(#gradient14)" fill-rule="evenodd" stroke="none"/>
  </g>
  <defs>
    <linearGradient gradientTransform="matrix(-0.0136, 0.0347, -0.0225, -0.0088, -20.55, 13.0)" gradientUnits="userSpaceOnUse" id="gradient0" spreadMethod="pad" x1="-819.2" x2="819.2">
      <stop offset="0.0" stop-color="#3f2675"/>
      <stop offset="1.0" stop-color="#9a7ed6"/>
    </linearGradient>
    <linearGradient gradientTransform="matrix(-0.012, -0.0303, 0.0223, -0.0088, 26.0, 14.0)" gradientUnits="userSpaceOnUse" id="gradient1" spreadMethod="pad" x1="-819.2" x2="819.2">
      <stop offset="0.09019607843137255" stop-color="#624293"/>
      <stop offset="0.9176470588235294" stop-color="#342149"/>
    </linearGradient>
    <linearGradient gradientTransform="matrix(-0.0125, 0.0341, -0.0309, -0.0113, -22.95, 11.5)" gradientUnits="userSpaceOnUse" id="gradient2" spreadMethod="pad" x1="-819.2" x2="819.2">
      <stop offset="0.0" stop-color="#211e22"/>
      <stop offset="1.0" stop-color="#423c44"/>
    </linearGradient>
    <linearGradient gradientTransform="matrix(-0.0135, -0.0337, 0.0305, -0.0122, 33.05, 14.1)" gradientUnits="userSpaceOnUse" id="gradient3" spreadMethod="pad" x1="-819.2" x2="819.2">
      <stop offset="0.09019607843137255" stop-color="#242026"/>
      <stop offset="0.9176470588235294" stop-color="#18161b"/>
    </linearGradient>
    <linearGradient gradientTransform="matrix(-0.0125, 0.0341, -0.0309, -0.0113, -22.95, 11.5)" gradientUnits="userSpaceOnUse" id="gradient4" spreadMethod="pad" x1="-819.2" x2="819.2">
      <stop offset="0.0" stop-color="#2c282d"/>
      <stop offset="1.0" stop-color="#444046"/>
    </linearGradient>
    <linearGradient gradientTransform="matrix(-0.0135, -0.0337, 0.0305, -0.0122, 33.05, 14.1)" gradientUnits="userSpaceOnUse" id="gradient5" spreadMethod="pad" x1="-819.2" x2="819.2">
      <stop offset="0.09019607843137255" stop-color="#38343d"/>
      <stop offset="0.9176470588235294" stop-color="#262329"/>
    </linearGradient>
    <linearGradient gradientTransform="matrix(0.0025, 0.0208, -0.0176, 0.0021, -1.5, -22.5)" gradientUnits="userSpaceOnUse" id="gradient6" spreadMethod="pad" x1="-819.2" x2="819.2">
      <stop offset="0.12156862745098039" stop-color="#383739"/>
      <stop offset="0.6392156862745098" stop-color="#47424a"/>
      <stop offset="1.0" stop-color="#64596c"/>
    </linearGradient>
    <linearGradient gradientTransform="matrix(-0.0105, -0.0095, 0.0139, -0.0154, 24.35, 0.1)" gradientUnits="userSpaceOnUse" id="gradient7" spreadMethod="pad" x1="-819.2" x2="819.2">
      <stop offset="0.0" stop-color="#000000" stop-opacity="0.050980393"/>
      <stop offset="0.24313725490196078" stop-color="#000000" stop-opacity="0.2"/>
      <stop offset="1.0" stop-color="#000000"/>
    </linearGradient>
    <linearGradient gradientTransform="matrix(0.0059, -0.0313, 0.027, 0.0051, -28.4, 9.0)" gradientUnits="userSpaceOnUse" id="gradient8" spreadMethod="pad" x1="-819.2" x2="819.2">
      <stop offset="0.0" stop-color="#000000" stop-opacity="0.15294118"/>
      <stop offset="0.8549019607843137" stop-color="#000000" stop-opacity="0.4"/>
    </linearGradient>
    <linearGradient color-interpolation="linearRGB" gradientTransform="matrix(0.0014, 0.0147, -0.0145, 0.0013, 25.55, -38.25)" gradientUnits="userSpaceOnUse" id="gradient9" spreadMethod="pad" x1="-819.2" x2="819.2">
      <stop offset="0.011764705882352941" stop-color="#242125"/>
      <stop offset="0.5176470588235295" stop-color="#3e3740"/>
      <stop offset="0.8862745098039215" stop-color="#4f4752"/>
      <stop offset="1.0" stop-color="#5b525f"/>
    </linearGradient>
    <linearGradient color-interpolation="linearRGB" gradientTransform="matrix(0.0147, -0.0045, 0.002, 0.0065, 42.85, -30.5)" gradientUnits="userSpaceOnUse" id="gradient10" spreadMethod="pad" x1="-819.2" x2="819.2">
      <stop offset="0.16470588235294117" stop-color="#3e3740"/>
      <stop offset="0.8862745098039215" stop-color="#453f47"/>
    </linearGradient>
    <linearGradient gradientTransform="matrix(-0.007, -0.0193, 0.0196, -0.0072, 24.9, -3.15)" gradientUnits="userSpaceOnUse" id="gradient11" spreadMethod="pad" x1="-819.2" x2="819.2">
      <stop offset="0.0" stop-color="#c12082"/>
      <stop offset="0.34901960784313724" stop-color="#931762"/>
      <stop offset="0.6470588235294118" stop-color="#9d1a73"/>
      <stop offset="0.7764705882352941" stop-color="#9d1a73"/>
      <stop offset="0.8" stop-color="#dc2393"/>
      <stop offset="1.0" stop-color="#c12082"/>
    </linearGradient>
    <linearGradient gradientTransform="matrix(0.0069, -0.0155, 0.0036, 0.0016, -9.35, -21.55)" gradientUnits="userSpaceOnUse" id="gradient12" spreadMethod="pad" x1="-819.2" x2="819.2">
      <stop offset="0.13333333333333333" stop-color="#da2291"/>
      <stop offset="0.8745098039215686" stop-color="#dc2393"/>
      <stop offset="1.0" stop-color="#92186a"/>
    </linearGradient>
    <linearGradient gradientTransform="matrix(0.008, -0.0286, 0.0311, 0.0087, -35.25, 5.55)" gradientUnits="userSpaceOnUse" id="gradient13" spreadMethod="pad" x1="-819.2" x2="819.2">
      <stop offset="0.1568627450980392" stop-color="#db2292"/>
      <stop offset="0.44313725490196076" stop-color="#c92193"/>
      <stop offset="0.9725490196078431" stop-color="#9d1a73"/>
      <stop offset="1.0" stop-color="#dc29a3"/>
    </linearGradient>
    <linearGradient gradientTransform="matrix(0.0015, 0.0058, -0.0047, 0.0012, 26.9, -23.1)" gradientUnits="userSpaceOnUse" id="gradient14" spreadMethod="pad" x1="-819.2" x2="819.2">
      <stop offset="0.0196078431372549" stop-color="#c0218d"/>
      <stop offset="0.16470588235294117" stop-color="#981866"/>
      <stop offset="0.8274509803921568" stop-color="#df3caa"/>
      <stop offset="0.8980392156862745" stop-color="#e254bf"/>
    </linearGradient>
  </defs>
</svg>
