<?xml version="1.0" encoding="UTF-8" standalone="no"?>
<svg xmlns:xlink="http://www.w3.org/1999/xlink" height="7.05px" width="7.05px" xmlns="http://www.w3.org/2000/svg">
  <g transform="matrix(1.0, 0.0, 0.0, 1.0, 3.5, 3.15)">
    <path d="M1.8 -1.4 Q2.5 -0.7 2.55 0.4 2.5 1.4 1.8 2.15 1.05 2.9 0.0 2.9 -1.05 2.9 -1.8 2.15 -2.55 1.4 -2.5 0.4 -2.55 -0.7 -1.8 -1.4 -1.05 -2.15 0.0 -2.15 1.05 -2.15 1.8 -1.4" fill="#ffffff" fill-opacity="0.5019608" fill-rule="evenodd" stroke="none"/>
    <path d="M1.8 -1.4 Q2.5 -0.7 2.55 0.4 2.5 1.4 1.8 2.15 1.05 2.9 0.0 2.9 -1.05 2.9 -1.8 2.15 -2.55 1.4 -2.5 0.4 -2.55 -0.7 -1.8 -1.4 -1.05 -2.15 0.0 -2.15 1.05 -2.15 1.8 -1.4 Z" fill="none" stroke="#95e4ff" stroke-linecap="round" stroke-linejoin="round" stroke-opacity="0.5019608" stroke-width="2.0"/>
  </g>
</svg>
