<?xml version="1.0" encoding="UTF-8" standalone="no"?>
<svg xmlns:xlink="http://www.w3.org/1999/xlink" height="80.0px" width="90.0px" xmlns="http://www.w3.org/2000/svg">
  <g transform="matrix(1.0, 0.0, 0.0, 1.0, 3.0, 15.0)">
    <path d="M59.0 -3.0 L84.0 -3.0 Q87.0 -3.0 87.0 0.0 L87.0 62.0 Q87.0 65.0 84.0 65.0 L0.0 65.0 Q-3.0 65.0 -3.0 62.0 L-3.0 -12.0 Q-3.0 -15.0 0.0 -15.0 L56.0 -15.0 Q59.0 -15.0 59.0 -12.0 L59.0 -3.0 M82.05 1.0 L2.0 1.0 Q1.0 1.0 1.0 2.0 L1.0 60.0 Q1.0 61.0 2.0 61.0 L82.05 61.0 Q83.0 61.0 83.0 60.0 L83.0 2.0 Q83.0 1.15 82.05 1.0" fill="#000000" fill-rule="evenodd" stroke="none"/>
    <path d="M58.0 -12.0 L58.0 -2.0 84.0 -2.0 Q86.0 -2.0 86.0 0.0 L86.0 62.0 Q86.0 64.0 84.0 64.0 L0.0 64.0 Q-2.0 64.0 -2.0 62.0 L-2.0 -12.0 Q-2.0 -14.0 0.0 -14.0 L56.0 -14.0 Q58.0 -14.0 58.0 -12.0 M82.1 0.0 L2.0 0.0 Q0.0 0.0 0.0 2.0 L0.0 60.0 Q0.0 62.0 2.0 62.0 L82.15 62.0 Q84.0 62.0 84.0 60.0 L84.0 2.0 Q84.0 0.15 82.1 0.0" fill="#ff00ff" fill-rule="evenodd" stroke="none"/>
  </g>
</svg>
