<?xml version="1.0" encoding="UTF-8" standalone="no"?>
<svg xmlns:xlink="http://www.w3.org/1999/xlink" height="80.0px" width="159.0px" xmlns="http://www.w3.org/2000/svg">
  <g transform="matrix(1.0, 0.0, 0.0, 1.0, 3.0, 15.0)">
    <path d="M59.0 -12.0 L59.0 -3.0 153.0 -3.0 Q156.0 -3.0 156.0 0.0 L156.0 62.0 Q156.0 65.0 153.0 65.0 L0.0 65.0 Q-3.0 65.0 -3.0 62.0 L-3.0 -12.0 Q-3.0 -15.0 0.0 -15.0 L56.0 -15.0 Q59.0 -15.0 59.0 -12.0 M151.05 1.0 L2.0 1.0 Q1.0 1.0 1.0 2.0 L1.0 60.0 Q1.0 61.0 2.0 61.0 L151.05 61.0 Q152.0 61.0 152.0 60.0 L152.0 2.0 Q152.0 1.05 151.05 1.0" fill="#000000" fill-rule="evenodd" stroke="none"/>
    <path d="M58.0 -12.0 L58.0 -2.0 135.0 -2.0 153.0 -2.0 Q155.0 -2.0 155.0 0.0 L155.0 62.0 Q155.0 64.0 153.0 64.0 L0.0 64.0 Q-2.0 64.0 -2.0 62.0 L-2.0 -12.0 Q-2.0 -14.0 0.0 -14.0 L56.0 -14.0 Q58.0 -14.0 58.0 -12.0 M151.15 0.0 L2.0 0.0 Q0.0 0.0 0.0 2.0 L0.0 60.0 Q0.0 62.0 2.0 62.0 L151.15 62.0 Q153.0 62.0 153.0 60.0 L153.0 2.0 Q153.0 0.05 151.15 0.0" fill="#ff00ff" fill-rule="evenodd" stroke="none"/>
  </g>
</svg>
