<?xml version="1.0" encoding="UTF-8" standalone="no"?>
<svg xmlns:xlink="http://www.w3.org/1999/xlink" height="186.35px" width="102.0px" xmlns="http://www.w3.org/2000/svg">
  <g transform="matrix(1.0, 0.0, 0.0, 1.0, 3.0, 15.0)">
    <path d="M49.0 -12.0 L49.0 -3.0 96.0 -3.0 Q99.0 -3.0 99.0 0.0 L99.0 168.35 Q99.0 171.35 96.0 171.35 L0.0 171.35 Q-3.0 171.35 -3.0 168.35 L-3.0 -12.0 Q-3.0 -15.0 0.0 -15.0 L46.0 -15.0 Q49.0 -15.0 49.0 -12.0 M94.0 1.0 L2.0 1.0 Q1.0 1.0 1.0 2.0 L1.0 166.35 Q1.0 167.35 2.0 167.35 L94.0 167.35 Q95.0 167.35 95.0 166.35 L95.0 2.0 Q95.0 1.0 94.0 1.0" fill="#000000" fill-rule="evenodd" stroke="none"/>
    <path d="M96.0 2.0 Q96.0 0.0 94.0 0.0 L2.0 0.0 Q0.0 0.0 0.0 2.0 L0.0 166.35 Q0.0 168.35 2.0 168.35 L94.0 168.35 Q96.0 168.35 96.0 166.35 L96.0 2.0 M46.0 -14.0 Q48.0 -14.0 48.0 -12.0 L48.0 -2.0 96.0 -2.0 Q98.0 -2.0 98.0 0.0 L98.0 168.35 Q98.0 170.35 96.0 170.35 L0.0 170.35 Q-2.0 170.35 -2.0 168.35 L-2.0 -12.0 Q-2.0 -14.0 0.0 -14.0 L46.0 -14.0" fill="#00ff00" fill-rule="evenodd" stroke="none"/>
  </g>
</svg>
