<?xml version="1.0" encoding="UTF-8" standalone="no"?>
<svg xmlns:xlink="http://www.w3.org/1999/xlink" height="139.05px" width="90.0px" xmlns="http://www.w3.org/2000/svg">
  <g transform="matrix(1.0, 0.0, 0.0, 1.0, 3.0, 15.0)">
    <path d="M49.0 -12.0 L49.0 -3.0 84.0 -3.0 Q87.0 -3.0 87.0 0.0 L87.0 121.05 Q87.0 124.05 84.0 124.05 L0.0 124.05 Q-3.0 124.05 -3.0 121.05 L-3.0 -12.0 Q-3.0 -15.0 0.0 -15.0 L46.0 -15.0 Q49.0 -15.0 49.0 -12.0 M82.0 1.0 L2.0 1.0 Q1.0 1.0 1.0 2.0 L1.0 119.05 Q1.0 120.05 2.0 120.05 L82.0 120.05 Q83.0 120.05 83.0 119.05 L83.0 2.0 Q83.0 1.0 82.0 1.0" fill="#000000" fill-rule="evenodd" stroke="none"/>
    <path d="M84.0 2.0 Q84.0 0.0 82.0 0.0 L2.0 0.0 Q0.0 0.0 0.0 2.0 L0.0 119.05 Q0.0 121.05 2.0 121.05 L82.0 121.05 Q84.0 121.05 84.0 119.05 L84.0 2.0 M46.0 -14.0 Q48.0 -14.0 48.0 -12.0 L48.0 -2.0 84.0 -2.0 Q86.0 -2.0 86.0 0.0 L86.0 121.05 Q86.0 123.05 84.0 123.05 L0.0 123.05 Q-2.0 123.05 -2.0 121.05 L-2.0 -12.0 Q-2.0 -14.0 0.0 -14.0 L46.0 -14.0" fill="#00ff00" fill-rule="evenodd" stroke="none"/>
  </g>
</svg>
