<?xml version="1.0" encoding="UTF-8" standalone="no"?>
<svg xmlns:xlink="http://www.w3.org/1999/xlink" height="1057.0px" width="189.7px" xmlns="http://www.w3.org/2000/svg">
  <g transform="matrix(1.0, 0.0, 0.0, 1.0, 95.35, 193.0)">
    <path d="M0.0 -192.7 L0.0 -193.0 Q4.6 -147.4 8.1 -91.5 11.45 -32.75 13.15 -7.3 15.95 35.55 19.85 62.1 24.65 95.15 33.0 119.2 68.95 202.35 81.35 246.85 93.15 289.25 94.35 335.5 93.15 381.75 81.35 424.15 68.95 468.65 33.0 551.8 24.65 575.85 19.85 608.9 15.95 635.45 13.15 678.3 11.45 703.75 8.1 762.5 4.6 818.4 0.0 864.0 -4.6 818.75 -8.25 762.5 -11.8 703.75 -13.6 678.3 -16.65 635.6 -20.65 608.9 -25.6 575.9 -34.0 551.8 -69.95 468.65 -82.35 424.15 -94.15 381.75 -95.35 335.5 -94.15 289.25 -82.35 246.85 -69.95 202.35 -34.0 119.2 -25.6 95.1 -20.65 62.15 -16.65 35.45 -13.6 -7.1 -11.8 -32.55 -8.25 -91.25 -4.6 -147.5 0.0 -192.7" fill="#ffffff" fill-rule="evenodd" stroke="none"/>
  </g>
</svg>
