<?xml version="1.0" encoding="UTF-8" standalone="no"?>
<svg xmlns:xlink="http://www.w3.org/1999/xlink" height="1057.0px" width="44.0px" xmlns="http://www.w3.org/2000/svg">
  <g transform="matrix(1.0, 0.0, 0.0, 1.0, 22.5, 193.0)">
    <path d="M0.05 -192.35 Q3.4 -145.15 4.15 -66.1 L4.5 76.25 Q4.6 160.95 6.35 205.5 8.7 267.1 15.0 293.15 17.25 302.5 18.95 312.15 21.4 326.35 21.5 335.5 21.4 344.65 18.95 358.85 17.25 368.5 15.0 377.85 8.7 403.9 6.35 465.5 4.6 510.05 4.5 594.75 L4.15 737.1 Q3.4 815.75 0.05 862.9 L0.05 863.55 0.0 864.0 0.0 863.6 0.0 863.3 0.0 863.2 0.0 863.1 0.0 862.9 Q-3.4 815.85 -4.35 737.1 L-5.0 594.75 Q-5.35 510.25 -7.15 465.5 -9.7 403.9 -16.0 377.85 -18.25 368.5 -19.95 358.85 -22.4 344.65 -22.5 335.5 -22.4 326.35 -19.95 312.15 -18.25 302.5 -16.0 293.15 -9.7 267.1 -7.15 205.5 -5.35 160.75 -5.0 76.25 L-4.35 -66.1 Q-3.4 -145.3 -0.05 -192.4 L0.0 -192.6 0.0 -193.0 0.05 -192.55 0.05 -192.35" fill="#ffffff" fill-rule="evenodd" stroke="none"/>
  </g>
</svg>
