<?xml version="1.0" encoding="UTF-8" standalone="no"?>
<svg xmlns:xlink="http://www.w3.org/1999/xlink" height="1061.6px" width="309.45px" xmlns="http://www.w3.org/2000/svg">
  <g transform="matrix(1.0, 0.0, 0.0, 1.0, 155.0, 195.3)">
    <path d="M84.4 -48.45 Q91.6 8.65 103.15 78.75 107.3 106.65 116.25 143.75 L132.45 207.65 Q141.85 245.3 146.35 271.95 152.0 305.75 152.45 335.5 152.0 365.25 146.35 399.05 141.85 425.7 132.45 463.35 L116.25 527.25 Q107.3 564.35 103.15 592.25 91.6 662.35 84.4 719.45 74.2 799.85 71.15 864.25 L-0.1 864.25 -0.1 864.3 -71.75 864.3 Q-74.8 799.85 -84.95 719.45 -92.15 662.35 -103.7 592.25 -107.85 564.35 -116.8 527.25 L-133.0 463.35 Q-142.4 425.7 -146.9 399.05 -152.55 365.25 -153.0 335.5 -152.55 305.75 -146.9 271.95 -142.4 245.3 -133.0 207.65 L-116.8 143.75 Q-107.85 106.65 -103.7 78.75 -92.15 8.65 -84.95 -48.45 -74.8 -128.85 -71.75 -193.3 L-0.1 -193.3 -0.1 -193.25 71.15 -193.25 Q74.2 -128.85 84.4 -48.45 Z" fill="none" stroke="#000000" stroke-linecap="round" stroke-linejoin="round" stroke-width="4.0"/>
  </g>
</svg>
