<?xml version="1.0" encoding="UTF-8" standalone="no"?>
<svg xmlns:xlink="http://www.w3.org/1999/xlink" height="1061.0px" width="193.7px" xmlns="http://www.w3.org/2000/svg">
  <g transform="matrix(1.0, 0.0, 0.0, 1.0, 97.35, 195.0)">
    <path d="M0.0 -192.7 Q-4.6 -147.5 -8.25 -91.25 -11.8 -32.55 -13.6 -7.1 -16.65 35.45 -20.65 62.15 -25.6 95.1 -34.0 119.2 -69.95 202.35 -82.35 246.85 -94.15 289.25 -95.35 335.5 -94.15 381.75 -82.35 424.15 -69.95 468.65 -34.0 551.8 -25.6 575.9 -20.65 608.9 -16.65 635.6 -13.6 678.3 -11.8 703.75 -8.25 762.5 -4.6 818.75 0.0 864.0 4.6 818.4 8.1 762.5 11.45 703.75 13.15 678.3 15.95 635.45 19.85 608.9 24.65 575.85 33.0 551.8 68.95 468.65 81.35 424.15 93.15 381.75 94.35 335.5 93.15 289.25 81.35 246.85 68.95 202.35 33.0 119.2 24.65 95.15 19.85 62.1 15.95 35.55 13.15 -7.3 11.45 -32.75 8.1 -91.5 4.6 -147.4 0.0 -193.0 L0.0 -192.7 Z" fill="none" stroke="#000000" stroke-linecap="round" stroke-linejoin="round" stroke-width="4.0"/>
  </g>
</svg>
