<?xml version="1.0" encoding="UTF-8" standalone="no"?>
<svg xmlns:xlink="http://www.w3.org/1999/xlink" height="124.0px" width="121.8px" xmlns="http://www.w3.org/2000/svg">
  <g transform="matrix(1.0, 0.0, 0.0, 1.0, 60.8, 62.0)">
    <path d="M24.0 -60.0 L-24.0 -60.0 Q-28.5 -57.85 -28.0 -52.0 L-24.0 -48.0 -20.0 -48.0 -13.75 -44.0 -20.0 -44.0 -21.05 -42.1 Q-21.65 -39.45 -19.55 -36.0 -16.25 -33.9 -15.55 -32.0 -12.9 -24.4 -20.0 -22.65 -24.4 -21.6 -28.5 -20.15 -29.1 -24.15 -31.2 -27.2 -33.8 -30.95 -37.6 -32.3 -41.2 -33.6 -45.25 -33.1 -49.45 -32.55 -52.15 -30.3 -56.1 -26.95 -56.35 -20.3 L-56.4 -15.95 Q-56.5 -14.05 -57.3 -13.65 -58.9 -12.85 -58.8 -11.15 -58.75 -9.45 -57.1 -7.65 -54.5 -4.75 -50.2 -3.6 -51.5 -0.55 -52.0 3.0 -53.75 16.35 -45.15 33.2 -41.85 39.6 -34.6 48.45 L-28.0 56.0 -28.0 60.0 0.0 60.0 28.0 60.0 28.0 56.0 34.6 48.45 Q41.85 39.6 45.15 33.2 53.75 16.35 52.0 3.0 51.5 -0.55 50.25 -3.55 54.65 -4.7 57.3 -7.65 58.95 -9.45 59.0 -11.15 59.1 -12.85 57.5 -13.65 56.7 -14.05 56.6 -15.95 L56.55 -20.3 Q56.3 -26.95 52.35 -30.3 49.65 -32.55 45.45 -33.1 41.4 -33.6 37.8 -32.3 34.0 -30.95 31.4 -27.2 29.25 -24.1 28.7 -20.05 24.55 -21.6 20.0 -22.65 12.9 -24.4 15.55 -32.0 16.25 -33.9 19.55 -36.0 21.65 -39.45 21.05 -42.1 L20.0 -44.0 13.75 -44.0 20.0 -48.0 24.0 -48.0 28.0 -52.0 Q28.5 -57.85 24.0 -60.0 M32.45 -18.6 Q33.85 -24.05 37.25 -26.35 40.95 -28.8 45.85 -27.25 48.9 -26.3 50.3 -24.05 51.6 -22.05 51.85 -18.45 52.25 -13.25 49.45 -9.9 L47.55 -8.2 46.55 -9.4 Q42.85 -13.6 36.0 -17.0 L32.45 -18.6 M-47.45 -8.3 L-46.55 -9.4 Q-42.85 -13.6 -36.0 -17.0 L-32.25 -18.7 Q-33.65 -24.05 -37.05 -26.35 -40.75 -28.8 -45.65 -27.25 -48.7 -26.3 -50.1 -24.05 -51.4 -22.05 -51.65 -18.45 -52.05 -13.25 -49.25 -9.9 L-47.45 -8.3" fill="none" stroke="#000000" stroke-linecap="round" stroke-linejoin="round" stroke-width="4.0"/>
    <path d="M31.6 -13.25 L28.6 -14.8 Q27.95 -22.15 31.45 -27.1 33.9 -30.6 37.8 -32.3 41.35 -33.85 45.5 -33.25 49.55 -32.65 52.35 -30.3 56.3 -26.95 56.55 -20.3 L56.6 -15.95 Q56.7 -14.05 57.5 -13.65 59.1 -12.85 59.0 -11.15 58.95 -9.45 57.3 -7.65 53.3 -3.2 45.2 -2.8 43.55 -2.75 41.3 -5.4 38.95 -8.15 40.7 -7.65 46.3 -6.15 49.45 -9.9 52.25 -13.25 51.85 -18.45 51.6 -22.05 50.3 -24.05 48.9 -26.3 45.85 -27.25 40.95 -28.8 37.25 -26.35 32.35 -23.05 31.6 -13.25" fill="url(#gradient0)" fill-rule="evenodd" stroke="none"/>
    <path d="M-45.25 -33.1 Q-41.2 -33.6 -37.6 -32.3 -33.8 -30.95 -31.2 -27.2 -27.75 -22.2 -28.4 -14.8 L-31.4 -13.25 Q-32.15 -23.05 -37.05 -26.35 -40.75 -28.8 -45.65 -27.25 -48.7 -26.3 -50.1 -24.05 -51.4 -22.05 -51.65 -18.45 -52.05 -13.25 -49.25 -9.9 -46.1 -6.15 -40.5 -7.65 -38.75 -8.15 -41.1 -5.4 -43.35 -2.75 -45.0 -2.8 -53.1 -3.2 -57.1 -7.65 -58.75 -9.45 -58.8 -11.15 -58.9 -12.85 -57.3 -13.65 -56.5 -14.05 -56.4 -15.95 L-56.35 -20.3 Q-56.1 -26.95 -52.15 -30.3 -49.45 -32.55 -45.25 -33.1" fill="url(#gradient1)" fill-rule="evenodd" stroke="none"/>
    <path d="M-28.0 56.0 L-34.6 48.45 Q-41.85 39.6 -45.15 33.2 -53.75 16.35 -52.0 3.0 -51.0 -4.35 -46.55 -9.4 -42.85 -13.6 -36.0 -17.0 -28.65 -20.6 -20.0 -22.65 -12.9 -24.4 -15.55 -32.0 L0.0 -32.0 15.55 -32.0 Q12.9 -24.4 20.0 -22.65 28.65 -20.6 36.0 -17.0 42.85 -13.6 46.55 -9.4 51.0 -4.35 52.0 3.0 53.75 16.35 45.15 33.2 41.85 39.6 34.6 48.45 L28.0 56.0 -28.0 56.0" fill="#b7adbc" fill-rule="evenodd" stroke="none"/>
    <path d="M-28.0 56.0 L28.0 56.0 28.0 60.0 0.0 60.0 -28.0 60.0 -28.0 56.0" fill="url(#gradient2)" fill-rule="evenodd" stroke="none"/>
    <path d="M11.85 -32.15 Q11.7 -30.65 11.95 -28.2 12.15 -25.4 12.65 -24.55 14.1 -21.0 19.3 -19.7 27.6 -17.75 34.7 -14.3 40.45 -11.45 43.8 -8.0 L-43.75 -8.0 Q-40.45 -11.45 -34.65 -14.3 -27.6 -17.75 -19.3 -19.7 L-19.25 -19.7 Q-14.45 -20.9 -12.6 -24.55 -12.0 -25.75 -12.05 -28.2 -12.1 -30.7 -12.85 -32.15 L11.85 -32.15" fill="url(#gradient3)" fill-rule="evenodd" stroke="none"/>
    <path d="M43.8 -8.0 L44.3 -7.4 Q48.15 -3.0 49.05 3.4 50.6 15.95 42.5 31.85 39.3 38.0 32.3 46.55 L26.7 53.0 -26.65 53.0 -32.25 46.55 -32.3 46.55 Q-39.3 38.0 -42.45 31.85 -50.6 15.95 -49.0 3.4 -48.15 -3.0 -44.3 -7.4 L-43.75 -8.0 43.8 -8.0" fill="url(#gradient4)" fill-rule="evenodd" stroke="none"/>
    <path d="M43.8 -8.0 L44.3 -7.4 Q48.15 -3.0 49.05 3.4 50.6 15.95 42.5 31.85 39.3 38.0 32.3 46.55 L26.7 53.0 -26.65 53.0 -32.25 46.55 -32.3 46.55 Q-39.3 38.0 -42.45 31.85 -50.6 15.95 -49.0 3.4 -48.15 -3.0 -44.3 -7.4 L-43.75 -8.0" fill="none" stroke="#6f2d2d" stroke-linecap="round" stroke-linejoin="round" stroke-width="1.0"/>
    <path d="M11.85 -32.15 Q11.7 -30.65 11.95 -28.2 12.15 -25.4 12.65 -24.55 14.1 -21.0 19.3 -19.7 27.6 -17.75 34.7 -14.3 40.45 -11.45 43.8 -8.0 M-43.75 -8.0 Q-40.45 -11.45 -34.65 -14.3 -27.6 -17.75 -19.3 -19.7 L-19.25 -19.7 Q-14.45 -20.9 -12.6 -24.55 -12.0 -25.75 -12.05 -28.2 -12.1 -30.7 -12.85 -32.15" fill="none" stroke="url(#gradient5)" stroke-linecap="round" stroke-linejoin="round" stroke-width="1.0"/>
    <path d="M20.0 -48.0 L13.75 -44.0 10.65 -36.0 5.4 -36.0 8.0 -44.0 12.0 -48.0 20.0 -48.0" fill="#9d89ad" fill-rule="evenodd" stroke="none"/>
    <path d="M-10.6 -36.0 L-13.75 -44.0 -20.0 -48.0 12.0 -48.0 8.0 -44.0 5.4 -36.0 -10.6 -36.0" fill="#857294" fill-rule="evenodd" stroke="none"/>
    <path d="M5.0 -24.0 L0.0 -24.0 -5.0 -24.0 -9.4 -23.9 -10.6 -36.0 5.4 -36.0 5.0 -24.0" fill="#bfb8c7" fill-rule="evenodd" stroke="none"/>
    <path d="M10.65 -36.0 L9.4 -23.9 5.0 -24.0 5.4 -36.0 10.65 -36.0" fill="#d0cbd6" fill-rule="evenodd" stroke="none"/>
    <path d="M-28.0 -52.0 Q-28.5 -57.85 -24.0 -60.0 L24.0 -60.0 Q28.5 -57.85 28.0 -52.0 L-28.0 -52.0" fill="url(#gradient6)" fill-rule="evenodd" stroke="none"/>
    <path d="M-28.0 -52.0 L28.0 -52.0 24.0 -48.0 20.0 -48.0 12.0 -48.0 -20.0 -48.0 -24.0 -48.0 -28.0 -52.0" fill="url(#gradient7)" fill-rule="evenodd" stroke="none"/>
    <path d="M10.65 -36.0 L9.4 -23.9 5.0 -24.0 0.0 -24.0 -5.0 -24.0 -9.4 -23.9 -10.6 -36.0" fill="none" stroke="#8d7795" stroke-linecap="round" stroke-linejoin="round" stroke-width="1.0"/>
    <path d="M19.55 -36.0 L0.0 -36.0 -19.55 -36.0 Q-21.65 -39.45 -21.05 -42.1 L-20.0 -44.0 0.0 -44.0 20.0 -44.0 21.05 -42.1 Q21.65 -39.45 19.55 -36.0" fill="url(#gradient8)" fill-rule="evenodd" stroke="none"/>
    <path d="M-19.55 -36.0 L0.0 -36.0 19.55 -36.0 Q16.25 -33.9 15.55 -32.0 L0.0 -32.0 -15.55 -32.0 Q-16.25 -33.9 -19.55 -36.0" fill="url(#gradient9)" fill-rule="evenodd" stroke="none"/>
    <path d="M0.1 -56.65 L-14.95 -57.15 Q-21.15 -57.65 -21.15 -58.35 -21.15 -59.0 -14.95 -59.5 L0.1 -60.0 15.1 -59.5 Q21.35 -59.0 21.35 -58.35 21.35 -57.65 15.1 -57.15 L0.1 -56.65" fill="url(#gradient10)" fill-rule="evenodd" stroke="none"/>
    <path d="M0.1 -41.2 L-12.1 -41.6 Q-17.15 -42.0 -17.15 -42.55 -17.15 -43.1 -12.1 -43.5 L0.1 -43.9 12.3 -43.5 Q17.35 -43.1 17.35 -42.55 17.35 -42.0 12.3 -41.6 L0.1 -41.2" fill="url(#gradient11)" fill-rule="evenodd" stroke="none"/>
    <path d="M17.2 -10.8 Q19.75 -5.55 20.5 1.1 21.0 4.6 21.0 8.6 21.0 19.95 17.2 27.95 13.35 36.0 8.0 36.0 2.65 36.0 -1.2 27.95 -5.0 19.95 -5.0 8.6 -5.0 4.6 -4.5 1.1 -3.6 -5.55 -1.2 -10.8 2.65 -18.75 8.0 -18.75 13.35 -18.75 17.2 -10.8" fill="url(#gradient12)" fill-rule="evenodd" stroke="none"/>
  </g>
  <defs>
    <linearGradient gradientTransform="matrix(0.0097, -0.0143, 0.0154, 0.0104, 44.75, -20.35)" gradientUnits="userSpaceOnUse" id="gradient0" spreadMethod="pad" x1="-819.2" x2="819.2">
      <stop offset="0.0784313725490196" stop-color="#d5cfda"/>
      <stop offset="0.24313725490196078" stop-color="#978ea2"/>
      <stop offset="0.6627450980392157" stop-color="#b4aab9"/>
      <stop offset="0.8588235294117647" stop-color="#d8d5db"/>
    </linearGradient>
    <linearGradient gradientTransform="matrix(-0.0097, -0.0143, -0.0154, 0.0104, -44.55, -20.35)" gradientUnits="userSpaceOnUse" id="gradient1" spreadMethod="pad" x1="-819.2" x2="819.2">
      <stop offset="0.0784313725490196" stop-color="#d5cfda"/>
      <stop offset="0.24313725490196078" stop-color="#978ea2"/>
      <stop offset="0.6627450980392157" stop-color="#b4aab9"/>
      <stop offset="0.8588235294117647" stop-color="#d8d5db"/>
    </linearGradient>
    <linearGradient gradientTransform="matrix(0.0342, 0.0, 0.0, 0.0024, 0.0, 58.0)" gradientUnits="userSpaceOnUse" id="gradient2" spreadMethod="pad" x1="-819.2" x2="819.2">
      <stop offset="0.0" stop-color="#af9eb6"/>
      <stop offset="0.5058823529411764" stop-color="#bcb4c2"/>
      <stop offset="1.0" stop-color="#af9eb6"/>
    </linearGradient>
    <radialGradient cx="0" cy="0" gradientTransform="matrix(0.045, 0.0, 0.0, 0.045, 0.0, -8.0)" gradientUnits="userSpaceOnUse" id="gradient3" r="819.2" spreadMethod="pad">
      <stop offset="0.0" stop-color="#cec7d3"/>
      <stop offset="0.3254901960784314" stop-color="#c6bbcb"/>
      <stop offset="1.0" stop-color="#9589a0"/>
    </radialGradient>
    <linearGradient gradientTransform="matrix(0.0, -0.0372, 0.0372, 0.0, 0.0, 22.5)" gradientUnits="userSpaceOnUse" id="gradient4" spreadMethod="pad" x1="-819.2" x2="819.2">
      <stop offset="0.0" stop-color="#79225e"/>
      <stop offset="0.15294117647058825" stop-color="#512020"/>
      <stop offset="0.3568627450980392" stop-color="#572020"/>
      <stop offset="1.0" stop-color="#f1300e"/>
    </linearGradient>
    <linearGradient gradientTransform="matrix(0.0, -0.0145, 0.0526, 0.0, 30.5, -20.1)" gradientUnits="userSpaceOnUse" id="gradient5" spreadMethod="pad" x1="-819.2" x2="819.2">
      <stop offset="0.0" stop-color="#7a6987"/>
      <stop offset="1.0" stop-color="#ab9db7"/>
    </linearGradient>
    <linearGradient gradientTransform="matrix(0.0, -0.0049, 0.0049, 0.0, 0.0, -56.0)" gradientUnits="userSpaceOnUse" id="gradient6" spreadMethod="pad" x1="-819.2" x2="819.2">
      <stop offset="0.0" stop-color="#9d8caa"/>
      <stop offset="0.42745098039215684" stop-color="#bab1c4"/>
      <stop offset="1.0" stop-color="#c9c2d1"/>
    </linearGradient>
    <radialGradient cx="0" cy="0" gradientTransform="matrix(0.0, -0.0095, 0.0381, 0.0, 0.0, -48.0)" gradientUnits="userSpaceOnUse" id="gradient7" r="819.2" spreadMethod="pad">
      <stop offset="0.5098039215686274" stop-color="#7a6987"/>
      <stop offset="1.0" stop-color="#ab9db7"/>
    </radialGradient>
    <linearGradient gradientTransform="matrix(0.0, -0.0072, 0.0049, 0.0, 0.0, -38.25)" gradientUnits="userSpaceOnUse" id="gradient8" spreadMethod="pad" x1="-819.2" x2="819.2">
      <stop offset="0.0" stop-color="#92869b"/>
      <stop offset="0.48627450980392156" stop-color="#9c92a5"/>
      <stop offset="0.7333333333333333" stop-color="#bfb3c4"/>
    </linearGradient>
    <radialGradient cx="0" cy="0" gradientTransform="matrix(0.0, -0.0107, 0.0329, 0.0, 0.0, -37.5)" gradientUnits="userSpaceOnUse" id="gradient9" r="819.2" spreadMethod="pad">
      <stop offset="0.0" stop-color="#92869b"/>
      <stop offset="0.7294117647058823" stop-color="#92869b"/>
      <stop offset="0.8470588235294118" stop-color="#bfb3c4"/>
    </radialGradient>
    <linearGradient gradientTransform="matrix(0.0259, 0.0, 0.0, 0.002, 0.1, -58.35)" gradientUnits="userSpaceOnUse" id="gradient10" spreadMethod="pad" x1="-819.2" x2="819.2">
      <stop offset="0.0" stop-color="#ffffff" stop-opacity="0.0"/>
      <stop offset="0.49411764705882355" stop-color="#ffffff" stop-opacity="0.6431373"/>
      <stop offset="1.0" stop-color="#ffffff" stop-opacity="0.0"/>
    </linearGradient>
    <linearGradient gradientTransform="matrix(0.0211, 0.0, 0.0, 0.0016, 0.1, -42.55)" gradientUnits="userSpaceOnUse" id="gradient11" spreadMethod="pad" x1="-819.2" x2="819.2">
      <stop offset="0.0" stop-color="#ffffff" stop-opacity="0.0"/>
      <stop offset="0.49411764705882355" stop-color="#ffffff" stop-opacity="0.6431373"/>
      <stop offset="1.0" stop-color="#ffffff" stop-opacity="0.0"/>
    </linearGradient>
    <radialGradient cx="0" cy="0" gradientTransform="matrix(0.0142, 0.0, 0.0, 0.0401, 8.0, -1.95)" gradientUnits="userSpaceOnUse" id="gradient12" r="819.2" spreadMethod="pad">
      <stop offset="0.0" stop-color="#ffffff"/>
      <stop offset="0.4" stop-color="#ffffff" stop-opacity="0.8117647"/>
      <stop offset="1.0" stop-color="#ffffff" stop-opacity="0.0"/>
    </radialGradient>
  </defs>
</svg>
