<?xml version="1.0" encoding="UTF-8" standalone="no"?>
<svg xmlns:xlink="http://www.w3.org/1999/xlink" height="4830.4px" width="583.6px" xmlns="http://www.w3.org/2000/svg">
  <g transform="matrix(1.0, 0.0, 0.0, 1.0, 291.8, 4798.4)">
    <path d="M-34.6 -4798.4 L42.6 -4798.4 Q38.5 -4750.15 38.4 -4221.95 38.3 -3717.95 41.8 -3062.15 45.5 -2363.8 51.4 -1875.25 58.15 -1314.75 65.75 -1217.4 72.4 -1129.45 82.1 -968.55 91.7 -810.2 97.2 -738.2 106.45 -616.5 118.2 -526.55 132.2 -419.7 152.5 -334.0 213.3 -77.75 291.6 -0.85 L291.8 -0.85 Q291.8 12.7 206.3 22.35 120.65 32.0 0.0 32.0 -120.85 32.0 -206.3 22.35 -291.8 12.7 -291.8 -0.85 L-291.6 -0.85 Q-213.3 -77.75 -152.45 -334.0 -111.5 -507.1 -90.35 -737.8 -72.0 -938.15 -65.75 -1217.4 -63.55 -1310.55 -56.9 -1858.35 -49.95 -2433.65 -43.8 -3047.15 -27.15 -4711.25 -34.6 -4798.4" fill="url(#gradient0)" fill-rule="evenodd" stroke="none"/>
  </g>
  <defs>
    <linearGradient gradientTransform="matrix(0.3562, 0.0, 0.0, 1.4248, 0.0, -1135.2)" gradientUnits="userSpaceOnUse" id="gradient0" spreadMethod="pad" x1="-819.2" x2="819.2">
      <stop offset="0.0" stop-color="#fc8d1f"/>
      <stop offset="0.3803921568627451" stop-color="#fcc55f"/>
      <stop offset="0.6196078431372549" stop-color="#fcc55f"/>
      <stop offset="1.0" stop-color="#fc8d1f"/>
    </linearGradient>
  </defs>
</svg>
