<?xml version="1.0" encoding="UTF-8" standalone="no"?>
<svg xmlns:xlink="http://www.w3.org/1999/xlink" height="108.0px" width="73.0px" xmlns="http://www.w3.org/2000/svg">
  <g transform="matrix(1.0, 0.0, 0.0, 1.0, 36.5, 54.5)">
    <path d="M21.45 -42.5 L21.95 -41.85 Q24.8 -37.9 26.75 -32.9 L28.2 -28.7 Q30.75 -19.75 30.7 -7.95 L30.65 -4.85 30.65 -4.4 31.2 -4.2 32.1 -3.35 36.1 2.65 36.5 3.95 Q36.55 4.65 36.2 5.25 L32.2 12.25 31.25 13.15 30.0 13.5 29.8 13.5 29.4 14.8 28.45 16.05 27.0 16.5 26.0 16.5 Q26.5 17.4 26.5 18.5 26.5 20.0 25.5 21.15 L25.5 25.0 25.5 25.1 Q25.65 25.95 26.7 26.9 28.3 28.3 30.3 28.55 31.2 28.6 31.85 29.35 32.5 30.05 32.5 31.0 L32.5 51.0 Q32.5 52.05 31.8 52.8 31.05 53.5 30.0 53.5 L12.0 53.5 Q10.95 53.5 10.25 52.8 9.5 52.05 9.5 51.0 L9.5 38.2 Q9.5 35.5 6.8 35.5 L4.5 35.5 4.5 51.0 Q4.5 52.05 3.8 52.8 3.05 53.5 2.0 53.5 L-2.0 53.5 Q-3.05 53.5 -3.75 52.8 -4.5 52.05 -4.5 51.0 L-4.5 35.5 -6.8 35.5 Q-9.5 35.5 -9.5 38.2 L-9.5 51.0 Q-9.5 52.05 -10.2 52.8 -10.95 53.5 -12.0 53.5 L-30.0 53.5 Q-31.05 53.5 -31.75 52.8 -32.5 52.05 -32.5 51.0 L-32.5 31.0 Q-32.5 30.05 -31.85 29.35 -31.2 28.6 -30.25 28.55 -28.3 28.3 -26.7 26.9 -25.65 25.95 -25.5 25.1 L-25.5 25.0 -25.5 21.15 Q-26.5 20.0 -26.5 18.5 -26.5 17.4 -25.95 16.5 L-27.0 16.5 -28.45 16.05 -29.35 14.8 -29.8 13.5 -30.0 13.5 -31.25 13.15 -32.15 12.25 -36.15 5.25 Q-36.55 4.65 -36.5 3.95 -36.45 3.2 -36.05 2.65 L-32.05 -3.35 -31.15 -4.2 -30.6 -4.4 -30.7 -7.95 -30.7 -8.0 Q-30.75 -19.75 -28.15 -28.7 L-26.75 -32.9 Q-24.8 -37.9 -21.9 -41.85 L-21.4 -42.5 -21.45 -42.5 Q-13.35 -53.1 -0.25 -54.45 L0.25 -54.45 Q13.35 -53.1 21.45 -42.5" fill="#000000" fill-rule="evenodd" stroke="none"/>
    <path d="M-34.0 4.0 L-30.0 -2.0 0.0 -2.0 30.0 -2.0 34.0 4.0 -34.0 4.0" fill="url(#gradient0)" fill-rule="evenodd" stroke="none"/>
    <path d="M-34.0 4.0 L34.0 4.0 30.0 11.0 28.0 11.0 0.0 11.0 -28.0 11.0 -30.0 11.0 -34.0 4.0" fill="url(#gradient1)" fill-rule="evenodd" stroke="none"/>
    <path d="M28.0 11.0 L27.0 14.0 0.0 14.0 -27.0 14.0 -28.0 11.0 0.0 11.0 28.0 11.0" fill="url(#gradient2)" fill-rule="evenodd" stroke="none"/>
    <path d="M-23.0 25.0 L-23.0 19.0 -2.0 19.0 -2.0 33.0 -6.8 33.0 Q-12.0 33.0 -12.0 38.2 L-12.0 51.0 -30.0 51.0 -30.0 31.0 Q-27.25 30.7 -25.05 28.75 -22.95 26.9 -23.0 25.0" fill="url(#gradient3)" fill-rule="evenodd" stroke="none"/>
    <path d="M6.8 33.0 L2.0 33.0 2.0 19.0 23.0 19.0 23.0 25.0 Q22.95 26.9 25.05 28.75 27.25 30.7 30.0 31.0 L30.0 51.0 12.0 51.0 12.0 38.2 Q12.0 33.0 6.8 33.0" fill="url(#gradient4)" fill-rule="evenodd" stroke="none"/>
    <path d="M25.8 -28.0 Q28.25 -19.35 28.2 -8.0 L-28.2 -8.0 Q-28.25 -19.35 -25.75 -28.0 L-24.4 -32.0 Q-22.6 -36.65 -19.9 -40.4 L-19.45 -41.0 Q-12.05 -50.75 0.0 -52.0 12.05 -50.75 19.45 -41.0 L19.9 -40.4 Q22.6 -36.65 24.45 -32.0 L25.8 -28.0" fill="url(#gradient5)" fill-rule="evenodd" stroke="none"/>
    <path d="M-19.45 -41.0 L19.45 -41.0" fill="none" stroke="url(#gradient6)" stroke-linecap="round" stroke-linejoin="round" stroke-width="0.25"/>
    <path d="M-8.9 -42.9 Q-8.3 -41.0 -9.9 -38.75 -11.6 -36.4 -13.6 -37.7 -14.9 -38.8 -14.35 -40.8 -14.05 -41.9 -13.0 -42.85 L-10.95 -43.95 -9.7 -43.8 Q-9.1 -43.5 -8.9 -42.9" fill="url(#gradient7)" fill-rule="evenodd" stroke="none"/>
    <path d="M13.6 -37.7 Q11.6 -36.4 9.9 -38.75 8.3 -41.0 8.9 -42.9 9.1 -43.5 9.7 -43.8 L10.95 -43.95 13.0 -42.85 Q14.05 -41.9 14.35 -40.8 14.9 -38.8 13.6 -37.7" fill="url(#gradient8)" fill-rule="evenodd" stroke="none"/>
    <path d="M10.3 -40.2 L11.55 -40.35 Q12.25 -40.15 12.65 -39.5 13.05 -38.9 12.95 -38.15 12.8 -37.5 12.35 -37.15 11.05 -37.05 9.9 -38.65 L9.65 -39.05 9.65 -39.15 Q9.75 -39.9 10.3 -40.2" fill="url(#gradient9)" fill-rule="evenodd" stroke="none"/>
    <path d="M-9.65 -39.15 L-9.9 -38.75 Q-11.05 -37.15 -12.35 -37.25 -12.8 -37.6 -12.95 -38.25 -13.05 -39.0 -12.65 -39.6 -12.25 -40.25 -11.55 -40.45 L-10.3 -40.3 Q-9.75 -40.0 -9.65 -39.25 L-9.65 -39.15" fill="url(#gradient10)" fill-rule="evenodd" stroke="none"/>
    <path d="M12.45 -2.0 L7.8 -8.0 14.8 -8.0 19.45 -2.0 18.45 -2.0 12.45 -2.0 M-1.2 -8.0 L3.45 -2.0 0.0 -2.0 -4.55 -2.0 -5.55 -2.0 -10.2 -8.0 -1.2 -8.0 M-12.55 -2.0 L-13.55 -2.0 -17.55 -2.0 -18.55 -2.0 -23.2 -8.0 -17.2 -8.0 -12.55 -2.0 M-23.55 -2.0 L-28.0 -2.0 -28.2 -7.95 -23.55 -2.0 M20.8 -8.0 L25.8 -8.0 28.15 -4.95 28.1 -3.75 28.0 -2.0 25.45 -2.0 20.8 -8.0" fill="url(#gradient11)" fill-rule="evenodd" stroke="none"/>
    <path d="M12.45 -2.0 L11.45 -2.0 3.45 -2.0 -1.2 -8.0 7.8 -8.0 12.45 -2.0 M-5.55 -2.0 L-11.55 -2.0 -12.55 -2.0 -17.2 -8.0 -10.2 -8.0 -5.55 -2.0 M-18.55 -2.0 L-19.55 -2.0 -22.55 -2.0 -23.55 -2.0 -28.2 -7.95 -28.2 -8.0 -23.2 -8.0 -18.55 -2.0 M19.45 -2.0 L14.8 -8.0 20.8 -8.0 25.45 -2.0 24.45 -2.0 19.45 -2.0 M25.8 -8.0 L28.2 -8.0 28.15 -4.95 25.8 -8.0" fill="url(#gradient12)" fill-rule="evenodd" stroke="none"/>
    <path d="M24.45 -32.0 L25.15 -30.0 -25.15 -30.0 -24.45 -31.95 -24.4 -32.0 24.45 -32.0" fill="url(#gradient13)" fill-rule="evenodd" stroke="none"/>
    <path d="M19.65 21.65 Q16.15 25.2 10.6 27.15 5.45 29.0 0.0 29.0 -5.4 29.0 -10.6 27.15 -16.15 25.2 -19.7 21.65 -23.2 18.15 -25.0 14.0 L25.0 14.0 Q23.1 18.2 19.65 21.65" fill="url(#gradient14)" fill-rule="evenodd" stroke="none"/>
    <path d="M-2.0 31.0 L-2.0 20.0 2.0 20.0 2.0 31.0 -2.0 31.0" fill="url(#gradient15)" fill-rule="evenodd" stroke="none"/>
    <path d="M2.0 31.0 L2.0 51.0 -2.0 51.0 -2.0 31.0 2.0 31.0" fill="url(#gradient16)" fill-rule="evenodd" stroke="none"/>
    <path d="M12.25 24.55 L15.25 24.45 Q15.7 25.1 15.7 26.0 15.7 27.1 14.95 27.9 14.1 28.7 13.0 28.7 11.85 28.7 11.1 27.9 L10.6 27.3 Q10.5 25.45 12.25 24.55" fill="url(#gradient17)" fill-rule="evenodd" stroke="none"/>
    <path d="M-15.25 24.45 L-12.25 24.55 Q-10.5 25.45 -10.6 27.3 L-11.1 27.9 Q-11.85 28.7 -13.0 28.7 -14.1 28.7 -14.95 27.9 -15.7 27.1 -15.7 26.0 -15.7 25.1 -15.25 24.45" fill="url(#gradient18)" fill-rule="evenodd" stroke="none"/>
    <path d="M23.55 19.55 L22.5 20.0 -22.5 20.0 -23.55 19.55 Q-24.0 19.1 -24.0 18.5 -24.0 17.9 -23.55 17.45 -23.1 17.0 -22.5 17.0 L22.5 17.0 Q23.1 17.0 23.55 17.45 24.0 17.9 24.0 18.5 24.0 19.1 23.55 19.55" fill="url(#gradient19)" fill-rule="evenodd" stroke="none"/>
    <path d="M30.0 44.0 L12.0 44.0 12.0 40.0 30.0 40.0 30.0 44.0 M2.0 44.0 L-2.0 44.0 -2.0 40.0 2.0 40.0 2.0 44.0 M-12.0 44.0 L-30.0 44.0 -30.0 40.0 -12.0 40.0 -12.0 44.0" fill="url(#gradient20)" fill-rule="evenodd" stroke="none"/>
    <path d="M6.65 -23.0 L3.65 -19.3 Q4.1 -18.45 4.1 -17.4 4.1 -16.35 3.65 -15.5 L3.8 -15.8 4.0 -16.05 4.3 -16.1 4.6 -15.9 6.1 -14.25 6.1 -14.2 Q7.95 -11.9 7.7 -11.1 L7.6 -10.8 7.0 -10.3 Q6.65 -10.15 6.3 -10.3 5.7 -10.5 2.6 -13.0 L2.6 -13.05 1.8 -13.7 Q1.0 -13.3 0.0 -13.3 -1.0 -13.3 -1.8 -13.7 L-2.6 -13.05 -2.6 -13.0 Q-5.7 -10.5 -6.3 -10.3 -6.65 -10.15 -7.0 -10.3 L-7.6 -10.8 -7.7 -11.1 Q-7.95 -11.9 -6.1 -14.2 L-6.1 -14.25 -4.6 -15.9 -4.3 -16.1 -4.0 -16.05 -3.8 -15.8 -3.65 -15.5 Q-4.1 -16.35 -4.1 -17.4 -4.1 -18.45 -3.65 -19.3 L-6.65 -23.0 -6.7 -23.05 -6.95 -23.45 -7.0 -23.45 -7.15 -24.2 -7.05 -24.4 -6.8 -24.75 Q-6.1 -25.8 -3.15 -23.45 L-3.15 -23.4 -1.55 -22.0 -1.4 -21.7 Q-1.35 -21.55 -1.45 -21.4 L-1.7 -21.2 0.0 -21.55 1.7 -21.2 1.45 -21.4 Q1.35 -21.55 1.4 -21.7 L1.55 -22.0 3.15 -23.4 3.15 -23.45 Q6.1 -25.8 6.8 -24.75 L7.05 -24.4 7.15 -24.2 7.0 -23.45 6.95 -23.45 6.7 -23.05 6.65 -23.0" fill="#000000" fill-opacity="0.023529412" fill-rule="evenodd" stroke="none"/>
    <path d="M-3.7 -14.65 L-4.9 -13.25 Q-6.25 -11.6 -6.45 -11.8 L-6.25 -11.45 -6.35 -11.1 -6.65 -10.9 -7.05 -11.0 Q-7.7 -11.4 -5.7 -13.9 L-4.25 -15.6 -3.7 -14.65 M-2.75 -21.1 L-4.1 -22.25 -5.7 -23.75 Q-5.85 -23.6 -6.05 -23.6 -6.25 -23.6 -6.4 -23.75 L-6.55 -24.1 -6.4 -24.45 Q-5.95 -25.05 -3.45 -23.05 L-1.9 -21.65 -2.75 -21.1 M4.9 -13.4 L4.85 -13.45 3.7 -14.7 4.25 -15.6 5.65 -14.05 6.9 -12.3 7.2 -11.8 7.3 -11.55 Q7.35 -11.0 6.9 -10.95 L6.5 -11.0 6.3 -11.3 6.25 -11.4 6.05 -11.75 4.9 -13.4 M5.95 -23.55 Q5.75 -23.55 5.6 -23.7 5.75 -23.5 4.1 -22.15 L4.05 -22.15 2.8 -21.1 1.9 -21.65 3.45 -22.95 Q5.9 -24.95 6.3 -24.4 L6.45 -24.05 6.3 -23.7 5.95 -23.55" fill="#000000" fill-opacity="0.38039216" fill-rule="evenodd" stroke="none"/>
    <path d="M2.5 -14.9 Q1.5 -13.8 0.0 -13.8 -1.5 -13.8 -2.55 -14.9 -3.6 -15.95 -3.6 -17.4 -3.6 -18.9 -2.55 -20.0 -1.5 -21.05 0.0 -21.05 1.5 -21.05 2.5 -20.0 3.6 -18.9 3.6 -17.4 3.6 -15.95 2.5 -14.9" fill="#000000" fill-rule="evenodd" stroke="none"/>
    <path d="M3.3 -18.85 L1.45 -16.8 2.95 -15.4 2.5 -14.9 1.45 -14.1 0.05 -15.4 -1.4 -14.05 -2.55 -14.9 -2.95 -15.35 -1.35 -16.8 -3.3 -18.9 -2.55 -20.0 -2.0 -20.45 0.05 -18.2 2.05 -20.4 2.5 -20.0 3.3 -18.85" fill="#000000" fill-rule="evenodd" stroke="none"/>
    <path d="M-6.15 -24.0 L-3.55 -20.7 -0.35 -17.2 3.3 -13.8 Q5.65 -11.85 6.7 -11.25" fill="none" stroke="url(#gradient21)" stroke-linecap="round" stroke-linejoin="round" stroke-width="1.0"/>
    <path d="M6.2 -24.0 L3.6 -20.7 0.4 -17.2 -3.25 -13.8 Q-5.6 -11.85 -6.7 -11.25" fill="none" stroke="url(#gradient22)" stroke-linecap="round" stroke-linejoin="round" stroke-width="1.0"/>
    <path d="M25.15 -30.0 L25.5 -29.0 -25.45 -29.0 -25.15 -30.0 25.15 -30.0" fill="#ffffff" fill-opacity="0.15294118" fill-rule="evenodd" stroke="none"/>
    <path d="M2.0 28.0 L-2.0 28.0 -2.0 20.0 2.0 20.0 2.0 28.0 M29.0 12.0 L-29.0 12.0 -29.0 11.0 29.0 11.0 29.0 12.0 M25.0 15.0 L-25.0 15.0 -25.0 14.0 25.0 14.0 25.0 15.0" fill="#000000" fill-opacity="0.15294118" fill-rule="evenodd" stroke="none"/>
  </g>
  <defs>
    <linearGradient gradientTransform="matrix(0.0415, 0.0, 0.0, 0.0037, 0.0, 1.0)" gradientUnits="userSpaceOnUse" id="gradient0" spreadMethod="pad" x1="-819.2" x2="819.2">
      <stop offset="0.0" stop-color="#3e4114"/>
      <stop offset="0.22745098039215686" stop-color="#7a8129"/>
      <stop offset="0.396078431372549" stop-color="#dbdea7"/>
      <stop offset="0.5058823529411764" stop-color="#ffffff"/>
      <stop offset="0.615686274509804" stop-color="#dbdea7"/>
      <stop offset="0.7764705882352941" stop-color="#7a8129"/>
      <stop offset="1.0" stop-color="#3e4114"/>
    </linearGradient>
    <linearGradient gradientTransform="matrix(0.0415, 0.0, 0.0, 0.0043, 0.0, 7.5)" gradientUnits="userSpaceOnUse" id="gradient1" spreadMethod="pad" x1="-819.2" x2="819.2">
      <stop offset="0.0" stop-color="#393913"/>
      <stop offset="0.08627450980392157" stop-color="#24250c"/>
      <stop offset="0.21176470588235294" stop-color="#51551c"/>
      <stop offset="0.3333333333333333" stop-color="#868c33"/>
      <stop offset="0.42745098039215684" stop-color="#9da446"/>
      <stop offset="0.5372549019607843" stop-color="#9da446"/>
      <stop offset="0.6392156862745098" stop-color="#9da446"/>
      <stop offset="0.7254901960784313" stop-color="#868c33"/>
      <stop offset="0.8235294117647058" stop-color="#51551c"/>
      <stop offset="0.9254901960784314" stop-color="#24250c"/>
      <stop offset="1.0" stop-color="#393913"/>
    </linearGradient>
    <linearGradient gradientTransform="matrix(0.0342, 0.0, 0.0, 0.0018, 0.0, 12.5)" gradientUnits="userSpaceOnUse" id="gradient2" spreadMethod="pad" x1="-819.2" x2="819.2">
      <stop offset="0.0" stop-color="#353411"/>
      <stop offset="0.0784313725490196" stop-color="#20200b"/>
      <stop offset="0.22745098039215686" stop-color="#51551c"/>
      <stop offset="0.4470588235294118" stop-color="#868c33"/>
      <stop offset="0.5647058823529412" stop-color="#868c33"/>
      <stop offset="0.7764705882352941" stop-color="#51551c"/>
      <stop offset="0.9294117647058824" stop-color="#20200b"/>
      <stop offset="1.0" stop-color="#353411"/>
    </linearGradient>
    <linearGradient gradientTransform="matrix(0.0126, -0.0174, 0.0099, 0.0071, -21.2, 35.8)" gradientUnits="userSpaceOnUse" id="gradient3" spreadMethod="pad" x1="-819.2" x2="819.2">
      <stop offset="0.0" stop-color="#8a8a3c"/>
      <stop offset="0.6235294117647059" stop-color="#575620"/>
      <stop offset="0.6627450980392157" stop-color="#454416"/>
      <stop offset="1.0" stop-color="#25220c"/>
    </linearGradient>
    <linearGradient gradientTransform="matrix(-0.0126, -0.0174, -0.0099, 0.0071, 21.2, 35.8)" gradientUnits="userSpaceOnUse" id="gradient4" spreadMethod="pad" x1="-819.2" x2="819.2">
      <stop offset="0.0" stop-color="#8a8a3c"/>
      <stop offset="0.6235294117647059" stop-color="#575620"/>
      <stop offset="0.6627450980392157" stop-color="#454416"/>
      <stop offset="1.0" stop-color="#25220c"/>
    </linearGradient>
    <radialGradient cx="0" cy="0" fx="608.0" fy="0" gradientTransform="matrix(-2.0E-4, -0.0556, 0.0385, -2.0E-4, 0.0, -8.0)" gradientUnits="userSpaceOnUse" id="gradient5" r="819.2" spreadMethod="pad">
      <stop offset="0.043137254901960784" stop-color="#ffffff"/>
      <stop offset="0.13333333333333333" stop-color="#e8e7b3"/>
      <stop offset="0.20392156862745098" stop-color="#dbdb8e"/>
      <stop offset="0.4588235294117647" stop-color="#999933"/>
      <stop offset="0.6901960784313725" stop-color="#6a7025"/>
      <stop offset="0.8431372549019608" stop-color="#4e511a"/>
      <stop offset="1.0" stop-color="#111104"/>
    </radialGradient>
    <linearGradient gradientTransform="matrix(0.0239, 0.0, 0.0, 1.0E-4, 0.0, -41.0)" gradientUnits="userSpaceOnUse" id="gradient6" spreadMethod="pad" x1="-819.2" x2="819.2">
      <stop offset="0.0" stop-color="#303010"/>
      <stop offset="0.39215686274509803" stop-color="#cfce76"/>
      <stop offset="0.48627450980392156" stop-color="#ffffff"/>
      <stop offset="0.596078431372549" stop-color="#cfce76"/>
      <stop offset="1.0" stop-color="#303010"/>
    </linearGradient>
    <radialGradient cx="0" cy="0" gradientTransform="matrix(0.0051, 0.0017, -0.0025, 0.0076, -11.1, -37.9)" gradientUnits="userSpaceOnUse" id="gradient7" r="819.2" spreadMethod="pad">
      <stop offset="0.00392156862745098" stop-color="#e6c426"/>
      <stop offset="0.8156862745098039" stop-color="#bb8f11"/>
    </radialGradient>
    <radialGradient cx="0" cy="0" gradientTransform="matrix(-0.0051, 0.0017, 0.0025, 0.0076, 11.1, -37.9)" gradientUnits="userSpaceOnUse" id="gradient8" r="819.2" spreadMethod="pad">
      <stop offset="0.00392156862745098" stop-color="#e6c426"/>
      <stop offset="0.8156862745098039" stop-color="#bb8f11"/>
    </radialGradient>
    <linearGradient gradientTransform="matrix(-0.0011, -0.0017, 0.0016, -0.0011, 11.3, -38.8)" gradientUnits="userSpaceOnUse" id="gradient9" spreadMethod="pad" x1="-819.2" x2="819.2">
      <stop offset="0.0" stop-color="#000000"/>
      <stop offset="1.0" stop-color="#181a09"/>
    </linearGradient>
    <linearGradient gradientTransform="matrix(0.0014, -0.0015, 0.0015, 0.0013, -11.3, -38.95)" gradientUnits="userSpaceOnUse" id="gradient10" spreadMethod="pad" x1="-819.2" x2="819.2">
      <stop offset="0.0" stop-color="#000000"/>
      <stop offset="1.0" stop-color="#181a09"/>
    </linearGradient>
    <radialGradient cx="0" cy="0" fx="560.0" fy="0" gradientTransform="matrix(0.0, -0.0537, 0.0347, 0.0, 0.0, -8.0)" gradientUnits="userSpaceOnUse" id="gradient11" r="819.2" spreadMethod="pad">
      <stop offset="0.13333333333333333" stop-color="#5b5b5b"/>
      <stop offset="0.5882352941176471" stop-color="#2e2e2e"/>
      <stop offset="0.8980392156862745" stop-color="#1c1c1c"/>
      <stop offset="1.0" stop-color="#464646"/>
    </radialGradient>
    <radialGradient cx="0" cy="0" fx="579.2" fy="0" gradientTransform="matrix(0.0, -0.0537, 0.0348, 0.0, 0.0, -8.0)" gradientUnits="userSpaceOnUse" id="gradient12" r="819.2" spreadMethod="pad">
      <stop offset="0.30196078431372547" stop-color="#f0d040"/>
      <stop offset="0.5647058823529412" stop-color="#b0961c"/>
      <stop offset="0.8117647058823529" stop-color="#6d5712"/>
      <stop offset="0.9176470588235294" stop-color="#614b10"/>
      <stop offset="1.0" stop-color="#735a13"/>
    </radialGradient>
    <radialGradient cx="0" cy="0" gradientTransform="matrix(-1.0E-4, -0.0555, 0.0393, 0.0, 0.0, -8.0)" gradientUnits="userSpaceOnUse" id="gradient13" r="819.2" spreadMethod="pad">
      <stop offset="0.06666666666666667" stop-color="#ffffff"/>
      <stop offset="0.17647058823529413" stop-color="#fefefc"/>
      <stop offset="0.4196078431372549" stop-color="#989827"/>
      <stop offset="0.7333333333333333" stop-color="#5e621e"/>
      <stop offset="0.8784313725490196" stop-color="#3e4114"/>
      <stop offset="1.0" stop-color="#222209"/>
    </radialGradient>
    <radialGradient cx="0" cy="0" gradientTransform="matrix(5.0E-4, -0.0505, 0.0405, 4.0E-4, 0.0, -12.0)" gradientUnits="userSpaceOnUse" id="gradient14" r="819.2" spreadMethod="pad">
      <stop offset="0.0196078431372549" stop-color="#ffffff"/>
      <stop offset="0.09019607843137255" stop-color="#efefcf"/>
      <stop offset="0.22745098039215686" stop-color="#c8da8f"/>
      <stop offset="0.3803921568627451" stop-color="#acb53c"/>
      <stop offset="0.6901960784313725" stop-color="#616521"/>
      <stop offset="0.6901960784313725" stop-color="#5f6321"/>
      <stop offset="0.9137254901960784" stop-color="#383814"/>
      <stop offset="1.0" stop-color="#404015"/>
    </radialGradient>
    <linearGradient gradientTransform="matrix(0.0, -0.0067, 0.0067, -1.0E-4, 0.0, 25.5)" gradientUnits="userSpaceOnUse" id="gradient15" spreadMethod="pad" x1="-819.2" x2="819.2">
      <stop offset="0.0" stop-color="#7d7c39"/>
      <stop offset="0.1411764705882353" stop-color="#6a6a2b"/>
      <stop offset="0.2980392156862745" stop-color="#5f5e27"/>
      <stop offset="0.4745098039215686" stop-color="#646428"/>
      <stop offset="1.0" stop-color="#8a8a3f"/>
    </linearGradient>
    <linearGradient gradientTransform="matrix(0.0, -0.0056, 0.0055, 0.0, 0.0, 35.5)" gradientUnits="userSpaceOnUse" id="gradient16" spreadMethod="pad" x1="-819.2" x2="819.2">
      <stop offset="0.0" stop-color="#6d702b"/>
      <stop offset="1.0" stop-color="#8c8c39"/>
    </linearGradient>
    <radialGradient cx="0" cy="0" gradientTransform="matrix(0.0029, 0.0031, -0.0031, 0.0029, 12.65, 25.25)" gradientUnits="userSpaceOnUse" id="gradient17" r="819.2" spreadMethod="pad">
      <stop offset="0.0" stop-color="#727823"/>
      <stop offset="0.23921568627450981" stop-color="#6b7124"/>
      <stop offset="0.7098039215686275" stop-color="#404015"/>
      <stop offset="0.792156862745098" stop-color="#434215"/>
      <stop offset="1.0" stop-color="#4d501b"/>
    </radialGradient>
    <radialGradient cx="0" cy="0" gradientTransform="matrix(-0.0018, 0.0039, -0.004, -0.0019, -12.95, 25.25)" gradientUnits="userSpaceOnUse" id="gradient18" r="819.2" spreadMethod="pad">
      <stop offset="0.0" stop-color="#727823"/>
      <stop offset="0.22745098039215686" stop-color="#6b7124"/>
      <stop offset="0.7137254901960784" stop-color="#404015"/>
      <stop offset="0.796078431372549" stop-color="#434215"/>
      <stop offset="1.0" stop-color="#4d501b"/>
    </radialGradient>
    <radialGradient cx="0" cy="0" gradientTransform="matrix(0.0339, 0.0, 0.0, 0.0036, 0.0, 18.5)" gradientUnits="userSpaceOnUse" id="gradient19" r="819.2" spreadMethod="pad">
      <stop offset="0.03529411764705882" stop-color="#878c39"/>
      <stop offset="0.7294117647058823" stop-color="#494918"/>
      <stop offset="1.0" stop-color="#1b1f0c"/>
    </radialGradient>
    <linearGradient gradientTransform="matrix(0.0, -0.0024, 0.0024, 0.0, 21.0, 42.0)" gradientUnits="userSpaceOnUse" id="gradient20" spreadMethod="pad" x1="-819.2" x2="819.2">
      <stop offset="0.0" stop-color="#beb6ab"/>
      <stop offset="1.0" stop-color="#ceccc6"/>
    </linearGradient>
    <linearGradient gradientTransform="matrix(0.0089, 0.0084, -0.0058, 0.0061, 0.25, -17.65)" gradientUnits="userSpaceOnUse" id="gradient21" spreadMethod="pad" x1="-819.2" x2="819.2">
      <stop offset="0.0" stop-color="#232323"/>
      <stop offset="0.24313725490196078" stop-color="#6a6a6a"/>
      <stop offset="0.5215686274509804" stop-color="#8d8d8d"/>
      <stop offset="0.8196078431372549" stop-color="#6a6a6a"/>
      <stop offset="1.0" stop-color="#262626"/>
    </linearGradient>
    <linearGradient gradientTransform="matrix(0.0085, 0.0, 0.0, 0.0084, -0.25, -17.65)" gradientUnits="userSpaceOnUse" id="gradient22" spreadMethod="pad" x1="-819.2" x2="819.2">
      <stop offset="0.0" stop-color="#232323"/>
      <stop offset="0.24313725490196078" stop-color="#6a6a6a"/>
      <stop offset="0.5215686274509804" stop-color="#8d8d8d"/>
      <stop offset="0.8196078431372549" stop-color="#6a6a6a"/>
      <stop offset="1.0" stop-color="#262626"/>
    </linearGradient>
  </defs>
</svg>
