<?xml version="1.0" encoding="UTF-8" standalone="no"?>
<svg xmlns:xlink="http://www.w3.org/1999/xlink" height="126.0px" width="70.2px" xmlns="http://www.w3.org/2000/svg">
  <g transform="matrix(1.0, 0.0, 0.0, 1.0, 34.5, 63.5)">
    <path d="M3.0 -63.5 Q3.8 -63.5 4.45 -63.0 5.1 -62.55 5.4 -61.8 L5.85 -60.35 6.8 -59.75 Q7.5 -59.05 7.5 -58.0 L7.5 -54.0 8.15 -53.25 Q10.45 -49.4 10.55 -45.75 L12.95 -44.6 Q13.85 -44.15 14.2 -43.2 14.55 -42.25 14.15 -41.3 13.7 -40.35 12.75 -40.0 L11.4 -39.5 11.3 -37.45 Q11.25 -36.7 10.8 -36.1 L9.6 -35.2 8.15 -35.15 7.5 -35.45 7.5 -5.55 8.2 -3.9 9.1 -0.3 9.25 2.5 Q9.45 5.0 10.65 8.95 12.4 15.75 15.2 22.8 21.85 39.55 30.9 50.1 L34.95 54.3 Q35.45 54.8 35.65 55.45 L35.6 56.8 34.9 57.95 31.7 60.85 Q31.0 61.5 30.05 61.5 29.1 61.5 28.4 60.95 25.55 58.55 23.5 56.2 20.75 53.15 18.15 49.45 L16.1 46.3 Q11.1 38.25 5.7 24.95 4.6 22.25 2.75 16.0 L1.45 11.35 Q-0.55 18.3 -4.55 26.7 -12.25 43.0 -26.0 61.5 L-27.1 62.35 -28.5 62.45 Q-29.2 62.3 -29.75 61.8 L-33.75 57.9 Q-34.45 57.2 -34.5 56.25 -34.55 55.25 -33.9 54.5 -26.5 45.75 -21.15 36.75 L-21.25 36.15 Q-21.75 34.35 -21.45 33.55 -21.3 32.85 -20.75 32.35 L-18.75 30.35 -18.25 29.95 -17.1 29.1 -16.4 28.0 Q-9.85 14.35 -7.5 -0.15 L-7.5 -3.55 -7.8 -3.65 -9.0 -4.55 Q-9.5 -5.2 -9.5 -6.0 L-9.5 -10.0 Q-9.5 -10.7 -9.1 -11.3 L-8.1 -12.2 -7.5 -12.5 -7.5 -32.6 -8.0 -33.25 -8.8 -34.7 -10.5 -34.95 Q-11.45 -35.1 -12.05 -35.8 -12.65 -36.55 -12.65 -37.5 -12.65 -38.45 -12.0 -39.1 L-9.6 -41.75 Q-10.65 -44.45 -10.5 -47.1 -10.45 -47.95 -9.9 -48.55 L-8.6 -49.4 -7.5 -49.65 -7.5 -58.0 Q-7.5 -59.05 -6.75 -59.75 -6.05 -60.5 -5.0 -60.5 L0.2 -60.5 0.65 -61.8 Q0.9 -62.55 1.55 -63.0 2.2 -63.5 3.0 -63.5" fill="#000000" fill-rule="evenodd" stroke="none"/>
    <path d="M3.0 -61.0 L4.0 -58.0 5.0 -58.0 5.0 0.0 1.15 -0.3 1.05 -0.4 1.0 0.0 0.9 1.25 -5.0 0.0 -5.0 -58.0 2.0 -58.0 3.0 -61.0" fill="url(#gradient0)" fill-rule="evenodd" stroke="none"/>
    <path d="M-4.2 -9.05 Q-4.2 -7.5 -4.95 -6.6 L-7.0 -6.0 -7.0 -10.0 -5.0 -11.0 Q-4.25 -10.55 -4.2 -9.05" fill="url(#gradient1)" fill-rule="evenodd" stroke="none"/>
    <path d="M-5.0 0.0 L0.9 1.25 Q0.0 11.3 -6.8 25.6 -14.4 41.7 -28.0 60.0 L-32.0 56.1 Q-24.2 46.9 -18.6 37.35 -18.55 36.7 -18.85 35.55 L-19.0 34.1 -17.0 32.1 -15.2 30.7 -14.15 29.05 Q-7.4 15.05 -5.0 0.1 L-5.0 0.0" fill="url(#gradient2)" fill-rule="evenodd" stroke="none"/>
    <path d="M2.05 1.4 Q1.7 0.3 1.15 -0.3 1.15 -1.9 2.1 -3.35 3.15 -5.0 4.75 -5.0 5.35 -4.6 5.9 -3.1 6.5 -1.5 6.55 0.1 L2.05 1.4" fill="url(#gradient3)" fill-rule="evenodd" stroke="none"/>
    <path d="M2.05 1.4 L6.55 0.1 6.75 2.4 Q6.7 3.9 8.2 9.55 10.0 16.5 12.85 23.7 19.7 40.95 29.05 51.75 L25.35 54.5 Q21.55 50.35 18.2 44.95 13.3 37.05 8.0 24.0 6.95 21.4 5.15 15.3 3.55 9.75 3.3 8.35 L2.05 1.5 2.05 1.4" fill="url(#gradient4)" fill-rule="evenodd" stroke="none"/>
    <path d="M29.05 51.75 L33.2 56.1 30.0 59.0 Q27.6 56.95 25.35 54.5 L29.05 51.75" fill="url(#gradient5)" fill-rule="evenodd" stroke="none"/>
    <path d="M18.2 44.95 L17.4 43.6 21.25 40.9 Q25.25 47.5 29.85 52.65 L26.25 55.5 Q21.95 51.0 18.2 44.95" fill="url(#gradient6)" fill-rule="evenodd" stroke="none"/>
    <path d="M-16.95 43.95 Q-20.75 50.0 -25.3 56.35 L-29.45 53.05 Q-24.75 47.15 -20.9 41.15 L-16.95 43.95" fill="url(#gradient7)" fill-rule="evenodd" stroke="none"/>
    <path d="M1.25 -0.15 L6.4 -1.45 6.75 2.65 2.5 3.6 Q1.9 0.95 1.25 -0.15" fill="url(#gradient8)" fill-rule="evenodd" stroke="none"/>
    <path d="M0.6 3.9 L-5.4 2.55 -5.0 0.0 -5.0 -1.5 1.0 0.0 0.9 1.25 0.6 3.9" fill="url(#gradient9)" fill-rule="evenodd" stroke="none"/>
    <path d="M-5.0 -19.0 L-5.0 -28.0 5.0 -28.0 5.0 -19.0 -5.0 -19.0" fill="url(#gradient10)" fill-rule="evenodd" stroke="none"/>
    <path d="M-5.0 -28.0 L-5.0 -30.0 5.0 -30.0 5.0 -28.0 -5.0 -28.0" fill="url(#gradient11)" fill-rule="evenodd" stroke="none"/>
    <path d="M5.0 -15.0 L5.0 -13.0 -5.0 -13.0 -5.0 -15.0 5.0 -15.0" fill="url(#gradient12)" fill-rule="evenodd" stroke="none"/>
    <path d="M5.0 -17.0 L5.0 -15.0 -5.0 -15.0 -5.0 -17.0 5.0 -17.0" fill="url(#gradient13)" fill-rule="evenodd" stroke="none"/>
    <path d="M5.0 -13.0 L5.0 -11.0 -5.0 -11.0 -5.0 -13.0 5.0 -13.0" fill="url(#gradient14)" fill-rule="evenodd" stroke="none"/>
    <path d="M5.0 -19.0 L5.0 -17.0 -5.0 -17.0 -5.0 -19.0 5.0 -19.0" fill="url(#gradient15)" fill-rule="evenodd" stroke="none"/>
    <path d="M0.0 -19.0 L-2.0 -28.0 -4.0 -19.0 -5.0 -28.0 -2.0 -28.0 2.0 -28.0 5.0 -28.0 4.0 -19.0 2.0 -28.0 0.0 -19.0" fill="url(#gradient16)" fill-rule="evenodd" stroke="none"/>
    <path d="M28.1 50.6 L28.25 50.8 24.6 53.7 24.45 53.5 28.1 50.6 M25.7 48.35 L26.1 48.1 26.25 48.3 25.8 48.55 23.25 52.1 23.1 51.9 25.25 48.9 22.2 50.8 22.05 50.6 25.65 48.35 25.7 48.35 M19.9 47.6 L19.8 47.4 23.45 44.35 23.55 44.55 19.9 47.6 M-26.45 49.15 Q-24.5 50.7 -22.15 51.9 L-22.3 52.1 Q-24.65 50.95 -26.6 49.35 L-26.45 49.15 M-22.7 43.85 L-19.55 48.05 -19.7 48.25 -22.85 44.1 -22.7 43.85 M-23.9 45.65 L-20.1 48.9 -20.25 49.1 -24.05 45.85 -23.9 45.65 M-23.85 54.3 Q-25.75 52.25 -27.1 50.0 L-26.9 49.75 Q-25.6 52.05 -23.7 54.1 L-23.85 54.3" fill="#24201c" fill-opacity="0.52156866" fill-rule="evenodd" stroke="none"/>
    <path d="M5.0 -42.0 L-5.0 -42.0 -5.0 -49.0 5.0 -49.0 5.0 -42.0" fill="url(#gradient17)" fill-rule="evenodd" stroke="none"/>
    <path d="M4.95 -45.65 L11.85 -42.35 9.0 -41.3 8.8 -37.6 2.0 -45.0 4.95 -45.65" fill="url(#gradient18)" fill-rule="evenodd" stroke="none"/>
    <path d="M-1.0 -44.0 L-5.8 -34.45 -7.2 -37.0 -10.15 -37.45 -4.0 -44.0 -1.0 -44.0" fill="url(#gradient19)" fill-rule="evenodd" stroke="none"/>
    <path d="M2.1 -44.25 Q0.85 -43.15 -0.9 -43.25 -2.95 -40.4 -5.9 -39.25 -8.05 -42.8 -7.9 -46.25 -4.9 -47.0 -1.9 -46.25 -0.7 -47.4 1.1 -47.25 3.15 -50.1 6.1 -51.25 8.25 -47.65 8.1 -44.25 5.1 -43.5 2.1 -44.25" fill="#000000" fill-opacity="0.3019608" fill-rule="evenodd" stroke="none"/>
    <path d="M6.0 -52.0 Q8.15 -48.4 8.0 -45.0 5.0 -44.25 2.0 -45.0 L1.0 -48.0 Q3.05 -50.85 6.0 -52.0" fill="url(#gradient20)" fill-rule="evenodd" stroke="none"/>
    <path d="M-2.0 -47.0 L-1.0 -44.0 Q-3.05 -41.15 -6.0 -40.0 -8.15 -43.55 -8.0 -47.0 -5.0 -47.75 -2.0 -47.0" fill="url(#gradient21)" fill-rule="evenodd" stroke="none"/>
    <path d="M2.0 -45.0 Q0.75 -43.9 -1.0 -44.0 -2.0 -45.4 -2.0 -47.0 -0.8 -48.15 1.0 -48.0 1.95 -46.8 2.0 -45.0" fill="url(#gradient22)" fill-rule="evenodd" stroke="none"/>
  </g>
  <defs>
    <linearGradient gradientTransform="matrix(0.0062, 0.0, 0.0, 0.0381, 0.0, -29.9)" gradientUnits="userSpaceOnUse" id="gradient0" spreadMethod="pad" x1="-819.2" x2="819.2">
      <stop offset="0.0" stop-color="#615849"/>
      <stop offset="0.11764705882352941" stop-color="#46301c"/>
      <stop offset="0.44313725490196076" stop-color="#987b5f"/>
      <stop offset="0.5686274509803921" stop-color="#987b5f"/>
      <stop offset="0.8823529411764706" stop-color="#46301c"/>
      <stop offset="1.0" stop-color="#615849"/>
    </linearGradient>
    <radialGradient cx="0" cy="0" fx="348.8" fy="0" gradientTransform="matrix(0.004, -0.0022, 0.0013, 0.0025, -6.75, -8.25)" gradientUnits="userSpaceOnUse" id="gradient1" r="819.2" spreadMethod="pad">
      <stop offset="0.2" stop-color="#987b5f"/>
      <stop offset="0.9803921568627451" stop-color="#46301c"/>
    </radialGradient>
    <radialGradient cx="0" cy="0" gradientTransform="matrix(0.022, 0.011, -0.0305, 0.0608, -28.25, 21.9)" gradientUnits="userSpaceOnUse" id="gradient2" r="819.2" spreadMethod="pad">
      <stop offset="0.7294117647058823" stop-color="#46301c"/>
      <stop offset="0.8745098039215686" stop-color="#987b5f"/>
      <stop offset="0.9215686274509803" stop-color="#907458"/>
      <stop offset="1.0" stop-color="#513320"/>
    </radialGradient>
    <radialGradient cx="0" cy="0" fx="3.2" fy="0" gradientTransform="matrix(0.0038, -9.0E-4, 0.0017, 0.0072, 3.4, -2.65)" gradientUnits="userSpaceOnUse" id="gradient3" r="819.2" spreadMethod="pad">
      <stop offset="0.10588235294117647" stop-color="#987b5f"/>
      <stop offset="0.8666666666666667" stop-color="#46301c"/>
    </radialGradient>
    <radialGradient cx="0" cy="0" fx="3.2" fy="0" gradientTransform="matrix(-0.0347, -0.0648, 0.0115, -0.0062, 30.0, 44.0)" gradientUnits="userSpaceOnUse" id="gradient4" r="819.2" spreadMethod="pad">
      <stop offset="0.6901960784313725" stop-color="#46301c"/>
      <stop offset="0.8313725490196079" stop-color="#987b5f"/>
      <stop offset="0.9803921568627451" stop-color="#46301c"/>
    </radialGradient>
    <radialGradient cx="0" cy="0" fx="3.2" fy="0" gradientTransform="matrix(-0.0184, 0.0164, -0.061, -0.0681, 39.15, 40.75)" gradientUnits="userSpaceOnUse" id="gradient5" r="819.2" spreadMethod="pad">
      <stop offset="0.6470588235294118" stop-color="#46301c"/>
      <stop offset="0.8313725490196079" stop-color="#987b5f"/>
      <stop offset="0.984313725490196" stop-color="#46301c"/>
    </radialGradient>
    <linearGradient gradientTransform="matrix(0.0032, -0.0024, 0.0054, 0.0071, 23.6, 48.2)" gradientUnits="userSpaceOnUse" id="gradient6" spreadMethod="pad" x1="-819.2" x2="819.2">
      <stop offset="0.0" stop-color="#79624d"/>
      <stop offset="0.403921568627451" stop-color="#d8c1ad"/>
      <stop offset="0.6" stop-color="#d8c1ad"/>
      <stop offset="1.0" stop-color="#7c6550"/>
    </linearGradient>
    <linearGradient gradientTransform="matrix(0.0031, 0.0021, -0.0054, 0.0079, -23.55, 48.5)" gradientUnits="userSpaceOnUse" id="gradient7" spreadMethod="pad" x1="-819.2" x2="819.2">
      <stop offset="0.0" stop-color="#79624d"/>
      <stop offset="0.3803921568627451" stop-color="#d8c1ad"/>
      <stop offset="0.6235294117647059" stop-color="#d8c1ad"/>
      <stop offset="1.0" stop-color="#7c6550"/>
    </linearGradient>
    <linearGradient gradientTransform="matrix(0.0033, -7.0E-4, 7.0E-4, 0.003, 3.9, 1.05)" gradientUnits="userSpaceOnUse" id="gradient8" spreadMethod="pad" x1="-819.2" x2="819.2">
      <stop offset="0.0" stop-color="#640d0d"/>
      <stop offset="0.3607843137254902" stop-color="#961414"/>
      <stop offset="0.47058823529411764" stop-color="#9b1515"/>
      <stop offset="0.5529411764705883" stop-color="#a91616"/>
      <stop offset="0.6470588235294118" stop-color="#961414"/>
      <stop offset="1.0" stop-color="#3e0931"/>
    </linearGradient>
    <linearGradient gradientTransform="matrix(0.0043, 5.0E-4, -4.0E-4, 0.0034, -2.4, 0.95)" gradientUnits="userSpaceOnUse" id="gradient9" spreadMethod="pad" x1="-819.2" x2="819.2">
      <stop offset="0.0" stop-color="#650c0c"/>
      <stop offset="0.3411764705882353" stop-color="#961414"/>
      <stop offset="0.47058823529411764" stop-color="#bf1515"/>
      <stop offset="0.6274509803921569" stop-color="#ba1b1b"/>
      <stop offset="0.7333333333333333" stop-color="#961414"/>
      <stop offset="1.0" stop-color="#380707"/>
    </linearGradient>
    <linearGradient gradientTransform="matrix(0.0067, 0.0, 0.0, 0.0012, -0.5, -23.0)" gradientUnits="userSpaceOnUse" id="gradient10" spreadMethod="pad" x1="-819.2" x2="819.2">
      <stop offset="0.0" stop-color="#77746a"/>
      <stop offset="0.39215686274509803" stop-color="#c5c1a5"/>
      <stop offset="0.6470588235294118" stop-color="#c5c1a5"/>
      <stop offset="1.0" stop-color="#696456"/>
    </linearGradient>
    <linearGradient gradientTransform="matrix(0.0062, 0.0, 0.0, 0.0012, 0.0, -29.05)" gradientUnits="userSpaceOnUse" id="gradient11" spreadMethod="pad" x1="-819.2" x2="819.2">
      <stop offset="0.0" stop-color="#000000"/>
      <stop offset="0.4470588235294118" stop-color="#484444"/>
      <stop offset="0.592156862745098" stop-color="#514a4a"/>
      <stop offset="1.0" stop-color="#000000"/>
    </linearGradient>
    <linearGradient gradientTransform="matrix(0.0061, 0.0, 0.0, 0.0012, 0.0, -14.0)" gradientUnits="userSpaceOnUse" id="gradient12" spreadMethod="pad" x1="-819.2" x2="819.2">
      <stop offset="0.0" stop-color="#77746a"/>
      <stop offset="0.39215686274509803" stop-color="#c5c1a5"/>
      <stop offset="0.6470588235294118" stop-color="#c5c1a5"/>
      <stop offset="1.0" stop-color="#696456"/>
    </linearGradient>
    <linearGradient gradientTransform="matrix(0.0062, 0.0, 0.0, 0.0012, 0.0, -16.1)" gradientUnits="userSpaceOnUse" id="gradient13" spreadMethod="pad" x1="-819.2" x2="819.2">
      <stop offset="0.0" stop-color="#000000"/>
      <stop offset="0.4470588235294118" stop-color="#484444"/>
      <stop offset="0.592156862745098" stop-color="#514a4a"/>
      <stop offset="1.0" stop-color="#000000"/>
    </linearGradient>
    <linearGradient gradientTransform="matrix(0.0062, 0.0, 0.0, 0.0012, 0.0, -12.1)" gradientUnits="userSpaceOnUse" id="gradient14" spreadMethod="pad" x1="-819.2" x2="819.2">
      <stop offset="0.0" stop-color="#000000"/>
      <stop offset="0.4470588235294118" stop-color="#484444"/>
      <stop offset="0.592156862745098" stop-color="#514a4a"/>
      <stop offset="1.0" stop-color="#000000"/>
    </linearGradient>
    <linearGradient gradientTransform="matrix(0.0061, 0.0, 0.0, 0.0012, 0.0, -17.9)" gradientUnits="userSpaceOnUse" id="gradient15" spreadMethod="pad" x1="-819.2" x2="819.2">
      <stop offset="0.0" stop-color="#4d0f0f"/>
      <stop offset="0.403921568627451" stop-color="#b61f1f"/>
      <stop offset="0.5686274509803921" stop-color="#b81d1d"/>
      <stop offset="1.0" stop-color="#3a0c0c"/>
    </linearGradient>
    <linearGradient gradientTransform="matrix(0.0062, 0.0, 0.0, 0.0055, 0.1, -23.5)" gradientUnits="userSpaceOnUse" id="gradient16" spreadMethod="pad" x1="-819.2" x2="819.2">
      <stop offset="0.0" stop-color="#4d0f0f"/>
      <stop offset="0.403921568627451" stop-color="#b61f1f"/>
      <stop offset="0.5686274509803921" stop-color="#b81d1d"/>
      <stop offset="1.0" stop-color="#3a0c0c"/>
    </linearGradient>
    <linearGradient gradientTransform="matrix(0.0061, 0.0, 0.0, 0.0012, 0.0, -15.9)" gradientUnits="userSpaceOnUse" id="gradient17" spreadMethod="pad" x1="-819.2" x2="819.2">
      <stop offset="0.0" stop-color="#4d0f0f"/>
      <stop offset="0.403921568627451" stop-color="#b61f1f"/>
      <stop offset="0.5686274509803921" stop-color="#b81d1d"/>
      <stop offset="1.0" stop-color="#3a0c0c"/>
    </linearGradient>
    <linearGradient gradientTransform="matrix(0.006, -0.0013, 0.0014, 0.0066, 8.1, -40.7)" gradientUnits="userSpaceOnUse" id="gradient18" spreadMethod="pad" x1="-819.2" x2="819.2">
      <stop offset="0.0" stop-color="#940101"/>
      <stop offset="0.42745098039215684" stop-color="#d80303"/>
      <stop offset="0.6196078431372549" stop-color="#dd0404"/>
      <stop offset="0.796078431372549" stop-color="#c20303"/>
      <stop offset="1.0" stop-color="#ad0303"/>
    </linearGradient>
    <linearGradient gradientTransform="matrix(0.0067, -9.0E-4, 9.0E-4, 0.0073, -6.5, -38.0)" gradientUnits="userSpaceOnUse" id="gradient19" spreadMethod="pad" x1="-819.2" x2="819.2">
      <stop offset="0.0" stop-color="#be0101"/>
      <stop offset="0.29411764705882354" stop-color="#f40202"/>
      <stop offset="0.42745098039215684" stop-color="#d80303"/>
      <stop offset="0.6196078431372549" stop-color="#d70404"/>
      <stop offset="1.0" stop-color="#920303"/>
    </linearGradient>
    <linearGradient gradientTransform="matrix(0.0041, -0.0012, 0.0013, 0.0043, 4.45, -48.35)" gradientUnits="userSpaceOnUse" id="gradient20" spreadMethod="pad" x1="-819.2" x2="819.2">
      <stop offset="0.0" stop-color="#9e0303"/>
      <stop offset="0.6078431372549019" stop-color="#d80303"/>
      <stop offset="0.7490196078431373" stop-color="#de0303"/>
      <stop offset="1.0" stop-color="#a50505"/>
    </linearGradient>
    <linearGradient gradientTransform="matrix(0.0041, -0.0012, 0.0013, 0.0043, -4.5, -43.7)" gradientUnits="userSpaceOnUse" id="gradient21" spreadMethod="pad" x1="-819.2" x2="819.2">
      <stop offset="0.0" stop-color="#ad0303"/>
      <stop offset="0.2980392156862745" stop-color="#f30303"/>
      <stop offset="1.0" stop-color="#880404"/>
    </linearGradient>
    <linearGradient gradientTransform="matrix(9.0E-4, 0.0026, -0.0023, 8.0E-4, 0.0, -46.0)" gradientUnits="userSpaceOnUse" id="gradient22" spreadMethod="pad" x1="-819.2" x2="819.2">
      <stop offset="0.0" stop-color="#9e0303"/>
      <stop offset="0.24313725490196078" stop-color="#de0303"/>
      <stop offset="0.6509803921568628" stop-color="#de0303"/>
      <stop offset="1.0" stop-color="#8f0505"/>
    </linearGradient>
  </defs>
</svg>
