<?xml version="1.0" encoding="UTF-8" standalone="no"?>
<svg xmlns:xlink="http://www.w3.org/1999/xlink" height="114.0px" width="100.95px" xmlns="http://www.w3.org/2000/svg">
  <g transform="matrix(1.0, 0.0, 0.0, 1.0, 50.45, 57.0)">
    <path d="M0.05 -47.4 Q5.5 -47.4 9.3 -46.3 13.75 -44.95 17.1 -41.75 21.9 -37.15 22.3 -28.9 22.9 -17.2 14.55 -10.15 L7.7 -4.05 Q5.5 -1.7 5.5 0.0 5.5 1.7 7.7 4.05 L14.55 10.15 Q22.9 17.2 22.3 28.9 21.9 37.15 17.1 41.75 13.75 44.95 9.3 46.3 5.5 47.4 0.05 47.4 -5.4 47.4 -9.2 46.3 -13.65 44.95 -17.0 41.75 -21.8 37.15 -22.2 28.9 -22.8 17.2 -14.45 10.15 L-7.6 4.05 Q-5.4 1.7 -5.4 0.0 -5.4 -1.7 -7.6 -4.05 L-14.45 -10.15 Q-22.8 -17.2 -22.2 -28.9 -21.8 -37.15 -17.0 -41.75 -13.65 -44.95 -9.2 -46.3 -5.4 -47.4 0.05 -47.4" fill="#d5e8f0" fill-rule="evenodd" stroke="none"/>
    <path d="M0.05 -47.4 Q-5.4 -47.4 -9.2 -46.3 -13.65 -44.95 -17.0 -41.75 -21.8 -37.15 -22.2 -28.9 -22.8 -17.2 -14.45 -10.15 L-7.6 -4.05 Q-5.4 -1.7 -5.4 0.0 -5.4 1.7 -7.6 4.05 L-14.45 10.15 Q-22.8 17.2 -22.2 28.9 -21.8 37.15 -17.0 41.75 -13.65 44.95 -9.2 46.3 -5.4 47.4 0.05 47.4 5.5 47.4 9.3 46.3 13.75 44.95 17.1 41.75 21.9 37.15 22.3 28.9 22.9 17.2 14.55 10.15 L7.7 4.05 Q5.5 1.7 5.5 0.0 5.5 -1.7 7.7 -4.05 L14.55 -10.15 Q22.9 -17.2 22.3 -28.9 21.9 -37.15 17.1 -41.75 13.75 -44.95 9.3 -46.3 5.5 -47.4 0.05 -47.4 Z" fill="none" stroke="#000000" stroke-linecap="round" stroke-linejoin="round" stroke-width="2.0"/>
    <path d="M18.4 -32.0 L18.8 -28.7 Q19.3 -18.8 12.3 -12.8 L12.15 -12.65 12.2 -12.75 Q6.7 -8.1 5.15 -6.45 1.75 -2.85 2.0 -0.05 L2.0 0.05 Q1.75 2.85 5.15 6.45 6.7 8.1 12.2 12.75 L12.1 12.65 12.3 12.8 Q19.3 18.8 18.8 28.75 18.5 35.45 14.7 39.25 11.95 41.85 8.3 42.95 L8.1 43.0 Q4.75 43.9 0.05 43.9 -4.75 43.9 -8.1 42.95 L-8.15 42.95 Q-11.85 41.85 -14.55 39.25 -18.4 35.45 -18.7 28.75 -19.2 18.8 -12.15 12.8 L-12.1 12.75 Q-6.6 8.1 -5.05 6.45 -1.65 2.85 -1.9 0.05 L-1.9 -0.05 Q-1.65 -2.85 -5.05 -6.45 -6.6 -8.1 -12.1 -12.75 L-12.0 -12.65 -12.15 -12.8 Q-19.2 -18.8 -18.7 -28.7 L-18.3 -32.0 Q-9.65 -34.2 -0.2 -34.25 9.55 -34.3 18.4 -32.0" fill="#b5d0cb" fill-rule="evenodd" stroke="none"/>
    <path d="M-18.3 -32.0 Q-17.4 -36.4 -14.55 -39.2 -11.85 -41.85 -8.15 -42.95 L-8.2 -42.9 -8.1 -42.95 Q-4.75 -43.9 0.05 -43.9 4.75 -43.9 8.1 -43.0 L8.3 -42.9 8.3 -42.95 Q11.95 -41.85 14.7 -39.2 17.5 -36.4 18.4 -32.0 9.55 -34.3 -0.2 -34.25 -9.65 -34.2 -18.3 -32.0" fill="#779d93" fill-rule="evenodd" stroke="none"/>
    <path d="M0.05 -26.0 L18.8 -26.0 Q18.35 -18.6 13.7 -14.05 L9.45 -10.45 Q6.65 -8.25 5.15 -6.45 3.4 -4.4 2.85 -3.35 2.1 -1.95 2.0 0.05 L2.05 13.2 2.45 28.0 7.85 28.3 18.8 28.75 Q18.5 35.45 14.65 39.25 11.95 41.85 8.25 42.95 L8.2 42.95 Q4.85 43.9 0.05 43.9 -4.75 43.9 -8.1 42.95 L-8.15 42.95 Q-11.85 41.85 -14.55 39.25 -18.4 35.45 -18.7 28.75 L-7.75 28.3 -2.35 28.0 -1.95 13.2 -1.9 0.05 Q-2.0 -1.95 -2.75 -3.35 L-5.05 -6.45 Q-6.55 -8.25 -9.35 -10.45 L-13.6 -14.05 Q-18.25 -18.6 -18.7 -26.0 L0.05 -26.0" fill="url(#gradient0)" fill-rule="evenodd" stroke="none"/>
    <path d="M1.6 -31.3 Q2.8 -35.0 4.5 -35.0 6.15 -35.0 7.3 -31.3 8.5 -27.65 8.5 -22.5 8.5 -17.3 7.3 -13.65 6.15 -10.0 4.5 -10.0 2.8 -10.0 1.6 -13.65 0.45 -17.3 0.45 -22.5 0.45 -27.65 1.6 -31.3" fill="url(#gradient1)" fill-rule="evenodd" stroke="none"/>
    <path d="M8.5 24.75 Q8.5 29.95 7.3 33.6 6.15 37.25 4.5 37.25 2.8 37.25 1.6 33.6 0.45 29.95 0.45 24.75 0.45 19.6 1.6 15.95 2.8 12.25 4.5 12.25 6.15 12.25 7.3 15.95 8.5 19.6 8.5 24.75" fill="url(#gradient2)" fill-rule="evenodd" stroke="none"/>
    <path d="M-45.95 -48.0 L-47.95 -48.0 Q-50.9 -52.0 -47.95 -56.0 L48.05 -56.0 Q51.0 -52.0 48.05 -48.0 L46.05 -48.0 -45.95 -48.0" fill="url(#gradient3)" fill-rule="evenodd" stroke="none"/>
    <path d="M46.05 48.0 L48.05 48.0 Q51.0 52.0 48.05 56.0 L-47.95 56.0 Q-50.9 52.0 -47.95 48.0 L-45.95 48.0 46.05 48.0" fill="url(#gradient4)" fill-rule="evenodd" stroke="none"/>
    <path d="M46.05 -48.0 L45.05 -44.0 35.75 -44.0 Q37.05 -42.4 37.55 -38.75 L27.85 -33.9 Q27.95 -41.45 30.0 -44.0 L-29.85 -44.0 Q-27.8 -41.45 -27.75 -33.9 L-37.4 -38.7 Q-36.9 -42.4 -35.6 -44.0 L-44.95 -44.0 -45.95 -48.0 46.05 -48.0" fill="#66531a" fill-rule="evenodd" stroke="none"/>
    <path d="M36.15 8.0 Q37.8 25.9 37.85 32.6 37.95 41.25 35.75 44.0 L45.05 44.0 46.05 48.0 -45.95 48.0 -44.95 44.0 -35.6 44.0 Q-37.8 41.25 -37.75 32.6 -37.65 25.9 -35.95 8.0 L-29.45 8.0 Q-27.8 25.9 -27.75 32.6 -27.65 41.25 -29.85 44.0 L30.0 44.0 Q27.8 41.25 27.85 32.6 27.95 25.9 29.65 8.0 L36.15 8.0" fill="#6c5613" fill-rule="evenodd" stroke="none"/>
    <path d="M39.85 0.0 Q39.85 0.95 38.75 2.5 L35.9 5.25 36.15 8.0 29.65 8.0 29.9 5.3 Q28.35 4.3 27.05 2.6 25.85 0.95 25.85 0.0 L39.85 0.0 M-35.95 8.0 L-35.7 5.3 Q-37.25 4.3 -38.55 2.6 -39.75 0.95 -39.75 0.0 L-25.75 0.0 Q-25.75 0.95 -26.85 2.5 -28.05 4.1 -29.7 5.25 L-29.45 8.0 -35.95 8.0" fill="#553f15" fill-rule="evenodd" stroke="none"/>
    <path d="M37.55 -38.75 Q37.9 -36.2 37.85 -32.6 37.8 -25.35 35.9 -5.25 37.65 -4.0 38.8 -2.4 39.85 -0.95 39.85 0.0 L25.85 0.0 Q25.85 -0.95 27.0 -2.45 28.2 -4.1 29.9 -5.25 27.95 -25.4 27.85 -32.6 L27.85 -33.9 37.55 -38.75" fill="url(#gradient5)" fill-rule="evenodd" stroke="none"/>
    <path d="M-39.75 0.0 Q-39.75 -0.95 -38.6 -2.45 -37.4 -4.1 -35.7 -5.25 -37.65 -25.4 -37.75 -32.6 -37.75 -36.15 -37.4 -38.7 L-27.75 -33.9 -27.75 -32.6 Q-27.8 -25.35 -29.7 -5.25 -27.95 -4.0 -26.8 -2.4 -25.75 -0.95 -25.75 0.0 L-39.75 0.0" fill="url(#gradient6)" fill-rule="evenodd" stroke="none"/>
    <path d="M46.05 -48.0 L45.05 -44.0 35.75 -44.0 Q37.05 -42.4 37.55 -38.75 37.9 -36.2 37.85 -32.6 37.8 -25.35 35.9 -5.25 37.65 -4.0 38.8 -2.4 39.85 -0.95 39.85 0.0 39.85 0.95 38.75 2.5 L35.9 5.25 36.15 8.0 Q37.8 25.9 37.85 32.6 37.95 41.25 35.75 44.0 L45.05 44.0 46.05 48.0 48.05 48.0 Q51.0 52.0 48.05 56.0 L-47.95 56.0 Q-50.9 52.0 -47.95 48.0 L-45.95 48.0 -44.95 44.0 -35.6 44.0 Q-37.8 41.25 -37.75 32.6 -37.65 25.9 -35.95 8.0 L-35.7 5.3 Q-37.25 4.3 -38.55 2.6 -39.75 0.95 -39.75 0.0 -39.75 -0.95 -38.6 -2.45 -37.4 -4.1 -35.7 -5.25 -37.65 -25.4 -37.75 -32.6 -37.75 -36.15 -37.4 -38.7 -36.9 -42.4 -35.6 -44.0 L-44.95 -44.0 -45.95 -48.0 -47.95 -48.0 Q-50.9 -52.0 -47.95 -56.0 L48.05 -56.0 Q51.0 -52.0 48.05 -48.0 L46.05 -48.0 M-27.75 -33.9 Q-27.8 -41.45 -29.85 -44.0 L30.0 -44.0 Q27.95 -41.45 27.85 -33.9 M25.85 0.0 Q25.85 -0.95 27.0 -2.45 28.2 -4.1 29.9 -5.25 27.95 -25.4 27.85 -32.6 L27.85 -33.9 M29.65 8.0 Q27.95 25.9 27.85 32.6 27.8 41.25 30.0 44.0 L-29.85 44.0 Q-27.65 41.25 -27.75 32.6 -27.8 25.9 -29.45 8.0 M29.65 8.0 L29.9 5.3 Q28.35 4.3 27.05 2.6 25.85 0.95 25.85 0.0 M-27.75 -33.9 L-27.75 -32.6 Q-27.8 -25.35 -29.7 -5.25 -27.95 -4.0 -26.8 -2.4 -25.75 -0.95 -25.75 0.0 -25.75 0.95 -26.85 2.5 -28.05 4.1 -29.7 5.25 L-29.45 8.0" fill="none" stroke="#000000" stroke-linecap="round" stroke-linejoin="round" stroke-width="2.0"/>
  </g>
  <defs>
    <linearGradient gradientTransform="matrix(0.0, -0.0402, 0.0427, 0.0, 0.05, 8.95)" gradientUnits="userSpaceOnUse" id="gradient0" spreadMethod="pad" x1="-819.2" x2="819.2">
      <stop offset="0.0" stop-color="#138e1c"/>
      <stop offset="0.09019607843137255" stop-color="#138e1c"/>
      <stop offset="0.1568627450980392" stop-color="#2dd255"/>
      <stop offset="0.5607843137254902" stop-color="#2dd255"/>
      <stop offset="0.6549019607843137" stop-color="#138e1c"/>
      <stop offset="0.7607843137254902" stop-color="#138e1c"/>
      <stop offset="0.9137254901960784" stop-color="#2dd255"/>
    </linearGradient>
    <radialGradient cx="0" cy="0" gradientTransform="matrix(0.0061, 0.0, 0.0, 0.0137, 4.5, -27.25)" gradientUnits="userSpaceOnUse" id="gradient1" r="819.2" spreadMethod="pad">
      <stop offset="0.0" stop-color="#ffffff"/>
      <stop offset="0.5098039215686274" stop-color="#ffffff" stop-opacity="0.91764706"/>
      <stop offset="1.0" stop-color="#ffffff" stop-opacity="0.0"/>
    </radialGradient>
    <radialGradient cx="0" cy="0" gradientTransform="matrix(0.0061, 0.0, 0.0, 0.0137, 4.5, 20.0)" gradientUnits="userSpaceOnUse" id="gradient2" r="819.2" spreadMethod="pad">
      <stop offset="0.0" stop-color="#ffffff"/>
      <stop offset="0.5098039215686274" stop-color="#ffffff" stop-opacity="0.91764706"/>
      <stop offset="1.0" stop-color="#ffffff" stop-opacity="0.0"/>
    </radialGradient>
    <linearGradient gradientTransform="matrix(0.0604, 0.0, 0.0, 0.0049, 0.0, -52.0)" gradientUnits="userSpaceOnUse" id="gradient3" spreadMethod="pad" x1="-819.2" x2="819.2">
      <stop offset="0.0" stop-color="#7d6317"/>
      <stop offset="0.5215686274509804" stop-color="#a78443"/>
      <stop offset="1.0" stop-color="#805a15"/>
    </linearGradient>
    <linearGradient gradientTransform="matrix(0.0604, 0.0, 0.0, 0.0049, 0.0, 52.0)" gradientUnits="userSpaceOnUse" id="gradient4" spreadMethod="pad" x1="-819.2" x2="819.2">
      <stop offset="0.0" stop-color="#7d6317"/>
      <stop offset="0.5215686274509804" stop-color="#a78443"/>
      <stop offset="1.0" stop-color="#805a15"/>
    </linearGradient>
    <linearGradient gradientTransform="matrix(-0.0071, -0.0239, 0.0226, -0.0067, 32.8, -19.5)" gradientUnits="userSpaceOnUse" id="gradient5" spreadMethod="pad" x1="-819.2" x2="819.2">
      <stop offset="0.0" stop-color="#7d6317"/>
      <stop offset="1.0" stop-color="#9d8437"/>
    </linearGradient>
    <linearGradient gradientTransform="matrix(0.0084, -0.0238, 0.0223, 0.0078, -32.75, -19.4)" gradientUnits="userSpaceOnUse" id="gradient6" spreadMethod="pad" x1="-819.2" x2="819.2">
      <stop offset="0.0" stop-color="#7d6317"/>
      <stop offset="1.0" stop-color="#9d8437"/>
    </linearGradient>
  </defs>
</svg>
