<?xml version="1.0" encoding="UTF-8" standalone="no"?>
<svg xmlns:xlink="http://www.w3.org/1999/xlink" height="61.0px" width="61.0px" xmlns="http://www.w3.org/2000/svg">
  <g transform="matrix(1.0, 0.0, 0.0, 1.0, 30.5, 30.5)">
    <path d="M21.6 -21.55 Q30.5 -12.65 30.5 0.0 30.5 12.65 21.6 21.6 12.65 30.5 0.0 30.5 -12.65 30.5 -21.55 21.6 -30.5 12.65 -30.5 0.0 -30.5 -12.65 -21.55 -21.55 -12.65 -30.5 0.0 -30.5 12.65 -30.5 21.6 -21.55" fill="#000000" fill-rule="evenodd" stroke="none"/>
    <path d="M19.8 -19.8 Q28.0 -11.6 28.0 0.0 28.0 11.6 19.8 19.8 11.6 28.0 0.0 28.0 -11.6 28.0 -19.8 19.8 -28.0 11.6 -28.0 0.0 -28.0 -11.6 -19.8 -19.8 -11.6 -28.0 0.0 -28.0 11.6 -28.0 19.8 -19.8" fill="url(#gradient0)" fill-rule="evenodd" stroke="none"/>
  </g>
  <defs>
    <radialGradient cx="0" cy="0" gradientTransform="matrix(0.0417, 0.014, -0.0133, 0.0395, 4.0, -6.0)" gradientUnits="userSpaceOnUse" id="gradient0" r="819.2" spreadMethod="pad">
      <stop offset="0.13725490196078433" stop-color="#f52525"/>
      <stop offset="0.42745098039215684" stop-color="#d11010"/>
      <stop offset="0.7137254901960784" stop-color="#a01616"/>
      <stop offset="0.8509803921568627" stop-color="#861515"/>
      <stop offset="1.0" stop-color="#9c1b1b"/>
    </radialGradient>
  </defs>
</svg>
