<?xml version="1.0" encoding="UTF-8" standalone="no"?>
<svg xmlns:xlink="http://www.w3.org/1999/xlink" height="37.35px" width="23.0px" xmlns="http://www.w3.org/2000/svg">
  <g transform="matrix(1.0, 0.0, 0.0, 1.0, 11.5, 18.7)">
    <path d="M11.25 0.0 L4.1 4.05 Q2.85 7.6 0.0 18.4 -2.85 7.6 -4.1 4.05 L-11.25 0.0 -4.1 -4.1 Q-2.85 -7.65 0.0 -18.45 2.85 -7.65 4.1 -4.1 L11.25 0.0" fill="#ffffff" fill-rule="evenodd" stroke="none"/>
    <path d="M11.25 0.0 L4.1 4.05 Q2.85 7.6 0.0 18.4 -2.85 7.6 -4.1 4.05 L-11.25 0.0 -4.1 -4.1 Q-2.85 -7.65 0.0 -18.45 2.85 -7.65 4.1 -4.1 L11.25 0.0 Z" fill="none" stroke="#e2fefb" stroke-linecap="round" stroke-linejoin="round" stroke-width="0.5"/>
  </g>
</svg>
