<?xml version="1.0" encoding="UTF-8" standalone="no"?>
<svg xmlns:xlink="http://www.w3.org/1999/xlink" height="232.05px" width="96.5px" xmlns="http://www.w3.org/2000/svg">
  <g transform="matrix(1.0, 0.0, 0.0, 1.0, 48.25, 116.0)">
    <path d="M16.25 -0.8 L36.75 -0.4 43.4 -0.25 48.0 0.0 43.4 0.3 36.75 0.45 16.25 0.85 12.7 0.6 10.2 0.05 12.7 -0.55 16.25 -0.8 M1.5 -1.95 L4.75 -0.95 8.0 0.0 4.75 1.0 1.5 2.0 1.2 7.5 0.95 15.05 0.75 94.45 Q0.65 108.4 0.0 115.8 -0.65 108.4 -0.75 94.45 L-0.95 15.05 -1.2 7.5 -1.5 2.0 -4.75 1.0 -8.0 0.0 -4.75 -0.95 -1.5 -1.95 -1.2 -7.45 -0.95 -15.0 -0.75 -94.4 Q-0.65 -108.35 0.0 -115.75 0.65 -108.35 0.75 -94.4 L0.95 -15.0 1.2 -7.45 1.5 -1.95 M-12.7 -0.55 L-10.2 0.05 -12.7 0.6 -16.25 0.85 -36.75 0.45 -43.4 0.3 -48.0 0.0 -43.4 -0.25 -36.75 -0.4 -16.25 -0.8 -12.7 -0.55" fill="#affae7" fill-rule="evenodd" stroke="none"/>
    <path d="M16.25 -0.8 L36.75 -0.4 43.4 -0.25 48.0 0.0 43.4 0.3 36.75 0.45 16.25 0.85 12.7 0.6 10.2 0.05 12.7 -0.55 16.25 -0.8 M1.5 -1.95 L1.2 -7.45 0.95 -15.0 0.75 -94.4 Q0.65 -108.35 0.0 -115.75 -0.65 -108.35 -0.75 -94.4 L-0.95 -15.0 -1.2 -7.45 -1.5 -1.95 -4.75 -0.95 -8.0 0.0 -4.75 1.0 -1.5 2.0 -1.2 7.5 -0.95 15.05 -0.75 94.45 Q-0.65 108.4 0.0 115.8 0.65 108.4 0.75 94.45 L0.95 15.05 1.2 7.5 1.5 2.0 4.75 1.0 8.0 0.0 4.75 -0.95 1.5 -1.95 M-12.7 -0.55 L-10.2 0.05 -12.7 0.6 -16.25 0.85 -36.75 0.45 -43.4 0.3 -48.0 0.0 -43.4 -0.25 -36.75 -0.4 -16.25 -0.8 -12.7 -0.55" fill="none" stroke="#aefbe7" stroke-linecap="round" stroke-linejoin="round" stroke-width="0.5"/>
  </g>
</svg>
