<?xml version="1.0" encoding="UTF-8" standalone="no"?>
<svg xmlns:xlink="http://www.w3.org/1999/xlink" height="169.0px" width="29.0px" xmlns="http://www.w3.org/2000/svg">
  <g transform="matrix(1.0, 0.0, 0.0, 1.0, 14.5, 86.5)">
    <path d="M0.0 -86.5 L0.8 -86.35 2.05 -85.45 Q7.25 -78.3 9.0 -67.85 L9.5 -64.35 Q10.35 -58.65 9.05 -45.75 7.55 -29.9 7.5 -25.35 7.4 -9.05 8.0 1.65 8.6 13.05 9.75 19.1 11.6 29.15 14.2 33.8 14.55 34.45 14.5 35.25 14.4 36.05 13.9 36.65 L10.7 39.9 10.85 42.85 Q10.75 45.45 10.1 46.7 9.3 48.0 7.65 48.0 L7.7 49.0 Q7.85 52.45 4.85 52.5 L4.55 53.05 5.1 53.65 Q5.5 54.25 5.5 55.0 L5.5 56.0 5.25 57.1 4.5 58.0 4.5 72.0 5.25 72.9 5.5 74.0 5.5 75.0 6.2 75.75 6.5 77.0 6.5 80.0 Q6.5 81.0 5.8 81.8 5.0 82.5 4.0 82.5 L0.0 82.5 -4.0 82.5 Q-5.0 82.5 -5.8 81.8 -6.5 81.0 -6.5 80.0 L-6.5 77.0 -6.2 75.75 -5.5 75.0 -5.5 74.0 -5.25 72.9 -4.5 72.0 -4.5 58.0 -5.25 57.1 -5.5 56.0 -5.5 55.0 Q-5.5 54.25 -5.1 53.65 L-4.55 53.05 -4.85 52.5 Q-7.85 52.45 -7.7 49.0 L-7.65 48.0 Q-9.3 48.0 -10.1 46.7 -10.75 45.45 -10.85 42.85 L-10.7 39.9 -13.9 36.65 Q-14.4 36.05 -14.5 35.25 -14.55 34.45 -14.2 33.8 -11.6 29.15 -9.75 19.1 -8.6 13.05 -8.0 1.65 -7.4 -9.05 -7.5 -25.35 -7.55 -29.9 -9.05 -45.75 -10.3 -58.65 -9.5 -64.35 L-9.0 -67.85 Q-7.25 -78.3 -2.05 -85.45 L-0.8 -86.35 0.0 -86.5" fill="#000000" fill-rule="evenodd" stroke="none"/>
    <path d="M0.85 15.5 L1.35 16.95 Q0.7 17.75 1.05 18.65 1.4 19.55 2.5 19.45 L3.1 21.5 Q2.55 21.6 2.1 22.05 1.65 22.5 1.7 23.05 1.75 24.0 2.65 24.35 L3.7 24.4 3.95 28.1 Q1.55 28.2 1.85 30.75 2.0 31.95 3.1 32.35 L4.75 32.45 6.1 37.25 Q5.55 36.55 4.5 36.35 3.45 36.2 2.75 36.9 2.0 37.7 1.95 38.85 1.9 40.05 2.75 40.7 3.35 41.15 4.15 41.1 5.1 41.05 5.25 40.15 5.9 39.6 6.85 39.65 7.75 39.7 8.1 40.15 8.4 40.55 8.35 42.7 8.25 44.85 8.0 45.2 7.8 45.55 6.8 45.5 L5.3 45.15 Q4.7 44.15 3.6 44.85 2.4 45.65 3.0 48.0 L0.0 48.0 -3.0 48.0 Q-2.4 45.65 -3.6 44.85 -4.7 44.15 -5.3 45.15 L-6.8 45.5 Q-7.8 45.55 -8.0 45.2 -8.25 44.85 -8.35 42.7 -8.4 40.55 -8.1 40.15 -7.75 39.7 -6.85 39.65 -5.9 39.6 -5.25 40.15 -5.1 41.05 -4.15 41.1 -3.35 41.15 -2.75 40.7 -1.9 40.05 -1.95 38.85 -2.0 37.7 -2.75 36.9 -3.45 36.2 -4.5 36.35 -5.55 36.55 -6.1 37.25 L-4.75 32.45 -3.1 32.35 Q-2.0 31.95 -1.85 30.75 -1.55 28.2 -3.95 28.1 L-3.7 24.4 -2.65 24.35 Q-1.75 24.0 -1.7 23.05 -1.65 22.5 -2.1 22.05 -2.55 21.6 -3.1 21.5 L-2.5 19.45 Q-1.4 19.55 -1.05 18.65 -0.7 17.75 -1.35 16.95 L-0.85 15.5 Q-0.3 14.0 0.0 14.0 0.3 14.0 0.85 15.5" fill="url(#gradient0)" fill-rule="evenodd" stroke="none"/>
    <path d="M3.85 27.75 Q4.35 28.0 4.95 29.95 5.5 31.95 5.15 32.3 L4.45 32.8 3.55 32.85 Q2.5 32.85 1.75 32.05 1.05 31.3 1.05 30.2 1.05 29.1 1.75 28.3 2.8 27.25 3.85 27.75 M4.0 35.7 Q5.05 35.7 6.0 36.75 L5.25 38.3 Q4.95 39.0 5.2 40.15 5.5 41.4 4.35 41.7 3.25 41.95 2.35 41.25 1.15 40.35 1.15 39.0 1.15 37.55 1.95 36.6 2.8 35.7 4.0 35.7 M-4.0 35.7 Q-2.8 35.7 -1.95 36.6 -1.15 37.55 -1.15 39.0 -1.15 40.35 -2.35 41.25 -3.25 41.95 -4.35 41.7 -5.5 41.4 -5.2 40.15 -4.95 39.0 -5.25 38.3 L-6.0 36.75 Q-5.05 35.7 -4.0 35.7 M-3.85 27.75 Q-2.8 27.25 -1.75 28.3 -1.05 29.1 -1.05 30.2 -1.05 31.3 -1.75 32.05 -2.5 32.85 -3.55 32.85 L-4.45 32.8 -5.15 32.3 Q-5.5 31.95 -4.95 29.95 -4.35 28.0 -3.85 27.75" fill="#000000" fill-opacity="0.2" fill-rule="evenodd" stroke="none"/>
    <path d="M1.4 24.1 Q2.0 25.0 2.0 26.25 2.0 27.5 1.4 28.35 0.85 29.25 0.0 29.25 -0.85 29.25 -1.45 28.35 -2.0 27.5 -2.0 26.25 -2.0 25.0 -1.45 24.1 -0.85 23.25 0.0 23.25 0.85 23.25 1.4 24.1" fill="url(#gradient1)" fill-rule="evenodd" stroke="none"/>
    <path d="M1.7 32.4 Q2.45 33.5 2.45 35.0 2.45 36.55 1.7 37.55 1.05 38.65 0.0 38.65 -1.05 38.65 -1.75 37.55 -2.45 36.55 -2.45 35.0 -2.45 33.5 -1.75 32.4 -1.05 31.35 0.0 31.35 1.05 31.35 1.7 32.4" fill="url(#gradient2)" fill-rule="evenodd" stroke="none"/>
    <path d="M7.85 40.2 Q8.45 41.1 8.45 42.35 8.45 43.6 7.85 44.45 7.3 45.35 6.45 45.35 5.6 45.35 5.0 44.45 4.45 43.6 4.45 42.35 4.45 41.1 5.0 40.2 5.6 39.35 6.45 39.35 7.3 39.35 7.85 40.2" fill="url(#gradient3)" fill-rule="evenodd" stroke="none"/>
    <path d="M-6.45 39.35 Q-5.6 39.35 -5.0 40.2 -4.45 41.1 -4.45 42.35 -4.45 43.6 -5.0 44.45 -5.6 45.35 -6.45 45.35 -7.3 45.35 -7.85 44.45 -8.45 43.6 -8.45 42.35 -8.45 41.1 -7.85 40.2 -7.3 39.35 -6.45 39.35" fill="url(#gradient4)" fill-rule="evenodd" stroke="none"/>
    <path d="M-6.0 38.0 Q-4.25 32.85 -1.7 16.55 -1.0 11.7 0.0 11.0 1.0 11.7 1.7 16.55 4.25 32.85 6.0 38.0" fill="none" stroke="#5b596c" stroke-linecap="butt" stroke-linejoin="round" stroke-width="1.0"/>
    <path d="M-3.0 -2.0 L3.0 -2.0 Q3.75 7.5 6.05 19.55 8.3 31.35 10.0 35.0 L8.0 36.55 6.0 38.0 Q4.25 32.85 1.7 16.55 1.0 11.7 0.0 11.0 -1.0 11.7 -1.7 16.55 -4.25 32.85 -6.0 38.0 L-8.0 36.55 -10.0 35.0 Q-8.3 31.35 -6.05 19.55 -3.75 7.5 -3.0 -2.0" fill="url(#gradient5)" fill-rule="evenodd" stroke="none"/>
    <path d="M0.55 -0.1 L0.0 -1.05 -0.55 -0.1 -0.6 0.95 -0.6 7.2 -2.0 8.55 -2.45 10.2 -3.0 12.0 -5.0 12.0 Q-4.25 5.15 -4.05 -3.0 L4.05 -3.0 Q4.25 5.15 5.0 12.0 L3.0 12.0 2.45 10.2 2.0 8.55 0.6 7.2 0.6 0.95 0.55 -0.1" fill="#000000" fill-opacity="0.8" fill-rule="evenodd" stroke="none"/>
    <path d="M0.0 -79.0 L0.0 -84.0 Q4.85 -77.35 6.5 -67.4 6.2 -68.4 5.3 -69.25 4.2 -70.35 3.05 -70.0 L3.0 -69.95 3.0 -70.0 2.2 -73.6 Q1.7 -75.5 0.0 -79.0" fill="#dbebff" fill-rule="evenodd" stroke="none"/>
    <path d="M0.0 -84.0 L0.0 -79.0 Q-1.7 -75.5 -2.2 -73.6 L-3.0 -70.0 -3.0 -69.95 -3.05 -70.0 Q-4.15 -70.35 -5.3 -69.25 -6.2 -68.4 -6.5 -67.4 -4.85 -77.35 0.0 -84.0" fill="url(#gradient6)" fill-rule="evenodd" stroke="none"/>
    <path d="M0.0 -34.0 Q0.15 -36.5 2.3 -44.6 4.15 -51.65 4.0 -61.0 L4.05 -61.0 Q6.35 -62.1 6.9 -64.25 L7.0 -64.0 Q7.75 -58.5 6.55 -46.0 5.1 -30.65 5.0 -25.4 4.9 -14.0 5.5 -1.1 6.15 13.6 7.3 19.55 9.25 30.15 12.0 35.0 L8.0 39.0 Q6.25 34.6 4.35 23.7 2.8 15.15 2.0 8.0 L1.0 7.0 1.0 0.0 Q1.0 -1.1 0.0 -2.0 L0.0 -34.0" fill="url(#gradient7)" fill-rule="evenodd" stroke="none"/>
    <path d="M0.0 -34.0 L0.0 -2.0 Q-1.0 -1.1 -1.0 0.0 L-1.0 7.0 -2.0 8.0 Q-2.8 15.15 -4.35 23.7 -6.25 34.6 -8.0 39.0 L-12.0 35.0 Q-9.25 30.15 -7.3 19.55 -6.15 13.6 -5.5 -1.1 -4.9 -14.0 -5.0 -25.4 -5.1 -30.65 -6.55 -46.0 -7.75 -58.5 -7.0 -64.0 L-6.9 -64.25 Q-6.35 -62.1 -4.05 -61.0 L-4.0 -61.0 Q-4.15 -51.65 -2.3 -44.6 -0.15 -36.5 0.0 -34.0" fill="url(#gradient8)" fill-rule="evenodd" stroke="none"/>
    <path d="M0.0 -79.0 Q1.65 -75.65 2.2 -73.6 L3.0 -70.0 4.0 -61.0 Q4.15 -51.75 2.3 -44.6 0.15 -36.35 0.0 -34.0 -0.15 -36.35 -2.3 -44.6 -4.15 -51.75 -4.0 -61.0 L-3.0 -70.0 -2.2 -73.6 Q-1.65 -75.65 0.0 -79.0" fill="url(#gradient9)" fill-rule="evenodd" stroke="none"/>
    <path d="M4.55 -65.5 Q4.55 -64.9 5.0 -64.45 5.45 -64.0 6.05 -64.0 L6.9 -64.25 Q6.4 -62.15 4.05 -61.0 2.0 -62.15 1.9 -65.55 1.8 -68.7 3.05 -70.0 4.2 -70.35 5.35 -69.2 6.3 -68.2 6.6 -67.1 L6.7 -66.85 6.05 -67.0 Q5.45 -67.0 5.0 -66.55 4.55 -66.1 4.55 -65.5" fill="url(#gradient10)" fill-rule="evenodd" stroke="none"/>
    <path d="M-6.05 -64.0 Q-5.45 -64.0 -5.0 -64.45 -4.55 -64.9 -4.55 -65.5 -4.55 -66.1 -5.0 -66.55 -5.45 -67.0 -6.05 -67.0 L-6.7 -66.85 -6.6 -67.1 Q-6.3 -68.2 -5.35 -69.2 -4.2 -70.35 -3.05 -70.0 -1.8 -68.7 -1.9 -65.55 -2.0 -62.15 -4.05 -61.0 -6.4 -62.15 -6.9 -64.25 L-6.05 -64.0" fill="url(#gradient11)" fill-rule="evenodd" stroke="none"/>
    <path d="M0.5 -60.5 L2.0 -59.0 Q1.75 -49.35 0.0 -46.0 -1.75 -49.35 -2.0 -59.0 L-0.5 -60.5 Q-0.5 -62.0 0.0 -62.0 0.5 -62.0 0.5 -60.5" fill="url(#gradient12)" fill-rule="evenodd" stroke="none"/>
    <path d="M1.0 -58.6 Q0.8 -52.45 0.0 -49.0 -0.8 -52.45 -1.0 -58.6 L0.0 -59.6 1.0 -58.6" fill="url(#gradient13)" fill-rule="evenodd" stroke="none"/>
    <path d="M-2.0 53.0 Q-2.25 51.05 -4.0 50.0 L-5.0 50.0 -5.2 49.0 Q-5.2 48.15 -5.0 48.0 L0.0 48.0 5.0 48.0 Q5.2 48.15 5.2 49.0 L5.0 50.0 4.0 50.0 Q2.25 51.05 2.0 53.0 L-2.0 53.0" fill="url(#gradient14)" fill-rule="evenodd" stroke="none"/>
    <path d="M-2.0 53.0 L2.0 53.0 Q1.8 53.55 2.15 54.15 2.45 54.75 3.0 55.0 L-3.0 55.0 Q-2.4 54.75 -2.1 54.15 -1.8 53.55 -2.0 53.0" fill="url(#gradient15)" fill-rule="evenodd" stroke="none"/>
    <path d="M3.0 55.0 L3.0 56.0 -3.0 56.0 -3.0 55.0 3.0 55.0" fill="url(#gradient16)" fill-rule="evenodd" stroke="none"/>
    <path d="M3.0 56.0 Q1.95 56.85 2.0 58.0 L-2.0 58.0 Q-1.95 56.85 -3.0 56.0 L3.0 56.0" fill="url(#gradient17)" fill-rule="evenodd" stroke="none"/>
    <path d="M2.0 71.0 Q2.1 73.35 3.0 74.0 L-3.0 74.0 Q-2.1 73.35 -2.0 71.0 L2.0 71.0" fill="url(#gradient18)" fill-rule="evenodd" stroke="none"/>
    <path d="M2.0 58.0 L2.0 71.0 -2.0 71.0 -2.0 58.0 2.0 58.0" fill="url(#gradient19)" fill-rule="evenodd" stroke="none"/>
    <path d="M4.0 77.0 L4.0 80.0 3.0 80.0 3.0 79.0 2.0 79.0 2.0 80.0 1.0 80.0 1.0 79.0 -1.0 79.0 -1.0 80.0 -2.0 80.0 -2.0 79.0 -3.0 79.0 -3.0 80.0 -4.0 80.0 -4.0 77.0 4.0 77.0" fill="url(#gradient20)" fill-rule="evenodd" stroke="none"/>
    <path d="M3.0 74.0 L3.0 75.0 2.0 75.0 -2.0 75.0 -3.0 75.0 -3.0 74.0 3.0 74.0" fill="url(#gradient21)" fill-rule="evenodd" stroke="none"/>
    <path d="M2.0 75.0 Q2.55 76.15 4.0 77.0 L-4.0 77.0 Q-2.55 76.15 -2.0 75.0 L2.0 75.0" fill="url(#gradient22)" fill-rule="evenodd" stroke="none"/>
    <path d="M0.0 43.0 Q0.8 43.05 2.0 48.0 L-2.0 48.0 Q-0.8 43.05 0.0 43.0" fill="url(#gradient23)" fill-rule="evenodd" stroke="none"/>
    <path d="M2.0 71.0 L-2.0 71.0 -2.0 70.0 2.0 70.0 2.0 71.0 M3.0 58.0 L-3.0 58.0 -3.0 57.0 3.0 57.0 3.0 58.0 M4.0 51.0 L-4.0 51.0 -4.0 50.0 4.0 50.0 4.0 51.0" fill="#000000" fill-opacity="0.15294118" fill-rule="evenodd" stroke="none"/>
  </g>
  <defs>
    <radialGradient cx="0" cy="0" gradientTransform="matrix(0.011, 0.0, 0.0, 0.0533, 0.0, 45.0)" gradientUnits="userSpaceOnUse" id="gradient0" r="819.2" spreadMethod="pad">
      <stop offset="0.1450980392156863" stop-color="#dfdfdf"/>
      <stop offset="1.0" stop-color="#959595"/>
    </radialGradient>
    <radialGradient cx="0" cy="0" fx="323.20000000000005" fy="0" gradientTransform="matrix(0.0, -0.0029, 0.002, 0.0, 0.0, 26.25)" gradientUnits="userSpaceOnUse" id="gradient1" r="819.2" spreadMethod="pad">
      <stop offset="0.13725490196078433" stop-color="#f8f8f8" stop-opacity="0.8235294"/>
      <stop offset="0.43137254901960786" stop-color="#dfdfdf" stop-opacity="0.6509804"/>
      <stop offset="0.7843137254901961" stop-color="#ecdfe9" stop-opacity="0.0"/>
    </radialGradient>
    <radialGradient cx="0" cy="0" fx="323.20000000000005" fy="0" gradientTransform="matrix(0.0, -0.0053, 0.0036, 0.0, 0.0, 35.0)" gradientUnits="userSpaceOnUse" id="gradient2" r="819.2" spreadMethod="pad">
      <stop offset="0.13725490196078433" stop-color="#fbfbfb" stop-opacity="0.83137256"/>
      <stop offset="0.43137254901960786" stop-color="#dfdfdf" stop-opacity="0.6509804"/>
      <stop offset="0.7843137254901961" stop-color="#ecdfe9" stop-opacity="0.0"/>
    </radialGradient>
    <radialGradient cx="0" cy="0" fx="323.20000000000005" fy="0" gradientTransform="matrix(0.0, -0.0033, 0.0022, 0.0, 6.45, 42.35)" gradientUnits="userSpaceOnUse" id="gradient3" r="819.2" spreadMethod="pad">
      <stop offset="0.13725490196078433" stop-color="#f8f8f8" stop-opacity="0.8235294"/>
      <stop offset="0.43137254901960786" stop-color="#dfdfdf" stop-opacity="0.6509804"/>
      <stop offset="0.7843137254901961" stop-color="#ecdfe9" stop-opacity="0.0"/>
    </radialGradient>
    <radialGradient cx="0" cy="0" fx="323.20000000000005" fy="0" gradientTransform="matrix(0.0, -0.0033, -0.0022, 0.0, -6.45, 42.35)" gradientUnits="userSpaceOnUse" id="gradient4" r="819.2" spreadMethod="pad">
      <stop offset="0.13725490196078433" stop-color="#f8f8f8" stop-opacity="0.8235294"/>
      <stop offset="0.43137254901960786" stop-color="#dfdfdf" stop-opacity="0.6509804"/>
      <stop offset="0.7843137254901961" stop-color="#ecdfe9" stop-opacity="0.0"/>
    </radialGradient>
    <linearGradient gradientTransform="matrix(0.0122, 0.0, 0.0, 0.0281, 0.0, 27.0)" gradientUnits="userSpaceOnUse" id="gradient5" spreadMethod="pad" x1="-819.2" x2="819.2">
      <stop offset="0.0" stop-color="#959595"/>
      <stop offset="0.5215686274509804" stop-color="#dfdfdf"/>
      <stop offset="1.0" stop-color="#959595"/>
    </linearGradient>
    <linearGradient gradientTransform="matrix(0.004, -0.0125, -0.0557, -0.0179, -17.1, -67.25)" gradientUnits="userSpaceOnUse" id="gradient6" spreadMethod="pad" x1="-819.2" x2="819.2">
      <stop offset="0.0" stop-color="#3478bc"/>
      <stop offset="1.0" stop-color="#518af4"/>
    </linearGradient>
    <linearGradient gradientTransform="matrix(-0.0115, -0.0544, 0.0574, -0.0122, 7.6, -6.05)" gradientUnits="userSpaceOnUse" id="gradient7" spreadMethod="pad" x1="-819.2" x2="819.2">
      <stop offset="0.00392156862745098" stop-color="#399bfd"/>
      <stop offset="0.21176470588235294" stop-color="#377af3"/>
      <stop offset="0.48627450980392156" stop-color="#217ef7"/>
      <stop offset="0.7294117647058823" stop-color="#46a3ff"/>
      <stop offset="0.9568627450980393" stop-color="#d7e8fd"/>
    </linearGradient>
    <linearGradient gradientTransform="matrix(-0.0078, -0.068, -0.0582, 0.0066, -11.75, -14.8)" gradientUnits="userSpaceOnUse" id="gradient8" spreadMethod="pad" x1="-819.2" x2="819.2">
      <stop offset="0.0" stop-color="#1367d7"/>
      <stop offset="0.2627450980392157" stop-color="#093479"/>
      <stop offset="0.5176470588235295" stop-color="#044191"/>
      <stop offset="0.8627450980392157" stop-color="#288df2"/>
    </linearGradient>
    <linearGradient gradientTransform="matrix(0.0042, -0.0272, 0.0271, 0.0042, 0.0, -56.5)" gradientUnits="userSpaceOnUse" id="gradient9" spreadMethod="pad" x1="-819.2" x2="819.2">
      <stop offset="0.0784313725490196" stop-color="#47a3fe"/>
      <stop offset="0.40784313725490196" stop-color="#318fee"/>
      <stop offset="0.5333333333333333" stop-color="#1375d7"/>
      <stop offset="1.0" stop-color="#043182"/>
    </linearGradient>
    <linearGradient gradientTransform="matrix(0.0, -0.0053, 0.0056, 0.0, 4.4, -65.55)" gradientUnits="userSpaceOnUse" id="gradient10" spreadMethod="pad" x1="-819.2" x2="819.2">
      <stop offset="0.1450980392156863" stop-color="#87c4fe"/>
      <stop offset="0.3686274509803922" stop-color="#6baafe"/>
      <stop offset="0.8627450980392157" stop-color="#0c54b4"/>
    </linearGradient>
    <linearGradient gradientTransform="matrix(0.0, -0.0053, -0.0056, 0.0, -4.4, -65.55)" gradientUnits="userSpaceOnUse" id="gradient11" spreadMethod="pad" x1="-819.2" x2="819.2">
      <stop offset="0.027450980392156862" stop-color="#65b0fc"/>
      <stop offset="0.28627450980392155" stop-color="#0f7be8"/>
      <stop offset="0.7450980392156863" stop-color="#093c6f"/>
    </linearGradient>
    <linearGradient gradientTransform="matrix(0.0054, -0.003, 0.0047, 0.0085, -0.05, -54.0)" gradientUnits="userSpaceOnUse" id="gradient12" spreadMethod="pad" x1="-819.2" x2="819.2">
      <stop offset="0.10196078431372549" stop-color="#82c4ee"/>
      <stop offset="0.47058823529411764" stop-color="#287ef2"/>
      <stop offset="0.7254901960784313" stop-color="#154f9b"/>
      <stop offset="1.0" stop-color="#174168"/>
      <stop offset="1.0" stop-color="#04407b"/>
    </linearGradient>
    <linearGradient gradientTransform="matrix(0.0035, -0.0046, 0.0077, 0.0059, 1.05, -53.7)" gradientUnits="userSpaceOnUse" id="gradient13" spreadMethod="pad" x1="-819.2" x2="819.2">
      <stop offset="0.054901960784313725" stop-color="#787878"/>
      <stop offset="0.3333333333333333" stop-color="#a3a3a3"/>
      <stop offset="0.5058823529411764" stop-color="#b3b3b3"/>
      <stop offset="0.9137254901960784" stop-color="#fbfbfb"/>
    </linearGradient>
    <linearGradient gradientTransform="matrix(-0.0061, 0.0, 0.0, 0.0012, 0.0, 51.0)" gradientUnits="userSpaceOnUse" id="gradient14" spreadMethod="pad" x1="-819.2" x2="819.2">
      <stop offset="0.0" stop-color="#787878"/>
      <stop offset="0.3176470588235294" stop-color="#bfbfbf"/>
      <stop offset="0.4588235294117647" stop-color="#dfdfdf"/>
      <stop offset="0.5372549019607843" stop-color="#dfdfdf"/>
      <stop offset="0.6588235294117647" stop-color="#bfbfbf"/>
      <stop offset="1.0" stop-color="#787878"/>
    </linearGradient>
    <linearGradient gradientTransform="matrix(0.0024, 0.0, 0.0, 0.0018, 0.0, 54.5)" gradientUnits="userSpaceOnUse" id="gradient15" spreadMethod="pad" x1="-819.2" x2="819.2">
      <stop offset="0.0" stop-color="#443551"/>
      <stop offset="0.5019607843137255" stop-color="#654a75"/>
      <stop offset="1.0" stop-color="#443551"/>
    </linearGradient>
    <linearGradient gradientTransform="matrix(0.0037, 0.0, 0.0, 0.0018, 0.0, 53.0)" gradientUnits="userSpaceOnUse" id="gradient16" spreadMethod="pad" x1="-819.2" x2="819.2">
      <stop offset="0.0" stop-color="#443551"/>
      <stop offset="0.47843137254901963" stop-color="#836a95"/>
      <stop offset="0.5843137254901961" stop-color="#836a95"/>
      <stop offset="1.0" stop-color="#443551"/>
    </linearGradient>
    <linearGradient gradientTransform="matrix(0.0037, 0.0, 0.0, 0.0012, 0.0, 58.0)" gradientUnits="userSpaceOnUse" id="gradient17" spreadMethod="pad" x1="-819.2" x2="819.2">
      <stop offset="0.0" stop-color="#2d2437"/>
      <stop offset="0.5019607843137255" stop-color="#624671"/>
      <stop offset="1.0" stop-color="#2d2437"/>
    </linearGradient>
    <radialGradient cx="0" cy="0" gradientTransform="matrix(0.0035, 0.0, 0.0, 0.0081, 0.0, 73.9)" gradientUnits="userSpaceOnUse" id="gradient18" r="819.2" spreadMethod="pad">
      <stop offset="0.11372549019607843" stop-color="#e6e6e6"/>
      <stop offset="0.27058823529411763" stop-color="#cacaca"/>
      <stop offset="0.7686274509803922" stop-color="#8d8d8d"/>
    </radialGradient>
    <linearGradient gradientTransform="matrix(0.0024, 0.0, 0.0, 0.0067, 0.0, 63.5)" gradientUnits="userSpaceOnUse" id="gradient19" spreadMethod="pad" x1="-819.2" x2="819.2">
      <stop offset="0.0" stop-color="#443551"/>
      <stop offset="0.47058823529411764" stop-color="#6d5481"/>
      <stop offset="0.5725490196078431" stop-color="#6d5481"/>
      <stop offset="1.0" stop-color="#443551"/>
    </linearGradient>
    <linearGradient gradientTransform="matrix(0.0049, 0.0, 0.0, 6.0E-4, 0.0, 74.5)" gradientUnits="userSpaceOnUse" id="gradient20" spreadMethod="pad" x1="-819.2" x2="819.2">
      <stop offset="0.0" stop-color="#6d6d6d"/>
      <stop offset="0.4" stop-color="#bfbfbf"/>
      <stop offset="0.6235294117647059" stop-color="#bfbfbf"/>
      <stop offset="1.0" stop-color="#6d6d6d"/>
    </linearGradient>
    <linearGradient gradientTransform="matrix(0.0049, 0.0, 0.0, 6.0E-4, 0.0, 74.5)" gradientUnits="userSpaceOnUse" id="gradient21" spreadMethod="pad" x1="-819.2" x2="819.2">
      <stop offset="0.0" stop-color="#7b7b7b"/>
      <stop offset="0.4627450980392157" stop-color="#b5b5b5"/>
      <stop offset="0.6039215686274509" stop-color="#b5b5b5"/>
      <stop offset="1.0" stop-color="#7b7b7b"/>
    </linearGradient>
    <radialGradient cx="0" cy="0" gradientTransform="matrix(0.0049, 0.0, 0.0, 0.0081, 0.0, 77.0)" gradientUnits="userSpaceOnUse" id="gradient22" r="819.2" spreadMethod="pad">
      <stop offset="0.10980392156862745" stop-color="#e6e6e6"/>
      <stop offset="0.27058823529411763" stop-color="#cacaca"/>
      <stop offset="0.7686274509803922" stop-color="#8d8d8d"/>
    </radialGradient>
    <radialGradient cx="0" cy="0" gradientTransform="matrix(0.0024, 0.0, 0.0, 0.0072, 0.0, 47.95)" gradientUnits="userSpaceOnUse" id="gradient23" r="819.2" spreadMethod="pad">
      <stop offset="0.11372549019607843" stop-color="#e6e6e6"/>
      <stop offset="0.37254901960784315" stop-color="#cacaca"/>
      <stop offset="0.8156862745098039" stop-color="#8d8d8d"/>
    </radialGradient>
  </defs>
</svg>
