<?xml version="1.0" encoding="UTF-8" standalone="no"?>
<svg xmlns:xlink="http://www.w3.org/1999/xlink" height="32.85px" width="16.65px" xmlns="http://www.w3.org/2000/svg">
  <g transform="matrix(1.0, 0.0, 0.0, 1.0, -2.8, -0.1)">
    <path d="M17.4 5.15 L17.35 5.05 Q17.8 6.15 17.8 7.25 17.8 9.25 16.85 11.05 L16.85 11.0 15.45 13.05 15.65 13.25 15.7 13.25 17.35 14.95 17.35 15.0 18.8 17.1 18.8 17.15 Q19.45 18.45 19.45 19.85 19.45 21.2 19.0 22.4 L19.05 22.35 18.1 24.35 16.8 26.2 15.65 27.45 15.65 27.5 10.95 32.5 9.9 32.95 Q9.3 32.95 8.85 32.55 L3.3 27.25 Q2.85 26.8 2.8 26.25 2.75 25.65 3.15 25.2 L6.7 20.95 7.35 20.5 8.15 20.45 Q8.55 20.5 8.9 20.8 L11.55 23.3 Q11.5 22.5 11.05 21.85 10.35 20.8 9.45 19.95 L9.5 20.05 7.65 18.7 6.35 18.0 5.6 17.25 Q5.35 16.75 5.5 16.25 5.6 15.7 6.05 15.4 L7.15 14.55 7.15 14.5 8.55 13.2 9.7 11.7 9.7 11.65 10.05 10.75 9.85 10.25 9.8 10.2 9.0 9.45 8.9 9.45 7.55 8.8 6.25 8.6 Q5.7 8.6 5.3 8.25 4.9 7.9 4.8 7.4 4.7 6.85 4.95 6.35 L8.1 0.85 8.75 0.25 9.65 0.15 Q11.95 0.5 13.4 1.2 15.0 1.95 15.95 2.85 L15.95 2.9 Q16.95 3.9 17.4 5.15" fill="#000000" fill-rule="evenodd" stroke="none"/>
    <path d="M11.0 9.3 L9.7 8.15 Q8.9 7.65 8.0 7.35 L6.25 7.1 9.4 1.6 Q11.45 1.95 12.75 2.55 L14.9 3.95 Q15.65 4.7 15.95 5.6 L16.3 7.25 Q16.3 8.85 15.5 10.3 L13.35 13.15 14.65 14.35 16.2 15.95 17.45 17.8 Q17.95 18.8 17.95 19.85 17.95 20.9 17.6 21.85 L16.8 23.6 15.65 25.2 14.55 26.45 9.85 31.45 4.3 26.15 7.85 21.9 12.1 25.85 12.8 24.85 13.05 23.55 Q13.05 22.15 12.3 21.0 L10.45 18.85 8.4 17.4 6.95 16.6 8.1 15.65 9.65 14.2 10.95 12.45 Q11.55 11.55 11.55 10.75 11.55 10.0 11.0 9.3" fill="url(#gradient0)" fill-rule="evenodd" stroke="none"/>
  </g>
  <defs>
    <linearGradient gradientTransform="matrix(0.0, 0.0206, -0.0222, 0.0, 57.65, 15.65)" gradientUnits="userSpaceOnUse" id="gradient0" spreadMethod="pad" x1="-819.2" x2="819.2">
      <stop offset="0.0" stop-color="#ffffff"/>
      <stop offset="1.0" stop-color="#757575"/>
    </linearGradient>
  </defs>
</svg>
