<?xml version="1.0" encoding="UTF-8" standalone="no"?>
<svg xmlns:xlink="http://www.w3.org/1999/xlink" height="31.45px" width="19.0px" xmlns="http://www.w3.org/2000/svg">
  <g transform="matrix(1.0, 0.0, 0.0, 1.0, 0.55, -0.5)">
    <path d="M17.9 4.75 L16.15 6.85 16.3 7.0 Q16.75 7.45 16.75 8.05 L16.75 18.15 16.95 18.15 Q17.55 18.15 18.0 18.6 18.45 19.05 18.45 19.65 L18.45 24.3 18.0 25.35 Q17.55 25.8 16.95 25.8 L16.75 25.8 16.75 30.45 16.3 31.5 Q15.85 31.95 15.25 31.95 L9.5 31.95 Q8.9 31.95 8.45 31.5 8.0 31.05 8.0 30.45 L8.0 25.8 0.95 25.8 Q0.4 25.8 0.0 25.45 -0.45 25.1 -0.5 24.55 -0.6 24.0 -0.3 23.55 L2.9 17.65 2.95 17.65 5.5 11.85 7.2 6.4 Q7.8 3.95 7.8 2.0 7.8 1.4 8.25 0.95 8.7 0.5 9.3 0.5 L16.8 0.5 Q17.4 0.5 17.85 0.95 18.3 1.4 18.3 2.0 L18.3 3.75 Q18.3 4.3 17.9 4.75" fill="#000000" fill-rule="evenodd" stroke="none"/>
    <path d="M15.25 8.05 L15.25 19.65 16.95 19.65 16.95 24.3 15.25 24.3 15.25 30.45 9.5 30.45 9.5 24.3 0.95 24.3 4.25 18.3 6.9 12.35 8.65 6.75 Q9.3 4.1 9.3 2.0 L16.8 2.0 16.8 3.75 Q15.25 5.45 13.55 7.8 L10.3 12.55 7.6 16.85 6.05 19.65 9.5 19.65 9.5 15.35 11.0 13.2 12.75 10.95 14.3 9.1 15.25 8.05" fill="url(#gradient0)" fill-rule="evenodd" stroke="none"/>
  </g>
  <defs>
    <linearGradient gradientTransform="matrix(0.0, 0.0206, -0.0222, 0.0, 28.65, 15.65)" gradientUnits="userSpaceOnUse" id="gradient0" spreadMethod="pad" x1="-819.2" x2="819.2">
      <stop offset="0.0" stop-color="#ffffff"/>
      <stop offset="1.0" stop-color="#757575"/>
    </linearGradient>
  </defs>
</svg>
