<?xml version="1.0" encoding="UTF-8" standalone="no"?>
<svg xmlns:xlink="http://www.w3.org/1999/xlink" height="106.55px" width="51.15px" xmlns="http://www.w3.org/2000/svg">
  <g transform="matrix(1.0, 0.0, 0.0, 1.0, -9.35, -24.85)">
    <path d="M42.65 38.55 Q39.2 43.2 36.25 48.5 33.35 53.85 31.2 59.8 29.0 65.7 28.3 71.7 L30.1 71.0 32.3 69.3 42.65 59.25 Q47.9 64.55 51.35 68.85 54.8 73.2 56.85 77.05 58.8 80.85 59.7 84.45 60.5 88.05 60.5 91.8 60.5 96.75 59.55 101.6 58.55 106.5 55.8 111.5 53.2 116.4 48.25 121.45 43.35 126.45 35.45 131.4 30.6 128.4 26.6 123.35 22.55 118.35 19.55 112.5 16.55 106.65 14.8 100.65 13.1 94.65 13.1 89.75 13.1 82.65 15.45 74.0 17.75 65.25 22.35 56.85 26.9 48.4 33.75 41.3 40.75 34.2 49.65 30.35 46.1 33.9 42.65 38.55 M27.75 80.15 Q28.0 85.8 29.6 91.0 31.3 96.2 33.6 100.5 36.05 104.8 38.75 108.35 41.45 111.8 43.9 113.95 46.2 111.8 47.4 109.6 48.5 107.4 48.5 103.5 48.5 101.5 47.25 97.35 45.95 93.15 43.75 88.95 41.45 84.75 38.4 81.6 35.3 78.45 31.55 78.45 29.75 78.45 27.75 80.15" fill="#666666" fill-rule="evenodd" stroke="none"/>
    <path d="M32.5 43.0 Q29.6 48.35 27.45 54.3 25.25 60.2 24.55 66.2 L26.35 65.5 28.55 63.8 38.9 53.75 Q44.15 59.05 47.6 63.35 51.05 67.7 53.1 71.55 55.05 75.35 55.95 78.95 56.75 82.55 56.75 86.3 56.75 91.25 55.8 96.1 54.8 101.0 52.05 106.0 49.45 110.9 44.5 115.95 39.6 120.95 31.7 125.9 26.85 122.9 22.85 117.85 18.8 112.85 15.8 107.0 12.8 101.15 11.05 95.15 9.35 89.15 9.35 84.25 9.35 77.15 11.7 68.5 14.0 59.75 18.6 51.35 23.15 42.9 30.0 35.8 37.0 28.7 45.9 24.85 42.35 28.4 38.9 33.05 35.45 37.7 32.5 43.0 M34.65 76.1 Q31.55 72.95 27.8 72.95 26.0 72.95 24.0 74.65 24.25 80.3 25.85 85.5 27.55 90.7 29.85 95.0 32.3 99.3 35.0 102.85 37.7 106.3 40.15 108.45 42.45 106.3 43.65 104.1 44.75 101.9 44.75 98.0 44.75 96.0 43.5 91.85 42.2 87.65 40.0 83.45 37.7 79.25 34.65 76.1" fill="url(#gradient0)" fill-rule="evenodd" stroke="none"/>
  </g>
  <defs>
    <linearGradient gradientTransform="matrix(2.0E-4, -0.0545, 0.0549, 2.0E-4, 418.0, 78.05)" gradientUnits="userSpaceOnUse" id="gradient0" spreadMethod="pad" x1="-819.2" x2="819.2">
      <stop offset="0.0" stop-color="#55000f"/>
      <stop offset="1.0" stop-color="#ff005a"/>
    </linearGradient>
  </defs>
</svg>
