<?xml version="1.0" encoding="UTF-8" standalone="no"?>
<svg xmlns:xlink="http://www.w3.org/1999/xlink" height="569.7px" width="452.8px" xmlns="http://www.w3.org/2000/svg">
  <g transform="matrix(1.0, 0.0, 0.0, 1.0, 50.05, 290.25)">
    <path d="M233.1 -146.4 Q167.05 -225.3 48.7 -268.35 9.35 -282.65 -28.05 -290.25 31.0 -281.2 93.05 -258.6 254.95 -199.7 342.2 -83.15 429.45 33.4 390.95 139.25 352.4 245.1 210.65 278.3 182.5 284.9 135.4 253.8 97.7 228.95 49.6 181.25 15.25 147.15 -20.85 105.05 -38.85 84.05 -50.05 69.8 56.0 103.8 147.95 87.45 249.25 69.5 274.15 1.0 299.1 -67.55 233.1 -146.4" fill="url(#gradient0)" fill-rule="evenodd" stroke="none"/>
  </g>
  <defs>
    <linearGradient gradientTransform="matrix(-0.029, 0.2932, -0.3507, -0.0347, 43.45, -62.1)" gradientUnits="userSpaceOnUse" id="gradient0" spreadMethod="pad" x1="-819.2" x2="819.2">
      <stop offset="0.0" stop-color="#ffffff" stop-opacity="0.0"/>
      <stop offset="0.0784313725490196" stop-color="#ffffff"/>
      <stop offset="0.2" stop-color="#ffffff"/>
      <stop offset="0.5254901960784314" stop-color="#949deb" stop-opacity="0.6"/>
      <stop offset="0.8117647058823529" stop-color="#ea94eb" stop-opacity="0.0"/>
    </linearGradient>
  </defs>
</svg>
