<?xml version="1.0" encoding="UTF-8" standalone="no"?>
<svg xmlns:xlink="http://www.w3.org/1999/xlink" height="115.65px" width="91.1px" xmlns="http://www.w3.org/2000/svg">
  <g transform="matrix(1.0, 0.0, 0.0, 1.0, 45.55, 58.15)">
    <path d="M35.55 -25.1 L42.9 -23.25 Q43.8 -23.05 44.35 -22.25 44.9 -21.5 44.8 -20.55 44.35 -16.95 42.7 -11.7 L40.15 -3.45 39.7 -2.55 38.95 -1.85 Q29.65 3.65 31.5 17.9 37.9 22.35 41.2 28.9 46.05 38.35 45.5 55.1 45.45 56.1 44.75 56.8 44.0 57.5 43.0 57.5 L40.0 57.5 Q38.95 57.5 38.25 56.75 37.5 56.0 37.5 55.0 37.55 52.0 37.25 49.25 L34.35 48.4 33.15 47.65 Q32.65 47.1 32.55 46.35 31.75 41.45 26.7 36.0 21.25 30.15 15.75 29.5 14.8 29.4 14.15 28.65 13.5 27.9 13.5 26.95 L13.4 24.8 12.5 26.05 Q11.8 26.5 11.0 26.5 L8.35 26.5 8.15 31.4 6.5 55.2 Q6.4 56.15 5.7 56.85 5.0 57.5 4.0 57.5 L-4.0 57.5 Q-5.0 57.5 -5.7 56.85 -6.4 56.15 -6.5 55.2 L-8.15 31.4 -8.3 26.5 -11.0 26.5 Q-11.8 26.5 -12.45 26.05 -13.1 25.55 -13.35 24.8 L-13.5 26.95 Q-13.5 27.9 -14.1 28.65 L-15.75 29.5 Q-21.25 30.15 -26.65 36.0 -31.75 41.45 -32.5 46.35 -32.65 47.1 -33.1 47.65 L-34.3 48.4 -37.25 49.25 Q-37.55 52.0 -37.5 55.0 -37.5 56.0 -38.2 56.75 -38.95 57.5 -40.0 57.5 L-43.0 57.5 Q-44.0 57.5 -44.75 56.8 -45.45 56.1 -45.5 55.1 -46.05 38.35 -41.15 28.9 -37.9 22.35 -31.5 17.9 -29.65 3.65 -38.9 -1.85 L-39.7 -2.55 -40.1 -3.45 -42.65 -11.7 Q-44.35 -16.95 -44.75 -20.55 -44.9 -21.5 -44.35 -22.25 -43.8 -23.05 -42.9 -23.25 L-35.55 -25.1 -34.15 -25.05 Q-33.8 -38.55 -24.15 -48.15 -14.15 -58.15 0.0 -58.15 14.15 -58.15 24.15 -48.15 33.8 -38.55 34.2 -25.05 L35.55 -25.1 M18.15 5.5 L18.5 7.2 19.1 5.5 18.15 5.5 M-19.1 5.5 L-18.5 7.2 -18.15 5.5 -19.1 5.5" fill="#000000" fill-rule="evenodd" stroke="none"/>
    <path d="M22.35 -1.6 Q18.95 1.85 15.0 4.0 L-15.0 4.0 Q-18.95 1.85 -22.4 -1.6 -31.7 -10.85 -31.7 -23.95 -31.7 -37.1 -22.4 -46.4 -13.1 -55.65 0.0 -55.65 13.1 -55.65 22.35 -46.4 31.7 -37.1 31.7 -23.95 31.7 -10.85 22.35 -1.6" fill="url(#gradient0)" fill-rule="evenodd" stroke="none"/>
    <path d="M20.5 -3.5 Q12.0 5.0 0.0 5.0 -12.0 5.0 -20.5 -3.5 -29.0 -12.0 -29.0 -24.0 -29.0 -36.0 -20.5 -44.5 -12.0 -53.0 0.0 -53.0 12.0 -53.0 20.5 -44.5 29.0 -36.0 29.0 -24.0 29.0 -12.0 20.5 -3.5" fill="url(#gradient1)" fill-rule="evenodd" stroke="none"/>
    <path d="M5.0 -15.0 Q5.0 -7.95 0.0 -3.0 -5.0 2.0 -12.0 2.0 -19.05 2.0 -24.05 -3.0 -29.0 -7.95 -29.0 -15.0 -29.0 -22.05 -24.05 -27.0 -19.05 -32.0 -12.0 -32.0 -5.0 -32.0 0.0 -27.0 5.0 -22.05 5.0 -15.0" fill="url(#gradient2)" fill-rule="evenodd" stroke="none"/>
    <path d="M-29.0 -24.0 L-29.0 -24.1 -21.1 -26.1 Q-21.3 -23.8 -21.0 -21.85 -20.0 -14.9 -16.7 -10.5 -13.45 -6.1 -8.0 0.0 L-16.35 0.0 Q-18.5 -1.5 -20.5 -3.5 -29.0 -12.0 -29.0 -24.0" fill="url(#gradient3)" fill-rule="evenodd" stroke="none"/>
    <path d="M29.0 -24.0 Q29.0 -12.0 20.5 -3.5 18.5 -1.5 16.35 0.0 L8.0 0.0 Q13.45 -6.1 16.7 -10.5 20.0 -14.9 21.0 -21.85 21.3 -23.75 21.15 -26.1 L29.0 -24.1 29.0 -24.0" fill="url(#gradient4)" fill-rule="evenodd" stroke="none"/>
    <path d="M-10.0 21.0 Q-8.85 17.35 -10.35 13.2 -12.0 8.45 -16.0 7.0 L0.0 7.0 16.0 7.0 Q12.0 8.45 10.35 13.2 8.85 17.35 10.0 21.0 L-10.0 21.0" fill="url(#gradient5)" fill-rule="evenodd" stroke="none"/>
    <path d="M10.0 21.0 L11.0 24.0 -11.0 24.0 -10.0 21.0 10.0 21.0" fill="url(#gradient6)" fill-rule="evenodd" stroke="none"/>
    <path d="M0.0 7.0 L-16.0 7.0 -15.0 4.0 15.0 4.0 16.0 7.0 0.0 7.0" fill="url(#gradient7)" fill-rule="evenodd" stroke="none"/>
    <path d="M10.0 21.0 L-10.0 21.0 -10.0 20.0 10.0 20.0 10.0 21.0" fill="#000000" fill-opacity="0.2" fill-rule="evenodd" stroke="none"/>
  </g>
  <defs>
    <linearGradient gradientTransform="matrix(-2.0E-4, -0.0387, 0.0364, -2.0E-4, 0.0, -25.85)" gradientUnits="userSpaceOnUse" id="gradient0" spreadMethod="pad" x1="-819.2" x2="819.2">
      <stop offset="0.0" stop-color="#ec7d7d"/>
      <stop offset="0.3411764705882353" stop-color="#e96b6b"/>
      <stop offset="1.0" stop-color="#ed7474"/>
    </linearGradient>
    <radialGradient cx="0" cy="0" fx="281.6" fy="0" gradientTransform="matrix(0.0414, 2.0E-4, -2.0E-4, 0.0414, 2.3, -29.6)" gradientUnits="userSpaceOnUse" id="gradient1" r="819.2" spreadMethod="pad">
      <stop offset="0.10980392156862745" stop-color="#ffffff"/>
      <stop offset="0.13725490196078433" stop-color="#f08e8e"/>
      <stop offset="0.22745098039215686" stop-color="#e85e5e"/>
      <stop offset="0.3333333333333333" stop-color="#e14848"/>
      <stop offset="0.6784313725490196" stop-color="#d3381c"/>
      <stop offset="0.8784313725490196" stop-color="#e33e3e"/>
      <stop offset="1.0" stop-color="#e65151"/>
    </radialGradient>
    <radialGradient cx="0" cy="0" fx="6.4" fy="0" gradientTransform="matrix(0.0222, 1.0E-4, -1.0E-4, 0.0222, -12.3, -15.6)" gradientUnits="userSpaceOnUse" id="gradient2" r="819.2" spreadMethod="pad">
      <stop offset="0.21568627450980393" stop-color="#af1d1d"/>
      <stop offset="1.0" stop-color="#d43920" stop-opacity="0.0"/>
    </radialGradient>
    <linearGradient gradientTransform="matrix(0.0, -0.0159, 0.0256, 0.0, -17.1, -13.1)" gradientUnits="userSpaceOnUse" id="gradient3" spreadMethod="pad" x1="-819.2" x2="819.2">
      <stop offset="0.0" stop-color="#e97272" stop-opacity="0.09019608"/>
      <stop offset="1.0" stop-color="#f7d5d5" stop-opacity="0.09019608"/>
    </linearGradient>
    <linearGradient gradientTransform="matrix(0.0, -0.016, -0.0256, 0.0, 18.9, -13.2)" gradientUnits="userSpaceOnUse" id="gradient4" spreadMethod="pad" x1="-819.2" x2="819.2">
      <stop offset="0.0" stop-color="#dd2f2f" stop-opacity="0.09019608"/>
      <stop offset="1.0" stop-color="#ffffff" stop-opacity="0.15294118"/>
    </linearGradient>
    <linearGradient gradientTransform="matrix(0.0195, 0.0, 0.0, 0.0085, 0.0, 14.0)" gradientUnits="userSpaceOnUse" id="gradient5" spreadMethod="pad" x1="-819.2" x2="819.2">
      <stop offset="0.0" stop-color="#6a6a6a"/>
      <stop offset="0.49411764705882355" stop-color="#adadad"/>
      <stop offset="1.0" stop-color="#6d6d6d"/>
    </linearGradient>
    <linearGradient gradientTransform="matrix(0.0134, 0.0, 0.0, 0.0018, 0.0, 22.5)" gradientUnits="userSpaceOnUse" id="gradient6" spreadMethod="pad" x1="-819.2" x2="819.2">
      <stop offset="0.0" stop-color="#6a6a6a"/>
      <stop offset="0.49411764705882355" stop-color="#adadad"/>
      <stop offset="1.0" stop-color="#6d6d6d"/>
    </linearGradient>
    <linearGradient gradientTransform="matrix(0.0195, 0.0, 0.0, 0.0018, 0.0, 5.5)" gradientUnits="userSpaceOnUse" id="gradient7" spreadMethod="pad" x1="-819.2" x2="819.2">
      <stop offset="0.0" stop-color="#7b7b7b"/>
      <stop offset="0.4549019607843137" stop-color="#d8d8d8"/>
      <stop offset="0.6039215686274509" stop-color="#d8d8d8"/>
      <stop offset="1.0" stop-color="#7b7b7b"/>
    </linearGradient>
  </defs>
</svg>
