<?xml version="1.0" encoding="UTF-8" standalone="no"?>
<svg xmlns:xlink="http://www.w3.org/1999/xlink" height="95.25px" width="121.15px" xmlns="http://www.w3.org/2000/svg">
  <g transform="matrix(1.0, 0.0, 0.0, 1.0, 65.9, 44.4)">
    <path d="M5.15 -38.3 Q13.2 -44.4 23.8 -44.4 36.9 -44.4 46.05 -35.2 55.25 -26.0 55.25 -12.95 55.25 -7.6 54.3 -3.35 L52.75 2.3 52.7 2.4 51.0 7.4 50.95 7.55 48.1 14.25 Q41.7 27.7 24.9 39.15 11.3 48.4 0.7 50.8 L-0.65 50.8 Q-11.3 48.4 -24.9 39.15 L-24.85 39.15 Q-31.95 34.3 -37.15 29.2 L-39.15 32.6 Q-39.75 33.7 -40.95 34.0 -42.15 34.35 -43.25 33.7 -44.35 33.05 -44.65 31.9 L-46.15 26.2 -46.9 26.45 -46.95 26.45 -49.4 27.1 -49.45 27.15 -51.9 27.75 Q-53.1 28.0 -54.15 27.4 -55.25 26.75 -55.55 25.55 -55.85 24.35 -55.25 23.3 L-48.95 12.45 -49.75 10.45 -55.3 9.7 -55.4 9.65 Q-56.95 9.3 -58.9 8.05 -60.95 6.7 -62.0 5.4 L-62.5 4.35 -65.8 -7.95 Q-66.05 -8.95 -65.65 -9.9 -60.5 -21.75 -48.2 -24.0 L-47.85 -25.0 -47.8 -25.15 Q-45.6 -30.6 -41.0 -35.2 -31.9 -44.4 -18.8 -44.4 -7.25 -44.4 1.3 -37.2 L5.15 -38.3" fill="#000000" fill-rule="evenodd" stroke="none"/>
    <path d="M2.5 -31.85 L3.65 -33.1 Q12.0 -41.4 23.8 -41.4 35.65 -41.4 43.9 -33.1 52.25 -24.75 52.25 -12.95 52.25 -8.0 51.35 -4.05 L49.9 1.3 48.05 5.6 Q41.95 18.4 25.75 29.25 12.7 38.0 2.5 40.35 -7.65 38.05 -20.7 29.15 -36.75 18.25 -42.9 5.45 -45.4 0.3 -46.35 -4.05 -47.25 -8.0 -47.25 -12.95 -47.25 -15.65 -46.8 -18.15 L-46.05 -21.5 -45.05 -24.05 Q-43.05 -28.95 -38.9 -33.1 -30.65 -41.4 -18.8 -41.4 -7.0 -41.4 1.35 -33.1 L2.5 -31.85" fill="url(#gradient0)" fill-rule="evenodd" stroke="none"/>
    <path d="M-48.5 -14.05 L-46.05 -21.5 -46.8 -18.15 Q-47.25 -15.65 -47.25 -12.95 -47.25 -8.0 -46.35 -4.05 -45.4 0.3 -42.9 5.45 -36.75 18.25 -20.7 29.15 -7.65 38.05 2.5 40.35 12.7 38.0 25.75 29.25 41.95 18.4 48.05 5.6 L49.9 1.3 48.15 6.45 45.4 12.95 Q39.25 25.75 23.2 36.65 10.15 45.55 0.0 47.85 -10.15 45.55 -23.2 36.65 -39.25 25.75 -45.4 12.95 -47.9 7.8 -48.85 3.45 -49.75 -0.5 -49.75 -5.45 -49.75 -10.0 -48.5 -14.05" fill="url(#gradient1)" fill-rule="evenodd" stroke="none"/>
  </g>
  <defs>
    <linearGradient gradientTransform="matrix(0.0233, 0.0451, -0.0443, 0.0228, -2.25, -0.5)" gradientUnits="userSpaceOnUse" id="gradient0" spreadMethod="pad" x1="-819.2" x2="819.2">
      <stop offset="0.0" stop-color="#e71f1f"/>
      <stop offset="1.0" stop-color="#9c1414"/>
    </linearGradient>
    <linearGradient gradientTransform="matrix(0.0131, 0.049, -0.0408, 0.0109, -2.5, 7.3)" gradientUnits="userSpaceOnUse" id="gradient1" spreadMethod="pad" x1="-819.2" x2="819.2">
      <stop offset="0.0" stop-color="#b01c1c"/>
      <stop offset="1.0" stop-color="#791313"/>
    </linearGradient>
  </defs>
</svg>
