<?xml version="1.0" encoding="UTF-8" standalone="no"?>
<svg xmlns:xlink="http://www.w3.org/1999/xlink" height="81.75px" width="99.5px" xmlns="http://www.w3.org/2000/svg">
  <g transform="matrix(1.0, 0.0, 0.0, 1.0, 47.25, 41.4)">
    <path d="M2.5 -31.85 L3.65 -33.1 Q12.0 -41.4 23.8 -41.4 35.65 -41.4 43.9 -33.1 52.25 -24.75 52.25 -12.95 52.25 -8.0 51.35 -4.05 L49.9 1.3 48.05 5.6 Q41.95 18.4 25.75 29.25 12.7 38.0 2.5 40.35 -7.65 38.05 -20.7 29.15 -36.75 18.25 -42.9 5.45 -45.4 0.3 -46.35 -4.05 -47.25 -8.0 -47.25 -12.95 -47.25 -15.65 -46.8 -18.15 L-46.05 -21.5 -45.05 -24.05 Q-43.05 -28.95 -38.9 -33.1 -30.65 -41.4 -18.8 -41.4 -7.0 -41.4 1.35 -33.1 L2.5 -31.85" fill="#e3bd4d" fill-rule="evenodd" stroke="none"/>
  </g>
</svg>
