<?xml version="1.0" encoding="UTF-8" standalone="no"?>
<svg xmlns:xlink="http://www.w3.org/1999/xlink" height="96.2px" width="89.25px" xmlns="http://www.w3.org/2000/svg">
  <g transform="matrix(1.0, 0.0, 0.0, 1.0, -17.35, -10.9)">
    <path d="M90.95 19.8 L94.95 21.0 Q95.55 21.25 95.2 22.8 94.85 24.35 94.2 24.15 L89.95 23.05 89.1 24.05 Q87.3 25.9 84.7 25.9 82.15 25.9 80.3 24.05 78.95 22.7 78.65 20.95 L75.45 20.5 Q65.75 19.45 58.65 20.4 52.15 21.25 47.35 22.9 41.55 24.9 37.0 28.35 25.3 37.4 23.4 52.0 22.55 58.5 23.9 64.45 24.0 57.75 26.2 51.9 28.9 42.85 36.05 35.7 43.85 27.85 53.9 25.45 58.55 24.3 63.55 24.3 79.7 24.3 91.05 35.7 L93.75 38.65 Q102.15 47.6 103.75 59.4 104.1 62.2 104.1 65.05 104.1 81.2 92.7 92.55 84.6 100.65 74.05 103.0 68.7 104.6 62.75 104.6 46.65 104.6 35.2 93.15 32.7 90.65 30.8 87.95 L29.05 88.25 Q28.35 88.25 27.7 87.65 L27.65 87.6 Q27.05 87.0 27.05 86.15 L27.1 85.55 26.4 85.05 26.35 85.0 Q25.8 84.4 25.8 83.55 L25.8 83.5 25.9 83.05 Q25.15 82.9 24.65 82.3 L24.6 82.3 Q24.1 81.65 24.1 80.8 L24.1 80.75 Q24.2 79.9 24.85 79.35 L24.9 79.3 25.9 78.5 25.3 76.4 Q18.45 65.1 20.2 51.55 22.25 35.65 35.05 25.8 44.5 18.55 58.65 17.15 66.45 16.35 75.95 17.2 L78.85 17.5 Q79.3 16.25 80.3 15.2 82.15 13.4 84.7 13.4 87.3 13.4 89.1 15.2 90.95 17.05 90.95 19.6 L90.95 19.8 M98.45 65.65 Q98.45 71.1 97.05 75.95 94.45 82.85 88.8 88.45 78.4 98.9 63.55 98.9 48.8 98.9 38.35 88.45 L37.7 87.85 36.0 85.65 36.4 85.3 Q37.0 84.7 37.05 83.9 37.15 83.05 36.6 82.35 L36.55 82.25 Q35.95 81.7 35.15 81.6 L35.05 81.6 34.3 81.7 34.9 80.75 34.9 80.65 Q35.05 79.7 34.6 79.0 34.05 78.25 33.35 78.15 L33.4 78.05 Q33.85 77.3 33.6 76.45 L33.5 76.3 Q33.15 75.5 32.45 75.15 L30.85 75.1 Q29.5 70.4 29.5 65.05 29.5 50.25 39.95 39.85 46.55 33.25 54.8 30.85 58.6 29.95 62.75 29.95 77.55 29.95 88.0 40.4 96.4 48.85 98.05 60.05 98.45 62.75 98.45 65.65" fill="none" stroke="#000000" stroke-linecap="round" stroke-linejoin="round" stroke-width="5.0"/>
    <path d="M90.25 93.15 Q78.85 104.6 62.75 104.6 46.65 104.6 35.2 93.15 23.85 81.75 23.85 65.65 23.85 49.55 35.2 38.1 43.35 30.0 53.9 27.7 58.15 26.75 62.75 26.75 78.85 26.75 90.25 38.1 99.6 47.5 101.35 60.05 101.7 62.8 101.7 65.65 101.7 81.75 90.25 93.15 M88.0 90.9 Q98.45 80.45 98.45 65.65 98.45 62.75 98.05 60.05 96.4 48.85 88.0 40.4 77.55 29.95 62.75 29.95 58.15 29.95 53.9 31.05 44.7 33.25 37.5 40.4 27.1 50.9 27.1 65.65 27.1 80.45 37.5 90.9 48.0 101.35 62.75 101.35 77.55 101.35 88.0 90.9" fill="url(#gradient0)" fill-rule="evenodd" stroke="none"/>
    <path d="M92.7 92.55 Q81.3 103.95 65.2 103.95 49.1 103.95 37.65 92.55 26.25 81.2 26.25 65.05 26.25 48.9 37.65 37.55 45.8 29.45 56.35 27.05 60.55 26.15 65.2 26.15 81.3 26.15 92.7 37.55 102.05 46.85 103.75 59.4 104.1 62.2 104.1 65.05 104.1 81.2 92.7 92.55 M90.45 90.25 Q100.9 79.85 100.9 65.05 100.9 62.15 100.45 59.4 98.8 48.2 90.45 39.85 80.0 29.4 65.2 29.4 60.55 29.4 56.35 30.4 47.15 32.65 39.95 39.85 29.5 50.25 29.5 65.05 29.5 79.85 39.95 90.25 50.45 100.7 65.2 100.7 80.0 100.7 90.45 90.25" fill="url(#gradient1)" fill-rule="evenodd" stroke="none"/>
    <path d="M102.5 63.25 Q102.5 79.35 91.05 90.7 79.7 102.15 63.55 102.15 47.45 102.15 36.05 90.7 24.65 79.35 24.65 63.25 24.65 47.1 36.05 35.7 43.85 27.85 53.9 25.45 58.55 24.3 63.55 24.3 79.7 24.3 91.05 35.7 100.35 44.95 102.1 57.35 102.5 60.2 102.5 63.25 M99.25 63.25 L99.1 60.05 Q98.15 47.3 88.8 38.0 78.4 27.55 63.55 27.55 58.5 27.55 53.9 28.8 45.15 31.15 38.35 38.0 27.9 48.45 27.9 63.25 27.9 78.05 38.35 88.45 48.8 98.9 63.55 98.9 78.4 98.9 88.8 88.45 99.25 78.05 99.25 63.25" fill="url(#gradient2)" fill-rule="evenodd" stroke="none"/>
    <path d="M94.2 24.15 Q84.95 21.55 75.45 20.5 65.75 19.45 58.65 20.4 52.15 21.25 47.35 22.9 41.55 24.9 37.0 28.35 25.3 37.4 23.4 52.0 21.5 66.65 30.5 78.35 L32.15 80.35 29.55 82.25 27.95 80.35 Q18.1 67.55 20.2 51.55 22.25 35.65 35.05 25.8 44.5 18.55 58.65 17.15 66.45 16.35 75.95 17.2 86.85 18.2 94.95 21.0 95.55 21.25 95.2 22.8 94.85 24.35 94.2 24.15" fill="url(#gradient3)" fill-rule="evenodd" stroke="none"/>
    <path d="M35.2 83.5 L35.0 83.4 34.75 83.5 34.7 83.6 32.1 84.85 29.25 85.8 29.15 85.8 28.9 85.95 28.85 86.15 28.9 86.35 28.9 86.3 29.15 86.45 29.3 86.45 32.4 85.35 35.15 84.0 35.2 84.0 35.25 83.7 35.2 83.5 M32.85 79.9 L32.65 79.9 Q29.05 82.15 27.75 83.35 L27.75 83.4 27.6 83.65 27.7 83.85 28.0 83.95 28.15 83.9 Q29.35 82.75 32.95 80.45 L32.95 80.5 33.15 80.25 33.1 80.0 33.1 80.05 32.95 79.9 32.85 79.9 M31.85 77.0 L31.6 76.75 31.5 76.75 31.35 76.8 Q30.65 77.1 28.45 78.8 L28.3 78.95 26.05 80.75 25.9 80.9 26.05 81.2 26.25 81.25 26.45 81.2 26.5 81.15 28.65 79.45 28.85 79.3 Q30.85 77.65 31.6 77.4 L31.8 77.2 31.85 77.2 31.85 77.0 M33.5 76.3 L33.6 76.45 Q33.85 77.3 33.4 78.05 L33.35 78.15 Q34.05 78.25 34.6 79.0 35.05 79.7 34.9 80.65 L34.9 80.75 34.3 81.7 35.05 81.6 35.15 81.6 Q35.95 81.7 36.55 82.25 L36.6 82.35 Q37.15 83.05 37.05 83.9 37.0 84.7 36.4 85.3 35.95 85.75 33.1 87.05 29.85 88.45 29.05 88.25 28.35 88.25 27.7 87.65 L27.65 87.6 Q27.05 87.0 27.05 86.15 L27.1 85.55 26.4 85.05 26.35 85.0 Q25.8 84.4 25.8 83.55 L25.8 83.5 25.9 83.05 Q25.15 82.9 24.65 82.3 L24.6 82.3 Q24.1 81.65 24.1 80.8 L24.1 80.75 Q24.2 79.9 24.85 79.35 L24.9 79.3 27.05 77.65 27.2 77.45 Q29.85 75.4 30.8 75.1 L32.45 75.15 Q33.15 75.5 33.5 76.3" fill="#95a3b0" fill-rule="evenodd" stroke="none"/>
    <path d="M34.15 82.85 Q34.5 82.5 35.05 82.5 35.55 82.55 35.9 82.9 L36.15 83.8 35.75 84.65 Q35.35 85.0 32.75 86.2 29.85 87.45 29.15 87.35 28.7 87.35 28.3 87.0 27.95 86.65 27.95 86.15 27.95 85.7 28.3 85.3 28.7 84.9 29.15 84.9 L31.75 83.95 34.15 82.85 M33.05 79.0 L33.85 79.5 Q34.1 79.9 34.0 80.45 L33.45 81.25 28.75 84.55 Q28.4 84.85 27.9 84.85 27.4 84.8 27.05 84.4 26.7 84.05 26.7 83.55 26.75 83.05 27.1 82.7 28.45 81.5 32.15 79.15 L33.05 79.0 M32.6 77.6 L31.9 78.25 Q31.2 78.5 29.25 80.1 L29.2 80.1 27.05 81.85 26.2 82.15 Q25.65 82.1 25.3 81.7 25.0 81.3 25.0 80.8 25.05 80.35 25.45 80.0 L27.75 78.2 27.75 78.15 31.1 75.95 Q31.6 75.75 32.05 75.95 L32.7 76.7 Q32.85 77.2 32.6 77.6" fill="url(#gradient4)" fill-rule="evenodd" stroke="none"/>
    <path d="M89.1 24.05 Q87.3 25.9 84.7 25.9 82.15 25.9 80.3 24.05 78.5 22.25 78.5 19.6 78.5 17.05 80.3 15.2 82.15 13.4 84.7 13.4 87.3 13.4 89.1 15.2 90.95 17.05 90.95 19.6 90.95 22.25 89.1 24.05" fill="url(#gradient5)" fill-rule="evenodd" stroke="none"/>
  </g>
  <defs>
    <radialGradient cx="0" cy="0" gradientTransform="matrix(0.0478, 0.0, 0.0, 0.0478, 62.75, 65.65)" gradientUnits="userSpaceOnUse" id="gradient0" r="819.2" spreadMethod="pad">
      <stop offset="0.0" stop-color="#e7eced"/>
      <stop offset="1.0" stop-color="#9299a5"/>
    </radialGradient>
    <linearGradient gradientTransform="matrix(0.0475, 0.0, 0.0, 0.0475, 65.2, 65.05)" gradientUnits="userSpaceOnUse" id="gradient1" spreadMethod="pad" x1="-819.2" x2="819.2">
      <stop offset="0.0" stop-color="#dae0e4"/>
      <stop offset="1.0" stop-color="#707887"/>
    </linearGradient>
    <radialGradient cx="0" cy="0" gradientTransform="matrix(0.0478, 0.0, 0.0, 0.0478, 63.55, 63.25)" gradientUnits="userSpaceOnUse" id="gradient2" r="819.2" spreadMethod="pad">
      <stop offset="0.0" stop-color="#d3d3e2"/>
      <stop offset="1.0" stop-color="#b6c1c9"/>
    </radialGradient>
    <linearGradient gradientTransform="matrix(0.0461, 0.0, 0.0, 0.04, 57.6, 49.5)" gradientUnits="userSpaceOnUse" id="gradient3" spreadMethod="pad" x1="-819.2" x2="819.2">
      <stop offset="0.0" stop-color="#bdc8c8"/>
      <stop offset="1.0" stop-color="#dcdde2"/>
    </linearGradient>
    <linearGradient gradientTransform="matrix(0.0046, -0.0027, 0.0019, 0.0033, 28.9, 79.0)" gradientUnits="userSpaceOnUse" id="gradient4" spreadMethod="pad" x1="-819.2" x2="819.2">
      <stop offset="0.0" stop-color="#95a8b0"/>
      <stop offset="0.20784313725490197" stop-color="#b5c6ca"/>
      <stop offset="0.5176470588235295" stop-color="#e1e1ea"/>
      <stop offset="0.8274509803921568" stop-color="#b5c6ca"/>
      <stop offset="1.0" stop-color="#95a8b0"/>
    </linearGradient>
    <radialGradient cx="0" cy="0" gradientTransform="matrix(0.0085, 0.0, 0.0, 0.0085, 84.85, 18.7)" gradientUnits="userSpaceOnUse" id="gradient5" r="819.2" spreadMethod="pad">
      <stop offset="0.10196078431372549" stop-color="#66b8ee"/>
      <stop offset="0.6666666666666666" stop-color="#1363ce"/>
      <stop offset="1.0" stop-color="#153080"/>
    </radialGradient>
  </defs>
</svg>
