<?xml version="1.0" encoding="UTF-8" standalone="no"?>
<svg xmlns:xlink="http://www.w3.org/1999/xlink" height="123.0px" width="28.0px" xmlns="http://www.w3.org/2000/svg">
  <g transform="matrix(1.0, 0.0, 0.0, 1.0, 14.0, 60.0)">
    <path d="M7.0 24.0 Q7.0 41.35 5.35 55.0 L-5.35 55.0 Q-7.0 40.75 -7.0 24.0 L-7.0 20.0 7.0 20.0 7.0 24.0" fill="url(#gradient0)" fill-rule="evenodd" stroke="none"/>
    <path d="M0.0 22.0 L5.0 22.0 Q4.9 29.0 4.25 34.15 3.55 40.0 2.5 40.0 1.45 40.0 0.7 34.15 0.1 29.0 0.0 22.0" fill="url(#gradient1)" fill-rule="evenodd" stroke="none"/>
    <path d="M0.0 -60.0 Q2.65 -57.65 5.15 -51.0 7.3 -45.4 8.45 -39.2 9.85 -31.65 10.75 -15.1 L12.0 13.1 0.0 13.1 0.0 -60.0" fill="url(#gradient2)" fill-rule="evenodd" stroke="none"/>
    <path d="M0.0 13.1 L-12.0 13.1 -10.75 -15.1 Q-9.85 -31.65 -8.45 -39.2 -7.3 -45.4 -5.15 -51.0 -2.65 -57.65 0.0 -60.0 L0.0 13.1" fill="url(#gradient3)" fill-rule="evenodd" stroke="none"/>
    <path d="M10.0 20.0 L10.0 13.0 14.0 13.0 14.0 17.0 12.0 20.0 10.0 20.0 M-10.0 13.0 L-10.0 20.0 -12.0 20.0 -14.0 17.0 -14.0 13.0 -10.0 13.0" fill="#946f2c" fill-rule="evenodd" stroke="none"/>
    <path d="M10.0 13.0 L10.0 20.0 0.0 20.0 -10.0 20.0 -10.0 13.0 0.0 13.0 10.0 13.0" fill="url(#gradient4)" fill-rule="evenodd" stroke="none"/>
    <path d="M6.0 63.0 L0.0 63.0 -6.0 63.0 Q-6.0 57.55 -5.25 55.0 L0.0 55.0 5.25 55.0 Q6.0 57.55 6.0 63.0" fill="url(#gradient5)" fill-rule="evenodd" stroke="none"/>
    <path d="M7.0 22.0 L-7.0 22.0 -7.0 20.0 7.0 20.0 7.0 22.0" fill="#202020" fill-opacity="0.34117648" fill-rule="evenodd" stroke="none"/>
  </g>
  <defs>
    <linearGradient gradientTransform="matrix(-0.0085, 0.0, -1.0E-4, -0.0214, 0.0, 37.5)" gradientUnits="userSpaceOnUse" id="gradient0" spreadMethod="pad" x1="-819.2" x2="819.2">
      <stop offset="0.0" stop-color="#586e79"/>
      <stop offset="0.34509803921568627" stop-color="#94a4ae"/>
      <stop offset="0.8392156862745098" stop-color="#384f50"/>
    </linearGradient>
    <radialGradient cx="0" cy="0" gradientTransform="matrix(0.0027, 0.0, 0.0, 0.0225, 2.5, 18.0)" gradientUnits="userSpaceOnUse" id="gradient1" r="819.2" spreadMethod="pad">
      <stop offset="0.13333333333333333" stop-color="#ffffff"/>
      <stop offset="1.0" stop-color="#8f9fa9" stop-opacity="0.0"/>
    </radialGradient>
    <linearGradient gradientTransform="matrix(0.0, 0.0471, -0.0446, 0.0, 6.0, -22.0)" gradientUnits="userSpaceOnUse" id="gradient2" spreadMethod="pad" x1="-819.2" x2="819.2">
      <stop offset="0.0" stop-color="#8c7241"/>
      <stop offset="0.5254901960784314" stop-color="#ffffff"/>
      <stop offset="1.0" stop-color="#a79454"/>
    </linearGradient>
    <linearGradient gradientTransform="matrix(0.0, -0.0446, 0.0446, 0.0, -6.0, -23.45)" gradientUnits="userSpaceOnUse" id="gradient3" spreadMethod="pad" x1="-819.2" x2="819.2">
      <stop offset="0.0" stop-color="#a69452"/>
      <stop offset="1.0" stop-color="#846835"/>
    </linearGradient>
    <linearGradient gradientTransform="matrix(-0.0061, 0.0099, -0.0036, -0.0022, 0.0, 16.5)" gradientUnits="userSpaceOnUse" id="gradient4" spreadMethod="pad" x1="-819.2" x2="819.2">
      <stop offset="0.0" stop-color="#c8a53f"/>
      <stop offset="1.0" stop-color="#96742d"/>
    </linearGradient>
    <linearGradient gradientTransform="matrix(-0.0073, 0.0, 0.0, -0.0049, 0.0, 59.0)" gradientUnits="userSpaceOnUse" id="gradient5" spreadMethod="pad" x1="-819.2" x2="819.2">
      <stop offset="0.0" stop-color="#ac8c34"/>
      <stop offset="0.3058823529411765" stop-color="#cba840"/>
      <stop offset="1.0" stop-color="#7f6227"/>
    </linearGradient>
  </defs>
</svg>
