<?xml version="1.0" encoding="UTF-8" standalone="no"?>
<svg xmlns:xlink="http://www.w3.org/1999/xlink" height="234.95px" width="233.1px" xmlns="http://www.w3.org/2000/svg">
  <g transform="matrix(1.0, 0.0, 0.0, 1.0, 116.55, 117.45)">
    <path d="M2.7 -100.95 Q4.45 -84.95 5.75 -74.4 L6.3 -70.05 Q11.25 -30.65 17.5 -20.45 L19.0 -18.45 Q25.9 -11.25 69.55 -5.5 L71.0 -5.3 100.4 -1.95 114.3 -0.35 116.55 0.0 100.3 1.85 75.2 4.5 69.55 5.25 Q30.1 10.3 20.5 17.2 L18.85 18.65 Q11.9 26.35 6.35 70.2 L6.1 72.05 Q4.75 83.1 2.75 101.05 1.4 112.7 0.4 116.4 L0.0 117.5 Q-1.1 115.15 -2.7 100.8 -4.4 84.95 -5.65 74.5 L-6.25 69.8 Q-11.05 31.0 -17.4 20.7 -18.2 19.35 -19.1 18.45 -26.25 11.4 -66.95 6.1 L-70.4 5.65 -101.3 2.15 -115.95 0.15 -116.55 0.0 -101.3 -2.15 -70.3 -5.7 -69.35 -5.8 Q-30.0 -10.75 -20.45 -17.4 -19.55 -18.0 -18.95 -18.65 -11.55 -26.05 -6.2 -69.95 L-6.05 -71.4 Q-4.65 -82.45 -2.7 -100.85 -1.5 -111.6 -0.55 -115.7 L0.0 -117.45 Q1.1 -115.2 2.7 -100.95" fill="url(#gradient0)" fill-rule="evenodd" stroke="none"/>
  </g>
  <defs>
    <radialGradient cx="0" cy="0" gradientTransform="matrix(0.1439, 0.0, 0.0, 0.1439, 0.0, 0.05)" gradientUnits="userSpaceOnUse" id="gradient0" r="819.2" spreadMethod="pad">
      <stop offset="0.5882352941176471" stop-color="#ffffff"/>
      <stop offset="0.792156862745098" stop-color="#fee781"/>
      <stop offset="1.0" stop-color="#a5e7fc"/>
    </radialGradient>
  </defs>
</svg>
