<?xml version="1.0" encoding="UTF-8" standalone="no"?>
<svg xmlns:xlink="http://www.w3.org/1999/xlink" height="418.0px" width="418.0px" xmlns="http://www.w3.org/2000/svg">
  <g transform="matrix(1.0, 0.0, 0.0, 1.0, 209.0, 209.0)">
    <path d="M-63.3 -198.65 Q-33.6 -208.0 0.0 -208.0 20.75 -208.0 40.0 -204.45 M127.45 -164.55 Q137.55 -156.55 147.05 -147.05 161.0 -133.1 171.75 -117.85 M-183.25 -99.45 Q-180.15 -105.05 -176.65 -110.5 -164.3 -129.85 -147.05 -147.05 -122.8 -171.3 -94.55 -185.8 M-133.2 159.85 Q-140.3 153.8 -147.05 147.05 -159.4 134.7 -169.25 121.3 M-180.75 103.95 Q-208.0 57.6 -208.0 0.0 -208.0 -20.85 -204.4 -40.25 M198.55 -64.0 Q208.0 -33.95 208.0 0.0 208.0 43.35 192.6 80.3 M175.85 111.85 Q163.75 130.4 147.05 147.05 L143.0 151.0 Q125.95 167.3 106.95 178.95 M63.4 198.75 Q33.6 208.0 0.0 208.0 -57.5 208.0 -103.7 180.9" fill="none" stroke="#7cbbfa" stroke-linecap="round" stroke-linejoin="round" stroke-opacity="0.5019608" stroke-width="2.0"/>
  </g>
</svg>
