<?xml version="1.0" encoding="UTF-8" standalone="no"?>
<svg xmlns:xlink="http://www.w3.org/1999/xlink" height="231.0px" width="206.0px" xmlns="http://www.w3.org/2000/svg">
  <g transform="matrix(1.0, 0.0, 0.0, 1.0, -50.45, 230.5)">
    <path d="M230.9 -204.0 Q233.5 -208.2 234.7 -211.0 L239.2 -219.7 Q242.5 -226.0 243.7 -230.0 246.9 -212.85 248.65 -187.9 249.75 -172.1 249.95 -161.95 251.6 -163.7 255.6 -167.05 L255.95 -153.0 Q255.95 -110.35 242.95 -50.6 236.5 -21.0 230.25 0.0 L50.95 0.0 62.0 -9.95 Q74.3 -20.95 77.95 -25.5 L86.2 -35.3 93.95 -44.5 101.15 -53.6 105.3 -59.6 106.1 -57.7 108.35 -52.7 Q124.3 -68.45 143.95 -97.15 163.5 -125.75 173.6 -147.75 174.9 -141.4 176.2 -137.55 177.75 -133.05 179.7 -130.75 193.25 -147.05 204.65 -166.25 217.6 -188.05 225.25 -209.5 L226.95 -197.55 230.9 -204.0" fill="#ffffff" fill-rule="evenodd" stroke="none"/>
    <path d="M230.9 -204.0 L226.95 -197.55 225.25 -209.5 Q217.6 -188.05 204.65 -166.25 193.25 -147.05 179.7 -130.75 177.75 -133.05 176.2 -137.55 174.9 -141.4 173.6 -147.75 163.5 -125.75 143.95 -97.15 124.3 -68.45 108.35 -52.7 L106.1 -57.7 105.3 -59.6 101.15 -53.6 93.95 -44.5 86.2 -35.3 77.95 -25.5 Q74.3 -20.95 62.0 -9.95 L50.95 0.0 230.25 0.0 Q236.5 -21.0 242.95 -50.6 255.95 -110.35 255.95 -153.0 L255.6 -167.05 Q251.6 -163.7 249.95 -161.95 249.75 -172.1 248.65 -187.9 246.9 -212.85 243.7 -230.0 242.5 -226.0 239.2 -219.7 L234.7 -211.0 Q233.5 -208.2 230.9 -204.0 Z" fill="none" stroke="#996600" stroke-linecap="round" stroke-linejoin="round" stroke-width="1.0"/>
  </g>
</svg>
