<?xml version="1.0" encoding="UTF-8" standalone="no"?>
<svg xmlns:xlink="http://www.w3.org/1999/xlink" height="190.9px" width="159.4px" xmlns="http://www.w3.org/2000/svg">
  <g transform="matrix(1.0, 0.0, 0.0, 1.0, -108.0, 190.65)">
    <path d="M119.3 -8.95 Q126.05 -15.35 130.2 -22.6 150.35 -24.3 171.95 -47.05 180.9 -56.55 190.95 -70.6 L204.65 -90.7 Q204.8 -86.7 205.3 -80.85 217.0 -95.85 223.9 -106.55 233.6 -121.7 240.55 -138.0 241.6 -132.85 243.8 -129.4 246.85 -124.7 251.75 -123.9 L251.7 -122.65 Q251.7 -115.0 255.35 -106.75 257.75 -101.25 260.6 -97.75 L266.9 -105.3 Q265.1 -66.35 260.95 -38.3 257.25 -12.95 252.25 -0.25 L108.5 -0.25 Q114.9 -4.75 119.3 -8.95 M252.65 -190.15 Q256.0 -177.35 257.85 -162.0 L259.55 -144.15 256.1 -139.55 251.8 -134.3 Q251.25 -139.1 250.05 -142.3 248.35 -146.8 244.7 -151.5 L248.6 -167.3 Q251.65 -180.3 252.65 -190.15 M264.45 -128.15 Q264.45 -127.45 262.95 -126.5 L260.7 -125.0 258.3 -129.65 259.85 -132.65 261.95 -136.75 262.2 -137.0 Q262.5 -135.85 263.55 -132.6 264.45 -129.6 264.45 -128.15 M241.05 -158.85 L241.7 -156.0 239.05 -155.55 237.65 -155.05 236.2 -163.5 Q237.1 -162.5 240.7 -162.0 240.7 -160.9 241.05 -158.85" fill="#ffffff" fill-rule="evenodd" stroke="none"/>
    <path d="M119.3 -8.95 Q126.05 -15.35 130.2 -22.6 150.35 -24.3 171.95 -47.05 180.9 -56.55 190.95 -70.6 L204.65 -90.7 Q204.8 -86.7 205.3 -80.85 217.0 -95.85 223.9 -106.55 233.6 -121.7 240.55 -138.0 241.6 -132.85 243.8 -129.4 246.85 -124.7 251.75 -123.9 L251.7 -122.65 Q251.7 -115.0 255.35 -106.75 257.75 -101.25 260.6 -97.75 L266.9 -105.3 Q265.1 -66.35 260.95 -38.3 257.25 -12.95 252.25 -0.25 L108.5 -0.25 Q114.9 -4.75 119.3 -8.95 M252.65 -190.15 Q251.65 -180.3 248.6 -167.3 L244.7 -151.5 Q248.35 -146.8 250.05 -142.3 251.25 -139.1 251.8 -134.3 L256.1 -139.55 259.55 -144.15 257.85 -162.0 Q256.0 -177.35 252.65 -190.15 M264.45 -128.15 Q264.45 -127.45 262.95 -126.5 L260.7 -125.0 258.3 -129.65 259.85 -132.65 261.95 -136.75 262.2 -137.0 Q262.5 -135.85 263.55 -132.6 264.45 -129.6 264.45 -128.15 M241.05 -158.85 L241.7 -156.0 239.05 -155.55 237.65 -155.05 236.2 -163.5 Q237.1 -162.5 240.7 -162.0 240.7 -160.9 241.05 -158.85" fill="none" stroke="#996600" stroke-linecap="round" stroke-linejoin="round" stroke-width="1.0"/>
  </g>
</svg>
