<?xml version="1.0" encoding="UTF-8" standalone="no"?>
<svg xmlns:xlink="http://www.w3.org/1999/xlink" height="89.5px" width="61.25px" xmlns="http://www.w3.org/2000/svg">
  <g transform="matrix(1.0, 0.0, 0.0, 1.0, -212.6, 89.25)">
    <path d="M232.0 -79.35 L229.95 -80.65 231.0 -84.2 232.4 -88.75 240.05 -84.75 237.15 -82.05 Q234.85 -79.75 233.8 -78.25 L232.0 -79.35 M231.95 -36.2 L234.75 -41.3 238.25 -47.65 Q242.4 -44.7 252.45 -39.3 L252.2 -36.5 251.95 -31.25 252.0 -28.3 249.1 -28.5 242.95 -28.8 Q238.9 -28.7 236.3 -27.85 L233.95 -32.5 231.95 -36.2 M226.8 -9.15 Q233.55 -14.15 238.9 -20.05 247.6 -19.65 254.7 -23.0 259.5 -25.3 267.65 -31.8 271.65 -22.05 272.7 -13.35 273.0 -10.95 273.35 -0.25 L213.1 -0.25 Q221.9 -5.5 226.8 -9.15" fill="#ffffff" fill-rule="evenodd" stroke="none"/>
    <path d="M232.0 -79.35 L229.95 -80.65 231.0 -84.2 232.4 -88.75 240.05 -84.75 237.15 -82.05 Q234.85 -79.75 233.8 -78.25 L232.0 -79.35 M231.95 -36.2 L233.95 -32.5 236.3 -27.85 Q238.9 -28.7 242.95 -28.8 L249.1 -28.5 252.0 -28.3 251.95 -31.25 252.2 -36.5 252.45 -39.3 Q242.4 -44.7 238.25 -47.65 L234.75 -41.3 231.95 -36.2 M226.8 -9.15 Q233.55 -14.15 238.9 -20.05 247.6 -19.65 254.7 -23.0 259.5 -25.3 267.65 -31.8 271.65 -22.05 272.7 -13.35 273.0 -10.95 273.35 -0.25 L213.1 -0.25 Q221.9 -5.5 226.8 -9.15" fill="none" stroke="#996600" stroke-linecap="round" stroke-linejoin="round" stroke-width="1.0"/>
  </g>
</svg>
