<?xml version="1.0" encoding="UTF-8" standalone="no"?>
<svg xmlns:xlink="http://www.w3.org/1999/xlink" height="8.4px" width="49.0px" xmlns="http://www.w3.org/2000/svg">
  <g transform="matrix(1.0, 0.0, 0.0, 1.0, 24.5, -33.4)">
    <path d="M-21.75 38.6 L-24.5 36.6 -21.1 36.5 -19.95 33.4 -18.85 36.5 -15.5 36.6 -18.15 38.6 -17.2 41.8 -19.95 39.9 -22.75 41.8 -21.75 38.6" fill="#ff0000" fill-rule="evenodd" stroke="none"/>
    <path d="M20.05 33.4 L21.15 36.5 24.5 36.6 21.85 38.6 22.8 41.8 20.05 39.9 17.25 41.8 18.25 38.6 15.55 36.6 18.9 36.5 20.05 33.4 M14.5 36.6 L11.85 38.6 12.8 41.8 10.05 39.9 7.25 41.8 8.25 38.6 5.55 36.6 8.9 36.5 10.05 33.4 11.15 36.5 14.5 36.6 M4.5 36.6 L1.85 38.6 2.8 41.8 0.05 39.9 -2.75 41.8 -1.75 38.6 -4.45 36.6 -1.1 36.5 0.05 33.4 1.15 36.5 4.5 36.6 M-5.5 36.6 L-8.15 38.6 -7.2 41.8 -9.95 39.9 -12.75 41.8 -11.75 38.6 -14.45 36.6 -11.1 36.5 -9.95 33.4 -8.85 36.5 -5.5 36.6" fill="#ffffff" fill-rule="evenodd" stroke="none"/>
  </g>
</svg>
