<?xml version="1.0" encoding="UTF-8" standalone="no"?>
<svg xmlns:xlink="http://www.w3.org/1999/xlink" height="9.4px" width="20.0px" xmlns="http://www.w3.org/2000/svg">
  <g transform="matrix(1.0, 0.0, 0.0, 1.0, 25.0, -32.9)">
    <path d="M-21.75 38.6 L-24.5 36.6 -21.1 36.5 -19.95 33.4 -18.85 36.5 -15.5 36.6 -18.15 38.6 -17.2 41.8 -19.95 39.9 -22.75 41.8 -21.75 38.6 M-5.5 36.6 L-8.15 38.6 -7.2 41.8 -9.95 39.9 -12.75 41.8 -11.75 38.6 -14.45 36.6 -11.1 36.5 -9.95 33.4 -8.85 36.5 -5.5 36.6" fill="none" stroke="#000000" stroke-linecap="round" stroke-linejoin="round" stroke-width="1.0"/>
    <path d="M-21.75 38.6 L-24.5 36.6 -21.1 36.5 -19.95 33.4 -18.85 36.5 -15.5 36.6 -18.15 38.6 -17.2 41.8 -19.95 39.9 -22.75 41.8 -21.75 38.6 M-5.5 36.6 L-8.15 38.6 -7.2 41.8 -9.95 39.9 -12.75 41.8 -11.75 38.6 -14.45 36.6 -11.1 36.5 -9.95 33.4 -8.85 36.5 -5.5 36.6" fill="#ffffff" fill-rule="evenodd" stroke="none"/>
  </g>
</svg>
