<?xml version="1.0" encoding="UTF-8" standalone="no"?>
<svg xmlns:xlink="http://www.w3.org/1999/xlink" height="109.05px" width="95.45px" xmlns="http://www.w3.org/2000/svg">
  <g transform="matrix(1.0, 0.0, 0.0, 1.0, 52.05, 70.0)">
    <path d="M-10.2 -12.2 L-15.15 -9.5 Q-17.05 -16.85 -17.05 -24.1 -17.05 -28.15 -16.5 -31.2 L-12.9 -32.9 -13.05 -28.1 Q-13.05 -20.2 -10.2 -12.2 M35.1 37.5 L34.9 35.9 34.8 33.7 Q34.8 31.55 35.6 29.7 36.2 28.2 37.65 27.3 L39.55 27.3 41.3 27.4 Q41.9 28.35 41.9 29.65 L41.7 32.4 40.95 35.1 Q40.4 36.7 39.55 37.05 L35.1 37.5" fill="#2db571" fill-rule="evenodd" stroke="none"/>
    <path d="M-15.15 -9.5 L-10.2 -12.2 Q-7.5 -4.85 -3.0 1.85 1.25 8.15 5.95 12.3 15.4 20.55 23.65 23.95 29.95 26.55 37.65 27.3 36.2 28.2 35.6 29.7 34.8 31.55 34.8 33.7 L34.9 35.9 35.1 37.5 Q21.45 36.35 6.5 23.35 -9.85 9.15 -15.15 -9.5" fill="#66ff66" fill-rule="evenodd" stroke="none"/>
    <path d="M-10.2 -12.2 Q-13.05 -20.2 -13.05 -28.1 L-12.9 -32.9 -16.5 -31.2 Q-17.05 -28.15 -17.05 -24.1 -17.05 -16.85 -15.15 -9.5 -9.85 9.15 6.5 23.35 21.45 36.35 35.1 37.5 M37.65 27.3 Q29.95 26.55 23.65 23.95 15.4 20.55 5.95 12.3 1.25 8.15 -3.0 1.85 -7.5 -4.85 -10.2 -12.2 M37.65 27.3 L39.55 27.3 41.3 27.4 Q41.9 28.35 41.9 29.65 L41.7 32.4 40.95 35.1 Q40.4 36.7 39.55 37.05 L35.1 37.5" fill="none" stroke="#006633" stroke-linecap="round" stroke-linejoin="round" stroke-width="3.0"/>
    <path d="M-17.15 -29.55 Q-19.05 -27.6 -20.3 -26.75 -23.5 -24.45 -25.55 -23.65 -28.1 -22.7 -32.95 -22.25 -36.45 -21.95 -39.0 -22.95 -42.55 -24.35 -43.05 -28.0 -43.4 -30.45 -42.25 -32.15 -41.35 -33.5 -39.05 -35.0 -41.8 -34.15 -45.2 -34.3 -47.55 -34.4 -49.0 -36.1 -50.5 -37.8 -50.55 -40.75 -50.7 -49.1 -37.95 -49.0 L-36.1 -48.7 Q-40.3 -50.95 -40.3 -55.15 -40.3 -60.0 -34.8 -62.0 -31.45 -63.25 -26.7 -63.25 L-22.55 -62.9 Q-21.3 -62.6 -19.3 -61.5 -17.05 -65.65 -13.3 -67.25 -10.3 -68.5 -5.05 -68.5 -2.5 -68.5 -0.55 -67.5 1.95 -66.25 1.95 -63.9 1.95 -61.45 1.5 -60.6 L2.15 -61.25 3.9 -62.95 Q9.7 -68.0 16.8 -68.0 19.6 -68.0 21.35 -66.4 23.35 -64.55 22.7 -61.5 25.0 -62.85 27.2 -63.4 L31.95 -64.0 Q35.3 -64.0 37.7 -62.5 40.45 -60.8 40.45 -57.75 40.45 -53.8 34.05 -50.4 29.4 -47.95 25.45 -47.25 L20.6 -46.9 Q23.95 -46.65 26.8 -43.95 29.95 -40.95 29.95 -37.4 29.95 -33.6 26.95 -31.5 24.45 -29.75 20.95 -29.75 L17.75 -30.25 Q15.3 -30.9 13.3 -32.25 L13.5 -30.3 13.45 -28.5 Q13.45 -24.75 9.95 -22.0 6.7 -19.5 3.05 -19.5 -2.55 -19.5 -6.3 -23.75 -8.55 -26.3 -9.5 -29.7 L-5.65 -30.4 Q-0.55 -31.5 1.95 -32.75 7.0 -35.2 8.65 -37.0 11.85 -40.1 13.15 -41.9 15.35 -45.0 15.35 -49.1 15.35 -53.6 10.75 -55.7 7.1 -57.4 1.05 -57.4 -5.4 -57.4 -11.65 -56.05 -13.95 -55.55 -16.95 -54.3 L-21.1 -52.4 Q-26.25 -49.5 -27.85 -47.85 -30.55 -45.1 -30.55 -40.7 -30.55 -36.4 -26.45 -33.1 -22.4 -29.8 -17.15 -29.55 M-10.2 -33.45 L-10.3 -35.65 -10.25 -37.95 -13.2 -34.25 Q-16.85 -33.85 -20.05 -36.2 -23.35 -38.6 -23.35 -41.95 L-23.1 -44.15 -22.1 -46.05 -21.9 -46.25 Q-19.1 -49.65 -13.75 -51.7 -8.55 -53.7 -2.8 -53.7 1.4 -53.7 4.05 -51.7 6.85 -49.6 6.85 -46.0 6.85 -39.8 0.05 -36.3 -4.4 -34.0 -10.2 -33.45" fill="#66ff66" fill-rule="evenodd" stroke="none"/>
    <path d="M-9.5 -29.7 Q-10.05 -31.45 -10.2 -33.45 -4.4 -34.0 0.05 -36.3 6.85 -39.8 6.85 -46.0 6.85 -49.6 4.05 -51.7 1.4 -53.7 -2.8 -53.7 -8.55 -53.7 -13.75 -51.7 -19.1 -49.65 -21.9 -46.25 L-22.1 -46.05 -23.1 -44.15 -23.35 -41.95 Q-23.35 -38.6 -20.05 -36.2 -16.85 -33.85 -13.2 -34.25 L-17.15 -29.55 Q-22.4 -29.8 -26.45 -33.1 -30.55 -36.4 -30.55 -40.7 -30.55 -45.1 -27.85 -47.85 -26.25 -49.5 -21.1 -52.4 L-16.95 -54.3 Q-13.95 -55.55 -11.65 -56.05 -5.4 -57.4 1.05 -57.4 7.1 -57.4 10.75 -55.7 15.35 -53.6 15.35 -49.1 15.35 -45.0 13.15 -41.9 11.85 -40.1 8.65 -37.0 7.0 -35.2 1.95 -32.75 -0.55 -31.5 -5.65 -30.4 L-9.5 -29.7" fill="#c0fecf" fill-rule="evenodd" stroke="none"/>
    <path d="M-22.55 -62.9 Q-21.3 -62.6 -19.3 -61.5 -17.05 -65.65 -13.3 -67.25 -10.3 -68.5 -5.05 -68.5 -2.5 -68.5 -0.55 -67.5 1.95 -66.25 1.95 -63.9 1.95 -61.45 1.5 -60.6 L2.15 -61.25 3.9 -62.95 Q9.7 -68.0 16.8 -68.0 19.6 -68.0 21.35 -66.4 23.35 -64.55 22.7 -61.5 25.0 -62.85 27.2 -63.4 L31.95 -64.0 Q35.3 -64.0 37.7 -62.5 40.45 -60.8 40.45 -57.75 40.45 -53.8 34.05 -50.4 29.4 -47.95 25.45 -47.25 L20.6 -46.9 Q23.95 -46.65 26.8 -43.95 29.95 -40.95 29.95 -37.4 29.95 -33.6 26.95 -31.5 24.45 -29.75 20.95 -29.75 L17.75 -30.25 Q15.3 -30.9 13.3 -32.25 L13.5 -30.3 13.45 -28.5 Q13.45 -24.75 9.95 -22.0 6.7 -19.5 3.05 -19.5 -2.55 -19.5 -6.3 -23.75 -10.3 -28.25 -10.3 -35.65 L-10.35 -36.9 -10.25 -37.95 -15.2 -31.9 Q-18.5 -28.05 -20.3 -26.75 -23.5 -24.45 -25.55 -23.65 -28.1 -22.7 -32.95 -22.25 -36.45 -21.95 -39.0 -22.95 -42.55 -24.35 -43.05 -28.0 -43.4 -30.45 -42.25 -32.15 -41.35 -33.5 -39.05 -35.0 -41.8 -34.15 -45.2 -34.3 -47.55 -34.4 -49.0 -36.1 -50.5 -37.8 -50.55 -40.75 -50.6 -45.3 -47.35 -47.3 -44.5 -49.05 -38.65 -49.0 L-36.1 -48.7 Q-40.3 -50.95 -40.3 -55.15 -40.3 -60.0 -34.8 -62.0 -31.45 -63.25 -26.7 -63.25 L-22.55 -62.9 M-11.55 -46.25 L-18.05 -46.0 Q-27.5 -46.0 -32.3 -47.25 -34.0 -47.7 -35.35 -48.3 L-36.1 -48.7 M-9.3 -40.75 Q-9.7 -39.25 -10.25 -37.95 M-5.4 -49.25 L-3.55 -53.15 Q-1.3 -57.5 1.5 -60.6 M20.6 -46.9 L20.45 -46.9 12.7 -47.5 5.8 -47.45 -2.55 -46.3" fill="none" stroke="#006633" stroke-linecap="round" stroke-linejoin="round" stroke-width="3.0"/>
  </g>
</svg>
