<?xml version="1.0" encoding="UTF-8" standalone="no"?>
<svg xmlns:xlink="http://www.w3.org/1999/xlink" height="98.5px" width="89.0px" xmlns="http://www.w3.org/2000/svg">
  <g transform="matrix(1.0, 0.0, 0.0, 1.0, 44.5, 54.0)">
    <path d="M28.75 -53.2 L28.8 -53.15 Q29.7 -52.35 29.95 -51.15 L29.95 -51.05 Q30.15 -49.85 29.6 -48.8 L29.55 -48.75 23.4 -37.95 Q27.65 -35.3 31.5 -31.45 44.5 -18.45 44.5 0.0 44.5 18.45 31.5 31.5 18.45 44.5 0.0 44.5 -18.45 44.5 -31.45 31.5 -44.5 18.45 -44.5 0.0 -44.5 -18.45 -31.45 -31.45 -27.65 -35.3 -23.4 -37.95 L-29.55 -48.75 -29.55 -48.8 Q-30.15 -49.9 -29.95 -51.05 L-29.9 -51.15 Q-29.7 -52.35 -28.8 -53.15 L-28.7 -53.2 Q-27.75 -54.0 -26.5 -54.0 L26.5 -54.0 Q27.75 -54.0 28.75 -53.2 M20.45 -47.0 L-20.45 -47.0 -17.15 -41.2 Q-9.25 -44.5 0.0 -44.5 9.25 -44.5 17.15 -41.2 L20.45 -47.0" fill="#000000" fill-rule="evenodd" stroke="none"/>
    <path d="M18.5 -36.5 L26.5 -50.5 M-26.5 -50.5 L-18.5 -36.5" fill="none" stroke="url(#gradient0)" stroke-linecap="round" stroke-linejoin="round" stroke-width="2.0"/>
    <path d="M26.5 -50.5 L-26.5 -50.5" fill="none" stroke="url(#gradient1)" stroke-linecap="round" stroke-linejoin="round" stroke-width="2.0"/>
    <path d="M21.2 -21.25 Q12.45 -30.0 0.0 -30.0 -12.45 -30.0 -21.25 -21.25 -30.0 -12.45 -30.0 0.0 -30.0 12.45 -21.25 21.2 -12.45 30.0 0.0 30.0 12.45 30.0 21.2 21.2 30.0 12.45 30.0 0.0 30.0 -12.45 21.2 -21.25 M25.45 -25.45 Q36.0 -14.9 36.0 0.0 36.0 14.9 25.45 25.45 14.9 36.0 0.0 36.0 -14.9 36.0 -25.45 25.45 -36.0 14.9 -36.0 0.0 -36.0 -14.9 -25.45 -25.45 -14.9 -36.0 0.0 -36.0 14.9 -36.0 25.45 -25.45" fill="url(#gradient2)" fill-rule="evenodd" stroke="none"/>
  </g>
  <defs>
    <linearGradient gradientTransform="matrix(0.0, -0.0104, 0.0098, 0.0, 0.0, -43.5)" gradientUnits="userSpaceOnUse" id="gradient0" spreadMethod="pad" x1="-819.2" x2="819.2">
      <stop offset="0.22745098039215686" stop-color="#31253d"/>
      <stop offset="0.6" stop-color="#513e64"/>
      <stop offset="1.0" stop-color="#7b5bdb"/>
    </linearGradient>
    <linearGradient gradientTransform="matrix(0.0, -0.0104, 0.0098, 0.0, 0.0, -43.5)" gradientUnits="userSpaceOnUse" id="gradient1" spreadMethod="pad" x1="-819.2" x2="819.2">
      <stop offset="0.22745098039215686" stop-color="#31253d"/>
      <stop offset="0.6" stop-color="#513e64"/>
      <stop offset="0.8117647058823529" stop-color="#7b5bdb"/>
      <stop offset="1.0" stop-color="#342750"/>
    </linearGradient>
    <linearGradient gradientTransform="matrix(0.0, -0.0439, 0.0439, 0.0, 0.0, 0.0)" gradientUnits="userSpaceOnUse" id="gradient2" spreadMethod="pad" x1="-819.2" x2="819.2">
      <stop offset="0.0" stop-color="#473f38"/>
      <stop offset="0.5411764705882353" stop-color="#241f1c"/>
      <stop offset="1.0" stop-color="#26201a"/>
    </linearGradient>
  </defs>
</svg>
