<?xml version="1.0" encoding="UTF-8" standalone="no"?>
<svg xmlns:xlink="http://www.w3.org/1999/xlink" height="220.0px" width="194.0px" xmlns="http://www.w3.org/2000/svg">
  <g transform="matrix(1.0, 0.0, 0.0, 1.0, 3.0, 15.0)">
    <path d="M56.0 -3.0 L188.0 -3.0 Q191.0 -3.0 191.0 0.0 L191.0 202.0 Q191.0 205.0 188.0 205.0 L0.0 205.0 Q-3.0 205.0 -3.0 202.0 L-3.0 -12.0 Q-3.0 -15.0 0.0 -15.0 L53.0 -15.0 Q56.0 -15.0 56.0 -12.0 L56.0 -3.0 M186.0 1.0 L2.0 1.0 Q1.0 1.0 1.0 2.0 L1.0 200.0 Q1.0 201.0 2.0 201.0 L186.0 201.0 Q187.0 201.0 187.0 200.0 L187.0 2.0 Q187.0 1.0 186.0 1.0" fill="#000000" fill-rule="evenodd" stroke="none"/>
    <path d="M188.0 2.0 Q188.0 0.0 186.0 0.0 L2.0 0.0 Q0.0 0.0 0.0 2.0 L0.0 200.0 Q0.0 202.0 2.0 202.0 L186.0 202.0 Q188.0 202.0 188.0 200.0 L188.0 2.0 M53.0 -14.0 Q55.0 -14.0 55.0 -12.0 L55.0 -2.0 188.0 -2.0 Q190.0 -2.0 190.0 0.0 L190.0 202.0 Q190.0 204.0 188.0 204.0 L0.0 204.0 Q-2.0 204.0 -2.0 202.0 L-2.0 -12.0 Q-2.0 -14.0 0.0 -14.0 L53.0 -14.0" fill="#00ff00" fill-rule="evenodd" stroke="none"/>
  </g>
</svg>
