<?xml version="1.0" encoding="UTF-8" standalone="no"?>
<svg xmlns:xlink="http://www.w3.org/1999/xlink" height="100.4px" width="57.75px" xmlns="http://www.w3.org/2000/svg">
  <g transform="matrix(1.0, 0.0, 0.0, 1.0, -564.75, -78.9)">
    <path d="M622.5 146.5 Q622.5 149.95 620.4 152.65 L615.2 158.5 593.45 179.3 587.55 173.25 580.15 165.2 573.2 156.85 Q570.0 152.8 568.5 149.95 569.4 148.25 571.3 146.05 L575.7 141.15 581.05 135.75 586.45 130.45 574.8 116.2 Q573.6 114.7 572.5 112.5 571.4 110.35 571.4 108.7 571.4 107.05 573.0 105.4 L576.3 102.25 598.2 84.4 620.95 108.4 605.35 123.75 616.95 136.45 620.55 140.5 Q622.5 142.9 622.5 146.5 M588.9 100.6 L587.85 101.7 Q587.25 102.25 587.0 103.0 L600.75 118.45 602.8 116.7 Q603.6 115.75 603.6 114.7 603.6 113.75 601.8 111.45 600.0 109.0 597.65 106.5 L593.2 102.1 Q591.0 100.15 590.3 100.15 589.45 100.15 588.9 100.6 M588.1 139.35 Q586.45 141.25 586.45 143.05 586.45 145.1 588.25 148.2 590.0 151.25 592.4 154.2 594.9 157.15 597.55 159.25 600.15 161.4 601.8 161.4 603.45 161.4 604.8 159.55 606.15 157.7 606.15 155.65 606.15 151.8 603.75 149.5 L591.3 135.65 588.1 139.35" fill="#666666" fill-rule="evenodd" stroke="none"/>
    <path d="M594.45 78.9 L617.2 102.9 601.6 118.25 613.2 130.95 616.8 135.0 Q618.75 137.4 618.75 141.0 618.75 144.45 616.65 147.15 L611.45 153.0 589.7 173.8 583.8 167.75 576.4 159.7 569.45 151.35 Q566.25 147.3 564.75 144.45 565.65 142.75 567.55 140.55 L571.95 135.65 577.3 130.25 582.7 124.95 571.05 110.7 Q569.85 109.2 568.75 107.0 567.65 104.85 567.65 103.2 567.65 101.55 569.25 99.9 L572.55 96.75 594.45 78.9 M583.25 97.5 L597.0 112.95 599.05 111.2 Q599.85 110.25 599.85 109.2 599.85 108.25 598.05 105.95 596.25 103.5 593.9 101.0 L589.45 96.6 Q587.25 94.65 586.55 94.65 585.7 94.65 585.15 95.1 L584.1 96.2 Q583.5 96.75 583.25 97.5 M584.5 142.7 Q586.25 145.75 588.65 148.7 591.15 151.65 593.8 153.75 596.4 155.9 598.05 155.9 599.7 155.9 601.05 154.05 602.4 152.2 602.4 150.15 602.4 146.3 600.0 144.0 L587.55 130.15 Q585.85 131.85 584.35 133.85 582.7 135.75 582.7 137.55 582.7 139.6 584.5 142.7" fill="url(#gradient0)" fill-rule="evenodd" stroke="none"/>
  </g>
  <defs>
    <linearGradient gradientTransform="matrix(2.0E-4, -0.0545, 0.0549, 2.0E-4, 870.95, 124.5)" gradientUnits="userSpaceOnUse" id="gradient0" spreadMethod="pad" x1="-819.2" x2="819.2">
      <stop offset="0.0" stop-color="#55000f"/>
      <stop offset="1.0" stop-color="#ff005a"/>
    </linearGradient>
  </defs>
</svg>
