<?xml version="1.0" encoding="UTF-8" standalone="no"?>
<svg xmlns:xlink="http://www.w3.org/1999/xlink" height="16.6px" width="12.9px" xmlns="http://www.w3.org/2000/svg">
  <g transform="matrix(1.0, 0.0, 0.0, 1.0, -81.5, -215.7)">
    <path d="M85.25 215.8 L93.65 215.7 93.8 215.8 93.65 217.1 93.5 218.15 93.45 219.25 93.3 219.4 92.65 219.4 92.55 219.25 92.35 217.45 91.1 217.2 89.1 217.1 87.05 217.2 Q86.9 218.4 86.9 220.6 L86.9 223.0 88.4 223.05 89.95 223.05 91.15 222.9 91.4 221.3 91.5 221.2 92.25 221.2 92.35 221.3 92.3 223.7 92.35 226.3 92.25 226.4 91.45 226.4 91.35 226.3 Q91.35 224.95 91.15 224.7 90.95 224.45 90.0 224.35 L88.5 224.3 86.9 224.35 86.9 227.95 86.95 230.9 88.55 230.9 92.75 230.65 92.95 230.5 93.15 229.8 93.45 228.35 93.55 228.2 94.25 228.2 94.4 228.35 Q94.15 230.05 94.15 232.2 L94.05 232.3 85.5 232.25 82.5 232.3 82.4 232.2 82.4 231.9 82.45 231.75 83.4 231.05 83.5 229.5 83.55 220.9 83.4 217.3 83.0 216.85 81.6 216.75 81.5 216.6 81.5 215.8 81.6 215.7 85.25 215.8" fill="#ffffff" fill-rule="evenodd" stroke="none"/>
  </g>
</svg>
