<?xml version="1.0" encoding="UTF-8" standalone="no"?>
<svg xmlns:xlink="http://www.w3.org/1999/xlink" height="261.0px" width="177.0px" xmlns="http://www.w3.org/2000/svg">
  <g transform="matrix(1.0, 0.0, 0.0, 1.0, -0.55, 11.5)">
    <path d="M3.05 -11.5 L175.05 -11.5 Q177.55 -11.5 177.55 -9.0 L177.55 247.0 Q177.55 249.5 175.05 249.5 L3.05 249.5 Q0.55 249.5 0.55 247.0 L0.55 -9.0 Q0.55 -11.5 3.05 -11.5 M1.05 -9.0 L1.05 247.0 Q1.05 249.0 3.05 249.0 L175.05 249.0 Q177.05 249.0 177.05 247.0 L177.05 -9.0 Q177.05 -11.0 175.05 -11.0 L3.05 -11.0 Q1.05 -11.0 1.05 -9.0 M173.05 2.5 L5.05 2.5 Q3.55 2.5 3.55 4.0 L3.55 244.0 Q3.55 245.5 5.05 245.5 L173.05 245.5 Q174.55 245.5 174.55 244.0 L174.55 4.0 Q174.55 2.5 173.05 2.5 M173.05 2.0 Q175.05 2.0 175.05 4.0 L175.05 244.0 Q175.05 246.0 173.05 246.0 L5.05 246.0 Q3.05 246.0 3.05 244.0 L3.05 4.0 Q3.05 2.0 5.05 2.0 L173.05 2.0" fill="#000000" fill-opacity="0.2" fill-rule="evenodd" stroke="none"/>
    <path d="M1.05 -9.0 Q1.05 -11.0 3.05 -11.0 L175.05 -11.0 Q177.05 -11.0 177.05 -9.0 L177.05 247.0 Q177.05 249.0 175.05 249.0 L3.05 249.0 Q1.05 249.0 1.05 247.0 L1.05 -9.0 M173.05 2.0 L5.05 2.0 Q3.05 2.0 3.05 4.0 L3.05 244.0 Q3.05 246.0 5.05 246.0 L173.05 246.0 Q175.05 246.0 175.05 244.0 L175.05 4.0 Q175.05 2.0 173.05 2.0" fill="#ffffff" fill-opacity="0.101960786" fill-rule="evenodd" stroke="none"/>
  </g>
</svg>
