<?xml version="1.0" encoding="UTF-8" standalone="no"?>
<svg xmlns:xlink="http://www.w3.org/1999/xlink" height="140.0px" width="268.0px" xmlns="http://www.w3.org/2000/svg">
  <g transform="matrix(1.0, 0.0, 0.0, 1.0, 3.0, 15.0)">
    <path d="M49.0 -12.0 L49.0 -3.0 262.0 -3.0 Q265.0 -3.0 265.0 0.0 L265.0 122.0 Q265.0 125.0 262.0 125.0 L0.0 125.0 Q-3.0 125.0 -3.0 122.0 L-3.0 -12.0 Q-3.0 -15.0 0.0 -15.0 L46.0 -15.0 Q49.0 -15.0 49.0 -12.0 M260.0 1.0 L2.0 1.0 Q1.0 1.0 1.0 2.0 L1.0 120.0 Q1.0 121.0 2.0 121.0 L260.0 121.0 Q261.0 121.0 261.0 120.0 L261.0 2.0 Q261.0 1.0 260.0 1.0" fill="#000000" fill-rule="evenodd" stroke="none"/>
    <path d="M262.0 2.0 Q262.0 0.0 260.0 0.0 L2.0 0.0 Q0.0 0.0 0.0 2.0 L0.0 120.0 Q0.0 122.0 2.0 122.0 L260.0 122.0 Q262.0 122.0 262.0 120.0 L262.0 2.0 M48.0 -12.0 L48.0 -2.0 262.0 -2.0 Q264.0 -2.0 264.0 0.0 L264.0 122.0 Q264.0 124.0 262.0 124.0 L0.0 124.0 Q-2.0 124.0 -2.0 122.0 L-2.0 -12.0 Q-2.0 -14.0 0.0 -14.0 L46.0 -14.0 Q48.0 -14.0 48.0 -12.0" fill="#00ff00" fill-rule="evenodd" stroke="none"/>
  </g>
</svg>
