<?xml version="1.0" encoding="UTF-8" standalone="no"?>
<svg xmlns:xlink="http://www.w3.org/1999/xlink" height="99.25px" width="87.25px" xmlns="http://www.w3.org/2000/svg">
  <g transform="matrix(1.0, 0.0, 0.0, 1.0, -551.55, -81.65)">
    <path d="M577.35 87.15 L577.35 176.45 558.45 176.45 558.45 104.0 Q558.45 100.15 557.55 96.3 556.6 92.6 555.3 90.0 L560.2 89.8 566.9 89.2 573.3 88.35 Q576.3 87.85 577.35 87.15 M627.35 98.6 Q631.8 105.05 634.4 111.4 636.95 117.8 637.85 123.15 638.8 128.5 638.8 130.8 638.8 133.4 638.1 138.5 637.55 143.55 635.2 150.45 632.9 157.25 628.3 165.1 623.75 173.0 615.65 180.9 603.9 169.25 598.5 157.75 593.0 146.25 593.0 137.1 593.0 130.65 593.9 124.75 594.75 118.9 597.25 112.95 599.75 107.0 604.15 100.8 608.6 94.55 615.65 87.55 622.8 92.15 627.35 98.6 M614.1 111.25 Q610.9 107.3 608.6 106.05 606.9 107.6 605.45 111.2 603.9 114.8 603.9 118.5 603.9 129.8 608.9 140.4 613.9 151.1 622.8 158.6 624.5 156.95 625.8 153.65 627.2 150.4 627.2 144.8 627.2 138.95 625.15 132.6 623.2 126.2 620.25 120.7 617.3 115.2 614.1 111.25" fill="#666666" fill-rule="evenodd" stroke="none"/>
    <path d="M573.6 81.65 L573.6 170.95 554.7 170.95 554.7 98.5 Q554.7 94.65 553.8 90.8 552.85 87.1 551.55 84.5 L556.45 84.3 563.15 83.7 569.55 82.85 Q572.55 82.35 573.6 81.65" fill="url(#gradient0)" fill-rule="evenodd" stroke="none"/>
    <path d="M623.6 93.1 Q628.05 99.55 630.65 105.9 633.2 112.3 634.1 117.65 635.05 123.0 635.05 125.3 635.05 127.9 634.35 133.0 633.8 138.05 631.45 144.95 629.15 151.75 624.55 159.6 620.0 167.5 611.9 175.4 600.15 163.75 594.75 152.25 589.25 140.75 589.25 131.6 589.25 125.15 590.15 119.25 591.0 113.4 593.5 107.45 596.0 101.5 600.4 95.3 604.85 89.05 611.9 82.05 619.05 86.65 623.6 93.1 M610.35 105.75 Q607.15 101.8 604.85 100.55 603.15 102.1 601.7 105.7 600.15 109.3 600.15 113.0 600.15 124.3 605.15 134.9 610.15 145.6 619.05 153.1 620.75 151.45 622.05 148.15 623.45 144.9 623.45 139.3 623.45 133.45 621.4 127.1 619.45 120.7 616.5 115.2 613.55 109.7 610.35 105.75" fill="url(#gradient1)" fill-rule="evenodd" stroke="none"/>
  </g>
  <defs>
    <linearGradient gradientTransform="matrix(2.0E-4, -0.0545, 0.0549, 2.0E-4, 747.95, 125.95)" gradientUnits="userSpaceOnUse" id="gradient0" spreadMethod="pad" x1="-819.2" x2="819.2">
      <stop offset="0.0" stop-color="#55000f"/>
      <stop offset="1.0" stop-color="#ff005a"/>
    </linearGradient>
    <linearGradient gradientTransform="matrix(2.0E-4, -0.0545, 0.0549, 2.0E-4, 755.2, 125.95)" gradientUnits="userSpaceOnUse" id="gradient1" spreadMethod="pad" x1="-819.2" x2="819.2">
      <stop offset="0.0" stop-color="#55000f"/>
      <stop offset="1.0" stop-color="#ff005a"/>
    </linearGradient>
  </defs>
</svg>
