<?xml version="1.0" encoding="UTF-8" standalone="no"?>
<svg xmlns:xlink="http://www.w3.org/1999/xlink" height="32.0px" width="592.0px" xmlns="http://www.w3.org/2000/svg">
  <g transform="matrix(1.0, 0.0, 0.0, 1.0, 576.0, 16.0)">
    <path d="M11.3 -11.35 Q16.0 -6.65 16.0 0.0 16.0 6.65 11.3 11.3 6.65 16.0 0.0 16.0 L-112.0 16.0 Q-304.2 16.0 -440.1 11.3 -576.0 6.65 -576.0 0.0 -576.0 -6.65 -440.1 -11.35 -304.2 -16.0 -112.0 -16.0 L0.0 -16.0 Q6.65 -16.0 11.3 -11.35" fill="url(#gradient0)" fill-rule="evenodd" stroke="none"/>
    <path d="M11.25 -11.35 Q16.0 -6.6 16.0 0.0 16.0 6.6 11.25 11.25 6.6 16.0 0.0 16.0 -6.6 16.0 -11.35 11.25 -16.0 6.6 -16.0 0.0 -16.0 -6.6 -11.35 -11.35 -6.6 -16.0 0.0 -16.0 6.6 -16.0 11.25 -11.35" fill="url(#gradient1)" fill-rule="evenodd" stroke="none"/>
  </g>
  <defs>
    <radialGradient cx="0" cy="0" fx="70.4" fy="0" gradientTransform="matrix(0.6738, 0.0, 0.0, 0.0207, -32.0, 0.0)" gradientUnits="userSpaceOnUse" id="gradient0" r="819.2" spreadMethod="pad">
      <stop offset="0.403921568627451" stop-color="#ffffff"/>
      <stop offset="0.7450980392156863" stop-color="#5ff0fc" stop-opacity="0.7529412"/>
      <stop offset="0.8901960784313725" stop-color="#61aaf3" stop-opacity="0.3019608"/>
      <stop offset="1.0" stop-color="#67effa" stop-opacity="0.0"/>
    </radialGradient>
    <radialGradient cx="0" cy="0" gradientTransform="matrix(0.0203, 0.0, 0.0, 0.0203, 0.0, 0.0)" gradientUnits="userSpaceOnUse" id="gradient1" r="819.2" spreadMethod="pad">
      <stop offset="0.6941176470588235" stop-color="#ffffff"/>
      <stop offset="0.9568627450980393" stop-color="#ffffff" stop-opacity="0.0"/>
    </radialGradient>
  </defs>
</svg>
