<?xml version="1.0" encoding="UTF-8" standalone="no"?>
<svg xmlns:xlink="http://www.w3.org/1999/xlink" height="580.5px" width="805.45px" xmlns="http://www.w3.org/2000/svg">
  <g transform="matrix(1.0, 0.0, 0.0, 1.0, 402.7, 290.25)">
    <path d="M233.1 -146.4 Q167.05 -225.3 48.7 -268.35 9.35 -282.65 -28.05 -290.25 31.0 -281.2 93.05 -258.6 254.95 -199.7 342.2 -83.15 429.45 33.4 390.95 139.25 352.4 245.1 210.65 278.3 68.9 311.5 -93.0 252.6 -254.95 193.65 -342.2 77.05 -429.45 -39.45 -390.9 -145.3 -352.4 -251.15 -210.65 -284.4 L-201.2 -286.5 Q-276.2 -264.6 -297.2 -206.95 -322.1 -138.45 -256.1 -59.6 -190.05 19.3 -71.7 62.4 46.65 105.45 147.95 87.45 249.25 69.5 274.15 1.0 299.1 -67.55 233.1 -146.4" fill="url(#gradient0)" fill-rule="evenodd" stroke="none"/>
  </g>
  <defs>
    <linearGradient gradientTransform="matrix(-0.5515, -0.1126, 0.0706, -0.3459, 14.7, -88.05)" gradientUnits="userSpaceOnUse" id="gradient0" spreadMethod="pad" x1="-819.2" x2="819.2">
      <stop offset="0.0" stop-color="#ffffff"/>
      <stop offset="0.37254901960784315" stop-color="#ffffff"/>
      <stop offset="0.7254901960784313" stop-color="#949deb" stop-opacity="0.6"/>
      <stop offset="1.0" stop-color="#ea94eb" stop-opacity="0.0"/>
    </linearGradient>
  </defs>
</svg>
