<?xml version="1.0" encoding="UTF-8" standalone="no"?>
<svg xmlns:xlink="http://www.w3.org/1999/xlink" height="590.0px" width="273.15px" xmlns="http://www.w3.org/2000/svg">
  <g transform="matrix(1.0, 0.0, 0.0, 1.0, 136.55, 295.0)">
    <path d="M20.9 -182.35 L8.25 -175.45 8.1 -175.35 7.6 -175.1 7.4 -175.0 Q12.45 -81.2 12.6 -7.0 35.65 -24.25 68.3 -44.2 99.55 -63.25 136.6 -83.0 79.35 -25.45 12.1 17.0 11.3 155.8 -1.4 295.0 -9.75 219.95 -12.4 131.0 -34.0 136.5 -64.25 145.3 L-117.4 161.0 Q-94.6 145.3 -64.55 129.0 -50.8 121.5 -13.5 102.55 -15.0 16.9 -11.0 -93.0 -77.15 -92.9 -136.55 -103.0 -109.55 -106.95 -76.35 -108.7 L-10.3 -111.0 Q-7.3 -189.2 -1.4 -295.0 3.45 -242.05 6.6 -189.0 L34.4 -191.05 34.45 -190.95 34.5 -190.9 Q31.15 -188.1 20.9 -182.35" fill="#ffffff" fill-rule="evenodd" stroke="none"/>
  </g>
</svg>
