<?xml version="1.0" encoding="UTF-8" standalone="no"?>
<svg xmlns:xlink="http://www.w3.org/1999/xlink" height="83.0px" width="64.0px" xmlns="http://www.w3.org/2000/svg">
  <g transform="matrix(1.0, 0.0, 0.0, 1.0, 37.5, 36.5)">
    <path d="M26.5 -34.0 L26.5 34.0 Q26.5 35.05 25.8 35.8 L15.8 45.8 Q15.05 46.5 14.0 46.5 L-35.0 46.5 Q-36.05 46.5 -36.75 45.8 -37.5 45.05 -37.5 44.0 L-37.5 -24.0 Q-37.5 -25.05 -36.75 -25.75 L-34.75 -27.75 Q-34.05 -28.5 -33.0 -28.5 L-32.05 -28.5 -29.5 -31.05 -29.5 -32.0 Q-29.5 -33.05 -28.75 -33.75 L-26.75 -35.75 Q-26.05 -36.5 -25.0 -36.5 L24.0 -36.5 Q25.05 -36.5 25.8 -35.75 26.5 -35.05 26.5 -34.0" fill="#000000" fill-rule="evenodd" stroke="none"/>
    <path d="M-25.0 -34.0 L24.0 -34.0 24.0 34.0 -25.0 34.0 -25.0 -34.0" fill="url(#gradient0)" fill-rule="evenodd" stroke="none"/>
    <path d="M-33.0 -26.0 L-27.0 -26.0 -27.0 36.0 13.0 36.0 13.0 42.0 -33.0 42.0 -33.0 -26.0" fill="url(#gradient1)" fill-rule="evenodd" stroke="none"/>
    <path d="M-27.0 -26.0 L-27.0 -32.0 -25.0 -34.0 -25.0 34.0 -27.0 36.0 -27.0 -26.0" fill="url(#gradient2)" fill-rule="evenodd" stroke="none"/>
    <path d="M-35.0 44.0 L-35.0 -24.0 -33.0 -26.0 -33.0 42.0 -35.0 44.0" fill="url(#gradient3)" fill-rule="evenodd" stroke="none"/>
    <path d="M24.0 34.0 L14.0 44.0 -35.0 44.0 -33.0 42.0 13.0 42.0 19.0 36.0 13.0 36.0 -27.0 36.0 -25.0 34.0 24.0 34.0" fill="url(#gradient4)" fill-rule="evenodd" stroke="none"/>
    <path d="M13.0 36.0 L19.0 36.0 13.0 42.0 13.0 36.0" fill="#332d35" fill-rule="evenodd" stroke="none"/>
    <path d="M-32.0 41.0 L-32.0 -25.0 -27.0 -30.0 -27.0 36.0 -32.0 41.0" fill="url(#gradient5)" fill-rule="evenodd" stroke="none"/>
    <path d="M-27.0 36.0 L18.0 36.0 13.0 41.0 -32.0 41.0 -27.0 36.0" fill="url(#gradient6)" fill-rule="evenodd" stroke="none"/>
    <path d="M16.0 38.0 L-29.0 38.0 -29.0 -28.0 -27.0 -30.0 -27.0 36.0 20.0 36.0 16.0 38.0" fill="#000000" fill-opacity="0.15294118" fill-rule="evenodd" stroke="none"/>
    <path d="M4.95 -14.95 L5.25 -14.75 5.35 -14.5 5.3 -14.2 3.75 -11.45 3.55 -11.25 3.3 -11.2 3.25 -11.2 3.15 -11.2 Q-0.2 -12.1 -3.2 -11.15 L-3.55 -11.15 -3.8 -11.4 -5.3 -14.15 -5.35 -14.45 -5.25 -14.7 -5.0 -14.85 -2.35 -15.6 Q-1.05 -18.6 0.0 -18.5 1.05 -18.6 2.25 -15.55 L4.1 -15.15 4.95 -14.95 M10.0 -17.05 L10.15 -16.75 Q10.3 -15.1 9.45 -12.6 L9.45 -12.65 9.4 -12.55 9.4 -12.35 Q8.9 -11.0 7.75 -9.65 L7.7 -9.6 7.65 -9.55 Q5.95 -7.6 4.6 -6.9 L4.25 -6.8 3.9 -6.95 3.85 -7.0 Q3.7 -7.15 3.7 -7.35 L3.75 -7.5 Q3.55 -9.1 4.45 -11.4 L4.45 -11.45 4.5 -11.5 4.5 -11.55 5.15 -13.0 5.2 -13.05 6.05 -14.2 6.05 -14.25 6.2 -14.45 6.25 -14.45 Q7.9 -16.55 9.4 -17.2 L9.7 -17.25 9.95 -17.1 10.0 -17.05 M9.85 -11.9 L10.1 -11.95 10.4 -11.8 12.35 -9.75 Q15.6 -10.25 16.05 -9.25 16.6 -8.5 14.75 -5.8 L15.6 -3.1 15.55 -2.8 15.35 -2.55 15.1 -2.5 11.95 -2.5 11.65 -2.6 11.5 -2.85 10.25 -5.8 8.15 -8.35 8.0 -8.65 8.1 -9.0 9.65 -11.7 9.85 -11.9 M8.35 -0.45 Q9.65 -1.4 12.1 -1.85 L12.15 -1.85 12.3 -1.9 13.9 -2.0 13.95 -2.0 15.15 -1.9 15.7 -1.85 Q18.3 -1.35 19.6 -0.4 L19.75 -0.2 19.8 0.0 19.8 0.05 19.75 0.3 19.6 0.45 Q18.3 1.4 15.7 1.9 L15.55 1.95 15.45 1.95 Q14.1 2.25 12.5 1.95 L12.15 1.9 12.1 1.9 Q9.65 1.45 8.4 0.55 L8.15 0.4 8.0 0.05 8.0 0.0 8.15 -0.35 8.35 -0.45 M15.55 2.85 L15.55 3.15 15.3 4.15 14.75 5.95 Q16.5 8.35 16.05 9.2 L16.05 9.25 Q15.7 10.15 12.6 9.85 L10.55 12.0 10.3 12.1 10.0 12.05 9.8 11.85 8.2 9.15 8.1 8.85 Q8.1 8.65 8.25 8.55 10.6 6.35 11.5 3.1 L11.55 2.9 11.7 2.6 12.0 2.5 15.05 2.5 15.35 2.6 15.55 2.85 M4.65 7.0 Q6.05 7.7 7.65 9.55 L7.85 9.7 8.75 11.1 9.15 11.95 9.5 12.7 Q10.45 15.15 10.2 16.85 L10.05 17.1 10.0 17.15 9.75 17.3 9.45 17.25 Q8.0 16.6 6.3 14.55 L6.25 14.55 6.2 14.45 6.15 14.4 Q5.25 13.45 4.75 12.0 L4.5 11.5 Q3.7 9.2 3.8 7.6 L3.75 7.4 3.9 7.05 3.95 7.0 Q4.1 6.85 4.3 6.85 L4.65 7.0 M3.85 11.65 L5.45 14.35 5.5 14.65 5.4 14.9 5.15 15.1 2.3 15.8 Q1.05 18.7 0.0 18.5 -0.95 18.55 -2.2 15.7 L-4.0 15.3 -5.05 15.05 -5.3 14.9 -5.4 14.6 -5.3 14.3 -3.75 11.6 -3.6 11.45 -3.35 11.35 -2.9 11.45 Q0.3 12.3 3.25 11.45 L3.6 11.45 3.85 11.65 M-9.4 -17.2 Q-7.85 -16.5 -6.2 -14.45 L-5.85 -14.0 -5.15 -13.05 -4.4 -11.55 -4.4 -11.35 Q-3.55 -9.0 -3.7 -7.4 L-3.7 -7.35 Q-3.7 -7.15 -3.85 -7.0 L-3.9 -6.95 -4.25 -6.8 Q-4.45 -6.8 -4.6 -6.95 L-4.6 -7.0 Q-6.05 -7.7 -7.6 -9.55 L-7.65 -9.55 -7.85 -9.9 Q-8.95 -11.1 -9.3 -12.4 L-9.3 -12.35 -9.4 -12.6 -9.4 -12.65 Q-10.25 -15.1 -10.15 -16.7 L-10.0 -17.05 -9.95 -17.1 -9.7 -17.25 -9.4 -17.2 M-10.35 -11.75 L-10.1 -11.9 -9.8 -11.85 -9.6 -11.65 -8.1 -8.9 -8.05 -8.55 -8.2 -8.25 Q-10.45 -6.15 -11.25 -2.9 L-11.35 -2.7 -11.55 -2.55 -11.75 -2.5 -14.95 -2.5 -15.2 -2.55 -15.4 -2.8 -15.45 -3.1 -15.2 -4.0 -15.2 -4.05 -14.65 -5.7 Q-16.65 -8.4 -16.0 -9.25 -15.6 -10.25 -12.35 -9.8 L-10.35 -11.75 M-15.7 -1.85 L-15.65 -1.85 -15.1 -1.9 -13.9 -2.0 -12.25 -1.9 -12.1 -1.85 Q-9.65 -1.4 -8.35 -0.45 L-8.15 -0.35 -8.0 0.0 -8.0 0.05 -8.15 0.4 -8.35 0.55 Q-9.65 1.45 -12.1 1.9 L-12.5 1.95 Q-14.1 2.25 -15.45 1.95 L-15.55 1.95 -15.65 1.9 -15.7 1.9 Q-18.3 1.4 -19.6 0.45 L-19.75 0.3 -19.8 0.05 -19.8 0.0 -19.75 -0.2 -19.6 -0.4 Q-18.3 -1.35 -15.7 -1.85 M-10.0 6.0 L-8.2 8.5 -8.05 8.8 -8.1 9.1 -9.7 11.85 -9.95 12.05 -10.25 12.1 -10.5 11.95 -12.35 9.8 Q-15.6 10.15 -16.0 9.25 -16.65 8.4 -14.65 5.85 L-15.5 3.1 -15.45 2.8 -15.25 2.6 -15.0 2.5 -11.8 2.5 -11.5 2.6 -11.35 2.9 Q-10.95 4.45 -10.0 6.0 M-9.3 12.3 L-8.75 11.1 -8.7 11.05 -7.75 9.7 -7.6 9.55 Q-6.1 7.7 -4.65 7.05 L-4.65 7.0 -4.3 6.85 Q-4.1 6.85 -3.95 7.0 L-3.9 7.05 -3.75 7.4 -3.75 7.45 Q-3.65 9.1 -4.45 11.5 L-4.45 11.45 -4.65 11.9 -4.6 11.85 Q-5.2 13.4 -6.05 14.4 L-6.25 14.55 Q-7.95 16.6 -9.45 17.25 L-9.75 17.3 -10.0 17.15 -10.05 17.1 -10.2 16.8 Q-10.35 15.15 -9.45 12.7 L-9.45 12.65 -9.25 12.25 -9.3 12.3" fill="#000000" fill-opacity="0.2901961" fill-rule="evenodd" stroke="none"/>
    <path d="M20.5 -29.5 Q19.45 -30.5 18.0 -30.5 16.55 -30.5 15.55 -29.5 L15.25 -29.1 14.9 -28.9 14.55 -29.0 Q8.9 -33.35 1.5 -33.5 1.3 -33.5 1.15 -33.65 1.0 -33.8 1.0 -34.0 L24.0 -34.0 24.0 -11.15 23.65 -11.3 23.5 -11.65 Q23.3 -18.2 19.85 -23.4 L19.75 -23.8 20.0 -24.1 20.5 -24.55 Q21.5 -25.55 21.5 -27.0 21.5 -28.45 20.5 -29.5 M19.45 -28.55 Q20.1 -27.9 20.1 -27.0 20.1 -26.1 19.45 -25.45 18.8 -24.8 17.9 -24.8 17.0 -24.8 16.4 -25.45 15.75 -26.1 15.75 -27.0 15.75 -27.9 16.4 -28.55 17.0 -29.15 17.9 -29.15 18.8 -29.15 19.45 -28.55 M24.0 11.15 L24.0 34.0 1.0 34.0 Q1.0 33.8 1.15 33.65 1.3 33.5 1.5 33.5 8.9 33.35 14.55 29.0 L14.8 28.9 15.1 28.95 15.3 29.15 15.55 29.5 Q16.55 30.5 18.0 30.5 19.45 30.5 20.5 29.5 21.5 28.45 21.5 27.0 21.5 25.55 20.5 24.55 L20.0 24.15 19.75 23.8 19.85 23.45 Q23.35 18.2 23.5 11.65 L23.65 11.3 Q23.8 11.15 24.0 11.15 M19.5 25.4 Q20.15 26.05 20.15 26.95 20.15 27.85 19.5 28.5 L19.5 28.55 Q18.85 29.1 17.95 29.1 17.05 29.1 16.45 28.5 15.8 27.85 15.8 26.95 15.8 26.05 16.45 25.45 L16.45 25.4 Q17.05 24.75 17.95 24.75 18.85 24.75 19.5 25.4 M-15.6 -29.55 Q-16.6 -30.5 -18.0 -30.5 -19.45 -30.5 -20.5 -29.5 -21.5 -28.45 -21.5 -27.0 -21.5 -25.6 -20.55 -24.6 L-20.4 -24.3 -20.5 -23.95 Q-24.4 -18.5 -24.5 -11.45 L-24.65 -11.1 -25.0 -10.95 -25.0 -34.0 -1.95 -34.0 -2.1 -33.65 Q-2.25 -33.5 -2.45 -33.5 -9.5 -33.4 -14.95 -29.5 L-15.3 -29.4 Q-15.45 -29.4 -15.6 -29.55 M-19.45 -28.55 Q-18.85 -29.15 -17.95 -29.15 -17.05 -29.15 -16.45 -28.55 -15.8 -27.9 -15.8 -27.0 -15.8 -26.1 -16.4 -25.45 L-16.45 -25.45 Q-17.05 -24.8 -17.95 -24.8 -18.85 -24.8 -19.5 -25.45 -20.15 -26.1 -20.15 -27.0 -20.15 -27.9 -19.5 -28.55 L-19.45 -28.55 M-24.65 11.15 Q-24.5 11.25 -24.5 11.5 -24.4 18.5 -20.5 23.95 L-20.4 24.3 -20.55 24.6 Q-21.5 25.6 -21.5 27.0 -21.5 28.45 -20.5 29.5 -19.45 30.5 -18.0 30.5 -16.6 30.5 -15.6 29.55 L-15.25 29.4 -14.95 29.5 Q-9.5 33.4 -2.45 33.5 -2.25 33.5 -2.1 33.65 L-1.95 34.0 -25.0 34.0 -25.0 11.0 -24.65 11.15 M-15.85 26.95 Q-15.85 27.85 -16.5 28.5 -17.1 29.1 -18.0 29.1 -18.9 29.1 -19.5 28.55 L-19.55 28.5 Q-20.2 27.85 -20.2 26.95 -20.2 26.05 -19.55 25.4 -18.9 24.75 -18.0 24.75 -17.1 24.75 -16.5 25.4 L-16.45 25.45 Q-15.85 26.05 -15.85 26.95" fill="#000000" fill-opacity="0.2509804" fill-rule="evenodd" stroke="none"/>
    <path d="M20.85 -29.85 Q19.65 -31.0 18.0 -31.0 16.35 -31.0 15.2 -29.85 L14.85 -29.4 Q9.05 -33.85 1.5 -34.0 L24.0 -34.0 24.0 -11.65 Q23.8 -18.4 20.25 -23.7 L20.85 -24.2 Q22.0 -25.35 22.0 -27.0 22.0 -28.65 20.85 -29.85 M19.6 -27.0 Q19.6 -26.3 19.1 -25.8 18.6 -25.3 17.9 -25.3 17.2 -25.3 16.75 -25.8 16.25 -26.3 16.25 -27.0 16.25 -27.7 16.75 -28.2 17.2 -28.65 17.9 -28.65 18.6 -28.65 19.1 -28.2 19.6 -27.7 19.6 -27.0 M24.0 11.65 L24.0 34.0 1.5 34.0 Q9.1 33.85 14.85 29.4 L15.2 29.85 Q16.35 31.0 18.0 31.0 19.65 31.0 20.85 29.85 22.0 28.65 22.0 27.0 22.0 25.35 20.85 24.2 L20.25 23.7 Q23.8 18.35 24.0 11.65 M17.95 28.6 L16.8 28.15 Q16.3 27.65 16.3 26.95 16.3 26.25 16.8 25.75 17.25 25.25 17.95 25.25 18.65 25.25 19.15 25.75 19.65 26.25 19.65 26.95 19.65 27.65 19.15 28.15 L17.95 28.6 M-17.95 -25.3 Q-18.65 -25.3 -19.15 -25.8 -19.65 -26.3 -19.65 -27.0 -19.65 -27.7 -19.15 -28.2 L-17.95 -28.65 -16.8 -28.2 Q-16.3 -27.7 -16.3 -27.0 -16.3 -26.3 -16.8 -25.8 -17.25 -25.3 -17.95 -25.3 M-18.0 -31.0 Q-19.65 -31.0 -20.85 -29.85 -22.0 -28.65 -22.0 -27.0 -22.0 -25.4 -20.9 -24.25 -24.85 -18.65 -25.0 -11.45 L-25.0 -34.0 -2.45 -34.0 Q-9.65 -33.85 -15.25 -29.9 -16.4 -31.0 -18.0 -31.0 M-20.9 24.25 Q-22.0 25.4 -22.0 27.0 -22.0 28.65 -20.85 29.85 -19.65 31.0 -18.0 31.0 -16.4 31.0 -15.25 29.9 -9.7 33.85 -2.45 34.0 L-25.0 34.0 -25.0 11.5 Q-24.85 18.7 -20.9 24.25 M-19.7 26.95 Q-19.7 26.25 -19.2 25.75 -18.7 25.25 -18.0 25.25 -17.3 25.25 -16.85 25.75 -16.35 26.25 -16.35 26.95 -16.35 27.65 -16.85 28.15 -17.3 28.6 -18.0 28.6 -18.7 28.6 -19.2 28.15 -19.7 27.65 -19.7 26.95" fill="url(#gradient7)" fill-rule="evenodd" stroke="none"/>
    <path d="M4.85 -14.45 L3.3 -11.7 3.25 -11.7 Q-0.2 -12.6 -3.35 -11.65 L-4.85 -14.4 -2.0 -15.15 Q-0.8 -18.0 0.0 -18.0 0.8 -18.0 1.9 -15.1 L3.95 -14.7 4.85 -14.45 M8.5 -8.75 L10.05 -11.45 12.1 -9.2 15.6 -9.0 Q15.95 -8.4 14.15 -5.9 L15.1 -3.0 11.95 -3.0 10.65 -6.05 Q9.75 -7.6 8.5 -8.75 M15.6 9.0 Q15.25 9.65 12.35 9.3 L10.2 11.6 8.6 8.9 Q11.05 6.6 11.95 3.2 L12.0 3.0 15.05 3.0 14.8 4.0 14.2 6.0 Q15.9 8.3 15.6 9.0 M-11.8 3.0 Q-11.4 4.65 -10.45 6.25 L-8.55 8.85 -10.15 11.6 -12.15 9.25 -15.6 9.0 Q-16.0 8.3 -14.1 5.95 L-15.0 3.0 -11.8 3.0 M-14.95 -3.0 L-14.75 -3.9 -14.1 -5.8 Q-16.0 -8.3 -15.6 -9.0 L-12.15 -9.25 -10.05 -11.4 -8.55 -8.65 Q-10.9 -6.45 -11.75 -3.05 L-11.75 -3.0 -14.95 -3.0 M5.0 14.6 L1.9 15.35 Q0.8 18.05 0.0 18.0 -0.7 17.95 -1.9 15.2 L-3.9 14.8 -4.9 14.55 -3.35 11.85 -3.05 11.9 Q0.3 12.8 3.4 11.9 L5.0 14.6" fill="url(#gradient8)" fill-rule="evenodd" stroke="none"/>
  </g>
  <defs>
    <linearGradient gradientTransform="matrix(-0.0354, 0.0398, -0.031, -0.0275, -0.5, 0.0)" gradientUnits="userSpaceOnUse" id="gradient0" spreadMethod="pad" x1="-819.2" x2="819.2">
      <stop offset="0.0" stop-color="#3a3140"/>
      <stop offset="1.0" stop-color="#4a474e"/>
    </linearGradient>
    <linearGradient gradientTransform="matrix(0.0369, -2.0E-4, 2.0E-4, 0.0414, -8.25, 8.55)" gradientUnits="userSpaceOnUse" id="gradient1" spreadMethod="pad" x1="-819.2" x2="819.2">
      <stop offset="0.0" stop-color="#443a4b"/>
      <stop offset="1.0" stop-color="#4e4a51"/>
    </linearGradient>
    <linearGradient gradientTransform="matrix(0.0012, 0.0, 0.0, 0.0427, -26.0, 1.0)" gradientUnits="userSpaceOnUse" id="gradient2" spreadMethod="pad" x1="-819.2" x2="819.2">
      <stop offset="0.0" stop-color="#433847"/>
      <stop offset="0.9921568627450981" stop-color="#37303a"/>
    </linearGradient>
    <linearGradient gradientTransform="matrix(0.0012, 0.0, 0.0, 0.0427, -34.0, 0.85)" gradientUnits="userSpaceOnUse" id="gradient3" spreadMethod="pad" x1="-819.2" x2="819.2">
      <stop offset="0.0" stop-color="#372f3c"/>
      <stop offset="1.0" stop-color="#27212c"/>
    </linearGradient>
    <linearGradient gradientTransform="matrix(0.0, -0.0069, 0.0061, 0.0, -5.5, 39.0)" gradientUnits="userSpaceOnUse" id="gradient4" spreadMethod="pad" x1="-819.2" x2="819.2">
      <stop offset="0.0" stop-color="#1c1a1e"/>
      <stop offset="1.0" stop-color="#2b2530"/>
    </linearGradient>
    <linearGradient gradientTransform="matrix(0.0018, 0.0, 0.0, 0.0421, -28.5, 4.5)" gradientUnits="userSpaceOnUse" id="gradient5" spreadMethod="pad" x1="-819.2" x2="819.2">
      <stop offset="0.3568627450980392" stop-color="#99927b"/>
      <stop offset="0.9882352941176471" stop-color="#675c49"/>
    </linearGradient>
    <linearGradient gradientTransform="matrix(0.0, -0.0031, 0.0018, 0.0, -6.0, 37.5)" gradientUnits="userSpaceOnUse" id="gradient6" spreadMethod="pad" x1="-819.2" x2="819.2">
      <stop offset="0.30980392156862746" stop-color="#7b7660"/>
      <stop offset="1.0" stop-color="#5b5746"/>
    </linearGradient>
    <linearGradient gradientTransform="matrix(-0.0184, 0.0422, -0.038, -0.0166, 44.0, 0.0)" gradientUnits="userSpaceOnUse" id="gradient7" spreadMethod="pad" x1="-819.2" x2="819.2">
      <stop offset="0.0" stop-color="#574565"/>
      <stop offset="0.0" stop-color="#503f56"/>
      <stop offset="1.0" stop-color="#7c6981"/>
    </linearGradient>
    <linearGradient gradientTransform="matrix(-0.0157, 0.0166, -0.0038, -0.0035, 7.9, 6.85)" gradientUnits="userSpaceOnUse" id="gradient8" spreadMethod="pad" x1="-819.2" x2="819.2">
      <stop offset="0.07450980392156863" stop-color="#afa581"/>
      <stop offset="0.8784313725490196" stop-color="#cdc6b1"/>
    </linearGradient>
  </defs>
</svg>
