<?xml version="1.0" encoding="UTF-8" standalone="no"?>
<svg xmlns:xlink="http://www.w3.org/1999/xlink" height="375.0px" width="504.0px" xmlns="http://www.w3.org/2000/svg">
  <g transform="matrix(1.0, 0.0, 0.0, 1.0, 3.0, 15.0)">
    <path d="M56.0 -3.0 L498.0 -3.0 Q501.0 -3.0 501.0 0.0 L501.0 357.0 Q501.0 360.0 498.0 360.0 L0.0 360.0 Q-3.0 360.0 -3.0 357.0 L-3.0 -12.0 Q-3.0 -15.0 0.0 -15.0 L53.0 -15.0 Q56.0 -15.0 56.0 -12.0 L56.0 -3.0 M496.0 1.0 L2.0 1.0 Q1.0 1.0 1.0 2.0 L1.0 355.0 Q1.0 356.0 2.0 356.0 L496.0 356.0 Q497.0 356.0 497.0 355.0 L497.0 2.0 Q497.0 1.0 496.0 1.0" fill="#000000" fill-rule="evenodd" stroke="none"/>
    <path d="M55.0 -2.0 L65.0 -2.0 498.0 -2.0 Q500.0 -2.0 500.0 0.0 L500.0 357.0 Q500.0 359.0 498.0 359.0 L0.0 359.0 Q-2.0 359.0 -2.0 357.0 L-2.0 -12.0 Q-2.0 -14.0 0.0 -14.0 L53.0 -14.0 Q55.0 -14.0 55.0 -12.0 L55.0 -2.0 M496.0 0.0 L65.0 0.0 2.0 0.0 Q0.0 0.0 0.0 2.0 L0.0 355.0 Q0.0 357.0 2.0 357.0 L496.0 357.0 Q498.0 357.0 498.0 355.0 L498.0 2.0 Q498.0 0.0 496.0 0.0" fill="#00ff00" fill-rule="evenodd" stroke="none"/>
  </g>
</svg>
