<?xml version="1.0" encoding="UTF-8" standalone="no"?>
<svg xmlns:xlink="http://www.w3.org/1999/xlink" height="98.0px" width="97.85px" xmlns="http://www.w3.org/2000/svg">
  <g transform="matrix(1.0, 0.0, 0.0, 1.0, 48.9, 49.0)">
    <path d="M23.05 -42.2 Q28.9 -39.05 33.95 -33.95 L37.1 -30.5 M-22.25 -42.65 Q-12.2 -48.0 0.0 -48.0 L8.85 -47.25 M40.95 -25.25 Q47.4 -15.05 47.95 -2.45 M-45.55 -15.5 L-45.35 -16.1 Q-41.9 -26.0 -33.95 -33.95 L-31.4 -36.35 M-47.9 -2.35 Q-47.8 -5.7 -47.25 -8.85 M-31.45 36.25 L-33.95 33.95 -38.45 28.9 M40.9 25.3 Q38.05 29.85 33.95 33.95 30.7 37.2 27.1 39.75 M7.0 47.55 L0.0 48.0 -9.6 47.15" fill="none" stroke="#c0fefd" stroke-linecap="round" stroke-linejoin="round" stroke-opacity="0.43137255" stroke-width="2.0"/>
  </g>
</svg>
