<?xml version="1.0" encoding="UTF-8" standalone="no"?>
<svg xmlns:xlink="http://www.w3.org/1999/xlink" height="43.0px" width="52.0px" xmlns="http://www.w3.org/2000/svg">
  <g transform="matrix(1.0, 0.0, 0.0, 1.0, 3.0, 8.0)">
    <path d="M49.0 -5.0 L49.0 32.0 Q49.0 35.0 46.0 35.0 L0.0 35.0 Q-3.0 35.0 -3.0 32.0 L-3.0 -5.0 Q-3.0 -8.0 0.0 -8.0 L46.0 -8.0 Q49.0 -8.0 49.0 -5.0 M45.0 30.0 L45.0 9.0 Q45.0 8.0 44.0 8.0 L2.0 8.0 Q1.0 8.0 1.0 9.0 L1.0 30.0 Q1.0 31.0 2.0 31.0 L44.0 31.0 Q45.0 31.0 45.0 30.0" fill="#000000" fill-rule="evenodd" stroke="none"/>
    <path d="M46.0 -7.0 Q48.0 -7.0 48.0 -5.0 L48.0 32.0 Q48.0 34.0 46.0 34.0 L0.0 34.0 Q-2.0 34.0 -2.0 32.0 L-2.0 -5.0 Q-2.0 -7.0 0.0 -7.0 L46.0 -7.0 M46.0 9.0 Q46.0 7.0 44.0 7.0 L2.0 7.0 Q0.0 7.0 0.0 9.0 L0.0 30.0 Q0.0 32.0 2.0 32.0 L44.0 32.0 Q46.0 32.0 46.0 30.0 L46.0 9.0" fill="#00ff00" fill-rule="evenodd" stroke="none"/>
  </g>
</svg>
