<?xml version="1.0" encoding="UTF-8" standalone="no"?>
<svg xmlns:xlink="http://www.w3.org/1999/xlink" height="58.0px" width="760.0px" xmlns="http://www.w3.org/2000/svg">
  <g transform="matrix(1.0, 0.0, 0.0, 1.0, 0.0, 0.0)">
    <path d="M370.15 0.0 L760.0 0.0 760.0 58.0 370.15 58.0 399.15 29.0 370.15 0.0 M347.95 58.0 L327.0 58.0 355.0 30.0 356.0 29.0 355.0 28.0 327.0 0.0 347.9 0.0 375.8 29.25 347.95 58.0" fill="#000000" fill-rule="evenodd" stroke="none"/>
    <path d="M370.15 58.0 L347.95 58.0 375.8 29.25 347.9 0.0 370.15 0.0 399.15 29.0 370.15 58.0 M327.0 58.0 L0.0 58.0 0.0 0.0 327.0 0.0 355.0 28.0 356.0 29.0 355.0 30.0 327.0 58.0" fill="#f20006" fill-rule="evenodd" stroke="none"/>
  </g>
</svg>
