<?xml version="1.0" encoding="UTF-8" standalone="no"?>
<svg xmlns:xlink="http://www.w3.org/1999/xlink" height="445.6px" width="385.1px" xmlns="http://www.w3.org/2000/svg">
  <g transform="matrix(1.0, 0.0, 0.0, 1.0, 3.0, 33.95)">
    <path d="M307.8 -9.4 Q306.05 -0.2 298.7 16.8 289.9 36.15 286.25 44.6 280.0 59.05 280.0 64.0 280.0 70.4 160.75 100.5 100.7 115.65 36.0 131.0 23.85 131.0 10.0 115.0 4.25 108.4 0.65 101.45 -3.0 94.45 -3.0 90.0 -3.0 88.15 5.2 80.4 14.05 72.0 27.8 61.25 63.85 33.1 104.75 10.75 158.0 -18.3 204.6 -28.6 261.95 -41.25 304.0 -24.0 310.15 -21.5 307.8 -9.4 M380.3 289.0 Q382.5 295.0 382.0 297.5 372.15 346.2 322.05 376.3 277.7 402.95 212.55 409.65 151.25 415.9 96.3 402.55 39.55 388.75 16.0 360.0 10.4 353.2 18.65 341.0 25.55 330.85 41.2 318.0 54.1 307.45 69.15 298.05 82.75 289.5 88.0 288.0 107.75 282.3 226.15 270.15 334.6 259.0 344.5 259.0 361.4 259.0 373.45 276.05 377.8 282.2 380.3 289.0" fill="#cc3300" fill-rule="evenodd" stroke="none"/>
  </g>
</svg>
