<?xml version="1.0" encoding="UTF-8" standalone="no"?>
<svg xmlns:xlink="http://www.w3.org/1999/xlink" height="89.0px" width="89.0px" xmlns="http://www.w3.org/2000/svg">
  <g transform="matrix(1.0, 0.0, 0.0, 1.0, 44.5, 44.5)">
    <path d="M31.5 -31.45 Q44.5 -18.45 44.5 0.0 44.5 18.45 31.5 31.5 18.45 44.5 0.0 44.5 -18.45 44.5 -31.45 31.5 -44.5 18.45 -44.5 0.0 -44.5 -18.45 -31.45 -31.45 -18.45 -44.5 0.0 -44.5 18.45 -44.5 31.5 -31.45" fill="#000000" fill-rule="evenodd" stroke="none"/>
    <path d="M29.7 -29.7 Q42.0 -17.4 42.0 0.0 42.0 17.4 29.7 29.7 17.4 42.0 0.0 42.0 -17.4 42.0 -29.7 29.7 -42.0 17.4 -42.0 0.0 -42.0 -17.4 -29.7 -29.7 -17.4 -42.0 0.0 -42.0 17.4 -42.0 29.7 -29.7" fill="url(#gradient0)" fill-rule="evenodd" stroke="none"/>
    <path d="M26.9 -26.9 Q38.0 -15.7 38.0 0.0 38.0 15.7 26.9 26.9 15.7 38.0 0.0 38.0 -15.7 38.0 -26.9 26.9 -38.0 15.7 -38.0 0.0 -38.0 -15.7 -26.9 -26.9 -15.7 -38.0 0.0 -38.0 15.7 -38.0 26.9 -26.9" fill="url(#gradient1)" fill-rule="evenodd" stroke="none"/>
    <path d="M27.95 -27.9 Q39.5 -16.35 39.5 0.0 39.5 16.35 27.95 27.95 16.35 39.5 0.0 39.5 -16.35 39.5 -27.9 27.95 -39.5 16.35 -39.5 0.0 -39.5 -16.35 -27.9 -27.9 -16.35 -39.5 0.0 -39.5 16.35 -39.5 27.95 -27.9" fill="url(#gradient2)" fill-rule="evenodd" stroke="none"/>
    <path d="M16.25 -16.3 Q23.0 -9.55 23.0 0.0 23.0 9.55 16.25 16.25 9.55 23.0 0.0 23.0 -9.55 23.0 -16.3 16.25 -23.0 9.55 -23.0 0.0 -23.0 -9.55 -16.3 -16.3 -9.55 -23.0 0.0 -23.0 9.55 -23.0 16.25 -16.3" fill="url(#gradient3)" fill-rule="evenodd" stroke="none"/>
    <path d="M0.0 23.0 Q-9.55 23.0 -16.3 16.25 -18.75 13.8 -20.25 11.05 -18.9 8.9 -17.0 7.0 -9.95 0.0 0.0 0.0 9.95 0.0 16.95 7.0 18.85 8.9 20.25 11.05 18.7 13.85 16.25 16.25 9.55 23.0 0.0 23.0" fill="url(#gradient4)" fill-rule="evenodd" stroke="none"/>
    <path d="M8.45 19.4 Q5.0 21.5 0.0 21.5 -5.0 21.5 -8.5 19.4 -12.0 17.3 -12.0 14.3 -12.0 11.3 -8.5 9.2 -5.0 7.1 0.0 7.1 5.0 7.1 8.45 9.2 12.0 11.3 12.0 14.3 12.0 17.3 8.45 19.4" fill="url(#gradient5)" fill-rule="evenodd" stroke="none"/>
    <path d="M16.25 -16.3 Q23.0 -9.55 23.0 0.0 23.0 9.55 16.25 16.25 9.55 23.0 0.0 23.0 -9.55 23.0 -16.3 16.25 -23.0 9.55 -23.0 0.0 -23.0 -9.55 -16.3 -16.3 -9.55 -23.0 0.0 -23.0 9.55 -23.0 16.25 -16.3" fill="url(#gradient6)" fill-rule="evenodd" stroke="none"/>
    <path d="M5.2 -5.2 Q7.35 -3.05 7.35 0.0 7.35 3.05 5.2 5.2 3.05 7.35 0.0 7.35 -3.05 7.35 -5.2 5.2 -7.35 3.05 -7.35 0.0 -7.35 -3.05 -5.2 -5.2 -3.05 -7.35 0.0 -7.35 3.05 -7.35 5.2 -5.2" fill="#000000" fill-rule="evenodd" stroke="none"/>
    <path d="M-6.0 -4.0 Q-8.1 -4.0 -9.6 -5.5 -11.0 -6.9 -11.0 -9.0 -11.0 -11.1 -9.6 -12.6 -8.1 -14.0 -6.0 -14.0 -3.9 -14.0 -2.5 -12.6 -1.0 -11.1 -1.0 -9.0 -1.0 -6.9 -2.5 -5.5 -3.9 -4.0 -6.0 -4.0" fill="url(#gradient7)" fill-rule="evenodd" stroke="none"/>
    <path d="M34.9 -1.75 Q35.2 -0.5 34.65 0.55 34.15 1.65 33.05 1.85 32.0 2.15 31.0 1.45 30.1 0.75 29.8 -0.5 29.45 -1.75 30.0 -2.8 30.5 -3.85 31.6 -4.1 L33.6 -3.75 Q34.55 -3.0 34.9 -1.75" fill="url(#gradient8)" fill-rule="evenodd" stroke="none"/>
  </g>
  <defs>
    <radialGradient cx="0" cy="0" gradientTransform="matrix(0.0516, 0.0, 0.0, 0.0516, -1.0, -5.5)" gradientUnits="userSpaceOnUse" id="gradient0" r="819.2" spreadMethod="pad">
      <stop offset="0.807843137254902" stop-color="#ffffff"/>
      <stop offset="1.0" stop-color="#e1e1ea"/>
    </radialGradient>
    <radialGradient cx="0" cy="0" gradientTransform="matrix(0.0467, 0.0, 0.0, 0.0467, -0.9, -5.0)" gradientUnits="userSpaceOnUse" id="gradient1" r="819.2" spreadMethod="pad">
      <stop offset="0.7843137254901961" stop-color="#ffffff"/>
      <stop offset="0.792156862745098" stop-color="#f9f9fb"/>
      <stop offset="1.0" stop-color="#d5d5e1"/>
    </radialGradient>
    <linearGradient gradientTransform="matrix(-0.0147, -0.051, 0.0463, -0.0133, 0.0, 0.0)" gradientUnits="userSpaceOnUse" id="gradient2" spreadMethod="pad" x1="-819.2" x2="819.2">
      <stop offset="0.0" stop-color="#ffffff" stop-opacity="0.0"/>
      <stop offset="0.09019607843137255" stop-color="#e8e3d7" stop-opacity="0.0"/>
      <stop offset="0.8431372549019608" stop-color="#ffffff"/>
      <stop offset="1.0" stop-color="#f8f8f8"/>
    </linearGradient>
    <radialGradient cx="0" cy="0" fx="-1632.0" fy="0" gradientTransform="matrix(0.0287, 0.0, 0.0, 0.0287, -0.15, -0.25)" gradientUnits="userSpaceOnUse" id="gradient3" r="819.2" spreadMethod="pad">
      <stop offset="0.3411764705882353" stop-color="#d57c06"/>
      <stop offset="0.47843137254901963" stop-color="#914d0b"/>
      <stop offset="1.0" stop-color="#9c550e"/>
    </radialGradient>
    <radialGradient cx="0" cy="0" gradientTransform="matrix(0.0303, 0.0, 0.0, 0.0288, 0.0, 24.0)" gradientUnits="userSpaceOnUse" id="gradient4" r="819.2" spreadMethod="pad">
      <stop offset="0.40784313725490196" stop-color="#d57c06"/>
      <stop offset="0.8784313725490196" stop-color="#d57c06"/>
      <stop offset="1.0" stop-color="#d57c06" stop-opacity="0.0"/>
    </radialGradient>
    <radialGradient cx="0" cy="0" gradientTransform="matrix(0.0, -0.0088, 0.0146, 0.0, 0.0, 14.3)" gradientUnits="userSpaceOnUse" id="gradient5" r="819.2" spreadMethod="pad">
      <stop offset="0.6392156862745098" stop-color="#ffb062"/>
      <stop offset="1.0" stop-color="#ffa980" stop-opacity="0.0"/>
    </radialGradient>
    <radialGradient cx="0" cy="0" fx="-1632.0" fy="0" gradientTransform="matrix(0.0287, 0.0, 0.0, 0.0287, -0.15, -0.25)" gradientUnits="userSpaceOnUse" id="gradient6" r="819.2" spreadMethod="pad">
      <stop offset="0.8431372549019608" stop-color="#1b1501" stop-opacity="0.0"/>
      <stop offset="0.984313725490196" stop-color="#1b1501"/>
    </radialGradient>
    <radialGradient cx="0" cy="0" gradientTransform="matrix(0.0063, 0.0, 0.0, 0.0063, -6.0, -9.0)" gradientUnits="userSpaceOnUse" id="gradient7" r="819.2" spreadMethod="pad">
      <stop offset="0.796078431372549" stop-color="#ffffff"/>
      <stop offset="1.0" stop-color="#ffffff" stop-opacity="0.0"/>
    </radialGradient>
    <radialGradient cx="0" cy="0" gradientTransform="matrix(0.0028, -3.0E-4, 4.0E-4, 0.0037, 32.3, -1.1)" gradientUnits="userSpaceOnUse" id="gradient8" r="819.2" spreadMethod="pad">
      <stop offset="0.8431372549019608" stop-color="#ffffff" stop-opacity="0.84313726"/>
      <stop offset="0.9372549019607843" stop-color="#ffffff" stop-opacity="0.0"/>
    </radialGradient>
  </defs>
</svg>
