<?xml version="1.0" encoding="UTF-8" standalone="no"?>
<svg xmlns:xlink="http://www.w3.org/1999/xlink" height="89.0px" width="89.0px" xmlns="http://www.w3.org/2000/svg">
  <g transform="matrix(1.0, 0.0, 0.0, 1.0, 44.5, 44.5)">
    <path d="M31.5 -31.45 Q44.5 -18.45 44.5 0.0 44.5 18.45 31.5 31.5 18.45 44.5 0.0 44.5 -18.45 44.5 -31.45 31.5 -44.5 18.45 -44.5 0.0 -44.5 -18.45 -31.45 -31.45 -18.45 -44.5 0.0 -44.5 18.45 -44.5 31.5 -31.45" fill="#000000" fill-rule="evenodd" stroke="none"/>
    <path d="M29.7 -29.7 Q42.0 -17.4 42.0 0.0 42.0 17.4 29.7 29.7 17.4 42.0 0.0 42.0 -17.4 42.0 -29.7 29.7 -42.0 17.4 -42.0 0.0 -42.0 -17.4 -29.7 -29.7 -17.4 -42.0 0.0 -42.0 17.4 -42.0 29.7 -29.7" fill="url(#gradient0)" fill-rule="evenodd" stroke="none"/>
    <path d="M26.9 -26.9 Q38.0 -15.7 38.0 0.0 38.0 15.7 26.9 26.9 15.7 38.0 0.0 38.0 -15.7 38.0 -26.9 26.9 -38.0 15.7 -38.0 0.0 -38.0 -15.7 -26.9 -26.9 -15.7 -38.0 0.0 -38.0 15.7 -38.0 26.9 -26.9" fill="url(#gradient1)" fill-rule="evenodd" stroke="none"/>
    <path d="M27.95 -27.9 Q39.5 -16.35 39.5 0.0 39.5 16.35 27.95 27.95 16.35 39.5 0.0 39.5 -16.35 39.5 -27.9 27.95 -39.5 16.35 -39.5 0.0 -39.5 -16.35 -27.9 -27.9 -16.35 -39.5 0.0 -39.5 16.35 -39.5 27.95 -27.9" fill="url(#gradient2)" fill-rule="evenodd" stroke="none"/>
    <path d="M16.25 -16.3 Q23.0 -9.55 23.0 0.0 23.0 9.55 16.25 16.25 9.55 23.0 0.0 23.0 -9.55 23.0 -16.3 16.25 -23.0 9.55 -23.0 0.0 -23.0 -9.55 -16.3 -16.3 -9.55 -23.0 0.0 -23.0 9.55 -23.0 16.25 -16.3" fill="url(#gradient3)" fill-rule="evenodd" stroke="none"/>
    <path d="M4.9 -19.45 L0.0 0.0 -12.55 -15.55 Q-7.2 -20.0 0.0 -20.0 L4.9 -19.45" fill="url(#gradient4)" fill-rule="evenodd" stroke="none"/>
    <path d="M-12.55 -15.55 L0.0 0.0 -20.0 0.0 Q-20.0 -8.3 -14.15 -14.15 L-12.55 -15.55" fill="url(#gradient5)" fill-rule="evenodd" stroke="none"/>
    <path d="M-20.0 0.0 L0.0 0.0 -12.5 15.65 -14.15 14.15 Q-20.0 8.3 -20.0 0.0" fill="url(#gradient6)" fill-rule="evenodd" stroke="none"/>
    <path d="M0.0 20.0 Q-7.15 20.0 -12.5 15.65 L0.0 0.0 4.35 19.6 0.0 20.0" fill="url(#gradient7)" fill-rule="evenodd" stroke="none"/>
    <path d="M18.1 8.65 Q16.65 11.65 14.15 14.15 9.9 18.4 4.35 19.6 L0.0 0.0 18.1 8.65" fill="url(#gradient8)" fill-rule="evenodd" stroke="none"/>
    <path d="M0.0 0.0 L18.1 -8.7 Q20.0 -4.75 20.0 0.0 20.0 4.75 18.1 8.65 L0.0 0.0" fill="url(#gradient9)" fill-rule="evenodd" stroke="none"/>
    <path d="M14.15 -14.15 Q16.65 -11.65 18.1 -8.7 L0.0 0.0 4.9 -19.45 Q10.1 -18.2 14.15 -14.15" fill="url(#gradient10)" fill-rule="evenodd" stroke="none"/>
    <path d="M2.35 -11.0 L5.65 -19.15 3.75 -9.15 9.25 -17.65 5.45 -8.25 12.55 -15.55 6.95 -7.05 15.35 -12.8 8.2 -5.5 17.55 -9.5 12.05 -5.8 0.0 0.0 2.35 -11.0" fill="url(#gradient11)" fill-rule="evenodd" stroke="none"/>
    <path d="M12.05 -5.8 L9.15 -3.85 19.05 -5.95 9.75 -2.05 19.85 -2.1 9.9 -0.1 19.85 1.8 9.75 1.85 19.15 5.65 9.15 3.75 13.1 6.3 0.0 0.0 12.05 -5.8" fill="url(#gradient12)" fill-rule="evenodd" stroke="none"/>
    <path d="M13.1 6.3 L17.65 9.25 8.25 5.45 15.55 12.55 7.05 6.95 12.8 15.35 5.5 8.2 9.5 17.55 3.85 9.15 5.95 19.05 2.3 10.35 0.0 0.0 13.1 6.3" fill="url(#gradient13)" fill-rule="evenodd" stroke="none"/>
    <path d="M2.3 10.35 L2.05 9.75 2.1 19.85 0.1 9.9 -1.8 19.85 -1.85 9.75 -5.65 19.15 -3.75 9.15 -9.25 17.65 -5.45 8.25 -11.25 14.25 0.0 0.0 2.3 10.35" fill="url(#gradient14)" fill-rule="evenodd" stroke="none"/>
    <path d="M-11.25 14.25 L-12.55 15.55 -6.95 7.05 -15.35 12.8 -8.2 5.5 -17.55 9.5 -9.15 3.85 -19.05 5.95 -9.75 2.05 -19.85 2.1 -9.9 0.1 -10.4 0.0 0.0 0.0 -11.25 14.25" fill="url(#gradient15)" fill-rule="evenodd" stroke="none"/>
    <path d="M-10.4 0.0 L-19.85 -1.8 -9.75 -1.85 -19.15 -5.65 -9.15 -3.75 -17.65 -9.25 -8.25 -5.45 -15.55 -12.55 -7.05 -6.95 -12.8 -15.35 -9.9 -12.5 0.0 0.0 -10.4 0.0" fill="url(#gradient16)" fill-rule="evenodd" stroke="none"/>
    <path d="M-9.9 -12.5 L-5.5 -8.2 -9.5 -17.55 -3.85 -9.15 -5.95 -19.05 -2.05 -9.75 -2.1 -19.85 -0.1 -9.9 1.8 -19.85 1.85 -9.75 2.35 -11.0 0.0 0.0 -9.9 -12.5" fill="url(#gradient17)" fill-rule="evenodd" stroke="none"/>
    <path d="M5.65 -5.65 Q8.0 -3.3 8.0 0.0 8.0 3.3 5.65 5.65 3.3 8.0 0.0 8.0 -3.3 8.0 -5.65 5.65 -8.0 3.3 -8.0 0.0 -8.0 -3.3 -5.65 -5.65 -3.3 -8.0 0.0 -8.0 3.3 -8.0 5.65 -5.65" fill="#000000" fill-rule="evenodd" stroke="none"/>
    <path d="M34.9 -1.75 Q35.2 -0.5 34.65 0.55 34.15 1.65 33.05 1.85 32.0 2.15 31.0 1.45 30.1 0.75 29.8 -0.5 29.45 -1.75 30.0 -2.8 30.5 -3.85 31.6 -4.1 L33.6 -3.75 Q34.55 -3.0 34.9 -1.75" fill="url(#gradient18)" fill-rule="evenodd" stroke="none"/>
    <path d="M0.0 42.0 Q-7.6 41.55 -13.4 39.65 -21.8 36.95 -28.0 31.0 L-10.0 8.0 Q-5.65 10.55 0.0 11.0 5.65 10.55 10.0 8.0 L29.0 30.0 Q21.55 37.0 13.2 39.75 7.9 41.55 0.0 42.0" fill="url(#gradient19)" fill-rule="evenodd" stroke="none"/>
    <path d="M-6.0 -4.0 Q-8.1 -4.0 -9.6 -5.5 -11.0 -6.9 -11.0 -9.0 -11.0 -11.1 -9.6 -12.6 -8.1 -14.0 -6.0 -14.0 -3.9 -14.0 -2.5 -12.6 -1.0 -11.1 -1.0 -9.0 -1.0 -6.9 -2.5 -5.5 -3.9 -4.0 -6.0 -4.0" fill="url(#gradient20)" fill-rule="evenodd" stroke="none"/>
  </g>
  <defs>
    <radialGradient cx="0" cy="0" gradientTransform="matrix(0.0516, 0.0, 0.0, 0.0516, -1.0, -5.5)" gradientUnits="userSpaceOnUse" id="gradient0" r="819.2" spreadMethod="pad">
      <stop offset="0.807843137254902" stop-color="#ffffff"/>
      <stop offset="1.0" stop-color="#e1e1ea"/>
    </radialGradient>
    <radialGradient cx="0" cy="0" gradientTransform="matrix(0.0467, 0.0, 0.0, 0.0467, -0.9, -5.0)" gradientUnits="userSpaceOnUse" id="gradient1" r="819.2" spreadMethod="pad">
      <stop offset="0.7843137254901961" stop-color="#ffffff"/>
      <stop offset="0.792156862745098" stop-color="#f9f9fb"/>
      <stop offset="1.0" stop-color="#d5d5e1"/>
    </radialGradient>
    <linearGradient gradientTransform="matrix(-0.0147, -0.051, 0.0463, -0.0133, 0.0, 0.0)" gradientUnits="userSpaceOnUse" id="gradient2" spreadMethod="pad" x1="-819.2" x2="819.2">
      <stop offset="0.0" stop-color="#ffffff" stop-opacity="0.0"/>
      <stop offset="0.09019607843137255" stop-color="#e8e3d7" stop-opacity="0.0"/>
      <stop offset="0.8431372549019608" stop-color="#ffffff"/>
      <stop offset="1.0" stop-color="#f8f8f8"/>
    </linearGradient>
    <radialGradient cx="0" cy="0" gradientTransform="matrix(0.0287, 0.0, 0.0, 0.0287, 0.0, 0.0)" gradientUnits="userSpaceOnUse" id="gradient3" r="819.2" spreadMethod="pad">
      <stop offset="0.796078431372549" stop-color="#572d04"/>
      <stop offset="0.9372549019607843" stop-color="#211001"/>
    </radialGradient>
    <linearGradient gradientTransform="matrix(0.0073, -9.0E-4, 0.0014, 0.0121, -2.8, -10.5)" gradientUnits="userSpaceOnUse" id="gradient4" spreadMethod="pad" x1="-819.2" x2="819.2">
      <stop offset="0.0" stop-color="#6f5694"/>
      <stop offset="1.0" stop-color="#b72525"/>
    </linearGradient>
    <linearGradient gradientTransform="matrix(0.0022, -0.0047, 0.0086, 0.0039, -11.55, -5.8)" gradientUnits="userSpaceOnUse" id="gradient5" spreadMethod="pad" x1="-819.2" x2="819.2">
      <stop offset="0.0" stop-color="#4740aa"/>
      <stop offset="1.0" stop-color="#6f5694"/>
    </linearGradient>
    <linearGradient gradientTransform="matrix(0.0034, 0.0042, -0.0074, 0.006, -11.4, 6.7)" gradientUnits="userSpaceOnUse" id="gradient6" spreadMethod="pad" x1="-819.2" x2="819.2">
      <stop offset="0.0" stop-color="#4740aa"/>
      <stop offset="1.0" stop-color="#15c6c5"/>
    </linearGradient>
    <linearGradient gradientTransform="matrix(0.0051, 0.0011, -0.0025, 0.0119, -2.65, 11.2)" gradientUnits="userSpaceOnUse" id="gradient7" spreadMethod="pad" x1="-819.2" x2="819.2">
      <stop offset="0.0" stop-color="#14c7c7"/>
      <stop offset="1.0" stop-color="#70c51b"/>
    </linearGradient>
    <linearGradient gradientTransform="matrix(-0.0043, 0.0047, -0.0089, -0.008, 3.45, 5.95)" gradientUnits="userSpaceOnUse" id="gradient8" spreadMethod="pad" x1="-819.2" x2="819.2">
      <stop offset="0.0" stop-color="#d9d902"/>
      <stop offset="1.0" stop-color="#70c51b"/>
    </linearGradient>
    <linearGradient gradientTransform="matrix(0.0, 0.0054, -0.0106, 0.0, 10.0, -0.05)" gradientUnits="userSpaceOnUse" id="gradient9" spreadMethod="pad" x1="-819.2" x2="819.2">
      <stop offset="0.0" stop-color="#c8721a"/>
      <stop offset="1.0" stop-color="#d9d902"/>
    </linearGradient>
    <linearGradient gradientTransform="matrix(0.0037, 0.0036, -0.0082, 0.0085, 8.75, -9.8)" gradientUnits="userSpaceOnUse" id="gradient10" spreadMethod="pad" x1="-819.2" x2="819.2">
      <stop offset="0.0" stop-color="#b72525"/>
      <stop offset="1.0" stop-color="#c7711b"/>
    </linearGradient>
    <linearGradient gradientTransform="matrix(0.0052, 0.0045, -0.0076, 0.0089, 8.75, -9.75)" gradientUnits="userSpaceOnUse" id="gradient11" spreadMethod="pad" x1="-819.2" x2="819.2">
      <stop offset="0.0" stop-color="#ef4032"/>
      <stop offset="1.0" stop-color="#e4a045"/>
    </linearGradient>
    <linearGradient gradientTransform="matrix(-3.0E-4, 0.0056, -0.0075, -4.0E-4, 9.95, 0.2)" gradientUnits="userSpaceOnUse" id="gradient12" spreadMethod="pad" x1="-819.2" x2="819.2">
      <stop offset="0.0" stop-color="#e68e41"/>
      <stop offset="1.0" stop-color="#fcfc1f"/>
    </linearGradient>
    <linearGradient gradientTransform="matrix(-0.0048, 0.0048, -0.0082, -0.0082, 8.8, 9.5)" gradientUnits="userSpaceOnUse" id="gradient13" spreadMethod="pad" x1="-819.2" x2="819.2">
      <stop offset="0.0" stop-color="#f8e924"/>
      <stop offset="1.0" stop-color="#99e64a"/>
    </linearGradient>
    <linearGradient gradientTransform="matrix(0.0069, 5.0E-4, -0.001, 0.0121, -2.55, 10.2)" gradientUnits="userSpaceOnUse" id="gradient14" spreadMethod="pad" x1="-819.2" x2="819.2">
      <stop offset="0.0" stop-color="#24e8e8"/>
      <stop offset="1.0" stop-color="#99e64a"/>
    </linearGradient>
    <linearGradient gradientTransform="matrix(0.0039, 0.0042, -0.0069, 0.0065, -12.6, 5.85)" gradientUnits="userSpaceOnUse" id="gradient15" spreadMethod="pad" x1="-819.2" x2="819.2">
      <stop offset="0.0" stop-color="#7576ca"/>
      <stop offset="1.0" stop-color="#1adddc"/>
    </linearGradient>
    <linearGradient gradientTransform="matrix(0.0034, -0.0061, 0.0081, 0.0046, -12.9, -6.35)" gradientUnits="userSpaceOnUse" id="gradient16" spreadMethod="pad" x1="-819.2" x2="819.2">
      <stop offset="0.0" stop-color="#707bca"/>
      <stop offset="1.0" stop-color="#9283b4"/>
    </linearGradient>
    <linearGradient gradientTransform="matrix(0.0046, -0.0011, 0.0028, 0.0118, -2.5, -10.25)" gradientUnits="userSpaceOnUse" id="gradient17" spreadMethod="pad" x1="-819.2" x2="819.2">
      <stop offset="0.0" stop-color="#8a81b9"/>
      <stop offset="1.0" stop-color="#ee4432"/>
    </linearGradient>
    <radialGradient cx="0" cy="0" gradientTransform="matrix(0.0028, -3.0E-4, 4.0E-4, 0.0037, 32.3, -1.1)" gradientUnits="userSpaceOnUse" id="gradient18" r="819.2" spreadMethod="pad">
      <stop offset="0.8431372549019608" stop-color="#ffffff" stop-opacity="0.84313726"/>
      <stop offset="0.9372549019607843" stop-color="#ffffff" stop-opacity="0.0"/>
    </radialGradient>
    <linearGradient gradientTransform="matrix(0.0, -0.0208, 0.0139, 0.0, -1.0, 25.1)" gradientUnits="userSpaceOnUse" id="gradient19" spreadMethod="pad" x1="-819.2" x2="819.2">
      <stop offset="0.5686274509803921" stop-color="#ffffff" stop-opacity="0.28235295"/>
      <stop offset="0.9058823529411765" stop-color="#dff8dc" stop-opacity="0.4"/>
    </linearGradient>
    <radialGradient cx="0" cy="0" gradientTransform="matrix(0.0063, 0.0, 0.0, 0.0063, -6.0, -9.0)" gradientUnits="userSpaceOnUse" id="gradient20" r="819.2" spreadMethod="pad">
      <stop offset="0.796078431372549" stop-color="#ffffff"/>
      <stop offset="1.0" stop-color="#ffffff" stop-opacity="0.0"/>
    </radialGradient>
  </defs>
</svg>
