<?xml version="1.0" encoding="UTF-8" standalone="no"?>
<svg xmlns:xlink="http://www.w3.org/1999/xlink" height="50.0px" width="44.0px" xmlns="http://www.w3.org/2000/svg">
  <g transform="matrix(1.0, 0.0, 0.0, 1.0, 3.05, 15.05)">
    <path d="M40.95 -12.05 L40.95 31.95 Q40.95 34.95 37.95 34.95 L-0.05 34.95 Q-3.05 34.95 -3.05 31.95 L-3.05 -12.05 Q-3.05 -15.05 -0.05 -15.05 L37.95 -15.05 Q40.95 -15.05 40.95 -12.05 M35.95 0.95 L1.95 0.95 Q0.95 0.95 0.95 1.95 L0.95 29.95 Q0.95 30.95 1.95 30.95 L35.95 30.95 Q36.95 30.95 36.95 29.95 L36.95 1.95 Q36.95 0.95 35.95 0.95" fill="#000000" fill-rule="evenodd" stroke="none"/>
    <path d="M37.95 -14.05 Q39.95 -14.05 39.95 -12.05 L39.95 31.95 Q39.95 33.95 37.95 33.95 L-0.05 33.95 Q-2.05 33.95 -2.05 31.95 L-2.05 -12.05 Q-2.05 -14.05 -0.05 -14.05 L37.95 -14.05 M1.95 -0.05 Q-0.05 -0.05 -0.05 1.95 L-0.05 29.95 Q-0.05 31.95 1.95 31.95 L35.95 31.95 Q37.95 31.95 37.95 29.95 L37.95 1.95 Q37.95 -0.05 35.95 -0.05 L1.95 -0.05" fill="#ff00ff" fill-rule="evenodd" stroke="none"/>
  </g>
</svg>
