<?xml version="1.0" encoding="UTF-8" standalone="no"?>
<svg xmlns:xlink="http://www.w3.org/1999/xlink" height="74.0px" width="56.0px" xmlns="http://www.w3.org/2000/svg">
  <g transform="matrix(1.0, 0.0, 0.0, 1.0, 3.0, 15.0)">
    <path d="M53.0 -12.0 L53.0 56.0 Q53.0 59.0 50.0 59.0 L0.0 59.0 Q-3.0 59.0 -3.0 56.0 L-3.0 -12.0 Q-3.0 -15.0 0.0 -15.0 L50.0 -15.0 Q53.0 -15.0 53.0 -12.0 M48.0 1.0 L2.0 1.0 Q1.0 1.0 1.0 2.0 L1.0 54.0 Q1.0 55.0 2.0 55.0 L48.0 55.0 Q49.0 55.0 49.0 54.0 L49.0 2.0 Q49.0 1.0 48.0 1.0" fill="#000000" fill-rule="evenodd" stroke="none"/>
    <path d="M50.0 -14.0 Q52.0 -14.0 52.0 -12.0 L52.0 56.0 Q52.0 58.0 50.0 58.0 L0.0 58.0 Q-2.0 58.0 -2.0 56.0 L-2.0 -12.0 Q-2.0 -14.0 0.0 -14.0 L50.0 -14.0 M48.0 0.0 L2.0 0.0 Q0.0 0.0 0.0 2.0 L0.0 54.0 Q0.0 56.0 2.0 56.0 L48.0 56.0 Q50.0 56.0 50.0 54.0 L50.0 2.0 Q50.0 0.0 48.0 0.0" fill="#ff00ff" fill-rule="evenodd" stroke="none"/>
  </g>
</svg>
