<?xml version="1.0" encoding="UTF-8" standalone="no"?>
<svg xmlns:xlink="http://www.w3.org/1999/xlink" height="46.85px" width="46.85px" xmlns="http://www.w3.org/2000/svg">
  <g transform="matrix(1.0, 0.0, 0.0, 1.0, -1.55, -1.5)">
    <path d="M48.25 1.65 Q48.65 2.1 47.5 3.95 L43.0 9.85 41.25 11.85 36.0 17.8 29.15 24.95 29.3 25.1 36.45 32.6 41.45 38.3 43.0 40.05 Q46.45 44.15 47.7 46.2 48.65 47.8 48.3 48.2 L47.75 48.35 Q47.0 48.3 45.4 47.25 43.4 45.95 40.0 43.1 L37.7 41.1 32.15 36.15 25.1 29.45 24.85 29.25 17.7 36.1 12.2 40.95 9.9 42.95 4.2 47.4 Q2.15 48.65 1.7 48.2 1.2 47.7 2.4 45.8 3.65 43.75 6.95 39.9 L8.75 37.8 13.4 32.5 19.95 25.7 20.6 24.9 14.25 18.25 9.1 12.45 6.9 9.9 2.85 4.75 Q1.6 2.85 1.65 2.1 1.65 1.85 1.8 1.7 2.3 1.35 4.1 2.5 L9.95 7.0 11.95 8.75 17.65 13.8 24.65 20.45 24.9 20.65 32.2 13.65 37.85 8.65 40.0 6.85 Q43.7 3.75 45.75 2.45 47.75 1.15 48.25 1.65" fill="#cc0000" fill-rule="evenodd" stroke="none"/>
  </g>
</svg>
