<?xml version="1.0" encoding="UTF-8" standalone="no"?>
<svg xmlns:xlink="http://www.w3.org/1999/xlink" height="60.2px" width="36.4px" xmlns="http://www.w3.org/2000/svg">
  <g transform="matrix(1.0, 0.0, 0.0, 1.0, 20.4, 30.5)">
    <path d="M12.35 -30.45 L12.9 -27.85 8.7 -27.2 8.95 -29.1 9.4 -30.5 12.35 -30.45 M8.55 -10.15 L10.2 -6.45 8.9 -6.15 6.65 -5.8 6.05 -7.8 5.8 -8.8 7.05 -9.45 8.55 -10.15 M15.1 10.2 L15.9 13.65 16.0 13.8 14.8 14.3 14.1 12.55 13.55 11.35 15.1 10.2 M10.85 15.75 L10.3 14.3 11.65 13.1 12.2 14.35 12.9 16.1 11.3 16.8 10.85 15.75 M-14.7 -8.5 L-14.75 -8.25 -15.1 -6.3 -16.85 -6.3 -18.65 -6.4 -18.75 -6.65 -19.0 -8.15 -16.55 -8.35 -14.7 -8.5 M-17.2 -13.7 L-16.85 -13.25 -15.8 -11.9 -16.0 -10.85 -17.8 -10.75 -20.25 -10.5 -20.4 -12.25 -17.2 -13.7 M-11.35 -26.85 L-12.35 -26.6 -12.15 -28.55 -12.1 -29.85 -11.55 -30.0 -10.35 -29.3 Q-8.9 -28.35 -8.5 -27.5 L-11.35 -26.85 M-16.95 -26.1 L-15.4 -26.7 -13.65 -27.2 -13.7 -25.9 -13.85 -23.95 -15.0 -23.7 -16.1 -25.0 -16.95 -26.1 M-5.7 5.1 L-5.25 3.7 -2.3 3.75 -1.75 6.35 -5.95 7.0 -5.7 5.1 M-11.5 26.9 L-11.3 27.3 -9.75 29.55 -13.95 29.7 -14.4 28.6 -11.5 26.9 M-17.55 24.8 L-14.85 24.5 -13.8 25.9 -16.7 27.6 -17.55 24.8" fill="#e7e4de" fill-rule="evenodd" stroke="none"/>
  </g>
</svg>
