<?xml version="1.0" encoding="UTF-8" standalone="no"?>
<svg xmlns:xlink="http://www.w3.org/1999/xlink" height="64.1px" width="760.0px" xmlns="http://www.w3.org/2000/svg">
  <g transform="matrix(1.0, 0.0, 0.0, 1.0, 0.0, 0.1)">
    <path d="M436.0 -0.1 L760.0 0.0 760.0 64.0 436.0 63.9 405.0 32.9 404.0 31.9 405.0 30.9 436.0 -0.1 M424.7 63.9 L398.1 63.9 366.1 31.9 398.1 -0.1 424.7 -0.1 393.95 31.95 424.7 63.9" fill="#000000" fill-rule="evenodd" stroke="none"/>
    <path d="M424.7 -0.1 L436.0 -0.1 405.0 30.9 404.0 31.9 405.0 32.9 436.0 63.9 424.7 63.9 393.95 31.95 424.7 -0.1 M398.1 63.9 L0.0 63.9 0.0 -0.1 398.1 -0.1 366.1 31.9 398.1 63.9" fill="#6f6f6f" fill-rule="evenodd" stroke="none"/>
  </g>
</svg>
