<?xml version="1.0" encoding="UTF-8" standalone="no"?>
<svg xmlns:xlink="http://www.w3.org/1999/xlink" height="110.85px" width="132.3px" xmlns="http://www.w3.org/2000/svg">
  <g transform="matrix(1.0, 0.0, 0.0, 1.0, 0.5, 110.35)">
    <path d="M126.45 -100.65 Q123.75 -96.55 121.3 -93.5 118.35 -89.85 114.55 -86.25 L108.9 -81.3 107.85 -80.35 107.85 -78.85 107.95 -77.7 Q107.65 -77.85 105.75 -77.1 L103.15 -76.2 93.4 -67.7 Q84.95 -60.4 75.65 -53.05 L67.95 -46.5 67.2 -45.85 67.1 -43.4 67.15 -41.0 Q64.6 -41.4 59.9 -40.95 L59.15 -40.55 Q55.9 -38.85 51.6 -34.65 46.75 -29.9 43.9 -28.0 L34.7 -21.5 Q27.35 -16.2 21.4 -12.25 19.85 -11.2 14.15 -5.1 9.4 0.0 7.8 0.0 5.2 0.0 2.65 -4.0 0.4 -7.55 0.4 -9.75 L0.0 -13.75 29.15 -37.4 31.05 -41.45 Q32.8 -45.1 32.65 -45.7 L38.8 -45.55 51.4 -55.05 Q63.0 -63.6 66.65 -66.55 L69.15 -68.55 70.35 -71.2 71.65 -74.3 75.15 -73.9 75.95 -73.8 82.4 -78.75 93.25 -87.1 Q94.25 -90.45 94.8 -90.55 L97.45 -90.9 102.05 -94.25 Q105.8 -97.4 114.65 -102.6 124.75 -108.55 129.9 -109.8 130.4 -109.95 130.55 -109.55 130.75 -108.85 131.3 -108.35 L126.45 -100.65" fill="url(#gradient0)" fill-rule="evenodd" stroke="none"/>
    <path d="M126.45 -100.65 Q123.75 -96.55 121.3 -93.5 118.35 -89.85 114.55 -86.25 L108.9 -81.3 107.85 -80.35 107.85 -78.85 107.95 -77.7 Q107.65 -77.85 105.75 -77.1 L103.15 -76.2 93.4 -67.7 Q84.95 -60.4 75.65 -53.05 L67.95 -46.5 67.2 -45.85 67.1 -43.4 67.15 -41.0 Q64.6 -41.4 59.9 -40.95 L59.15 -40.55 Q55.9 -38.85 51.6 -34.65 46.75 -29.9 43.9 -28.0 L34.7 -21.5 Q27.35 -16.2 21.4 -12.25 19.85 -11.2 14.15 -5.1 9.4 0.0 7.8 0.0 5.2 0.0 2.65 -4.0 0.4 -7.55 0.4 -9.75 L0.0 -13.75 29.15 -37.4 31.05 -41.45 Q32.8 -45.1 32.65 -45.7 L38.8 -45.55 51.4 -55.05 Q63.0 -63.6 66.65 -66.55 L69.15 -68.55 70.35 -71.2 71.65 -74.3 75.15 -73.9 75.95 -73.8 82.4 -78.75 93.25 -87.1 Q94.25 -90.45 94.8 -90.55 L97.45 -90.9 102.05 -94.25 Q105.8 -97.4 114.65 -102.6 124.75 -108.55 129.9 -109.8 130.4 -109.95 130.55 -109.55 130.75 -108.85 131.3 -108.35 L126.45 -100.65 Z" fill="none" stroke="#ffcc33" stroke-linecap="round" stroke-linejoin="round" stroke-width="1.0"/>
  </g>
  <defs>
    <radialGradient cx="0" cy="0" gradientTransform="matrix(0.1764, -0.1487, 0.0774, 0.0918, 16.0, -16.0)" gradientUnits="userSpaceOnUse" id="gradient0" r="819.2" spreadMethod="pad">
      <stop offset="0.0" stop-color="#fefddc"/>
      <stop offset="0.37254901960784315" stop-color="#f9f868"/>
      <stop offset="0.7803921568627451" stop-color="#f5bb50"/>
      <stop offset="1.0" stop-color="#f5bb50" stop-opacity="0.0"/>
    </radialGradient>
  </defs>
</svg>
