<?xml version="1.0" encoding="UTF-8" standalone="no"?>
<svg xmlns:xlink="http://www.w3.org/1999/xlink" height="105.0px" width="25.0px" xmlns="http://www.w3.org/2000/svg">
  <g transform="matrix(1.0, 0.0, 0.0, 1.0, 12.5, 52.5)">
    <path d="M6.25 -51.1 L7.6 -48.4 8.5 -48.0 8.55 -47.95 9.4 -46.65 9.4 -46.7 12.4 -36.7 12.4 -36.75 Q12.65 -35.95 12.4 -35.15 L12.35 -35.1 Q12.05 -34.35 11.4 -33.9 L11.35 -33.85 10.25 -33.05 10.35 -32.9 10.35 -32.85 Q10.6 -32.15 10.45 -31.4 L10.45 -31.35 9.5 -27.65 9.5 33.05 9.45 33.5 9.5 34.0 9.5 38.05 Q9.5 39.05 8.8 39.75 L8.75 39.8 8.2 40.2 7.8 40.75 7.75 40.8 7.5 41.0 7.5 41.05 Q7.5 42.05 6.8 42.75 L6.75 42.8 6.5 43.05 6.5 43.55 6.5 43.75 6.5 43.8 6.1 48.6 Q6.0 52.5 2.0 52.5 L-2.0 52.5 Q-6.0 52.5 -6.1 48.6 L-6.5 43.8 -6.5 43.75 -6.5 43.6 -6.45 43.05 -6.75 42.8 -6.75 42.75 Q-7.5 42.05 -7.5 41.05 L-7.5 41.0 -7.75 40.8 -7.75 40.75 -8.2 40.2 -8.75 39.8 -8.75 39.75 Q-9.5 39.05 -9.5 38.05 L-9.5 34.0 -9.45 33.5 -9.5 33.05 -9.5 -27.65 -10.4 -31.35 -10.45 -31.4 Q-10.6 -32.15 -10.35 -32.85 L-10.3 -32.9 -10.25 -33.05 -11.35 -33.85 -11.35 -33.9 Q-12.05 -34.35 -12.35 -35.1 L-12.35 -35.15 Q-12.65 -35.95 -12.35 -36.75 L-12.35 -36.7 -9.35 -46.7 -9.4 -46.65 Q-9.15 -47.45 -8.5 -47.95 L-8.5 -48.0 -7.6 -48.4 -6.25 -51.1 -6.2 -51.15 -5.3 -52.1 Q-4.7 -52.5 -4.0 -52.5 L-2.95 -52.5 -2.0 -52.3 -1.0 -52.5 1.05 -52.5 2.0 -52.3 3.0 -52.5 4.0 -52.5 5.35 -52.1 5.3 -52.1 6.25 -51.15 6.25 -51.1" fill="#000000" fill-rule="evenodd" stroke="none"/>
    <path d="M4.0 43.6 L3.6 48.4 Q3.6 50.0 2.0 50.0 L-2.0 50.0 Q-3.6 50.0 -3.6 48.4 L-4.0 43.6 Q-4.0 42.0 -2.4 42.0 L2.4 42.0 Q4.0 42.0 4.0 43.6 M2.6 48.3 L3.0 43.7 Q3.0 43.0 2.3 43.0 L-2.3 43.0 Q-3.0 43.0 -3.0 43.7 L-2.6 48.3 Q-2.6 49.0 -1.9 49.0 L1.9 49.0 Q2.6 49.0 2.6 48.3" fill="url(#gradient0)" fill-rule="evenodd" stroke="none"/>
    <path d="M-6.0 34.0 L-3.0 34.0 -3.0 39.0 -5.0 39.0 -6.0 39.0 Q-6.0 38.0 -7.0 38.0 L-7.0 34.0 -6.0 34.0" fill="url(#gradient1)" fill-rule="evenodd" stroke="none"/>
    <path d="M-3.0 34.0 L0.0 34.0 3.0 34.0 3.0 39.0 -3.0 39.0 -3.0 34.0" fill="url(#gradient2)" fill-rule="evenodd" stroke="none"/>
    <path d="M3.0 34.0 L6.0 34.0 7.0 34.0 7.0 38.0 Q6.0 38.0 6.0 39.0 L5.0 39.0 3.0 39.0 3.0 34.0" fill="url(#gradient3)" fill-rule="evenodd" stroke="none"/>
    <path d="M-3.0 39.0 L3.0 39.0 5.0 39.0 5.0 41.0 2.0 41.0 -2.0 41.0 -5.0 41.0 -5.0 39.0 -3.0 39.0" fill="url(#gradient4)" fill-rule="evenodd" stroke="none"/>
    <path d="M2.0 41.0 L2.0 44.0 -2.0 44.0 -2.0 41.0 2.0 41.0" fill="url(#gradient5)" fill-rule="evenodd" stroke="none"/>
    <path d="M3.0 34.0 L0.0 34.0 -3.0 34.0 -6.0 34.0 -6.0 33.0 6.0 33.0 6.0 34.0 3.0 34.0" fill="url(#gradient6)" fill-rule="evenodd" stroke="none"/>
    <path d="M2.0 36.0 L-2.0 36.0 -2.0 34.0 2.0 34.0 2.0 36.0" fill="url(#gradient7)" fill-rule="evenodd" stroke="none"/>
    <path d="M-2.2 3.3 L-2.0 3.4 -2.0 33.0 -3.0 33.0 -3.0 3.3 -2.95 3.05 -2.2 3.3" fill="#8296ae" fill-rule="evenodd" stroke="none"/>
    <path d="M-1.1 36.0 L-1.45 36.95 -1.55 36.95 -1.55 37.0 -3.0 35.55 -3.0 35.45 -2.0 35.1 -1.1 36.0" fill="#b5b5b5" fill-rule="evenodd" stroke="none"/>
    <path d="M-2.0 35.1 L-3.0 35.45 -3.0 34.0 -2.0 34.0 -2.0 35.1" fill="#c2c2c2" fill-rule="evenodd" stroke="none"/>
    <path d="M3.0 35.4 L2.0 35.1 2.0 34.0 3.0 34.0 3.0 35.4" fill="#404040" fill-rule="evenodd" stroke="none"/>
    <path d="M1.45 36.95 L1.15 36.0 2.0 35.1 3.0 35.4 1.45 36.95" fill="#464646" fill-rule="evenodd" stroke="none"/>
    <path d="M1.15 36.0 L1.45 36.95 -1.45 36.95 -1.1 36.0 1.1 36.0 1.15 36.0" fill="#757575" fill-rule="evenodd" stroke="none"/>
    <path d="M2.0 3.4 L3.0 3.05 3.0 3.3 3.0 26.45 3.0 33.0 2.0 33.0 2.0 3.4" fill="#323f4e" fill-rule="evenodd" stroke="none"/>
    <path d="M-2.2 3.3 L-2.95 3.05 -3.0 3.0 -2.95 3.0 Q-2.9 2.25 -2.35 1.65 -2.0 1.35 -1.6 1.2 L-1.1 2.5 -2.0 3.4 -2.2 3.3" fill="#69849c" fill-rule="evenodd" stroke="none"/>
    <path d="M2.0 3.4 L1.1 2.5 1.65 1.2 2.3 1.65 Q2.9 2.25 3.0 3.0 L3.0 3.05 2.0 3.4" fill="#242f37" fill-rule="evenodd" stroke="none"/>
    <path d="M-1.5 -28.0 L-1.5 1.5 -3.0 3.0 -3.0 33.0 -7.0 33.0 -7.0 -28.0 -1.5 -28.0" fill="url(#gradient8)" fill-rule="evenodd" stroke="none"/>
    <path d="M1.5 -28.0 L7.0 -28.0 7.0 33.0 3.0 33.0 3.0 3.0 1.5 1.5 1.5 -28.0" fill="url(#gradient9)" fill-rule="evenodd" stroke="none"/>
    <path d="M10.0 -36.0 Q6.95 -34.05 7.0 -32.0 L2.0 -32.0 2.0 -36.0 10.0 -36.0" fill="url(#gradient10)" fill-rule="evenodd" stroke="none"/>
    <path d="M-10.0 -36.0 L-2.0 -36.0 -2.0 -32.0 -7.0 -32.0 Q-6.95 -34.05 -10.0 -36.0" fill="url(#gradient11)" fill-rule="evenodd" stroke="none"/>
    <path d="M0.0 -36.0 L-10.0 -36.0 -7.0 -46.0 0.0 -46.0 0.0 -36.0" fill="url(#gradient12)" fill-rule="evenodd" stroke="none"/>
    <path d="M0.0 -36.0 L0.0 -46.0 7.0 -46.0 10.0 -36.0 0.0 -36.0" fill="url(#gradient13)" fill-rule="evenodd" stroke="none"/>
    <path d="M7.3 -45.0 L-7.3 -44.95 -7.0 -46.0 7.0 -46.0 7.3 -45.0" fill="#ffffff" fill-opacity="0.15294118" fill-rule="evenodd" stroke="none"/>
    <path d="M7.0 -38.0 L6.0 -38.0 6.0 -39.0 7.0 -39.0 7.0 -38.0 M6.0 -41.0 L5.0 -41.0 5.0 -42.0 6.0 -42.0 6.0 -41.0" fill="#4a4a4a" fill-rule="evenodd" stroke="none"/>
    <path d="M-6.0 -41.0 L-6.0 -42.0 -5.0 -42.0 -5.0 -41.0 -6.0 -41.0 M-7.0 -38.0 L-7.0 -39.0 -6.0 -39.0 -6.0 -38.0 -7.0 -38.0" fill="#000000" fill-rule="evenodd" stroke="none"/>
    <path d="M1.0 -46.0 L-1.0 -46.0 -1.0 -50.0 1.0 -50.0 1.0 -46.0" fill="url(#gradient14)" fill-rule="evenodd" stroke="none"/>
    <path d="M3.0 -50.0 L4.0 -50.0 6.0 -46.0 3.0 -46.0 3.0 -50.0" fill="url(#gradient15)" fill-rule="evenodd" stroke="none"/>
    <path d="M-3.0 -50.0 L-3.0 -46.0 -6.0 -46.0 -4.0 -50.0 -3.0 -50.0" fill="url(#gradient16)" fill-rule="evenodd" stroke="none"/>
    <path d="M5.1 -34.8 Q4.2 -33.65 4.0 -32.0 L2.0 -32.0 -2.0 -32.0 -4.0 -32.0 Q-4.2 -33.65 -5.1 -34.8 -5.95 -35.95 -7.0 -36.0 L0.0 -40.0 7.0 -36.0 Q5.95 -35.95 5.1 -34.8" fill="url(#gradient17)" fill-rule="evenodd" stroke="none"/>
    <path d="M4.0 -47.0 L7.0 -36.0 0.0 -40.0 -7.0 -36.0 -4.0 -47.0 0.0 -42.0 4.0 -47.0" fill="url(#gradient18)" fill-rule="evenodd" stroke="none"/>
    <path d="M4.0 -47.0 L0.0 -42.0 -4.0 -47.0 0.0 -47.0 4.0 -47.0" fill="#8f959a" fill-rule="evenodd" stroke="none"/>
    <path d="M1.0 -32.0 L8.0 -32.0 7.0 -28.0 1.0 -28.0 1.0 -32.0" fill="url(#gradient19)" fill-rule="evenodd" stroke="none"/>
    <path d="M-7.0 -28.0 L-8.0 -32.0 -1.0 -32.0 -1.0 -28.0 -7.0 -28.0" fill="url(#gradient20)" fill-rule="evenodd" stroke="none"/>
    <path d="M4.35 -35.4 Q3.9 -34.9 3.5 -33.8 3.05 -32.65 3.05 -32.0 L3.05 -28.0 1.0 -28.0 1.0 -30.0 -1.0 -30.0 -1.0 -28.0 -3.0 -28.0 -3.0 -32.0 -2.8 -32.0 -3.0 -32.0 Q-3.0 -32.65 -3.45 -33.8 -3.85 -34.9 -4.3 -35.4 L-5.75 -36.7 -3.2 -46.0 3.25 -46.0 5.8 -36.7 4.35 -35.4" fill="url(#gradient21)" fill-rule="evenodd" stroke="none"/>
    <path d="M-7.0 33.0 L-7.0 -28.0" fill="none" stroke="url(#gradient22)" stroke-linecap="round" stroke-linejoin="round" stroke-width="0.5"/>
    <path d="M7.0 33.0 L7.0 -28.0" fill="none" stroke="url(#gradient23)" stroke-linecap="round" stroke-linejoin="round" stroke-width="0.5"/>
    <path d="M-5.0 23.0 L-3.0 23.0 -3.0 24.0 -5.0 24.0 -5.0 23.0 M-5.0 20.0 L-3.0 20.0 -3.0 21.0 -5.0 21.0 -5.0 20.0 M-3.0 26.0 L-3.0 27.0 -5.0 27.0 -5.0 26.0 -3.0 26.0 M-3.0 29.0 L-3.0 30.0 -5.0 30.0 -5.0 29.0 -3.0 29.0" fill="#000000" fill-rule="evenodd" stroke="none"/>
    <path d="M3.0 23.0 L5.0 23.0 5.0 24.0 3.0 24.0 3.0 23.0 M3.0 20.0 L5.0 20.0 5.0 21.0 3.0 21.0 3.0 20.0 M5.0 27.0 L3.0 27.0 3.0 26.0 5.0 26.0 5.0 27.0 M5.0 30.0 L3.0 30.0 3.0 29.0 5.0 29.0 5.0 30.0" fill="#181818" fill-rule="evenodd" stroke="none"/>
    <path d="M5.0 24.0 L5.0 25.0 3.0 25.0 3.0 24.0 5.0 24.0 M5.0 22.0 L3.0 22.0 3.0 21.0 5.0 21.0 5.0 22.0 M5.0 30.0 L5.0 31.0 3.0 31.0 3.0 30.0 5.0 30.0 M3.0 27.0 L5.0 27.0 5.0 28.0 3.0 28.0 3.0 27.0 M-3.0 24.0 L-3.0 25.0 -5.0 25.0 -5.0 24.0 -3.0 24.0 M-3.0 22.0 L-5.0 22.0 -5.0 21.0 -3.0 21.0 -3.0 22.0 M-3.0 30.0 L-3.0 31.0 -5.0 31.0 -5.0 30.0 -3.0 30.0 M-3.0 28.0 L-5.0 28.0 -5.0 27.0 -3.0 27.0 -3.0 28.0" fill="#ffffff" fill-opacity="0.15294118" fill-rule="evenodd" stroke="none"/>
    <path d="M3.0 -36.0 L2.0 -36.0 2.0 -37.0 3.0 -37.0 3.0 -36.0 M-2.0 -36.0 L-3.0 -36.0 -3.0 -37.0 -2.0 -37.0 -2.0 -36.0" fill="#000000" fill-rule="evenodd" stroke="none"/>
    <path d="M1.2 -33.7 L1.5 -33.05 1.5 -32.9 1.5 0.55 0.0 0.6 -1.5 0.55 -1.5 -32.9 -1.5 -33.05 -1.2 -33.7 -0.65 -33.95 -0.5 -34.0 -0.5 -36.0 0.5 -36.0 0.5 -34.0 0.65 -33.95 1.2 -33.7" fill="#000000" fill-rule="evenodd" stroke="none"/>
    <path d="M1.15 -32.7 L1.5 -31.9 1.5 1.5 1.15 2.55 1.1 2.5 -1.1 2.5 -1.15 2.55 -1.5 1.5 -1.5 -31.9 -1.2 -32.7 -0.4 -33.0 0.4 -33.0 1.15 -32.7" fill="url(#gradient24)" fill-rule="evenodd" stroke="none"/>
    <path d="M0.0 -32.0 L0.35 -31.85 0.5 -31.5 0.5 2.5 -0.5 2.5 -0.5 -31.5 -0.35 -31.85 0.0 -32.0" fill="url(#gradient25)" fill-rule="evenodd" stroke="none"/>
    <path d="M2.0 3.4 L2.0 33.0 -2.0 33.0 -2.0 3.4 -1.1 2.5 1.1 2.5 2.0 3.4" fill="url(#gradient26)" fill-rule="evenodd" stroke="none"/>
    <path d="M7.0 -28.0 L7.0 -27.0 1.5 -27.0 1.5 -28.0 7.0 -28.0 M-7.0 -27.0 L-7.0 -28.0 -1.5 -28.0 -1.5 -27.0 -7.0 -27.0 M-3.0 42.0 L-2.0 42.0 -2.0 44.0 -3.0 44.0 -3.0 42.0 M-6.0 39.0 L6.0 39.0 6.0 40.0 -6.0 40.0 -6.0 39.0 M2.0 42.0 L3.0 42.0 3.0 44.0 2.0 44.0 2.0 42.0" fill="#000000" fill-opacity="0.2" fill-rule="evenodd" stroke="none"/>
  </g>
  <defs>
    <radialGradient cx="0" cy="0" gradientTransform="matrix(0.0076, 0.0, 0.0, 0.0099, 0.0, 48.0)" gradientUnits="userSpaceOnUse" id="gradient0" r="819.2" spreadMethod="pad">
      <stop offset="0.17254901960784313" stop-color="#e1e3e3"/>
      <stop offset="0.6627450980392157" stop-color="#a6a6a6"/>
      <stop offset="0.9725490196078431" stop-color="#666666"/>
      <stop offset="1.0" stop-color="#6c7275"/>
    </radialGradient>
    <linearGradient gradientTransform="matrix(-0.0024, 0.0, 0.0, -0.0031, -4.95, 31.5)" gradientUnits="userSpaceOnUse" id="gradient1" spreadMethod="pad" x1="-819.2" x2="819.2">
      <stop offset="0.0392156862745098" stop-color="#727b7e"/>
      <stop offset="1.0" stop-color="#575c60"/>
    </linearGradient>
    <linearGradient gradientTransform="matrix(0.0, -0.0031, 0.0031, 0.0, 0.0, 36.5)" gradientUnits="userSpaceOnUse" id="gradient2" spreadMethod="pad" x1="-819.2" x2="819.2">
      <stop offset="0.0" stop-color="#b5babb"/>
      <stop offset="0.8941176470588236" stop-color="#848b91"/>
    </linearGradient>
    <linearGradient gradientTransform="matrix(0.0, -0.0031, 0.0031, 0.0, 0.0, 36.5)" gradientUnits="userSpaceOnUse" id="gradient3" spreadMethod="pad" x1="-819.2" x2="819.2">
      <stop offset="0.17254901960784313" stop-color="#d9dcdd"/>
      <stop offset="0.9137254901960784" stop-color="#a7adad"/>
      <stop offset="1.0" stop-color="#b5b9bb"/>
    </linearGradient>
    <linearGradient gradientTransform="matrix(0.0061, 0.0, 0.0, 0.0012, 0.0, 40.0)" gradientUnits="userSpaceOnUse" id="gradient4" spreadMethod="pad" x1="-819.2" x2="819.2">
      <stop offset="0.0" stop-color="#848a91"/>
      <stop offset="0.08627450980392157" stop-color="#838383"/>
      <stop offset="0.2784313725490196" stop-color="#a8aeb3"/>
      <stop offset="0.4627450980392157" stop-color="#e1e3e3"/>
      <stop offset="0.5333333333333333" stop-color="#e1e3e3"/>
      <stop offset="0.6078431372549019" stop-color="#e1e3e3"/>
      <stop offset="0.7607843137254902" stop-color="#a8aeb3"/>
      <stop offset="0.9215686274509803" stop-color="#838383"/>
      <stop offset="1.0" stop-color="#848a91"/>
    </linearGradient>
    <linearGradient gradientTransform="matrix(0.0, 0.0018, -0.0018, 0.0, 0.0, 42.5)" gradientUnits="userSpaceOnUse" id="gradient5" spreadMethod="pad" x1="-819.2" x2="819.2">
      <stop offset="0.16862745098039217" stop-color="#515151"/>
      <stop offset="0.23529411764705882" stop-color="#6d6d6d"/>
      <stop offset="0.49411764705882355" stop-color="#a6a6a6"/>
      <stop offset="0.596078431372549" stop-color="#9b9b9b"/>
      <stop offset="0.7843137254901961" stop-color="#606060"/>
      <stop offset="0.8862745098039215" stop-color="#787878"/>
      <stop offset="1.0" stop-color="#787878"/>
    </linearGradient>
    <linearGradient gradientTransform="matrix(0.0073, 0.0, 0.0, 6.0E-4, 0.0, 33.5)" gradientUnits="userSpaceOnUse" id="gradient6" spreadMethod="pad" x1="-819.2" x2="819.2">
      <stop offset="0.0" stop-color="#303232"/>
      <stop offset="0.08627450980392157" stop-color="#404040"/>
      <stop offset="0.5019607843137255" stop-color="#4a5151"/>
      <stop offset="0.5725490196078431" stop-color="#474e4e"/>
      <stop offset="0.9215686274509803" stop-color="#404040"/>
      <stop offset="1.0" stop-color="#252727"/>
    </linearGradient>
    <linearGradient gradientTransform="matrix(0.003, 6.0E-4, -6.0E-4, 0.003, -0.3, 36.2)" gradientUnits="userSpaceOnUse" id="gradient7" spreadMethod="pad" x1="-819.2" x2="819.2">
      <stop offset="0.0" stop-color="#dee0e0"/>
      <stop offset="0.8941176470588236" stop-color="#9ea4a7"/>
    </linearGradient>
    <linearGradient color-interpolation="linearRGB" gradientTransform="matrix(-0.0187, 0.028, -0.0309, -0.0207, -5.4, 1.6)" gradientUnits="userSpaceOnUse" id="gradient8" spreadMethod="pad" x1="-819.2" x2="819.2">
      <stop offset="0.050980392156862744" stop-color="#273443"/>
      <stop offset="0.25098039215686274" stop-color="#293441"/>
      <stop offset="0.32941176470588235" stop-color="#232d38"/>
      <stop offset="0.6039215686274509" stop-color="#212834"/>
      <stop offset="0.8196078431372549" stop-color="#21273a"/>
    </linearGradient>
    <linearGradient color-interpolation="linearRGB" gradientTransform="matrix(-0.0209, 0.0215, -0.0267, -0.0259, 4.0, 2.5)" gradientUnits="userSpaceOnUse" id="gradient9" spreadMethod="pad" x1="-819.2" x2="819.2">
      <stop offset="0.0" stop-color="#43525f"/>
      <stop offset="0.16862745098039217" stop-color="#627088"/>
      <stop offset="0.25882352941176473" stop-color="#60758a"/>
      <stop offset="0.7294117647058823" stop-color="#48596f"/>
      <stop offset="0.8588235294117647" stop-color="#40556a"/>
      <stop offset="1.0" stop-color="#324454"/>
    </linearGradient>
    <linearGradient gradientTransform="matrix(0.0122, 0.0, 0.0, 0.0024, 0.0, -34.0)" gradientUnits="userSpaceOnUse" id="gradient10" spreadMethod="pad" x1="-819.2" x2="819.2">
      <stop offset="0.10588235294117647" stop-color="#767b81"/>
      <stop offset="0.2196078431372549" stop-color="#9ea3a7"/>
      <stop offset="1.0" stop-color="#3d4341"/>
    </linearGradient>
    <linearGradient gradientTransform="matrix(-0.0122, 1.0E-4, 0.0, -0.0024, 0.0, -34.0)" gradientUnits="userSpaceOnUse" id="gradient11" spreadMethod="pad" x1="-819.2" x2="819.2">
      <stop offset="0.10588235294117647" stop-color="#9ba0a4"/>
      <stop offset="0.2196078431372549" stop-color="#4e5254"/>
      <stop offset="1.0" stop-color="#262626"/>
    </linearGradient>
    <linearGradient gradientTransform="matrix(0.0049, 0.0, 0.0, 0.0061, -6.0, -40.0)" gradientUnits="userSpaceOnUse" id="gradient12" spreadMethod="pad" x1="-819.2" x2="819.2">
      <stop offset="0.0" stop-color="#4a5051"/>
      <stop offset="0.09019607843137255" stop-color="#4f5353"/>
      <stop offset="0.4588235294117647" stop-color="#666666"/>
      <stop offset="0.8196078431372549" stop-color="#787e7d"/>
      <stop offset="1.0" stop-color="#e1e3e3"/>
    </linearGradient>
    <linearGradient gradientTransform="matrix(0.0049, 0.0, 0.0, 0.0061, 6.0, -42.0)" gradientUnits="userSpaceOnUse" id="gradient13" spreadMethod="pad" x1="-819.2" x2="819.2">
      <stop offset="0.0" stop-color="#e1e3e3"/>
      <stop offset="0.30980392156862746" stop-color="#e1e3e3"/>
      <stop offset="0.596078431372549" stop-color="#b7bcbf"/>
      <stop offset="0.8980392156862745" stop-color="#b0b0b0"/>
      <stop offset="1.0" stop-color="#999c9d"/>
    </linearGradient>
    <linearGradient gradientTransform="matrix(0.0073, 0.0, 0.0, 0.0024, 0.0, -48.0)" gradientUnits="userSpaceOnUse" id="gradient14" spreadMethod="pad" x1="-819.2" x2="819.2">
      <stop offset="0.13725490196078433" stop-color="#7e7341"/>
      <stop offset="0.9803921568627451" stop-color="#bba566"/>
    </linearGradient>
    <linearGradient gradientTransform="matrix(0.0073, 0.0, 0.0, 0.0024, 0.0, -48.15)" gradientUnits="userSpaceOnUse" id="gradient15" spreadMethod="pad" x1="-819.2" x2="819.2">
      <stop offset="0.7686274509803922" stop-color="#6d5b3d"/>
      <stop offset="0.7803921568627451" stop-color="#95864f"/>
      <stop offset="0.8313725490196079" stop-color="#b09e6a"/>
      <stop offset="1.0" stop-color="#d5c8b0"/>
    </linearGradient>
    <linearGradient gradientTransform="matrix(0.0073, 0.0, 0.0, 0.0024, 0.0, -48.0)" gradientUnits="userSpaceOnUse" id="gradient16" spreadMethod="pad" x1="-819.2" x2="819.2">
      <stop offset="0.0" stop-color="#52452e"/>
      <stop offset="0.11764705882352941" stop-color="#7b6d44"/>
      <stop offset="0.21176470588235294" stop-color="#9a8a52"/>
      <stop offset="0.2196078431372549" stop-color="#b4a476"/>
    </linearGradient>
    <linearGradient gradientTransform="matrix(0.0053, -0.0067, 0.0038, 0.0031, -0.45, -35.75)" gradientUnits="userSpaceOnUse" id="gradient17" spreadMethod="pad" x1="-819.2" x2="819.2">
      <stop offset="0.11764705882352941" stop-color="#606060"/>
      <stop offset="0.3137254901960784" stop-color="#404040"/>
      <stop offset="0.4470588235294118" stop-color="#7b7b7b"/>
      <stop offset="0.9137254901960784" stop-color="#636363"/>
    </linearGradient>
    <linearGradient gradientTransform="matrix(0.0081, -0.0055, 0.0038, 0.0055, -2.5, -43.7)" gradientUnits="userSpaceOnUse" id="gradient18" spreadMethod="pad" x1="-819.2" x2="819.2">
      <stop offset="0.0196078431372549" stop-color="#555555"/>
      <stop offset="0.4588235294117647" stop-color="#9f9f9f"/>
      <stop offset="0.6392156862745098" stop-color="#bebebe"/>
      <stop offset="0.9725490196078431" stop-color="#f8f8f8"/>
    </linearGradient>
    <linearGradient gradientTransform="matrix(0.0043, 0.0, 0.0, 0.0024, 4.5, -30.0)" gradientUnits="userSpaceOnUse" id="gradient19" spreadMethod="pad" x1="-819.2" x2="819.2">
      <stop offset="0.0" stop-color="#afb7ba"/>
      <stop offset="0.8274509803921568" stop-color="#e0e3e4"/>
    </linearGradient>
    <linearGradient gradientTransform="matrix(0.0043, 0.0, 0.0, 0.0024, -4.5, -30.0)" gradientUnits="userSpaceOnUse" id="gradient20" spreadMethod="pad" x1="-819.2" x2="819.2">
      <stop offset="0.0" stop-color="#4d555e"/>
      <stop offset="0.9450980392156862" stop-color="#4a4a4a"/>
    </linearGradient>
    <linearGradient gradientTransform="matrix(0.0, -0.011, 0.011, 0.0, 0.0, -37.0)" gradientUnits="userSpaceOnUse" id="gradient21" spreadMethod="pad" x1="-819.2" x2="819.2">
      <stop offset="0.0" stop-color="#939c9d"/>
      <stop offset="0.3333333333333333" stop-color="#878a94"/>
      <stop offset="0.5607843137254902" stop-color="#878d94"/>
      <stop offset="0.8588235294117647" stop-color="#838383"/>
      <stop offset="1.0" stop-color="#81898b"/>
    </linearGradient>
    <linearGradient color-interpolation="linearRGB" gradientTransform="matrix(2.0E-4, -0.0372, 0.0375, 2.0E-4, 0.0, 2.5)" gradientUnits="userSpaceOnUse" id="gradient22" spreadMethod="pad" x1="-819.2" x2="819.2">
      <stop offset="0.0" stop-color="#303e56"/>
      <stop offset="0.18823529411764706" stop-color="#253545"/>
      <stop offset="0.30980392156862746" stop-color="#557595"/>
      <stop offset="0.6313725490196078" stop-color="#405571"/>
      <stop offset="0.8156862745098039" stop-color="#3e526c"/>
    </linearGradient>
    <linearGradient color-interpolation="linearRGB" gradientTransform="matrix(2.0E-4, -0.0372, 0.0375, 2.0E-4, 0.0, 2.5)" gradientUnits="userSpaceOnUse" id="gradient23" spreadMethod="pad" x1="-819.2" x2="819.2">
      <stop offset="0.0" stop-color="#42586f"/>
      <stop offset="0.18823529411764706" stop-color="#4f6386"/>
      <stop offset="0.2784313725490196" stop-color="#728ba3"/>
      <stop offset="0.40784313725490196" stop-color="#95aec6"/>
      <stop offset="0.6" stop-color="#899cb6"/>
      <stop offset="0.8196078431372549" stop-color="#678bad"/>
    </linearGradient>
    <linearGradient gradientTransform="matrix(0.0018, 0.0, 0.0, 0.0217, 0.0, -15.25)" gradientUnits="userSpaceOnUse" id="gradient24" spreadMethod="pad" x1="-819.2" x2="819.2">
      <stop offset="0.27058823529411763" stop-color="#8296ae"/>
      <stop offset="0.5294117647058824" stop-color="#4b6289"/>
      <stop offset="0.7098039215686275" stop-color="#323f4e"/>
    </linearGradient>
    <linearGradient color-interpolation="linearRGB" gradientTransform="matrix(0.0108, -0.0143, 0.0176, 0.0132, 0.0, -14.0)" gradientUnits="userSpaceOnUse" id="gradient25" spreadMethod="pad" x1="-819.2" x2="819.2">
      <stop offset="0.0" stop-color="#283239"/>
      <stop offset="0.18823529411764706" stop-color="#465664"/>
      <stop offset="0.47843137254901963" stop-color="#3c4e60"/>
      <stop offset="1.0" stop-color="#3f4f63"/>
    </linearGradient>
    <linearGradient gradientTransform="matrix(-0.0052, 0.0194, -0.018, -0.0048, 0.0, 17.75)" gradientUnits="userSpaceOnUse" id="gradient26" spreadMethod="pad" x1="-819.2" x2="819.2">
      <stop offset="0.047058823529411764" stop-color="#8f9aa0"/>
      <stop offset="0.5176470588235295" stop-color="#6c7783"/>
      <stop offset="0.8862745098039215" stop-color="#515560"/>
    </linearGradient>
  </defs>
</svg>
