<?xml version="1.0" encoding="UTF-8" standalone="no"?>
<svg xmlns:xlink="http://www.w3.org/1999/xlink" height="128.0px" width="128.0px" xmlns="http://www.w3.org/2000/svg">
  <g transform="matrix(1.0, 0.0, 0.0, 1.0, 64.0, 64.0)">
    <path d="M-64.0 -64.0 L64.0 -64.0 64.0 64.0 -64.0 64.0 -64.0 -64.0" fill="#38cd4e" fill-opacity="0.0" fill-rule="evenodd" stroke="none"/>
    <path d="M32.95 -32.9 Q46.55 -19.3 46.55 0.0 46.55 19.3 32.95 32.95 19.3 46.55 0.0 46.55 -19.3 46.55 -32.9 32.95 -46.55 19.3 -46.55 0.0 -46.55 -19.3 -32.9 -32.9 -19.3 -46.55 0.0 -46.55 19.3 -46.55 32.95 -32.9" fill="#000000" fill-rule="evenodd" stroke="none"/>
    <path d="M30.8 -30.8 Q43.55 -18.05 43.55 0.0 43.55 18.05 30.8 30.8 18.05 43.55 0.0 43.55 -18.05 43.55 -30.8 30.8 -43.55 18.05 -43.55 0.0 -43.55 -18.05 -30.8 -30.8 -18.05 -43.55 0.0 -43.55 18.05 -43.55 30.8 -30.8" fill="url(#gradient0)" fill-rule="evenodd" stroke="none"/>
    <path d="M30.7 -30.9 L31.2 -30.4 Q16.75 -33.5 -0.55 -33.5 -17.15 -33.5 -31.15 -30.6 L-30.9 -30.9 -29.15 -32.55 Q-15.95 -35.0 -0.55 -35.0 15.55 -35.0 29.25 -32.3 L30.7 -30.9 M30.7 30.7 L28.95 32.4 Q15.4 35.0 -0.55 35.0 -15.8 35.0 -28.9 32.6 L-30.9 30.7 Q-17.0 33.5 -0.55 33.5 16.6 33.5 30.95 30.45 L30.7 30.7" fill="#2e2927" fill-rule="evenodd" stroke="none"/>
  </g>
  <defs>
    <radialGradient cx="0" cy="0" gradientTransform="matrix(0.0626, 0.0, 0.0, 0.0626, -0.7, -13.15)" gradientUnits="userSpaceOnUse" id="gradient0" r="819.2" spreadMethod="pad">
      <stop offset="0.054901960784313725" stop-color="#dcddcc"/>
      <stop offset="0.17647058823529413" stop-color="#af9f8f"/>
      <stop offset="0.6078431372549019" stop-color="#625648"/>
      <stop offset="0.7647058823529411" stop-color="#655945"/>
      <stop offset="1.0" stop-color="#78715c"/>
    </radialGradient>
  </defs>
</svg>
