<?xml version="1.0" encoding="UTF-8" standalone="no"?>
<svg xmlns:xlink="http://www.w3.org/1999/xlink" height="34.0px" width="18.0px" xmlns="http://www.w3.org/2000/svg">
  <g transform="matrix(1.0, 0.0, 0.0, 1.0, 9.85, 17.0)">
    <path d="M-0.85 -17.0 Q2.9 -17.0 5.5 -12.05 8.15 -7.05 8.15 0.0 8.15 7.05 5.5 12.0 2.9 17.0 -0.85 17.0 -4.6 17.0 -7.25 12.0 -9.85 7.05 -9.85 0.0 -9.85 -7.05 -7.25 -12.05 -4.6 -17.0 -0.85 -17.0" fill="url(#gradient0)" fill-rule="evenodd" stroke="none"/>
    <path d="M5.65 -9.75 Q7.55 -5.55 7.55 0.25 7.55 6.05 5.65 10.05 3.75 14.0 0.45 14.0 -2.85 14.0 -5.2 9.9 -7.55 5.8 -7.55 0.0 -7.55 -5.8 -5.2 -9.9 -2.85 -14.0 0.45 -14.0 3.75 -14.0 5.65 -9.75" fill="url(#gradient1)" fill-rule="evenodd" stroke="none"/>
    <path d="M-1.8 -3.15 Q-2.85 -3.15 -3.6 -4.3 -4.3 -5.4 -4.3 -7.0 -4.3 -8.6 -3.6 -9.75 -2.85 -10.85 -1.8 -10.85 -0.75 -10.85 -0.05 -9.75 0.7 -8.6 0.7 -7.0 0.7 -5.4 -0.05 -4.3 -0.75 -3.15 -1.8 -3.15" fill="url(#gradient2)" fill-rule="evenodd" stroke="none"/>
  </g>
  <defs>
    <linearGradient gradientTransform="matrix(0.0, -0.0208, 0.0208, 0.0, -0.85, 0.0)" gradientUnits="userSpaceOnUse" id="gradient0" spreadMethod="pad" x1="-819.2" x2="819.2">
      <stop offset="0.20392156862745098" stop-color="#a59785"/>
      <stop offset="0.34509803921568627" stop-color="#625648"/>
      <stop offset="0.5529411764705883" stop-color="#625648"/>
      <stop offset="0.7647058823529411" stop-color="#443c33"/>
    </linearGradient>
    <radialGradient cx="0" cy="0" fx="524.8000000000001" fy="0" gradientTransform="matrix(0.0106, 0.0, 0.0, 0.017, 0.35, 0.0)" gradientUnits="userSpaceOnUse" id="gradient1" r="819.2" spreadMethod="pad">
      <stop offset="0.23529411764705882" stop-color="#3f0707"/>
      <stop offset="0.33725490196078434" stop-color="#6d0a0a"/>
      <stop offset="0.8274509803921568" stop-color="#ae1e1e"/>
      <stop offset="0.9215686274509803" stop-color="#d51515"/>
    </radialGradient>
    <radialGradient cx="0" cy="0" gradientTransform="matrix(0.0032, 0.0, 0.0, 0.0049, -1.8, -7.0)" gradientUnits="userSpaceOnUse" id="gradient2" r="819.2" spreadMethod="pad">
      <stop offset="0.3058823529411765" stop-color="#ffffff"/>
      <stop offset="1.0" stop-color="#ffffff" stop-opacity="0.0"/>
    </radialGradient>
  </defs>
</svg>
