<?xml version="1.0" encoding="UTF-8" standalone="no"?>
<svg xmlns:xlink="http://www.w3.org/1999/xlink" height="58.0px" width="18.0px" xmlns="http://www.w3.org/2000/svg">
  <g transform="matrix(1.0, 0.0, 0.0, 1.0, 9.0, 29.0)">
    <path d="M6.35 -26.95 Q9.0 -24.9 9.0 -22.0 9.0 -19.1 6.35 -17.05 3.75 -15.0 0.0 -15.0 -3.75 -15.0 -6.4 -17.05 -9.0 -19.1 -9.0 -22.0 -9.0 -24.9 -6.4 -26.95 -3.75 -29.0 0.0 -29.0 3.75 -29.0 6.35 -26.95" fill="#000000" fill-rule="evenodd" stroke="none"/>
    <path d="M6.35 26.95 Q3.75 29.0 0.0 29.0 -3.75 29.0 -6.4 26.95 -9.0 24.9 -9.0 22.0 -9.0 19.1 -6.4 17.05 -3.75 15.0 0.0 15.0 3.75 15.0 6.35 17.05 9.0 19.1 9.0 22.0 9.0 24.9 6.35 26.95" fill="#000000" fill-rule="evenodd" stroke="none"/>
    <path d="M4.95 -18.2 Q2.9 -16.7 0.0 -16.7 -2.9 -16.7 -4.95 -18.2 -7.0 -19.65 -7.0 -21.7 -7.0 -23.75 -4.95 -25.25 -2.9 -26.7 0.0 -26.7 2.9 -26.7 4.95 -25.25 7.0 -23.75 7.0 -21.7 7.0 -19.65 4.95 -18.2" fill="url(#gradient0)" fill-rule="evenodd" stroke="none"/>
    <path d="M4.95 17.9 Q7.0 19.35 7.0 21.4 7.0 23.45 4.95 24.95 2.9 26.4 0.0 26.4 -2.9 26.4 -4.95 24.95 -7.0 23.45 -7.0 21.4 -7.0 19.35 -4.95 17.9 -2.9 16.4 0.0 16.4 2.9 16.4 4.95 17.9" fill="url(#gradient1)" fill-rule="evenodd" stroke="none"/>
  </g>
  <defs>
    <linearGradient gradientTransform="matrix(0.0, 0.007, -0.0061, 0.0, 0.0, 21.35)" gradientUnits="userSpaceOnUse" id="gradient0" spreadMethod="pad" x1="-819.2" x2="819.2">
      <stop offset="0.0" stop-color="#e6e6e6"/>
      <stop offset="0.5333333333333333" stop-color="#cccccc"/>
      <stop offset="1.0" stop-color="#a3a3a3"/>
    </linearGradient>
    <linearGradient gradientTransform="matrix(0.0, -0.007, -0.0061, 0.0, 0.0, 21.45)" gradientUnits="userSpaceOnUse" id="gradient1" spreadMethod="pad" x1="-819.2" x2="819.2">
      <stop offset="0.0" stop-color="#e6e6e6"/>
      <stop offset="0.5333333333333333" stop-color="#cccccc"/>
      <stop offset="1.0" stop-color="#a3a3a3"/>
    </linearGradient>
  </defs>
</svg>
