<?xml version="1.0" encoding="UTF-8" standalone="no"?>
<svg xmlns:xlink="http://www.w3.org/1999/xlink" height="387.3px" width="473.15px" xmlns="http://www.w3.org/2000/svg">
  <g transform="matrix(1.0, 0.0, 0.0, 1.0, 54.85, 43.3)">
    <path d="M53.65 -10.4 Q134.7 23.4 140.15 26.75 141.75 27.7 202.3 82.15 262.9 136.6 264.35 138.4 265.55 139.95 277.7 194.2 289.85 248.45 289.6 251.2 291.0 250.2 332.3 247.35 L375.4 244.35 Q376.1 244.2 374.85 225.6 373.65 207.0 371.6 207.15 L359.35 209.3 348.6 211.25 Q347.2 211.3 346.05 189.8 344.95 168.85 345.55 166.45 345.65 166.1 372.1 166.25 399.2 166.35 402.4 167.65 406.65 169.35 406.25 174.25 L412.2 224.7 418.3 275.25 Q418.85 279.1 384.0 311.35 350.15 342.75 346.55 344.0 344.8 344.6 259.55 317.25 258.0 316.0 231.9 246.45 205.0 174.8 203.65 172.2 202.75 170.5 152.05 134.15 99.6 96.55 90.75 92.95 82.3 89.5 -54.85 21.25 L-28.35 -43.25 Q-27.8 -44.4 53.65 -10.4" fill="#00ff00" fill-rule="evenodd" stroke="none"/>
  </g>
</svg>
