<?xml version="1.0" encoding="UTF-8" standalone="no"?>
<svg xmlns:xlink="http://www.w3.org/1999/xlink" height="22.5px" width="760.0px" xmlns="http://www.w3.org/2000/svg">
  <g transform="matrix(1.0, 0.0, 0.0, 1.0, 0.0, 22.5)">
    <path d="M760.0 -3.0 L760.0 -1.0 406.0 -1.0 406.0 -3.0 760.0 -3.0 M354.0 -3.0 L354.0 -1.0 0.0 -1.0 0.0 -3.0 354.0 -3.0" fill="#d1d1d1" fill-rule="evenodd" stroke="none"/>
    <path d="M406.0 -3.0 L406.0 -4.0 760.0 -4.0 760.0 -3.0 406.0 -3.0 M0.0 -3.0 L0.0 -4.0 354.0 -4.0 354.0 -3.0 0.0 -3.0" fill="#a2a2a2" fill-rule="evenodd" stroke="none"/>
    <path d="M760.0 -5.0 L760.0 -4.0 406.0 -4.0 406.0 -1.0 760.0 -1.0 760.0 0.0 0.0 0.0 0.0 -1.0 354.0 -1.0 354.0 -4.0 0.0 -4.0 0.0 -5.0 760.0 -5.0" fill="#000000" fill-rule="evenodd" stroke="none"/>
    <path d="M355.0 -3.0 L356.0 -3.0 356.0 -4.0 357.0 -4.0 357.0 -3.0 358.0 -3.0 358.0 -2.0 357.0 -2.0 357.0 -1.0 356.0 -1.0 356.0 -2.0 355.0 -2.0 355.0 -3.0 M359.0 -3.0 L360.0 -3.0 360.0 -4.0 361.0 -4.0 361.0 -3.0 362.0 -3.0 362.0 -2.0 361.0 -2.0 361.0 -1.0 360.0 -1.0 360.0 -2.0 359.0 -2.0 359.0 -3.0 M364.0 -2.0 L363.0 -2.0 363.0 -3.0 364.0 -3.0 364.0 -4.0 365.0 -4.0 365.0 -3.0 366.0 -3.0 366.0 -2.0 365.0 -2.0 365.0 -1.0 364.0 -1.0 364.0 -2.0 M369.0 -4.0 L369.0 -3.0 370.0 -3.0 370.0 -2.0 369.0 -2.0 369.0 -1.0 368.0 -1.0 368.0 -2.0 367.0 -2.0 367.0 -3.0 368.0 -3.0 368.0 -4.0 369.0 -4.0 M392.0 -4.0 L392.0 -3.0 393.0 -3.0 393.0 -2.0 392.0 -2.0 392.0 -1.0 391.0 -1.0 391.0 -2.0 390.0 -2.0 390.0 -3.0 391.0 -3.0 391.0 -4.0 392.0 -4.0 M394.0 -3.0 L395.0 -3.0 395.0 -4.0 396.0 -4.0 396.0 -3.0 397.0 -3.0 397.0 -2.0 396.0 -2.0 396.0 -1.0 395.0 -1.0 395.0 -2.0 394.0 -2.0 394.0 -3.0 M399.0 -3.0 L399.0 -4.0 400.0 -4.0 400.0 -3.0 401.0 -3.0 401.0 -2.0 400.0 -2.0 400.0 -1.0 399.0 -1.0 399.0 -2.0 398.0 -2.0 398.0 -3.0 399.0 -3.0 M404.0 -4.0 L404.0 -3.0 405.0 -3.0 405.0 -2.0 404.0 -2.0 404.0 -1.0 403.0 -1.0 403.0 -2.0 402.0 -2.0 402.0 -3.0 403.0 -3.0 403.0 -4.0 404.0 -4.0" fill="#7c8e8f" fill-rule="evenodd" stroke="none"/>
    <path d="M739.95 -20.3 Q740.1 -19.95 739.9 -19.55 L735.9 -11.55 735.35 -11.05 734.55 -11.1 734.05 -11.65 Q733.9 -12.05 734.1 -12.45 L738.1 -20.45 Q738.3 -20.8 738.7 -20.95 L739.45 -20.9 739.95 -20.3" fill="#cccccc" fill-rule="evenodd" stroke="none"/>
    <path d="M739.95 -20.3 L739.45 -20.9 738.7 -20.95 Q738.3 -20.8 738.1 -20.45 L734.1 -12.45 Q733.9 -12.05 734.05 -11.65 L734.55 -11.1 735.35 -11.05 735.9 -11.55 739.9 -19.55 Q740.1 -19.95 739.95 -20.3 M33.1 -12.45 Q32.9 -12.05 33.05 -11.65 L33.55 -11.1 34.35 -11.05 34.9 -11.55 38.9 -19.55 Q39.1 -19.95 38.95 -20.3 L38.45 -20.9 37.7 -20.95 Q37.3 -20.8 37.1 -20.45 L33.1 -12.45" fill="none" stroke="#000000" stroke-linecap="round" stroke-linejoin="round" stroke-width="3.0"/>
    <path d="M33.1 -12.45 L37.1 -20.45 Q37.3 -20.8 37.7 -20.95 L38.45 -20.9 38.95 -20.3 Q39.1 -19.95 38.9 -19.55 L34.9 -11.55 34.35 -11.05 33.55 -11.1 33.05 -11.65 Q32.9 -12.05 33.1 -12.45 M739.95 -20.3 Q740.1 -19.95 739.9 -19.55 L735.9 -11.55 735.35 -11.05 734.55 -11.1 734.05 -11.65 Q733.9 -12.05 734.1 -12.45 L738.1 -20.45 Q738.3 -20.8 738.7 -20.95 L739.45 -20.9 739.95 -20.3" fill="#cccccc" fill-rule="evenodd" stroke="none"/>
  </g>
</svg>
