<?xml version="1.0" encoding="UTF-8" standalone="no"?>
<svg xmlns:xlink="http://www.w3.org/1999/xlink" height="681.6px" width="1069.0px" xmlns="http://www.w3.org/2000/svg">
  <g transform="matrix(1.0, 0.0, 0.0, 1.0, 0.0, 0.0)">
    <path d="M493.05 110.0 L490.8 109.35 490.2 108.65 490.3 107.4 491.15 106.7 492.5 106.35 494.4 106.45 495.25 106.85 496.05 107.9 495.75 109.05 494.3 109.8 493.05 110.0 M418.25 45.7 L416.9 44.55 416.9 43.5 418.45 42.55 419.7 42.35 421.15 42.6 422.15 43.2 422.55 44.15 422.35 44.85 421.8 45.25 420.65 45.85 418.25 45.7 M470.05 56.0 L470.45 54.95 471.2 54.25 472.7 53.6 473.6 53.45 476.45 53.75 477.5 54.25 478.35 55.3 478.55 56.15 478.35 56.85 477.4 57.85 476.05 58.4 474.45 58.6 472.7 58.4 471.45 57.9 470.4 56.95 470.05 56.0 M347.95 74.5 L348.55 75.45 348.5 76.45 347.75 77.1 345.75 77.6 343.45 77.1 342.7 76.5 342.5 75.85 342.6 74.95 343.25 74.4 345.35 73.8 347.0 74.0 347.95 74.5 M446.9 0.7 L447.1 1.5 446.95 2.35 Q445.25 5.1 440.8 4.2 L439.35 3.5 438.35 2.55 438.15 1.5 438.35 0.7 439.1 0.0 446.15 0.0 446.9 0.7 M303.6 107.7 L303.8 108.95 302.65 110.4 301.7 110.7 299.6 110.95 297.15 110.3 296.1 108.95 296.35 107.7 298.15 106.5 299.9 106.25 302.75 106.9 303.6 107.7 M250.3 121.35 L249.45 120.75 249.25 120.2 249.35 119.5 249.75 119.2 250.95 118.65 253.1 118.85 254.15 119.9 253.85 120.75 252.5 121.55 250.3 121.35 M257.5 66.15 L256.7 65.4 256.45 64.25 256.8 63.35 258.55 62.2 261.9 62.0 263.8 62.75 264.65 63.55 264.85 64.7 264.55 65.4 263.6 66.35 262.25 66.8 259.4 66.95 257.5 66.15 M304.95 29.05 L304.95 30.15 303.9 31.3 302.95 31.7 301.35 31.8 299.7 31.5 298.85 31.0 298.35 30.55 298.15 29.65 298.35 28.8 298.95 28.2 300.1 27.7 301.9 27.65 303.05 27.7 304.1 28.2 304.95 29.05 M184.2 103.8 L185.35 104.6 185.45 105.15 185.15 105.65 184.2 106.35 182.2 106.35 181.35 105.95 180.95 105.3 180.95 104.5 182.4 103.75 184.2 103.8 M1056.3 107.2 L1056.2 108.55 1055.15 109.55 1052.65 110.2 1050.85 110.0 1049.35 109.25 1048.75 108.45 1048.85 107.0 1049.8 106.15 1051.25 105.65 1053.9 105.65 1055.6 106.35 1056.3 107.2 M1041.75 120.2 L1041.75 118.65 1042.55 117.75 1043.7 117.3 1045.3 117.1 1047.05 117.35 1048.25 117.95 1048.85 118.9 1048.75 120.0 1047.9 120.75 1046.2 121.45 1043.5 121.35 1041.75 120.2 M1034.45 107.9 L1035.25 107.3 1036.05 107.1 1037.4 107.2 1038.25 107.7 1038.4 108.75 1037.85 109.25 1035.85 109.55 1034.4 108.75 1034.45 107.9 M1039.5 85.05 L1040.9 83.6 1043.4 83.0 1045.5 83.3 1046.55 83.8 1047.25 84.85 1047.25 85.55 1047.05 86.3 1046.2 87.1 1044.65 87.65 1043.4 87.75 1041.6 87.55 1040.35 86.95 1039.65 86.2 1039.5 85.05 M1001.45 102.75 L1001.45 101.7 1002.15 101.0 1004.05 100.5 1005.25 100.65 1006.35 101.1 1006.9 101.8 1006.8 102.85 1006.15 103.4 1005.1 103.8 1003.0 103.8 1001.95 103.4 1001.45 102.75 M999.25 95.2 L1000.7 95.6 1001.3 96.2 1001.3 97.15 1000.2 98.0 998.4 98.2 997.45 98.0 996.4 97.15 996.5 96.2 997.35 95.5 999.25 95.2 M1022.85 40.2 L1022.7 41.55 1021.8 42.55 1020.4 43.1 1019.15 43.3 1016.85 43.1 1015.6 42.55 1015.15 42.25 1014.45 41.25 1014.65 39.85 1015.6 38.95 1017.0 38.35 1019.05 38.15 1020.95 38.5 1022.2 39.15 1022.85 40.2 M1013.5 7.2 L1014.45 5.85 1017.05 5.15 1019.7 5.75 1020.55 6.9 1020.55 7.5 1020.4 7.95 1019.5 8.85 1018.25 9.3 1015.7 9.3 1015.4 9.25 1015.1 9.05 1014.95 9.05 1014.25 8.65 1013.6 8.05 1013.5 7.2 M894.7 108.75 L895.95 108.25 898.25 108.2 900.55 108.95 901.3 109.95 901.4 110.7 901.2 111.5 900.25 112.35 897.35 113.05 895.55 112.7 894.25 112.15 893.55 111.15 893.45 110.3 893.85 109.4 894.7 108.75 M934.25 57.35 L936.0 57.65 937.3 58.25 938.1 59.2 938.1 60.35 937.85 61.2 936.8 62.1 935.2 62.7 933.4 62.75 931.6 62.55 930.35 62.0 929.3 60.95 929.25 59.65 929.65 58.8 931.0 57.85 932.9 57.35 934.25 57.35 M823.8 118.7 L823.7 117.65 824.0 116.8 825.05 115.95 827.75 115.25 830.7 115.75 832.4 117.0 832.5 117.95 832.15 119.05 830.85 120.05 828.4 120.65 826.3 120.45 824.6 119.7 823.8 118.7 M807.85 114.05 L808.65 113.2 809.45 112.9 811.75 112.9 812.85 113.5 813.4 114.2 813.1 115.35 812.6 115.75 811.4 116.2 809.3 116.1 807.85 115.15 807.85 114.05 M572.35 99.45 Q566.6 99.6 570.35 97.25 L571.95 97.35 572.85 97.9 573.05 98.5 572.35 99.45 M660.9 184.75 L662.15 185.5 662.25 186.2 661.3 187.2 659.65 187.4 658.6 187.05 657.95 186.5 657.8 185.9 658.45 185.05 659.0 184.85 660.9 184.75 M660.25 180.2 L660.95 181.2 660.9 182.15 660.15 182.8 658.65 183.2 657.0 183.1 656.05 182.75 655.3 181.65 655.45 180.8 656.05 180.2 657.8 179.7 660.25 180.2 M669.8 176.55 L669.9 175.75 670.55 175.25 671.25 175.2 672.7 175.25 673.55 176.15 Q672.9 178.0 670.35 177.0 L669.8 176.55 M663.3 163.85 L663.0 164.55 661.2 165.3 659.85 165.2 659.0 164.8 658.45 163.95 658.8 163.05 660.45 162.4 661.95 162.5 662.8 163.0 663.3 163.85 M645.8 144.2 L646.6 145.0 646.5 145.75 645.45 146.4 643.7 146.4 642.5 145.45 642.85 144.65 644.1 144.0 645.8 144.2 M689.65 153.3 L689.7 154.45 688.9 155.5 687.85 155.9 685.65 156.0 684.2 155.5 683.4 154.85 683.2 153.95 683.55 153.2 684.2 152.6 685.75 152.15 688.25 152.4 689.65 153.3 M765.65 199.45 L766.5 200.25 766.65 201.35 766.1 202.3 765.15 202.95 764.0 203.35 762.2 203.45 759.9 202.75 759.1 202.0 758.85 200.95 759.1 200.25 760.2 199.25 761.6 198.8 763.15 198.7 765.65 199.45 M754.75 145.05 L754.9 145.95 754.55 146.7 753.7 147.4 751.1 147.9 748.9 147.2 748.15 146.4 748.05 145.55 748.45 144.8 749.65 144.0 752.05 143.7 752.85 143.8 754.35 144.6 754.75 145.05 M766.2 162.5 L767.05 161.8 768.95 161.3 771.05 161.5 772.8 162.65 772.7 164.35 771.95 165.0 770.2 165.6 768.6 165.6 766.85 165.0 766.0 164.2 765.85 163.2 766.2 162.5 M749.3 107.8 L750.75 108.2 751.4 108.65 751.4 109.8 750.75 110.4 749.2 110.7 748.15 110.7 747.2 110.3 746.7 109.55 747.0 108.55 747.6 108.05 749.3 107.8 M723.85 118.7 L724.95 117.85 726.85 117.35 728.65 117.5 730.4 118.05 731.25 118.85 731.45 120.05 731.15 120.75 730.4 121.55 728.95 122.15 726.0 122.15 724.55 121.55 723.7 120.75 723.5 119.6 723.85 118.7 M772.7 67.4 L773.2 68.1 773.0 68.9 772.15 69.45 770.05 69.45 769.15 68.75 769.0 68.2 769.55 67.4 771.05 67.0 772.7 67.4 M703.5 98.7 L703.35 99.85 701.9 100.65 700.35 100.65 699.35 100.25 698.75 99.45 698.85 98.7 699.7 98.0 701.15 97.75 702.7 98.1 703.5 98.7 M683.35 12.8 L685.75 13.4 686.5 14.55 686.15 15.65 685.45 16.2 683.15 16.6 681.1 16.1 680.4 15.3 680.25 14.55 680.5 13.95 681.3 13.3 683.35 12.8 M632.25 106.85 L634.25 106.35 636.2 106.5 637.4 107.0 638.3 108.05 638.5 108.85 638.0 109.95 636.2 110.95 634.35 111.15 631.7 110.5 630.9 109.75 630.7 109.05 631.1 107.6 632.25 106.85 M626.15 87.65 L626.75 87.1 628.35 86.7 630.15 87.1 630.75 87.65 630.9 88.3 630.25 89.2 628.05 89.6 626.7 89.2 626.15 88.7 626.15 87.65 M593.35 111.15 L594.25 112.45 594.05 113.9 593.35 114.6 590.9 115.25 589.0 115.15 587.55 114.6 586.7 113.8 586.4 112.85 586.7 111.95 587.95 110.95 589.65 110.5 592.15 110.7 593.35 111.15 M571.95 120.6 L573.2 120.75 574.1 121.25 574.75 122.0 574.3 123.3 573.8 123.7 572.35 124.05 570.65 123.95 569.2 123.0 569.2 121.75 569.9 121.05 571.95 120.6 M638.85 217.45 L641.15 217.0 643.7 217.45 645.05 218.45 646.85 218.95 647.55 219.6 647.75 220.55 647.1 221.65 Q644.65 223.25 642.0 221.95 L639.9 221.95 638.25 221.25 637.4 220.5 637.2 219.7 637.4 218.55 638.85 217.45 M673.15 251.65 L673.7 253.05 673.35 254.05 672.3 255.05 670.6 255.6 668.75 255.75 666.75 255.35 664.85 254.0 664.65 253.3 665.15 251.65 665.9 250.95 667.25 250.4 669.8 250.2 671.05 250.4 672.45 250.95 673.15 251.65 M652.35 264.9 L652.5 265.4 652.1 266.1 Q651.8 266.25 651.55 266.45 L650.4 266.75 648.95 266.65 647.95 266.2 647.55 265.5 647.65 264.65 648.1 264.25 649.75 263.75 651.45 264.05 652.35 264.9 M690.15 254.45 L691.6 255.05 692.65 256.0 692.8 256.7 692.55 258.05 691.75 258.85 690.35 259.4 688.9 259.6 686.8 259.4 685.65 258.9 684.45 257.95 684.25 257.1 684.7 255.8 685.45 255.15 687.95 254.4 690.15 254.45 M708.4 204.05 L708.5 205.4 707.65 206.35 706.9 206.95 705.65 207.35 702.7 207.2 701.6 206.75 700.6 205.85 700.55 204.3 701.45 203.15 702.85 202.55 704.55 202.35 706.1 202.55 707.55 203.25 708.4 204.05 M650.6 292.35 L652.1 292.35 653.35 292.7 654.15 293.5 654.05 294.85 Q652.0 296.8 648.8 295.1 L648.3 294.25 648.5 293.4 649.35 292.7 650.6 292.35 M750.15 246.25 L752.65 246.65 754.05 247.7 754.1 248.25 753.7 249.55 752.8 250.2 751.2 250.6 749.1 250.5 747.95 250.0 747.0 249.05 747.1 247.6 748.15 246.7 750.15 246.25 M732.45 256.8 L734.3 255.75 736.2 255.55 737.45 255.75 739.15 256.7 739.65 257.85 739.35 258.85 738.5 259.6 737.05 260.05 734.3 260.05 733.5 259.7 732.2 258.85 732.0 258.25 732.45 256.8 M718.8 229.5 L719.3 229.0 720.45 228.65 721.8 228.65 722.8 228.9 723.5 229.6 723.5 230.55 723.0 231.15 721.2 231.55 719.4 231.2 718.8 230.65 718.8 229.5 M783.3 232.2 L780.9 232.1 779.45 231.15 779.45 229.85 780.15 229.1 781.2 228.7 783.7 228.8 784.65 229.3 785.3 230.05 785.2 231.15 784.65 231.55 783.3 232.2 M797.15 223.65 L799.15 224.35 800.0 225.2 800.05 226.1 799.85 226.5 799.15 227.45 797.75 228.05 794.85 228.05 793.7 227.55 792.85 226.75 792.65 225.6 792.95 224.95 793.9 224.15 795.05 223.8 797.15 223.65 M652.7 310.55 L652.6 311.2 Q651.25 312.7 648.6 311.7 L648.1 310.9 648.15 310.15 649.2 309.45 650.4 309.25 652.35 309.95 652.7 310.55 M728.0 312.15 L728.65 311.6 730.4 310.9 733.55 311.0 734.95 311.5 735.6 312.1 736.2 313.15 735.8 314.6 734.8 315.45 733.55 315.95 731.6 316.15 730.1 315.95 728.55 315.2 727.7 314.4 727.5 313.65 728.0 312.15 M489.7 132.0 L489.05 131.25 488.95 130.55 489.15 129.95 490.1 129.2 492.5 128.7 494.6 129.3 495.35 130.15 495.45 130.85 495.25 131.5 494.5 132.2 493.45 132.6 491.65 132.65 489.7 132.0 M516.2 169.2 L517.15 170.35 517.25 171.1 516.75 172.1 515.8 172.75 513.0 173.25 511.7 173.05 510.55 172.45 509.7 171.5 509.5 170.75 509.9 169.85 510.9 169.05 512.2 168.6 513.8 168.5 516.2 169.2 M536.75 133.05 L538.55 134.2 538.8 135.1 538.35 135.9 537.8 136.45 536.7 136.9 534.05 136.9 532.15 135.75 531.95 135.0 532.35 134.0 533.95 133.05 536.75 133.05 M625.2 200.55 L623.75 199.85 623.85 198.7 625.5 198.1 626.7 198.3 627.4 198.8 627.55 199.6 627.1 200.15 625.2 200.55 M590.05 204.9 L589.35 205.85 588.1 206.25 586.6 206.25 585.0 205.45 584.75 204.5 585.0 203.9 586.0 203.25 586.9 203.05 588.6 203.15 589.75 203.85 590.05 204.9 M558.5 179.85 L558.4 180.6 557.35 181.2 555.65 181.4 554.75 181.05 554.1 180.4 554.1 179.5 Q554.5 179.2 554.95 178.85 L555.85 178.65 557.95 179.05 558.5 179.85 M587.65 161.45 L588.8 161.15 590.8 161.45 591.55 162.0 591.65 163.05 591.1 163.65 590.2 164.05 588.4 164.05 586.9 163.2 586.9 162.0 587.65 161.45 M572.45 152.55 L573.4 151.85 574.95 151.55 577.05 152.0 577.7 152.6 577.9 153.5 577.45 154.25 575.8 155.05 574.1 155.05 572.85 154.55 572.15 153.55 572.45 152.55 M600.9 170.05 L600.55 169.25 600.9 167.85 601.95 166.95 603.7 166.35 606.65 166.45 608.0 167.05 609.05 168.4 609.15 169.2 608.85 169.95 607.9 170.8 605.7 171.5 604.05 171.5 601.7 170.8 600.9 170.05 M627.3 122.3 L628.35 123.7 628.05 125.1 627.2 125.8 625.5 126.45 623.4 126.6 622.05 126.25 621.0 125.8 620.2 124.9 620.05 123.5 621.1 122.2 622.7 121.6 624.45 121.45 626.25 121.8 627.3 122.3 M794.95 311.1 L796.4 312.1 796.7 312.85 796.5 313.65 795.65 314.3 794.55 314.7 792.1 314.6 791.05 314.0 790.4 313.15 790.55 312.3 791.25 311.5 792.75 311.0 794.95 311.1 M769.0 295.8 L769.0 296.5 768.5 297.0 767.7 297.35 766.1 297.35 764.95 296.4 765.05 295.65 766.5 294.95 768.5 295.25 769.0 295.8 M742.6 305.95 L742.4 305.2 742.6 304.75 744.25 303.85 746.35 304.05 747.35 304.75 747.35 305.95 746.7 306.45 744.4 306.85 743.15 306.45 742.6 305.95 M501.85 183.3 L502.15 184.3 501.85 185.25 501.25 185.85 502.55 186.3 503.2 187.05 503.2 187.6 503.1 188.15 502.5 188.75 501.45 189.15 499.55 189.15 498.5 188.75 497.75 187.85 497.95 186.7 496.25 186.5 495.15 186.05 494.1 184.65 494.3 183.3 495.25 182.45 496.4 181.95 498.3 181.75 499.75 181.95 501.1 182.6 501.85 183.3 M573.9 350.5 L573.0 349.35 573.0 348.5 573.4 347.7 575.1 346.75 576.95 346.55 578.3 346.75 579.55 347.35 580.55 348.7 580.3 349.75 579.15 350.7 578.1 351.1 574.95 351.0 573.9 350.5 M585.0 335.0 L585.8 334.75 588.6 334.65 590.25 335.7 590.5 336.5 590.05 337.25 589.45 337.9 588.3 338.3 586.2 338.3 584.3 337.25 584.1 336.15 585.0 335.0 M624.9 294.65 L625.85 293.75 627.4 293.2 629.65 293.0 630.95 293.3 632.55 293.95 633.4 294.75 633.7 295.8 633.05 297.0 Q631.6 299.0 627.2 298.35 L625.7 297.65 624.9 296.85 624.6 295.65 624.9 294.65 M618.15 278.1 L618.8 279.55 618.5 280.35 617.65 281.1 616.0 281.7 613.35 281.55 612.0 281.0 611.15 280.2 610.95 279.15 611.25 278.4 612.1 277.6 613.9 277.1 614.2 276.05 615.85 275.35 618.15 275.75 618.95 276.85 618.8 277.6 618.15 278.1 M592.05 298.9 L593.4 299.5 594.25 300.25 594.6 301.5 594.4 302.0 593.4 303.2 592.3 303.65 589.45 303.85 587.1 303.0 586.4 302.3 586.2 301.05 586.5 300.25 587.35 299.5 588.8 298.9 590.5 298.7 592.05 298.9 M537.6 315.4 L539.4 315.0 541.6 315.45 542.2 316.05 542.35 317.1 541.6 318.1 539.6 318.55 537.4 318.1 536.7 317.3 536.55 316.75 536.9 315.95 537.6 315.4 M545.9 274.7 L546.1 275.9 545.5 276.85 Q544.35 278.55 540.1 278.0 L538.8 277.4 537.95 276.65 537.6 275.55 538.05 274.5 539.3 273.55 541.15 273.05 543.25 273.15 545.1 273.8 545.9 274.7 M509.3 265.8 L510.1 265.25 512.15 265.05 513.25 265.4 513.9 266.0 513.9 266.75 513.25 267.65 512.65 267.95 511.1 268.0 509.6 267.55 509.0 266.45 509.3 265.8 M512.0 250.0 L513.0 250.4 514.25 251.65 514.3 253.05 513.4 254.2 510.65 254.95 508.45 254.75 507.3 254.25 506.25 253.1 506.05 252.35 506.35 251.35 507.2 250.6 509.9 249.8 512.0 250.0 M492.5 258.55 L493.95 258.7 495.15 259.2 496.0 260.0 496.25 261.05 496.0 261.75 Q494.4 263.9 490.6 263.15 L489.5 262.7 488.65 261.95 488.3 260.95 488.5 260.4 489.5 259.2 490.6 258.7 492.5 258.55 M482.55 225.15 L482.85 225.8 482.65 226.5 481.6 227.25 479.6 227.45 478.25 226.9 477.6 225.8 478.35 224.75 479.05 224.45 480.85 224.35 482.55 225.15 M530.7 268.15 L532.15 268.2 533.1 268.7 533.6 269.7 533.4 270.45 532.8 270.9 531.1 271.3 529.0 270.7 528.5 269.95 528.6 269.1 529.4 268.4 530.7 268.15 M516.75 221.45 L517.4 222.45 517.15 223.3 515.6 224.25 514.1 224.35 512.55 224.0 511.7 223.3 511.5 222.7 511.7 221.85 512.2 221.35 513.5 220.9 515.35 220.9 516.75 221.45 M546.75 244.8 L548.3 244.8 549.15 245.15 549.55 245.75 549.25 246.65 548.5 247.2 546.75 247.3 545.35 246.5 545.3 245.85 545.9 245.1 546.75 244.8 M540.25 237.05 L541.1 237.8 541.3 238.4 541.1 238.95 539.5 239.95 537.4 239.95 535.85 238.95 535.95 237.6 536.7 237.05 538.25 236.65 540.25 237.05 M527.85 198.4 L528.1 199.6 527.05 201.0 525.55 201.6 523.45 201.7 522.2 201.5 521.05 200.95 520.2 200.05 520.0 199.4 520.55 198.1 521.25 197.45 523.45 196.85 525.65 196.95 527.05 197.55 527.85 198.4 M521.15 188.75 L522.4 189.3 523.15 190.15 523.15 191.25 522.2 192.4 521.35 192.8 518.95 193.0 516.95 192.3 516.0 191.05 516.0 190.5 516.2 189.9 517.15 189.15 519.55 188.55 521.15 188.75 M526.3 175.05 L526.6 176.15 Q526.45 178.45 521.8 178.5 L519.7 177.8 518.85 176.95 518.65 175.85 519.05 175.0 519.9 174.3 522.65 173.65 524.2 173.85 525.75 174.6 526.3 175.05 M475.65 203.65 L476.7 204.1 477.5 205.0 477.75 205.65 477.4 206.35 Q475.95 208.3 472.7 207.5 L471.5 207.15 470.9 206.55 470.7 205.3 471.75 204.05 472.7 203.65 475.65 203.65 M509.6 194.35 L511.6 194.95 512.2 195.5 512.45 196.3 512.0 197.15 510.95 197.85 508.65 198.1 506.9 197.45 506.35 196.95 506.15 196.15 506.45 195.4 507.2 194.8 509.6 194.35 M624.05 408.3 L623.95 407.45 625.0 406.2 627.6 405.7 629.7 406.25 630.35 406.85 630.55 407.75 630.35 408.5 629.3 409.3 627.0 409.75 624.8 409.1 624.05 408.3 M517.4 458.1 L518.1 459.25 517.9 460.05 516.1 461.0 513.6 460.8 512.45 460.05 512.2 459.35 512.65 458.35 514.0 457.6 516.35 457.6 517.4 458.1 M518.95 451.7 L520.8 451.5 522.3 451.7 523.7 452.3 524.5 453.05 524.8 454.4 524.5 455.2 523.25 456.15 521.35 456.6 519.15 456.55 518.1 456.15 516.85 455.2 516.4 454.1 516.95 452.85 518.95 451.7 M534.45 404.15 L535.65 404.45 536.9 405.3 537.2 406.2 537.0 406.95 535.95 407.75 534.05 408.3 531.95 408.0 531.0 407.55 530.4 406.75 530.25 406.0 530.6 405.4 531.3 404.65 532.35 404.25 534.45 404.15 M477.3 402.7 L477.3 403.75 475.85 404.65 473.4 404.35 472.7 403.5 472.8 402.7 473.3 402.2 474.45 401.8 476.55 402.15 477.3 402.7 M477.5 390.4 L478.55 390.0 480.65 390.1 482.15 391.15 482.0 392.35 480.85 393.1 479.7 393.3 478.15 393.1 477.2 392.65 476.75 391.95 476.75 391.15 477.5 390.4 M516.75 365.8 L518.95 365.9 519.9 366.3 520.8 367.45 520.75 368.7 520.0 369.4 517.65 370.0 514.95 369.4 514.3 368.8 514.0 367.95 514.3 366.95 514.95 366.4 516.75 365.8 M494.7 442.8 L496.7 443.25 498.1 444.35 498.5 445.3 498.15 446.45 497.25 447.3 495.85 447.9 494.5 448.0 492.4 447.9 490.95 447.3 490.0 446.45 489.7 445.3 490.0 444.4 491.05 443.45 492.2 443.0 494.7 442.8 M326.1 247.3 L325.7 248.2 324.25 249.05 322.75 249.15 321.4 248.85 320.25 248.05 320.05 247.5 320.35 246.45 321.95 245.55 324.25 245.55 325.9 246.65 326.1 247.3 M393.6 250.1 L394.25 250.8 394.25 251.65 394.1 252.15 393.4 252.7 390.75 253.1 389.25 252.65 388.45 251.5 388.55 250.7 389.25 250.0 390.25 249.6 391.8 249.55 393.6 250.1 M381.45 184.95 L383.75 184.35 386.05 184.75 387.4 185.7 387.5 186.2 387.4 187.45 386.55 188.25 384.25 188.8 382.25 188.6 381.1 188.05 380.45 187.4 380.25 186.6 380.45 185.85 381.45 184.95 M348.3 214.2 L348.05 213.4 348.3 212.75 349.2 211.85 351.1 211.3 353.2 211.4 354.55 212.05 355.4 213.15 355.2 214.4 354.25 215.15 351.95 215.75 349.75 215.25 349.1 215.05 348.3 214.2 M346.9 201.35 L347.3 202.0 347.25 202.95 345.55 204.05 343.1 204.05 342.2 203.65 341.35 202.55 341.65 201.4 343.1 200.55 345.55 200.55 346.9 201.35 M315.15 205.4 L316.9 206.35 317.5 206.95 317.85 207.9 317.5 209.05 316.7 209.85 315.2 210.5 312.5 210.7 Q315.25 212.95 309.9 213.2 L308.7 212.45 308.5 211.8 309.25 210.8 311.0 210.45 309.95 209.9 308.9 208.95 308.7 208.2 308.9 206.95 310.4 205.85 311.55 205.4 313.45 205.2 315.15 205.4 M329.4 207.8 L332.35 207.9 333.45 208.35 334.3 209.15 334.5 209.85 334.3 210.9 333.7 211.4 333.4 211.8 332.0 212.25 329.05 212.15 327.95 211.65 327.1 210.9 326.95 209.35 328.0 208.3 329.4 207.8 M350.05 172.75 L351.65 172.45 353.2 172.55 354.45 173.05 355.3 174.0 355.4 174.85 355.1 175.55 354.25 176.15 352.35 176.75 350.05 176.4 348.55 175.4 348.35 174.5 348.55 173.85 350.05 172.75 M340.1 167.85 L339.95 167.45 340.2 166.35 341.45 165.6 343.55 165.5 345.0 166.1 345.45 166.45 345.55 167.25 345.45 167.85 343.95 168.8 341.35 168.7 340.1 167.85 M341.15 136.35 L341.45 135.95 343.25 135.0 345.65 135.1 347.0 135.9 347.45 136.65 347.25 137.7 345.65 138.65 344.9 138.8 343.45 138.8 342.2 138.4 341.15 137.25 341.15 136.35 M367.35 169.75 L369.35 170.15 370.1 171.1 Q368.6 174.3 365.05 171.6 L365.05 170.9 365.8 170.15 367.35 169.75 M441.45 192.9 L443.3 192.8 444.85 193.2 446.25 194.15 446.45 194.95 446.15 195.9 445.65 196.3 444.15 197.05 441.2 196.95 439.4 195.8 439.2 194.75 439.4 194.15 440.25 193.4 441.45 192.9 M469.65 189.9 L470.15 189.7 472.25 189.6 473.4 190.35 473.4 191.25 472.5 192.05 470.9 192.2 469.4 191.65 469.15 190.65 469.65 189.9 M433.25 206.75 L434.3 205.85 435.35 205.45 438.05 205.45 439.85 206.35 440.45 207.4 440.25 208.55 439.4 209.35 437.95 209.85 435.0 209.75 Q432.25 208.15 432.9 207.8 L433.25 206.75 M445.65 156.0 L445.4 157.35 444.25 158.4 441.75 159.1 439.1 158.9 437.75 158.2 436.8 157.35 436.6 156.3 436.8 155.3 437.85 154.35 439.2 153.75 440.8 153.55 443.0 153.75 444.35 154.35 445.4 155.3 445.65 156.0 M474.45 126.25 L473.2 126.75 470.7 126.75 468.9 125.6 468.7 124.7 469.0 123.95 469.85 123.3 472.15 122.8 473.95 123.15 475.2 124.15 475.3 125.25 474.45 126.25 M790.0 494.55 L790.0 495.45 789.35 496.05 787.5 496.3 786.45 496.05 785.8 495.45 785.95 494.5 786.65 493.9 787.6 493.7 789.15 493.9 790.0 494.55 M769.8 474.75 L770.5 475.8 770.3 476.85 Q768.4 478.85 764.75 477.45 L764.0 476.55 764.1 475.2 Q764.75 474.8 765.35 474.35 L766.7 474.05 768.5 474.15 769.8 474.75 M751.4 442.6 L751.2 443.0 749.85 444.15 748.05 444.4 746.8 444.2 745.65 443.65 745.1 443.2 744.9 442.4 745.1 441.7 746.15 440.85 748.45 440.45 750.35 440.95 751.2 441.65 751.4 442.6 M694.1 498.65 L694.45 497.8 695.6 496.9 697.8 496.3 699.8 496.5 700.95 497.0 702.0 498.35 701.8 499.7 701.05 500.4 699.7 500.95 698.1 501.15 696.55 500.95 694.95 500.2 694.45 499.7 694.1 498.65 M715.25 484.6 L717.55 485.0 718.15 485.6 718.15 486.65 Q716.1 488.35 713.85 487.15 L713.2 486.05 713.65 485.3 715.25 484.6 M688.9 378.5 L690.05 379.3 690.05 380.3 689.3 381.0 687.0 381.3 685.3 380.45 685.3 379.3 685.85 378.75 687.6 378.3 688.9 378.5 M676.1 403.1 L677.45 403.1 678.8 403.75 679.15 404.45 678.95 405.1 677.95 405.8 677.05 406.0 675.05 405.6 674.3 404.7 674.4 403.95 676.1 403.1 M655.95 383.25 L657.0 383.95 657.0 384.9 656.55 385.3 654.8 385.65 653.1 384.9 653.1 383.95 653.55 383.55 655.0 383.15 655.95 383.25 M661.4 367.45 L661.95 368.45 661.75 369.0 660.55 369.65 658.35 369.6 657.4 369.0 657.2 368.5 657.6 367.55 658.6 367.1 660.05 366.95 661.4 367.45 M662.85 339.4 L661.5 338.7 660.75 338.05 660.45 336.85 660.9 335.9 662.25 334.95 663.3 334.55 665.4 334.45 667.9 335.2 668.75 336.1 668.85 337.25 Q668.45 339.55 664.1 339.6 L662.85 339.4 M687.75 366.4 L687.4 365.7 687.6 364.55 688.9 363.65 690.25 363.4 692.15 363.5 693.9 364.65 694.1 365.55 693.9 366.2 693.2 366.9 691.95 367.35 690.35 367.45 688.9 367.15 687.75 366.4 M783.2 377.9 L783.6 377.4 784.55 376.95 786.35 376.95 787.4 377.55 787.7 378.0 787.6 378.9 786.45 379.55 784.15 379.45 783.2 378.6 783.2 377.9 M758.25 377.4 L756.2 377.55 754.35 376.95 753.6 376.25 753.4 375.4 753.6 374.7 755.15 373.65 756.35 373.45 758.25 373.55 759.15 373.95 760.1 375.1 760.0 376.25 758.85 377.15 758.25 377.4 M779.65 327.85 L780.55 328.95 780.5 330.7 779.5 331.55 777.2 332.2 774.9 332.1 773.45 331.55 772.4 330.55 772.15 329.4 772.4 328.75 773.65 327.65 775.0 327.2 777.95 327.2 779.65 327.85 M795.15 322.15 L796.5 323.1 796.4 324.0 795.9 324.5 794.3 324.85 793.35 324.75 792.1 324.0 792.1 322.95 792.85 322.35 795.15 322.15 M574.45 508.7 L574.25 507.85 574.65 506.9 575.7 506.0 577.05 505.55 578.85 505.4 581.45 506.1 582.4 507.25 582.65 508.05 582.4 508.45 582.2 509.0 581.15 509.85 579.8 510.35 578.1 510.45 575.5 509.8 574.45 508.7 M577.6 488.3 L577.9 488.95 577.6 489.55 576.65 489.9 575.3 489.9 574.3 489.35 574.3 488.5 575.15 487.9 576.55 487.8 577.6 488.3 M527.1 496.7 L527.65 496.5 529.35 496.5 530.45 497.3 530.45 498.05 530.05 498.35 529.15 498.85 527.55 498.75 526.6 498.05 526.5 497.6 527.1 496.7 M530.4 476.85 L529.35 476.55 528.8 476.1 528.8 475.2 529.35 474.75 530.6 474.45 531.85 474.65 532.7 475.4 532.55 476.15 532.05 476.55 530.4 476.85 M505.65 492.45 L504.05 492.0 503.75 491.45 503.85 490.8 504.9 490.25 506.35 490.25 506.95 490.5 507.4 491.0 507.3 491.8 506.7 492.25 505.65 492.45 M498.3 487.2 L499.95 487.0 501.45 487.2 503.2 488.3 503.6 489.25 503.4 490.3 502.55 491.1 501.25 491.6 499.15 491.65 497.85 491.4 496.25 490.3 496.05 489.65 496.5 488.3 498.3 487.2 M487.6 449.4 L488.85 449.0 490.75 449.05 492.1 449.95 492.3 451.1 491.45 451.95 490.6 452.35 489.15 452.45 487.6 452.1 486.95 451.6 486.6 450.9 486.75 450.05 487.6 449.4 M358.45 278.2 L359.7 278.45 360.3 278.95 360.3 279.95 359.9 280.35 358.0 280.6 356.55 279.85 356.55 278.95 356.95 278.6 358.45 278.2 M408.3 223.85 L407.95 224.95 407.0 225.8 405.95 226.3 404.4 226.5 402.3 226.4 400.95 225.9 400.1 225.15 399.55 224.05 399.9 222.9 400.6 222.25 401.8 221.65 404.4 221.35 406.05 221.65 407.85 222.8 408.3 223.85 M290.25 194.55 L291.0 195.2 291.2 196.3 290.9 197.15 289.95 197.9 287.3 198.5 285.85 198.3 284.6 197.7 283.75 196.7 283.65 195.9 284.1 195.0 285.0 194.35 286.05 193.95 288.15 193.85 290.25 194.55 M298.85 195.7 L300.0 195.3 302.75 195.3 304.3 196.3 304.85 197.35 304.65 198.1 303.4 199.1 301.6 199.45 300.0 199.4 298.55 198.7 297.95 198.05 297.7 197.25 298.0 196.5 298.85 195.7 M243.4 194.05 L244.3 194.55 244.7 195.2 244.65 196.1 243.05 196.95 241.15 196.85 239.8 196.0 239.8 194.95 241.15 194.05 243.4 194.05 M252.2 168.6 L252.25 167.7 252.8 167.25 254.7 166.75 256.45 167.15 257.3 168.1 257.1 169.0 255.65 169.85 253.85 169.85 253.05 169.55 252.2 168.6 M237.8 161.5 L239.2 162.5 239.25 163.35 238.65 164.2 237.5 164.75 236.25 164.8 234.45 164.4 233.8 163.85 233.5 163.0 233.8 162.3 234.55 161.7 236.25 161.3 237.8 161.5 M276.2 132.2 L276.0 133.05 274.85 134.0 273.8 134.4 272.2 134.6 270.85 134.4 269.7 133.95 268.75 133.05 268.55 132.2 268.95 131.25 270.65 130.15 273.8 130.05 275.35 130.85 276.2 132.2 M291.0 123.0 L291.85 123.35 292.45 123.85 292.7 124.65 292.35 125.3 291.65 125.8 290.9 126.2 289.6 126.25 287.85 125.8 287.25 125.25 287.25 123.95 288.05 123.3 289.4 122.9 291.0 123.0 M300.65 144.6 L299.7 144.2 298.75 143.3 298.55 142.55 298.75 141.75 300.45 140.6 302.35 140.35 304.65 140.9 305.55 141.75 305.7 143.25 304.7 144.2 303.65 144.6 301.9 144.8 300.65 144.6 M304.85 131.9 L303.4 132.45 301.7 132.2 301.05 131.4 301.5 130.45 302.85 130.05 304.5 130.35 304.95 130.85 305.15 131.3 304.85 131.9 M460.3 309.65 L462.6 309.45 465.0 310.25 465.75 311.0 465.85 312.1 465.65 312.85 464.4 313.85 461.55 314.3 459.05 313.5 458.2 312.75 458.0 311.7 458.3 310.8 459.25 310.05 460.3 309.65 M439.95 287.1 L439.75 286.35 440.05 285.55 441.1 284.85 443.2 284.45 445.4 285.15 446.15 286.35 445.9 286.9 444.85 287.95 442.7 288.35 441.5 288.15 440.45 287.55 439.95 287.1 M178.4 161.5 L178.35 160.25 179.6 159.0 180.5 158.6 182.55 158.4 184.9 159.1 185.9 160.1 185.95 161.05 185.75 161.7 184.7 162.6 181.9 163.2 180.5 163.0 179.05 162.2 178.4 161.5 M154.5 214.1 L152.75 214.75 151.05 214.95 148.75 214.5 147.1 213.35 146.75 212.45 146.95 211.2 147.9 210.3 149.8 209.65 153.15 209.75 154.65 210.5 155.35 211.4 155.7 212.35 155.25 213.4 154.5 214.1 M186.2 194.45 L184.85 194.8 183.25 194.75 181.7 193.75 181.7 192.4 182.2 191.9 184.3 191.35 186.4 191.85 187.15 192.7 187.0 193.85 186.2 194.45 M190.4 186.05 L190.3 185.25 190.6 184.35 191.75 183.5 193.0 183.0 195.0 182.8 196.6 183.0 198.05 183.7 198.9 184.5 199.2 185.5 198.9 186.2 198.75 186.7 197.95 187.45 196.65 187.95 194.35 188.25 192.9 188.05 191.35 187.25 190.4 186.05 M218.5 186.2 L218.7 186.9 218.4 187.65 216.5 188.75 213.6 188.6 212.0 187.6 211.8 187.0 212.1 185.85 212.75 185.25 214.95 184.65 217.25 185.05 218.5 186.2 M227.5 220.3 L229.75 219.6 231.85 219.7 232.75 220.1 233.95 220.95 234.0 221.45 233.95 222.8 233.1 223.6 230.35 224.25 227.65 223.6 226.8 222.8 226.6 222.1 226.7 221.1 227.5 220.3 M214.85 219.15 L213.65 218.15 213.45 217.4 213.65 216.6 214.3 216.05 216.5 215.35 218.4 215.45 220.1 216.45 220.5 217.6 220.1 218.45 218.3 219.4 216.5 219.55 214.85 219.15 M226.6 227.35 L228.55 227.85 229.55 228.65 229.75 229.4 229.4 230.2 Q228.3 231.75 224.5 230.85 L223.45 229.85 223.55 228.5 225.1 227.55 226.6 227.35 M180.5 237.05 L180.95 236.55 182.3 235.85 184.5 235.85 185.75 236.55 186.2 237.35 186.1 238.2 184.5 239.15 183.05 239.3 181.5 238.9 180.5 237.9 180.5 237.05 M266.25 487.5 L266.45 488.3 266.05 488.95 264.55 489.25 263.3 488.9 262.9 488.1 263.4 487.35 265.0 487.0 266.25 487.5 M251.85 458.5 L250.95 457.8 250.95 456.8 252.2 456.05 254.35 456.25 255.2 457.1 255.15 457.9 254.8 458.1 253.25 458.65 251.85 458.5 M201.7 468.15 L203.3 468.95 203.3 469.9 202.75 470.35 200.65 470.7 199.2 469.8 199.2 469.0 199.8 468.45 201.7 468.15 M174.2 498.25 L176.25 497.85 178.35 498.35 179.4 499.15 179.6 500.3 179.2 501.1 178.35 501.65 176.1 502.1 174.75 501.85 173.5 501.35 172.9 500.7 172.95 499.2 174.2 498.25 M167.85 517.05 L166.9 515.85 166.8 514.9 167.2 514.05 168.05 513.3 169.3 512.75 172.75 512.7 174.55 513.45 175.4 514.3 175.6 515.0 175.4 516.05 174.2 517.25 172.9 517.75 170.65 517.9 169.1 517.6 167.85 517.05 M174.75 477.05 L175.5 476.5 177.8 476.1 179.25 476.5 180.0 477.15 180.0 478.25 179.45 478.9 178.4 479.25 176.55 479.4 175.2 478.8 174.65 478.3 174.55 477.65 174.75 477.05 M159.85 458.3 L160.15 457.5 161.0 456.95 162.6 456.55 165.0 457.0 165.75 458.1 165.6 459.05 165.0 459.65 163.25 460.1 161.65 460.05 160.7 459.65 159.95 458.85 159.85 458.3 M180.25 439.95 L181.05 439.3 182.55 438.9 183.9 438.9 185.15 439.3 185.95 439.95 186.3 440.65 186.2 441.45 185.45 442.2 184.1 442.7 182.2 442.7 180.85 442.2 180.25 441.65 179.9 440.75 180.25 439.95 M197.3 393.9 L198.25 394.25 199.1 395.05 199.3 396.1 199.0 396.9 197.7 397.65 195.55 398.15 193.25 397.55 192.25 396.8 192.05 396.2 192.5 394.85 194.05 393.9 195.35 393.7 197.3 393.9 M215.15 374.05 L216.2 374.8 216.4 375.8 216.1 376.55 214.95 377.35 213.8 377.55 211.5 377.4 209.9 376.35 209.9 374.9 Q210.4 374.5 210.95 374.15 L211.7 373.75 213.8 373.65 215.15 374.05 M173.7 391.55 L173.8 390.8 175.05 390.1 177.1 390.4 177.6 391.1 177.35 391.85 176.05 392.45 174.65 392.35 174.0 391.95 173.7 391.55 M311.75 401.35 L311.85 400.45 313.1 399.8 314.8 399.8 315.85 400.45 316.05 401.05 315.65 401.75 314.7 402.2 312.4 402.0 312.4 403.0 311.25 403.75 309.45 403.85 307.85 403.0 Q307.2 400.5 311.75 401.35 M288.5 285.95 L289.75 286.2 291.2 286.9 291.85 287.5 292.05 288.25 291.85 289.3 290.9 290.2 289.6 290.65 287.95 290.85 286.25 290.6 284.8 289.8 284.15 289.05 284.3 287.5 285.2 286.6 286.4 286.15 288.5 285.95 M298.55 275.2 L299.7 275.9 299.9 276.45 299.7 276.85 298.45 277.6 296.9 277.6 295.85 276.9 295.7 276.05 296.95 275.2 298.55 275.2 M251.0 245.95 L252.5 245.55 254.6 246.05 255.15 246.65 255.35 247.5 255.0 248.05 254.5 248.55 253.1 248.95 250.7 248.55 249.9 247.7 249.9 247.2 250.1 246.5 251.0 245.95 M303.8 257.0 L305.75 256.5 307.65 256.7 309.45 257.75 309.65 258.55 309.45 259.6 308.65 260.25 306.6 260.85 304.85 260.75 303.6 260.25 302.75 259.5 302.55 258.45 302.75 257.85 303.8 257.0 M311.65 224.95 L312.3 225.6 312.4 226.5 312.2 227.25 311.15 228.05 308.65 228.5 306.3 227.85 305.55 227.15 305.35 226.2 305.55 225.55 306.3 224.85 307.45 224.35 309.15 224.15 311.65 224.95 M201.9 318.65 L203.5 317.9 205.0 317.9 206.3 318.65 206.65 319.35 206.45 319.9 205.7 320.4 204.45 320.8 203.2 320.7 201.85 319.85 201.9 318.65 M200.65 286.55 L199.55 285.95 198.9 285.05 199.0 284.1 199.6 283.5 201.4 283.05 203.7 283.45 204.55 284.1 204.75 284.85 204.55 285.55 203.95 286.15 202.15 286.6 200.65 286.55 M232.15 292.55 L231.65 291.95 231.5 291.25 232.55 290.1 234.85 289.8 236.25 290.2 236.95 290.85 236.95 291.95 236.45 292.6 235.6 293.0 234.25 293.2 232.15 292.55 M156.6 314.6 L156.95 315.55 156.5 316.55 155.7 317.1 154.65 317.6 153.15 317.8 150.85 317.3 149.7 316.4 149.45 315.85 149.6 314.7 150.5 313.85 151.55 313.45 154.5 313.35 155.75 313.85 156.6 314.6 M187.25 280.9 L188.2 281.9 188.4 282.65 188.2 283.25 187.35 284.0 186.3 284.4 184.65 284.45 183.15 284.1 182.0 283.3 181.8 282.75 181.9 281.75 182.4 281.2 184.1 280.5 185.25 280.4 187.25 280.9 M155.7 265.1 L156.4 265.8 156.6 266.75 Q156.35 269.2 152.1 269.2 L149.7 268.4 148.75 267.25 148.65 266.45 148.85 265.8 149.6 265.1 150.65 264.65 153.25 264.35 155.7 265.1 M151.5 248.25 L152.4 249.25 152.6 249.95 152.2 250.9 150.85 251.65 148.65 252.05 146.95 251.65 145.5 250.2 145.6 249.05 146.75 248.2 148.75 247.7 151.5 248.25 M233.4 490.6 L234.65 490.25 236.25 490.25 237.5 490.6 238.2 491.3 238.4 492.15 238.15 492.85 237.4 493.35 235.8 493.8 234.0 493.6 232.55 492.65 232.45 491.8 232.55 491.4 233.4 490.6 M366.0 487.8 L366.0 486.75 367.45 485.85 369.05 485.85 370.5 486.75 370.6 487.5 369.75 488.3 368.7 488.7 366.95 488.5 366.0 487.8 M364.0 477.15 L364.2 477.85 364.0 478.25 363.25 479.1 361.3 479.6 359.2 479.1 358.35 477.85 358.55 477.05 359.2 476.5 361.15 476.0 363.45 476.55 364.0 477.15 M384.8 473.2 L385.4 473.75 385.4 475.0 384.55 475.8 383.6 476.1 381.2 476.1 379.6 474.95 379.75 473.65 381.3 472.7 383.8 472.7 384.8 473.2 M344.9 513.95 L346.8 512.9 349.4 512.9 350.8 513.45 351.65 514.65 351.45 515.8 350.4 516.65 349.1 517.05 347.95 517.15 345.75 516.65 344.7 515.8 344.5 515.2 344.9 513.95 M333.9 454.6 L335.05 454.2 336.3 454.3 336.95 454.7 337.25 455.25 337.05 455.95 335.9 456.4 334.85 456.4 333.8 455.95 333.45 455.25 333.9 454.6 M323.4 467.0 L323.2 466.1 323.5 465.15 324.55 464.15 326.05 463.6 327.95 463.4 330.05 463.8 330.95 464.15 331.9 465.05 332.2 466.2 331.9 467.25 330.65 468.15 325.0 468.35 323.4 467.0 M364.1 441.45 L364.3 440.65 365.05 439.95 367.15 439.5 368.5 439.7 369.45 440.15 370.1 440.85 370.2 441.65 369.25 442.8 367.05 443.25 364.95 442.7 364.1 441.45 M355.6 442.0 L357.3 443.0 357.6 444.2 357.15 444.9 355.3 445.9 354.05 445.95 351.85 445.4 351.1 444.6 350.9 443.85 351.85 442.5 353.2 442.0 355.6 442.0 M379.95 423.5 L381.45 424.1 382.15 424.8 382.35 425.95 382.05 426.6 381.0 427.5 379.1 427.9 376.7 427.7 375.15 426.6 374.9 425.35 375.95 424.0 377.45 423.5 379.95 423.5 M419.3 390.95 L420.05 392.15 419.9 392.65 419.6 393.3 418.85 393.8 416.45 394.25 414.35 393.7 413.6 392.9 413.55 392.35 413.75 391.5 414.35 390.9 415.5 390.4 417.3 390.3 419.3 390.95 M421.35 363.4 L422.35 362.65 424.3 362.1 426.4 362.45 427.9 363.4 428.1 364.0 427.9 365.05 426.85 365.9 424.65 366.4 423.2 366.1 422.2 365.8 421.35 365.05 421.15 364.0 421.35 363.4 M444.15 345.95 L444.65 347.0 444.05 347.9 443.3 348.2 441.45 348.2 440.15 347.4 440.05 346.75 440.8 345.8 441.45 345.6 442.9 345.45 444.15 345.95 M300.3 497.8 L301.15 498.35 301.35 499.15 301.15 499.55 299.8 500.2 298.0 500.0 297.15 499.35 297.4 498.25 298.65 497.65 300.3 497.8 M292.9 510.75 L292.35 509.85 292.45 509.3 293.3 508.7 294.45 508.5 295.7 508.8 296.45 509.4 296.55 510.0 296.25 510.45 295.2 511.05 293.6 511.05 292.9 510.75 M295.6 488.95 L296.45 490.1 296.25 491.3 295.05 492.15 293.4 492.65 291.4 492.55 290.25 492.05 289.3 491.2 289.4 489.55 290.15 488.9 291.4 488.35 293.8 488.3 295.6 488.95 M372.5 503.0 L373.05 502.05 373.95 501.35 376.4 500.9 378.9 501.65 379.6 502.65 379.6 503.4 379.55 504.0 378.5 504.85 375.75 505.35 373.35 504.55 372.7 503.85 372.5 503.0 M407.95 467.2 L408.35 466.2 410.15 465.05 413.4 464.95 415.1 465.7 415.7 466.4 415.9 467.45 415.65 468.15 414.8 469.0 413.55 469.5 411.1 469.6 409.1 468.95 408.15 467.95 407.95 467.2 M440.6 441.9 L441.75 443.0 441.95 443.75 441.5 444.75 440.45 445.6 438.5 446.1 436.6 445.95 435.35 445.5 434.4 444.75 434.1 443.75 434.4 442.8 435.2 442.0 437.75 441.3 440.6 441.9 M434.15 516.05 L436.0 516.65 436.7 517.35 436.8 518.5 436.5 519.15 435.35 519.95 432.6 520.25 430.6 519.45 430.1 518.95 429.9 518.0 430.3 517.15 431.25 516.45 432.6 516.05 434.15 516.05 M358.2 556.75 L357.8 557.45 Q354.5 559.4 351.85 557.7 L351.1 556.55 351.45 555.35 352.45 554.6 354.8 554.15 356.65 554.5 358.0 555.5 358.2 556.75 M358.75 541.25 L357.5 540.65 356.65 539.3 357.15 537.85 357.8 537.3 360.65 536.6 363.4 537.15 364.5 538.05 364.75 538.65 364.5 540.1 363.6 540.95 362.2 541.45 360.65 541.55 358.75 541.25 M438.8 575.5 L438.8 574.65 440.15 573.95 441.5 574.1 442.35 574.55 442.5 575.45 442.05 575.9 440.7 576.3 439.85 576.2 438.8 575.5 M405.2 553.75 L405.95 554.35 406.05 555.1 404.8 556.15 402.7 556.15 401.55 555.35 401.45 554.6 401.8 554.15 402.7 553.55 404.15 553.45 405.2 553.75 M400.75 531.95 L401.65 532.9 401.85 533.6 401.35 535.05 400.75 535.6 398.0 536.3 396.0 536.1 394.75 535.6 393.8 534.65 393.6 534.0 393.9 532.7 394.65 532.05 397.15 531.3 399.55 531.5 400.75 531.95 M411.0 526.35 L411.7 527.2 411.95 528.05 411.7 528.55 410.8 529.75 410.15 530.0 407.25 530.4 404.95 529.75 404.1 528.95 403.75 527.9 404.15 526.9 405.2 526.05 406.2 525.65 408.15 525.45 409.55 525.65 411.0 526.35 M458.85 565.35 L460.8 564.85 462.4 565.05 463.35 565.55 463.95 566.4 463.9 567.5 463.15 568.15 461.35 568.65 459.75 568.55 458.65 567.95 458.0 567.1 458.1 566.0 458.85 565.35 M465.15 507.75 L465.0 507.1 465.35 506.2 466.5 505.55 467.65 505.35 469.85 505.8 470.45 506.4 470.7 507.15 470.4 507.85 469.4 508.45 467.45 508.8 465.75 508.3 465.15 507.75 M341.55 536.9 L341.75 536.2 343.1 535.25 345.45 535.05 346.7 535.45 347.45 536.1 347.65 537.15 Q353.1 536.85 351.3 539.3 L349.75 540.0 348.05 539.9 346.8 539.05 346.7 538.25 344.7 538.7 343.05 538.45 341.75 537.55 341.55 536.9 M291.4 613.4 L292.75 612.9 295.2 613.0 296.25 613.45 296.9 614.15 297.1 615.0 296.75 615.7 295.7 616.5 294.65 616.75 292.25 616.7 291.1 616.1 290.45 615.0 290.65 614.05 291.4 613.4 M269.6 588.6 L270.3 587.9 272.2 587.45 273.9 587.65 274.85 588.1 275.5 589.0 275.35 590.05 274.65 590.75 272.95 591.2 271.3 591.1 270.1 590.6 269.4 589.55 269.6 588.6 M270.5 533.2 L269.8 533.6 268.55 534.05 267.5 534.05 265.4 533.7 264.15 532.45 264.45 530.95 266.1 530.0 267.6 529.8 270.25 530.5 270.95 531.3 271.15 532.05 270.5 533.2 M472.05 661.1 L472.55 660.65 474.65 660.05 476.75 660.45 477.8 661.5 477.75 662.65 476.9 663.35 475.5 663.75 473.55 663.6 472.55 663.15 471.95 662.4 472.05 661.1 M467.25 649.2 L465.75 648.8 465.0 647.95 465.15 647.1 466.8 646.2 468.7 646.3 469.4 646.7 470.05 647.65 469.85 648.25 468.35 649.1 467.25 649.2 M355.3 572.7 L355.9 571.95 357.1 571.55 358.75 571.55 360.3 572.55 360.3 573.7 359.0 574.55 358.15 574.65 356.35 574.35 355.3 573.3 355.3 572.7 M379.0 578.9 L376.8 579.2 374.4 578.55 373.45 577.45 373.55 575.9 374.5 575.05 376.2 574.45 378.35 574.45 380.15 575.05 381.0 575.8 381.3 576.85 380.9 577.85 380.15 578.55 379.0 578.9 M330.45 608.6 L329.4 608.45 327.8 607.25 327.8 606.05 328.65 605.15 330.95 604.55 332.95 604.95 334.2 606.05 334.1 607.45 332.65 608.45 330.45 608.6 M321.2 530.4 L321.85 531.15 321.95 531.65 321.5 532.45 320.6 533.05 318.15 533.1 317.25 532.65 316.6 531.75 316.7 530.95 317.25 530.5 319.2 529.95 321.2 530.4 M162.05 525.85 L159.85 526.15 158.4 525.35 158.4 524.3 158.9 523.8 161.35 523.55 162.5 524.1 162.8 524.7 162.7 525.3 162.05 525.85 M723.5 572.7 L725.8 572.9 727.2 573.9 727.5 574.75 727.2 575.5 726.35 576.2 724.9 576.6 722.8 576.5 721.8 576.1 721.0 574.95 721.3 573.75 721.95 573.2 723.5 572.7 M744.25 580.45 L745.25 581.15 745.0 582.1 743.85 582.6 742.8 582.6 741.85 582.1 741.55 581.65 741.65 581.05 743.0 580.35 744.25 580.45 M733.05 540.6 L733.9 541.25 734.1 542.15 733.75 542.9 732.65 543.7 731.05 544.15 728.65 543.85 727.25 542.9 727.0 542.0 727.2 541.25 728.0 540.45 730.2 539.9 731.7 540.0 733.05 540.6 M761.8 523.05 L763.55 522.95 764.95 523.55 765.35 524.3 765.05 525.15 763.55 525.85 762.0 525.85 761.25 525.55 760.55 524.9 760.4 524.2 760.75 523.6 Q761.3 523.3 761.8 523.05 M165.75 616.1 L165.55 615.4 165.85 613.95 166.8 613.1 168.75 612.4 172.15 612.6 173.3 613.1 174.35 614.15 174.55 615.3 174.15 616.3 173.3 617.05 171.2 617.7 168.25 617.65 166.8 617.05 165.75 616.1 M160.4 605.05 L160.9 604.55 162.2 604.3 163.3 604.5 164.15 605.15 164.05 605.9 163.65 606.3 161.65 606.6 160.4 605.9 160.4 605.05 M727.5 613.1 L728.65 612.1 730.1 611.65 731.7 611.55 734.2 612.3 735.05 613.1 735.25 614.15 Q735.05 616.3 730.55 616.35 L729.5 616.15 728.0 615.4 727.5 614.8 727.25 613.75 727.5 613.1 M988.45 175.65 L988.25 176.75 987.2 177.6 986.15 177.95 984.35 178.1 983.0 177.8 981.8 177.1 981.3 175.85 981.8 174.85 982.8 174.2 985.5 173.85 987.7 174.5 988.45 175.65 M964.35 169.45 L963.5 170.15 962.05 170.55 960.5 170.4 959.45 169.95 958.8 169.25 958.9 168.2 959.65 167.5 961.55 167.05 963.7 167.5 964.45 168.2 964.35 169.45 M1017.05 152.0 L1017.2 150.8 1018.3 149.7 1020.85 149.05 1022.65 149.1 1024.4 149.7 1025.6 151.0 1025.35 152.6 1024.4 153.5 1023.05 154.1 1021.6 154.25 1019.6 154.1 1018.1 153.5 1017.25 152.7 1017.05 152.0 M1035.65 145.0 L1036.35 144.2 1037.4 143.8 1039.7 143.8 1041.2 144.8 1041.1 145.95 1040.55 146.6 1039.65 147.0 1037.4 147.0 1036.3 146.6 1035.65 146.0 1035.65 145.0 M1024.1 128.2 L1024.4 128.7 1024.3 129.5 1023.05 130.15 1021.8 130.15 1020.75 129.75 1020.4 129.3 1020.55 128.5 1021.8 127.8 1023.15 127.8 1024.1 128.2 M1045.7 192.4 L1045.3 193.0 1043.2 194.05 1041.8 194.15 1039.85 193.65 1038.45 192.7 1038.4 192.3 1038.45 191.25 1039.4 190.3 1041.5 189.7 1043.7 189.9 1045.1 190.5 1045.7 191.25 1045.7 192.4 M508.55 680.1 L508.8 679.3 509.4 678.7 510.75 678.35 513.05 678.65 514.0 679.6 513.9 680.65 513.25 681.25 511.8 681.6 509.4 681.25 508.55 680.1 M513.6 674.0 L514.75 673.6 517.4 673.6 518.95 674.6 519.25 675.35 519.05 676.2 518.2 677.0 517.05 677.35 515.6 677.5 514.25 677.15 512.85 676.2 512.65 675.55 513.0 674.6 513.6 674.0 M507.4 610.3 L508.85 609.8 511.5 609.8 512.85 610.35 513.6 611.05 513.8 612.2 513.5 612.9 512.55 613.65 510.45 614.15 508.45 614.05 506.55 612.9 506.45 611.35 507.4 610.3 M685.45 537.15 L686.25 536.4 687.4 535.95 688.8 535.8 689.1 534.75 690.7 534.0 691.75 533.9 693.3 534.25 694.1 534.95 694.25 535.95 693.5 536.8 692.35 537.15 692.55 538.45 691.5 539.7 689.3 540.25 687.4 540.1 686.15 539.6 685.45 538.9 685.2 537.85 685.45 537.15 M1027.45 180.0 L1026.5 180.9 1025.45 181.2 1022.95 181.25 1021.6 180.7 1020.95 180.1 1020.85 179.5 1021.15 178.5 1022.0 177.8 1023.9 177.3 1025.6 177.4 1026.9 177.95 1027.55 178.65 1027.45 180.0 M936.85 145.45 L938.45 145.95 938.95 146.4 938.9 147.7 937.5 148.45 935.3 148.45 934.35 148.05 933.85 147.2 934.05 146.4 935.4 145.55 936.85 145.45 M926.15 139.75 L927.85 139.95 929.25 140.9 929.3 141.75 928.9 142.45 927.0 143.25 924.5 142.85 923.65 142.15 923.55 141.7 923.75 140.8 924.3 140.35 926.15 139.75 M1060.4 223.1 L1061.05 223.65 1060.9 224.95 Q1059.0 227.0 1055.45 225.4 L1054.95 224.35 1055.25 223.6 1056.0 222.9 1057.35 222.5 1059.35 222.65 1060.4 223.1 M1033.2 274.7 L1033.15 275.95 1031.95 276.85 1030.05 277.4 1027.7 277.1 1026.5 276.55 1026.0 275.9 1026.0 274.4 1026.9 273.55 1028.5 273.05 1030.05 272.95 1031.45 273.25 1032.6 273.8 1033.2 274.7 M1038.15 272.45 L1039.2 273.05 1039.7 273.8 1039.5 274.6 Q1038.25 276.3 1034.9 275.1 L1034.25 274.35 1034.4 273.45 1035.45 272.65 1036.7 272.4 1038.15 272.45 M981.1 315.65 L980.35 315.0 980.35 313.35 981.6 312.3 983.4 311.8 986.2 312.1 988.0 313.35 988.1 313.9 987.8 315.05 986.75 315.95 985.3 316.4 983.0 316.4 981.1 315.65 M962.6 294.25 L963.65 294.1 965.4 294.35 966.25 295.05 966.25 296.0 965.5 296.65 963.2 297.0 961.55 296.1 961.4 295.45 961.75 294.85 962.6 294.25 M985.9 256.1 L983.9 255.8 983.4 255.25 983.5 254.4 984.65 253.7 985.5 253.6 987.05 254.0 987.5 254.4 987.6 255.15 987.25 255.55 985.9 256.1 M970.2 267.8 L970.0 267.05 970.35 266.0 971.85 264.9 974.2 264.55 975.75 264.65 977.1 265.25 978.05 266.1 978.15 266.75 977.95 267.8 975.85 269.2 974.25 269.35 972.35 269.2 970.9 268.5 970.2 267.8 M985.15 243.25 L986.95 243.55 988.55 244.2 989.35 245.3 989.3 246.65 988.1 247.8 986.95 248.25 984.65 248.45 983.3 248.25 981.75 247.6 980.9 246.5 980.75 245.85 981.2 244.8 982.0 244.0 983.5 243.4 985.15 243.25 M997.9 222.8 L998.6 223.5 998.6 224.55 997.9 225.2 996.85 225.6 994.75 225.6 993.15 224.55 993.25 223.4 993.9 222.8 995.8 222.3 997.9 222.8 M1020.1 220.3 L1022.7 220.5 1024.2 221.45 1024.1 222.9 1023.15 223.65 1022.0 224.05 1019.6 224.0 1018.3 223.3 1017.8 222.65 1018.0 221.45 1018.95 220.7 1020.1 220.3 M1014.05 174.3 L1013.0 175.25 1010.55 175.85 1008.65 175.55 1007.4 175.05 1006.55 174.2 1006.7 172.75 1007.6 171.9 1010.15 171.2 1011.95 171.4 1013.2 171.9 1014.1 172.85 1014.05 174.3 M921.55 166.1 Q919.45 167.45 916.85 166.35 L915.65 165.6 915.6 165.2 915.65 164.05 916.65 163.2 917.7 162.8 920.65 162.85 921.75 163.45 922.4 164.4 922.2 165.6 921.55 166.1 M854.55 194.75 L853.9 193.85 854.0 192.9 854.85 192.2 856.1 191.85 858.1 191.9 859.15 192.4 859.8 193.4 859.55 194.25 Q856.6 196.3 854.55 194.75 M820.55 144.4 L821.9 143.8 823.5 143.6 825.35 143.8 826.95 144.45 827.9 145.95 827.35 147.5 826.7 148.05 825.35 148.65 823.8 148.85 821.9 148.65 820.35 147.95 819.6 147.3 819.35 146.4 819.6 145.25 820.55 144.4 M876.55 164.6 L878.35 164.2 879.5 164.6 880.15 165.1 879.9 166.1 878.75 166.75 877.2 166.75 876.45 166.45 875.95 165.9 875.95 165.3 876.55 164.6 M850.2 128.3 L850.85 129.2 850.75 130.45 850.2 130.85 848.25 131.7 845.6 131.4 844.15 130.35 843.9 129.55 844.55 128.6 846.0 127.65 849.1 127.75 850.2 128.3 M865.55 138.85 L866.6 139.45 867.15 140.35 867.0 140.9 865.95 142.05 863.45 142.45 861.35 141.7 860.85 141.0 860.85 140.2 861.9 139.05 864.05 138.6 865.55 138.85 M942.1 172.3 L943.3 173.05 943.3 174.1 942.3 174.85 940.0 175.05 938.35 174.2 938.55 172.85 939.7 172.15 940.55 172.1 942.1 172.3 M916.45 199.6 L916.65 200.8 916.45 201.35 915.45 202.3 914.1 202.75 911.5 202.75 909.8 202.0 909.15 201.4 908.95 200.55 909.3 199.65 910.35 198.8 913.05 198.25 914.85 198.6 916.45 199.6 M889.25 166.95 L887.35 165.75 887.25 164.4 887.75 163.55 889.55 162.6 891.25 162.4 892.7 162.6 894.4 163.35 895.05 164.05 894.9 165.7 894.4 166.1 Q893.15 167.75 889.25 166.95 M949.25 159.3 L950.5 159.6 951.95 160.15 952.75 161.05 952.95 162.1 952.4 163.2 951.35 164.05 950.0 164.55 947.75 164.6 946.3 164.35 944.85 163.55 944.1 162.65 944.35 160.95 945.4 159.95 946.85 159.4 949.25 159.3 M849.8 241.0 L849.9 241.6 849.6 242.25 848.75 242.75 847.3 242.95 845.95 242.45 845.4 241.85 845.4 241.3 846.15 240.5 846.85 240.25 848.45 240.25 849.8 241.0 M907.9 391.35 L909.5 390.4 911.4 390.5 912.65 391.55 912.55 392.35 912.1 392.65 910.85 393.2 909.3 393.1 907.9 392.25 907.9 391.35 M955.05 353.6 L954.4 352.65 954.4 351.85 955.55 350.8 957.65 350.3 960.05 350.9 960.9 351.65 961.0 352.35 960.9 353.0 960.05 353.8 957.65 354.4 956.15 354.2 955.05 353.6 M942.85 341.4 L942.65 342.75 941.7 343.65 939.95 344.25 938.45 344.3 937.05 344.1 935.6 343.45 934.75 342.55 934.7 341.6 934.9 340.95 936.45 339.8 939.1 339.25 940.45 339.45 942.05 340.25 942.85 341.4 M950.1 312.95 L948.95 312.45 948.0 311.6 948.0 310.15 948.95 309.2 950.2 308.7 951.9 308.5 953.25 308.7 954.4 309.2 955.35 310.05 955.35 311.6 954.7 312.1 953.15 312.95 951.35 313.15 950.1 312.95 M917.9 309.05 L917.9 310.05 917.25 310.6 914.95 310.9 913.5 310.05 913.5 309.05 914.0 308.6 915.45 308.2 916.95 308.5 917.9 309.05 M900.5 266.75 L899.85 267.45 898.45 267.65 897.4 267.35 896.9 266.45 897.35 265.8 898.7 265.4 900.05 265.7 900.55 266.25 900.5 266.75 M887.7 237.4 L887.7 238.7 886.7 239.75 885.6 240.25 883.7 240.45 882.3 240.25 881.05 239.65 880.35 238.9 880.15 238.0 880.45 237.15 881.8 236.2 884.1 235.8 885.6 236.0 886.85 236.55 887.7 237.4 M909.8 240.3 L909.95 239.45 910.75 238.6 911.9 238.2 913.6 238.1 915.05 238.5 916.2 239.35 916.3 240.3 916.0 241.0 915.05 241.6 913.35 242.05 911.6 241.85 910.35 241.2 909.8 240.3 M934.35 267.95 L935.2 267.8 936.85 268.0 938.25 269.0 938.1 270.15 937.5 270.7 936.45 271.1 934.35 271.1 932.8 270.15 932.65 269.3 933.1 268.6 934.35 267.95 M813.6 280.8 L813.6 281.9 812.35 282.85 810.55 282.9 809.45 282.55 808.8 281.95 808.65 281.2 809.3 280.35 Q809.6 280.15 809.95 280.0 L812.15 279.95 813.6 280.8 M829.0 266.45 L829.0 265.7 830.4 264.9 831.9 264.9 832.95 265.6 833.0 266.0 832.6 266.75 831.65 267.25 830.0 267.15 829.0 266.45 M870.15 252.65 L869.65 253.1 867.65 253.6 865.75 253.1 865.05 252.05 865.25 251.3 865.75 250.8 867.75 250.3 869.65 250.8 870.25 251.65 870.15 252.65 M887.35 383.75 L888.8 383.6 890.6 384.0 891.45 384.4 892.5 385.65 892.4 386.9 891.55 387.6 889.65 388.45 888.2 388.55 886.3 388.2 884.6 387.0 884.4 385.95 884.6 385.15 885.6 384.3 887.35 383.75 M847.6 479.45 L848.95 480.25 849.3 480.95 849.15 481.8 848.35 482.5 847.4 482.85 845.8 482.95 844.15 482.5 843.65 482.0 843.3 481.15 843.5 480.45 844.35 479.8 845.6 479.4 847.6 479.45 M872.25 476.95 L873.4 476.3 874.95 476.35 875.75 476.85 875.8 477.55 874.9 478.25 873.65 478.4 872.65 478.1 872.15 477.35 872.25 476.95 M824.6 512.1 L826.0 512.9 826.0 513.45 825.25 514.3 823.5 514.5 822.5 514.25 821.9 513.3 822.75 512.3 824.6 512.1 M813.6 489.35 L814.95 489.15 816.75 489.35 817.8 489.85 818.65 490.8 818.55 492.15 817.5 493.0 816.45 493.35 813.9 493.4 812.45 492.85 811.75 492.05 811.55 491.3 812.05 490.25 813.6 489.35 M825.8 444.35 L827.75 444.4 828.95 445.0 829.65 445.75 829.8 446.65 828.95 447.85 826.3 448.5 823.8 447.85 822.95 446.55 823.35 445.3 824.4 444.6 825.8 444.35 M813.0 430.85 L814.55 430.85 815.7 431.25 816.35 431.85 816.35 432.9 815.6 433.75 814.75 434.1 813.2 434.15 811.75 433.7 811.0 432.9 811.0 432.35 811.1 431.85 811.8 431.25 813.0 430.85 M822.45 437.05 L822.95 437.95 822.95 438.6 822.3 439.2 821.2 439.6 818.85 439.3 818.05 438.35 818.25 437.45 818.75 437.0 820.2 436.6 822.45 437.05 M876.45 457.7 L876.15 458.1 875.2 458.65 873.5 458.65 872.35 457.95 872.25 457.2 873.65 456.25 875.1 456.25 876.35 457.0 876.45 457.7 M848.35 389.15 L849.7 389.35 850.65 389.8 851.25 390.6 851.2 391.75 850.55 392.35 849.6 392.65 847.9 392.85 846.15 392.35 845.3 391.3 845.6 390.2 846.75 389.4 848.35 389.15 M846.45 381.3 L847.8 380.3 850.35 380.45 851.45 381.5 851.4 382.4 850.0 383.25 849.1 383.35 847.5 383.05 846.45 382.2 846.45 381.3 M869.1 384.0 L869.3 382.75 870.9 381.8 873.65 381.8 874.95 382.55 875.4 383.35 875.2 384.4 874.55 384.95 873.0 385.45 870.7 385.3 869.75 384.8 869.1 384.0 M843.85 362.45 L843.7 363.85 843.1 364.45 840.9 365.05 839.45 364.85 838.25 364.25 837.65 363.2 837.75 362.45 838.45 361.75 840.35 361.15 842.45 361.45 843.85 362.45 M929.65 389.55 L930.35 388.95 931.35 388.75 933.1 389.05 933.7 389.6 933.4 390.8 931.55 391.35 930.3 391.1 929.5 390.5 929.65 389.55 M938.9 445.7 L937.85 445.0 937.85 444.15 938.1 443.85 939.5 443.45 941.0 443.75 941.5 444.2 941.2 445.3 940.45 445.7 938.9 445.7 M1007.75 461.45 L1009.2 461.55 1010.25 461.95 1011.1 463.1 1011.1 463.7 1010.45 464.5 1012.35 464.95 1013.2 465.7 1013.3 466.2 1013.05 467.0 1012.55 467.45 1011.4 467.95 1009.3 467.95 1008.15 467.45 1007.4 466.6 1007.55 465.65 1008.05 465.15 1006.5 464.85 1005.25 464.0 1005.25 462.6 1005.95 461.95 1007.75 461.45 M1005.95 451.6 L1007.4 452.15 1008.35 453.05 1008.65 453.65 1008.45 455.2 1007.1 456.25 1005.85 456.75 1003.85 456.95 1001.65 456.4 999.85 455.05 999.65 454.4 1000.05 452.95 1002.35 451.6 1004.4 451.4 1005.95 451.6 M1024.4 431.35 L1024.55 432.55 1024.2 432.9 Q1023.1 434.5 1019.7 433.95 L1017.9 432.8 1017.8 431.55 1018.65 430.65 1019.8 430.2 1022.5 430.2 1024.4 431.35 M1031.65 414.6 L1031.85 413.15 1032.9 412.25 1034.05 411.9 1036.9 411.9 1038.6 412.8 1039.2 413.75 1039.0 414.9 1037.95 415.75 1036.8 416.15 1035.25 416.35 1033.85 416.15 1032.7 415.7 1031.65 414.6 M977.6 332.2 L976.35 333.0 975.0 333.0 973.65 332.2 973.55 331.55 974.8 330.55 976.55 330.55 977.75 331.35 977.6 332.2 M1002.1 363.65 L1002.1 364.95 1001.25 365.7 999.75 366.2 998.2 366.2 996.6 365.7 995.8 364.95 995.8 363.8 996.85 362.8 998.8 362.3 1000.0 362.45 1001.55 363.1 1002.1 363.65 M1067.75 398.45 L1068.65 397.95 1069.0 398.15 1068.8 400.0 1067.85 399.6 1067.55 399.1 1067.75 398.45 M930.15 498.35 Q929.05 500.9 926.1 499.0 L926.15 498.05 927.4 497.4 929.0 497.4 930.15 498.35 M907.5 513.65 L910.0 513.65 911.2 514.15 912.0 514.9 912.0 516.35 910.55 517.4 912.85 517.75 914.4 518.95 914.35 520.45 913.15 521.3 911.9 521.7 910.75 521.8 908.95 521.4 907.5 520.3 907.5 518.75 909.1 517.75 906.65 517.35 905.3 516.35 905.4 514.8 906.35 514.05 907.5 513.65 M894.0 503.4 L892.95 504.55 890.2 505.15 888.8 504.95 887.55 504.35 886.85 503.65 886.65 502.7 886.85 501.95 888.0 501.1 889.05 500.7 891.05 500.55 Q895.45 502.05 894.0 503.4 M915.65 488.3 L915.15 488.95 914.4 489.25 912.85 489.25 911.9 488.75 911.5 488.1 912.0 487.15 913.9 486.75 915.15 487.15 915.65 487.7 915.65 488.3 M915.4 477.7 L916.5 477.25 919.35 477.25 921.05 478.25 921.55 479.0 921.45 480.15 920.65 480.95 919.45 481.4 917.75 481.6 916.45 481.4 915.25 480.95 914.4 480.15 914.4 478.6 915.4 477.7 M905.75 444.6 L906.55 445.2 906.65 446.1 906.35 446.45 905.1 447.05 903.7 447.05 902.35 446.3 902.45 445.2 903.0 444.75 904.15 444.4 905.75 444.6 M915.25 420.8 L917.5 420.8 918.95 421.75 918.8 422.85 917.35 423.8 915.45 423.8 913.9 422.9 913.8 421.9 915.25 420.8 M982.55 431.15 L981.8 431.85 980.75 432.2 978.35 432.2 976.7 431.15 976.7 429.8 977.3 429.25 979.4 428.65 981.3 428.95 982.55 429.8 982.55 431.15 M56.85 292.6 L58.6 292.9 60.5 294.15 60.85 295.1 60.45 296.2 59.4 297.0 58.4 297.45 56.95 297.65 54.55 297.25 52.75 296.0 52.65 294.45 53.4 293.55 55.2 292.8 56.85 292.6 M6.5 309.2 L7.45 310.15 7.55 311.3 6.95 312.1 6.4 312.55 4.9 313.05 2.2 312.95 1.15 312.45 0.1 311.5 0.0 310.55 0.95 309.25 2.4 308.7 4.0 308.5 5.25 308.7 6.5 309.2 M17.3 275.35 L17.4 275.9 17.2 276.45 16.6 276.85 15.2 277.25 13.85 276.9 13.0 276.25 13.0 275.35 14.35 274.6 16.35 274.7 17.3 275.35 M26.1 274.6 L25.2 275.3 22.75 275.55 21.6 275.1 20.85 274.35 21.2 273.15 22.45 272.45 23.3 272.4 25.4 272.8 26.1 273.55 26.1 274.6 M12.15 254.2 L12.4 253.1 13.95 252.45 15.2 252.45 16.25 252.85 17.0 253.9 16.65 254.6 15.55 255.25 14.5 255.35 12.45 254.65 12.15 254.2 M49.2 262.0 L50.0 262.6 50.0 263.5 49.5 263.95 47.5 264.15 46.35 263.35 46.35 262.7 46.85 262.2 47.9 261.95 49.2 262.0 M32.95 269.55 L32.2 268.9 32.2 267.65 33.25 266.85 35.1 266.6 36.5 266.75 37.75 267.65 37.85 268.15 37.75 268.9 36.8 269.7 35.1 270.05 34.1 269.95 32.95 269.55 M30.7 243.6 L32.3 243.15 34.0 243.15 35.25 243.55 36.15 244.3 36.4 245.15 36.1 245.95 34.9 246.65 33.8 247.0 31.45 246.85 30.5 246.35 29.9 245.45 29.9 244.5 30.7 243.6 M66.7 241.2 L66.8 239.85 67.55 239.3 69.85 238.6 72.4 239.1 73.3 239.85 73.5 240.45 73.1 241.6 72.4 242.25 71.35 242.65 68.5 242.55 66.7 241.2 M32.75 220.3 L35.05 220.4 36.6 221.45 36.8 222.3 36.5 223.0 35.65 223.65 34.4 224.05 32.6 224.05 31.45 223.65 30.4 222.8 30.3 222.25 30.5 221.35 31.05 220.9 32.75 220.3 M47.65 150.8 L48.05 150.3 48.95 149.6 50.55 149.1 52.35 149.05 53.8 149.3 55.2 150.0 55.9 151.0 56.1 151.65 55.5 153.0 54.75 153.55 52.85 154.15 51.6 154.25 49.6 153.9 48.7 153.4 47.65 152.2 47.65 150.8 M127.75 207.9 L129.1 207.7 131.15 208.2 131.75 208.75 131.95 209.65 131.75 210.1 130.1 211.1 128.7 211.2 127.45 210.9 126.4 210.1 126.4 208.9 127.75 207.9 M121.75 195.4 L122.6 195.0 124.2 194.95 125.75 195.6 126.1 196.3 125.9 197.05 124.9 197.65 123.05 197.85 121.5 197.05 121.25 196.1 121.75 195.4 M110.35 205.3 L110.55 204.25 111.2 203.75 112.95 202.85 115.0 202.75 116.45 203.05 118.2 204.4 118.4 205.3 117.8 206.35 116.45 207.35 115.05 207.6 112.1 207.2 110.55 206.05 110.35 205.3 M73.3 127.8 L74.25 128.3 74.55 129.0 74.35 129.55 73.1 130.15 71.95 130.15 70.9 129.7 70.6 128.6 70.9 128.2 71.95 127.8 73.3 127.8 M143.1 80.5 L142.25 81.65 141.2 82.05 139.2 82.1 137.5 81.55 136.65 80.75 136.6 80.2 137.0 79.0 Q137.4 78.8 137.85 78.55 L140.55 78.15 142.25 78.65 142.95 79.35 143.1 80.5 M866.8 583.0 L866.8 583.65 866.5 583.95 865.3 584.6 863.2 584.6 862.3 584.15 861.9 583.45 861.9 582.7 862.7 582.0 863.85 581.7 865.85 582.0 866.8 583.0 M873.5 520.7 L873.5 522.05 872.65 522.85 871.3 523.35 868.8 523.35 867.4 522.65 866.7 521.7 866.8 520.5 867.65 519.75 869.85 519.15 871.95 519.45 872.85 519.95 873.5 520.7 M955.85 595.95 L954.6 597.2 952.95 597.6 951.15 597.5 950.2 597.1 949.25 596.25 949.25 594.85 950.2 594.1 951.55 593.65 952.6 593.65 954.6 594.0 955.75 595.2 955.85 595.95 M913.15 603.4 L913.3 604.1 913.15 604.65 912.45 605.35 909.7 605.9 907.6 605.35 906.8 604.55 906.65 604.1 906.8 603.1 907.4 602.55 908.9 601.95 910.2 601.85 912.3 602.45 913.15 603.4 M954.9 561.9 L955.55 561.3 956.9 560.9 958.25 560.9 959.3 561.3 960.05 562.25 960.05 562.9 959.3 563.6 958.6 563.8 956.9 564.0 955.85 563.7 954.9 562.9 954.9 561.9 M951.7 526.25 L953.75 526.45 954.9 527.5 954.8 528.4 953.0 529.25 951.25 529.15 949.85 528.25 949.85 527.2 950.5 526.65 951.7 526.25 M961.4 575.8 L962.15 576.8 962.15 577.85 961.55 578.4 959.75 578.9 957.65 578.8 956.15 577.85 956.3 576.4 957.35 575.65 959.1 575.25 960.5 575.45 961.4 575.8 M969.5 519.75 L969.5 520.65 968.9 521.2 967.9 521.6 966.35 521.7 964.9 521.2 964.25 520.65 964.25 519.45 964.75 518.95 966.15 518.5 967.6 518.5 968.9 518.95 969.5 519.75 M971.55 524.95 L972.15 524.4 974.25 523.8 976.35 524.2 977.4 525.1 977.4 526.35 976.7 527.0 975.0 527.5 973.2 527.4 971.55 526.35 971.55 524.95 M983.6 525.85 L984.65 526.35 985.7 527.6 985.7 528.55 985.5 529.15 Q984.85 529.6 984.25 530.0 L983.4 530.4 981.6 530.6 979.9 530.4 978.8 529.95 977.75 528.95 977.55 528.0 978.05 526.85 978.8 526.25 981.6 525.55 983.6 525.85 M1037.6 542.15 L1040.25 542.2 1041.3 542.7 1042.25 543.7 1042.25 544.9 1041.6 545.6 1039.3 546.4 1036.8 546.1 1035.25 544.9 1035.1 544.45 1035.25 543.35 1035.95 542.7 1037.6 542.15 M1045.1 591.3 L1044.05 590.35 1043.9 589.75 1044.1 588.8 1044.75 588.2 1046.85 587.5 1048.95 587.65 1049.6 587.9 1051.05 589.0 1051.15 590.25 1050.55 591.0 1048.3 591.8 1046.55 591.8 1045.1 591.3 M1049.35 552.6 Q1047.15 554.15 1044.95 552.85 L1044.35 552.1 1044.65 551.1 1046.45 550.35 1048.1 550.45 1048.95 550.9 1049.5 551.5 1049.35 552.6 M1045.15 502.7 L1046.45 502.9 1047.2 503.4 1047.05 504.55 1045.4 505.15 1043.85 504.75 1043.3 504.05 1043.7 503.1 1045.15 502.7 M1059.25 461.95 L1060.6 463.1 Q1059.65 466.4 1055.35 463.9 L1055.6 462.6 1057.25 461.85 1059.25 461.95 M1033.75 501.1 L1035.45 500.55 1037.85 500.9 1039.4 502.05 1039.4 503.4 1038.8 504.15 1037.55 504.75 1034.8 504.85 1033.35 504.25 1032.4 503.3 1032.3 502.65 1032.8 501.65 1033.75 501.1 M994.8 490.05 L997.55 490.05 998.95 490.7 999.65 491.65 999.65 492.85 999.0 493.35 Q998.25 493.75 997.55 494.2 L994.6 494.2 993.25 493.5 992.5 492.45 992.5 491.4 993.7 490.45 994.8 490.05 M996.4 477.35 L995.25 476.3 995.35 475.5 995.8 475.15 997.45 474.65 999.15 474.95 1000.0 475.6 1000.0 476.55 999.0 477.25 997.9 477.55 996.4 477.35 M133.95 242.65 L133.75 243.75 132.7 244.8 131.55 245.3 129.1 245.45 127.85 245.3 126.6 244.7 125.55 243.75 125.45 243.25 125.75 241.8 126.6 241.0 128.0 240.45 129.75 240.25 131.35 240.45 132.8 241.0 133.45 241.6 133.95 242.65 M79.8 342.2 L79.6 341.2 79.8 340.55 80.65 339.8 81.6 339.4 84.75 339.25 86.65 340.45 86.95 341.5 86.55 342.3 85.7 343.05 84.55 343.45 81.85 343.45 80.65 342.95 79.8 342.2 M123.05 342.95 L123.25 343.75 122.95 344.7 122.0 345.45 120.7 345.95 118.85 346.05 117.5 345.8 116.65 345.4 115.6 344.1 115.9 342.7 116.95 341.9 118.2 341.5 120.7 341.5 122.4 342.3 123.05 342.95 M137.95 335.3 L139.3 334.95 140.8 334.95 142.35 335.6 142.95 336.75 142.75 337.25 141.3 338.3 139.0 338.4 137.95 338.05 137.1 337.25 137.0 336.5 137.95 335.3 M136.05 318.95 L137.0 319.35 137.65 319.9 137.85 320.8 137.0 321.95 136.25 322.15 134.05 322.45 132.8 322.05 131.85 321.25 131.85 320.05 132.8 319.25 134.15 318.85 136.05 318.95 M102.9 317.2 L101.95 316.35 101.95 315.45 102.8 314.8 103.85 314.5 106.05 314.85 106.65 315.4 106.9 316.05 106.6 316.75 105.85 317.1 104.5 317.5 102.9 317.2 M102.7 291.05 L104.3 291.95 104.9 293.3 104.7 294.15 103.85 294.95 102.25 295.5 100.5 295.65 98.8 295.25 97.25 294.1 97.15 293.55 97.35 292.35 98.5 291.45 99.85 291.0 102.7 291.05 M78.25 397.65 L78.7 398.55 78.25 399.3 76.6 400.0 74.25 399.6 73.5 398.55 73.65 397.95 74.25 397.35 75.55 397.0 77.2 397.1 78.25 397.65 M48.9 464.95 L47.7 464.55 47.0 463.5 47.2 462.75 47.7 462.25 49.6 461.75 51.2 462.05 52.25 463.1 52.1 464.1 51.6 464.55 50.25 464.95 48.9 464.95 M39.1 412.65 L36.15 412.6 34.7 411.9 33.8 411.05 33.8 409.2 35.25 408.0 37.65 407.45 40.1 407.75 41.1 408.2 42.15 409.2 42.4 409.95 42.05 411.1 41.0 412.1 39.1 412.65 M7.75 399.05 L9.55 398.55 11.2 398.9 11.75 399.4 11.75 400.6 11.35 400.95 10.15 401.35 8.9 401.35 8.0 401.05 7.2 400.4 7.35 399.4 7.75 399.05 M144.15 397.85 L145.5 398.15 145.9 398.55 145.9 399.4 145.6 399.7 145.0 400.0 143.5 400.0 142.45 399.3 142.45 398.65 142.95 398.15 144.15 397.85 M138.15 383.6 L138.15 383.05 139.4 382.25 141.1 382.25 141.7 382.55 142.35 383.4 142.1 384.0 140.8 384.7 138.7 384.4 138.15 383.6 M146.05 380.3 L144.85 380.7 143.4 380.85 141.5 380.3 140.35 379.3 140.35 377.9 142.25 376.65 145.2 376.65 146.75 377.55 147.3 378.6 147.1 379.45 146.05 380.3 M135.1 449.55 L137.0 449.4 138.55 449.65 139.6 450.05 140.45 450.8 140.65 452.15 140.05 453.05 139.2 453.7 137.1 454.2 134.7 453.85 132.9 452.55 132.9 451.0 133.95 450.05 135.1 449.55 M62.4 535.35 L64.6 534.75 66.95 535.35 67.65 536.2 67.55 537.5 66.95 538.05 65.35 538.55 63.35 538.45 62.3 537.95 61.55 537.15 61.7 536.0 62.4 535.35 M122.1 590.4 L122.0 589.85 122.2 588.85 123.05 588.1 124.2 587.65 127.0 587.65 128.3 588.2 128.9 589.0 129.1 589.95 128.9 590.55 128.05 591.3 126.5 591.8 124.85 591.8 123.35 591.4 122.1 590.4 M81.85 552.45 L81.2 553.05 79.75 553.45 78.35 553.35 76.9 552.45 76.8 551.6 77.1 551.1 78.9 550.35 80.8 550.55 81.85 551.3 81.85 552.45 M89.65 552.0 L88.95 551.25 88.95 549.95 90.2 548.8 92.2 548.3 94.7 548.7 95.75 549.5 96.2 550.35 95.75 551.6 95.15 552.2 92.75 552.8 91.35 552.65 90.5 552.25 89.65 552.0 M123.25 478.25 L122.8 479.0 122.0 479.6 119.6 479.95 118.1 479.6 117.05 478.8 116.95 477.55 118.2 476.5 120.3 476.1 122.4 476.7 123.15 477.45 123.25 478.25 M134.55 486.55 L135.1 487.0 135.35 488.0 134.5 489.05 133.65 489.45 131.85 489.55 130.15 488.95 129.55 488.35 129.45 487.7 129.55 487.2 130.4 486.45 131.65 486.05 133.0 486.05 134.55 486.55 M109.95 504.0 L110.55 503.0 111.5 502.7 112.9 502.8 113.7 503.4 113.8 504.35 112.55 505.05 110.65 504.85 109.95 504.0" fill="#e8eeee" fill-rule="evenodd" stroke="none"/>
  </g>
</svg>
