<?xml version="1.0" encoding="UTF-8" standalone="no"?>
<svg xmlns:xlink="http://www.w3.org/1999/xlink" height="103.45px" width="36.4px" xmlns="http://www.w3.org/2000/svg">
  <g transform="matrix(1.0, 0.0, 0.0, 1.0, 18.1, 51.65)">
    <path d="M6.15 -4.8 L10.55 -3.3 Q14.95 -1.65 18.05 0.1 14.95 1.8 10.55 3.45 L6.15 4.95 3.9 26.8 Q2.85 36.75 0.1 51.55 -2.65 36.75 -3.7 26.8 L-5.95 4.95 -10.35 3.45 Q-14.75 1.8 -17.85 0.1 -14.75 -1.65 -10.35 -3.3 L-5.95 -4.8 -3.7 -26.65 Q-2.65 -36.6 0.1 -51.4 2.85 -36.6 3.9 -26.65 L6.15 -4.8" fill="url(#gradient0)" fill-rule="evenodd" stroke="none"/>
    <path d="M6.15 -4.8 L10.55 -3.3 Q14.95 -1.65 18.05 0.1 14.95 1.8 10.55 3.45 L6.15 4.95 3.9 26.8 Q2.85 36.75 0.1 51.55 -2.65 36.75 -3.7 26.8 L-5.95 4.95 -10.35 3.45 Q-14.75 1.8 -17.85 0.1 -14.75 -1.65 -10.35 -3.3 L-5.95 -4.8 -3.7 -26.65 Q-2.65 -36.6 0.1 -51.4 2.85 -36.6 3.9 -26.65 L6.15 -4.8 Z" fill="none" stroke="#e2fefb" stroke-linecap="round" stroke-linejoin="round" stroke-width="0.5"/>
  </g>
  <defs>
    <radialGradient color-interpolation="linearRGB" cx="0" cy="0" gradientTransform="matrix(0.0469, 0.0, 0.0, 0.1175, 0.1, 0.1)" gradientUnits="userSpaceOnUse" id="gradient0" r="819.2" spreadMethod="pad">
      <stop offset="0.0" stop-color="#ffffff"/>
      <stop offset="1.0" stop-color="#95ffff"/>
    </radialGradient>
  </defs>
</svg>
