<?xml version="1.0" encoding="UTF-8" standalone="no"?>
<svg xmlns:xlink="http://www.w3.org/1999/xlink" height="208.5px" width="80.5px" xmlns="http://www.w3.org/2000/svg">
  <g transform="matrix(1.0, 0.0, 0.0, 1.0, 40.25, 104.25)">
    <path d="M16.0 -3.5 L29.55 -1.75 40.0 0.0 29.55 1.75 16.0 3.5 Q8.1 4.65 6.0 5.6 5.5 9.95 4.2 31.0 L2.6 68.6 Q0.95 97.5 0.0 104.0 -0.95 97.5 -2.6 68.6 L-4.2 31.0 Q-5.5 9.95 -6.0 5.6 -8.1 4.65 -16.0 3.5 L-29.55 1.75 -40.0 0.0 -29.55 -1.75 -16.0 -3.5 Q-8.1 -4.65 -6.0 -5.6 -5.5 -9.95 -4.2 -31.0 L-2.6 -68.6 Q-0.95 -97.5 0.0 -104.0 0.95 -97.5 2.6 -68.6 L4.2 -31.0 Q5.5 -9.95 6.0 -5.6 8.1 -4.65 16.0 -3.5" fill="#e3fdf3" fill-rule="evenodd" stroke="none"/>
    <path d="M16.0 -3.5 L29.55 -1.75 40.0 0.0 29.55 1.75 16.0 3.5 Q8.1 4.65 6.0 5.6 5.5 9.95 4.2 31.0 L2.6 68.6 Q0.95 97.5 0.0 104.0 -0.95 97.5 -2.6 68.6 L-4.2 31.0 Q-5.5 9.95 -6.0 5.6 -8.1 4.65 -16.0 3.5 L-29.55 1.75 -40.0 0.0 -29.55 -1.75 -16.0 -3.5 Q-8.1 -4.65 -6.0 -5.6 -5.5 -9.95 -4.2 -31.0 L-2.6 -68.6 Q-0.95 -97.5 0.0 -104.0 0.95 -97.5 2.6 -68.6 L4.2 -31.0 Q5.5 -9.95 6.0 -5.6 8.1 -4.65 16.0 -3.5 Z" fill="none" stroke="#cffcf0" stroke-linecap="round" stroke-linejoin="round" stroke-width="0.5"/>
  </g>
</svg>
