<?xml version="1.0" encoding="UTF-8" standalone="no"?>
<svg xmlns:xlink="http://www.w3.org/1999/xlink" height="151.5px" width="84.0px" xmlns="http://www.w3.org/2000/svg">
  <g transform="matrix(1.0, 0.0, 0.0, 1.0, 42.0, 75.75)">
    <path d="M0.0 -1.25 L1.25 -0.05 0.05 1.2 -1.25 0.05 0.0 -1.25" fill="#affae7" fill-rule="evenodd" stroke="none"/>
    <path d="M0.0 -75.5 L0.0 -67.0 M0.0 -23.75 L0.0 -1.25 1.25 -0.05 0.05 1.2 0.0 1.25 0.0 23.75 M0.0 -60.25 L0.0 -28.5 M22.5 0.0 L16.5 0.0 M0.0 75.5 L0.0 67.0 M0.0 60.25 L0.0 28.5 M41.75 0.0 L25.25 0.0 M-22.5 0.0 L-16.5 0.0 M-41.75 0.0 L-25.25 0.0 M0.05 1.2 L-1.25 0.05 0.0 -1.25" fill="none" stroke="#77f9d8" stroke-linecap="round" stroke-linejoin="round" stroke-width="0.5"/>
  </g>
</svg>
