<?xml version="1.0" encoding="UTF-8" standalone="no"?>
<svg xmlns:xlink="http://www.w3.org/1999/xlink" height="16.0px" width="647.0px" xmlns="http://www.w3.org/2000/svg">
  <g transform="matrix(1.0, 0.0, 0.0, 1.0, -8.0, 0.0)">
    <path d="M183.0 14.0 Q183.0 16.0 181.0 16.0 L10.0 16.0 Q8.0 16.0 8.0 14.0 L8.0 2.0 Q8.0 0.0 10.0 0.0 L181.0 0.0 Q183.0 0.0 183.0 2.0 L183.0 14.0 M247.0 14.0 Q247.0 16.0 245.0 16.0 L187.0 16.0 Q185.0 16.0 185.0 14.0 L185.0 2.0 Q185.0 0.0 187.0 0.0 L245.0 0.0 Q247.0 0.0 247.0 2.0 L247.0 14.0 M311.0 14.0 Q311.0 16.0 309.0 16.0 L251.0 16.0 Q249.0 16.0 249.0 14.0 L249.0 2.0 Q249.0 0.0 251.0 0.0 L309.0 0.0 Q311.0 0.0 311.0 2.0 L311.0 14.0 M463.0 14.0 Q463.0 16.0 461.0 16.0 L315.0 16.0 Q313.0 16.0 313.0 14.0 L313.0 2.0 Q313.0 0.0 315.0 0.0 L461.0 0.0 Q463.0 0.0 463.0 2.0 L463.0 14.0 M527.0 2.0 L527.0 14.0 Q527.0 16.0 525.0 16.0 L467.0 16.0 Q465.0 16.0 465.0 14.0 L465.0 2.0 Q465.0 0.0 467.0 0.0 L525.0 0.0 Q527.0 0.0 527.0 2.0 M655.0 14.0 Q655.0 16.0 653.0 16.0 L531.0 16.0 Q529.0 16.0 529.0 14.0 L529.0 2.0 Q529.0 0.0 531.0 0.0 L653.0 0.0 Q655.0 0.0 655.0 2.0 L655.0 14.0" fill="#ffffff" fill-opacity="0.7529412" fill-rule="evenodd" stroke="none"/>
  </g>
</svg>
