<?xml version="1.0" encoding="UTF-8" standalone="no"?>
<svg xmlns:xlink="http://www.w3.org/1999/xlink" height="36.0px" width="272.0px" xmlns="http://www.w3.org/2000/svg">
  <g transform="matrix(1.0, 0.0, 0.0, 1.0, 3.0, 15.0)">
    <path d="M56.0 -3.0 L266.0 -3.0 Q269.0 -3.0 269.0 0.0 L269.0 18.0 Q269.0 21.0 266.0 21.0 L0.0 21.0 Q-3.0 21.0 -3.0 18.0 L-3.0 -12.0 Q-3.0 -15.0 0.0 -15.0 L53.0 -15.0 Q56.0 -15.0 56.0 -12.0 L56.0 -3.0 M264.0 1.0 L2.0 1.0 Q1.0 1.0 1.0 2.0 L1.0 16.0 Q1.0 17.0 2.0 17.0 L264.0 17.0 Q265.0 17.0 265.0 16.0 L265.0 2.0 Q265.0 1.0 264.0 1.0" fill="#000000" fill-rule="evenodd" stroke="none"/>
    <path d="M53.0 -14.0 Q55.0 -14.0 55.0 -12.0 L55.0 -2.0 266.0 -2.0 Q268.0 -2.0 268.0 0.0 L268.0 18.0 Q268.0 20.0 266.0 20.0 L0.0 20.0 Q-2.0 20.0 -2.0 18.0 L-2.0 -12.0 Q-2.0 -14.0 0.0 -14.0 L53.0 -14.0 M266.0 2.0 Q266.0 0.0 264.0 0.0 L2.0 0.0 Q0.0 0.0 0.0 2.0 L0.0 16.0 Q0.0 18.0 2.0 18.0 L264.0 18.0 Q266.0 18.0 266.0 16.0 L266.0 2.0" fill="#00ff00" fill-rule="evenodd" stroke="none"/>
  </g>
</svg>
