<?xml version="1.0" encoding="UTF-8" standalone="no"?>
<svg xmlns:xlink="http://www.w3.org/1999/xlink" height="158.0px" width="41.0px" xmlns="http://www.w3.org/2000/svg">
  <g transform="matrix(1.0, 0.0, 0.0, 1.0, 20.5, 80.5)">
    <path d="M1.5 -80.0 Q2.15 -79.5 2.4 -78.7 L3.5 -73.45 4.1 -70.25 4.8 -69.75 4.75 -69.75 6.0 -68.5 Q7.0 -68.5 7.75 -67.75 L7.8 -67.75 Q8.5 -67.0 8.5 -66.0 L8.5 -63.85 18.35 -62.45 19.9 -61.6 Q20.5 -60.9 20.5 -60.0 20.5 -59.1 19.9 -58.35 19.25 -57.65 18.35 -57.5 L8.5 -56.1 8.5 -52.85 18.35 -51.45 19.9 -50.6 Q20.5 -49.9 20.5 -49.0 20.5 -48.1 19.9 -47.35 19.25 -46.65 18.35 -46.5 L8.5 -45.1 8.5 -41.85 18.35 -40.45 19.9 -39.6 Q20.5 -38.9 20.5 -38.0 20.5 -37.1 19.9 -36.35 19.25 -35.65 18.35 -35.5 L10.1 -34.35 Q10.5 -33.75 10.5 -33.0 L10.5 -29.0 Q10.5 -28.0 9.8 -27.25 L9.75 -27.2 9.1 -26.75 8.45 -23.5 Q8.3 -22.65 7.6 -22.05 L7.15 -21.75 6.65 -17.25 Q7.5 -16.3 7.5 -15.0 7.5 -13.65 6.5 -12.6 L6.5 -12.0 Q6.5 -11.0 5.8 -10.25 L5.75 -10.2 5.5 -10.0 5.5 32.6 Q6.5 33.65 6.5 35.0 6.5 36.4 5.5 37.45 L5.4 38.2 5.4 38.3 5.3 39.2 Q4.7 46.5 5.4 59.9 L5.45 60.9 5.45 60.95 5.5 61.35 6.25 62.9 6.45 63.5 7.0 63.5 Q8.0 63.5 8.75 64.25 L8.8 64.25 Q9.5 65.0 9.5 66.0 L9.5 68.0 Q9.5 69.0 8.8 69.75 L8.75 69.8 Q8.0 70.5 7.0 70.5 L5.8 70.5 5.3 71.0 Q5.65 71.8 5.45 72.7 L5.4 72.7 Q5.15 73.6 4.35 74.1 L4.4 74.05 3.25 75.35 3.2 75.35 Q1.35 77.7 0.2 77.5 L-0.2 77.5 Q-1.35 77.7 -3.2 75.35 L-4.35 74.05 -4.3 74.1 Q-5.15 73.6 -5.4 72.7 -5.65 71.8 -5.3 71.0 L-5.75 70.5 -7.0 70.5 Q-8.0 70.5 -8.75 69.8 L-8.75 69.75 Q-9.5 69.0 -9.5 68.0 L-9.5 66.0 Q-9.5 65.0 -8.75 64.25 -8.0 63.5 -7.0 63.5 L-6.45 63.5 -6.25 62.9 -5.45 61.35 -5.45 60.95 -5.45 60.9 -5.4 59.9 Q-4.7 46.5 -5.3 39.2 L-5.35 38.3 -5.5 37.4 Q-6.5 36.4 -6.5 35.0 -6.5 33.65 -5.5 32.6 L-5.5 -10.0 -5.75 -10.2 -5.75 -10.25 Q-6.5 -11.0 -6.5 -12.0 L-6.5 -12.6 Q-7.5 -13.65 -7.5 -15.0 -7.5 -16.3 -6.6 -17.25 L-7.15 -21.75 -7.6 -22.05 -7.55 -22.05 Q-8.3 -22.65 -8.45 -23.5 L-9.1 -26.75 -9.75 -27.2 -9.75 -27.25 Q-10.5 -28.0 -10.5 -29.0 L-10.5 -33.0 Q-10.5 -33.75 -10.1 -34.35 L-18.35 -35.5 Q-19.25 -35.65 -19.85 -36.35 -20.5 -37.1 -20.5 -38.0 -20.5 -38.9 -19.85 -39.6 -19.25 -40.35 -18.35 -40.45 L-8.5 -41.85 -8.5 -45.1 -18.35 -46.5 Q-19.25 -46.65 -19.85 -47.35 -20.5 -48.1 -20.5 -49.0 -20.5 -49.9 -19.85 -50.6 -19.25 -51.35 -18.35 -51.45 L-8.5 -52.85 -8.5 -56.1 -18.35 -57.5 Q-19.25 -57.65 -19.85 -58.35 -20.5 -59.1 -20.5 -60.0 -20.5 -60.9 -19.85 -61.6 -19.25 -62.35 -18.35 -62.45 L-8.5 -63.85 -8.5 -66.0 Q-8.5 -67.0 -7.75 -67.75 -7.0 -68.5 -6.0 -68.5 L-4.75 -69.75 -4.05 -70.25 -3.5 -73.45 -2.4 -78.7 Q-2.15 -79.5 -1.5 -80.0 -0.85 -80.5 0.0 -80.5 0.85 -80.5 1.5 -80.0" fill="#000000" fill-rule="evenodd" stroke="none"/>
    <path d="M5.0 68.0 Q3.6 68.8 3.0 70.0 L0.0 70.0 -3.0 70.0 Q-3.6 68.8 -5.0 68.0 L0.0 68.0 5.0 68.0" fill="url(#gradient0)" fill-rule="evenodd" stroke="none"/>
    <path d="M2.0 70.0 Q1.65 70.6 1.95 71.15 L3.0 72.0 0.0 72.0 -3.0 72.0 -1.95 71.15 Q-1.65 70.6 -2.0 70.0 L0.0 70.0 2.0 70.0" fill="url(#gradient1)" fill-rule="evenodd" stroke="none"/>
    <path d="M1.25 73.8 L0.0 75.0 -1.25 73.8 Q-2.3 72.45 -3.0 72.0 L3.0 72.0 Q2.3 72.45 1.25 73.8" fill="url(#gradient2)" fill-rule="evenodd" stroke="none"/>
    <path d="M5.0 68.0 L-5.0 68.0 -5.0 66.0 5.0 66.0 5.0 68.0" fill="url(#gradient3)" fill-rule="evenodd" stroke="none"/>
    <path d="M-5.0 66.0 L-5.0 68.0 -7.0 68.0 -7.0 66.0 -5.0 66.0" fill="#515026" fill-rule="evenodd" stroke="none"/>
    <path d="M5.0 68.0 L5.0 66.0 7.0 66.0 7.0 68.0 5.0 68.0" fill="#a09f49" fill-rule="evenodd" stroke="none"/>
    <path d="M4.0 64.0 Q2.75 64.9 3.0 66.0 L0.0 66.0 -3.0 66.0 Q-2.75 64.9 -4.0 64.0 L0.0 64.0 4.0 64.0" fill="url(#gradient4)" fill-rule="evenodd" stroke="none"/>
    <path d="M4.0 64.0 L-4.0 64.0 -3.0 62.0 3.0 62.0 4.0 64.0" fill="url(#gradient5)" fill-rule="evenodd" stroke="none"/>
    <path d="M2.9 38.0 L2.8 39.0 Q2.15 46.4 2.9 60.0 L2.95 61.0 3.0 62.0 0.0 62.0 -3.0 62.0 -2.95 61.0 -2.9 60.0 Q-2.15 46.4 -2.8 39.0 L-2.85 38.0 -3.0 37.0 0.0 37.0 3.0 37.0 2.9 38.0" fill="url(#gradient6)" fill-rule="evenodd" stroke="none"/>
    <path d="M2.9 38.0 L2.8 39.0 -2.8 39.0 -2.85 38.0 2.9 38.0" fill="url(#gradient7)" fill-rule="evenodd" stroke="none"/>
    <path d="M2.9 60.0 L2.95 61.0 -2.95 61.0 -2.9 60.0 2.9 60.0" fill="url(#gradient8)" fill-rule="evenodd" stroke="none"/>
    <path d="M3.0 37.0 L-3.0 37.0 -3.0 36.0 3.0 36.0 3.0 37.0" fill="url(#gradient9)" fill-rule="evenodd" stroke="none"/>
    <path d="M3.0 34.0 Q3.4 34.0 3.7 34.3 L4.0 35.0 3.7 35.7 3.0 36.0 -3.0 36.0 -3.7 35.7 -4.0 35.0 -3.7 34.3 Q-3.4 34.0 -3.0 34.0 L3.0 34.0" fill="url(#gradient10)" fill-rule="evenodd" stroke="none"/>
    <path d="M3.0 34.0 L-3.0 34.0 -3.0 32.0 3.0 32.0 3.0 34.0" fill="url(#gradient11)" fill-rule="evenodd" stroke="none"/>
    <path d="M3.0 -10.0 L3.0 32.0 -3.0 32.0 -3.0 -10.0 3.0 -10.0" fill="url(#gradient12)" fill-rule="evenodd" stroke="none"/>
    <path d="M3.0 -10.0 L-3.0 -10.0 -3.0 -12.0 3.0 -12.0 3.0 -10.0" fill="url(#gradient13)" fill-rule="evenodd" stroke="none"/>
    <path d="M4.0 -12.0 L-4.0 -12.0 -4.0 -14.0 4.0 -14.0 4.0 -12.0" fill="url(#gradient14)" fill-rule="evenodd" stroke="none"/>
    <path d="M5.0 -15.0 L4.7 -14.3 Q4.4 -14.0 4.0 -14.0 L-4.0 -14.0 Q-4.4 -14.0 -4.7 -14.3 L-5.0 -15.0 -4.7 -15.7 -4.0 -16.0 4.0 -16.0 4.7 -15.7 5.0 -15.0" fill="url(#gradient15)" fill-rule="evenodd" stroke="none"/>
    <path d="M0.0 -29.0 L6.0 -29.0 Q4.5 -22.9 4.0 -16.0 L-4.0 -16.0 Q-4.5 -22.9 -6.0 -29.0 L0.0 -29.0" fill="url(#gradient16)" fill-rule="evenodd" stroke="none"/>
    <path d="M1.0 -24.0 L-1.0 -24.0 -1.0 -29.0 1.0 -29.0 1.0 -24.0" fill="url(#gradient17)" fill-rule="evenodd" stroke="none"/>
    <path d="M-5.0 -29.0 Q-5.3 -26.6 -5.0 -24.0 L-6.0 -24.0 -7.0 -29.0 -5.0 -29.0" fill="url(#gradient18)" fill-rule="evenodd" stroke="none"/>
    <path d="M5.0 -24.0 Q5.3 -26.6 5.0 -29.0 L7.0 -29.0 6.0 -24.0 5.0 -24.0" fill="url(#gradient19)" fill-rule="evenodd" stroke="none"/>
    <path d="M-4.0 -58.0 L-18.0 -60.0 -4.0 -62.0 -4.0 -58.0" fill="url(#gradient20)" fill-rule="evenodd" stroke="none"/>
    <path d="M-18.0 -49.0 L-4.0 -51.0 -4.0 -47.0 -18.0 -49.0" fill="url(#gradient21)" fill-rule="evenodd" stroke="none"/>
    <path d="M-4.0 -40.0 L-4.0 -36.0 -18.0 -38.0 -4.0 -40.0" fill="url(#gradient22)" fill-rule="evenodd" stroke="none"/>
    <path d="M4.0 -62.0 L18.0 -60.0 4.0 -58.0 4.0 -62.0" fill="url(#gradient23)" fill-rule="evenodd" stroke="none"/>
    <path d="M4.0 -40.0 L18.0 -38.0 4.0 -36.0 4.0 -40.0" fill="url(#gradient24)" fill-rule="evenodd" stroke="none"/>
    <path d="M18.0 -49.0 L4.0 -47.0 4.0 -51.0 18.0 -49.0" fill="url(#gradient25)" fill-rule="evenodd" stroke="none"/>
    <path d="M8.0 -29.0 L-8.0 -29.0 -8.0 -33.0 8.0 -33.0 8.0 -29.0" fill="url(#gradient26)" fill-rule="evenodd" stroke="none"/>
    <path d="M5.0 -33.0 L-5.0 -33.0 -5.0 -64.0 5.0 -64.0 5.0 -33.0" fill="url(#gradient27)" fill-rule="evenodd" stroke="none"/>
    <path d="M2.0 -37.9 Q2.0 -37.2 1.4 -36.6 L0.5 -36.0 -2.0 -34.35 Q-4.25 -32.95 -5.0 -33.0 -5.05 -34.35 -1.9 -38.7 L-1.4 -39.4 Q-0.8 -40.0 -0.05 -39.95 0.8 -40.0 1.4 -39.4 2.0 -38.8 2.0 -37.9" fill="url(#gradient28)" fill-rule="evenodd" stroke="none"/>
    <path d="M1.4 -47.6 L0.5 -47.0 -2.0 -45.35 Q-4.25 -43.95 -5.0 -44.0 -5.05 -45.35 -1.9 -49.7 L-1.4 -50.4 Q-0.8 -51.0 -0.05 -50.95 0.8 -51.0 1.4 -50.4 2.0 -49.8 2.0 -48.9 2.0 -48.2 1.4 -47.6" fill="url(#gradient29)" fill-rule="evenodd" stroke="none"/>
    <path d="M2.0 -59.9 Q2.0 -59.2 1.4 -58.6 L0.5 -58.0 -2.0 -56.35 Q-4.25 -54.95 -5.0 -55.0 -5.05 -56.35 -1.9 -60.7 L-1.4 -61.4 Q-0.8 -62.0 -0.05 -61.95 0.8 -62.0 1.4 -61.4 2.0 -60.8 2.0 -59.9" fill="url(#gradient30)" fill-rule="evenodd" stroke="none"/>
    <path d="M1.45 -39.55 L1.85 -38.85 2.0 -38.0 Q2.0 -37.15 1.4 -36.6 0.85 -36.0 0.0 -36.0 -0.85 -36.0 -1.45 -36.6 -2.0 -37.15 -2.0 -38.0 L-1.75 -39.05 -1.45 -39.55 0.0 -41.0 1.45 -39.55" fill="url(#gradient31)" fill-rule="evenodd" stroke="none"/>
    <path d="M1.45 -50.55 L1.85 -49.85 2.0 -49.0 Q2.0 -48.15 1.4 -47.6 0.85 -47.0 0.0 -47.0 -0.85 -47.0 -1.45 -47.6 -2.0 -48.15 -2.0 -49.0 L-1.75 -50.05 -1.45 -50.55 0.0 -52.0 1.45 -50.55" fill="url(#gradient32)" fill-rule="evenodd" stroke="none"/>
    <path d="M0.0 -58.0 Q-0.85 -58.0 -1.45 -58.6 -2.0 -59.15 -2.0 -60.0 L-1.75 -61.05 -1.45 -61.55 0.0 -63.0 1.45 -61.55 1.85 -60.85 2.0 -60.0 Q2.0 -59.15 1.4 -58.6 0.85 -58.0 0.0 -58.0" fill="url(#gradient33)" fill-rule="evenodd" stroke="none"/>
    <path d="M-5.0 -64.0 L-5.0 -33.0 -6.0 -33.0 -6.0 -64.0 -5.0 -64.0" fill="url(#gradient34)" fill-rule="evenodd" stroke="none"/>
    <path d="M6.0 -64.0 L6.0 -33.0 5.0 -33.0 5.0 -64.0 6.0 -64.0" fill="url(#gradient35)" fill-rule="evenodd" stroke="none"/>
    <path d="M5.0 -64.0 L-5.0 -64.0 -5.0 -66.0 5.0 -66.0 5.0 -64.0" fill="url(#gradient36)" fill-rule="evenodd" stroke="none"/>
    <path d="M5.0 -66.0 L6.0 -66.0 6.0 -64.0 5.0 -64.0 5.0 -66.0" fill="#a09f49" fill-rule="evenodd" stroke="none"/>
    <path d="M-5.0 -64.0 L-6.0 -64.0 -6.0 -66.0 -5.0 -66.0 -5.0 -64.0" fill="#515026" fill-rule="evenodd" stroke="none"/>
    <path d="M3.0 -68.0 L5.0 -66.0 0.0 -66.0 0.0 -68.0 3.0 -68.0" fill="url(#gradient37)" fill-rule="evenodd" stroke="none"/>
    <path d="M0.0 -66.0 L-5.0 -66.0 -3.0 -68.0 0.0 -68.0 0.0 -66.0" fill="url(#gradient38)" fill-rule="evenodd" stroke="none"/>
    <path d="M0.0 -78.0 L1.05 -73.0 2.0 -68.0 0.0 -68.0 -2.0 -68.0 -1.05 -73.0 0.0 -78.0" fill="url(#gradient39)" fill-rule="evenodd" stroke="none"/>
    <path d="M4.0 -11.0 L-4.0 -11.0 -4.0 -12.0 4.0 -12.0 4.0 -11.0 M8.0 -28.0 L-8.0 -28.0 -8.0 -29.0 8.0 -29.0 8.0 -28.0 M1.0 -23.0 L-1.0 -23.0 -1.0 -24.0 1.0 -24.0 1.0 -23.0 M-6.0 68.0 L6.0 68.0 6.0 69.0 -6.0 69.0 -6.0 68.0" fill="#000000" fill-opacity="0.2" fill-rule="evenodd" stroke="none"/>
    <path d="M-2.0 70.0 L2.0 70.0 2.0 71.0 -2.0 71.0 -2.0 70.0" fill="#000000" fill-opacity="0.4" fill-rule="evenodd" stroke="none"/>
  </g>
  <defs>
    <linearGradient gradientTransform="matrix(0.0061, 0.0, 0.0, 0.0012, 0.0, 69.0)" gradientUnits="userSpaceOnUse" id="gradient0" spreadMethod="pad" x1="-819.2" x2="819.2">
      <stop offset="0.0" stop-color="#4e4e4e"/>
      <stop offset="0.13725490196078433" stop-color="#232323"/>
      <stop offset="0.28627450980392155" stop-color="#494a52"/>
      <stop offset="0.37254901960784315" stop-color="#6d6d6d"/>
      <stop offset="0.4745098039215686" stop-color="#8d8d8d"/>
      <stop offset="0.5411764705882353" stop-color="#8d8d8d"/>
      <stop offset="0.6352941176470588" stop-color="#6d6d6d"/>
      <stop offset="0.7294117647058823" stop-color="#494a52"/>
      <stop offset="0.8823529411764706" stop-color="#232323"/>
      <stop offset="1.0" stop-color="#4e4e4e"/>
    </linearGradient>
    <radialGradient cx="0" cy="0" gradientTransform="matrix(0.0049, 0.0, 0.0, 0.0055, 0.0, 70.0)" gradientUnits="userSpaceOnUse" id="gradient1" r="819.2" spreadMethod="pad">
      <stop offset="0.13333333333333333" stop-color="#a3a3a3"/>
      <stop offset="0.26666666666666666" stop-color="#808080"/>
      <stop offset="0.44313725490196076" stop-color="#555555"/>
      <stop offset="0.6078431372549019" stop-color="#383838"/>
      <stop offset="1.0" stop-color="#2b2b2b"/>
    </radialGradient>
    <radialGradient cx="0" cy="0" gradientTransform="matrix(0.0051, 0.0, 0.0, 0.0079, 0.0, 72.0)" gradientUnits="userSpaceOnUse" id="gradient2" r="819.2" spreadMethod="pad">
      <stop offset="0.07450980392156863" stop-color="#c2c2c2"/>
      <stop offset="0.1568627450980392" stop-color="#adadad"/>
      <stop offset="0.3803921568627451" stop-color="#555555"/>
      <stop offset="0.5098039215686274" stop-color="#383838"/>
      <stop offset="0.7607843137254902" stop-color="#464646"/>
    </radialGradient>
    <linearGradient gradientTransform="matrix(0.0054, -0.0028, 6.0E-4, 0.0011, 0.0, 67.0)" gradientUnits="userSpaceOnUse" id="gradient3" spreadMethod="pad" x1="-819.2" x2="819.2">
      <stop offset="0.0" stop-color="#88873e"/>
      <stop offset="0.9882352941176471" stop-color="#5a5925"/>
    </linearGradient>
    <radialGradient cx="0" cy="0" gradientTransform="matrix(0.009, 0.0, 0.0, 0.0081, 0.0, 66.0)" gradientUnits="userSpaceOnUse" id="gradient4" r="819.2" spreadMethod="pad">
      <stop offset="0.058823529411764705" stop-color="#757535"/>
      <stop offset="0.29411764705882354" stop-color="#42411e"/>
      <stop offset="0.4588235294117647" stop-color="#343318"/>
    </radialGradient>
    <radialGradient cx="0" cy="0" gradientTransform="matrix(0.0079, 0.0, 0.0, 0.0089, 0.0, 64.0)" gradientUnits="userSpaceOnUse" id="gradient5" r="819.2" spreadMethod="pad">
      <stop offset="0.058823529411764705" stop-color="#8c8c40"/>
      <stop offset="0.27450980392156865" stop-color="#5d5d2a"/>
      <stop offset="0.4588235294117647" stop-color="#43431f"/>
      <stop offset="0.7647058823529411" stop-color="#707032"/>
    </radialGradient>
    <linearGradient gradientTransform="matrix(0.0037, 0.0, 0.0, 0.0153, 0.0, 49.5)" gradientUnits="userSpaceOnUse" id="gradient6" spreadMethod="pad" x1="-819.2" x2="819.2">
      <stop offset="0.0" stop-color="#1c7949"/>
      <stop offset="0.11764705882352941" stop-color="#125031"/>
      <stop offset="0.4588235294117647" stop-color="#27ad7e"/>
      <stop offset="0.5568627450980392" stop-color="#27ad74"/>
      <stop offset="0.8784313725490196" stop-color="#125031"/>
      <stop offset="1.0" stop-color="#125031"/>
    </linearGradient>
    <linearGradient gradientTransform="matrix(0.0035, 0.0, 0.0, 6.0E-4, 0.0, 38.5)" gradientUnits="userSpaceOnUse" id="gradient7" spreadMethod="pad" x1="-819.2" x2="819.2">
      <stop offset="0.0" stop-color="#86774f"/>
      <stop offset="0.06666666666666667" stop-color="#716440"/>
      <stop offset="0.27058823529411763" stop-color="#a79b65"/>
      <stop offset="0.4470588235294118" stop-color="#d8d2a7"/>
      <stop offset="0.47058823529411764" stop-color="#d8d2a7"/>
      <stop offset="0.5372549019607843" stop-color="#d8d2a7"/>
      <stop offset="0.7176470588235294" stop-color="#a9a263"/>
      <stop offset="0.9372549019607843" stop-color="#6c613e"/>
      <stop offset="1.0" stop-color="#86774f"/>
    </linearGradient>
    <linearGradient gradientTransform="matrix(0.0036, 0.0, 0.0, 6.0E-4, 0.0, 60.5)" gradientUnits="userSpaceOnUse" id="gradient8" spreadMethod="pad" x1="-819.2" x2="819.2">
      <stop offset="0.0" stop-color="#86774f"/>
      <stop offset="0.06666666666666667" stop-color="#716440"/>
      <stop offset="0.27058823529411763" stop-color="#a79b65"/>
      <stop offset="0.4470588235294118" stop-color="#d8d2a7"/>
      <stop offset="0.47058823529411764" stop-color="#d8d2a7"/>
      <stop offset="0.5372549019607843" stop-color="#d8d2a7"/>
      <stop offset="0.7176470588235294" stop-color="#a9a263"/>
      <stop offset="0.9372549019607843" stop-color="#6c613e"/>
      <stop offset="1.0" stop-color="#86774f"/>
    </linearGradient>
    <linearGradient gradientTransform="matrix(0.0037, 0.0, 0.0, 6.0E-4, 0.0, 36.5)" gradientUnits="userSpaceOnUse" id="gradient9" spreadMethod="pad" x1="-819.2" x2="819.2">
      <stop offset="0.0" stop-color="#6a6a31"/>
      <stop offset="0.11372549019607843" stop-color="#4e4e23"/>
      <stop offset="0.403921568627451" stop-color="#88873e"/>
      <stop offset="0.5058823529411764" stop-color="#979744"/>
      <stop offset="0.596078431372549" stop-color="#88873e"/>
      <stop offset="0.8823529411764706" stop-color="#4e4e23"/>
      <stop offset="1.0" stop-color="#6a6a31"/>
    </linearGradient>
    <radialGradient cx="0" cy="0" gradientTransform="matrix(0.0122, 0.0, 0.0, 0.007, 0.0, 35.0)" gradientUnits="userSpaceOnUse" id="gradient10" r="819.2" spreadMethod="pad">
      <stop offset="0.058823529411764705" stop-color="#8c8c40"/>
      <stop offset="0.2196078431372549" stop-color="#5d5d2a"/>
      <stop offset="0.34901960784313724" stop-color="#43431f"/>
      <stop offset="0.6039215686274509" stop-color="#707032"/>
    </radialGradient>
    <linearGradient gradientTransform="matrix(0.0037, 0.0, 0.0, 0.0012, 0.0, 33.0)" gradientUnits="userSpaceOnUse" id="gradient11" spreadMethod="pad" x1="-819.2" x2="819.2">
      <stop offset="0.0" stop-color="#6a6a31"/>
      <stop offset="0.11372549019607843" stop-color="#4e4e23"/>
      <stop offset="0.403921568627451" stop-color="#88873e"/>
      <stop offset="0.5058823529411764" stop-color="#979744"/>
      <stop offset="0.596078431372549" stop-color="#88873e"/>
      <stop offset="0.8823529411764706" stop-color="#4e4e23"/>
      <stop offset="1.0" stop-color="#6a6a31"/>
    </linearGradient>
    <linearGradient gradientTransform="matrix(0.0037, 0.0, 0.0, 0.0256, 0.0, 11.0)" gradientUnits="userSpaceOnUse" id="gradient12" spreadMethod="pad" x1="-819.2" x2="819.2">
      <stop offset="0.00784313725490196" stop-color="#515151"/>
      <stop offset="0.13725490196078433" stop-color="#383838"/>
      <stop offset="0.28627450980392155" stop-color="#5a5c65"/>
      <stop offset="0.37254901960784315" stop-color="#787878"/>
      <stop offset="0.4745098039215686" stop-color="#9f9f9f"/>
      <stop offset="0.5411764705882353" stop-color="#9f9f9f"/>
      <stop offset="0.6352941176470588" stop-color="#787878"/>
      <stop offset="0.7294117647058823" stop-color="#5a5c65"/>
      <stop offset="0.8823529411764706" stop-color="#383838"/>
      <stop offset="1.0" stop-color="#515151"/>
    </linearGradient>
    <linearGradient gradientTransform="matrix(0.0037, 0.0, 0.0, 0.0012, 0.0, -11.0)" gradientUnits="userSpaceOnUse" id="gradient13" spreadMethod="pad" x1="-819.2" x2="819.2">
      <stop offset="0.0" stop-color="#86774f"/>
      <stop offset="0.06666666666666667" stop-color="#716440"/>
      <stop offset="0.27058823529411763" stop-color="#a79b65"/>
      <stop offset="0.4470588235294118" stop-color="#d8d2a7"/>
      <stop offset="0.47058823529411764" stop-color="#d8d2a7"/>
      <stop offset="0.5372549019607843" stop-color="#d8d2a7"/>
      <stop offset="0.7176470588235294" stop-color="#a9a263"/>
      <stop offset="0.9372549019607843" stop-color="#6c613e"/>
      <stop offset="1.0" stop-color="#86774f"/>
    </linearGradient>
    <linearGradient gradientTransform="matrix(0.0049, 0.0, 0.0, 0.0012, 0.0, -13.0)" gradientUnits="userSpaceOnUse" id="gradient14" spreadMethod="pad" x1="-819.2" x2="819.2">
      <stop offset="0.00784313725490196" stop-color="#515151"/>
      <stop offset="0.13725490196078433" stop-color="#383838"/>
      <stop offset="0.28627450980392155" stop-color="#5a5c65"/>
      <stop offset="0.37254901960784315" stop-color="#787878"/>
      <stop offset="0.4745098039215686" stop-color="#9f9f9f"/>
      <stop offset="0.5411764705882353" stop-color="#9f9f9f"/>
      <stop offset="0.6352941176470588" stop-color="#787878"/>
      <stop offset="0.7294117647058823" stop-color="#5a5c65"/>
      <stop offset="0.8823529411764706" stop-color="#383838"/>
      <stop offset="1.0" stop-color="#515151"/>
    </linearGradient>
    <radialGradient cx="0" cy="0" gradientTransform="matrix(0.0146, 0.0, 0.0, 0.0079, 0.0, -15.0)" gradientUnits="userSpaceOnUse" id="gradient15" r="819.2" spreadMethod="pad">
      <stop offset="0.058823529411764705" stop-color="#8c8c40"/>
      <stop offset="0.2196078431372549" stop-color="#5d5d2a"/>
      <stop offset="0.34901960784313724" stop-color="#43431f"/>
      <stop offset="0.6039215686274509" stop-color="#707032"/>
    </radialGradient>
    <radialGradient cx="0" cy="0" gradientTransform="matrix(0.0, -0.0391, 0.0108, 0.0, 0.0, -16.0)" gradientUnits="userSpaceOnUse" id="gradient16" r="819.2" spreadMethod="pad">
      <stop offset="0.011764705882352941" stop-color="#88873e"/>
      <stop offset="0.3607843137254902" stop-color="#46451f"/>
      <stop offset="0.5372549019607843" stop-color="#353417"/>
      <stop offset="0.807843137254902" stop-color="#494821"/>
    </radialGradient>
    <linearGradient gradientTransform="matrix(0.0, -0.0032, 0.0031, 0.0, 0.0, -26.5)" gradientUnits="userSpaceOnUse" id="gradient17" spreadMethod="pad" x1="-819.2" x2="819.2">
      <stop offset="0.0" stop-color="#61612c"/>
      <stop offset="0.9254901960784314" stop-color="#88873e"/>
    </linearGradient>
    <linearGradient gradientTransform="matrix(-0.0023, 5.0E-4, -6.0E-4, -0.003, -6.0, -26.0)" gradientUnits="userSpaceOnUse" id="gradient18" spreadMethod="pad" x1="-819.2" x2="819.2">
      <stop offset="0.3058823529411765" stop-color="#4d4c22"/>
      <stop offset="0.6627450980392157" stop-color="#585727"/>
      <stop offset="0.9294117647058824" stop-color="#88873e"/>
    </linearGradient>
    <linearGradient gradientTransform="matrix(0.0025, 4.0E-4, -5.0E-4, 0.003, 6.0, -26.5)" gradientUnits="userSpaceOnUse" id="gradient19" spreadMethod="pad" x1="-819.2" x2="819.2">
      <stop offset="0.3058823529411765" stop-color="#4d4c22"/>
      <stop offset="0.6627450980392157" stop-color="#585727"/>
      <stop offset="0.9294117647058824" stop-color="#88873e"/>
    </linearGradient>
    <radialGradient cx="0" cy="0" gradientTransform="matrix(-0.0171, 0.0, 0.0, 0.0025, -6.0, -60.0)" gradientUnits="userSpaceOnUse" id="gradient20" r="819.2" spreadMethod="pad">
      <stop offset="0.06666666666666667" stop-color="#e0e2e4"/>
      <stop offset="0.23529411764705882" stop-color="#b5b7c1"/>
      <stop offset="0.396078431372549" stop-color="#848392"/>
      <stop offset="0.6588235294117647" stop-color="#4d4d55"/>
      <stop offset="0.9058823529411765" stop-color="#3e3e42"/>
    </radialGradient>
    <radialGradient cx="0" cy="0" gradientTransform="matrix(-0.0171, 0.0, 0.0, 0.0025, -6.0, -49.0)" gradientUnits="userSpaceOnUse" id="gradient21" r="819.2" spreadMethod="pad">
      <stop offset="0.06666666666666667" stop-color="#e0e2e4"/>
      <stop offset="0.23529411764705882" stop-color="#b5b7c1"/>
      <stop offset="0.396078431372549" stop-color="#848392"/>
      <stop offset="0.6588235294117647" stop-color="#4d4d55"/>
      <stop offset="0.9058823529411765" stop-color="#3e3e42"/>
    </radialGradient>
    <radialGradient cx="0" cy="0" gradientTransform="matrix(-0.0171, 0.0, 0.0, 0.0025, -6.0, -38.0)" gradientUnits="userSpaceOnUse" id="gradient22" r="819.2" spreadMethod="pad">
      <stop offset="0.06666666666666667" stop-color="#e0e2e4"/>
      <stop offset="0.23529411764705882" stop-color="#b5b7c1"/>
      <stop offset="0.396078431372549" stop-color="#848392"/>
      <stop offset="0.6588235294117647" stop-color="#4d4d55"/>
      <stop offset="0.9058823529411765" stop-color="#3e3e42"/>
    </radialGradient>
    <radialGradient cx="0" cy="0" gradientTransform="matrix(0.0171, 0.0, 0.0, 0.0025, 6.0, -60.0)" gradientUnits="userSpaceOnUse" id="gradient23" r="819.2" spreadMethod="pad">
      <stop offset="0.06666666666666667" stop-color="#e0e2e4"/>
      <stop offset="0.23529411764705882" stop-color="#b5b7c1"/>
      <stop offset="0.396078431372549" stop-color="#848392"/>
      <stop offset="0.6588235294117647" stop-color="#4d4d55"/>
      <stop offset="0.9058823529411765" stop-color="#3e3e42"/>
    </radialGradient>
    <radialGradient cx="0" cy="0" gradientTransform="matrix(0.0171, 0.0, 0.0, 0.0025, 6.0, -38.0)" gradientUnits="userSpaceOnUse" id="gradient24" r="819.2" spreadMethod="pad">
      <stop offset="0.06666666666666667" stop-color="#e0e2e4"/>
      <stop offset="0.23529411764705882" stop-color="#b5b7c1"/>
      <stop offset="0.396078431372549" stop-color="#848392"/>
      <stop offset="0.6588235294117647" stop-color="#4d4d55"/>
      <stop offset="0.9058823529411765" stop-color="#3e3e42"/>
    </radialGradient>
    <radialGradient cx="0" cy="0" gradientTransform="matrix(0.0171, 0.0, 0.0, 0.0025, 6.0, -49.0)" gradientUnits="userSpaceOnUse" id="gradient25" r="819.2" spreadMethod="pad">
      <stop offset="0.06666666666666667" stop-color="#e0e2e4"/>
      <stop offset="0.23529411764705882" stop-color="#b5b7c1"/>
      <stop offset="0.396078431372549" stop-color="#848392"/>
      <stop offset="0.6588235294117647" stop-color="#4d4d55"/>
      <stop offset="0.9058823529411765" stop-color="#3e3e42"/>
    </radialGradient>
    <linearGradient gradientTransform="matrix(0.0098, 0.0, 0.0, 0.0024, 0.0, -31.0)" gradientUnits="userSpaceOnUse" id="gradient26" spreadMethod="pad" x1="-819.2" x2="819.2">
      <stop offset="0.0" stop-color="#6a6a31"/>
      <stop offset="0.11372549019607843" stop-color="#4e4e23"/>
      <stop offset="0.403921568627451" stop-color="#88873e"/>
      <stop offset="0.5058823529411764" stop-color="#979744"/>
      <stop offset="0.596078431372549" stop-color="#88873e"/>
      <stop offset="0.8823529411764706" stop-color="#4e4e23"/>
      <stop offset="1.0" stop-color="#6a6a31"/>
    </linearGradient>
    <linearGradient gradientTransform="matrix(-0.01, 0.0167, -0.0161, -0.0096, 0.0, -48.5)" gradientUnits="userSpaceOnUse" id="gradient27" spreadMethod="pad" x1="-819.2" x2="819.2">
      <stop offset="0.11764705882352941" stop-color="#5a5a3a"/>
      <stop offset="0.49019607843137253" stop-color="#7b7751"/>
      <stop offset="0.9882352941176471" stop-color="#c6c571"/>
    </linearGradient>
    <linearGradient gradientTransform="matrix(0.003, -0.0032, 0.0022, 0.0021, -0.55, -37.5)" gradientUnits="userSpaceOnUse" id="gradient28" spreadMethod="pad" x1="-819.2" x2="819.2">
      <stop offset="0.0" stop-color="#000000" stop-opacity="0.050980393"/>
      <stop offset="0.5294117647058824" stop-color="#464646" stop-opacity="0.24313726"/>
    </linearGradient>
    <linearGradient gradientTransform="matrix(0.003, -0.0032, 0.0022, 0.0021, -0.55, -48.5)" gradientUnits="userSpaceOnUse" id="gradient29" spreadMethod="pad" x1="-819.2" x2="819.2">
      <stop offset="0.0" stop-color="#000000" stop-opacity="0.050980393"/>
      <stop offset="0.5294117647058824" stop-color="#464646" stop-opacity="0.24313726"/>
    </linearGradient>
    <linearGradient gradientTransform="matrix(0.003, -0.0032, 0.0022, 0.0021, -0.55, -59.5)" gradientUnits="userSpaceOnUse" id="gradient30" spreadMethod="pad" x1="-819.2" x2="819.2">
      <stop offset="0.0" stop-color="#000000" stop-opacity="0.050980393"/>
      <stop offset="0.5294117647058824" stop-color="#464646" stop-opacity="0.24313726"/>
    </linearGradient>
    <radialGradient cx="0" cy="0" fx="816.0" fy="0" gradientTransform="matrix(-1.0E-4, -0.0109, 0.0038, 0.0, 0.0, -32.0)" gradientUnits="userSpaceOnUse" id="gradient31" r="819.2" spreadMethod="pad">
      <stop offset="0.06666666666666667" stop-color="#e0e2e4"/>
      <stop offset="0.2196078431372549" stop-color="#b5b7c1"/>
      <stop offset="0.43529411764705883" stop-color="#848392"/>
      <stop offset="0.5647058823529412" stop-color="#696972"/>
      <stop offset="0.9058823529411765" stop-color="#838489"/>
    </radialGradient>
    <radialGradient cx="0" cy="0" fx="816.0" fy="0" gradientTransform="matrix(-1.0E-4, -0.0109, 0.0038, 0.0, 0.0, -43.0)" gradientUnits="userSpaceOnUse" id="gradient32" r="819.2" spreadMethod="pad">
      <stop offset="0.06666666666666667" stop-color="#e0e2e4"/>
      <stop offset="0.2196078431372549" stop-color="#b5b7c1"/>
      <stop offset="0.43529411764705883" stop-color="#848392"/>
      <stop offset="0.5647058823529412" stop-color="#696972"/>
      <stop offset="0.9058823529411765" stop-color="#838489"/>
    </radialGradient>
    <radialGradient cx="0" cy="0" fx="816.0" fy="0" gradientTransform="matrix(-1.0E-4, -0.0109, 0.0038, 0.0, 0.0, -54.0)" gradientUnits="userSpaceOnUse" id="gradient33" r="819.2" spreadMethod="pad">
      <stop offset="0.06666666666666667" stop-color="#e0e2e4"/>
      <stop offset="0.2196078431372549" stop-color="#b5b7c1"/>
      <stop offset="0.43529411764705883" stop-color="#848392"/>
      <stop offset="0.5647058823529412" stop-color="#696972"/>
      <stop offset="0.9058823529411765" stop-color="#838489"/>
    </radialGradient>
    <linearGradient gradientTransform="matrix(8.0E-4, -0.0188, 0.0189, 7.0E-4, -5.5, -48.5)" gradientUnits="userSpaceOnUse" id="gradient34" spreadMethod="pad" x1="-819.2" x2="819.2">
      <stop offset="0.054901960784313725" stop-color="#828253"/>
      <stop offset="1.0" stop-color="#433e27"/>
    </linearGradient>
    <linearGradient gradientTransform="matrix(-2.0E-4, 0.0189, -0.0189, -4.0E-4, 5.5, -48.5)" gradientUnits="userSpaceOnUse" id="gradient35" spreadMethod="pad" x1="-819.2" x2="819.2">
      <stop offset="0.07058823529411765" stop-color="#938c57"/>
      <stop offset="1.0" stop-color="#d9d29d"/>
    </linearGradient>
    <linearGradient gradientTransform="matrix(0.007, -0.0042, 6.0E-4, 0.0011, 0.0, -65.0)" gradientUnits="userSpaceOnUse" id="gradient36" spreadMethod="pad" x1="-819.2" x2="819.2">
      <stop offset="0.0" stop-color="#88873e"/>
      <stop offset="0.9882352941176471" stop-color="#5a5925"/>
    </linearGradient>
    <linearGradient gradientTransform="matrix(0.0031, -1.0E-4, 0.0, 0.0012, 2.5, -67.0)" gradientUnits="userSpaceOnUse" id="gradient37" spreadMethod="pad" x1="-819.2" x2="819.2">
      <stop offset="0.25882352941176473" stop-color="#9b9b46"/>
      <stop offset="0.8588235294117647" stop-color="#707032"/>
    </linearGradient>
    <linearGradient gradientTransform="matrix(0.0027, 0.0015, -6.0E-4, 0.0011, -2.5, -67.0)" gradientUnits="userSpaceOnUse" id="gradient38" spreadMethod="pad" x1="-819.2" x2="819.2">
      <stop offset="0.0" stop-color="#757535"/>
      <stop offset="0.5725490196078431" stop-color="#585727"/>
    </linearGradient>
    <radialGradient cx="0" cy="0" gradientTransform="matrix(0.0, -0.0159, 0.0028, 0.0, 0.0, -68.0)" gradientUnits="userSpaceOnUse" id="gradient39" r="819.2" spreadMethod="pad">
      <stop offset="0.06666666666666667" stop-color="#e0e2e4"/>
      <stop offset="0.23529411764705882" stop-color="#b5b7c1"/>
      <stop offset="0.396078431372549" stop-color="#848392"/>
      <stop offset="0.6588235294117647" stop-color="#4d4d55"/>
      <stop offset="0.9058823529411765" stop-color="#3e3e42"/>
    </radialGradient>
  </defs>
</svg>
