<?xml version="1.0" encoding="UTF-8" standalone="no"?>
<svg xmlns:xlink="http://www.w3.org/1999/xlink" height="166.0px" width="33.7px" xmlns="http://www.w3.org/2000/svg">
  <g transform="matrix(1.0, 0.0, 0.0, 1.0, 16.85, 79.5)">
    <path d="M6.5 -65.8 Q6.5 -27.0 7.1 -6.25 7.9 21.0 10.05 37.35 L10.5 40.65 Q10.65 41.8 9.95 42.6 L8.85 43.35 12.95 46.1 15.3 46.15 Q16.0 46.65 16.3 47.4 17.45 50.1 16.15 52.45 14.75 55.05 11.1 54.9 L9.7 54.4 Q8.65 53.7 8.7 52.2 8.5 51.6 7.1 50.6 L7.45 51.55 Q7.65 52.75 6.9 53.7 5.95 55.05 5.5 57.25 5.15 60.7 5.4 66.25 5.6 71.7 6.15 75.55 L6.45 77.55 Q6.65 78.6 6.0 79.5 6.55 80.2 6.45 81.5 6.35 83.1 4.45 84.75 2.35 86.5 0.0 86.5 -2.35 86.5 -4.45 84.75 -6.35 83.1 -6.45 81.5 -6.55 80.2 -6.0 79.5 -6.65 78.6 -6.45 77.55 L-6.15 75.55 Q-5.6 71.7 -5.4 66.25 -5.15 60.7 -5.5 57.25 -5.95 55.05 -6.9 53.7 -7.65 52.75 -7.45 51.55 L-7.1 50.6 Q-8.5 51.6 -8.7 52.2 -8.65 53.7 -9.7 54.4 L-11.1 54.9 Q-14.75 55.05 -16.15 52.45 -17.45 50.1 -16.3 47.4 -16.0 46.65 -15.3 46.15 L-12.95 46.1 -8.85 43.35 -9.95 42.6 Q-10.65 41.8 -10.5 40.65 L-10.05 37.35 Q-7.9 21.0 -7.1 -6.25 -6.5 -27.0 -6.5 -65.8 L-6.45 -66.6 -2.35 -77.85 Q-2.1 -78.6 -1.45 -79.05 -0.8 -79.5 0.0 -79.5 0.8 -79.5 1.45 -79.05 2.1 -78.6 2.35 -77.85 L6.45 -66.6 6.5 -65.8" fill="#000000" fill-rule="evenodd" stroke="none"/>
  </g>
</svg>
