<?xml version="1.0" encoding="UTF-8" standalone="no"?>
<svg xmlns:xlink="http://www.w3.org/1999/xlink" height="352.0px" width="448.0px" xmlns="http://www.w3.org/2000/svg">
  <g transform="matrix(1.0, 0.0, 0.0, 1.0, 224.0, 176.0)">
    <path d="M0.0 -152.0 L-0.05 -152.0 Q-31.55 -152.0 -58.65 -140.85 -85.8 -129.7 -108.05 -107.5 -152.55 -62.95 -152.55 0.0 -152.55 62.95 -108.05 107.5 -85.8 129.7 -58.6 140.85 -31.5 152.0 -0.05 152.0 L0.05 152.0 Q31.55 152.0 58.6 140.85 85.8 129.7 108.05 107.5 152.55 62.95 152.55 0.0 152.55 -62.95 108.05 -107.5 63.5 -152.0 0.5 -152.0 L0.0 -152.0 M67.55 -162.8 Q98.75 -149.7 124.5 -123.95 159.45 -89.0 170.7 -44.15 175.85 -31.05 181.7 -30.1 197.3 -27.6 207.65 -21.65 223.45 -12.6 224.0 0.0 223.45 12.6 207.65 21.65 197.3 27.6 181.7 30.1 175.85 31.05 170.7 44.15 159.45 89.0 124.5 123.95 98.75 149.7 67.55 162.8 36.2 175.95 0.0 176.0 -36.2 175.95 -67.55 162.8 -98.75 149.7 -124.5 123.95 -159.45 89.0 -170.7 44.15 -175.85 31.05 -181.7 30.1 -197.3 27.6 -207.65 21.65 -223.45 12.6 -224.0 0.0 -223.45 -12.6 -207.65 -21.65 -197.3 -27.6 -181.7 -30.1 -175.85 -31.05 -170.7 -44.15 -159.45 -89.0 -124.5 -123.95 -98.75 -149.7 -67.55 -162.8 -36.2 -175.9 0.0 -176.0 36.2 -175.9 67.55 -162.8 M55.5 -0.5 Q55.5 22.7 39.1 39.1 22.7 55.5 -0.5 55.5 -23.7 55.5 -40.1 39.1 -56.5 22.7 -56.5 -0.5 -56.5 -23.7 -40.1 -40.1 -23.7 -56.5 -0.5 -56.5 22.7 -56.5 39.1 -40.1 55.5 -23.7 55.5 -0.5" fill="url(#gradient0)" fill-rule="evenodd" stroke="none"/>
  </g>
  <defs>
    <linearGradient gradientTransform="matrix(9.0E-4, -0.2247, 0.0684, 3.0E-4, -1.0, 0.0)" gradientUnits="userSpaceOnUse" id="gradient0" spreadMethod="pad" x1="-819.2" x2="819.2">
      <stop offset="0.0" stop-color="#a62626"/>
      <stop offset="1.0" stop-color="#ee2626"/>
    </linearGradient>
  </defs>
</svg>
