<?xml version="1.0" encoding="UTF-8" standalone="no"?>
<svg xmlns:xlink="http://www.w3.org/1999/xlink" height="32.0px" width="480.0px" xmlns="http://www.w3.org/2000/svg">
  <g transform="matrix(1.0, 0.0, 0.0, 1.0, 240.0, 32.0)">
    <path d="M135.75 -20.55 Q79.55 -27.0 0.0 -27.0 -79.55 -27.0 -135.8 -20.55 -180.6 -15.45 -189.65 -8.6 -192.0 -6.85 -192.0 -5.0 -192.0 -2.4 -187.4 0.0 L-240.0 0.0 Q-240.0 -13.25 -169.7 -22.65 -99.4 -32.0 0.0 -32.0 99.4 -32.0 169.7 -22.65 240.0 -13.25 240.0 0.0 L187.45 0.0 Q192.0 -2.4 192.0 -5.0 192.0 -6.85 189.7 -8.6 180.6 -15.45 135.75 -20.55" fill="url(#gradient0)" fill-rule="evenodd" stroke="none"/>
  </g>
  <defs>
    <radialGradient cx="0" cy="0" gradientTransform="matrix(2.0E-4, -0.043, 0.2955, 0.0016, 0.0, -4.0)" gradientUnits="userSpaceOnUse" id="gradient0" r="819.2" spreadMethod="pad">
      <stop offset="0.6313725490196078" stop-color="#ffffff" stop-opacity="0.0"/>
      <stop offset="1.0" stop-color="#dbdbdb"/>
    </radialGradient>
  </defs>
</svg>
