<?xml version="1.0" encoding="UTF-8" standalone="no"?>
<svg xmlns:xlink="http://www.w3.org/1999/xlink" height="87.0px" width="57.0px" xmlns="http://www.w3.org/2000/svg">
  <g transform="matrix(1.0, 0.0, 0.0, 1.0, 28.5, 43.5)">
    <path d="M24.5 -39.85 L24.9 -39.5 24.9 39.5 Q24.9 39.9 24.5 39.9 L-24.5 39.9 Q-24.85 39.9 -24.85 39.5 L-24.85 -39.5 -24.5 -39.85 24.5 -39.85 M28.15 -39.5 Q28.15 -43.1 24.5 -43.1 L-24.5 -43.1 Q-28.1 -43.1 -28.1 -39.5 L-28.1 39.5 Q-28.1 43.15 -24.5 43.15 L24.5 43.15 Q28.15 43.15 28.15 39.5 L28.15 -39.5 M28.5 -39.5 L28.5 39.5 Q28.5 43.5 24.5 43.5 L-24.5 43.5 Q-28.5 43.5 -28.5 39.5 L-28.5 -39.5 Q-28.5 -43.5 -24.5 -43.5 L24.5 -43.5 Q28.5 -43.5 28.5 -39.5 M24.5 -39.5 L-24.5 -39.5 -24.5 39.5 24.5 39.5 24.5 -39.5" fill="#43545f" fill-opacity="0.24705882" fill-rule="evenodd" stroke="none"/>
    <path d="M24.5 -40.25 Q25.25 -40.25 25.25 -39.5 L25.25 39.5 Q25.25 40.25 24.5 40.25 L-24.5 40.25 Q-25.25 40.25 -25.25 39.5 L-25.25 -39.5 Q-25.25 -40.25 -24.5 -40.25 L24.5 -40.25 M24.5 -39.85 L-24.5 -39.85 -24.85 -39.5 -24.85 39.5 Q-24.85 39.9 -24.5 39.9 L24.5 39.9 Q24.9 39.9 24.9 39.5 L24.9 -39.5 24.5 -39.85 M27.75 -39.5 Q27.75 -42.75 24.5 -42.75 L-24.5 -42.75 Q-27.75 -42.75 -27.75 -39.5 L-27.75 39.5 Q-27.75 42.75 -24.5 42.75 L24.5 42.75 Q27.75 42.75 27.75 39.5 L27.75 -39.5 M28.15 -39.5 L28.15 39.5 Q28.15 43.15 24.5 43.15 L-24.5 43.15 Q-28.1 43.15 -28.1 39.5 L-28.1 -39.5 Q-28.1 -43.1 -24.5 -43.1 L24.5 -43.1 Q28.15 -43.1 28.15 -39.5" fill="#43545f" fill-opacity="0.49803922" fill-rule="evenodd" stroke="none"/>
    <path d="M27.4 -39.5 L27.4 39.5 Q27.4 42.4 24.5 42.4 L-24.5 42.4 Q-27.35 42.4 -27.35 39.5 L-27.35 -39.5 Q-27.35 -42.35 -24.5 -42.35 L24.5 -42.35 Q27.4 -42.35 27.4 -39.5 M24.5 -40.6 L-24.5 -40.6 Q-25.6 -40.6 -25.6 -39.5 L-25.6 39.5 Q-25.6 40.65 -24.5 40.65 L24.5 40.65 Q25.65 40.65 25.65 39.5 L25.65 -39.5 Q25.65 -40.6 24.5 -40.6" fill="#6a8a95" fill-rule="evenodd" stroke="none"/>
    <path d="M24.5 -40.25 L-24.5 -40.25 Q-25.25 -40.25 -25.25 -39.5 L-25.25 39.5 Q-25.25 40.25 -24.5 40.25 L24.5 40.25 Q25.25 40.25 25.25 39.5 L25.25 -39.5 Q25.25 -40.25 24.5 -40.25 M24.5 -40.6 Q25.65 -40.6 25.65 -39.5 L25.65 39.5 Q25.65 40.65 24.5 40.65 L-24.5 40.65 Q-25.6 40.65 -25.6 39.5 L-25.6 -39.5 Q-25.6 -40.6 -24.5 -40.6 L24.5 -40.6 M27.4 -39.5 Q27.4 -42.35 24.5 -42.35 L-24.5 -42.35 Q-27.35 -42.35 -27.35 -39.5 L-27.35 39.5 Q-27.35 42.4 -24.5 42.4 L24.5 42.4 Q27.4 42.4 27.4 39.5 L27.4 -39.5 M27.75 -39.5 L27.75 39.5 Q27.75 42.75 24.5 42.75 L-24.5 42.75 Q-27.75 42.75 -27.75 39.5 L-27.75 -39.5 Q-27.75 -42.75 -24.5 -42.75 L24.5 -42.75 Q27.75 -42.75 27.75 -39.5" fill="#4d616a" fill-opacity="0.7529412" fill-rule="evenodd" stroke="none"/>
  </g>
</svg>
