<?xml version="1.0" encoding="UTF-8" standalone="no"?>
<svg xmlns:xlink="http://www.w3.org/1999/xlink" height="83.0px" width="77.0px" xmlns="http://www.w3.org/2000/svg">
  <g transform="matrix(1.0, 0.0, 0.0, 1.0, 38.5, 38.5)">
    <path d="M27.25 -27.2 Q38.5 -15.95 38.5 0.0 38.5 13.65 30.25 23.85 L30.45 24.5 Q30.6 25.2 30.35 25.9 L29.45 27.05 25.1 30.1 15.65 36.15 14.35 36.95 14.4 36.95 Q8.05 40.85 1.1 44.25 L0.0 44.5 -1.1 44.25 Q-7.55 41.1 -13.45 37.5 L-13.4 37.5 -14.85 36.65 Q-20.05 33.55 -25.1 30.1 L-25.15 30.1 -29.45 27.05 -30.3 25.9 Q-30.6 25.2 -30.45 24.5 L-30.2 23.85 -31.25 22.55 Q-33.45 19.55 -35.0 16.25 -38.5 8.85 -38.5 0.0 -38.5 -15.95 -27.2 -27.2 -15.95 -38.5 0.0 -38.5 15.95 -38.5 27.25 -27.2" fill="#000000" fill-rule="evenodd" stroke="none"/>
    <path d="M25.45 -25.45 Q36.0 -14.9 36.0 0.0 36.0 14.9 25.45 25.45 14.9 36.0 0.0 36.0 -14.9 36.0 -25.45 25.45 -28.9 22.0 -31.25 18.05 L-32.2 16.25 Q-36.0 8.9 -36.0 0.0 -36.0 -14.9 -25.45 -25.45 -14.9 -36.0 0.0 -36.0 14.9 -36.0 25.45 -25.45" fill="url(#gradient0)" fill-rule="evenodd" stroke="none"/>
    <path d="M22.9 -22.9 Q32.4 -13.4 32.4 0.0 32.4 13.4 22.9 22.9 13.4 32.4 0.0 32.4 -13.4 32.4 -22.9 22.9 -32.4 13.4 -32.4 0.0 -32.4 -13.4 -22.9 -22.9 -13.4 -32.4 0.0 -32.4 13.4 -32.4 22.9 -22.9" fill="url(#gradient1)" fill-rule="evenodd" stroke="none"/>
    <path d="M-12.5 -25.0 Q-9.8 -25.0 -7.9 -23.1 -6.0 -21.2 -6.0 -18.5 -6.0 -15.8 -7.9 -13.9 -9.8 -12.0 -12.5 -12.0 -15.2 -12.0 -17.1 -13.9 -19.0 -15.8 -19.0 -18.5 -19.0 -21.2 -17.1 -23.1 -15.2 -25.0 -12.5 -25.0" fill="url(#gradient2)" fill-rule="evenodd" stroke="none"/>
    <path d="M10.8 -10.85 Q15.3 -6.3 15.3 0.0 15.3 6.3 10.8 10.8 6.3 15.3 0.0 15.3 -6.3 15.3 -10.85 10.8 -15.3 6.3 -15.3 0.0 -15.3 -6.3 -10.85 -10.85 -6.3 -15.3 0.0 -15.3 6.3 -15.3 10.8 -10.85" fill="url(#gradient3)" fill-rule="evenodd" stroke="none"/>
    <path d="M9.8 -9.85 Q13.9 -5.75 13.9 0.0 13.9 5.75 9.8 9.8 5.75 13.9 0.0 13.9 -5.75 13.9 -9.85 9.8 -13.9 5.75 -13.9 0.0 -13.9 -5.75 -9.85 -9.85 -5.75 -13.9 0.0 -13.9 5.75 -13.9 9.8 -9.85" fill="url(#gradient4)" fill-rule="evenodd" stroke="none"/>
    <path d="M-5.0 -2.5 Q-6.25 -2.5 -7.15 -3.4 -8.0 -4.25 -8.0 -5.5 -8.0 -6.75 -7.15 -7.65 -6.25 -8.5 -5.0 -8.5 -3.75 -8.5 -2.9 -7.65 -2.0 -6.75 -2.0 -5.5 -2.0 -4.25 -2.9 -3.4 -3.75 -2.5 -5.0 -2.5" fill="url(#gradient5)" fill-rule="evenodd" stroke="none"/>
    <path d="M22.9 16.5 Q20.75 21.85 18.0 24.0 L0.0 24.0 -18.0 24.0 Q-20.75 21.85 -22.9 16.5 -25.1 10.85 -24.0 7.8 -19.05 4.6 -11.95 3.15 -6.35 2.0 0.0 2.0 6.35 2.0 11.95 3.15 19.05 4.6 24.0 7.8 25.1 10.85 22.9 16.5" fill="url(#gradient6)" fill-rule="evenodd" stroke="none"/>
    <path d="M26.85 24.0 L-26.8 24.0 -27.7 23.0 27.7 23.0 26.85 24.0" fill="#ffffff" fill-opacity="0.3019608" fill-rule="evenodd" stroke="none"/>
    <path d="M23.7 28.0 Q12.25 35.8 0.0 42.0 -12.25 35.8 -23.7 28.0 L23.7 28.0" fill="url(#gradient7)" fill-rule="evenodd" stroke="none"/>
    <path d="M28.0 25.0 L23.7 28.0 -23.7 28.0 -28.0 25.0 28.0 25.0" fill="url(#gradient8)" fill-rule="evenodd" stroke="none"/>
    <path d="M28.0 25.0 L0.0 25.0 -28.0 25.0 -27.0 24.0 27.0 24.0 28.0 25.0" fill="url(#gradient9)" fill-rule="evenodd" stroke="none"/>
    <path d="M24.0 29.0 L-24.0 29.0 -24.0 28.0 24.0 28.0 24.0 29.0" fill="#000000" fill-opacity="0.2" fill-rule="evenodd" stroke="none"/>
    <path d="M0.0 39.5 Q-6.2 39.5 -10.6 35.1 -14.8 30.9 -15.0 25.0 L15.0 25.0 Q14.8 30.9 10.6 35.1 6.2 39.5 0.0 39.5" fill="url(#gradient10)" fill-rule="evenodd" stroke="none"/>
  </g>
  <defs>
    <radialGradient cx="0" cy="0" gradientTransform="matrix(0.0442, 0.0, 0.0, 0.0442, 0.0, 16.0)" gradientUnits="userSpaceOnUse" id="gradient0" r="819.2" spreadMethod="pad">
      <stop offset="0.0" stop-color="#ffffff"/>
      <stop offset="1.0" stop-color="#f3eccb"/>
    </radialGradient>
    <radialGradient cx="0" cy="0" gradientTransform="matrix(0.0404, 0.0, 0.0, 0.0404, 16.0, 0.0)" gradientUnits="userSpaceOnUse" id="gradient1" r="819.2" spreadMethod="pad">
      <stop offset="0.24313725490196078" stop-color="#ddc44d"/>
      <stop offset="0.5254901960784314" stop-color="#f1e2a3"/>
      <stop offset="1.0" stop-color="#e8d997"/>
    </radialGradient>
    <radialGradient cx="0" cy="0" gradientTransform="matrix(0.009, 0.0, 0.0, 0.009, -12.5, -18.5)" gradientUnits="userSpaceOnUse" id="gradient2" r="819.2" spreadMethod="pad">
      <stop offset="0.5019607843137255" stop-color="#ffffff"/>
      <stop offset="0.6392156862745098" stop-color="#ede5a6"/>
      <stop offset="1.0" stop-color="#eddba7" stop-opacity="0.0"/>
    </radialGradient>
    <radialGradient cx="0" cy="0" gradientTransform="matrix(0.0367, 0.0, 0.0, 0.0367, 0.0, 14.25)" gradientUnits="userSpaceOnUse" id="gradient3" r="819.2" spreadMethod="pad">
      <stop offset="0.0" stop-color="#ffffff" stop-opacity="0.28235295"/>
      <stop offset="0.2196078431372549" stop-color="#f1e678"/>
      <stop offset="0.6862745098039216" stop-color="#f0e78e" stop-opacity="0.6431373"/>
      <stop offset="1.0" stop-color="#f7eab3" stop-opacity="0.4"/>
    </radialGradient>
    <radialGradient cx="0" cy="0" fx="371.20000000000005" fy="0" gradientTransform="matrix(0.0126, 0.0125, -0.0125, 0.0126, -0.4, -0.35)" gradientUnits="userSpaceOnUse" id="gradient4" r="819.2" spreadMethod="pad">
      <stop offset="0.1803921568627451" stop-color="#aa8000"/>
      <stop offset="0.39215686274509803" stop-color="#c19b28"/>
      <stop offset="0.7372549019607844" stop-color="#dac150"/>
      <stop offset="0.9411764705882353" stop-color="#d2aa33"/>
    </radialGradient>
    <radialGradient cx="0" cy="0" gradientTransform="matrix(0.0037, 0.0, 0.0, 0.0037, -5.05, -5.55)" gradientUnits="userSpaceOnUse" id="gradient5" r="819.2" spreadMethod="pad">
      <stop offset="0.47843137254901963" stop-color="#fbf0c4"/>
      <stop offset="0.7019607843137254" stop-color="#ead36a" stop-opacity="0.72156864"/>
      <stop offset="0.8313725490196079" stop-color="#dcca78" stop-opacity="0.0"/>
    </radialGradient>
    <linearGradient gradientTransform="matrix(0.0, -0.0138, -0.0191, 0.0, 0.0, 13.0)" gradientUnits="userSpaceOnUse" id="gradient6" spreadMethod="pad" x1="-819.2" x2="819.2">
      <stop offset="0.0" stop-color="#ffffff" stop-opacity="0.09019608"/>
      <stop offset="1.0" stop-color="#f4f4ca" stop-opacity="0.3529412"/>
    </linearGradient>
    <linearGradient gradientTransform="matrix(0.0289, 0.0, 0.0, 0.0085, 0.0, 35.0)" gradientUnits="userSpaceOnUse" id="gradient7" spreadMethod="pad" x1="-819.2" x2="819.2">
      <stop offset="0.0" stop-color="#66582f"/>
      <stop offset="0.1843137254901961" stop-color="#706032"/>
      <stop offset="0.4980392156862745" stop-color="#988843"/>
      <stop offset="0.8117647058823529" stop-color="#6a5b31"/>
      <stop offset="1.0" stop-color="#524625"/>
    </linearGradient>
    <linearGradient gradientTransform="matrix(0.0342, 0.0, 0.0, 0.0018, 0.0, 26.5)" gradientUnits="userSpaceOnUse" id="gradient8" spreadMethod="pad" x1="-819.2" x2="819.2">
      <stop offset="0.0" stop-color="#756535"/>
      <stop offset="0.20392156862745098" stop-color="#796837"/>
      <stop offset="0.4980392156862745" stop-color="#b7a54f"/>
      <stop offset="0.7764705882352941" stop-color="#7d6b39"/>
      <stop offset="1.0" stop-color="#756535"/>
    </linearGradient>
    <linearGradient gradientTransform="matrix(0.0342, 0.0, 0.0, 6.0E-4, 0.0, 24.5)" gradientUnits="userSpaceOnUse" id="gradient9" spreadMethod="pad" x1="-819.2" x2="819.2">
      <stop offset="0.0" stop-color="#978244"/>
      <stop offset="0.2196078431372549" stop-color="#a9965c"/>
      <stop offset="0.49019607843137253" stop-color="#e1cf80"/>
      <stop offset="0.7764705882352941" stop-color="#9a8750"/>
      <stop offset="1.0" stop-color="#978244"/>
    </linearGradient>
    <radialGradient cx="0" cy="0" gradientTransform="matrix(0.0, -0.0118, 0.0224, 0.0, 0.0, 25.0)" gradientUnits="userSpaceOnUse" id="gradient10" r="819.2" spreadMethod="pad">
      <stop offset="0.21176470588235294" stop-color="#faecaf" stop-opacity="0.2"/>
      <stop offset="0.8392156862745098" stop-color="#f2f3e7" stop-opacity="0.0"/>
    </radialGradient>
  </defs>
</svg>
