<?xml version="1.0" encoding="UTF-8" standalone="no"?>
<svg xmlns:xlink="http://www.w3.org/1999/xlink" height="164.0px" width="39.7px" xmlns="http://www.w3.org/2000/svg">
  <g transform="matrix(1.0, 0.0, 0.0, 1.0, 22.45, 82.5)">
    <path d="M3.4 -77.8 L3.5 -76.6 Q2.8 -72.25 3.4 -67.2 3.55 -65.6 3.85 -64.2 L5.2 -60.35 5.8 -59.75 Q6.45 -59.1 6.5 -58.15 6.55 -57.25 6.0 -56.5 5.45 -55.75 4.55 -55.55 5.6 -54.3 5.5 -53.0 5.4 -51.55 4.5 -50.55 L4.5 -49.15 Q5.9 -51.85 8.0 -51.5 9.6 -51.2 10.05 -48.6 L13.6 -48.75 Q14.35 -48.1 14.45 -47.3 14.6 -46.45 14.05 -45.1 15.6 -45.05 16.25 -44.55 16.8 -44.15 17.1 -43.05 17.5 -41.4 15.7 -40.1 17.55 -39.0 17.2 -37.5 L16.55 -36.15 Q16.0 -35.55 14.85 -35.3 15.4 -34.2 15.3 -33.45 15.25 -32.7 14.55 -32.05 L13.65 -31.35 12.45 -31.3 Q12.4 -30.45 13.15 -29.35 13.65 -28.6 13.55 -27.7 13.45 -26.8 12.8 -26.15 L12.1 -25.7 Q12.1 -24.2 11.35 -23.15 10.25 -21.55 9.2 -21.2 8.15 -20.85 6.9 -21.7 L6.35 -20.3 Q5.9 -18.75 6.7 -17.8 7.35 -17.2 7.5 -16.3 7.6 -15.45 7.15 -14.65 6.15 -13.1 5.75 -11.45 5.5 -10.2 5.5 -8.0 L5.25 -6.85 4.55 -5.45 4.55 32.1 4.55 32.15 Q4.9 52.2 6.45 58.15 L6.65 58.65 Q7.65 59.1 8.15 60.8 L8.5 61.0 Q9.15 61.45 9.4 62.25 9.65 63.0 9.4 63.8 L8.4 66.8 7.45 68.05 Q6.8 68.5 6.0 68.5 L5.35 68.5 5.4 69.25 Q5.65 70.0 5.4 70.8 L2.4 79.8 1.45 81.05 Q0.8 81.5 0.0 81.5 -0.8 81.5 -1.45 81.05 -2.1 80.55 -2.35 79.8 L-5.35 70.8 Q-5.65 70.0 -5.35 69.25 L-5.35 68.5 -6.0 68.5 Q-6.8 68.5 -7.45 68.05 -8.1 67.55 -8.35 66.8 L-9.35 63.8 Q-9.65 63.0 -9.35 62.25 -9.15 61.45 -8.45 61.0 L-8.1 60.75 Q-7.6 59.1 -6.6 58.6 L-6.45 58.25 Q-4.9 52.4 -4.55 32.15 L-4.55 32.1 -4.5 -10.95 -4.5 -12.55 -5.55 -14.4 Q-5.8 -13.5 -6.5 -12.95 -7.25 -12.45 -8.15 -12.5 -9.1 -12.55 -9.75 -13.2 -10.4 -13.85 -10.45 -14.75 -10.8 -16.9 -13.9 -22.05 -16.95 -27.2 -19.9 -33.25 -26.85 -49.75 -14.9 -62.55 L-14.9 -62.6 Q-12.8 -65.05 -10.0 -66.25 L-8.45 -66.45 -7.1 -65.6 Q-6.55 -65.0 -6.5 -64.15 -6.45 -63.35 -6.9 -62.65 L-8.45 -60.0 Q-8.2 -57.8 -7.45 -55.65 -6.55 -53.05 -5.5 -52.7 L-5.5 -53.0 -5.9 -53.4 Q-6.5 -54.1 -6.5 -55.0 L-6.5 -57.05 Q-6.8 -76.75 -1.8 -81.7 -1.2 -82.35 -0.3 -82.45 L1.35 -82.1 Q2.1 -81.65 2.4 -80.75 L3.4 -77.8 M7.55 -39.45 Q7.05 -40.45 6.3 -40.5 L6.15 -40.4 Q5.8 -38.35 4.85 -37.35 L5.7 -36.8 Q6.45 -36.15 6.5 -35.15 L6.7 -34.6 Q7.05 -35.8 7.8 -37.2 8.15 -38.15 7.55 -39.45 M-6.3 -38.5 L-6.85 -38.65 -6.15 -37.65 -6.1 -37.65 -5.85 -37.25 -5.65 -36.85 Q-5.15 -37.35 -4.5 -37.45 L-4.5 -37.9 -4.75 -38.1 -4.7 -38.05 -6.3 -38.5 M-7.3 -27.7 Q-4.85 -20.8 -5.2 -16.35 L-4.55 -17.35 -4.95 -24.35 -7.8 -30.05 Q-7.75 -28.95 -7.3 -27.7" fill="#000000" fill-rule="evenodd" stroke="none"/>
  </g>
</svg>
