<?xml version="1.0" encoding="UTF-8" standalone="no"?>
<svg xmlns:xlink="http://www.w3.org/1999/xlink" height="98.0px" width="77.0px" xmlns="http://www.w3.org/2000/svg">
  <g transform="matrix(1.0, 0.0, 0.0, 1.0, 38.5, 47.5)">
    <path d="M38.5 -6.0 Q38.5 6.55 31.5 16.2 L31.5 19.0 31.2 20.2 30.35 21.1 20.4 27.45 Q20.2 31.0 22.2 34.85 22.6 35.55 22.5 36.4 22.35 37.2 21.8 37.8 L17.8 41.8 Q17.05 42.5 16.0 42.5 L10.9 42.5 1.55 49.95 Q0.85 50.5 0.0 50.5 -0.85 50.5 -1.55 49.95 L-10.85 42.5 -16.0 42.5 Q-17.05 42.5 -17.75 41.8 L-21.75 37.8 Q-22.35 37.2 -22.45 36.4 -22.6 35.55 -22.2 34.85 -20.2 31.0 -20.35 27.45 L-30.35 21.1 -31.2 20.2 -31.5 19.0 -31.5 16.25 Q-38.5 6.55 -38.5 -6.0 -38.5 -21.95 -27.2 -33.2 -20.25 -40.2 -11.5 -42.85 L-11.5 -44.0 Q-11.5 -44.9 -10.95 -45.55 L-9.55 -46.45 -5.3 -47.15 0.0 -47.5 5.3 -47.2 9.55 -46.5 10.95 -45.6 Q11.5 -44.9 11.5 -44.05 L11.5 -42.85 Q20.25 -40.2 27.25 -33.2 38.5 -21.95 38.5 -6.0" fill="#000000" fill-rule="evenodd" stroke="none"/>
    <path d="M35.65 -6.0 Q35.65 5.9 28.85 15.0 L-28.85 15.0 Q-35.65 5.9 -35.65 -6.0 -35.65 -20.7 -25.2 -31.2 -14.75 -41.6 0.0 -41.6 14.75 -41.6 25.15 -31.2 35.65 -20.7 35.65 -6.0" fill="url(#gradient0)" fill-rule="evenodd" stroke="none"/>
    <path d="M-18.2 -12.8 Q-21.2 -12.8 -23.3 -14.95 -25.4 -17.0 -25.4 -20.0 -25.4 -23.0 -23.3 -25.1 -21.2 -27.2 -18.2 -27.2 -15.2 -27.2 -13.15 -25.1 -11.0 -23.0 -11.0 -20.0 -11.0 -17.0 -13.15 -14.95 -15.2 -12.8 -18.2 -12.8" fill="url(#gradient1)" fill-rule="evenodd" stroke="none"/>
    <path d="M25.45 -31.45 Q36.0 -20.9 36.0 -6.0 36.0 6.15 29.0 15.4 L29.0 15.0 26.1 15.0 Q33.5 6.0 33.5 -6.0 33.5 -19.85 23.7 -29.65 13.85 -39.5 0.0 -39.5 -13.85 -39.5 -23.65 -29.65 -33.5 -19.85 -33.5 -6.0 -33.5 6.0 -26.1 15.0 L-29.0 15.0 -29.0 15.4 Q-36.0 6.15 -36.0 -6.0 -36.0 -20.9 -25.45 -31.45 -14.9 -42.0 0.0 -42.0 14.9 -42.0 25.45 -31.45" fill="url(#gradient2)" fill-rule="evenodd" stroke="none"/>
    <path d="M11.0 -42.0 L11.0 16.0 6.0 16.0 6.0 -42.0 11.0 -42.0" fill="#6a31e3" fill-opacity="0.3019608" fill-rule="evenodd" stroke="none"/>
    <path d="M29.0 19.0 L-29.0 19.0 -29.0 15.0 29.0 15.0 29.0 19.0" fill="url(#gradient3)" fill-rule="evenodd" stroke="none"/>
    <path d="M18.0 26.0 L0.0 26.0 -18.0 26.0 -29.0 19.0 29.0 19.0 18.0 26.0" fill="url(#gradient4)" fill-rule="evenodd" stroke="none"/>
    <path d="M-18.0 26.0 L0.0 26.0 18.0 26.0 Q17.25 30.8 20.0 36.0 L-20.0 36.0 Q-17.25 30.8 -18.0 26.0" fill="url(#gradient5)" fill-rule="evenodd" stroke="none"/>
    <path d="M-20.0 36.0 L20.0 36.0 16.0 40.0 10.0 40.0 -10.0 40.0 -16.0 40.0 -20.0 36.0" fill="url(#gradient6)" fill-rule="evenodd" stroke="none"/>
    <path d="M10.0 40.0 L0.0 48.0 -10.0 40.0 10.0 40.0" fill="url(#gradient7)" fill-rule="evenodd" stroke="none"/>
    <path d="M12.2 26.1 Q11.5 30.85 14.2 36.05 L14.2 36.1 14.1 36.1 13.95 36.1 Q11.25 30.85 11.95 26.05 L12.0 25.95 12.1 25.95 12.2 26.0 12.2 26.1 M-12.1 26.05 L-12.1 25.95 -12.0 25.9 -11.9 25.9 -11.85 26.0 Q-11.15 30.8 -13.85 36.0 L-14.0 36.0 -14.1 36.0 -14.1 35.95 Q-11.4 30.8 -12.1 26.05" fill="#000000" fill-rule="evenodd" stroke="none"/>
    <path d="M10.0 22.0 L-10.0 22.0 -10.0 19.0 10.0 19.0 10.0 22.0" fill="#000000" fill-rule="evenodd" stroke="none"/>
    <path d="M12.0 30.0 L10.0 30.0 10.0 29.0 12.0 29.0 12.0 30.0 M-10.0 30.0 L-12.0 30.0 -12.0 29.0 -10.0 29.0 -10.0 30.0" fill="#000000" fill-rule="evenodd" stroke="none"/>
    <path d="M5.0 -44.7 L5.0 -40.0 -5.0 -40.0 -5.0 -42.0 -5.0 -43.0 -5.0 -44.7 0.0 -45.0 5.0 -44.7" fill="url(#gradient8)" fill-rule="evenodd" stroke="none"/>
    <path d="M5.0 -40.0 L5.0 -44.7 9.0 -44.05 9.0 -43.0 9.0 -40.0 5.0 -40.0 M-5.0 -44.7 L-5.0 -43.0 -5.0 -42.0 -5.0 -40.0 -9.0 -40.0 -9.0 -43.0 -9.0 -44.0 -5.0 -44.7" fill="url(#gradient9)" fill-rule="evenodd" stroke="none"/>
    <path d="M5.0 -40.0 L9.0 -40.0 9.0 -38.3 9.0 21.0 5.0 21.0 5.0 -40.0 M-5.0 21.0 L-9.0 21.0 -9.0 -38.3 -9.0 -40.0 -5.0 -40.0 -5.0 -38.3 -5.0 -38.0 -5.0 21.0" fill="url(#gradient10)" fill-rule="evenodd" stroke="none"/>
    <path d="M-5.0 -40.0 L5.0 -40.0 5.0 21.0 4.0 21.0 4.0 18.0 -4.0 18.0 -4.0 21.0 -5.0 21.0 -5.0 -38.0 -5.0 -38.3 -5.0 -40.0" fill="url(#gradient11)" fill-rule="evenodd" stroke="none"/>
    <path d="M-4.0 21.0 L-4.0 18.0 4.0 18.0 4.0 21.0 -4.0 21.0" fill="#000000" fill-rule="evenodd" stroke="none"/>
    <path d="M3.0 21.5 L-3.0 21.5 -3.0 19.0 3.0 19.0 3.0 21.5" fill="url(#gradient12)" fill-rule="evenodd" stroke="none"/>
    <path d="M9.0 -40.0 L6.0 -40.0 6.0 21.0 5.0 21.0 5.0 -40.0 -5.0 -40.0 -5.0 21.0 -6.0 21.0 -6.0 -40.0 -9.0 -40.0 -9.0 -41.0 -6.0 -41.0 -6.0 -45.0 -5.0 -45.0 -5.0 -41.0 5.0 -41.0 5.0 -45.0 6.0 -45.0 6.0 -41.0 9.0 -41.0 9.0 -40.0" fill="#000000" fill-opacity="0.2" fill-rule="evenodd" stroke="none"/>
  </g>
  <defs>
    <radialGradient cx="0" cy="0" gradientTransform="matrix(0.0598, 0.0, 0.0, 0.0598, 16.0, -6.75)" gradientUnits="userSpaceOnUse" id="gradient0" r="819.2" spreadMethod="pad">
      <stop offset="0.20392156862745098" stop-color="#7521f3"/>
      <stop offset="0.28627450980392155" stop-color="#8851fb"/>
      <stop offset="0.807843137254902" stop-color="#bb9cfe"/>
      <stop offset="1.0" stop-color="#ba8dfe"/>
    </radialGradient>
    <radialGradient cx="0" cy="0" gradientTransform="matrix(0.0089, 0.0, 0.0, 0.0089, -18.2, -20.0)" gradientUnits="userSpaceOnUse" id="gradient1" r="819.2" spreadMethod="pad">
      <stop offset="0.18823529411764706" stop-color="#ffffff"/>
      <stop offset="0.49019607843137253" stop-color="#ffffff"/>
      <stop offset="1.0" stop-color="#ffffff" stop-opacity="0.0"/>
    </radialGradient>
    <linearGradient gradientTransform="matrix(0.0439, 0.0, 0.0, 0.035, 0.0, -13.3)" gradientUnits="userSpaceOnUse" id="gradient2" spreadMethod="pad" x1="-819.2" x2="819.2">
      <stop offset="0.0" stop-color="#d5c2fc"/>
      <stop offset="1.0" stop-color="#ba8dfe"/>
    </linearGradient>
    <linearGradient gradientTransform="matrix(0.0354, 0.0, 0.0, 0.0024, 0.0, 17.0)" gradientUnits="userSpaceOnUse" id="gradient3" spreadMethod="pad" x1="-819.2" x2="819.2">
      <stop offset="0.0" stop-color="#757575"/>
      <stop offset="0.5176470588235295" stop-color="#a6a6a6"/>
      <stop offset="1.0" stop-color="#808080"/>
      <stop offset="1.0" stop-color="#6a6a6a"/>
    </linearGradient>
    <linearGradient gradientTransform="matrix(0.0354, 0.0, 0.0, 0.0043, 0.0, 22.5)" gradientUnits="userSpaceOnUse" id="gradient4" spreadMethod="pad" x1="-819.2" x2="819.2">
      <stop offset="0.0" stop-color="#353535"/>
      <stop offset="0.5176470588235295" stop-color="#717171"/>
      <stop offset="1.0" stop-color="#383838"/>
      <stop offset="1.0" stop-color="#464646"/>
    </linearGradient>
    <linearGradient gradientTransform="matrix(0.0244, 0.0, 0.0, 0.0061, 0.0, 31.0)" gradientUnits="userSpaceOnUse" id="gradient5" spreadMethod="pad" x1="-819.2" x2="819.2">
      <stop offset="0.0" stop-color="#515151"/>
      <stop offset="0.5058823529411764" stop-color="#9f9f9f"/>
      <stop offset="1.0" stop-color="#5b5b5b"/>
      <stop offset="1.0" stop-color="#464646"/>
    </linearGradient>
    <linearGradient gradientTransform="matrix(0.0244, 0.0, 0.0, 0.0024, 0.0, 38.0)" gradientUnits="userSpaceOnUse" id="gradient6" spreadMethod="pad" x1="-819.2" x2="819.2">
      <stop offset="0.0" stop-color="#464646"/>
      <stop offset="0.5058823529411764" stop-color="#666666"/>
      <stop offset="1.0" stop-color="#4a4a4a"/>
      <stop offset="1.0" stop-color="#464646"/>
    </linearGradient>
    <linearGradient gradientTransform="matrix(0.0122, 0.0, 0.0, 0.0049, 0.0, 44.0)" gradientUnits="userSpaceOnUse" id="gradient7" spreadMethod="pad" x1="-819.2" x2="819.2">
      <stop offset="0.0" stop-color="#313131"/>
      <stop offset="0.5058823529411764" stop-color="#5b5b5b"/>
      <stop offset="1.0" stop-color="#404040"/>
      <stop offset="1.0" stop-color="#404040"/>
    </linearGradient>
    <linearGradient gradientTransform="matrix(0.0, -0.0031, 0.0031, 0.0, 0.0, -42.5)" gradientUnits="userSpaceOnUse" id="gradient8" spreadMethod="pad" x1="-819.2" x2="819.2">
      <stop offset="0.0" stop-color="#636363"/>
      <stop offset="0.16470588235294117" stop-color="#4e4e4e"/>
      <stop offset="0.5843137254901961" stop-color="#b8b8b8"/>
      <stop offset="1.0" stop-color="#5d5d5d"/>
    </linearGradient>
    <linearGradient gradientTransform="matrix(0.0, -0.0032, 0.0029, 0.0, 7.0, -42.35)" gradientUnits="userSpaceOnUse" id="gradient9" spreadMethod="pad" x1="-819.2" x2="819.2">
      <stop offset="0.0" stop-color="#787878"/>
      <stop offset="0.21568627450980393" stop-color="#4a4a4a"/>
      <stop offset="0.5176470588235295" stop-color="#9f9f9f"/>
      <stop offset="0.6274509803921569" stop-color="#aaaaaa"/>
      <stop offset="0.9176470588235294" stop-color="#555555"/>
    </linearGradient>
    <linearGradient gradientTransform="matrix(0.0, -0.0378, 0.036, 0.0, 10.0, -9.0)" gradientUnits="userSpaceOnUse" id="gradient10" spreadMethod="pad" x1="-819.2" x2="819.2">
      <stop offset="0.0" stop-color="#787878"/>
      <stop offset="0.33725490196078434" stop-color="#4e4e4e"/>
      <stop offset="0.7843137254901961" stop-color="#b5b5b5"/>
      <stop offset="0.9764705882352941" stop-color="#636363"/>
    </linearGradient>
    <linearGradient gradientTransform="matrix(2.0E-4, -0.0392, 0.0391, 2.0E-4, 0.0, -11.0)" gradientUnits="userSpaceOnUse" id="gradient11" spreadMethod="pad" x1="-819.2" x2="819.2">
      <stop offset="0.0" stop-color="#636363"/>
      <stop offset="0.023529411764705882" stop-color="#636363"/>
      <stop offset="0.3137254901960784" stop-color="#2e2e2e"/>
      <stop offset="0.4117647058823529" stop-color="#4a4a4a"/>
      <stop offset="0.7215686274509804" stop-color="#b8b8b8"/>
      <stop offset="0.9803921568627451" stop-color="#585858"/>
      <stop offset="1.0" stop-color="#5d5d5d"/>
    </linearGradient>
    <linearGradient gradientTransform="matrix(0.0, -0.0015, 0.0012, 0.0, 0.25, 20.25)" gradientUnits="userSpaceOnUse" id="gradient12" spreadMethod="pad" x1="-819.2" x2="819.2">
      <stop offset="0.13725490196078433" stop-color="#4a4a4a"/>
      <stop offset="0.6549019607843137" stop-color="#878787"/>
      <stop offset="1.0" stop-color="#666666"/>
    </linearGradient>
  </defs>
</svg>
