<?xml version="1.0" encoding="UTF-8" standalone="no"?>
<svg xmlns:xlink="http://www.w3.org/1999/xlink" height="295.45px" width="368.2px" xmlns="http://www.w3.org/2000/svg">
  <g transform="matrix(1.0, 0.0, 0.0, 1.0, 464.4, -72.6)">
    <path d="M-463.4 367.05 Q-455.6 355.25 -454.9 352.05 L-452.4 352.05 -449.4 352.55 Q-442.2 345.35 -374.4 289.4 L-374.4 284.95 -369.25 285.15 -346.2 266.15 -321.6 245.95 -321.65 245.8 -321.9 243.45 Q-321.9 241.75 -321.4 240.45 -320.85 238.95 -319.9 238.95 -319.1 238.95 -317.7 239.95 L-315.75 241.15 -267.5 201.7 -267.5 196.45 -263.6 198.55 -246.5 184.95 -237.8 178.6 -235.0 174.45 Q-234.8 174.2 -230.5 171.3 -226.45 168.55 -226.2 167.8 L-198.85 145.55 -196.95 141.5 Q-195.2 137.85 -195.35 137.25 L-189.2 137.4 -176.6 127.9 -161.35 116.4 -158.85 114.4 -157.65 111.75 Q-156.65 109.7 -156.35 108.65 L-152.85 109.05 -152.05 109.15 -145.6 104.2 -134.75 95.85 Q-133.75 92.5 -133.2 92.4 L-130.55 92.05 -125.95 88.7 Q-122.2 85.55 -113.35 80.35 -103.25 74.4 -98.1 73.15 -97.6 73.0 -97.45 73.4 -97.25 74.1 -96.7 74.6 L-101.55 82.3 Q-104.25 86.4 -106.7 89.45 -109.65 93.1 -113.45 96.7 L-119.1 101.65 -120.15 102.6 -120.15 104.1 -120.05 105.25 Q-120.35 105.1 -122.25 105.85 L-124.85 106.75 -134.6 115.25 Q-143.05 122.55 -152.35 129.9 L-160.05 136.45 -160.8 137.1 -160.9 139.55 -160.85 141.95 Q-163.4 141.55 -168.1 142.0 L-168.85 142.4 Q-172.1 144.1 -176.4 148.3 -181.25 153.05 -184.1 154.95 -186.3 156.4 -193.3 161.45 L-206.6 170.7 Q-208.15 171.75 -213.85 177.85 L-215.8 179.85 -219.35 180.75 -223.15 181.65 Q-224.65 182.0 -227.0 184.3 L-230.0 186.95 Q-238.15 190.45 -246.5 197.95 L-284.9 228.75 Q-284.95 233.75 -285.4 235.45 -286.15 234.7 -288.5 233.45 L-289.85 232.75 Q-308.9 248.0 -327.95 263.4 L-328.05 265.25 Q-328.1 267.6 -328.9 268.45 -329.75 267.6 -332.0 266.7 L-339.7 272.85 -385.9 310.25 -385.9 315.95 Q-388.6 314.55 -390.25 313.8 -436.7 351.65 -444.0 358.95 -446.05 359.8 -447.4 361.2 -448.9 362.8 -448.9 364.55 L-448.6 365.9 -447.9 367.05 Q-448.4 367.05 -448.4 367.55 L-451.9 367.55 -459.65 366.55 Q-461.8 366.55 -463.35 367.25 L-463.4 367.05" fill="url(#gradient0)" fill-rule="evenodd" stroke="none"/>
    <path d="M-463.4 367.05 Q-455.6 355.25 -454.9 352.05 L-452.4 352.05 -449.4 352.55 Q-442.2 345.35 -374.4 289.4 L-374.4 284.95 -369.25 285.15 -346.2 266.15 -321.6 245.95 -321.65 245.8 -321.9 243.45 Q-321.9 241.75 -321.4 240.45 -320.85 238.95 -319.9 238.95 -319.1 238.95 -317.7 239.95 L-315.75 241.15 -267.5 201.7 -267.5 196.45 -263.6 198.55 -246.5 184.95 -237.8 178.6 -235.0 174.45 Q-234.8 174.2 -230.5 171.3 -226.45 168.55 -226.2 167.8 L-198.85 145.55 -196.95 141.5 Q-195.2 137.85 -195.35 137.25 L-189.2 137.4 -176.6 127.9 -161.35 116.4 -158.85 114.4 -157.65 111.75 Q-156.65 109.7 -156.35 108.65 L-152.85 109.05 -152.05 109.15 -145.6 104.2 -134.75 95.85 Q-133.75 92.5 -133.2 92.4 L-130.55 92.05 -125.95 88.7 Q-122.2 85.55 -113.35 80.35 -103.25 74.4 -98.1 73.15 -97.6 73.0 -97.45 73.4 -97.25 74.1 -96.7 74.6 L-101.55 82.3 Q-104.25 86.4 -106.7 89.45 -109.65 93.1 -113.45 96.7 L-119.1 101.65 -120.15 102.6 -120.15 104.1 -120.05 105.25 Q-120.35 105.1 -122.25 105.85 L-124.85 106.75 -134.6 115.25 Q-143.05 122.55 -152.35 129.9 L-160.05 136.45 -160.8 137.1 -160.9 139.55 -160.85 141.95 Q-163.4 141.55 -168.1 142.0 L-168.85 142.4 Q-172.1 144.1 -176.4 148.3 -181.25 153.05 -184.1 154.95 -186.3 156.4 -193.3 161.45 L-206.6 170.7 Q-208.15 171.75 -213.85 177.85 L-215.8 179.85 -219.35 180.75 -223.15 181.65 Q-224.65 182.0 -227.0 184.3 L-230.0 186.95 Q-238.15 190.45 -246.5 197.95 L-284.9 228.75 Q-284.95 233.75 -285.4 235.45 -286.15 234.7 -288.5 233.45 L-289.85 232.75 Q-308.9 248.0 -327.95 263.4 L-328.05 265.25 Q-328.1 267.6 -328.9 268.45 -329.75 267.6 -332.0 266.7 L-339.7 272.85 -385.9 310.25 -385.9 315.95 Q-388.6 314.55 -390.25 313.8 -436.7 351.65 -444.0 358.95 -446.05 359.8 -447.4 361.2 -448.9 362.8 -448.9 364.55 L-448.6 365.9 -447.9 367.05 Q-448.4 367.05 -448.4 367.55 L-451.9 367.55 -459.65 366.55 Q-461.8 366.55 -463.35 367.25 L-463.9 367.55 -463.4 367.05 Z" fill="none" stroke="#ffcc33" stroke-linecap="round" stroke-linejoin="round" stroke-width="1.0"/>
  </g>
  <defs>
    <radialGradient cx="0" cy="0" gradientTransform="matrix(0.1999, -0.1555, 0.0809, 0.104, -196.0, 154.95)" gradientUnits="userSpaceOnUse" id="gradient0" r="819.2" spreadMethod="pad">
      <stop offset="0.0" stop-color="#fefddc"/>
      <stop offset="0.37254901960784315" stop-color="#f9f868"/>
      <stop offset="0.7803921568627451" stop-color="#f5bb50"/>
    </radialGradient>
  </defs>
</svg>
