<?xml version="1.0" encoding="UTF-8" standalone="no"?>
<svg xmlns:xlink="http://www.w3.org/1999/xlink" height="295.45px" width="368.2px" xmlns="http://www.w3.org/2000/svg">
  <g transform="matrix(1.0, 0.0, 0.0, 1.0, 236.4, 110.35)">
    <path d="M-235.4 184.1 Q-227.6 172.3 -226.9 169.1 L-224.4 169.1 -221.4 169.6 Q-214.2 162.4 -146.4 106.45 L-146.4 102.0 -141.25 102.2 -118.2 83.2 -93.6 63.0 -93.65 62.85 -93.9 60.5 Q-93.9 58.8 -93.4 57.5 -92.85 56.0 -91.9 56.0 -91.1 56.0 -89.7 57.0 L-87.75 58.2 -39.5 18.75 -39.5 13.5 -35.6 15.6 -18.5 2.0 -9.8 -4.35 Q-9.2 -4.95 -7.0 -8.5 L-2.5 -11.65 Q1.55 -14.4 1.8 -15.15 L29.15 -37.4 31.05 -41.45 Q32.8 -45.1 32.65 -45.7 L38.8 -45.55 51.4 -55.05 Q63.0 -63.6 66.65 -66.55 L69.15 -68.55 70.35 -71.2 71.65 -74.3 75.15 -73.9 75.95 -73.8 82.4 -78.75 93.25 -87.1 Q94.25 -90.45 94.8 -90.55 L97.45 -90.9 102.05 -94.25 Q105.8 -97.4 114.65 -102.6 124.75 -108.55 129.9 -109.8 130.4 -109.95 130.55 -109.55 130.75 -108.85 131.3 -108.35 L126.45 -100.65 Q123.75 -96.55 121.3 -93.5 118.35 -89.85 114.55 -86.25 L108.9 -81.3 107.85 -80.35 107.85 -78.85 107.95 -77.7 Q107.65 -77.85 105.75 -77.1 L103.15 -76.2 93.4 -67.7 Q84.95 -60.4 75.65 -53.05 L67.95 -46.5 67.2 -45.85 67.1 -43.4 67.15 -41.0 Q64.6 -41.4 59.9 -40.95 L59.15 -40.55 Q55.9 -38.85 51.6 -34.65 46.75 -29.9 43.9 -28.0 L34.7 -21.5 Q27.35 -16.2 21.4 -12.25 19.85 -11.2 14.15 -5.1 L12.2 -3.1 8.65 -2.2 4.85 -1.3 Q3.35 -0.95 1.0 1.35 L-2.0 4.0 Q-10.15 7.5 -18.5 15.0 L-56.9 45.8 Q-56.95 50.8 -57.4 52.5 -58.15 51.75 -60.5 50.5 L-61.85 49.8 -99.95 80.45 -100.05 82.3 Q-100.1 84.65 -100.9 85.5 -101.75 84.65 -104.0 83.75 L-111.7 89.9 -157.9 127.3 -157.9 133.0 Q-160.6 131.6 -162.25 130.85 -208.7 168.7 -216.0 176.0 -218.05 176.85 -219.4 178.25 -220.9 179.85 -220.9 181.6 L-220.6 182.95 -219.9 184.1 Q-220.4 184.1 -220.4 184.6 L-223.9 184.6 -231.65 183.6 Q-233.8 183.6 -235.35 184.3 L-235.4 184.1" fill="url(#gradient0)" fill-rule="evenodd" stroke="none"/>
    <path d="M-235.4 184.1 Q-227.6 172.3 -226.9 169.1 L-224.4 169.1 -221.4 169.6 Q-214.2 162.4 -146.4 106.45 L-146.4 102.0 -141.25 102.2 -118.2 83.2 -93.6 63.0 -93.65 62.85 -93.9 60.5 Q-93.9 58.8 -93.4 57.5 -92.85 56.0 -91.9 56.0 -91.1 56.0 -89.7 57.0 L-87.75 58.2 -39.5 18.75 -39.5 13.5 -35.6 15.6 -18.5 2.0 -9.8 -4.35 Q-9.2 -4.95 -7.0 -8.5 L-2.5 -11.65 Q1.55 -14.4 1.8 -15.15 L29.15 -37.4 31.05 -41.45 Q32.8 -45.1 32.65 -45.7 L38.8 -45.55 51.4 -55.05 Q63.0 -63.6 66.65 -66.55 L69.15 -68.55 70.35 -71.2 71.65 -74.3 75.15 -73.9 75.95 -73.8 82.4 -78.75 93.25 -87.1 Q94.25 -90.45 94.8 -90.55 L97.45 -90.9 102.05 -94.25 Q105.8 -97.4 114.65 -102.6 124.75 -108.55 129.9 -109.8 130.4 -109.95 130.55 -109.55 130.75 -108.85 131.3 -108.35 L126.45 -100.65 Q123.75 -96.55 121.3 -93.5 118.35 -89.85 114.55 -86.25 L108.9 -81.3 107.85 -80.35 107.85 -78.85 107.95 -77.7 Q107.65 -77.85 105.75 -77.1 L103.15 -76.2 93.4 -67.7 Q84.95 -60.4 75.65 -53.05 L67.95 -46.5 67.2 -45.85 67.1 -43.4 67.15 -41.0 Q64.6 -41.4 59.9 -40.95 L59.15 -40.55 Q55.9 -38.85 51.6 -34.65 46.75 -29.9 43.9 -28.0 L34.7 -21.5 Q27.35 -16.2 21.4 -12.25 19.85 -11.2 14.15 -5.1 L12.2 -3.1 8.65 -2.2 4.85 -1.3 Q3.35 -0.95 1.0 1.35 L-2.0 4.0 Q-10.15 7.5 -18.5 15.0 L-56.9 45.8 Q-56.95 50.8 -57.4 52.5 -58.15 51.75 -60.5 50.5 L-61.85 49.8 -99.95 80.45 -100.05 82.3 Q-100.1 84.65 -100.9 85.5 -101.75 84.65 -104.0 83.75 L-111.7 89.9 -157.9 127.3 -157.9 133.0 Q-160.6 131.6 -162.25 130.85 -208.7 168.7 -216.0 176.0 -218.05 176.85 -219.4 178.25 -220.9 179.85 -220.9 181.6 L-220.6 182.95 -219.9 184.1 Q-220.4 184.1 -220.4 184.6 L-223.9 184.6 -231.65 183.6 Q-233.8 183.6 -235.35 184.3 L-235.9 184.6 -235.4 184.1 Z" fill="none" stroke="#ffcc33" stroke-linecap="round" stroke-linejoin="round" stroke-width="1.0"/>
  </g>
  <defs>
    <radialGradient cx="0" cy="0" gradientTransform="matrix(0.1999, -0.1555, 0.0809, 0.104, 32.0, -28.0)" gradientUnits="userSpaceOnUse" id="gradient0" r="819.2" spreadMethod="pad">
      <stop offset="0.0" stop-color="#fefddc"/>
      <stop offset="0.37254901960784315" stop-color="#f9f868"/>
      <stop offset="0.7803921568627451" stop-color="#f5bb50"/>
    </radialGradient>
  </defs>
</svg>
