<?xml version="1.0" encoding="UTF-8" standalone="no"?>
<svg xmlns:xlink="http://www.w3.org/1999/xlink" height="46.35px" width="56.3px" xmlns="http://www.w3.org/2000/svg">
  <g transform="matrix(1.0, 0.0, 0.0, 1.0, -62.8, 99.1)">
    <path d="M63.3 -53.25 L64.45 -54.5 Q65.2 -55.3 65.7 -56.75 L70.2 -59.55 74.7 -62.45 71.25 -58.5 Q69.9 -57.05 68.5 -54.35 L66.05 -53.85 63.3 -53.25 M112.15 -92.65 Q105.95 -89.65 105.7 -89.45 108.65 -91.8 110.1 -93.6 L112.0 -96.0 118.6 -98.6 Q116.5 -94.8 112.15 -92.65 M81.6 -68.55 Q85.9 -72.65 88.8 -78.25 91.85 -79.5 95.95 -82.55 L102.3 -87.45 94.9 -77.45 91.45 -74.75 87.75 -71.6 Q84.55 -70.3 81.7 -68.45 L81.6 -68.55" fill="#ff9933" fill-rule="evenodd" stroke="none"/>
    <path d="M63.3 -53.25 L64.45 -54.5 Q65.2 -55.3 65.7 -56.75 L70.2 -59.55 74.7 -62.45 71.25 -58.5 Q69.9 -57.05 68.5 -54.35 L66.05 -53.85 63.3 -53.25 M112.15 -92.65 Q105.95 -89.65 105.7 -89.45 108.65 -91.8 110.1 -93.6 L112.0 -96.0 118.6 -98.6 Q116.5 -94.8 112.15 -92.65 M81.6 -68.55 Q85.9 -72.65 88.8 -78.25 91.85 -79.5 95.95 -82.55 L102.3 -87.45 94.9 -77.45 91.45 -74.75 87.75 -71.6 Q84.55 -70.3 81.7 -68.45 L81.5 -68.45 81.6 -68.55" fill="none" stroke="#ff9933" stroke-linecap="round" stroke-linejoin="round" stroke-width="1.0"/>
  </g>
</svg>
