<?xml version="1.0" encoding="UTF-8" standalone="no"?>
<svg xmlns:xlink="http://www.w3.org/1999/xlink" height="224.5px" width="91.3px" xmlns="http://www.w3.org/2000/svg">
  <g transform="matrix(1.0, 0.0, 0.0, 1.0, 45.65, 112.25)">
    <path d="M1.7 -65.75 Q1.7 -42.05 2.25 -29.35 L3.1 -3.1 8.75 -2.75 16.0 -2.3 33.75 -1.0 45.4 0.0 33.75 1.0 16.0 2.3 8.75 2.75 3.1 3.1 2.25 29.35 Q1.7 42.05 1.7 65.75 1.7 77.85 1.1 93.35 0.55 108.45 0.0 112.0 -0.55 108.45 -1.1 93.35 -1.7 77.85 -1.7 65.75 -1.7 42.05 -2.25 29.35 L-3.1 3.1 -8.75 2.75 -16.0 2.3 -33.75 1.0 -45.4 0.0 -33.75 -1.0 -16.0 -2.3 -8.75 -2.75 -3.1 -3.1 -2.25 -29.35 Q-1.7 -42.05 -1.7 -65.75 -1.7 -77.85 -1.1 -93.35 -0.55 -108.45 0.0 -112.0 0.55 -108.45 1.1 -93.35 1.7 -77.85 1.7 -65.75" fill="#c9fcef" fill-rule="evenodd" stroke="none"/>
    <path d="M1.7 -65.75 Q1.7 -42.05 2.25 -29.35 L3.1 -3.1 8.75 -2.75 16.0 -2.3 33.75 -1.0 45.4 0.0 33.75 1.0 16.0 2.3 8.75 2.75 3.1 3.1 2.25 29.35 Q1.7 42.05 1.7 65.75 1.7 77.85 1.1 93.35 0.55 108.45 0.0 112.0 -0.55 108.45 -1.1 93.35 -1.7 77.85 -1.7 65.75 -1.7 42.05 -2.25 29.35 L-3.1 3.1 -8.75 2.75 -16.0 2.3 -33.75 1.0 -45.4 0.0 -33.75 -1.0 -16.0 -2.3 -8.75 -2.75 -3.1 -3.1 -2.25 -29.35 Q-1.7 -42.05 -1.7 -65.75 -1.7 -77.85 -1.1 -93.35 -0.55 -108.45 0.0 -112.0 0.55 -108.45 1.1 -93.35 1.7 -77.85 1.7 -65.75 Z" fill="none" stroke="#cffcf0" stroke-linecap="round" stroke-linejoin="round" stroke-width="0.5"/>
  </g>
</svg>
