<?xml version="1.0" encoding="UTF-8" standalone="no"?>
<svg xmlns:xlink="http://www.w3.org/1999/xlink" height="96.0px" width="760.0px" xmlns="http://www.w3.org/2000/svg">
  <g transform="matrix(1.0, 0.0, 0.0, 1.0, 0.0, 0.0)">
    <path d="M760.0 96.0 L0.0 96.0 0.0 0.0 760.0 0.0 760.0 96.0" fill="#323234" fill-opacity="0.8509804" fill-rule="evenodd" stroke="none"/>
    <path d="M278.0 26.0 Q280.0 26.0 280.0 28.0 L280.0 86.0 Q280.0 88.0 278.0 88.0 L66.0 88.0 Q64.0 88.0 64.0 86.0 L64.0 28.0 Q64.0 26.0 66.0 26.0 L278.0 26.0 M280.0 22.0 Q280.0 24.0 278.0 24.0 L66.0 24.0 Q64.0 24.0 64.0 22.0 L64.0 10.0 Q64.0 8.0 66.0 8.0 L278.0 8.0 Q280.0 8.0 280.0 10.0 L280.0 22.0 M391.0 40.0 Q391.0 42.0 389.0 42.0 L286.0 42.0 Q284.0 42.0 284.0 40.0 L284.0 28.0 Q284.0 26.0 286.0 26.0 L389.0 26.0 Q391.0 26.0 391.0 28.0 L391.0 40.0 M498.0 26.0 Q500.0 26.0 500.0 28.0 L500.0 40.0 Q500.0 42.0 498.0 42.0 L395.0 42.0 Q393.0 42.0 393.0 40.0 L393.0 28.0 Q393.0 26.0 395.0 26.0 L498.0 26.0 M498.0 8.0 Q500.0 8.0 500.0 10.0 L500.0 22.0 Q500.0 24.0 498.0 24.0 L286.0 24.0 Q284.0 24.0 284.0 22.0 L284.0 10.0 Q284.0 8.0 286.0 8.0 L498.0 8.0 M732.0 86.0 Q732.0 88.0 730.0 88.0 L526.0 88.0 Q524.0 88.0 524.0 86.0 L524.0 74.0 Q524.0 72.0 526.0 72.0 L730.0 72.0 Q732.0 72.0 732.0 74.0 L732.0 86.0 M730.0 40.0 Q732.0 40.0 732.0 42.0 L732.0 54.0 Q732.0 56.0 730.0 56.0 L526.0 56.0 Q524.0 56.0 524.0 54.0 L524.0 42.0 Q524.0 40.0 526.0 40.0 L730.0 40.0 M732.0 22.0 Q732.0 24.0 730.0 24.0 L526.0 24.0 Q524.0 24.0 524.0 22.0 L524.0 10.0 Q524.0 8.0 526.0 8.0 L730.0 8.0 Q732.0 8.0 732.0 10.0 L732.0 22.0" fill="#d2d6d7" fill-opacity="0.101960786" fill-rule="evenodd" stroke="none"/>
    <path d="M272.0 84.0 L72.0 84.0 72.0 79.0 272.0 79.0 272.0 84.0 M271.0 62.0 L271.0 59.0 73.0 59.0 73.0 62.0 271.0 62.0 M271.0 83.0 L271.0 80.0 73.0 80.0 73.0 83.0 271.0 83.0 M272.0 63.0 L72.0 63.0 72.0 58.0 272.0 58.0 272.0 63.0" fill="#000000" fill-rule="evenodd" stroke="none"/>
    <path d="M271.0 83.0 L73.0 83.0 73.0 80.0 271.0 80.0 271.0 83.0 M271.0 62.0 L73.0 62.0 73.0 59.0 271.0 59.0 271.0 62.0" fill="#666666" fill-rule="evenodd" stroke="none"/>
  </g>
</svg>
