<?xml version="1.0" encoding="UTF-8" standalone="no"?>
<svg xmlns:xlink="http://www.w3.org/1999/xlink" height="149.9px" width="34.0px" xmlns="http://www.w3.org/2000/svg">
  <g transform="matrix(1.0, 0.0, 0.0, 1.0, 13.5, 75.5)">
    <path d="M20.4 -73.8 Q20.65 -73.0 20.35 -72.15 L18.9 -68.15 Q10.55 -44.05 7.25 -17.5 L7.25 -17.45 Q3.9 8.8 5.85 35.05 L5.65 36.25 5.45 36.7 4.6 37.7 4.5 37.8 4.9 47.9 Q5.35 56.15 6.1 63.45 L6.15 63.8 Q6.85 64.15 7.2 64.85 7.55 65.5 7.5 66.25 L7.0 71.3 Q6.9 72.15 6.3 72.8 5.7 73.4 4.8 73.55 L-2.1 74.4 Q-2.95 74.5 -3.7 74.0 -4.5 73.5 -4.75 72.7 L-6.35 67.8 Q-6.6 67.05 -6.4 66.3 L-5.75 65.25 -5.8 65.0 Q-7.75 50.3 -8.5 41.75 L-9.05 41.6 -9.5 41.4 -10.45 40.7 -12.95 37.6 Q-13.55 36.8 -13.5 35.85 -13.45 34.85 -12.7 34.2 -11.15 32.7 -10.45 31.4 -8.6 -30.8 5.7 -67.9 L6.2 -68.9 6.4 -69.25 Q8.0 -71.25 11.2 -73.1 14.7 -75.15 17.7 -75.45 18.6 -75.6 19.35 -75.1 20.1 -74.65 20.4 -73.8" fill="#000000" fill-rule="evenodd" stroke="none"/>
    <path d="M2.4 48.0 Q2.85 56.35 3.65 63.75 L1.65 64.0 0.4 62.2 -0.75 62.35 -1.3 64.4 -3.3 64.7 Q-5.65 47.3 -6.25 38.55 L-2.4 32.9 2.0 36.0 Q2.05 41.3 2.4 48.0" fill="url(#gradient0)" fill-rule="evenodd" stroke="none"/>
    <path d="M1.65 64.0 L3.65 63.75 4.0 67.0 -3.0 67.0 -3.3 64.7 -1.3 64.4 -0.75 62.35 0.4 62.2 1.65 64.0" fill="url(#gradient1)" fill-rule="evenodd" stroke="none"/>
    <path d="M4.5 71.05 L-2.4 71.9 -4.0 67.0 5.0 66.0 4.5 71.05" fill="url(#gradient2)" fill-rule="evenodd" stroke="none"/>
    <path d="M-0.35 41.3 L-1.2 41.95 0.05 58.3 Q0.1 58.95 -0.5 59.05 -1.15 59.15 -1.2 58.4 -2.0 51.55 -2.4 42.05 L-3.3 41.5 -3.85 33.85 -0.85 33.85 -0.35 41.3" fill="url(#gradient3)" fill-rule="evenodd" stroke="none"/>
    <path d="M-0.85 33.85 L-3.85 33.85 -3.3 41.5 -3.8 41.8 -4.35 33.9 -4.3 33.65 -4.1 33.45 -3.85 33.35 -0.85 33.35 -0.5 33.5 Q-0.35 33.6 -0.35 33.85 L0.2 41.55 -0.35 41.3 -0.85 33.85 M-0.65 42.2 Q0.1 54.6 0.55 58.25 0.65 59.4 -0.4 59.55 -1.05 59.65 -1.35 59.3 L-1.7 58.45 Q-2.5 51.7 -2.9 42.35 L-2.4 42.05 Q-2.0 51.55 -1.2 58.4 -1.15 59.15 -0.5 59.05 0.1 58.95 0.05 58.3 L-1.2 41.95 -0.65 42.2" fill="url(#gradient4)" fill-rule="evenodd" stroke="none"/>
    <path d="M-3.8 41.8 L-3.3 41.5 -2.4 42.05 -2.9 42.35 -3.8 41.85 -3.8 41.8" fill="url(#gradient5)" fill-rule="evenodd" stroke="none"/>
    <path d="M-0.65 42.2 L-1.2 41.95 -0.35 41.3 0.2 41.55 -0.65 42.2" fill="url(#gradient6)" fill-rule="evenodd" stroke="none"/>
    <path d="M-1.0 27.0 L-1.0 32.0 3.0 34.0 2.0 36.3 -0.25 35.25 Q-1.1 33.95 -2.5 34.2 -3.9 34.45 -4.25 36.0 L-6.4 38.8 -8.0 38.0 -4.0 33.0 -4.0 27.0 -3.0 27.0 -1.0 27.0" fill="url(#gradient7)" fill-rule="evenodd" stroke="none"/>
    <path d="M-4.0 27.0 L-6.0 27.0 M-1.0 27.0 L2.0 27.0" fill="none" stroke="#00ff66" stroke-linecap="square" stroke-linejoin="round" stroke-width="0.25"/>
    <path d="M-2.5 19.5 Q-2.05 19.5 -2.0 20.0 L-2.0 27.0 -3.0 27.0 -3.0 20.0 Q-2.95 19.5 -2.5 19.5" fill="url(#gradient8)" fill-rule="evenodd" stroke="none"/>
    <path d="M2.8 35.2 L-1.5 33.0 -1.5 25.0 M-3.5 25.0 L-3.5 33.1 -8.0 39.1" fill="none" stroke="#000000" stroke-linecap="square" stroke-linejoin="round" stroke-opacity="0.2509804" stroke-width="1.0"/>
    <path d="M0.1 -16.55 L0.85 -16.15 1.3 -15.1 Q-1.0 6.35 -1.0 24.5 L-0.5 24.5 -0.5 32.7 -0.35 32.8 -1.4 33.3 -1.4 33.25 -1.5 33.0 -1.5 24.5 -1.5 20.15 -1.45 20.15 Q-1.2 3.3 0.8 -15.15 L0.5 -15.8 0.0 -16.05 -0.2 -16.1 -0.9 -15.8 -1.2 -15.1 -1.2 -15.05 Q-3.25 3.6 -3.5 20.65 L-3.5 33.15 -3.5 33.3 -4.5 33.0 -4.5 24.5 Q-4.5 15.8 -3.6 4.75 L-1.7 -15.1 Q-1.7 -15.7 -1.25 -16.15 -0.8 -16.6 -0.2 -16.6 L0.1 -16.55" fill="url(#gradient9)" fill-rule="evenodd" stroke="none"/>
    <path d="M-3.5 33.3 L-3.6 33.45 -8.05 39.3 -8.5 39.1 -4.5 33.0 -3.5 33.3" fill="url(#gradient10)" fill-rule="evenodd" stroke="none"/>
    <path d="M3.35 35.2 L3.15 35.65 -1.2 33.45 -1.4 33.3 -0.35 32.8 3.35 35.2" fill="url(#gradient11)" fill-rule="evenodd" stroke="none"/>
    <path d="M8.35 -67.65 L11.0 -65.0 Q3.3 -41.35 0.1 -16.55 L-0.2 -16.6 Q-0.8 -16.6 -1.25 -16.15 -1.7 -15.7 -1.7 -15.1 -4.05 7.05 -4.0 25.0 L-4.0 33.15 -8.0 32.0 Q-6.2 -30.05 8.0 -67.0 L8.35 -67.65" fill="url(#gradient12)" fill-rule="evenodd" stroke="none"/>
    <path d="M-8.0 32.0 L-4.0 33.15 -8.5 39.1 -11.0 36.0 Q-8.75 33.85 -8.0 32.0" fill="url(#gradient13)" fill-rule="evenodd" stroke="none"/>
    <path d="M16.55 -68.95 Q8.1 -44.65 4.75 -17.8 1.4 8.7 3.35 35.2 L-1.0 33.0 -1.0 25.0 Q-1.05 6.65 1.3 -15.1 L0.85 -16.15 0.1 -16.55 Q3.3 -41.35 11.0 -65.0 L16.55 -68.95" fill="url(#gradient14)" fill-rule="evenodd" stroke="none"/>
    <path d="M16.55 -68.95 L11.0 -65.0 8.35 -67.65 Q9.7 -69.35 12.45 -70.95 15.45 -72.7 18.0 -73.0 L16.55 -68.95" fill="#ffffff" fill-rule="evenodd" stroke="none"/>
    <path d="M-1.4 35.0 Q-1.05 35.3 -1.0 35.8 L-0.7 39.75 Q-0.65 40.25 -1.0 40.65 -1.3 40.95 -1.8 41.0 L-1.85 41.0 -2.75 40.75 -3.15 39.95 -3.45 36.0 Q-3.5 35.5 -3.15 35.1 -2.85 34.75 -2.35 34.7 L-2.3 34.7 Q-1.8 34.65 -1.4 35.0" fill="url(#gradient15)" fill-rule="evenodd" stroke="none"/>
    <path d="M-1.4 38.3 Q-1.6 38.7 -2.0 38.7 L-2.6 38.3 -2.8 37.5 -2.6 36.6 Q-2.35 36.3 -2.0 36.3 -1.6 36.3 -1.4 36.6 -1.15 36.95 -1.15 37.5 -1.15 38.0 -1.4 38.3" fill="url(#gradient16)" fill-rule="evenodd" stroke="none"/>
    <path d="M0.05 68.0 L1.05 67.9 1.3 69.9 0.3 70.0 0.05 68.0" fill="#000000" fill-rule="evenodd" stroke="none"/>
    <path d="M-4.2 27.5 L-5.2 27.5 M-4.2 29.5 L-5.2 29.5 M-4.2 31.5 L-5.2 31.5 M-0.7 27.5 L0.3 27.5 M-0.7 29.5 L0.3 29.5 M-0.7 31.5 L0.3 31.5" fill="none" stroke="#000000" stroke-linecap="square" stroke-linejoin="round" stroke-width="0.5"/>
    <path d="M4.85 66.05 L-3.7 67.0 -4.05 66.05 4.95 64.9 4.85 66.05 M-3.5 26.0 L-1.5 26.0 -1.5 27.0 -3.5 27.0 -3.5 26.0" fill="#000000" fill-opacity="0.2509804" fill-rule="evenodd" stroke="none"/>
  </g>
  <defs>
    <linearGradient gradientTransform="matrix(0.0059, -4.0E-4, 0.0013, 0.0187, -1.0, 49.3)" gradientUnits="userSpaceOnUse" id="gradient0" spreadMethod="pad" x1="-819.2" x2="819.2">
      <stop offset="0.03529411764705882" stop-color="#39343d"/>
      <stop offset="0.21176470588235294" stop-color="#201e22"/>
      <stop offset="0.34901960784313724" stop-color="#201d23"/>
      <stop offset="0.6470588235294118" stop-color="#38323a"/>
      <stop offset="0.9568627450980393" stop-color="#403d43"/>
    </linearGradient>
    <linearGradient gradientTransform="matrix(0.0043, -4.0E-4, 3.0E-4, 0.0029, 0.15, 64.65)" gradientUnits="userSpaceOnUse" id="gradient1" spreadMethod="pad" x1="-819.2" x2="819.2">
      <stop offset="0.07058823529411765" stop-color="#7a6a3d"/>
      <stop offset="0.13333333333333333" stop-color="#b19d63"/>
      <stop offset="0.14901960784313725" stop-color="#c9ba92"/>
      <stop offset="0.8627450980392157" stop-color="#c9ba92"/>
      <stop offset="0.8941176470588236" stop-color="#a9955d"/>
      <stop offset="0.9490196078431372" stop-color="#7a6a3d"/>
    </linearGradient>
    <radialGradient cx="0" cy="0" fx="204.8" fy="0" gradientTransform="matrix(-0.0013, -0.01, 0.006, -7.0E-4, 0.65, 67.8)" gradientUnits="userSpaceOnUse" id="gradient2" r="819.2" spreadMethod="pad">
      <stop offset="0.054901960784313725" stop-color="#fcfbfa"/>
      <stop offset="0.5725490196078431" stop-color="#c9ba92"/>
      <stop offset="0.7529411764705882" stop-color="#847342"/>
      <stop offset="0.8117647058823529" stop-color="#584b27"/>
    </radialGradient>
    <linearGradient gradientTransform="matrix(0.0011, 0.0161, -0.0154, 0.001, -1.9, 46.45)" gradientUnits="userSpaceOnUse" id="gradient3" spreadMethod="pad" x1="-819.2" x2="819.2">
      <stop offset="0.0" stop-color="#101012"/>
      <stop offset="0.22745098039215686" stop-color="#147981"/>
      <stop offset="0.34901960784313724" stop-color="#50a2af"/>
      <stop offset="0.4392156862745098" stop-color="#73757d"/>
      <stop offset="0.9568627450980393" stop-color="#777879"/>
      <stop offset="0.984313725490196" stop-color="#5b5f64"/>
    </linearGradient>
    <linearGradient gradientTransform="matrix(-0.003, 2.0E-4, -0.0011, -0.0159, -1.5, 46.4)" gradientUnits="userSpaceOnUse" id="gradient4" spreadMethod="pad" x1="-819.2" x2="819.2">
      <stop offset="0.0" stop-color="#201e22"/>
      <stop offset="0.48627450980392156" stop-color="#2d2c30"/>
      <stop offset="0.5686274509803921" stop-color="#434046"/>
      <stop offset="1.0" stop-color="#403d43"/>
    </linearGradient>
    <linearGradient gradientTransform="matrix(-0.003, 2.0E-4, -0.0011, -0.0159, -1.5, 46.4)" gradientUnits="userSpaceOnUse" id="gradient5" spreadMethod="pad" x1="-819.2" x2="819.2">
      <stop offset="0.0" stop-color="#201e22"/>
      <stop offset="0.48627450980392156" stop-color="#2d2c30"/>
      <stop offset="0.5686274509803921" stop-color="#7b7681"/>
      <stop offset="1.0" stop-color="#403d43"/>
    </linearGradient>
    <linearGradient gradientTransform="matrix(-0.003, 2.0E-4, -0.0011, -0.0159, -1.5, 46.4)" gradientUnits="userSpaceOnUse" id="gradient6" spreadMethod="pad" x1="-819.2" x2="819.2">
      <stop offset="0.0" stop-color="#343238"/>
      <stop offset="0.48627450980392156" stop-color="#4e4e54"/>
      <stop offset="0.5686274509803921" stop-color="#434046"/>
      <stop offset="1.0" stop-color="#403d43"/>
    </linearGradient>
    <linearGradient gradientTransform="matrix(0.0, -0.0117, 0.0116, 0.0, -2.5, 29.5)" gradientUnits="userSpaceOnUse" id="gradient7" spreadMethod="pad" x1="-819.2" x2="819.2">
      <stop offset="0.08627450980392157" stop-color="#ae9d6c"/>
      <stop offset="0.9764705882352941" stop-color="#52482e"/>
      <stop offset="1.0" stop-color="#95834d"/>
    </linearGradient>
    <radialGradient cx="0" cy="0" fx="643.2" fy="0" gradientTransform="matrix(0.0, -0.0187, 0.0011, 0.0, -2.55, 32.4)" gradientUnits="userSpaceOnUse" id="gradient8" r="819.2" spreadMethod="pad">
      <stop offset="0.1411764705882353" stop-color="#ec0b0b"/>
      <stop offset="0.9450980392156862" stop-color="#630707"/>
    </radialGradient>
    <linearGradient gradientTransform="matrix(0.0081, 4.0E-4, -0.0016, 0.0341, -2.1, 11.5)" gradientUnits="userSpaceOnUse" id="gradient9" spreadMethod="pad" x1="-819.2" x2="819.2">
      <stop offset="0.0" stop-color="#6d6d6d"/>
      <stop offset="0.5254901960784314" stop-color="#f0f0f0"/>
      <stop offset="0.5529411764705883" stop-color="#1c1b1d"/>
      <stop offset="1.0" stop-color="#57565a"/>
    </linearGradient>
    <linearGradient gradientTransform="matrix(0.0081, 4.0E-4, -0.0016, 0.0341, -2.1, 11.5)" gradientUnits="userSpaceOnUse" id="gradient10" spreadMethod="pad" x1="-819.2" x2="819.2">
      <stop offset="0.0" stop-color="#6d6d6d"/>
      <stop offset="1.0" stop-color="#f0f0f0"/>
    </linearGradient>
    <linearGradient gradientTransform="matrix(0.0081, 4.0E-4, -0.0016, 0.0341, -2.1, 11.5)" gradientUnits="userSpaceOnUse" id="gradient11" spreadMethod="pad" x1="-819.2" x2="819.2">
      <stop offset="0.0" stop-color="#57565a"/>
      <stop offset="1.0" stop-color="#343436"/>
    </linearGradient>
    <linearGradient gradientTransform="matrix(0.0313, -0.0518, 0.0556, 0.0336, 0.0, -14.35)" gradientUnits="userSpaceOnUse" id="gradient12" spreadMethod="pad" x1="-819.2" x2="819.2">
      <stop offset="0.10196078431372549" stop-color="#e6e6e6"/>
      <stop offset="0.20392156862745098" stop-color="#959595"/>
      <stop offset="0.3568627450980392" stop-color="#989898"/>
      <stop offset="0.6196078431372549" stop-color="#d8d8d8"/>
      <stop offset="0.6941176470588235" stop-color="#e6e6e6"/>
      <stop offset="0.7843137254901961" stop-color="#c6c6c6"/>
      <stop offset="1.0" stop-color="#6a6a6a"/>
    </linearGradient>
    <linearGradient gradientTransform="matrix(-0.0037, 0.0048, -0.0033, -0.0026, -7.95, 34.05)" gradientUnits="userSpaceOnUse" id="gradient13" spreadMethod="pad" x1="-819.2" x2="819.2">
      <stop offset="0.0" stop-color="#ffffff"/>
      <stop offset="0.9137254901960784" stop-color="#a6a6a6"/>
    </linearGradient>
    <linearGradient gradientTransform="matrix(0.0338, -0.0408, 0.0484, 0.0401, 7.75, -17.35)" gradientUnits="userSpaceOnUse" id="gradient14" spreadMethod="pad" x1="-819.2" x2="819.2">
      <stop offset="0.0" stop-color="#403d43"/>
      <stop offset="0.1803921568627451" stop-color="#464349"/>
      <stop offset="0.4196078431372549" stop-color="#404046"/>
      <stop offset="0.7372549019607844" stop-color="#56565a"/>
      <stop offset="1.0" stop-color="#505152"/>
    </linearGradient>
    <radialGradient cx="0" cy="0" gradientTransform="matrix(0.0025, -2.0E-4, 4.0E-4, 0.0049, -2.0, 37.3)" gradientUnits="userSpaceOnUse" id="gradient15" r="819.2" spreadMethod="pad">
      <stop offset="0.1843137254901961" stop-color="#013030"/>
      <stop offset="0.5215686274509804" stop-color="#038382"/>
      <stop offset="0.7019607843137254" stop-color="#02ae9c"/>
      <stop offset="0.8509803921568627" stop-color="#3eeccd"/>
      <stop offset="0.9686274509803922" stop-color="#78f1dc"/>
    </radialGradient>
    <radialGradient cx="0" cy="0" fx="140.8" fy="0" gradientTransform="matrix(0.0011, 0.0, 0.0, 0.0019, -2.0, 37.5)" gradientUnits="userSpaceOnUse" id="gradient16" r="819.2" spreadMethod="pad">
      <stop offset="0.4392156862745098" stop-color="#fcfbfa"/>
      <stop offset="0.6823529411764706" stop-color="#004d3f" stop-opacity="0.0"/>
    </radialGradient>
  </defs>
</svg>
