<?xml version="1.0" encoding="UTF-8" standalone="no"?>
<svg xmlns:xlink="http://www.w3.org/1999/xlink" height="104.0px" width="47.0px" xmlns="http://www.w3.org/2000/svg">
  <g transform="matrix(1.0, 0.0, 0.0, 1.0, 23.5, 52.5)">
    <path d="M10.95 -39.95 Q6.4 -44.5 0.0 -44.5 -6.4 -44.5 -10.95 -40.0 L-11.0 -39.95 Q-15.5 -35.4 -15.5 -29.0 -15.5 -22.6 -10.95 -18.05 -8.0 -15.1 -4.25 -14.05 L-3.75 -14.75 Q-3.05 -15.5 -2.0 -15.5 L2.0 -15.5 Q3.05 -15.5 3.8 -14.75 L4.3 -14.05 Q8.0 -15.1 10.95 -18.05 15.5 -22.6 15.5 -29.0 15.5 -35.4 10.95 -39.95 M4.5 -5.9 L4.5 49.0 Q4.5 50.05 3.8 50.8 3.05 51.5 2.0 51.5 L-2.0 51.5 Q-3.05 51.5 -3.75 50.8 -4.5 50.05 -4.5 49.0 L-4.5 -5.9 Q-11.4 -7.15 -16.6 -12.35 -23.5 -19.25 -23.5 -29.0 -23.5 -38.75 -16.6 -45.6 -9.75 -52.5 0.0 -52.5 9.75 -52.5 16.65 -45.6 23.5 -38.75 23.5 -29.0 23.5 -19.25 16.65 -12.35 11.4 -7.15 4.5 -5.9" fill="#000000" fill-rule="evenodd" stroke="none"/>
    <path d="M12.7 -41.75 Q7.45 -47.0 0.0 -47.0 -7.45 -47.0 -12.75 -41.75 -18.0 -36.45 -18.0 -29.0 -18.0 -21.55 -12.75 -16.3 -7.45 -11.0 0.0 -11.0 7.45 -11.0 12.7 -16.3 18.0 -21.55 18.0 -29.0 18.0 -36.45 12.7 -41.75 M0.0 -8.0 Q-8.7 -8.0 -14.85 -14.15 -21.0 -20.3 -21.0 -29.0 -21.0 -37.7 -14.85 -43.85 -8.7 -50.0 0.0 -50.0 8.7 -50.0 14.85 -43.85 21.0 -37.7 21.0 -29.0 21.0 -20.3 14.85 -14.15 8.7 -8.0 0.0 -8.0" fill="url(#gradient0)" fill-rule="evenodd" stroke="none"/>
    <path d="M12.7 -41.75 Q7.45 -47.0 0.0 -47.0 -7.45 -47.0 -12.75 -41.75 -18.0 -36.45 -18.0 -29.0 -18.0 -21.55 -12.75 -16.3 -7.45 -11.0 0.0 -11.0 7.45 -11.0 12.7 -16.3 18.0 -21.55 18.0 -29.0 18.0 -36.45 12.7 -41.75 M0.0 -8.0 Q-8.7 -8.0 -14.85 -14.15 -21.0 -20.3 -21.0 -29.0 -21.0 -37.7 -14.85 -43.85 -8.7 -50.0 0.0 -50.0 8.7 -50.0 14.85 -43.85 21.0 -37.7 21.0 -29.0 21.0 -20.3 14.85 -14.15 8.7 -8.0 0.0 -8.0" fill="url(#gradient1)" fill-rule="evenodd" stroke="none"/>
    <path d="M17.85 -28.95 Q17.85 -36.35 12.6 -41.6 L11.15 -42.9 Q6.4 -46.85 0.0 -46.85 -6.4 -46.85 -11.2 -42.9 L-12.65 -41.6 Q-17.85 -36.35 -17.85 -28.95 -17.85 -21.6 -12.65 -16.35 -7.4 -11.1 0.0 -11.1 7.4 -11.1 12.6 -16.35 17.85 -21.6 17.85 -28.95 M18.6 -28.95 Q18.6 -21.3 13.15 -15.85 7.7 -10.35 0.0 -10.35 -7.7 -10.35 -13.2 -15.85 -18.6 -21.3 -18.6 -28.95 -18.6 -36.65 -13.2 -42.15 L-11.65 -43.5 Q-6.65 -47.6 0.0 -47.6 6.65 -47.6 11.6 -43.5 L13.15 -42.15 Q18.6 -36.65 18.6 -28.95" fill="url(#gradient2)" fill-rule="evenodd" stroke="none"/>
    <path d="M9.9 -47.65 L11.55 -47.0 Q11.45 -44.85 9.85 -44.05 L8.3 -45.0 Q9.05 -45.2 9.55 -46.1 10.05 -46.9 9.9 -47.65" fill="url(#gradient3)" fill-rule="evenodd" stroke="none"/>
    <path d="M2.0 -5.0 L-2.0 -5.0 -2.0 -13.0 2.0 -13.0 2.0 -5.0" fill="url(#gradient4)" fill-rule="evenodd" stroke="none"/>
    <path d="M-2.0 -5.0 L2.0 -5.0 2.0 49.0 -2.0 49.0 -2.0 -5.0" fill="url(#gradient5)" fill-rule="evenodd" stroke="none"/>
    <path d="M3.0 -12.0 L3.0 -8.0 2.0 -8.0 2.0 -12.0 3.0 -12.0 M-2.0 -12.0 L-2.0 -8.0 -3.0 -8.0 -3.0 -12.0 -2.0 -12.0" fill="#000000" fill-opacity="0.16078432" fill-rule="evenodd" stroke="none"/>
  </g>
  <defs>
    <linearGradient gradientTransform="matrix(0.0, 0.0256, -0.0256, 0.0, 0.0, -29.0)" gradientUnits="userSpaceOnUse" id="gradient0" spreadMethod="pad" x1="-819.2" x2="819.2">
      <stop offset="0.0" stop-color="#ededed"/>
      <stop offset="0.5176470588235295" stop-color="#606060"/>
      <stop offset="1.0" stop-color="#ffffff"/>
    </linearGradient>
    <radialGradient cx="0" cy="0" gradientTransform="matrix(0.0258, 0.0, 0.0, 0.0258, 0.0, -29.0)" gradientUnits="userSpaceOnUse" id="gradient1" r="819.2" spreadMethod="pad">
      <stop offset="0.8862745098039215" stop-color="#c2c2c2" stop-opacity="0.87058824"/>
      <stop offset="0.9686274509803922" stop-color="#c9c9c9" stop-opacity="0.6"/>
      <stop offset="0.9882352941176471" stop-color="#ffffff" stop-opacity="0.2"/>
    </radialGradient>
    <linearGradient gradientTransform="matrix(0.0, -0.0227, 0.0227, 0.0, -0.05, -28.95)" gradientUnits="userSpaceOnUse" id="gradient2" spreadMethod="pad" x1="-819.2" x2="819.2">
      <stop offset="0.08627450980392157" stop-color="#aaaaaa"/>
      <stop offset="0.5176470588235295" stop-color="#808080"/>
      <stop offset="1.0" stop-color="#666666"/>
    </linearGradient>
    <linearGradient gradientTransform="matrix(0.0012, 7.0E-4, -0.0011, 0.0019, 9.5, -45.9)" gradientUnits="userSpaceOnUse" id="gradient3" spreadMethod="pad" x1="-819.2" x2="819.2">
      <stop offset="0.29411764705882354" stop-color="#000000" stop-opacity="0.4"/>
      <stop offset="0.8862745098039215" stop-color="#000000" stop-opacity="0.0"/>
    </linearGradient>
    <linearGradient gradientTransform="matrix(0.0, -0.0049, 0.0049, 0.0, 0.0, -9.0)" gradientUnits="userSpaceOnUse" id="gradient4" spreadMethod="pad" x1="-819.2" x2="819.2">
      <stop offset="0.0" stop-color="#666666"/>
      <stop offset="0.11372549019607843" stop-color="#606060"/>
      <stop offset="0.18823529411764706" stop-color="#585858"/>
      <stop offset="0.396078431372549" stop-color="#cacaca"/>
      <stop offset="0.5843137254901961" stop-color="#e8e8e8"/>
      <stop offset="0.6627450980392157" stop-color="#e6e6e6"/>
      <stop offset="0.7647058823529411" stop-color="#cacaca"/>
      <stop offset="0.9176470588235294" stop-color="#636363"/>
      <stop offset="1.0" stop-color="#838383"/>
    </linearGradient>
    <linearGradient gradientTransform="matrix(0.0024, 0.0, 0.0, 0.033, 0.0, 22.0)" gradientUnits="userSpaceOnUse" id="gradient5" spreadMethod="pad" x1="-819.2" x2="819.2">
      <stop offset="0.00392156862745098" stop-color="#959595"/>
      <stop offset="0.12941176470588237" stop-color="#7b7b7b"/>
      <stop offset="0.3254901960784314" stop-color="#cacaca"/>
      <stop offset="0.49019607843137253" stop-color="#ededed"/>
      <stop offset="0.5647058823529412" stop-color="#ededed"/>
      <stop offset="0.7019607843137254" stop-color="#cacaca"/>
      <stop offset="0.8823529411764706" stop-color="#7b7b7b"/>
      <stop offset="1.0" stop-color="#959595"/>
    </linearGradient>
  </defs>
</svg>
