<?xml version="1.0" encoding="UTF-8" standalone="no"?>
<svg xmlns:xlink="http://www.w3.org/1999/xlink" height="5.0px" width="28.0px" xmlns="http://www.w3.org/2000/svg">
  <g transform="matrix(1.0, 0.0, 0.0, 1.0, 14.0, 2.0)">
    <path d="M12.0 -1.0 Q12.8 -1.0 13.4 -0.4 14.0 0.2 14.0 1.0 14.0 1.8 13.4 2.4 12.8 3.0 12.0 3.0 L-12.0 3.0 Q-12.8 3.0 -13.4 2.4 -14.0 1.8 -14.0 1.0 -14.0 0.2 -13.4 -0.4 -12.8 -1.0 -12.0 -1.0 L12.0 -1.0" fill="#000000" fill-opacity="0.101960786" fill-rule="evenodd" stroke="none"/>
    <path d="M12.0 -2.0 Q12.8 -2.0 13.4 -1.4 14.0 -0.8 14.0 0.0 14.0 0.8 13.4 1.4 12.8 2.0 12.0 2.0 L-12.0 2.0 Q-12.8 2.0 -13.4 1.4 -14.0 0.8 -14.0 0.0 -14.0 -0.8 -13.4 -1.4 -12.8 -2.0 -12.0 -2.0 L12.0 -2.0" fill="url(#gradient0)" fill-rule="evenodd" stroke="none"/>
    <path d="M13.4 -1.4 L13.75 -1.0 -13.7 -1.0 -13.4 -1.4 Q-12.8 -2.0 -12.0 -2.0 L12.0 -2.0 Q12.8 -2.0 13.4 -1.4" fill="#1c1c1c" fill-opacity="0.2" fill-rule="evenodd" stroke="none"/>
    <path d="M13.75 1.0 L13.4 1.4 Q12.8 2.0 12.0 2.0 L-12.0 2.0 Q-12.8 2.0 -13.4 1.4 L-13.7 1.0 13.75 1.0" fill="#000000" fill-opacity="0.3019608" fill-rule="evenodd" stroke="none"/>
  </g>
  <defs>
    <radialGradient cx="0" cy="0" gradientTransform="matrix(0.0171, 0.0, 0.0, 0.0049, 0.0, 0.0)" gradientUnits="userSpaceOnUse" id="gradient0" r="819.2" spreadMethod="pad">
      <stop offset="0.13725490196078433" stop-color="#a7acb4"/>
      <stop offset="0.16470588235294117" stop-color="#a5a9af"/>
      <stop offset="0.26666666666666666" stop-color="#8d939c"/>
      <stop offset="0.36470588235294116" stop-color="#6c7175"/>
      <stop offset="0.6941176470588235" stop-color="#393c3e"/>
      <stop offset="0.8470588235294118" stop-color="#242628"/>
      <stop offset="0.9725490196078431" stop-color="#575a5e"/>
    </radialGradient>
  </defs>
</svg>
