<?xml version="1.0" encoding="UTF-8" standalone="no"?>
<svg xmlns:xlink="http://www.w3.org/1999/xlink" height="23.75px" width="12.55px" xmlns="http://www.w3.org/2000/svg">
  <g transform="matrix(1.0, 0.0, 0.0, 1.0, 21.2, 34.2)">
    <path d="M-15.8 -26.65 L-16.35 -24.7 -16.2 -24.8 -13.7 -27.15 -11.6 -25.05 -10.45 -23.25 -9.8 -21.65 Q-9.65 -20.85 -9.65 -20.05 L-9.85 -17.9 Q-10.05 -16.85 -10.65 -15.8 -11.25 -14.7 -12.3 -13.65 -13.35 -12.55 -15.2 -11.45 -16.45 -12.15 -17.3 -13.25 L-18.8 -15.6 -19.8 -18.1 Q-20.2 -19.4 -20.2 -20.5 -20.2 -22.0 -19.7 -23.85 L-18.25 -27.5 -15.8 -30.85 Q-14.3 -32.35 -11.9 -33.2 L-13.45 -31.0 -14.75 -28.95 -15.8 -26.65 M-15.3 -18.4 L-14.25 -16.75 -13.45 -15.7 -13.0 -16.45 -12.8 -17.6 -13.05 -18.8 -13.75 -20.5 -14.8 -21.95 Q-15.35 -22.55 -16.05 -22.55 L-16.5 -22.35 -16.1 -20.3 -15.3 -18.4" fill="none" stroke="#000000" stroke-linecap="round" stroke-linejoin="round" stroke-width="2.0"/>
    <path d="M-15.8 -26.65 L-16.35 -24.7 -16.2 -24.8 -13.7 -27.15 -11.6 -25.05 -10.45 -23.25 -9.8 -21.65 Q-9.65 -20.85 -9.65 -20.05 L-9.85 -17.9 Q-10.05 -16.85 -10.65 -15.8 -11.25 -14.7 -12.3 -13.65 -13.35 -12.55 -15.2 -11.45 -16.45 -12.15 -17.3 -13.25 L-18.8 -15.6 -19.8 -18.1 Q-20.2 -19.4 -20.2 -20.5 -20.2 -22.0 -19.7 -23.85 L-18.25 -27.5 -15.8 -30.85 Q-14.3 -32.35 -11.9 -33.2 L-13.45 -31.0 -14.75 -28.95 -15.8 -26.65 M-15.3 -18.4 L-14.25 -16.75 -13.45 -15.7 -13.0 -16.45 -12.8 -17.6 -13.05 -18.8 -13.75 -20.5 -14.8 -21.95 Q-15.35 -22.55 -16.05 -22.55 L-16.5 -22.35 -16.1 -20.3 -15.3 -18.4" fill="#ffffff" fill-rule="evenodd" stroke="none"/>
  </g>
</svg>
