<?xml version="1.0" encoding="UTF-8" standalone="no"?>
<svg xmlns:xlink="http://www.w3.org/1999/xlink" height="71.0px" width="120.0px" xmlns="http://www.w3.org/2000/svg">
  <g transform="matrix(1.0, 0.0, 0.0, 1.0, 3.0, 15.0)">
    <path d="M49.0 -3.0 L114.0 -3.0 Q117.0 -3.0 117.0 0.0 L117.0 53.0 Q117.0 56.0 114.0 56.0 L0.0 56.0 Q-3.0 56.0 -3.0 53.0 L-3.0 -12.0 Q-3.0 -15.0 0.0 -15.0 L46.0 -15.0 Q49.0 -15.0 49.0 -12.0 L49.0 -3.0 M112.0 1.0 L2.0 1.0 Q1.0 1.0 1.0 2.0 L1.0 51.0 Q1.0 52.0 2.0 52.0 L112.0 52.0 Q113.0 52.0 113.0 51.0 L113.0 2.0 Q113.0 1.0 112.0 1.0" fill="#000000" fill-rule="evenodd" stroke="none"/>
    <path d="M114.0 2.0 Q114.0 0.0 112.0 0.0 L2.0 0.0 Q0.0 0.0 0.0 2.0 L0.0 51.0 Q0.0 53.0 2.0 53.0 L112.0 53.0 Q114.0 53.0 114.0 51.0 L114.0 2.0 M46.0 -14.0 Q48.0 -14.0 48.0 -12.0 L48.0 -2.0 114.0 -2.0 Q116.0 -2.0 116.0 0.0 L116.0 53.0 Q116.0 55.0 114.0 55.0 L0.0 55.0 Q-2.0 55.0 -2.0 53.0 L-2.0 -12.0 Q-2.0 -14.0 0.0 -14.0 L46.0 -14.0" fill="#00ff00" fill-rule="evenodd" stroke="none"/>
  </g>
</svg>
