<?xml version="1.0" encoding="UTF-8" standalone="no"?>
<svg xmlns:xlink="http://www.w3.org/1999/xlink" height="72.55px" width="82.25px" xmlns="http://www.w3.org/2000/svg">
  <g transform="matrix(1.0, 0.0, 0.0, 1.0, 40.0, 35.9)">
    <path d="M22.25 -29.35 Q24.2 -30.75 25.4 -30.75 26.7 -30.75 27.7 -29.9 28.7 -29.05 28.7 -27.9 28.7 -26.4 27.45 -24.9 26.4 -23.55 26.7 -22.5 27.05 -21.35 28.0 -19.55 L29.25 -16.85 Q33.45 -16.15 34.45 -13.1 35.1 -11.25 34.4 -9.25 33.8 -7.55 33.05 -7.15 33.7 -3.7 33.7 0.0 L33.8 2.3 33.8 4.55 34.95 5.8 36.2 6.95 34.55 7.95 Q33.35 8.6 32.85 9.1 31.95 12.4 29.35 16.9 29.9 17.75 30.2 18.0 L32.0 19.25 Q34.9 20.95 34.45 21.75 34.15 22.2 33.65 22.1 L31.15 20.75 29.2 19.7 28.0 19.2 Q26.25 21.75 24.2 23.8 L22.95 25.05 23.65 26.4 Q24.0 27.2 24.0 28.25 24.0 29.35 23.15 30.1 22.25 30.85 21.15 30.55 20.35 30.35 19.9 29.95 L18.1 28.65 Q14.4 31.05 9.45 32.45 5.5 33.55 0.0 34.15 L-4.85 33.65 -9.5 32.45 -11.35 32.3 Q-13.05 32.8 -13.65 34.6 -14.25 36.35 -15.4 36.6 -16.35 36.8 -17.5 36.2 -18.9 35.45 -19.1 34.05 -19.3 32.6 -18.1 31.2 -17.2 30.15 -18.35 28.35 -21.7 26.15 -23.3 24.65 -24.7 24.3 -25.75 25.6 -26.9 27.05 -27.6 27.05 -28.85 27.1 -29.6 26.25 -30.3 25.5 -30.3 24.5 -30.3 23.8 -29.7 23.3 L-28.1 22.15 Q-27.25 21.1 -27.35 19.8 L-29.45 16.65 Q-30.6 14.85 -30.9 14.7 L-31.65 14.3 -32.5 14.1 Q-34.05 14.1 -35.0 13.2 -36.1 12.25 -36.1 10.5 -36.1 8.9 -34.8 7.65 L-33.35 6.3 -33.4 4.5 -33.65 1.75 -34.2 1.2 -35.05 1.0 Q-40.05 1.0 -40.0 -1.1 -39.95 -2.5 -38.35 -2.9 L-34.9 -3.05 -34.15 -3.15 -33.55 -3.6 -33.05 -8.55 Q-32.6 -10.95 -31.65 -13.2 -31.6 -13.95 -32.25 -15.55 -33.0 -17.2 -33.0 -18.1 -33.0 -21.0 -30.35 -21.65 L-28.5 -21.85 -27.15 -21.95 Q-26.5 -22.15 -24.55 -24.05 L-24.45 -26.35 Q-24.4 -27.55 -23.3 -28.45 -22.25 -29.35 -21.0 -29.45 L-18.4 -29.25 -17.25 -29.05 Q-13.55 -31.3 -9.35 -32.45 L-8.2 -33.7 Q-6.8 -34.95 -5.2 -35.15 -2.3 -35.55 -0.6 -33.7 L2.35 -34.0 5.4 -33.6 7.15 -35.05 Q9.25 -36.4 11.05 -35.65 12.6 -35.0 13.0 -33.55 13.25 -32.7 13.1 -30.95 15.85 -30.05 17.7 -28.9 19.1 -28.05 19.45 -28.05 20.3 -28.0 22.25 -29.35 M42.2 7.7 Q42.1 8.65 41.2 9.2 40.45 9.75 39.45 9.6 38.45 9.5 37.75 8.7 L37.25 7.95 Q36.95 7.5 37.0 7.1 37.1 6.4 38.25 5.55 39.05 5.05 40.1 5.15 41.05 5.3 41.7 6.05 42.35 6.8 42.2 7.7" fill="#aa010e" fill-rule="evenodd" stroke="none"/>
  </g>
</svg>
